<svg xmlns="http://www.w3.org/2000/svg" viewBox="0 0 3414 613">
  <path fill="#fff" d="M980.81 0h9.5c64.5 1.64 127.66 11.47 181.18 50.29a.17.17 0 0 1-.15.31c-44.33-12.93-90.31-.33-122.72 32.49q-.36.36-.84.22-52.45-14.45-106.54-8.29c-94.46 10.75-126.05 84.45-128.31 169.17-.86 32.51.31 77.05.25 124.87q-.14 118.25.83 180.44c.12 7.65 2.7 18.25 5.33 25.23 6.91 18.35 23.34 29.42 42.19 33.02a1.52 1.51-39.5 0 1-.29 3H684.98a1.56 1.56 0 0 1-.33-3.08c36.94-8.15 47.3-35.36 47.32-69.67q.06-105.63.02-211.26c-.01-27.62-.69-55.1.04-82.74 1.59-60.6 14.26-124.72 56.53-170.3 37.92-40.9 89.52-62.57 144.14-69.96Q955.81.61 965.31.6q7.78-.01 15.5-.6ZM1977.08 0h14.72q33.13.86 65.69 6.04c72.87 11.59 138.64 48.6 170.02 118.02 17.06 37.75 24.93 80.52 24.95 121.88q.08 145.28.03 290.56c-.01 11.39.87 23.54 3.81 33.86 5.86 20.58 23.66 34.4 44.55 37.11q.65.08.65.73v1.68q0 .63-.63.63l-204.41-.57a1.3 1.3 0 0 1-.24-2.57c37.11-6.98 47.91-36.19 47.96-70.31q.22-143.14-.07-286.28c0-1.27-.29-2.73-.35-4.1-2.32-51.13-14.65-111.65-58.78-143.67-27.21-19.74-62.44-26.74-95.7-29.1-58.13-4.13-119.11 7.28-152.03 60.84-20.98 34.14-27.3 77.28-27.37 116.59-.1 65.53.49 131.75.37 217.42-.04 24.49.64 48.98.54 73.49-.13 33.31 13.45 58.62 47.76 65.54a1.5 1.49-39.3 0 1-.3 2.96h-176.52a1.56 1.55-50.6 0 1-.3-3.08c19.05-3.78 34.38-14.57 41.61-32.76 4.04-10.16 5.94-22.84 5.94-33.47q.04-105.84.01-211.69c0-29.73-.72-59.24.17-88.99 1.87-61.81 15.84-126.75 61.03-171.96 49.83-49.85 118.05-67.69 186.89-68.8ZM3414 608.26v1.75l-.25.63q-.19.46-.69.46l-203.99-.43a1.3 1.29-77.6 0 1-1.17-1.84c.68-1.49 1.93-.99 3.08-1.29 43.45-11.3 45.64-45.35 45.71-82.98q.23-134.9-.13-269.79c-.01-3.87-.58-8.42-.83-13.02-1.69-30.92-7.4-62.76-20.43-91.05-18.76-40.69-53.41-62.74-96.59-71.26-41.22-8.13-87.93-9.12-127.81 5.83-60.93 22.85-81.6 79.17-87.35 138.98-.57 5.91.31 12.29.32 16.21.35 115.72-.71 205.05.06 305.1.01.77.51 1.94.51 2.71.17 27.74 12.24 50.3 40.13 58.17q4.4 1.24 7.69 1.38.76.04.72.8l-.13 1.98q-.03.49-.51.49l-204.29-.41a1.39 1.39 0 0 1-.26-2.75c42.69-8.21 47.93-43.49 47.94-79.35q.04-99.2.01-198.41c-.01-34.97.09-61.42-.45-77.17-1.4-41.42-8.75-89.64-33.61-123.93-27.49-37.93-73.02-51.23-117.69-54.3-25.52-1.75-49.94-1.24-74.42 4.34-86.7 19.79-108.13 99.27-108.53 176.58-.38 73.02.93 149.05.7 218.82-.07 22.26.59 44.52.54 66.79q-.03 11.25 1.1 17.81c4.55 26.44 19.19 44.28 46.41 49.14a1.51 1.51 0 0 1-.27 3h-176.3a1.52 1.52 0 0 1-.32-3c21.9-4.8 36.41-16.37 43.25-37.95q4.07-12.86 4.08-24.55.05-112.6 0-225.2c-.02-36.56-1.76-73.3 2.39-109.74 5.61-49.19 18.48-96.23 51.56-133.63 38.71-43.76 94.04-66.58 151.27-73.32q68.36-8.05 135.05 4.89c56.54 10.97 107.06 37.84 141.26 85.59a.12.11 44 0 0 .19 0c22.96-34.24 59.35-59.98 97.76-74.37 50.42-18.9 104.57-21.75 157.76-17.45 85.19 6.89 166.02 40.85 203.05 123.53 17.31 38.67 24.42 81.91 24.44 124.14q.08 146.73.03 293.47c-.01 2.06.41 4.69.49 7.35.81 26.63 13.7 48.2 40.26 55.5q2.2.61 8.26 1.75ZM563.78 104.23c48 46.62 73.35 107.43 77.21 174.28 5.81 100.72-25.22 206.38-111.77 267.18-65 45.66-143.78 63.48-222.16 65.08-27.49.56-55.43-.19-83.21-.05-12.56.06-26.25-.76-39.43-.76-13.1 0-27-.29-40.45-.63l-97.55-2.52c-13.84-.36-30.46-1.18-45.67-1.38a.29.29 0 0 1-.05-.57q21.19-3.95 40.71-13.48c20.8-10.16 30.61-27.88 39.28-48.38q.21-.49.74-.49c41.74-.04 83.41.14 125.13.5 66.04.58 134.36 4.7 196.97-20.99 92.39-37.91 119.04-129.46 116.31-221.53-2.41-81.5-27.08-159.56-106.34-197.02-39.6-18.71-83.72-25.17-127.94-25.39-52.09-.27-83.86.31-123.81.42-26.62.07-53.15.75-80.12.4q-.83-.01-1.1-.79-5.73-16.62-17.01-30.87C49.16 29.1 22.63 20.62.77 16.2a.33.33 0 0 1 .06-.65c19.21-.17 38.48-.83 57.65-1.44 61.27-1.96 128.07-3.26 179.78-3.57q8.29-.05 20-.34c46.92-1.15 91.68.41 137.5 9.44 62.75 12.38 121.85 39.76 168.02 84.59ZM1271.43 478.93c34.51 38.53 85.3 57 135.52 62.9q37.9 4.45 76.01 3c21.13-.8 42.26-.66 63.38-.55a.71.71 0 0 1 .66.48c7.3 21.2 20.84 40.31 42.13 49.93q18.2 8.23 37.68 12a.28.28 0 0 1-.06.56q-4.9-.04-10 .13c-38.3 1.3-76.78 2.57-115 2.83-28.22.2-56.59 3.41-84.78 1.78-75.27-4.34-148.96-22.33-210.68-67.53-70.34-51.52-103.33-133.99-107.61-218.96q-.54-10.67-.73-19.99c-1.6-76.72 24.7-151.31 82.09-203.85 68.39-62.63 157.41-87.25 249.21-89.54q7.79-.2 19.99.36 21.71.98 43.44 1.43 62.75 1.28 125.47 3.36c1.91.07 5.07-.2 7.39.36q1.22.29 0 .55c-26 5.42-50.91 14.57-66.19 37.14q-7.82 11.54-12.53 24.84-.17.49-.69.49-31.44.42-62.77-.31c-3.79-.09-8.69-.8-13.36-.82-82.51-.3-168.79 14.33-216.31 89.7-18.96 30.08-28.48 66.49-32.04 101.52q-.06.54.49.55 93.95.65 187.85.62c22.56 0 50.56-.31 67.37-18.21q11.43-12.18 14.48-28.97a1.65 1.65 0 0 1 3.27.3l-.05 174.99a1.46 1.46 0 0 1-2.89.3c-8.9-41.95-42.36-47.61-78.86-47.59q-95.57.04-191.14.66-.51 0-.46.51c4.72 45.74 18.73 90.41 49.72 125.03Z"/>
  <circle cx="368.15" cy="171.18" r="24.23" fill="#fff"/>
  <path fill="#fff" d="M172.55 395.6c-36.15-42.54-42.02-102.21-14.1-150.34 38.15-65.77 124.19-84.73 186.72-41.68 33.45 23.02 54.35 60.95 56.01 101.68 3.67 90.52-83.22 155.97-169.51 129.41q-.51-.16-.66.35c-4.99 17.4-19.67 29.98-38.58 28.81-21.62-1.33-37.43-20.42-35-41.56 1.24-10.77 6.59-19.03 15.04-25.79q.49-.4.08-.88Z"/>
  <circle cx="1930.11" cy="293.51" r="41.46" fill="#fff"/>
</svg>
