<svg xmlns="http://www.w3.org/2000/svg" viewBox="0 0 3084 679">
  <path fill="#fff" d="M1913.06 0h15q2.94.52 4.68.54 49.7.57 96.51 12.22c71.43 17.79 129.38 60.44 158.27 129.14q13.24 31.48 18.79 65.34 4.91 30.03 5.04 49.45c.77 111.4.42 222.82.39 334.22 0 2.11.47 4.68.52 7.33.58 32.06 19.14 57.97 52.06 62.22q.55.07.56.61l.05 1.83q.02.84-.83.83l-221.87-.55a1.42 1.41-50.8 0 1-.28-2.8c13.95-2.93 27.17-9.33 36.46-20.39 15.73-18.75 15.57-46.8 15.57-70.34q.04-127.07-.21-254.15c-.04-20.2.18-38.44-.83-54.24-2.62-40.75-10.88-84.9-34.38-119.32-25.58-37.48-68.25-53.99-111.54-59.54-38.92-5-81.03-4.41-118.2 8.67-77.14 27.13-98.11 108.32-98.48 181.12-.45 87.5.9 166.08.65 249.06-.07 24.15.66 48.29.5 72.45-.04 6.63 1.18 12.61 2.44 18.96 5.27 26.55 23.04 43.19 49.37 48.09a1.51 1.51 0 0 1-.28 3h-192.01a1.56 1.56 0 0 1-.31-3.09c38.71-7.75 51.75-37.62 51.77-73.79q.08-112.43 0-224.87c-.02-27.22-1.15-54.54-.36-81.75q.26-8.75.51-17.5c1.86-64.46 15.77-133.46 61.07-182.42 48.69-52.6 117.79-75.66 187.82-79.19q10.78-.55 21.55-1.14ZM696.86 305.77c5.7 110.44-28.21 224.29-123.43 290.13-85.21 58.92-186.76 72.06-287.74 69.68-39.02-.92-68.84-.46-103.19-1.36q-31.25-.81-62.51-1.37c-30.95-.55-61.9-1.98-92.85-2.57-7.18-.13-17.6-1.03-26.49-.74q-.26.01-.17-.23.04-.13.09-.26.03-.11.14-.13c18.55-3.55 39.53-10.24 55.36-21.55 14.92-10.66 25.44-28.51 31.46-45.64q.17-.49.69-.49 56.44.01 112.76.04c7.16 0 14.93.43 21.44.44q69.81.14 89.33-.01c79.44-.65 165.39-21.03 212.69-91.52 30.23-45.07 39.17-99.13 40.68-151.13 2.78-96.12-23.87-193.12-118.35-236.59-33.76-15.53-71.27-22.99-108.21-25.31-8.93-.57-17.75-1.11-26.85-1.13-32.21-.06-64.5-.41-96.71.22-20.09.39-40.17-.02-60.25.51q-33.08.86-66.18.38-.53-.01-.71-.51c-5.88-16.04-14.87-32.15-27.9-43.24-15.27-13-39.28-20.78-58.82-24.35a.39.39 0 0 1 .07-.78c12.15-.05 25.33-.35 37.9-1.03 13.27-.71 27.25-.56 40.84-1.17 9.28-.42 19.14-.37 27.82-.7q16.98-.65 33.98-.82c12.57-.12 27.48-.97 41.25-.79 4.59.05 9.43-.55 13.68-.5q15.07.18 30.14-.3c32.08-1.02 64.33-.57 96.43-.71q27.91-.13 62 3.52c82.35 8.82 160.71 36.93 222.29 93.7 56.17 51.77 85.4 120.37 89.32 196.31ZM3031.29 38.01c-16.57 10.04-28.41 30.71-34.9 48.63q-.18.5-.72.51c-39.52.55-79.34-.79-118.42-.69-4.6.02-9.58-.43-13.75-.43q-49.5-.08-99 .01-20.31.04-51.49 4.73c-76.98 11.59-141.87 47.95-172.47 122.75q-15.44 37.75-19.17 80.41-.04.47.43.47 105.98.6 211.92.63c39.35.01 72.69-9.36 81.51-51.85a1.65 1.65 0 0 1 3.27.33v190.73a1.6 1.6 0 0 1-3.16.37c-9.42-40.18-38.06-51.22-76.04-51.59-72.54-.69-145.08.5-217.63.46q-.51 0-.46.51c3.05 29.26 9.61 58.26 21.53 85.27 41.89 94.95 137.91 122.1 233.21 122.43q44.27.15 88.55.09c6.15-.01 12.77-.51 18.42-.51q56.55-.05 113.1-.01.52 0 .69.49 6.87 19.69 19.05 34.24c15.73 18.79 43.98 28.46 67.55 32.85a.31.31 0 0 1-.06.62c-14.64.14-29.23 1.01-43.86 1.24q-4.49.07-12.77.51c-8.48.45-16.5.25-25.44.67-6.54.31-13.01-.23-19.65.4q-3.95.37-6.96.41c-34.51.44-64.74 1.44-93.57 1.75q-9.66.11-20 .37c-20.68.52-41.33.22-61.99.66-47 .99-92.98-.88-138.5-9.24-53.7-9.86-105.48-29.62-150.57-60.97-47.76-33.19-82.9-82.08-102.2-136.89-16.25-46.15-22.53-96.02-20.79-145.61q1.21-34.36 9.5-67.72c33.22-133.65 152.16-207.35 281.06-226.45q35.66-5.28 60.93-5.9c51.16-1.27 102.28-.18 153.81.8 60.21 1.13 111.77 2.92 161.83 3.92 8.24.16 19.11 1.07 28.75.8a.4.4 0 0 1 .42.35q.06.45-.24.51-29.26 5.32-51.72 18.94ZM945.02 606.48c-44.37-42.61-64.99-107.39-69.16-167.25-.67-9.56-1.58-19.2-1.59-28.74q-.05-148.43 0-296.85c.01-32.32 2.92-68.35-29.17-87.24q-10.84-6.38-23.3-7.84-.68-.08-.71-.77l-.06-1.91a.66.66 0 0 1 .77-.68c1.34.21 2.49-.19 3.61-.19 70.29-.04 140.89.3 211.34.63q3.96.01 7.18.14a1.44 1.44 0 0 1 .2 2.86c-29.95 5.47-46.49 25.92-50.28 55.57-.67 5.28-1.59 10.52-1.59 15.84q-.02 156.55-.01 313.11c0 2.06.43 4.17.51 6.34 1.74 46.76 11.56 101.01 42.59 137.77 36.59 43.35 100.78 52.86 153.9 51.96 61.67-1.04 116.97-22.59 144.55-81.87 15.31-32.93 21.56-70.53 21.65-106.55q.27-116.15-.03-146.31c-.62-62.36.15-124.72-1.25-187.06q-.11-5.07-3.75-17.93c-6.67-23.58-24.61-36.72-48.04-41.44q-.63-.13-.63-.77v-.8q0-1.5 1.5-1.5l191.76.01a1.64 1.64 0 0 1 .33 3.25c-43.15 8.87-51.84 41.99-51.84 80.39v91.03q-.01 36.21.22 72.41.44 67.82.26 135.7c-.09 32.62-3.11 65.64-10.2 97.51-9.29 41.75-28.01 80.97-58.88 111-49.18 47.83-114.86 68.21-182.09 71.67-41.94 2.15-84.4-.38-125.48-9.36-45.55-9.96-88.42-29.58-122.31-62.13Z"/>
  <circle cx="400.24" cy="187.36" r="26.36" fill="#fff"/>
  <path fill="#fff" d="M305.24 197.8c73.1 5.56 128.19 64.43 130.92 137.19 2.72 72.44-51.65 134.19-122.41 144.3-20.68 2.96-42.23.61-62-5.49a.56.56 0 0 0-.71.4c-3.64 14.89-15.29 27.03-30.4 30.44-29.81 6.73-56.55-20.84-48.28-50.46q3.69-13.19 15.24-21.98.41-.32.07-.71c-30.63-35.91-41.96-83.88-29.65-129.49 17.63-65.32 79.63-109.35 147.22-104.2Z"/>
</svg>
