<svg xmlns="http://www.w3.org/2000/svg" width="487.06" height="487.06" xml:space="preserve" fill-rule="evenodd"
  clip-rule="evenodd" viewBox="0 0 487.06 487.06" id="rootz">
  <g id="root">
    <g id="strongholds">
      <g id="arrakeen">
        <path fill="#F7BA7A" fill-rule="nonzero" stroke="#000" stroke-linecap="round" stroke-linejoin="round"
          stroke-width="2.2"
          d="m486.276 223.305-1.083 3.86 2.599 10.345-1.052 5.156-6.031 10.993-6.865 7.966.897 7.657 13.546 10.313 3.896 9.141 6.99-1.205 6.464 2.04 22.433-38.792-.265-9.61-12.626-14.456-12.675-3.977z"
          transform="matrix(.99213 0 0 .99369 -178.107 -182.81)" />
        <path fill="#67371C"
          d="m304.342 39.086-1.074 3.836 2.578 10.28-1.045 5.123-5.982 10.923-6.811 7.916.889 7.609 13.44 10.248 3.866 9.082 6.935-1.196 6.413 2.027 22.256-38.547-.263-9.55-12.526-14.365-12.576-3.951zm8.992 8.354 1.395 5.562-1.698 8.337-7.05 12.87-4.926 5.726.02.178 12.337 9.407 2.077 4.879 2.25-.389 1.788.566 17.55-30.401-.109-3.989-8.876-10.18-8.83-2.774z" />
        <path fill="none" stroke="#F7BA7A" stroke-dasharray="6.6,3.3" stroke-linecap="square" stroke-linejoin="round"
          stroke-width="1.1"
          d="m488.471 226.093-.311 1.113 2.57 10.237-1.267 6.219-6.384 11.635-6.242 7.243.61 5.204 13.18 10.035 3.305 7.75 5.44-.936 4.934 1.557 20.875-36.101-.214-7.774L513.55 229.2l-11.437-3.587z"
          transform="matrix(.99213 0 0 .99369 -178.107 -182.81)" />
      </g>
      <g id="carthag">
        <path fill="#F7BA7A" fill-rule="nonzero" stroke="#000" stroke-linecap="round" stroke-linejoin="round"
          stroke-width="2.2"
          d="m431.62 299.368 9.896-23.59.093-18.62-4.692-8.347-15.574-3.046-8.117 4.652-18.862 5.256 6.915 39.158 4.133.293 6.34 7.072 7.298-2.748z"
          transform="matrix(.99213 0 0 .99369 -178.107 -182.81)" />
        <path fill="#67371C"
          d="m250.116 114.669 9.818-23.441.093-18.503-4.656-8.294-15.452-3.027-8.052 4.623-18.714 5.223 6.86 38.91 4.101.292 6.29 7.027 7.241-2.73zm-5.781-8.628 6.943-16.575.072-14.495-1.575-2.807-8.347-1.635-6.187 3.552-12.19 3.402 4.323 24.514.854.061 4.673 5.219 3.138-1.184z" />
        <path fill="none" stroke="#F7BA7A" stroke-dasharray="6.6,3.3" stroke-dashoffset="3.41" stroke-linecap="square"
          stroke-linejoin="bevel" stroke-width="1.1"
          d="m429.707 296.518 8.946-21.322.085-17.296-3.673-6.535-13.223-2.586-7.499 4.298-16.705 4.655 6.076 34.403 3.058.217 5.805 6.474 5.942-2.237z"
          paint-order="stroke fill markers" transform="matrix(.99213 0 0 .99369 -178.107 -182.81)" />
      </g>
      <g id="tueks">
        <path fill="#F7BA7A" fill-rule="nonzero" stroke="#000" stroke-linecap="round" stroke-linejoin="round"
          stroke-width="2.2"
          d="m596.65 565.954 19.457-17.287 8.657-15.502-.155-12.474 3.53-12.185-13.192-3.95-5.193-5.26-10.69-1.258-10.334-2.538-8.688 15.267-1.184 11.573 3.463 16.273-1.484 13.648 1.732 7.287z"
          transform="matrix(.99213 0 0 .99369 -178.107 -182.81)" />
        <path fill="#67371C"
          d="m413.847 379.572 19.304-17.177 8.59-15.404-.155-12.396 3.503-12.108L432 318.562l-5.152-5.227-10.606-1.25-10.252-2.522-8.62 15.171-1.175 11.5 3.436 16.17-1.472 13.562 1.718 7.241zm-1.543-10.224 13.994-12.451 6.75-12.108-.142-11.368 1.474-5.099-6.994-2.096-4.574-4.642-8.117-.957-4.41-1.083-4.48 7.884-.852 8.335 3.443 16.197-1.463 13.458.395 1.663z" />
        <path fill="none" stroke="#F7BA7A" stroke-linecap="round" stroke-linejoin="round" stroke-width="1.1"
          d="m596.138 562.576 17.702-15.725 8.048-14.413-.15-12.136 2.86-9.87-11.178-3.344-5.001-5.067-9.867-1.161-8.401-2.064-7.319 12.86-1.076 10.53 3.465 16.28-1.48 13.614 1.294 5.444z"
          transform="matrix(.99213 0 0 .99369 -178.107 -182.81)" />
      </g>
      <g id="tabr">
        <path fill="#F7BA7A" fill-rule="nonzero" stroke="#000" stroke-linecap="round" stroke-linejoin="round"
          stroke-width="2.2"
          d="m271.482 351.245 5.14-17.43-2.907-3.12-.526-4.94-2.567-2.007-.247-6.237-5.69-9.603-1.999-9.48-9.066-4.38-20.083 18.031-.688 4.956-4.314 7.738-5.23 1.715-1.49 8.616 10.004 11.017 5.536.762 5.345-3.088 12.638 5.414 7.865-.115z"
          transform="matrix(.99213 0 0 .99369 -178.107 -182.81)" />
        <path fill="#67371C"
          d="m91.238 166.219 5.1-17.32-2.884-3.1-.522-4.91-2.547-1.994-.245-6.197-5.645-9.543-1.983-9.42-8.995-4.352L53.592 127.3l-.683 4.925-4.28 7.689-5.188 1.704-1.479 8.561 9.925 10.947 5.493.758 5.303-3.068 12.538 5.38 7.804-.115zm-5.941-10.5 1.334-4.532-1.488-1.6-.44-4.135-2.817-2.206-.318-8.02-5.258-8.89-1.383-6.57-13.188 11.86-.469 3.394-6.717 12.068-2.849.936 4.241 4.68 6.162-3.564 14.834 6.364 7.131-.104z" />
        <path fill="none" stroke="#F7BA7A" stroke-linecap="round" stroke-linejoin="round" stroke-width="1.1"
          d="m269.516 347.778 3.895-13.208-2.445-2.623-.5-4.685-2.656-2.077-.271-6.84-5.562-9.385-1.806-8.568-6.066-2.93-17.872 16.045-.617 4.451-5.121 9.185-4.659 1.528-.957 5.544 8.363 9.212 3.53.486 5.737-3.314 13.398 5.739 7.643-.111z"
          transform="matrix(.99213 0 0 .99369 -178.107 -182.81)" />
      </g>
      <g id="habbanya">
        <path fill="#F7BA7A" fill-rule="nonzero" stroke="#000" stroke-linecap="round" stroke-linejoin="round"
          stroke-width="2.2"
          d="m282.424 548.481-10.59-21.205-.566-7.577-2.64-6.447-13.716-3.295-14.66 5.13-6.6 10.777 5.61 19.72 20.354 22.005z"
          transform="matrix(.99213 0 0 .99369 -178.107 -182.81)" />
        <path fill="#67371C"
          d="m102.094 362.21-10.506-21.07-.562-7.53-2.62-6.406L74.8 323.93l-14.545 5.098-6.548 10.709 5.566 19.595 20.194 21.867zm-10.802-2.247-8.219-16.482-.585-7.86-.422-1.032-6.81-1.638-9.22 3.231-2.956 4.837 3.962 13.954 13.184 14.276z" />
        <path fill="none" stroke="#F7BA7A" stroke-linecap="round" stroke-linejoin="round" stroke-width="1.1"
          d="m278.85 547.738-9.833-19.688-.574-7.686-1.912-4.672-11.469-2.754-12.897 4.513-5.41 8.837 5.078 17.856 18.034 19.498z"
          transform="matrix(.99213 0 0 .99369 -178.107 -182.81)" />
      </g>
    </g>
    <g id="polar">
      <g stroke-linecap="round" stroke-linejoin="round">
        <path fill="#fff" fill-rule="nonzero" stroke="#000" stroke-width="2.2"
          d="m387.054 415.264-7.298 13.784-2.5 14.904 5.233 5.93 3.489.235 6.443 6.21 8.121 3.39 7.293-1.015 4.539 8.123 5.038 5.09 15.241.563 12.383-8.752.475-8.573 4.27-5.33 4.49-10.131 7.596-10.644 2.57-14.337-8.295-11.767-9.311.064-4.43 1.836-7.024-.236-5.169-5.143-5.296-.033-4.552 3.442-8.8 2.963-12.9 1.158z"
          transform="matrix(.99213 0 0 .99369 -178.107 -182.81)" />
        <path fill="none" stroke="#888" stroke-width="1.1"
          d="m389.272 417.202-6.766 12.775-2.197 13.105 3.55 4.024 3.356.227 6.809 6.562 6.9 2.88 8.459-1.178 5.304 9.493 3.966 4.007 13.135.485 10.462-7.393.45-8.109 4.61-5.755 4.457-10.057 7.392-10.357 2.246-12.529-6.743-9.565-7.25.05-4.487 1.858-8.773-.294-5.136-5.111-3.148-.02-4.149 3.137-9.564 3.22-12.464 1.119z"
          transform="matrix(.99213 0 0 .99369 -178.107 -182.81)" />
      </g>
    </g>
    <g id="rock">
      <g stroke-linecap="round" stroke-linejoin="round">
        <!--False Wall West-->
        <path fill="#A67A3E" fill-rule="nonzero" stroke="#000" stroke-width="2.2"
          d="m346.257 439.575-19.14 1.805-2.32 6.114-10.329 4.817-.703 2.435-1.71 1.517-.256 13.916.782 2.635-.34 7.163-15.803 17.2-4.353 10.675 2.629 2.902 2.783 5.373.155 7.287-5.072 4.416.984 11.318 8.355 17.83 1.547 14.945 9.154 5.979h8.902l-1.932-30.685 10.04-11.436 7.237-32.91 9.238-45.159z"
          transform="matrix(.99213 0 0 .99369 -178.107 -182.81)" />
        <path fill="none" stroke="#67371C" stroke-width="1.1"
          d="m343.364 442.723-14.199 1.34-2.1 5.532-10.203 4.758-.572 1.982-1.391 1.234-.225 12.22.794 2.675-.412 8.684-16.157 17.584-3.48 8.533 1.67 1.845 3.26 6.292.197 9.29-4.985 4.34.815 9.363 8.346 17.808 1.455 14.07 7.297 4.767h4.995l-1.816-28.822 10.335-11.77 7.074-32.17 9.179-44.867z"
          transform="matrix(.99213 0 0 .99369 -178.107 -182.81)" />
      </g>
      <g stroke-linecap="round" stroke-linejoin="round">
        <!--False Wall South-->
        <path fill="#A67A3E" fill-rule="nonzero" stroke="#000" stroke-width="2.2"
          d="m596.65 565.954-14.08-6.406-1.733-7.287 1.484-13.648-3.463-16.273 1.184-11.573-14.705-11.38-6.938.35-13.526-8.779-7.035 1.172-13.67-11.599-7.165 14.18-4.033-.049-6.588-10.104-5.206-19.266-6.958-5.883-5.21.481-4.891 18.699-8.854-.515-3.436-2.67-2.558.077.343 12.161-3.817 11.984 14.559 25.178 21.684 27.636 15.79 15.18 14.163 6.701 8.938 9.789 2.66 11.64 4.607 6.948 10.763 2.16 6.835-.43 5.319-2.286 1.175-3.397 4.609-6.576 1.638-10.653 6.816-7.71z"
          transform="matrix(.99213 0 0 .99369 -178.107 -182.81)" />
        <path fill="none" stroke="#67371C" stroke-width="1.1"
          d="m590.882 566.476-10.778-4.904-2.17-9.13 1.488-13.682-3.462-16.264 1.069-10.44-12.608-9.757-6.805.343-13.37-8.677-7.25 1.208-11.91-10.106-6.33 12.529-7.353-.09-7.67-11.766-5.092-18.84-5.357-4.53-2.01.185-4.977 19.028-12.09-.704-1.96-1.522.245 8.69-3.581 11.242 13.825 23.908 21.435 27.32 15.307 14.718 14.251 6.741 9.827 10.762 2.711 11.867 3.662 5.52 9.226 1.854 5.962-.377 3.7-1.59.893-2.58 4.454-6.357 1.666-10.824 7.6-8.596z"
          transform="matrix(.99213 0 0 .99369 -178.107 -182.81)" />
      </g>
      <g stroke-linejoin="round">
        <!--Shield Wall-->
        <path fill="#A67A3E" fill-rule="nonzero" stroke="#000" stroke-linecap="round" stroke-width="2.2"
          d="m477.657 393.789 12.61-6.537 3.245-4.156 13.02-4.765 6.337.382 3.36-6.938 3.933-1.906 3.207-4.194 14.05-6.327 3.055-3.47.343-3.468 4.315-1.296 7.026-6.672 5.268-13.494 27.452-22.187 9.278-17.344.145-4.22-13.508-4.662-16.837 2.554-11.264 14.562-.382 5.49-16.532 12.579-6.759.648-34.132 19.708-8.019 1.487-10.996 18.183 1.527 3.431-15.995 18.165 12.368 8.832z"
          transform="matrix(.99213 0 0 .99369 -178.107 -182.81)" />
        <path fill="none" stroke="#67371C" stroke-linecap="square" stroke-width="1.1"
          d="m478.579 390.086 9.811-5.087 3.365-4.308 14.35-5.252 5.02.302 2.957-6.106 4.215-2.043 3.233-4.228 14.146-6.371 2.036-2.312.441-4.46 5.499-1.651 6.066-5.762 5.313-13.607 27.593-22.3 8.69-16.246.05-1.443-10.84-3.742-15.002 2.276-10.03 12.969-.412 5.916-18.215 13.86-6.95.667-34.02 19.643-7.239 1.342-9.557 15.806 1.665 3.741-15.115 17.165 10.198 7.282z"
          transform="matrix(.99213 0 0 .99369 -178.107 -182.81)" />
      </g>
      <g stroke-linecap="round" stroke-linejoin="round">
        <!--False Wall East-->
        <path fill="#A67A3E" fill-rule="nonzero" stroke="#000" stroke-width="2.2"
          d="m478.318 454.743 7.101-17.116-.038-5.908 2.062-2.67-.874-22.38-12.797-18.495-12.368-8.832-4.735 9.3-9.851 9.34.013 5.026 9.311-.064 8.296 11.767-2.57 14.337-7.597 10.644-4.49 10.13 13.665 11.45z"
          transform="matrix(.99213 0 0 .99369 -178.107 -182.81)" />
        <path fill="none" stroke="#67371C" stroke-width="1.1"
          d="m476.11 452.586 6.438-15.519-.04-6.315 2.03-2.63-.8-20.51-12.04-17.4-9.25-6.605-3.447 6.772-9.312 8.83.002.917 7.932-.054 9.847 13.968-2.894 16.146-7.802 10.93-3.5 7.897 10.65 8.922z"
          transform="matrix(.99213 0 0 .99369 -178.107 -182.81)" />
      </g>
      <g stroke-linecap="round" stroke-linejoin="round">
        <!--Pasty Mesa-->
        <path fill="#A67A3E" fill-rule="nonzero" stroke="#000" stroke-width="2.2"
          d="m628.14 508.506 8.968-25.69 4.268-8.647.774-13.832-1.919-6.454 1.083-1.976-2.103-5.31 2.041-9.14 5.97-8.409.556-7.741-6.279.092-9.154-11.579-2.35-12.721 3.804-10.19 8.876-6.67.865-4.075 15.653-16.709a243.782 243.782 0 0 0-13.248-34.59l-9.574.24-2.97 2.222-3.494-1.698-9 6.422-6.74-4.044-14.939 4.446-5.01-5.403-12.092.555-3.649-2.902-2.565-8.695-18.486 14.94-5.268 13.494-7.026 6.672-4.315 1.296-.343 3.469-3.054 3.469-7.026 3.163.036 15.575 6.238 13.13.676 21.635-3.886 16.197-12.689 34.809 3.398 16.674 13.67 11.6 7.036-1.173 13.526 8.778 6.938-.35 14.705 11.381 8.688-15.267 10.334 2.538 10.69 1.258 5.193 5.26z"
          transform="matrix(.99213 0 0 .99369 -178.107 -182.81)" />
        <path fill="none" stroke="#67371C" stroke-width="1.1"
          d="m626.335 504.977 8.124-23.27 4.087-8.28.713-12.753-2.115-7.119 1.01-1.844-1.932-4.88 2.357-10.56 5.84-8.225.276-3.831-4.568.067-10.472-13.245-2.623-14.197 4.374-11.715 8.687-6.528.809-3.806 15.07-16.087a240.944 240.944 0 0 0-11.83-30.93l-6.784.168-3.637 2.724-3.535-1.718-9.142 6.525-7.271-4.363-15.436 4.595-5.317-5.735-11.838.544-5.2-4.135-1.606-5.447-14.555 11.763-5.225 13.382-7.984 7.58-3.13.942-.246 2.478-4.073 4.625-5.898 2.657.03 13.08 6.219 13.091.708 22.615-4.014 16.729-12.468 34.203 3.039 14.914 11.9 10.097 6.821-1.136 13.682 8.88 7.072-.357 12.93 10.006 8.124-14.277 12.268 3.012 11.514 1.354 5.383 5.455z"
          transform="matrix(.99213 0 0 .99369 -178.107 -182.81)" />
      </g>
      <g stroke-linecap="round" stroke-linejoin="round">
        <!--Rim Wall West-->
        <path fill="#A67A3E" fill-rule="nonzero" stroke="#000" stroke-width="2.2"
          d="m499.821 312.789 12.229-8.708-.12-3.316 7.193-4.306.501-2.923 3.302-.194.712-4.323 7.978-13.879 2.277-11.028 4.438-5.416-.034-10.075-3.353-1.493-3.665 3.65h-3.21l-22.432 38.793-6.488 11.22 1.137 6.286-1.948 3.18z"
          transform="matrix(.99213 0 0 .99369 -178.107 -182.81)" />
        <path fill="none" stroke="#67371C" stroke-width="1.1"
          d="m503.166 306.893 5.964-4.248-.124-3.466 7.514-4.498.664-3.869 3.285-.193.423-2.575 8.01-13.931 2.326-11.268 4.232-5.166-.023-7-2.972 2.962h-2.74l-27.568 47.673z"
          transform="matrix(.99213 0 0 .99369 -178.107 -182.81)" />
      </g>
      <g stroke-linecap="round" stroke-linejoin="round">
        <!--Plastic Basin-->
        <path fill="#A67A3E" fill-rule="nonzero" stroke="#000" stroke-width="2.2"
          d="M379.047 390.565 331.44 350.68l.16-6.465-4.241-4.201-2.252-10.715-2.942-7.647 1.61-2.971.559-9.55 2.038-7.597-1.479-3.759 4.914-10.6 6.841-10.887 2.018-8.05 4.487-2.215 3.024-4.316 5.424-3.709 2.006-4.758 2.35-.181 7.46-15.606 2.105-.77.526-10.617 1.26-3.765-16.15 2.286-9.813 8.31H322.14l-13.096-4.345-8.21 11.093-10.003 6.062-8.23 12.798-9.73 28.77-10.185 11.152 1.998 9.481 5.69 9.603.248 6.237 2.567 2.008.526 4.94 2.907 3.118-5.14 17.431-2.606 8.837-3.093.31-2.134 4.446-.51 5.397 65.023 23.63 35.295 12.825z"
          transform="matrix(.99213 0 0 .99369 -178.107 -182.81)" />
        <path fill="none" stroke="#67371C" stroke-opacity=".986" stroke-width="1.1"
          d="m374.85 390.785-46.31-38.798.162-6.61-3.973-3.935-2.38-11.33-3.334-8.665 1.936-3.568.539-9.206 1.87-6.97-1.583-4.02 5.505-11.875 6.695-10.656 2.23-8.893 5.018-2.477 2.902-4.143 5.159-3.527 2.356-5.592 2.441-.187 7.251-15.164 1.419-.52.44-8.875-10.813 1.531-9.984 8.455h-20.72l-11.563-3.836-7.309 9.876-9.919 6.01-7.681 11.945-9.809 29.005-9.601 10.513 1.598 7.583 5.818 9.82.224 5.636 2.478 1.936.553 5.196 3.368 3.615-8.753 29.68-3.408.34-1.217 2.536-.254 2.687 96.487 35.062z"
          transform="matrix(.99213 0 0 .99369 -178.107 -182.81)" />
      </g>
    </g>
    <g id="sand">
      <g stroke-linejoin="round">
        <!--Imperial Basin-->
        <path fill="#F6D979" fill-rule="nonzero" stroke="#000" stroke-linecap="round" stroke-width="2.2"
          d="m490.266 338.933 9.555-26.144-1.483-2.532 1.948-3.18-1.137-6.286 6.488-11.22-6.465-2.04-6.989 1.205-3.896-9.14-13.546-10.314-.897-7.657 6.865-7.966 6.031-10.993 1.052-5.156-2.599-10.344 1.083-3.86-5.288-7.688-5.876-.71-10.86-8.209-13.696 17.07-8.907 20.472-4.732 4.57 4.692 8.348-.093 18.62-9.897 23.59-3.927 25.381 2.69 9.325-.227 18.444 2.13 2.471-.528 4.194.117 18.415 1.434 4.309-3.1 17.557 5.169 5.143 7.023.236 4.43-1.836-.012-5.026 9.851-9.34 4.735-9.3 15.995-18.165-1.527-3.43 10.996-18.184z"
          transform="matrix(.99213 0 0 .99369 -178.107 -182.81)" />
        <path fill="none" stroke="#67371C" stroke-dasharray="6.6,3.3" stroke-linecap="square" stroke-opacity=".993"
          stroke-width="1.1"
          d="m488.133 336.417 8.534-23.344-1.67-2.848 2.273-3.712-1.129-6.245 5.229-9.041-2.397-.757-8.539 1.471-4.489-10.528-13.91-10.591-1.185-10.112 7.49-8.69 5.677-10.349.835-4.096-2.624-10.45.926-3.303-3.797-5.518-5.358-.648-9.254-6.994-11.712 14.597-8.98 20.644-3.554 3.431 3.98 7.083-.1 19.943-9.98 23.791-3.778 24.413 2.633 9.125-.22 17.783 2.254 2.613-.662 5.269.112 17.773 1.519 4.566-2.967 16.799 3.31 3.293 5.275.177 2.084-.863-.01-4.343 10.388-9.85 4.675-9.183 15.021-17.058-1.388-3.12 12.434-20.562z"
          transform="matrix(.99213 0 0 .99369 -178.107 -182.81)" />
      </g>
        <!--Bight of the Cliff-->
      <path fill="#F6D979" fill-rule="nonzero" stroke="#000" stroke-linecap="round" stroke-linejoin="round"
        stroke-width="2.2"
        d="m189.066 365.46 8.502 1.573 4.918 5.31 11.041-.956 14.69-4.663 2.69 1.79 7.454 3.613 3.742 3.86 11.35-.834 9.686-4.918.51-5.397 2.134-4.447 3.093-.309 2.606-8.837-8.279-2.151-7.865.115-12.638-5.414-5.345 3.088-5.536-.762-10.004-11.017 1.49-8.616 5.23-1.715 4.314-7.738.688-4.956-1.883-2.09-4.735-.303-9.33-9.663c-12.958 20.735-22.493 43.077-28.523 65.436z"
        transform="matrix(.99213 0 0 .99369 -178.107 -182.81)" />
        <!--Habbanya Ridge Flat-->
      <path fill="#F6D979" stroke="#000" stroke-width="2.216"
        d="M321.523 577.901h-8.902l-9.155-5.978-1.546-14.946-8.356-17.83-.983-11.318 5.072-4.416-.156-7.287-2.783-5.372-2.628-2.903-9.176-2.25-10.983-5.944-5.563.261-6.401-5.928-11.137-.927-53.467 19.43c18.214 51.512 57.887 99.867 107.444 127.844l19.79-34.222 3.644-20.59zm-39.098-29.42-10.59-21.205-.566-7.577-2.64-6.448-13.716-3.294-14.66 5.13-6.6 10.777 5.61 19.72 20.354 22.004z"
        transform="matrix(.99213 0 0 .99369 -178.107 -182.81)" />
        <!--Arsunt-->
      <path fill="#F6D979" fill-rule="nonzero" stroke="#000" stroke-linecap="round" stroke-linejoin="round"
        stroke-width="2.2"
        d="m401.28 294.831 4.132.293 6.34 7.072 7.298-2.748 12.57-.08-3.928 25.382 2.69 9.325-.227 18.443 2.13 2.472-.528 4.194.117 18.415 1.434 4.309-3.1 17.557-5.296-.033-4.552 3.442-8.8 2.963-9.405-16.265.972-12.457-1.686-5.706-3.99-4.509-.742-17.415 1.839-17.196 6.889-13.919z"
        transform="matrix(.99213 0 0 .99369 -178.107 -182.81)" />
        <!--Ceilago Depression-->
      <path fill="#F6D979" fill-rule="nonzero" stroke="#000" stroke-linecap="round" stroke-linejoin="round"
        stroke-width="2.2"
        d="m480.544 591.921-11.385 1.107-14.04 6.657-9.916.238-23.47 5.39-32.607-.42-16.952-7.7-10.729 1.105-9.316-5.528 1.375-11.321 7.254-9.454 2.368-15.21-1.68-5.642 6.54-5.002 9.289 8.578 30.316 2.936 4.78-3.461 11.523-.127 26.068 16.417 8.2-5.31 9.9-14.778 4.159 14.611 13.095 17.04z"
        transform="matrix(.99213 0 0 .99369 -178.107 -182.81)" />
        <!--Hagga Basin-->
      <path fill="#F6D979" fill-rule="nonzero" stroke="#000" stroke-linecap="round" stroke-linejoin="round"
        stroke-width="2.2"
        d="m411.56 405.837-9.405-16.265.972-12.457-1.687-5.706-3.989-4.509-.742-17.415 1.839-17.196 6.889-13.919-8.812-49.892-15.365 7.318-4.224-2.56-15.515 2.708-17.034 13.901-6.503 11.156-9.251 3.24-2.361-2.707-2.038 7.597-.558 9.55-1.611 2.97 2.942 7.648 2.252 10.715 4.24 4.201-.159 6.465 47.607 39.885 19.612 16.43z"
        transform="matrix(.99213 0 0 .99369 -178.107 -182.81)" />
        <!--Ceilago East-->
      <path fill="#F6D979" fill-rule="nonzero" stroke="#000" stroke-linecap="round" stroke-linejoin="round"
        stroke-width="2.2"
        d="M490.693 664.038c26.187-7.268 52.377-19.411 75.966-36.204l.334-21.476-1.199-1.931-6.835.432-10.763-2.16-4.608-6.949-2.659-11.64-8.938-9.789-14.164-6.7-15.79-15.181-21.683-27.636-5.694 18.25-6.599 7.342 4.16 14.611 13.095 17.04-4.772 9.874.796 8.153 7.687 13.42 1.508 15.763-3.636 10.361.12 18.68z"
        transform="matrix(.99213 0 0 .99369 -178.107 -182.81)" />
        <!--Rock Outcroppings-->
      <path fill="#F6D979" fill-rule="nonzero" stroke="#000" stroke-linecap="round" stroke-linejoin="round"
        stroke-width="2.2"
        d="M302.802 217.758c-34.149 19.536-64.328 48.558-85.214 82.265l9.33 9.663 4.736.302 1.883 2.091 20.083-18.031 9.066 4.38 10.186-11.153 9.73-28.77 8.23-12.799 10.003-6.06 8.209-11.094z"
        transform="matrix(.99213 0 0 .99369 -178.107 -182.81)" />
        <!--Habbanya Erg-->
      <path fill="#F6D979" fill-rule="nonzero" stroke="#000" stroke-linecap="round" stroke-linejoin="round"
        stroke-width="2.2"
        d="m311.8 470.179-11.344-6.027-11.464.79-8.036-2.836-9.74 2.188-21.954 1.6-16.842 4.285-19.215-.902-22.4-3.505-7.001 2.526a243.689 243.689 0 0 0 11.554 44.195l53.467-19.43 11.137.927 6.401 5.929 5.563-.262 10.984 5.943 9.175 2.252 4.353-10.676 15.803-17.2.34-7.162z"
        transform="matrix(.99213 0 0 .99369 -178.107 -182.81)" />
        <!--Funeral Plain-->
      <path fill="#F6D979" fill-rule="nonzero" stroke="#000" stroke-linecap="round" stroke-linejoin="round"
        stroke-width="2.2"
        d="m184.155 387.704 11.42 7.999 28.157.9 15.005 4.402 18.938-.8 27.656-5.553 18.662 2.176 6.413 4.152 17.911-3.477-.155-3.639-65.023-23.629-9.686 4.918-11.35.835-3.742-3.86-7.454-3.614-2.69-1.79-14.69 4.663-11.04.957-4.919-5.31-8.502-1.575a243.805 243.805 0 0 0-4.911 22.245z"
        transform="matrix(.99213 0 0 .99369 -178.107 -182.81)" />
        <!--Wind Pass North-->
      <path fill="#F6D979" fill-rule="nonzero" stroke="#000" stroke-linecap="round" stroke-linejoin="round"
        stroke-width="2.2"
        d="m378.887 445.8-9.69 3.521-13.314 37.618.764 19.59 10.907 21.831 40.28-69.658-7.292 1.016-8.12-3.39-6.444-6.21-3.489-.236z"
        transform="matrix(.99213 0 0 .99369 -178.107 -182.81)" />
        <!--Ceilago West-->
      <path fill="#F6D979" fill-rule="nonzero" stroke="#000" stroke-linecap="round" stroke-linejoin="round"
        stroke-width="2.2"
        d="m336.867 502.87-7.237 32.91-10.04 11.437 1.932 30.685 4.714 7.624-3.645 20.59 15.758-.542 13.78-12.804 1.375-11.321 7.254-9.454 2.368-15.21-1.68-5.642 6.54-5.002-3.425-3.163-1.34-7.125 4.333-7.493-10.907-21.83-.764-19.591z"
        transform="matrix(.99213 0 0 .99369 -178.107 -182.81)" />
        <!--Meridian-->
      <path fill="#F6D979" fill-rule="nonzero" stroke="#000" stroke-linecap="round" stroke-linejoin="round"
        stroke-width="2.2"
        d="m403.425 672.074.171-16.812 4.527-6.815-4.598-13.844.431-21.304 6.898-8.126-21.728-.28-16.952-7.7-10.729 1.105-9.316-5.528-13.78 12.804-15.758.542-19.789 34.222c32.096 18.574 67.384 28.868 100.623 31.736z"
        transform="matrix(.99213 0 0 .99369 -178.107 -182.81)" />
        <!--Ceilago South-->
      <path fill="#F6D979" fill-rule="nonzero" stroke="#000" stroke-linecap="round" stroke-linejoin="round"
        stroke-width="2.2"
        d="m480.544 591.921-11.385 1.107-14.04 6.657-9.916.238-23.47 5.39-10.88-.14-6.897 8.126-.431 21.304 4.598 13.844-4.527 6.815-.171 16.812a244.765 244.765 0 0 0 87.268-8.036l-3.673-5.74-.121-18.68 3.636-10.361-1.508-15.764-7.687-13.42z"
        transform="matrix(.99213 0 0 .99369 -178.107 -182.81)" />
        <!--Ceilago North-->
      <path fill="#F6D979" fill-rule="nonzero" stroke="#000" stroke-linecap="round" stroke-linejoin="round"
        stroke-width="2.2"
        d="m367.554 528.36-4.333 7.493 1.34 7.125 12.714 11.741 30.316 2.936 4.78-3.461 11.523-.127 26.068 16.417 8.2-5.31 9.9-14.778 6.598-7.341 5.694-18.251-35.318-61.078-12.383 8.752-15.24-.563-5.04-5.09-4.538-8.123z"
        transform="matrix(.99213 0 0 .99369 -178.107 -182.81)" />
        <!--Harg Pass-->
      <path fill="#F6D979" fill-rule="nonzero" stroke="#000" stroke-linecap="round" stroke-linejoin="round"
        stroke-width="2.2"
        d="m465.795 499.626 3.817-11.984-.343-12.16 2.558-.077 3.436 2.669 8.854.515 4.891-18.7-10.69-5.146-14.872 6.529-13.666-11.45-4.27 5.331-.474 8.573z"
        transform="matrix(.99213 0 0 .99369 -178.107 -182.81)" />
        <!--Wind Pass-->
      <path fill="#F6D979" fill-rule="nonzero" stroke="#000" stroke-linecap="round" stroke-linejoin="round"
        stroke-width="2.2"
        d="m355.882 486.939 13.314-37.618 9.69-3.522-1.63-1.847 2.499-14.904 7.3-13.784 11.604-8.269-19.612-16.43-15.59 16.125-3.2 11.613-11.36 10.745-2.64 10.527-.151 18.137-9.24 45.158z"
        transform="matrix(.99213 0 0 .99369 -178.107 -182.81)" />
        <!--The Minor Erg-->
      <path fill="#F6D979" fill-rule="nonzero" stroke="#000" stroke-linecap="round" stroke-linejoin="round"
        stroke-width="2.2"
        d="m489.008 459.89 5.21-.481 6.958 5.883 5.206 19.266 6.588 10.104 4.033.05 7.164-14.18-3.398-16.675 12.69-34.809 3.885-16.197-.676-21.634-6.238-13.131-.036-15.574-7.025 3.163-3.207 4.194-3.933 1.906-3.36 6.938-6.338-.382-13.02 4.765-3.245 4.156-12.61 6.537 8.913 12.88.874 22.38-2.062 2.67.038 5.908-7.101 17.116z"
        transform="matrix(.99213 0 0 .99369 -178.107 -182.81)" />
        <!--South Mesa-->
      <path fill="#F6D979" fill-rule="nonzero" stroke="#000" stroke-linecap="round" stroke-linejoin="round"
        stroke-width="2.2"
        d="M566.659 627.834c32.839-23.065 59.918-55.445 77.413-90.73 17.493-35.284 25.403-73.474 25.273-108.056h-22.123l-5.97 8.408-2.04 9.14 2.102 5.31-1.083 1.977 1.919 6.454-.774 13.832-4.268 8.647-8.969 25.69-3.53 12.185.155 12.474-8.657 15.502-19.458 17.287-11.298 7.853-6.816 7.708-1.638 10.654-4.609 6.576-1.175 3.397-5.319 2.285 1.198 1.931z"
        transform="matrix(.99213 0 0 .99369 -178.107 -182.81)" />
        <!--The Great Flat-->
      <path fill="#F6D979" fill-rule="nonzero" stroke="#000" stroke-linecap="round" stroke-linejoin="round"
        stroke-width="2.2"
        d="m328.162 393.864.155 3.64-17.91 3.476-6.414-4.152-18.662-2.176-27.656 5.553-18.938.8-15.006-4.401-28.156-.901-11.42-7.998a243.67 243.67 0 0 0-3.534 41.343h168.275l11.361-10.745 3.2-11.613z"
        transform="matrix(.99213 0 0 .99369 -178.107 -182.81)" />
        <!--Gara Kulon-->
      <path fill="#F6D979" fill-rule="nonzero" stroke="#000" stroke-linecap="round" stroke-linejoin="round"
        stroke-width="2.2"
        d="m594.3 287.197-.144 4.22-9.278 17.344-8.966 7.247 2.565 8.695 3.649 2.902 12.092-.555 5.01 5.403 14.938-4.446 6.741 4.044 9-6.422 3.495 1.699 2.969-2.223 9.574-.24a244.07 244.07 0 0 0-33.77-52.642z"
        transform="matrix(.99213 0 0 .99369 -178.107 -182.81)" />
        <!--Hole in the Rock-->
      <path fill="#F6D979" fill-rule="nonzero" stroke="#000" stroke-linecap="round" stroke-linejoin="round"
        stroke-width="2.2"
        d="m563.956 285.089 5.255-6.945-.2-9.404-9.018.95-10.07 5.903-7.491 1.276-8.917 4.451-5.086-.636-4.791 8.335-.712 4.323-3.302.194-.5 2.923-7.193 4.306.119 3.316-12.229 8.708-9.555 26.144 4.62-.857 34.133-19.708 6.759-.648 16.532-12.58.382-5.49z"
        transform="matrix(.99213 0 0 .99369 -178.107 -182.81)" />
        <!--Basin-->
      <path fill="#F6D979" fill-rule="nonzero" stroke="#000" stroke-linecap="round" stroke-linejoin="round"
        stroke-width="2.2"
        d="m528.429 280.684 5.086.636 8.917-4.45 7.491-1.277 10.07-5.902 9.018-.951 4.33-8.43 14.537-13.123a244.327 244.327 0 0 0-27.407-21.179l-11.509 16.573-10.665 6.04.034 10.075-4.438 5.416-2.277 11.028z"
        transform="matrix(.99213 0 0 .99369 -178.107 -182.81)" />
        <!--Tsimpo-->
      <path fill="#F6D979" fill-rule="nonzero" stroke="#000" stroke-linecap="round" stroke-linejoin="round"
        stroke-width="2.2"
        d="m464.251 206.7-15.18-3.717-14.412 2.81-4.577 4.847-19.731-1.173-23.255 5.057-19.788 7.777-1.26 3.765-.526 10.617-2.104.77-7.462 15.606-2.35.181-2.005 4.758-5.424 3.71-3.024 4.315-4.487 2.215-2.018 8.05-6.84 10.887-4.915 10.6 1.479 3.759 2.36 2.708 9.252-3.24 6.503-11.157 17.034-13.9 15.515-2.709 4.224 2.56 15.365-7.318-2.261-12.805 18.862-5.256 8.117-4.652 15.574 3.046 4.732-4.57 8.907-20.472z"
        transform="matrix(.99213 0 0 .99369 -178.107 -182.81)" />
        <!--Old Gap-->
      <path fill="#F6D979" fill-rule="nonzero" stroke="#000" stroke-linecap="round" stroke-linejoin="round"
        stroke-width="2.2"
        d="m464.251 206.7 10.86 8.207 5.877.71 5.288 7.688 16.228-.57 12.675 3.978 12.626 14.456.265 9.61h3.21l3.664-3.65 3.353 1.492 10.665-6.04 11.51-16.573c-35.155-23.513-75.432-36.57-113.08-39.908l-.033 9.272-5.494 9.016 7.206-1.405z"
        transform="matrix(.99213 0 0 .99369 -178.107 -182.81)" />
        <!--Broken Lands-->
      <path fill="#F6D979" fill-rule="nonzero" stroke="#000" stroke-linecap="round" stroke-linejoin="round"
        stroke-width="2.2"
        d="m309.044 228.552 13.096 4.346h19.205l9.812-8.31 16.15-2.287 19.79-7.777 23.254-5.057 19.731 1.173 4.577-4.847 7.206-1.405 5.494-9.016.033-9.272a244.632 244.632 0 0 0-26.53-.994c-37.992.516-80.085 10.644-118.06 32.652z"
        transform="matrix(.99213 0 0 .99369 -178.107 -182.81)" />
        <!--The Greater Flat-->
      <path fill="#F6D979" fill-rule="nonzero" stroke="#000" stroke-linecap="round" stroke-linejoin="round"
        stroke-width="2.2"
        d="m183.804 468.298 7-2.526 22.4 3.505 19.216.902 16.842-4.285 21.955-1.6 9.74-2.188 8.035 2.836 11.464-.79 11.343 6.027.256-13.916 1.71-1.517.703-2.435 10.33-4.817 2.319-6.114 19.14-1.805 2.64-10.527H180.62l.034 4.114a243.713 243.713 0 0 0 3.149 35.136z"
        transform="matrix(.99213 0 0 .99369 -178.107 -182.81)" />
        <!--Red Chasm-->
      <path fill="#F6D979" fill-rule="nonzero" stroke="#000" stroke-linecap="round" stroke-linejoin="round"
        stroke-width="2.2"
        d="M669.31 424.933a243.74 243.74 0 0 0-10.117-65.478l-15.653 16.709-.865 4.075-8.876 6.67-3.804 10.19 2.35 12.721 9.154 11.58 6.279-.093-.557 7.741h22.124z"
        transform="matrix(.99213 0 0 .99369 -178.107 -182.81)" />
        <!--Sihaya Ridge-->
      <path fill="#F6D979" fill-rule="nonzero" stroke="#000" stroke-linecap="round" stroke-linejoin="round"
        stroke-width="2.2"
        d="m563.956 285.089 16.837-2.554 13.508 4.662 17.874-14.974a244.294 244.294 0 0 0-24.297-25.036l-14.537 13.123-4.33 8.43.2 9.404z"
        transform="matrix(.99213 0 0 .99369 -178.107 -182.81)" />
    </g>
    <g id="icons">
      <path fill="#1a0b00" fill-opacity=".95" fill-rule="nonzero"
        d="M235.18 70.88v-1.86h-.547v1.857c-.397.25-.734 1.04-.734 2.182h-.55v6.96h-1.137v-2.84h-.757l-1-2.31-.999 2.31h-.757v4.809h-1.532v1.743h20.036v-1.743h-.925v-3.712h-.705c.001-.884-.59-1.453-1.18-1.446-.578.007-1.156.563-1.156 1.446h-.618c0-.884-.59-1.453-1.182-1.446-.577.008-1.154.563-1.155 1.446h-.726v1.263h-1.889V75.66h-1.202v-2.602h-.55c0-1.123-.337-1.922-.735-2.18z" />
      <path fill="#fffed8"
        d="m235.24 68.524.06.01.057.019.055.025.052.03.047.038.043.043.037.047.032.052.024.055.018.058.011.059.004.06v1.628l.004.005.051.055.05.058.046.06.045.064.043.065.04.068.04.069.036.073.036.074.033.077.032.079.031.08.028.084.027.086.026.087.023.09.022.092.021.094.018.096.017.099.015.1.013.102.011.104.004.05h.073l.06.004.06.01.057.019.055.024.052.032.047.037.043.043.037.047.032.052.024.055.018.058.011.059.004.06v2.102h.702l.06.004.06.01.057.019.055.024.052.032.047.037.043.043.037.047.032.052.024.055.018.057.011.06.004.06v3.378h.888v-.763l.004-.06.011-.06.018-.057.025-.055.031-.052.037-.047.043-.043.047-.037.052-.031.055-.025.058-.018.06-.011.06-.004h.28l.008-.041.012-.046.012-.046.013-.045.015-.044.015-.044.016-.043.017-.043.018-.042.018-.041.02-.041.02-.041.021-.04.022-.038.023-.038.023-.037.024-.037.027-.038.05-.067.055-.067.058-.063.06-.06.062-.057.065-.053.067-.05.07-.046.071-.043.073-.038.076-.035.073-.03.042-.014.04-.013.04-.011.04-.011.04-.01.04-.008.041-.007.041-.006.042-.005.041-.003.042-.002.042-.002h.042l.043.002.043.003.042.004.043.005.041.006.042.008.042.009.041.01.04.01.041.013.04.013.04.015.038.015.04.017.037.018.038.018.038.02.036.02.037.022.035.023.036.023.034.025.034.025.034.027.033.027.032.028.032.029.031.029.03.03.03.033.03.032.028.033.027.034.027.034.026.035.026.037.025.037.024.037.023.039.022.038.022.04.02.04.02.042.011.023.008-.018.02-.04.02-.041.021-.04.022-.038.022-.038.024-.037.024-.037.027-.038.05-.067.055-.067.057-.063.06-.06.063-.057.065-.053.067-.05.07-.047.071-.042.073-.04.075-.033.074-.03.042-.015.04-.012.04-.012.04-.01.04-.01.04-.008.041-.007.041-.006.041-.005.042-.004.041-.002.042-.001h.043l.043.002.043.002.042.004.042.005.042.007.042.007.041.009.041.01.041.01.04.014.04.013.04.014.04.016.038.017.038.017.038.019.037.019.037.02.036.023.036.022.035.024.035.024.034.026.034.026.033.027.032.028.032.029.031.03.03.03.03.032.03.032.027.033.028.034.027.035.026.035.026.036.024.037.024.038.023.038.023.039.022.04.02.04.02.04.02.043.017.043.018.042.016.044.016.044.014.045.014.046.013.045.011.047.01.044h.26l.06.004.058.01.058.019.055.025.052.03.047.038.043.043.037.047.031.052.025.055.018.058.011.059.003.06v3.212h.425l.06.003.06.01.057.019.055.025.052.03.047.039.043.042.037.048.032.05.024.057.018.057.011.06.004.06v1.743l-.004.06-.01.06-.019.058-.024.055-.032.05-.037.049-.043.042-.047.038-.052.03-.055.026-.057.018-.06.01-.06.004h-20.037l-.06-.003-.059-.011-.058-.018-.055-.025-.052-.031-.047-.038-.043-.042-.037-.048-.03-.051-.026-.055-.018-.058-.01-.06-.005-.06v-1.743l.004-.06.011-.06.018-.057.025-.056.031-.051.037-.048.043-.042.047-.038.052-.031.055-.025.058-.018.06-.011.06-.003h1.032V77.18l.003-.06.011-.06.018-.057.025-.055.031-.052.037-.047.043-.043.048-.037.051-.032.055-.024.058-.018.06-.011.06-.004h.428l.87-2.01.027-.053.034-.051.04-.046.046-.041.05-.035.054-.03.057-.021.06-.015.06-.007h.061l.061.007.06.015.056.022.054.029.05.035.045.04.04.047.035.05.027.055.87 2.009h.428l.06.004.06.01.057.019.055.024.052.032.047.037.043.043.037.047.032.052.024.055.018.057.011.06.004.06v2.34h.136v-6.461l.003-.06.011-.06.018-.057.025-.055.031-.052.038-.047.042-.043.048-.037.051-.032.055-.024.058-.018.06-.011.06-.004h.072l.005-.056.011-.105.013-.103.015-.101.017-.1.018-.096.02-.094.022-.093.024-.09.026-.088.027-.085.03-.083.03-.082.031-.08.034-.075.036-.074.037-.073.04-.07.04-.067.043-.065.045-.062.047-.06.05-.058.051-.055.001-.001V69.02l.004-.06.01-.06.018-.057.025-.055.031-.052.038-.047.042-.043.048-.037.052-.031.055-.025.057-.018.06-.011.06-.004h.547zm-.607.496v1.857l-.037.025-.037.028-.036.03-.036.035-.035.038-.034.04-.034.044-.033.046-.033.049-.03.052-.032.055-.03.057-.029.06-.028.064-.026.066-.026.068-.025.07-.023.075-.022.076-.02.078-.02.08-.018.085-.016.086-.015.088-.014.09-.012.094-.01.095-.008.097-.007.1-.004.1-.003.105v.106h-.552v6.96h-1.136v-2.84h-.757l-1-2.31-.999 2.31h-.757v4.809h-1.532v1.743h20.036v-1.743h-.925v-3.712h-.705v-.082l-.003-.04-.003-.04-.004-.04-.005-.038-.005-.04-.006-.036-.007-.038-.007-.037-.009-.036-.009-.036-.01-.035-.01-.034-.01-.035-.013-.033-.012-.033-.013-.033-.014-.031-.014-.032-.015-.031-.016-.03-.016-.03-.016-.028-.018-.028-.017-.028-.018-.027-.019-.027-.019-.026-.02-.025-.02-.024-.02-.024-.022-.024-.02-.022-.023-.022-.022-.022-.023-.02-.022-.02-.024-.02-.023-.018-.024-.018-.025-.017-.024-.016-.025-.016-.025-.015-.026-.014-.025-.014-.026-.013-.026-.012-.027-.011-.026-.01-.027-.01-.027-.01-.027-.007-.027-.008-.027-.006-.027-.006-.028-.005-.027-.004-.028-.004-.027-.002-.028-.002-.028-.001h-.055l-.027.002-.027.003-.027.003-.026.004-.027.004-.027.006-.027.006-.026.007-.027.008-.026.008-.026.009-.052.02-.05.025-.052.026-.049.03-.048.032-.047.035-.046.037-.045.04-.043.044-.04.045-.04.049-.039.05-.018.027-.018.027-.017.027-.017.028-.016.029-.016.029-.015.03-.015.03-.013.032-.014.032-.013.032-.012.033-.01.033-.012.034-.01.034-.01.035-.009.036-.008.036-.008.037-.006.037-.006.037-.006.039-.004.038-.004.04-.003.039-.002.04v.082h-.619v-.041l-.002-.041-.002-.04-.003-.04-.004-.04-.004-.038-.006-.038-.006-.038-.007-.037-.007-.037-.009-.036-.009-.036-.009-.035-.01-.035-.012-.034-.012-.034-.012-.033-.013-.032-.014-.032-.014-.031-.015-.031-.015-.03-.017-.03-.016-.03-.017-.027-.018-.028-.018-.027-.019-.026-.019-.026-.02-.025-.02-.025-.02-.024-.02-.023-.023-.023-.02-.022-.024-.021-.022-.021-.023-.02-.024-.02-.023-.017-.024-.018-.024-.017-.025-.017-.025-.016-.025-.015-.025-.014-.026-.013-.026-.013-.026-.012-.026-.011-.027-.011-.026-.01-.027-.01-.027-.007-.027-.007-.028-.007-.027-.006-.027-.005-.028-.004-.027-.003-.028-.003-.028-.002-.027-.001h-.055l-.027.003-.027.002-.027.003-.027.004-.027.005-.027.005-.026.006-.027.007-.026.008-.027.009-.026.009-.052.02-.05.024-.05.027-.05.029-.049.032-.047.035-.046.038-.044.04-.043.043-.042.046-.039.048-.038.05-.019.027-.017.027-.018.027-.016.028-.017.029-.015.03-.016.029-.014.03-.014.032-.013.032-.013.032-.012.033-.012.033-.01.034-.01.034-.01.035-.01.036-.008.036-.007.037-.007.037-.006.037-.005.039-.005.038-.003.04-.003.039-.002.04-.002.04v.042h-.726v1.263h-1.889V75.66h-1.202v-2.602h-.55l-.002-.104-.003-.103-.005-.1-.007-.098-.008-.097-.01-.094-.012-.092-.013-.09-.015-.088-.016-.085-.018-.083-.02-.081-.02-.08-.022-.075-.023-.073-.025-.071-.026-.07-.026-.065-.028-.063-.029-.061-.03-.058-.03-.055-.032-.052-.032-.05-.034-.047-.033-.044-.035-.04-.035-.038-.036-.035-.036-.032-.037-.03-.037-.025v-1.86z" />
      <path fill="#1a0b00" fill-opacity=".95" fill-rule="nonzero"
        d="M320.809 51.604v-1.86h-.547V51.6c-.397.25-.734 1.04-.734 2.182h-.551v6.96h-1.136v-2.84h-.757l-1-2.31-1 2.31h-.756v4.808h-1.532v1.744h20.036V62.71h-.924V59h-.705c0-.884-.591-1.454-1.182-1.446-.577.007-1.154.562-1.155 1.446h-.618c0-.884-.59-1.453-1.182-1.446-.577.007-1.154.563-1.155 1.446h-.726v1.263h-1.89v-3.878h-1.201v-2.602h-.551c0-1.123-.335-1.922-.734-2.18z" />
      <path fill="#fffed8"
        d="m320.869 49.248.06.01.058.019.055.024.05.032.049.037.042.043.038.047.03.052.026.055.018.058.01.059.004.06v1.628l.004.004.052.056.049.058.047.06.044.063.043.066.04.067.04.07.037.072.035.075.034.077.032.078.03.082.029.083.027.085.025.088.024.09.022.092.02.094.018.096.017.098.015.1.013.103.01.104.005.05h.073l.06.004.06.01.058.018.055.025.05.032.049.037.042.042.038.048.03.052.026.055.018.057.01.06.004.06v2.102h.702l.06.004.06.01.057.018.055.025.052.03.048.039.042.042.038.048.03.052.026.055.018.057.01.06.004.06v3.377h.889V59l.004-.06.01-.06.018-.057.025-.055.03-.052.039-.047.042-.043.048-.037.052-.032.055-.024.057-.018.06-.011.06-.004h.279l.009-.041.012-.046.012-.046.014-.045.014-.044.015-.044.016-.043.017-.043.018-.042.019-.042.019-.04.02-.041.022-.04.02-.038.024-.038.024-.037.024-.037.026-.038.05-.067.055-.067.058-.063.06-.06.063-.057.065-.053.067-.05.069-.046.072-.043.073-.038.075-.035.073-.03.043-.014.039-.013.04-.012.04-.01.04-.01.04-.008.04-.007.043-.006.04-.005.042-.003.042-.003.042-.001h.043l.043.002.042.002.043.004.042.006.042.006.042.008.04.008.042.01.04.012.04.012.04.013.04.015.04.015.038.017.039.017.038.019.037.02.037.02.036.022.036.023.035.023.035.025.034.025.033.026.033.028.032.028.032.028.03.03.032.03.029.032.029.033.029.033.028.033.026.035.027.035.025.036.025.037.024.038.023.038.022.039.022.04.02.04.02.042.01.023.009-.018.02-.041.02-.04.02-.04.023-.038.023-.038.023-.037.024-.037.027-.038.05-.068.055-.066.058-.063.06-.06.062-.057.065-.054.067-.05.07-.046.07-.042.074-.04.076-.034.073-.03.042-.014.04-.012.039-.012.04-.011.04-.01.04-.007.042-.007.04-.006.043-.005.04-.004.043-.002.042-.001h.085l.043.004.042.004.043.005.042.007.04.007.043.009.04.01.04.01.042.013.04.014.039.014.04.016.038.016.039.018.037.019.038.019.036.02.037.023.036.022.035.024.034.024.035.026.033.026.033.027.032.028.032.029.03.03.03.03.03.032.03.032.029.033.027.034.027.035.027.035.025.036.025.037.024.038.023.038.022.039.022.04.02.04.02.04.02.043.018.042.017.043.016.044.016.044.014.045.014.045.013.046.012.047.01.044h.258l.06.004.06.01.057.019.055.024.052.032.047.037.043.043.037.047.03.052.026.055.018.057.01.06.005.06v3.21h.424l.06.005.06.01.058.019.055.025.05.03.049.038.043.043.037.047.03.052.026.055.018.058.01.059.004.06v1.744l-.003.06-.011.06-.018.057-.025.055-.031.052-.037.048-.043.042-.048.037-.051.032-.055.025-.058.017-.06.01-.06.005h-20.036l-.06-.004-.06-.011-.058-.017-.055-.025-.051-.032-.048-.037-.042-.042-.038-.048-.031-.052-.025-.055-.018-.057-.011-.06-.003-.06V62.71l.003-.06.01-.06.019-.057.025-.055.03-.052.039-.047.042-.043.048-.037.05-.031.056-.025.058-.018.06-.011.06-.004h1.032v-4.307l.004-.06.01-.06.018-.057.025-.055.03-.052.039-.048.042-.042.048-.038.052-.031.055-.025.057-.018.06-.01.06-.004h.429l.869-2.01.027-.053.034-.051.04-.046.046-.041.05-.035.054-.03.057-.021.059-.015.06-.007h.062l.06.007.06.015.057.022.054.029.05.035.046.04.04.047.034.05.027.055.87 2.009h.428l.06.004.06.01.058.018.055.025.05.03.049.039.042.042.038.048.03.052.026.055.018.057.01.06.004.06v2.34h.136v-6.461l.004-.06.01-.06.019-.057.024-.055.032-.052.037-.048.043-.042.047-.037.052-.032.055-.025.057-.017.06-.011.06-.004h.072l.005-.056.01-.105.014-.103.015-.101.017-.1.018-.096.02-.094.023-.093.024-.09.025-.088.027-.085.029-.084.03-.081.032-.08.034-.075.036-.075.037-.072.039-.07.04-.067.044-.065.045-.062.047-.061.049-.057.052-.055v-1.623l.005-.06.01-.06.019-.057.024-.055.032-.052.037-.047.043-.043.047-.037.052-.032.055-.024.058-.018.059-.011.06-.004h.547zm-.607.496V51.6l-.037.025-.036.028-.037.03-.035.035-.035.038-.035.04-.034.043-.033.047-.032.049-.032.052-.031.055-.03.057-.028.06-.028.064-.027.065-.026.069-.024.07-.024.074-.022.076-.02.079-.02.08-.018.085-.016.086-.015.088-.013.09-.012.093-.01.096-.01.097-.005.1-.005.1-.003.105-.001.106h-.551v6.96h-1.136v-2.84h-.757l-1-2.31-1 2.31h-.756v4.808h-1.532v1.744h20.036V62.71h-.924V59h-.705l-.001-.042-.001-.04-.002-.041-.003-.04-.004-.04-.004-.038-.006-.038-.006-.038-.007-.037-.007-.037-.008-.036-.01-.036-.01-.035-.01-.035-.011-.034-.012-.033-.012-.033-.013-.033-.014-.032-.014-.031-.015-.031-.015-.03-.016-.03-.017-.028-.017-.03-.018-.026-.018-.028-.02-.026-.018-.026-.02-.025-.02-.025-.02-.024-.021-.023-.022-.023-.021-.021-.023-.022-.022-.02-.023-.02-.023-.02-.024-.018-.024-.018-.024-.017-.025-.017-.025-.015-.025-.015-.025-.014-.026-.014-.026-.013-.026-.012-.026-.011-.027-.011-.026-.01-.027-.008-.027-.008-.027-.008-.027-.006-.028-.006-.027-.005-.028-.005-.027-.003-.028-.002-.028-.002-.027-.001h-.055l-.027.002-.027.002-.027.004-.027.003-.027.005-.027.006-.026.006-.027.007-.026.007-.027.009-.026.009-.052.02-.051.025-.05.026-.05.029-.048.033-.047.035-.046.037-.044.04-.043.044-.042.045-.04.048-.037.05-.02.027-.016.027-.018.028-.016.028-.017.029-.015.029-.016.03-.014.03-.014.032-.014.03-.012.034-.013.032-.011.034-.011.034-.01.034-.01.035-.01.036-.007.036-.007.036-.007.038-.006.037-.005.038-.005.039-.003.039-.003.04-.002.04-.002.04V59h-.618v-.041l-.002-.041-.002-.04-.003-.04-.003-.04-.005-.038-.005-.038-.006-.038-.007-.038-.008-.036-.008-.037-.01-.035-.01-.036-.01-.034-.011-.034-.011-.034-.013-.033-.013-.032-.013-.032-.015-.032-.015-.03-.015-.03-.016-.03-.017-.03-.017-.027-.018-.028-.018-.027-.018-.027-.02-.025-.02-.026-.02-.024-.02-.024-.021-.023-.021-.023-.022-.022-.022-.021-.023-.021-.023-.02-.023-.02-.024-.018-.024-.017-.024-.018-.025-.016-.025-.016-.025-.015-.025-.014-.026-.014-.026-.012-.026-.012-.026-.012-.026-.01-.027-.01-.027-.01-.027-.007-.027-.007-.027-.007-.028-.006-.027-.005-.028-.004-.027-.003-.028-.003-.027-.002-.028-.001h-.055l-.027.002-.027.003-.027.003-.027.004-.027.004-.026.006-.027.006-.027.007-.026.008-.026.008-.027.01-.051.02-.052.024-.05.026-.05.03-.047.032-.048.035-.045.038-.045.04-.043.043-.041.046-.04.048-.038.05-.018.027-.018.027-.017.027-.017.028-.016.029-.016.029-.015.03-.015.03-.014.032-.013.03-.013.034-.012.033-.012.033-.011.034-.01.034-.01.035-.008.036-.008.036-.008.036-.007.038-.006.037-.005.038-.004.039-.004.039-.003.04-.002.04-.001.04-.001.042h-.726v1.263h-1.89v-3.878h-1.201v-2.602h-.551l-.001-.104-.003-.103-.005-.1-.006-.1-.01-.095-.01-.094-.01-.092-.014-.09-.015-.088-.016-.085-.018-.084-.02-.08-.02-.08-.022-.075-.023-.073-.024-.071-.026-.07-.027-.065-.028-.063-.028-.061-.03-.058-.031-.055-.032-.053-.032-.05-.033-.046-.034-.044-.035-.041-.035-.038-.036-.035-.036-.031-.037-.03-.037-.025v-1.86z" />
      <path fill="#1a0b00" fill-opacity=".95" fill-rule="nonzero"
        d="m85.636 348.77-.9-2.966-1.474-1.863h-1.334l-1.525-4.316-2.063-1.247-1.456-2.167-1.23-.667-2.401 1.204-1.287 4.517-.763.875-1.014 2.513-1.473 1.135-.337 2.983h4.633l.497-1.781 1.199-.824 1.848.745.451 1.86z" />
      <path fill="#fffed8"
        d="m75.688 335.045.053.007.052.012.05.017.049.023 1.231.668.041.025.039.028.035.033.033.036.028.038 1.395 2.075 1.968 1.19.047.033.043.038.038.042.034.046.028.05.022.053 1.407 3.982h.981l.057.003.055.01.054.015.052.022.05.027.045.033.042.038.038.042 1.473 1.863.027.038.024.04.019.043.016.044.9 2.967.014.057.007.058v.058l-.007.058-.013.056-.02.055-.026.052-.032.049-.037.045-.042.04-.047.035-.05.029-.054.023-.056.017-.057.01-.058.003h-8.629l-.055-.003-.055-.01-.053-.014-.051-.021-.05-.027-.045-.032-.041-.036-.038-.042-.032-.044-.028-.05-.021-.05-.017-.053-.39-1.611-1.361-.548-.83.57-.447 1.606-.017.05-.023.05-.028.046-.033.043-.037.039-.041.035-.045.03-.048.026-.05.02-.052.015-.053.008-.055.003h-4.632l-.056-.003-.055-.01-.054-.015-.052-.021-.05-.027-.045-.033-.041-.037-.038-.042-.032-.046-.027-.05-.022-.051-.015-.054-.01-.055-.003-.056.003-.056.337-2.983.01-.056.016-.055.022-.053.028-.05.034-.046.038-.042.044-.038 1.365-1.052.963-2.387.024-.05.029-.048.034-.043.689-.792 1.258-4.41.016-.048.022-.047.026-.044.03-.042.036-.038.039-.034.042-.03.045-.025 2.4-1.205.049-.021.05-.016.054-.011.053-.005zm-2.435 1.703-1.287 4.517-.763.875-1.014 2.513-1.473 1.135-.337 2.983h4.633l.497-1.781 1.199-.824 1.848.745.451 1.86h8.629l-.9-2.967-1.474-1.863h-1.334l-1.525-4.316-2.063-1.247-1.456-2.167-1.23-.667z" />
      <path fill="#1a0b00" fill-opacity=".95" fill-rule="nonzero"
        d="m426.484 336.422-.9-2.967-1.473-1.864h-1.335l-1.525-4.315-2.062-1.248-1.456-2.166-1.231-.668-2.4 1.205-1.289 4.516-.762.875-1.014 2.513-1.474 1.136-.336 2.983h4.632l.497-1.781 1.2-.825 1.849.745.45 1.86z" />
      <path fill="#fffed8"
        d="m416.537 322.695.053.007.052.012.05.018.049.023 1.23.667.04.025.04.029.036.032.032.036.029.039 1.394 2.074 1.968 1.19.047.033.043.038.039.042.033.047.028.049.023.053 1.407 3.982h.98l.057.003.056.01.054.016.052.02.049.029.046.032.042.038.037.042 1.473 1.863.027.038.024.04.02.043.015.044.9 2.967.014.057.007.058v.058l-.006.058-.014.057-.02.055-.025.052-.032.048-.038.045-.042.04-.047.035-.05.029-.054.023-.055.017-.058.01-.058.004h-8.628l-.056-.003-.054-.01-.054-.015-.051-.021-.05-.027-.044-.031-.042-.037-.037-.041-.033-.045-.027-.048-.022-.051-.016-.054-.391-1.61-1.36-.55-.83.57-.449 1.607-.017.05-.023.05-.028.047-.032.043-.038.039-.04.035-.046.03-.047.025-.05.02-.053.015-.053.009-.054.003h-4.632l-.056-.004-.056-.01-.054-.014-.05-.022-.05-.027-.046-.033-.042-.037-.037-.042-.033-.045-.027-.05-.02-.051-.017-.054-.009-.056-.003-.056.003-.056.337-2.982.01-.057.015-.055.022-.053.03-.05.032-.046.04-.042.042-.037 1.366-1.053.963-2.387.023-.05.03-.047.034-.044.69-.791 1.256-4.41.017-.048.022-.047.026-.045.031-.041.035-.038.04-.034.041-.031.045-.025 2.4-1.205.05-.021.05-.016.053-.011.054-.004zm-2.436 1.704-1.288 4.516-.762.875-1.014 2.513-1.474 1.136-.336 2.983h4.632l.497-1.781 1.2-.825 1.849.745.45 1.86h8.629l-.9-2.966-1.473-1.864h-1.335l-1.525-4.315-2.062-1.248-1.456-2.166-1.231-.668z" />
      <path fill="#1a0b00" fill-opacity=".95" fill-rule="nonzero"
        d="m79.028 135.364-.9-2.967-1.473-1.863H75.32l-1.525-4.315-2.062-1.248-1.456-2.167-1.23-.667-2.401 1.205-1.288 4.516-.762.875-1.014 2.513-1.473 1.135-.337 2.983h4.632l.497-1.78 1.2-.825 1.848.745.45 1.86z" />
      <path fill="#fffed8"
        d="m69.08 121.638.054.007.052.012.05.018.049.022 1.23.668.042.025.038.028.036.033.032.036.029.038 1.394 2.075 1.968 1.19.047.033.043.038.039.042.034.046.028.05.022.053 1.407 3.982h.98l.057.003.056.01.054.015.052.022.049.027.046.033.042.038.037.042 1.473 1.863.028.038.023.04.02.043.016.044.9 2.967.013.057.007.058.001.058-.007.058-.013.057-.02.054-.026.053-.032.048-.037.045-.043.04-.046.035-.051.029-.053.023-.056.017-.058.01-.058.003H70.4l-.055-.003-.055-.01-.054-.014-.051-.021-.05-.027-.044-.032-.042-.036-.037-.041-.033-.045-.027-.05-.022-.05-.016-.053-.391-1.61-1.36-.55-.83.57-.447 1.607-.018.05-.022.05-.028.046-.033.043-.037.04-.042.035-.044.03-.048.025-.05.02-.053.015-.053.008-.054.003h-4.632l-.056-.003-.056-.01-.053-.015-.052-.021-.05-.027-.045-.033-.042-.037-.037-.042-.033-.046-.027-.05-.021-.051-.016-.053-.01-.056-.002-.056.003-.056.337-2.983.009-.056.016-.055.023-.053.028-.05.033-.046.039-.042.043-.038 1.366-1.052.963-2.387.024-.05.029-.048.034-.043.689-.791 1.257-4.41.017-.05.022-.046.026-.044.03-.041.036-.04.039-.033.042-.03.045-.025 2.4-1.205.049-.021.05-.016.054-.011.053-.005zm-2.434 1.704-1.288 4.516-.762.875-1.014 2.513-1.473 1.135-.337 2.983h4.632l.497-1.78 1.2-.825 1.848.745.45 1.86h8.629l-.9-2.967-1.473-1.863H75.32l-1.525-4.315-2.062-1.248-1.456-2.167-1.23-.667z" />
    </g>
    <g fill="none" stroke="#000" clip-rule="evenodd" display="inline" opacity="0.3" fill-rule="nonzero"
      stroke-width="1.33441px" stroke-dasharray="5.33765, 1.33441, 0, 0">
      <g id="sectors" transform="translate(-1.1830478,-1.1830478)">
        <path d="M 207.12423,231.04741 6.356718,157.97542" />
        <path d="M 218.63831,222.83041 53.105068,83.932424" />
        <path d="M 231.43741,221.67941 118.93056,26.811428" />
        <path d="M 240.16847,218.73441 201.06418,-3.02557" />
        <path d="M 249.93855,215.34741 287.91483,-0.02757" />
        <path d="M 275.66874,218.80441 435.83394,84.410424" />
        <path d="M 283.8988,230.49741 479.49627,159.30642" />
        <path d="M 281.34878,244.74441 H 491.27836" />
        <path d="M 269.35669,265.38841 435.83494,405.0784" />
        <path d="M 264.64966,279.20341 369.92545,461.54539" />
        <path d="m 252.36456,287.90041 35.63027,202.07198" />
        <path d="M 227.74138,274.21141 119.58357,461.54539" />
        <path d="M 212.44927,271.85141 53.105068,405.5554" />
        <path d="M 199.02116,261.38941 9.932745,330.2114" />
        <path d="M 273.81173,255.32041 479.49627,330.1844" />
        <path d="M 199.88317,244.74441 H -4.218361" />
        <path d="M 237.24345,287.34041 201.61318,489.41039" />
        <path d="M 258.70561,220.58041 370.00445,27.805428" />
      </g>
    </g>
  </g>
</svg>