<svg xmlns="http://www.w3.org/2000/svg" viewBox="0 0 1024 1024">
  <g fill="none" stroke-width="2">
    <path stroke="#fffde4" d="M648.81 0c-3.65.62-5.94-.45-5.75 4.37q.4 10.68 2.68 16.63c2.71 7.05 4.61 14.54 7.22 21.31q2.79 7.2 5.22 14.54c6.03 18.23 15.62 31.3 27.08 46.73q8.74 11.75 14.39 25.38.08.19.26.26.11.04.25.08.12.03.13.15l.62 7.78a.72.71 73.5 0 1-.36.67c-1.98 1.13-5.01 1.43-6.48 1.9-22.26 7-47.64 10.58-69.36 13.68-7.21 1.03-11.66-2.32-16.1-8q-3.81-4.85-8.06-9.32c-9.01-9.49-17.54-19.37-27.19-28.27q-8.29-7.65-17.97-1.75c-10.87 6.62-21.66 15.31-31.16 21.52q-7.07 4.62-14.24 9.07c-7.6 4.71 11.48 20.17 14.7 22.33q11.07 7.42 19.63 16.12 15.09 15.35 29.89 28.51c15.51 13.79 29.57 29.31 44.42 43.84 2.26 2.21 4.79 3.46 6.86 6.02 9.2 11.34 19.13 19.92 32.06 25.92 3.75 1.74 7.48 2.08 11.54 2.88 8.65 1.72 17.51.81 26.3 1.87q11.5 1.39 23.11.78c1.28-.07 3.05.54 4.68.5 7.66-.21 31.65-.31 30.8 8.51q-1 10.34-1.31 15.56c-.43 7.16-4.73 15.82-9.98 20.73-3.43 3.21-7.69 5.07-11.38 7.21q-3.59 2.09-5.47 2.94-18.94 8.48-37.84 17.04c-5.28 2.39-14.85 7.98-19.06 13.52-6.34 8.34-10.05 15.53-14.08 23.47q-2.04 4.02-3.08 6.89-5.37 14.87-10.82 29.71c-1.3 3.52-3.87 5.4-3.56 9.86q.04.52.35.94 3.75 4.86 6.45 10.34c.76 1.55 2.2 3.48 3.55 4.02q20.71 8.23 26.31 11.46c8.95 5.19 18.47 8.88 27.4 13.93 6.43 3.65 11.56 6.03 17.17 11.05a1.31 1.28 64 0 0 .9.32c9.95-.42 20.37-7.25 28.45-11.16 6.9-3.34 12.98-6.97 19.42-10.71.88-.51.96-1.25 1.53-1.8q9.46-9.06 21.57-13.86c2.49-.98 5.04-3.48 7.27-4.19q3.2-1.01 9.91-4.37 3.04-1.52 13.9-5.55 6.09-2.26 14.01-7.95c5.36-3.87 10.67-14.21 17.6-14.92 8.02-.81 29.4 27.48 33.51 34.49q1.47 2.51 3.22 4.83 8.93 11.81 18.01 23.51 2.01 2.58 3.48 6.21.19.46.09.96c-.54 2.78-1.02 5.35-1.86 8.14q-6.82 22.34-12.75 44.93c-1.74 6.64-5.56 11.79-9.98 16.71q-.34.38-.84.33-12.7-1.08-25.41-2.22c-1.21-.11-2.23-.97-3.6-.9-2.84.14-5.71-.42-8.06-.47-9.37-.19-18.47-.56-27.73-2.01q-3.27-.51-7.59-.32c-12.76.55-22.33-.33-31.07 6.67-4.53 3.62-5.52 11.73-4.55 17.12 1.62 9.07.64 18.03 1.14 26.65q.54 9.4.48 13.29-.46 29.98-.8 59.96c-.06 5.18 1.11 10.71 1.33 16.17q.16 4.02 1.38 5.63c2.36 3.15 6.32 3.3 9.43.75a1.11 1.08 31.1 0 1 .94-.22q1.86.4 3.14-.91a1.67 1.66 17.2 0 1 .92-.48c7.91-1.43 12.47-7.32 20.32-9.7 10.55-3.21 21.13-5.67 31.49-10.48 15.98-7.43 32.82-14.1 46.95-22.34q12.08-7.06 19.32-11.14 9.36-5.28 13.64-8.79c8.16-6.71 14.01-14.75 20.52-22.98 2.51-3.18 3.72-6.73 6-9.93 1.57-2.2 2.98-5.5 3.94-7.08q3.01-4.92 6.13-9.76c3.85-5.98 9.06-11.24 13.76-16.8 1.65-1.96 2.44-3.82 3.19-6.18a1.35 1.35 0 0 1 2.64.43q-.03 2.57-.46 5.34c-.53 3.33-.31 6.79-.91 10.17-.85 4.8-1.31 9.2-1.84 13.86-.39 3.39-2.03 7.22-1.81 11.39q.02.49-.21.92c-1.55 2.81-1.84 5.69-3.37 8.53-1.3 2.41-1.7 5.24-2.55 7.25q-6.05 14.39-18.71 23.75c-3.24 2.39-6.55 4.67-9.77 7.09-5.48 4.1-10.99 9.91-16.09 13.85-15.5 11.96-30.16 24.84-45.47 37.02-4.44 3.53-17.44 15.02-18.17 22.08-1.7 16.58-2.17 29.49-3.8 44.19-1.59 14.32 2.42 23.78 11.96 33.72 4 4.16 7.09 8.5 11.78 13.04 2.83 2.73 3.81 11.25 8.45 14.8q.44.34.39.88c-.45 5.81-4.26 10.72-3.54 17.19q.51 4.65.43 6.41-.57 12.97-2.29 30.9c-1.03 10.72.79 21.23-.43 33.43-1.36 13.46-2.08 27.79-1.37 41.29q.35 6.68.69 13.36c.08 1.52.8 2.51 1.17 4.01a.65.65 0 0 0 .76.49l2.55-.47q.48-.09.87-.4l3.64-2.87" vector-effect="non-scaling-stroke"/>
    <path stroke="#f6eab8" d="M895.82 973.78c-6.73 7.41-12.48 13.12-14.06 20.98q-2.83 14.05-4.58 28.32-.06.52.45.65l1.06.27" vector-effect="non-scaling-stroke"/>
    <path stroke="#fffde4" d="M354.94 1024q1.6-.23 2.33-.84a.59.58-62.3 0 0-.32-1.03q-17.99-1.7-35.78-5c-12.61-2.34-25.33-7.21-37.81-11.15q-.5-.16-.75-.62l-2.37-4.49a2.65 2.65 0 0 0-2.86-1.37c-12.22 2.35-16.77 13.18-21.01 23.49q-.24.59.37.71l1.46.3M7.93 1024l.9-.25q.49-.14.51-.65 1.02-28.71.58-46.29c-.28-11.49.39-21.18-.74-31.66-.21-2.04-1.54-3.3-2.07-5.21q-2.2-7.9.4-15.41 1.53-4.4 1.74-6.23c.79-6.68-.87-12.62-.69-18.98q.33-11.78-.3-30.82c-.5-14.8.53-33.88.36-51.01-.16-15.24.43-30.21.09-45.73q-.37-17.15.35-34.28c.77-18.36-.01-35.46-1.44-53.27-1.29-16.05-.6-32.31-1.66-48.46-.95-14.61-.97-26.85-.93-43.84.02-9.22-.82-18.64-.64-27.55q.17-8.43.1-16.89a1.4 1.4 0 0 0-2.68-.55c-.44 1.01-1.07 1.55-1.07 2.86q-.01 12.14.1 24.28c.01 1.06-.67 2.8-.64 3.69q1.01 31.1-.2 62.19" vector-effect="non-scaling-stroke"/>
    <path stroke="#f6eab8" d="M358.99 103.71q-2.65.16-3.99.56-28.51 8.6-56.41 19c-17.34 6.47-35.29 11.25-52.64 18.38-3.57 1.47-6.68 3.74-8 7.09q-2.64 6.72-4.81 10.88c-2.68 5.16-4.27 8.67-6.83 12.19q-5.74 7.86-7.56 10.66" vector-effect="non-scaling-stroke"/>
    <path stroke="#f6eec0" d="m218.75 182.47-10.29 11.59q-.3.34-.49.76c-.54 1.2-1.85 1.98-2.41 2.7q-17.22 21.96-34.11 44.2c-9.94 13.08-17.01 30.24-23.13 45.43-3.24 8.07-7.99 16-10.65 24.94" vector-effect="non-scaling-stroke"/>
    <path stroke="#e8deb1" d="M137.67 312.09q-5.86 8.62-10.08 17.42" vector-effect="non-scaling-stroke"/>
    <path stroke="#f6eec0" d="m127.59 329.51-10.74 19.9a1.87 1.85-47.9 0 0 .09 1.9q5.12 7.67 10.65 15.43c3.89 5.46 10.14 9.51 13.43 14.88 3.7 6.05 9.17 10.63 13.56 16.46 3.51 4.65.25 13.13-2.76 17.21-2.23 3.03-4.49 9.45-5.16 12.92-1.52 7.97-.3 14.9-.86 22.74a1.47 1.47 0 0 1-2.33 1.08q-5.68-4.18-12.27-6.7a1.79 1.74 80.2 0 1-.77-.56q-14.7-19.1-31.34-36.51c-3.79-3.96-6.66-6.18-11.83-6.63a1.6 1.59 19.2 0 0-1.46.7c-3.87 5.84-7.79 14.33-13.7 18.15q-1.11.71-2.3 2.26c-4.54 5.91-5.39 9.37-4.11 17.08 2.15 12.93 1.65 24.09 1.52 39.02-.03 2.78-.47 6.81-.22 10.37.7 10.11.16 20.41-.69 30.5-.51 5.95.18 13.53.12 17.74-.11 7.31-1.6 15.18 4.67 20.84 3.93 3.55 8.06 10.98 13.86 8.15 5.5-2.68 8.75-2.14 14.67.41 7.77 3.35 16.25 4.28 23.49 6.26q23.07 6.31 46.73 9.83c3.49.52 7.4.92 6.25 5.11q-3.65 13.27-13.57 42.21-4.57 13.35-14.06 45.99-2.18 7.51-2.16 12.24c.03 10.68 4.6 22.91 7.9 32.12.99 2.76.82 5.97 2.5 8.9q.25.42.28.9l.22 2.89" vector-effect="non-scaling-stroke"/>
    <path stroke="#e8deb1" d="m157.2 733.3-1.5 11.83q-.06.52.24.96 1.09 1.57 3.81 2.66" vector-effect="non-scaling-stroke"/>
    <path stroke="#f6eec0" d="M159.75 748.75q-2.27 3.32-1.35 5.89c1.73 4.82 22.92 12.08 28.11 14.67 7.82 3.9 16.36 7.14 24.08 10.55q17.22 7.59 35.84 10.98 1.13.21 4.08 2.6" vector-effect="non-scaling-stroke"/>
    <path stroke="#e8deb1" d="m250.51 793.44 9.8 6.51" vector-effect="non-scaling-stroke"/>
    <path stroke="#f6eec0" d="m260.31 799.95 26.73 22.72a.74.74 0 0 1-.14 1.23q-13.74 7.06-26.11 15.49c-7.4 5.04-12.49 8.14-19.68 11.11q-1.85.76-.46 2.2 3.62 3.76 7.16 8.21 13.86 17.43 27.64 34.91c4.27 5.42 12.35 19.39 20.55 18.19 18.17-2.66 35.53-2.12 53.36-2.86 5.22-.22 10.84-1.06 15.4-2.14q28.1-6.66 56.59-11.66c3.61-.63 4.73.43 6.61 3.22q5.44 8.07 8.89 14.38c3.65 6.67 8.25 15.09 14.15 19.73 6.21 4.89 14.03 8.16 21.2 11.42 11.54 5.25 22.29 11.59 33.22 17.65q10.64 5.91 21.27 11.06a2.18 2.17-55.9 0 0 2.57-.5q10.17-11.3 20.62-22.5c8.72-9.33 17.99-15.87 28.66-22.09 4.35-2.54 9.77-2.24 14.46-1.48q21.53 3.51 41.76 4.63c6.59.37 21.08-10.44 27.56-14.95q20.99-14.58 43.63-26.45 2.2-1.16 5.45-4.16.36-.33-.03-.62-1.83-1.4-3.87-1.46-19.59-.55-25.25-1.25c-13.76-1.7-28.81-2.57-41.37-3.94-9.85-1.08-19.95-1.64-29.63-3.78a.69.69 0 0 1-.21-1.26q23.4-14.47 44.7-30.38c4.18-3.12 8.45-5.8 12.77-8.63a.81.81 0 0 0-.17-1.44q-.56-.2-1.43-.36-16.29-3.04-32.59-6.04-4.81-.88-8.59-2.48-.48-.2-.65-.68-.45-1.24.4-2.16" vector-effect="non-scaling-stroke"/>
    <path stroke="#f6eab8" d="M625.48 822.83q7.75-13.97 15.45-28.13c1.64-3.02.99-5.46.67-8.61-1.1-10.9.06-22.98.34-33.97a1.87 1.86-85.1 0 0-1.59-1.89c-17.01-2.53-36.48-2.27-51.64 6.23q-22.24 12.49-48.6 29.68-2.93 1.91-6.44 3.19" vector-effect="non-scaling-stroke"/>
    <path stroke="#f6eec0" d="M533.67 789.33q-1.5-4.89-1.83-8.15-1.37-13.74-2.76-27.5c-1.04-10.25 2.01-18.43 5.14-28.28q5.88-18.51 12.35-36.9" vector-effect="non-scaling-stroke"/>
    <path stroke="#f6eab8" d="M546.57 688.5q3.71-3.88 9.09-7.1 23.37-14.01 45.3-30.38.62-.46.46-1.21c-4.48-20.69-8.58-41.56-18.01-60.81" vector-effect="non-scaling-stroke"/>
    <path stroke="#e8deb1" d="M583.41 589q-1.2-3.94-3.59-3.56" vector-effect="non-scaling-stroke"/>
    <path stroke="#f6eec0" d="M579.82 585.44q-3.11.25-5.28 2.16a1.31 1.3 23.9 0 1-.87.33c-6.08.01-9.02 4.23-14.46 5.76q-22.51 6.33-43.83 15.81c-8.01 3.56-12.34 3.87-19.91-.02q-13.96-7.16-27.7-14.78-2.35-1.3-4.46-3.57-5.97-6.43-13.37-11.16c-3.22-2.05-7.09-2.6-10.79-3.83-2.73-.91-3.98-3.08-5.93-5.07a1.75 1.7-14.4 0 0-.82-.47c-3.63-.94-15.65-4.26-15.93-8.85q-.37-5.98 1.85-12.94.6-1.9.5-2.92-.05-.48.12-.94c1.21-3.37 1.72-6.96 3.13-10.11q2.49-5.57 4.81-11.31" vector-effect="non-scaling-stroke"/>
    <path stroke="#f6eab8" d="m426.88 523.53 15.36-35.68a2.99 2.99 0 0 1 3.43-1.73c14.78 3.46 29.48 8.3 44.3 11.04a2.95 2.94-74.4 0 0 3.29-1.86l1.76-4.72a2.03 2.02 23.3 0 1 2.8-1.11q5.59 2.77 10.41-1.03c10.31-8.15 18.83-15.32 31.29-20.29q1.87-.74 3.27-2.27c2.53-2.77 4.34-4.45 8.05-6.14q7.59-3.46 13.82-9.12a1.32 1.31 72 0 0 .43-.85q.31-3.29-.55-5.26-14.4-32.99-29.51-65.25a1.92 1.91 68.4 0 0-2.32-1.01q-32.74 10.51-65.41 21.31c-6.69 2.21-11.41 2.79-14.23-4.55" vector-effect="non-scaling-stroke"/>
    <path stroke="#f6eec0" d="M453.07 395.01q.64-.97.99-.92c10.01-6.75 19.51-13.3 30.32-19.54q20.69-11.93 43.44-26.71 1.88-1.22 2.76-3.03a.69.68 29 0 0-.26-.89c-21.15-12.59-41.27-26.6-64.57-41.42q-7.77-4.95-13.64-8.11c-8.6-4.62-9.54-16.71-11.88-25.14q-.32-1.13 1.07-2.23" vector-effect="non-scaling-stroke"/>
    <path stroke="#f6eab8" d="M441.3 267.02c11.39-.66 23.85-.42 34.17-1.04 10.7-.65 22.35-.76 32.67-2.96q.55-.12.39-.66-5.61-20.07-11.92-39.94c-1.66-5.23-6.08-6.8-11.21-9.03-20.29-8.82-41.02-16.95-60.95-26.52" vector-effect="non-scaling-stroke"/>
    <path stroke="#f6eec0" d="M424.45 186.87c-.84-3.26 4.61-8.63 5.78-10.91 7.21-14.02 18.14-38.62 29.02-57.24q3.97-6.79 14.8-31.45c3.06-6.96 6.77-13.5 10.33-20.2q2.01-3.79 2.4-7.94a.62.62 0 0 0-.82-.64q-10.01 3.41-19.8 5.53c-20.77 4.5-39.69 10.81-63.7 16.82-14.71 3.68-26.13 7.24-38.86 12.58q-2.19.92-2.59 3.59-.45 2.97-2.02 6.7" vector-effect="non-scaling-stroke"/>
    <path stroke="#eeddb0" d="M424.45 186.87q-.46.21-1.17.14" vector-effect="non-scaling-stroke"/>
    <path stroke="#e0d1a9" d="m423.28 187.01-31.69-12.91a1.03 1.02 26.3 0 1-.5-1.46c10.05-17.23 18.52-34.01 30.47-51.13 4.8-6.87 8.43-13.22 12.06-20.21a.67.67 0 0 0-.62-.98c-24.37.94-48.99 1.1-73.17 3.29" vector-effect="non-scaling-stroke"/>
    <path stroke="#eeddb0" d="M359.83 103.61q-.69.33-.84.1" vector-effect="non-scaling-stroke"/>
    <path stroke="#dfcda1" d="M423.28 187.01c.97 2.31-5.14 10.25-3.86 13.77q7.28 19.92 12 40.59c1.81 7.97 4.35 15.5 6.45 23.29q.13.48-.22.83-.53.53-1.26.82" vector-effect="non-scaling-stroke"/>
    <path stroke="#e0d1a9" d="M436.39 266.31q-8.83 2.76-16.45 9.64c-24.62 22.26-43.96 40.14-66.04 59.41a2.4 2.4 0 0 0-.45 3.08q6.28 10.05 12.7 21.2 1.42 2.47 3.35 2.63 9.95.82 45.99 2.7c8.77.46 12.83.19 17.77 6.75q4.55 6.03 16.91 19.6.78.86 1.94 3.17" vector-effect="non-scaling-stroke"/>
    <path stroke="#dfcda1" d="M452.11 394.49q-.91 1.31-3.84 3.27-12.28 8.22-25.27 15.11a2.73 2.72-13.7 0 0-1.45 2.37c-.4 32.66-1.9 63.94-2.98 99.26q-.38 12.28.81 23.03" vector-effect="non-scaling-stroke"/>
    <path stroke="#e0d1a9" d="M419.38 537.53c-.93 2.94-1.77 5.32-2.31 8.6-.88 5.33-3.27 9.69-5.14 14.16-8.06 19.25-17.41 38.57-23.88 58.38-4.38 13.42-9.44 24.49-13.92 36.85q-.75 2.08 1.38 2.65c14.54 3.91 29.79 7.09 43.87 12.56 4.52 1.75 21.98-4.29 27.01-6.02 14.87-5.1 29.84-9.83 44.81-14.63 4.03-1.29 10.65-2.99 13.8-2.37q14.86 2.93 30.71 7.04 1.02.26 1.64-.59 1.96-2.68 3.38-6.42 2.49-6.54 14.28-28.04.81-1.49 3.63-5.85c2.66-4.12 4.36-8.96 6.96-12.76 4.24-6.2 6.78-11.56 14.22-15.65" vector-effect="non-scaling-stroke"/>
    <path stroke="#dfcda1" d="M583.41 589q-7.35 11.53-12.22 25.98-16.45 48.88-21.2 63.72-1.25 3.92-5.03 10.14" vector-effect="non-scaling-stroke"/>
    <path stroke="#e0d1a9" d="M544.96 688.84c-25.03 16.85-49.79 34.09-74.89 50.85-17.38 11.61-34.14 24.13-51.26 36.2a1.29 1.29 0 0 0 .17 2.2c5.25 2.65 11.72 3.64 16.06 4.83 22.56 6.22 45.57 11.64 67.49 19.9 3.06 1.15 5.38.49 7.99-1.04q10.12-5.94 20.31-11.78a1.89 1.87 28.7 0 1 .84-.24l.89-.05" vector-effect="non-scaling-stroke"/>
    <path stroke="#dfcda1" d="M532.56 789.71q1.97 8.56 2.28 17.37c.11 3.32 2.47 2.84 4.79 3.23 11.17 1.89 21.86 3.53 33.28 6.26 15.78 3.78 30.83 5.12 46.34 7.15q1.44.19 4.46 1.58" vector-effect="non-scaling-stroke"/>
    <path stroke="#e0d1a9" d="M623.71 825.3q.62.51.91 1.21a1.04 1.03-41 0 1-.07.93q-9.56 16.1-12.43 21.65c-4.22 8.14-9.51 7.98-17.32 10.55q-52.82 17.37-105.63 34.76-5.88 1.93-10.21 4.31a.65.64 61.5 0 1-.89-.27q-.65-1.24-1.34-3.44-4.53-14.45-8.76-28.99c-3.4-11.69-11.53-18.69-20.11-26.61-21.97-20.29-45.14-39.69-65.96-60.85a1.98 1.98 0 0 0-2.29-.38q-11.75 5.86-22.81 12.54c-9.29 5.61-18.51 9.97-27.2 16.06q-.42.29-.55.78c-1.58 5.58-3.57 11.02-4.87 16.62q-2.25 9.59-4.96 19.5-.76 2.74-3.01 1.01l-27.73-21.31q-.71-.55.03-1.06c3.44-2.39 6.63-3.1 8.37-7.45a2.1 2.09 20.5 0 0-1.26-2.75c-7.48-2.57-15.06-6.09-22.87-7.77-2.25-.48-3.74-2.22-6.64-1.81a1.45 1.43 54.1 0 1-.84-.14l-4.96-2.44M250.51 793.44q-3.88-4.39-7.8-8.75c-4.91-5.45-8.95-7.78-15.47-10.43q-18.86-7.66-34.59-12.98-9.85-3.33-16.54-6.01-8.4-3.36-16.36-6.52M157.2 733.3c2.79-19.76 7.86-39.22 11.78-58.8q.9-4.52 2.98-7.04 12.17-14.74 23.93-29.79c3.42-4.39 9.72-5.24 13.77-6.8 16.2-6.24 31.99-10.01 49.08-16.78 5.68-2.25 12.52 2.88 17.34 6.08 9.87 6.54 19.55 13.47 29.51 19.72q9.98 6.28 19.73 12.68a.6.6 0 0 0 .77-.09c16.98-18.16 34.68-35.98 50.68-54.96 2.08-2.47 5.5-3.08 7.53-5.64q2.86-3.6 5.28-7.93a1.26 1.25 42.2 0 0-.07-1.34q-1.84-2.59-4.71-3.92a1.32 1.32 0 0 1-.65-1.76c2.69-5.76-1.01-7.05-2.63-11.75-2.72-7.93-3.58-17.52-4.71-23.88q-1.53-8.62-2.98-17.27c-.76-4.55-6.97-7.93-6.83-10.78.41-8.03-.78-12.73-3.02-22.22q-5.31-22.55-10.69-45.11a.76.76 0 0 0-1.1-.5q-1.55.83-3.32 1.99c-33.12 21.69-64.67 46-96.5 69.54q-1.38 1.02-5.69 3.44c-4.22 2.37-7.24 6.22-10.48 8.62q-6.8 5.04-13.56 10.17c-2.06 1.57-5.52-2.05-6.81-3.59-5.49-6.55-13.42-13.68-17.76-18.16q-25.16-25.96-50.34-51.93c-4.94-5.09-3.95-10.57 1.84-14.31 5.46-3.53 10.56-3.16 16.14-4.86q20.24-6.14 40.44-12.42c10.05-3.12 19.5-6.98 29.08-10.92q1.4-.58 3.69-.64c4.89-.14 6.63-3.34 9.85-5.42q8.18-5.3 16.47-10.59a1.2 1.2 0 0 0 .48-1.43q-7.09-19.13-12.28-38.35-1.3-4.82-3.21-7.97a1.58 1.55-4 0 0-.77-.66l-74.43-29.31a1.77 1.77 0 0 0-2.2.81c-9.07 17.14-18.78 33.89-27.85 51.02-.83 1.57-2.75 1.61-3.88.15q-2-2.58-2.69-5.54c-1.53-6.55-3.35-12.66-4.53-18.83q-2.55-13.37-6.29-26.72M137.67 312.09c18.24-19.06 32.59-41.49 48.41-62.47 12.72-16.87 19.59-36.52 29.86-55.18q.69-1.25 1.28-4.12" vector-effect="non-scaling-stroke"/>
    <path stroke="#dfcda1" d="M217.22 190.32c2.8-5.53 4.81-11.39 10.3-14.86q.44-.27.95-.22 21.33 2.17 42.36-2.12 3.8-.78 6 1.29 28.39 26.75 55.92 55.98a1.48 1.48 0 0 0 2.51-.64c4.98-18.79 12.67-36.92 17.86-55.81 1.42-5.17 4.89-13.38 5.36-20.19q1.14-16.77 1.21-41.38c.01-2.64-1.22-5.36.14-8.76" vector-effect="non-scaling-stroke"/>
    <path stroke="#eeddb0" d="m217.22 190.32 1.53-7.85M441.3 267.02l-4.91-.71M533.67 789.33q-.72-.01-1.11.38M625.48 822.83q-1.09.04-1.06 2.01.01.37-.35.42-.17.02-.36.04M546.57 688.5q-1.26-.13-1.61.34M453.07 395.01l-.96-.52M426.88 523.53q-3.77 3.71-4.63 8.47-.69 3.86-2.87 5.53" vector-effect="non-scaling-stroke"/>
    <path stroke="#fffde4" d="M693.62 625.05c4.42 4.96 14.63 16.64 21.11 17.84a1.93 1.92 21 0 0 1.99-.88c3.28-5.37 6.75-10.47 9.49-16.04q3.64-7.38 7.34-14.71c5.59-11.07 7.1-20.98 3.11-32.84-1.06-3.15-.67-5.99-4.39-8.08-3.47-1.94-9.22.97-12.28-1.82q-9.07-8.29-18.65-15.26a1.93 1.93 0 0 0-2.29.01q-12.34 9.23-23.21 20.6c-5.22 5.46-10.68 13.16-16.35 19.39a1.31 1.31 0 0 0 .21 1.95c12.45 8.98 23.72 18.43 33.92 29.84M739.86 805.76c-1.36 3.99 1.34 8.79 4.33 11.33q.38.33.61.77 1.01 1.92 3.11 2.68.51.18.87.59l1.04 1.15q.31.35.71.58c4.21 2.4 8.45 6.82 13.72 3.47q6.81-4.34 11.02-11.21c1.7-2.76 3.65-4.6 5.67-6.99 5.87-6.96 12.33-10.02 21.81-7.81q1.29.3 2.35 1.26.42.38.99.29l6.88-1.2q.43-.08.63-.46 1.87-3.52.96-5.51-2.89-6.3-5.08-12.88c-2.19-6.55-6.38-15.91-13.31-18.23-4.96-1.66-25.87-7.64-29.1-2.26q-8 13.27-17.3 25.68c-1.76 2.34-2.33 5.76-4.29 8.11-2.31 2.76-3.9 5.59-5.62 10.64M780.04 0c8.74.51 13.64 6.99 17.3 13.92 15.67 29.66 27.94 60.5 42.02 90.88q1.72 3.72 2.39 6.32c2.77 10.86 5.24 27.12 18.75 30.14 16.65 3.72 34.69 1.14 51.39-4.7 7.7-2.7 16.54-4.55 24.79-5.7 9.24-1.29 17.37-4.27 25.92-6.76 6.5-1.89 12.6-2.83 19.04-3.25a1.9 1.9 0 0 0 1.63-2.64c-4.91-11.49-10.61-22.32-14.79-33.97q-4.1-11.45-8.84-22.66c-1.48-3.52-4.22-4.59-1.12-8.98 3.18-4.51 5.6-9.66 8.71-13.83q12.75-17.08 25.18-34.41C995.09.64 1002.64.33 1006.82 0M1024 984.09q-4.47 1.78-6.98 2.13-.9.12-2.39-.68-.58-.31-.37.32l.88 2.5" vector-effect="non-scaling-stroke"/>
    <path stroke="#f6ecd3" d="M1015.14 988.36c-3.67-4.55-6.94-9.71-10.52-13.88-8.01-9.34-16.25-18.13-23.57-28.25-9.5-13.15-18.94-25.44-30.41-36.97a.79.78 40.6 0 0-1.19.09c-8.12 11.33-18.44 22.51-26.46 32.21q-5.06 6.11-10.38 12.01c-5.8 6.43-11.04 13.58-16.79 20.21" vector-effect="non-scaling-stroke"/>
    <path stroke="#f6eab8" d="M1015.14 988.36q6.32 7.79 8.86 17.42" vector-effect="non-scaling-stroke"/>
    <path stroke="#fffde4" d="M284.21 1024h-8.3" vector-effect="non-scaling-stroke"/>
  </g>
  <path fill="#fefbc8" d="M0 0h648.81c-3.65.62-5.94-.45-5.75 4.37q.4 10.68 2.68 16.63c2.71 7.05 4.61 14.54 7.22 21.31q2.79 7.2 5.22 14.54c6.03 18.23 15.62 31.3 27.08 46.73q8.74 11.75 14.39 25.38.08.19.26.26.11.04.25.08.12.03.13.15l.62 7.78a.72.71 73.5 0 1-.36.67c-1.98 1.13-5.01 1.43-6.48 1.9-22.26 7-47.64 10.58-69.36 13.68-7.21 1.03-11.66-2.32-16.1-8q-3.81-4.85-8.06-9.32c-9.01-9.49-17.54-19.37-27.19-28.27q-8.29-7.65-17.97-1.75c-10.87 6.62-21.66 15.31-31.16 21.52q-7.07 4.62-14.24 9.07c-7.6 4.71 11.48 20.17 14.7 22.33q11.07 7.42 19.63 16.12 15.09 15.35 29.89 28.51c15.51 13.79 29.57 29.31 44.42 43.84 2.26 2.21 4.79 3.46 6.86 6.02 9.2 11.34 19.13 19.92 32.06 25.92 3.75 1.74 7.48 2.08 11.54 2.88 8.65 1.72 17.51.81 26.3 1.87q11.5 1.39 23.11.78c1.28-.07 3.05.54 4.68.5 7.66-.21 31.65-.31 30.8 8.51q-1 10.34-1.31 15.56c-.43 7.16-4.73 15.82-9.98 20.73-3.43 3.21-7.69 5.07-11.38 7.21q-3.59 2.09-5.47 2.94-18.94 8.48-37.84 17.04c-5.28 2.39-14.85 7.98-19.06 13.52-6.34 8.34-10.05 15.53-14.08 23.47q-2.04 4.02-3.08 6.89-5.37 14.87-10.82 29.71c-1.3 3.52-3.87 5.4-3.56 9.86q.04.52.35.94 3.75 4.86 6.45 10.34c.76 1.55 2.2 3.48 3.55 4.02q20.71 8.23 26.31 11.46c8.95 5.19 18.47 8.88 27.4 13.93 6.43 3.65 11.56 6.03 17.17 11.05a1.31 1.28 64 0 0 .9.32c9.95-.42 20.37-7.25 28.45-11.16 6.9-3.34 12.98-6.97 19.42-10.71.88-.51.96-1.25 1.53-1.8q9.46-9.06 21.57-13.86c2.49-.98 5.04-3.48 7.27-4.19q3.2-1.01 9.91-4.37 3.04-1.52 13.9-5.55 6.09-2.26 14.01-7.95c5.36-3.87 10.67-14.21 17.6-14.92 8.02-.81 29.4 27.48 33.51 34.49q1.47 2.51 3.22 4.83 8.93 11.81 18.01 23.51 2.01 2.58 3.48 6.21.19.46.09.96c-.54 2.78-1.02 5.35-1.86 8.14q-6.82 22.34-12.75 44.93c-1.74 6.64-5.56 11.79-9.98 16.71q-.34.38-.84.33-12.7-1.08-25.41-2.22c-1.21-.11-2.23-.97-3.6-.9-2.84.14-5.71-.42-8.06-.47-9.37-.19-18.47-.56-27.73-2.01q-3.27-.51-7.59-.32c-12.76.55-22.33-.33-31.07 6.67-4.53 3.62-5.52 11.73-4.55 17.12 1.62 9.07.64 18.03 1.14 26.65q.54 9.4.48 13.29-.46 29.98-.8 59.96c-.06 5.18 1.11 10.71 1.33 16.17q.16 4.02 1.38 5.63c2.36 3.15 6.32 3.3 9.43.75a1.11 1.08 31.1 0 1 .94-.22q1.86.4 3.14-.91a1.67 1.66 17.2 0 1 .92-.48c7.91-1.43 12.47-7.32 20.32-9.7 10.55-3.21 21.13-5.67 31.49-10.48 15.98-7.43 32.82-14.1 46.95-22.34q12.08-7.06 19.32-11.14 9.36-5.28 13.64-8.79c8.16-6.71 14.01-14.75 20.52-22.98 2.51-3.18 3.72-6.73 6-9.93 1.57-2.2 2.98-5.5 3.94-7.08q3.01-4.92 6.13-9.76c3.85-5.98 9.06-11.24 13.76-16.8 1.65-1.96 2.44-3.82 3.19-6.18a1.35 1.35 0 0 1 2.64.43q-.03 2.57-.46 5.34c-.53 3.33-.31 6.79-.91 10.17-.85 4.8-1.31 9.2-1.84 13.86-.39 3.39-2.03 7.22-1.81 11.39q.02.49-.21.92c-1.55 2.81-1.84 5.69-3.37 8.53-1.3 2.41-1.7 5.24-2.55 7.25q-6.05 14.39-18.71 23.75c-3.24 2.39-6.55 4.67-9.77 7.09-5.48 4.1-10.99 9.91-16.09 13.85-15.5 11.96-30.16 24.84-45.47 37.02-4.44 3.53-17.44 15.02-18.17 22.08-1.7 16.58-2.17 29.49-3.8 44.19-1.59 14.32 2.42 23.78 11.96 33.72 4 4.16 7.09 8.5 11.78 13.04 2.83 2.73 3.81 11.25 8.45 14.8q.44.34.39.88c-.45 5.81-4.26 10.72-3.54 17.19q.51 4.65.43 6.41-.57 12.97-2.29 30.9c-1.03 10.72.79 21.23-.43 33.43-1.36 13.46-2.08 27.79-1.37 41.29q.35 6.68.69 13.36c.08 1.52.8 2.51 1.17 4.01a.65.65 0 0 0 .76.49l2.55-.47q.48-.09.87-.4l3.64-2.87c-6.73 7.41-12.48 13.12-14.06 20.98q-2.83 14.05-4.58 28.32-.06.52.45.65l1.06.27H354.94q1.6-.23 2.33-.84a.59.58-62.3 0 0-.32-1.03q-17.99-1.7-35.78-5c-12.61-2.34-25.33-7.21-37.81-11.15q-.5-.16-.75-.62l-2.37-4.49a2.65 2.65 0 0 0-2.86-1.37c-12.22 2.35-16.77 13.18-21.01 23.49q-.24.59.37.71l1.46.3H7.93l.9-.25q.49-.14.51-.65 1.02-28.71.58-46.29c-.28-11.49.39-21.18-.74-31.66-.21-2.04-1.54-3.3-2.07-5.21q-2.2-7.9.4-15.41 1.53-4.4 1.74-6.23c.79-6.68-.87-12.62-.69-18.98q.33-11.78-.3-30.82c-.5-14.8.53-33.88.36-51.01-.16-15.24.43-30.21.09-45.73q-.37-17.15.35-34.28c.77-18.36-.01-35.46-1.44-53.27-1.29-16.05-.6-32.31-1.66-48.46-.95-14.61-.97-26.85-.93-43.84.02-9.22-.82-18.64-.64-27.55q.17-8.43.1-16.89a1.4 1.4 0 0 0-2.68-.55c-.44 1.01-1.07 1.55-1.07 2.86q-.01 12.14.1 24.28c.01 1.06-.67 2.8-.64 3.69q1.01 31.1-.2 62.19V0Zm358.99 103.71q-2.65.16-3.99.56-28.51 8.6-56.41 19c-17.34 6.47-35.29 11.25-52.64 18.38-3.57 1.47-6.68 3.74-8 7.09q-2.64 6.72-4.81 10.88c-2.68 5.16-4.27 8.67-6.83 12.19q-5.74 7.86-7.56 10.66l-10.29 11.59q-.3.34-.49.76c-.54 1.2-1.85 1.98-2.41 2.7q-17.22 21.96-34.11 44.2c-9.94 13.08-17.01 30.24-23.13 45.43-3.24 8.07-7.99 16-10.65 24.94q-5.86 8.62-10.08 17.42l-10.74 19.9a1.87 1.85-47.9 0 0 .09 1.9q5.12 7.67 10.65 15.43c3.89 5.46 10.14 9.51 13.43 14.88 3.7 6.05 9.17 10.63 13.56 16.46 3.51 4.65.25 13.13-2.76 17.21-2.23 3.03-4.49 9.45-5.16 12.92-1.52 7.97-.3 14.9-.86 22.74a1.47 1.47 0 0 1-2.33 1.08q-5.68-4.18-12.27-6.7a1.79 1.74 80.2 0 1-.77-.56q-14.7-19.1-31.34-36.51c-3.79-3.96-6.66-6.18-11.83-6.63a1.6 1.59 19.2 0 0-1.46.7c-3.87 5.84-7.79 14.33-13.7 18.15q-1.11.71-2.3 2.26c-4.54 5.91-5.39 9.37-4.11 17.08 2.15 12.93 1.65 24.09 1.52 39.02-.03 2.78-.47 6.81-.22 10.37.7 10.11.16 20.41-.69 30.5-.51 5.95.18 13.53.12 17.74-.11 7.31-1.6 15.18 4.67 20.84 3.93 3.55 8.06 10.98 13.86 8.15 5.5-2.68 8.75-2.14 14.67.41 7.77 3.35 16.25 4.28 23.49 6.26q23.07 6.31 46.73 9.83c3.49.52 7.4.92 6.25 5.11q-3.65 13.27-13.57 42.21-4.57 13.35-14.06 45.99-2.18 7.51-2.16 12.24c.03 10.68 4.6 22.91 7.9 32.12.99 2.76.82 5.97 2.5 8.9q.25.42.28.9l.22 2.89-1.5 11.83q-.06.52.24.96 1.09 1.57 3.81 2.66-2.27 3.32-1.35 5.89c1.73 4.82 22.92 12.08 28.11 14.67 7.82 3.9 16.36 7.14 24.08 10.55q17.22 7.59 35.84 10.98 1.13.21 4.08 2.6l9.8 6.51 26.73 22.72a.74.74 0 0 1-.14 1.23q-13.74 7.06-26.11 15.49c-7.4 5.04-12.49 8.14-19.68 11.11q-1.85.76-.46 2.2 3.62 3.76 7.16 8.21 13.86 17.43 27.64 34.91c4.27 5.42 12.35 19.39 20.55 18.19 18.17-2.66 35.53-2.12 53.36-2.86 5.22-.22 10.84-1.06 15.4-2.14q28.1-6.66 56.59-11.66c3.61-.63 4.73.43 6.61 3.22q5.44 8.07 8.89 14.38c3.65 6.67 8.25 15.09 14.15 19.73 6.21 4.89 14.03 8.16 21.2 11.42 11.54 5.25 22.29 11.59 33.22 17.65q10.64 5.91 21.27 11.06a2.18 2.17-55.9 0 0 2.57-.5q10.17-11.3 20.62-22.5c8.72-9.33 17.99-15.87 28.66-22.09 4.35-2.54 9.77-2.24 14.46-1.48q21.53 3.51 41.76 4.63c6.59.37 21.08-10.44 27.56-14.95q20.99-14.58 43.63-26.45 2.2-1.16 5.45-4.16.36-.33-.03-.62-1.83-1.4-3.87-1.46-19.59-.55-25.25-1.25c-13.76-1.7-28.81-2.57-41.37-3.94-9.85-1.08-19.95-1.64-29.63-3.78a.69.69 0 0 1-.21-1.26q23.4-14.47 44.7-30.38c4.18-3.12 8.45-5.8 12.77-8.63a.81.81 0 0 0-.17-1.44q-.56-.2-1.43-.36-16.29-3.04-32.59-6.04-4.81-.88-8.59-2.48-.48-.2-.65-.68-.45-1.24.4-2.16 7.75-13.97 15.45-28.13c1.64-3.02.99-5.46.67-8.61-1.1-10.9.06-22.98.34-33.97a1.87 1.86-85.1 0 0-1.59-1.89c-17.01-2.53-36.48-2.27-51.64 6.23q-22.24 12.49-48.6 29.68-2.93 1.91-6.44 3.19-1.5-4.89-1.83-8.15-1.37-13.74-2.76-27.5c-1.04-10.25 2.01-18.43 5.14-28.28q5.88-18.51 12.35-36.9 3.71-3.88 9.09-7.1 23.37-14.01 45.3-30.38.62-.46.46-1.21c-4.48-20.69-8.58-41.56-18.01-60.81q-1.2-3.94-3.59-3.56-3.11.25-5.28 2.16a1.31 1.3 23.9 0 1-.87.33c-6.08.01-9.02 4.23-14.46 5.76q-22.51 6.33-43.83 15.81c-8.01 3.56-12.34 3.87-19.91-.02q-13.96-7.16-27.7-14.78-2.35-1.3-4.46-3.57-5.97-6.43-13.37-11.16c-3.22-2.05-7.09-2.6-10.79-3.83-2.73-.91-3.98-3.08-5.93-5.07a1.75 1.7-14.4 0 0-.82-.47c-3.63-.94-15.65-4.26-15.93-8.85q-.37-5.98 1.85-12.94.6-1.9.5-2.92-.05-.48.12-.94c1.21-3.37 1.72-6.96 3.13-10.11q2.49-5.57 4.81-11.31l15.36-35.68a2.99 2.99 0 0 1 3.43-1.73c14.78 3.46 29.48 8.3 44.3 11.04a2.95 2.94-74.4 0 0 3.29-1.86l1.76-4.72a2.03 2.02 23.3 0 1 2.8-1.11q5.59 2.77 10.41-1.03c10.31-8.15 18.83-15.32 31.29-20.29q1.87-.74 3.27-2.27c2.53-2.77 4.34-4.45 8.05-6.14q7.59-3.46 13.82-9.12a1.32 1.31 72 0 0 .43-.85q.31-3.29-.55-5.26-14.4-32.99-29.51-65.25a1.92 1.91 68.4 0 0-2.32-1.01q-32.74 10.51-65.41 21.31c-6.69 2.21-11.41 2.79-14.23-4.55q.64-.97.99-.92c10.01-6.75 19.51-13.3 30.32-19.54q20.69-11.93 43.44-26.71 1.88-1.22 2.76-3.03a.69.68 29 0 0-.26-.89c-21.15-12.59-41.27-26.6-64.57-41.42q-7.77-4.95-13.64-8.11c-8.6-4.62-9.54-16.71-11.88-25.14q-.32-1.13 1.07-2.23c11.39-.66 23.85-.42 34.17-1.04 10.7-.65 22.35-.76 32.67-2.96q.55-.12.39-.66-5.61-20.07-11.92-39.94c-1.66-5.23-6.08-6.8-11.21-9.03-20.29-8.82-41.02-16.95-60.95-26.52-.84-3.26 4.61-8.63 5.78-10.91 7.21-14.02 18.14-38.62 29.02-57.24q3.97-6.79 14.8-31.45c3.06-6.96 6.77-13.5 10.33-20.2q2.01-3.79 2.4-7.94a.62.62 0 0 0-.82-.64q-10.01 3.41-19.8 5.53c-20.77 4.5-39.69 10.81-63.7 16.82-14.71 3.68-26.13 7.24-38.86 12.58q-2.19.92-2.59 3.59-.45 2.97-2.02 6.7Zm334.63 521.34c4.42 4.96 14.63 16.64 21.11 17.84a1.93 1.92 21 0 0 1.99-.88c3.28-5.37 6.75-10.47 9.49-16.04q3.64-7.38 7.34-14.71c5.59-11.07 7.1-20.98 3.11-32.84-1.06-3.15-.67-5.99-4.39-8.08-3.47-1.94-9.22.97-12.28-1.82q-9.07-8.29-18.65-15.26a1.93 1.93 0 0 0-2.29.01q-12.34 9.23-23.21 20.6c-5.22 5.46-10.68 13.16-16.35 19.39a1.31 1.31 0 0 0 .21 1.95c12.45 8.98 23.72 18.43 33.92 29.84Zm46.24 180.71c-1.36 3.99 1.34 8.79 4.33 11.33q.38.33.61.77 1.01 1.92 3.11 2.68.51.18.87.59l1.04 1.15q.31.35.71.58c4.21 2.4 8.45 6.82 13.72 3.47q6.81-4.34 11.02-11.21c1.7-2.76 3.65-4.6 5.67-6.99 5.87-6.96 12.33-10.02 21.81-7.81q1.29.3 2.35 1.26.42.38.99.29l6.88-1.2q.43-.08.63-.46 1.87-3.52.96-5.51-2.89-6.3-5.08-12.88c-2.19-6.55-6.38-15.91-13.31-18.23-4.96-1.66-25.87-7.64-29.1-2.26q-8 13.27-17.3 25.68c-1.76 2.34-2.33 5.76-4.29 8.11-2.31 2.76-3.9 5.59-5.62 10.64Z"/>
  <path fill="#fff" d="M648.81 0h131.23c8.74.51 13.64 6.99 17.3 13.92 15.67 29.66 27.94 60.5 42.02 90.88q1.72 3.72 2.39 6.32c2.77 10.86 5.24 27.12 18.75 30.14 16.65 3.72 34.69 1.14 51.39-4.7 7.7-2.7 16.54-4.55 24.79-5.7 9.24-1.29 17.37-4.27 25.92-6.76 6.5-1.89 12.6-2.83 19.04-3.25a1.9 1.9 0 0 0 1.63-2.64c-4.91-11.49-10.61-22.32-14.79-33.97q-4.1-11.45-8.84-22.66c-1.48-3.52-4.22-4.59-1.12-8.98 3.18-4.51 5.6-9.66 8.71-13.83q12.75-17.08 25.18-34.41C995.09.64 1002.64.33 1006.82 0H1024v984.09q-4.47 1.78-6.98 2.13-.9.12-2.39-.68-.58-.31-.37.32l.88 2.5c-3.67-4.55-6.94-9.71-10.52-13.88-8.01-9.34-16.25-18.13-23.57-28.25-9.5-13.15-18.94-25.44-30.41-36.97a.79.78 40.6 0 0-1.19.09c-8.12 11.33-18.44 22.51-26.46 32.21q-5.06 6.11-10.38 12.01c-5.8 6.43-11.04 13.58-16.79 20.21l-3.64 2.87q-.39.31-.87.4l-2.55.47a.65.65 0 0 1-.76-.49c-.37-1.5-1.09-2.49-1.17-4.01q-.34-6.68-.69-13.36c-.71-13.5.01-27.83 1.37-41.29 1.22-12.2-.6-22.71.43-33.43q1.72-17.93 2.29-30.9.08-1.76-.43-6.41c-.72-6.47 3.09-11.38 3.54-17.19q.05-.54-.39-.88c-4.64-3.55-5.62-12.07-8.45-14.8-4.69-4.54-7.78-8.88-11.78-13.04-9.54-9.94-13.55-19.4-11.96-33.72 1.63-14.7 2.1-27.61 3.8-44.19.73-7.06 13.73-18.55 18.17-22.08 15.31-12.18 29.97-25.06 45.47-37.02 5.1-3.94 10.61-9.75 16.09-13.85 3.22-2.42 6.53-4.7 9.77-7.09q12.66-9.36 18.71-23.75c.85-2.01 1.25-4.84 2.55-7.25 1.53-2.84 1.82-5.72 3.37-8.53q.23-.43.21-.92c-.22-4.17 1.42-8 1.81-11.39.53-4.66.99-9.06 1.84-13.86.6-3.38.38-6.84.91-10.17q.43-2.77.46-5.34a1.35 1.35 0 0 0-2.64-.43c-.75 2.36-1.54 4.22-3.19 6.18-4.7 5.56-9.91 10.82-13.76 16.8q-3.12 4.84-6.13 9.76c-.96 1.58-2.37 4.88-3.94 7.08-2.28 3.2-3.49 6.75-6 9.93-6.51 8.23-12.36 16.27-20.52 22.98q-4.28 3.51-13.64 8.79-7.24 4.08-19.32 11.14c-14.13 8.24-30.97 14.91-46.95 22.34-10.36 4.81-20.94 7.27-31.49 10.48-7.85 2.38-12.41 8.27-20.32 9.7a1.67 1.66 17.2 0 0-.92.48q-1.28 1.31-3.14.91a1.11 1.08 31.1 0 0-.94.22c-3.11 2.55-7.07 2.4-9.43-.75q-1.22-1.61-1.38-5.63c-.22-5.46-1.39-10.99-1.33-16.17q.34-29.98.8-59.96.06-3.89-.48-13.29c-.5-8.62.48-17.58-1.14-26.65-.97-5.39.02-13.5 4.55-17.12 8.74-7 18.31-6.12 31.07-6.67q4.32-.19 7.59.32c9.26 1.45 18.36 1.82 27.73 2.01 2.35.05 5.22.61 8.06.47 1.37-.07 2.39.79 3.6.9q12.71 1.14 25.41 2.22.5.05.84-.33c4.42-4.92 8.24-10.07 9.98-16.71q5.93-22.59 12.75-44.93c.84-2.79 1.32-5.36 1.86-8.14q.1-.5-.09-.96-1.47-3.63-3.48-6.21-9.08-11.7-18.01-23.51-1.75-2.32-3.22-4.83c-4.11-7.01-25.49-35.3-33.51-34.49-6.93.71-12.24 11.05-17.6 14.92q-7.92 5.69-14.01 7.95-10.86 4.03-13.9 5.55-6.71 3.36-9.91 4.37c-2.23.71-4.78 3.21-7.27 4.19q-12.11 4.8-21.57 13.86c-.57.55-.65 1.29-1.53 1.8-6.44 3.74-12.52 7.37-19.42 10.71-8.08 3.91-18.5 10.74-28.45 11.16a1.31 1.28 64 0 1-.9-.32c-5.61-5.02-10.74-7.4-17.17-11.05-8.93-5.05-18.45-8.74-27.4-13.93q-5.6-3.23-26.31-11.46c-1.35-.54-2.79-2.47-3.55-4.02q-2.7-5.48-6.45-10.34-.31-.42-.35-.94c-.31-4.46 2.26-6.34 3.56-9.86q5.45-14.84 10.82-29.71 1.04-2.87 3.08-6.89c4.03-7.94 7.74-15.13 14.08-23.47 4.21-5.54 13.78-11.13 19.06-13.52q18.9-8.56 37.84-17.04 1.88-.85 5.47-2.94c3.69-2.14 7.95-4 11.38-7.21 5.25-4.91 9.55-13.57 9.98-20.73q.31-5.22 1.31-15.56c.85-8.82-23.14-8.72-30.8-8.51-1.63.04-3.4-.57-4.68-.5q-11.61.61-23.11-.78c-8.79-1.06-17.65-.15-26.3-1.87-4.06-.8-7.79-1.14-11.54-2.88-12.93-6-22.86-14.58-32.06-25.92-2.07-2.56-4.6-3.81-6.86-6.02-14.85-14.53-28.91-30.05-44.42-43.84q-14.8-13.16-29.89-28.51-8.56-8.7-19.63-16.12c-3.22-2.16-22.3-17.62-14.7-22.33q7.17-4.45 14.24-9.07c9.5-6.21 20.29-14.9 31.16-21.52q9.68-5.9 17.97 1.75c9.65 8.9 18.18 18.78 27.19 28.27q4.25 4.47 8.06 9.32c4.44 5.68 8.89 9.03 16.1 8 21.72-3.1 47.1-6.68 69.36-13.68 1.47-.47 4.5-.77 6.48-1.9a.72.71 73.5 0 0 .36-.67l-.62-7.78q-.01-.12-.13-.15-.14-.04-.25-.08-.18-.07-.26-.26-5.65-13.63-14.39-25.38c-11.46-15.43-21.05-28.5-27.08-46.73q-2.43-7.34-5.22-14.54c-2.61-6.77-4.51-14.26-7.22-21.31q-2.28-5.95-2.68-16.63c-.19-4.82 2.1-3.75 5.75-4.37Z"/>
  <path fill="#fefbc8" d="M780.04 0h226.78c-4.18.33-11.73.64-14.41 4.36q-12.43 17.33-25.18 34.41c-3.11 4.17-5.53 9.32-8.71 13.83-3.1 4.39-.36 5.46 1.12 8.98q4.74 11.21 8.84 22.66c4.18 11.65 9.88 22.48 14.79 33.97a1.9 1.9 0 0 1-1.63 2.64c-6.44.42-12.54 1.36-19.04 3.25-8.55 2.49-16.68 5.47-25.92 6.76-8.25 1.15-17.09 3-24.79 5.7-16.7 5.84-34.74 8.42-51.39 4.7-13.51-3.02-15.98-19.28-18.75-30.14q-.67-2.6-2.39-6.32c-14.08-30.38-26.35-61.22-42.02-90.88C793.68 6.99 788.78.51 780.04 0Z"/>
  <path fill="#eee0b8" d="M424.45 186.87q-.46.21-1.17.14l-31.69-12.91a1.03 1.02 26.3 0 1-.5-1.46c10.05-17.23 18.52-34.01 30.47-51.13 4.8-6.87 8.43-13.22 12.06-20.21a.67.67 0 0 0-.62-.98c-24.37.94-48.99 1.1-73.17 3.29q-.69.33-.84.1 1.57-3.73 2.02-6.7.4-2.67 2.59-3.59c12.73-5.34 24.15-8.9 38.86-12.58 24.01-6.01 42.93-12.32 63.7-16.82q9.79-2.12 19.8-5.53a.62.62 0 0 1 .82.64q-.39 4.15-2.4 7.94c-3.56 6.7-7.27 13.24-10.33 20.2q-10.83 24.66-14.8 31.45c-10.88 18.62-21.81 43.22-29.02 57.24-1.17 2.28-6.62 7.65-5.78 10.91Z"/>
  <path fill="#d1c19a" d="M423.28 187.01c.97 2.31-5.14 10.25-3.86 13.77q7.28 19.92 12 40.59c1.81 7.97 4.35 15.5 6.45 23.29q.13.48-.22.83-.53.53-1.26.82-8.83 2.76-16.45 9.64c-24.62 22.26-43.96 40.14-66.04 59.41a2.4 2.4 0 0 0-.45 3.08q6.28 10.05 12.7 21.2 1.42 2.47 3.35 2.63 9.95.82 45.99 2.7c8.77.46 12.83.19 17.77 6.75q4.55 6.03 16.91 19.6.78.86 1.94 3.17-.91 1.31-3.84 3.27-12.28 8.22-25.27 15.11a2.73 2.72-13.7 0 0-1.45 2.37c-.4 32.66-1.9 63.94-2.98 99.26q-.38 12.28.81 23.03c-.93 2.94-1.77 5.32-2.31 8.6-.88 5.33-3.27 9.69-5.14 14.16-8.06 19.25-17.41 38.57-23.88 58.38-4.38 13.42-9.44 24.49-13.92 36.85q-.75 2.08 1.38 2.65c14.54 3.91 29.79 7.09 43.87 12.56 4.52 1.75 21.98-4.29 27.01-6.02 14.87-5.1 29.84-9.83 44.81-14.63 4.03-1.29 10.65-2.99 13.8-2.37q14.86 2.93 30.71 7.04 1.02.26 1.64-.59 1.96-2.68 3.38-6.42 2.49-6.54 14.28-28.04.81-1.49 3.63-5.85c2.66-4.12 4.36-8.96 6.96-12.76 4.24-6.2 6.78-11.56 14.22-15.65q2.39-.38 3.59 3.56-7.35 11.53-12.22 25.98-16.45 48.88-21.2 63.72-1.25 3.92-5.03 10.14c-25.03 16.85-49.79 34.09-74.89 50.85-17.38 11.61-34.14 24.13-51.26 36.2a1.29 1.29 0 0 0 .17 2.2c5.25 2.65 11.72 3.64 16.06 4.83 22.56 6.22 45.57 11.64 67.49 19.9 3.06 1.15 5.38.49 7.99-1.04q10.12-5.94 20.31-11.78a1.89 1.87 28.7 0 1 .84-.24l.89-.05q1.97 8.56 2.28 17.37c.11 3.32 2.47 2.84 4.79 3.23 11.17 1.89 21.86 3.53 33.28 6.26 15.78 3.78 30.83 5.12 46.34 7.15q1.44.19 4.46 1.58.62.51.91 1.21a1.04 1.03-41 0 1-.07.93q-9.56 16.1-12.43 21.65c-4.22 8.14-9.51 7.98-17.32 10.55q-52.82 17.37-105.63 34.76-5.88 1.93-10.21 4.31a.65.64 61.5 0 1-.89-.27q-.65-1.24-1.34-3.44-4.53-14.45-8.76-28.99c-3.4-11.69-11.53-18.69-20.11-26.61-21.97-20.29-45.14-39.69-65.96-60.85a1.98 1.98 0 0 0-2.29-.38q-11.75 5.86-22.81 12.54c-9.29 5.61-18.51 9.97-27.2 16.06q-.42.29-.55.78c-1.58 5.58-3.57 11.02-4.87 16.62q-2.25 9.59-4.96 19.5-.76 2.74-3.01 1.01l-27.73-21.31q-.71-.55.03-1.06c3.44-2.39 6.63-3.1 8.37-7.45a2.1 2.09 20.5 0 0-1.26-2.75c-7.48-2.57-15.06-6.09-22.87-7.77-2.25-.48-3.74-2.22-6.64-1.81a1.45 1.43 54.1 0 1-.84-.14l-4.96-2.44-9.8-6.51q-3.88-4.39-7.8-8.75c-4.91-5.45-8.95-7.78-15.47-10.43q-18.86-7.66-34.59-12.98-9.85-3.33-16.54-6.01-8.4-3.36-16.36-6.52-2.72-1.09-3.81-2.66-.3-.44-.24-.96l1.5-11.83c2.79-19.76 7.86-39.22 11.78-58.8q.9-4.52 2.98-7.04 12.17-14.74 23.93-29.79c3.42-4.39 9.72-5.24 13.77-6.8 16.2-6.24 31.99-10.01 49.08-16.78 5.68-2.25 12.52 2.88 17.34 6.08 9.87 6.54 19.55 13.47 29.51 19.72q9.98 6.28 19.73 12.68a.6.6 0 0 0 .77-.09c16.98-18.16 34.68-35.98 50.68-54.96 2.08-2.47 5.5-3.08 7.53-5.64q2.86-3.6 5.28-7.93a1.26 1.25 42.2 0 0-.07-1.34q-1.84-2.59-4.71-3.92a1.32 1.32 0 0 1-.65-1.76c2.69-5.76-1.01-7.05-2.63-11.75-2.72-7.93-3.58-17.52-4.71-23.88q-1.53-8.62-2.98-17.27c-.76-4.55-6.97-7.93-6.83-10.78.41-8.03-.78-12.73-3.02-22.22q-5.31-22.55-10.69-45.11a.76.76 0 0 0-1.1-.5q-1.55.83-3.32 1.99c-33.12 21.69-64.67 46-96.5 69.54q-1.38 1.02-5.69 3.44c-4.22 2.37-7.24 6.22-10.48 8.62q-6.8 5.04-13.56 10.17c-2.06 1.57-5.52-2.05-6.81-3.59-5.49-6.55-13.42-13.68-17.76-18.16q-25.16-25.96-50.34-51.93c-4.94-5.09-3.95-10.57 1.84-14.31 5.46-3.53 10.56-3.16 16.14-4.86q20.24-6.14 40.44-12.42c10.05-3.12 19.5-6.98 29.08-10.92q1.4-.58 3.69-.64c4.89-.14 6.63-3.34 9.85-5.42q8.18-5.3 16.47-10.59a1.2 1.2 0 0 0 .48-1.43q-7.09-19.13-12.28-38.35-1.3-4.82-3.21-7.97a1.58 1.55-4 0 0-.77-.66l-74.43-29.31a1.77 1.77 0 0 0-2.2.81c-9.07 17.14-18.78 33.89-27.85 51.02-.83 1.57-2.75 1.61-3.88.15q-2-2.58-2.69-5.54c-1.53-6.55-3.35-12.66-4.53-18.83q-2.55-13.37-6.29-26.72 4.22-8.8 10.08-17.42c18.24-19.06 32.59-41.49 48.41-62.47 12.72-16.87 19.59-36.52 29.86-55.18q.69-1.25 1.28-4.12c2.8-5.53 4.81-11.39 10.3-14.86q.44-.27.95-.22 21.33 2.17 42.36-2.12 3.8-.78 6 1.29 28.39 26.75 55.92 55.98a1.48 1.48 0 0 0 2.51-.64c4.98-18.79 12.67-36.92 17.86-55.81 1.42-5.17 4.89-13.38 5.36-20.19q1.14-16.77 1.21-41.38c.01-2.64-1.22-5.36.14-8.76 24.18-2.19 48.8-2.35 73.17-3.29a.67.67 0 0 1 .62.98c-3.63 6.99-7.26 13.34-12.06 20.21-11.95 17.12-20.42 33.9-30.47 51.13a1.03 1.02 26.3 0 0 .5 1.46l31.69 12.91Z"/>
  <path fill="#edd9a7" d="M358.99 103.71q.15.23.84-.1c-1.36 3.4-.13 6.12-.14 8.76q-.07 24.61-1.21 41.38c-.47 6.81-3.94 15.02-5.36 20.19-5.19 18.89-12.88 37.02-17.86 55.81a1.48 1.48 0 0 1-2.51.64q-27.53-29.23-55.92-55.98-2.2-2.07-6-1.29-21.03 4.29-42.36 2.12-.51-.05-.95.22c-5.49 3.47-7.5 9.33-10.3 14.86l1.53-7.85q1.82-2.8 7.56-10.66c2.56-3.52 4.15-7.03 6.83-12.19q2.17-4.16 4.81-10.88c1.32-3.35 4.43-5.62 8-7.09 17.35-7.13 35.3-11.91 52.64-18.38q27.9-10.4 56.41-19 1.34-.4 3.99-.56Z"/>
  <path fill="#eee0b8" d="m218.75 182.47-1.53 7.85q-.59 2.87-1.28 4.12c-10.27 18.66-17.14 38.31-29.86 55.18-15.82 20.98-30.17 43.41-48.41 62.47 2.66-8.94 7.41-16.87 10.65-24.94 6.12-15.19 13.19-32.35 23.13-45.43q16.89-22.24 34.11-44.2c.56-.72 1.87-1.5 2.41-2.7q.19-.42.49-.76l10.29-11.59Z"/>
  <path fill="#edd9a7" d="M423.28 187.01q.71.07 1.17-.14c19.93 9.57 40.66 17.7 60.95 26.52 5.13 2.23 9.55 3.8 11.21 9.03q6.31 19.87 11.92 39.94.16.54-.39.66c-10.32 2.2-21.97 2.31-32.67 2.96-10.32.62-22.78.38-34.17 1.04l-4.91-.71q.73-.29 1.26-.82.35-.35.22-.83c-2.1-7.79-4.64-15.32-6.45-23.29q-4.72-20.67-12-40.59c-1.28-3.52 4.83-11.46 3.86-13.77Z"/>
  <path fill="#eee0b8" d="m436.39 266.31 4.91.71q-1.39 1.1-1.07 2.23c2.34 8.43 3.28 20.52 11.88 25.14q5.87 3.16 13.64 8.11c23.3 14.82 43.42 28.83 64.57 41.42a.69.68 29 0 1 .26.89q-.88 1.81-2.76 3.03-22.75 14.78-43.44 26.71c-10.81 6.24-20.31 12.79-30.32 19.54q-.35-.05-.99.92l-.96-.52q-1.16-2.31-1.94-3.17-12.36-13.57-16.91-19.6c-4.94-6.56-9-6.29-17.77-6.75q-36.04-1.88-45.99-2.7-1.93-.16-3.35-2.63-6.42-11.15-12.7-21.2a2.4 2.4 0 0 1 .45-3.08c22.08-19.27 41.42-37.15 66.04-59.41q7.62-6.88 16.45-9.64ZM157.2 733.3l-.22-2.89q-.03-.48-.28-.9c-1.68-2.93-1.51-6.14-2.5-8.9-3.3-9.21-7.87-21.44-7.9-32.12q-.02-4.73 2.16-12.24 9.49-32.64 14.06-45.99 9.92-28.94 13.57-42.21c1.15-4.19-2.76-4.59-6.25-5.11q-23.66-3.52-46.73-9.83c-7.24-1.98-15.72-2.91-23.49-6.26-5.92-2.55-9.17-3.09-14.67-.41-5.8 2.83-9.93-4.6-13.86-8.15-6.27-5.66-4.78-13.53-4.67-20.84.06-4.21-.63-11.79-.12-17.74.85-10.09 1.39-20.39.69-30.5-.25-3.56.19-7.59.22-10.37.13-14.93.63-26.09-1.52-39.02-1.28-7.71-.43-11.17 4.11-17.08q1.19-1.55 2.3-2.26c5.91-3.82 9.83-12.31 13.7-18.15a1.6 1.59 19.2 0 1 1.46-.7c5.17.45 8.04 2.67 11.83 6.63q16.64 17.41 31.34 36.51a1.79 1.74 80.2 0 0 .77.56q6.59 2.52 12.27 6.7a1.47 1.47 0 0 0 2.33-1.08c.56-7.84-.66-14.77.86-22.74.67-3.47 2.93-9.89 5.16-12.92 3.01-4.08 6.27-12.56 2.76-17.21-4.39-5.83-9.86-10.41-13.56-16.46-3.29-5.37-9.54-9.42-13.43-14.88q-5.53-7.76-10.65-15.43a1.87 1.85-47.9 0 1-.09-1.9l10.74-19.9q3.74 13.35 6.29 26.72c1.18 6.17 3 12.28 4.53 18.83q.69 2.96 2.69 5.54c1.13 1.46 3.05 1.42 3.88-.15 9.07-17.13 18.78-33.88 27.85-51.02a1.77 1.77 0 0 1 2.2-.81l74.43 29.31a1.58 1.55-4 0 1 .77.66q1.91 3.15 3.21 7.97 5.19 19.22 12.28 38.35a1.2 1.2 0 0 1-.48 1.43q-8.29 5.29-16.47 10.59c-3.22 2.08-4.96 5.28-9.85 5.42q-2.29.06-3.69.64c-9.58 3.94-19.03 7.8-29.08 10.92q-20.2 6.28-40.44 12.42c-5.58 1.7-10.68 1.33-16.14 4.86-5.79 3.74-6.78 9.22-1.84 14.31q25.18 25.97 50.34 51.93c4.34 4.48 12.27 11.61 17.76 18.16 1.29 1.54 4.75 5.16 6.81 3.59q6.76-5.13 13.56-10.17c3.24-2.4 6.26-6.25 10.48-8.62q4.31-2.42 5.69-3.44c31.83-23.54 63.38-47.85 96.5-69.54q1.77-1.16 3.32-1.99a.76.76 0 0 1 1.1.5q5.38 22.56 10.69 45.11c2.24 9.49 3.43 14.19 3.02 22.22-.14 2.85 6.07 6.23 6.83 10.78q1.45 8.65 2.98 17.27c1.13 6.36 1.99 15.95 4.71 23.88 1.62 4.7 5.32 5.99 2.63 11.75a1.32 1.32 0 0 0 .65 1.76q2.87 1.33 4.71 3.92a1.26 1.25 42.2 0 1 .07 1.34q-2.42 4.33-5.28 7.93c-2.03 2.56-5.45 3.17-7.53 5.64-16 18.98-33.7 36.8-50.68 54.96a.6.6 0 0 1-.77.09q-9.75-6.4-19.73-12.68c-9.96-6.25-19.64-13.18-29.51-19.72-4.82-3.2-11.66-8.33-17.34-6.08-17.09 6.77-32.88 10.54-49.08 16.78-4.05 1.56-10.35 2.41-13.77 6.8q-11.76 15.05-23.93 29.79-2.08 2.52-2.98 7.04c-3.92 19.58-8.99 39.04-11.78 58.8Z"/>
  <path fill="#edd9a7" d="M426.88 523.53q-3.77 3.71-4.63 8.47-.69 3.86-2.87 5.53-1.19-10.75-.81-23.03c1.08-35.32 2.58-66.6 2.98-99.26a2.73 2.72-13.7 0 1 1.45-2.37q12.99-6.89 25.27-15.11 2.93-1.96 3.84-3.27l.96.52c2.82 7.34 7.54 6.76 14.23 4.55q32.67-10.8 65.41-21.31a1.92 1.91 68.4 0 1 2.32 1.01q15.11 32.26 29.51 65.25.86 1.97.55 5.26a1.32 1.31 72 0 1-.43.85q-6.23 5.66-13.82 9.12c-3.71 1.69-5.52 3.37-8.05 6.14q-1.4 1.53-3.27 2.27c-12.46 4.97-20.98 12.14-31.29 20.29q-4.82 3.8-10.41 1.03a2.03 2.02 23.3 0 0-2.8 1.11l-1.76 4.72a2.95 2.94-74.4 0 1-3.29 1.86c-14.82-2.74-29.52-7.58-44.3-11.04a2.99 2.99 0 0 0-3.43 1.73l-15.36 35.68Z"/>
  <path fill="#eee0b8" d="M426.88 523.53q-2.32 5.74-4.81 11.31c-1.41 3.15-1.92 6.74-3.13 10.11q-.17.46-.12.94.1 1.02-.5 2.92-2.22 6.96-1.85 12.94c.28 4.59 12.3 7.91 15.93 8.85a1.75 1.7-14.4 0 1 .82.47c1.95 1.99 3.2 4.16 5.93 5.07 3.7 1.23 7.57 1.78 10.79 3.83q7.4 4.73 13.37 11.16 2.11 2.27 4.46 3.57 13.74 7.62 27.7 14.78c7.57 3.89 11.9 3.58 19.91.02q21.32-9.48 43.83-15.81c5.44-1.53 8.38-5.75 14.46-5.76a1.31 1.3 23.9 0 0 .87-.33q2.17-1.91 5.28-2.16c-7.44 4.09-9.98 9.45-14.22 15.65-2.6 3.8-4.3 8.64-6.96 12.76q-2.82 4.36-3.63 5.85-11.79 21.5-14.28 28.04-1.42 3.74-3.38 6.42-.62.85-1.64.59-15.85-4.11-30.71-7.04c-3.15-.62-9.77 1.08-13.8 2.37-14.97 4.8-29.94 9.53-44.81 14.63-5.03 1.73-22.49 7.77-27.01 6.02-14.08-5.47-29.33-8.65-43.87-12.56q-2.13-.57-1.38-2.65c4.48-12.36 9.54-23.43 13.92-36.85 6.47-19.81 15.82-39.13 23.88-58.38 1.87-4.47 4.26-8.83 5.14-14.16.54-3.28 1.38-5.66 2.31-8.6q2.18-1.67 2.87-5.53.86-4.76 4.63-8.47Z"/>
  <path fill="#fff" d="M7.93 1024H0V639.94q1.21-31.09.2-62.19c-.03-.89.65-2.63.64-3.69q-.11-12.14-.1-24.28c0-1.31.63-1.85 1.07-2.86a1.4 1.4 0 0 1 2.68.55q.07 8.46-.1 16.89c-.18 8.91.66 18.33.64 27.55-.04 16.99-.02 29.23.93 43.84 1.06 16.15.37 32.41 1.66 48.46 1.43 17.81 2.21 34.91 1.44 53.27q-.72 17.13-.35 34.28c.34 15.52-.25 30.49-.09 45.73.17 17.13-.86 36.21-.36 51.01q.63 19.04.3 30.82c-.18 6.36 1.48 12.3.69 18.98q-.21 1.83-1.74 6.23-2.6 7.51-.4 15.41c.53 1.91 1.86 3.17 2.07 5.21 1.13 10.48.46 20.17.74 31.66q.44 17.58-.58 46.29-.02.51-.51.65l-.9.25ZM693.62 625.05c-10.2-11.41-21.47-20.86-33.92-29.84a1.31 1.31 0 0 1-.21-1.95c5.67-6.23 11.13-13.93 16.35-19.39q10.87-11.37 23.21-20.6a1.93 1.93 0 0 1 2.29-.01q9.58 6.97 18.65 15.26c3.06 2.79 8.81-.12 12.28 1.82 3.72 2.09 3.33 4.93 4.39 8.08 3.99 11.86 2.48 21.77-3.11 32.84q-3.7 7.33-7.34 14.71c-2.74 5.57-6.21 10.67-9.49 16.04a1.93 1.92 21 0 1-1.99.88c-6.48-1.2-16.69-12.88-21.11-17.84Z"/>
  <path fill="#edd9a7" d="M583.41 589c9.43 19.25 13.53 40.12 18.01 60.81q.16.75-.46 1.21-21.93 16.37-45.3 30.38-5.38 3.22-9.09 7.1-1.26-.13-1.61.34 3.78-6.22 5.03-10.14 4.75-14.84 21.2-63.72 4.87-14.45 12.22-25.98Z"/>
  <path fill="#eee0b8" d="M546.57 688.5q-6.47 18.39-12.35 36.9c-3.13 9.85-6.18 18.03-5.14 28.28q1.39 13.76 2.76 27.5.33 3.26 1.83 8.15-.72-.01-1.11.38l-.89.05a1.89 1.87 28.7 0 0-.84.24q-10.19 5.84-20.31 11.78c-2.61 1.53-4.93 2.19-7.99 1.04-21.92-8.26-44.93-13.68-67.49-19.9-4.34-1.19-10.81-2.18-16.06-4.83a1.29 1.29 0 0 1-.17-2.2c17.12-12.07 33.88-24.59 51.26-36.2 25.1-16.76 49.86-34 74.89-50.85q.35-.47 1.61-.34ZM159.75 748.75q7.96 3.16 16.36 6.52 6.69 2.68 16.54 6.01 15.73 5.32 34.59 12.98c6.52 2.65 10.56 4.98 15.47 10.43q3.92 4.36 7.8 8.75-2.95-2.39-4.08-2.6-18.62-3.39-35.84-10.98c-7.72-3.41-16.26-6.65-24.08-10.55-5.19-2.59-26.38-9.85-28.11-14.67q-.92-2.57 1.35-5.89Z"/>
  <path fill="#edd9a7" d="M625.48 822.83q-1.09.04-1.06 2.01.01.37-.35.42-.17.02-.36.04-3.02-1.39-4.46-1.58c-15.51-2.03-30.56-3.37-46.34-7.15-11.42-2.73-22.11-4.37-33.28-6.26-2.32-.39-4.68.09-4.79-3.23q-.31-8.81-2.28-17.37.39-.39 1.11-.38 3.51-1.28 6.44-3.19 26.36-17.19 48.6-29.68c15.16-8.5 34.63-8.76 51.64-6.23a1.87 1.86-85.1 0 1 1.59 1.89c-.28 10.99-1.44 23.07-.34 33.97.32 3.15.97 5.59-.67 8.61q-7.7 14.16-15.45 28.13Z"/>
  <path fill="#fff" d="M744.19 817.09c-2.99-2.54-5.69-7.34-4.33-11.33 1.72-5.05 3.31-7.88 5.62-10.64 1.96-2.35 2.53-5.77 4.29-8.11q9.3-12.41 17.3-25.68c3.23-5.38 24.14.6 29.1 2.26 6.93 2.32 11.12 11.68 13.31 18.23q2.19 6.58 5.08 12.88.91 1.99-.96 5.51-.2.38-.63.46l-6.88 1.2q-.57.09-.99-.29-1.06-.96-2.35-1.26c-9.48-2.21-15.94.85-21.81 7.81-2.02 2.39-3.97 4.23-5.67 6.99q-4.21 6.87-11.02 11.21c-5.27 3.35-9.51-1.07-13.72-3.47q-.4-.23-.71-.58l-1.04-1.15q-.36-.41-.87-.59-2.1-.76-3.11-2.68-.23-.44-.61-.77Z"/>
  <path fill="#eee0b8" d="M623.71 825.3q.19-.02.36-.04.36-.05.35-.42-.03-1.97 1.06-2.01-.85.92-.4 2.16.17.48.65.68 3.78 1.6 8.59 2.48 16.3 3 32.59 6.04.87.16 1.43.36a.81.81 0 0 1 .17 1.44c-4.32 2.83-8.59 5.51-12.77 8.63q-21.3 15.91-44.7 30.38a.69.69 0 0 0 .21 1.26c9.68 2.14 19.78 2.7 29.63 3.78 12.56 1.37 27.61 2.24 41.37 3.94q5.66.7 25.25 1.25 2.04.06 3.87 1.46.39.29.03.62-3.25 3-5.45 4.16-22.64 11.87-43.63 26.45c-6.48 4.51-20.97 15.32-27.56 14.95q-20.23-1.12-41.76-4.63c-4.69-.76-10.11-1.06-14.46 1.48-10.67 6.22-19.94 12.76-28.66 22.09q-10.45 11.2-20.62 22.5a2.18 2.17-55.9 0 1-2.57.5q-10.63-5.15-21.27-11.06c-10.93-6.06-21.68-12.4-33.22-17.65-7.17-3.26-14.99-6.53-21.2-11.42-5.9-4.64-10.5-13.06-14.15-19.73q-3.45-6.31-8.89-14.38c-1.88-2.79-3-3.85-6.61-3.22q-28.49 5-56.59 11.66c-4.56 1.08-10.18 1.92-15.4 2.14-17.83.74-35.19.2-53.36 2.86-8.2 1.2-16.28-12.77-20.55-18.19q-13.78-17.48-27.64-34.91-3.54-4.45-7.16-8.21-1.39-1.44.46-2.2c7.19-2.97 12.28-6.07 19.68-11.11q12.37-8.43 26.11-15.49a.74.74 0 0 0 .14-1.23l-26.73-22.72 4.96 2.44a1.45 1.43 54.1 0 0 .84.14c2.9-.41 4.39 1.33 6.64 1.81 7.81 1.68 15.39 5.2 22.87 7.77a2.1 2.09 20.5 0 1 1.26 2.75c-1.74 4.35-4.93 5.06-8.37 7.45q-.74.51-.03 1.06l27.73 21.31q2.25 1.73 3.01-1.01 2.71-9.91 4.96-19.5c1.3-5.6 3.29-11.04 4.87-16.62q.13-.49.55-.78c8.69-6.09 17.91-10.45 27.2-16.06q11.06-6.68 22.81-12.54a1.98 1.98 0 0 1 2.29.38c20.82 21.16 43.99 40.56 65.96 60.85 8.58 7.92 16.71 14.92 20.11 26.61q4.23 14.54 8.76 28.99.69 2.2 1.34 3.44a.65.64 61.5 0 0 .89.27q4.33-2.38 10.21-4.31 52.81-17.39 105.63-34.76c7.81-2.57 13.1-2.41 17.32-10.55q2.87-5.55 12.43-21.65a1.04 1.03-41 0 0 .07-.93q-.29-.7-.91-1.21Z"/>
  <path fill="#edd9a7" d="M1015.14 988.36q6.32 7.79 8.86 17.42V1024H878.69l-1.06-.27q-.51-.13-.45-.65 1.75-14.27 4.58-28.32c1.58-7.86 7.33-13.57 14.06-20.98 5.75-6.63 10.99-13.78 16.79-20.21q5.32-5.9 10.38-12.01c8.02-9.7 18.34-20.88 26.46-32.21a.79.78 40.6 0 1 1.19-.09c11.47 11.53 20.91 23.82 30.41 36.97 7.32 10.12 15.56 18.91 23.57 28.25 3.58 4.17 6.85 9.33 10.52 13.88Z"/>
  <path fill="#fefbc8" d="M1024 984.09v21.69q-2.54-9.63-8.86-17.42l-.88-2.5q-.21-.63.37-.32 1.49.8 2.39.68 2.51-.35 6.98-2.13Z"/>
  <path fill="#fff" d="M354.94 1024H258.2l-1.46-.3q-.61-.12-.37-.71c4.24-10.31 8.79-21.14 21.01-23.49a2.65 2.65 0 0 1 2.86 1.37l2.37 4.49q.25.46.75.62c12.48 3.94 25.2 8.81 37.81 11.15q17.79 3.3 35.78 5a.59.58-62.3 0 1 .32 1.03q-.73.61-2.33.84Z"/>
  <path fill="#fefbc8" d="M284.21 1024h-8.3 8.3Z"/>
</svg>
