<svg id="root" xmlns="http://www.w3.org/2000/svg" xmlns:xlink="http://www.w3.org/1999/xlink" viewBox="0 0 1006.08 1007.04">
  <defs>
    <path id="a" d="M12.344-3.828H5.53l-1.015 2.11c-.137.292-.204.527-.204.702 0 .325.243.543.735.657V0H.078v-.36c.29-.05.516-.148.672-.296.156-.145.332-.43.531-.86l5.516-11.53c.164-.364.25-.657.25-.876 0-.332-.211-.57-.625-.719V-15h5.312v.36c-.437.124-.656.34-.656.64 0 .219.07.465.219.734L17-1.719c.25.492.46.828.64 1.016.188.18.43.293.735.344V0h-5.516v-.36c.489-.07.735-.296.735-.671 0-.157-.074-.383-.219-.688Zm-.953-2.047-2.422-5.344L6.5-5.875Zm0 0"/>
    <path id="b" d="M14.703-7.86c1.688.637 2.531 1.82 2.531 3.548 0 1.367-.492 2.437-1.468 3.218-.5.387-1.079.668-1.735.844-.656.168-1.465.25-2.422.25H1.344v-.36c.27-.07.453-.163.547-.28.101-.114.156-.286.156-.516v-12.688c0-.226-.055-.398-.156-.515-.094-.114-.278-.207-.547-.282V-15H11.5c.977 0 1.766.074 2.36.219a3.97 3.97 0 0 1 1.546.75c.895.699 1.344 1.703 1.344 3.015 0 1.461-.684 2.512-2.047 3.157ZM5.328-9.03h5.75c.863 0 1.469-.13 1.813-.39.394-.29.593-.743.593-1.36 0-.625-.187-1.07-.562-1.344-.367-.27-.98-.406-1.844-.406h-5.75Zm0 6.562h5.563c1.03 0 1.773-.144 2.234-.437.508-.32.766-.86.766-1.61 0-.738-.258-1.273-.766-1.609-.45-.29-1.195-.438-2.234-.438H5.328Zm0 0"/>
    <path id="c" d="M5.328-6.094v4.953c0 .22.05.391.156.516.102.117.286.203.547.266V0H1.344v-.36c.27-.07.453-.163.547-.28.101-.114.156-.282.156-.5v-12.704c0-.226-.055-.398-.156-.515-.094-.114-.278-.207-.547-.282V-15h9.375c1.082 0 1.941.074 2.578.219.644.148 1.21.402 1.703.765.508.375.906.868 1.188 1.47.289.624.437 1.292.437 2 0 1.01-.273 1.898-.813 2.655A3.75 3.75 0 0 1 13.938-6.5c-.774.273-1.844.406-3.22.406Zm0-2.468h5c1 0 1.695-.102 2.094-.313.258-.133.469-.352.625-.656.156-.313.234-.649.234-1.016 0-.351-.078-.68-.234-.984-.156-.313-.367-.535-.625-.672-.399-.219-1.094-.328-2.094-.328h-5Zm0 0"/>
    <path id="d" d="M10.406-3.078H4.75l-.64 1.344c-.157.324-.235.574-.235.75 0 .355.234.578.703.671V0H.062v-.313c.27-.039.473-.124.61-.25.133-.125.297-.367.484-.734l4.485-9.094c.175-.343.265-.644.265-.906 0-.3-.21-.535-.625-.703v-.313h4.782V-12c-.407.168-.61.418-.61.75 0 .242.094.54.281.89l4.657 8.829c.257.48.46.793.609.937.145.137.367.235.672.297V0H10.64v-.297c.476-.082.718-.305.718-.672 0-.226-.093-.508-.28-.844Zm-.89-1.719L7.5-8.75 5.594-4.797Zm0 0"/>
    <path id="e" d="M12.375-6.61c.613.274 1.063.548 1.344.829.539.531.812 1.246.812 2.14 0 1.2-.46 2.121-1.375 2.766-.804.586-1.914.875-3.328.875h-8.75v-.313c.258-.062.442-.156.547-.28.102-.126.156-.302.156-.532v-10.063c0-.226-.054-.398-.156-.515-.105-.113-.29-.211-.547-.297v-.313h8.61c1.507 0 2.617.278 3.328.829.738.562 1.109 1.343 1.109 2.343 0 .586-.133 1.063-.39 1.438-.262.375-.715.742-1.36 1.094ZM4.719-7.686h4.484c.695 0 1.192-.086 1.485-.266.289-.188.437-.5.437-.938 0-.425-.148-.726-.438-.906-.28-.187-.777-.281-1.484-.281H4.72Zm0 5.453h4.593c1.477 0 2.22-.536 2.22-1.61 0-1.07-.743-1.61-2.22-1.61H4.72Zm0 0"/>
    <path id="f" d="M2.047-1.156v-12.688c0-.226-.055-.398-.156-.515-.094-.114-.278-.207-.547-.282V-15h8.375c1.82 0 3.226.21 4.219.625 1.406.617 2.44 1.621 3.109 3.016.539 1.093.812 2.382.812 3.859 0 2.586-.797 4.555-2.39 5.906a6.032 6.032 0 0 1-2.344 1.235C12.227-.117 11.094 0 9.719 0H1.344v-.36c.27-.07.453-.163.547-.28.101-.114.156-.286.156-.516ZM5.328-2.47h4.11c1.312 0 2.296-.18 2.953-.547 1.414-.757 2.125-2.254 2.125-4.484 0-1.613-.383-2.848-1.141-3.703a3.56 3.56 0 0 0-1.547-1.016c-.594-.207-1.39-.312-2.39-.312h-4.11Zm0 0"/>
    <path id="g" d="M4.844-9.578v-3.985h.36c.07.274.144.45.218.532.07.074.187.11.344.11.07 0 .175-.017.312-.048l.938-.234v-.656c0-.22-.055-.383-.157-.5-.093-.114-.277-.207-.546-.282V-15h4.593v.36c-.273.074-.46.167-.562.28-.094.118-.14.282-.14.5v12.704c0 .23.046.402.14.515.101.118.289.211.562.282V0H6.312v-.36c.27-.07.454-.163.547-.28.102-.114.157-.286.157-.516v-9.485l-1.032.25c-.242.055-.414.137-.515.25-.106.118-.196.305-.266.563Zm0 0"/>
    <path id="h" d="M4.828-2.703H14c.227 0 .398-.05.516-.156.113-.102.207-.286.28-.547h.36v4.11h-.36c-.073-.263-.167-.446-.28-.548C14.398.051 14.226 0 14 0H2.312c-.367 0-.617.04-.75.125-.136.094-.234.285-.296.578h-.36V0c0-.938.102-1.707.313-2.313.437-1.226 1.242-2.273 2.422-3.14.601-.438 1.593-.969 2.968-1.594l1.86-.86c.875-.394 1.504-.804 1.89-1.234.383-.425.579-.937.579-1.53 0-.665-.231-1.173-.688-1.517-.46-.351-1.125-.53-2-.53a5.916 5.916 0 0 0-2.969.78c-.886.5-1.328 1.016-1.328 1.547 0 .125.055.356.172.688l-.234.25-2.922-3.14.265-.25c.27.136.473.202.61.202.113 0 .21-.023.297-.078.093-.05.273-.195.546-.437 1.614-1.406 3.602-2.11 5.97-2.11 1.695 0 3.054.422 4.077 1.266 1.032.844 1.547 1.977 1.547 3.39 0 1.387-.496 2.54-1.484 3.454-.649.593-1.524 1.136-2.625 1.625l-1.688.75c-.18.093-.578.261-1.203.5-.761.312-1.297.57-1.61.765-.304.188-.585.461-.843.813Zm0 0"/>
    <path id="i" d="m15.89-5.156 2.079 3.14-.282.188c-.21-.188-.375-.281-.5-.281-.136 0-.507.18-1.109.53-1.262.72-2.324 1.212-3.187 1.47-.856.25-1.875.375-3.063.375C7.453.266 5.508-.297 4-1.422a6.87 6.87 0 0 1-2.11-2.422C1.298-4.945 1-6.164 1-7.5c0-1.82.531-3.398 1.594-4.734 1.594-2.02 4.004-3.032 7.234-3.032 1.188 0 2.203.125 3.047.375.852.25 1.922.743 3.203 1.47.602.355.973.53 1.11.53.125 0 .289-.097.5-.296l.28.203-2.077 3.125-.297-.188c.008-.125.015-.223.015-.297 0-.219-.093-.422-.28-.61-.18-.187-.5-.41-.97-.671a8.295 8.295 0 0 0-4.125-1.094c-1.71 0-3.074.43-4.093 1.281-1.2 1-1.797 2.313-1.797 3.938 0 1.617.597 2.922 1.797 3.922 1.02.867 2.382 1.297 4.093 1.297a8.152 8.152 0 0 0 4.125-1.11c.47-.257.79-.484.97-.671.187-.188.28-.383.28-.594 0-.082-.007-.176-.015-.282Zm0 0"/>
    <path id="j" d="M9.234-12.531v11.375c0 .23.047.402.141.515.102.118.29.211.563.282V0H5.25v-.36c.258-.07.441-.163.547-.28.101-.114.156-.286.156-.516v-11.375H1.297c-.219 0-.39.054-.516.156-.117.094-.21.277-.281.547H.156v-3.875H.5c.082.273.18.46.297.562.113.094.281.141.5.141h12.578c.227 0 .398-.047.516-.14.113-.102.207-.29.28-.563h.36v3.875h-.36c-.073-.27-.167-.453-.28-.547-.118-.102-.29-.156-.516-.156Zm0 0"/>
    <path id="k" d="M3.547-7.031v-2.922h.265c.063.2.118.328.172.39.051.063.133.094.25.094a.93.93 0 0 0 .22-.031l.687-.188v-.468c0-.164-.04-.29-.11-.375-.074-.082-.21-.149-.406-.203V-11H8v.266c-.2.054-.336.12-.406.203-.074.086-.11.21-.11.375v9.312c0 .168.036.293.11.375.07.086.207.153.406.203V0H4.625v-.266c.195-.05.332-.117.406-.203.07-.082.11-.207.11-.375v-6.968l-.75.187c-.18.043-.309.105-.391.188-.074.085-.137.218-.188.406Zm0 0"/>
    <path id="l" d="M3.531-1.984h6.735c.164 0 .289-.036.375-.11.082-.07.156-.207.218-.406h.25V.516h-.25c-.062-.2-.136-.336-.218-.407C10.555.035 10.43 0 10.266 0H1.703c-.273 0-.46.031-.562.094C1.047.156.973.297.92.516h-.25A14.557 14.557 0 0 1 .657 0c0-.688.078-1.254.235-1.703.32-.895.914-1.66 1.78-2.297.438-.32 1.161-.71 2.173-1.172l1.375-.625c.633-.289 1.093-.594 1.375-.906.281-.313.422-.688.422-1.125 0-.488-.168-.86-.5-1.11-.336-.257-.825-.39-1.47-.39-.78 0-1.507.195-2.171.578-.648.367-.969.742-.969 1.125 0 .094.04.266.125.516l-.172.187L.703-9.234l.203-.188c.196.106.348.156.453.156.082 0 .157-.02.22-.062.062-.04.19-.149.39-.328 1.187-1.02 2.644-1.531 4.375-1.531 1.25 0 2.25.308 3 .921.75.618 1.125 1.446 1.125 2.485 0 1.023-.36 1.867-1.078 2.531-.48.438-1.125.836-1.938 1.188L6.22-3.5c-.125.063-.418.184-.875.36-.563.23-.961.417-1.188.562-.218.137-.43.336-.625.594Zm0 0"/>
    <path id="m" d="M9.266-5.766c1.226.461 1.843 1.274 1.843 2.438 0 1.187-.527 2.09-1.578 2.703-.918.543-2.07.813-3.453.813-1.46 0-2.789-.286-3.984-.86-.5-.238-.824-.36-.969-.36-.137 0-.32.102-.547.298L.344-.86 1.64-3.83l.234.11a.487.487 0 0 0-.031.172c0 .281.144.547.437.797.383.313.93.57 1.64.766.708.199 1.415.296 2.126.296.676 0 1.258-.109 1.75-.328.601-.28.906-.718.906-1.312 0-.508-.219-.895-.656-1.156-.43-.27-1.07-.407-1.922-.407-.512 0-.867.04-1.063.11-.199.074-.324.226-.375.453h-.25v-2.703h.25c.063.242.18.398.36.468.176.075.52.11 1.031.11.79 0 1.399-.14 1.828-.422.364-.238.547-.578.547-1.016 0-.457-.21-.812-.625-1.062-.406-.25-.996-.375-1.766-.375-1.085 0-2.039.242-2.859.719-.398.242-.594.492-.594.75 0 .105.036.226.11.359l-.203.156-1.86-2.281.203-.156c.196.094.348.14.454.14.101 0 .242-.062.421-.187 1.352-.906 2.864-1.36 4.532-1.36 1.156 0 2.129.231 2.921.688.458.262.817.602 1.079 1.016.257.437.39.921.39 1.453 0 .969-.465 1.726-1.39 2.265Zm0 0"/>
    <path id="n" d="M7.594-1.86H1.812c-.312 0-.523.032-.625.094-.093.063-.167.211-.218.438h-.25v-2.344l5.468-6.14c.239-.27.36-.461.36-.579 0-.187-.14-.3-.422-.343V-11h4.313v.266c-.188.054-.325.12-.407.203-.074.086-.11.21-.11.375v6.484h.61c.164 0 .29-.035.375-.11.082-.07.156-.202.219-.39h.25v2.844h-.25c-.063-.195-.137-.332-.219-.406-.086-.082-.21-.125-.375-.125h-.61v1.015c0 .168.036.293.11.375.082.086.219.153.406.203V0H7.079v-.266c.195-.05.332-.117.406-.203.07-.082.11-.207.11-.375Zm0-1.812v-4.812L3.359-3.672Zm0 0"/>
    <path id="o" d="m.453-1.313 1.953-2.562.203.14a1.33 1.33 0 0 0-.062.36c0 .273.219.547.656.828.906.574 1.899.86 2.985.86.812 0 1.453-.165 1.921-.5.5-.376.75-.883.75-1.532 0-.594-.246-1.066-.734-1.422-.48-.351-1.133-.53-1.953-.53-.594 0-1.164.1-1.703.296-.532.188-.797.39-.797.61 0 .074.035.183.11.327l-.188.172L.75-7.125l.172-.188h.11c.257 0 .39-.16.39-.484v-2.328c0-.176-.043-.313-.125-.406-.074-.094-.203-.16-.39-.203V-11h8.718c.164 0 .29-.035.375-.11.082-.07.148-.206.203-.406h.266v2.907h-.266c-.055-.196-.121-.332-.203-.407-.086-.07-.21-.109-.375-.109H3.344v2.375c.883-.438 1.91-.656 3.078-.656 1.531 0 2.734.355 3.61 1.062.812.668 1.218 1.543 1.218 2.625 0 .824-.246 1.563-.734 2.219C9.68-.375 8.258.188 6.25.188 4.945.188 3.828-.04 2.89-.5c-.242-.113-.62-.32-1.14-.625-.219-.133-.422-.203-.61-.203-.105 0-.261.062-.468.187Zm0 0"/>
    <path id="p" d="M11.172-10.36 9.75-7.718l-.234-.125a1.47 1.47 0 0 0 .046-.312c0-.207-.171-.422-.515-.64-.293-.188-.664-.333-1.11-.438a5.17 5.17 0 0 0-1.296-.172c-.887 0-1.649.234-2.282.703a2.755 2.755 0 0 0-.921 1.11c-.2.429-.325.991-.376 1.687.54-.477 1.086-.82 1.641-1.032.563-.218 1.203-.328 1.922-.328 1.176 0 2.18.282 3.016.844.468.305.836.711 1.109 1.219.258.492.39 1.027.39 1.61 0 1.148-.48 2.07-1.437 2.765-.93.68-2.117 1.015-3.562 1.015-1.563 0-2.782-.39-3.657-1.171-.574-.508-1.007-1.172-1.296-1.985A7.182 7.182 0 0 1 .78-5.39c0-1.707.524-3.093 1.578-4.156 1.094-1.094 2.516-1.64 4.266-1.64a7.39 7.39 0 0 1 1.656.171c.5.106 1.07.305 1.719.594.227.106.406.156.531.156.094 0 .18-.035.266-.109.07-.063.125-.102.156-.125ZM6.203-5.437c-.824 0-1.492.204-2 .61-.437.336-.656.766-.656 1.297 0 .531.219.969.656 1.312.508.399 1.18.594 2.016.594.82 0 1.488-.195 2-.594.437-.344.656-.77.656-1.281 0-.54-.219-.984-.656-1.328-.5-.395-1.172-.598-2.016-.61Zm0 0"/>
    <path id="q" d="M8.39-9.188H1.532a.636.636 0 0 0-.39.11c-.086.074-.153.21-.204.406h-.25v-2.844h.25c.051.2.118.336.204.407.093.074.222.109.39.109h8.703c.164 0 .29-.035.375-.11.082-.07.149-.206.204-.406h.265v2.094L6.125-1.266c-.188.313-.281.516-.281.61 0 .168.148.297.453.39V0H2.359v-.266c.227-.062.414-.16.563-.296.156-.145.336-.38.547-.704Zm0 0"/>
    <path id="r" d="M8.703-5.875c1.645.418 2.469 1.277 2.469 2.578 0 .875-.352 1.64-1.047 2.297C9.281-.207 7.867.188 5.891.188c-1.344 0-2.461-.192-3.344-.579a3.516 3.516 0 0 1-1.39-1.171 2.999 2.999 0 0 1-.548-1.72c0-1.312.817-2.175 2.454-2.593-1.325-.52-1.985-1.305-1.985-2.36 0-.738.3-1.367.906-1.89.813-.707 2.11-1.063 3.891-1.063 1.25 0 2.29.188 3.125.563.488.219.895.54 1.219.953.312.406.469.887.469 1.438 0 1.054-.665 1.84-1.985 2.359ZM5.86-9.469c-.75 0-1.351.121-1.796.36-.438.242-.657.562-.657.968 0 .407.219.73.656.97.446.241 1.051.359 1.813.359.77 0 1.379-.118 1.828-.36.445-.238.672-.555.672-.953 0-.414-.219-.742-.656-.984-.438-.239-1.059-.36-1.86-.36Zm0 4.485c-.918 0-1.648.18-2.187.53-.406.274-.61.65-.61 1.126 0 .512.25.914.75 1.203.508.293 1.196.438 2.063.438.945 0 1.688-.176 2.219-.532.406-.27.61-.633.61-1.094 0-.519-.25-.925-.75-1.218-.493-.29-1.188-.442-2.095-.453Zm0 0"/>
    <path id="s" d="M.61-.64 2.03-3.267l.219.11a1.541 1.541 0 0 0-.047.312c0 .219.172.434.516.64.289.18.66.325 1.11.438.444.118.874.172 1.28.172.907 0 1.672-.226 2.297-.687.414-.313.723-.68.922-1.11.207-.437.332-1.004.375-1.703-.543.492-1.09.84-1.64 1.047-.555.211-1.2.313-1.938.313-1.156 0-2.152-.274-2.984-.829a3.26 3.26 0 0 1-1.125-1.234A3.446 3.446 0 0 1 .64-7.39c0-1.164.476-2.093 1.437-2.78.938-.677 2.117-1.017 3.547-1.017 1.55 0 2.77.391 3.656 1.172.582.524 1.02 1.184 1.313 1.985.27.773.406 1.578.406 2.422 0 1.718-.531 3.105-1.594 4.156C8.312-.36 6.891.187 5.141.187A7.27 7.27 0 0 1 3.5.016c-.492-.102-1.07-.301-1.734-.594-.22-.094-.391-.14-.516-.14a.504.504 0 0 0-.281.093.997.997 0 0 1-.14.125Zm4.952-8.735c-.824 0-1.496.2-2.015.594-.43.336-.64.773-.64 1.312 0 .532.21.965.64 1.297.508.406 1.18.61 2.015.61.833 0 1.504-.204 2.016-.61.426-.332.64-.758.64-1.281 0-.54-.214-.984-.64-1.328-.5-.395-1.172-.594-2.016-.594Zm0 0"/>
  </defs>
  <path fill="#CCC" d="M1005.625 503c0 8.227-.203 16.445-.605 24.664a498.27 498.27 0 0 1-1.817 24.602 500.323 500.323 0 0 1-3.02 24.484 507.205 507.205 0 0 1-4.214 24.309 501.388 501.388 0 0 1-11.988 47.844 496.292 496.292 0 0 1-7.739 23.425 500.433 500.433 0 0 1-8.879 23.02 499.949 499.949 0 0 1-9.996 22.55 505.067 505.067 0 0 1-11.09 22.04 508.826 508.826 0 0 1-12.16 21.464c-4.23 7.055-8.629 14-13.199 20.84a502.131 502.131 0 0 1-14.207 20.172 502.3 502.3 0 0 1-31.29 38.129 506.52 506.52 0 0 1-17.01 17.867 506.52 506.52 0 0 1-17.868 17.012 502.3 502.3 0 0 1-38.129 31.29 502.131 502.131 0 0 1-20.172 14.206 504.578 504.578 0 0 1-20.84 13.2 508.826 508.826 0 0 1-21.465 12.16 505.067 505.067 0 0 1-22.039 11.09 499.949 499.949 0 0 1-22.55 9.995 500.433 500.433 0 0 1-23.02 8.88 496.292 496.292 0 0 1-23.426 7.737 501.388 501.388 0 0 1-72.152 16.204 500.323 500.323 0 0 1-24.484 3.02 498.27 498.27 0 0 1-24.602 1.816c-8.219.402-16.437.605-24.664.605s-16.445-.203-24.664-.605a498.27 498.27 0 0 1-24.602-1.817 500.323 500.323 0 0 1-24.484-3.02 507.205 507.205 0 0 1-24.309-4.214 502.835 502.835 0 0 1-94.29-28.605 499.949 499.949 0 0 1-22.55-9.997 505.067 505.067 0 0 1-22.038-11.09 508.826 508.826 0 0 1-21.465-12.16c-7.055-4.23-14-8.629-20.84-13.199a502.13 502.13 0 0 1-20.172-14.207 502.299 502.299 0 0 1-38.129-31.29 506.52 506.52 0 0 1-17.867-17.01 506.521 506.521 0 0 1-17.012-17.868 502.298 502.298 0 0 1-31.29-38.129 502.13 502.13 0 0 1-14.206-20.172 504.577 504.577 0 0 1-13.2-20.84 508.826 508.826 0 0 1-12.16-21.465 505.067 505.067 0 0 1-11.09-22.039 499.949 499.949 0 0 1-9.995-22.55 500.432 500.432 0 0 1-8.88-23.02 496.29 496.29 0 0 1-7.737-23.426A501.388 501.388 0 0 1 5.816 576.75a500.324 500.324 0 0 1-3.02-24.484A498.271 498.271 0 0 1 .98 527.664 504.267 504.267 0 0 1 .375 503c0-8.227.203-16.445.605-24.664a498.271 498.271 0 0 1 1.817-24.602 500.324 500.324 0 0 1 3.02-24.484 507.207 507.207 0 0 1 4.214-24.309 502.509 502.509 0 0 1 19.727-71.27 500.432 500.432 0 0 1 8.879-23.019 499.949 499.949 0 0 1 9.996-22.55 505.067 505.067 0 0 1 11.09-22.04 508.826 508.826 0 0 1 12.16-21.464c4.23-7.055 8.629-14 13.199-20.84a502.13 502.13 0 0 1 14.207-20.172 502.298 502.298 0 0 1 31.29-38.129 506.521 506.521 0 0 1 17.01-17.867 506.521 506.521 0 0 1 17.868-17.012 502.298 502.298 0 0 1 38.129-31.29 502.13 502.13 0 0 1 20.172-14.206 504.577 504.577 0 0 1 20.84-13.2 508.826 508.826 0 0 1 21.464-12.16 505.067 505.067 0 0 1 22.04-11.09 499.949 499.949 0 0 1 22.55-9.995 500.432 500.432 0 0 1 23.02-8.88 502.835 502.835 0 0 1 71.27-19.727 507.207 507.207 0 0 1 24.308-4.214 500.324 500.324 0 0 1 24.484-3.02A498.271 498.271 0 0 1 478.336.98 504.267 504.267 0 0 1 503 .375c8.227 0 16.445.203 24.664.605a498.271 498.271 0 0 1 24.602 1.817 500.324 500.324 0 0 1 24.484 3.02 507.207 507.207 0 0 1 24.309 4.214 502.508 502.508 0 0 1 71.27 19.727 500.432 500.432 0 0 1 23.019 8.879 499.949 499.949 0 0 1 22.55 9.996 505.067 505.067 0 0 1 22.04 11.09 508.826 508.826 0 0 1 21.464 12.16c7.055 4.23 14 8.629 20.84 13.199a502.13 502.13 0 0 1 20.172 14.207 502.298 502.298 0 0 1 38.129 31.29 506.521 506.521 0 0 1 17.867 17.01 506.52 506.52 0 0 1 17.012 17.868 502.299 502.299 0 0 1 31.29 38.129 502.13 502.13 0 0 1 14.206 20.172 504.578 504.578 0 0 1 13.2 20.84 508.826 508.826 0 0 1 12.16 21.464 505.067 505.067 0 0 1 11.09 22.04 499.949 499.949 0 0 1 9.995 22.55 500.433 500.433 0 0 1 8.88 23.02 502.835 502.835 0 0 1 19.727 71.27 507.205 507.205 0 0 1 4.214 24.308 500.323 500.323 0 0 1 3.02 24.484 498.27 498.27 0 0 1 1.816 24.602c.402 8.219.605 16.437.605 24.664Zm0 0"/>
  <path fill="#1B2C43" d="M765.566 495.5c0 4.418-.109 8.836-.328 13.25-.215 4.414-.539 8.82-.972 13.219a270.504 270.504 0 0 1-3.891 26.215 265.352 265.352 0 0 1-2.902 12.933 272.33 272.33 0 0 1-3.535 12.778 272.553 272.553 0 0 1-4.16 12.585 269.144 269.144 0 0 1-10.141 24.485 268.016 268.016 0 0 1-12.496 23.375 268.733 268.733 0 0 1-14.723 22.035 269.818 269.818 0 0 1-56.043 56.043 268.733 268.733 0 0 1-22.035 14.723 268.016 268.016 0 0 1-23.375 12.496 269.144 269.144 0 0 1-24.484 10.14 272.553 272.553 0 0 1-12.586 4.16 270.012 270.012 0 0 1-38.77 8.703 270.504 270.504 0 0 1-13.156 1.626c-4.399.433-8.805.757-13.219.972a267.693 267.693 0 0 1-26.504 0c-4.414-.215-8.82-.539-13.219-.972a270.504 270.504 0 0 1-26.214-3.891 265.352 265.352 0 0 1-12.934-2.902 272.33 272.33 0 0 1-12.777-3.535 272.553 272.553 0 0 1-12.586-4.16 269.144 269.144 0 0 1-24.485-10.141 268.016 268.016 0 0 1-23.375-12.496 268.733 268.733 0 0 1-22.035-14.723 269.818 269.818 0 0 1-56.043-56.043 268.733 268.733 0 0 1-14.723-22.035 268.016 268.016 0 0 1-12.496-23.375 269.144 269.144 0 0 1-10.14-24.484 272.553 272.553 0 0 1-4.16-12.586 270.012 270.012 0 0 1-8.703-38.77 270.504 270.504 0 0 1-1.626-13.156 267.065 267.065 0 0 1-.972-13.219 267.693 267.693 0 0 1 0-26.504c.215-4.414.539-8.82.972-13.219a270.504 270.504 0 0 1 3.891-26.214 270.012 270.012 0 0 1 6.438-25.711 272.553 272.553 0 0 1 4.16-12.586 269.144 269.144 0 0 1 10.14-24.485 268.016 268.016 0 0 1 12.496-23.375 268.733 268.733 0 0 1 14.723-22.035 269.818 269.818 0 0 1 56.043-56.043 268.733 268.733 0 0 1 22.035-14.723 268.016 268.016 0 0 1 23.375-12.496 269.144 269.144 0 0 1 24.484-10.14 272.553 272.553 0 0 1 12.587-4.16 270.012 270.012 0 0 1 38.77-8.703 270.504 270.504 0 0 1 13.155-1.626c4.399-.433 8.805-.757 13.22-.972a267.732 267.732 0 0 1 26.503 0c4.414.215 8.82.539 13.219.972a270.504 270.504 0 0 1 26.215 3.891 270.012 270.012 0 0 1 25.71 6.438 272.553 272.553 0 0 1 12.586 4.16 269.144 269.144 0 0 1 24.485 10.14 268.016 268.016 0 0 1 23.375 12.496 268.733 268.733 0 0 1 22.035 14.723 269.818 269.818 0 0 1 56.043 56.043 268.733 268.733 0 0 1 14.723 22.035 268.016 268.016 0 0 1 12.496 23.375 269.144 269.144 0 0 1 10.14 24.484 272.553 272.553 0 0 1 4.16 12.587 270.012 270.012 0 0 1 8.703 38.77 270.504 270.504 0 0 1 1.626 13.155c.433 4.399.757 8.805.972 13.22.219 4.413.328 8.831.328 13.253Zm0 0"/>
  <path fill="#E2CC87" d="M743.059 495.5a246.92 246.92 0 0 1-2.68 36.324 243.195 243.195 0 0 1-2.078 11.969 246.262 246.262 0 0 1-5.903 23.57 248.915 248.915 0 0 1-3.808 11.535 248.593 248.593 0 0 1-14.762 33.301 245.656 245.656 0 0 1-12.492 20.836 244.106 244.106 0 0 1-6.996 9.934 245.199 245.199 0 0 1-15.41 18.781 247.605 247.605 0 0 1-26.38 25.117 245.199 245.199 0 0 1-9.581 7.473 244.106 244.106 0 0 1-9.934 6.996 245.656 245.656 0 0 1-20.836 12.492 245.045 245.045 0 0 1-10.855 5.461 248.593 248.593 0 0 1-22.445 9.3 248.915 248.915 0 0 1-23.247 7.052 251.081 251.081 0 0 1-11.859 2.664 247.884 247.884 0 0 1-24.031 3.562 246.294 246.294 0 0 1-24.262 1.192 246.96 246.96 0 0 1-36.328-2.68 243.195 243.195 0 0 1-11.969-2.078 246.262 246.262 0 0 1-23.566-5.903 247.534 247.534 0 0 1-11.54-3.808 248.593 248.593 0 0 1-33.3-14.762 245.656 245.656 0 0 1-20.836-12.492 244.106 244.106 0 0 1-9.934-6.996 245.199 245.199 0 0 1-18.78-15.41 247.605 247.605 0 0 1-25.118-26.38 245.199 245.199 0 0 1-7.473-9.581 248.124 248.124 0 0 1-7-9.934 249.682 249.682 0 0 1-6.5-10.265c-2.082-3.473-4.078-7-5.988-10.57a245.045 245.045 0 0 1-5.461-10.856 248.593 248.593 0 0 1-9.3-22.445 248.915 248.915 0 0 1-7.052-23.247 246.262 246.262 0 0 1-2.66-11.859 243.195 243.195 0 0 1-2.078-11.969 249.743 249.743 0 0 1-1.488-12.062 246.294 246.294 0 0 1-1.191-24.262 246.96 246.96 0 0 1 2.68-36.328 243.195 243.195 0 0 1 2.077-11.969 246.262 246.262 0 0 1 5.903-23.566 247.534 247.534 0 0 1 3.808-11.54 248.593 248.593 0 0 1 14.762-33.3c1.91-3.57 3.906-7.098 5.988-10.57a249.682 249.682 0 0 1 6.5-10.266 248.124 248.124 0 0 1 7-9.934 245.199 245.199 0 0 1 15.41-18.78 247.605 247.605 0 0 1 26.38-25.118 245.199 245.199 0 0 1 9.581-7.473 244.106 244.106 0 0 1 9.934-6.996 245.656 245.656 0 0 1 20.836-12.492c3.574-1.91 7.191-3.73 10.855-5.461a248.593 248.593 0 0 1 22.445-9.3 247.534 247.534 0 0 1 11.54-3.81 246.262 246.262 0 0 1 23.566-5.902c3.973-.793 7.961-1.484 11.969-2.078 4.008-.594 8.027-1.09 12.062-1.488a246.294 246.294 0 0 1 24.266-1.191 246.92 246.92 0 0 1 36.324 2.68c4.008.593 7.996 1.284 11.969 2.077a246.262 246.262 0 0 1 23.57 5.903 248.915 248.915 0 0 1 11.535 3.808 248.593 248.593 0 0 1 33.301 14.762 245.656 245.656 0 0 1 20.836 12.492c3.371 2.25 6.68 4.582 9.934 6.996a245.199 245.199 0 0 1 18.781 15.41 247.605 247.605 0 0 1 25.117 26.38 245.199 245.199 0 0 1 7.473 9.581 244.106 244.106 0 0 1 6.996 9.934 245.656 245.656 0 0 1 12.492 20.836c1.91 3.574 3.73 7.191 5.461 10.855a248.593 248.593 0 0 1 9.3 22.445 247.534 247.534 0 0 1 3.81 11.54 247.144 247.144 0 0 1 5.906 23.566 247.884 247.884 0 0 1 3.562 24.031 246.294 246.294 0 0 1 1.192 24.266Zm0 0"/>
  <path fill="#F1E3B8" stroke="#1B2C43" stroke-width="5.25133" d="M514.254 236.683c0 .614-.032 1.227-.09 1.84a19.31 19.31 0 0 1-.719 3.606c-.18.586-.387 1.164-.621 1.73-.234.57-.496 1.125-.785 1.664-.29.543-.606 1.07-.946 1.578a18.558 18.558 0 0 1-2.336 2.844c-.433.434-.886.848-1.363 1.235-.472.39-.965.757-1.476 1.097a19.027 19.027 0 0 1-3.242 1.734 19.06 19.06 0 0 1-1.735.622c-.586.175-1.183.324-1.785.445-.602.121-1.207.21-1.82.27-.61.062-1.223.09-1.836.09-.617 0-1.23-.028-1.84-.09a17.775 17.775 0 0 1-1.82-.27c-.602-.121-1.2-.27-1.786-.445a19.06 19.06 0 0 1-1.734-.621 19.027 19.027 0 0 1-3.242-1.735 17.626 17.626 0 0 1-1.477-1.097c-.476-.387-.93-.801-1.363-1.235a18.558 18.558 0 0 1-3.281-4.422c-.29-.539-.551-1.093-.785-1.664a19.414 19.414 0 0 1-.621-1.73 19.31 19.31 0 0 1-.719-3.605 19.337 19.337 0 0 1-.09-1.84c0-.614.031-1.227.09-1.84a19.31 19.31 0 0 1 .719-3.606c.18-.586.386-1.164.62-1.73.235-.57.497-1.125.786-1.664.289-.543.605-1.07.945-1.578a18.558 18.558 0 0 1 2.336-2.844c.434-.434.887-.848 1.363-1.235.473-.39.965-.757 1.477-1.097a19.59 19.59 0 0 1 1.578-.946c.543-.289 1.098-.55 1.664-.789a17.926 17.926 0 0 1 1.734-.617 18.64 18.64 0 0 1 7.282-.719 18.64 18.64 0 0 1 3.605.719c.59.176 1.168.383 1.735.617.566.239 1.12.5 1.664.79.539.288 1.066.605 1.578.945.511.34 1.004.707 1.476 1.097.477.387.93.801 1.364 1.235a18.558 18.558 0 0 1 3.28 4.422c.29.539.552 1.093.786 1.664.234.566.441 1.144.621 1.73a19.31 19.31 0 0 1 .719 3.605c.058.614.09 1.227.09 1.84ZM514.254 754.312c0 .613-.032 1.227-.09 1.84a19.31 19.31 0 0 1-.719 3.605c-.18.586-.387 1.164-.621 1.73-.234.571-.496 1.126-.785 1.665-.29.543-.606 1.07-.946 1.578a18.558 18.558 0 0 1-2.336 2.844c-.433.433-.886.847-1.363 1.234-.472.39-.965.758-1.476 1.098-.512.34-1.04.656-1.578.945-.543.29-1.098.55-1.664.79-.567.234-1.145.44-1.735.616a18.64 18.64 0 0 1-7.281.72 18.64 18.64 0 0 1-3.605-.719 17.926 17.926 0 0 1-1.735-.618c-.566-.238-1.121-.5-1.664-.789a19.59 19.59 0 0 1-1.578-.945 17.626 17.626 0 0 1-1.477-1.098c-.476-.387-.93-.8-1.363-1.234a18.558 18.558 0 0 1-3.281-4.422c-.29-.54-.551-1.094-.785-1.664a19.414 19.414 0 0 1-.621-1.73 19.31 19.31 0 0 1-.719-3.605 19.337 19.337 0 0 1-.09-1.84c0-.614.031-1.227.09-1.84a19.31 19.31 0 0 1 .719-3.606c.18-.586.386-1.164.62-1.73.235-.571.497-1.126.786-1.665.289-.543.605-1.07.945-1.578a18.558 18.558 0 0 1 2.336-2.844c.434-.433.887-.847 1.363-1.234.473-.39.965-.758 1.477-1.098a19.027 19.027 0 0 1 3.242-1.734 17.926 17.926 0 0 1 1.734-.617 18.64 18.64 0 0 1 7.282-.719 18.64 18.64 0 0 1 3.605.719c.59.176 1.168.383 1.735.617a19.027 19.027 0 0 1 3.242 1.734c.511.34 1.004.707 1.476 1.098.477.387.93.8 1.364 1.234a18.558 18.558 0 0 1 3.28 4.422c.29.54.552 1.094.786 1.664.234.567.441 1.145.621 1.73a19.31 19.31 0 0 1 .719 3.605c.058.615.09 1.228.09 1.841ZM735.558 634.28c0 .618-.031 1.227-.09 1.84a18.64 18.64 0 0 1-.719 3.605 18.99 18.99 0 0 1-1.406 3.398 19.59 19.59 0 0 1-.945 1.58 19.269 19.269 0 0 1-2.332 2.84 18.488 18.488 0 0 1-2.844 2.332c-.511.343-1.035.656-1.578.949a18.99 18.99 0 0 1-3.398 1.406c-.586.176-1.184.328-1.785.445-.602.122-1.207.211-1.82.27a18.001 18.001 0 0 1-3.677 0 17.936 17.936 0 0 1-1.82-.27 18.621 18.621 0 0 1-6.762-2.8 18.488 18.488 0 0 1-2.84-2.332 18.244 18.244 0 0 1-2.332-2.84c-.343-.512-.66-1.04-.949-1.578a18.99 18.99 0 0 1-1.406-3.399 17.527 17.527 0 0 1-.445-1.785c-.121-.601-.211-1.21-.27-1.82a18.078 18.078 0 0 1 0-3.676c.059-.613.149-1.219.27-1.82.117-.606.265-1.2.445-1.785a19.06 19.06 0 0 1 1.406-3.399c.29-.543.606-1.066.95-1.578a18.305 18.305 0 0 1 2.332-2.844c.433-.433.886-.844 1.363-1.234a18.532 18.532 0 0 1 4.719-2.828c.57-.239 1.144-.442 1.734-.621a18.64 18.64 0 0 1 1.785-.45c.602-.117 1.211-.207 1.82-.27a19.193 19.193 0 0 1 3.676 0 18.64 18.64 0 0 1 3.605.719 18.99 18.99 0 0 1 3.398 1.406 18.532 18.532 0 0 1 3.055 2.043c.477.391.93.802 1.368 1.235.434.438.844.89 1.234 1.363a18.931 18.931 0 0 1 2.043 3.059 18.99 18.99 0 0 1 1.856 5.184c.117.601.207 1.207.27 1.82.058.61.09 1.223.09 1.836ZM735.558 356.715c0 .613-.031 1.226-.09 1.836a18.351 18.351 0 0 1-.719 3.605 19.06 19.06 0 0 1-1.406 3.398 18.931 18.931 0 0 1-2.043 3.06c-.39.472-.8.925-1.234 1.362a19.487 19.487 0 0 1-2.844 2.332c-.511.34-1.035.657-1.578.946a18.99 18.99 0 0 1-5.183 1.855c-.602.117-1.207.207-1.82.27-.61.058-1.223.09-1.837.09-.617 0-1.23-.032-1.84-.09a20.443 20.443 0 0 1-1.82-.27 18.64 18.64 0 0 1-1.785-.449 18.99 18.99 0 0 1-3.398-1.406 18.532 18.532 0 0 1-3.055-2.043c-.477-.39-.93-.801-1.363-1.235a18.305 18.305 0 0 1-2.332-2.844 17.965 17.965 0 0 1-.95-1.578 18.99 18.99 0 0 1-1.406-3.398c-.18-.586-.328-1.18-.445-1.785a17.775 17.775 0 0 1-.27-1.82 18.001 18.001 0 0 1 0-3.676c.059-.61.149-1.219.27-1.82.117-.602.265-1.2.445-1.786a18.99 18.99 0 0 1 1.406-3.398c.29-.54.606-1.066.95-1.578a18.244 18.244 0 0 1 2.332-2.84 18.639 18.639 0 0 1 6.082-4.066 18.62 18.62 0 0 1 3.52-1.066 19.212 19.212 0 0 1 3.66-.363 19.196 19.196 0 0 1 3.656.362 18.62 18.62 0 0 1 6.761 2.8 18.487 18.487 0 0 1 2.844 2.333 19.269 19.269 0 0 1 2.332 2.84c.34.512.656 1.039.945 1.578a18.99 18.99 0 0 1 1.856 5.183c.117.602.207 1.211.27 1.82.058.614.09 1.223.09 1.84ZM292.95 356.715c0 .613-.032 1.226-.09 1.836a18.934 18.934 0 0 1-.274 1.82c-.117.605-.266 1.2-.446 1.785a19.06 19.06 0 0 1-1.406 3.398c-.289.543-.605 1.067-.949 1.579a18.305 18.305 0 0 1-2.332 2.843c-.434.434-.887.844-1.363 1.235a18.532 18.532 0 0 1-4.72 2.828 18.64 18.64 0 0 1-9.016 1.34 18.64 18.64 0 0 1-3.605-.719 18.99 18.99 0 0 1-3.398-1.406 18.532 18.532 0 0 1-3.055-2.043c-.476-.39-.929-.801-1.366-1.235-.434-.437-.844-.89-1.235-1.363a18.931 18.931 0 0 1-2.043-3.059 18.99 18.99 0 0 1-1.855-5.183 20.233 20.233 0 0 1-.27-1.82c-.058-.61-.09-1.223-.09-1.836 0-.618.032-1.227.09-1.84.063-.61.153-1.219.27-1.82.12-.602.27-1.2.449-1.786a18.99 18.99 0 0 1 1.406-3.398c.29-.54.606-1.066.946-1.578a19.269 19.269 0 0 1 2.332-2.84 18.487 18.487 0 0 1 2.844-2.332 18.972 18.972 0 0 1 1.577-.95 18.99 18.99 0 0 1 3.399-1.406 18.62 18.62 0 0 1 1.785-.445 19.196 19.196 0 0 1 3.656-.363 19.212 19.212 0 0 1 3.66.363 18.62 18.62 0 0 1 6.762 2.8 18.487 18.487 0 0 1 2.84 2.333 18.244 18.244 0 0 1 2.332 2.84c.344.512.66 1.039.95 1.578a18.99 18.99 0 0 1 1.405 3.398c.18.586.329 1.184.446 1.785.12.602.21 1.211.273 1.82.059.614.09 1.223.09 1.84ZM292.95 634.28c0 .618-.032 1.227-.09 1.84a19.12 19.12 0 0 1-.274 1.821c-.117.602-.266 1.2-.446 1.785a18.99 18.99 0 0 1-1.406 3.398c-.289.54-.605 1.067-.949 1.579a18.244 18.244 0 0 1-2.332 2.84 18.639 18.639 0 0 1-6.082 4.066 18.621 18.621 0 0 1-3.52 1.066c-.601.122-1.207.211-1.82.27a18.02 18.02 0 0 1-3.676 0 17.775 17.775 0 0 1-1.82-.27 18.621 18.621 0 0 1-6.762-2.8 18.487 18.487 0 0 1-2.843-2.332 19.269 19.269 0 0 1-2.332-2.84 19.59 19.59 0 0 1-.946-1.578 18.99 18.99 0 0 1-1.855-5.184 20.443 20.443 0 0 1-.27-1.82 19.274 19.274 0 0 1-.09-1.84c0-.613.032-1.227.09-1.836a18.351 18.351 0 0 1 .719-3.605 19.06 19.06 0 0 1 1.406-3.399 18.931 18.931 0 0 1 2.043-3.059c.39-.472.801-.925 1.235-1.363a19.486 19.486 0 0 1 2.843-2.332 18.93 18.93 0 0 1 1.578-.945 18.99 18.99 0 0 1 5.184-1.856 20.233 20.233 0 0 1 1.82-.27c.61-.058 1.223-.089 1.836-.089.617 0 1.23.031 1.84.09a18.64 18.64 0 0 1 3.605.719 18.99 18.99 0 0 1 3.398 1.406 18.532 18.532 0 0 1 3.055 2.043c.477.39.93.8 1.364 1.234a18.305 18.305 0 0 1 2.332 2.844c.344.512.66 1.035.95 1.578a18.99 18.99 0 0 1 1.405 3.399c.18.585.329 1.18.446 1.785.12.601.21 1.207.273 1.82.059.61.09 1.223.09 1.836Zm0 0"/>
  <path fill="#2A4270" d="M779.82 533.008h31.508a6.804 6.804 0 0 1 2.582.512 6.808 6.808 0 0 1 3.031 2.488c.246.367.454.758.621 1.168.172.41.301.832.387 1.265.086.434.13.875.13 1.317v46.512a6.745 6.745 0 0 1-5.434 6.62c-.438.09-.875.133-1.317.133H779.82c-.445 0-.883-.043-1.32-.132a6.716 6.716 0 0 1-3.457-1.848 6.777 6.777 0 0 1-.84-1.02 6.808 6.808 0 0 1-1.008-2.438 6.745 6.745 0 0 1-.129-1.315v-46.512c0-.442.043-.883.13-1.317a6.86 6.86 0 0 1 1.007-2.433 6.808 6.808 0 0 1 1.863-1.863 6.99 6.99 0 0 1 1.168-.625 6.814 6.814 0 0 1 2.586-.512Zm0 0"/>
  <use xlink:href="#a" x="786.043" y="570.142" fill="#f1e3b8"/>
  <path fill="#2A4270" d="M832.332 533.008h31.508a6.775 6.775 0 0 1 2.582.512c.41.171.8.378 1.168.625a6.808 6.808 0 0 1 2.488 3.031 6.775 6.775 0 0 1 .512 2.582v46.512a6.745 6.745 0 0 1-5.434 6.62c-.433.09-.875.133-1.316.133h-31.508a6.46 6.46 0 0 1-1.316-.132 6.681 6.681 0 0 1-2.434-1.008 6.4 6.4 0 0 1-1.023-.84 6.716 6.716 0 0 1-1.977-4.773v-46.512a6.775 6.775 0 0 1 .512-2.582 6.808 6.808 0 0 1 2.488-3.031 6.954 6.954 0 0 1 1.164-.625 6.797 6.797 0 0 1 2.586-.512Zm0 0"/>
  <use xlink:href="#b" x="838.638" y="570.142" fill="#f1e3b8"/>
  <path fill="#2A4270" d="M779.82 465.492h31.508a6.804 6.804 0 0 1 2.582.512 6.808 6.808 0 0 1 3.031 2.488c.246.367.454.758.621 1.168.172.406.301.832.387 1.266.086.433.13.875.13 1.316v46.512c0 .441-.044.883-.13 1.316a6.49 6.49 0 0 1-.386 1.266c-.168.41-.375.8-.622 1.168a6.808 6.808 0 0 1-3.031 2.488 6.804 6.804 0 0 1-2.582.512H779.82a6.814 6.814 0 0 1-2.586-.512 6.99 6.99 0 0 1-1.168-.625 7.009 7.009 0 0 1-1.023-.84 6.618 6.618 0 0 1-1.461-2.191 6.77 6.77 0 0 1-.387-1.266 6.775 6.775 0 0 1-.129-1.316v-46.512c0-.441.043-.883.13-1.316.09-.434.214-.86.386-1.266a6.618 6.618 0 0 1 1.46-2.191 7.009 7.009 0 0 1 1.024-.84 6.99 6.99 0 0 1 1.168-.625 6.814 6.814 0 0 1 2.586-.512Zm0 0"/>
  <use xlink:href="#c" x="779.561" y="502.625" fill="#f1e3b8"/>
  <use xlink:href="#d" x="795.198" y="502.625" fill="#f1e3b8"/>
  <path fill="#2A4270" d="M832.332 465.492h31.508a6.775 6.775 0 0 1 2.582.512c.41.172.8.379 1.168.625.37.246.71.527 1.023.84.313.312.594.652.84 1.023a6.759 6.759 0 0 1 1.137 3.75v46.512a6.775 6.775 0 0 1-.512 2.582c-.172.41-.379.8-.625 1.168-.246.371-.527.71-.84 1.023a6.618 6.618 0 0 1-1.023.84 6.759 6.759 0 0 1-3.75 1.137h-31.508a6.745 6.745 0 0 1-6.75-6.75v-46.512a6.775 6.775 0 0 1 .512-2.582c.168-.41.379-.8.625-1.168.246-.37.527-.71.84-1.023a6.618 6.618 0 0 1 1.023-.84 6.954 6.954 0 0 1 1.164-.625 6.797 6.797 0 0 1 2.586-.512Zm0 0"/>
  <g fill="#f1e3b8">
    <use xlink:href="#c" x="831.476" y="502.625"/>
    <use xlink:href="#e" x="848.696" y="502.625"/>
  </g>
  <path fill="#2A4270" d="M779.82 397.973h31.508c.442 0 .879.043 1.317.132a6.716 6.716 0 0 1 2.434 1.008 6.777 6.777 0 0 1 1.863 1.86c.245.37.453.757.62 1.168a6.745 6.745 0 0 1 .516 2.586v46.511c0 .442-.043.883-.129 1.317a6.574 6.574 0 0 1-.386 1.265c-.168.41-.375.801-.622 1.168a6.808 6.808 0 0 1-1.863 1.864 6.99 6.99 0 0 1-1.168.625 6.804 6.804 0 0 1-2.582.512H779.82a6.814 6.814 0 0 1-2.586-.512 6.99 6.99 0 0 1-1.168-.625 6.808 6.808 0 0 1-1.863-1.863 6.86 6.86 0 0 1-1.008-2.434 6.775 6.775 0 0 1-.129-1.317v-46.511a6.745 6.745 0 0 1 5.434-6.622c.438-.09.875-.132 1.32-.132Zm0 0"/>
  <use xlink:href="#f" x="785.762" y="435.108" fill="#f1e3b8"/>
  <path fill="#4B1F1B" d="M172.168 390.473h31.508a6.775 6.775 0 0 1 2.582.511c.41.172.8.38 1.168.625a6.808 6.808 0 0 1 2.488 3.031 6.775 6.775 0 0 1 .512 2.582v46.512a6.745 6.745 0 0 1-5.434 6.621c-.433.09-.875.133-1.316.133h-31.508a6.46 6.46 0 0 1-1.316-.133 6.672 6.672 0 0 1-2.434-1.007 6.4 6.4 0 0 1-1.023-.84 6.618 6.618 0 0 1-.84-1.024 6.954 6.954 0 0 1-.625-1.164 6.797 6.797 0 0 1-.512-2.586v-46.511a6.775 6.775 0 0 1 .512-2.582 6.808 6.808 0 0 1 2.488-3.031 6.672 6.672 0 0 1 2.434-1.008 6.745 6.745 0 0 1 1.316-.13Zm0 0"/>
  <g fill="#f1e3b8">
    <use xlink:href="#f" x="170.081" y="427.606"/>
    <use xlink:href="#g" x="188.95" y="427.606"/>
  </g>
  <path fill="#4B1F1B" d="M119.656 390.473h31.508a6.775 6.775 0 0 1 2.582.511 6.808 6.808 0 0 1 3.031 2.488c.246.368.453.758.621 1.169.172.41.301.832.387 1.265.086.434.13.875.13 1.317v46.511a6.745 6.745 0 0 1-5.435 6.621c-.433.09-.875.133-1.316.133h-31.508a6.848 6.848 0 0 1-2.586-.516 6.715 6.715 0 0 1-2.191-1.464 6.662 6.662 0 0 1-1.46-2.188 6.745 6.745 0 0 1-.516-2.586v-46.511c0-.442.042-.883.128-1.317a6.86 6.86 0 0 1 1.008-2.433c.25-.368.527-.711.84-1.024a7.009 7.009 0 0 1 1.023-.84 6.99 6.99 0 0 1 1.168-.625 6.814 6.814 0 0 1 2.586-.512Zm0 0"/>
  <g fill="#f1e3b8">
    <use xlink:href="#f" x="117.568" y="427.606"/>
    <use xlink:href="#h" x="136.436" y="427.606"/>
  </g>
  <path fill="#4B1F1B" d="M119.656 457.988h31.508c.441 0 .883.043 1.316.13.434.085.856.214 1.266.386.41.168.8.375 1.168.621a6.808 6.808 0 0 1 1.863 1.863c.246.371.453.758.621 1.168.172.41.301.832.387 1.266.086.437.13.875.13 1.32v46.512c0 .441-.044.879-.13 1.316a6.573 6.573 0 0 1-.387 1.266 6.696 6.696 0 0 1-3.652 3.652c-.41.172-.832.301-1.266.387a6.775 6.775 0 0 1-1.316.129h-31.508c-.445 0-.883-.043-1.32-.129a6.573 6.573 0 0 1-1.266-.387 6.696 6.696 0 0 1-2.191-1.46 7.27 7.27 0 0 1-.84-1.024 6.86 6.86 0 0 1-1.008-2.434 6.804 6.804 0 0 1-.129-1.316v-46.512c0-.445.043-.883.13-1.32a6.86 6.86 0 0 1 1.007-2.434 7.27 7.27 0 0 1 .84-1.023 6.696 6.696 0 0 1 2.191-1.46c.41-.173.832-.302 1.266-.388a6.814 6.814 0 0 1 1.32-.129Zm0 0"/>
  <g fill="#f1e3b8">
    <use xlink:href="#c" x="118.389" y="495.123"/>
    <use xlink:href="#h" x="135.609" y="495.123"/>
  </g>
  <path fill="#4B1F1B" d="M172.168 457.988h31.508c.441 0 .883.043 1.316.13.434.085.86.214 1.266.386a6.618 6.618 0 0 1 2.191 1.46c.313.317.594.657.84 1.024.246.371.453.758.625 1.168a6.814 6.814 0 0 1 .512 2.586v46.512a6.804 6.804 0 0 1-.512 2.582 6.99 6.99 0 0 1-.625 1.168 7.009 7.009 0 0 1-.84 1.023 6.618 6.618 0 0 1-2.191 1.461 6.49 6.49 0 0 1-1.266.387 6.775 6.775 0 0 1-1.316.129h-31.508c-.445 0-.883-.043-1.316-.129a6.41 6.41 0 0 1-1.266-.387 6.618 6.618 0 0 1-2.191-1.46 7.009 7.009 0 0 1-.84-1.024 6.99 6.99 0 0 1-.625-1.168 6.804 6.804 0 0 1-.512-2.582v-46.512a6.814 6.814 0 0 1 .512-2.586 6.99 6.99 0 0 1 .625-1.168c.246-.367.527-.707.84-1.023a6.618 6.618 0 0 1 2.19-1.461 6.41 6.41 0 0 1 1.267-.387 6.745 6.745 0 0 1 1.316-.129Zm0 0"/>
  <g fill="#f1e3b8">
    <use xlink:href="#c" x="170.902" y="495.123"/>
    <use xlink:href="#g" x="188.122" y="495.123"/>
  </g>
  <path fill="#4B1F1B" d="M172.168 525.504h31.508c.441 0 .883.047 1.316.133a6.759 6.759 0 0 1 2.434 1.008 6.4 6.4 0 0 1 1.023.84c.313.312.594.652.84 1.023.246.367.453.758.625 1.164a6.797 6.797 0 0 1 .512 2.586v46.512a6.775 6.775 0 0 1-.512 2.582 6.808 6.808 0 0 1-2.488 3.031 6.759 6.759 0 0 1-3.75 1.137h-31.508a6.745 6.745 0 0 1-6.75-6.75v-46.512a6.745 6.745 0 0 1 5.434-6.621 6.748 6.748 0 0 1 1.316-.133Zm0 0"/>
  <use xlink:href="#i" x="178.099" y="562.64" fill="#f1e3b8"/>
  <path fill="#1B2C43" d="M328.207 257.688a37.02 37.02 0 0 1-.723 7.32 36.409 36.409 0 0 1-.894 3.57 37.278 37.278 0 0 1-2.813 6.793 37.862 37.862 0 0 1-1.89 3.156 36.885 36.885 0 0 1-2.196 2.957c-.777.95-1.601 1.86-2.472 2.727a36.282 36.282 0 0 1-2.727 2.473 35.92 35.92 0 0 1-2.957 2.191 36.868 36.868 0 0 1-3.156 1.895 37.277 37.277 0 0 1-6.793 2.813 36.41 36.41 0 0 1-3.57.894 37.02 37.02 0 0 1-7.32.722 37.02 37.02 0 0 1-7.316-.723 36.41 36.41 0 0 1-3.571-.894 37.277 37.277 0 0 1-9.95-4.707 35.92 35.92 0 0 1-2.957-2.191 36.282 36.282 0 0 1-2.726-2.473 36.282 36.282 0 0 1-2.473-2.727 36.885 36.885 0 0 1-2.195-2.957 37.862 37.862 0 0 1-3.465-6.484 37.277 37.277 0 0 1-1.238-3.465 36.41 36.41 0 0 1-.895-3.57 37.02 37.02 0 0 1-.722-7.32c0-1.227.062-2.454.18-3.676.12-1.223.3-2.438.542-3.64a36.41 36.41 0 0 1 .895-3.571 37.277 37.277 0 0 1 2.812-6.793 37.235 37.235 0 0 1 4.086-6.113 37.119 37.119 0 0 1 5.2-5.2 36.885 36.885 0 0 1 2.956-2.195 37.862 37.862 0 0 1 6.485-3.465 38.47 38.47 0 0 1 3.465-1.242 37.534 37.534 0 0 1 3.57-.89 37.02 37.02 0 0 1 7.316-.723 37.31 37.31 0 0 1 7.32.722c1.204.239 2.395.536 3.57.891a38.47 38.47 0 0 1 3.466 1.242 37.862 37.862 0 0 1 6.484 3.465 36.885 36.885 0 0 1 2.957 2.195 37.09 37.09 0 0 1 5.2 5.2 37.236 37.236 0 0 1 4.086 6.113 37.278 37.278 0 0 1 2.813 6.793c.358 1.176.655 2.367.893 3.57.243 1.203.422 2.418.543 3.64.118 1.223.18 2.45.18 3.677Zm0 0"/>
  <use xlink:href="#j" x="282.726" y="264.816" fill="#f1e3b8"/>
  <path fill="#1B2C43" d="M360.465 227.68c0 .617-.031 1.23-.09 1.84a18.64 18.64 0 0 1-.719 3.605 18.99 18.99 0 0 1-1.406 3.398 18.532 18.532 0 0 1-2.043 3.055c-.39.477-.8.93-1.234 1.363a18.558 18.558 0 0 1-4.422 3.282 18.99 18.99 0 0 1-3.399 1.406c-.586.18-1.18.328-1.785.445-.601.121-1.207.211-1.82.274-.61.058-1.223.09-1.836.09-.617 0-1.227-.032-1.84-.09a19.12 19.12 0 0 1-1.82-.274c-.602-.117-1.2-.265-1.785-.445a18.99 18.99 0 0 1-3.398-1.406 19.59 19.59 0 0 1-1.579-.946 19.268 19.268 0 0 1-1.476-1.097c-.477-.39-.93-.801-1.364-1.239a18.638 18.638 0 0 1-4.066-6.082 18.621 18.621 0 0 1-1.066-3.52 17.776 17.776 0 0 1-.27-1.82 18.02 18.02 0 0 1-.09-1.84c0-.613.027-1.226.09-1.835.058-.614.148-1.219.27-1.82a18.621 18.621 0 0 1 2.8-6.762 18.487 18.487 0 0 1 2.332-2.84c.434-.438.887-.848 1.363-1.238.473-.391.97-.754 1.477-1.098a19.59 19.59 0 0 1 1.578-.945 18.99 18.99 0 0 1 3.399-1.407c.586-.18 1.183-.328 1.785-.445a19.12 19.12 0 0 1 1.82-.273c.613-.059 1.223-.09 1.84-.09.613 0 1.226.031 1.836.09.613.062 1.219.152 1.82.273.606.117 1.2.266 1.785.445a19.06 19.06 0 0 1 3.399 1.407 18.93 18.93 0 0 1 3.058 2.043 18.587 18.587 0 0 1 2.598 2.602 18.532 18.532 0 0 1 2.828 4.718c.238.566.445 1.144.621 1.734a18.64 18.64 0 0 1 .809 5.442Zm0 0"/>
  <use xlink:href="#k" x="335.439" y="232.558" fill="#f1e3b8"/>
  <path fill="#1B2C43" d="M396.473 209.676c0 .617-.028 1.226-.09 1.84a18.64 18.64 0 0 1-.719 3.605 18.306 18.306 0 0 1-1.406 3.399 18.291 18.291 0 0 1-2.043 3.055c-.387.476-.8.929-1.235 1.362-.433.434-.89.848-1.363 1.239a19.286 19.286 0 0 1-3.058 2.043c-.54.289-1.094.55-1.664.785-.567.234-1.145.441-1.73.621a18.916 18.916 0 0 1-5.446.809c-.614 0-1.227-.032-1.84-.094a18.916 18.916 0 0 1-3.605-.715 19.414 19.414 0 0 1-1.731-.621 18.353 18.353 0 0 1-3.242-1.734 19.286 19.286 0 0 1-1.48-1.094 19.48 19.48 0 0 1-1.364-1.238 17.742 17.742 0 0 1-1.234-1.364 18.291 18.291 0 0 1-2.043-3.054 18.305 18.305 0 0 1-1.406-3.398 18.64 18.64 0 0 1-.72-7.282 18.351 18.351 0 0 1 .719-3.605c.176-.59.383-1.169.618-1.735a19.026 19.026 0 0 1 1.734-3.242c.34-.512.707-1.004 1.098-1.48.386-.473.8-.926 1.234-1.364.434-.434.89-.844 1.363-1.234.477-.39.97-.754 1.48-1.098.509-.34 1.036-.656 1.579-.945.539-.29 1.094-.551 1.664-.785a18.937 18.937 0 0 1 3.516-1.07c.605-.118 1.21-.208 1.82-.27.613-.059 1.226-.09 1.84-.09.613 0 1.226.031 1.84.09.609.062 1.214.152 1.82.27a18.937 18.937 0 0 1 5.18 1.855c.543.289 1.07.605 1.578.945.511.344 1.004.707 1.48 1.098.473.39.93.8 1.363 1.234.434.438.848.89 1.235 1.363a18.93 18.93 0 0 1 2.832 4.723c.234.566.441 1.145.617 1.734a18.351 18.351 0 0 1 .719 3.606c.062.61.09 1.222.09 1.836Zm0 0"/>
  <use xlink:href="#l" x="371.448" y="214.553" fill="#f1e3b8"/>
  <path fill="#1B2C43" d="M434.734 196.172c0 .617-.03 1.23-.09 1.84a18.935 18.935 0 0 1-.273 1.82c-.117.602-.266 1.2-.445 1.785a19.06 19.06 0 0 1-1.406 3.399c-.29.539-.606 1.066-.95 1.578-.34.511-.703 1.004-1.093 1.476-.391.477-.801.93-1.239 1.364-.433.437-.886.847-1.363 1.238a18.532 18.532 0 0 1-4.719 2.828 19.06 19.06 0 0 1-1.734.621c-.586.18-1.184.328-1.785.445-.602.121-1.207.211-1.82.274-.61.058-1.223.09-1.84.09-.614 0-1.227-.032-1.836-.09a18.935 18.935 0 0 1-1.82-.274c-.602-.117-1.2-.265-1.786-.445a19.06 19.06 0 0 1-3.398-1.406 18.532 18.532 0 0 1-3.055-2.043 18.615 18.615 0 0 1-2.602-2.602 18.532 18.532 0 0 1-2.828-4.718 19.06 19.06 0 0 1-.62-1.735 17.527 17.527 0 0 1-.446-1.785 18.935 18.935 0 0 1-.274-1.82c-.058-.61-.09-1.223-.09-1.84 0-.613.032-1.227.09-1.836.063-.613.153-1.219.274-1.82.117-.602.266-1.2.445-1.786a19.06 19.06 0 0 1 1.406-3.398 18.532 18.532 0 0 1 2.043-3.055 18.587 18.587 0 0 1 2.602-2.601 18.532 18.532 0 0 1 4.719-2.828 19.06 19.06 0 0 1 1.734-.621c.586-.18 1.184-.329 1.785-.446.602-.12 1.207-.21 1.82-.273.61-.059 1.223-.09 1.837-.09.617 0 1.23.031 1.84.09.613.062 1.218.152 1.82.273.601.117 1.199.266 1.785.446a19.06 19.06 0 0 1 3.398 1.406 18.532 18.532 0 0 1 3.055 2.043c.477.39.93.8 1.363 1.238.438.434.848.887 1.239 1.363.39.473.753.965 1.093 1.477.344.512.66 1.039.95 1.578a18.99 18.99 0 0 1 1.406 3.398c.18.586.328 1.184.445 1.786.121.601.211 1.207.274 1.82.058.61.09 1.223.09 1.836Zm0 0"/>
  <use xlink:href="#m" x="409.707" y="201.05" fill="#f1e3b8"/>
  <path fill="#1B2C43" d="M474.492 187.172c0 .613-.031 1.226-.09 1.84-.058.61-.148 1.215-.27 1.82a18.937 18.937 0 0 1-1.855 5.18c-.289.543-.605 1.07-.945 1.578-.34.512-.707 1.004-1.098 1.48a18.504 18.504 0 0 1-2.597 2.598c-.477.39-.969.758-1.48 1.098a19.085 19.085 0 0 1-3.242 1.734 18.937 18.937 0 0 1-3.516 1.066 18.1 18.1 0 0 1-1.82.27c-.614.059-1.227.09-1.84.09-.614 0-1.227-.031-1.84-.09a18.1 18.1 0 0 1-1.82-.27 18.937 18.937 0 0 1-5.18-1.855c-.544-.29-1.07-.606-1.579-.945a18.353 18.353 0 0 1-1.48-1.098 18.504 18.504 0 0 1-2.598-2.598c-.39-.476-.758-.968-1.097-1.48a18.315 18.315 0 0 1-.946-1.578 18.506 18.506 0 0 1-1.406-3.395c-.18-.59-.328-1.183-.45-1.785a18.1 18.1 0 0 1-.269-1.82 19.337 19.337 0 0 1-.09-1.84c0-.613.032-1.227.09-1.84.059-.61.149-1.219.27-1.82a18.937 18.937 0 0 1 1.855-5.18c.29-.543.606-1.07.946-1.578.34-.512.707-1.004 1.097-1.48a18.503 18.503 0 0 1 2.598-2.598c.476-.39.969-.758 1.48-1.098a17.372 17.372 0 0 1 1.578-.945c.54-.29 1.094-.555 1.664-.79a19.414 19.414 0 0 1 1.731-.62c.59-.176 1.184-.325 1.785-.446a18.1 18.1 0 0 1 1.82-.27 18.13 18.13 0 0 1 1.84-.089c.614 0 1.227.027 1.84.09a18.1 18.1 0 0 1 1.82.27c.602.12 1.196.269 1.786.445.586.18 1.164.386 1.73.62.57.235 1.125.5 1.664.79.543.289 1.07.601 1.578.945.512.34 1.004.707 1.48 1.098a18.504 18.504 0 0 1 2.598 2.597c.391.477.758.97 1.098 1.477a19 19 0 0 1 .945 1.582 18.233 18.233 0 0 1 1.406 3.395c.18.59.329 1.183.45 1.785.12.601.21 1.21.27 1.82.058.613.09 1.227.09 1.84Zm0 0"/>
  <use xlink:href="#n" x="449.467" y="192.048" fill="#f1e3b8"/>
  <path fill="#1B2C43" d="M514.254 183.422c0 .613-.031 1.226-.09 1.836a18.935 18.935 0 0 1-.273 1.82c-.118.606-.266 1.2-.446 1.785a19.06 19.06 0 0 1-1.406 3.399 18.931 18.931 0 0 1-2.043 3.058 18.587 18.587 0 0 1-2.602 2.598 18.532 18.532 0 0 1-4.718 2.828 17.95 17.95 0 0 1-1.735.621 18.64 18.64 0 0 1-7.28.719 18.64 18.64 0 0 1-3.605-.719 18.99 18.99 0 0 1-3.398-1.406 18.532 18.532 0 0 1-3.055-2.043c-.478-.39-.931-.8-1.365-1.234-.437-.438-.847-.891-1.238-1.364a18.931 18.931 0 0 1-2.043-3.059 18.99 18.99 0 0 1-1.406-3.398c-.18-.586-.328-1.18-.446-1.785a18.935 18.935 0 0 1-.273-1.82c-.059-.61-.09-1.223-.09-1.836 0-.617.031-1.227.09-1.84.063-.61.152-1.219.273-1.82.118-.602.266-1.2.446-1.785a18.99 18.99 0 0 1 1.406-3.398c.29-.54.606-1.067.945-1.579.344-.508.707-1.004 1.098-1.477.39-.476.8-.93 1.238-1.363a18.639 18.639 0 0 1 6.082-4.066 18.62 18.62 0 0 1 3.52-1.066c.601-.122 1.207-.212 1.82-.27a18.02 18.02 0 0 1 3.676 0c.613.058 1.219.148 1.82.27a18.62 18.62 0 0 1 6.762 2.8 18.487 18.487 0 0 1 2.84 2.332c.437.434.847.887 1.238 1.363.39.473.754.97 1.098 1.477.34.512.656 1.04.945 1.578a18.99 18.99 0 0 1 1.406 3.399 19.12 19.12 0 0 1 .719 3.605c.059.613.09 1.223.09 1.84Zm0 0"/>
  <use xlink:href="#o" x="489.227" y="188.297" fill="#f1e3b8"/>
  <path fill="#1B2C43" d="M554.012 184.922c0 .613-.028 1.226-.09 1.836a18.351 18.351 0 0 1-.719 3.605c-.176.59-.383 1.168-.617 1.735a19.026 19.026 0 0 1-1.734 3.242c-.34.512-.707 1.004-1.098 1.48a18.504 18.504 0 0 1-2.598 2.598c-.476.39-.968.754-1.48 1.098-.508.34-1.035.656-1.578.945-.54.289-1.094.55-1.664.785a18.937 18.937 0 0 1-3.516 1.07c-.606.118-1.211.207-1.82.27-.614.059-1.227.09-1.84.09s-1.227-.031-1.84-.09a20.656 20.656 0 0 1-1.82-.27 18.937 18.937 0 0 1-5.18-1.855c-.543-.29-1.07-.606-1.578-.945a19.334 19.334 0 0 1-1.48-1.098 18.504 18.504 0 0 1-2.598-2.598 18.931 18.931 0 0 1-2.832-4.723 17.926 17.926 0 0 1-.617-1.734 18.352 18.352 0 0 1-.72-3.605c-.058-.61-.09-1.223-.09-1.836s.032-1.227.09-1.84c.06-.61.15-1.219.27-1.82.121-.602.27-1.196.45-1.785.175-.586.382-1.165.617-1.735.238-.566.5-1.12.789-1.664a18.291 18.291 0 0 1 2.043-3.055c.386-.476.8-.93 1.234-1.363.434-.433.89-.847 1.363-1.238a19.286 19.286 0 0 1 3.059-2.043c.539-.29 1.094-.55 1.664-.785a19.414 19.414 0 0 1 1.73-.621c.59-.176 1.184-.325 1.786-.446a18.1 18.1 0 0 1 1.82-.27 18.13 18.13 0 0 1 1.84-.089c.613 0 1.226.027 1.84.09a18.915 18.915 0 0 1 3.605.715c.586.18 1.164.386 1.73.62a18.353 18.353 0 0 1 3.242 1.734c.513.341 1.005.708 1.481 1.095.473.39.93.805 1.364 1.238.433.434.847.887 1.234 1.363a18.291 18.291 0 0 1 2.043 3.055c.289.543.555 1.098.789 1.664.234.57.441 1.149.617 1.735.18.59.328 1.183.45 1.785.12.601.21 1.21.269 1.82.062.613.09 1.227.09 1.84Zm0 0"/>
  <use xlink:href="#p" x="528.987" y="189.797" fill="#f1e3b8"/>
  <path fill="#1B2C43" d="M593.023 192.422c0 .613-.03 1.226-.09 1.84a19.12 19.12 0 0 1-.273 1.82 17.787 17.787 0 0 1-.445 1.785 18.991 18.991 0 0 1-1.406 3.398 19.59 19.59 0 0 1-.946 1.579 19.269 19.269 0 0 1-1.097 1.476c-.391.477-.801.93-1.239 1.364a18.639 18.639 0 0 1-6.082 4.066 18.62 18.62 0 0 1-3.52 1.066c-.6.121-1.206.211-1.82.27-.609.062-1.222.09-1.835.09-.618 0-1.23-.028-1.84-.09a17.775 17.775 0 0 1-1.82-.27 18.62 18.62 0 0 1-6.762-2.8 18.487 18.487 0 0 1-2.84-2.332 17.792 17.792 0 0 1-1.238-1.364c-.391-.472-.754-.968-1.098-1.476a19.59 19.59 0 0 1-.945-1.578 18.99 18.99 0 0 1-1.407-3.399c-.18-.59-.328-1.183-.445-1.785a19.12 19.12 0 0 1-.273-1.82 19.337 19.337 0 0 1-.09-1.84c0-.613.031-1.227.09-1.836.062-.613.152-1.219.273-1.82.117-.606.266-1.2.445-1.786a19.06 19.06 0 0 1 1.407-3.398 18.93 18.93 0 0 1 2.043-3.059c.39-.472.8-.93 1.238-1.363.433-.433.887-.844 1.363-1.234a18.532 18.532 0 0 1 4.719-2.828 16.962 16.962 0 0 1 1.734-.621 18.64 18.64 0 0 1 7.281-.72 18.64 18.64 0 0 1 3.605.719c.59.176 1.169.383 1.735.622a18.99 18.99 0 0 1 1.664.785 18.532 18.532 0 0 1 3.055 2.043c.477.39.93.8 1.363 1.234a18.558 18.558 0 0 1 3.282 4.422 18.991 18.991 0 0 1 1.406 3.398c.18.586.328 1.18.445 1.786.121.601.211 1.207.274 1.82.058.61.09 1.223.09 1.836Zm0 0"/>
  <use xlink:href="#q" x="567.997" y="197.299" fill="#f1e3b8"/>
  <path fill="#1B2C43" d="M631.281 203.676c0 .613-.031 1.226-.09 1.84a18.1 18.1 0 0 1-.27 1.82 18.937 18.937 0 0 1-1.855 5.18c-.289.543-.605 1.07-.945 1.578-.34.511-.707 1.004-1.098 1.48a18.504 18.504 0 0 1-2.597 2.598c-.477.39-.969.758-1.48 1.098a19.085 19.085 0 0 1-3.242 1.734 18.937 18.937 0 0 1-3.516 1.066c-.606.121-1.211.211-1.82.27-.614.058-1.227.09-1.84.09-.614 0-1.227-.032-1.84-.09a18.101 18.101 0 0 1-1.82-.27 18.937 18.937 0 0 1-5.18-1.855c-.543-.29-1.07-.606-1.579-.945a18.353 18.353 0 0 1-1.48-1.098 18.504 18.504 0 0 1-2.598-2.598c-.39-.476-.758-.969-1.097-1.48a18.315 18.315 0 0 1-.946-1.578 18.233 18.233 0 0 1-1.406-3.395c-.18-.59-.328-1.184-.45-1.785a18.1 18.1 0 0 1-.269-1.82 18.13 18.13 0 0 1-.09-1.84c0-.613.028-1.227.09-1.84a18.1 18.1 0 0 1 .27-1.82 18.937 18.937 0 0 1 1.855-5.18c.29-.543.606-1.07.946-1.578.34-.512.707-1.004 1.097-1.48a18.504 18.504 0 0 1 2.598-2.598c.476-.39.969-.758 1.48-1.098.508-.34 1.036-.656 1.578-.945.54-.29 1.094-.555 1.665-.79a19.414 19.414 0 0 1 1.73-.62c.59-.176 1.184-.325 1.785-.446a18.1 18.1 0 0 1 1.82-.27 18.13 18.13 0 0 1 1.84-.09c.614 0 1.227.028 1.84.09a18.1 18.1 0 0 1 1.82.27c.602.121 1.196.27 1.786.446.586.18 1.164.386 1.73.62.57.235 1.125.5 1.664.79.543.289 1.07.605 1.578.945.512.34 1.004.707 1.48 1.098a18.503 18.503 0 0 1 2.598 2.597c.391.477.758.97 1.098 1.48.34.509.656 1.036.945 1.579a18.232 18.232 0 0 1 1.406 3.395c.18.59.329 1.183.45 1.785.121.605.21 1.21.27 1.82.058.613.09 1.226.09 1.84Zm0 0"/>
  <use xlink:href="#r" x="606.256" y="208.552" fill="#f1e3b8"/>
  <path fill="#1B2C43" d="M668.793 223.18c0 .613-.031 1.226-.094 1.84a18.916 18.916 0 0 1-.715 3.605c-.18.586-.386 1.164-.62 1.734a18.402 18.402 0 0 1-.786 1.66 19.041 19.041 0 0 1-2.043 3.06c-.39.476-.805.929-1.238 1.362a18.639 18.639 0 0 1-2.84 2.332c-.512.344-1.039.657-1.578.946-.543.293-1.098.554-1.664.789-.57.234-1.145.441-1.735.62-.585.177-1.183.325-1.785.446-.601.121-1.21.211-1.82.27-.613.062-1.223.09-1.84.09-.613 0-1.226-.028-1.836-.09a17.775 17.775 0 0 1-1.82-.27c-.606-.12-1.2-.27-1.785-.445a19.06 19.06 0 0 1-1.735-.621 17.962 17.962 0 0 1-1.664-.79 19.286 19.286 0 0 1-3.059-2.04 18.587 18.587 0 0 1-2.598-2.602c-.39-.474-.753-.967-1.097-1.474a19 19 0 0 1-2.351-4.977c-.18-.59-.328-1.184-.45-1.785a20.443 20.443 0 0 1-.269-1.82 19.337 19.337 0 0 1-.09-1.84c0-.614.032-1.227.09-1.836a18.716 18.716 0 0 1 1.34-5.34 18.99 18.99 0 0 1 .785-1.664 18.93 18.93 0 0 1 2.043-3.059c.39-.472.8-.93 1.234-1.363.438-.434.891-.844 1.364-1.234a18.93 18.93 0 0 1 4.723-2.832 17.926 17.926 0 0 1 1.734-.618 18.352 18.352 0 0 1 3.605-.718c.61-.059 1.223-.09 1.836-.09.617 0 1.227.031 1.84.09a18.64 18.64 0 0 1 3.605.719 18.305 18.305 0 0 1 3.399 1.406c.539.289 1.066.605 1.578.945a19.268 19.268 0 0 1 2.84 2.332c.433.434.848.89 1.238 1.363a19.286 19.286 0 0 1 2.043 3.059 18.99 18.99 0 0 1 1.406 3.394c.176.59.328 1.184.446 1.79.12.601.21 1.206.27 1.82.062.61.093 1.222.093 1.836Zm0 0"/>
  <use xlink:href="#s" x="643.765" y="228.057" fill="#f1e3b8"/>
  <path fill="#1B2C43" d="M495.121 975.332H352.586l52.516-52.602h180.043l52.515 52.602ZM495.121 30.008h142.54l-52.516 52.601H405.102l-52.516-52.601ZM907.996 259.21l71.27 123.442-71.813-19.175L817.43 207.55l19.3-71.778ZM97.254 737.125l-71.27-123.438 71.813 19.176 90.023 155.922-19.3 71.781ZM97.254 259.21l71.266-123.437 19.3 71.778-90.023 155.926-71.813 19.175ZM915.5 737.125l-71.27 123.441-19.296-71.78 90.023-155.923 71.809-19.176Zm0 0"/>
</svg>