<?xml version="1.0" encoding="UTF-8" standalone="no"?>
<svg
   viewBox="0 0 327.02365 111.9955"
   height="111.99551"
   width="327.02365"
   xml:space="preserve"
   id="svg2"
   version="1.1"
   xmlns="http://www.w3.org/2000/svg"
   xmlns:svg="http://www.w3.org/2000/svg"
   xmlns:rdf="http://www.w3.org/1999/02/22-rdf-syntax-ns#"
   xmlns:cc="http://creativecommons.org/ns#"
   xmlns:dc="http://purl.org/dc/elements/1.1/"><metadata
     id="metadata8"><rdf:RDF><cc:Work
         rdf:about=""><dc:format>image/svg+xml</dc:format><dc:type
           rdf:resource="http://purl.org/dc/dcmitype/StillImage" /></cc:Work></rdf:RDF></metadata><defs
     id="defs6"><clipPath
       id="clipPath422"
       clipPathUnits="userSpaceOnUse"><path
         id="path420"
         d="M 0,0 H 595.276 V 841.89 H 0 Z" /></clipPath></defs><g
     id="g416"
     transform="matrix(1.3333333,0,0,-1.3333333,-234.02854,1075.4045)"><g
       clip-path="url(#clipPath422)"
       id="g418"><g
         transform="translate(230.7914,767.4828)"
         id="g424"><path
           id="path426"
           style="fill:#1d212f;fill-opacity:1;fill-rule:nonzero;stroke:none"
           d="m 0,0 c 0,7.792 -2.882,14.028 -8.563,18.528 -5.385,4.278 -12.593,6.447 -21.425,6.447 -5.755,0 -12.799,-0.124 -21.533,-0.379 l -3.749,-0.12 c 0,0 2.591,-0.422 4.407,-1.654 1.816,-1.231 2.621,-3.796 2.621,-3.796 0,0 11.656,0.094 11.939,0.123 h 5.099 c 13.923,0 20.707,-6.555 20.742,-20.033 -0.032,-12.587 -5.952,-19.132 -18.072,-19.944 -0.86,-0.059 -1.748,-0.089 -2.67,-0.089 h -5.099 c -0.147,0.015 -3.374,0.048 -6.435,0.075 h -5.52 c -0.114,-0.34 -0.928,-2.612 -2.605,-3.749 -0.637,-0.432 -1.369,-0.763 -2.051,-1.013 -1.263,-0.461 -2.356,-0.641 -2.356,-0.641 l 2.356,-0.074 1.393,-0.045 c 6.017,-0.176 11.23,-0.29 15.774,-0.343 2.052,-0.025 3.968,-0.037 5.759,-0.037 0.189,0 0.372,0.008 0.56,0.01 0.189,-0.003 0.381,-0.01 0.568,-0.01 h 10e-4 l 0.083,0.026 c 8.011,0.187 14.632,2.214 19.704,6.043 l 0.048,0.013 c 0.071,0.057 0.136,0.117 0.207,0.175 0.084,0.064 0.171,0.125 0.254,0.19 l 0.019,0.042 c 5.242,4.346 8.087,10.511 8.481,18.349 0,0 0.063,1.607 0.063,1.906" /></g><g
         transform="translate(412.7269,786.5085)"
         id="g428"><path
           id="path430"
           style="fill:#1d212f;fill-opacity:1;fill-rule:nonzero;stroke:none"
           d="m 0,0 c 0,0 -11.657,0.095 -11.939,0.123 h -5.1 c -12.656,0 -19.413,-5.417 -20.564,-16.527 l 17,-0.022 c 1.753,0 3.02,0.262 3.988,0.756 0.722,0.368 1.428,1.089 1.826,1.928 0.397,0.84 0.497,1.492 0.497,1.492 h 0.222 v -7.66 -7.66 h -0.222 c 0,0 -0.1,0.652 -0.497,1.492 -0.398,0.84 -1.104,1.561 -1.826,1.929 -0.968,0.493 -2.235,0.756 -3.988,0.756 l -16.998,-0.023 c 1.067,-10.3 6.954,-15.705 17.893,-16.438 0.859,-0.058 1.747,-0.088 2.669,-0.088 h 5.1 c 0.147,0.014 3.374,0.047 6.435,0.074 h 5.519 c 0.115,-0.339 0.928,-2.611 2.606,-3.749 0.637,-0.432 1.369,-0.763 2.052,-1.013 1.262,-0.461 2.354,-0.641 2.354,-0.641 l -2.354,-0.074 -1.395,-0.044 c -6.016,-0.177 -11.23,-0.29 -15.774,-0.344 -2.052,-0.025 -3.968,-0.036 -5.758,-0.036 -0.189,0 -0.373,0.007 -0.56,0.009 -0.189,-0.003 -0.382,-0.009 -0.569,-0.009 h -0.001 l -0.083,0.026 c -8.01,0.186 -14.631,2.213 -19.703,6.042 l -0.049,0.013 c -0.071,0.057 -0.136,0.117 -0.206,0.175 -0.084,0.064 -0.171,0.126 -0.254,0.191 l -0.019,0.041 c -5.242,4.346 -8.088,10.512 -8.481,18.349 0,0 -0.064,1.607 -0.064,1.906 0,7.793 2.882,14.028 8.564,18.528 5.384,4.278 12.593,6.447 21.425,6.447 5.755,0 12.798,-0.124 21.532,-0.379 L 7.027,5.45 c 0,0 -2.59,-0.422 -4.406,-1.653 C 0.805,2.566 0,0 0,0" /></g><g
         transform="translate(210.1048,766.5983)"
         id="g432"><path
           id="path434"
           style="fill:#1d212f;fill-opacity:1;fill-rule:nonzero;stroke:none"
           d="m 0,0 c 0,-6.188 -5.015,-11.202 -11.203,-11.202 -6.187,0 -11.203,5.014 -11.203,11.202 0,6.187 5.016,11.203 11.203,11.203 C -5.015,11.203 0,6.187 0,0" /></g><g
         transform="translate(293.948,792.2224)"
         id="g436"><path
           id="path438"
           style="fill:#1d212f;fill-opacity:1;fill-rule:nonzero;stroke:none"
           d="m 0,0 h -7.615 -7.66 -0.024 -0.023 v -0.223 l 0.023,-0.004 0.184,-0.028 c 0.242,-0.053 0.737,-0.182 1.332,-0.465 0.84,-0.397 1.561,-1.104 1.929,-1.825 0.358,-0.703 0.593,-1.565 0.696,-2.655 0.008,-0.201 0.013,-0.408 0.013,-0.621 l 0.099,-24.536 c 0,-10.686 -4.449,-15.881 -13.605,-15.881 -5.392,0 -9.304,1.328 -11.63,3.949 -2.369,2.665 -3.57,7.039 -3.57,12.998 l -0.002,22.741 c 0.002,1.753 0.267,3.021 0.762,3.987 0.37,0.72 1.092,1.426 1.932,1.823 0.596,0.28 1.092,0.411 1.333,0.464 l 0.149,0.022 v 0.007 c 0.002,0 0.01,0.002 0.01,0.002 v 0.221 l -9.463,0.013 v 0 l -8.242,0.004 v -0.247 l 0.024,-0.003 0.607,-0.093 c 0.259,-0.077 0.592,-0.193 0.967,-0.372 0.839,-0.398 1.559,-1.106 1.926,-1.828 0.234,-0.462 0.415,-0.995 0.541,-1.612 0.073,-0.515 0.16,-1.605 0.16,-2.219 l -0.025,-24.202 c 0,-14.558 7.816,-21.938 23.229,-21.938 7.237,0 12.882,2.056 16.778,6.113 3.792,3.956 5.086,9.574 5.086,16.701 l -0.052,23.173 c 0,1.753 0.263,3.021 0.756,3.989 0.369,0.721 1.09,1.428 1.929,1.825 0.839,0.398 1.492,0.497 1.492,0.497 V 0 Z" /></g><g
         transform="translate(301.4726,740.8882)"
         id="g440"><path
           id="path442"
           style="fill:#1d212f;fill-opacity:1;fill-rule:nonzero;stroke:none"
           d="m 0,0 h 7.614 0.001 7.66 0.023 0.024 v 0.222 l -0.024,0.004 -0.184,0.028 c -0.24,0.053 -0.737,0.184 -1.331,0.465 -0.84,0.398 -1.561,1.104 -1.929,1.826 -0.358,0.702 -0.593,1.566 -0.696,2.655 -0.009,0.202 -0.013,0.408 -0.013,0.622 l -0.1,24.533 c 0,10.687 4.45,15.882 13.606,15.882 5.391,0 9.304,-1.327 11.63,-3.948 2.369,-2.666 3.57,-7.04 3.57,-12.998 L 39.853,6.55 C 39.851,4.798 39.586,3.53 39.091,2.562 38.722,1.841 37.999,1.136 37.159,0.74 36.564,0.459 36.067,0.329 35.826,0.276 L 35.677,0.254 V 0.247 C 35.674,0.246 35.667,0.245 35.667,0.245 L 35.666,0.023 45.13,0.011 v 0 L 53.372,0.007 V 0.253 L 53.348,0.257 52.74,0.35 c -0.259,0.077 -0.591,0.194 -0.966,0.371 -0.839,0.399 -1.559,1.108 -1.926,1.829 -0.234,0.461 -0.415,0.993 -0.541,1.613 -0.072,0.513 -0.16,1.604 -0.16,2.218 l 0.025,24.201 c 0,14.558 -7.816,21.94 -23.23,21.94 -7.237,0 -12.881,-2.058 -16.777,-6.114 C 5.373,42.453 4.079,36.834 4.079,29.705 L 4.131,6.533 C 4.131,4.781 3.868,3.513 3.375,2.545 3.007,1.823 2.285,1.117 1.446,0.719 0.607,0.322 -0.046,0.222 -0.046,0.222 V 0 Z" /></g><g
         transform="translate(207.2547,780.6934)"
         id="g444"><path
           id="path446"
           style="fill:#1d212f;fill-opacity:1;fill-rule:nonzero;stroke:none"
           d="m 0,0 c -1.159,0 -2.099,-0.94 -2.099,-2.099 0,-1.16 0.94,-2.099 2.099,-2.099 1.159,0 2.099,0.939 2.099,2.099 C 2.099,-0.94 1.159,0 0,0" /></g><g
         transform="translate(192.3142,759.8262)"
         id="g448"><path
           id="path450"
           style="fill:#1d212f;fill-opacity:1;fill-rule:nonzero;stroke:none"
           d="m 0,0 c -1.773,0 -3.21,-1.438 -3.21,-3.21 0,-1.774 1.437,-3.211 3.21,-3.211 1.773,0 3.211,1.437 3.211,3.211 C 3.211,-1.438 1.773,0 0,0" /></g></g></g><text
     id="text454"
     style="font-variant:normal;font-weight:900;font-stretch:normal;font-size:10.6043px;font-family:'Lato Black';-inkscape-font-specification:Lato-Black;writing-mode:lr-tb;fill:#587fc0;fill-opacity:1;fill-rule:nonzero;stroke:none;stroke-width:1.33333"
     x="-0.12001184"
     y="109.79491"><tspan
       id="tspan452"
       y="109.79491"
       x="-0.12001184 8.9678478 13.3262 22.779905 32.228302 44.317169 52.302185 56.660553 67.201172 74.852142 79.21051 87.890106 98.430756 108.57904 119.13028 128.98163 136.96664 144.75018 152.44888 156.90268 161.26102 171.23962 176.44635 185.09943 192.38455 202.92517 215.01404 224.20795 233.0625 241.62546 245.98383 255.66553 260.02383 269.02689 277.01187 285.37869 294.25443 302.85977 311.03036 320.47879"
       style="stroke-width:1.33333">A GAME OF CONQUEST, DIPLOMACY &amp; BETRAYAL</tspan></text><text
     id="text458"
     style="font-variant:normal;font-weight:900;font-stretch:normal;font-size:7.45147px;font-family:'Lato Black';-inkscape-font-specification:Lato-Black;writing-mode:lr-tb;fill:#587fc0;fill-opacity:1;fill-rule:nonzero;stroke:none;stroke-width:1.33333"
     x="111.19464"
     y="5.5303869"><tspan
       id="tspan456"
       y="5.5303869"
       x="111.19464 116.85031 123.75784 129.14523 131.98425 137.23007 143.08694 146.52206 152.52048 157.9079 160.74692 169.01804 175.71692 180.96274 186.39114 189.23013 194.5654 199.461 206.50711"
       style="stroke-width:1.33333">THE SPICE MUST FLOW</tspan></text></svg>
