<svg xmlns="http://www.w3.org/2000/svg" id="root" width="1200" height="1200" viewBox="0 0 9000 9000">
  <path
    d="M4392 7970c-73-16-137-59-235-159-204-208-327-383-327-464 0-18 11-86 25-152 75-363 58-490-119-862-97-205-127-275-168-393-28-78-81-301-74-307 2-2 66 33 142 78 148 87 328 179 351 179 34 0-11-237-62-324-37-63-142-159-270-245-268-181-316-231-360-376-30-99-75-308-75-351 0-57 192-322 512-705 384-459 511-594 603-639 44-22 63-25 165-25 142 0 178 15 288 119 210 199 825 950 963 1175l33 54-12 81c-17 117-67 307-99 374-37 78-103 140-284 262-167 114-276 209-315 276-50 84-94 324-61 324 23 0 203-92 351-179 76-45 140-80 142-78 7 6-46 229-74 307-41 118-71 188-168 393-177 373-195 499-119 862 14 66 25 134 25 152 0 81-124 259-323 461-132 134-185 162-318 167-52 2-113 0-137-5zM6840 5769c294-156 425-253 650-478 288-289 394-478 430-764 29-235-17-499-120-684-119-213-273-294-565-296-182-2-263 16-409 91-108 55-338 204-526 342-113 82-224 147-266 156-30 6-38-3-310-318-153-177-370-428-482-557l-204-234 63-56c197-176 365-289 643-432 757-388 1445-430 2055-125 189 94 291 165 412 286 124 123 205 241 307 445 171 344 189 432 179 925-7 356-19 420-115 621-227 472-670 859-1177 1028-190 63-319 87-640 116l-60 6 135-72zM2040 5823c-493-53-906-255-1255-614-162-167-254-296-353-493-110-221-122-279-129-646-9-474 9-574 158-880 119-244 196-359 328-490 122-122 221-191 409-285 658-328 1409-255 2232 218 197 113 375 244 518 382 12 10-21 52-190 246-112 129-329 380-482 557-272 315-280 324-310 318-42-9-153-74-266-156-188-138-418-287-526-342-146-75-227-93-409-91-229 1-358 46-463 158-256 273-307 812-113 1182 139 263 457 579 786 781 190 116 235 146 235 154s-100 9-170 1z" />
</svg>