<svg xmlns="http://www.w3.org/2000/svg" id="root" viewBox="0 0 3280 3280">
   <path
      d="M45.18 81.21c-.08-.1-.2-.54-.31-1.1a8.5 8.5 0 0 0-.35-1.43c-.04-.05-.06-.06-.24-.01-.11.02-.38.12-.6.2-.63.28-1.01.36-1.77.38l-.65.01.2-.2c.55-.59.72-.78.89-1.03a6.33 6.33 0 0 0 .44-5.98 1.93 1.93 0 0 0-.41-.58c-.35-.35-.57-.48-.77-.45-.55.07-1.8 1.36-2.3 2.38-.35.7-.45 1.3-.34 2.12.03.25.05.46.04.47-.01.02-.3-.64-.4-.9a3.07 3.07 0 0 1-.1-.47c-.05-.33-.11-.43-.27-.43-.17 0-.39.16-.56.42-.52.78-.73 2.63-.44 3.94l.04.28c-.04.04-.5-.93-.6-1.22-.36-1.16-.12-2.5.76-4.2.38-.74.7-1.22.94-1.43.28-.25.39-.58.27-.84-.1-.22-.25-.18-1.29.3-1.3.6-2.16.91-3.86 1.38a9.7 9.7 0 0 0-1.86.6c-.55.25-.77.56-.76 1.07 0 .43.19.94.63 1.72a30.36 30.36 0 0 0 1.37 2.1c-.03.03-.89-.37-1.73-.79a28.72 28.72 0 0 1-4.87-3.02 22.9 22.9 0 0 1-3.18-3.28c-.06-.1-.06-.11 0-.1a37.1 37.1 0 0 0 5.36 1.26c.86.11 2.56.12 3.3.02a9.68 9.68 0 0 0 3.95-1.35c1-.63 1.56-1.06 2.23-1.72 2.06-2.07 3.72-4.87 4.13-7.03.22-1.1.4-2.68.49-4.26.07-1.3.09-1.86.13-4.24l.03-2.1-.7-.7a45.86 45.86 0 0 0-3.27-3.04c-.47-.37-.64-.46-.78-.43a4.2 4.2 0 0 0-1.13 1.19 21.61 21.61 0 0 1-4.34 4.36 6.06 6.06 0 0 1-5.6.7 3.5 3.5 0 0 1-.88-.52c0-.01.16.04.33.12a4 4 0 0 0 1.6.34c.64.02.99-.03 1.6-.23 1.19-.4 2.27-1.18 4-2.88l.93-.93.38-.6a14 14 0 0 0 1.5-2.83c.01-.16 0-.17-.2-.35a3.62 3.62 0 0 0-1.56-.7c-.23-.03-.36.04-.4.2-.04.22-.94 1.48-1.5 2.12-1.08 1.2-2.4 1.97-3.2 1.86l-.22-.02.33-.09a3.3 3.3 0 0 0 1.67-.88 12 12 0 0 0 1.85-2.67c.4-.78.51-1.18.35-1.32a2.5 2.5 0 0 0-.37-.2 15.1 15.1 0 0 0-3.81-1.02c-.6-.07-2.24-.07-2.78.02-1.96.3-3.7 1.14-5.42 2.59l-.96.87c-.92.86-1.02.94-1.04.92-.03-.03.42-.67.82-1.17.19-.24.55-.66.81-.93.55-.58.8-.9.79-1.01 0-.06-.06-.1-.2-.13a14.2 14.2 0 0 0-2.14-.12 8.98 8.98 0 0 1-2.11-.16c-.42-.1-1-.38-1.41-.65a9.25 9.25 0 0 1-2.6-2.68c-.16-.3-.19-.46-.1-.54.05-.04.06-.02.08.06.04.2.06.23.2.45a8.48 8.48 0 0 0 2.08 1.93c1.18.7 3.72.85 5.7.34 2.09-.55 4.19-1.76 6.45-3.74 1.7-1.5 3.6-3.43 3.94-4.02.08-.14.1-.2.08-.31-.04-.22-.07-.26-.24-.26-.19 0-.32.07-1.07.56a16.32 16.32 0 0 1-3.91 1.92c-2.31.78-4.4.94-5.85.45a5.57 5.57 0 0 1-3.57-4.55 21.8 21.8 0 0 1-.13-2.15c0-.21.03-.14.18.63.27 1.33.46 1.94.8 2.64.25.49.5.85.85 1.19.48.48 1.01.8 1.7 1 1.5.43 3.86-.13 6.27-1.5 1.2-.68 2.67-1.77 2.98-2.22.1-.14.1-.16.06-.26a7.16 7.16 0 0 0-1.36-1.27c-1.9-1.42-3.15-2-4.4-2-.83 0-1.39.25-1.75.8-.23.33-.3.61-.33 1.25l-.05.57c-.04.04-.21-.44-.25-.7-.1-.57.16-1.31.65-1.84a3.3 3.3 0 0 1 1.94-1c.66-.12.92-.22.92-.34 0-.05-.2-.46-.43-.93a7.93 7.93 0 0 1-.8-2.09 4.8 4.8 0 0 1-.08-1.26c0-.76.01-.91.08-1.25a7.2 7.2 0 0 1 2.14-3.8 9.33 9.33 0 0 0-1.08 3.17 8.1 8.1 0 0 0 .05 2.09c.35 1.58 1.35 2.9 3.23 4.28 1.08.78 2.23 1.37 2.5 1.27.1-.04.05-.54-.12-1.1-.2-.7-.3-1.1-.35-1.52-.21-1.85.79-3.64 2.35-4.2.14-.04.32-.06.7-.07l.52-.01-.55.12c-.86.2-1.18.34-1.53.69-.54.53-.74 1.34-.7 2.83.03.84.08 1.1.37 1.7a11.94 11.94 0 0 0 3.64 4.05c1 .71 2.1 1.36 3.47 2.06 1.68.84 2.68 1.17 2.68.87 0-.09-.24-.66-.7-1.67-1.04-2.22-1.41-3.63-1.36-5.05.06-1.32.45-2.38 1.47-3.96.24-.38.26-.4.2-.46a86.27 86.27 0 0 1-2.35-2.25c-1.56-1.63-2.5-3.45-2.49-4.85 0-.83.36-1.9.89-2.7.14-.21.8-.91.8-.85l-.25.52a5.4 5.4 0 0 0-.3.79 4.88 4.88 0 0 0 .36 3.39c.32.54.93 1.25 1.42 1.65 1.3 1.06 4.16 2.5 4.76 2.4.48-.09.6-.54.32-1.15-.15-.32-.27-.5-.62-.95a6.16 6.16 0 0 1-1.52-4c0-1.72.62-3.27 2.61-6.55.76-1.24.84-1.33 1.05-1.19.2.14.42.47 1.33 2.01 1.27 2.19 1.64 2.92 1.9 3.82.2.63.23.92.23 1.75 0 1.82-.26 2.53-1.6 4.35-.54.73-.74 1.36-.54 1.7.08.1.32.22.49.22.7 0 3.15-1.28 4.6-2.4a5.08 5.08 0 0 0 2-3.82c0-.77-.13-1.27-.5-2.06l-.25-.52c0-.06.66.64.82.87a6 6 0 0 1 .83 2c.3 1.39-.38 3.2-1.86 4.95-.44.52-.83.92-1.86 1.88l-1.03.97-.08.08.27.4c1.1 1.7 1.52 2.98 1.46 4.46-.06 1.36-.4 2.5-1.45 4.76-.67 1.47-.68 1.5-.52 1.57.26.1 1.1-.22 2.61-.97 4.14-2.07 6.59-4.35 7.29-6.79.14-.48.19-.86.19-1.48 0-1.62-.42-2.42-1.45-2.84-.22-.08-.74-.2-1.37-.31-.18-.03-.13-.04.34-.04.64 0 .95.06 1.4.3.38.2.67.43.97.8a4.7 4.7 0 0 1 .71 4c-.04.2-.14.59-.22.87-.1.36-.13.58-.12.72 0 .2.02.2.11.22.4.04 1.82-.77 3.04-1.75.5-.4 1.35-1.25 1.69-1.7.33-.44.54-.85.7-1.31a6.83 6.83 0 0 0-.5-5.4 9.34 9.34 0 0 1-.3-.61c-.04-.13-.04-.14.01-.13a8.88 8.88 0 0 1 1.85 2.96c.27.74.41 1.7.37 2.41a7.16 7.16 0 0 1-.82 2.94c-.36.79-.5 1.1-.5 1.16 0 .09.15.14.81.27.26.05.59.14.74.19 1.22.4 1.96 1.29 1.97 2.33 0 .25-.13 1-.18 1.06a2 2 0 0 1-.1-.5c-.17-1.35-.47-1.82-1.32-2.05a4.6 4.6 0 0 0-1.65.02c-.77.16-1.19.33-1.9.76-1.07.65-2.56 1.8-2.9 2.23a.63.63 0 0 0-.13.26c0 .21 1 1.04 2.15 1.8a13.04 13.04 0 0 0 4.94 2.15c.5.09 1.4.09 1.83 0a4.16 4.16 0 0 0 3.03-2.44c.34-.7.52-1.32.78-2.72l.14-.76v.91c0 1.32-.1 2-.44 2.91a5.48 5.48 0 0 1-2.7 2.99c-.41.2-1.07.43-1.54.52-.46.1-1.65.1-2.22 0-.97-.16-2.14-.5-3.26-.97a29.46 29.46 0 0 1-3.77-1.94c-.48-.34-.75-.37-.83-.08a.57.57 0 0 0-.01.24c.06.27 1.18 1.5 2.42 2.69a29.56 29.56 0 0 0 3.6 3.07c2.6 1.75 4.7 2.48 7.13 2.48 1.12 0 2.04-.21 2.92-.65a5.7 5.7 0 0 0 2.38-2.26c.1-.17.2-.22.15-.08 0 .05-.09.22-.17.38a8.48 8.48 0 0 1-2.24 2.5c-.81.54-1.6.88-2.38 1.02-.37.07-1.38.09-2.75.05-.77-.02-.96 0-1.04.13-.06.08-.06.1.02.26.05.1.28.37.55.66a12.4 12.4 0 0 1 1.79 2.28c-.03 0-.36-.3-1.4-1.27-2.05-1.9-4.13-2.93-6.4-3.17-.62-.07-2.05-.03-2.64.07-1.73.28-3.64.83-3.94 1.13-.2.21.13 1.08.92 2.34 1.06 1.7 1.72 2.27 2.96 2.58l.33.09-.22.03c-.98.12-2.55-.95-3.8-2.61a9.51 9.51 0 0 1-1-1.54c-.26-.18-1.16.1-1.71.51-.26.2-.35.31-.35.44 0 .45 1.77 3.46 2.65 4.5a9.24 9.24 0 0 0 4.63 3 5.8 5.8 0 0 0 1.9.06c.18-.03.38-.08.45-.11.15-.06.28-.07.28-.03 0 .05-.55.33-.89.45a4.58 4.58 0 0 1-3.07-.05c-.86-.3-1.94-.93-2.9-1.7a24.78 24.78 0 0 1-3.54-3.6 7.77 7.77 0 0 0-1.08-1.15c-.13-.07-.23-.04-.52.18-.67.5-1.35 1.12-3.08 2.78l-1.27 1.22.02.25.06 2.06c.06 2.92.1 3.94.26 5.14.26 2.15.9 4.3 2.02 6.77.34.73.58 1.1 1.24 1.93a13.3 13.3 0 0 0 5.01 3.95c2.35.9 6.48.68 10.57-.57.58-.17.73-.2.73-.16 0 .16-2.43 2.52-3.79 3.69-.74.63-1.37 1.04-2.82 1.83-.9.49-3.14 1.63-3.21 1.63-.15 0-.06-.1.79-.98.78-.8 1.2-1.3 1.35-1.6.09-.18.1-.27.12-.55.02-.41-.04-.95-.13-1.1-.1-.15-.35-.26-1.06-.45a41.04 41.04 0 0 1-5.78-2.16 3.64 3.64 0 0 0-.94-.37c-.24-.05-.33 0-.33.16 0 .18.12.4.54 1a8.22 8.22 0 0 1 1.46 3.13c.07.33.09.5.09 1.12 0 .93-.06 1.2-.42 1.91-.13.27-.24.48-.25.47-.01-.01.01-.18.06-.38.32-1.51.01-3.32-.7-4.06-.17-.17-.24-.21-.32-.21-.17 0-.23.1-.27.42-.06.41-.37 1.28-.46 1.28-.01 0-.03-.22-.03-.49 0-1.61-.28-2.32-1.34-3.45a4.98 4.98 0 0 0-.98-.84.7.7 0 0 0-.6.02c-.74.37-1.17 1.09-1.36 2.26-.08.52-.08 1.97 0 2.48a4.73 4.73 0 0 0 1.57 2.88l.51.5h-.52c-.53 0-1.1-.06-1.43-.16-.1-.03-.35-.13-.53-.23-.2-.1-.42-.17-.51-.18-.16-.02-.18-.01-.3.1-.14.16-.22.41-.39 1.2a5.91 5.91 0 0 1-.37 1.26c-.01 0-.04 0-.06-.03zm3.9-34.92c.64-.4 1.79-1.17 1.96-1.32l.13-.1-.12-.31-.5-1.15a43.86 43.86 0 0 1-1.52-3.59c-.3-.83-.6-1.4-.74-1.4-.22 0-.4 1.6-.5 4.34-.07 2.31-.01 3.91.16 4.12.05.06.33-.09 1.13-.59zm-6.54.3a9.5 9.5 0 0 0 .29-2.88c-.03-1.07-.08-1.6-.38-3.67-.25-1.7-.24-1.62-.28-1.62-.11 0-.43.61-.71 1.38a42.2 42.2 0 0 1-1.44 3.42 6.88 6.88 0 0 0-.6 1.5c-.03.16-.03.18.1.28.06.07.34.27.62.46l1.03.71a5.6 5.6 0 0 0 1.23.72c.04 0 .08-.08.14-.3zm11.19-3.2c.37-.12.88-.37.99-.48l.08-.1-.17-.5-.56-1.54a25.3 25.3 0 0 1-.99-2.95c-.2-.81-.28-1.01-.42-1.16-.1-.11-.15-.13-.28-.13a.9.9 0 0 0-.31.07c-.15.07-.88.6-.92.66-.03.05.2.98.58 2.4.6 2.16 1 3.38 1.25 3.72.11.15.11.15.3.13l.45-.12zm-16.32 0c.27-.17.5-.8 1.23-3.34.44-1.5.57-2.08.6-2.46l.02-.33-.25-.23a1.6 1.6 0 0 0-.97-.5c-.32-.01-.39.06-.45.46a35.3 35.3 0 0 1-1.61 4.87 1.9 1.9 0 0 0-.24.75l-.02.25.15.14c.15.14.54.32.92.43.22.06.5.05.62-.03zM57.45 42c1.24-.3 1.78-.38 3.24-.46.96-.05 1.38-.1 1.47-.2.03-.03.03-.07-.02-.14-.08-.15-.76-.73-1.55-1.32a45.7 45.7 0 0 1-3.69-3.16c-1.31-1.24-1.87-1.67-2.15-1.67-.21 0-.21.07-.02 1.04l.3 1.6c.4 2.29.68 3.58.85 4.05.1.26.24.44.36.46.16.04.5-.02 1.21-.2zm-23.05.05c.18-.2.28-.51.54-1.71.34-1.63.85-4.26 1-5.17.02-.1 0-.11-.1-.13a1.26 1.26 0 0 0-.2-.03c-.18 0-.94.63-2.05 1.67a54.32 54.32 0 0 1-4.26 3.63c-.63.49-1.04.89-1.03.98.02.1.43.19 1.13.23a15.6 15.6 0 0 1 3.84.56c.28.07.5.1.7.1.3.01.3.01.43-.13zm11.09-5.43c.43-.25 1.4-1.9 2.25-3.78a21.72 21.72 0 0 0 1.33-3.59 3.6 3.6 0 0 0-.1-2.4 3.56 3.56 0 0 0-2.7-2.5 5.92 5.92 0 0 0-1.69-.07 4 4 0 0 0-2.68 1.71c-.7 1.06-.79 2.02-.38 3.64a25.3 25.3 0 0 0 2.43 5.62c.77 1.35 1.09 1.63 1.54 1.37zm.62-18.44a2.69 2.69 0 0 0 1.74-1.66c.2-.55.21-1.54.04-2.2a2.22 2.22 0 0 0-1.45-1.53c-1.3-.47-3.03-.03-3.62.91a3.63 3.63 0 0 0-.3 2.43 2.76 2.76 0 0 0 2.87 2.15c.34-.01.53-.04.72-.1z"
      clip-rule="evenodd" transform="translate(-371.21 -338.3) scale(44.43997)" />
</svg>