<svg xmlns="http://www.w3.org/2000/svg" id="root" viewBox="203 8 2875 3264">
  <path
    d="M1637 3271c-4-5-9-24-14-49a378 378 0 0 0-16-64c-2-2-2-2-10 0l-27 9c-28 12-45 16-79 17h-29l9-9c25-26 32-35 40-46a281 281 0 0 0 19-265 86 86 0 0 0-18-26c-15-16-25-22-34-20-25 3-80 60-102 106-16 31-20 57-15 94 1 11 2 20 1 21l-17-40a136 136 0 0 1-5-21c-2-15-5-19-12-19s-17 7-25 18c-23 35-32 117-19 175l2 13c-2 2-23-41-27-54-16-52-5-111 34-187 17-33 31-54 41-64 13-11 18-25 12-37-4-10-11-8-57 13-58 27-96 41-171 62a431 431 0 0 0-83 26c-25 12-34 25-34 48 0 19 9 42 28 76a1349 1349 0 0 0 61 94c-1 1-40-17-77-35a1276 1276 0 0 1-216-135 1018 1018 0 0 1-142-145c-2-5-2-5 0-5a1649 1649 0 0 0 239 56c38 5 113 6 146 1a430 430 0 0 0 176-60c44-28 69-47 99-76 91-92 165-217 183-313 10-49 18-119 22-189 3-58 4-83 6-188l1-94-31-31a2038 2038 0 0 0-145-135c-21-16-29-20-35-19a187 187 0 0 0-50 53 960 960 0 0 1-193 194 269 269 0 0 1-249 31 156 156 0 0 1-39-23c0-1 7 1 15 5a178 178 0 0 0 71 15c28 1 44-1 71-10 53-18 101-53 178-128l41-42 17-26a622 622 0 0 0 67-126c0-7 0-8-9-16a161 161 0 0 0-70-31c-10-1-16 2-17 9-2 10-42 66-67 94-48 54-107 88-142 83l-10-1 15-4a147 147 0 0 0 74-39 533 533 0 0 0 82-118c18-35 23-53 16-59a111 111 0 0 0-17-9 671 671 0 0 0-169-45c-27-3-100-3-124 1-87 13-164 50-241 115l-42 38c-41 38-46 42-46 41a686 686 0 0 1 72-93c24-26 36-40 35-45 0-3-3-4-9-6a631 631 0 0 0-95-5 399 399 0 0 1-94-7c-18-5-44-17-62-29a411 411 0 0 1-116-119c-7-14-8-21-4-24 2-2 2-1 3 2 2 9 3 11 9 20a377 377 0 0 0 93 86c52 31 165 38 253 15 93-24 186-78 287-166 75-67 160-152 175-179 3-6 4-8 3-13-2-10-3-12-10-12-9 0-15 3-48 25a725 725 0 0 1-174 85 429 429 0 0 1-260 20 248 248 0 0 1-158-202 969 969 0 0 1-6-95c0-10 1-7 8 28 12 59 20 86 35 117 11 22 23 38 38 53 21 21 45 35 76 44 66 19 171-6 278-66 54-31 119-79 133-99 4-6 4-7 2-12a318 318 0 0 0-60-56c-84-63-140-89-196-89-36 0-61 11-77 36-11 14-14 27-15 55l-2 25c-2 2-10-19-11-31-5-25 7-58 29-81a147 147 0 0 1 86-45c29-5 41-10 41-15l-19-41a352 352 0 0 1-36-93 213 213 0 0 1-4-56c0-34 1-41 4-56a320 320 0 0 1 95-169 415 415 0 0 0-48 141 360 360 0 0 0 2 93c16 70 60 129 144 190 48 35 99 61 111 57 4-2 2-24-5-49-9-31-14-49-16-68-9-82 35-161 105-186 6-2 14-3 31-3l23-1-25 6c-38 8-52 15-68 30-24 24-33 60-31 126 2 37 4 49 17 75a531 531 0 0 0 161 180c45 32 94 61 155 92 74 37 119 52 119 39 0-4-11-30-31-75-47-98-63-161-61-224 3-59 20-106 65-176 11-17 12-18 9-20a3834 3834 0 0 1-104-100c-69-73-111-154-111-216 0-37 16-84 40-120 6-9 35-40 35-38l-11 23a240 240 0 0 0-13 36 217 217 0 0 0 16 150c14 24 41 56 63 74 58 47 185 111 212 106 21-4 26-24 14-51-7-14-12-22-28-42a274 274 0 0 1-67-178c0-76 27-145 116-291 33-55 37-59 46-53s19 21 59 89c57 98 73 130 85 170 9 28 10 41 10 78 0 81-11 112-71 193-24 33-33 61-24 76 4 4 14 10 22 10 31 0 140-57 204-107a226 226 0 0 0 89-170c0-34-6-56-22-91l-11-23c0-3 29 28 36 38a267 267 0 0 1 37 89c13 62-17 142-83 220-19 23-36 41-82 84l-46 43-4 3 12 18c49 76 68 132 65 198-2 61-17 111-64 212-30 65-30 66-23 70 11 4 49-10 116-44 184-92 293-193 324-301 6-22 8-39 8-66 0-72-18-108-64-126-10-4-33-9-61-14-8-1-6-2 15-2 28 0 42 3 62 13 17 9 30 20 43 36a209 209 0 0 1 32 178l-10 38c-4 16-6 26-5 32 0 9 1 9 5 10a531 531 0 0 0 210-153c14-20 24-38 31-58a304 304 0 0 0-22-240 415 415 0 0 1-14-27c-1-6-1-7 1-6a395 395 0 0 1 82 131c12 33 18 76 16 107a318 318 0 0 1-36 131c-16 35-22 49-22 52 0 4 7 6 36 12a313 313 0 0 1 33 8c54 18 87 57 87 104 0 11-6 44-8 47a89 89 0 0 1-4-22c-8-60-21-81-59-92a204 204 0 0 0-73 1c-34 7-53 15-85 34-47 29-113 80-128 99a28 28 0 0 0-6 12c0 9 44 46 95 80a580 580 0 0 0 220 95c22 4 62 4 81 0a185 185 0 0 0 135-108c15-31 23-59 34-121l7-34v41c0 58-5 89-20 129a244 244 0 0 1-120 133c-18 9-47 19-68 23s-74 4-99 0c-43-7-95-22-145-43a1309 1309 0 0 1-167-86c-22-15-34-17-37-4a25 25 0 0 0-1 11c3 12 53 66 108 119a1314 1314 0 0 0 160 137 539 539 0 0 0 317 110c49 0 90-9 129-29a253 253 0 0 0 106-100c5-8 9-10 7-4l-8 17a377 377 0 0 1-99 111c-36 24-71 39-106 45-16 4-61 4-122 3-34-1-43 0-46 5-3 4-3 5 0 12l25 29a551 551 0 0 1 79 102l-62-57a488 488 0 0 0-284-141 607 607 0 0 0-293 54c-8 9 6 48 41 104 47 75 77 100 132 114l15 4-10 2c-44 5-114-43-169-116a423 423 0 0 1-45-69c-11-8-51 5-76 23-11 9-15 14-15 19 0 20 79 154 118 200a411 411 0 0 0 205 134 258 258 0 0 0 85 2c8-1 17-3 20-5 7-2 12-3 12-1s-24 15-39 20a204 204 0 0 1-137-2c-38-13-86-41-129-76a1101 1101 0 0 1-157-160 345 345 0 0 0-48-51c-6-3-10-2-23 8-30 22-60 50-137 124l-56 54 1 11 2 92c3 129 5 175 12 228 11 96 40 191 90 301 15 32 25 49 55 86a591 591 0 0 0 222 175c105 40 288 30 470-25 26-8 32-9 32-7 0 7-108 112-168 164-33 28-61 46-125 81-40 22-140 73-143 73-7 0-3-5 35-44 35-36 54-58 60-71 4-8 5-12 6-25 0-18-2-42-6-48-5-7-16-12-47-20a1824 1824 0 0 1-257-96 162 162 0 0 0-42-17c-11-2-15 0-15 7 0 8 6 18 24 45a365 365 0 0 1 65 139c3 14 4 22 4 50 0 41-2 53-18 84-6 12-11 22-12 21l3-17c14-67 1-147-31-180-8-8-11-9-14-9-8 0-10 4-12 18-3 19-17 57-21 57l-1-22c0-71-12-103-60-153a221 221 0 0 0-43-37 31 31 0 0 0-27 1c-33 16-52 48-60 100-4 23-4 88 0 110a210 210 0 0 0 70 128l22 23h-23c-23 0-49-3-63-8-5-1-16-5-24-10l-23-8c-7-1-8 0-13 5-6 7-10 18-17 53a263 263 0 0 1-17 56l-2-1zm173-1552c28-18 79-52 87-59l6-4-6-14-22-51a1949 1949 0 0 1-67-160c-14-37-27-62-33-62-10 0-18 71-22 193-4 103-1 174 7 183 2 3 14-4 50-26zm-291 13a422 422 0 0 0 13-128c-1-47-3-71-17-163-11-75-10-72-12-72-5 0-19 27-32 61a1875 1875 0 0 1-64 152 306 306 0 0 0-26 67c-2 7-2 8 4 13 3 3 15 12 28 20l45 31a249 249 0 0 0 55 32c2 0 4-3 6-13zm498-142c16-5 39-16 44-21l3-5-7-22-25-68a1124 1124 0 0 1-44-132c-9-36-13-44-19-51-4-5-7-6-12-6a40 40 0 0 0-14 3c-7 3-39 27-41 30-1 2 9 43 26 106 26 96 44 150 55 166 5 6 5 6 14 5zm-726 0c12-8 23-36 55-148 20-67 25-93 27-110l1-14-12-11a71 71 0 0 0-43-22c-14 0-17 3-20 21a1569 1569 0 0 1-71 216 84 84 0 0 0-11 33l-1 11 7 7c7 6 24 14 41 19 10 2 22 2 27-2zm891-62c55-13 79-17 144-20 43-2 61-5 65-9 2-1 2-3-1-6-3-7-33-33-69-59a2031 2031 0 0 1-164-140c-58-56-83-75-95-75-9 0-9 3-1 47l13 71c18 101 31 159 38 180 5 11 11 19 16 20 7 2 22-1 54-9zm-1024 2c8-8 12-22 24-76 15-72 37-189 44-229 1-5 0-5-4-6a56 56 0 0 0-9-1c-8 0-42 28-91 74a2414 2414 0 0 1-190 161c-28 22-46 40-46 44 1 4 20 8 51 10a693 693 0 0 1 170 25c13 3 23 4 31 4 14 1 14 1 20-6zm492-241c19-11 63-84 100-168a965 965 0 0 0 59-159 160 160 0 0 0-4-107 158 158 0 0 0-120-111 263 263 0 0 0-75-3 178 178 0 0 0-119 76c-31 47-35 89-17 161a1124 1124 0 0 0 108 250c34 60 48 73 68 61zm28-819a120 120 0 0 0 77-74c9-25 10-69 2-98a99 99 0 0 0-64-68c-58-21-135-1-161 41a161 161 0 0 0-14 108 123 123 0 0 0 128 95c15 0 23-2 32-4z"
  />
</svg>
