<svg xmlns="http://www.w3.org/2000/svg" id="root" viewBox="100 120 11830 11822">
  <path
    d="M5557 11518a78400 78400 0 0 1-1403-1438l-195-205c-185-195-339-369-339-383 0-39 146-202 234-260 78-52 94-58 121-41 85 52 588 538 1390 1346 336 337 617 614 625 613 22 0 45-23 935-895 440-432 653-639 740-720 241-225 421-385 477-422 38-25 38-25 90-8 65 21 127 63 201 136 48 49 57 63 57 94 0 66-54 150-213 335-149 171-2203 2220-2255 2248l-43 24-422-424z"
  />
  <path
    d="M1355 10751c-65-8-174-60-239-113a1745 1745 0 0 1-504-728 673 673 0 0 1-47-284c0-122 10-188 36-238 5-10 9-22 9-28 0-24 45-103 66-117 33-21 163-43 263-43 46 0 113-5 150-11 135-23 150-33 507-346 66-58 85-75 163-141l65-57 81-70 75-65 75-65 100-86 115-99 110-94a17993 17993 0 0 1 645-511c125-94 416-325 458-364 63-58 64-65 21-129-21-32-103-140-184-242-256-323-280-362-280-440 0-51 26-111 59-137 110-88 287-163 385-163 61 0 101 22 164 89 50 52 151 204 201 301 79 152 90 154 261 42l60-42c3-3 57-42 120-85 63-44 122-85 130-92 144-116 244-173 302-173 88 0 190 68 374 247 258 252 358 345 469 438 85 71 213 194 237 227 19 28 19 30 2 56-26 40-205 215-430 418-226 205-319 301-345 359-16 35-16 42-3 75 25 60 75 136 159 243 136 172 195 270 195 325 0 95-189 242-311 242-37 0-47-6-99-61-33-33-114-128-182-212-139-173-240-282-280-303-24-13-32-13-55 0-24 12-136 99-290 224a67650 67650 0 0 1-589 468l-354 273c-93 71-455 343-595 446-325 240-402 301-490 386-55 54-116 124-135 155l-35 58 3 113c3 127-4 150-63 202-111 98-387 174-550 152z"
  />
  <path
    d="M10735 10751c-66-11-238-67-284-93-42-23-88-65-103-92-18-34-37-129-38-189 0-123-40-181-229-335l-111-92c-3-3-45-37-95-75l-105-82c-56-45-420-327-540-418-218-166-519-405-570-454-100-96-760-594-837-633-62-30-63-30-90-13-16 10-31 23-35 29-5 9-115 152-151 196l-72 95c-81 107-100 130-171 203-60 61-63 63-100 56-48-8-144-55-204-99-97-72-130-130-108-194 20-60 102-169 223-300 142-153 178-205 171-245-13-64-122-177-586-606l-339-315-156-145-150-140-160-150-105-100-295-279c-157-147-294-279-516-495a50022 50022 0 0 0-1269-1206l-255-235c-222-205-616-564-739-675-242-216-539-497-921-870a26078 26078 0 0 0-615-589c-329-302-612-620-635-714-5-19-1-29 16-41 59-41 188-7 436 115 162 80 224 120 440 283 208 157 180 137 698 496l403 281a261304 261304 0 0 0 1432 999 36902 36902 0 0 1 651 465l344 244c153 107 193 134 820 564a37094 37094 0 0 1 975 687c3 3 55 41 115 83 183 128 309 217 335 237l110 79a21450 21450 0 0 1 481 346 1826 1826 0 0 1 134 99l165 126c144 112 202 150 228 150 27 0 58-38 77-95 31-93 141-270 214-342 117-117 261-122 479-16 91 44 144 136 146 252l1 57-195 245c-313 391-314 392-282 436 11 16 46 49 77 73l133 105 88 70 50 41c253 204 664 547 729 607a22962 22962 0 0 0 645 553l115 99 170 150c155 139 236 199 311 231 69 30 175 44 321 44 211 0 239 16 269 155 28 129 12 484-27 603-24 73-142 263-221 358-189 225-329 355-433 399-47 19-187 28-260 16zM1934 7833A37891 37891 0 0 1 172 6075c-40-44-72-86-72-94 0-30 205-246 830-871 625-626 1000-989 1234-1195 106-94 105-93 158-57 24 16 77 62 118 102 41 39 105 94 143 122 53 40 67 56 67 77 0 53-85 161-320 405l-115 121-400 407c-575 581-769 782-858 887-43 51-48 89-17 129 48 61 214 225 764 757 424 411 666 676 666 730-1 21-4 27-65 100-64 76-241 215-274 215-5 0-49-35-97-77z"
  />
  <path
    d="M9964 7762a832 832 0 0 1-151-169c-22-39-15-97 19-160 64-118 126-186 689-757 196-199 389-397 429-441 82-90 150-189 150-218 0-37-95-137-975-1027-221-223-419-427-440-455l-58-70c-27-30-77-135-77-162 0-66 80-154 228-254 77-51 116-60 159-36 64 36 504 459 1144 1100 541 541 849 863 849 888 0 22-222 252-860 890-659 660-849 836-945 880-60 28-114 24-161-9zM7409 5536c-130-55-455-270-644-426-67-55-185-179-185-195 0-25 56-101 93-126l37-29a42403 42403 0 0 0 304-218 36557 36557 0 0 1 366-259c18-15 273-193 510-356l180-127c3-4 169-118 370-255a8999 8999 0 0 0 645-460 13029 13029 0 0 1 440-310c117-80 353-245 481-338a17320 17320 0 0 0 314-224c8-7 98-71 200-143 102-71 214-151 249-177 133-97 519-349 582-381 70-34 160-62 270-82 139-25 144 24 21 215-85 132-194 254-347 389-137 121-386 358-760 725a86983 86983 0 0 1-925 895c-124 120-400 380-515 486l-130 120-240 220-175 160-115 105-170 156-120 110-120 110-115 105-70 64a30138 30138 0 0 1-189 168c-47 45-124 94-153 98-21 2-53-4-89-20zM5943 3957c-107-81-540-539-697-736-111-139-109-128-43-213 145-190 605-651 754-756 43-30 62-28 114 15 183 154 736 715 793 804 18 29 18 29-10 67-99 129-832 853-864 852-3 0-24-15-47-33z"
  />
  <path
    d="M8250 3093c-65-43-200-175-804-778-822-821-1243-1236-1281-1262-55-38-105-63-126-63-28 0-105 57-225 165a23805 23805 0 0 0-800 764c-485 478-872 855-1061 1033-69 65-97 86-110 81-70-27-286-153-318-187-60-62-72-136-33-203 33-58 128-176 245-303 227-248 1865-1871 2113-2095 76-68 168-125 204-125 46 0 126 29 133 49 8 22 91 119 184 216 43 44 87 91 99 105s400 405 863 870c837 840 950 955 1163 1185 160 172 214 237 214 260 0 24-105 128-185 181-64 43-220 124-239 124-6 0-23-8-36-17z"
  />
</svg>
