<svg xmlns="http://www.w3.org/2000/svg" id="root" viewBox="18 1120 3240 1037">
  <path
    d="M455 2150a521 521 0 0 1-420-375 522 522 0 0 1 989-331c36 78 43 83 93 70 14-4 26-19 34-43a536 536 0 0 1 488-351c214 0 409 132 487 330l27 70h43c40 0 43-2 54-37a522 522 0 0 1 780-274 487 487 0 0 1 227 393c12 198-65 365-217 468-92 63-166 84-295 84-92 1-121-3-177-23a535 535 0 0 1-306-297c-28-68-29-69-67-69-24 0-41 6-45 15-5 8-24 49-43 90a521 521 0 0 1-292 261c-85 33-251 33-344 0-157-55-254-156-329-343-9-23-18-28-45-28-33 0-67 24-67 48 0 39-59 133-124 197a498 498 0 0 1-451 145zm2406-262c55-23 98-66 130-128 32-61 33-176 2-236-68-129-230-189-355-132-206 95-225 371-33 483 80 48 165 52 256 13zm-2214 3c53-25 119-91 144-144 25-56 25-158 0-214a290 290 0 0 0-256-166c-74 1-123 22-180 74a265 265 0 0 0 2 399c24 21 63 45 86 54 60 21 153 20 204-3zm1105 0c98-42 162-141 162-251a269 269 0 0 0-467-184c-45 46-77 127-77 192 0 90 76 202 165 243 54 25 159 25 217 0z"
  />
</svg>
