<svg xmlns="http://www.w3.org/2000/svg" id="root" viewBox="250 100 11540 11838">
  <path
    d="M4865 11928a800 800 0 0 1-335-86c-152-73-317-287-369-478-17-63-15-542 3-624 24-111 93-303 166-465l45-105c34-82 58-136 101-227a8239 8239 0 0 1 179-388 15272 15272 0 0 0 321-693l44-96 44-97c85-182 122-265 151-334 16-38 32-74 37-80 4-5 8-16 8-26 0-48 227-528 287-608l26-33 91 6c50 4 126 12 169 18l77 11v1808c0 1779 0 1808-20 1846l-73 148c-85 172-99 195-155 256-55 60-204 163-299 206-107 49-275 63-498 41zm1935-4c-216-25-448-214-567-460-31-64-32-67-58-154-45-156-45-156-45-1321 0-608 3-1390 7-1738 6-616 7-632 26-643 11-5 70-11 132-12 112-1 113-1 151 30 73 58 157 197 282 464a14933 14933 0 0 1 195 440l42 100 47 110 35 80 78 180c26 58 98 209 160 335 127 258 131 266 180 395l49 124 29 66 35 80 47 110c15 36 39 92 55 125l74 168c16 40 69 196 86 257l20 70c71 231 88 442 46 565-55 159-183 363-283 452a724 724 0 0 1-293 159c-54 12-460 26-530 18zm-3601-778c-5-5-37-13-124-31l-50-14c-11-5-65-23-120-40-157-51-258-104-309-165-147-175-195-301-220-581-14-157 0-339 31-427 50-136 180-281 932-1037 904-910 1089-1100 1130-1158 22-32 21-53-1-53-24 0-216 177-658 605a71074 71074 0 0 1-1095 1045l-150 142-95 88-76 70c-52 50-100 81-144 94-350 100-561 98-789-6-25-12-89-50-141-84-203-133-271-235-345-519-54-205-28-390 87-620 108-217 297-400 475-460l153-56c111-43 125-48 180-72l150-62a8596 8596 0 0 0 225-95c3 0 27-10 53-21 94-43 112-50 152-64s58-21 152-64c26-11 50-21 53-21s24-9 48-19c23-11 101-43 172-71l165-67 55-23 315-127 55-23 55-23 95-40 140-62 100-44 57-25c44-20 154-61 218-83 51-17 98-38 217-95 119-56 158-68 225-68 90 0 159 43 251 160 69 86 101 137 116 183 20 61 104 139 266 247 44 30 91 64 105 77s28 23 32 23 24 21 44 46c40 48 40 53 4 139l-50 125a6516 6516 0 0 1-124 293c-14 32-26 59-26 62s-30 71-90 200-90 197-90 200-11 28-24 57l-46 102c-12 28-42 101-66 164-25 63-53 134-64 158l-40 89-39 88-46 107c-15 36-39 92-55 125-43 91-80 175-80 179l-46 102-59 129-120 260-142 305c-87 187-179 369-210 416a769 769 0 0 1-241 197c-76 44-168 87-187 87-7 0-16 4-19 9s-23 11-43 14c-21 3-60 11-88 17-58 14-188 24-196 16zm5446-8c-189-50-377-135-455-204a1504 1504 0 0 1-360-569 13085 13085 0 0 0-125-320c-74-165-111-246-159-349l-59-126-65-140c-105-225-122-261-122-265l-26-62-41-93-24-52c-5-10-9-26-9-36 0-11-6-32-14-48l-99-204a4338 4338 0 0 1-175-401l-40-89-57-130-70-155c-46-99-102-252-110-303-9-57 10-86 115-173 111-91 253-179 289-179 25 0 51-42 51-80 0-59 65-164 169-273 85-89 130-117 188-117 49 0 160 35 267 84l61 26c3 0 27 10 53 21 95 43 113 50 179 75 38 14 84 32 103 41l58 24 45 18 69 30c26 12 52 21 56 21a1896 1896 0 0 1 205 79l69 30c26 12 50 21 53 21a13263 13263 0 0 0 330 145l145 60 150 62 58 24 97 40 358 143c186 75 353 142 372 151l165 70c238 98 445 226 522 322 92 116 166 275 217 469 14 54 14 220 0 281-55 239-118 364-248 494a941 941 0 0 1-671 270c-168 0-266-34-443-153-186-125-355-280-1012-927-747-736-1075-1041-1121-1041-21 0-17 38 8 73 85 123 360 408 478 495 91 68 211 186 351 347 57 66 316 333 574 595 456 461 549 565 611 680 28 52 37 78 63 176 14 54 14 405 0 458-16 57-20 69-72 176-89 186-219 329-356 392-87 41-96 44-166 58l-95 20c-99 25-272 34-335 18zM980 7948c-239-50-325-94-469-237a935 935 0 0 1-222-313c-38-121-50-337-28-507 20-156 40-221 92-291 82-112 339-358 402-385 30-13 291-23 1500-54 995-27 1218-31 1678-33l489-3 23 27c41 48 105 291 105 401 0 48-4 68-17 80-21 18-223 115-378 182l-145 62-57 24-45 19-93 31a1416 1416 0 0 0-180 69c-5 0-76 32-193 86-41 19-76 34-78 34s-41 17-86 39a8152 8152 0 0 1-325 146 2422 2422 0 0 1-153 68l-175 72-175 72-55 23-45 18-95 37-92 36-45 18c-13 4-34 13-48 19-42 17-133 50-175 63-80 24-142 48-220 83l-100 46c-46 20-145 49-219 64-87 18-302 20-376 4zm9692-4a752 752 0 0 1-270-87c-107-57-187-94-252-116-67-23-80-28-142-55l-130-52-128-51-55-23-55-23-175-72c-136-55-157-64-240-100-55-24-90-39-155-65l-100-42-75-33-90-40c-83-38-212-85-234-85-18 0-107-34-201-77a8508 8508 0 0 0-240-110c-109-50-174-79-260-113l-80-32c-51-22-66-27-126-47-33-12-75-21-93-21-23 0-41-9-62-29-27-28-29-34-29-113 0-46 4-99 9-118l21-95c31-150 64-191 176-221 51-14 126-15 584-10 289 3 676 10 860 15 777 23 1066 32 1440 47 535 21 669 33 741 68 136 65 396 367 441 511 48 153 51 532 5 645-84 206-375 471-562 512-80 18-321 48-375 47-30-1-97-7-148-15zm-5137-701c-16-3-33-8-37-12-5-4 12-40 37-80s45-74 45-76 34-56 75-119l76-116h605l87 178c48 97 87 184 87 192 0 28-198 40-590 39-195-1-368-4-385-6zm-350-275c-215-217-355-373-355-396 0-19 154-120 295-194 118-62 120-62 159-27 67 58 235 327 273 436 13 39-1 106-42 189-33 68-115 154-147 154-16 0-69-47-183-162zm1433 145c-54-61-153-297-143-341 13-59 176-308 261-398 40-42 41-43 80-33 84 22 346 168 383 213 12 14 11 20-10 43l-69 78c-156 174-449 455-475 455-7 0-19-8-27-17zm-791-394c-130-44-242-142-400-349-59-78-86-192-87-369 0-219 44-308 256-510 60-57 126-110 156-125 51-26 55-26 267-26 284 0 265-9 526 245 35 35 92 109 110 145 33 64 44 141 44 295 0 225-11 252-176 451-60 71-119 146-131 165-22 37-44 51-102 68-134 37-367 42-463 10zm-1065-370c-16-68-16-585-1-663 12-57 12-57 43-51a3491 3491 0 0 1 311 101l65 24 45 16 3 161c4 269-19 301-312 422-131 55-140 54-154-10zm2423 41c-3-5-13-10-22-10-28 0-197-88-231-120-77-74-92-127-92-332 0-126 3-158 13-158 8 0 27-6 43-14 209-101 335-136 364-101 38 46 38 684 0 730-14 17-66 20-75 5zm-3970-465c-11-3-150-10-310-16l-445-19c-186-10-678-27-1185-40-445-12-486-16-551-61-142-97-339-305-397-418-32-62-38-81-66-187-13-50-15-323-2-373l21-91c26-120 85-250 153-339 84-109 281-229 477-290 132-42 248-45 370-11 210 58 558 173 700 232 34 15 45 19 215 84a5167 5167 0 0 1 351 143 10051 10051 0 0 1 494 224 3262 3262 0 0 0 445 186 11333 11333 0 0 1 415 179c47 20 265 101 335 123 22 7 44 17 50 21a756 756 0 0 1 234 119c62 61 60 139-9 346-16 51-30 99-30 106 0 37-31 44-205 51-93 3-258 11-365 16-235 11-667 20-695 15zm4356-56-31-99c-48-152-63-207-67-261l-6-60 45-42c64-60 254-150 563-267l45-18 135-53a6146 6146 0 0 0 273-110l67-30 98-44 82-35c3 0 70-31 150-70 80-38 147-70 150-70l67-29 113-51 80-35c17-8 167-68 335-135l325-129c48-22 302-116 410-153 17-5 39-14 50-18 185-73 499-112 643-79 112 25 127 31 242 99 317 187 450 413 450 766 0 292-56 445-232 630-78 82-185 172-239 201-139 75-249 80-2794 112-418 6-801 13-850 17l-91 6-13-43zm-2456-258c-67-36-86-43-204-76-62-17-81-30-81-56 0-27 106-153 284-336 179-184 288-283 313-283 27 0 105 90 140 160 68 138 81 225 42 290-12 19-76 90-143 156a717 717 0 0 1-188 153c-36 17-72 31-79 30-8 0-45-17-84-38zm1623-4a826 826 0 0 1-285-297c-24-48-27-66-27-140 0-69 4-93 23-130 36-70 100-150 128-161 50-19 121 29 283 191 145 146 325 345 369 407l22 33-26 10c-14 5-41 10-58 10-39 0-95 19-192 65-91 43-176 48-237 12zm596-394c-100-97-117-118-209-252-87-126-181-225-288-305-130-96-197-156-197-175 0-17 58-196 79-246l21-55c12-34 20-56 39-102l51-133c23-60 48-125 56-142l75-178c31-75 58-131 106-215 10-19 43-93 72-165a5946 5946 0 0 1 151-350c0-3 40-87 89-187 49-101 99-205 111-233l36-80c7-16 23-61 34-100 32-103 41-124 128-305 68-142 92-196 142-325l29-67c12-26 21-50 21-53 0-12 109-188 156-250 65-87 180-198 261-253 34-23 64-42 67-42s40-16 83-36c92-43 103-47 163-65 54-17 251-18 306-2l114 33c229 66 319 109 388 185a906 906 0 0 1 199 305c38 102 43 146 43 375 0 250-7 293-65 411-72 148-224 312-1076 1161-691 688-813 812-902 917-69 81-80 106-49 106s189-143 623-565l315-305 259-249 235-225 200-191c138-132 358-337 440-409 72-65 89-75 175-104 58-19 90-27 205-53 79-18 322-16 390 3a988 988 0 0 1 438 261c75 76 111 128 156 222 31 64 44 103 75 221 15 55 14 291-1 351a904 904 0 0 1-348 540 2923 2923 0 0 1-515 268 26676 26676 0 0 1-800 315l-45 18-155 62c-163 65-179 72-293 126l-97 44c-3 0-34 14-70 30a456 456 0 0 1-103 39c-35 18-69 31-177 66a2689 2689 0 0 0-180 65l-100 41-165 70a8559 8559 0 0 0-365 159c-4 0-176 79-197 90-34 19-55 9-134-67zm-2819 40c-16-2-34-9-39-14a1338 1338 0 0 1-169-73c-190-91-278-128-417-175l-85-30-45-18-50-21-110-42-120-47-57-24-45-18-58-24-140-57-135-55-84-35c-30-11-73-30-96-40a4249 4249 0 0 0-180-75l-85-35c-53-21-74-30-150-63-19-8-65-27-103-41l-105-42-107-44-55-23a5967 5967 0 0 0-225-87l-55-20c-131-45-306-130-406-197a1076 1076 0 0 1-382-483c-101-229-79-488 61-750 126-234 275-339 612-431 66-18 303-18 370-1 205 56 349 146 590 371 49 46 268 260 485 475 373 369 489 482 740 721 269 256 535 496 571 515 31 17 33-8 3-48-62-81-247-276-658-692-858-870-1245-1277-1328-1397-71-104-102-257-95-463 5-130 10-172 32-275 12-56 113-250 159-305a834 834 0 0 1 471-269l85-21c100-25 180-31 237-20 32 6 66 16 75 21 10 5 25 9 33 9s23 4 33 9c9 5 60 26 112 47 205 80 236 100 312 192 60 74 185 260 236 354 17 32 41 90 53 130 20 70 81 229 119 313l45 105c27 64 79 173 249 522a4899 4899 0 0 1 111 243c60 133 75 167 120 285 44 114 68 164 122 260 10 19 43 91 72 160 86 202 81 189 131 315l50 120 87 195c27 58 63 152 82 211 6 19 11 58 11 86 0 48-2 52-57 104-115 109-311 239-358 239-14 0-55 80-55 106 0 29-60 140-108 199-26 32-72 79-104 103-49 38-63 44-115 47-32 2-71 1-88-2zm1222-121c-21-37-60-114-88-172l-60-122c-5-10-9-28-9-41 0-21 7-26 57-36 78-15 611-15 731 1 85 11 92 14 92 35 0 30-36 125-74 193l-66 120-35 65-90 6c-50 4-165 9-256 12l-166 6-36-67zm-153-709c-73-5-98-40-145-203-7-25-16-49-19-55a4418 4418 0 0 0-103-225l-90-190-117-255c-60-129-90-197-90-200s-12-30-26-62a3535 3535 0 0 1-82-193l-33-85c-35-95-54-137-161-355-56-113-104-214-108-225l-17-45-39-95a10426 10426 0 0 0-204-460 2893 2893 0 0 1-173-407c-53-163-67-243-67-380a958 958 0 0 1 187-578c112-134 262-245 378-278 118-33 468-44 571-17 68 17 173 65 269 120 78 44 208 169 241 231l86 144 65 106 7 649c3 358 9 1125 12 1706 7 1060 3 1216-28 1322l-11 37-126-2c-69-1-149-3-177-5zm561-5c-3-8-2-859 3-1890l10-1875 35-54 68-109a802 802 0 0 1 319-297c140-63 362-98 570-90 69 2 140 8 159 12 18 4 102 42 185 83 197 98 241 140 319 303 58 120 87 198 107 288 16 68 16 253 1 323a1490 1490 0 0 1-60 223c-7 22-16 49-21 60l-56 145c-26 69-69 172-97 230l-69 150-34 77-28 66-34 77-87 210-87 210c-65 147-84 188-98 210-23 36-59 115-125 276a7690 7690 0 0 1-145 339c0 4-57 130-90 200-42 88-110 237-110 241s-40 93-86 191c-19 40-34 74-34 77l-35 83c-40 86-44 96-75 169-12 28-31 56-42 63-12 7-82 14-188 18-146 5-170 4-175-9z"
  />
</svg>
