<svg xmlns="http://www.w3.org/2000/svg" id="root" width="1200" height="1200" viewBox="0 0 3280 3280">
  <path
    d="M1255 3232c-24-5-718-388-823-453-12-8-21-19-20-25 2-7 114-128 249-270 135-143 301-319 368-391 82-88 128-130 137-125 7 4 49 58 93 121 61 85 78 117 72 130-5 9-65 56-133 105-404 294-467 342-465 357s194 199 206 199c4 0 37-59 74-131 47-89 76-133 91-139 28-10 513-131 544-135 13-2 22 2 22 10 0 7-57 68-127 136l-128 124 105 7c58 3 159 7 225 8 166 2 366 17 377 28 13 13 1 21-162 103-80 40-172 88-205 107-33 18-109 59-170 90-60 31-144 75-185 98-79 44-112 54-145 46zm1210-831c-3-6-10-75-15-153-15-222-21-301-25-328-2-14-7-52-10-85-8-83-15-115-25-115-4 0-52 56-107 124-90 115-119 144-130 132-3-2 11-87 30-188s43-228 52-283 23-110 31-121c7-12 57-45 111-74 54-28 107-61 118-72 20-20 20-20-83-119-57-54-108-99-113-99-9 0-95 128-299 445-56 88-111 168-122 177-24 21-22 22-160-70-77-50-98-69-98-87 0-23 31-57 459-505 108-113 210-221 226-242 17-20 38-38 49-40 21-3 52 43 196 292 46 80 104 177 130 215 26 39 66 106 89 149 24 44 54 97 67 118 48 75 45 95-49 298-21 47-61 135-89 195-137 299-189 411-197 424-10 19-27 25-36 12zm-1065-345c-151-67-200-95-200-117 0-13 48-71 124-152 68-73 152-165 186-204 35-40 66-73 70-73 11 0 23 18 57 80 74 135 115 221 110 233-3 6-27 20-53 30-125 47-135 57-161 154-16 61-28 83-47 83-6 0-45-15-86-34zm-597-48c-6-23-9-46-6-51 2-4 60-34 128-67 67-32 125-66 129-75 3-10-4-26-19-41l-24-24-58 26c-32 14-74 33-93 41-86 37-119 54-125 63-13 21-34 9-44-26-14-50 1-82 46-101 119-49 203-94 203-107 0-17-38-56-55-56-15 0-234 98-260 116-28 20-31 18-43-27-17-67-4-78 186-160 50-22 60-40 38-74-26-39-47-35-216 43-19 9-50 27-68 41-42 31-51 22-56-54-3-38 16-57 92-92 104-48 129-67 137-106 16-80 113-179 207-213 59-20 64-26 99-117 61-160 71-171 139-154 54 14 58 24 23 55-24 20-41 54-69 132-20 58-37 113-38 124-1 22 47 61 67 53 8-3 38-60 67-127 58-132 74-147 134-134 56 12 60 23 22 58-24 22-43 55-65 116-17 47-36 93-41 102-23 41 1 98 42 98 25 0 33-15 95-179 35-92 53-106 117-90 26 6 49 15 52 20s-8 20-24 34c-16 13-37 46-47 72-18 48-27 72-60 149-21 51-18 71 17 97 21 16 30 18 41 8 8-6 36-68 63-138 53-136 66-151 126-139s65 20 31 59c-29 33-38 58-90 236-16 56-29 76-113 167-339 369-334 364-380 381-25 9-96 36-158 59-63 24-119 44-126 44-6 0-17-19-23-42z" />
  <path
    d="M656 1212c-6-10-77-198-111-295-15-42-25-84-21-92 3-8 38-31 78-51 60-30 84-37 135-38 35-1 67 4 73 10 22 22 99 268 88 281-5 7-38 28-73 48-59 33-83 55-128 119-18 26-32 32-41 18zm1121-504c-73-136-187-367-187-381 0-15 198-202 206-194 3 3 9 61 14 129 5 67 11 150 14 183s8 101 11 150c3 50 8 114 11 143 8 78-16 68-69-30z" />
  <path
    d="M520 762c0-10 26-83 59-163 32-79 66-168 75-196 10-29 25-62 35-74l17-22 59 22c72 27 111 54 130 91 21 41 20 52-28 180s-33 116-137 109c-24-2-59 9-109 34-84 42-101 45-101 19zm386-373c-19-28-73-63-118-78-29-10-38-18-38-35 0-13 8-30 18-38 26-22 254-164 275-172 37-12 115 102 102 152-9 35-173 191-202 192-12 0-28-9-37-21zm444-125c-85-18-158-33-161-33-4-1-10-17-14-37-3-20-20-61-37-91s-29-56-27-58 42 10 89 26c47 17 123 43 170 59 184 61 240 84 240 100 0 4-12 22-26 39-32 38-33 38-234-5z" />
</svg>