<svg xmlns="http://www.w3.org/2000/svg" id="root" width="1200" height="1200" viewBox="0 0 3280 3280">
  <path
    d="M1604 3250c-142-33-215-195-149-326 106-207 415-133 417 100 1 99-62 189-155 220-51 17-65 18-113 6zm424-257c-23-6-23-5 12-80 37-78 41-169 11-219-11-19-74-67-160-124-111-73-141-97-141-115s24-35 138-95c200-107 225-121 244-137 9-8 35-17 57-20 36-5 46-1 87 32 87 71 160 153 188 210 34 71 60 187 51 240-16 104-95 204-195 249-74 34-249 69-292 59z" />
  <path
    d="M1120 2979c-25-5-67-14-95-19-62-13-156-80-196-141-91-138-48-358 99-504 43-43 269-205 285-205 2 0 46-23 98-51s132-71 179-96c149-79 176-96 393-236 64-42 117-83 117-91 0-17-71-69-165-121-67-36-95-59-95-77 0-10 53-43 156-99 43-23 96-53 116-66 21-13 40-23 42-23 3 0 31-16 63-35 72-43 99-44 149-3 175 144 244 267 244 439 0 128-50 239-153 336-99 94-179 146-442 289-38 20-113 63-165 93-52 31-129 74-170 95-98 51-236 140-279 180-72 68-89 164-45 260 14 31 23 63 20 71-6 17-81 19-156 4z" />
  <path
    d="M967 2020c-141-134-194-254-184-419 12-197 145-353 442-516 28-15 76-43 108-61 32-19 60-34 62-34s32-16 67-36c34-20 92-52 128-72 178-97 357-209 408-257l56-52 4-71c4-65 2-75-27-125-17-30-31-64-31-76 0-20 5-21 74-21 115 0 262 52 340 121 74 65 112 200 86 310-31 131-118 254-244 344-51 36-243 155-251 155-2 0-78 42-185 102-25 14-72 40-105 58-112 61-140 77-226 124-109 61-224 145-213 156 5 5 58 38 118 75 59 37 117 74 127 84 36 33 9 58-149 140-46 23-120 65-165 93s-98 53-118 55c-33 5-41 0-122-77z" />
  <path
    d="M990 1021C870 920 819 848 783 726c-44-146 24-308 156-375 49-25 234-71 286-71 65 0 74 19 35 75-74 108-40 259 71 316 21 10 77 44 124 75 96 61 105 83 50 113-203 110-265 144-336 187-31 19-68 34-82 34-17 0-51-21-97-59zm576-553c-46-13-109-72-132-125-24-56-14-158 20-217 40-68 102-101 186-100 138 3 230 96 230 233 0 78-73 184-146 211-32 12-107 11-158-2z" />
</svg>