<svg xmlns="http://www.w3.org/2000/svg" id="root" viewBox="0 0 3280 3280">
  <path
    d="m1066.77 12.25 39.46 129.8 39.94 129.8 11.88 42.31 11.89 41.84-244.86 243.43-245.33 243.43-83.68 101.75-83.68 101.74-84.15 112.21-84.16 112.2-98.41 146.45-98.42 146.9v252.47l16.16 65.14 16.64 65.14 16.65 14.26 16.64 14.26 142.63 28.53 142.64 29 25.67 4.76 25.67 3.8 19.5-59.43 19.97-59.43 22.82-53.25 23.3-53.73 33.28-31.85 33.75-31.38 65.62-31.38 65.13-30.9 79.88-4.76 79.4-4.76 92.71 18.07 92.71 18.07 82.26-5.7 82.25-5.71 84.15-41.37 84.16-41.84 44.21-49.44 44.22-48.97 27.58-50.88 27.57-50.87 15.7-59.9 15.68-59.91v-87.49h19.02l12.36 37.09 11.89 37.56-5.23 87.48-5.7 87.48-41.37 128.38-41.84 128.84v17.12l41.84-40.41 42.31-40.42 47.55-72.27 47.54-72.26 13.8-32.33 13.3-31.86h17.6v58l-19.97 77.98-19.97 78.45-42.8 83.68-43.73 83.68-52.3 51.34-51.83 51.35-106.02 52.3-106.5 52.3-86.53 27.1-86.54 27.58-83.68 33.28-83.2 34.23-90.33 53.73-89.39 53.72-81.78 82.26-81.77 82.25-36.61 76.07-37.09 76.55-13.79 56.1-13.3 56.1.47 106.98.47 106.98 24.25 96.99 23.77 96.51 7.13-30.42 7.14-30.43 1.42-56.1 1.43-56.1 13.31-50.88 14.26-50.87 20.92-41.37 20.92-41.84 40.42-50.87 40.41-51.35 63.24-47.55 62.75-47.06 91.77-45.65 91.28-46.12 118.86-36.6 119.34-36.62 137.88-44.21 137.4-44.7 99.85-46.59 100.8-46.6 72.74-47.06 73.22-47.07 40.41-36.14 40.9-36.13 46.11-57.05 45.64-57.06 33.29-67.51 33.28-67.52 20.44-78.92 19.97-78.92v-178.77l-14.26-69.42-15.22-69.89-15.69-38.04-16.16-37.56v-25.2l9.5 9.51 9.52 9.99 35.65 71.32 35.66 71.31 22.35 86.53 22.34 86.54 4.76 91.76 4.75 91.76-16.16 69.9-16.17 69.88-33.28 67.52-33.28 67.99-86.06 87.48-86.53 87.96-81.78 47.54-81.3 47.55-81.77 31.38-81.3 31.85-173.55 43.74-173.06 43.27-71.32 27.1-71.31 27.1-74.65 40.41-75.12 39.94-59.9 47.07-59.44 47.07-35.66 52.3-36.13 52.3-15.21 60.38-15.7 60.86v143.1l9.99 66.57 9.5 66.56 18.08 55.63 17.59 56.1 6.65-96.51 6.66-97 8.08-20.44 8.09-20.44 39.93-47.55 39.47-48.5 63.23-47.54 63.23-47.54 71.32-34.24 71.32-33.28 60.86-16.64 61.33-16.16 299.53-14.27 299.54-14.26 80.82-48.5 81.78-48.97 67.04-56.58 67.51-56.57 64.19-76.08 63.7-76.07 56.11-111.73 55.63-112.2 25.67-90.34 25.68-90.34v-58.95h23.3l-7.14 73.22-6.65 73.22-20.45 80.82-20.92 80.35-38.03 88.44-38.04 87.96-54.68 80.82-55.15 81.3-77.02 77.98-77.5 77.5-60.86 44.69-60.38 44.22-66.56 38.98-66.57 38.51h20.45l76.07-20.92 76.07-20.44 51.35-19.02 50.87-19.02 77.98-35.65 78.45-35.66 59.9-40.9 60.39-40.88 57.05-49.45 57.53-48.97 52.3-65.14 51.82-65.13 35.19-69.42 34.7-69.41 26.15-89.86 26.15-89.39 5.7-112.2 6.19-112.21-11.41-101.75-11.41-101.74-6.66-48.5-6.65-48.5h19.96l22.35 73.7 21.87 74.17 17.12 76.07 17.11 76.55v178.3l-.47 178.29-27.58 132.65-27.57 132.65-54.68 163.08-55.15 162.6 3.32 3.33 3.33 3.33 61.81-92.72 61.81-92.7 35.66-73.7 35.18-73.22 27.1-81.3 27.1-80.83 19.02-100.32 19.5-99.84v-297.16l-20.93-102.7-20.92-102.7-30.42-92.23-30.9-92.71-56.11-114.11-55.63-114.11-52.3-79.4-51.35-79.4-46.6-61.33-46.58-60.86-66.57-70.37-66.56-69.89-71.32-58-71.32-58-63.23-42.8-63.23-42.79-111.26-55.63-110.78-55.62-121.24-40.42-121.24-40.41-163.08-31.85-163.08-32.34-44.21-19.01-43.75-19.02-175.91-133.13-176.4-132.65h-10.45Zm8.08 755.02 10.94 4.75-12.84 10.94-2.85 11.88-53.25 53.25h-11.9l-17.58 17.6-10.94 1.9-8.56 9.5-15.21 1.43-5.7 9.51h-56.1l-26.63-31.38-30.43 2.38.95-6.18 84.63-84.63 9.5.95v11.88l73.23-3.8-1.9-9.03z"
  />
</svg>
