<svg xmlns="http://www.w3.org/2000/svg" id="root" viewBox="147 12 2985 3255">
  <path
    d="m1067 12 39 130 40 130 12 42 12 42-245 243-245 244-84 102-84 101-84 113-84 112-98 146-99 147v253l16 65 17 65 17 14 16 14 143 29 143 29 25 5 26 3 19-59 20-59 23-54 24-53 33-32 34-32 65-31 65-31 80-5 80-4 92 18 93 18 82-6 83-6 84-41 84-42 44-49 44-49 28-51 27-51 16-60 16-60v-87h19l12 37 12 37-5 88-6 87-41 129-42 128v18l42-41 42-40 48-72 47-73 14-32 13-32h18v58l-20 78-20 78-43 84-44 84-52 51-52 52-106 52-106 52-87 27-86 28-84 33-83 34-91 54-89 54-82 82-81 82-37 76-37 77-14 56-13 56v107l1 107 24 97 24 97 7-31 7-30 1-56 2-56 13-51 14-51 21-42 21-41 41-51 40-52 63-47 63-47 92-46 91-46 119-37 119-36 138-44 138-45 99-47 101-46 73-47 73-47 41-37 40-36 47-57 45-57 34-67 33-68 20-79 20-79v-179l-14-69-15-70-16-38-16-37v-26l9 10 10 10 36 71 35 72 23 86 22 87 5 91 4 92-16 70-16 70-33 67-33 68-87 88-86 88-82 47-81 48-82 31-81 32-174 44-173 43-71 27-71 27-75 41-75 40-60 47-60 47-35 52-36 52-16 61-15 61v143l10 66 9 67 18 56 18 56 7-97 6-97 8-20 8-21 40-47 40-49 63-47 63-48 72-34 71-33 61-17 61-16 300-14 299-15 81-48 82-49 67-57 67-56 64-76 64-76 56-112 56-112 26-91 25-90v-59h24l-8 73-6 73-21 81-21 81-38 88-38 88-54 81-55 81-77 78-78 78-61 44-60 44-67 39-66 39h20l76-21 76-20 52-19 50-19 78-36 79-36 60-41 60-41 57-49 58-49 52-65 52-65 35-70 35-69 26-90 26-89 6-112 6-113-11-101-12-102-7-49-6-48h20l22 74 22 74 17 76 17 76v357l-28 133-27 132-55 163-55 163 3 3 3 4 62-93 62-93 36-74 35-73 27-81 27-81 19-100 20-100v-297l-21-103-21-103-31-92-31-93-56-114-55-114-53-79-51-80-47-61-46-61-67-70-66-70-72-58-71-58-63-43-63-43-112-55-110-56-122-40-121-41-163-32-163-32-44-19-44-19-176-133-176-133h-11Zm8 755 11 5-13 11-3 12-53 53h-12l-18 18-11 2-8 9-15 2-6 9h-56l-27-31-30 2 1-6 84-85 10 1v12l73-4-2-9z"
  />
</svg>
