<svg xmlns="http://www.w3.org/2000/svg" id="root" viewBox="0 0 3280 3280">
  <path
    d="m1201.98 2632.73-31-8.86a2281.11 2281.11 0 0 1-248.05-199.32 894.73 894.73 0 0 1-132.88-190.46 522.66 522.66 0 0 1-44.29-163.89v-39.86h-558.1v4.42a17.72 17.72 0 0 0 0 4.43v4.43l44.3 13.3a469.51 469.51 0 0 1 150.6 97.44 961.17 961.17 0 0 1 97.44 93.01l31 35.44 26.58 31 31 31 31.01 35.44A1630 1630 0 0 0 767.91 2522a761.85 761.85 0 0 0 376.5 128.45h44.28a4.43 4.43 0 0 0 4.43 0h4.43v-17.71zM2251.74 1870.88c0-22.15 0-57.58 8.86-84.16a500.52 500.52 0 0 1 159.45-274.62 398.64 398.64 0 0 1 141.74-75.3 487.23 487.23 0 0 1 314.49 13.3 332.2 332.2 0 0 1 168.31 163.88 438.5 438.5 0 0 1 44.3 155.02 522.66 522.66 0 0 1-31.01 239.19 677.69 677.69 0 0 1-70.87 146.17 983.31 983.31 0 0 1-146.17 190.46 1824.89 1824.89 0 0 1-115.16 110.73l-62.01 57.58v8.86l22.14 22.15a181.6 181.6 0 0 1 53.16 88.59 172.74 172.74 0 0 1-13.3 106.3 177.17 177.17 0 0 1-172.74 106.3 172.74 172.74 0 0 1-115.16-57.58 177.17 177.17 0 0 1-44.3-93.01l-4.42-26.58v-35.43l4.43-4.43V2615h4.43v-8.85a88.59 88.59 0 0 1 8.85-13.29v-4.43l4.43-4.43v-4.43l4.43-4.43v-4.42l4.43-4.43 4.43-4.43 8.86-8.86 4.43-4.43 4.43-4.43 35.43-39.86 35.44-35.44 35.43-39.86a5603.12 5603.12 0 0 0 230.33-274.62 983.31 983.31 0 0 0 88.59-181.6 496.09 496.09 0 0 0 31-101.88 318.91 318.91 0 0 0-8.86-101.88 252.47 252.47 0 0 0-44.29-88.58l-39.86-39.87a181.6 181.6 0 0 0-93.02-31 212.6 212.6 0 0 0-146.17 44.3l-35.43 39.86v17.71l35.43 13.3a208.18 208.18 0 0 1 101.88 137.3 212.6 212.6 0 0 1-31.01 168.32 208.18 208.18 0 0 1-186.03 88.58 221.47 221.47 0 0 1-97.45-31 203.75 203.75 0 0 1-97.44-177.18v-39.86zM382.55 1516.53l-13.28-35.43a708.7 708.7 0 0 1-35.44-155.03 438.5 438.5 0 0 1 8.86-115.16 429.65 429.65 0 0 1 44.3-110.74c0-13.29 8.85-26.57 17.71-35.43l17.72-35.44 22.14-35.43 17.72-35.44a695.4 695.4 0 0 0 44.3-106.3 363.2 363.2 0 0 0-4.43-199.32 593.53 593.53 0 0 0-44.3-110.73l-17.71-35.44v-8.86h8.85c8.86 0 35.44 0 48.73 8.86a323.34 323.34 0 0 1 124.02 70.87 398.64 398.64 0 0 1 88.59 110.73 460.65 460.65 0 0 1 62 177.18 274.62 274.62 0 0 1-13.28 97.44 283.48 283.48 0 0 1-44.3 88.59 496.09 496.09 0 0 1-62 70.87l-35.44 35.43-35.44 31.01-35.43 35.43a1018.75 1018.75 0 0 0-88.59 110.74 398.64 398.64 0 0 0-44.3 88.59l-8.85 44.29v48.72h-4.43v4.43h-17.72zM798.91 710.4V683.8a952.3 952.3 0 0 1 31-354.34A1054.18 1054.18 0 0 1 931.8 108a854.86 854.86 0 0 1 44.3-70.87l17.71-17.72V1.7a17.72 17.72 0 0 0-4.43 0l-39.86 8.85a434.08 434.08 0 0 0-261.33 243.62 451.8 451.8 0 0 0-31 199.32 434.08 434.08 0 0 0 101.87 239.18l22.14 26.58a35.43 35.43 0 0 0 4.43 0h8.86v-4.43Z"
    clip-rule="evenodd"
  />
  <path
    d="m1405.73 1804.44 8.86-8.86a575.81 575.81 0 0 1 75.3-70.87l8.86-8.86 13.29-8.86a407.5 407.5 0 0 1 53.15-31l13.29-4.43a562.53 562.53 0 0 1 88.58-31h22.15l13.29-4.44h4.43v-39.86l-13.29-8.86a132.88 132.88 0 0 1-44.3-57.58 119.6 119.6 0 0 1-8.85-44.3 124.02 124.02 0 0 1 110.73-124.02 124.02 124.02 0 0 1 132.88 97.45 124.02 124.02 0 0 1-48.72 128.45l-8.86 4.43h-4.43v44.3h4.43l13.29 4.42a398.64 398.64 0 0 1 26.57 4.43l13.3 4.43a394.21 394.21 0 0 1 57.57 22.15h13.3a398.64 398.64 0 0 1 22.14 13.29l13.29 8.86a456.22 456.22 0 0 1 132.88 115.16v190.46h4.43l13.28 17.72a363.2 363.2 0 0 0 66.44 53.15 558.1 558.1 0 0 0 243.62 93.02 442.93 442.93 0 0 0 70.87 8.85h39.86v4.43h4.43v8.86l-13.29 31a903.59 903.59 0 0 1-305.62 394.22 841.58 841.58 0 0 1-310.06 132.88l-31 8.86h-4.43v44.3h177.17l8.86 4.42a44.3 44.3 0 0 1 8.86 4.43 48.72 48.72 0 0 1 22.15 31 44.3 44.3 0 0 1 0 26.58 88.59 88.59 0 0 1 0 8.86 44.3 44.3 0 0 1-8.86 8.86 44.3 44.3 0 0 1-13.29 8.86 48.72 48.72 0 0 1-13.29 4.43h-4.43v4.43h-4.43v79.73l13.3 13.28a363.2 363.2 0 0 0 66.43 53.16 522.66 522.66 0 0 0 132.88 66.44 752.99 752.99 0 0 0 203.75 44.29 1080.76 1080.76 0 0 0 84.16 8.86h26.58v115.16H927.36v-119.6h26.58a664.4 664.4 0 0 0 124.02-13.28 1125.05 1125.05 0 0 0 203.75-57.58 620.1 620.1 0 0 0 159.46-106.3l13.29-13.3v-79.72h-8.86a44.3 44.3 0 0 1-22.15-13.29 53.15 53.15 0 0 1-8.86-13.29v-4.43a44.3 44.3 0 0 1-8.86-22.14 48.72 48.72 0 0 1 35.44-44.3h181.6l4.43-4.43v-44.29h-4.43l-35.43-8.86a841.58 841.58 0 0 1-611.25-527.1l-13.3-31v-8.85h26.58a770.7 770.7 0 0 0 252.48-62.02 646.68 646.68 0 0 0 106.3-62 460.65 460.65 0 0 0 39.87-35.44l8.85-13.29v-4.43h4.43v-186.03zM865.35 568.65l17.72 53.15a961.17 961.17 0 0 1 35.43 230.33 487.23 487.23 0 0 1-35.43 177.17 460.65 460.65 0 0 1-62.01 97.45 704.27 704.27 0 0 1-79.73 88.59l-44.3 39.86-44.29 35.43-44.29 44.3a1271.22 1271.22 0 0 0-110.73 132.88 531.52 531.52 0 0 0-70.87 159.46 504.95 504.95 0 0 0-8.86 177.17 784 784 0 0 0 22.15 115.16l13.28 57.58v4.43h17.72v-4.43h4.43c0-8.86 0-35.43 8.86-48.72a420.79 420.79 0 0 1 106.3-203.75 620.1 620.1 0 0 1 106.3-97.44 1107.34 1107.34 0 0 1 155.03-101.88l39.87-26.58 39.86-22.14a3729.5 3729.5 0 0 0 190.46-132.88 602.4 602.4 0 0 0 93.02-106.3A358.78 358.78 0 0 0 1264 1104.6v-75.3a606.82 606.82 0 0 0-39.86-199.32 469.51 469.51 0 0 0-119.6-159.45 518.23 518.23 0 0 0-128.44-84.16 721.98 721.98 0 0 0-70.87-26.58l-22.15-8.86h-8.86v4.43h-13.29v4.43z"
    clip-rule="evenodd"
  />
</svg>
