<svg xmlns="http://www.w3.org/2000/svg" id="root" width="1200" height="1200" viewBox="0 0 266 299">
  <path
    d="M 70.56 0.00 Q 71.06 0.00 71.56 0.00 Q 71.57 0.13 71.63 0.26 A 0.43 0.37 58.8 0 1 71.56 0.69 Q 55.28 16.48 55.09 39.50 Q 55.00 50.50 55.00 61.51 Q 55.00 64.08 53.45 62.04 Q 43.06 48.36 43.57 31.96 Q 43.92 20.60 48.93 13.00 Q 55.15 3.57 67.50 1.00 Q 69.70 0.54 70.56 0.00 Z" />
  <path
    d="M 21.91 43.79 Q 28.54 45.47 34.58 49.00 Q 49.62 57.77 50.44 73.55 Q 50.91 82.49 46.73 91.59 Q 42.74 100.27 35.55 106.86 Q 30.15 111.81 30.13 111.83 Q 20.49 122.00 17.50 136.00 Q 16.85 139.03 15.57 136.20 Q 9.69 123.25 13.44 109.44 Q 14.66 104.95 17.67 99.63 Q 20.59 94.48 23.29 89.22 Q 26.62 82.73 27.78 78.31 Q 32.42 60.49 21.30 44.67 Q 20.42 43.41 21.91 43.79 Z" />
  <path
    d="M 61.85 50.39 Q 73.91 53.78 83.06 61.70 Q 97.46 74.17 97.97 93.50 Q 98.25 104.06 92.94 111.94 Q 88.43 118.63 80.36 124.33 Q 67.69 133.29 54.56 141.56 Q 44.17 148.47 37.81 157.06 Q 30.92 166.37 26.17 176.98 Q 25.42 178.65 24.72 176.96 Q 21.90 170.20 20.63 162.95 Q 19.19 154.80 20.30 148.52 Q 21.90 139.36 28.19 131.44 Q 33.55 124.67 36.97 121.47 Q 44.91 114.04 52.97 106.72 Q 60.81 99.60 64.69 90.69 Q 65.99 87.69 66.00 83.50 Q 66.00 79.48 65.67 75.49 Q 65.24 70.42 64.93 67.50 Q 64.02 58.98 61.15 51.15 Q 60.75 50.08 61.85 50.39 Z" />
  <path
    d="M 152.68 127.91 Q 157.30 135.21 150.68 142.08 Q 150.67 142.09 149.20 143.30 Q 147.43 144.77 148.04 147.09 A 0.94 0.83 2.8 0 0 148.67 147.70 Q 160.40 151.10 170.56 159.69 Q 172.55 161.37 173.77 163.07 Q 174.93 164.69 174.96 167.36 Q 175.01 172.90 175.06 178.44 Q 176.56 182.56 179.06 184.69 Q 187.35 191.74 197.78 194.91 Q 207.02 197.71 215.24 198.22 Q 217.66 198.37 216.92 200.68 Q 209.99 222.15 194.01 234.64 Q 186.93 240.17 176.61 244.35 Q 167.05 248.23 157.28 250.06 Q 155.40 250.41 155.47 252.32 Q 155.54 254.38 156.59 254.88 Q 156.86 255.00 158.92 255.00 Q 169.75 255.00 169.75 255.00 Q 173.81 255.24 173.99 259.25 Q 174.14 262.60 171.23 264.16 A 1.45 1.44 70.1 0 0 170.50 265.73 Q 171.29 269.63 173.49 272.74 Q 175.23 275.20 178.97 277.76 Q 185.22 282.03 191.56 284.19 Q 205.74 289.02 220.84 289.25 A 0.68 0.64 2.4 0 1 221.51 289.94 L 220.90 297.81 A 1.05 1.03 77.2 0 1 220.41 298.60 Q 219.97 298.86 219.44 299.00 Q 142.44 299.00 65.44 299.00 Q 64.69 295.42 65.13 290.18 A 0.98 0.98 -88.6 0 1 66.06 289.29 Q 76.04 288.85 84.92 287.07 Q 95.86 284.88 105.44 279.19 Q 110.33 276.30 113.71 271.72 Q 115.60 269.16 115.96 266.30 A 2.57 2.56 -69.7 0 0 114.83 263.82 Q 111.74 261.78 112.72 258.53 Q 113.73 255.18 117.25 255.16 Q 129.23 255.09 129.69 254.94 Q 133.30 253.72 131.68 250.50 A 1.03 0.93 -7.4 0 0 130.94 249.99 Q 113.18 247.39 100.56 239.94 Q 77.33 226.21 69.29 199.56 A 1.04 1.04 80.4 0 1 70.24 198.22 Q 87.64 197.42 101.94 188.94 Q 105.88 186.60 110.44 180.90 A 1.79 1.74 67.3 0 0 110.80 179.99 Q 111.29 175.10 110.94 171.56 Q 110.39 166.06 113.18 162.29 Q 114.70 160.23 119.96 156.38 Q 126.80 151.37 134.93 148.73 Q 137.55 147.87 138.26 147.24 Q 140.30 145.42 136.63 142.68 Q 135.04 141.49 134.03 139.78 Q 130.41 133.70 133.79 128.31 Q 136.46 124.07 141.08 123.07 Q 144.49 122.33 147.81 123.71 Q 150.80 124.95 152.68 127.91 Z" />
  <path
    d="M 240.00 130.00 Q 249.85 132.30 256.48 139.02 Q 264.46 147.11 265.50 158.75 Q 266.02 164.58 265.12 169.73 Q 262.67 183.81 255.16 195.97 Q 243.89 214.24 226.68 227.86 A 1.25 1.25 -46.5 0 0 226.73 229.85 Q 231.50 233.24 233.03 238.44 Q 234.48 243.39 232.80 248.52 Q 230.75 254.79 224.56 257.81 Q 220.29 259.90 215.43 259.27 Q 210.95 258.68 207.27 255.79 Q 198.90 249.23 202.25 237.25 Q 203.22 233.79 206.73 230.81 Q 211.12 227.08 211.16 227.04 Q 224.44 214.06 236.06 198.31 Q 242.26 189.90 245.39 180.59 Q 247.78 173.43 247.30 166.16 Q 246.78 158.48 243.39 153.41 Q 239.14 147.06 231.17 145.95 Q 225.56 145.16 220.96 146.89 Q 215.88 148.79 212.55 153.58 A 1.25 1.25 27.5 0 0 213.15 155.47 Q 222.37 158.82 225.08 167.02 Q 227.25 173.58 224.60 180.26 Q 221.68 187.64 214.13 190.08 Q 206.95 192.41 200.49 189.53 Q 195.67 187.37 192.84 182.75 Q 190.62 179.12 190.03 173.34 Q 188.31 156.35 197.69 142.44 Q 200.70 137.97 205.56 134.73 Q 209.84 131.88 215.47 130.31 Q 227.28 127.03 240.00 130.00 Z" />
  <path
    d="M 0.00 182.94 Q 22.99 183.86 47.31 183.22 A 1.30 1.30 -7.7 0 1 48.61 184.21 Q 53.79 204.99 68.22 220.03 Q 79.45 231.74 93.07 241.11 Q 94.36 242.00 92.79 242.00 Q 59.33 241.94 36.95 218.32 Q 35.12 216.39 29.76 209.10 Q 22.36 199.04 12.19 191.56 Q 10.31 190.18 0.00 183.69 Q 0.00 183.31 0.00 182.94 Z" />
</svg>