<svg xmlns="http://www.w3.org/2000/svg" viewBox="0 0 170.57 132.85">
  <path
    d="M94.36 132.76a8.26 8.26 0 0 1-4.06-1.7c-.9-.67-4.27-3.76-5.53-5.05-.31-.33-.67-.61-.8-.61-.1 0-.62.42-1.13.94a15.7 15.7 0 0 1-3.64 2.86c-.97.46-2.62.64-4.78.55-2.06-.1-2.58-.28-4.02-1.45-1.66-1.37-2.13-2.81-2.13-6.71v-1.74l-1.95-.1c-2.96-.14-4.12-.45-5.69-1.47a10.01 10.01 0 0 1-2.18-2.97l-.5-1.03v-4.52l-2.45-.08c-2.85-.08-3.5-.24-4.46-1.08a12.22 12.22 0 0 1-1.93-2.57c0-.04-.12-.32-.26-.64-.58-1.29-.67-2.07-.54-4.68l.06-1.2h-5.32l-1.04-.5a7.14 7.14 0 0 1-3.04-2.8c-.7-1.44-.71-1.53-.7-3.62.02-1.9.03-2.04.4-2.93.52-1.22 1.59-2.62 3.24-4.26a7.7 7.7 0 0 0 1.34-1.54c0-.24-6.55-6.55-6.87-6.62-.18-.04-1.74 1.34-4.7 4.17-.85.81-1.84 1.76-2.23 2.1l-.7.63h-4.52l-3.51-3.55-8.3-8.47a101.67 101.67 0 0 0-5.6-5.46c-1.15-.8-2.47-1.74-4.76-3.39-2.26-1.64-2.2-1.52-1.93-3.29l.65-4.59c.3-2.11.55-3.53.64-3.53.08 0 .7.47 1.39 1.03l2.92 2.4 3.4 2.78c.94.78 5.21 4.81 9.5 8.95 4.28 4.14 7.88 7.54 8 7.54.21 0 1.89-1.36 5.18-4.18 2.38-2.04 2.99-2.37 4.75-2.54.6-.07 1.71.17 2.34.5.2.1 1.9 1.65 3.8 3.45 4.33 4.11 5.12 4.83 5.94 5.38l.67.42 1-.2c3.23-.64 4.59-.7 6.17-.3 2.12.53 3.29 1.62 4.1 3.79.27.73.3 1.04.3 3.46V87l1.47-.07c3.66-.16 4.64-.04 5.93.76a8.08 8.08 0 0 1 2.5 2.93l.49 1.04v1.93c0 1.06-.04 2.18-.11 2.5l-.1.56h1.74c3.6 0 5 .33 6.48 1.57 1.26 1.05 1.6 2.17 1.77 5.88.06 1.43.12 2.6.13 2.6H87.24l.8.45c.43.25 1.22.87 1.75 1.38l.95.94 1.12-1.06c1.57-1.5 1.78-1.63 3-1.8 1.52-.23 3.14.02 3.96.6.31.23 1.86 1.64 3.42 3.13 3.9 3.74 4.61 4.18 5.43 3.37.45-.46.52-.96.2-1.72-.28-.65-.8-1.27-3.52-4.16-2.63-2.8-3.11-3.45-3.42-4.66a4.1 4.1 0 0 1-.1-2.47 5.35 5.35 0 0 1 3.2-3.78c1.43-.54 3.17-.46 4.2.2.27.18.54.33.58.33.12 0 1.38 1.1 3.58 3.13 2.29 2.1 3.4 3.06 3.74 3.23.2.1.41.1.79-.04.7-.24 1.13-.76 1.13-1.38 0-.58-.59-1.35-2.7-3.57-3.05-3.22-3.98-4.4-4.41-5.67-.9-2.66.92-5.4 4.06-6.14a6.5 6.5 0 0 1 3.37.12 23.6 23.6 0 0 1 2.66 2.25c2.93 2.74 4.24 3.89 4.75 4.15 1.14.59 2.78-.43 2.38-1.49-.18-.47-1.53-2.06-3.72-4.37a60.36 60.36 0 0 1-4.46-5.13c-.3-.4-1.16-1.54-1.95-2.53-1.49-1.89-3.07-4.02-3.83-5.12-2.49-3.65-9.63-12-11.23-13.14-.56-.4-1.12-.49-3.42-.57-1.13-.05-2.15-.1-2.24-.15-.1-.02-1.32-.09-2.73-.13-1.4-.04-2.6-.1-2.65-.13-.05-.04-1.43-.1-3.06-.13-1.62-.04-3-.11-3.06-.14-.18-.12-5.84-.05-6.44.07-.74.15-1.3.6-4.18 3.4-2.78 2.7-3.92 3.72-4.63 4.08l-.7.37c-.5.3-1.3.56-1.72.56-.25 0-.85.03-1.33.08a7.14 7.14 0 0 1-3.37-.59 5.38 5.38 0 0 1-2.32-2.56c-.13-.4-.2-.8-.2-.9a.26.26 0 0 0-.1-.24c-.16-.1-.17-2.44 0-3.19a6.2 6.2 0 0 1 1.04-2.66 63.48 63.48 0 0 1 6.7-6.95c.7-.7 1.44-1.38 1.67-1.54l.85-.65c.25-.2.86-.48 1.37-.63.52-.16 1.17-.4 1.46-.53 1.5-.7 1.88-.81 5.26-1.83.48-.14.88-.32.9-.4.03-.08-.45-.26-1.04-.43-2.07-.58-5.66-1.67-8.7-2.64-2.83-.92-3.74-1.33-4.9-2.24-1.4-1.06-5.34-4.97-11.7-11.57a521.3 521.3 0 0 0-10.35-10.44C38.4 14.24 28.74 4.67 28.74 4.55c0-.04.47-.46 1.03-.93 2.2-1.82 3.2-2.64 3.8-3.11L34.2 0l10.47 10.35c5.77 5.71 13.73 13.6 17.68 17.56 3.95 3.95 7.4 7.35 7.65 7.53.7.52 1.72 1.01 2.61 1.24.44.1 1.86.57 3.18 1.02 1.37.47 3.2.99 4.26 1.2 2.22.44 3.98.9 5.52 1.44 1.07.37 3.17 1.08 4.06 1.36.23.06.95.18 1.61.28 1.39.16 1.39.16 4.51-1.06 1.03-.38 2.25-.86 2.73-1.03a32.07 32.07 0 0 0 4-1.64c.35-.21 7.95-7.72 18.61-18.37 9.9-9.9 18.06-17.99 18.12-17.96.05.02 2.15 1.98 4.67 4.36 4.84 4.57 4.6 4.29 8.97 9.98l3.43 4.44c1.2 1.54 1.75 2.4 2.35 3.62l4.1 8.31c1.83 3.7 3.39 6.94 3.47 7.19.24.8.4 1.44 1.09 4.4l.81 3.39.25 1 .26 1c.13.48 1.49 6.09 1.77 7.31.28 1.23.28 1.3-.23 1.84-.25.26-.52.5-.58.5a74.9 74.9 0 0 0-3.36 3.16c-1.78 1.74-3.8 3.67-4.46 4.3-1.51 1.4-6.66 6.36-9.83 9.45-1.32 1.29-3 2.9-3.73 3.56l-1.33 1.21h-3.29l-3.9-3.81c-2.18-2.12-4-3.86-4.07-3.88-.28-.1-6.12 5.98-6.35 6.62a37.7 37.7 0 0 0 2.48 2.71 62.04 62.04 0 0 1 3.14 3.44c1.21 1.6 1.72 3.08 1.97 5.81.16 1.8 0 3.87-.37 4.6-.11.2-.16.4-.12.47.02.07-.03.15-.14.2-.1.04-.2.13-.2.21 0 .58-2.71 3.57-3.67 4.06-.28.15-.54.3-.58.34-.07.08-.88.42-1.14.49-.5.12-2.09.6-2.52.77-.64.24-.94.68-1.04 1.57a10.99 10.99 0 0 1-2.7 5.52c-.76.83-2.12 1.9-2.39 1.9-.04 0-.32.1-.64.25a6.3 6.3 0 0 1-2.4.66c-1.12.14-1.55.38-1.55.9a19.02 19.02 0 0 1-2.05 5.21c-.54.7-2 2.13-2.37 2.3-.86.44-2.54 1.1-3.5 1.37-.34.1-1.24.34-1.57.4-.37.1-.76.7-.82 1.35a7.9 7.9 0 0 1-.3.96c-.16.37-.24.73-.2.77.04.04 0 .26-.13.5l-.65 1.36c-.24.52-.48.96-.55.97-.06.03-.2.23-.32.46-.5.97-2.18 2.09-4.1 2.75-1.6.53-4.9.84-6.46.59zm3.16-9.33c.38-.35.4-.43.34-1.1-.06-.66-.14-.8-1.01-1.86-.52-.62-1.8-2-2.83-3.03-2.14-2.18-2.35-2.28-2.68-1.23-.11.34-.22.79-.26 1a1.4 1.4 0 0 1-.21.56c-.08.1-.01.33.23.7.53.84.89 1.24 3.02 3.37 1.86 1.85 2 1.96 2.49 1.96.38 0 .62-.1.91-.37z"
  />
</svg>
