<svg xmlns="http://www.w3.org/2000/svg" id="root" viewBox="0 0 150 253">
  <path
    d="M 67.640625 252.152344 C 52.359375 248.8125 41.660156 235.398438 41.660156 219.605469 C 41.660156 189.949219 77.265625 175.175781 98.265625 196.0625 C 108.734375 206.476562 111.113281 221.644531 104.378906 235.058594 C 101.773438 240.152344 95.71875 246.320312 90.734375 248.925781 C 83.71875 252.605469 75.167969 253.792969 67.640625 252.152344 Z M 81.339844 232.738281 C 89.832031 228.378906 92.09375 217.285156 85.867188 210.210938 C 78.792969 202.171875 66.679688 203.589844 61.867188 213.039062 C 57.90625 220.683594 61.753906 230.472656 69.90625 233.472656 C 72.960938 234.605469 78.339844 234.265625 81.339844 232.738281 Z M 81.339844 232.738281 "
  />
  <path
    d="M 18.679688 193.910156 C 7.1875 190.570312 0 181.175781 0 169.460938 C 0 157.742188 7.8125 147.894531 19.300781 145.179688 C 22.414062 144.5 30.507812 144.328125 74.832031 144.328125 C 111.394531 144.328125 127.640625 144.5 129.734375 144.953125 C 134.605469 146.027344 138.679688 148.289062 142.414062 151.96875 C 152.207031 161.703125 152.433594 176.761719 142.925781 186.722656 C 136.414062 193.570312 127.527344 196.175781 118.585938 193.851562 C 113.660156 192.550781 110.152344 190.402344 106.300781 186.324219 C 103.527344 183.324219 103.074219 182.535156 103.699219 181.96875 C 105.167969 180.609375 119.433594 172.683594 119.433594 173.25 C 119.433594 174.15625 123 176.023438 124.699219 176.023438 C 127.132812 176.023438 129.394531 174.609375 130.472656 172.289062 C 131.71875 169.628906 131.207031 167.082031 129 164.929688 L 127.300781 163.289062 L 76.527344 163.121094 C 48.621094 163.0625 24.90625 163.121094 23.832031 163.289062 C 18.960938 164.195312 16.980469 170.136719 20.320312 173.875 C 21.792969 175.515625 22.359375 175.742188 24.792969 175.742188 C 26.945312 175.742188 27.960938 175.457031 28.980469 174.496094 C 29.773438 173.761719 30.566406 173.195312 30.792969 173.195312 C 31.132812 173.195312 45.679688 181.457031 46.359375 182.023438 C 46.8125 182.421875 43.980469 186.210938 41.832031 188.195312 C 40.527344 189.324219 37.585938 191.191406 35.265625 192.269531 C 31.699219 194.023438 30.394531 194.304688 26.152344 194.476562 C 23.152344 194.589844 20.207031 194.363281 18.679688 193.910156 Z M 13.019531 126.5 L 13.019531 117.160156 L 136.414062 117.160156 L 136.414062 135.839844 L 13.019531 135.839844 Z M 18.679688 107.652344 C 11.378906 105.726562 5.71875 101.03125 2.378906 94.011719 C -3.847656 80.992188 2.546875 65.03125 16.074219 59.882812 C 18.90625 58.808594 20.605469 58.582031 25.1875 58.636719 C 31.753906 58.636719 35.320312 59.769531 39.90625 63.277344 C 42.453125 65.203125 46.414062 69.730469 46.414062 70.636719 C 46.414062 70.976562 34.527344 78.050781 31.640625 79.464844 C 30.792969 79.863281 30.167969 79.636719 29.09375 78.617188 C 27.960938 77.542969 27 77.257812 24.792969 77.257812 C 22.359375 77.257812 21.792969 77.484375 20.320312 79.125 C 18.453125 81.21875 18.167969 83.9375 19.585938 86.652344 C 21.339844 90.105469 19.472656 89.992188 75 89.992188 C 111.453125 89.992188 126.054688 89.824219 126.960938 89.371094 C 130.699219 87.445312 132.054688 84.277344 130.585938 80.765625 C 129.621094 78.558594 127.1875 76.976562 124.699219 76.976562 C 123 76.976562 119.433594 78.84375 119.433594 79.75 C 119.433594 80.257812 104.605469 71.996094 103.527344 70.917969 C 103.246094 70.636719 103.980469 69.277344 105.167969 67.863281 C 114.90625 55.863281 132.28125 55.128906 142.867188 66.222656 C 152.152344 75.898438 152.207031 90.503906 143.039062 100.519531 C 139.867188 103.972656 133.980469 107.199219 129.113281 108.105469 C 127.246094 108.445312 106.472656 108.671875 74.207031 108.613281 C 27.28125 108.613281 22.019531 108.5 18.679688 107.652344 Z M 18.679688 107.652344 "
  />
  <path
    d="M 67.585938 65.9375 C 58.414062 63.957031 49.527344 57.109375 45.28125 48.675781 C 42.621094 43.46875 41.660156 39.335938 41.660156 33.394531 C 41.660156 15.734375 54.90625 1.414062 72.507812 0.167969 C 88.585938 -1.019531 103.585938 9.960938 107.265625 25.640625 C 112.867188 49.410156 91.472656 71.144531 67.585938 65.9375 Z M 81.28125 46.523438 C 90.054688 42.054688 92.09375 30.167969 85.359375 23.261719 C 79.867188 17.660156 71.152344 17.261719 65.265625 22.355469 C 60.167969 26.660156 58.8125 34.242188 61.980469 40.128906 C 64.980469 45.621094 69.792969 48.28125 75.90625 47.882812 C 77.605469 47.769531 80.039062 47.148438 81.28125 46.523438 Z M 81.28125 46.523438 "
  />
</svg>
