<svg xmlns="http://www.w3.org/2000/svg" id="root" viewBox="0 0 31.39 41.82">
  <g transform="matrix(1.33333 0 0 -1.33333 -1125.95 1630.63)">
    <path
      d="m862.32 1210.93-2.22 3.72a10.63 10.63 0 0 1-5.65-3.9c2.53.53 5.14.65 7.87.18m-6.2 3.45-4.33-.07c-.57-2.3-.38-4.57.55-6.83a20.8 20.8 0 0 0 3.78 6.9m-6.08-3.64-2.1-3.78a10.62 10.62 0 0 1 6.18-2.94 20.82 20.82 0 0 0-4.08 6.72m.12-7.09 2.2-3.7c2.29.64 4.17 1.93 5.65 3.88a20.79 20.79 0 0 0-7.85-.18m6.18-3.44 4.33.06c.58 2.3.4 4.58-.54 6.83a20.83 20.83 0 0 0-3.79-6.9m6.08 3.65 2.11 3.77a10.63 10.63 0 0 1-6.18 2.95 20.72 20.72 0 0 0 4.07-6.72m-14.73 19.13h17.08l2-2.01v-.1H868v-2.6h-1.22v-9.68H868v-2.6h-1.22v-9.77H868v-2.6h-1.22l-2-2.01h-17.09l-2 2h-1.23v2.6h1.23v9.78h-1.23v2.6h1.23v9.68h-1.23v2.6h1.23v.1z"
    />
  </g>
</svg>
