<svg xmlns="http://www.w3.org/2000/svg" id="root" viewBox="0 0 150 150">
  <path
    d="M 75 143.726562 C 37.066406 143.675781 6.324219 112.933594 6.273438 75 C 6.3125 37.054688 37.054688 6.300781 75 6.25 C 112.878906 6.25 143.703125 37.097656 143.703125 74.976562 C 143.703125 112.855469 112.925781 143.703125 75 143.703125 M 75 0 C 33.617188 0.0507812 0.078125 33.570312 0 74.953125 C 0.0507812 116.351562 33.601562 149.902344 75 149.953125 C 116.410156 149.914062 149.972656 116.363281 150.023438 74.953125 C 149.945312 33.570312 116.40625 0.0507812 75.023438 0 "
  />
  <path
    d="M 94.222656 63.519531 L 87.214844 51.777344 C 80.066406 53.789062 73.789062 58.121094 69.367188 64.085938 C 77.367188 62.429688 85.605469 62.027344 94.222656 63.519531 M 74.644531 52.628906 L 60.984375 52.863281 C 59.1875 60.109375 59.777344 67.28125 62.714844 74.40625 C 65.269531 66.453125 69.316406 59.0625 74.644531 52.628906 M 55.46875 64.109375 L 48.839844 76.042969 C 54.132812 81.199219 60.984375 84.460938 68.324219 85.320312 C 62.722656 79.132812 58.351562 71.933594 55.445312 64.109375 M 55.824219 86.503906 L 62.785156 98.175781 C 69.929688 96.210938 76.210938 91.902344 80.609375 85.9375 C 72.460938 87.699219 64.046875 87.894531 55.824219 86.503906 M 75.332031 97.347656 L 89.015625 97.160156 C 90.839844 89.914062 90.269531 82.71875 87.3125 75.617188 C 84.738281 83.570312 80.671875 90.964844 75.332031 97.394531 M 94.53125 85.867188 L 101.183594 73.957031 C 95.886719 68.789062 89.027344 65.519531 81.675781 64.65625 C 87.273438 70.839844 91.636719 78.039062 94.53125 85.867188 M 48.035156 25.496094 L 101.941406 25.496094 L 108.261719 31.816406 L 108.261719 32.148438 L 112.144531 32.148438 L 112.144531 40.339844 L 108.285156 40.339844 L 108.285156 70.90625 L 112.144531 70.90625 L 112.144531 79.121094 L 108.285156 79.121094 L 108.285156 109.941406 L 112.144531 109.941406 L 112.144531 118.15625 L 108.285156 118.15625 L 101.988281 124.503906 L 48.035156 124.503906 L 41.714844 118.183594 L 37.832031 118.183594 L 37.832031 109.992188 L 41.714844 109.992188 L 41.714844 79.121094 L 37.832031 79.121094 L 37.832031 70.90625 L 41.714844 70.90625 L 41.714844 40.363281 L 37.832031 40.363281 L 37.832031 32.148438 L 41.714844 32.148438 L 41.714844 31.816406 Z M 48.035156 25.496094 "
  />
</svg>
