<svg xmlns="http://www.w3.org/2000/svg" id="root" viewBox="0 0 150 121">
  <path
    d="M 13.238281 118.601562 L 10.464844 109.449219 L 8.765625 102.789062 L 9.929688 84.753906 L 8.050781 81.199219 L 0 80.042969 L 0.359375 72.136719 L 0.894531 72.136719 L 6.171875 67.785156 L 6.171875 62.632812 L 55.722656 51.617188 L 34.347656 34.027344 L 70.574219 35.800781 L 66.816406 0 L 91.503906 26.5625 L 113.953125 0.175781 L 113.328125 33.9375 L 150 26.386719 L 122.363281 55.96875 L 145.707031 78.710938 L 114.847656 77.023438 L 117.085938 112.292969 L 93.113281 86.351562 L 71.289062 112.117188 L 71.46875 78.269531 L 50.445312 79.867188 L 48.210938 88.929688 L 46.78125 90.261719 L 44.097656 91.773438 L 40.609375 92.570312 L 39.535156 92.925781 L 33.898438 94.347656 L 32.914062 109.628906 L 32.199219 115.402344 L 14.667969 121 Z M 92.933594 79.246094 L 112.074219 99.765625 L 109.839844 72.226562 L 134.167969 73.738281 L 115.296875 56.234375 L 136.046875 34.027344 L 108.765625 40.332031 L 109.300781 12.792969 L 91.324219 33.046875 L 72.898438 13.769531 L 76.117188 40.777344 L 49.195312 39.800781 L 66.367188 54.371094 L 70.484375 54.371094 L 73.613281 49.039062 L 93.828125 46.195312 L 95.886719 55.613281 L 96.0625 60.144531 L 85.957031 63.433594 L 75.851562 66.628906 L 71.289062 62.367188 L 66.011719 63.433594 L 64.578125 67.695312 L 62.878906 74.179688 L 76.566406 72.9375 L 75.9375 98.613281 Z M 42.488281 88.664062 L 43.917969 88.394531 L 45.171875 86.261719 L 46.421875 82.710938 L 46.421875 81.199219 L 43.917969 80.3125 L 36.582031 81.289062 L 36.582031 79.246094 L 34.972656 79.246094 L 33.183594 87.507812 L 34.167969 89.996094 Z M 42.488281 88.664062 "
  />
</svg>
