<svg xmlns="http://www.w3.org/2000/svg" id="root" viewBox="0 0 150 150">
  <path
    d="M 128.609375 32.054688 C 130.160156 33.996094 131.601562 36.019531 132.933594 38.113281 L 128.136719 44.175781 L 139.375 50.992188 C 140.605469 54.273438 141.550781 57.621094 142.214844 60.933594 L 124.003906 63.015625 L 131.105469 91.957031 L 107.78125 73.429688 L 92.316406 98.902344 L 88.941406 69.328125 L 78.714844 71.820312 L 78.714844 71.378906 L 89.507812 67.054688 L 92.539062 54.96875 L 95.535156 60.585938 L 113.714844 51.496094 L 109.832031 38.527344 L 93.390625 43.703125 L 90.800781 48.910156 L 86.476562 50.171875 L 83.449219 47.171875 L 74.484375 50.644531 L 53.023438 37.640625 L 82.628906 34.234375 L 75.777344 6.300781 L 76.851562 6.300781 L 98.882812 23.816406 L 105.226562 13.308594 C 107.277344 14.320312 109.265625 15.421875 111.222656 16.621094 L 111.285156 16.683594 C 113.179688 17.820312 114.976562 19.085938 116.714844 20.441406 L 116.871094 20.566406 L 117.722656 27.921875 L 123.625 26.46875 L 123.6875 26.5625 C 125.421875 28.300781 127.035156 30.128906 128.578125 32.023438 L 128.609375 32.085938 M 143.730469 75.007812 C 143.730469 83.46875 142.152344 91.609375 139.34375 99.089844 L 131.863281 68.476562 L 143.253906 67.152344 C 143.570312 69.738281 143.730469 72.359375 143.730469 75.007812 M 74.988281 143.71875 C 57.503906 143.71875 41.535156 137.152344 29.386719 126.359375 C 37.339844 121.53125 45.480469 112.691406 51.476562 107.738281 L 54.476562 112.03125 L 69.625 105.117188 L 69.625 91.292969 L 79.125 86.527344 L 78.902344 78.261719 L 83.480469 77.15625 L 88.183594 117.964844 L 109.453125 82.835938 L 136.976562 104.675781 C 125.535156 128.523438 101.4375 143.699219 74.988281 143.71875 M 12.121094 95.175781 L 11.238281 97.324219 L 10.070312 97.574219 C 3.125 77.503906 5.84375 55.347656 17.429688 37.550781 C 29.015625 19.75 48.175781 8.296875 69.339844 6.523438 L 74.800781 28.773438 L 33.992188 33.476562 L 67.035156 53.515625 L 39.769531 64.027344 L 39.769531 70.085938 L 36.296875 72.265625 L 37.179688 80.027344 L 43.683594 80.027344 L 37.179688 90.441406 Z M 99.386719 10.753906 L 97.175781 14.414062 L 88.65625 7.628906 C 92.3125 8.386719 95.902344 9.441406 99.386719 10.785156 M 74.988281 0.0234375 C 33.597656 0.0742188 0.0546875 33.617188 0 75.007812 C 0.0546875 116.402344 33.597656 149.945312 74.988281 149.996094 C 116.382812 149.945312 149.925781 116.402344 149.976562 75.007812 C 149.925781 33.617188 116.382812 0.0742188 74.988281 0.0234375 "
  />
</svg>
