<svg xmlns="http://www.w3.org/2000/svg" id="root" viewBox="0 0 63.37 63.36">
  <g transform="matrix(1.33333 0 0 -1.33333 -1015.97 1641.4)">
    <path
      d="M802.73 1220.9a22.32 22.32 0 0 0 1.37-1.92l-1.52-1.92 3.56-2.16c.39-1.04.69-2.1.9-3.15l-5.77-.66 2.25-9.17-7.39 5.87-4.9-8.07-1.07 9.37-3.24-.79v.14l3.42 1.37.96 3.83.95-1.78 5.76 2.88-1.23 4.11-5.21-1.64-.82-1.65-1.37-.4-.96.95-2.84-1.1-6.8 4.12 9.38 1.08-2.17 8.85h.34l6.98-5.55 2.01 3.33c.65-.32 1.28-.67 1.9-1.05l.02-.02c.6-.36 1.17-.76 1.72-1.19l.05-.04.27-2.33 1.87.46.02-.03c.55-.55 1.06-1.13 1.55-1.73l.01-.02m4.79-13.6c0-2.68-.5-5.26-1.39-7.63l-2.37 9.7 3.61.42c.1-.82.15-1.65.15-2.49m-21.78-21.77c-5.54 0-10.6 2.08-14.45 5.5 2.52 1.53 5.1 4.33 7 5.9l.95-1.36 4.8 2.19v4.38l3.01 1.51-.07 2.62 1.45.35 1.49-12.93 6.74 11.13 8.72-6.92a21.8 21.8 0 0 0-19.64-12.37m-19.92 15.38-.28-.68-.37-.08a21.8 21.8 0 0 0 18.78 28.85l1.73-7.05-12.93-1.49 10.47-6.35-8.64-3.33v-1.92l-1.1-.69.28-2.46h2.06l-2.06-3.3zm27.65 26.75-.7-1.16-2.7 2.15a21.8 21.8 0 0 0 3.4-1m-7.73 3.41a23.79 23.79 0 0 1-23.76-23.76 23.79 23.79 0 0 1 23.76-23.76 23.79 23.79 0 0 1 23.76 23.76 23.79 23.79 0 0 1-23.76 23.76"
    />
  </g>
</svg>
