<svg xmlns="http://www.w3.org/2000/svg" id="root" viewBox="521 1158 1677 1362">
  <path
    d="m669 2493-31-103-19-75 13-203-21-40-90-13 4-89h6l59-49v-58l554-124-239-198 405 20-42-403 276 299 251-297-7 380 410-85-309 333 261 256-345-19 25 397-268-292-244 290 2-381-235 18-25 102-16 15-30 17-39 9-12 4-63 16-11 172-8 65-196 63zm891-443 214 231-25-310 272 17-211-197 232-250-305 71 6-310-201 228-206-217 36 304-301-11 192 164h46l35-60 226-32 23 106 2 51-113 37-113 36-51-48-59 12-16 48-19 73 153-14-7 289zm-564 106 16-3 14-24 14-40v-17l-28-10-82 11v-23h-18l-20 93 11 28z"
  />
</svg>
