<svg xmlns="http://www.w3.org/2000/svg" id="root" viewBox="0 0 1200 1860">
  <path
    d="M542 1845c-26-19-37-56-92-320-99-472-196-670-352-718-67-21-98-54-98-104 0-39 45-93 77-93 34 0 119-58 176-119 69-76 141-189 217-346C530 20 549 0 606 0c47 0 64 20 133 158 83 166 172 302 239 364 50 47 119 88 147 88 9 0 30 13 46 29 39 40 41 97 3 135-15 14-34 26-43 26-34 0-122 53-155 93-93 115-151 285-236 685-22 103-43 198-45 210-3 13-17 35-30 48-28 28-88 33-123 9zm88-647c56-199 134-359 218-449l43-47-28-22c-61-48-180-206-232-308-12-23-25-42-29-42s-31 40-59 89c-59 101-160 230-204 262l-29 21 55 61c82 91 184 314 220 485 3 17 10 32 14 32s18-37 31-82z"
  />
</svg>
