<svg xmlns="http://www.w3.org/2000/svg" id="root" viewBox="1583.8 699.1 2431.5 4065.9">
  <path
    d="M1894 4354c-211.2-238.4-279.2-413.6-307-672-19.9-555.2 48.6-751.6 283-1110 157.7-264.6 282-476.2 433-733 199.5-296.5 393.1-716.7 466.6-1045.4 13.9-136 48-117.3 65.2 5.8 79.7 416.5 281.9 789.5 521.2 1131.6 325.6 557.8 925 1322 528 2161-282.3 490.4-652.7 672.7-1088 673-391 3.4-673.7-162.6-902-411zm416-942c-.6-321 96.8-640 200-937 61.8-155.6 164.5-578.2 148.4-636.6-14-34.5-49.4 63.8-68.3 104.4-120.1 265.3-452.4 770-605.2 1183.4-38.3 190.2-142.8 715.5 153.1 733.8 215.2-41.5 173-278.4 172-448z"
  />
</svg>
