<svg xmlns="http://www.w3.org/2000/svg" id="root" viewBox="0 0 150 82">
  <path
    d="M 59.242188 80.828125 C 41.714844 77.480469 24.859375 68.78125 12.554688 56.8125 C 7.585938 51.878906 0 42.507812 0 41.082031 C 0 39.660156 9.605469 28.199219 14.746094 23.597656 C 24.773438 14.476562 39.4375 6.527344 51.910156 3.347656 C 87.304688 -5.691406 123.707031 6.859375 146.125 35.8125 L 150.167969 41.082031 L 147.808594 44.515625 C 136.769531 60.328125 117.304688 73.714844 97.753906 79.070312 C 87.808594 81.832031 69.015625 82.667969 59.242188 80.828125 Z M 94.71875 64.847656 C 98.933594 63.675781 105.503906 60.996094 109.464844 58.988281 C 116.714844 55.222656 129.859375 44.933594 130.953125 42.171875 C 131.628906 40.414062 126.910156 35.308594 119.242188 29.535156 C 114.101562 25.605469 105.675781 21.085938 105 21.839844 C 104.746094 22.007812 104.914062 23.679688 105.335938 25.519531 C 108.035156 36.898438 103.144531 50.457031 94.128906 57.066406 C 87.472656 61.835938 83.765625 63.007812 75 63.089844 C 68.003906 63.171875 66.40625 62.921875 62.191406 60.914062 C 53.679688 56.980469 46.9375 49.367188 44.664062 41.082031 C 43.484375 36.566406 43.398438 27.027344 44.664062 23.929688 C 45.167969 22.59375 45.335938 21.335938 45.167969 21.085938 C 43.734375 19.664062 23.089844 34.222656 19.550781 39.074219 L 17.78125 41.585938 L 22.585938 46.1875 C 34.214844 57.316406 46.347656 63.675781 61.347656 66.519531 C 70.953125 68.359375 85.195312 67.609375 94.71875 64.847656 Z M 80.644531 41.835938 C 91.09375 35.5625 84.773438 19.746094 72.554688 21.585938 C 69.101562 22.089844 64.464844 26.523438 63.792969 29.957031 C 63.203125 32.714844 64.296875 37.234375 66.066406 39.492188 C 69.101562 43.511719 76.09375 44.597656 80.644531 41.835938 Z M 80.644531 41.835938 "
  />
</svg>
