<svg xmlns="http://www.w3.org/2000/svg" id="root" viewBox="0 0 150 121">
  <path
    d="M 5.164062 106.644531 L 9.027344 111.621094 L 14.164062 115.441406 L 20.230469 117.832031 L 26.789062 118.617188 L 33.382812 117.742188 L 39.546875 115.269531 L 44.839844 111.382812 L 48.898438 106.355469 L 51.453125 100.554688 L 52.34375 94.386719 L 51.527344 88.269531 L 49.074219 82.621094 L 45.164062 77.8125 L 40.070312 74.15625 L 34.132812 71.882812 L 27.742188 71.136719 L 21.324219 71.964844 L 15.292969 74.316406 L 11.402344 77.078125 L 14.859375 76.632812 L 18.507812 77.058594 L 21.890625 78.363281 L 24.777344 80.453125 L 26.96875 83.199219 L 28.324219 86.414062 L 28.742188 89.886719 L 28.1875 93.378906 L 26.695312 96.652344 L 24.359375 99.480469 L 21.34375 101.664062 L 17.847656 103.054688 L 14.117188 103.542969 L 10.414062 103.101562 L 6.996094 101.761719 L 4.09375 99.617188 L 2.496094 97.558594 L 2.839844 100.878906 Z M 89.667969 84.546875 L 93.082031 80.25 L 95.171875 75.289062 L 95.8125 70.007812 L 94.964844 64.769531 L 92.707031 59.925781 L 89.199219 55.796875 L 84.683594 52.65625 L 79.464844 50.703125 L 73.886719 50.0625 L 68.320312 50.773438 L 63.128906 52.796875 L 58.660156 55.996094 L 55.210938 60.167969 L 53.019531 65.042969 L 52.253906 70.292969 L 52.964844 75.566406 L 55.128906 80.5 L 58.601562 84.75 L 63.15625 88.011719 L 68.472656 90.054688 L 74.179688 90.726562 L 79.878906 89.976562 L 85.164062 87.867188 Z M 80.625 110.03125 L 82.019531 108.257812 L 82.886719 106.203125 L 83.164062 104.007812 L 82.832031 101.824219 L 81.921875 99.796875 L 80.496094 98.0625 L 78.648438 96.742188 L 76.507812 95.917969 L 74.21875 95.648438 L 71.929688 95.949219 L 69.800781 96.800781 L 67.972656 98.148438 L 66.570312 99.898438 L 65.6875 101.9375 L 65.390625 104.125 L 65.699219 106.320312 L 66.589844 108.359375 L 68.011719 110.113281 L 69.867188 111.457031 L 72.023438 112.296875 L 74.335938 112.570312 L 76.648438 112.261719 L 78.792969 111.394531 Z M 79.695312 3.28125 L 73.546875 2.597656 L 67.40625 3.359375 L 61.679688 5.523438 L 56.746094 8.953125 L 52.933594 13.429688 L 50.515625 18.660156 L 49.65625 24.296875 L 50.433594 29.964844 L 52.816406 35.269531 L 56.648438 39.839844 L 61.675781 43.351562 L 67.550781 45.546875 L 73.859375 46.269531 L 80.15625 45.464844 L 86 43.195312 L 90.976562 39.621094 L 94.742188 35 L 97.046875 29.664062 L 97.742188 23.992188 L 97.089844 20.078125 L 96.320312 21.847656 L 94.199219 24.433594 L 91.398438 26.433594 L 88.105469 27.699219 L 84.558594 28.148438 L 81 27.746094 L 77.675781 26.515625 L 74.816406 24.558594 L 72.625 21.996094 L 71.242188 19.019531 L 70.757812 15.824219 L 71.203125 12.640625 L 72.546875 9.679688 L 74.683594 7.136719 L 77.472656 5.183594 L 80.726562 3.953125 L 81.328125 3.875 Z M 140.976562 109.832031 L 144.757812 104.816406 L 146.988281 99.027344 L 147.539062 92.867188 L 146.382812 86.761719 L 143.621094 81.125 L 139.449219 76.324219 L 134.15625 72.671875 L 128.097656 70.402344 L 121.671875 69.660156 L 115.304688 70.484375 L 109.40625 72.835938 L 104.375 76.550781 L 100.539062 81.40625 L 98.175781 87.082031 L 97.449219 93.195312 L 98.433594 99.347656 L 101.078125 105.109375 L 105.210938 110.074219 L 110.558594 113.886719 L 116.746094 116.273438 L 117.902344 116.410156 L 116.386719 115.332031 L 114.003906 112.480469 L 112.464844 109.167969 L 111.867188 105.617188 L 112.257812 102.074219 L 113.589844 98.78125 L 115.777344 95.953125 L 118.667969 93.785156 L 122.066406 92.414062 L 125.738281 91.929688 L 129.449219 92.367188 L 132.945312 93.691406 L 135.996094 95.820312 L 138.390625 98.617188 L 139.96875 101.890625 L 140.621094 105.425781 L 140.289062 108.980469 L 139.53125 110.941406 Z M 113.152344 58.449219 L 114.472656 56.78125 L 115.277344 54.847656 L 115.503906 52.78125 L 115.144531 50.726562 L 114.222656 48.816406 L 112.808594 47.183594 L 110.988281 45.9375 L 108.898438 45.160156 L 106.667969 44.90625 L 104.453125 45.191406 L 102.402344 45.992188 L 100.65625 47.261719 L 99.324219 48.910156 L 98.507812 50.832031 L 98.257812 52.894531 L 98.597656 54.957031 L 99.503906 56.878906 L 100.914062 58.53125 L 102.738281 59.792969 L 104.847656 60.582031 L 107.097656 60.84375 L 109.332031 60.554688 L 111.398438 59.738281 Z M 47.667969 59.085938 L 49.054688 57.417969 L 49.933594 55.480469 L 50.242188 53.414062 L 49.960938 51.355469 L 49.117188 49.445312 L 47.761719 47.8125 L 45.992188 46.5625 L 43.929688 45.789062 L 41.710938 45.535156 L 39.484375 45.820312 L 37.398438 46.621094 L 35.601562 47.890625 L 34.207031 49.542969 L 33.3125 51.460938 L 32.984375 53.527344 L 33.246094 55.589844 L 34.074219 57.515625 L 35.421875 59.164062 L 37.199219 60.429688 L 39.277344 61.222656 L 41.515625 61.480469 L 43.765625 61.191406 L 45.863281 60.375 Z M 47.667969 59.085938 "
  />
</svg>
