<svg xmlns="http://www.w3.org/2000/svg" id="root" viewBox="0 0 611 495"><path d="m21.04 436.28 15.73 20.35 20.93 15.63 24.7 9.78 26.72 3.22 26.86-3.58 25.1-10.12 21.56-15.91 16.54-20.56 10.41-23.73 3.63-25.24-3.33-25.02-9.99-23.11-15.93-19.67-20.75-14.96-24.19-9.3-26.02-3.05-26.15 3.39-24.57 9.62-15.85 11.3 14.09-1.83 14.86 1.75 13.77 5.33 11.76 8.56 8.94 11.23 5.52 13.16 1.7 14.2-2.26 14.29-6.08 13.39-9.51 11.57-12.29 8.93-14.24 5.68-15.19 2-15.09-1.8-13.93-5.49-11.81-8.77-6.52-8.41 1.41 13.57zm344.21-90.41 13.9-17.57 8.52-20.3 2.6-21.6-3.45-21.44-9.19-19.81-14.29-16.89-18.39-12.85-21.26-7.99-22.72-2.62-22.68 2.91-21.14 8.27-18.21 13.09-14.05 17.07-8.92 19.94-3.13 21.48 2.91 21.57 8.81 20.19 14.15 17.38 18.55 13.35 21.65 8.35 23.25 2.75 23.21-3.06 21.53-8.63zm-36.83 104.25 5.68-7.25 3.53-8.4 1.12-8.98-1.34-8.94-3.71-8.29-5.81-7.09-7.53-5.41-8.72-3.37-9.33-1.1-9.32 1.23-8.67 3.48-7.45 5.51-5.71 7.17-3.59 8.34-1.22 8.95 1.26 8.97 3.64 8.35 5.79 7.18 7.55 5.49 8.79 3.43 9.42 1.13 9.41-1.26 8.74-3.55zm-3.79-436.69-25.05-2.81-25.01 3.12-23.33 8.86-20.09 14.03-15.53 18.31-9.86 21.39-3.5 23.07 3.18 23.18 9.7 21.7 15.61 18.7 20.48 14.36 23.93 8.99 25.7 2.96 25.65-3.29 23.8-9.29 20.26-14.63 15.34-18.9 9.39-21.82 2.84-23.21-2.66-16.01-3.13 7.23-8.65 10.58-11.41 8.18-13.4 5.19-14.45 1.83-14.5-1.65-13.54-5.02-11.64-8.02-8.94-10.48-5.63-12.18-1.97-13.06 1.82-13.03 5.46-12.11 8.71-10.4 11.36-7.99 13.25-5.04 2.46-.31zm249.62 435.89 15.39-20.52 9.1-23.69 2.24-25.2-4.71-24.97-11.26-23.07-16.99-19.64-21.56-14.93-24.68-9.29-26.17-3.04-25.94 3.38-24.02 9.61-20.5 15.21-15.62 19.86-9.63 23.21-2.95 25.02 4.01 25.17 10.76 23.56 16.84 20.31 21.78 15.6 25.21 9.77 4.7.56-6.17-4.42-9.71-11.66-6.27-13.56-2.42-14.52 1.58-14.49 5.43-13.48 8.91-11.56 11.77-8.87 13.84-5.61 14.97-1.98 15.11 1.78 14.24 5.42 12.42 8.72 9.76 11.43 6.43 13.4 2.65 14.46-1.34 14.54-3.1 8.02zM460.9 239.11l5.39-6.82 3.27-7.91.93-8.46-1.47-8.41-3.75-7.81-5.77-6.68-7.4-5.09-8.52-3.18-9.08-1.04-9.02 1.16-8.36 3.28-7.12 5.19-5.42 6.75-3.33 7.86-1.01 8.43 1.38 8.44 3.69 7.86 5.75 6.76 7.43 5.17 8.59 3.23 9.16 1.06 9.1-1.18 8.42-3.34zm-266.74 2.61 5.66-6.83 3.57-7.92 1.26-8.46-1.14-8.42-3.44-7.82-5.52-6.68-7.21-5.1-8.4-3.17-9.04-1.04-9.07 1.16-8.49 3.28-7.33 5.19-5.67 6.76-3.64 7.86-1.34 8.44 1.06 8.44 3.38 7.88 5.49 6.75 7.23 5.18 8.47 3.23 9.12 1.06 9.16-1.18 8.54-3.34z"/></svg>