<svg xmlns="http://www.w3.org/2000/svg" id="root" viewBox="55 9.9 145.9 236.1">
  <path
    d="M120.6 10.6c-16.2 3.7-30.5 16.3-40.9 36.2L77.1 52c-.2.4-2.7 0-9.1-1.5-8.3-2-9-2.1-10.4-1.3a4.1 4.1 0 0 0-2.6 4c0 2.1 16.1 41 17.4 42.1.6.5 1.9.9 2.9.9 1.5 0 3.8-1.8 18.6-14.3a157 157 0 0 0 17.2-15.5c.4-1.7-.1-3.7-1.3-4.9-.5-.5-3.1-1.5-5.8-2.2l-4.8-1.2 1.4-2.5c9.3-16 19.8-24 30.2-23.1 5.5.5 10.3 3.2 16.2 9a62 62 0 0 1 12.1 17c8.2 16 12.7 35.7 13.7 59.5.3 6.8.6 8.8 1.4 10.7 2.1 4.4 7.4 6.9 12.4 5.8a9.5 9.5 0 0 0 5.4-3c3.8-3.8 4.3-6.6 3.2-21.7-2.2-28.9-9.6-53.5-22-72.2a74.3 74.3 0 0 0-10.4-12.4 48 48 0 0 0-20.9-13.5 47.4 47.4 0 0 0-21.3-1.1zm-52.9 111c-2.5 1-4.9 3.3-6.1 6-1.5 3.1-1.6 6.1-.7 18.2C65 204.1 92.5 246 126.8 246c19.6-.1 36.8-12.9 49.6-37.2l2.9-5.5 8.4 2.1c5.1 1.3 8.9 2 9.7 1.8 1.9-.5 3.5-2.4 3.5-4.2 0-2-15.5-40.2-17-41.8-1.3-1.4-3.1-1.9-4.7-1.3-1.8.6-33.4 27.5-34.1 28.9-1.8 3.8 0 6 6.3 7.5 5.6 1.4 5.6 1.1 1.4 7.8a56 56 0 0 1-17 17c-9.2 4.4-18.6 1.9-27.5-7.2-14.7-15.2-23.7-42.5-25.2-76.3-.4-8.5-.9-10.6-3.3-13.1a12 12 0 0 0-12.1-2.9z"
  />
</svg>
