<svg xmlns="http://www.w3.org/2000/svg" id="root" viewBox="0 0 1160 1120"><path d="M431 1083 c-57 -28 -124 -104 -166 -188 -36 -71 -47 -84 -115 -132 -41 -29 -85 -67 -98 -85 -40 -59 -22 -118 38 -118 49 0 79 21 126 87 50 70 114 123 149 123 75 0 83 -150 20 -410 -45 -183 -43 -270 5 -285 48 -15 59 8 94 206 29 163 41 208 60 234 14 19 16 19 33 2 16 -16 19 -43 23 -235 3 -119 9 -225 14 -235 13 -28 54 -33 78 -9 23 23 24 36 13 257 -8 160 2 235 31 235 24 0 35 -47 45 -190 9 -134 29 -241 51 -267 6 -8 21 -13 32 -11 37 5 41 58 17 224 -25 175 -26 233 -7 260 23 29 45 9 97 -89 77 -143 119 -186 154 -157 34 28 6 120 -71 235 -53 81 -73 143 -83 261 -14 165 -68 251 -180 289 -65 22 -313 21 -360 -2z"/></svg>