<svg xmlns="http://www.w3.org/2000/svg" id="root" viewBox="0 0 150 169">
  <path
    d="M 70.765625 167.308594 C 60.605469 165.257812 55.523438 162.480469 48.507812 155.359375 C 37.257812 143.769531 34.355469 139.425781 21.773438 115.28125 C 18.023438 108.039062 13.789062 100.070312 12.460938 97.777344 C 11.128906 95.484375 7.621094 89.570312 4.839844 84.742188 C 0.121094 76.53125 -0.121094 75.6875 1.210938 72.308594 C 3.023438 68.082031 7.378906 65.910156 12.339844 66.996094 C 16.453125 67.960938 23.46875 75.808594 29.757812 86.3125 C 35.203125 95.726562 41.855469 103.8125 44.152344 103.8125 C 47.539062 103.8125 48.75 96.933594 47.902344 81.84375 C 47.539062 73.636719 46.695312 63.980469 46.089844 60.355469 C 43.183594 42.613281 40.886719 21.730469 41.492188 19.074219 C 42.824219 14.003906 47.054688 9.65625 50.683594 9.65625 C 56.855469 9.65625 58.304688 12.796875 61.695312 34.402344 C 63.023438 43.335938 64.839844 52.871094 66.53125 60.960938 C 67.136719 63.617188 67.863281 67.238281 68.347656 69.167969 C 68.710938 71.101562 69.796875 72.429688 70.886719 72.429688 C 72.703125 72.429688 72.824219 71.101562 71.976562 61.324219 C 71.007812 48.648438 71.007812 10.863281 72.097656 7.605469 C 74.273438 0.964844 75.363281 0 80.445312 0 C 84.074219 0 86.128906 0.722656 87.824219 2.535156 C 89.878906 4.828125 90.242188 7.96875 90.847656 38.265625 C 91.574219 70.496094 92.539062 77.015625 95.324219 71.703125 C 95.925781 70.375 96.773438 64.21875 97.257812 57.941406 C 100.160156 12.917969 100.765625 9.65625 107.660156 9.65625 C 115.886719 9.65625 118.546875 15.332031 117.339844 29.574219 C 116.855469 35.609375 116.128906 49.976562 115.886719 61.5625 C 115.523438 79.671875 115.765625 82.6875 117.339844 82.6875 C 119.515625 82.6875 126.773438 68.566406 134.03125 50.097656 C 138.265625 39.351562 142.257812 35.972656 147.097656 39.230469 C 149.636719 40.921875 150 41.886719 150 49.25 C 150 53.839844 149.515625 57.941406 149.03125 58.546875 C 148.546875 59.269531 147.339844 61.925781 146.492188 64.582031 C 145.523438 67.238281 143.105469 73.273438 140.925781 77.859375 C 130.28125 100.675781 128.226562 106.46875 128.226562 114.679688 C 128.226562 121.679688 126.046875 138.21875 124.355469 143.648438 C 120.605469 156.203125 109.476562 163.6875 88.546875 167.792969 C 81.046875 169.242188 80.445312 169.242188 70.765625 167.308594 Z M 70.765625 167.308594 "
  />
</svg>
