<svg xmlns="http://www.w3.org/2000/svg" id="root" viewBox="0 0 150 144">
  <path
    d="M 55.734375 139.242188 C 48.363281 135.644531 39.699219 125.871094 34.265625 115.070312 C 29.613281 105.941406 28.191406 104.269531 19.398438 98.101562 C 14.09375 94.371094 8.40625 89.484375 6.722656 87.171875 C 1.550781 79.585938 3.878906 72 11.636719 72 C 17.972656 72 21.851562 74.699219 27.929688 83.1875 C 34.398438 92.1875 42.671875 99 47.199219 99 C 56.898438 99 57.929688 79.714844 49.785156 46.285156 C 43.964844 22.757812 44.222656 11.570312 50.429688 9.644531 C 56.636719 7.714844 58.058594 10.671875 62.585938 36.128906 C 66.335938 57.085938 67.886719 62.871094 70.34375 66.214844 C 72.15625 68.65625 72.414062 68.65625 74.613281 66.472656 C 76.679688 64.414062 77.070312 60.941406 77.585938 36.257812 C 77.972656 20.957031 78.75 7.328125 79.398438 6.042969 C 81.078125 2.441406 86.378906 1.800781 89.484375 4.886719 C 92.457031 7.84375 92.585938 9.515625 91.164062 37.929688 C 90.128906 58.5 91.421875 68.144531 95.171875 68.144531 C 98.277344 68.144531 99.699219 62.101562 100.992188 43.714844 C 102.15625 26.484375 104.742188 12.730469 107.585938 9.386719 C 108.363281 8.355469 110.300781 7.714844 111.722656 7.972656 C 116.507812 8.613281 117.027344 15.429688 113.921875 36.769531 C 110.691406 59.269531 110.558594 66.730469 113.015625 70.199219 C 115.992188 73.929688 118.835938 71.355469 125.558594 58.757812 C 135.515625 40.371094 140.949219 34.84375 145.472656 38.570312 C 149.871094 42.171875 146.25 54 136.292969 68.785156 C 129.441406 79.199219 126.851562 87.171875 125.558594 102.34375 C 123.75 123.558594 116.765625 134.613281 102.285156 139.5 C 93.878906 142.328125 61.808594 142.199219 55.734375 139.242188 Z M 55.734375 139.242188 "
  />
</svg>
