<svg xmlns="http://www.w3.org/2000/svg" id="root" viewBox="0 0 150 289">
  <path
    d="M 51.117188 283.796875 C 50.859375 283.347656 50.472656 281.230469 50.277344 279.109375 L 49.894531 275.191406 L 46.996094 274.871094 C 45.386719 274.679688 43.710938 274.292969 43.328125 274.035156 C 42.683594 273.652344 42.488281 270.3125 42.488281 261.191406 C 42.488281 254.382812 42.230469 248.539062 41.972656 248.15625 C 41.265625 247.0625 39.722656 246.742188 38.496094 247.382812 C 37.855469 247.640625 36.179688 249.566406 34.765625 251.621094 C 33.347656 253.613281 30.835938 256.890625 29.226562 258.816406 C 27.683594 260.742188 24.335938 264.980469 21.886719 268.128906 C 19.441406 271.339844 15.902344 275.640625 14.035156 277.695312 C 10.6875 281.292969 10.429688 281.484375 8.242188 281.035156 C 4.183594 280.265625 4.054688 279.429688 6.695312 273.074219 C 7.984375 269.988281 9.011719 267.230469 9.011719 266.972656 C 9.011719 266.714844 9.59375 265.300781 10.234375 263.761719 C 10.945312 262.285156 12.101562 259.394531 12.8125 257.402344 C 13.519531 255.347656 14.421875 253.164062 14.742188 252.585938 C 15.128906 251.945312 18.667969 243.210938 22.597656 233.253906 C 30.320312 213.796875 31.351562 212.0625 34.183594 213.925781 C 34.894531 214.4375 36.886719 217.457031 38.496094 220.601562 C 40.171875 223.8125 41.84375 226.320312 42.167969 226.253906 C 42.875 226.0625 43.453125 203.070312 42.8125 200.566406 C 42.617188 199.730469 41.972656 199.089844 41.332031 199.089844 C 40.6875 199.089844 39.851562 198.769531 39.398438 198.316406 C 38.367188 197.289062 38.367188 190.160156 39.464844 189.839844 C 39.851562 189.648438 41.007812 189.390625 42.039062 189.199219 C 43.648438 188.8125 43.777344 188.554688 43.777344 185.730469 C 43.777344 182.003906 44.550781 181.105469 47.703125 181.105469 C 48.992188 181.105469 50.40625 180.65625 50.859375 180.144531 C 51.886719 178.921875 51.503906 160.296875 50.472656 159.269531 C 50.085938 158.886719 47.898438 158.371094 45.644531 158.113281 L 41.523438 157.664062 L 41.203125 149.125 C 40.878906 140.839844 40.816406 140.582031 39.269531 139.8125 C 38.046875 139.167969 37.597656 138.398438 37.46875 136.535156 C 37.144531 132.875 37.789062 131.207031 39.785156 130.242188 L 41.523438 129.40625 L 41.84375 109.179688 C 42.039062 98.066406 42.296875 88.882812 42.359375 88.820312 C 42.425781 88.691406 44.035156 88.625 45.902344 88.625 C 51.953125 88.625 51.503906 91.964844 51.632812 50.414062 L 51.824219 13.808594 L 57.488281 13.679688 C 60.644531 13.613281 63.605469 13.421875 64.121094 13.230469 C 64.699219 12.972656 65.019531 11.816406 65.019531 9.632812 C 65.019531 4.558594 65.921875 3.980469 74.613281 3.980469 C 82.984375 4.046875 83.496094 4.367188 83.820312 9.632812 L 84.011719 13.164062 L 90.128906 13.359375 C 93.476562 13.488281 96.503906 13.808594 96.824219 14.128906 C 97.210938 14.515625 97.53125 28.898438 97.660156 50.800781 C 97.789062 76.617188 98.046875 87.085938 98.5625 87.726562 C 99.011719 88.242188 100.558594 88.625 102.359375 88.625 C 107.898438 88.625 107.511719 86.957031 107.511719 109.242188 L 107.511719 129.152344 L 109.765625 130.433594 C 111.824219 131.65625 112.015625 132.039062 112.015625 134.929688 C 112.015625 136.921875 111.695312 138.335938 111.050781 138.847656 C 108.089844 141.289062 108.15625 141.160156 108.15625 149.316406 C 108.15625 154.96875 107.898438 157.410156 107.382812 157.792969 C 106.929688 158.050781 104.808594 158.4375 102.683594 158.628906 L 98.820312 158.949219 L 98.625 169.160156 C 98.433594 180.144531 98.691406 181.105469 101.652344 181.105469 C 104.679688 181.105469 106.222656 182.777344 106.222656 185.921875 C 106.222656 188.683594 106.289062 188.8125 108.796875 189.457031 L 111.375 190.160156 L 111.375 194.273438 C 111.375 197.933594 111.246094 198.445312 110.214844 198.445312 C 109.507812 198.445312 108.539062 198.960938 107.898438 199.667969 C 106.996094 200.695312 106.867188 202.363281 106.996094 213.21875 C 107.1875 226.382812 107.703125 228.179688 109.765625 223.6875 C 113.949219 214.503906 115.300781 212.769531 117.8125 213.539062 C 119.421875 214.050781 120.128906 215.464844 124.828125 227.152344 C 126.953125 232.421875 131.714844 244.171875 135.515625 253.355469 C 139.3125 262.539062 143.113281 272.046875 144.078125 274.484375 L 145.75 278.917969 L 144.269531 280.074219 C 142.144531 281.808594 138.667969 281.679688 137.703125 279.878906 C 137.253906 279.046875 135.449219 276.667969 133.582031 274.550781 C 131.78125 272.429688 128.175781 267.933594 125.664062 264.59375 C 123.089844 261.257812 119.808594 257.015625 118.328125 255.21875 C 116.78125 253.355469 114.722656 250.851562 113.753906 249.566406 C 111.886719 247.191406 109.765625 246.550781 108.285156 248.027344 C 107.769531 248.539062 107.511719 252.394531 107.511719 261.0625 C 107.511719 269.734375 107.253906 273.585938 106.738281 274.101562 C 106.289062 274.550781 104.9375 274.871094 103.648438 274.871094 C 100.558594 274.871094 99.785156 275.835938 99.785156 279.367188 C 99.785156 284.246094 99.207031 284.570312 91.417969 284.375 L 84.65625 284.183594 L 84.464844 280.328125 C 84.207031 275.511719 83.496094 274.613281 80.535156 275.191406 C 79.25 275.449219 76.800781 275.640625 75 275.640625 C 73.261719 275.640625 70.75 275.449219 69.464844 275.191406 C 66.503906 274.613281 65.792969 275.511719 65.535156 280.328125 L 65.34375 284.183594 L 58.453125 284.375 C 53.625 284.503906 51.4375 284.3125 51.117188 283.796875 Z M 51.117188 283.796875 "
  />
</svg>
