<svg xmlns="http://www.w3.org/2000/svg" id="root" viewBox="0 0 150 150">
  <path
    d="M 33.082031 148.753906 C 32.488281 148.160156 32.015625 147.449219 32.015625 147.273438 C 32.015625 147.035156 34.445312 144.484375 37.351562 141.582031 L 42.6875 136.304688 L 42.6875 133.636719 L 40.910156 131.917969 L 39.128906 130.199219 L 44.464844 125.097656 L 49.800781 120 L 49.800781 116.207031 L 49.269531 116.207031 C 48.617188 116.207031 42.6875 110.277344 42.6875 109.625 L 42.6875 109.089844 L 40.910156 109.089844 L 40.910156 108.496094 C 40.910156 107.90625 38.773438 105.535156 38.242188 105.535156 C 37.707031 105.535156 35.574219 103.160156 35.574219 102.570312 L 35.574219 101.976562 L 33.792969 101.976562 L 33.792969 101.085938 C 33.792969 100.613281 33.617188 100.199219 33.378906 100.199219 C 33.082031 100.199219 32.371094 100.019531 31.660156 99.84375 L 30.414062 99.484375 L 25.019531 104.882812 C 22.054688 107.847656 19.507812 110.277344 19.269531 110.277344 C 19.03125 110.277344 18.082031 109.445312 17.132812 108.4375 L 15.414062 106.601562 L 12.570312 107.3125 L 7.589844 112.410156 L 2.550781 117.511719 L 1.304688 116.738281 L 0 115.910156 L 0 111.582031 L 0.890625 110.871094 L 1.777344 110.15625 L 1.777344 107.253906 L 2.667969 106.957031 L 3.558594 106.601562 L 3.558594 103.28125 L 4.445312 102.925781 L 5.335938 102.628906 L 5.335938 101.382812 C 5.335938 100.730469 5.691406 99.664062 6.105469 99.011719 L 6.816406 97.765625 L 3.4375 94.507812 L 0 91.1875 L 0 62.609375 L 3.496094 59.347656 L 6.9375 56.027344 L 7.410156 54.664062 L 7.824219 53.242188 L 5.574219 51.226562 L 3.261719 49.210938 L 5.21875 47.488281 C 6.226562 46.480469 7.113281 45.414062 7.113281 45.117188 L 7.113281 44.464844 L 8.773438 44.464844 L 9.128906 43.753906 L 9.425781 42.984375 L 10.789062 44.464844 C 11.5625 45.296875 12.746094 46.421875 13.398438 47.015625 L 14.703125 48.082031 L 30.414062 32.3125 C 39.070312 23.597656 46.601562 16.007812 47.074219 15.472656 L 48.023438 14.40625 L 45.59375 11.976562 L 43.101562 9.546875 L 46.1875 6.460938 L 49.269531 3.320312 L 51.285156 5.574219 L 53.242188 7.824219 L 54.484375 7.410156 L 55.730469 7.054688 L 59.050781 3.496094 L 62.429688 0 L 91.480469 0 L 94.625 3.320312 L 97.765625 6.582031 L 98.953125 5.988281 C 99.605469 5.632812 100.789062 5.335938 101.5625 5.335938 L 103.042969 5.335938 L 103.398438 4.445312 L 103.695312 3.558594 L 106.601562 3.558594 L 108.023438 1.777344 L 110.335938 1.777344 L 111.226562 0.890625 L 112.113281 0 L 115.613281 0 L 117.867188 2.253906 L 112.589844 7.46875 L 107.3125 12.628906 L 106.957031 13.933594 L 106.601562 15.296875 L 108.617188 17.488281 L 110.574219 19.742188 L 109.800781 20.039062 L 109.089844 20.277344 L 109.089844 21.9375 L 108.558594 21.9375 C 108.261719 21.9375 106.125 23.835938 103.753906 26.085938 L 99.546875 30.296875 L 99.902344 32.015625 L 100.316406 33.792969 L 100.851562 33.792969 C 101.5625 33.792969 103.753906 35.988281 103.753906 36.757812 L 103.753906 37.351562 L 105.535156 37.351562 L 105.535156 39.128906 L 107.3125 39.128906 L 107.3125 40.910156 L 107.847656 40.910156 C 108.617188 40.910156 116.207031 48.496094 116.207031 49.269531 L 116.207031 49.800781 L 119.941406 49.800781 L 125.097656 44.464844 L 130.257812 39.191406 L 131.917969 40.910156 L 133.636719 42.6875 L 136.363281 42.6875 L 141.640625 37.351562 C 144.605469 34.386719 147.152344 32.015625 147.332031 32.015625 C 147.511719 32.015625 148.160156 32.550781 148.8125 33.203125 L 150 34.386719 L 150 36.640625 L 149.109375 37.351562 L 148.222656 38.0625 L 148.222656 40.789062 L 147.332031 41.503906 L 146.441406 42.214844 L 146.441406 44.820312 L 145.730469 45.535156 C 145.375 45.890625 144.722656 47.074219 144.367188 48.140625 C 143.953125 49.210938 143.476562 50.515625 143.242188 50.988281 L 142.824219 51.9375 L 146.382812 55.433594 L 149.941406 58.992188 L 150 73.101562 L 150 87.152344 L 146.917969 90.117188 C 145.199219 91.777344 143.597656 93.082031 143.417969 93.082031 C 143.183594 93.082031 142.824219 93.914062 142.589844 94.921875 L 142.175781 96.757812 L 144.128906 98.476562 L 146.085938 100.257812 L 142.945312 103.222656 L 139.863281 106.246094 L 137.847656 104.050781 L 135.890625 101.796875 L 134.941406 102.152344 L 133.992188 102.511719 L 133.992188 103.753906 L 132.214844 103.753906 L 132.214844 104.347656 C 132.214844 105 120.949219 116.207031 120.238281 116.207031 C 120 116.207031 119.761719 116.503906 119.761719 116.796875 C 119.761719 117.570312 117.570312 119.761719 116.796875 119.761719 C 116.503906 119.761719 116.207031 120 116.207031 120.238281 C 116.207031 120.949219 106.777344 130.433594 106.066406 130.433594 L 105.535156 130.433594 L 105.535156 132.214844 L 104.941406 132.214844 C 104.171875 132.214844 101.976562 134.40625 101.976562 135.238281 C 101.976562 135.59375 102.984375 136.777344 104.171875 137.90625 L 106.363281 139.980469 L 100.257812 146.085938 L 98.539062 144.191406 L 96.816406 142.292969 L 94.269531 142.292969 L 92.90625 143.835938 C 90.058594 147.152344 88.992188 148.222656 88.339844 148.222656 L 87.746094 148.222656 L 87.746094 150 L 58.519531 150 L 55.199219 146.382812 L 51.878906 142.707031 L 49.980469 143.714844 C 48.914062 144.25 47.726562 144.664062 47.253906 144.664062 L 46.363281 144.664062 L 45.652344 145.554688 L 44.941406 146.441406 L 42.214844 146.441406 L 41.503906 147.332031 L 40.789062 148.222656 L 38.0625 148.222656 L 37.351562 149.109375 L 36.640625 150 L 35.335938 149.941406 L 34.089844 149.882812 Z M 33.082031 148.753906 "
  />
</svg>
