<svg xmlns="http://www.w3.org/2000/svg" viewBox="0 0 12920 12900">
  <path
    d="M5991 11043c-255-1022-465-1862-467-1868-3-9 883-658 925-678 14-7 121 66 482 329 255 185 465 338 467 339 5 4-932 3735-938 3735-3 0-214-836-469-1857zm534-347c13-13 27-35 30-48 2-12 23-107 45-210 85-400 143-570 236-685 33-40 121-93 155-93 9 0 28-12 43-26 38-38 36-95-3-135-16-16-37-29-46-29-28 0-97-41-147-88-67-62-156-198-239-364-69-138-86-158-133-158-57 0-76 20-136 145-76 157-148 270-217 346-57 61-142 119-176 119-32 0-77 54-77 93 0 50 31 83 98 104 156 48 253 246 352 718 55 264 66 301 92 320 35 24 95 19 123-9z" />
  <path
    d="M6445 10108c-36-171-138-394-220-485l-55-61 29-21c44-32 145-161 204-262 28-49 55-89 59-89s17 19 29 43c52 101 171 259 232 307l28 22-43 47c-84 90-162 250-218 449-13 45-27 82-31 82s-11-15-14-32zM5790 11643c-122-14-415-71-586-113-379-94-708-215-1064-391-315-156-547-300-822-506l-140-105 722-433 721-432 172 87c188 95 359 165 564 230l133 42 9 37c6 20 96 378 201 796s193 768 196 778c6 18-17 20-106 10zM7225 10841c111-447 204-814 206-816s85-30 184-63c209-69 367-135 552-231l131-69 722 433 721 433-83 64c-577 445-1239 765-1938 937-204 50-490 103-627 117l-71 6 203-811zM2881 9368c546-909 993-1654 994-1656 4-4 1146 175 1149 180 1 2 33 197 70 433 37 237 77 494 90 571l22 141-1649 989c-908 544-1654 990-1658 992-5 2 437-740 982-1650zm1484-124c201-52 345-241 345-453 0-144-48-251-160-354l-70-65 22-48c31-67 30-161 0-229-50-109-145-170-267-169-112 1-202 58-256 164-33 64-33 177 0 239l23 45-23 19c-145 114-209 236-209 397 0 171 89 324 240 413 94 55 239 72 355 41z" />
  <path
    d="M4165 9111c-93-24-177-92-220-177-26-52-30-70-30-144 0-66 5-95 22-132 30-66 96-133 162-165 48-24 68-28 141-28s93 4 141 28c66 32 132 99 162 165 31 69 30 199-3 267-31 64-102 134-164 164-53 24-160 36-211 22zM4120 8288c-41-68-17-169 49-203s155-11 191 48c26 42 26 112 0 155l-20 32h-200l-20-32zM9371 10030c-1407-844-1651-994-1651-1013 1-12 40-269 89-571 86-541 88-550 112-557 32-10 1120-182 1124-177 2 1 447 743 990 1648s989 1648 992 1653c2 4 2 7 0 7-3 0-748-446-1656-990zm-726-755c22-11 63-42 90-70 162-167 260-507 272-947l6-208h-963v38c1 109 22 395 36 484 61 394 193 650 369 716 43 16 143 9 190-13z" />
  <path
    d="M8472 9058c-96-100-179-397-206-735l-6-73h547l-4 58c-21 334-102 630-204 747-42 47-83 48-127 3zM2282 9598c-473-631-784-1320-946-2094-30-142-79-474-72-482 3-2 370 87 816 199l811 204 64 191c69 209 145 389 237 562l60 113-431 720c-238 395-434 719-436 719s-49-60-103-132zM10102 9011l-432-719 83-163c96-188 172-375 233-569l42-135 811-204c446-112 814-201 817-198 8 8-33 292-67 462-131 649-390 1279-754 1835-75 114-290 410-298 410-2 0-198-324-435-719zM5820 7972c-338-140-616-256-617-257-2-1-120-285-264-632l-261-630 257-619c141-341 260-625 264-632 4-6 289-128 634-271l628-260 626 259c345 143 630 263 634 267 20 24 520 1255 515 1270-9 27-514 1244-518 1247-17 14-1248 516-1263 515-11-1-297-116-635-257zm145-873c39-12 91-32 117-45s52-24 59-24c6 0 39 13 74 30 100 48 177 64 300 64s200-16 300-64c35-17 68-30 74-30 7 0 33 11 59 24 103 52 188 71 317 70 139-1 233-26 344-91 101-60 151-110 158-159 10-75-43-134-120-134-24 0-49 12-88 41-30 23-83 55-119 73-61 29-72 31-180 31s-119-2-181-31c-36-17-85-45-109-63-64-46-107-43-190 14-81 57-169 85-265 85s-184-28-265-85c-83-57-126-60-190-14-24 18-73 46-109 63-62 29-73 31-181 31s-119-2-180-31c-36-18-89-50-119-73-39-29-64-41-88-41-77 0-130 59-120 134 4 32 15 49 50 81 86 78 222 143 341 165 79 14 231 4 311-21zm-44-483c36-8 102-31 146-51l80-36 60 31c185 93 431 93 616 0l60-31 80 36c99 46 187 65 297 65 173 0 339-62 451-169 54-51 59-60 59-98 0-33-7-50-31-77-53-61-112-58-193 9-164 134-383 134-577 0-68-47-104-44-184 13-161 115-379 115-540 0-80-57-116-60-184-13-122 84-241 116-358 95-82-14-162-49-219-95-81-67-140-70-193-9-24 27-31 44-31 77 0 38 5 47 59 98 69 66 197 133 292 154 84 18 227 18 310 1zm25-502c34-9 92-31 130-49l68-33 56 28c105 53 194 74 315 74s210-21 315-74l56-28 69 33c101 49 192 69 310 69 157-1 285-44 413-139 88-64 111-119 77-185-21-41-53-60-101-60-34 0-53 9-108 50-100 73-160 94-281 94-120 1-177-16-273-82-88-60-117-60-209 0-103 68-151 83-268 83s-165-15-268-83c-92-60-121-60-209 0-96 66-153 83-273 82-121 0-181-21-281-94-55-41-74-50-108-50-48 0-80 19-101 60-33 63-11 120 68 178 184 137 388 180 603 126zM1855 6920C832 6662-2 6451 2 6451c4-1 847-212 1875-470l1869-468 337 463c185 255 338 468 339 473 2 5-149 219-335 475-225 310-344 466-355 465-9-1-854-212-1877-469zm1625 15c232-64 463-224 594-413l28-41-48-63c-266-346-698-496-1118-388-148 38-322 133-441 242-61 55-175 192-175 209s90 129 149 188c146 143 346 247 554 287 116 22 339 12 457-21z" />
  <path
    d="M3048 6785c-178-34-322-110-460-243l-57-55 21-30c42-58 287-232 304-215 2 3 0 18-6 34-15 37-14 151 0 205 27 99 107 190 208 237 50 24 69 27 152 26 104-1 148-15 227-72 107-79 165-241 133-377-5-22-7-42-4-44 8-9 108 45 169 92 91 69 147 130 139 151-13 33-169 156-255 201-175 90-390 124-571 90z" />
  <path
    d="M3146 6495c-36-19-53-40-65-84-14-48-3-88 35-126 78-78 209-32 221 78 12 106-96 181-191 132zM8835 6926c-185-256-337-468-337-473 1-4 153-218 338-474l338-465 1836 458c1009 253 1853 464 1875 470 38 10-75 39-1825 479-1026 258-1870 468-1876 469-7 0-163-209-349-464zm2370-350c-235-161-699-476-704-476-3 0-53 27-109 60-57 33-109 60-116 60s-133-92-281-204l-269-204-123 114c-86 80-129 114-141 110-28-9-227-54-228-53-3 4-282 369-371 485l-94 122h1228c1039 0 1224-2 1208-14zM1265 5838c81-685 306-1366 653-1978 125-222 440-676 467-674 6 1 203 322 438 714l428 713-84 166c-96 190-172 377-233 571l-42 135-809 202c-444 111-812 203-816 203s-5-24-2-52zM10831 5686c-443-111-806-206-807-211-1-6-21-71-44-145-57-184-136-375-231-559l-79-155 432-722 432-721 56 71c543 692 923 1578 1044 2436 29 205 29 210 14 209-7 0-375-92-817-203zM2905 3579c-533-891-981-1638-994-1659-22-38 81 22 1470 856 822 493 1568 940 1660 994l165 98-91 573c-49 315-95 574-100 576-6 1-253 41-550 88s-551 87-565 90c-24 4-78-84-995-1616zm1881 1039c-21-486-110-815-267-982-75-81-132-110-214-110-187 0-346 225-424 601-32 156-51 342-51 505v148h963l-7-162z" />
  <path
    d="M4043 4463c21-355 156-733 262-733 96 0 214 286 254 615 5 44 12 113 16 153l6 72h-544l6-107zM8465 5108c-308-49-562-94-565-98-8-14-185-1139-180-1143 17-15 3296-1975 3299-1972 7 7-1974 3304-1984 3304-5-1-262-42-570-91zm369-324c97-25 174-71 256-154 87-86 122-147 150-256 52-202-1-395-150-544-123-123-263-177-435-167-172 11-305 80-417 219-81 99-118 212-118 358 0 78 5 109 29 177 63 182 209 318 393 367 72 20 216 20 292 0z" />
  <path
    d="M8574 4399c-115-44-185-142-192-269-5-98 21-171 83-234 70-69 124-91 225-91 73 0 92 4 135 27 64 34 118 90 147 153 34 74 32 191-4 261-34 65-114 137-175 158-63 22-156 20-219-5zM5990 4080c-385-280-465-343-462-360 2-24 920-3687 929-3710 3-8 216 826 474 1855 264 1057 464 1874 459 1879-14 14-925 676-930 675-3 0-214-152-470-339zm520-238c190-96 182-315-22-624-90-135-101-157-122-230-20-67-23-204-5-273 30-122 116-238 186-251 79-15 123 52 123 187 0 46-5 113-11 149-26 153-9 410 36 516 54 129 154 158 281 80 98-59 158-296 105-413-21-46-45-63-88-63-34 0-46 8-63 39-10 20-10 44 0 126 14 117 7 145-38 145-47 0-90-34-102-82-14-50-10-90 32-298 56-285 40-409-66-515-61-61-116-80-207-72-264 24-482 380-415 679 20 88 59 173 149 321 162 265 171 442 20 370-45-21-76-69-119-184-51-135-59-147-103-160-33-10-44-8-84 9-91 40-103 102-44 226 138 291 360 417 557 318zM3907 2815c-394-236-717-433-717-437 0-22 365-281 575-407 597-359 1253-594 1925-690 228-33 212-32 206-13-3 9-91 361-196 782s-195 781-200 800l-10 35-192 63c-202 66-434 165-585 249l-88 49-718-431zM8175 3180c-154-83-381-178-575-241-91-29-166-54-168-54-1-1-92-361-203-801-110-439-202-807-205-816-4-14 1-16 28-12 313 41 504 77 728 135 342 89 655 206 985 369 318 156 545 295 832 509 109 81 140 109 130 117-19 18-1410 847-1427 850-8 2-64-23-125-56z" />
</svg>