<svg xmlns="http://www.w3.org/2000/svg" id="root" viewBox="0 0 150 149">
  <path
    d="M 69.554688 127.550781 C 66.59375 115.746094 64.15625 106.042969 64.132812 105.976562 C 64.097656 105.871094 74.382812 98.375 74.871094 98.144531 C 75.035156 98.0625 76.277344 98.90625 80.46875 101.945312 C 83.429688 104.082031 85.867188 105.847656 85.890625 105.859375 C 85.949219 105.90625 75.070312 149 75 149 C 74.964844 149 72.515625 139.34375 69.554688 127.550781 Z M 75.753906 123.542969 C 75.90625 123.394531 76.066406 123.140625 76.101562 122.988281 C 76.125 122.851562 76.371094 121.753906 76.625 120.5625 C 77.613281 115.941406 78.285156 113.980469 79.367188 112.652344 C 79.75 112.1875 80.769531 111.578125 81.164062 111.578125 C 81.269531 111.578125 81.488281 111.4375 81.664062 111.277344 C 82.105469 110.835938 82.082031 110.179688 81.628906 109.71875 C 81.445312 109.53125 81.199219 109.382812 81.09375 109.382812 C 80.769531 109.382812 79.96875 108.910156 79.386719 108.367188 C 78.609375 107.648438 77.578125 106.078125 76.613281 104.160156 C 75.8125 102.566406 75.617188 102.335938 75.070312 102.335938 C 74.40625 102.335938 74.1875 102.566406 73.492188 104.011719 C 72.609375 105.824219 71.773438 107.128906 70.972656 108.007812 C 70.308594 108.710938 69.324219 109.382812 68.929688 109.382812 C 68.554688 109.382812 68.035156 110.007812 68.035156 110.457031 C 68.035156 111.035156 68.394531 111.414062 69.171875 111.65625 C 70.984375 112.210938 72.109375 114.5 73.257812 119.949219 C 73.898438 123 74.023438 123.425781 74.328125 123.648438 C 74.734375 123.925781 75.429688 123.867188 75.753906 123.542969 Z M 75.753906 123.542969 "
  />
  <path
    d="M 74.824219 116.75 C 74.40625 114.777344 73.222656 112.199219 72.273438 111.148438 L 71.632812 110.445312 L 71.96875 110.203125 C 72.480469 109.832031 73.652344 108.34375 74.339844 107.175781 C 74.664062 106.609375 74.976562 106.148438 75.023438 106.148438 C 75.070312 106.148438 75.21875 106.367188 75.359375 106.644531 C 75.964844 107.8125 77.34375 109.636719 78.054688 110.191406 L 78.378906 110.445312 L 77.878906 110.988281 C 76.902344 112.027344 76 113.875 75.347656 116.171875 C 75.199219 116.695312 75.035156 117.121094 74.988281 117.121094 C 74.941406 117.121094 74.859375 116.949219 74.824219 116.75 Z M 67.222656 134.480469 C 65.804688 134.320312 62.402344 133.660156 60.417969 133.175781 C 56.019531 132.089844 52.199219 130.691406 48.066406 128.660156 C 44.40625 126.859375 41.714844 125.195312 38.523438 122.816406 L 36.894531 121.601562 L 45.277344 116.601562 L 53.648438 111.613281 L 55.644531 112.617188 C 57.828125 113.714844 59.8125 114.523438 62.195312 115.273438 L 63.738281 115.757812 L 63.84375 116.183594 C 63.914062 116.417969 64.957031 120.550781 66.175781 125.378906 C 67.394531 130.207031 68.417969 134.25 68.453125 134.367188 C 68.523438 134.574219 68.253906 134.597656 67.222656 134.480469 Z M 83.882812 125.21875 C 85.171875 120.054688 86.25 115.816406 86.273438 115.792969 C 86.296875 115.769531 87.261719 115.445312 88.410156 115.066406 C 90.835938 114.269531 92.671875 113.503906 94.816406 112.398438 L 96.339844 111.601562 L 104.722656 116.601562 L 113.09375 121.601562 L 112.128906 122.339844 C 105.429688 127.480469 97.742188 131.179688 89.628906 133.164062 C 87.261719 133.742188 83.941406 134.355469 82.347656 134.515625 L 81.523438 134.585938 Z M 33.449219 108.203125 C 39.789062 97.703125 44.976562 89.101562 44.988281 89.078125 C 45.035156 89.03125 58.292969 91.097656 58.328125 91.15625 C 58.339844 91.179688 58.710938 93.429688 59.140625 96.15625 C 59.570312 98.894531 60.035156 101.863281 60.1875 102.753906 L 60.441406 104.378906 L 41.296875 115.804688 C 30.753906 122.085938 22.09375 127.238281 22.046875 127.261719 C 21.988281 127.285156 27.121094 118.714844 33.449219 108.203125 Z M 50.675781 106.773438 C 53.011719 106.171875 54.683594 103.988281 54.683594 101.539062 C 54.683594 99.875 54.125 98.640625 52.824219 97.449219 L 52.011719 96.699219 L 52.269531 96.144531 C 52.628906 95.371094 52.617188 94.285156 52.269531 93.5 C 51.6875 92.242188 50.585938 91.535156 49.167969 91.546875 C 47.867188 91.558594 46.824219 92.21875 46.195312 93.441406 C 45.8125 94.183594 45.8125 95.488281 46.195312 96.203125 L 46.460938 96.722656 L 46.195312 96.941406 C 44.511719 98.257812 43.769531 99.667969 43.769531 101.527344 C 43.769531 103.503906 44.800781 105.269531 46.554688 106.296875 C 47.648438 106.933594 49.332031 107.128906 50.675781 106.773438 Z M 50.675781 106.773438 "
  />
  <path
    d="M 48.355469 105.234375 C 47.277344 104.957031 46.300781 104.171875 45.800781 103.191406 C 45.5 102.589844 45.453125 102.382812 45.453125 101.527344 C 45.453125 100.765625 45.511719 100.429688 45.707031 100.003906 C 46.054688 99.242188 46.824219 98.46875 47.589844 98.097656 C 48.144531 97.820312 48.378906 97.773438 49.226562 97.773438 C 50.074219 97.773438 50.304688 97.820312 50.863281 98.097656 C 51.628906 98.46875 52.394531 99.242188 52.742188 100.003906 C 53.105469 100.800781 53.09375 102.300781 52.707031 103.085938 C 52.347656 103.828125 51.523438 104.636719 50.804688 104.980469 C 50.191406 105.257812 48.949219 105.398438 48.355469 105.234375 Z M 47.832031 95.730469 C 47.355469 94.945312 47.636719 93.777344 48.402344 93.386719 C 49.167969 92.992188 50.203125 93.257812 50.621094 93.9375 C 50.921875 94.425781 50.921875 95.234375 50.621094 95.730469 L 50.386719 96.097656 L 48.066406 96.097656 Z M 108.796875 115.851562 C 92.460938 106.101562 89.628906 104.371094 89.628906 104.148438 C 89.640625 104.011719 90.09375 101.042969 90.660156 97.554688 C 91.660156 91.304688 91.683594 91.203125 91.960938 91.121094 C 92.332031 91.003906 104.964844 89.019531 105.011719 89.078125 C 105.035156 89.089844 110.203125 97.660156 116.503906 108.113281 C 122.808594 118.566406 127.988281 127.148438 128.023438 127.203125 C 128.046875 127.25 128.046875 127.285156 128.023438 127.285156 C 127.988281 127.285156 119.339844 122.132812 108.796875 115.851562 Z M 100.367188 107.128906 C 100.625 107.003906 101.097656 106.644531 101.414062 106.320312 C 103.292969 104.390625 104.429688 100.464844 104.570312 95.382812 L 104.640625 92.980469 L 93.460938 92.980469 L 93.460938 93.417969 C 93.472656 94.679688 93.714844 97.980469 93.878906 99.011719 C 94.585938 103.5625 96.117188 106.519531 98.160156 107.28125 C 98.660156 107.464844 99.820312 107.382812 100.367188 107.128906 Z M 100.367188 107.128906 "
  />
  <path
    d="M 98.359375 104.625 C 97.246094 103.46875 96.28125 100.039062 95.96875 96.132812 L 95.898438 95.289062 L 102.25 95.289062 L 102.203125 95.960938 C 101.957031 99.820312 101.019531 103.238281 99.832031 104.589844 C 99.347656 105.132812 98.871094 105.144531 98.359375 104.625 Z M 26.492188 110.859375 C 21.003906 103.574219 17.390625 95.613281 15.511719 86.675781 C 15.164062 85.035156 14.59375 81.199219 14.675781 81.105469 C 14.710938 81.082031 18.96875 82.113281 24.148438 83.40625 L 33.5625 85.761719 L 34.308594 87.96875 C 35.109375 90.382812 35.992188 92.460938 37.058594 94.460938 L 37.753906 95.765625 L 32.75 104.082031 C 29.988281 108.644531 27.710938 112.386719 27.691406 112.386719 C 27.667969 112.386719 27.121094 111.691406 26.492188 110.859375 Z M 117.285156 104.082031 L 112.269531 95.777344 L 113.230469 93.894531 C 114.347656 91.722656 115.226562 89.5625 115.9375 87.320312 L 116.425781 85.761719 L 125.839844 83.40625 C 131.019531 82.113281 135.289062 81.082031 135.324219 81.117188 C 135.417969 81.210938 134.941406 84.492188 134.546875 86.453125 C 133.027344 93.949219 130.019531 101.226562 125.792969 107.648438 C 124.921875 108.964844 122.425781 112.386719 122.332031 112.386719 C 122.308594 112.386719 120.035156 108.644531 117.285156 104.082031 Z M 67.570312 92.078125 C 63.644531 90.460938 60.417969 89.121094 60.40625 89.109375 C 60.382812 89.101562 59.011719 85.820312 57.339844 81.8125 L 54.3125 74.535156 L 57.292969 67.386719 C 58.933594 63.445312 60.3125 60.164062 60.359375 60.085938 C 60.40625 60.015625 63.714844 58.605469 67.71875 56.953125 L 75.011719 53.953125 L 82.28125 56.945312 C 86.285156 58.59375 89.59375 59.980469 89.640625 60.027344 C 89.871094 60.304688 95.675781 74.523438 95.621094 74.695312 C 95.515625 75.007812 89.652344 89.066406 89.605469 89.101562 C 89.40625 89.261719 75.117188 95.058594 74.941406 95.046875 C 74.8125 95.035156 71.492188 93.707031 67.570312 92.078125 Z M 69.253906 81.996094 C 69.707031 81.859375 70.308594 81.625 70.613281 81.476562 C 70.914062 81.328125 71.214844 81.199219 71.296875 81.199219 C 71.367188 81.199219 71.75 81.347656 72.15625 81.546875 C 73.316406 82.101562 74.210938 82.285156 75.636719 82.285156 C 77.066406 82.285156 77.960938 82.101562 79.121094 81.546875 C 79.527344 81.347656 79.910156 81.199219 79.980469 81.199219 C 80.0625 81.199219 80.363281 81.328125 80.664062 81.476562 C 81.863281 82.078125 82.847656 82.296875 84.347656 82.285156 C 85.960938 82.273438 87.050781 81.984375 88.339844 81.234375 C 89.511719 80.539062 90.09375 79.964844 90.175781 79.398438 C 90.289062 78.53125 89.675781 77.851562 88.78125 77.851562 C 88.503906 77.851562 88.210938 77.988281 87.757812 78.324219 C 87.410156 78.589844 86.796875 78.957031 86.378906 79.167969 C 85.667969 79.5 85.542969 79.523438 84.289062 79.523438 C 83.035156 79.523438 82.90625 79.5 82.1875 79.167969 C 81.769531 78.96875 81.199219 78.648438 80.921875 78.4375 C 80.179688 77.90625 79.679688 77.941406 78.714844 78.601562 C 77.773438 79.257812 76.753906 79.582031 75.636719 79.582031 C 74.523438 79.582031 73.503906 79.257812 72.5625 78.601562 C 71.597656 77.941406 71.097656 77.90625 70.355469 78.4375 C 70.078125 78.648438 69.507812 78.96875 69.089844 79.167969 C 68.371094 79.5 68.242188 79.523438 66.988281 79.523438 C 65.734375 79.523438 65.609375 79.5 64.898438 79.167969 C 64.480469 78.957031 63.867188 78.589844 63.519531 78.324219 C 63.066406 77.988281 62.773438 77.851562 62.496094 77.851562 C 61.601562 77.851562 60.988281 78.53125 61.101562 79.398438 C 61.148438 79.765625 61.277344 79.964844 61.683594 80.332031 C 62.683594 81.234375 64.261719 81.984375 65.640625 82.238281 C 66.558594 82.402344 68.324219 82.285156 69.253906 81.996094 Z M 68.742188 76.417969 C 69.160156 76.324219 69.925781 76.058594 70.4375 75.828125 L 71.367188 75.414062 L 72.0625 75.769531 C 74.210938 76.84375 77.066406 76.84375 79.214844 75.769531 L 79.910156 75.414062 L 80.839844 75.828125 C 81.988281 76.359375 83.011719 76.578125 84.289062 76.578125 C 86.296875 76.578125 88.222656 75.863281 89.523438 74.628906 C 90.152344 74.039062 90.207031 73.933594 90.207031 73.496094 C 90.207031 73.113281 90.128906 72.917969 89.847656 72.605469 C 89.234375 71.902344 88.546875 71.9375 87.609375 72.710938 C 85.703125 74.257812 83.160156 74.257812 80.910156 72.710938 C 80.121094 72.167969 79.703125 72.203125 78.773438 72.859375 C 76.902344 74.1875 74.375 74.1875 72.503906 72.859375 C 71.574219 72.203125 71.15625 72.167969 70.367188 72.710938 C 68.953125 73.679688 67.570312 74.050781 66.210938 73.808594 C 65.257812 73.644531 64.332031 73.242188 63.667969 72.710938 C 62.726562 71.9375 62.042969 71.902344 61.429688 72.605469 C 61.148438 72.917969 61.066406 73.113281 61.066406 73.496094 C 61.066406 73.933594 61.125 74.039062 61.753906 74.628906 C 62.554688 75.390625 64.039062 76.164062 65.144531 76.40625 C 66.117188 76.613281 67.777344 76.613281 68.742188 76.417969 Z M 69.03125 70.617188 C 69.425781 70.515625 70.101562 70.261719 70.542969 70.054688 L 71.332031 69.671875 L 71.980469 69.996094 C 73.199219 70.609375 74.234375 70.851562 75.636719 70.851562 C 77.042969 70.851562 78.078125 70.609375 79.296875 69.996094 L 79.945312 69.671875 L 80.746094 70.054688 C 81.917969 70.617188 82.976562 70.851562 84.347656 70.851562 C 86.167969 70.839844 87.65625 70.34375 89.140625 69.246094 C 90.164062 68.503906 90.429688 67.871094 90.035156 67.109375 C 89.792969 66.632812 89.417969 66.414062 88.863281 66.414062 C 88.46875 66.414062 88.246094 66.519531 87.609375 66.992188 C 86.449219 67.835938 85.75 68.078125 84.347656 68.078125 C 82.953125 68.089844 82.292969 67.894531 81.175781 67.128906 C 80.15625 66.4375 79.816406 66.4375 78.75 67.128906 C 77.554688 67.917969 76.996094 68.089844 75.636719 68.089844 C 74.28125 68.089844 73.722656 67.917969 72.527344 67.128906 C 71.457031 66.4375 71.121094 66.4375 70.101562 67.128906 C 68.984375 67.894531 68.324219 68.089844 66.929688 68.078125 C 65.527344 68.078125 64.828125 67.835938 63.667969 66.992188 C 63.03125 66.519531 62.808594 66.414062 62.414062 66.414062 C 61.859375 66.414062 61.484375 66.632812 61.242188 67.109375 C 60.859375 67.835938 61.113281 68.492188 62.03125 69.164062 C 64.167969 70.746094 66.535156 71.242188 69.03125 70.617188 Z M 21.535156 79.929688 C 9.660156 76.949219 -0.0234375 74.511719 0.0234375 74.511719 C 0.0703125 74.5 9.855469 72.0625 21.792969 69.082031 L 43.492188 63.675781 L 47.402344 69.023438 C 49.550781 71.96875 51.328125 74.429688 51.339844 74.488281 C 51.363281 74.546875 49.609375 77.019531 47.449219 79.976562 C 44.835938 83.554688 43.457031 85.355469 43.328125 85.347656 C 43.222656 85.335938 33.414062 82.898438 21.535156 79.929688 Z M 40.402344 80.101562 C 43.097656 79.363281 45.777344 77.515625 47.296875 75.332031 L 47.625 74.859375 L 47.066406 74.128906 C 43.976562 70.132812 38.960938 68.402344 34.085938 69.648438 C 32.367188 70.085938 30.347656 71.183594 28.964844 72.445312 C 28.257812 73.078125 26.933594 74.660156 26.933594 74.859375 C 26.933594 75.054688 27.980469 76.347656 28.664062 77.03125 C 30.359375 78.679688 32.683594 79.882812 35.097656 80.34375 C 36.445312 80.597656 39.03125 80.484375 40.402344 80.101562 Z M 40.402344 80.101562 "
  />
  <path
    d="M 35.386719 78.371094 C 33.320312 77.976562 31.648438 77.097656 30.046875 75.5625 L 29.382812 74.925781 L 29.628906 74.582031 C 30.117188 73.910156 32.960938 71.902344 33.15625 72.097656 C 33.179688 72.132812 33.15625 72.304688 33.089844 72.488281 C 32.914062 72.917969 32.925781 74.234375 33.089844 74.859375 C 33.402344 76 34.332031 77.050781 35.503906 77.59375 C 36.082031 77.871094 36.304688 77.90625 37.269531 77.894531 C 38.476562 77.882812 38.984375 77.722656 39.902344 77.0625 C 41.144531 76.152344 41.820312 74.28125 41.449219 72.710938 C 41.390625 72.457031 41.367188 72.222656 41.402344 72.203125 C 41.492188 72.097656 42.65625 72.722656 43.363281 73.265625 C 44.417969 74.0625 45.070312 74.765625 44.976562 75.007812 C 44.824219 75.390625 43.015625 76.808594 42.015625 77.328125 C 39.984375 78.371094 37.488281 78.761719 35.386719 78.371094 Z M 35.386719 78.371094 "
  />
  <path
    d="M 36.523438 75.019531 C 36.105469 74.800781 35.910156 74.558594 35.769531 74.050781 C 35.609375 73.496094 35.734375 73.03125 36.175781 72.59375 C 37.082031 71.691406 38.601562 72.222656 38.742188 73.496094 C 38.882812 74.71875 37.628906 75.585938 36.523438 75.019531 Z M 102.574219 79.996094 C 100.425781 77.042969 98.660156 74.59375 98.660156 74.535156 C 98.671875 74.488281 100.4375 72.015625 102.585938 69.058594 L 106.507812 63.6875 L 127.824219 68.980469 C 139.539062 71.902344 149.339844 74.339844 149.59375 74.40625 C 150.035156 74.523438 148.722656 74.859375 128.40625 79.941406 C 116.492188 82.921875 106.695312 85.347656 106.625 85.355469 C 106.542969 85.355469 104.734375 82.941406 102.574219 79.996094 Z M 130.089844 75.957031 C 127.359375 74.097656 121.972656 70.457031 121.914062 70.457031 C 121.878906 70.457031 121.300781 70.769531 120.648438 71.148438 C 119.988281 71.53125 119.382812 71.84375 119.304688 71.84375 C 119.222656 71.84375 117.757812 70.78125 116.042969 69.488281 L 112.917969 67.128906 L 111.488281 68.449219 C 110.492188 69.371094 109.992188 69.765625 109.851562 69.71875 C 109.527344 69.613281 107.21875 69.09375 107.207031 69.105469 C 107.171875 69.152344 103.933594 73.367188 102.898438 74.707031 L 101.808594 76.117188 L 116.0625 76.117188 C 128.125 76.117188 130.273438 76.09375 130.089844 75.957031 Z M 14.6875 67.429688 C 15.625 59.519531 18.238281 51.652344 22.269531 44.585938 C 23.71875 42.019531 27.375 36.777344 27.691406 36.800781 C 27.757812 36.8125 30.046875 40.519531 32.773438 45.046875 L 37.742188 53.28125 L 36.769531 55.199219 C 35.652344 57.394531 34.773438 59.554688 34.0625 61.792969 L 33.574219 63.355469 L 24.183594 65.6875 C 19.027344 66.96875 14.757812 68.03125 14.710938 68.03125 C 14.664062 68.03125 14.652344 67.753906 14.6875 67.429688 Z M 125.746094 65.675781 C 120.605469 64.394531 116.390625 63.296875 116.378906 63.238281 C 116.367188 63.167969 116.132812 62.417969 115.867188 61.5625 C 115.207031 59.4375 114.289062 57.230469 113.183594 55.105469 L 112.269531 53.316406 L 117.285156 44.976562 L 122.296875 36.648438 L 122.949219 37.46875 C 129.253906 45.460938 133.664062 55.695312 135.070312 65.605469 C 135.40625 67.972656 135.40625 68.03125 135.230469 68.019531 C 135.152344 68.019531 130.878906 66.957031 125.746094 65.675781 Z M 33.726562 41.339844 C 27.539062 31.046875 22.335938 22.417969 22.1875 22.175781 C 21.929688 21.738281 23.125 22.429688 39.253906 32.0625 C 48.796875 37.757812 57.457031 42.921875 58.527344 43.546875 L 60.441406 44.675781 L 59.382812 51.296875 C 58.816406 54.933594 58.28125 57.925781 58.222656 57.949219 C 58.152344 57.960938 55.285156 58.421875 51.839844 58.964844 C 48.390625 59.507812 45.441406 59.96875 45.277344 60.003906 C 45 60.050781 44.375 59.035156 33.726562 41.339844 Z M 55.566406 53.339844 C 55.320312 47.726562 54.289062 43.925781 52.464844 41.996094 C 51.59375 41.0625 50.933594 40.726562 49.980469 40.726562 C 47.808594 40.726562 45.964844 43.324219 45.058594 47.667969 C 44.6875 49.46875 44.464844 51.617188 44.464844 53.5 L 44.464844 55.210938 L 55.644531 55.210938 Z M 55.566406 53.339844 "
  />
  <path
    d="M 46.9375 51.550781 C 47.183594 47.449219 48.75 43.082031 49.980469 43.082031 C 51.09375 43.082031 52.464844 46.386719 52.929688 50.1875 C 52.988281 50.695312 53.070312 51.492188 53.117188 51.953125 L 53.183594 52.785156 L 46.871094 52.785156 Z M 98.277344 59 C 94.703125 58.433594 91.753906 57.914062 91.71875 57.867188 C 91.625 57.707031 89.570312 44.710938 89.628906 44.664062 C 89.824219 44.492188 127.894531 21.851562 127.929688 21.886719 C 128.011719 21.96875 105.011719 60.050781 104.894531 60.050781 C 104.835938 60.039062 101.855469 59.566406 98.277344 59 Z M 102.5625 55.257812 C 103.6875 54.96875 104.582031 54.4375 105.535156 53.476562 C 106.542969 52.484375 106.949219 51.78125 107.277344 50.519531 C 107.878906 48.1875 107.265625 45.960938 105.535156 44.238281 C 104.105469 42.816406 102.480469 42.195312 100.484375 42.308594 C 98.488281 42.4375 96.941406 43.234375 95.640625 44.839844 C 94.703125 45.980469 94.273438 47.289062 94.273438 48.972656 C 94.273438 49.875 94.332031 50.234375 94.609375 51.019531 C 95.339844 53.121094 97.035156 54.691406 99.171875 55.257812 C 100.007812 55.488281 101.679688 55.488281 102.5625 55.257812 Z M 102.5625 55.257812 "
  />
  <path
    d="M 99.542969 50.808594 C 98.207031 50.300781 97.394531 49.171875 97.3125 47.703125 C 97.257812 46.570312 97.558594 45.726562 98.277344 45 C 99.089844 44.203125 99.71875 43.949219 100.890625 43.949219 C 101.738281 43.949219 101.957031 43.996094 102.457031 44.261719 C 103.199219 44.652344 103.828125 45.300781 104.164062 46.027344 C 104.558594 46.882812 104.535156 48.234375 104.117188 49.042969 C 103.722656 49.792969 102.792969 50.625 102.085938 50.867188 C 101.355469 51.121094 100.273438 51.097656 99.542969 50.808594 Z M 69.542969 47.125 C 65.074219 43.890625 64.144531 43.164062 64.179688 42.96875 C 64.203125 42.691406 74.859375 0.382812 74.964844 0.117188 C 75 0.0234375 77.472656 9.65625 80.46875 21.542969 C 83.535156 33.75 85.855469 43.1875 85.796875 43.246094 C 85.632812 43.40625 75.058594 51.050781 75 51.042969 C 74.964844 51.042969 72.515625 49.285156 69.542969 47.125 Z M 75.582031 44.375 C 77.785156 43.269531 77.695312 40.738281 75.324219 37.167969 C 74.28125 35.609375 74.152344 35.355469 73.910156 34.511719 C 73.675781 33.738281 73.640625 32.15625 73.851562 31.359375 C 74.199219 29.949219 75.199219 28.609375 76.011719 28.460938 C 76.925781 28.285156 77.4375 29.0625 77.4375 30.621094 C 77.4375 31.152344 77.378906 31.925781 77.308594 32.339844 C 77.007812 34.109375 77.207031 37.078125 77.726562 38.300781 C 78.355469 39.792969 79.515625 40.125 80.992188 39.226562 C 82.128906 38.542969 82.824219 35.804688 82.210938 34.453125 C 81.964844 33.921875 81.6875 33.726562 81.1875 33.726562 C 80.792969 33.726562 80.652344 33.820312 80.457031 34.175781 C 80.339844 34.410156 80.339844 34.6875 80.457031 35.632812 C 80.621094 36.984375 80.539062 37.308594 80.015625 37.308594 C 79.46875 37.308594 78.96875 36.914062 78.832031 36.359375 C 78.667969 35.78125 78.714844 35.320312 79.203125 32.917969 C 79.851562 29.625 79.667969 28.195312 78.4375 26.96875 C 77.726562 26.265625 77.089844 26.046875 76.035156 26.136719 C 72.96875 26.414062 70.4375 30.527344 71.214844 33.980469 C 71.449219 34.996094 71.898438 35.980469 72.945312 37.6875 C 74.824219 40.75 74.929688 42.792969 73.175781 41.960938 C 72.65625 41.71875 72.292969 41.164062 71.796875 39.835938 C 71.203125 38.277344 71.109375 38.140625 70.601562 37.988281 C 70.214844 37.875 70.089844 37.898438 69.625 38.09375 C 68.566406 38.554688 68.429688 39.269531 69.113281 40.703125 C 70.714844 44.066406 73.292969 45.519531 75.582031 44.375 Z M 45.359375 32.515625 C 40.785156 29.789062 37.035156 27.511719 37.035156 27.46875 C 37.035156 27.210938 41.273438 24.222656 43.710938 22.765625 C 50.640625 18.621094 58.257812 15.90625 66.058594 14.796875 C 68.707031 14.414062 68.523438 14.425781 68.453125 14.644531 C 68.417969 14.75 67.394531 18.816406 66.175781 23.679688 C 64.957031 28.539062 63.914062 32.699219 63.855469 32.917969 L 63.738281 33.324219 L 61.507812 34.050781 C 59.164062 34.8125 56.46875 35.957031 54.71875 36.925781 L 53.695312 37.492188 Z M 94.910156 36.730469 C 93.125 35.773438 90.488281 34.675781 88.234375 33.945312 C 87.179688 33.613281 86.308594 33.324219 86.285156 33.324219 C 86.273438 33.3125 85.214844 29.152344 83.929688 24.070312 C 82.652344 19 81.582031 14.75 81.546875 14.644531 C 81.5 14.484375 81.558594 14.460938 81.875 14.507812 C 85.507812 14.980469 87.722656 15.398438 90.324219 16.066406 C 94.296875 17.09375 97.929688 18.445312 101.761719 20.328125 C 105.453125 22.128906 108.089844 23.734375 111.421875 26.207031 C 112.6875 27.144531 113.046875 27.46875 112.929688 27.558594 C 112.707031 27.765625 96.558594 37.34375 96.363281 37.378906 C 96.269531 37.398438 95.621094 37.113281 94.910156 36.730469 Z M 94.910156 36.730469 "
  />
</svg>
