<svg xmlns="http://www.w3.org/2000/svg" id="root" viewBox="0 0 150 155">
  <path
    d="M 2 0 C 0.738281 8.054688 0.0820312 16.214844 0.046875 24.398438 C 0.0742188 80.527344 29 131.515625 74.136719 155 C 120.195312 131.96875 149.910156 80.445312 149.953125 23.554688 C 149.941406 15.660156 149.351562 7.785156 148.195312 0 Z M 75.015625 31.65625 C 87.792969 31.65625 98.148438 41.953125 98.148438 54.660156 C 98.15625 63.925781 92.566406 72.289062 83.976562 75.878906 L 83.617188 100.699219 C 83.617188 105.421875 79.765625 109.25 75.015625 109.25 C 70.265625 109.25 66.414062 105.421875 66.414062 100.699219 L 66.546875 76.042969 C 57.707031 72.582031 51.894531 64.101562 51.882812 54.660156 C 51.882812 41.953125 62.242188 31.65625 75.015625 31.65625 Z M 75.015625 31.65625 "
  />
</svg>
