<svg xmlns="http://www.w3.org/2000/svg" id="root" viewBox="0 0 6860 8030"><g><path d="M3271 8019c-464-35-929-257-1254-599-636-668-724-1675-212-2445 203-307 499-558 825-701 109-48 286-106 378-125l62-13v-406H1802l-7 68c-41 391-191 878-387 1252-54 104-180 319-212 363-12 16-45 17-482 15l-469-3 60-65c423-454 689-1034 767-1670 17-137 16-547-1-670-87-637-341-1190-749-1635l-56-60 465-3c433-2 465-1 477 15 68 91 238 403 307 563 135 312 236 679 275 1003l12 97h1268v-198l-87-28c-200-65-394-186-553-344-205-205-328-436-391-730-30-140-32-389-5-530C2148 579 2589 138 3180 24c141-27 390-25 530 5 145 31 248 66 368 127 623 316 923 1034 711 1702-138 434-476 775-906 917l-83 27v198h1268l7-62c28-266 109-598 216-881 62-166 205-455 301-612l74-120 468-3 469-2-34 39c-234 270-361 455-484 706-99 200-163 373-215 580-195 776-64 1605 363 2285 78 124 208 297 294 391 37 40 74 82 82 92 13 16-10 17-455 17h-469l-61-97c-292-464-484-993-545-1500l-12-103H3800v407l81 17c192 41 440 147 619 263 378 246 657 606 795 1025 110 336 131 682 60 1021-178 858-898 1490-1775 1557-147 11-156 11-309-1zm294-729c507-58 928-419 1059-909 142-529-84-1089-553-1371-73-43-187-96-248-115l-23-6v1171h-730v-585c0-322-2-585-5-585-16 0-152 57-213 90-326 176-549 478-628 852-24 113-24 342-1 461 95 476 445 847 915 966 147 38 279 47 427 31zm60-5201c122-37 202-85 295-179 140-140 204-290 205-480 0-129-14-188-72-309-38-79-59-108-131-181-73-74-102-94-182-133-208-101-402-101-610 0-79 38-109 60-181 132s-94 102-132 181c-102 208-101 402 0 610 39 79 61 109 133 181 72 73 101 94 180 132 52 25 120 50 150 56s64 13 75 15c44 11 203-4 270-25z"/><path d="M0 3365v-725h730v1450H0v-725zM6130 3365v-725h730v1450h-730v-725z"/></g></svg>