<svg xmlns="http://www.w3.org/2000/svg" id="root" viewBox="0 0 150 82">
  <path
    d="M 63.480469 54.132812 L 45 64.605469 L 42.835938 63.835938 L 36.578125 67.101562 C 43.847656 81.371094 56.933594 86.03125 66.558594 69.410156 L 73.152344 69.410156 C 73.632812 68.304688 74.019531 67.007812 74.308594 65.613281 L 75.65625 65.613281 C 75.992188 67.054688 76.375 68.304688 76.808594 69.410156 L 83.402344 69.410156 C 93.027344 86.03125 106.117188 81.371094 113.382812 67.101562 L 107.128906 63.835938 L 104.960938 64.605469 L 86.484375 54.132812 L 86.578125 51.152344 C 90.621094 55.957031 95.914062 57.878906 103.613281 57.207031 C 114.105469 67.054688 121.902344 68.734375 132.199219 64.75 C 140.285156 61.625 146.878906 53.699219 146.492188 41.257812 L 147.695312 40.585938 L 148.03125 37.175781 L 137.445312 35.734375 L 136.289062 36.550781 L 94.421875 30.351562 C 93.851562 29.003906 92.738281 27.957031 91.355469 27.472656 C 89.972656 26.988281 88.445312 27.109375 87.15625 27.804688 L 87.15625 27.183594 L 83.691406 24.011719 C 84.316406 23.339844 84.941406 22.28125 84.316406 20.3125 L 81.621094 11.328125 C 79.984375 5.949219 79.503906 3.738281 78.0625 2.875 C 76.171875 1.785156 73.839844 1.785156 71.949219 2.875 C 70.507812 3.738281 70.023438 5.949219 68.339844 11.328125 L 65.644531 20.3125 C 65.066406 22.234375 65.644531 23.339844 66.269531 24.011719 L 62.804688 27.183594 L 62.804688 27.804688 C 61.519531 27.125 60.007812 27.011719 58.636719 27.496094 C 57.265625 27.980469 56.160156 29.015625 55.585938 30.351562 L 13.71875 36.597656 L 12.566406 35.734375 L 1.980469 37.175781 L 2.316406 40.585938 L 3.46875 41.257812 C 3.085938 53.746094 9.726562 61.625 17.761719 64.75 C 28.0625 68.6875 35.90625 67.054688 46.394531 57.207031 C 54.046875 57.832031 59.339844 56.003906 63.382812 51.152344 Z M 63.480469 54.132812 "
  />
</svg>
