<svg xmlns="http://www.w3.org/2000/svg" id="root" viewBox="0 0 41.56 22.63">
  <g transform="matrix(1.33333 0 0 -1.33333 -712.57 1239.65)">
    <path
      d="m547.62 918.52-3.84-2.18-.45.16-1.3-.68c1.51-2.97 4.23-3.94 6.23-.48h1.37c.1.23.18.5.24.79h.28c.07-.3.15-.56.24-.79h1.37c2-3.46 4.72-2.49 6.23.48l-1.3.68-.45-.16-3.84 2.18.02.62c.84-1 1.94-1.4 3.54-1.26 2.18-2.05 3.8-2.4 5.94-1.57 1.68.65 3.05 2.3 2.97 4.89l.25.14.07.71-2.2.3-.24-.17-8.7 1.29a1.08 1.08 0 0 1-1.51.53v.13l-.72.66c.13.14.26.36.13.77l-.56 1.87c-.34 1.12-.44 1.58-.74 1.76a1.27 1.27 0 0 1-1.27 0c-.3-.18-.4-.64-.75-1.76l-.56-1.87c-.12-.4 0-.63.13-.77l-.72-.66V924a1.08 1.08 0 0 1-1.5-.53l-8.7-1.3-.24.18-2.2-.3.07-.71.24-.14c-.08-2.6 1.3-4.24 2.97-4.89 2.14-.82 3.77-.48 5.95 1.57 1.59-.13 2.69.25 3.53 1.26z"
    />
  </g>
</svg>
