<svg xmlns="http://www.w3.org/2000/svg" id="root" viewBox="0 0 42.17 72.76">
  <path
    d="M167.28 132.57a8.34 8.34 0 0 0-8.32 8.32v37.92a8.34 8.34 0 0 0 8.32 8.32h15a8.34 8.34 0 0 0 8.32-8.31v-37.93a8.34 8.34 0 0 0-8.32-8.32zm0 2.83h15a5.47 5.47 0 0 1 5.49 5.5v37.92a5.48 5.48 0 0 1-5.5 5.48h-15a5.46 5.46 0 0 1-5.48-5.49v-37.92a5.46 5.46 0 0 1 5.49-5.49z"
    color="#000"
    style="-inkscape-stroke: none"
    transform="matrix(1.33333 0 0 -1.33333 -211.96 249.52)"
  />
  <path
    d="M11.97 36.15c.02.08.16.5.23.53.28.07.5.1.53-.24V36c-.01-.03-.08.01-.08 0 0-.5.07-1.01-.08-1.5-.13-.49-.1-.8 0-1.29.08-.37.66-1.53.83-2.18.16-.54.35-1.02.45-1.58.08-.44.28-1.25.6-1.6.04 0 1.55-2.22 1.59-2.32.17-.33.27-.7.37-1.06.18.93.68 1.73.9 2.64.34 1.33.45 1.2.38 2.86-.04 1.02-.44 1.98-.66 2.94-.24.93-.55 1.84-.7 2.8-.17 1.24-.66 4.04-.66 5.1-.03 1.46-.03 2.91-.08 4.36 0 .31-.14.6-.15.91-.1 3.92.21 3.47.75 6.61.13.78.46 2.5.22 3.11-.12.27-.33.93-.52 1.12-.13.1-.18.27-.3.37a2 2 0 0 0-.38.6c-.1.84.26.96.68 1.14.06.02.1.08.14.08 1.56.12 1.45-.42 1.66-1.36.1-.48.5-.43.54-1.2.05-1.88-.2-3.59 0-5.43.08-.85.18-1.7.13-2.56 0-.35-.4-1.52-.44-1.8-.08-.7.48-1.39.67-2.04.36-1.24.78-2.44 1.14-3.68.35-1.21.44-1.25.67-2.64.1-.64.3-1.3.3-1.96.4.1.5.1.91 0 0 .67.24 1.79.38 2.5a84.4 84.4 0 0 0 1.8 5.86c.14.41.33.8.53 1.2.4.8-.47 1.87-.39 3.4.07 1.15.27 2.21.24 3.39-.02.81-.24 3.69 0 4.28.03.05.1.09.14.14.04.06.05.12.09.16.21.3.12 0 .21.54.04.18.15.81.3.97a1.07 1.07 0 0 0 .54.23c.27 0 1.2.02 1.43-.31.59-.9-.1-1.25-.3-1.65-.17-.34-.73-1.19-.77-1.51-.16-1.95 1.07-5.77 1.07-6.85V45.7c-.01-.23-.13-.46-.16-.67-.05-1.72.04-3.44-.15-5.13-.2-1.74-.5-4.14-.97-5.79-.21-.76-.36-1.53-.6-2.27a7.5 7.5 0 0 1-.3-3.6 25 25 0 0 1 1.11-3.4l.1-.22c.4.84-.04.37.8 1.65l1.3 1.9c.1.2.32.8.38 1.05.08.37.09.76.22 1.13.27.77.44 1.4.75 2.17.3.75.55 1.31.23 2.11-.03.05-.07.1-.07.15-.03.3.01.6 0 .9 0 .03-.08-.02-.1 0-.07 1.14-.15 1.07.47.98l.23-.3c0-.09-.07-.6.07-.6.49 0 .6.07.66.6.07.36-.24.46-.36.76-.04.07-.04.15-.06.22-.08.13-.23.16.13.53.13.13.23.07.37 0 .5-.2.35-.21.62-.61.2-.3.2-.32.22-.75.06-.99 0-.95-.3-1.73-.27-.66-.34-.8-.38-1.58-.08-1.16-.06-1.86-.22-3-.14-.89-.18-1.36-.44-2.2a9.48 9.48 0 0 0-.54-1.04 9.2 9.2 0 0 1-.6-.84c-.17-.32-.33-.57-.53-.97a13.33 13.33 0 0 1-.84-1.96l-.75-2.1c-.16-.34-1.01-.86-1.36-1-.7-.27-.77 0-1.5-.37-.4-.18-.88-.34-1.2-.66-.5-.5-.34-.34-.15-1.07.16-.59.53-1.52.37-2.1-.01-.07-.13.05-.21-.31-.13-.5-.23-1.39-.76-1.64-.77-.4-1.64-.4-2.4 0-.23.1-.35.3-.45.52-.14.28-.3 1.25-.38 1.36-.2.24-.36-.38-.1 1.12.08.34.52 1.61.48 1.81-.04.13-.63.53-.76.6-.2.1-.91.5-1.06.53-.88.14-.65 0-1.42.31a2.27 2.27 0 0 0-1.36 1.5 24.4 24.4 0 0 1-1.2 3.09c-.18.33-.24.5-.46.82-.13.22-.18.5-.37.67a10.53 10.53 0 0 0-.61.83 7.87 7.87 0 0 0-.9 3.01c-.21 1.37-.13 2.88-.37 4-.03.07-.3.64-.37.83-.07.13-.23.46-.24.6v1.42c0 .03.06.04.08.08.12.18.16.38.3.54.06.05.1.18.14.21.04.03.52.16.53.15.07-.03.3-.24.32-.3.13-.53-.4-.8-.47-1.13a.86.86 0 0 1 .08-.52s.16-.27.3-.3c.42-.09.28.17.3.45"
  />
</svg>
