<svg xmlns="http://www.w3.org/2000/svg" id="root" viewBox="0 0 92.84 92.85">
  <g transform="matrix(1.33333 0 0 -1.33333 -186.62 259.56)">
    <path
      d="M174.78 194.67a34.83 34.83 0 0 0 34.82-34.82 34.83 34.83 0 0 0-34.82-34.82 34.83 34.83 0 0 0-34.82 34.82 34.83 34.83 0 0 0 34.82 34.82"
    />
    <path
      d="M167.28 185.72h15c3.8 0 6.9-3.1 6.9-6.9v-37.93a6.9 6.9 0 0 0-6.9-6.9h-15a6.9 6.9 0 0 0-6.9 6.9v37.92a6.9 6.9 0 0 0 6.9 6.91z"
    />
    <path
      d="M167.95 160.03c.01-.06.12-.38.17-.4.21-.05.37-.07.4.18v.33c-.01.02-.06-.01-.06 0 0 .38.05.76-.06 1.13-.1.36-.07.6 0 .96.06.28.49 1.15.62 1.64.12.4.26.76.34 1.18.06.33.21.94.45 1.2.03 0 1.16 1.67 1.19 1.74.13.25.2.53.28.8.13-.7.51-1.3.68-1.98.25-1 .33-.9.28-2.15-.03-.76-.33-1.48-.5-2.2-.18-.7-.41-1.38-.52-2.1-.13-.93-.5-3.03-.5-3.83-.02-1.09-.02-2.18-.06-3.27 0-.23-.1-.45-.11-.68-.07-2.94.16-2.6.56-4.96.1-.58.35-1.87.17-2.33-.09-.2-.25-.7-.39-.84-.1-.08-.14-.2-.23-.28a1.5 1.5 0 0 1-.28-.45c-.08-.63.19-.72.51-.85.04-.02.07-.06.1-.06 1.17-.09 1.09.31 1.25 1.02.08.36.37.32.4.9.04 1.41-.14 2.69 0 4.07.06.64.14 1.27.1 1.92 0 .26-.3 1.14-.33 1.35-.06.53.36 1.04.5 1.53.27.93.59 1.83.86 2.76.26.91.33.94.5 1.98.08.48.23.98.23 1.47.3-.07.37-.07.68 0 0-.5.18-1.34.28-1.87a63.3 63.3 0 0 1 1.36-4.4c.1-.31.24-.6.39-.9.3-.6-.35-1.4-.29-2.55.05-.86.2-1.66.18-2.54-.02-.61-.18-2.77 0-3.21.02-.04.08-.07.1-.11.03-.04.04-.09.07-.12.16-.22.09 0 .16-.4.03-.14.11-.61.23-.73a.8.8 0 0 1 .4-.17c.2 0 .9-.02 1.07.23.44.67-.08.94-.23 1.24-.12.25-.54.89-.57 1.13-.12 1.46.8 4.33.8 5.14v2.31c-.01.17-.1.34-.12.5-.04 1.29.03 2.58-.11 3.85-.15 1.3-.37 3.1-.73 4.34-.16.57-.27 1.15-.45 1.7a5.62 5.62 0 0 0-.23 2.7c.22.88.5 1.72.84 2.55l.07.17c.3-.63-.03-.28.61-1.24l.97-1.42c.08-.16.24-.61.28-.79.06-.28.07-.57.17-.85.2-.58.33-1.05.56-1.63.23-.56.41-.98.17-1.58-.02-.04-.05-.07-.05-.11-.02-.23.01-.45 0-.68 0-.02-.06.02-.07 0-.06-.85-.12-.8.35-.73l.17.22c0 .07-.05.46.05.46.37 0 .46-.06.5-.46.05-.27-.18-.34-.27-.57-.03-.05-.03-.11-.05-.16-.06-.1-.17-.12.1-.4.1-.1.17-.05.28 0 .38.15.26.16.46.46.15.23.15.24.17.56.04.74 0 .71-.23 1.3-.2.49-.25.6-.28 1.18-.06.87-.05 1.4-.17 2.26-.1.66-.13 1.01-.33 1.64-.04.1-.34.72-.4.78a6.9 6.9 0 0 0-.45.63c-.13.24-.25.43-.4.73a10 10 0 0 0-.63 1.47l-.56 1.58c-.12.25-.76.64-1.02.74-.53.21-.58.01-1.12.28-.3.14-.67.26-.9.5-.38.38-.26.25-.12.8.12.44.4 1.14.28 1.58-.01.05-.1-.04-.16.23-.1.38-.17 1.04-.57 1.23-.58.3-1.23.3-1.8 0-.17-.08-.26-.23-.34-.39-.1-.21-.22-.94-.28-1.02-.15-.18-.27.28-.07-.84.05-.26.38-1.21.35-1.36-.03-.1-.47-.4-.57-.45-.14-.07-.68-.38-.79-.4-.66-.1-.49.01-1.07-.23a1.7 1.7 0 0 1-1.02-1.12 18.3 18.3 0 0 0-.9-2.32c-.13-.25-.18-.38-.34-.62-.1-.16-.14-.37-.28-.5a7.9 7.9 0 0 1-.46-.62 5.9 5.9 0 0 1-.67-2.26c-.16-1.03-.1-2.16-.28-3-.02-.05-.23-.48-.28-.62-.05-.1-.17-.35-.18-.45v-1.07c0-.02.05-.03.06-.06.09-.13.12-.28.23-.4.04-.04.07-.14.1-.16.03-.02.39-.12.4-.11.05.02.22.18.24.22.1.4-.3.6-.35.85-.02.13 0 .28.06.39 0 0 .12.2.22.23.32.06.21-.13.23-.34"
    />
  </g>
</svg>
