<svg xmlns="http://www.w3.org/2000/svg" viewBox="0 0 42.2 72.8">
  <path
    d="M11 72.8A11.1 11.1 0 0 1 0 61.7V11A11.1 11.1 0 0 1 11 0h20a11.1 11.1 0 0 1 11.2 11v50.6a11.1 11.1 0 0 1-11.1 11zm0-3.8h20a7.3 7.3 0 0 0 7.4-7.3V11a7.3 7.3 0 0 0-7.3-7.3H11A7.3 7.3 0 0 0 3.8 11v50.6A7.3 7.3 0 0 0 11 69z"
  />
  <path
    d="m12 36.1.2.6c.3 0 .5 0 .5-.3V36l-.1-1.5c-.2-.5-.1-.8 0-1.3 0-.4.6-1.5.8-2.2l.5-1.5c0-.5.2-1.3.5-1.6l1.6-2.4.4-1c.2.9.7 1.7 1 2.6.3 1.3.4 1.2.3 2.9 0 1-.5 2-.7 3l-.7 2.7c-.1 1.2-.6 4-.6 5.1l-.1 4.4-.2.9c0 3.9.2 3.4.8 6.6.1.8.4 2.5.2 3.1-.1.3-.3 1-.5 1.1l-.3.4a2 2 0 0 0-.4.6c0 .8.3 1 .7 1.1l.1.1c1.6.1 1.5-.4 1.7-1.4 0-.4.5-.4.5-1.2 0-1.8-.2-3.5 0-5.4l.2-2.5c0-.4-.4-1.6-.5-1.8 0-.7.5-1.4.7-2l1.1-3.8c.4-1.2.5-1.2.7-2.6.1-.6.3-1.3.3-2h1c0 .7.1 1.8.3 2.5a84.4 84.4 0 0 0 1.8 5.9l.5 1.2c.4.8-.5 1.9-.4 3.4.1 1.1.3 2.2.3 3.4 0 .8-.3 3.7 0 4.3l.1.1.1.2.2.5.3 1a1 1 0 0 0 .5.2c.3 0 1.2 0 1.5-.3.6-.9-.1-1.3-.3-1.7-.2-.3-.8-1.1-.8-1.5-.2-2 1-5.7 1-6.8V45c-.1-1.7 0-3.4-.2-5.1a41 41 0 0 0-1-5.8l-.6-2.3a7.5 7.5 0 0 1-.3-3.6 25 25 0 0 1 1.1-3.4l.1-.2c.4.9 0 .4.8 1.7l1.3 1.9.4 1c0 .4 0 .8.2 1.1.3.8.4 1.4.8 2.2.3.8.5 1.3.2 2.1v1.1h-.2c0 1.1-.1 1 .5 1l.2-.3v-.6c.6 0 .7 0 .7.6.1.3-.2.4-.3.7v.2c-.2.2-.3.2 0 .6.2.1.3 0 .4 0 .5-.2.4-.2.6-.6l.3-.8c0-1 0-1-.3-1.7s-.4-.8-.4-1.6c0-1.2 0-1.9-.2-3-.2-.9-.2-1.4-.5-2.2a9.5 9.5 0 0 0-.5-1 9.2 9.2 0 0 1-.6-.9l-.5-1a13.3 13.3 0 0 1-.9-2l-.7-2c-.2-.4-1-.9-1.4-1-.7-.3-.8 0-1.5-.4-.4-.2-.9-.3-1.2-.6-.5-.5-.3-.4-.1-1.1.1-.6.5-1.5.3-2.1l-.2-.3c-.1-.5-.2-1.4-.7-1.7-.8-.4-1.7-.4-2.4 0-.3.1-.4.3-.5.6l-.4 1.3c-.2.3-.3-.4 0 1.1l.4 1.8c0 .2-.6.6-.8.6l-1 .6c-.9.1-.7 0-1.4.3a2.3 2.3 0 0 0-1.4 1.5 24.4 24.4 0 0 1-1.2 3c-.2.4-.2.6-.5.9 0 .2-.1.5-.3.7a10.5 10.5 0 0 0-.6.8 7.9 7.9 0 0 0-1 3c-.1 1.4 0 2.9-.3 4l-.4.8-.2.6V37l.4.6.1.2.5.1.4-.3c0-.5-.4-.8-.5-1a.9.9 0 0 1 0-.6s.2-.3.4-.3c.4-.1.3.2.3.4"
  />
</svg>
