<svg xmlns="http://www.w3.org/2000/svg" id="root" viewBox="0 0 150 163">
  <path
    d="M 79.5 0 L 69 1.046875 C 64.351562 1.792969 60.601562 2.839844 61.5 3.4375 C 59.398438 3.4375 60.148438 4.484375 58.648438 4.933594 L 55.648438 4.933594 L 53.25 7.328125 C 52.054688 8.789062 50.507812 9.921875 48.75 10.617188 C 47.070312 11.171875 45.53125 12.09375 44.25 13.308594 L 40.800781 16.597656 C 40.027344 17.191406 39.410156 17.960938 39 18.84375 C 39.300781 20.039062 39.148438 21.234375 36.898438 23.179688 C 35.757812 24.480469 34.5 25.683594 33.148438 26.769531 C 31.050781 28.5625 29.851562 29.757812 29.851562 30.355469 C 29.101562 31.703125 28.5 32.75 26.25 35.140625 L 21 38.582031 L 16.5 41.574219 C 14.125 43.792969 11.046875 45.113281 7.800781 45.3125 C 5.398438 45.3125 3.300781 46.359375 2.398438 48.152344 L 0 54.132812 C 0 54.882812 2.398438 54.132812 3.449219 52.9375 L 5.550781 51.441406 C 7.351562 50.84375 11.398438 50.695312 13.5 50.992188 C 15.148438 51.441406 15.898438 51.292969 18.148438 50.546875 C 22.648438 51.292969 22.199219 52.488281 22.949219 53.835938 C 23.101562 56.824219 22.199219 58.320312 18.898438 59.964844 C 13.199219 63.257812 8.550781 67.441406 7.800781 69.984375 C 7.050781 72.527344 7.351562 75.667969 8.398438 78.957031 C 9 80.601562 9.601562 82.097656 9.898438 82.246094 C 9.898438 82.398438 10.351562 81.800781 10.648438 80.753906 C 11.550781 77.3125 12.449219 75.96875 14.550781 74.769531 C 15.75 74.171875 17.101562 73.722656 17.550781 73.722656 C 18 73.722656 19.648438 73.125 21.148438 72.378906 C 23.851562 71.183594 24.148438 71.183594 28.351562 71.332031 C 30.601562 71.480469 33.300781 71.628906 34.050781 71.929688 C 37.574219 72.558594 40.941406 73.878906 43.949219 75.816406 C 45.898438 76.863281 46.5 77.3125 47.699219 78.957031 L 48.898438 80.601562 C 50.101562 81.648438 50.398438 83.292969 50.398438 86.585938 C 50.398438 88.679688 50.699219 90.324219 50.851562 90.324219 C 51.148438 90.324219 51.148438 93.910156 52.648438 92.714844 L 54.148438 91.96875 L 56.699219 89.726562 C 58.949219 87.332031 59.101562 87.332031 59.699219 83.445312 C 60.523438 78.246094 61.421875 73.0625 62.398438 67.890625 C 62.398438 67.292969 63.148438 65.949219 63.898438 64.902344 C 64.808594 63.730469 65.519531 62.414062 66 61.011719 C 66.335938 59.941406 66.84375 58.933594 67.5 58.023438 C 69 54.433594 69.148438 53.535156 71.25 52.488281 C 71.25 52.488281 72.148438 52.191406 72.898438 51.589844 L 74.398438 50.394531 C 75.898438 48.601562 76.800781 48.601562 78.898438 47.851562 C 78.898438 48.152344 81.75 48.152344 82.800781 47.851562 C 83.699219 47.105469 87.300781 48.75 88.351562 50.84375 L 90.300781 52.339844 C 91.449219 53.234375 92.457031 54.292969 93.300781 55.480469 L 95.851562 59.667969 C 97.625 61.9375 98.625 64.714844 98.699219 67.59375 C 98.851562 70.285156 99.75 69.6875 99.449219 70.882812 L 99 71.929688 C 98.699219 72.527344 98.398438 74.921875 98.398438 77.761719 C 98.398438 80.601562 97.949219 83.144531 97.5 84.492188 L 96.898438 88.378906 C 96.933594 89.722656 96.511719 91.042969 95.699219 92.117188 C 94.949219 93.164062 94.199219 94.808594 94.199219 95.707031 C 93.792969 97.109375 93.132812 98.429688 92.25 99.59375 C 91.5 100.789062 90.75 102.136719 90.75 102.585938 C 90.75 103.035156 90.449219 104.082031 89.851562 105.128906 L 89.101562 107.070312 C 89.101562 108.117188 87.601562 108.566406 87 108.269531 C 86.851562 108.269531 85.648438 109.015625 84.601562 110.210938 C 82.5 112.007812 82.5 112.15625 82.800781 113.652344 C 82.351562 114.847656 81.75 116.195312 80.25 115.296875 L 77.851562 115.746094 C 74.851562 117.6875 74.25 118.289062 71.851562 117.242188 C 71.398438 117.242188 67.5 118.734375 65.398438 119.933594 C 64.648438 121.726562 61.648438 122.027344 61.648438 120.53125 L 57.75 120.53125 C 54.941406 120.640625 52.167969 121.144531 49.5 122.027344 C 46.308594 123.074219 42.960938 123.578125 39.601562 123.519531 C 34.648438 123.671875 34.199219 123.820312 32.550781 125.015625 C 31.648438 125.316406 30.300781 125.167969 30.601562 123.820312 L 29.101562 123.820312 C 27.601562 123.671875 25.949219 124.269531 21.601562 127.109375 L 18.449219 129.054688 C 16.949219 129.953125 13.800781 136.53125 13.050781 140.269531 C 11.699219 146.25 11.851562 149.542969 13.5 154.027344 C 14.101562 155.523438 14.25 155.820312 16.5 156.421875 C 18.75 157.019531 19.199219 157.167969 22.199219 158.8125 C 23.25 159.410156 24 159.710938 24.148438 159.410156 C 25.050781 157.914062 26.25 157.914062 26.699219 160.007812 C 26.699219 160.605469 30.75 162.101562 31.199219 161.503906 C 32.25 159.710938 34.050781 160.757812 34.949219 162.851562 C 38.699219 163.597656 49.351562 162.253906 50.398438 160.90625 C 51 159.410156 51.898438 157.46875 52.949219 159.710938 C 52.949219 160.007812 54.449219 159.710938 55.949219 159.261719 L 61.351562 158.214844 C 66.898438 157.617188 66.75 157.46875 67.050781 156.71875 C 68.699219 153.28125 71.550781 156.71875 72.75 156.570312 C 77.242188 155.632812 81.742188 154.734375 86.25 153.878906 C 86.699219 151.785156 88.199219 151.1875 89.699219 153.726562 L 98.699219 153.128906 C 99.601562 151.933594 102.601562 151.636719 103.800781 153.429688 L 107.25 153.726562 L 114.75 154.925781 C 120 155.972656 125.699219 156.421875 125.699219 155.820312 C 125.699219 155.671875 126.898438 154.027344 128.550781 152.382812 L 131.398438 149.242188 C 129.300781 144.007812 133.5 145.804688 134.101562 143.261719 C 134.101562 142.511719 135.300781 139.820312 136.648438 137.277344 C 137.441406 135.777344 138.140625 134.226562 138.75 132.644531 C 138 129.953125 138.898438 128.304688 141.148438 128.15625 L 142.199219 125.914062 C 142.679688 125.125 143.03125 124.269531 143.25 123.371094 C 142.050781 120.828125 142.5 120.230469 143.699219 119.035156 L 144 117.242188 C 144.148438 116.195312 144 116.042969 142.949219 115.746094 C 142.800781 114.25 142.949219 113.203125 144.449219 113.054688 C 145.199219 113.054688 145.351562 112.902344 145.949219 110.0625 L 147.75 103.632812 C 148.648438 100.640625 149.25 94.957031 148.800781 93.910156 C 147 93.164062 147.898438 90.921875 149.699219 89.875 C 150 89.425781 150.148438 83.292969 149.851562 76.265625 C 148.050781 74.171875 148.648438 72.675781 148.800781 70.285156 C 150.300781 69.386719 150.300781 67.292969 148.949219 67.742188 C 148.648438 66.84375 147.898438 66.546875 148.351562 65.199219 C 148.648438 64.902344 148.050781 59.21875 147.601562 57.273438 C 147.449219 56.675781 147.148438 56.226562 146.851562 56.226562 C 146.25 54.730469 145.648438 53.683594 146.550781 51.742188 C 146.550781 50.84375 146.398438 50.246094 145.5 49.050781 L 144.898438 48.453125 C 144.898438 45.460938 142.199219 41.722656 140.101562 38.132812 L 138.300781 35.140625 L 137.550781 34.246094 C 136.949219 33.046875 136.648438 32 135.601562 30.355469 L 134.101562 29.308594 C 133.121094 28.46875 132.308594 27.453125 131.699219 26.320312 C 130.003906 23.597656 127.992188 21.089844 125.699219 18.84375 C 124.800781 17.796875 124.351562 17.644531 124.199219 18.09375 C 122.699219 16 121.800781 18.09375 120 14.804688 L 117 12.5625 C 115.175781 10.886719 113.164062 9.429688 111 8.226562 C 110.699219 8.226562 110.398438 8.523438 110.101562 8.824219 C 108.898438 8.671875 108 7.925781 106.199219 7.625 C 105.449219 5.53125 105.300781 5.382812 102.300781 4.1875 C 99.300781 2.992188 95.699219 2.09375 91.800781 1.644531 L 89.699219 1.347656 C 86.351562 0.566406 82.9375 0.117188 79.5 0 Z M 79.5 0 "
  />
</svg>
