<svg xmlns="http://www.w3.org/2000/svg" id="root" viewBox="0 0 150 213">
  <path
    d="M 54.253906 210.457031 C 31.277344 204.257812 10.371094 183.910156 3.03125 160.386719 C -3.03125 140.992188 0.160156 115.082031 10.851562 98.550781 C 15.160156 91.875 24.734375 81.863281 33.351562 75.1875 L 37.019531 72.164062 L 33.351562 65.011719 C 28.085938 55.15625 28.085938 37.195312 33.351562 27.023438 C 41.96875 10.171875 56.328125 1.113281 74.203125 0.953125 C 93.671875 0.792969 108.828125 10.492188 116.808594 27.816406 C 121.597656 38.625 121.753906 53.566406 116.808594 64.21875 L 113.296875 71.847656 L 124.46875 82.179688 C 142.339844 98.550781 150 115.558594 150 138.449219 C 150 165.472656 135.796875 189.792969 111.703125 203.941406 C 96.703125 212.683594 72.605469 215.382812 54.253906 210.457031 Z M 96.703125 185.820312 C 106.597656 181.050781 117.925781 169.921875 122.871094 159.75 C 128.136719 148.941406 128.296875 128.277344 123.351562 117.308594 C 118.5625 106.816406 108.03125 96.167969 97.5 91.082031 C 89.839844 87.265625 86.648438 86.628906 75 86.628906 C 63.351562 86.628906 60.160156 87.265625 52.5 91.082031 C 41.96875 96.167969 31.4375 106.816406 26.648438 117.308594 C 23.9375 123.191406 23.136719 127.800781 23.136719 138.292969 C 23.136719 150.054688 23.777344 152.914062 27.925781 161.179688 C 34.789062 174.691406 48.191406 185.5 63.03125 189.316406 C 71.171875 191.542969 88.246094 189.632812 96.703125 185.820312 Z M 94.148438 58.496094 C 100.691406 47.6875 96.863281 31.632812 86.328125 26.226562 C 75.796875 20.824219 61.597656 24.480469 55.851562 33.859375 C 51.703125 40.535156 51.703125 51.660156 55.851562 58.496094 L 59.042969 63.582031 L 90.957031 63.582031 Z M 94.148438 58.496094 "
  />
</svg>
