<svg xmlns="http://www.w3.org/2000/svg" id="root" viewBox="0 0 67.1 59.46">
  <g transform="matrix(1.33333 0 0 -1.33333 -1268.28 242.86)">
    <path
      d="m994.81 170.89-6.73 11.26a32.3 32.3 0 0 1-17.1-11.79 63.2 63.2 0 0 0 23.83.53m-18.78 10.45-13.11-.2a32.2 32.2 0 0 1 1.65-20.71 63.31 63.31 0 0 0 11.46 20.9M957.6 170.3l-6.38-11.45a32.1 32.1 0 0 1 18.76-8.93 63.16 63.16 0 0 0-12.38 20.38m.34-21.49 6.73-11.26a32.25 32.25 0 0 1 17.11 11.79 63.17 63.17 0 0 0-23.84-.53m18.78-10.45 13.12.2a32.17 32.17 0 0 1-1.66 20.71 62.95 62.95 0 0 0-11.46-20.91m18.44 11.04 6.39 11.45a32.09 32.09 0 0 1-18.77 8.92 62.98 62.98 0 0 0 12.38-20.37"
    />
  </g>
</svg>
