<svg xmlns="http://www.w3.org/2000/svg" id="root" viewBox="7.94 5.36 47.49 52.64">
  <path
    d="m44.83 23.8-4.8-8.02a22.97 22.97 0 0 0-12.2 8.4 45.38 45.38 0 0 1 17-.38m-13.4-7.45-9.36.13a23 23 0 0 0 1.19 14.8 45.1 45.1 0 0 1 8.17-14.93M18.3 24.22l-4.56 8.17a22.93 22.93 0 0 0 13.38 6.37 44.92 44.92 0 0 1-8.82-14.53m.24 15.33 4.8 8.03a22.93 22.93 0 0 0 12.2-8.41 45.04 45.04 0 0 1-17 .37m13.4 7.47 9.34-.15A22.93 22.93 0 0 0 40.1 32.1 44.96 44.96 0 0 1 31.93 47m13.14-7.86 4.56-8.18a22.99 22.99 0 0 0-13.38-6.37 45.01 45.01 0 0 1 8.82 14.53"
  ></path>
  <path
    d="M29.79 5.36v6.76h3.77V5.37ZM9.83 16.88l-1.89 3.26 5.85 3.4 1.9-3.28Zm43.71 0-5.86 3.38 1.88 3.27 5.87-3.37zm-4 22.94-1.88 3.27 5.87 3.38 1.88-3.27zm-35.73 0-5.87 3.4 1.89 3.26 5.87-3.39zm15.98 11.42V58h3.77v-6.76z"
  ></path>
</svg>
