<svg xmlns="http://www.w3.org/2000/svg" id="root" viewBox="0 0 150 169">
  <path
    d="M 116.519531 59.632812 L 101.359375 34.324219 C 85.9375 38.664062 72.386719 47.988281 62.824219 60.832031 C 80.488281 57.054688 98.703125 56.648438 116.519531 59.632812 M 74.195312 36.121094 L 44.628906 36.53125 C 40.679688 52.085938 42.003906 68.511719 48.390625 83.238281 C 53.921875 66.039062 62.679688 50.046875 74.195312 36.121094 M 32.722656 60.957031 L 18.320312 86.742188 C 29.792969 97.929688 44.65625 105 60.582031 106.84375 C 48.457031 93.46875 39.003906 77.90625 32.722656 60.988281 M 33.480469 109.367188 L 48.640625 134.707031 C 64.074219 130.367188 77.625 121.03125 87.175781 108.167969 C 69.515625 111.960938 51.292969 112.355469 33.480469 109.335938 M 75.804688 132.910156 L 105.304688 132.4375 C 109.261719 116.914062 107.949219 100.523438 101.578125 85.824219 C 96.046875 102.996094 87.289062 118.953125 75.773438 132.847656 M 117.277344 108.042969 L 131.679688 82.226562 C 120.199219 71.050781 105.339844 63.980469 89.417969 62.125 C 101.535156 75.503906 110.988281 91.066406 117.277344 107.980469 "
  />
  <path
    d="M 69.015625 1.441406 L 69.015625 22.773438 L 80.921875 22.773438 L 80.921875 1.472656 Z M 5.96875 37.792969 L 0 48.082031 L 18.476562 58.8125 L 24.480469 48.460938 Z M 144.03125 37.792969 L 125.519531 48.460938 L 131.460938 58.78125 L 150 48.144531 Z M 131.394531 110.1875 L 125.457031 120.507812 L 144 131.175781 L 149.9375 120.855469 Z M 18.539062 110.1875 L 0 120.917969 L 5.96875 131.207031 L 24.511719 120.507812 Z M 69.015625 146.226562 L 69.015625 167.558594 L 80.921875 167.558594 L 80.921875 146.226562 Z M 69.015625 146.226562 "
  />
</svg>
