<svg xmlns="http://www.w3.org/2000/svg" id="root" viewBox="0 0 150 150">
  <path
    d="M 75.011719 143.714844 C 37.074219 143.675781 6.324219 112.9375 6.273438 75 C 6.3125 37.050781 37.066406 6.300781 75.011719 6.261719 C 112.882812 6.261719 143.703125 37.105469 143.703125 75 C 143.703125 112.871094 112.882812 143.714844 75.011719 143.714844 M 75.011719 0.0351562 C 33.617188 0.0625 0.0546875 33.582031 -0.0234375 74.976562 C 0.0273438 116.386719 33.601562 149.9375 75.011719 149.964844 C 116.40625 149.914062 149.949219 116.371094 150 74.976562 C 149.933594 33.59375 116.394531 0.0625 75.011719 0.0117188 "
  />
  <path
    d="M 106.113281 56.347656 L 94.753906 37.363281 C 83.195312 40.621094 73.042969 47.613281 65.875 57.246094 C 79.113281 54.414062 92.765625 54.109375 106.113281 56.347656 M 74.394531 38.714844 L 52.242188 39.019531 C 49.28125 50.6875 50.273438 63.007812 55.058594 74.054688 C 59.203125 61.152344 65.765625 49.160156 74.394531 38.714844 M 43.316406 57.34375 L 32.523438 76.679688 C 41.121094 85.074219 52.257812 90.375 64.195312 91.757812 C 55.109375 81.726562 48.023438 70.054688 43.316406 57.367188 M 43.886719 93.652344 L 55.246094 112.660156 C 66.8125 109.402344 76.96875 102.402344 84.125 92.753906 C 70.890625 95.597656 57.230469 95.894531 43.886719 93.628906 M 75.605469 111.3125 L 97.710938 110.957031 C 100.675781 99.3125 99.691406 87.019531 94.917969 75.996094 C 90.773438 88.871094 84.210938 100.84375 75.578125 111.261719 M 106.683594 92.65625 L 117.476562 73.296875 C 108.875 64.910156 97.738281 59.609375 85.804688 58.21875 C 94.886719 68.253906 101.972656 79.925781 106.683594 92.609375 "
  />
  <path
    d="M 70.515625 12.699219 L 70.515625 28.699219 L 79.4375 28.699219 L 79.4375 12.722656 Z M 23.269531 39.96875 L 18.792969 47.683594 L 32.640625 55.730469 L 37.140625 47.96875 Z M 126.730469 39.96875 L 112.859375 47.96875 L 117.3125 55.707031 L 131.207031 47.730469 Z M 117.265625 94.269531 L 112.8125 102.007812 L 126.707031 110.007812 L 131.160156 102.269531 Z M 32.6875 94.269531 L 18.792969 102.316406 L 23.269531 110.03125 L 37.164062 102.007812 Z M 70.515625 121.300781 L 70.515625 137.300781 L 79.4375 137.300781 L 79.4375 121.300781 Z M 70.515625 121.300781 "
  />
</svg>
