<svg xmlns="http://www.w3.org/2000/svg" id="root" viewBox="0 0 63.37 63.36">
  <g transform="matrix(1.33333 0 0 -1.33333 -455.54 1641.4)">
    <path
      d="M365.42 1185.52a21.8 21.8 0 0 0-21.78 21.77 21.8 21.8 0 0 0 21.78 21.78c12 0 21.77-9.77 21.77-21.78 0-12-9.77-21.77-21.77-21.77m0 45.53a23.79 23.79 0 0 1-23.77-23.76 23.79 23.79 0 0 1 23.77-23.76 23.79 23.79 0 0 1 23.76 23.76 23.79 23.79 0 0 1-23.76 23.76"
    />
    <path
      d="m375.28 1213.2-3.6 6.02a17.23 17.23 0 0 1-9.15-6.3c4.1.84 8.33 1.04 12.75.28m-10.05 5.59-7.02-.1c-.93-3.73-.64-7.43.89-11.09a33.82 33.82 0 0 0 6.13 11.19m-9.86-5.9-3.42-6.13a17.2 17.2 0 0 1 10.04-4.78 33.69 33.69 0 0 0-6.62 10.9m.18-11.5 3.6-6.02a17.2 17.2 0 0 1 9.15 6.31 33.78 33.78 0 0 0-12.75-.28m10.05-5.6 7.01.11a17.2 17.2 0 0 1-.88 11.08 33.72 33.72 0 0 0-6.13-11.18m9.86 5.9 3.42 6.13a17.24 17.24 0 0 1-10.04 4.78 33.76 33.76 0 0 0 6.62-10.9"
    />
    <path
      fill="none"
      stroke="#231f20"
      stroke-width="2.83"
      d="m348.32 1197.42 4.4 2.54m29.8 17.2-4.4-2.53m-29.8 2.54 4.39-2.54m29.8-17.2-4.4 2.53m-12.7 27.07v-5.07m0-34.41v5.07"
    />
  </g>
</svg>
