<svg xmlns="http://www.w3.org/2000/svg" id="root" viewBox="0 0 18064 20770">
   <path
      d="m7636 20698-72-73-13-1464-13-1465 129-310 128-310-8-135-9-136-200-26-200-26-542-292-542-292-161-6c-150-6-163-8-175-27-7-12-88-241-180-511-92-269-170-494-175-499-7-7-1464 49-1515 59-17 4-790 792-1050 1072l-70 75-835-26c-459-14-867-26-906-26h-70l-535-346c-293-190-543-354-553-364-18-17-20-47-29-469-5-247-7-460-3-473 4-15 190-162 563-446l557-424 491 6c269 4 671 9 892 12l402 6 447 317c246 174 450 316 453 316s12 4 20 9c11 7 12 6 5-5-5-8-9-17-9-20 0-4-115-125-255-270-429-444-529-573-820-1069-95-162-180-303-189-312-15-16-57-16-751 2l-735 19-240-158c-132-87-381-252-554-367L0 12036l7-519c3-285 10-526 15-535 8-14 912-608 1096-721l50-30 657-33 657-32 623-766c399-490 668-811 748-894 227-233 502-431 823-592 70-35 127-68 127-72 0-9-60-8-555 4l-249 6-46 49c-25 26-265 283-535 569l-490 522-585-6c-322-3-732-9-912-13l-327-6-512-338c-282-186-521-346-531-357-18-17-20-54-32-563l-12-544 20-22c12-12 288-193 615-402l595-381h1754l49 37c26 20 218 173 426 340s388 307 400 312c18 6 1735-20 1986-31l74-3 136-216c166-265 235-353 414-536l140-142-4-778-4-778 112-167c111-166 112-168 106-215-5-50-27-77-70-89-13-3-212 40-467 101-322 78-455 106-478 101-42-8-174-116-194-159-14-29-7-177 69-1630 46-878 87-1600 90-1603 4-4 48-19 99-34l93-27 52-358c28-196 54-367 57-379s29-41 57-64l52-42h5676l55 53 55 52 51 365c28 201 54 368 58 371s44 16 89 29c46 12 87 28 93 35s45 670 94 1606c72 1382 81 1597 70 1625-19 45-148 152-193 160-26 5-144-19-483-101l-449-108-37 21c-20 11-40 31-44 44-17 62-10 80 102 248l110 165v1568l143 146c189 192 240 258 397 507 72 115 137 214 143 221 9 8 256 16 927 27 503 9 964 17 1025 19l109 4 435-349 436-348h1757l609 391c335 215 612 395 615 400 3 6 0 256-6 557-12 538-13 547-34 569-11 12-249 172-527 356l-507 334-338 6c-187 4-598 9-914 13l-575 5-530-565c-291-312-539-568-550-571-34-9-779-22-789-14-5 4 41 32 101 62 332 167 616 373 848 616 89 92 363 420 749 894 387 475 616 749 630 752 11 2 309 18 661 35 459 22 646 35 660 44 405 260 1105 720 1117 733 13 16 16 87 22 540l7 522-478 317c-263 174-512 338-553 365l-75 48-735-19c-572-15-738-16-747-7-6 7-90 146-186 309-293 496-400 637-816 1068-298 310-297 309-278 306 9-1 220-147 470-324l455-321 892-11c527-6 897-7 904-2 6 5 257 197 558 426 301 230 550 421 553 425 2 5 0 217-6 472-9 411-13 466-27 481-9 9-257 173-551 363l-533 345h-77c-42 0-448 11-902 25l-827 26-154-158c-85-87-333-344-552-570-328-340-404-413-430-417-42-7-1507-69-1510-65-1 2-80 231-174 509-95 278-179 510-187 516s-82 13-169 17l-154 5-543 292-542 292-203 26-202 26-6 45c-3 24-6 87-6 140v95l126 304 125 303-13 1475-14 1476-66 64-66 64H7707ZM7389 3294c197-178 215-192 432-326l226-139 265-75c264-75 268-76 494-97l227-21 233 22c229 22 235 23 488 95l257 73 226 140c215 132 237 148 419 313 106 95 202 180 214 188 20 13 88 14 532 8l509-8 6-101c3-55 8-273 10-483 6-439 18-382-108-510l-70-73H6315l-92 98-92 97 6 350c3 193 6 412 6 487v138l283 3c155 1 389 3 520 5l238 2z" />
</svg>