<svg xmlns="http://www.w3.org/2000/svg" id="root" viewBox="0 0 150 150">
  <path
    d="M 52.5 27.375 C 57.074219 21.375 62.699219 15.898438 69 11.476562 C 75.375 7.050781 82.425781 3.601562 89.699219 1.425781 C 94.351562 9.523438 99.074219 17.625 103.726562 25.726562 C 95.324219 24.148438 86.699219 23.476562 78 23.699219 C 69.375 24 60.824219 25.273438 52.5 27.375 Z M 22.574219 70.648438 C 19.574219 63.75 17.625 56.101562 16.949219 48.449219 C 16.351562 40.726562 16.875 32.851562 18.675781 25.5 L 46.726562 25.5 C 41.101562 31.949219 36.226562 39.148438 32.101562 46.726562 C 28.050781 54.375 24.824219 62.476562 22.574219 70.648438 Z M 45 118.273438 C 37.5 117.375 30 115.273438 22.949219 111.976562 C 15.976562 108.675781 9.449219 104.25 3.976562 99.074219 C 8.625 90.976562 13.351562 82.875 18 74.773438 C 20.773438 82.875 24.523438 90.675781 29.101562 98.023438 C 33.675781 105.375 39 112.199219 45 118.273438 Z M 97.5 122.625 C 93 128.699219 87.375 134.101562 81 138.601562 C 74.6875 142.976562 67.726562 146.34375 60.375 148.574219 C 55.648438 140.476562 51 132.375 46.273438 124.273438 C 63.261719 127.542969 80.761719 126.980469 97.5 122.625 Z M 127.5 79.351562 C 130.425781 86.324219 132.375 93.898438 133.050781 101.625 C 133.726562 109.351562 133.125 117.148438 131.398438 124.5 L 103.351562 124.5 C 108.898438 118.050781 113.851562 110.851562 117.898438 103.273438 C 121.949219 95.625 125.175781 87.601562 127.5 79.351562 Z M 105 31.726562 C 112.5 32.625 120.074219 34.800781 127.050781 38.023438 C 134.101562 41.324219 140.550781 45.75 146.023438 50.925781 C 141.375 59.023438 136.726562 67.125 132 75.226562 C 129.226562 67.199219 125.476562 59.324219 120.898438 51.976562 C 116.398438 44.625 111 37.800781 105 31.726562 Z M 105 31.726562 "
  />
</svg>
