<svg xmlns="http://www.w3.org/2000/svg" id="root" viewBox="0 0 150 172">
  <path
    d="M 63.40625 171.402344 L 62.808594 170.800781 L 62.703125 158.675781 L 62.59375 146.542969 L 63.664062 143.976562 L 64.726562 141.410156 L 64.660156 140.292969 L 64.585938 139.164062 L 61.265625 138.734375 L 52.265625 133.898438 L 50.925781 133.847656 C 49.683594 133.800781 49.574219 133.78125 49.472656 133.625 C 49.414062 133.527344 48.742188 131.628906 47.980469 129.394531 C 47.214844 127.164062 46.566406 125.300781 46.527344 125.261719 C 46.46875 125.203125 34.371094 125.667969 33.945312 125.75 C 33.804688 125.78125 27.386719 132.308594 25.226562 134.628906 L 24.644531 135.25 L 17.710938 135.03125 C 13.902344 134.917969 10.511719 134.816406 10.1875 134.816406 L 9.609375 134.816406 L 5.164062 131.953125 C 2.730469 130.378906 0.65625 129.019531 0.574219 128.9375 C 0.421875 128.796875 0.40625 128.546875 0.332031 125.054688 C 0.289062 123.007812 0.273438 121.246094 0.308594 121.136719 C 0.339844 121.011719 1.886719 119.796875 4.980469 117.445312 L 9.609375 113.933594 L 13.683594 113.980469 C 15.917969 114.015625 19.257812 114.054688 21.089844 114.082031 L 24.429688 114.132812 L 28.140625 116.757812 C 30.183594 118.195312 31.878906 119.375 31.902344 119.375 C 31.929688 119.375 32.003906 119.40625 32.070312 119.449219 C 32.160156 119.503906 32.167969 119.496094 32.109375 119.40625 C 32.070312 119.339844 32.035156 119.265625 32.035156 119.242188 C 32.035156 119.207031 31.082031 118.207031 29.917969 117.003906 C 26.355469 113.328125 25.527344 112.257812 23.109375 108.152344 C 22.320312 106.8125 21.613281 105.644531 21.539062 105.570312 C 21.414062 105.4375 21.066406 105.4375 15.304688 105.585938 L 9.199219 105.742188 L 7.207031 104.433594 C 6.113281 103.714844 4.042969 102.347656 2.605469 101.394531 L 0 99.671875 L 0.0585938 95.375 C 0.0820312 93.015625 0.140625 91.019531 0.183594 90.945312 C 0.25 90.828125 7.753906 85.910156 9.285156 84.972656 L 9.699219 84.726562 L 15.15625 84.453125 L 20.609375 84.1875 L 25.785156 77.84375 C 29.097656 73.785156 31.332031 71.128906 31.996094 70.441406 C 33.878906 68.511719 36.164062 66.871094 38.828125 65.539062 C 39.410156 65.246094 39.882812 64.972656 39.882812 64.941406 C 39.882812 64.867188 39.386719 64.875 35.273438 64.972656 L 33.207031 65.023438 L 32.824219 65.429688 C 32.617188 65.644531 30.625 67.773438 28.382812 70.140625 L 24.3125 74.464844 L 19.457031 74.414062 C 16.78125 74.390625 13.378906 74.339844 11.882812 74.308594 L 9.167969 74.257812 L 4.914062 71.457031 C 2.574219 69.917969 0.589844 68.59375 0.507812 68.5 C 0.355469 68.359375 0.339844 68.054688 0.242188 63.839844 L 0.140625 59.335938 L 0.308594 59.152344 C 0.40625 59.054688 2.699219 57.554688 5.414062 55.824219 L 10.355469 52.667969 L 24.917969 52.667969 L 25.328125 52.976562 C 25.542969 53.140625 27.136719 54.40625 28.863281 55.789062 C 30.589844 57.171875 32.085938 58.332031 32.1875 58.375 C 32.335938 58.421875 46.59375 58.207031 48.675781 58.117188 L 49.292969 58.09375 L 50.421875 56.304688 C 51.800781 54.109375 52.371094 53.378906 53.859375 51.863281 L 55.019531 50.6875 L 54.988281 44.246094 L 54.953125 37.804688 L 55.882812 36.421875 C 56.804688 35.046875 56.816406 35.03125 56.765625 34.640625 C 56.722656 34.226562 56.539062 34.003906 56.183594 33.902344 C 56.074219 33.878906 54.421875 34.234375 52.304688 34.738281 C 49.632812 35.386719 48.527344 35.617188 48.335938 35.574219 C 47.988281 35.507812 46.890625 34.617188 46.726562 34.257812 C 46.609375 34.019531 46.667969 32.792969 47.296875 20.761719 C 47.679688 13.488281 48.019531 7.511719 48.046875 7.484375 C 48.078125 7.453125 48.445312 7.328125 48.867188 7.203125 L 49.640625 6.980469 L 50.070312 4.015625 C 50.304688 2.394531 50.519531 0.976562 50.546875 0.878906 C 50.570312 0.777344 50.785156 0.539062 51.019531 0.347656 L 51.449219 0 L 98.582031 0 L 99.039062 0.4375 L 99.496094 0.871094 L 99.917969 3.890625 C 100.152344 5.558594 100.367188 6.941406 100.402344 6.964844 C 100.433594 6.988281 100.765625 7.097656 101.140625 7.203125 C 101.523438 7.304688 101.863281 7.4375 101.914062 7.496094 C 101.960938 7.550781 102.285156 13.042969 102.691406 20.792969 C 103.292969 32.238281 103.367188 34.019531 103.273438 34.25 C 103.117188 34.625 102.046875 35.507812 101.671875 35.574219 C 101.457031 35.617188 100.476562 35.417969 97.660156 34.738281 L 93.933594 33.84375 L 93.625 34.019531 C 93.460938 34.109375 93.292969 34.277344 93.261719 34.382812 C 93.117188 34.898438 93.175781 35.046875 94.105469 36.4375 L 95.019531 37.804688 L 95.019531 50.789062 L 96.207031 51.996094 C 97.777344 53.585938 98.199219 54.132812 99.503906 56.195312 C 100.101562 57.148438 100.640625 57.96875 100.691406 58.027344 C 100.765625 58.09375 102.816406 58.160156 108.390625 58.25 C 112.566406 58.324219 116.394531 58.390625 116.902344 58.40625 L 117.804688 58.441406 L 121.417969 55.550781 L 125.039062 52.667969 L 139.628906 52.667969 L 144.6875 55.90625 C 147.46875 57.6875 149.765625 59.175781 149.792969 59.21875 C 149.816406 59.269531 149.792969 61.339844 149.742188 63.832031 C 149.644531 68.285156 149.632812 68.359375 149.460938 68.542969 C 149.367188 68.644531 147.394531 69.96875 145.085938 71.492188 L 140.875 74.257812 L 138.066406 74.308594 C 136.515625 74.339844 133.101562 74.382812 130.476562 74.414062 L 125.703125 74.457031 L 121.300781 69.777344 C 118.886719 67.195312 116.828125 65.074219 116.734375 65.046875 C 116.453125 64.972656 110.265625 64.867188 110.183594 64.933594 C 110.140625 64.964844 110.523438 65.199219 111.023438 65.445312 C 113.777344 66.828125 116.136719 68.535156 118.0625 70.546875 C 118.800781 71.308594 121.078125 74.027344 124.28125 77.949219 C 127.496094 81.882812 129.398438 84.152344 129.515625 84.179688 C 129.605469 84.195312 132.082031 84.328125 135.003906 84.46875 C 138.816406 84.648438 140.367188 84.757812 140.484375 84.832031 C 143.847656 86.984375 149.660156 90.792969 149.757812 90.902344 C 149.867188 91.035156 149.890625 91.621094 149.941406 95.375 L 150 99.695312 L 146.03125 102.320312 C 143.847656 103.761719 141.777344 105.121094 141.4375 105.34375 L 140.816406 105.742188 L 134.710938 105.585938 C 129.964844 105.460938 128.585938 105.453125 128.507812 105.527344 C 128.460938 105.585938 127.761719 106.734375 126.964844 108.085938 C 124.53125 112.191406 123.644531 113.359375 120.1875 116.929688 C 117.714844 119.496094 117.722656 119.488281 117.882812 119.464844 C 117.957031 119.457031 119.707031 118.246094 121.785156 116.78125 L 125.5625 114.121094 L 132.96875 114.03125 C 137.34375 113.980469 140.417969 113.972656 140.476562 114.015625 C 140.523438 114.054688 142.609375 115.648438 145.109375 117.542969 C 147.609375 119.449219 149.675781 121.03125 149.699219 121.0625 C 149.71875 121.105469 149.699219 122.859375 149.652344 124.972656 C 149.578125 128.375 149.542969 128.832031 149.425781 128.953125 C 149.351562 129.027344 147.292969 130.386719 144.851562 131.960938 L 140.425781 134.816406 L 139.785156 134.816406 C 139.4375 134.816406 136.066406 134.910156 132.296875 135.023438 L 125.429688 135.238281 L 124.148438 133.929688 C 123.445312 133.210938 121.386719 131.082031 119.566406 129.210938 C 116.84375 126.394531 116.210938 125.792969 115.996094 125.757812 C 115.648438 125.699219 103.480469 125.1875 103.457031 125.21875 C 103.449219 125.234375 102.792969 127.132812 102.011719 129.433594 C 101.222656 131.738281 100.527344 133.65625 100.460938 133.707031 C 100.394531 133.757812 99.777344 133.816406 99.054688 133.847656 L 97.777344 133.890625 L 93.269531 136.308594 L 88.769531 138.726562 L 87.082031 138.941406 L 85.40625 139.15625 L 85.355469 139.53125 C 85.328125 139.726562 85.304688 140.25 85.304688 140.6875 L 85.304688 141.476562 L 86.351562 143.992188 L 87.390625 146.503906 L 87.28125 158.71875 L 87.164062 170.941406 L 86.617188 171.46875 L 86.070312 172 L 63.996094 172 Z M 61.355469 27.277344 C 62.992188 25.804688 63.140625 25.6875 64.945312 24.578125 L 66.820312 23.425781 L 69.019531 22.804688 C 71.214844 22.183594 71.246094 22.175781 73.125 22.003906 L 75.007812 21.828125 L 76.941406 22.011719 C 78.84375 22.195312 78.894531 22.203125 80.996094 22.796875 L 83.128906 23.402344 L 85.007812 24.5625 C 86.792969 25.65625 86.972656 25.789062 88.484375 27.152344 C 89.367188 27.941406 90.164062 28.644531 90.261719 28.710938 C 90.429688 28.820312 90.992188 28.828125 94.679688 28.777344 L 98.90625 28.710938 L 98.957031 27.875 C 98.980469 27.417969 99.023438 25.613281 99.039062 23.875 C 99.089844 20.238281 99.1875 20.710938 98.144531 19.652344 L 97.5625 19.046875 L 52.4375 19.046875 L 51.675781 19.859375 L 50.910156 20.660156 L 50.960938 23.558594 C 50.984375 25.160156 51.011719 26.972656 51.011719 27.59375 L 51.011719 28.734375 L 53.359375 28.761719 C 54.648438 28.769531 56.589844 28.785156 57.679688 28.800781 L 59.65625 28.820312 Z M 61.355469 27.277344 "
  />
</svg>
