<svg xmlns="http://www.w3.org/2000/svg" id="root" viewBox="0 0 150 150">
  <path
    d="M 76.191406 145.238281 C 38.054688 145.238281 7.144531 114.324219 7.144531 76.191406 C 7.144531 38.054688 38.054688 7.144531 76.191406 7.144531 C 114.324219 7.144531 145.238281 38.054688 145.238281 76.191406 C 145.238281 114.285156 114.285156 145.238281 76.191406 145.238281 M 76.191406 0 C 34.113281 0 0 34.113281 0 76.191406 C 1.285156 117.335938 35.023438 150.019531 76.191406 150 C 116.429688 148.761719 148.761719 116.429688 150 76.191406 C 150.019531 35.023438 117.335938 1.285156 76.191406 0 "
  />
  <path
    d="M 114.285156 78.570312 L 121.429688 76.191406 L 121.429688 78.570312 C 109.523438 97.617188 90.476562 92.855469 76.191406 85.714844 C 66.667969 78.570312 54.761719 71.429688 42.855469 71.429688 C 33.332031 71.429688 30.953125 76.191406 28.570312 73.808594 L 28.570312 71.429688 C 40.476562 54.761719 61.90625 59.523438 76.191406 66.667969 C 85.714844 71.429688 95.238281 80.953125 109.523438 78.570312 L 114.285156 78.570312 M 95.238281 40.476562 C 99.695312 35.832031 106.429688 34.167969 112.535156 36.203125 C 118.644531 38.238281 123.03125 43.609375 123.808594 50 C 123.808594 57.144531 116.667969 64.285156 109.523438 66.667969 C 100 71.429688 85.714844 66.667969 76.191406 61.90625 C 66.667969 54.761719 54.761719 47.617188 42.855469 47.617188 L 28.570312 52.382812 L 28.570312 47.617188 C 40.476562 30.953125 61.90625 35.714844 76.191406 45.238281 L 102.382812 57.144531 C 107.144531 57.144531 111.90625 57.144531 114.285156 52.382812 L 114.285156 50 C 114.285156 45.238281 111.90625 42.855469 107.144531 42.855469 C 104.859375 43.550781 103.074219 45.335938 102.382812 47.617188 C 97.617188 52.382812 90.476562 47.617188 92.855469 42.855469 L 95.238281 40.476562 M 42.855469 107.144531 L 50 104.761719 C 52.382812 100 59.523438 102.382812 57.144531 109.523438 C 52.6875 114.167969 45.953125 115.832031 39.84375 113.796875 C 33.738281 111.761719 29.347656 106.390625 28.570312 100 C 28.570312 92.855469 33.332031 85.714844 40.476562 83.332031 C 52.382812 78.570312 66.667969 83.332031 76.191406 90.476562 C 85.714844 95.238281 95.238281 102.382812 109.523438 102.382812 C 119.046875 102.382812 119.046875 97.617188 121.429688 100 L 121.429688 102.382812 C 109.523438 119.046875 90.476562 114.285156 76.191406 107.144531 C 66.667969 102.382812 59.523438 95.238281 47.617188 92.855469 L 38.09375 97.617188 C 37.960938 98.40625 37.960938 99.210938 38.09375 100 C 38.09375 104.761719 40.476562 107.144531 42.855469 107.144531 "
  />
</svg>
