<svg xmlns="http://www.w3.org/2000/svg" id="root" viewBox="0 0 63 63">
  <path
    d="M32 61A29 29 0 0 1 3 32 29 29 0 0 1 32 3a29 29 0 0 1 29 29c0 16-13 29-29 29m0-61A32 32 0 0 0 0 32a32 32 0 0 0 32 31 32 32 0 0 0 31-31A32 32 0 0 0 32 0"
  />
  <path
    d="m48 33 3-1v1c-5 8-13 6-19 3-4-3-9-6-14-6-4 0-5 2-6 1v-1c5-7 14-5 20-2 4 2 8 6 14 5h2m-8-16a7 7 0 0 1 12 4c0 3-3 6-6 7-4 2-10 0-14-2-4-3-9-6-14-6l-6 2v-2c5-7 14-5 20-1l11 5c2 0 4 0 5-2v-1c0-2-1-3-3-3a3 3 0 0 0-2 2c-2 2-5 0-4-2l1-1M18 45l3-1c1-2 4-1 3 2a7 7 0 0 1-12-4c0-3 2-6 5-7 5-2 11 0 15 3 4 2 8 5 14 5 4 0 4-2 5-1v1c-5 7-13 5-19 2-4-2-7-5-12-6l-4 2a3 3 0 0 0 0 1c0 2 1 3 2 3"
  />
</svg>
