<?xml version="1.0" encoding="UTF-8" standalone="no"?>
<svg
  id="root"
  viewBox="0 0 63.37 63.36"
  version="1.1"
  sodipodi:docname="storm_disc.svg"
  inkscape:version="1.2.2 (b0a84865, 2022-12-01)"
  xmlns:inkscape="http://www.inkscape.org/namespaces/inkscape"
  xmlns:sodipodi="http://sodipodi.sourceforge.net/DTD/sodipodi-0.dtd"
  xmlns="http://www.w3.org/2000/svg"
  xmlns:svg="http://www.w3.org/2000/svg"
>
  <defs id="defs3468" />
  <sodipodi:namedview
    id="namedview3466"
    pagecolor="#505050"
    bordercolor="#ffffff"
    borderopacity="1"
    inkscape:showpageshadow="0"
    inkscape:pageopacity="0"
    inkscape:pagecheckerboard="1"
    inkscape:deskcolor="#505050"
    showgrid="false"
    inkscape:zoom="3.7247474"
    inkscape:cx="8.7254238"
    inkscape:cy="31.814238"
    inkscape:window-width="2056"
    inkscape:window-height="1229"
    inkscape:window-x="0"
    inkscape:window-y="-168"
    inkscape:window-maximized="0"
    inkscape:current-layer="root"
  />
  <path
    d="M 31.685684,60.710618 A 29.066594,29.066594 0 0 1 2.6457562,31.684024 29.066594,29.066594 0 0 1 31.685684,2.6440969 29.066594,29.066594 0 0 1 60.725611,31.684024 c 0,15.99996 -13.026634,29.026594 -29.039927,29.026594 m 0,-60.7065145 A 31.719921,31.719921 0 0 0 0.0057628,31.684024 31.719921,31.719921 0 0 0 31.685684,63.363945 31.719921,31.719921 0 0 0 63.365604,31.684024 31.719921,31.719921 0 0 0 31.685684,0.0041035"
    id="path3594"
    style="stroke-width: 1.33333"
  />
  <path
    d="m 47.992309,33.110687 c 1.919996,-0.546665 2.253328,-1.413329 2.919993,-1.026664 0.666665,0.373333 0.24,1.013331 0.01333,1.37333 -4.439988,7.253315 -12.933301,5.37332 -18.799953,2.066662 -4.546655,-2.559994 -8.826644,-5.866652 -14.373297,-5.626653 -3.95999,0.12 -4.399989,1.866662 -5.29332,1.386663 -0.666665,-0.386665 -0.239999,-1.026664 -0.01333,-1.399996 4.466655,-7.279982 13.2533,-5.33332 19.239952,-1.799996 4.546655,2.359994 8.039979,5.626653 13.933298,5.37332 0.813331,0 1.599996,-0.119999 2.373327,-0.346666 M 39.645664,16.724062 A 6.7866497,6.7866497 0 0 1 51.7923,20.897385 c 0,3.426658 -2.613327,6.079984 -5.666653,7.333315 -4.559988,1.839995 -10.133308,0 -13.999965,-2.173328 -4.546655,-2.559994 -8.826644,-5.866652 -14.373297,-5.639986 -3.95999,0.133333 -4.399989,1.879995 -5.29332,1.386663 -0.666665,-0.373332 -0.239999,-1.026664 -0.01333,-1.386663 4.466655,-7.279982 13.2533,-5.33332 19.239952,-1.813329 3.866657,1.999995 6.946649,4.666655 11.399971,5.266654 1.866662,0.266666 3.83999,-0.186667 4.533322,-1.893329 0.133333,-0.346666 0.226666,-0.706665 0.226666,-1.066664 v -0.01333 c 0,-1.546663 -1.279997,-2.82666 -2.839993,-2.82666 a 2.8533262,2.8533262 0 0 0 -2.46666,1.45333 c -1.159997,2.079995 -4.626655,0.706665 -3.466658,-1.946662 0.173333,-0.306666 0.373332,-0.586665 0.573332,-0.853331 M 18.37905,45.270657 c 0.866665,0 1.706663,-0.399999 2.226661,-1.066664 v -0.01333 c 0.09333,-0.12 0.173333,-0.24 0.226666,-0.359999 h 0.01333 c 1.159997,-2.079995 4.626655,-0.706665 3.466658,1.946661 A 6.799983,6.799983 0 0 1 11.5924,42.457331 h -0.01333 c 0,-3.426658 2.639994,-6.093318 5.679986,-7.333315 4.693322,-1.893329 10.346641,0.01333 14.426631,2.42666 4.546655,2.359994 8.039979,5.626653 13.933298,5.386654 3.95999,-0.133333 4.399989,-1.879996 5.29332,-1.386664 0.666665,0.373333 0.24,1.013331 0.01333,1.386664 -4.439988,7.239981 -12.933301,5.359986 -18.799953,2.066661 -3.706657,-2.093328 -7.506647,-4.933321 -11.826637,-5.519986 -1.866662,-0.266666 -3.853323,0.186666 -4.533322,1.893328 a 2.7333265,2.7333265 0 0 0 -0.226666,1.066664 c 0,1.559997 1.266664,2.82666 2.839993,2.82666"
    id="path3597"
    style="stroke-width: 1.33333"
  />
</svg>
