<svg xmlns="http://www.w3.org/2000/svg" id="root" viewBox="0 0 40.22 35.14">
  <g transform="matrix(1.33333 0 0 -1.33333 -373.12 1627.3)">
    <path
      d="M307.15 1206.22c1.44.41 1.69 1.06 2.19.77.5-.28.18-.76.01-1.03-3.33-5.44-9.7-4.03-14.1-1.55-3.41 1.92-6.62 4.4-10.78 4.22-2.97-.09-3.3-1.4-3.97-1.04-.5.29-.18.77-.01 1.05 3.35 5.46 9.94 4 14.43 1.35 3.41-1.77 6.03-4.22 10.45-4.03.61 0 1.2.09 1.78.26m-6.26 12.29a5.09 5.09 0 0 0 9.11-3.13c0-2.57-1.96-4.56-4.25-5.5-3.42-1.38-7.6 0-10.5 1.63-3.41 1.92-6.62 4.4-10.78 4.23-2.97-.1-3.3-1.41-3.97-1.04-.5.28-.18.77-.01 1.04 3.35 5.46 9.94 4 14.43 1.36 2.9-1.5 5.21-3.5 8.55-3.95 1.4-.2 2.88.14 3.4 1.42.1.26.17.53.17.8v.01c0 1.16-.96 2.12-2.13 2.12a2.14 2.14 0 0 1-1.85-1.09c-.87-1.56-3.47-.53-2.6 1.46.13.23.28.44.43.64m-15.95-21.41c.65 0 1.28.3 1.67.8v.01c.07.09.13.18.17.27h.01c.87 1.56 3.47.53 2.6-1.46a5.1 5.1 0 0 0-9.54 2.49h-.01c0 2.57 1.98 4.57 4.26 5.5 3.52 1.42 7.76-.01 10.82-1.82 3.41-1.77 6.03-4.22 10.45-4.04 2.97.1 3.3 1.41 3.97 1.04.5-.28.18-.76.01-1.04-3.33-5.43-9.7-4.02-14.1-1.55-2.78 1.57-5.63 3.7-8.87 4.14-1.4.2-2.89-.14-3.4-1.42a2.05 2.05 0 0 1-.17-.8c0-1.17.95-2.12 2.13-2.12"
    />
  </g>
</svg>
