<svg xmlns="http://www.w3.org/2000/svg" id="root" viewBox="0 0 150 150">
  <path
    d="M 8.746094 149.144531 C 3.011719 147.003906 0.140625 142.59375 0.140625 136.035156 L 0.140625 129.488281 L 24.957031 104.839844 L 49.617188 80.34375 L 59.367188 90.027344 L 68.976562 99.574219 L 44.167969 124.074219 C 19.5 148.714844 15.199219 151.710938 8.746094 149.144531 Z M 8.746094 149.144531 "
  />
  <path
    d="M 113.578125 148.007812 C 101.386719 144.304688 94.785156 134.332031 94.785156 119.941406 L 94.785156 110.972656 L 66.398438 82.761719 L 38.144531 54.703125 L 28.824219 54.703125 C 17.785156 54.703125 11.613281 51.847656 5.308594 44.300781 C 0.863281 38.746094 -1.289062 27.492188 0.714844 19.660156 C 1.722656 15.957031 1.863281 15.957031 12.910156 26.785156 C 25.238281 38.601562 28.246094 39.746094 33.84375 34.042969 C 39.582031 28.488281 38.433594 25.5 26.53125 13.246094 C 15.632812 2.277344 15.632812 2.136719 19.359375 1.136719 C 21.511719 0.714844 26.816406 0.566406 31.121094 0.855469 C 45.746094 2.136719 55.214844 13.386719 54.925781 29.628906 L 54.777344 38.460938 L 83.035156 66.378906 L 111.28125 94.300781 L 122.320312 94.871094 C 132.074219 95.296875 133.941406 95.871094 138.816406 99.714844 C 146.558594 105.984375 149.859375 112.246094 150 120.796875 C 150 134.613281 148.996094 134.902344 137.089844 123.074219 C 128.488281 114.527344 125.621094 112.675781 122.039062 112.675781 C 116.441406 112.675781 113.003906 116.097656 113.003906 121.652344 C 113.003906 125.214844 114.867188 128.0625 123.328125 136.464844 L 133.792969 146.863281 L 129.066406 148.574219 C 123.328125 150.566406 121.464844 150.425781 113.578125 148.007812 Z M 113.578125 148.007812 "
  />
  <path
    d="M 89.769531 58.972656 L 85.613281 54.703125 L 97.945312 42.164062 C 106.40625 33.621094 111.855469 26.636719 115.441406 19.660156 C 120.457031 10.113281 121.175781 9.402344 130.640625 4.847656 L 140.675781 0 L 144.980469 4.128906 C 147.277344 6.410156 149.285156 8.976562 149.285156 10.113281 C 149.285156 11.109375 146.988281 15.957031 144.261719 20.941406 C 139.964844 28.777344 138.238281 30.488281 131.789062 33.472656 C 126.914062 35.613281 119.167969 41.597656 110.277344 49.996094 C 102.679688 57.261719 95.933594 63.246094 95.222656 63.246094 C 94.5 63.246094 92.0625 61.253906 89.769531 58.972656 Z M 89.769531 58.972656 "
  />
</svg>
