<svg viewBox="0 0 1330 1790" id="root" xmlns="http://www.w3.org/2000/svg">
  <path
    d="M593 1768c-50-9-57-15-221-182-94-96-179-191-190-212-10-22-25-75-32-119-11-61-21-89-45-121-50-65-95-255-95-400 0-70 0-71 34-89 30-17 35-24 41-72C118 303 279 95 507 24c26-8 84-17 128-20 318-23 574 213 621 572 5 44 10 53 40 69 34 18 34 19 34 89 0 145-45 335-95 400-24 32-34 60-45 121-7 44-22 97-32 119-11 21-96 116-189 211l-170 173-63 11c-70 12-71 12-143-1zm178-57c28-10 334-334 347-366 6-16 18-68 27-115 12-68 21-90 45-115 38-39 79-193 87-327l6-97-35-21c-33-19-36-24-42-86-16-152-89-307-189-400-84-78-217-134-317-134h-30v1680l43-6c23-4 49-10 58-13zm-199-697c16-8 28-21 28-28 0-35-199-126-274-126-43 0-46 2-46 25 0 55 51 117 117 141 44 16 132 10 175-12z" />
  <path
    d="M823 1030c-48-10-83-27-83-40 0-15 62-57 134-91 49-23 84-32 124-33 54-1 57 0 60 24 6 57-76 134-153 143-22 3-59 1-82-3z" />
</svg>