<svg xmlns="http://www.w3.org/2000/svg" id="root" viewBox="0 0 3560 3560">
  <path
    d="M1140 3302c-338-140-616-256-617-257-2-1-120-285-264-632L-2 1783l257-619c141-341 260-625 264-632 4-6 289-128 634-271L1781 1l626 259c345 143 630 263 634 267 20 24 520 1255 515 1270-9 27-514 1244-518 1247-17 14-1248 516-1263 515-11-1-297-116-635-257zm145-873c39-12 91-32 117-45s52-24 59-24c6 0 39 13 74 30 100 48 177 64 300 64s200-16 300-64c35-17 68-30 74-30 7 0 33 11 59 24 103 52 188 71 317 70 139-1 233-26 344-91 101-60 151-110 158-159 10-75-43-134-120-134-24 0-49 12-88 41-30 23-83 55-119 73-61 29-72 31-180 31s-119-2-181-31c-36-17-85-45-109-63-64-46-107-43-190 14-81 57-169 85-265 85s-184-28-265-85c-83-57-126-60-190-14-24 18-73 46-109 63-62 29-73 31-181 31s-119-2-180-31c-36-18-89-50-119-73-39-29-64-41-88-41-77 0-130 59-120 134 4 32 15 49 50 81 86 78 222 143 341 165 79 14 231 4 311-21zm-44-483c36-8 102-31 146-51l80-36 60 31c89 45 200 70 308 70s219-25 308-70l60-31 80 36c99 46 187 65 297 65 173 0 339-62 451-169 54-51 59-60 59-98 0-33-7-50-31-77-53-61-112-58-193 9-164 134-383 134-577 0-68-47-104-44-184 13-161 115-379 115-540 0-80-57-116-60-184-13-122 84-241 116-358 95-82-14-162-49-219-95-81-67-140-70-193-9-24 27-31 44-31 77 0 38 5 47 59 98 69 66 197 133 292 154 84 18 227 18 310 1zm25-502c34-9 92-31 130-49l68-33 56 28c105 53 194 74 315 74s210-21 315-74l56-28 69 33c101 49 192 69 310 69 157-1 285-44 413-139 88-64 111-119 77-185-21-41-53-60-101-60-34 0-53 9-108 50-100 73-160 94-281 94-120 1-177-16-273-82-88-60-117-60-209 0-103 68-151 83-268 83s-165-15-268-83c-92-60-121-60-209 0-96 66-153 83-273 82-121 0-181-21-281-94-55-41-74-50-108-50-48 0-80 19-101 60-33 63-11 120 68 178 184 137 388 180 603 126z"
  />
</svg>
