<svg xmlns="http://www.w3.org/2000/svg" id="root" viewBox="0 0 150 150">
  <path
    d="M 48.035156 139.128906 C 33.792969 133.230469 22.078125 128.34375 22.035156 128.300781 C 21.953125 128.257812 16.980469 116.292969 10.914062 101.671875 L -0.0859375 75.125 L 10.746094 49.046875 C 16.683594 34.675781 21.699219 22.710938 21.867188 22.414062 C 22.035156 22.164062 34.046875 17.023438 48.582031 10.996094 L 75.042969 0.0429688 L 101.417969 10.953125 C 115.953125 16.980469 127.964844 22.035156 128.132812 22.203125 C 128.976562 23.214844 150.042969 75.085938 149.832031 75.714844 C 149.453125 76.855469 128.175781 128.132812 128.003906 128.257812 C 127.289062 128.847656 75.421875 150 74.789062 149.957031 C 74.324219 149.914062 62.273438 145.070312 48.035156 139.128906 Z M 54.144531 102.34375 C 55.785156 101.839844 57.976562 100.996094 59.074219 100.449219 C 60.167969 99.902344 61.265625 99.4375 61.558594 99.4375 C 61.8125 99.4375 63.203125 99.984375 64.675781 100.703125 C 68.890625 102.726562 72.136719 103.398438 77.316406 103.398438 C 82.5 103.398438 85.746094 102.726562 89.957031 100.703125 C 91.433594 99.984375 92.824219 99.4375 93.074219 99.4375 C 93.371094 99.4375 94.464844 99.902344 95.5625 100.449219 C 99.902344 102.640625 103.484375 103.441406 108.917969 103.398438 C 114.773438 103.355469 118.734375 102.304688 123.414062 99.566406 C 127.667969 97.035156 129.773438 94.929688 130.070312 92.863281 C 130.492188 89.703125 128.257812 87.21875 125.015625 87.21875 C 124.003906 87.21875 122.949219 87.726562 121.304688 88.945312 C 120.042969 89.914062 117.808594 91.265625 116.292969 92.023438 C 113.722656 93.246094 113.257812 93.328125 108.707031 93.328125 C 104.15625 93.328125 103.695312 93.246094 101.082031 92.023438 C 99.566406 91.304688 97.5 90.125 96.488281 89.367188 C 93.792969 87.429688 91.980469 87.554688 88.484375 89.957031 C 85.070312 92.359375 81.363281 93.539062 77.316406 93.539062 C 73.273438 93.539062 69.566406 92.359375 66.152344 89.957031 C 62.65625 87.554688 60.84375 87.429688 58.144531 89.367188 C 57.136719 90.125 55.070312 91.304688 53.554688 92.023438 C 50.941406 93.246094 50.476562 93.328125 45.925781 93.328125 C 41.375 93.328125 40.914062 93.246094 38.34375 92.023438 C 36.824219 91.265625 34.59375 89.914062 33.328125 88.945312 C 31.683594 87.726562 30.632812 87.21875 29.621094 87.21875 C 26.375 87.21875 24.144531 89.703125 24.566406 92.863281 C 24.734375 94.214844 25.195312 94.929688 26.671875 96.277344 C 30.296875 99.566406 36.023438 102.304688 41.039062 103.230469 C 44.367188 103.820312 50.773438 103.398438 54.144531 102.34375 Z M 52.289062 81.996094 C 53.804688 81.65625 56.585938 80.6875 58.441406 79.84375 L 61.8125 78.328125 L 64.339844 79.636719 C 68.089844 81.53125 72.765625 82.585938 77.316406 82.585938 C 81.867188 82.585938 86.546875 81.53125 90.296875 79.636719 L 92.824219 78.328125 L 96.195312 79.84375 C 100.363281 81.785156 104.074219 82.585938 108.707031 82.585938 C 115.996094 82.585938 122.992188 79.972656 127.710938 75.464844 C 129.984375 73.316406 130.195312 72.933594 130.195312 71.335938 C 130.195312 69.945312 129.902344 69.226562 128.890625 68.089844 C 126.65625 65.519531 124.171875 65.644531 120.757812 68.46875 C 113.847656 74.113281 104.621094 74.113281 96.445312 68.46875 C 93.582031 66.488281 92.066406 66.613281 88.695312 69.015625 C 81.910156 73.863281 72.726562 73.863281 65.941406 69.015625 C 62.570312 66.613281 61.054688 66.488281 58.1875 68.46875 C 53.046875 72.007812 48.035156 73.355469 43.105469 72.472656 C 39.648438 71.882812 36.277344 70.40625 33.875 68.46875 C 30.464844 65.644531 27.976562 65.519531 25.746094 68.089844 C 24.734375 69.226562 24.4375 69.945312 24.4375 71.335938 C 24.4375 72.933594 24.648438 73.316406 26.925781 75.464844 C 29.832031 78.246094 35.226562 81.066406 39.226562 81.953125 C 42.765625 82.710938 48.792969 82.710938 52.289062 81.996094 Z M 53.34375 60.84375 C 54.773438 60.464844 57.21875 59.535156 58.820312 58.777344 L 61.683594 57.386719 L 64.046875 58.566406 C 68.46875 60.800781 72.21875 61.683594 77.316406 61.683594 C 82.414062 61.683594 86.164062 60.800781 90.589844 58.566406 L 92.949219 57.386719 L 95.855469 58.777344 C 100.113281 60.84375 103.945312 61.683594 108.917969 61.683594 C 115.535156 61.644531 120.925781 59.832031 126.320312 55.828125 C 130.027344 53.132812 130.996094 50.816406 129.566406 48.035156 C 128.679688 46.304688 127.332031 45.503906 125.308594 45.503906 C 123.875 45.503906 123.074219 45.886719 120.757812 47.613281 C 116.546875 50.6875 114.015625 51.574219 108.917969 51.574219 C 103.863281 51.613281 101.460938 50.898438 97.414062 48.117188 C 93.707031 45.589844 92.484375 45.589844 88.609375 48.117188 C 84.269531 50.984375 82.246094 51.613281 77.316406 51.613281 C 72.386719 51.613281 70.363281 50.984375 66.023438 48.117188 C 62.148438 45.589844 60.925781 45.589844 57.21875 48.117188 C 53.175781 50.898438 50.773438 51.613281 45.714844 51.574219 C 40.617188 51.574219 38.089844 50.6875 33.875 47.613281 C 31.558594 45.886719 30.757812 45.503906 29.324219 45.503906 C 27.304688 45.503906 25.953125 46.304688 25.070312 48.035156 C 23.679688 50.6875 24.605469 53.089844 27.933594 55.535156 C 35.6875 61.304688 44.285156 63.117188 53.34375 60.84375 Z M 53.34375 60.84375 "
  />
</svg>
