<svg xmlns="http://www.w3.org/2000/svg" id="root" viewBox="0 0 150 150">
  <path
    d="M 40.714844 138.367188 C 33.367188 134.386719 27.550781 130.101562 27.550781 128.570312 C 27.550781 127.039062 31.835938 118.777344 36.734375 110.203125 C 41.9375 101.632812 45.917969 93.980469 45.917969 93.367188 C 45.917969 92.449219 36.429688 91.835938 24.488281 91.835938 L 3.0625 91.835938 L 3.0625 55.101562 L 24.488281 55.101562 C 36.429688 55.101562 45.917969 54.488281 45.917969 53.570312 C 45.917969 52.960938 41.9375 45.304688 36.734375 36.734375 C 31.835938 28.164062 27.550781 19.898438 27.550781 18.367188 C 27.550781 17.144531 33.671875 12.550781 41.019531 8.265625 L 54.488281 0.917969 L 64.59375 18.671875 C 70.101562 28.777344 75.613281 36.734375 76.53125 36.734375 C 77.449219 36.734375 82.960938 28.777344 88.46875 18.671875 L 98.570312 0.917969 L 112.039062 8.265625 C 119.386719 12.550781 125.511719 17.144531 125.511719 18.367188 C 125.511719 19.898438 121.53125 28.164062 116.328125 36.734375 C 111.429688 45.304688 107.144531 52.960938 107.144531 53.570312 C 107.144531 54.488281 116.9375 55.101562 128.570312 55.101562 L 150 55.101562 L 150 91.835938 L 128.570312 91.835938 C 116.9375 91.835938 107.144531 92.449219 107.144531 93.367188 C 107.144531 93.980469 111.429688 101.632812 116.328125 110.203125 C 121.53125 118.777344 125.511719 127.039062 125.511719 128.570312 C 125.511719 129.796875 119.386719 134.386719 112.039062 138.671875 L 98.570312 146.019531 L 88.46875 128.265625 C 82.960938 118.164062 77.449219 110.203125 76.53125 110.203125 C 75.613281 110.203125 71.328125 116.019531 67.347656 123.367188 C 54.183594 147.246094 55.101562 146.632812 40.714844 138.367188 Z M 40.714844 138.367188 "
  />
</svg>
