<svg xmlns="http://www.w3.org/2000/svg" id="root" viewBox="0 0 490 490">
  <path
    d="M133 452c-24-13-43-27-43-32s14-32 30-60c17-28 30-53 30-55 0-3-31-5-70-5H10V180h70c39 0 70-2 70-5 0-2-13-27-30-55-16-28-30-55-30-60 0-4 20-19 44-33l44-24 33 58c18 33 36 59 39 59s21-26 39-59l33-58 44 24c24 14 44 29 44 33 0 5-13 32-30 60-16 28-30 53-30 55 0 3 32 5 70 5h70v120h-70c-38 0-70 2-70 5 0 2 14 27 30 55 17 28 30 55 30 60 0 4-20 19-44 33l-44 24-33-58c-18-33-36-59-39-59s-17 19-30 43c-43 78-40 76-87 49z"
  />
</svg>
