<svg id="root" xmlns="http://www.w3.org/2000/svg" width="1400" height="1400" viewBox="0 0 14000 14000">
  <path
    d="M9287 11653c-2-5-10-72-17-149-10-104-11-176-4-270 6-71 10-130 10-130-1-1-59-14-131-28-71-15-131-28-132-30-2-1-10-58-18-127-37-299-13-238-217-564-264-425-377-605-407-650-14-22-44-71-67-110l-42-70 26-22c15-13 55-44 90-69 34-26 62-51 62-56s-31-66-70-134c-38-69-70-128-70-131s-23-46-52-97c-97-170-158-290-158-311 1-11 7-31 15-45s14-31 15-38c0-8-37-53-82-101-46-47-121-129-168-181s-110-122-140-155c-31-33-96-105-145-160s-144-157-211-227c-110-115-129-140-187-250-36-68-72-131-79-141-12-16-25-17-193-7-300 17-563 32-695 39-71 3-125 10-126 16-1 13-34 83-171 365-105 215-113 229-194 316-46 50-151 164-234 254-82 90-193 211-245 267-73 80-376 343-441 384-5 3-12 88-16 190l-6 184-171 178-171 178-90 182c-49 100-106 209-126 242-150 248-170 288-243 483-42 111-81 212-87 226-10 21-25 27-125 46l-114 23v53c0 29 4 86 9 126 16 122 35 338 30 342-9 9-1121 28-1130 19-8-8-5-37 22-201 7-48 34-112 105-254 73-146 92-193 82-199-7-4-48-29-90-56-75-47-77-49-77-88 0-76 17-125 76-222 76-125 122-200 278-458 373-616 582-958 625-1025 26-41 71-115 100-165 29-49 55-92 57-94s62-12 134-22l130-17 52-49c29-26 84-78 123-114l71-66 12-99c6-54 13-99 14-99 1-1 54-20 117-41l115-39 48-95c72-143 378-772 388-797 7-18-4-36-62-109-79-99-80-81 6-194 58-77 133-180 265-360 62-85 145-198 183-250 39-52 81-110 94-127 28-38 46-40 168-18 44 8 91 14 104 15 26 0 26 26-1-336l-11-152-107-86c-60-47-112-86-117-86s-95 82-199 183c-105 100-266 254-358 342-93 88-224 214-291 280l-123 120 8 90c4 50 11 133 14 185l5 96-115 57c-63 31-116 57-119 57-4 0-285-568-285-576 0-2-29-63-65-135-36-73-62-136-58-139 4-4 35-22 68-40s70-39 82-47c19-13 33-12 106 1 131 25 122 28 242-87l107-102-10-44c-6-24-14-47-19-51-7-8-179-58-404-118l-97-26-6-60c-15-142-26-246-35-320-9-76-8-80 24-150 19-39 84-181 146-316 104-227 145-317 351-770 155-338 186-398 210-405 13-4 97-34 188-67s215-77 275-98c107-38 299-105 426-151 35-12 68-26 72-30 5-4 15-50 23-102 9-59 26-121 44-162 17-37 30-75 30-84 0-17-57-131-70-141-4-3-24-43-44-90-21-47-44-95-52-107-26-41-74-251-81-354-5-84-8-99-22-95-239 69-281 77-310 61-25-12-31-23-36-62-3-27-8-60-11-74-4-20 6-40 41-85 96-124 285-372 402-527 67-89 133-165 145-170 13-5 50-17 83-27s114-34 180-54 128-41 137-46c11-6 128-10 284-10 216 0 271 3 292 15 15 8 75 36 134 63l107 48 94 132 94 132-5 142c-3 94 0 157 7 183 12 38 65 230 97 345 35 125 36 115-8 147-22 15-63 46-91 68-29 22-84 65-124 94l-72 55-16 88-16 88 34 74 35 73 318 7c175 4 321 9 324 11s17 63 30 135c23 123 26 131 50 136 14 3 47 10 73 17l48 11 108-108 108-108 13-103 13-103 76-51c42-28 162-109 266-179l190-127 8-95c4-52 10-122 13-155l5-60 172-116 172-116 87 34 87 34 123-82c68-45 132-81 143-82 11 0 51 4 88 8 60 7 70 6 86-11 11-10 80-64 155-119s136-103 136-106-19-34-42-68c-34-51-39-65-27-71 7-5 56-40 108-79s97-71 100-71c3 1 23 26 44 56 35 50 41 54 55 41 31-26 177-142 286-227 60-47 141-111 180-142 39-32 76-58 81-58 11 0 155 157 154 168 0 7-99 87-203 167-85 64-307 241-349 277l-39 33 41 60c32 46 38 62 28 71-34 31-188 144-196 144-5 0-26-27-47-60-22-33-42-60-46-60-5 0-52 37-105 82-54 44-110 90-125 101-27 20-28 23-28 123v102l-33 28c-19 16-87 72-152 124s-127 103-137 113c-16 15-18 36-18 205v188l65 38c36 21 68 42 71 48 6 9-8 420-24 728l-7 125-122 55c-67 31-124 58-127 61-2 2-14 58-25 124s-29 172-40 235c-12 63-32 177-45 254-14 76-26 139-28 140-5 4-128 71-203 111-38 20-74 41-80 46-5 5-18 9-28 9-21 0-124-32-197-60-25-10-85-29-135-43-80-22-592-185-637-202-22-9-22-2-8 233 5 92 14 285 21 429l12 262-44 53c-24 29-60 72-81 95-44 49-45 61-18 146 10 34 41 135 69 224l49 162 58 56c32 30 63 54 68 52 79-30 241-76 246-70 18 19 441 874 438 884-2 5-44 28-93 50-108 48-110 50-128 102-14 42-14 43 26 107 22 36 47 79 57 95 38 66 79 133 114 189 21 32 75 132 120 222 44 90 89 179 98 197 32 61 87 192 174 412 48 121 88 222 90 224 4 4 151-118 178-148 24-26 43-26 130 3 76 24 74 22 104 116 77 244 247 775 297 925 18 55 108 330 200 610 91 281 170 521 176 535 7 20 29 32 102 59 50 19 98 39 105 44 11 8 12 39 6 142l-7 132 29 6c16 4 59 13 96 21s131 45 210 83 196 93 260 123l117 55 1 168v167h-879c-484 0-882-3-884-7zm-801-7749 51-18 6-125c6-113 11-139 47-241 22-63 55-155 72-205 30-87 34-93 128-186l97-95-4-60c-6-87-13-124-23-124-6 0-50 16-99 36l-89 35-7 59-7 59-150 131c-146 128-150 131-180 121-65-23-76-17-220 122-76 73-138 138-138 143 0 6 48 44 108 86 59 42 158 124 220 183 63 59 119 105 125 102 7-2 35-13 63-23z" />
</svg>