<svg id="root" xmlns="http://www.w3.org/2000/svg" width="700" height="700" viewBox="0 0 7000 7000">
  <path
    d="M1513 5983c-51-2-93-5-93-6 0-20 42-213 47-218 8-6 102-35 191-59 35-9 56-27 132-113 80-89 104-126 201-308l110-207-21-91c-11-50-20-100-20-111 0-16 173-425 187-439 2-3 39 10 81 27 43 18 81 32 85 32s7-45 7-100v-100l92-185 93-185-18-29-17-29 173-358c160-333 175-360 215-388 42-30 42-30 42-91v-61l-50-13c-60-15-58-12-141-198-35-79-66-143-69-143s-46 90-95 200c-50 110-97 202-105 205-8 2-47 11-87 19l-71 15-103-44c-56-25-103-45-105-45s-24 38-49 85l-47 85-41-32c-23-18-120-95-215-170-174-138-174-138-226-138-47 0-65-7-147-56-52-31-158-108-236-171-126-102-141-117-138-141 2-15 4-68 4-118l1-91 78-7 78-7 92 57 92 56 67-15 68-15 120 40c66 22 125 46 131 53 5 8 16 43 23 79s18 66 25 66c6 0 87 9 179 19 120 14 177 25 200 39 18 10 48 29 68 40l36 22 31-193c27-163 37-206 72-287 34-78 53-107 106-161 63-63 69-67 145-84 43-10 79-19 79-20s-14-33-31-70l-31-69 41-34c23-18 41-38 41-43s-16-31-35-57c-19-27-57-109-84-184-49-133-50-138-44-219 4-59-1-127-16-229-11-80-23-164-26-186l-6-42 143-57 143-57 135 17c74 9 149 19 167 22 24 4 54 29 128 109l96 104 16 101 16 101-67 67c-36 36-66 74-66 83 0 10 8 33 17 52 14 30 25 38 70 51 178 51 156 37 192 120l33 75h206l164 71c90 39 184 80 210 91 41 18 49 27 76 86l30 67 105 38c57 20 107 37 110 37s7-44 9-97l3-98 73-133c39-73 72-140 72-148s-20-42-45-76-45-65-45-68 41-54 90-112c85-101 93-107 132-110l41-3 30-85c17-47 40-92 51-100 40-29 177-112 180-108 2 1 26 47 53 101l50 98-53 172c-30 95-59 192-65 217-9 33-27 61-71 106l-59 61-6 168c-5 146-4 168 9 163 8-3 100-25 204-47 104-23 288-68 409-100l220-58 8 36c8 35 6 38-55 95-35 33-125 121-201 195l-138 136-14 74c-8 41-17 76-20 79s-90 6-193 6l-187 1-103-45c-87-37-105-42-112-30-6 8-10 19-10 23 0 5 80 47 178 94 97 47 254 129 347 181 94 52 215 119 270 150 87 48 311 185 700 431l110 69 3 55 3 56-218 111-218 111-177-12-178-12-187 47-188 47-91 82c-88 80-91 84-122 172-17 50-38 133-47 185s-43 177-76 278c-34 101-59 185-57 188 3 2 42 15 88 28 46 14 87 30 91 38 5 7 22 46 39 85 25 60 32 92 37 184l6 111 87 181c66 140 119 231 228 395l142 212h77l8 101c4 55 5 103 2 105-3 3-92 8-199 11-163 5-211 3-289-12-52-10-98-21-102-25s-12-61-18-127c-8-101-7-126 6-157l16-38-148-228-148-228-62-7-62-7-65-94-65-94 11-85c6-47 9-87 6-90-2-3-83 22-179 54-121 41-286 111-543 231-203 94-372 168-376 163-4-4-83-233-176-509l-169-501-41 46c-23 25-87 99-143 164l-101 117v93c0 80 3 98 27 143l26 50-99 152-99 152-65-6-65-6-14 38c-7 22-49 128-92 238l-79 199 36 64 36 64-31 119c-17 65-31 121-31 124 0 2-22 12-50 21l-49 16-57-60c-31-34-60-61-64-61-5 0-42 32-83 70l-75 70-168-2c-93-1-211-4-261-5z" />
</svg>