<svg id="root" xmlns="http://www.w3.org/2000/svg" width="700" height="700" viewBox="0 0 7000 7000">
  <path
    d="M2029 6288c-12-18-38-54-56-80l-34-47 35-38 35-38 48 47 49 48 79-83c44-45 102-105 128-133l47-50 85-327 85-327v-428l69-188c38-104 74-201 80-216 9-23 6-32-24-70-19-24-35-47-35-53 0-5 63-244 142-530l142-520 58-96c32-53 58-103 58-111s-9-41-20-74c-20-56-20-66-8-196l12-137-35-75c-19-41-36-75-39-75s-56 58-118 128c-63 71-124 139-136 152s-67 75-123 137l-102 114-7 68-6 69-71 55c-60 48-76 56-112 56-23 0-63-9-89-21-26-11-53-19-60-17-31 7-416 393-506 507-52 66-99 120-105 120-18 1-87-70-81-84 3-8 50-74 105-148 85-113 101-139 101-170s14-54 88-148l88-112-15-78-14-77 79-74c43-41 98-92 122-113l43-38 74 23 73 23 34-28c18-15 54-47 80-71 45-42 47-46 54-116 6-72 8-75 91-191 50-70 81-122 77-130-4-6-25-33-47-60l-39-47 79-96c131-160 121-138 88-199-17-32-25-58-20-66 4-8 40-62 79-121l71-107 133-57 132-56v-62c0-35 3-111 7-171l6-108 139-65c76-36 138-70 138-77 0-6-14-46-31-90l-31-80 23-133 24-133 97-53 98-52 124 17 125 17 72 70 72 71 13 83c12 80 11 88-17 200-16 64-29 122-29 129 0 8 22 10 83 5l82-7 103 61 102 62v286l28 6c15 3 68 11 117 17l90 11 68 66c38 37 86 88 107 113l39 46-19 52c-14 35-17 57-11 69 5 9 50 84 100 165s91 151 91 155-9 18-20 32-20 32-20 41 48 105 107 214c101 188 129 253 208 471l32 91-47 119-47 119-64 32c-35 18-68 33-74 33-5-1-32-37-59-82-68-113-79-168-64-326l11-122-29-38c-17-20-92-117-167-214l-138-177-52 23-52 23-51-80-52-80-10 49c-6 27-18 101-28 164-12 79-22 119-33 126-9 7-26 20-39 31l-24 19 27 142c15 78 31 142 36 142s36-9 70-21c33-12 62-19 65-17 2 3 46 128 98 279s97 281 101 291c5 12-6 23-44 45-28 15-51 33-51 39 0 7 54 162 121 345 67 184 131 362 142 396l21 63-24 25-25 26 24 67c13 37 70 193 128 347l104 280-27 74-27 74 64 201c69 218 188 573 209 621 11 26 9 46-10 138l-23 107h-46c-49 0-324-20-328-23-1-2 2-70 7-153l9-150-132-344-132-345-166-130-165-130-84-288c-47-158-88-293-91-299-5-8-50-2-151 20l-144 31-134-24c-74-13-136-23-137-21-3 3-223 696-223 703 0 1-46 39-102 84-57 45-108 87-115 93s-50 124-97 261c-69 204-93 291-131 476-25 124-45 229-45 232 0 4-132 7-294 7h-295l-22-32z" />
</svg>