<svg id="root" xmlns="http://www.w3.org/2000/svg" width="1400" height="1400" viewBox="0 0 14000 14000">
  <path
    d="M3820 10995c-10-12-10-18 1-32 20-28 111-113 119-113 4 0 49-40 98-90 50-49 96-90 101-90 6 0 20-9 30-19 18-18 18-19-5-30-36-16-31-49 11-67 19-8 35-18 35-23 0-4 11-13 25-19 20-9 24-17 20-34-5-18 4-33 36-66 23-23 47-42 52-42 6 0 28-19 49-41 27-29 37-47 32-58-5-9-10-45-12-81-3-58 0-72 28-124 17-32 30-60 27-62-7-8-123 89-189 158-45 47-72 69-83 65-22-9-18-30 10-55 13-12 33-38 44-60 11-21 27-44 36-52 9-7 23-27 32-44s24-37 34-44c11-7 19-20 19-28 0-9 19-32 41-52 85-75 109-100 109-111 0-6 3-11 8-11 8 0 63-53 115-110 18-20 48-46 67-57 19-12 45-33 58-47 12-14 28-26 34-26 15 0 112-98 121-122 3-9-2-26-14-39-10-12-19-28-19-35s-6-17-13-21-21-26-32-48-28-48-37-58c-10-10-18-26-18-36s-9-21-20-24c-15-4-20-14-20-36 0-20-7-34-19-40-10-6-29-32-41-58-13-27-38-64-56-83-43-46-101-127-119-167-9-18-20-33-25-33-6 0-10-7-10-14 0-8-11-27-25-42s-25-31-25-36c0-6-9-22-20-37-37-53-100-189-94-204 3-8 1-18-4-21-8-5-182 60-224 84-10 6-49 10-88 10-65 0-70 2-70 21 0 36 22 103 42 125 10 11 18 23 18 26 0 9-71 78-79 78-4 0-25-16-46-35-46-40-45-40-75 62-53 177-62 202-81 219-12 11-30 36-40 57-11 20-26 37-35 37-8 0-37 11-64 25s-56 25-64 25-21 6-28 13c-15 15-96 47-119 47-8 0-53 16-99 35-104 44-188 75-218 82-12 3-25 9-28 14s-15 9-28 9c-12 0-27 5-34 12-9 9-15 9-24 0-7-7-27-12-45-12-29 0-33 3-33 26 0 36-53 93-111 121-26 13-58 35-71 50-12 16-36 33-53 38-20 7-30 17-30 30 0 19-49 103-78 135-7 8-21 32-31 53-10 22-24 46-33 55-24 28-63 86-69 105-9 26-37 21-70-14l-29-30 2-192c1-106 2-219 3-252 1-90-10-235-19-235-10 0-34 62-32 83 1 9-7 33-18 51-12 18-22 46-23 62s-10 43-20 59c-11 18-18 50-18 82 0 28-4 54-9 57s-11 20-14 38c-24 132-44 180-72 172-11-4-24-10-30-16-6-5-10-104-11-251-1-211 1-250 17-301 11-33 19-78 19-100 0-23 7-51 15-62 8-12 12-24 9-27-7-7 20-87 51-155 14-29 25-69 25-88 0-36 49-153 77-186 10-11 11-18 4-23-24-14-10-43 31-65 24-12 56-33 72-47 17-14 40-29 53-34 28-11 29-36 3-64-20-21-20-30-14-154 6-112 10-138 28-164 60-88 74-153 68-319-2-47-2-47-33-41-19 3-57 32-102 74-39 38-75 69-80 69-14 0-97 82-112 110-8 14-43 56-79 93s-66 74-66 81-11 22-24 33-35 46-50 77c-14 30-35 60-46 66s-20 15-20 20-10 20-22 33c-13 13-28 32-34 43-10 15-14 17-25 6-11-10-11-18 0-45 7-17 19-58 26-90s18-63 23-70c13-17 42-111 42-136 0-12 9-29 20-38 11-10 20-23 20-31 0-29 103-257 121-268 5-3 19-26 30-51 12-26 39-64 60-85s39-45 39-52 14-23 31-35c17-13 37-38 45-56 7-18 20-35 29-39 8-3 19-14 23-25 8-23 59-61 119-91 24-11 43-25 43-29 0-5 15-13 32-16 55-12 66-32 72-131 3-49 8-113 11-142 6-43 4-52-8-52-9 0-19 4-22 10-3 5-25 14-48 20s-59 18-81 27c-37 16-39 16-52-2-8-10-14-24-14-29 0-14 56-46 80-46 10 0 20-6 23-13 2-6 27-20 54-30 42-15 52-24 60-50 7-24 17-34 44-42 20-5 44-18 53-27 10-10 26-18 37-18 31 0 26-63-6-84-14-9-25-23-25-30 0-8-11-21-25-30-30-20-32-55-9-136 8-30 19-98 24-150 16-179 26-212 88-277 24-27 38-33 71-33h41v-49c0-27 5-62 11-78 12-29 15-41 25-110l6-43-38-1c-116-2-127-14-120-124 7-117 36-311 50-333 3-5 6-33 7-63s5-58 9-64c12-16 24-91 48-300 4-38 18-88 29-111 12-23 19-50 17-62-3-11 4-47 15-79 12-33 21-67 21-76 0-31 35-92 87-154 29-33 53-66 53-71 0-6 13-20 30-32 16-12 30-28 30-36 0-7 9-19 20-26s20-19 20-26 11-17 25-22 25-14 25-20c0-17 107-123 118-116 6 3 13-3 17-13 3-11 15-23 26-26 10-4 31-22 45-41 25-33 57-44 68-25 4 5 38-22 77-60 49-48 81-72 103-75 17-3 55-10 84-16 37-8 59-8 75-1 12 6 36 16 54 23 51 19 163 172 163 223 0 7 37 33 83 56 45 24 97 54 116 67s44 24 55 24c12 0 31 7 42 15 12 8 24 11 28 8 6-7 87 26 97 40 4 5 15 14 26 20 11 7 37 25 59 40 66 47 206 137 214 137 4 0 13 14 20 30 7 17 18 30 24 30s28 15 48 33c20 17 63 48 94 67 32 19 74 49 93 66 20 17 57 43 82 58 25 14 55 36 65 47 10 12 37 30 59 41 22 12 54 32 70 45 17 13 66 52 110 86 88 69 155 132 155 147 0 6 6 10 13 10 15 0 42 58 51 110 8 44 23 69 34 54 4-6 15-14 25-17 11-4 21-16 24-27 3-10 10-20 17-22 17-5 226-224 226-238 0-15 67-80 83-80 6 0 58-45 116-100 139-132 157-147 181-155 11-3 29-19 41-36 11-16 34-36 51-45 36-19 51-30 80-61 11-12 41-31 67-42s58-31 72-44c13-14 41-32 62-41 35-14 41-14 70 0 18 9 34 18 36 20s-12 30-32 63c-21 32-37 63-37 68s-22 32-49 60-52 60-55 71c-4 11-29 43-56 71-28 29-50 56-50 62 0 5-4 9-9 9s-13 10-16 21c-4 12-21 36-39 54-17 18-44 50-61 71-16 21-42 51-56 66-35 36-47 113-20 127 14 8 25 5 45-12 14-13 26-27 26-33s18-30 39-53c22-24 47-59 57-79 9-21 32-52 50-70 19-18 34-40 34-48s6-17 14-20 20-19 26-35c7-16 22-34 32-40 11-6 26-26 34-45s19-34 24-34c6 0 10-5 10-11 0-13 56-80 77-92 8-5 20-4 28 3 20 17 35 4 35-31 0-33 35-109 50-109 6 0 10-5 10-11s11-24 25-41c14-16 25-35 25-42s13-22 29-34c30-22 100-151 105-194 1-12 5-30 8-38 11-26 20-73 28-145 21-187 60-226 60-61 0 40-4 76-9 82-5 5-11 42-14 83-6 72-6 73 16 66 12-4 31-9 42-12 26-6 45-64 45-138 0-53 24-125 42-125 8 0 7 44-8 204-4 45-2 57 8 54 7-3 15-18 19-34 7-34 39-94 51-94 4 0 15-15 24-32 9-18 21-36 26-39 6-4 15-17 22-30 26-53 133-25 158 41 9 25 10 24 31-20 37-77 112-133 132-100 3 5 15 10 25 10 11 0 22 10 26 23 3 12 15 30 25 40 13 12 19 32 19 61 0 36-7 52-34 85-19 23-41 57-47 76-7 19-16 35-21 35-19 0-42 68-43 126 0 43-5 65-17 77-9 10-19 26-23 36-3 11-12 22-20 25-12 4-15 25-15 94 0 55-6 106-16 136-16 48-12 78 4 35 30-76 33-80 50-77 11 2 16 12 15 28-6 70-17 110-44 161-16 31-29 59-29 62 0 11 50-7 66-24 9-10 23-19 30-19s18-9 24-20 26-27 45-35c19-7 35-18 35-23s14-15 30-22c17-7 30-16 30-19 0-4 16-15 35-24s35-21 35-27 16-18 35-26 35-18 35-22c0-5 33-23 73-41 39-19 86-44 102-56 17-12 52-32 78-43 27-12 62-33 79-47 16-14 35-25 42-25s27-11 46-25 42-25 52-25 18-4 18-10c0-5 23-19 50-31 28-12 54-27 58-33s35-24 69-41c35-16 63-33 63-38 0-4 43-28 95-52 52-25 95-49 95-54 0-4 18-13 40-20 22-6 40-16 40-21s10-12 23-16c12-4 25-11 28-15 3-5 25-19 50-32 31-16 46-31 53-52 29-99 62-140 120-147 23-2 30-8 30-28 1-24 53-100 68-100 4 0 15-15 24-32 18-37 72-87 92-88 7 0 23-5 35-12s30-13 40-15 34-11 55-21c57-28 165-29 227-1 28 13 55 23 60 23 18 1 75 31 75 39 0 4 11 12 25 17s28 18 32 27c3 10 19 32 35 49 19 20 26 34 19 38-6 4-11 11-11 16 0 4 53 62 118 128 120 124 222 253 222 282 0 9 23 61 51 116 28 54 62 126 76 159s31 67 39 76c8 8 14 25 14 37s9 26 20 32 20 19 20 30 9 39 19 62c11 24 25 63 32 88s16 50 20 55c3 6 14 42 24 80 9 39 22 79 29 90s16 34 19 50c17 86 28 128 42 154 8 17 15 37 15 46s9 35 20 57c11 23 20 56 20 73 0 18 8 47 17 65 9 19 20 50 24 69 6 32 28 100 50 156 7 19 10 34 26 123 6 36-14 68-54 83-23 9-30 37-14 54 9 10 14 41 27 155 7 64 19 80 91 121 54 31 80 60 87 95 3 11 9 32 15 47 6 16 11 43 11 61s9 59 20 91 20 68 20 79c0 21 35 135 51 168 5 10 9 29 9 43 0 13 9 40 20 60 14 25 20 54 20 96 0 59-1 62-50 113-45 48-50 57-50 99 0 25 5 49 10 52 6 3 10 17 10 29 0 25 65 76 96 76 10 0 25 6 33 14 9 7 45 28 81 47 36 18 76 41 90 52 14 10 40 25 58 32 17 8 32 18 32 23 0 6 16 13 35 16 19 4 35 11 35 17s13 15 29 20c16 6 32 17 35 25s14 14 24 14c24 0 121 110 122 138 0 12-96 62-119 62-16 0-365-171-372-182-17-26-21 31-20 260 1 201 4 250 16 269 9 13 21 23 28 23 18 0 84 85 107 138 19 44 12 69-26 91-20 12-43 20-52 19-14-3-16 7-13 71 2 53-1 76-10 82-11 6-14 89-17 398-4 348-3 394 12 416 9 13 16 32 16 42s10 34 21 53c19 30 21 45 17 130-3 52-7 102-9 110-3 9 5 16 21 18 42 6 50 20 50 86 0 49 4 65 20 79 11 9 20 29 20 45s7 44 17 62c9 18 17 45 19 58 1 14 11 44 22 66 11 23 27 60 37 83s24 44 31 47c8 3 14 15 14 28 0 18 41 92 61 108 3 3 14 22 24 44 10 21 54 74 97 118s78 84 78 89 22 32 50 61c27 29 50 58 50 64 0 7 17 26 38 43 20 17 46 40 57 51 12 11 26 20 33 20s12 6 12 13c0 8 22 38 50 68 49 53 59 80 40 109-8 13-63 15-397 15h-388l-46 31c-45 31-46 31-170 29-68 0-135 3-149 9-14 5-97 10-184 11-112 1-161 5-164 13-3 9-67 12-237 12-229 0-234 0-258-22-13-13-26-31-30-40-5-14-20-18-69-20-103-4-133 0-205 22-38 12-92 20-123 20-30-1-82 6-115 15s-80 18-105 21c-25 2-69 6-98 9-77 8-130-10-147-51-13-31-15-33-87-38-40-3-107-9-148-13l-75-8-20-42c-32-67-60-91-113-95-28-3-58 1-74 9-15 7-46 13-70 13s-74 9-113 20c-38 11-79 20-91 20-11 0-29 9-39 20-15 17-29 19-114 16-53-1-102-5-107-9-11-7 4-88 19-103 4-4 7-16 7-26s11-29 24-41 31-37 40-54c9-18 21-33 26-33 6 0 10-6 10-14s23-36 50-62c28-26 50-53 50-58 0-6 32-44 70-83 39-40 70-76 70-80 0-5 41-49 90-98 50-49 90-94 90-99s23-33 50-62l50-53v-237l-40-54c-22-29-42-61-45-72-4-10-15-18-25-18s-21-8-25-19c-7-22-91-111-105-111-5 0-60-51-122-113s-128-122-146-132c-17-11-35-27-38-37s-24-36-47-58c-23-21-56-57-72-80-17-23-94-108-173-189-181-187-186-196-179-323 5-90 4-98-13-98-30 0-50-11-50-27 0-8-11-28-24-44-25-29-56-141-56-200 0-34 16-100 32-136 17-35 4-92-46-192-25-51-46-101-46-111s-6-23-14-29c-8-7-27-42-42-79-16-37-34-71-41-77-7-5-19-26-27-45s-24-46-35-59c-12-13-21-30-21-38 0-7-4-13-10-13-5 0-24-28-42-61-46-86-55-101-65-108-6-3-27-37-49-76-40-73-68-104-95-105-9 0-26-9-39-20s-26-20-30-20-17-9-30-20-32-20-44-20c-30 0-95-24-164-61-59-30-60-31-87-13-26 17-28 17-44-2-17-22-89-50-99-39-3 3-1 15 6 25 26 43 6 133-43 188-17 20-20 37-19 110 1 111 9 138 52 176 56 49 64 80 40 151-11 33-23 65-28 70-14 18-20 159-9 225 6 36 12 111 13 168l3 103 40 42c39 41 40 44 42 117 1 41 4 83 7 93 8 26 27 15 38-21 5-18 12-32 17-32 16 0 39-65 39-111 0-47-4-61-41-146-22-49-24-140-5-193 13-38 62-70 105-70 25 0 80 32 139 82 18 15 38 28 45 28s38 23 70 50c32 28 62 50 66 50 5 0 25-16 45-35 49-45 89-48 111-6 8 16 24 32 35 36 11 3 20 13 20 21s10 14 23 14c28 0 46 14 76 57 12 18 28 33 35 33 17 0 52 50 60 85 5 26-1 37-39 79-32 35-45 58-45 78 0 35-34 67-110 104-30 14-67 38-82 52-14 15-31 32-37 37-6 6-37 37-68 70-71 74-112 107-125 99-10-7-52 33-61 59-4 9-15 20-24 24-25 9-105 97-129 141-18 35-127 152-142 152-4 0-25 14-46 30-22 17-45 30-52 30-18 0-35 25-29 42 7 16 94 68 115 68 7 0 36 11 64 24 52 25 94 63 115 103 14 27 15 123 1 123-5 0-10 11-10 25 0 30-26 45-80 45s-84 21-101 73c-7 23-19 46-26 50s-13 15-13 23c0 27-33 87-63 118-25 25-39 30-91 34-33 2-70 7-81 12s-40 12-65 15-79 10-120 16c-41 5-124 12-185 14-145 6-169 15-230 86-27 33-58 67-67 76-10 10-18 22-18 29 0 6-13 24-30 40-16 16-30 37-30 47s-8 32-17 50c-19 37-32 95-41 188-7 63-10 68-67 131-60 67-113 98-164 98-14 0-50 9-79 20s-61 20-72 20-37 9-57 20c-21 11-45 20-53 20-20 1-45 37-53 79-4 19-18 49-32 66-23 31-28 33-117 39-51 4-141 7-200 6-86-2-113 2-136 16-38 22-58 14-77-32-12-28-19-35-32-29-10 4-36 9-58 12-22 2-47 7-55 10s-50 7-93 8c-42 1-83 7-90 13-6 5-47 10-89 11-60 2-85-2-117-19-40-20-50-33-32-44 11-7 23-65 15-77-5-9-74 58-74 72 0 4-11 10-25 13-13 3-29 15-35 26s-15 20-21 20-25 10-41 22c-37 26-199 107-214 108-6 0-17-7-24-15zm6563-1971c10-20 15-45 12-55-4-10 3-38 13-62 20-44 20-45 0-61-13-12-18-25-14-40 3-12-1-31-8-42-18-27-27-74-33-177-4-78-1-96 23-160 17-47 39-83 60-102 29-26 34-37 35-82 1-29-3-58-8-65-12-15-22-68-29-153-3-33-10-70-16-81-8-18-5-30 16-66 42-71 65-164 61-241-3-56 0-70 15-85 28-26 32-122 7-187-11-27-23-83-28-124-5-43-15-81-24-90-13-13-15-11-21 18l-7 33-49-6c-45-6-99-33-140-70-10-9-21-16-25-16-15-1-113-100-113-115 0-8-9-19-20-25-13-7-20-21-20-40 0-16-4-31-8-34-5-3-8-90-6-194 4-186 14-248 44-267 5-3 10-17 10-30s14-40 30-58c17-19 30-39 30-44 0-6 9-18 20-28 30-27 26-89-10-160-16-32-30-67-30-76 0-20-36-49-60-49-8 1-33 9-55 20-60 29-111 26-143-8-43-46-62-75-62-94 0-10-9-26-20-35-11-10-20-26-20-36 0-21-35-93-50-102-5-3-10-15-10-26 0-10-7-27-16-36-33-38-64-95-64-118 0-20-5-25-25-25-14 0-29-8-35-20-6-11-20-20-31-20-24 0-80-29-92-47-4-7-21-13-37-13-18 0-33-7-39-19-6-10-26-22-45-25-19-4-37-14-40-22-5-12-10-13-19-6-17 14-72-4-193-63-51-25-101-45-113-45s-24-7-28-16c-3-9-25-24-48-34-35-15-63-18-159-15-127 4-151 12-205 69-19 20-41 36-48 36s-13 4-13 8c0 5-18 18-40 31-22 12-40 26-40 31 0 4-15 15-34 24-18 8-39 22-46 31-7 8-18 15-26 15-7 0-19 8-26 18s-26 27-43 38c-16 10-36 24-43 31s-20 13-27 13c-8 0-19 9-25 20s-29 29-50 40c-22 11-40 24-40 29s-28 23-61 40c-47 24-66 28-80 20-25-13-57 4-69 37-6 15-25 30-50 40-48 19-87 66-67 81 6 6 25 13 40 17s36 20 45 36c21 34 87 110 160 185 28 29 52 60 52 69 0 8 9 20 20 26s20 17 20 24 11 23 25 36 25 27 25 32c0 4 12 26 28 47 15 21 33 47 39 57 7 11 24 36 38 57s25 42 25 48c0 5 12 22 27 36 14 15 41 57 60 95 38 78 43 144 16 221-16 45-19 47-55 47-27 0-40-5-48-20-15-27-40-26-40 3 0 34 27 115 54 163 13 24 30 60 36 81 7 21 21 46 31 56 11 10 19 29 19 42s5 27 10 30c6 3 10 16 10 28 0 13 9 30 20 40 11 9 20 26 20 37s9 29 20 40 20 31 20 45c0 13 6 28 13 32 14 9 41 61 42 80 0 7 7 21 16 31 25 29 69 128 69 154 0 13 9 31 20 41 13 11 20 29 20 52 0 19 5 35 11 35s8 7 5 16c-4 10 5 35 19 60 14 23 25 56 25 73 0 16 7 34 14 38 8 5 21 26 28 48 11 33 20 42 53 53 22 7 43 20 48 28 4 7 19 14 32 14 15 0 36 12 52 30 17 19 36 30 53 30 19 0 29 6 33 20 3 12 24 28 49 39 24 10 56 33 70 50 15 17 31 31 36 31 10 0 68 92 85 135 4 10 9 20 10 22 4 3 76-22 83-30 11-11 44-8 44 3 0 6 22 10 50 10 39 0 52 4 60 20 6 11 17 20 25 20 9 0 23 9 32 20 10 11 27 20 40 20 12 0 25 5 29 11s34 25 68 40c33 16 84 42 111 58 28 16 65 32 82 35 17 4 34 14 37 22s12 14 19 14c20 0 160 62 172 76 6 6 21 18 33 27 13 8 55 45 93 83 65 63 120 102 145 103 6 1 18-15 27-35zm-4260-394c23 0 47-4 53-9 9-9 35-12 239-30 55-5 112-12 128-16l27-7v-114c0-64-4-115-10-119-15-9-12-86 5-115 7-14 11-37 8-52-3-17-1-28 6-28 15 0 15-107 0-116-7-4-10-29-7-65 2-33 1-59-3-59-11 0-99 86-99 96 0 5-22 27-50 49-27 22-50 45-50 51s-38 49-85 96c-47 48-85 91-85 97s-34 45-75 86-75 79-75 84-26 36-58 68c-57 56-82 91-82 112 0 15 121 18 147 4 12-7 42-13 66-13zm-505-624c13-29 61-42 93-25 14 7 73 13 149 14 69 1 149 5 177 10l53 8 70-69c38-37 70-74 70-81s12-23 26-36c14-12 39-41 55-64s62-74 101-113c79-78 70-54 98-255 5-38 12-89 16-113 5-33 2-47-11-62-22-25-28-25-57-1-56 47-171 138-209 166-23 17-57 45-75 63-18 17-35 32-38 32-10 0-81 52-89 65-4 8-46 32-92 55-47 22-85 44-85 50 0 5-18 14-40 20s-40 15-40 20-10 11-22 15c-27 7-97 40-221 101-49 24-96 44-105 44-10 0-25 9-35 20-24 29-72 26-93-5-19-29-44-33-44-6 0 10-9 21-20 24-15 4-20 14-20 36v31h148c160 0 172 4 172 52 0 24 4 28 28 28 21 0 32-7 40-24zm-2076-229c-20-42-40-76-44-77-16-1-7 67 14 107 18 34 48 56 65 48 2-1-14-36-35-78zm1734-3c62-34 128-77 132-86 2-5 8-8 14-8 19 0 116-91 128-120 7-17 18-30 25-30 14 0 27-38 19-52-3-4-11-8-17-8-7 0-25-7-41-15-29-15-30-15-60 22-17 20-41 48-53 62-13 13-23 29-23 35s-12 22-26 35-31 39-39 58c-16 37-40 51-63 36-20-12-88 11-84 29 6 28 25 68 32 68 4 0 29-12 56-26zm-1118-192c2-17 7-32 12-32s21-39 36-87c16-49 34-95 41-104 7-8 13-22 13-30 0-9 7-24 15-35 8-10 15-27 15-36 0-10 9-32 20-50s20-42 20-53 7-31 16-44 20-37 24-55c13-50 73-200 83-207 12-9 39-79 39-101-1-10 3-20 9-23 5-4 9-16 9-27 0-12 15-44 33-72 17-28 32-55 32-61 0-5 9-11 20-13s25-9 30-16c13-16 70-46 88-46 8 0 24-9 37-20s32-20 44-20 36-9 54-20 39-20 46-20c8 0 16-12 19-27 14-72 27-106 46-120 22-15 39-47 82-155 12-32 26-58 31-58 4 0 19-24 32-53 14-29 37-63 51-75s25-28 25-36 7-16 15-20c34-13 6-166-35-191-5-3-22 7-38 23-38 41-103 72-152 72-37 0-47-6-95-55-30-30-59-55-66-55-18 0-167-150-173-175-3-12-17-30-31-39s-25-21-25-27-12-23-27-38c-43-42-71-79-78-100-6-18-7-18-44-1-20 11-43 26-51 34-7 9-23 16-36 16s-24 5-24 10c0 6-24 22-54 36s-57 32-60 40-18 14-34 14-44 11-63 25-47 31-64 39c-16 8-43 28-59 45-17 17-40 31-53 31s-23 4-23 9-20 21-44 35c-32 19-43 31-40 44 3 9-9 48-25 86-17 37-31 81-31 97 0 15-8 36-19 46-10 10-22 28-25 40-6 18-16 22-58 25-65 4-61-6-94 246-3 23-10 42-15 42-14 0-10 54 6 77 12 17 43 128 62 223 6 31-55 166-89 197-13 12-40 25-61 28-43 8-59 28-78 95-7 25-16 49-21 55-4 5-8 41-8 80 0 58 3 74 20 88 11 9 20 25 20 36 0 17 26 38 99 78 14 8 31 23 38 33 11 16 26 20 67 20 45 0 56 4 82 31 16 17 45 39 64 49s52 36 72 59c23 26 45 41 60 41 33 0 86 35 106 70 9 16 20 30 24 30 3 0 27 21 52 46 53 53 79 55 84 6zm-181-2237c29-14 53-30 53-35 0-6 6-10 13-10s26-18 43-40c16-22 37-42 46-45 10-4 36-24 58-45s56-44 75-50c39-13 42-27 20-70-17-33-39-37-81-15-16 8-37 15-46 15s-20 5-23 10c-3 6-30 10-60 10-48 0-56 3-83 34-45 52-106 266-75 266 3 0 30-11 60-25zm5378-283c-5-14-7-14-15-2-5 9-4 20 3 28 14 17 22 0 12-26zm-45-51c0-5-7-11-15-15-8-3-15-12-15-19 0-8-13-31-30-52-16-20-32-45-35-56-8-25-42-25-50 0-3 11-17 27-31 35-20 14-22 20-14 36 6 11 20 20 30 20 11 0 20 5 20 11s7 9 15 5c9-3 34 5 58 19 44 25 67 31 67 16z" />
</svg>