<svg id="root" xmlns="http://www.w3.org/2000/svg" width="1400" height="1400" viewBox="0 0 14000 14000">
  <path
    d="M4161 12168c-13-48-4-120 22-175 56-119 168-234 450-463a6837 6837 0 0 0 362-314c64-58 83-145 73-328-4-66-5-161-2-210s2-142-2-205c-14-270-5-383 40-476 36-72 110-131 199-157 33-11 35-13 31-38-10-52-28-106-87-258-80-202-90-244-86-346 3-72 7-89 31-139 17-34 54-85 94-128a958 958 0 0 0 231-378c44-134 65-254 96-573 22-218 45-356 73-439 32-97 41-164 36-283-3-78-10-125-23-168-74-232-265-451-600-689-49-35-123-91-164-125-92-76-219-160-425-281-251-146-343-211-457-320-187-180-279-396-242-570 34-161 132-282 433-533 271-227 328-289 403-434 102-198 242-338 485-486 43-26 164-92 269-147 221-115 366-198 371-212 3-9-615-1176-755-1424-146-261-165-303-144-331 8-11 17-13 42-8 25 4 38 15 67 54 66 91 113 140 225 236 237 203 346 326 398 447l72 153c30 61 85 186 124 277 183 435 311 611 507 697 53 24 160 48 210 48 45 0 115-37 154-82 84-95 71-216-54-525-93-229-107-284-116-436-5-103-14-163-38-266-70-300-75-334-76-436-1-83 2-103 17-132 22-43 63-65 122-65 42 0 49-3 89-38 52-45 142-91 220-112 78-22 254-22 347 0 188 44 396 146 528 260l38 33-23 55c-51 119-75 246-112 568-31 284-52 398-95 530a855 855 0 0 1-157 294l-46 53 16 45a426 426 0 0 0 321 289c61 17 101 19 389 25 356 8 403 13 511 64 80 37 137 92 204 193 107 163 228 292 787 838 197 193 312 317 391 422 29 38 32 45 31 98 0 117-35 246-93 344-91 152-238 284-522 465a5372 5372 0 0 0-394 266c-40 32-153 113-252 182a3012 3012 0 0 0-395 304 929 929 0 0 0-268 428c-21 85-21 110 0 172 39 114 101 199 296 411 144 156 210 244 252 333 41 88 63 193 56 270-10 108-8 106-73 127-224 72-274 263-175 675l46 204 24 113-39 37c-183 215-172 461 101 508l35 6-2 514-1 514 22 69a771 771 0 0 0 230 330c34 31 139 118 233 193 94 76 204 170 244 209 40 40 93 87 118 106 69 52 106 115 98 165-5 30-56 75-108 95a583 583 0 0 1-364 1c-49-17-54-17-79-4-38 20-98 19-144-2-54-24-109-76-190-177-125-156-159-185-215-185-40 0-74 41-108 128-23 61-26 65-72 88-103 52-179 51-242-4-87-77-127-211-174-580-28-222-44-313-63-376-7-21-15-74-17-118-7-104-21-171-87-399-66-233-81-308-81-415 0-131 31-221 106-306 31-35 33-41 25-61a3657 3657 0 0 1-272-925l-55-295c-30-152-31-162-48-355-30-341-74-479-193-599-88-89-149-110-267-94-162 23-278 137-352 345-38 107-55 172-107 431-47 234-73 333-112 426-17 41-25 74-25 107 0 53-24 162-51 231-10 26-57 126-103 222-112 232-139 314-140 415-1 71 2 83 27 134 16 33 44 71 67 92l39 36-70 335c-154 742-196 959-239 1235l-17 112 22 48c31 68 27 157-9 232-52 106-166 186-265 187-94 1-157-52-207-178-12-32-35-71-50-87-54-56-99-33-195 104-169 238-220 277-324 246-60-18-176-11-328 18-62 12-143 22-182 22-69 0-70 0-77-24zm3997-6126c159-24 295-48 303-54 12-9 707-644 752-686l20-19-370-391-371-390-158 3-158 2-53 152-53 151-24 263-24 263-102 170-102 169 7 205c6 203 6 205 24 205 11 0 149-19 309-43zm-2144-19-246-798-230-744-107-2-107-3-386 412c-212 227-386 415-386 418 0 14 705 672 722 675 54 10 699 93 725 94l31 1z"
  />
</svg>
