<svg id="root" xmlns="http://www.w3.org/2000/svg" width="700" height="700" viewBox="0 0 7000 7000">
  <path
    d="M2247 6058c-43-9-50-15-63-48-15-37-16-37-52-29-31 7-67-1-217-47-152-47-192-63-257-107-87-57-108-94-108-182 1-48 2-51 49-83l49-33 134 7 133 6 60-52c33-29 64-56 68-59 4-4-1-29-13-55-11-26-20-54-20-62s33-58 73-111l72-98 64-237 64-238h39c24 0 38-5 38-12s-11-60-23-118l-23-105 27-135c19-94 40-161 67-221l39-85 93-12c51-6 94-13 95-14 76-106 126-170 179-231 36-41 66-80 66-86s-26-50-57-97c-51-76-59-84-82-80-14 3-62 8-106 12-72 6-83 9-115 39-29 27-52 36-137 55l-102 23-115-72c-114-71-115-72-109-104 3-18 7-34 9-36 4-4-74-100-132-163l-34-37-79 45c-50 28-85 43-93 38-7-4-107-78-223-164s-261-194-324-240l-113-83 133-49 134-49 75 11c94 15 214 64 319 131 76 48 84 51 126 45l44-7 12 42c14 46 14 46 82 52 47 5 48 4 67-34 32-61 67-61 289 1 102 28 197 60 212 71 33 23 43 23 100 4 29-10 51-26 62-44 9-15 45-59 81-98l65-70-24-109c-14-60-25-111-25-114s-22-13-49-23c-59-21-94-71-134-187-57-168-38-322 51-428 25-30 52-56 61-59s51-19 94-35l77-29v-65c0-63 0-64-27-64-16 0-45-3-66-6-34-6-38-10-43-46-8-46-20-54-96-63-40-5-59-12-62-24-3-9-19-86-37-172l-33-156-65-7c-37-3-83-6-103-6-34 0-38-3-43-33-14-82-18-77 77-114l86-34 7-85c7-83 8-85 39-98 17-7 40-10 51-6 68 24 70 23 100-39 27-57 30-60 109-95l81-36h156c131 0 165 3 217 21 56 19 69 29 121 92 39 49 68 97 89 152 31 82 38 90 85 100l27 5v185c0 102-3 185-7 185-5 0-21 12-36 25-27 24-28 27-17 61l12 36 53-6c42-5 64-1 101 14 39 17 49 18 63 7 9-7 39-33 67-58 88-77 241-110 345-74 72 25 162 75 202 114 56 52 112 139 143 218 22 58 25 77 19 133-4 41-15 80-30 106l-24 41 61 89c33 49 68 99 77 110 10 12 30 75 47 139l29 117 47-6 46-6 11 52c30 152 32 178 20 265-7 54-22 112-40 151l-28 62h-140l-7 70-7 70-128 112c-71 61-129 114-129 117 0 4 6 16 14 27s53 86 100 167c76 132 88 160 122 284 20 76 43 145 51 154s37 20 65 23c49 7 52 5 99-33l48-41h113c189 1 417 18 531 40 97 19 114 25 166 65 49 37 60 52 70 90l11 45h127l55 58 55 58 7 114c7 105 10 117 33 142l26 27-13 168c-17 228-44 331-102 390-32 32-59 49-104 63-59 18-65 18-115 2-48-16-54-21-75-69-18-40-25-79-30-170-6-117-7-119-58-220-28-57-54-103-57-103s-27 16-52 35l-46 35-205-94-204-94-157-12-157-12-22 26c-11 14-47 37-79 51-77 34-149 33-245-1-91-34-134-83-175-201l-28-80 35-39c56-61 53-69-74-179-77-68-97-92-131-157-21-43-45-78-53-78-7 0-58 14-112 31l-99 30-53-21c-45-19-55-20-72-9-11 8-159 129-329 269-297 245-310 256-310 290-1 19-17 80-36 135-31 86-41 104-74 127-37 27-39 30-46 104l-7 76 35 37 36 36-44 207c-35 161-59 243-109 375-77 204-109 259-168 285-23 10-43 20-45 22-1 1 2 30 7 63 13 81-8 134-73 181-48 34-62 36-140 20z" />
</svg>