<svg id="root" xmlns="http://www.w3.org/2000/svg" width="700" height="700" viewBox="0 0 7000 7000">
  <path
    d="m4214 6360-32-5-34-30c-19-16-63-56-98-88l-62-58-12-52-11-52-41-3-41-3-29-30-29-30-2-142-1-142-11-115-11-115v-312l11-157 11-158-36-54c-20-29-36-57-36-61 0-5 16-21 36-38l35-30-10-27c-5-14-48-77-94-140-46-62-103-147-126-188s-54-90-69-107l-27-33-22 6-21 6-7 46c-3 26-17 90-31 142l-25 95-51 120c-28 66-73 171-99 233l-49 113-56 187-56 187-3 55c-5 100-46 625-51 645l-4 20-46 50c-26 28-77 82-114 121l-68 72-49 16-50 17-32-18-32-18-6-24-6-24 6-98 6-99 72-104 72-105-6-33c-3-18-20-98-36-178-59-276-92-435-110-530l-19-95-12-495-13-495 32-123 32-124 104-215 105-215-51-60-52-59-28-14-28-15-73-1c-40 0-111-4-158-7l-85-7-48-33-49-32-73 13-73 14-47-31-46-31 4-95 3-95 47-118 47-119v-65l143-109c78-59 157-119 174-133l33-26 1-45c0-25 4-53 7-63l7-18 70-60c39-34 126-99 195-145 69-47 163-111 210-145 47-33 112-79 145-102l60-42 29-5 30-5 36-63 36-62 34-115 33-115 54-31 54-31 14 6 15 5-3-10-2-10 120-65 120-64 65 6 65 6 22 21 23 20 24-12 24-13 21 11 21 12 5 22c3 12 9 108 13 214l8 191 62 93 61 93-44 25c-25 13-45 27-45 31 0 3 13 19 30 35l30 28 57-16c32-9 83-19 113-22l55-6 59 60 58 59 70 183 71 184 24 234 24 235-68 68-67 68h35l41 39 40 39-4 36-4 36 6 1c3 0 19 2 35 4l30 3 78 42 78 42 107 28c59 16 161 43 227 60 66 18 136 37 156 42l35 9 42 34 42 33-46 41-46 41 12 47 12 48-11 43-12 42h-9c-25 0-158-23-167-28-5-4-19-21-31-39l-23-32-117-6c-64-3-180-5-256-5l-140 2-43-12-43-12-77 12c-43 7-96 15-117 19l-39 6-3 18-2 17 10-6 10-6 29 28 29 28v74l-40 16-40 16v116l36 84 36 85-2 189-1 190-14 25-14 26-11 137-11 138 17 25 16 25-6 34-7 34-18 23-18 24-31 90c-17 50-53 156-81 236l-49 146-2 139-1 139 29 121 30 121 7 74 7 74 11 20c5 11 32 46 59 77l50 58 19 50c10 28 19 54 19 59v9l-72 24-73 24-31-6z" />
</svg>