<svg id="root" xmlns="http://www.w3.org/2000/svg" width="700" height="700" viewBox="0 0 7000 7000">
  <path
    d="M4633 5870c-113-54-111-51-94-138 8-41 5-51-74-205l-82-162-58-249c-39-173-63-306-79-440l-22-191-48-75c-27-41-54-84-62-95-15-23-35-46-240-260-84-88-171-184-194-213l-43-53-61 6c-84 8-344 25-383 25-30 0-41 11-148 155-64 86-118 161-121 169-5 12 78 121 174 230 31 35 34 43 28 83-6 42-4 45 51 106 31 34 60 63 63 65 4 1 27-16 51-38s48-40 54-40c5 1 30 21 54 45l45 44-42 50c-23 27-42 52-42 54 0 3 15 22 34 43l33 37 48-39 48-39 45 50 44 50-46 41c-25 23-46 46-46 51 0 4 56 69 125 143l125 135-52 48c-28 26-55 47-59 47-5 0-63-61-130-135s-124-135-128-135-25 13-47 30c-21 16-42 30-45 30-4 0-23-21-44-46l-38-46 36-36c39-40 39-34-11-97l-23-29-44 44c-28 28-48 40-54 35-5-6-25-30-45-53l-36-44 36-43c41-50 41-49-34-130l-54-58-66 27-67 27-105-110c-58-61-109-111-114-111s-46 34-91 75c-108 98-118 129-109 331l6 139-43 62c-24 34-57 77-72 97-21 25-30 50-34 91-6 54-8 58-59 97-59 44-61 52-43 137 10 48 9 52-19 88-42 54-48 106-17 151 28 41 35 132 13 149-7 6-44 18-82 28-64 17-83 18-265 6-108-6-226-15-262-18l-67-6-6-38c-5-32 1-51 43-131l50-93-15-72-15-73 74-137c41-76 110-191 154-256l81-118-25-45-25-45 42-119 42-119 164-141c173-149 181-158 237-259l35-64-39-52c-33-44-39-59-39-101 0-45-4-54-43-92-23-23-46-42-50-42s-7 28-8 63c0 34-3 69-7 78-4 8-45 51-92 95-251 233-242 226-255 212-7-7-53-64-103-126l-91-113 63-57c34-31 104-96 156-143s109-99 127-115l32-29-17-109-17-109-75-21-75-21-3-47c-3-40-9-52-40-79-20-17-70-63-109-100-40-38-77-69-82-69s-43 23-85 52l-76 52-85-84c-47-47-85-87-85-90 0-4 179-220 297-358l46-54 59 59 60 58-5 102-5 103 78 70c43 38 80 70 83 70s8-53 12-117c8-142 17-174 108-376 56-126 78-164 107-187 19-15 82-87 140-158 77-96 112-132 132-136 16-3 40-9 55-12 16-4 50-30 76-59 43-47 49-60 59-121 6-38 15-74 20-81 5-6 60-48 121-91l112-80 196-7 195-7 24-60c19-49 35-68 83-106 113-89 103-72 73-125-15-26-31-68-34-94-7-44-9-48-43-56-31-7-39-15-54-53-16-43-18-44-62-44-32 0-44-4-40-12 3-7 26-68 53-135l48-122 69-28 70-29-2-81-2-81 37-22 37-23 58 61c35 37 64 59 73 56 8-3 16-27 20-55 6-42 10-49 29-49 12 0 34 11 49 25 33 30 42 31 80 4l30-22 39 44c21 24 55 65 76 91 30 38 44 47 69 48h32l7 85 7 85h64c59 0 67 3 103 35 21 19 64 44 94 54 64 22 97 39 97 49 0 4-15 23-33 43-17 20-41 46-51 58l-20 22 52 52c50 50 52 56 61 125 8 63 6 82-11 135-12 34-23 64-25 66-6 7-135-123-229-231-71-81-89-96-112-95-31 2-40 17-41 65-1 18-12 60-26 93l-24 60 36 21 35 21-6 62c-8 82 4 92 121 109 77 11 98 18 168 62 63 39 84 58 100 91 17 36 35 50 128 104 59 34 121 78 138 98 18 20 62 68 99 106 37 39 109 121 159 184 88 109 98 118 197 175 96 55 154 98 411 306 46 37 76 68 69 71-6 3-59 11-117 17-146 15-144 14-386 242l-101 95 55 63c54 61 56 62 106 62 48 0 55 3 83 37l31 37 119-42c330-115 439-152 446-152 4 0-10 28-32 63-21 34-53 85-70 114-32 53-67 85-156 141-43 27-60 32-113 32-51 0-68-4-96-25-41-32-79-26-104 16-11 18-56 48-136 89l-120 62-140-24-139-23-23-80-22-80 40-35 40-35-26-40c-15-22-38-52-51-66-24-25-25-25-99-15-75 11-77 12-189 101-63 50-117 99-120 110-13 46-2 81 64 207 58 108 72 144 76 193 5 50 16 77 66 162 40 67 77 116 108 142 47 40 48 42 55 113s8 73 66 133l58 60 70 325c39 179 71 329 71 333 0 5 33 41 74 81l75 71-11 52c-7 29-10 54-7 56 72 57 269 221 269 224 0 2-10 26-21 53-19 43-26 50-58 56-20 3-67 12-104 20-41 9-126 14-215 13h-147l-102-49zM2650 3668c47-67 107-153 133-191 53-76 52-87-12-87-18 0-56-8-84-17-46-16-52-23-74-72-46-104-14-212 96-314 52-49 93-65 186-74 60-6 105-31 105-59 0-22-161-504-169-504-4 0-74 35-156 78l-149 79-72 115c-70 111-74 122-124 304-49 181-53 190-90 224l-40 35 18 157c9 87 22 162 27 167 6 6 53 27 105 48 104 42 94 30 114 145 5 29 15 41 49 62 23 14 44 25 47 26 3 0 43-55 90-122z" />
</svg>