<svg id="root" xmlns="http://www.w3.org/2000/svg" width="700" height="700" viewBox="0 0 7000 7000">
  <path
    d="m2007 6337-48-32 6-100c6-91 10-107 46-173l39-74v-141c0-78 4-147 8-153s17-16 29-23c20-10 23-20 23-67 0-43 4-60 20-72 19-17 19-19-5-222-14-113-25-210-25-217s33-36 74-65c72-51 74-54 80-103 3-27 6-71 6-97 0-32 17-89 55-187 54-141 55-142 180-294l126-152-6-105c-3-58-9-131-12-163l-6-58-102-74c-102-74-103-75-166-75l-64-1-69-75-69-75 6-49 6-50-134-101-134-101 21-51c11-29 22-59 25-67 5-15 123-100 139-100 5 0 47 38 94 85 46 46 85 83 87 81 1-1 7-49 13-107 6-57 20-162 31-234 18-114 25-137 57-185l36-55-16-217-17-216 68-179c57-153 72-205 101-365l34-186 30-10c17-6 105-39 196-75l165-64 73-118c54-87 76-132 84-174 8-46 17-62 50-92 39-36 41-39 69-178 30-150 31-151 118-247l52-56 102 4 102 4 97 70 97 69 30 81 30 81-7 184-7 183-32 10c-29 8-33 13-33 43 0 27 9 42 46 76l45 43-11 47c-10 39-16 47-35 47-39 0-18 37 50 88 43 32 65 56 69 74 3 15 26 54 51 85l45 58v318l55 92c47 79 55 100 55 141 0 73-8 92-41 99l-29 7v186l49 36c53 39 61 60 61 169v58l75 79 75 79v63c0 63 0 64 33 76 18 6 41 25 50 42 18 30 19 30 103 30 64 0 94 5 122 19 51 26 82 71 82 118 0 35-4 40-50 66-45 25-49 31-44 55 4 15 13 34 20 43 18 20 18 34 0 48-8 6-17 36-21 66l-6 55-97 29c-55 17-135 33-185 37l-87 7-46 70-47 71 83 473c45 261 81 475 79 477s-42-6-88-18c-84-21-85-22-134-84-55-70-62-69-73 7-6 39-4 47 17 64 133 107 819 736 1017 931 217 215 260 262 298 330 37 66 44 87 44 132 0 30-3 54-6 54-4 0-43-20-88-44-61-34-140-97-321-258-132-117-341-303-465-412-124-110-258-228-298-264s-130-115-200-177l-127-112-5 176c-5 164-7 180-32 231l-26 55 5 212 6 212 73 71 73 71 142 32 142 32 30 63 30 64-42 41-41 42-467 6c-258 4-471 4-475 2-5-2-8-28-8-58 0-41 7-66 28-102 15-26 38-74 51-105 22-55 23-65 16-225-5-148-12-192-51-365-24-108-44-204-44-213s31-60 69-113c51-71 73-113 85-159 15-59 15-63-5-109-22-53-33-64-65-64-18 0-24 9-33 48-21 85-41 120-73 128-23 5-35 1-51-14-19-19-20-36-25-266l-5-245-59-36c-33-19-63-35-67-35s-29 30-56 66c-41 56-66 113-162 372-62 169-117 309-122 312-4 3-25 16-45 30l-37 25 6 59c4 42 13 65 31 85 40 43 29 126-22 173-11 9-37 18-58 20l-39 3-68 169-69 169v162c0 162 0 163 25 179 24 16 25 20 25 126v110l-207-1h-208l-48-32zm736-2833c5-50 2-63-24-112-16-30-29-69-29-85 0-21 29-78 96-185 105-168 164-303 184-423 11-61 10-84-6-159l-17-87-59-33c-33-17-60-30-62-29-1 2-8 60-15 129l-12 125-44 45c-43 45-43 46-50 135-6 75-15 109-55 206-29 70-68 144-100 188-28 39-50 76-48 82 5 14 221 259 229 259 3 0 9-25 12-56z" />
</svg>