<svg id="root" xmlns="http://www.w3.org/2000/svg" width="700" height="700" viewBox="0 0 7000 7000">
  <path
    d="M2230 6041c-187-6-209-8-247-29l-42-22 20-48c12-26 37-82 55-126 19-43 57-108 86-143l51-65-24-95c-16-65-30-100-44-110-77-55-656-367-780-420-82-35-167-71-187-80-21-9-38-20-38-26 0-5 9-41 20-79 18-58 32-81 102-161 45-50 106-121 137-157 66-76 286-313 496-533 157-165 237-236 521-458 148-117 197-163 376-358 175-189 211-233 234-287 24-57 31-65 63-73 128-33 118-28 125-71 3-22 9-79 12-127l7-88-59-72c-33-39-62-72-65-72-3-1-30 53-59 120-46 103-59 125-91 145s-39 31-44 68c-6 36-12 46-34 55-225 88-240 92-388 98-122 5-143 8-143 22 0 9 11 57 24 106 24 97 19 93 96 84l35-4 17 85c9 47 15 87 13 88-8 9-331 60-336 54-6-6-29-136-29-160 0-5 20-13 45-16 53-8 53-6 25-136-13-58-27-100-38-108-9-7-53-41-97-75l-80-63-39-160c-21-87-41-164-43-170s11-29 30-52l34-41-33-138c-19-76-36-158-40-183-5-43-4-46 26-63 17-11 29-24 27-30-2-7-15-60-27-120l-23-107-36 7c-79 15-83 13-97-47-7-30-13-58-14-62 0-4 25-12 55-19 31-7 57-15 59-18s-1-37-8-76c-13-79-16-81-95-67-29 5-53 6-56 2-2-4-7-32-11-62l-6-55 48-7c88-13 86-10 78-75l-6-58 38-7c22-3 49-9 60-12 19-5 22 0 28 33 14 77 11 75 77 67l59-7v35c0 20 3 49 6 65 6 30 6 30-48 37l-55 7 15 76 15 75 46-7c88-14 84-16 98 49 8 32 11 61 9 64-3 3-29 9-57 13-28 5-54 11-57 13-3 3 6 58 19 123l24 116 35 12 34 12 35 156c32 145 37 157 60 165 19 7 37 31 66 91l39 81h164l63-93c100-148 129-187 211-283l77-91 11-87c8-66 20-105 48-162l36-74 76-1c41-1 128-4 192-8l116-6-55-128c-50-114-55-132-48-173 6-44 8-47 65-72l59-27 1-91c0-76-4-101-25-147l-24-55 37-93c35-90 39-95 97-134 59-39 62-40 191-50 132-10 132-10 210 18 73 27 82 33 125 90 26 34 54 82 62 107 9 25 27 76 42 114 17 46 25 85 24 116-2 25 0 51 4 57s37 29 74 51c38 22 103 73 146 112l77 72-49 56c-44 52-111 167-111 192 0 6 54 10 148 11h147l100 116c81 94 118 128 202 184 86 58 118 87 199 184 70 85 102 115 119 115s46 30 120 126l97 126 34 219 34 219-26 51-26 51 31 58c29 54 31 65 31 158v101l-57 57c-37 37-60 71-68 98-8 29-21 45-42 56l-30 15 23 95c27 108 64 303 64 335 0 14-10 24-30 32-29 11-32 9-74-40-38-44-48-50-63-41-14 9-19 27-21 82-3 69-3 71-32 77-16 4-33 4-38 1-12-7-172-248-220-331-23-38-68-142-100-230-57-153-60-166-67-282l-8-122 108-51c59-27 113-50 120-50s35 29 62 65l50 65 26-28c15-16 27-32 27-38 0-5-20-22-45-37-44-28-45-29-90-172-39-125-45-154-45-232v-89l-106-95c-87-76-354-269-374-269-3 0-21 59-40 131l-35 131-51 37-51 36-7 110c-3 61-6 155-6 210v100l48 31 48 31 23 197c21 183 27 209 78 359 30 89 88 261 129 381 64 189 83 233 140 325 37 58 85 131 107 161 23 30 66 109 95 175 30 66 130 291 223 500l170 379-22 54-22 53 47 48 48 48 38 169 38 169-52 27-51 27-261 1h-261l-36-32-37-33 35-110 36-110-38-77c-20-43-41-78-45-78s-77 32-160 70c-235 109-263 113-640 95-167-8-449-24-628-36-307-20-334-23-484-60-88-21-163-39-168-39-4 0-5 80-1 179l6 178-45 27c-34 20-56 26-94 24-27-1-141-4-254-7z" />
</svg>