<svg id="root" xmlns="http://www.w3.org/2000/svg" width="700" height="700" viewBox="0 0 7000 7000">
  <path
    d="M2784 6379c-103-15-127-30-146-88-24-75-14-98 64-146 55-34 74-53 121-125 86-133 87-135 87-257v-108l-96-280c-52-154-102-311-110-348-17-84-19-384-3-421 9-19 8-39-5-90-9-36-16-98-16-138 0-52-9-102-30-172-45-149-70-359-63-531 4-127 9-154 49-290 66-228 109-356 149-441l35-77-1-228c-1-210-3-228-18-220-37 20-70 65-87 119-14 44-29 66-65 97-26 22-50 52-54 66-9 38-86 151-132 193-29 27-47 36-74 36-55 0-89 48-53 75 15 10 15 16-2 62-27 76-62 93-174 86l-86-6-34 47c-33 45-37 47-77 43l-42-4-65 83c-67 85-76 109-54 143 10 16 4 31-40 98-28 43-54 91-58 108-5 19-82 110-217 257-115 126-213 228-218 228-4 0-10-14-14-31-7-30-7-30-59-24l-52 7-57-149c-32-81-57-152-57-157 0-4 59-82 132-172 91-113 139-164 153-165 12 0 39-23 67-57 26-31 90-106 142-166 52-59 94-116 93-125 0-10 131-176 292-369 284-342 295-352 326-350 30 3 43-7 134-96 80-78 102-106 107-135 4-20 21-65 39-101 24-48 40-105 60-210 42-226 49-246 115-311 93-91 174-118 351-119 96 0 119-19 119-98 0-40 4-52 15-52s15-11 15-36c0-29-10-48-43-88-86-102-105-143-113-236-8-108 14-188 82-289 38-57 60-79 119-116 70-43 76-45 149-45 91 0 126 15 201 87 96 90 165 241 165 358 0 45-8 63-65 157-36 59-65 115-65 125 0 33 62 81 135 107 51 17 103 25 192 30 187 10 303 60 400 175 56 66 89 158 81 226-4 32 0 40 30 63 59 45 138 228 127 294-6 35-3 43 43 96 107 125 117 262 53 775-23 183-47 340-55 355s-31 46-51 70c-28 32-44 42-66 42-16 0-52 11-79 25l-49 25-115-81c-64-44-118-84-121-88-2-4 0-25 6-47 13-50 178-220 222-230 35-7 45-29 23-52-11-13-18-48-22-123-5-82-12-112-30-144-13-22-34-69-47-105-21-56-23-74-16-125 4-33 11-69 14-81 5-17-1-25-28-41-26-16-48-46-87-119-29-55-55-101-57-104-3-3-21 13-42 35-28 31-42 57-55 110-9 39-37 107-61 152l-43 81 18 134c13 106 24 150 53 214 61 141 110 346 147 626 38 286 25 418-71 698-57 165-61 185-77 342l-16 167 27 78c38 113 57 194 57 248 0 47-12 124-86 538-37 211-37 237-3 396 14 64 62 117 184 201 94 65 100 80 56 160-28 51-33 55-83 67-29 7-91 12-138 12-105 0-135-14-250-119-45-41-87-78-93-82-7-4-8-74-3-222l7-215-50-163c-71-234-102-376-112-512-7-107-6-122 11-155 17-35 18-47 8-147-6-60-17-122-25-138-11-21-16-71-18-175-3-121-9-176-39-318-35-165-36-179-36-382 0-116-4-211-9-211-10 0-21 84-21 170 0 76-25 211-75 400-28 109-35 153-35 231 0 77-5 110-26 170-23 65-25 84-19 161 4 71 12 101 42 165 36 76 36 81 37 203 0 115-3 137-42 287-36 141-42 176-42 267 0 92 4 114 30 183 27 70 30 88 30 196v118l-75 34-75 34v136l-69 43c-63 38-74 42-132 41-35-1-92-5-125-10z" />
</svg>