<svg id="root" xmlns="http://www.w3.org/2000/svg" width="700" height="700" viewBox="0 0 7000 7000">
  <path
    d="m1910 5758-95-63-9-155c-7-134-13-170-42-263-19-60-34-114-34-121 0-6 53-43 119-80l118-69 47-176c26-97 54-196 61-221 8-25 23-82 35-126l21-81 50-6c37-5 63-1 100 13 27 11 53 20 58 20 4 0 18-26 31-57 13-32 36-85 51-118s48-106 72-162l46-103-45-60c-25-33-52-60-61-60-8 0-94 27-192 60s-183 60-188 60c-9 0-63-117-63-136 0-3 17-12 38-21 60-25 357-155 361-159 4-3-49-144-58-156-4-4-93 15-199 42-105 28-198 50-205 50s-24-30-39-67l-26-68 203-75c112-42 207-79 210-82 4-4 2-30-4-58-11-50-10-53 19-88 33-40 35-53 19-101-10-27-16-31-47-31-85 0-82 5-82-154l-1-141-83-59-83-58-27-126c-24-114-30-129-59-154-18-15-35-27-38-28-4 0-28-60-54-132-38-106-55-141-86-173-33-34-39-46-39-83 0-25 5-44 13-47 6-2 87-5 178-8l167-4 121 326c67 179 125 331 129 338 12 19 160-233 168-287 6-37 32-79 143-229l135-184 55 62 55 62 92-92 93-92 102-26 102-26 50-149 51-148 45 5c25 3 93 16 150 28 97 21 114 29 258 115 171 103 158 102 194 22 7-16 16-28 21-28s37 18 72 40 66 40 69 40c10 0-61-189-113-300-61-130-114-331-108-407 3-29 7-56 11-59 16-16 123 22 227 81 63 36 150 84 193 107 176 96 205 122 324 295l109 158 12 110c7 61 12 122 12 136 0 26-1 27-43 18-23-6-50-12-59-15-14-4-21 9-38 66-15 51-40 97-90 167l-69 98 37 44 36 44-28 53c-19 36-26 60-21 75 4 13 45 98 91 191 63 125 84 178 84 208 0 37 2 40 38 49 118 31 164 42 166 39 2-2 13-28 25-58 13-30 26-58 30-63 6-6 236 77 253 92 3 3-8 76-25 161l-32 155-105 21c-58 12-199 52-313 89-115 36-211 65-213 62-2-2-15-48-29-101l-25-97 30-60 30-59-167-184c-93-102-174-184-181-183-8 1-63 97-122 212-122 237-130 269-95 378 20 62 28 66 94 47 37-10 15-23 559 321l142 91v128c0 98-4 143-19 190l-19 61 21 9c12 4 41 17 65 28l42 19-112 139c-82 102-152 206-260 387-81 136-148 258-148 270s11 83 25 157c24 130 26 136 60 165 33 28 35 34 26 58-10 26-13 27-83 27l-73-1-145-161c-80-88-160-178-178-199l-33-39 26-87c24-83 29-91 90-148l65-60 101-317 101-318-43-60-42-60h-762l-205 176c-113 97-230 197-260 222-30 26-67 58-82 72l-28 25 46 165c41 151 49 168 90 216 24 29 44 54 44 57s-22 13-49 22l-49 16 55 142c30 78 60 156 65 172 16 45 22 48 61 32l35-15 26 56c14 31 22 60 18 63-4 4-24 12-45 19-44 14-45 6 19 152 24 55 44 102 44 104s-98 34-105 34l-60-120c-55-112-62-121-84-115-75 19-78 18-84-12-4-15-9-37-12-49-6-18 1-23 42-39 26-10 50-19 52-21s-29-82-69-179c-77-184-81-188-130-160-46 26-50 21-50-65 0-65-6-96-35-175-50-138-52-141-61-67-7 69-5 66-129 168-38 32-94 78-124 103-39 33-88 97-184 240l-130 196 8 215c7 211 7 215 37 273 16 32 27 61 25 64-3 2-47 7-99 9l-93 5-95-63zm814-2240c3-29 6-71 6-92 0-34 8-47 55-97 35-37 55-66 55-81 0-33 11-45 120-126 91-67 97-74 139-157l44-88-12-181c-9-132-9-219-2-321 6-77 11-150 11-161v-22l-72 22-73 23-40 79c-39 79-40 80-163 164-67 47-158 110-201 140l-79 55-12 75c-8 45-25 97-44 131-26 49-29 60-19 82 7 16 23 28 43 32 34 8 43 24 54 98 7 46 9 48 33 42 14-3 38-8 53-11l27-6 7 96c6 82 5 100-10 126-17 28-17 33 6 122 27 110 26 108 49 108 14 0 20-11 25-52z" />
</svg>