<svg id="root" xmlns="http://www.w3.org/2000/svg" width="1400" height="1400"
   viewBox="0 0 14000 14000">
   <path
      d="M6642 1274c-33-7-44 14-46 44-55 232-93 474-212 685-11 26-31 50-36 76 54 145 93 297 176 428 31 44 72 95 132 89 35-10 23 26 24 49l-4 604c-150 58-299 119-450 173-205-75-411-163-618-237-130-44-259-97-396-109-69-7-149 20-174 91-39 108-10 225 7 335 39 219 85 437 128 656-76 103-149 208-237 301-13 13-39 37-59 51-33 26-71 45-113 50a633 633 0 0 0-251 230c-43 59-85 120-127 180l101 406c-108 169-205 346-329 504-31 34-68 87-120 72-73-34-124-101-183-154-19-18-37-48-62-19l-193 121c14 216 37 432 55 648 73 85 159 162 218 259 71 127 92 295 13 424-39 65-105 108-145 171-33 32 0 35 30 40 82 9 176 3 239-57 39-31 56-85 103-105 59 0 97 55 134 94 138 171 241 365 364 548 152 234 326 455 521 655 22 19 42 40 29 71l-90 669h-344c21 250 28 501 42 751 17 337 35 673 49 1009-47 258-104 514-139 774-13 92-13 193 42 273 65 97 186 126 292 154 173 39 348 68 524 90 55 7 122 4 155-48 69-92 58-213 47-320-26-232-71-461-113-690l136-218-133-359c65-269 123-540 194-807 14-45 26-94 58-129 56 26 85 85 123 130 237 323 495 631 771 923 68 67 130 141 209 195 36 24 91 4 94-41 6-81-27-160-50-236a7384 7384 0 0 0-434-953 5227 5227 0 0 0-488-763c-12-20-35-40-40-63 146-419 295-837 448-1254 75-197 151-393 253-580 50-86 101-180 189-232 57-24 126-2 166 43 105 111 168 251 233 386 152 336 271 684 389 1035 246 747 477 1498 713 2248-1 505 6 1011 11 1516 86 57 174 118 279 129 181 26 371 16 545-45 102-41 187-116 276-180-115-265-237-527-355-791V9317c-96-3-194 8-288-10-37-10-80-53-50-90 36-52 100-74 143-117 16-45-6-93-10-138-34-166-61-342-158-486-48-69-119-117-185-167-182-782-384-1561-615-2330 57-370 107-740 170-1109 14-62 20-122 50-179 12-18 29 16 37 22 107 147 192 308 288 461 163 271 350 526 545 774 18 26 47 47 41 81 14 243 30 486 42 729-49 1-106 6-135 51-37 37-41 103 3 137 70 64 172 57 260 63 26 4 59-3 80 8 111 238 171 496 239 749 237 916 459 1837 687 2756 17 63 29 128 50 189 19 21 38 57 55 16 31-31 25-78 39-117 37-171 77-341 112-512-69-618-141-1235-236-1850-67-452-144-902-214-1354 62-85 159-150 188-256 17-66-45-122-106-130-79-16-160-10-240-11 4-81-5-163-38-238-110-261-258-504-397-750v-462c-165-171-332-343-462-543-142-216-263-444-390-668 34-201 78-400 98-603 3-47 3-103-41-131-53-40-124-26-185-20-260 45-513 131-775 164-104 11-216 27-314-20-47-24-79-74-72-127 1-149 79-282 140-413 111-222 176-463 226-705l88-442c-58-61-118-131-206-147-254-70-519-78-780-101-85-7-170-14-255-17zM5632 4885l229 993c-161 621-318 1243-483 1864-202-232-395-472-591-709 63-132 133-261 186-397 7-24 3-51-27-52-139-49-280-90-420-136 359-554 720-1108 1083-1660l23 97z"
      clip-rule="evenodd" />
</svg>