<svg id="root" xmlns="http://www.w3.org/2000/svg" width="700" height="700" viewBox="0 0 7000 7000">
  <path
    d="M2118 6019c-32-17-38-24-37-52 1-55 31-104 88-147 30-22 64-40 76-40 26 0 113-89 150-154 40-71 101-354 110-516 8-135 20-171 79-255 50-69 38-80-97-90-86-6-107-11-134-31-22-16-33-34-33-50 0-31-8-30-39 5-22 25-31 28-63 24-26-4-38-11-42-26-3-11 18-97 46-191 27-94 55-187 60-206s52-180 104-358l95-322-28-35c-15-19-33-35-38-35-6 0-55 45-109 99l-99 99-101 7-101 7-175 122-175 122 3 39c2 33-1 43-20 54-13 8-111 78-218 156s-200 145-207 148c-7 5-30-17-59-55-27-35-52-64-56-66-22-10 5-36 133-132s139-107 139-136c0-30 15-43 270-233 244-182 270-203 270-229s21-45 195-176c107-81 195-149 195-152s-17-12-37-21c-56-23-170-114-235-187-39-43-68-67-89-71-27-6-30-10-26-34 3-14 18-108 33-208l28-182 68-86c37-48 68-93 68-101s34-57 76-109c55-68 77-104 81-132 3-23 31-77 71-138l65-101 204-74c111-41 203-78 203-82 0-22-42-87-60-93-16-5-20-15-20-56 0-40 6-58 36-99 29-40 42-50 65-50 26 0 29-3 29-31 0-110 107-300 206-366l54-36 116 6 115 6 98 91 98 90h109l37 66c39 70 47 121 22 130-21 8-9 24 18 24 19 0 29 16 65 108 38 97 41 111 33 152-5 25-9 46-8 46 1 1 40-5 85-14l84-16 101 34c56 18 167 66 247 106l145 72 108 115 107 115v250l-69 55c-37 31-130 109-205 175-98 86-151 125-186 138-28 10-50 21-50 25s39 252 86 551c47 298 89 566 93 593 4 28 43 274 86 548 59 373 77 502 69 515-23 36-56 26-131-43-62-57-76-65-110-65-22 0-47 6-57 13-17 12-17 20-6 103 7 49 15 152 19 229 6 137 7 143 61 292l54 152 67 31c36 16 73 30 82 30 24 0 95 67 118 111 31 62 25 97-23 146l-42 43-111-1c-104 0-117-2-225-42l-115-42-32-60c-25-45-33-73-33-112 0-48-5-60-59-135-49-69-64-99-83-172-23-87-23-88-69-112-49-24-59-46-59-133 0-19-12-77-27-128l-27-93h-33c-21 0-36 6-39 15-4 10-21 15-54 15-47 0-49-1-115-75-62-69-70-75-107-75-27 0-50 8-73 26-44 33-108 32-113-3-9-64-32 21-32 120 0 32-30 82-210 352l-210 315v109c0 104-1 111-27 141-30 36-69 55-228 111-101 36-118 39-215 38-85 0-112-4-142-20z" />
</svg>