<svg id="root" xmlns="http://www.w3.org/2000/svg" width="700" height="700" viewBox="0 0 7000 7000">
  <path
    d="M3627 5983c-4-6-6-35-5-66 2-50 6-61 35-89 32-31 33-35 33-110v-78l-152-178c-84-97-164-190-178-206-14-17-42-49-63-73-23-25-36-47-31-54 4-7 3-9-4-5-17 10-112-105-112-137 0-16 3-26 8-23 4 2 6-13 4-35-4-33-11-44-52-74-26-19-50-35-54-35-3 0-6 35-6 78s-7 101-15 129c-13 44-20 52-55 66s-46 14-97 1c-36-9-67-24-80-40-22-24-23-34-23-167 1-104 5-149 15-167 21-36 19-42-20-69-65-44-160-69-324-86-86-8-185-22-221-29-90-19-176-62-208-104-23-30-26-43-25-101 1-81 24-136 101-240 104-141 176-225 298-351 115-118 122-128 129-175 10-75 37-127 86-167 61-50 97-66 154-70 28-2 49-7 48-11-2-4-3-28-3-53v-46l-37 7c-21 4-49 9-63 11-14 3-70 13-125 24-355 69-393 69-451 8l-28-28 17-208c23-277 56-613 62-632 14-42 86-94 255-185l180-97v-74c0-89 0-89-146-132-172-51-181-59-169-165 14-124 61-232 130-300 15-15 57-42 93-59 86-43 226-54 382-31 96 15 110 20 166 59 80 57 164 148 164 178 0 33-38 54-101 58l-53 3 3 65c2 54 7 70 28 92l26 27-29 24c-27 23-29 29-26 86l4 61h56c32 0 232 5 446 11l389 11 46-46c52-51 71-55 142-31 30 10 115 17 270 22l225 8 2-26c2-20-5-30-33-45-53-28-48-60 19-118 45-38 61-46 95-46 35 0 43-4 56-30 14-28 20-30 69-30 50 0 55 2 100 50 48 51 49 51 105 48 55-3 56-4 59-34 2-18 12-40 23-50 18-16 20-16 38 1 12 10 21 33 23 59l3 41 63 3c53 3 62 6 62 22s-9 19-62 22l-63 3 3 41c3 38 1 42-25 47-34 6-43 2-43-23 0-24-11-31-38-23-17 4-22 13-22 38 0 36-17 54-82 89-31 17-37 26-42 63-3 25-14 58-23 74-16 27-21 29-79 29-56 0-67-4-108-35-52-40-72-44-81-16-8 26-33 41-140 84-105 42-180 60-326 82-155 22-217 20-247-7l-23-23-17 22c-15 20-31 23-157 33-77 5-165 11-195 13-52 2-55 4-55 28 0 20-3 25-18 21-21-5-22-27 9 338 8 102 14 234 13 295l-1 110 42 7c49 9 91 36 171 111 86 80 201 219 195 234-3 8-2 12 3 9 12-8 40 26 120 146 62 93 71 112 71 152 0 35-5 48-19 56-28 14-86 13-125-4-94-39-249-172-321-275-43-61-54-70-77-68l-28 2-4 130c-5 132-20 245-57 415-27 126-79 281-92 273-6-3-7-1-3 5s-2 47-14 91c-29 114-27 144 11 173 80 59 99 82 404 493 202 272 336 529 276 530-22 0-21 74 2 107 16 24 17 40 11 143l-7 115h-152c-84 0-186 3-227 6-46 4-78 3-81-3zm-613-1627c3-22 7-139 10-259l6-218-62 2c-61 2-62 2-130 67-37 36-98 88-134 115-52 41-64 55-62 75 2 18 13 27 41 37 51 18 292 199 283 214-2 3 7 7 20 7 20 2 24-4 28-40zm-481-1403c37-3 67-9 67-13 0-15-179-220-192-220-4 0-8 57-8 126v126l33-6c17-4 62-10 100-13z" />
</svg>