<svg id="root" xmlns="http://www.w3.org/2000/svg" width="700" height="700" viewBox="0 0 7000 7000">
  <path
    d="M4032 6085c-47-39-60-45-100-45-80 0-86-5-110-79-30-91-32-305-4-320 16-8 16-18 7-123l-10-113-43-9c-40-8-46-14-106-110-88-139-173-306-181-355-6-38-9-41-39-41-43 0-75-37-116-132-30-71-31-78-37-274-6-200-6-201 17-217l22-15-37-74c-20-40-39-75-41-77s-15 22-30 55c-29 67-52 96-67 87-6-4-7-1-2 6 9 16-34 63-53 56-7-2-10 0-7 5s-11 17-32 25c-32 14-65 15-213 9-96-3-178-8-181-10-16-9-196 80-224 111-49 54-102 75-193 75-72 0-87 4-188 49l-109 49-5 55c-4 40-14 67-36 99-32 47-53 55-142 57-43 1-57-4-81-25-31-27-38-56-61-227l-12-89 75-111c70-103 76-117 82-177 6-55 14-76 57-142 27-43 55-81 62-87 14-12 139 10 186 33 19 10 46 36 60 58 14 23 39 46 59 54 18 8 34 14 35 14s3-12 4-27c3-33 14-44 72-69 25-10 52-26 60-35 8-8 38-40 65-70 52-56 79-77 154-118 41-22 51-23 146-18l103 6 6-37c3-20 6-57 6-82s7-70 15-100c19-72 21-67-22-89-60-31-99-76-141-164-67-142-66-134-59-300 5-117 12-170 31-232 31-105 87-219 99-202 6 8 7 5 3-7-5-16 14-40 86-113 84-85 96-93 130-93 21 0 38-3 38-7 0-5 16-26 36-48s33-32 30-22c-4 11-2 16 5 12 9-6 4-549-6-564-3-6-217 3-372 15-75 6-87 4-139-20l-58-27-90 89c-76 75-101 93-151 110-55 19-319 115-355 129-19 7-67 4-96-7-44-17-85 62-108 205-2 11-9 46-15 78l-12 57h-42c-41 0-46 4-221 179-99 99-183 178-188 175s-7-1-6 5c4 15-62 82-74 75-6-4-8-3-5 2 9 15-179 208-194 199-8-6-10-4-4 4 4 8-4 24-21 42l-28 29-68-67-68-67 42-43c23-23 45-40 50-37s7 2 6-3c-6-16 60-86 73-78 8 6 10 4 5-4s65-86 200-221c114-115 211-215 215-222 5-7 6-83 2-169l-6-156 42-29c23-16 72-50 108-77 37-26 70-47 74-47 3 0 11 11 16 23 10 20 43 35 41 18-2-21 4-22 18-5 14 18 15 18 4-4-18-36 1-53 269-240 51-36 69-43 95-39 22 3 38-1 55-14 13-10 28-16 35-12 6 3 8 2 3-2-4-5 18-35 50-67 51-51 62-58 97-58 34 0 47-7 82-41l43-42 103 11 103 10 142-56 143-57v-50c0-80 16-119 58-148 37-25 38-26 187-20 132 5 156 9 200 30 28 14 93 44 146 68l97 43 33-45c26-34 51-53 102-75 71-32 72-34 58-86-13-43-1-72 42-112 22-20 39-47 46-74 23-92 46-129 104-169 31-21 87-49 125-62 68-23 71-23 148-8 89 18 131 43 211 125 78 79 86 104 98 313l10 180-37 48c-31 40-35 51-28 75 18 66 22 148 7 184-20 47-7 68 41 68 31 0 45 8 80 43 23 24 39 47 35 52-5 4-3 5 3 2 7-4 17 0 24 8 6 8 36 21 66 30s52 20 49 24c-3 5 4 7 15 4 45-12 86 6 119 52l32 44-86 42c-47 23-85 45-85 49s24 23 53 41c28 18 54 36 57 39s51 35 108 73c91 60 102 70 102 97s2 29 30 23c28-5 38 2 125 88 80 78 95 98 95 124 0 31 50 115 68 115 5 0 35-9 67-20s77-20 100-20c38 0 47 5 85 47 24 27 89 95 144 153 136 142 136 142 141 186 4 29 15 48 43 74 21 19 72 67 114 105l76 70 7 100 6 100-49 28c-83 46-94 41-252-107-30-28-79-73-109-99l-53-47-25 20c-14 11-30 17-36 13s-7-1-3 6c5 8-4 23-23 40-30 27-33 27-88 17-32-6-64-15-70-19-8-5-13-29-13-56 0-36-7-58-31-94-17-26-27-52-23-58 4-7 3-9-3-6-6 4-26-16-44-43-29-42-38-49-59-45-22 5-31-2-67-58-40-61-47-66-130-102-116-50-163-96-163-159 0-59-36-96-92-96-43 0-130-39-121-53 3-6 1-7-5-3-22 13-102-40-208-139-58-55-112-103-119-108-29-16-44 5-56 79l-12 75-71 46c-39 26-79 47-88 47s-15 3-12 7c2 4-35 31-82 60-115 72-136 90-137 120 0 18-18 38-71 80l-71 57 3 60c3 54 0 68-34 133-21 40-57 91-80 113-39 37-44 48-58 126-9 47-28 143-41 213l-25 128 46 117c26 69 48 146 53 187 5 39 20 104 34 145 18 54 27 108 32 192 6 94 10 120 25 133 10 9 30 51 45 93s40 113 56 157c27 78 28 83 21 223-4 78-4 143-1 145 3 1 27 50 53 109 27 59 54 109 61 112 7 2 27 40 44 83 104 255 113 273 132 273 12 0 44 32 86 87 107 137 101 132 169 140 58 8 65 12 133 76 62 58 72 73 77 110l6 44-88 71-89 72h-83c-55 0-93 5-113 15-16 9-34 13-40 10-5-4-8-1-7 6 2 9-14 16-47 20-96 14-107 11-163-36z" />
</svg>