<svg id="root" xmlns="http://www.w3.org/2000/svg" width="700" height="700" viewBox="0 0 7000 7000">
  <path
    d="M5596 2773c-14-7-26-11-26-8 0 2-17-5-37-17-21-12-58-32-82-45-24-12-50-28-57-34-8-6-14-8-14-4 0 5-8 1-17-7-10-9-29-19-43-23s-32-14-41-22c-15-12-21-11-50 6-19 12-41 23-49 26s-60 28-116 56c-60 30-126 56-166 63-59 11-70 11-106-6-89-42-132-146-107-258 3-14 8-38 10-55 3-16 7-41 10-55 12-51 25-136 25-157 0-15-39-62-121-145-129-132-157-174-166-254-7-61 10-98 66-146 36-30 52-36 148-51 59-9 121-17 137-17s58-5 93-11c49-9 63-15 63-29 0-9 9-29 20-42 10-14 17-28 14-30-2-3 2-11 11-18 8-7 15-18 15-24s10-27 22-46 22-37 23-40c0-3 15-35 34-71 37-74 77-101 167-117 43-7 59-6 90 10 49 23 98 74 107 111 4 15 12 27 17 27 6 0 10 11 10 24 0 14 4 28 10 31 5 3 27 43 48 88 50 105 68 123 129 131 26 3 71 9 98 12 28 3 59 8 70 11 11 2 47 8 80 14s68 17 77 26c10 9 18 12 18 7s13 6 29 24c21 23 32 50 40 96 20 114 13 132-83 229-31 32-56 61-56 66s-8 12-19 16c-28 9-131 111-131 130 0 9 13 97 30 194 16 97 28 186 26 198-8 39-49 90-90 111-62 31-128 42-160 25z"
    fill="#000001" />
  <path
    d="M5563 2654c-37-20-111-59-163-87s-106-56-119-63c-21-11-30-9-75 16-118 65-293 149-325 154-40 7-86-17-101-53-10-24-8-69 4-131 3-14 7-41 10-60s8-46 11-60 12-61 20-105l15-79-67-70c-38-38-100-101-140-140-49-48-77-86-88-115-19-56-20-51 14-89 30-32 64-40 226-56 17-2 73-9 125-16l95-14 59-115c138-274 132-265 184-282 30-10 40-9 68 6 30 16 74 79 74 106 0 5 11 27 25 49s25 46 25 54c0 7 6 19 13 25 8 6 20 29 27 51s16 40 20 40c3 0 12 16 19 35 10 27 18 35 39 37 32 1 37 2 77 11 37 8 98 18 145 23 19 2 49 6 65 9 17 3 39 7 50 8 35 5 85 31 89 47 3 8 7 34 11 57 6 40 5 42-64 114-39 41-71 77-71 81 0 5-6 8-12 8-7 0-46 32-87 72l-73 71 34 211 35 211-20 27c-19 25-63 48-93 48-7 0-43-16-81-36zm126-42c7-13 4-53-8-128-10-60-24-145-31-189-6-44-14-89-16-101-4-16 18-44 103-126 59-58 127-122 151-143 57-51 67-71 50-97-12-18-45-26-229-57l-214-36-33-65c-17-36-61-123-95-195-55-112-67-130-89-133-34-4-46 14-148 218-45 91-87 168-92 171-6 4-67 14-136 24-308 43-311 43-312 84 0 8 69 85 154 170l155 156-35 190c-42 237-43 252-7 261 22 6 64-12 217-90l191-97 94 51c285 158 311 168 330 132z"
    fill="#FDFBD2" />
</svg>