<svg id="root" xmlns="http://www.w3.org/2000/svg" width="700" height="700" viewBox="0 0 7000 7000">
  <path
    d="M2363 2648c-29-18-103-72-166-120l-115-88-44 15c-213 70-271 85-333 85-70 0-106-13-141-52-72-78-70-156 5-358 28-74 51-142 51-151 0-16-33-66-153-238-51-72-66-116-67-191 0-58 27-102 87-141l48-31 201 6c187 6 201 5 210-12 5-10 56-80 113-156 83-110 113-142 145-157 50-23 146-25 185-5 46 24 87 80 106 142 9 33 23 77 30 99s22 73 35 112c12 40 28 79 36 87s54 27 102 41c48 15 109 36 136 46s54 19 61 19c23 0 106 63 120 91 20 38 20 170 0 209-15 30-158 145-222 179-21 12-56 33-78 49l-40 28-5 204c-3 128-9 213-17 225-33 58-105 95-186 95-43 0-63-6-104-32z"
    fill="#000001" />
  <path
    d="M2404 2558c-18-13-75-57-129-98-187-145-169-135-217-121-24 8-52 17-63 21-94 37-253 80-294 80-42 0-53-4-70-26-12-15-21-41-21-60 0-32 9-62 95-301l36-103-48-64c-162-219-182-252-189-308-6-53-5-56 25-77 30-22 35-22 243-16l213 6 53-73c29-40 63-86 75-103 12-16 44-59 71-95 54-72 63-78 122-79 49-1 75 23 93 89 7 25 19 63 26 85s20 67 30 100c9 33 20 69 25 80s12 34 15 52c6 29 11 33 103 62 53 18 105 36 114 41 10 6 29 10 42 10 14 0 27 4 30 8s27 14 55 22c74 20 93 44 89 115l-3 58-70 49c-38 27-118 81-177 120l-108 72v216c0 249 0 249-87 257-39 4-54 0-79-19zm99-41c16-11 18-35 17-228v-216l43-29c23-16 44-31 47-34s59-41 125-85 128-89 138-99c18-20 15-54-6-67-5-4-96-35-201-69s-196-67-202-73c-6-7-24-55-39-107s-39-139-55-192c-50-177-62-175-210 27-40 55-89 122-109 149l-36 48-217-5c-186-5-220-3-233 9-24 24-18 42 34 113 51 68 91 124 161 224l41 59-41 116c-113 316-113 314-69 330 13 5 42 1 78-11 224-76 346-109 363-98 10 6 80 60 156 120 181 142 183 142 215 118z"
    fill="#F6F4CC" />
</svg>