<svg xmlns="http://www.w3.org/2000/svg" id="root" viewBox="0 0 100 191">
  <path
    d="M 37.304688 190.1875 C 16.714844 186.863281 2.546875 175.492188 1.542969 161.460938 L 1.210938 156.9375 L 4.082031 160.0625 C 5.6875 161.792969 9.429688 164.519531 12.371094 166.183594 C 22.933594 172.101562 34.628906 174.761719 50.136719 174.761719 C 70.523438 174.695312 85.960938 169.707031 95.519531 159.996094 L 99.128906 156.339844 L 98.730469 160.53125 C 98.195312 166.714844 94.71875 173.429688 89.503906 178.152344 C 84.757812 182.539062 75.804688 187.128906 67.847656 189.257812 C 60.898438 191.117188 45.792969 191.585938 37.304688 190.1875 Z M 37.304688 190.1875 "
  />
  <path
    d="M 39.109375 171.835938 C 31.820312 170.902344 21.527344 168.042969 16.046875 165.449219 C 12.4375 163.722656 9.699219 161.726562 6.289062 158.335938 C 1.074219 153.148438 0.0078125 150.886719 0.0078125 144.96875 C 0.0078125 139.25 1.144531 136.789062 5.957031 131.800781 C 10.566406 127.015625 14.84375 123.886719 10.96875 128.078125 C 7.558594 131.800781 6.089844 134.328125 5.085938 138.253906 C 2.746094 147.164062 8.5625 155.609375 20.59375 160.597656 C 29.214844 164.253906 37.503906 165.515625 52.808594 165.515625 C 68.183594 165.515625 72.660156 164.71875 82.019531 160.328125 C 91.710938 155.742188 95.988281 149.625 95.453125 140.980469 C 95.121094 136.058594 94.050781 133.398438 90.707031 129.007812 C 88.703125 126.414062 88.769531 126.414062 92.113281 129.605469 C 93.984375 131.402344 96.523438 134.726562 97.726562 136.921875 C 100.535156 142.109375 100.734375 147.894531 98.328125 152.617188 C 91.445312 165.914062 63.703125 174.894531 39.109375 171.835938 Z M 39.109375 171.835938 "
  />
  <path
    d="M 38.105469 162.125 C 26.074219 160.328125 15.113281 155.742188 10.5 150.621094 C 4.082031 143.636719 6.222656 136.789062 19.121094 122.691406 C 22.265625 119.234375 25.941406 114.84375 27.210938 112.914062 C 29.550781 109.523438 33.425781 99.617188 33.425781 97.089844 C 33.425781 95.890625 33.761719 95.757812 35.699219 95.957031 C 37.503906 96.15625 38.371094 95.824219 39.710938 94.496094 C 42.917969 91.371094 41.378906 83.921875 37.101562 81.992188 C 35.699219 81.394531 35.429688 80.796875 35.429688 78.601562 C 35.429688 76.207031 35.566406 76.007812 36.96875 76.40625 C 37.769531 76.671875 40.84375 77.207031 43.785156 77.605469 C 48.265625 78.203125 50.269531 78.136719 55.550781 77.273438 C 59.027344 76.671875 62.433594 76.007812 63.035156 75.742188 C 64.039062 75.410156 64.171875 75.808594 64.171875 78.667969 C 64.171875 80.464844 64.375 82.925781 64.640625 84.1875 L 65.042969 86.382812 L 63.171875 84.917969 C 59.628906 82.125 54.613281 83.324219 52.476562 87.445312 C 48.933594 94.296875 55.28125 100.613281 62.167969 97.089844 C 63.238281 96.558594 64.507812 95.492188 65.042969 94.761719 C 65.910156 93.496094 66.042969 93.632812 66.445312 96.757812 C 67.046875 101.277344 69.453125 107.796875 72.261719 112.449219 C 73.53125 114.511719 77.941406 119.832031 82.152344 124.289062 C 91.109375 133.730469 93.316406 137.585938 92.714844 142.640625 C 92.179688 146.898438 90.308594 150.488281 86.964844 153.480469 C 81.820312 158.136719 74.867188 160.460938 61.296875 162.257812 C 51.808594 163.457031 46.527344 163.457031 38.105469 162.125 Z M 38.105469 162.125 "
  />
  <path
    d="M 55.214844 94.363281 C 52.273438 91.4375 55.28125 85.851562 59.5625 86.25 C 63.4375 86.582031 64.773438 91.4375 61.765625 94.363281 C 60.429688 95.757812 56.554688 95.757812 55.214844 94.363281 Z M 32.421875 92.101562 C 30.617188 90.105469 30.753906 86.25 32.691406 84.71875 C 34.761719 83.058594 36.5 83.988281 37.503906 87.378906 C 38.640625 91.171875 37.90625 93.429688 35.5 93.429688 C 34.496094 93.429688 33.09375 92.832031 32.421875 92.101562 Z M 66.980469 82.125 C 66.980469 80.863281 67.113281 80.332031 67.3125 80.996094 C 67.449219 81.59375 67.449219 82.660156 67.3125 83.324219 C 67.113281 83.921875 66.980469 83.390625 66.980469 82.125 Z M 38.574219 74.546875 C 34.429688 73.015625 32.757812 71.421875 32.757812 68.761719 C 32.757812 66.167969 33.292969 66.167969 35.632812 68.496094 C 37.304688 70.15625 38.707031 70.753906 42.183594 71.421875 C 52.476562 73.148438 61.433594 71.820312 64.441406 68.027344 L 66.109375 65.902344 L 66.511719 67.695312 C 67.113281 69.957031 66.644531 71.152344 64.640625 72.484375 C 60.496094 75.144531 44.054688 76.472656 38.574219 74.546875 Z M 38.574219 74.546875 "
  />
  <path
    d="M 48.867188 69.226562 C 49 69.09375 51.671875 68.828125 54.816406 68.628906 C 58.023438 68.429688 59.894531 68.5625 59.160156 68.828125 C 57.890625 69.359375 48.265625 69.757812 48.867188 69.226562 Z M 42.117188 66.167969 C 36.03125 65.035156 32.757812 63.109375 32.757812 60.515625 C 32.757812 59.78125 33.09375 58.785156 33.558594 58.320312 C 34.160156 57.722656 34.496094 57.921875 35.03125 59.050781 C 36.566406 62.109375 40.3125 63.175781 49.46875 63.175781 C 56.554688 63.175781 58.289062 62.910156 60.964844 61.710938 C 62.703125 60.914062 64.238281 59.714844 64.507812 58.917969 C 64.707031 58.121094 65.242188 57.65625 65.578125 57.855469 C 66.511719 58.519531 66.3125 62.574219 65.175781 63.507812 C 62.367188 65.835938 48.664062 67.429688 42.117188 66.167969 Z M 42.117188 66.167969 "
  />
  <path
    d="M 41.980469 57.523438 C 37.703125 56.855469 34.226562 55.328125 33.625 53.796875 C 33.160156 52.601562 33.960938 49.542969 34.761719 49.542969 C 35.097656 49.542969 35.5 50.140625 35.765625 50.804688 C 36.566406 53.464844 40.511719 54.53125 49.132812 54.464844 C 58.023438 54.394531 61.5 53.597656 63.503906 51.070312 L 64.773438 49.410156 L 65.578125 51.136719 C 66.3125 52.667969 66.179688 53.066406 64.90625 54.394531 C 64.105469 55.261719 62.367188 56.324219 60.964844 56.789062 C 57.6875 57.855469 46.792969 58.253906 41.980469 57.523438 Z M 41.980469 57.523438 "
  />
  <path
    d="M 40.777344 51.335938 L 38.4375 50.539062 L 38.640625 43.890625 C 38.773438 40.230469 38.90625 37.238281 38.972656 37.171875 C 39.039062 37.105469 40.914062 37.371094 43.117188 37.707031 C 45.324219 38.039062 50.203125 38.171875 54.011719 37.972656 L 60.832031 37.570312 L 60.964844 42.558594 C 61.03125 45.285156 61.097656 48.210938 61.097656 49.078125 C 61.164062 50.339844 60.628906 50.671875 57.488281 51.335938 C 52.609375 52.335938 43.71875 52.335938 40.777344 51.335938 Z M 40.84375 34.914062 C 35.230469 33.714844 35.097656 33.449219 35.03125 24.539062 C 35.03125 18.085938 34.761719 15.894531 33.558594 12.703125 C 31.820312 8.113281 31.621094 3.523438 33.09375 2.0625 C 34.761719 0.398438 38.4375 0 51.140625 0 C 68.785156 0 69.71875 0.730469 66.511719 12.636719 C 64.90625 18.6875 64.773438 20.214844 65.175781 25.402344 C 65.644531 32.050781 65.308594 32.917969 61.5 34.179688 C 58.492188 35.246094 44.65625 35.710938 40.84375 34.914062 Z M 40.84375 34.914062 "
  />
</svg>
