<svg xmlns="http://www.w3.org/2000/svg" id="root" viewBox="-1 0 7471.15 4310">
  <g>
    <path
      d="M3500 4013c-85-6-90-9-90-52v-39l63-6c233-19 916-30 2122-33l1360-4v-89c0-76 3-93 23-119l23-31h-45c-65 0-76-7-76-46 0-35-13-45-27-20-7 13-208 16-1408 23-1877 11-1679 12-1707-14-14-13-36-23-50-23-15 0-39-13-57-29-24-23-31-37-31-68v-38h-235l-3-42c-2-34 0-43 12-43 9 0 16 7 16 15 0 30 56-8 114-76 33-40 68-72 88-79 18-6 118-38 221-70 182-57 191-61 259-117 38-32 81-66 94-77 22-16 243-100 301-113 14-3 44 10 92 41 111 71 127 78 164 68 17-5 102-40 187-78 149-65 159-68 250-72 107-5 157-25 124-49-10-7-16-15-13-17 2-2 40-8 84-13l80-10-70-2c-39 0-95-7-125-15-90-22-189-45-290-65-52-11-185-41-295-66-245-56-363-82-477-104l-88-18v24c0 13-4 22-9 18-5-3-20-1-33 4s-79 19-148 31-172 30-230 40c-58 11-145 26-195 35-394 71-1074 231-993 234 28 1 9 31-21 32-26 1 71 25 142 36 42 6 81-14 92-46 20-64 230-69 280-7 33 42 71 34 96-19 13-26 20-30 63-33 56-4 66 5 66 58v35l102-3c89-4 103-2 115 14 36 50-6 136-87 175-51 25-143 37-163 21-9-8-23-4-50 12l-37 23 25 11c15 7 25 20 25 32 0 16 7 20 33 20 43 0 154 70 167 106 13 33 13 99 0 145-19 69 11 67-880 73l-795 6-40-23c-38-22-40-25-43-78-4-79 11-90 183-129 77-17 218-51 313-76 96-24 193-44 217-44s45-5 47-10c4-12 147-50 189-50 27 0 27-1 18-29-11-30-32-41-84-41-16 0-84-12-150-25-66-14-163-35-215-46-52-10-103-22-112-25-14-4-18 0-18 18 0 17-6 23-22 24-29 1-559 183-535 184 33 0 19 30-15 31l-33 1 30 8c17 4 49 8 73 9 23 0 42 6 42 11 0 6 11 10 25 10 22 0 25 4 25 39 0 23-6 44-15 51-11 9-13 16-5 24 15 15 12 82-4 95-9 8-91 11-277 9-263-3-264-3-267-25-4-24-32-21-32 3 0 12-76 14-475 14H0v-74c0-85-8-78 119-92 50-5 90-20 199-74 154-78 145-78 249-4l64 44 57-16c31-10 76-18 100-18 26-1 42-6 42-13 0-21 26-14 38 10 10 21 11 20 11-12l1-34 68 7c37 4 99 13 137 20l70 12 3-24c2-15 8-22 17-18 8 3 15 1 17-3 2-7 414-144 583-195 28-8 42-15 33-15-33-2-20-30 15-33 36-3 12-10-283-73-275-60-333-75-347-93-7-9-13-38-13-64v-48h38c20 1 57 5 82 10 25 6 106 21 180 35s243 45 375 70 283 52 335 61c52 8 110 19 128 25s36 8 39 5c4-3 1-6-5-6-7 0-12-8-12-19 0-21 19-28 275-95 241-63 633-156 659-156 9 0 21-11 26-25 7-19 17-25 40-25 16 0 30 5 30 10 0 6-5 10-12 10-6 0-9 2-7 5 3 2 124-20 269-50 146-29 257-54 248-54-10-1-18-8-18-16 0-11 12-15 43-16 52-1-15-18-543-135-234-51-422-94-442-100-28-8-78-106-78-153v-41l48-1 47-1-37-10c-37-10-53-38-22-38 8 0 13-4 10-9-3-4 41-20 97-34 168-42 372-105 344-106-10-1-16-5-13-10 3-4 34-11 69-13 35-3 72-10 83-17 10-6 69-31 129-55 158-62 223-93 569-265 390-194 539-284 654-395 84-81 114-132 110-188-3-36-8-45-32-57-57-27-328 19-736 125-228 59-375 78-418 55-93-49 47-230 334-432 42-31 299-179 309-179 2 0 55-25 119-55 118-55 382-163 516-210 41-15 91-34 110-43 27-13 70-18 180-20 147-4 169 1 89 17-73 15-524 178-704 255-383 164-631 315-814 497-130 129-103 132 285 34 555-141 787-167 867-95 30 26 32 33 32 92-1 51-6 74-30 117-29 52-138 171-201 218-16 12-52 40-79 61-138 106-524 314-758 408-54 21-91 40-82 42 8 2 15 10 15 18 0 11-19 14-89 14-65 0-94 4-104 14-11 11-17 12-26 3-8-8-11-6-11 10 0 17-15 27-87 53-172 62-330 112-442 141-111 28-142 39-107 39 9 0 14 5 11 10-3 6-34 11-68 11-34 1-48 4-32 6 17 2 65 11 108 19 42 8 114 21 160 29 45 8 163 31 262 50s268 50 375 70c366 67 415 76 455 85 22 5 74 14 115 20s93 15 115 20c103 23 103 23 98-2-4-20 1-25 34-34 553-158 993-369 1218-585 115-111 140-162 165-340 34-238 39-264 68-335 55-136 166-268 337-400 136-106 395-266 625-386 218-114 264-140 286-159 11-11 35-19 52-19 31 0 32 2 32 39v39l-142 71c-79 39-172 87-208 107s-83 46-105 57-79 44-127 74c-48 29-90 53-93 53-6 0-157 102-267 181-75 53-204 181-251 250-67 98-84 164-102 395-9 116-23 226-31 252-23 67-73 139-166 238-188 198-504 355-1023 508-27 8-42 15-32 15 9 1 17 8 17 15 0 11-15 16-52 18-51 3-49 4 47 21 55 9 159 28 230 42 72 14 173 32 225 41 58 10 103 23 115 34 27 24 68 30 84 12 11-11 28-12 77-7l62 6 36-38c19-21 36-47 36-58 1-11 21-36 48-57l47-38h295v-26c0-14 4-23 10-19 5 3 22 0 37-8 16-9 67-33 114-55 80-37 90-45 155-127 70-89 187-185 226-185 11 0 59 11 108 25s95 25 103 25c15 0 133-64 200-108 23-16 64-65 109-133 62-93 82-115 140-154 37-25 70-45 73-45s5 446 5 991v992l-46-7c-26-3-125-6-220-6-144 0-174-2-174-14 0-8 6-16 13-18 9-2 11-11 6-28-7-23-7-24-8-3-1 31-29 19-34-15l-4-27-2 28c0 15-5 27-11 27-5 0-10 24-10 53v52l245-3 245-3v161h-210l14 23c20 31 28 113 17 171l-9 49 94-6 94-6v149l-1962-2c-1080-1-1983-3-2008-5zm3658-352c12-20 11-21-33-21h-46l21 22c11 12 20 31 20 42 0 21 0 21 13 0 6-12 18-31 25-43zm-6040-348 65-16-49-12c-27-7-64-15-81-18-33-6-33-6-33 34 0 34 3 40 17 35 9-4 45-14 81-23zm190-110c-10-2-28-2-40 0-13 2-5 4 17 4 22 1 32-1 23-4zm5672-33c0-14-7-20-22-20-20 0-21 1-3 20 10 11 20 20 22 20 1 0 3-9 3-20zm44-14c24-28 176-136 193-136 10 0 32 9 48 20 17 11 37 20 45 20s44-30 81-66c53-53 65-70 61-90-6-33-25-30-74 13-82 71-73 68-113 44-20-11-43-21-52-21-14 0-177 115-231 163l-22 21 22 23c25 27 27 27 42 9zm-321-128c-27-13-30-35-6-40 13-2 7-10-22-27-34-20-37-20-22-4 9 11 17 23 17 26 0 12-35 8-48-5-9-9-12-4-12 25v37l58-1c48 0 54-2 35-11zm-203-164c0-25-1-25-57-18-65 7-81 14-37 14 16 1 40 7 54 15 35 20 40 19 40-11zm-831-10c2-2-22-4-54-4-50 0-63-4-87-27l-28-27v27c0 22-5 27-27 29-19 1-14 3 17 8 42 7 170 2 179-6zm-183-129c-3-8-10-15-15-15s-4 11 2 25c12 25 23 16 13-10zm1204 3c0-12-1-19-3-17-1 2-9 12-16 22-12 14-11 17 3 17 10 0 16-8 16-22zm-178-95c25-23 23-48-8-68-23-15-27-15-50 0-28 18-31 46-8 69 20 21 43 20 66-1zm655-150c-2-16-4-5-4 22 0 28 2 40 4 28 2-13 2-35 0-50zm-383-37c8-14 28-27 43-29 22-3 20-4-10-6-21 0-47-5-57-11-14-8-19-5-23 12-6 22 8 58 22 58 5 0 16-11 25-24zm341-36c-11-5-76-8-145-8-147 1-105 12 55 15 70 1 103-1 90-7zm-632-27c3-5-27-7-66-5-122 4-136 9-35 10 53 1 99-1 101-5zm165-150c-16-2-40-2-55 0-16 2-3 4 27 4s43-2 28-4z"
    ></path>
    <path
      d="M0 3688v-58l1308 5c719 2 1360 4 1425 5h117v40c0 25-5 40-12 40s-112 7-233 15c-177 12-459 14-1413 13L0 3746v-58zM2 2509l2-71 43 7c27 4 43 2 43-4 0-15 149-83 296-134 310-107 646-173 1219-236 535-60 708-81 714-87 2-2-4-4-14-4-15 0-16-3-7-12 18-18 212 20 212 42 0 13-19 19-92 30-51 7-127 14-168 16s-93 8-115 14c-22 5-63 10-92 10-46 0-51 2-46 20 4 16 0 20-22 20-24 0-26-2-14-16 14-17 31-18-196 6-49 5-144 14-210 20-66 7-167 18-225 25-58 8-159 22-225 30-265 36-571 117-745 198-47 22-103 45-125 53-22 7-32 13-22 13 30 1 8 21-24 21-16 0-29 5-29 10 0 6-6 10-12 10-7 0-44 20-81 45l-68 44 3-70zM2540 1976c0-43 3-56 15-56 8 0 15 7 15 15 0 10 8 13 28 9 108-20 183-30 186-25 2 3-3 20-10 37-12 28-19 32-96 48-156 32-138 36-138-28z"
    ></path>
  </g>
  <g fill="#968D58">
    <path
      d="M0 4016v-294l33-5c17-2 554-4 1192-3 882 2 1211-1 1375-11 204-13 230-16 218-28-2-3-628-7-1389-9s-1394-5-1406-5c-23-1-23-3-23-131v-130h470c411 0 470-2 470-15 0-8 7-15 15-15s15 8 15 18 11 29 24 41c25 23 25 23 304 20 248-4 282-2 298 12 58 51 27 49 848 49 567 0 772-3 793-12 39-16 113-89 113-110 0-11 7-18 20-18 11 0 20 7 20 15 0 12 16 15 83 15 51 0 88-5 95-12 9-9 12-2 12 35 0 44 4 52 53 102 41 43 60 55 84 55 18 0 38 8 49 21l19 21 1505-7 1505-8 41-23c22-13 56-24 74-24 32 0 33 1 14 15-37 28 4 35 226 33 118 0 239 0 268 1l52 1v144c0 168 10 156-133 156-98 0-109-8-87-60 26-64 5-180-33-180-21 0-54 52-61 95-5 26-2 55 9 84 8 24 15 47 15 52 0 15-100 11-106-4-3-8 2-35 11-61 19-57 13-114-17-145-23-26-35-24-61 10-27 37-33 100-13 150 9 23 13 46 9 50s-622 10-1373 12c-1468 4-2190 19-2190 47 0 4 8 12 18 16 9 5 916 10 2015 12l1997 3v319H0v-294zM6950 3532c0-17 10-38 25-52 19-18 25-34 25-67 0-37 3-43 21-43 15 0 19 5 15 15-5 13 21 15 192 15 108 0 207 3 220 6 19 6 22 13 22 55v49h-223c-222 0-222 0-260 25l-37 26v-29zM2335 3190c-3-5-22-10-41-10-26 0-34-4-34-18 0-31 142-57 153-28 4 9-5 16-26 21l-32 7 38 10c20 6 37 14 37 19 0 12-87 11-95-1z"
    ></path>
  </g>
  <g fill="#E7E7B9">
    <path
      d="M3736 3631c-12-13-31-21-49-21-24 0-43-12-84-55-48-49-53-59-53-99 0-42 13-70 84-172 16-23 57-36 321-100 288-69 585-141 735-178 74-18 279-69 455-112s321-79 322-79c2-1-6-21-18-44l-20-42-57 6c-44 5-82 1-165-20-60-14-127-30-150-35-49-10-226-49-382-84-60-13-193-43-295-65-242-54-290-65-379-90-41-12-87-21-103-21s-61-9-101-19c-39-10-139-33-222-51-82-17-186-40-230-51-44-10-102-23-130-29-27-5-111-23-185-40-154-35-173-47-221-142-37-73-37-113-2-150 29-31 48-33 132-18 31 5 126 22 211 36 190 32 315 55 485 87 554 105 775 146 935 172 52 9 104 20 115 25 33 15 96 29 165 35 36 4 151 23 255 42 105 20 234 43 287 52s105 24 115 32c23 20 61 30 69 18 3-5 38-9 78-9 73 0 96-10 96-40 0-17 102-121 137-139 13-7 80-11 167-11 129 0 147 2 163 19 10 10 33 26 51 35 19 10 41 31 50 47 17 29 19 29 86 27l70-3 24-60c13-33 31-66 40-72 9-8 47-13 94-13 76 0 79 1 97 30 10 17 26 59 35 94l18 64 31-9c18-5 99-9 180-9h149l29 29c27 27 29 35 29 105v75l-66 76c-36 41-79 82-96 91-53 28-262 104-285 104-12 0-37-16-56-36l-34-36-66 42c-37 23-67 45-67 49s19 18 42 31c23 14 57 40 76 58 19 17 43 32 53 32 11 0 68 29 128 65 59 36 112 65 118 65 5 0 21 12 36 28 38 39 60 151 51 257-8 95-19 111-134 186l-75 49h-471c-259 0-950 3-1535 6l-1064 7-19-22zm1719-66c748-4 1361-10 1363-15 2-4 28-20 58-35 55-27 82-60 71-88-5-13-191-15-1487-15-814 1-1484-2-1487-6-4-4-2-15 3-24 10-16 49-17 443-20 339-2 433-5 437-15 2-7-2-55-10-107-13-86-13-96 2-107 34-28 46-6 57 107 4 41 13 85 21 98l14 22h396c333 0 395-2 400-14 8-20-26-248-38-263-8-10-82-13-310-13-175 0-297-4-294-9s38-19 77-30c64-20 92-22 302-21 772 3 1109 0 1105-12-7-19-170-108-199-108-19 0-28-6-32-21-10-36 2-46 61-53 66-8 169-57 220-103 38-36 92-46 92-18 0 31 30 75 51 75 11 0 69-19 127-41 98-38 112-47 170-108 60-63 62-67 62-118v-53l-72-1c-204-3-222-1-243 26-32 39-87 35-113-7-18-28-19-35-8-56s10-34-4-81l-18-56h-43c-47 0-48 1-88 98l-20 47h-250l-10-38c-9-31-19-42-56-60-39-19-62-22-163-22h-117l-47 38c-28 22-47 45-48 58 0 11-13 33-30 49-29 28-46 69-71 173-11 44-10 59 3 101 16 51 10 71-19 71-17 0-53-75-52-110 0-14 8-56 19-95 11-38 20-75 20-81 0-18-70-23-87-6-19 19-111 8-138-18-13-11-54-24-115-34-52-9-129-22-170-30s-149-29-240-46-223-42-295-55c-164-31-166-32-250-45-38-6-88-15-110-20-40-9-91-19-455-85-107-20-276-51-375-70s-218-42-265-50c-47-9-119-22-160-30-135-24-180-28-180-15 0 23 61 119 78 124 20 6 215 50 442 100 91 20 203 45 250 56 237 54 504 114 580 130 137 29 262 57 475 105 110 25 252 57 315 70 63 14 124 27 135 30 138 35 205 46 243 41 30-4 58 0 96 15 53 19 54 21 50 52-5 27 0 37 28 64 28 28 41 32 93 35 59 3 60 3 63 35l3 31-93 5c-51 3-115 5-143 5-29 0-154 25-300 61-589 146-986 243-1210 296-132 32-250 64-262 71-24 15-73 102-73 130 0 26 59 74 90 74 15 0 34 7 41 16 22 27 47 31 193 28 78-1 753-5 1501-9zm1051-220c8-21-17-247-29-262-7-10-91-13-358-13h-349v38c1 48 26 228 35 242 4 6 125 10 351 10 300 0 345-2 350-15zm447 10c11-5 12-17 4-68-5-34-16-70-24-79-9-10-61-44-117-78l-102-60h-167l6 78c8 99 17 184 22 200 3 9 49 12 184 12 99 0 186-2 194-5z"
    ></path>
    <path
      d="M5893 2768c-5-7-15-41-21-76-11-62-10-66 26-160 34-87 40-97 65-100 15-2 27-1 27 2s-16 50-35 105l-36 99 16 62c9 33 13 65 10 70-9 14-41 12-52-2zM6434 2678c-38-18-55-79-34-119 15-26 68-52 94-45 13 3 35 17 49 30 73 68-18 179-109 134zM1615 3523c-16-8-38-22-47-30-14-12-64-15-299-13-278 1-282 1-305-21-33-31-32-87 1-127 14-17 25-32 25-35s-26-11-57-18c-70-16-103-45-103-92 0-43 43-87 86-87 38 0 243 40 272 53 23 11 72 11 216 2 58-4 92-3 99 4 6 6 18 11 27 11 21 0 70 51 70 74 0 12 6 16 18 13 9-3 67-17 127-31 61-15 233-57 384-94l274-68-59-13c-33-7-99-21-149-32-49-12-121-28-160-36-38-8-94-24-123-34-29-11-66-19-82-19s-109-18-207-40c-98-23-232-52-298-66-112-23-122-27-153-61-18-21-35-47-38-60-4-14-14-23-25-23-14 0-19-7-19-25 0-29 26-35 33-7 4 14 5 13 6-4 0-11 11-30 24-42 30-28 98-29 233-3 173 34 413 79 614 116 297 54 364 67 382 76 9 5 47 12 85 15 37 4 78 10 91 15 53 20 86 11 132-36l44-45h99c99 0 124 6 164 42l21 20 37-41c33-36 43-41 80-41 48 0 105 38 105 70 0 15 13 18 93 25 118 9 137 23 137 105 0 55-1 57-57 112-68 66-114 87-192 89-31 1-45 4-32 6 35 7 158 88 177 118 12 19 18 49 18 105l1 79-40 41c-72 74-18 70-904 70-707-1-799-3-826-17zm1637-80c45-19 55-39 23-47-13-3-167-6-342-6-966 2-1233-1-1233-10 0-6 87-11 228-12l227-3 3-50c5-96 24-100 32-7l5 57h450v-160l-147-3c-88-1-148-7-148-12 0-6 137-10 369-10 226 0 372-4 376-10 6-10-65-50-90-50-8 0-15-9-15-20 0-14 9-21 38-26 20-3 58-19 83-35 55-35 65-36 80-8 8 16 17 20 39 15 88-17 181-98 159-137-13-25-118-27-159-2-38 22-60 5-60-46 0-20-4-42-9-49-13-22-45-10-60 23-19 40-28 45-84 45-41 0-53-5-76-29-52-56-198-49-216 10-10 29-43 46-107 54-42 5-63 2-80-8-13-8-68-22-123-32-55-9-113-20-130-25-16-5-73-16-125-24-52-9-203-36-335-61s-301-56-375-70-155-29-180-35c-60-12-60-12-60 8 1 47 17 53 365 128 94 20 235 52 315 71s186 43 235 53c50 11 144 31 210 45 66 13 134 25 150 25 55 0 74 11 85 46 10 29 17 35 51 40 29 5 39 11 39 25 0 17-8 19-67 19-74 0-100 5-438 90-126 32-293 73-370 90-152 35-188 54-183 99 2 18 15 32 43 48l39 22 766-5c662-5 770-7 802-21zm-1751-49c11-14 10-20-14-40-15-12-35-28-44-33-17-10-17-12 0-25 11-8 25-12 33-9 15 5 44-13 44-28 0-5-11-9-25-9s-25-5-25-11c0-7-11-8-29-4-17 3-39 1-50-5-16-8-27-7-47 6-28 19-39 17-343-42-86-16-94-17-87-5 4 5 50 19 104 32 245 57 276 65 279 75 2 6-56 25-129 43-132 33-163 45-152 62 3 5 110 9 238 9 203 0 235-2 247-16zm1544-109v-80h-360l-3 69c-2 38-1 75 2 83 5 11 40 13 183 11l178-3v-80zm265 66c0-43-22-73-82-112-51-33-70-39-103-37l-40 3-3 60c-6 108-8 105 118 105 102 0 110-1 110-19z"
    ></path>
    <path
      d="M2697 3035c-11-27 33-129 48-113 6 6-28 128-36 128-4 0-9-7-12-15zM3043 3000c-25-10-30-39-11-58 34-34 82 10 50 46-13 16-22 18-39 12zM1405 2590c-9-15-1-23 21-18 15 3 16 4 1 16-11 9-17 10-22 2z"
    ></path>
  </g>
  <g fill="#F6F2D5">
    <path
      d="M405 3098c-220-44-402-81-404-84-2-2-2-6 0-9 6-5 799 141 806 149 23 23-55 12-402-56zM1100 3015c0-1-7-19-16-40l-15-38 40 32c23 18 41 34 41 36 0 1-11 5-25 7-14 3-25 4-25 3zM1251 2927l-114-72 49-7c102-13 121-11 132 20 5 15 19 51 31 80 11 28 20 52 18 51-1 0-53-33-116-72zM833 2900c-61-92-66-84 70-95l78-6-46 91c-25 49-46 90-48 90-1 0-26-36-54-80zM2194 2637c-34-43-44-65-54-125-6-40-9-76-6-79s39 11 81 31c60 28 75 39 72 53-3 10-13 53-23 96-10 42-20 77-23 77-4 0-25-24-47-53zM640 2589c-245-49-483-94-529-100-93-11-111-20-111-56 0-22 3-24 28-19 15 3 53 8 84 11 32 3 68 10 80 15 13 6 226 50 473 98l450 88 3 27c3 21-1 27-15 26-10 0-218-41-463-90zM1813 2648l-42-21 85-65c47-35 87-62 88-60 6 6-73 168-81 167-4 0-27-10-50-21zM1394 2563c-38-90-47-81 79-85 62-2 113-3 114-3 2 1-38 29-87 63l-90 62-16-37zM2586 2573c-3-16-13-91-22-168s-17-142-19-144c-2-1-32 27-66 63-34 37-65 65-70 64-10-4-228-312-223-317 2-2 53 9 115 24 111 28 112 28 138 71 14 24 31 44 38 44s56-16 109-35 100-35 104-35c5 0 25 50 45 110 20 61 39 110 41 110 3 0 27-11 54-25 49-25 53-25 158-15 59 5 116 10 127 11 17 0-496 267-517 268-3 1-9-11-12-26zM1142 2513l-163-55 102-69c56-38 103-68 104-67 12 15 131 248 127 247-4 0-80-25-170-56zM3297 2513c-4-21-9-53-13-72l-7-33 65 43 66 44-49 27c-26 16-50 28-52 28-3 0-7-17-10-37zM737 2446l-38-12 51-16 51-16-7 21c-9 33-15 35-57 23zM1688 2407l-16-34 54 15 54 15-27 19c-39 25-47 23-65-15zM1346 2368c-17-39-13-42 67-50l48-6-23 25c-13 14-35 34-51 45l-27 20-14-34zM1965 2168c-22-6-42-12-44-14-5-4 63-84 72-84 5 0 6 4 3 8-2 4 4 27 15 51 10 24 19 45 19 47 0 6-20 3-65-8zM2410 2011c-41-9-82-20-90-23-8-4-530-109-1160-234S13 1526 11 1524c-9-8-13-104-5-104 5 0 584 113 1287 252l1277 253v105l-42-1c-24-1-77-9-118-18zM3804 1822c-38-48-86-103-106-123l-38-36 38-6c20-4 115-6 211-7 96 0 197-3 224-6 32-5 48-3 44 3-3 5-73 66-155 135l-149 126-69-86zM2823 1805c-39-33-43-42-63-133-12-53-23-103-25-110-4-9-17-6-52 12-45 22-51 30-89 117-39 90-42 95-88 113l-47 20-136-137c-76-75-135-139-131-142 3-3 28-8 56-12 50-6 52-5 103 41 28 25 56 46 63 46 13 0 206-57 211-62 1-1-6-77-16-168-10-90-17-166-15-167 2-3 464 205 475 214 2 2-3 29-12 60-8 32-15 59-13 60 8 9 313 171 365 194 35 16 62 31 60 33-2 3-40-2-84-10-144-27-259-44-294-44-24 0-59 16-121 55-48 30-91 55-97 55-5 0-28-16-50-35zM1831 1609c-24-44-41-82-40-83 2-2 62 13 133 33l129 37-89 47-90 46-43-80zM1313 1578c-40-13-41-21-5-46 50-34 50-34 54 13 3 48 2 49-49 33zM2116 1329l-168-129h195c181 0 195 1 191 18-2 9-13 66-24 126-11 61-22 111-23 112s-78-56-171-127zM3177 1310c-43-38-78-72-77-77 0-7 328-102 353-103 4 0-34 56-85 125-51 68-97 124-103 124-5 0-45-31-88-69zM3694 1333c14-75 10-72 71-55 30 8 55 18 55 21 0 4-30 21-66 39l-66 33 6-38zM2450 1030l-45-39 50-1h51l-4 40c-2 22-5 40-6 40 0 0-21-18-46-40zM1343 869c-298-30-552-230-628-493-25-85-22-222 5-309l21-67h696c383 0 694 2 691 5s3 34 14 68c25 81 27 221 3 303-30 105-83 193-170 280-66 66-98 89-175 128-149 73-300 101-457 85zM3101 829c-76-14-152-79-181-154-19-50-15-139 10-189 42-87 124-138 222-138 136 0 240 105 240 242 0 156-136 267-291 239z"
    ></path>
  </g>
</svg>
