<svg xmlns="http://www.w3.org/2000/svg" id="root" viewBox="0 0 100 58">
  <path
    d="M 46.859375 54.003906 C 45.722656 53.921875 45.65625 53.882812 45.65625 53.304688 L 45.65625 52.777344 L 46.5 52.699219 C 49.617188 52.441406 58.757812 52.292969 74.902344 52.253906 L 93.105469 52.199219 L 93.105469 51 C 93.105469 49.980469 93.144531 49.75 93.414062 49.402344 L 93.71875 48.984375 L 93.117188 48.984375 C 92.25 48.984375 92.101562 48.890625 92.101562 48.363281 C 92.101562 47.894531 91.925781 47.757812 91.738281 48.09375 C 91.644531 48.269531 88.957031 48.308594 72.894531 48.40625 C 47.769531 48.554688 50.421875 48.566406 50.046875 48.214844 C 49.859375 48.042969 49.5625 47.90625 49.375 47.90625 C 49.175781 47.90625 48.855469 47.730469 48.613281 47.515625 C 48.292969 47.207031 48.199219 47.019531 48.199219 46.601562 L 48.199219 46.089844 L 45.054688 46.089844 L 45.011719 45.523438 C 44.988281 45.066406 45.011719 44.945312 45.171875 44.945312 C 45.292969 44.945312 45.386719 45.039062 45.386719 45.148438 C 45.386719 45.550781 46.136719 45.039062 46.914062 44.125 C 47.355469 43.585938 47.824219 43.15625 48.089844 43.0625 C 48.332031 42.980469 49.671875 42.550781 51.050781 42.121094 C 53.484375 41.351562 53.605469 41.300781 54.515625 40.546875 C 55.023438 40.117188 55.601562 39.65625 55.773438 39.511719 C 56.070312 39.292969 59.027344 38.164062 59.804688 37.988281 C 59.992188 37.949219 60.390625 38.125 61.035156 38.539062 C 62.519531 39.496094 62.734375 39.589844 63.230469 39.457031 C 63.457031 39.386719 64.59375 38.917969 65.734375 38.40625 C 67.726562 37.53125 67.859375 37.492188 69.078125 37.4375 C 70.511719 37.371094 71.179688 37.101562 70.738281 36.777344 C 70.605469 36.683594 70.523438 36.578125 70.566406 36.550781 C 70.589844 36.523438 71.101562 36.441406 71.6875 36.375 L 72.761719 36.238281 L 71.824219 36.210938 C 71.300781 36.210938 70.550781 36.117188 70.148438 36.011719 C 68.945312 35.714844 67.621094 35.40625 66.269531 35.136719 C 65.570312 34.988281 63.792969 34.585938 62.320312 34.25 C 59.039062 33.496094 57.460938 33.144531 55.933594 32.847656 L 54.757812 32.605469 L 54.757812 32.929688 C 54.757812 33.105469 54.703125 33.226562 54.636719 33.171875 C 54.570312 33.132812 54.367188 33.15625 54.195312 33.226562 C 54.019531 33.292969 53.136719 33.480469 52.214844 33.644531 C 51.289062 33.804688 49.910156 34.046875 49.136719 34.179688 C 48.359375 34.328125 47.195312 34.53125 46.527344 34.652344 C 41.253906 35.605469 32.148438 37.761719 33.234375 37.800781 C 33.609375 37.8125 33.355469 38.21875 32.953125 38.230469 C 32.605469 38.246094 33.902344 38.566406 34.855469 38.714844 C 35.417969 38.796875 35.9375 38.527344 36.085938 38.097656 C 36.351562 37.234375 39.164062 37.167969 39.832031 38.003906 C 40.273438 38.566406 40.785156 38.460938 41.117188 37.746094 C 41.292969 37.398438 41.386719 37.34375 41.960938 37.304688 C 42.710938 37.25 42.84375 37.371094 42.84375 38.082031 L 42.84375 38.554688 L 44.210938 38.515625 C 45.402344 38.460938 45.589844 38.488281 45.75 38.703125 C 46.230469 39.375 45.667969 40.53125 44.585938 41.058594 C 43.902344 41.394531 42.671875 41.554688 42.402344 41.339844 C 42.28125 41.230469 42.09375 41.285156 41.734375 41.5 L 41.238281 41.8125 L 41.574219 41.957031 C 41.773438 42.054688 41.90625 42.226562 41.90625 42.390625 C 41.90625 42.605469 42 42.660156 42.347656 42.660156 C 42.925781 42.660156 44.410156 43.601562 44.585938 44.085938 C 44.757812 44.527344 44.757812 45.417969 44.585938 46.035156 C 44.332031 46.964844 44.730469 46.9375 32.804688 47.019531 L 22.164062 47.097656 L 21.628906 46.789062 C 21.121094 46.492188 21.09375 46.453125 21.054688 45.742188 C 21 44.675781 21.203125 44.527344 23.503906 44.003906 C 24.535156 43.777344 26.421875 43.316406 27.691406 42.980469 C 28.976562 42.660156 30.277344 42.390625 30.597656 42.390625 C 30.917969 42.390625 31.199219 42.320312 31.226562 42.253906 C 31.28125 42.09375 33.195312 41.582031 33.757812 41.582031 C 34.117188 41.582031 34.117188 41.570312 33.996094 41.191406 C 33.851562 40.789062 33.570312 40.640625 32.875 40.640625 C 32.660156 40.640625 31.75 40.480469 30.867188 40.304688 C 29.980469 40.117188 28.683594 39.832031 27.988281 39.683594 C 27.292969 39.550781 26.609375 39.386719 26.488281 39.347656 C 26.300781 39.292969 26.246094 39.347656 26.246094 39.589844 C 26.246094 39.820312 26.167969 39.898438 25.953125 39.914062 C 25.566406 39.925781 18.472656 42.375 18.792969 42.390625 C 19.234375 42.390625 19.046875 42.792969 18.589844 42.808594 L 18.148438 42.820312 L 18.550781 42.929688 C 18.777344 42.980469 19.207031 43.035156 19.527344 43.050781 C 19.835938 43.050781 20.089844 43.128906 20.089844 43.195312 C 20.089844 43.277344 20.238281 43.332031 20.425781 43.332031 C 20.71875 43.332031 20.761719 43.386719 20.761719 43.855469 C 20.761719 44.164062 20.679688 44.449219 20.558594 44.542969 C 20.410156 44.664062 20.386719 44.757812 20.492188 44.867188 C 20.691406 45.066406 20.652344 45.96875 20.4375 46.144531 C 20.316406 46.25 19.21875 46.292969 16.730469 46.265625 C 13.210938 46.226562 13.199219 46.226562 13.15625 45.929688 C 13.105469 45.605469 12.730469 45.644531 12.730469 45.96875 C 12.730469 46.128906 11.710938 46.15625 6.371094 46.15625 L 0.0117188 46.15625 L 0.0117188 45.160156 C 0.0117188 44.019531 -0.09375 44.113281 1.605469 43.921875 C 2.277344 43.855469 2.8125 43.65625 4.269531 42.929688 C 6.332031 41.878906 6.210938 41.878906 7.601562 42.875 L 8.460938 43.464844 L 9.222656 43.25 C 9.636719 43.117188 10.238281 43.007812 10.5625 43.007812 C 10.910156 42.996094 11.121094 42.929688 11.121094 42.832031 C 11.121094 42.550781 11.472656 42.644531 11.632812 42.96875 C 11.765625 43.25 11.777344 43.238281 11.777344 42.808594 L 11.792969 42.347656 L 12.703125 42.441406 C 13.199219 42.496094 14.027344 42.617188 14.535156 42.710938 L 15.472656 42.875 L 15.511719 42.550781 C 15.539062 42.347656 15.621094 42.253906 15.742188 42.308594 C 15.847656 42.347656 15.941406 42.320312 15.96875 42.269531 C 15.996094 42.175781 21.507812 40.332031 23.769531 39.644531 C 24.144531 39.535156 24.332031 39.441406 24.214844 39.441406 C 23.769531 39.414062 23.945312 39.039062 24.414062 39 C 24.894531 38.957031 24.574219 38.863281 20.625 38.015625 C 16.945312 37.207031 16.167969 37.007812 15.980469 36.765625 C 15.886719 36.644531 15.808594 36.253906 15.808594 35.902344 L 15.808594 35.257812 L 16.316406 35.257812 C 16.582031 35.269531 17.078125 35.324219 17.414062 35.390625 C 17.75 35.472656 18.832031 35.675781 19.824219 35.863281 C 20.8125 36.050781 23.074219 36.46875 24.84375 36.804688 C 26.609375 37.140625 28.628906 37.503906 29.324219 37.625 C 30.023438 37.734375 30.796875 37.882812 31.039062 37.960938 C 31.28125 38.042969 31.519531 38.070312 31.5625 38.03125 C 31.613281 37.988281 31.574219 37.949219 31.496094 37.949219 C 31.402344 37.949219 31.332031 37.839844 31.332031 37.691406 C 31.332031 37.410156 31.589844 37.316406 35.015625 36.414062 C 38.242188 35.566406 43.488281 34.316406 43.835938 34.316406 C 43.957031 34.316406 44.117188 34.167969 44.183594 33.980469 C 44.277344 33.722656 44.410156 33.644531 44.71875 33.644531 C 44.933594 33.644531 45.121094 33.710938 45.121094 33.777344 C 45.121094 33.859375 45.054688 33.910156 44.960938 33.910156 C 44.878906 33.910156 44.839844 33.9375 44.867188 33.980469 C 44.90625 34.007812 46.527344 33.710938 48.464844 33.304688 C 50.421875 32.914062 51.90625 32.578125 51.785156 32.578125 C 51.652344 32.566406 51.546875 32.472656 51.546875 32.363281 C 51.546875 32.214844 51.707031 32.164062 52.121094 32.148438 C 52.816406 32.136719 51.917969 31.90625 44.851562 30.332031 C 41.71875 29.644531 39.203125 29.066406 38.9375 28.988281 C 38.5625 28.878906 37.890625 27.558594 37.890625 26.925781 L 37.890625 26.375 L 38.535156 26.363281 L 39.164062 26.347656 L 38.667969 26.214844 C 38.171875 26.078125 37.960938 25.703125 38.375 25.703125 C 38.480469 25.703125 38.546875 25.648438 38.507812 25.582031 C 38.46875 25.527344 39.058594 25.3125 39.804688 25.125 C 42.054688 24.558594 44.785156 23.710938 44.410156 23.699219 C 44.277344 23.683594 44.195312 23.628906 44.238281 23.5625 C 44.277344 23.507812 44.691406 23.414062 45.160156 23.386719 C 45.628906 23.347656 46.125 23.253906 46.269531 23.160156 C 46.40625 23.078125 47.195312 22.742188 47.996094 22.417969 C 50.113281 21.585938 50.984375 21.167969 55.613281 18.855469 C 60.835938 16.242188 62.828125 15.03125 64.367188 13.539062 C 65.492188 12.449219 65.894531 11.761719 65.839844 11.007812 C 65.800781 10.523438 65.734375 10.402344 65.410156 10.242188 C 64.648438 9.878906 61.019531 10.496094 55.558594 11.921875 C 52.507812 12.71875 50.542969 12.972656 49.964844 12.664062 C 48.722656 12.003906 50.59375 9.570312 54.4375 6.851562 C 55 6.433594 58.4375 4.441406 58.570312 4.441406 C 58.597656 4.441406 59.308594 4.105469 60.164062 3.703125 C 61.746094 2.960938 65.277344 1.507812 67.070312 0.875 C 67.621094 0.671875 68.289062 0.417969 68.542969 0.296875 C 68.90625 0.121094 69.480469 0.0546875 70.953125 0.0273438 C 72.921875 -0.0273438 73.214844 0.0390625 72.144531 0.257812 C 71.167969 0.457031 65.128906 2.652344 62.722656 3.6875 C 57.59375 5.894531 54.277344 7.925781 51.824219 10.375 C 50.085938 12.113281 50.449219 12.152344 55.640625 10.832031 C 63.070312 8.9375 66.175781 8.585938 67.246094 9.554688 C 67.648438 9.90625 67.671875 10 67.671875 10.792969 C 67.660156 11.480469 67.59375 11.789062 67.273438 12.367188 C 66.882812 13.066406 65.425781 14.667969 64.582031 15.300781 C 64.367188 15.460938 63.886719 15.839844 63.523438 16.121094 C 61.675781 17.546875 56.511719 20.347656 53.378906 21.613281 C 52.65625 21.894531 52.160156 22.152344 52.28125 22.175781 C 52.386719 22.203125 52.480469 22.3125 52.480469 22.417969 C 52.480469 22.566406 52.226562 22.609375 51.289062 22.609375 C 50.421875 22.609375 50.03125 22.660156 49.898438 22.796875 C 49.75 22.945312 49.671875 22.957031 49.550781 22.835938 C 49.445312 22.730469 49.402344 22.757812 49.402344 22.972656 C 49.402344 23.199219 49.203125 23.335938 48.238281 23.683594 C 45.9375 24.519531 43.820312 25.191406 42.324219 25.582031 C 40.835938 25.957031 40.421875 26.105469 40.890625 26.105469 C 41.011719 26.105469 41.078125 26.175781 41.039062 26.242188 C 40.996094 26.320312 40.582031 26.390625 40.128906 26.390625 C 39.671875 26.402344 39.484375 26.441406 39.699219 26.46875 C 39.925781 26.496094 40.570312 26.617188 41.144531 26.726562 C 41.707031 26.832031 42.671875 27.007812 43.285156 27.117188 C 43.890625 27.222656 45.46875 27.535156 46.792969 27.789062 C 48.117188 28.042969 50.378906 28.460938 51.8125 28.730469 C 56.710938 29.632812 57.367188 29.753906 57.902344 29.875 C 58.195312 29.941406 58.894531 30.0625 59.441406 30.144531 C 59.992188 30.222656 60.6875 30.34375 60.980469 30.414062 C 62.359375 30.722656 62.359375 30.722656 62.292969 30.386719 C 62.238281 30.117188 62.304688 30.050781 62.746094 29.929688 C 70.148438 27.800781 76.039062 24.964844 79.050781 22.054688 C 80.589844 20.5625 80.925781 19.875 81.257812 17.480469 C 81.714844 14.277344 81.78125 13.929688 82.167969 12.972656 C 82.90625 11.144531 84.390625 9.367188 86.679688 7.589844 C 88.5 6.164062 91.96875 4.011719 95.046875 2.394531 C 97.964844 0.863281 98.578125 0.511719 98.875 0.257812 C 99.019531 0.109375 99.34375 0 99.570312 0 C 99.984375 0 99.996094 0.0273438 99.996094 0.527344 L 99.996094 1.050781 L 98.097656 2.003906 C 97.039062 2.53125 95.796875 3.175781 95.3125 3.445312 C 94.832031 3.714844 94.203125 4.066406 93.90625 4.210938 C 93.613281 4.359375 92.851562 4.804688 92.207031 5.207031 C 91.566406 5.597656 91.003906 5.921875 90.964844 5.921875 C 90.882812 5.921875 88.863281 7.292969 87.390625 8.355469 C 86.386719 9.070312 84.660156 10.792969 84.03125 11.722656 C 83.132812 13.039062 82.90625 13.929688 82.664062 17.035156 C 82.542969 18.597656 82.355469 20.078125 82.25 20.429688 C 81.941406 21.328125 81.273438 22.296875 80.027344 23.628906 C 77.511719 26.296875 73.28125 28.40625 66.335938 30.464844 C 65.972656 30.574219 65.773438 30.667969 65.90625 30.667969 C 66.027344 30.683594 66.132812 30.777344 66.132812 30.871094 C 66.132812 31.019531 65.933594 31.085938 65.4375 31.113281 C 64.753906 31.152344 64.78125 31.167969 66.066406 31.394531 C 66.804688 31.515625 68.195312 31.773438 69.144531 31.960938 C 70.109375 32.148438 71.460938 32.390625 72.15625 32.511719 C 72.933594 32.648438 73.535156 32.820312 73.695312 32.96875 C 74.058594 33.292969 74.605469 33.375 74.820312 33.132812 C 74.96875 32.984375 75.195312 32.96875 75.851562 33.035156 L 76.679688 33.117188 L 77.164062 32.605469 C 77.417969 32.324219 77.644531 31.972656 77.644531 31.824219 C 77.660156 31.679688 77.925781 31.339844 78.289062 31.058594 L 78.917969 30.546875 L 82.867188 30.546875 L 82.867188 30.199219 C 82.867188 30.007812 82.917969 29.886719 83 29.941406 C 83.066406 29.980469 83.292969 29.941406 83.496094 29.835938 C 83.707031 29.714844 84.390625 29.390625 85.019531 29.09375 C 86.089844 28.597656 86.226562 28.488281 87.09375 27.386719 C 88.03125 26.1875 89.597656 24.894531 90.121094 24.894531 C 90.265625 24.894531 90.910156 25.042969 91.566406 25.230469 C 92.222656 25.421875 92.835938 25.570312 92.945312 25.570312 C 93.144531 25.570312 94.722656 24.707031 95.621094 24.113281 C 95.929688 23.898438 96.476562 23.242188 97.082031 22.324219 C 97.910156 21.074219 98.175781 20.777344 98.953125 20.253906 C 99.449219 19.917969 99.890625 19.648438 99.929688 19.648438 C 99.972656 19.648438 99.996094 25.648438 99.996094 32.984375 L 99.996094 46.332031 L 99.382812 46.238281 C 99.035156 46.199219 97.710938 46.15625 96.4375 46.15625 C 94.511719 46.15625 94.109375 46.128906 94.109375 45.96875 C 94.109375 45.863281 94.1875 45.753906 94.28125 45.726562 C 94.402344 45.699219 94.429688 45.578125 94.363281 45.351562 C 94.269531 45.039062 94.269531 45.027344 94.257812 45.308594 C 94.242188 45.726562 93.867188 45.566406 93.800781 45.109375 L 93.746094 44.746094 L 93.71875 45.121094 C 93.71875 45.324219 93.652344 45.484375 93.574219 45.484375 C 93.507812 45.484375 93.4375 45.808594 93.4375 46.199219 L 93.4375 46.898438 L 96.71875 46.855469 L 99.996094 46.816406 L 99.996094 48.984375 L 97.1875 48.984375 L 97.375 49.292969 C 97.640625 49.710938 97.75 50.8125 97.601562 51.59375 L 97.480469 52.253906 L 98.738281 52.171875 L 99.996094 52.09375 L 99.996094 54.097656 L 73.738281 54.070312 C 59.28125 54.054688 47.195312 54.03125 46.859375 54.003906 Z M 95.820312 49.265625 C 95.984375 48.996094 95.96875 48.984375 95.378906 48.984375 L 94.765625 48.984375 L 95.046875 49.28125 C 95.191406 49.441406 95.3125 49.695312 95.3125 49.84375 C 95.3125 50.128906 95.3125 50.128906 95.488281 49.84375 C 95.566406 49.683594 95.726562 49.425781 95.820312 49.265625 Z M 14.976562 44.582031 L 15.847656 44.367188 L 15.191406 44.207031 C 14.832031 44.113281 14.335938 44.003906 14.109375 43.964844 C 13.664062 43.882812 13.664062 43.882812 13.664062 44.421875 C 13.664062 44.878906 13.707031 44.960938 13.894531 44.890625 C 14.015625 44.839844 14.496094 44.703125 14.976562 44.582031 Z M 17.519531 43.101562 C 17.386719 43.074219 17.144531 43.074219 16.984375 43.101562 C 16.8125 43.128906 16.917969 43.15625 17.210938 43.15625 C 17.507812 43.171875 17.640625 43.144531 17.519531 43.101562 Z M 93.4375 42.660156 C 93.4375 42.46875 93.347656 42.390625 93.144531 42.390625 C 92.878906 42.390625 92.863281 42.402344 93.105469 42.660156 C 93.238281 42.808594 93.371094 42.929688 93.398438 42.929688 C 93.414062 42.929688 93.4375 42.808594 93.4375 42.660156 Z M 94.027344 42.46875 C 94.347656 42.09375 96.382812 40.640625 96.613281 40.640625 C 96.746094 40.640625 97.039062 40.761719 97.253906 40.910156 C 97.480469 41.058594 97.75 41.179688 97.855469 41.179688 C 97.964844 41.179688 98.445312 40.773438 98.941406 40.289062 C 99.648438 39.578125 99.8125 39.347656 99.757812 39.078125 C 99.675781 38.636719 99.421875 38.675781 98.765625 39.253906 C 97.667969 40.210938 97.789062 40.167969 97.253906 39.847656 C 96.988281 39.699219 96.679688 39.5625 96.558594 39.5625 C 96.371094 39.5625 94.1875 41.109375 93.464844 41.757812 L 93.171875 42.039062 L 93.464844 42.347656 C 93.800781 42.710938 93.828125 42.710938 94.027344 42.46875 Z M 89.730469 40.746094 C 89.371094 40.574219 89.332031 40.277344 89.652344 40.210938 C 89.824219 40.183594 89.746094 40.074219 89.355469 39.847656 C 88.902344 39.578125 88.863281 39.578125 89.0625 39.792969 C 89.183594 39.941406 89.289062 40.101562 89.289062 40.140625 C 89.289062 40.304688 88.820312 40.25 88.648438 40.074219 C 88.527344 39.953125 88.488281 40.019531 88.488281 40.410156 L 88.488281 40.910156 L 89.261719 40.894531 C 89.90625 40.894531 89.984375 40.867188 89.730469 40.746094 Z M 87.015625 38.539062 C 87.015625 38.203125 87 38.203125 86.25 38.296875 C 85.382812 38.394531 85.167969 38.488281 85.757812 38.488281 C 85.96875 38.5 86.292969 38.582031 86.480469 38.6875 C 86.949219 38.957031 87.015625 38.945312 87.015625 38.539062 Z M 75.890625 38.40625 C 75.917969 38.378906 75.597656 38.351562 75.167969 38.351562 C 74.5 38.351562 74.324219 38.296875 74.003906 37.988281 L 73.628906 37.625 L 73.628906 37.988281 C 73.628906 38.285156 73.5625 38.351562 73.269531 38.378906 C 73.015625 38.394531 73.082031 38.417969 73.496094 38.488281 C 74.058594 38.582031 75.769531 38.515625 75.890625 38.40625 Z M 73.441406 36.671875 C 73.402344 36.5625 73.308594 36.46875 73.242188 36.46875 C 73.175781 36.46875 73.1875 36.617188 73.269531 36.804688 C 73.429688 37.140625 73.578125 37.019531 73.441406 36.671875 Z M 89.558594 36.710938 C 89.558594 36.550781 89.542969 36.453125 89.519531 36.480469 C 89.503906 36.507812 89.398438 36.644531 89.304688 36.777344 C 89.144531 36.964844 89.15625 37.007812 89.34375 37.007812 C 89.476562 37.007812 89.558594 36.898438 89.558594 36.710938 Z M 87.175781 35.433594 C 87.511719 35.121094 87.484375 34.785156 87.066406 34.515625 C 86.761719 34.316406 86.707031 34.316406 86.398438 34.515625 C 86.023438 34.757812 85.984375 35.136719 86.292969 35.445312 C 86.558594 35.726562 86.867188 35.714844 87.175781 35.433594 Z M 95.941406 33.414062 C 95.914062 33.199219 95.890625 33.347656 95.890625 33.710938 C 95.890625 34.085938 95.914062 34.25 95.941406 34.085938 C 95.96875 33.910156 95.96875 33.617188 95.941406 33.414062 Z M 90.816406 32.914062 C 90.921875 32.726562 91.191406 32.550781 91.390625 32.527344 C 91.6875 32.484375 91.660156 32.472656 91.257812 32.445312 C 90.976562 32.445312 90.628906 32.378906 90.496094 32.296875 C 90.308594 32.1875 90.242188 32.230469 90.1875 32.457031 C 90.105469 32.753906 90.292969 33.238281 90.480469 33.238281 C 90.546875 33.238281 90.695312 33.089844 90.816406 32.914062 Z M 95.378906 32.429688 C 95.234375 32.363281 94.363281 32.324219 93.4375 32.324219 C 91.472656 32.335938 92.035156 32.484375 94.175781 32.527344 C 95.113281 32.539062 95.554688 32.511719 95.378906 32.429688 Z M 86.921875 32.066406 C 86.960938 32 86.558594 31.972656 86.039062 32 C 84.40625 32.054688 84.21875 32.121094 85.570312 32.136719 C 86.277344 32.148438 86.894531 32.121094 86.921875 32.066406 Z M 89.128906 30.050781 C 88.914062 30.023438 88.59375 30.023438 88.394531 30.050781 C 88.179688 30.078125 88.351562 30.101562 88.753906 30.101562 C 89.15625 30.101562 89.332031 30.078125 89.128906 30.050781 Z M 89.128906 30.050781 "
  />
  <path
    d="M 0.0117188 49.628906 L 0.0117188 48.847656 L 17.519531 48.917969 C 27.144531 48.941406 35.722656 48.96875 36.59375 48.984375 L 38.160156 48.984375 L 38.160156 49.523438 C 38.160156 49.859375 38.09375 50.058594 38 50.058594 C 37.90625 50.058594 36.5 50.152344 34.878906 50.261719 C 32.511719 50.421875 28.738281 50.449219 15.96875 50.4375 L 0.0117188 50.410156 Z M 0.0390625 33.765625 L 0.0664062 32.808594 L 0.640625 32.902344 C 1.003906 32.957031 1.21875 32.929688 1.21875 32.847656 C 1.21875 32.648438 3.210938 31.730469 5.179688 31.046875 C 9.328125 29.605469 13.828125 28.71875 21.496094 27.871094 C 28.65625 27.0625 30.972656 26.78125 31.054688 26.699219 C 31.078125 26.671875 31 26.644531 30.867188 26.644531 C 30.664062 26.644531 30.652344 26.605469 30.773438 26.484375 C 31.011719 26.242188 33.609375 26.753906 33.609375 27.046875 C 33.609375 27.222656 33.355469 27.304688 32.378906 27.453125 C 31.695312 27.546875 30.679688 27.640625 30.128906 27.667969 C 29.582031 27.695312 28.882812 27.777344 28.589844 27.855469 C 28.296875 27.921875 27.746094 27.992188 27.359375 27.992188 C 26.742188 27.992188 26.675781 28.019531 26.742188 28.261719 C 26.796875 28.476562 26.742188 28.527344 26.449219 28.527344 C 26.128906 28.527344 26.101562 28.503906 26.261719 28.3125 C 26.449219 28.085938 26.675781 28.070312 23.636719 28.394531 C 22.980469 28.460938 21.710938 28.582031 20.828125 28.664062 C 19.945312 28.757812 18.589844 28.90625 17.816406 29 C 17.039062 29.109375 15.6875 29.296875 14.804688 29.402344 C 11.257812 29.886719 7.160156 30.976562 4.832031 32.066406 C 4.203125 32.363281 3.453125 32.671875 3.160156 32.78125 C 2.863281 32.875 2.730469 32.957031 2.863281 32.957031 C 3.265625 32.96875 2.972656 33.238281 2.542969 33.238281 C 2.328125 33.238281 2.15625 33.304688 2.15625 33.375 C 2.15625 33.453125 2.074219 33.507812 1.996094 33.507812 C 1.902344 33.507812 1.40625 33.777344 0.910156 34.113281 L 0 34.707031 Z M 34.011719 26.589844 C 34.011719 26.011719 34.050781 25.835938 34.210938 25.835938 C 34.320312 25.835938 34.414062 25.933594 34.414062 26.039062 C 34.414062 26.175781 34.519531 26.214844 34.789062 26.160156 C 36.234375 25.890625 37.238281 25.757812 37.277344 25.824219 C 37.304688 25.863281 37.238281 26.09375 37.144531 26.320312 C 36.980469 26.699219 36.886719 26.753906 35.859375 26.96875 C 33.769531 27.398438 34.011719 27.453125 34.011719 26.589844 Z M 34.011719 26.589844 "
  />
  <path
    style="stroke: none; fill-rule: nonzero; fill: rgb(58.823529%, 55.294118%, 34.509804%); fill-opacity: 1"
    d="M 0.0117188 54.042969 L 0.0117188 50.085938 L 0.457031 50.019531 C 0.683594 49.992188 7.871094 49.964844 16.410156 49.980469 C 28.214844 50.007812 32.617188 49.964844 34.8125 49.832031 C 37.542969 49.65625 37.890625 49.617188 37.730469 49.453125 C 37.703125 49.414062 29.324219 49.359375 19.140625 49.332031 C 8.953125 49.304688 0.480469 49.265625 0.320312 49.265625 C 0.0117188 49.253906 0.0117188 49.226562 0.0117188 47.503906 L 0.0117188 45.753906 L 6.304688 45.753906 C 11.804688 45.753906 12.59375 45.726562 12.59375 45.550781 C 12.59375 45.445312 12.6875 45.351562 12.796875 45.351562 C 12.902344 45.351562 12.996094 45.457031 12.996094 45.59375 C 12.996094 45.726562 13.144531 45.984375 13.316406 46.144531 C 13.652344 46.453125 13.652344 46.453125 17.386719 46.414062 C 20.707031 46.359375 21.160156 46.386719 21.375 46.574219 C 22.152344 47.261719 21.738281 47.234375 32.726562 47.234375 C 40.316406 47.234375 43.058594 47.195312 43.339844 47.074219 C 43.863281 46.855469 44.851562 45.875 44.851562 45.59375 C 44.851562 45.445312 44.945312 45.351562 45.121094 45.351562 C 45.265625 45.351562 45.386719 45.445312 45.386719 45.550781 C 45.386719 45.714844 45.601562 45.753906 46.5 45.753906 C 47.179688 45.753906 47.675781 45.6875 47.769531 45.59375 C 47.890625 45.472656 47.929688 45.566406 47.929688 46.0625 C 47.929688 46.65625 47.984375 46.761719 48.640625 47.4375 C 49.1875 48.015625 49.445312 48.175781 49.765625 48.175781 C 50.003906 48.175781 50.273438 48.285156 50.421875 48.457031 L 50.675781 48.742188 L 70.820312 48.648438 L 90.964844 48.539062 L 91.511719 48.230469 C 91.804688 48.054688 92.261719 47.90625 92.503906 47.90625 C 92.929688 47.90625 92.945312 47.921875 92.691406 48.109375 C 92.195312 48.484375 92.742188 48.578125 95.714844 48.554688 C 97.292969 48.554688 98.914062 48.554688 99.300781 48.566406 L 99.996094 48.578125 L 99.996094 50.515625 C 99.996094 52.777344 100.132812 52.617188 98.21875 52.617188 C 96.90625 52.617188 96.757812 52.507812 97.054688 51.808594 C 97.402344 50.949219 97.121094 49.386719 96.613281 49.386719 C 96.332031 49.386719 95.890625 50.085938 95.796875 50.664062 C 95.726562 51.015625 95.769531 51.40625 95.914062 51.796875 C 96.023438 52.117188 96.117188 52.429688 96.117188 52.496094 C 96.117188 52.699219 94.777344 52.644531 94.699219 52.441406 C 94.65625 52.335938 94.722656 51.972656 94.84375 51.621094 C 95.097656 50.855469 95.019531 50.085938 94.617188 49.667969 C 94.308594 49.320312 94.148438 49.347656 93.800781 49.804688 C 93.4375 50.300781 93.359375 51.148438 93.625 51.824219 C 93.746094 52.132812 93.800781 52.441406 93.746094 52.496094 C 93.695312 52.550781 85.421875 52.628906 75.371094 52.65625 C 55.722656 52.710938 46.058594 52.914062 46.058594 53.289062 C 46.058594 53.34375 46.164062 53.449219 46.296875 53.503906 C 46.417969 53.570312 58.558594 53.640625 73.269531 53.667969 L 99.996094 53.707031 L 99.996094 58 L 0.0117188 58 Z M 93.039062 47.53125 C 93.039062 47.300781 93.171875 47.019531 93.371094 46.832031 C 93.625 46.589844 93.707031 46.371094 93.707031 45.929688 C 93.707031 45.429688 93.746094 45.351562 93.988281 45.351562 C 94.1875 45.351562 94.242188 45.417969 94.1875 45.550781 C 94.121094 45.726562 94.46875 45.753906 96.757812 45.753906 C 98.203125 45.753906 99.53125 45.792969 99.703125 45.835938 C 99.957031 45.914062 99.996094 46.007812 99.996094 46.574219 L 99.996094 47.234375 L 97.011719 47.234375 C 94.042969 47.234375 94.042969 47.234375 93.53125 47.570312 L 93.039062 47.921875 Z M 31.265625 42.929688 C 31.226562 42.859375 30.972656 42.792969 30.71875 42.792969 C 30.371094 42.792969 30.261719 42.738281 30.261719 42.550781 C 30.261719 42.132812 32.164062 41.785156 32.3125 42.175781 C 32.363281 42.296875 32.242188 42.390625 31.964844 42.457031 L 31.535156 42.550781 L 32.042969 42.6875 C 32.3125 42.765625 32.539062 42.875 32.539062 42.941406 C 32.539062 43.101562 31.375 43.089844 31.265625 42.929688 Z M 31.265625 42.929688 "
  />
  <path
    style="stroke: none; fill-rule: nonzero; fill: rgb(90.588235%, 90.588235%, 72.54902%); fill-opacity: 1"
    d="M 50.019531 48.863281 C 49.859375 48.6875 49.605469 48.578125 49.363281 48.578125 C 49.042969 48.578125 48.789062 48.417969 48.238281 47.839844 C 47.597656 47.179688 47.53125 47.046875 47.53125 46.507812 C 47.53125 45.941406 47.703125 45.566406 48.652344 44.191406 C 48.867188 43.882812 49.417969 43.707031 52.949219 42.847656 C 56.804688 41.917969 60.78125 40.949219 62.789062 40.453125 C 63.777344 40.210938 66.523438 39.523438 68.878906 38.945312 C 71.234375 38.367188 73.175781 37.882812 73.1875 37.882812 C 73.214844 37.867188 73.109375 37.597656 72.949219 37.289062 L 72.679688 36.722656 L 71.917969 36.804688 C 71.328125 36.871094 70.820312 36.820312 69.707031 36.535156 C 68.90625 36.347656 68.007812 36.132812 67.699219 36.066406 C 67.042969 35.929688 64.675781 35.40625 62.585938 34.933594 C 61.785156 34.757812 60.003906 34.355469 58.640625 34.058594 C 55.398438 33.332031 54.757812 33.183594 53.566406 32.847656 C 53.015625 32.6875 52.402344 32.566406 52.1875 32.566406 C 51.972656 32.566406 51.371094 32.445312 50.835938 32.308594 C 50.3125 32.175781 48.976562 31.867188 47.863281 31.625 C 46.765625 31.394531 45.375 31.085938 44.785156 30.9375 C 44.195312 30.804688 43.421875 30.628906 43.046875 30.546875 C 42.683594 30.480469 41.558594 30.238281 40.570312 30.007812 C 38.507812 29.539062 38.253906 29.375 37.613281 28.097656 C 37.117188 27.117188 37.117188 26.578125 37.585938 26.078125 C 37.972656 25.664062 38.226562 25.636719 39.351562 25.835938 C 39.765625 25.90625 41.039062 26.132812 42.175781 26.320312 C 44.71875 26.753906 46.390625 27.0625 48.667969 27.492188 C 56.082031 28.90625 59.039062 29.457031 61.183594 29.808594 C 61.878906 29.929688 62.574219 30.078125 62.722656 30.144531 C 63.164062 30.34375 64.007812 30.535156 64.929688 30.613281 C 65.410156 30.667969 66.949219 30.925781 68.34375 31.179688 C 69.75 31.449219 71.476562 31.757812 72.183594 31.878906 C 72.894531 32 73.589844 32.203125 73.722656 32.308594 C 74.03125 32.578125 74.539062 32.714844 74.648438 32.550781 C 74.6875 32.484375 75.15625 32.429688 75.691406 32.429688 C 76.667969 32.429688 76.976562 32.296875 76.976562 31.894531 C 76.976562 31.664062 78.339844 30.265625 78.808594 30.023438 C 78.984375 29.929688 79.878906 29.875 81.046875 29.875 C 82.773438 29.875 83.011719 29.902344 83.226562 30.128906 C 83.359375 30.265625 83.667969 30.480469 83.910156 30.601562 C 84.164062 30.734375 84.457031 31.019531 84.578125 31.234375 C 84.804688 31.625 84.832031 31.625 85.730469 31.597656 L 86.667969 31.558594 L 86.988281 30.75 C 87.160156 30.304688 87.402344 29.859375 87.523438 29.78125 C 87.644531 29.671875 88.152344 29.605469 88.78125 29.605469 C 89.796875 29.605469 89.839844 29.617188 90.078125 30.007812 C 90.214844 30.238281 90.429688 30.804688 90.546875 31.273438 L 90.789062 32.136719 L 91.203125 32.015625 C 91.445312 31.945312 92.527344 31.894531 93.613281 31.894531 L 95.609375 31.894531 L 95.996094 32.285156 C 96.355469 32.648438 96.382812 32.753906 96.382812 33.695312 L 96.382812 34.707031 L 95.5 35.726562 C 95.019531 36.28125 94.441406 36.832031 94.214844 36.953125 C 93.507812 37.328125 90.707031 38.351562 90.402344 38.351562 C 90.242188 38.351562 89.90625 38.136719 89.652344 37.867188 L 89.195312 37.382812 L 88.3125 37.949219 C 87.816406 38.257812 87.417969 38.554688 87.417969 38.609375 C 87.417969 38.660156 87.671875 38.851562 87.976562 39.023438 C 88.285156 39.214844 88.742188 39.5625 88.996094 39.804688 C 89.25 40.035156 89.570312 40.238281 89.703125 40.238281 C 89.851562 40.238281 90.613281 40.625 91.417969 41.109375 C 92.207031 41.59375 92.917969 41.984375 92.996094 41.984375 C 93.066406 41.984375 93.277344 42.148438 93.480469 42.363281 C 93.988281 42.886719 94.28125 44.394531 94.164062 45.820312 C 94.054688 47.097656 93.90625 47.316406 92.367188 48.324219 L 91.363281 48.984375 L 85.058594 48.984375 C 81.59375 48.984375 72.34375 49.023438 64.515625 49.0625 L 50.273438 49.160156 Z M 73.027344 47.972656 C 83.039062 47.921875 91.246094 47.839844 91.269531 47.773438 C 91.296875 47.71875 91.644531 47.503906 92.046875 47.300781 C 92.785156 46.9375 93.144531 46.492188 92.996094 46.117188 C 92.929688 45.941406 90.441406 45.914062 73.09375 45.914062 C 62.199219 45.929688 53.230469 45.886719 53.191406 45.835938 C 53.136719 45.78125 53.164062 45.632812 53.230469 45.511719 C 53.367188 45.296875 53.886719 45.28125 59.160156 45.242188 C 63.699219 45.214844 64.957031 45.175781 65.011719 45.039062 C 65.035156 44.945312 64.984375 44.300781 64.875 43.601562 C 64.703125 42.441406 64.703125 42.308594 64.902344 42.160156 C 65.359375 41.785156 65.519531 42.078125 65.664062 43.601562 C 65.71875 44.152344 65.839844 44.746094 65.945312 44.917969 L 66.132812 45.214844 L 71.433594 45.214844 C 75.890625 45.214844 76.722656 45.1875 76.789062 45.027344 C 76.894531 44.757812 76.441406 41.691406 76.28125 41.488281 C 76.171875 41.351562 75.183594 41.3125 72.128906 41.3125 C 69.789062 41.3125 68.15625 41.257812 68.195312 41.191406 C 68.234375 41.125 68.703125 40.9375 69.226562 40.789062 C 70.082031 40.519531 70.457031 40.492188 73.269531 40.503906 C 83.601562 40.546875 88.113281 40.503906 88.058594 40.34375 C 87.964844 40.089844 85.785156 38.890625 85.394531 38.890625 C 85.140625 38.890625 85.019531 38.808594 84.96875 38.609375 C 84.832031 38.125 84.992188 37.988281 85.785156 37.894531 C 86.667969 37.789062 88.046875 37.128906 88.726562 36.507812 C 89.238281 36.023438 89.960938 35.890625 89.960938 36.265625 C 89.960938 36.683594 90.359375 37.277344 90.640625 37.277344 C 90.789062 37.277344 91.566406 37.019531 92.34375 36.722656 C 93.652344 36.210938 93.839844 36.089844 94.617188 35.269531 C 95.421875 34.421875 95.445312 34.371094 95.445312 33.683594 L 95.445312 32.96875 L 94.484375 32.957031 C 91.753906 32.914062 91.511719 32.941406 91.230469 33.304688 C 90.800781 33.832031 90.066406 33.777344 89.71875 33.210938 C 89.476562 32.835938 89.464844 32.742188 89.613281 32.457031 C 89.757812 32.175781 89.746094 32 89.558594 31.367188 L 89.316406 30.613281 L 88.742188 30.613281 C 88.113281 30.613281 88.097656 30.628906 87.5625 31.933594 L 87.296875 32.566406 L 83.949219 32.566406 L 83.816406 32.054688 C 83.695312 31.636719 83.5625 31.488281 83.066406 31.246094 C 82.542969 30.992188 82.238281 30.953125 80.882812 30.953125 L 79.320312 30.953125 L 78.6875 31.460938 C 78.316406 31.757812 78.058594 32.066406 78.046875 32.242188 C 78.046875 32.390625 77.871094 32.6875 77.644531 32.902344 C 77.257812 33.277344 77.03125 33.832031 76.695312 35.230469 C 76.546875 35.824219 76.5625 36.023438 76.734375 36.589844 C 76.949219 37.277344 76.867188 37.546875 76.480469 37.546875 C 76.253906 37.546875 75.769531 36.535156 75.785156 36.066406 C 75.785156 35.875 75.890625 35.3125 76.039062 34.785156 C 76.1875 34.273438 76.308594 33.777344 76.308594 33.695312 C 76.308594 33.453125 75.371094 33.386719 75.140625 33.617188 C 74.886719 33.871094 73.65625 33.722656 73.296875 33.375 C 73.121094 33.226562 72.574219 33.050781 71.757812 32.914062 C 71.058594 32.792969 70.03125 32.621094 69.480469 32.511719 C 68.933594 32.40625 67.484375 32.121094 66.269531 31.894531 C 65.050781 31.664062 63.285156 31.328125 62.320312 31.152344 C 60.125 30.734375 60.097656 30.722656 58.972656 30.546875 C 58.464844 30.464844 57.796875 30.34375 57.5 30.277344 C 56.964844 30.15625 56.28125 30.023438 51.410156 29.132812 C 49.980469 28.867188 47.71875 28.449219 46.390625 28.191406 C 45.066406 27.9375 43.472656 27.628906 42.84375 27.519531 C 42.214844 27.398438 41.253906 27.222656 40.703125 27.117188 C 38.894531 26.792969 38.292969 26.738281 38.292969 26.914062 C 38.292969 27.222656 39.109375 28.515625 39.339844 28.582031 C 39.605469 28.664062 42.214844 29.253906 45.253906 29.929688 C 46.472656 30.199219 47.972656 30.535156 48.601562 30.683594 C 51.773438 31.410156 55.347656 32.214844 56.363281 32.429688 C 58.195312 32.820312 59.871094 33.199219 62.722656 33.84375 C 64.195312 34.179688 66.09375 34.613281 66.9375 34.785156 C 67.78125 34.976562 68.597656 35.148438 68.746094 35.191406 C 70.589844 35.660156 71.488281 35.808594 71.996094 35.742188 C 72.398438 35.6875 72.773438 35.742188 73.28125 35.945312 C 73.992188 36.199219 74.003906 36.226562 73.949219 36.644531 C 73.882812 37.007812 73.949219 37.140625 74.324219 37.503906 C 74.699219 37.882812 74.875 37.933594 75.570312 37.976562 C 76.359375 38.015625 76.375 38.015625 76.414062 38.445312 L 76.453125 38.863281 L 75.210938 38.929688 C 74.527344 38.972656 73.671875 39 73.296875 39 C 72.90625 39 71.234375 39.335938 69.28125 39.820312 C 61.394531 41.785156 56.082031 43.089844 53.085938 43.800781 C 51.316406 44.234375 49.738281 44.664062 49.578125 44.757812 C 49.257812 44.960938 48.601562 46.128906 48.601562 46.507812 C 48.601562 46.855469 49.390625 47.503906 49.804688 47.503906 C 50.003906 47.503906 50.261719 47.597656 50.355469 47.71875 C 50.648438 48.082031 50.984375 48.136719 52.9375 48.09375 C 53.980469 48.082031 63.015625 48.027344 73.027344 47.972656 Z M 87.09375 45.011719 C 87.203125 44.730469 86.867188 41.691406 86.707031 41.488281 C 86.613281 41.351562 85.488281 41.3125 81.914062 41.3125 L 77.242188 41.3125 L 77.242188 41.824219 C 77.257812 42.46875 77.59375 44.890625 77.710938 45.082031 C 77.765625 45.160156 79.386719 45.214844 82.410156 45.214844 C 86.425781 45.214844 87.027344 45.1875 87.09375 45.011719 Z M 93.078125 45.148438 C 93.226562 45.082031 93.238281 44.917969 93.132812 44.234375 C 93.066406 43.777344 92.917969 43.292969 92.808594 43.171875 C 92.691406 43.035156 91.992188 42.578125 91.246094 42.121094 L 89.878906 41.3125 L 87.644531 41.3125 L 87.722656 42.363281 C 87.832031 43.695312 87.953125 44.839844 88.019531 45.054688 C 88.058594 45.175781 88.675781 45.214844 90.480469 45.214844 C 91.804688 45.214844 92.972656 45.1875 93.078125 45.148438 Z M 93.078125 45.148438 "
  />
  <path
    style="stroke: none; fill-rule: nonzero; fill: rgb(90.588235%, 90.588235%, 72.54902%); fill-opacity: 1"
    d="M 78.890625 37.25 C 78.824219 37.15625 78.6875 36.699219 78.609375 36.226562 C 78.460938 35.390625 78.476562 35.339844 78.957031 34.074219 C 79.414062 32.902344 79.492188 32.769531 79.828125 32.726562 C 80.027344 32.699219 80.1875 32.714844 80.1875 32.753906 C 80.1875 32.792969 79.972656 33.425781 79.71875 34.167969 L 79.238281 35.5 L 79.453125 36.332031 C 79.574219 36.777344 79.625 37.207031 79.585938 37.277344 C 79.464844 37.464844 79.039062 37.4375 78.890625 37.25 Z M 86.132812 36.039062 C 85.621094 35.796875 85.394531 34.976562 85.675781 34.4375 C 85.878906 34.085938 86.585938 33.738281 86.933594 33.832031 C 87.109375 33.871094 87.402344 34.058594 87.589844 34.234375 C 88.566406 35.148438 87.347656 36.644531 86.132812 36.039062 Z M 21.628906 47.410156 C 21.414062 47.300781 21.121094 47.113281 21 47.003906 C 20.8125 46.84375 20.144531 46.804688 17 46.832031 C 13.277344 46.84375 13.222656 46.84375 12.917969 46.546875 C 12.476562 46.128906 12.488281 45.375 12.929688 44.839844 C 13.117188 44.609375 13.265625 44.40625 13.265625 44.367188 C 13.265625 44.328125 12.917969 44.21875 12.5 44.125 C 11.566406 43.910156 11.121094 43.519531 11.121094 42.886719 C 11.121094 42.308594 11.699219 41.714844 12.273438 41.714844 C 12.78125 41.714844 15.527344 42.253906 15.914062 42.429688 C 16.222656 42.578125 16.878906 42.578125 18.804688 42.457031 C 19.582031 42.402344 20.035156 42.417969 20.128906 42.511719 C 20.210938 42.589844 20.371094 42.660156 20.492188 42.660156 C 20.773438 42.660156 21.429688 43.34375 21.429688 43.65625 C 21.429688 43.816406 21.507812 43.871094 21.671875 43.828125 C 21.789062 43.789062 22.566406 43.601562 23.371094 43.414062 C 24.1875 43.210938 26.488281 42.644531 28.507812 42.148438 L 32.175781 41.230469 L 31.386719 41.058594 C 30.945312 40.964844 30.0625 40.773438 29.394531 40.625 C 28.738281 40.464844 27.773438 40.25 27.25 40.140625 C 26.742188 40.035156 25.992188 39.820312 25.605469 39.683594 C 25.21875 39.535156 24.722656 39.429688 24.507812 39.429688 C 24.292969 39.429688 23.046875 39.1875 21.738281 38.890625 C 20.425781 38.582031 18.632812 38.191406 17.75 38.003906 C 16.25 37.691406 16.117188 37.640625 15.699219 37.183594 C 15.460938 36.898438 15.230469 36.550781 15.191406 36.375 C 15.136719 36.1875 15.003906 36.066406 14.855469 36.066406 C 14.667969 36.066406 14.601562 35.96875 14.601562 35.726562 C 14.601562 35.339844 14.949219 35.257812 15.042969 35.632812 C 15.097656 35.824219 15.113281 35.808594 15.125 35.582031 C 15.125 35.433594 15.273438 35.175781 15.445312 35.015625 C 15.847656 34.636719 16.757812 34.625 18.566406 34.976562 C 20.878906 35.433594 24.09375 36.039062 26.78125 36.535156 C 30.757812 37.261719 31.65625 37.4375 31.894531 37.558594 C 32.015625 37.625 32.523438 37.71875 33.035156 37.761719 C 33.527344 37.8125 34.078125 37.894531 34.25 37.960938 C 34.960938 38.230469 35.402344 38.109375 36.019531 37.476562 L 36.609375 36.871094 L 37.933594 36.871094 C 39.257812 36.871094 39.59375 36.953125 40.128906 37.4375 L 40.410156 37.707031 L 40.902344 37.15625 C 41.347656 36.671875 41.480469 36.601562 41.976562 36.601562 C 42.617188 36.601562 43.378906 37.113281 43.378906 37.546875 C 43.378906 37.746094 43.554688 37.789062 44.625 37.882812 C 46.203125 38.003906 46.457031 38.191406 46.457031 39.292969 C 46.457031 40.035156 46.445312 40.0625 45.695312 40.800781 C 44.785156 41.691406 44.167969 41.972656 43.125 42 C 42.710938 42.011719 42.523438 42.054688 42.699219 42.078125 C 43.167969 42.175781 44.8125 43.265625 45.066406 43.667969 C 45.226562 43.921875 45.308594 44.328125 45.308594 45.082031 L 45.320312 46.144531 L 44.785156 46.695312 C 43.820312 47.691406 44.542969 47.636719 32.6875 47.636719 C 23.222656 47.625 21.992188 47.597656 21.628906 47.410156 Z M 43.539062 46.332031 C 44.144531 46.078125 44.277344 45.808594 43.847656 45.699219 C 43.675781 45.660156 41.613281 45.621094 39.269531 45.621094 C 26.339844 45.644531 22.769531 45.605469 22.769531 45.484375 C 22.769531 45.402344 23.933594 45.335938 25.820312 45.324219 L 28.859375 45.28125 L 28.898438 44.609375 C 28.964844 43.316406 29.21875 43.265625 29.324219 44.515625 L 29.394531 45.28125 L 35.417969 45.28125 L 35.417969 43.128906 L 33.449219 43.089844 C 32.269531 43.074219 31.46875 42.996094 31.46875 42.929688 C 31.46875 42.847656 33.300781 42.792969 36.40625 42.792969 C 39.433594 42.792969 41.386719 42.738281 41.4375 42.660156 C 41.519531 42.523438 40.570312 41.984375 40.234375 41.984375 C 40.128906 41.984375 40.035156 41.863281 40.035156 41.714844 C 40.035156 41.527344 40.15625 41.433594 40.542969 41.367188 C 40.808594 41.328125 41.320312 41.109375 41.652344 40.894531 C 42.390625 40.425781 42.523438 40.410156 42.722656 40.789062 C 42.832031 41.003906 42.953125 41.058594 43.246094 40.988281 C 44.425781 40.761719 45.667969 39.671875 45.375 39.144531 C 45.199219 38.808594 43.796875 38.78125 43.246094 39.121094 C 42.738281 39.414062 42.441406 39.1875 42.441406 38.5 C 42.441406 38.230469 42.390625 37.933594 42.324219 37.839844 C 42.148438 37.546875 41.71875 37.707031 41.519531 38.152344 C 41.265625 38.6875 41.144531 38.757812 40.394531 38.757812 C 39.847656 38.757812 39.6875 38.6875 39.378906 38.367188 C 38.683594 37.613281 36.726562 37.707031 36.488281 38.5 C 36.351562 38.890625 35.910156 39.121094 35.054688 39.226562 C 34.492188 39.292969 34.210938 39.253906 33.984375 39.121094 C 33.808594 39.011719 33.074219 38.824219 32.335938 38.6875 C 31.601562 38.566406 30.824219 38.417969 30.597656 38.351562 C 30.382812 38.285156 29.621094 38.136719 28.925781 38.03125 C 28.230469 37.910156 26.207031 37.546875 24.441406 37.207031 C 22.675781 36.871094 20.410156 36.453125 19.421875 36.265625 C 18.429688 36.078125 17.347656 35.875 17.011719 35.796875 C 16.210938 35.632812 16.210938 35.632812 16.210938 35.902344 C 16.222656 36.535156 16.4375 36.617188 21.09375 37.625 C 22.351562 37.894531 24.238281 38.324219 25.3125 38.582031 C 26.382812 38.835938 27.800781 39.160156 28.457031 39.292969 C 29.125 39.441406 30.382812 39.710938 31.265625 39.898438 C 32.148438 40.074219 33.058594 40.238281 33.273438 40.238281 C 34.011719 40.238281 34.265625 40.382812 34.414062 40.855469 C 34.546875 41.246094 34.640625 41.328125 35.09375 41.394531 C 35.484375 41.460938 35.617188 41.542969 35.617188 41.730469 C 35.617188 41.957031 35.511719 41.984375 34.71875 41.984375 C 33.730469 41.984375 33.382812 42.054688 28.859375 43.195312 C 27.171875 43.628906 24.9375 44.179688 23.90625 44.40625 C 21.871094 44.878906 21.390625 45.132812 21.457031 45.742188 C 21.484375 45.984375 21.65625 46.171875 22.03125 46.386719 L 22.554688 46.683594 L 32.804688 46.613281 C 41.667969 46.546875 43.113281 46.519531 43.539062 46.332031 Z M 20.105469 45.671875 C 20.25 45.484375 20.238281 45.402344 19.917969 45.132812 C 19.714844 44.972656 19.449219 44.757812 19.328125 44.691406 C 19.101562 44.554688 19.101562 44.527344 19.328125 44.355469 C 19.476562 44.246094 19.664062 44.191406 19.769531 44.234375 C 19.96875 44.300781 20.359375 44.058594 20.359375 43.855469 C 20.359375 43.789062 20.210938 43.734375 20.023438 43.734375 C 19.835938 43.734375 19.6875 43.667969 19.6875 43.585938 C 19.6875 43.492188 19.542969 43.480469 19.300781 43.535156 C 19.074219 43.574219 18.777344 43.546875 18.632812 43.464844 C 18.417969 43.359375 18.269531 43.371094 18.003906 43.546875 C 17.628906 43.800781 17.480469 43.777344 13.410156 42.980469 C 12.261719 42.765625 12.152344 42.753906 12.246094 42.914062 C 12.300781 42.980469 12.917969 43.171875 13.640625 43.34375 C 16.917969 44.113281 17.332031 44.21875 17.375 44.355469 C 17.398438 44.433594 16.625 44.691406 15.648438 44.933594 C 13.878906 45.375 13.464844 45.539062 13.613281 45.765625 C 13.652344 45.835938 15.085938 45.886719 16.796875 45.886719 C 19.515625 45.886719 19.945312 45.863281 20.105469 45.671875 Z M 40.769531 44.207031 L 40.769531 43.128906 L 35.953125 43.128906 L 35.910156 44.058594 C 35.882812 44.570312 35.898438 45.066406 35.9375 45.175781 C 36.003906 45.324219 36.472656 45.351562 38.386719 45.324219 L 40.769531 45.28125 Z M 44.316406 45.09375 C 44.316406 44.515625 44.023438 44.113281 43.21875 43.585938 C 42.535156 43.144531 42.28125 43.0625 41.839844 43.089844 L 41.304688 43.128906 L 41.265625 43.9375 C 41.183594 45.390625 41.160156 45.351562 42.84375 45.351562 C 44.210938 45.351562 44.316406 45.335938 44.316406 45.09375 Z M 44.316406 45.09375 "
  />
  <path
    style="stroke: none; fill-rule: nonzero; fill: rgb(90.588235%, 90.588235%, 72.54902%); fill-opacity: 1"
    d="M 36.113281 40.84375 C 35.964844 40.480469 36.554688 39.105469 36.753906 39.320312 C 36.835938 39.402344 36.378906 41.042969 36.273438 41.042969 C 36.21875 41.042969 36.152344 40.949219 36.113281 40.84375 Z M 40.742188 40.371094 C 40.410156 40.238281 40.34375 39.847656 40.597656 39.589844 C 41.050781 39.132812 41.695312 39.726562 41.265625 40.210938 C 41.089844 40.425781 40.972656 40.453125 40.742188 40.371094 Z M 18.820312 34.855469 C 18.699219 34.652344 18.804688 34.542969 19.101562 34.613281 C 19.300781 34.652344 19.3125 34.664062 19.113281 34.828125 C 18.964844 34.949219 18.886719 34.960938 18.820312 34.855469 Z M 18.820312 34.855469 "
  />
  <path
    style="stroke: none; fill-rule: nonzero; fill: rgb(96.470588%, 94.901961%, 83.529412%); fill-opacity: 1"
    d="M 5.433594 41.691406 C 2.488281 41.097656 0.0546875 40.601562 0.0273438 40.558594 C 0 40.53125 0 40.480469 0.0273438 40.4375 C 0.105469 40.371094 10.722656 42.335938 10.816406 42.441406 C 11.121094 42.753906 10.078125 42.605469 5.433594 41.691406 Z M 14.738281 40.574219 C 14.738281 40.558594 14.644531 40.316406 14.523438 40.035156 L 14.320312 39.523438 L 14.855469 39.953125 C 15.164062 40.195312 15.40625 40.410156 15.40625 40.4375 C 15.40625 40.453125 15.257812 40.503906 15.070312 40.53125 C 14.882812 40.574219 14.738281 40.585938 14.738281 40.574219 Z M 16.757812 39.386719 L 15.230469 38.417969 L 15.886719 38.324219 C 17.253906 38.152344 17.507812 38.175781 17.65625 38.59375 C 17.722656 38.796875 17.910156 39.28125 18.070312 39.671875 C 18.214844 40.046875 18.335938 40.371094 18.308594 40.359375 C 18.296875 40.359375 17.601562 39.914062 16.757812 39.386719 Z M 11.164062 39.023438 C 10.347656 37.789062 10.28125 37.894531 12.101562 37.746094 L 13.144531 37.667969 L 12.527344 38.890625 C 12.195312 39.550781 11.914062 40.101562 11.886719 40.101562 C 11.871094 40.101562 11.539062 39.617188 11.164062 39.023438 Z M 29.378906 35.484375 C 28.925781 34.90625 28.789062 34.613281 28.65625 33.804688 C 28.578125 33.265625 28.535156 32.78125 28.578125 32.742188 C 28.617188 32.699219 29.097656 32.890625 29.660156 33.15625 C 30.464844 33.535156 30.664062 33.683594 30.625 33.871094 C 30.585938 34.007812 30.449219 34.585938 30.316406 35.164062 C 30.183594 35.726562 30.050781 36.199219 30.007812 36.199219 C 29.957031 36.199219 29.675781 35.875 29.378906 35.484375 Z M 8.578125 34.839844 C 5.300781 34.179688 2.113281 33.574219 1.5 33.496094 C 0.253906 33.347656 0.0117188 33.226562 0.0117188 32.742188 C 0.0117188 32.445312 0.0546875 32.417969 0.386719 32.484375 C 0.589844 32.527344 1.097656 32.59375 1.511719 32.632812 C 1.941406 32.671875 2.421875 32.769531 2.582031 32.835938 C 2.757812 32.914062 5.609375 33.507812 8.914062 34.152344 L 14.9375 35.339844 L 14.976562 35.703125 C 15.019531 35.984375 14.964844 36.066406 14.777344 36.050781 C 14.644531 36.050781 11.859375 35.5 8.578125 34.839844 Z M 24.28125 35.632812 L 23.71875 35.351562 L 24.855469 34.476562 C 25.484375 34.007812 26.019531 33.644531 26.035156 33.667969 C 26.113281 33.75 25.054688 35.929688 24.949219 35.917969 C 24.894531 35.917969 24.589844 35.78125 24.28125 35.632812 Z M 18.671875 34.492188 C 18.164062 33.277344 18.042969 33.398438 19.730469 33.347656 C 20.558594 33.320312 21.242188 33.304688 21.253906 33.304688 C 21.28125 33.320312 20.746094 33.695312 20.089844 34.152344 L 18.886719 34.988281 Z M 34.625 34.625 C 34.585938 34.410156 34.453125 33.398438 34.332031 32.363281 C 34.210938 31.328125 34.105469 30.453125 34.078125 30.425781 C 34.050781 30.414062 33.648438 30.789062 33.195312 31.273438 C 32.738281 31.773438 32.324219 32.148438 32.257812 32.136719 C 32.125 32.082031 29.207031 27.9375 29.273438 27.871094 C 29.300781 27.84375 29.980469 27.992188 30.8125 28.191406 C 32.296875 28.570312 32.3125 28.570312 32.660156 29.148438 C 32.847656 29.472656 33.074219 29.738281 33.167969 29.738281 C 33.261719 29.738281 33.917969 29.523438 34.625 29.269531 C 35.335938 29.011719 35.964844 28.796875 36.019531 28.796875 C 36.085938 28.796875 36.351562 29.472656 36.621094 30.277344 C 36.886719 31.097656 37.144531 31.757812 37.167969 31.757812 C 37.210938 31.757812 37.53125 31.609375 37.890625 31.421875 C 38.546875 31.085938 38.601562 31.085938 40.007812 31.21875 C 40.796875 31.289062 41.558594 31.355469 41.707031 31.367188 C 41.933594 31.367188 35.066406 34.960938 34.789062 34.976562 C 34.746094 34.988281 34.667969 34.828125 34.625 34.625 Z M 15.300781 33.816406 L 13.117188 33.078125 L 14.480469 32.148438 C 15.230469 31.636719 15.859375 31.234375 15.875 31.246094 C 16.035156 31.449219 17.628906 34.585938 17.574219 34.570312 C 17.519531 34.570312 16.503906 34.234375 15.300781 33.816406 Z M 44.144531 33.816406 C 44.089844 33.535156 44.023438 33.105469 43.96875 32.847656 L 43.875 32.40625 L 44.746094 32.984375 L 45.628906 33.574219 L 44.972656 33.9375 C 44.625 34.152344 44.304688 34.316406 44.277344 34.316406 C 44.238281 34.316406 44.183594 34.085938 44.144531 33.816406 Z M 9.878906 32.914062 L 9.371094 32.753906 L 10.050781 32.539062 L 10.734375 32.324219 L 10.640625 32.605469 C 10.519531 33.050781 10.441406 33.078125 9.878906 32.914062 Z M 22.605469 32.390625 L 22.394531 31.933594 L 23.117188 32.136719 L 23.839844 32.335938 L 23.476562 32.59375 C 22.953125 32.929688 22.847656 32.902344 22.605469 32.390625 Z M 18.03125 31.867188 C 17.800781 31.339844 17.855469 31.300781 18.925781 31.195312 L 19.570312 31.113281 L 19.261719 31.449219 C 19.085938 31.636719 18.792969 31.90625 18.578125 32.054688 L 18.214844 32.324219 Z M 26.316406 29.175781 C 26.019531 29.09375 25.753906 29.011719 25.726562 28.988281 C 25.660156 28.933594 26.570312 27.855469 26.6875 27.855469 C 26.757812 27.855469 26.769531 27.910156 26.730469 27.964844 C 26.703125 28.019531 26.78125 28.328125 26.929688 28.648438 C 27.0625 28.972656 27.183594 29.253906 27.183594 29.28125 C 27.183594 29.363281 26.917969 29.324219 26.316406 29.175781 Z M 32.269531 27.0625 C 31.722656 26.941406 31.171875 26.792969 31.066406 26.753906 C 30.960938 26.699219 23.972656 25.285156 15.539062 23.605469 C 7.105469 21.921875 0.1875 20.535156 0.160156 20.507812 C 0.0390625 20.402344 -0.0117188 19.109375 0.09375 19.109375 C 0.160156 19.109375 7.910156 20.628906 17.320312 22.5 L 34.414062 25.90625 L 34.414062 27.316406 L 33.851562 27.304688 C 33.527344 27.289062 32.820312 27.183594 32.269531 27.0625 Z M 50.929688 24.519531 C 50.421875 23.871094 49.777344 23.132812 49.511719 22.863281 L 49 22.378906 L 49.511719 22.296875 C 49.777344 22.246094 51.050781 22.21875 52.335938 22.203125 C 53.621094 22.203125 54.972656 22.164062 55.332031 22.125 C 55.761719 22.054688 55.976562 22.082031 55.921875 22.164062 C 55.882812 22.230469 54.945312 23.050781 53.847656 23.980469 L 51.851562 25.675781 Z M 37.796875 24.289062 C 37.277344 23.847656 37.222656 23.726562 36.957031 22.5 C 36.792969 21.789062 36.648438 21.113281 36.621094 21.019531 C 36.566406 20.898438 36.394531 20.9375 35.925781 21.179688 C 35.324219 21.476562 35.242188 21.585938 34.734375 22.757812 C 34.210938 23.96875 34.171875 24.035156 33.554688 24.277344 L 32.925781 24.546875 L 31.105469 22.703125 C 30.089844 21.691406 29.300781 20.832031 29.351562 20.792969 C 29.394531 20.75 29.726562 20.683594 30.101562 20.628906 C 30.773438 20.550781 30.796875 20.5625 31.480469 21.179688 C 31.855469 21.519531 32.230469 21.800781 32.324219 21.800781 C 32.5 21.800781 35.082031 21.035156 35.148438 20.964844 C 35.160156 20.953125 35.066406 19.929688 34.933594 18.707031 C 34.800781 17.496094 34.707031 16.472656 34.734375 16.457031 C 34.761719 16.417969 40.945312 19.21875 41.089844 19.339844 C 41.117188 19.363281 41.050781 19.726562 40.929688 20.144531 C 40.824219 20.574219 40.730469 20.9375 40.757812 20.953125 C 40.863281 21.074219 44.945312 23.253906 45.640625 23.5625 C 46.109375 23.777344 46.472656 23.980469 46.445312 24.007812 C 46.417969 24.046875 45.910156 23.980469 45.320312 23.871094 C 43.394531 23.507812 41.855469 23.28125 41.386719 23.28125 C 41.066406 23.28125 40.597656 23.496094 39.765625 24.019531 C 39.125 24.425781 38.546875 24.761719 38.46875 24.761719 C 38.402344 24.761719 38.09375 24.546875 37.796875 24.289062 Z M 24.519531 21.652344 C 24.199219 21.058594 23.972656 20.550781 23.984375 20.535156 C 24.011719 20.507812 24.816406 20.710938 25.765625 20.980469 L 27.492188 21.476562 L 26.300781 22.109375 L 25.097656 22.730469 Z M 17.585938 21.234375 C 17.050781 21.058594 17.039062 20.953125 17.519531 20.617188 C 18.191406 20.160156 18.191406 20.160156 18.242188 20.792969 C 18.285156 21.4375 18.269531 21.449219 17.585938 21.234375 Z M 28.335938 17.882812 L 26.085938 16.148438 L 28.695312 16.148438 C 31.121094 16.148438 31.308594 16.164062 31.253906 16.390625 C 31.226562 16.511719 31.078125 17.277344 30.933594 18.085938 C 30.785156 18.90625 30.636719 19.582031 30.625 19.59375 C 30.609375 19.605469 29.582031 18.839844 28.335938 17.882812 Z M 42.535156 17.628906 C 41.960938 17.117188 41.492188 16.660156 41.507812 16.59375 C 41.507812 16.5 45.898438 15.21875 46.230469 15.207031 C 46.285156 15.207031 45.777344 15.960938 45.09375 16.890625 C 44.410156 17.804688 43.796875 18.558594 43.714844 18.558594 C 43.648438 18.558594 43.113281 18.140625 42.535156 17.628906 Z M 49.457031 17.9375 C 49.644531 16.929688 49.589844 16.96875 50.40625 17.199219 C 50.808594 17.304688 51.144531 17.441406 51.144531 17.480469 C 51.144531 17.535156 50.742188 17.761719 50.261719 18.003906 L 49.375 18.449219 Z M 32.804688 13.859375 L 32.203125 13.335938 L 32.875 13.324219 L 33.554688 13.324219 L 33.503906 13.859375 C 33.476562 14.15625 33.433594 14.398438 33.421875 14.398438 C 33.421875 14.398438 33.140625 14.15625 32.804688 13.859375 Z M 17.988281 11.695312 C 14 11.289062 10.601562 8.597656 9.582031 5.058594 C 9.25 3.917969 9.289062 2.074219 9.652344 0.902344 L 9.929688 0 L 19.246094 0 C 24.375 0 28.535156 0.0273438 28.496094 0.0664062 C 28.457031 0.109375 28.535156 0.527344 28.683594 0.984375 C 29.019531 2.074219 29.046875 3.957031 28.722656 5.058594 C 28.324219 6.472656 27.613281 7.65625 26.449219 8.828125 C 25.566406 9.714844 25.136719 10.027344 24.105469 10.550781 C 22.113281 11.53125 20.089844 11.910156 17.988281 11.695312 Z M 41.519531 11.15625 C 40.503906 10.96875 39.484375 10.09375 39.097656 9.082031 C 38.84375 8.410156 38.894531 7.214844 39.230469 6.539062 C 39.792969 5.371094 40.890625 4.683594 42.203125 4.683594 C 44.023438 4.683594 45.414062 6.097656 45.414062 7.941406 C 45.414062 10.039062 43.59375 11.53125 41.519531 11.15625 Z M 41.519531 11.15625 "
  />
</svg>
