<svg xmlns="http://www.w3.org/2000/svg" id="root" viewBox="0 0 99 53">
  <g>
    <path
      d="M 74.863281 52.96875 C 66.113281 52.953125 48.183594 52.863281 46.859375 52.824219 C 45.917969 52.796875 45.792969 52.789062 45.710938 52.707031 C 45.664062 52.660156 45.628906 52.601562 45.628906 52.578125 C 45.628906 52.480469 46.753906 52.367188 48.507812 52.289062 C 52.097656 52.140625 57.214844 52.0625 67.472656 52.007812 C 82.296875 51.925781 91.53125 51.859375 92.1875 51.832031 L 92.820312 51.804688 L 92.800781 51.609375 C 92.789062 51.5 92.722656 51.226562 92.65625 50.996094 C 92.585938 50.769531 92.527344 50.46875 92.527344 50.332031 C 92.527344 50.007812 92.652344 49.519531 92.789062 49.285156 C 92.929688 49.046875 93.207031 48.792969 93.332031 48.792969 C 93.476562 48.792969 93.742188 49.0625 93.882812 49.351562 C 94.003906 49.589844 94.015625 49.671875 94.015625 50.09375 C 94.015625 50.460938 93.992188 50.644531 93.902344 50.917969 C 93.839844 51.113281 93.789062 51.390625 93.785156 51.535156 C 93.78125 51.789062 93.78125 51.792969 93.945312 51.851562 C 94.144531 51.917969 94.957031 51.929688 95.078125 51.863281 C 95.179688 51.8125 95.160156 51.691406 94.964844 51.121094 C 94.800781 50.640625 94.777344 50.34375 94.855469 49.945312 C 94.945312 49.53125 95.113281 49.1875 95.351562 48.9375 C 95.570312 48.707031 95.703125 48.691406 95.878906 48.882812 C 96.082031 49.09375 96.171875 49.453125 96.199219 50.097656 C 96.222656 50.625 96.21875 50.703125 96.097656 51.070312 C 95.847656 51.859375 95.882812 51.882812 97.347656 51.902344 C 98.625 51.921875 98.734375 51.898438 98.894531 51.582031 L 99 51.375 L 99 53 L 90.203125 52.992188 C 85.363281 52.980469 78.460938 52.972656 74.863281 52.96875 Z M 0.0546875 48.835938 C 0.0585938 48.511719 0.0703125 48.304688 0.0820312 48.375 C 0.125 48.636719 -0.0429688 48.625 3.941406 48.636719 C 13.5 48.660156 32.914062 48.75 35.039062 48.777344 C 36.722656 48.796875 37.410156 48.820312 37.394531 48.859375 C 37.355469 48.976562 36.316406 49.082031 33.796875 49.222656 C 33.277344 49.25 26.640625 49.289062 16.792969 49.3125 C 7.90625 49.332031 0.507812 49.363281 0.34375 49.382812 L 0.046875 49.421875 Z M 94.464844 47.890625 C 93.078125 47.875 91.882812 47.847656 91.808594 47.824219 C 91.589844 47.761719 91.570312 47.691406 91.738281 47.53125 C 91.976562 47.300781 92.859375 46.773438 93.132812 46.695312 C 93.242188 46.667969 94.421875 46.640625 96.15625 46.632812 L 99 46.605469 L 99 47.941406 L 97.996094 47.929688 C 97.445312 47.925781 95.851562 47.90625 94.464844 47.890625 Z M 50.445312 47.421875 C 50.179688 47.363281 50.050781 47.296875 49.90625 47.140625 C 49.765625 46.996094 49.621094 46.933594 49.289062 46.875 C 49.019531 46.828125 48.761719 46.6875 48.480469 46.417969 C 48.160156 46.117188 48.097656 45.96875 48.175781 45.703125 C 48.34375 45.144531 48.882812 44.304688 49.160156 44.164062 C 49.441406 44.019531 51.164062 43.578125 54.933594 42.667969 C 56.886719 42.195312 64.046875 40.441406 66.316406 39.878906 C 68.972656 39.21875 70.066406 38.960938 71.277344 38.71875 C 72.113281 38.550781 72.324219 38.53125 73.402344 38.480469 C 74.066406 38.449219 74.847656 38.414062 75.148438 38.398438 L 75.691406 38.367188 L 75.675781 38.175781 C 75.648438 37.785156 75.609375 37.632812 75.519531 37.585938 C 75.472656 37.558594 75.164062 37.515625 74.839844 37.492188 C 74.117188 37.433594 73.917969 37.359375 73.558594 36.988281 C 73.242188 36.664062 73.207031 36.574219 73.21875 36.15625 C 73.234375 35.75 73.207031 35.726562 72.503906 35.472656 C 72.007812 35.292969 72 35.292969 71.226562 35.289062 C 70.34375 35.277344 70.082031 35.234375 68.371094 34.824219 C 67.773438 34.683594 66.78125 34.460938 66.171875 34.328125 C 65.082031 34.097656 64.636719 33.996094 61.6875 33.332031 C 60.199219 32.996094 57.277344 32.347656 56.253906 32.125 C 55.386719 31.9375 52.367188 31.265625 51.671875 31.109375 C 51.324219 31.027344 50.71875 30.890625 50.328125 30.800781 C 49.660156 30.648438 48.601562 30.410156 46.972656 30.035156 C 46.585938 29.949219 45.542969 29.71875 44.660156 29.523438 C 43.023438 29.167969 40.007812 28.488281 39.320312 28.324219 C 38.980469 28.242188 38.925781 28.210938 38.746094 28.011719 C 38.390625 27.625 37.882812 26.6875 37.953125 26.5625 C 38.027344 26.445312 38.960938 26.539062 40.503906 26.828125 C 40.84375 26.894531 41.636719 27.042969 42.273438 27.160156 C 42.910156 27.277344 44.21875 27.523438 45.179688 27.707031 C 48.148438 28.277344 49.980469 28.617188 51.625 28.910156 C 54.292969 29.386719 56.476562 29.796875 57.117188 29.949219 C 57.292969 29.992188 57.902344 30.097656 58.464844 30.1875 C 59.027344 30.277344 59.949219 30.4375 60.503906 30.539062 C 61.0625 30.648438 61.734375 30.777344 61.992188 30.824219 C 62.253906 30.871094 62.816406 30.980469 63.246094 31.0625 C 63.675781 31.140625 64.375 31.273438 64.804688 31.347656 C 65.859375 31.542969 67.371094 31.832031 68.511719 32.054688 C 69.03125 32.15625 69.648438 32.269531 69.878906 32.308594 C 71.84375 32.636719 72.285156 32.75 72.628906 33 C 73.054688 33.316406 74.027344 33.425781 74.402344 33.203125 C 74.484375 33.152344 74.636719 33.089844 74.730469 33.074219 C 74.96875 33.03125 75.367188 33.089844 75.480469 33.183594 C 75.578125 33.257812 75.578125 33.265625 75.425781 33.828125 C 75.023438 35.335938 74.988281 35.671875 75.140625 36.125 C 75.417969 36.933594 75.734375 37.234375 76 36.964844 C 76.089844 36.875 76.101562 36.828125 76.074219 36.597656 C 76.058594 36.449219 76 36.195312 75.949219 36.035156 C 75.816406 35.609375 75.828125 35.210938 75.996094 34.535156 C 76.28125 33.40625 76.472656 32.957031 76.871094 32.503906 C 77.128906 32.207031 77.238281 32.027344 77.292969 31.796875 C 77.332031 31.628906 77.753906 31.183594 78.195312 30.847656 L 78.527344 30.589844 L 79.890625 30.589844 C 81.574219 30.589844 81.980469 30.660156 82.570312 31.050781 C 82.804688 31.203125 82.894531 31.347656 83.011719 31.769531 L 83.109375 32.125 L 86.445312 32.125 L 86.714844 31.488281 C 87.242188 30.246094 87.207031 30.28125 87.914062 30.28125 L 88.4375 30.28125 L 88.597656 30.777344 C 88.8125 31.433594 88.84375 31.789062 88.710938 32.089844 C 88.652344 32.234375 88.621094 32.367188 88.640625 32.4375 C 88.710938 32.710938 89.042969 33.09375 89.285156 33.183594 C 89.605469 33.308594 90.128906 33.167969 90.292969 32.921875 C 90.519531 32.574219 91.074219 32.503906 93.136719 32.550781 L 94.527344 32.582031 L 94.503906 33.183594 C 94.46875 33.917969 94.449219 33.964844 93.875 34.613281 C 93.273438 35.289062 92.878906 35.613281 92.316406 35.882812 C 91.527344 36.261719 90.035156 36.78125 89.742188 36.78125 C 89.667969 36.78125 89.542969 36.730469 89.46875 36.664062 C 89.296875 36.523438 89.082031 36.105469 89.082031 35.929688 C 89.082031 35.765625 88.953125 35.601562 88.824219 35.601562 C 88.589844 35.601562 88.214844 35.757812 87.964844 35.960938 C 87.003906 36.746094 85.964844 37.234375 84.863281 37.425781 C 84.207031 37.539062 84.035156 37.667969 84.09375 37.988281 C 84.136719 38.21875 84.292969 38.390625 84.453125 38.390625 C 84.746094 38.390625 85.933594 38.953125 86.691406 39.449219 C 87.027344 39.675781 87.246094 39.851562 87.1875 39.855469 C 87.175781 39.855469 86.964844 39.878906 86.71875 39.90625 C 86.425781 39.941406 83.339844 39.972656 77.863281 39.992188 C 69.574219 40.03125 69.449219 40.03125 69.054688 40.128906 C 68.660156 40.222656 67.609375 40.578125 67.550781 40.632812 C 67.539062 40.644531 67.539062 40.667969 67.550781 40.6875 C 67.585938 40.71875 71.316406 40.796875 73.070312 40.800781 C 74.453125 40.804688 75.3125 40.851562 75.472656 40.941406 C 75.539062 40.976562 75.585938 41.09375 75.636719 41.332031 C 75.757812 41.871094 75.941406 43.117188 76 43.789062 C 76.054688 44.320312 76.050781 44.410156 75.988281 44.46875 C 75.871094 44.589844 74.339844 44.625 69.738281 44.632812 L 65.488281 44.632812 L 65.378906 44.460938 C 65.226562 44.230469 65.109375 43.722656 65.015625 42.949219 C 64.84375 41.535156 64.71875 41.296875 64.277344 41.609375 C 64.070312 41.757812 64.070312 41.828125 64.300781 43.519531 C 64.34375 43.808594 64.378906 44.140625 64.378906 44.257812 C 64.378906 44.445312 64.363281 44.484375 64.273438 44.507812 C 64.089844 44.566406 61.363281 44.625 57.269531 44.679688 C 55.117188 44.703125 53.230469 44.746094 53.089844 44.773438 C 52.8125 44.820312 52.664062 44.941406 52.664062 45.128906 C 52.664062 45.230469 52.683594 45.230469 53.269531 45.265625 C 53.601562 45.277344 61.828125 45.300781 71.558594 45.316406 C 88.574219 45.34375 91.6875 45.367188 91.980469 45.480469 C 92.101562 45.53125 92.113281 45.546875 92.089844 45.722656 C 92.0625 45.929688 91.898438 46.171875 91.664062 46.351562 C 91.53125 46.453125 90.707031 46.933594 90.355469 47.117188 C 90.199219 47.199219 85.339844 47.265625 74.839844 47.324219 C 70.453125 47.355469 63.523438 47.398438 59.441406 47.421875 C 51.265625 47.472656 50.683594 47.472656 50.445312 47.421875 Z M 78.753906 36.820312 C 78.835938 36.691406 78.789062 36.351562 78.574219 35.527344 L 78.457031 35.054688 L 78.714844 34.347656 C 79.273438 32.777344 79.402344 32.371094 79.339844 32.332031 C 79.257812 32.28125 78.925781 32.332031 78.789062 32.417969 C 78.65625 32.503906 78.414062 33.007812 78.074219 33.921875 C 77.734375 34.824219 77.707031 35.039062 77.8125 35.65625 C 77.917969 36.269531 78.054688 36.714844 78.175781 36.835938 C 78.308594 36.964844 78.664062 36.960938 78.753906 36.820312 Z M 86.28125 35.640625 C 86.492188 35.578125 86.835938 35.253906 86.949219 35.019531 C 87.066406 34.773438 87.082031 34.378906 86.972656 34.152344 C 86.875 33.945312 86.546875 33.648438 86.246094 33.496094 C 85.964844 33.355469 85.8125 33.359375 85.421875 33.539062 C 84.890625 33.78125 84.636719 34.191406 84.710938 34.683594 C 84.828125 35.496094 85.472656 35.886719 86.28125 35.640625 Z M 21.972656 45.859375 C 21.542969 45.613281 21.324219 45.402344 21.285156 45.179688 C 21.203125 44.746094 21.511719 44.460938 22.363281 44.191406 C 22.785156 44.058594 23.144531 43.96875 25.058594 43.519531 C 25.785156 43.34375 27.257812 42.984375 28.324219 42.710938 C 30.214844 42.234375 30.28125 42.21875 30.578125 42.261719 C 30.746094 42.285156 30.9375 42.34375 31.003906 42.386719 C 31.101562 42.453125 31.316406 42.476562 32.199219 42.507812 C 32.792969 42.527344 33.6875 42.546875 34.1875 42.550781 L 35.09375 42.550781 L 35.085938 43.613281 L 35.070312 44.683594 L 32.125 44.679688 C 30.5 44.679688 29.160156 44.667969 29.152344 44.660156 C 29.144531 44.644531 29.105469 44.355469 29.066406 44.011719 C 28.921875 42.582031 28.699219 42.800781 28.613281 44.464844 L 28.601562 44.703125 L 26.214844 44.730469 C 23.894531 44.757812 22.890625 44.796875 22.695312 44.867188 C 22.363281 44.992188 24.1875 45.019531 34.386719 45.050781 C 42.941406 45.082031 43.441406 45.085938 43.5625 45.164062 C 43.722656 45.269531 43.722656 45.316406 43.546875 45.480469 C 43.308594 45.703125 42.945312 45.8125 42.253906 45.859375 C 41.332031 45.925781 35.527344 45.996094 28.527344 46.03125 L 22.316406 46.058594 Z M 21.972656 45.859375 "
    />
    <path
      d="M 98.957031 45.496094 C 98.941406 45.265625 98.796875 45.230469 97.5625 45.195312 C 96.941406 45.175781 95.828125 45.15625 95.101562 45.15625 C 93.625 45.152344 93.410156 45.132812 93.449219 45.015625 C 93.464844 44.972656 93.445312 44.839844 93.410156 44.726562 L 93.351562 44.511719 L 93.3125 44.738281 C 93.261719 45.089844 93.214844 45 93.226562 44.574219 C 93.261719 43.839844 93.085938 42.824219 92.839844 42.289062 C 92.734375 42.058594 92.734375 42.042969 92.816406 42.0625 C 92.878906 42.082031 92.996094 42.007812 93.195312 41.824219 C 93.6875 41.363281 95.160156 40.3125 95.519531 40.164062 C 95.699219 40.085938 95.890625 40.148438 96.296875 40.398438 C 96.445312 40.488281 96.636719 40.589844 96.722656 40.617188 C 96.859375 40.664062 96.898438 40.65625 97.054688 40.546875 C 97.527344 40.21875 98.535156 39.210938 98.6875 38.914062 C 98.78125 38.734375 98.78125 38.535156 98.6875 38.398438 C 98.535156 38.179688 98.28125 38.304688 97.554688 38.941406 C 97.015625 39.414062 96.859375 39.523438 96.738281 39.523438 C 96.679688 39.523438 96.460938 39.433594 96.246094 39.332031 C 95.714844 39.0625 95.621094 39.039062 95.4375 39.132812 C 94.984375 39.367188 93.195312 40.660156 92.566406 41.203125 C 92.253906 41.472656 92.25 41.480469 92.328125 41.578125 C 92.390625 41.652344 92.390625 41.660156 92.335938 41.613281 C 92.292969 41.585938 92.039062 41.445312 91.769531 41.308594 C 91.5 41.167969 91.003906 40.886719 90.664062 40.683594 C 89.953125 40.253906 88.910156 39.714844 88.792969 39.714844 C 88.746094 39.714844 88.691406 39.691406 88.675781 39.660156 C 88.65625 39.625 88.679688 39.617188 88.753906 39.644531 L 88.867188 39.679688 L 88.773438 39.570312 C 88.660156 39.449219 88.136719 39.132812 88.097656 39.167969 C 88.082031 39.183594 88.121094 39.25 88.1875 39.320312 C 88.25 39.390625 88.132812 39.3125 87.921875 39.140625 C 87.539062 38.828125 87.34375 38.6875 86.851562 38.367188 C 86.699219 38.269531 86.578125 38.164062 86.578125 38.125 C 86.578125 38.042969 86.867188 37.835938 87.683594 37.316406 L 88.292969 36.925781 L 88.699219 37.316406 C 88.917969 37.527344 89.1875 37.746094 89.292969 37.792969 C 89.472656 37.878906 89.492188 37.878906 89.789062 37.804688 C 90.476562 37.617188 92.617188 36.808594 93.199219 36.515625 C 93.476562 36.375 94.324219 35.550781 95 34.769531 L 95.410156 34.285156 L 95.410156 33.421875 C 95.410156 32.941406 95.386719 32.46875 95.359375 32.371094 C 95.324219 32.253906 95.191406 32.066406 94.976562 31.835938 L 94.640625 31.488281 L 93.3125 31.488281 C 91.710938 31.488281 90.515625 31.550781 90.175781 31.652344 C 90.035156 31.695312 89.910156 31.71875 89.898438 31.707031 C 89.886719 31.695312 89.78125 31.359375 89.667969 30.960938 C 89.355469 29.902344 89.117188 29.40625 88.871094 29.3125 C 88.550781 29.1875 87.171875 29.222656 86.78125 29.359375 C 86.574219 29.433594 86.363281 29.78125 86.058594 30.539062 C 85.816406 31.140625 85.816406 31.144531 85.640625 31.175781 C 85.332031 31.226562 84.128906 31.207031 84.003906 31.144531 C 83.9375 31.117188 83.824219 30.996094 83.746094 30.875 C 83.558594 30.582031 83.355469 30.398438 82.964844 30.164062 C 82.785156 30.050781 82.566406 29.90625 82.492188 29.835938 C 82.410156 29.769531 82.296875 29.679688 82.242188 29.640625 C 82.132812 29.570312 82.136719 29.570312 82.3125 29.566406 C 82.445312 29.566406 82.847656 29.386719 83.789062 28.921875 C 85.28125 28.1875 85.347656 28.140625 86.117188 27.191406 C 87.3125 25.726562 88.652344 24.628906 89.246094 24.628906 C 89.359375 24.628906 89.730469 24.703125 90.082031 24.792969 C 90.425781 24.882812 90.960938 25.019531 91.273438 25.097656 C 91.578125 25.179688 91.898438 25.246094 91.984375 25.246094 C 92.230469 25.246094 93.296875 24.695312 94.359375 24.023438 C 94.773438 23.765625 94.910156 23.648438 95.226562 23.265625 C 95.433594 23.011719 95.777344 22.554688 95.984375 22.242188 C 96.574219 21.371094 96.988281 20.832031 97.273438 20.574219 C 97.703125 20.179688 98.882812 19.386719 98.941406 19.453125 C 98.976562 19.484375 99.019531 45.3125 98.988281 45.480469 C 98.964844 45.589844 98.964844 45.589844 98.957031 45.496094 Z M 14.289062 45.246094 C 13.925781 45.226562 13.597656 45.207031 13.570312 45.203125 C 13.464844 45.195312 13.503906 45.015625 13.617188 44.9375 C 13.78125 44.828125 14.207031 44.695312 15.113281 44.460938 C 16.039062 44.21875 16.625 44.050781 16.996094 43.914062 C 17.46875 43.738281 17.265625 43.660156 14.546875 43.023438 C 13.503906 42.777344 12.480469 42.507812 12.304688 42.4375 C 12.039062 42.324219 12.09375 42.246094 12.414062 42.28125 C 12.667969 42.308594 14.066406 42.566406 15.28125 42.8125 C 16.214844 43 17.007812 43.117188 17.335938 43.117188 C 17.589844 43.117188 17.679688 43.09375 17.878906 42.976562 C 18.152344 42.816406 18.246094 42.804688 18.496094 42.910156 C 18.636719 42.972656 18.777344 42.980469 19.074219 42.960938 C 19.425781 42.941406 19.46875 42.949219 19.53125 43.039062 C 19.574219 43.097656 19.683594 43.144531 19.871094 43.175781 C 20.019531 43.199219 20.148438 43.226562 20.160156 43.234375 C 20.171875 43.246094 20.167969 43.308594 20.148438 43.367188 C 20.109375 43.539062 19.898438 43.652344 19.625 43.660156 C 19.386719 43.671875 19.144531 43.765625 19.039062 43.886719 C 18.992188 43.949219 19.058594 44.015625 19.441406 44.304688 C 19.691406 44.492188 19.929688 44.703125 19.96875 44.761719 C 20.035156 44.867188 20.035156 44.890625 19.976562 45.003906 C 19.839844 45.246094 19.730469 45.261719 17.242188 45.269531 C 15.980469 45.277344 14.652344 45.265625 14.289062 45.246094 Z M 14.289062 45.246094 "
    />
    <path
      d="M 0.046875 44.574219 C 0.046875 44.253906 0.0664062 43.917969 0.09375 43.828125 C 0.171875 43.554688 0.332031 43.496094 1.367188 43.378906 C 2.371094 43.265625 2.8125 43.109375 4.511719 42.253906 C 5.578125 41.71875 5.875 41.605469 6.183594 41.605469 C 6.484375 41.605469 6.75 41.742188 7.625 42.355469 C 8.035156 42.644531 8.40625 42.882812 8.441406 42.882812 C 8.480469 42.882812 8.730469 42.820312 8.992188 42.746094 C 9.597656 42.570312 9.871094 42.515625 10.457031 42.457031 C 10.71875 42.425781 10.953125 42.386719 10.992188 42.355469 C 11.039062 42.3125 11.054688 42.328125 11.054688 42.4375 C 11.058594 42.777344 11.378906 43.179688 11.789062 43.363281 C 11.902344 43.410156 12.210938 43.503906 12.476562 43.570312 C 12.738281 43.636719 13.007812 43.714844 13.066406 43.746094 L 13.175781 43.804688 L 12.898438 44.191406 C 12.75 44.398438 12.597656 44.667969 12.566406 44.785156 C 12.53125 44.90625 12.46875 45.019531 12.425781 45.03125 C 12.207031 45.121094 10.699219 45.144531 5.636719 45.152344 L 0.046875 45.152344 Z M 45.164062 45.109375 C 45.078125 45.085938 45.003906 45.0625 45 45.050781 C 44.886719 44.882812 44.820312 44.402344 44.917969 44.464844 C 44.945312 44.480469 44.964844 44.535156 44.964844 44.589844 C 44.964844 44.65625 45 44.679688 45.101562 44.679688 C 45.308594 44.679688 45.726562 44.34375 46.3125 43.707031 C 47.195312 42.753906 47.402344 42.578125 47.824219 42.445312 C 47.957031 42.402344 48.644531 42.1875 49.359375 41.960938 C 53.066406 40.796875 53.097656 40.78125 54.011719 40.011719 C 55.265625 38.957031 55.34375 38.90625 56.460938 38.464844 C 57.960938 37.871094 59.1875 37.476562 59.394531 37.519531 C 59.609375 37.566406 60.03125 37.789062 60.742188 38.234375 C 61.695312 38.839844 61.988281 38.976562 62.300781 38.980469 C 62.589844 38.980469 62.953125 38.847656 64.332031 38.246094 C 64.761719 38.058594 65.355469 37.804688 65.652344 37.671875 C 66.914062 37.121094 67.230469 37.039062 68.25 36.972656 C 69.675781 36.875 70.296875 36.695312 70.148438 36.417969 C 70.101562 36.335938 70.136719 36.332031 70.722656 36.332031 C 71.066406 36.332031 71.488281 36.320312 71.65625 36.296875 L 71.964844 36.261719 L 72.210938 36.769531 C 72.347656 37.050781 72.453125 37.300781 72.453125 37.335938 C 72.453125 37.40625 73.109375 37.234375 67.542969 38.605469 C 66.75 38.804688 64.742188 39.296875 63.078125 39.707031 C 61.417969 40.121094 59.332031 40.632812 58.449219 40.847656 C 57.566406 41.0625 56.207031 41.390625 55.425781 41.582031 C 54.648438 41.769531 53.628906 42.015625 53.160156 42.125 C 51.664062 42.46875 49.542969 43.007812 49.027344 43.175781 C 48.390625 43.378906 48.308594 43.445312 47.902344 44.054688 C 47.699219 44.355469 47.484375 44.695312 47.421875 44.804688 C 47.351562 44.933594 47.257812 45.023438 47.167969 45.0625 C 46.992188 45.128906 45.390625 45.164062 45.164062 45.109375 Z M 41.445312 44.730469 C 40.871094 44.664062 40.828125 44.570312 40.878906 43.429688 C 40.898438 42.984375 40.921875 42.605469 40.933594 42.589844 C 40.945312 42.566406 41.167969 42.550781 41.421875 42.550781 C 41.996094 42.550781 42.191406 42.617188 42.835938 43.042969 C 43.574219 43.527344 43.875 43.929688 43.878906 44.421875 C 43.878906 44.613281 43.859375 44.679688 43.800781 44.703125 C 43.6875 44.75 41.800781 44.773438 41.445312 44.730469 Z M 35.765625 44.691406 C 35.703125 44.679688 35.636719 44.617188 35.609375 44.554688 C 35.558594 44.417969 35.550781 43.882812 35.601562 43.132812 L 35.628906 42.597656 L 40.382812 42.597656 L 40.382812 44.726562 L 38.132812 44.722656 C 36.890625 44.714844 35.828125 44.703125 35.765625 44.691406 Z M 77.949219 44.589844 C 77.234375 44.566406 77.023438 44.542969 76.96875 44.488281 C 76.847656 44.367188 76.546875 42.398438 76.484375 41.335938 L 76.457031 40.796875 L 80.9375 40.816406 C 84.230469 40.828125 85.476562 40.847656 85.636719 40.890625 C 85.84375 40.941406 85.863281 40.960938 85.90625 41.144531 C 86.027344 41.632812 86.246094 43.578125 86.246094 44.167969 C 86.246094 44.398438 86.230469 44.445312 86.144531 44.492188 C 86.082031 44.527344 85.699219 44.570312 85.277344 44.589844 C 84.429688 44.632812 79.339844 44.632812 77.949219 44.589844 Z M 87.738281 44.589844 C 87.335938 44.558594 87.214844 44.535156 87.167969 44.476562 C 87.097656 44.375 87.03125 43.886719 86.90625 42.457031 C 86.855469 41.847656 86.804688 41.222656 86.789062 41.074219 L 86.761719 40.800781 L 89 40.800781 L 89.785156 41.257812 C 90.488281 41.671875 91.613281 42.386719 91.835938 42.566406 C 92.007812 42.707031 92.230469 43.546875 92.257812 44.167969 C 92.277344 44.617188 92.40625 44.589844 90.1875 44.605469 C 89.121094 44.617188 88.023438 44.605469 87.738281 44.589844 Z M 31.742188 42.148438 C 31.570312 42.085938 31.390625 42.03125 31.339844 42.03125 C 31.289062 42.027344 31.351562 41.992188 31.480469 41.960938 C 31.613281 41.921875 31.835938 41.859375 31.976562 41.824219 C 32.699219 41.613281 33.4375 41.5 34.28125 41.464844 C 34.839844 41.4375 35.167969 41.40625 35.210938 41.367188 C 35.289062 41.308594 35.300781 41.1875 35.253906 41.066406 C 35.226562 40.996094 34.917969 40.875 34.617188 40.828125 C 34.375 40.785156 34.226562 40.65625 34.125 40.390625 C 33.933594 39.875 33.777344 39.78125 33.007812 39.71875 C 32.496094 39.671875 31.496094 39.511719 30.84375 39.359375 C 30.671875 39.320312 29.972656 39.167969 29.285156 39.023438 C 28.59375 38.882812 27.746094 38.695312 27.394531 38.621094 C 27.046875 38.539062 26.570312 38.4375 26.332031 38.386719 C 26.101562 38.332031 25.523438 38.195312 25.058594 38.082031 C 24.277344 37.898438 22.015625 37.390625 19.839844 36.917969 C 17.191406 36.347656 16.410156 36.117188 16.203125 35.847656 C 16.082031 35.699219 16.070312 35.28125 16.179688 35.242188 C 16.21875 35.222656 16.5 35.265625 16.804688 35.332031 C 17.339844 35.449219 19.132812 35.792969 20.640625 36.074219 C 21.042969 36.144531 21.78125 36.28125 22.269531 36.375 C 23.886719 36.671875 24.9375 36.867188 26.664062 37.179688 C 27.597656 37.347656 28.472656 37.511719 28.601562 37.539062 C 28.730469 37.5625 28.988281 37.605469 29.167969 37.632812 C 29.351562 37.660156 29.785156 37.746094 30.136719 37.828125 C 30.484375 37.90625 31.179688 38.042969 31.667969 38.132812 C 32.699219 38.324219 33.433594 38.503906 33.695312 38.636719 C 33.945312 38.761719 34.300781 38.792969 34.773438 38.71875 C 35.253906 38.65625 35.683594 38.511719 35.882812 38.359375 C 35.964844 38.300781 36.089844 38.132812 36.167969 38 C 36.417969 37.539062 36.835938 37.375 37.664062 37.40625 C 38.3125 37.433594 38.617188 37.546875 39 37.882812 C 39.367188 38.207031 39.492188 38.246094 40.054688 38.246094 C 40.746094 38.246094 40.820312 38.210938 41.152344 37.636719 C 41.347656 37.308594 41.609375 37.15625 41.796875 37.257812 C 41.949219 37.34375 42.03125 37.578125 42.03125 37.90625 C 42.039062 38.238281 42.121094 38.554688 42.226562 38.648438 C 42.347656 38.761719 42.585938 38.75 42.886719 38.605469 C 43.421875 38.359375 44.296875 38.324219 44.742188 38.523438 C 44.960938 38.617188 44.964844 38.625 44.964844 38.828125 C 44.964844 39.199219 44.582031 39.628906 43.859375 40.0625 C 43.488281 40.285156 42.902344 40.480469 42.640625 40.460938 C 42.46875 40.445312 42.425781 40.421875 42.3125 40.246094 C 42.085938 39.914062 42.117188 39.90625 41.046875 40.484375 C 40.824219 40.601562 40.46875 40.75 40.265625 40.800781 C 39.785156 40.933594 39.675781 41 39.675781 41.179688 C 39.675781 41.34375 39.785156 41.464844 39.933594 41.464844 C 39.992188 41.464844 40.234375 41.558594 40.464844 41.675781 C 40.878906 41.882812 41.09375 42.042969 41.027344 42.109375 C 40.960938 42.175781 39.523438 42.210938 35.828125 42.234375 L 32.046875 42.257812 Z M 36.179688 39.921875 C 36.335938 39.433594 36.449219 38.875 36.402344 38.828125 C 36.292969 38.726562 35.957031 39.289062 35.832031 39.785156 C 35.738281 40.132812 35.738281 40.207031 35.832031 40.386719 C 35.90625 40.527344 35.910156 40.53125 35.972656 40.445312 C 36.011719 40.394531 36.105469 40.15625 36.179688 39.921875 Z M 40.835938 39.734375 C 41.105469 39.449219 41.035156 39.070312 40.695312 38.957031 C 40.265625 38.816406 39.882812 39.402344 40.191406 39.734375 C 40.292969 39.847656 40.390625 39.882812 40.59375 39.898438 C 40.640625 39.898438 40.753906 39.828125 40.835938 39.734375 Z M 40.835938 39.734375 "
    />
    <path
      d="M 15.691406 41.859375 C 15.332031 41.734375 15.253906 41.65625 15.570312 41.742188 C 15.714844 41.785156 15.773438 41.773438 15.863281 41.71875 C 16.113281 41.554688 20.910156 39.941406 23.238281 39.242188 C 24.054688 38.996094 24.03125 39.003906 23.894531 38.925781 C 23.785156 38.863281 23.785156 38.863281 23.949219 38.886719 C 24.039062 38.898438 24.265625 38.929688 24.445312 38.953125 C 24.746094 38.988281 25.917969 39.320312 25.878906 39.359375 C 25.871094 39.363281 25.6875 39.414062 25.46875 39.472656 C 24.683594 39.675781 20.34375 41.144531 19.035156 41.652344 C 18.738281 41.769531 18.65625 41.816406 18.726562 41.839844 C 18.917969 41.90625 18.578125 41.9375 17.3125 41.960938 L 16.035156 41.984375 Z M 32.589844 37.269531 C 32.023438 37.210938 31.265625 37.023438 31.148438 36.910156 C 31.117188 36.875 31.132812 36.871094 31.1875 36.890625 C 31.234375 36.910156 31.5 36.847656 31.777344 36.757812 C 32.570312 36.503906 34.578125 35.96875 36.9375 35.386719 C 37.832031 35.164062 38.683594 34.953125 38.824219 34.914062 C 39.765625 34.667969 42.867188 33.96875 43.257812 33.917969 C 43.539062 33.878906 43.761719 33.714844 43.722656 33.566406 C 43.703125 33.492188 43.722656 33.472656 43.8125 33.472656 C 43.882812 33.472656 43.925781 33.5 43.925781 33.542969 C 43.925781 33.636719 43.984375 33.632812 44.171875 33.523438 C 44.410156 33.386719 44.628906 33.355469 44.664062 33.449219 C 44.6875 33.511719 44.734375 33.519531 44.890625 33.496094 C 45.660156 33.371094 50.085938 32.476562 50.824219 32.296875 C 50.914062 32.269531 51.054688 32.238281 51.128906 32.21875 L 51.269531 32.1875 L 51.140625 32.117188 C 51.0625 32.078125 51.011719 32.035156 51.027344 32.027344 C 51.035156 32.015625 51.105469 32.035156 51.179688 32.078125 C 51.257812 32.117188 51.417969 32.148438 51.535156 32.148438 C 51.851562 32.148438 52.207031 32.21875 53.230469 32.492188 C 53.816406 32.648438 54.101562 32.742188 54.011719 32.753906 C 53.933594 32.757812 53.707031 32.804688 53.515625 32.851562 C 52.996094 32.984375 52.136719 33.152344 50.28125 33.476562 C 49.371094 33.636719 48.339844 33.816406 47.988281 33.878906 C 47.640625 33.945312 46.925781 34.066406 46.40625 34.164062 C 44.34375 34.523438 40.304688 35.367188 37.597656 36 C 36.347656 36.296875 36.308594 36.304688 36.238281 36.410156 C 36.203125 36.457031 36.148438 36.5 36.121094 36.5 C 36.085938 36.5 36.105469 36.464844 36.152344 36.425781 C 36.203125 36.390625 36.238281 36.355469 36.222656 36.355469 C 36.101562 36.355469 35.015625 36.621094 34.054688 36.882812 C 33.277344 37.09375 32.96875 37.203125 32.96875 37.257812 C 32.96875 37.300781 32.914062 37.300781 32.589844 37.269531 Z M 0.0625 33.773438 C 0.0820312 33.496094 0.09375 33.101562 0.09375 32.894531 C 0.09375 32.5625 0.105469 32.527344 0.183594 32.527344 C 0.230469 32.527344 0.296875 32.554688 0.328125 32.59375 C 0.410156 32.695312 0.746094 32.796875 1.285156 32.882812 C 1.96875 32.988281 1.984375 32.996094 1.984375 33.078125 C 1.984375 33.121094 1.96875 33.144531 1.957031 33.128906 C 1.921875 33.09375 1.300781 33.453125 0.574219 33.929688 L 0.0351562 34.285156 Z M 2.363281 32.550781 C 2.273438 32.511719 2.011719 32.460938 1.785156 32.425781 C 1.394531 32.371094 1.371094 32.359375 1.371094 32.253906 C 1.371094 32.15625 1.390625 32.144531 1.46875 32.164062 C 1.535156 32.179688 1.730469 32.109375 2.027344 31.960938 C 3.652344 31.144531 6.703125 30.089844 9.140625 29.5 C 12.621094 28.660156 15.378906 28.230469 22.554688 27.394531 C 30.03125 26.53125 30.425781 26.480469 30.515625 26.421875 C 30.574219 26.382812 30.574219 26.371094 30.511719 26.332031 C 30.355469 26.234375 30.859375 26.289062 31.496094 26.445312 C 31.859375 26.535156 32.382812 26.648438 32.65625 26.691406 C 32.972656 26.75 33.15625 26.800781 33.15625 26.839844 C 33.15625 26.867188 33.144531 26.90625 33.121094 26.917969 C 32.953125 27.019531 31.457031 27.214844 29.820312 27.347656 C 29.324219 27.386719 28.660156 27.460938 28.355469 27.519531 C 28.046875 27.570312 27.574219 27.625 27.300781 27.636719 C 26.664062 27.664062 26.496094 27.695312 26.496094 27.765625 C 26.496094 27.796875 26.441406 27.851562 26.371094 27.882812 C 26.21875 27.953125 25.914062 27.960938 25.953125 27.894531 C 26.003906 27.8125 25.386719 27.835938 24.292969 27.960938 C 23.726562 28.023438 22.777344 28.121094 22.175781 28.175781 C 19.734375 28.398438 16.511719 28.78125 14.050781 29.152344 C 12.308594 29.40625 9.773438 29.976562 8 30.511719 C 6.855469 30.863281 6.132812 31.128906 4.84375 31.675781 C 4.246094 31.929688 3.589844 32.207031 3.386719 32.289062 C 3.121094 32.398438 3.03125 32.460938 3.066406 32.492188 C 3.09375 32.523438 3.117188 32.5625 3.117188 32.582031 C 3.117188 32.644531 2.546875 32.617188 2.363281 32.550781 Z M 65.015625 30.347656 C 64.886719 30.324219 64.515625 30.277344 64.1875 30.234375 C 63.339844 30.125 62.917969 30.035156 62.265625 29.828125 C 61.945312 29.722656 61.6875 29.628906 61.6875 29.617188 C 61.6875 29.613281 61.757812 29.605469 61.839844 29.609375 C 62.082031 29.613281 64.902344 28.738281 66.503906 28.167969 C 72.597656 25.976562 77.011719 23.4375 79.109375 20.914062 C 79.980469 19.867188 80.164062 19.316406 80.554688 16.570312 C 80.921875 14 81.085938 13.351562 81.644531 12.226562 C 82.152344 11.214844 82.832031 10.3125 83.878906 9.257812 C 85.003906 8.132812 85.992188 7.347656 87.851562 6.121094 C 89.945312 4.734375 91.714844 3.699219 94.796875 2.0625 C 96.679688 1.058594 97.257812 0.738281 97.644531 0.476562 C 98.183594 0.117188 98.28125 0.078125 98.589844 0.0703125 C 98.960938 0.0664062 99 0.125 99 0.683594 L 99 1.105469 L 97.339844 1.933594 C 94.964844 3.117188 92.925781 4.214844 91.457031 5.09375 C 90.941406 5.402344 90.375 5.734375 90.191406 5.835938 C 89.738281 6.082031 89.382812 6.3125 88.066406 7.222656 C 86.078125 8.59375 85.269531 9.257812 84.253906 10.355469 C 82.503906 12.246094 82.132812 13.207031 81.878906 16.425781 C 81.730469 18.335938 81.539062 19.902344 81.410156 20.265625 C 80.964844 21.527344 79.261719 23.550781 77.554688 24.84375 C 75.082031 26.714844 71.375 28.382812 66.316406 29.902344 C 65.832031 30.042969 65.390625 30.191406 65.332031 30.21875 L 65.21875 30.277344 L 65.378906 30.332031 L 65.535156 30.390625 L 65.394531 30.390625 C 65.316406 30.390625 65.148438 30.371094 65.015625 30.347656 Z M 33.960938 26.332031 C 33.960938 25.796875 33.976562 25.671875 34.027344 25.671875 C 34.058594 25.671875 34.101562 25.714844 34.117188 25.765625 C 34.148438 25.894531 34.214844 25.886719 35.246094 25.71875 C 36.328125 25.535156 36.9375 25.484375 36.9375 25.582031 C 36.9375 25.691406 36.742188 26.164062 36.664062 26.257812 C 36.621094 26.304688 36.511719 26.375 36.421875 26.414062 C 36.234375 26.492188 34.984375 26.78125 34.472656 26.863281 C 34.269531 26.894531 34.101562 26.9375 34.101562 26.957031 C 34.101562 26.976562 34.070312 26.996094 34.03125 26.996094 C 33.96875 26.996094 33.960938 26.890625 33.960938 26.332031 Z M 40.054688 25.71875 C 39.160156 25.558594 38.402344 25.433594 38.273438 25.433594 C 38.101562 25.433594 38.09375 25.425781 38.164062 25.292969 C 38.222656 25.1875 38.746094 25.007812 39.851562 24.71875 C 41.40625 24.316406 43.273438 23.761719 43.703125 23.582031 C 43.90625 23.492188 43.996094 23.402344 43.878906 23.402344 C 43.855469 23.402344 43.832031 23.382812 43.832031 23.355469 C 43.832031 23.28125 44.175781 23.296875 44.605469 23.378906 C 45.011719 23.457031 45.097656 23.449219 44.871094 23.355469 C 44.757812 23.304688 44.730469 23.269531 44.730469 23.15625 C 44.730469 23.035156 44.738281 23.023438 44.796875 23.070312 C 44.886719 23.140625 45.519531 23.027344 45.84375 22.875 C 46.308594 22.667969 46.855469 22.4375 47.871094 22.03125 C 49.800781 21.253906 50.773438 20.796875 55.074219 18.644531 C 60.648438 15.84375 62.355469 14.804688 63.882812 13.257812 C 64.496094 12.640625 64.808594 12.238281 65.011719 11.816406 C 65.144531 11.539062 65.15625 11.46875 65.15625 11.03125 C 65.15625 10.472656 65.113281 10.367188 64.832031 10.203125 C 64.667969 10.109375 64.558594 10.089844 64.089844 10.078125 C 62.75 10.035156 59.980469 10.558594 55.296875 11.742188 C 52.566406 12.429688 51.085938 12.695312 50.140625 12.660156 C 49.367188 12.628906 49.089844 12.402344 49.132812 11.832031 C 49.203125 10.863281 50.679688 9.226562 53.207031 7.328125 C 53.925781 6.789062 54.324219 6.53125 55.523438 5.824219 C 56.976562 4.964844 57.5 4.683594 58.261719 4.332031 C 58.625 4.160156 59.242188 3.878906 59.640625 3.695312 C 61.117188 3.003906 63.984375 1.824219 65.960938 1.097656 C 67.164062 0.65625 67.875 0.378906 67.949219 0.324219 C 67.972656 0.296875 68.183594 0.246094 68.421875 0.203125 C 68.921875 0.109375 71.90625 0.0429688 71.988281 0.125 C 72.019531 0.15625 71.859375 0.21875 71.5 0.304688 C 70.101562 0.644531 64.109375 2.8125 62.175781 3.679688 C 61.945312 3.777344 61.398438 4.023438 60.953125 4.21875 C 57.402344 5.789062 54.484375 7.523438 52.429688 9.289062 C 51.675781 9.929688 50.578125 11.046875 50.472656 11.269531 C 50.332031 11.566406 50.386719 11.605469 50.96875 11.597656 C 51.578125 11.59375 52.023438 11.5 54.789062 10.820312 C 60.457031 9.414062 62.761719 8.980469 64.519531 8.980469 C 65.550781 8.980469 66.0625 9.101562 66.523438 9.453125 C 66.949219 9.773438 67 9.910156 67 10.660156 C 66.996094 11.613281 66.816406 12.070312 66.085938 12.984375 C 64.894531 14.480469 63.054688 15.988281 60.765625 17.359375 C 58.335938 18.804688 55.289062 20.355469 52.972656 21.320312 C 52.363281 21.570312 51.765625 21.863281 51.765625 21.90625 C 51.765625 21.917969 51.824219 21.910156 51.890625 21.898438 C 52.003906 21.878906 52.007812 21.882812 51.960938 21.976562 C 51.914062 22.066406 51.867188 22.078125 51.539062 22.078125 C 51.34375 22.078125 50.734375 22.101562 50.183594 22.125 C 49.191406 22.171875 48.828125 22.21875 48.996094 22.28125 C 49.050781 22.300781 49.074219 22.367188 49.074219 22.484375 C 49.074219 22.628906 49.066406 22.648438 49.003906 22.597656 C 48.941406 22.546875 48.933594 22.558594 48.933594 22.675781 C 48.933594 22.917969 48.757812 23.03125 47.914062 23.359375 C 46.242188 23.996094 43.28125 24.9375 41.542969 25.382812 C 40.878906 25.550781 40.464844 25.691406 40.496094 25.722656 C 40.535156 25.761719 40.285156 25.753906 40.054688 25.71875 Z M 21.539062 43.21875 C 21.539062 43.171875 21.773438 43.097656 21.808594 43.132812 C 21.816406 43.144531 21.761719 43.175781 21.683594 43.203125 C 21.605469 43.230469 21.539062 43.234375 21.539062 43.21875 Z M 23.097656 42.839844 C 23.097656 42.792969 23.332031 42.722656 23.367188 42.753906 C 23.375 42.769531 23.320312 42.796875 23.242188 42.824219 C 23.164062 42.851562 23.097656 42.859375 23.097656 42.839844 Z M 25.601562 42.222656 C 25.601562 42.175781 25.835938 42.105469 25.871094 42.140625 C 25.878906 42.152344 25.824219 42.183594 25.746094 42.210938 C 25.667969 42.238281 25.601562 42.242188 25.601562 42.222656 Z M 10.203125 41.992188 C 9.386719 41.894531 6.300781 41.316406 3 40.640625 C 0.078125 40.042969 -0.0742188 40.007812 0.0351562 39.898438 C 0.0898438 39.839844 3.679688 40.46875 7.792969 41.253906 C 10.195312 41.714844 10.722656 41.832031 10.722656 41.914062 C 10.722656 41.972656 10.433594 42.019531 10.203125 41.992188 Z M 42.300781 41.488281 C 42.210938 41.421875 42.21875 41.414062 42.347656 41.421875 C 42.425781 41.421875 42.457031 41.433594 42.425781 41.449219 C 42.394531 41.457031 42.378906 41.492188 42.394531 41.515625 C 42.429688 41.570312 42.40625 41.566406 42.300781 41.488281 Z M 11.761719 41.230469 C 11.761719 41.183594 11.996094 41.113281 12.03125 41.144531 C 12.039062 41.160156 11.984375 41.1875 11.90625 41.21875 C 11.828125 41.246094 11.761719 41.25 11.761719 41.230469 Z M 43.8125 41.234375 C 43.804688 41.21875 43.941406 41.140625 44.121094 41.0625 C 44.300781 40.984375 44.445312 40.90625 44.445312 40.886719 C 44.445312 40.863281 44.484375 40.847656 44.53125 40.847656 C 44.574219 40.847656 44.503906 40.917969 44.355469 41.015625 C 44.078125 41.1875 43.847656 41.289062 43.8125 41.234375 Z M 44.917969 40.527344 C 44.917969 40.464844 45.046875 40.363281 45.101562 40.386719 C 45.125 40.390625 45.09375 40.4375 45.03125 40.484375 C 44.96875 40.53125 44.917969 40.550781 44.917969 40.527344 Z M 14.480469 39.761719 C 14.417969 39.617188 14.375 39.492188 14.386719 39.46875 C 14.402344 39.449219 14.390625 39.429688 14.367188 39.429688 C 14.328125 39.429688 14.207031 39.09375 14.242188 39.0625 C 14.265625 39.03125 14.660156 39.335938 14.996094 39.636719 C 15.277344 39.886719 15.257812 39.941406 14.863281 39.984375 L 14.59375 40.011719 Z M 17.6875 39.542969 C 17.507812 39.429688 16.863281 39.023438 16.257812 38.640625 C 15.304688 38.039062 15.171875 37.941406 15.242188 37.894531 C 15.367188 37.8125 16.636719 37.660156 16.941406 37.695312 C 17.234375 37.722656 17.386719 37.832031 17.480469 38.074219 C 17.589844 38.351562 17.675781 38.554688 17.71875 38.636719 C 17.742188 38.683594 17.761719 38.746094 17.761719 38.769531 C 17.761719 38.796875 17.800781 38.910156 17.855469 39.015625 C 17.90625 39.121094 17.949219 39.226562 17.949219 39.246094 C 17.949219 39.265625 17.972656 39.339844 18.003906 39.414062 C 18.035156 39.488281 18.0625 39.558594 18.0625 39.570312 C 18.066406 39.585938 18.082031 39.617188 18.101562 39.648438 C 18.132812 39.699219 18.101562 39.765625 18.046875 39.757812 C 18.035156 39.757812 17.875 39.660156 17.6875 39.542969 Z M 11.179688 38.707031 C 10.570312 37.785156 10.523438 37.703125 10.566406 37.660156 C 10.582031 37.648438 10.570312 37.632812 10.542969 37.632812 C 10.511719 37.632812 10.488281 37.601562 10.488281 37.5625 C 10.488281 37.523438 10.511719 37.492188 10.539062 37.492188 C 10.5625 37.492188 10.574219 37.472656 10.558594 37.449219 C 10.519531 37.382812 10.828125 37.296875 11.226562 37.269531 C 12.207031 37.199219 13.035156 37.160156 13.035156 37.183594 C 13.035156 37.230469 12.398438 38.417969 12.367188 38.425781 C 12.347656 38.4375 12.335938 38.464844 12.355469 38.488281 C 12.371094 38.511719 12.355469 38.53125 12.328125 38.53125 C 12.300781 38.53125 12.289062 38.554688 12.304688 38.578125 C 12.320312 38.605469 12.308594 38.625 12.28125 38.625 C 12.253906 38.625 12.242188 38.648438 12.257812 38.671875 C 12.273438 38.703125 12.261719 38.71875 12.234375 38.71875 C 12.207031 38.71875 12.195312 38.746094 12.210938 38.769531 C 12.222656 38.796875 12.214844 38.816406 12.1875 38.816406 C 12.160156 38.816406 12.148438 38.839844 12.164062 38.863281 C 12.175781 38.890625 12.167969 38.910156 12.140625 38.910156 C 12.109375 38.910156 12.101562 38.933594 12.117188 38.957031 C 12.128906 38.984375 12.121094 39.003906 12.09375 39.003906 C 12.0625 39.003906 12.054688 39.027344 12.070312 39.050781 C 12.082031 39.078125 12.074219 39.097656 12.050781 39.097656 C 12.019531 39.097656 12.003906 39.113281 12.007812 39.136719 C 12.03125 39.21875 11.941406 39.378906 11.832031 39.449219 L 11.71875 39.523438 Z M 34.445312 37.554688 C 34.519531 37.542969 34.621094 37.542969 34.683594 37.554688 C 34.738281 37.5625 34.683594 37.570312 34.550781 37.570312 C 34.421875 37.570312 34.371094 37.5625 34.445312 37.554688 Z M 34.953125 37.492188 C 34.953125 37.449219 35.136719 37.375 35.167969 37.40625 C 35.179688 37.421875 35.136719 37.453125 35.070312 37.480469 C 35.003906 37.511719 34.953125 37.515625 34.953125 37.492188 Z M 35.425781 37.160156 C 35.425781 37.132812 35.457031 37.097656 35.496094 37.078125 C 35.609375 37.039062 35.625 37.085938 35.519531 37.152344 C 35.457031 37.1875 35.425781 37.1875 35.425781 37.160156 Z M 39.789062 37.007812 L 39.652344 36.851562 L 39.808594 36.988281 C 39.949219 37.121094 39.984375 37.160156 39.945312 37.160156 C 39.933594 37.160156 39.871094 37.089844 39.789062 37.007812 Z M 40.382812 36.710938 C 40.417969 36.671875 40.464844 36.640625 40.488281 36.640625 C 40.515625 36.640625 40.511719 36.671875 40.480469 36.710938 C 40.445312 36.75 40.398438 36.78125 40.375 36.78125 C 40.347656 36.78125 40.351562 36.75 40.382812 36.710938 Z M 40.382812 36.710938 "
    />
    <path
      d="M 36.039062 36.527344 C 36.15625 36.414062 36.261719 36.328125 36.269531 36.335938 C 36.304688 36.367188 35.933594 36.734375 35.875 36.734375 C 35.851562 36.734375 35.921875 36.640625 36.039062 36.527344 Z M 40.761719 36.355469 C 40.761719 36.328125 40.796875 36.296875 40.832031 36.277344 C 40.945312 36.234375 40.960938 36.28125 40.855469 36.347656 C 40.796875 36.386719 40.761719 36.386719 40.761719 36.355469 Z M 41.328125 36.109375 C 41.328125 36.085938 41.414062 36.074219 41.519531 36.074219 C 41.621094 36.074219 41.707031 36.082031 41.707031 36.089844 C 41.707031 36.101562 41.621094 36.121094 41.519531 36.128906 C 41.414062 36.140625 41.328125 36.128906 41.328125 36.109375 Z M 29.488281 35.519531 C 29.21875 35.226562 28.769531 34.613281 28.640625 34.367188 C 28.511719 34.105469 28.398438 33.699219 28.359375 33.355469 C 28.308594 32.910156 28.292969 32.785156 28.265625 32.5625 C 28.21875 32.179688 28.375 32.210938 29.507812 32.78125 C 29.835938 32.949219 30.160156 33.136719 30.210938 33.191406 C 30.3125 33.308594 30.347656 33.546875 30.273438 33.59375 C 30.25 33.609375 30.238281 33.640625 30.257812 33.667969 C 30.273438 33.691406 30.261719 33.738281 30.238281 33.769531 C 30.214844 33.804688 30.191406 33.859375 30.191406 33.898438 C 30.191406 33.9375 30.175781 34.019531 30.160156 34.085938 C 30.144531 34.152344 30.121094 34.246094 30.117188 34.300781 C 30.105469 34.351562 30.097656 34.394531 30.085938 34.394531 C 30.082031 34.394531 30.074219 34.4375 30.0625 34.488281 C 30.054688 34.539062 30.035156 34.628906 30.023438 34.691406 C 29.980469 34.851562 29.941406 35.003906 29.925781 35.066406 C 29.921875 35.097656 29.902344 35.136719 29.890625 35.15625 C 29.871094 35.167969 29.871094 35.210938 29.878906 35.246094 C 29.894531 35.277344 29.878906 35.320312 29.855469 35.339844 C 29.828125 35.355469 29.8125 35.386719 29.828125 35.410156 C 29.84375 35.433594 29.832031 35.460938 29.808594 35.480469 C 29.78125 35.496094 29.769531 35.539062 29.785156 35.570312 C 29.800781 35.605469 29.777344 35.648438 29.734375 35.667969 C 29.675781 35.683594 29.601562 35.636719 29.488281 35.519531 Z M 14.476562 35.546875 C 14.375 35.527344 13.949219 35.445312 13.53125 35.363281 C 13.117188 35.28125 11.554688 34.976562 10.0625 34.679688 C 4.671875 33.609375 2.339844 33.164062 1.824219 33.117188 C 1.375 33.078125 0.726562 32.960938 0.46875 32.875 C 0.167969 32.78125 0 32.5625 0 32.269531 C 0 32.128906 0.0195312 32.101562 0.167969 32.054688 C 0.257812 32.027344 0.34375 32.011719 0.363281 32.019531 C 0.429688 32.0625 1.152344 32.15625 1.335938 32.152344 C 1.433594 32.148438 1.511719 32.167969 1.511719 32.195312 C 1.511719 32.21875 1.570312 32.242188 1.644531 32.242188 C 1.765625 32.242188 2.359375 32.367188 2.765625 32.476562 C 2.886719 32.507812 2.957031 32.507812 2.96875 32.476562 C 2.980469 32.445312 3.003906 32.445312 3.039062 32.476562 C 3.070312 32.5 3.402344 32.582031 3.78125 32.664062 C 4.15625 32.738281 4.769531 32.871094 5.148438 32.953125 C 5.527344 33.03125 5.890625 33.101562 5.960938 33.117188 C 6.027344 33.128906 6.675781 33.253906 7.402344 33.398438 C 8.125 33.539062 10.042969 33.917969 11.667969 34.230469 C 14.953125 34.867188 14.832031 34.84375 14.820312 34.886719 C 14.808594 34.929688 14.929688 35.140625 14.992188 35.1875 C 15.019531 35.210938 15 35.222656 14.941406 35.207031 C 14.847656 35.1875 14.832031 35.203125 14.820312 35.332031 C 14.820312 35.414062 14.816406 35.511719 14.816406 35.542969 C 14.820312 35.605469 14.757812 35.609375 14.476562 35.546875 Z M 24.054688 35.152344 C 23.53125 34.898438 23.433594 34.808594 23.617188 34.761719 C 23.667969 34.75 23.710938 34.71875 23.710938 34.703125 C 23.710938 34.660156 24.402344 34.132812 24.453125 34.132812 C 24.476562 34.132812 24.519531 34.089844 24.550781 34.039062 C 24.585938 33.988281 24.628906 33.945312 24.652344 33.945312 C 24.679688 33.945312 24.765625 33.882812 24.84375 33.808594 C 24.929688 33.730469 25.050781 33.640625 25.117188 33.609375 C 25.191406 33.570312 25.289062 33.503906 25.339844 33.457031 C 25.507812 33.300781 25.703125 33.222656 25.742188 33.28125 C 25.78125 33.34375 25.75 33.519531 25.699219 33.519531 C 25.679688 33.519531 25.660156 33.566406 25.660156 33.625 C 25.65625 33.683594 25.628906 33.738281 25.601562 33.746094 C 25.578125 33.757812 25.5625 33.785156 25.582031 33.808594 C 25.597656 33.832031 25.582031 33.851562 25.554688 33.851562 C 25.523438 33.851562 25.515625 33.875 25.53125 33.898438 C 25.542969 33.925781 25.539062 33.945312 25.515625 33.945312 C 25.492188 33.945312 25.472656 33.972656 25.472656 34.011719 C 25.472656 34.117188 25.035156 34.984375 24.980469 34.984375 C 24.953125 34.984375 24.949219 35.007812 24.964844 35.03125 C 24.976562 35.0625 24.96875 35.078125 24.9375 35.078125 C 24.910156 35.078125 24.902344 35.097656 24.914062 35.128906 C 24.949219 35.179688 24.722656 35.410156 24.636719 35.410156 C 24.609375 35.410156 24.34375 35.292969 24.054688 35.152344 Z M 15.210938 34.582031 C 15.242188 34.546875 15.304688 34.511719 15.34375 34.511719 C 15.402344 34.511719 15.398438 34.527344 15.324219 34.582031 C 15.203125 34.671875 15.132812 34.671875 15.210938 34.582031 Z M 18.667969 34.433594 C 18.636719 34.421875 18.621094 34.390625 18.636719 34.367188 C 18.652344 34.34375 18.636719 34.324219 18.613281 34.324219 C 18.585938 34.324219 18.566406 34.308594 18.574219 34.289062 C 18.574219 34.265625 18.539062 34.167969 18.492188 34.0625 C 18.445312 33.960938 18.40625 33.847656 18.40625 33.816406 C 18.40625 33.785156 18.386719 33.757812 18.371094 33.757812 C 18.335938 33.757812 18.257812 33.523438 18.269531 33.460938 C 18.273438 33.4375 18.261719 33.425781 18.230469 33.425781 C 18.207031 33.425781 18.175781 33.347656 18.15625 33.257812 C 18.113281 33.019531 18.222656 32.933594 18.605469 32.914062 C 19.4375 32.871094 20.972656 32.867188 20.996094 32.910156 C 21.015625 32.933594 20.996094 32.953125 20.957031 32.953125 C 20.917969 32.953125 20.878906 32.984375 20.859375 33.023438 C 20.84375 33.0625 20.800781 33.09375 20.757812 33.09375 C 20.722656 33.09375 20.6875 33.117188 20.6875 33.140625 C 20.6875 33.167969 20.660156 33.1875 20.621094 33.1875 C 20.585938 33.1875 20.546875 33.222656 20.527344 33.257812 C 20.515625 33.296875 20.472656 33.332031 20.429688 33.332031 C 20.390625 33.332031 20.359375 33.355469 20.359375 33.378906 C 20.359375 33.40625 20.324219 33.425781 20.285156 33.425781 C 20.25 33.425781 20.214844 33.449219 20.214844 33.472656 C 20.214844 33.5 20.1875 33.519531 20.148438 33.519531 C 20.113281 33.519531 20.074219 33.550781 20.054688 33.589844 C 20.042969 33.628906 20 33.660156 19.957031 33.660156 C 19.917969 33.660156 19.886719 33.683594 19.886719 33.707031 C 19.886719 33.738281 19.851562 33.757812 19.816406 33.757812 C 19.777344 33.757812 19.742188 33.78125 19.742188 33.804688 C 19.742188 33.832031 19.710938 33.851562 19.671875 33.851562 C 19.636719 33.851562 19.601562 33.875 19.601562 33.898438 C 19.601562 33.925781 19.570312 33.945312 19.53125 33.945312 C 19.492188 33.945312 19.460938 33.96875 19.460938 33.992188 C 19.460938 34.019531 19.433594 34.039062 19.394531 34.039062 C 19.355469 34.039062 19.320312 34.074219 19.300781 34.109375 C 19.285156 34.148438 19.242188 34.179688 19.199219 34.179688 C 19.164062 34.179688 19.128906 34.207031 19.128906 34.230469 C 19.128906 34.257812 19.097656 34.277344 19.058594 34.277344 C 19.019531 34.277344 18.988281 34.304688 18.988281 34.34375 C 18.988281 34.441406 18.8125 34.492188 18.667969 34.433594 Z M 34.339844 34.394531 C 34.308594 34.355469 34.296875 34.304688 34.308594 34.28125 C 34.328125 34.257812 34.320312 34.222656 34.296875 34.207031 C 34.273438 34.191406 34.25 34.144531 34.242188 34.097656 C 34.242188 34.054688 34.230469 33.929688 34.214844 33.828125 C 34.203125 33.722656 34.179688 33.550781 34.164062 33.449219 C 34.15625 33.34375 34.128906 33.183594 34.121094 33.09375 C 34.039062 32.46875 34.003906 32.152344 33.988281 31.976562 C 33.980469 31.898438 33.960938 31.808594 33.941406 31.78125 C 33.921875 31.75 33.910156 31.65625 33.910156 31.570312 C 33.910156 31.488281 33.898438 31.332031 33.886719 31.226562 C 33.875 31.121094 33.851562 30.933594 33.835938 30.800781 C 33.796875 30.410156 33.785156 30.332031 33.75 30.203125 C 33.71875 30.085938 33.710938 30.082031 33.59375 30.144531 C 33.449219 30.214844 32.875 30.777344 32.945312 30.777344 C 32.96875 30.777344 32.824219 30.949219 32.613281 31.15625 C 32.40625 31.363281 32.214844 31.535156 32.175781 31.535156 C 32.140625 31.535156 32.105469 31.566406 32.089844 31.605469 C 32.039062 31.726562 31.898438 31.679688 31.726562 31.488281 C 31.496094 31.210938 30.167969 29.347656 29.535156 28.410156 C 29.066406 27.707031 28.933594 27.46875 29.023438 27.46875 C 29.144531 27.46875 30.75 27.859375 31.386719 28.039062 C 31.863281 28.175781 32.023438 28.304688 32.359375 28.796875 C 32.519531 29.03125 32.699219 29.246094 32.75 29.273438 C 32.863281 29.320312 33.359375 29.179688 34.726562 28.695312 C 35.1875 28.535156 35.59375 28.414062 35.636719 28.433594 C 35.699219 28.457031 35.902344 28.828125 35.917969 28.941406 C 35.921875 28.957031 35.933594 28.988281 35.957031 29.007812 C 35.976562 29.027344 35.992188 29.070312 35.992188 29.101562 C 35.992188 29.136719 36.015625 29.222656 36.046875 29.296875 C 36.078125 29.367188 36.105469 29.4375 36.109375 29.453125 C 36.113281 29.46875 36.132812 29.511719 36.148438 29.546875 C 36.160156 29.585938 36.242188 29.832031 36.328125 30.089844 C 36.40625 30.351562 36.488281 30.589844 36.5 30.613281 C 36.519531 30.640625 36.535156 30.667969 36.539062 30.683594 C 36.539062 30.695312 36.554688 30.738281 36.566406 30.777344 C 36.582031 30.816406 36.628906 30.949219 36.675781 31.074219 C 36.71875 31.199219 36.777344 31.296875 36.804688 31.296875 C 36.828125 31.296875 37.085938 31.183594 37.378906 31.042969 C 38.027344 30.726562 38.269531 30.660156 38.628906 30.703125 C 38.773438 30.71875 38.949219 30.730469 39.015625 30.730469 C 39.105469 30.730469 40.652344 30.875 41.128906 30.929688 C 41.210938 30.9375 41.203125 31.0625 41.117188 31.0625 C 41.078125 31.0625 41.046875 31.078125 41.046875 31.097656 C 41.046875 31.117188 40.96875 31.164062 40.878906 31.199219 C 40.789062 31.230469 40.714844 31.273438 40.714844 31.292969 C 40.714844 31.3125 40.597656 31.378906 40.453125 31.433594 C 40.3125 31.496094 40.195312 31.558594 40.195312 31.578125 C 40.195312 31.59375 40.078125 31.660156 39.933594 31.71875 C 39.789062 31.78125 39.644531 31.855469 39.605469 31.894531 C 39.570312 31.929688 39.332031 32.054688 39.082031 32.171875 C 38.824219 32.289062 38.605469 32.410156 38.589844 32.425781 C 38.574219 32.449219 38.316406 32.582031 38.011719 32.730469 C 37.710938 32.871094 37.433594 33.011719 37.398438 33.042969 C 37.367188 33.070312 36.859375 33.332031 36.273438 33.617188 C 35.6875 33.90625 35.203125 34.15625 35.1875 34.175781 C 35.136719 34.242188 34.570312 34.464844 34.445312 34.464844 C 34.417969 34.464844 34.371094 34.433594 34.339844 34.394531 Z M 15.585938 34.347656 C 15.804688 34.261719 15.9375 34.265625 15.753906 34.347656 C 15.675781 34.386719 15.570312 34.414062 15.515625 34.414062 C 15.457031 34.414062 15.480469 34.390625 15.585938 34.347656 Z M 15.46875 33.472656 C 12.785156 32.5625 13.023438 32.652344 13.09375 32.570312 C 13.148438 32.5 14.140625 31.816406 14.1875 31.816406 C 14.199219 31.816406 14.269531 31.765625 14.339844 31.699219 C 14.554688 31.519531 15.652344 30.824219 15.699219 30.839844 C 15.730469 30.847656 15.851562 31.046875 15.980469 31.277344 C 16.261719 31.792969 17.382812 34.011719 17.382812 34.054688 C 17.382812 34.121094 17.230469 34.074219 15.46875 33.472656 Z M 43.777344 33.699219 C 43.742188 33.585938 43.714844 33.476562 43.710938 33.449219 C 43.710938 33.425781 43.691406 33.367188 43.675781 33.332031 C 43.65625 33.292969 43.632812 33.175781 43.625 33.070312 C 43.613281 32.964844 43.589844 32.84375 43.574219 32.800781 C 43.554688 32.753906 43.546875 32.683594 43.5625 32.644531 C 43.582031 32.605469 43.566406 32.5625 43.542969 32.546875 C 43.515625 32.53125 43.5 32.476562 43.515625 32.425781 C 43.53125 32.378906 43.519531 32.324219 43.496094 32.308594 C 43.445312 32.277344 43.441406 31.992188 43.492188 32.015625 C 43.621094 32.0625 45.105469 33.070312 45.105469 33.101562 C 45.105469 33.128906 45.054688 33.167969 44.988281 33.199219 C 44.921875 33.226562 44.871094 33.269531 44.871094 33.289062 C 44.871094 33.308594 44.820312 33.335938 44.757812 33.347656 C 44.695312 33.363281 44.648438 33.402344 44.652344 33.433594 C 44.652344 33.46875 44.644531 33.5 44.621094 33.503906 C 44.601562 33.511719 44.425781 33.601562 44.234375 33.703125 C 44.039062 33.8125 43.871094 33.898438 43.855469 33.898438 C 43.847656 33.898438 43.808594 33.808594 43.777344 33.699219 Z M 9.835938 32.480469 C 9.644531 32.425781 9.457031 32.371094 9.414062 32.347656 C 9.34375 32.304688 9.347656 32.296875 9.429688 32.257812 C 9.476562 32.230469 9.75 32.140625 10.027344 32.054688 C 10.453125 31.921875 10.546875 31.90625 10.582031 31.960938 C 10.605469 32 10.605469 32.050781 10.570312 32.085938 C 10.542969 32.121094 10.539062 32.148438 10.558594 32.148438 C 10.574219 32.148438 10.566406 32.179688 10.535156 32.21875 C 10.5 32.257812 10.492188 32.289062 10.511719 32.289062 C 10.527344 32.289062 10.519531 32.320312 10.492188 32.351562 C 10.460938 32.390625 10.453125 32.433594 10.46875 32.445312 C 10.496094 32.476562 10.285156 32.578125 10.210938 32.570312 C 10.195312 32.570312 10.023438 32.527344 9.835938 32.480469 Z M 22.554688 32.261719 C 22.445312 32.144531 22.425781 32.109375 22.441406 32.027344 C 22.441406 32.007812 22.421875 31.976562 22.398438 31.964844 C 22.347656 31.929688 22.199219 31.652344 22.199219 31.582031 C 22.199219 31.503906 22.316406 31.523438 22.933594 31.695312 C 23.351562 31.808594 23.503906 31.875 23.511719 31.929688 C 23.523438 31.984375 23.492188 32.019531 23.433594 32.039062 C 23.375 32.054688 23.332031 32.082031 23.332031 32.105469 C 23.332031 32.128906 23.300781 32.148438 23.261719 32.148438 C 23.226562 32.148438 23.191406 32.167969 23.191406 32.1875 C 23.191406 32.21875 22.789062 32.386719 22.707031 32.386719 C 22.6875 32.386719 22.617188 32.328125 22.554688 32.261719 Z M 73.941406 32.054688 C 73.996094 32.03125 74.078125 32.011719 74.132812 32.011719 L 74.226562 32.011719 L 74.132812 32.054688 C 74.078125 32.078125 73.996094 32.097656 73.941406 32.097656 L 73.847656 32.097656 Z M 74.53125 31.996094 C 74.53125 31.972656 74.6875 31.964844 74.878906 31.964844 C 75.238281 31.972656 75.199219 31.992188 74.777344 32.015625 C 74.644531 32.027344 74.53125 32.015625 74.53125 31.996094 Z M 75.902344 31.863281 C 75.902344 31.839844 75.9375 31.816406 75.972656 31.816406 C 76.011719 31.816406 76.042969 31.796875 76.042969 31.769531 C 76.042969 31.746094 76.066406 31.722656 76.097656 31.722656 C 76.164062 31.722656 76.105469 31.808594 75.992188 31.863281 C 75.929688 31.898438 75.902344 31.898438 75.902344 31.863281 Z M 17.976562 31.761719 C 17.941406 31.699219 17.902344 31.609375 17.890625 31.558594 C 17.882812 31.503906 17.859375 31.449219 17.839844 31.433594 C 17.820312 31.421875 17.796875 31.359375 17.792969 31.308594 C 17.789062 31.25 17.769531 31.203125 17.75 31.203125 C 17.675781 31.203125 17.71875 31.046875 17.8125 30.960938 C 17.929688 30.863281 18.003906 30.84375 18.703125 30.757812 C 19.003906 30.71875 19.265625 30.707031 19.289062 30.730469 C 19.332031 30.773438 18.636719 31.488281 18.558594 31.488281 C 18.535156 31.488281 18.515625 31.511719 18.515625 31.535156 C 18.515625 31.5625 18.464844 31.605469 18.398438 31.628906 C 18.332031 31.652344 18.28125 31.695312 18.28125 31.722656 C 18.28125 31.746094 18.246094 31.769531 18.207031 31.769531 C 18.171875 31.769531 18.136719 31.792969 18.136719 31.816406 C 18.136719 31.902344 18.046875 31.871094 17.976562 31.761719 Z M 76.753906 30.660156 C 76.785156 30.621094 76.832031 30.589844 76.855469 30.589844 C 76.886719 30.589844 76.878906 30.621094 76.847656 30.660156 C 76.8125 30.695312 76.765625 30.730469 76.742188 30.730469 C 76.714844 30.730469 76.71875 30.695312 76.753906 30.660156 Z M 76.988281 30.460938 C 76.988281 30.398438 77.304688 30.101562 77.351562 30.121094 C 77.371094 30.128906 77.300781 30.21875 77.191406 30.324219 C 77.078125 30.421875 76.988281 30.484375 76.988281 30.460938 Z M 77.792969 29.738281 C 77.792969 29.707031 77.820312 29.691406 77.859375 29.691406 C 77.894531 29.691406 77.933594 29.671875 77.941406 29.648438 C 77.953125 29.625 78.023438 29.585938 78.097656 29.566406 C 78.273438 29.527344 78.25 29.546875 77.996094 29.679688 C 77.882812 29.738281 77.792969 29.761719 77.792969 29.738281 Z M 78.359375 29.542969 C 78.359375 29.519531 78.410156 29.5 78.476562 29.5 C 78.542969 29.5 78.59375 29.511719 78.59375 29.519531 C 78.59375 29.527344 78.542969 29.546875 78.476562 29.558594 C 78.410156 29.570312 78.359375 29.5625 78.359375 29.542969 Z M 79.066406 29.492188 C 79.066406 29.472656 79.167969 29.453125 79.292969 29.457031 C 79.539062 29.460938 79.519531 29.488281 79.246094 29.511719 C 79.148438 29.519531 79.066406 29.511719 79.066406 29.492188 Z M 81.277344 29.46875 C 81.335938 29.457031 81.417969 29.457031 81.464844 29.46875 C 81.507812 29.480469 81.460938 29.492188 81.359375 29.488281 C 81.253906 29.488281 81.214844 29.476562 81.277344 29.46875 Z M 26.144531 28.808594 C 25.679688 28.695312 25.378906 28.558594 25.496094 28.515625 C 25.53125 28.507812 25.542969 28.480469 25.523438 28.457031 C 25.511719 28.433594 25.535156 28.398438 25.570312 28.382812 C 25.613281 28.371094 25.636719 28.335938 25.625 28.3125 C 25.609375 28.292969 25.660156 28.230469 25.738281 28.171875 C 25.816406 28.113281 25.871094 28.054688 25.859375 28.035156 C 25.847656 28.015625 25.875 27.96875 25.914062 27.933594 C 25.984375 27.878906 25.976562 27.871094 25.878906 27.835938 C 25.789062 27.808594 25.804688 27.804688 25.9375 27.8125 C 26.074219 27.816406 26.148438 27.785156 26.289062 27.65625 L 26.472656 27.496094 L 26.488281 27.613281 C 26.515625 27.894531 26.671875 28.351562 26.871094 28.742188 C 26.929688 28.859375 26.875 28.933594 26.742188 28.929688 C 26.671875 28.929688 26.402344 28.875 26.144531 28.808594 Z M 33.910156 26.976562 C 33.898438 26.964844 33.660156 26.941406 33.371094 26.929688 C 33.085938 26.914062 32.628906 26.863281 32.355469 26.808594 C 31.695312 26.683594 30.589844 26.414062 30.558594 26.375 C 30.515625 26.320312 27.746094 25.753906 7.722656 21.765625 C 3.589844 20.941406 0.183594 20.246094 0.152344 20.21875 C 0.117188 20.195312 0.101562 20.144531 0.113281 20.109375 C 0.128906 20.078125 0.117188 20.035156 0.09375 20.019531 C 0.0703125 20.007812 0.0585938 19.75 0.0585938 19.453125 C 0.0625 19.019531 0.078125 18.910156 0.132812 18.886719 C 0.175781 18.871094 0.363281 18.890625 0.5625 18.929688 C 0.761719 18.96875 2.570312 19.320312 4.582031 19.714844 C 11.738281 21.113281 33.441406 25.410156 33.699219 25.484375 C 34.136719 25.609375 34.101562 25.539062 34.101562 26.308594 C 34.101562 26.941406 34.097656 26.996094 34.015625 26.996094 C 33.96875 26.996094 33.917969 26.984375 33.910156 26.976562 Z M 50.871094 24.785156 C 50.105469 23.816406 49.441406 23.042969 49 22.59375 C 48.488281 22.066406 48.46875 22.109375 49.214844 22.035156 C 49.699219 21.984375 52.261719 21.894531 53.347656 21.882812 C 54.445312 21.878906 54.742188 21.863281 54.742188 21.832031 C 54.742188 21.808594 54.871094 21.792969 55.019531 21.792969 C 55.214844 21.792969 55.304688 21.8125 55.324219 21.859375 C 55.351562 21.929688 55.21875 22.078125 55.136719 22.078125 C 55.105469 22.078125 55.011719 22.164062 54.933594 22.265625 C 54.851562 22.371094 54.753906 22.457031 54.71875 22.457031 C 54.679688 22.457031 54.609375 22.523438 54.554688 22.597656 C 54.496094 22.675781 54.425781 22.738281 54.386719 22.738281 C 54.351562 22.738281 54.28125 22.804688 54.222656 22.882812 C 54.167969 22.960938 54.09375 23.023438 54.0625 23.023438 C 54.03125 23.023438 53.957031 23.089844 53.902344 23.164062 C 53.839844 23.246094 53.769531 23.304688 53.738281 23.304688 C 53.703125 23.304688 53.628906 23.371094 53.570312 23.449219 C 53.511719 23.527344 53.433594 23.589844 53.398438 23.589844 C 53.363281 23.589844 53.289062 23.65625 53.230469 23.730469 C 53.175781 23.8125 53.105469 23.875 53.066406 23.875 C 53.03125 23.875 52.972656 23.925781 52.929688 23.992188 C 52.886719 24.058594 52.820312 24.109375 52.78125 24.109375 C 52.75 24.109375 52.675781 24.175781 52.617188 24.253906 C 52.5625 24.332031 52.488281 24.394531 52.453125 24.394531 C 52.417969 24.394531 52.359375 24.445312 52.316406 24.511719 C 52.273438 24.578125 52.207031 24.628906 52.167969 24.628906 C 52.128906 24.628906 52.066406 24.683594 52.023438 24.75 C 51.980469 24.816406 51.917969 24.867188 51.886719 24.867188 C 51.847656 24.867188 51.777344 24.933594 51.71875 25.007812 C 51.664062 25.089844 51.585938 25.152344 51.550781 25.152344 C 51.511719 25.152344 51.46875 25.183594 51.457031 25.222656 C 51.394531 25.378906 51.253906 25.269531 50.871094 24.785156 Z M 37.9375 24.359375 C 37.742188 24.265625 37.121094 23.730469 36.988281 23.546875 C 36.875 23.390625 36.734375 23.023438 36.769531 22.984375 C 36.785156 22.972656 36.769531 22.9375 36.746094 22.90625 C 36.722656 22.871094 36.691406 22.785156 36.679688 22.710938 C 36.671875 22.636719 36.648438 22.535156 36.628906 22.484375 C 36.609375 22.4375 36.589844 22.335938 36.585938 22.261719 C 36.582031 22.1875 36.5625 22.125 36.539062 22.125 C 36.519531 22.125 36.511719 22.082031 36.523438 22.03125 C 36.539062 21.976562 36.53125 21.921875 36.5 21.90625 C 36.476562 21.894531 36.46875 21.851562 36.484375 21.8125 C 36.496094 21.777344 36.484375 21.738281 36.460938 21.71875 C 36.429688 21.703125 36.417969 21.648438 36.429688 21.597656 C 36.445312 21.550781 36.4375 21.496094 36.40625 21.480469 C 36.382812 21.46875 36.375 21.425781 36.386719 21.386719 C 36.402344 21.355469 36.386719 21.3125 36.363281 21.292969 C 36.335938 21.277344 36.320312 21.222656 36.335938 21.175781 C 36.351562 21.125 36.339844 21.070312 36.316406 21.054688 C 36.292969 21.042969 36.273438 21.003906 36.28125 20.976562 C 36.285156 20.941406 36.269531 20.871094 36.25 20.816406 C 36.195312 20.640625 36.089844 20.652344 35.613281 20.882812 C 35.421875 20.976562 35.242188 21.078125 35.222656 21.117188 C 35.203125 21.152344 35.15625 21.179688 35.121094 21.179688 C 35.054688 21.179688 34.914062 21.320312 34.910156 21.390625 C 34.90625 21.421875 34.878906 21.472656 34.839844 21.519531 C 34.800781 21.5625 34.78125 21.609375 34.796875 21.625 C 34.816406 21.636719 34.800781 21.652344 34.769531 21.652344 C 34.734375 21.652344 34.726562 21.675781 34.738281 21.699219 C 34.753906 21.726562 34.746094 21.746094 34.714844 21.746094 C 34.6875 21.746094 34.679688 21.769531 34.691406 21.792969 C 34.707031 21.820312 34.699219 21.839844 34.667969 21.839844 C 34.640625 21.839844 34.632812 21.863281 34.644531 21.886719 C 34.660156 21.917969 34.648438 21.933594 34.621094 21.933594 C 34.59375 21.933594 34.585938 21.957031 34.597656 21.984375 C 34.613281 22.011719 34.601562 22.03125 34.578125 22.03125 C 34.550781 22.03125 34.53125 22.042969 34.535156 22.066406 C 34.550781 22.144531 34.464844 22.359375 34.417969 22.359375 C 34.390625 22.359375 34.386719 22.375 34.398438 22.390625 C 34.414062 22.40625 34.40625 22.464844 34.375 22.523438 C 34.34375 22.574219 34.324219 22.636719 34.328125 22.660156 C 34.332031 22.675781 34.316406 22.691406 34.285156 22.691406 C 34.261719 22.691406 34.253906 22.714844 34.269531 22.738281 C 34.28125 22.765625 34.273438 22.785156 34.25 22.785156 C 34.21875 22.785156 34.203125 22.800781 34.207031 22.824219 C 34.21875 22.894531 34.136719 23.117188 34.09375 23.117188 C 34.070312 23.117188 34.066406 23.140625 34.078125 23.164062 C 34.09375 23.191406 34.082031 23.210938 34.054688 23.210938 C 34.027344 23.210938 34.011719 23.230469 34.027344 23.25 C 34.039062 23.273438 34.007812 23.339844 33.957031 23.390625 C 33.902344 23.449219 33.875 23.496094 33.894531 23.496094 C 33.964844 23.496094 33.742188 23.695312 33.597656 23.765625 C 33.511719 23.804688 33.441406 23.855469 33.441406 23.878906 C 33.441406 23.902344 33.390625 23.921875 33.328125 23.921875 C 33.261719 23.921875 33.179688 23.949219 33.148438 23.984375 C 33.113281 24.015625 32.96875 24.082031 32.828125 24.128906 L 32.570312 24.214844 L 31.007812 22.636719 C 30.148438 21.769531 29.355469 20.953125 29.246094 20.816406 C 29.070312 20.601562 29.054688 20.5625 29.113281 20.503906 C 29.195312 20.421875 29.777344 20.328125 30.175781 20.328125 C 30.488281 20.328125 30.589844 20.390625 31.320312 21.027344 C 31.910156 21.539062 31.90625 21.535156 32.523438 21.363281 C 33.59375 21.070312 34.644531 20.738281 34.707031 20.683594 C 34.777344 20.617188 34.78125 20.554688 34.734375 20.113281 C 34.722656 19.957031 34.699219 19.714844 34.683594 19.570312 C 34.648438 19.207031 34.597656 18.6875 34.546875 18.246094 C 34.53125 18.128906 34.507812 17.929688 34.5 17.796875 C 34.484375 17.671875 34.460938 17.46875 34.445312 17.347656 C 34.4375 17.230469 34.417969 17.007812 34.410156 16.851562 C 34.40625 16.695312 34.382812 16.511719 34.363281 16.441406 C 34.308594 16.242188 34.414062 16.238281 34.839844 16.417969 C 36.292969 17.046875 39.960938 18.710938 40.445312 18.96875 C 40.675781 19.09375 40.710938 19.125 40.683594 19.210938 C 40.667969 19.269531 40.652344 19.347656 40.65625 19.390625 C 40.65625 19.4375 40.644531 19.484375 40.621094 19.5 C 40.597656 19.515625 40.585938 19.558594 40.601562 19.589844 C 40.617188 19.628906 40.605469 19.671875 40.578125 19.683594 C 40.550781 19.703125 40.539062 19.746094 40.554688 19.777344 C 40.570312 19.816406 40.558594 19.859375 40.53125 19.875 C 40.503906 19.894531 40.492188 19.933594 40.507812 19.96875 C 40.519531 20.007812 40.511719 20.046875 40.484375 20.0625 C 40.453125 20.082031 40.445312 20.125 40.460938 20.15625 C 40.472656 20.195312 40.460938 20.238281 40.4375 20.257812 C 40.40625 20.269531 40.394531 20.308594 40.414062 20.332031 C 40.425781 20.355469 40.417969 20.402344 40.390625 20.4375 C 40.289062 20.558594 40.371094 20.683594 40.648438 20.851562 C 40.804688 20.945312 41.65625 21.410156 42.535156 21.878906 C 43.417969 22.347656 44.300781 22.816406 44.492188 22.917969 C 44.6875 23.023438 45.113281 23.246094 45.4375 23.40625 C 46.003906 23.695312 46.023438 23.707031 45.855469 23.722656 C 45.753906 23.730469 45.304688 23.671875 44.851562 23.589844 C 44.394531 23.511719 44.003906 23.453125 43.980469 23.46875 C 43.953125 23.480469 43.925781 23.472656 43.917969 23.445312 C 43.894531 23.378906 43.089844 23.222656 42.132812 23.097656 C 42.042969 23.089844 41.777344 23.050781 41.546875 23.023438 C 41.308594 22.988281 41.007812 22.976562 40.871094 22.988281 C 40.625 23.011719 39.960938 23.28125 39.960938 23.359375 C 39.960938 23.378906 39.910156 23.410156 39.855469 23.429688 C 39.796875 23.445312 39.722656 23.492188 39.683594 23.523438 C 39.652344 23.5625 39.589844 23.589844 39.554688 23.589844 C 39.515625 23.589844 39.488281 23.613281 39.488281 23.636719 C 39.488281 23.664062 39.457031 23.683594 39.421875 23.683594 C 39.382812 23.683594 39.320312 23.714844 39.289062 23.75 C 39.25 23.785156 39.175781 23.832031 39.117188 23.84375 C 39.0625 23.863281 39.015625 23.902344 39.015625 23.925781 C 39.015625 23.949219 38.984375 23.96875 38.949219 23.96875 C 38.910156 23.96875 38.847656 23.996094 38.816406 24.035156 C 38.777344 24.066406 38.703125 24.109375 38.644531 24.128906 C 38.589844 24.148438 38.515625 24.191406 38.484375 24.21875 C 38.453125 24.253906 38.347656 24.308594 38.253906 24.355469 C 38.101562 24.425781 38.070312 24.425781 37.9375 24.359375 Z M 24.761719 22.28125 C 24.621094 22.082031 23.839844 20.5625 23.875 20.5625 C 23.890625 20.5625 23.871094 20.53125 23.835938 20.488281 C 23.726562 20.382812 23.738281 20.28125 23.867188 20.28125 C 24.066406 20.28125 27.046875 21.101562 27.132812 21.179688 C 27.148438 21.203125 27.078125 21.265625 26.964844 21.324219 C 26.851562 21.382812 26.75 21.445312 26.734375 21.460938 C 26.71875 21.480469 26.457031 21.617188 26.144531 21.765625 C 25.835938 21.910156 25.566406 22.046875 25.554688 22.074219 C 25.523438 22.121094 24.957031 22.40625 24.898438 22.40625 C 24.875 22.40625 24.8125 22.351562 24.761719 22.28125 Z M 17.433594 20.972656 C 17.269531 20.90625 17.113281 20.832031 17.085938 20.804688 C 17.019531 20.738281 17 20.613281 17.054688 20.613281 C 17.085938 20.613281 17.089844 20.59375 17.074219 20.5625 C 17.0625 20.539062 17.070312 20.515625 17.097656 20.515625 C 17.132812 20.515625 17.1875 20.472656 17.230469 20.421875 C 17.277344 20.375 17.433594 20.257812 17.589844 20.167969 C 18.003906 19.917969 18.046875 19.964844 18.0625 20.730469 L 18.066406 21.0625 L 17.902344 21.070312 C 17.8125 21.074219 17.597656 21.03125 17.433594 20.972656 Z M 29.023438 18.398438 C 27.09375 16.941406 25.90625 16.023438 25.890625 15.972656 C 25.863281 15.894531 30.691406 15.933594 30.832031 16.015625 C 30.941406 16.078125 30.953125 16.167969 30.871094 16.546875 C 30.859375 16.609375 30.832031 16.738281 30.820312 16.828125 C 30.78125 17.042969 30.757812 17.179688 30.730469 17.316406 C 30.714844 17.371094 30.691406 17.496094 30.679688 17.585938 C 30.664062 17.675781 30.640625 17.804688 30.625 17.867188 C 30.617188 17.933594 30.59375 18.039062 30.582031 18.105469 C 30.566406 18.21875 30.542969 18.347656 30.492188 18.59375 C 30.484375 18.648438 30.460938 18.75 30.441406 18.816406 C 30.410156 18.945312 30.371094 19.140625 30.363281 19.230469 C 30.355469 19.257812 30.320312 19.289062 30.277344 19.289062 C 30.234375 19.289062 29.671875 18.886719 29.023438 18.398438 Z M 42.941406 18.113281 C 42.582031 17.839844 41.503906 16.894531 41.285156 16.660156 C 41.167969 16.535156 41.105469 16.425781 41.121094 16.382812 C 41.160156 16.289062 42.324219 15.910156 44.1875 15.394531 C 45.382812 15.058594 45.601562 15.011719 45.703125 15.050781 C 45.757812 15.078125 45.773438 15.097656 45.730469 15.113281 C 45.703125 15.125 45.683594 15.15625 45.703125 15.179688 C 45.714844 15.203125 45.691406 15.234375 45.65625 15.25 C 45.613281 15.265625 45.59375 15.296875 45.609375 15.320312 C 45.621094 15.34375 45.597656 15.378906 45.5625 15.390625 C 45.519531 15.40625 45.5 15.4375 45.511719 15.460938 C 45.527344 15.484375 45.503906 15.519531 45.464844 15.535156 C 45.425781 15.546875 45.40625 15.582031 45.417969 15.605469 C 45.433594 15.628906 45.410156 15.660156 45.371094 15.675781 C 45.328125 15.6875 45.304688 15.722656 45.320312 15.742188 C 45.335938 15.765625 45.300781 15.8125 45.25 15.851562 C 45.195312 15.882812 45.167969 15.929688 45.183594 15.945312 C 45.203125 15.964844 45.179688 15.988281 45.136719 16.007812 C 45.09375 16.019531 45.070312 16.054688 45.082031 16.078125 C 45.097656 16.097656 45.066406 16.136719 45.011719 16.167969 C 44.960938 16.195312 44.929688 16.238281 44.941406 16.261719 C 44.957031 16.285156 44.921875 16.328125 44.871094 16.355469 C 44.820312 16.382812 44.785156 16.425781 44.800781 16.457031 C 44.820312 16.480469 44.796875 16.511719 44.757812 16.527344 C 44.714844 16.539062 44.691406 16.574219 44.707031 16.59375 C 44.71875 16.617188 44.683594 16.667969 44.625 16.707031 C 44.570312 16.75 44.539062 16.78125 44.5625 16.78125 C 44.59375 16.785156 44.5625 16.824219 44.507812 16.871094 C 44.449219 16.917969 44.414062 16.96875 44.425781 16.984375 C 44.441406 17 44.398438 17.046875 44.332031 17.089844 C 44.265625 17.136719 44.222656 17.1875 44.234375 17.210938 C 44.246094 17.230469 44.214844 17.273438 44.164062 17.300781 C 44.109375 17.328125 44.078125 17.371094 44.09375 17.394531 C 44.105469 17.417969 44.0625 17.476562 43.996094 17.519531 C 43.9375 17.5625 43.894531 17.613281 43.902344 17.636719 C 43.917969 17.65625 43.863281 17.722656 43.789062 17.777344 C 43.710938 17.835938 43.65625 17.902344 43.671875 17.921875 C 43.695312 17.964844 43.304688 18.292969 43.226562 18.292969 C 43.203125 18.292969 43.070312 18.214844 42.941406 18.113281 Z M 48.898438 17.988281 C 48.890625 17.898438 48.90625 17.820312 48.933594 17.820312 C 48.957031 17.820312 48.964844 17.761719 48.953125 17.679688 C 48.933594 17.589844 48.941406 17.539062 48.976562 17.539062 C 49.007812 17.539062 49.019531 17.496094 49 17.417969 C 48.980469 17.34375 48.988281 17.300781 49.027344 17.300781 C 49.0625 17.300781 49.070312 17.265625 49.050781 17.207031 C 49.03125 17.148438 49.042969 17.113281 49.074219 17.113281 C 49.101562 17.113281 49.121094 17.089844 49.113281 17.054688 C 49.101562 17.027344 49.132812 16.960938 49.183594 16.910156 C 49.269531 16.824219 49.296875 16.820312 49.542969 16.875 C 49.84375 16.941406 50.496094 17.15625 50.554688 17.203125 C 50.605469 17.253906 50.539062 17.394531 50.46875 17.394531 C 50.429688 17.394531 50.375 17.425781 50.335938 17.460938 C 50.296875 17.5 50.191406 17.566406 50.085938 17.609375 C 49.988281 17.652344 49.890625 17.699219 49.878906 17.71875 C 49.839844 17.769531 49.042969 18.152344 48.972656 18.152344 C 48.933594 18.152344 48.90625 18.085938 48.898438 17.988281 Z M 32.476562 13.703125 C 32.148438 13.417969 31.9375 13.207031 31.96875 13.179688 C 31.992188 13.15625 32.273438 13.144531 32.59375 13.148438 L 33.179688 13.164062 L 33.171875 13.449219 C 33.15625 13.898438 33.132812 14.082031 33.082031 14.132812 C 33.042969 14.171875 32.875 14.046875 32.476562 13.703125 Z M 17.570312 11.523438 C 14.644531 11.148438 12.050781 9.582031 10.519531 7.253906 C 10.21875 6.789062 9.894531 6.191406 9.953125 6.191406 C 9.976562 6.191406 9.964844 6.171875 9.933594 6.152344 C 9.871094 6.113281 9.667969 5.621094 9.710938 5.621094 C 9.730469 5.621094 9.714844 5.59375 9.6875 5.554688 C 9.613281 5.464844 9.441406 4.957031 9.472656 4.914062 C 9.484375 4.890625 9.472656 4.855469 9.441406 4.84375 C 9.417969 4.824219 9.40625 4.78125 9.417969 4.742188 C 9.433594 4.710938 9.421875 4.667969 9.394531 4.652344 C 9.371094 4.632812 9.351562 4.570312 9.351562 4.496094 C 9.351562 4.425781 9.339844 4.273438 9.324219 4.15625 C 9.308594 4.039062 9.300781 3.5625 9.300781 3.09375 C 9.304688 2.625 9.304688 2.160156 9.304688 2.066406 C 9.304688 1.96875 9.324219 1.886719 9.351562 1.886719 C 9.375 1.886719 9.386719 1.824219 9.371094 1.746094 C 9.351562 1.65625 9.363281 1.605469 9.394531 1.605469 C 9.429688 1.605469 9.4375 1.5625 9.417969 1.484375 C 9.398438 1.410156 9.410156 1.367188 9.445312 1.367188 C 9.480469 1.367188 9.488281 1.328125 9.472656 1.273438 C 9.453125 1.214844 9.460938 1.179688 9.496094 1.179688 C 9.527344 1.179688 9.535156 1.140625 9.519531 1.082031 C 9.5 1.03125 9.507812 0.988281 9.535156 0.988281 C 9.566406 0.988281 9.574219 0.957031 9.5625 0.917969 C 9.542969 0.878906 9.554688 0.847656 9.589844 0.847656 C 9.621094 0.847656 9.632812 0.808594 9.613281 0.753906 C 9.59375 0.699219 9.601562 0.65625 9.632812 0.65625 C 9.660156 0.65625 9.667969 0.625 9.65625 0.585938 C 9.636719 0.550781 9.648438 0.515625 9.679688 0.515625 C 9.707031 0.515625 9.714844 0.484375 9.703125 0.445312 C 9.683594 0.40625 9.699219 0.375 9.726562 0.375 C 9.753906 0.375 9.765625 0.339844 9.75 0.304688 C 9.730469 0.265625 9.746094 0.234375 9.777344 0.234375 C 9.804688 0.234375 9.816406 0.207031 9.800781 0.183594 C 9.789062 0.15625 9.804688 0.105469 9.847656 0.0625 C 9.917969 -0.0078125 10.570312 -0.0117188 17.703125 0.0195312 C 21.984375 0.0429688 26.066406 0.0546875 26.78125 0.046875 C 27.496094 0.0429688 28.105469 0.0585938 28.136719 0.078125 C 28.171875 0.101562 28.203125 0.179688 28.21875 0.257812 C 28.230469 0.335938 28.253906 0.449219 28.269531 0.515625 C 28.285156 0.582031 28.308594 0.6875 28.320312 0.746094 C 28.335938 0.808594 28.363281 0.894531 28.382812 0.9375 C 28.40625 0.980469 28.4375 1.097656 28.457031 1.203125 C 28.480469 1.304688 28.5 1.414062 28.511719 1.4375 C 28.632812 1.953125 28.695312 3.519531 28.609375 4.132812 C 28.558594 4.527344 28.457031 5.03125 28.433594 5.03125 C 28.429688 5.03125 28.421875 5.074219 28.414062 5.125 C 28.390625 5.3125 28.277344 5.621094 28.234375 5.621094 C 28.210938 5.621094 28.203125 5.640625 28.222656 5.664062 C 28.234375 5.6875 28.226562 5.722656 28.199219 5.742188 C 28.171875 5.761719 28.160156 5.792969 28.175781 5.816406 C 28.195312 5.839844 28.179688 5.859375 28.152344 5.859375 C 28.121094 5.859375 28.109375 5.878906 28.128906 5.902344 C 28.140625 5.925781 28.132812 5.957031 28.105469 5.976562 C 28.074219 5.996094 28.066406 6.03125 28.082031 6.054688 C 28.097656 6.078125 28.085938 6.09375 28.058594 6.09375 C 28.027344 6.09375 28.019531 6.121094 28.03125 6.144531 C 28.046875 6.171875 28.039062 6.191406 28.007812 6.191406 C 27.980469 6.191406 27.972656 6.214844 27.984375 6.238281 C 28 6.265625 27.992188 6.285156 27.960938 6.285156 C 27.933594 6.285156 27.925781 6.308594 27.9375 6.332031 C 27.953125 6.359375 27.941406 6.378906 27.914062 6.378906 C 27.886719 6.378906 27.878906 6.402344 27.890625 6.425781 C 27.90625 6.453125 27.894531 6.472656 27.867188 6.472656 C 27.839844 6.472656 27.828125 6.496094 27.84375 6.519531 C 27.859375 6.550781 27.847656 6.570312 27.820312 6.570312 C 27.792969 6.570312 27.78125 6.59375 27.796875 6.617188 C 27.8125 6.644531 27.800781 6.664062 27.773438 6.664062 C 27.746094 6.664062 27.730469 6.683594 27.75 6.710938 C 27.765625 6.734375 27.734375 6.796875 27.683594 6.847656 C 27.632812 6.898438 27.601562 6.953125 27.621094 6.964844 C 27.636719 6.980469 27.621094 6.992188 27.589844 6.992188 C 27.554688 6.992188 27.546875 7.019531 27.5625 7.042969 C 27.574219 7.070312 27.554688 7.101562 27.519531 7.117188 C 27.476562 7.132812 27.457031 7.164062 27.472656 7.1875 C 27.484375 7.210938 27.460938 7.246094 27.421875 7.257812 C 27.382812 7.273438 27.363281 7.304688 27.375 7.328125 C 27.390625 7.351562 27.367188 7.386719 27.328125 7.402344 C 27.285156 7.414062 27.261719 7.449219 27.277344 7.472656 C 27.292969 7.492188 27.25 7.546875 27.183594 7.589844 C 27.121094 7.632812 27.078125 7.683594 27.089844 7.707031 C 27.101562 7.726562 27.070312 7.769531 27.015625 7.796875 C 26.964844 7.828125 26.933594 7.867188 26.945312 7.890625 C 26.960938 7.914062 26.898438 7.992188 26.808594 8.058594 C 26.714844 8.128906 26.648438 8.199219 26.652344 8.21875 C 26.667969 8.261719 25.5625 9.359375 25.507812 9.359375 C 25.484375 9.359375 25.441406 9.402344 25.410156 9.453125 C 25.382812 9.503906 25.332031 9.546875 25.292969 9.546875 C 25.253906 9.546875 25.203125 9.589844 25.175781 9.640625 C 25.148438 9.695312 25.09375 9.738281 25.058594 9.738281 C 25.019531 9.738281 24.988281 9.761719 24.988281 9.785156 C 24.988281 9.8125 24.953125 9.832031 24.914062 9.832031 C 24.878906 9.832031 24.84375 9.855469 24.84375 9.878906 C 24.84375 9.90625 24.8125 9.925781 24.773438 9.925781 C 24.734375 9.925781 24.703125 9.945312 24.703125 9.96875 C 24.703125 9.992188 24.628906 10.039062 24.539062 10.066406 C 24.449219 10.097656 24.34375 10.148438 24.3125 10.175781 C 24.28125 10.210938 24.097656 10.304688 23.914062 10.394531 C 23.726562 10.484375 23.570312 10.574219 23.570312 10.59375 C 23.570312 10.609375 23.390625 10.683594 23.167969 10.753906 C 22.945312 10.824219 22.765625 10.898438 22.765625 10.917969 C 22.765625 10.9375 22.6875 10.964844 22.59375 10.984375 C 22.492188 11 22.351562 11.046875 22.277344 11.082031 C 22.203125 11.121094 22.101562 11.15625 22.054688 11.15625 C 22 11.15625 21.925781 11.171875 21.878906 11.199219 C 21.769531 11.257812 20.542969 11.507812 20.121094 11.558594 C 19.5625 11.621094 18.214844 11.609375 17.570312 11.523438 Z M 41.164062 11.03125 C 40.710938 10.953125 40.40625 10.832031 40.042969 10.59375 C 39.554688 10.265625 38.867188 9.523438 38.816406 9.253906 C 38.808594 9.222656 38.78125 9.179688 38.765625 9.164062 C 38.746094 9.148438 38.722656 9.089844 38.71875 9.035156 C 38.710938 8.980469 38.691406 8.933594 38.667969 8.933594 C 38.644531 8.933594 38.636719 8.898438 38.652344 8.863281 C 38.667969 8.824219 38.65625 8.78125 38.632812 8.761719 C 38.605469 8.75 38.589844 8.691406 38.605469 8.644531 C 38.617188 8.597656 38.609375 8.542969 38.589844 8.53125 C 38.539062 8.496094 38.542969 7.324219 38.59375 7.324219 C 38.617188 7.324219 38.621094 7.261719 38.609375 7.183594 C 38.589844 7.097656 38.597656 7.042969 38.628906 7.042969 C 38.652344 7.042969 38.664062 7 38.652344 6.945312 C 38.636719 6.894531 38.652344 6.851562 38.679688 6.851562 C 38.703125 6.851562 38.71875 6.820312 38.703125 6.78125 C 38.683594 6.742188 38.699219 6.710938 38.730469 6.710938 C 38.757812 6.710938 38.769531 6.691406 38.753906 6.664062 C 38.742188 6.640625 38.746094 6.617188 38.773438 6.617188 C 38.800781 6.617188 38.8125 6.582031 38.796875 6.542969 C 38.777344 6.507812 38.792969 6.472656 38.824219 6.472656 C 38.855469 6.472656 38.867188 6.453125 38.847656 6.425781 C 38.835938 6.402344 38.863281 6.339844 38.914062 6.289062 C 38.96875 6.238281 38.996094 6.183594 38.980469 6.171875 C 38.960938 6.15625 38.976562 6.144531 39.011719 6.144531 C 39.042969 6.144531 39.050781 6.121094 39.039062 6.09375 C 39.023438 6.066406 39.042969 6.035156 39.082031 6.019531 C 39.125 6.003906 39.148438 5.972656 39.132812 5.953125 C 39.117188 5.929688 39.171875 5.867188 39.25 5.8125 C 39.328125 5.753906 39.386719 5.6875 39.378906 5.660156 C 39.375 5.632812 39.421875 5.582031 39.480469 5.546875 C 39.542969 5.515625 39.636719 5.433594 39.695312 5.367188 C 39.917969 5.097656 40.71875 4.730469 41.160156 4.699219 C 41.261719 4.691406 41.390625 4.671875 41.4375 4.652344 C 41.488281 4.628906 41.722656 4.628906 41.957031 4.644531 C 43.476562 4.75 44.667969 5.824219 44.90625 7.324219 C 44.945312 7.589844 44.921875 8.53125 44.871094 8.648438 C 44.867188 8.664062 44.855469 8.695312 44.847656 8.71875 C 44.84375 8.75 44.832031 8.777344 44.828125 8.789062 C 44.824219 8.804688 44.804688 8.867188 44.796875 8.933594 C 44.785156 8.992188 44.757812 9.058594 44.738281 9.074219 C 44.71875 9.089844 44.695312 9.140625 44.691406 9.191406 C 44.664062 9.335938 44.546875 9.546875 44.488281 9.546875 C 44.460938 9.546875 44.457031 9.570312 44.46875 9.59375 C 44.484375 9.621094 44.464844 9.65625 44.425781 9.671875 C 44.386719 9.683594 44.359375 9.71875 44.375 9.742188 C 44.390625 9.761719 44.347656 9.816406 44.28125 9.859375 C 44.214844 9.902344 44.171875 9.949219 44.1875 9.964844 C 44.222656 10 43.875 10.351562 43.800781 10.351562 C 43.761719 10.351562 43.722656 10.382812 43.710938 10.421875 C 43.691406 10.460938 43.652344 10.492188 43.621094 10.492188 C 43.585938 10.492188 43.546875 10.507812 43.539062 10.53125 C 43.511719 10.59375 42.773438 10.914062 42.460938 10.992188 C 42.097656 11.082031 41.550781 11.101562 41.164062 11.03125 Z M 41.164062 11.03125 "
    />
  </g>
</svg>
