<svg id="root" id="outputsvg" xmlns="http://www.w3.org/2000/svg" width="1214" height="704" viewBox="0 0 12140 7040">
  <g id="l5scvZ764001LhNz744CY1g" fill="rgb(241,239,208)">
    <g>
      <path id="p136G4SjSM" d="M7103 6535 c0 -27 4 -35 19 -35 14 0 18 8 18 35 0 27 -4 35 -18 35 -15 0 -19 -8 -19 -35z">
      </path>
      <path id="pwt7ME5Uo"
        d="M5940 6330 c0 -28 2 -30 40 -30 49 0 56 25 10 35 -16 4 -30 11 -30 16 0 5 -4 9 -10 9 -5 0 -10 -13 -10 -30z">
      </path>
      <path id="pglBseN2X"
        d="M8971 6196 c-10 -12 -16 -27 -14 -33 3 -7 -3 -20 -11 -29 -18 -17 -22 -74 -5 -74 5 0 7 -4 4 -10 -3 -5 -1 -10 6 -10 6 0 9 -8 6 -20 -3 -11 -1 -20 5 -20 5 0 6 -4 3 -10 -3 -5 -1 -10 4 -10 6 0 11 -9 11 -20 0 -15 -7 -20 -24 -20 -14 0 -28 -4 -31 -10 -3 -5 -18 -10 -33 -10 -15 0 -49 -7 -77 -16 -27 -9 -70 -20 -95 -25 -25 -4 -65 -13 -90 -19 -25 -6 -65 -15 -90 -19 -25 -5 -63 -15 -85 -23 -22 -9 -74 -21 -115 -27 -41 -7 -104 -21 -140 -31 -94 -26 -157 -40 -185 -40 -13 0 -26 -4 -29 -9 -6 -9 -36 -16 -219 -47 -20 -3 -40 -10 -43 -15 -3 -5 -25 -9 -49 -9 -24 0 -47 -4 -50 -10 -3 -5 -21 -10 -40 -10 -19 0 -37 -4 -40 -10 -3 -5 -21 -10 -40 -10 -19 0 -36 -4 -39 -9 -6 -9 -45 -18 -126 -27 -25 -3 -49 -10 -54 -15 -6 -5 -25 -9 -42 -9 -18 0 -36 -4 -39 -10 -3 -5 -21 -10 -39 -10 -17 0 -36 -4 -42 -9 -5 -5 -27 -11 -49 -14 -75 -11 -110 -19 -142 -33 -18 -8 -62 -17 -98 -21 -36 -3 -68 -10 -71 -14 -3 -5 -20 -9 -39 -9 -19 0 -37 -4 -40 -10 -3 -5 -21 -10 -40 -10 -19 0 -37 -4 -40 -10 -3 -5 -21 -10 -40 -10 -19 0 -37 -4 -40 -10 -3 -5 -21 -10 -40 -10 -19 0 -37 -4 -40 -10 -3 -5 -21 -10 -39 -10 -17 0 -36 -4 -42 -9 -5 -5 -24 -12 -42 -16 -29 -6 -32 -5 -30 17 3 19 -2 24 -26 26 -16 2 -33 -1 -39 -7 -6 -6 -20 -11 -31 -11 -11 0 -33 -4 -50 -10 -17 -5 -43 -12 -58 -15 -30 -6 -39 -35 -12 -35 27 0 9 -25 -20 -27 -15 -1 -33 -6 -39 -11 -22 -17 -75 -22 -80 -7 -6 13 27 28 68 29 11 1 21 9 23 19 3 14 -4 17 -36 17 -44 0 -89 -38 -84 -71 3 -16 -1 -18 -26 -13 -17 4 -32 1 -36 -5 -4 -6 -27 -11 -51 -11 -24 0 -47 -4 -50 -10 -3 -5 -22 -10 -41 -10 -19 0 -48 -7 -64 -15 -33 -17 -38 -11 -13 17 15 17 14 18 -30 18 -40 0 -47 -3 -47 -20 0 -12 7 -20 17 -20 16 0 16 -1 1 -16 -12 -12 -24 -15 -45 -10 -24 7 -25 9 -10 17 28 16 20 29 -18 29 -19 0 -35 -4 -35 -10 0 -5 -18 -10 -40 -10 -33 0 -40 -3 -40 -20 0 -12 7 -20 16 -20 29 0 8 -25 -24 -28 -33 -3 -44 11 -17 22 29 11 15 26 -25 26 -33 0 -40 -3 -40 -20 0 -12 7 -20 16 -20 14 0 14 -3 4 -15 -13 -16 -60 -21 -60 -7 0 4 5 13 11 19 7 7 7 13 1 17 -12 7 -37 -21 -37 -43 0 -9 -6 -16 -12 -15 -7 1 -31 2 -53 3 -29 1 -40 5 -40 17 0 8 -13 20 -30 25 -16 6 -30 14 -30 18 0 4 -18 14 -40 21 -39 13 -51 32 -29 45 5 4 19 -1 30 -11 10 -9 19 -13 19 -8 0 5 7 1 14 -8 12 -17 14 -17 31 2 16 17 16 20 2 20 -8 0 -17 4 -19 9 -1 5 -30 12 -63 16 -49 6 -58 5 -47 -6 22 -23 13 -29 -48 -29 -60 0 -70 6 -48 28 9 9 5 12 -20 12 -33 0 -43 -16 -17 -26 25 -10 17 -21 -29 -42 -24 -12 -53 -33 -64 -47 -11 -14 -26 -25 -34 -25 -17 0 -58 -41 -58 -58 0 -7 -5 -12 -11 -12 -16 0 -7 -152 9 -158 7 -2 12 -15 12 -28 0 -17 6 -24 20 -24 13 0 18 5 14 15 -4 8 -1 15 4 15 6 0 25 -27 43 -61 32 -59 34 -61 66 -56 18 3 33 2 33 -3 0 -5 8 -11 18 -13 16 -4 16 -5 0 -6 -22 -1 -24 -27 -2 -35 26 -10 154 -7 154 4 0 6 14 10 30 10 23 0 30 4 30 20 0 13 -7 20 -20 20 -11 0 -20 -4 -20 -10 0 -5 -15 -10 -32 -10 l-33 1 40 14 c22 8 59 35 83 60 41 42 62 55 62 37 0 -4 -5 -13 -12 -20 -9 -9 -5 -12 20 -12 31 0 32 2 32 39 0 22 -4 43 -10 46 -5 3 -10 -2 -10 -12 -1 -17 -1 -17 -11 0 -18 31 -1 74 38 97 22 13 39 17 42 11 4 -6 12 -7 21 -1 23 14 60 12 76 -5 15 -14 11 -20 -10 -16 -5 1 -4 -5 3 -13 7 -9 18 -13 25 -9 6 4 16 8 21 8 6 0 10 7 10 15 0 8 -6 14 -12 13 -7 -2 -13 2 -13 7 0 6 3 10 8 11 4 0 24 2 44 4 21 2 40 0 43 -6 8 -12 52 -12 60 1 3 6 26 10 49 10 27 0 48 6 56 15 20 24 130 19 130 -6 0 -5 -7 -9 -15 -9 -8 0 -15 -7 -15 -15 0 -16 43 -21 74 -9 25 10 20 44 -6 44 -21 0 -21 0 -2 15 21 16 114 21 114 6 0 -5 8 -12 18 -14 16 -4 16 -5 0 -6 -10 0 -18 -8 -18 -16 0 -20 44 -20 60 0 13 16 4 39 -12 29 -6 -4 -8 -2 -4 4 10 17 137 27 146 12 5 -9 17 -10 36 -5 16 5 35 9 42 11 8 1 22 10 31 18 21 19 87 21 94 4 3 -10 9 -10 26 0 11 6 30 12 40 12 11 0 23 5 26 10 8 13 96 13 115 -1 11 -8 12 -12 3 -16 -24 -9 -13 -23 17 -23 23 0 30 4 30 20 0 14 -5 18 -17 13 -11 -4 -14 -3 -9 5 4 7 24 11 44 11 20 -1 29 -3 19 -6 -34 -9 -15 -38 28 -41 38 -3 39 -3 23 15 -16 18 -16 19 2 31 12 7 52 12 101 11 52 -1 84 3 89 10 4 7 25 11 48 10 23 -2 47 2 54 9 8 8 51 12 128 12 79 0 120 4 129 13 11 10 14 10 18 0 6 -16 43 -17 43 -2 0 6 22 9 55 8 32 -1 61 3 67 9 7 7 41 12 79 12 37 0 71 5 74 11 4 6 39 9 89 8 45 -2 88 1 96 6 8 5 46 11 84 12 39 2 73 8 77 14 5 9 35 10 101 6 76 -5 99 -3 116 9 16 11 43 14 96 13 40 -1 79 1 85 5 6 4 51 9 99 11 48 2 110 9 137 15 28 6 63 8 79 5 15 -3 48 2 72 10 27 9 77 14 133 13 56 -1 95 3 104 10 9 8 46 12 95 11 44 -1 86 2 93 7 7 4 35 9 63 10 28 2 69 6 91 9 119 15 200 16 219 1 16 -13 17 -17 3 -30 -11 -12 -14 -30 -10 -80 8 -90 1 -96 -103 -96 -45 0 -86 -4 -89 -10 -3 -5 -16 -10 -29 -10 -12 0 -27 -5 -34 -12 -6 -6 -24 -12 -40 -13 -42 -2 -185 -90 -256 -157 -54 -51 -66 -57 -103 -58 -26 0 -43 5 -43 11 0 24 -198 -5 -273 -40 -56 -26 -163 -124 -153 -140 4 -6 2 -11 -3 -11 -6 0 -11 -9 -11 -19 0 -11 -5 -21 -12 -23 -13 -5 -18 -138 -5 -138 5 0 5 -4 2 -10 -3 -5 -1 -10 6 -10 6 0 9 -8 6 -20 -3 -11 0 -20 6 -20 6 0 8 -3 4 -6 -3 -4 1 -13 9 -21 8 -8 11 -19 8 -24 -3 -6 3 -13 15 -16 11 -3 18 -9 16 -14 -3 -4 3 -12 12 -18 10 -5 16 -13 14 -17 -2 -5 12 -16 30 -26 19 -10 30 -18 25 -18 -5 0 -4 -6 2 -12 5 -7 9 -25 7 -40 -2 -16 1 -28 7 -28 6 0 8 -9 5 -20 -3 -11 -1 -20 5 -20 5 0 6 -4 3 -10 -3 -5 -1 -10 5 -10 6 0 8 -4 5 -10 -3 -5 1 -10 10 -10 11 0 15 -5 11 -15 -3 -9 1 -18 9 -21 8 -4 12 -10 9 -15 -3 -5 2 -9 11 -9 11 0 15 -5 12 -14 -7 -16 62 -86 85 -86 9 0 18 -4 20 -9 5 -15 149 -83 163 -77 8 3 15 0 18 -7 2 -8 48 -10 153 -9 115 1 155 -2 178 -13 15 -8 35 -15 43 -15 10 0 13 -6 9 -16 -4 -11 1 -18 14 -21 11 -3 20 -9 20 -13 0 -12 57 -33 69 -25 6 3 11 2 11 -3 0 -19 71 -42 110 -36 29 5 43 2 56 -10 17 -18 67 -17 95 0 8 4 27 7 42 5 15 -1 39 5 53 14 14 9 33 15 42 12 20 -4 108 37 140 66 12 11 22 16 22 11 0 -16 116 -68 135 -60 9 3 23 -1 32 -10 10 -10 25 -13 40 -9 14 3 29 0 37 -8 21 -21 243 -21 275 -1 12 9 31 14 41 11 10 -3 28 2 39 10 12 8 25 12 30 9 5 -3 25 6 45 19 21 14 54 34 75 44 40 21 76 53 129 115 27 31 42 39 74 42 21 1 46 8 54 15 8 6 17 10 20 7 9 -9 68 17 119 52 151 106 198 189 196 347 0 53 -7 85 -23 120 -34 72 -79 130 -111 144 -16 7 -35 23 -44 36 -8 12 -22 23 -30 23 -8 0 -29 10 -46 23 -17 12 -40 27 -51 32 -10 6 -17 13 -15 17 6 10 -112 128 -128 128 -7 0 -27 8 -46 19 -63 35 -239 51 -288 25 -16 -8 -34 -12 -39 -9 -10 6 -56 -12 -89 -37 -35 -27 -51 -23 -51 12 0 17 -4 30 -8 30 -5 0 -9 21 -11 47 -1 26 -5 52 -9 57 -9 15 -23 115 -28 214 -3 45 -9 82 -14 82 -4 0 -9 55 -9 123 -2 123 -2 123 26 150 64 62 265 217 281 217 28 0 84 23 133 54 62 39 99 116 99 205 0 37 -5 67 -12 74 -10 9 -226 12 -865 13 -852 1 -853 1 -872 -20z m1558 -133 c7 -8 7 -14 1 -18 -6 -3 -10 -1 -10 4 0 6 -9 11 -20 11 -11 0 -20 -4 -20 -10 0 -5 7 -10 15 -10 23 0 18 -15 -9 -30 -15 -8 -41 -11 -66 -7 -35 4 -43 2 -58 -20 -30 -45 -73 -83 -94 -83 -17 0 -18 3 -8 15 11 13 8 15 -21 15 -46 0 -61 -12 -57 -44 l3 -27 23 21 c18 17 22 18 22 4 0 -16 -86 -104 -102 -104 -12 0 -10 14 4 28 18 18 -22 16 -83 -4 -46 -15 -68 -44 -34 -44 20 0 19 -16 -1 -24 -30 -12 -173 -7 -181 7 -4 6 -19 12 -32 12 -13 0 -26 6 -28 13 -3 6 2 12 11 12 9 0 16 8 16 20 0 13 -7 20 -20 20 -11 0 -20 6 -20 14 0 15 -21 26 -51 26 -14 0 -19 7 -19 30 0 27 -3 30 -30 30 -16 0 -30 -3 -30 -6 0 -9 28 -34 38 -34 7 0 32 -42 32 -55 0 -14 -27 -2 -38 15 -11 19 -19 20 -72 14 -44 -5 -60 -3 -60 6 0 6 9 14 20 17 11 3 20 12 20 19 0 20 -66 19 -74 -1 -3 -8 -1 -15 4 -15 6 0 10 -7 10 -16 0 -11 -9 -14 -37 -12 -35 3 -61 28 -29 28 9 0 16 8 16 20 0 16 -7 20 -30 20 -16 0 -30 -4 -30 -10 0 -5 5 -10 10 -10 6 0 10 -7 10 -15 0 -26 -23 -17 -67 27 -44 43 -54 68 -28 68 8 0 15 -4 15 -10 0 -5 5 -10 10 -10 6 0 10 14 10 30 0 29 -2 30 -45 30 -33 0 -45 -4 -45 -15 0 -8 7 -15 15 -15 19 0 19 -14 0 -30 -25 -20 -112 8 -158 51 -12 10 -17 19 -12 19 5 0 0 6 -11 14 -18 14 -18 15 6 20 14 3 34 7 44 8 11 2 322 3 691 3 509 0 675 -3 684 -12z m-769 -275 c0 -18 -23 -2 -32 22 -9 23 -8 23 12 5 11 -10 20 -22 20 -27z m328 -20 c-6 -18 -28 -21 -28 -4 0 9 7 16 16 16 9 0 14 -5 12 -12z m-435 -185 c-23 -9 -15 -42 12 -49 14 -3 25 -12 25 -20 0 -9 12 -14 35 -14 28 0 35 4 35 19 0 12 -8 21 -22 23 -12 2 -23 8 -25 15 -3 8 14 5 49 -8 29 -10 69 -20 88 -20 19 -1 27 -3 18 -6 -10 -2 -18 -13 -18 -24 0 -17 8 -19 85 -19 69 0 85 3 85 15 0 8 5 15 11 15 5 0 7 -4 4 -10 -3 -5 -1 -10 4 -10 16 0 13 -39 -4 -56 -13 -14 -15 -14 -15 0 0 9 -7 16 -15 16 -10 0 -15 -10 -15 -27 0 -47 11 -73 31 -73 12 0 16 5 13 15 -4 9 -1 15 8 15 10 0 12 -12 10 -45 -3 -28 0 -45 7 -45 6 0 11 -9 11 -20 0 -11 -4 -20 -10 -20 -14 0 -12 -27 3 -33 9 -4 9 -6 -1 -6 -8 -1 -16 8 -19 19 -9 33 -23 11 -23 -36 0 -38 3 -44 21 -44 17 0 20 5 16 25 -3 17 0 24 7 22 7 -3 10 -23 8 -51 -2 -29 1 -46 8 -46 6 0 8 -4 5 -10 -3 -5 -2 -10 3 -10 5 0 7 -14 3 -32 -6 -28 -11 -33 -36 -33 -15 0 -30 6 -32 13 -3 6 2 12 11 12 9 0 16 6 16 14 0 8 5 16 11 18 6 2 8 14 4 31 -8 30 -25 27 -25 -4 0 -17 -7 -19 -74 -19 -65 0 -74 2 -79 20 -4 15 -14 20 -38 20 -26 0 -30 -3 -21 -12 7 -7 12 -16 12 -21 0 -15 -81 15 -108 41 -7 6 -20 12 -28 12 -8 0 -14 5 -14 10 0 6 9 10 20 10 13 0 20 7 20 20 0 16 -7 20 -35 20 -19 0 -35 -4 -35 -10 0 -5 5 -10 10 -10 6 0 10 -4 10 -10 0 -14 -35 -12 -75 4 -29 13 -35 20 -35 46 0 17 6 33 13 35 8 4 13 35 15 98 3 103 11 206 17 225 2 6 15 12 27 11 13 0 17 -3 11 -6z m322 -63 c-40 -10 -85 -12 -85 -2 0 4 26 8 58 8 44 2 50 0 27 -6z m-3725 -210 c0 -12 -28 -25 -36 -17 -9 9 6 27 22 27 8 0 14 -5 14 -10z m-82 -22 c-5 -16 -48 -24 -48 -10 0 11 17 20 38 21 8 1 12 -5 10 -11z m-680 -160 c-5 -15 -58 -24 -58 -10 0 15 12 22 38 22 14 0 22 -5 20 -12z m4400 -60 c16 -16 15 -28 -2 -28 -17 0 -38 24 -29 33 9 10 17 9 31 -5z m-5208 -86 c0 -21 -7 -47 -16 -58 -14 -17 -15 -17 -10 -1 3 10 6 36 6 58 0 21 5 39 10 39 6 0 10 -17 10 -38z m4807 -1 c17 -10 17 -10 1 -11 -21 0 -24 -20 -6 -38 12 -12 110 -17 121 -5 9 8 -40 33 -65 33 -18 0 -19 2 -7 16 8 10 15 12 17 5 2 -6 10 -11 18 -11 8 0 14 -4 14 -10 0 -5 16 -10 35 -10 19 0 35 -4 35 -10 0 -5 10 -10 22 -10 12 0 18 -3 15 -7 -4 -3 -1 -13 5 -22 10 -12 8 -12 -8 2 -27 22 -34 22 -34 -3 0 -11 12 -26 28 -34 15 -8 40 -28 56 -45 18 -19 40 -31 55 -31 24 0 23 3 -24 52 -39 42 -41 45 -8 14 22 -21 46 -36 51 -32 5 3 25 -1 43 -9 21 -8 27 -14 16 -15 -10 0 -15 -4 -12 -10 3 -5 33 -10 65 -10 32 0 62 5 65 10 3 6 -1 10 -10 10 -25 0 -9 17 22 23 16 3 32 -1 40 -9 12 -12 12 -14 -2 -14 -10 0 -15 -7 -13 -17 2 -13 14 -19 41 -21 35 -3 51 11 25 21 -10 4 -9 8 2 16 9 6 16 7 18 1 2 -6 16 -10 31 -10 17 0 36 -10 49 -25 12 -14 26 -25 31 -25 5 0 12 -8 15 -17 6 -16 6 -16 -12 0 -41 38 -57 11 -17 -28 31 -32 85 -35 85 -5 0 13 -5 18 -15 14 -53 -21 48 83 114 117 27 14 69 25 105 27 34 2 65 8 70 12 5 5 15 3 22 -5 16 -16 19 -29 4 -20 -5 3 -10 -1 -10 -9 0 -11 9 -16 26 -16 24 0 25 2 13 17 -12 15 -12 16 4 10 10 -4 30 -7 43 -7 14 0 23 -4 20 -9 -4 -5 0 -12 6 -14 9 -4 10 -6 1 -6 -6 -1 -15 4 -18 9 -10 17 -25 11 -25 -9 0 -21 19 -31 57 -31 21 0 24 2 13 15 -22 27 14 18 40 -10 25 -26 21 -47 -5 -25 -13 11 -15 7 -15 -29 0 -46 17 -71 49 -71 14 0 19 5 15 15 -5 11 -2 13 10 9 9 -3 16 -10 16 -14 0 -7 19 -13 88 -28 18 -4 33 -11 33 -17 1 -14 30 -45 44 -45 15 0 70 -58 62 -66 -4 -4 -13 -1 -22 6 -13 11 -15 9 -15 -12 0 -14 5 -39 11 -57 13 -36 4 -101 -14 -101 -15 0 -37 -46 -37 -78 0 -21 2 -23 15 -12 28 23 29 1 1 -25 -44 -40 -138 -83 -212 -96 -55 -9 -74 -18 -103 -45 -19 -19 -39 -44 -45 -57 -12 -22 -83 -75 -143 -105 -36 -17 -59 -8 -30 12 27 20 20 27 -20 24 -27 -2 -39 -8 -41 -20 -2 -11 3 -18 13 -18 25 0 12 -24 -18 -34 -35 -13 -45 -1 -22 24 18 20 18 20 -18 20 -26 0 -37 -4 -37 -15 0 -8 7 -15 16 -15 9 0 14 -6 11 -12 -4 -15 -192 -19 -239 -5 -32 9 -38 37 -8 37 32 0 26 38 -7 46 -16 4 -37 13 -48 20 -11 8 -29 14 -41 14 -13 0 -24 8 -27 20 -4 16 -14 20 -43 20 -30 0 -35 -3 -26 -12 16 -16 15 -28 -3 -28 -8 0 -15 5 -15 10 0 24 -39 6 -80 -36 -46 -47 -112 -88 -124 -77 -11 11 -6 21 14 26 11 3 20 12 20 21 0 24 -61 21 -83 -4 -21 -25 -22 -40 -2 -40 8 0 15 -4 15 -9 0 -15 -111 -43 -139 -36 -14 3 -41 9 -58 12 -36 6 -46 33 -13 33 13 0 20 7 20 20 0 16 -7 20 -30 20 -16 0 -30 5 -30 10 0 6 -7 10 -15 10 -8 0 -15 5 -15 10 0 6 -16 10 -37 10 -35 0 -36 0 -18 -20 10 -11 24 -20 32 -20 7 0 13 -7 13 -16 0 -28 -39 -5 -106 63 -55 57 -65 63 -83 53 -12 -6 -21 -9 -21 -6 0 3 -16 -2 -35 -10 -47 -19 -231 -19 -265 1 -27 15 -32 18 -98 47 -48 21 -115 84 -106 99 3 6 11 5 20 -2 12 -9 14 -6 14 20 0 17 -4 31 -8 31 -15 0 -36 95 -33 153 3 57 3 57 -25 57 -22 0 -25 -3 -14 -10 23 -15 4 -23 -37 -15 -26 5 -50 20 -80 52 -24 25 -40 49 -37 54 3 6 12 5 21 -2 13 -11 14 -7 12 29 -2 22 0 44 4 48 4 4 7 15 7 25 0 10 7 22 16 27 10 5 14 19 12 37 l-3 28 -28 -28 c-25 -25 -27 -26 -19 -6 11 31 81 71 107 60 18 -7 18 -8 2 -8 -36 -2 -5 -21 34 -21 32 0 39 3 39 19 0 14 -8 21 -27 24 -16 2 -1 4 32 5 33 0 69 -4 80 -9 15 -7 12 -8 -12 -3 -44 8 -46 -22 -3 -31 16 -4 32 -11 35 -16 4 -5 15 -9 26 -9 11 0 27 -7 35 -15 9 -8 30 -15 47 -15 23 0 28 3 20 11 -9 9 -6 20 10 45 22 34 54 48 43 19 -4 -10 1 -15 14 -15 16 0 20 7 20 31 0 26 -2 29 -14 20 -10 -9 -16 -9 -21 -1 -9 15 57 94 103 121 20 13 40 28 44 34 4 6 26 18 50 25 24 7 50 20 59 27 18 15 73 8 63 -8 -3 -5 -10 -7 -15 -4 -5 4 -9 -1 -9 -9 0 -11 9 -16 28 -16 48 0 72 11 72 32 0 16 -5 19 -25 16 -14 -3 -25 -2 -25 3 0 8 100 17 157 13 17 -1 40 -7 50 -13z m-4803 -127 c4 -9 4 -19 2 -21 -8 -8 -26 8 -26 23 0 19 16 18 24 -2z m4097 -127 c-13 -13 -26 -3 -16 12 3 6 11 8 17 5 6 -4 6 -10 -1 -17z m65 -32 c19 -19 14 -19 -22 0 -21 11 -24 15 -11 15 10 0 25 -7 33 -15z m2213 -394 c-15 -5 -22 6 -14 19 6 9 10 9 16 -1 5 -8 4 -15 -2 -18z m-2419 -96 c0 -8 -7 -15 -15 -15 -9 0 -12 6 -9 15 4 8 10 15 15 15 5 0 9 -7 9 -15z m1338 -240 c-3 -3 -16 -1 -29 4 -13 5 -18 10 -10 10 8 1 11 7 7 19 -6 13 -2 12 15 -5 13 -12 20 -25 17 -28z m-573 -56 c4 -6 5 -12 2 -15 -7 -7 -37 7 -37 17 0 13 27 11 35 -2z">
      </path>
      <path id="pIc552njK" d="M9135 6040 c10 -11 20 -20 22 -20 1 0 3 9 3 20 0 14 -7 20 -22 20 -20 0 -21 -1 -3 -20z">
      </path>
      <path id="pnO7CocnA" d="M10300 5973 c0 -35 1 -36 19 -19 10 10 21 26 24 37 4 15 0 19 -19 19 -21 0 -24 -5 -24 -37z">
      </path>
      <path id="p12nV2KYXf" d="M9820 5775 c7 -8 19 -15 26 -15 8 0 14 7 14 15 0 10 -10 15 -26 15 -22 0 -25 -2 -14 -15z">
      </path>
      <path id="pVZe2CSGd" d="M9630 5431 c-17 -33 -12 -61 10 -61 17 0 20 7 20 40 0 43 -13 52 -30 21z"></path>
      <path id="pcOSB4eaA"
        d="M9176 4943 c-27 -4 -56 -24 -56 -37 0 -3 20 -6 45 -6 41 0 45 2 45 25 0 14 -1 24 -2 24 -2 -1 -16 -4 -32 -6z">
      </path>
      <path id="pwCYihH6T" d="M9070 4888 c-37 -22 -29 -35 15 -24 16 4 25 13 25 26 0 24 2 24 -40 -2z"></path>
      <path id="pErI5hQuZ"
        d="M10458 4826 c-28 -20 -22 -26 27 -26 38 0 45 3 45 20 0 15 -7 20 -27 20 -16 0 -36 -7 -45 -14z"></path>
      <path id="pXzJ6CKda" d="M10840 4625 c0 -10 10 -15 26 -15 22 0 25 2 14 15 -7 8 -19 15 -26 15 -8 0 -14 -7 -14 -15z">
      </path>
      <path id="p1CUc9LcMW" d="M10920 4599 c0 -32 31 -62 60 -57 19 3 18 6 -19 43 -40 38 -41 39 -41 14z"></path>
      <path id="p8efLWZVf" d="M10680 4166 c0 -23 2 -24 35 -13 19 6 35 16 35 24 0 8 -13 13 -35 13 -30 0 -35 -3 -35 -24z">
      </path>
      <path id="pT54ciuS" d="M8754 4101 c10 -10 26 -21 37 -24 15 -4 19 0 19 19 0 21 -5 24 -37 24 -35 0 -36 -1 -19 -19z">
      </path>
      <path id="pD1DJMJuO" d="M10610 4053 c0 -21 3 -24 12 -15 17 17 19 42 2 42 -9 0 -14 -10 -14 -27z"></path>
      <path id="p1GyWTc2z9" d="M2909 5629 c-14 -27 -3 -89 16 -89 11 0 15 14 15 55 0 57 -11 70 -31 34z"></path>
      <path id="p1err3Ygp"
        d="M4002 5588 c-22 -22 -13 -28 38 -28 28 0 50 4 50 8 0 16 -25 32 -50 32 -14 0 -31 -5 -38 -12z"></path>
      <path id="pOku1vtmu" d="M4098 5406 c-28 -20 -22 -26 27 -26 46 0 54 7 33 28 -16 16 -39 15 -60 -2z"></path>
      <path id="p12H2JkmqH" d="M6318 5026 c-27 -20 -22 -26 22 -26 33 0 40 3 40 20 0 24 -35 27 -62 6z"></path>
      <path id="pkIRFOdaD"
        d="M6175 5000 c-18 -20 -17 -20 18 -20 30 0 37 4 37 20 0 13 -7 20 -18 20 -11 0 -27 -9 -37 -20z"></path>
      <path id="pC2AkqSly" d="M5180 4905 c0 -8 7 -15 15 -15 8 0 15 7 15 15 0 8 -7 15 -15 15 -8 0 -15 -7 -15 -15z">
      </path>
      <path id="pZH30mQHy" d="M2062 4748 c-21 -21 -13 -28 28 -28 45 0 57 23 18 34 -31 8 -32 8 -46 -6z"></path>
      <path id="p11mHxtu2c" d="M2258 4753 c-36 -9 -20 -33 22 -33 33 0 40 3 40 20 0 20 -20 24 -62 13z"></path>
      <path id="ptHD9vL9c" d="M2598 4746 c-24 -18 -23 -46 2 -46 16 0 20 7 20 30 0 34 1 34 -22 16z"></path>
      <path id="prL5qVc5x"
        d="M4720 4687 c0 -36 1 -37 35 -37 24 0 35 5 35 15 0 8 -5 15 -12 15 -6 0 -22 10 -35 22 l-23 21 0 -36z"></path>
      <path id="p9gveHgb8" d="M6818 4615 c-3 -41 -1 -45 19 -45 21 0 23 5 23 45 0 38 -3 45 -19 45 -15 0 -20 -9 -23 -45z">
      </path>
      <path id="pmi0vQhh8"
        d="M2948 4623 c-36 -4 -38 -6 -38 -39 0 -24 5 -34 15 -34 8 0 15 7 15 15 0 8 5 15 10 15 6 0 10 -4 10 -10 0 -5 14 -10 30 -10 23 0 30 4 30 20 0 11 7 20 15 20 8 0 15 7 15 15 0 15 -17 17 -102 8z">
      </path>
      <path id="pVFnz9O8U"
        d="M4820 4500 c0 -11 -7 -20 -15 -20 -8 0 -15 -7 -15 -15 0 -10 11 -15 35 -15 33 0 35 2 35 35 0 28 -4 35 -20 35 -13 0 -20 -7 -20 -20z">
      </path>
      <path id="pNeKvYL3K"
        d="M6890 4376 c0 -19 4 -23 20 -19 11 3 27 0 35 -7 13 -11 15 -8 15 19 0 29 -2 31 -35 31 -30 0 -35 -3 -35 -24z">
      </path>
      <path id="pBPXHXIiT"
        d="M3200 3506 c0 -7 10 -16 23 -20 12 -3 172 -6 355 -6 321 0 372 4 372 30 0 6 -141 10 -375 10 -313 0 -375 -2 -375 -14z">
      </path>
      <path id="plS1MtOJy"
        d="M2100 3195 c0 -32 2 -35 30 -35 17 0 30 5 30 10 0 6 -5 10 -11 10 -7 0 -9 10 -7 25 4 21 1 25 -18 25 -21 0 -24 -5 -24 -35z">
      </path>
      <path id="pozXKgJvk"
        d="M5400 2927 c0 -33 3 -37 26 -37 21 0 24 3 15 13 -6 8 -9 16 -6 19 3 3 -4 13 -15 23 -20 18 -20 18 -20 -18z">
      </path>
      <path id="pnOQd86tv"
        d="M3280 2560 c0 -29 4 -40 15 -40 8 0 15 6 15 13 0 8 9 22 20 32 29 26 25 35 -15 35 -34 0 -35 -1 -35 -40z">
      </path>
      <path id="p3lOG0eJ7" d="M2420 2059 c0 -11 5 -17 10 -14 6 3 10 13 10 21 0 8 -4 14 -10 14 -5 0 -10 -9 -10 -21z">
      </path>
      <path id="psbRy3NdT" d="M4668 2073 c-28 -7 -22 -33 7 -33 15 0 25 6 25 14 0 18 -10 24 -32 19z"></path>
      <path id="p8YjZXrbV"
        d="M5921 1918 c2 -13 0 -29 -4 -35 -6 -9 -1 -13 17 -13 23 0 26 4 26 35 0 29 -4 35 -21 35 -15 0 -20 -5 -18 -22z">
      </path>
      <path id="pVBUbuqsz" d="M5740 1860 c0 -13 7 -20 20 -20 13 0 20 7 20 20 0 13 -7 20 -20 20 -13 0 -20 -7 -20 -20z">
      </path>
      <path id="pAJ5vcO9s"
        d="M2360 1835 c0 -33 2 -35 32 -35 25 0 29 3 20 12 -16 16 -15 28 3 28 8 0 15 7 15 15 0 10 -11 15 -35 15 -33 0 -35 -2 -35 -35z">
      </path>
      <path id="pFPboeQ9u"
        d="M2040 1355 c0 -57 3 -75 14 -75 18 0 28 40 14 57 -7 9 -7 17 1 27 15 18 4 66 -15 66 -11 0 -14 -18 -14 -75z">
      </path>
      <path id="pgjYu3VSX" d="M3658 1146 c-28 -20 -22 -26 27 -26 47 0 58 12 26 30 -25 13 -32 12 -53 -4z"></path>
      <path id="pMz5Wk2dG" d="M4321 1147 c-20 -20 -11 -27 35 -27 37 0 45 3 42 17 -4 20 -60 27 -77 10z"></path>
      <path id="pFlOvAY2p" d="M5033 633 c-7 -2 -13 -11 -13 -20 0 -20 34 -12 38 10 3 17 -3 20 -25 10z"></path>
      <path id="p14LYtRTIH" d="M5143 625 c-3 -9 -3 -18 0 -22 10 -10 37 6 37 22 0 20 -29 20 -37 0z"></path>
    </g>
  </g>
  <g id="l11vQMqefm9FSn9869dtN8P">
    <g>
      <path id="p11baIoIFa"
        d="M3148 6772 c-125 -3 -134 -5 -129 -34 0 -5 -2 -7 -6 -6 -5 1 -41 -32 -81 -74 -66 -69 -73 -79 -70 -112 1 -21 6 -40 10 -42 4 -3 8 -25 8 -49 0 -24 5 -47 10 -50 6 -3 10 -30 10 -60 0 -30 5 -57 10 -60 6 -3 10 -30 10 -60 0 -30 5 -57 10 -60 6 -3 10 -28 10 -55 0 -29 5 -50 12 -52 10 -4 9 -14 -2 -49 -7 -24 -17 -48 -22 -54 -4 -5 -8 -59 -8 -120 0 -71 -4 -115 -12 -123 -8 -8 -8 -15 2 -26 7 -9 10 -26 7 -38 -9 -36 -10 -360 -2 -391 7 -25 2 -34 -36 -73 -24 -24 -47 -44 -51 -44 -13 0 -9 155 4 168 9 9 3 12 -30 12 l-42 0 0 -140 0 -140 38 0 c21 0 43 -5 50 -12 15 -15 17 -584 2 -593 -5 -3 -10 -21 -10 -40 0 -19 -4 -37 -10 -40 -5 -3 -10 -17 -10 -30 0 -13 -4 -27 -10 -30 -5 -3 -10 -21 -10 -40 0 -19 -4 -37 -10 -40 -13 -8 -13 -98 -1 -111 6 -5 11 -33 12 -62 2 -29 6 -55 11 -58 4 -3 8 -29 8 -59 0 -30 5 -57 10 -60 6 -3 10 -26 10 -50 0 -24 5 -47 10 -50 6 -3 10 -30 10 -60 0 -30 4 -56 9 -59 4 -3 11 -38 15 -78 4 -40 9 -94 12 -120 l6 -48 -176 0 c-157 0 -179 2 -211 20 -20 11 -42 20 -50 20 -9 0 -23 4 -33 9 -9 5 -40 19 -68 31 -59 25 -83 19 -108 -28 -8 -15 -52 -64 -98 -109 -73 -73 -88 -83 -123 -85 -58 -3 -95 -24 -95 -53 0 -13 -4 -27 -10 -30 -5 -3 -10 -25 -10 -49 0 -23 -3 -46 -7 -50 -4 -4 -9 -30 -11 -59 -2 -29 -8 -56 -13 -62 -5 -5 -9 -33 -9 -61 0 -29 -5 -56 -10 -59 -6 -3 -10 -30 -10 -60 0 -30 -4 -57 -10 -60 -5 -3 -10 -26 -10 -50 0 -24 -4 -46 -8 -49 -5 -3 -9 -29 -11 -58 -1 -29 -6 -57 -12 -63 -5 -5 -9 -33 -9 -61 0 -29 -4 -56 -10 -59 -5 -3 -10 -26 -10 -50 0 -24 -4 -47 -10 -50 -5 -3 -10 -30 -10 -60 0 -30 -5 -57 -10 -60 -5 -3 -10 -30 -10 -60 0 -30 -5 -57 -10 -60 -6 -3 -10 -23 -10 -44 0 -46 24 -71 68 -71 17 0 34 -4 37 -10 3 -5 17 -10 30 -10 13 0 27 -4 30 -10 3 -5 21 -10 40 -10 19 0 37 -5 40 -10 3 -6 17 -10 30 -10 13 0 27 -4 30 -10 3 -5 17 -10 30 -10 13 0 27 -5 30 -10 3 -6 21 -10 40 -10 19 0 37 -5 40 -10 3 -5 21 -10 40 -10 19 0 37 -4 40 -10 3 -5 17 -10 30 -10 13 0 27 -4 30 -10 3 -5 17 -10 31 -10 13 0 24 -4 24 -10 0 -5 8 -10 19 -10 10 0 24 -7 31 -15 7 -8 37 -27 69 -42 31 -15 58 -31 59 -35 2 -4 12 -8 23 -8 10 0 19 -5 19 -11 0 -12 108 -10 116 3 3 4 25 8 49 8 24 0 47 5 50 10 3 6 26 10 50 10 24 0 47 4 50 10 3 5 30 10 60 10 30 0 57 5 60 10 3 6 27 10 53 10 45 0 51 -4 105 -58 54 -55 107 -138 107 -169 0 -7 5 -13 10 -13 6 0 10 -9 10 -19 0 -10 14 -45 30 -76 17 -31 30 -63 30 -71 0 -8 5 -14 10 -14 6 0 10 -9 10 -19 0 -10 12 -43 28 -72 15 -30 36 -74 46 -99 58 -136 94 -202 135 -244 17 -17 31 -36 31 -40 0 -8 25 -40 103 -130 20 -24 37 -47 37 -51 0 -4 15 -25 33 -46 17 -21 50 -61 72 -89 22 -28 58 -71 79 -96 46 -53 58 -52 128 10 89 77 125 106 135 106 5 0 27 18 48 40 21 22 44 40 51 40 6 0 17 7 24 15 7 8 27 15 45 15 66 0 150 23 178 48 15 14 27 31 27 37 0 7 9 20 20 30 11 10 20 24 20 32 0 7 4 13 8 13 5 0 15 12 23 28 8 15 27 42 44 60 25 29 34 33 60 27 16 -3 129 -8 250 -11 222 -5 267 -1 343 33 18 8 49 17 68 20 19 3 37 10 40 14 3 5 14 9 25 9 10 0 27 4 37 9 9 5 38 15 64 21 37 10 58 24 100 70 95 104 159 177 175 201 9 13 49 58 88 99 110 115 107 108 112 280 5 155 1 210 -20 232 -7 7 -25 38 -41 68 -16 30 -34 62 -40 70 -7 8 -25 40 -40 70 -16 30 -34 62 -40 70 -7 8 -25 40 -40 70 -16 30 -35 62 -42 71 -8 8 -14 19 -14 22 0 4 -12 26 -27 50 -15 23 -40 67 -56 97 -16 30 -34 62 -41 70 -7 8 -25 41 -40 72 -15 32 -32 60 -37 63 -5 4 -18 25 -28 48 -11 23 -30 58 -43 77 -13 19 -32 51 -41 70 -10 19 -27 49 -37 65 -11 17 -29 48 -40 70 -11 22 -29 54 -40 70 -11 17 -28 49 -40 72 -11 23 -24 45 -30 48 -6 3 -19 25 -30 48 -12 23 -29 56 -40 72 -45 70 -72 135 -65 152 5 10 7 23 6 29 -1 7 4 25 10 40 20 49 19 93 -3 132 -11 20 -25 40 -31 44 -6 4 -2 19 11 43 23 38 29 99 12 110 -5 3 -10 17 -10 30 0 13 -4 26 -9 29 -4 3 -14 26 -21 51 -7 25 -17 48 -21 51 -5 3 -9 16 -9 29 0 13 -4 26 -9 29 -4 3 -14 26 -21 51 -7 25 -17 48 -21 51 -5 3 -9 16 -9 29 0 13 -4 26 -9 29 -4 3 -14 26 -21 51 -7 25 -17 48 -21 51 -5 3 -9 12 -9 20 0 8 -9 34 -20 56 -11 23 -20 50 -20 59 0 10 -4 20 -9 23 -5 3 -11 16 -14 28 -2 13 -8 31 -12 41 -18 42 104 -3 250 -94 22 -13 54 -31 70 -39 17 -8 32 -18 35 -21 3 -4 34 -22 70 -41 36 -19 83 -45 105 -59 22 -13 54 -31 70 -39 17 -8 37 -20 45 -26 8 -7 40 -25 70 -41 30 -16 73 -40 95 -54 22 -13 54 -31 70 -39 17 -8 37 -19 45 -26 8 -6 40 -24 70 -40 30 -15 62 -33 70 -40 44 -34 115 -64 153 -65 23 0 71 -6 107 -12 65 -12 85 -23 169 -94 21 -18 43 -33 48 -33 5 0 22 -13 38 -30 16 -16 33 -30 37 -30 5 0 23 -13 41 -29 30 -28 54 -46 137 -105 94 -67 93 -66 98 -164 4 -76 8 -94 28 -117 13 -16 24 -31 24 -34 0 -3 18 -26 40 -49 22 -24 40 -47 40 -51 0 -4 15 -23 33 -42 17 -19 43 -51 57 -70 13 -19 28 -38 32 -44 37 -47 76 -98 91 -120 22 -31 56 -46 117 -51 25 -2 68 -8 95 -13 28 -6 122 -22 210 -36 l159 -25 86 26 c47 14 93 30 102 35 10 5 25 9 33 9 8 0 23 4 33 9 15 7 120 40 178 56 12 3 29 14 38 24 15 17 16 28 5 107 -11 83 -41 164 -61 164 -5 0 -7 4 -4 9 7 10 -70 164 -85 169 -5 2 -9 12 -9 23 0 10 -4 19 -10 19 -5 0 -10 9 -10 19 0 11 -3 21 -8 23 -4 2 -27 42 -51 91 -24 48 -48 87 -52 87 -5 0 -9 6 -9 13 0 14 -71 87 -85 87 -6 1 -28 19 -50 40 -22 22 -43 40 -47 40 -5 0 -27 18 -50 40 -24 22 -46 40 -51 40 -4 0 -31 22 -60 50 -28 27 -56 50 -62 50 -5 1 -28 19 -50 40 -22 22 -44 40 -50 40 -5 1 -28 19 -50 40 -22 22 -44 40 -50 40 -5 1 -28 19 -50 40 -22 22 -44 40 -50 40 -5 1 -32 23 -60 50 -27 28 -54 50 -58 50 -25 0 -77 76 -77 111 0 10 -4 21 -10 24 -5 3 -10 15 -10 26 0 10 -4 19 -10 19 -5 0 -10 11 -10 24 0 14 -4 28 -10 31 -5 3 -10 15 -10 26 0 10 -4 19 -10 19 -5 0 -10 11 -10 24 0 14 -4 28 -10 31 -5 3 -10 15 -10 26 0 10 -4 19 -10 19 -5 0 -10 8 -10 18 0 38 -32 80 -144 191 l-115 113 -43 -6 c-45 -6 -175 -21 -296 -34 l-72 -7 -339 -339 c-327 -327 -339 -338 -362 -324 -12 7 -32 21 -43 31 -11 9 -26 17 -33 17 -7 0 -13 3 -13 7 0 5 127 135 281 289 174 174 279 286 274 293 -4 8 -11 9 -18 2 -7 -5 -48 -12 -92 -15 -44 -3 -114 -8 -155 -11 l-75 -6 -216 -216 -216 -215 -39 24 c-21 13 -52 30 -67 38 l-28 14 153 153 c84 84 158 153 165 153 7 0 13 4 13 8 0 17 -13 21 -33 10 -12 -6 -54 -10 -94 -9 -67 2 -73 1 -73 -18 0 -11 -4 -23 -10 -26 -5 -3 -10 -17 -10 -30 0 -13 -5 -27 -10 -30 -6 -4 -8 -10 -6 -14 7 -10 -82 -93 -118 -112 -22 -10 -61 -13 -148 -12 l-118 3 -30 32 c-16 18 -30 41 -30 50 0 10 -10 34 -22 55 -28 51 -31 171 -4 223 17 33 16 33 -36 -17 -29 -29 -58 -53 -64 -53 -5 0 -15 12 -22 28 -6 15 -22 42 -33 60 l-22 34 386 386 387 387 97 -2 c54 -1 100 -3 103 -3 10 0 -505 -510 -516 -510 -14 0 -174 -166 -174 -181 0 -8 5 -7 17 2 9 8 24 13 34 11 9 -2 20 2 24 8 8 13 102 13 110 -1 4 -6 13 -8 21 -5 8 3 31 -4 51 -15 l36 -21 191 191 c105 105 196 191 202 191 13 0 64 53 64 66 0 6 15 24 33 42 24 23 38 30 55 26 12 -4 22 -10 22 -15 0 -5 8 -9 18 -9 18 -1 62 -33 62 -46 0 -5 -111 -120 -247 -256 -136 -136 -244 -251 -240 -255 4 -3 13 -1 19 5 7 7 21 12 31 12 11 0 74 13 141 29 66 16 137 33 156 36 28 5 65 36 177 148 131 130 144 140 160 126 10 -8 40 -26 66 -39 l48 -24 -63 -63 c-34 -34 -59 -65 -56 -69 4 -3 22 2 41 11 19 9 41 15 49 14 7 -1 27 1 43 5 164 37 255 61 255 67 0 9 -58 39 -75 39 -7 0 -47 18 -90 40 -43 22 -86 40 -96 40 -11 0 -19 5 -19 10 0 6 -9 10 -19 10 -11 0 -22 4 -26 9 -3 5 -19 12 -35 16 -16 4 -40 19 -54 35 -13 16 -27 26 -31 22 -4 -4 -5 -2 -3 4 1 5 -5 26 -16 45 -17 33 -37 49 -78 65 -10 3 -18 10 -18 15 0 5 -8 9 -18 9 -22 0 -62 40 -62 62 0 24 -79 172 -98 183 -22 13 -51 15 -58 4 -3 -5 -48 -9 -99 -9 -76 0 -101 4 -130 20 -20 11 -44 20 -55 20 -10 0 -22 5 -25 10 -3 6 -17 10 -30 10 -13 0 -27 5 -30 10 -3 6 -15 10 -25 10 -11 0 -35 9 -55 20 -20 11 -42 20 -50 20 -27 0 -85 39 -85 57 0 19 -102 114 -140 130 -22 10 -40 21 -40 25 0 5 -9 8 -19 8 -11 0 -21 4 -23 10 -1 5 -66 41 -142 80 l-140 70 -28 -27 c-15 -15 -28 -31 -28 -35 0 -5 -13 -23 -30 -41 -16 -18 -30 -37 -30 -43 0 -13 -104 -114 -118 -114 -5 0 -17 -9 -27 -20 -10 -11 -23 -20 -29 -20 -6 0 -25 -14 -43 -30 -18 -17 -36 -30 -40 -30 -4 0 -22 -14 -40 -30 -18 -17 -35 -30 -39 -30 -4 0 -18 -10 -31 -22 -13 -12 -24 -20 -26 -17 -2 2 -34 65 -70 140 -63 128 -72 140 -160 225 -50 49 -118 112 -151 139 l-58 50 1 81 c1 94 -7 106 -92 136 -63 23 -68 24 -229 20z m238 -178 c0 -22 4 -46 8 -52 19 -30 -7 -34 -223 -30 l-216 4 2 29 c1 16 16 42 35 62 l32 33 181 -2 180 -3 1 -41z m-284 -149 c15 -3 30 -1 33 5 9 15 290 13 317 -2 30 -18 103 -90 111 -111 6 -16 -7 -17 -157 -17 -89 0 -166 3 -169 6 -11 11 -77 14 -77 4 0 -15 -154 -12 -168 2 -7 7 -12 26 -12 43 0 17 -5 36 -12 43 -8 8 -8 15 2 28 14 16 41 16 132 -1z m578 -210 c25 -24 60 -77 60 -92 0 -1 -162 -3 -360 -3 l-360 0 0 24 c0 14 -4 28 -10 31 -5 3 -10 21 -10 38 l0 32 325 0 324 -1 31 -29z m998 -21 c29 -14 52 -29 52 -32 0 -14 -529 -536 -536 -529 -4 4 -12 17 -18 29 -6 13 -21 27 -34 33 -12 5 -22 17 -22 25 0 17 479 500 495 500 6 0 34 -12 63 -26z m-876 -192 l27 -57 -401 -3 c-221 -1 -403 0 -406 3 -3 2 1 11 8 20 8 9 11 30 7 55 l-5 40 371 0 372 0 27 -58z m1163 -32 c11 -5 29 -10 40 -12 49 -8 22 -41 -261 -324 l-287 -287 -50 52 -51 53 270 269 c287 286 274 277 339 249z m-1317 -102 c9 -9 15 -9 24 0 7 7 44 12 95 12 82 0 84 -1 118 -35 19 -19 35 -38 35 -42 0 -3 9 -16 20 -28 l20 -22 -482 1 -483 1 1 35 c1 19 2 47 3 63 l1 27 318 0 c234 0 321 -3 330 -12z m137 -178 c6 -9 22 -8 132 6 28 4 63 4 78 0 27 -7 85 -56 85 -73 0 -5 9 -18 20 -28 11 -10 20 -22 20 -27 0 -10 -37 -11 -43 0 -6 9 -60 8 -76 -2 -7 -5 -17 -4 -23 2 -6 6 -22 7 -43 1 -18 -5 -237 -8 -486 -7 l-454 3 -3 54 c-2 29 -1 60 2 67 4 12 74 14 395 14 239 0 392 -4 396 -10z m457 -238 c27 -29 46 -56 43 -62 -8 -13 -122 -13 -130 -1 -3 6 -18 6 -38 0 -47 -13 -230 -12 -245 3 -8 8 -15 8 -25 -1 -11 -8 -125 -11 -433 -9 l-419 3 -3 49 c-2 27 -1 55 2 63 5 12 93 13 602 10 l596 -3 50 -52z m118 -141 c0 -5 -7 -14 -15 -21 -20 -16 -46 -70 -39 -81 3 -5 -262 -9 -617 -9 l-622 0 5 50 5 50 -38 0 c-21 0 -41 5 -44 10 -4 7 225 10 679 10 387 0 686 -4 686 -9z m-712 -183 c9 -9 15 -9 24 0 18 18 688 17 688 -1 0 -7 8 -22 18 -33 46 -53 59 -120 17 -86 -6 4 -91 5 -190 2 -99 -3 -183 -4 -187 -2 -5 2 -218 3 -476 3 l-467 0 -3 54 c-2 30 0 60 3 65 9 15 558 13 573 -2z m-634 -50 c-5 -7 -7 -21 -5 -32 3 -22 -15 -36 -46 -36 -17 0 -23 6 -23 21 0 26 59 84 73 70 5 -5 6 -15 1 -23z m3571 -130 c35 -33 47 -68 22 -68 -6 0 -179 -166 -382 -370 -203 -203 -375 -370 -382 -370 -15 0 -96 42 -105 55 -12 16 762 785 789 785 12 0 38 -15 58 -32z m-3081 3 c6 -10 52 -8 76 3 8 3 211 5 450 4 l434 -3 12 -23 c6 -12 23 -36 38 -52 40 -46 35 -60 -23 -60 -28 0 -52 4 -55 8 -3 5 -20 7 -38 4 -18 -3 -226 -7 -462 -9 -319 -2 -432 0 -443 8 -10 9 -17 9 -25 1 -9 -9 -88 -12 -270 -12 l-258 0 0 70 0 70 279 0 c154 0 282 -4 285 -9z m1082 -188 c8 -3 14 -13 14 -23 0 -10 3 -20 8 -22 7 -3 42 -62 42 -72 0 -3 -87 -6 -194 -6 -146 0 -196 3 -200 13 -5 10 -7 10 -12 0 -4 -10 -107 -13 -465 -13 -450 0 -459 0 -459 20 0 18 8 20 96 22 95 3 97 3 99 28 3 25 1 26 -53 27 -32 1 -67 -3 -80 -10 -18 -8 -28 -8 -43 2 -16 9 -24 9 -35 0 -11 -9 -17 -9 -29 1 -13 11 -15 6 -15 -39 l0 -51 -44 0 c-39 0 -44 2 -39 20 3 11 9 23 14 26 13 7 11 41 -2 50 -6 3 -16 1 -22 -5 -6 -6 -19 -11 -29 -11 -13 0 -18 -8 -18 -30 l0 -30 -80 0 -80 0 0 30 c0 17 -4 30 -10 30 -5 0 -10 11 -10 25 l0 25 816 -1 c449 0 823 -3 830 -6z m2214 -85 c0 -9 4 -18 9 -20 4 -1 11 -20 15 -41 l7 -38 -288 -287 c-158 -158 -300 -294 -315 -301 -15 -8 -34 -10 -45 -6 -10 4 -40 9 -68 12 -27 2 -52 7 -54 9 -3 3 156 166 354 364 318 318 360 357 372 342 7 -9 13 -24 13 -34z m-3540 -159 l0 -59 -90 0 c-83 0 -90 1 -90 20 0 11 5 20 10 20 6 0 10 8 10 17 0 9 11 28 24 42 22 23 32 26 80 23 l56 -4 0 -59z m-200 53 c0 -10 -21 -32 -31 -32 -4 0 -9 9 -12 20 -4 16 0 20 19 20 13 0 24 -4 24 -8z m1728 -4 c7 -7 12 -20 12 -30 0 -10 4 -18 9 -18 5 0 11 -13 13 -30 l5 -30 -750 0 -749 0 6 24 c3 14 2 28 -4 31 -5 3 -10 19 -10 36 l0 29 728 0 c553 0 731 -3 740 -12z m-1808 -53 c0 -8 5 -15 10 -15 10 0 14 -33 5 -42 -3 -3 -17 -3 -30 0 -23 4 -25 9 -25 60 l0 56 20 -22 c11 -12 20 -28 20 -37z m1148 -127 c9 -9 12 -9 12 0 0 9 87 12 360 12 353 0 360 0 360 -20 0 -11 5 -20 10 -20 6 0 10 -11 10 -24 0 -14 5 -28 10 -31 6 -3 10 -13 10 -20 0 -13 -142 -15 -1000 -14 l-1000 1 0 23 c0 13 5 27 10 30 6 3 10 16 10 29 0 12 5 27 12 34 17 17 1179 17 1196 0z m2856 -88 c12 0 36 -27 36 -41 0 -13 -436 -455 -458 -464 -16 -6 -66 20 -100 53 l-24 23 241 241 241 241 28 -26 c16 -15 32 -27 36 -27z m-3756 -92 c9 -9 15 -9 24 0 17 17 759 17 776 0 9 -9 15 -9 24 0 17 17 859 17 876 0 7 -7 12 -21 12 -33 0 -12 4 -25 9 -30 5 -6 11 -21 13 -35 l3 -25 -469 -3 c-346 -2 -472 1 -483 9 -10 9 -17 9 -25 1 -15 -15 -744 -17 -753 -3 -3 6 -18 6 -38 0 -49 -14 -310 -12 -325 3 -16 16 -15 67 1 101 l12 27 165 0 c116 0 170 -4 178 -12z m4046 -149 l40 -37 -230 -231 c-127 -127 -236 -231 -242 -231 -7 0 -26 14 -44 30 -17 17 -37 30 -44 30 -39 0 6 55 215 263 182 180 233 226 248 220 10 -4 36 -24 57 -44z m-2694 -29 l409 0 15 -32 c9 -17 16 -37 16 -45 0 -7 5 -13 10 -13 6 0 10 -9 10 -20 0 -20 -7 -20 -1070 -20 l-1070 0 0 30 c0 17 -5 39 -12 49 -6 10 -8 26 -5 34 6 15 65 17 628 16 341 0 624 2 627 6 3 3 12 3 20 0 7 -3 197 -5 422 -5z m2978 -195 l47 -45 -303 -302 -302 -303 -30 32 c-17 18 -30 35 -30 39 0 4 -7 16 -16 26 -16 17 -2 33 272 308 159 159 295 290 302 290 6 0 33 -20 60 -45z m-2490 -7 c19 -19 14 -55 -10 -83 l-22 -25 -1052 0 c-898 0 -1053 2 -1048 14 3 8 1 17 -5 21 -6 3 -11 24 -11 46 l0 39 1068 0 c817 0 1071 -3 1080 -12z m-5 -181 c22 -24 37 -57 37 -81 0 -20 -6 -26 -32 -31 -18 -3 -499 -4 -1068 -3 l-1035 3 -6 45 c-3 25 -9 53 -14 63 -7 16 47 17 1050 17 849 0 1059 -3 1068 -13z m2760 -47 c10 -19 23 -36 28 -38 28 -11 -19 -65 -293 -339 -332 -332 -331 -332 -382 -271 -14 17 -26 40 -26 50 0 26 610 637 634 635 11 -1 28 -18 39 -37z m-2753 -135 c10 -12 10 -19 2 -27 -15 -15 -16 -58 -2 -58 6 0 10 -9 10 -20 0 -20 -7 -20 -568 -20 -428 0 -571 3 -580 12 -9 9 -15 9 -24 0 -17 -17 -739 -17 -756 0 -9 9 -15 9 -24 0 -16 -16 -123 -16 -136 1 -6 6 -12 35 -13 62 l-3 50 484 5 c267 3 735 6 1041 8 491 2 558 0 569 -13z m-2682 -98 c36 -17 25 -27 -32 -27 -59 0 -75 10 -51 33 15 16 43 14 83 -6z m5626 -109 c14 -29 26 -57 26 -62 0 -6 -75 -86 -167 -178 l-166 -167 -71 6 c-39 3 -75 10 -81 14 -6 6 72 91 205 224 118 118 218 215 222 215 3 0 18 -23 32 -52z m-5096 26 c15 -4 22 -14 22 -30 0 -12 4 -25 9 -28 5 -3 11 -19 13 -36 l5 -30 -413 0 c-264 0 -415 4 -419 10 -3 5 17 35 46 65 l52 55 331 0 c182 0 341 -3 354 -6z m2215 -24 c15 -16 27 -37 27 -45 0 -8 5 -15 10 -15 6 0 10 -9 10 -20 0 -20 -7 -20 -1060 -20 -1048 0 -1060 0 -1060 20 0 11 -9 35 -20 55 -11 20 -20 40 -20 45 0 5 434 9 1043 9 l1043 1 27 -30z m-2129 -169 c9 -7 16 -22 16 -32 0 -11 4 -19 9 -19 5 0 11 -13 13 -30 l5 -30 -534 0 -533 0 0 29 c0 17 4 32 10 36 5 3 7 11 5 18 -15 41 3 42 606 42 307 -1 390 -4 403 -14z m2212 13 c18 -5 24 -13 24 -35 0 -26 -3 -29 -33 -29 -18 0 -38 -5 -45 -12 -14 -14 -171 -13 -186 2 -5 5 -36 10 -68 10 -47 0 -60 -4 -65 -17 -18 -51 30 -48 -865 -45 l-833 3 -24 49 c-13 28 -21 56 -18 63 3 9 224 13 1047 14 573 2 1052 0 1066 -3z m-433 -206 c-3 -18 -10 -34 -15 -36 -4 -2 -8 -12 -8 -21 0 -10 -8 -25 -18 -34 -16 -15 -86 -17 -740 -17 -396 0 -734 3 -749 6 -21 4 -34 17 -50 53 -13 25 -23 52 -23 59 0 9 181 12 803 15 441 1 803 3 804 5 1 1 0 -13 -4 -30z m-1685 -26 c32 -69 30 -84 -12 -81 -43 4 -51 -3 -34 -30 10 -17 23 -21 60 -21 41 0 48 -3 48 -20 0 -11 5 -20 10 -20 6 0 10 -9 10 -20 0 -11 5 -20 10 -20 6 0 10 -13 10 -30 l0 -30 -62 0 c-43 0 -67 -5 -80 -17 -32 -28 -20 -34 57 -27 95 9 105 2 105 -77 l0 -59 -93 0 c-91 0 -94 -1 -122 -30 l-29 -30 122 0 122 0 0 -60 0 -60 -317 -2 -316 -3 -4 -27 -4 -28 321 0 321 0 -3 -62 -3 -63 -333 -2 c-338 -2 -362 -4 -362 -39 0 -12 59 -14 345 -14 l345 0 -6 -27 c-4 -16 -10 -30 -14 -33 -4 -3 -17 -21 -27 -40 l-20 -35 -468 -3 c-306 -1 -472 1 -479 8 -5 5 -29 10 -53 10 -24 0 -43 5 -43 10 0 6 -13 10 -29 10 -17 0 -33 5 -36 10 -3 6 -22 10 -41 10 -19 0 -34 5 -34 10 0 6 -13 10 -29 10 -17 0 -33 5 -36 10 -3 6 -21 10 -39 10 -30 0 -56 15 -56 32 0 4 122 8 270 8 258 0 270 1 270 19 0 10 -8 22 -17 26 -10 3 -128 7 -263 8 l-245 2 3 39 c2 22 8 50 13 63 l9 23 220 0 220 0 0 32 c0 25 -3 29 -12 20 -15 -15 -84 -16 -93 -2 -4 6 -72 10 -171 10 -150 0 -185 6 -154 25 6 3 10 26 10 51 l0 44 100 0 100 0 0 30 0 30 -90 0 -90 0 0 29 c0 17 5 33 11 36 6 4 8 14 4 22 -15 40 80 74 113 41 9 -9 12 -8 12 6 0 27 -24 44 -66 48 l-39 3 4 55 c4 65 14 80 52 80 16 0 29 4 29 9 0 5 9 11 20 14 11 3 20 10 20 16 0 19 -31 25 -53 12 -16 -11 -22 -10 -35 3 -13 12 -13 19 -4 28 7 7 12 26 12 43 0 17 5 36 12 43 9 9 146 12 558 12 l545 0 23 -48z m2252 18 c7 -16 15 -30 19 -30 8 0 35 -60 29 -65 -2 -2 -128 -5 -281 -7 -255 -3 -277 -2 -277 14 0 9 5 20 10 23 6 3 10 17 10 31 0 13 5 24 10 24 6 0 10 9 10 20 0 19 7 20 229 20 l229 0 12 -30z m-1302 -162 c9 -9 15 -9 24 0 14 14 628 18 628 4 0 -10 -100 -103 -128 -119 -28 -16 -443 -18 -458 -3 -8 8 -19 8 -38 0 -17 -6 -163 -10 -389 -10 -357 0 -361 0 -384 22 -13 12 -23 32 -23 44 0 13 -4 26 -10 29 -5 3 -10 15 -10 26 0 18 11 19 388 19 288 0 391 -3 400 -12z m1423 -43 c50 -92 81 -85 -360 -85 -245 0 -392 4 -396 10 -3 5 20 37 52 70 l58 59 310 -2 309 -2 27 -50z m-2083 -137 c9 -9 12 -9 12 0 0 8 24 12 78 12 47 0 83 -5 90 -12 9 -9 12 -9 12 0 0 7 8 12 18 12 10 0 23 -5 30 -12 9 -9 15 -9 24 0 7 7 24 12 38 12 14 0 31 -5 38 -12 9 -9 12 -9 12 0 0 16 72 16 88 0 9 -9 15 -9 24 0 14 14 84 16 93 3 3 -6 18 -6 35 -1 17 5 62 5 101 1 38 -4 72 -4 75 1 3 4 77 8 165 8 138 0 159 -2 159 -16 0 -16 -23 -44 -37 -44 -4 0 -26 -18 -48 -40 l-40 -39 -516 -1 -516 0 -7 38 c-9 54 -7 94 3 87 5 -3 12 -1 16 5 8 14 38 13 53 -2z m2147 0 c14 -6 25 -16 25 -23 0 -6 8 -20 18 -31 18 -21 42 -60 42 -69 0 -3 -255 -5 -567 -5 l-568 0 61 58 c33 31 69 62 80 69 27 17 872 18 909 1z m-1298 -224 c-24 -22 -37 -43 -37 -59 l0 -25 -450 0 -450 0 0 60 0 60 483 2 c265 2 484 2 487 0 3 -2 -12 -19 -33 -38z m1426 23 c11 -11 57 -95 57 -103 0 -2 -320 -4 -711 -4 -565 0 -709 3 -705 13 3 6 9 20 12 30 4 9 12 17 18 17 7 0 23 12 37 26 13 14 32 29 41 33 9 3 292 5 628 3 468 -2 615 -5 623 -15z m-1406 -189 c13 -12 23 -27 23 -33 0 -6 11 -22 25 -35 14 -13 25 -27 25 -32 0 -4 -228 -7 -507 -5 l-508 2 -6 50 c-3 28 -2 56 4 63 7 9 112 12 465 12 454 0 456 0 479 -22z m1526 -18 c10 -19 23 -36 28 -38 16 -6 10 -35 -12 -58 -26 -28 -17 -44 25 -44 21 0 40 -8 53 -22 28 -32 57 -98 46 -109 -4 -4 -46 -9 -93 -11 -71 -3 -85 -6 -88 -20 -3 -16 7 -18 104 -18 132 0 140 -5 136 -84 l-4 -56 -319 0 c-178 0 -319 -4 -319 -9 0 -5 -9 -11 -21 -14 -12 -3 -19 -11 -17 -17 2 -8 96 -11 324 -10 177 0 328 -2 338 -6 12 -5 16 -20 16 -65 l0 -59 -367 -2 -368 -3 -3 -27 -3 -28 347 0 348 0 -47 -48 c-26 -26 -47 -53 -47 -59 0 -6 -11 -14 -24 -17 -34 -9 -1009 -7 -1022 2 -6 4 -11 33 -12 65 l-1 57 130 0 130 0 -3 28 -3 27 -135 3 -135 3 -27 57 -27 57 75 3 c77 3 86 10 60 45 -11 14 -29 17 -100 17 -79 0 -86 2 -86 20 0 11 -3 20 -7 20 -5 0 -17 18 -27 40 -27 56 -15 67 61 53 51 -10 60 -9 77 7 25 24 13 40 -32 40 -20 0 -52 4 -69 9 -20 6 -35 6 -38 0 -12 -18 -43 -8 -71 24 -28 31 -64 89 -64 101 0 3 47 6 105 6 l105 0 0 25 c0 25 -1 25 -97 27 -54 0 -109 0 -124 -1 -18 -1 -35 9 -60 37 -32 36 -59 75 -59 87 0 3 316 4 702 3 l701 -3 20 -35z m-1403 -152 c0 -7 13 -27 28 -43 36 -38 49 -78 22 -70 -10 3 -21 1 -25 -5 -8 -13 -741 -14 -750 -1 -3 6 -18 6 -38 0 -43 -12 -354 -12 -362 1 -3 5 6 27 20 49 14 23 25 44 25 49 0 30 27 32 552 32 416 0 528 -3 528 -12z m-1277 -188 c-7 -27 -24 -39 -62 -42 -18 -1 -35 -6 -37 -10 -3 -4 -25 -8 -49 -8 -24 0 -47 -4 -50 -10 -3 -5 -25 -10 -49 -10 -23 0 -46 -4 -52 -9 -5 -6 -33 -11 -62 -12 -29 -2 -55 -6 -58 -11 -10 -16 -72 -8 -116 15 -23 12 -44 25 -46 30 -2 4 -12 7 -23 7 -10 0 -19 5 -19 10 0 6 -7 10 -16 10 -8 0 -29 13 -47 30 l-32 30 362 0 c354 0 361 0 356 -20z m541 12 c6 -9 84 -8 93 2 11 11 583 7 583 -4 0 -12 89 -10 96 2 3 4 18 8 33 8 30 0 91 -57 91 -85 0 -8 5 -15 10 -15 6 0 10 -9 10 -20 0 -20 -7 -20 -667 -20 l-667 0 -28 27 c-27 26 -27 26 -10 57 9 17 21 37 26 44 10 14 421 18 430 4z m974 -217 c12 -14 22 -32 22 -40 0 -8 5 -15 10 -15 6 0 10 -9 10 -20 0 -20 -7 -20 -658 -20 l-657 0 -20 43 c-11 23 -23 50 -27 60 -7 16 28 17 646 17 l652 0 22 -25z m70 -182 c6 -15 12 -41 12 -59 0 -25 -5 -33 -22 -37 -32 -8 -1233 -6 -1244 1 -13 10 -54 91 -54 108 0 12 98 14 648 14 l647 0 13 -27z m-880 -165 c9 -9 12 -9 12 0 0 15 342 17 370 2 13 -7 21 -7 25 0 4 6 90 10 226 10 l219 0 0 -39 c0 -22 -4 -43 -10 -46 -5 -3 -10 -17 -10 -31 l0 -24 -119 0 c-66 0 -122 3 -124 8 -6 8 -55 7 -78 -2 -8 -4 -193 -5 -409 -4 l-394 3 -27 50 c-48 88 -53 85 139 85 117 0 172 -4 180 -12z m1952 4 c0 -5 -9 -17 -20 -27 -11 -10 -20 -22 -20 -27 0 -4 -15 -24 -33 -43 l-33 -35 -460 2 -459 3 3 35 c2 19 8 39 13 45 5 5 9 19 9 32 l0 23 500 0 c275 0 500 -4 500 -8z m-2176 -179 c11 -11 65 -12 72 -2 6 10 757 12 767 2 4 -3 25 -6 47 -6 22 0 43 3 47 6 3 4 28 7 55 7 l48 0 0 -47 c0 -27 3 -58 6 -71 l6 -22 -518 2 -518 3 -28 54 c-22 41 -26 57 -17 67 13 16 22 17 33 7z m2001 -13 c0 -8 -11 -16 -25 -18 -14 -2 -29 -8 -34 -13 -6 -5 -20 -9 -32 -9 -13 0 -26 -4 -29 -10 -3 -5 -17 -10 -30 -10 -13 0 -27 -4 -30 -10 -3 -5 -21 -10 -40 -10 -19 0 -37 -4 -40 -10 -3 -5 -17 -10 -30 -10 -13 0 -27 -4 -30 -10 -7 -11 -457 -14 -469 -3 -3 4 -21 7 -39 7 -25 1 -33 6 -35 24 -2 12 -8 22 -13 22 -13 0 -11 54 3 68 9 9 116 12 443 10 374 -3 430 -5 430 -18z m-965 -186 c0 -8 -4 -14 -8 -14 -5 0 -15 -12 -23 -27 -8 -16 -23 -38 -34 -50 l-20 -23 -395 0 -395 -1 -41 43 c-23 24 -44 53 -48 65 l-7 22 485 0 c416 0 486 -2 486 -15z m-195 -184 c-3 -5 -28 -10 -56 -10 -27 0 -49 -4 -49 -10 0 -5 -6 -10 -14 -10 -7 0 -26 -12 -43 -27 -62 -59 -79 -63 -233 -61 l-141 2 -42 46 c-81 85 -99 80 264 80 211 0 318 -3 314 -10z m-325 -178 c0 -9 -47 -52 -57 -52 -3 0 -15 -8 -25 -17 -18 -16 -21 -16 -49 14 -49 53 -41 63 51 63 44 0 80 -4 80 -8z">
      </path>
      <path id="p84V2KlG2"
        d="M2077 2711 c-2 -10 -2 -31 0 -45 4 -21 11 -26 34 -26 l29 0 0 -110 c0 -98 2 -110 18 -110 17 0 52 -57 52 -86 0 -26 25 -9 28 19 2 15 8 27 13 27 5 0 9 9 9 19 0 14 8 21 28 23 26 3 27 5 30 71 2 37 6 67 10 67 26 0 32 -31 32 -172 0 -82 4 -148 9 -148 5 0 12 -18 16 -39 4 -22 13 -45 21 -52 8 -7 14 -30 14 -55 0 -24 5 -44 10 -44 6 0 10 15 10 33 0 17 9 47 20 65 11 18 20 41 20 52 0 10 5 22 10 25 6 3 10 30 10 59 0 54 12 76 42 76 15 0 18 12 20 83 l3 82 35 0 c27 0 36 -5 39 -20 2 -11 12 -26 22 -33 11 -7 19 -19 19 -27 0 -7 13 -20 28 -28 27 -13 30 -12 57 19 28 32 55 36 55 8 0 -17 44 -36 64 -28 9 3 21 19 28 35 7 16 21 29 30 29 14 0 17 8 16 43 -2 93 1 115 21 120 14 3 18 14 18 46 l0 41 -457 0 c-441 0 -458 -1 -463 -19z">
      </path>
      <path id="pH5Trma3x"
        d="M5228 2112 l-448 -2 0 -45 c0 -43 1 -45 29 -45 17 0 33 -5 37 -12 4 -6 8 -52 8 -102 1 -84 3 -92 24 -101 13 -6 22 -19 22 -32 0 -12 5 -25 10 -28 6 -3 10 -16 10 -28 l1 -22 19 24 c11 13 20 31 20 41 0 21 35 54 49 45 7 -4 11 17 11 64 0 64 2 71 20 71 19 0 20 -7 20 -160 0 -88 3 -160 8 -160 8 0 32 -49 32 -67 0 -7 5 -13 10 -13 6 0 10 -22 10 -50 0 -43 3 -50 20 -50 16 0 20 7 20 31 0 34 27 127 44 148 6 7 9 28 7 47 -4 51 7 74 35 74 23 0 24 2 24 80 0 63 3 82 15 86 23 9 65 -4 60 -19 -3 -6 16 -33 41 -59 39 -40 49 -46 65 -37 11 6 24 21 29 35 12 31 21 30 54 -7 21 -23 32 -28 49 -23 12 4 24 11 26 17 2 6 15 21 27 34 21 21 24 34 24 97 0 66 2 74 21 79 17 5 20 12 17 48 -2 23 -7 43 -13 43 -5 1 -211 0 -457 -2z">
      </path>
      <path id="p191sWT1W1"
        d="M5065 6570 c-3 -5 -17 -10 -30 -10 -13 0 -27 -4 -30 -10 -3 -5 -16 -10 -28 -10 -16 0 -18 -3 -9 -12 7 -7 12 -19 12 -28 0 -8 9 -21 20 -28 18 -11 20 -10 20 8 0 15 7 20 24 20 14 0 28 5 31 10 9 14 86 12 118 -2 20 -10 27 -20 27 -40 0 -26 -3 -28 -44 -28 -25 0 -48 -4 -51 -10 -3 -5 -25 -10 -49 -10 -59 0 -96 -38 -96 -100 0 -34 6 -50 27 -72 25 -26 32 -28 104 -28 43 0 81 5 84 10 3 6 21 10 39 10 20 0 40 8 51 20 10 11 13 20 7 20 -7 0 -12 7 -12 15 0 19 -30 32 -39 17 -4 -6 -17 -13 -29 -15 -12 -2 -25 -6 -28 -10 -14 -13 -115 -7 -130 7 -35 36 6 66 91 66 78 0 152 46 153 95 0 31 -27 85 -43 85 -8 0 -15 5 -15 10 0 6 -9 10 -19 10 -11 0 -23 5 -26 10 -3 6 -33 10 -65 10 -32 0 -62 -4 -65 -10z">
      </path>
      <path id="p14cbbICOB"
        d="M5360 6450 c0 -85 -4 -130 -12 -138 -19 -19 3 -32 42 -26 l35 6 -3 54 -4 55 84 -3 83 -3 3 -52 c3 -52 3 -53 35 -53 l32 0 2 144 2 143 -40 0 -40 0 7 -43 c3 -24 3 -55 0 -69 -6 -24 -10 -25 -74 -25 -40 0 -73 5 -80 12 -15 15 -16 84 -1 93 20 13 2 29 -34 31 l-37 1 0 -127z">
      </path>
      <path id="p1GjPuTZE7"
        d="M6024 6572 l-130 -3 -1 -139 -1 -140 124 0 c68 0 127 0 132 0 4 0 7 10 7 23 0 21 -3 22 -94 22 l-94 0 -8 28 c-6 23 -4 28 17 33 14 4 45 4 70 1 43 -4 44 -4 44 25 l0 29 -62 -3 -63 -3 -3 37 -3 37 102 3 c96 3 102 4 105 25 2 12 0 23 -4 25 -4 2 -66 2 -138 0z">
      </path>
      <path id="pDld2iEOp"
        d="M6230 6575 c-2 0 -3 -217 -2 -247 2 -35 4 -38 31 -38 35 0 43 23 41 119 -3 123 -12 111 90 111 l90 0 0 28 0 29 -125 -1 c-69 -1 -125 -1 -125 -1z">
      </path>
      <path id="p2diqXkW9"
        d="M6522 6432 l3 -145 85 -2 c115 -3 145 2 176 34 40 40 66 122 43 137 -5 3 -9 16 -9 28 0 29 -46 76 -75 76 -12 0 -25 3 -28 7 -4 3 -50 7 -102 9 l-96 2 3 -146z m215 66 c32 -30 32 -102 1 -135 -18 -19 -32 -23 -83 -23 l-61 0 -3 80 c-1 44 0 84 4 90 3 5 31 10 62 10 44 0 62 -5 80 -22z">
      </path>
      <path id="pYeECOqUS"
        d="M7109 6578 c-1 -2 -2 -19 -3 -39 -2 -20 -12 -57 -24 -83 -12 -25 -22 -52 -22 -60 0 -8 -4 -18 -10 -21 -5 -3 -10 -17 -10 -31 0 -13 -3 -24 -8 -24 -4 0 -12 -15 -18 -32 -6 -18 -14 -41 -19 -50 -6 -15 -2 -18 21 -18 54 0 71 10 67 35 -3 12 0 26 6 29 6 4 11 16 11 26 0 11 9 35 20 55 11 20 20 43 20 52 0 12 3 13 15 3 15 -13 45 -67 45 -82 0 -5 9 -27 20 -50 15 -31 17 -45 8 -55 -9 -11 -1 -13 45 -12 43 2 54 5 47 14 -7 9 -6 16 5 25 8 7 15 21 15 31 0 10 9 34 19 52 11 19 21 45 23 58 4 30 32 31 36 2 2 -13 8 -23 13 -23 5 0 9 -11 9 -24 0 -14 5 -28 10 -31 6 -3 10 -16 10 -29 0 -12 5 -27 12 -34 8 -8 8 -15 -2 -27 -11 -13 -6 -15 39 -15 54 0 62 9 36 44 -8 10 -12 22 -9 27 2 4 -5 24 -16 44 -11 19 -20 42 -20 50 0 8 -9 30 -20 50 -11 20 -20 44 -20 53 0 10 -4 22 -9 28 -5 5 -11 20 -13 34 -2 20 -9 25 -40 27 -34 2 -38 -1 -38 -22 0 -24 -6 -41 -41 -122 -11 -24 -19 -49 -19 -56 0 -14 -19 -37 -32 -37 -4 0 -8 9 -8 20 0 11 -9 35 -20 55 -11 20 -20 44 -20 53 0 10 -4 22 -9 28 -5 5 -11 25 -13 44 -3 33 -5 35 -45 38 -24 2 -43 2 -44 0z">
      </path>
      <path id="p16Ju8vHMm"
        d="M7545 6569 c-4 -5 1 -19 10 -29 32 -35 125 -233 115 -245 -6 -8 5 -11 41 -12 41 0 49 2 47 16 -2 9 25 72 59 140 35 68 61 127 57 130 -3 3 -21 6 -40 8 -31 2 -34 0 -34 -26 0 -43 -19 -52 -97 -49 -64 3 -68 4 -71 28 -2 14 -9 31 -14 38 -13 15 -64 16 -73 1z m202 -121 c-17 -39 -33 -68 -38 -68 -11 0 -27 24 -34 53 -7 26 -6 27 35 27 30 0 41 -4 37 -12z">
      </path>
      <path id="p15LkJEVNx" d="M7945 6429 l0 -146 38 0 37 0 0 118 0 119 90 0 90 0 0 28 0 27 -128 0 -127 0 0 -146z">
      </path>
      <path id="pEtBOJh6L"
        d="M8246 6573 c-3 -4 -6 -71 -6 -150 l0 -143 40 0 40 0 0 120 0 120 90 0 90 0 0 28 0 27 -124 2 c-68 1 -127 -1 -130 -4z">
      </path>
      <path id="pBOtEOQ1b" d="M5735 6430 l0 -140 28 0 c25 0 27 3 27 38 0 20 2 83 3 140 l2 102 -30 0 -30 0 0 -140z">
      </path>
      <path id="p1EnuUgnSc"
        d="M9132 6048 c8 -23 64 -46 130 -53 62 -7 68 -10 90 -43 29 -45 72 -70 120 -71 20 -1 39 -7 42 -13 5 -10 7 -10 12 0 3 6 22 12 43 12 20 0 42 5 49 12 16 16 52 -4 74 -43 10 -17 22 -28 26 -25 5 3 20 -6 32 -19 13 -14 33 -25 45 -25 12 0 25 -3 29 -7 10 -10 218 -12 231 -3 6 4 21 10 35 13 14 3 50 31 80 61 30 31 58 56 63 56 26 0 90 56 109 95 l22 45 78 0 c45 0 78 4 78 10 0 7 -239 10 -696 10 -539 0 -695 -3 -692 -12z">
      </path>
      <path id="p8z2ku1ke"
        d="M9635 5493 c-3 -49 -8 -106 -9 -128 -1 -22 -8 -64 -15 -93 -16 -64 -12 -70 64 -96 73 -26 151 -64 165 -81 7 -8 17 -15 23 -15 6 0 18 -6 26 -14 9 -8 53 -16 104 -20 88 -7 89 -7 82 14 -10 31 -23 119 -36 235 -6 55 -13 126 -17 158 l-7 58 -112 3 c-71 2 -119 8 -128 16 -8 7 -24 10 -35 7 -11 -3 -20 -1 -20 3 0 8 -56 40 -70 40 -4 0 -11 -39 -15 -87z">
      </path>
      <path id="p139RMvEjJ"
        d="M2350 5319 c-67 -11 -81 -20 -74 -43 9 -30 9 -30 45 -12 44 22 131 21 152 -2 24 -26 7 -41 -52 -46 -28 -2 -55 -7 -58 -10 -4 -3 -16 -6 -28 -6 -60 0 -79 -92 -28 -135 23 -20 39 -25 85 -25 66 0 148 19 148 35 -1 19 -30 50 -38 40 -28 -39 -127 -48 -157 -15 -24 26 -11 39 42 43 23 1 45 6 49 10 4 4 22 7 39 7 32 0 48 13 72 57 10 17 9 27 -3 52 -9 17 -22 31 -29 31 -7 0 -15 4 -17 9 -4 11 -103 18 -148 10z">
      </path>
      <path id="p139vd9JbY"
        d="M1502 5150 l-1 -170 143 0 c141 0 144 0 170 26 31 31 35 87 9 116 -15 17 -15 20 4 41 11 12 23 35 26 50 5 34 -18 87 -39 87 -8 0 -14 5 -14 10 0 6 -56 10 -149 10 l-148 0 -1 -170z m263 100 c20 -16 19 -39 -2 -62 -13 -15 -31 -18 -100 -18 l-83 0 0 44 c0 26 5 46 12 48 26 9 159 -1 173 -12z m-4 -156 l24 -26 -24 -19 c-18 -15 -39 -19 -91 -19 -92 0 -96 2 -92 50 l4 40 77 0 c70 0 80 -2 102 -26z">
      </path>
      <path id="pIhF0bCfK"
        d="M1900 5310 c0 -5 5 -10 10 -10 6 0 10 -6 10 -13 0 -7 9 -23 20 -35 11 -12 20 -28 20 -36 0 -8 15 -43 33 -78 18 -35 31 -71 29 -81 -3 -16 2 -18 45 -15 33 2 47 7 45 16 -2 14 108 235 121 240 23 11 0 22 -44 22 -45 0 -50 -2 -39 -16 11 -13 9 -19 -12 -41 -17 -17 -30 -23 -39 -17 -19 11 -41 11 -57 0 -9 -7 -21 -1 -39 17 -22 22 -24 28 -13 41 11 14 6 16 -39 16 -28 0 -51 -4 -51 -10z m203 -96 c9 -9 -34 -85 -47 -81 -6 2 -13 12 -15 23 -2 10 -8 22 -14 26 -18 11 12 38 43 38 14 0 29 -3 33 -6z">
      </path>
      <path id="p16mQCj2zE"
        d="M2600 5179 l0 -140 36 3 37 3 -2 113 c-1 62 -5 120 -8 128 -3 8 0 14 6 14 6 0 11 5 11 10 0 6 -18 10 -40 10 l-40 0 0 -141z">
      </path>
      <path id="pBBpbe9WU"
        d="M9275 4967 c-16 -8 -35 -12 -42 -10 -6 2 -23 -3 -36 -11 -13 -9 -26 -14 -29 -11 -10 11 -103 -47 -151 -94 -27 -26 -61 -73 -78 -108 -16 -34 -33 -65 -38 -67 -4 -3 -40 11 -79 30 -107 54 -182 56 -287 9 -52 -23 -95 -85 -95 -135 0 -38 81 -130 114 -130 44 -1 57 -22 50 -86 -5 -50 -2 -67 19 -114 25 -53 65 -100 105 -124 69 -40 92 -51 137 -62 97 -26 274 -12 320 26 16 13 20 12 39 -13 86 -112 156 -161 231 -161 22 0 43 -4 46 -8 12 -19 160 -3 172 18 5 8 12 12 17 9 14 -9 50 15 117 79 l63 60 24 -23 c14 -13 34 -29 44 -35 11 -6 37 -22 58 -37 47 -30 118 -54 133 -45 6 4 14 0 17 -8 5 -13 25 -16 114 -16 62 0 111 4 115 10 3 6 18 10 32 10 26 0 116 41 144 66 8 8 20 14 25 14 13 0 66 55 59 61 -3 3 6 16 20 29 14 13 25 29 25 36 0 21 21 28 95 35 84 7 183 51 234 103 19 20 31 36 26 36 -4 0 0 9 11 21 14 15 18 36 18 90 l0 69 -69 70 c-44 45 -77 70 -92 70 -12 0 -25 5 -28 10 -3 6 -17 10 -31 10 -17 0 -30 9 -42 30 -9 16 -21 30 -25 30 -5 0 -5 5 -1 11 14 23 -93 109 -137 109 -10 0 -20 4 -23 8 -8 13 -86 14 -140 2 -76 -17 -106 -34 -156 -84 -42 -44 -70 -58 -70 -35 0 5 -4 8 -9 4 -5 -3 -12 -1 -16 4 -7 12 -94 53 -150 71 -22 7 -91 13 -157 14 l-117 1 -51 50 c-27 27 -50 45 -50 41 0 -5 -8 -3 -17 5 -30 24 -62 39 -82 39 -11 0 -23 5 -26 11 -4 5 -17 9 -28 7 -12 -1 -29 2 -37 7 -25 16 -201 17 -235 2z">
      </path>
      <path id="plJaWoxln"
        d="M1103 4744 c-3 -9 0 -20 7 -24 8 -5 9 -13 4 -21 -5 -8 -8 -78 -9 -156 l0 -143 38 0 37 0 0 176 c0 168 -1 175 -19 169 -11 -3 -22 -1 -26 5 -9 15 -25 12 -32 -6z">
      </path>
      <path id="p1EmXOFMiO"
        d="M1533 4738 c-9 -11 -11 -18 -5 -18 8 0 12 -24 12 -71 0 -85 -12 -87 -53 -8 -16 30 -32 56 -38 57 -5 2 -9 12 -9 23 0 17 -3 18 -20 7 -11 -7 -20 -21 -20 -30 0 -10 -4 -18 -10 -18 -5 0 -10 -9 -10 -20 0 -11 -4 -20 -9 -20 -5 0 -16 -16 -26 -36 -9 -20 -20 -33 -23 -29 -3 3 -5 44 -3 90 l3 85 -31 0 -31 0 0 -143 0 -144 34 1 c35 2 70 22 61 36 -3 5 -1 11 5 15 5 3 17 23 26 43 10 20 24 45 32 54 17 20 42 13 42 -12 0 -10 4 -20 8 -22 4 -1 20 -28 35 -59 25 -52 30 -57 60 -55 l32 2 3 127 c2 90 6 127 14 127 20 0 -20 34 -42 35 -11 1 -27 -7 -37 -17z">
      </path>
      <path id="p18IFHPwyn"
        d="M1694 4739 c-10 -11 -12 -19 -6 -19 17 0 16 -232 0 -248 -17 -17 204 -17 235 1 46 26 57 40 57 77 0 41 -24 70 -57 70 -11 0 -23 3 -27 7 -4 4 -35 7 -69 8 l-62 0 -3 56 c-3 51 -5 57 -27 61 -16 3 -31 -2 -41 -13z m216 -175 c11 -12 11 -18 -2 -30 -16 -16 -41 -20 -114 -16 -39 2 -40 3 -36 32 4 30 4 30 72 30 49 0 71 -4 80 -16z">
      </path>
      <path id="pGhGjpX3F"
        d="M2058 4743 c-5 -7 -11 -73 -11 -148 l-2 -135 138 0 137 0 0 31 0 31 -92 -2 c-121 -2 -114 -4 -113 28 0 27 1 27 71 30 l71 3 1 31 c1 23 -2 28 -11 19 -6 -6 -37 -11 -68 -11 -49 0 -59 3 -64 20 -3 11 -3 29 0 40 6 18 15 20 118 20 86 0 108 3 99 12 -7 7 -12 19 -12 28 0 13 -19 15 -126 15 -86 0 -129 -4 -136 -12z">
      </path>
      <path id="pOWFRzyLS"
        d="M2396 4745 c-13 -10 -16 -34 -16 -149 l0 -136 110 0 c108 0 130 5 173 39 25 21 21 64 -9 95 -15 14 -33 26 -40 26 -8 0 -14 2 -14 5 0 11 26 50 52 80 30 33 40 67 13 45 -12 -10 -18 -10 -30 0 -20 17 -40 0 -65 -55 -25 -54 -41 -67 -82 -63 l-33 3 1 57 c1 51 -1 57 -21 60 -12 3 -30 -1 -39 -7z m214 -180 c28 -33 -36 -59 -119 -48 -34 5 -41 9 -41 28 0 32 7 35 80 35 48 0 71 -4 80 -15z">
      </path>
      <path id="pGQ2jEmov"
        d="M2785 4750 c-3 -5 -15 -10 -26 -10 -18 0 -19 -8 -19 -141 l0 -142 36 6 c44 7 51 14 36 29 -16 16 -16 220 -1 235 12 12 4 33 -11 33 -5 0 -12 -4 -15 -10z">
      </path>
      <path id="p1GtRfQDzS"
        d="M390 1445 c-14 -8 -38 -28 -55 -45 -26 -27 -30 -39 -33 -104 -4 -70 -3 -74 28 -110 45 -51 89 -69 168 -69 49 0 78 6 107 22 22 11 48 21 58 21 17 0 17 1 0 28 -9 15 -18 29 -20 31 -2 3 -13 -4 -26 -15 -55 -47 -117 -57 -174 -29 -43 22 -83 76 -83 113 0 26 25 74 52 99 46 42 150 38 204 -9 25 -22 34 -23 34 -3 0 9 7 18 15 21 19 8 19 24 0 24 -8 0 -30 9 -50 20 -28 16 -53 20 -118 19 -47 -1 -93 -7 -107 -14z">
      </path>
      <path id="pZJoyGYMw"
        d="M751 1404 c16 -31 29 -62 29 -70 0 -8 3 -14 8 -14 8 0 32 -49 32 -67 0 -7 5 -13 10 -13 6 0 10 -13 10 -30 0 -28 2 -30 39 -30 25 0 38 4 38 13 -2 18 113 247 124 247 5 0 9 5 9 10 0 6 -21 10 -46 10 -41 0 -45 -2 -39 -21 12 -37 -20 -59 -85 -59 -65 0 -97 22 -85 59 6 19 2 21 -34 21 l-40 0 30 -56z m169 -64 c0 -11 -4 -20 -10 -20 -5 0 -10 -9 -10 -19 0 -33 -28 -33 -45 1 -24 49 -20 58 25 58 33 0 40 -3 40 -20z">
      </path>
      <path id="pu1qfYrDj"
        d="M1120 1320 l0 -140 113 1 c61 0 120 4 129 7 10 4 26 23 36 41 17 31 17 38 5 63 -8 15 -20 28 -27 28 -7 0 -21 9 -30 19 -17 19 -16 22 29 70 l48 51 -52 0 c-41 0 -51 -3 -51 -17 0 -9 -7 -25 -17 -35 -9 -10 -21 -28 -27 -41 -9 -16 -22 -23 -53 -25 l-41 -3 -4 43 c-3 29 0 49 10 61 14 16 12 17 -26 17 l-42 0 0 -140z m215 -40 c17 -19 17 -21 0 -40 -15 -16 -31 -20 -87 -20 l-68 0 0 40 0 40 68 0 c56 0 72 -4 87 -20z">
      </path>
      <path id="pf8dwLKSR"
        d="M1540 1450 c0 -5 5 -10 10 -10 14 0 13 -133 -2 -148 -9 -9 -9 -12 0 -12 7 0 12 -8 12 -18 0 -28 -20 -42 -60 -42 -20 0 -41 5 -48 12 -9 9 -12 5 -12 -20 l0 -32 140 0 140 0 0 31 c0 26 -2 29 -14 20 -8 -7 -32 -11 -53 -9 l-38 3 2 118 1 117 -39 0 c-21 0 -39 -4 -39 -10z">
      </path>
      <path id="pgaqUa0fs"
        d="M1768 1448 c8 -8 12 -54 12 -141 l0 -128 28 3 c25 3 27 6 27 53 l0 50 85 0 85 0 -2 -52 -1 -53 35 0 35 0 -2 88 c-1 48 -1 89 0 92 0 3 2 26 3 53 l3 47 -39 0 c-30 0 -38 -4 -36 -17 1 -10 1 -37 0 -60 l-1 -43 -79 0 -79 0 -4 45 c-2 31 2 50 12 60 13 13 8 15 -40 15 -42 0 -51 -3 -42 -12z">
      </path>
      <path id="pUvqauo4H"
        d="M2181 1343 c33 -64 59 -127 59 -140 0 -21 4 -23 51 -23 42 0 49 3 40 13 -8 10 -7 21 2 40 6 15 15 27 20 27 4 0 7 9 7 20 0 11 5 20 10 20 6 0 10 9 10 19 0 11 4 21 9 23 5 2 23 29 39 61 l30 57 -50 0 c-44 0 -49 -2 -38 -15 11 -13 9 -20 -10 -40 -20 -21 -33 -25 -80 -25 -63 0 -80 11 -80 52 0 26 -3 28 -39 28 l-38 0 58 -117z m139 4 c0 -8 -7 -28 -16 -46 -17 -34 -37 -37 -43 -5 -2 10 -8 22 -14 26 -7 4 -7 11 2 22 17 20 71 21 71 3z">
      </path>
      <path id="pHBnHPYu1"
        d="M2557 1426 c-20 -18 -37 -41 -37 -49 0 -9 -4 -19 -10 -22 -34 -21 14 -123 72 -154 47 -25 171 -29 201 -7 23 17 22 38 -3 54 -11 7 -20 9 -20 5 0 -13 -52 -33 -82 -33 -46 0 -98 35 -98 67 0 11 -5 24 -10 29 -16 16 16 71 52 89 45 22 111 20 133 -5 25 -28 6 -49 -40 -43 -34 4 -35 4 -35 -28 0 -26 3 -30 12 -21 7 7 38 12 70 12 l58 0 0 60 c0 53 -2 60 -19 60 -11 0 -23 5 -26 10 -3 6 -46 10 -94 10 -85 0 -88 -1 -124 -34z">
      </path>
      <path id="pMAZozf5Q"
        d="M4670 630 c-6 -4 9 -44 40 -105 27 -54 50 -104 50 -112 0 -7 5 -13 10 -13 6 0 10 -9 10 -19 0 -11 5 -21 10 -23 6 -2 11 -20 12 -41 l1 -38 46 3 c40 3 47 6 52 28 11 46 21 70 30 70 5 0 9 6 9 13 0 18 24 67 33 67 4 0 7 6 7 13 0 18 24 67 33 67 4 0 7 8 7 17 0 9 9 27 21 39 29 31 19 40 -35 36 -35 -3 -46 -8 -46 -21 0 -9 -6 -29 -12 -44 -13 -26 -15 -27 -100 -27 -81 0 -88 2 -88 20 0 11 -4 20 -10 20 -5 0 -10 11 -10 24 0 19 -6 25 -30 28 -16 3 -34 2 -40 -2z m230 -160 c0 -16 -4 -30 -10 -30 -5 0 -10 -7 -10 -16 0 -14 -28 -51 -33 -43 -18 30 -47 94 -47 105 0 10 14 14 50 14 49 0 50 -1 50 -30z">
      </path>
      <path id="pBJd00oUM"
        d="M5128 633 l-28 -4 0 -139 0 -139 103 -3 c106 -3 138 5 172 42 12 14 15 27 10 47 -8 33 -33 63 -51 63 -26 0 -22 18 17 73 21 32 39 58 39 60 0 1 -20 1 -45 -1 -37 -3 -45 -8 -45 -23 0 -11 -9 -29 -20 -41 -11 -12 -20 -27 -20 -34 0 -16 -43 -26 -75 -18 -21 5 -25 12 -25 43 0 20 5 42 11 48 11 11 4 34 -9 32 -4 -1 -19 -4 -34 -6z m165 -171 c23 -2 27 -6 27 -32 l0 -30 -80 0 -80 0 0 29 c0 16 5 31 10 33 10 3 73 3 123 0z">
      </path>
      <path id="ppa1RaJGl"
        d="M5482 493 l3 -145 103 0 c57 0 106 3 110 6 3 3 12 6 19 6 26 0 43 28 43 68 0 38 -22 72 -48 72 -33 0 -20 40 32 98 l30 32 -47 0 c-40 0 -47 -3 -47 -20 0 -29 -70 -100 -95 -95 -11 2 -26 4 -32 4 -17 1 -17 93 -2 108 9 9 1 12 -30 11 l-42 0 3 -145z m181 -29 c33 -6 37 -10 37 -35 l0 -29 -80 0 -80 0 0 28 c0 16 3 32 7 35 8 9 66 9 116 1z">
      </path>
      <path id="p30quR5Sd"
        d="M6817 634 c-3 -3 -61 -6 -129 -7 l-123 -2 -3 -110 c-2 -60 -1 -123 3 -140 l5 -30 135 0 135 0 0 28 0 27 -110 0 c-99 0 -110 2 -110 18 0 31 22 42 82 42 l58 0 0 31 c0 26 -2 29 -14 20 -8 -7 -35 -11 -62 -9 -54 3 -77 26 -58 55 9 15 29 18 113 21 l101 3 0 29 c0 28 -9 38 -23 24z">
      </path>
      <path id="p1BQoOL1eu"
        d="M7028 633 l-128 -4 0 -139 0 -140 115 -2 c63 -1 125 -2 137 -2 17 -1 22 5 22 24 0 25 0 25 -107 28 l-107 3 0 29 0 30 70 0 70 0 0 32 c0 25 -3 29 -12 20 -16 -16 -100 -16 -116 0 -7 7 -12 25 -12 40 l0 28 110 0 110 0 0 30 c0 18 -5 29 -12 28 -7 -1 -70 -4 -140 -5z">
      </path>
      <path id="pdQud89qJ"
        d="M7245 632 c-3 -3 -5 -67 -5 -143 l0 -137 33 -5 c19 -3 34 0 36 7 5 13 162 176 170 176 3 0 6 -43 5 -95 l0 -94 25 6 c14 3 27 6 28 7 6 4 5 265 -1 274 -13 21 -76 -4 -76 -30 0 -11 -39 -49 -65 -64 -10 -6 -23 -19 -29 -30 -15 -26 -48 -55 -59 -51 -5 1 -10 43 -11 92 -1 84 -2 88 -24 90 -12 1 -24 -1 -27 -3z">
      </path>
      <path id="pBXxR3XuI"
        d="M5800 620 c0 -5 6 -13 14 -17 8 -4 39 -60 70 -124 31 -63 58 -118 61 -121 12 -12 57 6 65 26 4 12 22 45 39 75 18 29 30 56 27 58 -3 3 11 27 30 54 19 27 34 51 34 54 0 3 -20 5 -45 5 -35 0 -43 -3 -39 -15 4 -8 -1 -26 -9 -39 -15 -22 -21 -23 -84 -18 -73 5 -86 14 -78 50 5 20 2 22 -40 22 -25 0 -45 -4 -45 -10z m200 -113 c0 -22 -24 -67 -35 -64 -9 3 -43 56 -44 70 -1 4 17 7 39 7 26 0 40 -4 40 -13z">
      </path>
      <path id="pwXNmoAT8"
        d="M6210 492 l0 -139 30 0 c30 0 30 1 30 59 0 32 4 58 8 58 4 0 23 -16 42 -35 19 -19 38 -35 43 -35 11 0 32 -21 39 -41 4 -11 16 -14 42 -11 20 2 36 7 36 12 0 10 -35 40 -46 40 -15 0 -64 54 -64 71 0 8 29 44 65 79 36 35 65 68 65 72 0 4 -20 8 -45 8 -32 0 -45 -4 -45 -14 0 -8 -21 -39 -47 -70 l-47 -56 -23 22 c-25 24 -32 85 -11 106 9 9 3 12 -30 12 l-42 0 0 -138z">
      </path>
    </g>
  </g>
</svg>