<svg xmlns="http://www.w3.org/2000/svg" id="root" viewBox="0 0 187.9 150.7">
  <path
    fill="#ded4a3"
    d="M29.7 0c-.3 0-.6 0-.9.2-1.2.5-1.9 1.8-1.5 3 .5 1 1.8 1.6 3 1 1.3-.4 2-1.7 1.6-2.8A2.2 2.2 0 0 0 29.7 0Zm13 3.6a1 1 0 0 0-.3 0c-.9.4-1.1 1.9-.6 3.4.5 1.6 1.7 2.6 2.6 2.3.9-.3 1.2-1.9.6-3.4-.4-1.3-1.4-2.3-2.2-2.3Zm35.9 6.7c-1.1 0-2 .3-2.7.4l-2 .3-4.3.3c-1.6.2-3.2.5-4.7.9s-3 1-4.3 2.4c-1.6 1.6-3.7 4.5-5.7 6.2-1 .8-2 1.2-2 1.2l-.3-.5c-1-1.8-2-3-3.3-4a6 6 0 0 0-4.4-1.2c-3 .6-4.5 3-4.9 5.3l-.8 1.7c-.6.9-1.4 1.9-2.3 2.8a17 17 0 0 1-2.7 1.9c-.7.3-1.1.3-1.4.2-2.9-1-6.3-1.4-9.5-1-3.3.2-6.6 1-8.4 4.1a139.6 139.6 0 0 0-6 12.5c-.5 1.3-.9 2.1-1 3.7 0 1-.3 3.7 1 6.4 1.4 2.7 4.9 4.8 9.5 4.5 3.3-.2 4.3.5 4.6.8.3.4.5 1.3.4 2.8-.2 1.6.4 3.2 1.2 4.4a10 10 0 0 0 10.2 2.7c.8-.2 1-.2 1.2.1.3.3 1 1.6 1 4.6 0 4.1 1.3 7.4 3.8 9.2a11 11 0 0 0 8 1.4c2.3-.3 5.3-1 8-2s5-1.7 6.8-3.5c.9-.9 1.7-1.5 2.3-1.8.6-.3 1-.4 2.5.2 1.8.8 3.7 2 5.1 3l2 2.3 1.3 7.6-.1 6-1.1 1c-9 .3-16.8.7-22.5 1.3a65 65 0 0 0-9.5 1.7l-1.3.8a3.3 3.3 0 0 0 .1 5c.5.5.8.6 1.2.8l2 .5 5.9.4 18.4.4 4.3.6 1 1.4v6.9l-1.9 1.1a3 3 0 0 0-1.5 2.4l-.2 4-.5.7-2.4-3.2v-4a3 3 0 0 0-3-3h-8.4a3 3 0 0 0-3 3l.1 6.1-1.5-.1a3 3 0 0 0-2.4 1l-2.2 2.3a3 3 0 0 0-.8 1.8v.8l-7.4-5.7a3 3 0 0 0-1.8-.7H35a3 3 0 0 0-3 3v6.3l-10.8-.3a3 3 0 0 0-3 2.2l-1.2 4.5a3 3 0 0 0 .8 3l2.5 2.3a3 3 0 0 0 2.5.8l11.8-2 2 2.4a3 3 0 0 0 2.2 1.2l5.8.2a3 3 0 0 0 2.1-.9l3.1-3 4.9-1.6h1l.8 2.8a3 3 0 0 0 3 2l2.8-.1a3 3 0 0 0 2.6-2l1.6-4.2 4.7.2 1.4 2.3a3 3 0 0 0 2.9 1.5l4.8-.6h7.3v.6a3 3 0 0 0 2.8 2.5l4.8.3a3 3 0 0 0 1.8-.4l6.3-4h1.7l5 1.9.7.1 5 .7.6.7a3 3 0 0 0 2 1l2.7.2a3 3 0 0 0 2.8-1.6l1.3-2.4h2.5l1.9 1.6a3 3 0 0 0 1.8.7l14.2.1 5.7 4.5a3 3 0 0 0 4.4-.7l1.2-2 5.2-3.2a3 3 0 0 0 1.3-2l.8-4.4a3 3 0 0 0-3-3.5l-3.3.1c-1 0-2 .6-2.5 1.5l-1 1.6-.6.4h-.4l-1.5-1-.3-3.2a3 3 0 0 0-4.1-2.4l-3.3 1.4a3 3 0 0 0-1.8 2.2l-.1 1h-1.6l-.7-.7a3 3 0 0 0-2.2-1h-1.9l2-2.7a3 3 0 0 0-.4-4l-2.8-2.5a3 3 0 0 0-3.8-.2l-3.1 2.4h-2.4l-2-1.1-1.4-3.3a3 3 0 0 0-2.2-1.6l-4.2-.8a3 3 0 0 0-3.4 2l-.5 1.5-2 1.7h-.5l-1.5-1.9.6-1.2c.3-.5.4-1 .4-1.5l-.2-2.9a3 3 0 0 0-2.8-2.8l-3.8-.2v-4.6l2.2-1.7c9 0 16.9 0 22.4-.4a57.3 57.3 0 0 0 9.4-1.5 4 4 0 0 0 1.3-.8c.4-.5 1-1.4 1-2.5s-.6-2-1-2.4a3 3 0 0 0-1.2-.8c-.7-.4-1.4-.6-2.3-.8a59 59 0 0 0-6.6-1 299 299 0 0 0-20.8-1.2l-.9-.8.4-15.8c1.4-.1 2.8-.2 4-.5l2.8-.7c.9-.3 1.7-.2 2.7-1.9-.3.5.1 0 .8-.3a13.1 13.1 0 0 1 6.2-.2h.2a9.2 9.2 0 0 0 3.1 5.3 6 6 0 0 0 4.3 1.3 6.9 6.9 0 0 0 4.3-2.7c1.6-2 2.8-3 3.4-3.4.6-.4.6-.4 1.3-.4l.6.4 2 1.6c1.4 1.4 2.8 3.3 6 3.5 1.7.1 2.8-.3 4.3-.8a62 62 0 0 0 9.8-4.4c1-.3 6.3-2.2 7.6-7.7.3-1.5 1.3-3.4 2.2-5.6a13 13 0 0 0-1.2-14 8.4 8.4 0 0 0-5.6-3.2c-.9-.1-1.7-.4-2.4-.7.3-.6.7-1 .7-1.8 0-1.3-.5-2.7-1.3-3.7-1.8-2-4.4-2.6-7.8-2.7-2.9-.1-5.1-.3-6.3-.7l-.5-.1c-.2-1.7 0-4 .8-4.9 1.4-1.6 2.4-3.6 3-6 .6-2.2.9-5-1-7.4-1.2-1.6-2.6-2.1-4.3-2.9l-5.7-2a44.7 44.7 0 0 0-11.6-2.3 33 33 0 0 0-7.4 1l-4.4.7c-.7 0-2.3-.5-4.2-.6-.9-.1-1.9-.2-3 .1a5.4 5.4 0 0 0-3.3 2.5c-.3.6-.8 1-1 1.1l-.5-.5c-1.3-2-2.2-3.4-4-4.6a8.3 8.3 0 0 0-6.3-.7c-3.2.6-4.4 3.2-5 3.8 0 0-.2 0-1.1-.7-4-2.8-6.9-3.7-9.3-3.6Zm-68 52.5c-.4 0-1 0-1.4.3-1.5.6-2.3 1.8-2 2.7.4 1 1.9 1.2 3.3.6 1.4-.5 2.3-1.7 2-2.7-.3-.6-1-1-1.9-1Zm10.9 61.5c-1 0-2 .5-2.4 1.3-.7 1.3 0 3 1.6 3.9 1.6.8 3.4.5 4-.8.8-1.3 0-3-1.5-4-.5-.2-1.1-.4-1.7-.4Zm133.2.8c-1.3 0-2.3 1-2.3 2.1 0 1.2 1 2.1 2.3 2.1 1.2 0 2.3-1 2.3-2 0-1.3-1-2.2-2.3-2.2Zm18 8.2a5 5 0 0 0-2.6.8c-1.8 1.1-2.7 3-2 4.3.8 1.3 3 1.4 4.8.3 1.8-1.1 2.7-3 2-4.3-.5-.7-1.3-1-2.3-1Zm0 0"
  />
  <path
    d="M150.3 1.9c-1.2 0-2.5.7-3.4 2-1.5 1.7-1.7 4-.6 4.9 1.2.9 3.2.2 4.7-1.6 1.4-1.8 1.7-4 .5-5a2 2 0 0 0-1.2-.3Zm15.2 5.7c-1 0-1.8.4-2.1 1.2-.6 1.2.1 2.8 1.6 3.5 1.5.8 3.2.4 3.8-.8.6-1.2-.1-2.8-1.6-3.5-.5-.3-1.1-.4-1.7-.4ZM79 13.3h-.3c-.7 0-1.4.2-2 .3-2 .6-11.5.3-14 3-2.4 2.6-9.2 12.5-12.6 6.4-3.5-6.1-6.7-3.5-7.2-.8-.4 2.6-6.5 10.5-11.1 8.8-4.6-1.7-12.6-1.3-14.3 1.8a81.7 81.7 0 0 0-6.6 14.8c-.1 2.1-.3 8.4 7.3 7.8 7.6-.5 8.4 3.3 8.1 6.9-.3 3.5 4.7 4.9 7.7 4 3-1 6.1.6 6 7.6-.1 7 4 8.2 8.3 7.5 4.3-.6 11.3-2.8 13.2-4.6 1.9-1.8 4-4 8.1-2.2a39 39 0 0 1 6 3.4l2.6 3.3 1.6 8.6-.1 7.6-2.9 2.7c-18.8.4-32.6 1.7-32.6 3.3 0 1.3 11.1 1.4 26 1.6l5.7.9 2.2 3 .1 9.7-3.4 2-.3 5-2.2 2.7h-2.5l-4-5.3v-5h-8.5l.2 9.3-4.9-.4-2.2 2.3-.3 4.7h-2.3l-9.5-7.5H35v7.4l-1.7 2-12.2-.4-1.3 4.5 2.5 2.4L36 140l3 4h5.8l3.6-3.4 5.9-2h3.6l1.5 4.9 2.9-.2 2.3-6.3 8.4.3 2.2 3.8 5-.6 10 .1.5 3 4.8.3 7-4.4h3.2l5.4 2 6.1.9 1.4 1.5 2.7.2 2.2-4h5.3l2.6 2.3 15.2.1 6.6 5.2 1.5-2.5 5.8-3.6.8-4.4-3.3.1-1.4 2.4-2 1h-2l-3.5-2.1-.5-4.7-3.3 1.4-.3 2-1.2 1.6-4.4-.2-1.6-1.5H134l-2-2.7 3.4-4.9-2.8-2.5-4 3h-4.1l-3.5-2-1.8-4.1-4.3-.8-.7 2.4-3.5 3-3-.2-3.7-4.4 1.6-3-.2-2.8-6.5-.3-.2-9 4.3-3.2c19 .3 32.2-.6 32.2-2.2 0-1.5-12.6-2.8-30.2-3.2l-2.7-2.5.5-19.8h.1c4-.1 9.2-1 9.9-2 .6-1 3-2.2 6-2.2 3.2 0 6 .3 6.5 2.5.4 2.2 3 6.9 6.5 2.8 3.4-4 4.9-5 7.4-4.8 2.5.1 5.7 5.3 8.4 5.5 2.6.1 12.8-5 12.8-5s4.8-1.6 5.8-5.7 4.3-8 3.6-12.1c-.8-4-2.8-6.8-5.7-7-2.8-.4-6.7-1.8-5-4 1.8-2.2.5-4.7-5.5-5-6-.1-9.4-.7-9.7-2.8-.3-2.1-.4-5.6 1.5-7.8 2-2.1 3.8-7.2 2-9.6-1.9-2.4-14.5-6-19.2-6-4.7 0-9.6 1.8-12 1.7-2.5-.2-6.5-1.8-7.7.4-1.2 2.3-4 4.7-6.6.9-2.7-3.7-3.6-4.9-7.2-4.1-3.7.8-3.2 6.4-8.5 2.6-3.5-2.4-5.6-3-7.2-3Zm-4 12.2 9.3 16 .7-1.6 1.2-12 6.1 18.9 2.3-2.2 5.7-15.5 2.5 11 6.4-9.5-2 10.2-2.6 6 2.4-1.6 5.6-6.9.3 6.5 4.5-15-.9 13.2 2.5-1 5.3-7.6-4 12.2L122 48l11.5-7-5.4 7.3 12.6 1-12.6 3.4 11 7-14.5-4.6 2.2 11.7-4.5-11.6-1.7-1.6-1.3 6.5-2.5-4.6-1 7.6L114 56l-8.9-.6 6.3 5.1-11.4-2.3 3.5 10.5L91.1 55l-.8 3.4 4.2 12L89 64l-3 13.8-3-16.7-6.8 5.5 4-9.7-8.7 3 4.9-5-2.7-1.6-21 10.7 7.6-7.6-1.7-.8-16.4 1.6 11.4-4-12.4-5.9L59.5 49l-3.3-7.6 11 9.7 1.7-.8-2-8.5 4.8 4.3.6-1.1-5.5-14.3 9.7 9L77 38ZM15.7 67.8a4 4 0 0 0-1.8.4c-1.7.8-2.6 2.4-2 3.7.5 1.2 2.3 1.6 4 .9 1.7-.8 2.6-2.4 2-3.7-.3-.8-1.1-1.3-2.2-1.3Zm168.6 2.8c-2 0-3.6 1.7-3.6 3.7s1.6 3.7 3.6 3.7 3.6-1.6 3.6-3.7c0-2-1.6-3.7-3.6-3.7ZM3.2 76.1c-1.8 0-3.2 1.3-3.2 3 0 1.5 1.4 2.8 3.2 2.8A3 3 0 0 0 6.4 79c0-1.6-1.4-2.9-3.2-2.9ZM165.7 83c-1.6 0-3 1.1-3 2.5s1.4 2.5 3 2.5 3-1.1 3-2.5-1.4-2.5-3-2.5Zm-79.8 24 2.3 10.5.5 4.7 3.4-4-.3 5.6-1.7 1.7.6 2.7 9.3-3.8 1.7 1.3-8.5 4-1.4 1.6 9.6.8 5.3 3.1-3.6.7-14.4-2.4v3.8l-2.6-3.5-3.5 4.1-2.3-1 3-4.2-6.6 3.3-4-1 5.7-3-2.5-2.4 6.9-.3.1-1.4-4.2-5.5 2.5-.3 4.9 4.4-1.1-7.9Zm-73.7 12.7a4 4 0 0 0-2 .6c-1.5.9-2.2 2.4-1.7 3.4.6 1 2.3 1.1 3.8.3 1.5-.9 2.2-2.4 1.7-3.4-.3-.6-1-.9-1.8-.9Zm0 0"
  />
</svg>