<svg id="root" xmlns="http://www.w3.org/2000/svg"
  style="transform:none;transform-origin:50% 50%;cursor:move;max-height:none" width="768" height="441"
  viewBox="0 0 7680 4410">
  <g>
    <path
      d="M3558 3314c-3-3-45-14-92-26-173-40-388-173-516-319-66-75-140-178-140-195 0-5-13-28-29-52-89-131-153-458-123-622 36-188 54-244 116-364 20-38 36-73 36-77 0-17 119-166 192-241 138-141 340-251 501-271 178-23 294 15 405 132 69 74 107 142 133 242 25 95 21 178-12 286-43 139-106 215-349 421-110 94-116 100-187 193-58 77-89 148-104 237-22 135 18 302 98 401 53 67 60 73 148 153 123 110 123 108 17 108-49 0-91-3-94-6zm25-1438c40-9 105-72 129-125 16-36 19-58 15-110-3-36-10-67-16-69s-11-10-11-17-18-31-40-53c-79-78-222-84-305-11-50 44-88 131-82 186 6 59 44 130 88 165 41 33 131 58 169 47 14-4 37-10 53-13z" />
    <path
      d="M3949 3242c-109-36-214-132-267-243-40-83-52-136-52-229 0-87 12-147 41-210 12-24 25-54 29-66 8-20 83-117 118-152 9-9 55-49 102-88 173-145 291-290 335-414 25-69 31-213 12-287-20-77-58-154-105-213-44-55-35-45-156-154l-100-89 92 6c317 23 606 193 805 474 69 99 126 226 168 378 30 107 33 332 6 445-41 173-99 307-185 429-52 74-245 271-266 271-7 0-19 7-26 15-21 25-116 75-203 107-108 40-262 48-348 20zm303-278c95-37 148-116 148-219 0-105-51-179-147-215-62-23-94-25-143-7-81 29-117 62-150 135-82 180 107 377 292 306z" />
  </g>
</svg>