<svg xmlns="http://www.w3.org/2000/svg" id="root" viewBox="2651 1097 2345 2223">
  <path
    d="M3558 3314c-3-3-45-14-92-26a1099 1099 0 0 1-656-514c0-5-13-28-29-52-89-131-153-458-123-622 36-188 54-244 116-364 20-38 36-73 36-77 0-17 119-166 192-241a941 941 0 0 1 501-271c178-23 294 15 405 132a516 516 0 0 1 121 528c-43 139-106 215-349 421a881 881 0 0 0-187 193c-58 77-89 148-104 237a548 548 0 0 0 98 401c53 67 60 73 148 153 123 110 123 108 17 108-49 0-91-3-94-6zm25-1438c40-9 105-72 129-125 16-36 19-58 15-110-3-36-10-67-16-69s-11-10-11-17-18-31-40-53c-79-78-222-84-305-11-50 44-88 131-82 186 6 59 44 130 88 165 41 33 131 58 169 47l53-13z"
  />
  <path
    d="M3949 3242a484 484 0 0 1-267-243c-40-83-52-136-52-229 0-87 12-147 41-210 12-24 25-54 29-66 8-20 83-117 118-152 9-9 55-49 102-88 173-145 291-290 335-414 25-69 31-213 12-287-20-77-58-154-105-213-44-55-35-45-156-154l-100-89 92 6c317 23 606 193 805 474 69 99 126 226 168 378 30 107 33 332 6 445-41 173-99 307-185 429-52 74-245 271-266 271-7 0-19 7-26 15a690 690 0 0 1-551 127zm303-278c95-37 148-116 148-219 0-105-51-179-147-215-62-23-94-25-143-7-81 29-117 62-150 135-82 180 107 377 292 306z"
  />
</svg>
