<svg xmlns="http://www.w3.org/2000/svg" id="root" viewBox="0 0 99 54">
  <path
    d="M 29.703125 53.882812 C 29.421875 53.839844 27.480469 53.394531 25.359375 52.910156 C 14.425781 50.359375 12.125 49.917969 9.394531 49.835938 C 6.929688 49.753906 6.628906 49.773438 4.34375 50.402344 C 0.648438 51.371094 0.949219 51.394531 0.445312 50.21875 C 0.203125 49.652344 0 49.105469 0 48.984375 C 0 48.761719 1.273438 48.460938 4.140625 48.015625 C 7.074219 47.570312 10.46875 47.75 13.941406 48.5625 C 15.4375 48.90625 18.125 49.492188 19.902344 49.875 C 21.683594 50.238281 24.511719 50.886719 26.167969 51.273438 C 28.753906 51.898438 29.542969 52 31.582031 52 C 34.535156 52 35.300781 51.816406 37.988281 50.542969 C 39.726562 49.714844 40.351562 49.269531 41.445312 48.15625 C 42.171875 47.40625 43.242188 46.050781 43.808594 45.140625 C 44.839844 43.441406 45.222656 43.300781 44.960938 44.675781 C 44.71875 46.03125 43.546875 47.933594 41.585938 50.21875 C 40.757812 51.191406 40.230469 51.554688 38.332031 52.484375 C 37.078125 53.09375 35.585938 53.679688 35 53.800781 C 33.96875 54.023438 30.753906 54.0625 29.703125 53.882812 Z M 29.703125 53.882812 "
  />
  <path
    d="M 28.996094 50.441406 C 27.664062 50.238281 21.296875 48.882812 17.378906 47.953125 C 9.71875 46.152344 8.304688 46.050781 2.847656 47.042969 C 1.917969 47.207031 1.132812 47.328125 1.089844 47.304688 C 1.070312 47.265625 1.699219 46.375 2.503906 45.324219 C 3.292969 44.273438 4.667969 42.085938 5.558594 40.46875 C 8.953125 34.195312 10.628906 31.808594 13.539062 28.917969 C 16.773438 25.699219 21.660156 22.746094 25.5625 21.613281 C 26.976562 21.207031 27.601562 21.148438 30.714844 21.167969 C 33.925781 21.167969 34.433594 21.230469 36.269531 21.734375 C 38.554688 22.363281 41.300781 23.597656 41.988281 24.34375 L 42.433594 24.828125 L 39.324219 25.960938 L 36.210938 27.117188 L 34.492188 26.285156 C 33.058594 25.597656 32.492188 25.4375 31.160156 25.355469 C 29.160156 25.214844 27.097656 25.640625 25.054688 26.628906 C 21.902344 28.128906 19.015625 32.132812 18.996094 35.007812 C 18.996094 35.449219 18.792969 35.59375 17.277344 36.179688 C 15.722656 36.804688 15.539062 36.828125 15.234375 36.542969 C 14.730469 36.019531 13.214844 36.117188 12.628906 36.726562 C 12.347656 36.988281 12.125 37.351562 12.125 37.535156 C 12.125 38.019531 13.375 40.972656 14.75 43.707031 L 15.964844 46.132812 L 16.75 46.132812 C 17.316406 46.132812 17.742188 45.972656 18.1875 45.585938 C 18.792969 45.082031 18.832031 44.980469 18.730469 44.128906 L 18.628906 43.199219 L 20.609375 42.328125 L 22.570312 41.460938 L 23.257812 41.882812 C 24.269531 42.492188 26.773438 43.238281 28.390625 43.402344 C 32.59375 43.804688 36.535156 41.742188 38.9375 37.898438 C 39.867188 36.402344 39.929688 36.339844 41.605469 35.574219 C 42.554688 35.128906 43.425781 34.761719 43.503906 34.742188 C 43.890625 34.664062 44.65625 37.898438 44.65625 39.496094 C 44.65625 44.351562 40.757812 48.761719 35.199219 50.199219 C 33.746094 50.5625 30.734375 50.683594 28.996094 50.441406 Z M 30.167969 47.792969 C 31.320312 46.640625 30.976562 44.433594 29.5625 43.886719 C 28.328125 43.421875 26.429688 44.3125 26.167969 45.484375 C 25.984375 46.375 26.472656 47.570312 27.277344 48.117188 C 28.230469 48.761719 29.320312 48.621094 30.167969 47.792969 Z M 37.808594 46.113281 C 38.171875 45.75 38.210938 45.507812 38.128906 44.757812 C 38.007812 43.683594 37.605469 43.300781 36.65625 43.300781 C 35.785156 43.300781 34.875 44.332031 35.058594 45.101562 C 35.402344 46.4375 36.917969 47.003906 37.808594 46.113281 Z M 41.300781 42.671875 C 42.414062 41.804688 41.726562 39.660156 40.332031 39.660156 C 39.324219 39.660156 38.796875 40.285156 38.796875 41.480469 C 38.796875 42.269531 38.878906 42.53125 39.242188 42.773438 C 39.867188 43.21875 40.65625 43.179688 41.300781 42.671875 Z M 41.300781 42.671875 "
  />
  <path
    d="M 27.078125 46.941406 C 26.53125 46.394531 26.570312 45.464844 27.15625 44.777344 C 27.542969 44.332031 27.804688 44.210938 28.453125 44.210938 C 30.027344 44.210938 30.816406 45.648438 29.886719 46.820312 C 29.542969 47.265625 29.320312 47.347656 28.472656 47.347656 C 27.742188 47.347656 27.378906 47.246094 27.078125 46.941406 Z M 35.886719 45.464844 C 35.644531 45.285156 35.542969 45 35.605469 44.617188 C 35.644531 44.152344 35.804688 43.988281 36.3125 43.828125 C 37.484375 43.503906 38.109375 44.738281 37.140625 45.40625 C 36.59375 45.789062 36.351562 45.808594 35.886719 45.464844 Z M 39.402344 41.480469 C 39.078125 40.894531 39.34375 40.285156 39.949219 40.144531 C 40.695312 39.941406 41.121094 40.285156 41.121094 41.09375 C 41.121094 41.742188 41.082031 41.785156 40.375 41.84375 C 39.789062 41.882812 39.585938 41.824219 39.402344 41.480469 Z M 15.011719 43.160156 C 13.640625 40.183594 12.730469 37.917969 12.730469 37.453125 C 12.730469 36.585938 14.527344 36.28125 15.035156 37.089844 C 15.5 37.816406 18.1875 43.867188 18.1875 44.191406 C 18.1875 44.636719 17.378906 45.121094 16.609375 45.121094 C 15.964844 45.121094 15.921875 45.0625 15.011719 43.160156 Z M 17.945312 41.804688 L 17.601562 41.117188 L 19.117188 40.449219 L 20.632812 39.800781 L 21.238281 40.40625 L 21.84375 40.996094 L 20.167969 41.742188 C 19.238281 42.167969 18.429688 42.492188 18.367188 42.492188 C 18.308594 42.492188 18.105469 42.1875 17.945312 41.804688 Z M 26.53125 42.289062 C 25.601562 42.085938 23.640625 41.296875 23.640625 41.09375 C 23.640625 40.996094 37.707031 34.601562 39.078125 34.074219 C 39.445312 33.933594 39.464844 33.996094 39.324219 34.804688 C 38.957031 37.109375 36.714844 40.085938 34.453125 41.316406 C 32.59375 42.308594 28.914062 42.753906 26.53125 42.289062 Z M 16.992188 39.941406 C 16.691406 39.273438 16.75 39.214844 18.308594 38.585938 L 19.519531 38.101562 L 19.84375 38.667969 L 20.167969 39.214844 L 18.933594 39.761719 C 18.246094 40.0625 17.578125 40.347656 17.457031 40.386719 C 17.335938 40.449219 17.136719 40.246094 16.992188 39.941406 Z M 22.066406 40.003906 C 21.601562 39.496094 21.5 39.253906 21.804688 39.253906 C 21.902344 39.253906 25.824219 37.617188 30.53125 35.613281 C 35.21875 33.609375 39.078125 31.992188 39.121094 32.011719 C 39.140625 32.050781 39.222656 32.316406 39.300781 32.597656 C 39.421875 33.0625 39.34375 33.164062 38.65625 33.449219 C 38.230469 33.609375 34.554688 35.269531 30.453125 37.109375 C 26.371094 38.949219 22.914062 40.46875 22.773438 40.46875 C 22.613281 40.46875 22.308594 40.265625 22.066406 40.003906 Z M 20.8125 38.445312 C 20.691406 38.203125 20.609375 37.917969 20.652344 37.816406 C 20.691406 37.695312 24.671875 35.976562 29.5 33.996094 C 37.382812 30.757812 38.3125 30.414062 38.554688 30.71875 C 38.675781 30.898438 38.796875 31.082031 38.796875 31.140625 C 38.796875 31.222656 23.441406 37.917969 21.195312 38.808594 C 21.117188 38.851562 20.933594 38.6875 20.8125 38.445312 Z M 16.1875 38.101562 C 16.042969 37.816406 15.984375 37.554688 16.023438 37.515625 C 16.0625 37.472656 16.730469 37.171875 17.519531 36.847656 L 18.953125 36.261719 L 19.09375 36.765625 C 19.238281 37.394531 19.214844 37.433594 17.660156 38.082031 L 16.40625 38.605469 Z M 20.085938 36.503906 C 20.003906 36.21875 19.984375 35.976562 20.023438 35.9375 C 20.066406 35.894531 23.945312 34.339844 28.652344 32.476562 C 35.625 29.746094 37.261719 29.160156 37.503906 29.363281 C 37.664062 29.503906 37.726562 29.664062 37.644531 29.765625 C 37.5625 29.847656 36.492188 30.3125 35.261719 30.816406 C 34.046875 31.324219 30.351562 32.839844 27.078125 34.195312 C 23.804688 35.550781 20.914062 36.746094 20.671875 36.847656 C 20.289062 36.988281 20.1875 36.949219 20.085938 36.503906 Z M 44.152344 34.480469 C 43.890625 33.851562 43.808594 33.792969 43.425781 33.996094 C 43.203125 34.136719 42.980469 34.195312 42.941406 34.15625 C 42.859375 34.09375 49.164062 31 72.945312 19.449219 C 91.941406 10.203125 90.992188 10.667969 90.890625 10.929688 C 90.828125 11.132812 82.242188 15.664062 60.621094 26.851562 C 55.570312 29.484375 49.890625 32.4375 48.03125 33.40625 C 46.171875 34.398438 44.597656 35.207031 44.554688 35.207031 C 44.496094 35.207031 44.332031 34.882812 44.152344 34.480469 Z M 20.003906 34.640625 C 20.003906 33.773438 20.710938 31.972656 21.5625 30.695312 C 23.519531 27.722656 26.875 26.144531 30.714844 26.367188 C 31.703125 26.429688 32.9375 26.628906 33.605469 26.875 C 35.097656 27.398438 36.675781 28.328125 36.433594 28.53125 C 36.269531 28.671875 20.328125 35.007812 20.125 35.007812 C 20.066406 35.007812 20.003906 34.84375 20.003906 34.640625 Z M 39.808594 34.398438 C 39.808594 33.953125 39.949219 33.730469 40.394531 33.507812 C 41.34375 33.003906 71.875 19.246094 72.339844 19.105469 C 73.066406 18.863281 68.742188 21.027344 59.710938 25.417969 C 54.375 27.984375 47.75 31.203125 45 32.558594 C 42.230469 33.914062 39.949219 35.007812 39.886719 35.007812 C 39.847656 35.007812 39.808594 34.742188 39.808594 34.398438 Z M 39.96875 32.273438 C 39.910156 31.992188 39.96875 31.6875 40.089844 31.585938 C 40.210938 31.484375 47.808594 28.207031 56.984375 24.285156 C 66.15625 20.359375 77.230469 15.625 81.617188 13.742188 C 86 11.863281 89.617188 10.363281 89.65625 10.40625 C 89.699219 10.445312 88.667969 10.953125 87.355469 11.539062 C 84.566406 12.773438 58.4375 24.507812 48.292969 29.078125 C 39.019531 33.265625 40.070312 32.863281 39.96875 32.273438 Z M 39.523438 30.414062 C 39.445312 30.230469 39.464844 30.007812 39.542969 29.929688 C 39.6875 29.808594 52.273438 24.605469 74.058594 15.6875 C 78.058594 14.046875 84.28125 11.476562 87.878906 10 C 91.476562 8.503906 94.46875 7.308594 94.507812 7.351562 C 94.527344 7.390625 90.140625 9.3125 84.707031 11.640625 C 50.050781 26.449219 39.929688 30.757812 39.808594 30.757812 C 39.707031 30.757812 39.585938 30.597656 39.523438 30.414062 Z M 38.714844 28.957031 C 38.394531 28.59375 37.90625 28.796875 61.628906 19.488281 C 66.582031 17.546875 73.472656 14.835938 76.96875 13.441406 C 80.441406 12.042969 83.332031 10.953125 83.375 10.992188 C 83.414062 11.011719 78.90625 12.894531 73.390625 15.179688 C 36.613281 30.273438 39.039062 29.300781 38.714844 28.957031 Z M 37.484375 27.519531 C 37.28125 27.296875 37.160156 27.117188 37.222656 27.117188 C 37.34375 27.117188 65.367188 16.878906 70.5 14.976562 C 71.996094 14.410156 73.25 13.984375 73.289062 14.027344 C 73.332031 14.085938 72.523438 14.429688 71.492188 14.835938 C 70.460938 15.21875 64.621094 17.527344 58.5 19.933594 C 43.625 25.800781 38.171875 27.925781 37.988281 27.925781 C 37.90625 27.925781 37.6875 27.742188 37.484375 27.519531 Z M 87.820312 21.472656 C 87.292969 20.886719 87.476562 19.996094 88.164062 19.753906 C 88.929688 19.46875 89.394531 19.792969 89.476562 20.664062 C 89.597656 21.753906 88.527344 22.261719 87.820312 21.472656 Z M 91.617188 19.53125 C 91.316406 19.0625 91.316406 18.984375 91.617188 18.519531 C 91.839844 18.175781 92.144531 18.011719 92.507812 18.011719 C 93.214844 18.011719 93.558594 18.335938 93.558594 19.023438 C 93.558594 19.710938 93.214844 20.035156 92.507812 20.035156 C 92.144531 20.035156 91.839844 19.875 91.617188 19.53125 Z M 85.394531 18.597656 C 83.777344 18.214844 83.617188 17.609375 85.132812 17.609375 C 88.082031 17.609375 90.585938 16.695312 91.496094 15.320312 C 91.980469 14.59375 92.042969 14.289062 92.101562 12.347656 L 92.183594 10.164062 L 94.34375 9.191406 C 95.515625 8.664062 96.628906 8.121094 96.789062 7.976562 C 97.296875 7.574219 98.003906 7.429688 98.003906 7.734375 C 97.984375 9.414062 97.03125 12.773438 96.105469 14.332031 C 94.910156 16.375 91.476562 18.152344 87.796875 18.617188 C 87.03125 18.71875 86.34375 18.800781 86.28125 18.800781 C 86.222656 18.78125 85.816406 18.699219 85.394531 18.597656 Z M 95.738281 18.195312 C 95.253906 17.910156 95.273438 16.960938 95.78125 16.496094 C 96.324219 15.988281 97.09375 16.230469 97.355469 16.980469 C 97.742188 18.050781 96.75 18.78125 95.738281 18.195312 Z M 90.324219 10.019531 C 90.605469 9.859375 90.929688 9.738281 91.03125 9.738281 C 91.152344 9.738281 91.011719 9.859375 90.730469 10.019531 C 90.445312 10.183594 90.140625 10.304688 90.019531 10.304688 C 89.921875 10.304688 90.042969 10.183594 90.324219 10.019531 Z M 77.191406 8.199219 C 77.191406 7.652344 77.917969 6.417969 78.644531 5.753906 C 79.65625 4.78125 80.867188 4.113281 82.523438 3.546875 C 85.476562 2.554688 91.558594 3 94.972656 4.476562 C 95.539062 4.71875 95.980469 4.964844 95.980469 5.042969 C 95.980469 5.105469 94.507812 5.691406 92.707031 6.339844 L 89.457031 7.511719 L 88.929688 7.007812 C 87.898438 6.015625 85.433594 5.265625 83.230469 5.265625 C 81.757812 5.265625 80.261719 5.953125 78.421875 7.492188 C 77.59375 8.179688 77.191406 8.402344 77.191406 8.199219 Z M 96.246094 7.128906 C 96.082031 6.84375 95.960938 6.824219 95.476562 7.046875 C 95.175781 7.1875 94.890625 7.269531 94.832031 7.230469 C 94.789062 7.1875 95.03125 7.027344 95.375 6.886719 C 95.859375 6.683594 95.960938 6.542969 95.859375 6.175781 C 95.761719 5.792969 95.902344 5.691406 96.890625 5.308594 C 98.304688 4.761719 98.546875 4.761719 98.8125 5.246094 C 99.175781 5.933594 99.035156 6.257812 98.203125 6.683594 C 96.75 7.429688 96.488281 7.492188 96.246094 7.128906 Z M 75.734375 5.246094 C 75.3125 5.003906 75.25 3.851562 75.613281 3.488281 C 75.753906 3.34375 76.058594 3.242188 76.300781 3.242188 C 77.292969 3.242188 77.753906 4.476562 77.027344 5.125 C 76.605469 5.507812 76.242188 5.550781 75.734375 5.246094 Z M 79.453125 3.40625 C 79.3125 3.265625 79.210938 2.917969 79.210938 2.636719 C 79.210938 1.96875 79.554688 1.625 80.222656 1.625 C 80.886719 1.625 81.230469 1.96875 81.230469 2.636719 C 81.230469 3.304688 80.886719 3.648438 80.222656 3.648438 C 79.9375 3.648438 79.59375 3.546875 79.453125 3.40625 Z M 83.65625 2.070312 C 83.253906 1.949219 82.847656 1.421875 82.847656 0.996094 C 82.847656 0.0078125 84.503906 -0.398438 84.910156 0.511719 C 85.3125 1.421875 84.566406 2.351562 83.65625 2.070312 Z M 83.65625 2.070312 "
  />
</svg>
