<svg id="root" xmlns="http://www.w3.org/2000/svg"
  style="transform:none;transform-origin:50% 50%;cursor:move;max-height:none" width="768" height="441"
  viewBox="0 0 7680 4410">
  <g>
    <path
      d="M3160 3353c-14-2-110-24-215-48-541-126-655-148-790-152-122-4-137-3-250 28-183 48-168 49-193-9-12-28-22-55-22-61 0-11 63-26 205-48 145-22 313-13 485 27 74 17 207 46 295 65 88 18 228 50 310 69 128 31 167 36 268 36 146 0 184-9 317-72 86-41 117-63 171-118 36-37 89-104 117-149 51-84 70-91 57-23-12 67-70 161-167 274-41 48-67 66-161 112-62 30-136 59-165 65-51 11-210 13-262 4z" />
    <path
      d="M3125 3183c-66-10-381-77-575-123-379-89-449-94-719-45-46 8-85 14-87 13-1-2 30-46 70-98 39-52 107-160 151-240 168-310 251-428 395-571 160-159 402-305 595-361 70-20 101-23 255-22 159 0 184 3 275 28 113 31 249 92 283 129l22 24-154 56-154 57-85-41c-71-34-99-42-165-46-99-7-201 14-302 63-156 74-299 272-300 414 0 22-10 29-85 58-77 31-86 32-101 18-25-26-100-21-129 9-14 13-25 31-25 40 0 24 62 170 130 305l60 120h39c28 0 49-8 71-27 30-25 32-30 27-72l-5-46 98-43 97-43 34 21c50 30 174 67 254 75 208 20 403-82 522-272 46-74 49-77 132-115 47-22 90-40 94-41 19-4 57 156 57 235 0 240-193 458-468 529-72 18-221 24-307 12zm58-131c57-57 40-166-30-193-61-23-155 21-168 79-9 44 15 103 55 130 47 32 101 25 143-16zm378-83c18-18 20-30 16-67-6-53-26-72-73-72-43 0-88 51-79 89 17 66 92 94 136 50zm173-170c55-43 21-149-48-149-50 0-76 31-76 90 0 39 4 52 22 64 31 22 70 20 102-5z" />
    <path
      d="M3030 3010c-27-27-25-73 4-107 19-22 32-28 64-28 78 0 117 71 71 129-17 22-28 26-70 26-36 0-54-5-69-20zm436-73c-12-9-17-23-14-42 2-23 10-31 35-39 58-16 89 45 41 78-27 19-39 20-62 3zm174-197c-16-29-3-59 27-66 37-10 58 7 58 47 0 32-2 34-37 37-29 2-39-1-48-18zm-1207 83c-68-147-113-259-113-282 0-43 89-58 114-18 23 36 156 335 156 351 0 22-40 46-78 46-32 0-34-3-79-97zm145-67-17-34 75-33 75-32 30 30 30 29-83 37c-46 21-86 37-89 37s-13-15-21-34zm425 24c-46-10-143-49-143-59 0-5 696-321 764-347 18-7 19-4 12 36-18 114-129 261-241 322-92 49-274 71-392 48zm-472-116c-15-33-12-36 65-67l60-24 16 28 16 27-61 27c-34 15-67 29-73 31-6 3-16-7-23-22zm251 3c-23-25-28-37-13-37 5 0 199-81 432-180 232-99 423-179 425-178 1 2 5 15 9 29 6 23 2 28-32 42-21 8-203 90-406 181-202 91-373 166-380 166-8 0-23-10-35-23zm-62-77c-6-12-10-26-8-31 2-6 199-91 438-189 390-160 436-177 448-162 6 9 12 18 12 21 0 4-760 335-871 379-4 2-13-6-19-18zm-229-17c-7-14-10-27-8-29s35-17 74-33l71-29 7 25c7 31 6 33-71 65l-62 26-11-25zm193-79c-4-14-5-26-3-28s194-79 427-171c345-135 426-164 438-154 8 7 11 15 7 20-4 4-57 27-118 52-60 25-243 100-405 167s-305 126-317 131c-19 7-24 5-29-17zm1191-100c-13-31-17-34-36-24-11 7-22 10-24 8-4-3 308-156 1485-727 940-457 893-434 888-421-3 10-428 234-1498 787-250 130-531 276-623 324-92 49-170 89-172 89-3 0-11-16-20-36zm-1195 8c0-43 35-132 77-195 97-147 263-225 453-214 49 3 110 13 143 25 74 26 152 72 140 82-8 7-797 320-807 320-3 0-6-8-6-18zm980-12c0-22 7-33 29-44 47-25 1558-705 1581-712 36-12-178 95-625 312-264 127-592 286-728 353-137 67-250 121-253 121-2 0-4-13-4-30zm8-105c-3-14 0-29 6-34s382-167 836-361 1002-428 1219-521 396-167 398-165-49 27-114 56c-138 61-1431 641-1933 867-459 207-407 187-412 158zm-22-92c-4-9-3-20 1-24 7-6 630-263 1708-704 198-81 506-208 684-281 178-74 326-133 328-131 1 2-216 97-485 212-1715 732-2216 945-2222 945-5 0-11-8-14-17zm-40-72c-16-18-40-8 1134-468 245-96 586-230 759-299 172-69 315-123 317-121 2 1-221 94-494 207-1820 746-1700 698-1716 681zm-61-71c-10-11-16-20-13-20 6 0 1393-506 1647-600 74-28 136-49 138-47 2 3-38 20-89 40-51 19-340 133-643 252-736 290-1006 395-1015 395-4 0-15-9-25-20zm2491-299c-26-29-17-73 17-85 38-14 61 2 65 45 6 54-47 79-82 40zm188-96c-15-23-15-27 0-50 11-17 26-25 44-25 35 0 52 16 52 50s-17 50-52 50c-18 0-33-8-44-25zm-308-46c-80-19-88-49-13-49 146 0 270-45 315-113 24-36 27-51 30-147l4-108 107-48c58-26 113-53 121-60 25-20 60-27 60-12-1 83-48 249-94 326-59 101-229 189-411 212-38 5-72 9-75 9-3-1-23-5-44-10zm512-20c-24-14-23-61 2-84 27-25 65-13 78 24 19 53-30 89-80 60zm-268-404c14-8 30-14 35-14 6 0-1 6-15 14s-29 14-35 14c-5 0 1-6 15-14zm-650-90c0-27 36-88 72-121 50-48 110-81 192-109 146-49 447-27 616 46 28 12 50 24 50 28 0 3-73 32-162 64l-161 58-26-25c-51-49-173-86-282-86-73 0-147 34-238 110-41 34-61 45-61 35zm943-53c-8-14-14-15-38-4-15 7-29 11-32 9-2-2 10-10 27-17 24-10 29-17 24-35-5-19 2-24 51-43 70-27 82-27 95-3 18 34 11 50-30 71-72 37-85 40-97 22zm-1015-93c-21-12-24-69-6-87 7-7 22-12 34-12 49 0 72 61 36 93-21 19-39 21-64 6zm184-91c-7-7-12-24-12-38 0-33 17-50 50-50s50 17 50 50-17 50-50 50c-14 0-31-5-38-12zm208-66c-20-6-40-32-40-53 0-49 82-69 102-24s-17 91-62 77z" />
  </g>
</svg>