<svg id="root" xmlns="http://www.w3.org/2000/svg"
  style="transform:matrix(1,0,0,1,0,0);transform-origin:50% 50%;cursor:move;transition:transform 200ms ease-in-out 0s"
  width="768" height="441" viewBox="0 0 7680 4410">
  <path
    d="M4194 3563c-76-52-163-128-163-142-1-8 7-23 17-34 16-19 16-20-5-34-13-9-23-20-23-26 0-5 44-54 97-108s95-101 92-103c-2-3-36-14-74-25-39-11-108-32-155-46-156-49-173-51-206-28-139 95-366 203-429 203-20 0-142-115-151-142-4-13 4-38 19-67l26-46-35-47c-19-26-52-60-75-75l-40-26-45 21c-24 12-51 22-60 22-20 0-122-96-140-133-14-27-13-48 6-92 5-11 16-43 25-71 9-29 28-72 44-95 15-24 45-73 66-109s46-74 56-85c17-20 17-24-12-135-17-63-41-157-54-209-13-51-27-96-30-99s-52 40-108 96-107 102-113 102c-7 0-18-10-27-23-14-21-15-21-34-5-11 10-23 18-28 18-12 0-101-98-135-149-17-25-31-54-31-65-5-65-4-134 1-153 8-34 667-692 715-714 64-30 85-26 199 31l39 20 54-51c43-41 58-50 76-44 12 4 32 7 45 6 121-7 121-7 149 21 21 21 29 41 33 80l5 53 220-4 221-3 31 26c18 15 37 41 42 59 15 44 102 130 123 122 9-4 19-13 22-21 5-14 37-29 168-83 98-39 118-40 118-3 0 20 17 45 66 95 37 37 72 68 78 68 6 1 20 2 31 3 27 1 31 38 10 82-8 18-27 64-41 101-14 38-36 79-48 93-13 14-26 32-29 41-6 20 73 101 123 127 18 9 42 29 53 44 22 30 24 96 11 338l-7 125 29 3c52 4 92 22 110 50 23 34 35 103 22 119-7 8-5 19 6 35 24 34 20 45-35 103l-50 53 21 43c45 86 52 119 38 172-11 44-37 73-357 395l-345 347-91 3c-85 3-92 2-131-25z" />
</svg>