<svg xmlns="http://www.w3.org/2000/svg" id="root" viewBox="0 0 100 100">
  <g>
    <path
      d="M 64.191406 99.035156 C 61.902344 97.613281 59.859375 95.835938 58.136719 93.769531 C 58.097656 93.472656 58.394531 92.914062 58.765625 92.507812 C 59.359375 91.800781 59.359375 91.765625 58.582031 91.246094 C 58.097656 90.914062 57.726562 90.503906 57.726562 90.28125 C 57.726562 90.097656 59.359375 88.277344 61.328125 86.277344 C 63.296875 84.273438 64.859375 82.53125 64.746094 82.457031 C 64.671875 82.34375 63.410156 81.9375 62 81.527344 L 56.242188 79.820312 C 50.445312 78.003906 49.8125 77.929688 48.589844 78.785156 C 43.425781 82.308594 34.992188 86.3125 32.652344 86.3125 C 31.910156 86.3125 27.378906 82.046875 27.042969 81.046875 C 26.894531 80.5625 27.191406 79.636719 27.75 78.5625 L 28.714844 76.855469 L 27.414062 75.109375 C 26.707031 74.148438 25.484375 72.886719 24.628906 72.328125 L 23.144531 71.363281 L 21.472656 72.144531 C 20.578125 72.589844 19.578125 72.960938 19.242188 72.960938 C 18.5 72.960938 14.710938 69.398438 14.042969 68.027344 C 13.523438 67.023438 13.558594 66.246094 14.265625 64.613281 C 14.449219 64.207031 14.859375 63.019531 15.191406 61.980469 C 15.527344 60.90625 16.234375 59.308594 16.828125 58.457031 L 19.28125 54.414062 C 20.058594 53.078125 20.988281 51.667969 21.359375 51.261719 C 21.992188 50.519531 21.992188 50.371094 20.914062 46.253906 L 18.90625 38.5 C 18.425781 36.609375 17.90625 34.941406 17.792969 34.828125 C 17.683594 34.71875 15.863281 36.3125 13.78125 38.390625 C 11.703125 40.46875 9.808594 42.171875 9.582031 42.171875 C 9.324219 42.171875 8.914062 41.800781 8.582031 41.320312 C 8.0625 40.542969 8.023438 40.542969 7.316406 41.136719 C 6.910156 41.507812 6.464844 41.800781 6.277344 41.800781 C 5.832031 41.800781 2.527344 38.167969 1.261719 36.277344 C 0.632812 35.347656 0.113281 34.273438 0.113281 33.863281 C -0.0742188 31.453125 -0.0390625 28.894531 0.148438 28.191406 C 0.445312 26.929688 24.925781 2.523438 26.707031 1.707031 C 29.085938 0.59375 29.867188 0.742188 34.101562 2.855469 L 35.550781 3.597656 L 37.554688 1.707031 C 39.152344 0.183594 39.710938 -0.148438 40.378906 0.0742188 C 40.824219 0.222656 41.566406 0.332031 42.050781 0.296875 C 46.546875 0.0351562 46.546875 0.0351562 47.585938 1.074219 C 48.367188 1.855469 48.664062 2.597656 48.8125 4.042969 L 48.996094 6.007812 L 57.167969 5.859375 L 65.378906 5.75 L 66.53125 6.714844 C 67.199219 7.269531 67.90625 8.234375 68.089844 8.902344 C 68.648438 10.535156 71.878906 13.722656 72.660156 13.425781 C 72.992188 13.277344 73.367188 12.945312 73.476562 12.648438 C 73.664062 12.128906 74.851562 11.574219 79.71875 9.570312 C 83.359375 8.125 84.101562 8.085938 84.101562 9.457031 C 84.101562 10.199219 84.734375 11.128906 86.554688 12.980469 C 87.925781 14.355469 89.226562 15.503906 89.449219 15.503906 L 90.601562 15.617188 C 91.605469 15.652344 91.753906 17.023438 90.972656 18.65625 L 89.449219 22.402344 C 88.929688 23.8125 88.113281 25.332031 87.667969 25.851562 C 87.183594 26.371094 86.703125 27.039062 86.589844 27.375 C 86.367188 28.117188 89.300781 31.121094 91.160156 32.085938 C 91.828125 32.417969 92.71875 33.160156 93.128906 33.714844 C 93.945312 34.828125 94.019531 37.277344 93.535156 46.253906 L 93.277344 50.890625 L 94.355469 51 C 96.285156 51.148438 97.769531 51.816406 98.441406 52.855469 C 99.292969 54.117188 99.738281 56.675781 99.257812 57.269531 C 98.996094 57.566406 99.070312 57.976562 99.480469 58.566406 C 100.371094 59.828125 100.222656 60.238281 98.179688 62.390625 L 96.324219 64.355469 L 97.101562 65.949219 C 98.773438 69.140625 99.035156 70.363281 98.515625 72.328125 C 98.105469 73.960938 97.140625 75.035156 85.253906 86.980469 L 72.4375 99.851562 L 69.054688 99.964844 C 65.898438 100.074219 65.640625 100.035156 64.191406 99.035156 Z M 64.191406 99.035156 "
    />
  </g>
</svg>
