<svg xmlns="http://www.w3.org/2000/svg" id="root" viewBox="1132.3 123.85 2027.7 1644.93">
  <path
    d="M1923 1734c-62-51-86-90-98-158-6-34-15-60-21-59-5 2-10 57-12 123-3 126-3 126-51 113-23-6-24-8-17-87 3-45 7-88 9-96 1-8-2-17-8-19-18-7-39 52-43 122-5 72-6 73-62 57-33-9-110-64-110-78 0-4 25-27 55-50 60-47 98-102 70-102-8 0-34 17-58 38-23 21-55 48-71 60l-29 23-29-27-28-27 49-31c103-65 151-101 151-113 0-19-11-16-66 13-41 22-58 25-104 21-30-3-74-13-97-22l-43-17 70-34c112-55 241-162 313-257 23-31 26-41 17-52-7-8-17-15-22-15-8 0-119-62-137-77-7-5 62-62 75-63 7 0 22-9 35-20 30-24 15-25-61-5-30 8-75 15-100 15-41 0-50-5-107-60-34-33-59-61-55-63 4-3 51-19 104-36 54-18 100-37 103-42 8-12-5-11-81 3-89 16-177-8-218-58-25-31-53-101-44-108 2-2 68-13 148-26s161-29 180-36c32-12 27-13-70-13-87-1-117-6-182-28l-78-28v-51c0-56-22-138-52-197-11-22-18-41-15-43 2-2 64 16 138 40 186 62 238 70 385 63 68-3 124-2 124 2 0 5-6 14-14 20-22 18-56 133-56 187 0 118 159 333 227 307 8-3 32-31 52-62 61-94 198-211 247-211 15 0 16 11 11 118-5 100-11 130-37 196-17 44-28 86-25 97 4 13 29 26 78 40 65 20 77 21 160 10 49-6 102-18 118-26 44-23 107-92 136-148l25-50 32 56c93 169 165 243 397 413l29 21-77 13c-75 12-159 45-195 77-16 14-22 12-70-23-83-59-98-74-150-154-38-56-48-68-44-45 4 17 13 44 21 60 43 91 115 247 115 251 0 2-18 8-39 15-114 34-203-31-274-201-20-49-20 8 1 78 11 37 23 82 27 101l7 34-38-7c-22-4-61-14-88-23-53-17-76-46-111-142-30-82-43-76-37 19 2 44 1 80-4 80s-44-18-88-41c-43-22-84-38-90-36-16 6-43 95-57 187-11 73-7 277 7 313 10 26-7 20-53-19z"
  ></path>
</svg>
