<svg xmlns="http://www.w3.org/2000/svg" id="root" viewBox="0 50 3330 1860">
  <g fill="#F1F6DE">
    <path
      d="M0 1885c0-18 5-25 20-25s20 7 20 25-5 25-20 25-20-7-20-25zm1853-500c13-13 113-15 711-15 613 0 696 2 696 15s-84 15-711 15c-624 0-708-2-696-15z" />
    <path
      d="M3272 1388c3-7 14-14 26-16l22-3V80h-791c-495 0-788 4-784 9 3 6 5 273 5 595 0 440 3 585 12 588 23 8-4 28-38 28-24 0-34-5-34-15 0-8 7-15 15-15 13 0 15-69 16-557 1-307 0-575-1-596-3-72-62-67 801-67 429 0 786 3 794 6 13 5 15 89 15 675v669h-31c-20 0-29-4-27-12z" />
    <path
      d="M2920 1320c0-7 49-10 140-9 77 0 140 5 140 10s-63 9-140 9c-90 0-140-4-140-10zm-340-55c0-13 40-15 298-15 274 0 352 6 307 24-9 3-149 6-311 6-255 0-294-2-294-15zm-485-83c-9-9 6-22 26-22 17 0 19-7 19-79v-79l40-4c22-2 47 0 57 3 11 4 0 8-30 10l-49 4-2 60c-1 33 0 66 2 73 3 8 34 12 107 12 90 0 104-2 108-17 4-17 5-17 6 0 1 13 10 17 46 17 44 0 45-1 46-32l1-33 7 30 6 30 103 3c100 3 102 2 103-20v-23l9 22c9 21 13 22 217 23 114 1 216 2 225 1 10 0 20 4 23 10 4 5-4 9-17 9l-182 6c-127 5-160 3-167-8-6-9-9-10-9-1 0 10-76 12-345 11-190-1-347-4-350-6z" />
    <path
      d="M2373 1075c0-27 2-38 4-22 2 15 2 37 0 50-2 12-4 0-4-28zm319-5c0-19 2-27 5-17 2 9 2 25 0 35-3 9-5 1-5-18zm301-5c0-22 2-30 4-17 2 12 2 30 0 40-3 9-5-1-4-23zm-300-70c0-22 2-30 4-17 2 12 2 30 0 40-3 9-5-1-4-23zm-378 15-60-7 63-1c36-1 62 2 62 8s-1 9-2 8l-63-8zm157-20c0-19 2-27 5-17 2 9 2 25 0 35-3 9-5 1-5-18zm520 0c0-19 2-27 5-17 2 9 2 25 0 35-3 9-5 1-5-18zm-519-95c0-27 2-38 4-22 2 15 2 37 0 50-2 12-4 0-4-28zm220-40c0-38 2-53 4-32 2 20 2 52 0 70-2 17-4 1-4-38zm-698-89c-52-24-93-64-121-119-12-21-15-50-12-101 3-63 7-77 36-113 71-90 197-118 300-67 29 14 50 30 46 35-3 5 1 9 9 9 17 0 56 86 63 137 10 84-60 194-144 227-59 22-118 20-177-8zm141-197c6-5 37-23 70-40 32-17 63-35 67-39 5-4-4-27-19-50-32-48-70-68-90-48-24 26-96 177-89 188s41 5 61-11zm427 194c15-2 37-2 50 0 12 2 0 4-28 4-27 0-38-2-22-4zm37-153c0-9 538-20 568-11 6 2 12 7 12 12s-126 9-290 9c-181 0-290-4-290-10zm-17-82c6-19 578-19 585 0 3 9-60 12-293 12s-296-3-292-12zm-133-77c0-16 118-21 405-17 340 5 315 4 315 16 0 6-127 10-360 10-213 0-360-4-360-9zm374-110c4-5 83-10 177-11 115 0 169 3 164 10-4 6-70 10-176 10-101 0-168-4-165-9zm-969-71c-7-11 97-18 270-19 147-1 215 5 215 20 0 11-478 11-485-1zm5-70c0-7 80-10 235-10 138 1 235 5 235 11 0 5-96 9-235 9-154 0-235-4-235-10zm-10-60c0-6 52-10 135-10s135 4 135 10-52 10-135 10-135-4-135-10z" />
  </g>
  <path fill="#E0E4B6"
    d="M2500 1870v-40H0v-70h264c222 0 265-2 269-15 4-8 12-71 19-140 6-69 16-125 21-125s7 18 5 40c-4 45 8 56 14 13 5-40-1-63-18-63-12 0-14-8-10-34 4-25 2-36-10-40-10-4-14-14-11-26 3-11 1-20-4-20-15 0-10-26 9-43 10-10 30-17 44-17 13 0 28-3 31-7 4-3 17-7 30-8 43-4 162-26 185-35 15-7 22-6 22 2 0 7 5 5 13-4 6-9 39-28 72-41l60-25 6-59c5-56-2-83-24-83-17 0-47-42-47-67 0-16-6-23-20-23-52 0-90-183-45-216 18-13 20-27 20-119 0-89 3-106 20-125 16-17 28-21 56-17 37 5 57-8 72-46 5-15 22-17 114-17a1250 1250 0 0 0 269-30c10 0 3 67-8 78-9 9-9 12 2 13 8 0 51 6 95 12 70 11 80 15 83 34 2 17-7 26-46 44-48 24-49 25-62 88-11 57-11 65 4 73 22 12 21 127-2 188-14 36-23 45-42 45s-26 8-32 35c-5 19-17 42-28 51-14 13-18 29-17 74l1 58 71 33c66 32 231 73 285 72 24-1 139 27 148 36 2 3-8 20-23 40l-26 35 3 174c3 154 5 177 22 196 18 20 24 20 352 14 263-5 336-4 349 7 11 9 15 31 15 76v64h-35c-34 0-35-1-35-40zm-1290-249v-110l-52-3-53-3v-110h53c60 0 66-18 6-23-55-5-66-17-62-73 3-45 2-48-25-52-17-2-62 10-113 30-47 19-144 47-217 62l-132 27 33 79c40 95 69 184 78 243l7 42h477v-109zm453 32c10-43 37-126 61-185l43-108h-33c-67 0-316-71-385-109-35-20-37-1-32 242l6 237h322l18-77zm-430-587c18-8 53-36 79-63 41-42 49-58 62-118 11-53 12-71 3-74-7-2-25-18-41-34-28-27-30-28-43-11-8 11-13 49-13 105 0 98-1 100-78 98-86-2-97-9-97-59v-45h80v-77c0-91 11-108 77-115 42-5 44-7 40-33s-7-28-58-32h-108l-55 4-6 66c-7 80-12 91-53 117-20 13-29 26-26 37 3 9 9 42 14 74 8 50 16 64 50 95 37 34 113 79 133 79 4 0 22-6 40-14zM984 590c4-38 3-50-4-40-9 13-15 109-6 99 2-2 6-29 10-59zm433-52c-24-15-30-7-23 30l7 62c1 15 7 3 15-30 10-42 10-56 1-62zm-85-44-4-24-117 7c-102 5-130 12-131 33 0 3 58 6 128 6l129 1-5-23z" />
  <path fill="#975C37"
    d="M773 1743a1073 1073 0 0 1-74-208c-10-44-26-105-34-135s-15-59-15-66c0-6 39-19 88-29 48-10 115-28 149-40l62-22 11 71c6 39 29 147 51 240 21 92 39 177 39 187 0 18-9 19-135 19-120 0-136-2-142-17zm560-5c5-26 59-212 87-306 11-34 24-89 31-121l11-59 42 17c22 10 89 29 149 42 59 13 107 27 107 31 0 30-59 203-103 300l-52 118h-139c-138 0-138 0-133-22z" />
  <g fill="#0F0E0C">
    <path
      d="M12 1898c-7-7-12-31-12-55v-43h2530v110H1277c-961 0-1256-3-1265-12zm563-155c4-10 10-67 13-126 3-67 8-105 14-99 16 16 70 227 60 237-3 3-25 5-50 5-38 0-43-2-37-17zm121-25c-10-60-38-149-79-246-20-46-39-97-42-113-7-31-10-30 86-33 23-1 26 5 68 179 11 44 36 117 55 162 19 44 32 84 29 87-4 3-30 6-58 6h-52l-7-42zm290-110c-20-84-43-193-52-243-8-49-17-92-20-96-2-4 24-21 59-38 55-26 68-29 99-20 20 5 63 10 96 12l59 2 7 95c3 52 6 173 6 268v172h-218l-36-152zm200-143c7-18-13-45-33-45-17 0-27 24-19 45 7 20 45 19 52 0zm-2-141c20-19 20-28 1-44-30-25-70 15-45 45 16 19 25 19 44-1zm106 309c0-71-3-192-7-269l-6-141 37-13c31-10 40-10 54 3 9 8 41 22 70 32 42 13 52 21 52 38 0 25-26 139-39 177-5 14-24 77-41 140-43 160-43 160-85 160h-35v-127zm285 105c4-13 27-68 52-123s57-140 72-190l26-90 44-3c43-3 43-3 37 25-4 15-28 79-53 142-24 63-52 147-61 188l-17 73h-53c-51 0-53-1-47-22zm143 17c-6-7 51-226 62-238 4-5 10 40 12 100 3 59 9 116 13 126 6 15 1 17-37 17-25 0-47-2-50-5zm-614-584c-45-12-54-19-54-47v-25l30 23c25 18 43 22 110 22s85-4 110-22l30-23v25c0 16-8 30-21 37-27 14-164 21-205 10z" />
    <path
      d="M1113 1089c-23-11-61-38-83-58-42-39-51-64-65-196-6-48-5-51 26-70 42-26 47-37 54-116l6-66 70-6c38-3 100-3 138 0l70 6 6 56c8 83 17 104 52 126 38 24 40 41 18 147-14 63-21 78-63 121-77 80-147 97-229 56zm124-157c8-5 12-35 12-89-1-95 10-123 48-123 20 0 24-3 16-11-14-14-67-3-83 16-13 16-17 66-10 135 5 43 4 45-23 48-16 2-34-2-42-8-15-13-33 6-19 20 18 17 82 24 101 12zm213-65c0-49 17-107 31-107 12 0 11 28-2 89-14 65-29 75-29 18zm-537 12c-17-38-27-119-15-119 22 0 33 31 30 87-3 53-4 56-15 32z" />
    <path
      d="M946 698c-7-66-8-146 0-174 5-19 11-21 44-17 36 5 41 3 59-28l20-33 108-2c59-2 132-9 161-17 52-15 65-10 37 13-39 32-6 57 86 67l62 6-31 26c-24 20-34 41-47 94-8 38-15 79-15 93 0 27-21 32-40 9-6-8-16-49-21-92-6-43-13-81-17-84-16-15-297-15-320-1-7 5-15 39-18 78-10 116-56 158-68 62z" />
  </g>
</svg>