<svg xmlns="http://www.w3.org/2000/svg" id="root" viewBox="0 0 100 56">
  <g>
    <path
      style="stroke: none; fill-rule: nonzero; fill: rgb(94.509804%, 96.470588%, 87.058824%); fill-opacity: 1"
      d="M 0 55.246094 C 0 54.707031 0.148438 54.496094 0.601562 54.496094 C 1.050781 54.496094 1.203125 54.707031 1.203125 55.246094 C 1.203125 55.789062 1.050781 56 0.601562 56 C 0.148438 56 0 55.789062 0 55.246094 Z M 55.644531 40.195312 C 56.035156 39.800781 59.039062 39.742188 76.996094 39.742188 C 95.40625 39.742188 97.898438 39.800781 97.898438 40.195312 C 97.898438 40.585938 95.375 40.644531 76.546875 40.644531 C 57.808594 40.644531 55.285156 40.585938 55.644531 40.195312 Z M 55.644531 40.195312 "
    />
    <path
      style="stroke: none; fill-rule: nonzero; fill: rgb(94.509804%, 96.470588%, 87.058824%); fill-opacity: 1"
      d="M 98.257812 40.285156 C 98.347656 40.074219 98.679688 39.863281 99.039062 39.800781 L 99.699219 39.710938 L 99.699219 0.902344 L 75.945312 0.902344 C 61.082031 0.902344 52.28125 1.023438 52.402344 1.175781 C 52.492188 1.355469 52.550781 9.394531 52.550781 19.089844 C 52.550781 32.335938 52.644531 36.699219 52.914062 36.792969 C 53.605469 37.03125 52.792969 37.632812 51.773438 37.632812 C 51.050781 37.632812 50.75 37.484375 50.75 37.183594 C 50.75 36.941406 50.960938 36.730469 51.203125 36.730469 C 51.589844 36.730469 51.652344 34.652344 51.683594 19.960938 C 51.710938 10.71875 51.683594 2.648438 51.652344 2.015625 C 51.5625 -0.152344 49.789062 0 75.707031 0 C 88.589844 0 99.308594 0.0898438 99.550781 0.179688 C 99.941406 0.332031 100 2.859375 100 20.503906 L 100 40.644531 L 99.070312 40.644531 C 98.46875 40.644531 98.199219 40.523438 98.257812 40.285156 Z M 98.257812 40.285156 "
    />
    <path
      style="stroke: none; fill-rule: nonzero; fill: rgb(94.509804%, 96.470588%, 87.058824%); fill-opacity: 1"
      d="M 87.6875 38.238281 C 87.6875 38.027344 89.160156 37.933594 91.890625 37.964844 C 94.203125 37.964844 96.097656 38.117188 96.097656 38.265625 C 96.097656 38.417969 94.203125 38.539062 91.890625 38.539062 C 89.1875 38.539062 87.6875 38.417969 87.6875 38.238281 Z M 77.476562 36.582031 C 77.476562 36.1875 78.679688 36.128906 86.425781 36.128906 C 94.65625 36.128906 96.996094 36.308594 95.644531 36.851562 C 95.375 36.941406 91.171875 37.03125 86.304688 37.03125 C 78.648438 37.03125 77.476562 36.972656 77.476562 36.582031 Z M 62.914062 34.082031 C 62.644531 33.8125 63.09375 33.417969 63.695312 33.417969 C 64.203125 33.417969 64.265625 33.207031 64.265625 31.039062 L 64.265625 28.664062 L 65.464844 28.542969 C 66.125 28.480469 66.875 28.542969 67.175781 28.632812 C 67.507812 28.753906 67.175781 28.875 66.277344 28.933594 L 64.804688 29.054688 L 64.746094 30.859375 C 64.714844 31.855469 64.746094 32.847656 64.804688 33.058594 C 64.894531 33.300781 65.824219 33.417969 68.019531 33.417969 C 70.722656 33.417969 71.140625 33.359375 71.261719 32.90625 C 71.382812 32.394531 71.410156 32.394531 71.441406 32.90625 C 71.472656 33.300781 71.742188 33.417969 72.824219 33.417969 C 74.144531 33.417969 74.175781 33.390625 74.203125 32.457031 L 74.234375 31.460938 L 74.445312 32.367188 L 74.625 33.269531 L 77.71875 33.359375 C 80.722656 33.449219 80.78125 33.417969 80.8125 32.757812 L 80.8125 32.066406 L 81.082031 32.726562 C 81.351562 33.359375 81.472656 33.390625 87.597656 33.417969 C 91.019531 33.449219 94.085938 33.480469 94.355469 33.449219 C 94.65625 33.449219 94.953125 33.570312 95.046875 33.75 C 95.164062 33.902344 94.925781 34.023438 94.535156 34.023438 L 89.070312 34.203125 C 85.253906 34.351562 84.265625 34.292969 84.054688 33.960938 C 83.875 33.691406 83.785156 33.660156 83.785156 33.929688 C 83.785156 34.230469 81.5 34.292969 73.421875 34.261719 C 67.71875 34.230469 63.003906 34.140625 62.914062 34.082031 Z M 62.914062 34.082031 "
    />
    <path
      style="stroke: none; fill-rule: nonzero; fill: rgb(94.509804%, 96.470588%, 87.058824%); fill-opacity: 1"
      d="M 71.261719 30.859375 C 71.261719 30.046875 71.320312 29.714844 71.382812 30.199219 C 71.441406 30.648438 71.441406 31.3125 71.382812 31.703125 C 71.320312 32.066406 71.261719 31.703125 71.261719 30.859375 Z M 80.839844 30.710938 C 80.839844 30.136719 80.902344 29.898438 80.992188 30.199219 C 81.050781 30.46875 81.050781 30.949219 80.992188 31.25 C 80.902344 31.523438 80.839844 31.28125 80.839844 30.710938 Z M 89.878906 30.558594 C 89.878906 29.898438 89.941406 29.65625 90 30.046875 C 90.058594 30.410156 90.058594 30.949219 90 31.25 C 89.910156 31.523438 89.851562 31.222656 89.878906 30.558594 Z M 80.871094 28.453125 C 80.871094 27.789062 80.929688 27.546875 80.992188 27.941406 C 81.050781 28.300781 81.050781 28.84375 80.992188 29.144531 C 80.902344 29.414062 80.839844 29.113281 80.871094 28.453125 Z M 69.519531 28.902344 L 67.71875 28.691406 L 69.609375 28.664062 C 70.691406 28.632812 71.472656 28.722656 71.472656 28.902344 C 71.472656 29.082031 71.441406 29.175781 71.410156 29.144531 Z M 74.234375 28.300781 C 74.234375 27.730469 74.292969 27.488281 74.382812 27.789062 C 74.445312 28.058594 74.445312 28.542969 74.382812 28.84375 C 74.292969 29.113281 74.234375 28.875 74.234375 28.300781 Z M 89.851562 28.300781 C 89.851562 27.730469 89.910156 27.488281 90 27.789062 C 90.058594 28.058594 90.058594 28.542969 90 28.84375 C 89.910156 29.113281 89.851562 28.875 89.851562 28.300781 Z M 74.265625 25.441406 C 74.265625 24.628906 74.324219 24.296875 74.382812 24.777344 C 74.445312 25.230469 74.445312 25.890625 74.382812 26.285156 C 74.324219 26.644531 74.265625 26.285156 74.265625 25.441406 Z M 80.871094 24.238281 C 80.871094 23.09375 80.929688 22.640625 80.992188 23.273438 C 81.050781 23.875 81.050781 24.839844 80.992188 25.378906 C 80.929688 25.890625 80.871094 25.410156 80.871094 24.238281 Z M 59.910156 21.558594 C 58.347656 20.835938 57.117188 19.628906 56.277344 17.972656 C 55.914062 17.34375 55.824219 16.46875 55.914062 14.933594 C 56.007812 13.035156 56.125 12.613281 56.996094 11.53125 C 59.128906 8.820312 62.914062 7.976562 66.007812 9.515625 C 66.875 9.933594 67.507812 10.417969 67.386719 10.566406 C 67.296875 10.71875 67.417969 10.839844 67.65625 10.839844 C 68.167969 10.839844 69.339844 13.429688 69.550781 14.964844 C 69.851562 17.492188 67.746094 20.804688 65.226562 21.796875 C 63.453125 22.460938 61.683594 22.398438 59.910156 21.558594 Z M 64.144531 15.625 C 64.324219 15.476562 65.253906 14.933594 66.246094 14.421875 C 67.207031 13.910156 68.136719 13.367188 68.257812 13.246094 C 68.410156 13.125 68.136719 12.433594 67.6875 11.742188 C 66.726562 10.296875 65.585938 9.695312 64.984375 10.296875 C 64.265625 11.078125 62.101562 15.625 62.3125 15.957031 C 62.523438 16.289062 63.542969 16.109375 64.144531 15.625 Z M 76.96875 21.464844 C 77.417969 21.40625 78.078125 21.40625 78.46875 21.464844 C 78.828125 21.527344 78.46875 21.585938 77.628906 21.585938 C 76.816406 21.585938 76.488281 21.527344 76.96875 21.464844 Z M 78.078125 16.859375 C 78.078125 16.589844 94.234375 16.257812 95.136719 16.527344 C 95.316406 16.589844 95.496094 16.738281 95.496094 16.890625 C 95.496094 17.039062 91.710938 17.160156 86.785156 17.160156 C 81.351562 17.160156 78.078125 17.039062 78.078125 16.859375 Z M 77.566406 14.390625 C 77.746094 13.820312 94.925781 13.820312 95.136719 14.390625 C 95.226562 14.664062 93.332031 14.753906 86.335938 14.753906 C 79.339844 14.753906 77.449219 14.664062 77.566406 14.390625 Z M 73.574219 12.074219 C 73.574219 11.589844 77.117188 11.441406 85.734375 11.5625 C 95.945312 11.710938 95.195312 11.683594 95.195312 12.042969 C 95.195312 12.222656 91.382812 12.34375 84.382812 12.34375 C 77.988281 12.34375 73.574219 12.222656 73.574219 12.074219 Z M 84.804688 8.761719 C 84.925781 8.609375 87.296875 8.460938 90.121094 8.429688 C 93.574219 8.429688 95.195312 8.519531 95.046875 8.730469 C 94.925781 8.910156 92.941406 9.03125 89.757812 9.03125 C 86.726562 9.03125 84.714844 8.910156 84.804688 8.761719 Z M 55.707031 6.625 C 55.496094 6.292969 58.617188 6.082031 63.8125 6.050781 C 68.226562 6.023438 70.269531 6.203125 70.269531 6.652344 C 70.269531 6.984375 55.914062 6.984375 55.707031 6.625 Z M 55.855469 4.515625 C 55.855469 4.304688 58.257812 4.214844 62.914062 4.214844 C 67.058594 4.246094 69.96875 4.367188 69.96875 4.546875 C 69.96875 4.695312 67.085938 4.816406 62.914062 4.816406 C 58.289062 4.816406 55.855469 4.695312 55.855469 4.515625 Z M 55.554688 2.710938 C 55.554688 2.527344 57.117188 2.410156 59.609375 2.410156 C 62.101562 2.410156 63.664062 2.527344 63.664062 2.710938 C 63.664062 2.890625 62.101562 3.011719 59.609375 3.011719 C 57.117188 3.011719 55.554688 2.890625 55.554688 2.710938 Z M 55.554688 2.710938 "
    />
    <path
      style="stroke: none; fill-rule: nonzero; fill: rgb(87.843137%, 89.411765%, 71.372549%); fill-opacity: 1"
      d="M 75.074219 54.796875 L 75.074219 53.589844 L 0 53.589844 L 0 51.484375 L 7.929688 51.484375 C 14.59375 51.484375 15.886719 51.421875 16.007812 51.03125 C 16.125 50.792969 16.367188 48.894531 16.578125 46.816406 C 16.757812 44.738281 17.058594 43.054688 17.207031 43.054688 C 17.355469 43.054688 17.417969 43.59375 17.355469 44.257812 C 17.238281 45.613281 17.597656 45.945312 17.777344 44.648438 C 17.929688 43.445312 17.746094 42.753906 17.238281 42.753906 C 16.875 42.753906 16.816406 42.511719 16.9375 41.730469 C 17.058594 40.976562 16.996094 40.644531 16.636719 40.523438 C 16.335938 40.40625 16.214844 40.101562 16.304688 39.742188 C 16.394531 39.410156 16.335938 39.140625 16.1875 39.140625 C 15.734375 39.140625 15.886719 38.355469 16.457031 37.84375 C 16.757812 37.542969 17.355469 37.332031 17.777344 37.332031 C 18.167969 37.332031 18.617188 37.242188 18.707031 37.121094 C 18.828125 37.03125 19.21875 36.910156 19.609375 36.882812 C 20.902344 36.761719 24.472656 36.097656 25.164062 35.828125 C 25.617188 35.617188 25.824219 35.648438 25.824219 35.886719 C 25.824219 36.097656 25.976562 36.039062 26.214844 35.769531 C 26.394531 35.496094 27.386719 34.925781 28.378906 34.535156 L 30.179688 33.78125 L 30.359375 32.003906 C 30.511719 30.316406 30.300781 29.503906 29.640625 29.503906 C 29.128906 29.503906 28.226562 28.242188 28.226562 27.488281 C 28.226562 27.007812 28.046875 26.796875 27.628906 26.796875 C 26.066406 26.796875 24.925781 21.285156 26.277344 20.292969 C 26.816406 19.902344 26.875 19.480469 26.875 16.710938 C 26.875 14.03125 26.96875 13.519531 27.476562 12.945312 C 27.957031 12.433594 28.316406 12.3125 29.160156 12.433594 C 30.269531 12.585938 30.871094 12.195312 31.320312 11.050781 C 31.472656 10.597656 31.980469 10.539062 34.746094 10.539062 C 37.460938 10.53125 40.171875 10.226562 42.824219 9.632812 C 43.125 9.632812 42.914062 11.652344 42.582031 11.984375 C 42.3125 12.253906 42.3125 12.34375 42.644531 12.375 C 42.882812 12.375 44.175781 12.554688 45.496094 12.734375 C 47.597656 13.066406 47.898438 13.1875 47.988281 13.757812 C 48.046875 14.269531 47.777344 14.542969 46.605469 15.082031 C 45.164062 15.804688 45.136719 15.835938 44.746094 17.734375 C 44.414062 19.449219 44.414062 19.691406 44.863281 19.929688 C 45.527344 20.292969 45.496094 23.753906 44.804688 25.589844 C 44.382812 26.675781 44.113281 26.945312 43.542969 26.945312 C 42.972656 26.945312 42.761719 27.1875 42.582031 28 C 42.433594 28.570312 42.070312 29.265625 41.742188 29.535156 C 41.320312 29.925781 41.203125 30.410156 41.230469 31.761719 L 41.261719 33.507812 L 43.394531 34.503906 C 45.375 35.464844 50.332031 36.699219 51.953125 36.671875 C 52.671875 36.640625 56.125 37.484375 56.394531 37.753906 C 56.457031 37.84375 56.15625 38.355469 55.707031 38.960938 L 54.925781 40.011719 L 55.015625 45.25 C 55.105469 49.886719 55.164062 50.582031 55.675781 51.152344 C 56.214844 51.753906 56.394531 51.753906 66.246094 51.574219 C 74.144531 51.421875 76.335938 51.453125 76.726562 51.785156 C 77.058594 52.054688 77.175781 52.71875 77.175781 54.074219 L 77.175781 56 L 76.125 56 C 75.105469 56 75.074219 55.96875 75.074219 54.796875 Z M 36.335938 47.300781 L 36.335938 43.988281 L 34.773438 43.898438 L 33.183594 43.804688 L 33.183594 40.496094 L 34.773438 40.496094 C 36.578125 40.496094 36.757812 39.953125 34.953125 39.800781 C 33.304688 39.652344 32.972656 39.289062 33.09375 37.605469 C 33.183594 36.25 33.152344 36.160156 32.34375 36.039062 C 31.832031 35.976562 30.480469 36.339844 28.949219 36.941406 C 27.539062 37.515625 24.625 38.355469 22.433594 38.808594 L 18.46875 39.621094 L 19.460938 42 C 20.660156 44.859375 21.53125 47.539062 21.800781 49.316406 L 22.011719 50.582031 L 36.335938 50.582031 Z M 49.941406 48.261719 C 50.242188 46.96875 51.050781 44.46875 51.773438 42.691406 L 53.0625 39.441406 L 52.070312 39.441406 C 50.058594 39.441406 42.582031 37.304688 40.511719 36.160156 C 39.460938 35.558594 39.398438 36.128906 39.550781 43.445312 L 39.730469 50.582031 L 49.398438 50.582031 Z M 37.027344 30.589844 C 37.566406 30.347656 38.617188 29.503906 39.398438 28.691406 C 40.628906 27.429688 40.871094 26.945312 41.261719 25.140625 C 41.589844 23.542969 41.621094 23.003906 41.351562 22.910156 C 41.140625 22.851562 40.601562 22.371094 40.121094 21.886719 C 39.277344 21.074219 39.21875 21.046875 38.828125 21.558594 C 38.589844 21.886719 38.4375 23.03125 38.4375 24.71875 C 38.4375 27.667969 38.410156 27.730469 36.097656 27.667969 C 33.511719 27.609375 33.183594 27.398438 33.183594 25.890625 L 33.183594 24.539062 L 35.585938 24.539062 L 35.585938 22.21875 C 35.585938 19.480469 35.914062 18.96875 37.898438 18.757812 C 39.160156 18.605469 39.21875 18.546875 39.097656 17.761719 C 38.980469 16.980469 38.890625 16.921875 37.355469 16.800781 L 34.113281 16.800781 L 32.460938 16.921875 L 32.28125 18.90625 C 32.070312 21.316406 31.921875 21.648438 30.691406 22.429688 C 30.089844 22.820312 29.820312 23.214844 29.910156 23.542969 C 30 23.816406 30.179688 24.808594 30.332031 25.773438 C 30.570312 27.277344 30.8125 27.699219 31.832031 28.632812 C 32.941406 29.65625 35.226562 31.011719 35.824219 31.011719 C 35.945312 31.011719 36.488281 30.832031 37.027344 30.589844 Z M 29.550781 16.257812 C 29.667969 15.113281 29.640625 14.753906 29.429688 15.054688 C 29.160156 15.445312 28.980469 18.335938 29.25 18.035156 C 29.308594 17.972656 29.429688 17.160156 29.550781 16.257812 Z M 42.550781 14.691406 C 41.832031 14.242188 41.652344 14.480469 41.863281 15.59375 L 42.070312 17.460938 C 42.101562 17.914062 42.28125 17.550781 42.523438 16.558594 C 42.824219 15.292969 42.824219 14.875 42.550781 14.691406 Z M 40 13.367188 L 39.878906 12.644531 L 36.367188 12.855469 C 33.304688 13.007812 32.460938 13.21875 32.433594 13.847656 C 32.433594 13.941406 34.175781 14.03125 36.277344 14.03125 L 40.148438 14.058594 Z M 40 13.367188 "
    />
    <path
      style="stroke: none; fill-rule: nonzero; fill: rgb(59.215686%, 36.078431%, 21.568627%); fill-opacity: 1"
      d="M 23.214844 50.972656 C 22.257812 48.964844 21.515625 46.867188 20.992188 44.710938 C 20.691406 43.386719 20.210938 41.546875 19.96875 40.644531 C 19.730469 39.742188 19.519531 38.867188 19.519531 38.65625 C 19.519531 38.476562 20.691406 38.085938 22.164062 37.785156 C 23.605469 37.484375 25.617188 36.941406 26.636719 36.582031 L 28.5 35.917969 L 28.828125 38.054688 C 29.007812 39.230469 29.699219 42.480469 30.359375 45.28125 C 30.992188 48.050781 31.53125 50.609375 31.53125 50.910156 C 31.53125 51.453125 31.261719 51.484375 27.476562 51.484375 C 23.875 51.484375 23.394531 51.421875 23.214844 50.972656 Z M 40.03125 50.820312 C 40.179688 50.039062 41.800781 44.4375 42.644531 41.609375 C 42.972656 40.585938 43.363281 38.929688 43.574219 37.964844 L 43.902344 36.1875 L 45.164062 36.699219 C 45.824219 37.003906 47.835938 37.574219 49.640625 37.964844 C 51.410156 38.355469 52.851562 38.777344 52.851562 38.898438 C 52.851562 39.800781 51.082031 45.011719 49.757812 47.929688 L 48.199219 51.484375 L 44.023438 51.484375 C 39.878906 51.484375 39.878906 51.484375 40.03125 50.820312 Z M 40.03125 50.820312 "
    />
    <path
      style="stroke: none; fill-rule: nonzero; fill: rgb(5.882353%, 5.490196%, 4.705882%); fill-opacity: 1"
      d="M 0.359375 55.640625 C 0.148438 55.429688 0 54.707031 0 53.984375 L 0 52.6875 L 75.976562 52.6875 L 75.976562 56 L 38.347656 56 C 9.488281 56 0.628906 55.910156 0.359375 55.640625 Z M 17.265625 50.972656 C 17.386719 50.671875 17.566406 48.953125 17.65625 47.179688 C 17.746094 45.160156 17.898438 44.015625 18.078125 44.199219 C 18.558594 44.679688 20.179688 51.03125 19.878906 51.332031 C 19.789062 51.421875 19.128906 51.484375 18.378906 51.484375 C 17.238281 51.484375 17.085938 51.421875 17.265625 50.972656 Z M 20.902344 50.21875 C 20.601562 48.414062 19.757812 45.734375 18.527344 42.8125 C 17.929688 41.429688 17.355469 39.890625 17.265625 39.410156 C 17.058594 38.476562 16.96875 38.507812 19.851562 38.417969 C 20.539062 38.386719 20.628906 38.566406 21.890625 43.804688 C 22.222656 45.132812 22.972656 47.328125 23.542969 48.683594 C 24.113281 50.007812 24.503906 51.214844 24.414062 51.304688 C 24.292969 51.394531 23.511719 51.484375 22.671875 51.484375 L 21.109375 51.484375 Z M 29.609375 46.90625 C 29.007812 44.378906 28.316406 41.097656 28.046875 39.589844 C 27.808594 38.117188 27.539062 36.820312 27.449219 36.699219 C 27.386719 36.582031 28.167969 36.070312 29.21875 35.558594 C 30.871094 34.773438 31.261719 34.683594 32.191406 34.953125 C 32.792969 35.105469 34.085938 35.257812 35.074219 35.316406 L 36.847656 35.375 L 37.058594 38.238281 C 37.148438 39.800781 37.238281 43.445312 37.238281 46.304688 L 37.238281 51.484375 L 30.691406 51.484375 Z M 35.617188 42.601562 C 35.824219 42.058594 35.226562 41.246094 34.625 41.246094 C 34.113281 41.246094 33.8125 41.96875 34.054688 42.601562 C 34.265625 43.203125 35.40625 43.175781 35.617188 42.601562 Z M 35.554688 38.355469 C 36.15625 37.785156 36.15625 37.515625 35.585938 37.03125 C 34.683594 36.28125 33.484375 37.484375 34.234375 38.386719 C 34.714844 38.960938 34.984375 38.960938 35.554688 38.355469 Z M 38.738281 47.660156 C 38.738281 45.523438 38.648438 41.878906 38.527344 39.5625 L 38.347656 35.316406 L 39.460938 34.925781 C 40.390625 34.625 40.660156 34.625 41.082031 35.015625 C 41.351562 35.257812 42.3125 35.675781 43.183594 35.976562 C 44.445312 36.371094 44.746094 36.609375 44.746094 37.121094 C 44.746094 37.875 43.964844 41.308594 43.574219 42.453125 C 43.421875 42.875 42.851562 44.769531 42.34375 46.667969 C 41.050781 51.484375 41.050781 51.484375 39.789062 51.484375 L 38.738281 51.484375 Z M 47.296875 50.820312 C 47.417969 50.429688 48.109375 48.773438 48.859375 47.117188 C 49.609375 45.460938 50.570312 42.902344 51.019531 41.398438 L 51.800781 38.6875 L 53.125 38.597656 C 54.414062 38.507812 54.414062 38.507812 54.234375 39.351562 C 54.113281 39.800781 53.394531 41.730469 52.644531 43.625 C 51.921875 45.523438 51.082031 48.050781 50.8125 49.285156 L 50.300781 51.484375 L 48.707031 51.484375 C 47.175781 51.484375 47.117188 51.453125 47.296875 50.820312 Z M 51.589844 51.332031 C 51.410156 51.121094 53.125 44.527344 53.453125 44.167969 C 53.574219 44.015625 53.753906 45.371094 53.8125 47.179688 C 53.902344 48.953125 54.085938 50.671875 54.203125 50.972656 C 54.382812 51.421875 54.234375 51.484375 53.09375 51.484375 C 52.34375 51.484375 51.683594 51.421875 51.589844 51.332031 Z M 33.152344 33.75 C 31.800781 33.390625 31.53125 33.179688 31.53125 32.335938 L 31.53125 31.582031 L 32.433594 32.273438 C 33.183594 32.816406 33.722656 32.9375 35.734375 32.9375 C 37.746094 32.9375 38.289062 32.816406 39.039062 32.273438 L 39.941406 31.582031 L 39.941406 32.335938 C 39.941406 32.816406 39.699219 33.238281 39.308594 33.449219 C 38.5 33.871094 34.382812 34.082031 33.152344 33.75 Z M 33.152344 33.75 "
    />
    <path
      style="stroke: none; fill-rule: nonzero; fill: rgb(5.882353%, 5.490196%, 4.705882%); fill-opacity: 1"
      d="M 33.421875 31.28125 C 32.734375 30.949219 31.589844 30.136719 30.929688 29.535156 C 29.667969 28.359375 29.398438 27.609375 28.980469 23.632812 C 28.796875 22.1875 28.828125 22.097656 29.757812 21.527344 C 31.019531 20.742188 31.171875 20.414062 31.382812 18.035156 L 31.5625 16.046875 L 33.664062 15.867188 C 34.804688 15.777344 36.667969 15.777344 37.808594 15.867188 L 39.910156 16.046875 L 40.089844 17.734375 C 40.332031 20.230469 40.601562 20.863281 41.652344 21.527344 C 42.792969 22.25 42.851562 22.761719 42.191406 25.953125 C 41.773438 27.847656 41.5625 28.300781 40.300781 29.59375 C 37.988281 32.003906 35.886719 32.515625 33.421875 31.28125 Z M 37.148438 26.554688 C 37.386719 26.40625 37.507812 25.5 37.507812 23.875 C 37.476562 21.015625 37.808594 20.171875 38.949219 20.171875 C 39.550781 20.171875 39.667969 20.082031 39.429688 19.839844 C 39.007812 19.417969 37.417969 19.75 36.9375 20.324219 C 36.546875 20.804688 36.425781 22.308594 36.636719 24.386719 C 36.785156 25.683594 36.757812 25.742188 35.945312 25.832031 C 35.464844 25.890625 34.925781 25.773438 34.683594 25.589844 C 34.234375 25.199219 33.695312 25.773438 34.113281 26.195312 C 34.65625 26.707031 36.578125 26.917969 37.148438 26.554688 Z M 43.542969 24.597656 C 43.542969 23.121094 44.054688 21.375 44.472656 21.375 C 44.835938 21.375 44.804688 22.21875 44.414062 24.054688 C 43.992188 26.011719 43.542969 26.3125 43.542969 24.597656 Z M 27.417969 24.960938 C 26.90625 23.816406 26.605469 21.375 26.96875 21.375 C 27.628906 21.375 27.957031 22.308594 27.867188 23.996094 C 27.777344 25.589844 27.746094 25.683594 27.417969 24.960938 Z M 27.417969 24.960938 "
    />
    <path
      style="stroke: none; fill-rule: nonzero; fill: rgb(5.882353%, 5.490196%, 4.705882%); fill-opacity: 1"
      d="M 28.410156 19.507812 C 28.199219 17.523438 28.167969 15.113281 28.410156 14.269531 C 28.558594 13.699219 28.738281 13.640625 29.730469 13.757812 C 30.8125 13.910156 30.960938 13.847656 31.5 12.917969 L 32.101562 11.921875 L 35.34375 11.863281 C 37.117188 11.800781 39.308594 11.589844 40.179688 11.351562 C 41.742188 10.898438 42.132812 11.050781 41.292969 11.742188 C 40.121094 12.707031 41.109375 13.457031 43.875 13.757812 L 45.734375 13.941406 L 44.804688 14.722656 C 44.085938 15.324219 43.785156 15.957031 43.394531 17.550781 C 43.152344 18.695312 42.941406 19.929688 42.941406 20.351562 C 42.941406 21.164062 42.3125 21.316406 41.742188 20.625 C 41.5625 20.382812 41.261719 19.148438 41.109375 17.855469 C 40.929688 16.558594 40.722656 15.414062 40.601562 15.324219 C 40.121094 14.875 31.683594 14.875 30.992188 15.292969 C 30.78125 15.445312 30.539062 16.46875 30.449219 17.644531 C 30.148438 21.136719 28.769531 22.398438 28.410156 19.507812 Z M 28.410156 19.507812 "
    />
  </g>
</svg>
