<svg xmlns="http://www.w3.org/2000/svg" id="root" viewBox="0 0 100 125">
  <path
    d="M 56.589844 124.566406 C 56.21875 124.351562 55.480469 123.925781 54.9375 123.636719 C 53.25 122.742188 51.640625 121.832031 51.445312 121.695312 C 51.269531 121.558594 50.863281 121.328125 49.078125 120.320312 C 48.671875 120.105469 48.261719 119.835938 48.167969 119.738281 C 48.050781 119.640625 47.816406 119.5625 47.625 119.5625 C 47.429688 119.5625 47.273438 119.484375 47.273438 119.40625 C 47.273438 119.3125 46.925781 119.078125 46.496094 118.882812 C 46.070312 118.691406 45.625 118.417969 45.507812 118.261719 C 45.390625 118.128906 45.179688 118.011719 45.023438 118.011719 C 44.886719 118.011719 44.382812 117.757812 43.917969 117.429688 C 43.429688 117.121094 42.964844 116.847656 42.867188 116.847656 C 42.65625 116.847656 42.210938 115.9375 41.644531 114.421875 C 41.570312 114.210938 41.414062 113.824219 41.296875 113.550781 C 41.179688 113.28125 41.042969 112.464844 40.96875 111.707031 C 40.617188 107.617188 40.441406 105 40.441406 104.046875 C 40.441406 102.207031 40.851562 93.90625 40.96875 93.1875 C 41.101562 92.488281 41.140625 92.335938 41.820312 90.820312 C 42.054688 90.316406 42.230469 89.753906 42.230469 89.601562 C 42.230469 89.445312 42.304688 89.308594 42.382812 89.308594 C 42.480469 89.308594 42.675781 88.882812 42.8125 88.339844 C 42.945312 87.816406 43.140625 87.371094 43.238281 87.371094 C 43.316406 87.371094 43.394531 87.214844 43.394531 87.019531 C 43.394531 86.613281 44.1875 85.835938 45.914062 84.578125 C 46.613281 84.074219 47.3125 83.550781 47.46875 83.414062 C 48.011719 82.988281 49.503906 82.035156 50.085938 81.746094 C 50.417969 81.589844 50.707031 81.414062 50.765625 81.359375 C 50.824219 81.300781 51.25 81.066406 51.738281 80.816406 C 53.132812 80.078125 54.164062 79.515625 54.257812 79.417969 C 54.316406 79.359375 54.878906 79.050781 55.519531 78.71875 C 57.828125 77.519531 58.429688 77.1875 58.488281 77.050781 C 58.527344 76.957031 58.644531 76.898438 58.742188 76.898438 C 58.917969 76.898438 62.972656 74.257812 63.1875 74.007812 C 63.242188 73.949219 63.417969 73.8125 63.59375 73.695312 C 63.769531 73.601562 64.757812 72.921875 65.785156 72.203125 C 67.609375 70.980469 68.308594 70.226562 69.6875 67.996094 C 69.804688 67.820312 69.917969 67.644531 69.996094 67.589844 C 70.054688 67.53125 70.480469 66.929688 70.96875 66.230469 C 71.433594 65.53125 71.859375 64.929688 71.917969 64.871094 C 72.402344 64.425781 73.664062 62.253906 73.664062 61.867188 C 73.664062 61.691406 73.761719 61.402344 73.859375 61.1875 C 73.976562 60.976562 74.148438 60.625 74.246094 60.414062 C 74.363281 60.199219 74.441406 59.890625 74.441406 59.734375 C 74.441406 59.578125 74.539062 59.269531 74.632812 59.054688 C 74.75 58.839844 74.925781 58.492188 75.023438 58.277344 C 75.140625 58.066406 75.21875 57.753906 75.21875 57.601562 C 75.21875 57.445312 75.3125 57.136719 75.410156 56.921875 C 75.527344 56.707031 75.703125 56.359375 75.800781 56.144531 C 75.914062 55.933594 75.992188 55.582031 75.992188 55.390625 C 75.992188 55.175781 76.070312 54.960938 76.148438 54.90625 C 76.226562 54.847656 76.421875 54.363281 76.574219 53.820312 C 76.730469 53.277344 76.925781 52.789062 77.003906 52.734375 C 77.078125 52.675781 77.15625 52.460938 77.15625 52.246094 C 77.15625 52.054688 77.234375 51.722656 77.332031 51.53125 C 78.011719 50.210938 78.03125 49.980469 78.339844 43.832031 C 78.632812 38.457031 78.671875 28.394531 78.4375 24.59375 C 78.261719 21.703125 78.28125 21.585938 79.058594 21.992188 C 79.234375 22.089844 79.699219 22.304688 80.066406 22.460938 C 81.039062 22.867188 82.183594 23.351562 83.132812 23.777344 C 83.582031 23.972656 84.316406 24.320312 84.785156 24.515625 C 85.230469 24.707031 85.929688 25.019531 86.316406 25.195312 C 86.722656 25.367188 87.382812 25.640625 87.773438 25.8125 C 88.898438 26.300781 90.21875 26.882812 90.585938 27.074219 C 90.78125 27.171875 91.070312 27.25 91.226562 27.25 C 91.382812 27.25 91.515625 27.347656 91.515625 27.441406 C 91.515625 27.558594 91.652344 27.636719 91.808594 27.636719 C 92.253906 27.636719 92.875 28.023438 93.808594 28.898438 C 94.582031 29.617188 94.621094 29.710938 94.621094 30.757812 C 94.621094 31.378906 94.542969 31.941406 94.425781 32 C 94.332031 32.058594 94.234375 32.292969 94.234375 32.503906 C 94.234375 32.699219 94.15625 33.027344 94.058594 33.222656 C 93.828125 33.667969 93.554688 34.386719 93.261719 35.199219 C 92.972656 36.015625 92.699219 36.734375 92.46875 37.179688 C 92.371094 37.371094 92.292969 37.664062 92.292969 37.820312 C 92.292969 37.972656 92.214844 38.285156 92.097656 38.496094 C 92.003906 38.710938 91.828125 39.058594 91.710938 39.273438 C 91.613281 39.488281 91.515625 39.796875 91.515625 39.953125 C 91.515625 40.105469 91.4375 40.398438 91.34375 40.59375 C 91.109375 41.039062 90.835938 41.753906 90.546875 42.570312 C 90.253906 43.386719 89.984375 44.101562 89.75 44.546875 C 89.652344 44.742188 89.578125 45.035156 89.578125 45.1875 C 89.578125 45.34375 89.5 45.652344 89.382812 45.867188 C 89.285156 46.082031 89.109375 46.429688 88.996094 46.644531 C 88.898438 46.855469 88.800781 47.167969 88.800781 47.320312 C 88.800781 47.476562 88.722656 47.769531 88.625 47.960938 C 88.394531 48.40625 88.121094 49.125 87.828125 49.941406 C 87.539062 50.753906 87.265625 51.472656 87.035156 51.917969 C 86.9375 52.113281 86.859375 52.402344 86.859375 52.558594 C 86.859375 52.714844 86.78125 53.023438 86.664062 53.238281 C 86.570312 53.449219 86.394531 53.800781 86.277344 54.011719 C 86.179688 54.226562 86.082031 54.535156 86.082031 54.691406 C 86.082031 54.847656 86.007812 55.136719 85.910156 55.332031 C 85.675781 55.777344 85.40625 56.496094 85.113281 57.308594 C 84.824219 58.125 84.550781 58.839844 84.316406 59.289062 C 84.222656 59.480469 84.144531 59.773438 84.144531 59.925781 C 84.144531 60.082031 84.046875 60.414062 83.910156 60.664062 C 83.445312 61.574219 83.367188 61.769531 83.367188 62.0625 C 83.367188 62.214844 83.289062 62.507812 83.191406 62.699219 C 82.960938 63.148438 82.6875 63.863281 82.398438 64.679688 C 82.105469 65.492188 81.832031 66.210938 81.601562 66.65625 C 81.503906 66.851562 81.425781 67.140625 81.425781 67.296875 C 81.425781 67.453125 81.347656 67.761719 81.230469 67.976562 C 81.136719 68.1875 80.960938 68.539062 80.84375 68.75 C 80.746094 68.964844 80.648438 69.273438 80.648438 69.429688 C 80.648438 69.585938 80.574219 69.875 80.476562 70.070312 C 80.242188 70.515625 79.972656 71.234375 79.679688 72.046875 C 79.390625 72.863281 79.117188 73.582031 78.882812 74.027344 C 78.789062 74.222656 78.710938 74.511719 78.710938 74.667969 C 78.710938 74.820312 78.613281 75.152344 78.476562 75.402344 C 78.011719 76.316406 77.933594 76.507812 77.933594 76.800781 C 77.933594 76.957031 77.855469 77.246094 77.757812 77.441406 C 77.527344 77.886719 77.253906 78.605469 76.964844 79.417969 C 76.671875 80.234375 76.402344 80.949219 76.167969 81.394531 C 76.070312 81.589844 75.992188 81.882812 75.992188 82.035156 C 75.992188 82.191406 75.914062 82.5 75.800781 82.714844 C 75.703125 82.929688 75.527344 83.277344 75.410156 83.492188 C 75.3125 83.703125 75.21875 84.015625 75.21875 84.167969 C 75.21875 84.324219 75.140625 84.617188 75.042969 84.808594 C 74.808594 85.253906 74.539062 85.972656 74.246094 86.789062 C 73.957031 87.601562 73.683594 88.320312 73.449219 88.765625 C 73.355469 88.960938 73.277344 89.25 73.277344 89.40625 C 73.277344 89.5625 73.199219 89.871094 73.082031 90.085938 C 72.984375 90.296875 72.8125 90.648438 72.695312 90.859375 C 72.597656 91.074219 72.5 91.382812 72.5 91.539062 C 72.5 91.695312 72.421875 91.984375 72.324219 92.179688 C 72.09375 92.625 71.820312 93.34375 71.53125 94.15625 C 71.238281 94.972656 70.96875 95.691406 70.734375 96.136719 C 70.636719 96.328125 70.558594 96.621094 70.558594 96.777344 C 70.558594 96.929688 70.480469 97.242188 70.367188 97.453125 C 70.269531 97.667969 70.09375 98.015625 69.976562 98.230469 C 69.878906 98.441406 69.785156 98.753906 69.785156 98.910156 C 69.785156 99.0625 69.707031 99.355469 69.609375 99.546875 C 69.316406 100.109375 69.046875 100.808594 68.792969 101.625 C 68.65625 102.050781 68.464844 102.476562 68.386719 102.59375 C 68.308594 102.691406 68.230469 102.960938 68.230469 103.214844 C 68.230469 103.464844 68.152344 103.660156 68.035156 103.660156 C 67.941406 103.660156 67.84375 103.835938 67.84375 104.046875 C 67.84375 104.4375 67.765625 104.609375 67.300781 105.542969 C 67.164062 105.792969 67.066406 106.125 67.066406 106.277344 C 67.066406 106.433594 66.988281 106.722656 66.890625 106.917969 C 66.601562 107.480469 66.328125 108.179688 66.078125 108.992188 C 65.941406 109.421875 65.746094 109.847656 65.667969 109.964844 C 65.59375 110.058594 65.515625 110.332031 65.515625 110.582031 C 65.515625 110.835938 65.4375 111.03125 65.320312 111.03125 C 65.222656 111.03125 65.125 111.203125 65.125 111.417969 C 65.125 111.632812 65.046875 111.980469 64.933594 112.195312 C 64.835938 112.40625 64.660156 112.753906 64.542969 112.96875 C 64.445312 113.183594 64.351562 113.53125 64.351562 113.746094 C 64.351562 113.957031 64.253906 114.132812 64.136719 114.132812 C 64.039062 114.132812 64 114.230469 64.078125 114.347656 C 64.15625 114.5 64.253906 114.5 64.410156 114.347656 C 64.523438 114.230469 64.875 114.132812 65.164062 114.132812 C 65.476562 114.132812 65.863281 114.054688 66.058594 113.957031 C 66.230469 113.859375 66.542969 113.726562 66.738281 113.667969 C 66.910156 113.609375 67.164062 113.316406 67.28125 113.027344 C 67.398438 112.738281 67.570312 112.328125 67.667969 112.15625 C 67.765625 111.960938 67.84375 111.667969 67.84375 111.515625 C 67.84375 111.359375 67.921875 111.070312 68.019531 110.875 C 68.308594 110.3125 68.582031 109.613281 68.832031 108.800781 C 68.96875 108.371094 69.164062 107.945312 69.238281 107.828125 C 69.316406 107.734375 69.394531 107.460938 69.394531 107.210938 C 69.394531 106.957031 69.492188 106.761719 69.589844 106.761719 C 69.707031 106.761719 69.785156 106.570312 69.785156 106.316406 C 69.785156 106.066406 69.859375 105.792969 69.9375 105.695312 C 70.015625 105.582031 70.210938 105.152344 70.347656 104.726562 C 70.597656 103.914062 70.871094 103.214844 71.160156 102.652344 C 71.257812 102.457031 71.335938 102.167969 71.335938 102.011719 C 71.335938 101.855469 71.433594 101.546875 71.53125 101.332031 C 71.644531 101.121094 71.820312 100.769531 71.917969 100.558594 C 72.035156 100.34375 72.113281 100.035156 72.113281 99.878906 C 72.113281 99.585938 72.191406 99.394531 72.65625 98.480469 C 72.792969 98.230469 72.886719 97.898438 72.886719 97.746094 C 72.886719 97.589844 72.984375 97.28125 73.082031 97.066406 C 73.199219 96.851562 73.375 96.503906 73.46875 96.289062 C 73.585938 96.078125 73.664062 95.765625 73.664062 95.613281 C 73.664062 95.457031 73.761719 95.144531 73.859375 94.933594 C 73.976562 94.71875 74.148438 94.371094 74.246094 94.15625 C 74.363281 93.945312 74.441406 93.632812 74.441406 93.480469 C 74.441406 93.1875 74.519531 92.992188 74.984375 92.082031 C 75.121094 91.832031 75.21875 91.5 75.21875 91.34375 C 75.21875 91.191406 75.3125 90.859375 75.449219 90.609375 C 75.914062 89.695312 75.992188 89.503906 75.992188 89.210938 C 75.992188 89.058594 76.070312 88.746094 76.1875 88.535156 C 76.285156 88.320312 76.457031 87.972656 76.574219 87.757812 C 76.671875 87.542969 76.769531 87.234375 76.769531 87.078125 C 76.769531 86.921875 76.867188 86.59375 77.003906 86.339844 C 77.46875 85.429688 77.546875 85.234375 77.546875 84.945312 C 77.546875 84.789062 77.640625 84.480469 77.738281 84.265625 C 77.855469 84.054688 78.03125 83.703125 78.128906 83.492188 C 78.242188 83.277344 78.320312 82.96875 78.320312 82.8125 C 78.320312 82.65625 78.398438 82.367188 78.496094 82.171875 C 78.789062 81.609375 79.058594 80.910156 79.3125 80.097656 C 79.445312 79.671875 79.640625 79.242188 79.71875 79.148438 C 79.796875 79.03125 79.875 78.796875 79.875 78.605469 C 79.875 78.410156 79.953125 78.097656 80.046875 77.90625 C 80.339844 77.34375 80.613281 76.644531 80.863281 75.832031 C 81 75.402344 81.195312 74.976562 81.269531 74.878906 C 81.347656 74.765625 81.425781 74.492188 81.425781 74.238281 C 81.425781 73.988281 81.523438 73.792969 81.621094 73.792969 C 81.738281 73.792969 81.816406 73.601562 81.816406 73.347656 C 81.816406 73.097656 81.890625 72.824219 81.96875 72.707031 C 82.046875 72.609375 82.242188 72.183594 82.378906 71.757812 C 82.628906 70.941406 82.902344 70.246094 83.191406 69.683594 C 83.289062 69.488281 83.367188 69.179688 83.367188 68.984375 C 83.367188 68.789062 83.445312 68.558594 83.523438 68.441406 C 83.601562 68.34375 83.792969 67.917969 83.929688 67.492188 C 84.183594 66.675781 84.453125 65.976562 84.746094 65.417969 C 84.839844 65.222656 84.917969 64.929688 84.917969 64.777344 C 84.917969 64.621094 85.015625 64.3125 85.113281 64.097656 C 85.230469 63.882812 85.40625 63.535156 85.5 63.320312 C 85.617188 63.109375 85.695312 62.796875 85.695312 62.644531 C 85.695312 62.488281 85.792969 62.175781 85.890625 61.964844 C 86.007812 61.75 86.179688 61.402344 86.277344 61.1875 C 86.394531 60.976562 86.472656 60.664062 86.472656 60.507812 C 86.472656 60.355469 86.570312 60.042969 86.664062 59.832031 C 86.78125 59.617188 86.957031 59.269531 87.054688 59.054688 C 87.171875 58.839844 87.246094 58.53125 87.246094 58.375 C 87.246094 58.222656 87.34375 57.910156 87.441406 57.699219 C 87.558594 57.484375 87.734375 57.136719 87.828125 56.921875 C 87.945312 56.707031 88.023438 56.398438 88.023438 56.242188 C 88.023438 56.085938 88.121094 55.777344 88.21875 55.5625 C 88.335938 55.351562 88.507812 55 88.605469 54.789062 C 88.722656 54.574219 88.800781 54.265625 88.800781 54.109375 C 88.800781 53.953125 88.898438 53.644531 88.996094 53.429688 C 89.109375 53.21875 89.285156 52.867188 89.382812 52.65625 C 89.5 52.441406 89.578125 52.132812 89.578125 51.976562 C 89.578125 51.820312 89.671875 51.511719 89.769531 51.296875 C 89.886719 51.085938 90.0625 50.734375 90.160156 50.523438 C 90.273438 50.308594 90.351562 50 90.351562 49.84375 C 90.351562 49.6875 90.429688 49.398438 90.527344 49.203125 C 90.820312 48.640625 91.089844 47.941406 91.34375 47.128906 C 91.476562 46.703125 91.671875 46.273438 91.75 46.15625 C 91.828125 46.0625 91.90625 45.828125 91.90625 45.632812 C 91.90625 45.441406 91.984375 45.128906 92.078125 44.9375 C 92.371094 44.375 92.640625 43.675781 92.894531 42.859375 C 93.03125 42.433594 93.226562 42.007812 93.300781 41.890625 C 93.378906 41.792969 93.457031 41.5625 93.457031 41.367188 C 93.457031 41.175781 93.535156 40.863281 93.632812 40.667969 C 93.921875 40.105469 94.195312 39.410156 94.445312 38.59375 C 94.582031 38.167969 94.777344 37.742188 94.855469 37.625 C 94.933594 37.527344 95.011719 37.257812 95.011719 37.003906 C 95.011719 36.753906 95.105469 36.558594 95.203125 36.558594 C 95.320312 36.558594 95.398438 36.363281 95.398438 36.113281 C 95.398438 35.859375 95.476562 35.589844 95.554688 35.492188 C 95.628906 35.375 95.824219 34.949219 95.960938 34.523438 C 96.214844 33.707031 96.484375 33.007812 96.777344 32.445312 C 96.871094 32.253906 96.949219 31.960938 96.949219 31.808594 C 96.949219 31.652344 97.027344 31.359375 97.125 31.167969 C 97.648438 30.140625 97.746094 29.769531 97.6875 29.089844 C 97.648438 28.683594 97.492188 28.296875 97.339844 28.21875 C 97.046875 28.0625 96.308594 27.773438 95.554688 27.460938 C 95.300781 27.386719 94.875 27.210938 94.582031 27.074219 C 93.574219 26.667969 93.167969 26.511719 92.488281 26.28125 C 92.117188 26.144531 91.4375 25.871094 90.992188 25.679688 C 90.527344 25.484375 89.769531 25.136719 89.285156 24.921875 C 88.800781 24.707031 88.023438 24.359375 87.539062 24.144531 C 83.96875 22.554688 82.300781 21.800781 81.96875 21.625 C 81.777344 21.507812 81.484375 21.429688 81.328125 21.429688 C 81.175781 21.429688 81.039062 21.355469 81.039062 21.238281 C 81.039062 21.140625 80.921875 21.042969 80.785156 21.042969 C 80.554688 21.042969 79.234375 20.480469 78.476562 20.074219 C 78.28125 19.957031 77.992188 19.878906 77.835938 19.878906 C 77.679688 19.878906 77.546875 19.800781 77.546875 19.6875 C 77.546875 19.589844 77.429688 19.492188 77.273438 19.492188 C 77.117188 19.492188 76.671875 19.335938 76.246094 19.125 C 75.566406 18.792969 75.082031 18.5625 72.792969 17.550781 C 69.222656 15.960938 67.550781 15.207031 67.222656 15.03125 C 67.027344 14.914062 66.738281 14.835938 66.582031 14.835938 C 66.425781 14.835938 66.289062 14.761719 66.289062 14.644531 C 66.289062 14.546875 66.175781 14.449219 66.039062 14.449219 C 65.804688 14.449219 64.484375 13.886719 63.730469 13.480469 C 63.535156 13.363281 63.242188 13.285156 63.089844 13.285156 C 62.933594 13.285156 62.796875 13.207031 62.796875 13.09375 C 62.796875 12.996094 62.679688 12.898438 62.527344 12.898438 C 62.371094 12.898438 61.925781 12.742188 61.496094 12.53125 C 60.820312 12.199219 60.332031 11.96875 58.042969 10.957031 C 57.558594 10.746094 56.78125 10.394531 56.296875 10.183594 C 55.8125 9.96875 55.035156 9.621094 54.550781 9.40625 C 52.261719 8.398438 51.777344 8.167969 51.097656 7.835938 C 50.667969 7.625 50.183594 7.46875 49.972656 7.46875 C 49.777344 7.46875 49.601562 7.390625 49.601562 7.3125 C 49.601562 7.234375 49.195312 7.042969 48.691406 6.90625 C 48.167969 6.75 47.625 6.554688 47.46875 6.480469 C 47.3125 6.421875 46.945312 6.246094 46.652344 6.128906 C 46.34375 6.011719 45.875 5.820312 45.585938 5.703125 C 45.273438 5.566406 44.867188 5.414062 44.652344 5.335938 C 44.441406 5.257812 44.015625 5.082031 43.683594 4.945312 C 43.375 4.8125 42.90625 4.617188 42.675781 4.539062 C 42.421875 4.441406 42.035156 4.289062 41.800781 4.191406 C 40.328125 3.628906 37.183594 3.355469 37.183594 3.78125 C 37.183594 3.898438 37.300781 3.976562 37.433594 3.976562 C 37.589844 3.976562 37.960938 4.09375 38.269531 4.25 C 38.582031 4.402344 39.183594 4.675781 39.609375 4.851562 C 40.035156 5.023438 40.773438 5.355469 41.257812 5.566406 C 41.742188 5.78125 42.304688 6.03125 42.519531 6.109375 C 42.734375 6.1875 43.316406 6.441406 43.839844 6.671875 C 45.820312 7.566406 46.421875 7.835938 47.136719 8.128906 C 47.527344 8.300781 48.1875 8.574219 48.59375 8.746094 C 49.699219 9.234375 51.019531 9.816406 51.386719 10.007812 C 51.582031 10.105469 51.871094 10.183594 52.027344 10.183594 C 52.183594 10.183594 52.320312 10.28125 52.320312 10.375 C 52.320312 10.492188 52.453125 10.570312 52.609375 10.570312 C 52.765625 10.570312 53.054688 10.648438 53.25 10.746094 C 53.753906 11.015625 55.5 11.773438 57.558594 12.644531 C 58.566406 13.074219 59.945312 13.691406 60.3125 13.886719 C 60.507812 13.984375 60.800781 14.0625 60.953125 14.0625 C 61.109375 14.0625 61.246094 14.160156 61.246094 14.253906 C 61.246094 14.371094 61.363281 14.449219 61.496094 14.449219 C 61.652344 14.449219 62.023438 14.566406 62.332031 14.722656 C 62.640625 14.875 63.242188 15.148438 63.671875 15.324219 C 64.835938 15.828125 66.15625 16.410156 66.523438 16.601562 C 66.71875 16.699219 67.007812 16.777344 67.164062 16.777344 C 67.320312 16.777344 67.453125 16.875 67.453125 16.972656 C 67.453125 17.085938 67.589844 17.164062 67.746094 17.164062 C 67.902344 17.164062 68.191406 17.242188 68.386719 17.339844 C 68.753906 17.53125 70.074219 18.113281 71.199219 18.601562 C 71.589844 18.773438 72.246094 19.046875 72.65625 19.21875 C 73.761719 19.707031 75.082031 20.285156 75.449219 20.480469 C 75.644531 20.578125 75.933594 20.65625 76.089844 20.65625 C 76.246094 20.65625 76.382812 20.753906 76.382812 20.847656 C 76.382812 20.964844 76.574219 21.042969 76.789062 21.042969 C 77.136719 21.042969 77.175781 21.121094 77.078125 21.585938 C 77.003906 21.878906 76.847656 23.195312 76.75 24.535156 C 76.457031 28.023438 76.207031 30.3125 75.605469 34.910156 C 75.488281 35.761719 75.351562 36.984375 75.292969 37.625 C 75.234375 38.265625 75.101562 38.867188 75.003906 38.984375 C 74.90625 39.078125 74.828125 39.390625 74.828125 39.679688 C 74.828125 39.972656 74.75 40.28125 74.632812 40.339844 C 74.539062 40.398438 74.441406 40.667969 74.441406 40.921875 C 74.441406 41.175781 74.363281 41.445312 74.246094 41.503906 C 74.148438 41.5625 74.050781 41.871094 74.050781 42.183594 C 74.050781 42.492188 73.976562 42.804688 73.859375 42.859375 C 73.761719 42.917969 73.664062 43.152344 73.664062 43.367188 C 73.664062 43.558594 73.585938 43.890625 73.488281 44.082031 C 73.394531 44.257812 73.21875 44.800781 73.082031 45.285156 C 72.945312 45.769531 72.773438 46.3125 72.675781 46.488281 C 72.578125 46.683594 72.5 47.011719 72.5 47.207031 C 72.5 47.417969 72.421875 47.652344 72.304688 47.710938 C 72.210938 47.769531 72.113281 47.980469 72.113281 48.195312 C 72.113281 48.386719 71.664062 49.398438 71.101562 50.445312 C 70.558594 51.511719 69.746094 53.0625 69.316406 53.914062 C 68.871094 54.769531 68.464844 55.507812 68.386719 55.523438 C 68.289062 55.5625 68.230469 55.757812 68.230469 55.953125 C 68.230469 56.144531 68.171875 56.339844 68.09375 56.378906 C 68 56.417969 67.609375 57.097656 67.183594 57.910156 C 66.5625 59.132812 66.078125 59.714844 64.371094 61.324219 C 63.242188 62.371094 62.175781 63.339844 62.023438 63.476562 C 61.476562 63.921875 59.285156 65.261719 59.109375 65.261719 C 58.996094 65.261719 58.917969 65.359375 58.917969 65.453125 C 58.917969 65.570312 58.820312 65.648438 58.703125 65.648438 C 58.585938 65.648438 58.121094 65.921875 57.65625 66.230469 C 57.191406 66.558594 56.761719 66.8125 56.703125 66.8125 C 56.589844 66.8125 54.277344 68.265625 53.929688 68.558594 C 53.792969 68.65625 53.636719 68.75 53.582031 68.75 C 53.503906 68.75 53.074219 69.023438 52.609375 69.332031 C 52.144531 69.664062 51.71875 69.914062 51.660156 69.914062 C 51.5625 69.914062 49.332031 71.292969 48.921875 71.601562 C 48.828125 71.699219 48.476562 71.875 48.148438 72.027344 C 47.488281 72.359375 41.609375 78.292969 41.21875 79.03125 C 41.082031 79.300781 40.929688 79.554688 40.871094 79.613281 C 40.8125 79.671875 40.65625 79.921875 40.519531 80.175781 C 39.839844 81.359375 39.53125 81.921875 38.949219 82.871094 C 38.621094 83.433594 38.347656 83.976562 38.347656 84.074219 C 38.347656 84.1875 38.269531 84.265625 38.171875 84.265625 C 38 84.265625 37.863281 84.90625 37.648438 86.496094 C 37.589844 86.921875 37.472656 87.445312 37.378906 87.660156 C 37.28125 87.875 37.164062 88.398438 37.105469 88.824219 C 37.046875 89.25 36.910156 90.085938 36.796875 90.667969 C 36.347656 92.972656 36.269531 93.984375 36.425781 95.632812 C 36.679688 98.269531 37.320312 103.039062 37.960938 107.152344 C 38.367188 109.867188 38.542969 110.992188 38.714844 112.289062 C 38.8125 113.046875 38.96875 113.84375 39.027344 114.09375 C 39.144531 114.441406 39.085938 114.519531 38.773438 114.519531 C 38.5625 114.519531 38.347656 114.460938 38.308594 114.386719 C 38.289062 114.289062 37.863281 114.015625 37.378906 113.765625 C 36.890625 113.511719 36.15625 113.125 35.726562 112.890625 C 35.300781 112.679688 34.914062 112.445312 34.855469 112.386719 C 34.738281 112.269531 34.019531 111.863281 33.011719 111.339844 C 32.585938 111.105469 32.195312 110.894531 32.136719 110.835938 C 31.964844 110.660156 30.875 110.039062 30.160156 109.710938 C 29.75 109.535156 29.421875 109.324219 29.421875 109.246094 C 29.421875 109.148438 29.265625 109.089844 29.050781 109.089844 C 28.859375 109.089844 28.585938 108.972656 28.46875 108.820312 C 28.335938 108.664062 27.734375 108.296875 27.132812 108.003906 C 26.53125 107.714844 25.988281 107.421875 25.929688 107.34375 C 25.871094 107.285156 25.347656 106.957031 24.765625 106.648438 C 24.183594 106.316406 23.347656 105.851562 22.921875 105.597656 C 22.492188 105.347656 21.542969 104.824219 20.785156 104.4375 C 20.046875 104.046875 19.097656 103.542969 18.710938 103.3125 C 18.300781 103.078125 17.660156 102.710938 17.292969 102.496094 C 16.925781 102.285156 16.304688 101.933594 15.933594 101.722656 C 15.566406 101.507812 14.945312 101.160156 14.578125 100.945312 C 14.207031 100.730469 13.585938 100.382812 13.21875 100.167969 C 12.847656 99.957031 12.210938 99.585938 11.820312 99.375 C 10.015625 98.347656 9.492188 98.035156 8.851562 97.726562 C 8.484375 97.53125 8.132812 97.339844 8.074219 97.28125 C 8.019531 97.203125 7.609375 96.96875 7.164062 96.738281 C 6.699219 96.484375 5.960938 96.097656 5.515625 95.863281 C 5.046875 95.613281 4.640625 95.378906 4.582031 95.320312 C 4.410156 95.144531 3.320312 94.527344 2.605469 94.195312 C 2.195312 94.023438 1.867188 93.808594 1.867188 93.730469 C 1.867188 93.632812 1.710938 93.574219 1.515625 93.574219 C 1.128906 93.574219 0.527344 92.972656 0.140625 92.199219 C -0.0742188 91.753906 -0.0546875 91.519531 0.292969 90.453125 C 0.527344 89.773438 0.800781 89.058594 0.894531 88.882812 C 1.011719 88.6875 1.089844 88.359375 1.089844 88.164062 C 1.089844 87.953125 1.1875 87.71875 1.285156 87.660156 C 1.402344 87.601562 1.476562 87.371094 1.476562 87.15625 C 1.476562 86.789062 1.554688 86.613281 2.023438 85.683594 C 2.15625 85.429688 2.253906 85.0625 2.253906 84.867188 C 2.253906 84.65625 2.351562 84.421875 2.449219 84.363281 C 2.566406 84.304688 2.640625 84.035156 2.640625 83.761719 C 2.640625 83.511719 2.71875 83.140625 2.816406 82.949219 C 2.914062 82.773438 3.109375 82.230469 3.226562 81.746094 C 3.613281 80.328125 4.195312 78.566406 4.390625 78.214844 C 4.503906 78.023438 4.582031 77.691406 4.582031 77.5 C 4.582031 77.285156 4.660156 77.050781 4.777344 76.992188 C 4.875 76.9375 4.972656 76.703125 4.972656 76.488281 C 4.972656 76.296875 5.046875 75.964844 5.144531 75.773438 C 5.242188 75.597656 5.4375 75.054688 5.554688 74.570312 C 5.980469 73.058594 7.300781 69.0625 7.492188 68.714844 C 7.609375 68.519531 7.6875 68.1875 7.6875 67.996094 C 7.6875 67.78125 7.765625 67.550781 7.882812 67.492188 C 8 67.433594 8.074219 67.160156 8.074219 66.910156 C 8.074219 66.65625 8.152344 66.386719 8.269531 66.328125 C 8.367188 66.269531 8.464844 65.996094 8.464844 65.726562 C 8.464844 65.472656 8.5625 65.261719 8.65625 65.261719 C 8.773438 65.261719 8.851562 65.007812 8.851562 64.699219 C 8.851562 64.367188 8.949219 64.058594 9.046875 64 C 9.164062 63.941406 9.238281 63.710938 9.238281 63.496094 C 9.238281 63.300781 9.316406 62.972656 9.414062 62.777344 C 9.511719 62.605469 9.707031 62.0625 9.824219 61.574219 C 10.25 60.023438 10.480469 59.347656 10.636719 59.152344 C 10.714844 59.054688 10.792969 58.785156 10.792969 58.550781 C 10.792969 58.296875 10.890625 58.046875 10.988281 57.988281 C 11.101562 57.929688 11.179688 57.660156 11.179688 57.40625 C 11.179688 57.15625 11.277344 56.882812 11.375 56.824219 C 11.492188 56.765625 11.570312 56.535156 11.570312 56.320312 C 11.570312 56.125 11.664062 55.757812 11.800781 55.507812 C 12.265625 54.574219 12.34375 54.402344 12.34375 54.03125 C 12.34375 53.820312 12.441406 53.585938 12.539062 53.527344 C 12.636719 53.46875 12.734375 53.238281 12.734375 53.023438 C 12.734375 52.828125 12.8125 52.5 12.90625 52.304688 C 13.003906 52.132812 13.199219 51.589844 13.316406 51.105469 C 13.742188 49.589844 15.0625 45.597656 15.253906 45.246094 C 15.371094 45.050781 15.449219 44.722656 15.449219 44.527344 C 15.449219 44.316406 15.527344 44.082031 15.644531 44.023438 C 15.742188 43.964844 15.835938 43.734375 15.835938 43.519531 C 15.835938 43.328125 15.914062 42.976562 16.03125 42.765625 C 16.148438 42.550781 16.324219 42.203125 16.421875 41.988281 C 16.535156 41.773438 16.613281 41.425781 16.613281 41.210938 C 16.613281 41 16.691406 40.667969 16.789062 40.476562 C 16.886719 40.300781 17.15625 39.488281 17.390625 38.691406 C 18.128906 36.230469 18.574219 34.929688 18.75 34.582031 C 18.863281 34.386719 18.941406 34.054688 18.941406 33.863281 C 18.941406 33.648438 19.019531 33.417969 19.136719 33.359375 C 19.234375 33.300781 19.332031 33.027344 19.332031 32.757812 C 19.332031 32.503906 19.429688 32.292969 19.523438 32.292969 C 19.640625 32.292969 19.71875 32.078125 19.71875 31.828125 C 19.71875 31.554688 19.816406 31.285156 19.914062 31.226562 C 20.03125 31.167969 20.105469 30.933594 20.105469 30.722656 C 20.105469 30.527344 20.183594 30.195312 20.28125 30.003906 C 20.378906 29.828125 20.574219 29.285156 20.707031 28.800781 C 21.117188 27.289062 22.824219 22.128906 23.019531 21.78125 C 23.132812 21.585938 23.210938 21.257812 23.210938 21.0625 C 23.210938 20.847656 23.308594 20.617188 23.40625 20.558594 C 23.523438 20.5 23.601562 20.230469 23.601562 19.957031 C 23.601562 19.707031 23.695312 19.492188 23.792969 19.492188 C 23.910156 19.492188 23.988281 19.277344 23.988281 19.007812 C 23.988281 18.734375 24.066406 18.367188 24.164062 18.171875 C 24.257812 18 24.53125 17.183594 24.765625 16.390625 C 24.976562 15.59375 25.25 14.777344 25.347656 14.605469 C 25.460938 14.410156 25.539062 14.082031 25.539062 13.886719 C 25.539062 13.675781 25.636719 13.441406 25.734375 13.382812 C 25.851562 13.324219 25.929688 13.074219 25.929688 12.820312 C 25.929688 12.585938 26.007812 12.316406 26.082031 12.21875 C 26.179688 12.101562 26.453125 11.367188 26.703125 10.570312 C 26.957031 9.777344 27.230469 9.039062 27.324219 8.921875 C 27.402344 8.824219 27.480469 8.554688 27.480469 8.320312 C 27.480469 8.070312 27.578125 7.816406 27.675781 7.757812 C 27.792969 7.699219 27.867188 7.429688 27.867188 7.175781 C 27.867188 6.925781 27.945312 6.519531 28.042969 6.265625 C 28.140625 6.011719 28.507812 4.90625 28.859375 3.78125 C 29.207031 2.660156 29.558594 1.667969 29.652344 1.554688 C 29.730469 1.457031 29.808594 1.222656 29.808594 1.027344 C 29.808594 0.816406 30.121094 0.5625 30.644531 0.332031 C 31.90625 -0.230469 35.011719 -0.0585938 36.949219 0.699219 C 37.203125 0.796875 37.648438 0.875 37.960938 0.875 C 38.269531 0.875 38.582031 0.972656 38.636719 1.066406 C 38.695312 1.183594 38.96875 1.261719 39.222656 1.261719 C 39.472656 1.261719 39.746094 1.359375 39.804688 1.457031 C 39.859375 1.570312 40.074219 1.648438 40.25 1.648438 C 40.425781 1.648438 41.101562 1.921875 41.742188 2.230469 C 42.382812 2.5625 43.003906 2.8125 43.140625 2.8125 C 43.277344 2.8125 43.394531 2.910156 43.394531 3.007812 C 43.394531 3.125 43.566406 3.203125 43.78125 3.203125 C 43.996094 3.203125 44.324219 3.277344 44.519531 3.375 C 44.691406 3.472656 45.199219 3.707031 45.625 3.878906 C 46.050781 4.074219 46.652344 4.324219 46.964844 4.480469 C 47.273438 4.636719 47.640625 4.753906 47.796875 4.753906 C 47.933594 4.753906 48.050781 4.851562 48.050781 4.945312 C 48.050781 5.0625 48.207031 5.140625 48.417969 5.140625 C 48.613281 5.140625 49.332031 5.414062 50.011719 5.742188 C 50.6875 6.089844 51.425781 6.421875 51.640625 6.5 C 52.320312 6.75 52.980469 7.023438 53.96875 7.46875 C 54.511719 7.699219 55.113281 7.972656 55.328125 8.050781 C 55.539062 8.128906 56.335938 8.476562 57.074219 8.824219 C 58.394531 9.425781 58.800781 9.601562 59.75 9.96875 C 60.625 10.300781 61.167969 10.53125 62.117188 10.957031 C 62.660156 11.191406 63.261719 11.464844 63.476562 11.539062 C 63.691406 11.617188 64.429688 11.949219 65.105469 12.296875 C 65.785156 12.625 66.503906 12.898438 66.699219 12.898438 C 66.910156 12.898438 67.066406 12.996094 67.066406 13.09375 C 67.066406 13.207031 67.222656 13.285156 67.417969 13.285156 C 67.609375 13.285156 68.132812 13.460938 68.582031 13.675781 C 69.007812 13.886719 69.472656 14.0625 69.589844 14.0625 C 69.6875 14.0625 69.785156 14.160156 69.785156 14.253906 C 69.785156 14.371094 69.917969 14.449219 70.074219 14.449219 C 70.230469 14.449219 70.519531 14.527344 70.714844 14.625 C 70.890625 14.722656 71.257812 14.875 71.53125 14.992188 C 71.800781 15.089844 72.578125 15.4375 73.257812 15.789062 C 73.9375 16.117188 74.652344 16.390625 74.847656 16.390625 C 75.0625 16.390625 75.21875 16.484375 75.21875 16.582031 C 75.21875 16.699219 75.371094 16.777344 75.566406 16.777344 C 75.761719 16.777344 76.285156 16.953125 76.730469 17.164062 C 77.15625 17.378906 77.625 17.550781 77.738281 17.550781 C 77.835938 17.550781 77.933594 17.648438 77.933594 17.746094 C 77.933594 17.863281 78.070312 17.941406 78.226562 17.941406 C 78.378906 17.941406 78.671875 18.019531 78.863281 18.113281 C 79.175781 18.269531 79.464844 18.40625 80.804688 18.949219 C 81.136719 19.085938 81.425781 19.257812 81.425781 19.335938 C 81.425781 19.433594 81.601562 19.492188 81.816406 19.492188 C 82.027344 19.492188 82.359375 19.570312 82.550781 19.667969 C 82.726562 19.761719 83.09375 19.917969 83.367188 20.015625 C 83.636719 20.132812 84.238281 20.402344 84.6875 20.636719 C 85.152344 20.847656 85.65625 21.042969 85.8125 21.042969 C 85.96875 21.042969 86.082031 21.140625 86.082031 21.238281 C 86.082031 21.355469 86.257812 21.429688 86.453125 21.429688 C 86.664062 21.429688 87.382812 21.703125 88.0625 22.03125 C 88.722656 22.363281 89.480469 22.710938 89.730469 22.808594 C 90.835938 23.253906 91.070312 23.351562 91.769531 23.640625 C 92.15625 23.816406 92.816406 24.089844 93.226562 24.261719 C 94.15625 24.671875 94.816406 24.941406 95.300781 25.117188 C 95.515625 25.214844 96.097656 25.445312 96.601562 25.679688 C 97.105469 25.910156 97.609375 26.085938 97.707031 26.085938 C 97.980469 26.085938 99.183594 27.308594 99.414062 27.832031 C 99.898438 28.878906 100.152344 30.351562 99.898438 30.742188 C 99.765625 30.953125 99.667969 31.265625 99.667969 31.457031 C 99.667969 31.769531 99.066406 33.6875 98.695312 34.523438 C 98.601562 34.734375 98.347656 35.472656 98.113281 36.171875 C 97.882812 36.867188 97.628906 37.605469 97.53125 37.820312 C 97.433594 38.03125 97.222656 38.59375 97.066406 39.078125 C 96.910156 39.5625 96.425781 40.960938 95.980469 42.183594 C 95.535156 43.402344 94.972656 45.070312 94.699219 45.867188 C 94.425781 46.664062 94.136719 47.496094 94.058594 47.710938 C 93.960938 47.921875 93.789062 48.40625 93.652344 48.777344 C 93.515625 49.144531 93.339844 49.628906 93.261719 49.84375 C 93.167969 50.054688 92.914062 50.792969 92.679688 51.492188 C 92.449219 52.191406 92.195312 52.925781 92.097656 53.140625 C 92.003906 53.351562 91.75 54.089844 91.515625 54.789062 C 91.285156 55.488281 91.03125 56.222656 90.933594 56.4375 C 90.835938 56.648438 90.664062 57.171875 90.527344 57.601562 C 90.390625 58.027344 90.199219 58.453125 90.121094 58.570312 C 90.042969 58.667969 89.964844 58.898438 89.964844 59.09375 C 89.964844 59.289062 89.886719 59.617188 89.769531 59.832031 C 89.671875 60.042969 89.5 60.394531 89.382812 60.605469 C 89.285156 60.820312 89.1875 61.148438 89.1875 61.34375 C 89.1875 61.539062 89.109375 61.769531 89.03125 61.867188 C 88.9375 61.984375 88.742188 62.449219 88.605469 62.933594 C 88.449219 63.417969 88.296875 63.902344 88.21875 64 C 88.160156 64.117188 87.886719 64.855469 87.636719 65.648438 C 87.382812 66.445312 87.113281 67.179688 87.015625 67.277344 C 86.9375 67.394531 86.859375 67.664062 86.859375 67.898438 C 86.859375 68.152344 86.78125 68.382812 86.703125 68.441406 C 86.628906 68.5 86.433594 68.984375 86.277344 69.527344 C 86.121094 70.070312 85.929688 70.554688 85.851562 70.613281 C 85.773438 70.671875 85.695312 70.921875 85.695312 71.175781 C 85.695312 71.429688 85.617188 71.679688 85.539062 71.738281 C 85.460938 71.796875 85.269531 72.28125 85.113281 72.824219 C 84.957031 73.367188 84.765625 73.851562 84.6875 73.910156 C 84.609375 73.96875 84.53125 74.183594 84.53125 74.394531 C 84.53125 74.765625 84.453125 74.9375 83.988281 75.871094 C 83.851562 76.121094 83.753906 76.449219 83.753906 76.605469 C 83.753906 76.898438 83.675781 77.089844 83.210938 78.003906 C 83.074219 78.253906 82.980469 78.585938 82.980469 78.738281 C 82.980469 78.894531 82.902344 79.183594 82.804688 79.378906 C 82.570312 79.824219 82.320312 80.464844 81.816406 81.84375 C 81.039062 83.957031 80.398438 85.566406 80.046875 86.246094 C 79.953125 86.4375 79.875 86.710938 79.875 86.847656 C 79.875 86.980469 79.699219 87.464844 79.484375 87.914062 C 79.273438 88.339844 79.097656 88.84375 79.097656 89 C 79.097656 89.152344 79.019531 89.347656 78.902344 89.40625 C 78.808594 89.464844 78.710938 89.695312 78.710938 89.910156 C 78.710938 90.105469 78.632812 90.433594 78.535156 90.628906 C 78.242188 91.191406 77.972656 91.886719 77.71875 92.703125 C 77.585938 93.128906 77.390625 93.554688 77.3125 93.671875 C 77.234375 93.769531 77.15625 94.003906 77.15625 94.195312 C 77.15625 94.546875 77.078125 94.738281 76.613281 95.652344 C 76.476562 95.902344 76.382812 96.234375 76.382812 96.386719 C 76.382812 96.542969 76.285156 96.871094 76.148438 97.125 C 75.683594 98.035156 75.605469 98.230469 75.605469 98.519531 C 75.605469 98.675781 75.527344 98.96875 75.429688 99.160156 C 75.199219 99.605469 74.925781 100.324219 74.632812 101.140625 C 74.5 101.507812 74.324219 101.992188 74.246094 102.207031 C 74.167969 102.417969 73.996094 102.902344 73.859375 103.273438 C 73.722656 103.640625 73.546875 104.125 73.46875 104.339844 C 73.394531 104.550781 73.042969 105.464844 72.695312 106.375 C 72.035156 108.140625 71.761719 108.820312 71.550781 109.285156 C 71.472656 109.441406 71.277344 109.984375 71.121094 110.507812 C 70.988281 111.011719 70.792969 111.417969 70.714844 111.417969 C 70.636719 111.417969 70.558594 111.59375 70.558594 111.804688 C 70.558594 112.019531 70.480469 112.367188 70.367188 112.582031 C 70.269531 112.792969 70.09375 113.144531 69.976562 113.355469 C 69.878906 113.570312 69.785156 113.898438 69.785156 114.113281 C 69.785156 114.328125 69.726562 114.519531 69.648438 114.558594 C 69.550781 114.597656 69.355469 114.890625 69.164062 115.199219 C 68.484375 116.441406 66.582031 116.925781 65.6875 116.089844 C 65.457031 115.878906 65.125 115.683594 64.992188 115.683594 C 64.855469 115.683594 64.738281 115.585938 64.738281 115.472656 C 64.738281 115.355469 64.503906 115.296875 64.214844 115.335938 C 63.808594 115.375 63.652344 115.507812 63.613281 115.878906 C 63.574219 116.148438 63.457031 116.441406 63.359375 116.539062 C 63.261719 116.652344 63.1875 116.925781 63.1875 117.175781 C 63.1875 117.429688 63.109375 117.625 62.992188 117.625 C 62.894531 117.625 62.796875 117.835938 62.796875 118.089844 C 62.796875 118.359375 62.71875 118.613281 62.640625 118.671875 C 62.566406 118.730469 62.371094 119.214844 62.214844 119.757812 C 62.058594 120.300781 61.867188 120.785156 61.789062 120.84375 C 61.710938 120.902344 61.632812 121.113281 61.632812 121.328125 C 61.632812 121.695312 61.554688 121.871094 61.089844 122.800781 C 60.953125 123.054688 60.855469 123.363281 60.855469 123.519531 C 60.855469 123.675781 60.488281 124.0625 60.042969 124.390625 C 59.03125 125.128906 57.675781 125.207031 56.589844 124.566406 Z M 51.601562 109.167969 C 51.988281 109.109375 52.378906 108.972656 52.433594 108.878906 C 52.492188 108.78125 52.746094 108.703125 52.980469 108.703125 C 53.523438 108.703125 55.386719 106.6875 56.375 105.039062 C 57.5 103.15625 57.753906 102.691406 57.753906 102.398438 C 57.753906 102.226562 57.828125 101.953125 57.925781 101.757812 C 58.238281 101.179688 58.585938 98.734375 58.46875 97.84375 C 58.316406 96.601562 58.023438 95.089844 57.867188 94.640625 C 57.714844 94.253906 57.519531 93.769531 57.191406 92.953125 C 57.09375 92.703125 56.976562 92.410156 56.9375 92.277344 C 56.800781 91.8125 54.375 89.484375 53.734375 89.210938 C 52.53125 88.707031 49.894531 88.863281 48.59375 89.523438 C 48.398438 89.621094 48.070312 89.695312 47.875 89.695312 C 47.660156 89.695312 47.253906 90.007812 46.945312 90.433594 C 46.652344 90.820312 46.285156 91.269531 46.148438 91.402344 C 46.011719 91.558594 45.664062 91.984375 45.371094 92.375 C 45.082031 92.78125 44.808594 93.128906 44.75 93.1875 C 44.480469 93.460938 44.167969 94.195312 44.167969 94.601562 C 44.167969 94.855469 44.089844 95.128906 44.015625 95.242188 C 43.917969 95.339844 43.742188 95.804688 43.605469 96.289062 C 43.449219 96.777344 43.257812 97.394531 43.160156 97.667969 C 42.832031 98.558594 43.179688 103.117188 43.703125 104.824219 C 43.917969 105.542969 44.789062 106.742188 45.800781 107.714844 C 46.769531 108.664062 47.078125 108.644531 46.730469 107.675781 C 46.382812 106.6875 46.421875 105.988281 46.847656 105.988281 C 47.058594 105.988281 47.3125 105.753906 47.449219 105.464844 C 47.605469 105.152344 47.777344 104.765625 47.875 104.589844 C 47.972656 104.398438 48.050781 104.066406 48.050781 103.875 C 48.050781 103.660156 48.148438 103.425781 48.242188 103.371094 C 48.359375 103.3125 48.4375 103.058594 48.4375 102.808594 C 48.4375 102.574219 48.496094 102.300781 48.574219 102.226562 C 48.75 102.050781 49.214844 100.710938 49.214844 100.34375 C 49.214844 100.1875 48.960938 99.800781 48.652344 99.511719 C 48.339844 99.21875 48.050781 98.734375 47.972656 98.460938 C 47.914062 98.171875 47.796875 97.589844 47.71875 97.164062 C 47.566406 96.445312 47.507812 96.386719 46.808594 96.289062 C 45.894531 96.175781 45.371094 95.457031 45.351562 94.3125 C 45.332031 93.671875 45.390625 93.574219 45.78125 93.574219 C 46.363281 93.574219 47.46875 94.117188 47.605469 94.46875 C 47.738281 94.835938 48.089844 94.816406 48.554688 94.410156 C 49.214844 93.808594 50.59375 93.1875 51.269531 93.1875 C 51.910156 93.1875 51.929688 93.167969 51.929688 92.375 C 51.949219 91.402344 52.183594 91.035156 53.035156 90.742188 C 53.601562 90.53125 53.695312 90.550781 53.96875 90.976562 C 54.394531 91.636719 54.316406 92.429688 53.773438 93.070312 C 53.152344 93.808594 53.152344 93.984375 53.949219 95.070312 C 54.394531 95.707031 54.628906 96.289062 54.707031 96.949219 C 54.824219 98.074219 55.441406 98.734375 56.027344 98.367188 C 56.917969 97.804688 57.886719 100.035156 57.035156 100.671875 C 56.375 101.160156 55.035156 100.828125 55.035156 100.1875 C 55.035156 99.703125 54.453125 99.78125 53.910156 100.34375 C 53.40625 100.886719 53.230469 100.945312 52.144531 100.945312 C 51.019531 100.945312 50.941406 100.984375 50.746094 101.46875 C 50.628906 101.757812 50.417969 102.320312 50.242188 102.691406 C 50.085938 103.058594 49.894531 103.542969 49.796875 103.757812 C 49.542969 104.417969 49.175781 105.289062 49 105.636719 C 48.769531 106.105469 48.789062 106.761719 49.019531 106.761719 C 49.136719 106.761719 49.214844 107.035156 49.214844 107.34375 C 49.214844 107.734375 49.117188 107.925781 48.921875 107.925781 C 48.769531 107.925781 48.476562 108.003906 48.28125 108.101562 C 48.109375 108.199219 47.796875 108.335938 47.585938 108.390625 C 47.078125 108.566406 47.546875 109.089844 48.226562 109.089844 C 48.496094 109.089844 48.863281 109.1875 49.019531 109.285156 C 49.292969 109.476562 50.03125 109.441406 51.601562 109.167969 Z M 51.929688 52.789062 C 51.929688 52.636719 51.328125 52.246094 50.574219 51.917969 C 49.582031 51.472656 49.214844 51.21875 49.214844 50.929688 C 49.214844 50.386719 49.640625 50.328125 50.574219 50.734375 C 51.5625 51.179688 51.542969 51.179688 51.542969 50.8125 C 51.542969 50.636719 51.308594 50.40625 51.019531 50.289062 C 50.222656 49.960938 49.816406 49.550781 49.933594 49.242188 C 50.085938 48.835938 50.574219 48.910156 51.851562 49.53125 C 52.648438 49.921875 53.074219 50.035156 53.25 49.902344 C 53.582031 49.628906 53.542969 49.359375 53.191406 49.359375 C 53.035156 49.359375 52.472656 49.164062 51.96875 48.949219 C 50.125 48.117188 49.835938 48 49.660156 48 C 49.523438 48 48.050781 50.988281 48.050781 51.277344 C 48.050781 51.414062 51.347656 53.003906 51.699219 53.023438 C 51.816406 53.042969 51.929688 52.925781 51.929688 52.789062 Z M 47.273438 50.695312 C 47.273438 50.597656 46.710938 50.230469 46.011719 49.921875 C 45.3125 49.589844 44.75 49.242188 44.75 49.125 C 44.75 49.027344 45.023438 48.367188 45.332031 47.652344 C 45.800781 46.664062 45.875 46.351562 45.683594 46.234375 C 45.21875 45.925781 45.023438 46.0625 44.652344 46.992188 C 44.441406 47.496094 44.109375 48.195312 43.9375 48.5625 C 43.585938 49.242188 43.722656 49.726562 44.246094 49.746094 C 44.363281 49.765625 44.945312 50.015625 45.527344 50.308594 C 46.671875 50.910156 47.273438 51.046875 47.273438 50.695312 Z M 42.519531 48.351562 C 42.945312 48.15625 43.023438 48.019531 42.945312 47.535156 C 42.886719 47.109375 42.964844 46.796875 43.257812 46.507812 C 43.996094 45.691406 43.429688 45.128906 40.734375 44.003906 L 40.113281 43.734375 L 39.726562 44.546875 C 39.125 45.90625 38.734375 46.875 38.734375 47.050781 C 38.734375 47.148438 38.949219 47.320312 39.222656 47.417969 C 39.492188 47.515625 40.074219 47.769531 40.539062 47.960938 C 40.988281 48.175781 41.492188 48.386719 41.644531 48.445312 C 41.800781 48.503906 41.957031 48.5625 41.976562 48.5625 C 41.996094 48.582031 42.246094 48.484375 42.519531 48.351562 Z M 65.027344 47.417969 C 65.027344 47.207031 64.738281 47.109375 63.902344 47.03125 C 63.070312 46.953125 62.625 46.796875 62.117188 46.390625 C 61.34375 45.769531 61.246094 45.1875 61.828125 44.453125 C 62.605469 43.480469 64.175781 43.597656 65.222656 44.703125 C 65.804688 45.304688 66.289062 45.460938 66.289062 45.035156 C 66.289062 44.703125 65.164062 43.675781 64.484375 43.386719 C 64.195312 43.25 63.457031 43.152344 62.875 43.152344 C 61.90625 43.152344 61.730469 43.210938 61.128906 43.8125 C 59.847656 45.089844 60.507812 46.703125 62.605469 47.4375 C 63.84375 47.863281 65.027344 47.863281 65.027344 47.417969 Z M 37.960938 45.1875 C 38.210938 44.546875 38.503906 43.910156 38.601562 43.792969 C 38.832031 43.480469 38.636719 42.957031 38.289062 42.957031 C 38.152344 42.957031 37.941406 43.152344 37.824219 43.402344 C 36.757812 45.613281 36.582031 46.332031 37.046875 46.507812 C 37.378906 46.625 37.453125 46.527344 37.960938 45.1875 Z M 35.84375 44.976562 C 35.980469 44.820312 36.019531 44.375 35.960938 43.929688 C 35.902344 43.386719 35.941406 43.152344 36.097656 43.152344 C 36.230469 43.152344 36.464844 42.9375 36.601562 42.667969 C 36.816406 42.28125 36.796875 42.125 36.542969 41.738281 C 36.386719 41.484375 35.960938 41.136719 35.59375 40.980469 C 33.691406 40.089844 32.660156 39.640625 32.625 39.699219 C 32.527344 39.816406 31.167969 43.597656 31.167969 43.734375 C 31.167969 43.8125 31.496094 44.023438 31.90625 44.179688 C 32.292969 44.355469 33.128906 44.703125 33.75 44.957031 C 34.914062 45.441406 35.457031 45.441406 35.84375 44.976562 Z M 59.652344 43.734375 C 60.507812 42.027344 60.546875 41.601562 59.925781 41.601562 C 59.691406 41.601562 59.304688 42.183594 58.683594 43.421875 C 58.179688 44.433594 57.828125 45.304688 57.886719 45.363281 C 57.964844 45.421875 58.199219 45.480469 58.414062 45.460938 C 58.722656 45.460938 59.015625 45.050781 59.652344 43.734375 Z M 56.976562 44.492188 C 56.976562 44.394531 56.375 44.042969 55.617188 43.714844 C 54.878906 43.367188 54.257812 43.015625 54.257812 42.917969 C 54.257812 42.84375 54.570312 42.144531 54.9375 41.386719 C 55.636719 40.011719 55.675781 39.660156 55.054688 39.660156 C 54.824219 39.660156 54.472656 40.183594 53.871094 41.40625 C 53.425781 42.375 53.09375 43.210938 53.152344 43.289062 C 53.40625 43.519531 56.683594 44.859375 56.839844 44.761719 C 56.917969 44.722656 56.976562 44.605469 56.976562 44.492188 Z M 52.378906 41.40625 C 53.308594 40.378906 53.019531 39 51.679688 38.226562 C 50.4375 37.488281 49 37.507812 48.226562 38.285156 C 47.796875 38.730469 47.660156 39.039062 47.660156 39.640625 C 47.660156 41.738281 50.941406 42.957031 52.378906 41.40625 Z M 46.730469 38.402344 C 47.136719 37.449219 47.46875 36.65625 47.46875 36.617188 C 47.46875 36.597656 47.292969 36.480469 47.078125 36.363281 C 46.75 36.191406 46.671875 36.246094 46.421875 36.847656 C 46.089844 37.625 45.835938 37.683594 44.632812 37.140625 C 43.761719 36.734375 43.507812 36.132812 43.996094 35.648438 C 44.265625 35.375 44.089844 35.085938 43.605469 34.949219 C 43.296875 34.871094 43.121094 35.160156 42.519531 36.695312 C 41.917969 38.207031 41.839844 38.574219 42.054688 38.710938 C 42.480469 38.964844 42.695312 38.808594 42.925781 38.109375 C 43.042969 37.742188 43.257812 37.410156 43.375 37.371094 C 43.664062 37.277344 45.722656 38.246094 45.722656 38.457031 C 45.722656 38.554688 45.585938 38.925781 45.410156 39.273438 C 45.140625 39.796875 45.140625 39.933594 45.351562 40.070312 C 45.820312 40.359375 45.992188 40.164062 46.730469 38.402344 Z M 66.871094 37.257812 C 66.871094 37.082031 66.230469 36.734375 65.222656 36.34375 C 63.574219 35.703125 63.261719 35.394531 63.808594 34.851562 C 64.136719 34.523438 64.542969 34.5625 65.417969 35.007812 C 66.097656 35.355469 66.214844 35.355469 66.464844 35.105469 C 66.816406 34.773438 66.832031 34.792969 65.613281 34.289062 C 64.582031 33.882812 64.351562 33.398438 64.972656 33.007812 C 65.203125 32.855469 65.613281 32.933594 66.621094 33.320312 C 68.328125 33.980469 68.484375 34 68.5625 33.628906 C 68.621094 33.398438 68.113281 33.144531 66.5625 32.5625 C 65.417969 32.15625 64.429688 31.808594 64.371094 31.808594 C 64.273438 31.808594 62.855469 34.347656 62.292969 35.550781 C 62.117188 35.878906 62.078125 35.859375 64.253906 36.734375 C 66.386719 37.566406 66.871094 37.664062 66.871094 37.257812 Z M 39.859375 35.917969 C 40.132812 35.179688 40.460938 34.542969 40.597656 34.484375 C 40.734375 34.425781 41.140625 34.523438 41.472656 34.695312 C 42.132812 35.027344 42.34375 34.988281 42.171875 34.5625 C 42.074219 34.308594 38.871094 32.875 38.386719 32.875 C 37.882812 32.875 38.191406 33.398438 38.832031 33.628906 C 39.667969 33.921875 39.6875 34.210938 39.027344 35.703125 C 38.425781 37.0625 38.40625 37.371094 38.949219 37.296875 C 39.257812 37.257812 39.492188 36.925781 39.859375 35.917969 Z M 36.40625 34.910156 C 35.882812 31.011719 35.84375 30.972656 33.769531 32.933594 C 32.566406 34.09375 32.292969 34.464844 32.46875 34.636719 C 32.660156 34.832031 32.816406 34.792969 33.207031 34.425781 L 33.710938 33.941406 L 34.621094 34.425781 C 35.320312 34.792969 35.554688 35.046875 35.632812 35.472656 C 35.6875 35.800781 35.882812 36.09375 36.117188 36.171875 C 36.328125 36.246094 36.523438 36.304688 36.542969 36.285156 C 36.5625 36.265625 36.503906 35.648438 36.40625 34.910156 Z M 60.761719 34.890625 C 60.933594 34.8125 61.246094 34.425781 61.4375 34.019531 C 61.90625 33.144531 61.90625 33.066406 61.574219 33.066406 C 61.4375 33.066406 60.953125 32.894531 60.507812 32.679688 C 59.558594 32.214844 59.304688 32.195312 59.304688 32.582031 C 59.304688 32.738281 59.617188 32.988281 59.984375 33.144531 C 60.722656 33.457031 60.722656 33.476562 60.546875 33.921875 C 60.390625 34.308594 59.75 34.308594 58.859375 33.941406 C 57.363281 33.320312 56.9375 32.175781 57.867188 31.265625 C 58.140625 30.992188 58.605469 30.703125 58.917969 30.644531 C 59.539062 30.507812 60.742188 30.933594 61.382812 31.554688 C 61.75 31.882812 61.867188 31.921875 62.117188 31.710938 C 62.273438 31.574219 62.410156 31.417969 62.410156 31.339844 C 62.410156 31.285156 61.90625 30.933594 61.265625 30.585938 C 58.878906 29.285156 56.433594 30.101562 56.394531 32.234375 C 56.394531 32.875 57.074219 33.863281 57.828125 34.269531 C 58.160156 34.464844 59.769531 34.929688 60.3125 34.988281 C 60.371094 35.007812 60.585938 34.949219 60.761719 34.890625 Z M 31.246094 33.53125 C 31.421875 33.476562 31.554688 33.28125 31.554688 33.125 C 31.554688 32.894531 31.421875 32.855469 30.953125 32.949219 C 30.042969 33.125 28.878906 32.699219 28.335938 32 C 27.773438 31.246094 27.734375 30.488281 28.277344 29.75 C 28.605469 29.285156 28.820312 29.1875 29.460938 29.1875 C 30.3125 29.1875 31.4375 29.769531 31.75 30.371094 C 32.003906 30.816406 32.527344 30.855469 32.527344 30.429688 C 32.527344 30.023438 31.457031 29.035156 30.625 28.683594 C 29.652344 28.277344 28.414062 28.335938 27.8125 28.800781 C 27.191406 29.304688 26.839844 30.3125 26.996094 31.1875 C 27.285156 32.699219 29.808594 34.074219 31.246094 33.53125 Z M 55.425781 30.796875 C 55.890625 29.789062 56.199219 28.878906 56.121094 28.703125 C 55.910156 28.121094 55.386719 28.492188 54.9375 29.578125 C 54.296875 31.070312 53.988281 30.992188 53.269531 29.1875 C 52.960938 28.394531 52.707031 27.636719 52.707031 27.519531 C 52.707031 27.386719 52.511719 27.25 52.28125 27.171875 C 51.621094 26.996094 51.347656 27.035156 51.347656 27.269531 C 51.347656 27.480469 51.195312 27.871094 50.300781 29.847656 C 50.011719 30.46875 49.816406 31.011719 49.855469 31.050781 C 49.894531 31.089844 50.125 31.148438 50.378906 31.167969 C 50.746094 31.226562 50.882812 31.070312 51.214844 30.253906 C 51.582031 29.382812 51.851562 29.015625 52.125 28.996094 C 52.183594 28.996094 52.53125 29.789062 52.902344 30.757812 C 53.347656 31.921875 53.714844 32.582031 53.96875 32.679688 C 54.183594 32.757812 54.414062 32.777344 54.472656 32.699219 C 54.550781 32.640625 54.976562 31.789062 55.425781 30.796875 Z M 48.75 29.730469 C 48.671875 29.265625 48.574219 28.179688 48.496094 27.308594 C 48.398438 25.949219 48.320312 25.71875 47.972656 25.542969 C 47.605469 25.386719 47.390625 25.503906 46.476562 26.355469 C 45.894531 26.898438 45.0625 27.65625 44.617188 28.023438 L 43.820312 28.703125 L 44.265625 28.9375 C 44.671875 29.109375 44.769531 29.089844 45.042969 28.683594 C 45.410156 28.121094 45.683594 28.101562 46.808594 28.605469 C 47.527344 28.9375 47.660156 29.089844 47.660156 29.578125 C 47.660156 30.140625 48.050781 30.527344 48.613281 30.546875 C 48.808594 30.546875 48.84375 30.351562 48.75 29.730469 Z M 42.675781 27.40625 C 42.34375 26.433594 42.441406 26.085938 43.082031 26.085938 C 43.585938 26.085938 44.167969 25.445312 44.167969 24.902344 C 44.167969 24.476562 43.140625 23.601562 42.460938 23.449219 C 42.171875 23.371094 41.859375 23.253906 41.742188 23.175781 C 41.644531 23.078125 41.238281 22.964844 40.851562 22.886719 C 40.171875 22.75 40.152344 22.769531 39.824219 23.699219 C 39.628906 24.203125 39.316406 25.058594 39.105469 25.582031 C 38.636719 26.785156 38.636719 26.863281 39.203125 26.863281 C 39.570312 26.863281 39.707031 26.726562 39.804688 26.300781 C 39.976562 25.503906 40.347656 25.234375 40.851562 25.484375 C 41.21875 25.699219 41.644531 26.746094 41.644531 27.5 C 41.644531 27.695312 41.839844 27.929688 42.09375 28.023438 C 42.90625 28.355469 42.984375 28.277344 42.675781 27.40625 Z M 37.726562 24.960938 C 38.871094 24.144531 39.007812 22.402344 38.019531 21.238281 C 36.5625 19.511719 34.15625 19.433594 33.128906 21.101562 C 31.886719 23.117188 33.613281 25.621094 36.136719 25.445312 C 36.757812 25.40625 37.339844 25.214844 37.726562 24.960938 Z M 37.726562 24.960938 "
  />
  <path
    d="M 40.441406 47.398438 C 39.648438 46.992188 39.53125 46.644531 40.015625 46.234375 C 40.289062 46.023438 40.460938 46.0625 41.238281 46.449219 C 41.839844 46.777344 42.152344 47.070312 42.191406 47.378906 C 42.246094 47.730469 42.171875 47.804688 41.703125 47.789062 C 41.414062 47.769531 40.832031 47.59375 40.441406 47.398438 Z M 41.257812 45.847656 C 40.890625 45.652344 40.5 45.480469 40.425781 45.441406 C 40.171875 45.34375 40.5 44.703125 40.792969 44.703125 C 40.949219 44.703125 41.257812 44.800781 41.511719 44.9375 C 41.742188 45.050781 42.074219 45.207031 42.230469 45.285156 C 42.382812 45.363281 42.539062 45.613281 42.578125 45.847656 C 42.65625 46.351562 42.230469 46.371094 41.257812 45.847656 Z M 34.078125 44.507812 C 33.921875 44.433594 33.457031 44.199219 33.050781 44.023438 C 32.371094 43.734375 32.3125 43.636719 32.429688 43.191406 C 32.640625 42.335938 32.835938 42.28125 33.828125 42.785156 C 35.320312 43.539062 35.515625 43.8125 34.894531 44.375 C 34.484375 44.742188 34.484375 44.742188 34.078125 44.507812 Z M 33.980469 42.222656 C 32.972656 41.679688 32.777344 41.308594 33.339844 40.960938 C 33.84375 40.632812 35.632812 41.523438 35.632812 42.105469 C 35.632812 42.433594 35.203125 42.859375 34.992188 42.746094 C 34.972656 42.746094 34.523438 42.492188 33.980469 42.222656 Z M 49 40.804688 C 48.28125 40.050781 48.300781 39.660156 49.019531 38.886719 C 49.542969 38.324219 49.699219 38.265625 50.320312 38.363281 C 52.511719 38.730469 52.511719 41.40625 50.320312 41.40625 C 49.71875 41.40625 49.445312 41.289062 49 40.804688 Z M 34.621094 33.960938 C 34.15625 33.609375 34.175781 33.320312 34.679688 33.046875 C 35.242188 32.757812 35.59375 33.222656 35.320312 33.921875 C 35.183594 34.289062 35.046875 34.308594 34.621094 33.960938 Z M 46.652344 28.082031 C 46.207031 27.96875 46.207031 27.578125 46.652344 27.191406 C 47.15625 26.726562 47.410156 26.785156 47.527344 27.386719 C 47.679688 28.199219 47.527344 28.316406 46.652344 28.082031 Z M 41.703125 25.15625 C 40.675781 24.726562 40.441406 24.496094 40.597656 24.089844 C 40.753906 23.660156 41.355469 23.679688 42.382812 24.144531 C 43.21875 24.515625 43.394531 24.84375 42.964844 25.269531 C 42.675781 25.5625 42.714844 25.5625 41.703125 25.15625 Z M 35.046875 24.59375 C 34.894531 24.535156 34.523438 24.261719 34.234375 23.992188 C 33.417969 23.234375 33.476562 22.167969 34.390625 21.316406 C 35.105469 20.617188 35.574219 20.519531 36.269531 20.867188 C 37.222656 21.375 37.570312 21.859375 37.570312 22.75 C 37.570312 24.164062 36.347656 25.058594 35.046875 24.59375 Z M 35.046875 24.59375 "
  />
</svg>
