<svg id="root" xmlns="http://www.w3.org/2000/svg"
  style="transform:matrix(1,0,0,1,0,0);transform-origin:50% 50%;cursor:move" width="1536" height="882"
  viewBox="0 0 15360 8820">
  <g>
    <path
      d="M8060 7658c-19-11-57-33-85-48-87-46-170-93-180-100-9-7-30-19-122-71-21-11-42-25-47-30-6-5-18-9-28-9s-18-4-18-8c0-5-18-17-40-27s-45-24-51-32c-6-7-17-13-25-13-7 0-33-13-57-30-25-16-49-30-54-30-11 0-34-47-63-125-4-11-12-31-18-45s-13-56-17-95c-18-211-27-346-27-395 0-95 21-523 27-560 7-36 9-44 44-122 12-26 21-55 21-63s4-15 8-15c5 0 15-22 22-50 7-27 17-50 22-50 4 0 8-8 8-18 0-21 41-61 130-126 36-26 72-53 80-60 28-22 105-71 135-86 17-8 32-17 35-20s25-15 50-28c72-38 125-67 130-72 3-3 32-19 65-36 119-62 150-79 153-86 2-5 8-8 13-8 9 0 218-136 229-149 3-3 12-10 21-16 9-5 60-40 113-77 94-63 130-102 201-217 6-9 12-18 16-21 3-3 25-34 50-70 24-36 46-67 49-70 25-23 90-135 90-155 0-9 5-24 10-35 6-11 15-29 20-40 6-11 10-27 10-35s5-24 10-35c6-11 15-29 20-40 6-11 10-27 10-35s5-24 10-35c6-11 15-29 20-40 6-11 10-29 10-39 0-11 4-22 8-25s14-28 22-56 18-53 22-56 8-14 8-25c0-10 4-27 9-37 35-68 36-80 52-397 15-277 17-796 5-992-9-149-8-155 32-134 9 5 33 16 52 24 50 21 109 46 158 68 23 10 61 28 85 38 23 10 59 26 79 35 21 9 55 23 75 32 58 25 126 55 145 65 10 5 25 9 33 9s15 5 15 10c0 6 7 10 15 10 23 0 55 20 103 65 40 37 42 42 42 96 0 32-4 61-10 64-5 3-10 15-10 26 0 10-4 27-9 37-12 23-26 60-41 102s-29 79-41 102c-5 10-9 25-9 33s-4 24-10 35c-5 11-14 29-20 40-5 11-10 27-10 35s-4 23-9 33c-12 23-26 60-41 102s-29 79-41 102c-5 10-9 25-9 33s-4 24-10 35c-5 11-14 29-20 40-5 11-10 27-10 35s-4 23-9 33c-12 23-26 60-41 102s-29 79-41 102c-5 10-9 25-9 33s-4 24-10 35c-5 11-14 29-20 40-5 11-10 27-10 35s-4 23-9 33c-12 23-26 60-41 102s-29 79-41 102c-5 10-9 25-9 33s-5 25-12 38c-24 47-28 57-28 72 0 8-4 23-9 33-12 23-26 60-41 102s-29 79-41 102c-5 10-9 25-9 33s-4 24-10 35c-5 11-14 29-20 40-5 11-10 27-10 35s-4 23-9 33c-12 23-26 60-41 102s-29 79-41 102c-5 10-9 25-9 33s-5 25-12 38c-24 47-28 57-28 72 0 8-4 23-9 33-12 23-26 60-41 102s-29 79-41 102c-5 10-9 25-9 33s-4 24-10 35c-5 11-14 29-20 40-5 11-10 27-10 35s-4 23-9 33c-12 23-26 60-41 102s-29 79-41 102c-5 10-9 25-9 33s-4 24-10 35c-5 11-14 29-20 40-5 11-10 27-10 35s-4 23-9 33c-12 23-26 60-41 102s-29 79-41 102c-5 10-9 25-9 33s-4 24-10 35c-5 11-14 29-20 40-5 11-10 27-10 35s-4 23-9 33c-15 29-29 65-42 107-7 22-17 44-21 50-4 5-8 19-8 32s-4 23-10 23c-5 0-10 9-10 20 0 20-4 29-28 77-7 13-12 30-12 38s-4 23-9 33c-15 29-29 65-42 107-7 22-17 44-21 50-4 5-8 19-8 32s-4 23-10 23c-5 0-10 9-10 20s-4 29-10 40c-5 11-14 29-20 40-5 11-10 29-10 40s-5 20-11 20c-5 0-7 5-3 11 4 8 9 8 17 0 6-6 24-11 39-11 16 0 36-4 46-9 9-5 25-12 35-15 9-3 22-18 28-33s15-36 20-45c5-10 9-25 9-33s4-23 9-33c15-29 29-65 42-107 7-22 17-44 21-50 4-5 8-19 8-32s5-23 10-23c6 0 10-10 10-23s4-27 8-32c4-6 14-28 21-50 13-42 27-78 42-107 5-10 9-25 9-33s5-24 10-35c6-11 15-29 20-40 6-11 10-27 10-35 0-15 4-25 28-72 7-13 12-30 12-38s5-24 10-35c6-11 15-29 20-40 6-11 10-27 10-35s5-24 10-35c6-11 15-29 20-40 6-11 10-27 10-35 0-15 4-25 28-72 7-13 12-30 12-38s5-25 12-38c24-47 28-57 28-72 0-8 4-24 10-35 5-11 14-29 20-40 5-11 10-27 10-35s5-25 12-38c24-47 28-57 28-72 0-8 5-24 10-35 6-11 15-29 20-40 6-11 10-27 10-35s4-23 9-33c15-29 29-65 42-107 7-22 17-44 21-49 4-6 8-18 8-28s4-26 9-36c15-29 29-65 42-107 7-22 17-44 21-49 4-6 8-20 8-33s5-23 10-23c6 0 10-10 10-23s4-27 8-33c4-5 14-27 21-49 13-42 27-78 42-107 5-10 9-26 9-36s4-22 8-28c4-5 14-27 21-49 13-42 27-78 42-107 5-10 9-25 9-33s5-24 10-35c6-11 15-29 20-40 6-11 10-27 10-35s5-24 10-35c6-11 15-29 20-40 6-11 10-27 10-35s5-24 10-35c6-11 15-29 20-40 6-11 10-27 10-35s5-24 10-35c6-11 15-29 20-40 6-11 10-27 10-35s5-24 10-35c6-11 15-29 20-40 6-11 10-27 10-35s5-24 10-35c6-11 15-29 20-40 6-11 10-27 10-35s5-24 10-35c6-11 15-29 20-40 6-11 10-27 10-35s4-23 9-33c15-29 29-65 42-107 7-22 17-44 21-50 4-5 8-17 8-27s4-26 9-36c15-29 29-65 42-107 7-22 17-44 21-50 4-5 8-17 8-27s4-26 9-36c15-29 29-65 42-107 7-22 17-44 21-50 4-5 8-19 8-32s5-23 10-23c6 0 10-10 10-23s4-27 8-32c4-6 14-28 21-50 13-42 27-78 42-107 5-10 9-25 9-33s4-23 9-33c27-53 32-72 29-107-2-21-10-41-18-45-15-8-53-23-92-39-13-4-35-13-50-20-52-21-73-29-108-41-19-7-54-21-77-31-24-10-63-28-88-39s-65-29-90-40c-184-82-270-121-287-130-10-6-25-10-33-10s-15-4-15-10c0-5-6-10-13-10-12 0-80-29-119-50-10-6-25-10-33-10s-15-4-15-10c0-5-6-10-14-10s-31-8-53-19c-35-17-60-29-178-81-184-82-270-121-287-130-10-6-25-10-33-10s-15-4-15-10c0-5-6-10-13-10-12 0-80-29-119-50-10-6-25-10-33-10s-15-4-15-10c0-5-6-10-14-10s-31-8-53-19c-35-17-60-29-178-81-25-11-65-29-90-40s-65-29-90-40c-118-52-143-64-178-81-22-11-47-19-58-19-10 0-19-4-19-8s-21-14-47-21c-27-8-55-18-63-22-8-3-27-12-42-18-16-6-40-16-55-22-16-7-37-15-48-19s-33-13-50-20c-16-7-40-17-52-21-13-5-33-13-45-18-76-29-238-43-238-21 0 6 6 10 13 10 8 0 27 6 43 14s47 22 69 31 60 26 85 37 54 24 65 28 41 17 68 29c102 46 133 60 170 75 20 9 54 23 75 32 57 25 125 55 144 65 10 5 25 9 33 9s15 5 15 10c0 6 7 10 15 10s23 4 33 9c26 14 116 53 222 98 52 22 123 54 142 64 10 5 25 9 33 9s15 5 15 10c0 6 6 10 13 10 8 0 27 6 43 14s47 22 69 31c60 26 128 56 147 66 10 5 25 9 33 9s15 5 15 10c0 6 7 10 15 10s23 4 33 9c19 10 87 40 145 65 20 9 54 23 75 32 57 25 125 55 144 65 10 5 25 9 33 9s15 5 15 10c0 6 10 10 21 10 18 0 20 4 15 28-4 15-12 83-17 152-15 180-28 298-59 535-6 44-13 107-16 140s-10 64-15 70c-5 5-9 21-9 36s-4 31-10 34c-5 3-10 17-10 30s-4 27-10 30c-5 3-10 19-10 35s-4 32-10 35c-5 3-10 15-10 26 0 10-4 27-9 37-5 9-14 37-21 62s-16 53-21 62c-5 10-9 27-9 37 0 11-4 23-10 26-5 3-10 14-10 25 0 10-23 62-52 116-28 55-70 135-92 179-23 44-44 82-48 83-5 2-8 12-8 22s-3 20-7 22c-5 2-25 37-47 79-32 63-57 93-145 176-58 54-113 104-121 111-28 23-141 92-150 92-6 0-10 5-10 10 0 6-5 10-11 10s-30 14-54 30c-24 17-46 30-49 30-6 0-125 75-143 90-7 5-15 10-18 10-4 0-26 14-50 30-24 17-46 30-49 30-5 0-120 71-141 87-5 5-23 14-40 22-34 17-337 323-357 361-7 14-15 27-18 30s-11 16-18 29c-35 61-51 90-81 139-17 29-31 57-31 62 0 6-4 10-9 10-9 0-16 33-27 115-3 22-9 49-14 60s-11 38-14 60-10 65-16 95c-23 119-27 171-19 256 13 136 46 382 79 594 21 140 30 198 39 265 5 39 13 80 16 93 6 18 3 22-13 22-11 0-22-3-24-7-1-5-23-19-48-32s-63-33-85-45c-22-11-42-23-45-26-6-6-43-27-95-54-22-12-42-23-45-26-9-9-65-41-102-58-21-9-38-20-38-24 0-5-8-8-19-8-10 0-24-6-30-14-7-8-38-27-69-42s-59-30-62-34c-3-3-30-20-60-36-30-17-73-41-95-54s-71-40-110-60c-38-20-87-46-107-58-21-12-54-31-73-42s-51-29-70-40-51-29-70-40-51-29-70-40-52-30-72-41c-93-53-120-69-153-85-19-10-37-20-40-23-3-4-24-16-47-28-24-13-62-33-85-45-24-13-45-25-48-28-9-9-65-41-102-58-21-9-38-20-38-24 0-5-8-8-18-8-20 0-51-31-71-71-11-23-10-35 8-90 12-35 26-72 31-81 6-10 10-27 10-37 0-11 5-23 10-26 6-3 10-15 10-26 0-19 4-28 28-76 7-13 12-32 12-42 0-11 5-23 10-26 6-3 10-17 10-31 0-13 4-32 9-42 5-9 15-37 21-62 20-73 50-164 60-182 6-10 10-27 10-37 0-11 4-23 10-26 5-3 10-15 10-26 0-10 4-27 9-37 5-9 15-37 21-62 22-78 90-284 100-302 6-10 10-27 10-37 0-11 4-23 10-26s10-17 10-30 4-27 10-30c5-3 10-17 10-31 0-13 5-24 10-24 6 0 10-13 10-29 0-17 5-33 10-36 6-3 10-15 10-26 0-10 4-27 9-37 5-9 15-37 21-62 22-80 34-115 42-125 4-5 8-19 8-31 0-13 5-26 10-29 6-3 10-17 10-30s5-27 10-30c6-3 10-15 10-26 0-10 5-29 12-42 24-48 28-57 28-76 0-11 5-23 10-26s10-15 10-26c0-10 4-27 9-37 5-9 15-37 21-62 22-78 90-284 100-302 6-10 10-27 10-37 0-11 4-23 10-26 5-3 10-15 10-26 0-10 4-28 10-39s15-29 20-40c6-11 10-29 10-40s4-28 9-38c5-9 19-51 31-92 38-127 61-194 70-212 6-10 10-27 10-37 0-11 4-23 10-26 5-3 10-17 10-31 0-13 5-24 10-24 6 0 10-11 10-24 0-14 5-28 10-31 6-3 10-15 10-26 0-10 4-27 9-37 5-9 15-37 22-62 21-78 109-344 119-362 6-10 10-27 10-37 0-11 5-23 10-26 6-3 10-17 10-31 0-13 5-24 10-24 6 0 10-11 10-25s4-33 9-43c5-9 19-51 31-92 11-41 25-83 30-92 6-10 10-27 10-37 0-11 5-23 10-26 6-3 10-16 10-29 0-12 4-26 8-31 5-6 19-44 32-85s27-79 32-85c4-5 8-19 8-31 0-13 5-26 10-29 6-3 10-17 10-30s4-34 9-47 24-70 42-128 36-109 41-115c4-5 8-17 8-27 0-11 16-24 43-36 65-29 225-20 325 19 13 5 36 9 52 9s32 5 35 10c3 6 17 10 30 10s27 5 30 10c3 6 14 10 23 10s44 14 77 30c33 17 65 30 72 30s13 5 13 10c0 6 9 10 20 10s28 4 38 9c9 5 35 17 57 26 22 10 53 23 69 31s35 14 43 14c7 0 13 5 13 10 0 6 8 10 19 10 10 0 47 14 82 31 35 18 73 35 84 39 35 13 69 27 120 50 28 12 59 26 70 30s52 22 90 40c68 31 89 40 138 59 45 17 73 29 122 51 28 12 59 26 70 30s49 21 84 39c35 17 72 31 82 31 11 0 19 5 19 10 0 6 8 10 18 10s37 9 60 20c22 11 46 20 52 20 5 0 10 5 10 10 0 6 7 10 15 10s23 4 33 9c9 5 28 13 42 19 14 5 54 23 89 41 35 17 72 31 82 31 11 0 19 5 19 10 0 6 8 10 18 10s37 9 60 20c22 11 46 20 52 20 5 0 10 5 10 10 0 6 7 10 15 10s23 4 33 9c16 8 31 15 100 43 17 7 32 16 32 20 0 5 9 8 20 8s28 4 38 9c9 5 28 13 42 18 14 6 45 20 68 32 24 11 50 21 58 21s14 5 14 10c0 6 9 10 19 10 11 0 48 14 83 31 34 17 73 35 86 40 57 23 69 28 105 43 20 9 54 23 75 32 48 21 82 35 107 44 11 5 41 17 67 29s52 21 57 21c14 0 76 63 88 90 25 54 38 130 25 150-7 11-12 27-12 37 0 16-31 115-50 158-5 11-18 49-30 85s-25 74-30 85-16 40-24 65-33 97-56 160-52 149-66 190-29 84-33 95c-5 11-14 36-21 55s-16 44-20 55c-5 11-18 49-30 85s-25 74-30 85-18 49-30 85-25 74-30 85-14 38-21 60-17 44-21 50c-4 5-8 17-8 27s-4 27-10 38c-5 11-14 29-20 40-5 11-10 28-10 38s-4 22-8 27c-5 6-15 30-22 55-8 25-16 50-20 55-3 6-17 44-30 85s-27 79-32 84c-4 6-8 20-8 32 0 13-4 25-8 28s-14 28-22 56-18 53-22 56-8 16-8 29-4 26-8 29-14 28-22 56-18 53-22 56-8 14-8 25c0 19-4 28-28 76-7 13-12 30-12 38 0 15-4 25-28 72-7 13-12 30-12 38s-4 23-9 33c-12 23-25 56-51 127-40 109-73 192-91 227-5 10-9 24-9 31s-9 32-20 55c-11 22-20 48-20 56s-4 18-10 21c-5 3-10 15-10 26 0 10-4 27-9 37-15 29-29 65-42 107-7 22-17 44-21 50-4 5-8 17-8 27 0 18-4 28-28 75-7 13-12 30-12 38s-5 25-12 38c-24 47-28 57-28 72 0 8-4 23-9 33-12 23-26 60-41 102-7 19-16 44-20 55s-13 36-20 55-16 44-20 55-22 58-40 105c-34 91-48 126-59 150-4 8-14 36-22 63-7 26-17 47-21 47s-8 9-8 20-4 29-10 40c-5 11-14 29-20 40-5 11-10 28-10 39s-3 21-7 23c-5 2-15 17-25 33-35 64-133 89-179 46-12-11-29-21-36-21s-13-5-13-11-12-9-27-7c-21 2-29 9-31 28-2 14-8 29-13 34-5 6-9 20-9 33s-4 23-10 23c-5 0-10 11-10 24 0 14-4 27-8 30s-14 28-22 56-18 53-22 56-8 14-8 25c0 19-4 28-28 76-7 13-12 29-12 37s-19 28-42 45c-52 38-122 42-178 9zm-257-794c20-3 40-10 43-15s16-9 28-9c28 0 124-104 175-189 58-97 71-121 71-136 0-9 4-23 9-33 16-30 34-156 28-202-8-64-23-142-31-165-8-20-18-45-35-87-5-13-11-28-13-35-7-24-132-144-165-158-62-26-198-18-265 16-10 5-27 9-37 9-11 0-32 16-48 38-15 20-34 43-41 50-7 8-25 30-40 50-15 21-29 39-32 42-14 14-30 52-30 73 0 13-4 27-8 33-5 5-14 29-21 54-8 25-18 57-23 71-17 46 1 281 28 369 11 37 56 99 108 149 50 49 66 48 48-2-18-51-16-87 6-87 11 0 24-12 31-27 8-16 17-36 22-45 5-10 9-27 9-37 0-11 5-23 10-26 6-3 10-16 10-29 0-12 3-26 7-30 9-9 33-78 33-97 0-8-13-28-29-43s-31-40-35-54c-3-15-9-45-13-67-8-37-11-40-47-45-47-6-74-43-75-102-1-33 2-38 22-38 30 0 87 28 94 46 7 19 25 18 49-3 34-31 105-63 140-63 33 0 34-1 34-42 1-50 13-69 57-84 29-11 34-10 48 12 22 34 18 75-10 108-32 38-32 47 9 103 23 33 35 63 39 97 6 58 38 92 68 73 46-29 96 86 52 119-34 25-103 8-103-25 0-25-30-21-58 8-26 28-35 31-91 31-58 0-62 2-72 27-6 15-17 44-26 63-8 19-18 44-23 55-13 34-32 79-41 97-12 24-11 58 1 58 6 0 10 14 10 30 0 20-5 30-15 30-8 0-23 4-33 9-9 5-25 12-36 15-26 9-2 36 33 36 14 0 33 5 41 10 14 10 52 8 133-6zm17-2907c0-8-31-28-70-45-51-23-70-36-70-51 0-28 22-31 70-10 51 23 50 23 50 4 0-9-12-21-27-27-41-17-62-38-56-54 8-21 33-17 99 15 41 20 63 26 72 19 17-14 15-28-3-28-8 0-37-10-63-21-95-43-110-49-119-49-7 0-83 154-83 169 0 7 170 89 188 90 6 1 12-5 12-12zm-240-108c0-5-29-24-65-40-36-17-65-35-65-41 0-5 14-39 30-76 24-51 28-67 18-73-24-16-34-9-53 39-11 26-28 62-37 81-18 35-11 60 16 61 6 1 36 14 66 29 59 31 90 38 90 20zm-245-121c22-10 26-17 22-42-3-22 1-38 16-53 38-42 9-71-130-129l-32-14-20 42c-31 70-51 120-51 129 0 5 11 14 25 19s44 18 68 28c23 11 49 22 57 25s16 6 17 6c1 1 14-4 28-11zm1160-48c0-11-15-16-58-20s-66-12-92-33c-40-32-45-62-15-100 40-50 121-44 175 13 30 31 55 39 55 17 0-17-58-70-93-85-15-7-53-12-83-12-50 0-59 3-90 34-66 66-32 149 76 187 64 22 125 22 125-1zm-1395-115c13-33 28-66 33-72 12-16 2-43-16-43-7 0-18 10-24 23-55 114-64 151-40 160 17 6 21 1 47-68zm-109-11c7-8 9-31 6-54-3-28-1-40 7-40 7 0 19-11 26-25 11-20 10-28-3-48-8-13-30-31-49-39-98-46-151-69-153-66-5 6-75 201-75 208 0 4 17 15 38 23 20 9 63 27 95 40 60 25 88 25 108 1zm1227-64c44-88 46-110 14-110-12 0-32 30-64 94-26 52-44 97-41 100 4 3 16 6 27 5 16 0 31-21 64-89zm-138 39c0-5-31-23-70-40-38-18-70-36-70-41 0-4 16-40 35-79 36-71 38-89 6-89-12 0-30 27-61 90-23 50-40 93-37 97 13 12 182 81 190 76 4-2 7-8 7-14zm-237-159c48-53 33-124-36-164-64-38-138-37-178 3-22 23-29 39-29 70 0 108 169 171 243 91zm-291-155c21-49 38-90 38-92 0-1-9-7-20-13-17-9-21-6-34 25-17 40-30 43-92 15-45-21-58-52-33-77 14-14 5-29-20-36-16-4-25 11-56 90-31 78-35 97-24 104 22 13 33 5 45-31 6-19 17-36 23-38 15-5 121 45 121 56 0 5-7 24-16 42-14 27-14 34-3 41 24 15 33 5 71-86zm1038-59c0-9-33-27-85-47-85-33-101-49-73-77 17-17 38-15 83 8 35 18 41 18 54 5 18-17 19-16-44-42-53-21-65-46-33-66 12-8 33-4 85 16 88 34 96 35 100 16 3-12-23-25-103-55-59-21-110-39-113-39-5 0-78 131-107 193-9 17-11 16 101 61 110 43 135 48 135 27zm-1392-69c14-38 31-71 38-74s28 2 45 11c34 17 45 15 36-7-5-13-170-87-195-87-26 0-10 27 23 39 43 15 44 30 10 107-31 70-32 86-4 82 16-2 28-19 47-71zm-178-52c-27-201-29-203-136-102-62 60-76 79-67 88 10 10 18 8 38-11l26-25 47 25c36 19 48 32 52 54 3 17 13 32 25 36 11 4 21 7 22 6s-2-33-7-71zm1255-1c9-4 25-24 35-45 24-45 24-49 7-49-7 0-32-9-55-20-49-24-62-25-62-5 0 8 16 21 35 29 38 16 38 17 29 40-8 20-41 20-87 1-77-32-99-91-51-138 14-14 38-29 54-32 32-7 94 15 127 47 19 17 25 19 38 8 8-7 15-15 15-19 0-3-26-21-59-39-123-67-249-25-251 85 0 33 35 84 74 105 17 10 100 34 128 37 3 1 14-2 23-5zm-1521-70c9-3 16-13 16-21 0-12-7-14-31-9-47 9-107-13-135-49-29-39-31-78-3-116 17-24 28-29 61-29 44 0 102 30 118 61 13 23 40 25 40 3 0-21-55-72-98-90-50-21-114-18-145 6-32 26-50 78-42 123 15 78 145 149 219 121zm1246-141c24-52 40-99 36-108-11-30-38-11-61 45-33 77-49 73-86-20-16-41-29-80-29-86 0-7-10-14-22-18-34-9-48-7-48 5 0 11-8 31-54 133-15 32-25 60-23 62s14 5 27 6c19 3 26-5 43-47 19-45 33-64 47-65 3 0 21 41 40 91 23 60 42 94 55 99 11 4 23 5 26 1 4-3 26-47 49-98zm-344-55c-4-24-9-80-13-125-5-70-9-82-27-91-19-8-30-2-77 42-30 28-73 67-96 86l-41 35 23 12c21 9 26 8 40-13 19-29 33-30 91-4 37 17 44 25 44 50 0 29 20 49 49 50 10 0 12-10 7-42zm-313-120c-17-50-12-68 21-68 26 0 56-33 56-61 0-22-53-67-88-75-15-4-31-10-37-14-5-5-26-11-46-15-35-7-36-6-53 42-10 26-26 70-37 97-24 62-24 66 5 66 19 0 26-7 31-29 9-41 28-55 54-42 19 11 41 65 41 104 0 10 10 22 23 27 42 17 46 13 30-32zm-255-126c59-42 66-132 15-192-75-89-199-93-252-7-64 104 25 233 155 224 32-2 62-12 82-25z" />
    <path
      d="M7228 3679c-41-21-47-39-22-60 14-11 23-9 63 11 31 17 47 32 49 48 3 18-1 22-25 21-15-1-45-10-65-20zm42-80c-19-10-39-19-43-21-13-5 4-38 19-38 8 0 24 5 37 12 12 6 29 14 37 18s16 17 18 29c4 26-18 27-68 0zm-370-69c-8-4-32-16-53-25-35-15-38-20-32-43 11-44 21-47 72-21 77 39 87 53 55 82-21 19-21 19-42 7zm-5-118c-52-28-62-47-33-65 26-17 118 29 118 59 0 17-22 39-33 33-1 0-24-13-52-27zm774-73c-37-39-36-59 1-99 27-29 35-32 67-27 113 19 113 157 0 157-31 0-45-6-68-31zm-741-353c-24-18-23-33 3-47 29-15 47 9 33 45-7 19-14 20-36 2zm620-303c-23-6-23-26 0-46 26-24 39-21 45 10 8 42 0 48-45 36zm-255-151c-53-22-65-34-57-55 8-22 39-21 92 3 43 19 52 36 30 58-15 15-13 15-65-6zm-343-29c-8-3-27-17-42-31-42-39-39-94 8-138 37-36 61-41 97-23 49 26 67 51 67 97 0 73-63 119-130 95z" />
  </g>
</svg>