<svg xmlns="http://www.w3.org/2000/svg" id="root" viewBox="0 0 100 43">
  <path
    d="M 81.167969 39.777344 C 63.121094 36.636719 62.535156 36.539062 56.238281 34.851562 C 52.699219 33.929688 49.691406 33.046875 49.550781 32.929688 C 49.433594 32.8125 49.0625 32.085938 48.75 31.320312 C 47.65625 28.730469 47.5 28.554688 44.390625 26.886719 C 42.847656 26.0625 40.714844 25.039062 39.679688 24.648438 C 38.621094 24.253906 37.761719 23.863281 37.761719 23.785156 C 37.761719 23.46875 40.734375 18.289062 40.910156 18.289062 C 41.027344 18.289062 48.554688 21.644531 57.667969 25.726562 C 73.699219 32.910156 74.597656 33.300781 85.273438 37.285156 C 91.355469 39.542969 97.027344 41.640625 97.886719 41.9375 C 99.214844 42.40625 100.429688 43.054688 99.839844 42.996094 C 99.722656 42.976562 91.335938 41.523438 81.167969 39.777344 Z M 87.386719 39.503906 C 87.425781 39.25 87.328125 39.050781 87.09375 38.972656 C 84.726562 38.148438 44.351562 22.175781 42.789062 21.449219 C 41.632812 20.898438 40.597656 20.449219 40.480469 20.449219 C 40.1875 20.449219 39.132812 22.234375 39.132812 22.726562 C 39.132812 23.078125 39.660156 23.371094 42.808594 24.785156 C 44.820312 25.667969 46.796875 26.609375 47.1875 26.84375 C 48.164062 27.472656 48.730469 28.277344 49.589844 30.300781 L 50.316406 32.007812 L 51.703125 32.320312 C 53.425781 32.734375 63.980469 35.105469 71.785156 36.855469 C 74.953125 37.578125 79.585938 38.621094 82.050781 39.167969 C 84.628906 39.757812 86.722656 40.132812 86.9375 40.074219 C 87.152344 39.992188 87.347656 39.738281 87.386719 39.503906 Z M 87.386719 39.503906 "
  />
  <path
    d="M 84.199219 38.972656 C 83.105469 38.699219 78.785156 37.71875 66.992188 35.066406 C 53.621094 32.066406 50.785156 31.417969 50.765625 31.378906 C 50.746094 31.359375 50.453125 30.652344 50.121094 29.808594 C 49.433594 28.082031 48.574219 26.90625 47.558594 26.257812 C 47.167969 26 45.289062 25.117188 43.375 24.273438 C 41.476562 23.429688 39.914062 22.664062 39.914062 22.566406 C 39.914062 22.46875 40.050781 22.136719 40.226562 21.800781 C 40.578125 21.117188 40.675781 21.136719 42.710938 22.15625 C 43.433594 22.507812 46.171875 23.648438 48.769531 24.6875 C 53.25 26.453125 55.320312 27.277344 66.699219 31.730469 C 69.339844 32.773438 72.371094 33.96875 73.445312 34.382812 C 74.519531 34.8125 77.550781 36.011719 80.191406 37.03125 C 86.46875 39.484375 86.625 39.5625 84.199219 38.972656 Z M 36.492188 23.3125 C 36.277344 23.175781 35.632812 22.980469 35.082031 22.902344 L 34.046875 22.765625 L 34.183594 20.78125 L 34.300781 18.800781 L 33.363281 17.996094 L 32.425781 17.171875 L 30.9375 17.542969 C 30.117188 17.757812 29.394531 17.996094 29.316406 18.074219 C 29.238281 18.132812 29.375 18.820312 29.648438 19.566406 C 30.214844 21.15625 30.273438 22.019531 29.84375 22.019531 C 29.648438 22.019531 29.550781 21.820312 29.550781 21.351562 C 29.550781 20.46875 28.867188 19.644531 25.582031 16.601562 C 23.15625 14.34375 22.53125 13.894531 18.933594 11.773438 C 15.511719 9.734375 14.554688 9.261719 11.757812 8.242188 C 8.746094 7.164062 8.375 7.085938 6.085938 6.90625 C 4.738281 6.828125 3.253906 6.808594 2.761719 6.886719 C 2.019531 7.003906 2.253906 7.046875 4.230469 7.183594 C 5.519531 7.261719 7.242188 7.457031 8.042969 7.59375 C 9.957031 7.929688 15.609375 10.164062 17.351562 11.265625 C 18.09375 11.753906 19.675781 12.695312 20.851562 13.382812 C 24.191406 15.308594 28.964844 19.976562 28.964844 21.3125 L 28.964844 21.820312 L 27.984375 21.332031 C 27.4375 21.054688 26.519531 20.527344 25.933594 20.152344 C 24.425781 19.191406 19.03125 16.679688 12.832031 14.070312 C 3.332031 10.085938 1.746094 9.222656 1.375 7.808594 C 1.21875 7.242188 1.21875 7.003906 1.375 6.945312 C 1.492188 6.90625 1.257812 6.222656 0.789062 5.316406 L 0.0078125 3.75 L 0.652344 2.550781 L 1.296875 1.375 L 2.3125 1.472656 C 3 1.550781 3.351562 1.511719 3.429688 1.355469 C 3.488281 1.175781 3.527344 1.195312 3.527344 1.375 C 3.546875 1.492188 3.742188 1.609375 3.957031 1.609375 C 4.191406 1.609375 4.894531 1.84375 5.519531 2.121094 C 6.417969 2.53125 6.910156 2.945312 7.964844 4.199219 L 9.273438 5.769531 L 14.867188 8.554688 C 18.992188 10.636719 20.851562 11.460938 21.925781 11.695312 C 22.726562 11.890625 24.898438 12.382812 26.753906 12.792969 L 30.097656 13.558594 L 31.132812 14.679688 C 31.722656 15.265625 32.367188 15.855469 32.582031 15.972656 C 33.03125 16.210938 33.050781 16.25 31.722656 14.679688 C 31.113281 13.972656 31.09375 13.875 31.40625 13.660156 C 31.582031 13.519531 32.074219 13.34375 32.503906 13.285156 C 33.207031 13.167969 33.265625 13.109375 33.265625 12.5 L 33.265625 11.851562 L 34.4375 12.148438 C 35.4375 12.402344 35.75 12.597656 36.492188 13.421875 C 36.980469 13.972656 37.371094 14.523438 37.371094 14.679688 C 37.371094 14.992188 36.335938 15.777344 35.457031 16.132812 C 35.101562 16.269531 34.4375 16.328125 33.949219 16.289062 C 33.460938 16.230469 33.070312 16.210938 33.070312 16.25 C 33.070312 16.289062 33.421875 16.503906 33.871094 16.71875 L 34.652344 17.132812 L 36.277344 16.25 L 37.917969 15.367188 L 38.269531 16.050781 C 38.484375 16.425781 39.015625 16.957031 39.484375 17.230469 C 39.933594 17.503906 40.304688 17.78125 40.304688 17.878906 C 40.304688 17.957031 40.089844 18.230469 39.835938 18.464844 C 39.582031 18.703125 39.171875 19.449219 38.9375 20.113281 C 38.289062 21.878906 37.410156 23.589844 37.117188 23.589844 C 36.980469 23.589844 36.707031 23.46875 36.492188 23.3125 Z M 36.492188 23.3125 "
  />
  <path
    d="M 31.445312 22.566406 C 30.546875 22.371094 30.488281 22.332031 30.605469 21.820312 C 30.664062 21.527344 30.546875 20.585938 30.332031 19.742188 C 30.136719 18.878906 29.980469 18.191406 30 18.171875 C 30.390625 18.015625 31.78125 17.699219 32.132812 17.699219 C 33.148438 17.699219 33.851562 19.054688 33.851562 21.054688 C 33.851562 22.117188 33.832031 22.15625 33.167969 22.46875 C 32.777344 22.644531 32.445312 22.785156 32.425781 22.785156 C 32.40625 22.765625 31.957031 22.664062 31.445312 22.566406 Z M 25.347656 11.929688 C 19.988281 10.578125 20.085938 10.617188 17.132812 8.96875 C 15.746094 8.183594 13.398438 6.945312 11.953125 6.222656 C 9.371094 4.925781 9.292969 4.867188 8.238281 3.453125 C 7.261719 2.160156 7.046875 1.980469 6.007812 1.628906 C 5.363281 1.394531 4.640625 1.214844 4.386719 1.214844 C 3.683594 1.214844 3.859375 0.921875 4.875 0.453125 L 5.832031 0 L 7.671875 0.589844 C 11.152344 1.6875 32.523438 11.675781 32.640625 12.246094 C 32.679688 12.480469 32.445312 12.617188 31.703125 12.773438 C 30.195312 13.089844 29.804688 13.050781 25.347656 11.929688 Z M 25.347656 11.929688 "
  />
</svg>
