<svg id="root" xmlns="http://www.w3.org/2000/svg"
  style="transform:matrix(1,0,0,1,0,0);transform-origin:50% 50%;cursor:move;max-height:none;transition:transform 200ms ease-in-out 0s"
  width="768" height="441" viewBox="0 0 7680 4410">
  <g>
    <path
      d="M5520 3015c-923-160-953-165-1275-251-181-47-335-92-342-98-6-6-25-43-41-82-56-132-64-141-223-226-79-42-188-94-241-114-54-20-98-40-98-44 0-16 152-280 161-280 6 0 391 171 857 379 820 366 866 386 1412 589 311 115 601 222 645 237 68 24 130 57 100 54-6-1-435-75-955-164zm318-14c2-13-3-23-15-27-121-42-2186-856-2266-893-59-28-112-51-118-51-15 0-69 91-69 116 0 18 27 33 188 105 103 45 204 93 224 105 50 32 79 73 123 176l37 87 71 16c88 21 628 142 1027 231 162 37 399 90 525 118 132 30 239 49 250 46 11-4 21-17 23-29z" />
    <path
      d="M5675 2974c-56-14-277-64-880-199-684-153-829-186-830-188-1-1-16-37-33-80-35-88-79-148-131-181-20-13-116-58-214-101-97-43-177-82-177-87s7-22 16-39c18-35 23-34 127 18 37 18 177 76 310 129 229 90 335 132 917 359 135 53 290 114 345 135 55 22 210 83 345 135 321 125 329 129 205 99zm-2440-798c-11-7-44-17-72-21l-53-7 7-101 6-101-48-41-48-42-76 19c-42 11-79 23-83 27-4 3 3 38 17 76 29 81 32 125 10 125-10 0-15-10-15-34 0-45-35-87-203-242-124-115-156-138-340-246-175-104-224-128-367-180-154-55-173-59-290-68-69-4-145-5-170-1-38 6-26 8 75 15 66 4 154 14 195 21 98 17 387 131 476 187 38 25 119 73 179 108 171 98 415 336 415 404v26l-50-25c-28-14-75-41-105-60-77-49-353-177-670-310-486-203-567-247-586-319-8-29-8-41 0-44 6-2-6-37-30-83l-40-80 33-61 33-60 52 5c35 4 53 2 57-6 3-9 5-8 5 1 1 6 11 12 22 12 12 0 48 12 80 26 46 21 71 42 125 106l67 80 286 142c211 106 306 148 361 160 41 10 152 35 247 56l171 39 53 57c30 30 63 60 74 66 23 12 24 14-44-66-31-36-32-41-16-52 9-7 34-16 56-19 36-6 39-9 39-40v-33l60 15c51 13 67 23 105 65 25 28 45 56 45 64 0 16-53 56-98 74-18 7-52 10-77 8-25-3-45-4-45-2s18 13 41 24l40 21 83-45 84-45 18 35c11 19 38 46 62 60 23 14 42 28 42 33 0 4-11 18-24 30s-34 50-46 84c-33 90-78 177-93 177-7 0-21-6-32-14z" />
    <path
      d="M2977 2138c-46-10-49-12-43-38 3-15-3-63-14-106-10-44-18-79-17-80 20-8 91-24 109-24 52 0 88 69 88 171 0 54-1 56-35 72-20 9-37 16-38 16-1-1-24-6-50-11zm-312-542c-274-69-269-67-420-151-71-40-191-103-265-140-132-66-136-69-190-141-50-66-61-75-114-93-33-12-70-21-83-21-36 0-27-15 25-39l49-23 94 30c178 56 1271 565 1277 594 2 12-10 19-48 27-77 16-97 14-325-43z" />
  </g>
</svg>