<svg xmlns="http://www.w3.org/2000/svg" id="root" viewBox="831 864 2034 2100">
  <path
    d="M1705 2955a965 965 0 0 1-253-66c-99-44-218-126-297-204a952 952 0 0 1-205-286c-68-140-87-202-115-381l-4-28 1017 3 1017 2-4 45c-9 142-82 340-175 480-75 113-224 253-326 308l-69 36c-145 79-403 119-586 91zm299-186c197-51 298-103 417-216 53-51 107-114 133-157 51-81 101-205 88-218-5-5-53-7-107-6l-99 3-39 69a624 624 0 0 1-387 297c-71 18-282 18-335 1a664 664 0 0 1-405-363c0-6-42-9-107-7l-108 3 3 29c8 77 121 254 223 352 126 119 228 169 444 217 41 9 239 7 279-4zm-43-423c104-32 253-136 235-164-10-17-682-17-692 0-18 29 152 147 241 167 61 14 165 12 216-3zM847 1723a995 995 0 0 1 303-573 946 946 0 0 1 372-229c151-52 332-70 478-47 47 8 64 12 165 43 69 20 221 93 250 120l75 60c91 69 189 191 252 314 60 117 117 295 118 367v22H832l15-77zm1353-117c0-22-69-85-122-112-81-41-122-53-212-59-124-10-204 20-320 120-25 21-46 45-46 52 0 10 71 13 343 15 188 2 345 2 350 0 4-2 7-9 7-16zm450 12c0-7-20-53-45-103a821 821 0 0 0-408-397c-186-71-260-84-414-69-61 6-121 14-134 19l-64 22a829 829 0 0 0-490 425c-55 103-54 105 65 105 87 0 101-2 107-17 27-76 155-223 244-278 138-88 424-114 561-51l80 35c94 42 202 150 260 261l23 45 80 6 108 7c16 1 27-3 27-10z"
  />
</svg>
