<svg id="root" xmlns="http://www.w3.org/2000/svg" width="768" height="441" viewBox="0 0 7680 4410">
  <g fill="#010103">
    <path
      d="M3553 4030c-33-14-39-65-14-129l21-53-32-30c-30-28-36-30-83-23-27 3-61 13-74 22s-57 17-102 20l-78 6-7-28c-9-38 3-54 69-94 54-32 57-36 57-74 0-22 5-55 12-73 9-25 9-39 0-56-19-37-82-300-82-341 0-20 5-46 12-57 10-15 9-30-5-73-9-30-21-87-27-128-5-41-16-113-24-160s-18-161-22-253c-5-119-11-172-21-181-7-8-13-35-13-64 0-28-4-51-10-51-11 0-13 12-10 48 2 33-22 82-41 82-9 0-22-7-29-15s-25-15-41-15c-23 0-30-5-35-27-3-16-10-38-15-51-13-32-11-139 2-165 7-13 13-100 16-227 4-163 1-219-11-273-16-67-15-70 13-188 16-66 35-128 43-137 7-9 21-33 31-53 29-57 67-92 135-123l62-30v-58c0-33 5-68 10-79 9-15 5-29-16-66-25-41-28-55-26-129 3-114 10-130 79-160l56-25 65 17c85 23 114 60 123 153 6 68-5 131-21 131-23 0-7 21 25 34 39 17 41 20 50 88l6 47 47 6c59 8 84 20 138 68 75 66 122 189 173 454 26 135 31 186 33 329 2 179-9 235-64 352-23 49-42 62-79 55-15-3-29-1-32 4s-9 72-12 149c-4 76-10 164-15 194-14 92-38 222-49 270-16 70-12 178 10 260 17 67 19 87 10 185-6 61-15 187-21 280-6 94-16 198-21 233-6 34-8 69-5 77 3 9 1 38-5 65-9 41-15 50-41 59-37 13-84 13-115 1z" />
    <path
      d="M4014 3920c-32-13-38-28-41-105-1-38-9-137-17-220-8-82-20-234-27-336-11-171-11-190 5-240 23-69 24-215 3-301-22-86-57-315-57-372 0-30 4-46 13-46 13 0 67-43 67-53 0-4 11-30 24-59s29-74 35-100c16-69 13-447-4-533-8-38-23-117-35-174-11-57-24-109-30-116s-10-17-8-21c1-5-5-25-14-45s-19-45-22-57c-4-12-12-22-17-22s-9-6-9-14c0-7-10-26-22-41-21-26-21-28-4-59 25-45 108-106 153-112 83-11 83-11 83-54 0-56 17-87 51-94 32-6 36-21 14-50-22-30-19-128 6-186 23-52 49-71 128-89 38-8 51-6 97 14 68 30 84 60 84 159 0 61-5 84-26 123-23 44-24 52-13 91 6 23 9 59 6 80l-5 39 69 32c71 33 110 70 138 130 9 20 24 43 34 53 9 10 17 31 17 47s9 58 20 93c24 76 25 134 5 208-13 45-15 91-9 254 5 137 11 207 20 225 17 32 18 100 3 138-6 15-13 41-15 56-5 40-12 48-38 41-14-3-27 1-35 10-17 20-51 21-51 1 0-8-4-15-9-15-6 0-11-20-13-45-4-60-23-58-23 3 0 26-5 52-11 59-7 7-14 76-19 165-3 84-15 198-25 253s-21 132-24 172c-3 39-15 96-27 126-20 52-20 57-5 78 9 13 16 34 16 47 0 32-45 221-74 311-20 65-22 78-11 105 7 17 10 45 8 63-5 30-1 34 66 77 73 47 83 65 57 101-11 16-23 17-90 12-47-3-85-12-94-20-10-8-45-18-78-22-57-6-62-5-67 14-3 12-12 21-21 21-20 0-21 36-1 70 23 40 19 106-7 124-24 17-90 20-124 6z" />
  </g>
</svg>