<svg xmlns="http://www.w3.org/2000/svg" id="root" viewBox="0 0 100 202">
  <g>
    <path
      d="M 33.6875 201.492188 C 31.84375 200.710938 31.507812 197.867188 32.90625 194.300781 L 34.078125 191.34375 L 32.292969 189.671875 C 30.613281 188.109375 30.28125 188 27.652344 188.390625 C 26.144531 188.554688 24.242188 189.113281 23.515625 189.617188 C 22.789062 190.117188 20.332031 190.5625 17.816406 190.730469 L 13.457031 191.066406 L 13.066406 189.503906 C 12.5625 187.386719 13.234375 186.492188 16.921875 184.261719 C 19.941406 182.476562 20.109375 182.253906 20.109375 180.136719 C 20.109375 178.910156 20.386719 177.070312 20.777344 176.066406 C 21.28125 174.671875 21.28125 173.890625 20.777344 172.945312 C 19.71875 170.878906 16.195312 156.214844 16.195312 153.929688 C 16.195312 152.8125 16.476562 151.363281 16.867188 150.75 C 17.425781 149.914062 17.371094 149.078125 16.585938 146.679688 C 16.085938 145.007812 15.414062 141.828125 15.078125 139.542969 C 14.800781 137.257812 14.183594 133.242188 13.738281 130.621094 C 13.289062 128 12.730469 121.644531 12.507812 116.515625 C 12.226562 109.878906 11.894531 106.925781 11.335938 106.421875 C 10.941406 105.976562 10.609375 104.472656 10.609375 102.855469 C 10.609375 101.292969 10.382812 100.011719 10.050781 100.011719 C 9.433594 100.011719 9.324219 100.679688 9.488281 102.6875 C 9.601562 104.527344 8.261719 107.257812 7.199219 107.257812 C 6.695312 107.257812 5.96875 106.867188 5.578125 106.421875 C 5.1875 105.976562 4.179688 105.585938 3.285156 105.585938 C 2 105.585938 1.609375 105.308594 1.332031 104.082031 C 1.164062 103.1875 0.773438 101.960938 0.492188 101.238281 C -0.234375 99.453125 -0.121094 93.488281 0.605469 92.035156 C 0.996094 91.3125 1.332031 86.460938 1.5 79.378906 C 1.722656 70.289062 1.554688 67.167969 0.882812 64.15625 C -0.0117188 60.421875 0.046875 60.253906 1.609375 53.675781 C 2.503906 49.992188 3.566406 46.535156 4.011719 46.035156 C 4.40625 45.535156 5.1875 44.195312 5.746094 43.078125 C 7.367188 39.902344 9.488281 37.949219 13.289062 36.222656 L 16.753906 34.546875 L 16.753906 31.316406 C 16.753906 29.476562 17.035156 27.523438 17.3125 26.910156 C 17.816406 26.074219 17.59375 25.292969 16.421875 23.230469 C 15.023438 20.945312 14.855469 20.164062 14.96875 16.035156 C 15.132812 9.679688 15.527344 8.789062 19.382812 7.113281 L 22.511719 5.722656 L 26.144531 6.667969 C 30.894531 7.953125 32.515625 10.015625 33.019531 15.199219 C 33.351562 18.992188 32.738281 22.503906 31.84375 22.503906 C 30.558594 22.503906 31.453125 23.675781 33.242188 24.402344 C 35.421875 25.347656 35.53125 25.515625 36.035156 29.308594 L 36.371094 31.929688 L 38.996094 32.261719 C 42.296875 32.707031 43.691406 33.378906 46.710938 36.054688 C 50.902344 39.734375 53.527344 46.59375 56.378906 61.367188 C 57.832031 68.898438 58.109375 71.742188 58.222656 79.714844 C 58.335938 89.695312 57.71875 92.816406 54.644531 99.339844 C 53.359375 102.074219 52.300781 102.796875 50.230469 102.40625 C 49.394531 102.242188 48.609375 102.351562 48.441406 102.632812 C 48.273438 102.910156 47.941406 106.644531 47.773438 110.9375 C 47.546875 115.175781 47.214844 120.082031 46.933594 121.757812 C 46.152344 126.886719 44.808594 134.136719 44.195312 136.8125 C 43.300781 140.714844 43.523438 146.738281 44.753906 151.308594 C 45.703125 155.042969 45.816406 156.160156 45.3125 161.625 C 44.976562 165.027344 44.476562 172.050781 44.140625 177.238281 C 43.804688 182.476562 43.246094 188.277344 42.964844 190.230469 C 42.628906 192.125 42.519531 194.078125 42.6875 194.523438 C 42.855469 195.023438 42.742188 196.640625 42.40625 198.148438 C 41.902344 200.433594 41.570312 200.933594 40.117188 201.4375 C 38.046875 202.160156 35.421875 202.160156 33.6875 201.492188 Z M 33.6875 201.492188 "
    />
    <path
      d="M 59.453125 195.359375 C 57.664062 194.632812 57.328125 193.796875 57.160156 189.503906 C 57.105469 187.386719 56.65625 181.863281 56.210938 177.238281 C 55.765625 172.664062 55.09375 164.1875 54.703125 158.5 C 54.085938 148.96875 54.085938 147.90625 54.980469 145.121094 C 56.265625 141.273438 56.324219 133.132812 55.148438 128.335938 C 53.917969 123.539062 51.964844 110.773438 51.964844 107.59375 C 51.964844 105.921875 52.1875 105.027344 52.691406 105.027344 C 53.417969 105.027344 56.433594 102.632812 56.433594 102.074219 C 56.433594 101.851562 57.050781 100.402344 57.777344 98.785156 C 58.503906 97.167969 59.394531 94.65625 59.730469 93.207031 C 60.625 89.359375 60.457031 68.28125 59.507812 63.488281 C 59.0625 61.367188 58.222656 56.964844 57.550781 53.785156 C 56.9375 50.609375 56.210938 47.707031 55.875 47.316406 C 55.539062 46.925781 55.316406 46.371094 55.429688 46.148438 C 55.484375 45.867188 55.148438 44.753906 54.644531 43.636719 C 54.144531 42.523438 53.585938 41.128906 53.417969 40.460938 C 53.191406 39.789062 52.746094 39.234375 52.464844 39.234375 C 52.1875 39.234375 51.964844 38.898438 51.964844 38.453125 C 51.964844 38.0625 51.40625 37.003906 50.734375 36.164062 C 49.558594 34.714844 49.558594 34.605469 50.511719 32.875 C 51.90625 30.367188 56.546875 26.964844 59.0625 26.632812 C 63.699219 26.015625 63.699219 26.015625 63.699219 23.621094 C 63.699219 20.496094 64.648438 18.769531 66.550781 18.378906 C 68.339844 18.042969 68.5625 17.207031 67.332031 15.589844 C 66.101562 13.917969 66.269531 8.453125 67.667969 5.21875 C 68.953125 2.320312 70.40625 1.261719 74.820312 0.257812 C 76.945312 -0.1875 77.671875 -0.078125 80.242188 1.039062 C 84.042969 2.710938 84.9375 4.382812 84.9375 9.902344 C 84.9375 13.304688 84.65625 14.585938 83.484375 16.761719 C 82.199219 19.214844 82.140625 19.660156 82.757812 21.835938 C 83.09375 23.117188 83.261719 25.125 83.09375 26.296875 L 82.8125 28.472656 L 86.667969 30.253906 C 90.636719 32.09375 92.816406 34.160156 94.382812 37.503906 C 94.882812 38.621094 95.722656 39.902344 96.28125 40.460938 C 96.785156 41.015625 97.230469 42.1875 97.230469 43.078125 C 97.230469 43.972656 97.734375 46.3125 98.347656 48.265625 C 99.691406 52.503906 99.746094 55.738281 98.628906 59.863281 C 97.902344 62.371094 97.789062 64.9375 98.125 74.027344 C 98.40625 81.664062 98.742188 85.570312 99.242188 86.570312 C 100.195312 88.355469 100.25 92.148438 99.410156 94.265625 C 99.074219 95.101562 98.683594 96.554688 98.574219 97.390625 C 98.292969 99.621094 97.902344 100.066406 96.449219 99.675781 C 95.667969 99.507812 94.941406 99.730469 94.492188 100.234375 C 93.542969 101.347656 91.644531 101.402344 91.644531 100.289062 C 91.644531 99.84375 91.417969 99.453125 91.140625 99.453125 C 90.804688 99.453125 90.523438 98.335938 90.414062 96.945312 C 90.191406 93.597656 89.128906 93.710938 89.128906 97.109375 C 89.128906 98.558594 88.847656 100.011719 88.511719 100.402344 C 88.121094 100.789062 87.730469 104.636719 87.453125 109.601562 C 87.285156 114.285156 86.613281 120.640625 86.054688 123.707031 C 85.496094 126.773438 84.878906 131.066406 84.710938 133.296875 C 84.546875 135.472656 83.875 138.652344 83.203125 140.324219 C 82.085938 143.222656 82.085938 143.503906 82.925781 144.671875 C 83.425781 145.398438 83.820312 146.570312 83.820312 147.292969 C 83.820312 149.078125 81.304688 159.617188 79.683594 164.636719 C 78.566406 168.257812 78.453125 168.984375 79.070312 170.488281 C 79.460938 171.4375 79.628906 173 79.515625 174.003906 C 79.234375 175.675781 79.460938 175.898438 83.203125 178.296875 C 87.285156 180.917969 87.84375 181.921875 86.390625 183.929688 C 85.773438 184.820312 85.105469 184.875 81.359375 184.597656 C 78.734375 184.429688 76.609375 183.929688 76.105469 183.480469 C 75.546875 183.035156 73.589844 182.476562 71.746094 182.253906 C 68.5625 181.921875 68.28125 181.976562 68.003906 183.035156 C 67.835938 183.707031 67.332031 184.207031 66.828125 184.207031 C 65.710938 184.207031 65.65625 186.214844 66.773438 188.109375 C 68.058594 190.339844 67.835938 194.019531 66.382812 195.023438 C 65.039062 195.972656 61.351562 196.140625 59.453125 195.359375 Z M 59.453125 195.359375 "
    />
  </g>
</svg>
