<svg xmlns="http://www.w3.org/2000/svg" id="root" viewBox="0 0 100 101">
  <path
    d="M48.6 100.8c-2-.5-4.2-1.4-6.5-2.5-1.8-1-3.2-1.9-3.4-2.4v-.3l-.1-.3-.2-.3c-.4-.5-.6-.6-1.3-.9a148.8 148.8 0 0 1-16.5-7.7 7.8 7.8 0 0 0-2.7-1.5c-1-.3-3-1.3-4.2-2a5 5 0 0 0-2.3-1.1 3 3 0 0 0-.9-.2c-.6 0-1 0-1.7-.3-1.3-.5-2-.9-5.3-2.8L1 76.9V68a661 661 0 0 1-.1-20.5 124 124 0 0 1 0-8 177.3 177.3 0 0 0 0-9.8 68.9 68.9 0 0 0 0-6.2L1 22a17.2 17.2 0 0 1 0-2.7v-1.9l.1-.8v-1.2c0-.2.2-.4.4-.6l.2-.2.8-.5.2-.1a11.2 11.2 0 0 0 1.8-1l.8-.2.7-.3v-.1h.2l1.7-.8h.2l.4-.2h.2l.4-.2h.2l.2-.1h.1l.7-.3.7-.2.6-.2h.1a9 9 0 0 0 1.6-.4h.4c0-.1 0-.1.2 0l.2-.1h.7s0-.1.1 0l.1-.1h.5l.2-.1h.2l.2-.1h.1s.1-.1.2 0a13.8 13.8 0 0 0 3-.9h.2l.8-.3h.2l.6-.2 1.3-.5h.5l.5-.3h.1l.7-.2.4-.1.7-.2h.3l.1-.1.5-.2h.1l.4-.1h.1l.9-.3h.1l1-.2h.8l.4-.2h.1l.4-.1h.2l.1-.1h.1l.1-.1h.1s.1-.1.1 0l.2-.1s0-.1 0 0l1-.6h.4l.1-.1.2-.1.5-.2h.1l.6-.2 1-.4h.5l.4-.2h.4l.1-.1h.2l.1-.1h.1l.5-.2h.2l.7-.2h.1a8.9 8.9 0 0 0 1.7-.4l.8-.2h.3l.7-.2h.4s.1-.1.2 0V2h.5l.3-.1a5.5 5.5 0 0 0 1.5-.3l.6-.1h.2s0-.1.1 0l.7-.2h.4l.2-.1A10.6 10.6 0 0 0 49 1h2.4l.2.1h.2a5.8 5.8 0 0 0 .8.3 20.3 20.3 0 0 0 1.9.6l.2.1h.1a5.5 5.5 0 0 0 .8.3l.6.2a3.8 3.8 0 0 0 .8.3l.6.2.6.3h.2l.2.1h.1l.7.3h.1l.8.3h.2l.1.1h.2l.1.1h.2s0 .1 0 0l.1.1.9.3h.2l.1.1h.1a7.3 7.3 0 0 0 1 .4 2.8 2.8 0 0 0 .8.2h.2l.2.1.2.1h.3l.3.2h.4l.2.1h.4l.5.2h.2c0 .1 0 .1 0 0l.1.1h.2l.2.1h.3l.6.2h.2l.3.1h.3l.2.1h.2a5.8 5.8 0 0 0 1 .2l.8.2h.2l.2.1h.1l.6.2a36.9 36.9 0 0 0 3.9 1h.2l.2.1h.3l.1.1h.2l.2.1a2.7 2.7 0 0 0 .8.2l.5.2h.2l.2.1h.2a7.7 7.7 0 0 0 1.2.4h.3l.2.1.6.2h.3l.2.1h.2l.2.2.5.1.1.1c.5.2.8.5 1 .7.2.2.3.3.5.3h.1l.2.2h.7l.2.1h.7l.7.1a5.2 5.2 0 0 1 1 0h.4a8.1 8.1 0 0 0 1.2.2h.7l.1.1h.1a6.2 6.2 0 0 0 1 .2h.5c0 .1 0 .1.1 0v.1h.3l.2.1h.2l.2.1h.4l.5.2h.4a3.9 3.9 0 0 0 .8.3 91.4 91.4 0 0 0 2.8 1.2l.2 1a550.5 550.5 0 0 1-.3 62.2c0 .3-.4.6-1.2 1.1a19.6 19.6 0 0 1-6.8 3H89a37.9 37.9 0 0 1-5.4 3.2c-3.8 2.1-7.8 4.2-13.9 7.2a78 78 0 0 0-6 3.1 7.4 7.4 0 0 0-1.9 1.5c-.3.7-2.3 1.8-5.3 3A32.8 32.8 0 0 1 52 101h-2.7Zm5.7-5.3 2.5-1v-8.2l-2.9.6c-1.7.4-2 .8-2.2 2.2v7.5s-.3 0 2.6-1.1Zm-5.6.3.2-1.6v-6.5c-.1-1.1-.4-1.5-1.2-1.9-1.5-.6-2.6-.8-3.2-.5-.7.3-1 1.2-1.1 3.4l-.2 4.7a109.3 109.3 0 0 0 5 2.5h.5ZM59.5 93c.3-.4.4-3 .1-5.7l-.2-2-.3-3.2c-.2 0-1.7.5-4 1.6-1.9.8-2.9 1.5-2.9 1.9 0 .1.1.2.5.2.6 0 1.1-.2 2.5-.6l2.2-.6c.2 0 .2 0 .3.2.3.6.6 2.3.8 4.6.3 2.8.7 4.1 1 3.6Zm-18-.9c.2-.4.4-1.6.4-3 0-1.7.3-3.7.7-4.5.2-.4.7-1 1-1.1.4-.3 1-.2 2.7.5 1.5.6 2.6.8 2.7.6v-.1c-.6-.7-6.4-3-7.6-3.1h-.3v.2a26.8 26.8 0 0 0 .2 10.7l.2-.2Zm21.8-.8a76.2 76.2 0 0 0 7.9-3.8l2.7-1.5v-.4l.3-29.3a242.1 242.1 0 0 0-20.6 8c-.2.2-.2.3-.3.9a91 91 0 0 0 0 16 103 103 0 0 0 5.7-1.7c.5 0 .5 0 .7.2.3.1.5.3 1 .9.5.6.7 1 1 1.8.2.9.2 1.8.3 4.6a56.5 56.5 0 0 0 .4 4.6l.9-.3Zm-26-1a64.9 64.9 0 0 0 1.1-5.5c.2-2 .7-5.7 1-6.2l.4-.1c1 0 3.8.7 6.2 1.6.9.4 1.1.4 1.3.3.3-.3.4-1.4.3-5.4l-.2-9.4a125.6 125.6 0 0 0-7.7-3.2 64 64 0 0 1-8-3.3c-2.3-1.1-3-1.4-3.8-1.5-.5-.1-.7 0-1 .2-.4.5-.5 1-.5 3l-.1 2.3c-.3 2.1-.9 3.5-1.8 4l-.7.1c-.5 0-.6 0-.8.3-.2.2-.3.7-.4 1.6l-.1 10.2v4.6l3 1.4a658 658 0 0 1 10.9 5c.4.2.6.2.8 0Zm41.5-6.8c4.5-2.4 6-3.4 8.4-5.2l1.3-1v-4.7c0-4.7 0-5.6.2-6.6a3 3 0 0 1 1-2.1c1-1 2.4-1.9 4.4-2.5l1.2-.4.2-8.2c0-3 0-4.4-.4-4.7-.3-.2-.5-.1-1 .3-.4.4-1.3.8-2.5 1.2L86 51.4l-8.8 3.3a1529.8 1529.8 0 0 0-.3 28.5v1.3l2-1Zm-59.3-1.7c.4-1 .8-11.5.4-14.1 0-1-.2-1.5-.7-2-.5-.5-.7-1-.7-1.8 0-.7 0-1.7.4-4.6.3-2.3.3-3.4.3-4.2-.1-1.1-.3-1.6-1-2.1a432.9 432.9 0 0 1-13.8-6.3v14.7l1.2.5a19.6 19.6 0 0 1 5.8 3.6c.9 1 1 1.4 1.3 3V78l1.1.6c.6.4 1.7 1 2.4 1.6l3.2 1.7v-.1ZM10.3 76c.2-.5.4-2.6.4-4.7 0-1.9-.1-3-.4-3.7a7.2 7.2 0 0 0-3-2c-1-.7-2.2-1-2.4-.8-.3.2.3.8 1.8 1.7 1 .7 1.4 1 1.7 1.4.7.6.8 1.2 1 3.4v1.6c.2 2 .5 3.3.7 3.2l.2-.1Zm-3-2.4.2-2.4v-1c-.1-1.4-.4-1.8-1.9-2.9l-1-.6-.2 4.8c0 1.4.3 2 1 2.8l1.9 1.3v-2ZM92 75.3l.3-1.2c.1-.8.2-1.6.2-4.1l.1-2.8c.2-1.3.4-1.6 1.6-2.2.7-.4 1.2-.6 1.4-.9.3-.3 0-.5-.5-.4-.5 0-.8.1-2.3.7l-1.3.5v3.2c-.2 4-.2 5.6 0 6.6.1.7.3 1 .5.6Zm2.4-.9c.4-.2.7-.6 1-1.2a16.3 16.3 0 0 0 0-7c0-.2-.1-.3-.3-.3-.5 0-.8 1.1-1 3a48.7 48.7 0 0 0 0 5.5h.3ZM23.3 64c.3-.3.5-2 .3-2.9l-.3-.9c-.2-.3-1.1-.7-1.5-.7-.2 0-.4.2-.5.5v2c.1 1 .6 1.6 1.2 2h.7Zm24.3-3 .1-4v-3.8l-2.6-1.3a83 83 0 0 1-8.2-4.4c-.7-.5-.9-.6-1-1.1-.3-.8-.5-2.5-.7-4.6a174.3 174.3 0 0 1-.6-10.4 221 221 0 0 0-8.7-3.2l-.5 5-.1 1.7-.1 2.6c0 1.5 0 1.7.2 2.2l1 1c.5.5.7 1 .8 2.7l.1 5.2v4.7l6.9 2.7a827.6 827.6 0 0 0 13.4 5Zm6.8-1.3 7-2.3 7.3-2.3 5.5-1.8V28.6a157 157 0 0 0-8.9 3.7c-.3.2-.5 1-.6 2.7a128.7 128.7 0 0 0-.5 12.8v.2l-2 .7a236.2 236.2 0 0 1-6.1 2.3c-1.8.8-2.5 1.3-2.8 2-.4.7-.4 1.3-.4 4 0 1.7.1 2.2.3 2.6.2.4.3.4 1.2 0Zm24.3-8.2A210 210 0 0 1 93.1 46l2.5-1V31.7l-.9.4a1162.9 1162.9 0 0 0-5.7 2.6c-.7.1-1.2 0-1.5-.4-.3-.4-.6-1.3-.7-2.4a51 51 0 0 1-.4-5.2l-.5-3-.1-.1h-.3l-2.2.7-4.3 2-2.1 1v24.9l1.8-.8Zm-31-1.2a5.8 5.8 0 0 0-.1-1.7c-.3-.5-.9-.9-1.9-1.2l-2.1-.8-3-1.8-1.2-.8v-.3l-.1-2.8c-.2-4.1-.3-5.4-.5-6.6-.2-.8-.4-1.1-.7-1.1-.6 0-.8 1.5-.6 6.6.1 3.3.4 4.6 1.5 5.7a55.3 55.3 0 0 0 8.7 4.8Zm-29.1-.7c.6-.1.9-.6 1-1.5.1-.6.2-1.6.2-3.8 0-2.5.1-3.2.4-3.8.1-.4.4-.7.7-.8.7-.2.8-.3 1-.7.5-.9.7-3 1-8.4.1-1.4.2-4 .1-4.2 0-.1 0-.2-.5-.4a78.2 78.2 0 0 0-8.3-3.6l-.3 1.4-.5 4.1c-.4 3.7-.8 5.4-1.5 6.2-.4.3-.6.4-1.2.4l-1-.1-1.5-.6c-1.6-.6-2.2-.8-2.7-.7-.7 0-1 .7-1.1 2.5v8.2l.3.1 3.4 1.6a52.6 52.6 0 0 0 10.5 4.1Zm35.8-.5 1.1-.5 5.4-2 1-.3V43a51 51 0 0 0-.6-9.3c-.2 0-.3.6-.5 1.5l-.1 3.4c0 1.6 0 3.1-.2 3.8-.2 1.6-.7 2.4-1.8 3.2-.6.4-1 .7-2.4 1.3a12 12 0 0 0-3 1.9c-.7.6-.2.7 1 .3Zm-30.5-2.5c.6-.4 1-1.5 1-3v-.9c-.1-.5-.5-.7-1.1-.6-1 0-1.3.4-1.3 2.3l.1 1.2c.2.6.4 1 .7 1.1h.6Zm23.5-.2.2-1.7.1-4.2v-3.6l-.4-.2-1.5-.6a14.5 14.5 0 0 0-4.3-1.5c-.3 0-.5 0-.6.3-.2.3-.2.7-.2 1.7l.2 6.8v.3l1 .4a48.7 48.7 0 0 0 5.5 2.3Zm6.8 0a27 27 0 0 0 3.4-1.5l1.8-1v-2.3c0-3.9-.1-5.7-.4-6.4-.2-.2-.2-.3-.6-.2l-3.9 1.4-1.5.6v3.6a43.3 43.3 0 0 0 .4 5.7c0 .2 0 .2.2.2l.6-.1Zm-2.8-12.2c1.8-.1 3-.4 4.3-1 1-.5 1.4-.9 1.3-1.2 0-.3-.7-.7-1.7-1.1-1.7-.7-3-1.2-4-1.3a11.5 11.5 0 0 0-8.4 1.7c-.2.1-.2.2-.2.3 0 .4.4.7 1.7 1.3l1 .5a14.7 14.7 0 0 0 6 .8ZM91 31.4a62.9 62.9 0 0 0 4.4-2.7c-.1 0-.7 0-1.1.2l-1 .3c-.8.3-1.3.4-1.8.4s-.7 0-1-.3c-.5-.5-.7-1.6-.7-3.2 0-1.4 0-2.7-.2-3.3-.2-.6-.4-.5-.6.3a29 29 0 0 0 .1 6.6l.3 2.6 1.6-.9Zm-80.8.1a52.1 52.1 0 0 0 .9-10.6c-.2-.2-.4 0-.6.4-.2.5-.3 1.4-.3 3.7 0 2.4-.2 3.2-.5 3.8-.5 1-1.2 1.1-3 .8h-2c0 .3 1.6 1 3.4 1.7a6 6 0 0 0 1.7.4c.2 0 .3 0 .4-.2Zm50.4 0c.2 0 .3-.2.3-.3l-.1-.3a33 33 0 0 0-8.5-4.4l-.6-.2H51a31.8 31.8 0 0 0-8.7 2.5c-1 .6-1.8 1-2.4 1.6l-.3.6c0 .1.8 0 1.7-.3l2.4-1.1a14 14 0 0 1 3.2-1.3c1-.2 1.2-.2 2.4-.2s1.3 0 2.3.2c1.2.2 2.4.7 4.6 1.8a17 17 0 0 0 3.5 1.5h.9Zm4.5-2c.8-.2 1.7-.6 3.5-1.4l2.2-1 .5-.3-1.6-.5a259.8 259.8 0 0 1-20.5-8.4c-.9 0-1.8.2-4.7 1.3l-8.9 3.5c-4.1 1.7-6 2.5-6.5 3-.3.2-.2.4.4.7a193.1 193.1 0 0 0 6.5 2.8l1.7-.8A38 38 0 0 1 48 24.2l2.5-.8 2.4.8c1.2.4 2.6 1 3 1 2 .8 4 1.8 5.1 2.7a22 22 0 0 0 2.7 1.6c.4.2.5.3.7.2.1 0 .5 0 .8-.2ZM7.7 28.1 8 28c.5-.5.6-1.3.8-4.2l.2-4a169.3 169.3 0 0 0-3.5-2L4.4 17v3.7c0 5.7 0 6.6.5 7 .3.3.5.3 1.8.5h1Zm85.6-.4c.7-.1 1.3-.3 1.6-.5.3-.2.6-.7.7-1.4.1-1.2 0-4.6-.2-5.5 0-.1 0-.1-.1 0-.4 0-2.6.7-3 1-.6.2-1 .6-1 1l.1.4c.2.7.4 2.2.4 3.5 0 1 0 1.4.4 1.5h1.1Zm-18.7-2.5c1.5-.3 3-.9 6.4-2.4l2.7-1.2.6-.3-1.4-.7-1.8-1c-1.2-.6-2-1.3-2.4-1.8-.3-.3-.4-.6-.4-.8 0-.4.3-.8 1.4-1.8 1-.8 1.6-1.5 1.6-1.6v-.1l-.7-.3a534.5 534.5 0 0 0-12-3.4l-11 4.1c-2.8 1.1-4 1.7-4.5 2-.2.3-.2.4 0 .6a122.8 122.8 0 0 0 15.2 6.9l3.9 1.6c.4.3.6.3 1.3.3l1-.1Zm-48.2-1.4 2.6-1 2.6-1a381 381 0 0 0 13.1-5.6l.3-.1-.2-.1-3.1-1.6L31 9.7l-1.3-.5-3 .9-5 1.5a50 50 0 0 0-2 .7l.5.3c1 .4 2 1 2.2 1.2.5.3 1 .9 1.2 1.2.3.7.2 1-.4 1.7a5.6 5.6 0 0 1-3.4 1.5c-.7 0-1.4.2-2.3.5-1.2.5-1.8.7-1.8 1 0 .2.9.7 3.6 2l3.2 1.6 2.3 1.1h.2l1.4-.6Zm61.2-3.7c0-.2-.5-.6-1.5-1.2a7.8 7.8 0 0 1-2-1.6.8.8 0 0 1 .1-.8l1-.8c1-.6 1-.8-.2-.4l-2.9 1.2c-.6.4-.4.7 1.5 1.8A17 17 0 0 0 87 20h.6Zm4-1.5c1.8-.4 3.4-1 3.6-1.2 0-.1 0-.3-.2-.4a12 12 0 0 0-6.8-.8c-.3 0-2.3.7-2.5.9l.2.2a103.3 103.3 0 0 1 3.7 1.4h2ZM13 18a52 52 0 0 0 6.3-2.8c0-.2-.4-.6-1-.8-.7-.3-1-.2-1.2.6-.2.5-.3.7-.6 1-.3.3-.5.4-1 .4-.7.1-1.6.4-2.6.9s-1.4.8-1.3 1c0 .1.5 0 1.4-.3Zm-2.7-1.3a18 18 0 0 0 3.4-1c.6-.2 1-.5 1.2-.7.4-.6-.4-1-1.8-1-1.1.1-3.3.7-4.3 1.1-.6.3-1 .6-1 1l.4.4c.5.3 1.1.4 2.1.2Zm39.2-2.3 2.7-1a92.6 92.6 0 0 1 6.2-2.3A456.8 456.8 0 0 1 64 8.7a59.8 59.8 0 0 0-6.3-1.5c-.5 0-.7.2-1.2.4-1 .7-3.6 1.6-5 2H49l-3.5-1.2c-3.3-1.2-5-1.6-6.4-1.6-1 0-1.6.1-3.3.7-1.2.4-1.5.6-1.5.7A450.3 450.3 0 0 1 48 14.4l1.5-.1ZM51 7.2c1-.2 2.2-.6 2.8-1l.4-.5s-.7 0-1.7.4c-1.2.4-1.8.4-2.5.4l-2-.6a11 11 0 0 0-2.8-1h-.4l-.1.2c0 .1.3.4.8.7l4.1 1.5 1.4-.1Zm0 0" />
</svg>