<svg xmlns="http://www.w3.org/2000/svg" id="root" viewBox="0 0 1550 1570">
  <path
    d="M740 1511c-43-9-100-38-100-51 0-6-9-10-20-10s-20-4-20-9c0-4-15-11-33-14-51-8-247-106-247-123 0-8-10-14-25-14-27 0-125-56-125-71 0-5-7-9-15-9s-23-4-33-8c-9-5-30-15-47-23l-30-15-3-472-2-472h25c14 0 25-4 25-10 0-16 34-29 111-41 41-7 76-15 79-19 9-12 148-50 184-50 20 0 36-4 36-9 0-15 59-31 111-31 36 0 49-4 49-14 0-19 125-34 152-17 10 6 27 11 38 11s20 5 20 10c0 6 10 10 23 10 35 0 127 29 127 40 0 6 17 10 38 10 48-1 232 52 232 66 0 6 40 16 94 22 52 7 101 15 110 18 14 5 16 55 16 474 0 520 5 487-70 497-22 3-40 11-40 18 0 24-159 125-196 125-9 0-22 6-28 14-16 21-166 96-192 96-12 0-24 7-28 15-3 8-14 15-25 15s-21 3-23 8c-6 14-79 42-106 41-15-1-43-4-62-8zm52-403c5-250-2-558-12-558-5 0-10 91-12 213-4 296 1 497 12 497 5 0 11-65 12-152zM384 864c3-9 6-38 6-65 0-49-1-50-27-47-27 3-28 6-31 66s-2 62 21 62c14 0 28-7 31-16z"
  />
</svg>
