<svg xmlns="http://www.w3.org/2000/svg" id="root" viewBox="0 0 100 101">
  <g>
    <path
      d="M 47.742188 97.203125 C 44.96875 96.625 41.289062 94.761719 41.289062 93.921875 C 41.289062 93.539062 40.710938 93.28125 40 93.28125 C 39.289062 93.28125 38.710938 93.023438 38.710938 92.703125 C 38.710938 92.445312 37.742188 91.992188 36.582031 91.800781 C 33.289062 91.285156 20.644531 84.980469 20.644531 83.886719 C 20.644531 83.375 20 82.988281 19.03125 82.988281 C 17.289062 82.988281 10.96875 79.382812 10.96875 78.417969 C 10.96875 78.097656 10.515625 77.839844 10 77.839844 C 9.484375 77.839844 8.515625 77.582031 7.871094 77.324219 C 7.289062 77.003906 5.933594 76.359375 4.839844 75.847656 L 2.902344 74.882812 L 2.710938 44.515625 L 2.582031 14.152344 L 4.195312 14.152344 C 5.097656 14.152344 5.804688 13.894531 5.804688 13.507812 C 5.804688 12.480469 8 11.644531 12.96875 10.871094 C 15.613281 10.421875 17.871094 9.90625 18.066406 9.648438 C 18.644531 8.878906 27.613281 6.433594 29.933594 6.433594 C 31.226562 6.433594 32.257812 6.175781 32.257812 5.855469 C 32.257812 4.890625 36.066406 3.859375 39.417969 3.859375 C 41.742188 3.859375 42.582031 3.601562 42.582031 2.960938 C 42.582031 1.738281 50.644531 0.773438 52.386719 1.867188 C 53.03125 2.25 54.128906 2.574219 54.839844 2.574219 C 55.546875 2.574219 56.128906 2.894531 56.128906 3.214844 C 56.128906 3.601562 56.773438 3.859375 57.613281 3.859375 C 59.871094 3.859375 65.804688 5.726562 65.804688 6.433594 C 65.804688 6.820312 66.902344 7.078125 68.257812 7.078125 C 71.355469 7.011719 83.226562 10.421875 83.226562 11.324219 C 83.226562 11.707031 85.804688 12.351562 89.289062 12.738281 C 92.644531 13.1875 95.804688 13.703125 96.386719 13.894531 C 97.289062 14.21875 97.417969 17.433594 97.417969 44.386719 C 97.417969 77.839844 97.742188 75.71875 92.902344 76.359375 C 91.484375 76.554688 90.324219 77.070312 90.324219 77.519531 C 90.324219 79.0625 80.066406 85.558594 77.675781 85.558594 C 77.097656 85.558594 76.257812 85.945312 75.871094 86.460938 C 74.839844 87.8125 65.160156 92.636719 63.484375 92.636719 C 62.710938 92.636719 61.933594 93.085938 61.675781 93.601562 C 61.484375 94.117188 60.773438 94.566406 60.066406 94.566406 C 59.355469 94.566406 58.710938 94.761719 58.582031 95.082031 C 58.195312 95.980469 53.484375 97.785156 51.742188 97.71875 C 50.773438 97.65625 48.96875 97.460938 47.742188 97.203125 Z M 51.097656 71.277344 C 51.417969 55.195312 50.96875 35.382812 50.324219 35.382812 C 50 35.382812 49.675781 41.234375 49.546875 49.085938 C 49.289062 68.125 49.613281 81.058594 50.324219 81.058594 C 50.644531 81.058594 51.03125 76.875 51.097656 71.277344 Z M 24.773438 55.582031 C 24.96875 55.003906 25.160156 53.136719 25.160156 51.402344 C 25.160156 48.25 25.097656 48.183594 23.417969 48.378906 C 21.675781 48.570312 21.613281 48.761719 21.417969 52.621094 C 21.226562 56.484375 21.289062 56.613281 22.773438 56.613281 C 23.675781 56.613281 24.582031 56.160156 24.773438 55.582031 Z M 24.773438 55.582031 "
    />
    <path
      style="stroke: none; fill-rule: nonzero; fill: rgb(87.058824%, 83.137255%, 63.921569%); fill-opacity: 1"
      d="M 43.417969 98.105469 C 40.453125 96.753906 38.710938 95.53125 38.710938 94.886719 C 38.710938 94.375 38.195312 93.730469 37.613281 93.472656 C 34.066406 92.316406 21.871094 86.589844 20.839844 85.625 C 20.195312 84.980469 18.902344 84.273438 18 84.082031 C 17.097656 83.824219 15.289062 82.921875 14 82.085938 C 12.773438 81.25 11.160156 80.671875 10.515625 80.800781 C 9.871094 80.929688 7.484375 79.964844 5.226562 78.546875 L 1.03125 76.039062 L 0.96875 45.417969 C 0.96875 28.5 1.097656 14.472656 1.289062 14.21875 C 2.195312 12.800781 11.871094 9.007812 14.582031 9.007812 C 15.417969 9.007812 18.773438 8.171875 22.066406 7.078125 C 25.355469 6.046875 28.515625 5.148438 29.226562 5.148438 C 29.871094 5.148438 31.226562 4.695312 32.257812 4.179688 C 34.257812 3.152344 40.257812 1.609375 46.902344 0.515625 C 50.324219 -0.128906 51.289062 -0.0625 54.324219 1.09375 C 61.804688 3.859375 66.257812 5.273438 69.355469 5.789062 C 71.160156 6.113281 74.195312 6.820312 76.128906 7.398438 C 78.066406 7.976562 80.710938 8.683594 81.933594 9.007812 C 83.160156 9.328125 84.257812 9.90625 84.386719 10.230469 C 84.515625 10.613281 86 10.9375 87.613281 10.9375 C 90.902344 10.9375 97.03125 12.351562 98.257812 13.445312 C 99.484375 14.410156 99.289062 75.460938 98.066406 76.875 C 96.710938 78.484375 90.96875 81.1875 89.871094 80.734375 C 89.289062 80.542969 88.386719 80.800781 87.742188 81.378906 C 86.515625 82.472656 77.226562 87.492188 68.257812 91.863281 C 64.839844 93.539062 61.933594 95.273438 61.804688 95.726562 C 61.484375 97.074219 53.546875 100.292969 50.644531 100.292969 C 49.097656 100.292969 46.195312 99.390625 43.417969 98.105469 Z M 56.773438 89.550781 L 56.773438 85.433594 L 54.710938 85.882812 C 51.613281 86.589844 51.613281 86.527344 51.613281 91.351562 L 51.613281 95.789062 L 54.195312 94.695312 L 56.773438 93.601562 Z M 49.03125 90.386719 C 49.03125 85.6875 48.96875 85.496094 47.289062 84.851562 C 44.128906 83.695312 43.546875 84.210938 43.355469 88.585938 L 43.160156 92.574219 L 45.613281 93.859375 C 46.96875 94.566406 48.257812 95.144531 48.582031 95.210938 C 48.839844 95.210938 49.03125 93.023438 49.03125 90.386719 Z M 59.613281 86.652344 C 59.355469 83.757812 59.097656 81.316406 59.03125 81.1875 C 58.96875 81.058594 57.160156 81.765625 55.097656 82.730469 C 51.289062 84.402344 51.160156 85.625 54.96875 84.339844 C 56.066406 83.953125 57.226562 83.628906 57.484375 83.628906 C 57.742188 83.628906 58.195312 85.625 58.453125 88.132812 C 59.03125 94.4375 60.128906 93.085938 59.613281 86.652344 Z M 41.933594 87.941406 C 41.933594 86.074219 42.324219 83.953125 42.839844 83.308594 C 43.675781 82.152344 43.871094 82.152344 46.386719 83.117188 C 47.804688 83.695312 49.03125 83.953125 49.03125 83.628906 C 49.03125 83.117188 42.515625 80.414062 41.289062 80.414062 C 40.902344 80.414062 40.644531 82.792969 40.644531 85.882812 C 40.644531 89.097656 40.902344 91.351562 41.289062 91.351562 C 41.675781 91.351562 41.933594 89.804688 41.933594 87.941406 Z M 68.453125 87.875 L 73.871094 85.109375 L 74.066406 70.183594 L 74.195312 55.261719 L 72.773438 55.710938 C 69.417969 56.675781 54 62.980469 53.484375 63.496094 C 53.160156 63.816406 52.96875 67.742188 53.03125 72.179688 L 53.226562 80.222656 L 56.386719 79.257812 C 59.484375 78.292969 59.546875 78.292969 60.710938 79.707031 C 61.675781 80.863281 61.933594 82.28125 61.933594 85.945312 C 61.933594 88.585938 62.195312 90.707031 62.453125 90.707031 C 62.773438 90.707031 65.484375 89.421875 68.453125 87.875 Z M 39.417969 77.582031 C 39.742188 77.199219 43.871094 78.292969 46.644531 79.449219 C 47.675781 79.898438 47.742188 79.382812 47.613281 72.308594 L 47.417969 64.652344 L 45.160156 63.558594 C 43.933594 62.914062 41.484375 62.015625 39.675781 61.4375 C 37.933594 60.921875 34.453125 59.441406 31.933594 58.21875 C 26.902344 55.710938 26.453125 55.902344 26.453125 60.277344 C 26.453125 64.007812 25.484375 66.261719 23.871094 66.261719 C 22.644531 66.261719 22.582031 66.648438 22.582031 74.558594 L 22.582031 82.921875 L 29.226562 86.074219 C 32.839844 87.8125 36.257812 89.355469 36.773438 89.550781 C 37.546875 89.804688 37.871094 88.710938 38.386719 83.886719 C 38.773438 80.605469 39.226562 77.777344 39.417969 77.582031 Z M 86.324219 77.96875 L 88.386719 76.425781 L 88.386719 70.183594 C 88.386719 64.523438 88.515625 63.816406 89.871094 62.59375 C 90.644531 61.886719 92.195312 60.984375 93.226562 60.664062 L 95.160156 60.019531 L 95.355469 53.523438 C 95.546875 47.285156 95.226562 46.191406 93.871094 47.539062 C 93.484375 47.863281 92.195312 48.441406 90.96875 48.761719 C 89.742188 49.148438 86.128906 50.4375 82.902344 51.65625 L 77.097656 53.84375 L 76.902344 68.769531 L 76.773438 83.695312 L 80.453125 81.636719 C 82.515625 80.476562 85.160156 78.871094 86.324219 77.96875 Z M 20.128906 73.335938 C 20.257812 66.96875 20.128906 65.488281 19.289062 64.78125 C 18.515625 64.074219 18.386719 63.171875 18.773438 60.085938 C 19.742188 52.429688 19.742188 52.496094 16 50.886719 C 14.128906 50.050781 10.773438 48.570312 8.582031 47.539062 L 4.515625 45.738281 L 4.515625 60.40625 L 6.96875 61.5 C 8.257812 62.144531 10.128906 63.367188 11.160156 64.203125 C 12.773438 65.746094 12.902344 66.195312 12.902344 71.472656 L 12.902344 77.070312 L 16 79 C 17.675781 80.09375 19.226562 80.992188 19.484375 80.992188 C 19.742188 81.058594 20 77.582031 20.128906 73.335938 Z M 10.257812 66.453125 C 9.226562 65.230469 5.871094 63.558594 5.03125 63.816406 C 4.710938 63.945312 5.546875 64.78125 6.902344 65.617188 C 9.226562 67.160156 9.355469 67.417969 9.546875 70.765625 C 9.804688 76.167969 10.582031 76.8125 10.839844 71.859375 C 10.96875 69.027344 10.773438 67.097656 10.257812 66.453125 Z M 6.324219 66.777344 L 4.839844 65.683594 L 4.644531 69.027344 C 4.453125 71.859375 4.644531 72.566406 5.933594 73.59375 L 7.417969 74.753906 L 7.613281 71.34375 C 7.804688 68.382812 7.613281 67.804688 6.324219 66.777344 Z M 92.257812 69.800781 C 92.257812 65.230469 92.386719 64.910156 93.871094 64.203125 C 96.257812 63.109375 95.804688 62.273438 93.417969 63.238281 L 91.289062 64.074219 L 91.097656 69.347656 C 90.96875 72.695312 91.160156 74.625 91.613281 74.625 C 92 74.625 92.257812 72.695312 92.257812 69.800781 Z M 95.484375 68.707031 C 95.484375 65.941406 95.289062 64.910156 94.710938 65.101562 C 94.195312 65.296875 93.804688 66.96875 93.675781 69.800781 C 93.484375 73.722656 93.613281 74.109375 94.515625 73.335938 C 95.160156 72.757812 95.484375 71.40625 95.484375 68.707031 Z M 23.097656 59.121094 C 21.675781 58.21875 21.289062 58.476562 21.289062 60.472656 C 21.289062 61.566406 21.742188 62.59375 22.453125 62.980469 C 23.355469 63.496094 23.546875 63.300781 23.742188 61.628906 C 23.871094 60.472656 23.613281 59.441406 23.097656 59.121094 Z M 47.742188 56.355469 L 47.742188 52.300781 L 42.324219 49.597656 C 39.355469 48.121094 36.515625 46.511719 36.128906 45.996094 C 35.742188 45.480469 35.226562 41.878906 35.03125 37.828125 L 34.644531 30.558594 L 30.453125 28.820312 C 28.128906 27.855469 26.128906 27.148438 26 27.210938 C 25.933594 27.339844 25.613281 29.914062 25.417969 33 C 25.03125 38.085938 25.097656 38.726562 26.195312 39.5625 C 27.226562 40.335938 27.417969 41.300781 27.417969 46.445312 L 27.417969 52.429688 L 37.417969 56.417969 C 42.902344 58.605469 47.484375 60.40625 47.613281 60.472656 C 47.675781 60.472656 47.742188 58.605469 47.742188 56.355469 Z M 64.386719 55.582031 L 74.195312 52.429688 L 74.195312 27.726562 L 70.195312 29.335938 C 67.933594 30.234375 65.804688 31.136719 65.355469 31.328125 C 64.773438 31.523438 64.515625 34.03125 64.386719 39.371094 L 64.195312 47.089844 L 60.324219 48.570312 C 52.710938 51.335938 52.902344 51.207031 52.902344 55.519531 C 52.902344 58.285156 53.097656 59.25 53.742188 59.054688 C 54.128906 58.863281 58.96875 57.320312 64.386719 55.582031 Z M 84.839844 48.3125 C 86.644531 47.667969 89.742188 46.445312 91.742188 45.609375 L 95.484375 44.066406 L 95.484375 30.878906 L 92.195312 32.488281 C 87.289062 34.996094 86.839844 34.738281 86.453125 28.5 C 86.257812 25.605469 85.933594 23.03125 85.675781 22.835938 C 85.484375 22.644531 83.417969 23.351562 81.03125 24.511719 L 76.773438 26.570312 L 76.773438 51.464844 L 79.226562 50.4375 C 80.515625 49.855469 83.097656 48.890625 84.839844 48.3125 Z M 19.933594 42.910156 C 20 39.757812 20.195312 39.050781 21.226562 38.792969 C 22.257812 38.535156 22.515625 37.570312 22.902344 32.035156 C 23.160156 28.5 23.226562 25.539062 23.097656 25.410156 C 22.582031 24.960938 14.515625 21.359375 14.324219 21.550781 C 14.257812 21.617188 13.871094 24.125 13.546875 27.082031 C 12.773438 33.644531 12.128906 34.480469 8.839844 33.128906 C 4.644531 31.394531 4.515625 31.523438 4.515625 37.570312 L 4.515625 42.910156 L 11.742188 46.253906 C 20.128906 49.984375 19.804688 50.113281 19.933594 42.910156 Z M 47.742188 48.3125 C 47.742188 47.539062 47.097656 46.960938 46 46.640625 C 44.96875 46.445312 43.097656 45.546875 41.804688 44.710938 L 39.417969 43.101562 L 39.226562 37.828125 C 39.097656 34.351562 38.773438 32.488281 38.257812 32.292969 C 37.613281 32.101562 37.417969 33.195312 37.484375 36.476562 C 37.613281 44.066406 37.804688 44.386719 42.902344 47.089844 C 45.417969 48.441406 47.484375 49.535156 47.613281 49.535156 C 47.675781 49.535156 47.742188 48.957031 47.742188 48.3125 Z M 59.871094 46.125 L 61.933594 45.480469 L 61.933594 39.113281 C 61.933594 35.316406 61.675781 32.808594 61.289062 32.808594 C 60.902344 32.808594 60.644531 34.933594 60.644531 37.890625 C 60.644531 43.679688 60.386719 44.132812 55.804688 46.320312 C 52.324219 47.992188 51.871094 49.34375 55.355469 47.863281 C 56.644531 47.285156 58.710938 46.511719 59.871094 46.125 Z M 25.097656 42.652344 C 25.160156 41.558594 24.773438 41.171875 23.871094 41.171875 C 22.839844 41.171875 22.582031 41.621094 22.582031 43.359375 C 22.582031 47.21875 24.96875 46.445312 25.097656 42.652344 Z M 47.742188 40.851562 L 47.742188 36.027344 L 45.613281 35.125 C 40.324219 32.9375 40.582031 32.808594 40.773438 38.085938 L 40.96875 42.78125 L 43.871094 44.195312 C 45.484375 44.96875 46.96875 45.609375 47.289062 45.675781 C 47.546875 45.675781 47.742188 43.488281 47.742188 40.851562 Z M 56.773438 44.386719 L 59.355469 43.101562 L 59.355469 38.597656 C 59.355469 36.089844 59.097656 34.09375 58.710938 34.09375 C 58.386719 34.09375 56.902344 34.546875 55.484375 35.125 L 52.902344 36.152344 L 52.902344 40.914062 C 52.902344 43.808594 53.160156 45.675781 53.546875 45.675781 C 53.933594 45.675781 55.417969 45.097656 56.773438 44.386719 Z M 55.417969 32.421875 C 57.871094 31.199219 57.613281 30.816406 53.417969 29.269531 C 50.324219 28.113281 47.355469 28.242188 44.128906 29.722656 C 42.066406 30.6875 42.195312 31.007812 45.03125 32.292969 C 48.128906 33.644531 52.839844 33.710938 55.417969 32.421875 Z M 95.226562 27.792969 C 95.097656 27.726562 94.195312 27.917969 93.226562 28.304688 C 90.324219 29.398438 89.675781 28.757812 89.675781 24.640625 C 89.675781 22.453125 89.417969 21.230469 89.097656 21.617188 C 88.773438 21.9375 88.644531 24.253906 88.839844 26.824219 L 89.226562 31.457031 L 92.257812 29.722656 C 94 28.757812 95.289062 27.917969 95.226562 27.792969 Z M 10.515625 30.429688 C 10.710938 30.105469 11.03125 27.664062 11.289062 24.960938 C 11.613281 21.421875 11.546875 19.941406 11.03125 19.941406 C 10.582031 19.941406 10.324219 21.359375 10.324219 23.675781 C 10.324219 28.5 9.804688 29.269531 6.773438 28.757812 C 4 28.304688 4.257812 28.882812 7.289062 30.042969 C 9.871094 30.941406 10.195312 31.007812 10.515625 30.429688 Z M 60.902344 30.363281 C 61.289062 29.785156 54.195312 26.054688 51.675781 25.476562 C 49.804688 25.089844 42.773438 27.277344 40.644531 28.949219 C 38.386719 30.6875 40.066406 30.558594 43.871094 28.628906 C 47.933594 26.570312 51.03125 26.632812 55.484375 28.882812 C 59.355469 30.878906 60.386719 31.136719 60.902344 30.363281 Z M 68.066406 27.40625 L 71.289062 25.925781 L 68.644531 25.152344 C 66.066406 24.445312 55.804688 20.070312 51.03125 17.691406 C 48.902344 16.597656 48.839844 16.597656 42 19.300781 C 31.03125 23.675781 29.03125 24.574219 29.03125 25.089844 C 29.03125 25.347656 30.644531 26.246094 32.582031 27.019531 L 36.066406 28.433594 L 39.097656 26.761719 C 40.710938 25.859375 43.933594 24.511719 46.257812 23.800781 L 50.386719 22.515625 L 54.386719 23.867188 C 56.582031 24.574219 59.546875 25.988281 60.96875 27.019531 C 62.386719 28.046875 63.871094 28.882812 64.195312 28.882812 C 64.582031 28.882812 66.324219 28.242188 68.066406 27.40625 Z M 8.902344 23.03125 L 9.097656 18.785156 L 6.773438 17.5 L 4.515625 16.148438 L 4.515625 21.550781 C 4.515625 26.632812 4.582031 26.953125 6 27.210938 C 8.453125 27.664062 8.710938 27.339844 8.902344 23.03125 Z M 94.066406 26.632812 C 95.289062 26.246094 95.484375 25.796875 95.484375 22.773438 C 95.484375 20.84375 95.355469 19.300781 95.226562 19.300781 C 95.160156 19.300781 94.128906 19.621094 92.96875 20.007812 C 91.546875 20.523438 91.03125 21.035156 91.226562 21.679688 C 91.417969 22.195312 91.613281 23.609375 91.613281 24.832031 C 91.613281 27.148438 91.742188 27.210938 94.066406 26.632812 Z M 79.742188 22.453125 L 84.195312 20.457031 L 81.871094 19.300781 C 80.644531 18.65625 79.160156 17.625 78.710938 17.046875 C 77.871094 16.082031 78 15.761719 79.613281 14.347656 C 80.644531 13.507812 81.355469 12.738281 81.226562 12.609375 C 81.097656 12.542969 78.195312 11.644531 74.773438 10.613281 L 68.582031 8.878906 L 62.515625 11.128906 C 55.097656 13.894531 52.902344 14.859375 52.902344 15.441406 C 52.902344 15.953125 62.128906 20.199219 67.675781 22.257812 C 69.933594 23.09375 71.933594 23.929688 72.128906 24.125 C 72.902344 24.894531 75.546875 24.316406 79.742188 22.453125 Z M 37.675781 18.398438 C 41.546875 16.726562 44.839844 15.3125 44.96875 15.183594 C 45.097656 15.117188 41.742188 13.507812 37.484375 11.644531 L 29.804688 8.296875 L 24.773438 9.84375 L 19.675781 11.386719 L 21.804688 12.480469 C 22.96875 13.058594 23.871094 14.023438 23.871094 14.730469 C 23.871094 15.824219 21.484375 17.371094 19.675781 17.371094 C 19.226562 17.371094 18 17.691406 16.96875 18.078125 C 15.160156 18.785156 15.160156 18.785156 20 21.164062 L 24.839844 23.546875 L 27.742188 22.453125 C 29.355469 21.808594 33.804688 20.007812 37.675781 18.398438 Z M 86 18.011719 C 83.613281 16.597656 83.355469 15.824219 85.03125 14.859375 C 86.644531 13.894531 85.675781 14.023438 83.226562 15.054688 C 80.96875 15.953125 80.96875 15.953125 84.839844 18.140625 C 87.546875 19.683594 88.515625 19.558594 86 18.011719 Z M 93.160156 17.304688 C 94.96875 16.789062 95.484375 16.46875 94.773438 16.082031 C 92.902344 15.117188 89.160156 14.796875 87.355469 15.503906 L 85.484375 16.210938 L 87.417969 17.113281 C 89.804688 18.140625 90.066406 18.140625 93.160156 17.304688 Z M 16.453125 15.824219 C 19.871094 14.472656 20.066406 14.21875 18.902344 13.574219 C 17.804688 12.996094 17.484375 13.125 17.226562 14.152344 C 17.03125 14.859375 16.386719 15.441406 15.675781 15.441406 C 14.453125 15.503906 10.839844 17.304688 12 17.371094 C 12.386719 17.371094 14.386719 16.660156 16.453125 15.824219 Z M 13.871094 14.796875 C 16.324219 13.832031 15.226562 12.671875 12.386719 13.1875 C 8.902344 13.832031 7.355469 14.796875 8.453125 15.503906 C 9.355469 16.082031 10.96875 15.890625 13.871094 14.796875 Z M 59.355469 9.714844 L 64.128906 7.847656 L 60.96875 6.882812 C 58.324219 6.175781 57.484375 6.113281 56.453125 6.820312 C 55.742188 7.269531 54 7.914062 52.582031 8.363281 C 50.386719 9.007812 49.417969 8.878906 46.128906 7.71875 C 40.644531 5.726562 39.097656 5.53125 36.324219 6.496094 C 33.933594 7.269531 33.871094 7.269531 35.484375 7.976562 C 39.226562 9.519531 46.839844 12.929688 47.742188 13.382812 C 48.257812 13.703125 49.871094 13.445312 51.613281 12.800781 C 53.226562 12.160156 56.710938 10.808594 59.355469 9.714844 Z M 54.195312 4.824219 C 54.195312 4.695312 53.289062 4.890625 52.195312 5.273438 C 50.644531 5.789062 49.742188 5.726562 47.675781 4.824219 C 46.324219 4.179688 44.96875 3.859375 44.773438 4.054688 C 44.515625 4.308594 45.160156 4.761719 46.195312 5.148438 C 47.226562 5.53125 48.644531 6.046875 49.289062 6.304688 C 50.386719 6.753906 54.195312 5.597656 54.195312 4.824219 Z M 54.195312 4.824219 "
    />
  </g>
</svg>
