<svg xmlns="http://www.w3.org/2000/svg" id="root" viewBox="0 0 100 101">
  <g>
    <path
      d="M 48.554688 100.789062 C 46.589844 100.292969 44.402344 99.449219 42.113281 98.304688 C 40.277344 97.382812 38.925781 96.433594 38.746094 95.941406 C 38.714844 95.851562 38.679688 95.777344 38.664062 95.777344 C 38.652344 95.777344 38.636719 95.6875 38.636719 95.582031 C 38.632812 95.464844 38.609375 95.367188 38.574219 95.347656 C 38.539062 95.324219 38.527344 95.308594 38.546875 95.308594 C 38.578125 95.308594 38.472656 95.082031 38.402344 94.992188 C 37.988281 94.496094 37.839844 94.402344 37.089844 94.132812 C 34.507812 93.207031 29.164062 90.824219 24.613281 88.570312 C 22.082031 87.316406 21.164062 86.808594 20.628906 86.355469 C 20.226562 86.011719 19.667969 85.644531 19.195312 85.40625 C 18.707031 85.164062 18.464844 85.070312 17.898438 84.910156 C 16.925781 84.625 14.886719 83.609375 13.710938 82.8125 C 13.128906 82.421875 12.167969 81.976562 11.441406 81.757812 C 11.132812 81.667969 10.949219 81.644531 10.515625 81.632812 C 9.910156 81.617188 9.550781 81.542969 8.835938 81.273438 C 7.535156 80.792969 6.808594 80.40625 3.546875 78.472656 L 0.867188 76.882812 L 0.863281 72.445312 C 0.863281 70.003906 0.847656 68.003906 0.832031 68.003906 C 0.808594 68.003906 0.800781 63.382812 0.808594 57.734375 C 0.820312 52.082031 0.808594 47.460938 0.789062 47.460938 C 0.773438 47.460938 0.753906 45.679688 0.753906 43.503906 C 0.753906 41.324219 0.773438 39.542969 0.789062 39.542969 C 0.804688 39.542969 0.820312 37.320312 0.808594 34.601562 C 0.800781 31.882812 0.816406 29.65625 0.832031 29.65625 C 0.847656 29.65625 0.863281 28.269531 0.851562 26.578125 C 0.84375 24.882812 0.859375 23.496094 0.875 23.496094 C 0.898438 23.496094 0.90625 22.800781 0.898438 21.953125 C 0.886719 21.105469 0.902344 20.414062 0.917969 20.414062 C 0.941406 20.414062 0.949219 19.90625 0.941406 19.28125 C 0.929688 18.65625 0.945312 18.144531 0.960938 18.144531 C 0.984375 18.144531 0.992188 17.800781 0.984375 17.375 C 0.972656 16.953125 0.988281 16.605469 1.003906 16.605469 C 1.027344 16.605469 1.035156 16.382812 1.027344 16.113281 C 1.015625 15.84375 1.027344 15.621094 1.046875 15.621094 C 1.066406 15.621094 1.078125 15.535156 1.078125 15.429688 C 1.078125 15.160156 1.167969 14.96875 1.375 14.808594 C 1.472656 14.730469 1.550781 14.640625 1.550781 14.605469 C 1.550781 14.578125 1.582031 14.550781 1.621094 14.550781 C 1.714844 14.550781 2.414062 14.117188 2.386719 14.074219 C 2.375 14.054688 2.414062 14.039062 2.472656 14.039062 C 2.542969 14.039062 2.585938 14.011719 2.585938 13.972656 C 2.585938 13.9375 2.625 13.910156 2.671875 13.910156 C 2.785156 13.910156 4.308594 13.152344 4.308594 13.097656 C 4.308594 13.074219 4.351562 13.058594 4.410156 13.058594 C 4.460938 13.0625 4.796875 12.9375 5.152344 12.777344 C 5.507812 12.621094 5.839844 12.476562 5.890625 12.453125 C 5.949219 12.433594 5.992188 12.394531 5.992188 12.367188 C 5.992188 12.347656 6.035156 12.328125 6.085938 12.332031 C 6.207031 12.339844 7.800781 11.710938 7.84375 11.636719 C 7.867188 11.609375 7.910156 11.597656 7.949219 11.609375 C 7.992188 11.628906 8.03125 11.613281 8.046875 11.570312 C 8.058594 11.539062 8.101562 11.511719 8.140625 11.515625 C 8.261719 11.535156 8.492188 11.464844 8.527344 11.398438 C 8.546875 11.363281 8.628906 11.328125 8.710938 11.320312 C 8.953125 11.296875 9.09375 11.25 9.132812 11.179688 C 9.15625 11.140625 9.238281 11.109375 9.328125 11.109375 C 9.417969 11.105469 9.5 11.078125 9.515625 11.054688 C 9.535156 11.023438 9.585938 11.007812 9.632812 11.007812 C 9.757812 11.015625 10.300781 10.828125 10.300781 10.777344 C 10.300781 10.75 10.339844 10.742188 10.386719 10.753906 C 10.496094 10.78125 10.992188 10.621094 10.992188 10.5625 C 10.992188 10.535156 11.03125 10.527344 11.078125 10.539062 C 11.175781 10.566406 11.59375 10.449219 11.59375 10.398438 C 11.59375 10.378906 11.648438 10.367188 11.714844 10.371094 C 11.859375 10.378906 13.160156 10.058594 13.195312 10.003906 C 13.207031 9.984375 13.273438 9.980469 13.332031 9.996094 C 13.410156 10.015625 13.449219 10.003906 13.449219 9.972656 C 13.449219 9.9375 13.492188 9.933594 13.578125 9.949219 C 13.660156 9.96875 13.707031 9.964844 13.707031 9.933594 C 13.707031 9.902344 13.777344 9.898438 13.902344 9.914062 C 14.015625 9.929688 14.09375 9.925781 14.09375 9.898438 C 14.09375 9.875 14.234375 9.863281 14.441406 9.878906 C 14.691406 9.890625 14.785156 9.882812 14.785156 9.84375 C 14.785156 9.808594 14.828125 9.804688 14.914062 9.820312 C 15 9.839844 15.042969 9.835938 15.042969 9.800781 C 15.042969 9.765625 15.085938 9.761719 15.171875 9.777344 C 15.246094 9.796875 15.300781 9.789062 15.300781 9.765625 C 15.300781 9.746094 15.390625 9.726562 15.5 9.726562 C 15.609375 9.726562 15.710938 9.710938 15.722656 9.683594 C 15.742188 9.664062 15.828125 9.644531 15.917969 9.644531 C 16.011719 9.644531 16.097656 9.621094 16.121094 9.589844 C 16.136719 9.554688 16.183594 9.542969 16.222656 9.554688 C 16.261719 9.574219 16.292969 9.566406 16.292969 9.539062 C 16.292969 9.507812 16.335938 9.5 16.390625 9.519531 C 16.515625 9.546875 18.445312 9.058594 18.492188 8.988281 C 18.507812 8.957031 18.554688 8.945312 18.589844 8.957031 C 18.675781 8.988281 19.222656 8.824219 19.222656 8.765625 C 19.222656 8.738281 19.265625 8.730469 19.328125 8.746094 C 19.398438 8.765625 19.457031 8.746094 19.503906 8.703125 C 19.539062 8.667969 19.597656 8.644531 19.632812 8.65625 C 19.710938 8.6875 20.347656 8.496094 20.386719 8.425781 C 20.40625 8.402344 20.496094 8.371094 20.589844 8.367188 C 20.800781 8.355469 21.207031 8.226562 21.207031 8.164062 C 21.207031 8.140625 21.246094 8.132812 21.292969 8.144531 C 21.398438 8.167969 22.5 7.816406 22.546875 7.742188 C 22.558594 7.714844 22.617188 7.707031 22.664062 7.71875 C 22.714844 7.738281 22.777344 7.71875 22.820312 7.675781 C 22.859375 7.640625 22.917969 7.621094 22.953125 7.636719 C 23.03125 7.664062 23.535156 7.492188 23.535156 7.4375 C 23.535156 7.414062 23.574219 7.402344 23.621094 7.417969 C 23.726562 7.445312 24.265625 7.289062 24.265625 7.222656 C 24.265625 7.199219 24.304688 7.191406 24.359375 7.203125 C 24.460938 7.234375 24.699219 7.15625 24.699219 7.09375 C 24.699219 7.070312 24.738281 7.0625 24.785156 7.074219 C 24.886719 7.101562 25.429688 6.941406 25.429688 6.882812 C 25.429688 6.855469 25.476562 6.847656 25.535156 6.863281 C 25.601562 6.882812 25.664062 6.863281 25.710938 6.820312 C 25.746094 6.785156 25.804688 6.761719 25.835938 6.773438 C 25.917969 6.804688 26.335938 6.679688 26.335938 6.625 C 26.335938 6.597656 26.375 6.589844 26.421875 6.605469 C 26.535156 6.632812 26.808594 6.554688 26.808594 6.496094 C 26.808594 6.472656 26.847656 6.460938 26.898438 6.476562 C 27.007812 6.503906 27.761719 6.3125 27.800781 6.242188 C 27.824219 6.21875 27.867188 6.207031 27.90625 6.21875 C 27.976562 6.25 28.890625 6.078125 28.914062 6.03125 C 28.921875 6.007812 29.027344 6.007812 29.140625 6.019531 C 29.292969 6.039062 29.351562 6.03125 29.351562 5.996094 C 29.351562 5.957031 29.390625 5.949219 29.484375 5.96875 C 29.570312 5.988281 29.613281 5.984375 29.613281 5.949219 C 29.613281 5.914062 29.652344 5.90625 29.710938 5.921875 C 29.835938 5.953125 30.128906 5.875 30.128906 5.8125 C 30.128906 5.785156 30.167969 5.777344 30.21875 5.789062 C 30.324219 5.820312 30.558594 5.742188 30.558594 5.683594 C 30.558594 5.65625 30.609375 5.648438 30.664062 5.667969 C 30.742188 5.683594 30.785156 5.671875 30.808594 5.625 C 30.835938 5.582031 30.878906 5.558594 30.917969 5.578125 C 30.960938 5.59375 31.003906 5.578125 31.027344 5.535156 C 31.050781 5.496094 31.09375 5.472656 31.132812 5.492188 C 31.175781 5.507812 31.21875 5.492188 31.242188 5.449219 C 31.265625 5.410156 31.308594 5.386719 31.347656 5.40625 C 31.390625 5.421875 31.433594 5.40625 31.457031 5.363281 C 31.476562 5.324219 31.527344 5.300781 31.558594 5.320312 C 31.640625 5.347656 32.585938 4.898438 32.585938 4.832031 C 32.585938 4.800781 32.621094 4.792969 32.675781 4.804688 C 32.734375 4.824219 32.796875 4.796875 32.851562 4.742188 C 32.902344 4.695312 32.964844 4.667969 33 4.683594 C 33.035156 4.695312 33.074219 4.675781 33.089844 4.640625 C 33.101562 4.605469 33.148438 4.578125 33.183594 4.585938 C 33.296875 4.605469 33.667969 4.484375 33.695312 4.425781 C 33.707031 4.390625 33.757812 4.371094 33.804688 4.375 C 33.933594 4.382812 34.351562 4.242188 34.351562 4.183594 C 34.351562 4.160156 34.390625 4.152344 34.441406 4.164062 C 34.535156 4.191406 35.433594 3.914062 35.476562 3.847656 C 35.492188 3.820312 35.546875 3.8125 35.59375 3.824219 C 35.648438 3.84375 35.707031 3.824219 35.75 3.785156 C 35.789062 3.746094 35.847656 3.722656 35.882812 3.734375 C 35.964844 3.769531 36.25 3.683594 36.25 3.628906 C 36.25 3.601562 36.292969 3.59375 36.351562 3.613281 C 36.421875 3.628906 36.484375 3.613281 36.527344 3.570312 C 36.566406 3.53125 36.628906 3.511719 36.675781 3.53125 C 36.722656 3.542969 36.789062 3.527344 36.828125 3.484375 C 36.867188 3.445312 36.925781 3.429688 36.960938 3.441406 C 36.996094 3.453125 37.027344 3.441406 37.027344 3.417969 C 37.027344 3.394531 37.066406 3.382812 37.113281 3.394531 C 37.160156 3.40625 37.199219 3.398438 37.199219 3.371094 C 37.199219 3.347656 37.238281 3.339844 37.285156 3.351562 C 37.398438 3.382812 37.671875 3.304688 37.671875 3.242188 C 37.671875 3.21875 37.710938 3.210938 37.757812 3.222656 C 37.804688 3.234375 37.84375 3.226562 37.84375 3.203125 C 37.84375 3.175781 37.886719 3.167969 37.941406 3.179688 C 38.046875 3.210938 38.578125 3.089844 38.578125 3.035156 C 38.578125 3.015625 38.640625 3.003906 38.71875 3.007812 C 38.898438 3.015625 40.226562 2.699219 40.261719 2.644531 C 40.28125 2.621094 40.324219 2.609375 40.363281 2.625 C 40.449219 2.65625 41.175781 2.492188 41.210938 2.429688 C 41.226562 2.40625 41.28125 2.402344 41.332031 2.417969 C 41.386719 2.433594 41.421875 2.425781 41.421875 2.398438 C 41.421875 2.363281 41.457031 2.355469 41.515625 2.367188 C 41.632812 2.398438 42.207031 2.28125 42.246094 2.222656 C 42.261719 2.195312 42.316406 2.1875 42.367188 2.203125 C 42.421875 2.222656 42.457031 2.210938 42.457031 2.183594 C 42.457031 2.148438 42.496094 2.140625 42.566406 2.15625 C 42.632812 2.175781 42.671875 2.164062 42.671875 2.136719 C 42.671875 2.105469 42.710938 2.097656 42.78125 2.113281 C 42.847656 2.132812 42.886719 2.121094 42.886719 2.09375 C 42.886719 2.0625 42.925781 2.054688 42.996094 2.070312 C 43.054688 2.089844 43.101562 2.085938 43.101562 2.0625 C 43.101562 2.046875 43.203125 2.027344 43.324219 2.027344 C 43.457031 2.027344 43.554688 2.007812 43.578125 1.96875 C 43.59375 1.9375 43.640625 1.925781 43.683594 1.941406 C 43.777344 1.976562 44.925781 1.757812 44.960938 1.699219 C 44.976562 1.675781 45.027344 1.667969 45.066406 1.6875 C 45.164062 1.71875 45.691406 1.628906 45.691406 1.574219 C 45.691406 1.554688 45.746094 1.546875 45.820312 1.5625 C 45.90625 1.578125 45.949219 1.574219 45.949219 1.539062 C 45.949219 1.507812 45.984375 1.496094 46.046875 1.515625 C 46.15625 1.539062 46.679688 1.464844 46.679688 1.417969 C 46.679688 1.398438 46.78125 1.386719 46.902344 1.386719 C 47.023438 1.386719 47.128906 1.363281 47.148438 1.339844 C 47.164062 1.316406 47.246094 1.296875 47.328125 1.300781 C 47.535156 1.304688 48.808594 1.101562 48.828125 1.0625 C 48.835938 1.042969 48.925781 1.039062 49.035156 1.058594 C 49.140625 1.070312 49.222656 1.066406 49.222656 1.039062 C 49.222656 1.019531 49.382812 1.011719 49.613281 1.019531 C 49.875 1.03125 50 1.023438 50 0.992188 C 50 0.9375 50.421875 0.945312 50.507812 1 C 50.539062 1.019531 50.65625 1.027344 50.765625 1.023438 C 50.882812 1.019531 51 1.027344 51.027344 1.042969 C 51.054688 1.0625 51.132812 1.070312 51.199219 1.066406 C 51.261719 1.058594 51.335938 1.066406 51.363281 1.082031 C 51.390625 1.101562 51.488281 1.121094 51.578125 1.128906 C 51.671875 1.136719 51.777344 1.15625 51.808594 1.167969 C 51.90625 1.207031 52.421875 1.339844 52.5 1.34375 C 52.539062 1.347656 52.585938 1.363281 52.609375 1.378906 C 52.660156 1.402344 53.46875 1.671875 53.546875 1.6875 C 53.578125 1.691406 53.636719 1.714844 53.683594 1.742188 C 53.816406 1.808594 54.398438 2.011719 54.398438 1.988281 C 54.398438 1.976562 54.441406 1.996094 54.496094 2.03125 C 54.546875 2.066406 54.632812 2.101562 54.675781 2.109375 C 54.722656 2.113281 54.785156 2.136719 54.808594 2.152344 C 54.90625 2.207031 55.558594 2.433594 55.558594 2.414062 C 55.558594 2.398438 55.585938 2.410156 55.621094 2.433594 C 55.691406 2.496094 56.164062 2.65625 56.164062 2.625 C 56.164062 2.609375 56.191406 2.621094 56.21875 2.644531 C 56.292969 2.703125 56.984375 2.957031 56.984375 2.925781 C 56.984375 2.910156 57.007812 2.921875 57.042969 2.949219 C 57.113281 3.007812 57.585938 3.171875 57.585938 3.136719 C 57.585938 3.125 57.613281 3.136719 57.648438 3.164062 C 57.691406 3.203125 58.050781 3.339844 58.199219 3.375 C 58.214844 3.382812 58.296875 3.410156 58.382812 3.445312 C 58.464844 3.480469 58.566406 3.511719 58.609375 3.523438 C 58.652344 3.527344 58.710938 3.546875 58.742188 3.566406 C 58.828125 3.621094 59.398438 3.804688 59.398438 3.777344 C 59.398438 3.765625 59.425781 3.777344 59.460938 3.808594 C 59.496094 3.839844 59.527344 3.847656 59.527344 3.832031 C 59.527344 3.8125 59.550781 3.820312 59.585938 3.847656 C 59.65625 3.90625 60.257812 4.113281 60.257812 4.078125 C 60.257812 4.066406 60.289062 4.078125 60.324219 4.109375 C 60.359375 4.136719 60.386719 4.152344 60.386719 4.132812 C 60.386719 4.117188 60.433594 4.136719 60.496094 4.175781 C 60.554688 4.214844 60.617188 4.238281 60.632812 4.21875 C 60.648438 4.207031 60.683594 4.214844 60.71875 4.242188 C 60.75 4.265625 60.777344 4.273438 60.777344 4.257812 C 60.777344 4.242188 60.804688 4.25 60.839844 4.28125 C 60.875 4.308594 60.90625 4.316406 60.90625 4.300781 C 60.90625 4.285156 60.933594 4.292969 60.96875 4.324219 C 61.003906 4.351562 61.035156 4.359375 61.035156 4.34375 C 61.035156 4.328125 61.066406 4.335938 61.097656 4.367188 C 61.132812 4.394531 61.164062 4.402344 61.164062 4.386719 C 61.164062 4.371094 61.191406 4.378906 61.222656 4.402344 C 61.28125 4.449219 62.003906 4.707031 62.058594 4.703125 C 62.078125 4.699219 62.101562 4.703125 62.125 4.707031 C 62.140625 4.710938 62.175781 4.726562 62.199219 4.730469 C 62.222656 4.734375 62.25 4.746094 62.261719 4.75 C 62.277344 4.753906 62.304688 4.765625 62.328125 4.773438 C 62.351562 4.777344 62.378906 4.789062 62.390625 4.792969 C 62.40625 4.796875 62.425781 4.804688 62.449219 4.816406 C 62.464844 4.820312 62.507812 4.835938 62.542969 4.847656 C 62.726562 4.929688 63.507812 5.175781 63.527344 5.15625 C 63.539062 5.144531 63.570312 5.152344 63.59375 5.175781 C 63.652344 5.21875 64.082031 5.363281 64.203125 5.375 C 64.25 5.378906 64.292969 5.386719 64.300781 5.390625 C 64.304688 5.402344 64.324219 5.40625 64.34375 5.414062 C 64.363281 5.417969 64.433594 5.445312 64.503906 5.472656 C 64.578125 5.503906 64.671875 5.535156 64.71875 5.539062 C 64.765625 5.546875 64.863281 5.570312 64.925781 5.601562 C 64.992188 5.628906 65.058594 5.644531 65.078125 5.640625 C 65.09375 5.636719 65.164062 5.65625 65.234375 5.6875 C 65.300781 5.714844 65.40625 5.742188 65.46875 5.75 C 65.53125 5.761719 65.640625 5.789062 65.710938 5.816406 C 65.785156 5.847656 65.878906 5.875 65.925781 5.878906 C 65.976562 5.882812 66.039062 5.90625 66.070312 5.921875 C 66.097656 5.941406 66.136719 5.945312 66.160156 5.925781 C 66.179688 5.914062 66.214844 5.925781 66.226562 5.953125 C 66.246094 5.972656 66.285156 5.988281 66.320312 5.972656 C 66.347656 5.960938 66.386719 5.96875 66.402344 5.988281 C 66.421875 6.019531 66.796875 6.128906 66.941406 6.140625 C 66.976562 6.140625 67.03125 6.164062 67.058594 6.179688 C 67.089844 6.195312 67.128906 6.203125 67.140625 6.1875 C 67.15625 6.175781 67.195312 6.183594 67.222656 6.207031 C 67.25 6.230469 67.34375 6.257812 67.421875 6.265625 C 67.503906 6.273438 67.59375 6.292969 67.625 6.308594 C 67.65625 6.328125 67.691406 6.328125 67.703125 6.316406 C 67.714844 6.304688 67.753906 6.3125 67.789062 6.34375 C 67.820312 6.367188 67.859375 6.375 67.875 6.363281 C 67.886719 6.347656 67.921875 6.351562 67.949219 6.371094 C 68.007812 6.417969 68.453125 6.511719 68.484375 6.484375 C 68.496094 6.472656 68.53125 6.484375 68.558594 6.507812 C 68.59375 6.535156 68.648438 6.546875 68.679688 6.535156 C 68.710938 6.523438 68.757812 6.53125 68.78125 6.550781 C 68.800781 6.574219 68.910156 6.597656 69.015625 6.609375 C 69.125 6.617188 69.238281 6.632812 69.257812 6.652344 C 69.285156 6.667969 69.386719 6.683594 69.492188 6.695312 C 69.59375 6.703125 69.707031 6.71875 69.742188 6.730469 C 69.875 6.785156 70.703125 6.933594 70.722656 6.910156 C 70.738281 6.898438 70.765625 6.90625 70.792969 6.929688 C 70.851562 6.976562 71.511719 7.113281 71.542969 7.082031 C 71.554688 7.070312 71.589844 7.082031 71.621094 7.105469 C 71.648438 7.128906 71.742188 7.15625 71.820312 7.164062 C 71.902344 7.171875 71.992188 7.191406 72.023438 7.207031 C 72.050781 7.226562 72.085938 7.226562 72.097656 7.214844 C 72.113281 7.203125 72.148438 7.207031 72.171875 7.226562 C 72.222656 7.265625 72.609375 7.367188 72.660156 7.351562 C 72.679688 7.351562 72.722656 7.359375 72.757812 7.375 C 72.835938 7.40625 74.382812 7.792969 74.503906 7.804688 C 74.550781 7.816406 74.648438 7.84375 74.714844 7.871094 C 74.785156 7.894531 74.886719 7.925781 74.953125 7.929688 C 75.015625 7.9375 75.09375 7.960938 75.125 7.976562 C 75.15625 7.996094 75.191406 8 75.203125 7.984375 C 75.214844 7.972656 75.253906 7.980469 75.285156 8.003906 C 75.308594 8.027344 75.351562 8.046875 75.371094 8.042969 C 75.390625 8.039062 75.46875 8.054688 75.539062 8.085938 C 75.613281 8.113281 75.707031 8.144531 75.753906 8.148438 C 75.800781 8.15625 75.898438 8.183594 75.960938 8.210938 C 76.027344 8.238281 76.09375 8.253906 76.113281 8.25 C 76.128906 8.246094 76.199219 8.269531 76.261719 8.292969 C 76.328125 8.324219 76.398438 8.339844 76.414062 8.335938 C 76.429688 8.332031 76.503906 8.355469 76.574219 8.382812 C 76.648438 8.414062 76.742188 8.445312 76.789062 8.449219 C 76.835938 8.457031 76.929688 8.480469 76.996094 8.511719 C 77.058594 8.539062 77.128906 8.554688 77.148438 8.550781 C 77.164062 8.546875 77.234375 8.566406 77.296875 8.59375 C 77.363281 8.625 77.429688 8.640625 77.449219 8.636719 C 77.464844 8.632812 77.535156 8.652344 77.601562 8.683594 C 77.671875 8.710938 77.738281 8.722656 77.75 8.710938 C 77.761719 8.699219 77.792969 8.703125 77.820312 8.726562 C 77.882812 8.777344 78.5 8.949219 78.527344 8.921875 C 78.539062 8.910156 78.570312 8.917969 78.59375 8.941406 C 78.648438 8.980469 79.082031 9.117188 79.128906 9.105469 C 79.148438 9.101562 79.214844 9.125 79.285156 9.152344 C 79.351562 9.179688 79.457031 9.210938 79.523438 9.214844 C 79.585938 9.222656 79.65625 9.238281 79.675781 9.253906 C 79.734375 9.285156 80.371094 9.460938 80.488281 9.476562 C 80.539062 9.484375 80.636719 9.515625 80.707031 9.539062 C 80.777344 9.566406 80.878906 9.59375 80.945312 9.597656 C 81.007812 9.609375 81.082031 9.628906 81.113281 9.644531 C 81.140625 9.664062 81.179688 9.667969 81.203125 9.652344 C 81.222656 9.636719 81.257812 9.652344 81.273438 9.675781 C 81.289062 9.699219 81.328125 9.710938 81.363281 9.699219 C 81.390625 9.683594 81.429688 9.695312 81.445312 9.710938 C 81.460938 9.746094 81.816406 9.847656 81.984375 9.863281 C 82.015625 9.867188 82.101562 9.894531 82.167969 9.921875 C 82.234375 9.949219 82.300781 9.96875 82.320312 9.964844 C 82.335938 9.957031 82.40625 9.980469 82.472656 10.011719 C 82.542969 10.035156 82.628906 10.066406 82.667969 10.074219 C 82.707031 10.082031 82.816406 10.121094 82.910156 10.164062 C 83.238281 10.304688 83.363281 10.351562 83.363281 10.335938 C 83.363281 10.324219 83.445312 10.359375 83.546875 10.414062 C 83.96875 10.640625 84.320312 10.890625 84.488281 11.089844 C 84.667969 11.300781 84.828125 11.410156 85.007812 11.445312 C 85.066406 11.457031 85.113281 11.464844 85.121094 11.472656 C 85.125 11.476562 85.140625 11.480469 85.164062 11.492188 C 85.179688 11.496094 85.25 11.519531 85.320312 11.550781 C 85.386719 11.578125 85.46875 11.59375 85.5 11.582031 C 85.535156 11.566406 85.570312 11.578125 85.585938 11.601562 C 85.597656 11.625 85.640625 11.640625 85.679688 11.636719 C 85.722656 11.632812 85.789062 11.640625 85.832031 11.660156 C 85.871094 11.679688 85.933594 11.683594 85.96875 11.671875 C 86.003906 11.652344 86.042969 11.660156 86.058594 11.6875 C 86.074219 11.714844 86.148438 11.726562 86.222656 11.722656 C 86.296875 11.714844 86.382812 11.722656 86.414062 11.742188 C 86.445312 11.761719 86.550781 11.769531 86.652344 11.765625 C 86.753906 11.757812 86.859375 11.769531 86.886719 11.785156 C 86.914062 11.804688 87.226562 11.8125 87.582031 11.808594 C 87.933594 11.808594 88.25 11.816406 88.273438 11.832031 C 88.296875 11.847656 88.460938 11.859375 88.632812 11.855469 C 88.800781 11.851562 88.972656 11.855469 89.007812 11.867188 C 89.121094 11.902344 90.136719 11.992188 90.164062 11.964844 C 90.175781 11.953125 90.207031 11.960938 90.238281 11.984375 C 90.261719 12.003906 90.402344 12.03125 90.542969 12.042969 C 90.679688 12.050781 90.828125 12.074219 90.867188 12.089844 C 90.910156 12.101562 90.964844 12.113281 90.996094 12.105469 C 91.03125 12.101562 91.085938 12.105469 91.121094 12.125 C 91.234375 12.167969 92.035156 12.285156 92.058594 12.265625 C 92.074219 12.253906 92.109375 12.261719 92.136719 12.285156 C 92.171875 12.3125 92.222656 12.324219 92.261719 12.3125 C 92.296875 12.296875 92.335938 12.304688 92.351562 12.328125 C 92.367188 12.351562 92.410156 12.367188 92.449219 12.363281 C 92.492188 12.359375 92.554688 12.367188 92.597656 12.390625 C 92.640625 12.40625 92.691406 12.410156 92.703125 12.394531 C 92.714844 12.382812 92.75 12.390625 92.78125 12.410156 C 92.804688 12.433594 92.910156 12.457031 93.003906 12.464844 C 93.097656 12.476562 93.199219 12.496094 93.222656 12.515625 C 93.25 12.53125 93.339844 12.546875 93.417969 12.554688 C 93.5 12.566406 93.585938 12.582031 93.617188 12.597656 C 93.640625 12.617188 93.679688 12.621094 93.703125 12.605469 C 93.722656 12.589844 93.757812 12.605469 93.773438 12.628906 C 93.789062 12.652344 93.828125 12.664062 93.863281 12.652344 C 93.890625 12.636719 93.929688 12.644531 93.945312 12.667969 C 93.960938 12.699219 94.238281 12.765625 94.375 12.773438 C 94.402344 12.773438 94.445312 12.792969 94.472656 12.8125 C 94.503906 12.832031 94.542969 12.835938 94.554688 12.820312 C 94.570312 12.808594 94.609375 12.816406 94.640625 12.847656 C 94.671875 12.875 94.710938 12.882812 94.726562 12.867188 C 94.742188 12.851562 94.777344 12.855469 94.800781 12.878906 C 94.84375 12.910156 95.320312 13.054688 95.472656 13.074219 C 95.507812 13.078125 95.570312 13.097656 95.601562 13.109375 C 95.691406 13.148438 97.164062 13.652344 97.21875 13.667969 C 97.246094 13.671875 97.328125 13.710938 97.40625 13.753906 C 97.488281 13.796875 97.589844 13.835938 97.632812 13.84375 C 97.722656 13.863281 98.171875 14.132812 98.363281 14.28125 C 98.5 14.398438 98.546875 14.546875 98.636719 15.234375 C 99.136719 18.925781 99.386719 37.390625 99.179688 55.164062 C 99.03125 67.851562 98.703125 76.058594 98.292969 77.496094 C 98.210938 77.789062 97.898438 78.097656 97.132812 78.640625 C 96.398438 79.160156 95.578125 79.632812 94.417969 80.207031 C 92.578125 81.117188 90.933594 81.664062 90.265625 81.597656 C 89.546875 81.519531 89.273438 81.519531 89.027344 81.589844 C 88.65625 81.699219 88.238281 81.921875 87.882812 82.203125 C 87.238281 82.714844 85.859375 83.550781 83.652344 84.777344 C 79.792969 86.910156 75.773438 88.996094 69.742188 91.988281 C 65.960938 93.867188 65.277344 94.226562 63.75 95.128906 C 62.566406 95.835938 61.957031 96.296875 61.820312 96.605469 C 61.503906 97.308594 59.484375 98.449219 56.488281 99.609375 C 55.46875 100.007812 53.925781 100.496094 52.996094 100.722656 C 52.546875 100.828125 52.148438 100.929688 52.113281 100.953125 C 52.074219 100.972656 51.445312 100.992188 50.710938 100.996094 L 49.375 101 Z M 54.285156 95.480469 L 56.789062 94.421875 L 56.800781 90.351562 C 56.808594 86.992188 56.800781 86.277344 56.753906 86.277344 C 56.691406 86.277344 54.628906 86.722656 53.921875 86.890625 C 52.21875 87.292969 51.847656 87.664062 51.675781 89.144531 C 51.636719 89.46875 51.625 90.539062 51.628906 93.0625 C 51.632812 94.96875 51.636719 96.539062 51.636719 96.558594 C 51.636719 96.597656 51.417969 96.6875 54.285156 95.480469 Z M 48.703125 95.808594 C 48.773438 95.597656 48.871094 94.925781 48.929688 94.238281 C 49.007812 93.363281 49.007812 88.316406 48.929688 87.703125 C 48.789062 86.582031 48.539062 86.21875 47.671875 85.847656 C 46.25 85.238281 45.085938 85.015625 44.539062 85.25 C 43.816406 85.558594 43.496094 86.496094 43.367188 88.71875 C 43.289062 89.96875 43.132812 93.386719 43.152344 93.398438 C 43.160156 93.40625 43.878906 93.785156 44.746094 94.234375 C 46.390625 95.089844 47.796875 95.765625 48.277344 95.933594 C 48.585938 96.039062 48.632812 96.027344 48.703125 95.808594 Z M 59.503906 92.9375 C 59.820312 92.460938 59.867188 89.867188 59.613281 87.199219 C 59.566406 86.707031 59.476562 85.78125 59.417969 85.144531 C 59.25 83.378906 59.09375 82.066406 59.050781 82.023438 C 58.933594 81.910156 57.371094 82.519531 55.066406 83.582031 C 53.226562 84.425781 52.199219 85.101562 52.199219 85.460938 C 52.199219 85.636719 52.320312 85.691406 52.683594 85.6875 C 53.257812 85.675781 53.816406 85.542969 55.171875 85.101562 C 56.363281 84.710938 57.203125 84.480469 57.421875 84.480469 C 57.582031 84.480469 57.59375 84.492188 57.675781 84.671875 C 57.957031 85.296875 58.261719 86.992188 58.511719 89.296875 C 58.820312 92.109375 59.175781 93.433594 59.503906 92.9375 Z M 41.453125 92.019531 C 41.707031 91.640625 41.898438 90.390625 41.898438 89.039062 C 41.902344 87.261719 42.199219 85.335938 42.609375 84.507812 C 42.804688 84.089844 43.261719 83.53125 43.515625 83.386719 C 43.976562 83.117188 44.53125 83.226562 46.335938 83.933594 C 47.816406 84.515625 48.902344 84.742188 48.996094 84.496094 C 49.007812 84.464844 48.992188 84.402344 48.960938 84.363281 C 48.417969 83.710938 42.578125 81.328125 41.445312 81.300781 L 41.140625 81.292969 L 41.046875 81.535156 C 40.699219 82.390625 40.527344 85.519531 40.648438 88.609375 C 40.742188 90.972656 40.96875 92.234375 41.289062 92.175781 C 41.324219 92.167969 41.398438 92.097656 41.453125 92.019531 Z M 63.253906 91.242188 C 63.964844 90.953125 65.988281 89.988281 67.390625 89.269531 C 67.941406 88.992188 69.632812 88.132812 71.164062 87.351562 L 73.945312 85.941406 L 73.953125 85.5 C 74.035156 82.148438 74.296875 56.210938 74.25 56.160156 C 74.191406 56.101562 71.339844 57.042969 69.460938 57.746094 C 63.921875 59.8125 54.589844 63.652344 53.628906 64.253906 C 53.425781 64.378906 53.390625 64.464844 53.296875 65.09375 C 53.023438 66.933594 52.96875 70.824219 53.140625 77.332031 C 53.195312 79.367188 53.242188 81.035156 53.246094 81.042969 C 53.25 81.046875 54.160156 80.773438 55.257812 80.433594 C 58.21875 79.519531 58.421875 79.46875 58.992188 79.441406 C 59.46875 79.421875 59.472656 79.421875 59.738281 79.558594 C 60.007812 79.703125 60.246094 79.929688 60.699219 80.484375 C 61.167969 81.058594 61.425781 81.5625 61.613281 82.269531 C 61.851562 83.191406 61.921875 84.058594 61.984375 86.917969 C 62.003906 88.035156 62.042969 89.183594 62.070312 89.464844 C 62.160156 90.519531 62.304688 91.347656 62.421875 91.484375 C 62.476562 91.558594 62.503906 91.550781 63.253906 91.242188 Z M 37.210938 90.28125 C 37.582031 89.933594 37.835938 88.898438 38.140625 86.449219 C 38.214844 85.898438 38.300781 85.136719 38.339844 84.757812 C 38.550781 82.691406 39.121094 79.046875 39.316406 78.542969 C 39.378906 78.378906 39.417969 78.359375 39.808594 78.359375 C 40.808594 78.359375 43.558594 79.105469 45.992188 80.039062 C 46.886719 80.378906 47.128906 80.4375 47.261719 80.328125 C 47.601562 80.046875 47.683594 78.855469 47.625 74.894531 C 47.59375 72.707031 47.421875 65.511719 47.402344 65.496094 C 47.308594 65.425781 44.21875 63.976562 43.714844 63.761719 C 42.742188 63.355469 41.125 62.769531 39.707031 62.304688 C 37.300781 61.519531 34.800781 60.480469 31.636719 58.953125 C 29.417969 57.878906 28.65625 57.574219 27.921875 57.472656 C 27.429688 57.402344 27.15625 57.480469 26.910156 57.746094 C 26.515625 58.167969 26.425781 58.675781 26.378906 60.769531 C 26.359375 61.664062 26.308594 62.636719 26.273438 62.972656 C 26.03125 65.121094 25.414062 66.472656 24.46875 66.933594 C 24.246094 67.039062 24.117188 67.074219 23.765625 67.101562 C 23.265625 67.144531 23.15625 67.183594 23.003906 67.359375 C 22.785156 67.617188 22.671875 68.0625 22.582031 69.03125 C 22.511719 69.800781 22.476562 74.140625 22.5 79.167969 L 22.523438 83.769531 L 25.539062 85.195312 C 27.199219 85.976562 29.070312 86.859375 29.699219 87.164062 C 31.878906 88.203125 35.300781 89.773438 36.359375 90.21875 C 36.828125 90.421875 37.039062 90.433594 37.210938 90.28125 Z M 78.816406 83.441406 C 83.285156 80.953125 84.890625 79.957031 87.242188 78.210938 L 88.535156 77.246094 L 88.53125 72.546875 C 88.53125 67.820312 88.550781 66.910156 88.691406 65.949219 C 88.835938 64.921875 89.078125 64.394531 89.671875 63.777344 C 90.691406 62.71875 92.097656 61.925781 94.136719 61.257812 C 94.765625 61.058594 95.289062 60.882812 95.296875 60.875 C 95.328125 60.847656 95.507812 54.71875 95.542969 52.683594 C 95.589844 49.617188 95.453125 48.289062 95.050781 47.976562 C 94.84375 47.808594 94.578125 47.902344 94.136719 48.292969 C 93.707031 48.675781 92.785156 49.105469 91.59375 49.472656 C 90.210938 49.90625 88.542969 50.484375 86.035156 51.398438 C 83.589844 52.292969 77.265625 54.65625 77.226562 54.695312 C 77.179688 54.734375 77.003906 68.152344 76.945312 76.09375 C 76.917969 79.304688 76.886719 82.515625 76.875 83.230469 L 76.847656 84.527344 L 76.949219 84.476562 C 77.003906 84.445312 77.84375 83.984375 78.816406 83.441406 Z M 19.460938 81.6875 C 19.898438 80.648438 20.25 70.171875 19.941406 67.574219 C 19.808594 66.523438 19.660156 66.140625 19.160156 65.601562 C 18.664062 65.066406 18.511719 64.679688 18.464844 63.8125 C 18.425781 63.089844 18.507812 62.148438 18.878906 59.1875 C 19.164062 56.910156 19.242188 55.820312 19.179688 55.015625 C 19.097656 53.902344 18.859375 53.402344 18.160156 52.878906 C 17.757812 52.578125 17.257812 52.339844 14.589844 51.167969 C 13.335938 50.617188 11.578125 49.832031 10.691406 49.429688 C 9.382812 48.835938 4.621094 46.703125 4.40625 46.617188 C 4.363281 46.601562 4.351562 48.070312 4.363281 53.929688 L 4.375 61.261719 L 5.628906 61.820312 C 6.933594 62.398438 7.371094 62.617188 8.277344 63.160156 C 9.648438 63.980469 10.792969 64.8125 11.382812 65.417969 C 12.296875 66.359375 12.476562 66.789062 12.679688 68.433594 C 12.710938 68.695312 12.738281 70.40625 12.753906 73.371094 L 12.78125 77.902344 L 13.816406 78.542969 C 14.382812 78.894531 15.476562 79.582031 16.25 80.0625 C 17.984375 81.148438 19.171875 81.824219 19.367188 81.828125 C 19.382812 81.828125 19.425781 81.761719 19.460938 81.6875 Z M 10.273438 75.871094 C 10.527344 75.351562 10.734375 73.253906 10.734375 71.199219 C 10.734375 69.347656 10.582031 68.167969 10.257812 67.53125 C 9.972656 66.972656 8.84375 66.144531 7.367188 65.410156 C 6.234375 64.84375 5.117188 64.515625 4.898438 64.679688 C 4.628906 64.875 5.242188 65.46875 6.679688 66.421875 C 7.660156 67.066406 8.089844 67.394531 8.429688 67.753906 C 9.058594 68.421875 9.222656 69.019531 9.371094 71.191406 C 9.410156 71.734375 9.460938 72.46875 9.484375 72.820312 C 9.617188 74.726562 9.882812 76.082031 10.117188 76.042969 C 10.160156 76.03125 10.226562 75.957031 10.273438 75.871094 Z M 7.386719 73.523438 C 7.449219 72.453125 7.507812 71.355469 7.523438 71.085938 C 7.539062 70.816406 7.53125 70.351562 7.503906 70.058594 C 7.390625 68.730469 7.128906 68.335938 5.601562 67.203125 C 4.875 66.664062 4.714844 66.5625 4.691406 66.625 C 4.648438 66.746094 4.433594 70.703125 4.441406 71.433594 C 4.441406 72.808594 4.695312 73.476562 5.460938 74.152344 C 5.988281 74.621094 7.261719 75.582031 7.273438 75.527344 C 7.277344 75.496094 7.332031 74.59375 7.386719 73.523438 Z M 91.921875 75.292969 C 92.035156 75.125 92.128906 74.761719 92.214844 74.144531 C 92.335938 73.300781 92.375 72.472656 92.414062 69.972656 C 92.433594 68.621094 92.472656 67.359375 92.5 67.167969 C 92.671875 65.9375 92.910156 65.613281 94.058594 65.03125 C 94.824219 64.644531 95.28125 64.351562 95.46875 64.121094 C 95.75 63.789062 95.554688 63.621094 94.96875 63.6875 C 94.527344 63.734375 94.191406 63.84375 92.726562 64.417969 L 91.421875 64.925781 L 91.421875 65.105469 C 91.421875 65.203125 91.375 66.558594 91.316406 68.109375 C 91.164062 72.085938 91.175781 73.679688 91.359375 74.671875 C 91.496094 75.398438 91.699219 75.625 91.921875 75.292969 Z M 94.292969 74.441406 C 94.699219 74.246094 95.042969 73.792969 95.253906 73.15625 C 95.574219 72.203125 95.710938 70.242188 95.609375 68.171875 C 95.554688 67.121094 95.476562 66.570312 95.335938 66.242188 C 95.238281 66.007812 95.160156 65.949219 94.957031 65.949219 C 94.511719 65.949219 94.152344 67.03125 93.945312 68.964844 C 93.839844 69.933594 93.738281 72.355469 93.761719 73.226562 C 93.785156 74.015625 93.828125 74.292969 93.957031 74.4375 C 94.039062 74.527344 94.109375 74.527344 94.292969 74.441406 Z M 23.246094 63.976562 C 23.558594 63.734375 23.777344 62 23.597656 61.097656 C 23.535156 60.753906 23.421875 60.457031 23.261719 60.222656 C 23.070312 59.9375 22.199219 59.488281 21.835938 59.488281 C 21.589844 59.488281 21.414062 59.652344 21.308594 59.972656 C 21.207031 60.304688 21.175781 61.578125 21.261719 62.039062 C 21.433594 62.953125 21.863281 63.578125 22.542969 63.929688 C 22.863281 64.09375 23.082031 64.105469 23.246094 63.976562 Z M 47.648438 61.082031 C 47.664062 60.96875 47.683594 59.140625 47.699219 57.019531 L 47.722656 53.15625 L 45.097656 51.855469 C 40.148438 49.394531 38.378906 48.453125 36.898438 47.484375 C 36.167969 47.003906 36.027344 46.855469 35.886719 46.390625 C 35.640625 45.574219 35.386719 43.867188 35.195312 41.789062 C 35.089844 40.617188 35.015625 39.457031 34.800781 35.351562 C 34.691406 33.21875 34.585938 31.464844 34.574219 31.445312 C 34.511719 31.378906 29.359375 29.273438 27.929688 28.730469 C 27.257812 28.476562 26.273438 28.144531 26.046875 28.097656 C 25.925781 28.070312 25.910156 28.078125 25.886719 28.191406 C 25.765625 28.78125 25.460938 31.785156 25.367188 33.253906 C 25.351562 33.476562 25.300781 34.21875 25.25 34.902344 C 25.183594 35.769531 25.15625 36.542969 25.15625 37.488281 C 25.152344 38.957031 25.171875 39.15625 25.410156 39.652344 C 25.515625 39.875 25.601562 39.96875 26.34375 40.652344 C 26.90625 41.175781 27.097656 41.757812 27.246094 43.351562 C 27.28125 43.695312 27.304688 45.601562 27.324219 48.585938 L 27.347656 53.289062 L 34.160156 55.996094 C 44.882812 60.257812 47.472656 61.28125 47.546875 61.28125 C 47.601562 61.285156 47.628906 61.234375 47.648438 61.082031 Z M 54.441406 59.664062 C 55.035156 59.449219 57.867188 58.53125 61.488281 57.378906 C 62.414062 57.082031 65.660156 56.042969 68.707031 55.066406 L 74.246094 53.289062 L 74.257812 40.960938 C 74.261719 34.183594 74.25 28.632812 74.234375 28.632812 C 74.210938 28.632812 72.925781 29.140625 71.375 29.761719 C 66.863281 31.566406 65.558594 32.109375 65.347656 32.261719 C 65.03125 32.496094 64.835938 33.289062 64.679688 34.984375 C 64.535156 36.585938 64.472656 38.117188 64.351562 43.632812 C 64.300781 45.824219 64.253906 47.6875 64.242188 47.785156 L 64.21875 47.960938 L 62.292969 48.695312 C 61.234375 49.097656 59.738281 49.65625 58.964844 49.933594 C 57.125 50.605469 56.722656 50.761719 56.054688 51.042969 C 54.34375 51.765625 53.636719 52.261719 53.277344 53 C 52.949219 53.667969 52.890625 54.300781 52.941406 56.941406 C 52.96875 58.667969 53.015625 59.160156 53.199219 59.582031 C 53.375 59.988281 53.5 59.996094 54.441406 59.664062 Z M 78.707031 51.546875 C 79.640625 51.15625 80.632812 50.75 80.90625 50.640625 C 81.941406 50.238281 83.027344 49.839844 83.921875 49.527344 C 86.183594 48.75 88.820312 47.726562 93.117188 45.964844 L 95.648438 44.921875 L 95.648438 31.757812 L 94.734375 32.199219 C 94.226562 32.445312 93.121094 32.984375 92.273438 33.398438 C 90.261719 34.382812 89.738281 34.601562 89.007812 34.773438 C 88.332031 34.925781 87.796875 34.792969 87.488281 34.386719 C 87.175781 33.984375 86.933594 33.144531 86.792969 31.972656 C 86.753906 31.679688 86.675781 30.761719 86.617188 29.9375 C 86.496094 28.269531 86.449219 27.714844 86.351562 26.769531 C 86.222656 25.472656 86 24.105469 85.871094 23.84375 L 85.804688 23.699219 L 85.523438 23.722656 C 85.164062 23.746094 84.359375 24.003906 83.320312 24.429688 C 82.328125 24.828125 81.65625 25.140625 78.976562 26.425781 L 76.851562 27.449219 L 76.851562 39.878906 C 76.851562 51.695312 76.859375 52.304688 76.929688 52.285156 C 76.96875 52.277344 77.773438 51.941406 78.707031 51.546875 Z M 47.660156 50.257812 C 47.679688 50.1875 47.695312 49.835938 47.695312 49.472656 C 47.695312 48.855469 47.683594 48.796875 47.585938 48.59375 C 47.34375 48.109375 46.734375 47.722656 45.742188 47.441406 C 45.015625 47.234375 44.421875 46.996094 43.578125 46.574219 C 42.660156 46.121094 42.097656 45.785156 40.613281 44.789062 L 39.402344 43.976562 L 39.378906 43.722656 C 39.367188 43.574219 39.316406 42.324219 39.265625 40.933594 C 39.121094 36.753906 39.023438 35.488281 38.761719 34.328125 C 38.582031 33.503906 38.382812 33.167969 38.082031 33.167969 C 37.453125 33.167969 37.320312 34.6875 37.503906 39.800781 C 37.625 43.144531 37.949219 44.367188 39.003906 45.46875 C 39.738281 46.226562 40.46875 46.683594 43.816406 48.457031 C 46.28125 49.765625 47.460938 50.371094 47.550781 50.371094 C 47.597656 50.371094 47.640625 50.324219 47.660156 50.257812 Z M 18.582031 49.601562 C 19.164062 49.488281 19.476562 49.035156 19.632812 48.082031 C 19.726562 47.496094 19.785156 46.460938 19.828125 44.273438 C 19.878906 41.75 19.941406 41.089844 20.179688 40.453125 C 20.296875 40.144531 20.589844 39.847656 20.882812 39.742188 C 21.589844 39.488281 21.746094 39.378906 21.953125 38.964844 C 22.382812 38.105469 22.632812 36.027344 22.953125 30.621094 C 23.035156 29.214844 23.085938 26.605469 23.03125 26.40625 C 22.996094 26.269531 22.949219 26.234375 22.515625 26.011719 C 20.402344 24.910156 14.667969 22.429688 14.238281 22.425781 C 14.171875 22.425781 14.132812 22.625 13.949219 23.835938 C 13.796875 24.839844 13.636719 26.082031 13.425781 27.902344 C 12.996094 31.632812 12.566406 33.347656 11.875 34.0625 C 11.507812 34.441406 11.308594 34.515625 10.667969 34.511719 C 10.203125 34.507812 10.101562 34.492188 9.675781 34.355469 C 9.417969 34.273438 8.765625 34.03125 8.234375 33.816406 C 6.621094 33.175781 5.988281 32.996094 5.503906 33.050781 C 4.777344 33.140625 4.503906 33.757812 4.398438 35.605469 C 4.375 36.019531 4.351562 38.023438 4.351562 40.0625 L 4.351562 43.769531 L 4.726562 43.945312 C 4.941406 44.039062 6.472656 44.75 8.148438 45.519531 C 15.03125 48.691406 16.824219 49.433594 17.953125 49.597656 C 18.320312 49.648438 18.324219 49.648438 18.582031 49.601562 Z M 54.378906 49.097656 C 54.734375 48.980469 55.253906 48.773438 55.539062 48.648438 C 56.78125 48.082031 58.992188 47.269531 60.851562 46.6875 L 61.984375 46.332031 L 61.984375 43.015625 C 61.976562 37.609375 61.886719 35.445312 61.617188 34.253906 C 61.539062 33.921875 61.414062 33.679688 61.316406 33.679688 C 61.140625 33.679688 60.957031 34.28125 60.84375 35.222656 C 60.738281 36.097656 60.691406 37.148438 60.691406 38.589844 C 60.691406 40.210938 60.628906 41.699219 60.539062 42.398438 C 60.332031 43.960938 59.835938 44.828125 58.679688 45.628906 C 58.140625 46.003906 57.65625 46.273438 56.332031 46.925781 C 54.441406 47.863281 53.765625 48.265625 53.265625 48.75 C 52.617188 49.382812 53.082031 49.527344 54.378906 49.097656 Z M 23.882812 46.644531 C 24.527344 46.195312 24.933594 45.082031 24.988281 43.632812 C 25.007812 43.097656 25 42.941406 24.933594 42.730469 C 24.792969 42.246094 24.445312 42.042969 23.75 42.050781 C 22.707031 42.058594 22.464844 42.515625 22.511719 44.367188 C 22.53125 45.066406 22.550781 45.332031 22.621094 45.601562 C 22.78125 46.210938 23.007812 46.589844 23.296875 46.714844 C 23.457031 46.789062 23.726562 46.753906 23.882812 46.644531 Z M 47.375 46.40625 C 47.457031 46.203125 47.578125 45.425781 47.636719 44.722656 C 47.675781 44.238281 47.695312 43.097656 47.695312 40.46875 L 47.695312 36.878906 L 47.347656 36.730469 C 47.160156 36.652344 46.46875 36.359375 45.820312 36.089844 C 42.722656 34.796875 42.101562 34.578125 41.539062 34.578125 C 41.210938 34.578125 41.027344 34.683594 40.875 34.945312 C 40.710938 35.234375 40.667969 35.59375 40.675781 36.613281 C 40.679688 37.53125 40.882812 42.851562 40.929688 43.386719 L 40.957031 43.652344 L 41.972656 44.148438 C 44.910156 45.574219 47 46.511719 47.253906 46.519531 C 47.296875 46.519531 47.347656 46.46875 47.375 46.40625 Z M 54.164062 46.386719 C 54.847656 46.167969 55.683594 45.792969 57.585938 44.851562 L 59.398438 43.953125 L 59.398438 41.585938 C 59.398438 37.742188 59.277344 35.933594 58.96875 35.242188 C 58.839844 34.957031 58.800781 34.9375 58.390625 35.023438 C 57.78125 35.15625 56.203125 35.707031 54.546875 36.363281 L 52.953125 37 L 52.953125 40.554688 C 52.957031 43.65625 52.964844 44.183594 53.03125 44.765625 C 53.121094 45.546875 53.238281 46.105469 53.363281 46.34375 C 53.441406 46.5 53.46875 46.519531 53.597656 46.519531 C 53.679688 46.519531 53.933594 46.460938 54.164062 46.386719 Z M 51.402344 34.195312 C 53.191406 34.089844 54.429688 33.796875 55.65625 33.179688 C 56.628906 32.691406 57.054688 32.3125 56.992188 31.976562 C 56.941406 31.703125 56.308594 31.289062 55.34375 30.886719 C 53.585938 30.15625 52.351562 29.746094 51.292969 29.554688 C 49.097656 29.15625 46.976562 29.414062 44.675781 30.351562 C 43.722656 30.742188 43.207031 31.015625 42.902344 31.296875 C 42.746094 31.4375 42.714844 31.488281 42.714844 31.632812 C 42.714844 31.964844 43.128906 32.277344 44.351562 32.863281 C 44.746094 33.046875 45.253906 33.269531 45.488281 33.355469 C 46.726562 33.8125 48.15625 34.101562 49.632812 34.191406 C 50.5 34.242188 50.589844 34.242188 51.402344 34.195312 Z M 90.984375 31.410156 C 93.773438 29.816406 93.976562 29.695312 94.589844 29.292969 C 95.195312 28.894531 95.425781 28.703125 95.359375 28.660156 C 95.296875 28.621094 94.65625 28.746094 94.257812 28.871094 C 94.066406 28.929688 93.640625 29.074219 93.328125 29.191406 C 92.476562 29.503906 91.992188 29.621094 91.507812 29.628906 C 90.976562 29.640625 90.765625 29.5625 90.488281 29.253906 C 90.042969 28.773438 89.828125 27.742188 89.828125 26.085938 C 89.824219 24.660156 89.734375 23.394531 89.585938 22.832031 C 89.429688 22.222656 89.171875 22.339844 89.03125 23.082031 C 88.804688 24.25 88.835938 26.046875 89.136719 29.671875 C 89.253906 31.101562 89.351562 32.277344 89.351562 32.289062 C 89.351562 32.304688 89.367188 32.3125 89.378906 32.3125 C 89.390625 32.3125 90.113281 31.90625 90.984375 31.410156 Z M 10.214844 31.507812 C 10.441406 31.285156 10.523438 30.972656 10.726562 29.507812 C 11.121094 26.769531 11.359375 23.902344 11.328125 22.355469 C 11.304688 21.386719 11.257812 21.101562 11.09375 20.921875 C 10.917969 20.726562 10.664062 20.875 10.515625 21.257812 C 10.296875 21.835938 10.21875 22.660156 10.171875 24.972656 C 10.121094 27.394531 10.023438 28.164062 9.675781 28.84375 C 9.238281 29.710938 8.515625 29.898438 6.679688 29.632812 C 5.765625 29.5 4.925781 29.453125 4.792969 29.523438 C 4.742188 29.550781 4.699219 29.601562 4.699219 29.636719 C 4.699219 29.902344 6.28125 30.65625 8.125 31.257812 C 9.085938 31.570312 9.449219 31.660156 9.78125 31.664062 C 10.042969 31.667969 10.058594 31.660156 10.214844 31.507812 Z M 60.585938 31.546875 C 60.765625 31.464844 60.949219 31.277344 60.949219 31.171875 C 60.949219 31.140625 60.878906 31.035156 60.792969 30.941406 C 59.917969 29.984375 55.035156 27.441406 52.304688 26.53125 L 51.746094 26.339844 L 51.035156 26.34375 C 50.28125 26.351562 49.84375 26.40625 48.664062 26.667969 C 46.640625 27.105469 44.15625 27.960938 42.332031 28.828125 C 41.234375 29.351562 40.535156 29.808594 39.949219 30.386719 C 39.667969 30.664062 39.578125 30.832031 39.628906 30.964844 C 39.691406 31.121094 40.363281 30.996094 41.273438 30.65625 C 42.011719 30.371094 42.332031 30.234375 43.707031 29.574219 C 45.300781 28.804688 45.941406 28.558594 46.941406 28.320312 C 47.921875 28.078125 48.140625 28.054688 49.308594 28.054688 C 50.457031 28.054688 50.636719 28.070312 51.550781 28.269531 C 52.800781 28.546875 54.003906 29.019531 56.183594 30.097656 C 58.066406 31.027344 59.003906 31.425781 59.675781 31.578125 C 59.976562 31.648438 60.390625 31.632812 60.585938 31.546875 Z M 65.070312 29.539062 C 65.917969 29.253906 66.78125 28.894531 68.597656 28.066406 C 69.546875 27.628906 70.550781 27.171875 70.832031 27.042969 C 71.222656 26.867188 71.324219 26.808594 71.261719 26.78125 C 71.21875 26.761719 70.496094 26.546875 69.65625 26.304688 C 67.675781 25.730469 67.296875 25.597656 64.933594 24.671875 C 63.109375 23.957031 59.945312 22.625 56.945312 21.3125 C 55.597656 20.726562 52.828125 19.441406 51.421875 18.757812 C 50.023438 18.078125 49.664062 17.941406 49.175781 17.902344 C 48.335938 17.835938 47.425781 18.085938 44.484375 19.195312 C 43.914062 19.410156 37.25 22.0625 35.625 22.714844 C 31.476562 24.398438 29.621094 25.246094 29.109375 25.691406 C 28.847656 25.917969 28.921875 26.066406 29.503906 26.445312 C 29.875 26.683594 31.191406 27.347656 31.832031 27.617188 C 32.824219 28.03125 35.960938 29.285156 36.007812 29.285156 C 36.035156 29.285156 36.816406 28.871094 37.738281 28.367188 C 39.640625 27.320312 40.15625 27.058594 41.300781 26.550781 C 43.28125 25.671875 44.628906 25.1875 47.878906 24.179688 L 50.386719 23.398438 L 52.75 24.191406 C 54.046875 24.628906 55.425781 25.113281 55.820312 25.261719 C 57.71875 26.003906 59.761719 27.035156 60.949219 27.859375 C 62.125 28.679688 62.808594 29.101562 63.578125 29.5 C 64.046875 29.738281 64.085938 29.753906 64.316406 29.730469 C 64.445312 29.71875 64.785156 29.632812 65.070312 29.539062 Z M 7.71875 28.128906 C 7.824219 28.082031 7.972656 27.976562 8.046875 27.886719 C 8.503906 27.371094 8.628906 26.625 8.773438 23.667969 C 8.914062 20.675781 8.960938 19.664062 8.953125 19.660156 C 8.949219 19.65625 8.402344 19.355469 7.738281 18.992188 C 7.074219 18.625 6.046875 18.039062 5.453125 17.683594 L 4.375 17.042969 L 4.363281 20.664062 C 4.339844 26.359375 4.414062 27.25 4.929688 27.722656 C 5.199219 27.96875 5.421875 28.027344 6.746094 28.21875 C 7.015625 28.257812 7.535156 28.210938 7.71875 28.128906 Z M 93.347656 27.710938 C 94.042969 27.570312 94.597656 27.390625 94.871094 27.21875 C 95.25 26.976562 95.464844 26.523438 95.558594 25.761719 C 95.703125 24.613281 95.632812 21.167969 95.449219 20.3125 C 95.421875 20.195312 95.414062 20.191406 95.253906 20.21875 C 94.914062 20.273438 92.734375 21.015625 92.335938 21.214844 C 91.679688 21.539062 91.335938 21.910156 91.335938 22.285156 C 91.335938 22.375 91.375 22.582031 91.421875 22.746094 C 91.613281 23.398438 91.761719 24.933594 91.765625 26.191406 C 91.773438 27.191406 91.882812 27.585938 92.210938 27.738281 C 92.453125 27.84375 92.710938 27.839844 93.347656 27.710938 Z M 74.578125 25.1875 C 76.097656 24.882812 77.691406 24.296875 81.035156 22.796875 C 82.136719 22.304688 83.324219 21.773438 83.675781 21.621094 L 84.308594 21.339844 L 82.859375 20.605469 C 82.054688 20.203125 81.265625 19.792969 81.097656 19.691406 C 79.933594 18.96875 79.132812 18.339844 78.703125 17.804688 C 78.417969 17.453125 78.320312 17.238281 78.320312 16.96875 C 78.320312 16.566406 78.621094 16.195312 79.722656 15.238281 C 80.714844 14.375 81.335938 13.734375 81.335938 13.566406 C 81.335938 13.523438 81.300781 13.480469 81.261719 13.46875 C 81.21875 13.457031 80.90625 13.355469 80.558594 13.246094 C 79.78125 12.996094 76.179688 11.894531 75.195312 11.601562 C 74.183594 11.308594 68.753906 9.796875 68.667969 9.789062 C 68.539062 9.777344 59.898438 12.992188 57.523438 13.929688 C 54.785156 15.015625 53.546875 15.589844 53.125 15.984375 C 52.878906 16.210938 52.871094 16.335938 53.085938 16.511719 C 53.832031 17.121094 57.953125 19.105469 62.5 21.042969 C 64.628906 21.949219 65.796875 22.417969 68.320312 23.367188 C 70.5 24.1875 71.742188 24.714844 72.199219 25.015625 C 72.632812 25.296875 72.800781 25.335938 73.511719 25.3125 C 73.832031 25.300781 74.242188 25.253906 74.578125 25.1875 Z M 26.359375 23.824219 C 27.023438 23.578125 28.207031 23.113281 28.988281 22.796875 C 29.773438 22.480469 30.921875 22.015625 31.550781 21.761719 C 34.25 20.679688 37.292969 19.425781 38.726562 18.808594 C 43.113281 16.921875 44.273438 16.417969 44.71875 16.191406 L 44.972656 16.058594 L 44.828125 15.964844 C 44.617188 15.835938 42.789062 14.945312 41.660156 14.421875 C 39.546875 13.445312 37.617188 12.597656 31.015625 9.75 L 29.726562 9.191406 L 26.773438 10.097656 C 25.148438 10.585938 22.871094 11.28125 21.714844 11.628906 C 20.554688 11.972656 19.613281 12.269531 19.613281 12.28125 C 19.613281 12.296875 19.878906 12.4375 20.207031 12.597656 C 21.121094 13.046875 22.140625 13.597656 22.429688 13.792969 C 22.875 14.089844 23.414062 14.664062 23.597656 15.039062 C 23.90625 15.652344 23.808594 16.035156 23.195312 16.660156 C 22.691406 17.179688 21.941406 17.648438 21.160156 17.933594 C 20.667969 18.113281 20.304688 18.191406 19.753906 18.234375 C 19.113281 18.28125 18.421875 18.441406 17.5 18.746094 C 16.261719 19.152344 15.734375 19.414062 15.734375 19.609375 C 15.734375 19.933594 16.574219 20.441406 19.332031 21.769531 C 19.851562 22.019531 21.285156 22.726562 22.515625 23.328125 L 24.753906 24.433594 L 24.953125 24.351562 C 25.058594 24.3125 25.695312 24.074219 26.359375 23.824219 Z M 87.585938 20.070312 C 87.585938 19.890625 87.050781 19.46875 86.066406 18.863281 C 84.976562 18.203125 84.371094 17.699219 84.179688 17.3125 C 84.046875 17.042969 84.066406 16.75 84.222656 16.511719 C 84.390625 16.257812 84.597656 16.089844 85.214844 15.710938 C 86.226562 15.082031 86.160156 14.917969 85.042969 15.28125 C 84.265625 15.535156 82.476562 16.277344 82.125 16.484375 C 81.488281 16.867188 81.746094 17.179688 83.601562 18.257812 C 85.242188 19.210938 86.382812 19.800781 86.984375 20.003906 C 87.320312 20.117188 87.585938 20.144531 87.585938 20.070312 Z M 91.574219 18.621094 C 93.382812 18.230469 95.023438 17.683594 95.183594 17.414062 C 95.261719 17.289062 95.179688 17.128906 94.976562 17.007812 C 93.535156 16.167969 90.261719 15.765625 88.242188 16.175781 C 87.910156 16.246094 85.929688 16.941406 85.695312 17.074219 C 85.640625 17.101562 85.707031 17.148438 85.949219 17.261719 C 86.125 17.339844 86.660156 17.585938 87.128906 17.804688 C 88.316406 18.347656 88.941406 18.582031 89.574219 18.722656 C 90.007812 18.820312 90.835938 18.777344 91.574219 18.621094 Z M 13.050781 17.9375 C 14.296875 17.515625 16.902344 16.511719 18.15625 15.964844 C 18.953125 15.613281 19.441406 15.269531 19.441406 15.058594 C 19.441406 14.855469 18.976562 14.519531 18.347656 14.265625 C 17.652344 13.984375 17.414062 14.109375 17.164062 14.875 C 16.992188 15.398438 16.882812 15.597656 16.621094 15.855469 C 16.324219 16.152344 16.078125 16.257812 15.570312 16.328125 C 14.859375 16.417969 14.007812 16.710938 13.007812 17.203125 C 12.066406 17.675781 11.589844 18.007812 11.65625 18.171875 C 11.707031 18.304688 12.179688 18.226562 13.050781 17.9375 Z M 10.429688 16.640625 C 11.195312 16.535156 12.898438 16.035156 13.835938 15.636719 C 14.367188 15.414062 14.847656 15.101562 14.988281 14.898438 C 15.378906 14.316406 14.589844 13.890625 13.25 13.96875 C 12.054688 14.03125 9.917969 14.558594 8.945312 15.023438 C 8.277344 15.339844 7.972656 15.617188 7.972656 15.910156 C 7.972656 16.101562 8.070312 16.234375 8.324219 16.390625 C 8.800781 16.699219 9.449219 16.777344 10.429688 16.640625 Z M 49.570312 14.265625 C 50.367188 14.105469 51.242188 13.832031 52.347656 13.394531 C 52.898438 13.175781 53.582031 12.90625 53.878906 12.796875 C 54.566406 12.535156 57.117188 11.519531 58.492188 10.964844 C 59.074219 10.730469 60.582031 10.136719 61.84375 9.644531 C 63.167969 9.132812 64.117188 8.742188 64.085938 8.726562 C 64.054688 8.710938 63.324219 8.480469 62.457031 8.21875 C 59.734375 7.390625 58.636719 7.164062 57.761719 7.238281 C 57.320312 7.277344 57.070312 7.359375 56.628906 7.625 C 55.574219 8.265625 53.042969 9.203125 51.507812 9.53125 C 50.945312 9.652344 49.703125 9.636719 49.09375 9.507812 C 48.265625 9.328125 47.15625 8.988281 45.601562 8.429688 C 42.28125 7.242188 40.683594 6.847656 39.199219 6.84375 C 38.136719 6.84375 37.613281 6.949219 35.90625 7.515625 C 34.710938 7.910156 34.382812 8.054688 34.363281 8.203125 C 34.335938 8.382812 34.597656 8.523438 36.261719 9.222656 C 38.890625 10.316406 44.671875 12.859375 47.113281 13.984375 C 47.574219 14.199219 48.023438 14.378906 48.101562 14.386719 C 48.414062 14.421875 49.046875 14.367188 49.570312 14.265625 Z M 51.03125 7.191406 C 52.035156 7.011719 53.242188 6.585938 53.765625 6.226562 C 54.03125 6.050781 54.246094 5.804688 54.199219 5.730469 C 54.132812 5.621094 53.523438 5.742188 52.5 6.074219 C 51.273438 6.464844 50.75 6.546875 50.023438 6.460938 C 49.476562 6.398438 48.816406 6.195312 48.011719 5.863281 C 46.410156 5.183594 45.722656 4.957031 45.152344 4.894531 C 44.914062 4.871094 44.859375 4.878906 44.785156 4.941406 C 44.738281 4.984375 44.699219 5.054688 44.699219 5.101562 C 44.699219 5.246094 45.046875 5.519531 45.539062 5.757812 C 46.089844 6.027344 49.292969 7.21875 49.597656 7.277344 C 49.875 7.328125 50.460938 7.292969 51.03125 7.191406 Z M 51.03125 7.191406 "
    />
  </g>
</svg>
