<svg xmlns="http://www.w3.org/2000/svg" id="root" viewBox="0 0 100 101">
  <path
    d="M47.7 97.2c-2.7-.6-6.4-2.4-6.4-3.3 0-.4-.6-.6-1.3-.6-.7 0-1.3-.3-1.3-.6s-1-.7-2.1-.9a53 53 0 0 1-16-8c0-.4-.6-.8-1.6-.8-1.7 0-8-3.6-8-4.6 0-.3-.5-.6-1-.6s-1.5-.2-2.1-.5l-3-1.5-2-1-.2-30.3-.1-30.3h1.6c.9 0 1.6-.3 1.6-.7 0-1 2.2-1.9 7.2-2.6a21 21 0 0 0 5-1.3 42 42 0 0 1 12-3.2c1.2 0 2.3-.2 2.3-.5 0-1 3.8-2 7.1-2 2.3 0 3.2-.3 3.2-1 0-1.2 8-2.1 9.8-1 .6.4 1.7.7 2.4.7s1.3.3 1.3.6c0 .4.7.7 1.5.7 2.3 0 8.2 1.8 8.2 2.5 0 .4 1.1.7 2.5.7a45 45 0 0 1 15 4.2c0 .4 2.5 1 6 1.4 3.3.5 6.5 1 7 1.2 1 .3 1.1 3.5 1.1 30.5 0 33.4.3 31.3-4.5 32-1.4.2-2.6.7-2.6 1.1 0 1.6-10.2 8-12.6 8-.6 0-1.4.4-1.8 1a43 43 0 0 1-12.4 6.1c-.8 0-1.6.5-1.8 1-.2.5-1 1-1.6 1-.7 0-1.4.2-1.5.5-.4.9-5.1 2.7-6.9 2.6-1 0-2.7-.2-4-.5Zm3.4-26c.3-16-.1-35.8-.8-35.8-.3 0-.6 5.8-.8 13.7-.2 19 .1 32 .8 32 .3 0 .7-4.2.8-9.8ZM24.8 55.7c.2-.6.4-2.5.4-4.2 0-3.1-.1-3.2-1.8-3-1.7.2-1.8.4-2 4.2-.2 3.9-.1 4 1.4 4 .9 0 1.8-.4 2-1Zm0 0" />
  <path fill="#ded4a3"
    d="M43.4 98.1c-3-1.3-4.7-2.6-4.7-3.2 0-.5-.5-1.2-1-1.4A127 127 0 0 1 18 84c-.9-.3-2.7-1.2-4-2-1.2-.8-2.8-1.4-3.5-1.3-.6.1-3-.8-5.3-2.3L1 76V45.4c0-16.9.1-31 .3-31.2A35 35 0 0 1 14.6 9c.8 0 4.2-.8 7.5-2 3.3-1 6.4-1.9 7.1-1.9A68 68 0 0 1 47 .5c3.4-.6 4.4-.6 7.4.6 7.5 2.8 12 4.2 15 4.7 1.9.3 4.9 1 6.8 1.6L82 9c1.3.3 2.4 1 2.5 1.2.1.4 1.6.7 3.2.7a28 28 0 0 1 10.7 2.5c1.2 1 1 62-.2 63.5-1.4 1.6-7.1 4.3-8.2 3.8-.6-.2-1.5.1-2.2.7a192 192 0 0 1-19.4 10.5 26.1 26.1 0 0 0-6.5 3.8c-.3 1.4-8.3 4.6-11.2 4.6-1.5 0-4.4-1-7.2-2.2Zm13.4-8.5v-4.2l-2 .5c-3.2.7-3.2.6-3.2 5.5v4.4l2.6-1.1 2.6-1.1Zm-7.8.8c0-4.7 0-4.9-1.7-5.5-3.2-1.2-3.8-.7-4 3.7l-.1 4 2.4 1.3a21 21 0 0 0 3 1.3c.2 0 .4-2.2.4-4.8Zm10.6-3.7c-.2-3-.5-5.4-.6-5.5l-3.9 1.5c-3.8 1.7-4 3-.1 1.6l2.5-.7c.2 0 .7 2 1 4.5.5 6.3 1.6 5 1.1-1.4ZM42 87.9c0-1.8.4-4 1-4.6.8-1.1 1-1.1 3.5-.2 1.4.6 2.6.9 2.6.5 0-.5-6.5-3.2-7.7-3.2-.4 0-.7 2.4-.7 5.5 0 3.2.3 5.5.7 5.5.4 0 .6-1.6.6-3.5Zm26.6 0 5.4-2.8.2-15 .1-14.8-1.4.4a221 221 0 0 0-19.3 7.8 41 41 0 0 0-.5 8.7l.2 8 3.2-1c3-1 3.1-1 4.3.5 1 1.2 1.2 2.6 1.2 6.2 0 2.7.3 4.8.6 4.8s3-1.3 6-2.8Zm-29-10.3c.2-.4 4.4.7 7.1 1.8 1 .5 1.1 0 1-7l-.2-7.7-2.2-1.1a42 42 0 0 0-5.5-2.2c-1.8-.5-5.2-2-7.8-3.2-5-2.5-5.4-2.3-5.4 2 0 3.8-1 6-2.6 6-1.3 0-1.3.4-1.3 8.4v8.3l6.6 3.2 7.6 3.5c.7.2 1-.9 1.6-5.7.4-3.3.8-6.1 1-6.3Zm46.8.4 2-1.6v-6.2c0-5.7.2-6.4 1.6-7.6.7-.7 2.3-1.6 3.3-2l2-.6.2-6.5c.1-6.2-.2-7.3-1.5-6-.4.4-1.7 1-3 1.3-1.2.3-4.8 1.6-8 2.9l-5.8 2.1-.2 15-.1 14.9 3.7-2c2-1.2 4.7-2.8 5.8-3.7Zm-66.2-4.7c.2-6.3 0-7.8-.8-8.5-.8-.7-1-1.6-.5-4.7 1-7.7 1-7.6-2.8-9.2l-7.4-3.4-4-1.8v14.7L7 61.5c1.3.6 3.1 1.9 4.2 2.7 1.6 1.5 1.7 2 1.7 7.3V77l3.1 2c1.7 1 3.2 2 3.5 2 .2 0 .5-3.4.6-7.7Zm-9.8-6.8c-1-1.3-4.4-3-5.3-2.7-.3.1.5 1 1.9 1.8 2.3 1.6 2.5 1.8 2.6 5.2.3 5.4 1 6 1.3 1 .2-2.8 0-4.7-.5-5.3Zm-4 .3-1.5-1.1-.2 3.3c-.1 2.9 0 3.6 1.3 4.6l1.5 1.2.2-3.5c.2-3 0-3.5-1.3-4.5Zm86 3c0-4.6 0-4.9 1.6-5.6 2.4-1 1.9-2-.5-1l-2.1.9-.2 5.2c-.1 3.4 0 5.3.5 5.3.4 0 .7-1.9.7-4.8Zm3.2-1c0-2.9-.2-3.9-.8-3.7-.5.2-.9 1.9-1 4.7-.2 4 0 4.3.8 3.5.7-.5 1-1.9 1-4.6ZM23 59c-1.4-.9-1.8-.6-1.8 1.4 0 1 .4 2 1.2 2.5.9.5 1 .3 1.2-1.4.2-1.1 0-2.2-.6-2.5Zm24.6-2.7v-4.1l-5.4-2.7a30 30 0 0 1-6.2-3.6 31 31 0 0 1-1-8.2l-.5-7.2-4.1-1.8a29 29 0 0 0-4.5-1.6c0 .1-.4 2.7-.6 5.8-.4 5-.3 5.7.8 6.6 1 .7 1.2 1.7 1.2 6.8v6l10 4 10.2 4 .1-4Zm16.7-.8 9.8-3.2V27.7l-4 1.6-4.8 2c-.6.2-.9 2.7-1 8l-.2 7.8-3.9 1.5c-7.6 2.7-7.4 2.6-7.4 7 0 2.7.2 3.6.8 3.5l10.7-3.5Zm20.4-7.3a171 171 0 0 0 7-2.7l3.7-1.5V30.9l-3.3 1.6c-5 2.5-5.4 2.2-5.7-4a26 26 0 0 0-.8-5.7c-.2-.2-2.3.6-4.7 1.7l-4.2 2v25l2.4-1a73 73 0 0 1 5.6-2.2ZM20 43c.1-3.1.3-3.8 1.3-4.1 1-.3 1.3-1.2 1.7-6.8.3-3.5.3-6.5.2-6.6-.5-.4-8.6-4-8.8-3.8l-.8 5.5c-.7 6.5-1.4 7.4-4.7 6-4.2-1.7-4.3-1.6-4.3 4.5V43l7.2 3.4c8.4 3.7 8.1 3.8 8.2-3.4Zm27.8 5.4c0-.8-.6-1.3-1.7-1.7-1-.2-2.9-1-4.2-1.9l-2.4-1.6-.2-5.3c-.1-3.4-.4-5.3-1-5.5-.6-.2-.8.9-.7 4.2.1 7.6.3 7.9 5.4 10.6l4.7 2.4.1-1.2ZM60 46.1l2-.6V39c0-3.8-.2-6.3-.6-6.3-.4 0-.7 2.1-.7 5 0 5.9-.2 6.3-4.8 8.5-3.5 1.7-4 3-.4 1.6A59 59 0 0 1 60 46Zm-35-3.4c0-1.1-.3-1.5-1.2-1.5-1 0-1.3.4-1.3 2.2 0 3.8 2.4 3 2.5-.7Zm22.6-1.8V36l-2-.9c-5.4-2.2-5.1-2.3-5 3l.3 4.7 2.9 1.4 3.4 1.5c.2 0 .4-2.2.4-4.8Zm9 3.5 2.7-1.3v-4.5c0-2.5-.3-4.5-.7-4.5-.3 0-1.8.4-3.2 1l-2.6 1V41c0 3 .3 4.8.6 4.8.4 0 2-.6 3.3-1.3Zm-1.3-12c2.5-1.2 2.2-1.6-2-3.1-3-1.2-6-1-9.3.4-2 1-1.9 1.3 1 2.6 3 1.3 7.7 1.4 10.3.1Zm39.8-4.6c-.1 0-1 .1-2 .5-2.9 1.1-3.5.5-3.5-3.7 0-2.1-.3-3.4-.6-3-.3.3-.5 2.7-.3 5.2l.4 4.7 3-1.8c1.8-1 3-1.8 3-2Zm-84.7 2.6c.2-.3.5-2.7.8-5.4.3-3.6.2-5-.3-5-.4 0-.7 1.4-.7 3.7 0 4.8-.5 5.6-3.5 5-2.8-.4-2.5.2.5 1.3 2.6 1 2.9 1 3.2.4Zm50.4 0c.4-.6-6.7-4.3-9.2-5a24 24 0 0 0-11 3.5c-2.3 1.8-.6 1.7 3.2-.3 4-2 7.1-2 11.6.3 3.9 2 4.9 2.2 5.4 1.5Zm7.2-3 3.2-1.5-2.7-.7c-2.5-.8-12.8-5.1-17.6-7.5-2.1-1.1-2.2-1.1-9 1.6-11 4.4-13 5.3-13 5.8 0 .2 1.6 1.1 3.6 2l3.5 1.3 3-1.6c1.6-1 4.8-2.3 7.2-3l4-1.3 4 1.4c2.3.7 5.2 2 6.7 3.1 1.4 1 2.9 1.9 3.2 1.9.4 0 2.1-.7 3.9-1.5ZM8.9 23l.2-4.2-2.3-1.3-2.3-1.4v5.5c0 5 0 5.4 1.5 5.6 2.5.5 2.7.1 2.9-4.2Zm85.2 3.6c1.2-.4 1.4-.8 1.4-3.8 0-2-.1-3.5-.3-3.5L93 20c-1.5.5-2 1-1.8 1.7.2.5.4 2 .4 3.1 0 2.3.1 2.4 2.5 1.8Zm-14.4-4.1 4.5-2-2.3-1.2a11 11 0 0 1-3.2-2.3c-.8-1-.7-1.2 1-2.7 1-.8 1.7-1.6 1.5-1.7l-6.4-2L68.6 9l-6 2.2C55 14 52.8 15 52.8 15.4c0 .6 9.2 4.8 14.8 6.9 2.2.8 4.2 1.6 4.4 1.8.8.8 3.4.2 7.6-1.6Zm-42-4.1c3.8-1.7 7.1-3 7.3-3.2.1 0-3.3-1.7-7.5-3.6l-7.7-3.3-5 1.5-5.1 1.6 2.1 1c1.2.7 2 1.6 2 2.3 0 1.1-2.3 2.7-4.1 2.7-.5 0-1.7.3-2.7.7-1.8.7-1.8.7 3 3l4.8 2.4 3-1 9.9-4.1ZM86 18c-2.4-1.4-2.6-2.2-1-3.1 1.6-1 .7-.9-1.8.2-2.2.9-2.2.9 1.6 3 2.7 1.6 3.7 1.5 1.2 0Zm7.2-.7c1.8-.5 2.3-.8 1.6-1.2-1.9-1-5.6-1.3-7.4-.6l-2 .7 2 1c2.4 1 2.7 1 5.8.1Zm-76.7-1.5c3.4-1.3 3.6-1.6 2.4-2.2-1.1-.6-1.4-.5-1.7.6-.2.7-.8 1.2-1.5 1.2-1.2.1-4.9 1.9-3.7 2 .4 0 2.4-.7 4.5-1.6Zm-2.6-1c2.4-1 1.3-2.1-1.5-1.6-3.5.6-5 1.6-4 2.3 1 .6 2.6.4 5.5-.7Zm45.5-5 4.7-2-3.1-1c-2.7-.6-3.5-.7-4.5 0-.8.5-2.5 1.1-4 1.6-2.1.6-3 .5-6.4-.7-5.5-2-7-2.2-9.8-1.2-2.4.8-2.4.8-.8 1.5 3.7 1.5 11.3 5 12.2 5.4.6.3 2.2 0 4-.6l7.7-3Zm-5.2-5c0-.1-1 0-2 .5-1.6.5-2.5.4-4.5-.5-1.4-.6-2.7-1-3-.7-.2.2.5.7 1.5 1l3 1.2c1.2.5 5-.7 5-1.5Zm0 0" />
</svg>