<svg xmlns="http://www.w3.org/2000/svg" id="root" viewBox="0 0 1550 1570">
  <path
    d="M740 1511c-43-9-100-38-100-51 0-6-9-10-20-10s-20-4-20-9c0-4-15-11-33-14-51-8-247-106-247-123 0-8-10-14-25-14-27 0-125-56-125-71 0-5-7-9-15-9s-23-4-33-8c-9-5-30-15-47-23l-30-15-3-472-2-472h25c14 0 25-4 25-10 0-16 34-29 111-41 41-7 76-15 79-19 9-12 148-50 184-50 20 0 36-4 36-9 0-15 59-31 111-31 36 0 49-4 49-14 0-19 125-34 152-17 10 6 27 11 38 11s20 5 20 10c0 6 10 10 23 10 35 0 127 29 127 40 0 6 17 10 38 10 48-1 232 52 232 66 0 6 40 16 94 22 52 7 101 15 110 18 14 5 16 55 16 474 0 520 5 487-70 497-22 3-40 11-40 18 0 24-159 125-196 125-9 0-22 6-28 14-16 21-166 96-192 96-12 0-24 7-28 15-3 8-14 15-25 15s-21 3-23 8c-6 14-79 42-106 41-15-1-43-4-62-8zm52-403c5-250-2-558-12-558-5 0-10 91-12 213-4 296 1 497 12 497 5 0 11-65 12-152zM384 864c3-9 6-38 6-65 0-49-1-50-27-47-27 3-28 6-31 66s-2 62 21 62c14 0 28-7 31-16z"
  />
  <path
    d="M673 1525c-46-21-73-40-73-50 0-8-8-18-17-22-55-18-244-107-260-122-10-10-30-21-44-24-14-4-42-18-62-31-19-13-44-22-54-20s-47-13-82-35l-65-39-1-476c0-263 2-481 5-485 14-22 164-81 206-81 13 0 65-13 116-30 51-16 100-30 111-30 10 0 31-7 47-15 31-16 124-40 227-57 53-10 68-9 115 9 116 43 185 65 233 73 28 5 75 16 105 25s71 20 90 25 36 14 38 19c2 6 25 11 50 11 51 0 146 22 165 39 19 15 16 964-3 986-21 25-110 67-127 60-9-3-23 1-33 10-19 17-163 95-302 163-53 26-98 53-100 60-5 21-128 71-173 71-24 0-69-14-112-34zm207-133v-64l-32 7c-48 11-48 10-48 85v69l40-17 40-17v-63zm-120 13c0-73-1-76-27-86-49-18-58-10-61 58l-3 62 38 20c21 11 41 20 46 21 4 0 7-34 7-75zm164-58c-4-45-8-83-9-85s-29 9-61 24c-59 26-61 45-2 25 17-6 35-11 39-11s11 31 15 70c9 98 26 77 18-23zm-274 20c0-29 6-62 14-72 13-18 16-18 55-3 22 9 41 13 41 8 0-8-101-50-120-50-6 0-10 37-10 85 0 50 4 85 10 85s10-24 10-53zm411-1 84-43 3-232 2-232-22 7c-52 15-291 113-299 121-5 5-8 66-7 135l3 125 49-15c48-15 49-15 67 7 15 18 19 40 19 97 0 41 4 74 8 74 5 0 47-20 93-44zm-450-160c5-6 69 11 112 29 16 7 17-1 15-111l-3-119-35-17c-19-10-57-24-85-33-27-8-81-31-120-50-78-39-85-36-85 32 0 58-15 93-40 93-19 0-20 6-20 129v130l103 49c56 27 109 51 117 54 12 4 17-13 25-88 6-51 13-95 16-98zm727 6 32-24v-97c0-88 2-99 23-118 12-11 36-25 52-30l30-10 3-101c3-97-2-114-23-93-6 5-26 14-45 19-19 6-75 26-125 45l-90 34-3 232-2 232 57-32c32-18 73-43 91-57zm-1026-72c2-99 0-122-13-133-12-11-14-25-8-73 15-119 15-118-43-143-29-13-81-36-115-52l-63-28v228l38 17c20 10 49 29 65 42 25 24 27 31 27 113v87l48 30c26 17 50 31 54 31 4 1 8-53 10-119zm-153-107c-16-19-68-45-81-41-5 2 8 15 29 28 36 24 38 28 41 80 4 84 16 94 20 17 2-44-1-74-9-84zm-61 5-23-17-3 52c-3 44 0 55 20 71l23 18 3-53c3-46 0-55-20-71zm1332 47c0-71 2-76 25-87 37-17 30-30-7-15l-33 13-3 82c-2 52 1 82 8 82 6 0 10-30 10-75zm50-17c0-43-3-59-12-56-8 3-14 29-16 73-3 61-1 67 13 55 10-9 15-30 15-72zM358 919c-22-14-28-10-28 21 0 17 7 33 18 39 14 8 17 5 20-21 2-18-2-34-10-39zm382-43v-63l-84-42c-46-23-90-48-96-56s-14-64-17-127l-6-113-65-27c-36-15-67-26-69-25-1 2-6 42-9 90-6 79-5 89 12 102 16 12 19 27 19 107v93l155 62c85 34 156 62 158 63 1 0 2-29 2-64zm258-12 152-49V431l-62 25c-35 14-68 28-75 31-9 3-13 42-15 125l-3 120-60 23c-118 43-115 41-115 108 0 43 3 58 13 55 6-3 81-27 165-54zm317-113c28-10 76-29 107-42l58-24V480l-51 25c-76 39-83 35-89-62-3-45-8-85-12-88-3-3-35 8-72 26l-66 32v387l38-16c20-9 60-24 87-33zM309 667c1-49 4-60 20-64s20-19 26-105c4-55 5-101 3-103-8-7-133-63-136-60-1 1-7 40-12 86-12 102-22 115-73 94-65-27-67-25-67 69v83l112 52c130 58 125 60 127-52zm431 84c0-12-10-21-27-26-16-3-45-17-65-30l-37-25-3-82c-2-54-7-83-15-86-10-3-13 14-12 65 2 118 5 123 84 165 39 21 71 38 73 38 1 0 2-9 2-19zm188-34 32-10v-99c0-59-4-98-10-98s-10 33-10 79c0 90-4 97-75 131-54 26-61 47-7 24 20-9 52-21 70-27zm-539-54c1-17-5-23-19-23-16 0-20 7-20 34 0 60 37 48 39-11zm351-28v-75l-33-14c-82-34-78-36-75 46l3 73 45 22c25 12 48 22 53 23 4 0 7-34 7-75zm140 55 40-20v-70c0-39-4-70-10-70-5 0-28 7-50 16l-40 16v74c0 45 4 74 10 74s29-9 50-20zm-21-186c38-19 34-25-31-49-48-18-94-16-144 7-32 15-30 20 14 40 48 21 121 22 161 2zm617-72c-2-1-16 2-31 8-45 17-55 7-55-57 0-34-4-53-9-47-5 5-7 41-4 81l6 72 47-27c27-15 47-28 46-30zM163 473c3-5 8-43 12-85 5-55 4-78-4-78-7 0-11 22-11 58 0 75-8 87-55 79-43-7-39 2 8 20 40 14 45 15 50 6zm781-1c6-9-104-67-143-76-29-6-138 28-171 54-35 27-9 25 50-5 63-32 111-31 180 4 60 31 76 35 84 23zm111-46 50-23-41-12c-40-11-199-79-273-116-33-17-34-17-140 25-170 68-201 82-201 90 0 4 25 18 55 30l54 22 47-26c25-14 75-35 111-46l64-20 62 21c34 11 80 33 102 49s45 29 50 29c6 0 33-10 60-23zm-917-68 3-66-36-20-35-21v84c0 79 1 84 23 88 38 7 42 2 45-65zm1320 56c19-6 22-13 22-60 0-30-2-54-4-54-1 0-17 5-35 11-22 8-30 16-27 26 3 8 6 30 6 49 0 36 2 37 38 28zm-222-65 69-31-36-18c-19-10-42-26-49-35-13-15-11-20 14-42 16-13 27-25 25-27-2-1-47-15-100-31l-96-27-94 35c-115 43-149 58-149 67 0 8 143 74 229 106 35 13 66 26 69 29 12 12 53 3 118-26zm-652-63c60-26 111-48 113-50 2-1-50-26-116-55l-119-52-78 24-79 24 33 17c18 9 32 24 32 35 0 17-37 41-65 41-7 0-26 5-42 11-28 11-28 11 47 48l75 37 45-17c25-10 94-38 154-63zm749-6c-37-22-41-34-15-49 25-15 10-13-28 3-35 14-35 14 25 48 42 24 57 22 18-2zm111-11c28-8 36-13 25-19-29-15-87-20-115-9l-29 11 30 14c37 16 41 16 89 3zM255 246c53-21 56-25 38-35-17-9-22-7-26 9-3 11-13 20-24 20-19 1-75 29-57 30 6 0 37-11 69-24zm-40-16c38-15 21-33-23-25-54 10-78 25-61 36 14 9 39 6 84-11zm705-79 74-29-49-15c-41-11-54-12-70-1-11 7-38 17-60 24-34 10-49 8-100-10-85-31-109-34-152-19-37 12-38 12-13 23 58 24 176 77 190 84 8 5 33 1 60-9 25-10 79-31 120-48zm-80-76c0-2-14 1-31 7-24 8-38 7-70-7-21-10-42-15-45-12-4 4 6 11 22 17s38 14 48 18c17 7 76-11 76-23z"
    fill="#DED4A3"
  />
</svg>
