<svg xmlns="http://www.w3.org/2000/svg" id="root" viewBox="0 0 23200 23600">
  <path
    d="M11980 22562c0-4-1-371-2-817-1-589 2-839 11-915 40-346 126-433 521-527 164-39 642-143 657-143 11 0 13 167 11 952l-3 951-581 247c-665 282-614 261-614 252zM11200 22416c-111-39-437-197-819-397-201-105-368-193-370-195-4-3 32-802 50-1094 30-519 104-738 272-810 127-55 397-3 727 139 201 87 259 172 292 434 18 143 18 1323 0 1527-14 161-37 318-53 367-16 51-27 54-99 29z"
  />
  <path
    d="M13747 21723c-59-67-119-362-172-858-58-538-129-934-194-1080-19-42-22-45-59-45-51 0-246 54-522 145-315 103-444 134-577 137-85 1-113-12-113-53 0-84 239-242 665-439 535-248 898-391 925-364 10 10 46 317 85 729 14 149 34 365 45 480 38 398 49 796 29 1046-20 261-58 362-112 302zM9547 21522c-58-63-98-347-117-817-28-722 12-1453 93-1653l22-57 70 2c263 6 1618 563 1744 716 7 9 11 23 8 31-22 57-274 4-617-132-419-165-547-191-654-128-59 34-165 165-211 262-95 194-164 644-165 1059 0 316-44 608-103 697-27 39-47 45-70 20z"
  />
  <path
    d="M14482 21377c-27-32-61-226-82-472-6-66-15-334-20-595-14-669-30-871-86-1087-43-165-103-283-212-417-105-129-160-182-223-216-61-32-62-32-173-27-132 6-179 18-866 231-255 80-466 144-467 143-1-2-12-392-24-867-40-1521-28-2430 36-2860 22-147 30-167 77-196 223-141 2388-1038 3673-1521 436-164 1097-384 1111-370 11 11-50 6072-69 6855l-2 103-645 330c-355 182-748 383-875 448-448 230-1003 490-1121 525-12 4-26 1-32-7zM8435 21081c-245-104-1039-471-1545-714-146-71-580-277-965-460l-700-333-5-1075c-5-1175 3-2189 19-2369 21-226 47-330 98-391 35-41 61-50 177-60 81-6 111-14 163-39 219-108 362-424 418-926 9-78 20-305 25-514 11-490 32-608 123-707 57-62 121-80 235-64 170 24 347 95 862 346 734 357 1314 600 1872 783 329 109 704 246 930 341 117 50 834 389 855 405 5 4 45 1685 52 2196 14 926-5 1204-84 1270-31 25-87 12-295-68-564-218-1202-392-1434-392-91 0-100 4-115 43-45 117-177 969-226 1452-64 630-141 1079-209 1214-58 113-105 124-251 62zM17835 19448c3-167 10-917 16-1668 14-1855 55-4991 66-5000 9-9 1476-561 2043-770 582-214 969-349 1290-450 276-86 490-186 590-276 102-91 164-113 212-74 93 73 125 384 114 1100-8 476-50 1908-57 1914-2 2-123 43-269 90-473 156-800 341-1036 588-138 145-194 268-228 508-32 224-37 437-37 1542l1 1098-300 225c-449 336-759 537-1415 917-116 67-915 517-973 547l-23 12 6-303zM4425 19093c-105-48-321-174-655-385-179-113-433-273-565-355l-240-150-6-1059c-6-1030-8-1110-40-1322-23-154-70-279-147-387-133-186-434-425-852-677-210-127-311-178-614-313l-291-130-3-1714c-2-1369 0-1712 10-1708 50 20 1155 518 1458 657 206 94 614 277 905 406 619 274 735 330 828 400 268 202 295 438 167 1474-86 692-105 912-96 1081 11 202 46 293 161 418 116 126 151 215 181 461 22 188 32 747 23 1280-19 1114-90 2051-156 2050-4 0-35-13-68-27z"
  />
  <path
    d="M2308 17724c-42-97-85-374-108-709-5-82-17-253-26-380-47-687-86-757-624-1115-265-176-410-301-427-368-39-155 584 80 999 377 199 142 267 228 307 387 57 227 77 682 51 1127-34 564-102 837-172 681z"
  />
  <path
    d="M1510 17524c-230-179-302-244-356-320-92-128-124-261-124-513-1-170 48-1095 58-1123 6-15 43 9 212 135 354 265 415 357 441 667 6 69 8 177 4 240-17 335-56 1027-58 1038-1 7-80-48-177-124zM21249 17608c-27-42-38-77-54-160-42-232-45-604-10-1533 14-363 25-679 25-702v-42l303-119c339-134 417-160 520-171 136-15 181 24 116 102-44 54-150 122-327 212-267 136-322 212-362 500-6 44-15 339-20 655-11 702-27 949-77 1148-27 110-82 162-114 110z"
  />
  <path
    d="M21798 17393c-30-33-40-98-45-283-6-203 18-769 42-995 48-452 132-705 235-705 47 0 65 14 88 68 33 77 51 206 63 451 24 484-8 942-82 1165-49 149-129 255-223 300-43 20-59 20-78-1zM5230 14938c-158-82-257-228-297-442-20-107-13-405 11-483 24-74 65-113 122-113 84 0 286 105 331 172 87 130 115 351 78 618-38 272-92 327-245 248zM10260 14018c-415-166-1466-586-2335-934l-1580-632-6-1099c-4-698-10-1143-18-1223-34-373-79-509-209-631-172-160-192-182-217-234-55-116-60-162-59-505 0-221 7-402 22-605 12-159 24-333 27-385 22-343 93-1045 121-1183 5-26 9-28 37-22 52 11 281 89 437 148 331 127 1527 619 1541 635 3 4 27 414 53 912 50 960 67 1231 91 1505 45 485 104 884 161 1075 32 108 65 143 234 255 344 227 754 447 1903 1022l609 304-6 902c-3 496-8 923-12 950-4 35-10 47-23 46-9 0-356-136-771-301zM12384 13986c-12-8-31-37-42-64-42-98-53-213-60-617-11-617 2-765 78-921 84-172 248-288 645-457 155-66 248-102 675-259 179-65 526-196 772-290l447-171 5-41c3-23 14-459 26-971 28-1288 42-1646 76-2020 36-397 81-582 155-637 49-35 351-162 1398-584 360-145 658-264 663-264 4 0 7 1297 6 2881l-3 2881-1285 415c-707 228-1460 471-1675 540-840 270-1497 484-1635 534-162 58-214 68-246 45zM17830 9318V6414l493-239c621-301 777-374 1007-467 241-99 428-159 511-165l66-5 15 33c30 62 82 381 112 684 22 221 33 351 61 740 14 193 32 407 41 476 33 274 89 470 161 564 72 95 196 126 353 90 169-40 291-91 757-321 197-97 454-223 571-280l212-103v3076l-587 243c-997 412-1608 651-2133 833-208 73-460 166-700 260-63 25-293 120-510 212s-403 170-412 172c-17 5-18-138-18-2899z"
  />
  <path
    d="M10810 11664c-625-323-1328-708-1490-817-411-276-546-536-599-1157-27-307-47-1263-32-1506 20-321 58-434 146-434 70 0 116 79 158 271 60 271 83 567 117 1544 11 325 23 617 26 651l5 60 281 190c345 232 475 311 688 417 196 98 334 154 502 202 230 66 372 156 428 270 23 47 25 61 25 205 0 170-6 210-33 210-9 0-109-48-222-106zM4165 11589c-262-38-678-212-2275-953-388-180-744-346-793-368l-87-41v-866c0-476 5-945 10-1041 25-432 88-576 257-597 112-13 259 29 633 179 124 50 275 106 335 126 99 32 122 35 230 36 149 1 195-16 280-105 160-167 260-568 360-1439 49-426 86-716 121-950 43-283 52-330 67-330 100 1 1430 581 1921 838 100 52 111 60 119 92 13 47 1 656-18 985-74 1263-132 1749-232 1950-48 96-84 122-248 181-68 25-136 94-163 166-56 149-70 303-82 893-10 511-23 753-45 890-36 223-109 329-244 355-60 11-61 11-146-1zM12301 11516c-22-26-4-65 57-125 116-113 272-207 711-426 307-153 420-216 545-303 268-187 383-390 431-755 21-163 35-511 35-890 0-462 24-797 71-997 58-249 130-181 174 164 40 316 54 792 55 1867v775l-262 83c-432 136-945 326-1233 458-267 122-547 194-584 149zM5405 10916c-67-30-120-118-157-261-26-103-37-454-18-573 22-140 70-214 157-243 52-17 197-17 257 0 70 21 120 72 141 146 15 49 17 85 12 210-12 339-107 599-256 704-36 26-99 34-136 17z"
  />
  <path
    d="M10860 10836c-193-76-584-257-1122-520l-236-116-6-62c-11-125-58-1368-59-1583-2-238 8-322 46-390 35-61 78-85 154-85 131 0 275 51 993 353 151 63 311 131 355 150l80 34v839c0 873-5 1026-45 1254-21 127-34 160-57 160-10-1-56-16-103-34zM12380 10829c-29-56-56-186-77-369-15-136-17-259-18-984v-830l370-149c384-154 750-282 892-313 95-20 104-16 134 51 71 161 99 584 99 1482v553l-420 210c-549 275-823 390-925 390-30 0-37-5-55-41zM11515 7989c-343-21-674-88-962-195-54-20-172-72-263-115-284-137-380-210-380-288 0-33 7-45 43-78 71-66 191-130 412-221 534-219 1026-279 1535-186 246 45 532 140 940 311 224 94 370 191 382 255 15 78-84 167-310 281-284 144-572 213-987 237-188 11-209 11-410-1zM20730 7545c0-3-23-278-50-612-70-847-77-1267-25-1540 33-173 93-200 129-58 34 131 55 427 56 760 0 387 50 628 153 741 65 72 114 90 237 87 112-2 225-29 422-102 73-27 171-61 216-75 92-29 241-58 255-49 5 3-2 16-15 30-34 36-279 196-468 306-478 276-899 517-904 517-3 0-6-2-6-5zM2130 7379c-331-85-889-311-999-405-79-68-47-89 123-81 67 3 200 17 296 31 426 62 593 18 695-184 80-159 103-339 115-905 11-540 29-733 80-868 34-89 93-124 134-78 38 42 49 108 54 335 7 361-48 1031-139 1671-48 342-67 415-119 467-36 36-40 38-101 37-35 0-98-9-139-20z"
  />
  <path
    d="M13845 7379c-156-36-374-129-810-346-506-252-785-363-1075-427-212-47-254-51-520-51-271 0-322 6-550 62-232 56-380 114-750 293-319 155-393 187-565 253-359 136-482 111-307-63 136-135 298-242 553-364 423-203 1000-402 1469-505 274-61 375-74 550-75l165-1 130 44c633 213 1766 807 1969 1031 42 47 44 58 14 95-45 58-158 80-273 54z"
  />
  <path
    d="M14750 6893c-178-93-337-192-610-383-275-193-749-434-1190-607-91-35-411-148-712-250l-548-186-582 183c-754 235-1067 349-1526 554-266 119-385 180-827 424-214 118-395 215-401 215-11 0-739-293-969-390-149-63-454-218-540-274-135-88-152-123-92-176 119-104 550-302 1512-695 377-153 1923-773 2055-823 683-259 894-317 1089-302 113 9 196 41 521 200 326 160 969 460 1281 597 696 307 1430 618 1854 785 548 216 636 247 1095 381 195 57 363 107 373 112 14 6-9 20-100 61-65 30-298 137-518 239-557 256-868 378-994 389-53 5-62 2-171-54zM1565 6594c-307-45-359-59-421-116-120-111-137-319-132-1650l3-846 250 150c138 83 376 220 530 306 154 85 281 155 282 156 2 1-9 237-42 936-33 691-62 866-168 986-45 52-104 75-196 79-42 2-89 1-106-1zM21393 6481c-76-35-102-127-103-361-1-294-36-653-80-805-11-38-20-87-20-108 0-87 80-174 232-250 92-46 598-220 677-233 37-6 39-5 45 22 43 200 59 1005 26 1274-22 178-72 283-160 340-63 40-192 82-353 115-148 30-208 31-264 6zM16910 5914c-58-12-99-29-160-69-106-70-394-193-900-385-585-222-856-331-1350-543-431-185-541-234-1015-451-293-135-897-437-1021-511-204-122-219-146-139-220 98-92 385-226 1020-480 551-219 2556-970 2586-968 20 2 1280 355 1514 424 229 68 1064 326 1245 384 80 26 153 49 163 52 9 3 17 13 17 23 0 39-144 189-374 391-256 223-326 310-326 404 0 63 23 113 89 195 100 125 286 272 556 441 39 24 222 120 408 214l337 171-147 66c-82 36-357 160-613 275-776 350-1145 487-1498 558-122 25-334 40-392 29zM5224 5451c-286-141-618-306-739-364-640-311-835-429-835-505 0-46 123-107 410-202 214-71 374-108 523-119 128-10 212-29 326-71 181-66 355-176 472-297 143-146 165-236 94-379-43-88-168-222-271-291-67-46-304-174-516-279-76-38-138-71-138-74s219-72 488-153c268-81 796-243 1173-358l686-211 299 130c1531 666 1979 864 2469 1092 262 122 686 330 735 360l34 22-59 31c-104 53-373 171-1390 612-333 144-1039 437-1665 690-146 59-413 168-595 242-181 74-456 182-610 240s-301 114-326 123l-46 19-519-258z"
  />
  <path
    d="M20180 4674c-139-47-404-185-784-408-355-208-443-285-408-359 14-32 100-80 263-148 433-181 643-252 681-228 21 13-31 58-162 140-202 126-260 189-260 283 0 127 121 247 457 454 229 141 353 240 353 282 0 17-62 11-140-16z"
  />
  <path
    d="M20781 4375c-147-33-292-88-567-215-109-51-233-108-274-127-56-26-71-37-59-43 55-31 514-194 591-210 292-60 688-50 1058 25 209 43 395 105 505 169 47 28 66 66 48 95-38 63-418 191-838 282-171 37-363 47-464 24zM2704 4246c-15-38 95-116 314-226 232-115 429-184 594-205 118-16 175-41 244-110 61-60 86-107 126-229 32-100 56-139 98-161 44-23 87-18 177 18 146 60 253 138 253 186 0 73-148 154-656 360-764 308-1128 424-1150 367zM2155 3899c-99-9-161-28-224-69-59-37-81-68-81-112 0-148 385-315 973-423 386-70 677-21 677 115 0 111-171 215-565 345-355 117-596 162-780 144zM11160 3362c-19-2-123-44-230-94-566-263-1907-857-2517-1113-386-163-447-196-441-238 5-35 81-69 358-161 396-132 518-157 764-157 345 1 715 93 1486 371 360 130 618 210 810 252 141 30 429 33 560 5 356-77 943-296 1188-445 102-62 160-82 263-91 203-17 457 36 1089 229 201 62 371 115 378 119s-213 95-520 215c-293 115-643 253-778 308-319 130-911 367-1070 428-69 26-228 89-355 140-427 170-782 254-985 232z"
  />
  <path
    d="M11507 1700c-71-13-814-292-942-355-114-55-195-119-195-153 0-11 9-27 20-37 17-15 30-17 85-11 133 14 292 67 664 226 186 78 340 125 466 140 169 20 290 1 575-91 237-77 379-106 394-80 11 17-39 75-100 116-209 143-759 283-967 245z"
  />
</svg>
