<svg xmlns="http://www.w3.org/2000/svg" id="root" viewBox="0 0 100 109">
  <g>
    <path
      d="M 13.613281 26.3125 C 15.359375 25.226562 18.050781 17.804688 16.707031 17.804688 C 15.140625 17.804688 13.433594 19.6875 11.46875 23.527344 C 10.703125 25.007812 10.59375 25.550781 10.886719 26.3125 C 11.285156 27.324219 12.015625 27.324219 13.613281 26.3125 Z M 89.816406 26.675781 C 90.105469 25.914062 89.925781 25.261719 88.871094 23.128906 C 88.179688 21.679688 87.304688 20.230469 86.976562 19.871094 C 86.214844 19 84.359375 18.058594 84.070312 18.347656 C 83.050781 19.328125 85.742188 26.058594 87.558594 27 C 88.980469 27.761719 89.414062 27.6875 89.816406 26.675781 Z M 89.816406 26.675781 "
    />
    <path
      d="M 11.03125 46.726562 C 11.832031 46.511719 13.761719 45.570312 15.359375 44.664062 C 17.722656 43.289062 18.523438 43 19.941406 43.035156 C 20.925781 43.035156 22.054688 43.253906 22.527344 43.507812 C 23.582031 44.050781 23.980469 43.542969 23.980469 41.515625 C 23.980469 40.429688 23.652344 39.5625 22.671875 38.113281 L 21.363281 36.15625 L 23.035156 36.410156 C 23.945312 36.554688 24.707031 36.628906 24.707031 36.554688 C 24.707031 36.484375 24.378906 35.507812 23.980469 34.347656 C 23.109375 31.921875 23.035156 28.773438 23.796875 26.964844 C 24.125 26.238281 24.960938 24.902344 25.691406 23.996094 C 27.035156 22.402344 27.074219 22.292969 27.253906 18.566406 C 27.546875 13.28125 28.601562 11.398438 32.308594 9.410156 L 33.472656 8.792969 L 33.21875 6.332031 C 33.074219 4.992188 32.855469 3.726562 32.710938 3.582031 C 32.273438 3.109375 31.035156 3.90625 27.253906 7.054688 C 25.363281 8.648438 22.707031 10.640625 21.398438 11.507812 C 20.089844 12.339844 18.886719 13.28125 18.78125 13.609375 C 18.453125 14.441406 19.035156 14.332031 20.707031 13.28125 C 22.5625 12.125 22.5625 12.59375 20.707031 14.476562 C 19.035156 16.140625 18.851562 17.410156 20.015625 18.566406 C 20.78125 19.328125 21.726562 19.363281 24.273438 18.675781 C 25.472656 18.347656 25.289062 19.363281 23.980469 20.449219 C 23.21875 21.101562 22.234375 21.460938 20.816406 21.644531 C 19.652344 21.75 18.269531 22.113281 17.761719 22.367188 C 15.796875 23.34375 14.667969 27.433594 15.613281 29.933594 C 15.832031 30.476562 16.5625 31.597656 17.25 32.429688 C 18.632812 34.132812 18.78125 34.457031 18.050781 34.457031 C 17.761719 34.457031 16.453125 33.226562 15.105469 31.742188 C 12.777344 29.171875 12.558594 29.027344 11.140625 29.027344 C 9.539062 29.027344 8.339844 29.75 7.6875 31.019531 C 6.628906 33.191406 6.921875 37.75 8.195312 38.691406 C 8.558594 38.945312 9.722656 39.164062 10.8125 39.164062 C 12.742188 39.164062 15.25 39.996094 15.25 40.644531 C 15.25 41.082031 14.960938 41.042969 11.324219 40.539062 C 8.304688 40.101562 8.230469 40.101562 7.578125 40.9375 C 7.210938 41.371094 6.8125 42.3125 6.667969 43 C 6.339844 44.664062 5.792969 44.410156 5.25 42.3125 C 4.449219 39.125 3.792969 39.5625 3.792969 43.289062 C 3.792969 46.765625 4.121094 47.125 7.210938 47.125 C 8.523438 47.125 10.269531 46.945312 11.03125 46.726562 Z M 95.527344 47.304688 C 96.433594 46.65625 96.945312 44.230469 96.582031 42.203125 C 96.21875 40.464844 95.671875 40.792969 94.90625 43.144531 L 94.289062 45.136719 L 93.851562 44.050781 C 92.542969 40.9375 92.945312 41.152344 88.617188 41.226562 C 86.179688 41.261719 84.796875 41.152344 84.90625 40.9375 C 85.378906 40.25 87.777344 39.523438 89.777344 39.523438 C 90.90625 39.523438 91.996094 39.378906 92.253906 39.234375 C 92.980469 38.765625 93.453125 37.027344 93.453125 34.78125 C 93.453125 31.34375 92.035156 29.390625 89.523438 29.390625 C 88.46875 29.390625 87.851562 29.824219 85.488281 32.105469 C 83.921875 33.589844 82.578125 34.820312 82.433594 34.820312 C 81.851562 34.820312 82.25 33.804688 83.121094 32.972656 C 84.46875 31.777344 85.449219 29.496094 85.449219 27.652344 C 85.449219 24.613281 83.777344 22.367188 81.121094 21.96875 C 78.46875 21.535156 77.121094 21.027344 76.394531 20.121094 C 75.15625 18.566406 75.777344 18.421875 79.160156 19.433594 C 80.140625 19.726562 81.8125 18.242188 81.8125 17.082031 C 81.8125 16.683594 81.121094 15.597656 80.320312 14.730469 C 78.648438 12.917969 78.613281 12.230469 80.25 13.355469 C 81.960938 14.546875 82.175781 14.621094 82.175781 14.078125 C 82.175781 13.425781 81.304688 12.59375 79.265625 11.289062 C 78.359375 10.710938 75.738281 8.613281 73.449219 6.621094 C 71.15625 4.59375 69.046875 2.964844 68.828125 2.964844 C 68.574219 2.964844 68.355469 3.398438 68.355469 3.980469 C 68.355469 4.523438 68.246094 5.789062 68.136719 6.800781 L 67.882812 8.683594 L 69.882812 9.953125 C 72.757812 11.761719 73.59375 13.609375 73.667969 18.277344 C 73.738281 20.992188 73.882812 22.042969 74.429688 22.835938 C 77.046875 26.964844 77.230469 27.398438 77.375 29.570312 C 77.523438 31.632812 77.339844 32.429688 75.8125 36.050781 C 75.519531 36.699219 75.628906 36.738281 77.230469 36.519531 L 78.976562 36.265625 L 78.359375 37.242188 C 76.574219 39.921875 76.320312 40.609375 76.429688 42.128906 C 76.539062 43.433594 76.648438 43.6875 77.265625 43.578125 C 80.539062 43.109375 81.195312 43.109375 82.25 43.507812 C 82.90625 43.757812 83.960938 44.339844 84.542969 44.773438 C 88.25 47.453125 93.5625 48.683594 95.527344 47.304688 Z M 95.527344 47.304688 "
    />
    <path
      d="M 70.792969 47.996094 C 74.613281 45.640625 75.777344 41.839844 73.738281 38.4375 C 73.191406 37.535156 71.847656 35.90625 70.757812 34.820312 C 69.628906 33.734375 68.71875 32.648438 68.71875 32.359375 C 68.71875 32.066406 68.828125 31.921875 69.011719 31.996094 C 69.15625 32.066406 70.066406 32.503906 71.011719 32.9375 C 71.992188 33.40625 73.121094 33.734375 73.558594 33.660156 C 74.285156 33.550781 74.355469 33.296875 74.464844 31.273438 C 74.613281 28.160156 73.410156 25.988281 70.101562 23.34375 C 67.484375 21.28125 67.082031 20.703125 68.5 20.957031 C 70.539062 21.355469 72.464844 17.554688 71.664062 14.839844 C 71.15625 13.171875 69.738281 12.050781 66.464844 10.710938 C 63.84375 9.664062 63.808594 9.625 64.316406 8.285156 C 64.753906 7.164062 64.535156 6.875 62.355469 5.789062 C 59.699219 4.484375 58.898438 3.941406 58.898438 3.4375 C 58.898438 2.167969 61.261719 2.785156 64.210938 4.777344 L 66.355469 6.222656 L 66.464844 5.171875 C 66.644531 3.4375 65.917969 2.605469 63.082031 1.335938 C 60.207031 0.0351562 59.917969 -0.0390625 57.261719 0.0351562 C 55.589844 0.105469 55.335938 0.25 54.242188 1.589844 L 53.042969 3.109375 L 54.316406 3.617188 C 55.042969 3.90625 55.625 4.339844 55.625 4.59375 C 55.625 4.882812 54.898438 5.679688 53.988281 6.441406 C 52.75 7.417969 52.351562 7.996094 52.351562 8.757812 C 52.351562 10.023438 53.042969 10.601562 54.171875 10.3125 C 55.117188 10.058594 55.1875 9.914062 53.042969 13.136719 C 52.316406 14.222656 51.480469 15.816406 51.261719 16.648438 C 50.824219 17.949219 50.859375 18.242188 51.480469 19.109375 C 53.332031 21.679688 53.441406 22.003906 53.441406 24.140625 C 53.441406 25.335938 53.1875 27.433594 52.898438 28.847656 C 52.167969 32.285156 52.207031 33.152344 53.1875 34.277344 C 53.878906 35.109375 54.496094 35.289062 57.554688 35.722656 C 59.515625 36.011719 61.664062 36.339844 62.28125 36.484375 C 63.699219 36.773438 66.753906 38.257812 67.117188 38.835938 C 67.375 39.269531 67.226562 39.269531 60.933594 38.402344 C 57.515625 37.933594 57.296875 37.933594 56.023438 38.691406 C 53.878906 39.886719 52.351562 42.167969 52.351562 44.121094 C 52.351562 45.859375 53.296875 47.8125 54.535156 48.683594 C 55.007812 49.007812 57.042969 49.117188 62.097656 49.117188 L 69.046875 49.082031 Z M 46.351562 48.390625 C 47.769531 46.945312 48.242188 44.84375 47.621094 43 C 47.148438 41.515625 44.457031 38.945312 43.039062 38.582031 C 42.167969 38.367188 36.421875 38.910156 34.273438 39.414062 C 33.691406 39.5625 33.4375 39.453125 33.4375 39.054688 C 33.4375 37.933594 38.855469 36.304688 42.894531 36.230469 C 45.296875 36.195312 46.96875 35.46875 47.730469 34.167969 C 48.386719 33.082031 48.386719 32.863281 47.839844 29.679688 C 47.515625 27.867188 47.257812 25.660156 47.257812 24.757812 C 47.257812 23.128906 48.167969 20.703125 48.785156 20.703125 C 48.96875 20.703125 49.332031 20.195312 49.585938 19.542969 C 50.207031 18.058594 49.839844 16.648438 47.949219 13.609375 C 47.1875 12.304688 46.53125 11.109375 46.53125 10.929688 C 46.53125 10.457031 47.148438 10.457031 47.441406 10.929688 C 47.878906 11.617188 48.714844 10.566406 48.714844 9.371094 C 48.714844 8.503906 48.3125 7.886719 47.003906 6.621094 L 45.257812 5.027344 L 46.605469 4.449219 C 47.367188 4.125 47.988281 3.691406 47.988281 3.507812 C 47.988281 3.292969 47.476562 2.53125 46.859375 1.769531 C 45.804688 0.46875 45.660156 0.433594 43.441406 0.433594 C 41.765625 0.433594 40.492188 0.683594 38.820312 1.410156 C 36.054688 2.566406 35 3.507812 34.675781 5.066406 C 34.382812 6.585938 35 6.585938 36.929688 5.136719 C 38.894531 3.652344 41.765625 2.710938 42.203125 3.363281 C 42.605469 4.050781 41.984375 4.59375 39.222656 6.007812 C 36.855469 7.199219 36.566406 7.707031 37.109375 9.410156 C 37.21875 9.734375 36.421875 10.203125 34.929688 10.785156 C 31.800781 11.980469 30.238281 12.957031 29.617188 14.1875 C 28.234375 16.867188 29.800781 21.0625 32.199219 21.0625 C 33.4375 21.0625 33.292969 21.535156 31.726562 22.691406 C 27.21875 26.023438 25.507812 28.953125 26.054688 32.394531 C 26.308594 34.023438 27 34.132812 29.582031 32.972656 C 30.527344 32.574219 31.4375 32.285156 31.65625 32.359375 C 31.835938 32.429688 30.855469 33.660156 29.4375 35.070312 C 26.890625 37.679688 25.4375 40.175781 25.4375 41.914062 C 25.4375 43.289062 26.453125 45.351562 27.726562 46.691406 C 29.835938 48.863281 30.5625 49.082031 36.53125 49.332031 C 39.546875 49.441406 42.710938 49.550781 43.585938 49.585938 C 44.96875 49.660156 45.332031 49.515625 46.351562 48.390625 Z M 46.351562 48.390625 "
    />
    <path
      d="M 55.1875 79.195312 C 55.734375 78.90625 57.007812 77.785156 58.0625 76.664062 C 59.554688 75.070312 60.316406 74.5625 61.917969 74.09375 C 63.882812 73.550781 63.917969 73.476562 67.300781 68.734375 C 72.902344 60.878906 72.867188 60.953125 78.175781 59.976562 C 80.066406 59.648438 82.433594 59.214844 83.378906 59.035156 C 86.433594 58.457031 89.234375 58.636719 91.925781 59.613281 C 95.453125 60.878906 96.289062 60.808594 98.328125 59.035156 C 99.78125 57.730469 100 57.371094 100 56.136719 C 100 54.511719 98.652344 51.722656 97.199219 50.457031 C 96.398438 49.730469 96.035156 49.660156 94.214844 49.875 C 92.617188 50.058594 91.742188 49.914062 90.179688 49.332031 C 89.089844 48.898438 88.140625 48.574219 88.105469 48.574219 C 88.105469 48.574219 87.960938 49.40625 87.816406 50.382812 C 87.667969 51.398438 87.414062 52.191406 87.269531 52.191406 C 87.085938 52.191406 86.613281 51.648438 86.214844 50.960938 C 85.050781 49.117188 82.105469 46.546875 80.578125 46.039062 C 78.46875 45.351562 76.722656 46.039062 73.992188 48.574219 C 72.71875 49.769531 71.300781 50.816406 70.828125 50.890625 C 70.355469 51 67.445312 51.144531 64.355469 51.214844 C 59.664062 51.324219 58.390625 51.503906 56.644531 52.15625 C 53.117188 53.53125 51.332031 56.355469 51.769531 59.902344 C 51.878906 60.917969 52.132812 61.894531 52.316406 62.074219 C 52.605469 62.363281 53.734375 62.039062 57.1875 60.699219 C 58.609375 60.121094 57.625 61.171875 54.933594 63.160156 C 53.1875 64.464844 51.804688 65.765625 51.480469 66.492188 C 50.75 68.011719 50.097656 74.199219 50.386719 76.515625 C 50.75 79.304688 52.824219 80.425781 55.1875 79.195312 Z M 48.460938 78.617188 C 49.042969 77.53125 49.113281 76.769531 48.933594 72.863281 C 48.640625 66.746094 48.3125 66.203125 42.675781 62.109375 C 40.964844 60.84375 41.839844 60.808594 44.714844 61.964844 C 46.167969 62.582031 47.441406 62.980469 47.550781 62.871094 C 47.621094 62.796875 47.804688 61.605469 47.914062 60.230469 C 48.351562 54.074219 44.824219 51.6875 34.710938 51.253906 C 32.128906 51.144531 29.582031 51 29.109375 50.890625 C 28.636719 50.78125 27.253906 49.769531 26.015625 48.609375 C 23.363281 46.074219 22.636719 45.679688 20.78125 45.679688 C 18.960938 45.679688 16.378906 47.34375 14.449219 49.804688 C 13.652344 50.816406 12.851562 51.722656 12.667969 51.757812 C 12.488281 51.832031 12.339844 51.070312 12.339844 50.058594 C 12.339844 49.042969 12.195312 48.210938 12.050781 48.210938 C 11.90625 48.210938 10.851562 48.539062 9.722656 48.933594 C 8.121094 49.476562 7.140625 49.585938 5.46875 49.40625 C 2.847656 49.152344 2.59375 49.296875 1.066406 52.121094 C -0.753906 55.449219 -0.242188 57.839844 2.59375 59.289062 C 3.9375 59.976562 5.285156 59.9375 7.976562 59.070312 C 10.851562 58.164062 13.433594 58.164062 18.015625 59.070312 C 24.34375 60.335938 25.4375 60.628906 26.5625 61.386719 C 27.179688 61.820312 29.398438 64.753906 31.546875 67.9375 C 35.402344 73.65625 35.472656 73.730469 37.257812 74.273438 C 38.710938 74.707031 39.621094 75.359375 41.65625 77.457031 C 44.277344 80.101562 44.277344 80.101562 46.023438 79.992188 C 47.660156 79.882812 47.878906 79.773438 48.460938 78.617188 Z M 48.460938 78.617188 "
    />
    <path
      d="M 63.007812 92.226562 C 63.917969 91.9375 65.699219 91.070312 66.9375 90.234375 C 68.171875 89.402344 69.410156 88.75 69.664062 88.75 C 70.355469 88.75 70.320312 89.476562 69.59375 90.527344 C 68.792969 91.648438 69.335938 92.117188 71.484375 92.082031 C 72.9375 92.082031 73.375 91.863281 74.574219 90.707031 C 75.375 89.945312 76.464844 88.390625 77.011719 87.230469 C 77.558594 86.074219 78.105469 85.132812 78.25 85.132812 C 78.394531 85.132812 78.539062 85.675781 78.613281 86.328125 C 78.722656 87.449219 78.757812 87.484375 80.722656 87.59375 C 81.8125 87.664062 83.269531 87.59375 83.921875 87.484375 C 85.597656 87.160156 87.777344 85.097656 89.488281 82.164062 C 90.90625 79.773438 91.632812 79.125 91.632812 80.246094 C 91.632812 81.003906 92.6875 80.933594 94.035156 80.101562 C 95.164062 79.414062 96.433594 77.277344 97.089844 75.035156 C 97.453125 73.800781 97.382812 73.800781 95.453125 75.214844 C 93.851562 76.371094 91.816406 77.132812 89.5625 77.421875 C 87.742188 77.601562 87.558594 77.566406 87.707031 76.953125 C 87.816406 76.265625 90.507812 74.996094 93.34375 74.273438 C 95.164062 73.800781 96.363281 72.679688 96.363281 71.449219 C 96.363281 70.582031 96.328125 70.542969 94 70.726562 C 92.253906 70.871094 90.90625 71.304688 88.832031 72.320312 C 85.414062 74.019531 84.46875 75.394531 84.105469 79.125 C 83.996094 80.425781 83.742188 81.511719 83.597656 81.511719 C 83.414062 81.511719 82.976562 80.898438 82.578125 80.171875 C 80.539062 76.15625 78.722656 76.371094 75.195312 81.078125 C 74.394531 82.128906 73.230469 83.324219 72.609375 83.683594 C 71.046875 84.660156 62.355469 87.375 61.335938 87.230469 C 60.027344 87.050781 60.425781 86.433594 62.28125 85.890625 C 64.210938 85.3125 64.355469 84.84375 63.226562 83.25 C 62.789062 82.671875 62.535156 82.089844 62.679688 81.984375 C 62.789062 81.875 63.664062 82.089844 64.609375 82.527344 C 67.265625 83.613281 68.609375 83.792969 70.429688 83.285156 C 73.921875 82.34375 75.628906 79.230469 75.628906 74.019531 C 75.628906 71.667969 75.738281 71.015625 76.140625 71.015625 C 76.683594 71.015625 76.792969 71.269531 77.265625 73.367188 C 77.59375 74.78125 77.957031 74.996094 80.285156 74.996094 C 84.179688 74.996094 85.449219 73.839844 87.667969 68.15625 C 88.980469 64.789062 89.050781 64.71875 89.414062 65.695312 C 89.632812 66.273438 89.816406 67.105469 89.816406 67.613281 C 89.816406 68.226562 90.105469 68.625 90.835938 68.878906 C 92.105469 69.386719 94.980469 69.0625 96.328125 68.265625 C 97.671875 67.46875 98.910156 65.296875 98.910156 63.703125 C 98.910156 62.292969 97.925781 61.605469 95.890625 61.605469 C 95.234375 61.605469 93.5625 61.277344 92.179688 60.878906 C 90.796875 60.480469 88.652344 60.15625 87.453125 60.15625 C 85.269531 60.15625 81.703125 60.878906 80.320312 61.640625 C 79.632812 62.003906 79.632812 62.003906 80.359375 63.050781 C 81.742188 64.96875 81.304688 65.152344 78.210938 63.921875 C 75.011719 62.617188 72.574219 64.101562 70.175781 68.808594 C 68.648438 71.847656 66.535156 73.984375 63.628906 75.503906 C 62.207031 76.265625 59.953125 77.820312 58.644531 79.015625 C 56.933594 80.5 55.808594 81.222656 54.898438 81.332031 C 52.789062 81.65625 51.84375 82.308594 51.480469 83.683594 C 50.714844 86.796875 53.371094 90.742188 57.078125 92.007812 C 59.480469 92.84375 60.789062 92.878906 63.007812 92.226562 Z M 41.695312 92.480469 C 45.367188 91.320312 47.621094 88.570312 47.621094 85.203125 C 47.621094 83.070312 47.042969 82.417969 44.785156 82.054688 C 43.550781 81.839844 42.710938 81.332031 40.566406 79.375 C 39.113281 78 36.929688 76.371094 35.691406 75.722656 C 32.820312 74.199219 30.929688 72.136719 29.109375 68.554688 C 26.597656 63.59375 24.597656 62.582031 20.488281 64.136719 C 19.433594 64.5 18.523438 64.71875 18.378906 64.609375 C 18.269531 64.5 18.597656 63.8125 19.105469 63.160156 C 19.617188 62.472656 19.980469 61.859375 19.941406 61.820312 C 18.050781 60.191406 11.105469 59.179688 8.59375 60.121094 C 8.085938 60.335938 6.304688 60.664062 4.628906 60.878906 C 2.992188 61.097656 1.394531 61.460938 1.175781 61.675781 C -0.0976562 62.726562 1.503906 66.671875 3.613281 67.792969 C 4.449219 68.265625 5.613281 68.480469 7.140625 68.480469 L 9.394531 68.480469 L 9.757812 67.140625 C 9.976562 66.382812 10.160156 65.441406 10.160156 65.042969 C 10.160156 63.882812 10.996094 65.117188 11.757812 67.394531 C 12.921875 70.835938 14.488281 73.441406 15.761719 74.019531 C 17.140625 74.707031 20.742188 75.140625 21.363281 74.707031 C 21.617188 74.5625 22.015625 73.695312 22.269531 72.789062 C 22.5625 71.847656 22.960938 71.195312 23.253906 71.195312 C 23.691406 71.195312 23.796875 71.882812 23.796875 74.636719 C 23.835938 79.449219 24.816406 81.546875 27.691406 82.996094 C 29.507812 83.9375 31.511719 83.867188 34.347656 82.78125 C 35.65625 82.308594 36.710938 82.019531 36.710938 82.164062 C 36.710938 82.308594 36.3125 83.03125 35.800781 83.757812 C 35.292969 84.480469 34.890625 85.167969 34.890625 85.242188 C 34.890625 85.347656 35.730469 85.710938 36.710938 86.074219 C 38.566406 86.726562 38.929688 87.160156 37.984375 87.519531 C 37.003906 87.917969 28.089844 84.769531 26.234375 83.394531 C 25.542969 82.925781 24.453125 81.621094 23.726562 80.535156 C 22.417969 78.507812 20.707031 77.167969 19.398438 77.167969 C 18.523438 77.167969 17.433594 78.253906 16.5625 79.992188 C 16.234375 80.609375 15.832031 81.152344 15.652344 81.152344 C 15.503906 81.152344 15.25 79.992188 15.105469 78.582031 C 14.851562 75.828125 14.34375 74.527344 12.996094 73.332031 C 11.175781 71.628906 6.738281 69.929688 4.195312 69.929688 C 2.847656 69.929688 2.8125 69.964844 3.066406 70.941406 C 3.429688 72.390625 4.230469 73.078125 6.304688 73.765625 C 11.578125 75.46875 13.976562 77.496094 10.085938 76.988281 C 7.832031 76.699219 5.429688 75.722656 3.683594 74.417969 C 3.03125 73.910156 2.375 73.550781 2.265625 73.65625 C 1.976562 73.949219 2.882812 76.445312 3.828125 77.964844 C 4.304688 78.726562 5.210938 79.59375 5.867188 79.917969 C 6.957031 80.5 7.03125 80.460938 7.613281 79.703125 C 8.195312 78.90625 8.230469 78.941406 9.578125 81.476562 C 11.175781 84.515625 12.488281 86.144531 13.761719 86.652344 C 15.398438 87.304688 17.578125 87.628906 18.960938 87.414062 C 20.089844 87.269531 20.34375 87.050781 20.523438 86.183594 C 20.851562 84.699219 21.179688 84.878906 21.871094 86.871094 C 23.144531 90.378906 25.980469 92.625 28.5625 92.152344 C 29.980469 91.902344 30.019531 91.757812 29.183594 90.234375 C 27.980469 88.171875 29.472656 88.460938 32.964844 90.960938 C 35.984375 93.09375 38.382812 93.53125 41.695312 92.480469 Z M 41.695312 92.480469 "
    />
    <path
      d="M 72.539062 98.996094 C 73.8125 98.523438 75.085938 97.621094 76.902344 95.808594 C 79.414062 93.386719 79.632812 93.238281 82.324219 92.660156 C 86.324219 91.757812 89.632812 90.054688 91.996094 87.664062 C 93.851562 85.785156 95.960938 82.417969 95.527344 82.019531 C 95.125 81.621094 92.871094 83.140625 90.214844 85.640625 C 87.050781 88.570312 85.996094 89.003906 81.414062 89.367188 L 78.46875 89.585938 L 77.230469 91.285156 C 76.574219 92.191406 75.558594 93.167969 75.011719 93.457031 C 74.285156 93.78125 71.484375 93.929688 65.265625 94.035156 C 55.550781 94.144531 54.714844 94 52.570312 91.683594 C 51.261719 90.308594 50.53125 90.234375 50.53125 91.464844 C 50.53125 93.347656 52.460938 94.652344 58.171875 96.644531 C 67.664062 99.9375 69.15625 100.152344 72.539062 98.996094 Z M 34.09375 99.03125 C 35.257812 98.707031 38.457031 97.691406 41.257812 96.789062 C 46.714844 95.015625 48.351562 93.964844 48.351562 92.226562 C 48.351562 90.921875 47.839844 90.816406 46.859375 91.863281 C 44.386719 94.472656 41.476562 95.195312 36.636719 94.363281 C 34.164062 93.929688 32.308594 93.820312 29.726562 94 C 27.398438 94.179688 25.800781 94.109375 24.925781 93.820312 C 23.761719 93.457031 21.761719 91.574219 20.851562 90.019531 C 20.5625 89.476562 19.871094 89.257812 17.761719 89.078125 C 13.179688 88.679688 12.125 88.246094 9.066406 85.347656 C 6.085938 82.488281 4.046875 80.933594 3.722656 81.296875 C 3.210938 81.765625 5.359375 85.386719 7.25 87.339844 C 9.503906 89.621094 13.214844 91.574219 17.140625 92.589844 C 19.433594 93.132812 19.761719 93.347656 21.617188 95.449219 C 25.109375 99.429688 28.890625 100.515625 34.09375 99.03125 Z M 76.175781 101.675781 C 78.941406 100.804688 81.523438 99.210938 83.851562 96.894531 C 85.125 95.59375 86.179688 94.398438 86.179688 94.179688 C 86.179688 93.636719 83.960938 93.746094 82.03125 94.398438 C 80.902344 94.796875 79.449219 95.773438 77.996094 97.113281 C 76.757812 98.273438 74.722656 99.71875 73.484375 100.335938 C 72.285156 100.949219 71.265625 101.601562 71.265625 101.78125 C 71.265625 102.289062 74.464844 102.21875 76.175781 101.675781 Z M 76.175781 101.675781 "
    />
    <path
      d="M 27.398438 101.820312 C 27.507812 101.675781 26.5625 100.984375 25.328125 100.335938 C 24.089844 99.683594 22.015625 98.164062 20.707031 96.894531 C 18.707031 94.976562 17.90625 94.507812 15.832031 93.855469 C 14.488281 93.421875 13.214844 93.09375 13.03125 93.09375 C 11.503906 93.09375 16.050781 98.234375 19.179688 100.046875 C 20.34375 100.695312 21.835938 101.421875 22.527344 101.636719 C 24.054688 102.144531 27.144531 102.253906 27.398438 101.820312 Z M 62.789062 107.320312 C 64.425781 106.707031 67.011719 105.910156 68.5 105.546875 C 70.027344 105.148438 71.265625 104.75 71.265625 104.640625 C 71.265625 104.171875 68.136719 103.953125 66.171875 104.28125 C 65.082031 104.460938 62.574219 105.113281 60.644531 105.765625 C 57.515625 106.742188 56.933594 106.851562 55.734375 106.488281 C 54.242188 106.019531 52.058594 104.496094 52.425781 104.136719 C 52.535156 104.027344 53.878906 104.171875 55.371094 104.496094 C 58.207031 105.078125 59.554688 104.96875 61.007812 104.097656 C 62.644531 103.050781 61.589844 100.625 58.933594 99.25 C 57.152344 98.34375 51.625 96.605469 51.371094 96.859375 C 51.261719 96.96875 51.296875 97.476562 51.40625 97.980469 C 51.695312 99.175781 53.480469 100.226562 56.023438 100.734375 C 57.152344 100.949219 58.28125 101.277344 58.570312 101.421875 C 59.554688 102.035156 58.5 102.253906 56.679688 101.855469 C 51.113281 100.550781 48.386719 102.613281 51.261719 105.910156 C 53.914062 108.878906 57.40625 109.3125 62.789062 107.320312 Z M 44.640625 108.296875 C 47.296875 107.101562 49.113281 104.605469 48.351562 103.230469 C 47.769531 102.144531 45.441406 101.675781 43.003906 102.144531 C 40.019531 102.6875 39.402344 102.652344 39.984375 101.964844 C 40.238281 101.675781 40.785156 101.421875 41.222656 101.421875 C 43.839844 101.421875 47.621094 99.355469 47.621094 97.945312 C 47.621094 97.1875 46.53125 97.332031 42.675781 98.597656 C 37.65625 100.226562 35.582031 102.46875 37.328125 104.390625 C 37.800781 104.933594 38.457031 105.039062 40.929688 105.039062 C 42.566406 105.039062 44.386719 104.859375 44.929688 104.679688 C 46.3125 104.136719 46.53125 104.605469 45.332031 105.621094 C 43.292969 107.355469 41.984375 107.394531 36.964844 105.765625 C 33.546875 104.679688 31.875 104.316406 30.054688 104.316406 C 28.746094 104.316406 27.582031 104.460938 27.472656 104.605469 C 27.363281 104.785156 28.128906 105.113281 29.183594 105.367188 C 30.238281 105.621094 32.964844 106.523438 35.257812 107.394531 C 40.019531 109.203125 42.203125 109.421875 44.640625 108.296875 Z M 44.640625 108.296875 "
    />
  </g>
</svg>
