<svg xmlns="http://www.w3.org/2000/svg" id="root" viewBox="2440.7 788.47 2749.3 3010.52">
  <path
    d="M2815 1515c48-30 122-235 85-235-43 0-90 52-144 158-21 41-24 56-16 77 11 28 31 28 75 0zM4910 1525c8-21 3-39-26-98-19-40-43-80-52-90-21-24-72-50-80-42-28 27 46 213 96 239 39 21 51 19 62-9z"
  />
  <path
    d="M2744 2079c22-6 75-32 119-57 65-38 87-46 126-45 27 0 58 6 71 13 29 15 40 1 40-55 0-30-9-54-36-94l-36-54 46 7c25 4 46 6 46 4s-9-29-20-61c-24-67-26-154-5-204 9-20 32-57 52-82 37-44 38-47 43-150 8-146 37-198 139-253l32-17-7-68c-4-37-10-72-14-76-12-13-46 9-150 96-52 44-125 99-161 123-36 23-69 49-72 58-9 23 7 20 53-9 51-32 51-19 0 33-46 46-51 81-19 113 21 21 47 22 117 3 33-9 28 19-8 49-21 18-48 28-87 33-32 3-70 13-84 20-54 27-85 140-59 209 6 15 26 46 45 69 38 47 42 56 22 56-8 0-44-34-81-75-64-71-70-75-109-75-44 0-77 20-95 55-29 60-21 186 14 212 10 7 42 13 72 13 53 0 122 23 122 41 0 12-8 11-108-3-83-12-85-12-103 11-10 12-21 38-25 57-9 46-24 39-39-19-22-88-40-76-40 27 0 96 9 106 94 106 36 0 84-5 105-11zM5067 2095c25-18 39-85 29-141-10-48-25-39-46 26l-17 55-12-30c-36-86-25-80-144-78-67 1-105-2-102-8 13-19 79-39 134-39 31 0 61-4 68-8 20-13 33-61 33-123 0-95-39-149-108-149-29 0-46 12-111 75-43 41-80 75-84 75-16 0-5-28 19-51 37-33 64-96 64-147 0-84-46-146-119-157-73-12-110-26-130-51-34-43-17-47 76-19 27 8 73-33 73-65 0-11-19-41-41-65-46-50-47-69-2-38 47 33 53 35 53 20 0-18-24-41-80-77-25-16-97-74-160-129-63-56-121-101-127-101-7 0-13 12-13 28 0 15-3 50-6 78l-7 52 55 35c79 50 102 101 104 230 2 75 6 104 21 126 72 114 77 126 81 186 4 57-1 79-43 179-8 18-5 19 39 13l48-7-17 27c-49 74-56 93-53 135 3 36 6 43 23 40 90-13 108-13 137-2 18 7 47 23 63 35 102 74 248 108 302 70z"
  />
  <path
    d="M4387 2114c105-65 137-170 81-264-15-25-52-70-82-100-31-30-56-60-56-68s3-12 8-10c4 2 29 14 55 26 27 13 58 22 70 20 20-3 22-10 25-66 4-86-29-146-120-219-72-57-83-73-44-66 56 11 109-94 87-169-14-46-53-77-143-114-72-29-73-30-59-67 12-31 6-39-54-69-73-36-95-51-95-65 0-35 65-18 146 37l59 40 3-29c5-48-15-71-93-106-79-36-87-38-160-36-46 2-53 6-83 43l-33 42 35 14c20 8 36 20 36 27 0 8-20 30-45 51-34 27-45 43-45 64 0 35 19 51 50 43 26-7 28-11-31 78-20 30-43 74-49 97-12 36-11 44 6 68 51 71 54 80 54 139 0 33-7 91-15 130-20 95-19 119 8 150 19 23 36 28 120 40 54 8 113 17 130 21 39 8 123 49 133 65 7 12 3 12-170-12-94-13-100-13-135 8-59 33-101 96-101 150 0 48 26 102 60 126 13 9 69 12 208 12l191-1zM3715 2125c39-40 52-98 35-149-13-41-87-112-126-122-24-6-182 9-241 23-16 4-23 1-23-10 0-31 149-76 260-78 66-1 112-21 133-57 18-30 18-36 3-124-9-50-16-111-16-136 0-45 25-112 42-112 5 0 15-14 22-32 17-41 7-80-45-164-21-36-39-69-39-74 0-13 17-13 25 0 12 19 35-10 35-43 0-24-11-41-47-76l-48-44 37-16c21-9 38-21 38-26 0-6-14-27-31-48-29-36-33-37-94-37-46 0-81 7-127 27-76 32-105 58-114 101-8 42 9 42 62 2 54-41 133-67 145-49 11 19-6 34-82 73-65 33-73 47-58 94 3 9-19 22-60 38-86 33-129 60-146 94-38 74 5 190 71 190 34 0 30 13-13 45-124 92-171 173-156 268 7 45 26 48 97 16 26-11 51-19 57-17 5 2-22 36-61 75-70 72-110 141-110 189 0 38 28 95 63 132 58 60 78 66 242 73 83 3 170 6 194 7 38 2 48-2 76-33z"
  />
  <path
    d="M3958 2976c15-8 50-39 79-70 41-44 62-58 106-71 54-15 55-17 148-148 154-217 153-215 299-242 52-9 117-21 143-26 84-16 161-11 235 16 97 35 120 33 176-16 40-36 46-46 46-80 0-45-37-122-77-157-22-20-32-22-82-16-44 5-68 1-111-15-30-12-56-21-57-21 0 0-4 23-8 50-4 28-11 50-15 50-5 0-18-15-29-34-32-51-113-122-155-136-58-19-106 0-181 70-35 33-74 62-87 64-13 3-93 7-178 9-129 3-164 8-212 26-97 38-146 116-134 214 3 28 10 55 15 60 8 8 39-1 134-38 39-16 12 13-62 68-48 36-86 72-95 92-20 42-38 213-30 277 10 77 67 108 132 74zM3773 2960c16-30 18-51 13-159-8-169-17-184-172-297-47-35-23-36 56-4 40 17 75 28 78 25 2-2 7-35 10-73 12-170-85-236-363-248-71-3-141-7-154-10s-51-31-85-63c-73-70-93-81-144-81-50 0-121 46-174 114-22 28-44 53-49 54-5 2-9-19-9-47s-4-51-8-51-33 9-64 20c-44 15-71 18-117 13-72-7-79-3-121 75-50 92-36 158 42 198 37 19 74 18 148-6 79-25 150-25 276 0 174 35 204 43 235 64 17 12 78 93 137 181 106 158 108 160 157 175 40 12 65 30 121 88 72 73 72 73 120 70 45-3 51-6 67-38z"
  />
  <path
    d="M4173 3336c25-8 74-32 108-55s68-41 75-41c19 0 18 20-2 49-22 31-7 44 52 43 40 0 52-6 85-38 22-21 52-64 67-96s30-58 34-58 8 15 10 33c3 31 4 32 58 35 30 2 70 0 88-3 46-9 106-66 153-147 39-66 59-84 59-53 0 21 29 19 66-4 31-19 66-78 84-140 10-34 8-34-45 5-44 32-100 53-162 61-50 5-55 4-51-13 3-19 77-54 155-74 50-13 83-44 83-78 0-24-1-25-65-20-48 4-85 16-142 44-94 47-120 85-130 188-3 36-10 66-14 66-5 0-17-17-28-37-56-111-106-105-203 25-22 29-54 62-71 72-43 27-282 102-310 98-36-5-25-22 26-37 53-16 57-29 26-73-12-16-19-32-15-35 3-3 27 3 53 15 73 30 110 35 160 21 96-26 143-112 143-256 0-65 3-83 14-83 15 0 18 7 31 65 9 39 19 45 83 45 107 0 142-32 203-189 36-93 38-95 48-68 6 16 11 39 11 53 0 17 8 28 28 35 35 14 114 5 151-17s71-82 71-126c0-39-27-58-83-58-18 0-64-9-102-20s-97-20-130-20c-60 0-158 20-196 41-19 10-19 10 1 39 38 53 26 58-59 24-88-36-155 5-221 135-42 84-100 143-180 185-39 21-101 64-137 97-47 41-78 61-103 64-58 9-84 27-94 65-21 86 52 195 154 230 66 23 102 24 163 6zM3587 3343c101-32 163-108 163-201 0-59-16-77-78-87-34-6-57-20-116-74-40-38-100-83-134-101-79-42-131-99-181-198-69-137-124-165-237-122-29 10-54 16-58 13-3-3 6-22 20-40 14-19 24-36 23-37-52-45-243-73-312-47-14 6-63 15-109 21-45 6-89 16-95 22-35 29 9 138 67 169 23 13 55 19 97 19h62l10-37c6-21 11-47 11-58 0-32 23 2 44 65 32 95 75 167 110 183 38 19 137 31 154 19 7-4 18-28 25-53 8-26 19-44 27-44 12 0 15 19 15 95 1 133 28 191 107 231 50 26 105 24 183-6 36-13 65-21 65-17s-11 24-25 44-25 39-25 41c0 3 23 13 50 23 51 18 61 30 35 40-27 11-272-76-323-114-19-13-49-49-69-79-36-56-83-93-119-93-24 0-54 30-78 78-9 17-20 32-25 32-4 0-11-32-15-71-7-76-21-112-58-145-50-47-172-94-242-94-37 0-38 1-31 28 10 40 32 59 89 78 145 47 211 103 104 89-62-8-128-35-176-71-18-14-36-24-39-21-8 8 17 77 43 119 13 21 38 45 56 54 30 16 32 15 48-6 16-22 17-21 54 49 44 84 80 129 115 143 45 18 105 27 143 21 31-4 38-10 43-34 9-41 18-36 37 19 35 97 113 159 184 146 39-7 40-11 17-53-33-57 8-49 104 20 83 59 149 71 240 42z"
  />
  <path
    d="M4435 3523c35-13 70-38 120-88 69-67 75-71 149-87 110-25 201-72 266-138 51-52 109-145 97-156-11-11-73 31-146 100-87 81-116 93-242 103l-81 6-34 47c-18 25-46 52-61 60-20 9-97 13-268 16-267 3-290-1-349-65-36-38-56-40-56-6 0 52 53 88 210 143 261 91 302 97 395 65zM3378 3524c32-9 120-37 197-62 150-49 195-78 195-126 0-36-14-39-41-10-68 72-148 92-281 69-68-12-119-15-190-10-64 5-108 3-132-5-32-10-87-62-112-105-8-15-27-21-85-26-126-11-155-23-239-103-82-79-138-122-147-112-14 13 45 113 97 167 62 63 164 117 272 145 63 15 72 21 123 79 96 110 200 140 343 99zM4535 3597c76-24 147-68 211-132 35-36 64-69 64-75 0-15-61-12-114 6-31 11-71 38-111 75-34 32-90 72-124 89-33 17-61 35-61 40 0 14 88 12 135-3z"
  />
  <path
    d="M3194 3601c3-4-23-23-57-41s-91-60-127-95c-55-53-77-66-134-84-37-12-72-21-77-21-42 0 83 142 169 192 32 18 73 38 92 44 42 14 127 17 134 5zM4167 3753c45-17 116-39 157-49 42-11 76-22 76-25 0-13-86-19-140-10-30 5-99 23-152 41-86 27-102 30-135 20-41-13-101-55-91-65 3-3 40 1 81 10 78 16 115 13 155-11 45-29 16-96-57-134-49-25-201-73-208-66-3 3-2 17 1 31 8 33 57 62 127 76 31 6 62 15 70 19 27 17-2 23-52 12-153-36-228 21-149 112 73 82 169 94 317 39zM3668 3780c73-33 123-102 102-140-16-30-80-43-147-30-82 15-99 14-83-5 7-8 22-15 34-15 72 0 176-57 176-96 0-21-30-17-136 18-138 45-195 107-147 160 13 15 31 18 99 18 45 0 95-5 110-10 38-15 44-2 11 26-56 48-92 49-230 4-94-30-140-40-190-40-36 0-68 4-71 8-3 5 18 14 47 21s104 32 167 56c131 50 191 56 258 25z"
  />
</svg>
