<svg id="root" xmlns="http://www.w3.org/2000/svg" width="768" height="441" viewBox="0 0 7680 4410">
  <path
    d="M3380 3785c-63-24-139-50-168-56l-54-13 4-38 4-38h-46c-98 0-207-57-299-156-54-58-61-69-61-107-1-41-2-43-62-77-103-59-188-176-188-260 0-22 5-40 10-40 6 0-2-23-17-51-31-60-44-159-22-159s19-100-4-123c-45-45-64-171-32-207 13-14 12-19-10-43-22-22-25-36-25-95 0-56 5-79 27-118 36-67 52-84 79-84 22 0 22-1 8-27-14-29-19-157-8-201 5-18 13-22 44-22 22 0 40 5 43 13 2 6 7 9 11 6 3-3 1-30-5-60-13-58-6-177 12-212 15-29 50-56 71-57 14 0 16-7 11-48-4-40-1-58 22-102 65-128 100-160 175-160 33 0 40-3 40-20 0-11-4-20-10-20-11 0-14-49-4-75 4-9 37-36 73-59 36-24 109-79 161-123 115-96 131-105 180-102 24 2 46-3 57-12 10-9 46-28 81-42 53-23 78-27 157-27h94l30 37c24 29 31 47 31 80 0 32-4 43-15 43-22 0-19 9 10 32 22 17 25 27 25 82 0 34-5 67-11 73-8 8-6 20 6 43l17 32 25-37c21-31 24-42 14-56-6-10-11-43-11-73 0-50 3-57 33-80 31-25 31-26 10-32-36-10-31-62 10-112 31-38 35-39 107-46 86-7 111-1 214 48 45 22 90 36 113 36 34 0 50 11 153 101 63 55 135 113 160 129 79 51 83 57 76 127l-5 63h35c71 0 106 31 159 140 32 63 36 81 32 120-5 44-4 47 23 57 16 6 38 26 50 44 19 30 20 46 17 139-2 58-8 116-12 130-6 21-5 23 6 13 7-7 30-13 51-13 35 0 38 2 44 36 9 47-1 173-14 186-8 8-2 17 20 32 17 12 43 44 59 71 23 41 28 62 29 120 0 64-2 71-32 102-27 27-29 33-15 39 27 10 24 128-4 174-12 19-28 39-35 43-9 5-14 26-14 57 0 40 3 50 16 50 25 0 12 88-25 161-16 32-25 59-20 59 17 0 9 73-13 118-31 63-122 152-185 182-51 24-52 26-53 68 0 39-6 48-64 107-93 92-201 145-298 145h-48v75l-76 19c-41 10-112 32-157 49-62 23-103 32-167 34-97 5-137-8-195-59l-36-31-29 32c-47 51-102 71-195 70-69-1-95-6-195-44zm57-221 15-24-48 15c-27 8-77 15-110 15h-62l-4 35-4 35 76 1c41 0 84 4 95 8 17 7 20 4 23-27 2-19 10-45 19-58zm849 70 84-7v-28c0-28-1-29-53-29-30 0-76-7-103-15-63-19-67-19-54 4 5 11 10 36 10 56 0 30 3 36 16 31 9-3 54-9 100-12zm-471-60c20-13 23-20 15-34-6-10-10-39-10-64 0-35 4-46 16-46s11-6-8-28l-23-29-17 28c-9 15-25 32-35 38-16 10-16 10 5 11 19 0 22 5 22 43 0 23-7 51-15 61-12 16-12 22-2 28 17 11 25 10 52-8zm-476-228c-2-2-14-9-26-15-19-10-23-9-23 4 0 10 9 15 27 15 14 0 24-2 22-4zm971-18c0-21 0-21-22-2-13 10-25 20-27 21-2 2 8 3 22 3 21 0 27-5 27-22zm-485-68c22 0 22-1 9-37-18-51-17-141 1-177 9-16 14-30 13-30-2-1-11-8-21-15-16-12-20-11-33 7-8 12-22 22-31 22-14 0-14 2 1 19 14 16 17 34 14 103-2 45-7 90-12 100-5 12-2 17 11 20 10 2 20 0 21-4 2-4 14-8 27-8zm905-356c0-9-10-14-27-14-25 0-26 1-8 20 19 21 35 18 35-6zm-1820-22c-27-4-34 2-26 24 6 15 8 15 27-2l21-19-22-3zm1680 13c0-1-9-5-20-8-12-3-20 0-20 8s8 11 20 8c11-3 20-7 20-8zm330-170c0-1-9-5-20-8-13-3-24 1-30 13-9 18-8 18 20 9 16-6 30-12 30-14zm-2174-11c-3-9-6-18-6-20 0-3-6 1-14 8-10 9-11 15-2 20 19 13 28 9 22-8zm1111-161c11-4 10-8-3-18-13-9-18-33-22-94-8-132 31-201 134-241l49-19-40-1c-82 0-125-60-125-171 0-63 4-80 26-112 14-21 46-51 70-66l44-28-47-6c-91-10-113-78-78-242 20-94 19-124-5-163l-20-33-30 32c-40 44-44 73-26 178 30 171 15 219-73 242l-50 13 27 17c68 42 102 100 102 173 0 71-11 106-45 142-29 30-38 34-86 34l-54 1 38 13c120 43 152 99 145 252-3 64-8 99-16 102-8 2-6 12 8 29 11 14 20 33 20 42 1 9 10-4 22-27 12-24 27-46 35-49zm-727-48c0-2-18-9-41-15-22-6-47-14-55-17-9-3-14 2-14 16 0 19 6 21 55 21 30 0 55-2 55-5zm1470-10c0-13-7-15-37-9-65 11-73 23-15 24 40 0 52-3 52-15zm230-370c0-8-15-22-32-31l-33-16 29 31c34 35 36 36 36 16zm-1989-31 24-27-27 18c-16 9-28 21-28 26 0 14 5 11 31-17zm167-81c-10-2-26-2-35 0-10 3-2 5 17 5s27-2 18-5zm166-238c16-24 16-25-4-25-15 0-20 7-20 25 0 14 2 25 4 25s11-11 20-25zm1316 0c0-19-5-25-20-25-20 0-20 1-3 25 22 30 23 30 23 0zm42-187c-9-30-10-27-10 32s1 62 10 33c8-23 8-43 0-65zm-1408 17c4-34 3-43-3-30-9 19-15 93-7 84 2-2 6-26 10-54zm131-218c-9-5-20-18-25-30-7-19-9-16-9 15-1 20-4 44-8 54-5 14 0 12 26-6 26-20 29-25 16-33zm1182 9-10-44-18 21c-18 22-18 22 9 44 15 13 28 23 28 23 1 0-3-20-9-44zm-1457-48c-8-7-21-19-27-27-11-12-13-10-13 12 0 23 4 27 27 27s25-2 13-12zm1730-4c0-14-3-15-17-3-10 7-20 15-22 16-2 2 5 3 17 3 14 0 22-6 22-16zm-1290-330c0-15-6-24-15-24-10 0-15 10-15 30 0 22 4 28 15 24 8-4 15-17 15-30zm860 1c0-16-6-25-15-25s-15 9-15 25 6 25 15 25 15-9 15-25z" />
  <path
    d="M0 2205V0h7680v4410H0V2205zm3668 1575c73-33 123-102 102-140-16-30-80-43-147-30-82 15-99 14-83-5 7-8 22-15 34-15 72 0 176-57 176-96 0-21-30-17-136 18-138 45-195 107-147 160 13 15 31 18 99 18 45 0 95-5 110-10 38-15 44-2 11 26-56 48-92 49-230 4-94-30-140-40-190-40-36 0-68 4-71 8-3 5 18 14 47 21s104 32 167 56c131 50 191 56 258 25zm499-27c45-17 116-39 157-49 42-11 76-22 76-25 0-13-86-19-140-10-30 5-99 23-152 41-86 27-102 30-135 20-41-13-101-55-91-65 3-3 40 1 81 10 78 16 115 13 155-11 45-29 16-96-57-134-49-25-201-73-208-66-3 3-2 17 1 31 8 33 57 62 127 76 31 6 62 15 70 19 27 17-2 23-52 12-153-36-228 21-149 112 73 82 169 94 317 39zm-973-152c3-4-23-23-57-41s-91-60-127-95c-55-53-77-66-134-84-37-12-72-21-77-21-42 0 83 142 169 192 32 18 73 38 92 44 42 14 127 17 134 5zm1341-4c76-24 147-68 211-132 35-36 64-69 64-75 0-15-61-12-114 6-31 11-71 38-111 75-34 32-90 72-124 89-33 17-61 35-61 40 0 14 88 12 135-3zm-1157-73c32-9 120-37 197-62 150-49 195-78 195-126 0-36-14-39-41-10-68 72-148 92-281 69-68-12-119-15-190-10-64 5-108 3-132-5-32-10-87-62-112-105-8-15-27-21-85-26-126-11-155-23-239-103-82-79-138-122-147-112-14 13 45 113 97 167 62 63 164 117 272 145 63 15 72 21 123 79 96 110 200 140 343 99zm1057-1c35-13 70-38 120-88 69-67 75-71 149-87 110-25 201-72 266-138 51-52 109-145 97-156-11-11-73 31-146 100-87 81-116 93-242 103l-81 6-34 47c-18 25-46 52-61 60-20 9-97 13-268 16-267 3-290-1-349-65-36-38-56-40-56-6 0 52 53 88 210 143 261 91 302 97 395 65zm-848-180c101-32 163-108 163-201 0-59-16-77-78-87-34-6-57-20-116-74-40-38-100-83-134-101-79-42-131-99-181-198-69-137-124-165-237-122-29 10-54 16-58 13-3-3 6-22 20-40 14-19 24-36 23-37-52-45-243-73-312-47-14 6-63 15-109 21-45 6-89 16-95 22-35 29 9 138 67 169 23 13 55 19 97 19h62l10-37c6-21 11-47 11-58 0-32 23 2 44 65 32 95 75 167 110 183 38 19 137 31 154 19 7-4 18-28 25-53 8-26 19-44 27-44 12 0 15 19 15 95 1 133 28 191 107 231 50 26 105 24 183-6 36-13 65-21 65-17s-11 24-25 44-25 39-25 41c0 3 23 13 50 23 51 18 61 30 35 40-27 11-272-76-323-114-19-13-49-49-69-79-36-56-83-93-119-93-24 0-54 30-78 78-9 17-20 32-25 32-4 0-11-32-15-71-7-76-21-112-58-145-50-47-172-94-242-94-37 0-38 1-31 28 10 40 32 59 89 78 145 47 211 103 104 89-62-8-128-35-176-71-18-14-36-24-39-21-8 8 17 77 43 119 13 21 38 45 56 54 30 16 32 15 48-6 16-22 17-21 54 49 44 84 80 129 115 143 45 18 105 27 143 21 31-4 38-10 43-34 9-41 18-36 37 19 35 97 113 159 184 146 39-7 40-11 17-53-33-57 8-49 104 20 83 59 149 71 240 42zm586-7c25-8 74-32 108-55s68-41 75-41c19 0 18 20-2 49-22 31-7 44 52 43 40 0 52-6 85-38 22-21 52-64 67-96s30-58 34-58 8 15 10 33c3 31 4 32 58 35 30 2 70 0 88-3 46-9 106-66 153-147 39-66 59-84 59-53 0 21 29 19 66-4 31-19 66-78 84-140 10-34 8-34-45 5-44 32-100 53-162 61-50 5-55 4-51-13 3-19 77-54 155-74 50-13 83-44 83-78 0-24-1-25-65-20-48 4-85 16-142 44-94 47-120 85-130 188-3 36-10 66-14 66-5 0-17-17-28-37-56-111-106-105-203 25-22 29-54 62-71 72-43 27-282 102-310 98-36-5-25-22 26-37 53-16 57-29 26-73-12-16-19-32-15-35 3-3 27 3 53 15 73 30 110 35 160 21 96-26 143-112 143-256 0-65 3-83 14-83 15 0 18 7 31 65 9 39 19 45 83 45 107 0 142-32 203-189 36-93 38-95 48-68 6 16 11 39 11 53 0 17 8 28 28 35 35 14 114 5 151-17s71-82 71-126c0-39-27-58-83-58-18 0-64-9-102-20s-97-20-130-20c-60 0-158 20-196 41-19 10-19 10 1 39 38 53 26 58-59 24-88-36-155 5-221 135-42 84-100 143-180 185-39 21-101 64-137 97-47 41-78 61-103 64-58 9-84 27-94 65-21 86 52 195 154 230 66 23 102 24 163 6zm-400-376c16-30 18-51 13-159-8-169-17-184-172-297-47-35-23-36 56-4 40 17 75 28 78 25 2-2 7-35 10-73 12-170-85-236-363-248-71-3-141-7-154-10s-51-31-85-63c-73-70-93-81-144-81-50 0-121 46-174 114-22 28-44 53-49 54-5 2-9-19-9-47s-4-51-8-51-33 9-64 20c-44 15-71 18-117 13-72-7-79-3-121 75-50 92-36 158 42 198 37 19 74 18 148-6 79-25 150-25 276 0 174 35 204 43 235 64 17 12 78 93 137 181 106 158 108 160 157 175 40 12 65 30 121 88 72 73 72 73 120 70 45-3 51-6 67-38zm185 16c15-8 50-39 79-70 41-44 62-58 106-71 54-15 55-17 148-148 154-217 153-215 299-242 52-9 117-21 143-26 84-16 161-11 235 16 97 35 120 33 176-16 40-36 46-46 46-80 0-45-37-122-77-157-22-20-32-22-82-16-44 5-68 1-111-15-30-12-56-21-57-21 0 0-4 23-8 50-4 28-11 50-15 50-5 0-18-15-29-34-32-51-113-122-155-136-58-19-106 0-181 70-35 33-74 62-87 64-13 3-93 7-178 9-129 3-164 8-212 26-97 38-146 116-134 214 3 28 10 55 15 60 8 8 39-1 134-38 39-16 12 13-62 68-48 36-86 72-95 92-20 42-38 213-30 277 10 77 67 108 132 74zm-243-851c39-40 52-98 35-149-13-41-87-112-126-122-24-6-182 9-241 23-16 4-23 1-23-10 0-31 149-76 260-78 66-1 112-21 133-57 18-30 18-36 3-124-9-50-16-111-16-136 0-45 25-112 42-112 5 0 15-14 22-32 17-41 7-80-45-164-21-36-39-69-39-74 0-13 17-13 25 0 12 19 35-10 35-43 0-24-11-41-47-76l-48-44 37-16c21-9 38-21 38-26 0-6-14-27-31-48-29-36-33-37-94-37-46 0-81 7-127 27-76 32-105 58-114 101-8 42 9 42 62 2 54-41 133-67 145-49 11 19-6 34-82 73-65 33-73 47-58 94 3 9-19 22-60 38-86 33-129 60-146 94-38 74 5 190 71 190 34 0 30 13-13 45-124 92-171 173-156 268 7 45 26 48 97 16 26-11 51-19 57-17 5 2-22 36-61 75-70 72-110 141-110 189 0 38 28 95 63 132 58 60 78 66 242 73 83 3 170 6 194 7 38 2 48-2 76-33zm672-11c105-65 137-170 81-264-15-25-52-70-82-100-31-30-56-60-56-68s3-12 8-10c4 2 29 14 55 26 27 13 58 22 70 20 20-3 22-10 25-66 4-86-29-146-120-219-72-57-83-73-44-66 56 11 109-94 87-169-14-46-53-77-143-114-72-29-73-30-59-67 12-31 6-39-54-69-73-36-95-51-95-65 0-35 65-18 146 37l59 40 3-29c5-48-15-71-93-106-79-36-87-38-160-36-46 2-53 6-83 43l-33 42 35 14c20 8 36 20 36 27 0 8-20 30-45 51-34 27-45 43-45 64 0 35 19 51 50 43 26-7 28-11-31 78-20 30-43 74-49 97-12 36-11 44 6 68 51 71 54 80 54 139 0 33-7 91-15 130-20 95-19 119 8 150 19 23 36 28 120 40 54 8 113 17 130 21 39 8 123 49 133 65 7 12 3 12-170-12-94-13-100-13-135 8-59 33-101 96-101 150 0 48 26 102 60 126 13 9 69 12 208 12l191-1 48-30zm680-19c25-18 39-85 29-141-10-48-25-39-46 26l-17 55-12-30c-36-86-25-80-144-78-67 1-105-2-102-8 13-19 79-39 134-39 31 0 61-4 68-8 20-13 33-61 33-123 0-95-39-149-108-149-29 0-46 12-111 75-43 41-80 75-84 75-16 0-5-28 19-51 37-33 64-96 64-147 0-84-46-146-119-157-73-12-110-26-130-51-34-43-17-47 76-19 27 8 73-33 73-65 0-11-19-41-41-65-46-50-47-69-2-38 47 33 53 35 53 20 0-18-24-41-80-77-25-16-97-74-160-129-63-56-121-101-127-101-7 0-13 12-13 28 0 15-3 50-6 78l-7 52 55 35c79 50 102 101 104 230 2 75 6 104 21 126 72 114 77 126 81 186 4 57-1 79-43 179-8 18-5 19 39 13l48-7-17 27c-49 74-56 93-53 135 3 36 6 43 23 40 90-13 108-13 137-2 18 7 47 23 63 35 102 74 248 108 302 70zm-2323-16c22-6 75-32 119-57 65-38 87-46 126-45 27 0 58 6 71 13 29 15 40 1 40-55 0-30-9-54-36-94l-36-54 46 7c25 4 46 6 46 4s-9-29-20-61c-24-67-26-154-5-204 9-20 32-57 52-82 37-44 38-47 43-150 8-146 37-198 139-253l32-17-7-68c-4-37-10-72-14-76-12-13-46 9-150 96-52 44-125 99-161 123-36 23-69 49-72 58-9 23 7 20 53-9 51-32 51-19 0 33-46 46-51 81-19 113 21 21 47 22 117 3 33-9 28 19-8 49-21 18-48 28-87 33-32 3-70 13-84 20-54 27-85 140-59 209 6 15 26 46 45 69 38 47 42 56 22 56-8 0-44-34-81-75-64-71-70-75-109-75-44 0-77 20-95 55-29 60-21 186 14 212 10 7 42 13 72 13 53 0 122 23 122 41 0 12-8 11-108-3-83-12-85-12-103 11-10 12-21 38-25 57-9 46-24 39-39-19-22-88-40-76-40 27 0 96 9 106 94 106 36 0 84-5 105-11zm2166-554c8-21 3-39-26-98-19-40-43-80-52-90-21-24-72-50-80-42-28 27 46 213 96 239 39 21 51 19 62-9zm-2095-10c48-30 122-235 85-235-43 0-90 52-144 158-21 41-24 56-16 77 11 28 31 28 75 0z"
    fill="#FFF" />
</svg>