<svg xmlns="http://www.w3.org/2000/svg" id="root" viewBox="0 0 99 93">
  <g>
    <path
      d="M 53.820312 90.746094 L 53.820312 88.492188 L 65.613281 88.492188 C 72.101562 88.492188 80.179688 88.574219 83.546875 88.683594 L 89.65625 88.847656 L 89.578125 90.882812 L 89.496094 92.890625 L 71.671875 92.945312 L 53.820312 93 Z M 0.160156 91.289062 C -0.0820312 91.074219 -0.0273438 87.488281 0.1875 86.648438 L 0.375 86.050781 L 17.070312 85.996094 L 42.378906 85.996094 L 50.996094 86.050781 L 50.96875 88.710938 L 50.941406 91.34375 L 25.632812 91.425781 C 11.710938 91.453125 0.242188 91.398438 0.160156 91.289062 Z M 53.820312 85.671875 L 53.820312 84.773438 L 55.921875 84.613281 C 58.667969 84.367188 84.839844 84.367188 87.53125 84.585938 C 89.578125 84.773438 89.628906 84.773438 89.628906 85.507812 L 89.628906 86.242188 L 80.960938 86.402344 C 76.167969 86.511719 68.117188 86.59375 63.054688 86.59375 L 53.820312 86.59375 Z M 5.546875 82.792969 C 5.519531 82.710938 5.519531 76.222656 5.574219 68.324219 L 5.652344 53.992188 L 7.457031 54.210938 C 8.453125 54.34375 12.4375 54.425781 16.34375 54.425781 L 23.425781 54.425781 L 23.34375 68.679688 L 23.261719 82.929688 L 14.429688 82.929688 C 9.558594 82.929688 5.546875 82.875 5.546875 82.792969 Z M 18.792969 80.324219 C 19.144531 79.671875 19.144531 79.535156 18.738281 78.882812 C 18.390625 78.367188 18.039062 78.179688 17.394531 78.179688 C 16.34375 78.179688 15.859375 78.585938 15.859375 79.507812 C 15.859375 81.164062 17.984375 81.761719 18.792969 80.324219 Z M 24.664062 82.902344 C 24.554688 82.792969 24.472656 68.242188 24.472656 50.570312 L 24.472656 18.457031 L 28.996094 18.457031 C 31.472656 18.457031 37.558594 18.539062 42.511719 18.648438 L 51.53125 18.8125 L 51.398438 29.152344 L 51.261719 39.496094 L 49.566406 41.125 C 47.699219 42.808594 46.179688 44.847656 45.097656 47.125 C 42.675781 52.09375 41.4375 57.464844 41.4375 63.058594 C 41.4375 69.113281 42.648438 73.292969 45.582031 77.28125 C 46.765625 78.9375 49.566406 81.492188 50.777344 82.058594 C 52.503906 82.847656 51.34375 82.929688 38.125 83.011719 C 30.828125 83.039062 24.769531 83.011719 24.664062 82.902344 Z M 30.667969 80.269531 C 31.179688 79.371094 30.695312 78.261719 29.699219 78.015625 C 27.8125 77.527344 26.789062 80.1875 28.511719 81.082031 C 29.292969 81.492188 30.15625 81.164062 30.667969 80.269531 Z M 30.640625 22.503906 C 30.988281 21.851562 30.988281 21.714844 30.585938 21.066406 C 30.234375 20.550781 29.886719 20.359375 29.238281 20.359375 C 28.164062 20.359375 27.703125 20.765625 27.703125 21.742188 C 27.703125 23.398438 29.832031 23.941406 30.640625 22.503906 Z M 30.640625 22.503906 "
    />
    <path
      d="M 53.148438 80.1875 C 48.878906 77.703125 45.832031 73.527344 44.746094 68.679688 C 43.105469 61.023438 45.796875 49.484375 50.429688 44.328125 C 53.039062 41.421875 57.484375 38.4375 58.238281 39.0625 C 58.453125 39.253906 61.0625 39.441406 64.589844 39.550781 L 70.59375 39.714844 L 70.40625 60.371094 L 70.164062 81.054688 L 62.707031 81.273438 L 55.300781 81.464844 Z M 66.207031 80.078125 C 66.503906 79.914062 66.851562 79.535156 67.015625 79.238281 C 67.417969 78.476562 66.71875 77.363281 65.800781 77.363281 C 64.402344 77.363281 63.785156 79.128906 64.914062 79.914062 C 65.640625 80.433594 65.558594 80.433594 66.207031 80.078125 Z M 67.230469 44.628906 C 68.332031 43.839844 67.847656 42.347656 66.476562 42.347656 C 65.613281 42.347656 65.128906 42.808594 65.128906 43.59375 C 65.128906 44.136719 65.992188 45.0625 66.476562 45.0625 C 66.554688 45.0625 66.90625 44.871094 67.230469 44.628906 Z M 77.324219 81.246094 L 72.9375 81.164062 L 72.9375 67.101562 C 72.9375 59.394531 72.855469 50.054688 72.75 46.390625 L 72.585938 39.714844 L 78.566406 39.550781 C 81.875 39.441406 84.757812 39.253906 85 39.117188 C 86.023438 38.519531 90.949219 41.886719 93.320312 44.789062 C 95.6875 47.695312 97.789062 52.933594 98.675781 58.253906 C 99.214844 61.402344 99.082031 67.078125 98.40625 69.492188 C 97.164062 73.988281 94.226562 77.816406 90.222656 80.160156 L 88.070312 81.4375 L 84.890625 81.382812 Z M 78.539062 79.914062 C 79.238281 79.425781 79.292969 78.558594 78.671875 77.851562 C 77.570312 76.632812 75.46875 78.070312 76.382812 79.425781 C 76.570312 79.726562 77.515625 80.324219 77.785156 80.351562 C 77.863281 80.351562 78.214844 80.160156 78.539062 79.914062 Z M 77.972656 44.273438 C 78.375 43.730469 78.402344 43.542969 78.054688 42.863281 C 77.730469 42.265625 76.464844 42.15625 75.953125 42.671875 C 75.46875 43.160156 75.550781 44.4375 76.113281 44.761719 C 76.679688 45.089844 77.515625 44.871094 77.972656 44.273438 Z M 11.820312 53.3125 C 10.851562 53.257812 9.074219 53.070312 7.863281 52.90625 L 5.628906 52.609375 L 5.574219 35.722656 L 5.492188 18.839844 L 14.457031 18.648438 L 23.398438 18.457031 L 23.398438 52.878906 L 22.5625 53.042969 C 21.484375 53.257812 14.082031 53.449219 11.820312 53.3125 Z M 19.117188 23.074219 C 19.464844 22.882812 19.628906 22.503906 19.628906 21.851562 C 19.628906 20.847656 19.089844 20.359375 17.957031 20.359375 C 17.097656 20.359375 16.667969 20.847656 16.667969 21.742188 C 16.667969 23.074219 17.878906 23.726562 19.117188 23.074219 Z M 59.476562 35.179688 L 59.476562 33.46875 L 71.589844 33.46875 C 78.269531 33.46875 83.761719 33.550781 83.816406 33.632812 C 83.867188 33.714844 83.839844 34.5 83.789062 35.371094 L 83.652344 36.917969 L 59.476562 36.917969 Z M 68.46875 31.027344 C 67.121094 30.945312 66.773438 30.835938 66.664062 30.402344 C 66.582031 30.132812 66.609375 29.832031 66.691406 29.75 C 66.773438 29.667969 69.058594 29.589844 71.78125 29.589844 L 76.707031 29.589844 L 76.707031 30.265625 C 76.707031 30.863281 76.597656 30.945312 75.816406 30.945312 L 72.507812 31.054688 C 71.1875 31.109375 69.355469 31.109375 68.46875 31.027344 Z M 69.949219 16.097656 C 69.921875 10.152344 69.949219 5.183594 69.976562 5.023438 C 70.300781 3.71875 70.300781 3.421875 69.839844 3.066406 C 69.4375 2.769531 65.800781 2.714844 50.1875 2.714844 C 31.257812 2.714844 31.015625 2.714844 30.53125 3.257812 C 30.101562 3.746094 30.074219 3.9375 30.34375 4.722656 C 30.53125 5.210938 30.667969 7.003906 30.667969 8.769531 L 30.667969 11.945312 L 26.359375 11.945312 L 26.359375 0 L 74.285156 0 L 74.285156 26.875 L 69.976562 26.875 Z M 69.949219 16.097656 "
    />
    <path
      d="M 22.160156 15.960938 C 22.078125 15.851562 21.78125 15.746094 21.484375 15.746094 C 20.945312 15.746094 20.839844 15.308594 21.214844 14.710938 C 21.40625 14.414062 22.886719 14.332031 28.511719 14.359375 C 32.417969 14.386719 35.621094 14.414062 35.675781 14.46875 L 35.835938 15.066406 C 35.917969 15.527344 35.703125 15.609375 34.328125 15.796875 C 32.09375 16.097656 22.320312 16.207031 22.160156 15.960938 Z M 22.160156 15.960938 "
    />
  </g>
</svg>
