<svg xmlns="http://www.w3.org/2000/svg" id="root" viewBox="0 0 100 68">
  <g>
    <path
      d="M 97.125 67.863281 C 97.125 67.777344 96.957031 66.992188 96.75 66.121094 C 96.390625 64.570312 96.390625 64.527344 96.542969 64.011719 C 96.679688 63.574219 96.699219 63.214844 96.648438 62.09375 C 96.585938 60.875 96.542969 60.667969 96.328125 60.34375 C 96.027344 59.890625 96.027344 59.714844 96.359375 59.320312 C 96.597656 59.039062 96.605469 58.988281 96.472656 58.773438 C 96.390625 58.636719 96.191406 58.003906 96.039062 57.351562 C 95.839844 56.546875 95.675781 56.109375 95.53125 55.976562 C 94.878906 55.375 94.320312 54.785156 94.277344 54.628906 C 94.238281 54.539062 94.289062 54.320312 94.371094 54.144531 C 94.527344 53.855469 94.527344 53.8125 94.308594 53.449219 L 94.082031 53.066406 L 94.445312 52.746094 C 94.785156 52.445312 94.804688 52.382812 94.828125 51.699219 C 94.867188 50.46875 95.136719 49.621094 96.160156 47.558594 C 96.554688 46.75 96.742188 46.214844 97.070312 44.824219 C 97.195312 44.328125 97.332031 44.050781 97.628906 43.726562 C 98.675781 42.601562 98.757812 42.113281 98.582031 38.480469 C 98.449219 35.757812 98.355469 35.28125 97.722656 34.171875 C 97.464844 33.714844 97.070312 32.589844 97.15625 32.546875 C 97.164062 32.535156 97.390625 32.433594 97.652344 32.320312 C 97.910156 32.195312 98.179688 32.027344 98.242188 31.945312 C 98.355469 31.8125 98.882812 29.9375 99.253906 28.300781 C 99.347656 27.910156 99.460938 27.535156 99.511719 27.472656 C 99.5625 27.421875 99.605469 27.265625 99.605469 27.132812 C 99.605469 26.988281 99.710938 26.542969 99.824219 26.136719 C 100.039062 25.421875 100.039062 25.339844 99.917969 23.539062 C 99.84375 22.515625 99.792969 21.023438 99.792969 20.226562 C 99.800781 19.429688 99.75 18.570312 99.6875 18.3125 C 99.554688 17.773438 99.109375 16.976562 98.882812 16.851562 C 98.300781 16.550781 97.484375 16.230469 96.894531 16.085938 C 96.421875 15.960938 96.183594 15.847656 96.140625 15.722656 C 95.984375 15.226562 95.097656 14.789062 94.246094 14.789062 C 93.84375 14.789062 93.792969 14.761719 93.636719 14.429688 C 93.410156 13.960938 93.554688 13.632812 94.101562 13.351562 C 94.941406 12.925781 95.273438 12.171875 95.105469 11.085938 C 95.074219 10.816406 95.035156 10.007812 95.023438 9.292969 C 95.003906 8.070312 94.980469 7.949219 94.691406 7.355469 C 94.527344 7.003906 94.320312 6.714844 94.246094 6.714844 C 94.175781 6.714844 93.957031 6.601562 93.78125 6.46875 C 92.839844 5.742188 91.835938 5.609375 89.429688 5.867188 C 88.125 6 87.742188 6.175781 87.089844 6.871094 C 86.957031 7.015625 86.6875 7.234375 86.5 7.347656 C 86.109375 7.59375 86.078125 7.824219 86.367188 8.195312 C 86.480469 8.339844 86.574219 8.484375 86.574219 8.527344 C 86.574219 8.570312 86.667969 8.734375 86.78125 8.890625 C 86.976562 9.160156 86.976562 9.230469 86.863281 9.945312 C 86.800781 10.359375 86.75 11.28125 86.769531 11.996094 C 86.789062 13.09375 86.769531 13.320312 86.636719 13.433594 C 86.398438 13.632812 86.429688 13.902344 86.726562 14.253906 C 86.988281 14.5625 87.617188 14.789062 88.226562 14.789062 C 88.609375 14.789062 88.632812 14.84375 88.671875 15.835938 L 88.703125 16.625 L 88.3125 16.921875 C 88.09375 17.078125 87.886719 17.328125 87.855469 17.453125 C 87.792969 17.699219 87.546875 17.773438 87.484375 17.566406 C 87.453125 17.472656 87.339844 17.492188 87.058594 17.617188 C 86.851562 17.722656 86.675781 17.84375 86.675781 17.886719 C 86.675781 17.988281 86.160156 18.125 85.570312 18.167969 C 85.269531 18.1875 85.125 18.15625 85.082031 18.042969 C 85.042969 17.949219 84.867188 17.898438 84.515625 17.898438 C 83.914062 17.898438 83.675781 17.96875 83.675781 18.15625 C 83.675781 18.226562 83.613281 18.3125 83.554688 18.34375 C 83.449219 18.375 83.449219 18.433594 83.554688 18.621094 C 83.675781 18.828125 83.667969 18.878906 83.355469 19.203125 C 83.035156 19.53125 83.023438 19.5625 83.191406 19.738281 C 83.347656 19.914062 83.347656 19.945312 83.191406 20.164062 C 83.054688 20.359375 83.054688 20.421875 83.171875 20.496094 C 83.285156 20.566406 83.292969 20.621094 83.191406 20.785156 C 82.964844 21.15625 83.128906 21.3125 83.730469 21.3125 C 84.039062 21.3125 84.308594 21.34375 84.339844 21.394531 C 84.359375 21.4375 84.246094 21.871094 84.070312 22.347656 C 83.90625 22.835938 83.675781 23.582031 83.574219 24.003906 C 83.253906 25.332031 83.199219 25.382812 82.871094 24.65625 C 82.632812 24.128906 81.785156 23.175781 81.566406 23.175781 C 81.339844 23.175781 81.195312 23.414062 81.195312 23.820312 C 81.195312 24.035156 81.164062 24.210938 81.121094 24.210938 C 80.945312 24.210938 80.378906 23.796875 80.203125 23.539062 C 79.734375 22.867188 79.476562 22.648438 79.105469 22.585938 L 78.710938 22.523438 L 78.710938 23.488281 C 78.710938 25.03125 79.03125 25.785156 80.203125 26.945312 C 80.945312 27.679688 81.007812 27.785156 80.894531 27.96875 C 80.261719 28.976562 80.160156 29.441406 80.160156 31.285156 L 80.160156 32.785156 L 80.730469 33.003906 C 81.039062 33.117188 81.554688 33.3125 81.867188 33.4375 C 82.175781 33.5625 82.464844 33.632812 82.519531 33.613281 C 82.558594 33.601562 83.097656 33.300781 83.707031 32.972656 C 84.585938 32.484375 84.835938 32.296875 84.875 32.089844 C 85.1875 30.609375 85.601562 29.492188 85.859375 29.492188 C 86.097656 29.492188 86.066406 30.125 85.746094 31.5 C 85.136719 34.140625 85.136719 33.820312 85.796875 34.722656 C 86.285156 35.375 86.398438 35.613281 86.480469 36.148438 C 86.550781 36.585938 86.550781 36.90625 86.480469 37.152344 C 86.417969 37.351562 86.285156 37.867188 86.167969 38.292969 C 86.054688 38.71875 85.683594 39.660156 85.34375 40.382812 C 84.992188 41.109375 84.710938 41.773438 84.710938 41.84375 C 84.710938 41.917969 84.667969 42.019531 84.617188 42.082031 C 84.472656 42.246094 83.582031 44.566406 82.996094 46.347656 C 82.683594 47.300781 82.382812 48.167969 82.332031 48.285156 C 82.09375 48.820312 81.691406 50.21875 81.578125 50.921875 C 81.554688 51.070312 81.378906 51.835938 81.195312 52.632812 C 80.882812 53.976562 80.863281 54.175781 80.914062 55.375 C 80.96875 56.472656 81.246094 58.410156 81.585938 60.085938 C 81.640625 60.3125 81.898438 60.84375 82.15625 61.257812 C 82.570312 61.886719 82.640625 62.085938 82.640625 62.519531 C 82.640625 62.820312 82.847656 63.773438 83.160156 64.859375 C 83.449219 65.863281 83.675781 66.816406 83.675781 66.972656 C 83.675781 67.136719 83.71875 67.386719 83.78125 67.53125 L 83.882812 67.800781 L 86.417969 67.800781 C 88.929688 67.800781 88.953125 67.800781 88.953125 67.582031 C 88.953125 67.457031 88.910156 67.1875 88.847656 66.980469 C 88.796875 66.773438 88.558594 65.75 88.320312 64.703125 C 87.898438 62.839844 87.898438 62.789062 88.050781 62.324219 C 88.136719 62.0625 88.238281 61.597656 88.28125 61.296875 C 88.34375 60.769531 88.3125 60.699219 87.867188 59.921875 C 87.597656 59.476562 87.347656 59.101562 87.296875 59.101562 C 87.253906 59.101562 87.089844 58.855469 86.925781 58.542969 C 86.65625 58.027344 86.644531 57.972656 86.800781 57.734375 C 86.957031 57.507812 86.945312 57.457031 86.769531 57.085938 C 86.519531 56.585938 86.519531 56.566406 86.789062 56.183594 C 86.964844 55.945312 86.996094 55.78125 86.957031 55.449219 C 86.851562 54.722656 87.378906 52.984375 87.9375 52.167969 C 88.195312 51.792969 88.609375 51.140625 88.859375 50.714844 L 89.3125 49.941406 L 89.386719 50.820312 C 89.417969 51.308594 89.449219 52.21875 89.457031 52.859375 C 89.46875 53.53125 89.550781 54.433594 89.664062 55.035156 C 89.78125 55.59375 89.902344 56.277344 89.933594 56.546875 C 89.996094 56.929688 90.140625 57.207031 90.574219 57.765625 C 91.113281 58.460938 91.132812 58.523438 91.125 59.082031 C 91.113281 59.546875 91.1875 59.847656 91.464844 60.511719 C 91.671875 60.988281 91.878906 61.710938 91.953125 62.167969 C 92.066406 62.921875 92.355469 64.082031 92.582031 64.695312 C 92.71875 65.066406 92.882812 66.296875 92.882812 66.980469 C 92.882812 67.625 93.015625 67.863281 93.398438 67.933594 C 93.542969 67.953125 94.433594 67.984375 95.394531 67.996094 C 96.832031 68.007812 97.125 67.984375 97.125 67.863281 Z M 97.125 67.863281 "
    />
    <path
      d="M 39.820312 61.390625 C 39.675781 61.339844 39.292969 61.226562 38.972656 61.132812 C 38.3125 60.933594 38.1875 60.789062 38.125 60.136719 C 38.082031 59.621094 38.050781 59.589844 37.347656 59.320312 C 36.839844 59.132812 36.757812 59.125 36.613281 59.257812 C 36.355469 59.496094 35.726562 59.445312 34.648438 59.101562 C 34.109375 58.9375 33.542969 58.792969 33.386719 58.792969 C 32.816406 58.792969 32.445312 57.984375 32.695312 57.28125 C 32.765625 57.054688 32.839844 56.753906 32.839844 56.585938 C 32.847656 56.265625 33.167969 55.976562 33.429688 56.058594 C 33.523438 56.089844 33.6875 56.058594 33.789062 56.007812 C 33.894531 55.945312 34.171875 55.851562 34.421875 55.789062 C 34.753906 55.707031 34.886719 55.601562 34.96875 55.40625 C 35.019531 55.25 35.167969 55.066406 35.269531 54.992188 C 35.382812 54.910156 35.476562 54.773438 35.476562 54.691406 C 35.476562 54.390625 35.828125 54.597656 35.910156 54.953125 C 36.023438 55.367188 36.210938 55.675781 36.738281 56.316406 C 36.957031 56.578125 37.132812 56.867188 37.132812 56.960938 C 37.132812 57.136719 37.421875 57.34375 37.679688 57.34375 C 37.761719 57.34375 37.855469 57.207031 37.898438 57.03125 C 37.96875 56.660156 38.371094 56.578125 38.371094 56.929688 C 38.371094 57.125 38.476562 57.175781 38.765625 57.144531 C 38.828125 57.136719 38.890625 57.175781 38.890625 57.238281 C 38.890625 57.300781 39.003906 57.320312 39.179688 57.292969 C 39.335938 57.25 39.5625 57.207031 39.6875 57.175781 C 39.957031 57.125 40.171875 56.597656 39.996094 56.421875 C 39.914062 56.339844 39.964844 56.308594 40.191406 56.308594 C 40.453125 56.308594 40.710938 56.492188 41.507812 57.238281 C 42.054688 57.757812 42.582031 58.171875 42.664062 58.171875 C 42.789062 58.171875 42.820312 58.027344 42.820312 57.527344 C 42.832031 56.691406 42.953125 56.515625 43.574219 56.515625 C 43.957031 56.515625 44.0625 56.554688 44.113281 56.722656 C 44.15625 56.847656 44.332031 56.96875 44.578125 57.03125 C 44.867188 57.113281 45.148438 57.332031 45.601562 57.828125 C 46.128906 58.398438 46.253906 58.492188 46.390625 58.378906 C 46.511719 58.273438 46.554688 58.285156 46.605469 58.417969 C 46.75 58.800781 46.855469 58.535156 46.855469 57.746094 C 46.855469 57.011719 46.832031 56.917969 46.699219 57.03125 C 46.566406 57.144531 46.542969 57.113281 46.542969 56.835938 C 46.542969 56.523438 46.566406 56.515625 46.96875 56.515625 C 47.359375 56.515625 47.382812 56.523438 47.351562 56.804688 C 47.300781 57.230469 47.589844 57.15625 47.742188 56.699219 C 47.867188 56.339844 47.859375 56.308594 47.683594 56.308594 C 47.546875 56.308594 47.507812 56.253906 47.546875 56.101562 C 47.621094 55.820312 47.765625 55.75 47.941406 55.894531 C 48.054688 55.988281 48.105469 55.964844 48.199219 55.800781 C 48.292969 55.613281 48.28125 55.582031 48.09375 55.582031 C 47.722656 55.582031 47.878906 55.40625 48.550781 55.074219 C 49.273438 54.722656 49.574219 54.671875 49.480469 54.910156 C 49.429688 55.023438 49.492188 55.066406 49.738281 55.066406 C 49.925781 55.066406 50.246094 55.160156 50.464844 55.273438 C 50.679688 55.375 50.898438 55.4375 50.941406 55.394531 C 51.042969 55.28125 51.28125 55.675781 51.230469 55.871094 C 51.15625 56.164062 51.582031 56.617188 51.933594 56.617188 C 52.441406 56.617188 52.316406 56.949219 51.695312 57.269531 C 51.394531 57.425781 50.867188 57.714844 50.535156 57.902344 C 50.195312 58.097656 49.886719 58.242188 49.84375 58.222656 C 49.800781 58.191406 49.71875 58.234375 49.65625 58.316406 C 49.59375 58.386719 49.316406 58.480469 49.046875 58.523438 C 48.632812 58.585938 48.539062 58.636719 48.40625 58.917969 C 48.324219 59.09375 48.15625 59.289062 48.042969 59.351562 C 47.929688 59.414062 47.683594 59.589844 47.496094 59.753906 C 47.207031 59.992188 47.070312 60.035156 46.480469 60.035156 C 45.871094 60.035156 45.808594 60.054688 45.726562 60.28125 C 45.625 60.53125 45.425781 60.65625 45.117188 60.65625 C 45.035156 60.65625 44.867188 60.726562 44.773438 60.820312 C 44.515625 61.050781 43.253906 61.140625 42.6875 60.976562 C 42.449219 60.90625 42.003906 60.726562 41.714844 60.59375 C 41.070312 60.304688 40.855469 60.355469 40.84375 60.800781 C 40.824219 61.421875 40.8125 61.433594 40.441406 61.453125 C 40.246094 61.464844 39.964844 61.433594 39.820312 61.390625 Z M 39.820312 61.390625 "
    />
    <path
      d="M 39.304688 48.40625 C 39.304688 48.335938 39.398438 48.167969 39.511719 48.046875 C 39.664062 47.878906 39.71875 47.683594 39.71875 47.25 C 39.71875 46.9375 39.675781 46.679688 39.625 46.679688 C 39.5625 46.679688 39.511719 46.480469 39.488281 46.242188 C 39.46875 45.933594 39.40625 45.800781 39.304688 45.800781 C 39.179688 45.800781 39.148438 46.035156 39.117188 47.175781 C 39.097656 48.054688 39.128906 48.542969 39.199219 48.542969 C 39.25 48.542969 39.304688 48.480469 39.304688 48.40625 Z M 37.898438 37.308594 C 37.917969 37.484375 37.988281 37.804688 38.0625 38.035156 C 38.125 38.261719 38.21875 38.613281 38.257812 38.808594 C 38.3125 39.007812 38.445312 39.421875 38.570312 39.730469 C 38.691406 40.03125 38.765625 40.375 38.722656 40.488281 C 38.621094 40.839844 38.910156 41.625 39.230469 41.800781 C 39.386719 41.894531 39.53125 42.039062 39.5625 42.125 C 39.59375 42.207031 39.75 42.433594 39.925781 42.621094 C 40.089844 42.816406 40.277344 43.128906 40.335938 43.324219 C 40.472656 43.71875 40.691406 43.8125 41.320312 43.757812 C 41.867188 43.71875 42.128906 43.34375 42.160156 42.570312 C 42.167969 42.238281 42.117188 41.773438 42.035156 41.523438 C 41.714844 40.558594 41.898438 39.90625 42.757812 38.976562 C 43.007812 38.695312 43.277344 38.335938 43.347656 38.179688 C 43.503906 37.785156 43.648438 37.796875 43.648438 38.21875 C 43.648438 38.625 43.824219 39.140625 44.144531 39.679688 C 44.484375 40.25 44.703125 40.882812 44.691406 41.242188 C 44.683594 41.417969 44.722656 41.625 44.773438 41.710938 C 44.847656 41.8125 44.773438 42.039062 44.527344 42.484375 C 44.339844 42.828125 44.101562 43.3125 44.011719 43.574219 C 43.917969 43.832031 43.75 44.226562 43.648438 44.453125 C 43.390625 45 43.316406 45.34375 43.265625 46.242188 C 43.214844 47.074219 43.304688 47.300781 43.699219 47.300781 C 44.039062 47.300781 44.476562 46.917969 44.476562 46.617188 C 44.476562 46.472656 44.558594 46.191406 44.671875 45.976562 C 44.785156 45.746094 44.847656 45.46875 44.816406 45.28125 C 44.746094 44.824219 45.117188 44.546875 45.683594 44.597656 C 45.769531 44.609375 45.800781 44.835938 45.769531 45.40625 C 45.738281 45.945312 45.769531 46.347656 45.871094 46.660156 C 46.234375 47.726562 46.511719 47.972656 46.90625 47.609375 C 47.039062 47.488281 47.164062 47.425781 47.195312 47.476562 C 47.308594 47.652344 47.101562 48.945312 46.925781 49.144531 C 46.832031 49.246094 46.75 49.359375 46.75 49.402344 C 46.75 49.578125 46.140625 50.324219 45.507812 50.933594 C 44.835938 51.566406 44.566406 51.980469 44.527344 52.394531 C 44.515625 52.488281 44.476562 52.765625 44.433594 53.003906 C 44.339844 53.605469 44.453125 54.277344 44.691406 54.539062 C 44.835938 54.683594 45.023438 54.753906 45.300781 54.753906 C 45.695312 54.753906 46.078125 54.515625 45.976562 54.328125 C 45.882812 54.183594 46.234375 53.730469 46.398438 53.792969 C 46.554688 53.84375 46.566406 53.800781 46.59375 53.203125 C 46.648438 52.457031 46.855469 52.0625 47.226562 52.0625 C 47.300781 52.0625 47.445312 51.90625 47.566406 51.730469 C 47.683594 51.546875 47.960938 51.203125 48.1875 50.976562 C 48.675781 50.519531 48.644531 50.46875 48.613281 51.8125 C 48.59375 52.921875 48.746094 53.253906 49.355469 53.367188 C 49.988281 53.492188 49.988281 53.492188 50.070312 53.203125 L 50.132812 52.941406 L 50.246094 53.234375 C 50.351562 53.480469 50.328125 53.574219 50.113281 53.925781 C 49.96875 54.152344 49.855469 54.359375 49.855469 54.390625 C 49.855469 54.421875 49.730469 54.621094 49.574219 54.816406 C 49.179688 55.324219 48.632812 55.582031 47.980469 55.582031 C 47.359375 55.582031 46.75 55.894531 46.75 56.214844 C 46.75 56.484375 46.824219 56.460938 47.132812 56.089844 C 47.328125 55.863281 47.476562 55.789062 47.671875 55.8125 C 48.035156 55.851562 48.042969 56.226562 47.683594 56.308594 C 47.496094 56.347656 47.414062 56.441406 47.390625 56.648438 C 47.359375 56.886719 47.320312 56.929688 47.152344 56.875 C 46.78125 56.753906 46.542969 57.09375 46.542969 57.746094 C 46.542969 58.066406 46.585938 58.386719 46.636719 58.460938 C 46.71875 58.59375 46.460938 59.300781 46.328125 59.308594 C 46.285156 59.308594 46.128906 59.132812 45.964844 58.925781 C 45.3125 58.066406 44.652344 57.445312 44.257812 57.34375 C 44.019531 57.28125 43.84375 57.15625 43.804688 57.03125 C 43.710938 56.753906 43.398438 56.773438 43.253906 57.0625 C 43.191406 57.1875 43.121094 57.570312 43.109375 57.914062 C 43.078125 58.585938 42.976562 58.679688 42.449219 58.542969 C 42.042969 58.441406 39.945312 56.433594 39.902344 56.109375 C 39.863281 55.757812 39.273438 55.582031 38.796875 55.78125 C 38.527344 55.894531 38.476562 55.988281 38.425781 56.402344 C 38.394531 56.660156 38.320312 56.980469 38.257812 57.113281 C 38.207031 57.25 38.164062 57.445312 38.164062 57.558594 C 38.164062 57.820312 37.90625 57.921875 37.617188 57.789062 C 37.492188 57.726562 37.265625 57.632812 37.109375 57.558594 C 36.945312 57.5 36.820312 57.375 36.820312 57.269531 C 36.820312 57.175781 36.636719 56.875 36.417969 56.609375 C 35.621094 55.664062 35.527344 55.386719 35.558594 53.957031 L 35.578125 52.703125 L 36.503906 50.746094 C 36.921875 46.457031 36.929688 38.5 37.898438 37.308594 Z M 37.898438 37.308594 "
    />
    <path
      d="M 7.652344 61.296875 C 7.652344 61.246094 7.25 60.800781 6.761719 60.292969 L 5.875 59.394531 L 6.050781 59 C 6.152344 58.78125 6.347656 58.480469 6.503906 58.347656 C 6.835938 58.027344 11.613281 54.546875 11.65625 54.589844 C 11.769531 54.703125 10.464844 57.09375 9.660156 58.253906 C 9.050781 59.125 8.707031 59.714844 8.738281 59.828125 C 8.769531 59.929688 8.613281 60.179688 8.324219 60.492188 C 8.066406 60.769531 7.859375 61.082031 7.859375 61.183594 C 7.859375 61.296875 7.816406 61.378906 7.757812 61.378906 C 7.703125 61.378906 7.652344 61.339844 7.652344 61.296875 Z M 15.347656 65.84375 C 15.605469 65.699219 15.710938 65.53125 15.894531 64.902344 L 16.125 64.132812 L 15.773438 63.699219 C 15.378906 63.222656 14.902344 62.953125 14.117188 62.777344 L 13.601562 62.664062 L 13.371094 61.886719 C 13.082031 60.90625 13.074219 60.449219 13.320312 60.449219 C 13.414062 60.449219 13.558594 60.34375 13.640625 60.222656 C 13.722656 60.085938 13.921875 59.816406 14.085938 59.621094 C 14.707031 58.84375 16.609375 56.441406 16.890625 56.070312 C 17.105469 55.789062 17.167969 55.601562 17.128906 55.425781 C 17.074219 55.242188 17.117188 55.167969 17.292969 55.117188 C 17.5625 55.023438 18.253906 54.328125 18.460938 53.925781 C 18.542969 53.761719 18.679688 53.585938 18.742188 53.542969 C 19.050781 53.347656 19.277344 52.726562 19.320312 51.949219 C 19.363281 51.191406 19.351562 51.132812 19.039062 50.6875 C 18.863281 50.425781 18.71875 50.167969 18.71875 50.117188 C 18.71875 50.066406 18.628906 49.941406 18.503906 49.828125 C 18.378906 49.722656 18.191406 49.441406 18.078125 49.214844 C 17.707031 48.492188 17.105469 47.683594 15.039062 45.085938 C 14.574219 44.515625 14.023438 43.6875 13.808594 43.273438 C 13.601562 42.847656 13.320312 42.332031 13.1875 42.132812 C 13.0625 41.925781 12.75 41.367188 12.492188 40.882812 C 12.246094 40.394531 11.882812 39.785156 11.695312 39.535156 C 11.511719 39.277344 11.253906 38.871094 11.136719 38.625 C 10.929688 38.199219 10.921875 38.167969 11.097656 37.847656 C 11.222656 37.609375 11.273438 37.183594 11.304688 36.378906 C 11.335938 35.257812 11.53125 34.460938 11.78125 34.378906 C 11.839844 34.359375 11.964844 34.421875 12.058594 34.515625 C 12.164062 34.605469 12.308594 34.648438 12.429688 34.617188 C 12.535156 34.574219 12.742188 34.617188 12.875 34.710938 C 13.011719 34.804688 13.1875 34.84375 13.269531 34.8125 C 13.351562 34.78125 13.445312 34.835938 13.476562 34.917969 C 13.546875 35.105469 13.867188 35.136719 14.023438 34.980469 C 14.097656 34.90625 14.210938 34.9375 14.375 35.082031 C 14.65625 35.332031 14.996094 35.351562 14.996094 35.136719 C 14.996094 34.96875 15.296875 34.929688 16.050781 34.96875 C 16.425781 35 16.433594 34.980469 16.546875 34.546875 C 16.734375 33.832031 16.746094 33.808594 16.941406 33.902344 C 17.46875 34.128906 17.984375 34.070312 18.84375 33.675781 C 19.308594 33.449219 19.765625 33.28125 19.867188 33.300781 C 20.042969 33.332031 20.167969 33.0625 20.167969 32.597656 C 20.167969 32.441406 20.21875 32.277344 20.28125 32.214844 C 20.355469 32.144531 20.363281 32.007812 20.3125 31.863281 C 20.273438 31.730469 20.242188 31.574219 20.25 31.53125 C 20.292969 31.367188 19.960938 30.382812 19.828125 30.300781 C 19.640625 30.175781 19.09375 30.195312 18.761719 30.339844 C 18.597656 30.414062 18.203125 30.671875 17.894531 30.902344 C 17.21875 31.40625 16.539062 31.6875 16.476562 31.492188 C 16.445312 31.417969 16.332031 31.347656 16.207031 31.347656 C 16.042969 31.335938 16.0625 31.316406 16.289062 31.261719 C 16.546875 31.210938 16.609375 31.140625 16.628906 30.871094 C 16.660156 30.570312 16.640625 30.539062 16.320312 30.496094 C 16.019531 30.464844 16.03125 30.457031 16.425781 30.445312 C 16.835938 30.425781 16.859375 30.402344 16.859375 30.113281 C 16.859375 29.949219 16.828125 29.804688 16.785156 29.804688 C 16.734375 29.804688 16.640625 29.761719 16.558594 29.710938 C 16.453125 29.636719 16.445312 29.574219 16.546875 29.390625 C 16.734375 29.027344 16.445312 28.851562 15.71875 28.882812 C 15.410156 28.902344 15.152344 28.871094 15.152344 28.808594 C 15.191406 27.941406 15.367188 26.6875 15.523438 26.042969 C 15.742188 25.1875 15.71875 24.71875 15.429688 24.171875 C 15.308594 23.914062 15.308594 23.851562 15.429688 23.757812 C 15.597656 23.621094 16.132812 22.378906 16.132812 22.121094 C 16.132812 21.964844 16.238281 21.933594 16.835938 21.933594 C 17.707031 21.933594 18.007812 21.726562 17.984375 21.128906 C 17.964844 20.464844 18.121094 19.5 18.265625 19.417969 C 18.480469 19.292969 18.441406 18.902344 18.160156 18.496094 C 18.027344 18.300781 17.871094 17.855469 17.808594 17.503906 C 17.746094 17.160156 17.601562 16.675781 17.480469 16.4375 L 17.273438 15.980469 L 17.480469 15.703125 C 17.695312 15.402344 17.746094 15.203125 17.601562 15.203125 C 17.550781 15.203125 17.457031 15.089844 17.394531 14.9375 C 17.21875 14.5625 16.628906 14.355469 15.617188 14.316406 C 15.132812 14.292969 14.46875 14.253906 14.148438 14.210938 C 13.445312 14.136719 13.269531 14.222656 11.820312 15.382812 C 11.117188 15.941406 10.859375 16.21875 10.808594 16.449219 C 10.753906 16.664062 10.683594 16.757812 10.570312 16.738281 C 10.3125 16.695312 10.25 18.300781 10.496094 18.476562 C 10.664062 18.601562 10.960938 19.761719 10.960938 20.246094 C 10.960938 20.421875 10.902344 20.484375 10.722656 20.484375 C 10.589844 20.484375 10.394531 20.578125 10.300781 20.683594 C 10.195312 20.796875 10.011719 20.910156 9.886719 20.941406 C 9.753906 20.972656 9.523438 21.179688 9.378906 21.394531 C 9.140625 21.757812 9.019531 21.832031 8.085938 22.132812 C 7.519531 22.316406 6.992188 22.523438 6.929688 22.609375 C 6.855469 22.691406 6.742188 22.761719 6.679688 22.761719 C 6.347656 22.761719 5.667969 23.726562 4.933594 25.195312 C 4.507812 26.054688 3.949219 27.082031 3.679688 27.472656 C 3.421875 27.878906 3.203125 28.269531 3.203125 28.363281 C 3.203125 28.445312 3.070312 28.707031 2.914062 28.933594 C 2.75 29.152344 2.53125 29.574219 2.429688 29.855469 C 2.324219 30.144531 2.140625 30.621094 2.003906 30.921875 C 1.871094 31.222656 1.757812 31.511719 1.757812 31.5625 C 1.757812 31.613281 1.613281 31.820312 1.445312 32.007812 C 1.09375 32.414062 1.074219 32.558594 1.292969 33.25 C 1.375 33.519531 1.414062 33.738281 1.394531 33.738281 C 1.375 33.738281 1.570312 33.945312 1.839844 34.203125 C 2.222656 34.585938 2.410156 34.679688 2.820312 34.730469 C 3.152344 34.78125 3.339844 34.855469 3.378906 34.96875 C 3.402344 35.0625 3.515625 35.351562 3.617188 35.613281 L 3.804688 36.097656 L 3.234375 37.238281 L 2.667969 38.375 L 2.675781 39.699219 C 2.6875 40.726562 2.75 41.253906 2.9375 41.96875 C 3.195312 42.941406 3.878906 44.503906 4.054688 44.503906 C 4.113281 44.503906 4.332031 44.640625 4.539062 44.792969 C 4.746094 44.960938 5.140625 45.199219 5.429688 45.324219 C 5.976562 45.582031 6.855469 46.152344 6.90625 46.285156 C 6.929688 46.328125 7 46.367188 7.0625 46.367188 C 7.136719 46.367188 7.671875 46.792969 8.273438 47.308594 C 8.875 47.828125 9.699219 48.4375 10.105469 48.675781 C 10.902344 49.132812 11.015625 49.308594 10.609375 49.414062 C 10.476562 49.441406 10.1875 49.703125 9.96875 49.992188 C 9.699219 50.34375 9.546875 50.46875 9.460938 50.40625 C 9.378906 50.34375 9.089844 50.519531 8.5625 50.953125 C 8.128906 51.308594 7.21875 52.03125 6.535156 52.558594 C 5.554688 53.316406 5.253906 53.617188 5.128906 53.9375 C 4.972656 54.328125 4.953125 54.339844 4.46875 54.339844 C 4.011719 54.339844 3.910156 54.390625 3.339844 54.890625 C 2.988281 55.179688 2.316406 55.757812 1.820312 56.152344 C 1.0625 56.773438 0.929688 56.917969 0.929688 57.199219 C 0.929688 57.40625 0.824219 57.601562 0.617188 57.808594 C 0.453125 57.972656 0.308594 58.210938 0.308594 58.335938 C 0.308594 58.460938 0.238281 58.617188 0.152344 58.6875 C -0.03125 58.84375 -0.0546875 59 0.113281 59 C 0.175781 59 0.535156 59.214844 0.910156 59.496094 C 1.707031 60.066406 2.027344 60.261719 3.152344 60.894531 C 3.609375 61.152344 4.332031 61.617188 4.757812 61.941406 C 5.5 62.488281 5.800781 62.613281 6.835938 62.777344 C 7.199219 62.832031 7.230469 62.808594 7.488281 62.394531 L 7.757812 61.949219 L 7.695312 62.476562 L 7.632812 63.007812 L 8.644531 63.730469 C 10.671875 65.167969 11.335938 65.59375 11.636719 65.644531 C 11.8125 65.675781 12.203125 65.78125 12.515625 65.863281 C 12.824219 65.945312 13.226562 66.039062 13.394531 66.058594 C 14.023438 66.121094 15.027344 66.019531 15.347656 65.84375 Z M 41.195312 15.722656 C 41.238281 15.578125 41.269531 15.195312 41.269531 14.875 C 41.269531 14.191406 41.425781 14.085938 41.714844 14.59375 C 41.972656 15.050781 41.941406 15.226562 41.515625 15.628906 C 41.15625 15.960938 41.144531 15.972656 41.195312 15.722656 Z M 24.203125 55.851562 C 24.574219 55.839844 24.945312 55.863281 25.039062 55.902344 C 25.515625 56.132812 25.980469 55.5625 26.105469 54.597656 C 26.167969 54.164062 26.117188 53.9375 25.847656 53.203125 C 25.558594 52.445312 25.503906 52.15625 25.472656 51.191406 C 25.441406 50.1875 25.464844 49.972656 25.710938 49.246094 C 25.855469 48.800781 26.023438 48.4375 26.085938 48.4375 C 26.136719 48.4375 26.167969 48.335938 26.15625 48.210938 C 26.148438 48.078125 26.1875 47.777344 26.261719 47.527344 C 26.324219 47.289062 26.40625 46.523438 26.425781 45.828125 C 26.46875 44.597656 26.476562 44.566406 26.789062 44.246094 C 27.046875 43.988281 27.097656 43.84375 27.097656 43.449219 C 27.097656 43.179688 27.058594 42.941406 27.003906 42.910156 C 26.851562 42.808594 27.117188 42.101562 27.335938 42.039062 C 27.511719 42 27.53125 41.917969 27.492188 41.492188 C 27.460938 41.210938 27.480469 40.984375 27.53125 40.984375 C 27.585938 40.984375 27.617188 40.808594 27.605469 40.601562 C 27.554688 39.792969 27.617188 38.902344 27.71875 38.964844 C 27.882812 39.070312 27.96875 38.707031 27.851562 38.386719 C 27.761719 38.160156 27.78125 37.921875 27.945312 37.289062 C 28.058594 36.855469 28.214844 35.984375 28.289062 35.363281 C 28.410156 34.367188 28.464844 34.191406 28.710938 33.933594 C 29.300781 33.3125 30.417969 33.6875 30.832031 34.628906 C 31.027344 35.09375 32.289062 36.988281 32.488281 37.101562 C 32.539062 37.144531 32.558594 37.207031 32.527344 37.257812 C 32.496094 37.300781 32.550781 37.390625 32.632812 37.464844 C 32.714844 37.535156 32.765625 37.628906 32.734375 37.671875 C 32.664062 37.796875 33.160156 38.707031 33.386719 38.871094 C 33.5 38.945312 33.625 39.171875 33.65625 39.371094 C 33.699219 39.566406 33.789062 39.773438 33.875 39.847656 C 33.957031 39.917969 34.027344 40.113281 34.027344 40.289062 C 34.027344 40.46875 34.109375 40.652344 34.203125 40.726562 C 34.441406 40.902344 34.566406 42.289062 34.371094 42.453125 C 34.296875 42.515625 34.257812 42.589844 34.285156 42.628906 C 34.308594 42.671875 34.277344 42.898438 34.214844 43.136719 C 34.101562 43.59375 34.171875 44.140625 34.339844 44.039062 C 34.402344 44.007812 34.441406 44.007812 34.441406 44.058594 C 34.453125 44.101562 34.503906 44.585938 34.578125 45.136719 C 34.660156 45.738281 34.679688 46.429688 34.636719 46.894531 C 34.585938 47.457031 34.617188 47.890625 34.742188 48.5 C 34.898438 49.226562 34.90625 49.414062 34.785156 49.796875 C 34.710938 50.042969 34.648438 50.261719 34.648438 50.261719 C 34.636719 50.332031 35.972656 51.546875 36.054688 51.546875 C 36.179688 51.546875 37.007812 50.519531 37.234375 50.09375 C 37.378906 49.816406 37.410156 47.847656 37.277344 46.480469 C 37.214844 45.738281 37.214844 45.726562 37.421875 45.839844 C 37.722656 45.996094 37.722656 45.996094 37.792969 45.570312 C 38 44.296875 37.988281 44.101562 37.699219 43.449219 C 37.429688 42.859375 37.421875 42.753906 37.492188 41.980469 C 37.605469 40.765625 37.578125 40.3125 37.339844 39.597656 C 37.222656 39.253906 37.039062 38.542969 36.925781 38.023438 C 36.707031 37.03125 36.066406 35.34375 34.917969 32.753906 L 34.226562 31.199219 L 34.515625 30.992188 C 35.15625 30.527344 35.609375 30.050781 35.871094 29.554688 C 36.105469 29.089844 36.148438 28.882812 36.179688 27.761719 C 36.222656 26.605469 36.199219 26.460938 35.984375 26.023438 C 35.847656 25.753906 35.570312 25.382812 35.351562 25.1875 C 35.136719 24.988281 34.960938 24.8125 34.960938 24.78125 C 34.960938 24.730469 35.828125 23.394531 36.304688 22.710938 C 36.511719 22.410156 37.566406 20.796875 38.445312 19.449219 C 38.683594 19.078125 39.304688 18.351562 39.839844 17.835938 C 40.699219 16.996094 40.867188 16.882812 41.277344 16.820312 C 41.640625 16.769531 41.785156 16.789062 41.890625 16.914062 C 42.066406 17.128906 42.335938 17.109375 42.570312 16.851562 C 42.726562 16.675781 42.738281 16.613281 42.632812 16.4375 C 42.519531 16.261719 42.542969 16.242188 42.746094 16.242188 C 42.882812 16.242188 43.078125 16.148438 43.183594 16.035156 C 43.367188 15.828125 43.367188 15.816406 43.128906 15.484375 C 43.007812 15.308594 42.953125 15.214844 43.039062 15.289062 C 43.214844 15.453125 43.597656 15.441406 43.742188 15.265625 C 43.8125 15.183594 43.832031 15.007812 43.792969 14.851562 C 43.742188 14.644531 43.667969 14.582031 43.429688 14.582031 C 43.140625 14.582031 43.128906 14.5625 43.128906 14.085938 C 43.128906 13.816406 43.046875 13.363281 42.933594 13.070312 C 42.832031 12.78125 42.71875 12.378906 42.675781 12.183594 C 42.644531 11.984375 42.519531 11.738281 42.40625 11.632812 C 42.230469 11.476562 42.136719 11.46875 41.765625 11.5625 C 41.515625 11.621094 41.0625 11.707031 40.75 11.746094 C 40.441406 11.789062 39.933594 11.902344 39.613281 12.007812 C 38.921875 12.242188 38.785156 12.242188 38.785156 12.046875 C 38.785156 11.945312 38.671875 11.890625 38.425781 11.890625 C 37.792969 11.890625 37.699219 12.492188 38.300781 12.710938 C 38.476562 12.773438 38.476562 12.792969 38.332031 12.917969 C 38.195312 13.03125 38.164062 13.03125 38.164062 12.894531 C 38.164062 12.699219 37.667969 12.574219 37.484375 12.730469 C 37.246094 12.925781 37.308594 13.332031 37.585938 13.445312 C 37.78125 13.515625 37.824219 13.589844 37.78125 13.765625 C 37.722656 13.992188 37.722656 13.992188 37.523438 13.714844 C 37.164062 13.21875 36.71875 13.425781 36.71875 14.085938 L 36.71875 14.480469 L 37.171875 14.480469 C 37.585938 14.480469 37.617188 14.5 37.578125 14.730469 C 37.546875 14.894531 37.597656 15.019531 37.753906 15.132812 C 38.042969 15.339844 38.257812 15.257812 38.332031 14.90625 C 38.476562 14.230469 38.703125 13.871094 39.105469 13.714844 C 39.542969 13.539062 40.132812 13.496094 40.132812 13.632812 C 40.132812 13.683594 39.851562 14.015625 39.5 14.375 C 39.148438 14.738281 38.828125 15.132812 38.777344 15.257812 C 38.507812 15.835938 35.695312 19.347656 35.488281 19.347656 C 35.394531 19.347656 35.257812 19.398438 35.1875 19.46875 C 35.125 19.53125 35.050781 19.574219 35.019531 19.542969 C 34.824219 19.324219 33.832031 17.679688 33.769531 17.484375 C 33.699219 17.222656 33.367188 16.40625 32.964844 15.484375 C 32.582031 14.605469 31.929688 14.273438 30.5625 14.273438 C 29.765625 14.273438 29.496094 14.230469 29.117188 14.046875 C 28.679688 13.839844 28.648438 13.796875 28.703125 13.496094 C 28.734375 13.332031 28.710938 12.667969 28.660156 12.046875 C 28.578125 11.136719 28.503906 10.804688 28.289062 10.421875 C 27.96875 9.851562 28.019531 9.789062 28.847656 9.78125 C 29.269531 9.769531 29.425781 9.726562 29.425781 9.625 C 29.425781 9.542969 29.34375 9.46875 29.238281 9.449219 C 29.144531 9.4375 28.929688 9.292969 28.773438 9.128906 C 28.617188 8.972656 28.402344 8.785156 28.289062 8.722656 C 28.113281 8.628906 28.101562 8.578125 28.214844 8.445312 C 28.328125 8.308594 28.308594 8.277344 28.027344 8.214844 C 27.769531 8.164062 27.65625 8.195312 27.5 8.363281 C 27.386719 8.484375 27.222656 8.578125 27.140625 8.578125 C 27.003906 8.578125 27.015625 8.527344 27.191406 8.277344 L 27.410156 7.976562 L 26.632812 7.90625 C 25.949219 7.84375 25.804688 7.863281 25.484375 8.050781 C 25.289062 8.175781 25.039062 8.269531 24.945312 8.269531 C 24.625 8.269531 24.097656 8.683594 23.789062 9.167969 C 23.53125 9.582031 23.476562 9.757812 23.476562 10.328125 C 23.476562 10.710938 23.40625 11.25 23.3125 11.53125 C 23.011719 12.523438 23.40625 13.652344 24.160156 13.929688 C 24.378906 14.015625 24.6875 14.109375 24.855469 14.136719 C 25.289062 14.222656 25.195312 14.40625 24.738281 14.355469 C 24.398438 14.304688 24.335938 14.335938 24.222656 14.5625 C 24.148438 14.707031 24.097656 14.9375 24.097656 15.070312 C 24.097656 15.382812 23.789062 15.648438 22.785156 16.199219 C 21.917969 16.675781 21.347656 17.203125 21.265625 17.617188 C 21.171875 18.050781 21.066406 19.292969 21.089844 19.6875 C 21.128906 20.722656 21.128906 21.242188 21.046875 22.277344 C 20.996094 23.03125 21.007812 23.621094 21.089844 24.089844 C 21.152344 24.472656 21.273438 25.214844 21.367188 25.746094 C 21.566406 26.945312 21.625 27.058594 22.144531 27.082031 C 22.359375 27.089844 22.628906 27.152344 22.742188 27.203125 C 22.859375 27.265625 23.0625 27.320312 23.21875 27.320312 C 23.613281 27.320312 24.304688 27.554688 24.304688 27.691406 C 24.304688 27.824219 24.078125 27.941406 23.796875 27.941406 C 23.488281 27.941406 22.734375 28.675781 22.484375 29.222656 C 22.152344 29.925781 22.144531 30.953125 22.453125 31.625 C 22.679688 32.101562 23.167969 32.546875 23.53125 32.621094 C 23.714844 32.648438 23.738281 32.753906 23.757812 33.945312 C 23.769531 34.660156 23.839844 36.285156 23.902344 37.566406 C 24.089844 40.933594 24.058594 41.511719 23.644531 42.226562 C 23.085938 43.179688 22.867188 43.738281 22.929688 43.988281 C 22.980469 44.195312 22.960938 44.214844 22.734375 44.171875 C 22.476562 44.121094 22.464844 44.152344 22.351562 44.855469 C 22.289062 45.261719 22.226562 46.667969 22.195312 47.992188 C 22.164062 50.023438 22.175781 50.417969 22.308594 50.53125 C 22.414062 50.613281 22.445312 50.757812 22.402344 50.964844 C 21.945312 53.636719 21.957031 53.988281 22.445312 55.304688 C 22.671875 55.894531 22.816406 56.019531 23.269531 55.933594 C 23.414062 55.902344 23.828125 55.871094 24.203125 55.851562 Z M 32.527344 22.171875 C 32.570312 21.957031 32.621094 21.757812 32.640625 21.738281 C 32.671875 21.707031 32.808594 21.808594 32.964844 21.957031 C 33.191406 22.195312 33.210938 22.253906 33.097656 22.390625 C 33.023438 22.484375 32.847656 22.554688 32.714844 22.554688 C 32.464844 22.554688 32.457031 22.535156 32.527344 22.171875 Z M 60.910156 61.917969 C 61.230469 61.785156 62.121094 61.289062 62.898438 60.820312 C 64.148438 60.085938 64.34375 59.921875 64.625 59.464844 C 64.914062 58.980469 64.925781 58.90625 64.839844 58.328125 C 64.78125 57.871094 64.789062 57.664062 64.894531 57.550781 C 64.964844 57.46875 65.132812 56.949219 65.253906 56.410156 C 65.390625 55.871094 65.535156 55.34375 65.585938 55.25 C 65.648438 55.148438 65.636719 54.898438 65.554688 54.609375 C 65.429688 54.152344 65.441406 54.144531 65.8125 53.6875 C 66.082031 53.355469 66.226562 53.035156 66.351562 52.519531 C 66.621094 51.316406 67.066406 49.785156 67.136719 49.785156 C 67.167969 49.785156 67.335938 49.980469 67.5 50.21875 C 67.664062 50.449219 67.945312 50.707031 68.128906 50.789062 C 68.390625 50.894531 68.472656 50.996094 68.472656 51.183594 C 68.472656 51.460938 69.714844 53.5625 69.992188 53.769531 C 70.136719 53.886719 70.136719 53.945312 69.890625 54.476562 C 69.671875 54.960938 69.558594 55.074219 69.144531 55.261719 C 68.390625 55.59375 67.902344 56.027344 67.757812 56.515625 C 67.5625 57.1875 67.65625 57.3125 68.480469 57.445312 C 68.894531 57.519531 69.421875 57.539062 69.734375 57.5 C 70.210938 57.425781 70.355469 57.34375 70.902344 56.816406 C 71.421875 56.328125 71.566406 56.234375 71.679688 56.339844 C 71.78125 56.441406 71.800781 56.433594 71.75 56.285156 C 71.710938 56.183594 71.761719 56.101562 71.894531 56.070312 C 72 56.039062 72.09375 56.058594 72.09375 56.109375 C 72.09375 56.277344 72.269531 56.214844 72.535156 55.933594 C 72.691406 55.78125 72.878906 55.6875 72.960938 55.71875 C 73.054688 55.757812 73.125 55.6875 73.167969 55.550781 C 73.21875 55.367188 73.25 55.355469 73.324219 55.46875 C 73.40625 55.59375 73.445312 55.59375 73.582031 55.488281 C 73.675781 55.40625 73.746094 55.292969 73.746094 55.230469 C 73.746094 55.167969 73.851562 55.066406 73.984375 55.011719 C 74.335938 54.859375 74.359375 54.164062 74.015625 53.585938 C 73.871094 53.335938 73.746094 53.035156 73.746094 52.910156 C 73.746094 52.613281 72.277344 50.273438 72.007812 50.148438 C 71.886719 50.09375 71.75 49.949219 71.730469 49.835938 C 71.554688 49.175781 71.410156 48.761719 71.242188 48.460938 C 71.140625 48.273438 71.058594 48.054688 71.058594 47.972656 C 71.058594 47.890625 71.015625 47.816406 70.964844 47.816406 C 70.914062 47.816406 70.808594 47.664062 70.738281 47.488281 C 70.386719 46.617188 69 44.917969 68.648438 44.917969 C 68.566406 44.917969 68.429688 44.835938 68.328125 44.734375 C 68.183594 44.554688 68.171875 44.496094 68.296875 44.132812 C 68.378906 43.914062 68.566406 43.191406 68.71875 42.527344 L 69 41.316406 L 69.652344 41.273438 C 70.21875 41.242188 70.550781 41.121094 72.050781 40.394531 C 73.011719 39.929688 73.945312 39.515625 74.121094 39.484375 C 74.296875 39.453125 74.925781 39.140625 75.515625 38.800781 C 76.3125 38.335938 76.738281 38.160156 77.148438 38.105469 L 77.707031 38.035156 L 76.738281 36.585938 C 76.199219 35.789062 75.496094 34.761719 75.183594 34.308594 C 73.386719 31.699219 73.363281 31.644531 73.300781 31.015625 C 73.230469 30.28125 72.785156 29.066406 72.390625 28.519531 C 72.226562 28.292969 72.09375 28.054688 72.09375 27.992188 C 72.09375 27.929688 71.8125 27.609375 71.460938 27.265625 C 70.675781 26.488281 70.507812 26.117188 70.644531 25.496094 C 70.746094 25.039062 71.566406 23.40625 71.863281 23.054688 C 71.9375 22.960938 71.976562 22.835938 71.949219 22.785156 C 71.875 22.660156 72.082031 22.039062 72.195312 22.039062 C 72.238281 22.039062 72.300781 21.957031 72.332031 21.851562 C 72.753906 20.359375 72.804688 20.050781 72.828125 18.632812 L 72.859375 17.140625 L 72.535156 16.871094 C 72.246094 16.625 71.925781 16.15625 72.007812 16.085938 C 72.03125 16.074219 72.339844 16.230469 72.710938 16.4375 C 73.683594 16.996094 73.757812 17.015625 73.644531 16.695312 C 73.582031 16.550781 73.539062 16.269531 73.539062 16.0625 C 73.539062 15.710938 73.550781 15.703125 73.882812 15.765625 C 74.492188 15.886719 74.617188 15.878906 74.65625 15.722656 C 74.699219 15.503906 74.160156 14.820312 73.902344 14.75 C 73.789062 14.71875 73.582031 14.59375 73.4375 14.492188 L 73.179688 14.285156 L 73.417969 14.046875 C 73.695312 13.734375 73.707031 13.652344 73.445312 13.652344 C 73.179688 13.652344 72.359375 12.71875 72.507812 12.574219 C 72.578125 12.503906 72.722656 12.585938 72.972656 12.824219 C 73.3125 13.15625 73.332031 13.164062 73.332031 12.9375 C 73.332031 12.542969 72.929688 11.976562 72.289062 11.445312 C 71.949219 11.175781 71.679688 10.910156 71.679688 10.855469 C 71.679688 10.792969 71.832031 10.753906 72.03125 10.753906 C 72.496094 10.753906 72.578125 10.609375 72.214844 10.453125 C 72.0625 10.378906 71.800781 10.214844 71.625 10.082031 L 71.316406 9.820312 L 71.574219 9.820312 C 71.863281 9.820312 72.269531 9.613281 72 9.613281 C 71.886719 9.613281 71.894531 9.574219 72.039062 9.46875 C 72.214844 9.34375 72.214844 9.335938 71.957031 9.261719 C 71.800781 9.230469 71.605469 9.085938 71.511719 8.941406 C 71.421875 8.796875 71.304688 8.683594 71.253906 8.683594 C 71.203125 8.683594 70.902344 8.515625 70.582031 8.308594 C 69.980469 7.925781 69.960938 7.761719 70.507812 7.75 C 70.675781 7.75 70.769531 7.667969 70.808594 7.492188 C 70.890625 7.140625 70.800781 7.058594 70.550781 7.273438 C 70.28125 7.511719 69.921875 7.410156 69.921875 7.089844 C 69.921875 6.964844 70.066406 6.28125 70.230469 5.566406 C 70.40625 4.863281 70.5625 4.1875 70.59375 4.074219 C 70.613281 3.960938 70.871094 3.742188 71.183594 3.566406 C 71.6875 3.289062 72.507812 2.53125 72.773438 2.085938 C 72.972656 1.757812 73.167969 0.792969 73.042969 0.722656 C 72.980469 0.691406 72.917969 0.515625 72.890625 0.347656 C 72.859375 0.0703125 72.816406 0.0390625 72.414062 0.0078125 C 72.09375 -0.015625 71.90625 0.0273438 71.761719 0.160156 C 71.605469 0.296875 71.535156 0.316406 71.503906 0.222656 C 71.410156 -0.0234375 71.234375 0.0898438 70.261719 1.050781 C 69.15625 2.128906 68.71875 2.84375 68.566406 3.859375 C 68.503906 4.199219 68.246094 5.007812 67.984375 5.628906 C 67.726562 6.261719 67.4375 6.996094 67.34375 7.273438 C 67.148438 7.832031 66.910156 8.0625 66.609375 7.988281 C 66.496094 7.957031 66.289062 8.007812 66.15625 8.09375 C 65.917969 8.246094 65.90625 8.246094 65.84375 8.03125 C 65.761719 7.710938 65.566406 7.9375 65.484375 8.445312 C 65.421875 8.835938 65.421875 8.835938 64.871094 8.867188 C 64.582031 8.890625 64.335938 8.941406 64.335938 8.984375 C 64.335938 9.035156 64.429688 9.179688 64.53125 9.324219 C 64.726562 9.574219 64.726562 9.574219 64.480469 9.8125 C 64.324219 9.957031 64.230469 10.171875 64.230469 10.359375 C 64.230469 10.523438 64.179688 10.753906 64.128906 10.855469 C 64.054688 10.992188 64.054688 11.074219 64.136719 11.117188 C 64.261719 11.199219 64.644531 10.878906 64.644531 10.691406 C 64.644531 10.535156 65.039062 10.234375 65.253906 10.234375 C 65.367188 10.234375 65.390625 10.410156 65.328125 11.261719 C 65.285156 11.933594 65.296875 12.316406 65.367188 12.359375 C 65.503906 12.441406 65.503906 13.132812 65.378906 13.132812 C 65.316406 13.132812 64.964844 12.894531 64.582031 12.605469 C 64.191406 12.316406 63.683594 11.976562 63.433594 11.859375 C 63.03125 11.664062 62.855469 11.476562 63.074219 11.476562 C 63.238281 11.476562 63.683594 9.324219 63.570312 9.042969 C 63.425781 8.652344 64.046875 6.28125 64.367188 6.011719 C 64.851562 5.617188 65.359375 4.242188 65.367188 3.328125 C 65.367188 3.132812 64.945312 3.164062 64.78125 3.371094 C 64.644531 3.535156 64.632812 3.527344 64.675781 3.246094 C 64.707031 3.082031 64.757812 2.761719 64.800781 2.542969 C 64.871094 2.191406 64.851562 2.117188 64.5625 1.839844 C 64.261719 1.550781 64.222656 1.527344 63.960938 1.664062 C 63.808594 1.734375 63.445312 2.117188 63.15625 2.511719 C 62.691406 3.164062 62.628906 3.296875 62.597656 3.890625 C 62.566406 4.25 62.605469 4.75 62.667969 5.007812 C 62.761719 5.390625 62.761719 5.515625 62.636719 5.710938 C 62.554688 5.835938 62.410156 6.144531 62.316406 6.40625 C 62.214844 6.664062 62.078125 7.027344 61.996094 7.203125 C 61.832031 7.605469 61.605469 8.132812 61.398438 8.609375 C 61.3125 8.785156 61.148438 9.179688 61.023438 9.457031 C 60.890625 9.75 60.746094 10.140625 60.695312 10.339844 C 60.425781 11.375 60.28125 12.222656 60.34375 12.449219 C 60.382812 12.605469 60.808594 13.042969 61.417969 13.546875 C 63.3125 15.121094 63.695312 15.464844 63.808594 15.691406 C 63.859375 15.816406 64.046875 16.003906 64.199219 16.105469 C 64.355469 16.199219 64.75 16.488281 65.058594 16.746094 C 65.367188 16.996094 65.730469 17.246094 65.855469 17.308594 C 66.414062 17.554688 66.207031 18.050781 65.164062 18.953125 C 64.738281 19.316406 64.242188 19.8125 64.066406 20.039062 C 63.777344 20.421875 63.746094 20.527344 63.796875 20.972656 C 63.828125 21.242188 63.984375 21.75 64.148438 22.089844 C 64.695312 23.238281 64.945312 24.222656 65.058594 25.746094 C 65.140625 26.851562 65.203125 27.226562 65.359375 27.433594 C 65.515625 27.648438 65.566406 27.960938 65.617188 29.089844 C 65.660156 29.855469 65.710938 30.902344 65.742188 31.40625 C 65.792969 32.207031 65.742188 32.609375 65.429688 34.171875 C 65.132812 35.664062 65.058594 36.242188 65.058594 37.238281 C 65.058594 37.992188 65.015625 38.5 64.945312 38.574219 C 64.871094 38.644531 64.851562 38.863281 64.894531 39.140625 C 65.007812 39.867188 64.984375 40.074219 64.757812 40.828125 C 64.632812 41.234375 64.5 41.980469 64.46875 42.484375 C 64.429688 43.023438 64.324219 43.605469 64.210938 43.863281 C 64.066406 44.226562 64.023438 44.578125 64.023438 45.582031 C 64.023438 47 64.023438 47.011719 63.25 47.371094 C 62.835938 47.558594 62.835938 47.558594 62.722656 48.386719 C 62.660156 48.84375 62.546875 49.679688 62.484375 50.261719 C 62.421875 50.839844 62.316406 51.441406 62.265625 51.605469 C 62.214844 51.773438 62.121094 52.113281 62.046875 52.375 C 61.851562 53.109375 61.757812 53.429688 61.574219 53.976562 C 61.46875 54.289062 61.386719 54.890625 61.375 55.457031 C 61.355469 56.359375 61.324219 56.472656 60.992188 57.011719 C 60.808594 57.34375 60.402344 58.027344 60.105469 58.542969 C 59.566406 59.484375 59.566406 59.496094 58.820312 59.828125 C 57.964844 60.210938 57.816406 60.367188 57.816406 60.8125 C 57.816406 61.101562 57.910156 61.203125 58.625 61.722656 C 59.378906 62.269531 59.441406 62.300781 59.875 62.238281 C 60.136719 62.207031 60.601562 62.0625 60.910156 61.917969 Z M 47.847656 40.632812 C 47.703125 40.4375 47.578125 40.207031 47.578125 40.125 C 47.578125 40.042969 47.785156 39.691406 48.035156 39.347656 C 48.28125 39.007812 48.507812 38.625 48.53125 38.488281 C 48.539062 38.367188 48.613281 38.242188 48.664062 38.21875 C 48.871094 38.160156 49.015625 38.601562 49.035156 39.339844 C 49.058594 39.960938 49.027344 40.105469 48.859375 40.25 C 48.746094 40.34375 48.59375 40.539062 48.507812 40.707031 C 48.324219 41.078125 48.179688 41.058594 47.847656 40.632812 Z M 47.847656 40.632812 "
    />
    <path
      d="M 39.273438 39.328125 C 38.953125 38.75 38.910156 38.066406 39.167969 37.546875 C 39.242188 37.390625 39.304688 37.207031 39.304688 37.132812 C 39.304688 37.050781 39.550781 36.71875 39.863281 36.386719 L 40.421875 35.777344 L 40.597656 36.171875 C 40.773438 36.53125 40.792969 36.8125 40.761719 38.355469 C 40.75 38.644531 40.648438 38.832031 40.222656 39.285156 C 39.925781 39.597656 39.65625 39.847656 39.625 39.847656 C 39.59375 39.847656 39.425781 39.609375 39.273438 39.328125 Z M 44.878906 33.820312 C 44.804688 33.6875 44.652344 33.457031 44.515625 33.292969 C 44.144531 32.847656 44.09375 32.183594 44.382812 31.65625 C 44.714844 31.066406 44.941406 30.933594 45.148438 31.199219 C 45.230469 31.316406 45.375 31.554688 45.449219 31.738281 C 45.644531 32.183594 45.59375 33.417969 45.355469 33.777344 C 45.136719 34.109375 45.035156 34.121094 44.878906 33.820312 Z M 39.34375 31.738281 C 38.992188 31.335938 38.921875 31.179688 38.808594 30.445312 C 38.683594 29.679688 38.691406 29.566406 38.859375 29.242188 C 39.054688 28.859375 40.390625 27.691406 40.523438 27.773438 C 40.574219 27.804688 40.585938 28.230469 40.566406 28.726562 C 40.523438 29.449219 40.472656 29.699219 40.277344 29.988281 C 39.996094 30.394531 39.914062 30.777344 39.957031 31.554688 C 39.964844 31.894531 39.933594 32.121094 39.863281 32.152344 C 39.800781 32.175781 39.5625 31.988281 39.34375 31.738281 Z M 39.34375 31.738281 "
    />
  </g>
</svg>
