<svg xmlns="http://www.w3.org/2000/svg" id="root" viewBox="820.15 231.51 9667.96 6567.71">
  <path
    d="M10210 6786c0-8-16-84-36-168-35-150-35-154-20-204 13-42 15-77 10-185-6-118-10-138-31-169-29-44-29-61 3-99 23-27 24-32 11-53-8-13-27-74-42-137-19-78-35-120-49-133-63-58-117-115-121-130-4-9 1-30 9-47 15-28 15-32-6-67l-22-37 35-31c33-29 35-35 37-101 4-119 30-201 129-400 38-78 56-130 88-264 12-48 25-75 54-106 101-109 109-156 92-507-13-263-22-309-83-416-25-44-63-153-55-157 1-1 23-11 48-22 25-12 51-28 57-36 11-13 62-194 98-352 9-38 20-74 25-80 5-5 9-20 9-33 0-14 10-57 21-96 21-69 21-77 9-251-7-99-12-243-12-320 1-77-4-160-10-185-13-52-56-129-78-141-56-29-135-60-192-74-46-12-69-23-73-35-15-48-101-90-183-90-39 0-44-3-59-35-22-45-8-77 45-104 81-41 113-114 97-219-3-26-7-104-8-173-2-118-4-130-32-187-16-34-36-62-43-62s-28-11-45-24c-91-70-188-83-421-58-126 13-163 30-226 97-13 14-39 35-57 46-38 24-41 46-13 82 11 14 20 28 20 32s9 20 20 35c19 26 19 33 8 102-6 40-11 129-9 198 2 106 0 128-13 139-23 19-20 45 9 79 25 30 86 52 145 52 37 0 39 5 43 101l3 76-38 29c-21 15-41 39-44 51-6 24-30 31-36 11-3-9-14-7-41 5-20 10-37 22-37 26 0 10-50 23-107 27-29 2-43-1-47-12-4-9-21-14-55-14-58 0-81 7-81 25 0 7-6 15-12 18-10 3-10 9 0 27 12 20 11 25-19 56-31 32-32 35-16 52 15 17 15 20 0 41-13 19-13 25-2 32s12 12 2 28c-22 36-6 51 52 51 30 0 56 3 59 8 2 4-9 46-26 92-16 47-38 119-48 160-31 128-36 133-68 63-23-51-105-143-126-143-22 0-36 23-36 62 0 21-3 38-7 38-17 0-72-40-89-65-45-65-70-86-106-92l-38-6v93c0 149 31 222 144 334 72 71 78 81 67 99-61 97-71 142-71 320v145l55 21c30 11 80 30 110 42s58 19 63 17c4-1 56-30 115-62 85-47 109-65 113-85 30-143 70-251 95-251 23 0 20 61-11 194-59 255-59 224 5 311 47 63 58 86 66 138 7 42 7 73 0 97-6 19-19 69-30 110s-47 132-80 202c-34 70-61 134-61 141s-4 17-9 23c-14 16-100 240-157 412-30 92-59 176-64 187-23 52-62 187-73 255-2 14-19 88-37 165-30 130-32 149-27 265 5 106 32 293 65 455 5 22 30 73 55 113 40 61 47 80 47 122 0 29 20 121 50 226 28 97 50 189 50 204 0 16 4 40 10 54l10 26h245c243 0 245 0 245-21 0-12-4-38-10-58-5-20-28-119-51-220-41-180-41-185-26-230 8-25 18-70 22-99 6-51 3-58-40-133-26-43-50-79-55-79-4 0-20-24-36-54-26-50-27-55-12-78 15-22 14-27-3-63-24-48-24-50 2-87 17-23 20-39 16-71-10-70 41-238 95-317 25-36 65-99 89-140l44-75 7 85c3 47 6 135 7 197 1 65 9 152 20 210 11 54 23 120 26 146 6 37 20 64 62 118 52 67 54 73 53 127-1 45 6 74 33 138 20 46 40 116 47 160 11 73 39 185 61 244 13 36 29 155 29 221 0 62 13 85 50 92 14 2 100 5 193 6 139 1 167-1 167-13z"
  ></path>
  <path
    d="M4670 6161c-14-5-51-16-82-25-64-19-76-33-82-96-4-50-7-53-75-79-49-18-57-19-71-6-25 23-86 18-190-15-52-16-107-30-122-30-55 0-91-78-67-146 7-22 14-51 14-67 1-31 32-59 57-51 9 3 25 0 35-5 10-6 37-15 61-21 32-8 45-18 53-37 5-15 19-33 29-40 11-8 20-21 20-29 0-29 34-9 42 25 11 40 29 70 80 132 21 25 38 53 38 62 0 17 28 37 53 37 8 0 17-13 21-30 7-36 46-44 46-10 0 19 10 24 38 21 6-1 12 3 12 9s11 8 28 5c15-4 37-8 49-11 26-5 47-56 30-73-8-8-3-11 19-11 25 0 50 18 127 90 53 50 104 90 112 90 12 0 15-14 15-62 1-81 13-98 73-98 37 0 47 4 52 20 4 12 21 24 45 30 28 8 55 29 99 77 51 55 63 64 76 53 12-10 16-9 21 4 14 37 24 11 24-65 0-71-2-80-15-69s-15 8-15-19c0-30 2-31 41-31 38 0 40 1 37 28-5 41 23 34 38-10 12-35 11-38-6-38-13 0-17-5-13-20 7-27 21-34 38-20 11 9 16 7 25-9 9-18 8-21-10-21-36 0-21-17 44-49 70-34 99-39 90-16-5 11 1 15 25 15 18 0 49 9 70 20 21 10 42 16 46 12 10-11 33 27 28 46-7 28 34 72 68 72 49 0 37 32-23 63-29 15-80 43-112 61-33 19-63 33-67 31-4-3-12 1-18 9-6 7-33 16-59 20-40 6-49 11-62 38-8 17-24 36-35 42s-35 23-53 39c-28 23-41 27-98 27-59 0-65 2-73 24-10 24-29 36-59 36-8 0-24 7-33 16-25 22-147 31-202 15-23-7-66-24-94-37-62-28-83-23-84 20-2 60-3 61-39 63-19 1-46-2-60-6z"
  ></path>
  <path
    d="M4620 4907c0-7 9-23 20-35 15-16 20-35 20-77 0-30-4-55-9-55-6 0-11-19-13-42-2-30-8-43-18-43-12 0-15 23-18 133-2 85 1 132 8 132 5 0 10-6 10-13zm-136-1072c2 17 9 48 16 70 6 22 15 56 19 75 5 19 18 59 30 89 12 29 19 62 15 73-10 34 18 110 49 127 15 9 29 23 32 31s18 30 35 48c16 19 34 49 40 68 13 38 34 47 95 42 53-4 78-40 81-115 1-32-4-77-12-101-31-93-13-156 70-246 24-27 50-62 57-77 15-38 29-37 29 4 0 39 17 89 48 141 33 55 54 116 53 151-1 17 3 37 8 45 7 10 0 32-24 75-18 33-41 80-50 105s-25 63-35 85c-25 53-32 86-37 173-5 80 4 102 42 102 33 0 75-37 75-66 0-14 8-41 19-62 11-22 17-49 14-67-7-44 29-71 84-66 8 1 11 23 8 78-3 52 0 91 10 121 35 103 62 127 100 92 13-12 25-18 28-13 11 17-9 142-26 161-9 10-17 21-17 25 0 17-59 89-120 148-65 61-91 101-95 141-1 9-5 36-9 59-9 58 2 123 25 148 14 14 32 21 59 21 38 0 75-23 65-41-9-14 25-58 41-52 15 5 16 1 19-57 5-72 25-110 61-110 7 0 21-15 33-32 11-18 38-51 60-73 47-44 44-49 41 81-2 107 13 139 72 150 61 12 61 12 69-16l6-25 11 28c10 24 8 33-13 67-14 22-25 42-25 45s-12 22-27 41c-38 49-91 74-154 74-60 0-119 30-119 61 0 26 7 24 37-12 19-22 33-29 52-27 35 4 36 40 1 48-18 4-26 13-28 33-3 23-7 27-23 22-36-12-59 21-59 84 0 31 4 62 9 69 8 13-17 81-30 82-4 0-19-17-35-37-63-83-127-143-165-153-23-6-40-18-44-30-9-27-39-25-53 3-6 12-13 49-14 82-3 65-13 74-64 61-39-10-242-204-246-235-4-34-61-51-107-32-26 11-31 20-36 60-3 25-10 56-16 69-5 13-9 32-9 43 0 25-25 35-53 22-12-6-34-15-49-22-16-6-28-18-28-28 0-9-18-38-39-64-77-91-86-118-83-256l2-121 89.38-189.3c40.32-414 41.24-1182.83 134.62-1297.7Z"
  ></path>
  <path
    d="M1560 6152c0-5-39-48-86-97l-86-87 17-38c10-21 29-50 44-63 32-31 494-367 498-363 11 11-115 242-193 354-59 84-92 141-89 152 3 10-12 34-40 64-25 27-45 57-45 67 0 11-4 19-10 19-5 0-10-4-10-8zm744 439c25-14 35-30 53-91l22-74-34-42c-38-46-84-72-160-89l-50-11-22-75c-28-95-29-139-5-139 9 0 23-10 31-22 8-13 27-39 43-58 60-75 244-307 271-343 21-27 27-45 23-62-5-18-1-25 16-30 26-9 93-76 113-115 8-16 21-33 27-37 30-19 52-79 56-154 4-73 3-79-27-122-17-25-31-50-31-55s-9-17-21-28c-12-10-30-37-41-59-36-70-94-148-294-399-45-55-98-135-119-175-20-41-47-91-60-110-12-20-42-74-67-121-24-47-59-106-77-130-18-25-43-64-54-88-20-41-21-44-4-75 12-23 17-64 20-142 3-108 22-185 46-193 6-2 18 4 27 13 10 9 24 13 36 10 10-4 30 0 43 9s30 13 38 10 17 2 20 10c7 18 38 21 53 6 7-7 18-4 34 10 27 24 60 26 60 5 0-16 29-20 102-16 36 3 37 1 48-41 18-69 19-71 38-62 51 22 101 16 184-22 45-22 89-38 99-36 17 3 29-23 29-68 0-15 5-31 11-37 7-7 8-20 3-34-4-13-7-28-6-32 4-16-28-111-41-119-18-12-71-10-103 4-16 7-54 32-84 54-65 49-131 76-137 57-3-7-14-14-26-14-16-1-14-3 8-8 25-5 31-12 33-38 3-29 1-32-30-36-29-3-28-4 10-5 40-2 42-4 42-32 0-16-3-30-7-30-5 0-14-4-22-9-10-7-11-13-1-31 18-35-10-52-80-49-30 2-55-1-55-7 4-84 21-205 36-267 21-83 19-128-9-181-12-25-12-31 0-40 16-13 68-133 68-158 0-15 10-18 68-18 84 0 113-20 111-78-2-64 13-157 27-165 21-12 17-50-10-89-13-19-28-62-34-96-6-33-20-80-32-103l-20-44 20-27c21-29 26-48 12-48-5 0-14-11-20-26-17-36-74-56-172-60-47-2-111-6-142-10-68-7-85 1-225 113-68 54-93 81-98 103-5 21-12 30-23 28-25-4-31 151-7 168 16 12 45 124 45 171 0 17-6 23-23 23-13 0-32 9-41 19-10 11-28 22-40 25-13 3-35 23-49 44-23 35-35 42-125 71-55 18-106 38-112 46-7 8-18 15-24 15-32 0-98 93-169 235-41 83-95 182-121 220-25 39-46 77-46 86 0 8-13 33-28 55-16 21-37 62-47 89-10 28-28 74-41 103s-24 57-24 62-14 25-30 43c-34 39-36 53-15 120 8 26 12 47 10 47s17 20 43 45c37 37 55 46 95 51 32 5 50 12 54 23 2 9 13 37 23 62l18 47-55 110-55 110 1 128c1 99 7 150 25 219 25 94 91 245 108 245 6 0 27 13 47 28 20 16 58 39 86 51 53 25 138 80 143 93 2 4 9 8 15 8 7 0 59 41 117 91s138 109 177 132c77 44 88 61 49 71-13 3-41 28-62 56-26 34-41 46-49 40s-36 11-87 53c-42 34-130 104-196 155-95 73-124 102-136 133-15 38-17 39-64 39-44 0-54 5-109 53-34 28-99 84-147 122-73 60-86 74-86 101 0 20-10 39-30 59-16 16-30 39-30 51s-7 27-15 34c-18 15-20 30-4 30 6 0 41 21 77 48 77 55 108 74 217 135 44 25 114 70 155 101 72 53 101 65 201 81 35 5 38 3 63-37l26-43-6 51-6 51 98 70c196 139 260 180 289 185 17 3 55 13 85 21s69 17 85 19c61 6 158-4 189-21zM4803 1750c4-14 7-51 7-82 0-66 15-76 43-27 25 44 22 61-19 100-35 32-36 33-31 9zM3160 5626c36-1 72 1 81 5 46 22 91-33 103-126 6-42 1-64-25-135-28-73-33-101-36-194-3-97-1-118 23-188 14-43 30-78 36-78 5 0 8-10 7-22-1-13 3-42 10-66 6-23 14-97 16-164 4-119 5-122 35-153 25-25 30-39 30-77 0-26-4-49-9-52-15-10 11-78 32-84 17-4 19-12 15-53-3-27-1-49 4-49s8-17 7-37c-5-78 1-164 11-158 16 10 24-25 13-56-9-22-7-45 9-106 11-42 26-126 33-186 12-96 17-113 41-138 57-60 165-24 205 67 19 45 141 228 160 239 5 4 7 10 4 15-3 4 2 13 10 20s13 16 10 20c-7 12 41 100 63 116 11 7 23 29 26 48 4 19 13 39 21 46s15 26 15 43 8 35 17 42c23 17 35 151 16 167-7 6-11 13-8 17 2 4-1 26-7 49-11 44-4 97 12 87 6-3 10-3 10 2 1 4 6 51 13 104 8 58 10 125 6 170-5 54-2 96 10 155 15 70 16 88 4 125-7 24-13 45-13 45-1 7 128 124 136 124 12 0 92-99 114-140 14-27 17-217 4-349-6-72-6-73 14-62 29 15 29 15 36-26 20-123 19-142-9-205-26-57-27-67-20-142 11-117 8-161-15-230-11-33-29-102-40-152-21-96-83-259-194-509l-67-150 28-20c62-45 106-91 131-139 23-45 27-65 30-173 4-112 2-126-19-168-13-26-40-62-61-81s-38-36-38-39c0-5 84-134 130-200 20-29 122-185 207-315 23-36 83-106 135-156 83-81 99-92 139-98 35-5 49-3 59 9 17 21 43 19 66-6 15-17 16-23 6-40-11-17-9-19 11-19 13 0 32-9 42-20 18-20 18-21-5-53-12-17-17-26-9-19 17 16 54 15 68-2 7-8 9-25 5-40-5-20-12-26-35-26-28 0-29-2-29-48 0-26-8-70-19-98-10-28-21-67-25-86-3-19-15-43-26-53-17-15-26-16-62-7-24 6-68 14-98 18s-79 15-110 25c-67 23-80 23-80 4 0-10-11-15-35-15-61 0-70 58-12 79 17 6 17 8 3 20-13 11-16 11-16-2 0-19-48-31-66-16-23 19-17 58 10 69 19 7 23 14 19 31-6 22-6 22-25-5-35-48-78-28-78 36v38h44c40 0 43 2 39 24-3 16 2 28 17 39 28 20 49 12 56-22 14-65 36-100 75-115 42-17 99-21 99-8 0 5-27 37-61 72s-65 73-70 85c-26 56-298 395-318 395-9 0-22 5-29 12-6 6-13 10-16 7-19-21-115-180-121-199-7-25-39-104-78-193-37-85-100-117-232-117-77 0-103-4-140-22-42-20-45-24-40-53 3-16 1-80-4-140-8-88-15-120-36-157-31-55-26-61 54-62 41-1 56-5 56-15 0-8-8-15-18-17-9-1-30-15-45-31-15-15-36-33-47-39-17-9-18-14-7-27s9-16-18-22c-25-5-36-2-51 14-11 12-27 21-35 21-13 0-12-5 5-29l21-29-75-7c-66-6-80-4-111 14-19 12-43 21-52 21-31 0-82 40-112 87-25 40-30 57-30 112 0 37-7 89-16 116-29 96 9 205 82 232 21 8 51 17 67 20 42 8 33 26-11 21-33-5-39-2-50 20-7 14-12 36-12 49 0 30-30 56-127 109-84 46-139 97-147 137-9 42-19 162-17 200 4 100 4 150-4 250-5 73-4 130 4 175 6 37 18 109 27 160 19 116 25 127 75 129 21 1 47 7 58 12 11 6 31 11 46 11 38 0 105 23 105 36s-22 24-49 24c-30 0-103 71-127 124-32 68-33 167-3 232 22 46 69 89 104 96 18 3 20 13 22 128 1 69 8 226 14 350 18 325 15 381-25 450-54 92-75 146-69 170 5 20 3 22-19 18-25-5-26-2-37 66-6 39-12 175-15 303-3 196-2 234 11 245 10 8 13 22 9 42-44 258-43 292 4 419 22 57 36 69 80 61 14-3 54-6 90-8zm805-3253c4-21 9-40 11-42 3-3 16 7 31 21 22 23 24 29 13 42-7 9-24 16-37 16-24 0-25-2-18-37zM6709 6212c31-13 117-61 192-106 121-71 140-87 167-131 28-47 29-54 21-110-6-44-5-64 5-75 7-8 23-58 35-110 13-52 27-103 32-112 6-10 5-34-3-62-12-44-11-45 25-89 26-32 40-63 52-113 26-116 69-264 76-264 3 0 19 19 35 42 16 22 43 47 61 55 25 10 33 20 33 38 0 27 120 230 147 250 14 11 14 17-10 68-21 47-32 58-72 76-73 32-120 74-134 121-19 65-10 77 70 90 40 7 91 9 121 5 46-7 60-15 113-66 50-47 64-56 75-46 10 10 12 9 7-5-4-10 1-18 14-21 10-3 19-1 19 4 0 16 17 10 43-17 15-15 33-24 41-21 9 4 16-3 20-16 5-18 8-19 15-8 8 12 12 12 25 2 9-8 16-19 16-25s10-16 23-21c34-15 36-82 3-138-14-24-26-53-26-65 0-29-142-255-168-267-12-5-25-19-27-30-17-64-31-104-47-133-10-18-18-39-18-47s-4-15-9-15-15-15-22-32c-34-84-168-248-202-248-8 0-21-8-31-18-14-17-15-23-3-58 8-21 26-91 41-155l27-117 63-4c55-3 87-15 232-85 93-45 183-85 200-88s78-33 135-66c77-45 118-62 158-67l54-7-94-140c-52-77-120-176-150-220-174-252-176-257-182-318-7-71-50-188-88-241-16-22-29-45-29-51s-27-37-61-70c-76-75-92-111-79-171 10-44 89-202 118-236 7-9 11-21 8-26-7-12 13-72 24-72 4 0 10-8 13-18 41-144 46-174 48-311l3-144-31-26c-28-24-59-69-51-76 2-1 32 14 68 34 94 54 101 56 90 25-6-14-10-41-10-61 0-34 1-35 33-29 59 12 71 11 75-4 4-21-48-87-73-94-11-3-31-15-45-25l-25-20 23-23c27-30 28-38 3-38-26 0-105-90-91-104 7-7 21 1 45 24 33 32 35 33 35 11 0-38-39-93-101-144-33-26-59-52-59-57 0-6 15-10 34-10 45 0 53-14 18-29-15-7-40-23-57-36l-30-25h25c28 0 67-20 41-20-11 0-10-4 4-14 17-12 17-13-8-20-15-3-34-17-43-31s-20-25-25-25-34-16-65-36c-58-37-60-53-7-54 16 0 25-8 29-25 8-34-1-42-25-21-26 23-61 13-61-18 0-12 14-78 30-147 17-68 32-133 35-144 2-11 27-32 57-49 49-27 128-100 154-143 19-32 38-125 26-132-6-3-12-20-15-36-3-27-7-30-46-33-31-2-49 2-63 15-15 13-22 15-25 6-9-24-26-13-120 80-107 104-149 173-164 271-6 33-31 111-56 171-25 61-53 132-62 159-19 54-42 76-71 69-11-3-31 2-44 10-23 15-24 15-30-6-8-31-27-9-35 40-6 38-6 38-59 41-28 2-52 7-52 11 0 5 9 19 19 33 19 24 19 24-5 47-15 14-24 35-24 53 0 16-5 38-10 48-7 13-7 21 1 25 12 8 49-23 49-41 0-15 38-44 59-44 11 0 13 17 7 99-4 65-3 102 4 106 13 8 13 75 1 75-6 0-40-23-77-51-38-28-87-61-111-72-39-19-56-37-35-37 16 0 59-208 48-235-14-38 46-267 77-293 47-38 96-171 97-259 0-19-41-16-57 4-13 16-14 15-10-12 3-16 8-47 12-68 7-34 5-41-23-68-29-28-33-30-58-17-15 7-50 44-78 82-45 63-51 76-54 133-3 35 1 83 7 108 9 37 9 49-3 68-8 12-22 42-31 67-10 25-23 60-31 77-16 39-38 90-58 136-8 17-24 55-36 82-13 28-27 66-32 85-26 100-40 182-34 204 4 15 45 57 104 106 183 152 220 185 231 207 5 12 23 30 38 40 15 9 53 37 83 62 30 24 65 48 77 54 54 24 34 72-67 159-41 35-89 83-106 105-28 37-31 47-26 90 3 26 18 75 34 108 53 111 77 206 88 353 8 107 14 143 29 163 15 21 20 51 25 160 4 74 9 175 12 224 5 77 0 116-30 267-29 144-36 200-36 296 0 73-4 122-11 129s-9 28-5 55c11 70 9 90-13 163-12 39-25 111-28 160-4 52-14 108-25 133-14 35-18 69-18 166 0 137 0 138-75 173-40 18-40 18-51 98-6 44-17 125-23 181s-16 114-21 130-14 49-21 74c-19 71-28 102-46 155-10 30-18 88-19 143-2 87-5 98-37 150-18 32-57 98-86 148-52 91-52 92-124 124-83 37-97 52-97 95 0 28 9 38 78 88 73 53 79 56 121 50 25-3 70-17 100-31zM5446 4156c-14-19-26-41-26-49s20-42 44-75 46-70 48-83c1-12 8-24 13-26 20-6 34 37 36 108 2 60-1 74-17 88-11 9-26 28-34 44-18 36-32 34-64-7z"
  ></path>
  <path
    d="M4617 4030c-31-56-35-122-10-172 7-15 13-33 13-40 0-8 24-40 54-72l54-59 17 38c17 35 19 62 16 211-1 28-11 46-52 90-29 30-55 54-58 54s-19-23-34-50zM5159 3498c-7-13-22-35-35-51-36-43-41-107-13-158 32-57 54-70 74-44 8 11 22 34 29 52 19 43 14 162-9 197-21 32-31 33-46 4zM4624 3297c-34-39-41-54-52-125-12-74-11-85 5-116 19-37 148-150 161-142 5 3 6 44 4 92-4 70-9 94-28 122-27 39-35 76-31 151 1 33-2 55-9 58-6 2-29-16-50-40z"
  ></path>
</svg>
