<svg id="root" id="outputsvg" xmlns="http://www.w3.org/2000/svg" width="1120" height="692" viewBox="0 0 11200 6920">
  <g id="l2WvyuFkm2aL3JKZB7KiQbF" fill="none" stroke="rgb(172,26,189)" stroke-width="10">
    <g>
      <path id="pOz9P3rUV"
        d="M0 3460 l0 -3460 5600 0 5600 0 0 3460 0 3460 -5600 0 -5600 0 0 -3460z m9479 3371 c27 -21 31 -73 12 -153 -6 -27 -15 -67 -20 -90 -6 -24 -15 -63 -21 -88 -25 -98 -32 -199 -20 -268 25 -147 26 -137 -19 -204 -23 -34 -41 -65 -41 -71 0 -5 -13 -26 -30 -46 -28 -36 -29 -42 -31 -147 -1 -60 -1 -146 -1 -192 l1 -83 43 3 43 3 8 60 c22 161 32 193 89 272 30 41 38 61 38 96 0 28 16 82 45 156 30 74 48 135 52 177 3 36 10 67 14 70 5 3 9 20 9 39 0 19 5 37 10 40 6 3 10 17 10 30 0 13 5 27 10 30 6 3 10 26 10 50 0 24 5 47 10 50 6 3 10 37 10 75 0 74 33 170 68 196 13 10 71 13 239 14 l222 0 17 -32 c19 -36 18 -43 -26 -245 -19 -84 -23 -150 -11 -157 19 -12 15 -295 -5 -342 -12 -29 -15 -55 -10 -101 4 -34 2 -70 -3 -80 -10 -20 -28 -96 -37 -163 -9 -60 -23 -85 -82 -146 l-49 -52 -8 -94 c-6 -83 -4 -98 13 -129 14 -25 21 -62 26 -138 4 -72 12 -115 25 -140 67 -129 132 -273 140 -311 5 -25 15 -62 20 -82 6 -21 15 -54 20 -73 5 -20 26 -56 48 -81 59 -70 83 -106 89 -133 3 -14 10 -42 15 -61 6 -20 8 -83 5 -150 -3 -63 -9 -189 -14 -280 -8 -176 -25 -247 -77 -336 -30 -52 -34 -121 -7 -131 43 -15 55 -39 94 -188 5 -22 14 -50 19 -63 5 -13 9 -36 9 -52 0 -16 4 -31 9 -34 5 -3 11 -20 14 -38 2 -18 15 -69 27 -113 12 -44 27 -98 33 -120 13 -47 14 -440 2 -537 -5 -48 -4 -76 5 -98 14 -33 6 -87 -27 -190 -16 -50 -50 -110 -63 -110 -4 0 -5 20 -2 45 l5 45 -39 0 c-51 0 -94 -40 -94 -87 0 -32 1 -33 43 -33 24 0 49 6 57 13 8 6 6 2 -4 -11 -26 -30 -129 -86 -193 -105 -29 -9 -63 -27 -75 -40 -13 -13 -44 -33 -70 -45 -48 -22 -48 -22 -48 -71 0 -32 5 -51 14 -54 7 -3 21 -29 30 -59 15 -47 16 -78 8 -258 -8 -179 -12 -210 -31 -248 -28 -54 -85 -119 -125 -139 -17 -9 -33 -19 -36 -22 -6 -8 -59 -32 -121 -55 -47 -18 -42 -18 -309 -1 -47 3 -96 11 -110 17 -57 25 -88 43 -132 82 -27 23 -68 58 -93 80 -39 33 -45 44 -45 77 0 21 5 41 10 44 6 4 23 25 37 48 l26 42 -13 100 c-7 55 -12 109 -11 120 1 11 2 82 4 157 l2 137 30 31 c34 36 94 70 125 70 17 0 20 6 20 43 0 35 -6 49 -36 80 l-36 37 35 0 c37 0 47 12 47 58 0 24 -7 30 -78 56 -93 34 -159 42 -217 26 -52 -14 -85 -6 -85 21 0 17 -6 20 -37 17 -37 -3 -38 -4 -41 -47 -2 -28 1 -47 10 -52 7 -4 9 -11 5 -16 -11 -11 -47 37 -47 63 0 11 -9 29 -20 39 -18 16 -20 31 -20 135 0 69 4 120 11 127 6 6 9 28 7 49 -3 35 -6 39 -32 42 -15 2 -41 -2 -58 -9 -22 -9 -32 -9 -41 0 -14 14 -107 15 -107 1 0 -5 -5 -10 -11 -10 -6 0 -24 -13 -39 -30 -40 -43 -88 -42 -135 4 l-35 34 0 94 c0 136 44 248 137 348 56 61 65 90 42 147 -30 73 -50 303 -29 329 8 9 10 32 6 68 -7 50 -5 55 20 75 15 12 39 24 53 28 14 3 31 9 36 13 6 3 30 12 55 20 25 7 49 17 54 22 6 4 20 8 32 8 13 0 25 4 29 9 3 6 31 -3 61 -20 75 -39 117 -38 152 2 14 17 34 48 45 68 10 20 25 41 33 47 10 8 14 37 14 112 0 103 -18 196 -45 238 -8 13 -15 28 -15 35 0 6 -16 46 -36 88 -20 42 -42 90 -49 106 -7 17 -27 60 -44 98 -17 37 -31 74 -31 82 0 9 -9 34 -19 58 -11 23 -29 71 -42 107 -12 36 -46 135 -76 220 -56 159 -86 257 -104 345 -11 51 -21 91 -40 168 -5 23 -15 62 -21 87 -14 59 -14 217 1 305 6 39 14 97 17 130 4 33 10 64 15 70 5 5 9 20 9 34 0 52 44 186 69 212 42 43 51 65 51 126 0 32 7 78 16 103 9 25 22 68 29 95 48 179 64 246 70 287 4 34 13 53 32 68 24 19 39 20 302 20 251 0 278 -2 300 -19z m-7183 -165 c71 -29 101 -54 109 -92 3 -16 10 -43 15 -60 6 -17 10 -39 10 -50 0 -11 5 -25 11 -31 14 -14 -5 -51 -35 -73 -12 -8 -41 -33 -66 -55 -55 -50 -94 -75 -116 -75 -33 0 -54 -31 -54 -77 0 -38 8 -55 61 -126 61 -81 95 -123 177 -216 23 -26 42 -52 42 -58 0 -5 16 -25 36 -44 20 -18 45 -52 56 -74 12 -22 40 -62 63 -90 68 -81 145 -201 145 -226 0 -12 5 -38 12 -56 21 -58 -23 -166 -110 -270 -18 -21 -56 -78 -84 -126 -29 -49 -76 -116 -105 -150 -29 -33 -53 -66 -53 -72 0 -6 -12 -22 -26 -36 -14 -13 -47 -51 -72 -84 -26 -33 -54 -66 -64 -73 -10 -7 -18 -21 -18 -32 0 -19 -83 -184 -106 -210 -7 -9 -28 -43 -45 -75 -17 -33 -49 -87 -71 -120 -36 -55 -39 -64 -33 -110 3 -27 9 -95 13 -150 l7 -100 36 -3 c20 -2 70 6 112 17 81 22 231 29 242 11 3 -5 16 -10 28 -10 12 0 37 -17 58 -40 32 -35 42 -40 79 -40 30 0 66 -12 119 -39 42 -21 88 -41 103 -45 31 -7 68 -62 68 -100 0 -47 17 -66 59 -66 33 0 45 7 80 45 22 24 41 49 41 55 0 5 7 10 16 10 15 0 16 17 10 178 -5 134 -3 206 9 297 8 66 15 165 15 221 l0 101 -50 89 c-27 49 -58 96 -68 104 -10 8 -23 31 -29 50 -18 57 -35 354 -29 505 9 213 9 222 -2 346 -11 115 -10 118 17 200 17 50 41 97 58 117 26 27 37 32 77 32 26 0 55 4 64 8 10 5 64 4 122 -2 l104 -11 28 -40 c32 -47 68 -136 68 -169 0 -13 -14 -56 -31 -97 -24 -58 -33 -99 -41 -194 -10 -113 -10 -123 9 -165 56 -122 76 -203 83 -335 4 -91 12 -140 23 -162 10 -20 17 -55 17 -92 0 -33 5 -63 10 -66 6 -3 10 -15 10 -26 0 -16 -7 -19 -45 -19 l-45 0 0 -70 c0 -39 4 -78 9 -88 5 -9 12 -25 15 -34 4 -13 16 -18 42 -18 l37 0 -7 103 c-5 71 -4 97 3 87 6 -8 11 -31 11 -51 0 -20 8 -51 17 -70 11 -22 19 -73 24 -144 4 -60 11 -128 17 -150 25 -102 35 -156 41 -230 l6 -80 42 -3 c45 -3 76 19 87 62 8 32 113 206 136 225 25 20 130 216 130 241 0 10 5 22 10 25 6 3 10 19 10 35 0 16 4 32 10 35 14 9 13 88 -2 120 -9 21 -9 31 1 47 19 30 31 171 31 365 0 104 4 174 10 178 12 8 13 145 1 163 -20 33 69 151 152 201 l39 24 -4 129 c-3 120 -5 131 -25 148 -13 10 -27 29 -32 43 -8 19 -21 29 -53 37 -24 6 -51 15 -60 20 -10 6 -26 10 -37 10 -35 0 -51 12 -51 38 0 14 -5 40 -12 58 -16 44 4 92 41 99 38 8 128 31 194 51 53 16 59 16 75 0 25 -22 66 -20 132 5 73 28 80 35 80 81 0 70 11 79 137 111 l52 14 7 -46 c4 -25 12 -49 18 -53 22 -15 76 -8 128 16 29 13 72 30 95 36 48 15 126 6 143 -15 7 -8 21 -15 30 -15 32 0 51 -12 61 -36 8 -22 14 -24 73 -24 57 0 70 -4 98 -27 18 -16 42 -33 53 -39 11 -6 27 -25 35 -42 13 -27 22 -32 62 -38 26 -4 53 -13 59 -20 6 -8 19 -14 28 -14 13 0 136 -66 160 -86 2 -2 -6 -15 -18 -30 -11 -15 -21 -40 -21 -55 0 -19 -5 -29 -15 -29 -9 0 -33 -9 -55 -20 -22 -11 -53 -20 -70 -20 -28 0 -30 -2 -30 -38 0 -26 7 -45 19 -56 10 -10 21 -26 24 -36 4 -16 -3 -22 -31 -30 -21 -5 -42 -10 -49 -10 -23 0 -38 -45 -43 -125 l-5 -80 -27 39 c-15 22 -40 45 -56 52 -30 12 -42 43 -42 104 0 41 -10 60 -31 60 -13 0 -21 11 -29 39 -12 46 -22 51 -105 51 -78 0 -100 -18 -110 -92 -10 -67 3 -195 22 -238 9 -19 47 -64 84 -100 59 -57 119 -130 119 -146 0 -3 9 -17 20 -31 28 -36 26 -63 -4 -63 -38 0 -56 -10 -71 -40 -31 -59 -45 -118 -45 -188 0 -46 -4 -71 -10 -67 -5 3 -10 22 -10 41 0 19 -9 52 -20 74 -11 22 -20 50 -20 64 0 39 -43 66 -105 66 -73 0 -77 -8 -72 -132 5 -115 10 -145 37 -203 10 -22 26 -60 35 -85 9 -25 27 -65 41 -89 13 -24 24 -58 24 -75 0 -39 -23 -106 -53 -154 -13 -20 -27 -49 -31 -64 -3 -16 -10 -28 -14 -28 -12 0 -80 85 -98 123 -16 33 -16 39 0 86 9 29 16 83 16 129 0 66 -4 85 -23 113 -22 33 -26 34 -92 37 -95 4 -111 -1 -125 -42 -6 -19 -24 -49 -40 -68 -17 -18 -32 -40 -35 -48 -3 -8 -17 -22 -32 -31 -31 -17 -53 -74 -53 -138 0 -21 -7 -56 -17 -77 -9 -22 -20 -55 -24 -74 -4 -19 -13 -53 -19 -75 -6 -22 -15 -58 -20 -80 -8 -43 -72 -214 -114 -308 -14 -32 -26 -66 -26 -75 0 -10 -7 -27 -15 -38 -28 -36 -55 -106 -55 -143 0 -29 7 -44 31 -67 44 -42 99 -129 116 -188 24 -77 28 -221 9 -251 -9 -13 -16 -36 -16 -50 0 -14 -5 -25 -10 -25 -15 0 -50 -79 -50 -114 0 -40 88 -184 135 -221 8 -5 15 -21 17 -35 2 -17 10 -26 25 -28 15 -2 25 -13 30 -30 3 -15 20 -51 37 -80 17 -29 37 -64 44 -78 7 -13 20 -24 28 -24 7 0 14 -9 14 -19 0 -12 9 -23 22 -27 13 -3 36 -22 51 -41 38 -44 85 -63 161 -63 75 0 120 -24 129 -68 4 -19 22 -43 52 -67 30 -25 45 -45 45 -61 0 -12 4 -25 9 -28 20 -13 22 -59 4 -102 -10 -24 -21 -44 -26 -44 -10 0 -50 -90 -78 -180 -23 -71 -26 -76 -74 -103 -34 -18 -58 -25 -75 -21 -72 17 -158 26 -271 31 l-125 4 -40 51 c-21 28 -49 62 -61 75 -13 13 -23 26 -23 28 0 2 -14 25 -31 50 -34 50 -34 89 2 121 19 17 19 16 19 -29 0 -46 1 -47 30 -47 17 0 38 4 48 9 9 5 31 13 47 18 29 8 30 11 33 71 l3 63 -38 -3 c-33 -3 -38 -7 -41 -30 -3 -25 -8 -28 -38 -28 -24 0 -34 5 -34 15 0 8 6 15 14 15 26 0 46 30 46 71 0 50 -8 66 -66 123 -34 34 -53 46 -75 46 -61 0 -119 -51 -149 -130 -7 -19 -31 -60 -52 -90 -21 -31 -38 -61 -38 -68 0 -6 -12 -19 -27 -29 -16 -9 -36 -24 -46 -32 -34 -28 -91 -42 -173 -41 -59 1 -86 -3 -96 -14 -11 -10 -17 -51 -21 -147 -4 -72 -4 -136 -1 -140 3 -5 15 -9 28 -9 41 0 55 -89 18 -109 -15 -8 -17 -3 -17 37 l0 47 -87 3 -88 3 0 -30 c0 -42 9 -61 31 -61 12 0 19 -7 19 -20 0 -16 7 -20 35 -20 24 0 35 5 35 15 0 8 9 15 19 15 18 0 16 -6 -16 -69 -45 -86 -87 -111 -191 -112 -37 0 -76 -4 -87 -8 -18 -7 -59 1 -97 20 -10 5 -24 9 -32 9 -16 0 -103 46 -129 69 -10 9 -25 30 -32 48 -8 18 -19 33 -24 33 -6 0 -11 22 -11 50 0 27 -6 69 -14 92 -35 111 -38 128 -32 164 3 22 9 59 12 84 4 25 15 50 24 57 25 18 42 65 38 109 -3 37 -5 39 -40 42 -21 2 -38 8 -38 13 0 15 -53 58 -71 59 -9 0 -29 16 -44 36 -15 19 -37 39 -49 44 -21 8 -24 17 -32 127 -5 65 -7 165 -6 223 2 72 -2 128 -13 175 -15 65 -13 116 5 140 4 6 11 35 14 65 8 63 22 165 32 228 7 50 50 99 92 104 23 3 28 8 30 37 2 19 -1 44 -6 55 -32 72 -42 99 -42 116 0 30 -69 28 -107 -3 -59 -48 -112 -58 -164 -31 -17 8 -48 14 -72 12 -39 -3 -42 -5 -45 -35 -3 -32 -12 -42 -116 -126 l-30 -24 18 -104 c19 -113 21 -146 12 -229 -5 -45 -2 -63 16 -100 22 -43 26 -45 73 -50 102 -11 139 -54 148 -169 4 -44 13 -93 20 -108 8 -16 17 -48 21 -72 6 -39 3 -50 -22 -85 -18 -25 -32 -60 -36 -90 -3 -27 -11 -55 -17 -62 -6 -7 -9 -45 -8 -87 3 -74 3 -75 -38 -129 -53 -70 -124 -100 -218 -91 -36 3 -78 0 -105 -8 -48 -13 -89 -13 -104 2 -6 5 -21 9 -34 9 -14 0 -46 19 -76 45 -29 25 -56 45 -59 45 -3 0 -29 14 -57 32 -43 26 -53 39 -63 75 -6 24 -17 43 -24 43 -6 0 -22 21 -33 48 -20 44 -21 53 -10 137 25 191 25 191 -7 211 -15 10 -51 40 -80 66 -28 26 -60 48 -70 48 -18 0 -84 23 -153 53 -56 24 -146 127 -181 204 -17 37 -35 75 -40 83 -5 8 -14 25 -19 38 -34 77 -56 115 -97 170 -18 24 -40 65 -50 90 -9 26 -25 53 -35 60 -10 7 -18 21 -18 31 0 17 -40 115 -74 181 -7 14 -16 37 -20 53 -3 15 -11 27 -16 27 -21 0 -48 62 -44 99 14 113 26 140 88 206 37 39 73 67 91 71 17 4 36 11 43 17 21 17 13 67 -22 136 -18 36 -38 80 -44 96 -11 30 -28 221 -22 240 1 6 6 28 11 50 8 39 18 82 37 157 12 45 83 192 96 197 5 2 25 18 45 35 51 44 108 82 161 104 25 11 51 27 59 36 7 9 20 16 27 16 14 0 29 13 152 126 34 31 72 62 85 68 17 9 23 22 25 57 3 43 1 48 -31 66 -18 11 -51 36 -73 56 -53 47 -186 154 -242 194 -25 18 -61 48 -81 67 -22 21 -47 36 -61 36 -16 0 -52 24 -100 66 -41 37 -86 73 -100 82 -14 9 -31 24 -38 34 -7 10 -40 38 -72 63 -43 33 -60 53 -60 69 0 13 -10 39 -23 58 -30 43 -47 92 -47 133 0 25 9 41 39 68 21 19 48 38 60 42 12 3 21 11 21 16 0 5 8 12 18 16 9 3 31 16 48 29 17 12 53 35 80 50 47 25 198 124 254 166 15 11 42 23 61 28 19 5 70 18 113 29 43 11 88 29 100 39 12 10 34 27 50 38 42 28 65 43 146 99 123 84 134 91 169 103 19 7 47 12 62 12 15 0 31 5 34 10 3 6 18 10 33 10 15 0 34 5 42 10 29 19 134 11 196 -14z m4369 -356 c20 -11 43 -20 53 -21 18 -1 65 -26 179 -95 37 -23 91 -54 118 -69 75 -42 89 -56 126 -135 6 -14 15 -33 20 -42 5 -10 9 -48 9 -85 0 -36 4 -80 9 -97 5 -17 15 -51 22 -76 7 -25 17 -49 23 -55 6 -5 12 -55 14 -110 2 -55 10 -113 17 -130 7 -16 15 -38 19 -47 3 -10 12 -18 21 -18 10 0 15 -10 15 -28 0 -38 17 -52 61 -52 35 0 38 3 46 38 6 27 14 38 31 40 12 2 22 9 22 17 0 7 7 26 15 41 18 35 19 93 2 114 -7 9 -27 22 -45 29 -18 8 -51 31 -75 52 -23 22 -50 42 -59 45 -14 4 -16 9 -8 24 6 10 10 37 10 59 0 75 36 131 85 131 17 0 36 5 42 11 24 24 142 10 215 -25 21 -10 47 -34 59 -53 12 -19 33 -39 48 -45 l26 -11 -35 -6 c-32 -6 -35 -9 -38 -43 -2 -28 1 -38 12 -38 8 0 16 -4 18 -8 4 -12 164 -92 183 -92 8 0 15 -4 15 -10 0 -5 16 -10 35 -10 33 0 35 2 35 35 0 21 -5 35 -12 35 -7 0 -18 11 -24 24 -11 23 -10 23 15 12 59 -26 91 -68 91 -120 0 -26 -25 -89 -46 -116 -6 -8 -16 -36 -23 -62 -6 -26 -35 -83 -64 -127 -113 -172 -163 -259 -192 -339 -26 -70 -66 -142 -89 -162 -9 -7 -16 -17 -16 -23 0 -14 -102 -117 -116 -117 -8 0 -10 15 -6 45 l5 45 -38 0 c-49 0 -75 -23 -75 -67 0 -32 1 -33 44 -33 l44 0 5 -47 c3 -27 10 -68 15 -93 20 -89 27 -105 52 -108 34 -5 249 -99 282 -122 28 -21 109 -55 166 -72 18 -5 72 -32 120 -60 51 -29 104 -52 127 -55 87 -10 125 -32 125 -72 0 -16 -110 -187 -264 -409 -28 -40 -60 -88 -71 -106 -11 -18 -33 -50 -49 -70 -21 -29 -30 -55 -38 -114 -7 -52 -18 -88 -35 -114 -14 -21 -28 -59 -31 -85 -4 -37 -13 -55 -41 -83 -20 -20 -60 -64 -88 -97 -47 -54 -53 -67 -53 -106 0 -47 36 -146 75 -205 13 -21 30 -59 37 -87 7 -27 22 -62 34 -77 30 -37 45 -116 53 -268 6 -117 7 -125 29 -136 31 -15 72 -55 72 -69 0 -6 12 -22 26 -36 50 -47 56 -69 33 -135 -11 -33 -34 -76 -50 -96 -16 -20 -29 -41 -29 -46 0 -5 -6 -22 -14 -37 -8 -15 -22 -57 -32 -94 -9 -36 -22 -71 -29 -76 -7 -6 -14 -36 -17 -67 -3 -34 -12 -65 -21 -76 -9 -10 -17 -34 -17 -52 0 -37 -38 -95 -70 -105 -40 -13 -70 -53 -70 -95 0 -29 -8 -48 -30 -73 -25 -29 -30 -43 -30 -89 0 -30 5 -59 11 -65 6 -6 16 -32 23 -59 9 -35 18 -50 32 -52 21 -4 144 -120 144 -136 0 -5 9 -19 19 -30 19 -21 51 -104 51 -133 0 -9 -10 -42 -21 -74 -20 -54 -26 -61 -75 -84 -61 -29 -61 -29 -133 -12 -47 10 -64 22 -120 77 -185 183 -201 207 -232 354 -11 50 -26 100 -34 113 -8 12 -15 32 -15 43 0 11 -9 38 -20 60 -11 22 -20 45 -20 51 0 7 -7 21 -17 31 -13 14 -31 18 -86 18 l-70 0 5 -47 c3 -29 16 -66 33 -93 32 -50 65 -184 57 -227 -3 -15 -14 -41 -24 -58 -10 -16 -18 -40 -18 -51 0 -14 -21 -41 -56 -73 -44 -40 -63 -51 -89 -51 -19 0 -37 5 -40 10 -3 6 -17 10 -31 10 -15 0 -24 6 -24 15 0 9 -13 24 -30 33 -16 9 -30 25 -30 36 0 10 -13 35 -30 56 -16 21 -30 49 -30 62 0 14 -3 28 -7 32 -5 4 -7 51 -5 104 3 103 -8 150 -63 263 -13 28 -26 63 -30 79 -3 15 -13 31 -21 34 -8 3 -14 15 -14 26 0 12 -7 34 -15 49 -8 16 -28 72 -46 125 -25 78 -31 109 -27 160 4 73 21 97 122 184 56 48 101 87 210 184 22 20 56 49 73 65 18 15 43 38 55 50 12 13 28 23 35 23 8 0 13 13 13 36 0 36 3 32 -167 220 -25 27 -27 34 -18 62 6 17 14 34 18 38 4 4 7 28 7 53 0 34 5 51 20 64 11 9 20 26 20 37 0 12 7 35 16 52 28 54 44 122 44 188 0 90 20 222 38 242 10 12 15 47 16 120 1 57 5 109 10 116 18 30 19 215 1 292 -9 41 -21 100 -26 130 -6 30 -14 78 -20 105 -5 28 -14 142 -19 255 -5 113 -14 221 -20 240 -15 47 -28 131 -33 210 -3 44 -13 82 -30 116 -23 46 -25 59 -20 121 7 90 -2 143 -25 143 -28 0 -63 30 -78 65 -7 18 -18 95 -24 171 -10 125 -21 186 -52 294 -5 19 -13 53 -17 75 -4 22 -21 69 -36 105 -24 54 -28 77 -27 139 2 73 2 73 -58 172 -33 55 -60 103 -60 108 0 19 -88 74 -151 94 -33 11 -68 70 -70 119 -3 48 20 98 44 98 7 0 26 14 43 31 26 28 72 62 129 95 31 19 81 16 120 -6z m1228 -657 c-7 -3 -23 5 -35 17 l-23 22 35 -17 c19 -10 30 -20 23 -22z m-2381 -1564 c13 -10 19 -25 16 -43 l-3 -29 -32 45 c-25 35 -29 48 -20 57 9 9 13 9 16 -1 2 -7 12 -20 23 -29z m-813 -114 c29 -34 31 -40 31 -119 0 -45 -2 -85 -5 -88 -7 -7 -75 60 -75 74 0 5 -7 31 -16 58 -14 44 -14 51 0 79 9 17 20 31 25 31 5 0 23 -16 40 -35z m482 -658 c-13 -34 -25 -34 -39 -2 -19 41 -14 71 16 106 l27 33 3 -55 c2 -31 -2 -67 -7 -82z m-508 -204 c9 -17 21 -35 27 -38 10 -6 14 -85 4 -85 -14 0 -77 58 -90 83 -18 34 -10 129 15 167 16 24 16 24 22 -35 3 -33 13 -74 22 -92z m4496 -1184 c2 -6 14 -15 28 -20 14 -5 23 -12 20 -15 -2 -3 -22 2 -43 11 -30 12 -58 14 -135 9 -63 -4 -102 -3 -115 4 -15 9 -2 11 63 12 49 0 85 4 89 11 8 13 87 3 93 -12z">
      </path>
      <path id="pttfgFztw"
        d="M9815 6821 c-27 -5 -30 -10 -33 -50 l-3 -44 53 6 c29 4 133 7 231 7 l177 0 0 45 0 45 -197 -1 c-109 -1 -211 -4 -228 -8z">
      </path>
      <path id="pHP4KNtIN" d="M10102 5938 l3 -53 40 0 c39 0 40 1 43 38 4 48 -11 67 -55 67 l-34 0 3 -52z"></path>
      <path id="pHp4nX4ku"
        d="M10022 5684 c-16 -11 -22 -25 -22 -55 0 -38 1 -39 35 -39 22 0 43 8 55 20 12 12 20 33 20 55 0 33 -2 35 -33 35 -18 0 -43 -7 -55 -16z">
      </path>
      <path id="p15RppPLSV"
        d="M9920 5312 c0 -21 5 -43 12 -50 7 -7 29 -12 50 -12 38 0 38 0 38 40 0 44 -18 60 -69 60 -29 0 -31 -2 -31 -38z">
      </path>
      <path id="pkaaS2iwf" d="M9982 5033 c3 -36 5 -38 41 -41 l38 -3 -3 38 c-3 36 -5 38 -41 41 l-38 3 3 -38z"></path>
      <path id="pqIeZuNWW" d="M10410 2870 c0 -39 1 -40 35 -40 34 0 35 1 35 40 0 39 -1 40 -35 40 -34 0 -35 -1 -35 -40z">
      </path>
      <path id="p1C1xTkfCE"
        d="M8487 2492 c-19 -20 -27 -39 -27 -65 0 -36 1 -37 39 -37 50 0 91 43 91 96 0 33 -1 34 -38 34 -29 0 -45 -7 -65 -28z">
      </path>
      <path id="pDmgrLpOz" d="M9367 1853 c-4 -3 -7 -33 -7 -65 l0 -58 40 0 40 0 0 65 0 65 -33 0 c-19 0 -37 -3 -40 -7z">
      </path>
      <path id="pvZwcd7OI" d="M10210 1805 c0 -35 0 -35 45 -35 45 0 45 0 45 35 0 35 0 35 -45 35 -45 0 -45 0 -45 -35z">
      </path>
      <path id="pWxcZJqSG" d="M10030 1700 l0 -40 40 0 40 0 0 40 0 40 -40 0 -40 0 0 -40z"></path>
      <path id="pg1MmvjkD"
        d="M9156 1614 c-10 -27 -7 -99 6 -112 7 -7 27 -12 45 -12 l33 0 0 70 0 70 -39 0 c-26 0 -41 -5 -45 -16z"></path>
      <path id="pLSdvtHMb"
        d="M9160 1086 c-5 -13 -14 -27 -19 -31 -6 -3 -11 -24 -11 -46 0 -37 2 -39 30 -39 17 0 42 7 55 16 21 14 25 24 25 70 l0 54 -35 0 c-28 0 -37 -5 -45 -24z">
      </path>
      <path id="prSFFaIly" d="M9180 927 c0 -43 35 -77 78 -77 30 0 32 3 32 33 0 43 -35 77 -78 77 -30 0 -32 -3 -32 -33z">
      </path>
      <path id="p6Gv7V4DT"
        d="M9907 932 c-10 -10 -17 -33 -17 -50 0 -31 1 -32 44 -32 48 0 56 9 56 66 0 32 -2 34 -33 34 -20 0 -41 -8 -50 -18z">
      </path>
      <path id="p1A0ZvKoC4"
        d="M2272 6397 c-32 -32 -42 -51 -42 -75 0 -31 2 -32 40 -32 32 0 47 7 80 38 32 32 40 46 40 75 0 36 -1 37 -38 37 -31 0 -45 -7 -80 -43z">
      </path>
      <path id="p11VV8mjgh" d="M1620 6385 c0 -33 2 -35 35 -35 33 0 35 2 35 35 0 33 -2 35 -35 35 -33 0 -35 -2 -35 -35z">
      </path>
      <path id="ppJcip9fA"
        d="M1177 6193 c-4 -3 -7 -21 -7 -40 0 -32 1 -33 40 -33 l40 0 0 40 c0 39 -1 40 -33 40 -19 0 -37 -3 -40 -7z">
      </path>
      <path id="pN3c9eSsC"
        d="M1033 6113 c-7 -2 -13 -20 -13 -39 0 -35 0 -35 43 -32 41 3 42 4 45 41 3 36 2 37 -30 36 -18 0 -39 -3 -45 -6z">
      </path>
      <path id="p1CcxHtO55"
        d="M2090 6065 c0 -31 3 -35 25 -35 22 0 25 -4 25 -33 0 -42 15 -57 57 -57 31 0 33 2 33 33 0 39 -15 57 -47 57 -20 0 -23 5 -23 35 0 33 -2 35 -35 35 -33 0 -35 -2 -35 -35z">
      </path>
      <path id="p5yuAtzXz"
        d="M1502 5998 c-7 -7 -12 -20 -12 -30 0 -10 -4 -18 -10 -18 -5 0 -10 -16 -10 -36 0 -30 8 -43 47 -80 25 -24 53 -44 62 -44 9 0 40 -18 69 -40 38 -29 62 -40 87 -40 34 0 35 1 35 40 0 22 -4 40 -10 40 -5 0 -10 6 -10 13 -1 6 -14 28 -30 47 -17 19 -30 42 -30 52 0 9 -19 37 -43 62 -39 41 -48 46 -88 46 -25 0 -50 -5 -57 -12z">
      </path>
      <path id="pEJA0EOUM"
        d="M792 5918 c2 -33 8 -45 25 -53 16 -7 23 -20 25 -45 3 -33 5 -35 41 -38 37 -3 37 -3 37 33 0 28 -5 38 -20 42 -17 4 -20 14 -20 54 l0 49 -46 0 -45 0 3 -42z">
      </path>
      <path id="pvFDSdgnq" d="M2230 5885 c0 -33 2 -35 35 -35 33 0 35 2 35 35 0 33 -2 35 -35 35 -33 0 -35 -2 -35 -35z">
      </path>
      <path id="pwcajHAX7"
        d="M5296 5904 c-10 -26 -7 -182 4 -189 6 -3 10 -28 10 -55 0 -44 3 -50 34 -69 26 -16 50 -21 105 -21 l71 0 0 35 c0 20 -8 43 -17 53 -10 9 -25 40 -33 67 -15 47 -18 50 -53 53 l-37 3 0 70 0 69 -39 0 c-26 0 -41 -5 -45 -16z">
      </path>
      <path id="pRohf1zaH" d="M2310 5785 c0 -33 2 -35 35 -35 33 0 35 2 35 35 0 33 -2 35 -35 35 -33 0 -35 -2 -35 -35z">
      </path>
      <path id="pviME5kpP"
        d="M4528 5789 c-26 -10 -28 -15 -28 -69 0 -120 16 -140 110 -140 69 0 100 14 100 44 0 14 5 28 10 31 23 14 2 118 -26 129 -31 12 -140 15 -166 5z">
      </path>
      <path id="ptF4HzZWF" d="M2390 5685 c0 -33 2 -35 35 -35 33 0 35 2 35 35 0 33 -2 35 -35 35 -33 0 -35 -2 -35 -35z">
      </path>
      <path id="poNZd4U0Q" d="M960 5667 c0 -42 15 -57 57 -57 31 0 33 2 33 33 0 42 -15 57 -57 57 -31 0 -33 -2 -33 -33z">
      </path>
      <path id="pAZFonPZa"
        d="M2998 5663 c-13 -3 -18 -15 -18 -44 l0 -39 75 0 75 0 0 39 c0 26 -5 41 -16 45 -17 7 -89 6 -116 -1z"></path>
      <path id="pkqGGF9K2"
        d="M3213 5663 c-7 -2 -13 -20 -13 -39 0 -26 4 -34 18 -34 9 0 41 -3 70 -6 l52 -7 0 37 c0 30 -5 38 -26 46 -26 10 -80 12 -101 3z">
      </path>
      <path id="pFyfaP12u" d="M1080 5567 c0 -42 26 -67 68 -67 30 0 32 3 32 33 0 42 -26 67 -68 67 -30 0 -32 -3 -32 -33z">
      </path>
      <path id="pG34MOPwf"
        d="M2540 5477 c0 -39 15 -57 47 -57 20 0 23 -5 23 -35 0 -33 2 -35 35 -35 34 0 35 1 35 40 0 36 -2 40 -25 40 -20 0 -25 5 -25 24 0 45 -10 56 -51 56 -37 0 -39 -1 -39 -33z">
      </path>
      <path id="pzfhTHIss" d="M1472 5273 c3 -36 5 -38 41 -41 l38 -3 -3 38 c-3 36 -5 38 -41 41 l-38 3 3 -38z"></path>
      <path id="phIJVQOVC" d="M1560 5207 c0 -42 26 -67 68 -67 30 0 32 3 32 33 0 42 -26 67 -68 67 -30 0 -32 -3 -32 -33z">
      </path>
      <path id="plGdWxBHB"
        d="M2510 5000 c-11 -21 -20 -53 -20 -70 0 -22 -5 -30 -18 -30 -29 0 -52 -33 -52 -73 0 -35 2 -37 33 -37 40 0 67 25 67 63 0 20 5 27 18 27 24 0 72 86 72 129 0 29 -2 31 -40 31 -36 0 -41 -3 -60 -40z">
      </path>
      <path id="p1TC82t42"
        d="M4572 4788 l3 -163 45 0 45 0 3 43 c2 23 7 42 13 42 5 0 9 38 9 85 0 72 -3 89 -20 107 -11 12 -20 28 -20 35 0 9 -14 13 -40 13 l-40 0 2 -162z">
      </path>
      <path id="pt77RTzbQ" d="M3302 4893 c3 -48 3 -48 41 -51 l37 -3 0 50 0 51 -41 0 -40 0 3 -47z"></path>
      <path id="pLw5CGqyx" d="M1460 4705 c0 -33 2 -35 35 -35 33 0 35 2 35 35 0 33 -2 35 -35 35 -33 0 -35 -2 -35 -35z">
      </path>
      <path id="p3PgraxXy"
        d="M1377 4673 c-4 -3 -7 -22 -7 -40 0 -33 1 -34 38 -31 35 3 37 5 40 41 3 36 2 37 -31 37 -18 0 -37 -3 -40 -7z">
      </path>
      <path id="p1FqukzSJ1"
        d="M1260 4591 c0 -28 -2 -30 -47 -33 l-48 -3 -3 -47 -3 -48 34 0 c40 0 67 25 67 63 0 24 4 27 35 27 33 0 35 2 35 35 0 33 -2 35 -35 35 -32 0 -35 -2 -35 -29z">
      </path>
      <path id="p1FeaNEZH3" d="M2220 4569 l0 -40 38 3 c35 3 37 5 40 41 l3 37 -40 0 -41 0 0 -41z"></path>
      <path id="p4lcndJDl"
        d="M3375 4448 c4 -51 11 -97 15 -101 4 -5 23 -7 41 -5 l34 3 3 79 c3 92 -10 116 -65 116 l-35 0 7 -92z"></path>
      <path id="p1Ft3Cz3u0"
        d="M4096 4505 c-8 -21 -8 -94 0 -134 6 -30 9 -32 43 -29 l36 3 0 85 0 85 -36 3 c-26 2 -38 -1 -43 -13z"></path>
      <path id="prP5gAifW" d="M3082 4298 c3 -42 4 -43 41 -46 l38 -3 -3 43 c-3 42 -4 43 -41 46 l-38 3 3 -43z"></path>
      <path id="p1CyvzltBv"
        d="M4080 4156 c0 -18 -7 -39 -15 -46 -8 -7 -17 -28 -21 -47 -4 -19 -15 -40 -26 -46 -10 -7 -30 -37 -44 -67 -14 -30 -30 -63 -35 -72 -5 -10 -9 -31 -9 -48 0 -28 2 -30 38 -30 35 0 40 4 69 53 17 28 39 68 49 87 10 19 25 42 32 51 16 21 42 121 42 164 0 34 -1 35 -40 35 -39 0 -40 -1 -40 -34z">
      </path>
      <path id="pX5X9zCET" d="M1940 4089 l0 -40 38 3 c35 3 37 5 40 41 l3 37 -40 0 -41 0 0 -41z"></path>
      <path id="p1AuvjFgt1"
        d="M3464 4017 c-3 -8 -4 -39 -2 -68 l3 -54 37 -3 c32 -3 38 0 43 21 4 13 5 43 3 68 -3 43 -4 44 -41 47 -25 2 -39 -1 -43 -11z">
      </path>
      <path id="pz9kkYwiW" d="M1862 3868 c3 -42 4 -43 41 -46 l38 -3 -3 43 c-3 42 -4 43 -41 46 l-38 3 3 -43z"></path>
      <path id="px9jm3UX2"
        d="M3792 3651 c-12 -21 -22 -55 -22 -75 0 -34 1 -36 35 -36 31 0 37 5 55 42 11 23 20 57 20 75 0 31 -2 33 -33 33 -28 0 -37 -6 -55 -39z">
      </path>
      <path id="pW2qanjnk"
        d="M2190 3660 c-8 -5 -30 -10 -48 -10 -18 0 -41 -4 -52 -10 -11 -5 -29 -14 -40 -20 -11 -5 -31 -10 -44 -10 -45 0 -56 -10 -56 -51 l0 -39 48 0 c26 0 94 14 151 30 57 17 114 30 127 30 22 0 24 4 24 45 l0 45 -47 0 c-27 0 -55 -5 -63 -10z">
      </path>
      <path id="poOA3qkdd" d="M2320 3605 l0 -35 60 0 60 0 0 35 0 35 -60 0 -60 0 0 -35z"></path>
      <path id="pvffKYQII" d="M4240 3590 c0 -39 1 -40 35 -40 34 0 35 1 35 40 0 39 -1 40 -35 40 -34 0 -35 -1 -35 -40z">
      </path>
      <path id="p12MjMrUv0"
        d="M937 3536 c-13 -10 -17 -24 -15 -48 3 -29 7 -33 36 -36 44 -4 62 12 62 59 0 37 -1 39 -32 39 -18 0 -41 -7 -51 -14z">
      </path>
      <path id="p2hvOyxNo" d="M2700 3446 c0 -37 12 -46 61 -46 27 0 29 2 29 40 l0 40 -45 0 c-44 0 -45 0 -45 -34z"></path>
      <path id="phPGtkwUF" d="M982 3218 c3 -42 4 -43 41 -46 l38 -3 -3 43 c-3 42 -4 43 -41 46 l-38 3 3 -43z"></path>
      <path id="p17FeE5CCO"
        d="M1040 3080 c0 -43 24 -90 46 -90 8 0 14 -15 16 -37 3 -36 5 -38 41 -41 l37 -3 0 41 c0 33 -4 43 -20 47 -14 4 -20 14 -20 35 0 16 -7 42 -15 58 -13 25 -22 30 -50 30 -34 0 -35 -1 -35 -40z">
      </path>
      <path id="pEWnmMTgQ" d="M2982 3018 c3 -42 4 -43 41 -46 l38 -3 -3 43 c-3 42 -4 43 -41 46 l-38 3 3 -43z"></path>
      <path id="pdEaJ1K7L" d="M1162 2858 c3 -42 4 -43 41 -46 l38 -3 -3 43 c-3 42 -4 43 -41 46 l-38 3 3 -43z"></path>
      <path id="pjgLwUmxN" d="M2890 2840 l0 -40 40 0 40 0 0 40 0 40 -40 0 -40 0 0 -40z"></path>
      <path id="p4gRcMuXo"
        d="M4250 2761 c-5 -11 -10 -36 -10 -55 0 -34 2 -36 33 -36 38 0 57 27 57 80 0 27 -3 30 -35 30 -24 0 -37 -6 -45 -19z">
      </path>
      <path id="pUs8p09LB" d="M2260 2537 c0 -42 26 -67 68 -67 30 0 32 2 32 36 0 44 -21 63 -67 64 -31 0 -33 -2 -33 -33z">
      </path>
      <path id="p8ekBfuy8" d="M4222 2533 c3 -36 5 -38 41 -41 l38 -3 -3 38 c-3 36 -5 38 -41 41 l-38 3 3 -38z"></path>
      <path id="pXpVc8Ng6" d="M4310 2405 c0 -33 2 -35 35 -35 33 0 35 2 35 35 0 33 -2 35 -35 35 -33 0 -35 -2 -35 -35z">
      </path>
      <path id="p18pco4rtC"
        d="M1794 2037 c-2 -7 -3 -60 -2 -118 3 -98 4 -104 25 -107 15 -2 23 -11 25 -30 3 -23 8 -27 41 -30 l37 -3 0 41 c0 33 -4 43 -20 47 -18 5 -20 14 -20 109 l0 104 -40 0 c-24 0 -43 -5 -46 -13z">
      </path>
      <path id="pfYoQhDxb" d="M2862 1893 c3 -36 5 -38 41 -41 l37 -3 0 40 0 41 -41 0 -40 0 3 -37z"></path>
      <path id="p725De2I6" d="M4502 1758 c3 -42 4 -43 41 -46 l38 -3 -3 43 c-3 42 -4 43 -41 46 l-38 3 3 -43z"></path>
      <path id="pSWHihwZq" d="M2480 1715 l0 -45 40 0 40 0 0 45 0 45 -40 0 -40 0 0 -45z"></path>
      <path id="pec7aKb4U" d="M2002 1663 c3 -36 5 -38 41 -41 l38 -3 -3 38 c-3 36 -5 38 -41 41 l-38 3 3 -38z"></path>
      <path id="prNGmTH9H" d="M3122 1653 c3 -36 5 -38 41 -41 l37 -3 0 40 0 41 -41 0 -40 0 3 -37z"></path>
      <path id="pxhnQjcem"
        d="M3667 1653 c-4 -3 -7 -21 -7 -40 l0 -34 128 3 127 3 3 38 3 37 -124 0 c-68 0 -127 -3 -130 -7z"></path>
      <path id="pdEYtBYzd"
        d="M3076 1575 c-9 -13 -16 -40 -16 -60 0 -33 2 -35 33 -35 44 0 87 43 87 88 0 31 -1 32 -44 32 -35 0 -47 -5 -60 -25z">
      </path>
      <path id="p7TMSCy3w"
        d="M4517 1423 c-4 -3 -7 -21 -7 -40 0 -33 1 -33 45 -33 l45 0 0 40 c0 40 0 40 -38 40 -21 0 -42 -3 -45 -7z"></path>
      <path id="pm72FfKti"
        d="M7336 5784 c-8 -20 -8 -82 0 -111 5 -19 13 -23 45 -23 l39 0 0 75 0 75 -39 0 c-26 0 -41 -5 -45 -16z"></path>
      <path id="ph71tTt3y"
        d="M7664 4945 c-13 -31 -24 -71 -24 -90 0 -34 1 -35 40 -35 29 0 40 4 40 15 0 8 9 30 20 50 11 20 20 53 20 75 0 39 -1 40 -36 40 -33 0 -37 -3 -60 -55z">
      </path>
      <path id="pZltJpueR"
        d="M8127 3693 c-4 -3 -7 -24 -7 -45 0 -39 0 -39 38 -36 36 3 37 4 40 46 3 42 3 42 -31 42 -18 0 -37 -3 -40 -7z">
      </path>
      <path id="po5nSUwrU"
        d="M7907 3363 c-4 -3 -7 -22 -7 -40 0 -33 1 -34 38 -31 35 3 37 5 40 41 3 36 2 37 -31 37 -18 0 -37 -3 -40 -7z">
      </path>
      <path id="pEqqUnJME"
        d="M7807 3071 c-15 -27 -27 -56 -27 -64 0 -8 -4 -17 -10 -19 -5 -1 -36 -29 -70 -62 -55 -54 -60 -62 -60 -102 0 -43 1 -44 33 -44 27 0 43 11 89 58 31 31 60 69 63 84 4 15 12 29 19 31 20 8 56 93 56 132 0 33 -2 35 -33 35 -30 0 -37 -5 -60 -49z">
      </path>
      <path id="p1DYXxwys8" d="M7722 2453 l3 -48 43 -3 42 -3 0 38 c0 48 -14 63 -58 63 l-33 0 3 -47z"></path>
      <path id="pprKfVZVh"
        d="M6992 2397 c-7 -18 -12 -45 -12 -60 0 -25 3 -27 39 -27 33 0 40 4 51 29 6 16 10 42 8 57 -3 25 -8 29 -38 32 -32 3 -37 0 -48 -31z">
      </path>
      <path id="pf5N09axV" d="M7762 2353 c3 -36 5 -38 41 -41 l37 -3 0 40 0 41 -41 0 -40 0 3 -37z"></path>
      <path id="pfegwKL7b"
        d="M6979 1801 c-21 -22 -29 -39 -29 -65 0 -35 1 -36 38 -36 52 0 92 41 92 93 0 36 -1 37 -36 37 -26 0 -43 -8 -65 -29z">
      </path>
      <path id="psVzkgNqD"
        d="M7942 1708 c-7 -7 -12 -27 -12 -45 0 -32 1 -33 44 -33 48 0 56 9 56 61 0 27 -3 29 -38 29 -21 0 -43 -5 -50 -12z">
      </path>
      <path id="p1GCymfOoK"
        d="M6787 1622 c-10 -10 -17 -33 -17 -50 0 -30 2 -32 38 -32 48 0 62 14 62 62 0 36 -1 38 -33 38 -20 0 -41 -8 -50 -18z">
      </path>
      <path id="pk54IUNq5"
        d="M7720 1177 c0 -24 -6 -35 -22 -42 -18 -8 -24 -20 -26 -52 l-3 -43 40 0 c44 0 61 18 61 64 0 21 5 26 25 26 22 0 25 4 25 34 0 38 -12 46 -66 46 -32 0 -34 -2 -34 -33z">
      </path>
      <path id="pfITNw9b3"
        d="M7650 1020 c0 -5 -11 -10 -25 -10 -23 0 -25 -3 -25 -48 0 -58 12 -72 62 -72 37 0 38 1 38 35 0 19 5 35 10 35 6 0 10 16 10 35 0 33 -2 35 -35 35 -19 0 -35 -4 -35 -10z">
      </path>
      <path id="pcPwYJ6Og" d="M7302 918 c3 -42 4 -43 41 -46 l38 -3 -3 43 c-3 42 -4 43 -41 46 l-38 3 3 -43z"></path>
      <path id="proGcryAi" d="M7022 793 c3 -36 5 -38 41 -41 l37 -3 0 40 0 41 -41 0 -40 0 3 -37z"></path>
      <path id="p36o4NfES" d="M7362 773 c3 -36 5 -38 41 -41 l37 -3 0 40 0 41 -41 0 -40 0 3 -37z"></path>
      <path id="pFvmsRWle"
        d="M7780 474 c0 -51 44 -104 88 -104 30 0 32 2 32 35 0 63 -35 104 -87 105 -31 0 -33 -2 -33 -36z"></path>
      <path id="pQK0yNShX"
        d="M7480 442 c0 -33 8 -45 68 -105 55 -55 73 -67 100 -67 30 0 32 2 32 38 0 33 -8 45 -68 105 -55 55 -73 67 -100 67 -30 0 -32 -2 -32 -38z">
      </path>
      <path id="p2uiaqCPj" d="M6922 433 c3 -36 5 -38 41 -41 l37 -3 0 40 0 41 -41 0 -40 0 3 -37z"></path>
      <path id="peCglWiWO" d="M7787 273 c-4 -3 -7 -22 -7 -40 l0 -34 58 3 57 3 3 38 3 37 -54 0 c-29 0 -57 -3 -60 -7z">
      </path>
    </g>
  </g>
  <g id="l6xu7E8VX9MIGobi7VLLYI0">
    <g>
      <path id="pnxNh9UB7"
        d="M8890 6784 c-6 -14 -10 -38 -10 -54 0 -15 -22 -107 -50 -204 -30 -105 -50 -197 -50 -226 0 -42 -7 -61 -47 -122 -25 -40 -50 -91 -55 -113 -40 -191 -60 -347 -65 -485 -5 -149 -4 -161 27 -295 18 -77 35 -151 37 -165 11 -68 50 -203 73 -255 5 -11 34 -95 64 -187 57 -172 143 -396 157 -412 5 -6 9 -16 9 -23 0 -7 29 -74 65 -150 70 -150 110 -290 102 -359 -3 -30 -20 -62 -62 -119 l-57 -78 6 -73 7 -73 -107 59 c-119 67 -150 72 -230 41 -27 -11 -75 -29 -106 -41 l-58 -22 0 -175 c0 -178 9 -242 41 -300 l18 -32 -67 -68 c-106 -108 -132 -177 -132 -351 l0 -122 49 0 c46 0 52 3 117 66 63 60 69 64 72 42 6 -38 22 -48 71 -47 43 0 49 4 96 59 53 62 60 61 71 -4 3 -22 14 -58 24 -81 9 -22 20 -52 24 -67 6 -28 6 -28 -43 -28 -35 0 -51 -4 -55 -16 -3 -9 -6 -62 -6 -118 0 -101 0 -103 30 -131 19 -18 30 -39 30 -56 0 -19 6 -30 21 -34 11 -4 23 -4 26 -1 4 3 1 6 -5 6 -7 0 -12 6 -12 14 0 8 -5 16 -12 18 -8 3 -9 11 -3 24 8 18 9 18 12 -3 5 -29 38 -38 106 -28 89 12 119 9 201 -22 73 -28 77 -31 61 -46 -9 -9 -12 -17 -7 -17 5 0 12 -10 16 -23 3 -12 26 -38 50 -56 26 -20 42 -39 38 -45 -3 -6 -9 -29 -12 -51 -4 -36 -8 -40 -35 -43 -55 -5 -120 -23 -137 -39 -11 -10 -18 -30 -18 -52 1 -32 2 -34 14 -18 20 26 26 21 26 -24 0 -34 -3 -39 -14 -30 -11 9 -14 -13 -20 -131 -4 -91 -3 -156 4 -178 6 -20 8 -62 4 -98 -6 -55 -10 -64 -36 -80 -26 -15 -29 -21 -26 -66 3 -44 6 -50 38 -67 19 -10 49 -34 65 -52 57 -65 83 -75 211 -89 66 -7 171 -13 234 -12 108 0 119 2 181 32 81 39 163 121 179 181 10 38 12 96 14 383 1 119 -8 142 -75 185 -73 48 -73 47 -60 71 9 18 21 22 56 22 47 0 125 26 125 41 0 5 8 9 19 9 11 0 23 11 30 28 10 24 24 32 89 51 106 31 136 47 197 108 67 67 72 92 81 418 14 461 15 437 -39 640 -27 99 -61 231 -78 294 -32 125 -39 138 -87 158 -18 7 -36 21 -39 29 -3 9 14 56 40 107 25 51 50 108 55 127 15 50 36 521 29 625 -7 97 -28 144 -99 221 -30 32 -42 57 -54 110 -30 128 -52 189 -117 324 -72 150 -97 230 -97 313 0 38 -6 62 -19 78 -24 32 -34 66 -21 74 12 8 13 75 0 95 -9 14 5 33 108 145 21 24 34 59 56 152 26 109 28 128 19 180 -9 50 -8 61 7 83 23 34 38 316 20 388 -11 42 -9 61 19 180 35 151 38 192 16 192 -8 0 -15 -7 -15 -15 0 -12 -33 -15 -200 -17 -130 -2 -199 0 -197 7 2 6 17 13 33 16 28 6 27 7 -8 8 -61 2 -68 -5 -68 -68 0 -66 -16 -185 -29 -221 -22 -60 -50 -171 -61 -244 -7 -49 -28 -116 -52 -173 -34 -80 -39 -100 -34 -138 7 -41 4 -47 -47 -114 -42 -54 -56 -81 -62 -118 -3 -26 -15 -92 -26 -146 -12 -61 -19 -145 -20 -220 -1 -183 -3 -184 -75 -75 -68 104 -104 216 -104 321 0 31 -5 66 -12 77 -10 15 -10 26 0 53 15 41 16 84 2 92 -11 7 27 85 41 85 4 0 28 36 54 81 l48 80 -7 82 c-4 45 -12 99 -18 119 -9 31 -5 60 26 200 20 90 41 179 46 199 6 20 10 59 10 88 l0 51 -275 0 -275 0 -10 -26z m1265 -863 c-10 -16 -25 -3 -25 22 0 20 1 20 16 5 9 -9 13 -21 9 -27z m-81 -266 c-8 -19 -44 -40 -44 -26 0 8 38 41 47 41 1 0 0 -7 -3 -15z m-84 -365 c0 -14 -14 -12 -28 2 -19 19 -14 30 8 18 11 -6 20 -15 20 -20z m-1439 -2818 c-14 -26 -50 -56 -58 -49 -7 8 45 67 59 67 5 0 4 -8 -1 -18z m1863 -574 c-15 -28 -38 -48 -52 -48 -11 0 -7 9 13 30 29 30 52 41 39 18z m-1004 -103 c0 -19 -4 -35 -10 -35 -11 0 -14 53 -3 63 11 12 13 8 13 -28z m-221 -776 c-28 -21 -38 -16 -17 8 8 10 19 27 23 38 8 19 9 19 13 -4 3 -17 -3 -30 -19 -42z m765 -123 c-3 -9 -13 -16 -22 -16 -13 0 -12 3 3 20 20 23 29 21 19 -4z">
      </path>
      <path id="pL0mDrVvN"
        d="M2085 6643 c-16 -3 -55 -12 -85 -20 -30 -8 -68 -18 -84 -21 -17 -2 -59 -25 -95 -50 -151 -102 -291 -205 -291 -212 0 -4 -28 -10 -62 -14 -120 -13 -174 -37 -257 -115 -18 -17 -38 -31 -43 -31 -6 0 -35 -15 -65 -32 -30 -18 -78 -46 -107 -63 -94 -54 -176 -118 -176 -137 0 -10 7 -18 15 -18 9 0 15 -9 15 -21 0 -18 -2 -19 -15 -9 -13 11 -15 6 -15 -35 0 -38 5 -52 30 -77 21 -20 30 -39 30 -61 0 -24 8 -39 34 -59 19 -16 38 -28 41 -28 3 0 29 -22 57 -50 28 -27 55 -50 61 -50 6 0 30 -20 54 -45 39 -42 46 -45 93 -45 49 0 51 -1 66 -39 11 -28 39 -57 99 -105 46 -36 85 -66 88 -66 3 0 19 -13 37 -30 18 -16 38 -30 45 -30 8 0 22 -10 32 -23 31 -39 106 -97 124 -97 15 0 79 -65 79 -80 0 -3 -21 -17 -48 -32 -26 -15 -90 -63 -142 -108 -79 -68 -170 -138 -224 -172 -6 -4 -38 -20 -70 -35 -173 -81 -253 -257 -258 -569 l-3 -152 49 -96 49 -95 -15 -48 c-15 -47 -16 -48 -66 -56 -51 -8 -102 -45 -102 -73 0 -7 -8 -19 -18 -26 -23 -17 -42 -82 -42 -145 0 -38 5 -54 21 -69 12 -10 30 -37 40 -59 10 -22 23 -47 28 -55 5 -8 16 -41 26 -72 10 -31 23 -59 29 -61 7 -3 25 -36 40 -73 39 -96 46 -111 69 -135 11 -12 58 -98 104 -193 81 -163 145 -256 179 -256 6 0 17 -7 24 -15 6 -8 57 -28 112 -46 90 -29 102 -36 125 -71 14 -21 36 -41 49 -44 12 -3 30 -14 40 -25 9 -10 27 -19 39 -19 21 0 21 -1 9 -62 -18 -86 -18 -109 1 -101 14 5 15 -7 13 -83 -2 -69 -6 -88 -17 -86 -17 4 -7 -45 15 -69 8 -8 14 -20 14 -25 0 -11 126 -114 140 -114 5 0 13 -6 17 -13 4 -7 25 -23 45 -36 40 -24 24 -24 298 -9 95 5 152 25 171 60 7 12 13 54 15 93 1 38 6 81 12 95 5 14 12 47 16 73 4 27 18 64 32 84 28 42 35 139 10 149 -11 4 -16 33 -22 106 -9 127 -18 138 -116 138 -61 0 -68 2 -68 20 0 11 -13 48 -30 82 -25 55 -28 68 -20 103 14 60 12 108 -9 193 -11 42 -22 107 -25 145 l-5 67 50 0 c69 0 89 12 89 55 0 19 5 35 10 35 14 0 13 117 -1 122 -7 2 -10 9 -8 16 2 7 25 -5 59 -31 30 -23 68 -48 83 -55 31 -13 145 -16 164 -4 30 19 66 219 45 244 -6 7 -12 29 -14 48 -3 32 -8 37 -93 79 -78 39 -100 45 -167 49 l-77 4 -7 34 c-3 19 -9 36 -13 38 -3 2 -43 7 -89 11 -72 7 -82 6 -82 -9 0 -10 -9 -16 -24 -16 -13 0 -33 -3 -43 -7 -13 -4 -12 -1 6 15 l24 22 -24 -1 c-13 -1 -35 -4 -49 -8 l-25 -7 25 -7 c35 -9 18 -20 -70 -45 -81 -24 -110 -27 -110 -13 0 13 27 21 45 15 8 -4 26 1 40 10 13 9 30 13 38 10 8 -3 17 2 20 10 8 20 5 20 -72 -4 -35 -11 -66 -18 -69 -15 -20 20 -36 94 -39 185 -3 58 -8 109 -14 114 -17 18 -9 42 31 105 22 34 40 66 40 71 0 4 4 10 8 12 9 3 78 124 165 288 28 52 63 111 79 131 15 20 28 42 28 48 0 6 4 11 9 11 5 0 31 27 58 61 26 33 67 84 91 113 23 29 42 59 42 67 0 8 16 29 35 48 19 18 35 39 35 47 0 28 33 79 71 112 22 19 39 38 39 43 0 6 14 30 30 54 28 40 30 50 30 132 0 48 -4 102 -9 119 -12 42 -146 219 -177 233 -17 7 -24 19 -24 38 0 21 -39 77 -155 221 -85 106 -164 206 -176 223 -12 17 -29 34 -39 37 -16 7 -16 12 4 81 l21 75 54 12 c42 9 64 22 104 61 29 28 60 53 70 56 24 9 22 55 -6 146 -29 95 -46 106 -177 113 -52 3 -108 3 -125 1z m265 -253 c-11 -21 -71 -70 -86 -70 -4 0 12 20 36 45 47 47 68 58 50 25z m-755 -346 c19 -20 35 -46 35 -59 0 -12 42 -83 94 -157 94 -135 132 -198 120 -198 -8 0 -319 226 -361 263 -51 45 -50 57 14 125 32 34 59 61 61 62 1 0 18 -16 37 -36z m958 -1085 c-15 -28 -29 -46 -31 -41 -5 15 36 92 49 92 6 0 -2 -23 -18 -51z m-78 -119 c-10 -11 -20 -18 -23 -15 -3 3 3 14 13 25 10 11 20 18 23 15 3 -3 -3 -14 -13 -25z m-1260 -330 c-20 -22 -31 -20 -22 5 4 8 14 15 23 15 16 0 16 -2 -1 -20z m1183 -907 c-10 -2 -26 -2 -35 0 -10 3 -2 5 17 5 19 0 27 -2 18 -5z m-1418 -108 c-7 -8 -17 -12 -22 -9 -5 3 -1 12 9 19 22 17 30 11 13 -10z m115 -435 c8 -16 15 -33 15 -37 -1 -13 -40 41 -40 55 0 20 9 14 25 -18z m1435 -1345 c0 -8 -4 -15 -10 -15 -5 0 -10 7 -10 15 0 8 5 15 10 15 6 0 10 -7 10 -15z">
      </path>
      <path id="pmkOgSUMa"
        d="M6458 6223 l-78 -57 0 -61 c0 -34 6 -68 13 -77 6 -8 44 -30 84 -48 l72 -33 58 -101 c31 -55 70 -121 85 -145 24 -39 28 -55 28 -120 0 -68 6 -99 40 -216 50 -170 57 -209 92 -475 l13 -95 40 -18 c75 -35 75 -36 75 -173 0 -97 4 -131 18 -166 11 -25 22 -81 25 -133 4 -49 14 -115 22 -145 10 -34 16 -88 15 -142 0 -51 3 -89 10 -93 6 -4 10 -53 10 -126 0 -97 7 -152 36 -297 27 -136 34 -191 30 -237 -3 -33 -9 -120 -12 -194 -5 -110 -10 -139 -25 -160 -15 -20 -21 -56 -29 -164 -8 -105 -17 -160 -40 -231 -17 -51 -30 -100 -30 -108 0 -8 -11 -27 -24 -41 -18 -20 -25 -41 -31 -101 -9 -103 2 -120 184 -279 l44 -38 -47 -30 c-26 -16 -78 -61 -116 -99 -37 -39 -72 -70 -76 -70 -5 0 -43 -33 -84 -72 -42 -40 -88 -79 -103 -87 -15 -8 -52 -37 -82 -66 -54 -50 -55 -52 -55 -105 0 -49 12 -117 38 -220 5 -19 19 -57 32 -85 12 -27 28 -65 36 -82 8 -18 21 -50 30 -70 86 -199 88 -206 85 -319 -3 -115 6 -145 63 -208 19 -20 37 -43 40 -51 7 -19 48 -35 88 -35 19 0 40 10 59 27 25 24 29 35 29 80 0 51 1 53 26 53 l27 0 -7 83 c-8 113 -19 146 -72 218 -26 34 -51 76 -56 93 -30 97 -50 275 -29 262 4 -3 6 -28 3 -55 l-4 -50 53 -3 c53 -3 54 -3 59 -38 10 -59 15 -63 84 -55 72 7 74 6 104 -75 11 -30 38 -100 61 -155 22 -55 44 -128 50 -162 14 -85 39 -130 121 -209 39 -37 76 -79 83 -93 7 -13 23 -32 37 -42 31 -23 151 -36 183 -21 12 5 30 13 40 16 9 3 17 15 17 26 0 11 5 20 11 20 8 0 10 20 6 65 -4 50 -11 75 -33 107 -16 22 -33 48 -39 57 -37 58 -52 74 -106 103 -35 20 -62 41 -64 53 -3 11 -17 73 -33 137 -27 112 -27 118 -10 124 11 3 15 10 11 17 -12 20 -10 47 3 47 7 0 15 -6 17 -12 3 -8 6 -5 6 5 1 27 80 102 124 118 33 11 37 17 37 46 0 21 -6 36 -15 39 -23 9 -18 20 15 34 25 10 30 18 30 46 0 18 -6 37 -14 41 -11 6 -7 14 19 33 47 35 75 88 75 144 0 35 4 46 16 46 12 0 15 9 13 43 -2 33 3 49 21 70 13 15 29 27 37 27 23 0 44 46 41 92 l-3 43 -51 0 c-50 0 -51 1 -43 23 5 13 9 37 9 54 0 29 -1 30 -39 26 l-39 -3 -6 50 c-3 27 -6 96 -6 153 0 105 -27 240 -54 272 -8 8 -19 32 -25 52 -7 21 -17 40 -22 43 -5 4 -9 15 -9 26 0 11 -23 64 -51 118 l-51 99 13 52 c11 42 25 63 76 113 35 34 75 84 88 112 14 27 36 71 50 97 16 30 28 72 32 114 4 43 13 76 27 95 94 133 216 317 216 327 0 6 6 15 14 19 8 4 48 59 90 121 57 84 76 121 76 146 0 33 -1 33 -52 39 -40 4 -78 20 -157 66 -57 33 -118 63 -135 66 -17 3 -107 43 -200 88 -145 70 -177 82 -232 85 l-63 4 -31 135 -32 135 28 29 c15 16 34 29 41 29 39 0 137 138 177 250 14 41 38 91 51 110 14 20 25 45 25 56 0 23 9 36 35 50 25 14 165 239 165 266 0 12 11 41 25 65 22 37 25 53 23 114 l-3 72 -132 66 c-97 49 -147 81 -190 123 -54 51 -65 57 -118 63 -57 8 -178 1 -209 -11 -9 -4 -16 -17 -15 -33 0 -14 3 -20 6 -13 11 27 23 10 23 -33 0 -25 -4 -45 -10 -45 -5 0 -10 7 -10 15 0 8 -4 15 -10 15 -5 0 -10 -20 -10 -44 0 -40 4 -48 39 -75 22 -17 60 -41 85 -52 29 -12 52 -31 61 -50 15 -29 15 -31 -55 -144 -38 -63 -70 -126 -70 -140 0 -19 -8 -28 -34 -39 -19 -8 -39 -22 -44 -32 -11 -20 -24 15 -63 180 -13 58 -30 100 -47 122 -22 28 -27 44 -28 96 -1 57 -47 254 -67 285 -4 7 -5 39 -1 72 6 55 4 63 -26 112 -29 49 -46 62 -169 135 -183 110 -239 133 -325 140 l-71 5 -77 -58z m1375 -589 c15 -15 33 -24 41 -21 8 3 16 -2 19 -13 4 -16 -1 -15 -49 8 -30 15 -54 33 -54 40 0 19 15 14 43 -14z m107 -49 c7 -9 11 -18 8 -20 -9 -10 -38 7 -38 21 0 18 14 18 30 -1z m-230 -669 c-11 -20 -20 -43 -20 -51 0 -8 -4 -15 -10 -15 -14 0 -13 2 16 67 15 32 28 53 31 47 2 -7 -5 -28 -17 -48z m-220 -326 c-6 -11 -18 -20 -27 -20 -14 0 -14 2 2 20 10 11 22 20 27 20 5 0 4 -9 -2 -20z m359 -1554 c-19 -42 -39 -67 -39 -50 0 11 53 104 57 100 2 -2 -6 -25 -18 -50z m-56 -95 c-7 -26 -123 -139 -123 -120 0 12 116 139 127 139 0 0 -1 -8 -4 -19z m-15 -507 c-10 -10 -28 6 -28 24 0 15 1 15 17 -1 9 -9 14 -19 11 -23z m-740 -69 c-16 -35 -29 -31 -15 4 6 17 14 28 19 25 4 -3 2 -16 -4 -29z m-16 -607 c-17 -18 -34 -29 -38 -25 -3 3 8 20 25 38 18 17 35 28 38 25 4 -4 -7 -21 -25 -38z m972 -83 c-4 -8 -13 -15 -21 -15 -13 0 -13 3 -3 15 7 8 16 15 21 15 5 0 6 -7 3 -15z m-1164 -90 c-7 -8 -17 -15 -23 -15 -5 0 -2 9 8 20 21 23 35 19 15 -5z m272 -240 c3 -38 3 -63 0 -55 -2 8 -11 23 -20 33 -20 22 -90 24 -99 1 -4 -12 -8 -13 -14 -3 -5 8 11 23 49 46 32 19 61 38 66 43 13 13 13 14 18 -65z m-102 -134 c0 -32 -6 -24 -14 19 -4 25 -3 31 4 20 5 -8 10 -26 10 -39z m730 -121 c-11 -20 -30 -28 -30 -12 0 11 22 32 32 32 5 0 4 -9 -2 -20z m124 -650 c3 -8 9 -22 12 -30 4 -8 -8 1 -24 20 -17 19 -31 38 -32 43 0 12 38 -16 44 -33z m-204 -134 c0 -6 -31 21 -70 59 -38 38 -70 74 -70 79 0 6 32 -21 70 -59 39 -38 70 -74 70 -79z m215 -66 c-3 -5 -17 -10 -31 -10 -14 0 -22 4 -19 10 3 6 17 10 31 10 14 0 22 -4 19 -10z">
      </path>
      <path id="p7IyWI83C"
        d="M4670 6161 c-14 -5 -51 -16 -82 -25 -64 -19 -76 -33 -82 -96 -4 -50 -7 -53 -75 -79 -49 -18 -57 -19 -71 -6 -25 23 -86 18 -190 -15 -52 -16 -107 -30 -122 -30 -55 0 -91 -78 -67 -146 7 -22 14 -51 14 -67 1 -31 32 -59 57 -51 9 3 25 0 35 -5 10 -6 37 -15 61 -21 32 -8 45 -18 53 -37 5 -15 19 -33 29 -40 11 -8 20 -21 20 -29 0 -29 34 -9 42 25 11 40 29 70 80 132 21 25 38 53 38 62 0 17 28 37 53 37 8 0 17 -13 21 -30 7 -36 46 -44 46 -10 0 19 10 24 38 21 6 -1 12 3 12 9 0 6 11 8 28 5 15 -4 37 -8 49 -11 26 -5 47 -56 30 -73 -8 -8 -3 -11 19 -11 25 0 50 18 127 90 53 50 104 90 112 90 12 0 15 -14 15 -62 1 -81 13 -98 73 -98 37 0 47 4 52 20 4 12 21 24 45 30 28 8 55 29 99 77 51 55 63 64 76 53 12 -10 16 -9 21 4 14 37 24 11 24 -65 0 -71 -2 -80 -15 -69 -13 11 -15 8 -15 -19 0 -30 2 -31 41 -31 38 0 40 1 37 28 -5 41 23 34 38 -10 12 -35 11 -38 -6 -38 -13 0 -17 -5 -13 -20 7 -27 21 -34 38 -20 11 9 16 7 25 -9 9 -18 8 -21 -10 -21 -36 0 -21 -17 44 -49 70 -34 99 -39 90 -16 -5 11 1 15 25 15 18 0 49 9 70 20 21 10 42 16 46 12 10 -11 33 27 28 46 -7 28 34 72 68 72 49 0 37 32 -23 63 -29 15 -80 43 -112 61 -33 19 -63 33 -67 31 -4 -3 -12 1 -18 9 -6 7 -33 16 -59 20 -40 6 -49 11 -62 38 -8 17 -24 36 -35 42 -11 6 -35 23 -53 39 -28 23 -41 27 -98 27 -59 0 -65 2 -73 24 -10 24 -29 36 -59 36 -8 0 -24 7 -33 16 -25 22 -147 31 -202 15 -23 -7 -66 -24 -94 -37 -62 -28 -83 -23 -84 20 -2 60 -3 61 -39 63 -19 1 -46 -2 -60 -6z">
      </path>
      <path id="p1DCMIokUz"
        d="M3085 5650 c-18 -7 -19 -8 -2 -15 31 -13 18 -25 -28 -25 -44 0 -61 14 -27 23 9 3 0 5 -20 6 l-36 1 -26 -78 c-30 -90 -33 -158 -11 -311 10 -69 12 -108 5 -115 -13 -13 -3 -505 12 -603 9 -61 14 -73 29 -73 11 0 19 -7 19 -17 0 -24 67 -153 86 -167 30 -22 29 -116 -2 -743 -5 -101 -9 -123 -22 -123 -27 0 -79 -48 -101 -94 -40 -86 -23 -302 25 -320 8 -3 14 -12 14 -20 0 -8 17 -28 37 -45 l38 -31 -30 0 c-27 0 -58 -8 -135 -35 -39 -14 -40 -16 -67 -180 -16 -99 -22 -266 -16 -430 1 -27 2 -81 1 -120 -2 -122 13 -236 34 -257 10 -10 18 -22 18 -26 0 -16 45 -49 120 -90 91 -49 120 -75 120 -107 0 -13 6 -25 13 -28 7 -3 -8 -25 -41 -59 -51 -53 -53 -56 -59 -124 -4 -50 -1 -86 11 -126 9 -31 16 -85 16 -120 0 -54 5 -72 30 -111 30 -47 81 -87 112 -87 9 0 33 -10 53 -21 33 -20 45 -21 138 -15 56 3 104 11 105 16 2 6 13 10 25 10 42 0 67 12 67 32 0 10 16 35 35 55 34 35 43 68 18 68 -6 0 -14 3 -18 7 -4 4 -20 5 -35 2 -19 -4 -29 -1 -33 10 -5 13 0 15 26 12 18 -2 41 0 52 5 17 6 15 8 -11 8 -41 1 -47 10 -28 39 11 17 19 68 27 168 l10 144 56 31 c53 28 61 30 156 27 96 -3 102 -2 136 24 20 16 45 49 56 75 38 88 71 168 78 193 10 31 105 180 115 180 7 0 260 -315 260 -324 0 -2 -11 -7 -24 -10 -20 -5 -25 -13 -28 -43 -3 -32 -8 -39 -33 -46 -55 -17 -60 -22 -63 -71 -3 -51 9 -76 39 -76 13 0 19 -9 21 -32 2 -22 10 -36 24 -42 11 -5 25 -23 30 -40 8 -28 13 -31 57 -34 27 -2 54 2 61 7 9 8 27 7 62 -3 51 -15 163 -35 247 -43 58 -6 83 12 93 65 4 19 15 58 25 86 11 28 19 72 19 98 0 46 1 48 30 48 25 0 30 4 35 33 11 55 2 91 -22 102 -14 6 -23 19 -23 31 0 22 -28 54 -48 54 -7 0 -12 11 -12 23 0 36 -30 57 -83 57 -25 0 -49 -4 -52 -10 -16 -26 -52 -5 -142 83 -52 50 -113 121 -136 157 -23 35 -103 157 -179 270 l-136 205 24 26 c13 14 24 30 24 37 0 7 10 22 23 35 21 21 22 29 22 187 0 160 -1 167 -27 216 -15 28 -52 73 -82 100 l-55 49 59 134 c33 73 60 142 60 152 0 11 4 19 9 19 12 0 98 234 112 305 6 33 22 94 34 135 34 108 39 160 25 248 -13 76 -12 79 15 139 25 56 27 69 22 145 -9 128 -16 158 -38 158 -17 0 -18 11 -17 188 3 207 5 199 -70 295 -42 53 -48 57 -86 57 -37 0 -48 -7 -103 -61 -67 -65 -76 -93 -53 -153 6 -18 6 -43 -2 -78 -6 -29 -12 -118 -13 -198 0 -80 -4 -176 -8 -215 -4 -38 -4 -64 -1 -57 3 6 10 10 15 6 12 -7 12 -101 -1 -109 -5 -3 -10 3 -10 14 0 28 -16 27 -24 -1 -9 -36 -7 -73 5 -85 6 -6 9 -28 6 -50 -7 -57 -45 -184 -60 -202 -7 -9 -26 -41 -42 -71 -28 -55 -48 -85 -131 -195 -24 -33 -56 -85 -71 -115 -34 -73 -74 -122 -117 -145 l-36 -20 -31 31 c-28 28 -32 40 -44 140 -7 60 -24 149 -36 198 -21 82 -23 87 -35 65 -11 -21 -13 -22 -19 -7 -10 24 -1 63 13 60 15 -3 16 116 1 173 -18 71 -19 72 -31 51 -7 -13 -7 -20 2 -26 6 -4 10 -18 8 -31 -4 -23 -5 -23 -12 -4 -4 11 -12 28 -17 37 -15 30 -11 98 6 98 19 0 19 15 -2 75 -15 45 -17 47 -25 25 -13 -36 -25 -13 -30 57 -4 60 -3 62 14 46 17 -15 18 -15 18 3 0 10 -7 32 -15 48 -8 15 -15 54 -15 85 0 91 -17 224 -33 261 -73 173 -81 304 -27 450 28 77 31 93 26 164 -4 49 -12 90 -24 110 -16 28 -24 32 -78 37 -83 9 -166 9 -189 -1z m217 -29 c4 -4 -11 -5 -33 -3 -28 3 -37 7 -28 13 14 8 47 3 61 -10z m48 -732 c0 -11 -4 -17 -10 -14 -5 3 -10 13 -10 21 0 8 5 14 10 14 6 0 10 -9 10 -21z m779 -741 c0 -7 -4 -22 -9 -33 -7 -17 -9 -15 -9 13 -1 17 4 32 9 32 6 0 10 -6 9 -12z m-19 -77 c0 -10 -9 -29 -21 -42 l-20 -24 6 30 c6 27 22 55 31 55 2 0 4 -9 4 -19z m-73 -137 c-50 -87 -61 -104 -71 -104 -5 0 -2 8 7 18 10 10 15 21 12 24 -8 8 41 98 61 113 11 7 20 12 22 11 1 -2 -13 -30 -31 -62z m-208 -323 c-11 -24 -23 -41 -26 -38 -3 3 5 24 18 46 29 53 35 47 8 -8z m625 -1988 c-10 -7 -27 -13 -39 -13 -12 0 -26 -5 -33 -12 -9 -9 -12 -7 -12 10 0 19 5 22 45 22 35 0 43 3 39 15 -4 8 -3 23 2 33 6 14 9 11 12 -13 2 -20 -2 -33 -14 -42z m-569 -3 c-3 -6 -49 -10 -101 -10 -61 0 -93 4 -89 10 3 6 49 10 101 10 61 0 93 -4 89 -10z m-760 -80 c-16 -16 -30 -28 -33 -26 -8 9 31 56 46 56 11 0 8 -8 -13 -30z">
      </path>
      <path id="psURJHV75"
        d="M9046 1974 c-5 -13 0 -14 23 -9 20 4 53 -2 102 -20 39 -14 74 -23 77 -21 3 3 -7 10 -22 15 -14 6 -26 15 -26 20 0 10 -49 23 -107 27 -30 2 -43 -1 -47 -12z">
      </path>
    </g>
  </g>
  <g id="lOH2oeZbiqCvQJyNmDnCS7" fill="rgb(236,235,191)">
    <g>
      <path id="puee6fcy9"
        d="M8847 6860 c-19 -15 -28 -34 -32 -68 -6 -41 -23 -112 -70 -287 -7 -27 -21 -72 -30 -100 -10 -27 -19 -75 -20 -105 -2 -65 -8 -82 -45 -118 -27 -27 -70 -159 -70 -213 0 -14 -4 -29 -9 -34 -5 -6 -11 -37 -15 -70 -3 -33 -11 -91 -17 -130 -15 -88 -16 -305 -1 -365 6 -25 16 -64 21 -87 19 -77 29 -117 40 -168 18 -89 48 -187 106 -350 31 -88 57 -164 58 -170 5 -20 40 -111 58 -152 11 -24 19 -49 19 -58 0 -8 14 -45 31 -82 17 -38 37 -81 44 -98 7 -16 29 -64 49 -106 20 -42 36 -82 36 -88 0 -7 7 -22 15 -35 40 -61 62 -265 31 -290 -8 -6 -23 -27 -33 -47 -11 -20 -32 -51 -47 -69 l-27 -33 -61 32 c-61 31 -111 40 -123 21 -3 -5 -16 -10 -29 -10 -12 0 -26 -4 -32 -8 -5 -4 -27 -14 -49 -21 -22 -7 -49 -16 -60 -20 -112 -45 -127 -62 -116 -133 4 -26 4 -51 -1 -56 -11 -11 -4 -238 9 -307 6 -27 15 -63 22 -79 11 -26 8 -31 -42 -86 -100 -107 -137 -209 -137 -378 l0 -124 35 -34 c33 -32 40 -34 101 -34 60 0 68 3 94 30 16 17 30 26 32 21 5 -15 58 -25 58 -11 0 6 -9 14 -20 17 -11 3 -20 9 -20 14 0 12 37 11 45 -1 8 -13 81 -13 105 0 23 12 37 -4 21 -24 -6 -7 -11 -71 -12 -155 -1 -132 1 -145 20 -165 12 -12 21 -31 21 -43 0 -25 37 -66 80 -88 25 -13 56 -16 138 -15 127 2 181 -12 229 -60 38 -39 42 -60 13 -60 -47 0 -150 -76 -150 -111 0 -10 -4 -19 -9 -21 -6 -2 -7 -45 -2 -108 4 -59 3 -120 -2 -140 -5 -19 -6 -52 -3 -75 3 -22 10 -69 15 -104 9 -60 8 -65 -17 -103 -63 -95 -64 -96 -52 -118 6 -11 9 -29 5 -39 -5 -18 9 -32 145 -149 40 -34 65 -50 132 -83 10 -5 52 -9 94 -9 41 0 83 -4 93 -9 9 -5 61 -12 115 -15 82 -5 108 -2 160 15 67 23 128 49 136 60 3 3 19 13 36 22 57 29 119 112 148 200 3 10 8 117 12 237 4 188 3 225 -12 270 -9 28 -23 54 -30 57 -30 11 -14 43 34 65 26 12 57 32 70 45 12 13 46 31 75 40 67 19 171 78 196 109 10 13 23 24 29 24 41 0 110 224 98 316 -9 61 -9 71 2 339 4 121 5 238 1 260 -12 61 -24 112 -49 200 -12 44 -24 91 -27 105 -2 14 -8 34 -13 45 -5 11 -11 34 -13 50 -3 17 -11 48 -17 70 -14 49 -30 115 -34 136 -4 29 -36 70 -62 79 -30 12 -30 21 0 73 53 90 74 181 81 347 15 330 16 446 6 480 -5 19 -12 47 -15 61 -6 27 -30 63 -89 133 -22 25 -43 61 -48 81 -5 19 -14 52 -20 73 -5 20 -15 57 -20 82 -8 38 -73 182 -140 311 -13 25 -21 68 -25 140 -4 73 -12 114 -25 136 -15 27 -17 44 -10 102 7 65 10 72 55 117 57 58 71 84 80 144 8 59 26 140 37 165 18 44 20 66 9 104 -8 29 -7 46 2 68 7 15 15 91 20 168 4 77 7 145 8 150 1 20 -13 80 -22 91 -8 11 1 65 23 140 5 17 9 41 9 55 0 13 6 35 13 49 17 34 14 118 -7 158 l-17 32 -252 0 c-193 -1 -256 -4 -269 -14 -35 -26 -68 -122 -68 -196 0 -38 -4 -72 -10 -75 -5 -3 -10 -26 -10 -50 0 -24 -4 -47 -10 -50 -5 -3 -10 -17 -10 -30 0 -13 -4 -27 -10 -30 -5 -3 -10 -21 -10 -40 0 -19 -4 -36 -9 -39 -4 -3 -11 -34 -14 -70 -4 -42 -22 -103 -52 -177 -29 -74 -45 -128 -45 -156 0 -35 -8 -55 -38 -96 -57 -79 -67 -110 -89 -271 -12 -92 -33 -85 -32 11 0 43 0 116 0 163 1 78 3 87 30 121 16 20 29 41 29 46 0 6 18 37 41 71 40 59 41 62 36 129 -3 37 -10 92 -15 121 -11 54 -5 130 18 222 6 25 15 64 21 88 5 23 14 62 19 87 23 104 26 131 15 167 -19 68 -15 67 -356 68 -293 0 -307 -1 -332 -20z m1363 -74 c0 -8 -16 -84 -36 -168 -35 -150 -35 -154 -20 -204 13 -42 15 -77 10 -185 -6 -118 -10 -138 -31 -169 -29 -44 -29 -61 3 -99 23 -27 24 -32 11 -53 -8 -13 -27 -74 -42 -137 -19 -78 -35 -120 -49 -133 -63 -58 -117 -115 -121 -130 -4 -9 1 -30 9 -47 15 -28 15 -32 -6 -67 l-22 -37 35 -31 c33 -29 35 -35 37 -101 4 -119 30 -201 129 -400 38 -78 56 -130 88 -264 12 -48 25 -75 54 -106 101 -109 109 -156 92 -507 -13 -263 -22 -309 -83 -416 -25 -44 -63 -153 -55 -157 1 -1 23 -11 48 -22 25 -12 51 -28 57 -36 11 -13 62 -194 98 -352 9 -38 20 -74 25 -80 5 -5 9 -20 9 -33 0 -14 10 -57 21 -96 21 -69 21 -77 9 -251 -7 -99 -12 -243 -12 -320 1 -77 -4 -160 -10 -185 -13 -52 -56 -129 -78 -141 -56 -29 -135 -60 -192 -74 -46 -12 -69 -23 -73 -35 -15 -48 -101 -90 -183 -90 -39 0 -44 -3 -59 -35 -22 -45 -8 -77 45 -104 81 -41 113 -114 97 -219 -3 -26 -7 -104 -8 -173 -2 -118 -4 -130 -32 -187 -16 -34 -36 -62 -43 -62 -7 0 -28 -11 -45 -24 -91 -70 -188 -83 -421 -58 -126 13 -163 30 -226 97 -13 14 -39 35 -57 46 -38 24 -41 46 -13 82 11 14 20 28 20 32 0 4 9 20 20 35 19 26 19 33 8 102 -6 40 -11 129 -9 198 2 106 0 128 -13 139 -23 19 -20 45 9 79 25 30 86 52 145 52 37 0 39 5 43 101 l3 76 -38 29 c-21 15 -41 39 -44 51 -6 24 -30 31 -36 11 -3 -9 -14 -7 -41 5 -20 10 -37 22 -37 26 0 10 -50 23 -107 27 -29 2 -43 -1 -47 -12 -4 -9 -21 -14 -55 -14 -58 0 -81 7 -81 25 0 7 -6 15 -12 18 -10 3 -10 9 0 27 12 20 11 25 -19 56 -31 32 -32 35 -16 52 15 17 15 20 0 41 -13 19 -13 25 -2 32 11 7 12 12 2 28 -22 36 -6 51 52 51 30 0 56 3 59 8 2 4 -9 46 -26 92 -16 47 -38 119 -48 160 -31 128 -36 133 -68 63 -23 -51 -105 -143 -126 -143 -22 0 -36 23 -36 62 0 21 -3 38 -7 38 -17 0 -72 -40 -89 -65 -45 -65 -70 -86 -106 -92 l-38 -6 0 93 c0 149 31 222 144 334 72 71 78 81 67 99 -61 97 -71 142 -71 320 l0 145 55 21 c30 11 80 30 110 42 30 12 58 19 63 17 4 -1 56 -30 115 -62 85 -47 109 -65 113 -85 30 -143 70 -251 95 -251 23 0 20 61 -11 194 -59 255 -59 224 5 311 47 63 58 86 66 138 7 42 7 73 0 97 -6 19 -19 69 -30 110 -11 41 -47 132 -80 202 -34 70 -61 134 -61 141 0 7 -4 17 -9 23 -14 16 -100 240 -157 412 -30 92 -59 176 -64 187 -23 52 -62 187 -73 255 -2 14 -19 88 -37 165 -30 130 -32 149 -27 265 5 106 32 293 65 455 5 22 30 73 55 113 40 61 47 80 47 122 0 29 20 121 50 226 28 97 50 189 50 204 0 16 4 40 10 54 l10 26 245 0 c243 0 245 0 245 -21 0 -12 -4 -38 -10 -58 -5 -20 -28 -119 -51 -220 -41 -180 -41 -185 -26 -230 8 -25 18 -70 22 -99 6 -51 3 -58 -40 -133 -26 -43 -50 -79 -55 -79 -4 0 -20 -24 -36 -54 -26 -50 -27 -55 -12 -78 15 -22 14 -27 -3 -63 -24 -48 -24 -50 2 -87 17 -23 20 -39 16 -71 -10 -70 41 -238 95 -317 25 -36 65 -99 89 -140 l44 -75 7 85 c3 47 6 135 7 197 1 65 9 152 20 210 11 54 23 120 26 146 6 37 20 64 62 118 52 67 54 73 53 127 -1 45 6 74 33 138 20 46 40 116 47 160 11 73 39 185 61 244 13 36 29 155 29 221 0 62 13 85 50 92 14 2 100 5 193 6 139 1 167 -1 167 -13z">
      </path>
      <path id="p1EjSHJ1f2"
        d="M2070 6710 c-8 -5 -27 -10 -42 -10 -15 0 -30 -4 -33 -10 -3 -5 -19 -10 -34 -10 -15 0 -43 -5 -62 -12 -35 -12 -46 -19 -169 -103 -81 -56 -104 -71 -146 -99 -16 -11 -38 -28 -50 -38 -12 -10 -57 -28 -100 -39 -43 -11 -94 -24 -113 -29 -19 -5 -46 -17 -61 -28 -56 -42 -207 -141 -254 -166 -27 -15 -63 -38 -80 -50 -17 -13 -39 -26 -48 -29 -10 -4 -18 -11 -18 -16 0 -5 -9 -13 -21 -16 -12 -4 -39 -23 -60 -42 -37 -34 -39 -38 -39 -98 0 -70 12 -113 47 -164 13 -19 21 -41 18 -49 -3 -7 8 -26 24 -40 46 -43 133 -118 177 -154 23 -18 66 -54 96 -80 32 -28 65 -48 79 -48 13 0 39 -15 60 -36 20 -19 56 -49 81 -67 56 -40 189 -147 242 -194 22 -20 55 -45 73 -56 38 -22 40 -45 6 -63 -13 -6 -49 -35 -81 -65 -102 -94 -137 -123 -146 -120 -5 1 -21 -9 -35 -23 -14 -13 -44 -32 -66 -41 -47 -19 -106 -57 -156 -101 -20 -17 -40 -33 -46 -35 -11 -5 -93 -172 -93 -190 0 -12 -5 -33 -30 -112 -6 -20 -13 -47 -14 -60 -2 -12 -6 -33 -10 -47 -4 -14 -3 -59 2 -100 5 -41 6 -82 2 -90 -9 -19 26 -126 67 -207 35 -67 33 -74 -22 -87 -18 -4 -53 -32 -90 -70 -61 -65 -85 -117 -85 -187 0 -17 -5 -40 -11 -51 -14 -26 11 -96 46 -126 14 -12 25 -29 25 -38 0 -9 6 -28 14 -42 32 -60 76 -165 76 -183 0 -10 8 -24 18 -31 10 -7 26 -34 35 -60 10 -25 32 -66 50 -90 41 -55 63 -93 97 -170 5 -13 14 -30 19 -38 5 -8 23 -46 40 -83 35 -77 125 -180 181 -204 68 -30 135 -53 152 -53 10 0 45 -24 77 -53 33 -28 69 -59 82 -68 22 -15 22 -16 7 -75 -25 -89 -23 -209 2 -267 12 -26 28 -47 36 -47 8 0 14 -6 13 -12 -5 -34 25 -77 72 -107 28 -17 53 -31 56 -31 3 0 32 -23 65 -50 33 -28 64 -47 70 -44 5 4 20 2 31 -4 46 -23 112 -30 135 -14 22 14 69 18 147 12 25 -2 65 6 104 20 56 21 69 31 108 84 l45 61 -7 68 c-4 44 -2 73 4 81 6 7 14 35 17 62 5 30 18 65 37 91 29 40 30 46 23 113 -3 40 -13 85 -21 101 -9 16 -18 66 -22 110 -5 66 -11 87 -31 111 -33 39 -94 69 -134 66 -30 -3 -35 1 -56 46 -23 48 -24 49 -6 95 10 25 17 51 15 56 -11 34 -24 89 -35 153 l-13 73 36 26 c72 53 101 86 101 115 0 36 20 44 60 23 39 -20 125 -23 165 -5 17 8 43 25 58 37 35 28 47 29 47 3 0 -18 18 -67 42 -113 12 -24 2 -37 -27 -37 -21 0 -84 -50 -86 -68 -1 -8 -5 -44 -18 -137 -5 -38 -13 -95 -17 -125 -3 -30 -11 -60 -16 -67 -18 -23 -21 -118 -5 -189 10 -45 14 -92 10 -134 -7 -78 -7 -97 2 -175 4 -33 9 -95 12 -138 5 -69 8 -79 27 -87 13 -4 36 -25 52 -45 16 -20 36 -37 45 -38 20 -3 69 -42 69 -55 0 -21 28 -34 50 -22 16 9 21 8 26 -4 7 -18 -22 -75 -42 -83 -7 -3 -14 -18 -14 -34 0 -15 -7 -53 -15 -84 -17 -68 -13 -104 32 -244 8 -26 12 -60 8 -81 -5 -30 -2 -41 19 -63 30 -33 33 -42 9 -33 -10 4 0 -8 21 -26 45 -38 133 -88 153 -88 7 0 21 -4 31 -9 9 -6 30 -12 45 -16 15 -3 25 -10 22 -15 -8 -14 14 -12 66 3 25 8 69 12 99 11 41 -3 67 3 110 22 52 23 60 31 89 89 22 43 43 70 67 84 22 13 32 25 28 35 -3 8 0 24 6 36 18 33 -14 100 -47 100 -26 0 -40 23 -26 43 5 6 8 49 7 94 -1 44 2 87 7 95 6 9 35 14 96 15 112 2 133 5 126 17 -3 5 5 7 20 4 15 -3 25 -1 24 5 -1 6 17 23 41 39 23 16 42 34 42 41 0 6 17 36 38 67 21 30 45 71 52 90 19 50 56 98 90 115 28 15 29 14 74 -31 26 -25 51 -55 57 -65 14 -28 2 -58 -27 -65 -13 -3 -24 -11 -24 -17 0 -6 -11 -22 -24 -36 -26 -28 -47 -90 -41 -122 2 -11 18 -40 34 -65 17 -25 31 -47 31 -49 0 -2 10 -15 23 -28 12 -13 40 -46 61 -74 46 -60 58 -64 184 -57 61 3 99 1 114 -7 12 -7 40 -11 62 -11 22 1 50 -5 63 -13 32 -21 78 -14 143 21 54 28 56 31 79 104 29 92 59 162 74 175 42 36 60 146 32 199 -8 15 -12 32 -9 38 3 5 -18 31 -47 58 -31 29 -53 57 -54 71 -1 15 -16 34 -41 51 -35 25 -45 27 -101 22 -42 -4 -63 -2 -63 5 0 6 5 11 10 11 6 0 10 5 10 10 0 6 -7 10 -15 10 -8 0 -15 -6 -15 -14 0 -25 -39 -6 -76 38 -19 22 -39 42 -45 42 -5 1 -13 2 -19 3 -5 0 -10 10 -10 21 0 11 -7 20 -14 20 -8 0 -21 11 -28 24 -7 14 -27 49 -44 78 -17 29 -34 65 -38 81 -4 18 -13 27 -26 27 -25 0 -35 17 -20 35 9 11 6 16 -13 27 -27 14 -79 79 -120 149 l-26 44 18 41 c10 23 26 44 36 48 12 4 15 13 12 27 -3 12 1 32 9 44 12 19 14 48 11 142 -6 171 -35 249 -131 350 l-39 42 18 43 c11 24 27 54 37 67 10 13 18 32 18 42 0 10 12 44 26 76 46 104 115 287 118 318 2 17 9 48 16 70 6 22 15 56 19 75 5 19 18 59 30 89 12 29 19 62 15 73 -10 34 18 110 49 127 15 9 29 23 32 31 3 8 18 30 35 48 16 19 34 49 40 68 13 38 34 47 95 42 53 -4 78 -40 81 -115 1 -32 -4 -77 -12 -101 -31 -93 -13 -156 70 -246 24 -27 50 -62 57 -77 15 -38 29 -37 29 4 0 39 17 89 48 141 33 55 54 116 53 151 -1 17 3 37 8 45 7 10 0 32 -24 75 -18 33 -41 80 -50 105 -9 25 -25 63 -35 85 -25 53 -32 86 -37 173 -5 80 4 102 42 102 33 0 75 -37 75 -66 0 -14 8 -41 19 -62 11 -22 17 -49 14 -67 -7 -44 29 -71 84 -66 8 1 11 23 8 78 -3 52 0 91 10 121 35 103 62 127 100 92 13 -12 25 -18 28 -13 11 17 -9 142 -26 161 -9 10 -17 21 -17 25 0 17 -59 89 -120 148 -65 61 -91 101 -95 141 -1 9 -5 36 -9 59 -9 58 2 123 25 148 14 14 32 21 59 21 38 0 75 -23 65 -41 -9 -14 25 -58 41 -52 15 5 16 1 19 -57 5 -72 25 -110 61 -110 7 0 21 -15 33 -32 11 -18 38 -51 60 -73 47 -44 44 -49 41 81 -2 107 13 139 72 150 61 12 61 12 69 -16 l6 -25 11 28 c10 24 8 33 -13 67 -14 22 -25 42 -25 45 0 3 -12 22 -27 41 -38 49 -91 74 -154 74 -60 0 -119 30 -119 61 0 26 7 24 37 -12 19 -22 33 -29 52 -27 35 4 36 40 1 48 -18 4 -26 13 -28 33 -3 23 -7 27 -23 22 -36 -12 -59 21 -59 84 0 31 4 62 9 69 8 13 -17 81 -30 82 -4 0 -19 -17 -35 -37 -63 -83 -127 -143 -165 -153 -23 -6 -40 -18 -44 -30 -9 -27 -39 -25 -53 3 -6 12 -13 49 -14 82 -3 65 -13 74 -64 61 -39 -10 -242 -204 -246 -235 -4 -34 -61 -51 -107 -32 -26 11 -31 20 -36 60 -3 25 -10 56 -16 69 -5 13 -9 32 -9 43 0 25 -25 35 -53 22 -12 -6 -34 -15 -49 -22 -16 -6 -28 -18 -28 -28 0 -9 -18 -38 -39 -64 -77 -91 -86 -118 -83 -256 l2 -121 -37 -23 c-95 -58 -171 -169 -159 -231 15 -72 18 -120 7 -131 -7 -7 -11 -70 -11 -181 0 -181 -13 -340 -28 -359 -21 -26 -23 -74 -5 -111 14 -30 15 -41 5 -56 -7 -11 -12 -31 -12 -44 0 -14 -5 -28 -10 -31 -5 -3 -10 -15 -10 -25 0 -25 -105 -221 -130 -241 -23 -19 -128 -193 -136 -225 -7 -28 -42 -66 -57 -61 -7 2 -15 37 -18 83 -6 73 -15 124 -41 229 -5 22 -12 76 -14 120 -5 92 -21 182 -35 190 -5 4 -9 22 -9 42 0 36 -14 91 -31 125 -5 10 -9 43 -9 73 0 33 -7 69 -17 88 -11 22 -19 71 -23 162 -7 131 -26 210 -81 332 -20 46 -25 88 -10 97 5 3 9 32 8 63 -1 45 6 77 32 141 42 102 41 176 -2 264 -46 94 -61 108 -117 108 -27 0 -51 4 -54 9 -7 10 -137 7 -235 -6 -54 -8 -69 -14 -89 -39 -34 -43 -94 -221 -87 -259 8 -42 26 -226 24 -250 -5 -58 -1 -549 5 -605 9 -87 26 -142 48 -160 10 -8 40 -54 67 -102 45 -80 48 -91 49 -159 1 -41 -4 -110 -9 -154 -6 -44 -14 -136 -19 -205 -4 -69 -11 -134 -15 -145 -5 -15 -4 -16 3 -6 8 11 11 7 16 -15 10 -47 3 -144 -10 -144 -7 0 -15 -8 -18 -18 -4 -10 -24 -36 -47 -58 -39 -38 -41 -38 -55 -20 -8 11 -14 33 -14 49 0 41 -36 96 -68 103 -15 4 -62 25 -104 46 -49 25 -94 40 -123 42 -38 2 -50 8 -84 45 -22 24 -45 40 -51 36 -6 -4 -16 -2 -23 3 -15 13 -217 22 -238 11 -9 -4 -28 -10 -43 -13 -15 -3 -43 -10 -62 -16 -18 -6 -38 -9 -43 -6 -5 3 -9 46 -10 96 0 50 -5 99 -11 109 -15 28 -14 31 29 97 21 32 53 86 70 119 17 32 38 66 45 75 23 26 106 191 106 210 0 11 8 25 18 32 10 7 38 40 64 73 25 33 58 71 72 84 14 14 26 30 26 36 0 6 24 39 53 72 29 34 76 101 105 150 28 48 66 105 84 126 44 53 95 139 109 185 10 36 8 98 -7 187 -7 42 -76 153 -149 240 -23 28 -51 68 -63 90 -11 22 -36 56 -56 74 -20 19 -36 39 -36 44 0 6 -19 32 -42 58 -126 143 -238 290 -238 312 0 19 32 47 54 47 22 0 61 25 116 75 25 22 54 47 66 55 11 8 26 25 32 37 15 27 16 90 2 98 -5 3 -10 16 -10 27 0 12 -4 35 -10 52 -5 17 -12 44 -15 60 -14 67 -123 116 -259 116 -50 0 -98 -5 -106 -10z m234 -119 c25 -14 35 -30 53 -91 l22 -74 -34 -42 c-38 -46 -84 -72 -160 -89 l-50 -11 -22 -75 c-28 -95 -29 -139 -5 -139 9 0 23 -10 31 -22 8 -13 27 -39 43 -58 60 -75 244 -307 271 -343 21 -27 27 -45 23 -62 -5 -18 -1 -25 16 -30 26 -9 93 -76 113 -115 8 -16 21 -33 27 -37 30 -19 52 -79 56 -154 4 -73 3 -79 -27 -122 -17 -25 -31 -50 -31 -55 0 -5 -9 -17 -21 -28 -12 -10 -30 -37 -41 -59 -36 -70 -94 -148 -294 -399 -45 -55 -98 -135 -119 -175 -20 -41 -47 -91 -60 -110 -12 -20 -42 -74 -67 -121 -24 -47 -59 -106 -77 -130 -18 -25 -43 -64 -54 -88 -20 -41 -21 -44 -4 -75 12 -23 17 -64 20 -142 3 -108 22 -185 46 -193 6 -2 18 4 27 13 10 9 24 13 36 10 10 -4 30 0 43 9 13 9 30 13 38 10 8 -3 17 2 20 10 7 18 38 21 53 6 7 -7 18 -4 34 10 27 24 60 26 60 5 0 -16 29 -20 102 -16 36 3 37 1 48 -41 18 -69 19 -71 38 -62 51 22 101 16 184 -22 45 -22 89 -38 99 -36 17 3 29 -23 29 -68 0 -15 5 -31 11 -37 7 -7 8 -20 3 -34 -4 -13 -7 -28 -6 -32 4 -16 -28 -111 -41 -119 -18 -12 -71 -10 -103 4 -16 7 -54 32 -84 54 -65 49 -131 76 -137 57 -3 -7 -14 -14 -26 -14 -16 -1 -14 -3 8 -8 25 -5 31 -12 33 -38 3 -29 1 -32 -30 -36 -29 -3 -28 -4 10 -5 40 -2 42 -4 42 -32 0 -16 -3 -30 -7 -30 -5 0 -14 -4 -22 -9 -10 -7 -11 -13 -1 -31 18 -35 -10 -52 -80 -49 -30 2 -55 -1 -55 -7 4 -84 21 -205 36 -267 21 -83 19 -128 -9 -181 -12 -25 -12 -31 0 -40 16 -13 68 -133 68 -158 0 -15 10 -18 68 -18 84 0 113 -20 111 -78 -2 -64 13 -157 27 -165 21 -12 17 -50 -10 -89 -13 -19 -28 -62 -34 -96 -6 -33 -20 -80 -32 -103 l-20 -44 20 -27 c21 -29 26 -48 12 -48 -5 0 -14 -11 -20 -26 -17 -36 -74 -56 -172 -60 -47 -2 -111 -6 -142 -10 -68 -7 -85 1 -225 113 -68 54 -93 81 -98 103 -5 21 -12 30 -23 28 -25 -4 -31 151 -7 168 16 12 45 124 45 171 0 17 -6 23 -23 23 -13 0 -32 9 -41 19 -10 11 -28 22 -40 25 -13 3 -35 23 -49 44 -23 35 -35 42 -125 71 -55 18 -106 38 -112 46 -7 8 -18 15 -24 15 -32 0 -98 93 -169 235 -41 83 -95 182 -121 220 -25 39 -46 77 -46 86 0 8 -13 33 -28 55 -16 21 -37 62 -47 89 -10 28 -28 74 -41 103 -13 29 -24 57 -24 62 0 5 -14 25 -30 43 -34 39 -36 53 -15 120 8 26 12 47 10 47 -2 0 17 20 43 45 37 37 55 46 95 51 32 5 50 12 54 23 2 9 13 37 23 62 l18 47 -55 110 -55 110 1 128 c1 99 7 150 25 219 25 94 91 245 108 245 6 0 27 13 47 28 20 16 58 39 86 51 53 25 138 80 143 93 2 4 9 8 15 8 7 0 59 41 117 91 58 50 138 109 177 132 77 44 88 61 49 71 -13 3 -41 28 -62 56 -26 34 -41 46 -49 40 -8 -6 -36 11 -87 53 -42 34 -130 104 -196 155 -95 73 -124 102 -136 133 -15 38 -17 39 -64 39 -44 0 -54 5 -109 53 -34 28 -99 84 -147 122 -73 60 -86 74 -86 101 0 20 -10 39 -30 59 -16 16 -30 39 -30 51 0 12 -7 27 -15 34 -18 15 -20 30 -4 30 6 0 41 21 77 48 77 55 108 74 217 135 44 25 114 70 155 101 72 53 101 65 201 81 35 5 38 3 63 -37 l26 -43 -6 51 -6 51 98 70 c196 139 260 180 289 185 17 3 55 13 85 21 30 8 69 17 85 19 61 6 158 -4 189 -21z m856 -965 c36 -1 72 1 81 5 46 22 91 -33 103 -126 6 -42 1 -64 -25 -135 -28 -73 -33 -101 -36 -194 -3 -97 -1 -118 23 -188 14 -43 30 -78 36 -78 5 0 8 -10 7 -22 -1 -13 3 -42 10 -66 6 -23 14 -97 16 -164 4 -119 5 -122 35 -153 25 -25 30 -39 30 -77 0 -26 -4 -49 -9 -52 -15 -10 11 -78 32 -84 17 -4 19 -12 15 -53 -3 -27 -1 -49 4 -49 5 0 8 -17 7 -37 -5 -78 1 -164 11 -158 16 10 24 -25 13 -56 -9 -22 -7 -45 9 -106 11 -42 26 -126 33 -186 12 -96 17 -113 41 -138 57 -60 165 -24 205 67 19 45 141 228 160 239 5 4 7 10 4 15 -3 4 2 13 10 20 8 7 13 16 10 20 -7 12 41 100 63 116 11 7 23 29 26 48 4 19 13 39 21 46 8 7 15 26 15 43 0 17 8 35 17 42 23 17 35 151 16 167 -7 6 -11 13 -8 17 2 4 -1 26 -7 49 -11 44 -4 97 12 87 6 -3 10 -3 10 2 1 4 6 51 13 104 8 58 10 125 6 170 -5 54 -2 96 10 155 15 70 16 88 4 125 -7 24 -13 45 -13 45 -1 7 128 124 136 124 12 0 92 -99 114 -140 14 -27 17 -217 4 -349 -6 -72 -6 -73 14 -62 29 15 29 15 36 -26 20 -123 19 -142 -9 -205 -26 -57 -27 -67 -20 -142 11 -117 8 -161 -15 -230 -11 -33 -29 -102 -40 -152 -21 -96 -83 -259 -194 -509 l-67 -150 28 -20 c62 -45 106 -91 131 -139 23 -45 27 -65 30 -173 4 -112 2 -126 -19 -168 -13 -26 -40 -62 -61 -81 -21 -19 -38 -36 -38 -39 0 -5 84 -134 130 -200 20 -29 122 -185 207 -315 23 -36 83 -106 135 -156 83 -81 99 -92 139 -98 35 -5 49 -3 59 9 17 21 43 19 66 -6 15 -17 16 -23 6 -40 -11 -17 -9 -19 11 -19 13 0 32 -9 42 -20 18 -20 18 -21 -5 -53 -12 -17 -17 -26 -9 -19 17 16 54 15 68 -2 7 -8 9 -25 5 -40 -5 -20 -12 -26 -35 -26 -28 0 -29 -2 -29 -48 0 -26 -8 -70 -19 -98 -10 -28 -21 -67 -25 -86 -3 -19 -15 -43 -26 -53 -17 -15 -26 -16 -62 -7 -24 6 -68 14 -98 18 -30 4 -79 15 -110 25 -67 23 -80 23 -80 4 0 -10 -11 -15 -35 -15 -61 0 -70 58 -12 79 17 6 17 8 3 20 -13 11 -16 11 -16 -2 0 -19 -48 -31 -66 -16 -23 19 -17 58 10 69 19 7 23 14 19 31 -6 22 -6 22 -25 -5 -35 -48 -78 -28 -78 36 l0 38 44 0 c40 0 43 2 39 24 -3 16 2 28 17 39 28 20 49 12 56 -22 14 -65 36 -100 75 -115 42 -17 99 -21 99 -8 0 5 -27 37 -61 72 -34 35 -65 73 -70 85 -26 56 -298 395 -318 395 -9 0 -22 5 -29 12 -6 6 -13 10 -16 7 -19 -21 -115 -180 -121 -199 -7 -25 -39 -104 -78 -193 -37 -85 -100 -117 -232 -117 -77 0 -103 -4 -140 -22 -42 -20 -45 -24 -40 -53 3 -16 1 -80 -4 -140 -8 -88 -15 -120 -36 -157 -31 -55 -26 -61 54 -62 41 -1 56 -5 56 -15 0 -8 -8 -15 -18 -17 -9 -1 -30 -15 -45 -31 -15 -15 -36 -33 -47 -39 -17 -9 -18 -14 -7 -27 11 -13 9 -16 -18 -22 -25 -5 -36 -2 -51 14 -11 12 -27 21 -35 21 -13 0 -12 -5 5 -29 l21 -29 -75 -7 c-66 -6 -80 -4 -111 14 -19 12 -43 21 -52 21 -31 0 -82 40 -112 87 -25 40 -30 57 -30 112 0 37 -7 89 -16 116 -29 96 9 205 82 232 21 8 51 17 67 20 42 8 33 26 -11 21 -33 -5 -39 -2 -50 20 -7 14 -12 36 -12 49 0 30 -30 56 -127 109 -84 46 -139 97 -147 137 -9 42 -19 162 -17 200 4 100 4 150 -4 250 -5 73 -4 130 4 175 6 37 18 109 27 160 19 116 25 127 75 129 21 1 47 7 58 12 11 6 31 11 46 11 38 0 105 23 105 36 0 13 -22 24 -49 24 -30 0 -103 71 -127 124 -32 68 -33 167 -3 232 22 46 69 89 104 96 18 3 20 13 22 128 1 69 8 226 14 350 18 325 15 381 -25 450 -54 92 -75 146 -69 170 5 20 3 22 -19 18 -25 -5 -26 -2 -37 66 -6 39 -12 175 -15 303 -3 196 -2 234 11 245 10 8 13 22 9 42 -44 258 -43 292 4 419 22 57 36 69 80 61 14 -3 54 -6 90 -8z m1460 -719 c0 -7 9 -23 20 -35 15 -16 20 -35 20 -77 0 -30 -4 -55 -9 -55 -6 0 -11 -19 -13 -42 -2 -30 -8 -43 -18 -43 -12 0 -15 23 -18 133 -2 85 1 132 8 132 5 0 10 -6 10 -13z">
      </path>
      <path id="pxI2gcJ8b"
        d="M1560 6152 c0 -5 -39 -48 -86 -97 l-86 -87 17 -38 c10 -21 29 -50 44 -63 32 -31 494 -367 498 -363 11 11 -115 242 -193 354 -59 84 -92 141 -89 152 3 10 -12 34 -40 64 -25 27 -45 57 -45 67 0 11 -4 19 -10 19 -5 0 -10 -4 -10 -8z m57 -218 c24 -25 43 -53 43 -62 0 -10 13 -33 30 -52 16 -19 29 -40 30 -47 0 -6 6 -13 13 -16 6 -2 9 -7 6 -11 -4 -4 -31 11 -60 33 -30 23 -61 41 -70 41 -22 0 -118 92 -101 97 6 3 12 12 12 22 0 21 19 41 39 41 8 0 34 -20 58 -46z">
      </path>
      <path id="p1HX0dw69p" d="M1957 5463 c-15 -14 -5 -32 23 -41 l30 -11 -22 30 c-25 33 -22 31 -31 22z"></path>
      <path id="pBOtRh6Wb"
        d="M3965 2373 c4 -21 9 -40 11 -42 3 -3 16 7 31 21 22 23 24 29 13 42 -7 9 -24 16 -37 16 -24 0 -25 -2 -18 -37z">
      </path>
      <path id="pGIMu8bdw"
        d="M4803 1750 c4 -14 7 -51 7 -82 0 -66 15 -76 43 -27 25 44 22 61 -19 100 -35 32 -36 33 -31 9z"></path>
      <path id="pOcPJQ6jo"
        d="M6515 6346 c-57 -33 -103 -67 -129 -95 -17 -17 -36 -31 -43 -31 -7 0 -22 -15 -34 -32 -40 -66 -2 -225 60 -245 63 -20 151 -75 151 -94 0 -5 28 -54 62 -110 54 -90 60 -105 51 -128 -12 -33 6 -125 38 -196 12 -27 26 -68 30 -90 4 -22 12 -58 19 -80 6 -22 13 -49 15 -59 2 -10 9 -33 14 -50 5 -17 9 -38 9 -46 -1 -8 2 -53 6 -100 14 -193 34 -246 94 -264 39 -12 44 -33 36 -134 -6 -71 -4 -82 20 -131 20 -38 28 -72 31 -120 4 -72 18 -156 35 -211 6 -19 13 -116 15 -215 2 -99 9 -200 15 -224 6 -24 8 -52 5 -62 -4 -10 1 -29 9 -41 9 -12 16 -35 16 -50 0 -15 9 -65 20 -111 21 -90 21 -237 0 -263 -6 -7 -10 -41 -9 -76 2 -37 -2 -73 -10 -86 -10 -18 -10 -26 0 -38 9 -11 8 -18 -6 -34 -10 -11 -19 -35 -20 -52 -2 -18 -6 -80 -10 -138 -7 -116 -19 -177 -47 -232 -10 -21 -18 -46 -18 -58 0 -11 -9 -28 -20 -37 -11 -10 -20 -23 -20 -29 0 -6 -7 -17 -15 -24 -14 -11 -14 -15 0 -36 8 -13 11 -25 6 -28 -5 -3 -11 -19 -14 -36 -4 -16 -12 -30 -20 -30 -7 0 -19 -6 -25 -12 -10 -10 -2 -23 38 -63 111 -109 195 -208 180 -213 -8 -2 -24 -13 -35 -23 -77 -70 -98 -88 -133 -119 -23 -19 -66 -59 -97 -87 -31 -29 -60 -53 -64 -53 -11 0 -161 -150 -161 -161 0 -6 -7 -17 -15 -25 -11 -11 -12 -20 -5 -34 13 -24 13 -33 -1 -24 -8 5 -8 1 0 -14 6 -11 11 -38 11 -60 0 -39 48 -200 76 -253 8 -16 14 -37 14 -49 0 -11 6 -23 14 -26 8 -3 18 -19 21 -34 4 -16 17 -51 30 -79 42 -86 65 -164 65 -218 0 -28 -4 -54 -9 -58 -11 -6 -3 -75 10 -90 5 -5 9 -20 9 -33 0 -13 14 -41 31 -63 25 -31 28 -42 20 -58 -11 -20 0 -38 17 -27 13 8 52 -23 52 -40 0 -8 10 -14 23 -14 13 0 27 -4 33 -10 10 -10 50 -15 101 -12 41 3 143 93 143 127 0 12 11 39 25 59 14 21 23 42 19 47 -3 6 2 19 12 30 16 18 17 22 2 47 -8 15 -21 56 -28 92 -7 36 -25 85 -40 111 -15 25 -31 55 -34 67 -7 21 -5 22 33 18 44 -3 71 -20 71 -43 0 -7 9 -32 20 -54 12 -22 19 -43 16 -48 -3 -4 3 -24 14 -44 20 -36 54 -166 46 -174 -11 -12 58 -129 105 -181 149 -158 183 -186 240 -199 82 -19 134 -16 193 12 52 24 54 28 79 98 25 71 32 122 18 142 -4 6 -13 29 -21 52 -7 24 -21 50 -32 59 -10 10 -18 22 -18 28 0 17 -122 134 -144 138 -14 2 -23 17 -32 52 -7 27 -17 53 -23 59 -18 18 -12 63 10 83 33 30 59 87 48 106 -10 19 25 62 60 73 11 3 34 24 52 46 24 30 30 45 25 65 -5 18 -2 32 10 45 11 12 19 42 22 77 3 31 10 61 17 67 7 5 20 40 29 76 10 37 24 79 32 94 8 15 14 32 14 37 0 5 13 26 29 46 33 41 71 141 71 185 0 35 -20 75 -54 106 -14 14 -26 30 -26 36 0 14 -52 65 -67 65 -24 0 -31 31 -36 155 -5 138 -22 222 -54 258 -10 12 -25 45 -32 72 -6 28 -23 66 -36 86 -26 40 -57 109 -49 109 3 0 -2 10 -10 22 -9 12 -16 31 -16 41 0 18 61 94 153 189 46 49 56 71 37 83 -11 7 2 46 29 84 11 15 23 59 29 103 8 59 16 85 38 114 16 20 38 52 49 70 11 18 43 66 71 106 152 220 266 396 271 419 7 34 -20 96 -46 104 -12 3 -21 10 -21 14 0 5 -24 8 -52 8 -46 -1 -64 6 -140 50 -48 29 -102 56 -120 61 -57 17 -138 51 -166 72 -33 23 -248 117 -282 122 -24 3 -33 20 -50 103 -5 22 -12 53 -16 69 -5 21 -4 27 5 22 12 -8 131 101 131 120 0 6 7 17 16 24 23 20 63 92 89 162 29 80 79 167 192 339 29 44 58 101 64 127 7 26 17 54 23 62 46 60 60 170 30 234 -17 35 -34 45 -216 130 -42 19 -79 40 -83 46 -3 6 -10 8 -15 5 -5 -3 -21 12 -35 34 -28 42 -72 68 -145 85 -56 13 -159 14 -185 2 -11 -5 -32 -10 -48 -11 -15 -2 -34 -8 -43 -16 -23 -19 -44 -77 -44 -123 0 -41 -22 -89 -32 -70 -2 5 -10 29 -17 54 -7 25 -16 59 -21 75 -5 17 -9 60 -9 97 0 37 -4 75 -10 85 -5 10 -14 29 -20 43 -37 79 -51 93 -126 135 -27 15 -81 46 -118 69 -114 69 -161 94 -179 95 -10 1 -33 10 -53 21 -40 23 -146 26 -180 6z m194 -134 c31 -13 117 -61 192 -106 121 -71 140 -87 167 -131 28 -47 29 -54 21 -110 -6 -44 -5 -64 5 -75 7 -8 23 -58 35 -110 13 -52 27 -103 32 -112 6 -10 5 -34 -3 -62 -12 -44 -11 -45 25 -89 26 -32 40 -63 52 -113 26 -116 69 -264 76 -264 3 0 19 19 35 42 16 22 43 47 61 55 25 10 33 20 33 38 0 27 120 230 147 250 14 11 14 17 -10 68 -21 47 -32 58 -72 76 -73 32 -120 74 -134 121 -19 65 -10 77 70 90 40 7 91 9 121 5 46 -7 60 -15 113 -66 50 -47 64 -56 75 -46 10 10 12 9 7 -5 -4 -10 1 -18 14 -21 10 -3 19 -1 19 4 0 16 17 10 43 -17 15 -15 33 -24 41 -21 9 4 16 -3 20 -16 5 -18 8 -19 15 -8 8 12 12 12 25 2 9 -8 16 -19 16 -25 0 -6 10 -16 23 -21 34 -15 36 -82 3 -138 -14 -24 -26 -53 -26 -65 0 -29 -142 -255 -168 -267 -12 -5 -25 -19 -27 -30 -17 -64 -31 -104 -47 -133 -10 -18 -18 -39 -18 -47 0 -8 -4 -15 -9 -15 -5 0 -15 -15 -22 -32 -34 -84 -168 -248 -202 -248 -8 0 -21 -8 -31 -18 -14 -17 -15 -23 -3 -58 8 -21 26 -91 41 -155 l27 -117 63 -4 c55 -3 87 -15 232 -85 93 -45 183 -85 200 -88 17 -3 78 -33 135 -66 77 -45 118 -62 158 -67 l54 -7 -94 -140 c-52 -77 -120 -176 -150 -220 -174 -252 -176 -257 -182 -318 -7 -71 -50 -188 -88 -241 -16 -22 -29 -45 -29 -51 0 -6 -27 -37 -61 -70 -76 -75 -92 -111 -79 -171 10 -44 89 -202 118 -236 7 -9 11 -21 8 -26 -7 -12 13 -72 24 -72 4 0 10 -8 13 -18 41 -144 46 -174 48 -311 l3 -144 -31 -26 c-28 -24 -59 -69 -51 -76 2 -1 32 14 68 34 94 54 101 56 90 25 -6 -14 -10 -41 -10 -61 0 -34 1 -35 33 -29 59 12 71 11 75 -4 4 -21 -48 -87 -73 -94 -11 -3 -31 -15 -45 -25 l-25 -20 23 -23 c27 -30 28 -38 3 -38 -26 0 -105 -90 -91 -104 7 -7 21 1 45 24 33 32 35 33 35 11 0 -38 -39 -93 -101 -144 -33 -26 -59 -52 -59 -57 0 -6 15 -10 34 -10 45 0 53 -14 18 -29 -15 -7 -40 -23 -57 -36 l-30 -25 25 0 c28 0 67 -20 41 -20 -11 0 -10 -4 4 -14 17 -12 17 -13 -8 -20 -15 -3 -34 -17 -43 -31 -9 -14 -20 -25 -25 -25 -5 0 -34 -16 -65 -36 -58 -37 -60 -53 -7 -54 16 0 25 -8 29 -25 8 -34 -1 -42 -25 -21 -26 23 -61 13 -61 -18 0 -12 14 -78 30 -147 17 -68 32 -133 35 -144 2 -11 27 -32 57 -49 49 -27 128 -100 154 -143 19 -32 38 -125 26 -132 -6 -3 -12 -20 -15 -36 -3 -27 -7 -30 -46 -33 -31 -2 -49 2 -63 15 -15 13 -22 15 -25 6 -9 -24 -26 -13 -120 80 -107 104 -149 173 -164 271 -6 33 -31 111 -56 171 -25 61 -53 132 -62 159 -19 54 -42 76 -71 69 -11 -3 -31 2 -44 10 -23 15 -24 15 -30 -6 -8 -31 -27 -9 -35 40 -6 38 -6 38 -59 41 -28 2 -52 7 -52 11 0 5 9 19 19 33 19 24 19 24 -5 47 -15 14 -24 35 -24 53 0 16 -5 38 -10 48 -7 13 -7 21 1 25 12 8 49 -23 49 -41 0 -15 38 -44 59 -44 11 0 13 17 7 99 -4 65 -3 102 4 106 13 8 13 75 1 75 -6 0 -40 -23 -77 -51 -38 -28 -87 -61 -111 -72 -39 -19 -56 -37 -35 -37 16 0 59 -208 48 -235 -14 -38 46 -267 77 -293 47 -38 96 -171 97 -259 0 -19 -41 -16 -57 4 -13 16 -14 15 -10 -12 3 -16 8 -47 12 -68 7 -34 5 -41 -23 -68 -29 -28 -33 -30 -58 -17 -15 7 -50 44 -78 82 -45 63 -51 76 -54 133 -3 35 1 83 7 108 9 37 9 49 -3 68 -8 12 -22 42 -31 67 -10 25 -23 60 -31 77 -16 39 -38 90 -58 136 -8 17 -24 55 -36 82 -13 28 -27 66 -32 85 -26 100 -40 182 -34 204 4 15 45 57 104 106 183 152 220 185 231 207 5 12 23 30 38 40 15 9 53 37 83 62 30 24 65 48 77 54 54 24 34 72 -67 159 -41 35 -89 83 -106 105 -28 37 -31 47 -26 90 3 26 18 75 34 108 53 111 77 206 88 353 8 107 14 143 29 163 15 21 20 51 25 160 4 74 9 175 12 224 5 77 0 116 -30 267 -29 144 -36 200 -36 296 0 73 -4 122 -11 129 -7 7 -9 28 -5 55 11 70 9 90 -13 163 -12 39 -25 111 -28 160 -4 52 -14 108 -25 133 -14 35 -18 69 -18 166 0 137 0 138 -75 173 -40 18 -40 18 -51 98 -6 44 -17 125 -23 181 -6 56 -16 114 -21 130 -5 16 -14 49 -21 74 -19 71 -28 102 -46 155 -10 30 -18 88 -19 143 -2 87 -5 98 -37 150 -18 32 -57 98 -86 148 -52 91 -52 92 -124 124 -83 37 -97 52 -97 95 0 28 9 38 78 88 73 53 79 56 121 50 25 -3 70 -17 100 -31z m634 -666 c22 -19 53 -41 71 -47 48 -17 61 -43 41 -81 -8 -17 -15 -37 -15 -44 0 -7 -10 -14 -22 -16 -15 -2 -24 -13 -31 -38 -5 -19 -11 -37 -13 -39 -10 -10 -34 25 -34 49 0 20 -6 29 -22 33 -12 4 -19 9 -16 13 4 3 -2 23 -13 45 -13 23 -20 53 -18 76 1 21 -1 48 -5 60 -10 30 0 46 22 34 9 -5 34 -25 55 -45z">
      </path>
      <path id="pBc5zp9RA" d="M4500 6025 c0 -8 5 -15 10 -15 6 0 10 7 10 15 0 8 -4 15 -10 15 -5 0 -10 -7 -10 -15z">
      </path>
      <path id="p7YtYgMCr" d="M3999 5718 c-7 -26 -4 -42 14 -58 42 -40 56 -17 16 28 -16 18 -29 31 -30 30z"></path>
      <path id="pqx44kv4f"
        d="M5446 4156 c-14 -19 -26 -41 -26 -49 0 -8 20 -42 44 -75 24 -33 46 -70 48 -83 1 -12 8 -24 13 -26 20 -6 34 37 36 108 2 60 -1 74 -17 88 -11 9 -26 28 -34 44 -18 36 -32 34 -64 -7z">
      </path>
      <path id="prIybdjQ7"
        d="M4617 4030 c-31 -56 -35 -122 -10 -172 7 -15 13 -33 13 -40 0 -8 24 -40 54 -72 l54 -59 17 38 c17 35 19 62 16 211 -1 28 -11 46 -52 90 -29 30 -55 54 -58 54 -3 0 -19 -23 -34 -50z">
      </path>
      <path id="pXwHk7XCF"
        d="M5159 3498 c-7 -13 -22 -35 -35 -51 -36 -43 -41 -107 -13 -158 32 -57 54 -70 74 -44 8 11 22 34 29 52 19 43 14 162 -9 197 -21 32 -31 33 -46 4z">
      </path>
      <path id="pKl8FHM60"
        d="M4624 3297 c-34 -39 -41 -54 -52 -125 -12 -74 -11 -85 5 -116 19 -37 148 -150 161 -142 5 3 6 44 4 92 -4 70 -9 94 -28 122 -27 39 -35 76 -31 151 1 33 -2 55 -9 58 -6 2 -29 -16 -50 -40z">
      </path>
      <path id="p127seWpTQ" d="M7192 843 c5 -26 38 -29 38 -4 0 15 -6 21 -21 21 -14 0 -19 -5 -17 -17z"></path>
    </g>
  </g>
</svg>