<svg xmlns="http://www.w3.org/2000/svg" id="root" viewBox="0 0 99 58">
  <g>
    <path
      d="M 81.421875 56.902344 C 80.976562 56.742188 79.796875 56.195312 79.277344 55.898438 C 79.035156 55.765625 78.773438 55.640625 78.691406 55.628906 C 78.613281 55.617188 77.40625 55.75 76.011719 55.921875 C 72.597656 56.351562 72.617188 56.351562 72.140625 56.3125 C 71.777344 56.28125 71.714844 56.265625 71.683594 56.179688 C 71.652344 56.0625 71.710938 56.019531 71.96875 55.980469 C 72.070312 55.960938 72.589844 55.832031 73.109375 55.6875 C 74.238281 55.371094 74.410156 55.347656 75.867188 55.273438 C 76.488281 55.246094 77.339844 55.1875 77.75 55.144531 C 78.457031 55.074219 78.523438 55.054688 78.886719 54.878906 C 79.097656 54.769531 79.28125 54.671875 79.289062 54.664062 C 79.300781 54.652344 79.285156 54.589844 79.257812 54.523438 C 79.203125 54.40625 79.179688 54.402344 78.816406 54.402344 C 78.460938 54.402344 78.417969 54.410156 78.273438 54.542969 L 78.109375 54.683594 L 77.6875 54.597656 C 77.414062 54.542969 77.089844 54.425781 76.769531 54.269531 L 76.277344 54.027344 L 73.621094 54.359375 C 70.859375 54.703125 68.851562 54.933594 68.671875 54.933594 C 68.589844 54.933594 68.570312 54.910156 68.585938 54.804688 L 68.597656 54.671875 L 70.59375 54.277344 L 72.589844 53.875 L 73.761719 53.820312 C 75.601562 53.738281 75.984375 53.652344 76.421875 53.195312 C 76.847656 52.761719 77.175781 52.765625 77.9375 53.230469 C 78.335938 53.46875 78.429688 53.507812 78.691406 53.519531 C 78.949219 53.539062 79.007812 53.523438 79.125 53.417969 C 79.207031 53.355469 79.628906 53.117188 80.066406 52.890625 C 80.507812 52.664062 81.265625 52.269531 81.757812 52.015625 C 85.554688 50.042969 88.257812 49.015625 90.054688 48.859375 C 90.339844 48.835938 90.355469 48.835938 90.355469 48.941406 C 90.355469 49.203125 89.996094 49.550781 89.507812 49.769531 C 89.378906 49.832031 88.824219 50.027344 88.277344 50.210938 C 87.074219 50.609375 86.1875 50.9375 85.359375 51.28125 C 84.394531 51.695312 81.332031 52.796875 80.226562 53.144531 L 79.734375 53.292969 L 79.609375 53.554688 C 79.425781 53.941406 79.445312 54.019531 79.75 54.222656 C 79.894531 54.320312 80.386719 54.585938 80.839844 54.8125 L 81.671875 55.230469 L 82.140625 54.914062 C 82.578125 54.625 85.417969 53.167969 86.769531 52.542969 C 87.605469 52.152344 88.503906 51.808594 90 51.304688 C 91.574219 50.773438 91.929688 50.679688 92.511719 50.644531 L 92.960938 50.609375 L 92.960938 50.734375 C 92.960938 50.914062 92.6875 51.203125 92.347656 51.390625 C 92.195312 51.464844 91.722656 51.644531 91.296875 51.777344 C 90.46875 52.039062 90.050781 52.1875 88.832031 52.65625 C 86.714844 53.476562 83.867188 54.480469 83.058594 54.691406 L 82.648438 54.800781 L 82.515625 55.191406 C 82.449219 55.40625 82.402344 55.597656 82.414062 55.625 C 82.429688 55.640625 82.53125 55.660156 82.640625 55.660156 C 82.753906 55.667969 82.941406 55.714844 83.0625 55.773438 C 83.261719 55.871094 83.28125 55.894531 83.292969 56.078125 C 83.304688 56.242188 83.285156 56.300781 83.160156 56.4375 C 83.023438 56.578125 82.996094 56.59375 82.804688 56.566406 C 82.695312 56.554688 82.554688 56.523438 82.496094 56.511719 C 82.402344 56.480469 82.382812 56.503906 82.3125 56.746094 L 82.238281 57.019531 L 81.984375 57.019531 C 81.84375 57.015625 81.59375 56.964844 81.421875 56.902344 Z M 55.875 49.378906 C 55.367188 49.289062 53.859375 48.636719 50.5625 47.0625 C 48.164062 45.917969 47.09375 45.457031 46.734375 45.410156 C 46.496094 45.382812 46.230469 45.445312 44.550781 45.949219 C 42.019531 46.699219 37.378906 47.917969 34.964844 48.460938 C 31.363281 49.273438 30.230469 49.304688 28.222656 48.660156 C 27.929688 48.570312 27.664062 48.460938 27.636719 48.433594 C 27.574219 48.351562 27.480469 47.953125 27.507812 47.90625 C 27.519531 47.882812 27.710938 47.808594 27.9375 47.742188 C 28.46875 47.582031 29.1875 47.265625 30.496094 46.625 C 32.761719 45.523438 33.167969 45.375 35.6875 44.761719 C 39.226562 43.898438 41.324219 43.359375 41.675781 43.21875 C 41.78125 43.179688 41.75 43.164062 41.386719 43.042969 C 40.070312 42.605469 38.765625 41.894531 38.117188 41.253906 L 37.8125 40.960938 L 37.8125 38.570312 L 37.539062 38.328125 C 36.894531 37.773438 35.414062 36.5625 35.175781 36.398438 C 34.925781 36.222656 34.921875 36.222656 34.675781 36.28125 C 34.441406 36.335938 34.402344 36.335938 34.1875 36.234375 L 33.949219 36.121094 L 33.949219 35.859375 C 33.949219 35.71875 33.929688 35.605469 33.910156 35.605469 C 33.863281 35.605469 32.367188 36.441406 30.90625 37.285156 C 28.417969 38.722656 27.226562 39.296875 25.28125 39.988281 C 24.855469 40.140625 23.847656 40.503906 23.035156 40.796875 C 20.613281 41.679688 19.976562 41.882812 17.796875 42.480469 C 15.503906 43.109375 15.359375 43.136719 14.417969 43.128906 C 13.136719 43.117188 11.964844 42.90625 10.914062 42.5 C 10.398438 42.300781 10.09375 42.097656 10.09375 41.949219 C 10.09375 41.804688 10.847656 41.175781 11.566406 40.714844 C 13.019531 39.785156 15.0625 38.691406 16.542969 38.042969 C 16.753906 37.949219 17.429688 37.703125 18.039062 37.492188 C 18.652344 37.285156 19.714844 36.898438 20.40625 36.632812 C 21.6875 36.136719 22.351562 35.914062 24.339844 35.316406 C 25.550781 34.960938 26.46875 34.625 26.5625 34.515625 C 26.605469 34.460938 26.582031 34.4375 26.40625 34.394531 C 23.179688 33.535156 18.957031 31.070312 17.410156 29.144531 L 17.085938 28.75 L 17.121094 28.414062 C 17.140625 28.230469 17.199219 27.941406 17.25 27.761719 C 17.441406 27.148438 17.574219 26.949219 18.285156 26.257812 C 19.050781 25.511719 18.835938 25.597656 20.378906 25.40625 C 20.949219 25.335938 21.679688 25.246094 22 25.207031 C 23.984375 24.957031 24.121094 24.957031 25.050781 25.1875 C 26.007812 25.429688 27.074219 25.867188 28.421875 26.5625 C 29.414062 27.082031 30.523438 27.726562 33.152344 29.316406 C 34.320312 30.019531 35.582031 30.765625 35.953125 30.96875 C 36.855469 31.460938 37.914062 31.921875 38.152344 31.921875 C 38.214844 31.921875 39.6875 30.472656 40.691406 29.417969 C 40.839844 29.257812 40.929688 29.207031 41.039062 29.207031 C 41.28125 29.207031 41.71875 29.023438 42.160156 28.734375 C 42.648438 28.410156 43.257812 27.925781 44.5 26.855469 C 45.007812 26.421875 45.992188 25.605469 46.699219 25.039062 C 47.402344 24.46875 48.316406 23.722656 48.726562 23.375 C 49.359375 22.847656 50.445312 22.019531 52.757812 20.292969 C 53 20.113281 53.828125 19.503906 54.59375 18.9375 C 56.863281 17.265625 58.449219 16.046875 59.738281 14.988281 C 63.140625 12.203125 64.84375 10.953125 70.167969 7.308594 C 71.621094 6.316406 72.421875 5.75 73.476562 4.976562 C 76.257812 2.921875 76.214844 2.945312 77.917969 2.027344 C 79.480469 1.191406 80.308594 0.710938 80.839844 0.339844 L 81.300781 0.0195312 L 87.699219 0.00390625 C 91.21875 -0.00390625 94.300781 0.00390625 94.546875 0.0195312 L 95 0.0507812 L 94.882812 0.171875 C 94.742188 0.328125 93.871094 1.058594 93.15625 1.621094 C 92.265625 2.324219 87.601562 5.828125 84.824219 7.875 C 84.453125 8.148438 83.824219 8.613281 83.425781 8.910156 C 82.394531 9.675781 81.359375 10.351562 79.910156 11.21875 C 78.019531 12.347656 73.761719 14.90625 71.738281 16.128906 C 69.117188 17.710938 68.523438 18.042969 65.675781 19.496094 C 59.414062 22.691406 58.242188 23.269531 56.332031 24.074219 C 55.652344 24.359375 54.59375 24.886719 51.988281 26.242188 C 47.339844 28.667969 45.253906 29.664062 43.824219 30.152344 C 43.484375 30.269531 43.074219 30.382812 42.921875 30.402344 C 42.675781 30.429688 42.644531 30.445312 42.625 30.5625 C 42.507812 31.101562 42.148438 33.433594 42.125 33.769531 L 42.097656 34.179688 L 43.347656 34.863281 C 44.039062 35.234375 45.273438 35.910156 46.09375 36.355469 C 46.921875 36.800781 48.105469 37.445312 48.726562 37.785156 C 52.730469 39.953125 55.921875 41.519531 56.507812 41.597656 C 56.734375 41.632812 56.65625 41.683594 58.085938 40.386719 C 58.710938 39.820312 59.25 39.359375 59.292969 39.363281 C 59.339844 39.367188 59.453125 39.382812 59.542969 39.402344 C 59.703125 39.4375 59.742188 39.414062 60.152344 39.082031 C 61.789062 37.769531 70.945312 31.863281 76.855469 28.304688 C 83.457031 24.332031 84.746094 23.582031 86.585938 22.648438 C 88.207031 21.824219 89.425781 21.148438 91.078125 20.148438 C 92.429688 19.332031 92.65625 19.222656 94.707031 18.429688 C 95.273438 18.207031 95.960938 17.925781 96.226562 17.800781 C 96.867188 17.5 97.941406 17.074219 98.304688 16.980469 C 98.460938 16.9375 98.683594 16.875 98.796875 16.835938 L 99 16.761719 L 99 22.742188 L 98.554688 22.984375 C 98.308594 23.117188 97.945312 23.332031 97.742188 23.460938 C 97.542969 23.59375 97.273438 23.753906 97.140625 23.816406 C 97.007812 23.878906 96.792969 24 96.65625 24.082031 C 96.234375 24.339844 93.597656 25.648438 88.496094 28.132812 C 87.859375 28.445312 86.300781 29.214844 85.042969 29.84375 C 83.292969 30.71875 82.332031 31.167969 81.011719 31.71875 C 80.054688 32.121094 78.992188 32.582031 78.644531 32.746094 C 77.4375 33.328125 76.421875 33.757812 74.128906 34.683594 C 71.679688 35.667969 71.148438 35.886719 70.21875 36.292969 C 68.257812 37.144531 66.160156 38.097656 64.832031 38.738281 C 63.167969 39.546875 62.785156 39.703125 61.863281 39.964844 C 60.375 40.386719 60.472656 40.347656 60.417969 40.515625 C 60.257812 41.011719 59.738281 43.265625 59.746094 43.40625 C 59.761719 43.554688 59.789062 43.589844 60.023438 43.714844 C 60.253906 43.839844 60.300781 43.851562 60.4375 43.796875 C 60.519531 43.769531 60.859375 43.742188 61.179688 43.742188 C 61.683594 43.742188 61.828125 43.761719 62.132812 43.863281 C 63.171875 44.214844 64.441406 45.074219 64.851562 45.707031 C 64.957031 45.871094 64.976562 45.953125 64.972656 46.238281 C 64.96875 46.457031 64.9375 46.644531 64.878906 46.761719 C 64.78125 46.980469 64.421875 47.304688 64.238281 47.351562 C 64.164062 47.367188 63.9375 47.460938 63.726562 47.554688 L 63.351562 47.726562 L 62.617188 47.707031 C 61.984375 47.6875 61.839844 47.664062 61.53125 47.554688 C 60.902344 47.328125 60.164062 46.847656 59.789062 46.425781 L 59.605469 46.214844 L 59.273438 46.332031 C 59.089844 46.394531 58.855469 46.480469 58.742188 46.523438 L 58.546875 46.605469 L 58.515625 47.039062 C 58.492188 47.386719 58.460938 47.527344 58.355469 47.726562 C 58.195312 48.027344 56.984375 49.28125 56.777344 49.359375 C 56.648438 49.410156 56.125 49.421875 55.875 49.378906 Z M 59.046875 46.039062 L 59.191406 46.011719 L 59.128906 45.789062 C 59.042969 45.507812 59.042969 45.144531 59.128906 44.820312 L 59.191406 44.5625 L 58.96875 44.460938 C 57.199219 43.648438 54.933594 42.628906 54.898438 42.628906 C 54.878906 42.628906 54.714844 42.691406 54.542969 42.773438 L 54.226562 42.914062 L 54.308594 43.042969 C 54.472656 43.296875 54.894531 43.53125 56.054688 44.015625 C 57.105469 44.449219 57.367188 44.582031 57.695312 44.828125 C 58.023438 45.082031 58.261719 45.414062 58.34375 45.746094 C 58.414062 46.050781 58.609375 46.128906 59.046875 46.039062 Z M 52.730469 41.738281 C 52.652344 41.671875 47.441406 39.1875 47.375 39.1875 C 47.308594 39.1875 47.089844 39.4375 47.085938 39.515625 C 47.085938 39.578125 47.335938 39.722656 48.628906 40.390625 C 50.515625 41.371094 51.542969 41.742188 52.34375 41.753906 C 52.566406 41.757812 52.742188 41.746094 52.730469 41.738281 Z M 46.214844 38.804688 L 46.214844 38.621094 L 45.84375 38.488281 C 45.214844 38.257812 44.269531 37.824219 41.75 36.597656 C 38.179688 34.859375 37.957031 34.769531 37.136719 34.746094 C 36.492188 34.726562 36.351562 34.769531 36.328125 35.003906 C 36.3125 35.140625 36.375 35.214844 36.953125 35.785156 C 37.929688 36.738281 38.550781 37.300781 38.640625 37.300781 C 38.683594 37.300781 38.808594 37.226562 38.925781 37.144531 C 39.039062 37.058594 39.210938 36.925781 39.304688 36.855469 C 39.542969 36.675781 39.851562 36.585938 40.390625 36.542969 L 40.847656 36.511719 L 42.773438 37.410156 C 43.832031 37.90625 45.023438 38.460938 45.417969 38.652344 C 45.820312 38.835938 46.160156 38.992188 46.183594 38.992188 C 46.203125 38.996094 46.214844 38.914062 46.214844 38.804688 Z M 38.132812 38.066406 C 38.257812 37.921875 38.34375 37.714844 38.34375 37.550781 C 38.34375 37.410156 38.148438 37.203125 37.214844 36.382812 C 36.234375 35.523438 35.945312 35.304688 35.84375 35.355469 C 35.730469 35.414062 35.253906 35.925781 35.253906 35.988281 C 35.253906 36.117188 37.140625 37.714844 37.722656 38.070312 C 37.929688 38.199219 38.015625 38.195312 38.132812 38.066406 Z M 25.234375 57.964844 C 24.78125 57.90625 24.617188 57.863281 23.617188 57.550781 C 21.953125 57.03125 22.109375 57.039062 19.050781 57.339844 C 17.871094 57.449219 17.652344 57.460938 16.6875 57.425781 C 15.226562 57.371094 14.703125 57.382812 14.449219 57.472656 C 14.136719 57.585938 13.796875 57.621094 13.601562 57.550781 C 13.496094 57.515625 13.34375 57.394531 13.203125 57.238281 C 13.0625 57.066406 12.886719 56.921875 12.707031 56.839844 C 12.460938 56.714844 12.386719 56.703125 11.882812 56.703125 L 11.320312 56.703125 L 11.015625 56.929688 C 10.609375 57.242188 10.433594 57.289062 10.003906 57.222656 C 9.53125 57.140625 9.367188 57.148438 9.253906 57.257812 C 9.128906 57.371094 8.929688 57.382812 7.535156 57.332031 C 6.597656 57.300781 6.425781 57.308594 5.773438 57.40625 C 4.839844 57.542969 3.917969 57.585938 3.515625 57.507812 C 3.347656 57.472656 2.933594 57.34375 2.585938 57.210938 C 1.796875 56.921875 1.34375 56.824219 0.59375 56.789062 C 0.0507812 56.765625 0 56.757812 0 56.667969 C 0 56.519531 0.296875 56.257812 0.507812 56.214844 C 0.609375 56.195312 0.835938 56.203125 1.011719 56.230469 C 1.242188 56.265625 1.363281 56.265625 1.449219 56.222656 C 1.542969 56.179688 1.65625 56.191406 1.980469 56.257812 C 2.511719 56.371094 3.589844 56.414062 4.058594 56.351562 C 4.917969 56.222656 5.601562 55.949219 6.472656 55.371094 C 6.894531 55.09375 7.078125 55.007812 7.535156 54.867188 C 8.5625 54.558594 8.585938 54.539062 8.605469 53.992188 L 8.621094 53.601562 L 8.796875 53.542969 C 9.15625 53.429688 9.933594 53.378906 11.933594 53.351562 L 13.988281 53.320312 L 14.050781 53.59375 C 14.125 53.9375 14.265625 54.148438 14.511719 54.277344 C 14.683594 54.363281 14.789062 54.378906 15.402344 54.378906 C 16.164062 54.378906 16.125 54.363281 16.203125 54.707031 C 16.21875 54.785156 16.289062 54.878906 16.386719 54.933594 C 16.699219 55.128906 18.167969 55.050781 20.042969 54.746094 C 20.910156 54.605469 21.269531 54.558594 21.304688 54.578125 C 21.320312 54.585938 21.351562 54.667969 21.367188 54.761719 C 21.417969 55.035156 21.765625 55.277344 22.359375 55.449219 C 22.640625 55.53125 22.878906 55.539062 24.628906 55.546875 C 26.511719 55.550781 26.585938 55.554688 26.601562 55.640625 C 26.648438 55.972656 26.734375 56.070312 27.078125 56.15625 C 27.179688 56.179688 28.371094 56.21875 29.726562 56.242188 C 32.144531 56.28125 32.222656 56.285156 34.023438 56.484375 C 35.03125 56.597656 36.199219 56.703125 36.617188 56.722656 C 37.035156 56.742188 37.394531 56.769531 37.40625 56.789062 C 37.460938 56.84375 37.152344 57.101562 36.882812 57.238281 C 36.363281 57.488281 36.042969 57.527344 34.457031 57.523438 C 33.617188 57.523438 32.425781 57.488281 31.617188 57.433594 C 30.65625 57.371094 29.898438 57.351562 29.15625 57.371094 C 28.003906 57.394531 27.832031 57.425781 27.203125 57.691406 C 26.53125 57.976562 25.964844 58.054688 25.234375 57.964844 Z M 25.234375 57.964844 "
    />
    <path
      d="M 98.460938 41.492188 C 98.3125 41.453125 97.984375 41.351562 97.738281 41.257812 C 97.097656 41.027344 96.804688 40.933594 96.367188 40.828125 C 95.921875 40.71875 94.925781 40.402344 93.453125 39.886719 C 91.769531 39.300781 90.949219 39.101562 89.75 39 C 88.507812 38.890625 88.03125 38.925781 85.816406 39.308594 C 83.949219 39.628906 83.097656 39.75 82.433594 39.796875 C 81.914062 39.824219 80.992188 39.761719 80.597656 39.664062 C 80.28125 39.585938 79.835938 39.347656 79.550781 39.105469 C 79.363281 38.945312 79.183594 38.855469 78.808594 38.722656 C 77.703125 38.347656 77.660156 38.339844 76.324219 38.339844 C 75.234375 38.347656 75.046875 38.359375 74.394531 38.476562 C 72.632812 38.792969 71.371094 38.878906 70.675781 38.734375 C 70.328125 38.667969 68.75 38.167969 68.691406 38.113281 C 68.65625 38.074219 70.847656 37.117188 72.390625 36.492188 C 73.113281 36.195312 75.074219 35.394531 76.640625 34.757812 C 76.785156 34.699219 77.238281 34.503906 77.648438 34.324219 C 78.386719 34.003906 78.390625 34.003906 78.839844 34.003906 L 79.296875 34.003906 L 80.058594 34.519531 C 80.472656 34.800781 81 35.121094 81.226562 35.230469 C 81.636719 35.433594 81.636719 35.433594 82.191406 35.433594 L 82.75 35.433594 L 83.246094 35.203125 C 84.113281 34.800781 84.089844 34.804688 86.515625 34.820312 L 88.640625 34.832031 L 88.84375 34.722656 C 88.953125 34.660156 89.148438 34.527344 89.261719 34.425781 C 89.402344 34.304688 89.546875 34.226562 89.664062 34.214844 C 89.835938 34.1875 90.632812 34.339844 91.683594 34.597656 C 92.09375 34.691406 92.238281 34.699219 94.167969 34.703125 C 95.300781 34.707031 96.5 34.6875 96.84375 34.664062 C 97.351562 34.628906 97.609375 34.640625 98.234375 34.710938 L 99 34.804688 L 99 38.03125 C 99 39.808594 98.984375 41.332031 98.96875 41.414062 C 98.9375 41.585938 98.886719 41.59375 98.460938 41.492188 Z M 56.613281 38.195312 C 56.230469 38.089844 55.953125 37.929688 55.320312 37.464844 C 54.363281 36.761719 53.746094 36.332031 53.378906 36.113281 L 53.03125 35.910156 L 54.101562 35.875 C 56.824219 35.792969 58.976562 35.609375 60.945312 35.289062 C 61.882812 35.132812 62.21875 35.042969 63.066406 34.707031 C 63.988281 34.339844 64.214844 34.292969 64.816406 34.304688 L 65.316406 34.320312 L 62.949219 35.898438 L 60.582031 37.480469 L 60.148438 37.511719 C 59.816406 37.539062 59.570312 37.59375 59.085938 37.765625 C 58.742188 37.890625 58.292969 38.042969 58.097656 38.105469 C 57.628906 38.253906 56.964844 38.296875 56.613281 38.195312 Z M 56.613281 38.195312 "
    />
  </g>
</svg>
