<svg xmlns="http://www.w3.org/2000/svg" id="root" viewBox="0 0 100 64">
  <path
    d="M 80.226562 63.867188 C 79.726562 63.691406 78.402344 63.074219 77.816406 62.742188 C 77.542969 62.589844 77.25 62.457031 77.160156 62.4375 C 77.070312 62.429688 75.714844 62.574219 74.144531 62.769531 C 70.304688 63.25 70.324219 63.25 69.789062 63.207031 C 69.378906 63.171875 69.308594 63.15625 69.277344 63.058594 C 69.238281 62.929688 69.304688 62.878906 69.597656 62.835938 C 69.710938 62.8125 70.292969 62.667969 70.878906 62.503906 C 72.152344 62.152344 72.339844 62.125 73.980469 62.042969 C 74.683594 62.007812 75.636719 61.945312 76.101562 61.894531 C 76.894531 61.820312 76.96875 61.796875 77.375 61.597656 C 77.617188 61.476562 77.820312 61.367188 77.832031 61.355469 C 77.84375 61.347656 77.828125 61.273438 77.792969 61.199219 C 77.734375 61.070312 77.707031 61.0625 77.300781 61.0625 C 76.898438 61.0625 76.847656 61.074219 76.6875 61.21875 L 76.5 61.378906 L 76.03125 61.28125 C 75.71875 61.21875 75.355469 61.089844 74.996094 60.917969 L 74.441406 60.644531 L 71.457031 61.015625 C 68.347656 61.398438 66.089844 61.660156 65.886719 61.660156 C 65.796875 61.660156 65.773438 61.632812 65.789062 61.515625 L 65.804688 61.367188 L 68.050781 60.921875 L 70.292969 60.46875 L 71.613281 60.410156 C 73.683594 60.316406 74.113281 60.21875 74.605469 59.707031 C 75.085938 59.21875 75.453125 59.226562 76.3125 59.746094 C 76.757812 60.011719 76.867188 60.058594 77.160156 60.074219 C 77.445312 60.09375 77.511719 60.078125 77.648438 59.960938 C 77.742188 59.886719 78.214844 59.621094 78.707031 59.367188 C 79.203125 59.109375 80.054688 58.671875 80.609375 58.382812 C 84.878906 56.167969 87.917969 55.015625 89.941406 54.84375 C 90.261719 54.816406 90.277344 54.816406 90.277344 54.933594 C 90.277344 55.226562 89.875 55.621094 89.328125 55.863281 C 89.179688 55.933594 88.554688 56.152344 87.941406 56.359375 C 86.589844 56.804688 85.589844 57.175781 84.660156 57.5625 C 83.574219 58.023438 80.128906 59.261719 78.886719 59.648438 L 78.332031 59.816406 L 78.191406 60.109375 C 77.984375 60.546875 78.007812 60.632812 78.347656 60.863281 C 78.511719 60.96875 79.066406 61.269531 79.578125 61.523438 L 80.511719 61.992188 L 81.039062 61.640625 C 81.53125 61.3125 84.726562 59.675781 86.246094 58.976562 C 87.1875 58.539062 88.195312 58.152344 89.878906 57.589844 C 91.652344 56.988281 92.046875 56.886719 92.703125 56.84375 L 93.210938 56.804688 L 93.210938 56.945312 C 93.210938 57.148438 92.902344 57.472656 92.519531 57.679688 C 92.347656 57.765625 91.8125 57.96875 91.335938 58.117188 C 90.40625 58.410156 89.933594 58.578125 88.566406 59.105469 C 86.179688 60.023438 82.980469 61.148438 82.070312 61.390625 L 81.609375 61.507812 L 81.460938 61.949219 C 81.386719 62.1875 81.332031 62.40625 81.347656 62.433594 C 81.363281 62.457031 81.476562 62.476562 81.601562 62.476562 C 81.726562 62.480469 81.9375 62.535156 82.074219 62.601562 C 82.296875 62.710938 82.320312 62.738281 82.335938 62.945312 C 82.347656 63.128906 82.324219 63.195312 82.183594 63.347656 C 82.03125 63.503906 82 63.519531 81.785156 63.492188 C 81.664062 63.476562 81.503906 63.445312 81.4375 63.429688 C 81.332031 63.394531 81.308594 63.421875 81.234375 63.695312 L 81.144531 64 L 80.863281 64 C 80.707031 63.992188 80.421875 63.941406 80.226562 63.867188 Z M 51.492188 55.421875 C 50.921875 55.324219 49.230469 54.589844 45.519531 52.824219 C 42.820312 51.539062 41.617188 51.023438 41.210938 50.96875 C 40.945312 50.9375 40.644531 51.007812 38.757812 51.574219 C 35.910156 52.417969 30.691406 53.785156 27.972656 54.394531 C 23.921875 55.304688 22.652344 55.34375 20.390625 54.617188 C 20.058594 54.515625 19.761719 54.394531 19.734375 54.363281 C 19.664062 54.269531 19.554688 53.824219 19.585938 53.769531 C 19.597656 53.742188 19.816406 53.660156 20.070312 53.585938 C 20.667969 53.40625 21.476562 53.054688 22.949219 52.335938 C 25.496094 51.09375 25.953125 50.933594 28.789062 50.242188 C 32.769531 49.273438 35.128906 48.667969 35.523438 48.511719 C 35.644531 48.46875 35.605469 48.445312 35.199219 48.3125 C 33.714844 47.820312 32.25 47.023438 31.519531 46.304688 L 31.179688 45.976562 L 31.179688 43.292969 L 30.867188 43.019531 C 30.148438 42.398438 28.480469 41.039062 28.214844 40.855469 C 27.929688 40.660156 27.925781 40.660156 27.648438 40.726562 C 27.386719 40.785156 27.34375 40.785156 27.097656 40.671875 L 26.832031 40.546875 L 26.832031 40.25 C 26.832031 40.09375 26.8125 39.964844 26.789062 39.964844 C 26.734375 39.964844 25.050781 40.902344 23.410156 41.851562 C 20.609375 43.464844 19.273438 44.105469 17.082031 44.886719 C 16.605469 45.054688 15.46875 45.460938 14.558594 45.792969 C 11.832031 46.78125 11.113281 47.011719 8.664062 47.679688 C 6.082031 48.386719 5.921875 48.417969 4.863281 48.410156 C 3.421875 48.398438 2.101562 48.160156 0.921875 47.703125 C 0.34375 47.480469 0 47.25 0 47.085938 C 0 46.925781 0.847656 46.21875 1.65625 45.699219 C 3.292969 44.65625 5.589844 43.425781 7.25 42.699219 C 7.492188 42.59375 8.25 42.316406 8.933594 42.085938 C 9.625 41.851562 10.820312 41.414062 11.597656 41.117188 C 13.042969 40.5625 13.785156 40.3125 16.023438 39.644531 C 17.386719 39.238281 18.417969 38.863281 18.523438 38.738281 C 18.570312 38.679688 18.542969 38.652344 18.347656 38.605469 C 14.71875 37.640625 9.96875 34.875 8.230469 32.714844 L 7.867188 32.269531 L 7.902344 31.894531 C 7.925781 31.6875 7.988281 31.359375 8.050781 31.160156 C 8.261719 30.472656 8.414062 30.25 9.210938 29.472656 C 10.074219 28.636719 9.832031 28.734375 11.570312 28.515625 C 12.210938 28.441406 13.03125 28.335938 13.390625 28.292969 C 15.621094 28.011719 15.78125 28.011719 16.824219 28.273438 C 17.898438 28.542969 19.097656 29.03125 20.613281 29.816406 C 21.734375 30.398438 22.976562 31.121094 25.9375 32.90625 C 27.25 33.695312 28.667969 34.53125 29.085938 34.757812 C 30.101562 35.3125 31.292969 35.832031 31.558594 35.832031 C 31.628906 35.832031 33.285156 34.203125 34.417969 33.019531 C 34.585938 32.839844 34.683594 32.785156 34.808594 32.785156 C 35.078125 32.785156 35.574219 32.578125 36.066406 32.253906 C 36.617188 31.886719 37.300781 31.34375 38.703125 30.140625 C 39.273438 29.660156 40.378906 28.738281 41.171875 28.101562 C 41.964844 27.46875 42.992188 26.628906 43.453125 26.238281 C 44.167969 25.644531 45.386719 24.714844 47.988281 22.78125 C 48.261719 22.578125 49.191406 21.894531 50.054688 21.257812 C 52.605469 19.378906 54.390625 18.011719 55.839844 16.824219 C 59.667969 13.699219 61.582031 12.292969 67.570312 8.207031 C 69.207031 7.089844 70.109375 6.453125 71.292969 5.585938 C 74.421875 3.277344 74.371094 3.304688 76.289062 2.277344 C 78.042969 1.335938 78.980469 0.800781 79.578125 0.378906 L 80.09375 0.0195312 L 87.289062 0.00390625 C 91.25 -0.0078125 94.714844 0.00390625 94.992188 0.0195312 L 95.503906 0.0585938 L 95.371094 0.195312 C 95.214844 0.371094 94.230469 1.191406 93.425781 1.820312 C 92.429688 2.609375 87.179688 6.542969 84.058594 8.839844 C 83.640625 9.144531 82.933594 9.667969 82.480469 10 C 81.324219 10.859375 80.15625 11.621094 78.527344 12.59375 C 76.402344 13.859375 71.613281 16.730469 69.335938 18.101562 C 66.386719 19.882812 65.71875 20.25 62.519531 21.882812 C 55.476562 25.472656 54.15625 26.117188 52.011719 27.019531 C 51.242188 27.34375 50.054688 27.933594 47.121094 29.457031 C 41.894531 32.175781 39.550781 33.296875 37.941406 33.84375 C 37.554688 33.976562 37.09375 34.101562 36.925781 34.121094 C 36.648438 34.15625 36.609375 34.171875 36.589844 34.300781 C 36.457031 34.910156 36.054688 37.527344 36.03125 37.902344 L 35.996094 38.363281 L 37.402344 39.132812 C 38.179688 39.550781 39.570312 40.304688 40.496094 40.804688 C 41.421875 41.308594 42.753906 42.03125 43.453125 42.410156 C 47.957031 44.847656 51.546875 46.601562 52.207031 46.691406 C 52.460938 46.726562 52.375 46.789062 53.980469 45.332031 C 54.683594 44.695312 55.289062 44.179688 55.339844 44.183594 C 55.394531 44.1875 55.519531 44.207031 55.621094 44.226562 C 55.800781 44.265625 55.84375 44.238281 56.304688 43.867188 C 58.148438 42.394531 68.445312 35.765625 75.09375 31.769531 C 82.519531 27.308594 83.96875 26.472656 86.039062 25.421875 C 87.859375 24.496094 89.234375 23.738281 91.09375 22.617188 C 92.613281 21.695312 92.867188 21.578125 95.171875 20.6875 C 95.8125 20.433594 96.582031 20.121094 96.882812 19.980469 C 97.605469 19.640625 98.808594 19.164062 99.21875 19.058594 C 99.398438 19.011719 99.648438 18.941406 99.773438 18.898438 L 100 18.816406 L 100 25.527344 L 99.5 25.796875 C 99.222656 25.949219 98.816406 26.1875 98.585938 26.335938 C 98.363281 26.484375 98.0625 26.660156 97.910156 26.734375 C 97.761719 26.804688 97.519531 26.9375 97.367188 27.03125 C 96.894531 27.320312 93.925781 28.789062 88.1875 31.578125 C 87.46875 31.925781 85.71875 32.789062 84.300781 33.496094 C 82.335938 34.480469 81.253906 34.980469 79.765625 35.601562 C 78.691406 36.054688 77.496094 36.570312 77.105469 36.753906 C 75.746094 37.40625 74.605469 37.890625 72.027344 38.929688 C 69.273438 40.035156 68.675781 40.277344 67.625 40.734375 C 65.421875 41.691406 63.0625 42.765625 61.570312 43.480469 C 59.695312 44.390625 59.265625 44.5625 58.230469 44.859375 C 56.554688 45.332031 56.664062 45.289062 56.605469 45.476562 C 56.425781 46.03125 55.839844 48.5625 55.851562 48.71875 C 55.867188 48.886719 55.898438 48.925781 56.160156 49.066406 C 56.421875 49.207031 56.476562 49.21875 56.625 49.160156 C 56.71875 49.125 57.097656 49.097656 57.464844 49.097656 C 58.027344 49.097656 58.191406 49.121094 58.535156 49.234375 C 59.703125 49.625 61.128906 50.59375 61.589844 51.300781 C 61.710938 51.488281 61.734375 51.578125 61.726562 51.898438 C 61.722656 52.144531 61.6875 52.355469 61.625 52.488281 C 61.511719 52.730469 61.109375 53.097656 60.902344 53.152344 C 60.820312 53.167969 60.566406 53.269531 60.324219 53.378906 L 59.902344 53.570312 L 59.078125 53.546875 C 58.363281 53.527344 58.203125 53.5 57.855469 53.378906 C 57.148438 53.125 56.316406 52.585938 55.898438 52.113281 L 55.691406 51.871094 L 55.316406 52.003906 C 55.113281 52.074219 54.84375 52.171875 54.71875 52.222656 L 54.496094 52.3125 L 54.464844 52.796875 C 54.4375 53.1875 54.40625 53.347656 54.285156 53.570312 C 54.105469 53.90625 52.742188 55.316406 52.507812 55.402344 C 52.363281 55.460938 51.777344 55.472656 51.492188 55.421875 Z M 55.0625 51.675781 L 55.226562 51.644531 L 55.15625 51.394531 C 55.058594 51.078125 55.058594 50.671875 55.15625 50.304688 L 55.226562 50.019531 L 54.976562 49.902344 C 52.980469 48.992188 50.433594 47.847656 50.398438 47.847656 C 50.375 47.847656 50.191406 47.917969 49.996094 48.011719 L 49.640625 48.167969 L 49.734375 48.3125 C 49.917969 48.597656 50.390625 48.859375 51.695312 49.402344 C 52.878906 49.894531 53.171875 50.039062 53.542969 50.316406 C 53.910156 50.601562 54.175781 50.976562 54.269531 51.34375 C 54.351562 51.6875 54.566406 51.773438 55.0625 51.675781 Z M 47.957031 46.847656 C 47.871094 46.773438 42.011719 43.988281 41.933594 43.988281 C 41.859375 43.988281 41.613281 44.265625 41.609375 44.351562 C 41.609375 44.421875 41.890625 44.585938 43.347656 45.335938 C 45.464844 46.433594 46.621094 46.851562 47.523438 46.863281 C 47.773438 46.871094 47.96875 46.859375 47.957031 46.847656 Z M 40.628906 43.558594 L 40.628906 43.351562 L 40.210938 43.199219 C 39.503906 42.945312 38.441406 42.453125 35.605469 41.078125 C 31.589844 39.125 31.339844 39.027344 30.417969 39 C 29.691406 38.980469 29.53125 39.027344 29.503906 39.289062 C 29.488281 39.441406 29.558594 39.527344 30.210938 40.164062 C 31.308594 41.234375 32.011719 41.867188 32.109375 41.867188 C 32.15625 41.867188 32.296875 41.785156 32.429688 41.691406 C 32.558594 41.59375 32.75 41.449219 32.855469 41.367188 C 33.125 41.164062 33.472656 41.066406 34.078125 41.019531 L 34.589844 40.980469 L 36.757812 41.992188 C 37.945312 42.546875 39.289062 43.171875 39.734375 43.382812 C 40.183594 43.589844 40.566406 43.765625 40.59375 43.765625 C 40.613281 43.769531 40.628906 43.675781 40.628906 43.558594 Z M 31.539062 42.726562 C 31.679688 42.5625 31.777344 42.335938 31.777344 42.148438 C 31.777344 41.992188 31.554688 41.757812 30.503906 40.839844 C 29.402344 39.871094 29.078125 39.625 28.960938 39.6875 C 28.835938 39.75 28.300781 40.324219 28.300781 40.394531 C 28.300781 40.539062 30.421875 42.335938 31.074219 42.730469 C 31.308594 42.878906 31.40625 42.871094 31.539062 42.726562 Z M 31.539062 42.726562 "
  />
</svg>
