<svg xmlns="http://www.w3.org/2000/svg" id="root" viewBox="0.22 0 35309.78 20177.19">
  <g fill="#EEEEBF">
    <path
      d="M29214 20170c-143-30-352-118-753-317l-313-155-972 121c-931 116-979 121-1157 121-103 0-208-4-235-9-139-27-230-88-302-204-67-107-85-166-80-259 3-43 4-78 4-78-1 0-125 16-276 35-409 52-524 46-639-33-66-44-125-131-142-206-6-30-10-98-7-162 5-130 22-178 95-255 68-73 121-96 286-125 78-13 399-76 712-138 314-63 586-117 605-120s199-13 399-21c357-15 486-25 605-46 55-10 66-17 140-87 153-143 253-190 422-199 180-10 334 36 500 147 49 33 93 60 99 60 5 0 43-17 85-39 41-21 85-42 97-45 12-4 153-77 315-163 1628-865 2686-1282 3428-1353 69-7 156-10 194-7 136 12 260 102 305 223 42 111 20 286-52 418-20 36-33 66-29 66s70-17 147-37l140-37 240-1h240l63 34c194 105 243 322 125 561-28 57-57 95-122 160-144 143-304 221-674 329-258 76-364 114-837 301s-1044 394-1557 564l-171 57 23 57c73 181 17 403-141 559-76 76-140 114-220 134-34 8-64 26-97 56-26 25-73 56-105 71-53 25-68 27-202 29-80 1-164-2-186-7zm231-427c42-146 33-133 81-133 24 0 66 9 94 20 67 26 73 26 115-12 45-39 79-102 71-134-13-49-157-104-273-104h-53v-38c0-21 18-91 40-157 22-65 38-120 37-121-2-2-59 35-127 81-101 70-130 85-161 85-28 0-104-32-291-123-274-133-373-188-457-249l-53-40 4-77c3-64 9-87 41-148 20-40 32-73 26-73-23 0-77 35-122 79l-48 46-96 4c-142 5-198-13-347-113-170-114-273-144-359-102-34 17-88 66-188 173-22 23-53 40-111 58-152 48-343 68-808 85-157 6-316 15-355 21-38 5-234 43-435 84-316 64-796 159-912 179-24 4-38 12-38 21 0 12 14 15 60 15 33 0 626-70 1318-155 691-85 1272-155 1290-155 21 0 93 30 202 85 156 78 179 87 289 107l119 22 38-33c61-54 89-61 237-61s155 3 187 65c41 80 38 83-127 162l-148 71-215 25c-118 14-285 29-370 32-404 16-792 40-894 55-32 5-203 50-380 100-176 49-361 98-410 108-89 19-113 33-79 47 10 4 77 9 148 12 122 4 191-3 1132-121 551-69 1038-126 1081-126 75 0 82 2 158 45 187 108 578 297 779 377 123 49 187 66 247 67l47 1 16-57zm362-777c444-134 1372-463 1923-684 367-147 593-228 840-301 113-33 230-70 260-82 91-34 207-98 254-140 41-36 86-96 86-114 0-4-55-5-122-3-139 6-257 33-572 133-331 104-938 323-1187 429-258 108-1673 805-1637 806 3 0 73-20 155-44zm-505-213c28-21 117-73 197-116s139-77 131-75c-67 20-500 174-500 179 0 6 89 47 107 48 7 1 36-16 65-36zm-477-330c431-139 1438-507 1744-638 256-109 771-295 1096-395 261-80 417-152 504-234 33-30 91-112 91-128 0-25-290 17-532 78-524 132-1151 385-2022 817-363 179-1009 515-1051 545-19 13-19 14 5 7 14-4 88-28 165-52zM1005 18239c-506-68-922-477-995-978-20-131-8-354 24-470 69-249 218-473 416-626 459-354 1120-309 1530 104 206 208 319 460 337 756 33 552-345 1057-891 1191-116 28-307 39-421 23zM20165 17514c-265-63-616-215-1760-759-781-372-1070-503-1286-585l-85-32-135 36c-74 19-316 90-539 156-223 67-523 152-667 191-145 38-475 127-735 198-755 205-1656 428-2203 545-977 208-1382 224-1980 76-313-77-539-166-622-244-64-59-88-109-130-274-28-112-34-149-29-200 10-112 78-223 170-277 23-13 97-39 166-59 222-64 418-145 760-316 637-318 987-469 1320-569 74-23 396-104 715-180 710-171 1115-269 1134-276 9-3-23-29-80-64-243-149-451-330-524-455-50-85-55-130-55-511v-350l-213-172c-116-95-276-226-355-291l-143-118h-107l-107 1-124-60-123-59-41 23c-23 13-233 134-467 269-609 352-778 445-1110 611-453 226-709 332-1220 508-151 52-475 169-720 260-789 293-1387 477-2267 697-494 123-601 138-893 125-580-26-1094-145-1498-348-121-61-167-108-230-239-46-96-47-98-47-197 0-95 2-103 35-165 66-125 287-322 582-518 484-323 1283-751 1887-1009 97-41 302-117 456-168 337-112 397-133 865-313 447-171 640-237 972-333 142-40 254-76 250-80s-61-30-127-59c-159-70-544-262-714-357-764-428-1339-881-1653-1306-92-125-108-176-108-356 0-148 14-225 72-401 92-281 206-443 449-641 59-47 118-107 153-153 60-80 119-127 188-152 23-8 420-62 882-120 823-103 844-106 996-101 417 14 878 160 1542 489 492 243 742 387 1994 1145 379 230 661 394 884 513 168 91 425 210 452 210 9 0 195-184 414-409 450-465 453-467 597-480 62-6 97-16 145-40 194-98 426-279 979-762 164-143 372-317 463-387 226-172 355-276 785-632 542-449 646-529 1543-1186 1438-1054 2091-1552 2727-2079 858-711 2033-1564 3550-2575 368-245 546-373 1448-1038 502-371 616-443 1152-727 327-173 298-158 380-195 38-17 83-41 100-54 16-12 76-48 132-79l101-57h321c299 0 321 1 321 18-1 20-23 52-37 52-5 0-36 21-69 46-166 130-377 254-913 538-404 214-559 300-710 393-137 85-144 90-746 534-708 521-871 637-1425 1009-1576 1060-2450 1699-3475 2540-636 522-1213 961-2679 2034-773 567-935 691-1308 999-489 405-713 586-903 732-110 85-333 270-495 411-162 142-351 305-420 362-420 349-705 521-864 522l-51 1-460 474-460 475h-42c-98 0-427-135-757-312-248-132-554-311-1121-655-917-557-1284-768-1710-981-560-279-993-429-1340-462-120-11-49-18-1069 109-591 73-710 91-718 105-27 48-119 144-210 219-128 105-203 184-250 262-73 121-147 342-155 465l-5 75 59 80c71 95 163 196 298 325 633 604 1880 1282 2837 1544l123 33v39c0 38-1 40-75 78-143 75-420 167-1066 355-445 129-527 157-1014 343-464 178-638 241-879 318-279 89-467 167-866 357-772 370-1568 853-1804 1096-42 44-44 47-31 77 9 22 29 39 70 60 358 181 919 302 1405 304 173 0 201-2 315-27 477-107 1379-355 1833-504 126-41 387-133 580-205 537-198 681-250 952-343 729-251 1156-458 2219-1074 628-365 843-481 888-481h38v188l69 36 69 36 58-15c114-30 154-19 281 75l68 51-82-79c-76-73-83-82-83-118 0-37 7-47 113-152 109-108 114-112 156-112 48 0 56 5 311 218l125 105-163-159-164-158 4-79c3-71 6-81 30-102 34-29 144-40 337-33 122 5 148 9 251 43 221 72 515 205 1271 576 1014 496 1328 639 1572 715l57 18v196h-36c-26 0-289-117-970-431l-935-432-103 7c-130 9-227 29-291 61-27 14-104 68-170 120-113 90-122 95-167 95-26 0-50-4-53-10-14-22-20-7-17 40 5 58-19 136-59 201-32 51-62 69-115 69-42 0-76-16-176-86-43-30-78-53-78-51s50 45 110 96c61 51 115 101 120 111 6 12 10 179 10 430v412l63 65c160 169 505 379 889 541 140 59 311 121 396 142 39 10 42 13 42 44v34l-97 31c-227 71-837 226-1922 487-377 90-740 181-806 200-279 82-537 191-1050 441-608 297-818 388-1028 444l-87 24 6 30c24 108 23 107 114 144 181 72 500 154 724 186 132 19 407 19 571 0 545-63 1684-321 3023-686 260-71 590-160 735-198 144-39 422-118 617-176 714-214 822-239 932-216 160 33 484 174 1433 626 1016 483 1366 639 1630 725 81 27 122 34 213 38 164 7 167 5 380-201 192-186 250-252 311-355 63-105 71-138 71-281v-127l48-23c26-13 112-46 192-72 136-46 210-60 210-40s137 154 223 219c162 123 322 205 503 257 120 35 196 45 344 45 166-1 197-8 347-89 10-5 51-19 91-32 137-41 238-129 277-239 9-25 19-77 22-117 5-65 3-77-25-136-89-192-488-486-867-640-180-74-217-81-410-82-155 0-174 2-219 23-73 33-108 29-211-27l-90-48-2-99c-3-97 0-109 120-584l122-485 60-22c33-12 128-40 210-63 405-112 478-135 585-177 156-62 415-182 775-358 372-182 498-240 1260-577 735-325 851-374 1715-720 1015-406 1289-522 1754-745 302-145 380-178 861-373 544-220 595-243 1270-584 672-340 1178-588 2095-1028 1066-512 2068-1013 2078-1039 2-5 9-9 16-9s26-11 42-25 33-25 37-25c20 0 172-83 229-125 120-88 439-265 478-265 19 0 20 6 20 224v224l-61 41c-34 23-66 41-71 41-18 0-173 82-221 117-27 20-79 47-115 60s-79 35-95 49c-17 14-65 43-106 63-42 21-128 66-191 101-204 111-1125 566-1915 945-423 203-1213 590-1755 860-1022 510-1049 522-1650 765-417 169-420 170-752 328-136 64-241 118-233 120 37 8 7 33-92 77-336 149-697 298-1387 574-862 346-1071 433-1561 650-289 128-344 150-375 145-26-4-55 3-115 29-252 108-606 272-940 434-768 375-900 427-1381 553-66 17-126 35-133 39-10 6-140 489-141 524 0 4 63 7 141 7 236 0 394 43 684 185 459 225 813 533 910 790 37 97 47 197 35 329-31 329-213 553-537 662-43 14-96 37-118 49-22 13-76 36-120 51-77 27-89 28-313 32-187 3-254 1-335-13-253-42-562-180-786-351-24-19-47-34-51-34s-13 20-19 45c-16 65-98 220-167 316-76 106-331 369-454 468-166 133-224 151-485 150-119 0-200-6-240-15z"
    ></path>
    <path
      d="M21144 16028c-38-19-41-23-51-85-16-91-57-167-133-244-124-127-264-203-680-369-140-57-298-124-350-150-175-88-269-177-270-256v-40l118-47c64-26 131-47 149-47 20 0 306 124 777 337l746 336v33c0 18-9 61-21 96-11 34-23 99-26 143-4 68-1 92 21 160 14 44 26 94 26 111v31l-77 7c-127 10-185 7-229-16zM18867 14550c-273-46-718-238-1449-623l-268-141v-34c0-25 13-51 47-98 46-62 48-64 92-64 39 0 174 62 988 452l943 451v67l-152-1c-84-1-175-5-201-9zM20360 14471c-458-154-1599-738-3938-2013-513-280-949-516-968-525l-34-17v-108c0-91 16-204 95-678 52-313 95-572 95-575s13-5 29-5c58 0 197-32 345-80 489-159 1187-489 2686-1270 1207-630 1496-773 1855-920 422-173 641-276 1355-637 311-157 1008-509 1550-782 1304-658 1192-595 2855-1596 1312-788 1619-972 1985-1187 797-468 1109-667 1500-957 107-79 553-408 990-731 1195-881 1860-1378 2295-1714 477-368 778-618 790-658 6-17 23-18 301-18 162 0 294 3 294 6 0 16-76 107-113 137-149 118-200 160-271 228-194 182-542 458-1306 1035-405 306-1989 1479-2825 2092-335 246-693 473-1440 912-236 139-1053 627-1815 1085s-1439 864-1505 902c-367 213-914 500-1580 828-247 122-746 373-1107 559-925 473-1288 647-1759 841-371 153-722 327-1914 950-1421 742-2193 1105-2692 1265-149 48-162 54-167 79-29 139-125 756-119 762 11 10 1546 847 2058 1121 1147 616 1983 1039 2429 1230 135 57 139 58 159 41 11-10 185-168 386-352 421-385 435-394 576-395l81-1 64-51c36-28 121-91 189-140 79-56 118-90 108-92-28-6-19-26 27-57 204-139 1144-765 1348-898 223-144 262-166 287-161 26 5 82-28 443-258 1483-950 2986-1883 3792-2357 204-120 625-370 936-556 1149-687 1670-980 2300-1295 246-123 517-270 840-455 244-140 356-207 730-434 237-145 442-238 945-433 444-171 540-211 726-299 92-44 175-79 185-79 11 0 28-7 38-15s42-22 70-31 63-25 77-35c29-21 165-81 224-99 22-7 49-19 59-26 17-12 383-134 400-134 4 0 5 102 4 227l-3 226-70 22c-76 25-156 46-252 69-34 9-104 35-155 59s-124 54-163 67c-38 12-86 30-105 40-188 95-375 174-804 340-601 232-746 300-1091 512-570 349-950 561-1670 931-598 306-966 515-2075 1177-366 218-786 468-935 555-1047 614-3471 2136-4935 3098-738 486-1169 787-1343 940l-68 60-72-7c-40-3-84-7-98-9-21-2-100 66-455 390l-429 393h-55c-37 0-92-13-170-39z"
    ></path>
  </g>
  <g fill="#73734A">
    <path
      d="M9650 20169c-178-13-281-37-628-150-395-129-532-159-715-159-101 0-337 21-847 74-579 60-740 65-1125 29-236-21-423-14-530 20-236 75-323 60-433-77-86-106-158-154-274-181-75-17-324-20-382-4-23 6-63 33-102 70-81 75-169 119-240 119-29 0-100-9-160-21-121-24-191-21-211 7-26 39-34 43-100 50-105 13-272 9-453-11-224-24-373-16-740 36-255 36-320 42-480 43-225 1-288-10-503-94-350-135-497-168-795-177l-183-6 6-26c12-49 38-92 69-116 71-53 191-69 311-40 86 21 118 19 144-9l22-23 65 18c207 57 550 84 764 60 355-41 632-155 947-388 94-70 140-89 348-145 171-46 255-81 304-127l34-32-7-122c-3-67-3-127 2-134 23-35 173-63 437-84 77-6 435-13 795-16l656-5 11 77c34 235 184 315 535 284 75-6 148-9 163-5 31 8 55 57 55 111 0 50 40 88 116 112 49 15 93 18 259 18 259-1 445-22 1025-116 135-22 277-43 316-47l72-8 5 38c23 168 236 272 630 309 126 11 598 8 1024-7l173-7 10 27c5 15 10 46 10 70 0 73 52 103 230 134 81 14 194 16 775 18 818 2 847 3 1735 103 424 48 702 71 855 71 121 0 175 7 175 22 0 23-110 117-170 146-258 122-677 143-1695 82-597-35-806-43-1040-37-347 9-441 28-710 140-175 73-350 100-555 86zM35225 14448c-152-29-196-42-370-113-44-18-116-40-160-50s-96-25-115-35c-34-17-61-25-125-36-112-19-495-140-900-284-417-149-574-200-766-249-298-77-551-114-895-132-318-16-496 0-1019 91-617 107-764 131-935 154-274 37-471 49-680 43-357-11-565-76-726-229-39-37-92-77-120-89-100-44-273-102-399-134-223-57-331-70-600-69-263 0-307 5-775 79-466 75-658 95-920 95-261 0-372-21-664-126-99-36-219-75-267-87l-88-22 292-130c549-243 772-337 1522-637 836-335 1046-421 1380-567l229-101h303l139 93c76 52 198 133 269 181 252 170 431 240 615 240 131 0 219-23 368-98 223-112 369-139 737-139 138 0 327 5 420 12 94 6 276 11 405 11 336 0 372-10 520-140 36-31 76-63 90-70 61-33 271-5 595 76 360 91 301 86 948 91 533 5 670 2 937-22 144-13 344-16 410-6 86 14 181 26 328 42l102 11v1179c0 1117-1 1179-17 1178-10-1-40-6-68-11zM20595 13300c-87-15-211-61-287-104-40-23-168-111-283-197-375-277-560-403-699-474l-81-42 465-11c954-25 1642-87 2411-217 275-47 349-68 629-180 320-128 390-146 600-152 91-3 176-1 189 4 21 8-5 27-245 183-343 223-1067 703-1249 830l-140 97-135 6c-154 5-219 22-460 114-187 71-305 110-394 129-88 19-254 26-321 14zM19168 12473c12-2 30-2 40 0 9 3-1 5-23 4-22 0-30-2-17-4z"
    ></path>
  </g>
  <g>
    <path
      d="M29255 19815c-153-41-664-277-929-430-64-36-89-45-128-45-27 0-500 57-1051 126-988 124-1004 126-1162 121-88-2-167-7-176-11-14-6-54-75-47-81 2-1 51-12 109-24s249-62 425-111c175-50 346-94 379-100 103-15 488-39 895-55 85-3 252-18 370-32l215-25 146-70 146-70-19-36c-28-57-41-62-155-62-118 0-151 10-213 66l-41 38-145-27c-140-26-151-30-315-112l-170-86-1259 156c-777 96-1294 155-1350 155h-90v-45c0-43 1-44 38-51 116-20 596-115 912-179 201-41 397-79 435-84 39-6 198-15 355-21 465-17 656-37 808-85 58-18 89-35 111-58 164-175 191-192 296-192 103 1 173 28 311 121 141 94 211 119 317 112 63-4 68-6 119-54 33-32 74-59 109-72 30-11 192-93 359-182 617-327 1300-660 1745-850 668-286 1303-470 1624-470h73l-7 37c-29 157-203 271-600 393-325 100-840 286-1096 395-429 184-1892 705-1979 705-23 0-30 10-76 99-21 43-39 95-42 122-4 46-4 47 49 87 76 57 229 140 492 266l227 109 162-109c137-92 235-146 603-330 511-256 1075-528 1224-590 377-160 1158-431 1501-521 120-32 152-37 293-41l157-4v23c0 73-89 170-217 237-106 55-155 73-393 143-252 75-465 152-885 319-601 240-1690 621-1998 699l-112 29-47 133c-26 74-47 140-47 147-1 8 16 12 52 12 97 0 214 37 258 81 43 43 15 155-56 217-43 39-98 42-175 12-69-27-75-26-88 18-6 20-18 63-27 95l-16 57-77-1c-42 0-100-6-127-14zM20245 17169c-219-50-609-221-1730-754-910-433-1231-575-1406-620-51-13-74-14-125-6-84 15-351 89-774 216-195 58-473 137-617 176-145 38-475 127-735 198-1339 365-2478 623-3023 686-167 19-497 19-631 0-224-32-542-114-724-186l-85-34-23-85c-12-47-21-91-20-99 2-8 50-27 119-47 63-18 185-61 270-95 165-66 228-96 764-357 484-236 746-345 1020-426 66-19 431-110 810-201 1130-272 1876-463 1986-509l33-14-44-11c-88-23-257-83-398-143-384-162-729-372-889-541l-63-65v-836l-51-48c-28-26-143-122-257-214s-236-193-272-225c-125-109-338-275-390-303l-51-28-77 17c-42 9-81 18-87 20-5 1-45-15-87-37l-78-40v-94c0-52-4-94-8-94-15 0-444 240-858 481-1063 616-1490 823-2219 1074-271 93-415 145-952 343-193 72-454 164-580 205-453 149-1350 395-1833 504-117 26-139 28-345 27-501-1-1007-105-1395-285-85-39-93-46-116-91l-25-49 20-27c156-216 1007-743 1846-1145 399-190 587-268 866-357 241-77 415-140 879-318 487-186 569-214 1014-343 450-131 683-203 861-268 139-51 281-120 278-135-1-6-56-25-123-43-955-261-2202-940-2835-1543-135-129-227-230-298-325l-59-80 5-105c4-111 29-213 88-360 63-157 135-247 317-397 91-75 183-171 210-219 8-14 139-33 793-114 961-120 900-114 1041-101 359 34 785 180 1353 463 426 213 793 424 1710 981 809 491 1164 692 1466 826 157 71 362 144 385 139 7-2 218-214 469-473l457-470 66-6c223-19 518-224 1272-883 162-141 385-326 495-411 190-146 414-327 903-732 373-308 535-432 1308-999 1466-1073 2043-1512 2679-2034 1025-841 1899-1480 3475-2540 554-372 717-488 1425-1009 602-444 609-449 746-534 151-93 306-179 710-393 536-284 747-408 913-538 33-25 64-46 70-46s17-9 24-20c12-20 23-20 2420-20 2088 1 2404 3 2387 15-11 8-24 20-30 26-159 189-937 787-3095 2379-437 323-883 652-990 731-391 290-703 489-1500 957-366 215-673 399-1985 1187-1663 1001-1551 938-2855 1596-542 273-1239 625-1550 782-714 361-933 464-1355 637-359 147-648 290-1855 920-1499 781-2197 1111-2686 1270-148 48-287 80-345 80-16 0-29 2-29 5s-43 262-95 575c-64 381-95 595-95 648v78l34 17c19 9 455 245 968 525 2000 1091 3039 1631 3658 1902 177 77 379 150 420 150 19 0 129-95 464-402l438-401 72 17c39 9 79 16 89 16s49-26 85-58c173-152 606-455 1342-939 1464-962 3888-2484 4935-3098 149-87 569-337 935-555 1109-662 1477-871 2075-1177 720-370 1100-582 1670-931 345-212 490-280 1091-512 384-148 542-214 674-279 52-26 98-48 103-49 4-1 20-8 35-15 15-8 59-25 97-37 39-13 112-43 163-67s121-50 155-59c105-25 178-45 270-74l87-29v2074l-120 63c-152 80-268 149-348 207-57 42-209 125-229 125-4 0-21 11-37 25s-35 25-42 25-14 4-16 9c-10 26-1012 527-2078 1039-917 440-1423 688-2095 1028-675 341-726 364-1270 584-481 195-559 228-861 373-465 223-739 339-1754 745-864 346-980 395-1715 720-762 337-888 395-1260 577-360 176-619 296-775 358-107 42-180 65-585 177-82 23-177 51-210 63l-60 22-122 485c-107 420-123 494-120 554l2 69 93 50 93 49 52-23c49-23 63-24 252-24 226 1 254 6 440 82 375 152 776 447 866 636 25 53 29 74 29 142 0 215-101 353-301 414-41 12-82 27-92 32-85 46-139 69-177 78-56 13-333 14-420 1-82-12-223-52-315-91-205-85-467-277-556-406l-16-23-144 49c-79 27-165 59-191 72l-48 23v127c0 88-5 140-15 170-21 59-85 165-143 237-79 97-390 392-435 413-35 15-65 18-172 18-71-1-148-5-170-10zm1172-1163c1-1-9-38-23-81-23-72-25-91-21-190 4-73 12-131 26-174 12-35 20-66 18-67-2-2-338-155-747-339l-743-336-119 47c-65 26-118 52-118 58 1 22 66 97 120 137 80 60 213 124 500 239 416 166 556 242 680 369 76 77 117 153 133 244 10 62 13 66 51 86 37 19 52 20 141 15 55-3 101-7 102-8zm-2287-1510c-182-93-1828-876-1841-876-14 0-116 127-107 135 9 9 463 247 653 342 389 195 690 323 902 383 150 42 186 48 333 48l125 1-65-33zm-2240-1004v-68l-57-18c-244-76-558-219-1572-715-1026-503-1277-607-1491-618-58-3-145-2-193 2-111 9-137 27-144 101l-5 50 203 195c408 391 594 559 618 559 9 0 70-43 136-95s143-106 170-120c72-36 170-54 325-61l135-6 930 431c512 237 933 430 938 431 4 0 7-31 7-68zm-2856-223c14-7 37-30 52-52 28-42 64-138 64-169 0-11-28-49-62-85-159-165-764-683-799-683-24 0-241 224-234 241 15 41 527 474 752 637 77 56 182 122 194 122 5 0 19-5 33-11z"
    ></path>
  </g>
</svg>
