<svg xmlns="http://www.w3.org/2000/svg" id="root" viewBox="2720 2471.19 18410 11768.81">
  <path
    d="M17490 14216c-92-33-336-146-444-207-50-28-104-53-121-56-16-2-266 25-555 61-707 88-703 88-802 80-75-6-88-9-94-27-7-24 5-33 59-41 21-4 128-31 236-61 234-65 269-70 571-85 129-6 305-18 390-27 146-14 160-18 235-55 44-22 82-42 84-44s-1-15-7-29c-11-24-16-25-91-25-74 0-83 2-113 29l-34 29-87-18c-57-11-124-35-190-67l-102-50-550 68c-572 71-988 119-1025 119-17 0-21-5-18-27l3-27 413-82 413-83 243-11c381-17 460-35 551-129 88-90 156-89 314 7 82 49 102 57 156 60 53 4 65 1 90-21 17-13 104-62 195-109s248-128 350-181c786-407 1346-619 1718-651 59-5 62-5 62 17 0 54-74 126-175 171-27 13-142 53-255 91-249 82-433 150-604 221-200 85-834 313-1063 384l-102 31-26 54c-38 80-34 96 29 138 30 20 132 75 226 122l172 86 97-65c91-60 679-361 959-490 173-80 359-151 669-255 326-110 399-129 520-137l93-7v26c0 37-57 97-127 135-32 16-130 53-218 80-171 54-258 85-510 182-439 169-1028 376-1196 420l-85 22-27 81c-14 44-24 84-21 89 3 4 24 8 47 8 23 1 62 11 87 23 41 20 45 25 48 63 2 34-2 46-28 74-28 29-34 32-73 27-23-3-52-9-64-12-20-6-24-1-38 49l-16 56h-52c-29-1-81-11-117-24zM12200 12663c-105-18-417-153-1100-478-497-236-718-331-793-341-49-6-104 7-452 111-524 155-1485 407-1985 519-746 167-980 174-1396 41-61-19-116-41-121-47-13-17-33-99-27-109 2-5 42-20 89-34 110-33 259-98 530-230 469-228 553-258 1075-385 733-178 1167-289 1240-318 22-8 15-12-60-37-273-90-543-237-677-369l-63-60v-494l-57-50c-133-114-440-364-489-398-52-36-53-36-104-24-48 11-56 11-101-10l-49-23v-54c0-29-4-53-8-53-10 0-320 173-622 347-516 297-762 415-1165 558-88 31-297 106-465 167-502 182-634 224-1085 347-475 130-505 136-700 134-265-2-508-46-725-130-107-41-170-83-170-113s156-160 305-255c301-192 724-418 1030-552 44-19 184-70 310-113 127-43 347-123 490-178 266-102 403-148 815-271 251-74 441-143 460-166 9-11 4-16-32-25-668-177-1543-686-1863-1083l-67-82 7-69c4-38 16-98 27-135 39-126 67-167 214-310 159-154 114-136 434-176 118-14 269-33 335-41 411-52 440-52 632-4 198 50 419 140 698 284 206 107 435 240 980 568 242 145 503 299 580 341 187 102 406 197 455 197 13 0 318-299 526-517 31-33 49-43 72-43 50 0 141-38 232-98 101-67 227-167 485-388 105-89 309-258 455-375s335-271 420-343c131-109 356-280 835-636 50-37 221-163 380-280 470-345 798-597 1065-815 705-575 1057-833 2160-1585 301-205 467-322 685-482 576-424 567-419 920-608 323-173 495-272 605-349l95-66 1325-3c729-2 1367 0 1418 3l94 7-24 25c-29 32-210 183-358 299-184 145-1150 868-1725 1291-77 56-207 152-290 213-213 158-428 298-728 477-391 233-1273 761-1692 1013-543 327-666 395-1255 695-1297 660-1540 779-1935 945-141 59-360 168-900 448-962 500-1394 706-1690 807-71 24-156 47-187 51-51 6-58 9-62 33-24 112-98 593-103 662l-6 85 259 141c143 77 399 216 569 308 171 92 416 225 545 295 829 448 1490 771 1611 787 47 7 31 18 327-250 129-117 241-212 250-211 10 1 33 4 52 8 33 7 41 2 126-66 339-271 2235-1490 3459-2225 1367-820 1634-974 2015-1167 335-170 588-310 930-516 280-169 327-191 751-355 118-46 260-104 315-130 133-62 355-150 430-169 33-9 79-22 102-30l42-15v1234l-92 50c-51 28-126 72-168 99-41 27-97 60-125 73-27 13-72 38-100 55-87 53-633 323-1690 836-132 64-454 223-715 353-362 181-561 273-835 387-198 83-418 178-490 212-250 120-460 209-935 400-507 203-617 248-810 332-406 176-840 373-1115 505-345 167-424 199-615 253-308 87-288 79-299 114-33 102-141 567-139 596 3 31 9 38 57 64s58 28 86 17c17-6 87-11 154-11 104 0 134 4 197 25 215 72 478 250 563 380 22 34 26 51 25 110-1 45-7 84-19 108-21 45-95 112-133 122-15 3-62 22-106 42l-78 35-152-4c-131-4-161-9-225-31-130-47-283-146-360-233l-38-44-69 24c-38 13-87 31-110 40l-41 17-6 89c-5 72-11 101-33 142-33 62-284 321-327 337-27 11-135 13-187 4zm657-689 30-6-13-46c-18-58-18-133 0-200l13-53-46-21c-367-168-836-378-843-378-4 0-38 13-74 30l-65 29 17 26c34 53 121 101 361 201 218 90 272 117 340 168 68 52 117 121 134 189 15 63 55 79 146 61zm-1308-888c-16-14-1095-526-1109-526s-59 51-60 67c0 13 52 43 320 181 390 202 603 279 769 281 46 1 82-1 80-3zm-1349-605v-38l-77-28c-130-47-326-137-848-390-739-359-785-377-955-382-134-4-163 5-168 53-3 28 10 44 130 161 202 197 331 313 349 313 9 0 35-15 59-32 24-18 59-45 79-60 49-37 113-55 225-64l94-7 399 186c219 102 466 217 548 256 83 38 153 70 158 70 4 1 7-16 7-38zm-1674-153c26-30 44-72 44-106 0-29-41-72-234-241-203-178-263-223-284-212-23 12-122 117-122 130 0 27 391 357 511 430 43 27 61 26 85-1z"
  />
</svg>
