<svg xmlns="http://www.w3.org/2000/svg" id="root" viewBox="0 0 100 163">
  <path
    d="M 31.234375 162.363281 C 16.683594 159.132812 7.921875 149.695312 9.886719 139.253906 C 10.738281 134.695312 12.4375 131.515625 15.78125 128.175781 C 18.96875 125.050781 23.851562 122.347656 26.296875 122.347656 L 27.78125 122.347656 L 27.25 128.707031 L 24.332031 130.402344 C 19.65625 133.210938 17.214844 137.929688 18.382812 141.90625 C 20.773438 149.75 36.015625 154.839844 49.714844 152.398438 C 61.132812 150.28125 67.929688 143.707031 70.316406 132.417969 C 72.125 123.777344 70.371094 118.371094 63.839844 112.382812 L 59.855469 108.726562 L 61.289062 107.824219 C 63.414062 106.394531 65.0625 107.132812 69.097656 111.214844 C 71.804688 113.972656 73.238281 116.039062 74.9375 119.539062 C 77.007812 123.882812 77.167969 124.519531 77.328125 129.503906 C 77.59375 135.914062 76.636719 140.421875 74.035156 145.5625 C 70.476562 152.664062 63.097656 159.027344 55.769531 161.464844 C 52.210938 162.628906 50.617188 162.84375 43.183594 162.949219 C 37.234375 163.105469 33.675781 162.894531 31.234375 162.363281 Z M 31.234375 162.363281 "
  />
  <path
    d="M 40.953125 139.625 C 36.4375 138.195312 32.136719 134.433594 30.386719 130.457031 C 29.214844 127.699219 29.214844 122.082031 30.492188 118.691406 C 31.554688 115.617188 33.835938 112.59375 36.066406 111.269531 C 37.449219 110.421875 37.871094 110.421875 41.535156 111.164062 C 44.828125 111.851562 46.316406 111.851562 50.191406 111.320312 C 52.742188 111.003906 55.34375 110.578125 55.980469 110.421875 C 56.777344 110.15625 57.785156 110.738281 59.804688 112.542969 C 63.097656 115.507812 64.316406 118.847656 64.316406 124.730469 C 64.316406 130.507812 62.195312 134.324219 57.203125 137.453125 C 52.953125 140.15625 45.785156 141.109375 40.953125 139.625 Z M 79.558594 130.351562 C 79.558594 128.917969 79.453125 127.382812 79.292969 127.011719 C 79.082031 126.535156 79.769531 126.109375 81.417969 125.632812 C 86.300781 124.359375 90.976562 118.054688 93.152344 109.890625 C 94.320312 105.4375 94.691406 96.214844 93.949219 91.234375 C 93.207031 86.355469 90.761719 81.003906 88.746094 79.625 C 86.9375 78.460938 83.539062 78.460938 81.257812 79.625 L 79.558594 80.527344 L 79.875 78.246094 C 80.300781 75.492188 80.992188 74.855469 84.070312 74.429688 C 91.027344 73.371094 96.390625 78.722656 99.046875 89.273438 C 100.425781 94.835938 100.269531 107.347656 98.78125 113.496094 C 95.753906 125.792969 89.59375 132.949219 82.105469 132.949219 L 79.558594 132.949219 Z M 66.972656 128.867188 C 66.496094 128.707031 66.28125 127.433594 66.28125 125.210938 C 66.28125 122.242188 66.386719 121.871094 67.238281 122.1875 C 68.617188 122.71875 68.9375 123.40625 68.9375 126.480469 C 68.9375 129.238281 68.617188 129.554688 66.972656 128.867188 Z M 66.972656 128.867188 "
  />
  <path
    d="M 77.167969 112.699219 C 75.363281 111.746094 72.65625 108.9375 71.113281 106.445312 C 68.777344 102.789062 68.726562 102.097656 70.425781 99.925781 L 71.964844 98.019531 L 72.335938 100.933594 C 72.761719 104.589844 73.980469 107.027344 77.167969 110.578125 C 79.503906 113.175781 79.503906 114.023438 77.167969 112.699219 Z M 42.917969 109.625 C 33.785156 108.035156 24.332031 100.402344 19.605469 90.914062 C 17.585938 86.78125 15.835938 81.109375 15.835938 78.40625 C 15.835938 77.242188 15.886719 77.242188 17.054688 77.929688 C 20.613281 80.207031 30.332031 82.167969 41.324219 82.859375 C 51.945312 83.546875 68.40625 81.535156 74.140625 78.882812 L 77.433594 77.347656 L 77.433594 79.042969 C 77.433594 84.023438 73.398438 93.566406 69.203125 98.441406 C 64 104.484375 57.359375 108.566406 50.882812 109.574219 C 47.058594 110.207031 46.367188 110.207031 42.917969 109.625 Z M 42.917969 109.625 "
  />
  <path
    d="M 33.09375 79.359375 C 31.660156 79.09375 29.269531 78.566406 27.78125 78.195312 L 25.128906 77.453125 L 28.046875 76.605469 C 34.632812 74.75 37.5 74.378906 45.574219 74.429688 C 51.574219 74.484375 55.503906 74.800781 59.964844 75.597656 C 68.671875 77.1875 69.203125 77.453125 65.699219 78.246094 C 64.105469 78.617188 61.023438 79.09375 58.847656 79.414062 C 53.960938 80.050781 36.757812 79.996094 33.09375 79.359375 Z M 16.949219 75.914062 C 14.933594 74.21875 14.878906 73.105469 16.683594 71.410156 C 18.011719 70.191406 18.066406 70.191406 17.480469 71.304688 C 16.632812 73 16.738281 74.324219 18.011719 75.914062 C 19.394531 77.664062 19.019531 77.664062 16.949219 75.914062 Z M 19.285156 74.960938 C 18.648438 73.953125 18.542969 73.371094 18.96875 72.628906 C 20.1875 70.351562 27.25 68.230469 37.023438 67.277344 C 44.882812 66.425781 45.042969 66.480469 45.042969 67.964844 C 45.042969 68.652344 45.519531 69.820312 46.101562 70.5625 L 47.164062 71.886719 L 43.078125 72.203125 C 35.058594 72.839844 29.855469 73.6875 26.03125 74.960938 C 21.199219 76.550781 20.296875 76.550781 19.285156 74.960938 Z M 64.160156 74.589844 C 60.8125 73.742188 55.980469 72.789062 53.429688 72.417969 C 49.449219 71.886719 48.972656 71.726562 49.609375 71.039062 C 50.03125 70.613281 50.5625 69.554688 50.722656 68.652344 L 51.042969 67.0625 L 56.9375 67.382812 C 65.859375 67.910156 71.910156 69.660156 74.460938 72.417969 C 75.417969 73.476562 75.417969 73.53125 74.035156 74.855469 C 72.390625 76.550781 71.753906 76.550781 64.160156 74.589844 Z M 76.105469 75.121094 C 76.957031 74.21875 77.007812 73.796875 76.53125 72.523438 C 76 71.039062 76 70.984375 76.957031 71.460938 C 78.230469 72.152344 78.285156 74.21875 77.007812 75.332031 C 75.628906 76.605469 74.9375 76.445312 76.105469 75.121094 Z M 47.484375 69.5 C 47.058594 69.078125 47.058594 66.003906 47.484375 64.835938 C 48.015625 63.511719 48.757812 64.941406 48.757812 67.328125 C 48.757812 69.238281 48.175781 70.191406 47.484375 69.5 Z M 43.609375 54.925781 C 41.855469 53.070312 36.386719 46.605469 31.554688 40.5625 C 24.332031 31.550781 22.792969 29.378906 23.269531 28.742188 C 23.640625 28.371094 24.117188 28.160156 24.4375 28.316406 C 25.128906 28.742188 41.324219 49.042969 43.234375 51.851562 C 45.414062 55.085938 47.273438 58.210938 47.058594 58.210938 C 46.953125 58.210938 45.414062 56.726562 43.609375 54.925781 Z M 18.332031 26.675781 C 15.992188 23.917969 15.941406 22.539062 18.117188 20.898438 L 19.65625 19.785156 L 22.261719 22.699219 C 23.640625 24.289062 24.808594 25.71875 24.808594 25.878906 C 24.863281 26.144531 20.878906 29.058594 20.507812 29.058594 C 20.453125 29.007812 19.445312 27.945312 18.332031 26.675781 Z M 7.339844 11.992188 C 1.335938 4.730469 -0.0976562 2.664062 0.0117188 1.550781 C 0.117188 0.542969 0.488281 0.121094 1.496094 0.0117188 C 2.664062 -0.144531 3.78125 1.019531 9.726562 8.386719 C 13.550781 13.105469 16.949219 17.34375 17.269531 17.875 C 17.851562 18.671875 17.746094 18.9375 16.417969 19.941406 L 14.824219 21.109375 Z M 7.339844 11.992188 "
  />
</svg>
