<svg xmlns="http://www.w3.org/2000/svg" id="root" viewBox="0 0 99 60">
  <g>
    <path
      d="M 57.214844 59.753906 C 56.144531 59.59375 51.425781 58.675781 46.730469 57.714844 C 42.035156 56.773438 34.285156 55.257812 29.519531 54.363281 C 24.757812 53.46875 18.304688 52.230469 15.160156 51.609375 C 12.039062 50.992188 7.84375 50.164062 5.859375 49.796875 C 3.878906 49.429688 1.984375 48.949219 1.691406 48.742188 C 1.007812 48.285156 0.800781 47.777344 0.59375 45.921875 C 0.4375 44.496094 0.4375 44.496094 0.960938 44.726562 C 2.898438 45.554688 17.191406 48.285156 28.496094 50.003906 C 31.070312 50.394531 34.648438 51.015625 36.472656 51.382812 C 40.597656 52.230469 50.695312 54.179688 54.480469 54.84375 C 56.441406 55.210938 58.289062 55.371094 60.40625 55.371094 C 65.355469 55.394531 65.71875 55.121094 69.617188 48.144531 C 73.105469 41.90625 74.425781 39.65625 74.949219 38.992188 L 75.40625 38.417969 L 75.199219 39.566406 C 74.8125 41.699219 73.789062 44.085938 71.851562 47.34375 C 70.777344 49.109375 69.046875 52.136719 67.976562 54.019531 C 65.605469 58.285156 65.238281 58.792969 63.964844 59.386719 C 62.664062 60.03125 59.816406 60.191406 57.214844 59.753906 Z M 57.214844 59.753906 "
    />
    <path
      d="M 57.785156 54.660156 C 57.421875 54.59375 54.800781 54.109375 51.972656 53.558594 C 49.148438 53.011719 44.542969 52.136719 41.714844 51.632812 C 38.890625 51.128906 32.847656 50.027344 28.269531 49.203125 C 23.6875 48.351562 18.738281 47.457031 17.234375 47.183594 C 15.753906 46.90625 14.636719 46.65625 14.773438 46.609375 C 14.910156 46.5625 18.992188 47.25 23.867188 48.144531 C 28.722656 49.019531 35.21875 50.164062 38.296875 50.691406 C 41.375 51.21875 45.886719 52.046875 48.328125 52.550781 C 55.097656 53.925781 58.015625 54.363281 60.519531 54.363281 C 63.121094 54.363281 64.144531 53.996094 65.355469 52.734375 C 65.742188 52.296875 67.679688 49.269531 69.660156 45.988281 C 71.621094 42.707031 73.652344 39.335938 74.175781 38.488281 C 74.675781 37.636719 75.132812 36.996094 75.179688 37.042969 C 75.316406 37.179688 74.355469 38.898438 72.28125 42.273438 C 71.1875 44.0625 69.433594 47.066406 68.363281 48.972656 C 66.128906 52.964844 65.261719 53.949219 63.574219 54.457031 C 62.457031 54.800781 59.496094 54.890625 57.785156 54.660156 Z M 57.785156 54.660156 "
    />
    <path
      d="M 57.332031 53.421875 C 56.714844 53.308594 53.316406 52.6875 49.808594 52.046875 C 43.5625 50.921875 41.738281 50.53125 42.742188 50.484375 C 43.492188 50.464844 47.644531 49.085938 48.804688 48.511719 C 49.375 48.214844 50.195312 47.574219 50.605469 47.113281 C 51.015625 46.632812 52.222656 45.691406 53.316406 45.027344 C 55.757812 43.488281 56.257812 43.03125 56.78125 41.859375 C 57.511719 40.253906 57.238281 37.796875 56.234375 36.949219 C 55.667969 36.492188 55.78125 36.191406 56.488281 36.328125 C 56.828125 36.375 57.558594 36.492188 58.128906 36.582031 L 59.152344 36.695312 L 59.085938 38.074219 C 59.039062 38.898438 59.128906 39.863281 59.335938 40.460938 C 59.65625 41.378906 59.632812 41.539062 59.222656 42.457031 C 58.878906 43.234375 58.789062 43.832031 58.855469 45.117188 C 58.925781 46.539062 59.015625 46.859375 59.632812 47.640625 C 61.023438 49.386719 64.761719 50.164062 66.515625 49.085938 C 66.925781 48.835938 67.292969 48.628906 67.359375 48.628906 C 67.40625 48.628906 67.085938 49.269531 66.652344 50.074219 C 65.628906 51.929688 64.601562 52.871094 63.121094 53.308594 C 61.820312 53.699219 59.175781 53.742188 57.332031 53.421875 Z M 88.214844 51.472656 C 87.28125 51.289062 85.550781 51.015625 84.363281 50.832031 C 82.8125 50.578125 82.085938 50.347656 81.742188 50.027344 C 81.492188 49.773438 81.355469 49.5 81.445312 49.40625 C 81.558594 49.269531 89.082031 50.324219 90.109375 50.601562 C 90.5625 50.738281 90.65625 51.863281 90.222656 51.816406 C 90.0625 51.816406 89.152344 51.65625 88.214844 51.472656 Z M 91.40625 51.152344 C 91.40625 50.832031 92.089844 50.257812 92.84375 49.914062 C 93.253906 49.730469 94.164062 49.316406 94.894531 48.996094 C 96.285156 48.351562 96.628906 48.511719 95.511719 49.316406 C 94.574219 49.980469 91.40625 51.402344 91.40625 51.152344 Z M 91.40625 51.152344 "
    />
    <path
      d="M 36.722656 49.773438 C 35.378906 49.476562 35.289062 49.316406 36.496094 49.316406 C 37.542969 49.316406 46.117188 48.261719 46.867188 48.054688 C 47.09375 47.984375 46.867188 48.121094 46.34375 48.375 C 43.722656 49.613281 39.117188 50.28125 36.722656 49.773438 Z M 85.753906 49.203125 C 83.339844 48.789062 81.332031 48.421875 81.285156 48.375 C 81.171875 48.214844 82.496094 30.914062 82.632812 30.777344 C 82.746094 30.664062 92.34375 31.808594 92.5 31.972656 C 92.523438 32.015625 92.183594 36.054688 91.703125 40.964844 C 90.996094 48.285156 90.769531 49.890625 90.496094 49.914062 C 90.3125 49.933594 88.171875 49.613281 85.753906 49.203125 Z M 91.703125 48.8125 C 91.792969 48.261719 92.183594 44.3125 92.570312 40.023438 C 92.980469 35.710938 93.414062 32.109375 93.550781 31.949219 C 93.6875 31.808594 94.964844 31.214844 96.398438 30.640625 L 98.996094 29.609375 L 98.859375 30.570312 C 98.792969 31.097656 98.359375 35.066406 97.878906 39.359375 L 97.039062 47.207031 L 95.988281 47.710938 C 95.417969 48.007812 94.1875 48.582031 93.253906 49.019531 L 91.589844 49.796875 Z M 30.089844 48.511719 C 28.519531 48.214844 26.742188 47.871094 26.101562 47.753906 C 24.824219 47.480469 20.128906 45.070312 18.808594 43.992188 C 17.210938 42.664062 16.917969 40.851562 17.917969 38.785156 C 19.355469 35.894531 24.140625 33.621094 31.367188 32.40625 C 35.152344 31.789062 42.125 31.832031 45.476562 32.519531 C 51.425781 33.714844 55.414062 35.800781 56.28125 38.144531 C 56.625 39.039062 56.601562 40.6875 56.214844 41.585938 C 55.507812 43.351562 52.019531 45.53125 47.984375 46.769531 C 44.816406 47.734375 42.378906 48.144531 38.410156 48.398438 C 36.542969 48.511719 34.628906 48.71875 34.195312 48.855469 C 33.238281 49.132812 33.554688 49.15625 30.089844 48.511719 Z M 40.917969 46.425781 C 45.339844 45.691406 48.464844 44.382812 50.332031 42.523438 C 51.402344 41.421875 51.519531 41.21875 51.519531 40.300781 C 51.519531 39.175781 50.765625 37.867188 49.582031 36.878906 C 46 33.898438 37.316406 32.933594 30.546875 34.746094 C 26.671875 35.800781 23.390625 37.753906 22.773438 39.382812 C 21.726562 42.179688 24.324219 44.84375 29.382812 46.125 C 32.984375 47.042969 36.609375 47.136719 40.917969 46.425781 Z M 40.917969 46.425781 "
    />
    <path
      d="M 32.828125 45.851562 C 31.890625 45.738281 30.890625 45.554688 30.59375 45.414062 C 30.296875 45.300781 29.863281 45.1875 29.589844 45.1875 C 29.019531 45.1875 24.847656 43.234375 24.847656 42.960938 C 24.847656 42.523438 28.449219 37.5 29.269531 36.789062 C 30.957031 35.320312 34.011719 34.792969 37.066406 35.414062 C 40.757812 36.167969 48.828125 38.875 50.035156 39.75 C 50.925781 40.414062 49.671875 42.339844 47.574219 43.558594 C 43.789062 45.691406 38.617188 46.515625 32.828125 45.851562 Z M 23.617188 41.605469 C 23.070312 40.183594 23.84375 38.648438 25.761719 37.339844 C 26.992188 36.511719 29.542969 35.390625 29.75 35.597656 C 29.839844 35.6875 28.132812 37.226562 25.257812 39.679688 C 24.710938 40.160156 24.347656 40.667969 24.257812 41.195312 C 24.097656 42.019531 23.84375 42.203125 23.617188 41.605469 Z M 49.125 38.507812 C 47.757812 37.867188 40.941406 35.664062 38.867188 35.207031 C 35.835938 34.539062 35.882812 34.378906 39.09375 34.515625 C 44.109375 34.722656 48.097656 35.941406 49.671875 37.730469 C 50.789062 39.039062 50.652344 39.242188 49.125 38.507812 Z M 61.433594 48.328125 C 59.996094 47.527344 59.496094 46.5625 59.496094 44.679688 C 59.496094 43.765625 59.632812 42.847656 59.816406 42.480469 C 61.207031 39.792969 65.148438 39.359375 67.292969 41.652344 C 68.226562 42.683594 68.429688 43.441406 68.25 45.507812 L 68.113281 47.367188 L 66.925781 48.121094 C 65.878906 48.789062 65.605469 48.855469 64.054688 48.855469 C 62.710938 48.855469 62.164062 48.742188 61.433594 48.328125 Z M 79.941406 46.816406 C 79.601562 46.378906 79.097656 45.644531 78.847656 45.140625 C 78.414062 44.269531 78.414062 44.128906 78.734375 38.921875 C 78.917969 35.984375 79.144531 32.292969 79.234375 30.6875 C 79.328125 29.058594 79.464844 27.75 79.554688 27.75 C 79.644531 27.75 80.191406 28.324219 80.738281 29.011719 L 81.765625 30.25 L 81.675781 31.808594 C 81.605469 32.660156 81.332031 36.558594 81.058594 40.460938 L 80.578125 47.574219 Z M 79.941406 46.816406 "
    />
    <path
      d="M 14.019531 45.644531 C 9.894531 44.886719 6.226562 44.292969 5.882812 44.269531 C 5.519531 44.269531 5.246094 44.175781 5.246094 44.0625 C 5.246094 43.878906 7.660156 41.929688 12.199219 38.488281 C 13.453125 37.523438 15.410156 36.007812 16.527344 35.113281 C 19.308594 32.886719 21.839844 31.625 23.503906 31.625 C 24.6875 31.625 28.039062 32.039062 28.199219 32.199219 C 28.246094 32.246094 26.878906 32.773438 25.144531 33.347656 C 21.519531 34.585938 20.609375 35.089844 18.785156 36.742188 C 17.328125 38.097656 16.664062 39.335938 16.644531 40.710938 C 16.644531 43.097656 17.738281 44.566406 20.675781 46.082031 C 21.65625 46.585938 22.25 47 22 47 C 21.75 46.976562 18.167969 46.378906 14.019531 45.644531 Z M 69.070312 44.796875 C 69.070312 44.269531 68.863281 43.328125 68.636719 42.730469 C 68.226562 41.652344 68.226562 41.605469 68.636719 40.828125 C 68.863281 40.390625 69.046875 39.632812 69.070312 39.175781 C 69.070312 38.507812 69.160156 38.304688 69.480469 38.304688 C 70.027344 38.304688 72.808594 38.761719 72.898438 38.875 C 72.96875 38.921875 72.125 40.484375 71.03125 42.363281 C 69.113281 45.691406 69.070312 45.738281 69.070312 44.796875 Z M 2.101562 44.359375 C 0.390625 43.902344 0.00390625 43.648438 0.00390625 42.984375 L 0.00390625 42.410156 L 0.527344 43.007812 C 0.847656 43.398438 1.667969 43.832031 2.625 44.175781 C 4.355469 44.773438 4.039062 44.886719 2.101562 44.359375 Z M 2.101562 44.359375 "
    />
    <path
      d="M 1.78125 43.304688 C 1.417969 43.191406 1.144531 42.914062 1.144531 42.683594 C 1.144531 41.90625 17.304688 30.179688 20.972656 28.324219 C 22.523438 27.519531 24.824219 27.566406 30.023438 28.4375 C 32.257812 28.804688 35.425781 29.285156 37.042969 29.46875 C 38.683594 29.675781 44.429688 30.503906 49.832031 31.304688 C 55.210938 32.132812 60.816406 32.933594 62.253906 33.117188 C 63.691406 33.277344 64.511719 33.4375 64.078125 33.460938 C 62.664062 33.507812 61.457031 34.035156 60.5 35 L 59.542969 35.941406 L 57.308594 35.664062 C 55.371094 35.433594 54.707031 35.230469 52.632812 34.242188 C 49.671875 32.796875 48.757812 32.476562 45.773438 31.855469 C 43.082031 31.28125 39.117188 31.191406 33.167969 31.511719 C 30.136719 31.671875 29.203125 31.625 27.582031 31.328125 C 26.511719 31.121094 24.871094 30.960938 23.9375 30.984375 C 23.003906 30.984375 22.042969 30.9375 21.816406 30.847656 C 20.972656 30.503906 19.8125 31.328125 7.683594 40.734375 C 3.785156 43.765625 3.421875 43.925781 1.78125 43.304688 Z M 0.230469 41.996094 C 0.230469 41.5625 15.410156 30.480469 18.351562 28.804688 L 19.035156 28.390625 L 18.464844 28.875 C 17.074219 30.042969 0.230469 42.15625 0.230469 41.996094 Z M 0.230469 41.996094 "
    />
    <path
      d="M 66.585938 40.300781 C 65.671875 39.609375 65.46875 39.566406 63.847656 39.566406 C 62.253906 39.566406 62.003906 39.632812 61.25 40.207031 C 60.773438 40.550781 60.316406 40.78125 60.179688 40.710938 C 59.792969 40.484375 59.449219 38.691406 59.585938 37.753906 C 59.835938 36.308594 60.566406 35.34375 61.867188 34.722656 C 65.125 33.1875 68.386719 35.089844 68.386719 38.488281 C 68.386719 39.609375 68.019531 41.054688 67.746094 41.054688 C 67.65625 41.035156 67.132812 40.710938 66.585938 40.300781 Z M 66.585938 40.300781 "
    />
    <path
      d="M 70.847656 37.890625 C 69.136719 37.546875 69.070312 37.5 68.816406 36.742188 C 68.476562 35.710938 66.902344 34.105469 65.878906 33.785156 C 64.714844 33.417969 65.628906 33.4375 68.15625 33.828125 C 72.054688 34.449219 74.769531 35.230469 74.769531 35.734375 C 74.769531 35.824219 74.472656 36.421875 74.128906 37.042969 C 73.421875 38.371094 73.308594 38.394531 70.847656 37.890625 Z M 2.785156 37.820312 C 2.53125 37.730469 2.191406 37.410156 2.054688 37.15625 C 1.734375 36.582031 0.320312 26.625 0.09375 23.4375 C -0.0664062 21.394531 -0.0429688 21.277344 0.367188 21.394531 C 3.125 22.175781 5.246094 22.105469 7.867188 21.210938 C 8.757812 20.914062 9.484375 20.683594 9.484375 20.707031 C 9.507812 20.730469 9.734375 23.34375 10.007812 26.488281 C 10.28125 29.652344 10.535156 32.476562 10.578125 32.796875 C 10.695312 33.417969 10.851562 33.277344 5.566406 36.949219 C 4.265625 37.867188 3.511719 38.097656 2.785156 37.820312 Z M 67.542969 33.09375 C 67.746094 33.050781 68.113281 33.050781 68.339844 33.09375 C 68.542969 33.164062 68.363281 33.210938 67.929688 33.210938 C 67.496094 33.210938 67.3125 33.164062 67.542969 33.09375 Z M 87.191406 30.546875 C 84.820312 30.25 82.8125 29.953125 82.792969 29.90625 C 82.699219 29.859375 85.433594 22.679688 85.59375 22.519531 C 85.617188 22.496094 86.960938 22.609375 88.582031 22.816406 C 90.199219 23 91.589844 23.160156 91.65625 23.160156 C 91.726562 23.160156 91.910156 24.421875 92.066406 25.984375 C 92.203125 27.519531 92.386719 29.332031 92.457031 29.996094 C 92.617188 31.421875 93.207031 31.351562 87.191406 30.546875 Z M 93.027344 27.128906 C 92.867188 24.925781 92.773438 23.089844 92.820312 23.070312 C 92.867188 23.023438 93.574219 22.726562 94.4375 22.402344 C 95.828125 21.875 95.988281 21.851562 96.171875 22.195312 C 96.96875 23.757812 98.929688 28.757812 98.769531 28.894531 C 98.679688 28.988281 97.878906 29.332031 96.992188 29.699219 C 96.125 30.042969 94.917969 30.503906 94.347656 30.730469 L 93.320312 31.144531 Z M 80.992188 28.277344 C 80.375 27.542969 79.78125 26.832031 79.691406 26.671875 C 79.601562 26.511719 80.304688 25.226562 81.445312 23.527344 L 83.339844 20.660156 L 84.179688 21.394531 L 85.023438 22.128906 L 83.589844 25.867188 L 82.128906 29.585938 Z M 86.894531 20.890625 C 86.234375 20.660156 85.570312 20.363281 85.433594 20.222656 C 85.253906 20.039062 85.550781 19.007812 86.460938 16.574219 C 88.125 12.101562 88.375 10.679688 88.011719 7.949219 C 87.851562 6.777344 87.667969 5.585938 87.601562 5.289062 L 87.464844 4.738281 L 91.089844 4.921875 C 93.070312 5.011719 94.734375 5.105469 94.757812 5.128906 C 94.78125 5.148438 94.460938 6.273438 94.027344 7.628906 C 93.320312 9.785156 93.230469 10.359375 93.230469 12.492188 C 93.230469 14.191406 93.414062 15.75 93.800781 17.699219 C 94.121094 19.214844 94.371094 20.546875 94.371094 20.636719 C 94.371094 21.417969 88.898438 21.578125 86.894531 20.890625 Z M 86.894531 20.890625 "
    />
    <path
      d="M 1.324219 20.589844 C 0.367188 20.339844 0.277344 20.179688 0.871094 19.671875 C 1.53125 19.078125 2.945312 18.800781 5.496094 18.800781 C 8.140625 18.800781 9.03125 19.101562 8.460938 19.8125 C 7.707031 20.730469 3.511719 21.1875 1.324219 20.589844 Z M 88.785156 4.140625 C 88.398438 4.046875 87.875 3.84375 87.644531 3.703125 C 87.234375 3.476562 87.214844 3.453125 87.601562 3.429688 C 87.828125 3.429688 88.214844 3.542969 88.46875 3.683594 C 88.71875 3.796875 89.355469 4.003906 89.878906 4.117188 C 90.632812 4.253906 90.699219 4.300781 90.152344 4.300781 C 89.789062 4.300781 89.152344 4.230469 88.785156 4.140625 Z M 94.097656 3.980469 C 94.644531 3.796875 95.144531 3.683594 95.238281 3.75 C 95.441406 3.980469 95.238281 4.046875 94.140625 4.210938 L 93.117188 4.347656 Z M 90.109375 3.359375 C 88.921875 2.902344 88.808594 2.695312 89.152344 1.570312 C 89.355469 0.929688 89.675781 0.46875 90.039062 0.285156 C 90.90625 -0.148438 92.570312 -0.0820312 93.183594 0.445312 C 94.121094 1.226562 94.324219 2.992188 93.527344 3.292969 C 92.773438 3.589844 90.792969 3.636719 90.109375 3.359375 Z M 90.109375 3.359375 "
    />
  </g>
</svg>
