<svg xmlns="http://www.w3.org/2000/svg" id="root" viewBox="0 0 99 98">
  <g>
    <path
      d="M 12.761719 97.324219 C 12.886719 96.925781 13.007812 96.492188 13.039062 96.308594 C 13.066406 96.15625 13.859375 94.832031 14.804688 93.390625 C 15.71875 91.945312 17.027344 89.882812 17.667969 88.777344 C 18.308594 87.671875 19.191406 86.320312 19.585938 85.765625 L 20.347656 84.75 L 19.890625 84.257812 L 19.402344 83.796875 L 20.773438 81.554688 L 22.144531 79.308594 L 23.609375 78.941406 L 25.101562 78.570312 L 26.804688 76.789062 L 28.511719 74.976562 L 28.296875 74.207031 L 28.117188 73.4375 L 29.03125 72.117188 C 29.515625 71.378906 30.308594 70.457031 30.734375 70.058594 C 31.617188 69.226562 31.710938 68.917969 31.164062 68.703125 C 30.949219 68.644531 31.070312 68.644531 31.4375 68.671875 L 32.105469 68.796875 L 32.257812 68.519531 L 32.441406 68.242188 L 30.613281 67.8125 L 30.613281 67.199219 L 31.464844 67.351562 C 31.921875 67.445312 32.503906 67.597656 32.746094 67.691406 L 33.203125 67.875 L 34.117188 66.277344 C 34.636719 65.382812 35.089844 64.554688 35.121094 64.429688 L 35.242188 64.1875 L 34.300781 64.1875 L 34.085938 62.339844 L 33.875 60.496094 L 33.628906 60.3125 L 33.355469 60.160156 L 33.355469 55.855469 L 32.136719 53.457031 L 31.710938 50.84375 L 31.316406 48.199219 L 30.035156 46.816406 C 29.363281 46.078125 28.785156 45.3125 28.785156 45.125 C 28.785156 44.359375 28.054688 45.003906 25.921875 47.648438 L 23.609375 50.476562 L 21.871094 51.828125 L 20.164062 53.210938 L 17.851562 53.148438 L 15.535156 53.089844 L 14.226562 51.796875 L 12.886719 50.507812 L 10.144531 46.570312 L 7.433594 42.667969 L 6.214844 40.085938 C 5.574219 38.671875 5.027344 37.410156 5.027344 37.320312 C 5.027344 37.226562 5.574219 36.859375 6.246094 36.519531 C 6.914062 36.179688 7.464844 35.78125 7.464844 35.628906 C 7.464844 35.503906 6.792969 33.90625 5.941406 32.09375 C 5.117188 30.277344 4.417969 28.742188 4.417969 28.679688 C 4.417969 28.621094 4.78125 28.527344 5.269531 28.464844 L 6.09375 28.375 L 6.03125 27.050781 L 5.96875 25.699219 L 6.703125 26.191406 L 7.402344 26.652344 L 7.859375 25.976562 C 8.074219 25.605469 8.375 24.929688 8.5 24.4375 L 8.679688 23.609375 L 9.230469 23.609375 L 9.441406 24.59375 C 9.566406 25.144531 9.929688 26.160156 10.296875 26.835938 L 10.90625 28.035156 L 10.691406 30.742188 L 10.507812 33.414062 L 11.605469 33.351562 L 12.703125 33.292969 L 15.382812 40.300781 L 16.480469 41.777344 C 17.089844 42.605469 17.699219 43.28125 17.851562 43.28125 L 18.125 43.28125 L 18.125 40.855469 L 18.917969 40.238281 L 19.738281 39.59375 L 19.890625 37.996094 L 20.042969 36.425781 L 21.203125 35.257812 L 22.390625 34.058594 L 22.390625 31.109375 L 23.546875 30.003906 L 24.675781 28.894531 L 27.019531 28.15625 L 29.394531 27.449219 L 29.394531 27.144531 C 29.394531 26.960938 28.785156 25.882812 28.023438 24.746094 L 26.625 22.65625 L 26.777344 22.441406 C 26.835938 22.316406 28.144531 21.609375 29.667969 20.84375 L 32.441406 19.488281 L 32.441406 18.691406 L 31.648438 18.691406 L 30.707031 17.707031 L 29.761719 16.691406 L 29.640625 16.078125 L 29.546875 15.460938 L 28.9375 15.371094 C 28.601562 15.308594 28.207031 15.125 28.023438 14.96875 L 27.75 14.695312 L 27.691406 11.898438 L 27.628906 9.097656 L 27.292969 8.761719 L 26.957031 8.421875 L 26.957031 5.472656 L 27.8125 3.964844 L 28.632812 2.429688 L 29.363281 2.242188 L 30.097656 2.058594 L 31.34375 1.015625 L 32.59375 0 L 36.21875 0.0625 L 39.875 0.121094 L 39.996094 0.492188 L 40.117188 0.859375 L 40.636719 0.859375 C 40.910156 0.859375 41.398438 1.046875 41.730469 1.292969 C 42.066406 1.507812 42.617188 1.78125 42.949219 1.875 L 43.558594 2.027344 L 42.890625 2.242188 C 42.066406 2.519531 42.035156 2.644531 42.675781 3.566406 L 43.132812 4.242188 L 44.046875 4.703125 L 44.929688 5.195312 L 44.929688 5.503906 C 44.929688 5.65625 44.71875 5.871094 44.445312 5.996094 L 43.957031 6.179688 L 43.101562 5.65625 C 42.617188 5.378906 42.066406 5.164062 41.824219 5.164062 L 41.425781 5.164062 L 42.1875 5.777344 L 42.949219 6.363281 L 42.433594 6.761719 L 41.882812 7.164062 L 42.859375 10.851562 L 43.042969 14.078125 L 43.253906 17.308594 L 45.023438 17.398438 L 46.820312 17.492188 L 46.605469 19.765625 L 46.394531 22.011719 L 47.550781 22.347656 C 48.21875 22.53125 49.4375 22.777344 50.261719 22.871094 L 51.785156 23.054688 L 54.222656 22.746094 L 56.628906 22.410156 L 57.023438 21.886719 L 57.421875 21.363281 L 58.179688 21.703125 L 58.941406 22.070312 L 58.851562 22.71875 L 58.789062 23.363281 L 60.617188 24.039062 L 62.445312 24.746094 L 63.421875 26.4375 L 64.394531 28.128906 L 68.265625 29.632812 L 72.132812 31.109375 L 74.296875 32.921875 L 76.457031 34.738281 L 78.988281 35.933594 L 81.515625 37.101562 L 83.433594 38.515625 L 85.351562 39.960938 L 91.6875 48.445312 L 92.542969 48.570312 L 93.425781 48.660156 L 94.066406 50.167969 L 94.703125 51.707031 L 94.339844 51.828125 C 93.761719 52.011719 93.882812 52.441406 94.886719 53.671875 L 95.769531 54.808594 L 97.386719 58.191406 L 99 61.574219 L 99 64.339844 L 98.542969 65.167969 C 98.300781 65.628906 97.660156 66.738281 97.113281 67.660156 L 96.136719 69.320312 L 95.222656 69.6875 L 94.398438 67.167969 C 93.972656 65.785156 93.273438 64.0625 92.847656 63.355469 L 92.117188 62.035156 L 91.203125 62.035156 L 91.078125 62.433594 C 91.019531 62.617188 90.867188 63.355469 90.746094 64.03125 L 90.5 65.261719 L 90.167969 62.957031 L 89.832031 60.652344 L 90.378906 58.53125 L 90.957031 56.410156 L 90.53125 55.976562 L 90.105469 55.546875 L 87.910156 56.59375 L 87.304688 56.164062 C 86.96875 55.917969 84.925781 54.226562 82.765625 52.351562 L 78.835938 48.96875 L 77.585938 46.941406 L 76.335938 44.941406 L 72.195312 43.464844 L 70.824219 42.175781 L 69.453125 40.882812 L 65.125 39.625 C 62.75 38.917969 60.742188 38.363281 60.648438 38.363281 C 60.558594 38.363281 59.949219 38.855469 59.277344 39.441406 L 58.089844 40.515625 L 58.058594 45.832031 L 58.027344 51.121094 L 57.359375 55.363281 L 56.660156 59.605469 L 57.023438 59.820312 L 57.390625 60.066406 L 57.601562 62.21875 L 57.816406 64.402344 L 57.449219 65.046875 L 57.085938 65.722656 L 57.90625 67.566406 L 58.730469 69.410156 L 60.070312 70.242188 L 61.378906 71.101562 L 61.957031 73.101562 C 62.292969 74.207031 62.84375 76.113281 63.207031 77.3125 L 63.847656 79.554688 L 63.148438 80.785156 L 62.445312 82.015625 L 61.714844 82.015625 L 61.53125 82.597656 L 61.347656 83.183594 L 61.804688 85.179688 C 62.050781 86.289062 62.566406 89.175781 62.902344 91.574219 L 63.542969 96 L 63.269531 96.09375 L 63.023438 96.15625 L 63.148438 97.078125 L 63.269531 98 L 55.898438 98 L 55.898438 97.324219 L 55.441406 97.691406 C 55.164062 97.90625 54.921875 98.03125 54.890625 97.96875 C 54.832031 97.90625 54.554688 97.476562 54.28125 97.015625 L 53.765625 96.15625 L 53.003906 96.15625 L 52.121094 95.050781 L 51.234375 93.941406 L 50.476562 91.882812 L 49.714844 89.855469 L 47.277344 86.347656 L 45.691406 82.230469 L 44.015625 81.644531 L 42.339844 81.09375 L 41.976562 81.214844 L 41.578125 81.371094 L 40.789062 83 L 39.996094 84.628906 L 37.984375 86.011719 L 35.945312 87.394531 L 33.203125 90.007812 L 30.460938 92.652344 L 28.9375 93.511719 C 28.117188 94.003906 26.929688 94.804688 26.320312 95.292969 C 25.710938 95.757812 25.128906 96.15625 25.039062 96.15625 C 24.949219 96.15625 24.246094 96.585938 23.515625 97.078125 L 22.144531 98 L 12.582031 98 Z M 12.761719 97.324219 "
    />
    <path
      d="M 3.6875 26.007812 C 3.441406 25.113281 2.742188 22.65625 2.132812 20.535156 C 1.554688 18.445312 1.066406 16.539062 1.066406 16.324219 L 1.066406 15.921875 L 2.285156 15.921875 L 2.285156 16.167969 C 2.285156 16.292969 2.984375 18.8125 3.808594 21.765625 L 5.300781 27.113281 L 5.148438 27.359375 C 5.054688 27.480469 4.78125 27.605469 4.570312 27.605469 L 4.144531 27.605469 Z M 10.996094 26.34375 C 10.660156 25.328125 10.203125 21.765625 10.234375 20.503906 L 10.265625 19.152344 L 10.691406 20.535156 L 11.148438 21.917969 L 10.996094 22.472656 L 10.84375 23.054688 L 11.117188 24.777344 C 11.394531 26.375 11.300781 27.328125 10.996094 26.34375 Z M 6.183594 24.46875 C 5.789062 23.914062 5.332031 23.117188 5.238281 22.6875 L 5.054688 21.917969 L 5.300781 21.488281 L 5.574219 21.058594 L 6.246094 21.488281 L 6.246094 21.148438 C 6.246094 20.996094 6.0625 20.566406 5.878906 20.226562 L 5.484375 19.582031 L 5.941406 19.304688 L 6.398438 18.996094 L 6.976562 20.289062 C 7.28125 20.996094 7.617188 22.070312 7.675781 22.6875 L 7.828125 23.824219 L 7.402344 24.652344 L 6.976562 25.515625 Z M 8.527344 21.640625 L 8.742188 20.597656 L 8.101562 20.378906 L 7.464844 20.195312 L 7.464844 18.75 L 8.164062 18.566406 C 8.527344 18.476562 8.925781 18.382812 9.078125 18.382812 L 9.289062 18.382812 L 9.289062 22.6875 L 8.347656 22.6875 Z M 50.65625 22.226562 L 50.503906 22.039062 L 53.519531 16.136719 C 55.195312 12.878906 57.601562 8.332031 58.882812 5.964844 L 61.195312 1.722656 L 61.5625 1.566406 L 61.898438 1.445312 L 63.023438 2.089844 L 64.121094 2.765625 L 64.121094 3.042969 C 64.121094 3.226562 62.414062 6.484375 60.34375 10.328125 C 58.273438 14.171875 56.078125 18.289062 55.46875 19.519531 L 54.375 21.734375 L 53.796875 22.070312 L 53.1875 22.378906 L 51.996094 22.378906 C 51.359375 22.378906 50.75 22.316406 50.65625 22.226562 Z M 59.15625 13.863281 C 61.59375 9.3125 63.9375 5.011719 64.363281 4.242188 L 65.125 2.859375 L 65.25 3.226562 L 65.371094 3.566406 L 64.546875 5.226562 C 64.089844 6.117188 62.691406 8.730469 61.378906 11.003906 C 60.070312 13.28125 58.363281 16.476562 57.574219 18.074219 C 56.171875 20.933594 55.410156 22.070312 54.984375 22.070312 C 54.859375 22.070312 56.75 18.382812 59.15625 13.863281 Z M 49.742188 20.78125 C 50.046875 20.226562 52.027344 16.476562 54.070312 12.480469 L 57.816406 5.164062 L 58.089844 5.164062 C 58.609375 5.164062 58.304688 5.902344 56.078125 10.019531 C 54.859375 12.328125 53.125 15.675781 52.242188 17.460938 C 50.65625 20.71875 49.957031 21.765625 49.4375 21.765625 L 49.132812 21.765625 Z M 58.789062 20.964844 C 58.457031 20.71875 57.96875 20.378906 57.726562 20.226562 L 57.269531 19.949219 L 57.601562 19.613281 L 57.9375 19.273438 L 60.375 20.6875 L 60.253906 21.085938 L 60.101562 21.457031 L 59.765625 21.457031 C 59.550781 21.457031 59.125 21.210938 58.789062 20.964844 Z M 59.613281 19.027344 L 58.914062 18.503906 L 60.921875 14.753906 L 62.964844 11.003906 L 63.328125 11.003906 C 63.542969 11.003906 63.9375 11.191406 64.214844 11.40625 L 64.730469 11.773438 L 62.628906 15.554688 C 61.5 17.613281 60.496094 19.367188 60.4375 19.429688 C 60.375 19.519531 59.980469 19.335938 59.613281 19.027344 Z M 59.613281 19.027344 "
    />
    <path
      d="M 3.199219 16.691406 L 2.558594 14.722656 L 1.339844 15.15625 L 0.152344 15.585938 L 0.121094 15 C 0.0898438 14.664062 0.0625 14.234375 0.03125 14.015625 L 0 13.679688 L 1.675781 13.28125 C 2.589844 13.066406 3.351562 12.910156 3.382812 12.941406 C 3.382812 12.972656 3.65625 13.988281 3.929688 15.15625 C 4.234375 16.355469 4.539062 17.523438 4.601562 17.796875 L 4.753906 18.320312 L 4.296875 18.476562 L 3.839844 18.660156 Z M 5.359375 16.9375 C 5.179688 16.292969 4.84375 15.125 4.601562 14.324219 L 4.171875 12.878906 L 5.757812 12.695312 C 6.609375 12.574219 7.796875 12.542969 8.375 12.601562 L 9.441406 12.695312 L 9.960938 15 C 10.234375 16.261719 10.449219 17.308594 10.386719 17.367188 C 10.234375 17.523438 7.097656 18.074219 6.367188 18.074219 L 5.664062 18.074219 Z M 1.675781 11.496094 L 1.675781 11.066406 L 2.285156 10.914062 L 2.894531 10.757812 L 2.894531 11.925781 L 1.675781 11.925781 Z M 3.929688 10.511719 L 3.714844 9.746094 L 3.992188 9.5 C 4.144531 9.34375 4.78125 9.160156 5.390625 9.070312 L 6.519531 8.882812 L 6.703125 9.5 C 6.792969 9.804688 6.945312 10.359375 7.035156 10.699219 L 7.1875 11.3125 L 4.113281 11.3125 Z M 57.875 4.210938 L 57.664062 3.902344 L 57.847656 3.136719 C 58.058594 2.304688 58.304688 2.242188 59.066406 2.796875 L 59.644531 3.226562 L 59.277344 3.875 L 58.914062 4.550781 L 58.484375 4.550781 C 58.273438 4.550781 57.96875 4.394531 57.875 4.210938 Z M 57.875 4.210938 "
    />
  </g>
</svg>
