<svg id="root" xmlns="http://www.w3.org/2000/svg" style="transform-origin:50% 50%;cursor:move" width="768" height="441"
  viewBox="0 0 7680 4410">
  <g>
    <path
      d="M2714 4388c4-13 8-27 9-33 1-5 27-48 58-95 30-47 73-114 94-150s50-80 63-98l25-33-15-16-16-15 45-73 45-73 48-12 49-12 56-58 56-59-7-25-6-25 30-43c16-24 42-54 56-67 29-27 32-37 14-44-7-2-3-2 9-1l22 4 5-9 6-9-30-7-30-7v-20l28 5c15 3 34 8 42 11l15 6 30-52c17-29 32-56 33-60l4-8h-31l-7-60-7-60-8-6-9-5v-140l-20-39-20-39-14-85-13-86-42-45c-22-24-41-49-41-55 0-25-24-4-94 82l-76 92-57 44-56 45-76-2-76-2-43-42-44-42-90-128-89-127-40-84c-21-46-39-87-39-90s18-15 40-26 40-24 40-29c0-4-22-56-50-115-27-59-50-109-50-111s12-5 28-7l27-3-2-43-2-44 24 16 23 15 15-22c7-12 17-34 21-50l6-27h18l7 32c4 18 16 51 28 73l20 39-7 88-6 87 36-2 36-2 44 114 44 114 36 48c20 27 40 49 45 49h9v-79l26-20 27-21 5-52 5-51 38-38 39-39v-96l38-36 37-36 77-24 78-23v-10c0-6-20-41-45-78l-46-68 5-7c2-4 45-27 95-52l91-44v-26h-26l-31-32-31-33-4-20-3-20-20-3c-11-2-24-8-30-13l-9-9-2-91-2-91-11-11-11-11v-96l28-49 27-50 24-6 24-6 41-34 41-33 119 2 120 2 4 12 4 12h17c9 0 25 6 36 14 11 7 29 16 40 19l20 5-22 7c-27 9-28 13-7 43l15 22 30 15 29 16v10c0 5-7 12-16 16l-16 6-28-17c-16-9-34-16-42-16h-13l25 20 25 19-17 13-18 13 16 60 16 60 6 105 7 105 58 3 59 3-7 74-7 73 38 11c22 6 62 14 89 17l50 6 80-10 79-11 13-17 13-17 25 11 25 12-3 21-2 21 60 22 60 23 32 55 32 55 127 49 127 48 71 59 71 59 83 39 83 38 63 46 63 47 104 138 104 138 28 4 29 3 21 49 21 50-12 4c-19 6-15 20 18 60l29 37 53 110 53 110v90l-15 27c-8 15-29 51-47 81l-32 54-15 6-15 6-27-82c-14-45-37-101-51-124l-24-43h-30l-4 13c-2 6-7 30-11 52l-8 40-11-75-11-75 18-69 19-69-14-14-14-14-36 17-36 17-20-14c-11-8-78-63-149-124l-129-110-41-66-41-65-68-24-68-24-45-42-45-42-142-41c-78-23-144-41-147-41s-23 16-45 35l-39 35-1 173-1 172-22 138-23 138 12 7 12 8 7 70 7 71-12 21-12 22 27 60 27 60 44 27 43 28 19 65c11 36 29 98 41 137l21 73-23 40-23 40h-24l-6 19-6 19 15 65c8 36 25 130 36 208l21 144-9 3-8 2 4 30 4 30h-242v-22l-15 12c-9 7-17 11-18 9-2-2-11-16-20-31l-17-28h-25l-29-36-29-36-25-67-25-66-40-57-40-57-26-67-26-67-55-19-55-18-12 4-13 5-26 53-26 53-66 45-67 45-90 85-90 86-50 28c-27 16-66 42-86 58-20 15-39 28-42 28s-26 14-50 30l-45 30h-314l6-22z" />
    <path
      d="M2416 2068c-8-29-31-109-51-178-19-68-35-130-35-137v-13h40v8c0 4 23 86 50 182l49 174-5 8c-3 4-12 8-19 8h-14l-15-52zm240 11c-11-33-26-149-25-190l1-44 14 45 15 45-5 18-5 19 9 56c9 52 6 83-4 51zm-158-61c-13-18-28-44-31-58l-6-25 8-14 9-14 11 7 11 7v-11c0-5-6-19-12-30l-13-21 15-9 15-10 19 42c10 23 21 58 23 78l5 37-14 27-14 28-26-34zm77-92 7-34-21-7-21-6v-47l23-6c12-3 25-6 30-6h7v140h-31l6-34zm1383 19-5-6 99-192c55-106 134-254 176-331l76-138 12-5 11-4 37 21 36 22v9c0 6-56 112-124 237s-140 259-160 299l-36 72-19 11-20 10h-39c-21 0-41-2-44-5zm279-272c80-148 157-288 171-313l25-45 4 12 4 11-27 54c-15 29-61 114-104 188s-99 178-125 230c-46 93-71 130-85 130-4 0 58-120 137-267zm-309 225c10-18 75-140 142-270l123-238h9c17 0 7 24-66 158-40 75-97 184-126 242-52 106-75 140-92 140h-10l20-32zm297 6c-11-8-27-19-35-24l-15-9 11-11 11-11 40 23 40 23-4 13-5 12h-11c-7 0-21-8-32-16zm27-63-23-17 66-122 67-122h12c7 0 20 6 29 13l17 12-69 123c-37 67-70 124-72 126-2 3-15-3-27-13z" />
    <path
      d="m2400 1765-21-64-40 14-39 14-1-19c-1-11-2-25-3-32l-1-11 55-13c30-7 55-12 56-11 0 1 9 34 18 72 10 39 20 77 22 86l5 17-15 5-15 6-21-64zm71 8c-6-21-17-59-25-85l-14-47 52-6c28-4 67-5 86-3l35 3 17 75c9 41 16 75 14 77-5 5-108 23-132 23h-23l-10-37zm-121-177v-14l20-5 20-5v38h-40v-14zm74-32-7-25 9-8c5-5 26-11 46-14l37-6 6 20c3 10 8 28 11 39l5 20h-101l-6-26zm1771-205-7-10 6-25c7-27 15-29 40-11l19 14-12 21-12 22h-14c-7 0-17-5-20-11z" />
  </g>
</svg>