<svg xmlns="http://www.w3.org/2000/svg" id="root" viewBox="0 0 100 128">
  <path
    d="M 2.851562 127.496094 C 2.851562 127.226562 3.085938 126.683594 3.398438 126.253906 C 3.671875 125.828125 3.945312 125.324219 3.984375 125.09375 C 3.984375 124.898438 4.804688 123.621094 5.777344 122.300781 C 8.863281 118 11.363281 112.53125 13.589844 105.128906 L 14.917969 100.632812 L 16.945312 96.214844 C 18.039062 93.769531 19.367188 91.058594 19.875 90.203125 L 20.773438 88.652344 L 21.984375 88.113281 L 23.234375 87.609375 L 23.429688 87.027344 L 23.625 86.484375 L 23.429688 86.289062 L 23.234375 86.058594 L 22.453125 86.832031 L 21.710938 87.570312 L 19.445312 87.878906 L 17.179688 88.148438 L 16.867188 87.644531 L 16.554688 87.105469 L 14.371094 88.1875 L 12.183594 89.234375 L 11.246094 88.1875 C 10.738281 87.570312 10.269531 87.027344 10.269531 86.910156 C 10.269531 86.792969 11.246094 86.210938 12.417969 85.628906 L 14.566406 84.582031 L 14.566406 83.5 L 11.207031 78.421875 L 7.847656 73.382812 L 7.105469 73.148438 L 6.402344 72.914062 L 5.269531 70.859375 L 4.140625 68.808594 L 5.582031 67.140625 L 7.027344 65.472656 L 6.441406 63.882812 L 5.894531 62.292969 L 6.167969 59.773438 L 6.441406 57.292969 L 7.183594 56.324219 C 7.574219 55.820312 7.925781 55.199219 7.925781 54.929688 C 7.925781 54.039062 11.089844 48.417969 12.808594 46.207031 C 15.1875 43.144531 16.671875 40.585938 17.84375 37.445312 L 18.859375 34.734375 L 20.382812 33.296875 L 21.90625 31.863281 L 24.71875 31.632812 L 27.527344 31.359375 L 27.644531 30.933594 C 27.722656 30.703125 27.878906 29.886719 27.996094 29.152344 L 28.230469 27.792969 L 30.183594 26.4375 C 31.238281 25.699219 32.136719 24.964844 32.136719 24.847656 C 32.136719 24.691406 31.785156 24.148438 31.316406 23.570312 L 30.535156 22.5625 L 28.699219 22.5625 L 28.308594 22.058594 C 28.074219 21.824219 27.527344 20.621094 27.058594 19.460938 L 26.199219 17.328125 L 26.042969 14.613281 C 25.964844 13.140625 25.925781 11.203125 25.964844 10.351562 C 26.082031 7.871094 25.964844 6.164062 25.691406 4.882812 L 25.417969 3.683594 L 26.472656 2.828125 L 27.566406 2.015625 L 28.074219 2.675781 L 28.582031 3.371094 L 29.871094 2.132812 L 31.160156 0.890625 L 33.425781 0.0390625 L 33.621094 0.269531 L 33.816406 0.464844 L 32.878906 0.464844 L 33.074219 0.8125 L 33.308594 1.164062 L 35.21875 1.433594 L 37.132812 1.707031 L 38.070312 1.125 L 38.96875 0.542969 L 41.078125 0.269531 L 43.1875 0 L 42.914062 0.425781 C 42.757812 0.660156 42.40625 0.851562 42.132812 0.851562 C 41.859375 0.851562 41.351562 1.164062 40.960938 1.589844 L 40.296875 2.285156 L 40.921875 2.792969 L 41.546875 3.332031 L 42.953125 2.828125 L 44.320312 2.324219 L 45.371094 3.101562 C 45.957031 3.527344 47.324219 4.304688 48.457031 4.882812 L 50.449219 5.890625 L 55.40625 5.890625 L 56.265625 6.511719 C 56.734375 6.824219 57.28125 7.402344 57.476562 7.792969 L 57.867188 8.449219 L 57.046875 8.449219 L 56.265625 8.410156 L 55.835938 9.070312 L 55.40625 9.691406 L 55.914062 10.3125 L 56.421875 10.929688 L 59.3125 10.929688 L 61.421875 13.101562 L 63.570312 15.234375 L 61.148438 14.964844 L 58.6875 14.691406 L 58.6875 15.078125 C 58.6875 16.046875 62.007812 18.296875 64.234375 18.839844 L 65.246094 19.070312 L 66.496094 20.078125 C 67.160156 20.660156 68.253906 21.902344 68.917969 22.832031 L 70.128906 24.578125 L 68.332031 23.53125 L 66.535156 22.523438 L 65.675781 22.636719 L 64.820312 22.753906 L 64.664062 23.140625 L 64.546875 23.53125 L 65.597656 24.652344 L 66.652344 25.777344 L 64.703125 25.546875 L 62.75 25.3125 L 58.960938 23.917969 L 55.132812 22.484375 L 54.199219 22.714844 L 53.261719 22.949219 L 52.714844 24.652344 L 53.730469 25.507812 L 54.707031 26.320312 L 56.226562 26.632812 L 57.710938 26.902344 L 61.65625 28.609375 L 65.636719 30.3125 L 69.425781 30.3125 L 71.378906 29.152344 C 72.472656 28.53125 75.164062 27.136719 77.429688 26.050781 C 79.695312 24.964844 82.078125 23.644531 82.78125 23.105469 L 84.070312 22.132812 L 84.070312 28.183594 L 83.289062 29.460938 L 82.507812 30.703125 L 80.632812 31.554688 L 79.460938 34.191406 L 78.289062 36.789062 L 76.21875 37.796875 L 74.152344 38.84375 L 72.277344 38.84375 C 71.261719 38.84375 70.402344 38.917969 70.402344 38.996094 C 70.402344 39.113281 70.597656 39.65625 70.792969 40.238281 L 71.183594 41.246094 L 70.792969 41.75 L 70.363281 42.253906 L 68.722656 42.523438 C 67.824219 42.679688 66.457031 43.144531 65.636719 43.53125 L 64.234375 44.230469 L 64.078125 44.734375 L 63.882812 45.238281 L 61.265625 42.835938 C 59.820312 41.476562 58.453125 40.390625 58.257812 40.390625 L 57.828125 40.390625 L 58.101562 41.789062 L 58.335938 43.183594 L 60.054688 45.78125 L 61.734375 48.339844 L 61.929688 49.96875 L 62.125 51.59375 L 60.992188 51.363281 L 59.859375 51.167969 L 58.609375 52.097656 C 57.90625 52.640625 56.929688 53.183594 56.460938 53.339844 L 55.640625 53.609375 L 54.746094 52.0625 L 53.847656 50.472656 L 53.652344 50.703125 C 53.535156 50.820312 53.183594 51.789062 52.832031 52.914062 L 52.207031 54.929688 L 49.902344 55.78125 L 47.558594 56.636719 L 45.449219 56.246094 L 44.242188 56.867188 L 43.03125 57.488281 L 43.304688 58.300781 L 43.539062 59.078125 L 43.03125 59.425781 C 42.71875 59.621094 42.25 59.773438 42.015625 59.773438 L 41.507812 59.773438 L 41.507812 59.191406 C 41.507812 58.882812 41.390625 58.613281 41.234375 58.613281 C 40.726562 58.613281 36.664062 60.199219 36.3125 60.511719 L 36 60.820312 L 37.132812 63.691406 L 38.226562 66.558594 L 38.695312 66.480469 L 39.164062 66.363281 L 39.75 67.761719 C 40.0625 68.535156 40.335938 69.3125 40.335938 69.464844 C 40.335938 69.699219 31.003906 75.746094 28.777344 76.949219 L 28.386719 77.179688 L 28.660156 74.464844 C 29.011719 71.441406 29.441406 69.890625 30.847656 66.828125 L 31.785156 64.773438 L 31.550781 61.132812 L 28.660156 59.8125 L 26.472656 55.898438 L 24.289062 52.023438 L 24.054688 50.664062 C 23.9375 49.890625 23.703125 49.230469 23.585938 49.113281 L 23.3125 48.960938 L 20.96875 51.207031 C 19.640625 52.449219 18.273438 53.960938 17.921875 54.582031 L 17.21875 55.742188 L 15.03125 56.984375 L 15.070312 58.882812 L 15.109375 60.742188 L 14.449219 62.0625 L 13.824219 63.339844 L 14.566406 63.535156 L 15.34375 63.730469 L 15.539062 64.582031 C 15.65625 65.007812 16.085938 67.21875 16.515625 69.464844 C 16.984375 71.714844 17.492188 74.15625 17.726562 74.96875 L 18.078125 76.367188 L 19.835938 77.375 L 21.59375 78.421875 L 21.984375 79.15625 L 22.414062 79.933594 L 21.789062 80.164062 L 21.203125 80.398438 L 21.203125 81.484375 L 23 83.1875 L 24.757812 84.894531 L 24.25 85.085938 L 23.742188 85.242188 L 24.015625 85.554688 L 24.289062 85.824219 L 24.953125 85.589844 L 25.574219 85.359375 L 25.378906 84.582031 L 25.183594 83.808594 L 33.113281 79.933594 C 37.484375 77.800781 41.507812 75.976562 42.09375 75.824219 L 43.070312 75.589844 L 43.070312 76.832031 L 45.410156 76.832031 L 45.410156 77.839844 C 45.410156 78.382812 45.683594 79.894531 45.996094 81.132812 L 46.621094 83.460938 L 46.386719 86.328125 L 47.246094 86.445312 L 48.144531 86.5625 L 53.066406 84.390625 L 57.984375 82.179688 L 58.335938 82.53125 C 58.492188 82.683594 59.351562 84.621094 60.25 86.832031 L 61.851562 90.785156 L 62.75 94.390625 C 63.257812 96.328125 64.507812 102.492188 65.519531 108.035156 L 67.355469 118.113281 L 68.488281 121.566406 C 69.113281 123.464844 69.542969 125.09375 69.464844 125.207031 C 69.347656 125.285156 69.503906 125.984375 69.816406 126.683594 L 70.363281 128 L 63.453125 128 L 62.984375 126.683594 C 62.75 125.945312 62.398438 125.285156 62.203125 125.207031 L 61.8125 125.09375 L 57.476562 116.371094 L 53.144531 107.648438 L 50.878906 101.835938 C 49.628906 98.65625 47.753906 94.121094 46.660156 91.753906 L 44.75 87.492188 L 43.421875 87.609375 L 42.09375 87.761719 L 41.742188 88.382812 C 41.546875 88.769531 39.4375 91.058594 37.054688 93.5 L 32.722656 97.957031 L 28.777344 103.191406 C 23 110.90625 18.078125 117.6875 15.578125 121.410156 C 14.371094 123.230469 12.847656 125.441406 12.183594 126.371094 L 11.011719 128 L 2.851562 128 Z M 46.425781 26.476562 L 46.191406 26.164062 L 44.789062 25.933594 L 43.34375 25.699219 L 42.953125 25.933594 L 42.523438 26.164062 L 43.304688 26.476562 C 43.695312 26.632812 44.632812 26.785156 45.332031 26.785156 L 46.621094 26.824219 Z M 46.425781 26.476562 "
  />
  <path
    d="M 9.683594 100.207031 C 9.566406 99.429688 8.785156 97.296875 7.964844 95.398438 L 6.480469 92.027344 L 4.804688 89.546875 C 3.90625 88.226562 2.460938 86.367188 1.5625 85.476562 L 0 83.847656 L 0.234375 83.265625 C 0.625 82.296875 1.132812 82.53125 2.773438 84.507812 C 6.636719 89.121094 11.050781 97.765625 11.050781 100.75 L 11.050781 101.640625 L 9.957031 101.640625 Z M 8.433594 91.640625 L 7.261719 89.429688 L 7.027344 88.1875 L 6.792969 86.910156 L 7.574219 86.910156 C 8.003906 86.910156 8.863281 87.179688 9.488281 87.492188 L 10.621094 88.074219 L 11.011719 89.46875 L 11.402344 90.902344 L 10.894531 92.144531 C 10.582031 92.839844 10.191406 93.5 9.996094 93.617188 L 9.644531 93.847656 Z M 47.792969 82.800781 C 47.519531 81.792969 47.207031 79.894531 47.089844 78.574219 L 46.855469 76.171875 L 48.730469 75.511719 C 49.785156 75.164062 50.683594 74.96875 50.761719 75.046875 C 50.839844 75.085938 51.113281 76.949219 51.386719 79.117188 L 51.933594 83.070312 L 50.175781 83.808594 C 49.238281 84.234375 48.378906 84.582031 48.339844 84.582031 C 48.300781 84.582031 48.027344 83.769531 47.792969 82.800781 Z M 23.195312 82.21875 C 22.6875 81.558594 22.375 80.980469 22.453125 80.941406 C 22.492188 80.902344 24.25 80.007812 26.277344 79 C 28.308594 77.957031 32.449219 75.589844 35.453125 73.730469 C 38.460938 71.871094 41.234375 70.242188 41.585938 70.125 L 42.25 69.890625 L 42.71875 72.0625 L 43.226562 74.195312 L 42.445312 74.621094 C 42.054688 74.894531 40.492188 75.628906 38.96875 76.289062 C 37.484375 76.949219 33.542969 78.808594 30.222656 80.476562 C 26.902344 82.101562 24.171875 83.421875 24.132812 83.421875 C 24.132812 83.421875 23.703125 82.878906 23.195312 82.21875 Z M 57.710938 81.25 C 59.195312 80.511719 60.679688 79.933594 61.03125 79.933594 L 61.617188 79.972656 L 58.53125 81.289062 C 54.589844 82.996094 54.160156 82.996094 57.710938 81.25 Z M 52.441406 80.164062 L 52.011719 78.070312 L 52.128906 75.976562 L 52.285156 73.921875 L 52.832031 75.203125 C 53.457031 76.558594 53.535156 76.597656 54.941406 76.054688 L 55.953125 75.667969 L 55.953125 77.257812 L 56.734375 78.769531 L 57.515625 80.320312 L 55.328125 81.289062 C 54.121094 81.832031 53.066406 82.257812 52.988281 82.257812 C 52.949219 82.257812 52.675781 81.328125 52.441406 80.164062 Z M 59.117188 75.433594 L 57.789062 72.101562 L 58.335938 71.753906 C 58.648438 71.558594 58.960938 71.402344 59.078125 71.402344 C 59.195312 71.402344 59.859375 72.914062 60.5625 74.738281 L 61.8125 78.03125 L 61.617188 78.421875 C 61.460938 78.613281 61.148438 78.769531 60.914062 78.769531 L 60.445312 78.769531 Z M 61.578125 75.007812 L 60.132812 71.363281 L 60.484375 71.015625 C 60.757812 70.746094 67.863281 67.914062 68.253906 67.914062 C 68.332031 67.914062 68.644531 68.652344 68.957031 69.582031 C 69.269531 70.472656 69.894531 72.101562 70.324219 73.1875 L 71.144531 75.203125 L 67.082031 76.949219 L 63.023438 78.691406 Z M 43.734375 75.785156 C 43.226562 75.320312 43.460938 74.96875 44.398438 74.816406 L 45.371094 74.621094 L 45.566406 75.125 L 45.761719 75.589844 L 45.527344 75.824219 C 45.214844 76.132812 44.046875 76.132812 43.734375 75.785156 Z M 46.191406 74.777344 C 45.996094 74.3125 45.136719 72.140625 44.28125 69.929688 L 42.757812 65.9375 L 43.578125 65.628906 C 44.046875 65.433594 49.199219 63.535156 54.980469 61.402344 C 60.796875 59.269531 65.792969 57.410156 66.144531 57.253906 L 66.769531 57.023438 L 68.449219 61.519531 L 70.128906 65.976562 L 69.933594 66.171875 C 69.816406 66.285156 64.507812 68.457031 58.140625 70.976562 L 46.542969 75.589844 Z M 50.175781 70.976562 C 52.402344 70.125 54.355469 69.273438 54.550781 69.078125 L 54.902344 68.730469 L 53.847656 65.78125 C 53.222656 64.195312 52.636719 62.875 52.480469 62.875 C 52.363281 62.875 50.488281 63.574219 48.339844 64.386719 L 44.4375 65.898438 L 44.4375 68.808594 L 44.90625 68.960938 L 45.410156 69.15625 L 45.175781 69.542969 L 44.945312 69.890625 L 45.566406 70.589844 L 46.191406 71.289062 L 45.957031 71.945312 L 45.722656 72.566406 L 45.957031 72.566406 C 46.074219 72.566406 47.988281 71.871094 50.175781 70.976562 Z M 50.175781 70.976562 "
  />
  <path
    d="M 46.777344 70.976562 C 46.660156 70.785156 46.230469 69.699219 45.800781 68.535156 L 45.097656 66.441406 L 48.574219 65.203125 C 50.488281 64.503906 52.128906 64 52.207031 64.078125 C 52.519531 64.386719 53.964844 68.457031 53.847656 68.574219 C 53.769531 68.652344 52.207031 69.3125 50.332031 70.046875 L 46.972656 71.363281 Z M 53.496094 74.542969 L 53.300781 73.769531 L 53.847656 73.574219 L 54.394531 73.382812 L 54.394531 73.691406 C 54.394531 73.886719 54.511719 74.3125 54.628906 74.660156 L 54.863281 75.28125 L 53.691406 75.28125 Z M 40.726562 68.109375 C 40.492188 67.488281 40.21875 66.714844 40.140625 66.480469 L 39.984375 65.976562 L 41.117188 65.976562 L 41.898438 67.992188 L 41.546875 68.613281 L 41.15625 69.273438 Z M 38.578125 65.125 C 38.5 64.851562 38.148438 63.84375 37.796875 62.914062 L 37.210938 61.246094 L 37.40625 60.9375 C 37.523438 60.742188 38.382812 60.355469 39.359375 60.046875 L 41.117188 59.425781 L 41.117188 59.8125 C 41.117188 60.007812 40.84375 60.277344 40.53125 60.394531 C 40.179688 60.550781 39.75 60.976562 39.515625 61.402344 L 39.125 62.140625 L 39.828125 63.070312 L 39.75 64.195312 L 39.671875 65.355469 L 39.242188 65.511719 L 38.773438 65.667969 Z M 41.585938 64.738281 L 41.703125 63.921875 L 46.386719 62.21875 C 48.964844 61.285156 52.324219 60.085938 53.808594 59.542969 C 55.328125 59 58.023438 58.03125 59.859375 57.410156 C 61.695312 56.789062 63.492188 56.09375 63.921875 55.859375 L 64.664062 55.433594 L 64.976562 55.9375 L 65.285156 56.480469 L 65.011719 56.75 C 64.78125 56.984375 60.09375 58.726562 45.488281 64.039062 L 41.46875 65.511719 Z M 41.117188 62.140625 L 41.117188 61.054688 L 46.894531 59 C 50.058594 57.875 54.941406 56.128906 57.789062 55.121094 L 62.945312 53.300781 L 63.609375 54 C 64 54.425781 64.195312 54.8125 64.117188 54.890625 C 64.039062 55.007812 60.523438 56.285156 56.34375 57.757812 C 52.167969 59.269531 47.011719 61.09375 44.945312 61.867188 L 41.117188 63.226562 Z M 69.269531 61.285156 C 68.800781 59.929688 68.917969 59.582031 69.738281 59.890625 L 70.285156 60.085938 L 70.519531 60.898438 L 70.714844 61.675781 L 69.699219 62.527344 Z M 71.964844 61.207031 L 71.964844 60.316406 L 71.378906 59.542969 L 70.832031 58.726562 L 71.066406 58.457031 C 71.183594 58.339844 71.574219 58.222656 71.847656 58.222656 L 72.394531 58.222656 L 72.980469 59.621094 L 73.566406 61.015625 L 73.175781 62.101562 L 71.964844 62.101562 Z M 73.683594 59.425781 L 73.253906 58.339844 L 77.15625 56.90625 L 81.0625 55.472656 L 81.6875 55.589844 L 82.3125 55.703125 L 82.429688 56.519531 L 82.546875 57.332031 L 82.039062 57.566406 C 80.242188 58.339844 74.503906 60.550781 74.308594 60.550781 C 74.191406 60.550781 73.917969 60.046875 73.683594 59.425781 Z M 83.09375 59.230469 L 81.53125 58.726562 L 83.171875 58.457031 L 84.773438 58.183594 L 85.472656 57.410156 L 86.136719 56.671875 L 87.582031 56.671875 L 88.011719 55.742188 L 88.441406 54.851562 L 89.769531 54.230469 L 91.097656 53.574219 L 91.683594 53.804688 L 92.269531 54.039062 L 92.269531 55.9375 L 91.644531 57.175781 C 91.292969 57.875 90.746094 58.726562 90.394531 59.117188 L 89.808594 59.773438 L 87.230469 59.734375 L 84.65625 59.695312 Z M 83.09375 59.230469 "
  />
  <path
    d="M 68.253906 59 C 67.902344 58.417969 67.785156 58.496094 71.730469 56.90625 C 75.320312 55.472656 76.453125 55.238281 76.804688 55.859375 L 77.039062 56.207031 L 75.007812 56.90625 L 72.941406 57.605469 L 71.925781 57.488281 L 70.910156 57.410156 L 68.488281 59.425781 Z M 45.410156 57.796875 L 45.410156 57.023438 L 45.800781 57.253906 C 46.035156 57.371094 46.191406 57.757812 46.191406 58.070312 L 46.191406 58.613281 L 45.410156 58.613281 Z M 46.972656 57.875 L 46.972656 57.566406 L 52.167969 55.742188 C 54.980469 54.734375 57.671875 53.804688 58.101562 53.6875 L 58.882812 53.457031 L 58.492188 53.882812 C 58.296875 54.078125 56.070312 54.96875 53.613281 55.820312 C 51.152344 56.671875 48.652344 57.566406 48.066406 57.796875 L 46.972656 58.222656 Z M 67.433594 56.90625 L 67.199219 56.285156 L 66.261719 56.285156 L 65.597656 55.121094 L 64.898438 53.960938 L 65.792969 53.609375 C 66.300781 53.457031 73.566406 50.820312 81.921875 47.835938 C 90.316406 44.851562 97.460938 42.292969 97.8125 42.136719 L 98.515625 41.867188 L 99.257812 43.53125 L 100 45.238281 L 99.726562 45.507812 C 99.53125 45.742188 69.894531 56.90625 68.371094 57.332031 L 67.667969 57.527344 Z M 84.070312 56.789062 L 84.070312 56.054688 L 83.484375 55.277344 C 83.171875 54.890625 82.898438 54.425781 82.898438 54.269531 L 82.898438 53.960938 L 84.421875 53.960938 L 84.851562 54.773438 L 85.277344 55.550781 L 85.042969 57.175781 L 84.578125 57.371094 L 84.070312 57.527344 Z M 85.628906 55.121094 L 85.628906 54.113281 C 85.589844 53.960938 87.308594 53.183594 89.378906 52.332031 L 93.167969 50.820312 L 93.519531 51.324219 C 93.675781 51.59375 93.832031 52.136719 93.832031 52.527344 L 93.832031 53.222656 L 93.246094 53.417969 L 92.660156 53.648438 L 92.074219 53.183594 L 91.449219 52.679688 L 89.886719 53.144531 L 88.285156 53.609375 L 87.660156 54.773438 L 86.996094 55.898438 L 85.628906 55.898438 Z M 63.570312 53.222656 L 63.335938 52.796875 L 61.65625 52.796875 L 62.046875 52.488281 C 62.476562 52.0625 90.355469 42.332031 91.019531 42.332031 L 91.488281 42.332031 L 91.488281 43.804688 L 90.433594 44.074219 C 89.613281 44.269531 67.941406 52.023438 64.507812 53.378906 L 63.84375 53.609375 Z M 92.660156 42.332031 C 92.425781 41.941406 92.269531 41.324219 92.269531 41.011719 L 92.269531 40.390625 L 93.753906 40.390625 L 94.535156 42.640625 L 93.792969 42.835938 L 93.050781 43.027344 Z M 92.660156 42.332031 "
  />
</svg>
