<svg id="root" xmlns="http://www.w3.org/2000/svg"
  style="transform:matrix(1,0,0,1,0,0);transform-origin:50% 50%;cursor:move;transition:transform 200ms ease-in-out 0s"
  width="768" height="441" viewBox="0 0 7680 4410">
  <g>
    <path
      d="M2680 4397c0-7 6-21 14-32 7-11 14-24 15-30 0-5 21-38 46-72 79-111 143-252 200-443l34-116 52-114c28-63 62-133 75-155l23-40 31-14 32-13 5-15 5-14-5-5-5-6-20 20-19 19-58 8-58 7-8-13-8-14-56 28-56 27-24-27c-13-16-25-30-25-33s25-18 55-33l55-27v-28l-86-131-86-130-19-6-18-6-29-53-29-53 37-43 37-43-15-41-14-41 7-65 7-64 19-25c10-13 19-29 19-36 0-23 81-168 125-225 61-79 99-145 129-226l26-70 39-37 39-37 72-6 72-7 3-11c2-6 6-27 9-46l6-35 50-35c27-19 50-38 50-41 0-4-9-18-21-33l-20-26h-47l-10-13c-6-6-20-37-32-67l-22-55-4-70c-2-38-3-88-2-110 3-64 0-108-7-141l-7-31 27-22 28-21 13 17 13 18 33-32 33-32 29-11 29-11 5 6 5 5h-24l5 9 6 9 49 7 49 7 24-15 23-15 54-7 54-7-7 11c-4 6-13 11-20 11s-20 8-30 19l-17 18 16 13 16 14 36-13 35-13 27 20c15 11 50 31 79 46l51 26h127l22 16c12 8 26 23 31 33l10 17h-21l-20-1-11 17-11 16 13 16 13 16h74l54 56 55 55-62-7-63-7v10c0 25 85 83 142 97l26 6 32 26c17 15 45 47 62 71l31 45-46-27-46-26-22 3-22 3-4 10-3 10 27 29 27 29-50-6-50-6-97-36-98-37-24 6-24 6-7 22-7 22 26 22 25 21 39 8 38 7 101 44 102 44h97l50-30c28-16 97-52 155-80s119-62 137-76l33-25v156l-20 33-20 32-24 11-24 11-30 68-30 67-53 26-53 27h-48c-26 0-48 2-48 4 0 3 5 17 10 32l10 26-10 13-11 13-42 7c-23 4-58 16-79 26l-36 18-4 13-5 13-67-62c-37-35-72-63-77-63h-11l7 36 6 36 44 67 43 66 5 42 5 42-29-6-29-5-32 24c-18 14-43 28-55 32l-21 7-23-40-23-41-5 6c-3 3-12 28-21 57l-16 52-59 22-60 22-27-5-27-5-31 16-31 16 7 21 6 20-13 9c-8 5-20 9-26 9h-13v-15c0-8-3-15-7-15-13 0-117 41-126 49l-8 8 29 74 28 74 12-2 12-3 15 36c8 20 15 40 15 44 0 6-239 162-296 193l-10 6 7-70c9-78 20-118 56-197l24-53-3-47-3-47-37-17-37-17-56-101-56-100-6-35c-3-20-9-37-12-40l-7-4-60 58c-34 32-69 71-78 87l-18 30-28 16-28 16 1 49 1 48-17 34-16 33 19 5 20 5 5 22c3 11 14 68 25 126 12 58 25 121 31 142l9 36 45 26 45 27 10 19 11 20-16 6-15 6v28l46 44 45 44-13 5-13 4 7 8 7 7 17-6 16-6-5-20-5-20 203-100c112-55 215-102 230-106l25-6v32h60v26c0 14 7 53 15 85l16 60-3 37-3 37 22 3 23 3 126-56 126-57 9 9c4 4 26 54 49 111l41 102 23 93c13 50 45 209 71 352l47 260 29 89c16 49 27 91 25 94-3 2 1 20 9 38l14 34h-177l-12-34c-6-19-15-36-20-38l-10-3-111-225-111-225-58-150c-32-82-80-199-108-260l-49-110-34 3-34 4-9 16c-5 10-59 69-120 132l-111 115-101 135c-148 199-274 374-338 470-31 47-70 104-87 128l-30 42h-209v-13zm1116-2606-6-8-36-6-37-6-10 6-11 6 20 8c10 4 34 8 52 8l33 1-5-9z" />
    <path
      d="M2855 3693c-3-20-23-75-44-124l-38-87-43-64c-23-34-60-82-83-105l-40-42 6-15c10-25 23-19 65 32 99 119 212 342 212 419v23h-28l-7-37zm-32-221-30-57-6-32-6-33h20c11 0 33 7 49 15l29 15 10 36 10 37-13 32c-8 18-18 35-23 38l-9 6-31-57zm1008-228c-7-26-15-75-18-109l-6-62 48-17c27-9 50-14 52-12 2 1 9 49 16 105l14 102-45 19c-24 11-46 20-47 20s-8-21-14-46zm-630-15c-13-17-21-32-19-33 1-1 46-24 98-50 52-27 158-88 235-136s148-90 157-93l17-6 12 56 13 55-20 11c-10 7-50 26-89 43-38 17-139 65-224 108-85 42-155 76-156 76 0 0-11-14-24-31zm884-25c38-19 76-34 85-34l15 1-79 34c-101 44-112 44-21-1zm-135-28-11-54 3-54 4-53 14 33c16 35 18 36 54 22l26-10v41l20 39 20 40-56 25c-31 14-58 25-60 25-1 0-8-24-14-54zm171-122-34-86 14-9c8-5 16-9 19-9s20 39 38 86l32 85-5 10c-4 5-12 9-18 9h-12l-34-86zm63-11-37-94 9-9c7-7 189-80 199-80 2 0 10 19 18 43 8 23 24 65 35 93l21 52-104 45-104 45-37-95zm-457 20c-13-12-7-21 17-25l25-5 5 13 5 12-6 6c-8 8-38 8-46-1zm63-26c-5-12-27-68-49-125l-39-103 21-8c12-5 144-54 292-109 149-55 277-103 286-107l16-6 43 116 43 115-5 5c-3 3-139 59-302 124l-297 119-9-21zm102-98c57-22 107-44 112-49l9-9-27-76c-16-41-31-75-35-75-3 0-51 18-106 39l-100 39v75l12 4 13 5-6 10-6 9 16 18 16 18-6 17-6 16h6c3 0 52-18 108-41z" />
    <path
      d="M3805 2939c-3-5-14-33-25-63l-18-54 89-32c49-18 91-31 93-29 8 8 45 113 42 116-2 2-42 19-90 38l-86 34-5-10zm172 92-5-20 14-5 14-5v8c0 5 3 16 6 25l6 16h-30l-5-19zm-327-166c-6-16-13-36-15-42l-4-13h29l10 26 10 26-9 16-10 17-11-30zm-55-77c-2-7-11-33-20-57l-15-43 5-8c3-5 25-15 50-23l45-16v10c0 5-7 12-15 15-9 4-20 15-26 26l-10 19 9 12 9 12-2 29-2 30-11 4-12 4-5-14zm77-10 3-21 120-44c66-24 152-55 190-69 39-14 108-39 155-55s93-34 104-40l19-11 8 13 8 14-7 7c-6 6-126 51-500 188l-103 38 3-20zm-12-67v-28l148-53c81-29 206-74 279-100l132-47 17 18c10 11 15 21 13 23-2 3-92 36-199 74-107 39-239 86-292 106l-98 35v-28zm721-22c-12-35-9-44 12-36l14 5 6 21 5 20-13 11-13 11-11-32zm69-2v-23l-15-20-14-21 6-7c3-3 13-6 20-6h14l15 36 15 36-5 14-5 14h-31v-23zm44-46-11-28 100-37 100-37 16 3 16 3 3 21 3 21-13 6c-46 20-193 77-198 77-3 0-10-13-16-29zm241-5-40-13 42-7 41-7 18-20 17-19h37l11-24 11-23 34-16 34-17 15 6 15 6v49l-16 32c-9 18-23 40-32 50l-15 17-66-1-66-1-40-12z" />
    <path
      d="M4355 2630c-9-15-12-13 89-54 92-37 121-43 130-27l6 9-52 18-53 18-26-3-26-2-31 26-31 26-6-11zm-585-31v-20l10 6c6 3 10 13 10 21v14h-20v-21zm40 2v-8l133-47c72-26 141-50 152-53l20-6-10 11c-5 5-62 28-125 50s-127 45-142 51l-28 11v-9zm524-25-6-16h-24l-17-30-18-30 23-9c13-4 199-72 413-149 215-77 398-143 407-147l18-7 19 43 19 44-7 7c-5 6-764 294-803 305l-18 5-6-16zm426-3v-19l-15-20c-8-10-15-22-15-26v-8h39l11 21 11 20-3 21-3 21-12 5-13 4v-19zm40-43v-26c-1-4 43-24 96-46l97-39 9 13c4 7 8 21 8 31v18l-15 5-15 6-15-12-16-13-40 12-41 12-16 30-17 29h-35v-20zm-565-49-6-11h-43l10-8c11-11 725-262 742-262h12v38l-27 7c-21 5-576 205-664 240l-17 6-7-10zm745-281c-6-10-10-26-10-34v-16h38l10 29 10 29-19 5-19 5-10-18z" />
  </g>
</svg>