<svg xmlns="http://www.w3.org/2000/svg" id="root" viewBox="0 0 99 59">
  <g>
    <path
      style="stroke: none; fill-rule: nonzero; fill: rgb(96.470588%, 94.901961%, 83.529412%); fill-opacity: 1"
      d="M 70.71875 58.582031 C 70.183594 57.375 69.730469 55.5 69.378906 53.101562 C 69.078125 51.015625 69.039062 46.453125 69.324219 46.113281 C 69.625 45.746094 70.953125 45.824219 72.96875 46.347656 C 75.023438 46.871094 75.230469 46.9375 77.988281 47.910156 C 83.714844 49.925781 88.371094 51.003906 92.363281 51.199219 C 93.261719 51.238281 94.40625 51.210938 94.902344 51.148438 C 95.410156 51.082031 96.421875 50.921875 97.175781 50.820312 C 97.933594 50.699219 98.648438 50.609375 98.777344 50.609375 C 98.984375 50.609375 99 50.898438 99 54.804688 L 99 59 L 70.914062 59 Z M 76.390625 54.058594 C 76.625 53.847656 76.625 53.835938 76.335938 53.53125 C 76.078125 53.257812 76.039062 53.246094 75.816406 53.453125 C 75.53125 53.714844 75.53125 53.808594 75.789062 54.070312 C 76.039062 54.332031 76.089844 54.332031 76.390625 54.058594 Z M 96.582031 53.695312 C 96.582031 53.480469 96.410156 53.304688 96.195312 53.304688 C 95.980469 53.304688 95.808594 53.480469 95.808594 53.695312 C 95.808594 53.910156 95.980469 54.085938 96.195312 54.085938 C 96.410156 54.085938 96.582031 53.910156 96.582031 53.695312 Z M 79.601562 51.1875 C 79.484375 51.042969 79.40625 51.027344 79.277344 51.148438 C 79.132812 51.265625 79.121094 51.34375 79.238281 51.472656 C 79.355469 51.617188 79.433594 51.632812 79.5625 51.515625 C 79.707031 51.394531 79.71875 51.316406 79.601562 51.1875 Z M 58.019531 57.074219 C 57.773438 56.980469 57.460938 56.914062 57.332031 56.914062 C 57.203125 56.902344 57.136719 56.851562 57.175781 56.769531 C 57.214844 56.691406 57.109375 56.640625 56.929688 56.640625 C 56.382812 56.640625 55.394531 56.246094 54.832031 55.800781 C 54.546875 55.578125 54.300781 55.355469 54.273438 55.304688 C 54.210938 55.144531 53.859375 55.171875 53.859375 55.328125 C 53.859375 55.40625 53.804688 55.460938 53.726562 55.460938 C 53.46875 55.460938 53.597656 54.59375 53.949219 54.082031 C 54.480469 53.257812 55.40625 52.183594 56.265625 51.371094 C 57.941406 49.796875 60.714844 47.988281 61.46875 47.988281 L 61.921875 47.988281 L 61.921875 52.574219 C 61.921875 55.261719 61.871094 57.164062 61.804688 57.164062 C 61.742188 57.164062 61.664062 57.097656 61.636719 57.019531 C 61.609375 56.929688 61.402344 56.929688 60.949219 57.035156 C 60.039062 57.242188 58.554688 57.257812 58.019531 57.074219 Z M 58.019531 57.074219 "
    />
    <path
      style="stroke: none; fill-rule: nonzero; fill: rgb(96.470588%, 94.901961%, 83.529412%); fill-opacity: 1"
      d="M 52.726562 53.597656 C 52.753906 53.507812 52.675781 53.285156 52.542969 53.113281 C 52.402344 52.941406 52.296875 52.667969 52.296875 52.511719 C 52.296875 52.195312 51.917969 51.210938 51.90625 51.5 C 51.90625 51.839844 51.644531 51.632812 51.644531 51.277344 C 51.644531 50.976562 51.855469 50.699219 52.699219 49.902344 C 53.285156 49.335938 54 48.773438 54.300781 48.617188 C 54.585938 48.472656 54.976562 48.234375 55.160156 48.105469 C 56.054688 47.4375 59.921875 46.152344 61.027344 46.152344 L 61.535156 46.152344 L 61.535156 46.742188 C 61.535156 47.070312 61.480469 47.332031 61.417969 47.332031 C 61.234375 47.332031 58.136719 49.089844 57.316406 49.652344 C 55.5625 50.882812 53.820312 52.589844 53.429688 53.453125 C 53.285156 53.78125 52.609375 53.898438 52.726562 53.597656 Z M 52.726562 53.597656 "
    />
    <path
      style="stroke: none; fill-rule: nonzero; fill: rgb(96.470588%, 94.901961%, 83.529412%); fill-opacity: 1"
      d="M 51.515625 49.167969 C 51.515625 49.101562 51.582031 49.035156 51.644531 49.035156 C 51.722656 49.035156 51.777344 48.878906 51.777344 48.683594 C 51.777344 48.289062 51.984375 47.566406 52.246094 47.03125 C 52.347656 46.820312 52.425781 46.597656 52.425781 46.519531 C 52.425781 46.007812 53.898438 44.304688 54.820312 43.738281 C 55.042969 43.609375 55.25 43.449219 55.289062 43.386719 C 55.328125 43.332031 55.707031 43.164062 56.132812 43.003906 C 57.332031 42.558594 57.371094 42.480469 57.332031 40.527344 L 57.304688 38.875 L 56.523438 38.601562 C 53.636719 37.601562 51.609375 34.691406 51.632812 31.558594 C 51.632812 30.929688 51.699219 30.183594 51.789062 29.921875 C 52.335938 28.203125 52.855469 27.246094 53.726562 26.394531 C 54.429688 25.699219 56.082031 24.6875 56.695312 24.570312 C 56.929688 24.519531 57.164062 24.386719 57.226562 24.269531 C 57.371094 23.996094 57.394531 21.097656 57.253906 20.875 C 57.203125 20.769531 56.667969 20.492188 56.09375 20.257812 C 55.003906 19.8125 54.703125 19.613281 53.804688 18.761719 C 52.816406 17.832031 52.152344 16.808594 51.894531 15.800781 C 51.839844 15.589844 51.722656 15.171875 51.660156 14.882812 C 51.414062 13.9375 51.476562 12.996094 51.90625 11.289062 C 52.152344 10.28125 53.027344 8.902344 53.988281 7.984375 C 54.613281 7.394531 56.304688 6.414062 57.019531 6.242188 L 57.371094 6.164062 L 57.371094 0 L 60.882812 0 L 60.882812 2.925781 C 60.882812 4.523438 60.933594 5.902344 60.988281 5.980469 C 61.039062 6.058594 61.636719 6.386719 62.3125 6.726562 C 63.199219 7.160156 63.769531 7.554688 64.332031 8.105469 C 65.148438 8.902344 65.566406 9.414062 65.566406 9.613281 C 65.566406 9.675781 65.671875 9.886719 65.8125 10.070312 C 65.941406 10.265625 66.191406 10.910156 66.347656 11.511719 C 66.582031 12.402344 66.671875 12.5625 66.816406 12.445312 C 66.957031 12.324219 66.996094 12.351562 66.996094 12.628906 C 66.996094 12.8125 66.933594 13.007812 66.867188 13.046875 C 66.789062 13.097656 66.425781 13.585938 66.058594 14.136719 C 65.695312 14.683594 64.953125 15.746094 64.433594 16.496094 C 63.902344 17.230469 63.316406 18.132812 63.132812 18.488281 C 62.9375 18.867188 62.703125 19.144531 62.585938 19.144531 C 62.105469 19.144531 60.921875 19.695312 60.597656 20.0625 L 60.230469 20.453125 L 60.230469 24.769531 L 60.648438 25.253906 C 60.882812 25.515625 61.261719 25.816406 61.496094 25.921875 L 61.921875 26.09375 L 61.9375 27.3125 C 61.988281 31.046875 61.882812 38.757812 61.78125 38.875 C 61.703125 38.941406 61.664062 38.902344 61.664062 38.769531 C 61.664062 38.574219 61.625 38.574219 61.402344 38.703125 C 61.261719 38.796875 61.117188 38.953125 61.078125 39.070312 C 60.921875 39.453125 60.871094 42.203125 61 42.46875 C 61.167969 42.78125 61.664062 42.925781 61.664062 42.652344 C 61.664062 42.546875 61.726562 42.507812 61.792969 42.546875 C 61.871094 42.597656 61.921875 43.265625 61.921875 44.132812 C 61.921875 45.601562 61.921875 45.628906 61.636719 45.628906 C 61.078125 45.628906 57.929688 46.519531 56.539062 47.070312 C 55.015625 47.671875 53.390625 48.484375 52.753906 48.984375 C 52.335938 49.296875 51.515625 49.414062 51.515625 49.167969 Z M 86.902344 48.773438 C 86.511719 48.722656 85.742188 48.601562 85.210938 48.523438 C 83.269531 48.222656 79.8125 47.226562 78.574219 46.609375 C 77.898438 46.269531 74.828125 45.429688 73.761719 45.300781 C 72.65625 45.167969 72.589844 45.128906 72.589844 44.683594 C 72.589844 43.988281 72.800781 43.9375 75.386719 43.9375 C 77.847656 43.9375 78.5625 44 81.761719 44.445312 C 84.234375 44.800781 90.515625 44.957031 92.613281 44.722656 C 94.601562 44.5 97.074219 43.960938 98.128906 43.542969 C 99 43.203125 99 43.203125 99 45.273438 C 99 47.054688 98.984375 47.175781 98.710938 47.421875 C 98.21875 47.882812 96.578125 48.394531 94.707031 48.667969 C 93.601562 48.839844 87.8125 48.90625 86.902344 48.773438 Z M 78.378906 45.953125 C 78.171875 45.851562 77.898438 45.769531 77.792969 45.769531 C 77.691406 45.769531 77.808594 45.863281 78.054688 45.953125 C 78.652344 46.191406 78.886719 46.175781 78.378906 45.953125 Z M 69.949219 43.570312 C 69.480469 43.109375 70.574219 39.308594 71.964844 36.515625 C 73.125 34.195312 74.933594 31.453125 76.0625 30.3125 C 76.519531 29.867188 76.882812 29.410156 76.882812 29.316406 C 76.882812 29.210938 77.195312 28.898438 77.574219 28.621094 C 78.691406 27.808594 79.863281 26.824219 79.863281 26.683594 C 79.875 26.617188 80.238281 26.316406 80.683594 26.027344 C 82.398438 24.886719 83.128906 24.636719 83.128906 25.1875 L 83.128906 25.460938 L 83.558594 25.199219 C 85.675781 23.890625 89.90625 22.261719 91.972656 21.960938 C 92.300781 21.910156 92.664062 21.84375 92.792969 21.816406 C 93.027344 21.738281 93.09375 21.304688 92.882812 21.175781 C 92.820312 21.136719 92.753906 20.964844 92.753906 20.808594 C 92.753906 20.636719 92.636719 20.164062 92.480469 19.746094 C 92.3125 19.261719 92.195312 18.472656 92.144531 17.636719 L 92.066406 16.296875 L 91.570312 16.089844 C 91.296875 15.96875 90.828125 15.8125 90.53125 15.746094 C 89.90625 15.601562 88.890625 14.949219 88.058594 14.136719 C 87.421875 13.519531 86.769531 12.585938 86.769531 12.273438 C 86.769531 12.167969 86.71875 12.0625 86.667969 12.039062 C 86.457031 11.957031 86.144531 10.082031 86.210938 9.269531 C 86.277344 8.328125 86.417969 7.789062 86.847656 6.925781 C 87.121094 6.347656 87.132812 6.28125 86.941406 6.085938 C 86.785156 5.941406 86.574219 5.886719 86.222656 5.941406 C 85.289062 6.070312 83.113281 5.351562 82.191406 4.617188 C 81.230469 3.867188 80.371094 2.78125 80.214844 2.164062 C 80.160156 1.953125 80.070312 1.746094 80.019531 1.707031 C 79.785156 1.535156 79.355469 0.65625 79.355469 0.34375 L 79.355469 0 L 99 0 L 99 40.1875 L 98.6875 40.472656 C 98.023438 41.117188 95.550781 42.023438 93.015625 42.558594 C 90.515625 43.082031 88.917969 43.1875 85.078125 43.058594 C 79.09375 42.859375 75.75 42.925781 73.046875 43.320312 C 70.601562 43.671875 70.09375 43.710938 69.949219 43.570312 Z M 93.332031 40.578125 C 93.332031 40.367188 93.164062 40.195312 92.953125 40.195312 C 92.742188 40.195312 92.570312 40.367188 92.570312 40.578125 C 92.570312 40.792969 92.742188 40.964844 92.953125 40.964844 C 93.164062 40.964844 93.332031 40.792969 93.332031 40.578125 Z M 79.601562 39.648438 C 79.484375 39.503906 79.40625 39.492188 79.277344 39.609375 C 79.132812 39.726562 79.121094 39.804688 79.238281 39.9375 C 79.355469 40.082031 79.433594 40.09375 79.5625 39.976562 C 79.707031 39.859375 79.71875 39.78125 79.601562 39.648438 Z M 49.261719 25.324219 C 49.261719 25.847656 48.839844 26.269531 48.320312 26.269531 C 47.800781 26.269531 47.382812 25.847656 47.382812 25.324219 C 47.382812 24.800781 47.800781 24.375 48.320312 24.375 C 48.839844 24.375 49.261719 24.800781 49.261719 25.324219 Z M 41.976562 21.820312 C 41.976562 22.34375 41.554688 22.769531 41.03125 22.769531 C 40.511719 22.769531 40.089844 22.34375 40.089844 21.820312 C 40.089844 21.292969 40.511719 20.867188 41.03125 20.867188 C 41.554688 20.867188 41.976562 21.292969 41.976562 21.820312 Z M 40.394531 22.488281 "
    />
    <path
      style="stroke: none; fill-rule: nonzero; fill: rgb(96.470588%, 94.901961%, 83.529412%); fill-opacity: 1"
      d="M 53.585938 21.851562 C 53.585938 22.394531 53.152344 22.832031 52.617188 22.832031 C 52.078125 22.832031 51.644531 22.394531 51.644531 21.851562 C 51.644531 21.3125 52.078125 20.875 52.617188 20.875 C 53.152344 20.875 53.585938 21.3125 53.585938 21.851562 Z M 37.746094 21.191406 C 37.746094 21.621094 37.402344 21.96875 36.976562 21.96875 C 36.550781 21.96875 36.207031 21.621094 36.207031 21.191406 C 36.207031 20.765625 36.550781 20.417969 36.976562 20.417969 C 37.402344 20.417969 37.746094 20.765625 37.746094 21.191406 Z M 39.285156 16.679688 C 39.285156 17.242188 38.835938 17.695312 38.28125 17.695312 C 37.726562 17.695312 37.273438 17.242188 37.273438 16.679688 C 37.273438 16.121094 37.726562 15.667969 38.28125 15.667969 C 38.835938 15.667969 39.285156 16.121094 39.285156 16.679688 Z M 47.683594 16.503906 C 47.683594 17.039062 47.25 17.472656 46.71875 17.472656 C 46.1875 17.472656 45.757812 17.039062 45.757812 16.503906 C 45.757812 15.964844 46.1875 15.53125 46.71875 15.53125 C 47.25 15.53125 47.683594 15.964844 47.683594 16.503906 Z M 84.4375 13.292969 C 84.4375 15.269531 82.847656 16.871094 80.886719 16.871094 C 78.925781 16.871094 77.335938 15.269531 77.335938 13.292969 C 77.335938 11.316406 78.925781 9.714844 80.886719 9.714844 C 82.847656 9.714844 84.4375 11.316406 84.4375 13.292969 Z M 46.109375 8.960938 C 46.109375 9.351562 45.792969 9.667969 45.40625 9.667969 C 45.019531 9.667969 44.707031 9.351562 44.707031 8.960938 C 44.707031 8.570312 45.019531 8.253906 45.40625 8.253906 C 45.792969 8.253906 46.109375 8.570312 46.109375 8.960938 Z M 38.921875 7.214844 C 38.921875 7.738281 38.503906 8.160156 37.984375 8.160156 C 37.46875 8.160156 37.046875 7.738281 37.046875 7.214844 C 37.046875 6.691406 37.46875 6.269531 37.984375 6.269531 C 38.503906 6.269531 38.921875 6.691406 38.921875 7.214844 Z M 66.828125 6.871094 C 66.789062 6.832031 66.789062 6.699219 66.828125 6.597656 C 66.878906 6.476562 66.828125 6.320312 66.710938 6.242188 C 65.917969 5.640625 65.851562 4.460938 66.566406 3.738281 C 66.683594 3.605469 66.789062 3.332031 66.789062 3.09375 C 66.800781 2.6875 66.800781 2.6875 67.582031 2.648438 C 68.675781 2.597656 69.441406 3.003906 69.714844 3.75 C 69.820312 4.050781 69.859375 4.40625 69.808594 4.539062 C 69.714844 4.746094 69.675781 4.707031 69.507812 4.300781 C 69.402344 4.027344 69.261719 3.804688 69.195312 3.804688 C 69.128906 3.804688 69.167969 3.949219 69.273438 4.117188 C 69.390625 4.300781 69.496094 4.617188 69.496094 4.839844 C 69.507812 5.257812 69.652344 5.375 69.78125 5.089844 C 69.832031 4.996094 69.832031 5.152344 69.792969 5.429688 C 69.730469 6.007812 69.324219 6.503906 68.726562 6.765625 C 68.3125 6.949219 66.984375 7.015625 66.828125 6.871094 Z M 78.535156 3.96875 C 78.535156 5.238281 77.511719 6.269531 76.25 6.269531 C 74.992188 6.269531 73.96875 5.238281 73.96875 3.96875 C 73.96875 2.699219 74.992188 1.667969 76.25 1.667969 C 77.511719 1.667969 78.535156 2.699219 78.535156 3.96875 Z M 33.199219 4.53125 C 33.199219 5.039062 32.792969 5.453125 32.289062 5.453125 C 31.785156 5.453125 31.375 5.039062 31.375 4.53125 C 31.375 4.023438 31.785156 3.613281 32.289062 3.613281 C 32.792969 3.613281 33.199219 4.023438 33.199219 4.53125 Z M 48.046875 4.117188 C 48.046875 4.613281 47.648438 5.015625 47.15625 5.015625 C 46.664062 5.015625 46.265625 4.613281 46.265625 4.117188 C 46.265625 3.617188 46.664062 3.214844 47.15625 3.214844 C 47.648438 3.214844 48.046875 3.617188 48.046875 4.117188 Z M 51.644531 3.660156 C 50.695312 3.542969 49.863281 3.042969 49.460938 2.363281 C 49.019531 1.601562 48.785156 0.957031 48.785156 0.433594 L 48.785156 0 L 55.289062 0 L 55.367188 0.34375 C 55.511719 0.933594 55.054688 2.097656 54.429688 2.714844 C 53.558594 3.566406 52.832031 3.816406 51.644531 3.660156 Z M 40.785156 2.269531 C 40.015625 2.125 39.496094 1.222656 39.703125 0.433594 L 39.820312 0 L 42.421875 0 L 42.488281 0.394531 C 42.59375 0.867188 42.59375 0.839844 42.5 1.300781 C 42.382812 1.902344 41.488281 2.402344 40.785156 2.269531 Z M 40.785156 2.269531 "
    />
    <path
      style="stroke: none; fill-rule: nonzero; fill: rgb(93.333333%, 93.333333%, 74.901961%); fill-opacity: 1"
      d="M 16.964844 58.515625 C 17.328125 56.46875 17.109375 54.570312 16.183594 51.789062 C 15.402344 49.429688 12.800781 44.289062 12.191406 43.894531 C 12.113281 43.84375 9.574219 43.792969 6.558594 43.792969 L 1.082031 43.792969 L 0.730469 44.121094 C 0.0546875 44.75 -0.0234375 44.628906 0.0390625 42.847656 C 0.078125 41.523438 0.144531 41.0625 0.417969 40.316406 C 1.171875 38.234375 1.277344 37.734375 1.394531 35.726562 C 1.445312 34.652344 1.484375 33.710938 1.472656 33.628906 C 1.445312 33.566406 1.328125 32.882812 1.183594 32.121094 C 0.832031 30.183594 0.574219 29.410156 0.261719 29.332031 C 0.015625 29.265625 0 29.148438 0 27.402344 C 0 25.265625 0.117188 24.953125 1.09375 24.503906 C 1.589844 24.28125 2.03125 24.257812 6.582031 24.257812 L 11.527344 24.257812 L 12.203125 24.597656 C 13.398438 25.199219 14.050781 26.300781 14.050781 27.730469 C 14.050781 28.515625 14.011719 28.636719 13.671875 28.988281 C 13.464844 29.199219 13.152344 29.371094 12.984375 29.371094 C 12.710938 29.371094 12.644531 29.472656 12.4375 30.328125 C 11.710938 33.160156 11.578125 34.507812 11.851562 36.371094 C 11.929688 36.867188 11.957031 37.433594 11.917969 37.640625 C 11.878906 37.851562 11.90625 38.050781 11.96875 38.089844 C 12.035156 38.128906 12.191406 38.507812 12.308594 38.914062 C 12.410156 39.320312 12.660156 40.082031 12.839844 40.578125 C 13.023438 41.089844 13.207031 41.707031 13.246094 41.957031 C 13.269531 42.203125 13.414062 42.492188 13.554688 42.585938 C 13.6875 42.675781 13.945312 43.03125 14.128906 43.371094 C 14.3125 43.710938 14.664062 44.34375 14.921875 44.773438 C 16.351562 47.214844 17.328125 49.375 18.082031 51.878906 C 18.566406 53.441406 18.734375 54.699219 18.734375 56.746094 C 18.734375 58.84375 18.65625 59 17.601562 59 L 16.875 59 Z M 11.28125 41.773438 C 11.304688 41.757812 11.175781 41.300781 11.007812 40.761719 C 10.835938 40.226562 10.65625 39.636719 10.617188 39.4375 L 10.539062 39.070312 L 6.570312 39.070312 C 3.136719 39.070312 2.601562 39.097656 2.601562 39.269531 C 2.601562 39.375 2.433594 39.988281 2.226562 40.644531 L 1.847656 41.824219 L 4.867188 41.851562 C 7.574219 41.890625 11.203125 41.839844 11.28125 41.773438 Z M 3.683594 37.011719 C 3.722656 36.949219 3.785156 36.398438 3.839844 35.769531 L 3.929688 34.613281 L 3.527344 34.613281 C 3.148438 34.613281 3.125 34.652344 3.125 35.058594 C 3.125 35.296875 3.085938 35.859375 3.046875 36.304688 C 2.953125 37.105469 2.953125 37.105469 3.292969 37.105469 C 3.472656 37.105469 3.65625 37.066406 3.683594 37.011719 Z M 7.652344 35.898438 L 7.613281 34.679688 L 5.53125 34.679688 L 5.492188 35.714844 C 5.464844 36.292969 5.476562 36.828125 5.515625 36.933594 C 5.570312 37.050781 5.882812 37.105469 6.636719 37.105469 L 7.691406 37.105469 Z M 10.226562 36.894531 C 10.1875 36.777344 10.148438 36.226562 10.148438 35.648438 L 10.148438 34.613281 L 9.238281 34.613281 L 9.238281 35.648438 C 9.238281 36.988281 9.289062 37.105469 9.847656 37.105469 C 10.214844 37.105469 10.292969 37.066406 10.226562 36.894531 Z M 10.070312 32.570312 C 10.1875 32.53125 10.277344 32.347656 10.277344 32.175781 C 10.277344 31.835938 10.8125 29.394531 11.085938 28.515625 C 11.28125 27.886719 11.382812 27.796875 11.945312 27.796875 C 12.464844 27.796875 12.488281 27.535156 12.046875 26.867188 C 11.410156 25.921875 11.265625 25.894531 6.441406 25.894531 L 2.148438 25.894531 L 1.472656 26.417969 C 0.9375 26.8125 0.78125 27.023438 0.78125 27.285156 C 0.78125 27.585938 0.847656 27.640625 1.328125 27.742188 L 1.875 27.863281 L 2.25 29.027344 C 2.445312 29.683594 2.679688 30.679688 2.757812 31.257812 C 2.835938 31.847656 2.953125 32.398438 3.03125 32.488281 C 3.125 32.609375 3.980469 32.648438 6.503906 32.648438 C 8.351562 32.648438 9.953125 32.609375 10.070312 32.570312 Z M 10.070312 32.570312 "
    />
    <path
      style="stroke: none; fill-rule: nonzero; fill: rgb(93.333333%, 93.333333%, 74.901961%); fill-opacity: 1"
      d="M 23.496094 58.710938 C 23.222656 58.316406 23.222656 56.429688 23.480469 55.238281 C 23.730469 54.175781 24.820312 51.855469 25.382812 51.210938 C 25.589844 50.964844 25.890625 50.714844 26.03125 50.675781 C 26.160156 50.621094 26.277344 50.503906 26.277344 50.386719 C 26.277344 49.980469 26.800781 49.351562 27.984375 48.316406 C 29.246094 47.214844 29.335938 47.132812 30.429688 46.425781 L 31.117188 45.980469 L 31.054688 43.570312 C 30.988281 41.222656 30.976562 41.144531 30.585938 40.304688 C 30.363281 39.820312 30.183594 39.359375 30.183594 39.253906 C 30.183594 39.148438 30.066406 39.070312 29.910156 39.070312 C 29.765625 39.070312 29.464844 38.902344 29.257812 38.691406 C 28.53125 37.957031 28.894531 36.59375 30.089844 35.585938 C 30.949219 34.851562 31.367188 34.746094 33.601562 34.746094 L 35.644531 34.746094 L 35.644531 31.730469 L 35.292969 31.730469 C 35.046875 31.730469 34.785156 31.558594 34.421875 31.152344 C 33.71875 30.390625 29.0625 27.980469 28.398438 28.046875 C 27.867188 28.085938 26.96875 27.679688 26.5 27.167969 C 26.175781 26.824219 26.085938 26.800781 25.773438 26.917969 C 25.316406 27.089844 24.574219 26.945312 24.132812 26.589844 C 23.9375 26.433594 23.519531 25.988281 23.210938 25.582031 C 22.703125 24.925781 22.453125 24.753906 20.59375 23.796875 C 18.824219 22.894531 18.488281 22.671875 18.1875 22.210938 C 17.902344 21.792969 17.71875 21.648438 17.34375 21.570312 C 16.640625 21.4375 15.964844 21.058594 15.507812 20.53125 C 15.183594 20.152344 15 20.0625 14.625 20.0625 C 14.246094 20.0625 13.789062 19.824219 12.503906 19.011719 C 9.550781 17.136719 8.796875 16.585938 8.523438 16.167969 C 8.328125 15.851562 8.171875 15.746094 7.871094 15.734375 C 7.625 15.734375 6.871094 15.367188 5.828125 14.75 C 3.8125 13.558594 3.125 12.8125 3.125 11.855469 C 3.125 11.40625 3.070312 11.25 2.902344 11.199219 C 2.289062 11.015625 1.757812 10.699219 0.925781 10.070312 L 0 9.375 L 0 8.367188 C 0 7.371094 0.015625 7.34375 0.3125 7.34375 C 0.523438 7.34375 0.859375 7.566406 1.261719 7.972656 C 1.925781 8.640625 2.617188 9.179688 2.835938 9.179688 C 2.902344 9.179688 3.007812 9.035156 3.046875 8.851562 C 3.34375 7.671875 4.359375 6.203125 5.609375 5.152344 C 6.921875 4.066406 8.898438 3.121094 10.277344 2.9375 L 10.902344 2.859375 L 10.488281 2.242188 C 9.925781 1.429688 9.367188 0.40625 9.367188 0.183594 C 9.367188 0.0390625 9.601562 0 10.34375 0 C 10.875 0 11.320312 0.0546875 11.320312 0.121094 C 11.320312 0.289062 12.191406 1.546875 12.710938 2.136719 C 12.945312 2.402344 13.140625 2.742188 13.140625 2.886719 C 13.140625 3.054688 13.269531 3.199219 13.503906 3.292969 C 13.699219 3.371094 14.324219 3.882812 14.894531 4.445312 C 15.46875 5.007812 16.183594 5.703125 16.496094 5.992188 C 16.859375 6.359375 17.042969 6.636719 17.042969 6.871094 C 17.042969 7.171875 17.09375 7.210938 17.484375 7.210938 C 17.992188 7.210938 18.667969 7.699219 20.152344 9.140625 C 20.855469 9.820312 21.074219 10.121094 21.074219 10.398438 C 21.074219 10.753906 21.074219 10.753906 21.441406 10.570312 C 21.648438 10.464844 22.101562 10.304688 22.453125 10.214844 C 22.804688 10.136719 23.976562 9.808594 25.054688 9.492188 C 26.863281 8.980469 27.175781 8.929688 29.113281 8.839844 C 32.445312 8.695312 32.613281 8.8125 34.28125 12.496094 L 35.386719 14.949219 L 35.386719 16.613281 C 35.386719 17.53125 35.449219 18.90625 35.542969 19.695312 C 35.683594 20.992188 35.582031 22.761719 35.308594 23.730469 C 35.230469 24.019531 36.789062 24.78125 37.453125 24.78125 C 38.027344 24.78125 38.535156 25.121094 38.832031 25.699219 C 39.144531 26.316406 39.066406 27.152344 38.585938 28.464844 C 38.144531 29.644531 37.660156 30.339844 37.179688 30.496094 C 36.972656 30.5625 36.945312 30.746094 36.945312 32.660156 L 36.945312 34.746094 L 38.675781 34.746094 C 40.640625 34.746094 41.1875 34.914062 42.058594 35.769531 C 43.113281 36.789062 43.371094 37.996094 42.683594 38.691406 C 42.476562 38.902344 42.175781 39.070312 42.03125 39.070312 C 41.851562 39.070312 41.757812 39.148438 41.757812 39.332031 C 41.757812 39.476562 41.644531 39.820312 41.488281 40.105469 C 41.003906 41.050781 40.902344 41.773438 40.964844 43.988281 L 41.019531 46.085938 L 42.136719 46.832031 C 43.527344 47.765625 45.441406 49.535156 45.675781 50.109375 C 45.765625 50.347656 46.089844 50.765625 46.390625 51.027344 C 46.949219 51.539062 47.820312 53.074219 48.265625 54.320312 C 48.394531 54.699219 48.511719 54.894531 48.511719 54.777344 C 48.523438 54.648438 48.601562 54.542969 48.707031 54.542969 C 48.914062 54.542969 49.253906 56.234375 49.121094 56.574219 C 49.082031 56.679688 49.109375 56.769531 49.175781 56.769531 C 49.34375 56.769531 49.34375 57.910156 49.1875 58.015625 C 49.121094 58.054688 49.03125 57.976562 49.003906 57.859375 C 48.964844 57.726562 48.941406 57.792969 48.925781 58.015625 C 48.925781 58.238281 48.824219 58.554688 48.707031 58.710938 L 48.511719 59 L 23.691406 59 Z M 47.144531 57.136719 C 46.925781 55.734375 46.011719 53.335938 45.429688 52.628906 C 45.21875 52.378906 45.023438 52.339844 43.828125 52.300781 C 41.566406 52.234375 39.054688 52.3125 39.378906 52.445312 C 39.78125 52.613281 39.9375 52.980469 39.9375 53.753906 C 39.9375 54.710938 39.574219 55.066406 38.574219 55.066406 C 37.988281 55.066406 37.792969 55.015625 37.542969 54.765625 C 37.3125 54.527344 37.140625 54.476562 36.699219 54.515625 C 36.242188 54.554688 36.164062 54.609375 36.242188 54.792969 C 36.554688 55.5 36.453125 56.351562 36.011719 56.769531 C 35.605469 57.136719 34.515625 57.136719 34.03125 56.757812 C 33.734375 56.523438 33.695312 56.390625 33.695312 55.710938 C 33.695312 55.054688 33.746094 54.871094 34.019531 54.609375 C 34.226562 54.386719 34.476562 54.28125 34.761719 54.28125 L 35.191406 54.28125 L 35.152344 53.492188 C 35.113281 52.996094 35.164062 52.628906 35.253906 52.511719 C 35.398438 52.339844 35.320312 52.3125 34.785156 52.3125 C 34.4375 52.3125 33.5 52.273438 32.691406 52.222656 L 31.25 52.144531 L 30.976562 52.589844 C 30.636719 53.125 29.988281 55.160156 29.871094 56.011719 C 29.804688 56.429688 29.6875 56.679688 29.53125 56.769531 C 29.269531 56.914062 26.667969 56.953125 26.1875 56.824219 C 25.929688 56.757812 25.890625 56.652344 25.890625 56.128906 C 25.890625 55.644531 26.046875 55.199219 26.667969 53.953125 C 27.097656 53.085938 27.449219 52.367188 27.449219 52.351562 C 27.449219 52.328125 27.308594 52.3125 27.125 52.3125 C 26.773438 52.3125 26.371094 52.851562 25.734375 54.1875 C 25.265625 55.171875 24.820312 56.929688 24.925781 57.359375 L 25.003906 57.6875 L 47.222656 57.6875 Z M 48.875 56.546875 C 48.835938 56.417969 48.808594 56.523438 48.808594 56.769531 C 48.808594 57.019531 48.835938 57.125 48.875 57.007812 C 48.902344 56.875 48.902344 56.667969 48.875 56.546875 Z M 37.726562 52.445312 C 37.882812 52.339844 37.84375 52.3125 37.558594 52.3125 C 37.351562 52.3125 37.21875 52.367188 37.273438 52.445312 C 37.375 52.601562 37.480469 52.601562 37.726562 52.445312 Z M 29.597656 49.558594 L 30.363281 48.773438 L 32.523438 48.773438 L 32.523438 49.3125 C 32.523438 49.597656 32.457031 49.953125 32.378906 50.097656 C 32.25 50.347656 32.289062 50.359375 33.71875 50.320312 L 35.191406 50.28125 L 35.191406 47.265625 L 34.019531 47.226562 C 33.382812 47.199219 32.730469 47.214844 32.589844 47.253906 C 32.144531 47.371094 31.25 47.988281 29.792969 49.179688 C 28.464844 50.269531 28.386719 50.347656 28.632812 50.347656 C 28.738281 50.347656 29.167969 49.992188 29.597656 49.558594 Z M 42.734375 49.613281 C 42.304688 49.21875 41.550781 48.628906 41.042969 48.300781 C 40.550781 47.960938 39.976562 47.582031 39.78125 47.449219 C 39.507812 47.253906 39.195312 47.199219 38.390625 47.199219 C 37.816406 47.199219 37.3125 47.265625 37.273438 47.332031 C 37.21875 47.410156 37.234375 48.117188 37.273438 48.90625 L 37.375 50.347656 L 40.445312 50.347656 L 43.515625 50.332031 Z M 35.191406 44.121094 L 35.191406 43.070312 L 33.929688 43.03125 L 32.652344 42.992188 L 32.652344 45.246094 L 33.929688 45.207031 L 35.191406 45.167969 Z M 39.289062 44.121094 L 39.289062 43.003906 L 37.335938 43.003906 L 37.335938 45.234375 L 39.289062 45.234375 Z M 35.253906 40.527344 C 35.253906 40.238281 35.203125 39.859375 35.125 39.675781 L 34.996094 39.332031 L 33.667969 39.414062 C 32.925781 39.464844 32.316406 39.503906 32.300781 39.515625 C 32.289062 39.53125 32.378906 39.871094 32.484375 40.289062 L 32.691406 41.039062 L 35.253906 41.039062 Z M 39.546875 40.148438 L 39.769531 39.320312 L 37.402344 39.398438 L 37.363281 40.226562 L 37.324219 41.050781 L 38.324219 41.011719 L 39.328125 40.972656 Z M 35.191406 36.910156 L 35.191406 36.382812 L 33.835938 36.34375 C 32.367188 36.304688 31.71875 36.5 31.09375 37.171875 L 30.78125 37.511719 L 32.992188 37.472656 L 35.191406 37.433594 Z M 40.796875 37.117188 C 40.25 36.542969 39.484375 36.304688 38.351562 36.34375 L 37.402344 36.382812 L 37.363281 36.949219 L 37.324219 37.5 L 41.160156 37.5 Z M 34.761719 28.714844 C 34.421875 28.597656 33.980469 28.398438 33.757812 28.292969 C 33.175781 27.980469 32.328125 27.640625 32.445312 27.757812 C 32.496094 27.808594 33.136719 28.164062 33.863281 28.53125 C 34.722656 28.976562 35.214844 29.160156 35.28125 29.066406 C 35.332031 28.976562 35.125 28.84375 34.761719 28.714844 Z M 36.855469 27.964844 C 37.039062 27.46875 37.234375 26.984375 37.273438 26.867188 C 37.335938 26.695312 37.257812 26.628906 36.894531 26.589844 L 36.425781 26.539062 L 36.425781 27.167969 C 36.425781 27.519531 36.335938 28.019531 36.230469 28.28125 C 35.984375 28.859375 35.984375 28.84375 36.269531 28.84375 C 36.453125 28.84375 36.609375 28.609375 36.855469 27.964844 Z M 29.308594 26.132812 C 29.207031 26.09375 29.140625 25.828125 29.140625 25.488281 C 29.140625 24.992188 29.101562 24.910156 28.882812 24.910156 C 28.492188 24.910156 28.257812 24.097656 27.695312 20.847656 C 27.386719 19 27.308594 18.710938 26.539062 16.785156 C 25.578125 14.359375 25.238281 13.320312 25.238281 12.757812 C 25.238281 12.195312 25.238281 12.195312 25.71875 12.195312 C 26.148438 12.195312 26.292969 12.300781 26.996094 13.058594 C 27.4375 13.53125 27.90625 14.136719 28.035156 14.398438 C 28.179688 14.660156 28.453125 15.144531 28.632812 15.472656 C 29.191406 16.417969 29.503906 17.648438 29.660156 19.613281 C 29.738281 20.613281 29.855469 21.671875 29.921875 21.960938 C 29.988281 22.25 30.050781 22.800781 30.050781 23.179688 C 30.050781 23.851562 30.050781 23.863281 30.453125 23.863281 C 30.675781 23.863281 30.976562 23.929688 31.117188 24.007812 C 31.367188 24.136719 31.378906 24.125 31.300781 23.851562 C 31.132812 23.234375 30.976562 22.183594 30.765625 20.324219 C 30.519531 18.1875 30.183594 16.417969 29.855469 15.65625 C 29.375 14.515625 28.882812 12.902344 28.882812 12.429688 L 28.882812 11.933594 L 29.441406 11.933594 C 30.273438 11.933594 30.949219 12.574219 31.664062 14.015625 C 32.496094 15.683594 32.808594 17.359375 32.875 20.519531 C 32.914062 21.894531 32.941406 23.339844 32.953125 23.71875 C 32.980469 24.386719 32.953125 24.441406 32.652344 24.519531 C 32.355469 24.585938 32.367188 24.609375 32.847656 24.820312 C 33.136719 24.953125 33.484375 25.121094 33.628906 25.199219 C 33.835938 25.304688 33.863281 25.304688 33.734375 25.160156 C 33.511719 24.9375 33.523438 24.28125 33.773438 22.589844 C 33.953125 21.386719 33.953125 20.847656 33.835938 19 C 33.757812 17.792969 33.734375 16.640625 33.773438 16.441406 C 33.851562 16.0625 33.65625 15.445312 33.03125 14.082031 C 31.664062 11.066406 31.496094 10.753906 31.15625 10.621094 C 30.546875 10.386719 28.085938 10.464844 27.175781 10.738281 C 26.722656 10.882812 25.550781 11.210938 24.589844 11.472656 C 23.625 11.734375 22.546875 12.089844 22.179688 12.261719 C 21.832031 12.429688 21.296875 12.640625 21.011719 12.71875 C 20.023438 13.019531 18.449219 13.9375 17.769531 14.605469 C 17.003906 15.355469 16.445312 16.558594 16.3125 17.726562 C 16.25 18.34375 16.289062 18.488281 16.613281 18.984375 C 16.886719 19.40625 17.132812 19.601562 17.628906 19.785156 L 18.277344 20.035156 L 18.316406 19.390625 L 18.355469 18.75 L 18.941406 18.75 C 19.265625 18.75 19.644531 18.816406 19.789062 18.882812 C 19.996094 19 19.984375 18.945312 19.710938 18.527344 C 19.070312 17.597656 18.472656 16.128906 18.472656 15.523438 L 18.472656 14.949219 L 18.96875 14.949219 C 19.65625 14.949219 20.449219 15.539062 21.324219 16.679688 C 21.726562 17.214844 22.3125 17.910156 22.625 18.226562 C 23.457031 19.089844 23.664062 19.65625 24.277344 22.75 C 24.378906 23.261719 24.457031 23.8125 24.457031 23.996094 C 24.457031 24.441406 25.1875 25.304688 25.34375 25.070312 C 25.589844 24.703125 24.601562 21.398438 23.546875 19.078125 C 22.78125 17.386719 21.855469 14.867188 21.855469 14.476562 C 21.855469 14.042969 21.867188 14.03125 22.402344 14.03125 C 22.921875 14.03125 23.015625 14.09375 23.703125 14.84375 C 24.40625 15.628906 24.589844 15.929688 26.085938 19.011719 C 26.34375 19.550781 26.472656 20.140625 26.617188 21.304688 C 26.917969 23.8125 27.292969 25.371094 27.734375 25.828125 C 28.046875 26.171875 28.191406 26.222656 28.789062 26.210938 C 29.152344 26.210938 29.386719 26.171875 29.308594 26.132812 Z M 14.3125 17.515625 C 14.3125 17.097656 14.257812 17.046875 13.375 16.585938 C 12.464844 16.128906 11.019531 15.195312 10.109375 14.503906 L 9.679688 14.160156 L 9.730469 14.554688 C 9.757812 14.765625 9.886719 15.027344 10.003906 15.144531 C 10.316406 15.417969 14.089844 17.949219 14.21875 17.949219 C 14.273438 17.964844 14.3125 17.765625 14.3125 17.515625 Z M 15.15625 14.292969 C 15.285156 14.003906 15.457031 13.769531 15.535156 13.769531 C 15.613281 13.753906 15.507812 13.664062 15.285156 13.558594 C 14.570312 13.179688 13.867188 12.667969 12.738281 11.710938 L 11.617188 10.765625 L 11.136719 11.25 C 10.875 11.527344 10.667969 11.8125 10.667969 11.878906 C 10.667969 12.21875 14.351562 14.816406 14.832031 14.816406 C 14.882812 14.816406 15.027344 14.582031 15.15625 14.292969 Z M 7.78125 12.835938 C 7.960938 11.828125 8.703125 10.476562 9.550781 9.625 C 10.460938 8.71875 12.113281 7.722656 13.492188 7.265625 C 14.117188 7.054688 14.648438 6.882812 14.675781 6.871094 C 14.6875 6.859375 14.285156 6.4375 13.765625 5.914062 C 12.542969 4.722656 12.230469 4.617188 10.773438 4.984375 C 9.589844 5.285156 8.820312 5.613281 7.9375 6.214844 C 7.234375 6.6875 6.140625 7.699219 5.960938 8.039062 C 5.855469 8.25 5.867188 8.261719 6.101562 8.144531 C 6.246094 8.066406 6.621094 8 6.949219 8 C 7.429688 8 7.574219 8.066406 7.804688 8.367188 C 8.039062 8.65625 8.078125 8.851562 8.039062 9.414062 C 8 9.796875 7.882812 10.203125 7.78125 10.304688 C 7.507812 10.59375 6.597656 10.6875 6.117188 10.488281 C 5.699219 10.320312 5.621094 10.121094 5.570312 9.191406 L 5.53125 8.613281 L 5.242188 9.191406 C 4.839844 10.003906 4.632812 10.898438 4.738281 11.316406 C 4.867188 11.855469 5.425781 12.390625 6.503906 13.046875 C 7.039062 13.375 7.519531 13.636719 7.558594 13.636719 C 7.597656 13.636719 7.703125 13.28125 7.78125 12.835938 Z M 17.875 11.734375 C 18.019531 11.628906 18.109375 11.527344 18.070312 11.5 C 18.042969 11.488281 17.769531 11.304688 17.472656 11.09375 C 17.1875 10.898438 16.546875 10.332031 16.066406 9.835938 L 15.195312 8.917969 L 14.480469 9.179688 C 14.078125 9.324219 13.726562 9.453125 13.699219 9.492188 C 13.53125 9.664062 15.949219 11.460938 16.730469 11.734375 C 17.382812 11.972656 17.5625 11.972656 17.875 11.734375 Z M 17.875 11.734375 "
    />
    <path
      style="stroke: none; fill-rule: nonzero; fill: rgb(93.333333%, 93.333333%, 74.901961%); fill-opacity: 1"
      d="M 9.042969 7.539062 C 8.585938 7.09375 8.585938 6.28125 9.042969 5.835938 C 9.300781 5.558594 9.484375 5.507812 10.121094 5.507812 C 11.226562 5.507812 11.578125 5.808594 11.578125 6.753906 C 11.578125 7.671875 11.332031 7.867188 10.175781 7.867188 C 9.484375 7.867188 9.300781 7.816406 9.042969 7.539062 Z M 61.625 57.402344 C 61.570312 56.535156 61.535156 54.136719 61.535156 52.089844 C 61.535156 50.058594 61.496094 48.378906 61.441406 48.378906 C 61.378906 48.378906 61.222656 48.472656 61.089844 48.578125 C 60.726562 48.851562 60.621094 48.824219 60.621094 48.445312 C 60.621094 48.210938 60.6875 48.117188 60.882812 48.117188 C 61.027344 48.117188 61.144531 48.066406 61.144531 48.011719 C 61.144531 47.84375 62.289062 47.332031 62.679688 47.332031 C 62.886719 47.332031 63.105469 47.398438 63.199219 47.488281 C 63.316406 47.605469 63.355469 49.089844 63.355469 53.324219 L 63.355469 59 L 61.703125 59 Z M 70.808594 58.804688 C 70.613281 58.59375 70.574219 57.6875 70.757812 57.6875 C 70.820312 57.6875 70.964844 57.898438 71.082031 58.148438 C 71.199219 58.398438 71.355469 58.605469 71.421875 58.605469 C 71.496094 58.605469 71.550781 58.699219 71.550781 58.804688 C 71.550781 59.050781 71.015625 59.050781 70.808594 58.804688 Z M 1.121094 47.304688 C 1.082031 47.214844 0.976562 46.847656 0.859375 46.492188 C 0.5625 45.574219 0.585938 44.75 0.898438 44.578125 C 1.171875 44.433594 2.796875 44.421875 3.449219 44.566406 C 3.785156 44.628906 3.839844 44.710938 3.878906 45.101562 C 3.902344 45.496094 3.785156 45.691406 3.109375 46.519531 C 2.34375 47.4375 2.304688 47.460938 1.746094 47.460938 C 1.394531 47.460938 1.144531 47.398438 1.121094 47.304688 Z M 5.921875 47.359375 C 5.84375 47.304688 5.542969 46.9375 5.230469 46.53125 C 4.777344 45.914062 4.683594 45.707031 4.683594 45.207031 C 4.683594 44.773438 4.75 44.578125 4.890625 44.527344 C 5.230469 44.394531 7.9375 44.433594 8.210938 44.578125 C 8.664062 44.839844 8.535156 45.484375 7.78125 46.519531 C 7.144531 47.421875 7.089844 47.460938 6.582031 47.460938 C 6.285156 47.460938 5.984375 47.410156 5.921875 47.359375 Z M 12.746094 45.695312 C 12.746094 46.605469 12.015625 47.339844 11.113281 47.339844 C 10.210938 47.339844 9.480469 46.605469 9.480469 45.695312 C 9.480469 44.785156 10.210938 44.050781 11.113281 44.050781 C 12.015625 44.050781 12.746094 44.785156 12.746094 45.695312 Z M 61.144531 45.378906 C 61.144531 45.300781 61.222656 45.234375 61.3125 45.234375 C 61.585938 45.234375 61.648438 42.859375 61.585938 35.402344 C 61.558594 31.835938 61.535156 28.359375 61.535156 27.703125 L 61.535156 26.484375 L 61.105469 26.316406 C 60.871094 26.210938 60.492188 25.910156 60.257812 25.644531 L 59.84375 25.160156 L 59.84375 20.0625 L 60.207031 19.667969 C 60.53125 19.300781 61.714844 18.75 62.195312 18.75 C 62.3125 18.75 62.546875 18.472656 62.742188 18.09375 C 62.925781 17.742188 63.511719 16.835938 64.042969 16.101562 C 64.5625 15.355469 65.304688 14.292969 65.671875 13.742188 C 66.046875 13.179688 66.464844 12.667969 66.605469 12.585938 C 66.839844 12.457031 66.855469 12.351562 66.777344 11.039062 C 66.738281 10.1875 66.75 9.519531 66.828125 9.363281 C 66.917969 9.207031 66.917969 8.785156 66.828125 8.117188 C 66.761719 7.566406 66.738281 6.964844 66.789062 6.765625 C 66.867188 6.453125 66.917969 6.414062 67.257812 6.492188 C 67.476562 6.542969 67.828125 6.542969 68.050781 6.492188 C 68.507812 6.386719 69.339844 5.703125 69.339844 5.429688 C 69.339844 5.324219 69.429688 5.246094 69.535156 5.246094 C 69.636719 5.246094 69.730469 5.128906 69.730469 4.984375 C 69.730469 4.734375 69.820312 4.722656 72.109375 4.722656 L 74.503906 4.722656 L 75.023438 5.234375 C 75.324219 5.507812 75.738281 5.769531 75.960938 5.808594 L 76.363281 5.902344 L 76.351562 9.152344 L 76.324219 12.417969 L 77.351562 13.886719 C 80.042969 17.753906 80.394531 18.289062 80.394531 18.554688 C 80.394531 18.800781 80.488281 18.855469 80.957031 18.90625 C 81.710938 19 82.671875 19.445312 82.917969 19.824219 C 83.179688 20.21875 83.335938 22.800781 83.207031 24.269531 L 83.113281 25.265625 L 82.492188 25.582031 C 81.578125 26.039062 80.265625 26.917969 80.265625 27.074219 C 80.265625 27.152344 80.148438 27.285156 80.003906 27.375 C 79.851562 27.46875 79.746094 27.480469 79.746094 27.402344 C 79.746094 27.3125 76.976562 27.273438 71.550781 27.273438 L 63.355469 27.273438 L 63.355469 28.203125 L 71.226562 28.164062 C 75.558594 28.136719 79.09375 28.136719 79.09375 28.148438 C 79.09375 28.175781 78.691406 28.492188 78.183594 28.859375 C 77.636719 29.25 77.273438 29.617188 77.273438 29.761719 C 77.273438 29.894531 77.183594 30.039062 77.054688 30.078125 C 76.9375 30.128906 73.828125 30.183594 70.144531 30.195312 C 64.316406 30.222656 63.433594 30.246094 63.378906 30.417969 C 63.328125 30.574219 63.339844 30.589844 63.511719 30.457031 C 63.652344 30.339844 64.445312 30.300781 66.554688 30.328125 L 69.402344 30.351562 L 69.429688 30.941406 C 69.46875 31.453125 69.390625 31.652344 68.84375 32.449219 C 68.234375 33.355469 68.21875 33.367188 67.648438 33.367188 C 67.074219 33.367188 67.0625 33.355469 66.488281 32.476562 L 65.917969 31.597656 L 65.578125 32.410156 C 65.242188 33.222656 65.226562 33.238281 64.679688 33.277344 C 64.097656 33.316406 64.109375 33.328125 63.511719 31.859375 C 63.40625 31.625 63.367188 33.539062 63.367188 38.296875 C 63.355469 44.382812 63.328125 45.089844 63.144531 45.246094 C 62.875 45.46875 61.144531 45.585938 61.144531 45.378906 Z M 80.851562 24.9375 L 81.5 24.585938 L 81.5 20.9375 L 81.046875 20.769531 C 80.410156 20.53125 63.105469 20.507812 62.25 20.742188 L 61.664062 20.898438 L 61.664062 24.597656 L 62.351562 24.9375 L 63.027344 25.292969 L 71.613281 25.292969 L 80.199219 25.304688 Z M 78.132812 18.199219 C 77.964844 17.964844 77.480469 17.253906 77.054688 16.640625 C 76.636719 16.023438 75.960938 15.027344 75.542969 14.4375 L 74.789062 13.375 L 71.640625 13.375 C 69.910156 13.375 68.429688 13.425781 68.363281 13.480469 C 68.285156 13.53125 67.882812 14.070312 67.453125 14.683594 C 67.035156 15.300781 66.488281 16.074219 66.253906 16.429688 C 65.214844 17.9375 64.953125 18.304688 64.863281 18.460938 C 64.785156 18.578125 66.175781 18.617188 71.613281 18.617188 L 78.457031 18.617188 Z M 74.125 11.445312 L 74.816406 11.367188 L 74.777344 10.765625 C 74.738281 10.1875 74.722656 10.175781 74.21875 10.058594 C 73.851562 9.980469 69.089844 10.003906 68.46875 10.097656 C 68.335938 10.109375 68.453125 11.394531 68.597656 11.445312 C 68.832031 11.550781 73.320312 11.550781 74.125 11.445312 Z M 74.738281 7.410156 L 74.738281 6.753906 L 72.226562 6.714844 C 69.886719 6.6875 69.675781 6.699219 69.273438 6.949219 C 69.039062 7.09375 68.753906 7.210938 68.636719 7.210938 C 68.492188 7.210938 68.429688 7.332031 68.429688 7.578125 C 68.429688 7.789062 68.46875 8 68.519531 8.050781 C 68.570312 8.089844 69.988281 8.117188 71.667969 8.105469 L 74.738281 8.066406 Z M 74.738281 7.410156 "
    />
    <path
      style="stroke: none; fill-rule: nonzero; fill: rgb(93.333333%, 93.333333%, 74.901961%); fill-opacity: 1"
      d="M 70.875 33.210938 C 70.769531 33.078125 70.457031 32.609375 70.195312 32.175781 C 69.820312 31.53125 69.714844 31.257812 69.753906 30.863281 L 69.792969 30.351562 L 73.566406 30.351562 L 73.605469 30.839844 C 73.644531 31.347656 73.554688 31.546875 72.695312 32.753906 C 72.226562 33.394531 72.160156 33.433594 71.628906 33.433594 C 71.265625 33.433594 71.003906 33.355469 70.875 33.210938 Z M 74.410156 32.792969 C 74.410156 32.570312 74.296875 32.203125 74.152344 31.964844 C 73.996094 31.691406 73.890625 31.296875 73.890625 30.917969 L 73.890625 30.289062 L 75.324219 30.289062 C 76.117188 30.289062 76.753906 30.3125 76.753906 30.351562 C 76.753906 30.378906 76.492188 30.679688 76.167969 30.996094 C 75.84375 31.324219 75.375 31.914062 75.128906 32.304688 C 74.566406 33.199219 74.410156 33.304688 74.410156 32.792969 Z M 66.738281 1.996094 C 66.738281 1.179688 66.800781 0.394531 66.867188 0.25 C 66.996094 0.015625 67.191406 0 71.550781 0 C 76.726562 0 76.363281 -0.0898438 76.363281 1.167969 C 76.363281 1.785156 76.335938 1.835938 76.011719 1.914062 C 75.804688 1.96875 75.570312 2.058594 75.480469 2.136719 C 75.347656 2.242188 75.269531 2.230469 75.179688 2.085938 C 75.089844 1.953125 75.074219 1.980469 75.089844 2.21875 C 75.113281 2.386719 75.050781 2.558594 74.972656 2.585938 C 74.855469 2.625 74.800781 2.503906 74.800781 2.242188 C 74.800781 2.035156 74.738281 1.691406 74.644531 1.507812 L 74.503906 1.179688 L 71.535156 1.179688 C 68.195312 1.179688 68.429688 1.089844 68.429688 2.347656 L 68.429688 3.09375 L 67.710938 3.09375 C 67.207031 3.082031 66.945312 3.136719 66.867188 3.277344 C 66.777344 3.410156 66.738281 2.976562 66.738281 1.996094 Z M 66.738281 1.996094 "
    />
    <path
      d="M 0 51.527344 L 0 44.039062 L 0.339844 43.726562 L 0.691406 43.398438 L 6.558594 43.398438 C 9.785156 43.398438 12.503906 43.449219 12.582031 43.503906 C 13.191406 43.894531 15.792969 49.035156 16.574219 51.394531 C 17.367188 53.796875 17.796875 56.785156 17.523438 57.992188 C 17.472656 58.1875 17.40625 58.488281 17.367188 58.671875 L 17.304688 59 L 0 59 Z M 2.71875 46.125 C 3.148438 45.601562 3.449219 45.117188 3.382812 45.050781 C 3.203125 44.867188 1.457031 44.851562 1.210938 45.035156 C 1.003906 45.195312 1.003906 45.246094 1.238281 46.035156 C 1.367188 46.492188 1.496094 46.910156 1.523438 46.976562 C 1.667969 47.226562 1.992188 46.992188 2.71875 46.125 Z M 7.402344 46.125 C 7.832031 45.523438 8.027344 45.140625 7.949219 45.0625 C 7.804688 44.917969 5.671875 44.8125 5.308594 44.917969 C 4.945312 45.023438 5.035156 45.351562 5.621094 46.136719 C 6.21875 46.925781 6.363281 47.070312 6.582031 47.070312 C 6.660156 47.070312 7.027344 46.648438 7.402344 46.125 Z M 11.980469 46.28125 C 12.253906 45.417969 12.28125 44.972656 12.074219 44.957031 C 10.746094 44.894531 9.824219 44.957031 9.785156 45.128906 C 9.730469 45.390625 11.304688 47.09375 11.554688 47.042969 C 11.65625 47.015625 11.851562 46.675781 11.980469 46.28125 Z M 49.175781 58.75 C 49.109375 58.605469 49.042969 58.316406 49.042969 58.109375 C 49.042969 57.898438 49.003906 57.6875 48.953125 57.636719 C 48.902344 57.585938 48.875 57.359375 48.886719 57.125 C 48.902344 56.890625 48.835938 56.300781 48.734375 55.800781 C 48.316406 53.820312 48.914062 51.828125 50.421875 50.214844 C 52.570312 47.933594 56.8125 46.007812 61.546875 45.167969 C 62.132812 45.0625 62.679688 44.917969 62.769531 44.839844 C 62.886719 44.734375 62.925781 43.003906 62.953125 37.355469 C 62.964844 33.304688 63.003906 29.933594 63.042969 29.882812 C 63.121094 29.75 77.054688 29.710938 77.167969 29.828125 C 77.207031 29.867188 77.09375 30.078125 76.910156 30.289062 C 76.570312 30.667969 76.53125 30.679688 75.425781 30.679688 C 74.113281 30.679688 74.046875 30.757812 74.605469 31.664062 C 74.777344 31.953125 74.933594 32.28125 74.933594 32.386719 C 74.933594 32.488281 74.699219 32.9375 74.398438 33.367188 C 72.667969 35.964844 71.355469 38.769531 70.585938 41.523438 C 70.222656 42.808594 70.183594 43.082031 70.351562 43.1875 C 70.40625 43.214844 71.472656 43.097656 72.722656 42.914062 C 74.671875 42.636719 75.503906 42.585938 78.511719 42.558594 C 80.449219 42.558594 83.425781 42.597656 85.144531 42.664062 C 87.289062 42.742188 88.707031 42.730469 89.671875 42.625 C 93.273438 42.257812 97.332031 41.023438 98.386719 39.988281 C 98.609375 39.765625 98.828125 39.597656 98.894531 39.597656 C 98.945312 39.597656 99 40.527344 99 41.679688 L 99 43.753906 L 98.453125 43.960938 C 96.046875 44.851562 93.039062 45.246094 88.527344 45.246094 C 85.210938 45.246094 83.777344 45.15625 80.785156 44.75 C 78.183594 44.394531 77.390625 44.328125 75.386719 44.328125 C 73.917969 44.328125 73.371094 44.367188 73.203125 44.5 C 72.96875 44.683594 72.96875 44.683594 73.203125 44.75 C 73.332031 44.789062 73.761719 44.867188 74.152344 44.90625 C 75.21875 45.035156 76.441406 45.390625 79.109375 46.335938 C 83.972656 48.050781 86.925781 48.589844 91.050781 48.472656 C 93.625 48.394531 94.613281 48.289062 96.070312 47.933594 C 97.464844 47.59375 97.984375 47.359375 98.515625 46.832031 L 99 46.359375 L 99 48.683594 C 99 49.953125 98.984375 51.003906 98.972656 51.003906 C 98.945312 51.003906 98.324219 51.09375 97.566406 51.210938 C 94.628906 51.644531 94.199219 51.671875 92.324219 51.605469 C 88.125 51.421875 83.519531 50.398438 77.597656 48.300781 C 74.839844 47.332031 74.632812 47.265625 72.578125 46.742188 C 70.585938 46.230469 69.976562 46.175781 69.714844 46.503906 C 69.441406 46.820312 69.496094 50.753906 69.78125 52.773438 C 70.132812 55.160156 70.820312 57.910156 71.25 58.542969 C 71.34375 58.683594 71.421875 58.84375 71.421875 58.894531 C 71.421875 58.960938 69.519531 59 67.191406 59 L 62.964844 59 L 62.964844 53.519531 C 62.964844 49.585938 62.925781 48 62.820312 47.894531 C 62.640625 47.710938 61.84375 48.09375 60.167969 49.128906 C 56.1875 51.59375 53.402344 54.871094 53.429688 57.046875 C 53.441406 57.453125 53.492188 57.898438 53.570312 58.03125 C 53.636719 58.175781 53.726562 58.4375 53.78125 58.644531 L 53.859375 59 L 53.039062 59 C 52.296875 59 52.191406 58.972656 52.074219 58.699219 C 51.90625 58.34375 51.972656 55.996094 52.179688 55 C 52.53125 53.230469 54.289062 51.105469 56.929688 49.257812 C 57.746094 48.695312 60.84375 46.9375 61.027344 46.9375 C 61.089844 46.9375 61.144531 46.847656 61.144531 46.742188 C 61.144531 46.492188 61.128906 46.492188 59.699219 46.859375 C 58.347656 47.214844 56.054688 48.117188 55.550781 48.5 C 55.367188 48.628906 54.964844 48.867188 54.636719 49.035156 C 54.328125 49.191406 53.546875 49.863281 52.882812 50.53125 C 51.621094 51.800781 50.984375 52.863281 50.539062 54.4375 C 50.304688 55.289062 50.214844 57.125 50.410156 57.269531 C 50.59375 57.402344 51.023438 58.726562 50.929688 58.867188 C 50.890625 58.949219 50.5 59 50.085938 59 C 49.460938 59 49.292969 58.949219 49.175781 58.75 Z M 68.46875 32.003906 C 68.816406 31.480469 69.066406 30.980469 69.027344 30.878906 C 68.972656 30.71875 68.675781 30.679688 67.660156 30.679688 C 66.90625 30.679688 66.320312 30.734375 66.28125 30.8125 C 66.125 31.074219 67.425781 33.09375 67.6875 33 C 67.777344 32.976562 68.128906 32.53125 68.46875 32.003906 Z M 72.304688 32.359375 C 73.058594 31.285156 73.253906 30.941406 73.175781 30.8125 C 73.058594 30.628906 70.289062 30.640625 70.183594 30.824219 C 70.09375 30.957031 70.835938 32.304688 71.265625 32.816406 C 71.574219 33.171875 71.769531 33.09375 72.304688 32.359375 Z M 65.214844 31.9375 C 65.421875 31.441406 65.554688 30.96875 65.515625 30.863281 C 65.421875 30.628906 64.097656 30.613281 63.902344 30.851562 C 63.667969 31.140625 64.382812 32.976562 64.695312 32.871094 C 64.785156 32.84375 65.019531 32.425781 65.214844 31.9375 Z M 24.535156 57.792969 C 24.238281 56.652344 25.03125 53.980469 26.121094 52.378906 C 26.460938 51.894531 26.539062 51.855469 27.125 51.839844 C 27.488281 51.828125 27.90625 51.855469 28.0625 51.878906 C 28.359375 51.945312 28.359375 51.960938 27.890625 52.757812 C 27.28125 53.808594 26.277344 55.933594 26.277344 56.167969 C 26.277344 56.417969 26.695312 56.507812 27.878906 56.507812 C 29.179688 56.507812 29.363281 56.402344 29.480469 55.617188 C 29.597656 54.792969 30.246094 52.746094 30.558594 52.234375 L 30.804688 51.828125 L 38.167969 51.855469 L 45.519531 51.878906 L 45.78125 52.195312 C 46.507812 53.074219 47.429688 55.644531 47.574219 57.191406 L 47.652344 58.082031 L 24.613281 58.082031 Z M 35.972656 55.660156 C 35.972656 55.136719 35.550781 54.710938 35.03125 54.710938 C 34.511719 54.710938 34.089844 55.136719 34.089844 55.660156 C 34.089844 56.183594 34.511719 56.609375 35.03125 56.609375 C 35.550781 56.609375 35.972656 56.183594 35.972656 55.660156 Z M 39.511719 53.691406 C 39.511719 53.164062 39.089844 52.742188 38.570312 52.742188 C 38.050781 52.742188 37.628906 53.164062 37.628906 53.691406 C 37.628906 54.214844 38.050781 54.640625 38.570312 54.640625 C 39.089844 54.640625 39.511719 54.214844 39.511719 53.691406 Z M 37.066406 53.371094 C 37.066406 52.9375 36.714844 52.585938 36.285156 52.585938 C 35.855469 52.585938 35.507812 52.9375 35.507812 53.371094 C 35.507812 53.804688 35.855469 54.15625 36.285156 54.15625 C 36.714844 54.15625 37.066406 53.804688 37.066406 53.371094 Z M 36.84375 53.925781 "
    />
    <path
      d="M 77.003906 53.789062 C 77.003906 54.3125 76.582031 54.738281 76.0625 54.738281 C 75.542969 54.738281 75.125 54.3125 75.125 53.789062 C 75.125 53.269531 75.542969 52.84375 76.0625 52.84375 C 76.582031 52.84375 77.003906 53.269531 77.003906 53.789062 Z M 97.109375 53.699219 C 97.109375 54.210938 96.695312 54.625 96.191406 54.625 C 95.683594 54.625 95.269531 54.210938 95.269531 53.699219 C 95.269531 53.1875 95.683594 52.773438 96.191406 52.773438 C 96.695312 52.773438 97.109375 53.1875 97.109375 53.699219 Z M 80.171875 51.332031 C 80.171875 51.753906 79.832031 52.09375 79.417969 52.09375 C 79 52.09375 78.664062 51.753906 78.664062 51.332031 C 78.664062 50.914062 79 50.574219 79.417969 50.574219 C 79.832031 50.574219 80.171875 50.914062 80.171875 51.332031 Z M 27.578125 50.570312 C 27.578125 50.375 28.203125 49.757812 29.464844 48.722656 C 30.820312 47.621094 31.769531 46.964844 32.199219 46.859375 C 32.339844 46.820312 33.160156 46.820312 34.019531 46.832031 L 35.582031 46.871094 L 35.582031 50.675781 L 33.539062 50.714844 C 32.132812 50.738281 31.484375 50.699219 31.484375 50.609375 C 31.484375 50.53125 31.625 50.242188 31.808594 49.980469 C 32.289062 49.273438 32.238281 49.167969 31.445312 49.167969 C 30.78125 49.167969 30.742188 49.191406 29.988281 49.953125 L 29.21875 50.738281 L 28.398438 50.738281 C 27.8125 50.738281 27.578125 50.6875 27.578125 50.570312 Z M 36.921875 50.453125 C 36.894531 50.28125 36.867188 49.414062 36.867188 48.511719 L 36.882812 46.871094 L 38.339844 46.832031 C 39.613281 46.808594 39.859375 46.832031 40.160156 47.042969 C 40.367188 47.1875 40.941406 47.582031 41.460938 47.921875 C 42.398438 48.539062 44.492188 50.398438 44.492188 50.621094 C 44.492188 50.6875 42.917969 50.738281 40.730469 50.738281 L 36.972656 50.738281 Z M 32.261719 44.121094 L 32.261719 42.597656 L 33.929688 42.636719 L 35.582031 42.675781 L 35.582031 45.5625 L 33.929688 45.601562 L 32.261719 45.640625 Z M 36.933594 45.207031 C 36.855469 43.464844 36.855469 43.042969 36.90625 42.847656 C 36.960938 42.636719 37.140625 42.613281 38.3125 42.613281 L 39.652344 42.613281 L 39.703125 43.960938 C 39.742188 44.695312 39.742188 45.378906 39.703125 45.46875 C 39.664062 45.574219 39.261719 45.628906 38.300781 45.628906 L 36.945312 45.628906 Z M 4.347656 42.257812 L 1.199219 42.21875 L 1.707031 40.671875 C 1.980469 39.832031 2.210938 39.03125 2.210938 38.914062 C 2.210938 38.640625 2.09375 38.652344 4.097656 38.664062 C 4.957031 38.664062 6.84375 38.664062 8.289062 38.679688 L 10.929688 38.679688 L 11.007812 39.046875 C 11.148438 39.660156 11.605469 41.078125 11.851562 41.667969 L 12.085938 42.21875 L 10.890625 42.230469 C 10.226562 42.230469 9.199219 42.246094 8.585938 42.269531 C 7.976562 42.285156 6.0625 42.285156 4.347656 42.257812 Z M 93.859375 40.589844 C 93.859375 41.097656 93.453125 41.507812 92.949219 41.507812 C 92.445312 41.507812 92.039062 41.097656 92.039062 40.589844 C 92.039062 40.082031 92.445312 39.671875 92.949219 39.671875 C 93.453125 39.671875 93.859375 40.082031 93.859375 40.589844 Z M 32.144531 40.828125 C 32.054688 40.488281 31.871094 39.976562 31.730469 39.699219 C 31.585938 39.414062 31.496094 39.136719 31.546875 39.097656 C 31.691406 38.953125 35.28125 38.925781 35.449219 39.070312 C 35.554688 39.148438 35.621094 39.636719 35.632812 40.316406 L 35.660156 41.429688 L 32.289062 41.429688 Z M 36.933594 41.273438 C 36.855469 40.472656 36.894531 39.242188 36.984375 39.109375 C 37.078125 38.992188 37.582031 38.941406 38.730469 38.941406 C 40.042969 38.941406 40.355469 38.980469 40.40625 39.136719 C 40.457031 39.242188 40.417969 39.425781 40.328125 39.53125 C 40.238281 39.648438 40.054688 40.105469 39.9375 40.554688 L 39.71875 41.367188 L 38.324219 41.40625 C 37.273438 41.429688 36.945312 41.40625 36.933594 41.273438 Z M 80.171875 39.796875 C 80.171875 40.214844 79.832031 40.554688 79.417969 40.554688 C 79 40.554688 78.664062 40.214844 78.664062 39.796875 C 78.664062 39.375 79 39.035156 79.417969 39.035156 C 79.832031 39.035156 80.171875 39.375 80.171875 39.796875 Z M 30.183594 37.734375 C 30.183594 37.394531 30.703125 36.710938 31.234375 36.359375 C 31.78125 36.003906 31.820312 35.992188 33.679688 35.992188 L 35.582031 35.992188 L 35.582031 37.824219 L 32.886719 37.867188 C 30.765625 37.890625 30.183594 37.867188 30.183594 37.734375 Z M 36.972656 36.949219 L 37.011719 35.992188 L 38.363281 35.953125 C 39.378906 35.925781 39.847656 35.964844 40.277344 36.136719 C 40.875 36.371094 41.941406 37.40625 41.851562 37.667969 C 41.8125 37.785156 41.121094 37.839844 39.367188 37.867188 L 36.933594 37.890625 Z M 2.589844 37.445312 C 2.5625 37.417969 2.589844 36.671875 2.65625 35.792969 L 2.773438 34.207031 L 3.550781 34.246094 L 4.347656 34.285156 L 4.292969 35.203125 C 4.269531 35.714844 4.242188 36.382812 4.242188 36.710938 C 4.230469 37.039062 4.175781 37.339844 4.097656 37.394531 C 3.957031 37.5 2.679688 37.539062 2.589844 37.445312 Z M 5.164062 37.40625 C 4.996094 37.234375 5.0625 34.390625 5.242188 34.246094 C 5.425781 34.089844 7.804688 34.15625 7.949219 34.324219 C 8.027344 34.402344 8.132812 36.804688 8.078125 37.339844 C 8.066406 37.457031 7.691406 37.5 6.660156 37.5 C 5.882812 37.5 5.203125 37.457031 5.164062 37.40625 Z M 8.9375 37.316406 C 8.875 37.15625 8.808594 34.863281 8.835938 34.285156 C 8.847656 34.167969 10.382812 34.128906 10.472656 34.246094 C 10.488281 34.273438 10.539062 35.007812 10.589844 35.898438 L 10.667969 37.5 L 9.835938 37.5 C 9.238281 37.5 8.992188 37.445312 8.9375 37.316406 Z M 74.542969 36.476562 C 74.542969 36.410156 74.621094 36.265625 74.710938 36.148438 C 74.855469 35.953125 75.765625 35.925781 86.25 35.925781 C 92.507812 35.925781 97.945312 35.910156 98.324219 35.925781 C 98.960938 35.925781 99 35.953125 99 36.253906 L 99 36.582031 L 86.769531 36.582031 C 80.042969 36.582031 74.542969 36.527344 74.542969 36.476562 Z M 2.640625 32.882812 C 2.5625 32.792969 2.445312 32.242188 2.367188 31.652344 C 2.289062 31.074219 2.054688 30.078125 1.863281 29.421875 L 1.484375 28.253906 L 0.390625 28.019531 L 0.390625 27.285156 C 0.390625 26.539062 0.390625 26.539062 1.082031 26.027344 L 1.757812 25.5 L 6.441406 25.5 C 10.785156 25.5 11.164062 25.515625 11.617188 25.75 C 12.28125 26.078125 12.75 26.8125 12.789062 27.546875 C 12.816406 28.070312 12.789062 28.125 12.488281 28.164062 C 11.722656 28.242188 11.644531 28.308594 11.476562 28.871094 C 11.175781 29.933594 10.667969 32.253906 10.667969 32.570312 C 10.667969 32.738281 10.578125 32.921875 10.460938 32.960938 C 10.34375 33 8.574219 33.039062 6.503906 33.039062 C 3.667969 33.039062 2.734375 33 2.640625 32.882812 Z M 35.058594 29.960938 C 34.785156 29.644531 33.8125 29.082031 31.820312 28.058594 C 29.402344 26.839844 28.90625 26.628906 28.542969 26.695312 C 28.074219 26.785156 27.644531 26.601562 27.242188 26.132812 C 26.902344 25.738281 26.488281 23.890625 26.226562 21.699219 C 26.085938 20.53125 25.953125 19.941406 25.695312 19.40625 C 24.199219 16.324219 24.015625 16.023438 23.3125 15.234375 C 22.6875 14.554688 22.246094 14.238281 22.246094 14.476562 C 22.246094 14.554688 23.652344 18.042969 23.9375 18.683594 C 24.613281 20.191406 25.25 22 25.589844 23.417969 C 25.929688 24.832031 25.953125 25.054688 25.796875 25.359375 C 25.578125 25.777344 25.148438 25.804688 24.691406 25.4375 C 24.328125 25.160156 23.886719 24.320312 23.988281 24.136719 C 24.027344 24.085938 23.976562 23.628906 23.886719 23.128906 C 23.273438 20.046875 23.066406 19.472656 22.234375 18.617188 C 21.921875 18.304688 21.335938 17.609375 20.933594 17.070312 C 20.308594 16.246094 19.28125 15.339844 18.96875 15.339844 C 18.746094 15.339844 18.890625 15.800781 19.476562 17.007812 C 19.996094 18.066406 20.28125 18.460938 21.179688 19.351562 C 22.128906 20.308594 22.664062 21.121094 22.46875 21.320312 C 22.429688 21.359375 22.296875 21.214844 22.179688 21.019531 C 21.960938 20.625 19.382812 19.144531 18.941406 19.144531 C 18.683594 19.144531 18.667969 19.523438 18.917969 20.125 C 19.085938 20.507812 19.320312 20.675781 20.582031 21.320312 C 21.386719 21.726562 22.21875 22.105469 22.414062 22.144531 C 22.6875 22.210938 22.882812 22.40625 23.171875 22.917969 C 23.378906 23.300781 23.546875 23.667969 23.546875 23.746094 C 23.546875 23.8125 22.625 23.402344 21.503906 22.828125 C 19.710938 21.921875 19.398438 21.726562 19.03125 21.203125 C 18.65625 20.691406 18.488281 20.574219 17.730469 20.335938 C 16.730469 20.023438 16.679688 19.996094 16.289062 19.484375 C 15.808594 18.855469 15.714844 18.25 15.9375 17.203125 C 16.222656 15.8125 16.703125 14.84375 17.445312 14.136719 C 18.109375 13.519531 19.695312 12.613281 20.621094 12.324219 C 20.90625 12.246094 21.441406 12.039062 21.792969 11.867188 C 22.15625 11.695312 23.234375 11.34375 24.199219 11.078125 C 25.160156 10.816406 26.304688 10.488281 26.746094 10.359375 C 27.710938 10.070312 30.9375 9.964844 31.523438 10.203125 C 31.886719 10.359375 32.042969 10.648438 33.421875 13.6875 C 34.148438 15.289062 34.1875 15.484375 34.203125 17.253906 C 34.203125 18.1875 34.265625 19.417969 34.332031 19.996094 C 34.4375 20.847656 34.410156 21.371094 34.203125 22.734375 C 34.058594 23.667969 33.96875 24.503906 34.007812 24.597656 C 34.109375 24.871094 36.699219 26.132812 37.207031 26.15625 C 37.621094 26.183594 37.660156 26.234375 37.699219 26.617188 C 37.726562 26.878906 37.582031 27.480469 37.335938 28.136719 L 36.921875 29.226562 L 36.308594 29.265625 C 35.722656 29.304688 35.710938 29.316406 35.671875 29.761719 C 35.605469 30.417969 35.503906 30.457031 35.058594 29.960938 Z M 35.828125 27.925781 C 36.242188 26.878906 36.398438 27.035156 33.367188 25.632812 C 32.941406 25.4375 32.09375 25.042969 31.496094 24.753906 C 30.898438 24.480469 30.339844 24.269531 30.234375 24.308594 C 30.066406 24.375 29.53125 25.304688 29.53125 25.542969 C 29.53125 25.605469 29.988281 25.882812 30.546875 26.15625 C 32.707031 27.21875 35.332031 28.453125 35.464844 28.453125 C 35.554688 28.453125 35.710938 28.214844 35.828125 27.925781 Z M 29.375 24.164062 C 29.648438 23.46875 29.6875 23.101562 29.542969 22.394531 C 29.464844 22.015625 29.335938 20.914062 29.257812 19.941406 C 29.101562 18.042969 28.804688 16.796875 28.242188 15.867188 C 28.0625 15.539062 27.789062 15.050781 27.644531 14.789062 C 27.320312 14.148438 25.746094 12.46875 25.667969 12.679688 C 25.601562 12.863281 25.929688 13.832031 26.824219 16.128906 C 27.710938 18.355469 27.773438 18.578125 28.085938 20.453125 C 28.242188 21.359375 28.464844 22.511719 28.582031 23.011719 C 28.933594 24.597656 29.113281 24.847656 29.375 24.164062 Z M 32.5625 23.730469 C 32.535156 23.546875 32.496094 22.289062 32.472656 20.914062 C 32.394531 17.726562 32.09375 16.050781 31.273438 14.410156 C 30.898438 13.648438 30.53125 13.113281 30.167969 12.796875 C 29.648438 12.351562 29.269531 12.195312 29.269531 12.429688 C 29.269531 12.585938 29.988281 14.644531 30.246094 15.261719 C 30.570312 16.035156 30.921875 17.820312 31.15625 19.996094 C 31.40625 22.328125 31.664062 23.5625 31.964844 23.890625 C 32.261719 24.230469 32.601562 24.136719 32.5625 23.730469 Z M 62.964844 27.730469 L 62.964844 26.878906 L 71.550781 26.878906 C 78.859375 26.878906 80.136719 26.90625 80.136719 27.0625 C 80.136719 27.167969 79.785156 27.546875 79.34375 27.914062 L 78.550781 28.582031 L 62.964844 28.582031 Z M 61.960938 25.332031 C 61.46875 25.082031 61.273438 24.910156 61.273438 24.714844 C 61.273438 24.570312 61.261719 23.613281 61.234375 22.578125 C 61.222656 21.542969 61.234375 20.664062 61.273438 20.597656 C 61.3125 20.546875 61.609375 20.429688 61.960938 20.324219 C 62.925781 20.0625 80.644531 20.085938 81.371094 20.347656 L 81.890625 20.546875 L 81.890625 24.976562 L 81.242188 25.332031 L 80.589844 25.699219 L 71.613281 25.683594 L 62.640625 25.683594 Z M 64.003906 18.867188 C 64.003906 18.75 64.40625 18.132812 65.851562 16.0625 C 66.097656 15.695312 66.644531 14.910156 67.0625 14.292969 C 67.492188 13.675781 67.894531 13.136719 67.972656 13.085938 C 68.039062 13.035156 69.691406 12.980469 71.640625 12.980469 L 75.179688 12.980469 L 75.933594 14.054688 C 76.351562 14.632812 77.078125 15.683594 77.546875 16.375 C 78.015625 17.070312 78.585938 17.898438 78.796875 18.226562 C 79.015625 18.554688 79.171875 18.855469 79.148438 18.90625 C 79.042969 19.078125 64.003906 19.039062 64.003906 18.867188 Z M 14.117188 18.566406 C 13.972656 18.460938 12.917969 17.765625 11.761719 17.007812 C 10.617188 16.246094 9.601562 15.539062 9.511719 15.433594 C 9.316406 15.183594 9.160156 13.441406 9.316406 13.335938 C 9.394531 13.296875 9.824219 13.558594 10.277344 13.925781 C 11.421875 14.816406 12.710938 15.65625 13.789062 16.21875 L 14.703125 16.679688 L 14.703125 17.714844 C 14.703125 18.800781 14.636719 18.90625 14.117188 18.566406 Z M 14.101562 15.09375 C 12.738281 14.359375 9.886719 12.234375 9.886719 11.957031 C 9.886719 11.800781 11.175781 10.371094 11.460938 10.226562 C 11.65625 10.109375 11.90625 10.253906 12.90625 11.132812 C 14.273438 12.3125 14.816406 12.707031 15.769531 13.191406 C 16.484375 13.558594 16.46875 13.492188 15.808594 14.238281 C 15.730469 14.320312 15.558594 14.632812 15.429688 14.933594 C 15.144531 15.5625 15.011719 15.578125 14.101562 15.09375 Z M 14.101562 15.09375 "
    />
    <path
      d="M 7.613281 14.304688 C 7.402344 14.175781 6.777344 13.820312 6.246094 13.503906 C 4.605469 12.546875 4.292969 12.140625 4.292969 10.976562 C 4.292969 9.246094 5.476562 7.292969 7.339844 5.980469 C 8.390625 5.234375 9.082031 4.917969 10.34375 4.589844 C 12.347656 4.09375 12.75 4.210938 14.441406 5.796875 C 15.15625 6.464844 15.742188 7.054688 15.742188 7.121094 C 15.742188 7.171875 15.613281 7.210938 15.457031 7.210938 C 14.871094 7.210938 12.621094 8.105469 11.617188 8.71875 C 9.601562 9.992188 8.300781 11.800781 8.09375 13.664062 L 8 14.542969 Z M 7.636719 9.300781 C 7.636719 8.832031 7.261719 8.457031 6.800781 8.457031 C 6.335938 8.457031 5.960938 8.832031 5.960938 9.300781 C 5.960938 9.765625 6.335938 10.144531 6.800781 10.144531 C 7.261719 10.144531 7.636719 9.765625 7.636719 9.300781 Z M 10.902344 7.265625 C 11.515625 6.84375 10.980469 5.902344 10.121094 5.902344 C 9.746094 5.902344 9.109375 6.398438 9.109375 6.6875 C 9.109375 6.765625 9.25 6.976562 9.433594 7.148438 C 9.796875 7.527344 10.460938 7.578125 10.902344 7.265625 Z M 10.902344 7.265625 "
    />
    <path
      d="M 16.457031 12.179688 C 16.105469 12.050781 15.496094 11.722656 15.105469 11.445312 C 14.273438 10.871094 12.878906 9.597656 12.878906 9.414062 C 12.878906 9.285156 14.039062 8.746094 14.636719 8.601562 C 14.855469 8.550781 15.117188 8.484375 15.234375 8.445312 C 15.378906 8.40625 15.78125 8.734375 16.390625 9.363281 C 16.914062 9.914062 17.578125 10.515625 17.875 10.714844 C 18.175781 10.910156 18.433594 11.105469 18.472656 11.160156 C 18.511719 11.199219 18.667969 11.316406 18.839844 11.433594 L 19.136719 11.644531 L 18.421875 12.050781 C 17.601562 12.507812 17.367188 12.535156 16.457031 12.179688 Z M 68.195312 11.8125 C 68.078125 11.75 68.039062 11.421875 68.0625 10.671875 L 68.101562 9.636719 L 71.09375 9.597656 C 72.746094 9.585938 74.320312 9.613281 74.605469 9.675781 L 75.128906 9.78125 L 75.167969 10.765625 L 75.207031 11.761719 L 74.515625 11.839844 C 73.515625 11.972656 68.390625 11.945312 68.195312 11.8125 Z M 18.851562 9.859375 C 18.410156 9.574219 17.640625 8.878906 17.5 8.667969 C 17.316406 8.367188 17.847656 8.734375 18.605469 9.429688 C 19.34375 10.121094 19.421875 10.253906 18.851562 9.859375 Z M 2.1875 9.46875 C 1.785156 9.207031 1.183594 8.707031 0.847656 8.367188 C 0.507812 8.011719 0.183594 7.738281 0.117188 7.738281 C 0.0546875 7.738281 0 6.070312 0 3.867188 L 0 0 L 9.769531 0 L 9.992188 0.40625 C 10.394531 1.15625 10.980469 2.035156 11.410156 2.546875 C 11.644531 2.832031 11.8125 3.082031 11.789062 3.109375 C 11.761719 3.136719 11.371094 3.214844 10.914062 3.292969 C 7.402344 3.84375 4.28125 6.386719 3.382812 9.414062 C 3.292969 9.714844 3.148438 9.964844 3.070312 9.953125 C 2.992188 9.953125 2.589844 9.730469 2.1875 9.46875 Z M 68.128906 8.433594 C 68.078125 8.390625 68.039062 8 68.039062 7.578125 C 68.039062 6.964844 68.078125 6.820312 68.246094 6.820312 C 68.363281 6.820312 68.648438 6.699219 68.882812 6.558594 C 69.285156 6.308594 69.496094 6.292969 72.214844 6.320312 L 75.128906 6.359375 L 75.128906 8.457031 L 71.667969 8.496094 C 69.769531 8.511719 68.179688 8.484375 68.128906 8.433594 Z M 69.625 4.601562 C 69.417969 3.921875 69.027344 3.460938 68.492188 3.265625 L 68.039062 3.09375 L 68.039062 2.152344 C 68.039062 1.628906 68.078125 1.117188 68.117188 0.996094 C 68.179688 0.8125 68.609375 0.789062 71.550781 0.789062 L 74.90625 0.789062 L 75.050781 1.15625 C 75.246094 1.640625 75.167969 2.347656 74.867188 2.792969 C 74.582031 3.253906 74.449219 4.445312 74.660156 4.839844 L 74.816406 5.113281 L 69.769531 5.113281 Z M 69.625 4.601562 "
    />
  </g>
</svg>
