<svg xmlns="http://www.w3.org/2000/svg" id="root" viewBox="0 0 99 59">
  <g>
    <path
      d="M 0.0273438 51.519531 C 0.0273438 44.046875 0.0273438 44.046875 0.371094 43.722656 C 0.71875 43.398438 0.71875 43.398438 5.160156 43.398438 C 7.597656 43.398438 10.261719 43.417969 11.078125 43.441406 C 12.5625 43.480469 12.5625 43.480469 12.699219 43.605469 C 13.035156 43.933594 13.808594 45.269531 14.722656 47.109375 C 16.21875 50.117188 16.816406 51.734375 17.257812 53.949219 C 17.660156 55.941406 17.714844 57.292969 17.449219 58.417969 C 17.320312 58.976562 17.320312 58.976562 8.671875 58.988281 C 0.0273438 58.996094 0.0273438 58.996094 0.0273438 51.519531 Z M 2.03125 46.890625 C 2.398438 46.585938 3.089844 45.738281 3.316406 45.3125 C 3.410156 45.132812 3.421875 45.074219 3.382812 45.042969 C 3.292969 44.96875 2.835938 44.914062 2.265625 44.917969 C 1.609375 44.917969 1.367188 44.957031 1.226562 45.0625 C 1.128906 45.140625 1.117188 45.167969 1.121094 45.378906 C 1.128906 45.617188 1.492188 46.910156 1.585938 47.023438 C 1.652344 47.105469 1.839844 47.050781 2.03125 46.890625 Z M 6.78125 46.929688 C 7.265625 46.4375 8.039062 45.257812 7.976562 45.09375 C 7.949219 45.019531 7.664062 44.96875 6.992188 44.914062 C 6.3125 44.859375 5.398438 44.875 5.269531 44.949219 C 4.96875 45.113281 5.125 45.488281 5.910156 46.484375 C 6.242188 46.898438 6.429688 47.070312 6.574219 47.070312 C 6.613281 47.070312 6.703125 47.007812 6.78125 46.929688 Z M 11.753906 46.835938 C 11.960938 46.507812 12.230469 45.597656 12.230469 45.21875 C 12.230469 44.949219 12.21875 44.949219 11.085938 44.964844 C 10.023438 44.984375 9.8125 45.015625 9.8125 45.15625 C 9.8125 45.371094 10.792969 46.519531 11.320312 46.921875 C 11.527344 47.082031 11.609375 47.0625 11.753906 46.835938 Z M 49.601562 58.960938 C 49.488281 58.941406 49.351562 58.898438 49.296875 58.859375 C 49.179688 58.785156 49.09375 58.511719 49.058594 58.078125 C 49.042969 57.914062 49.007812 57.71875 48.976562 57.648438 C 48.949219 57.578125 48.910156 57.308594 48.898438 57.050781 C 48.878906 56.605469 48.835938 56.269531 48.703125 55.546875 C 48.671875 55.371094 48.640625 55.140625 48.640625 55.027344 C 48.640625 54.792969 48.585938 54.671875 48.523438 54.769531 C 48.492188 54.816406 48.484375 54.804688 48.484375 54.71875 C 48.484375 54.652344 48.503906 54.609375 48.539062 54.609375 C 48.578125 54.609375 48.601562 54.519531 48.621094 54.28125 C 48.773438 52.382812 49.644531 50.785156 51.25 49.449219 C 51.511719 49.230469 51.601562 49.136719 51.558594 49.121094 C 51.4375 49.070312 51.996094 48.632812 52.785156 48.15625 C 54.976562 46.832031 57.632812 45.832031 60.601562 45.21875 C 61.390625 45.054688 61.359375 45.054688 61.359375 45.136719 C 61.359375 45.214844 61.429688 45.210938 61.933594 45.09375 C 62.519531 44.960938 62.738281 44.882812 62.785156 44.796875 C 62.875 44.632812 62.910156 43.199219 62.941406 38.09375 C 62.984375 32.296875 63.015625 29.992188 63.0625 29.917969 C 63.105469 29.855469 65.132812 29.808594 69.582031 29.777344 C 73.902344 29.75 77.117188 29.792969 77.171875 29.878906 C 77.195312 29.917969 77.207031 29.921875 77.207031 29.890625 C 77.207031 29.863281 77.230469 29.835938 77.25 29.835938 C 77.324219 29.835938 77.289062 30.070312 77.183594 30.21875 C 76.953125 30.570312 76.65625 30.789062 76.421875 30.796875 C 76.324219 30.796875 76.324219 30.796875 76.402344 30.707031 C 76.441406 30.660156 76.453125 30.636719 76.421875 30.65625 C 76.386719 30.671875 75.945312 30.699219 75.429688 30.710938 C 74.167969 30.742188 74.117188 30.773438 74.433594 31.363281 C 74.878906 32.191406 74.953125 32.371094 74.910156 32.496094 C 74.875 32.59375 74.878906 32.601562 74.925781 32.542969 C 75.066406 32.359375 75.066406 32.5625 74.925781 32.839844 C 74.867188 32.953125 74.609375 33.375 74.347656 33.777344 C 72.652344 36.410156 71.46875 38.976562 70.714844 41.664062 C 70.414062 42.738281 70.367188 42.953125 70.4375 43.019531 C 70.5 43.085938 71 43.03125 72.589844 42.800781 C 74.804688 42.484375 76.226562 42.417969 80.476562 42.457031 C 82.132812 42.472656 83.917969 42.503906 84.441406 42.523438 C 86.375 42.597656 88.183594 42.613281 88.878906 42.566406 C 91.003906 42.414062 93.515625 41.90625 95.554688 41.21875 C 96.921875 40.753906 97.78125 40.332031 98.28125 39.867188 C 98.628906 39.546875 98.71875 39.492188 98.867188 39.492188 C 98.988281 39.492188 98.988281 39.492188 98.996094 41.621094 C 99 43.109375 98.988281 43.757812 98.960938 43.777344 C 98.9375 43.792969 98.929688 43.835938 98.941406 43.875 C 98.957031 43.929688 98.882812 43.96875 98.496094 44.109375 C 96.761719 44.734375 94.632812 45.128906 92.128906 45.273438 C 90.058594 45.398438 85.917969 45.390625 84.121094 45.253906 C 83.09375 45.179688 82.578125 45.125 80.675781 44.875 C 77.785156 44.496094 77.316406 44.464844 75.207031 44.484375 C 74.03125 44.496094 73.585938 44.515625 73.492188 44.550781 C 73.417969 44.585938 73.375 44.621094 73.394531 44.640625 C 73.425781 44.671875 73.941406 44.757812 74.457031 44.816406 C 74.714844 44.84375 75.476562 45.003906 75.820312 45.097656 C 76.40625 45.261719 77.851562 45.730469 77.808594 45.746094 C 77.6875 45.785156 77.796875 45.863281 78.132812 45.984375 C 78.550781 46.132812 78.554688 46.132812 78.554688 46.046875 C 78.554688 46.003906 78.578125 45.992188 78.628906 46.003906 C 78.664062 46.019531 79.292969 46.230469 80.023438 46.484375 C 84.222656 47.914062 86.554688 48.347656 90.105469 48.347656 C 92.984375 48.347656 94.625 48.179688 96.347656 47.707031 C 97.46875 47.402344 97.832031 47.222656 98.433594 46.671875 C 98.667969 46.453125 98.886719 46.277344 98.910156 46.273438 C 98.9375 46.273438 98.96875 46.3125 98.980469 46.363281 C 98.996094 46.414062 99 47.492188 98.992188 48.757812 C 98.984375 50.527344 98.96875 51.066406 98.929688 51.105469 C 98.871094 51.167969 96.007812 51.585938 95.007812 51.679688 C 94.046875 51.769531 91.875 51.742188 90.621094 51.621094 C 87.851562 51.351562 85.027344 50.773438 81.667969 49.789062 C 80.828125 49.546875 78.960938 48.925781 75.703125 47.8125 C 73.828125 47.167969 70.945312 46.429688 70.308594 46.429688 C 70.089844 46.429688 69.894531 46.53125 69.824219 46.6875 C 69.71875 46.90625 69.675781 47.515625 69.675781 48.765625 C 69.679688 51.042969 69.820312 52.476562 70.253906 54.609375 C 70.5625 56.132812 70.984375 57.644531 71.246094 58.160156 C 71.359375 58.382812 71.375 58.527344 71.285156 58.492188 C 71.246094 58.476562 71.257812 58.527344 71.328125 58.652344 C 71.382812 58.757812 71.417969 58.855469 71.402344 58.886719 C 71.382812 58.914062 71.410156 58.902344 71.457031 58.859375 C 71.542969 58.785156 71.542969 58.785156 71.542969 58.863281 C 71.542969 58.953125 71.382812 59.023438 71.34375 58.957031 C 71.332031 58.933594 70.90625 58.933594 70.253906 58.957031 C 69.664062 58.976562 67.789062 58.996094 66.085938 58.996094 C 62.984375 58.996094 62.984375 58.996094 62.980469 56.535156 C 62.976562 53.257812 62.917969 48.246094 62.878906 48.046875 C 62.84375 47.886719 62.84375 47.886719 62.628906 47.886719 C 62.441406 47.886719 62.339844 47.921875 61.933594 48.125 C 61.535156 48.332031 61.460938 48.382812 61.449219 48.464844 C 61.441406 48.542969 61.367188 48.605469 61.128906 48.742188 C 58.738281 50.128906 56.773438 51.707031 55.359375 53.390625 C 54.953125 53.871094 54.449219 54.578125 54.257812 54.9375 C 54.15625 55.109375 54.109375 55.167969 54.039062 55.167969 C 53.964844 55.167969 53.921875 55.21875 53.8125 55.457031 C 53.378906 56.410156 53.332031 57.253906 53.671875 58.265625 C 53.941406 59.082031 53.992188 59.007812 53.121094 58.988281 C 51.976562 58.964844 52.03125 59.042969 52.035156 57.320312 C 52.035156 55.523438 52.148438 54.804688 52.570312 53.894531 C 52.722656 53.566406 52.753906 53.46875 52.71875 53.40625 C 52.671875 53.320312 52.710938 53.242188 53.070312 52.714844 C 53.871094 51.546875 55.421875 50.078125 56.902344 49.089844 C 57.679688 48.570312 60.3125 47.066406 60.792969 46.863281 C 60.988281 46.78125 61.066406 46.710938 60.960938 46.710938 C 60.863281 46.710938 59.722656 47 59.246094 47.148438 C 57.878906 47.574219 56.070312 48.316406 55.636719 48.640625 C 55.570312 48.691406 55.300781 48.851562 55.042969 49.003906 C 54.527344 49.296875 54.027344 49.679688 53.484375 50.191406 C 53.085938 50.566406 52.445312 51.242188 52.25 51.488281 C 52.121094 51.648438 52.011719 51.707031 52.011719 51.609375 C 52.011719 51.449219 51.460938 52.246094 51.167969 52.832031 C 50.824219 53.507812 50.550781 54.3125 50.449219 54.949219 C 50.355469 55.507812 50.292969 56.386719 50.324219 56.777344 C 50.34375 57.082031 50.363281 57.15625 50.464844 57.3125 C 50.597656 57.515625 50.703125 57.78125 50.84375 58.269531 C 50.972656 58.71875 50.972656 58.867188 50.839844 58.917969 C 50.703125 58.96875 49.851562 59 49.601562 58.960938 Z M 67.90625 32.808594 C 68.226562 32.464844 69.046875 31.109375 69.046875 30.925781 C 69.046875 30.898438 69 30.84375 68.941406 30.808594 C 68.84375 30.742188 68.71875 30.734375 67.660156 30.734375 C 66.457031 30.734375 66.273438 30.757812 66.273438 30.898438 C 66.273438 31.226562 67.214844 32.71875 67.574219 32.957031 C 67.6875 33.03125 67.707031 33.023438 67.90625 32.808594 Z M 71.886719 32.859375 C 72.113281 32.648438 72.308594 32.394531 72.742188 31.746094 C 73.097656 31.214844 73.246094 30.898438 73.183594 30.835938 C 73.089844 30.738281 72.636719 30.707031 71.542969 30.722656 C 70.257812 30.742188 70.171875 30.757812 70.210938 30.964844 C 70.28125 31.328125 71.03125 32.597656 71.339844 32.882812 C 71.554688 33.078125 71.65625 33.074219 71.886719 32.859375 Z M 64.824219 32.738281 C 65.042969 32.449219 65.457031 31.433594 65.503906 31.058594 C 65.527344 30.898438 65.519531 30.878906 65.417969 30.8125 C 65.328125 30.75 65.210938 30.730469 64.816406 30.71875 C 64.015625 30.699219 63.820312 30.800781 63.871094 31.199219 C 63.957031 31.828125 64.4375 32.871094 64.648438 32.871094 C 64.6875 32.871094 64.769531 32.808594 64.824219 32.738281 Z M 24.59375 57.929688 C 24.445312 57.410156 24.464844 56.789062 24.65625 55.925781 C 24.960938 54.550781 25.75 52.777344 26.363281 52.089844 C 26.5625 51.871094 26.699219 51.835938 27.390625 51.839844 C 28.046875 51.84375 28.277344 51.890625 28.277344 52.019531 C 28.277344 52.0625 28.113281 52.386719 27.914062 52.746094 C 27.257812 53.910156 26.359375 55.796875 26.308594 56.097656 C 26.257812 56.414062 26.632812 56.5 27.972656 56.476562 C 28.839844 56.460938 28.902344 56.457031 29.085938 56.363281 C 29.246094 56.289062 29.296875 56.234375 29.371094 56.070312 C 29.417969 55.957031 29.476562 55.738281 29.5 55.582031 C 29.640625 54.664062 30.261719 52.78125 30.652344 52.121094 C 30.832031 51.804688 30.832031 51.804688 32.730469 51.832031 C 33.777344 51.84375 37.078125 51.855469 40.070312 51.855469 C 45.511719 51.855469 45.511719 51.855469 45.730469 52.128906 C 46.609375 53.191406 47.503906 55.808594 47.636719 57.691406 C 47.660156 58.078125 47.660156 58.078125 36.148438 58.078125 C 24.636719 58.078125 24.636719 58.078125 24.59375 57.929688 Z M 35.347656 56.554688 C 35.441406 56.527344 35.585938 56.425781 35.695312 56.324219 C 36.128906 55.902344 36.066406 55.214844 35.558594 54.859375 C 35.410156 54.761719 35.367188 54.75 35.050781 54.75 C 34.742188 54.75 34.691406 54.761719 34.542969 54.859375 C 34.046875 55.191406 33.96875 55.847656 34.375 56.289062 C 34.644531 56.578125 34.964844 56.667969 35.347656 56.554688 Z M 39.089844 54.476562 C 39.425781 54.253906 39.585938 53.847656 39.488281 53.449219 C 39.425781 53.179688 39.117188 52.84375 38.875 52.777344 C 38.242188 52.601562 37.648438 53.035156 37.65625 53.671875 C 37.660156 53.960938 37.738281 54.160156 37.929688 54.351562 C 38.140625 54.566406 38.273438 54.613281 38.621094 54.601562 C 38.871094 54.589844 38.949219 54.574219 39.089844 54.476562 Z M 36.765625 54.003906 C 37.085938 53.753906 37.164062 53.277344 36.9375 52.933594 C 36.796875 52.714844 36.46875 52.554688 36.234375 52.589844 C 35.988281 52.628906 35.777344 52.757812 35.660156 52.941406 C 35.5625 53.082031 35.546875 53.148438 35.546875 53.371094 C 35.546875 53.59375 35.5625 53.664062 35.65625 53.804688 C 35.816406 54.050781 36 54.132812 36.34375 54.117188 C 36.578125 54.109375 36.648438 54.089844 36.765625 54.003906 Z M 36.765625 54.003906 "
    />
    <path
      d="M 75.566406 54.773438 C 75.367188 54.679688 75.171875 54.476562 75.09375 54.28125 C 75 54.0625 75.011719 53.480469 75.105469 53.273438 C 75.195312 53.078125 75.398438 52.878906 75.59375 52.796875 C 75.769531 52.722656 76.277344 52.714844 76.503906 52.78125 C 76.59375 52.808594 76.738281 52.902344 76.832031 53 C 77.066406 53.234375 77.144531 53.484375 77.121094 53.894531 C 77.097656 54.285156 76.96875 54.523438 76.679688 54.707031 C 76.5 54.816406 76.449219 54.828125 76.101562 54.839844 C 75.792969 54.847656 75.691406 54.835938 75.566406 54.773438 Z M 95.6875 54.652344 C 95.480469 54.558594 95.261719 54.292969 95.195312 54.070312 C 95.167969 53.972656 95.152344 53.753906 95.160156 53.578125 C 95.175781 53.300781 95.191406 53.238281 95.296875 53.089844 C 95.363281 52.992188 95.492188 52.863281 95.589844 52.792969 C 95.738281 52.6875 95.792969 52.675781 96.097656 52.65625 C 96.285156 52.648438 96.507812 52.667969 96.589844 52.691406 C 96.789062 52.75 97.050781 52.988281 97.140625 53.191406 C 97.238281 53.398438 97.246094 53.945312 97.152344 54.160156 C 97.074219 54.355469 96.875 54.5625 96.683594 54.652344 C 96.464844 54.757812 95.914062 54.757812 95.6875 54.652344 Z M 78.996094 52.128906 C 78.898438 52.074219 78.765625 51.96875 78.699219 51.882812 C 78.59375 51.753906 78.578125 51.699219 78.5625 51.402344 C 78.546875 51.109375 78.558594 51.039062 78.636719 50.878906 C 78.761719 50.613281 78.96875 50.488281 79.3125 50.46875 C 79.691406 50.445312 79.84375 50.484375 80.023438 50.644531 C 80.234375 50.839844 80.316406 51.066406 80.292969 51.414062 C 80.265625 51.746094 80.179688 51.910156 79.949219 52.070312 C 79.8125 52.171875 79.742188 52.191406 79.480469 52.203125 C 79.214844 52.21875 79.144531 52.207031 78.996094 52.128906 Z M 27.808594 50.699219 C 27.605469 50.652344 27.578125 50.601562 27.660156 50.441406 C 27.894531 50.003906 30.085938 48.15625 31.339844 47.332031 C 32.089844 46.839844 32.03125 46.859375 33.089844 46.839844 C 33.59375 46.832031 34.363281 46.835938 34.808594 46.851562 C 35.605469 46.878906 35.605469 46.878906 35.605469 48.765625 C 35.605469 50.652344 35.605469 50.652344 35.085938 50.675781 C 33.390625 50.746094 31.675781 50.730469 31.53125 50.640625 C 31.472656 50.605469 31.566406 50.382812 31.78125 50.058594 C 32.140625 49.511719 32.199219 49.3125 32.023438 49.230469 C 31.960938 49.203125 31.71875 49.183594 31.4375 49.183594 C 30.777344 49.183594 30.753906 49.195312 29.917969 50.050781 C 29.246094 50.738281 29.246094 50.738281 28.589844 50.734375 C 28.234375 50.730469 27.882812 50.714844 27.808594 50.699219 Z M 36.976562 50.675781 C 36.886719 50.445312 36.84375 46.96875 36.925781 46.882812 C 36.941406 46.871094 37.585938 46.855469 38.351562 46.855469 C 39.414062 46.851562 39.785156 46.863281 39.894531 46.902344 C 40.066406 46.960938 41.75 48.089844 42.164062 48.421875 C 43.160156 49.210938 44.511719 50.476562 44.472656 50.582031 C 44.460938 50.617188 44.367188 50.652344 44.242188 50.671875 C 44.121094 50.6875 42.445312 50.710938 40.515625 50.722656 C 37.109375 50.746094 37.007812 50.746094 36.976562 50.675781 Z M 32.277344 44.117188 C 32.277344 42.59375 32.277344 42.59375 33.109375 42.617188 C 33.570312 42.628906 34.320312 42.652344 34.773438 42.664062 C 35.605469 42.691406 35.605469 42.691406 35.605469 44.117188 C 35.605469 45.761719 35.863281 45.574219 33.558594 45.617188 C 32.277344 45.640625 32.277344 45.640625 32.277344 44.117188 Z M 36.933594 44.90625 C 36.894531 43.863281 36.890625 42.996094 36.925781 42.871094 C 36.984375 42.65625 37.117188 42.632812 38.449219 42.609375 C 39.453125 42.59375 39.648438 42.597656 39.664062 42.644531 C 39.691406 42.734375 39.753906 45.070312 39.734375 45.300781 C 39.71875 45.503906 39.714844 45.515625 39.578125 45.558594 C 39.480469 45.589844 38.976562 45.613281 38.199219 45.621094 C 36.960938 45.640625 36.960938 45.640625 36.933594 44.90625 Z M 2.8125 42.253906 C 1.550781 42.242188 1.257812 42.230469 1.257812 42.1875 C 1.257812 42.160156 1.414062 41.644531 1.609375 41.042969 C 2.019531 39.765625 2.246094 39 2.246094 38.871094 C 2.246094 38.824219 2.269531 38.765625 2.296875 38.742188 C 2.402344 38.65625 3.199219 38.644531 7.003906 38.671875 C 10.953125 38.703125 10.953125 38.703125 11.078125 39.214844 C 11.242188 39.875 11.699219 41.265625 11.929688 41.792969 C 12.023438 42.019531 12.09375 42.210938 12.078125 42.21875 C 12.035156 42.242188 4.710938 42.273438 2.8125 42.253906 Z M 92.597656 41.601562 C 92.394531 41.554688 92.128906 41.328125 92.019531 41.109375 C 91.949219 40.980469 91.933594 40.878906 91.929688 40.582031 C 91.929688 40.25 91.9375 40.207031 92.046875 40.027344 C 92.113281 39.921875 92.246094 39.777344 92.335938 39.714844 C 92.484375 39.605469 92.542969 39.59375 92.859375 39.578125 C 93.285156 39.558594 93.488281 39.617188 93.703125 39.835938 C 93.917969 40.050781 93.980469 40.253906 93.964844 40.679688 C 93.949219 41.003906 93.9375 41.058594 93.828125 41.210938 C 93.640625 41.480469 93.402344 41.609375 93.054688 41.625 C 92.890625 41.632812 92.6875 41.625 92.597656 41.601562 Z M 32.300781 41.398438 C 32.292969 41.371094 32.238281 41.167969 32.183594 40.945312 C 32.074219 40.496094 31.917969 40.054688 31.707031 39.601562 C 31.554688 39.269531 31.53125 39.117188 31.625 39.074219 C 31.882812 38.976562 35.007812 38.949219 35.351562 39.042969 C 35.417969 39.0625 35.488281 39.121094 35.515625 39.179688 C 35.582031 39.316406 35.640625 39.914062 35.664062 40.757812 C 35.683594 41.445312 35.683594 41.445312 34 41.445312 C 32.6875 41.445312 32.3125 41.433594 32.300781 41.398438 Z M 37.304688 41.410156 C 37.15625 41.394531 37.015625 41.363281 36.984375 41.332031 C 36.945312 41.292969 36.933594 41.058594 36.933594 40.335938 C 36.933594 39.207031 36.945312 39.117188 37.125 39.050781 C 37.347656 38.972656 38.855469 38.921875 39.589844 38.964844 C 40.507812 39.023438 40.574219 39.082031 40.304688 39.605469 C 40.179688 39.855469 39.984375 40.433594 39.816406 41.066406 C 39.738281 41.34375 39.738281 41.34375 39.527344 41.371094 C 39.214844 41.40625 37.617188 41.433594 37.304688 41.410156 Z M 79.121094 40.648438 C 78.949219 40.609375 78.820312 40.515625 78.691406 40.34375 C 78.59375 40.222656 78.578125 40.15625 78.5625 39.871094 C 78.546875 39.582031 78.558594 39.511719 78.636719 39.351562 C 78.761719 39.082031 78.96875 38.960938 79.3125 38.941406 C 79.683594 38.917969 79.839844 38.953125 80.011719 39.105469 C 80.269531 39.335938 80.367188 39.738281 80.253906 40.148438 C 80.144531 40.546875 79.636719 40.769531 79.121094 40.648438 Z M 30.65625 37.859375 C 30.46875 37.84375 30.292969 37.820312 30.269531 37.804688 C 30.179688 37.746094 30.214844 37.558594 30.371094 37.300781 C 30.640625 36.839844 31.246094 36.304688 31.695312 36.132812 C 31.972656 36.023438 32.945312 35.976562 34.398438 35.988281 C 35.585938 36 35.585938 36 35.597656 36.894531 C 35.601562 37.386719 35.59375 37.804688 35.578125 37.820312 C 35.535156 37.855469 31.085938 37.890625 30.65625 37.859375 Z M 36.96875 37.328125 C 37.035156 35.84375 36.921875 35.996094 37.996094 35.96875 C 39.628906 35.929688 40.132812 36.003906 40.707031 36.386719 C 41.292969 36.777344 41.96875 37.566406 41.839844 37.699219 C 41.820312 37.71875 41.683594 37.753906 41.542969 37.777344 C 41.191406 37.828125 39.125 37.894531 37.929688 37.894531 C 36.945312 37.894531 36.945312 37.894531 36.96875 37.328125 Z M 2.648438 37.460938 C 2.601562 37.433594 2.59375 37.316406 2.621094 36.832031 C 2.65625 36.125 2.792969 34.261719 2.8125 34.238281 C 2.832031 34.222656 4.351562 34.292969 4.363281 34.3125 C 4.367188 34.320312 4.359375 34.558594 4.34375 34.84375 C 4.324219 35.132812 4.296875 35.765625 4.269531 36.261719 C 4.230469 37.207031 4.199219 37.394531 4.058594 37.4375 C 3.914062 37.480469 2.707031 37.503906 2.648438 37.460938 Z M 5.410156 37.46875 C 5.265625 37.457031 5.207031 37.433594 5.171875 37.363281 C 5.132812 37.300781 5.121094 36.972656 5.121094 36.101562 C 5.125 34.886719 5.167969 34.382812 5.28125 34.265625 C 5.328125 34.214844 5.507812 34.207031 6.398438 34.210938 C 7.390625 34.210938 7.875 34.253906 7.960938 34.335938 C 8.015625 34.394531 8.070312 35.140625 8.097656 36.265625 C 8.121094 37.367188 8.121094 37.367188 8.027344 37.421875 C 7.953125 37.464844 7.675781 37.476562 6.761719 37.480469 C 6.121094 37.484375 5.511719 37.476562 5.410156 37.46875 Z M 9.15625 37.453125 C 9.089844 37.433594 9.011719 37.394531 8.984375 37.359375 C 8.921875 37.285156 8.867188 36.230469 8.863281 35.140625 C 8.863281 34.351562 8.871094 34.273438 8.933594 34.246094 C 9.042969 34.203125 10.011719 34.167969 10.261719 34.203125 C 10.53125 34.238281 10.503906 34.125 10.582031 35.480469 C 10.71875 37.742188 10.789062 37.496094 9.988281 37.492188 C 9.597656 37.492188 9.222656 37.472656 9.15625 37.453125 Z M 76.417969 36.65625 C 75.53125 36.644531 74.730469 36.625 74.625 36.621094 C 74.433594 36.617188 74.433594 36.617188 74.433594 36.46875 C 74.433594 36.28125 74.550781 36.054688 74.679688 35.992188 C 74.945312 35.859375 75.675781 35.847656 87.289062 35.832031 C 93.628906 35.824219 98.855469 35.824219 98.910156 35.839844 C 98.996094 35.859375 99 35.875 99 36.28125 C 99 36.699219 99 36.699219 88.511719 36.691406 C 82.738281 36.6875 77.300781 36.671875 76.417969 36.65625 Z M 4.089844 33.027344 C 3.066406 33 2.789062 32.976562 2.695312 32.898438 C 2.617188 32.835938 2.53125 32.503906 2.40625 31.746094 C 2.34375 31.359375 2.21875 30.738281 2.128906 30.367188 C 1.949219 29.621094 1.546875 28.316406 1.484375 28.277344 C 1.460938 28.261719 1.246094 28.214844 1.003906 28.167969 C 0.761719 28.117188 0.53125 28.066406 0.492188 28.054688 C 0.425781 28.039062 0.421875 27.988281 0.433594 27.351562 C 0.449219 26.558594 0.453125 26.546875 0.847656 26.242188 C 0.976562 26.148438 1.234375 25.945312 1.421875 25.796875 C 1.769531 25.527344 1.769531 25.527344 6.335938 25.542969 C 9.574219 25.554688 10.972656 25.574219 11.140625 25.605469 C 11.683594 25.710938 12.214844 26.101562 12.507812 26.605469 C 12.699219 26.9375 12.78125 27.21875 12.8125 27.648438 C 12.832031 27.957031 12.828125 28 12.753906 28.074219 C 12.707031 28.121094 12.597656 28.167969 12.480469 28.183594 C 11.863281 28.265625 11.695312 28.351562 11.582031 28.648438 C 11.421875 29.042969 10.855469 31.476562 10.742188 32.253906 C 10.667969 32.769531 10.621094 32.898438 10.515625 32.957031 C 10.34375 33.046875 6.515625 33.09375 4.089844 33.027344 Z M 35.191406 30.097656 C 34.886719 29.792969 34.644531 29.621094 34.042969 29.269531 C 32.921875 28.617188 30.273438 27.273438 29.40625 26.914062 C 29.03125 26.757812 28.984375 26.75 28.496094 26.726562 C 28.019531 26.707031 27.964844 26.695312 27.769531 26.585938 C 27.449219 26.410156 27.167969 26.082031 27.039062 25.726562 C 26.773438 25.007812 26.503906 23.644531 26.21875 21.5625 C 26.019531 20.101562 25.976562 19.976562 25.175781 18.359375 C 24.800781 17.597656 24.417969 16.851562 24.335938 16.695312 C 23.933594 15.96875 23.570312 15.484375 23.003906 14.9375 C 22.617188 14.5625 22.367188 14.394531 22.296875 14.460938 C 22.273438 14.488281 22.34375 14.714844 22.488281 15.097656 C 22.847656 16.039062 23.730469 18.207031 23.957031 18.707031 C 24.738281 20.445312 25.425781 22.511719 25.78125 24.203125 C 25.921875 24.859375 25.929688 25.121094 25.824219 25.355469 C 25.523438 26.019531 24.632812 25.6875 24.164062 24.734375 C 24.039062 24.476562 24.023438 24.40625 24.015625 24.105469 C 24.003906 23.691406 23.996094 23.640625 23.777344 22.558594 C 23.558594 21.488281 23.328125 20.542969 23.183594 20.144531 C 22.949219 19.492188 22.757812 19.191406 22.140625 18.527344 C 21.957031 18.332031 21.546875 17.847656 21.230469 17.453125 C 20.546875 16.605469 20.136719 16.164062 19.699219 15.808594 C 19.226562 15.425781 18.957031 15.308594 18.902344 15.457031 C 18.84375 15.609375 19.15625 16.394531 19.675781 17.382812 C 20.0625 18.125 20.308594 18.453125 21.109375 19.292969 C 22.0625 20.285156 22.492188 20.871094 22.507812 21.195312 C 22.515625 21.386719 22.429688 21.351562 22.238281 21.101562 C 22.039062 20.832031 21.457031 20.414062 20.613281 19.933594 C 19.585938 19.34375 18.980469 19.105469 18.828125 19.226562 C 18.679688 19.351562 18.835938 20.078125 19.078125 20.378906 C 19.140625 20.460938 19.316406 20.613281 19.464844 20.714844 C 19.917969 21.03125 22.015625 22.058594 22.445312 22.175781 C 22.671875 22.238281 22.847656 22.40625 23.0625 22.75 C 23.285156 23.113281 23.582031 23.726562 23.546875 23.761719 C 23.476562 23.835938 20.941406 22.609375 19.976562 22.035156 C 19.515625 21.761719 19.335938 21.605469 19.046875 21.222656 C 18.664062 20.71875 18.425781 20.558594 17.730469 20.359375 C 17.324219 20.242188 16.878906 20.070312 16.726562 19.96875 C 16.558594 19.859375 16.191406 19.378906 16.054688 19.085938 C 15.808594 18.578125 15.785156 18.117188 15.960938 17.234375 C 16.125 16.378906 16.460938 15.507812 16.855469 14.914062 C 17.214844 14.359375 17.648438 13.957031 18.386719 13.488281 C 19.191406 12.972656 19.902344 12.621094 20.734375 12.328125 C 20.992188 12.234375 21.367188 12.089844 21.5625 12.007812 C 22.40625 11.652344 23.136719 11.417969 25.367188 10.789062 C 26.699219 10.410156 26.996094 10.335938 27.265625 10.292969 C 28.535156 10.09375 30.972656 10.0625 31.496094 10.234375 C 31.640625 10.285156 31.722656 10.347656 31.835938 10.488281 C 32.023438 10.722656 32.460938 11.585938 32.984375 12.746094 C 33.207031 13.226562 33.441406 13.738281 33.511719 13.882812 C 33.710938 14.296875 33.972656 14.957031 34.042969 15.238281 C 34.164062 15.726562 34.183594 15.9375 34.21875 17.453125 C 34.257812 18.886719 34.273438 19.175781 34.382812 20.390625 C 34.4375 21.003906 34.402344 21.46875 34.199219 22.878906 C 34.125 23.402344 34.050781 24.019531 34.039062 24.238281 C 34.011719 24.644531 34.011719 24.644531 34.203125 24.789062 C 34.464844 24.980469 35.347656 25.453125 35.941406 25.722656 C 36.527344 25.984375 37.019531 26.152344 37.316406 26.1875 C 37.652344 26.222656 37.6875 26.289062 37.683594 26.761719 C 37.679688 27.214844 37.609375 27.480469 37.207031 28.535156 C 36.941406 29.226562 36.941406 29.226562 36.703125 29.253906 C 36.574219 29.265625 36.382812 29.277344 36.285156 29.277344 C 36.0625 29.277344 35.828125 29.339844 35.769531 29.414062 C 35.746094 29.441406 35.707031 29.617188 35.683594 29.800781 C 35.644531 30.144531 35.570312 30.316406 35.472656 30.316406 C 35.441406 30.316406 35.3125 30.214844 35.191406 30.097656 Z M 35.683594 28.269531 C 35.839844 28.011719 36.042969 27.445312 36.042969 27.261719 C 36.042969 26.996094 35.859375 26.84375 35.109375 26.472656 C 34.765625 26.300781 34.445312 26.148438 34.398438 26.128906 C 34.351562 26.109375 33.5625 25.746094 32.652344 25.316406 C 30.953125 24.519531 30.457031 24.316406 30.292969 24.339844 C 30.171875 24.355469 29.941406 24.664062 29.714844 25.121094 C 29.570312 25.414062 29.539062 25.507812 29.570312 25.5625 C 29.621094 25.644531 29.835938 25.792969 30.179688 25.980469 C 30.746094 26.292969 34.605469 28.125 35.183594 28.363281 C 35.5 28.488281 35.550781 28.480469 35.683594 28.269531 Z M 29.214844 24.5 C 29.285156 24.457031 29.453125 24.058594 29.546875 23.722656 C 29.640625 23.375 29.648438 22.875 29.566406 22.429688 C 29.480469 21.988281 29.40625 21.355469 29.289062 20.125 C 29.101562 18.144531 28.886719 17.148438 28.476562 16.316406 C 28.28125 15.921875 27.625 14.746094 27.472656 14.523438 C 27.257812 14.207031 26.761719 13.625 26.347656 13.214844 C 25.949219 12.8125 25.730469 12.648438 25.683594 12.722656 C 25.605469 12.84375 26.089844 14.257812 26.929688 16.375 C 27.660156 18.210938 27.746094 18.523438 28.117188 20.5625 C 28.496094 22.636719 28.691406 23.546875 28.871094 24.097656 C 29.003906 24.480469 29.089844 24.585938 29.214844 24.5 Z M 32.480469 24.0625 C 32.589844 23.972656 32.585938 24.144531 32.523438 22.097656 C 32.414062 18.289062 32.273438 17.105469 31.78125 15.601562 C 31.535156 14.871094 30.992188 13.804688 30.589844 13.28125 C 30.269531 12.855469 29.71875 12.421875 29.453125 12.378906 C 29.3125 12.359375 29.308594 12.359375 29.308594 12.472656 C 29.308594 12.605469 29.777344 14.039062 30.082031 14.820312 C 30.605469 16.195312 30.839844 17.269531 31.128906 19.6875 C 31.484375 22.644531 31.675781 23.570312 32.015625 23.925781 C 32.214844 24.140625 32.339844 24.171875 32.480469 24.0625 Z M 78.398438 28.660156 C 78.441406 28.609375 77.585938 28.601562 70.714844 28.601562 C 62.984375 28.601562 62.984375 28.601562 62.984375 27.738281 C 62.984375 26.878906 62.984375 26.878906 71.039062 26.898438 C 78.394531 26.917969 79.789062 26.9375 80.058594 27.027344 C 80.15625 27.054688 80.164062 27.132812 80.082031 27.203125 C 80.050781 27.234375 80.023438 27.273438 80.023438 27.292969 C 80.023438 27.316406 80.050781 27.3125 80.082031 27.285156 C 80.132812 27.246094 80.140625 27.25 80.140625 27.332031 C 80.140625 27.449219 79.851562 27.738281 79.160156 28.3125 C 78.71875 28.6875 78.667969 28.722656 78.511719 28.722656 C 78.371094 28.722656 78.355469 28.710938 78.398438 28.660156 Z M 62.152344 25.449219 C 61.855469 25.296875 61.542969 25.109375 61.460938 25.035156 C 61.300781 24.898438 61.300781 24.898438 61.277344 24.03125 C 61.242188 22.832031 61.238281 20.902344 61.265625 20.742188 C 61.289062 20.636719 61.324219 20.597656 61.503906 20.519531 C 62.066406 20.269531 62.527344 20.246094 67.394531 20.179688 C 72.0625 20.125 79.761719 20.203125 81.03125 20.324219 C 81.164062 20.339844 81.410156 20.394531 81.578125 20.457031 C 81.882812 20.5625 81.882812 20.5625 81.882812 22.785156 C 81.882812 25.003906 81.882812 25.003906 81.230469 25.367188 C 80.582031 25.730469 80.582031 25.730469 71.632812 25.730469 C 62.6875 25.726562 62.6875 25.726562 62.152344 25.449219 Z M 68.117188 19.027344 C 65.585938 18.996094 64.078125 18.949219 64.03125 18.894531 C 64.019531 18.882812 64.039062 18.816406 64.078125 18.742188 C 64.148438 18.597656 65 17.324219 65.554688 16.53125 C 65.742188 16.261719 66.214844 15.578125 66.601562 15.011719 C 67.386719 13.863281 67.832031 13.269531 67.976562 13.15625 C 68.0625 13.097656 68.21875 13.082031 69.246094 13.042969 C 69.886719 13.023438 71.488281 13.003906 72.796875 13.003906 C 75.179688 13.003906 75.179688 13.003906 75.746094 13.8125 C 77.457031 16.246094 78.828125 18.261719 79.027344 18.636719 C 79.105469 18.78125 79.15625 18.917969 79.136719 18.933594 C 79.121094 18.949219 78.800781 18.976562 78.425781 18.992188 C 77.265625 19.039062 70.988281 19.0625 68.117188 19.027344 Z M 12.800781 17.707031 C 10.46875 16.167969 9.617188 15.578125 9.515625 15.425781 C 9.382812 15.21875 9.222656 13.925781 9.292969 13.5625 C 9.320312 13.40625 9.335938 13.382812 9.410156 13.390625 C 9.535156 13.40625 9.851562 13.613281 10.585938 14.171875 C 11.734375 15.046875 13.011719 15.847656 14.179688 16.4375 C 14.734375 16.71875 14.734375 16.71875 14.71875 17.625 C 14.707031 18.1875 14.683594 18.570312 14.65625 18.640625 C 14.566406 18.855469 14.484375 18.816406 12.800781 17.707031 Z M 14.746094 15.421875 C 13.742188 15.089844 9.933594 12.375 9.933594 11.992188 C 9.933594 11.800781 11.25 10.351562 11.507812 10.265625 C 11.734375 10.179688 11.90625 10.296875 13.140625 11.347656 C 14.292969 12.332031 14.886719 12.753906 15.648438 13.148438 C 16.21875 13.4375 16.3125 13.507812 16.3125 13.617188 C 16.3125 13.675781 16.195312 13.847656 16.011719 14.066406 C 15.789062 14.324219 15.660156 14.53125 15.5 14.859375 C 15.386719 15.097656 15.257812 15.328125 15.214844 15.367188 C 15.109375 15.464844 14.933594 15.484375 14.746094 15.421875 Z M 14.746094 15.421875 "
    />
    <path
      d="M 6.996094 13.96875 C 5.21875 12.933594 4.777344 12.59375 4.523438 12.074219 C 4.140625 11.285156 4.328125 9.847656 4.960938 8.695312 C 5.609375 7.511719 6.402344 6.671875 7.699219 5.800781 C 8.691406 5.132812 9.761719 4.714844 11.136719 4.46875 C 12.226562 4.269531 12.789062 4.417969 13.664062 5.125 C 14.296875 5.644531 15.757812 7.074219 15.757812 7.179688 C 15.757812 7.199219 15.675781 7.222656 15.570312 7.238281 C 15.171875 7.285156 14.644531 7.433594 13.996094 7.679688 C 12 8.429688 10.980469 9.058594 9.886719 10.203125 C 9.195312 10.933594 8.789062 11.554688 8.449219 12.410156 C 8.265625 12.859375 8.167969 13.304688 8.09375 13.976562 C 8.058594 14.28125 8.027344 14.535156 8.019531 14.542969 C 8.011719 14.550781 7.550781 14.292969 6.996094 13.96875 Z M 7.285156 10.023438 C 7.777344 9.667969 7.769531 8.976562 7.269531 8.632812 C 7.121094 8.53125 7.066406 8.515625 6.824219 8.519531 C 6.484375 8.519531 6.3125 8.613281 6.128906 8.882812 C 5.90625 9.226562 5.988281 9.75 6.300781 9.988281 C 6.5 10.140625 6.601562 10.171875 6.871094 10.160156 C 7.074219 10.152344 7.148438 10.125 7.285156 10.023438 Z M 10.628906 7.441406 C 11.222656 7.265625 11.367188 6.714844 10.941406 6.285156 C 10.753906 6.097656 10.421875 5.945312 10.195312 5.945312 C 9.785156 5.945312 9.140625 6.417969 9.140625 6.71875 C 9.140625 6.820312 9.4375 7.191406 9.625 7.320312 C 9.890625 7.5 10.273438 7.546875 10.628906 7.441406 Z M 10.628906 7.441406 "
    />
    <path
      d="M 16.765625 12.308594 C 15.84375 12.007812 15.054688 11.511719 13.972656 10.554688 C 13.359375 10.011719 12.902344 9.535156 12.914062 9.457031 C 12.925781 9.386719 13.5625 9.042969 14.019531 8.859375 C 14.378906 8.714844 14.960938 8.539062 15.195312 8.507812 C 15.417969 8.476562 15.546875 8.570312 16.253906 9.253906 C 17.195312 10.175781 17.554688 10.503906 17.902344 10.75 C 18.082031 10.878906 18.3125 11.050781 18.410156 11.128906 C 18.511719 11.210938 18.714844 11.359375 18.859375 11.46875 C 19.082031 11.625 19.121094 11.667969 19.078125 11.707031 C 18.996094 11.789062 18.164062 12.242188 17.910156 12.351562 C 17.570312 12.484375 17.265625 12.476562 16.765625 12.308594 Z M 69.441406 11.925781 C 68.210938 11.890625 68.28125 11.894531 68.199219 11.835938 C 68.09375 11.757812 68.054688 11.34375 68.085938 10.46875 C 68.109375 9.664062 68.109375 9.664062 70.054688 9.644531 C 72.644531 9.617188 74.386719 9.65625 74.816406 9.753906 C 75.140625 9.824219 75.140625 9.824219 75.164062 10.546875 C 75.179688 10.945312 75.199219 11.390625 75.210938 11.53125 C 75.234375 11.796875 75.234375 11.796875 74.808594 11.84375 C 73.792969 11.960938 71.769531 11.992188 69.441406 11.925781 Z M 18.839844 9.871094 C 18.449219 9.601562 18.203125 9.394531 17.800781 8.996094 C 17.507812 8.699219 17.449219 8.617188 17.550781 8.617188 C 17.6875 8.617188 19.347656 10.089844 19.214844 10.09375 C 19.1875 10.09375 19.019531 9.992188 18.839844 9.871094 Z M 2.898438 9.90625 C 2.191406 9.527344 1.480469 8.996094 0.761719 8.300781 C 0.519531 8.066406 0.257812 7.835938 0.175781 7.777344 C 0.015625 7.671875 -0.0390625 7.578125 0.0273438 7.539062 C 0.0507812 7.523438 0.0703125 7.453125 0.0703125 7.375 C 0.0703125 7.300781 0.0585938 5.621094 0.0429688 3.636719 C 0.0195312 0.0390625 0.0195312 0.0390625 4.886719 0.0390625 C 7.5625 0.0390625 9.789062 0.03125 9.835938 0.0234375 C 9.878906 0.015625 9.890625 0.0195312 9.867188 0.0273438 C 9.789062 0.0546875 9.796875 0.0742188 10.015625 0.460938 C 10.394531 1.121094 10.800781 1.742188 11.300781 2.410156 C 11.574219 2.777344 11.796875 3.09375 11.796875 3.113281 C 11.796875 3.171875 11.765625 3.179688 11.0625 3.308594 C 9.8125 3.542969 9.023438 3.800781 8.011719 4.304688 C 5.851562 5.382812 4.21875 7.164062 3.484375 9.242188 C 3.207031 10.015625 3.175781 10.054688 2.898438 9.90625 Z M 68.503906 8.507812 C 68.273438 8.496094 68.167969 8.476562 68.132812 8.433594 C 68.066406 8.359375 68.027344 7.269531 68.085938 7.066406 C 68.125 6.914062 68.140625 6.90625 68.445312 6.804688 C 68.558594 6.765625 68.742188 6.6875 68.851562 6.621094 C 69.304688 6.351562 69.648438 6.332031 72.851562 6.367188 C 75.148438 6.394531 75.148438 6.394531 75.148438 7.441406 C 75.148438 8.484375 75.148438 8.484375 73.832031 8.507812 C 72.558594 8.535156 69.152344 8.53125 68.503906 8.507812 Z M 69.6875 5.097656 C 69.753906 5.050781 69.75 5.019531 69.644531 4.703125 C 69.53125 4.351562 69.351562 3.980469 69.257812 3.902344 C 69.214844 3.867188 69.191406 3.871094 69.164062 3.914062 C 69.136719 3.957031 69.09375 3.9375 68.960938 3.804688 C 68.75 3.601562 68.589844 3.511719 68.226562 3.371094 C 67.996094 3.289062 67.9375 3.246094 67.9375 3.183594 C 67.9375 3.132812 67.957031 3.113281 67.992188 3.125 C 68.035156 3.140625 68.046875 2.972656 68.0625 2.144531 C 68.082031 1.117188 68.101562 0.996094 68.242188 0.9375 C 68.425781 0.871094 69.484375 0.84375 72.085938 0.839844 C 74.90625 0.839844 74.90625 0.839844 74.988281 1.027344 C 75.105469 1.289062 75.152344 1.527344 75.152344 1.835938 C 75.152344 2.011719 75.171875 2.113281 75.214844 2.164062 C 75.265625 2.222656 75.265625 2.25 75.207031 2.457031 C 75.171875 2.582031 75.074219 2.820312 74.984375 2.988281 C 74.800781 3.351562 74.707031 3.761719 74.703125 4.238281 C 74.699219 4.539062 74.710938 4.613281 74.804688 4.792969 C 75.003906 5.183594 75.273438 5.140625 72.269531 5.144531 C 70.121094 5.144531 69.636719 5.136719 69.6875 5.097656 Z M 71.34375 58.957031 C 71.34375 58.945312 71.378906 58.914062 71.425781 58.886719 C 71.554688 58.800781 71.523438 58.652344 71.347656 58.539062 C 71.167969 58.414062 71.0625 58.203125 70.808594 57.429688 C 70.386719 56.125 69.8125 53.316406 69.683594 51.894531 C 69.554688 50.488281 69.511719 47.855469 69.601562 47.074219 C 69.671875 46.4375 69.792969 46.3125 70.308594 46.3125 C 71.0625 46.3125 73.773438 46.988281 75.820312 47.691406 C 79.078125 48.804688 80.949219 49.425781 81.785156 49.671875 C 86.140625 50.945312 89.601562 51.550781 92.898438 51.605469 C 94.453125 51.632812 94.84375 51.601562 97.222656 51.257812 C 98.128906 51.125 98.886719 51.019531 98.90625 51.019531 C 98.925781 51.019531 98.945312 51.09375 98.945312 51.191406 C 98.945312 51.28125 98.960938 53.058594 98.980469 55.136719 C 99.011719 58.914062 99.011719 58.914062 98.917969 58.9375 C 98.796875 58.964844 71.34375 58.984375 71.34375 58.957031 Z M 76.558594 54.585938 C 77.078125 54.261719 77.152344 53.5625 76.714844 53.121094 C 76.132812 52.535156 75.152344 52.949219 75.148438 53.78125 C 75.148438 54.171875 75.34375 54.492188 75.683594 54.65625 C 75.929688 54.773438 76.308594 54.742188 76.558594 54.585938 Z M 96.535156 54.542969 C 96.871094 54.40625 97.097656 54.066406 97.097656 53.691406 C 97.097656 53.417969 97 53.195312 96.792969 53.007812 C 96.589844 52.820312 96.398438 52.761719 96.105469 52.78125 C 95.828125 52.800781 95.601562 52.941406 95.417969 53.199219 C 95.121094 53.628906 95.324219 54.308594 95.804688 54.53125 C 96.003906 54.625 96.335938 54.628906 96.535156 54.542969 Z M 79.832031 51.957031 C 80.25 51.675781 80.289062 51.109375 79.902344 50.761719 C 79.546875 50.441406 78.964844 50.558594 78.753906 51 C 78.570312 51.382812 78.722656 51.804688 79.113281 52.007812 C 79.335938 52.128906 79.605469 52.109375 79.832031 51.957031 Z M 58.25 57.082031 C 58.074219 57.042969 57.765625 56.972656 57.5625 56.929688 C 57.207031 56.851562 57.125 56.804688 57.121094 56.695312 C 57.121094 56.667969 57.054688 56.636719 56.972656 56.625 C 56.257812 56.507812 55.871094 56.382812 55.339844 56.101562 C 55.03125 55.9375 54.601562 55.617188 54.335938 55.359375 C 54.214844 55.234375 54.105469 55.167969 54.046875 55.167969 C 53.953125 55.167969 53.953125 55.167969 54.050781 54.96875 C 54.195312 54.671875 54.707031 53.925781 55.042969 53.511719 C 56.445312 51.777344 58.339844 50.203125 60.824219 48.738281 C 61.421875 48.382812 61.421875 48.382812 61.445312 48.8125 C 61.460938 49.046875 61.480469 50.535156 61.496094 52.117188 C 61.507812 53.695312 61.53125 55.421875 61.542969 55.957031 C 61.566406 56.921875 61.566406 56.921875 61.417969 56.921875 C 61.328125 56.921875 61.074219 56.957031 60.84375 57.007812 C 60.28125 57.117188 60.261719 57.117188 59.359375 57.136719 C 58.703125 57.148438 58.511719 57.140625 58.25 57.082031 Z M 52.71875 53.417969 C 52.6875 53.375 52.636719 53.292969 52.601562 53.230469 C 52.476562 53 52.425781 52.914062 52.394531 52.890625 C 52.378906 52.878906 52.359375 52.824219 52.355469 52.78125 C 52.351562 52.734375 52.335938 52.695312 52.316406 52.695312 C 52.296875 52.695312 52.292969 52.667969 52.304688 52.628906 C 52.320312 52.59375 52.308594 52.539062 52.285156 52.511719 C 52.257812 52.480469 52.25 52.410156 52.265625 52.355469 C 52.28125 52.292969 52.273438 52.253906 52.242188 52.253906 C 52.21875 52.253906 52.207031 52.21875 52.21875 52.175781 C 52.230469 52.132812 52.222656 52.09375 52.199219 52.09375 C 52.175781 52.09375 52.167969 52.066406 52.183594 52.035156 C 52.195312 52.003906 52.1875 51.976562 52.164062 51.976562 C 52.140625 51.976562 52.128906 51.949219 52.144531 51.917969 C 52.15625 51.882812 52.148438 51.855469 52.125 51.855469 C 52.101562 51.855469 52.089844 51.828125 52.105469 51.796875 C 52.117188 51.765625 52.105469 51.738281 52.082031 51.738281 C 52.058594 51.738281 52.046875 51.726562 52.0625 51.710938 C 52.097656 51.675781 52 51.582031 51.949219 51.609375 C 51.878906 51.652344 52.257812 51.210938 52.644531 50.800781 C 53.515625 49.875 54.210938 49.292969 54.921875 48.882812 C 55.183594 48.734375 55.453125 48.574219 55.515625 48.523438 C 55.816406 48.296875 57.09375 47.730469 58.152344 47.351562 C 59.179688 46.984375 60.636719 46.589844 60.960938 46.589844 C 61.140625 46.589844 61.1875 46.648438 61.148438 46.800781 C 61.128906 46.867188 61.0625 46.921875 60.914062 46.980469 C 60.429688 47.183594 57.796875 48.6875 57.023438 49.207031 C 55.363281 50.316406 53.746094 51.902344 52.949219 53.199219 C 52.789062 53.464844 52.769531 53.480469 52.71875 53.417969 Z M 51.546875 49.117188 C 51.515625 49.105469 51.542969 49.050781 51.625 48.972656 C 51.746094 48.859375 51.757812 48.824219 51.742188 48.671875 C 51.734375 48.582031 51.746094 48.480469 51.769531 48.453125 C 51.789062 48.425781 51.800781 48.363281 51.785156 48.3125 C 51.773438 48.261719 51.78125 48.226562 51.808594 48.226562 C 51.835938 48.226562 51.84375 48.191406 51.828125 48.125 C 51.8125 48.066406 51.820312 48.027344 51.847656 48.027344 C 51.871094 48.027344 51.878906 48 51.867188 47.96875 C 51.851562 47.933594 51.863281 47.90625 51.890625 47.90625 C 51.917969 47.90625 51.925781 47.875 51.910156 47.828125 C 51.894531 47.785156 51.902344 47.746094 51.925781 47.746094 C 51.949219 47.746094 51.957031 47.71875 51.945312 47.6875 C 51.929688 47.65625 51.941406 47.628906 51.964844 47.628906 C 51.992188 47.628906 52 47.601562 51.988281 47.566406 C 51.96875 47.535156 51.980469 47.507812 52.011719 47.507812 C 52.035156 47.507812 52.042969 47.492188 52.03125 47.46875 C 52.019531 47.449219 52.023438 47.429688 52.046875 47.429688 C 52.070312 47.429688 52.078125 47.402344 52.066406 47.367188 C 52.050781 47.335938 52.0625 47.308594 52.089844 47.308594 C 52.113281 47.308594 52.121094 47.292969 52.109375 47.269531 C 52.097656 47.25 52.101562 47.230469 52.125 47.230469 C 52.148438 47.230469 52.15625 47.207031 52.144531 47.171875 C 52.132812 47.144531 52.152344 47.09375 52.183594 47.058594 C 52.214844 47.027344 52.230469 46.988281 52.21875 46.972656 C 52.203125 46.960938 52.214844 46.949219 52.242188 46.949219 C 52.273438 46.949219 52.28125 46.933594 52.269531 46.910156 C 52.253906 46.890625 52.265625 46.871094 52.289062 46.871094 C 52.3125 46.871094 52.320312 46.855469 52.308594 46.832031 C 52.296875 46.808594 52.300781 46.789062 52.324219 46.789062 C 52.347656 46.789062 52.355469 46.761719 52.34375 46.730469 C 52.328125 46.699219 52.339844 46.671875 52.363281 46.671875 C 52.386719 46.671875 52.394531 46.644531 52.382812 46.609375 C 52.367188 46.578125 52.378906 46.527344 52.402344 46.496094 C 52.425781 46.46875 52.4375 46.410156 52.421875 46.375 C 52.410156 46.339844 52.417969 46.3125 52.441406 46.3125 C 52.464844 46.3125 52.472656 46.289062 52.460938 46.257812 C 52.449219 46.222656 52.472656 46.164062 52.515625 46.121094 C 52.5625 46.078125 52.589844 46.027344 52.578125 46.015625 C 52.5625 46.003906 52.574219 45.992188 52.601562 45.992188 C 52.628906 45.992188 52.636719 45.972656 52.625 45.953125 C 52.613281 45.929688 52.628906 45.902344 52.660156 45.890625 C 52.695312 45.878906 52.710938 45.847656 52.699219 45.828125 C 52.6875 45.808594 52.707031 45.78125 52.738281 45.769531 C 52.773438 45.757812 52.792969 45.730469 52.78125 45.714844 C 52.769531 45.695312 52.800781 45.648438 52.851562 45.617188 C 52.898438 45.582031 52.921875 45.554688 52.902344 45.554688 C 52.878906 45.550781 52.902344 45.519531 52.949219 45.476562 C 52.996094 45.4375 53.027344 45.394531 53.015625 45.382812 C 53.003906 45.371094 53.046875 45.324219 53.117188 45.269531 C 53.183594 45.222656 53.226562 45.167969 53.214844 45.152344 C 53.207031 45.136719 53.285156 45.042969 53.398438 44.953125 C 53.507812 44.859375 53.585938 44.773438 53.574219 44.765625 C 53.546875 44.734375 53.835938 44.4375 53.890625 44.4375 C 53.914062 44.4375 54.003906 44.355469 54.082031 44.257812 C 54.164062 44.15625 54.25 44.078125 54.265625 44.078125 C 54.285156 44.078125 54.355469 44.027344 54.425781 43.957031 C 54.5 43.894531 54.578125 43.839844 54.609375 43.839844 C 54.640625 43.839844 54.664062 43.824219 54.664062 43.804688 C 54.664062 43.785156 54.769531 43.703125 54.894531 43.625 C 55.015625 43.542969 55.183594 43.429688 55.257812 43.363281 C 55.335938 43.300781 55.675781 43.136719 56.011719 43 C 56.347656 42.867188 56.671875 42.730469 56.730469 42.699219 C 56.878906 42.621094 57.160156 42.375 57.132812 42.347656 C 57.117188 42.335938 57.128906 42.324219 57.15625 42.324219 C 57.183594 42.324219 57.191406 42.308594 57.179688 42.28125 C 57.167969 42.261719 57.171875 42.242188 57.195312 42.242188 C 57.21875 42.242188 57.226562 42.214844 57.214844 42.183594 C 57.199219 42.152344 57.210938 42.125 57.234375 42.125 C 57.261719 42.125 57.269531 42.09375 57.257812 42.0625 C 57.242188 42.03125 57.246094 41.984375 57.265625 41.957031 C 57.285156 41.929688 57.300781 41.21875 57.300781 40.378906 C 57.300781 38.851562 57.300781 38.851562 56.753906 38.667969 C 54.796875 38 53.292969 36.710938 52.394531 34.914062 C 52.21875 34.574219 51.964844 33.90625 51.992188 33.867188 C 52.003906 33.84375 51.996094 33.828125 51.96875 33.828125 C 51.941406 33.828125 51.929688 33.796875 51.945312 33.765625 C 51.957031 33.734375 51.949219 33.707031 51.925781 33.707031 C 51.902344 33.707031 51.890625 33.679688 51.902344 33.648438 C 51.917969 33.613281 51.910156 33.578125 51.886719 33.5625 C 51.863281 33.550781 51.855469 33.515625 51.867188 33.484375 C 51.878906 33.457031 51.871094 33.417969 51.847656 33.402344 C 51.824219 33.390625 51.816406 33.355469 51.828125 33.324219 C 51.839844 33.296875 51.832031 33.261719 51.808594 33.246094 C 51.785156 33.230469 51.777344 33.195312 51.789062 33.164062 C 51.800781 33.136719 51.789062 33.101562 51.769531 33.085938 C 51.746094 33.074219 51.734375 33.023438 51.746094 32.984375 C 51.757812 32.945312 51.75 32.898438 51.730469 32.886719 C 51.710938 32.875 51.691406 32.816406 51.691406 32.757812 C 51.691406 32.699219 51.679688 32.570312 51.664062 32.46875 C 51.644531 32.320312 51.640625 31.984375 51.648438 30.46875 C 51.652344 30.386719 51.667969 30.3125 51.691406 30.296875 C 51.714844 30.285156 51.722656 30.230469 51.710938 30.171875 C 51.691406 30.113281 51.699219 30.078125 51.734375 30.078125 C 51.761719 30.078125 51.769531 30.046875 51.753906 29.996094 C 51.738281 29.949219 51.746094 29.917969 51.773438 29.917969 C 51.800781 29.917969 51.8125 29.890625 51.796875 29.859375 C 51.785156 29.824219 51.792969 29.796875 51.816406 29.796875 C 51.839844 29.796875 51.847656 29.761719 51.832031 29.71875 C 51.816406 29.675781 51.824219 29.636719 51.847656 29.636719 C 51.871094 29.636719 51.878906 29.609375 51.867188 29.578125 C 51.851562 29.546875 51.863281 29.519531 51.890625 29.519531 C 51.914062 29.519531 51.921875 29.503906 51.910156 29.480469 C 51.898438 29.457031 51.90625 29.4375 51.929688 29.4375 C 51.957031 29.4375 51.96875 29.410156 51.953125 29.378906 C 51.941406 29.347656 51.949219 29.320312 51.96875 29.320312 C 51.992188 29.320312 52 29.292969 51.988281 29.257812 C 51.96875 29.226562 51.980469 29.199219 52.007812 29.199219 C 52.03125 29.199219 52.039062 29.171875 52.027344 29.140625 C 52.011719 29.109375 52.023438 29.078125 52.050781 29.078125 C 52.074219 29.078125 52.082031 29.0625 52.070312 29.039062 C 52.058594 29.019531 52.0625 29 52.085938 29 C 52.109375 29 52.117188 28.972656 52.105469 28.941406 C 52.089844 28.910156 52.101562 28.878906 52.128906 28.878906 C 52.152344 28.878906 52.160156 28.863281 52.148438 28.839844 C 52.136719 28.820312 52.140625 28.800781 52.164062 28.800781 C 52.1875 28.800781 52.195312 28.773438 52.183594 28.742188 C 52.167969 28.707031 52.179688 28.679688 52.207031 28.679688 C 52.230469 28.679688 52.238281 28.664062 52.226562 28.640625 C 52.214844 28.617188 52.21875 28.601562 52.242188 28.601562 C 52.269531 28.601562 52.277344 28.574219 52.265625 28.542969 C 52.246094 28.507812 52.257812 28.480469 52.289062 28.480469 C 52.3125 28.480469 52.320312 28.464844 52.308594 28.441406 C 52.296875 28.421875 52.304688 28.402344 52.328125 28.402344 C 52.351562 28.402344 52.359375 28.386719 52.347656 28.363281 C 52.335938 28.34375 52.34375 28.320312 52.367188 28.320312 C 52.390625 28.320312 52.398438 28.304688 52.386719 28.28125 C 52.375 28.261719 52.382812 28.242188 52.40625 28.242188 C 52.429688 28.242188 52.4375 28.226562 52.425781 28.203125 C 52.414062 28.183594 52.421875 28.164062 52.445312 28.164062 C 52.46875 28.164062 52.476562 28.144531 52.464844 28.121094 C 52.453125 28.101562 52.460938 28.082031 52.484375 28.082031 C 52.507812 28.082031 52.515625 28.066406 52.503906 28.042969 C 52.492188 28.023438 52.5 28.003906 52.523438 28.003906 C 52.550781 28.003906 52.558594 27.988281 52.546875 27.960938 C 52.53125 27.941406 52.542969 27.921875 52.566406 27.921875 C 52.589844 27.921875 52.597656 27.90625 52.585938 27.882812 C 52.574219 27.863281 52.582031 27.84375 52.605469 27.84375 C 52.628906 27.84375 52.640625 27.828125 52.625 27.804688 C 52.613281 27.785156 52.636719 27.730469 52.679688 27.6875 C 52.722656 27.644531 52.746094 27.601562 52.734375 27.589844 C 52.722656 27.574219 52.742188 27.554688 52.777344 27.539062 C 52.8125 27.527344 52.832031 27.5 52.820312 27.480469 C 52.804688 27.460938 52.820312 27.445312 52.84375 27.445312 C 52.867188 27.445312 52.875 27.425781 52.863281 27.40625 C 52.851562 27.378906 52.867188 27.351562 52.898438 27.339844 C 52.933594 27.328125 52.953125 27.300781 52.941406 27.285156 C 52.929688 27.265625 52.957031 27.226562 53 27.191406 C 53.042969 27.164062 53.066406 27.128906 53.054688 27.113281 C 53.042969 27.101562 53.078125 27.0625 53.136719 27.027344 C 53.191406 26.984375 53.230469 26.941406 53.21875 26.925781 C 53.207031 26.90625 53.261719 26.84375 53.335938 26.78125 C 53.417969 26.722656 53.46875 26.667969 53.457031 26.65625 C 53.429688 26.625 53.875 26.167969 53.933594 26.167969 C 53.957031 26.167969 53.996094 26.132812 54.023438 26.089844 C 54.050781 26.042969 54.085938 26.007812 54.105469 26.007812 C 54.125 26.007812 54.195312 25.957031 54.269531 25.886719 C 54.339844 25.824219 54.417969 25.769531 54.449219 25.769531 C 54.484375 25.769531 54.507812 25.753906 54.507812 25.734375 C 54.507812 25.621094 56.042969 24.742188 56.46875 24.613281 C 56.621094 24.5625 56.796875 24.503906 56.859375 24.480469 C 57.007812 24.425781 57.199219 24.261719 57.199219 24.1875 C 57.199219 24.15625 57.210938 24.132812 57.230469 24.132812 C 57.246094 24.132812 57.265625 24.058594 57.265625 23.964844 C 57.269531 23.871094 57.285156 23.570312 57.300781 23.296875 C 57.339844 22.632812 57.34375 22.300781 57.3125 21.660156 C 57.277344 20.96875 57.257812 20.878906 57.117188 20.777344 C 56.960938 20.671875 56.296875 20.339844 55.953125 20.203125 C 55.460938 20.007812 54.921875 19.71875 54.59375 19.46875 C 54.191406 19.164062 53.355469 18.359375 53.027344 17.953125 C 52.71875 17.578125 52.441406 17.171875 52.472656 17.136719 C 52.488281 17.125 52.480469 17.113281 52.457031 17.113281 C 52.410156 17.113281 52.109375 16.554688 52.15625 16.554688 C 52.171875 16.554688 52.167969 16.539062 52.144531 16.523438 C 52.097656 16.492188 51.957031 16.15625 51.996094 16.15625 C 52.011719 16.15625 52.003906 16.132812 51.976562 16.109375 C 51.953125 16.078125 51.933594 16.039062 51.929688 16.015625 C 51.925781 15.996094 51.90625 15.933594 51.886719 15.882812 C 51.867188 15.832031 51.859375 15.777344 51.871094 15.757812 C 51.882812 15.738281 51.875 15.714844 51.855469 15.699219 C 51.824219 15.675781 51.726562 15.335938 51.714844 15.199219 C 51.714844 15.164062 51.691406 15.113281 51.675781 15.085938 C 51.660156 15.058594 51.65625 15.023438 51.667969 15.011719 C 51.679688 15 51.675781 14.96875 51.652344 14.9375 C 51.632812 14.914062 51.609375 14.832031 51.601562 14.753906 C 51.59375 14.679688 51.578125 14.597656 51.5625 14.570312 C 51.546875 14.546875 51.535156 14.484375 51.535156 14.4375 C 51.535156 14.382812 51.527344 14.066406 51.519531 13.734375 C 51.511719 13.398438 51.519531 13.117188 51.535156 13.105469 C 51.554688 13.09375 51.558594 13.019531 51.546875 12.945312 C 51.53125 12.855469 51.539062 12.804688 51.566406 12.804688 C 51.59375 12.804688 51.601562 12.761719 51.589844 12.683594 C 51.574219 12.609375 51.582031 12.566406 51.609375 12.566406 C 51.636719 12.566406 51.644531 12.53125 51.628906 12.46875 C 51.617188 12.417969 51.625 12.363281 51.644531 12.351562 C 51.667969 12.339844 51.675781 12.289062 51.664062 12.246094 C 51.652344 12.203125 51.664062 12.167969 51.6875 12.167969 C 51.71875 12.167969 51.726562 12.132812 51.710938 12.066406 C 51.691406 12.003906 51.699219 11.96875 51.734375 11.96875 C 51.761719 11.96875 51.769531 11.933594 51.753906 11.890625 C 51.742188 11.847656 51.746094 11.804688 51.769531 11.792969 C 51.789062 11.78125 51.796875 11.730469 51.785156 11.6875 C 51.773438 11.644531 51.78125 11.609375 51.804688 11.609375 C 51.828125 11.609375 51.835938 11.574219 51.824219 11.527344 C 51.8125 11.484375 51.820312 11.449219 51.84375 11.449219 C 51.867188 11.449219 51.875 11.414062 51.863281 11.367188 C 51.851562 11.324219 51.859375 11.289062 51.882812 11.289062 C 51.90625 11.289062 51.914062 11.253906 51.902344 11.210938 C 51.890625 11.164062 51.902344 11.128906 51.925781 11.128906 C 51.945312 11.128906 51.957031 11.101562 51.945312 11.070312 C 51.929688 11.039062 51.941406 11.011719 51.964844 11.011719 C 51.992188 11.011719 52 10.980469 51.988281 10.949219 C 51.96875 10.917969 51.980469 10.890625 52.011719 10.890625 C 52.035156 10.890625 52.042969 10.875 52.03125 10.851562 C 52.019531 10.832031 52.027344 10.8125 52.050781 10.8125 C 52.078125 10.8125 52.089844 10.78125 52.074219 10.75 C 52.0625 10.71875 52.070312 10.691406 52.09375 10.691406 C 52.117188 10.691406 52.121094 10.671875 52.109375 10.652344 C 52.097656 10.632812 52.105469 10.609375 52.128906 10.609375 C 52.152344 10.609375 52.164062 10.59375 52.148438 10.570312 C 52.121094 10.523438 52.316406 10.132812 52.371094 10.132812 C 52.390625 10.132812 52.398438 10.117188 52.386719 10.09375 C 52.375 10.074219 52.382812 10.054688 52.40625 10.054688 C 52.429688 10.054688 52.4375 10.035156 52.425781 10.011719 C 52.414062 9.992188 52.421875 9.972656 52.445312 9.972656 C 52.46875 9.972656 52.480469 9.957031 52.464844 9.933594 C 52.453125 9.914062 52.472656 9.859375 52.511719 9.820312 C 52.554688 9.78125 52.589844 9.722656 52.597656 9.691406 C 52.605469 9.65625 52.636719 9.613281 52.664062 9.589844 C 52.695312 9.566406 52.710938 9.535156 52.695312 9.523438 C 52.683594 9.507812 52.703125 9.484375 52.738281 9.46875 C 52.773438 9.457031 52.789062 9.429688 52.777344 9.410156 C 52.765625 9.390625 52.785156 9.363281 52.820312 9.351562 C 52.855469 9.339844 52.875 9.3125 52.863281 9.292969 C 52.851562 9.273438 52.882812 9.230469 52.929688 9.199219 C 52.976562 9.164062 53 9.136719 52.980469 9.136719 C 52.957031 9.132812 52.984375 9.09375 53.035156 9.054688 C 53.085938 9.011719 53.113281 8.976562 53.097656 8.976562 C 53.074219 8.972656 53.101562 8.941406 53.148438 8.898438 C 53.195312 8.859375 53.226562 8.816406 53.214844 8.804688 C 53.203125 8.796875 53.253906 8.738281 53.324219 8.675781 C 53.398438 8.617188 53.457031 8.554688 53.457031 8.535156 C 53.457031 8.46875 54.191406 7.765625 54.488281 7.558594 C 55.238281 7.019531 56.371094 6.417969 56.960938 6.25 C 57.300781 6.152344 57.300781 6.152344 57.320312 3.089844 C 57.332031 1.402344 57.34375 0.015625 57.351562 0.0078125 C 57.355469 0.00390625 58.140625 0.00390625 59.09375 0.0078125 C 60.824219 0.0195312 60.824219 0.0195312 60.851562 2.3125 C 60.878906 4.40625 60.90625 5.535156 60.941406 5.835938 C 60.949219 5.898438 60.988281 5.984375 61.027344 6.023438 C 61.117188 6.113281 61.648438 6.40625 62.378906 6.773438 C 63.414062 7.296875 64.117188 7.847656 64.949219 8.769531 C 65.328125 9.1875 65.40625 9.3125 65.613281 9.773438 C 65.636719 9.828125 65.707031 9.949219 65.765625 10.039062 C 65.824219 10.132812 65.878906 10.214844 65.878906 10.226562 C 65.878906 10.238281 65.921875 10.34375 65.972656 10.460938 C 66.054688 10.644531 66.234375 11.152344 66.257812 11.269531 C 66.261719 11.292969 66.296875 11.417969 66.332031 11.546875 C 66.371094 11.679688 66.402344 11.792969 66.398438 11.796875 C 66.398438 11.800781 66.449219 11.945312 66.507812 12.113281 C 66.605469 12.394531 66.625 12.425781 66.714844 12.417969 C 66.808594 12.410156 66.808594 12.410156 66.71875 12.476562 C 66.378906 12.726562 66.011719 13.164062 65.53125 13.882812 C 65.421875 14.046875 64.871094 14.847656 64.308594 15.65625 C 63.308594 17.097656 63.011719 17.542969 62.671875 18.140625 C 62.433594 18.554688 62.296875 18.699219 62.121094 18.730469 C 61.679688 18.796875 60.894531 19.125 60.460938 19.417969 C 60.332031 19.507812 60.132812 19.6875 60.019531 19.816406 C 59.816406 20.058594 59.816406 20.058594 59.816406 22.601562 C 59.816406 25.152344 59.816406 25.152344 60.09375 25.476562 C 60.429688 25.871094 60.902344 26.238281 61.234375 26.363281 C 61.410156 26.429688 61.484375 26.480469 61.5 26.542969 C 61.507812 26.585938 61.527344 29.300781 61.539062 32.5625 C 61.550781 35.828125 61.574219 38.527344 61.585938 38.558594 C 61.597656 38.59375 61.578125 38.613281 61.523438 38.613281 C 61.476562 38.613281 61.441406 38.632812 61.441406 38.652344 C 61.441406 38.675781 61.425781 38.691406 61.402344 38.691406 C 61.351562 38.691406 61.089844 38.964844 61.113281 38.992188 C 61.125 39.003906 61.117188 39.011719 61.09375 39.011719 C 61.074219 39.011719 61.054688 39.035156 61.050781 39.0625 C 61.050781 39.089844 61.035156 39.167969 61.023438 39.230469 C 60.953125 39.609375 60.90625 40.515625 60.917969 41.34375 C 60.925781 42.1875 60.945312 42.375 61.027344 42.503906 C 61.097656 42.609375 61.492188 42.816406 61.511719 42.757812 C 61.519531 42.738281 61.539062 42.722656 61.554688 42.722656 C 61.574219 42.722656 61.574219 42.796875 61.554688 42.894531 C 61.539062 42.984375 61.523438 43.230469 61.519531 43.441406 C 61.519531 43.902344 61.453125 44.652344 61.386719 44.976562 C 61.335938 45.214844 61.335938 45.214844 61.164062 45.246094 C 57.640625 45.921875 54.347656 47.21875 52.0625 48.828125 C 51.816406 49.003906 51.613281 49.144531 51.605469 49.140625 C 51.597656 49.140625 51.570312 49.128906 51.546875 49.117188 Z M 87.945312 48.421875 C 85.535156 48.230469 83.480469 47.789062 80.558594 46.828125 C 78.972656 46.308594 78.554688 46.152344 78.554688 46.074219 C 78.554688 46.023438 78.46875 45.96875 78.242188 45.878906 C 77.898438 45.742188 77.761719 45.722656 77.761719 45.808594 C 77.761719 45.847656 77.605469 45.8125 77.160156 45.664062 C 75.71875 45.199219 74.953125 45.011719 74.039062 44.894531 C 73.535156 44.835938 73.109375 44.75 73.058594 44.699219 C 73.015625 44.660156 73.148438 44.542969 73.324219 44.460938 C 73.496094 44.382812 73.578125 44.378906 75.207031 44.363281 C 77.433594 44.34375 77.9375 44.382812 80.636719 44.734375 C 83.46875 45.109375 84.421875 45.1875 86.679688 45.230469 C 88.335938 45.261719 90.777344 45.226562 91.996094 45.15625 C 94.554688 45.003906 96.875 44.574219 98.523438 43.9375 C 98.777344 43.84375 98.90625 43.8125 98.921875 43.839844 C 98.957031 43.894531 99.003906 45.753906 98.980469 46.132812 C 98.964844 46.410156 98.964844 46.410156 98.542969 46.796875 C 97.949219 47.339844 97.582031 47.523438 96.46875 47.828125 C 94.691406 48.308594 93.089844 48.46875 90.027344 48.460938 C 89.109375 48.457031 88.175781 48.441406 87.945312 48.421875 Z M 70.324219 43.152344 C 70.210938 43.039062 70.285156 42.613281 70.632812 41.402344 C 71.308594 39.035156 72.476562 36.441406 73.855469 34.25 C 74.9375 32.527344 75.300781 31.976562 75.589844 31.613281 C 75.933594 31.175781 76.417969 30.679688 76.570312 30.59375 C 76.816406 30.46875 77.175781 30.023438 77.25 29.761719 C 77.269531 29.683594 77.363281 29.539062 77.453125 29.4375 C 77.648438 29.230469 78.445312 28.601562 78.515625 28.601562 C 78.636719 28.601562 80.171875 27.226562 80.242188 27.050781 C 80.351562 26.792969 81.867188 25.828125 83.117188 25.21875 C 83.132812 25.214844 83.132812 25.253906 83.125 25.308594 C 83.113281 25.367188 83.113281 25.410156 83.125 25.410156 C 83.132812 25.410156 83.324219 25.296875 83.550781 25.160156 C 85.203125 24.144531 88.230469 22.886719 90.5 22.261719 C 91.074219 22.101562 91.359375 22.042969 92.140625 21.898438 C 92.691406 21.804688 92.808594 21.769531 92.875 21.691406 C 92.921875 21.640625 92.960938 21.574219 92.96875 21.542969 C 92.992188 21.441406 92.929688 21.257812 92.832031 21.140625 C 92.78125 21.078125 92.742188 21.007812 92.753906 20.984375 C 92.773438 20.964844 92.761719 20.933594 92.734375 20.921875 C 92.714844 20.90625 92.699219 20.839844 92.703125 20.765625 C 92.710938 20.699219 92.703125 20.625 92.691406 20.601562 C 92.667969 20.558594 92.613281 20.324219 92.601562 20.222656 C 92.601562 20.1875 92.585938 20.144531 92.574219 20.125 C 92.515625 20.023438 92.304688 19.285156 92.320312 19.242188 C 92.332031 19.214844 92.320312 19.179688 92.300781 19.164062 C 92.277344 19.152344 92.265625 19.105469 92.277344 19.0625 C 92.289062 19.023438 92.28125 18.976562 92.261719 18.964844 C 92.242188 18.953125 92.226562 18.894531 92.226562 18.835938 C 92.226562 18.777344 92.214844 18.65625 92.199219 18.570312 C 92.15625 18.277344 92.121094 17.835938 92.085938 17.191406 C 92.074219 17.003906 92.054688 16.726562 92.042969 16.566406 C 92.015625 16.285156 92.015625 16.285156 91.59375 16.113281 C 91.164062 15.941406 90.621094 15.757812 90.527344 15.757812 C 90.5 15.757812 90.339844 15.699219 90.167969 15.636719 C 89.378906 15.328125 88.222656 14.441406 87.539062 13.609375 C 87.222656 13.230469 86.832031 12.644531 86.859375 12.601562 C 86.871094 12.582031 86.859375 12.566406 86.835938 12.566406 C 86.8125 12.566406 86.804688 12.546875 86.816406 12.527344 C 86.828125 12.507812 86.820312 12.484375 86.796875 12.484375 C 86.769531 12.484375 86.757812 12.457031 86.769531 12.425781 C 86.785156 12.394531 86.777344 12.359375 86.757812 12.347656 C 86.734375 12.332031 86.71875 12.285156 86.71875 12.242188 C 86.71875 12.199219 86.675781 12.101562 86.617188 12.03125 C 86.566406 11.960938 86.515625 11.867188 86.507812 11.824219 C 86.5 11.785156 86.472656 11.699219 86.449219 11.640625 C 86.425781 11.582031 86.398438 11.46875 86.390625 11.398438 C 86.382812 11.324219 86.363281 11.246094 86.347656 11.222656 C 86.332031 11.199219 86.3125 11.089844 86.304688 10.984375 C 86.296875 10.878906 86.28125 10.761719 86.265625 10.730469 C 86.253906 10.699219 86.246094 10.628906 86.242188 10.570312 C 86.242188 10.515625 86.230469 10.371094 86.214844 10.253906 C 86.195312 10.066406 86.191406 9.625 86.199219 8.867188 C 86.203125 8.777344 86.21875 8.6875 86.242188 8.675781 C 86.265625 8.664062 86.269531 8.609375 86.257812 8.554688 C 86.242188 8.492188 86.25 8.457031 86.277344 8.457031 C 86.304688 8.457031 86.3125 8.421875 86.296875 8.359375 C 86.28125 8.292969 86.289062 8.257812 86.320312 8.257812 C 86.347656 8.257812 86.355469 8.226562 86.339844 8.179688 C 86.324219 8.128906 86.332031 8.097656 86.359375 8.097656 C 86.390625 8.097656 86.398438 8.066406 86.382812 8.019531 C 86.363281 7.972656 86.371094 7.9375 86.398438 7.9375 C 86.421875 7.9375 86.429688 7.910156 86.417969 7.878906 C 86.402344 7.847656 86.414062 7.820312 86.4375 7.820312 C 86.460938 7.820312 86.46875 7.792969 86.457031 7.757812 C 86.441406 7.726562 86.453125 7.699219 86.480469 7.699219 C 86.503906 7.699219 86.511719 7.683594 86.5 7.660156 C 86.488281 7.640625 86.492188 7.621094 86.515625 7.621094 C 86.539062 7.621094 86.546875 7.589844 86.535156 7.558594 C 86.519531 7.527344 86.53125 7.5 86.558594 7.5 C 86.582031 7.5 86.589844 7.480469 86.578125 7.460938 C 86.566406 7.441406 86.574219 7.421875 86.597656 7.421875 C 86.621094 7.421875 86.628906 7.402344 86.617188 7.378906 C 86.605469 7.359375 86.609375 7.339844 86.632812 7.339844 C 86.660156 7.339844 86.667969 7.316406 86.652344 7.285156 C 86.640625 7.257812 86.664062 7.203125 86.695312 7.167969 C 86.726562 7.136719 86.742188 7.101562 86.730469 7.085938 C 86.714844 7.074219 86.726562 7.0625 86.753906 7.0625 C 86.78125 7.0625 86.789062 7.046875 86.777344 7.019531 C 86.765625 7 86.773438 6.980469 86.796875 6.980469 C 86.820312 6.980469 86.828125 6.964844 86.816406 6.941406 C 86.804688 6.921875 86.8125 6.902344 86.835938 6.902344 C 86.859375 6.902344 86.867188 6.886719 86.855469 6.863281 C 86.84375 6.839844 86.851562 6.820312 86.875 6.820312 C 86.898438 6.820312 86.90625 6.804688 86.894531 6.78125 C 86.882812 6.761719 86.886719 6.742188 86.910156 6.742188 C 86.9375 6.742188 86.945312 6.714844 86.929688 6.683594 C 86.914062 6.648438 86.925781 6.621094 86.957031 6.621094 C 86.980469 6.621094 86.988281 6.605469 86.976562 6.582031 C 86.964844 6.5625 86.96875 6.542969 86.992188 6.542969 C 87.015625 6.542969 87.023438 6.515625 87.011719 6.484375 C 86.996094 6.449219 87.007812 6.421875 87.03125 6.421875 C 87.101562 6.421875 87.082031 6.339844 86.972656 6.195312 C 86.800781 5.972656 86.703125 5.945312 86.09375 5.945312 C 85.347656 5.949219 84.980469 5.878906 84.082031 5.574219 C 83.183594 5.261719 82.617188 4.980469 82.0625 4.554688 C 81.710938 4.285156 81.027344 3.582031 80.722656 3.171875 C 80.480469 2.84375 80.167969 2.289062 80.183594 2.210938 C 80.1875 2.191406 80.175781 2.136719 80.160156 2.085938 C 80.144531 2.039062 80.128906 1.984375 80.128906 1.96875 C 80.128906 1.953125 80.109375 1.917969 80.09375 1.894531 C 79.828125 1.589844 79.484375 1.007812 79.449219 0.8125 C 79.4375 0.773438 79.429688 0.730469 79.425781 0.71875 C 79.421875 0.707031 79.417969 0.6875 79.421875 0.671875 C 79.421875 0.652344 79.40625 0.640625 79.386719 0.640625 C 79.363281 0.640625 79.347656 0.613281 79.351562 0.589844 C 79.355469 0.5625 79.347656 0.511719 79.332031 0.476562 C 79.316406 0.441406 79.308594 0.324219 79.316406 0.214844 C 79.328125 0.0195312 79.328125 0.0195312 89.074219 0.0078125 C 94.4375 0.00390625 98.863281 0.0078125 98.914062 0.0195312 C 99 0.0390625 99 0.0390625 99 18.078125 C 99 33.667969 98.992188 36.105469 98.945312 36.035156 C 98.890625 35.960938 98.726562 35.960938 87.480469 35.960938 C 75.832031 35.960938 75.085938 35.96875 74.800781 36.113281 C 74.699219 36.160156 74.523438 36.441406 74.566406 36.484375 C 74.621094 36.542969 79.832031 36.574219 88.929688 36.578125 C 99 36.578125 99 36.578125 98.996094 38.386719 C 98.992188 39.636719 98.980469 40.105469 98.957031 39.914062 C 98.9375 39.761719 98.914062 39.628906 98.90625 39.617188 C 98.875 39.585938 98.710938 39.703125 98.429688 39.960938 C 97.890625 40.453125 97.0625 40.867188 95.671875 41.335938 C 93.636719 42.027344 91.125 42.535156 88.996094 42.6875 C 88.292969 42.734375 86.207031 42.71875 84.320312 42.640625 C 83.796875 42.621094 82.070312 42.59375 80.476562 42.578125 C 76.367188 42.539062 74.886719 42.605469 72.703125 42.921875 C 71.808594 43.054688 70.628906 43.199219 70.472656 43.199219 C 70.414062 43.199219 70.351562 43.179688 70.324219 43.152344 Z M 93.414062 41.375 C 93.921875 41.0625 94.003906 40.375 93.582031 39.957031 C 93.382812 39.753906 93.15625 39.675781 92.851562 39.703125 C 92.550781 39.730469 92.339844 39.867188 92.164062 40.148438 C 92.066406 40.3125 92.046875 40.378906 92.050781 40.582031 C 92.058594 41.308594 92.808594 41.742188 93.414062 41.375 Z M 79.777344 40.460938 C 80.011719 40.347656 80.179688 40.058594 80.179688 39.769531 C 80.175781 39.496094 79.871094 39.121094 79.605469 39.066406 C 79.074219 38.96875 78.636719 39.355469 78.6875 39.878906 C 78.742188 40.417969 79.269531 40.699219 79.777344 40.460938 Z M 48.226562 26.257812 C 47.929688 26.191406 47.828125 26.148438 47.6875 26.019531 C 47.535156 25.882812 47.378906 25.648438 47.4375 25.648438 C 47.453125 25.648438 47.441406 25.625 47.417969 25.59375 C 47.351562 25.515625 47.316406 25.171875 47.371094 25.171875 C 47.402344 25.171875 47.410156 25.140625 47.394531 25.089844 C 47.378906 25.042969 47.386719 25.011719 47.414062 25.011719 C 47.4375 25.011719 47.445312 24.996094 47.433594 24.972656 C 47.421875 24.953125 47.429688 24.929688 47.453125 24.929688 C 47.476562 24.929688 47.484375 24.914062 47.472656 24.890625 C 47.460938 24.871094 47.46875 24.851562 47.488281 24.851562 C 47.511719 24.851562 47.527344 24.839844 47.523438 24.824219 C 47.507812 24.765625 47.804688 24.488281 47.945312 24.433594 C 48.164062 24.339844 48.519531 24.355469 48.726562 24.464844 C 49.058594 24.644531 49.335938 25.175781 49.242188 25.449219 C 49.222656 25.519531 49.214844 25.570312 49.226562 25.570312 C 49.238281 25.570312 49.226562 25.59375 49.199219 25.621094 C 49.175781 25.652344 49.167969 25.6875 49.183594 25.703125 C 49.195312 25.71875 49.1875 25.730469 49.160156 25.730469 C 49.132812 25.730469 49.121094 25.746094 49.136719 25.765625 C 49.148438 25.789062 49.121094 25.824219 49.078125 25.847656 C 49.035156 25.871094 49.007812 25.910156 49.019531 25.933594 C 49.035156 25.953125 49 25.984375 48.945312 26.007812 C 48.886719 26.027344 48.839844 26.058594 48.839844 26.082031 C 48.839844 26.144531 48.351562 26.289062 48.226562 26.257812 Z M 48.226562 26.257812 "
    />
    <path
      d="M 52.457031 22.8125 C 52.246094 22.773438 52.089844 22.691406 51.917969 22.53125 C 51.769531 22.386719 51.636719 22.160156 51.671875 22.097656 C 51.683594 22.078125 51.675781 22.054688 51.652344 22.039062 C 51.601562 22.007812 51.601562 21.660156 51.65625 21.660156 C 51.679688 21.660156 51.6875 21.625 51.671875 21.582031 C 51.65625 21.53125 51.664062 21.5 51.691406 21.5 C 51.71875 21.5 51.726562 21.484375 51.714844 21.460938 C 51.699219 21.441406 51.710938 21.421875 51.734375 21.421875 C 51.757812 21.421875 51.765625 21.40625 51.753906 21.382812 C 51.742188 21.359375 51.75 21.339844 51.773438 21.339844 C 51.796875 21.339844 51.808594 21.324219 51.796875 21.308594 C 51.773438 21.269531 51.980469 21.0625 52.046875 21.0625 C 52.070312 21.0625 52.089844 21.046875 52.089844 21.027344 C 52.089844 20.960938 52.402344 20.863281 52.597656 20.863281 C 53.015625 20.867188 53.472656 21.226562 53.539062 21.613281 C 53.578125 21.824219 53.558594 22.171875 53.507812 22.203125 C 53.492188 22.214844 53.484375 22.238281 53.496094 22.257812 C 53.507812 22.277344 53.457031 22.351562 53.390625 22.421875 C 53.316406 22.492188 53.261719 22.566406 53.265625 22.578125 C 53.273438 22.605469 52.933594 22.757812 52.742188 22.808594 C 52.675781 22.828125 52.550781 22.828125 52.457031 22.8125 Z M 40.730469 22.722656 C 40.644531 22.695312 40.515625 22.628906 40.453125 22.585938 C 40.300781 22.476562 40.128906 22.222656 40.105469 22.074219 C 40.09375 22.011719 40.074219 21.910156 40.0625 21.851562 C 40.046875 21.792969 40.046875 21.707031 40.066406 21.671875 C 40.085938 21.632812 40.09375 21.578125 40.089844 21.550781 C 40.085938 21.523438 40.101562 21.5 40.125 21.5 C 40.148438 21.5 40.15625 21.480469 40.140625 21.453125 C 40.125 21.429688 40.144531 21.386719 40.183594 21.351562 C 40.226562 21.324219 40.246094 21.300781 40.230469 21.300781 C 40.167969 21.300781 40.539062 20.96875 40.664062 20.917969 C 41.171875 20.703125 41.820312 21.050781 41.9375 21.601562 C 41.992188 21.84375 41.9375 22.210938 41.839844 22.289062 C 41.804688 22.316406 41.785156 22.339844 41.796875 22.339844 C 41.855469 22.339844 41.546875 22.605469 41.417969 22.664062 C 41.21875 22.761719 40.929688 22.785156 40.730469 22.722656 Z M 36.816406 21.941406 C 36.753906 21.925781 36.652344 21.890625 36.597656 21.863281 C 36.488281 21.804688 36.246094 21.546875 36.238281 21.484375 C 36.234375 21.460938 36.226562 21.402344 36.222656 21.355469 C 36.21875 21.308594 36.203125 21.25 36.1875 21.226562 C 36.167969 21.199219 36.175781 21.152344 36.199219 21.125 C 36.222656 21.097656 36.234375 21.042969 36.21875 21.007812 C 36.203125 20.96875 36.214844 20.941406 36.242188 20.941406 C 36.269531 20.941406 36.28125 20.914062 36.265625 20.882812 C 36.253906 20.851562 36.273438 20.808594 36.3125 20.785156 C 36.347656 20.761719 36.363281 20.742188 36.339844 20.742188 C 36.320312 20.742188 36.367188 20.679688 36.457031 20.605469 C 36.835938 20.265625 37.429688 20.386719 37.652344 20.855469 C 37.722656 21.011719 37.757812 21.371094 37.703125 21.402344 C 37.6875 21.414062 37.679688 21.449219 37.691406 21.480469 C 37.707031 21.511719 37.6875 21.550781 37.652344 21.566406 C 37.617188 21.578125 37.597656 21.601562 37.605469 21.617188 C 37.640625 21.671875 37.519531 21.773438 37.332031 21.851562 C 37.078125 21.957031 36.960938 21.976562 36.816406 21.941406 Z M 37.984375 17.648438 C 37.539062 17.515625 37.25 17.117188 37.261719 16.667969 C 37.269531 16.472656 37.289062 16.394531 37.324219 16.394531 C 37.34375 16.394531 37.351562 16.367188 37.335938 16.335938 C 37.324219 16.304688 37.332031 16.277344 37.355469 16.277344 C 37.378906 16.277344 37.382812 16.257812 37.371094 16.234375 C 37.359375 16.214844 37.367188 16.195312 37.390625 16.195312 C 37.414062 16.195312 37.425781 16.179688 37.410156 16.160156 C 37.398438 16.136719 37.417969 16.105469 37.453125 16.082031 C 37.488281 16.0625 37.511719 16.03125 37.507812 16.011719 C 37.5 15.996094 37.53125 15.960938 37.574219 15.9375 C 37.613281 15.917969 37.664062 15.875 37.6875 15.847656 C 37.824219 15.679688 38.351562 15.613281 38.625 15.730469 C 39.011719 15.890625 39.292969 16.328125 39.265625 16.714844 C 39.257812 16.8125 39.253906 16.925781 39.25 16.964844 C 39.25 17 39.230469 17.035156 39.207031 17.035156 C 39.183594 17.035156 39.175781 17.050781 39.191406 17.070312 C 39.203125 17.089844 39.1875 17.132812 39.15625 17.164062 C 39.125 17.195312 39.105469 17.234375 39.117188 17.242188 C 39.125 17.253906 39.089844 17.292969 39.035156 17.328125 C 38.980469 17.363281 38.941406 17.410156 38.953125 17.429688 C 38.980469 17.472656 38.550781 17.644531 38.332031 17.671875 C 38.230469 17.6875 38.078125 17.675781 37.984375 17.648438 Z M 46.410156 17.417969 C 45.980469 17.257812 45.71875 16.886719 45.742188 16.476562 C 45.746094 16.417969 45.75 16.335938 45.753906 16.289062 C 45.757812 16.234375 45.773438 16.195312 45.796875 16.195312 C 45.816406 16.195312 45.820312 16.179688 45.808594 16.15625 C 45.796875 16.136719 45.804688 16.117188 45.828125 16.117188 C 45.851562 16.117188 45.859375 16.101562 45.847656 16.074219 C 45.835938 16.054688 45.84375 16.035156 45.867188 16.035156 C 45.894531 16.035156 45.90625 16.019531 45.890625 16 C 45.875 15.976562 45.894531 15.949219 45.925781 15.929688 C 45.957031 15.914062 45.984375 15.878906 45.984375 15.855469 C 45.980469 15.835938 46.015625 15.800781 46.054688 15.777344 C 46.09375 15.757812 46.140625 15.714844 46.160156 15.6875 C 46.210938 15.605469 46.617188 15.503906 46.808594 15.535156 C 47.292969 15.597656 47.667969 16.019531 47.664062 16.492188 C 47.660156 16.601562 47.652344 16.722656 47.640625 16.753906 C 47.628906 16.785156 47.609375 16.855469 47.59375 16.90625 C 47.578125 16.953125 47.546875 16.992188 47.523438 16.992188 C 47.503906 16.992188 47.496094 17.007812 47.511719 17.035156 C 47.523438 17.054688 47.488281 17.101562 47.433594 17.136719 C 47.378906 17.171875 47.34375 17.210938 47.355469 17.226562 C 47.367188 17.238281 47.292969 17.289062 47.1875 17.339844 C 46.945312 17.460938 46.609375 17.492188 46.410156 17.417969 Z M 80.320312 16.828125 C 80.011719 16.78125 79.699219 16.691406 79.398438 16.554688 C 79.234375 16.480469 79.148438 16.453125 79.132812 16.488281 C 79.125 16.515625 79.113281 16.507812 79.113281 16.46875 C 79.109375 16.429688 79.09375 16.394531 79.074219 16.386719 C 79.058594 16.382812 78.90625 16.175781 78.742188 15.929688 C 78.132812 15.03125 77.394531 13.980469 77.363281 13.96875 C 77.34375 13.960938 77.335938 13.9375 77.351562 13.917969 C 77.363281 13.898438 77.355469 13.882812 77.332031 13.882812 C 77.304688 13.882812 77.304688 13.851562 77.324219 13.792969 C 77.34375 13.742188 77.339844 13.65625 77.320312 13.59375 C 77.300781 13.535156 77.292969 13.363281 77.304688 13.214844 C 77.316406 13.066406 77.328125 12.886719 77.328125 12.816406 C 77.328125 12.746094 77.347656 12.683594 77.367188 12.683594 C 77.390625 12.683594 77.398438 12.640625 77.382812 12.585938 C 77.367188 12.527344 77.375 12.484375 77.402344 12.484375 C 77.425781 12.484375 77.433594 12.460938 77.421875 12.429688 C 77.410156 12.398438 77.417969 12.363281 77.441406 12.351562 C 77.464844 12.335938 77.472656 12.296875 77.457031 12.265625 C 77.445312 12.234375 77.457031 12.207031 77.480469 12.207031 C 77.507812 12.207031 77.515625 12.179688 77.5 12.148438 C 77.484375 12.113281 77.496094 12.085938 77.523438 12.085938 C 77.546875 12.085938 77.554688 12.058594 77.542969 12.027344 C 77.527344 11.996094 77.539062 11.96875 77.566406 11.96875 C 77.589844 11.96875 77.597656 11.953125 77.585938 11.925781 C 77.574219 11.90625 77.582031 11.886719 77.605469 11.886719 C 77.628906 11.886719 77.636719 11.871094 77.625 11.847656 C 77.613281 11.828125 77.621094 11.808594 77.644531 11.808594 C 77.667969 11.808594 77.675781 11.792969 77.664062 11.769531 C 77.652344 11.746094 77.660156 11.726562 77.683594 11.726562 C 77.707031 11.726562 77.714844 11.710938 77.703125 11.6875 C 77.691406 11.667969 77.699219 11.648438 77.722656 11.648438 C 77.746094 11.648438 77.753906 11.632812 77.742188 11.609375 C 77.730469 11.589844 77.738281 11.570312 77.761719 11.570312 C 77.789062 11.570312 77.800781 11.550781 77.785156 11.527344 C 77.769531 11.507812 77.796875 11.457031 77.839844 11.414062 C 77.882812 11.367188 77.90625 11.324219 77.894531 11.3125 C 77.882812 11.300781 77.902344 11.28125 77.9375 11.265625 C 77.972656 11.253906 77.992188 11.230469 77.980469 11.210938 C 77.957031 11.167969 78.234375 10.851562 78.296875 10.851562 C 78.328125 10.851562 78.378906 10.800781 78.40625 10.742188 C 78.472656 10.59375 78.929688 10.257812 79.285156 10.082031 C 79.792969 9.832031 80.265625 9.722656 80.855469 9.71875 C 82.195312 9.710938 83.421875 10.476562 84.035156 11.707031 C 84.183594 12.007812 84.328125 12.445312 84.367188 12.707031 C 84.414062 13.042969 84.390625 13.847656 84.320312 14.121094 C 84.308594 14.175781 84.289062 14.25 84.28125 14.28125 C 84.273438 14.3125 84.265625 14.34375 84.261719 14.351562 C 84.253906 14.355469 84.246094 14.378906 84.242188 14.402344 C 84.238281 14.425781 84.226562 14.449219 84.222656 14.460938 C 84.21875 14.472656 84.207031 14.5 84.203125 14.519531 C 84.199219 14.542969 84.1875 14.570312 84.183594 14.59375 C 84.179688 14.609375 84.175781 14.632812 84.179688 14.652344 C 84.179688 14.667969 84.164062 14.679688 84.136719 14.679688 C 84.117188 14.679688 84.109375 14.699219 84.121094 14.71875 C 84.132812 14.742188 84.125 14.757812 84.101562 14.757812 C 84.078125 14.757812 84.070312 14.78125 84.082031 14.800781 C 84.09375 14.824219 84.085938 14.839844 84.0625 14.839844 C 84.039062 14.839844 84.027344 14.855469 84.042969 14.875 C 84.054688 14.894531 84.039062 14.9375 84.007812 14.972656 C 83.976562 15.003906 83.960938 15.039062 83.972656 15.054688 C 83.988281 15.066406 83.976562 15.078125 83.949219 15.078125 C 83.921875 15.078125 83.910156 15.09375 83.921875 15.113281 C 83.933594 15.132812 83.917969 15.164062 83.878906 15.175781 C 83.847656 15.1875 83.828125 15.214844 83.839844 15.234375 C 83.851562 15.253906 83.835938 15.28125 83.800781 15.292969 C 83.769531 15.304688 83.75 15.335938 83.765625 15.355469 C 83.777344 15.378906 83.75 15.414062 83.707031 15.4375 C 83.664062 15.460938 83.632812 15.492188 83.640625 15.511719 C 83.648438 15.550781 83.085938 16.117188 83.035156 16.117188 C 83.015625 16.117188 82.992188 16.144531 82.976562 16.175781 C 82.964844 16.207031 82.929688 16.234375 82.894531 16.234375 C 82.863281 16.234375 82.835938 16.253906 82.835938 16.277344 C 82.835938 16.300781 82.8125 16.316406 82.78125 16.316406 C 82.746094 16.316406 82.695312 16.339844 82.667969 16.367188 C 82.507812 16.519531 81.792969 16.769531 81.347656 16.832031 C 81.023438 16.878906 80.652344 16.878906 80.320312 16.828125 Z M 45.414062 9.660156 C 45.328125 9.65625 45.214844 9.640625 45.164062 9.632812 C 45.027344 9.601562 44.765625 9.347656 44.722656 9.203125 C 44.675781 9.03125 44.671875 8.777344 44.722656 8.777344 C 44.746094 8.777344 44.75 8.761719 44.738281 8.738281 C 44.726562 8.714844 44.734375 8.695312 44.757812 8.695312 C 44.785156 8.695312 44.792969 8.679688 44.78125 8.65625 C 44.746094 8.609375 45.003906 8.347656 45.132812 8.296875 C 45.394531 8.199219 45.785156 8.308594 45.941406 8.523438 C 46.027344 8.648438 46.097656 8.898438 46.09375 9.054688 C 46.085938 9.199219 45.9375 9.464844 45.835938 9.515625 C 45.789062 9.535156 45.75 9.566406 45.75 9.582031 C 45.75 9.601562 45.714844 9.613281 45.675781 9.613281 C 45.632812 9.613281 45.589844 9.625 45.582031 9.644531 C 45.578125 9.660156 45.5 9.667969 45.414062 9.660156 Z M 37.785156 8.140625 C 37.523438 8.089844 37.246094 7.878906 37.121094 7.640625 C 37.058594 7.515625 37.023438 6.980469 37.078125 6.980469 C 37.097656 6.980469 37.101562 6.953125 37.089844 6.921875 C 37.074219 6.890625 37.085938 6.863281 37.113281 6.863281 C 37.136719 6.863281 37.144531 6.84375 37.132812 6.820312 C 37.121094 6.800781 37.128906 6.78125 37.152344 6.78125 C 37.175781 6.78125 37.183594 6.765625 37.171875 6.742188 C 37.160156 6.722656 37.167969 6.703125 37.1875 6.703125 C 37.210938 6.703125 37.226562 6.683594 37.222656 6.65625 C 37.207031 6.585938 37.53125 6.351562 37.71875 6.300781 C 37.945312 6.238281 38.234375 6.277344 38.445312 6.402344 C 38.808594 6.617188 39.019531 7.15625 38.871094 7.5 C 38.867188 7.511719 38.851562 7.558594 38.835938 7.613281 C 38.820312 7.660156 38.792969 7.699219 38.773438 7.699219 C 38.753906 7.699219 38.742188 7.714844 38.75 7.730469 C 38.765625 7.785156 38.519531 8 38.355469 8.066406 C 38.160156 8.148438 37.960938 8.179688 37.785156 8.140625 Z M 66.789062 6.472656 C 66.789062 6.390625 66.730469 6.300781 66.554688 6.128906 C 66.230469 5.804688 66.074219 5.457031 66.042969 5.003906 C 66.03125 4.753906 66.035156 4.667969 66.070312 4.667969 C 66.101562 4.667969 66.109375 4.636719 66.09375 4.589844 C 66.078125 4.539062 66.085938 4.507812 66.113281 4.507812 C 66.144531 4.507812 66.152344 4.476562 66.136719 4.429688 C 66.117188 4.378906 66.125 4.347656 66.15625 4.347656 C 66.179688 4.347656 66.1875 4.332031 66.175781 4.308594 C 66.164062 4.289062 66.171875 4.269531 66.195312 4.269531 C 66.21875 4.269531 66.226562 4.253906 66.214844 4.230469 C 66.203125 4.210938 66.210938 4.1875 66.234375 4.1875 C 66.257812 4.1875 66.265625 4.171875 66.253906 4.148438 C 66.242188 4.128906 66.25 4.109375 66.273438 4.109375 C 66.296875 4.109375 66.304688 4.089844 66.292969 4.070312 C 66.28125 4.046875 66.296875 4.015625 66.328125 4.003906 C 66.363281 3.992188 66.382812 3.964844 66.371094 3.949219 C 66.359375 3.929688 66.402344 3.875 66.46875 3.816406 C 66.535156 3.761719 66.574219 3.710938 66.5625 3.695312 C 66.550781 3.683594 66.570312 3.664062 66.605469 3.648438 C 66.640625 3.632812 66.65625 3.605469 66.644531 3.585938 C 66.632812 3.566406 66.640625 3.550781 66.664062 3.550781 C 66.691406 3.550781 66.699219 3.523438 66.6875 3.492188 C 66.667969 3.460938 66.675781 3.429688 66.703125 3.429688 C 66.726562 3.429688 66.734375 3.394531 66.722656 3.351562 C 66.707031 3.296875 66.722656 3.273438 66.765625 3.273438 C 66.800781 3.273438 66.878906 3.238281 66.933594 3.199219 C 67.019531 3.148438 67.148438 3.128906 67.5 3.121094 C 67.941406 3.105469 67.96875 3.109375 68.320312 3.246094 C 68.742188 3.40625 68.847656 3.472656 69.058594 3.667969 C 69.15625 3.757812 69.199219 3.828125 69.1875 3.875 C 69.167969 3.914062 69.203125 4.023438 69.246094 4.113281 C 69.371094 4.359375 69.445312 4.582031 69.472656 4.789062 C 69.492188 4.957031 69.507812 5.089844 69.519531 5.160156 C 69.519531 5.175781 69.550781 5.1875 69.582031 5.1875 C 69.613281 5.1875 69.640625 5.203125 69.640625 5.21875 C 69.640625 5.238281 69.601562 5.25 69.554688 5.246094 C 69.410156 5.234375 69.339844 5.289062 69.289062 5.460938 C 69.214844 5.71875 68.730469 6.15625 68.261719 6.398438 C 68.03125 6.519531 67.683594 6.554688 67.292969 6.496094 C 66.972656 6.449219 66.933594 6.449219 66.886719 6.515625 C 66.816406 6.609375 66.789062 6.597656 66.789062 6.472656 Z M 76.363281 6.277344 C 76.347656 6.261719 76.335938 6.183594 76.335938 6.105469 C 76.335938 5.921875 76.296875 5.882812 76.027344 5.828125 C 75.78125 5.777344 75.515625 5.644531 75.265625 5.449219 C 75.167969 5.371094 75.027344 5.257812 74.945312 5.199219 C 74.867188 5.136719 74.765625 5.03125 74.714844 4.964844 C 74.460938 4.582031 74.550781 3.429688 74.886719 2.816406 C 74.960938 2.683594 75.054688 2.46875 75.089844 2.34375 C 75.136719 2.171875 75.167969 2.117188 75.199219 2.152344 C 75.261719 2.214844 75.367188 2.203125 75.511719 2.117188 C 75.585938 2.074219 75.757812 2.003906 75.902344 1.957031 C 76.050781 1.90625 76.199219 1.828125 76.253906 1.769531 C 76.34375 1.660156 76.34375 1.660156 76.628906 1.710938 C 77.027344 1.78125 77.515625 2.023438 77.777344 2.292969 C 78.09375 2.605469 78.238281 2.84375 78.382812 3.261719 C 78.496094 3.597656 78.507812 3.675781 78.496094 4.023438 C 78.492188 4.234375 78.476562 4.449219 78.460938 4.5 L 78.417969 4.671875 C 78.410156 4.71875 78.382812 4.78125 78.359375 4.804688 C 78.339844 4.832031 78.328125 4.867188 78.347656 4.878906 C 78.359375 4.894531 78.351562 4.90625 78.320312 4.90625 C 78.292969 4.90625 78.28125 4.921875 78.296875 4.941406 C 78.308594 4.964844 78.300781 4.992188 78.277344 5.007812 C 78.253906 5.023438 78.246094 5.050781 78.257812 5.070312 C 78.273438 5.089844 78.253906 5.117188 78.222656 5.128906 C 78.1875 5.140625 78.171875 5.171875 78.183594 5.191406 C 78.195312 5.210938 78.175781 5.238281 78.144531 5.25 C 78.109375 5.261719 78.089844 5.289062 78.101562 5.308594 C 78.113281 5.324219 78.085938 5.363281 78.035156 5.386719 C 77.992188 5.414062 77.964844 5.441406 77.976562 5.457031 C 78.007812 5.488281 77.761719 5.746094 77.699219 5.746094 C 77.675781 5.746094 77.644531 5.773438 77.628906 5.804688 C 77.617188 5.835938 77.582031 5.863281 77.550781 5.863281 C 77.519531 5.863281 77.484375 5.875 77.476562 5.894531 C 77.457031 5.945312 77.011719 6.140625 76.773438 6.207031 C 76.433594 6.304688 76.398438 6.3125 76.363281 6.277344 Z M 32.042969 5.429688 C 31.792969 5.355469 31.558594 5.164062 31.445312 4.945312 C 31.382812 4.832031 31.363281 4.308594 31.417969 4.308594 C 31.4375 4.308594 31.445312 4.28125 31.429688 4.25 C 31.417969 4.21875 31.425781 4.1875 31.445312 4.1875 C 31.46875 4.1875 31.476562 4.160156 31.464844 4.128906 C 31.445312 4.097656 31.46875 4.0625 31.503906 4.046875 C 31.539062 4.035156 31.558594 4.003906 31.546875 3.988281 C 31.519531 3.945312 31.753906 3.75 31.917969 3.683594 C 32.082031 3.613281 32.445312 3.621094 32.636719 3.699219 C 32.96875 3.835938 33.171875 4.15625 33.164062 4.546875 C 33.15625 4.875 33.148438 4.945312 33.101562 4.945312 C 33.085938 4.945312 33.070312 4.972656 33.070312 5.003906 C 33.070312 5.035156 33.042969 5.070312 33.007812 5.082031 C 32.976562 5.09375 32.960938 5.121094 32.972656 5.144531 C 32.984375 5.167969 32.953125 5.203125 32.898438 5.226562 C 32.839844 5.246094 32.792969 5.277344 32.792969 5.296875 C 32.792969 5.351562 32.414062 5.464844 32.261719 5.460938 C 32.195312 5.460938 32.097656 5.445312 32.042969 5.429688 Z M 46.851562 4.972656 C 46.769531 4.941406 46.65625 4.886719 46.597656 4.851562 C 46.476562 4.765625 46.257812 4.429688 46.28125 4.359375 C 46.292969 4.332031 46.285156 4.300781 46.265625 4.289062 C 46.214844 4.257812 46.214844 3.949219 46.265625 3.949219 C 46.285156 3.949219 46.292969 3.921875 46.28125 3.890625 C 46.265625 3.859375 46.277344 3.828125 46.304688 3.828125 C 46.332031 3.828125 46.34375 3.800781 46.328125 3.769531 C 46.316406 3.738281 46.335938 3.695312 46.375 3.675781 C 46.410156 3.652344 46.425781 3.628906 46.410156 3.628906 C 46.347656 3.628906 46.667969 3.34375 46.792969 3.296875 C 46.96875 3.21875 47.308594 3.21875 47.492188 3.296875 C 47.671875 3.367188 47.871094 3.578125 47.960938 3.785156 C 48.027344 3.945312 48.054688 4.339844 48 4.371094 C 47.984375 4.382812 47.976562 4.414062 47.988281 4.433594 C 48.003906 4.453125 47.992188 4.46875 47.96875 4.46875 C 47.945312 4.46875 47.9375 4.488281 47.949219 4.507812 C 47.960938 4.53125 47.953125 4.546875 47.929688 4.546875 C 47.90625 4.546875 47.894531 4.5625 47.910156 4.582031 C 47.921875 4.609375 47.894531 4.644531 47.851562 4.667969 C 47.804688 4.691406 47.777344 4.726562 47.789062 4.742188 C 47.828125 4.808594 47.410156 4.996094 47.199219 5.011719 C 47.082031 5.023438 46.933594 5.007812 46.851562 4.972656 Z M 51.378906 3.621094 C 50.378906 3.417969 49.703125 2.921875 49.269531 2.050781 C 48.828125 1.175781 48.769531 0.964844 48.792969 0.273438 C 48.800781 0 48.800781 0 52.027344 0 C 55.253906 0 55.253906 0 55.28125 0.09375 C 55.296875 0.140625 55.324219 0.207031 55.332031 0.238281 C 55.355469 0.328125 55.351562 0.921875 55.328125 1.039062 C 55.316406 1.09375 55.296875 1.164062 55.289062 1.199219 C 55.28125 1.230469 55.261719 1.28125 55.246094 1.308594 C 55.226562 1.332031 55.226562 1.355469 55.242188 1.355469 C 55.253906 1.355469 55.246094 1.386719 55.21875 1.417969 C 55.191406 1.449219 55.183594 1.476562 55.195312 1.476562 C 55.210938 1.476562 55.199219 1.515625 55.171875 1.566406 C 55.144531 1.617188 55.128906 1.667969 55.132812 1.6875 C 55.136719 1.703125 55.121094 1.714844 55.097656 1.714844 C 55.078125 1.714844 55.070312 1.734375 55.082031 1.753906 C 55.09375 1.78125 55.085938 1.796875 55.0625 1.796875 C 55.039062 1.796875 55.027344 1.816406 55.042969 1.835938 C 55.054688 1.859375 55.046875 1.875 55.019531 1.875 C 54.996094 1.875 54.988281 1.894531 55 1.914062 C 55.011719 1.9375 55.003906 1.957031 54.980469 1.957031 C 54.957031 1.957031 54.945312 1.972656 54.957031 1.988281 C 54.96875 2.007812 54.945312 2.058594 54.902344 2.101562 C 54.863281 2.152344 54.839844 2.195312 54.851562 2.210938 C 54.863281 2.222656 54.84375 2.242188 54.808594 2.257812 C 54.773438 2.269531 54.75 2.296875 54.765625 2.3125 C 54.777344 2.335938 54.746094 2.375 54.703125 2.40625 C 54.660156 2.433594 54.636719 2.46875 54.648438 2.480469 C 54.660156 2.492188 54.597656 2.566406 54.511719 2.632812 C 54.421875 2.707031 54.359375 2.777344 54.367188 2.792969 C 54.386719 2.824219 54.171875 2.992188 54.113281 2.992188 C 54.089844 2.992188 54.054688 3.027344 54.03125 3.070312 C 54.007812 3.117188 53.964844 3.152344 53.933594 3.152344 C 53.898438 3.152344 53.871094 3.171875 53.871094 3.191406 C 53.871094 3.214844 53.84375 3.230469 53.8125 3.230469 C 53.78125 3.230469 53.753906 3.246094 53.753906 3.269531 C 53.753906 3.289062 53.710938 3.316406 53.65625 3.328125 C 53.597656 3.34375 53.554688 3.371094 53.554688 3.390625 C 53.554688 3.414062 53.53125 3.429688 53.503906 3.429688 C 53.476562 3.429688 53.386719 3.46875 53.304688 3.507812 C 53.222656 3.550781 53.082031 3.59375 52.996094 3.609375 C 52.914062 3.625 52.835938 3.652344 52.828125 3.667969 C 52.785156 3.730469 51.757812 3.699219 51.378906 3.621094 Z M 40.769531 2.269531 C 40.503906 2.21875 40.316406 2.113281 40.09375 1.886719 C 39.789062 1.585938 39.679688 1.320312 39.664062 0.855469 C 39.660156 0.648438 39.667969 0.472656 39.6875 0.460938 C 39.707031 0.449219 39.714844 0.410156 39.699219 0.378906 C 39.6875 0.347656 39.699219 0.320312 39.726562 0.320312 C 39.753906 0.320312 39.761719 0.289062 39.746094 0.238281 C 39.734375 0.195312 39.738281 0.160156 39.757812 0.160156 C 39.78125 0.160156 39.796875 0.128906 39.792969 0.09375 C 39.789062 0.0234375 39.878906 0.0195312 41.070312 0.0078125 C 41.78125 0.00390625 42.375 0.015625 42.390625 0.03125 C 42.410156 0.0507812 42.433594 0.117188 42.441406 0.171875 C 42.464844 0.3125 42.496094 0.46875 42.527344 0.640625 C 42.574219 0.855469 42.566406 0.988281 42.484375 1.335938 C 42.476562 1.382812 42.464844 1.425781 42.460938 1.4375 C 42.457031 1.449219 42.453125 1.46875 42.457031 1.488281 C 42.457031 1.503906 42.441406 1.515625 42.417969 1.515625 C 42.398438 1.515625 42.386719 1.53125 42.398438 1.550781 C 42.410156 1.574219 42.394531 1.601562 42.359375 1.613281 C 42.324219 1.628906 42.304688 1.648438 42.320312 1.664062 C 42.347656 1.691406 42.152344 1.914062 42.097656 1.914062 C 42.082031 1.914062 41.972656 1.976562 41.859375 2.050781 C 41.746094 2.121094 41.585938 2.199219 41.511719 2.214844 C 41.433594 2.230469 41.355469 2.253906 41.335938 2.261719 C 41.277344 2.300781 40.941406 2.304688 40.769531 2.269531 Z M 40.769531 2.269531 "
    />
  </g>
</svg>
