<svg xmlns="http://www.w3.org/2000/svg" id="root" viewBox="212.9 380 24987.1 14790.7">
  <path
    d="M220 13296c0-1874 0-1874 87-1955s87-81 1208-81c616 0 1288 5 1494 10 375 10 375 10 409 42 85 82 280 417 511 878 377 754 528 1159 640 1715 101 499 115 838 48 1120-33 140-33 140-2215 143-2182 2-2182 2-2182-1872zm506-1161c92-76 267-289 324-396 24-45 27-59 17-67-23-19-138-32-282-31-166 0-227 9-263 36-24 19-27 26-26 79 2 60 94 384 117 412 17 21 64 7 113-33zm1198 10c123-123 318-419 302-460-7-19-79-32-248-45-172-14-403-10-435 8-76 42-37 136 162 385 83 104 131 147 167 147 10 0 33-16 52-35zm1256-24c52-82 120-310 120-405 0-68-3-68-289-64-268 5-321 13-321 48 0 54 247 342 380 443 52 40 73 35 110-22zm9552 3040c-29-5-63-16-77-25-29-19-51-88-60-196-4-41-13-90-21-108-7-18-16-85-19-150-5-111-16-196-50-377-8-44-15-102-15-130 0-59-14-89-30-65-8 12-10 9-10-12 0-17 5-28 14-28 10 0 16-22 21-82 38-476 258-877 663-1211 66-55 89-79 78-83-31-12 110-122 310-242 553-332 1223-582 1972-736 200-41 192-41 192-21s17 19 145-10c148-34 203-53 215-75 22-41 31-400 39-1680 11-1453 19-2031 31-2050 10-16 522-27 1645-35 1090-7 1902 4 1916 25 6 10 9 11 9 3 0-7 5-13 10-13 19 0 10 58-16 96-59 88-133 143-193 144-24 0-24 0-5-22 10-12 13-18 5-13-8 4-120 11-250 14-318 8-331 16-251 163 112 208 131 253 120 284-9 25-8 27 4 12 35-46 35 5 0 75-15 28-80 134-146 235-428 660-727 1303-917 1977-76 269-88 323-70 340 16 16 142 3 543-55 559-80 918-96 1991-86 418 4 868 11 1000 16 489 19 945 23 1120 11 537-38 1171-165 1685-338 345-116 562-222 689-339 87-80 110-94 147-94 31 0 31 0 33 534 1 373-2 536-9 541-6 4-8 14-5 24 4 14-15 24-112 59-438 157-975 255-1607 292-523 31-1568 29-2021-5-260-19-390-33-870-95-730-95-848-103-1380-98-297 3-409 8-433 17-19 8-30 17-25 22 8 8 138 29 268 44 66 7 258 47 345 71 147 41 512 158 501 162-30 10-3 30 82 60 106 37 107 37 107 16 0-11 6-14 18-11 9 4 168 57 352 120 1060 359 1649 467 2545 467 727 0 1141-42 1576-160 283-77 374-122 526-260 59-55 114-99 120-100 7 0 15 10 18 23 4 13 5 283 3 600-2 444-6 579-16 589-15 15-737 120-990 144-242 22-790 15-1107-15-699-68-1412-212-2260-459-211-61-683-217-1505-496-473-161-1201-346-1362-346-55 0-104 25-122 64-26 55-37 208-37 521 1 571 36 930 146 1465 78 382 184 761 250 890 29 56 33 92 10 84-10-4-7 8 11 40 14 26 22 51 18 58s2 4 14-6c22-19 22-19 22 1 0 22-40 40-50 23-3-6-111-6-275 0-149 5-622 10-1052 10-783 0-783 0-784-617-1-822-16-2078-26-2128-9-40-9-40-63-40-47 0-73 9-175 60-101 51-120 64-123 85-2 19-20 35-80 69-604 348-1100 744-1457 1166-102 120-229 297-278 387-25 44-37 58-55 58-19 0-29 13-57 73-110 239-121 450-36 704 68 204 81 186-139 181-288-6-275 14-274-418 0-451 29-631 135-859 39-82 47-107 38-122-12-22-2-42 89-174 202-293 593-661 967-909 196-130 860-507 982-558 49-20 69-38 42-38-25 0-312 73-433 110-345 106-801 293-911 374-16 13-84 53-150 91-130 73-256 169-393 298-100 94-262 263-311 325-33 40-61 55-61 30 0-40-139 160-213 307-86 169-155 371-181 530-24 140-39 361-32 459 5 76 10 95 36 134 33 51 60 117 96 240 32 112 32 150-1 162-35 13-250 21-313 11zm4620-6556c81-86 288-426 288-472 0-7-12-21-27-30-24-16-56-18-323-18-304 0-350 6-350 41 0 82 238 456 328 516 29 19 34 17 84-37zm1005 13c57-53 106-117 216-280 89-133 127-212 111-228-24-24-138-32-414-28-324 5-346 9-336 61 18 91 207 409 285 480 54 49 80 48 138-5zm-1783-31c55-72 160-327 172-421 6-40 4-45-22-62-23-15-52-20-152-23-202-5-251 20-238 120 21 158 143 419 196 419 10 0 30-15 44-33zM6420 14903c-37-131-32-286 16-503 77-345 276-789 431-961 50-55 85-64 259-63 166 1 224 13 224 45 0 11-41 92-92 182-165 292-392 765-405 840-13 80 82 101 420 95 219-4 235-5 281-28 40-19 53-32 72-74 12-28 27-83 33-122 35-230 192-702 290-868 46-79 46-79 525-72 264 3 1097 6 1852 6 1374 0 1374 0 1429 68 222 267 448 923 481 1395 6 97 6 97-2899 97-2906 0-2906 0-2917-37zm2714-345c24-7 61-32 88-58 110-106 94-278-34-367-38-25-49-28-128-28-78 0-91 3-129 28-125 83-145 248-42 358 68 73 149 95 245 67zm945-521c85-56 125-158 101-258-16-67-94-151-155-168-160-44-310 65-308 224 1 73 21 123 69 171 53 53 87 65 175 62 63-3 82-7 118-31zm-587-119c81-62 101-182 44-268-36-55-119-95-178-86-62 10-115 42-145 88-24 35-28 52-28 108s4 73 27 108c41 62 87 83 174 79 59-2 77-7 106-29z"
  />
  <path
    d="M19285 14111c-50-23-99-74-119-123-23-55-21-201 3-253 23-49 74-99 123-119 45-19 173-21 230-4 23 7 59 30 83 55 59 58 79 121 73 224-6 98-39 158-112 204-45 27-58 30-145 33-78 2-104-1-136-17zm5079-30c-52-24-108-90-124-146-7-24-11-79-9-123 4-70 8-86 34-123 17-24 50-57 74-74 38-27 52-30 128-34 48-2 104 2 125 8 50 15 116 75 139 126 24 52 26 189 3 243-20 49-70 100-119 123-55 26-194 26-251 0zm-4213-633c-25-13-58-40-75-61-26-33-30-46-34-121-4-73-1-91 18-131 32-67 84-98 171-103 96-6 134 4 179 44 54 49 74 106 68 193-6 83-28 124-86 165-35 25-53 30-119 33-67 4-84 1-122-19zm-12919-358c-52-12-59-25-38-65 59-109 612-573 929-779 189-124 174-119 442-124 127-2 321-1 433 3 202 7 202 7 202 480s0 473-132 479c-427 18-860 14-897-9-15-9 9-64 63-146 91-137 106-187 61-207-15-7-76-12-147-12-167 0-173 3-384 217-170 173-170 173-335 172-90-1-179-5-197-9zm2314-6c-23-58-34-929-13-951 4-3 166-7 360-7 268-1 361 2 389 12 43 15 468 298 573 381 251 198 592 515 583 542-3 8-27 17-59 22-30 4-453 10-940 13-860 6-886 6-893-12zm-1186-1644c0-382 0-382 210-376 116 3 305 9 420 12 210 6 210 6 210 364 0 412 65 365-517 376-323 6-323 6-323-376zm1175 198c-10-262-11-479-2-511 15-53 48-59 384-65 254-4 303-3 307 9 7 22 23 608 18 666-4 50-5 53-40 64-24 8-152 14-348 16-312 5-312 5-319-179zm-8612-665c-319-3-393-6-393-17 0-7 40-136 89-287 104-320 161-512 161-544 0-12 6-27 13-33 26-21 227-24 1188-17 996 8 996 8 1028 136 41 165 157 514 215 646 24 57 41 105 37 107-10 6-1859 14-2338 9zm22661-164c-51-12-118-68-146-123-18-33-22-58-23-132 0-84 2-94 30-139 17-27 50-63 73-79 37-27 52-30 132-34 108-5 159 10 213 65 54 53 70 104 66 211-4 81-7 95-34 133-48 68-108 100-196 104-41 2-92 0-115-6zm-15219-51c-2-7-15-58-29-113-28-113-67-224-120-337-39-83-45-122-21-132 65-25 854-32 940-8 17 5 35 19 42 34 17 34 31 184 37 396 5 172 5 172-420 172-331 0-426-3-429-12zm1263 3c-37-4-73-12-80-19-10-10-13-69-13-250 0-283 3-306 48-322 56-20 437-33 622-22 232 15 249 30 181 161-32 62-81 207-124 366-19 70-19 70-73 76-78 9-482 16-561 10zm10555-191c-44-10-76-33-109-76-24-31-28-47-32-119s-1-90 18-130c32-67 84-98 171-103 94-6 133 3 176 41 66 58 90 159 62 262-28 100-156 156-286 125zM7950 9871c-47-4-91-10-97-14-23-14-14-61 25-126 68-116 221-250 335-293 70-27 315-39 682-36 300 3 300 3 303 227 1 124-1 228-5 232-11 9-1134 18-1243 10zm1594-133c16-372-12-334 259-341 412-10 539 9 684 105 148 98 319 296 286 329-5 5-39 14-75 19-89 13-610 30-912 30-248 0-248 0-242-142zm-8663 33c-11-7-13-36-7-158 9-177 44-644 49-650 5-4 388 14 391 19 1 2-1 62-5 133-5 72-12 231-18 355-10 237-18 284-54 295s-341 17-356 6zm697 2c-36-3-51-9-60-26-10-16-13-98-13-317 1-304 12-431 41-460 12-13 57-15 282-14 250 0 373 11 394 32 14 14 28 201 35 483 6 277 6 277-18 290-19 11-89 14-319 15-162 1-316-1-342-3zm946-4c-17-5-37-15-43-23-16-19-30-283-31-557 0-197 2-217 18-224 27-11 272-19 335-11 68 9 61-19 81 321 34 567 52 505-150 504-99 0-193-5-210-10zm16976-200c-223-3-426-7-452-8-48-1-48-1-48-39 0-47 29-103 62-119 67-33 251-36 3182-40 1600-2 2920-2 2933 2 22 5 23 9 23 110 0 105 0 105-2647 103-1457-1-2830-5-3053-9zM1245 8660c-258-7-328-13-352-33-20-15-41-99-73-289-16-97-47-252-70-345-45-187-147-514-162-524-6-4-61-16-122-28s-119-25-129-28c-17-4-18-17-15-176 4-199 5-202 105-278 32-24 97-75 145-112 88-68 88-68 1240-64 817 3 1170 8 1213 16 137 26 271 124 345 251 48 83 69 153 77 261 5 78 4 88-15 107-12 12-40 23-69 27-156 21-198 42-227 117-40 99-183 709-212 904-19 129-30 161-57 176-43 23-1010 34-1622 18zm7850-735c-77-76-138-119-290-207-283-164-951-501-1170-591-95-39-107-41-230-47-120-5-134-8-183-35-81-44-152-127-185-216-67-180-135-522-207-1044-50-366-61-397-263-803-95-191-191-378-212-417-101-182-193-303-336-440-98-94-161-137-178-120-6 7 11 64 48 160 91 236 313 779 371 905 197 435 370 953 460 1377 35 165 37 231 11 289-76 167-301 84-419-155-32-65-36-83-38-158-3-104-5-117-60-388-55-268-113-505-150-605-59-164-107-239-263-405-46-49-150-171-230-270-172-212-276-323-386-412-119-96-187-125-201-88-15 38 64 235 195 483 98 186 160 268 362 478 240 249 349 396 353 477 2 48-20 40-68-23-51-68-197-172-410-293-260-148-413-208-451-177-37 31 2 213 63 289 16 20 60 58 98 84 114 79 644 337 752 366 57 16 102 58 156 144 56 91 131 245 122 254-18 18-658-289-901-433-116-69-162-108-235-204-96-126-157-166-332-216-103-30-215-73-253-98-43-28-135-148-170-221-62-128-68-243-24-465 42-214 127-432 226-581 91-139 200-240 387-358 203-129 382-217 592-291 65-23 160-59 209-80 213-89 397-148 960-305 337-95 412-114 480-125 320-50 935-58 1067-14 37 12 58 28 86 63 47 59 158 275 290 566 56 121 115 249 133 285 50 104 116 269 134 340 31 122 36 175 45 555 9 360 13 432 41 737 14 153 5 270-46 623-19 132-38 286-41 341-7 102-7 102 42 138 66 48 288 167 438 234 148 66 272 108 347 117 85 9 94 25 93 144-1 113-19 180-120 444-67 174-67 174-127 181-33 3-81 6-106 6-56 0-115 15-130 34-6 7-16 51-22 97-10 86-28 129-53 129-8 0-40-25-71-55zm124-458c40-65 91-207 91-253 0-66-46-105-236-198-86-43-167-81-179-86s-211-96-441-203c-429-200-554-251-595-245-31 4-89 81-146 196-37 73-45 97-37 110 13 21 67 58 154 105 143 78 1117 538 1263 597 80 32 93 30 126-23zm-1632-945c17-11 60-111 83-195 24-87 26-213 5-324s-40-269-70-578c-47-496-101-746-205-955-49-99-215-393-253-449-54-80-180-225-284-328-101-101-156-142-168-124-19 31 103 385 315 916 184 460 206 539 300 1050 95 520 144 748 190 886 33 96 55 122 87 101zm824-110c27-22 26 21 11-492-28-955-63-1252-188-1629-62-183-199-450-300-582-81-106-220-215-287-226-36-5-37-5-37 24 0 33 119 392 195 588 133 345 192 614 265 1220 89 742 138 974 223 1063 51 54 82 62 118 34zm11589 1153c11-13-205-15-1939-15-1951 0-1951 0-1951-216s0-216 2033-211c1856 5 2208 10 2276 32 25 7 27 27 6 45-8 7-15 17-15 22 0 6 7 5 15-2 13-10 15-9 15 12 0 29-73 102-247 246-112 94-125 102-164 102-36 0-40-2-29-15zm-4100-805c-75-38-154-85-175-104-40-34-40-34-46-252-9-300-10-784-3-824 6-27 15-36 60-56 142-63 258-69 1487-85 1178-14 3121 6 3442 36 33 4 95 18 138 33 77 27 77 27 77 584 0 556 0 556-165 647-164 91-164 91-2422 91-2258-1-2258-1-2393-70zm1505-1610c-639-8-1019-20-1031-33-3-3 2-20 12-39 18-36 233-355 373-554 47-67 166-239 264-381 198-288 310-437 347-465 22-15 61-19 320-28 162-5 566-10 896-10 602 0 602 0 745 203 432 610 778 1115 828 1209 20 36 33 70 28 74-4 4-85 11-180 15-293 12-1877 18-2602 9zM3444 4819c-589-386-804-534-829-572-34-52-74-376-57-467 7-39 11-45 30-43 32 4 111 56 297 196 290 219 612 420 907 568 140 70 140 70 136 297-3 141-9 237-16 255-23 54-43 44-468-234zm491-573c-254-83-1215-764-1215-860 0-48 332-411 397-433 58-21 101 8 413 272 290 246 440 352 632 451 144 73 168 90 168 118 0 14-29 57-76 112-56 65-89 117-129 199-29 60-61 118-72 127-27 25-71 30-118 14z"
  />
  <path
    d="M1979 3882c-449-260-560-345-624-475-97-198-50-558 110-847 164-297 364-508 691-726 251-167 521-272 868-334 275-50 417-13 638 165 159 130 528 488 528 515 0 5-21 11-47 14-101 12-234 49-398 111-503 188-761 346-1037 633-174 183-277 339-363 553-46 113-71 224-89 393-9 76-17 140-19 142s-118-63-258-144zm73-989c124-89 122-263-4-349-38-25-52-29-113-28-85 0-129 23-175 91-56 86-36 217 43 277 50 38 76 46 144 43 51-2 70-9 105-34zm844-648c149-44 186-182 78-290-47-47-131-85-188-85-103 0-266 119-266 194 0 26 75 119 122 151 67 45 164 57 254 30z"
  />
  <path
    d="M4444 3466c-232-76-431-200-704-440-155-136-271-256-268-275 3-18 164-104 279-150 91-36 238-80 297-88 56-8 89 15 267 187 238 231 329 313 416 375 46 32 104 75 129 95s76 58 113 85c56 39 66 50 55 60-21 20-231 134-295 161-85 34-162 32-289-10zm13296-96c-311-9-293-8-314-23-27-20-36-123-29-343 6-201 6-201 497-206 654-7 1094 3 1202 27 82 18 82 18 88 199 4 100 9 211 12 247 6 66 6 66-102 78-256 29-767 37-1354 21zM4968 2854c-99-67-161-119-262-219-74-74-89-95-63-95 34 0 453 369 420 370-7 0-50-25-95-56zm-4024 9c-178-95-357-228-539-402-61-59-127-117-148-131-40-27-54-50-37-60 6-4 11-22 11-41s-3-440-7-937c-6-902-6-902 1222-902 676 0 1238-2 1249-4s14-1 8 1c-19 7-17 11 38 108 95 166 198 322 324 489 69 92 125 171 125 176 0 15-8 17-185 49-315 59-515 124-770 250-545 270-957 717-1143 1238-70 194-78 203-148 166zm16559-350c-58-3-85-8-94-19-16-19-26-292-12-343 10-38 14-40 91-65 29-10 75-30 103-46 114-68 201-73 1009-64 580 7 580 7 580 269s0 262-332 268c-322 7-1181 6-1345 0zm299-855c16-12 15-20-11-99-29-88-74-181-98-201-11-9-17-8-23 3-7 11-18 6-52-27-53-51-93-74-185-109-58-21-73-31-73-47 0-13 5-18 14-15 11 4 14-38 18-246 4-257 9-287 45-302 46-17 313-24 970-25 712 0 712 0 733 47 29 66 41 126 41 203 0 44 5 70 16 82 13 15 13 22-2 74-9 31-34 91-56 133-47 91-70 194-71 313-1 76 2 94 25 139 51 98 119 88-640 89-542 0-664-2-651-12zm418 13502c0-3 9-11 20-18 33-21 25-58-19-87-46-31-72-84-136-278-107-327-252-1031-284-1387-33-353-44-1013-21-1209 18-159 48-191 178-191 191 0 875 170 1392 346 822 279 1294 435 1505 496 1099 320 1973 471 2805 485 392 7 491-1 1091-87 229-33 420-60 425-60s10 19 10 43c0 23 4 468 9 989 8 947 8 947-16 953-30 7-6959 12-6959 5zm1316-1096c131-81 150-256 39-367-147-147-394-43-395 166 0 97 49 178 135 219 62 29 158 21 221-18zm5042-10c85-35 142-120 142-214 0-69-25-124-77-171-51-47-100-62-174-57-70 5-127 40-173 105-75 107-24 278 98 334 50 23 134 24 184 3zm-4216-649c106-70 115-212 18-299-90-81-237-51-290 59-46 96-8 202 91 253 56 30 124 25 181-13zm-5447 1285c-44-10-122-27-174-38-89-20-110-31-111-59 0-7-17-15-37-18-181-29-279-60-413-131-77-41-186-121-253-186-31-31-58-48-73-48-24 0-24 0 1-50 37-74 166-261 250-365 354-435 833-829 1460-1197 150-89 150-89 156 19 4 59 9 432 13 828 3 396 9 829 12 963 6 242 6 242-32 242-22 0-86 9-144 21-142 28-147 28-375 33-166 3-214 1-280-14zm-1396-919c-8-10-21-31-30-47-31-57-44-79-52-85-4-3-9-16-10-27-1-12-5-22-10-22s-6-7-3-16c4-9 1-23-5-30-6-8-8-25-5-39 4-16 2-25-5-25-6 0-9-9-6-20s1-20-5-20-8-7-4-15c3-8 1-15-5-15s-9-7-5-15c3-8 1-15-5-15s-9-7-5-15c3-8 0-15-6-15s-9-3-5-6c9-9-16-33-28-26-18 11 78-100 175-203 220-232 395-378 575-480 66-38 134-78 150-91 76-56 398-198 665-293 260-92 627-191 709-191 45 0 57 14 47 53-4 16-21 30-59 45-122 51-786 428-982 558-419 278-827 676-1028 1001-40 66-45 70-58 54zm-296-1078c-8-3-1-16 20-36 30-28 33-37 29-75-2-23 1-48 7-55 5-7 8-23 4-35-3-13-1-22 6-22s9-9 5-25c-4-15-2-25 5-25 6 0 8-7 5-15-4-8-1-15 6-15s9-8 5-20c-4-11-2-20 4-20s8-7 5-15c-4-8-1-15 5-15s8-7 5-15c-4-8-1-15 6-15 6 0 8-4 5-10-3-5-2-10 4-10s8-7 5-15c-4-8-1-15 6-15 6 0 8-4 5-10-3-5-2-10 4-10s8-6 5-14c-3-7 2-20 10-29 8-8 12-17 9-21-4-3-1-6 6-6s9-4 6-10c-3-5-1-10 5-10s8-4 5-10c-3-5-2-10 4-10s8-7 5-15c-4-8-1-15 5-15s8-7 5-15c-4-8-1-21 5-29 6-7 9-21 5-30-3-9-1-16 5-16s8-6 5-14 3-23 14-34 18-23 15-26c-4-3-1-6 6-6s9-5 6-10c-3-6 1-13 9-16 9-3 13-10 10-15s2-12 10-15c9-3 14-10 11-14-3-5 5-16 17-24 12-9 18-16 13-16-6-1 0-9 12-19s20-21 17-24 8-15 25-28c17-12 28-26 25-30-2-4 18-27 46-50s48-45 45-47c-7-7 66-82 80-82 6 0 28-20 48-45 21-25 42-45 46-45 5 0 23-13 41-30 18-16 38-30 46-30s14-4 14-9c0-4 26-25 58-45 31-20 73-49 92-65s105-57 190-91 167-68 181-76c38-19 109-81 102-88-4-3-1-6 6-6s9-4 6-10c-3-5-2-10 4-10s8-7 5-15c-4-8-1-15 5-15s8-7 5-15-2-20 2-27c5-7 9-185 9-395 0-383 0-383-138-429-494-168-873-491-1100-941-44-86-108-253-102-263 3-6 1-10-5-10-7 0-10-7-6-15 3-8 1-15-5-15s-9-7-6-15c4-8 2-17-4-21-6-3-8-12-5-20 3-7 1-16-5-20-6-3-8-12-5-20 3-7 1-16-5-20-6-3-8-12-5-20 3-7 0-16-5-20-6-3-9-15-6-25s1-22-4-25-9-17-9-32-3-47-7-72c-5-38-6-122-4-502 1-20 5-39 11-43 5-3 7-17 4-31-4-15-2-24 6-24 7 0 9-8 5-20s-2-20 5-20 10-7 6-15c-3-8-1-15 5-15s8-9 4-20-2-20 4-20 8-7 5-15c-4-8-1-15 6-15 6 0 8-4 5-10-3-5-1-10 5-10 7 0 10-7 6-15-3-8-1-15 4-15s7-7 4-15c-4-8-1-15 5-15s8-7 5-15c-4-8-1-15 6-15 6 0 8-4 5-10-3-5-2-10 4-10s8-7 5-15c-4-8-1-15 6-15 6 0 8-4 5-10-3-5-2-10 4-10s8-7 5-15c-4-8-1-15 6-15 6 0 8-4 5-10s-2-10 4-10 8-7 5-15c-4-8-1-15 6-15 6 0 8-4 5-10-3-5-1-10 5-10s8-4 5-10c-3-5-1-10 5-10s8-4 5-10c-3-5-1-10 5-10s8-4 5-10c-3-5-1-10 5-10s8-4 5-10c-3-5-1-10 5-10s8-4 5-10c-3-5-1-10 5-10s8-4 5-10c-3-5-1-10 5-10s8-4 5-10c-3-5-1-10 5-10s9-4 5-10c-3-5 3-18 14-29s17-22 14-25 2-8 11-12c9-3 13-10 10-15s0-9 6-9 8-5 5-10c-3-6 1-13 9-16 9-3 14-10 11-14-3-5 4-15 15-23 11-7 17-16 14-20-3-3 6-13 20-22 14-10 24-21 21-25-3-5 11-21 30-36 20-15 33-29 30-32-7-7 106-122 120-122 6 0 16-9 23-20s16-20 21-20 23-13 41-30c18-16 38-30 46-30s14-4 14-9c0-28 388-248 495-281 39-12 83-27 99-33 37-14 86-55 86-73 0-8 3-14 8-14 4 0 8-19 8-42 1-24 5-99 9-168 10-166 11-249 3-410-9-173-14-196-49-221-39-27-207-110-294-144-124-49-260-122-343-184-101-77-312-279-395-380-78-94-148-196-140-205 4-3 2-6-4-6-12 0-88-140-76-140 4 0 3-4-3-8-12-8-47-92-38-92 4 0 2-6-4-12-6-7-11-17-12-23-1-5-6-21-11-33-5-13-7-27-4-32s1-11-4-14c-8-6-33-92-36-126 0-9-5-21-9-28s-5-16-2-19 2-11-4-18c-5-6-11-27-13-46s-6-40-10-46-7-22-7-34c0-13-2-93-4-176-2-84 0-155 4-158 5-3 6-21 3-40-4-22-2-35 5-35s9-11 6-30c-4-19-2-30 5-30s9-9 5-24c-3-13-1-27 4-30 6-3 8-15 5-26s0-20 6-20c7 0 9-9 5-25s-2-25 6-25c7 0 9-8 5-19-3-11-2-22 4-25 5-3 7-15 4-26s-1-20 5-20 8-9 5-20-1-20 5-20 8-9 5-20-1-20 5-20 8-9 5-20 0-20 6-20c5 0 8-7 5-15-4-8-1-15 5-15s8-7 5-15c-4-8-1-15 6-15 6 0 8-4 5-10-3-5-1-10 5-10 7 0 10-7 6-15-3-8-1-15 5-15s7-5 4-10-1-10 5-10 9-4 5-10c-7-12 42-110 56-110 5 0 7-4 4-10-3-5-1-10 5-10s8-4 5-10c-3-5-1-10 5-10s9-4 5-10c-3-5 2-18 12-28s19-25 21-33 10-19 17-25c8-6 12-14 8-17-3-4 2-9 11-13 9-3 13-10 10-15s2-12 10-15c9-3 14-10 11-14-3-5 5-16 17-24 12-9 18-16 13-16-6-1 1-10 14-20 13-11 19-20 15-20-5-1 1-9 13-19s20-21 17-24c-3-2 10-17 28-32s33-31 33-35c0-17 186-193 260-245 190-135 476-286 625-328 85-25 85-25 90-793 3-423 6-770 8-772 1-1 199-1 440 0 437 3 437 3 444 578 6 524 13 807 22 883 2 16 12 37 22 47 23 22 157 96 341 188 261 131 439 269 649 500 95 105 115 136 167 252 6 14 24 44 39 67s28 44 28 47 11 29 24 58c21 46 66 174 72 203 1 6 10 37 19 70 10 33 18 61 17 62 0 1 12 37 27 80 25 70 30 78 52 76 24-2 24-2 1 15-85 62-178 172-299 352-28 41-167 242-309 445-252 361-327 473-413 623-60 103-95 140-139 147-111 17-310 99-419 173-33 22-83 67-111 100-52 60-52 60-52 698 0 639 0 639 70 721 85 99 204 191 288 222 45 17 63 29 67 45 2 11 7 691 10 1509 3 819 9 1495 12 1503 3 9-2 14-16 14-12 0-21 5-21 10 0 6-4 10-9 10-13 0-79 68-73 75 3 3 1 5-5 5-5 0-10 6-11 13 0 6-4 26-7 42-18 95-30 322-27 530 2 211 7 258 28 290 18 27 117 79 122 64 2-5 7-9 11-9 5 0 5 19 0 43-4 23-8 85-9 137 0 116-17 304-33 385-13 60-13 60-57 68-889 169-1720 494-2297 898-62 44-113 79-115 78-2 0-9-3-15-6zm9187-174c-608-48-1127-159-1865-400-400-130-505-169-505-189 0-12-22-26-79-49-87-34-121-39-121-17 0 10-40 1-152-36-364-117-557-164-788-193-127-15-235-37-247-49-11-10 22-39 67-60 43-20 64-21 475-24 562-5 689 4 1370 93 715 94 956 113 1525 124 418 8 1035-1 1342-19 646-38 1232-146 1648-305 64-24 96-32 100-25 9 14 21 480 15 575-4 70-4 70-110 167-150 136-243 182-524 258-448 121-853 161-1626 159-231-1-467-5-525-10zm-4448-1321c-28-28-9-135 78-439 171-593 466-1243 814-1793 273-432 364-570 437-661 87-110 209-234 248-255 62-32 153-143 171-209 5-20 29-56 52-81 49-52 250-210 268-210 30 0 418-345 436-389 27-64 410-306 725-459 4-1 4 9 2 23-3 14-3 25 0 25 2 0 51-28 108-63 417-254 1181-570 1754-726 145-40 217-55 414-91 139-24 168-33 185-52 12-13 22-30 24-37 6-26-10-72-35-101-13-16-22-34-19-39 4-5 1-13-5-16-5-4-9-21-8-39 2-17 0-36-3-41-6-11-20-70-23-95 0-9-4-20-7-25-15-25-68-210-64-221 3-7 0-16-5-20-6-3-9-15-6-25s1-22-4-25-9-17-9-32-3-45-6-67c-11-73-20-184-29-345-3-47-8-117-11-157-7-71-7-71-113-114-109-43-246-89-269-89-7 0-48-14-91-30-199-77-491-300-664-508-80-95-178-242-171-253 3-5 0-9-6-9s-8-5-5-10 1-10-5-10c-7 0-10-7-7-15 4-8 2-17-3-20-6-4-10-15-10-26s-11-35-25-53c-13-18-26-41-28-52-2-10-9-31-15-46s-13-43-15-61-6-38-10-44-9-33-11-59c-2-27-6-56-10-64-3-8-5-26-6-40 0-14-3-50-7-80-5-47-6-157-4-347 1-23 5-45 11-48s7-17 4-31c-4-15-2-24 5-24s9-9 5-25-2-25 6-25c7 0 9-8 5-20s-2-20 5-20 9-8 5-20c-4-11-2-20 4-20s8-7 5-15c-4-8-1-15 5-15s8-7 5-15c-4-8-1-15 6-15 6 0 8-4 5-10-3-5-2-10 4-10s8-7 5-15c-4-8-1-15 6-15 6 0 8-5 5-10s-1-10 5-10 8-4 5-10c-3-5-2-10 4-10s8-6 5-14c-3-7 2-20 10-29 8-8 12-17 9-21-4-3-1-6 6-6s9-4 6-10c-3-5-1-10 5-10s8-4 5-10c-3-5-1-10 5-10s8-4 5-10c-3-5-1-10 5-10s8-4 5-10c-3-5-2-10 4-10s8-7 5-15c-4-8-1-15 6-15 6 0 8-4 5-10-3-5-2-10 4-10s8-7 5-15c-4-8-1-15 5-15 18 0 13-21-15-57-43-56-68-63-221-63-189 1-281-16-508-93-227-78-370-149-510-255-89-68-261-244-338-347-61-82-140-221-136-241 1-5-2-19-6-31s-8-26-8-30-5-12-9-18c-67-77-154-223-163-271-2-10-4-21-5-24s-2-8-1-12c0-5-4-8-9-8-6 0-10-6-9-12 1-7-1-20-5-29s-6-38-4-65c3-49 3-49 2463-52 1353-1 2470 0 2483 3 22 5 22 5 22 4527 0 3908-2 4519-14 4502-14-19-55-19-2893-19-2940 0-3129 2-3201 38-25 12-70 83-59 93 14 15 1329 23 3625 24 2542 0 2542 0 2541 453-1 314-4 431-10 383-5-38-11-71-13-74-8-8-49 21-120 86-136 123-345 227-696 345-514 173-1148 300-1685 338-177 12-704 8-1180-11-132-5-568-12-970-16-1037-10-1411 7-1962 86-226 33-524 70-563 70-15 0-31-5-38-12zm5828-446c128-78 149-250 43-355-51-51-108-71-185-64-76 7-129 41-173 112-25 41-30 58-29 109 2 182 191 290 344 198zm-3442-229c59-28 102-101 102-173-1-69-78-163-145-176-134-25-245 72-232 203 14 135 147 206 275 146zm-7963-3560c-75-17-101-28-136-60-38-34-78-93-63-93 4 0 1-6-5-14-17-20-26-106-12-106 8 0 10-8 6-20s-2-20 5-20c6 0 8-4 5-10-3-5-1-10 5-10s8-4 5-10c-3-5-1-10 4-10 6 0 10-3 9-7-4-15 71-84 106-98 55-23 145-19 197 8 84 45 154 178 130 247-5 17-7 30-4 30s0 6-6 13c-6 8-8 17-4 20 3 4 1 7-6 7s-10 4-6 9c3 6-4 15-15 21s-18 15-15 21c4 5-5 13-19 19-14 5-26 13-26 18 0 16-123 52-155 45z"
  />
  <path
    d="M13453 6099c-53-10-93-31-136-71-38-36-71-93-62-108 3-5 1-11-5-15-13-8-13-95 1-95 6 0 8-9 4-20-4-12-2-20 5-20 6 0 8-4 5-10-3-5-1-10 5-10s8-4 5-10c-3-5-1-10 5-10s9-4 6-8c-6-10 47-62 63-62 6 0 11-4 11-9 0-16 79-41 128-41 106 1 221 91 238 188 10 53 5 140-8 148-4 3-6 9-3 14s-10 23-27 41c-18 18-32 36-31 39 2 7-84 45-132 58-17 5-49 5-72 1zm-2960-23c-22-7-54-23-70-34-38-27-82-91-88-128-3-16-8-41-11-56s-3-36 1-45c5-10 7-24 6-30-1-7 3-13 9-13s8-5 4-12c-4-6 1-17 11-25 11-7 16-13 12-13-16 0 78-83 109-96 128-54 292 33 322 171 14 61 0 153-25 173-9 6-14 12-11 12 15 0-63 67-95 82-51 24-124 30-174 14zm-988-196c-16-3-41-12-55-19-28-15-89-79-91-95-1-6-3-21-4-32-1-12-5-27-9-33-4-7-3-18 3-25s9-21 5-30-1-16 6-16 10-7 6-15c-3-8 2-19 12-24 9-6 13-11 7-11-5 0 7-16 29-34 96-86 246-55 302 62 18 39 27 129 13 137-4 3-6 12-3 20 4 8-1 18-10 21s-14 9-12 13c9 14-21 39-69 59-64 26-93 31-130 22zm295-1076c-112-33-185-133-182-246 2-49 6-68 15-68 5 0 7-7 3-15-3-8-1-15 5-15s7-4 4-10c-3-5-1-10 5-10s9-4 5-9c-3-6 2-14 11-19s15-13 14-18c-2-4 6-13 16-19 10-5 23-15 29-22 35-42 168-59 237-30 97 41 168 150 161 247-2 25-3 53-4 63 0 9-5 17-10 17-6 0-8 4-4 9 3 5-1 16-9 24s-13 17-10 19c2 3-7 13-21 22s-23 20-21 25c7 11-101 54-156 61-26 4-64 1-88-6zm2127-58c-109-40-175-133-169-236 1-14 2-35 3-47 1-13 5-23 11-23 5 0 6-4 3-10-3-5-1-10 5-10s8-4 5-10c-3-5-1-10 5-10s9-4 5-9c-3-6 1-13 9-18 8-4 15-12 15-18-1-5 8-14 18-20 10-5 22-16 26-22 13-21 116-46 164-39 122 16 217 122 216 240-1 28-3 58-6 66s-8 25-12 38c-4 12-12 22-17 22s-7 4-3 10c3 5-6 17-20 26s-23 19-20 22-16 16-42 29c-61 30-146 38-196 19zm8558-147c-78-12-156-35-232-69-42-19-63-25-67-17-2 7-5 5-5-5-1-9-5-18-10-20-4-1-43-53-84-115-154-225-340-488-348-491-5-2-7-8-3-13 3-5 1-9-5-9-7 0-7-8-2-22 5-13 4-35-1-50s-7-58-4-95 6-83 6-100c0-18 5-33 10-33 6 0 8-11 4-25-4-15-2-25 5-25 6 0 8-6 5-14s-1-17 5-20c6-4 8-13 4-21-3-8 0-15 6-15s8-7 5-15c-4-8-1-15 5-15s8-7 5-15c-4-8-1-15 6-15 6 0 8-4 5-10-3-5-1-10 5-10s8-4 5-10c-3-5-1-10 5-10s8-4 5-10c-3-5-1-10 5-10s8-4 5-10c-3-5-1-10 5-10s8-4 5-10c-3-5-1-10 5-10s9-4 5-10c-3-5 3-18 14-29s17-22 14-25 2-8 11-12c9-3 14-9 11-14-6-10 64-90 80-90 8 0 20-12 27-27 17-37 132-122 222-166 128-62 248-90 396-91 339-2 648 190 803 499 37 75 74 185 84 250 12 85 6 286-12 355-3 14-8 32-10 40s-4 16-5 18c-2 1-4 7-5 12-1 6-4 12-5 15s-4 10-5 15c-1 6-4 13-5 18-1 4-2 10-1 15 0 4-4 7-10 7-5 0-7 5-4 10 3 6 1 10-5 10s-8 5-5 10c3 6 1 10-5 10s-9 4-5 9c3 5-1 16-9 24s-12 17-9 21c4 3 1 6-6 6s-10 4-7 9-1 12-10 15c-8 3-13 10-10 15s-1 12-10 15c-8 3-13 10-9 15 3 6-4 15-15 21s-19 14-17 19c2 9-140 151-152 151-5 0-11 7-15 15-3 8-12 15-21 15-8 0-15 5-15 10 0 6-6 10-14 10s-21 6-28 13c-41 38-221 101-333 117-82 11-176 11-260-1zm-8810-1797c-22-1-50-5-63-7-34-8-100-72-111-108-12-43-13-107 0-107 6 0 7-4 4-10-3-5-1-10 5-10s8-4 5-10c-8-12 57-77 89-90 66-25 165 3 204 57 22 31 40 94 39 133-2 36-40 103-65 115-12 5-22 13-22 17 0 5-9 8-19 8-11 0-21 3-23 8-1 4-21 6-43 4zm-1925-381c-66-13-136-66-168-126-16-31-25-165-11-165 5 0 6-7 3-15-4-8-1-15 6-15 6 0 8-4 5-10-3-5-1-10 5-10s8-4 5-10c-3-5-1-10 4-10 6 0 10-5 9-11-4-18 78-77 125-90 57-15 130-5 183 26 92 54 145 189 108 275-1 3-5 15-9 28-4 12-11 22-16 22s-8 4-6 8c4 14-58 67-99 84-50 21-100 28-144 19zm7320-419c0-20-15-43-59-86-82-81-121-168-129-282-3-62-2-84 7-84 8 0 10-8 6-20s-2-20 5-20 9-8 5-20-2-20 5-20c6 0 8-4 5-10-3-5-1-10 5-10s8-4 5-10c-3-5-1-10 5-10s8-4 5-10c-3-5-1-10 5-10s8-5 5-10c-3-6 1-13 9-16 9-3 14-10 11-14-3-5 8-19 24-33 17-14 27-27 24-31-3-3 2-8 11-12 9-3 13-10 10-15s-1-9 5-9 8-7 5-15c-4-8-2-15 4-15s8-9 5-20c-4-14 0-20 11-20 9 0 29-8 43-18 21-13 54-18 143-20 111-4 118-3 207 32 106 40 133 56 186 105 25 23 35 41 32 52-4 10 4 37 15 60 32 62 51 118 57 169 5 43 9 76 12 93 0 4 8 7 16 7s15 4 15 8c0 5-10 8-22 7-36-3-54 11-67 54-19 64-141 174-259 235-58 30-146 39-245 24-81-11-90-11-102 5-18 24-25 21-25-11zm2417-48c-4-4-7-24-7-44 0-46-10-55-78-69-62-13-129-46-192-95-25-20-61-48-81-63s-46-42-58-59c-65-95-42-384 43-538 19-33 42-87 51-119 12-43 20-56 28-48 16 16 42 13 79-8 18-11 62-29 98-41 38-12 75-32 89-47 23-27 23-27 95-14 100 17 223 78 290 146 79 78 116 138 152 243 29 84 32 103 29 190-1 53-5 107-9 120l-11 43c-2 12-9 27-15 33-5 7-7 16-3 19 3 4 1 7-6 7s-10 4-6 9c3 5 1 12-5 16s-8 11-5 16c4 5-1 12-9 15-9 3-13 10-10 15s-2 12-10 15c-9 3-14 10-11 15 3 4-4 13-16 19-11 7-18 14-15 18 8 8-54 72-70 72-6 0-14 7-18 15-3 8-12 15-20 15s-16 3-18 8c-5 12-118 61-178 78-86 24-95 26-103 18zM8300 1741c-63-19-122-67-150-121-16-29-21-160-7-160 5 0 7-7 3-15-3-8-1-15 4-15s7-7 4-15c-4-8 1-17 10-21 9-3 14-10 11-14-7-11 52-60 94-77 41-17 133-15 181 4 84 34 135 115 133 213-2 82-4 100-15 100-4 0-8 6-8 14s-7 17-16 20c-8 3-12 10-9 16 3 5-5 14-19 20-14 5-26 13-26 18 0 13-96 42-134 41-17 0-42-4-56-8zm3738-115c-21-7-49-21-64-30-31-21-86-106-80-123 3-7 1-15-4-18-13-8-13-85 0-85 5 0 7-7 4-15-4-8-1-15 6-15s10-7 6-15c-3-8 2-19 12-24 9-6 13-11 9-11-16 0 65-72 96-84 45-19 130-19 177 0 45 18 95 71 118 123 17 40 24 139 10 147-4 3-6 10-3 15 4 5 1 9-5 9s-8 5-5 10c3 6 1 10-5 10s-9 4-5 9c3 6-4 15-15 21s-18 15-15 19c9 16-96 63-149 67-30 3-67-1-88-10zm1143-338c-253-51-423-176-533-394-111-219-126-272-120-446 2-68 2-68 816-68 815 0 815 0 822 23 4 12 10 29 12 37 6 22 5 171-1 200-3 14-7 32-9 40s-7 21-11 28c-5 6-5 12-1 12 3 0 1 7-6 15s-9 15-6 15c4 0 1 10-6 23-7 12-11 25-10 30 1 4-3 7-9 7-5 0-7 5-4 10 3 6 1 10-5 10s-8 5-5 10c3 6 1 10-5 10s-8 5-5 10c3 6 1 10-5 10s-9 4-6 8c3 5-3 18-14 29-10 12-16 23-13 27 3 3-2 8-11 12-9 3-14 10-11 14 3 5-4 15-15 23-11 7-17 16-14 19s-13 21-35 38c-22 18-38 36-36 40 5 8-49 50-64 50-6 0-15 9-21 20s-17 20-25 20-15 5-15 10c0 6-7 10-15 10s-15 4-15 9-11 12-25 15c-14 4-25 11-25 16 0 6-6 10-13 10s-30 9-50 19c-21 11-56 22-78 26-21 4-41 10-43 14-10 16-270 8-365-11zm-2678-339c-67-13-114-39-171-96-77-76-104-142-108-259-1-52 1-96 6-99s7-12 3-20c-3-8 0-15 7-15s9-8 5-20c-3-11-2-20 3-20s9-8 8-17c-1-17 22-18 323-21 179-1 329 2 333 6 5 5 11 21 13 35 6 35 14 74 22 117 11 54 9 88-11 175-2 11-5 22-6 25s-2 8-1 13c0 4-4 7-10 7-5 0-8 4-5 9s-1 12-10 15c-9 4-14 9-10 13 7 7-42 63-56 63-4 0-31 15-60 34-29 18-69 37-88 41s-39 10-44 12c-15 10-100 11-143 2z"
  />
</svg>
