<svg xmlns="http://www.w3.org/2000/svg" id="root" viewBox="0 -0.11 7610 4500.11">
  <g fill="#F6F2D5">
    <path
      d="M5436 4468c-41-92-76-235-103-418-23-159-26-507-4-533 23-28 125-22 280 18 158 40 174 45 386 119 440 154 798 236 1105 251 69 3 157 1 195-4 39-5 117-17 175-25 58-9 113-16 123-16 16 0 17 22 17 320v320H5451l-15-32zm436-345c18-16 18-17-4-40-20-21-23-22-40-6-22 20-22 27-2 47 19 20 23 20 46-1zm1552.218-27.565c0-16.405-13.299-29.703-29.703-29.703s-29.703 13.298-29.703 29.703c0 16.404 13.299 29.702 29.703 29.702s29.703-13.298 29.703-29.702ZM6119 3904c-9-11-15-12-25-3-11 9-12 15-3 25 9 11 15 12 25 3 11-9 12-15 3-25zM4460 4353c-19-7-43-12-53-12-10-1-15-5-12-11s-5-10-19-10c-42 0-118-30-161-64-22-17-41-34-43-38-5-12-32-10-32 2 0 6-4 10-10 10-20 0-10-66 17-105 41-63 112-145 178-207 129-120 342-258 400-258h35v350c0 205-4 350-9 350s-11-5-13-11c-2-7-18-7-53 1-70 16-184 17-225 3z"
    ></path>
    <path
      d="M4053 4088c2-7-4-24-14-37-11-13-19-34-19-46 0-24-29-99-30-77 0 26-20 10-20-17 0-23 16-44 81-105 45-43 100-86 123-98 22-11 52-29 66-39 69-51 366-149 451-149h39v45c0 25-4 45-9 45-14 0-252 134-315 177-135 94-269 224-299 290-11 25-63 34-54 11z"
    ></path>
    <path
      d="M3960 3750c0-5 5-10 10-10 6 0 10-12 10-27 0-30 16-85 36-126 8-16 14-33 14-39 0-39 113-169 184-212 17-10 33-22 36-27 3-4 32-17 65-29 92-34 95-40 92-189l-2-126-60-21c-222-76-378-298-376-537 0-48 5-105 12-125 42-131 82-204 149-269 54-53 181-130 228-139 18-4 36-14 41-23 11-21 13-242 2-259-4-8-45-29-89-47-84-34-107-49-176-114-76-71-127-149-147-226-4-16-13-48-18-70-19-72-14-144 19-274 19-77 86-182 160-252 48-45 178-120 233-133l27-6V0h270v223c0 122 4 227 8 233s50 31 102 57c68 33 112 63 155 105 63 61 95 100 95 115 0 5 8 21 19 35 10 15 29 64 41 110 18 68 25 80 36 71s14-7 14 14c0 14-5 29-10 32-6 4-34 41-62 83s-85 123-125 180c-41 56-86 125-100 152-15 29-33 50-42 50-37 0-128 42-153 70l-28 30v329l32 37c18 20 47 43 65 51l33 13 1 93c4 285-4 873-12 882-6 5-9 2-9-8 0-15-3-15-20-5-11 7-22 19-25 28-12 29-16 239-6 259 13 24 51 35 51 14 0-8 5-11 10-8 6 4 10 55 10 121 0 112 0 114-22 114-43 0-285 68-392 110-117 46-242 108-291 146-32 24-95 33-95 14zM6680 3720c-30-4-89-13-130-19-149-23-415-99-510-146-52-26-288-90-370-100-85-10-90-13-90-47 0-53 16-57 215-57 189 0 244 5 490 39 190 27 673 39 834 21 153-17 343-58 424-90 67-26 67-26 67 132 0 136-1 145-22 164-38 35-164 74-308 95-85 13-530 18-600 8zm-655-215c-16-8-37-14-45-14s1 7 20 14c46 18 64 17 25 0zM5377 3323c-36-35 48-325 155-538 89-177 228-386 315-473 35-34 63-69 63-76 0-8 24-32 53-53 86-62 176-137 176-148 1-5 29-28 63-50 132-87 188-106 188-64v21l33-20c163-100 488-224 647-247 25-4 53-9 63-11 18-6 23-39 7-49-5-3-10-16-10-28 0-13-9-49-21-81-13-37-22-97-26-161l-6-102-38-16c-21-9-57-21-80-26-48-11-126-61-190-123-49-47-99-118-99-142 0-8-4-16-8-18-16-6-40-149-35-211 5-72 16-113 49-179 21-44 22-49 7-64-12-11-28-15-55-11-72 10-239-45-310-101-74-57-140-140-152-187-4-16-11-32-15-35-18-13-51-80-51-104V0h1510v3065l-24 22c-51 49-241 118-436 159-192 40-315 48-610 38-460-15-717-10-925 20-188 27-227 30-238 19zm1797.454-227.955c0-16.154-13.095-29.249-29.248-29.249-16.154 0-29.249 13.095-29.249 29.249 0 16.153 13.095 29.248 29.249 29.248 16.153 0 29.248-13.095 29.248-29.248ZM6119 3024c-9-11-15-12-25-3-11 9-12 15-3 25 9 11 15 12 25 3 11-9 12-15 3-25zM3786.741 1931.316c0 39.937-32.375 72.312-72.312 72.312-39.938 0-72.313-32.375-72.313-72.312s32.375-72.313 72.313-72.313c39.937 0 72.312 32.376 72.312 72.313ZM3226.633 1664.13c0 40.078-32.491 72.569-72.57 72.569-40.08 0-72.57-32.49-72.57-72.57 0-40.079 32.49-72.57 72.57-72.57 40.079 0 72.57 32.491 72.57 72.57ZM3105 1715"
    ></path>
    <path
      d="M4119.087 1666.66c0 41.184-33.388 74.572-74.573 74.572-41.185 0-74.572-33.388-74.572-74.573 0-41.185 33.387-74.572 74.572-74.572s74.573 33.387 74.573 74.572ZM2901.458 1616.349c0 32.679-26.491 59.17-59.17 59.17s-59.17-26.491-59.17-59.17 26.491-59.17 59.17-59.17 59.17 26.491 59.17 59.17ZM3019.901 1272.19c0 42.706-34.62 77.326-77.326 77.326-42.707 0-77.327-34.62-77.327-77.327 0-42.706 34.62-77.326 77.327-77.326 42.706 0 77.326 34.62 77.326 77.326ZM3665.25 1258.583c0 40.867-33.129 73.996-73.995 73.996-40.867 0-73.996-33.13-73.996-73.996 0-40.867 33.13-73.995 73.996-73.995 40.866 0 73.995 33.128 73.995 73.995ZM6490.56 1013.859c0 150.7-122.168 272.867-272.868 272.867s-272.867-122.167-272.867-272.867c0-150.7 122.167-272.867 272.867-272.867 150.7 0 272.867 122.166 272.867 272.867ZM3544.32 683.36c0 29.789-24.148 53.937-53.936 53.937-29.789 0-53.937-24.148-53.937-53.937 0-29.788 24.148-53.937 53.937-53.937 29.788 0 53.937 24.149 53.937 53.937ZM2991.937 550.183c0 39.823-32.283 72.105-72.105 72.105-39.823 0-72.105-32.282-72.105-72.105 0-39.822 32.282-72.105 72.105-72.105 39.822 0 72.105 32.283 72.105 72.105ZM5137 524c-3-3-3-13 0-21 4-9 0-21-9-27-61-46-66-136-11-191 9-10 17-31 17-49 1-31 1-31 61-34 84-4 143 27 164 84 8 23 11 50 7 60-7 16-10 13-23-18-8-21-19-38-24-38s-2 11 6 24c9 14 17 38 17 55 1 32 12 41 22 19 4-7 4 5 1 26-5 44-36 82-82 102-32 14-134 19-146 8zM6036.91 302.557c0 96.932-78.579 175.511-175.51 175.511-96.933 0-175.512-78.579-175.512-175.51 0-96.933 78.58-175.512 175.511-175.512 96.932 0 175.511 78.58 175.511 175.511ZM2552.041 345.562c0 38.733-31.4 70.133-70.133 70.133s-70.133-31.4-70.133-70.133c0-38.734 31.4-70.133 70.133-70.133 38.734 0 70.133 31.4 70.133 70.133ZM3693.437 313.818c0 37.888-30.714 68.602-68.602 68.602-37.888 0-68.602-30.714-68.602-68.602 0-37.888 30.714-68.602 68.602-68.602 37.888 0 68.602 30.714 68.602 68.602ZM3970 279c-73-9-137-47-168-99-34-58-52-107-52-147V0h500l6 26c11 45-24 134-72 181-67 65-123 84-214 72zM3135 173c-59-11-99-80-83-140l9-33h200l5 30c8 36 8 34 1 69-9 46-78 84-132 74z"
    ></path>
  </g>
  <g fill="#EEEEBF">
    <path
      d="M1304 4463c28-156 11-301-60-513-60-180-260-572-307-602-6-4-201-8-433-8H83l-27 25c-52 48-58 39-53-97 3-101 8-136 29-193 58-159 66-197 75-350 4-82 7-154 6-160-2-5-11-57-22-115-27-148-47-207-71-213-19-5-20-14-20-147 0-163 9-187 84-221 38-17 72-19 422-19h380l52 26c92 46 142 130 142 239 0 60-3 69-29 96-16 16-40 29-53 29-21 0-26 8-42 73-56 216-66 319-45 461 6 38 8 81 5 97s-1 31 4 34 17 32 26 63c8 31 27 89 41 127 14 39 28 86 31 105 2 19 13 41 24 48 10 7 30 34 44 60s41 74 61 107c110 186 185 351 243 542 37 119 50 215 50 371 0 160-6 172-87 172h-56l7-37zM867 3186c2-1-8-36-21-77s-27-86-30-101l-6-28H505c-264 0-305 2-305 15 0 8-13 55-29 105l-29 90 232 2c208 3 487-1 493-6zm-584-363c3-5 8-47 12-95l7-88h-31c-29 0-31 3-31 34 0 18-3 61-6 95-7 61-7 61 19 61 14 0 28-3 30-7zm305-85-3-93H425l-3 79c-2 44-1 85 2 93 4 9 28 13 86 13h81l-3-92zm198 76c-3-9-6-51-6-95v-79h-70v79c0 102 4 111 47 111 28 0 34-3 29-16zm-12-330c9-3 16-17 16-30 0-26 41-212 62-279 15-48 23-55 66-55 40 0 42-20 8-71-49-72-60-74-431-74H165l-52 40c-41 30-53 46-53 66 0 23 5 27 42 35l42 9 29 89c15 50 33 126 39 170 6 45 15 87 21 94 7 9 73 12 267 12 142 0 265-3 274-6z"
    ></path>
    <path
      d="M1806 4478c-21-30-21-174-1-265 19-81 103-258 146-307 16-19 39-38 50-41 10-4 19-13 19-22 0-31 40-79 131-158 97-84 104-90 188-144l53-34-5-184c-5-179-6-185-36-249-17-37-31-72-31-80s-9-14-21-14c-11 0-34-13-50-29-56-56-28-160 64-237 66-56 98-64 270-64h157v-230h-27c-19 0-39-13-67-44-54-58-412-242-463-237-41 3-110-28-146-67-25-26-32-28-56-19-35 13-92 2-126-25-15-12-47-46-71-77-39-50-58-63-201-136-136-69-162-86-185-121-22-32-36-43-65-49-54-10-106-39-141-79-25-29-39-36-68-36s-64-18-163-80c-227-143-285-185-306-217-15-24-27-32-50-33-19 0-77-28-157-75-155-91-208-148-208-221 0-34-4-46-17-50-47-14-88-38-152-86L0 715v-77c0-76 1-78 24-78 16 0 42 17 73 48 51 51 104 92 121 92 5 0 13-11 16-25 23-90 101-202 197-282 101-83 253-155 359-169l48-6-32-47c-43-62-86-140-86-157 0-11 18-14 75-14 41 0 75 4 75 9 0 13 67 109 107 154 18 20 33 46 33 57 0 13 10 24 28 31 15 6 63 45 107 88s99 96 123 118c28 28 42 49 42 67 0 23 4 26 34 26 39 0 91 37 205 147 54 52 71 75 71 96 0 27 0 27 28 13 16-8 51-20 78-27 27-6 117-31 200-55 139-39 163-43 312-50 256-11 269-2 397 279l85 187v127c0 70 5 175 12 235 11 99 3 234-18 308-6 22 114 80 165 80 44 0 83 26 106 70 24 47 18 111-19 211-34 90-71 143-108 155-16 5-18 19-18 165v159h133c151 0 193 13 260 78 81 78 101 170 48 223-16 16-39 29-50 29-14 0-21 6-21 20 0 11-9 37-21 59-37 72-45 127-40 296l4 160 86 57c107 71 254 206 272 250 7 18 32 50 55 70 43 39 110 156 144 251 10 29 19 44 19 35 1-10 7-18 15-18 16 0 42 129 32 155-3 8-1 15 4 15 13 0 13 87 1 95-5 3-12-3-14-12-3-10-5-5-6 12 0 17-8 41-17 53l-15 22H1821l-15-22zm1818-120c-17-107-87-290-132-344-16-19-31-22-123-25-174-5-367 1-342 11 31 13 43 41 43 100 0 73-28 100-105 100-45 0-60-4-79-23-18-18-31-22-65-19-35 3-41 7-35 21 24 54 16 119-18 151-31 28-115 28-152-1-23-18-26-28-26-80 0-50 4-64 25-84 16-17 35-25 57-25h33l-3-60c-3-38 1-66 8-75 11-13 5-15-36-15-27 0-99-3-161-7l-111-6-21 34c-26 41-76 196-85 261-5 32-14 51-26 58-20 11-220 14-257 4-20-5-23-13-23-53 0-37 12-71 60-166 33-66 60-121 60-122 0-2-11-3-25-3-27 0-58 41-107 143-36 75-70 209-62 242l6 25h1708l-6-42zm133-45c-3-10-5-2-5 17s2 27 5 18c2-10 2-26 0-35zm-857-313c12-8 9-10-13-10-16 0-26 4-22 10 8 12 16 12 35 0zm-625-220 59-60h166v41c0 22-5 49-11 60-10 19-7 20 103 17l113-3v-230l-90-3c-49-2-99-1-110 2-34 9-103 56-215 147-102 83-108 89-89 89 8 0 41-27 74-60zm1010 4c-33-30-91-75-130-100-38-26-82-55-97-65-21-15-45-19-107-19-44 0-83 5-86 10-4 6-3 60 0 120l8 110h236l236-1-60-55zm-580-419v-80l-97-3-98-3v172l98-3 97-3v-80zm315 0v-85h-150v170h150v-85zm-310-274c0-22-4-51-10-65l-10-26-102 6c-57 4-104 7-105 8s6 27 14 59l16 57h197v-39zm330-29 17-63-91 3-91 3-3 63-3 63 77-3 77-3 17-63zm-335-247v-40l-104-3c-113-3-163 12-211 63l-24 26 170-3 169-3v-40zm431 16c-42-44-101-62-188-59l-73 3-3 43-3 42h295l-28-29zm-464-641c-26-9-60-24-77-32-45-24-110-50-101-41 4 4 53 31 109 59 66 34 104 48 109 41 4-7-12-17-40-27zm161-57c14-38 29-75 32-84 5-13-1-18-29-21l-36-4v48c0 27-7 65-15 85-19 44-19 43 3 43 14 0 26-18 45-67zm-580-140c-8-3-13-23-13-49 0-38-3-44-20-44-30 0-48-62-91-310-24-141-30-163-89-310-74-185-100-264-100-307s0-43 37-43c33 0 44 8 98 66 34 36 70 82 80 102 11 20 32 57 46 82 43 72 67 166 79 316 6 76 15 157 20 179s10 64 10 93c0 51 0 52 31 52 17 0 40 5 51 11 19 10 20 9 14-12-13-47-25-127-41-269-19-163-45-298-70-356-37-87-75-210-75-246v-38h43c64 0 116 49 171 159 64 127 88 255 93 496 3 105 5 215 6 244 2 51 0 55-23 61-23 5-22 7 15 23 22 10 49 23 60 29 16 8 18 8 8-3-17-17-16-67 3-196 14-92 14-133 5-274-6-92-8-180-5-195 6-29-9-76-57-180-105-230-118-254-144-264-47-18-236-12-306 9-35 11-125 36-199 56s-157 47-185 60c-27 13-68 29-90 35-76 23-197 93-249 144-59 57-102 149-112 238-5 47-2 58 23 96 21 32 40 47 78 61l50 19 3-49 3-49h45c25 0 54 5 65 10 16 9 15 5-6-27-49-71-95-183-95-229v-44h38c53 0 114 45 181 132 31 41 76 94 100 118 64 66 80 109 127 345 8 39 14 81 14 95 0 34 56 100 68 82 19-28-57-280-138-457-59-129-130-321-130-351 0-33 1-34 42-34 40 0 47 5 100 62 54 60 68 83 183 318 20 41 30 86 41 175 23 191 52 310 86 345 24 26 35 30 81 29 28 0 46-3 40-6zm-1153-657c0-32-4-36-72-71-70-35-181-106-251-159l-33-26 4 30c2 16 12 36 21 45 24 21 314 214 324 214 4 1 7-14 7-33zm65-246c10-22 23-40 29-40 6-1-2-8-19-16-55-29-109-68-196-141l-86-72-37 37c-20 21-36 43-36 48 0 26 283 224 320 224 4 0 15-18 25-40zM598 979c14-77 71-180 136-245 70-69 197-145 303-180 48-16 89-29 91-30 1-1-30-33-70-73-94-91-118-99-230-71-91 23-150 48-218 94-54 36-138 113-152 139-8 16-7 17 11 8 11-6 40-11 65-11 37 0 48 5 66 28 18 22 21 37 18 80-3 29-12 60-20 68-21 22-91 29-128 14-32-13-38-28-42-99l-3-44-22 44c-31 62-47 130-39 162 10 41 53 82 136 132 41 25 78 45 81 45s11-27 17-61zm776-84c11-8 18-16 15-18-2-1-23-15-46-31-22-15-71-58-108-96l-67-70-55 20c-31 11-58 21-60 24-13 13 173 150 233 171 50 18 64 18 88 0z"
    ></path>
    <path
      d="M695 575c-35-34-35-96 0-130 20-21 34-25 83-25 85 0 112 23 112 95 0 70-19 85-108 85-53 0-67-4-87-25zM4737 4378c-4-66-7-249-7-405 0-155-3-283-7-283-5 0-17 7-27 15-28 21-36 19-36-10 0-18 5-25 20-25 11 0 20-4 20-8 0-13 88-52 118-52 16 0 33 5 40 12 9 9 12 122 12 445v433h-127l-6-122zM5443 4485c-15-16-18-85-4-85 5 0 16 16 25 35s21 35 26 35c6 0 10 7 10 15 0 19-41 19-57 0zM86 3608c-3-7-11-35-20-62-23-70-21-133 3-146 21-11 146-12 196-1 26 5 30 11 33 41 2 30-7 45-59 108-59 70-62 72-105 72-27 0-46-5-48-12zM455 3612c-6-4-29-32-53-63-35-47-42-63-42-101 0-33 5-48 16-52 26-10 234-7 255 4 35 20 25 69-33 148-49 69-53 72-92 72-23 0-46-4-51-8zM979.633 3485.245c0 69.317-56.192 125.509-125.51 125.509-69.316 0-125.509-56.192-125.509-125.51 0-69.316 56.193-125.509 125.51-125.509 69.317 0 125.51 56.193 125.51 125.51ZM4700 3461c0-6 6-11 13-11 21 0 26-181 21-750-2-272-4-537-4-587v-93l-33-13c-18-8-47-31-65-51l-32-37v-389l28-30c25-28 116-70 153-70 9 0 27-21 42-50 14-27 59-96 100-152 40-57 97-138 125-180 29-43 61-82 72-88 18-10 19-18 13-118-3-65-2-116 4-128 7-12 7-44 0-95-5-42-7-88-3-103 6-24 10-27 36-21 17 4 44 4 61 0 35-8 99-60 99-81 0-8 7-14 15-14s15-9 15-20c0-19 7-20 183-20h184l40 39c23 21 55 41 72 44l31 7-1 248-2 249 79 112c207 295 234 336 234 356 0 19 7 23 43 27 58 7 132 41 151 70 20 30 32 227 22 339l-7 76-48 24c-70 35-171 102-171 114 0 6-9 16-20 23-12 7-20 8-20 2 0-7-213-10-630-10h-630v71l605-3c333-2 605-2 605-1 0 2-31 26-70 54-42 30-70 58-70 69 0 10-7 21-17 24-9 4-248 8-531 9-448 2-516 4-520 17-4 12-3 13 10 3 11-9 72-12 234-10l219 2 2 45c3 39-3 54-45 115-47 69-48 70-92 70s-45-1-89-68l-44-67-26 62c-26 62-27 63-69 66-45 3-44 4-90-108-8-18-11 128-11 491-1 464-3 518-17 530-21 17-154 26-154 10zm1515-1559 50-27v-278l-35-13c-49-18-1379-20-1445-2l-45 12v282l53 26 52 27h660l660 1 50-28zm-209-514c-13-18-50-72-83-119-32-47-84-123-116-168l-58-81h-242c-133 0-247 4-252 8-6 4-37 45-70 92-32 47-74 106-92 133-80 115-100 143-107 155-6 9 101 12 519 12h526l-25-32zm-308-515 53-6-3-46c-3-44-4-45-43-54-28-6-394-4-442 3-10 1-1 99 10 103 18 8 363 8 425 0zm47-308v-50l-193-3c-180-2-196-1-227 18-18 11-40 20-49 20-11 0-16 9-16 28 0 16 3 32 7 36 4 3 113 5 242 4l236-3v-50z"
    ></path>
    <path
      d="M5448 2533c-8-10-32-46-52-79-29-49-37-70-34-100l3-39h290l3 37c3 39-4 54-70 146-36 49-41 52-82 52-28 0-48-6-58-17zM5720 2501c0-17-9-45-20-63-12-21-20-51-20-80v-48h110c61 0 110 2 110 5 0 2-20 25-45 49-25 25-61 70-80 100-43 68-55 76-55 37zM5130 152c0-62 5-122 10-133 10-18 25-19 360-19 398 0 370-7 370 89 0 47-2 51-27 57-16 4-34 11-41 17-10 8-16 7-23-4-7-10-8-8-7 10 2 13-3 26-9 28-9 3-13-6-13-26 0-16-5-42-12-56l-11-25h-228c-257 0-239-7-239 89v57h-55c-39-1-59 3-65 14-7 10-10-23-10-98z"
    ></path>
  </g>
  <g>
    <path
      d="M0 3930v-571l26-24 27-25h451c248 0 457 4 463 8 47 30 247 422 307 602 61 183 94 411 73 503-4 15-9 38-12 52l-5 25H0v-570zm209-412c33-40 56-77 51-82-14-14-148-15-167-1-16 12-16 16 2 76 10 35 20 67 22 72 11 19 36 1 92-65zm360 0c33-46 48-75 42-81-11-11-175-19-203-11s-21 33 24 93c46 60 57 71 74 71 6 0 34-32 63-72zm352 12c21-66 23-100 7-101-102-5-173 0-176 13-4 20 117 150 136 146 8-2 23-28 33-58zM3780 4481c-5-11-10-33-10-49s-3-32-7-36-6-21-5-39-4-63-12-101c-32-151 14-303 130-426 165-174 491-321 855-385 45-8 87-19 94-25 9-8 12-140 14-571 1-309 4-566 7-570 6-10 1077-13 1086-4 3 3-6 19-20 35-26 29-29 30-114 30-101 0-106 6-63 75 13 22 25 47 25 55s-18 42-41 75c-133 198-234 412-293 622-28 98-31 119-18 127 4 2 86-7 182-21 150-21 214-25 445-27 149 0 378 3 510 8 165 6 274 5 348-3 277-28 589-122 670-201 17-17 34-30 39-30 4 0 8 71 8 159v158l-42 16c-185 68-416 98-763 98-255 0-365-7-595-38-200-27-261-32-415-32-113 0-155 3-168 13-18 14-18 14 0 19 10 3 43 9 73 12 82 10 176 37 381 109 374 131 601 172 918 163 198-6 274-14 386-41 107-26 147-44 188-84l37-36v177c0 97-1 177-2 177-2 0-50 7-108 16-226 33-259 35-403 30-323-14-677-92-1132-252-212-74-228-79-386-119-153-39-200-43-220-18-21 24-17 324 5 478 27 182 80 392 113 440 7 11 13 23 13 27 0 5-146 8-325 8h-325v-418c0-300-3-421-11-429-14-14-75 15-204 94-306 188-520 438-518 604 1 31 5 65 11 75 5 11 12 31 16 47l6 27h-63c-57 0-65-2-74-23-13-27-8-206 8-282 27-135 162-297 365-438 63-43 301-177 315-177 5 0 9-7 9-15 0-19-1-19-111 9-104 27-280 96-319 125-14 10-45 28-70 41-24 12-84 63-135 114-97 97-146 178-180 298-18 65-25 205-10 216 14 10 47 111 40 122-3 6-33 10-65 10-48 0-61-4-70-19zm1483-2040c27-40 46-78 43-86-4-12-27-15-105-15-58 0-103 4-106 10-12 20 88 174 108 167 7-2 34-36 60-76zm295 27c58-82 73-108 67-118-9-14-222-13-230 1-7 10 50 113 83 152 24 27 39 21 80-35zm-545-32c16-38 26-74 23-82-7-18-109-19-124-1-18 22 37 162 61 154 7-2 25-34 40-71zM1886 4408c-23-87 38-291 122-413 26-37 32-40 77-41 28-1 60 1 72 3 23 5 23 6-13 67-47 80-124 242-124 260 0 19 32 26 123 26 100 0 114-8 123-68 9-63 59-219 83-258l19-31 566 2 565 2 20 24c56 67 127 263 138 381l6 68H1892l-6-22zm879.251-162.781c0-39.987-32.415-72.402-72.402-72.402-39.986 0-72.402 32.415-72.402 72.402 0 39.986 32.416 72.402 72.402 72.402 39.987 0 72.402-32.416 72.402-72.402Zm271.918-150.221c0-39.984-32.414-72.397-72.397-72.397-39.984 0-72.398 32.413-72.398 72.397 0 39.983 32.414 72.397 72.398 72.397 39.983 0 72.397-32.414 72.397-72.397ZM2849.185 4070.734c0-33.111-26.841-59.953-59.952-59.953s-59.953 26.842-59.953 59.953c0 33.11 26.842 59.953 59.953 59.953 33.11 0 59.952-26.842 59.952-59.953ZM2832 4113"
    ></path>
    <path
      d="M5919.203 4102.69c0 39.891-32.339 72.23-72.23 72.23-39.891 0-72.23-32.339-72.23-72.23 0-39.891 32.339-72.23 72.23-72.23 39.891 0 72.23 32.339 72.23 72.23ZM7464.683 4095.621c0 38.993-31.61 70.603-70.603 70.603-38.993 0-70.604-31.61-70.604-70.603 0-38.993 31.61-70.603 70.604-70.603 38.993 0 70.603 31.61 70.603 70.603ZM6162.647 3915.247c0 31.972-25.919 57.89-57.89 57.89-31.972 0-57.89-25.918-57.89-57.89s25.918-57.89 57.89-57.89c31.971 0 57.89 25.918 57.89 57.89ZM2120 3857c0-15 48-62 145-141 104-84 177-134 210-142 11-3 74-3 140-2l120 3v290l-157 3c-108 2-158-1-158-8 0-6 11-28 25-48 37-54 33-62-28-62-51 0-54 2-112 60l-59 60h-63c-45 0-63-4-63-13zM2838 3848c-2-13-4-79-4-148l1-125 112-3c98-2 117 0 140 16 16 11 60 41 100 67 72 47 233 189 233 206 0 5-121 9-289 9h-289l-4-22zM2480 3365v-116l128 3 127 3v220l-127 3-128 3v-116zM2839 3448c-6-133-6-165-2-180 4-16 18-18 108-18h103l4 103c3 56 3 108 0 115-3 8-34 12-108 12h-104l-1-32zM334 3223l-242-3 39-118c21-64 39-125 39-134 0-21-9-20 145-19 66 0 211 0 322 1h203l6 28c11 47 46 155 65 200l18 42-92 1c-51 0-130 1-177 3-47 1-194 1-326-1zM7214.895 3095.786c0 38.658-31.339 69.997-69.997 69.997s-69.996-31.339-69.996-69.997c0-38.657 31.338-69.996 69.996-69.996 38.658 0 69.997 31.339 69.997 69.996ZM2471 3114c-7-26-21-65-32-86-11-22-18-43-14-46 11-11 287-13 300-2 8 6 13 43 14 95l2 85h-259l-11-46zM2839 3148c-6-61-3-155 4-165 7-9 46-13 134-13 101 0 125 3 129 15 4 8 1 22-6 30-7 9-21 44-30 78l-17 62-107 3c-81 2-106 0-107-10zM6162.647 3035.247c0 31.972-25.918 57.89-57.89 57.89s-57.89-25.918-57.89-57.89 25.918-57.89 57.89-57.89 57.89 25.918 57.89 57.89ZM2320 2878c0-26 40-78 81-105 42-27 45-28 188-28h146v140l-207 3c-163 2-208 0-208-10zM2842 2818l3-73 104-3c78-2 114 1 147 14 46 18 128 97 121 117-3 9-56 13-191 15l-187 2 3-72zM199 2856c-2-2 0-59 5-126l9-121 60 3 61 3-4 70c-2 39-4 90-4 115-1 25-5 48-11 52-11 8-109 11-116 4zM397 2853c-13-13-8-230 6-241 14-12 197-7 208 6 6 6 14 189 10 230-1 9-30 12-109 12-60 0-112-3-115-7zM687 2846c-5-12-10-187-8-231 1-9 119-12 126-3 1 2 5 58 9 126l6 122h-64c-46 0-65-4-69-14zM5730 2782c0-5 6-16 13-25 11-15 81-17 887-17 481 0 899-1 928 0 49 0 52 2 52 25v25h-940c-517 0-940-4-940-8zM203 2508c-6-7-15-49-21-94-6-44-24-120-39-170l-29-89-42-9-42-9v-56c0-57 0-57 53-96l52-40h360c334 0 363 1 398 19 51 25 87 81 90 137 2 40 0 44-23 47-59 6-65 11-78 54-23 81-62 258-62 282 0 13-7 27-16 30s-145 6-304 6c-218 0-290-3-297-12zM2695 2285c-21-24-96-67-249-145-186-93-224-109-252-104-36 7-69-7-100-43-26-30-58-171-78-338-11-89-21-134-41-175-115-235-129-258-183-318-48-52-82-76-82-58 0 6 108 272 130 321 52 115 101 253 127 361s28 125 16 148c-17 32-50 34-85 6-28-21-62-85-54-99 3-4-1-39-8-77-47-235-63-279-127-344-24-24-69-77-100-118-48-63-127-132-151-132-17 0-6 35 39 127 40 81 62 111 131 179 73 73 114 135 99 150-3 3-13-8-22-23-17-30-215-143-249-143-20 0-21 29-2 75 13 29 31 42 128 91 62 31 126 60 141 63 21 5 36 20 58 59 16 29 29 57 29 63 0 5-71-26-157-70-138-69-162-84-190-124-29-39-42-48-100-66-77-24-81-26-111-65-37-48-44-94-27-174 22-106 59-180 116-234 51-47 173-116 244-138 22-6 63-22 90-35 28-13 111-40 185-60s162-45 196-55c74-22 322-30 367-12 28 12 40 34 146 266 56 122 59 137 60 272 0 71 5 165 10 209 8 65 6 105-10 209-11 71-18 135-15 142 8 21 207 117 246 119 32 2 35 6 38 35 2 20-9 66-28 116l-32 83-47 3c-45 3-46 4-49 38-5 50-13 53-47 15zm59-155c32-80 44-68-189-175-33-15-98-45-144-67-46-21-89-37-97-34-13 5-54 76-54 94 0 5 35 26 78 47 166 81 368 175 378 175 7 0 19-18 28-40zm-496-287c21-53 24-81 13-135-6-29-16-113-22-187-12-145-35-240-78-311-14-25-35-62-46-82-25-49-146-177-152-161-5 14 20 88 89 263 68 170 73 187 97 330 12 69 29 157 38 195 27 121 41 140 61 88zm245-33c-2-14-5-110-7-215-6-243-29-371-92-496-29-58-57-99-85-123-40-34-69-46-69-28 0 12 55 169 75 216 25 59 52 195 70 361 19 178 39 272 62 297 23 26 49 19 46-12zM4840 2115v-65h660c562 0 660 2 660 14 0 8-27 37-61 65l-61 51H4840v-65zM4763 1932c-38-19-53-32-53-47 0-11-1-84-3-163-1-79 0-146 3-151 3-4 26-13 53-21 74-20 1436-18 1492 2l40 15v338l-50 27-50 28-690-1h-690l-52-27zM4920 1439c0-9 31-56 142-214 19-28 61-88 93-135 33-47 64-88 70-92 5-4 132-8 282-8h272l58 82c32 44 88 124 124 177s80 116 96 141c17 25 29 48 27 52-8 13-1164 10-1164-3zM1085 1416c-11-8-92-61-181-119-88-58-166-112-173-120-15-19-27-152-15-160 6-3 39 17 74 45 88 68 187 132 270 175l70 35v79c0 83-5 91-45 65zM1084 1151c-105-56-324-218-324-239 0-12 99-121 121-132 15-9 34 2 111 69 105 90 147 120 220 157 55 28 54 23 3 80-6 6-19 30-29 53-22 48-32 49-102 12z"
    ></path>
    <path
      d="M585 1091c-16-10-64-37-105-61-126-73-150-104-150-193 0-132 91-281 234-381 81-57 134-81 231-106 154-38 185-29 315 92 55 51 100 96 100 101 0 4-10 7-22 7-45 0-218 68-295 115-155 97-255 235-271 377l-7 67-30-18zm1.974-381.792c0-35.56-28.828-64.388-64.389-64.388-35.56 0-64.388 28.827-64.388 64.388 0 35.56 28.828 64.388 64.388 64.388 35.561 0 64.389-28.827 64.389-64.388ZM838 554c47-32 6-104-60-104-29 0-78 38-78 60 0 6 11 22 25 35 28 29 79 33 113 9z"
    ></path>
    <path
      d="M1265 929c-27-10-74-35-104-56-64-44-171-141-171-155 0-10 89-51 135-62 17-4 37-9 46-12 11-3 42 22 89 70 40 42 91 88 114 103s43 30 46 34c3 3 15 12 28 21l23 16-55 31c-63 35-81 37-151 10zM5242 901c-9-5-12-30-10-87l3-79 230-3c127-1 248 1 270 6l40 8 3 75 3 76-53 6c-77 10-471 8-486-2zM1449 752c-34-22-93-75-104-91-14-23 27 5 85 58 57 53 63 63 19 33zM168 722c-31-20-77-58-103-84-26-27-51-48-56-48S0 463 0 295V0h751l17 31c31 57 76 124 109 163 18 22 31 41 29 43s-32 8-67 14c-270 42-510 236-579 467-7 23-18 42-24 41-6 0-37-17-68-37zM5237 643c-4-3-7-33-7-65 0-47 3-58 16-58 9 0 31-9 49-20 31-19 47-20 256-18l224 3v160l-266 3c-146 1-268-1-272-5zM5352 351c-16-52-46-87-87-102l-35-13v-72c0-40 3-79 6-88 5-14 38-16 264-16h258l11 28c15 37 9 91-14 125-22 35-32 126-16 156l12 21h-388l-11-39z"
    ></path>
  </g>
</svg>
