<svg xmlns="http://www.w3.org/2000/svg" id="root" viewBox="0 0 100 63">
  <g>
    <path
      d="M 12.023438 58.359375 C 9.847656 58.007812 7.824219 56.890625 5.953125 55.023438 C 3.292969 52.359375 1.539062 48.675781 1.417969 45.488281 C 1.347656 43.691406 1.753906 42.328125 2.644531 41.390625 C 2.914062 41.109375 2.894531 41.113281 4.003906 40.882812 C 6.828125 40.308594 9.101562 40.105469 13.4375 40.054688 C 16.503906 40.015625 16.921875 39.984375 19.394531 39.554688 C 21.019531 39.273438 21.15625 39.253906 22.585938 39.101562 C 23.875 38.960938 24.171875 38.910156 25.058594 38.675781 C 25.402344 38.585938 25.921875 38.460938 26.207031 38.410156 C 27.5 38.160156 27.976562 37.828125 28.808594 36.597656 C 29.066406 36.214844 29.472656 35.703125 29.703125 35.449219 C 30.238281 34.867188 30.417969 34.652344 30.925781 33.9375 C 31.4375 33.226562 31.859375 32.789062 32.394531 32.4375 C 32.90625 32.097656 34.226562 31.394531 36.054688 30.476562 C 38.96875 29.023438 40.882812 28.269531 41.898438 28.179688 C 42.539062 28.121094 42.785156 28.246094 42.972656 28.722656 C 43.066406 28.957031 43.082031 29.085938 43.082031 29.6875 C 43.085938 30.8125 42.84375 31.625 42.269531 32.4375 C 41.902344 32.957031 41.617188 33.136719 39.582031 34.191406 C 38.859375 34.5625 38.023438 35.015625 37.722656 35.195312 L 37.175781 35.527344 L 37.183594 35.703125 C 37.199219 35.949219 37.800781 37.738281 38.113281 38.460938 C 38.472656 39.300781 38.730469 39.730469 39.175781 40.234375 C 39.609375 40.730469 39.78125 40.859375 40.125 40.960938 C 40.382812 41.035156 43.175781 41.363281 43.546875 41.363281 C 43.695312 41.363281 43.894531 41.308594 44.167969 41.195312 C 45.453125 40.636719 46.632812 40.316406 47.394531 40.316406 C 47.550781 40.316406 47.59375 40.292969 47.699219 40.140625 C 48.414062 39.066406 49.78125 38.28125 51.824219 37.769531 L 52.410156 37.621094 L 52.589844 37.074219 C 53.300781 34.929688 54.503906 33.007812 55.328125 32.695312 C 55.402344 32.664062 55.71875 32.640625 56.03125 32.640625 L 56.597656 32.640625 L 56.8125 32.835938 C 57.058594 33.0625 57.234375 33.402344 57.339844 33.84375 C 57.433594 34.242188 57.433594 35.160156 57.339844 35.527344 C 57.253906 35.855469 57.015625 36.3125 56.832031 36.507812 C 56.703125 36.644531 56.703125 36.652344 56.683594 37.496094 C 56.667969 38.304688 56.65625 38.351562 56.511719 38.742188 C 56.429688 38.960938 56.203125 39.425781 56.007812 39.769531 C 55.355469 40.921875 55.222656 41.226562 54.882812 42.421875 C 54.613281 43.371094 54.316406 44.257812 54.191406 44.511719 C 54.015625 44.859375 53.859375 44.96875 53.300781 45.148438 C 52.960938 45.253906 52.625 45.40625 52.300781 45.597656 C 51.53125 46.050781 50.6875 46.398438 49.1875 46.871094 C 48.691406 47.023438 48.28125 47.195312 47.851562 47.417969 C 47.191406 47.773438 46.878906 47.871094 45.878906 48.0625 C 45.09375 48.214844 44.8125 48.324219 44.109375 48.726562 C 43.371094 49.152344 43.195312 49.203125 42.449219 49.167969 C 41.769531 49.140625 41.464844 49.0625 40.511719 48.683594 C 40.03125 48.492188 39.710938 48.410156 38.535156 48.171875 C 37.0625 47.882812 36.480469 47.722656 35.339844 47.328125 C 34.964844 47.195312 34.683594 47.113281 34.710938 47.140625 C 34.996094 47.429688 34.269531 48.230469 32.964844 49.054688 C 32.007812 49.660156 30.578125 50.332031 28.023438 51.375 C 27.394531 51.632812 26.203125 52.136719 25.378906 52.496094 C 24.554688 52.859375 23.832031 53.167969 23.78125 53.191406 C 23.730469 53.210938 23.109375 53.691406 22.398438 54.253906 C 20.933594 55.425781 20.289062 55.902344 19.539062 56.355469 C 18.292969 57.105469 16.050781 58.074219 15.046875 58.292969 C 14.433594 58.425781 12.671875 58.464844 12.023438 58.359375 Z M 89.679688 49.34375 C 88.507812 49.203125 87.902344 49.015625 87.257812 48.597656 C 86.414062 48.054688 85.863281 47.433594 84.824219 45.875 C 84.050781 44.726562 83.84375 44.449219 83.265625 43.808594 C 82.777344 43.273438 82.550781 42.933594 82.199219 42.238281 C 81.15625 40.144531 80.179688 36.351562 79.621094 32.261719 C 79.566406 31.855469 79.492188 31.453125 79.457031 31.367188 C 79.351562 31.136719 79.101562 31.035156 78.417969 30.949219 C 77.609375 30.855469 77.277344 30.738281 76.777344 30.402344 C 76.3125 30.097656 75.539062 29.417969 75.304688 29.132812 C 75.222656 29.027344 74.835938 28.605469 74.457031 28.183594 C 74.070312 27.765625 73.667969 27.292969 73.5625 27.136719 C 73.363281 26.835938 73.214844 26.398438 73.042969 25.609375 C 72.980469 25.347656 72.890625 25.046875 72.839844 24.941406 C 72.6875 24.636719 72.273438 24.277344 71.15625 23.480469 C 69.683594 22.429688 69.199219 22.125 67.449219 21.148438 C 66.742188 20.753906 65.101562 19.28125 64.539062 18.53125 C 64.199219 18.078125 64.082031 17.800781 64.082031 17.445312 C 64.082031 16.925781 64.28125 16.828125 65.289062 16.871094 C 65.742188 16.890625 65.890625 16.921875 66.246094 17.054688 C 66.875 17.289062 68.25 17.988281 69.898438 18.914062 C 72.089844 20.148438 73.515625 20.867188 73.777344 20.867188 C 73.832031 20.867188 74.394531 20.230469 74.773438 19.734375 C 74.839844 19.648438 74.53125 19.199219 74.121094 18.789062 C 73.238281 17.90625 71.933594 17.125 69.207031 15.839844 C 67.191406 14.886719 66.21875 14.382812 65.640625 14.003906 C 65.117188 13.65625 64.644531 13.203125 64.535156 12.933594 C 64.425781 12.671875 64.441406 12.046875 64.5625 11.792969 C 64.691406 11.511719 64.949219 11.21875 65.152344 11.125 C 65.398438 11.007812 65.9375 11.023438 66.496094 11.167969 C 67.46875 11.417969 71.703125 12.878906 74.785156 14.027344 C 75.703125 14.371094 75.832031 14.40625 75.847656 14.332031 C 75.855469 14.28125 75.914062 14.242188 75.988281 14.230469 C 76.113281 14.21875 76.101562 14.195312 75.675781 13.742188 C 74.726562 12.71875 74.203125 12.34375 72.566406 11.496094 C 71.953125 11.175781 71.148438 10.742188 70.78125 10.527344 C 69.984375 10.066406 69.300781 9.769531 68.5625 9.570312 C 66.992188 9.140625 66.4375 8.851562 66.246094 8.355469 C 66.128906 8.035156 66.171875 7.003906 66.3125 6.722656 C 66.53125 6.300781 66.90625 6.136719 67.730469 6.105469 C 69.296875 6.039062 71.304688 6.625 75.441406 8.359375 C 76.277344 8.710938 77.003906 9.007812 77.066406 9.027344 C 77.152344 9.046875 77.210938 9.015625 77.324219 8.878906 C 77.464844 8.707031 77.46875 8.691406 77.402344 8.511719 C 77.195312 7.925781 76.761719 7.347656 76.191406 6.890625 C 75.703125 6.5 75.035156 6.125 73.832031 5.5625 C 72.425781 4.90625 72.089844 4.707031 71.671875 4.265625 C 71.332031 3.902344 71.226562 3.644531 71.195312 3.101562 C 71.171875 2.609375 71.242188 2.328125 71.4375 2.144531 C 72.003906 1.609375 73.582031 1.71875 75.476562 2.429688 C 76.304688 2.738281 76.847656 3.011719 77.5 3.445312 C 77.792969 3.636719 78.335938 3.960938 78.714844 4.160156 C 79.097656 4.363281 79.527344 4.605469 79.667969 4.703125 C 80.265625 5.085938 80.8125 5.800781 81.496094 7.066406 C 81.691406 7.433594 82.113281 8.1875 82.433594 8.734375 C 83.605469 10.742188 84.136719 11.824219 84.246094 12.4375 C 84.371094 13.148438 84.402344 14.058594 84.4375 17.792969 C 84.476562 22.136719 84.464844 22.019531 84.773438 22.828125 C 85.027344 23.488281 85.421875 24.050781 86.273438 24.96875 C 86.554688 25.265625 87.042969 25.824219 87.367188 26.207031 C 88.429688 27.464844 88.863281 27.863281 90.261719 28.855469 C 92.078125 30.148438 92.738281 30.710938 93.691406 31.753906 C 95.59375 33.839844 96.964844 36.058594 97.5625 38.039062 C 97.78125 38.757812 97.878906 39.378906 97.925781 40.386719 C 97.949219 40.914062 98.007812 41.652344 98.050781 42.03125 C 98.167969 43.019531 98.175781 44.78125 98.054688 45.277344 C 97.796875 46.375 96.972656 47.390625 95.761719 48.097656 C 94.828125 48.644531 93.625 49.050781 92.324219 49.253906 C 91.867188 49.332031 90.046875 49.386719 89.679688 49.34375 Z M 89.679688 49.34375 "
    />
    <path
      style="stroke: none; fill-rule: nonzero; fill: rgb(93.333333%, 93.333333%, 74.901961%); fill-opacity: 1"
      d="M 46.957031 62.941406 C 46.675781 62.835938 46.445312 62.636719 46.324219 62.367188 L 46.207031 62.125 L 46.207031 58.332031 C 46.207031 55.066406 46.21875 54.507812 46.28125 54.363281 C 46.464844 53.917969 46.929688 53.636719 47.40625 53.679688 C 47.722656 53.707031 47.910156 53.796875 48.132812 54.027344 C 48.457031 54.359375 48.449219 54.226562 48.449219 58.335938 C 48.449219 62.476562 48.460938 62.316406 48.109375 62.667969 C 47.804688 62.972656 47.351562 63.078125 46.957031 62.941406 Z M 12.15625 59.808594 C 8.808594 59.378906 5.523438 57.171875 3.035156 53.6875 C 1.996094 52.234375 1.058594 50.347656 0.566406 48.726562 C 0.152344 47.367188 0 46.390625 0 45.132812 C 0 44.164062 0.0585938 43.699219 0.261719 42.9375 C 0.605469 41.671875 1.5625 40.265625 2.355469 39.863281 C 2.710938 39.683594 4.695312 39.277344 6.3125 39.058594 C 8.484375 38.757812 10.015625 38.667969 14.058594 38.59375 C 16.847656 38.546875 16.949219 38.542969 18.992188 38.191406 C 20.292969 37.964844 20.300781 37.964844 20.398438 37.824219 C 20.628906 37.46875 20.691406 37.445312 23.019531 36.8125 C 24.222656 36.484375 25.292969 36.203125 25.386719 36.1875 C 25.703125 36.136719 26.03125 36.25 26.277344 36.496094 C 26.398438 36.617188 26.523438 36.753906 26.546875 36.808594 C 26.59375 36.894531 26.601562 36.894531 26.789062 36.796875 C 27.042969 36.667969 27.292969 36.386719 27.703125 35.777344 C 28.070312 35.230469 28.308594 34.929688 28.890625 34.300781 C 29.097656 34.070312 29.472656 33.601562 29.71875 33.25 C 30.277344 32.46875 30.921875 31.789062 31.480469 31.398438 C 32.222656 30.875 35.429688 29.1875 37.367188 28.304688 L 38.132812 27.957031 L 38.570312 27.09375 C 39.34375 25.578125 40.03125 24.570312 40.894531 23.699219 C 41.347656 23.242188 42.011719 22.679688 42.105469 22.679688 C 42.125 22.679688 42.242188 23.179688 42.371094 23.792969 C 42.601562 24.871094 42.613281 24.914062 42.726562 24.933594 C 42.796875 24.949219 43.085938 24.984375 43.371094 25.019531 L 43.902344 25.078125 L 44.082031 26.558594 C 44.183594 27.375 44.316406 28.257812 44.378906 28.519531 C 44.445312 28.800781 44.5 29.210938 44.519531 29.519531 C 44.578125 30.789062 44.835938 35.203125 44.855469 35.300781 C 44.863281 35.359375 44.890625 35.40625 44.910156 35.40625 C 44.929688 35.40625 45.546875 34.417969 46.273438 33.214844 C 47.433594 31.308594 47.617188 31.027344 47.703125 31.042969 C 47.761719 31.054688 48.070312 31.085938 48.402344 31.117188 C 48.730469 31.144531 49.042969 31.179688 49.101562 31.1875 C 49.195312 31.210938 49.226562 31.148438 49.449219 30.476562 L 49.691406 29.75 L 50.273438 29.691406 C 50.59375 29.65625 50.957031 29.625 51.078125 29.605469 L 51.300781 29.582031 L 51.835938 28.300781 C 52.132812 27.589844 52.390625 27.03125 52.410156 27.050781 C 52.464844 27.113281 52.734375 28.019531 52.839844 28.523438 C 52.929688 28.941406 52.945312 29.210938 52.972656 31.035156 L 53 33.074219 L 53.210938 32.785156 C 53.5 32.390625 54.140625 31.785156 54.492188 31.578125 C 54.972656 31.296875 55.328125 31.210938 56.007812 31.210938 C 56.65625 31.210938 56.992188 31.289062 57.375 31.53125 C 58.273438 32.078125 58.839844 33.3125 58.839844 34.695312 C 58.839844 35.515625 58.644531 36.265625 58.269531 36.855469 C 58.132812 37.066406 58.125 37.109375 58.125 37.566406 C 58.125 38.515625 57.890625 39.242188 57.222656 40.425781 C 56.667969 41.414062 56.546875 41.699219 56.195312 42.914062 C 55.65625 44.78125 55.417969 45.3125 54.910156 45.816406 C 54.585938 46.140625 54.253906 46.324219 53.683594 46.488281 C 53.464844 46.550781 53.140625 46.699219 52.914062 46.835938 C 52.160156 47.296875 51.441406 47.59375 49.878906 48.109375 C 49.191406 48.335938 48.738281 48.515625 48.367188 48.714844 C 47.675781 49.082031 47.203125 49.238281 46.246094 49.425781 C 45.398438 49.59375 45.300781 49.625 44.636719 50.015625 C 44.386719 50.160156 44.0625 50.328125 43.921875 50.378906 C 42.855469 50.78125 41.609375 50.660156 40.09375 50.011719 C 39.796875 49.882812 39.382812 49.777344 38.390625 49.582031 C 36.960938 49.296875 36.769531 49.253906 35.96875 49.011719 L 35.425781 48.84375 L 35.058594 49.191406 C 33.933594 50.246094 32.394531 51.078125 28.929688 52.503906 C 28.195312 52.804688 26.871094 53.367188 25.980469 53.75 L 24.367188 54.449219 L 23.261719 55.328125 C 20.90625 57.207031 19.988281 57.800781 18.242188 58.578125 C 16.449219 59.378906 15.519531 59.679688 14.460938 59.8125 C 13.992188 59.871094 12.628906 59.867188 12.15625 59.808594 Z M 14.90625 58.144531 C 15.902344 57.929688 18.152344 56.960938 19.394531 56.214844 C 20.144531 55.761719 20.792969 55.285156 22.253906 54.113281 C 22.964844 53.550781 23.585938 53.066406 23.636719 53.046875 C 23.691406 53.023438 24.410156 52.714844 25.234375 52.351562 C 26.058594 51.996094 27.25 51.488281 27.878906 51.234375 C 30.996094 49.960938 32.402344 49.265625 33.480469 48.464844 C 33.90625 48.152344 34.339844 47.738281 34.519531 47.480469 L 34.625 47.332031 L 34.097656 46.917969 C 33.730469 46.628906 33.585938 46.484375 33.621094 46.453125 C 33.652344 46.417969 33.753906 46.445312 33.945312 46.550781 C 34.324219 46.75 34.910156 46.988281 35.675781 47.253906 C 36.730469 47.613281 37.214844 47.738281 38.683594 48.035156 C 39.855469 48.265625 40.171875 48.347656 40.65625 48.539062 C 41.503906 48.878906 41.925781 48.996094 42.441406 49.027344 C 43.027344 49.058594 43.257812 48.996094 43.96875 48.582031 C 44.667969 48.183594 44.949219 48.070312 45.734375 47.917969 C 46.738281 47.730469 47.046875 47.628906 47.710938 47.277344 C 48.136719 47.050781 48.546875 46.878906 49.042969 46.726562 C 50.546875 46.257812 51.390625 45.90625 52.15625 45.453125 C 52.480469 45.265625 52.820312 45.113281 53.15625 45.007812 C 53.714844 44.824219 53.871094 44.714844 54.050781 44.367188 C 54.171875 44.117188 54.46875 43.230469 54.742188 42.28125 C 55.078125 41.082031 55.210938 40.777344 55.867188 39.625 C 56.0625 39.28125 56.285156 38.820312 56.371094 38.601562 C 56.511719 38.210938 56.523438 38.160156 56.542969 37.351562 C 56.5625 36.507812 56.5625 36.503906 56.691406 36.363281 C 56.871094 36.167969 57.109375 35.710938 57.195312 35.382812 C 57.234375 35.226562 57.265625 34.914062 57.265625 34.691406 C 57.265625 33.957031 57.046875 33.328125 56.671875 32.980469 L 56.457031 32.785156 L 56.03125 32.785156 C 55.796875 32.785156 55.546875 32.808594 55.46875 32.835938 C 54.644531 33.152344 53.445312 35.074219 52.734375 37.21875 L 52.550781 37.765625 L 51.964844 37.914062 C 50.210938 38.351562 48.992188 38.972656 48.234375 39.804688 C 48.082031 39.96875 47.90625 40.183594 47.84375 40.28125 C 47.738281 40.433594 47.695312 40.460938 47.539062 40.460938 C 46.773438 40.460938 45.734375 40.742188 44.371094 41.308594 L 43.800781 41.546875 L 43.277344 41.503906 C 42.300781 41.425781 40.226562 41.175781 39.984375 41.101562 C 39.855469 41.066406 39.667969 40.984375 39.582031 40.925781 C 39.324219 40.75 38.671875 39.976562 38.4375 39.574219 C 38.019531 38.84375 37.503906 37.507812 37.097656 36.121094 C 36.925781 35.515625 36.917969 35.472656 37 35.414062 C 37.242188 35.226562 38.28125 34.648438 39.441406 34.046875 C 41.476562 32.996094 41.761719 32.8125 42.128906 32.292969 C 42.667969 31.53125 42.9375 30.671875 42.9375 29.710938 C 42.941406 28.679688 42.628906 28.242188 41.953125 28.328125 C 40.921875 28.457031 38.992188 29.226562 36.199219 30.621094 C 34.367188 31.535156 33.046875 32.242188 32.539062 32.578125 C 32.003906 32.933594 31.578125 33.371094 31.070312 34.082031 C 30.558594 34.796875 30.382812 35.011719 29.84375 35.59375 C 29.617188 35.84375 29.210938 36.359375 28.953125 36.742188 C 28.117188 37.972656 27.640625 38.304688 26.351562 38.550781 C 26.0625 38.605469 25.542969 38.730469 25.203125 38.820312 C 24.316406 39.054688 24.019531 39.105469 22.726562 39.242188 C 21.296875 39.394531 21.164062 39.414062 19.539062 39.695312 C 17.066406 40.125 16.644531 40.160156 13.582031 40.195312 C 9.242188 40.25 6.96875 40.449219 4.148438 41.027344 C 3.035156 41.253906 3.054688 41.25 2.789062 41.53125 C 0.769531 43.667969 1.28125 48.152344 4.027344 52.328125 C 6.171875 55.59375 9.113281 57.71875 12.164062 58.214844 C 12.789062 58.316406 14.289062 58.277344 14.90625 58.144531 Z M 39.945312 59.375 C 39.6875 59.304688 39.273438 58.898438 39.207031 58.644531 C 39.175781 58.539062 39.152344 58.382812 39.152344 58.296875 C 39.152344 58.015625 40.335938 53.660156 40.464844 53.464844 C 40.707031 53.097656 41.1875 52.90625 41.632812 53 C 42.128906 53.105469 42.503906 53.558594 42.503906 54.058594 C 42.503906 54.386719 41.390625 58.605469 41.222656 58.894531 C 41.085938 59.132812 40.894531 59.277344 40.597656 59.363281 C 40.34375 59.441406 40.207031 59.441406 39.945312 59.375 Z M 53.90625 59.148438 C 53.691406 59.054688 53.40625 58.757812 53.324219 58.550781 C 53.292969 58.46875 53.011719 57.449219 52.691406 56.28125 C 52.285156 54.769531 52.117188 54.082031 52.117188 53.898438 C 52.125 53.273438 52.621094 52.804688 53.265625 52.804688 C 53.695312 52.808594 54.148438 53.144531 54.28125 53.5625 C 54.320312 53.683594 54.605469 54.707031 54.910156 55.832031 C 55.3125 57.296875 55.46875 57.957031 55.46875 58.144531 C 55.46875 58.929688 54.621094 59.472656 53.90625 59.148438 Z M 53.90625 59.148438 "
    />
    <path
      style="stroke: none; fill-rule: nonzero; fill: rgb(93.333333%, 93.333333%, 74.901961%); fill-opacity: 1"
      d="M 31.914062 59.078125 C 31.675781 58.992188 31.40625 58.746094 31.289062 58.503906 C 31.203125 58.324219 31.1875 58.222656 31.203125 57.964844 L 31.222656 57.644531 L 33.074219 54.429688 C 34.148438 52.578125 35 51.148438 35.097656 51.0625 C 35.582031 50.585938 36.421875 50.703125 36.792969 51.300781 C 36.917969 51.507812 36.9375 51.574219 36.9375 51.894531 L 36.9375 52.257812 L 35.105469 55.425781 C 34.101562 57.171875 33.230469 58.664062 33.167969 58.746094 C 32.921875 59.078125 32.335938 59.230469 31.914062 59.078125 Z M 61.765625 58.714844 C 61.660156 58.664062 61.519531 58.558594 61.445312 58.488281 C 61.34375 58.378906 57.980469 52.609375 57.699219 52.058594 C 57.632812 51.917969 57.601562 51.765625 57.601562 51.566406 C 57.601562 51.011719 57.945312 50.585938 58.476562 50.464844 C 58.820312 50.390625 59.207031 50.5 59.460938 50.746094 C 59.578125 50.867188 60.246094 51.972656 61.441406 54.046875 C 62.429688 55.761719 63.269531 57.234375 63.304688 57.320312 C 63.378906 57.5 63.386719 57.816406 63.320312 58.054688 C 63.257812 58.28125 62.960938 58.617188 62.730469 58.722656 C 62.460938 58.84375 62.019531 58.839844 61.765625 58.714844 Z M 65.988281 51.941406 C 65.671875 51.800781 62.542969 48.675781 62.386719 48.347656 C 62.035156 47.605469 62.5625 46.75 63.371094 46.75 C 63.847656 46.757812 63.925781 46.8125 65.71875 48.601562 C 66.632812 49.511719 67.417969 50.332031 67.46875 50.421875 C 67.753906 50.96875 67.535156 51.640625 66.976562 51.921875 C 66.671875 52.078125 66.300781 52.082031 65.988281 51.941406 Z M 89.703125 50.769531 C 88.832031 50.695312 87.839844 50.449219 87.21875 50.15625 C 86.503906 49.816406 85.671875 49.179688 85.046875 48.492188 C 84.613281 48.011719 84.390625 47.710938 83.632812 46.570312 C 82.921875 45.507812 82.675781 45.1875 82.132812 44.617188 C 81.433594 43.867188 80.757812 42.625 80.171875 41.003906 C 79.527344 39.230469 78.796875 36.179688 78.382812 33.523438 C 78.300781 33 78.226562 32.527344 78.214844 32.46875 C 78.195312 32.382812 78.128906 32.355469 77.753906 32.285156 C 77.511719 32.242188 77.148438 32.136719 76.953125 32.050781 L 76.59375 31.902344 L 73.332031 31.878906 C 70.097656 31.855469 70.066406 31.855469 69.875 31.75 C 69.058594 31.3125 69.058594 30.1875 69.875 29.742188 C 70 29.671875 70.269531 29.65625 71.960938 29.636719 L 73.910156 29.613281 L 73.375 29.042969 C 72.71875 28.347656 72.335938 27.832031 72.113281 27.375 C 71.96875 27.070312 71.613281 25.839844 71.613281 25.625 C 71.613281 25.519531 71.417969 25.363281 70.171875 24.472656 C 69.070312 23.683594 68.203125 23.136719 67.230469 22.605469 C 66.898438 22.429688 66.527344 22.210938 66.394531 22.125 C 65.6875 21.652344 64.125 20.203125 63.542969 19.476562 C 62.902344 18.679688 62.6875 18.179688 62.679688 17.457031 C 62.675781 16.839844 62.785156 16.546875 63.175781 16.128906 C 63.617188 15.667969 64.199219 15.433594 64.9375 15.433594 L 65.292969 15.433594 L 64.839844 15.125 C 64.03125 14.574219 63.46875 13.980469 63.226562 13.40625 C 62.792969 12.398438 63.066406 11.199219 63.933594 10.335938 C 64.269531 10.003906 64.71875 9.746094 65.066406 9.6875 C 65.4375 9.628906 65.433594 9.636719 65.25 9.382812 C 64.894531 8.886719 64.75 8.390625 64.75 7.640625 C 64.75 6.054688 65.542969 5.054688 67.039062 4.746094 C 67.773438 4.59375 69.027344 4.683594 70.15625 4.972656 C 70.308594 5.011719 70.441406 5.035156 70.453125 5.027344 C 70.464844 5.015625 70.390625 4.878906 70.285156 4.726562 C 70.042969 4.355469 69.726562 3.609375 69.660156 3.230469 C 69.589844 2.839844 69.636719 2.332031 69.777344 1.980469 C 69.878906 1.734375 70.183594 1.304688 70.375 1.148438 C 70.566406 0.984375 71.4375 0.558594 71.734375 0.484375 C 72.253906 0.351562 73.191406 0.371094 73.949219 0.527344 C 75.441406 0.839844 77.015625 1.472656 78.125 2.203125 C 78.429688 2.40625 79.027344 2.757812 79.457031 2.992188 C 80.480469 3.542969 80.605469 3.636719 81.171875 4.203125 C 81.714844 4.746094 82.078125 5.253906 82.582031 6.183594 C 82.773438 6.539062 83.234375 7.351562 83.605469 7.996094 C 85.226562 10.792969 85.59375 11.632812 85.71875 12.796875 C 85.84375 13.972656 85.875 15.011719 85.871094 18.105469 C 85.867188 21.597656 85.875 21.804688 86.105469 22.40625 C 86.261719 22.832031 86.605469 23.304688 87.304688 24.0625 C 87.652344 24.441406 88.164062 25.019531 88.441406 25.347656 C 89.023438 26.042969 89.679688 26.714844 90.085938 27.019531 C 90.242188 27.144531 90.84375 27.578125 91.417969 27.992188 C 92.753906 28.945312 93.273438 29.375 94.089844 30.195312 C 96.199219 32.308594 97.851562 34.757812 98.703125 37.050781 C 99.027344 37.9375 99.203125 38.667969 99.304688 39.566406 C 99.339844 39.871094 99.441406 40.257812 99.675781 40.949219 L 100 41.914062 L 99.980469 43.429688 L 99.964844 44.945312 L 99.785156 45.492188 C 99.679688 45.796875 99.539062 46.140625 99.460938 46.265625 C 99.390625 46.390625 99.28125 46.605469 99.21875 46.746094 C 99.09375 47.03125 98.613281 47.644531 98.300781 47.894531 C 98.191406 47.984375 98.019531 48.125 97.921875 48.207031 C 97.824219 48.28125 97.582031 48.480469 97.386719 48.644531 C 96 49.773438 93.960938 50.527344 91.6875 50.753906 C 91.230469 50.796875 90.140625 50.808594 89.703125 50.769531 Z M 92.183594 49.109375 C 95.222656 48.632812 97.34375 47.191406 97.894531 45.230469 C 97.976562 44.917969 97.992188 44.746094 97.992188 43.867188 C 97.992188 43.210938 97.964844 42.628906 97.90625 42.175781 C 97.863281 41.792969 97.808594 41.054688 97.78125 40.53125 C 97.734375 39.519531 97.640625 38.902344 97.421875 38.179688 C 96.820312 36.203125 95.453125 33.980469 93.550781 31.898438 C 92.597656 30.855469 91.933594 30.292969 90.117188 29 C 88.722656 28.007812 88.289062 27.609375 87.226562 26.347656 C 86.902344 25.96875 86.410156 25.410156 86.128906 25.109375 C 85.28125 24.195312 84.882812 23.632812 84.632812 22.96875 C 84.320312 22.164062 84.332031 22.277344 84.292969 17.9375 C 84.261719 14.203125 84.226562 13.292969 84.101562 12.582031 C 83.992188 11.96875 83.464844 10.886719 82.292969 8.878906 C 81.972656 8.332031 81.546875 7.578125 81.351562 7.210938 C 80.671875 5.941406 80.121094 5.226562 79.527344 4.847656 C 79.382812 4.75 78.953125 4.507812 78.574219 4.300781 C 78.191406 4.101562 77.648438 3.777344 77.359375 3.585938 C 76.484375 3.011719 75.457031 2.554688 74.296875 2.234375 C 72.300781 1.675781 71.238281 1.992188 71.34375 3.101562 C 71.378906 3.507812 71.519531 3.800781 71.816406 4.121094 C 72.234375 4.566406 72.566406 4.765625 73.972656 5.417969 C 75.652344 6.199219 76.441406 6.710938 76.953125 7.34375 C 77.21875 7.671875 77.472656 8.136719 77.597656 8.511719 L 77.675781 8.765625 L 77.492188 8.984375 C 77.390625 9.105469 77.296875 9.226562 77.277344 9.25 C 77.238281 9.3125 77.148438 9.277344 75.285156 8.496094 C 71.269531 6.816406 69.089844 6.167969 67.730469 6.246094 C 66.734375 6.308594 66.375 6.632812 66.332031 7.535156 C 66.28125 8.574219 66.65625 8.867188 68.707031 9.425781 C 69.445312 9.628906 70.128906 9.921875 70.921875 10.386719 C 71.289062 10.597656 72.097656 11.03125 72.710938 11.351562 C 74.339844 12.195312 74.871094 12.582031 75.804688 13.582031 C 76.351562 14.167969 76.523438 14.414062 76.523438 14.585938 C 76.523438 14.769531 76.421875 14.757812 76.183594 14.542969 L 75.984375 14.359375 L 76.019531 14.519531 C 76.039062 14.597656 76.039062 14.671875 76.023438 14.671875 C 76.003906 14.671875 75.417969 14.457031 74.71875 14.199219 C 71.429688 12.972656 67.34375 11.566406 66.351562 11.308594 C 65.585938 11.113281 65.285156 11.160156 64.964844 11.535156 C 64.730469 11.808594 64.605469 12.101562 64.605469 12.382812 C 64.605469 12.714844 64.703125 12.910156 65.023438 13.25 C 65.570312 13.820312 66.484375 14.339844 69.351562 15.695312 C 72.628906 17.238281 74.105469 18.21875 74.804688 19.292969 C 74.914062 19.460938 75.027344 19.613281 75.054688 19.632812 C 75.085938 19.652344 74.871094 19.949219 74.523438 20.371094 C 74.199219 20.761719 73.929688 21.089844 73.921875 21.097656 C 73.917969 21.105469 73.738281 21.058594 73.535156 20.988281 C 72.957031 20.792969 71.699219 20.152344 69.921875 19.152344 C 68.105469 18.132812 66.742188 17.429688 66.105469 17.203125 C 65.417969 16.949219 64.578125 16.933594 64.339844 17.171875 C 64.019531 17.492188 64.394531 18.175781 65.464844 19.246094 C 66.191406 19.972656 67.125 20.742188 67.589844 21.003906 C 69.339844 21.984375 69.828125 22.289062 71.300781 23.335938 C 72.414062 24.132812 72.828125 24.496094 72.980469 24.800781 C 73.035156 24.90625 73.125 25.207031 73.1875 25.46875 C 73.359375 26.253906 73.507812 26.691406 73.707031 26.992188 C 73.8125 27.148438 74.210938 27.621094 74.597656 28.042969 C 74.980469 28.460938 75.367188 28.886719 75.445312 28.988281 C 75.679688 29.277344 76.457031 29.953125 76.917969 30.257812 C 77.421875 30.597656 77.753906 30.710938 78.558594 30.804688 C 79.246094 30.890625 79.492188 30.992188 79.597656 31.226562 C 79.636719 31.3125 79.707031 31.710938 79.765625 32.117188 C 80.324219 36.207031 81.300781 40 82.34375 42.09375 C 82.691406 42.789062 82.921875 43.128906 83.40625 43.667969 C 83.988281 44.304688 84.195312 44.582031 84.964844 45.730469 C 86.003906 47.289062 86.558594 47.910156 87.402344 48.453125 C 88.050781 48.871094 88.644531 49.054688 89.824219 49.203125 C 90.160156 49.246094 91.71875 49.183594 92.183594 49.109375 Z M 72.675781 47.660156 C 72.4375 47.550781 66.570312 44.167969 66.289062 43.980469 C 66.019531 43.792969 65.847656 43.4375 65.847656 43.0625 C 65.847656 42.355469 66.507812 41.824219 67.179688 41.984375 C 67.433594 42.046875 73.65625 45.617188 73.878906 45.835938 C 74.101562 46.046875 74.207031 46.304688 74.203125 46.632812 C 74.203125 47.421875 73.378906 47.976562 72.675781 47.660156 Z M 73.164062 39.757812 C 71.320312 39.277344 68.792969 38.59375 68.703125 38.5625 C 68.484375 38.476562 68.246094 38.226562 68.132812 37.972656 C 67.839844 37.28125 68.300781 36.492188 69.046875 36.425781 C 69.265625 36.40625 69.613281 36.484375 71.535156 37 C 74.054688 37.664062 74.117188 37.695312 74.34375 38.125 C 74.464844 38.351562 74.480469 38.429688 74.464844 38.699219 C 74.441406 39.121094 74.265625 39.414062 73.925781 39.605469 C 73.6875 39.734375 73.34375 39.804688 73.164062 39.757812 Z M 17.109375 32.40625 C 16.140625 31.960938 16.296875 30.53125 17.335938 30.304688 C 17.511719 30.269531 18.679688 30.257812 21.277344 30.269531 L 24.972656 30.28125 L 25.167969 30.386719 C 25.617188 30.625 25.863281 31.136719 25.757812 31.605469 C 25.6875 31.949219 25.515625 32.183594 25.21875 32.355469 L 24.972656 32.5 L 21.136719 32.5 C 17.5 32.5 17.289062 32.492188 17.109375 32.40625 Z M 45.96875 30.996094 C 45.96875 30.972656 45.828125 30.085938 45.65625 29.03125 L 45.335938 27.121094 L 45.558594 26.851562 L 45.777344 26.578125 L 45.503906 26.300781 C 44.832031 25.628906 44.621094 24.726562 44.933594 23.855469 C 45.113281 23.375 45.285156 23.117188 45.726562 22.679688 C 46.316406 22.085938 46.898438 21.824219 47.898438 21.675781 C 48.886719 21.539062 49.730469 21.757812 50.191406 22.273438 C 50.320312 22.417969 50.355469 22.4375 50.480469 22.398438 C 50.566406 22.375 50.890625 22.398438 51.367188 22.460938 L 52.113281 22.558594 L 51.503906 23.242188 L 50.890625 23.921875 L 50.855469 24.242188 C 50.785156 24.898438 50.46875 25.628906 50.050781 26.097656 L 49.835938 26.335938 L 50.175781 27.179688 C 50.359375 27.640625 50.5 28.03125 50.484375 28.046875 C 50.464844 28.070312 49.707031 28.144531 49.421875 28.160156 C 49.390625 28.160156 49.316406 28.273438 49.257812 28.414062 C 49.203125 28.546875 49.054688 28.878906 48.9375 29.152344 L 48.726562 29.636719 L 47.3125 29.636719 L 46.640625 30.34375 C 46.273438 30.730469 45.96875 31.027344 45.96875 30.996094 Z M 22.933594 25.992188 C 21.734375 25.671875 20.695312 25.382812 20.625 25.34375 C 20.277344 25.15625 20.042969 24.761719 20.039062 24.355469 C 20.039062 23.730469 20.511719 23.253906 21.136719 23.25 C 21.429688 23.25 25.59375 24.332031 25.902344 24.488281 C 26.40625 24.746094 26.617188 25.40625 26.359375 25.945312 C 26.296875 26.078125 26.199219 26.230469 26.136719 26.289062 C 25.945312 26.457031 25.613281 26.585938 25.355469 26.582031 C 25.210938 26.578125 24.234375 26.339844 22.933594 25.992188 Z M 27.238281 20.996094 C 27.066406 20.933594 21.273438 17.605469 20.824219 17.320312 C 20.105469 16.855469 20.152344 15.765625 20.90625 15.378906 C 21.164062 15.246094 21.496094 15.21875 21.734375 15.304688 C 21.925781 15.367188 27.808594 18.738281 28.214844 19.011719 C 28.492188 19.199219 28.671875 19.550781 28.671875 19.898438 C 28.675781 20.214844 28.621094 20.394531 28.449219 20.613281 C 28.191406 20.953125 27.609375 21.132812 27.238281 20.996094 Z M 30.667969 16.167969 C 30.449219 16.070312 27.171875 12.804688 27.035156 12.550781 C 26.753906 12.015625 27.046875 11.265625 27.628906 11.027344 C 27.871094 10.921875 28.265625 10.933594 28.515625 11.046875 C 28.828125 11.191406 31.976562 14.328125 32.128906 14.648438 C 32.402344 15.234375 32.148438 15.925781 31.566406 16.167969 C 31.339844 16.261719 30.886719 16.261719 30.667969 16.167969 Z M 35.53125 12.53125 C 35.316406 12.464844 35.128906 12.34375 35 12.207031 C 34.859375 12.054688 31.304688 5.914062 31.210938 5.660156 C 31.015625 5.128906 31.308594 4.472656 31.847656 4.246094 C 32.222656 4.09375 32.78125 4.207031 33.0625 4.503906 C 33.167969 4.613281 36.46875 10.273438 36.785156 10.878906 C 37.078125 11.453125 36.910156 12.089844 36.371094 12.40625 C 36.140625 12.539062 35.742188 12.601562 35.53125 12.53125 Z M 58.300781 12.171875 C 57.671875 11.9375 57.382812 11.242188 57.667969 10.640625 C 57.730469 10.511719 58.5625 9.039062 59.527344 7.378906 C 60.824219 5.128906 61.324219 4.296875 61.480469 4.148438 C 62.015625 3.636719 62.890625 3.804688 63.226562 4.492188 C 63.3125 4.667969 63.324219 4.773438 63.3125 5.03125 L 63.296875 5.355469 L 61.539062 8.402344 C 60.570312 10.078125 59.707031 11.5625 59.621094 11.699219 C 59.34375 12.140625 58.761719 12.34375 58.300781 12.171875 Z M 40.785156 10.066406 C 40.34375 9.847656 40.324219 9.792969 39.648438 7.324219 C 39.261719 5.898438 39.046875 5.027344 39.046875 4.875 C 39.042969 4.269531 39.554688 3.753906 40.15625 3.753906 C 40.554688 3.753906 41.011719 4.042969 41.167969 4.40625 C 41.210938 4.507812 41.507812 5.554688 41.828125 6.734375 C 42.449219 9.027344 42.480469 9.21875 42.308594 9.550781 C 42.007812 10.132812 41.355469 10.351562 40.785156 10.066406 Z M 52.785156 9.976562 C 52.320312 9.828125 52.023438 9.421875 52.023438 8.941406 C 52.023438 8.710938 52.664062 6.148438 53.148438 4.429688 C 53.285156 3.933594 53.734375 3.597656 54.238281 3.597656 C 54.859375 3.597656 55.359375 4.09375 55.359375 4.707031 C 55.359375 4.863281 54.273438 9.058594 54.160156 9.351562 C 53.953125 9.859375 53.320312 10.148438 52.785156 9.976562 Z M 46.695312 9.207031 C 46.394531 9.058594 46.183594 8.785156 46.113281 8.453125 C 46.074219 8.289062 46.066406 7.082031 46.074219 4.515625 C 46.089844 1.019531 46.09375 0.8125 46.179688 0.65625 C 46.535156 -0.015625 47.304688 -0.203125 47.882812 0.242188 C 47.996094 0.320312 48.132812 0.488281 48.191406 0.609375 L 48.300781 0.824219 L 48.300781 4.660156 C 48.304688 8.988281 48.324219 8.710938 47.929688 9.050781 C 47.574219 9.355469 47.113281 9.417969 46.695312 9.207031 Z M 46.695312 9.207031 "
    />
  </g>
</svg>
