<svg id="root" xmlns="http://www.w3.org/2000/svg" width="768" height="441" viewBox="0 0 7680 4410">
  <g fill="#1A1710">
    <path
      d="M3640 3275v-255h370v510h-370v-255zm-1360 234c0-10 36-169 197-869 134-587 154-673 183-826 15-84 36-166 44-183l17-31h511l-23 38c-12 20-26 41-31 46-16 19-8 65 18 96 15 17 60 54 101 82l75 50-22 23c-22 24-23 44-5 102l7 23h-284l-32 32c-30 31-33 42-59 203-15 94-52 325-82 515s-64 406-76 480c-12 80-29 154-42 182l-22 47-237 1c-166 0-238-3-238-11z" />
    <path
      d="M2827 3514c-4-4 0-19 8-33s60-318 116-676c87-552 105-653 123-673 19-22 25-22 170-20l151 3 47 79c70 116 74 119 133 113 32-3 77-20 128-47 68-37 77-40 77-22 0 10 9 27 19 36 17 15 40 17 199 14 207-3 215-6 227-86 14-101-4-92 175-92 142 0 159 2 174 19 14 15 42 168 122 673 57 359 110 665 118 680 8 14 12 29 8 32-3 3-168 6-368 6h-362l-6-22c-3-13-6-137-6-275v-253h-510v223c0 122-3 246-6 275l-7 52h-362c-199 0-365-3-368-6z" />
    <path
      d="M4884 3498c-3-13-12-30-19-38s-18-51-24-95c-7-44-26-163-42-265-66-415-79-495-114-715-40-253-46-277-83-305-21-17-41-20-143-20h-119v-31c0-20 18-61 50-113 28-44 56-90 63-101 6-11 22-36 34-56 32-48 29-72-13-119l-36-40h531l17 31c8 17 29 99 44 183 29 152 55 266 174 786 132 572 206 899 206 909 0 8-82 11-259 11h-260l-7-22zM3462 2118c-45-73-79-135-74-139 4-4 39-2 77 6 80 15 186 14 362-5 68-7 126-10 130-6 5 4-28 42-72 85-96 92-257 188-320 190-15 1-40-31-103-131zm368 117c0-4 29-43 65-88s77-104 90-132c13-27 49-104 79-169 31-66 58-117 61-114s17 45 30 94c20 71 25 112 25 204 0 99-10 183-22 195-7 7-328 17-328 10z" />
    <path
      d="M4277 1973c-2-5-12-32-22-62-32-99-83-194-169-316-46-66-82-123-80-126 4-7 138 30 194 53 49 21 200 121 228 150l23 25-82 141c-44 78-82 142-84 142s-6-3-8-7zm-662-28c-22-7-65-21-95-30-87-27-290-162-290-193 0-9 147-263 159-275 4-4 15 11 23 35 9 24 26 71 38 106 13 35 60 118 105 185 116 172 117 175 108 180-4 2-26-1-48-8zm-95-337c-28-99-39-284-21-364l12-52 160-7c88-4 163-5 166-1 3 3-7 22-23 42-86 108-119 163-185 307-39 86-75 157-79 157s-17-37-30-82zm230-208c53-64 106-106 195-157 80-46 140-73 164-73 15 0 171 233 179 267 4 15-11 14-108-6-64-13-144-12-270 3-68 9-142 16-163 16h-39l42-50z" />
  </g>
</svg>