<svg id="root" xmlns="http://www.w3.org/2000/svg" width="768" height="441" viewBox="0 0 7680 4410">
  <path
    d="M3110 2676v-55l53-3 52-3 3-172c2-166 3-172 24-175 24-3 27-9 64-93 22-51 27-57 35-40 5 11 20 46 33 78 22 51 28 57 55 57h30l3 103 3 102h90l3-249c2-213 5-251 18-261 9-6 20-33 25-61 5-27 18-61 29-76 15-21 20-43 20-93 0-51 3-65 15-65s15 14 15 66c0 50 5 72 19 91 11 13 25 49 31 78 6 30 18 58 25 63 10 5 15 33 17 97l3 90 42 3 42 3 3 137 3 137h140l3-42c3-34 7-42 25-45 13-2 28-16 36-33 21-47 42-65 72-65 28 0 69 39 69 67 0 7 12 19 27 26 22 10 28 9 37-7 43-73 52-81 86-81 30 0 38 5 58 42 14 26 33 45 47 49 24 6 24 8 27 138l3 131 33 3c32 3 32 4 32 58v54H3110v-54z" />
</svg>