<svg xmlns="http://www.w3.org/2000/svg" id="root" viewBox=".6 0 148.9 150">
  <path
    d="M68.7 0v14.9L50.4 24 37.7 11.4l-9.3 9.2 8.7 8.7V35L22.7 49.4l-3-3H.5v11.1h9.9l6.9 6.9v21.2l-6.9 6.9H.5v11.1h19.1l3-3L37.2 115v5.7l-8.7 8.7 9.3 9.2L50.4 126l18.3 9.2V150h12.6v-14.9l18.3-9.2 12.8 12.7 9.2-9.2-8.7-8.7V115l14.4-14.4 3 3h19.2V92.5h-10l-6.8-6.9V64.4l6.8-6.9h10V46.4h-19.1l-3 3L112.8 35v-5.7l8.7-8.7-9.2-9.2L99.6 24l-18.3-9V0Zm6 25.7 8 1.8 9.2 9-.6 4.1-7 14.4-8 8h-4.9l-9.2-8.2L57 38.6l2.2-8.4 2.3-1.6ZM38.5 51.2 48.6 57l15.5 15.5v5.2L48.7 93.2l-11 6.4-9.8-9.8V57.3Zm71.4 0 10.5 6.1v32.5l-9.8 9.8-11-6.4L84 77.8v-5.2l15.6-15.5ZM71.4 87h5l7.9 7.9 7 14.4.6 4-9.2 9-8 1.9-13.2-3-2.3-1.5-2.2-8.4 5.2-16.2Zm0 0"
  />
</svg>
