<svg xmlns="http://www.w3.org/2000/svg" id="root" viewBox="0 0 99 77">
  <g>
    <path
      d="M 39.09375 1.324219 C 39.199219 1.207031 39.296875 1.109375 39.320312 1.109375 C 39.34375 1.113281 39.496094 1.210938 39.664062 1.324219 L 39.960938 1.539062 L 38.910156 1.539062 Z M 51.871094 75.039062 C 51.75 74.609375 51.632812 74.179688 51.613281 74.078125 C 51.585938 73.945312 51.589844 73.328125 51.648438 71.46875 C 51.691406 70.128906 51.730469 69.027344 51.738281 69.015625 C 51.761719 68.996094 52.027344 69.539062 52.132812 69.824219 C 52.257812 70.152344 52.386719 70.617188 52.679688 71.753906 C 52.816406 72.289062 52.992188 72.902344 53.074219 73.117188 C 53.214844 73.480469 53.226562 73.542969 53.261719 74.0625 C 53.285156 74.394531 53.289062 74.855469 53.273438 75.21875 L 53.246094 75.816406 L 52.09375 75.816406 Z M 53.859375 75.757812 C 53.859375 75.722656 53.898438 75.105469 53.945312 74.382812 C 54.324219 68.742188 54.410156 66.941406 54.460938 63.242188 C 54.496094 60.832031 54.519531 60.398438 54.644531 59.871094 C 54.832031 59.070312 55.125 58.722656 56.597656 57.5625 C 57.410156 56.921875 57.929688 56.492188 59.265625 55.375 C 61.023438 53.898438 62.007812 53.117188 62.820312 52.546875 L 63.113281 52.335938 L 63.09375 52.621094 C 63.082031 52.773438 63.046875 53.226562 63.015625 53.621094 C 62.949219 54.480469 62.886719 54.929688 62.765625 55.429688 C 62.671875 55.816406 62.460938 56.308594 62.316406 56.472656 C 62.269531 56.527344 61.867188 56.855469 61.417969 57.207031 C 60.394531 58.003906 59.882812 58.433594 59.574219 58.757812 L 59.328125 59.011719 L 59.398438 59.128906 C 59.4375 59.191406 59.519531 59.34375 59.585938 59.460938 C 59.773438 59.800781 60.117188 60.390625 60.761719 61.453125 C 61.429688 62.566406 61.589844 62.863281 61.664062 63.160156 C 61.746094 63.464844 61.734375 63.769531 61.59375 64.855469 C 61.527344 65.398438 61.320312 67.136719 61.132812 68.722656 C 60.765625 71.847656 60.308594 75.605469 60.277344 75.738281 L 60.261719 75.816406 L 57.058594 75.816406 C 54.03125 75.816406 53.859375 75.8125 53.859375 75.757812 Z M 60.828125 75.785156 C 60.828125 75.765625 61.027344 74.082031 61.273438 72.046875 C 61.519531 70.011719 61.769531 67.847656 61.824219 67.234375 C 62.027344 65.113281 62.167969 64.292969 62.464844 63.4375 C 62.652344 62.921875 62.789062 62.675781 63.535156 61.574219 C 65.191406 59.117188 65.988281 57.871094 65.988281 57.734375 C 65.988281 57.710938 65.390625 57.359375 64.660156 56.957031 C 63.929688 56.546875 63.300781 56.191406 63.265625 56.167969 C 63.199219 56.121094 63.207031 56.0625 63.425781 54.125 L 63.65625 52.136719 L 67.089844 53.878906 C 68.980469 54.835938 70.53125 55.625 70.539062 55.632812 C 70.546875 55.640625 70.535156 55.867188 70.511719 56.136719 C 70.425781 57.070312 70.085938 58.929688 69.421875 62.058594 C 69.03125 63.878906 68.980469 64.152344 68.355469 67.539062 C 68.074219 69.066406 67.699219 71.050781 67.523438 71.949219 C 67.351562 72.84375 67.113281 74.082031 67 74.699219 L 66.792969 75.816406 L 63.8125 75.816406 C 61.972656 75.816406 60.828125 75.804688 60.828125 75.785156 Z M 17.984375 74.285156 C 17.957031 74.238281 9.851562 48.792969 9.859375 48.785156 C 9.929688 48.730469 11.003906 48.1875 11.011719 48.203125 C 11.035156 48.222656 18.785156 73.785156 18.773438 73.796875 C 18.476562 74.007812 18 74.304688 17.984375 74.285156 Z M 16.828125 73.003906 C 16.257812 72.367188 15.335938 71.292969 15.007812 70.878906 C 14.65625 70.4375 14.453125 69.960938 13.910156 68.273438 C 13.089844 65.738281 12.734375 64.683594 11.882812 62.238281 C 11.371094 60.769531 10.785156 59.078125 10.582031 58.476562 C 10.378906 57.875 9.996094 56.777344 9.730469 56.039062 C 8.925781 53.824219 8.484375 52.460938 8.21875 51.382812 C 7.992188 50.453125 7.933594 50.023438 7.894531 49.046875 C 7.859375 48.050781 7.78125 47.503906 7.617188 47.046875 C 7.480469 46.671875 7.371094 46.480469 6.925781 45.808594 C 6.367188 44.96875 5.753906 43.96875 5.574219 43.601562 C 5.484375 43.414062 5.277344 42.878906 5.121094 42.40625 C 4.960938 41.933594 4.789062 41.453125 4.734375 41.335938 C 4.652344 41.167969 4.644531 41.125 4.683594 41.089844 C 4.710938 41.070312 4.734375 41.058594 4.742188 41.066406 C 4.746094 41.074219 4.796875 41.167969 4.851562 41.277344 C 4.957031 41.480469 5.175781 41.839844 6.238281 43.5625 C 6.589844 44.128906 7.21875 45.15625 7.636719 45.84375 C 8.0625 46.535156 8.566406 47.355469 8.761719 47.671875 C 9.578125 48.972656 9.992188 50.085938 11.292969 54.425781 C 11.523438 55.1875 11.867188 56.289062 12.058594 56.882812 C 12.25 57.472656 12.769531 59.109375 13.214844 60.519531 C 14.007812 63.046875 14.265625 63.828125 15.925781 68.8125 C 16.394531 70.214844 16.863281 71.648438 16.964844 72 C 17.199219 72.789062 17.367188 73.449219 17.351562 73.523438 C 17.34375 73.558594 17.132812 73.34375 16.828125 73.003906 Z M 18.128906 70.269531 C 17.621094 68.582031 17.207031 67.191406 17.203125 67.175781 C 17.199219 67.160156 18.976562 65.914062 21.148438 64.402344 C 23.90625 62.488281 25.101562 61.675781 25.109375 61.714844 C 25.113281 61.742188 25.414062 63.175781 25.773438 64.894531 C 26.273438 67.304688 26.417969 68.035156 26.382812 68.066406 C 26.328125 68.125 19.132812 73.3125 19.085938 73.332031 C 19.0625 73.339844 18.640625 71.980469 18.128906 70.269531 Z M 53.234375 72.046875 C 52.933594 71.59375 52.519531 70.226562 52.425781 69.34375 L 52.40625 69.1875 L 52.5625 69.1875 C 52.707031 69.1875 52.71875 69.183594 52.71875 69.101562 C 52.71875 69.023438 52.746094 69.011719 53.109375 68.921875 C 53.328125 68.867188 53.507812 68.828125 53.511719 68.835938 C 53.519531 68.839844 53.5 69.4375 53.464844 70.15625 C 53.429688 70.875 53.414062 71.636719 53.421875 71.851562 C 53.433594 72.121094 53.425781 72.234375 53.402344 72.234375 C 53.382812 72.234375 53.304688 72.148438 53.234375 72.046875 Z M 13.777344 69.484375 C 13.660156 69.332031 13.351562 68.976562 13.085938 68.695312 C 11.300781 66.769531 11.375 66.894531 10.515625 64.328125 C 10.292969 63.660156 9.96875 62.746094 9.789062 62.292969 C 9.382812 61.25 9.019531 60.238281 8.253906 58.011719 C 7.914062 57.035156 7.363281 55.488281 7.027344 54.570312 C 6.6875 53.652344 6.027344 51.824219 5.554688 50.503906 C 5.085938 49.183594 4.492188 47.53125 4.234375 46.832031 C 3.652344 45.257812 3.425781 44.628906 3.015625 43.460938 C 2.84375 42.960938 2.597656 42.304688 2.472656 42.011719 C 2.085938 41.09375 2.050781 40.792969 2.324219 40.5 C 2.582031 40.214844 3.601562 39.414062 3.695312 39.414062 C 3.710938 39.414062 4.988281 43.074219 5.078125 43.371094 C 5.078125 43.394531 4.910156 43.539062 4.691406 43.695312 C 4.476562 43.851562 4.28125 44 4.261719 44.023438 C 4.175781 44.128906 4.9375 45.78125 6.390625 48.648438 C 7.757812 51.335938 7.882812 51.628906 8.769531 54.230469 C 8.96875 54.820312 9.339844 55.871094 9.585938 56.558594 C 9.835938 57.25 10.335938 58.714844 10.695312 59.820312 C 11.058594 60.921875 11.5 62.21875 11.675781 62.703125 C 11.851562 63.1875 12.214844 64.234375 12.484375 65.03125 C 12.753906 65.832031 13.140625 66.921875 13.347656 67.449219 C 13.738281 68.457031 13.96875 69.097656 14.070312 69.449219 C 14.117188 69.617188 14.117188 69.667969 14.085938 69.707031 C 14.0625 69.738281 14.03125 69.761719 14.015625 69.761719 C 14 69.761719 13.894531 69.636719 13.777344 69.484375 Z M 52.511719 68.609375 L 52.410156 68.460938 L 52.480469 68.261719 C 52.515625 68.148438 52.574219 67.992188 52.601562 67.90625 C 52.636719 67.804688 52.691406 67.738281 52.753906 67.703125 C 52.871094 67.640625 52.933594 67.632812 52.933594 67.683594 C 52.933594 67.816406 53.105469 68.144531 53.246094 68.277344 L 53.410156 68.4375 L 53.226562 68.4375 C 53.0625 68.4375 53.023438 68.453125 52.851562 68.597656 C 52.742188 68.6875 52.644531 68.757812 52.632812 68.757812 C 52.625 68.757812 52.570312 68.691406 52.511719 68.609375 Z M 51.871094 68.304688 C 51.851562 68.230469 51.804688 68.046875 51.765625 67.894531 L 51.699219 67.625 L 51.988281 67.570312 C 52.148438 67.539062 52.277344 67.515625 52.277344 67.519531 C 52.28125 67.519531 52.238281 67.695312 52.1875 67.910156 C 52.058594 68.414062 51.9375 68.566406 51.871094 68.304688 Z M 53.296875 67.875 C 53.253906 67.796875 53.207031 67.539062 53.230469 67.539062 C 53.25 67.539062 53.59375 67.742188 53.640625 67.78125 C 53.648438 67.785156 53.625 67.824219 53.589844 67.863281 C 53.507812 67.953125 53.339844 67.957031 53.296875 67.875 Z M 16.925781 66.441406 L 16.835938 65.992188 L 17.179688 65.765625 C 17.367188 65.644531 17.929688 65.277344 18.425781 64.945312 L 19.335938 64.351562 L 19.617188 64.351562 C 19.90625 64.351562 19.90625 64.351562 20.210938 64.160156 C 20.621094 63.898438 21.152344 63.59375 21.804688 63.242188 C 22.492188 62.875 22.675781 62.738281 22.964844 62.367188 C 23.210938 62.046875 23.375 61.933594 23.714844 61.832031 C 23.890625 61.777344 23.898438 61.777344 23.914062 61.847656 C 23.929688 61.898438 23.914062 61.929688 23.859375 61.949219 C 23.816406 61.964844 23.679688 62.015625 23.558594 62.058594 C 23.4375 62.101562 23.335938 62.148438 23.335938 62.164062 C 23.335938 62.171875 23.398438 62.222656 23.476562 62.273438 L 23.613281 62.363281 L 20.777344 64.304688 C 19.21875 65.371094 17.738281 66.390625 17.480469 66.570312 L 17.015625 66.886719 Z M 16.546875 65.335938 C 16.476562 65.109375 16.433594 64.914062 16.445312 64.902344 C 16.472656 64.875 17.550781 65.070312 17.597656 65.117188 C 17.628906 65.148438 17.53125 65.230469 17.183594 65.457031 C 16.929688 65.617188 16.707031 65.75 16.691406 65.75 C 16.675781 65.75 16.609375 65.5625 16.546875 65.335938 Z M 26.21875 65.28125 L 26.21875 64.871094 L 27.058594 64.679688 C 27.519531 64.578125 27.90625 64.5 27.914062 64.507812 C 27.9375 64.535156 27.652344 65.085938 27.546875 65.207031 C 27.417969 65.367188 27.296875 65.417969 26.980469 65.464844 C 26.75 65.5 26.519531 65.5625 26.28125 65.660156 C 26.222656 65.683594 26.21875 65.652344 26.21875 65.28125 Z M 17.625 64.761719 C 17.160156 64.617188 16.785156 64.527344 16.507812 64.480469 L 16.246094 64.4375 L 16.109375 63.957031 C 16.03125 63.691406 15.972656 63.457031 15.972656 63.4375 C 15.972656 63.417969 16.253906 63.363281 16.625 63.316406 L 17.28125 63.230469 L 17.40625 63.328125 C 17.476562 63.378906 17.636719 63.542969 17.761719 63.683594 C 18.03125 63.988281 18.265625 64.128906 18.636719 64.207031 L 18.894531 64.265625 L 18.683594 64.464844 C 18.449219 64.679688 18.144531 64.851562 18.003906 64.851562 C 17.949219 64.851562 17.78125 64.808594 17.625 64.761719 Z M 17.625 64.761719 "
    />
    <path
      d="M 19.226562 63.851562 C 19.246094 63.792969 19.210938 63.765625 19.007812 63.671875 C 18.875 63.609375 18.738281 63.566406 18.710938 63.578125 C 18.683594 63.585938 18.578125 63.628906 18.472656 63.667969 L 18.289062 63.742188 L 18.046875 63.558594 C 17.914062 63.460938 17.515625 63.085938 17.164062 62.726562 C 16.488281 62.039062 16.210938 61.820312 15.628906 61.523438 L 15.335938 61.378906 L 15.191406 60.90625 C 15.109375 60.644531 15.019531 60.355469 14.992188 60.269531 C 14.925781 60.0625 14.925781 60.027344 15.007812 60.003906 C 15.074219 59.992188 15.074219 59.976562 14.984375 59.679688 C 14.894531 59.390625 14.878906 59.367188 14.796875 59.378906 C 14.714844 59.390625 14.703125 59.363281 14.328125 58.097656 C 14.117188 57.390625 13.945312 56.804688 13.945312 56.800781 C 13.945312 56.796875 13.964844 56.800781 13.996094 56.8125 C 14.023438 56.824219 14.238281 56.78125 14.472656 56.714844 C 14.972656 56.582031 14.964844 56.609375 14.601562 56.21875 C 14.253906 55.84375 14.214844 55.75 14.214844 55.214844 C 14.210938 54.660156 14.261719 54.503906 14.515625 54.269531 C 14.808594 54.003906 15.277344 53.863281 15.757812 53.898438 C 16.277344 53.9375 16.539062 54.097656 16.726562 54.492188 C 16.824219 54.695312 16.839844 54.769531 16.839844 55 C 16.839844 55.292969 16.796875 55.410156 16.589844 55.671875 C 16.453125 55.84375 16.070312 56.105469 15.769531 56.238281 C 15.65625 56.289062 15.558594 56.335938 15.550781 56.34375 C 15.546875 56.351562 15.566406 56.488281 15.597656 56.648438 C 15.628906 56.808594 15.652344 56.945312 15.644531 56.953125 C 15.636719 56.957031 15.589844 56.984375 15.527344 57.015625 L 15.421875 57.070312 L 16.078125 57.394531 C 16.734375 57.710938 16.742188 57.714844 17.050781 58.039062 C 17.234375 58.226562 17.40625 58.371094 17.460938 58.386719 C 17.511719 58.398438 17.585938 58.433594 17.625 58.460938 C 17.695312 58.511719 17.695312 58.519531 17.632812 58.550781 C 17.585938 58.574219 17.582031 58.601562 17.605469 58.628906 C 17.621094 58.65625 17.703125 58.847656 17.785156 59.058594 C 17.867188 59.269531 17.945312 59.441406 17.964844 59.441406 C 18.050781 59.441406 18.089844 59.632812 18.105469 60.125 C 18.128906 60.621094 18.132812 60.652344 18.246094 60.875 C 18.398438 61.175781 18.855469 62.023438 18.867188 62.023438 C 18.875 62.023438 19.058594 62.0625 19.28125 62.113281 C 19.5 62.164062 19.726562 62.203125 19.777344 62.203125 C 19.929688 62.203125 20.28125 62.066406 20.582031 61.894531 C 21.214844 61.523438 21.371094 61.472656 22.015625 61.414062 L 22.417969 61.382812 L 22.847656 61.113281 L 23.277344 60.847656 L 23.515625 60.964844 C 23.828125 61.125 23.847656 61.199219 23.652344 61.398438 C 23.570312 61.480469 23.371094 61.617188 23.203125 61.703125 C 23.039062 61.785156 22.855469 61.894531 22.796875 61.941406 C 22.683594 62.039062 22.621094 62.222656 22.644531 62.390625 L 22.664062 62.507812 L 21.332031 63.214844 L 20.003906 63.921875 L 19.605469 63.921875 C 19.222656 63.921875 19.207031 63.917969 19.226562 63.851562 Z M 61.972656 63.097656 C 61.933594 63.011719 61.90625 62.929688 61.917969 62.914062 C 61.925781 62.902344 61.984375 62.878906 62.042969 62.863281 C 62.105469 62.851562 62.15625 62.820312 62.167969 62.796875 C 62.1875 62.742188 62.097656 62.476562 62.054688 62.464844 C 62.035156 62.457031 61.984375 62.511719 61.9375 62.578125 C 61.890625 62.644531 61.839844 62.703125 61.828125 62.703125 C 61.816406 62.703125 61.78125 62.636719 61.75 62.550781 L 61.695312 62.398438 L 61.828125 62.410156 C 61.988281 62.425781 61.992188 62.410156 61.898438 62.1875 L 61.828125 62.023438 L 63.269531 59.808594 C 64.0625 58.59375 64.730469 57.578125 64.757812 57.554688 C 64.789062 57.519531 64.878906 57.535156 65.1875 57.636719 C 65.40625 57.707031 65.59375 57.78125 65.609375 57.792969 C 65.625 57.808594 64.828125 59.046875 63.839844 60.539062 L 62.042969 63.253906 Z M 15.691406 62.65625 C 15.667969 62.574219 15.652344 62.367188 15.660156 62.191406 L 15.671875 61.878906 L 15.882812 61.984375 C 16.132812 62.101562 16.367188 62.300781 16.535156 62.539062 L 16.652344 62.703125 L 16.292969 62.703125 C 16.046875 62.703125 15.902344 62.722656 15.832031 62.757812 L 15.730469 62.808594 Z M 25.398438 61.863281 C 25.398438 61.582031 25.351562 61.445312 25.1875 61.214844 C 24.96875 60.914062 24.960938 60.933594 25.289062 60.960938 C 25.496094 60.980469 25.636719 61.011719 25.757812 61.074219 C 25.921875 61.160156 25.933594 61.171875 25.933594 61.300781 C 25.933594 61.605469 25.785156 61.890625 25.5625 62.027344 C 25.503906 62.0625 25.441406 62.09375 25.425781 62.09375 C 25.410156 62.09375 25.398438 61.992188 25.398438 61.863281 Z M 25.398438 61.863281 "
    />
    <path
      d="M 19.890625 61.726562 C 19.78125 61.449219 19.617188 61.128906 19.503906 60.988281 C 19.433594 60.898438 19.375 60.820312 19.371094 60.816406 C 19.371094 60.8125 19.308594 60.824219 19.238281 60.835938 L 19.105469 60.867188 L 19.085938 60.726562 C 19.070312 60.652344 19.019531 60.539062 18.976562 60.484375 C 18.875 60.367188 18.867188 60.3125 18.9375 60.234375 C 18.984375 60.183594 18.960938 60.105469 18.75 59.605469 C 18.589844 59.222656 18.492188 59.027344 18.453125 59.019531 C 18.414062 59.011719 18.390625 58.972656 18.390625 58.914062 C 18.390625 58.824219 18.449219 58.789062 19.078125 58.460938 C 19.453125 58.269531 19.90625 58.019531 20.082031 57.917969 C 20.519531 57.65625 20.648438 57.617188 21.175781 57.578125 C 21.425781 57.558594 21.699219 57.53125 21.789062 57.507812 C 21.929688 57.476562 21.96875 57.484375 22.148438 57.570312 C 22.324219 57.660156 22.34375 57.679688 22.332031 57.765625 C 22.320312 57.835938 22.347656 57.898438 22.433594 58 C 22.496094 58.074219 22.578125 58.207031 22.609375 58.296875 C 22.714844 58.578125 23.046875 59.203125 23.230469 59.449219 C 23.347656 59.613281 23.515625 59.773438 23.742188 59.945312 C 24.164062 60.261719 24.390625 60.515625 24.441406 60.71875 C 24.46875 60.808594 24.515625 60.894531 24.5625 60.925781 C 24.648438 60.984375 24.84375 61.273438 24.878906 61.402344 C 24.902344 61.472656 24.871094 61.5 24.621094 61.628906 C 24.464844 61.707031 24.320312 61.773438 24.308594 61.773438 C 24.289062 61.773438 24.234375 61.703125 24.1875 61.625 C 24.09375 61.480469 24.09375 61.46875 24.136719 61.292969 C 24.164062 61.191406 24.191406 61.078125 24.207031 61.035156 C 24.226562 60.976562 24.167969 60.90625 23.910156 60.664062 L 23.585938 60.371094 L 23.042969 60.394531 C 22.746094 60.40625 22.472656 60.433594 22.4375 60.453125 C 22.386719 60.476562 22.378906 60.515625 22.398438 60.632812 C 22.421875 60.777344 22.417969 60.78125 22.335938 60.757812 C 22.070312 60.683594 21.996094 60.691406 21.820312 60.789062 C 21.722656 60.847656 21.644531 60.90625 21.636719 60.917969 C 21.628906 60.933594 21.601562 60.949219 21.574219 60.949219 C 21.546875 60.949219 21.363281 61.039062 21.164062 61.144531 C 20.882812 61.300781 20.773438 61.34375 20.648438 61.34375 L 20.488281 61.34375 L 20.511719 61.46875 C 20.523438 61.535156 20.527344 61.59375 20.515625 61.59375 C 20.503906 61.59375 20.367188 61.640625 20.207031 61.699219 L 19.917969 61.808594 Z M 86.824219 59.347656 C 86.496094 59.300781 86.441406 59.28125 86.460938 59.230469 C 86.472656 59.199219 88.375 53.394531 90.683594 46.328125 C 92.992188 39.261719 94.890625 33.472656 94.90625 33.460938 C 94.929688 33.433594 96.097656 33.652344 96.101562 33.6875 C 96.101562 33.699219 94.121094 39.492188 91.707031 46.558594 C 88.425781 56.164062 87.300781 59.402344 87.261719 59.402344 C 87.230469 59.398438 87.03125 59.375 86.824219 59.347656 Z M 54.523438 58.34375 C 54.476562 57.640625 54.5 57.453125 54.664062 57.257812 C 54.714844 57.191406 54.941406 57.015625 55.171875 56.851562 C 55.398438 56.691406 55.8125 56.371094 56.097656 56.148438 C 56.382812 55.917969 56.855469 55.539062 57.148438 55.304688 C 57.445312 55.070312 58.136719 54.5 58.695312 54.03125 C 61.054688 52.066406 62.648438 50.808594 62.785156 50.808594 C 62.796875 50.808594 62.902344 51.039062 63.011719 51.320312 C 63.171875 51.726562 63.203125 51.835938 63.167969 51.863281 C 63.140625 51.886719 61.195312 53.425781 58.84375 55.296875 C 56.492188 57.164062 54.566406 58.691406 54.558594 58.691406 C 54.550781 58.691406 54.535156 58.53125 54.523438 58.34375 Z M 17.425781 57.941406 C 17.027344 57.550781 16.707031 57.222656 16.71875 57.214844 C 16.730469 57.203125 17.144531 57.015625 17.644531 56.792969 L 18.550781 56.382812 L 18.835938 56.074219 C 18.992188 55.90625 19.125 55.777344 19.128906 55.789062 C 19.136719 55.800781 19.261719 56.25 19.414062 56.796875 L 19.691406 57.789062 L 18.945312 58.222656 C 18.535156 58.460938 18.183594 58.65625 18.175781 58.65625 C 18.164062 58.65625 17.828125 58.335938 17.425781 57.941406 Z M 81.960938 57.652344 C 79.820312 57.199219 78.03125 56.832031 77.988281 56.832031 C 77.941406 56.828125 77.90625 56.804688 77.90625 56.785156 C 77.90625 56.757812 78.242188 55.308594 78.660156 53.5625 L 79.410156 50.386719 L 83.753906 51.265625 C 86.144531 51.75 88.101562 52.148438 88.105469 52.152344 C 88.109375 52.15625 87.644531 53.578125 87.074219 55.316406 C 86.0625 58.390625 86.03125 58.472656 85.945312 58.472656 C 85.894531 58.46875 84.101562 58.097656 81.960938 57.652344 Z M 16.449219 56.921875 L 16.335938 56.769531 L 16.566406 56.625 C 16.855469 56.453125 16.929688 56.359375 16.953125 56.128906 L 16.976562 55.949219 L 17.382812 55.734375 C 17.609375 55.617188 17.804688 55.515625 17.820312 55.507812 C 17.84375 55.5 17.730469 56.117188 17.703125 56.128906 C 17.703125 56.132812 17.539062 56.203125 17.34375 56.289062 C 17.144531 56.375 16.984375 56.449219 16.976562 56.453125 C 16.96875 56.457031 16.988281 56.523438 17.019531 56.59375 C 17.050781 56.667969 17.074219 56.734375 17.074219 56.738281 C 17.074219 56.746094 16.988281 56.800781 16.890625 56.867188 C 16.785156 56.925781 16.667969 57.003906 16.628906 57.027344 C 16.566406 57.066406 16.546875 57.058594 16.449219 56.921875 Z M 16.449219 56.921875 "
    />
    <path
      d="M 75.359375 55.398438 C 75.214844 55.332031 74.886719 55.023438 74.941406 55.011719 C 74.957031 55.007812 75.273438 54.953125 75.644531 54.890625 C 76.011719 54.832031 76.34375 54.761719 76.371094 54.742188 C 76.402344 54.71875 76.496094 54.636719 76.578125 54.5625 C 76.664062 54.488281 76.746094 54.425781 76.761719 54.425781 C 76.78125 54.425781 76.804688 54.488281 76.820312 54.5625 C 76.855469 54.792969 76.878906 54.804688 77.042969 54.695312 L 77.191406 54.597656 L 77.0625 54.394531 C 76.988281 54.285156 76.890625 54.121094 76.847656 54.035156 C 76.78125 53.902344 76.71875 53.851562 76.519531 53.742188 C 76.171875 53.558594 76.160156 53.550781 76.160156 53.34375 C 76.160156 53.203125 76.222656 53.015625 76.449219 52.453125 L 76.742188 51.734375 L 76.664062 51.652344 C 76.5625 51.550781 76.566406 51.46875 76.679688 51.320312 C 76.738281 51.246094 76.785156 51.125 76.800781 50.992188 C 76.820312 50.882812 76.996094 50.171875 77.195312 49.410156 C 77.550781 48.050781 77.757812 46.988281 77.707031 46.78125 C 77.6875 46.703125 77.792969 46.664062 78.707031 46.410156 C 79.007812 46.328125 79.703125 46.359375 81.398438 46.515625 C 81.902344 46.5625 82.265625 46.609375 82.253906 46.628906 C 82.21875 46.6875 82.671875 46.625 82.738281 46.566406 C 82.863281 46.453125 83.171875 46.527344 83.160156 46.664062 C 83.152344 46.71875 83.183594 46.746094 83.300781 46.773438 C 83.382812 46.792969 83.46875 46.832031 83.488281 46.847656 C 83.570312 46.929688 83.703125 47.378906 83.703125 47.5625 C 83.703125 47.667969 83.71875 47.761719 83.730469 47.769531 C 83.75 47.777344 83.96875 48.050781 84.21875 48.386719 L 84.679688 48.992188 L 83.984375 48.96875 C 83.605469 48.957031 82.949219 48.929688 82.53125 48.910156 C 82.03125 48.886719 81.761719 48.886719 81.746094 48.910156 C 81.714844 48.960938 79.648438 48.964844 79.613281 48.914062 C 79.59375 48.878906 79.523438 48.894531 79.355469 48.960938 L 79.121094 49.054688 L 79.171875 49.21875 C 79.207031 49.34375 79.210938 49.394531 79.183594 49.414062 C 79.148438 49.433594 79.152344 49.710938 79.1875 49.898438 C 79.207031 49.984375 78.882812 51.523438 78.847656 51.523438 C 78.828125 51.523438 78.78125 51.644531 78.746094 51.785156 C 78.589844 52.410156 78.25 53.867188 78.171875 54.230469 C 78.121094 54.449219 78.074219 54.660156 78.066406 54.707031 C 78.046875 54.769531 78.03125 54.78125 77.953125 54.761719 C 77.871094 54.742188 77.867188 54.746094 77.90625 54.808594 C 77.941406 54.867188 77.933594 54.910156 77.847656 55.078125 L 77.746094 55.28125 L 77.394531 55.066406 C 77.203125 54.953125 77.03125 54.855469 77.011719 54.855469 C 76.988281 54.855469 76.980469 54.890625 76.992188 54.9375 C 77.003906 54.980469 77.023438 55.082031 77.035156 55.160156 L 77.058594 55.304688 L 76.511719 55.386719 C 75.847656 55.484375 75.558594 55.488281 75.359375 55.398438 Z M 70.125 55.140625 C 69.882812 55.046875 68.953125 54.566406 67.941406 54.015625 C 66.65625 53.308594 65.066406 52.460938 64.398438 52.121094 C 63.699219 51.765625 63.605469 51.679688 63.355469 51.199219 C 63.214844 50.921875 63.210938 50.90625 63.289062 50.933594 C 63.535156 51.003906 65.726562 52.164062 66.71875 52.734375 C 67.644531 53.277344 68.085938 53.515625 68.929688 53.933594 C 69.886719 54.40625 69.910156 54.417969 70.179688 54.910156 C 70.265625 55.0625 70.328125 55.191406 70.320312 55.195312 C 70.3125 55.203125 70.226562 55.175781 70.125 55.140625 Z M 85.660156 51.347656 L 83.402344 50.894531 L 84.363281 50.894531 L 85.320312 50.898438 L 85.5625 50.796875 L 85.804688 50.699219 L 85.890625 50.804688 C 86.0625 51.003906 86.523438 51.148438 87.46875 51.289062 C 88.335938 51.421875 88.292969 51.410156 88.292969 51.527344 C 88.292969 51.621094 88.277344 51.632812 88.1875 51.632812 C 88.097656 51.632812 88.078125 51.644531 88.078125 51.722656 C 88.078125 51.789062 88.0625 51.8125 88 51.808594 C 87.953125 51.808594 86.902344 51.601562 85.660156 51.347656 Z M 88.292969 50.976562 C 88.292969 50.515625 89.078125 48 91.136719 41.886719 C 91.425781 41.007812 91.890625 39.550781 92.167969 38.644531 C 92.925781 36.140625 93.210938 35.3125 93.722656 34.207031 C 94.3125 32.933594 94.453125 32.585938 94.765625 31.621094 C 95.234375 30.1875 95.195312 30.269531 95.175781 30.632812 C 95.152344 31.105469 95.027344 31.757812 94.785156 32.730469 C 94.394531 34.292969 93.84375 36.023438 92.605469 39.59375 C 92.25 40.605469 91.664062 42.367188 91.296875 43.5 C 90.9375 44.628906 90.339844 46.453125 89.980469 47.546875 C 89.621094 48.640625 89.269531 49.742188 89.199219 49.996094 C 89.011719 50.683594 88.871094 50.910156 88.570312 51.039062 C 88.355469 51.128906 88.292969 51.117188 88.292969 50.976562 Z M 87.566406 50.210938 C 87.582031 49.820312 87.601562 49.429688 87.613281 49.34375 L 87.632812 49.183594 L 87.769531 49.386719 C 87.839844 49.5 87.914062 49.589844 87.9375 49.589844 C 87.953125 49.589844 87.980469 49.527344 87.992188 49.457031 C 88.148438 48.550781 88.71875 46.046875 88.824219 45.8125 C 88.886719 45.667969 88.90625 45.648438 88.984375 45.667969 C 89.0625 45.691406 89.074219 45.675781 89.144531 45.445312 C 89.183594 45.3125 89.28125 44.882812 89.359375 44.492188 C 89.527344 43.671875 89.6875 43.136719 91.15625 38.519531 C 91.796875 36.5 91.921875 36.101562 92.648438 33.734375 C 93.007812 32.550781 93.441406 31.160156 93.609375 30.636719 C 93.777344 30.113281 94.074219 29.128906 94.265625 28.449219 C 94.78125 26.636719 95.078125 25.875 95.53125 25.164062 C 95.730469 24.855469 96.269531 24.273438 96.429688 24.1875 C 96.511719 24.144531 96.515625 24.144531 96.492188 24.265625 C 96.40625 24.660156 95.421875 27.601562 95.316406 27.757812 C 95.238281 27.878906 95.121094 27.976562 94.921875 28.089844 C 94.695312 28.21875 94.539062 28.40625 94.441406 28.664062 C 94.335938 28.945312 93.960938 30.445312 92.59375 36.027344 C 92.011719 38.429688 91.699219 39.453125 90.570312 42.800781 C 90.21875 43.847656 89.761719 45.238281 89.554688 45.898438 C 89.351562 46.558594 88.984375 47.6875 88.734375 48.40625 C 88.261719 49.785156 88.140625 50.179688 88.097656 50.476562 C 88.082031 50.582031 88.054688 50.675781 88.03125 50.691406 C 87.996094 50.710938 87.859375 50.574219 87.820312 50.476562 C 87.789062 50.394531 87.734375 50.515625 87.707031 50.726562 C 87.6875 50.882812 87.671875 50.914062 87.613281 50.914062 C 87.542969 50.914062 87.542969 50.898438 87.566406 50.210938 Z M 86.792969 50.734375 C 86.617188 50.703125 86.472656 50.667969 86.460938 50.660156 C 86.453125 50.648438 86.632812 50.519531 86.855469 50.363281 C 87.136719 50.171875 87.261719 50.105469 87.25 50.148438 C 87.238281 50.1875 87.210938 50.339844 87.1875 50.484375 C 87.160156 50.632812 87.132812 50.765625 87.121094 50.777344 C 87.113281 50.789062 86.960938 50.773438 86.792969 50.734375 Z M 86.792969 50.734375 "
    />
    <path
      d="M 76.074219 50.664062 C 76.035156 50.648438 75.964844 50.601562 75.921875 50.550781 C 75.84375 50.464844 75.71875 50.199219 75.757812 50.199219 C 75.785156 50.199219 76.746094 50.492188 76.757812 50.507812 C 76.765625 50.511719 76.746094 50.558594 76.707031 50.605469 C 76.648438 50.691406 76.621094 50.695312 76.394531 50.695312 C 76.257812 50.695312 76.113281 50.683594 76.074219 50.664062 Z M 83.597656 50.484375 C 83.273438 50.449219 82.871094 50.417969 82.699219 50.417969 C 82.53125 50.414062 82.3125 50.394531 82.214844 50.375 C 82.085938 50.347656 81.996094 50.347656 81.882812 50.378906 L 81.730469 50.421875 L 81.425781 50.078125 L 81.113281 50.230469 L 80.800781 50.386719 L 80.171875 50.195312 C 79.824219 50.085938 79.542969 49.988281 79.542969 49.972656 C 79.542969 49.957031 79.625 49.800781 79.726562 49.625 L 79.914062 49.304688 L 80.074219 49.304688 C 80.164062 49.304688 81.269531 49.300781 82.539062 49.292969 C 83.847656 49.28125 84.84375 49.289062 84.84375 49.304688 C 84.84375 49.359375 84.957031 49.34375 85.199219 49.253906 C 85.359375 49.191406 85.429688 49.148438 85.425781 49.109375 C 85.421875 49.074219 85.445312 49.050781 85.484375 49.050781 C 85.523438 49.050781 85.554688 49.042969 85.554688 49.03125 C 85.554688 49.019531 85.457031 48.453125 85.335938 47.773438 C 85.21875 47.09375 85.128906 46.511719 85.140625 46.484375 C 85.160156 46.445312 85.132812 46.4375 85.027344 46.457031 C 84.957031 46.472656 84.886719 46.488281 84.882812 46.492188 C 84.875 46.5 84.910156 46.660156 84.960938 46.847656 C 85.011719 47.035156 85.054688 47.273438 85.054688 47.382812 C 85.054688 47.546875 85.066406 47.582031 85.125 47.601562 C 85.207031 47.625 85.210938 47.648438 85.15625 48.039062 C 85.117188 48.3125 85.105469 48.335938 85.039062 48.3125 C 84.683594 48.207031 84.351562 47.734375 84.167969 47.089844 C 84.089844 46.804688 84.097656 46.765625 84.226562 46.585938 C 84.339844 46.433594 84.46875 46.117188 84.710938 45.378906 C 84.847656 44.964844 84.980469 44.652344 85.121094 44.394531 C 85.238281 44.1875 85.324219 44.011719 85.320312 44.003906 C 85.3125 43.996094 85.265625 44.019531 85.21875 44.050781 C 85.167969 44.082031 85.121094 44.109375 85.113281 44.109375 C 85.101562 44.109375 85.171875 43.933594 85.269531 43.722656 L 85.441406 43.335938 L 85.605469 43.320312 C 85.695312 43.308594 85.824219 43.304688 85.890625 43.3125 C 85.996094 43.328125 86.015625 43.339844 85.996094 43.394531 C 85.980469 43.441406 86.015625 43.488281 86.125 43.570312 C 86.285156 43.683594 86.355469 43.703125 86.378906 43.632812 C 86.390625 43.601562 86.550781 43.589844 87 43.601562 C 87.519531 43.609375 87.628906 43.601562 87.742188 43.546875 C 87.8125 43.515625 87.878906 43.464844 87.890625 43.4375 C 87.902344 43.414062 87.867188 43.277344 87.816406 43.136719 C 87.765625 43 87.722656 42.875 87.722656 42.863281 C 87.722656 42.835938 87.984375 42.890625 88.03125 42.933594 C 88.054688 42.949219 88.164062 43.121094 88.273438 43.316406 C 88.421875 43.582031 88.503906 43.777344 88.585938 44.097656 L 88.707031 44.527344 L 88.554688 44.691406 C 88.414062 44.851562 88.40625 44.867188 88.355469 45.242188 C 88.328125 45.453125 88.320312 45.660156 88.335938 45.691406 C 88.386719 45.796875 88.367188 46.058594 88.296875 46.261719 C 88.207031 46.527344 88.074219 46.78125 87.8125 47.207031 C 87.601562 47.546875 87.589844 47.578125 87.550781 47.90625 L 87.507812 48.246094 L 87.074219 49 C 86.839844 49.410156 86.558594 49.890625 86.453125 50.058594 L 86.257812 50.371094 L 85.933594 50.394531 C 85.753906 50.410156 85.496094 50.441406 85.359375 50.472656 C 84.9375 50.554688 84.25 50.5625 83.597656 50.484375 Z M 6.539062 48.238281 C 5.558594 46.269531 4.882812 44.851562 4.703125 44.410156 L 4.617188 44.199219 L 4.722656 44.105469 C 4.820312 44.015625 5.121094 43.878906 5.28125 43.847656 C 5.339844 43.84375 5.550781 44.160156 6.421875 45.578125 L 7.496094 47.3125 L 7.539062 48.78125 C 7.5625 49.582031 7.574219 50.25 7.5625 50.257812 C 7.554688 50.265625 7.09375 49.359375 6.539062 48.238281 Z M 6.539062 48.238281 "
    />
    <path
      d="M 79.558594 49.234375 C 79.523438 49.175781 79.609375 49.15625 79.746094 49.191406 C 79.820312 49.214844 79.917969 49.234375 79.96875 49.246094 C 80.019531 49.253906 79.949219 49.261719 79.820312 49.261719 C 79.6875 49.261719 79.574219 49.253906 79.558594 49.234375 Z M 6.84375 43.867188 C 5.308594 41.277344 4.0625 39.144531 4.078125 39.128906 C 4.09375 39.113281 4.359375 38.976562 4.667969 38.828125 L 5.226562 38.5625 L 5.339844 38.742188 C 6.347656 40.386719 10.851562 47.835938 10.855469 47.871094 C 10.863281 47.894531 10.59375 48.0625 10.253906 48.246094 L 9.644531 48.578125 Z M 47.222656 48.402344 C 40.269531 48.097656 33.582031 46.199219 27.570312 42.816406 C 26.769531 42.367188 26.429688 42.160156 26.429688 42.125 C 26.429688 42.09375 26.980469 41.148438 27.035156 41.085938 C 27.046875 41.074219 27.363281 41.238281 27.734375 41.449219 C 34.574219 45.40625 42.347656 47.375 50.238281 47.148438 C 57.523438 46.945312 64.414062 44.976562 70.660156 41.324219 C 70.910156 41.175781 71.121094 41.0625 71.128906 41.070312 C 71.160156 41.105469 71.75 42.109375 71.75 42.128906 C 71.75 42.144531 71.394531 42.359375 70.960938 42.609375 C 65.890625 45.511719 60.472656 47.339844 54.730469 48.082031 C 52.351562 48.390625 49.59375 48.507812 47.222656 48.402344 Z M 82.761719 46.253906 C 82.429688 46.238281 81.859375 46.1875 81.496094 46.132812 C 80.933594 46.050781 80.777344 46.042969 80.371094 46.058594 C 80.03125 46.078125 79.898438 46.074219 79.898438 46.046875 C 79.898438 46.003906 80.3125 44.101562 80.34375 43.992188 C 80.363281 43.9375 80.410156 43.929688 80.660156 43.929688 C 80.824219 43.929688 80.980469 43.9375 81.015625 43.949219 C 81.042969 43.960938 81.085938 44.023438 81.105469 44.09375 C 81.132812 44.167969 81.171875 44.214844 81.207031 44.214844 C 81.238281 44.214844 81.46875 44.179688 81.71875 44.136719 L 82.171875 44.0625 L 82.359375 44.199219 C 82.460938 44.28125 82.566406 44.355469 82.585938 44.367188 C 82.605469 44.378906 83.019531 44.417969 83.511719 44.453125 C 84 44.484375 84.402344 44.515625 84.40625 44.519531 C 84.433594 44.542969 84.304688 45.230469 84.21875 45.515625 C 84.121094 45.863281 84.019531 46.089844 83.90625 46.214844 C 83.824219 46.304688 83.851562 46.300781 82.761719 46.253906 Z M 17.9375 44.25 C 17.617188 44.136719 16.722656 43.941406 15.296875 43.675781 C 13.132812 43.277344 12.453125 43.121094 12.078125 42.941406 C 11.914062 42.863281 11.863281 42.816406 11.796875 42.679688 C 11.648438 42.390625 11.433594 41.65625 10.9375 39.78125 C 10.425781 37.855469 10.265625 37.277344 10.128906 36.890625 C 10.078125 36.761719 10.050781 36.65625 10.0625 36.65625 C 10.09375 36.65625 16.699219 37.984375 16.707031 37.992188 C 16.707031 37.996094 17.035156 39.390625 17.429688 41.097656 C 17.824219 42.804688 18.15625 44.226562 18.164062 44.261719 C 18.183594 44.335938 18.175781 44.335938 17.9375 44.25 Z M 84.433594 44.070312 C 84.335938 44.054688 83.984375 44.039062 83.65625 44.039062 C 82.761719 44.035156 82.414062 43.988281 82.164062 43.839844 C 82.007812 43.742188 81.902344 43.710938 81.71875 43.695312 C 81.585938 43.683594 81.425781 43.667969 81.359375 43.65625 L 81.242188 43.636719 L 81.324219 43.546875 C 81.371094 43.496094 81.464844 43.410156 81.539062 43.355469 L 81.660156 43.25 L 82.027344 43.339844 C 82.484375 43.449219 82.753906 43.457031 82.820312 43.359375 C 82.867188 43.292969 82.957031 43.285156 84.046875 43.242188 L 85.222656 43.195312 L 85.042969 43.480469 C 84.949219 43.632812 84.820312 43.84375 84.761719 43.933594 C 84.707031 44.027344 84.644531 44.105469 84.636719 44.105469 C 84.621094 44.101562 84.53125 44.085938 84.433594 44.070312 Z M 84.433594 44.070312 "
    />
    <path
      d="M 20.917969 43.605469 C 20.402344 43.546875 20.128906 43.308594 19.957031 42.765625 L 19.914062 42.632812 L 19.730469 42.652344 C 19.628906 42.667969 19.496094 42.683594 19.4375 42.695312 L 19.324219 42.71875 L 19.265625 42.453125 C 19.238281 42.308594 19.132812 41.820312 19.03125 41.367188 C 18.933594 40.914062 18.808594 40.289062 18.75 39.980469 C 18.695312 39.667969 18.636719 39.398438 18.625 39.382812 C 18.613281 39.363281 18.40625 39.203125 18.167969 39.023438 L 17.730469 38.703125 L 17.597656 37.941406 C 17.523438 37.519531 17.460938 37.175781 17.457031 37.171875 C 17.453125 37.171875 17.378906 37.121094 17.289062 37.058594 C 17.199219 37 16.992188 36.914062 16.824219 36.871094 C 16.527344 36.789062 16.519531 36.785156 16.128906 36.414062 C 15.910156 36.214844 15.710938 36.046875 15.691406 36.046875 C 15.671875 36.046875 15.652344 36.027344 15.652344 36.011719 C 15.652344 35.960938 15.253906 35.582031 15.199219 35.578125 C 15.152344 35.578125 14.035156 35.164062 13.953125 35.117188 C 13.917969 35.101562 14.105469 35 14.484375 34.828125 C 15.386719 34.421875 15.515625 34.347656 15.902344 34.03125 C 16.488281 33.550781 16.542969 33.519531 16.542969 33.636719 C 16.542969 33.730469 16.988281 33.832031 17.246094 33.800781 C 17.445312 33.777344 17.582031 33.835938 17.625 33.964844 C 17.640625 34.015625 17.710938 34.046875 17.902344 34.089844 C 18.046875 34.121094 18.894531 34.347656 19.800781 34.585938 L 21.441406 35.023438 L 21.820312 35.445312 C 22.167969 35.832031 22.199219 35.875 22.144531 35.917969 C 22.082031 35.960938 22.085938 35.980469 22.160156 36.289062 C 22.214844 36.535156 22.226562 36.632812 22.199219 36.699219 C 22.164062 36.761719 22.195312 36.984375 22.320312 37.695312 L 22.480469 38.605469 L 22.359375 38.769531 L 22.242188 38.933594 L 23.074219 39.285156 C 23.527344 39.476562 23.914062 39.625 23.9375 39.609375 C 23.960938 39.597656 23.976562 39.621094 23.976562 39.675781 L 23.976562 39.761719 L 22.726562 39.527344 C 21.871094 39.371094 21.472656 39.308594 21.453125 39.335938 C 21.441406 39.355469 21.402344 39.238281 21.363281 39.074219 C 21.328125 38.90625 21.289062 38.769531 21.285156 38.769531 C 21.273438 38.769531 21.175781 38.839844 21.066406 38.921875 C 20.953125 39.007812 20.761719 39.152344 20.632812 39.238281 C 20.394531 39.402344 20.363281 39.445312 20.101562 40.015625 C 20.015625 40.203125 20.015625 40.203125 20.058594 40.765625 C 20.113281 41.464844 20.191406 42.058594 20.261719 42.3125 C 20.363281 42.664062 20.496094 42.808594 21.007812 43.105469 C 21.183594 43.203125 21.394531 43.355469 21.480469 43.4375 L 21.632812 43.589844 L 21.53125 43.609375 C 21.402344 43.640625 21.203125 43.636719 20.917969 43.605469 Z M 47.1875 43.285156 C 40.835938 42.945312 34.90625 41.183594 29.429688 37.992188 C 29.210938 37.863281 29.027344 37.746094 29.027344 37.738281 C 29.027344 37.722656 29.171875 37.476562 29.339844 37.183594 L 29.652344 36.660156 L 30.398438 37.089844 C 37.695312 41.273438 46.210938 42.878906 54.605469 41.648438 C 59.234375 40.972656 63.832031 39.371094 67.878906 37.027344 C 68.136719 36.878906 68.378906 36.734375 68.425781 36.703125 C 68.507812 36.652344 68.511719 36.65625 68.835938 37.195312 C 69.078125 37.613281 69.148438 37.746094 69.113281 37.773438 C 69.003906 37.84375 67.929688 38.457031 67.535156 38.671875 C 65.484375 39.789062 62.941406 40.859375 60.671875 41.5625 C 57.664062 42.492188 54.964844 42.992188 51.5625 43.246094 C 50.898438 43.300781 47.945312 43.324219 47.1875 43.285156 Z M 85.910156 43.226562 C 85.683594 43.199219 85.472656 43.179688 85.441406 43.179688 C 85.382812 43.175781 85.375 43.132812 85.375 42.816406 C 85.375 42.554688 85.359375 42.425781 85.316406 42.332031 C 85.257812 42.210938 85.257812 42.203125 85.335938 42.035156 C 85.382812 41.941406 85.425781 41.820312 85.433594 41.761719 C 85.441406 41.703125 85.484375 41.46875 85.539062 41.25 C 85.613281 40.910156 85.640625 40.847656 85.695312 40.847656 C 85.734375 40.847656 85.894531 40.804688 86.058594 40.75 C 86.417969 40.636719 86.828125 40.621094 87.109375 40.71875 C 87.332031 40.792969 87.605469 41.03125 87.691406 41.222656 C 87.828125 41.527344 87.746094 42.050781 87.492188 42.476562 L 87.359375 42.691406 L 87.472656 42.9375 C 87.53125 43.074219 87.578125 43.191406 87.570312 43.195312 C 87.566406 43.199219 87.382812 43.210938 87.160156 43.226562 C 86.871094 43.242188 86.761719 43.242188 86.78125 43.210938 C 86.804688 43.171875 86.757812 43.179688 86.476562 43.25 C 86.410156 43.269531 86.347656 43.28125 86.335938 43.28125 C 86.324219 43.277344 86.132812 43.253906 85.910156 43.226562 Z M 10.976562 42.800781 C 10.597656 42.539062 10.378906 42.054688 10.09375 40.8125 C 10.003906 40.425781 9.703125 39.363281 9.429688 38.445312 C 9.160156 37.527344 8.742188 36.109375 8.503906 35.292969 C 7.875 33.144531 7.59375 32.199219 7.078125 30.546875 C 6.828125 29.738281 6.441406 28.472656 6.226562 27.734375 C 6.003906 26.996094 5.636719 25.746094 5.398438 24.957031 C 5.164062 24.167969 4.785156 22.8125 4.550781 21.945312 C 3.898438 19.546875 3.574219 18.457031 3.308594 17.808594 C 3.25 17.667969 3.214844 17.558594 3.230469 17.558594 C 3.246094 17.5625 3.390625 17.589844 3.554688 17.621094 L 3.851562 17.683594 L 7.527344 30.207031 C 9.550781 37.09375 11.214844 42.765625 11.226562 42.808594 C 11.253906 42.921875 11.148438 42.917969 10.976562 42.800781 Z M 10.976562 42.800781 "
    />
    <path
      d="M 17.9375 39.640625 C 17.914062 39.546875 17.886719 39.429688 17.871094 39.386719 L 17.851562 39.308594 L 18.070312 39.378906 C 18.191406 39.414062 18.296875 39.449219 18.304688 39.460938 C 18.3125 39.46875 18.242188 39.546875 18.148438 39.640625 L 17.980469 39.8125 Z M 48.078125 37.992188 C 42.972656 37.84375 37.894531 36.503906 33.386719 34.117188 C 32.859375 33.839844 31.789062 33.238281 31.734375 33.195312 C 31.722656 33.183594 32.234375 32.285156 32.324219 32.15625 C 32.359375 32.105469 32.4375 32.140625 32.964844 32.445312 C 33.292969 32.632812 34.003906 33.011719 34.542969 33.28125 C 38.394531 35.226562 42.335938 36.3125 46.8125 36.660156 C 47.59375 36.722656 50.628906 36.722656 51.351562 36.660156 C 52.351562 36.574219 52.984375 36.507812 53.722656 36.402344 C 57.761719 35.824219 61.664062 34.476562 65.203125 32.441406 L 65.808594 32.09375 L 65.742188 31.980469 C 65.703125 31.921875 65.570312 31.699219 65.449219 31.488281 L 65.21875 31.109375 L 65.050781 31.210938 L 64.886719 31.316406 L 64.882812 30.414062 C 64.878906 28.773438 64.886719 28.605469 64.960938 28.386719 C 64.996094 28.277344 65.027344 28.152344 65.027344 28.109375 C 65.027344 28.042969 65.183594 27.933594 65.839844 27.523438 C 66.4375 27.148438 66.683594 26.96875 66.796875 26.839844 C 67.097656 26.488281 67.8125 26.019531 68.136719 25.957031 C 68.277344 25.929688 68.25 25.871094 68.097656 25.871094 C 67.980469 25.871094 67.996094 25.820312 68.15625 25.691406 C 68.300781 25.578125 68.308594 25.574219 68.460938 25.617188 L 68.621094 25.664062 L 68.816406 25.496094 C 69.015625 25.324219 69.039062 25.28125 68.976562 25.242188 C 68.90625 25.199219 68.945312 25.125 69.078125 25.027344 C 69.234375 24.921875 69.230469 24.921875 69.621094 25.070312 L 69.851562 25.160156 L 69.828125 25.328125 C 69.785156 25.585938 69.789062 25.617188 69.867188 25.617188 C 69.914062 25.617188 69.9375 25.59375 69.9375 25.542969 C 69.9375 25.472656 69.949219 25.46875 70.128906 25.488281 C 70.234375 25.5 70.527344 25.5625 70.78125 25.625 C 71.183594 25.730469 71.292969 25.742188 71.75 25.746094 C 72.246094 25.746094 72.273438 25.742188 72.433594 25.652344 C 72.546875 25.585938 72.613281 25.570312 72.636719 25.59375 C 72.679688 25.636719 71.695312 26.699219 71.625 26.671875 C 71.578125 26.652344 71.277344 27.039062 71.277344 27.121094 C 71.277344 27.152344 71.140625 27.328125 70.972656 27.507812 L 70.664062 27.839844 L 70.476562 28.992188 C 70.371094 29.632812 70.277344 30.1875 70.269531 30.234375 C 70.25 30.300781 70.226562 30.3125 70.066406 30.3125 L 69.875 30.3125 L 69.828125 30.519531 C 69.804688 30.632812 69.761719 30.769531 69.738281 30.820312 C 69.6875 30.914062 69.4375 31.59375 69.4375 31.628906 C 69.4375 31.636719 69.476562 31.636719 69.527344 31.632812 C 69.578125 31.621094 69.617188 31.621094 69.617188 31.628906 C 69.617188 31.636719 69.550781 32.210938 69.472656 32.902344 C 69.371094 33.785156 69.3125 34.175781 69.277344 34.199219 C 69.253906 34.222656 69.160156 34.277344 69.074219 34.332031 C 68.9375 34.410156 68.902344 34.457031 68.851562 34.621094 C 68.816406 34.722656 68.722656 34.992188 68.648438 35.214844 L 68.507812 35.617188 L 68.207031 35.617188 C 67.941406 35.617188 67.910156 35.609375 67.910156 35.546875 C 67.910156 35.421875 67.992188 35.238281 68.148438 35.015625 C 68.234375 34.890625 68.335938 34.707031 68.371094 34.597656 C 68.433594 34.417969 68.53125 33.757812 68.503906 33.730469 C 68.496094 33.722656 68.292969 33.753906 68.046875 33.792969 C 67.546875 33.875 67.277344 33.867188 67.070312 33.757812 C 66.898438 33.671875 66.800781 33.5625 66.5625 33.210938 C 66.335938 32.878906 66.167969 32.707031 66.335938 32.980469 C 66.421875 33.121094 66.4375 33.171875 66.40625 33.199219 C 66.296875 33.300781 65.066406 33.976562 64.175781 34.425781 C 59.175781 36.941406 53.691406 38.15625 48.078125 37.992188 Z M 12.277344 36.765625 C 11.074219 36.515625 10.085938 36.296875 10.078125 36.277344 C 10.074219 36.257812 10.113281 36.191406 10.167969 36.132812 L 10.261719 36.015625 L 11.0625 36.101562 L 11.863281 36.183594 L 13.214844 36.703125 C 13.957031 36.992188 14.542969 37.222656 14.515625 37.222656 C 14.484375 37.222656 13.480469 37.011719 12.277344 36.765625 Z M 14.425781 36.773438 C 14.265625 36.648438 13.894531 36.503906 13.375 36.367188 C 12.683594 36.183594 12.367188 36.039062 12.09375 35.773438 C 11.875 35.5625 11.855469 35.519531 11.921875 35.335938 L 11.957031 35.230469 L 12.40625 35.203125 C 13.039062 35.164062 13.367188 35.214844 13.914062 35.417969 C 14.457031 35.625 14.761719 35.789062 15.332031 36.171875 C 15.808594 36.492188 16.148438 36.773438 16.109375 36.816406 C 16.085938 36.839844 15.082031 36.761719 14.667969 36.703125 C 14.539062 36.6875 14.515625 36.695312 14.507812 36.753906 C 14.496094 36.824219 14.488281 36.824219 14.425781 36.773438 Z M 9.414062 35.570312 C 9.039062 33.972656 8.480469 32.019531 7.292969 28.144531 C 6.59375 25.867188 6.316406 24.953125 6.015625 23.914062 C 5.875 23.441406 5.613281 22.5625 5.425781 21.964844 C 4.582031 19.277344 4.234375 17.910156 4.234375 17.3125 C 4.234375 17.105469 4.339844 16.601562 4.730469 14.996094 C 5.324219 12.5625 5.613281 11.152344 5.660156 10.453125 C 5.675781 10.21875 6.203125 12.03125 6.390625 12.953125 C 6.472656 13.371094 6.476562 13.464844 6.460938 13.882812 C 6.414062 14.746094 6.3125 15.273438 6.074219 15.820312 C 5.929688 16.152344 5.90625 16.269531 5.949219 16.457031 C 5.992188 16.679688 6.3125 17.242188 6.941406 18.210938 C 7.703125 19.382812 7.898438 19.707031 8.160156 20.238281 C 8.476562 20.875 8.625 21.332031 9.019531 22.859375 C 9.875 26.175781 10.476562 28.449219 10.832031 29.722656 C 11.09375 30.679688 11.132812 30.984375 11.046875 31.449219 C 10.960938 31.871094 10.960938 32.359375 11.046875 32.910156 C 11.078125 33.136719 11.117188 33.699219 11.128906 34.21875 C 11.164062 35.203125 11.179688 35.3125 11.363281 35.464844 C 11.449219 35.535156 11.585938 35.789062 11.554688 35.808594 C 11.546875 35.816406 11.222656 35.757812 10.832031 35.6875 C 10.253906 35.582031 10.117188 35.546875 10.109375 35.496094 C 10.101562 35.464844 10.085938 35.4375 10.070312 35.4375 C 10.054688 35.4375 9.9375 35.5625 9.800781 35.714844 C 9.667969 35.867188 9.546875 35.996094 9.539062 36 C 9.527344 36.007812 9.46875 35.8125 9.414062 35.570312 Z M 9.414062 35.570312 "
    />
    <path
      d="M 70.042969 34.945312 C 69.976562 34.917969 69.914062 34.886719 69.910156 34.886719 C 69.910156 34.882812 69.890625 34.746094 69.871094 34.578125 C 69.800781 34.054688 69.796875 34.042969 69.695312 33.988281 L 69.597656 33.933594 L 69.714844 33.910156 C 69.84375 33.886719 69.84375 33.886719 69.78125 33.585938 L 69.730469 33.359375 L 70.148438 33.359375 L 70.148438 33.109375 C 70.148438 32.9375 70.136719 32.851562 70.097656 32.820312 C 70.050781 32.785156 70.058594 32.761719 70.132812 32.664062 C 70.210938 32.558594 70.238281 32.386719 70.484375 30.601562 C 70.628906 29.53125 70.757812 28.648438 70.765625 28.644531 C 70.78125 28.628906 71.152344 28.734375 71.179688 28.757812 C 71.210938 28.785156 70.238281 35.007812 70.203125 35.003906 C 70.1875 35.003906 70.109375 34.976562 70.042969 34.945312 Z M 70.007812 34.023438 C 70.007812 33.96875 69.957031 33.894531 69.914062 33.894531 C 69.867188 33.894531 69.847656 33.972656 69.890625 34.015625 C 69.914062 34.042969 70.007812 34.050781 70.007812 34.023438 Z M 70.554688 34.953125 C 70.617188 34.796875 70.769531 33.769531 70.949219 32.304688 C 71.230469 30.035156 71.386719 29.210938 71.589844 28.914062 C 71.84375 28.546875 73.011719 27.671875 74.402344 26.800781 C 75.105469 26.363281 75.390625 26.191406 75.421875 26.191406 C 75.519531 26.191406 74.570312 31.484375 74.390625 31.964844 C 74.277344 32.261719 73.003906 33.277344 70.652344 34.933594 C 70.546875 35.011719 70.53125 35.015625 70.554688 34.953125 Z M 11.449219 32.914062 L 11.386719 30.929688 L 11.632812 30.671875 C 11.769531 30.53125 11.871094 30.394531 11.859375 30.371094 C 11.847656 30.335938 12.214844 29.710938 12.304688 29.621094 C 12.320312 29.605469 12.660156 29.644531 13.0625 29.710938 C 13.789062 29.820312 13.796875 29.824219 13.765625 29.902344 C 13.75 29.949219 13.75 29.988281 13.761719 29.996094 C 13.78125 30.003906 14.050781 30.289062 14.367188 30.632812 L 14.941406 31.253906 L 14.941406 31.828125 L 14.863281 31.761719 C 14.816406 31.722656 14.625 31.550781 14.4375 31.375 C 14.242188 31.203125 14.070312 31.066406 14.050781 31.066406 C 13.925781 31.066406 14.054688 31.269531 14.832031 32.339844 L 15.683594 33.519531 L 15.515625 33.59375 C 15.425781 33.632812 15.203125 33.761719 15.03125 33.878906 C 14.46875 34.242188 14.179688 34.34375 13.566406 34.382812 L 13.199219 34.40625 L 13.199219 34.269531 C 13.203125 34.105469 12.917969 33.359375 12.851562 33.359375 C 12.789062 33.359375 12.761719 33.625 12.773438 34.125 L 12.789062 34.589844 L 12.164062 34.746094 C 11.824219 34.828125 11.535156 34.894531 11.527344 34.898438 C 11.515625 34.898438 11.480469 34.007812 11.449219 32.914062 Z M 19.398438 34.136719 L 18.109375 33.808594 L 18.09375 33.695312 L 18.070312 33.585938 L 17.667969 33.558594 C 16.425781 33.480469 16.042969 33.140625 16.042969 32.113281 L 16.042969 31.808594 L 16.160156 31.832031 C 16.222656 31.84375 16.675781 31.898438 17.164062 31.960938 C 17.765625 32.035156 18.109375 32.097656 18.222656 32.144531 C 18.527344 32.273438 19.488281 32.5 19.851562 32.53125 C 20.152344 32.554688 20.21875 32.574219 20.328125 32.65625 C 20.570312 32.84375 20.757812 33.410156 20.808594 34.109375 C 20.828125 34.453125 20.828125 34.46875 20.757812 34.464844 C 20.71875 34.464844 20.105469 34.316406 19.398438 34.136719 Z M 93.484375 33.847656 C 93.484375 33.828125 94.675781 28.949219 94.71875 28.800781 C 94.730469 28.75 94.773438 28.734375 94.914062 28.734375 L 95.085938 28.734375 L 95.085938 28.894531 C 95.085938 29.148438 94.925781 30.03125 94.753906 30.726562 C 94.488281 31.765625 94.15625 32.734375 93.855469 33.324219 C 93.714844 33.597656 93.488281 33.921875 93.484375 33.847656 Z M 95.585938 33.253906 C 95.042969 33.160156 95.035156 33.15625 95.042969 33.070312 C 95.058594 32.925781 96.785156 24.042969 96.796875 24.027344 C 96.820312 24.011719 97.902344 24.140625 97.921875 24.164062 C 97.953125 24.191406 96.207031 33.332031 96.167969 33.34375 C 96.152344 33.347656 95.886719 33.308594 95.585938 33.253906 Z M 47.726562 33.25 C 42.988281 33.003906 38.601562 31.714844 34.550781 29.375 L 34.121094 29.125 L 34.769531 28.039062 L 35.285156 28.335938 C 38.390625 30.121094 41.929688 31.316406 45.515625 31.78125 C 47.472656 32.03125 49.96875 32.070312 51.902344 31.867188 C 55.792969 31.464844 59.601562 30.238281 62.925781 28.308594 C 63.171875 28.171875 63.378906 28.054688 63.390625 28.054688 C 63.40625 28.054688 63.554688 28.292969 63.726562 28.582031 C 63.972656 29 64.023438 29.117188 63.988281 29.152344 C 63.902344 29.226562 62.917969 29.773438 62.21875 30.128906 C 58.730469 31.90625 55.007812 32.933594 51.046875 33.214844 C 50.332031 33.265625 48.40625 33.285156 47.726562 33.25 Z M 47.726562 33.25 "
    />
    <path
      d="M 15.402344 32.53125 C 15.34375 32.46875 15.273438 32.371094 15.242188 32.320312 C 15.171875 32.183594 15.117188 31.800781 15.117188 31.417969 L 15.117188 31.113281 L 14.988281 31.027344 C 14.871094 30.949219 14.847656 30.917969 14.832031 30.769531 C 14.808594 30.574219 14.773438 30.539062 14.558594 30.507812 C 14.417969 30.484375 14.410156 30.476562 14.332031 30.269531 C 14.28125 30.136719 14.269531 30.042969 14.289062 30.023438 C 14.308594 30.003906 14.4375 29.917969 14.578125 29.832031 L 14.832031 29.675781 L 15.039062 30 C 15.480469 30.6875 15.511719 30.796875 15.535156 31.847656 C 15.546875 32.285156 15.546875 32.640625 15.535156 32.640625 C 15.523438 32.640625 15.46875 32.589844 15.402344 32.53125 Z M 19.691406 32.144531 C 19.527344 32.070312 19.40625 31.945312 19.4375 31.894531 C 19.484375 31.820312 19.707031 31.808594 19.867188 31.871094 C 20.011719 31.925781 20.207031 32.101562 20.207031 32.179688 C 20.207031 32.238281 19.839844 32.210938 19.691406 32.144531 Z M 75.0625 32.089844 C 75.058594 32.074219 75.308594 30.632812 75.609375 28.890625 C 75.917969 27.144531 76.15625 25.707031 76.148438 25.699219 C 76.136719 25.6875 76.140625 25.660156 76.160156 25.640625 C 76.171875 25.617188 76.199219 25.550781 76.207031 25.484375 L 76.230469 25.371094 L 75.628906 25.171875 C 75.296875 25.058594 75.007812 24.976562 74.988281 24.992188 C 74.96875 25.003906 74.953125 25.042969 74.949219 25.074219 C 74.945312 25.226562 74.875 24.921875 74.71875 24.085938 C 74.414062 22.457031 74.238281 21.90625 73.832031 21.363281 C 73.738281 21.242188 73.605469 21.097656 73.53125 21.042969 L 73.398438 20.945312 L 73.460938 20.65625 C 73.691406 19.636719 73.917969 18.296875 74.273438 15.800781 C 74.886719 11.496094 74.894531 11.46875 75.382812 10.605469 C 75.609375 10.199219 75.835938 9.84375 76.707031 8.480469 C 77.222656 7.675781 77.300781 7.210938 77.015625 6.667969 C 76.957031 6.554688 76.757812 6.28125 76.574219 6.0625 C 76.394531 5.84375 76.203125 5.582031 76.148438 5.476562 C 75.976562 5.167969 75.984375 5.015625 76.246094 3.265625 C 76.375 2.40625 76.488281 1.703125 76.496094 1.695312 C 76.558594 1.628906 77.867188 3.984375 78.71875 5.695312 C 79.339844 6.945312 79.613281 7.601562 79.636719 7.882812 C 79.679688 8.363281 79.382812 10.074219 78.632812 13.617188 C 78.46875 14.414062 78.089844 16.390625 77.792969 18.003906 C 76.433594 25.515625 75.496094 30.40625 75.1875 31.636719 C 75.121094 31.902344 75.066406 32.109375 75.0625 32.089844 Z M 19.035156 31.734375 C 18.96875 31.691406 18.871094 31.628906 18.820312 31.59375 C 18.691406 31.507812 18.546875 31.515625 18.410156 31.625 L 18.285156 31.71875 L 17.0625 31.171875 L 15.832031 30.625 L 15.433594 30.046875 C 15.085938 29.546875 15.027344 29.4375 14.972656 29.21875 C 14.941406 29.082031 14.917969 28.960938 14.925781 28.953125 C 14.933594 28.949219 15.09375 29.054688 15.285156 29.195312 C 15.523438 29.363281 15.679688 29.507812 15.777344 29.644531 C 15.878906 29.792969 16 29.898438 16.226562 30.046875 C 16.398438 30.15625 16.554688 30.238281 16.574219 30.222656 C 16.59375 30.210938 16.878906 30.347656 17.207031 30.527344 C 17.941406 30.929688 19.277344 31.601562 19.339844 31.601562 C 19.414062 31.601562 19.394531 31.664062 19.292969 31.742188 C 19.175781 31.835938 19.179688 31.835938 19.035156 31.734375 Z M 16.984375 31.613281 C 16.828125 31.585938 16.574219 31.542969 16.417969 31.519531 C 16.160156 31.480469 16.128906 31.464844 16.085938 31.375 C 16.0625 31.324219 16.042969 31.242188 16.050781 31.195312 C 16.0625 31.113281 16.070312 31.117188 16.648438 31.355469 C 16.972656 31.492188 17.265625 31.617188 17.304688 31.636719 C 17.40625 31.679688 17.328125 31.679688 16.984375 31.613281 Z M 64.273438 31.480469 C 64.191406 31.433594 64.144531 31.382812 64.152344 31.351562 C 64.164062 31.324219 64.175781 31.136719 64.191406 30.941406 C 64.226562 30.332031 64.222656 30.339844 64.4375 30.214844 L 64.628906 30.105469 L 64.644531 30.308594 C 64.667969 30.578125 64.550781 31.496094 64.488281 31.535156 C 64.429688 31.574219 64.429688 31.574219 64.273438 31.480469 Z M 11.347656 30.214844 C 11.347656 29.996094 11.230469 29.273438 11.117188 28.785156 C 10.929688 27.988281 10.738281 27.34375 9.941406 24.8125 C 9.117188 22.183594 8.863281 21.238281 8.769531 20.382812 C 8.753906 20.277344 8.773438 19.679688 8.804688 19.058594 C 8.886719 17.53125 8.863281 15.582031 8.753906 14.992188 C 8.671875 14.53125 8.570312 14.230469 8.441406 14.078125 C 8.328125 13.941406 7.96875 13.757812 7.566406 13.632812 C 7.171875 13.507812 7.050781 13.425781 6.929688 13.199219 C 6.804688 12.96875 5.941406 9.839844 5.992188 9.792969 C 5.996094 9.785156 6.074219 9.808594 6.152344 9.851562 C 6.230469 9.894531 6.65625 10.089844 7.089844 10.285156 C 8.9375 11.125 9.640625 11.585938 9.816406 12.0625 C 9.949219 12.421875 10.234375 13.550781 10.566406 15.039062 C 10.742188 15.839844 11.0625 17.203125 11.277344 18.058594 C 12.285156 22.125 13.375 26.648438 13.375 26.753906 C 13.375 26.78125 13.347656 26.800781 13.316406 26.800781 C 13.097656 26.804688 12.628906 27.140625 12.429688 27.433594 L 12.292969 27.628906 L 12.265625 28.140625 C 12.238281 28.730469 12.164062 29.109375 12.019531 29.488281 C 11.910156 29.777344 11.679688 30.117188 11.476562 30.285156 L 11.347656 30.386719 Z M 64.449219 29.796875 C 64.335938 29.609375 64.316406 29.539062 64.316406 29.371094 C 64.316406 29.167969 64.316406 29.167969 64.417969 29.167969 L 64.523438 29.167969 L 64.566406 29.578125 C 64.589844 29.808594 64.605469 30 64.59375 30.007812 C 64.585938 30.019531 64.519531 29.921875 64.449219 29.796875 Z M 44.800781 29.457031 C 44.660156 29.390625 44.464844 29.152344 44.515625 29.105469 C 44.527344 29.09375 44.601562 29.097656 44.679688 29.117188 C 44.808594 29.144531 44.839844 29.171875 44.933594 29.339844 C 45.054688 29.546875 45.035156 29.5625 44.800781 29.457031 Z M 44.800781 29.457031 "
    />
    <path
      d="M 13.40625 29.371094 C 13.183594 29.304688 12.921875 29.203125 12.820312 29.144531 C 12.648438 29.039062 12.644531 29.03125 12.621094 28.820312 C 12.5625 28.289062 12.578125 28.101562 12.746094 27.648438 L 12.898438 27.222656 L 13.273438 27.214844 C 13.621094 27.203125 13.660156 27.210938 13.941406 27.324219 C 14.421875 27.519531 14.4375 27.523438 14.417969 27.59375 C 14.40625 27.625 14.4375 27.71875 14.476562 27.796875 C 14.527344 27.90625 14.550781 28.011719 14.550781 28.1875 C 14.550781 28.320312 14.566406 28.59375 14.585938 28.789062 C 14.613281 29.089844 14.609375 29.167969 14.5625 29.296875 C 14.507812 29.441406 14.496094 29.453125 14.371094 29.453125 C 14.300781 29.453125 14.144531 29.460938 14.03125 29.46875 C 13.863281 29.484375 13.734375 29.464844 13.40625 29.371094 Z M 39.785156 29.195312 C 39.742188 29.175781 39.679688 29.097656 39.644531 29.023438 C 39.613281 28.949219 39.546875 28.867188 39.5 28.847656 C 39.445312 28.820312 39.414062 28.777344 39.414062 28.71875 C 39.414062 28.667969 39.390625 28.578125 39.363281 28.519531 C 39.324219 28.445312 39.203125 27.6875 39.203125 27.515625 C 39.203125 27.5 39.429688 27.582031 39.710938 27.695312 C 40.308594 27.9375 41.195312 28.25 41.753906 28.414062 C 42.140625 28.527344 42.152344 28.535156 42.058594 28.578125 C 42.003906 28.601562 41.898438 28.691406 41.824219 28.785156 C 41.59375 29.066406 41.566406 29.074219 40.75 29.046875 L 40.035156 29.03125 L 39.996094 29.132812 C 39.953125 29.246094 39.910156 29.253906 39.785156 29.195312 Z M 64.445312 28.503906 C 64.453125 28.425781 64.523438 27.667969 64.601562 26.824219 C 64.679688 25.976562 64.75 25.277344 64.761719 25.269531 C 64.800781 25.226562 64.972656 25.316406 65.042969 25.414062 C 65.136719 25.542969 65.132812 25.796875 65.035156 26.351562 C 64.996094 26.570312 64.953125 26.925781 64.9375 27.140625 C 64.894531 27.824219 64.773438 28.222656 64.515625 28.539062 L 64.425781 28.648438 Z M 38.003906 28.453125 C 37.753906 28.34375 37.710938 28.308594 37.691406 28.21875 C 37.667969 28.105469 37.664062 26.800781 37.6875 26.800781 C 37.753906 26.800781 38.171875 27.023438 38.171875 27.058594 C 38.171875 27.085938 38.203125 27.433594 38.238281 27.839844 C 38.273438 28.246094 38.296875 28.578125 38.296875 28.578125 C 38.292969 28.582031 38.164062 28.523438 38.003906 28.453125 Z M 47.632812 28.316406 C 44.996094 28.160156 42.261719 27.523438 39.777344 26.492188 C 38.898438 26.128906 37.035156 25.183594 36.695312 24.925781 C 36.632812 24.878906 36.632812 24.875 36.71875 24.742188 C 36.804688 24.605469 36.804688 24.597656 36.761719 24.261719 C 36.632812 23.261719 36.492188 21.320312 36.542969 21.320312 C 36.621094 21.320312 36.863281 22.410156 36.992188 23.324219 C 37.035156 23.613281 37.078125 23.902344 37.089844 23.96875 L 37.109375 24.09375 L 37.183594 23.960938 C 37.222656 23.886719 37.269531 23.828125 37.285156 23.828125 C 37.292969 23.828125 37.523438 23.949219 37.78125 24.101562 C 40.167969 25.476562 43.011719 26.445312 45.816406 26.851562 C 46.980469 27.019531 47.65625 27.066406 49.054688 27.066406 C 50.417969 27.070312 50.894531 27.042969 52.070312 26.890625 C 54.960938 26.519531 57.898438 25.53125 60.394531 24.097656 C 60.65625 23.949219 60.882812 23.835938 60.898438 23.839844 C 60.910156 23.851562 61.042969 24.058594 61.1875 24.300781 C 61.328125 24.542969 61.46875 24.777344 61.496094 24.816406 C 61.542969 24.890625 61.527344 24.902344 61.171875 25.113281 C 60.273438 25.644531 59.128906 26.195312 58.019531 26.640625 C 55.695312 27.570312 53.285156 28.117188 50.683594 28.304688 C 50.21875 28.339844 48.128906 28.34375 47.632812 28.316406 Z M 71.613281 27.648438 L 71.542969 27.488281 L 71.648438 27.222656 C 71.730469 27.019531 71.789062 26.929688 71.902344 26.835938 C 71.988281 26.769531 72.09375 26.65625 72.140625 26.589844 C 72.179688 26.519531 72.332031 26.371094 72.46875 26.265625 C 72.605469 26.15625 72.785156 25.996094 72.867188 25.90625 C 72.945312 25.820312 73.09375 25.664062 73.191406 25.566406 C 73.371094 25.386719 73.371094 25.386719 73.390625 25.097656 C 73.410156 24.886719 73.402344 24.792969 73.367188 24.742188 C 73.332031 24.695312 73.316406 24.554688 73.316406 24.308594 C 73.316406 23.941406 73.296875 23.828125 73.246094 23.828125 C 73.1875 23.828125 72.878906 24.308594 72.871094 24.402344 C 72.855469 24.578125 72.6875 24.820312 72.503906 24.925781 C 72.339844 25.027344 72.332031 25.027344 71.636719 25.039062 C 70.890625 25.054688 70.601562 25.015625 70.480469 24.90625 C 70.441406 24.871094 70.375 24.828125 70.332031 24.8125 C 70.234375 24.785156 69.675781 24.441406 69.648438 24.390625 C 69.632812 24.371094 69.613281 24.277344 69.601562 24.1875 C 69.589844 24.09375 69.570312 24.007812 69.558594 23.996094 C 69.546875 23.984375 69.539062 23.683594 69.542969 23.324219 L 69.550781 22.679688 L 68.929688 22.679688 L 68.429688 22.945312 C 67.988281 23.183594 67.878906 23.257812 67.554688 23.566406 C 67.347656 23.761719 67.050781 24 66.894531 24.097656 C 66.738281 24.1875 66.527344 24.347656 66.433594 24.445312 C 66.289062 24.578125 66.195312 24.632812 65.96875 24.707031 C 65.8125 24.761719 65.609375 24.859375 65.515625 24.925781 C 65.296875 25.082031 65.089844 25.085938 65.003906 24.933594 C 64.949219 24.84375 64.957031 24.824219 65.117188 24.460938 L 65.285156 24.082031 L 65.609375 23.96875 C 65.789062 23.910156 66.046875 23.789062 66.183594 23.699219 C 66.570312 23.449219 67.855469 22.273438 68 22.035156 C 68.074219 21.921875 68.355469 21.613281 68.683594 21.292969 C 69.3125 20.691406 69.34375 20.675781 69.789062 20.675781 L 70.050781 20.675781 L 70.191406 20.511719 C 70.410156 20.265625 70.433594 20.285156 70.582031 20.808594 C 70.648438 21.058594 70.730469 21.277344 70.757812 21.292969 C 70.8125 21.328125 70.941406 21.273438 72.335938 20.640625 C 72.484375 20.574219 72.5625 20.550781 72.535156 20.585938 C 72.507812 20.617188 72.496094 20.644531 72.5 20.648438 C 72.578125 20.695312 73.015625 21.132812 73.015625 21.164062 C 73.015625 21.191406 73.109375 21.308594 73.226562 21.425781 C 73.394531 21.59375 73.453125 21.632812 73.515625 21.621094 C 73.585938 21.601562 73.617188 21.632812 73.738281 21.820312 C 74.042969 22.289062 74.285156 23.164062 74.453125 24.378906 C 74.492188 24.671875 74.53125 24.921875 74.542969 24.9375 C 74.554688 24.953125 74.519531 25.085938 74.472656 25.226562 C 74.421875 25.371094 74.390625 25.507812 74.398438 25.53125 C 74.417969 25.589844 74.128906 26.109375 73.964844 26.300781 C 73.878906 26.398438 73.707031 26.546875 73.585938 26.628906 C 73.375 26.773438 72.738281 27.390625 72.554688 27.636719 L 72.460938 27.757812 L 72.148438 27.738281 C 71.945312 27.730469 71.808594 27.738281 71.757812 27.765625 C 71.691406 27.800781 71.675781 27.789062 71.613281 27.648438 Z M 71.613281 27.648438 "
    />
    <path
      d="M 65.253906 27.402344 C 65.265625 27.339844 65.316406 26.859375 65.371094 26.335938 L 65.460938 25.386719 L 65.625 25.234375 C 65.839844 25.042969 65.867188 25.035156 66.078125 25.097656 L 66.25 25.148438 L 66.558594 24.847656 C 67.335938 24.070312 68.621094 23.195312 69.097656 23.121094 L 69.234375 23.101562 L 69.21875 23.707031 C 69.191406 24.664062 69.082031 24.851562 68.335938 25.242188 C 67.976562 25.429688 67.882812 25.496094 67.578125 25.804688 C 67.101562 26.285156 65.925781 27.171875 65.417969 27.429688 L 65.238281 27.523438 Z M 37.25 26.890625 C 37.113281 26.527344 37.113281 26.449219 37.253906 26.5625 C 37.289062 26.589844 37.3125 26.6875 37.328125 26.847656 C 37.335938 26.980469 37.335938 27.089844 37.335938 27.089844 C 37.328125 27.089844 37.289062 27 37.25 26.890625 Z M 74.242188 26.53125 C 74.207031 26.488281 74.210938 26.476562 74.285156 26.445312 C 74.332031 26.429688 74.394531 26.375 74.421875 26.328125 C 74.492188 26.214844 74.660156 25.804688 74.6875 25.671875 C 74.738281 25.421875 74.710938 25.429688 75.085938 25.570312 C 75.273438 25.636719 75.433594 25.699219 75.4375 25.703125 C 75.445312 25.710938 74.359375 26.566406 74.316406 26.578125 C 74.300781 26.582031 74.265625 26.566406 74.242188 26.53125 Z M 45.046875 25.574219 C 44.832031 25.53125 44.84375 25.5625 44.804688 24.894531 C 44.785156 24.578125 44.789062 24.542969 44.847656 24.542969 C 44.972656 24.546875 45.230469 24.621094 45.257812 24.664062 C 45.292969 24.71875 45.292969 25.617188 45.257812 25.617188 C 45.242188 25.613281 45.148438 25.59375 45.046875 25.574219 Z M 44.199219 25.398438 C 42.574219 25 41.175781 24.507812 39.765625 23.847656 C 39.445312 23.699219 39.164062 23.5625 39.140625 23.546875 C 39.113281 23.53125 39.089844 23.332031 39.074219 22.960938 L 39.046875 22.398438 L 39.703125 22.726562 C 41.054688 23.410156 42.484375 23.953125 43.824219 24.292969 C 44.070312 24.355469 44.304688 24.417969 44.347656 24.4375 C 44.457031 24.480469 44.5 24.664062 44.5 25.09375 C 44.503906 25.484375 44.511719 25.476562 44.199219 25.398438 Z M 48.042969 23.800781 C 44.941406 23.636719 41.835938 22.707031 39.160156 21.136719 L 38.953125 21.019531 L 38.953125 20.324219 L 39.125 20.367188 L 39.289062 20.410156 L 39.429688 20.175781 C 39.507812 20.046875 39.570312 19.9375 39.574219 19.929688 C 39.578125 19.925781 39.757812 20.023438 39.96875 20.144531 C 40.5625 20.480469 41.640625 21 42.296875 21.257812 C 47.25 23.226562 52.839844 22.945312 57.539062 20.5 C 57.875 20.324219 58.242188 20.121094 58.359375 20.054688 C 58.523438 19.949219 58.578125 19.933594 58.609375 19.96875 C 58.664062 20.027344 59.234375 21.003906 59.222656 21.015625 C 59.167969 21.0625 58.28125 21.546875 57.886719 21.746094 C 55.144531 23.128906 52.046875 23.847656 48.984375 23.820312 C 48.582031 23.816406 48.160156 23.808594 48.042969 23.800781 Z M 37.351562 23.46875 C 37.351562 23.3125 37.417969 23.191406 37.535156 23.144531 C 37.59375 23.121094 37.648438 23.109375 37.65625 23.117188 C 37.683594 23.144531 37.421875 23.578125 37.382812 23.578125 C 37.367188 23.578125 37.351562 23.53125 37.351562 23.46875 Z M 38.488281 23.191406 C 38.257812 23.0625 38.25 23.054688 38.226562 22.898438 C 38.214844 22.8125 38.207031 22.640625 38.207031 22.515625 L 38.207031 22.285156 L 38.5625 22.285156 L 38.5625 22.660156 C 38.5625 23.011719 38.570312 23.039062 38.652344 23.144531 C 38.800781 23.320312 38.742188 23.332031 38.488281 23.191406 Z M 38.488281 23.191406 "
    />
    <path
      d="M 37.238281 22.242188 C 37.210938 22.21875 37.128906 22.109375 37.058594 22.007812 L 36.9375 21.820312 L 37 21.4375 L 37.066406 21.050781 L 36.980469 20.835938 C 36.933594 20.71875 36.871094 20.5 36.839844 20.351562 C 36.765625 19.980469 36.703125 19.335938 36.742188 19.316406 C 36.804688 19.273438 36.9375 18.96875 36.945312 18.839844 C 36.960938 18.671875 37.148438 18.214844 37.421875 17.667969 C 37.535156 17.4375 37.671875 17.140625 37.722656 17.003906 C 37.773438 16.871094 37.851562 16.695312 37.890625 16.617188 C 37.972656 16.472656 38.175781 16.316406 38.242188 16.355469 C 38.261719 16.367188 38.328125 16.347656 38.382812 16.304688 C 38.441406 16.261719 38.609375 16.171875 38.753906 16.105469 C 38.898438 16.039062 39.023438 15.964844 39.03125 15.949219 C 39.046875 15.914062 39.695312 15.535156 39.714844 15.554688 C 39.71875 15.5625 39.90625 15.785156 40.125 16.050781 C 40.351562 16.316406 40.539062 16.542969 40.546875 16.554688 C 40.554688 16.566406 40.585938 16.535156 40.617188 16.492188 C 40.789062 16.269531 41.539062 15.480469 41.574219 15.480469 C 41.671875 15.480469 41.871094 15.605469 41.871094 15.660156 C 41.871094 15.699219 41.910156 15.730469 41.957031 15.742188 L 42.046875 15.765625 L 41.976562 15.882812 C 41.9375 15.945312 41.90625 16.007812 41.90625 16.023438 C 41.90625 16.054688 42.742188 16.515625 43.136719 16.695312 C 44.222656 17.203125 45.484375 17.605469 46.601562 17.808594 C 48 18.054688 49.660156 18.085938 51.011719 17.894531 C 52.191406 17.726562 53.429688 17.386719 54.460938 16.953125 C 54.949219 16.742188 55.730469 16.359375 56.03125 16.175781 C 56.140625 16.105469 56.25 16.050781 56.265625 16.050781 C 56.289062 16.050781 56.867188 16.980469 56.910156 17.09375 C 56.925781 17.128906 56.496094 17.382812 55.886719 17.6875 C 54.21875 18.519531 52.46875 19.03125 50.566406 19.226562 C 49.53125 19.332031 48.019531 19.300781 46.957031 19.148438 C 45.097656 18.882812 43.199219 18.242188 41.640625 17.347656 C 41.429688 17.222656 41.238281 17.136719 41.230469 17.152344 C 41.214844 17.171875 41.082031 17.386719 40.933594 17.636719 C 40.664062 18.09375 40.664062 18.09375 40.742188 18.144531 C 40.960938 18.28125 41.359375 18.503906 41.71875 18.683594 L 42.121094 18.886719 L 42.097656 19.089844 C 42.082031 19.203125 42.074219 19.320312 42.074219 19.351562 C 42.074219 19.382812 41.972656 19.46875 41.828125 19.554688 L 41.578125 19.710938 L 41.070312 19.441406 C 40.789062 19.292969 40.480469 19.121094 40.378906 19.0625 C 40.28125 19 40.1875 18.957031 40.167969 18.96875 C 40.152344 18.980469 40.023438 19.179688 39.882812 19.421875 C 39.609375 19.875 39.605469 19.878906 39.371094 19.8125 C 39.101562 19.734375 38.871094 19.425781 38.886719 19.164062 C 38.894531 19.035156 38.527344 18.023438 38.476562 18.023438 C 38.457031 18.023438 38.367188 18.074219 38.273438 18.132812 C 38.152344 18.210938 38.0625 18.3125 37.960938 18.488281 C 37.878906 18.625 37.8125 18.769531 37.8125 18.808594 C 37.8125 18.851562 37.785156 18.910156 37.746094 18.949219 C 37.671875 19.027344 37.582031 19.4375 37.59375 19.65625 C 37.601562 19.738281 37.652344 19.941406 37.710938 20.105469 C 37.890625 20.601562 37.929688 20.75 37.933594 21.035156 C 37.9375 21.203125 37.960938 21.332031 37.988281 21.371094 C 38.035156 21.425781 38.023438 21.5625 37.917969 22.101562 L 37.882812 22.285156 L 37.585938 22.285156 C 37.40625 22.285156 37.273438 22.269531 37.238281 22.242188 Z M 37.238281 22.242188 "
    />
    <path
      d="M 38.316406 21.777344 C 38.292969 21.675781 38.1875 21.121094 38.078125 20.554688 L 37.875 19.523438 L 38.082031 18.996094 C 38.191406 18.707031 38.296875 18.457031 38.316406 18.4375 C 38.363281 18.382812 38.476562 18.679688 38.5625 19.078125 C 38.628906 19.382812 38.644531 19.589844 38.65625 20.445312 L 38.675781 21.449219 L 38.527344 21.699219 C 38.445312 21.835938 38.371094 21.949219 38.367188 21.957031 C 38.359375 21.964844 38.335938 21.886719 38.316406 21.777344 Z M 44.742188 20.859375 L 44.253906 20.738281 L 44.253906 20.550781 C 44.253906 20.304688 44.164062 20.128906 44.050781 20.160156 C 43.984375 20.175781 43.964844 20.152344 43.882812 19.882812 C 43.832031 19.71875 43.796875 19.582031 43.800781 19.578125 C 43.804688 19.570312 43.996094 19.628906 44.222656 19.699219 C 44.605469 19.816406 44.640625 19.835938 44.660156 19.925781 C 44.667969 19.992188 44.765625 20.097656 44.941406 20.246094 L 45.207031 20.46875 L 45.230469 20.71875 C 45.242188 20.855469 45.25 20.972656 45.242188 20.976562 C 45.234375 20.980469 45.011719 20.929688 44.742188 20.859375 Z M 70.941406 20.707031 C 70.839844 20.394531 70.746094 19.703125 70.765625 19.464844 C 70.789062 19.226562 70.96875 18.839844 71.113281 18.699219 C 71.210938 18.609375 71.253906 18.597656 71.421875 18.597656 C 71.683594 18.597656 71.878906 18.660156 71.980469 18.777344 C 72.046875 18.859375 72.0625 18.933594 72.082031 19.226562 C 72.09375 19.425781 72.117188 19.585938 72.140625 19.59375 C 72.199219 19.613281 72.183594 19.804688 72.125 19.828125 C 72.097656 19.839844 72.070312 19.886719 72.070312 19.929688 C 72.070312 19.972656 72.007812 20.148438 71.925781 20.316406 L 71.78125 20.621094 L 71.398438 20.78125 L 71.015625 20.945312 Z M 43.609375 20.527344 C 43.523438 20.496094 43.511719 20.46875 43.492188 20.25 C 43.476562 20.117188 43.460938 19.941406 43.453125 19.851562 C 43.4375 19.695312 43.4375 19.699219 43.507812 19.921875 C 43.546875 20.050781 43.609375 20.246094 43.644531 20.363281 C 43.675781 20.472656 43.707031 20.566406 43.707031 20.5625 C 43.703125 20.5625 43.660156 20.546875 43.609375 20.527344 Z M 43.609375 20.527344 "
    />
    <path
      d="M 72.894531 20.347656 C 72.609375 20.203125 72.546875 20.03125 72.523438 19.328125 C 72.507812 18.925781 72.492188 18.785156 72.433594 18.660156 C 72.300781 18.355469 71.984375 18.203125 71.492188 18.199219 C 70.976562 18.191406 70.785156 18.367188 70.546875 19.074219 C 70.414062 19.464844 70.289062 19.660156 70.105469 19.773438 C 69.988281 19.847656 69.59375 19.949219 69.5625 19.914062 C 69.550781 19.90625 69.578125 19.734375 69.617188 19.535156 C 69.789062 18.65625 70.15625 15.882812 70.789062 10.804688 C 71.023438 8.910156 71.265625 7.023438 71.324219 6.605469 C 71.382812 6.191406 71.453125 5.59375 71.484375 5.269531 C 71.582031 4.195312 71.644531 4.09375 72.550781 3.546875 C 72.824219 3.382812 73.535156 2.9375 74.132812 2.5625 C 75.125 1.929688 75.953125 1.433594 76.09375 1.378906 C 76.160156 1.355469 76.160156 1.324219 76.035156 2.203125 C 75.957031 2.738281 75.746094 3.996094 75.679688 4.324219 C 75.648438 4.464844 75.523438 4.589844 75.042969 4.933594 C 74.683594 5.191406 73.757812 5.785156 73.652344 5.824219 C 73.589844 5.851562 73.585938 6.058594 73.636719 6.664062 C 73.691406 7.292969 73.765625 7.738281 73.992188 8.796875 C 74.304688 10.242188 74.328125 10.441406 74.328125 11.449219 C 74.328125 12.449219 74.316406 12.53125 73.886719 14.878906 C 73.375 17.648438 73.160156 19.070312 73.113281 19.984375 C 73.101562 20.226562 73.082031 20.421875 73.070312 20.421875 C 73.058594 20.421875 72.980469 20.386719 72.894531 20.347656 Z M 42.777344 20.222656 C 42.542969 20.128906 42.484375 20.089844 42.457031 20.007812 C 42.4375 19.949219 42.410156 19.886719 42.390625 19.859375 C 42.371094 19.828125 42.460938 19.105469 42.492188 19.070312 C 42.496094 19.0625 42.632812 19.117188 42.796875 19.183594 C 43.011719 19.269531 43.101562 19.328125 43.125 19.386719 C 43.160156 19.480469 43.128906 20.164062 43.085938 20.273438 C 43.0625 20.332031 43.042969 20.332031 42.777344 20.222656 Z M 8.097656 19.40625 C 7.902344 19.121094 7.703125 18.816406 7.652344 18.730469 L 7.558594 18.5625 L 7.664062 18.453125 C 7.765625 18.347656 7.773438 18.320312 7.792969 17.976562 C 7.804688 17.777344 7.785156 16.871094 7.746094 15.972656 C 7.703125 15.070312 7.679688 14.320312 7.695312 14.3125 C 7.726562 14.277344 8.25 14.371094 8.273438 14.410156 C 8.292969 14.441406 8.464844 19.890625 8.453125 19.910156 C 8.449219 19.914062 8.289062 19.6875 8.097656 19.40625 Z M 36.25 18.742188 C 36.078125 18.5 35.984375 17.882812 35.839844 16.015625 C 35.738281 14.699219 35.667969 13.933594 35.289062 9.710938 C 35.132812 7.988281 34.964844 6.085938 34.914062 5.480469 C 34.863281 4.878906 34.765625 3.976562 34.699219 3.472656 C 34.632812 2.964844 34.578125 2.421875 34.578125 2.265625 C 34.578125 1.78125 34.71875 1.441406 35.171875 0.847656 L 35.328125 0.644531 L 36.839844 0.644531 C 37.667969 0.644531 38.347656 0.660156 38.347656 0.671875 C 38.347656 0.6875 38.074219 0.984375 37.742188 1.335938 L 37.136719 1.96875 L 37.515625 2.695312 C 38.511719 4.59375 39.152344 5.945312 39.234375 6.304688 C 39.34375 6.808594 39.429688 8.035156 39.484375 9.925781 C 39.507812 10.585938 39.546875 11.5625 39.578125 12.09375 C 39.640625 13.105469 39.632812 13.464844 39.542969 13.890625 C 39.511719 14.035156 39.46875 14.34375 39.445312 14.574219 C 39.390625 15.222656 39.351562 15.269531 38.519531 15.746094 C 37.703125 16.214844 37.628906 16.304688 37.15625 17.484375 C 36.765625 18.453125 36.542969 18.847656 36.390625 18.847656 C 36.355469 18.847656 36.292969 18.800781 36.25 18.742188 Z M 3.441406 17.296875 C 3.234375 17.273438 3.128906 17.25 3.140625 17.21875 C 3.148438 17.199219 3.523438 15.46875 3.96875 13.375 L 4.785156 9.566406 L 5.117188 9.566406 C 5.445312 9.566406 5.449219 9.566406 5.433594 9.648438 C 5.394531 9.789062 3.878906 17.292969 3.878906 17.316406 C 3.878906 17.34375 3.871094 17.34375 3.441406 17.296875 Z M 40.28125 15.882812 C 40.1875 15.75 40.023438 15.539062 39.921875 15.417969 L 39.734375 15.195312 L 39.734375 14.917969 C 39.734375 14.542969 39.804688 14.082031 39.863281 14.082031 C 39.886719 14.082031 39.929688 14.054688 39.960938 14.027344 C 39.988281 14 40.078125 13.949219 40.15625 13.917969 C 40.296875 13.863281 40.304688 13.863281 40.480469 13.960938 C 40.710938 14.085938 40.828125 14.222656 40.859375 14.398438 C 40.875 14.46875 40.90625 14.574219 40.929688 14.625 C 40.964844 14.691406 40.980469 14.859375 40.980469 15.148438 C 40.980469 15.5625 40.976562 15.585938 40.855469 15.851562 C 40.734375 16.121094 40.730469 16.125 40.597656 16.125 C 40.46875 16.125 40.449219 16.105469 40.28125 15.882812 Z M 40.28125 15.882812 "
    />
    <path
      d="M 43.898438 15.785156 C 43.507812 15.613281 42.84375 15.273438 42.628906 15.136719 L 42.476562 15.046875 L 42.382812 15.199219 C 42.328125 15.285156 42.28125 15.355469 42.277344 15.363281 C 42.273438 15.371094 42.199219 15.34375 42.113281 15.300781 C 41.941406 15.207031 41.707031 15.136719 41.476562 15.105469 L 41.3125 15.082031 L 41.289062 14.757812 C 41.261719 14.378906 41.1875 14.0625 41.070312 13.835938 C 40.917969 13.535156 40.75 13.4375 40.390625 13.4375 L 40.203125 13.4375 L 40.183594 13.015625 C 40.152344 12.417969 40.066406 11.199219 39.984375 10.175781 C 39.863281 8.648438 39.832031 7.890625 39.851562 7.113281 C 39.875 6.25 39.933594 5.824219 40.105469 5.339844 C 40.171875 5.152344 40.425781 4.425781 40.671875 3.726562 C 40.917969 3.027344 41.15625 2.332031 41.210938 2.1875 C 41.285156 1.980469 41.304688 1.882812 41.285156 1.757812 C 41.246094 1.460938 41.050781 1.117188 40.734375 0.78125 L 40.609375 0.644531 L 43.863281 0.644531 L 43.863281 0.871094 C 43.863281 0.992188 43.925781 3.492188 44.003906 6.429688 C 44.082031 9.371094 44.144531 11.867188 44.144531 11.984375 C 44.148438 12.207031 44.152344 12.207031 44.269531 12.027344 C 44.304688 11.980469 44.34375 11.992188 44.554688 12.117188 C 45.214844 12.503906 46.308594 12.921875 47.117188 13.089844 C 47.894531 13.253906 48.140625 13.273438 49.089844 13.273438 C 50.128906 13.273438 50.511719 13.230469 51.386719 13.007812 C 52.109375 12.824219 52.550781 12.652344 53.273438 12.289062 L 53.878906 11.984375 L 54.203125 12.527344 L 54.523438 13.066406 L 54.128906 13.28125 C 52.121094 14.378906 49.800781 14.789062 47.527344 14.453125 C 46.335938 14.277344 44.992188 13.824219 43.988281 13.257812 C 43.816406 13.15625 43.664062 13.078125 43.652344 13.078125 C 43.640625 13.078125 43.507812 13.289062 43.351562 13.546875 C 43.15625 13.878906 43.085938 14.03125 43.113281 14.058594 C 43.132812 14.085938 43.386719 14.226562 43.679688 14.378906 L 44.210938 14.65625 L 44.234375 15.238281 C 44.25 15.5625 44.257812 15.847656 44.25 15.878906 C 44.238281 15.925781 44.179688 15.914062 43.898438 15.785156 Z M 74.726562 10.851562 C 74.71875 10.785156 74.6875 10.574219 74.667969 10.382812 C 74.617188 9.949219 74.285156 8.199219 74.136719 7.597656 C 74.003906 7.050781 73.9375 6.554688 73.972656 6.332031 C 73.996094 6.171875 74.136719 5.941406 74.183594 5.984375 C 74.195312 5.996094 74.21875 6.1875 74.242188 6.414062 C 74.359375 7.644531 74.804688 9.808594 75.058594 10.414062 L 75.132812 10.585938 L 74.9375 10.78125 L 74.746094 10.976562 Z M 74.726562 10.851562 "
    />
    <path
      d="M 48.449219 9.808594 C 47.796875 9.742188 47.011719 9.507812 46.421875 9.203125 C 46.277344 9.128906 46.136719 9.054688 46.105469 9.035156 C 46.070312 9.007812 46.125 8.890625 46.375 8.46875 C 46.542969 8.175781 46.6875 7.933594 46.691406 7.929688 C 46.691406 7.925781 46.835938 7.992188 47.011719 8.082031 C 47.65625 8.410156 48.324219 8.5625 49.09375 8.5625 C 49.839844 8.5625 50.453125 8.421875 51.109375 8.101562 L 51.472656 7.921875 L 51.792969 8.460938 C 51.96875 8.757812 52.113281 9.003906 52.113281 9.007812 C 52.113281 9.015625 51.933594 9.109375 51.714844 9.21875 C 50.671875 9.734375 49.589844 9.933594 48.449219 9.808594 Z M 78.292969 4.222656 L 76.5625 1.058594 L 76.726562 0.996094 C 76.933594 0.921875 76.980469 0.917969 76.980469 0.980469 C 76.980469 1.085938 77.464844 2.003906 78.105469 3.117188 C 79.070312 4.796875 79.339844 5.289062 79.632812 5.890625 C 80.015625 6.671875 80.171875 7.183594 80.066406 7.324219 C 80.023438 7.382812 79.851562 7.082031 78.292969 4.222656 Z M 78.292969 4.222656 "
    />
  </g>
</svg>
