<svg xmlns="http://www.w3.org/2000/svg" id="root" viewBox="0 0 99 50">
  <path
    d="M 0 49.917969 C 0 49.847656 1.984375 48.757812 4.441406 47.480469 C 11.460938 43.835938 13.707031 42.253906 23.15625 34.375 C 35.632812 23.96875 40.621094 20.371094 49.386719 15.40625 C 52.410156 13.679688 54.679688 12.519531 55.460938 12.285156 C 55.910156 12.140625 56.050781 12.285156 56.453125 13.183594 C 57.160156 14.789062 58.601562 19.191406 58.601562 19.734375 C 58.601562 20.066406 58.296875 20.324219 57.5625 20.65625 C 56.167969 21.25 51.585938 23.851562 48.085938 26.050781 C 44.449219 28.320312 40.429688 31.113281 33.8125 35.984375 C 30.929688 38.113281 27.316406 40.667969 25.78125 41.660156 C 20.109375 45.375 13.585938 48.285156 8.507812 49.394531 C 6.78125 49.773438 0 50.175781 0 49.917969 Z M 61.203125 20.824219 C 60.46875 20.5625 60.351562 20.421875 60.234375 19.472656 C 59.902344 17.34375 58.105469 13.015625 56.804688 11.265625 C 56.121094 10.34375 56.097656 10.15625 56.710938 9.539062 C 57.066406 9.183594 57.492188 9.066406 58.484375 9.066406 C 59.570312 9.066406 59.878906 9.183594 60.5625 9.777344 C 61.578125 10.652344 62.855469 13.0625 63.800781 15.855469 C 64.605469 18.316406 64.699219 19.664062 64.109375 20.398438 C 63.589844 21.035156 62.289062 21.222656 61.203125 20.824219 Z M 65.171875 15.738281 C 64.886719 14.269531 64.4375 13.039062 63.613281 11.359375 L 62.429688 9.066406 L 63.066406 8.925781 C 64.699219 8.570312 66.707031 7.648438 70.015625 5.707031 C 74.125 3.292969 76.773438 1.96875 78.804688 1.285156 C 82.277344 0.148438 87.925781 0.03125 90.007812 1.070312 C 91.683594 1.921875 91.96875 2.703125 91.847656 5.992188 C 91.730469 9.042969 91.304688 10.554688 90.3125 11.503906 L 89.652344 12.117188 L 88.257812 11.195312 C 87.476562 10.675781 86.605469 10.25 86.34375 10.25 C 86.011719 10.25 85.492188 10.699219 84.832031 11.550781 C 83.601562 13.160156 83.035156 13.230469 81.429688 12 C 80.367188 11.195312 80.292969 11.171875 79.75 11.527344 C 79.445312 11.738281 78.898438 12.378906 78.546875 12.96875 C 78.214844 13.5625 77.625 14.199219 77.246094 14.386719 C 76.632812 14.71875 76.488281 14.695312 75.308594 14.128906 C 73.511719 13.230469 73.015625 13.417969 71.714844 15.453125 C 70.558594 17.273438 70.324219 17.367188 68.882812 16.636719 C 67.746094 16.042969 67.0625 16.164062 66.1875 17.109375 L 65.550781 17.816406 Z M 65.171875 15.738281 "
  />
  <path
    d="M 90.078125 13.371094 C 89.863281 13.230469 89.933594 13.085938 90.359375 12.898438 C 90.714844 12.734375 91.234375 12.023438 91.777344 10.910156 C 93.363281 7.71875 93.480469 3.246094 92.0625 1.378906 C 91.730469 0.929688 91.449219 0.527344 91.449219 0.457031 C 91.449219 0.125 93.054688 -0.136719 93.785156 0.078125 C 96.125 0.738281 96.667969 2.917969 95.726562 7.574219 C 94.898438 11.597656 93.457031 13.5625 91.351562 13.5625 C 90.808594 13.5625 90.242188 13.464844 90.078125 13.371094 Z M 96.171875 9.941406 C 96.171875 9.777344 96.503906 9.445312 96.90625 9.207031 C 97.613281 8.78125 98.300781 7.601562 98.300781 6.820312 C 98.300781 6.605469 98.039062 6.179688 97.710938 5.847656 C 97.191406 5.328125 96.90625 4.570312 97.238281 4.570312 C 97.613281 4.570312 98.726562 5.304688 98.867188 5.636719 C 99.105469 6.296875 99.007812 7.976562 98.703125 8.59375 C 98.183594 9.632812 96.171875 10.699219 96.171875 9.941406 Z M 96.171875 9.941406 "
  />
</svg>
