<svg xmlns="http://www.w3.org/2000/svg" id="root" viewBox="0 0 100 62">
  <g>
    <path
      d="M 14.117188 60.367188 L 14.25 58.753906 L 15.125 56.898438 C 15.609375 55.863281 15.960938 54.980469 15.917969 54.933594 C 15.851562 54.890625 15.585938 55 15.300781 55.199219 L 14.773438 55.550781 L 13.851562 57.628906 L 12.953125 59.703125 L 12.953125 61.757812 L 12.425781 61.757812 C 11.195312 61.757812 7.089844 61.269531 3.6875 60.71875 L 0 60.125 L 0 59.660156 C 0 58.996094 0.570312 54.492188 0.964844 51.976562 L 1.316406 49.789062 L 2.371094 48.574219 L 3.402344 47.339844 L 5.90625 45.707031 C 7.265625 44.800781 8.410156 44.09375 8.453125 44.136719 C 8.539062 44.246094 12.03125 49.148438 13.941406 51.867188 L 15.695312 54.359375 L 16.96875 55.222656 L 18.242188 56.058594 L 17.714844 56.65625 C 16.992188 57.453125 16.882812 57.828125 16.707031 59.992188 L 16.574219 61.867188 L 15.28125 61.933594 L 13.984375 62 Z M 14.117188 60.367188 "
    />
    <path
      d="M 17.277344 54.449219 L 16.246094 53.765625 L 12.734375 48.773438 L 9.199219 43.785156 L 10.472656 42.527344 L 11.746094 41.289062 L 17.234375 37.535156 C 26.71875 31.066406 30.363281 28.570312 31.613281 27.710938 L 32.820312 26.871094 L 33.566406 26.871094 L 34.007812 27.445312 C 34.269531 27.777344 34.46875 28.109375 34.46875 28.171875 C 34.46875 28.261719 32.976562 29.5 31.152344 30.957031 C 29.332031 32.414062 27.640625 33.847656 27.421875 34.136719 L 27.003906 34.664062 L 27.003906 35.59375 L 29.550781 38.59375 L 32.074219 41.621094 L 33.039062 41.332031 L 34.007812 41.023438 L 37.277344 38.59375 L 40.570312 36.144531 L 41.425781 36.144531 L 41.84375 36.917969 L 42.238281 37.691406 L 42.042969 37.867188 C 41.25 38.59375 35.390625 42.945312 30.1875 46.675781 C 26.804688 49.082031 22.832031 51.996094 21.339844 53.101562 C 19.847656 54.226562 18.550781 55.132812 18.464844 55.132812 C 18.375 55.132812 17.828125 54.824219 17.277344 54.449219 Z M 51 41.929688 L 50.097656 41.554688 L 48.78125 40.296875 L 47.441406 39.015625 L 47.15625 38.992188 C 47.003906 38.972656 46.519531 38.992188 46.082031 39.015625 L 45.269531 39.035156 L 44.457031 38.066406 L 43.621094 37.070312 L 43.359375 37.160156 L 43.074219 37.269531 L 42.414062 36.300781 L 41.757812 35.328125 L 43.667969 33.9375 C 47.484375 31.132812 47.992188 30.734375 49.660156 29.476562 L 51.371094 28.195312 L 51.878906 28.304688 L 52.402344 28.4375 L 53.238281 28.085938 L 54.09375 27.753906 L 54.203125 27.929688 C 54.269531 28.042969 54.578125 28.503906 54.882812 28.945312 L 55.433594 29.742188 L 56.222656 30.007812 L 56.53125 29.742188 L 56.839844 29.5 L 57.628906 30.734375 C 58.59375 32.257812 59.011719 33.296875 59.339844 34.972656 L 59.605469 36.253906 L 59.277344 37.625 L 58.945312 38.992188 L 57.957031 40.03125 L 56.96875 41.046875 L 54.46875 42.328125 L 53.195312 42.304688 L 51.921875 42.304688 Z M 55.542969 39.765625 L 56.597656 39.191406 L 57.101562 38.507812 L 57.628906 37.800781 L 57.605469 36.695312 L 57.605469 35.59375 L 56.96875 34.15625 C 56.617188 33.363281 56.203125 32.546875 56.027344 32.347656 L 55.71875 31.972656 L 54.378906 31.839844 L 53.019531 31.683594 L 51.878906 32.257812 L 50.757812 32.832031 L 50.1875 33.515625 L 49.636719 34.179688 L 49.394531 35.105469 C 49.265625 35.613281 49.109375 36.144531 49.066406 36.300781 L 48.980469 36.5625 L 49.550781 37.824219 L 50.097656 39.058594 L 51.460938 39.699219 L 52.800781 40.339844 L 54.488281 40.339844 Z M 55.542969 39.765625 "
    />
    <path
      d="M 51.789062 38.992188 L 50.78125 38.550781 L 50.316406 37.558594 L 49.835938 36.5625 L 50.078125 35.660156 L 50.316406 34.753906 L 50.757812 34.15625 L 51.195312 33.5625 L 52.183594 33.054688 L 53.171875 32.566406 L 54.25 32.65625 L 55.347656 32.765625 L 55.652344 33.1875 C 55.808594 33.40625 56.15625 34.15625 56.398438 34.84375 L 56.859375 36.078125 L 56.859375 36.652344 C 56.859375 36.960938 56.75 37.492188 56.597656 37.800781 L 56.355469 38.351562 L 55.367188 38.90625 L 54.378906 39.457031 L 53.589844 39.457031 L 52.800781 39.433594 Z M 31.679688 39.855469 C 30.40625 38.484375 28.101562 35.59375 28.101562 35.351562 L 28.101562 35.085938 L 29.703125 33.9375 C 30.558594 33.273438 33.171875 31.265625 35.457031 29.433594 C 37.761719 27.621094 40.527344 25.414062 41.601562 24.550781 L 43.578125 22.984375 L 44.414062 22.609375 L 45.246094 22.234375 L 46.277344 22.234375 L 47.113281 23.292969 C 47.574219 23.867188 48.582031 25.058594 49.375 25.964844 L 50.800781 27.578125 L 50.472656 27.84375 C 49.089844 28.925781 43.710938 32.898438 41.382812 34.554688 C 39.824219 35.679688 37.9375 37.027344 37.210938 37.578125 C 36.488281 38.109375 35.234375 38.992188 34.445312 39.542969 L 33.019531 40.558594 L 32.359375 40.558594 Z M 35.148438 37.710938 L 36.992188 36.851562 L 42.042969 32.613281 C 44.828125 30.292969 47.222656 28.261719 47.375 28.109375 L 47.660156 27.820312 L 47.859375 26.980469 L 48.058594 26.121094 L 47.617188 25.503906 L 47.15625 24.882812 L 46.519531 24.550781 L 45.882812 24.199219 L 44.828125 24.550781 C 44.257812 24.75 43.511719 25.105469 43.140625 25.324219 C 42.238281 25.898438 37.101562 29.828125 33.765625 32.5 L 31 34.710938 L 30.757812 35.503906 C 30.625 35.945312 30.515625 36.628906 30.515625 37.027344 L 30.515625 37.757812 L 30.890625 38.175781 L 31.242188 38.574219 L 33.304688 38.574219 Z M 35.148438 37.710938 "
    />
    <path
      d="M 31.546875 37.757812 L 31.394531 37.625 L 31.394531 35.726562 L 31.898438 35.171875 C 32.535156 34.464844 37.519531 30.515625 42.0625 27.113281 L 43.84375 25.765625 L 44.785156 25.4375 L 45.730469 25.105469 L 46.101562 25.214844 C 46.324219 25.28125 46.652344 25.523438 46.851562 25.746094 L 47.222656 26.164062 L 47.046875 26.828125 L 46.871094 27.488281 L 41.820312 31.730469 L 36.773438 35.96875 L 34.753906 36.941406 L 32.710938 37.910156 L 32.207031 37.910156 C 31.921875 37.910156 31.613281 37.84375 31.546875 37.757812 Z M 76.070312 35.988281 C 75.476562 35.96875 73.546875 35.835938 71.789062 35.703125 L 68.605469 35.460938 L 67.15625 34.777344 L 65.730469 34.089844 L 64.105469 31.816406 L 62.503906 29.519531 L 61.976562 29.167969 L 61.425781 28.8125 L 60.152344 29.71875 C 59.449219 30.226562 58.769531 30.625 58.660156 30.625 L 58.441406 30.625 L 57.980469 29.828125 L 57.496094 29.035156 L 58.066406 28.503906 C 58.375 28.238281 58.617188 27.886719 58.617188 27.753906 L 58.617188 27.535156 L 59.144531 27.664062 L 59.648438 27.777344 L 61.886719 26.496094 C 63.117188 25.789062 64.324219 25.039062 64.566406 24.816406 L 64.984375 24.421875 L 64.984375 23.800781 L 63.84375 22.433594 L 62.699219 21.0625 L 63.207031 20.710938 C 63.492188 20.511719 64.082031 20.160156 64.523438 19.894531 L 65.3125 19.429688 L 65.378906 18.964844 L 65.445312 18.503906 L 64.523438 16.933594 L 63.601562 15.367188 L 63.207031 15.148438 L 62.808594 14.949219 L 61.933594 15.148438 L 61.054688 15.34375 L 60.8125 15.058594 L 60.570312 14.769531 L 61.011719 14.460938 C 61.535156 14.085938 61.601562 13.753906 61.382812 12.585938 L 61.230469 11.679688 L 60.417969 11.105469 L 59.605469 10.554688 L 57.410156 9.78125 L 55.214844 9.03125 L 50.648438 8.414062 L 46.082031 7.816406 L 44.542969 8.082031 L 43.03125 8.367188 L 42.480469 9.050781 C 41.777344 10.003906 41.535156 10.730469 41.472656 12.011719 L 41.40625 13.070312 L 41.558594 13.625 L 41.710938 14.175781 L 41.183594 13.070312 L 40.636719 11.96875 L 40.636719 11.414062 L 40.613281 10.839844 L 40.8125 10.640625 C 40.921875 10.511719 41.121094 10.070312 41.25 9.648438 L 41.515625 8.875 L 42.480469 8.101562 L 43.46875 7.308594 L 46.367188 7.265625 L 49.285156 7.199219 L 53.960938 7.660156 L 58.617188 8.101562 L 59.5625 7.640625 C 60.769531 7.019531 61.207031 6.625 61.691406 5.675781 L 62.085938 4.902344 L 62.238281 2.671875 L 62.394531 0.464844 L 62.746094 0.242188 L 63.117188 0 L 67.289062 0.398438 C 69.59375 0.597656 73.765625 1.058594 76.597656 1.414062 L 81.710938 2.03125 L 82.394531 2.890625 L 83.050781 3.730469 L 83.007812 4.878906 L 82.964844 6.003906 L 82.523438 6.46875 L 82.085938 6.957031 L 82.21875 7.75 L 82.371094 8.542969 L 81.273438 8.542969 L 81.140625 8.191406 C 81.074219 7.992188 81.011719 7.707031 81.011719 7.527344 L 81.011719 7.21875 L 81.886719 6.335938 L 81.886719 4.679688 L 81.710938 4.414062 L 81.535156 4.128906 L 78.792969 3.820312 C 77.277344 3.644531 75.125 3.421875 74.027344 3.335938 L 72.03125 3.179688 L 71.8125 3.730469 L 71.613281 4.285156 L 71.480469 6.359375 C 71.394531 7.507812 71.285156 8.964844 71.21875 9.605469 L 71.109375 10.753906 L 73.808594 10.753906 L 73.917969 10.289062 L 74.050781 9.824219 L 75.300781 9.957031 L 76.574219 10.113281 L 77.234375 8.941406 L 77.890625 7.773438 L 78.902344 6.777344 L 79.914062 5.808594 L 79.867188 8.722656 L 79.847656 11.636719 L 79.320312 11.636719 C 79.035156 11.636719 76.597656 11.4375 73.875 11.171875 L 68.914062 10.707031 L 68.058594 11.460938 L 67.199219 12.1875 L 66.542969 13.511719 L 65.90625 14.835938 L 65.773438 15.984375 L 65.664062 17.113281 L 66.652344 18.679688 L 67.640625 20.226562 L 68.34375 20.359375 C 69.109375 20.488281 80.109375 21.570312 80.660156 21.570312 L 81.011719 21.570312 L 81.011719 22.277344 L 80.261719 22.144531 L 79.539062 22.011719 L 79.40625 22.632812 C 79.339844 22.984375 79.210938 24.773438 79.121094 26.605469 C 79.035156 28.460938 78.925781 29.960938 78.859375 29.960938 C 78.792969 29.960938 78.398438 29.742188 78.003906 29.476562 L 77.277344 28.96875 L 76.617188 26.847656 L 75.960938 24.730469 L 75.960938 23.140625 L 75.71875 22.519531 L 75.476562 21.902344 L 75.171875 22.519531 L 74.839844 23.140625 L 74.359375 23.074219 L 73.875 23.007812 L 73.941406 22.300781 L 74.007812 21.570312 L 71.351562 21.570312 L 71.351562 21.75 C 71.328125 21.835938 71.152344 23.890625 70.910156 26.296875 L 70.515625 30.714844 L 71.019531 31.75 L 71.546875 32.789062 L 72.273438 32.921875 C 73.261719 33.097656 77.015625 33.496094 77.828125 33.496094 L 78.484375 33.496094 L 78.902344 32.746094 L 79.296875 31.992188 L 79.121094 31.683594 C 79.011719 31.53125 78.902344 31.242188 78.878906 31.023438 L 78.816406 30.667969 L 79.515625 30.425781 C 79.890625 30.292969 80.261719 30.183594 80.351562 30.183594 C 80.503906 30.183594 81.011719 31.175781 81.011719 31.507812 L 81.011719 31.730469 L 80.394531 31.730469 L 80.042969 32.679688 C 79.867188 33.1875 79.671875 34.003906 79.582031 34.488281 C 79.515625 34.972656 79.40625 35.546875 79.339844 35.769531 L 79.230469 36.144531 L 78.199219 36.101562 C 77.628906 36.078125 76.683594 36.035156 76.070312 35.988281 Z M 76.070312 35.988281 "
    />
    <path
      d="M 55.214844 27.976562 C 54.773438 27.378906 54.3125 26.871094 54.203125 26.871094 C 54.09375 26.871094 53.632812 27.027344 53.195312 27.203125 C 52.777344 27.378906 52.339844 27.535156 52.226562 27.535156 C 52.007812 27.535156 50.273438 25.015625 50.273438 24.707031 C 50.273438 24.574219 50.429688 24.441406 50.605469 24.355469 L 50.933594 24.242188 L 50.933594 22.542969 L 50.648438 22.167969 L 50.382812 21.769531 L 49.617188 22.035156 L 48.871094 22.300781 L 47.199219 20.402344 L 47.070312 19.871094 L 46.914062 19.320312 L 47.773438 18.457031 L 48.605469 17.597656 L 48.058594 16.425781 L 47.507812 15.277344 L 47.640625 14.417969 L 47.75 13.558594 L 48.519531 13.269531 C 48.933594 13.117188 49.59375 12.984375 49.988281 12.984375 L 50.667969 12.960938 L 51.128906 13.753906 L 51.613281 14.550781 L 52.03125 14.175781 L 52.46875 13.777344 L 52.46875 13.050781 L 51.765625 12.363281 C 51.371094 11.988281 50.824219 11.570312 50.558594 11.4375 L 50.078125 11.195312 L 48.890625 11.195312 L 47.835938 11.878906 L 46.804688 12.542969 L 46.433594 13.117188 L 46.058594 13.691406 L 46.148438 15.191406 L 46.257812 16.691406 L 46.628906 17.289062 L 47.023438 17.863281 L 46.609375 18.171875 L 46.214844 18.480469 L 44.828125 17 L 43.445312 15.5 L 42.808594 14.242188 L 42.171875 13.003906 L 42.304688 11.8125 L 42.4375 10.640625 L 42.917969 9.890625 L 43.382812 9.117188 L 44.699219 8.855469 L 45.992188 8.589844 L 47.859375 8.875 C 48.890625 9.03125 51.019531 9.339844 52.578125 9.539062 L 55.433594 9.9375 L 56.96875 10.464844 C 57.828125 10.753906 58.925781 11.214844 59.449219 11.460938 L 60.375 11.945312 L 60.59375 12.71875 L 60.8125 13.511719 L 60.394531 13.84375 C 60.175781 14.019531 59.914062 14.375 59.847656 14.640625 L 59.714844 15.082031 L 60.328125 15.675781 L 60.964844 16.292969 L 61.558594 16.050781 C 61.886719 15.941406 62.347656 15.832031 62.570312 15.832031 L 62.964844 15.832031 L 63.578125 16.890625 C 63.90625 17.464844 64.304688 18.128906 64.480469 18.390625 L 64.765625 18.835938 L 63.117188 19.785156 L 61.472656 20.710938 L 62.503906 22.035156 C 63.84375 23.714844 64.191406 24.222656 64.082031 24.289062 C 63.667969 24.617188 59.496094 26.871094 59.339844 26.847656 C 59.253906 26.847656 57.300781 24.375 54.996094 21.351562 C 52.710938 18.304688 50.734375 15.832031 50.648438 15.832031 C 50.558594 15.832031 50.429688 15.984375 50.363281 16.164062 L 50.230469 16.472656 L 51.636719 18.523438 C 52.425781 19.652344 53.632812 21.417969 54.335938 22.457031 C 55.039062 23.492188 56.113281 25.039062 56.707031 25.921875 L 57.804688 27.511719 L 57.519531 27.863281 C 57.367188 28.0625 56.949219 28.417969 56.617188 28.660156 L 56.027344 29.078125 Z M 55.214844 27.976562 "
    />
    <path
      d="M 35.125 28.109375 L 35.125 27.578125 L 34.597656 26.9375 L 34.074219 26.320312 L 38.945312 22.917969 L 43.796875 19.519531 L 44.5 19.296875 L 45.179688 19.078125 L 45.554688 19.210938 L 45.90625 19.363281 L 46.214844 20.070312 L 46.5 20.800781 L 47.597656 22.011719 L 48.695312 23.226562 L 49.375 22.964844 L 50.054688 22.71875 L 50.054688 23.667969 L 49.660156 24.175781 L 49.285156 24.664062 L 48.1875 23.25 L 47.089844 21.816406 L 46.367188 21.570312 L 45.664062 21.308594 L 44.589844 21.683594 L 43.511719 22.035156 L 42.019531 23.183594 C 41.230469 23.824219 40.242188 24.574219 39.847656 24.882812 C 39.449219 25.191406 38.222656 26.164062 37.125 27.046875 L 35.125 28.636719 Z M 75.871094 20.335938 C 73.214844 20.046875 70.40625 19.738281 69.617188 19.652344 L 68.1875 19.472656 L 67.355469 18.28125 L 66.542969 17.089844 L 66.675781 15.742188 L 66.804688 14.394531 L 67.398438 13.511719 C 67.75 13.027344 68.253906 12.386719 68.5625 12.121094 L 69.109375 11.59375 L 74.25 12.054688 C 77.058594 12.320312 79.800781 12.585938 80.328125 12.652344 L 81.296875 12.785156 L 81.164062 16.117188 C 81.074219 17.972656 81.011719 19.804688 81.011719 20.203125 L 81.011719 20.910156 L 80.855469 20.886719 C 80.746094 20.867188 78.507812 20.621094 75.871094 20.335938 Z M 84.851562 20.777344 C 84.609375 20.734375 83.84375 20.644531 83.160156 20.578125 L 81.886719 20.445312 L 81.886719 16.292969 L 82.238281 16.074219 L 84.347656 16.339844 L 86.476562 16.582031 L 86.34375 17.199219 L 86.234375 17.820312 L 86.851562 17.820312 C 87.199219 17.820312 89.660156 18.015625 92.316406 18.261719 L 97.144531 18.679688 L 98.242188 19.054688 C 98.859375 19.230469 99.496094 19.453125 99.671875 19.519531 L 100 19.605469 L 99.253906 19.9375 L 98.484375 20.269531 L 93.546875 19.804688 C 90.824219 19.5625 88.253906 19.296875 87.835938 19.230469 L 87.089844 19.121094 L 87.222656 20.003906 L 87.332031 20.910156 L 86.324219 20.886719 C 85.75 20.867188 85.09375 20.820312 84.851562 20.777344 Z M 43.335938 17.554688 C 42.699219 16.539062 41.648438 14.285156 41.820312 14.285156 C 41.867188 14.285156 42.109375 14.660156 42.347656 15.125 C 42.589844 15.589844 43.226562 16.472656 43.777344 17.089844 C 44.324219 17.707031 44.785156 18.28125 44.785156 18.347656 C 44.785156 18.414062 44.589844 18.480469 44.347656 18.480469 L 43.90625 18.480469 Z M 80.527344 11.703125 C 80.789062 11.65625 81.183594 11.65625 81.40625 11.703125 L 81.777344 11.8125 L 80.898438 11.789062 L 80.023438 11.789062 Z M 80.527344 11.703125 "
    />
  </g>
</svg>
