<svg id="root" xmlns="http://www.w3.org/2000/svg" width="768" height="441" viewBox="0 0 7680 4410">
  <g>
    <path
      d="m2393 3637 6-73 40-84c22-47 38-87 36-89-3-2-15 3-28 12l-24 16-42 94-41 94v93h-24c-56 0-243-22-398-47l-168-27v-21c0-30 26-234 44-348l16-99 48-55 47-56 114-74c62-41 114-73 116-71 4 5 163 227 250 350l80 113 58 39 58 38-24 27c-33 36-38 53-46 151l-6 85-59 3-59 3 6-74z" />
    <path
      d="m2537 3369-47-31-160-226-161-226 58-57 58-56 250-170c432-293 598-406 655-445l55-38h34l20 26c12 15 21 30 21 33 0 4-68 60-151 126s-160 131-170 144l-19 24v42l116 136 115 137 44-13 44-14 149-110 150-111h39l19 35 18 35-9 8c-36 33-303 230-540 399-154 109-335 241-403 291-68 51-127 92-131 92s-29-14-54-31zm1536-567-41-17-60-57-61-58-13-1c-7-1-29 0-49 1l-37 1-37-44-38-45-12 4-13 5-30-44-30-44 87-63c174-127 197-145 273-202l78-58 23 5 24 6 38-16 39-15 5 8c3 5 17 26 31 46l25 36 18 6 18 6 14-12 14-11 36 56c44 69 63 116 78 192l12 58-15 62-15 62-45 47-45 46-57 29-57 29-58-1h-58l-42-17zm207-98 48-26 23-31 24-32-1-50v-50l-29-65c-16-36-35-73-43-82l-14-17-61-6-62-7-52 26-51 26-26 31-25 30-11 42c-6 23-13 47-15 54l-4 12 26 57 25 56 62 29 61 29h77l48-26z" />
    <path
      d="m4109 2669-46-20-21-45-22-45 11-41 11-41 20-27 20-27 45-23 45-22 49 4 50 5 14 19c7 10 23 44 34 75l21 56v26c0 14-5 38-12 52l-11 25-45 25-45 25h-36l-36-1-46-20zm-916 39c-58-62-163-193-163-204v-12l73-52c39-30 158-121 262-204 105-82 231-182 280-221l90-71 38-17 38-17h47l38 48c21 26 67 80 103 121l65 73-15 12c-63 49-308 229-414 304-71 51-157 112-190 137-33 24-90 64-126 89l-65 46h-30l-31-32zm158-97 84-39 230-192c127-105 236-197 243-204l13-13 9-38 9-39-20-28-21-28-29-15-29-16-48 16c-26 9-60 25-77 35-41 26-275 204-427 325l-126 100-11 36c-6 20-11 51-11 69v33l17 19 16 18h94l84-39z" />
    <path
      d="m3187 2613-7-6v-86l23-25c29-32 256-211 463-365l81-61 43-15 43-15 17 5c10 3 25 14 34 24l17 19-8 30-8 30-230 192-230 192-92 44-93 44h-23c-13 0-27-3-30-7zm2028-80c-27-1-115-7-195-13l-145-11-66-31-65-31-74-103-73-104-24-16-25-16-58 41c-32 23-63 41-68 41h-10l-21-36-22-36 26-24c14-12 25-28 25-34v-10l24 6 23 5 102-58c56-32 111-66 122-76l19-18v-28l-52-62-52-62 23-16c13-9 40-25 60-37l36-21 3-21 3-21-42-71-42-71-18-10-18-9-40 9-40 9-11-13-11-13 20-14c24-17 27-32 17-85l-7-41-37-26-37-25-100-35-100-34-208-28-208-27-70 12-69 13-25 31c-32 43-43 76-46 134l-3 48 7 25 7 25-24-50-25-50v-25l-1-26 9-9c5-6 14-26 20-45l12-35 44-35 45-36 132-2 133-3 213 21 212 20 43-21c55-28 75-46 97-89l18-35 7-101 7-100 16-10 17-11 190 18c105 9 295 30 424 46l233 28 31 39 30 38-2 52-2 51-20 21-20 22 6 36 7 36h-50l-6-16c-3-9-6-22-6-30v-14l20-20 20-20v-75l-8-12-8-13-125-14c-69-8-167-18-217-22l-91-7-10 25-9 25-6 94c-4 52-9 118-12 147l-5 52h123l5-21 6-21 57 6 58 7 30-53 30-53 46-45 46-44-2 132-1 132h-24c-13 0-124-9-248-21l-226-21-39 34-39 33-30 60-29 60-6 52-5 51 45 71 45 70 32 6c35 6 536 55 561 55h16v32l-34-6-33-6-6 28c-3 16-9 97-13 180-4 84-9 152-12 152s-21-10-39-22l-33-23-30-96-30-96v-72l-11-28-11-28-14 28-15 28-22-3-22-3 3-32 3-33h-121v8c-1 4-9 97-20 206l-18 200 23 47 24 47 33 6c45 8 216 26 253 26h30l19-34 18-34-8-14c-5-7-10-20-11-30l-3-16 32-11c17-6 34-11 38-11 7 0 30 45 30 60v10h-28l-16 43c-8 23-17 60-21 82-3 22-8 48-11 58l-5 17-47-2c-26-1-69-3-97-5z" />
    <path
      d="M4265 2170c-20-27-41-50-46-50s-26 7-46 15c-19 8-39 15-44 15-10 0-89-114-89-128 0-6 7-12 15-16l15-5v-77l-13-17-12-18-35 12-34 12-38-43-38-43-6-24-7-25 39-39 38-39-25-53-25-52 6-39 5-39 35-13c19-7 49-13 67-13l31-1 21 36 22 36 19-17 20-18v-33l-32-31c-18-17-43-36-55-42l-22-11h-54l-48 31-47 30-17 26-17 26 4 68 5 68 17 27 18 26-19 14-18 14-63-67-63-68-29-57-29-56 6-54 6-53 22-34 21-35 60-12 59-12 85 13c47 7 144 21 215 30l130 18 70 24c39 13 89 34 113 45l42 22 10 35 10 36-19 15c-10 8-22 24-25 36l-6 20 28 27 29 28 27-11c15-5 36-10 46-10h18l28 48c15 26 33 56 41 68l13 20-75 43-75 42 47 60c61 76 77 99 72 102-19 15-209 117-216 116-4 0-93-112-198-249-104-138-194-250-198-250s-10 7-13 15l-6 14 64 93c36 51 91 131 123 178s81 117 108 157l50 72-13 16c-7 9-26 25-41 36l-27 19-37-50z" />
    <path
      d="M3350 2176v-24l-24-29-24-28 222-154 221-154 32-10 31-10 17 6 16 7 14 32 13 33 50 55 50 55 31-12 31-11v43l-18 23-17 22-50-64-50-65-33-11-32-12-49 17-49 16-68 52c-36 29-81 63-99 77s-74 58-124 98l-91 72v-24zm1856-352c-121-13-249-27-285-31l-65-8-38-54-37-54 6-61 6-61 27-40c16-22 39-51 53-63l25-24 234 21c128 12 253 24 277 27l44 6-6 151c-4 84-7 167-7 185v32l-7-1c-5-1-107-12-227-25zm409 20c-11-2-46-6-77-9l-58-6v-188l8-5 8-5 96 12 97 11-6 28-5 28h28c16 0 128 9 249 20l220 19 50 17c28 8 57 18 65 21l15 4-34 15-35 15-225-21c-124-11-241-23-260-26l-34-5 6 40 5 41-46-1c-26-1-56-3-67-5zm-1891-146c-29-46-77-148-69-148 2 0 13 17 24 38s40 61 65 89 46 54 46 57-9 6-20 6h-20l-26-42zm1694-265c12-2 30-2 40 0l17 5-40-1h-40l23-4z" />
  </g>
</svg>