<svg xmlns="http://www.w3.org/2000/svg" id="root" viewBox="180.4 200 4989.6 3661.6">
  <path
    d="M3420 3850c0-5-9-10-20-10s-20-4-20-10c0-5-9-10-20-10s-20-4-20-10c0-5-9-10-20-10s-20-4-20-10c0-5-9-10-20-10s-20-4-20-10c0-5-8-10-19-10-35 0-45-26-27-65 9-19 22-35 28-35 15 0 258 121 258 129 0 3-9 21-20 39-18 30-60 46-60 22zm-1607-37c-7-15-13-39-13-54s-4-31-10-34c-17-10-11-25 9-25 11 0 23-4 26-10 9-14 52-12 58 3 3 10 9 10 26 0 11-7 28-13 36-13s15-4 15-10c0-5 9-10 19-10 11 0 21-6 23-12 6-17 38 14 38 36 0 8 5 18 10 21 18 11 11 35-10 35-11 0-20 5-20 10 0 6-6 10-13 10-12 0-80 29-119 50-10 6-25 10-33 10s-15 5-15 10c0 19-15 10-27-17zm1643-128c-14-10-16-18-9-27 10-12 16-43 27-127 3-18 9-38 15-44s11-28 11-49c0-33 3-38 23-38 13 0 35 6 51 13 23 10 26 16 22 42-3 17-8 47-12 68-3 20-10 40-15 43s-9 20-9 39-4 37-10 40c-5 3-10 17-10 31 0 21-5 24-32 24-18 0-42-7-52-15zm-431-26c-33-18-86-45-118-62-68-35-72-39-55-69 22-37 41-55 46-40 2 6 12 12 23 12 10 0 19 5 19 10 0 6 9 10 20 10s20 5 20 10c0 6 6 10 14 10 20 0 138 63 143 77 5 13-33 73-45 73-4 0-34-14-67-31zm-889-11c-23-45-20-55 22-73 20-9 45-21 54-26 10-5 25-9 33-9s15-4 15-10c0-5 9-10 20-10s20-4 20-10c0-5 9-10 20-10s20-5 20-11c0-23 44-2 62 29 16 29 16 35 4 48-8 8-22 14-30 14-9 0-16 3-16 8 0 7-45 29-125 60-22 8-44 19-49 24-18 15-35 8-50-24zm-381-70c-10-28-22-81-30-128-4-19-10-44-14-55-36-90-36-89 31-98 39-6 47 4 62 76 4 15 11 27 16 27s7 14 3 31c-3 16-1 40 5 52s13 39 16 60c4 34 3 37-19 37-13 0-27 5-30 10-11 17-32 11-40-12zm748-62c-42-48-47-68-49-206-3-147-11-234-24-265-36-84-34-203 3-253 6-8 6-33-1-70-35-182-42-254-48-482-6-214 4-356 29-408 15-31 15-153 0-183-6-13-22-48-34-76-12-29-26-53-31-53-4 0-8-6-8-13 0-20-60-137-70-137-5 0-17 14-26 32-16 31-93 113-361 383-79 79-143 151-143 161 0 19-18 79-31 106-5 10-9 29-9 43s-4 25-10 25c-5 0-10-4-10-10 0-20-31-10-62 20-35 34-50 37-69 14-10-12-10-22-1-48 7-18 12-39 12-47s16-32 35-54 35-43 35-46c0-4 14-21 30-39 17-18 30-36 30-41 0-4 11-19 25-33s25-29 25-35c0-14 43-94 63-115 9-11 17-24 17-29 0-14 65-91 135-162 33-33 71-76 85-95 13-19 27-37 30-40 8-7 28-41 42-70 7-14 15-27 18-30s11-17 18-32c6-16 18-40 25-55 31-68 122-133 185-133 12 0 22-3 22-7 0-8 48-33 62-33 5 0 18-9 30-20s27-20 33-20c27 0 54-108 33-131-36-40-53-128-28-144 6-3 10-20 10-37 0-74 41-137 89-139 14 0 53-2 86-3 57-2 67 1 123 39 1 2 12 27 22 56 25 69 25 150 0 219-11 30-20 78-20 107 0 46 3 53 20 53 11 0 20 5 20 10 0 6 15 10 33 10 78 1 148 47 185 123 29 61 62 148 62 163 0 8 5 14 10 14 6 0 10 9 10 20s5 20 10 20c6 0 10 7 10 16 0 8 16 32 34 52 19 20 43 53 53 74s21 38 26 38c4 0 7 6 7 14 0 34 46 99 139 195 76 79 101 117 101 154 0 24-3 27-25 21-15-4-25-2-25 5 0 6-7 11-15 11s-15-4-15-10c0-5-6-10-13-10-22 0-47-34-47-63 0-14-4-29-10-32-5-3-10-14-10-23 0-17-119-142-136-142-18-1-127-113-169-174-76-109-91-95-136 129-16 76-23 274-10 299 29 59 43 365 32 672-10 268-16 335-31 369-5 11-11 34-15 50-30 145-29 194 4 250 48 77 61 108 61 142 0 64-63 86-99 34-12-16-21-35-21-43 0-7-7-31-16-53-8-22-17-48-21-57-3-10-9-18-14-18s-9-9-9-20-5-20-11-20c-7 0-9-17-4-52 9-72 9-212 1-273-6-40-4-60 14-100 13-31 17-51 11-53s-11-10-11-18-4-22-9-32c-5-9-15-37-21-62-7-25-16-56-20-70-31-101-50-202-50-265 0-44-4-56-20-65-24-13-26-2-41 220-5 91-14 192-19 225s-12 78-15 100c-4 22-13 55-22 74-15 34-17 50-14 106 2 27-13 206-20 245-7 35 29 200 43 200 4 0 10-4 13-10 3-5 17-10 31-10 13 0 24 5 24 10 0 6 9 10 20 10s20 5 20 10c0 6 9 10 20 10s20 5 20 10c0 6 9 10 20 10 23 0 25 15 8 53-18 38-33 40-88 12-27-14-52-25-55-25s-5 12-5 26c0 35-22 54-62 54-24 0-41-7-55-24zM233 3342c-33-3-47-22-18-22 9 0 25-9 37-20 24-22 48-26 65-9 8 8 13 8 17 0 4-6 25-11 46-11s42-4 45-10c3-5 26-10 51-10 24 0 44-4 44-10 0-5 18-10 39-10 22 0 43-4 46-10 3-5 26-10 51-10 24 0 44-4 44-10 0-5 18-10 39-10 22 0 43-4 46-10 3-5 21-10 40-10 26 0 43-10 78-45 30-30 51-43 61-39 18 7 22 24 6 24-5 0-10 10-10 22 0 17 3 19 12 10 15-15 38-16 38-2 0 6-7 10-15 10s-15 9-15 20c0 13 7 20 20 20 24 0 25 6 3 28-12 12-18 13-21 4-2-6-17-12-32-12-16 0-32-5-36-11-9-15-174 5-174 21 0 8-15 11-132 26-27 3-48 10-48 14s-19 11-42 14c-103 13-128 19-134 27-3 5-16 9-30 9s-27 6-30 13c-5 14-30 16-91 9zm3362-32c-3-5-17-10-31-10-21 0-24-5-24-34 0-19 4-37 9-40s11-23 14-43c7-48 23-119 34-158 6-19 12-25 17-17 4 7 23 12 42 12h35l-7 53c-4 28-10 56-15 62-5 5-9 26-9 47s-4 38-10 38c-5 0-10 17-10 38 0 48-28 80-45 52zm-1929-109c-1-3-8-26-15-51s-17-53-22-62c-5-10-9-36-9-57 0-22-4-43-10-46-5-3-10-19-10-36 0-22 5-29 19-29 11 0 23-4 26-10 13-21 45-10 50 18 4 15 10 35 16 44 5 10 9 36 9 57 0 22 5 43 10 46 6 3 10 21 10 39 0 17 5 37 12 44 17 17-6 39-48 44-19 2-36 2-38-1zm2034-248c0-7-4-13-10-13-5 0-10-9-10-19 0-11-6-21-12-24-17-6 20-36 44-37 9 0 20-4 23-10 3-5 15-10 26-10 10 0 19-4 19-10 0-5 9-10 20-10s20-4 20-10c0-5 9-10 20-10s20-4 20-10c0-5 9-10 20-10s20-4 20-10c0-24 36-7 52 25 20 40 15 65-13 65-10 0-19 5-19 10 0 6-9 10-20 10s-20 5-20 10c0 6-9 10-20 10s-20 5-20 10c0 6-6 10-13 10-22 0-67 24-67 36 0 6-13 11-30 11-18 0-30-6-30-14zm-2213-58c-9-8-20-15-25-15s-44-18-87-40-84-40-91-40c-23 0-27-21-9-61 16-35 45-54 45-29 0 6 6 10 13 10 22 0 227 103 226 114-1 17-34 69-46 73-6 2-18-3-26-12zm2573-115c0-11-4-20-10-20-5 0-10-12-10-28 0-25 9-32 108-80 59-28 113-52 120-52s12-4 12-10c0-5 5-10 10-10 6 0 10 7 10 16s9 29 21 45l20 29-23 9c-13 5-66 29-118 55-52 25-100 46-107 46s-13 5-13 10c0 6-4 10-10 10-5 0-10-9-10-20zm-3037-111c-73-36-123-66-123-75 0-8 5-14 10-14 19 0 10-53-12-71-11-11-24-19-28-19-22 0-16-33 11-61 16-17 29-35 29-40 0-4 16-24 35-43 19-20 35-39 35-43 0-12 46-63 56-63 14 1 64 48 64 61 0 6-8 19-18 28s-29 32-42 51c-14 19-35 45-47 58-13 13-23 27-23 32s-7 16-16 24c-14 14-14 18 0 31 8 8 22 15 30 15 9 0 16 5 16 10 0 6 9 10 20 10s20 5 20 10c0 6 9 10 20 10s20 5 20 10c0 6 9 10 20 10s20 5 20 10c0 6 7 10 15 10 28 0 65 24 65 42 0 10-3 18-8 18-4 0-12 10-17 22-6 12-14 23-20 24-5 2-65-24-132-57zm3389-85c-23-25-32-43-29-56 6-21-21-88-35-88-4 0-8-7-8-15 0-19 44-65 61-65 12 0 49 37 49 49 0 4 25 33 55 66 30 32 55 63 55 68 0 14-27 37-44 37-9 0-16 5-16 10 0 6-9 10-20 10s-20 5-20 10c0 18-15 10-48-26zm-162-254c0-5-19-29-43-52-45-45-127-150-127-162s49-56 62-56c8 0 22 14 32 31s37 49 60 72c48 48 86 100 86 116 0 15-45 61-60 61-5 0-10-4-10-10zm-3120-149-33-28 24-34c13-19 34-44 46-57 13-13 23-26 23-30s14-23 31-42 34-40 38-48c11-19 81 15 81 40 0 10-4 18-9 18s-12 9-16 19c-3 11-21 36-40 57s-35 42-35 47-13 22-30 37c-16 15-30 33-30 39 0 18-15 13-50-18zm2803-218c-38-40-53-64-53-84 0-15 5-31 10-34 6-3 10-21 10-38 1-41 25-76 42-59 7 7 22 12 35 12 20 0 23 5 23 34 0 19-4 38-10 41-20 12-9 37 35 82 25 25 45 49 45 54 0 16-44 49-64 49-12-1-44-25-73-57zm-2563-99c-27-27-32-37-21-43 10-6 12-19 7-42-4-19-11-56-15-84-5-27-12-59-15-70-6-17 0-22 33-32 58-18 61-17 61 26 0 22 5 43 10 46 6 3 10 28 10 55s5 52 10 55c22 14 7 80-26 112-16 16-13 18-54-23zm3097-31c-4-3-7-21-7-40 0-35-5-39-30-23-9 5-19 5-27-2-17-14-16-28 2-28 8 0 15-9 15-20 0-16-7-20-30-20-27 0-30-3-30-32 0-25 3-29 12-20 7 7 31 12 54 12 24 0 46 5 49 10 7 12 65 13 65 2 0-5 18-14 40-21 22-6 40-16 40-21 0-4 17-14 37-21 21-6 44-18 51-26 8-8 27-17 43-20s29-9 29-14 9-9 20-9 20-4 20-8c0-5 18-15 40-22s40-17 40-21 17-13 37-20c41-13 83-50 83-74 0-12 14-15 75-15 41 0 75 4 75 9 0 4-13 22-30 39-16 18-30 37-30 43 0 7-12 9-32 6-30-4-106 17-118 33-3 4-22 13-42 19-21 7-38 17-38 22s-6 9-12 9c-7 0-59 23-116 50-57 28-106 50-110 50s-18 9-32 20-34 20-45 20c-17 0-23 11-34 58-7 31-18 63-23 70-11 13-31 16-41 5zm-487-183c0-5-9-10-20-10-13 0-20-7-20-20 0-11 5-20 10-20 6 0 10-20 10-44 0-25 4-47 9-50s12-22 15-41c19-112 16-105 48-105 16 0 38 5 49 10 20 11 26 45 9 55-5 3-10 21-10 40s-4 36-9 39-11 23-15 43c-17 114-16 113-47 113-16 0-29-4-29-10zm-2680-183c0-18-4-37-9-42-5-6-12-32-15-60-2-27-9-76-13-107l-9-58h27c15 0 34-3 42-6 20-7 25 11 56 199 4 28 11 60 16 70 6 14 2 17-28 17-20 0-39 5-42 10-13 20-25 9-25-23zm2773-204c-30-4-33-7-33-38 0-19 5-37 10-40 6-3 10-24 10-45s5-42 10-45c6-3 10-21 10-40s5-37 10-40c6-3 10-17 10-31 0-28-3-27 41-13 19 6 39 12 46 14 8 3 7 16-4 52-16 49-30 110-40 173-5 35-20 61-32 58-3 0-21-3-38-5zM793 1125c-7-8-13-21-13-30 0-8-4-15-10-15-5 0-10-9-10-20s-4-20-10-20c-5 0-10-7-10-15 0-9-8-19-17-22-9-4-30-19-47-35-16-15-33-28-38-28-4 0-22-13-40-30-17-16-35-30-40-30-4 0-22-13-40-30-17-16-35-30-40-30-6 0-23-13-38-30-15-16-33-30-40-30s-25-13-40-30c-15-16-33-30-40-30-6 0-18-7-27-15-9-9-23-13-34-10-13 5-19 1-19-10 0-9-13-30-30-45-33-31-40-57-13-45 10 4 32 13 48 19 37 14 55 30 55 50 0 8 8 17 18 20 9 4 37 24 62 46s48 40 51 40c4 0 24 16 45 35 22 19 43 35 47 35 5 0 22 14 37 30 15 17 33 30 40 30s25 14 40 30c15 17 33 30 40 30s25 14 40 30c18 20 38 30 57 30 44 0 100 19 107 35 4 11-2 15-19 15-27 0-34 17-10 26 8 4 15 10 15 15s-7 9-15 9-15-4-15-10c0-5-5-10-11-10-7 0-9 11-5 30 6 33-9 40-31 15zm432-37c-2-7-6-35-10-63l-11-97-6-48h135c75 0 142 3 151 6 11 4 16 19 16 50v44h-191l7 46c5 37 3 47-12 59-24 18-73 19-79 3zm2515-101c0-43 1-45 33-49 17-2 85-2 150 0l117 4v78h-134c-74 0-141 3-150 6-13 5-16-2-16-39zm-400-12v-46l148 3 147 3 3 43 3 42h-301v-45zm-1740-40v-46l148 3 147 3 3 43 3 42h-301v-45zm400-1v-46l36 7c36 6 94-9 94-25 0-12 53-65 71-72 16-6 69 34 69 52 0 5-22 32-50 60-27 28-50 56-50 61s-38 9-85 9h-85v-46zm1173 9c-18-21-33-41-33-45 0-5-16-24-35-44-19-19-35-38-35-43 0-4-9-18-20-31l-20-23 30-28c37-36 43-36 65-2 10 15 29 38 42 50 12 13 23 28 23 33s10 19 23 32c12 13 33 38 45 56 20 27 21 34 10 45-13 12-55 37-60 37-2-1-18-17-35-37zm-870-208c-29-31-29-40 2-71 14-14 25-28 25-32s22-31 50-61c27-29 52-61 55-72 8-25 24-24 58 5 33 29 34 40 2 72-14 14-25 29-25 34s-22 31-49 59-52 60-56 71c-8 27-35 24-62-5zm631-89c-6-7-17-23-24-36-7-12-28-38-46-57-19-18-34-38-34-43s-12-21-26-35l-26-27 37-35c20-19 38-33 39-31s13 19 27 38c13 19 36 48 51 64 16 16 28 33 28 38s16 24 35 44c45 44 44 55-2 82-28 15-45 15-59-2zm-379-221c-14-14-25-29-25-33s23-32 50-62 50-58 50-61c0-13 58-69 72-69 7 0 24 18 38 40s28 40 32 40c13 0 9 31-6 46-8 8-21 14-29 14-9 0-18 6-21 13-5 10-7 10-12 0-9-19-22-16-29 7s-71 90-85 90c-5 0-21-11-35-25z"
  />
</svg>
