<svg xmlns="http://www.w3.org/2000/svg" id="root" viewBox="0 0 99 73">
  <g>
    <path
      d="M 64.277344 72.769531 C 64.277344 72.667969 64.097656 72.566406 63.882812 72.566406 C 63.664062 72.566406 63.484375 72.488281 63.484375 72.367188 C 63.484375 72.269531 63.304688 72.167969 63.085938 72.167969 C 62.867188 72.167969 62.691406 72.089844 62.691406 71.96875 C 62.691406 71.871094 62.511719 71.769531 62.292969 71.769531 C 62.074219 71.769531 61.898438 71.691406 61.898438 71.570312 C 61.898438 71.472656 61.71875 71.371094 61.5 71.371094 C 61.28125 71.371094 61.101562 71.292969 61.101562 71.171875 C 61.101562 71.074219 60.945312 70.972656 60.726562 70.972656 C 60.03125 70.972656 59.832031 70.457031 60.191406 69.675781 C 60.367188 69.296875 60.628906 68.980469 60.746094 68.980469 C 61.042969 68.980469 65.863281 71.390625 65.863281 71.550781 C 65.863281 71.613281 65.6875 71.96875 65.46875 72.328125 C 65.109375 72.925781 64.277344 73.246094 64.277344 72.769531 Z M 32.394531 72.03125 C 32.253906 71.730469 32.136719 71.253906 32.136719 70.953125 C 32.136719 70.65625 32.054688 70.335938 31.9375 70.277344 C 31.597656 70.078125 31.71875 69.777344 32.113281 69.777344 C 32.332031 69.777344 32.570312 69.699219 32.632812 69.578125 C 32.808594 69.296875 33.664062 69.339844 33.78125 69.636719 C 33.839844 69.835938 33.960938 69.835938 34.296875 69.636719 C 34.515625 69.5 34.851562 69.378906 35.011719 69.378906 C 35.171875 69.378906 35.308594 69.296875 35.308594 69.179688 C 35.308594 69.078125 35.488281 68.980469 35.6875 68.980469 C 35.90625 68.980469 36.101562 68.859375 36.144531 68.742188 C 36.261719 68.402344 36.898438 69.019531 36.898438 69.457031 C 36.898438 69.617188 36.996094 69.816406 37.09375 69.875 C 37.453125 70.097656 37.3125 70.574219 36.898438 70.574219 C 36.679688 70.574219 36.5 70.675781 36.5 70.773438 C 36.5 70.894531 36.382812 70.972656 36.242188 70.972656 C 36.003906 70.972656 34.65625 71.550781 33.882812 71.96875 C 33.683594 72.089844 33.386719 72.167969 33.226562 72.167969 C 33.066406 72.167969 32.929688 72.269531 32.929688 72.367188 C 32.929688 72.746094 32.632812 72.566406 32.394531 72.03125 Z M 64.992188 69.476562 C 64.714844 69.277344 64.675781 69.121094 64.8125 68.941406 C 65.011719 68.699219 65.132812 68.082031 65.347656 66.40625 C 65.410156 66.050781 65.527344 65.652344 65.648438 65.53125 C 65.765625 65.410156 65.863281 64.972656 65.863281 64.554688 C 65.863281 63.894531 65.925781 63.796875 66.320312 63.796875 C 66.578125 63.796875 67.015625 63.917969 67.332031 64.054688 C 67.789062 64.253906 67.847656 64.375 67.769531 64.894531 C 67.710938 65.230469 67.609375 65.828125 67.53125 66.25 C 67.472656 66.648438 67.332031 67.046875 67.234375 67.105469 C 67.136719 67.164062 67.054688 67.503906 67.054688 67.882812 C 67.054688 68.261719 66.976562 68.621094 66.855469 68.679688 C 66.757812 68.742188 66.660156 69.019531 66.660156 69.296875 C 66.660156 69.71875 66.558594 69.777344 66.023438 69.777344 C 65.667969 69.777344 65.191406 69.636719 64.992188 69.476562 Z M 56.441406 68.960938 C 55.785156 68.601562 54.734375 68.0625 54.097656 67.722656 C 52.75 67.027344 52.671875 66.945312 53.007812 66.347656 C 53.445312 65.609375 53.820312 65.25 53.921875 65.550781 C 53.960938 65.671875 54.160156 65.789062 54.378906 65.789062 C 54.574219 65.789062 54.753906 65.890625 54.753906 65.988281 C 54.753906 66.109375 54.933594 66.1875 55.152344 66.1875 C 55.367188 66.1875 55.546875 66.289062 55.546875 66.386719 C 55.546875 66.507812 55.667969 66.585938 55.824219 66.585938 C 56.222656 66.585938 58.5625 67.84375 58.664062 68.121094 C 58.761719 68.382812 58.007812 69.578125 57.769531 69.578125 C 57.691406 69.578125 57.09375 69.296875 56.441406 68.960938 Z M 38.800781 68.742188 C 38.34375 67.84375 38.40625 67.644531 39.238281 67.285156 C 39.636719 67.105469 40.132812 66.867188 40.308594 66.765625 C 40.507812 66.667969 40.804688 66.585938 40.964844 66.585938 C 41.121094 66.585938 41.261719 66.507812 41.261719 66.386719 C 41.261719 66.289062 41.441406 66.1875 41.660156 66.1875 C 41.878906 66.1875 42.054688 66.109375 42.054688 65.988281 C 42.054688 65.890625 42.234375 65.789062 42.453125 65.789062 C 42.671875 65.789062 42.847656 65.691406 42.847656 65.570312 C 42.847656 65.113281 43.722656 65.53125 44.078125 66.148438 C 44.398438 66.726562 44.398438 66.847656 44.160156 67.105469 C 44 67.265625 43.722656 67.386719 43.5625 67.386719 C 43.386719 67.386719 43.246094 67.445312 43.246094 67.542969 C 43.246094 67.683594 42.351562 68.121094 40.765625 68.742188 C 40.328125 68.898438 39.894531 69.121094 39.792969 69.21875 C 39.4375 69.519531 39.097656 69.378906 38.800781 68.742188 Z M 31.242188 67.34375 C 31.042969 66.785156 30.804688 65.730469 30.648438 64.792969 C 30.566406 64.414062 30.449219 63.917969 30.367188 63.695312 C 29.65625 61.902344 29.65625 61.921875 30.984375 61.742188 C 31.757812 61.625 31.917969 61.824219 32.214844 63.257812 C 32.292969 63.558594 32.433594 63.796875 32.53125 63.796875 C 32.632812 63.796875 32.671875 64.074219 32.589844 64.414062 C 32.53125 64.734375 32.570312 65.210938 32.691406 65.449219 C 32.808594 65.691406 32.949219 66.230469 33.007812 66.648438 C 33.085938 67.324219 33.066406 67.386719 32.632812 67.386719 C 32.371094 67.386719 32.09375 67.484375 32.035156 67.585938 C 31.816406 67.921875 31.402344 67.804688 31.242188 67.34375 Z M 46.082031 66.109375 C 45.25 65.152344 45.152344 64.753906 45.109375 62.003906 C 45.050781 59.070312 44.894531 57.335938 44.636719 56.71875 C 43.921875 55.042969 43.960938 52.671875 44.695312 51.675781 C 44.8125 51.515625 44.8125 51.015625 44.675781 50.28125 C 43.980469 46.652344 43.839844 45.214844 43.722656 40.671875 C 43.601562 36.40625 43.800781 33.574219 44.296875 32.535156 C 44.59375 31.917969 44.59375 29.488281 44.296875 28.886719 C 44.179688 28.628906 43.859375 27.929688 43.621094 27.375 C 43.386719 26.796875 43.105469 26.316406 43.007812 26.316406 C 42.929688 26.316406 42.847656 26.195312 42.847656 26.058594 C 42.847656 25.660156 41.660156 23.328125 41.460938 23.328125 C 41.359375 23.328125 41.121094 23.605469 40.945312 23.964844 C 40.628906 24.582031 39.097656 26.21875 33.78125 31.601562 C 32.214844 33.175781 30.945312 34.609375 30.945312 34.808594 C 30.945312 35.1875 30.585938 36.382812 30.328125 36.921875 C 30.230469 37.121094 30.152344 37.5 30.152344 37.78125 C 30.152344 38.058594 30.070312 38.277344 29.953125 38.277344 C 29.851562 38.277344 29.753906 38.199219 29.753906 38.078125 C 29.753906 37.679688 29.140625 37.878906 28.523438 38.476562 C 27.828125 39.15625 27.53125 39.214844 27.15625 38.757812 C 26.957031 38.515625 26.957031 38.316406 27.136719 37.800781 C 27.273438 37.441406 27.371094 37.023438 27.371094 36.863281 C 27.371094 36.703125 27.691406 36.226562 28.066406 35.785156 C 28.445312 35.347656 28.761719 34.929688 28.761719 34.871094 C 28.761719 34.789062 29.039062 34.449219 29.355469 34.089844 C 29.695312 33.734375 29.953125 33.375 29.953125 33.273438 C 29.953125 33.195312 30.171875 32.894531 30.449219 32.617188 C 30.726562 32.335938 30.945312 32.039062 30.945312 31.917969 C 30.945312 31.640625 31.796875 30.042969 32.195312 29.625 C 32.371094 29.40625 32.53125 29.148438 32.53125 29.046875 C 32.53125 28.769531 33.820312 27.234375 35.210938 25.816406 C 35.863281 25.160156 36.617188 24.304688 36.898438 23.925781 C 37.15625 23.546875 37.433594 23.1875 37.492188 23.125 C 37.652344 22.988281 38.046875 22.308594 38.324219 21.730469 C 38.464844 21.453125 38.621094 21.191406 38.683594 21.132812 C 38.742188 21.074219 38.902344 20.792969 39.039062 20.496094 C 39.160156 20.175781 39.398438 19.699219 39.535156 19.398438 C 40.152344 18.042969 41.957031 16.746094 43.207031 16.746094 C 43.445312 16.746094 43.644531 16.6875 43.644531 16.609375 C 43.644531 16.449219 44.59375 15.949219 44.871094 15.949219 C 44.972656 15.949219 45.230469 15.769531 45.46875 15.550781 C 45.707031 15.332031 46.003906 15.152344 46.121094 15.152344 C 46.660156 15.152344 47.195312 13 46.777344 12.539062 C 46.0625 11.742188 45.726562 9.988281 46.222656 9.671875 C 46.339844 9.609375 46.421875 9.269531 46.421875 8.933594 C 46.421875 7.457031 47.234375 6.203125 48.1875 6.160156 C 48.464844 6.160156 49.238281 6.121094 49.894531 6.101562 C 51.023438 6.0625 51.222656 6.121094 52.332031 6.878906 C 52.351562 6.917969 52.570312 7.417969 52.769531 7.996094 C 53.265625 9.371094 53.265625 10.984375 52.769531 12.363281 C 52.550781 12.960938 52.371094 13.917969 52.371094 14.496094 C 52.371094 15.410156 52.433594 15.550781 52.769531 15.550781 C 52.988281 15.550781 53.167969 15.652344 53.167969 15.75 C 53.167969 15.871094 53.464844 15.949219 53.820312 15.949219 C 55.367188 15.96875 56.757812 16.886719 57.492188 18.402344 C 58.066406 19.617188 58.722656 21.351562 58.722656 21.652344 C 58.722656 21.8125 58.820312 21.929688 58.921875 21.929688 C 59.039062 21.929688 59.117188 22.109375 59.117188 22.328125 C 59.117188 22.546875 59.21875 22.726562 59.316406 22.726562 C 59.4375 22.726562 59.515625 22.867188 59.515625 23.046875 C 59.515625 23.207031 59.832031 23.683594 60.191406 24.082031 C 60.566406 24.484375 61.042969 25.140625 61.242188 25.558594 C 61.441406 25.976562 61.660156 26.316406 61.757812 26.316406 C 61.835938 26.316406 61.898438 26.4375 61.898438 26.597656 C 61.898438 27.273438 62.808594 28.570312 64.65625 30.484375 C 66.164062 32.058594 66.660156 32.816406 66.660156 33.554688 C 66.660156 34.03125 66.597656 34.089844 66.164062 33.972656 C 65.863281 33.890625 65.667969 33.933594 65.667969 34.070312 C 65.667969 34.191406 65.527344 34.292969 65.367188 34.292969 C 65.210938 34.292969 65.070312 34.210938 65.070312 34.089844 C 65.070312 33.992188 64.953125 33.890625 64.8125 33.890625 C 64.378906 33.890625 63.882812 33.214844 63.882812 32.636719 C 63.882812 32.355469 63.800781 32.058594 63.683594 32 C 63.582031 31.9375 63.484375 31.71875 63.484375 31.539062 C 63.484375 31.199219 61.121094 28.710938 60.785156 28.710938 C 60.429688 28.6875 58.265625 26.457031 57.433594 25.238281 C 55.925781 23.066406 55.628906 23.347656 54.734375 27.8125 C 54.417969 29.328125 54.277344 33.273438 54.535156 33.773438 C 55.109375 34.949219 55.390625 41.050781 55.171875 47.167969 C 54.972656 52.511719 54.851562 53.847656 54.554688 54.527344 C 54.457031 54.746094 54.335938 55.203125 54.257812 55.523438 C 53.664062 58.414062 53.683594 59.390625 54.335938 60.507812 C 55.289062 62.042969 55.546875 62.660156 55.546875 63.339844 C 55.546875 64.613281 54.296875 65.050781 53.582031 64.015625 C 53.34375 63.695312 53.167969 63.316406 53.167969 63.160156 C 53.167969 63.019531 53.027344 62.539062 52.847656 62.101562 C 52.691406 61.664062 52.511719 61.144531 52.433594 60.964844 C 52.371094 60.765625 52.253906 60.605469 52.15625 60.605469 C 52.054688 60.605469 51.976562 60.425781 51.976562 60.207031 C 51.976562 59.988281 51.878906 59.808594 51.757812 59.808594 C 51.617188 59.808594 51.578125 59.46875 51.679688 58.773438 C 51.855469 57.335938 51.855469 54.546875 51.699219 53.328125 C 51.578125 52.53125 51.617188 52.132812 51.976562 51.335938 C 52.234375 50.71875 52.3125 50.320312 52.195312 50.28125 C 52.074219 50.238281 51.976562 50.082031 51.976562 49.921875 C 51.976562 49.761719 51.898438 49.480469 51.796875 49.28125 C 51.699219 49.105469 51.5 48.546875 51.382812 48.046875 C 51.242188 47.546875 51.0625 46.929688 50.984375 46.652344 C 50.367188 44.636719 49.992188 42.625 49.992188 41.367188 C 49.992188 40.492188 49.914062 40.253906 49.59375 40.074219 C 49.117188 39.8125 49.078125 40.03125 48.78125 44.457031 C 48.683594 46.273438 48.503906 48.285156 48.40625 48.945312 C 48.304688 49.601562 48.167969 50.5 48.105469 50.9375 C 48.027344 51.375 47.847656 52.035156 47.671875 52.414062 C 47.371094 53.089844 47.332031 53.410156 47.394531 54.527344 C 47.433594 55.066406 47.136719 58.632812 46.996094 59.410156 C 46.855469 60.109375 47.570312 63.398438 47.847656 63.398438 C 47.929688 63.398438 48.046875 63.316406 48.105469 63.199219 C 48.167969 63.097656 48.445312 63 48.722656 63 C 48.980469 63 49.199219 63.097656 49.199219 63.199219 C 49.199219 63.316406 49.378906 63.398438 49.59375 63.398438 C 49.8125 63.398438 49.992188 63.496094 49.992188 63.597656 C 49.992188 63.714844 50.171875 63.796875 50.390625 63.796875 C 50.605469 63.796875 50.785156 63.894531 50.785156 63.996094 C 50.785156 64.117188 50.964844 64.195312 51.183594 64.195312 C 51.640625 64.195312 51.679688 64.496094 51.339844 65.25 C 50.984375 66.007812 50.6875 66.050781 49.59375 65.492188 C 49.058594 65.210938 48.5625 64.992188 48.503906 64.992188 C 48.445312 64.992188 48.40625 65.230469 48.40625 65.511719 C 48.40625 66.207031 47.96875 66.585938 47.175781 66.585938 C 46.699219 66.585938 46.359375 66.449219 46.082031 66.109375 Z M 1.042969 62.640625 C 0.390625 62.582031 0.109375 62.203125 0.6875 62.203125 C 0.863281 62.203125 1.183594 62.023438 1.421875 61.804688 C 1.898438 61.363281 2.371094 61.285156 2.710938 61.625 C 2.867188 61.78125 2.96875 61.78125 3.046875 61.625 C 3.128906 61.503906 3.542969 61.402344 3.960938 61.402344 C 4.378906 61.402344 4.792969 61.324219 4.851562 61.203125 C 4.914062 61.105469 5.367188 61.003906 5.863281 61.003906 C 6.339844 61.003906 6.738281 60.925781 6.738281 60.804688 C 6.738281 60.707031 7.09375 60.605469 7.511719 60.605469 C 7.949219 60.605469 8.363281 60.527344 8.425781 60.40625 C 8.484375 60.308594 8.941406 60.207031 9.4375 60.207031 C 9.914062 60.207031 10.308594 60.128906 10.308594 60.007812 C 10.308594 59.910156 10.667969 59.808594 11.082031 59.808594 C 11.519531 59.808594 11.9375 59.730469 11.996094 59.609375 C 12.054688 59.511719 12.414062 59.410156 12.789062 59.410156 C 13.304688 59.410156 13.644531 59.210938 14.335938 58.511719 C 14.933594 57.914062 15.347656 57.65625 15.546875 57.734375 C 15.90625 57.875 15.984375 58.214844 15.667969 58.214844 C 15.566406 58.214844 15.46875 58.414062 15.46875 58.652344 C 15.46875 58.992188 15.527344 59.03125 15.707031 58.851562 C 16.003906 58.554688 16.460938 58.535156 16.460938 58.8125 C 16.460938 58.933594 16.320312 59.011719 16.164062 59.011719 C 16.003906 59.011719 15.863281 59.191406 15.863281 59.410156 C 15.863281 59.667969 16.003906 59.808594 16.261719 59.808594 C 16.738281 59.808594 16.757812 59.929688 16.320312 60.367188 C 16.082031 60.605469 15.964844 60.625 15.90625 60.445312 C 15.863281 60.328125 15.566406 60.207031 15.269531 60.207031 C 14.953125 60.207031 14.636719 60.109375 14.554688 59.988281 C 14.378906 59.691406 11.101562 60.089844 11.101562 60.40625 C 11.101562 60.566406 10.804688 60.625 8.484375 60.925781 C 7.949219 60.984375 7.53125 61.125 7.53125 61.203125 C 7.53125 61.285156 7.15625 61.425781 6.699219 61.484375 C 4.65625 61.742188 4.160156 61.863281 4.039062 62.023438 C 3.980469 62.121094 3.722656 62.203125 3.445312 62.203125 C 3.167969 62.203125 2.910156 62.320312 2.847656 62.460938 C 2.75 62.738281 2.253906 62.78125 1.042969 62.640625 Z M 67.75 62.003906 C 67.691406 61.902344 67.414062 61.804688 67.136719 61.804688 C 66.71875 61.804688 66.660156 61.703125 66.660156 61.125 C 66.660156 60.746094 66.738281 60.386719 66.835938 60.328125 C 66.9375 60.269531 67.054688 59.867188 67.113281 59.46875 C 67.253906 58.511719 67.570312 57.097656 67.789062 56.320312 C 67.910156 55.941406 68.027344 55.820312 68.128906 55.980469 C 68.207031 56.121094 68.582031 56.222656 68.960938 56.222656 L 69.65625 56.222656 L 69.515625 57.277344 C 69.4375 57.835938 69.316406 58.394531 69.21875 58.511719 C 69.117188 58.613281 69.039062 59.03125 69.039062 59.449219 C 69.039062 59.867188 68.960938 60.207031 68.839844 60.207031 C 68.742188 60.207031 68.644531 60.546875 68.644531 60.964844 C 68.644531 61.921875 68.085938 62.558594 67.75 62.003906 Z M 29.476562 59.828125 C 29.457031 59.769531 29.316406 59.3125 29.179688 58.8125 C 29.039062 58.3125 28.839844 57.753906 28.742188 57.578125 C 28.644531 57.378906 28.5625 56.859375 28.5625 56.441406 C 28.5625 56 28.484375 55.582031 28.363281 55.523438 C 28.265625 55.464844 28.167969 55.144531 28.167969 54.804688 C 28.167969 54.367188 28.265625 54.226562 28.542969 54.226562 C 28.761719 54.226562 29 54.148438 29.058594 54.027344 C 29.316406 53.609375 29.953125 53.828125 30.050781 54.386719 C 30.132812 54.6875 30.25 55.085938 30.367188 55.265625 C 30.46875 55.464844 30.546875 55.980469 30.546875 56.398438 C 30.546875 56.839844 30.648438 57.257812 30.746094 57.316406 C 30.863281 57.378906 30.945312 57.734375 30.945312 58.09375 C 30.945312 58.433594 31.042969 58.832031 31.183594 58.972656 C 31.519531 59.3125 31.0625 59.75 30.230469 59.847656 C 29.851562 59.890625 29.515625 59.890625 29.476562 59.828125 Z M 69.832031 54.886719 C 69.832031 54.746094 69.753906 54.625 69.636719 54.625 C 69.535156 54.625 69.4375 54.445312 69.4375 54.246094 C 69.4375 54.027344 69.316406 53.828125 69.199219 53.769531 C 68.859375 53.648438 69.59375 53.050781 70.070312 53.03125 C 70.25 53.03125 70.46875 52.953125 70.527344 52.832031 C 70.585938 52.730469 70.824219 52.632812 71.042969 52.632812 C 71.242188 52.632812 71.421875 52.550781 71.421875 52.433594 C 71.421875 52.332031 71.597656 52.234375 71.816406 52.234375 C 72.035156 52.234375 72.214844 52.152344 72.214844 52.035156 C 72.214844 51.933594 72.394531 51.835938 72.609375 51.835938 C 72.828125 51.835938 73.007812 51.753906 73.007812 51.636719 C 73.007812 51.535156 73.1875 51.4375 73.40625 51.4375 C 73.621094 51.4375 73.800781 51.355469 73.800781 51.238281 C 73.800781 50.757812 74.515625 51.097656 74.832031 51.734375 C 75.230469 52.53125 75.132812 53.03125 74.574219 53.03125 C 74.378906 53.03125 74.199219 53.128906 74.199219 53.230469 C 74.199219 53.351562 74.019531 53.429688 73.800781 53.429688 C 73.582031 53.429688 73.40625 53.53125 73.40625 53.628906 C 73.40625 53.75 73.226562 53.828125 73.007812 53.828125 C 72.789062 53.828125 72.609375 53.929688 72.609375 54.027344 C 72.609375 54.148438 72.492188 54.226562 72.351562 54.226562 C 71.917969 54.226562 71.023438 54.707031 71.023438 54.945312 C 71.023438 55.066406 70.765625 55.164062 70.429688 55.164062 C 70.070312 55.164062 69.832031 55.042969 69.832031 54.886719 Z M 25.925781 53.730469 C 25.746094 53.570312 25.527344 53.429688 25.429688 53.429688 C 25.328125 53.429688 24.554688 53.070312 23.703125 52.632812 C 22.847656 52.195312 22.035156 51.835938 21.898438 51.835938 C 21.441406 51.835938 21.359375 51.417969 21.71875 50.617188 C 22.035156 49.921875 22.609375 49.542969 22.609375 50.039062 C 22.609375 50.160156 22.730469 50.238281 22.867188 50.238281 C 23.304688 50.238281 27.371094 52.292969 27.351562 52.511719 C 27.332031 52.851562 26.679688 53.886719 26.441406 53.96875 C 26.320312 54.007812 26.082031 53.90625 25.925781 53.730469 Z M 76.976562 51.4375 C 76.976562 51.21875 76.898438 51.039062 76.777344 51.039062 C 76.679688 51.039062 76.578125 50.796875 76.578125 50.480469 C 76.578125 49.980469 76.757812 49.839844 78.722656 48.882812 C 79.894531 48.324219 80.964844 47.847656 81.101562 47.847656 C 81.242188 47.847656 81.339844 47.769531 81.339844 47.648438 C 81.339844 47.546875 81.441406 47.449219 81.539062 47.449219 C 81.660156 47.449219 81.738281 47.589844 81.738281 47.769531 C 81.738281 47.949219 81.917969 48.347656 82.15625 48.664062 L 82.550781 49.242188 L 82.09375 49.421875 C 81.835938 49.523438 80.785156 50 79.753906 50.519531 C 78.722656 51.015625 77.769531 51.4375 77.632812 51.4375 C 77.492188 51.4375 77.371094 51.535156 77.371094 51.636719 C 77.371094 51.753906 77.292969 51.835938 77.175781 51.835938 C 77.074219 51.835938 76.976562 51.65625 76.976562 51.4375 Z M 16.71875 49.222656 C 15.269531 48.503906 14.277344 47.90625 14.277344 47.726562 C 14.277344 47.570312 14.378906 47.449219 14.476562 47.449219 C 14.851562 47.449219 14.675781 46.390625 14.238281 46.035156 C 14.019531 45.8125 13.761719 45.65625 13.683594 45.65625 C 13.246094 45.65625 13.363281 44.996094 13.902344 44.4375 C 14.21875 44.101562 14.476562 43.742188 14.476562 43.640625 C 14.476562 43.5625 14.792969 43.164062 15.171875 42.785156 C 15.546875 42.386719 15.863281 42.007812 15.863281 41.925781 C 15.863281 41.6875 16.777344 40.671875 16.976562 40.671875 C 17.253906 40.691406 18.246094 41.628906 18.246094 41.886719 C 18.246094 42.007812 18.085938 42.265625 17.890625 42.445312 C 17.691406 42.625 17.3125 43.082031 17.054688 43.460938 C 16.777344 43.839844 16.359375 44.359375 16.121094 44.617188 C 15.863281 44.878906 15.667969 45.15625 15.667969 45.257812 C 15.667969 45.355469 15.527344 45.574219 15.347656 45.734375 C 15.070312 46.011719 15.070312 46.09375 15.347656 46.351562 C 15.507812 46.511719 15.785156 46.652344 15.945312 46.652344 C 16.121094 46.652344 16.261719 46.75 16.261719 46.851562 C 16.261719 46.96875 16.441406 47.050781 16.660156 47.050781 C 16.878906 47.050781 17.054688 47.148438 17.054688 47.25 C 17.054688 47.367188 17.234375 47.449219 17.453125 47.449219 C 17.671875 47.449219 17.847656 47.546875 17.847656 47.648438 C 17.847656 47.769531 18.027344 47.847656 18.246094 47.847656 C 18.464844 47.847656 18.644531 47.949219 18.644531 48.046875 C 18.644531 48.167969 18.78125 48.246094 18.941406 48.246094 C 19.496094 48.246094 20.230469 48.726562 20.230469 49.082031 C 20.230469 49.28125 20.171875 49.441406 20.070312 49.441406 C 19.992188 49.441406 19.832031 49.640625 19.734375 49.882812 C 19.613281 50.121094 19.457031 50.339844 19.335938 50.359375 C 19.238281 50.398438 18.046875 49.882812 16.71875 49.222656 Z M 83.960938 47.527344 C 83.503906 47.03125 83.324219 46.671875 83.386719 46.414062 C 83.503906 45.992188 82.96875 44.65625 82.691406 44.65625 C 82.609375 44.65625 82.53125 44.519531 82.53125 44.359375 C 82.53125 43.980469 83.40625 43.0625 83.742188 43.0625 C 83.980469 43.0625 84.714844 43.800781 84.714844 44.039062 C 84.714844 44.121094 85.210938 44.699219 85.804688 45.355469 C 86.402344 45.992188 86.898438 46.613281 86.898438 46.710938 C 86.898438 46.992188 86.359375 47.449219 86.023438 47.449219 C 85.84375 47.449219 85.707031 47.546875 85.707031 47.648438 C 85.707031 47.769531 85.527344 47.847656 85.308594 47.847656 C 85.089844 47.847656 84.914062 47.949219 84.914062 48.046875 C 84.914062 48.40625 84.613281 48.246094 83.960938 47.527344 Z M 80.746094 42.464844 C 80.746094 42.363281 80.367188 41.886719 79.894531 41.429688 C 79 40.53125 77.371094 38.4375 77.371094 38.199219 C 77.371094 37.960938 78.34375 37.082031 78.601562 37.082031 C 78.761719 37.082031 79.039062 37.359375 79.238281 37.699219 C 79.4375 38.039062 79.972656 38.675781 80.429688 39.136719 C 81.382812 40.09375 82.136719 41.128906 82.136719 41.449219 C 82.136719 41.746094 81.242188 42.664062 80.945312 42.664062 C 80.84375 42.664062 80.746094 42.585938 80.746094 42.464844 Z M 18.839844 39.496094 L 18.1875 38.9375 L 18.664062 38.257812 C 18.921875 37.878906 19.335938 37.382812 19.574219 37.121094 C 19.832031 36.863281 20.03125 36.605469 20.03125 36.523438 C 20.03125 36.445312 20.308594 36.066406 20.648438 35.6875 C 20.984375 35.308594 21.320312 34.890625 21.402344 34.730469 C 21.617188 34.351562 23.007812 35.027344 23.007812 35.527344 C 23.007812 35.726562 22.929688 35.886719 22.828125 35.886719 C 22.730469 35.886719 22.589844 36.066406 22.511719 36.265625 C 22.453125 36.484375 22.09375 36.984375 21.71875 37.402344 C 21.339844 37.820312 21.023438 38.238281 21.023438 38.339844 C 21.023438 38.4375 20.765625 38.777344 20.429688 39.074219 C 20.109375 39.375 19.832031 39.734375 19.832031 39.851562 C 19.832031 40.210938 19.535156 40.113281 18.839844 39.496094 Z M 74.457031 35.148438 C 73.703125 34.351562 73.40625 33.871094 73.40625 33.472656 C 73.40625 33.175781 73.503906 32.855469 73.601562 32.796875 C 73.722656 32.734375 73.800781 32.378906 73.800781 32.039062 C 73.820312 31.222656 74.296875 30.523438 74.636719 30.863281 C 74.773438 31 75.070312 31.101562 75.328125 31.101562 C 75.726562 31.101562 75.785156 31.199219 75.785156 31.777344 C 75.785156 32.15625 75.707031 32.535156 75.585938 32.597656 C 75.191406 32.835938 75.410156 33.335938 76.28125 34.230469 C 76.777344 34.730469 77.175781 35.207031 77.175781 35.308594 C 77.175781 35.625 76.300781 36.285156 75.90625 36.285156 C 75.667969 36.265625 75.03125 35.785156 74.457031 35.148438 Z M 23.601562 33.175781 C 23.066406 32.636719 22.96875 32.4375 23.1875 32.316406 C 23.386719 32.199219 23.425781 31.9375 23.324219 31.480469 C 23.246094 31.101562 23.105469 30.363281 23.027344 29.804688 C 22.929688 29.265625 22.789062 28.628906 22.730469 28.410156 C 22.609375 28.070312 22.730469 27.972656 23.386719 27.773438 C 24.535156 27.414062 24.59375 27.433594 24.59375 28.289062 C 24.59375 28.730469 24.695312 29.148438 24.792969 29.207031 C 24.914062 29.265625 24.992188 29.765625 24.992188 30.304688 C 24.992188 30.84375 25.089844 31.339844 25.191406 31.398438 C 25.628906 31.679688 25.328125 32.996094 24.675781 33.632812 C 24.355469 33.953125 24.417969 33.992188 23.601562 33.175781 Z M 85.050781 32.558594 C 84.972656 32.496094 84.914062 32.136719 84.914062 31.757812 C 84.914062 31.0625 84.8125 30.980469 84.316406 31.300781 C 84.140625 31.398438 83.941406 31.398438 83.78125 31.261719 C 83.445312 30.980469 83.464844 30.703125 83.820312 30.703125 C 83.980469 30.703125 84.117188 30.523438 84.117188 30.304688 C 84.117188 29.984375 83.980469 29.90625 83.523438 29.90625 C 82.988281 29.90625 82.929688 29.84375 82.929688 29.265625 C 82.929688 28.769531 82.988281 28.6875 83.167969 28.867188 C 83.304688 29.007812 83.78125 29.109375 84.238281 29.109375 C 84.714844 29.109375 85.152344 29.207031 85.210938 29.308594 C 85.347656 29.546875 86.5 29.566406 86.5 29.347656 C 86.5 29.246094 86.855469 29.066406 87.292969 28.929688 C 87.730469 28.808594 88.085938 28.609375 88.085938 28.507812 C 88.085938 28.429688 88.425781 28.230469 88.820312 28.089844 C 89.238281 27.972656 89.695312 27.730469 89.832031 27.574219 C 89.992188 27.414062 90.367188 27.234375 90.6875 27.175781 C 91.003906 27.113281 91.261719 26.996094 91.261719 26.894531 C 91.261719 26.796875 91.441406 26.714844 91.660156 26.714844 C 91.878906 26.714844 92.054688 26.636719 92.054688 26.554688 C 92.054688 26.457031 92.414062 26.257812 92.847656 26.117188 C 93.285156 25.976562 93.644531 25.777344 93.644531 25.699219 C 93.644531 25.617188 93.980469 25.441406 94.378906 25.300781 C 95.191406 25.039062 96.023438 24.304688 96.023438 23.824219 C 96.023438 23.585938 96.300781 23.527344 97.511719 23.527344 C 98.324219 23.527344 99 23.605469 99 23.703125 C 99 23.785156 98.742188 24.144531 98.40625 24.484375 C 98.085938 24.839844 97.808594 25.21875 97.808594 25.339844 C 97.808594 25.480469 97.570312 25.519531 97.175781 25.460938 C 96.578125 25.378906 95.070312 25.796875 94.832031 26.117188 C 94.773438 26.195312 94.398438 26.375 94 26.496094 C 93.582031 26.636719 93.246094 26.835938 93.246094 26.933594 C 93.246094 27.035156 93.128906 27.113281 93.007812 27.113281 C 92.867188 27.113281 91.835938 27.574219 90.707031 28.109375 C 89.574219 28.667969 88.601562 29.109375 88.523438 29.109375 C 88.445312 29.109375 88.167969 29.289062 87.890625 29.507812 C 87.609375 29.726562 87.214844 29.90625 86.996094 29.90625 C 86.660156 29.90625 86.539062 30.125 86.320312 31.0625 C 86.183594 31.679688 85.964844 32.316406 85.863281 32.457031 C 85.648438 32.714844 85.25 32.777344 85.050781 32.558594 Z M 75.390625 28.910156 C 75.390625 28.808594 75.210938 28.710938 74.992188 28.710938 C 74.734375 28.710938 74.59375 28.570312 74.59375 28.308594 C 74.59375 28.089844 74.695312 27.910156 74.792969 27.910156 C 74.914062 27.910156 74.992188 27.511719 74.992188 27.035156 C 74.992188 26.535156 75.070312 26.097656 75.171875 26.039062 C 75.269531 25.976562 75.410156 25.597656 75.46875 25.21875 C 75.84375 22.988281 75.785156 23.125 76.421875 23.125 C 76.738281 23.125 77.175781 23.226562 77.394531 23.328125 C 77.789062 23.546875 77.910156 24.222656 77.570312 24.421875 C 77.472656 24.484375 77.371094 24.839844 77.371094 25.21875 C 77.371094 25.597656 77.292969 25.9375 77.195312 25.996094 C 77.09375 26.058594 76.976562 26.457031 76.898438 26.855469 C 76.558594 29.128906 76.578125 29.109375 75.964844 29.109375 C 75.648438 29.109375 75.390625 29.027344 75.390625 28.910156 Z M 22.214844 25.261719 C 22.214844 24.902344 22.136719 24.523438 22.035156 24.421875 C 21.9375 24.304688 21.796875 23.785156 21.738281 23.226562 C 21.699219 22.6875 21.558594 21.710938 21.480469 21.09375 L 21.300781 19.9375 L 21.835938 19.9375 C 22.136719 19.9375 22.511719 19.878906 22.671875 19.816406 C 23.066406 19.679688 23.167969 20.035156 23.78125 23.785156 C 23.859375 24.34375 24 24.980469 24.097656 25.179688 C 24.21875 25.460938 24.140625 25.519531 23.542969 25.519531 C 23.148438 25.519531 22.769531 25.617188 22.710938 25.71875 C 22.453125 26.117188 22.214844 25.898438 22.214844 25.261719 Z M 77.234375 21.191406 C 76.640625 21.113281 76.578125 21.054688 76.578125 20.433594 C 76.578125 20.058594 76.679688 19.699219 76.777344 19.636719 C 76.898438 19.578125 76.976562 19.160156 76.976562 18.742188 C 76.976562 18.324219 77.074219 17.902344 77.175781 17.84375 C 77.292969 17.785156 77.371094 17.425781 77.371094 17.046875 C 77.371094 16.667969 77.472656 16.308594 77.570312 16.25 C 77.691406 16.1875 77.769531 15.910156 77.769531 15.632812 C 77.769531 15.074219 77.710938 15.09375 78.582031 15.371094 C 78.960938 15.492188 79.355469 15.609375 79.496094 15.652344 C 79.65625 15.710938 79.636719 15.96875 79.417969 16.6875 C 79.097656 17.664062 78.820312 18.878906 78.621094 20.136719 C 78.523438 20.835938 78.226562 21.351562 77.988281 21.292969 C 77.929688 21.292969 77.570312 21.234375 77.234375 21.191406 Z M 12.15625 18.441406 C 12.015625 18.28125 11.898438 18.023438 11.898438 17.84375 C 11.898438 17.683594 11.816406 17.542969 11.699219 17.542969 C 11.597656 17.542969 11.5 17.367188 11.5 17.144531 C 11.5 16.925781 11.421875 16.746094 11.300781 16.746094 C 11.203125 16.746094 11.101562 16.609375 11.101562 16.449219 C 11.101562 16.269531 10.945312 16.070312 10.765625 16.007812 C 10.585938 15.929688 10.171875 15.632812 9.832031 15.3125 C 9.515625 15.011719 9.179688 14.753906 9.078125 14.753906 C 9 14.753906 8.644531 14.496094 8.285156 14.15625 C 7.949219 13.835938 7.589844 13.558594 7.492188 13.558594 C 7.414062 13.558594 7.054688 13.296875 6.699219 12.960938 C 6.359375 12.640625 6.003906 12.363281 5.90625 12.363281 C 5.785156 12.363281 5.449219 12.101562 5.152344 11.761719 C 4.851562 11.445312 4.496094 11.164062 4.355469 11.164062 C 4.21875 11.164062 3.859375 10.90625 3.5625 10.566406 C 3.265625 10.25 2.910156 9.96875 2.769531 9.96875 C 2.652344 9.96875 2.414062 9.828125 2.234375 9.671875 C 2.054688 9.492188 1.777344 9.410156 1.558594 9.46875 C 1.300781 9.570312 1.183594 9.492188 1.183594 9.269531 C 1.183594 9.09375 0.925781 8.671875 0.585938 8.375 C -0.0664062 7.757812 -0.207031 7.238281 0.328125 7.476562 C 0.527344 7.558594 0.964844 7.734375 1.28125 7.855469 C 2.015625 8.136719 2.371094 8.453125 2.371094 8.851562 C 2.371094 9.011719 2.53125 9.191406 2.730469 9.25 C 2.910156 9.332031 3.464844 9.730469 3.960938 10.167969 C 4.457031 10.605469 4.914062 10.964844 4.972656 10.964844 C 5.050781 10.964844 5.449219 11.285156 5.863281 11.664062 C 6.300781 12.042969 6.71875 12.363281 6.796875 12.363281 C 6.898438 12.363281 7.234375 12.640625 7.53125 12.960938 C 7.828125 13.296875 8.1875 13.558594 8.324219 13.558594 C 8.464844 13.558594 8.820312 13.835938 9.117188 14.15625 C 9.417969 14.496094 9.773438 14.753906 9.914062 14.753906 C 10.050781 14.753906 10.410156 15.03125 10.707031 15.351562 C 11.0625 15.75 11.460938 15.949219 11.835938 15.949219 C 12.710938 15.949219 13.820312 16.328125 13.960938 16.648438 C 14.039062 16.867188 13.921875 16.945312 13.582031 16.945312 C 13.046875 16.945312 12.910156 17.285156 13.386719 17.464844 C 13.542969 17.542969 13.683594 17.664062 13.683594 17.765625 C 13.683594 17.863281 13.542969 17.945312 13.386719 17.945312 C 13.226562 17.945312 13.085938 17.863281 13.085938 17.746094 C 13.085938 17.644531 12.988281 17.542969 12.867188 17.542969 C 12.730469 17.542969 12.691406 17.765625 12.769531 18.144531 C 12.890625 18.800781 12.589844 18.941406 12.15625 18.441406 Z M 20.726562 17.703125 C 20.6875 17.566406 20.605469 17.007812 20.527344 16.449219 L 20.308594 14.515625 L 20.191406 13.558594 L 22.867188 13.558594 C 24.355469 13.558594 25.6875 13.617188 25.863281 13.675781 C 26.082031 13.757812 26.183594 14.054688 26.183594 14.675781 L 26.183594 15.550781 L 22.394531 15.550781 L 22.53125 16.46875 C 22.632812 17.207031 22.589844 17.40625 22.292969 17.644531 C 21.816406 18.003906 20.84375 18.023438 20.726562 17.703125 Z M 70.628906 15.691406 C 70.628906 14.832031 70.648438 14.792969 71.28125 14.714844 C 71.617188 14.675781 72.96875 14.675781 74.257812 14.714844 L 76.578125 14.792969 L 76.578125 16.347656 L 73.921875 16.347656 C 72.453125 16.347656 71.121094 16.410156 70.945312 16.46875 C 70.6875 16.566406 70.628906 16.429688 70.628906 15.691406 Z M 62.691406 15.453125 L 62.691406 14.535156 L 65.628906 14.59375 L 68.542969 14.652344 L 68.601562 15.511719 L 68.664062 16.347656 L 62.691406 16.347656 Z M 28.167969 14.652344 L 28.167969 13.738281 L 31.101562 13.796875 L 34.019531 13.855469 L 34.078125 14.714844 L 34.140625 15.550781 L 28.167969 15.550781 Z M 36.101562 14.632812 L 36.101562 13.71875 L 36.816406 13.855469 C 37.53125 13.976562 38.683594 13.675781 38.683594 13.359375 C 38.683594 13.117188 39.734375 12.0625 40.089844 11.921875 C 40.410156 11.804688 41.460938 12.601562 41.460938 12.960938 C 41.460938 13.058594 41.023438 13.597656 40.46875 14.15625 C 39.933594 14.714844 39.476562 15.273438 39.476562 15.371094 C 39.476562 15.472656 38.722656 15.550781 37.789062 15.550781 L 36.101562 15.550781 Z M 59.378906 14.8125 C 59.019531 14.394531 58.722656 13.996094 58.722656 13.917969 C 58.722656 13.816406 58.40625 13.4375 58.027344 13.039062 C 57.652344 12.660156 57.332031 12.28125 57.332031 12.183594 C 57.332031 12.101562 57.15625 11.824219 56.9375 11.5625 L 56.539062 11.105469 L 57.136719 10.546875 C 57.867188 9.828125 57.988281 9.828125 58.425781 10.507812 C 58.621094 10.804688 59 11.265625 59.257812 11.503906 C 59.496094 11.761719 59.714844 12.0625 59.714844 12.160156 C 59.714844 12.261719 59.914062 12.539062 60.171875 12.800781 C 60.410156 13.058594 60.824219 13.558594 61.0625 13.917969 C 61.460938 14.453125 61.480469 14.59375 61.261719 14.8125 C 61.003906 15.054688 60.171875 15.550781 60.070312 15.550781 C 60.03125 15.53125 59.714844 15.210938 59.378906 14.8125 Z M 42.113281 10.667969 C 41.539062 10.050781 41.539062 9.871094 42.15625 9.25 C 42.433594 8.972656 42.652344 8.691406 42.652344 8.613281 C 42.652344 8.535156 43.085938 7.996094 43.644531 7.398438 C 44.179688 6.820312 44.675781 6.179688 44.734375 5.960938 C 44.894531 5.464844 45.210938 5.484375 45.886719 6.0625 C 46.539062 6.640625 46.558594 6.859375 45.925781 7.496094 C 45.648438 7.777344 45.429688 8.074219 45.429688 8.175781 C 45.429688 8.273438 44.992188 8.792969 44.457031 9.351562 C 43.921875 9.910156 43.425781 10.546875 43.34375 10.765625 C 43.1875 11.304688 42.652344 11.246094 42.113281 10.667969 Z M 54.636719 8.890625 C 54.515625 8.753906 54.296875 8.433594 54.160156 8.175781 C 54.019531 7.9375 53.601562 7.417969 53.246094 7.039062 C 52.867188 6.679688 52.570312 6.28125 52.570312 6.179688 C 52.570312 6.082031 52.332031 5.761719 52.054688 5.484375 L 51.539062 4.945312 L 52.273438 4.246094 C 52.671875 3.867188 53.027344 3.589844 53.046875 3.628906 C 53.066406 3.667969 53.304688 4.007812 53.582031 4.386719 C 53.839844 4.765625 54.296875 5.34375 54.59375 5.664062 C 54.914062 5.980469 55.152344 6.320312 55.152344 6.421875 C 55.152344 6.519531 55.46875 6.898438 55.84375 7.296875 C 56.738281 8.175781 56.71875 8.394531 55.804688 8.933594 C 55.25 9.230469 54.914062 9.230469 54.636719 8.890625 Z M 47.113281 4.488281 C 46.835938 4.207031 46.617188 3.910156 46.617188 3.828125 C 46.617188 3.75 47.074219 3.191406 47.609375 2.59375 C 48.148438 1.996094 48.601562 1.4375 48.601562 1.375 C 48.601562 1.117188 49.753906 0 50.03125 0 C 50.171875 0 50.507812 0.359375 50.785156 0.796875 C 51.0625 1.238281 51.339844 1.597656 51.421875 1.597656 C 51.679688 1.597656 51.597656 2.214844 51.300781 2.511719 C 51.144531 2.671875 50.886719 2.792969 50.726562 2.792969 C 50.546875 2.792969 50.367188 2.910156 50.308594 3.050781 C 50.210938 3.25 50.171875 3.25 50.070312 3.050781 C 49.894531 2.671875 49.636719 2.730469 49.496094 3.191406 C 49.355469 3.648438 48.085938 4.984375 47.808594 4.984375 C 47.710938 4.984375 47.394531 4.765625 47.113281 4.488281 Z M 47.113281 4.488281 "
    />
  </g>
</svg>
