<svg xmlns="http://www.w3.org/2000/svg" id="root" viewBox=".1 -.1 99 73.5">
  <path
    d="m46.6 3.9 3.3-4 1.8 2-1.4 1.3-.4-.6L47.8 5zm8.5 5.5-3.6-4.5L53 3.6l3.6 4.6Zm-13.5.5 3.5-4.4 1.4 1.3-3.5 4.4Zm14.9 1.2L58 10l3.6 4.6-1.4 1zm-20.4 2.7h2.5l1.5-2 1.4 1.1-2.1 2.5-3.3.2zm-7.9-.1 5.8.2.1 1.7h-6zm34.5.8 5.8.2.2 1.6h-6zm8 .3h5.9l-.4 1.6h-5.5zm-50.5-1.2h6v2h-3.8l.2 2.1-1.8.2zM76.5 21l1.4-6.2h2l-1.7 6.5zm-54.2 4.8-1-5.8 1.7-.2 1.1 5.7zm52.4 2.8 1.3-5.5 1.8.3-1.4 5.8zm10.3 4v-1.7l-1 .4-.3-.1v-.4l1-.6-1.6-.4-.2-.4.2-.4 2.8.5 10.6-5.1v-.8l2.6-.1-1.4 2-.8-.4-10.5 5.1-.5 2.3-.5.3zm-62 .1.5-.8-.8-3.9 1.7-.4 1 4.7-1 1.6zm50.3 1 1-3 1.6.5-.6 2 2 2.2-1.4 1zM18.2 39l3.4-4.4 1.4 1-3.3 4.5zm59-.8 1.5-1.2 3.6 4.4-1.3 1.3zm6.2 8.7.7-.4-1.7-2.2L84 43l3.3 4-2.5 1.2zM12 46.7l4.9-6 1.4 1.1-3.4 4.4 5.4 2.8-1 1.4zM76.3 50l5.3-2.4.8 1.5-5.3 2.6zm-54.8 1.5.8-1.7 5 2.7-.8 1.5zM69 53.6l5-2.6 1 1.6-4.8 2.5zM29.5 60l-1.3-5.6 1.1-.5.6.2 1.4 5.4zm38.8 2.2-1.7-.5 1.3-5.8 1.8.4zM46 66.1c-.8-1-.8-1.3-.9-4.1 0-3-.2-4.7-.5-5.3-.7-1.7-.6-4 .1-5v-1.4c-.7-3.6-.9-5-1-9.6a25 25 0 0 1 .6-8.2c.3-.6.3-3 0-3.6l-.7-1.5c-.2-.6-.5-1-.6-1l-.2-.3c0-.4-1.1-2.8-1.3-2.8a71.7 71.7 0 0 1-7.7 8.3 22 22 0 0 0-2.9 3.2 8 8 0 0 1-.6 2.1l-.1.9c0 .3-.1.5-.2.5l-.2-.2c0-.4-.7-.2-1.3.4-.7.7-1 .7-1.3.3-.2-.3-.2-.5 0-1l.2-1 .7-1 .7-1s.2-.4.6-.7l.6-.8.4-.7.5-.7a8 8 0 0 1 1.3-2.3l.3-.6c0-.2 1.3-1.8 2.7-3.2a22.8 22.8 0 0 0 3.1-4l.4-.7.3-.6.5-1.1c.7-1.4 2.5-2.7 3.7-2.7h.4c0-.3 1-.8 1.3-.8l.6-.3c.2-.3.5-.4.6-.4.6 0 1.1-2.2.7-2.7-.7-.8-1-2.5-.6-2.8l.2-.8c0-1.4.8-2.7 1.8-2.7l1.7-.1c1.1 0 1.3 0 2.4.8l.5 1.1c.5 1.4.5 3 0 4.4-.2.6-.4 1.5-.4 2.1 0 1 0 1 .4 1 .2 0 .4.2.4.3l.6.1c1.6 0 3 1 3.7 2.5a18 18 0 0 1 1.2 3.3l.2.2.2.4.2.4.2.3c0 .2.3.7.7 1l1 1.6c.2.4.5.7.6.7l.1.3c0 .7 1 2 2.8 3.9 1.5 1.6 2 2.3 2 3 0 .5-.1.6-.5.5h-.5c0 .2-.2.3-.3.3-.2 0-.3 0-.3-.2 0-.1-.1-.2-.3-.2-.4 0-1-.7-1-1.3l-.1-.6-.2-.5a12 12 0 0 0-2.7-2.8 14 14 0 0 1-3.4-3.5c-1.5-2.1-1.8-1.9-2.7 2.6-.3 1.5-.4 5.5-.2 6 .6 1.1.9 7.3.7 13.4a29.2 29.2 0 0 1-1 8.3c-.5 3-.5 3.9.1 5 1 1.5 1.2 2.2 1.2 2.8 0 1.3-1.2 1.8-2 .7a2 2 0 0 1-.3-.8l-.4-1.1-.4-1.1-.2-.4-.2-.4-.2-.4c-.2 0-.2-.3-.1-1 .2-1.5.2-4.3 0-5.5a3 3 0 0 1 .3-2l.2-1-.2-.4-.2-.6-.4-1.3-.4-1.3c-.6-2-1-4-1-5.3 0-1 0-1.1-.4-1.3-.5-.3-.5 0-.8 4.4a67.7 67.7 0 0 1-1.1 8c-.3.6-.4 1-.3 2l-.4 5c-.1.6.6 4 1 4l.3-.6 3.3 1.5L51 66l-2.4-1v.5c0 .7-.5 1-1.3 1-.5 0-.8 0-1.1-.4zm-14.8 1.2L30 62l1.7-.3 1.4 5.6-1.7.5zm7.3.4 4.9-2.4 1 1.7-5.2 2.5zm14.2-.8.9-1.5 5.2 2.7-1 1.5zm12.1 2.5 1.3-5.6 1.9.5-1.6 5.7zm-32.2 3.1-.8-2.7 1.8-.5.2.6 2.7-1.3.8 1.8zm32.8.9-5.6-3 .8-1.5 5.3 2.6zm-50.9-57L13 17l.8.7v.4l-.3.1-1-.6.4 1.6-.3.4h-.5l-.7-2.8-9.2-7.2-.8.3L.2 7.7l2.4.4v1l9.2 7.1 2.3-.6.5.3zM16 57.3l-.4 1.6 1.1-.1.3.2-.1.3-1 .4 1.3.7.1.5-.3.4-2.6-1.3L3 62.3l-.2.8-2.6-.6L2 61l.7.6 11.5-2.4 1-2.1.6-.2z"
  />
</svg>
