<svg xmlns="http://www.w3.org/2000/svg" id="root" viewBox="0 0 99 52">
  <g>
    <path
      d="M 44.140625 51.390625 C 44.140625 51.054688 44.324219 50.78125 44.535156 50.78125 C 44.75 50.78125 44.960938 50.65625 44.960938 50.476562 C 45.023438 49.988281 45.113281 49.773438 45.691406 48.492188 C 45.992188 47.820312 46.238281 47.179688 46.207031 47.058594 C 46.175781 46.90625 46.296875 46.816406 46.480469 46.816406 C 46.632812 46.816406 46.691406 46.691406 46.601562 46.511719 C 46.507812 46.359375 46.539062 46.207031 46.722656 46.207031 C 46.996094 46.207031 47.542969 44.496094 47.421875 44.007812 C 47.390625 43.855469 47.511719 43.765625 47.695312 43.765625 C 47.84375 43.765625 47.9375 43.644531 47.816406 43.492188 C 47.722656 43.339844 47.785156 43.125 47.96875 43.003906 C 48.148438 42.882812 48.210938 42.667969 48.117188 42.515625 C 47.996094 42.363281 48.089844 42.242188 48.300781 42.242188 C 48.511719 42.242188 48.574219 42.148438 48.484375 42.027344 C 48.363281 41.933594 48.421875 41.660156 48.605469 41.449219 C 48.785156 41.234375 48.816406 40.867188 48.695312 40.65625 C 48.117188 39.738281 48.363281 39.464844 49.03125 40.289062 C 49.546875 40.898438 49.757812 41.019531 49.789062 40.683594 C 49.789062 40.410156 49.574219 40.015625 49.332031 39.800781 C 49.089844 39.585938 48.878906 39.222656 48.878906 39.007812 C 48.878906 38.761719 48.726562 38.582031 48.574219 38.582031 C 48.390625 38.582031 48.300781 38.488281 48.332031 38.367188 C 48.421875 38 47.632812 36.691406 47.449219 36.871094 C 47.359375 36.964844 47.300781 38.335938 47.328125 39.921875 C 47.390625 42.515625 46.933594 45.289062 46.480469 45.289062 C 46.386719 45.289062 45.75 44.253906 45.082031 42.972656 C 44.414062 41.691406 43.65625 40.503906 43.382812 40.289062 C 43.109375 40.105469 42.53125 39.375 42.109375 38.671875 C 41.683594 37.96875 41.167969 37.332031 40.953125 37.207031 C 40.378906 36.8125 39.253906 38.367188 37.21875 42.421875 C 36.25 44.375 35.214844 45.351562 34.609375 44.984375 C 34.214844 44.742188 34.152344 41.722656 34.0625 22.417969 L 33.972656 0.152344 L 36.128906 0.152344 L 36.128906 11.710938 L 37.21875 11.070312 C 38.585938 10.277344 42.046875 9.972656 43.472656 10.523438 C 44.019531 10.734375 44.839844 11.285156 45.324219 11.679688 L 46.144531 12.472656 L 46.144531 0.121094 L 46.996094 0.214844 C 47.449219 0.273438 47.785156 0.457031 47.753906 0.671875 C 47.695312 0.882812 47.664062 7.777344 47.664062 16.011719 C 47.632812 29.066406 47.570312 30.988281 47.207031 30.835938 C 46.964844 30.742188 46.753906 30.804688 46.753906 30.957031 C 46.753906 31.445312 47.96875 31.292969 48.148438 30.804688 C 48.269531 30.558594 48.511719 30.347656 48.757812 30.347656 C 49 30.347656 49.179688 30.132812 49.179688 29.886719 C 49.179688 29.644531 49.425781 29.429688 49.726562 29.429688 C 50.152344 29.429688 50.183594 29.371094 49.789062 29.125 C 49.546875 28.972656 49.453125 28.820312 49.605469 28.820312 C 49.757812 28.820312 49.605469 28.515625 49.273438 28.148438 C 47.996094 26.6875 47.601562 24.183594 48.511719 23.300781 C 48.847656 22.996094 49.210938 22.84375 49.332031 22.964844 C 49.453125 23.085938 49.515625 22.964844 49.425781 22.722656 C 49.210938 22.082031 49.789062 21.59375 50.609375 21.746094 L 51.304688 21.867188 L 51.304688 0.152344 L 53.128906 0.152344 L 53.128906 12.472656 L 53.976562 11.652344 C 55.707031 10.003906 60.351562 9.882812 62.355469 11.46875 L 63.144531 12.078125 L 63.144531 0.152344 L 64.96875 0.152344 L 64.96875 22.050781 L 64.300781 22.539062 C 63.691406 22.996094 63.691406 23.027344 64.207031 22.8125 C 64.542969 22.691406 65.421875 22.570312 66.183594 22.539062 L 67.941406 22.445312 C 68.214844 22.417969 68.308594 19.976562 68.308594 11.285156 L 68.308594 0.152344 L 70.402344 0.152344 L 70.339844 2.226562 C 70.3125 3.355469 70.3125 6.007812 70.371094 8.171875 C 70.433594 11.742188 70.492188 12.046875 71.007812 12.046875 C 71.3125 12.046875 71.648438 11.773438 71.738281 11.4375 C 71.828125 11.039062 72.164062 10.828125 72.648438 10.828125 C 73.074219 10.828125 73.527344 10.703125 73.621094 10.523438 C 74.105469 9.757812 78.386719 10.550781 79.570312 11.621094 C 80.148438 12.136719 80.148438 12.015625 80.148438 6.160156 L 80.148438 0.152344 L 82.058594 0.152344 L 81.847656 21.441406 C 81.605469 42.699219 81.542969 44.742188 81.210938 45.289062 C 80.90625 45.777344 80.570312 45.414062 79.386719 43.214844 C 78.75 42.089844 77.777344 40.65625 77.234375 40.015625 C 76.65625 39.402344 76.199219 38.734375 76.199219 38.550781 C 76.199219 38.367188 75.898438 37.910156 75.53125 37.511719 L 74.863281 36.8125 L 74.347656 37.484375 C 74.074219 37.816406 73.558594 38.734375 73.164062 39.464844 C 72.679688 40.472656 72.4375 40.714844 72.222656 40.378906 C 72.011719 40.015625 71.949219 40.015625 71.921875 40.410156 C 71.890625 40.835938 71.828125 41.113281 71.648438 41.78125 L 71.648438 42.882812 C 71.675781 43.519531 71.496094 43.765625 70.828125 44.007812 C 70.3125 44.191406 70.191406 44.34375 70.523438 44.34375 C 70.796875 44.375 71.039062 44.621094 71.039062 44.925781 C 71.039062 45.382812 71.101562 45.382812 71.375 44.984375 C 71.617188 44.621094 71.675781 44.710938 71.554688 45.382812 C 71.496094 45.839844 71.523438 46.207031 71.675781 46.207031 C 71.949219 46.207031 72.710938 48.339844 72.617188 48.765625 C 72.558594 48.917969 72.710938 49.164062 72.921875 49.316406 C 73.253906 49.5 73.253906 49.621094 72.921875 49.804688 C 72.617188 50.019531 72.617188 50.140625 73.011719 50.476562 C 73.285156 50.6875 73.4375 51.054688 73.347656 51.269531 C 73.253906 51.511719 73.5 51.695312 74.015625 51.785156 C 74.46875 51.847656 72.253906 51.9375 69.097656 51.96875 L 63.359375 52 L 64.058594 51.390625 C 64.421875 51.054688 64.875 50.871094 65.058594 50.992188 C 65.269531 51.117188 65.300781 50.351562 65.148438 48.613281 L 64.875 45.382812 C 64.847656 44.558594 64.695312 44.496094 64.207031 45.199219 C 63.84375 45.6875 63.722656 45.566406 62.964844 44.285156 C 62.113281 42.882812 61.144531 42.453125 61.203125 43.519531 C 61.234375 43.828125 61.082031 43.949219 60.871094 43.886719 C 60.65625 43.796875 60.382812 43.855469 60.292969 44.039062 C 60.171875 44.222656 59.746094 44.222656 59.230469 44.070312 C 58.746094 43.949219 58.257812 43.886719 58.167969 44.007812 C 58.078125 44.101562 57.984375 44.039062 57.984375 43.886719 C 57.984375 43.734375 57.683594 43.550781 57.316406 43.519531 C 56.496094 43.460938 55.683594 43.328125 54.890625 43.125 C 54.738281 43.125 54.644531 43.003906 54.644531 42.789062 C 54.644531 42.363281 54.25 42.726562 54.160156 43.246094 C 53.765625 45.261719 53.734375 45.71875 54.007812 45.136719 C 54.191406 44.742188 54.25 45.6875 54.128906 47.882812 C 54.070312 49.773438 53.855469 51.328125 53.675781 51.421875 C 53.460938 51.542969 53.582031 51.695312 53.917969 51.785156 C 54.222656 51.847656 52.15625 51.9375 49.332031 51.96875 C 44.355469 52 44.140625 51.96875 44.140625 51.390625 Z M 60.414062 40.472656 L 59.140625 38.550781 L 57.863281 36.71875 L 57.316406 37.421875 C 56.679688 38.277344 56.648438 38.855469 57.226562 39.617188 C 57.46875 39.953125 57.683594 40.136719 57.683594 40.015625 C 57.683594 39.890625 58.015625 39.953125 58.441406 40.195312 C 59.140625 40.53125 60.414062 40.746094 60.414062 40.472656 Z M 38.769531 35.925781 C 39.4375 34.738281 39.648438 34.617188 40.679688 34.617188 C 41.652344 34.617188 42.015625 34.796875 42.714844 35.652344 C 43.171875 36.230469 43.839844 37.238281 44.171875 37.878906 C 45.660156 40.777344 45.660156 40.777344 45.871094 38.277344 C 45.964844 37.023438 45.933594 35.132812 45.78125 34.097656 C 45.570312 32.816406 45.597656 31.382812 45.8125 29.707031 C 45.992188 28.332031 46.144531 25.769531 46.144531 24.0625 L 46.144531 20.890625 L 44.71875 21.804688 C 43.445312 22.628906 43.019531 22.722656 40.984375 22.722656 C 38.859375 22.722656 38.523438 22.628906 37.402344 21.804688 L 36.128906 20.890625 L 36.128906 29.707031 C 36.128906 34.554688 36.035156 38.976562 35.945312 39.527344 C 35.730469 40.503906 35.792969 40.472656 36.886719 38.886719 Z M 80.148438 30.804688 L 80.148438 21.195312 L 79.023438 21.929688 C 76.898438 23.300781 73.5 23.300781 71.496094 21.929688 L 70.460938 21.226562 L 70.644531 22.203125 C 70.734375 22.75 70.949219 23.210938 71.101562 23.269531 C 71.496094 23.453125 71.375 26.746094 70.886719 28.058594 C 70.28125 29.765625 70.3125 29.980469 71.34375 30.5 C 71.859375 30.773438 72.253906 31.167969 72.253906 31.414062 C 72.253906 31.628906 72.558594 31.871094 72.953125 31.933594 C 73.527344 32.023438 73.621094 32.238281 73.710938 33.488281 L 73.800781 34.921875 L 74.957031 34.921875 C 75.804688 34.921875 76.261719 35.132812 76.839844 35.773438 C 77.777344 36.84375 78.691406 38.152344 79.359375 39.433594 C 79.632812 39.953125 79.933594 40.410156 79.996094 40.410156 C 80.085938 40.410156 80.148438 36.078125 80.148438 30.804688 Z M 56.46875 35.164062 C 56.46875 35.011719 56.984375 34.921875 57.621094 34.921875 C 58.59375 34.921875 58.925781 35.132812 59.929688 36.292969 C 60.597656 37.054688 61.234375 37.664062 61.355469 37.664062 C 61.507812 37.664062 61.960938 37.054688 62.386719 36.355469 C 63.144531 35.011719 63.144531 34.980469 63.144531 27.875 C 63.144531 23.941406 63.023438 20.890625 62.902344 21.074219 C 62.265625 22.113281 60.535156 22.722656 58.378906 22.722656 C 56.195312 22.722656 56.164062 22.722656 56.164062 23.515625 C 56.164062 24.03125 55.980469 24.367188 55.554688 24.460938 C 54.828125 24.644531 54.796875 24.855469 55.40625 25.648438 C 56.042969 26.503906 55.980469 27.996094 55.253906 28.457031 C 54.917969 28.667969 54.644531 29.15625 54.644531 29.582031 C 54.644531 30.222656 54.492188 30.347656 53.734375 30.347656 C 52.582031 30.347656 52.550781 30.804688 53.703125 31.199219 C 54.585938 31.503906 54.585938 31.535156 54.828125 34.644531 L 55.039062 37.757812 L 55.738281 36.566406 C 56.132812 35.925781 56.46875 35.285156 56.46875 35.164062 Z M 56.375 18.910156 C 56.253906 18.664062 55.859375 18.453125 55.496094 18.453125 L 54.796875 18.453125 L 55.554688 19.0625 C 56.375 19.671875 56.648438 19.640625 56.375 18.910156 Z M 60.71875 19.214844 C 60.929688 18.941406 61.019531 18.664062 60.929688 18.574219 C 60.625 18.238281 59.808594 18.726562 59.808594 19.214844 C 59.808594 19.792969 60.230469 19.792969 60.71875 19.214844 Z M 72.558594 16.5625 L 72.558594 14.03125 L 71.949219 14.945312 C 71.191406 16.074219 71.191406 16.894531 71.890625 18.117188 C 72.164062 18.632812 72.4375 19.0625 72.496094 19.0625 C 72.527344 19.0625 72.558594 17.933594 72.558594 16.5625 Z M 78.839844 16.867188 C 78.964844 15.828125 78.871094 15.371094 78.355469 14.792969 L 77.75 14.03125 L 77.71875 16.621094 C 77.71875 18.96875 77.75 19.152344 78.203125 18.695312 C 78.476562 18.421875 78.75 17.597656 78.839844 16.867188 Z M 59.015625 12.929688 C 58.683594 12.808594 58.015625 12.808594 57.5 12.902344 C 56.617188 13.082031 56.617188 13.082031 57.378906 13.265625 C 57.804688 13.359375 58.472656 13.390625 58.867188 13.296875 C 59.5625 13.175781 59.59375 13.144531 59.015625 12.929688 Z M 97.542969 45.136719 C 97.421875 44.742188 97.300781 44.742188 96.875 45.046875 C 96.449219 45.414062 96.417969 45.382812 96.8125 44.894531 C 97.179688 44.4375 97.179688 44.285156 96.785156 43.828125 C 96.511719 43.550781 96.207031 43.003906 96.117188 42.636719 C 95.996094 42.242188 95.75 41.933594 95.601562 41.933594 C 95.449219 41.933594 95.328125 41.78125 95.328125 41.601562 C 95.328125 41.417969 94.871094 40.714844 94.292969 40.015625 C 93.746094 39.3125 93.109375 38.429688 92.929688 38.0625 C 92.140625 36.507812 91.046875 37.605469 88.496094 42.636719 C 87.617188 44.34375 86.308594 45.503906 85.824219 45.015625 C 85.550781 44.742188 85.429688 39.648438 85.367188 22.417969 L 85.277344 0.152344 L 87.433594 0.152344 L 87.433594 12.015625 L 88.527344 11.285156 C 90.742188 9.789062 94.113281 9.910156 96.480469 11.621094 L 97.148438 12.109375 L 97.148438 0.152344 L 99 0.152344 L 98.847656 21.5625 C 98.757812 33.367188 98.667969 43.519531 98.605469 44.132812 C 98.515625 45.320312 97.875 45.929688 97.542969 45.136719 Z M 97.085938 26.078125 L 96.996094 21.164062 L 95.964844 21.957031 C 95.023438 22.628906 94.597656 22.722656 92.472656 22.722656 C 90.4375 22.722656 89.800781 22.597656 88.769531 21.988281 L 87.523438 21.289062 L 87.28125 30.558594 C 87.160156 35.652344 87.128906 39.890625 87.191406 39.953125 C 87.25 40.042969 88.070312 38.945312 88.980469 37.511719 C 90.621094 34.953125 90.621094 34.953125 91.925781 34.921875 C 93.445312 34.921875 94.050781 35.46875 95.84375 38.519531 L 96.996094 40.472656 L 97.085938 35.714844 Z M 89.558594 17.992188 C 89.558594 17.507812 89.375 17.230469 89.101562 17.230469 C 88.554688 17.230469 88.554688 17.382812 88.953125 18.175781 C 89.375 18.96875 89.558594 18.910156 89.558594 17.992188 Z M 11.234375 43.398438 C 10.65625 42.332031 9.683594 40.835938 9.046875 40.074219 C 8.410156 39.3125 7.894531 38.550781 7.894531 38.398438 C 7.894531 38.214844 7.558594 37.789062 7.195312 37.390625 C 6.617188 36.871094 6.40625 36.8125 6.164062 37.117188 C 5.554688 37.910156 3.492188 41.507812 2.855469 42.851562 C 2.125 44.4375 0.757812 45.414062 0.304688 44.679688 C 0.121094 44.40625 0 35.074219 0 22.203125 L 0 0.152344 L 0.878906 0.152344 C 1.730469 0.152344 1.792969 0.242188 1.972656 1.769531 C 2.0625 2.621094 2.09375 5.308594 2.035156 7.714844 C 1.914062 11.742188 1.941406 12.046875 2.398438 11.621094 C 4.007812 10.15625 7.652344 9.789062 10.019531 10.859375 C 10.746094 11.191406 11.476562 11.621094 11.597656 11.832031 C 11.71875 12.046875 11.839844 9.484375 11.839844 6.191406 L 11.839844 0.152344 L 13.753906 0.152344 L 13.539062 20.527344 C 13.328125 42.089844 13.207031 45.289062 12.597656 45.289062 C 12.386719 45.289062 11.777344 44.4375 11.234375 43.398438 Z M 3.523438 37.96875 C 4.191406 37.054688 4.886719 35.925781 5.101562 35.46875 C 5.375 34.769531 5.648438 34.617188 6.527344 34.617188 C 7.800781 34.617188 8.894531 35.621094 10.351562 38.183594 C 10.867188 39.070312 11.382812 39.863281 11.566406 39.953125 C 11.71875 40.074219 11.839844 36.476562 11.839844 30.652344 L 11.839844 21.164062 L 10.535156 21.957031 C 9.410156 22.597656 8.835938 22.722656 6.769531 22.722656 C 4.554688 22.722656 4.21875 22.628906 3.097656 21.804688 L 1.820312 20.890625 L 1.820312 30.558594 C 1.820312 35.957031 1.941406 40.105469 2.09375 39.953125 Z M 28.992188 44.710938 C 28.902344 44.34375 28.628906 43.886719 28.445312 43.703125 C 28.234375 43.492188 27.777344 42.667969 27.414062 41.875 C 27.019531 41.050781 26.59375 40.410156 26.441406 40.410156 C 26.289062 40.410156 25.835938 39.890625 25.472656 39.28125 C 25.078125 38.640625 24.46875 37.816406 24.105469 37.421875 L 23.40625 36.71875 L 22.980469 37.421875 C 22.738281 37.816406 21.828125 39.375 21.007812 40.867188 C 19.003906 44.46875 18.609375 44.984375 17.941406 44.984375 C 17.546875 44.984375 17.335938 44.679688 17.183594 44.039062 C 17.09375 43.519531 17 33.425781 17 21.625 L 17 0.152344 L 18.824219 0.152344 L 18.824219 6.160156 C 18.824219 11.894531 18.851562 12.109375 19.367188 11.652344 C 20.339844 10.765625 22.101562 10.21875 23.953125 10.21875 C 25.894531 10.21875 27.078125 10.582031 28.171875 11.558594 L 28.839844 12.136719 L 28.839844 0.152344 L 30.722656 0.152344 L 30.632812 20.21875 C 30.511719 43.246094 30.417969 45.078125 29.691406 45.230469 C 29.417969 45.289062 29.113281 45.078125 28.992188 44.710938 Z M 28.839844 30.589844 L 28.839844 20.800781 L 28.171875 21.410156 C 26.988281 22.476562 26.230469 22.722656 23.921875 22.722656 C 21.949219 22.722656 21.492188 22.597656 20.25 21.804688 L 18.824219 20.890625 L 18.824219 30.558594 C 18.824219 37.574219 18.914062 40.136719 19.15625 39.890625 C 19.339844 39.710938 20.128906 38.488281 20.917969 37.175781 C 22.253906 34.921875 22.40625 34.769531 23.46875 34.675781 C 24.4375 34.585938 24.742188 34.738281 25.652344 35.746094 C 26.230469 36.382812 26.714844 37.054688 26.714844 37.238281 C 26.714844 37.421875 26.988281 37.816406 27.292969 38.09375 C 27.625 38.398438 28.050781 39.039062 28.234375 39.527344 C 28.445312 40.015625 28.660156 40.410156 28.71875 40.410156 C 28.78125 40.410156 28.839844 35.988281 28.839844 30.589844 Z M 25.957031 19.488281 C 26.382812 19.214844 26.714844 18.878906 26.714844 18.726562 C 26.714844 18.574219 25.410156 18.453125 23.800781 18.453125 C 21.097656 18.453125 20.917969 18.480469 21.28125 18.96875 C 22.375 20.28125 24.410156 20.496094 25.957031 19.488281 Z M 26.351562 13.816406 C 26.261719 13.601562 25.652344 13.207031 24.953125 12.960938 C 23.832031 12.566406 23.589844 12.597656 22.617188 13.054688 C 20.917969 13.875 21.3125 14.183594 24.015625 14.183594 C 25.835938 14.183594 26.441406 14.089844 26.351562 13.816406 Z M 26.351562 13.816406 "
    />
    <path
      style="stroke: none; fill-rule: nonzero; fill: rgb(68.627451%, 65.490196%, 40.784314%); fill-opacity: 1"
      d="M 48.726562 51.390625 C 48.148438 50.75 48.148438 50.75 48.96875 49.988281 C 49.605469 49.378906 49.789062 48.949219 49.789062 47.882812 C 49.789062 47.152344 49.941406 46.449219 50.121094 46.328125 C 50.394531 46.175781 50.425781 46.632812 50.273438 48.066406 C 50.121094 49.53125 49.878906 50.140625 49.425781 50.503906 C 48.96875 50.871094 48.90625 51.054688 49.179688 51.144531 C 49.394531 51.207031 49.515625 51.449219 49.453125 51.664062 C 49.363281 51.9375 49.152344 51.847656 48.726562 51.390625 Z M 64.085938 51.359375 C 64.753906 50.78125 65.269531 50.839844 65.269531 51.480469 C 65.269531 51.695312 64.875 51.847656 64.359375 51.878906 L 63.449219 51.910156 Z M 53.429688 48.675781 C 53.429688 48.003906 53.554688 47.394531 53.703125 47.304688 C 54.039062 47.089844 54.3125 48.492188 54.128906 49.285156 C 53.855469 50.292969 53.429688 49.925781 53.429688 48.675781 Z M 30.144531 43.765625 C 30.144531 43.003906 30.207031 42.699219 30.269531 43.09375 C 30.328125 43.460938 30.328125 44.070312 30.269531 44.46875 C 30.207031 44.832031 30.144531 44.527344 30.144531 43.765625 Z M 0.910156 29.675781 C 0.910156 20.34375 1 15.402344 1.214844 15.402344 C 1.398438 15.402344 1.519531 15.796875 1.519531 16.285156 C 1.519531 17.8125 2.671875 19.914062 4.039062 20.921875 C 5.160156 21.746094 5.496094 21.835938 6.984375 21.746094 C 7.894531 21.683594 8.894531 21.5 9.199219 21.378906 C 9.625 21.164062 9.714844 21.289062 9.714844 21.957031 C 9.714844 22.75 9.652344 22.78125 8.5 22.660156 L 7.285156 22.539062 L 7.285156 29.21875 C 7.285156 35.132812 7.226562 35.867188 6.800781 35.714844 C 6.496094 35.589844 6.222656 35.835938 5.921875 36.539062 C 5.707031 37.054688 5.585938 37.636719 5.675781 37.789062 C 5.796875 37.941406 5.738281 37.96875 5.554688 37.878906 C 5.28125 37.695312 2.730469 40.988281 2.730469 41.539062 C 2.730469 41.660156 2.308594 42.269531 1.820312 42.851562 L 0.941406 43.917969 Z M 17.09375 42.242188 C 17.09375 41.324219 17.152344 40.929688 17.214844 41.417969 C 17.273438 41.875 17.273438 42.605469 17.214844 43.09375 C 17.152344 43.550781 17.09375 43.15625 17.09375 42.242188 Z M 17.910156 22.050781 L 17.910156 0.152344 L 22.464844 0.152344 L 22.464844 5.125 C 22.464844 7.839844 22.554688 10.339844 22.648438 10.675781 C 22.769531 11.191406 22.585938 11.375 21.738281 11.679688 C 20.097656 12.289062 19.035156 13.875 18.882812 15.949219 C 18.730469 18.359375 19.367188 19.792969 21.128906 20.832031 L 22.464844 21.652344 L 22.40625 29.066406 C 22.34375 33.121094 22.40625 36.476562 22.527344 36.539062 C 22.648438 36.566406 22.132812 37.574219 21.402344 38.734375 C 20.644531 39.921875 19.914062 41.140625 19.761719 41.476562 C 19.613281 41.8125 19.125 42.515625 18.699219 43.003906 L 17.941406 43.917969 Z M 46.296875 43.519531 C 46.144531 43.398438 45.839844 43.035156 45.660156 42.699219 C 45.476562 42.363281 45.175781 42.089844 44.992188 42.089844 C 44.808594 42.089844 44.566406 41.964844 44.414062 41.8125 C 44.261719 41.660156 44.355469 41.628906 44.597656 41.78125 C 44.871094 41.933594 44.960938 41.875 44.871094 41.601562 C 44.777344 41.355469 44.535156 41.203125 44.355469 41.265625 C 44.140625 41.296875 44.050781 41.203125 44.140625 41.050781 C 44.324219 40.746094 43.261719 38.582031 42.136719 36.964844 C 41.589844 36.203125 41.5625 35.589844 41.589844 29.277344 L 41.621094 22.417969 L 40.164062 22.417969 L 39.953125 27.691406 C 39.832031 30.558594 39.769531 33.761719 39.800781 34.769531 C 39.859375 36.597656 39.832031 36.660156 37.644531 40.042969 C 36.398438 41.933594 35.277344 43.460938 35.09375 43.460938 C 34.941406 43.460938 34.882812 41.964844 35.003906 39.585938 C 35.125 37.421875 35.214844 27.691406 35.214844 17.933594 L 35.214844 0.152344 L 40.074219 0.152344 L 40.074219 5.03125 C 40.074219 9.117188 40.164062 9.972656 40.527344 10.09375 C 41.410156 10.460938 40.953125 11.070312 39.558594 11.40625 C 37.097656 12.046875 35.15625 15.097656 35.703125 17.476562 C 36.25 19.703125 38.796875 21.804688 40.984375 21.804688 C 43.019531 21.804688 44.992188 20.496094 45.691406 18.632812 C 45.992188 17.871094 46.417969 17.230469 46.632812 17.230469 C 46.996094 17.230469 47.054688 18.390625 46.996094 23.789062 C 46.933594 27.386719 46.996094 30.347656 47.117188 30.347656 C 47.238281 30.347656 47.390625 28.609375 47.449219 26.472656 L 47.542969 22.570312 L 47.570312 26.777344 C 47.601562 30.285156 47.542969 30.957031 47.175781 30.835938 C 46.933594 30.742188 46.753906 30.804688 46.753906 30.925781 C 46.753906 31.078125 46.933594 31.292969 47.148438 31.351562 C 47.359375 31.445312 47.300781 31.535156 46.996094 31.535156 C 46.691406 31.566406 46.449219 31.65625 46.449219 31.808594 C 46.449219 31.992188 46.964844 34.402344 47.511719 36.78125 C 47.570312 37.054688 47.480469 37.453125 47.300781 37.695312 C 47.085938 38.03125 47.054688 37.96875 47.207031 37.511719 C 47.328125 37.085938 47.300781 36.996094 47.085938 37.207031 C 46.90625 37.390625 46.722656 38.917969 46.691406 40.625 C 46.632812 42.636719 46.480469 43.675781 46.296875 43.519531 Z M 28.292969 42.117188 L 25.925781 38.183594 C 25.746094 37.878906 25.167969 37.148438 24.652344 36.566406 C 23.863281 35.652344 23.800781 35.53125 24.316406 35.53125 C 24.804688 35.53125 24.894531 35.316406 24.894531 34.25 L 24.984375 27.84375 C 25.046875 22.386719 25.046875 22.417969 23.496094 22.417969 C 23.101562 22.417969 22.769531 22.292969 22.769531 22.113281 C 22.769531 21.957031 23.347656 21.804688 24.074219 21.804688 C 27.171875 21.804688 29.628906 18.542969 29.023438 15.25 C 28.75 13.785156 27.050781 11.957031 25.5 11.4375 C 24.347656 11.039062 23.890625 10.398438 24.652344 10.15625 C 24.894531 10.066406 25.015625 8.539062 25.015625 5.09375 L 25.046875 0.152344 L 29.75 0.152344 L 29.75 21.804688 C 29.75 36.355469 29.660156 43.460938 29.449219 43.460938 C 29.265625 43.460938 28.75 42.851562 28.292969 42.117188 Z M 34.09375 42.394531 C 34.09375 41.722656 34.152344 41.476562 34.214844 41.875 C 34.273438 42.242188 34.273438 42.789062 34.214844 43.09375 C 34.125 43.367188 34.0625 43.0625 34.09375 42.394531 Z M 97.875 37.96875 C 97.875 36.203125 97.90625 35.5 97.96875 36.382812 C 98.027344 37.238281 98.027344 38.703125 97.96875 39.585938 C 97.90625 40.441406 97.875 39.738281 97.875 37.96875 Z M 98.789062 38.429688 C 98.789062 36.933594 98.816406 36.261719 98.878906 36.964844 C 98.9375 37.664062 98.9375 38.917969 98.878906 39.710938 C 98.816406 40.503906 98.789062 39.953125 98.789062 38.429688 Z M 55.101562 40.257812 L 53.886719 39.890625 L 53.855469 37.636719 C 53.824219 32.449219 53.855469 32.542969 52.671875 32.054688 C 52.09375 31.808594 51.609375 31.382812 51.609375 31.140625 C 51.609375 30.894531 51.304688 30.46875 50.941406 30.222656 C 50.121094 29.644531 50.394531 29.25 51.277344 29.734375 C 51.699219 29.949219 51.914062 29.949219 51.914062 29.734375 C 51.914062 29.582031 51.792969 29.429688 51.640625 29.429688 C 51.304688 29.429688 50.304688 27.90625 50.515625 27.691406 C 50.609375 27.601562 50.972656 27.875 51.367188 28.273438 C 51.761719 28.699219 52.429688 29.125 52.914062 29.25 C 53.644531 29.429688 53.734375 29.371094 53.734375 28.667969 C 53.734375 28.242188 53.976562 27.753906 54.3125 27.539062 C 54.859375 27.203125 54.859375 27.175781 54.3125 26.289062 C 54.007812 25.769531 53.824219 25.253906 53.917969 25.101562 C 54.191406 24.671875 53.734375 23.699219 53.1875 23.515625 C 52.914062 23.453125 53.160156 23.453125 53.765625 23.542969 C 54.402344 23.636719 54.980469 23.542969 55.070312 23.363281 C 55.222656 23.148438 54.980469 23.027344 54.492188 23.027344 C 53.949219 23.027344 53.734375 22.90625 53.824219 22.628906 C 53.917969 22.355469 53.402344 22.292969 51.519531 22.386719 C 49.394531 22.476562 49.152344 22.417969 49.515625 22.050781 C 49.789062 21.714844 50.214844 21.652344 50.910156 21.804688 C 51.429688 21.929688 51.945312 21.957031 52.035156 21.867188 C 52.15625 21.777344 52.21875 16.867188 52.21875 10.917969 L 52.21875 0.152344 L 64.058594 0.152344 L 64.058594 11.132812 C 64.058594 18.238281 64.179688 22.113281 64.359375 22.113281 C 64.542969 22.113281 64.695312 18.175781 64.726562 11.070312 L 64.816406 0 L 64.875 10.980469 L 64.96875 21.957031 L 64.300781 22.507812 C 63.84375 22.90625 63.785156 23.027344 64.117188 22.933594 C 64.390625 22.84375 64.695312 22.964844 64.785156 23.210938 C 65.027344 23.878906 65.027344 23.941406 64.511719 23.941406 C 64.269531 23.941406 64.058594 24.09375 64.058594 24.246094 C 64.058594 24.429688 64.542969 24.550781 65.121094 24.550781 C 65.96875 24.550781 66.183594 24.671875 66.183594 25.160156 C 66.183594 25.558594 65.96875 25.769531 65.574219 25.769531 C 65.210938 25.769531 64.96875 25.984375 64.96875 26.289062 C 64.96875 26.5625 64.753906 27.050781 64.480469 27.355469 C 63.996094 27.84375 63.996094 27.90625 64.480469 28.089844 C 64.847656 28.242188 64.96875 28.699219 64.96875 30.222656 C 64.96875 31.75 65.058594 32.175781 65.421875 32.175781 C 65.695312 32.175781 65.789062 32.359375 65.667969 32.726562 C 65.515625 33.152344 65.574219 33.121094 65.96875 32.632812 C 66.578125 31.871094 66.636719 32.511719 66.0625 33.640625 C 65.847656 34.097656 65.484375 35.5 65.269531 36.78125 C 64.816406 39.3125 64.875 39.28125 61.78125 40.289062 C 60.503906 40.714844 60.078125 40.625 60.65625 40.042969 C 60.898438 39.800781 60.839844 39.496094 60.445312 38.917969 C 59.59375 37.726562 57.710938 35.714844 57.589844 35.867188 C 56.953125 36.660156 55.921875 38.886719 56.164062 38.886719 C 56.316406 38.886719 56.46875 38.703125 56.46875 38.519531 C 56.46875 38.304688 56.648438 38.457031 56.863281 38.886719 C 57.105469 39.3125 57.257812 39.679688 57.195312 39.738281 C 57.164062 39.800781 56.589844 39.554688 55.890625 39.222656 C 54.523438 38.488281 54.34375 38.457031 54.34375 38.855469 C 54.34375 39.007812 54.917969 39.34375 55.617188 39.554688 C 56.316406 39.800781 56.953125 40.167969 57.015625 40.347656 C 57.164062 40.808594 56.710938 40.777344 55.101562 40.257812 Z M 64.207031 38.488281 L 64.632812 36.597656 C 64.875 35.589844 65.148438 34.523438 65.300781 34.25 C 65.484375 33.882812 65.484375 33.699219 65.300781 33.699219 C 65.121094 33.699219 64.90625 34.035156 64.785156 34.433594 C 64.695312 34.859375 63.996094 36.109375 63.269531 37.238281 C 62.539062 38.367188 61.933594 39.34375 61.933594 39.402344 C 61.933594 39.496094 64.148438 38.640625 64.207031 38.488281 Z M 64.664062 31.382812 C 64.664062 29.886719 64.542969 28.820312 64.359375 28.820312 C 64.179688 28.820312 64.058594 29.949219 64.058594 31.597656 C 64.058594 33.335938 64.179688 34.28125 64.359375 34.160156 C 64.542969 34.066406 64.664062 32.816406 64.664062 31.382812 Z M 60.6875 21.164062 C 62.113281 20.371094 63.449219 18.269531 63.417969 16.894531 L 63.390625 15.859375 L 63.117188 16.957031 C 62.175781 21.011719 58.472656 22.660156 55.285156 20.433594 C 53.765625 19.398438 53.308594 18.300781 53.492188 15.980469 C 53.613281 14.273438 53.734375 14 54.707031 13.082031 C 55.464844 12.414062 56.222656 12.015625 57.164062 11.894531 C 59.777344 11.496094 61.566406 12.382812 62.570312 14.609375 C 63.023438 15.617188 63.144531 15.707031 63.144531 15.128906 C 63.144531 14.730469 62.722656 13.875 62.207031 13.238281 C 59.289062 9.515625 52.824219 11.863281 52.824219 16.589844 C 52.824219 20.527344 57.257812 23.117188 60.6875 21.164062 Z M 59.015625 20.707031 C 59.289062 20.617188 59.503906 20.34375 59.503906 20.128906 C 59.503906 19.914062 59.957031 19.519531 60.535156 19.246094 C 61.355469 18.878906 61.597656 18.542969 61.75 17.628906 C 62.054688 15.675781 61.960938 15.035156 61.144531 13.96875 C 60.445312 13.054688 60.261719 12.960938 58.714844 12.960938 C 57.46875 12.960938 56.921875 13.113281 56.46875 13.570312 C 56.132812 13.90625 55.738281 14.183594 55.617188 14.183594 C 55.160156 14.183594 54.070312 15.554688 54.007812 16.164062 C 53.886719 17.324219 54.039062 17.839844 54.492188 17.839844 C 54.738281 17.839844 54.949219 18.054688 54.949219 18.300781 C 54.949219 18.542969 55.101562 18.757812 55.253906 18.757812 C 55.433594 18.757812 55.554688 18.96875 55.554688 19.214844 C 55.554688 19.457031 55.828125 19.671875 56.164062 19.671875 C 56.496094 19.671875 56.769531 19.855469 56.769531 20.097656 C 56.769531 20.769531 57.984375 21.105469 59.015625 20.707031 Z M 72.070312 39.3125 C 71.890625 38.609375 72.070312 37.207031 72.769531 33.914062 C 72.921875 33.183594 72.800781 33.03125 71.980469 32.753906 C 71.464844 32.574219 71.128906 32.296875 71.222656 32.144531 C 71.3125 31.992188 70.886719 31.628906 70.28125 31.351562 C 69.398438 30.925781 69.066406 30.894531 68.582031 31.199219 C 68.09375 31.503906 68.003906 31.503906 68.003906 31.109375 C 68.003906 30.863281 68.335938 30.589844 68.761719 30.46875 C 69.277344 30.347656 69.523438 30.070312 69.523438 29.613281 C 69.492188 28.820312 68.855469 27.90625 68.277344 27.90625 C 67.972656 27.875 68.003906 27.785156 68.398438 27.570312 C 69.035156 27.203125 69.097656 26.230469 68.460938 26.503906 C 68.1875 26.59375 68.003906 26.503906 68.003906 26.230469 C 68.003906 25.921875 68.308594 25.769531 68.792969 25.769531 C 69.550781 25.769531 69.582031 25.832031 69.398438 26.992188 C 69.15625 28.578125 69.550781 28.578125 70.066406 26.992188 C 70.523438 25.527344 70.554688 24.246094 70.128906 24.246094 C 69.976562 24.246094 69.824219 23.910156 69.824219 23.484375 C 69.824219 22.90625 69.671875 22.75 69.1875 22.8125 C 68.824219 22.84375 68.460938 22.691406 68.398438 22.507812 C 68.308594 22.265625 68.519531 22.113281 68.855469 22.113281 C 69.460938 22.113281 69.460938 21.929688 69.398438 11.527344 C 69.371094 5.671875 69.398438 0.730469 69.460938 0.550781 C 69.550781 0.273438 70.460938 0.152344 72.585938 0.152344 L 75.59375 0.152344 L 75.59375 10.21875 L 76.351562 10.21875 C 76.777344 10.21875 77.109375 10.371094 77.109375 10.523438 C 77.109375 10.703125 77.535156 10.828125 78.023438 10.828125 C 78.660156 10.828125 78.933594 10.980469 78.933594 11.316406 C 78.933594 11.589844 79.265625 12.078125 79.691406 12.414062 C 80.117188 12.75 80.480469 13.238281 80.511719 13.511719 C 80.542969 13.785156 80.664062 10.886719 80.753906 7.015625 C 80.875 1.433594 80.9375 2.5625 80.9375 12.65625 C 80.9375 19.609375 80.84375 23.941406 80.753906 22.265625 C 80.664062 20.585938 80.542969 19.671875 80.511719 20.21875 C 80.449219 20.984375 80.328125 21.195312 79.84375 21.195312 C 79.507812 21.195312 79.238281 21.410156 79.238281 21.652344 C 79.238281 21.898438 79.023438 22.113281 78.78125 22.113281 C 78.539062 22.113281 78.324219 22.234375 78.324219 22.386719 C 78.324219 22.570312 77.6875 22.78125 76.929688 22.90625 L 75.53125 23.117188 L 75.625 29.765625 C 75.714844 34.007812 75.652344 36.324219 75.472656 36.140625 C 74.863281 35.53125 74.441406 35.898438 73.378906 37.96875 C 72.34375 39.984375 72.253906 40.074219 72.070312 39.3125 Z M 78.082031 21.011719 C 79.507812 20.097656 80.148438 19.121094 80.359375 17.566406 C 80.753906 14.546875 79.386719 12.382812 76.59375 11.558594 C 75.472656 11.222656 74.835938 11.164062 74.621094 11.375 C 74.410156 11.589844 74.683594 11.679688 75.382812 11.679688 C 78.476562 11.679688 80.816406 15.003906 79.84375 18.054688 C 79.359375 19.519531 78.78125 20.191406 77.355469 20.921875 C 75.078125 22.082031 72.40625 21.289062 70.949219 19 C 70.191406 17.8125 70.25 15.308594 71.101562 13.90625 L 71.738281 12.808594 L 71.070312 13.449219 C 69.550781 14.882812 69.671875 18.328125 71.28125 20.066406 C 73.253906 22.171875 75.746094 22.507812 78.082031 21.011719 Z M 75.898438 20.433594 C 75.898438 20.191406 76.078125 19.976562 76.320312 19.976562 C 76.566406 19.976562 77.234375 19.488281 77.839844 18.878906 C 79.359375 17.355469 79.359375 15.859375 77.871094 14.394531 C 77.292969 13.816406 76.808594 13.113281 76.808594 12.808594 C 76.808594 11.894531 74.136719 12.445312 73.105469 13.570312 C 72.648438 14.089844 72.132812 14.488281 71.949219 14.488281 C 71.554688 14.488281 71.039062 15.523438 71.039062 16.4375 C 71.039062 17.476562 71.34375 18.148438 71.796875 18.148438 C 72.042969 18.148438 72.253906 18.453125 72.316406 18.816406 C 72.496094 20.128906 75.898438 21.652344 75.898438 20.433594 Z M 86.824219 31.046875 C 86.824219 26.046875 86.734375 20.800781 86.644531 19.367188 L 86.492188 16.773438 L 87.128906 18.148438 C 87.949219 19.886719 88.527344 20.496094 89.921875 21.226562 C 91.59375 22.082031 93.65625 21.988281 95.113281 20.984375 C 95.75 20.527344 96.417969 19.914062 96.570312 19.609375 C 96.722656 19.304688 96.964844 19.0625 97.085938 19.0625 C 97.207031 19.0625 97.300781 23.726562 97.300781 29.429688 L 97.300781 39.800781 L 96.207031 39.800781 C 95.296875 39.800781 95.054688 39.648438 94.476562 38.671875 C 93.597656 37.148438 92.414062 35.835938 91.925781 35.835938 C 91.714844 35.835938 91.136719 36.539062 90.621094 37.359375 C 90.136719 38.183594 89.527344 38.886719 89.347656 38.886719 C 89.132812 38.886719 88.953125 39.160156 88.953125 39.496094 C 88.953125 39.984375 88.738281 40.105469 87.890625 40.105469 L 86.824219 40.105469 Z M 86.824219 31.046875 "
    />
    <path
      style="stroke: none; fill-rule: nonzero; fill: rgb(68.627451%, 65.490196%, 40.784314%); fill-opacity: 1"
      d="M 41.289062 37.511719 C 41.074219 37.238281 40.710938 37.085938 40.5 37.175781 C 40.253906 37.269531 40.164062 37.175781 40.285156 36.871094 C 40.4375 36.476562 40.589844 36.539062 41.167969 37.085938 C 41.5625 37.453125 41.894531 37.816406 41.894531 37.878906 C 41.894531 38.09375 41.652344 37.941406 41.289062 37.511719 Z M 30.449219 33.546875 C 30.449219 32.542969 30.511719 32.175781 30.570312 32.726562 C 30.632812 33.273438 30.632812 34.097656 30.570312 34.554688 C 30.511719 35.011719 30.449219 34.554688 30.449219 33.546875 Z M 11.65625 25.40625 C 11.71875 21.5 11.871094 17.660156 11.992188 16.867188 C 12.175781 15.644531 12.082031 15.21875 11.382812 13.90625 C 10.714844 12.6875 10.261719 12.261719 9.078125 11.773438 C 7.46875 11.070312 6.496094 10.980469 5.34375 11.4375 C 4.613281 11.710938 4.554688 11.652344 4.554688 10.980469 C 4.554688 10.492188 4.734375 10.21875 5.007812 10.21875 C 5.402344 10.21875 5.464844 9.453125 5.464844 5.183594 L 5.464844 0.152344 L 12.75 0.152344 L 12.75 16.316406 C 12.75 32.421875 12.75 32.480469 12.113281 32.480469 C 11.507812 32.480469 11.507812 32.390625 11.65625 25.40625 Z M 48.058594 25.375 C 47.996094 24.183594 48.089844 23.699219 48.574219 23.269531 C 48.96875 22.90625 49.210938 22.84375 49.363281 23.058594 C 49.484375 23.269531 49.332031 23.542969 49.058594 23.699219 C 48.726562 23.878906 48.574219 24.398438 48.574219 25.3125 C 48.574219 27.203125 48.148438 27.265625 48.058594 25.375 Z M 81.816406 12.65625 C 81.816406 5.703125 81.847656 2.835938 81.878906 6.3125 C 81.9375 9.820312 81.9375 15.492188 81.878906 18.96875 C 81.847656 22.476562 81.816406 19.609375 81.816406 12.65625 Z M 13.507812 12.046875 C 13.507812 5.429688 13.539062 2.714844 13.570312 6.039062 C 13.632812 9.332031 13.632812 14.761719 13.570312 18.085938 C 13.539062 21.378906 13.507812 18.664062 13.507812 12.046875 Z M 13.507812 12.046875 "
    />
    <path
      style="stroke: none; fill-rule: nonzero; fill: rgb(68.627451%, 65.490196%, 40.784314%); fill-opacity: 1"
      d="M 5.007812 20.921875 C 3.429688 20.21875 2.792969 19.425781 2.308594 17.78125 C 1.882812 16.285156 1.972656 15.402344 2.550781 15.402344 C 2.792969 15.402344 3.128906 16.164062 3.371094 17.261719 C 3.855469 19.457031 4.675781 20.28125 6.375 20.28125 C 7.011719 20.28125 7.984375 20.371094 8.53125 20.496094 L 9.53125 20.679688 L 8.5 21.074219 C 7.042969 21.59375 6.40625 21.5625 5.007812 20.921875 Z M 22.34375 21.042969 C 20.824219 20.464844 20.066406 19.792969 19.550781 18.542969 C 18.488281 16.074219 19.460938 13.328125 21.765625 12.078125 C 22.679688 11.621094 22.769531 11.652344 22.769531 12.382812 C 22.769531 13.113281 21.980469 13.847656 21.222656 13.875 C 20.675781 13.875 19.734375 15.585938 19.734375 16.589844 C 19.734375 16.957031 20.007812 17.507812 20.308594 17.8125 C 20.644531 18.148438 20.949219 18.632812 21.007812 18.96875 C 21.070312 19.273438 21.433594 19.550781 21.859375 19.640625 C 22.285156 19.671875 22.707031 19.855469 22.800781 20.039062 C 22.890625 20.191406 23.617188 20.21875 24.53125 20.097656 C 25.652344 19.945312 26.109375 19.761719 26.199219 19.335938 C 26.289062 19 26.5625 18.757812 26.808594 18.757812 C 27.050781 18.757812 27.476562 18.269531 27.777344 17.660156 C 28.171875 16.804688 28.203125 16.410156 27.960938 15.617188 C 27.445312 14.183594 26.140625 12.960938 25.136719 12.960938 C 24.5 12.960938 24.285156 12.808594 24.285156 12.351562 C 24.285156 11.652344 24.683594 11.589844 26.046875 12.078125 C 27.382812 12.535156 28.839844 14.824219 28.839844 16.410156 C 28.839844 19.734375 25.378906 22.171875 22.34375 21.042969 Z M 40.074219 21.289062 C 38.34375 20.617188 37.523438 20.066406 36.855469 19.09375 C 35.460938 17.019531 36.128906 13.90625 38.253906 12.445312 C 39.4375 11.621094 41.136719 11.46875 40.863281 12.230469 L 40.679688 12.839844 C 40.679688 12.902344 40.195312 12.960938 39.617188 12.960938 C 38.859375 12.960938 38.496094 13.113281 38.375 13.511719 C 38.007812 14.667969 37.191406 16.316406 36.976562 16.316406 C 36.613281 16.316406 36.671875 17.476562 37.039062 17.6875 C 37.21875 17.78125 37.339844 18.175781 37.339844 18.511719 C 37.339844 18.878906 37.433594 19.0625 37.523438 18.96875 C 37.644531 18.847656 38.128906 19.121094 38.617188 19.519531 C 39.101562 19.945312 39.738281 20.28125 40.011719 20.28125 C 40.921875 20.28125 43.714844 19.550781 43.714844 19.304688 C 43.714844 19.152344 43.929688 19.0625 44.203125 19.0625 C 44.566406 19.0625 44.65625 18.847656 44.566406 18.328125 C 44.414062 17.628906 44.777344 17.230469 45.539062 17.230469 C 45.902344 17.230469 45.539062 18.480469 44.902344 19.398438 C 44.019531 20.679688 41.257812 21.746094 40.074219 21.289062 Z M 90.316406 20.984375 C 88.921875 20.25 88.101562 19.367188 87.707031 18.238281 C 87.402344 17.292969 87.644531 16.253906 87.949219 17.171875 C 88.039062 17.355469 88.285156 17.535156 88.527344 17.535156 C 88.769531 17.535156 89.042969 17.933594 89.164062 18.453125 C 89.40625 19.761719 90.285156 20.28125 92.351562 20.28125 C 93.71875 20.28125 94.113281 20.191406 94.113281 19.824219 C 94.113281 19.578125 94.324219 19.367188 94.566406 19.367188 C 94.808594 19.367188 95.023438 19.152344 95.023438 18.910156 C 95.023438 18.632812 95.296875 18.453125 95.78125 18.453125 C 96.207031 18.453125 96.539062 18.542969 96.539062 18.695312 C 96.539062 19.246094 95.507812 20.34375 94.414062 20.890625 C 92.988281 21.625 91.5625 21.652344 90.316406 20.984375 Z M 11.261719 17.324219 C 11.234375 16.5 11.019531 15.796875 10.65625 15.433594 C 10.351562 15.128906 10.019531 14.546875 9.925781 14.121094 C 9.652344 13.113281 7.679688 12.230469 5.828125 12.289062 C 4.765625 12.320312 4.554688 12.261719 5.007812 12.046875 C 5.949219 11.621094 8.136719 11.710938 9.046875 12.167969 C 10.960938 13.175781 12.023438 15.492188 11.535156 17.597656 C 11.292969 18.605469 11.292969 18.605469 11.261719 17.324219 Z M 11.261719 17.324219 "
    />
    <path
      style="stroke: none; fill-rule: nonzero; fill: rgb(68.627451%, 65.490196%, 40.784314%); fill-opacity: 1"
      d="M 44.628906 15.617188 C 44.628906 14.394531 43.714844 13.417969 42.289062 13.113281 C 41.5625 12.960938 41.289062 12.75 41.289062 12.289062 C 41.289062 11.742188 41.410156 11.679688 42.289062 11.863281 C 43.625 12.136719 45.445312 14.03125 45.691406 15.492188 C 45.902344 16.5 45.839844 16.621094 45.265625 16.621094 C 44.75 16.621094 44.628906 16.4375 44.628906 15.617188 Z M 44.628906 15.617188 "
    />
    <path
      style="stroke: none; fill-rule: nonzero; fill: rgb(68.627451%, 65.490196%, 40.784314%); fill-opacity: 1"
      d="M 46.023438 15.402344 C 45.78125 13.847656 44.140625 11.984375 42.59375 11.46875 C 41.683594 11.164062 41.441406 10.917969 41.378906 10.277344 C 41.105469 6.648438 40.953125 1.554688 41.105469 0.914062 C 41.289062 0.152344 41.347656 0.152344 44.171875 0.152344 L 47.054688 0.152344 L 47.054688 7.898438 C 47.054688 12.167969 46.964844 15.859375 46.875 16.132812 C 46.570312 16.957031 46.238281 16.683594 46.023438 15.402344 Z M 86.824219 7.257812 L 86.824219 0.152344 L 91.957031 0.152344 C 96.359375 0.152344 97.117188 0.214844 97.269531 0.640625 C 97.632812 1.554688 97.480469 12.808594 97.085938 13.207031 C 96.84375 13.449219 96.480469 13.328125 95.660156 12.6875 C 94.050781 11.4375 92.59375 11.011719 91.105469 11.4375 C 89.863281 11.773438 87.738281 13.359375 87.738281 13.9375 C 87.738281 14.121094 88.285156 13.753906 88.921875 13.175781 C 90.832031 11.4375 93.535156 11.285156 95.234375 12.808594 L 96.085938 13.542969 L 94.960938 13.570312 C 94.171875 13.570312 93.808594 13.449219 93.808594 13.144531 C 93.808594 12.65625 92.503906 12.230469 92.351562 12.65625 C 92.289062 12.839844 91.804688 12.960938 91.257812 12.960938 C 90.589844 12.960938 90.042969 13.207031 89.558594 13.722656 C 89.136719 14.214844 88.503906 14.476562 87.859375 14.425781 L 86.824219 14.394531 Z M 17.0625 13.265625 C 17.0625 12.6875 17.121094 12.445312 17.214844 12.75 C 17.273438 13.023438 17.273438 13.511719 17.214844 13.816406 C 17.121094 14.089844 17.0625 13.847656 17.0625 13.265625 Z M 17.121094 4.726562 C 17.121094 2.136719 17.183594 1.066406 17.214844 2.378906 C 17.273438 3.660156 17.273438 5.792969 17.214844 7.105469 C 17.183594 8.386719 17.121094 7.320312 17.121094 4.726562 Z M 85.429688 4.269531 C 85.429688 1.921875 85.492188 1.007812 85.519531 2.226562 C 85.582031 3.445312 85.582031 5.367188 85.519531 6.496094 C 85.460938 7.625 85.429688 6.617188 85.429688 4.269531 Z M 34.09375 2.289062 C 34.09375 1.035156 34.152344 0.519531 34.214844 1.160156 C 34.273438 1.769531 34.273438 2.804688 34.214844 3.445312 C 34.152344 4.054688 34.09375 3.539062 34.09375 2.289062 Z M 34.09375 2.289062 "
    />
    <path
      style="stroke: none; fill-rule: nonzero; fill: rgb(87.843137%, 89.019608%, 70.980392%); fill-opacity: 1"
      d="M 53.554688 48.675781 C 53.796875 45.167969 54.34375 43.550781 54.191406 46.816406 L 54.070312 50.261719 C 54.039062 50.871094 53.886719 51.390625 53.703125 51.390625 C 53.492188 51.390625 53.429688 50.503906 53.554688 48.675781 Z M 48.269531 50.839844 C 48.269531 50.6875 48.574219 50.414062 48.96875 50.199219 C 49.394531 49.988281 49.699219 49.5 49.726562 49.011719 C 49.757812 48.585938 49.941406 48.066406 50.09375 47.914062 C 50.304688 47.699219 50.335938 47.945312 50.214844 48.644531 C 49.941406 50.230469 49.820312 50.535156 49.515625 50.351562 C 49.363281 50.261719 49.179688 50.382812 49.058594 50.628906 C 48.878906 51.117188 48.269531 51.269531 48.269531 50.839844 Z M 72.375 49.53125 C 72.011719 48.890625 71.402344 46.207031 71.648438 46.207031 C 71.949219 46.207031 72.710938 48.339844 72.617188 48.890625 C 72.558594 49.070312 72.679688 49.253906 72.859375 49.253906 C 73.011719 49.253906 73.164062 49.40625 73.164062 49.558594 C 73.164062 49.957031 72.648438 49.957031 72.375 49.53125 Z M 65 46.816406 L 64.816406 45.472656 C 64.753906 45.105469 64.816406 45.015625 65 45.199219 C 65.179688 45.382812 65.269531 45.992188 65.179688 46.539062 C 65.089844 47.332031 65.058594 47.394531 65 46.816406 Z M 65 46.816406 "
    />
    <path
      style="stroke: none; fill-rule: nonzero; fill: rgb(87.843137%, 89.019608%, 70.980392%); fill-opacity: 1"
      d="M 49.910156 46.449219 C 50.273438 44.648438 50.394531 41.660156 50.09375 41.476562 C 49.941406 41.386719 49.789062 41.050781 49.789062 40.777344 C 49.789062 40.410156 49.878906 40.378906 50.152344 40.65625 C 50.363281 40.867188 50.820312 41.019531 51.214844 41.019531 C 52.1875 41.019531 55.859375 42.726562 55.859375 43.1875 C 55.859375 43.429688 55.769531 43.460938 55.464844 43.1875 C 55.222656 43.003906 54.949219 42.941406 54.859375 43.0625 C 54.738281 43.15625 54.644531 43.09375 54.644531 42.882812 C 54.644531 42.667969 54.523438 42.574219 54.402344 42.667969 C 54.25 42.757812 53.429688 42.574219 52.582031 42.242188 C 51.730469 41.90625 50.972656 41.753906 50.882812 41.90625 C 50.789062 42.027344 50.636719 43.277344 50.515625 44.621094 C 50.394531 45.992188 50.183594 47.121094 50.03125 47.121094 C 49.910156 47.121094 49.847656 46.816406 49.910156 46.449219 Z M 64.359375 43.855469 C 64.359375 43.339844 64.238281 43.246094 63.722656 43.367188 C 63.296875 43.492188 62.964844 43.367188 62.78125 43.035156 C 62.628906 42.757812 62.386719 42.605469 62.234375 42.699219 C 62.082031 42.789062 61.71875 42.726562 61.414062 42.574219 C 61.113281 42.421875 60.625 42.210938 60.324219 42.117188 C 60.019531 42.027344 59.835938 41.8125 59.929688 41.660156 C 60.140625 41.324219 59.261719 40.960938 58.835938 41.203125 C 58.652344 41.324219 58.289062 41.964844 57.984375 42.667969 C 57.558594 43.582031 57.378906 43.765625 57.226562 43.398438 C 57.105469 43.125 57.164062 42.636719 57.347656 42.269531 C 57.894531 41.234375 57.742188 41.050781 55.738281 40.441406 C 54.644531 40.105469 53.492188 39.648438 53.160156 39.433594 C 52.640625 39.128906 52.398438 39.128906 51.640625 39.585938 C 50.789062 40.074219 50.761719 40.074219 50.609375 39.496094 C 50.515625 39.070312 50.667969 38.855469 51.183594 38.671875 L 51.914062 38.429688 L 51.125 36.964844 C 50 34.796875 50.363281 34.644531 51.609375 36.75 C 52.824219 38.824219 53.734375 39.34375 53.734375 37.96875 C 53.734375 36.71875 54.097656 36.660156 54.707031 37.847656 C 55.160156 38.734375 55.160156 38.824219 54.738281 38.671875 C 54.402344 38.550781 54.3125 38.609375 54.402344 38.917969 C 54.464844 39.160156 54.828125 39.375 55.191406 39.433594 C 55.554688 39.496094 55.859375 39.679688 55.859375 39.832031 C 55.859375 40.015625 55.980469 40.042969 56.164062 39.953125 C 56.316406 39.863281 56.890625 40.015625 57.4375 40.289062 C 58.410156 40.777344 58.410156 40.777344 57.984375 40.257812 C 57.558594 39.738281 57.558594 39.738281 58.441406 40.167969 C 58.957031 40.410156 59.503906 40.59375 59.683594 40.503906 C 59.867188 40.441406 60.171875 40.746094 60.414062 41.171875 C 60.625 41.601562 60.992188 41.933594 61.234375 41.933594 C 61.78125 41.933594 61.71875 41.753906 60.992188 41.050781 C 60.445312 40.5625 60.414062 40.378906 60.777344 39.832031 C 61.019531 39.402344 61.386719 39.222656 61.71875 39.3125 C 62.023438 39.375 62.722656 39.25 63.296875 39.007812 C 64.058594 38.703125 64.332031 38.367188 64.421875 37.757812 C 64.480469 37.332031 64.695312 36.902344 64.90625 36.8125 C 65.179688 36.71875 65.242188 36.902344 65.089844 37.484375 C 64.753906 38.886719 65.789062 38.09375 67.152344 35.957031 C 68.1875 34.28125 68.914062 33.546875 68.914062 34.160156 C 68.914062 34.402344 67.792969 36.476562 67.246094 37.238281 C 66.789062 37.847656 66.820312 37.941406 67.761719 38.550781 C 68.308594 38.886719 68.550781 39.191406 68.308594 39.191406 C 68.035156 39.191406 67.667969 39.039062 67.457031 38.824219 C 67.246094 38.609375 67.09375 38.582031 67.09375 38.761719 C 67.09375 38.945312 67.246094 39.222656 67.457031 39.433594 C 67.640625 39.617188 67.730469 39.890625 67.609375 39.984375 C 67.519531 40.074219 67.09375 39.800781 66.699219 39.34375 L 66 38.519531 L 64.332031 39.28125 L 62.144531 40.226562 C 61.628906 40.378906 61.628906 40.441406 62.113281 41.171875 C 62.84375 42.300781 63.90625 42.453125 65.394531 41.691406 C 66.089844 41.324219 67.152344 40.835938 67.761719 40.59375 C 68.640625 40.257812 69.128906 39.710938 70.007812 38.152344 C 70.644531 37.054688 71.28125 36.140625 71.402344 36.140625 C 71.675781 36.140625 71.375 37.054688 70.886719 37.664062 C 70.675781 37.910156 70.21875 38.703125 69.824219 39.402344 C 69.339844 40.257812 68.792969 40.808594 68.1875 41.019531 C 67.667969 41.171875 66.851562 41.660156 66.332031 42.089844 L 65.421875 42.851562 L 68.15625 42.757812 L 70.855469 42.699219 L 71.222656 41.324219 C 71.949219 38.671875 72.890625 33.367188 72.679688 33.058594 C 72.496094 32.726562 71.101562 32.816406 70.066406 33.242188 C 69.066406 33.640625 69.492188 32.753906 70.492188 32.328125 L 71.496094 31.933594 L 70.339844 31.382812 C 69.25 30.863281 69.1875 30.863281 68.0625 31.472656 C 66.789062 32.207031 65.574219 34.035156 65.574219 35.285156 C 65.574219 35.746094 65.421875 36.203125 65.242188 36.324219 C 64.875 36.539062 65.058594 35.257812 65.726562 33.335938 C 66.304688 31.628906 65.96875 31.933594 65.058594 33.914062 C 64.601562 34.890625 64.207031 35.5 64.148438 35.316406 C 64.058594 35.105469 64.148438 34.675781 64.332031 34.339844 C 64.511719 34.007812 64.664062 32.664062 64.664062 31.351562 C 64.664062 29.308594 64.574219 28.914062 64.058594 28.578125 C 63.269531 28.089844 63.269531 27.417969 64.058594 26.992188 C 64.847656 26.5625 64.632812 25.558594 63.570312 24.765625 C 62.8125 24.15625 62.628906 23.636719 63.175781 23.636719 C 63.359375 23.636719 63.722656 23.421875 63.964844 23.148438 C 64.359375 22.75 64.480469 22.75 64.695312 23.085938 C 65.121094 23.726562 65 23.941406 64.300781 23.941406 C 63.664062 23.972656 63.632812 24.003906 64.148438 24.367188 C 64.421875 24.582031 65 24.703125 65.421875 24.613281 C 65.910156 24.519531 66.183594 24.613281 66.183594 24.855469 C 66.183594 25.101562 66.425781 25.160156 66.820312 25.070312 C 67.183594 24.976562 67.488281 25.070312 67.609375 25.34375 C 67.699219 25.589844 67.914062 25.769531 68.125 25.742188 C 69.429688 25.589844 69.613281 25.742188 69.398438 27.023438 C 69.21875 28.089844 69.277344 28.242188 69.671875 28.121094 C 70.039062 27.96875 70.128906 28.179688 70.128906 29.066406 C 70.128906 30.132812 70.25 30.285156 71.796875 31.230469 C 72.738281 31.808594 73.46875 32.480469 73.46875 32.753906 L 73.042969 36.597656 C 72.800781 38.429688 72.679688 40.042969 72.738281 40.167969 C 72.800781 40.289062 72.710938 40.472656 72.527344 40.59375 C 72.285156 40.714844 72.253906 40.683594 72.375 40.472656 C 72.496094 40.257812 72.4375 40.105469 72.285156 40.105469 C 72.101562 40.105469 71.921875 40.289062 71.921875 40.503906 C 71.890625 40.867188 71.828125 41.140625 71.648438 41.78125 L 71.648438 42.910156 C 71.675781 43.582031 71.496094 43.765625 70.585938 44.070312 C 70.007812 44.253906 68.335938 44.4375 66.941406 44.46875 C 64.480469 44.527344 64.359375 44.496094 64.359375 43.855469 Z M 69.097656 30.558594 C 69.824219 30.835938 69.644531 28.914062 68.914062 28.515625 C 68.398438 28.242188 68.308594 28.273438 68.308594 28.761719 C 68.308594 29.066406 68.035156 29.582031 67.730469 29.859375 C 67.398438 30.164062 67.214844 30.589844 67.304688 30.835938 C 67.425781 31.199219 67.546875 31.199219 68.0625 30.835938 C 68.398438 30.589844 68.882812 30.46875 69.097656 30.558594 Z M 66.636719 29.523438 C 67.214844 29.25 67.699219 28.851562 67.699219 28.636719 C 67.699219 28.425781 68.0625 27.90625 68.488281 27.507812 C 69.035156 26.992188 69.1875 26.6875 68.914062 26.535156 C 68.730469 26.410156 68.398438 26.472656 68.214844 26.65625 C 67.730469 27.144531 67.457031 27.050781 67.335938 26.351562 C 67.273438 25.832031 67 25.679688 66 25.648438 C 64.9375 25.589844 64.785156 25.648438 64.90625 26.136719 C 64.96875 26.441406 64.816406 26.960938 64.511719 27.296875 C 64.027344 27.816406 64.027344 27.875 64.632812 28.210938 C 65.027344 28.394531 65.269531 28.851562 65.269531 29.277344 C 65.269531 30.195312 65.269531 30.195312 66.636719 29.523438 Z M 79.386719 41.84375 C 78.363281 39.90625 77.121094 38.097656 75.683594 36.445312 L 74.714844 35.378906 L 74.621094 28.667969 L 74.53125 21.957031 L 75.804688 21.929688 C 77.355469 21.867188 79.265625 20.585938 79.964844 19.121094 C 80.570312 17.871094 80.601562 15.339844 80.027344 14.242188 C 79.007812 12.5 77.226562 11.347656 75.230469 11.132812 C 74.714844 11.132812 74.683594 10.675781 74.683594 5.640625 L 74.683594 0.152344 L 81.058594 0.152344 L 81.058594 21.777344 C 81.058594 33.730469 80.9375 43.492188 80.785156 43.582031 C 80.664062 43.675781 80.027344 42.910156 79.386719 41.84375 Z M 86.339844 33.394531 C 86.429688 27.601562 86.523438 17.75 86.523438 11.527344 C 86.523438 0.367188 86.523438 0.152344 87.128906 0.152344 C 87.707031 0.152344 87.738281 0.367188 87.738281 6.984375 C 87.738281 12.445312 87.644531 13.96875 87.28125 14.667969 C 86.703125 15.796875 86.703125 17.535156 87.28125 18.632812 C 87.644531 19.367188 87.738281 21.289062 87.765625 29.429688 C 87.796875 34.890625 87.890625 39.039062 87.949219 38.671875 C 88.011719 38.277344 88.285156 37.96875 88.496094 37.96875 C 88.980469 37.96875 89.921875 36.78125 89.710938 36.445312 C 89.617188 36.324219 89.863281 36.140625 90.195312 36.050781 C 90.558594 35.957031 90.742188 35.746094 90.621094 35.5625 C 90.53125 35.378906 90.652344 35.226562 90.925781 35.226562 C 91.167969 35.226562 91.472656 35.011719 91.5625 34.769531 C 91.683594 34.523438 91.835938 34.3125 91.957031 34.3125 C 92.046875 34.3125 92.957031 35.347656 93.929688 36.597656 C 96.144531 39.433594 96.601562 39.527344 96.390625 37.148438 C 96.296875 36.171875 96.238281 32.023438 96.238281 27.9375 C 96.207031 20.859375 96.238281 20.464844 96.875 19.246094 C 97.875 17.414062 97.785156 15.15625 96.722656 13.722656 C 96.117188 12.929688 95.964844 12.535156 96.207031 12.261719 C 96.390625 12.015625 96.480469 9.667969 96.449219 6.007812 L 96.390625 0.152344 L 98.058594 0.152344 L 98.058594 21.804688 C 98.058594 36.203125 97.96875 43.460938 97.753906 43.460938 C 97.453125 43.460938 95.933594 41.234375 94.808594 39.128906 C 93.992188 37.574219 92.414062 35.835938 91.835938 35.835938 C 91.5625 35.835938 91.257812 36.078125 91.167969 36.382812 C 91.046875 36.660156 90.226562 37.96875 89.347656 39.25 C 88.464844 40.5625 87.738281 41.722656 87.738281 41.84375 C 87.707031 41.996094 87.371094 42.515625 86.949219 43.003906 L 86.160156 43.917969 Z M 11.6875 42.699219 C 10.988281 41.628906 10.6875 41.140625 9.441406 39.007812 C 8.925781 38.183594 8.046875 36.964844 7.4375 36.355469 L 6.375 35.257812 L 6.375 21.804688 L 7.46875 21.804688 C 9.015625 21.804688 11.019531 20.34375 11.71875 18.695312 L 12.265625 17.382812 L 12.539062 29.582031 C 12.691406 36.382812 12.691406 42.179688 12.539062 42.667969 L 12.265625 43.582031 Z M 11.6875 42.699219 "
    />
    <path
      style="stroke: none; fill-rule: nonzero; fill: rgb(87.843137%, 89.019608%, 70.980392%); fill-opacity: 1"
      d="M 56.164062 39.34375 C 55.433594 38.945312 55.433594 38.917969 56.042969 38.886719 C 56.40625 38.886719 56.863281 39.097656 57.074219 39.34375 C 57.558594 39.921875 57.164062 39.921875 56.164062 39.34375 Z M 61.933594 38.457031 C 61.933594 38.214844 62.144531 37.96875 62.386719 37.847656 C 62.78125 37.726562 62.8125 37.789062 62.539062 38.277344 C 62.144531 38.976562 61.933594 39.070312 61.933594 38.457031 Z M 25.046875 36.933594 C 23.890625 35.4375 23.46875 35.347656 22.738281 36.597656 C 22.375 37.207031 21.949219 37.574219 21.707031 37.484375 C 21.402344 37.359375 21.34375 36.324219 21.433594 32.542969 L 21.554688 24.460938 C 21.554688 21.320312 21.585938 21.195312 22.132812 21.5 C 22.464844 21.652344 23.46875 21.804688 24.378906 21.804688 L 25.988281 21.804688 L 25.988281 29.886719 L 25.894531 37.96875 C 25.867188 37.96875 25.472656 37.511719 25.046875 36.933594 Z M 39.101562 37.175781 C 38.828125 36.75 38.707031 27.664062 38.949219 27.417969 C 39.070312 27.296875 39.164062 25.953125 39.164062 24.429688 L 39.164062 21.652344 L 40.832031 21.746094 L 42.503906 21.867188 L 42.503906 29.308594 C 42.503906 33.394531 42.410156 36.75 42.289062 36.75 C 42.167969 36.75 41.773438 36.445312 41.347656 36.078125 C 40.589844 35.316406 40.558594 35.347656 39.585938 36.933594 C 39.40625 37.238281 39.191406 37.359375 39.101562 37.175781 Z M 47.117188 36.996094 C 46.660156 36.414062 45.839844 33.425781 45.839844 32.296875 C 45.839844 31.230469 46.207031 30.773438 46.78125 31.140625 C 47.027344 31.292969 47.027344 31.382812 46.78125 31.566406 C 46.449219 31.75 46.539062 32.449219 47.511719 36.84375 C 47.664062 37.453125 47.542969 37.511719 47.117188 36.996094 Z M 53.917969 34.707031 C 53.824219 34.617188 53.734375 34.066406 53.734375 33.488281 C 53.734375 32.632812 53.582031 32.421875 52.671875 32.054688 C 52.09375 31.808594 51.609375 31.382812 51.609375 31.109375 C 51.609375 30.863281 51.183594 30.375 50.667969 30.070312 C 50.152344 29.765625 49.878906 29.429688 50.03125 29.308594 C 50.335938 29.125 51.882812 30.195312 52.308594 30.863281 C 52.429688 31.078125 52.734375 31.261719 52.945312 31.261719 C 53.734375 31.261719 54.644531 32.480469 54.644531 33.546875 C 54.644531 34.554688 54.3125 35.105469 53.917969 34.707031 Z M 49.363281 32.632812 C 49.273438 32.238281 48.90625 31.75 48.574219 31.566406 C 48.238281 31.382812 48.058594 31.078125 48.179688 30.804688 C 48.300781 30.4375 48.511719 30.527344 49.210938 31.261719 C 49.699219 31.75 50.09375 32.449219 50.09375 32.785156 C 50.09375 33.640625 49.574219 33.546875 49.363281 32.632812 Z M 52.21875 29.707031 C 51.792969 29.554688 51.214844 29.09375 50.941406 28.730469 C 50.488281 28.148438 50.363281 28.121094 50.03125 28.515625 L 49.726562 28.851562 C 49.757812 28.761719 49.484375 28.363281 49.121094 27.9375 L 48.421875 27.144531 L 49.121094 27.722656 C 49.484375 28.058594 49.789062 28.242188 49.820312 28.179688 L 49.910156 26.898438 C 50.03125 25.527344 50.242188 25.253906 50.820312 25.742188 C 51.277344 26.136719 51.792969 25.710938 51.488281 25.191406 C 50.910156 24.277344 52.492188 23.210938 54.007812 23.515625 C 54.859375 23.699219 54.859375 23.726562 54.554688 24.886719 C 54.222656 26.230469 53.976562 26.230469 53.917969 24.949219 C 53.886719 24.214844 53.765625 24.09375 52.976562 24.09375 C 52.15625 24.09375 52.066406 24.183594 51.972656 25.160156 C 51.824219 27.023438 51.640625 27.234375 50.972656 26.410156 L 50.394531 25.710938 L 50.394531 26.65625 C 50.394531 27.265625 50.609375 27.691406 51.003906 27.90625 C 51.335938 28.089844 51.578125 28.394531 51.519531 28.578125 C 51.488281 28.789062 52.066406 29.066406 52.914062 29.21875 C 53.703125 29.371094 54.34375 29.613281 54.34375 29.765625 C 54.34375 30.132812 53.1875 30.070312 52.21875 29.707031 Z M 52.21875 29.707031 "
    />
    <path
      style="stroke: none; fill-rule: nonzero; fill: rgb(87.843137%, 89.019608%, 70.980392%); fill-opacity: 1"
      d="M 54.039062 27.753906 C 54.25 27.507812 54.644531 27.296875 54.917969 27.296875 C 55.3125 27.328125 55.3125 27.386719 54.828125 27.753906 C 54.039062 28.332031 53.554688 28.332031 54.039062 27.753906 Z M 70.644531 25.894531 C 70.523438 25.769531 70.433594 25.34375 70.433594 24.976562 C 70.433594 24.582031 70.3125 24.183594 70.128906 24.09375 C 69.734375 23.851562 69.734375 23.332031 70.128906 23.332031 C 70.3125 23.332031 70.554688 23.574219 70.644531 23.878906 C 70.765625 24.15625 70.917969 24.460938 71.039062 24.550781 C 71.160156 24.644531 71.160156 25.007812 71.070312 25.40625 C 70.949219 25.800781 70.796875 26.015625 70.644531 25.894531 Z M 81.726562 25.160156 C 81.726562 24.582031 81.785156 24.335938 81.878906 24.644531 C 81.9375 24.917969 81.9375 25.40625 81.878906 25.710938 C 81.785156 25.984375 81.726562 25.742188 81.726562 25.160156 Z M 47.996094 24.703125 C 47.96875 23.757812 49 22.476562 49.332031 23.027344 C 49.425781 23.179688 49.300781 23.390625 49.089844 23.542969 C 48.847656 23.667969 48.511719 24.214844 48.332031 24.703125 L 48.027344 25.617188 Z M 65.515625 23.117188 C 64.421875 22.84375 65 22.386719 66.425781 22.417969 C 67.214844 22.445312 68.398438 22.355469 69.066406 22.265625 C 70.191406 22.082031 70.25 22.113281 69.703125 22.539062 C 69.371094 22.8125 68.671875 23.027344 68.1875 23.027344 C 67.667969 23.027344 66.972656 23.085938 66.636719 23.148438 C 66.304688 23.210938 65.789062 23.210938 65.515625 23.117188 Z M 54.039062 22.597656 C 54.3125 22.324219 54.828125 22.234375 55.34375 22.324219 C 56.617188 22.570312 56.316406 23.027344 54.890625 23.027344 C 53.765625 23.027344 53.675781 22.964844 54.039062 22.597656 Z M 49.546875 22.019531 C 49.726562 21.777344 50.214844 21.683594 50.609375 21.746094 C 51.488281 21.898438 51.429688 21.957031 50.152344 22.203125 C 49.363281 22.355469 49.242188 22.324219 49.546875 22.019531 Z M 4.917969 20.890625 C 3.429688 20.191406 2.855469 19.488281 2.398438 17.8125 C 1.488281 14.363281 3.492188 11.742188 7.074219 11.742188 C 10.625 11.742188 12.871094 16.074219 10.960938 19.152344 C 9.804688 21.042969 7.011719 21.835938 4.917969 20.890625 Z M 6.679688 19.214844 C 6.679688 18.816406 6.800781 18.785156 7.285156 19.0625 C 7.773438 19.335938 7.894531 19.304688 7.894531 18.910156 C 7.894531 18.542969 8.074219 18.480469 8.714844 18.632812 C 9.382812 18.816406 9.472656 18.757812 9.320312 18.328125 C 9.199219 18.023438 9.289062 17.839844 9.53125 17.839844 C 10.019531 17.839844 9.714844 15.675781 9.136719 15.003906 C 8.957031 14.761719 8.894531 14.488281 9.015625 14.394531 C 9.109375 14.273438 8.835938 13.847656 8.410156 13.449219 C 7.4375 12.566406 6.34375 12.566406 5.523438 13.449219 C 5.191406 13.785156 4.554688 14.394531 4.097656 14.730469 C 3.398438 15.308594 3.308594 15.460938 3.644531 15.859375 C 3.945312 16.226562 4.097656 16.253906 4.25 15.980469 C 4.402344 15.796875 4.644531 15.738281 4.855469 15.859375 C 5.160156 16.042969 5.128906 16.195312 4.734375 16.5 C 4.066406 16.957031 4.371094 17.597656 5.101562 17.324219 C 5.523438 17.171875 5.554688 17.230469 5.253906 17.566406 C 4.707031 18.117188 4.734375 19.09375 5.28125 18.878906 C 5.496094 18.785156 5.769531 18.941406 5.859375 19.183594 C 6.101562 19.792969 6.679688 19.824219 6.679688 19.214844 Z M 6.679688 19.214844 "
    />
    <path
      style="stroke: none; fill-rule: nonzero; fill: rgb(87.843137%, 89.019608%, 70.980392%); fill-opacity: 1"
      d="M 6.859375 14.304688 C 6.710938 13.875 6.738281 13.847656 7.105469 14.152344 C 7.40625 14.394531 7.589844 14.425781 7.679688 14.183594 C 7.773438 14 7.800781 14.03125 7.773438 14.242188 C 7.652344 14.824219 7.074219 14.851562 6.859375 14.304688 Z M 22.160156 20.921875 C 19.742188 19.933594 18.523438 17.203125 19.398438 14.730469 C 19.886719 13.265625 22.011719 11.742188 23.589844 11.742188 C 25.804688 11.742188 26.898438 12.261719 27.898438 13.785156 C 30.085938 17.078125 28.113281 20.859375 23.953125 21.347656 C 23.710938 21.378906 22.890625 21.164062 22.160156 20.921875 Z M 22.34375 17.203125 C 22.464844 16.957031 22.617188 16.957031 22.859375 17.203125 C 23.316406 17.660156 24.378906 17.628906 24.832031 17.171875 C 25.136719 16.867188 25.257812 16.867188 25.472656 17.171875 C 25.621094 17.414062 26.109375 17.535156 26.59375 17.476562 C 27.230469 17.414062 27.503906 17.203125 27.566406 16.683594 C 27.777344 15.308594 26.167969 14.488281 25.53125 15.617188 C 25.257812 16.132812 25.226562 16.132812 24.683594 15.617188 C 23.953125 14.976562 23.558594 14.976562 22.953125 15.585938 C 22.496094 16.011719 22.433594 16.011719 21.980469 15.585938 C 21.371094 14.976562 20.976562 14.976562 20.28125 15.617188 C 19.640625 16.195312 19.582031 16.652344 20.097656 17.171875 C 20.554688 17.628906 22.070312 17.660156 22.34375 17.203125 Z M 22.34375 17.203125 "
    />
    <path
      style="stroke: none; fill-rule: nonzero; fill: rgb(87.843137%, 89.019608%, 70.980392%); fill-opacity: 1"
      d="M 20.949219 16.46875 C 20.949219 16.226562 21.097656 16.011719 21.25 16.011719 C 21.433594 16.011719 21.554688 16.226562 21.554688 16.46875 C 21.554688 16.714844 21.433594 16.925781 21.25 16.925781 C 21.097656 16.925781 20.949219 16.714844 20.949219 16.46875 Z M 23.558594 16.683594 C 23.46875 16.5 23.527344 16.253906 23.710938 16.164062 C 24.164062 15.859375 24.46875 16.253906 24.074219 16.652344 C 23.863281 16.867188 23.679688 16.867188 23.558594 16.683594 Z M 26.109375 16.46875 C 26.109375 16.195312 26.261719 16.011719 26.441406 16.074219 C 26.625 16.132812 26.777344 16.316406 26.777344 16.46875 C 26.777344 16.621094 26.625 16.804688 26.441406 16.867188 C 26.261719 16.925781 26.109375 16.742188 26.109375 16.46875 Z M 40.074219 21.257812 C 37.644531 20.527344 36.128906 18.816406 36.128906 16.804688 C 36.128906 15.371094 37.21875 13.054688 38.191406 12.414062 C 39.132812 11.804688 41.316406 11.589844 42.59375 12.015625 C 43.140625 12.199219 44.082031 12.839844 44.628906 13.417969 C 45.570312 14.394531 45.660156 14.640625 45.660156 16.378906 C 45.691406 17.933594 45.539062 18.480469 44.960938 19.273438 C 43.988281 20.585938 41.347656 21.652344 40.074219 21.257812 Z M 41.714844 18.695312 C 42.046875 18.238281 42.078125 17.902344 41.894531 17.71875 C 41.714844 17.535156 41.589844 17.292969 41.589844 17.109375 C 41.589844 16.957031 42.078125 17.324219 42.652344 17.964844 C 43.6875 19.09375 44.929688 19.398438 44.65625 18.421875 C 43.351562 13.632812 43.109375 13.207031 42.078125 14.121094 C 41.652344 14.515625 41.46875 14.546875 41.378906 14.273438 C 41.289062 14.058594 41.015625 13.875 40.773438 13.875 C 40.5 13.875 40.378906 14.058594 40.5 14.335938 C 40.589844 14.578125 40.527344 14.792969 40.347656 14.792969 C 40.195312 14.792969 39.984375 14.578125 39.890625 14.335938 C 39.527344 13.390625 38.675781 13.847656 38.160156 15.339844 C 37.613281 16.957031 37.191406 19.0625 37.433594 19.0625 C 37.523438 19.0625 38.160156 18.574219 38.859375 17.992188 C 40.074219 16.957031 40.863281 16.742188 40.132812 17.628906 C 39.859375 17.933594 39.890625 18.207031 40.253906 18.695312 C 40.832031 19.550781 41.136719 19.550781 41.714844 18.695312 Z M 56.285156 20.984375 C 53.824219 19.578125 53.308594 18.632812 53.492188 15.980469 C 53.613281 14.335938 53.734375 13.96875 54.585938 13.238281 C 56.316406 11.679688 59.351562 11.375 61.019531 12.625 C 63.785156 14.640625 63.539062 18.785156 60.566406 20.679688 C 59.078125 21.625 57.621094 21.746094 56.285156 20.984375 Z M 58.746094 18.96875 L 59.046875 17.8125 C 59.320312 16.589844 59.59375 16.042969 60.050781 15.859375 C 60.777344 15.585938 61.234375 16.226562 60.777344 16.925781 C 60.476562 17.414062 60.476562 17.535156 60.808594 17.535156 C 61.808594 17.535156 62.265625 16.011719 61.628906 14.761719 C 61.171875 13.90625 59.382812 13.96875 58.746094 14.882812 C 58.226562 15.617188 58.015625 15.617188 57.4375 14.761719 C 56.921875 14.03125 55.3125 14 54.765625 14.730469 C 54.160156 15.523438 54.25 16.867188 54.917969 17.230469 C 55.769531 17.6875 56.40625 17.628906 55.738281 17.140625 C 55.132812 16.683594 55.40625 15.585938 56.074219 15.828125 C 56.316406 15.921875 56.617188 16.011719 56.742188 16.011719 C 56.863281 16.011719 56.984375 16.195312 57.015625 16.410156 C 57.226562 19.0625 58.320312 20.679688 58.746094 18.96875 Z M 73.46875 21.105469 C 72.191406 20.496094 71.34375 19.855469 71.34375 19.488281 C 71.34375 19.304688 71.128906 18.96875 70.886719 18.757812 C 70.585938 18.511719 70.433594 17.8125 70.433594 16.683594 C 70.433594 15.339844 70.613281 14.730469 71.222656 13.847656 C 72.316406 12.261719 73.226562 11.742188 74.957031 11.710938 C 77.535156 11.652344 79.84375 13.695312 79.90625 16.074219 C 79.90625 18.238281 79.875 18.390625 78.902344 19.488281 C 77.292969 21.347656 75.257812 21.957031 73.46875 21.105469 Z M 75.59375 19.214844 C 75.59375 18.96875 75.382812 18.757812 75.136719 18.757812 C 74.894531 18.757812 74.683594 18.96875 74.683594 19.214844 C 74.683594 19.457031 74.894531 19.671875 75.136719 19.671875 C 75.382812 19.671875 75.59375 19.457031 75.59375 19.214844 Z M 74.5 18.605469 C 74.714844 17.992188 75.503906 18.023438 75.867188 18.695312 C 76.320312 19.488281 76.988281 18.726562 76.535156 17.933594 C 76.320312 17.507812 76.320312 17.230469 76.59375 16.957031 C 76.867188 16.683594 76.867188 16.46875 76.59375 16.042969 C 76.414062 15.738281 76.351562 15.308594 76.503906 15.097656 C 76.777344 14.640625 76.566406 13.875 76.171875 13.875 C 76.019531 13.875 75.898438 14.089844 75.898438 14.335938 C 75.898438 14.578125 75.625 14.914062 75.289062 15.097656 C 74.773438 15.371094 74.683594 15.308594 74.5 14.640625 C 74.289062 13.753906 73.832031 13.632812 73.558594 14.394531 C 73.4375 14.699219 73.558594 15.035156 73.832031 15.21875 C 74.289062 15.492188 74.289062 15.554688 73.863281 15.890625 C 73.316406 16.253906 73.527344 17.230469 74.136719 17.230469 C 74.347656 17.230469 74.683594 16.925781 74.835938 16.5625 C 75.015625 16.195312 75.320312 15.859375 75.53125 15.828125 C 75.746094 15.796875 75.777344 15.828125 75.625 15.890625 C 75.441406 15.980469 75.410156 16.253906 75.503906 16.5 C 75.59375 16.742188 75.53125 16.925781 75.410156 16.925781 C 74.835938 16.925781 73.378906 18.359375 73.589844 18.695312 C 73.894531 19.183594 74.289062 19.152344 74.5 18.605469 Z M 75.59375 13.875 C 75.59375 13.722656 75.382812 13.570312 75.136719 13.570312 C 74.894531 13.570312 74.683594 13.722656 74.683594 13.875 C 74.683594 14.058594 74.894531 14.183594 75.136719 14.183594 C 75.382812 14.183594 75.59375 14.058594 75.59375 13.875 Z M 90.164062 20.832031 C 88.253906 19.855469 87.34375 18.238281 87.554688 16.042969 C 87.675781 14.699219 87.890625 14.210938 88.707031 13.359375 C 89.800781 12.199219 91.59375 11.589844 93.140625 11.863281 C 95.296875 12.199219 97.148438 14.457031 97.148438 16.714844 C 97.148438 18.175781 95.8125 20.128906 94.324219 20.859375 C 92.65625 21.683594 91.835938 21.652344 90.164062 20.832031 Z M 92.929688 18.757812 C 93.261719 18.757812 93.503906 18.542969 93.503906 18.238281 C 93.503906 17.933594 93.65625 17.476562 93.808594 17.230469 C 94.050781 16.894531 94.082031 16.988281 93.929688 17.628906 C 93.746094 18.390625 93.808594 18.453125 94.597656 18.421875 C 95.082031 18.421875 95.296875 18.328125 95.113281 18.238281 C 94.539062 18.023438 94.628906 17.535156 95.265625 17.535156 C 95.660156 17.535156 95.691406 17.476562 95.355469 17.261719 C 95.023438 17.046875 95.023438 16.988281 95.355469 16.835938 C 95.691406 16.683594 95.660156 16.5625 95.207031 16.285156 C 94.75 16.011719 94.71875 15.890625 95.054688 15.675781 C 95.417969 15.433594 95.417969 15.339844 95.023438 15.097656 C 94.78125 14.945312 94.71875 14.792969 94.871094 14.792969 C 95.386719 14.761719 93.6875 13.570312 93.140625 13.570312 C 92.867188 13.570312 92.5625 13.390625 92.503906 13.207031 C 92.382812 12.902344 92.261719 12.902344 92.046875 13.238281 C 91.894531 13.449219 91.59375 13.570312 91.441406 13.449219 C 91.257812 13.328125 90.894531 13.601562 90.621094 14 C 90.347656 14.425781 89.832031 14.851562 89.527344 14.945312 C 89.164062 15.066406 88.953125 15.371094 89.011719 15.644531 C 89.074219 16.042969 89.40625 16.132812 90.410156 16.074219 C 91.867188 15.949219 91.925781 16.101562 91.078125 17.382812 C 90.46875 18.300781 90.285156 19.398438 90.652344 19.761719 C 90.773438 19.855469 91.199219 19.671875 91.621094 19.367188 C 92.015625 19.03125 92.625 18.757812 92.929688 18.757812 Z M 35.214844 16.5 C 35.214844 15.554688 35.335938 14.824219 35.488281 14.914062 C 35.703125 15.066406 35.582031 17.839844 35.335938 18.117188 C 35.277344 18.175781 35.214844 17.476562 35.214844 16.5 Z M 46.085938 16.621094 C 46.175781 15.554688 46.328125 15.097656 46.632812 15.097656 C 46.933594 15.097656 47.054688 15.523438 47.054688 16.621094 C 47.054688 17.871094 46.964844 18.148438 46.539062 18.148438 C 46.085938 18.148438 46.023438 17.902344 46.085938 16.621094 Z M 1.125 17.324219 C 1 17.109375 0.941406 13.175781 0.972656 8.570312 L 1.0625 0.152344 L 6.375 0.152344 L 6.375 11.011719 L 5.34375 11.375 C 3.097656 12.199219 1.851562 13.847656 1.519531 16.316406 C 1.425781 17.109375 1.273438 17.535156 1.125 17.324219 Z M 69.523438 16.46875 C 69.523438 16.042969 69.644531 15.707031 69.792969 15.707031 C 69.917969 15.707031 69.976562 16.042969 69.886719 16.46875 C 69.824219 16.894531 69.703125 17.230469 69.644531 17.230469 C 69.582031 17.230469 69.523438 16.894531 69.523438 16.46875 Z M 25.621094 11.40625 C 25.5 11.164062 24.773438 11.101562 23.496094 11.222656 L 21.554688 11.40625 L 21.554688 0.121094 L 23.769531 0.214844 L 25.957031 0.304688 L 25.957031 6.039062 C 25.957031 9.179688 25.925781 11.742188 25.894531 11.742188 Z M 40.832031 11.132812 L 39.316406 10.980469 L 39.222656 5.550781 L 39.164062 0.152344 L 42.167969 0.152344 L 41.984375 2.773438 C 41.863281 4.332031 41.957031 6.375 42.199219 7.867188 C 42.714844 11.253906 42.683594 11.316406 40.832031 11.132812 Z M 40.832031 11.132812 "
    />
  </g>
</svg>
