<svg xmlns="http://www.w3.org/2000/svg" id="root" viewBox="40 -5 3261 1705">
  <path fill="#191813"
    d="M1494 1680c0-11 6-20 13-20s14-4 14-10c2-16 5-23 24-65 10-22 18-43 17-47-1-5 3-8 9-8 5 0 7-4 4-10-3-5-2-10 4-10 9 0 27-56 23-72-1-5 3-8 9-8 5 0 8-4 4-9-3-5-1-12 5-16s8-11 5-16c-4-5-1-9 6-9s9-3 6-7c-4-3-2-12 4-19s7-19 3-26c-19-30-11-39 11-12 17 20 24 24 25 13 0-9-7-22-15-29s-15-19-15-26c0-8-5-14-10-14-6 0-9-3-8-7 3-12-23-55-29-49-3 3-5 48-4 100 2 85-13 176-28 176-3 0-24-34-46-76s-47-81-56-88c-9-6-28-30-42-53s-31-44-38-48c-19-13-56 38-123 171-32 64-66 96-86 84-13-8-15-107-18-740l-3-730h71v379l36-21c45-26 159-36 206-18 18 7 45 25 61 38l27 26V-1l28 3c15 2 26 8 25 15-2 7-3 233-3 503-1 428-3 491-15 486-8-3-15-1-15 4 0 16 40 11 46-5 4-8 12-15 20-15s14-7 14-15 8-15 18-15c14 0 15-2 2-10-8-5-11-10-6-10s0-10-11-22c-42-48-55-130-25-159 11-10 23-15 27-11s6 0 3-8c-7-21 12-37 39-32l23 4V0h60v404l28-27c57-54 210-58 276-6l26 20V0h60v718l-22 16c-20 15-20 16-3 9 11-4 40-8 65-9l58-3c9-1 12-81 12-366V0h69l-2 68c-1 37-1 124 1 195 2 117 4 127 21 127 10 0 21-9 24-20 3-13 14-20 30-20 14 0 29-4 32-10 16-25 157 1 196 36 19 17 19 13 19-179V0h63l-7 698c-8 697-10 764-21 782-10 16-21 4-60-68-21-37-53-84-71-105-19-20-34-42-34-48s-10-21-22-34l-22-23-17 22c-9 11-26 41-39 65-16 33-24 41-31 30-7-12-9-12-10 1-1 14-3 23-9 45v36c1 21-5 29-27 37-17 6-21 11-10 11 9 1 17 9 17 19 0 15 2 15 11 2 8-12 10-9 6 13-2 15-1 27 4 27 9 0 34 70 31 84-2 5 3 13 10 18 11 6 11 10 0 16-10 7-10 11 3 22 9 7 14 19 11 26-3 8 5 14 22 17 15 2-58 5-162 6l-189 1 23-20c12-11 27-17 33-13 7 4 8-21 3-78l-9-106c-1-27-6-29-22-6-12 16-16 12-41-30-28-46-60-60-58-25 1 10-4 14-11 12-7-3-16-1-19 5-4 6-18 6-35 1-16-4-32-6-35-2-3 3-6 1-6-4s-10-11-22-12a456 456 0 0 1-80-13c-5 0-8-4-8-11 0-14-13-2-16 15-13 66-14 81-5 62 6-13 8 18 4 90-2 62-9 113-15 116-7 4-3 9 8 12 10 2-58 5-151 6-164 1-171 0-171-19zm536-358-42-63-42-60-18 23c-21 28-22 47-3 72 8 11 15 17 15 13s11-2 25 6c23 11 65 18 65 9zm-713-149c22-39 29-43 63-43 32 0 44 6 67 34 15 19 37 52 48 73 49 95 49 95 56 13 3-41 2-103-3-137-7-42-6-89 1-144 6-45 11-129 11-185V680l-47 30c-42 27-56 30-123 30-70 0-81-3-118-30l-42-30v289c0 159-3 304-6 322-7 32-5 31 31-21l62-97zm1363-168V690l-37 24c-70 45-182 45-248 0l-34-23 6 32c3 18 10 33 15 35 13 6 9 114-7 157-20 56-19 63 15 80 17 9 30 22 30 30 0 7 10 15 23 17 19 3 22 10 25 51l3 47h38c28 0 43 7 62 28 31 35 61 78 83 120 9 17 19 32 21 32 3 0 5-142 5-315zm-780 143c0-5 17-8 38-8 32 0 43 7 76 45 22 25 43 45 47 45 5 0 20-20 34-43 25-44 25-45 25-278 0-129-4-229-8-223-21 34-78 54-149 54-72 0-73 0-73 26 0 17-6 28-20 31-24 6-25 13-5 39 21 28 19 77-5 92-11 7-20 23-20 37 0 21-5 25-30 25-38 0-39 15-1 28 29 10 29 11 37 113l7 102 23-39c13-21 24-42 24-46zm-3-533c-4-8-17-15-29-15h-23l25 20c27 20 36 19 27-5zm143 10c7-9 10-18 7-21-10-11-37 5-37 21 0 19 14 19 30 0zm390-87v-83l-20 30c-25 37-25 64-2 104 9 17 18 31 20 31 1 0 2-37 2-82zm207 10c4-34 1-49-16-68l-20-25-1 85c0 77 1 83 16 68 9-9 18-36 21-60zm-653-129c-11-4-33-4-50-1-29 6-29 6-4 12 14 3 36 4 49 1 23-4 24-5 5-12zm1269 1056c-4-13-8-13-22-3-14 12-15 11-2-5 12-15 12-20-1-35-9-9-19-27-22-39-4-13-12-23-17-23s-9-5-9-11-15-29-34-52c-18-23-39-52-45-64-26-51-62-15-146 150-29 56-72 94-88 78-9-9-13-176-15-741l-3-730h71v389l36-24c73-49 184-45 262 11l22 16V0h61l-5 702c-3 387-6 720-8 740-3 39-24 59-35 33zm-15-625-3-161-34 26c-31 22-45 25-115 25-67 0-88-4-122-24l-41-23-8 304c-4 167-5 306-3 308 2 3 29-33 59-80 54-84 54-84 97-85 50 0 70 18 129 118l38 64 3-156V850zm-248-265c0-16-6-25-15-25-18 0-18 5-5 31 14 26 20 24 20-6zM410 1418c-19-35-51-84-72-109s-38-50-38-55c0-6-11-20-23-33-19-17-26-19-34-9-20 26-88 144-109 188-24 52-69 84-84 60-6-9-10-315-10-737V0h29c28 0 30 3 36 53 3 28 4 116 2 195-4 132-3 142 12 128 53-48 173-60 251-25 24 11 48 25 52 32s8-77 8-185V0h63l-7 668c-7 707-11 812-31 812-7 0-27-28-45-62zm-254-178c22-30 45-67 52-82 9-23 18-28 47-28 42 0 78 33 126 117 17 29 34 55 40 58 5 4 9-114 9-305V689l-43 26c-37 21-56 25-124 25-73 0-84-3-121-30l-42-30v317c0 177 4 313 9 308l47-65zm839 221c-3-12-12-27-18-33-7-7-22-34-34-60-13-27-27-48-32-48s-20-17-32-37c-13-21-33-48-45-61l-23-23-14 23c-8 13-38 64-65 113-66 118-79 135-101 135-13 0-20-10-25-31-3-17-6-348-6-735V0h60v197c0 188 1 195 18 180 32-29 90-47 151-47 64 0 103 12 139 44l22 19V0h62l-3 658c-4 755-7 815-31 820-9 2-19-5-23-17zm-5-463V677l-22 20c-39 35-64 43-140 43-65 0-80-4-121-30l-47-30v317c0 230 3 314 11 306 6-6 32-46 58-89 44-74 49-79 84-82 32-3 42 2 72 35 19 21 35 43 35 49s9 19 19 28c11 10 25 31 31 47 7 16 14 29 16 29s4-145 4-322zm-95-364c14-9 25-20 25-25s-43-9-96-9c-89 0-95 1-83 17 36 43 103 50 154 17zm13-186c-3-7-23-20-46-28-37-13-45-12-77 3-56 27-43 37 46 37 60 0 80-3 77-12z" />
  <g fill="#AFA768">
    <path
      d="M1645 1680c-19-21-19-21 8-46 21-20 27-34 27-69 0-24 5-47 11-51 9-5 10 10 5 57-5 48-13 68-28 80s-17 18-8 21c7 2 11 10 9 17-3 9-10 6-24-9zm506-1c22-19 39-17 39 4 0 7-13 12-30 13l-30 1 21-18zm-351-88c0-22 4-42 9-45 11-7 20 39 14 65-9 33-23 21-23-20zm-767-161c0-25 2-35 4-22 2 12 2 32 0 45-2 12-4 2-4-23zM70 968c0-306 3-468 10-468 6 0 10 13 10 29 0 50 38 119 83 152 37 27 48 30 97 27 30-2 63-8 73-12 14-7 17-3 17 19 0 26-2 27-40 23l-40-4v219c0 194-2 218-16 213-10-4-19 4-29 27-7 17-11 36-8 41 4 5 2 6-4 3-9-6-93 102-93 120 0 4-14 24-30 43l-29 35-1-467zm533 412c0-30 2-43 4-27 2 15 2 39 0 55-2 15-4 2-4-28zm27-662V0h150v163c0 89 3 171 6 182 4 17-2 23-30 33-54 20-89 72-94 140-5 79 16 126 74 160l44 27-2 243c-2 133 0 243 4 245 4 1-13 34-37 72-25 39-49 79-54 90s-21 34-35 50l-25 30-1-717zm935 704c-5-4-15-16-21-27s-16-20-22-20-14-4-19-9-2-6 6-1c9 5 12 3 9-6-3-8-11-13-17-11-7 1-10-2-7-7 6-10-29-81-66-134-18-25-19-45-18-252l1-225h-48l-7 173c-4 94-6 199-5 232 2 60 1 62-71 173-41 62-78 112-84 112-5 0-7-49-3-127 4-71 7-390 7-710V0h160v160c0 134 3 162 15 166 29 12 14 32-32 43-81 21-145 121-127 199 18 73 102 142 174 142 67 0 132-43 155-104 10-25 24-46 31-46 12 0 14 38 12 215-2 118 0 215 4 215s9-57 11-127l3-128 1 138c1 115-1 137-13 133-8-3-14-1-14 3 0 5 6 12 13 14 7 3 5 6-5 6-10 1-18 4-18 9 0 6 17 85 35 163 2 9-1 22-7 30-7 11-8 9-3-6 4-14 3-17-4-10-6 6-12 56-13 112-2 66-7 100-13 95zm-593-46-78-129c-6-10-25-34-42-53-26-30-28-34-11-34 16 0 19-7 19-42l3-210c2-179 2-178-49-178-13 0-24-4-24-10 0-5 19-10 43-10 102 0 183-107 163-215-9-48-65-108-116-125-38-13-53-34-28-42 8-3 12-53 12-166l1-162h155v710c0 477-3 710-10 710-6 0-23-20-38-44zm191 9c0-22 2-30 4-17 2 12 2 30 0 40-3 9-5-1-4-23zm2101-145c0-58 1-81 3-52 2 28 2 76 0 105-2 28-3 5-3-53zm30 15c0-49 1-71 3-48s2 64 0 90-3 8-3-42zm-1439 60-40-12-1-74c-1-170 0-167-39-183-19-8-35-22-35-30s-10-22-22-30c-27-19-18-32 11-16 14 7 21 7 21 0 0-5-4-10-9-10-11 0-44-50-37-57 3-3 15 6 28 19 13 14 35 28 51 32 24 6 27 4 27-19 0-14 8-30 19-37 18-11 18-12 0-41-10-17-16-34-13-39 9-14-6-46-24-52-9-2-1-2 19 1 21 3 40 0 43-6 5-7-3-11-19-11-18 0-25-4-22-13s-14-11-76-8c-70 3-78 1-66-11 9-11 23-13 46-8 17 4 34 5 37 2 4-3 6-164 6-359V0h390v360c0 233 4 360 10 360s11-129 12-362l3-363 2 360 3 360-22 18c-15 13-17 17-6 14 9-3 19 1 22 9 8 22 8 24-9 24-8 0-15 5-15 10 0 6 16 10 35 10 28 0 35 4 35 20 0 13-7 20-20 20-12 0-20 7-20 17 0 9-7 25-16 35-16 16-16 18 0 24 12 5 16 20 16 70s3 64 15 64c9 0 12 6 8 18-5 14-3 13 10-3 20-25 22-4 3 33-7 15-19 61-26 103-15 83-13 82-115 115-42 14-56 11-37-8 8-8 6-18-7-37-28-39-90-105-94-100-21 26-55 99-47 99 5 0 10-6 10-12 0-7 6-2 13 12 8 14 13 26 11 28-1 2-20-6-43-17-45-24-51-25-51-12 0 5 19 16 42 23 23 8 44 20 46 26 5 15-10 14-63-3zm300-58 14-62c8-33 17-68 22-77 6-12 6-18 0-18s-13 11-17 24c-3 14-26 55-50 92s-44 69-44 71c0 3 73-25 75-30zm15-233c0-49-4-84-10-84s-10 37-10 91c0 57 4 88 10 84 6-3 10-44 10-91zm-131-335c47-26 91-95 90-140l-1-34-9 36c-31 133-153 187-258 114-50-34-65-70-59-146 4-56 8-65 40-95 25-22 50-35 81-39 86-13 145 16 178 89 15 33 19 36 19 17 0-13-14-41-31-62-96-122-309-45-309 110 0 129 146 214 259 150zm-55-15c9-3 16-12 16-19s15-20 34-29c27-12 35-23 40-53 10-64 7-85-20-120-23-30-29-33-80-33-41 0-59 5-74 20-11 11-24 20-28 20-15 0-51 45-53 65-4 38 1 55 16 55 8 0 15 7 15 15s5 15 10 15c6 0 10 7 10 15s9 15 20 15 20 6 20 14c0 22 40 33 74 20zm430 610c-6-23 0-69 23-177 5-24 1-29-26-38-17-6-28-15-25-20s-11-17-31-26c-29-14-40-15-56-5s-19 10-19-3c0-8 11-17 25-21 17-4 25-13 25-28-1-26-22-56-41-56-10-1-9-4 4-11 21-12 23-44 2-35-9 3-15 0-15-9 0-10 10-15 26-15 25 0 26 2 20 40-8 52 5 52 22 0 15-48 16-90 2-90-5 0-10-11-10-25 0-19-5-24-21-22-12 1-24-4-26-10-3-8 4-13 15-13 20 0 20-6 18-347-1-192 0-354 2-360 3-9 33-13 103-13h99v330h25c14 0 25 5 25 10 0 6 14 10 30 10 21 0 30 5 30 16 0 9 11 25 25 36s26 27 27 36 5-86 8-213c4-183 6-146 6 185 0 228-3 370-6 315s-7-85-8-67c-2 25-6 32-22 32-11 0-20 7-20 15s-7 15-15 15-15 4-15 9c0 6-21 13-46 17l-46 7 3 218c3 139 1 215-5 209-20-20-34-8-69 60-34 66-37 69-43 44zm198-600c47-30 68-62 75-113 13-99-32-170-124-197-37-11-58-13-65-6s2 10 25 10c102 0 179 109 147 209-16 48-35 70-82 94-75 38-163 12-211-63-25-39-23-121 5-167l21-36-22 21c-50 47-46 160 7 217 65 69 147 80 224 31zm-72-19c0-8 6-15 14-15s30-16 50-36c50-50 50-99 1-147-19-19-35-42-35-52 0-30-88-12-122 25-15 17-32 30-38 30-13 0-30 34-30 64 0 34 10 56 25 56 8 0 15 10 17 22 6 43 118 93 118 53zm360 348c0-164-3-336-6-383l-5-85 21 45c27 57 46 77 92 101 55 28 123 25 171-8 21-15 43-35 48-45s13-18 17-18 7 153 7 340v340h-36c-30 0-38-5-57-37-29-50-68-93-84-93-7 0-26 23-43 50-16 27-36 50-42 50-7 0-13 9-13 20 0 16-7 20-35 20h-35v-297z" />
    <path
      d="M1400 1225c-7-9-19-14-26-11-8 3-11 0-7-10 5-13 10-11 29 7 13 12 24 24 24 26 0 7-8 2-20-12zm-357-130c0-33 2-45 4-27s2 45 0 60-4 0-4-33zM424 828c2-128 7-254 11-280 6-40 3-54-20-97-22-40-37-54-76-70-53-23-85-26-123-11-24 9-26 7-26-15 0-16 6-25 15-25 13 0 15-25 15-165V0h240v530c0 528 0 530-21 530-20 0-20-3-15-232zm1199-1c-2-39 1-55 17-69 13-12 21-14 26-7 4 7-1 16-10 21-11 6-16 23-16 53 0 62-14 64-17 2zm1112-417c0-228 1-322 2-208 2 115 2 301 0 415-1 115-2 21-2-207zM485 390c0-217 1-306 2-197 2 108 2 286 0 395-1 108-2 19-2-198z" />
    <path
      d="M205 681c-52-23-73-49-89-103-14-49-11-78 8-78 8 0 19 25 27 61 16 72 43 99 99 99 21 0 53 3 71 7l33 6-34 13c-48 17-69 16-115-5zm571 4c-50-19-75-41-92-82-35-81-3-171 73-212 30-15 33-14 33 10s-26 48-51 49c-18 0-49 56-49 89 0 12 9 30 19 40 11 11 21 27 23 38 2 10 14 19 28 22 14 1 28 7 31 13 3 5 27 6 57 2 37-5 52-11 55-25 3-11 12-19 20-19s22-16 32-36c13-28 14-41 6-67-17-47-60-87-93-87-21 0-28-5-28-20 0-23 13-25 58-9 44 15 92 90 92 142 0 109-114 189-214 152zm584 8c-57-22-84-40-106-72-46-68-24-170 46-218 39-27 95-32 86-7l-6 20c0 2-16 4-35 4-25 0-37 5-41 18-12 38-39 92-46 92-12 0-10 38 2 45 6 3 10 16 10 27 0 12 3 18 6 15 4-4 20 5 36 18 16 14 37 25 46 25 30 0 122-24 122-32 0-5 7-8 16-8 12 0 15-7 12-24-5-23 7-36 32-36 12 0 0 41-21 71-29 42-120 77-159 62zm1655-10c-46-24-73-53-86-90-10-31-2-65 8-35 3 6 11 12 19 12s17 13 21 30c8 43 37 60 105 60 45 0 58-3 58-15 0-8 7-15 15-15s15-7 15-15c0-9 9-15 25-15 14 0 25 3 25 8 0 18-34 54-70 72-47 24-94 25-135 3zM411 563c-1-27-8-50-20-62-10-10-21-29-24-43-9-33-74-62-135-60-35 1-42-1-27-8 31-14 103-11 133 4 63 33 98 109 82 178-8 33-8 33-9-9z" />
    <path
      d="M1510 507c0-40-30-72-77-82-24-5-33-12-33-27 0-18 4-20 33-14 44 9 104 71 112 119 7 33 5 37-14 37-17 0-21-6-21-33z" />
    <path
      d="M1556 500c-8-51-62-112-113-129-30-10-38-18-40-39-9-119-14-286-9-307 6-25 8-25 101-25h95v254c0 140-3 261-6 270-10 27-21 18-28-24zm1344-267V0h169c145 0 170 2 175 16 12 30 7 399-6 412-8 8-20 4-47-17-53-41-101-55-150-41-41 11-111 63-111 82 0 6 18-6 39-25 63-57 152-62 208-12l28 24-37 1c-26 0-38-4-38-14 0-16-43-30-48-16-2 6-18 10-36 10-22 0-40 8-56 25a67 67 0 0 1-56 23l-34-1V233zM602 430c0-19 2-27 5-17 2 9 2 25 0 35-3 9-5 1-5-18zm2-280c0-85 2-120 3-77 2 42 2 112 0 155-1 42-3 7-3-78zm2250-15c0-77 2-107 3-67 2 40 2 103 0 140s-3 4-3-73zM1163 70c0-41 2-58 4-37 2 20 2 54 0 75-2 20-4 3-4-38z" />
  </g>
  <g fill="#E0E3B5">
    <path
      d="M1804 1591c8-115 26-168 21-61l-4 113c-1 20-6 37-12 37-7 0-9-29-5-89zm-174 71c0-5 10-14 23-21 14-7 24-23 25-39 1-14 7-31 12-36 7-7 8 1 4 24-9 52-13 62-23 56-5-3-11 1-15 9-6 16-26 21-26 7zm794-43c-12-21-32-109-24-109 10 0 35 70 32 88-2 6 2 12 8 12 5 0 10 5 10 10 0 13-17 13-26-1zm-243-89-6-44c-2-12 0-15 6-9s9 26 6 44c-3 26-4 28-6 9z" />
    <path
      d="M1684 1518c12-59 16-157 6-163-5-3-10-14-10-23 0-12 3-13 12-4 7 7 22 12 35 12 32 0 153 56 153 71 0 8-3 9-13 0-8-6-17-8-20-4-4 3-7 1-7-6s-4-10-8-7c-5 3-32-3-60-14s-53-16-56-11c-3 4-8 45-12 89-4 45-11 82-16 82-4 0-6-10-4-22zm476-85c0-17-4-20-21-16-14 4-25 0-31-11-5-9-13-14-18-11s-17 1-27-4-26-12-36-15-16-10-13-15c7-11-22-23-36-15-6 4-18 25-28 48-14 30-20 36-25 24-4-9-2-25 4-37 18-34 13-40-53-60-36-11-74-26-85-33-17-10-25-10-50 5-28 16-29 16-34-3-3-14 2-21 19-27l24-8-26-48c-37-71-25-76 16-7 40 68 70 85 70 40 0-41 12-43 32-4 15 29 15 32 1 27-11-4-14-2-11 8 2 8 14 15 26 17s22 8 22 13c0 6 4 7 10 4 5-3 24 2 42 11 32 16 32 16 18-1s-14-17 15-3c17 8 35 14 41 11 6-2 16 8 24 22 7 14 19 25 27 25 18 0 16-6-8-29-18-16-19-22-7-40 8-14 20-20 31-17 10 2 33-2 52-10 25-10 34-21 37-41 2-14 9-28 16-31 9-3 11 3 6 22-11 46 23 20 68-50 34-55 58-79 58-59 0 8-37 76-55 101-15 20-14 23 17 43 18 11 26 21 18 21-9 0-21-5-28-12s-12-8-12-2 5 15 12 22c6 6 9 15 5 18-3 3-17-6-30-21l-23-27-55 25-72 31c-17 5-17 7-1 31 24 37 59 42 108 17 23-12 58-28 78-36 29-11 45-29 74-80 21-36 42-66 46-66 9 0-1 30-17 50-7 8-22 34-35 57-16 28-34 46-54 53-17 5-44 21-61 35l-30 25 90-3 89-2 12-45c24-87 55-261 48-271-6-11-52-8-86 6-33 13-19-16 14-30l33-13-38-18c-36-17-38-17-75 3-42 24-82 84-82 125 0 15-5 30-11 34-12 7-6-35 16-98 19-56 8-46-22 19-15 32-28 52-30 46-3-7 0-21 6-32s11-55 11-98c0-67-3-80-20-91-26-16-26-38 0-52s19-47-16-73c-25-20-31-37-13-37 6 0 18-7 26-16 13-13 17-13 24-2 14 21 10 28-13 28-21 1-22 2-5 14 9 7 28 11 42 8 16-3 25 0 25 8s8 10 21 7c12-3 22 0 26 9 3 8 10 14 17 13 43-5 49 0 42 42-6 35-4 40 9 36 12-5 15 2 15 31 0 35 4 40 55 71 31 19 55 41 55 50l-14 126c-8 60-12 113-10 117s-1 10-7 14c-8 4-9 3-5-4s2-12-3-12c-6 0-12 6-12 13-1 12-3 21-9 42v37c1 22-5 28-35 38-19 6-74 12-120 13-81 2-85 1-85-20zm156-436c24 9 18-54-6-67-17-9-20-8-20 8 0 10-9 27-19 36-11 10-17 24-14 32 4 12 8 12 25 0 11-8 27-12 34-9zm-81-34c19-9 35-22 35-29s12-24 26-37c18-17 23-27 14-32-6-4-17-2-23 4-16 16-25 13-29-10-2-17-11-22-44-23-35-2-40 0-36 16 2 10-3 27-13 38-16 17-16 19 4 30 13 6 21 21 21 35 0 30 0 30 45 8zm420 404a935 935 0 0 0-122-177l-32-35-3-220-3-220 42-1c51-2 114-44 137-92 20-41 21-124 2-160a209 209 0 0 0-158-102c-17 0-18-15-18-180V0h210v709c0 392-4 712-9 715-4 3-25-22-46-57zm229-277c3-190 6-513 6-717 0-366 0-373 20-373 19 0 20 7 20 224 0 179-3 229-15 252-19 37-19 94 0 130 12 24 15 87 16 354 1 179 4 315 6 303 2-13 11-23 18-23 16 0 47-39 40-50-3-4 5-10 16-13 12-3 18-10 14-16-3-6 1-11 10-11 8 0 18-7 21-15 4-8 9-15 13-15 3 0 33 34 65 75 73 93 88 96 81 18-3-32-5-168-5-302-1-232 0-245 21-285 33-60 30-134-5-181-20-26-25-39-17-48 6-8 9-85 8-205l-2-192h55v710c0 472-3 710-10 710-10 0-60-73-97-142-27-51-79-108-98-108-9 0-19 8-22 18-4 9-31 52-60 94-29 43-53 81-53 85-1 5-12 22-26 38l-26 30 6-345zM425 1395c-23-35-33-51-74-121-17-27-46-67-66-87l-35-36V710h36c51 0 117-48 140-102l18-43 9 400c5 223 5 413 0 429l-9 30-19-29z" />
    <path
      d="M1890 1285c-24-13-24-14-4-15 12 0 27 7 34 15 16 19 3 19-30 0zm190-29c0-8 7-16 15-20 13-4 14-2 5 14-13 23-20 26-20 6zm-1215-50c-38-49-52-52-76-11-12 20-26 32-34 29-10-4-12-38-9-162l4-265c0-103 1-107 19-97 11 5 44 10 74 10h53v265l-3 265c-1 0-14-15-28-34zm463 8c-9-14-13-312-5-320 4-4 7-48 7-98v-91l55 3 55 4v244c0 134-3 244-7 244s-17-10-31-22c-25-25-26-24-58 28-6 10-13 14-16 8zm264-6c-15-19-42-117-42-154 0-35 12-50 31-38 8 5 8 8 0 14-11 6-8 29 24 173 5 20 1 22-13 5zm224-75c-3-3-6-21-6-40 0-28-5-35-35-47-19-8-35-22-35-31 0-8-14-24-31-34s-26-21-21-25c10-6 61 29 75 51 4 7 14 13 21 13 26 0 56 40 56 75 0 33-11 51-24 38zm-150-68c-3-13-15-29-26-35s-17-16-13-25c4-12 11-9 34 15 16 16 29 39 29 50 0 28-17 25-24-5zm94-96c-14-5-33-20-42-32-15-19-19-20-30-7l-10 11c1-3-8-16-20-30l-23-26 23 19c12 11 22 17 23 15l3-42c4-45 11-54 30-38 15 13 32-1 22-18-19-30 33-65 83-55 28 6 28 7 18 45-11 44-19 44-21 2-1-24-5-28-31-28-27 0-30 3-33 35-5 61-11 68-33 41l-19-23v31c0 20 7 34 20 41 11 6 19 16 17 22-1 7 18 16 46 21 26 5 47 13 47 18 0 12-38 10-70-2z" />
    <path
      d="M1820 905c7-8 20-15 29-15 13 1 13 3-3 15-26 19-42 19-26 0zm547-61c-4-4-7-18-7-30 0-13-4-26-10-29-13-8-13-25 0-25 6 0 14 8 17 18 4 9 9 19 13 22s4 15 1 28c-4 13-9 20-14 16zm365-24c0-19 2-27 5-17 2 9 2 25 0 35-3 9-5 1-5-18zm-1111-15c-1-31 33-73 44-55 3 5-1 12-8 17-8 4-19 22-25 38l-10 30-1-30zm577-52c-36-9-17-24 30-23 26 1 65-2 87-5 37-6 39-5 21 9-11 9-34 16-50 16-17 0-40 2-51 4s-28 2-37-1zm-378-17c9-9 26-12 43-9 42 8 32 23-15 23-37 0-40-2-28-14zm-148-19c6-8 22-11 35-9 29 5 27 7-15 15-26 5-30 4-20-6zM202 680c-49-23-68-46-83-101-30-113 36-199 154-199 117 0 191 142 128 243-38 62-130 88-199 57zm58-55c0-13 4-14 20-5s20 8 20-5c0-12 6-14 27-9 22 6 25 4 20-10-4-10-1-16 7-16 16 0 6-71-13-93-6-8-8-17-4-20 3-4-6-18-20-31-32-29-68-29-95 0-11 11-32 31-47 42-23 19-26 24-15 37 10 12 15 13 20 4 5-6 13-8 20-4 10 6 9 11-4 21-22 15-12 36 12 27 14-5 15-3 5 8-18 18-17 50 1 43 7-3 16 2 19 10 8 20 27 21 27 1z" />
    <path
      d="M266 464c-5-14-4-15 8-5 10 8 16 9 19 1 3-6 4-5 3 2-4 19-23 20-30 2zm504 217a161 161 0 0 1-91-203c16-48 86-98 138-98 73 0 109 17 142 67 72 108 7 232-130 248-8 1-35-6-59-14zm6-122c4-8 9-8 17 0 15 15 50 14 65-1 10-10 14-10 21 0 5 8 21 12 37 10 21-2 30-9 32-26 7-45-46-72-67-35-9 17-10 17-28 0-24-21-37-21-57-1-15 14-17 14-32 0-20-20-33-20-56 1-21 19-23 34-6 51 15 15 65 16 74 1z" />
    <path
      d="M730 535c0-8 5-15 10-15 6 0 10 7 10 15s-4 15-10 15c-5 0-10-7-10-15zm86 7c-3-6-1-14 5-17 15-10 25 3 12 16-7 7-13 7-17 1zm84-7c0-9 5-15 11-13s11 8 11 13-5 11-11 13-11-4-11-13zm460 157c-80-24-130-80-130-146 0-47 36-123 68-144 31-20 103-27 145-13 18 6 49 27 67 46 31 32 34 40 34 97 1 51-4 69-23 95-32 43-119 78-161 65zm54-84c11-15 12-26 6-32s-10-14-10-20c0-5 16 7 35 28 34 37 75 47 66 15-43-157-51-171-85-141-14 13-20 14-23 5-3-7-12-13-20-13-9 0-13 6-9 15 3 8 1 15-5 15-5 0-12-7-15-15-12-31-40-16-57 33-18 53-32 122-24 122 3 0 24-16 47-35 40-34 66-41 42-12-9 10-8 19 4 35 19 28 29 28 48 0zm480 75c-81-46-98-77-92-164 4-54 8-66 36-90 57-51 157-61 212-20 91 66 83 202-15 264-49 31-97 35-141 10zm81-66 10-38c9-40 18-58 33-64 24-9 39 12 24 35-10 16-10 20 1 20 33 0 48-50 27-91-15-28-74-26-95 4-17 24-24 24-43-4-17-24-70-25-88-1-20 26-17 70 5 82 28 15 49 13 27-3-20-15-11-51 11-43 8 3 18 6 22 6s8 6 9 13c7 87 43 140 57 84zm485 70c-42-20-70-41-70-53 0-6-7-17-15-24-10-8-15-31-15-68 0-44 6-64 26-93 36-52 66-69 123-70 85-2 161 65 163 143 0 71-1 76-33 112-53 61-120 81-179 53zm70-62c0-8-7-15-15-15s-15 7-15 15 7 15 15 15 15-7 15-15zm-36-20c7-20 33-19 45 3 15 26 37 1 22-25-7-14-7-23 2-32s9-16 0-30c-6-10-8-24-3-31 9-15 2-40-11-40-5 0-9 7-9 15s-9 19-20 25c-17 9-20 7-26-15-7-29-22-33-31-8-4 10 0 21 9 27 15 9 15 11 1 22-18 12-11 44 9 44 7 0 18-10 23-22 6-12 16-23 23-24s8 0 3 2c-6 3-7 12-4 20s1 14-3 14c-19 0-67 47-60 58 10 16 23 15 30-3zm36-155c0-5-7-10-15-10s-15 5-15 10c0 6 7 10 15 10s15-4 15-10zm480 228c-63-32-93-85-86-157 4-44 11-60 38-88 36-38 95-58 146-49 71 11 132 85 132 159 0 48-44 112-93 136-55 27-82 26-137-1zm91-68c11 0 19-7 19-17s5-25 10-33c8-11 9-8 4 13-6 25-4 27 22 26 16 0 23-3 17-6-19-7-16-23 5-23 13 0 14-2 3-9s-11-9 0-14 10-9-5-18-16-13-5-20c12-8 12-11-1-19-8-5-10-10-5-10 17-1-39-40-57-40-9 0-19-6-21-12-4-10-8-10-15 1-5 7-15 11-20 7-6-4-18 5-27 18-9 14-26 28-36 31-12 4-19 14-17 23 2 13 13 16 46 14 48-4 50 1 22 43-20 30-26 66-14 78 4 3 18-3 32-13 13-11 33-20 43-20zm-1901-74c0-31 4-55 9-52 7 5 3 96-5 105-2 2-4-21-4-53zm358 4c3-35 8-50 18-50s14 14 14 50c0 41-3 50-17 50-15 0-17-8-15-50zM77 563c-4-7-6-136-5-287L75 0h175v356l-34 12c-74 27-115 81-126 162-3 26-8 40-13 33zm2253-28c0-14 4-25 9-25 4 0 6 11 3 25-2 14-6 25-8 25s-4-11-4-25zM884 369c-4-8-28-10-70-6l-64 6V-1l73 3 72 3v188c0 103-1 187-2 187l-9-11zm501-9-50-5-3-178-2-177h99l-6 86c-4 51-1 118 7 167 17 111 16 113-45 107z" />
  </g>
</svg>