<svg xmlns="http://www.w3.org/2000/svg" id="root" viewBox="0 0 100 57">
  <g>
    <path
      style="stroke: none; fill-rule: nonzero; fill: rgb(94.117647%, 97.254902%, 89.019608%); fill-opacity: 1"
      d="M 0.0117188 55.523438 C 0.0390625 54.609375 0.0976562 54.371094 0.246094 54.785156 C 0.363281 55.109375 0.421875 55.464844 0.363281 55.554688 C 0.304688 55.640625 0.601562 55.90625 0.984375 56.113281 C 1.957031 56.644531 1.898438 56.941406 0.835938 56.882812 C 0.0117188 56.851562 -0.0195312 56.792969 0.0117188 55.523438 Z M 98.550781 56.320312 C 99.140625 55.964844 99.554688 55.492188 99.496094 55.316406 C 99.40625 55.109375 99.496094 54.933594 99.671875 54.933594 C 99.847656 54.933594 99.996094 55.40625 99.996094 55.964844 C 99.996094 57 99.96875 57 98.757812 57 L 97.488281 57 Z M 11.34375 54.550781 C 9.570312 51.804688 6.914062 46.429688 5.851562 43.503906 C 3.550781 37.125 2.667969 32.371094 2.429688 25.109375 C 2.136719 16.898438 3.257812 9.753906 5.824219 3.050781 C 6.828125 0.507812 7.328125 -0.167969 8.066406 0.125 C 8.449219 0.273438 8.480469 0.421875 8.214844 0.921875 C 8.039062 1.246094 7.625 2.222656 7.359375 3.050781 C 7.0625 3.90625 6.621094 5.175781 6.355469 5.914062 C 5.558594 8.15625 4.4375 13 4.054688 15.804688 C 3.550781 19.261719 3.550781 27.765625 4.023438 31.160156 C 5.261719 39.726562 9.160156 49.914062 13.320312 55.316406 L 14.175781 56.410156 L 13.320312 56.410156 C 12.640625 56.378906 12.316406 56.085938 11.34375 54.550781 Z M 26.6875 54.285156 C 21.082031 48.140625 16.863281 39.785156 15.414062 31.988281 C 15.148438 30.542969 14.855469 27.261719 14.796875 24.664062 C 14.589844 18.167969 15.328125 13.089844 17.097656 8.421875 C 17.394531 7.597656 17.660156 6.828125 17.660156 6.710938 C 17.660156 6.386719 20.285156 1.101562 20.726562 0.507812 C 20.964844 0.214844 21.40625 0.0078125 21.761719 0.0664062 C 22.320312 0.15625 22.292969 0.273438 21.289062 2.222656 C 18.484375 7.773438 17.039062 12.234375 16.332031 17.578125 C 14.855469 28.886719 17.511719 39.753906 24.0625 49.085938 C 24.949219 50.355469 25.832031 51.566406 26.011719 51.742188 C 26.214844 51.949219 27.277344 53.101562 28.402344 54.285156 L 30.4375 56.410156 L 29.523438 56.410156 C 28.785156 56.410156 28.28125 56.054688 26.6875 54.285156 Z M 89.667969 56.203125 C 89.667969 56.085938 90.167969 55.523438 90.789062 54.960938 C 93.269531 52.570312 95.953125 49.054688 98.492188 44.894531 L 99.109375 43.859375 L 99.109375 45.070312 C 99.109375 45.984375 98.816406 46.722656 97.902344 48.140625 C 95.273438 52.214844 91.46875 56.410156 90.375 56.410156 C 89.992188 56.410156 89.667969 56.320312 89.667969 56.203125 Z M 53.132812 55.492188 C 47.347656 54.222656 43.777344 52.453125 38.640625 48.316406 C 36.695312 46.753906 33.152344 42.558594 31.617188 40.019531 C 28.015625 34.027344 26.511719 26.199219 27.515625 18.964844 C 28.105469 14.742188 28.992188 11.90625 30.96875 7.980469 C 31.824219 6.269531 32.503906 4.703125 32.472656 4.527344 C 32.355469 3.90625 33.535156 4.082031 33.890625 4.703125 C 34.242188 5.410156 34.273438 7.683594 33.917969 7.683594 C 33.773438 7.683594 33.566406 7.449219 33.476562 7.183594 C 33.210938 6.535156 32.945312 6.859375 31.589844 9.605469 C 29.109375 14.683594 28.015625 20.648438 28.578125 26.4375 C 28.753906 28.0625 28.992188 29.863281 29.136719 30.421875 C 29.875 33.433594 30.554688 35.265625 31.765625 37.65625 C 36.871094 47.609375 45.871094 53.691406 57.234375 54.933594 C 60.183594 55.226562 63.019531 55.023438 66.972656 54.195312 C 69.214844 53.75 73.582031 52.097656 74.585938 51.332031 C 74.96875 51.035156 75.414062 50.796875 75.5625 50.796875 C 76.0625 50.796875 80.371094 47.460938 81.996094 45.808594 C 84.652344 43.121094 87.453125 39.164062 88.015625 37.304688 C 88.191406 36.773438 88.132812 36.652344 87.777344 36.800781 C 87.425781 36.917969 87.304688 36.800781 87.304688 36.359375 C 87.304688 35.621094 88.308594 35.148438 89.84375 35.148438 C 90.554688 35.148438 90.847656 35.296875 90.847656 35.589844 C 90.847656 35.828125 90.671875 36.035156 90.464844 36.035156 C 90.257812 36.035156 89.519531 37.125 88.839844 38.484375 C 85.152344 45.71875 78.777344 51.300781 70.78125 54.34375 C 66.058594 56.113281 58.207031 56.644531 53.132812 55.492188 Z M 53.132812 55.492188 "
    />
    <path
      style="stroke: none; fill-rule: nonzero; fill: rgb(94.117647%, 97.254902%, 89.019608%); fill-opacity: 1"
      d="M 58.5625 47.785156 C 58.238281 46.546875 58.355469 45.484375 58.828125 45.484375 C 59.0625 45.484375 59.269531 45.691406 59.269531 45.925781 C 59.269531 46.25 59.652344 46.371094 60.863281 46.371094 C 62.664062 46.371094 66.914062 45.570312 67.472656 45.128906 C 67.652344 44.953125 67.828125 44.894531 67.828125 44.980469 C 67.828125 45.070312 68.773438 44.6875 69.953125 44.125 C 72.285156 42.972656 75.265625 40.789062 75 40.375 C 74.910156 40.226562 74.585938 40.40625 74.292969 40.730469 C 73.582031 41.496094 73.4375 41.496094 73.4375 40.789062 C 73.4375 40.316406 73.703125 40.167969 74.734375 40.019531 C 76.386719 39.753906 77.273438 40.050781 77.273438 40.816406 C 77.273438 41.140625 77.125 41.347656 76.917969 41.261719 C 76.710938 41.203125 76.03125 41.527344 75.414062 42.027344 C 71.105469 45.394531 66.855469 47.136719 62.074219 47.460938 C 60.242188 47.578125 59.566406 47.757812 59.566406 48.023438 C 59.566406 48.703125 58.769531 48.496094 58.5625 47.785156 Z M 58.976562 39.578125 C 58.976562 38.308594 59.0625 38.101562 59.566406 38.101562 C 59.890625 38.101562 60.15625 38.308594 60.15625 38.542969 C 60.15625 38.839844 60.449219 38.988281 60.980469 38.988281 C 61.777344 38.988281 63.046875 38.394531 62.308594 38.394531 C 62.101562 38.394531 61.925781 38.25 61.925781 38.070312 C 61.925781 37.746094 62.871094 37.804688 65.113281 38.277344 C 67.121094 38.691406 65.203125 39.726562 61.808594 40.078125 C 60.773438 40.167969 59.917969 40.433594 59.773438 40.640625 C 59.300781 41.46875 58.976562 41.023438 58.976562 39.578125 Z M 39.792969 38.128906 C 39.792969 37.984375 39.96875 37.804688 40.175781 37.71875 C 40.441406 37.628906 40.382812 37.332031 39.96875 36.59375 C 37.164062 31.515625 36.308594 28.445312 36.191406 22.804688 C 36.101562 19.203125 36.101562 19.203125 36.78125 19.203125 C 38.082031 19.203125 38.613281 19.734375 38.613281 20.972656 C 38.613281 21.859375 38.492188 22.15625 38.140625 22.15625 C 37.785156 22.15625 37.695312 21.976562 37.84375 21.359375 C 37.992188 20.648438 37.992188 20.589844 37.695312 21.09375 C 37.253906 21.832031 37.519531 26.703125 38.140625 28.945312 C 39.171875 32.816406 41.296875 36.949219 42.09375 36.683594 C 42.625 36.507812 42.535156 38.011719 41.976562 38.21875 C 41.269531 38.484375 39.792969 38.425781 39.792969 38.128906 Z M 45.960938 33.554688 C 46.226562 33.230469 46.078125 32.695312 45.253906 31.132812 C 44.691406 30.011719 44.128906 28.652344 44.042969 28.089844 C 43.925781 27.46875 43.628906 27.058594 43.304688 26.96875 C 42.242188 26.671875 42.683594 25.992188 43.925781 25.992188 C 44.988281 25.992188 45.105469 26.082031 45.105469 26.730469 C 45.105469 27.410156 45.398438 27.824219 46.699219 28.886719 C 46.964844 29.09375 47.171875 29.539062 47.171875 29.863281 C 47.171875 30.363281 47.082031 30.394531 46.550781 30.097656 C 45.929688 29.773438 45.929688 29.773438 46.609375 30.984375 C 47.109375 31.929688 47.347656 32.105469 47.671875 31.871094 C 47.96875 31.605469 48.054688 31.691406 48.054688 32.285156 C 48.054688 33.613281 47.761719 33.96875 46.667969 33.96875 C 45.8125 33.96875 45.695312 33.90625 45.960938 33.554688 Z M 90.167969 31.101562 C 90.050781 31.015625 89.960938 30.601562 89.960938 30.246094 C 89.960938 29.773438 90.082031 29.597656 90.375 29.714844 C 91.46875 30.128906 91.378906 19.230469 90.257812 15.214844 C 88.929688 10.433594 85.859375 5.027344 82.4375 1.453125 L 81.050781 0.0078125 L 81.933594 0.0078125 C 82.585938 0.0078125 83.085938 0.332031 83.941406 1.277344 C 86.332031 3.933594 87.128906 5.117188 88.722656 8.128906 C 91.230469 12.941406 92.027344 16.132812 92.234375 21.859375 C 92.324219 24.546875 92.265625 27.292969 92.085938 28.472656 C 91.851562 29.949219 91.851562 30.660156 92.085938 30.925781 C 92.324219 31.21875 92.175781 31.308594 91.378906 31.308594 C 90.820312 31.308594 90.257812 31.21875 90.167969 31.101562 Z M 66.648438 24.8125 C 66.648438 24.488281 66.855469 24.222656 67.089844 24.222656 C 67.386719 24.222656 67.535156 23.957031 67.503906 23.425781 C 67.472656 22.507812 67.03125 20.886719 66.972656 21.503906 C 66.914062 22.242188 66.351562 21.832031 66.351562 21.0625 C 66.351562 19.851562 66.675781 18.90625 67.0625 18.90625 C 67.5625 18.90625 68.417969 21.296875 68.625 23.160156 C 68.714844 24.074219 68.921875 24.8125 69.039062 24.8125 C 69.1875 24.8125 69.304688 24.960938 69.304688 25.109375 C 69.304688 25.285156 68.714844 25.402344 67.976562 25.402344 C 66.855469 25.402344 66.648438 25.316406 66.648438 24.8125 Z M 70.191406 24.988281 C 70.191406 24.722656 70.394531 24.515625 70.632812 24.515625 C 71.164062 24.515625 71.222656 23.160156 70.75 20.914062 C 70.308594 18.964844 68.269531 15.570312 67.976562 16.335938 C 67.5625 17.371094 67.238281 16.78125 67.238281 15.066406 C 67.238281 13.679688 67.328125 13.296875 67.679688 13.296875 C 67.917969 13.296875 68.125 13.503906 68.125 13.738281 C 68.125 13.976562 68.566406 14.683594 69.128906 15.273438 C 71.015625 17.371094 72.253906 20.5 72.253906 23.101562 C 72.253906 23.925781 72.375 24.222656 72.726562 24.222656 C 72.992188 24.222656 73.140625 24.429688 73.082031 24.753906 C 72.964844 25.460938 70.191406 25.667969 70.191406 24.988281 Z M 70.191406 24.988281 "
    />
    <path
      style="stroke: none; fill-rule: nonzero; fill: rgb(94.117647%, 97.254902%, 89.019608%); fill-opacity: 1"
      d="M 82.464844 23.277344 C 82.199219 22.921875 81.996094 22.242188 81.996094 21.769531 C 81.996094 21.03125 82.054688 20.945312 82.4375 21.269531 C 82.820312 21.59375 82.851562 21.503906 82.703125 20.648438 C 81.699219 15.097656 79.574219 10.875 76.0625 7.359375 C 72.136719 3.460938 67.179688 1.246094 61.070312 0.714844 C 58.5625 0.480469 53.871094 1.425781 51.15625 2.695312 C 49.296875 3.550781 48.644531 4.140625 50.152344 3.609375 C 51.035156 3.285156 51.890625 3.460938 51.890625 3.964844 C 51.890625 4.40625 50.03125 4.734375 47.582031 4.734375 C 46.375 4.734375 45.988281 4.613281 45.988281 4.289062 C 45.988281 4.054688 46.195312 3.847656 46.433594 3.847656 C 46.667969 3.847656 46.875 3.726562 46.875 3.609375 C 46.875 2.988281 51.566406 0.835938 54.015625 0.332031 C 56.261719 -0.167969 64.730469 -0.0820312 66.738281 0.449219 C 71.902344 1.78125 77.125 5.617188 80.046875 10.195312 C 82.320312 13.679688 83.617188 17.488281 84.03125 21.800781 C 84.238281 23.867188 84.207031 23.925781 83.589844 23.925781 C 83.203125 23.925781 82.703125 23.632812 82.464844 23.277344 Z M 82.464844 23.277344 "
    />
    <path
      style="stroke: none; fill-rule: nonzero; fill: rgb(94.117647%, 97.254902%, 89.019608%); fill-opacity: 1"
      d="M 74.851562 23.425781 C 75.765625 23.070312 74.851562 18.699219 73.230469 15.777344 C 71.722656 13.089844 68.476562 10.402344 65.203125 9.101562 C 63.226562 8.335938 58.738281 8.039062 56.671875 8.570312 C 54.933594 8.984375 51.890625 10.34375 51.890625 10.667969 C 51.890625 10.816406 51.773438 10.933594 51.597656 10.933594 C 51.183594 10.933594 51.214844 9.074219 51.65625 8.128906 C 52.011719 7.332031 53.191406 7.035156 52.894531 7.832031 C 52.660156 8.421875 53.074219 8.394531 55.078125 7.65625 C 57.558594 6.769531 62.339844 6.800781 65.085938 7.714844 C 70.515625 9.546875 75.058594 14.535156 76.121094 19.910156 C 76.417969 21.238281 76.535156 21.503906 76.859375 21.238281 C 77.183594 20.972656 77.273438 21.0625 77.273438 21.800781 C 77.273438 22.980469 76.59375 23.632812 75.414062 23.601562 C 74.882812 23.601562 74.644531 23.511719 74.851562 23.425781 Z M 74.851562 23.425781 "
    />
    <path
      style="stroke: none; fill-rule: nonzero; fill: rgb(94.117647%, 97.254902%, 89.019608%); fill-opacity: 1"
      d="M 54.015625 18.257812 C 53.808594 18.050781 53.664062 17.519531 53.664062 17.015625 C 53.664062 16.335938 53.75 16.21875 54.015625 16.484375 C 54.28125 16.75 54.460938 16.75 54.8125 16.425781 C 55.285156 16.011719 57.882812 15.007812 59.359375 14.65625 C 60.066406 14.476562 60.15625 14.535156 60.15625 15.1875 C 60.15625 16.132812 58.945312 17.429688 58.089844 17.429688 C 57.527344 17.429688 57.5 17.371094 57.792969 16.988281 C 58.089844 16.632812 58.089844 16.542969 57.765625 16.542969 C 57.117188 16.542969 55.226562 17.8125 55.667969 17.933594 C 55.847656 18.019531 56.023438 18.199219 56.023438 18.34375 C 56.023438 18.730469 54.429688 18.671875 54.015625 18.257812 Z M 51.890625 14.800781 C 51.566406 14.183594 51.480469 12.410156 51.773438 12.410156 C 51.890625 12.410156 52.15625 12.644531 52.363281 12.941406 C 52.628906 13.265625 52.835938 13.324219 52.984375 13.117188 C 53.75 12.027344 56.851562 11.199219 60.007812 11.257812 C 64.023438 11.316406 63.992188 11.316406 63.992188 11.996094 C 63.992188 12.851562 63.429688 13.296875 62.28125 13.296875 C 61.394531 13.296875 61.304688 13.238281 61.632812 12.851562 C 61.957031 12.46875 61.691406 12.410156 59.652344 12.410156 C 57.527344 12.410156 57.058594 12.527344 55.167969 13.472656 C 53.691406 14.210938 53.074219 14.65625 53.191406 14.949219 C 53.425781 15.597656 52.246094 15.453125 51.890625 14.800781 Z M 98.285156 1.574219 C 97.902344 0.835938 97.753906 0.332031 97.929688 0.449219 C 98.316406 0.6875 99.171875 2.339844 99.050781 2.664062 C 98.992188 2.785156 98.667969 2.3125 98.285156 1.574219 Z M 35.304688 2.164062 C 34.597656 1.984375 34.597656 0.894531 35.304688 0.894531 C 35.601562 0.894531 36.101562 0.6875 36.429688 0.449219 C 36.722656 0.214844 37.285156 0.0078125 37.667969 0.0078125 C 38.316406 0.0078125 38.316406 0.0078125 37.816406 0.804688 C 37.429688 1.367188 37.402344 1.632812 37.667969 1.71875 C 37.84375 1.78125 38.023438 1.957031 38.023438 2.105469 C 38.023438 2.371094 36.25 2.429688 35.304688 2.164062 Z M 35.304688 2.164062 "
    />
    <path
      style="stroke: none; fill-rule: nonzero; fill: rgb(87.058824%, 83.137255%, 63.921569%); fill-opacity: 1"
      d="M 56.171875 51.476562 C 55.523438 51.035156 54.84375 50.472656 54.636719 50.238281 C 54.3125 49.824219 54.28125 49.855469 54.253906 50.414062 C 54.253906 51.535156 53.425781 52.039062 51.921875 51.863281 C 46.460938 51.242188 45.84375 50.976562 42.683594 47.847656 C 40.292969 45.453125 39.878906 44.539062 40.824219 43.59375 C 41.355469 43.089844 41.328125 43.0625 39.261719 42.382812 C 38.199219 42.058594 37.578125 41.644531 37.371094 41.203125 C 36.898438 40.136719 37.285156 39.105469 38.375 38.660156 C 41.238281 37.511719 45.429688 34.4375 47.554688 32.019531 L 48.351562 31.074219 L 46.460938 30.011719 C 44.601562 28.976562 44.21875 28.535156 44.21875 27.441406 C 44.21875 26.996094 44.011719 26.878906 43.214844 26.878906 C 42.152344 26.878906 41.296875 26.320312 38.9375 23.984375 C 37.816406 22.835938 37.667969 22.570312 37.816406 21.710938 C 37.960938 20.855469 37.875 20.679688 37.195312 20.414062 C 36.753906 20.207031 36.015625 19.617188 35.570312 19.054688 C 33.300781 16.21875 33.328125 13.03125 35.601562 12.972656 C 36.339844 12.972656 36.308594 12.941406 35.277344 12.5 C 34.097656 12.027344 34.007812 11.820312 33.800781 9.160156 C 33.710938 8.277344 33.445312 7.007812 33.210938 6.355469 C 32.945312 5.707031 32.53125 4.585938 32.238281 3.847656 C 31.589844 2.132812 31.824219 0.980469 32.914062 0.714844 C 33.683594 0.507812 34.332031 0.65625 40.53125 2.636719 C 44.042969 3.757812 47.316406 4.054688 50.625 3.582031 C 51.921875 3.402344 53.191406 3.316406 53.457031 3.433594 C 54.402344 3.789062 54.402344 5 53.425781 6.917969 C 52.925781 7.890625 52.335938 9.339844 52.128906 10.105469 C 51.804688 11.347656 51.863281 11.640625 52.480469 13.238281 C 53.367188 15.421875 54.402344 16.988281 55.609375 17.933594 L 56.554688 18.640625 L 57.382812 17.402344 C 58.445312 15.835938 61.367188 12.972656 63.078125 11.820312 C 64.554688 10.816406 66.589844 10.609375 67.328125 11.375 C 68.449219 12.46875 68.125 18.523438 66.765625 22.007812 L 66.085938 23.777344 L 67.03125 24.191406 C 68.183594 24.695312 70.335938 24.722656 72.609375 24.25 C 74.027344 23.957031 74.527344 23.660156 75.738281 22.421875 C 76.535156 21.625 77.480469 20.292969 77.863281 19.46875 C 78.570312 17.960938 79.339844 17.488281 80.429688 17.84375 C 80.726562 17.933594 81.316406 18.789062 81.757812 19.703125 C 82.703125 21.710938 85.152344 25.226562 86.363281 26.289062 C 88.457031 28.121094 89.105469 28.679688 91.585938 30.570312 C 94.566406 32.84375 94.683594 32.960938 94.683594 33.878906 C 94.683594 34.910156 93.945312 35.355469 91.675781 35.738281 C 89.195312 36.152344 87.925781 36.625 86.363281 37.71875 C 85.269531 38.457031 84.414062 38.515625 83.117188 37.984375 C 82.730469 37.804688 82.671875 37.894531 82.792969 38.367188 C 83.085938 39.460938 82.644531 40.316406 81.550781 40.847656 C 80.105469 41.527344 77.125 41.527344 75.738281 40.816406 C 74.703125 40.285156 74.644531 40.285156 74.203125 40.816406 C 73.90625 41.140625 73.347656 41.347656 72.640625 41.347656 C 71.105469 41.347656 67.5625 40.316406 66.824219 39.636719 C 66.382812 39.222656 65.910156 39.105469 65.144531 39.195312 C 64.347656 39.3125 63.609375 39.105469 62.28125 38.425781 L 60.480469 37.511719 L 60.183594 38.484375 C 59.535156 40.464844 59.242188 45.097656 59.535156 47.992188 C 59.949219 51.476562 59.949219 51.269531 59.386719 51.804688 C 58.710938 52.511719 57.5 52.363281 56.171875 51.476562 Z M 51.804688 47.933594 C 51.714844 47.640625 51.65625 47.875 51.65625 48.4375 C 51.65625 48.996094 51.714844 49.234375 51.804688 48.96875 C 51.863281 48.671875 51.863281 48.199219 51.804688 47.933594 Z M 48.703125 46.988281 L 48.792969 45.277344 L 47.554688 46.308594 C 46.84375 46.871094 46.285156 47.375 46.285156 47.402344 C 46.285156 47.550781 48.171875 48.730469 48.410156 48.730469 C 48.5 48.730469 48.644531 47.964844 48.703125 46.988281 Z M 57.589844 37.804688 C 58.472656 34.617188 58.53125 34.558594 59.917969 34.558594 C 60.628906 34.558594 61.570312 34.792969 62.101562 35.117188 C 62.605469 35.414062 63.285156 35.769531 63.636719 35.855469 C 64.257812 36.0625 64.257812 36.003906 64.082031 34.113281 L 63.902344 32.164062 L 65.203125 32.253906 C 66.472656 32.34375 66.5 32.371094 67.089844 33.96875 C 68.300781 37.246094 68.773438 37.746094 71.28125 38.515625 L 71.902344 38.722656 L 71.339844 36.890625 C 71.046875 35.914062 70.78125 34.4375 70.78125 33.640625 L 70.78125 32.164062 L 71.84375 32.253906 C 72.84375 32.34375 72.964844 32.460938 73.554688 33.96875 C 74.675781 36.859375 77.714844 39.371094 79.367188 38.722656 C 79.871094 38.542969 79.574219 37.71875 77.214844 32.933594 C 76.917969 32.285156 76.5625 30.984375 76.476562 30.070312 L 76.296875 28.355469 L 77.300781 28.355469 C 78.21875 28.386719 78.421875 28.5625 79.78125 30.660156 C 80.726562 32.105469 81.847656 33.375 82.878906 34.144531 L 84.503906 35.382812 L 85.976562 34.617188 C 86.773438 34.203125 88.101562 33.730469 88.929688 33.554688 L 90.375 33.230469 L 88.78125 32.078125 C 86.066406 30.128906 83.558594 27.796875 82.464844 26.199219 C 81.875 25.34375 81.050781 24.105469 80.546875 23.425781 L 79.691406 22.15625 L 79.191406 22.921875 C 78.484375 23.984375 76.769531 25.640625 75.828125 26.113281 C 74.882812 26.613281 71.339844 27.175781 69.214844 27.175781 C 67.269531 27.175781 63.816406 26.171875 63.578125 25.519531 C 63.195312 24.546875 63.429688 22.980469 64.257812 20.886719 C 65.171875 18.582031 65.820312 13.886719 65.230469 13.886719 C 64.640625 13.886719 60.597656 17.875 59.535156 19.527344 C 58.414062 21.269531 57.972656 21.5625 56.644531 21.5625 C 54.605469 21.5625 52.246094 19.351562 50.59375 15.894531 C 49.648438 13.917969 49.53125 13.445312 49.53125 11.257812 C 49.53125 9.929688 49.648438 8.601562 49.796875 8.335938 C 49.914062 8.070312 50.121094 7.480469 50.238281 7.035156 L 50.417969 6.207031 L 46.964844 6.207031 C 43.332031 6.207031 40.292969 5.675781 37.105469 4.464844 C 36.25 4.140625 35.511719 3.90625 35.453125 3.933594 C 35.425781 3.996094 35.570312 4.671875 35.808594 5.46875 C 36.042969 6.238281 36.25 7.566406 36.25 8.394531 L 36.25 9.898438 L 38.554688 10.726562 C 40.472656 11.40625 41.328125 11.523438 43.863281 11.523438 L 46.875 11.523438 L 46.875 12.5 C 46.875 13.382812 46.757812 13.53125 45.753906 13.828125 C 45.164062 14.003906 42.832031 14.449219 40.617188 14.800781 C 36.191406 15.511719 36.308594 15.421875 37.785156 17.195312 C 38.699219 18.226562 41.121094 18.9375 42.65625 18.582031 C 43.273438 18.433594 44.425781 18.316406 45.191406 18.316406 L 46.609375 18.316406 L 46.519531 19.4375 C 46.433594 20.53125 46.433594 20.53125 43.925781 21.417969 L 41.414062 22.300781 L 43.953125 24.605469 L 46.078125 24.132812 C 47.257812 23.839844 48.703125 23.632812 49.324219 23.632812 C 50.445312 23.632812 50.445312 23.632812 50.359375 24.722656 C 50.269531 25.699219 50.09375 25.933594 49.117188 26.4375 C 48.5 26.761719 47.996094 27.175781 48.027344 27.324219 C 48.054688 27.5 48.824219 28.03125 49.765625 28.535156 C 51.300781 29.359375 51.449219 29.539062 51.539062 30.511719 C 51.597656 31.339844 51.421875 31.871094 50.800781 32.695312 C 48.941406 35.175781 44.839844 38.691406 42.535156 39.785156 L 41.445312 40.285156 L 42.476562 40.550781 C 43.332031 40.757812 43.777344 40.671875 44.957031 40.050781 C 45.753906 39.605469 46.84375 39.28125 47.496094 39.28125 L 48.644531 39.28125 L 48.644531 40.609375 C 48.644531 41.585938 48.765625 41.941406 49.089844 41.941406 C 49.355469 41.941406 49.53125 42.207031 49.53125 42.617188 C 49.53125 43.238281 49.648438 43.296875 50.625 43.179688 C 51.242188 43.089844 51.890625 42.855469 52.039062 42.617188 C 52.246094 42.351562 52.746094 42.234375 53.367188 42.292969 C 54.339844 42.382812 54.371094 42.414062 54.695312 44.214844 C 54.902344 45.394531 55.316406 46.398438 55.90625 47.167969 L 56.761719 48.289062 L 56.96875 43.859375 C 57.058594 41.4375 57.351562 38.691406 57.589844 37.804688 Z M 57.589844 37.804688 "
    />
    <path
      d="M 56.703125 49.734375 C 54.871094 48.230469 54.164062 47.078125 53.808594 45.070312 C 53.632812 44.066406 53.367188 43.296875 53.191406 43.328125 C 53.042969 43.386719 52.894531 45.011719 52.835938 46.960938 C 52.746094 50.679688 52.746094 50.679688 51.332031 50.296875 C 50.652344 50.121094 50.625 50.058594 50.828125 47.726562 C 50.917969 46.398438 51.035156 45.128906 51.09375 44.894531 C 51.125 44.65625 51.035156 44.390625 50.859375 44.332031 C 50.328125 44.125 49.707031 45.867188 49.589844 47.933594 C 49.441406 50.058594 49.414062 50.089844 47.761719 49.617188 C 46.785156 49.351562 44.515625 47.726562 44.515625 47.3125 C 44.515625 47.195312 45.253906 46.515625 46.136719 45.835938 C 47.90625 44.449219 49.03125 42.824219 48.203125 42.824219 C 47.96875 42.824219 47.199219 43.328125 46.492188 43.949219 C 45.8125 44.566406 44.867188 45.367188 44.394531 45.71875 L 43.539062 46.398438 L 42.683594 45.601562 L 41.859375 44.804688 L 43.304688 43.890625 C 46.34375 41.96875 47.761719 40.90625 47.761719 40.550781 C 47.761719 39.992188 47.4375 40.078125 45.8125 40.9375 C 44.601562 41.585938 44.101562 41.675781 42.742188 41.554688 C 41.859375 41.46875 40.558594 41.171875 39.878906 40.90625 L 38.613281 40.40625 L 40.675781 39.398438 C 43.984375 37.777344 47.789062 34.617188 49.914062 31.8125 C 50.59375 30.894531 50.683594 30.601562 50.417969 30.277344 C 50.210938 30.039062 49.914062 29.832031 49.765625 29.832031 C 49.53125 29.832031 46.253906 28 45.722656 27.558594 C 45.515625 27.410156 47.554688 25.726562 47.9375 25.699219 C 48.144531 25.699219 48.585938 25.433594 48.96875 25.109375 C 49.855469 24.398438 49.414062 24.371094 47.171875 24.960938 C 46.285156 25.195312 44.957031 25.402344 44.21875 25.402344 C 43.007812 25.402344 42.742188 25.253906 41.0625 23.632812 C 40.058594 22.65625 39.320312 21.832031 39.4375 21.769531 C 39.554688 21.683594 40.941406 21.210938 42.507812 20.707031 C 44.101562 20.175781 45.457031 19.617188 45.546875 19.46875 C 45.78125 19.113281 45.398438 19.144531 43.15625 19.554688 C 40.53125 20.027344 37.933594 19.320312 36.722656 17.84375 C 35.984375 16.929688 35.160156 14.859375 35.425781 14.65625 C 35.484375 14.59375 37.429688 14.269531 39.792969 13.886719 C 42.152344 13.503906 44.542969 13.03125 45.105469 12.824219 C 46.046875 12.46875 45.902344 12.441406 43.039062 12.441406 C 40.472656 12.410156 39.585938 12.261719 37.667969 11.613281 L 35.367188 10.785156 L 35.367188 9.28125 C 35.367188 7.625 34.714844 5.203125 33.832031 3.460938 C 33.507812 2.8125 33.300781 2.25 33.386719 2.191406 C 33.445312 2.132812 35.277344 2.664062 37.460938 3.375 C 42.949219 5.203125 44.484375 5.441406 48.824219 5.234375 C 50.828125 5.144531 52.480469 5.175781 52.480469 5.292969 C 52.480469 5.441406 52.304688 5.707031 52.070312 5.882812 C 51.421875 6.414062 50.417969 9.8125 50.417969 11.40625 C 50.417969 14.890625 55.109375 21.238281 57.117188 20.472656 C 57.351562 20.382812 58.058594 19.554688 58.652344 18.640625 C 60.449219 15.863281 64.492188 12.410156 65.941406 12.410156 C 66.382812 12.410156 66.410156 12.734375 66.265625 15.894531 C 66.117188 18.847656 65.941406 19.734375 65.171875 21.683594 C 64.671875 22.980469 64.347656 24.222656 64.433594 24.546875 C 64.554688 24.929688 65.289062 25.316406 66.738281 25.726562 C 68.65625 26.320312 69.007812 26.347656 71.457031 26.023438 C 72.90625 25.847656 74.46875 25.492188 74.941406 25.253906 C 76.238281 24.578125 78.097656 22.539062 78.953125 20.886719 L 79.691406 19.410156 L 80.636719 21.0625 C 83.382812 26.054688 85.507812 28.238281 92.351562 33.257812 L 93.207031 33.878906 L 90.9375 34.261719 C 88.722656 34.617188 86.242188 35.589844 85.183594 36.535156 C 84.710938 36.949219 84.53125 36.890625 83.117188 35.855469 C 80.667969 34.113281 80.222656 33.671875 78.6875 31.308594 C 77.566406 29.65625 77.273438 29.300781 77.390625 29.980469 C 77.507812 30.480469 77.773438 31.28125 78.011719 31.753906 C 79.277344 34.4375 81.402344 39.046875 81.402344 39.164062 C 81.402344 39.222656 80.871094 39.398438 80.253906 39.605469 C 76.890625 40.609375 74.261719 38.691406 72.167969 33.671875 C 71.578125 32.222656 71.578125 33.90625 72.195312 35.976562 C 72.519531 37.066406 72.875 38.394531 72.992188 38.957031 L 73.199219 39.960938 L 72.078125 39.753906 C 71.429688 39.636719 70.277344 39.339844 69.480469 39.074219 C 67.917969 38.574219 67.238281 37.71875 66.207031 34.882812 C 65.320312 32.460938 64.9375 32.636719 65.113281 35.441406 C 65.171875 36.742188 65.144531 37.804688 64.996094 37.804688 C 64.847656 37.804688 63.695312 37.273438 62.398438 36.59375 C 61.128906 35.945312 59.917969 35.472656 59.742188 35.53125 C 59.269531 35.710938 58.472656 38.335938 58.058594 41.054688 C 57.734375 43.210938 57.855469 49.234375 58.265625 50.296875 C 58.5625 51.066406 58.058594 50.886719 56.703125 49.734375 Z M 56.703125 49.734375 "
    />
  </g>
</svg>
