<svg xmlns="http://www.w3.org/2000/svg" id="root" viewBox="0 0 100 122">
  <g>
    <path
      d="M 0 106.53125 L 0 91.0625 L 0.722656 90.394531 L 1.449219 89.726562 L 10.773438 89.726562 C 15.894531 89.726562 21.484375 89.765625 23.199219 89.808594 L 26.320312 89.890625 L 26.601562 90.15625 C 27.308594 90.832031 28.929688 93.597656 30.851562 97.402344 C 33.988281 103.625 35.242188 106.96875 36.175781 111.558594 C 37.015625 115.675781 37.132812 118.476562 36.574219 120.804688 L 36.300781 121.957031 L 18.148438 121.984375 L 0 122 Z M 4.207031 96.949219 C 4.972656 96.320312 6.429688 94.5625 6.902344 93.679688 C 7.105469 93.308594 7.128906 93.191406 7.046875 93.125 C 6.855469 92.96875 5.898438 92.863281 4.699219 92.871094 C 3.320312 92.871094 2.8125 92.945312 2.511719 93.167969 C 2.3125 93.324219 2.289062 93.382812 2.296875 93.820312 C 2.3125 94.316406 3.078125 96.988281 3.269531 97.21875 C 3.410156 97.394531 3.800781 97.277344 4.207031 96.949219 Z M 14.175781 97.03125 C 15.195312 96.015625 16.820312 93.570312 16.6875 93.234375 C 16.628906 93.078125 16.027344 92.96875 14.625 92.863281 C 13.191406 92.746094 11.269531 92.78125 11.003906 92.929688 C 10.371094 93.273438 10.695312 94.050781 12.351562 96.105469 C 13.042969 96.964844 13.441406 97.320312 13.742188 97.320312 C 13.824219 97.320312 14.015625 97.1875 14.175781 97.03125 Z M 24.621094 96.832031 C 25.054688 96.15625 25.621094 94.273438 25.621094 93.488281 C 25.621094 92.929688 25.59375 92.929688 23.214844 92.960938 C 20.988281 93.003906 20.546875 93.066406 20.546875 93.355469 C 20.546875 93.804688 22.601562 96.179688 23.707031 97.015625 C 24.140625 97.34375 24.3125 97.304688 24.621094 96.832031 Z M 51.570312 119.796875 C 51.265625 118.714844 51.304688 117.433594 51.707031 115.644531 C 52.34375 112.796875 54 109.132812 55.289062 107.710938 C 55.707031 107.257812 55.996094 107.183594 57.445312 107.191406 C 58.824219 107.199219 59.308594 107.300781 59.308594 107.5625 C 59.308594 107.652344 58.96875 108.324219 58.542969 109.066406 C 57.171875 111.476562 55.28125 115.378906 55.175781 116 C 55.066406 116.660156 55.855469 116.832031 58.667969 116.785156 C 60.488281 116.75 60.621094 116.742188 61.003906 116.550781 C 61.335938 116.394531 61.445312 116.289062 61.605469 115.941406 C 61.703125 115.710938 61.828125 115.257812 61.878906 114.933594 C 62.167969 113.035156 63.476562 109.140625 64.289062 107.769531 L 64.671875 107.117188 L 68.65625 107.175781 C 70.851562 107.199219 77.78125 107.226562 84.0625 107.226562 L 95.492188 107.226562 L 95.949219 107.785156 C 97.796875 109.988281 99.675781 115.40625 99.949219 119.300781 L 100 120.101562 L 51.664062 120.101562 Z M 74.148438 116.949219 C 74.347656 116.890625 74.65625 116.683594 74.878906 116.46875 C 75.792969 115.59375 75.660156 114.175781 74.597656 113.441406 C 74.28125 113.234375 74.1875 113.210938 73.53125 113.210938 C 72.882812 113.210938 72.773438 113.234375 72.457031 113.441406 C 71.417969 114.125 71.253906 115.488281 72.109375 116.394531 C 72.675781 116.996094 73.347656 117.179688 74.148438 116.949219 Z M 82.007812 112.648438 C 82.714844 112.183594 83.046875 111.34375 82.847656 110.519531 C 82.714844 109.964844 82.066406 109.273438 81.558594 109.132812 C 80.226562 108.769531 78.980469 109.667969 78.996094 110.980469 C 79.003906 111.582031 79.171875 111.996094 79.570312 112.390625 C 80.011719 112.828125 80.292969 112.929688 81.027344 112.902344 C 81.550781 112.878906 81.707031 112.847656 82.007812 112.648438 Z M 77.125 111.664062 C 77.800781 111.152344 77.964844 110.164062 77.492188 109.453125 C 77.191406 109 76.5 108.667969 76.011719 108.742188 C 75.496094 108.824219 75.054688 109.089844 74.804688 109.46875 C 74.605469 109.757812 74.570312 109.898438 74.570312 110.359375 C 74.570312 110.824219 74.605469 110.964844 74.796875 111.253906 C 75.136719 111.765625 75.519531 111.9375 76.242188 111.90625 C 76.734375 111.886719 76.882812 111.847656 77.125 111.664062 Z M 58.328125 104.832031 C 57.894531 104.730469 57.835938 104.625 58.011719 104.292969 C 58.5 103.394531 63.101562 99.566406 65.738281 97.863281 C 67.308594 96.839844 67.183594 96.882812 69.414062 96.839844 C 70.472656 96.824219 72.085938 96.832031 73.015625 96.867188 L 74.695312 96.921875 L 74.695312 104.730469 L 73.597656 104.78125 C 70.046875 104.929688 66.445312 104.898438 66.136719 104.707031 C 66.011719 104.632812 66.210938 104.179688 66.660156 103.5 C 67.417969 102.371094 67.542969 101.957031 67.167969 101.792969 C 67.042969 101.734375 66.535156 101.695312 65.945312 101.695312 C 64.558594 101.695312 64.507812 101.71875 62.75 103.484375 L 61.335938 104.914062 L 59.964844 104.90625 C 59.214844 104.898438 58.476562 104.863281 58.328125 104.832031 Z M 77.574219 104.78125 C 77.382812 104.300781 77.292969 97.113281 77.464844 96.929688 C 77.5 96.90625 78.847656 96.875 80.460938 96.875 C 82.691406 96.867188 83.464844 96.890625 83.695312 96.972656 C 84.054688 97.097656 87.589844 99.433594 88.460938 100.117188 C 90.550781 101.753906 93.386719 104.367188 93.3125 104.589844 C 93.289062 104.65625 93.085938 104.730469 92.820312 104.773438 C 92.570312 104.804688 89.054688 104.855469 85.003906 104.878906 C 77.847656 104.929688 77.632812 104.929688 77.574219 104.78125 Z M 67.710938 91.210938 L 67.710938 88.058594 L 69.457031 88.109375 C 70.421875 88.132812 71.992188 88.183594 72.949219 88.207031 L 74.695312 88.257812 L 74.695312 94.167969 L 73.890625 94.214844 C 73.441406 94.242188 71.867188 94.289062 70.394531 94.316406 L 67.710938 94.363281 Z M 77.484375 92.84375 C 77.398438 90.683594 77.390625 88.890625 77.464844 88.628906 C 77.589844 88.191406 77.867188 88.140625 80.660156 88.089844 C 82.773438 88.058594 83.179688 88.066406 83.214844 88.164062 C 83.273438 88.347656 83.40625 93.183594 83.363281 93.664062 C 83.332031 94.074219 83.320312 94.101562 83.03125 94.191406 C 82.832031 94.257812 81.765625 94.304688 80.136719 94.324219 L 77.542969 94.363281 Z M 5.847656 87.355469 C 3.195312 87.332031 2.578125 87.308594 2.578125 87.214844 C 2.578125 87.15625 2.910156 86.09375 3.320312 84.847656 C 4.183594 82.207031 4.65625 80.621094 4.65625 80.355469 C 4.65625 80.257812 4.707031 80.132812 4.765625 80.085938 C 4.984375 79.910156 6.65625 79.886719 14.648438 79.945312 L 22.933594 80.011719 L 23.199219 81.066406 C 23.539062 82.429688 24.503906 85.308594 24.988281 86.398438 C 25.1875 86.871094 25.328125 87.265625 25.296875 87.28125 C 25.210938 87.332031 9.832031 87.398438 5.847656 87.355469 Z M 67.75 85.582031 C 67.734375 85.523438 67.625 85.101562 67.507812 84.648438 C 67.277344 83.714844 66.953125 82.800781 66.511719 81.867188 C 66.1875 81.183594 66.136719 80.859375 66.335938 80.777344 C 66.878906 80.570312 73.441406 80.511719 74.15625 80.710938 C 74.296875 80.753906 74.445312 80.867188 74.503906 80.992188 C 74.644531 81.273438 74.761719 82.511719 74.8125 84.261719 L 74.855469 85.679688 L 71.320312 85.679688 C 68.566406 85.679688 67.777344 85.65625 67.75 85.582031 Z M 78.257812 85.605469 C 77.949219 85.574219 77.648438 85.507812 77.589844 85.449219 C 77.507812 85.367188 77.484375 84.878906 77.484375 83.386719 C 77.484375 81.050781 77.507812 80.859375 77.882812 80.726562 C 78.347656 80.5625 81.515625 80.457031 83.054688 80.546875 C 84.984375 80.671875 85.128906 80.792969 84.5625 81.875 C 84.296875 82.386719 83.886719 83.585938 83.53125 84.894531 L 83.371094 85.472656 L 82.921875 85.523438 C 82.273438 85.597656 78.914062 85.65625 78.257812 85.605469 Z M 64.296875 78.261719 C 63.90625 78.226562 63.542969 78.175781 63.492188 78.144531 C 63.300781 78.027344 63.375 77.640625 63.699219 77.105469 C 64.265625 76.148438 65.539062 75.039062 66.488281 74.6875 C 67.070312 74.464844 69.105469 74.363281 72.160156 74.386719 L 74.65625 74.414062 L 74.679688 76.261719 C 74.6875 77.285156 74.671875 78.144531 74.636719 78.175781 C 74.546875 78.25 65.207031 78.324219 64.296875 78.261719 Z M 77.558594 77.164062 C 77.589844 76.511719 77.632812 75.625 77.65625 75.1875 L 77.707031 74.398438 L 79.710938 74.347656 C 83.140625 74.265625 84.195312 74.421875 85.402344 75.214844 C 86.632812 76.023438 88.054688 77.65625 87.78125 77.929688 C 87.738281 77.972656 87.457031 78.046875 87.15625 78.085938 C 86.417969 78.195312 82.082031 78.335938 79.570312 78.335938 L 77.507812 78.335938 Z M 5.5 77.433594 C 5.40625 77.375 5.390625 77.136719 5.441406 76.128906 C 5.515625 74.667969 5.804688 70.816406 5.847656 70.765625 C 5.890625 70.730469 9.074219 70.878906 9.101562 70.921875 C 9.109375 70.9375 9.089844 71.433594 9.058594 72.019531 C 9.015625 72.613281 8.957031 73.925781 8.910156 74.949219 C 8.824219 76.90625 8.757812 77.292969 8.460938 77.386719 C 8.160156 77.476562 5.621094 77.523438 5.5 77.433594 Z M 11.296875 77.449219 C 10.996094 77.425781 10.871094 77.375 10.796875 77.238281 C 10.714844 77.105469 10.6875 76.425781 10.6875 74.621094 C 10.695312 72.109375 10.789062 71.0625 11.03125 70.824219 C 11.128906 70.714844 11.503906 70.699219 13.375 70.707031 C 15.453125 70.707031 16.476562 70.796875 16.652344 70.972656 C 16.769531 71.085938 16.886719 72.628906 16.945312 74.957031 L 16.992188 77.246094 L 16.792969 77.351562 C 16.636719 77.441406 16.054688 77.46875 14.140625 77.476562 C 12.792969 77.484375 11.511719 77.46875 11.296875 77.449219 Z M 19.164062 77.417969 C 19.023438 77.375 18.855469 77.292969 18.808594 77.226562 C 18.675781 77.070312 18.558594 74.890625 18.550781 72.628906 C 18.550781 71.003906 18.566406 70.839844 18.699219 70.78125 C 18.921875 70.691406 20.960938 70.625 21.484375 70.691406 C 21.933594 70.75 21.960938 70.765625 21.992188 71.011719 C 22.035156 71.261719 22.21875 74.101562 22.34375 76.460938 L 22.390625 77.507812 L 20.910156 77.5 C 20.089844 77.5 19.304688 77.460938 19.164062 77.417969 Z M 8.527344 68.265625 C 6.378906 68.207031 5.796875 68.15625 5.597656 67.992188 C 5.433594 67.867188 5.257812 67.175781 4.992188 65.605469 C 4.859375 64.804688 4.601562 63.527344 4.410156 62.757812 C 4.035156 61.214844 3.1875 58.515625 3.0625 58.433594 C 3.011719 58.398438 2.554688 58.300781 2.046875 58.203125 C 1.539062 58.101562 1.054688 57.996094 0.972656 57.96875 C 0.832031 57.9375 0.824219 57.832031 0.847656 56.519531 C 0.882812 54.875 0.890625 54.851562 1.722656 54.222656 C 1.988281 54.023438 2.527344 53.605469 2.929688 53.296875 L 3.660156 52.738281 L 13.242188 52.769531 C 20.039062 52.796875 22.972656 52.835938 23.332031 52.902344 C 24.472656 53.117188 25.585938 53.925781 26.203125 54.972656 C 26.601562 55.660156 26.777344 56.238281 26.84375 57.128906 C 26.882812 57.773438 26.875 57.855469 26.71875 58.011719 C 26.617188 58.109375 26.386719 58.203125 26.144531 58.234375 C 24.847656 58.40625 24.496094 58.582031 24.253906 59.199219 C 23.921875 60.019531 22.734375 65.054688 22.492188 66.664062 C 22.335938 67.726562 22.242188 67.992188 22.019531 68.117188 C 21.660156 68.304688 13.617188 68.394531 8.527344 68.265625 Z M 73.824219 62.195312 C 73.183594 61.570312 72.675781 61.214844 71.410156 60.488281 C 69.058594 59.132812 63.5 56.351562 61.679688 55.609375 C 60.886719 55.289062 60.789062 55.269531 59.765625 55.222656 C 58.765625 55.179688 58.652344 55.15625 58.242188 54.933594 C 57.570312 54.570312 56.980469 53.882812 56.703125 53.148438 C 56.148438 51.664062 55.582031 48.839844 54.984375 44.53125 C 54.566406 41.511719 54.476562 41.253906 52.792969 37.902344 C 52.003906 36.328125 51.207031 34.785156 51.03125 34.460938 C 50.191406 32.960938 49.425781 31.960938 48.238281 30.832031 C 47.421875 30.054688 46.898438 29.699219 46.757812 29.839844 C 46.707031 29.898438 46.847656 30.367188 47.15625 31.160156 C 47.914062 33.109375 49.757812 37.589844 50.242188 38.628906 C 51.878906 42.222656 53.320312 46.496094 54.066406 49.996094 C 54.359375 51.359375 54.375 51.902344 54.160156 52.382812 C 53.527344 53.761719 51.65625 53.074219 50.671875 51.101562 C 50.40625 50.566406 50.375 50.417969 50.359375 49.796875 C 50.332031 48.941406 50.316406 48.832031 49.859375 46.597656 C 49.402344 44.382812 48.917969 42.425781 48.609375 41.601562 C 48.121094 40.25 47.722656 39.628906 46.421875 38.257812 C 46.039062 37.855469 45.175781 36.847656 44.511719 36.03125 C 43.078125 34.28125 42.214844 33.363281 41.300781 32.628906 C 40.308594 31.835938 39.742188 31.597656 39.628906 31.902344 C 39.503906 32.21875 40.160156 33.84375 41.25 35.890625 C 42.066406 37.425781 42.582031 38.101562 44.261719 39.835938 C 46.257812 41.890625 47.164062 43.105469 47.195312 43.773438 C 47.214844 44.167969 47.03125 44.101562 46.632812 43.582031 C 46.207031 43.023438 44.992188 42.164062 43.222656 41.164062 C 41.058594 39.941406 39.785156 39.449219 39.46875 39.703125 C 39.160156 39.960938 39.484375 41.460938 39.992188 42.089844 C 40.125 42.253906 40.492188 42.566406 40.808594 42.78125 C 41.757812 43.433594 46.164062 45.5625 47.0625 45.804688 C 47.539062 45.9375 47.914062 46.28125 48.363281 46.992188 C 48.828125 47.742188 49.449219 49.015625 49.375 49.089844 C 49.226562 49.238281 43.902344 46.703125 41.882812 45.515625 C 40.917969 44.945312 40.535156 44.625 39.925781 43.832031 C 39.128906 42.789062 38.621094 42.460938 37.164062 42.046875 C 36.308594 41.800781 35.375 41.445312 35.0625 41.238281 C 34.703125 41.007812 33.9375 40.015625 33.648438 39.414062 C 33.132812 38.359375 33.082031 37.410156 33.445312 35.578125 C 33.796875 33.808594 34.503906 32.011719 35.328125 30.78125 C 36.082031 29.632812 36.992188 28.800781 38.546875 27.824219 C 40.234375 26.761719 41.722656 26.035156 43.46875 25.421875 C 44.011719 25.234375 44.800781 24.9375 45.207031 24.761719 C 46.980469 24.027344 48.511719 23.542969 53.195312 22.246094 C 55.996094 21.460938 56.621094 21.304688 57.1875 21.214844 C 59.847656 20.800781 64.964844 20.734375 66.0625 21.097656 C 66.371094 21.199219 66.542969 21.328125 66.777344 21.617188 C 67.167969 22.105469 68.09375 23.886719 69.191406 26.289062 C 69.65625 27.289062 70.144531 28.34375 70.296875 28.644531 C 70.710938 29.5 71.261719 30.863281 71.410156 31.449219 C 71.667969 32.457031 71.710938 32.894531 71.785156 36.03125 C 71.859375 39.003906 71.894531 39.597656 72.125 42.113281 C 72.242188 43.375 72.167969 44.34375 71.742188 47.257812 C 71.585938 48.347656 71.425781 49.617188 71.402344 50.070312 L 71.34375 50.914062 L 71.75 51.210938 C 72.300781 51.605469 74.148438 52.589844 75.394531 53.140625 C 76.625 53.6875 77.65625 54.035156 78.28125 54.109375 C 78.988281 54.183594 79.0625 54.3125 79.054688 55.296875 C 79.046875 56.230469 78.898438 56.78125 78.058594 58.960938 L 77.5 60.398438 L 77 60.457031 C 76.726562 60.480469 76.328125 60.503906 76.117188 60.503906 C 75.652344 60.503906 75.164062 60.628906 75.039062 60.785156 C 74.988281 60.84375 74.90625 61.207031 74.855469 61.585938 C 74.769531 62.296875 74.621094 62.652344 74.414062 62.652344 C 74.347656 62.652344 74.082031 62.445312 73.824219 62.195312 Z M 74.855469 58.417969 C 75.1875 57.878906 75.613281 56.707031 75.613281 56.328125 C 75.613281 55.785156 75.230469 55.460938 73.648438 54.695312 C 72.933594 54.339844 72.257812 54.023438 72.160156 53.984375 C 72.058594 53.941406 70.402344 53.191406 68.492188 52.308594 C 64.921875 50.65625 63.882812 50.234375 63.542969 50.285156 C 63.285156 50.320312 62.800781 50.953125 62.328125 51.902344 C 62.019531 52.507812 61.953125 52.703125 62.019531 52.8125 C 62.128906 52.984375 62.578125 53.289062 63.300781 53.679688 C 64.488281 54.320312 72.59375 58.121094 73.804688 58.605469 C 74.472656 58.871094 74.578125 58.855469 74.855469 58.417969 Z M 61.28125 50.617188 C 61.421875 50.523438 61.777344 49.699219 61.96875 49.007812 C 62.167969 48.289062 62.1875 47.25 62.011719 46.332031 C 61.835938 45.414062 61.679688 44.113281 61.429688 41.5625 C 61.039062 37.464844 60.589844 35.402344 59.722656 33.679688 C 59.316406 32.859375 57.933594 30.433594 57.621094 29.972656 C 57.171875 29.3125 56.121094 28.113281 55.257812 27.265625 C 54.417969 26.429688 53.960938 26.09375 53.859375 26.242188 C 53.703125 26.496094 54.714844 29.417969 56.480469 33.800781 C 58.011719 37.597656 58.191406 38.25 58.976562 42.46875 C 59.765625 46.761719 60.171875 48.644531 60.554688 49.78125 C 60.832031 50.574219 61.011719 50.789062 61.28125 50.617188 Z M 68.132812 49.707031 C 68.359375 49.527344 68.351562 49.882812 68.226562 45.648438 C 67.992188 37.765625 67.699219 35.3125 66.660156 32.199219 C 66.144531 30.691406 65.003906 28.484375 64.164062 27.394531 C 63.492188 26.519531 62.335938 25.621094 61.777344 25.53125 C 61.480469 25.488281 61.46875 25.488281 61.46875 25.730469 C 61.46875 26 62.460938 28.964844 63.09375 30.582031 C 64.199219 33.429688 64.691406 35.652344 65.296875 40.652344 C 66.039062 46.777344 66.445312 48.691406 67.152344 49.425781 C 67.574219 49.875 67.832031 49.9375 68.132812 49.707031 Z M 26.816406 36.558594 C 21.917969 33.371094 20.128906 32.152344 19.921875 31.835938 C 19.640625 31.40625 19.304688 28.734375 19.449219 27.980469 C 19.507812 27.660156 19.539062 27.609375 19.695312 27.628906 C 19.964844 27.660156 20.621094 28.089844 22.167969 29.246094 C 24.578125 31.054688 27.257812 32.710938 29.710938 33.933594 L 30.875 34.511719 L 30.84375 36.386719 C 30.820312 37.550781 30.769531 38.339844 30.710938 38.492188 C 30.519531 38.9375 30.351562 38.851562 26.816406 36.558594 Z M 30.902344 31.828125 C 28.789062 31.144531 20.796875 25.523438 20.796875 24.730469 C 20.796875 24.332031 23.558594 21.335938 24.097656 21.15625 C 24.578125 20.984375 24.9375 21.222656 27.53125 23.402344 C 29.945312 25.433594 31.191406 26.308594 32.789062 27.125 C 33.988281 27.726562 34.1875 27.867188 34.1875 28.097656 C 34.1875 28.214844 33.945312 28.570312 33.554688 29.023438 C 33.089844 29.558594 32.816406 29.988281 32.480469 30.664062 C 32.242188 31.160156 31.976562 31.640625 31.882812 31.714844 C 31.660156 31.917969 31.292969 31.960938 30.902344 31.828125 Z M 30.902344 31.828125 "
    />
    <path
      d="M 14.632812 28.824219 C 10.898438 26.679688 9.972656 25.976562 9.441406 24.902344 C 8.632812 23.269531 9.023438 20.296875 10.355469 17.910156 C 11.71875 15.460938 13.382812 13.71875 16.105469 11.917969 C 18.191406 10.539062 20.4375 9.675781 23.324219 9.164062 C 25.613281 8.75 26.792969 9.054688 28.628906 10.523438 C 29.953125 11.597656 33.023438 14.550781 33.023438 14.773438 C 33.023438 14.816406 32.847656 14.867188 32.632812 14.890625 C 31.792969 14.988281 30.683594 15.296875 29.320312 15.808594 C 25.136719 17.359375 22.992188 18.664062 20.695312 21.03125 C 19.246094 22.542969 18.390625 23.832031 17.675781 25.597656 C 17.292969 26.53125 17.085938 27.445312 16.9375 28.839844 C 16.859375 29.46875 16.792969 29.996094 16.777344 30.011719 C 16.761719 30.03125 15.796875 29.492188 14.632812 28.824219 Z M 15.238281 20.660156 C 16.269531 19.925781 16.253906 18.488281 15.207031 17.78125 C 14.890625 17.574219 14.773438 17.539062 14.265625 17.550781 C 13.558594 17.550781 13.191406 17.738281 12.808594 18.300781 C 12.34375 19.011719 12.511719 20.089844 13.167969 20.585938 C 13.582031 20.898438 13.800781 20.964844 14.367188 20.941406 C 14.789062 20.925781 14.949219 20.867188 15.238281 20.660156 Z M 22.257812 15.3125 C 23.5 14.949219 23.804688 13.808594 22.90625 12.917969 C 22.515625 12.53125 21.816406 12.214844 21.34375 12.214844 C 20.488281 12.214844 19.132812 13.199219 19.132812 13.816406 C 19.132812 14.03125 19.753906 14.800781 20.144531 15.0625 C 20.703125 15.4375 21.511719 15.535156 22.257812 15.3125 Z M 22.257812 15.3125 "
    />
    <path
      d="M 35.136719 25.390625 C 33.207031 24.761719 31.550781 23.738281 29.28125 21.757812 C 27.992188 20.636719 27.027344 19.644531 27.050781 19.488281 C 27.074219 19.339844 28.414062 18.628906 29.371094 18.25 C 30.128906 17.953125 31.351562 17.589844 31.839844 17.523438 C 32.308594 17.457031 32.582031 17.648438 34.0625 19.066406 C 36.042969 20.972656 36.800781 21.652344 37.523438 22.164062 C 37.90625 22.425781 38.386719 22.78125 38.597656 22.945312 C 38.804688 23.113281 39.226562 23.425781 39.535156 23.648438 C 40 23.972656 40.085938 24.0625 39.992188 24.144531 C 39.820312 24.308594 38.070312 25.25 37.539062 25.472656 C 36.832031 25.753906 36.191406 25.738281 35.136719 25.390625 Z M 39.496094 20.339844 C 38.671875 19.785156 38.15625 19.355469 37.316406 18.53125 C 36.699219 17.921875 36.574219 17.746094 36.789062 17.746094 C 37.074219 17.746094 40.558594 20.792969 40.285156 20.800781 C 40.226562 20.800781 39.867188 20.59375 39.496094 20.339844 Z M 6.023438 20.414062 C 4.566406 19.644531 3.035156 18.515625 1.621094 17.167969 C 1.164062 16.738281 0.648438 16.269531 0.472656 16.136719 L 0.167969 15.890625 L 0.0820312 13.785156 C 0.0429688 12.628906 0 9.054688 0 5.84375 L 0 0 L 20.503906 0 L 20.804688 0.5625 C 21.386719 1.660156 22.582031 3.476562 23.640625 4.871094 C 24.222656 5.644531 24.703125 6.316406 24.703125 6.355469 C 24.703125 6.472656 24.636719 6.496094 23.164062 6.761719 C 20.546875 7.246094 18.882812 7.785156 16.761719 8.824219 C 12.226562 11.050781 8.800781 14.742188 7.253906 19.042969 C 6.671875 20.644531 6.605469 20.71875 6.023438 20.414062 Z M 6.023438 20.414062 "
    />
  </g>
</svg>
