<svg id="root" xmlns="http://www.w3.org/2000/svg" width="768" height="441" viewBox="0 0 7680 4410">
  <g>
    <path
      d="M3415 3301c-77-15-147-30-155-33s-55-17-105-32c-49-15-97-32-105-37s-22-12-30-15c-24-9-94-47-108-59-50-38-112-100-112-110 0-7-7-18-15-25-10-8-15-31-15-69 0-52 3-60 44-107 64-73 175-127 329-159 93-20 94-18 5 15-170 63-275 130-308 197-26 52-20 79 30 135 46 53 225 147 310 164 19 3 40 9 45 13 34 21 271 58 456 71 165 11 532-15 599-42 8-4 33-9 55-13 173-28 404-145 445-224 11-22 20-50 20-61 0-66-89-141-240-205-129-55-131-56-80-49 58 8 179 49 228 77 96 55 142 116 142 188 0 127-136 235-405 322-60 19-175 47-255 61-132 24-167 26-390 25s-257-4-385-28z" />
    <path
      d="M3755 3104c-16-2-79-9-140-15-246-24-439-105-461-194-11-44 20-90 79-120 62-30 96-33 47-4-54 32-90 70-90 95 0 53 112 105 303 141 128 24 501 24 636 0 171-30 301-86 301-130-1-36-17-59-61-88-28-17-48-34-45-36 10-10 108 42 126 67 89 124-117 239-494 275-88 8-162 14-165 14-3-1-19-4-36-5z" />
    <path
      d="M3649 2786c-163-55-308-199-340-336-4-19-12-53-18-75-25-94-9-242 38-350 33-78 131-264 176-335 30-47 58-92 62-100 3-8 21-38 39-66 29-46 121-229 157-314 9-19 21-56 27-83 15-57 27-68 35-30 21 96 67 211 130 318 19 33 38 67 42 75s28 47 55 87c26 40 48 76 48 79 0 4 10 21 23 38s27 38 30 46c4 8 16 29 26 46 52 85 93 171 122 255 42 121 52 283 23 376-56 184-188 319-363 373-90 28-224 27-312-4zm-76-383c25-29 38-97 33-185-5-95 26-277 54-313 10-14 76-238 90-307 6-32 9-62 5-68-8-13-25-13-25 0 0 11-62 139-93 191-12 20-45 74-72 120-92 154-123 232-137 339-14 110-3 189 29 218 32 27 93 30 116 5z" />
  </g>
</svg>