<svg xmlns="http://www.w3.org/2000/svg" id="root" viewBox="0 0 100 108">
  <path
    d="M 31.011719 106.648438 C 27.3125 105.929688 23.949219 105.210938 23.5625 105.066406 C 23.179688 104.925781 20.917969 104.253906 18.515625 103.535156 C 16.160156 102.816406 13.855469 102.003906 13.46875 101.761719 C 13.085938 101.523438 12.410156 101.1875 12.027344 101.042969 C 10.875 100.613281 7.507812 98.792969 6.835938 98.21875 C 4.433594 96.398438 1.453125 93.425781 1.453125 92.949219 C 1.453125 92.613281 1.117188 92.085938 0.730469 91.75 C 0.25 91.367188 0.0117188 90.265625 0.0117188 88.445312 C 0.0117188 85.953125 0.15625 85.570312 2.125 83.320312 C 5.203125 79.824219 10.539062 77.234375 17.941406 75.703125 C 22.410156 74.746094 22.457031 74.839844 18.179688 76.421875 C 10.007812 79.4375 4.960938 82.648438 3.375 85.859375 C 2.125 88.347656 2.414062 89.644531 4.816406 92.324219 C 7.027344 94.863281 15.632812 99.367188 19.71875 100.183594 C 20.632812 100.324219 21.640625 100.613281 21.882812 100.804688 C 23.515625 101.8125 34.90625 103.582031 43.800781 104.207031 C 51.730469 104.734375 69.371094 103.488281 72.589844 102.195312 C 72.976562 102.003906 74.175781 101.761719 75.234375 101.570312 C 83.550781 100.230469 94.652344 94.625 96.625 90.839844 C 97.152344 89.785156 97.585938 88.445312 97.585938 87.917969 C 97.585938 84.757812 93.308594 81.164062 86.050781 78.097656 C 79.847656 75.464844 79.753906 75.414062 82.203125 75.75 C 84.992188 76.132812 90.808594 78.097656 93.164062 79.4375 C 97.777344 82.074219 99.988281 84.996094 99.988281 88.445312 C 99.988281 94.527344 93.453125 99.703125 80.523438 103.871094 C 77.636719 104.78125 72.109375 106.121094 68.265625 106.792969 C 61.921875 107.941406 60.238281 108.039062 49.519531 107.992188 C 38.800781 107.941406 37.167969 107.796875 31.011719 106.648438 Z M 31.011719 106.648438 "
  />
  <path
    d="M 47.355469 97.210938 C 46.585938 97.117188 43.558594 96.78125 40.628906 96.492188 C 28.800781 95.34375 19.527344 91.464844 18.46875 87.199219 C 17.941406 85.09375 19.429688 82.886719 22.265625 81.453125 C 25.246094 80.015625 26.878906 79.871094 24.523438 81.257812 C 21.929688 82.792969 20.199219 84.613281 20.199219 85.8125 C 20.199219 88.347656 25.582031 90.839844 34.761719 92.566406 C 40.914062 93.714844 58.84375 93.714844 65.332031 92.566406 C 73.550781 91.128906 79.800781 88.445312 79.800781 86.335938 C 79.753906 84.613281 78.984375 83.511719 76.871094 82.121094 C 75.523438 81.308594 74.5625 80.492188 74.707031 80.398438 C 75.1875 79.917969 79.898438 82.410156 80.761719 83.605469 C 85.039062 89.546875 75.140625 95.054688 57.019531 96.78125 C 52.789062 97.164062 49.230469 97.453125 49.085938 97.453125 C 48.941406 97.402344 48.171875 97.261719 47.355469 97.210938 Z M 47.355469 97.210938 "
  />
  <path
    d="M 42.261719 81.976562 C 34.425781 79.34375 27.457031 72.445312 25.917969 65.882812 C 25.726562 64.972656 25.339844 63.34375 25.054688 62.289062 C 23.851562 57.785156 24.621094 50.695312 26.878906 45.523438 C 28.464844 41.785156 33.175781 32.875 35.339844 29.476562 C 36.78125 27.222656 38.128906 25.066406 38.320312 24.683594 C 38.464844 24.300781 39.328125 22.863281 40.195312 21.523438 C 41.589844 19.320312 46.011719 10.550781 47.742188 6.480469 C 48.171875 5.570312 48.75 3.796875 49.039062 2.503906 C 49.757812 -0.226562 50.335938 -0.753906 50.722656 1.066406 C 51.730469 5.667969 53.941406 11.175781 56.96875 16.300781 C 57.882812 17.882812 58.796875 19.511719 58.988281 19.894531 C 59.179688 20.277344 60.335938 22.144531 61.632812 24.0625 C 62.882812 25.976562 63.9375 27.703125 63.9375 27.847656 C 63.9375 28.039062 64.421875 28.851562 65.042969 29.667969 C 65.667969 30.480469 66.34375 31.488281 66.488281 31.871094 C 66.679688 32.253906 67.257812 33.257812 67.738281 34.074219 C 70.234375 38.144531 72.207031 42.265625 73.601562 46.289062 C 75.621094 52.085938 76.101562 59.847656 74.707031 64.300781 C 72.015625 73.117188 65.667969 79.582031 57.257812 82.167969 C 52.933594 83.511719 46.492188 83.464844 42.261719 81.976562 Z M 38.609375 63.628906 C 39.808594 62.242188 40.433594 58.984375 40.195312 54.769531 C 39.953125 50.21875 41.445312 41.5 42.789062 39.773438 C 43.269531 39.105469 46.441406 28.371094 47.117188 25.066406 C 47.40625 23.535156 47.546875 22.097656 47.355469 21.808594 C 46.972656 21.1875 46.15625 21.1875 46.15625 21.808594 C 46.15625 22.335938 43.175781 28.46875 41.683594 30.960938 C 41.109375 31.917969 39.519531 34.503906 38.222656 36.707031 C 33.800781 44.085938 32.3125 47.820312 31.636719 52.949219 C 30.964844 58.21875 31.496094 62.003906 33.03125 63.390625 C 34.570312 64.683594 37.503906 64.828125 38.609375 63.628906 Z M 38.609375 63.628906 "
  />
</svg>
