<svg xmlns="http://www.w3.org/2000/svg" id="root" viewBox="0 0 100 105">
  <path
    d="M 22.625 104.363281 C 19.84375 103.402344 17.707031 102.015625 15.746094 99.847656 C 14.144531 98.105469 12.113281 94.660156 12.113281 93.664062 C 12.113281 93.484375 13.039062 93.664062 14.179688 94.054688 C 15.855469 94.695312 17.03125 94.835938 20.84375 94.835938 C 24.832031 94.835938 25.972656 94.695312 29.039062 93.875 C 32.886719 92.808594 36.164062 91.105469 38.941406 88.652344 C 40.582031 87.195312 42.042969 84.953125 42.042969 83.921875 C 42.042969 83.640625 43.003906 83.140625 44.464844 82.714844 C 56.222656 79.125 69.832031 74.574219 70.792969 73.863281 C 71.472656 73.328125 72.46875 71.941406 73.21875 70.414062 C 74.214844 68.316406 74.5 67.285156 74.679688 64.832031 C 75.105469 59.039062 73.503906 55.234375 69.832031 53.316406 C 63.632812 50.117188 57.363281 46.382812 56.257812 45.316406 C 53.976562 43.042969 52.730469 38.386719 52.730469 32.058594 C 52.730469 23.738281 55.4375 17.839844 60.390625 15.5625 C 63.597656 14.070312 65.199219 14.746094 65.199219 17.589844 C 65.199219 18.796875 65.023438 19.046875 63.167969 20.292969 C 61.53125 21.359375 60.890625 22.070312 60.035156 23.773438 C 59 25.835938 58.964844 26.050781 58.964844 31.0625 C 58.964844 35.753906 59.035156 36.359375 59.820312 37.921875 C 60.285156 38.847656 61.101562 39.984375 61.636719 40.410156 C 62.171875 40.875 64.914062 42.082031 67.730469 43.148438 C 77.457031 46.738281 80.484375 48.871094 82.945312 53.957031 C 84.546875 57.191406 84.9375 59.679688 84.652344 64.65625 C 84.226562 72.015625 82.625 76.882812 79.417969 80.617188 C 77.992188 82.21875 73.503906 85.453125 72.648438 85.453125 C 72.433594 85.453125 71.292969 84.777344 70.152344 83.957031 C 67.695312 82.253906 66.339844 82.074219 65.023438 83.320312 C 63.847656 84.421875 63.242188 86.589844 63.738281 88.046875 C 63.953125 88.617188 64.058594 89.183594 64.023438 89.253906 C 63.953125 89.328125 62.957031 88.652344 61.816406 87.761719 C 59.285156 85.808594 57.824219 85.628906 56.4375 87.121094 C 55.332031 88.296875 55.082031 89.253906 55.296875 91.671875 C 55.4375 93.519531 55.222656 94.125 54.691406 93.273438 C 54.546875 93.058594 53.65625 92.242188 52.660156 91.496094 C 49.308594 88.828125 46.53125 90.074219 45.820312 94.550781 C 45.605469 95.691406 45.710938 96.152344 46.246094 96.792969 L 46.886719 97.609375 L 40.511719 100.808594 C 36.984375 102.550781 33.492188 104.222656 32.707031 104.503906 C 30.640625 105.214844 24.867188 105.144531 22.625 104.363281 Z M 55.472656 103.6875 C 55.332031 103.582031 55.222656 102.941406 55.222656 102.335938 C 55.222656 100.773438 57.148438 98.605469 58.609375 98.5 C 59.570312 98.425781 59.679688 98.535156 59.785156 99.601562 C 59.855469 100.3125 59.605469 101.199219 59.179688 101.945312 C 58.253906 103.4375 56.1875 104.433594 55.472656 103.6875 Z M 55.472656 103.6875 "
  />
  <path
    d="M 50.484375 99.03125 C 47.242188 96.152344 47.03125 95.902344 47.207031 94.90625 C 47.921875 91.386719 49.167969 90.570312 51.449219 92.0625 C 54.296875 93.949219 58.21875 97.324219 57.683594 97.46875 C 56.792969 97.75 55.152344 99.457031 54.546875 100.773438 L 53.941406 102.089844 Z M 64.84375 98.355469 C 64.84375 96.4375 67.304688 93.628906 68.585938 94.125 C 69.332031 94.410156 69.261719 95.867188 68.40625 97.503906 C 67.695312 98.925781 67.125 99.316406 65.699219 99.316406 C 64.988281 99.316406 64.84375 99.136719 64.84375 98.355469 Z M 59.714844 94.625 L 56.222656 91.742188 L 56.398438 90.359375 C 56.613281 88.863281 57.824219 87.230469 58.714844 87.230469 C 59 87.230469 61.066406 88.542969 63.3125 90.144531 L 67.339844 93.023438 L 66.449219 93.628906 C 65.378906 94.304688 63.777344 96.402344 63.777344 97.074219 C 63.777344 97.324219 63.667969 97.539062 63.527344 97.539062 C 63.347656 97.539062 61.671875 96.222656 59.714844 94.625 Z M 73.894531 94.871094 C 73.539062 94.019531 74.464844 91.921875 75.570312 90.960938 C 76.816406 89.929688 77.066406 89.894531 77.671875 90.605469 C 78.3125 91.386719 77.8125 92.847656 76.421875 94.230469 C 75.175781 95.476562 74.214844 95.726562 73.894531 94.871094 Z M 16.210938 93.273438 C 11.613281 92.347656 8.335938 90.25 6.910156 87.371094 C 5.84375 85.203125 5.914062 84.386719 7.019531 86.234375 C 9.085938 89.71875 17.492188 92.347656 23.691406 91.460938 C 30.996094 90.429688 36.875 87.832031 39.261719 84.597656 L 40.332031 83.140625 L 40.082031 84.386719 C 39.691406 86.339844 38.371094 88.046875 36.128906 89.539062 C 33.777344 91.105469 29.394531 92.703125 26.007812 93.238281 C 23.335938 93.664062 18.3125 93.699219 16.210938 93.273438 Z M 69.582031 91.707031 C 65.878906 89.21875 64.738281 87.867188 65.023438 86.375 C 65.34375 84.882812 66.164062 83.675781 66.875 83.675781 C 67.195312 83.675781 69.371094 84.882812 71.683594 86.410156 L 75.960938 89.113281 L 74.820312 90.003906 C 74.179688 90.5 73.394531 91.496094 73.074219 92.242188 L 72.46875 93.59375 Z M 69.582031 91.707031 "
  />
  <path
    d="M 16.28125 89.71875 C 13.679688 89.253906 11.1875 88.261719 9.796875 87.121094 C 8.125 85.773438 8.230469 85.378906 10.046875 86.019531 C 12.578125 86.910156 17.351562 87.585938 20.984375 87.585938 C 27.71875 87.550781 31.996094 86.589844 36.449219 84.03125 C 37.765625 83.285156 38.835938 82.820312 38.835938 82.964844 C 38.835938 83.601562 36.589844 85.84375 35.09375 86.695312 C 30.460938 89.433594 22.339844 90.714844 16.28125 89.71875 Z M 16.28125 89.71875 "
  />
  <path
    d="M 13.539062 85.808594 C 8.410156 84.742188 4.382812 82.429688 3.0625 79.800781 C 2.53125 78.769531 1.960938 75.855469 2.28125 75.855469 C 2.386719 75.855469 2.816406 76.492188 3.207031 77.277344 C 5.238281 81.222656 12.148438 84.03125 19.878906 84.03125 C 26.152344 84.03125 34.238281 82.003906 38.050781 79.515625 C 40.011719 78.199219 41.828125 75.960938 42.253906 74.289062 C 42.648438 72.761719 43.109375 72.867188 43.109375 74.503906 C 43.074219 77.488281 41.117188 80.191406 37.304688 82.394531 C 35.09375 83.710938 30.25 85.417969 27.148438 86.019531 C 23.550781 86.695312 17.28125 86.625 13.539062 85.808594 Z M 13.539062 85.808594 "
  />
  <path
    d="M 13.789062 82.179688 C 12.683594 81.96875 10.4375 81.148438 8.835938 80.332031 C 6.449219 79.160156 5.734375 78.589844 5.09375 77.453125 C 3.667969 74.929688 3.917969 74.679688 6.734375 75.855469 C 13.359375 78.660156 21.734375 79.054688 30.140625 76.921875 C 33.171875 76.136719 37.945312 74.003906 40.511719 72.296875 C 42.042969 71.269531 42.078125 71.269531 41.863281 72.015625 C 40.261719 77.488281 35.308594 80.792969 26.722656 82.074219 C 22.945312 82.679688 16.921875 82.714844 13.789062 82.179688 Z M 13.789062 82.179688 "
  />
  <path
    d="M 13.003906 76.566406 C 5.023438 75.390625 0 71.515625 0 66.503906 C 0 63.945312 2.316406 61.457031 6.589844 59.359375 C 12.753906 56.335938 18.917969 55.058594 26.007812 55.34375 C 34.953125 55.699219 40.6875 57.972656 42.789062 62.023438 C 44.144531 64.726562 43.359375 68.636719 41.007812 70.628906 C 37.800781 73.292969 32.171875 75.535156 26.472656 76.386719 C 22.839844 76.921875 16.105469 77.027344 13.003906 76.566406 Z M 29.75 71.269531 C 35.558594 69.667969 39.546875 66.894531 39.546875 64.511719 C 39.546875 61.988281 36.339844 59.644531 31.351562 58.542969 C 27.183594 57.652344 19.488281 57.722656 15.675781 58.71875 C 9.546875 60.320312 5.34375 63.164062 4.773438 66.113281 C 4.417969 67.996094 5.128906 69.097656 7.554688 70.273438 C 10.652344 71.835938 13.894531 72.296875 20.84375 72.15625 C 25.722656 72.050781 27.46875 71.871094 29.75 71.269531 Z M 29.75 71.269531 "
  />
  <path
    d="M 13.359375 70.839844 C 10.082031 70.203125 7.160156 69.0625 6.449219 68.175781 C 4.488281 65.6875 8.335938 62.132812 15.035156 60.175781 C 20.558594 58.578125 30.890625 59.003906 35.09375 60.957031 C 37.980469 62.308594 38.90625 64.476562 37.410156 66.363281 C 36.449219 67.570312 32.921875 69.277344 29.394531 70.203125 C 26.152344 71.089844 16.496094 71.445312 13.359375 70.839844 Z M 65.519531 20.078125 C 66.625 19.046875 66.695312 18.832031 66.554688 17.164062 C 66.339844 15.207031 65.234375 13.644531 63.988281 13.644531 C 63.3125 13.644531 63.3125 13.609375 63.847656 13.074219 C 64.667969 12.257812 66.804688 12.683594 67.550781 13.820312 C 68.800781 15.707031 68.835938 19.082031 67.625 20.292969 C 67.339844 20.539062 66.484375 20.859375 65.699219 21.003906 L 64.308594 21.214844 Z M 71.863281 18.832031 C 72.71875 18.085938 72.859375 17.730469 72.824219 16.273438 C 72.789062 14.921875 72.613281 14.425781 71.828125 13.75 C 71.292969 13.289062 70.546875 12.933594 70.152344 12.933594 C 69.191406 12.933594 69.296875 12.292969 70.332031 12.007812 C 72.96875 11.367188 74.640625 12.863281 74.640625 15.917969 C 74.640625 18.441406 73.824219 19.6875 72.113281 19.6875 L 70.867188 19.6875 Z M 77.8125 17.730469 C 79.523438 16.132812 78.773438 12.507812 76.601562 12.042969 C 75.710938 11.832031 75.570312 11.722656 75.925781 11.296875 C 76.140625 11.011719 76.851562 10.800781 77.492188 10.800781 C 79.703125 10.800781 81.339844 13.820312 80.519531 16.308594 C 80.058594 17.730469 78.988281 18.621094 77.707031 18.621094 L 76.851562 18.621094 Z M 77.8125 17.730469 "
  />
  <path
    d="M 69.726562 16.773438 C 69.652344 15.917969 69.441406 14.957031 69.296875 14.640625 C 68.90625 13.714844 70.402344 13.785156 70.902344 14.710938 C 71.472656 15.777344 71.222656 18.050781 70.507812 18.195312 C 70.082031 18.265625 69.867188 17.945312 69.726562 16.773438 Z M 75.890625 15.8125 C 75.890625 15.03125 75.78125 14.175781 75.675781 13.855469 C 75.355469 13.039062 76.496094 13.144531 76.957031 13.964844 C 77.492188 15.03125 77.386719 16.738281 76.746094 16.984375 C 75.890625 17.304688 75.890625 17.304688 75.890625 15.8125 Z M 81.804688 14.320312 C 81.660156 13.5 81.660156 12.753906 81.730469 12.648438 C 81.839844 12.542969 82.695312 12.222656 83.621094 11.902344 C 86.398438 10.941406 89.109375 8.914062 93.847656 4.152344 C 98.191406 -0.183594 98.335938 -0.292969 99.121094 0.207031 C 100.6875 1.238281 100.367188 1.949219 96.484375 5.894531 C 92.527344 9.910156 87.859375 13.609375 84.976562 14.921875 C 82.445312 16.132812 82.089844 16.0625 81.804688 14.320312 Z M 81.804688 14.320312 "
  />
</svg>
