<svg xmlns="http://www.w3.org/2000/svg" id="root" viewBox="390 370 1790 1790">
  <path
    d="M1190 2118c0-66-19-119-55-155-58-58-130-38-195 54l-36 52c-5 6-155-91-152-98l31-59c16-30 31-75 34-102 5-43 3-51-20-74-36-36-93-35-176 4-35 17-65 29-67 27s-22-36-44-77c-34-61-38-75-26-82 46-26 102-78 119-112 20-39 20-39 1-74-24-45-73-70-152-78l-62-7v-51c0-28 3-68 6-88 6-36 9-38 43-38 94 0 181-50 181-104 0-43-60-111-138-155-10-6-3-25 28-79 23-40 46-74 50-77 5-3 28 4 51 15 51 26 137 37 167 21 12-6 29-26 38-43 14-27 15-40 5-82-6-28-20-66-31-84l-20-36c0-2 21-16 48-31l78-46 32-19 25 43c32 54 97 114 134 123 36 9 73-13 96-56 14-27 17-52 15-107l-3-73h185v58c1 79 29 138 76 158 54 23 87 10 164-62l68-65 75 47 76 46-30 58c-79 157 3 245 162 174 33-15 61-25 63-23l44 80 42 76-25 11c-37 17-101 79-115 111-6 16-10 44-8 62 3 29 10 37 47 56 24 12 70 25 102 29l59 7v51c0 28-3 67-6 87l-6 37-75 4c-74 5-112 22-136 59-18 29 4 72 73 141l68 68-38 67c-52 88-52 88-91 64-18-11-57-26-85-32-65-15-108 5-131 58-17 42-6 103 28 162 11 19 16 37 12 41s-40 26-79 47l-71 40-27-43c-56-89-121-123-178-93-31 16-58 86-58 152v57h-190v-42zm229-343a543 543 0 0 0 375-374c21-70 21-202 0-272a551 551 0 0 0-384-378c-58-13-192-13-250 0a531 531 0 0 0-13 1024c65 18 206 18 272 0z"
  ></path>
  <path
    d="M1200 1749a492 492 0 0 1 10-969 495 495 0 0 1 559 415 494 494 0 0 1-569 554zm170-225a288 288 0 0 0 190-259c0-110-87-229-190-259a254 254 0 0 0-276 68 259 259 0 0 0 0 382c79 79 167 100 276 68z"
  ></path>
</svg>
