<svg xmlns="http://www.w3.org/2000/svg" id="root" viewBox="0 0 99 70">
  <g>
    <path
      d="M 74.667969 7.574219 L 74.667969 12.011719 L 93.652344 18.476562 L 81.886719 53.464844 L 74.667969 51.011719 L 74.667969 56.75 L 55.722656 56.75 L 52.621094 58.179688 L 81.421875 67.972656 L 98.964844 15.808594 Z M 74.667969 7.574219 "
    />
    <path
      d="M 31.617188 0 L 31.617188 3.519531 L 38.457031 0.363281 L 40.199219 4.203125 L 68.761719 4.203125 L 68.761719 41.113281 L 57.082031 41.113281 L 62.753906 53.488281 L 59.441406 55.023438 L 72.96875 55.023438 L 72.96875 -0.0195312 L 31.617188 -0.0195312 Z M 31.617188 0 "
    />
    <path
      d="M 0.0351562 19.992188 L 0.90625 21.910156 L 22.910156 70 L 60.480469 52.65625 L 37.605469 2.644531 Z M 5.601562 22.058594 L 35.546875 8.234375 L 50.902344 41.796875 L 20.957031 55.621094 Z M 5.601562 22.058594 "
    />
  </g>
</svg>
