<svg xmlns="http://www.w3.org/2000/svg" id="root" viewBox="0 0 149 290.03">
  <path
    d="M141.6 0 68.2 139.7l19.2-4.3 33-78-28.7 79.4 9 15.4s10.4-31.6 17-55.8c6.7-24.2 24-96.4 24-96.4ZM22 131.8s-2.1 5-1 7.8a96 96 0 0 0 1.7 4.2s-10.6 1.3-16 6.2c-5.5 5-6.2 7.4-6.2 7.4l4.3 3s3-6.6 15.2-6.6c12.3 0 25.3 6.4 29.8 9 4.6 2.7 44.3 24.2 44.3 24.2s6 3 8.5 3.5c2.4.5 9.3 6.6 10.1 9.5.8 3 1.9 5 1.9 5s.8-2 .8-6.6c0-4.5 5.3-2.6 5.3-2.6s4.8 3.4 5 6.6c.3 3.2 3.2 5.3 3.2 5.3l3.5-.8-.8-10.9s10.4-1.6 13.6-2.9c3.2-1.3 4.3-4.8 4.3-4.8l-2.7-5.8s-23.7 6.4-43.2-5.3c-19.4-11.7-22-15.4-22-15.4s-16.6-4.8-23-9.9c-6.4-5-13.3-2.9-18-11.7-3.6-6.4-4-7.7-4.1-7.9l-2 2.2s-.1 13.2-5.2 7.9c-5-5.3-7.3-10.7-7.3-10.7Zm14.5.5Zm51.4 7.4s-21 4.8-24.7 9L98 167.3s-.3-9.5-3.5-14.8c-3.2-5.4-6.7-12.8-6.7-12.8ZM59.5 177a7 7 0 0 0-3 .7l-3.2 6.4s10.7 1.6 17.3 4.5c6.7 3 14.1 9.3 14.1 9.3s3.5-5.6-.2-8.8a119.3 119.3 0 0 0-22.1-11.7 9 9 0 0 0-3-.4Zm-7.8 13.2-4.8 3.4s-1.6 11.2-15.2 40.7c-13.5 29.5-25.3 29.2-25.3 29.2l-.8 4 6.2 3s1.3 2.3.8 4.7c-.6 2.4 4.2 6.4 4.2 6.4s0 1 10.4 5.9c10.4 4.8 15 1.3 15 1.3s-1.1-3 3.6-.3c4.8 2.7 4.3 0 4.3 0s-3.2-12.7-.8-13.5c2.4-.8 1.9-4 1.9-4s2.6-3.5 9-15.2a604.2 604.2 0 0 0 19.5-45.7l2.1-1.3 1.6-5.6s-4.5-4.2-13.8-8c-9.4-3.7-17.9-5-17.9-5Zm0 0"
  ></path>
</svg>
