<svg xmlns="http://www.w3.org/2000/svg" id="root" viewBox="0 14.8 1801.5 1695.8">
  <path
    d="M390 1698.7c-88-4.6-391.3 29.1-390-79.7 1.3-31.4 3.7-41.7 22.9-72.2s82.6-110.3 97.1-96.8 29 50.7 30 64c0 24 42 46 87 46 23 0 45 5 48 10 3 6 20 17 37 26 25 13 35 14 61 3 24-10 32-10 35-1 2 7 23 12 51 12 37 0 52-5 67-22 34-41 47-69 35-81-16-16-14-27 5-27 33 0 47-29 45-93-4.2-36.7-6.9-47.5-11-65s-8.3-39.5-25-59c-14-14-14-17 2-29 10-7 28-14 41-14 27 0 40.4-20 52-44 20.7-36.4 39.2-82 40-118 0-37-5-46-30-63-44-42.5-62.9-108-70-168 0-41-4-55-20-65-11-7-11.9-12.3-20-27-22.3-34.5-30-84.4-50-115-26.3-48.3 15.7-103.2 12-142a186 186 0 0 0-13-63c-18-40.8-25.8-94.9-26-133 0-47 1.7-74.1 70.8-156.3 69-82.2 172-108.3 325.7-110.8 153.9-2.4 232.3 26 301.7 96.4C1270.6 181.7 1292 221 1293 270c0 41-11 106-23 135-16 38-18 126-4 132 17 6 18 42 3 80-48 120-51 126-73 151-14 16-19 34-17 66-5.1 55.6-34.2 123.8-79 168-15 10-20 24-20 54 .4 37.2 17.5 69.7 19 93 2 34 47 66 120 85 71.5 15.2 147.1 52.7 205 76 8 0 31 9 53 19 21 10 64 32 96 47 61.4 37.6 141.7 71.6 181.9 137.2 28 34.1 44.7 69.3 45.1 100.8 39.1 110.5-713.6 95.8-900 96-172.6-3.4-373.5-1.8-510-11.3z"
  />
  <path
    d="M440 1529c-22-30-22-30-44-10-37 35-86 19-86-28 0-27-30-28-53-1-9 11-22 20-29 20-14 0-50.2-51.4-58-82-7.8-30.6-57.5-124.2-82-166-57.1-86.2-54.7-182.3-28-229 26.7-46.7 71-83.5 104-97s56-16 106-16 73 4 120 35c53.5 37.6 89.3 49 130 85 19 16 40 29 47 30 13 0 83 39 83 47 0 25-90 47-104 25-7-12-86-15-86-3 0 5 8 26 19 48 10 21 29 61 41 88 12 28 31 66 41 86 25 48 17 65-32 73-47 8-60 30-30 55 18 16 19 21 8 44-16 35-41 34-67-4z"
  />
</svg>
