<svg id="root" xmlns="http://www.w3.org/2000/svg" width="768" height="441" viewBox="0 0 7680 4410">
  <g>
    <path
      d="M2929 2977c-13-5-40-10-60-11-87-5-170-109-177-221-3-51 0-71 23-118 14-32 35-62 45-67s25-16 32-23c7-8 34-26 58-42 25-15 47-31 50-35s32-25 65-46c33-22 87-59 120-81 54-37 321-206 485-306 36-22 85-46 108-53 39-12 50-11 100 6 77 27 89 40 67 73-34 52-1 101 54 80 27-10 30-9 40 16 14 34 28 112 23 132-2 12-13 16-40 15-35-1-37 1-46 38-9 36-8 40 18 61l27 22-38 29c-21 16-45 34-53 41-74 60-224 164-285 198-27 15-57 33-65 39-8 7-45 29-82 50-37 20-70 40-72 45-3 5-18 12-33 16-16 3-37 15-48 24-11 10-58 40-105 66-89 49-168 69-211 52z" />
    <path
      d="M4318 2560c-14-4-64-26-110-47-45-22-99-46-118-53s-40-17-45-21c-6-4-39-22-73-39-45-22-62-36-62-50 0-26 22-25 68 3 78 49 301 152 369 171 43 11 290 5 458-11 97-10 235-6 235 7 0 16-71 24-355 40-201 11-330 11-367 0zm257-186c-50-17-143-60-209-96-145-79-199-100-257-101-48-1-62 2-83 22-24 23-26 23-31 5-4-10-15-41-25-68-21-53-21-55 27-106 13-14 40-43 60-65s33-31 28-20c-12 31-11 58 3 62 14 5 64-45 123-124 22-29 46-53 55-53 11 0 9 8-11 34-15 19-30 36-33 38-17 8-121 138-145 182-30 54-29 65 8 58 42-8 111 16 208 70 187 106 245 129 352 144 17 3 39 7 51 9 12 3 56-2 98-10 94-18 99-18 94-3-12 35-232 51-313 22z" />
    <path
      d="M4677 2174c-1-1-22-5-47-8-65-9-105-18-175-41-91-29-218-48-284-42l-66 6 28-24c25-22 34-24 85-19 96 10 211 35 281 61 134 50 418 41 601-20 36-11 175-76 309-144 135-67 247-121 249-118 2 2-16 14-39 26-24 12-48 27-54 34-18 22-155 94-168 89-8-3-24 6-38 20-31 30-146 87-246 120-91 30-221 58-233 51-5-3-12-1-15 5-6 9-178 13-188 4zm-803-96c8-12 63-70 121-130 74-76 105-116 105-132 0-26 51-191 75-243 8-17 15-35 15-41 0-22 58-110 100-152 47-46 269-205 350-251 25-14 78-47 119-73 78-51 220-126 236-126 12 0-70 51-245 151-14 8-43 28-65 45-22 16-80 57-130 89-49 32-92 61-95 65-3 3-21 17-40 30-83 57-200 198-200 241 0 8-4 19-8 25-9 9-42 112-62 193-13 50-5 65 18 36 10-11 40-29 67-39 28-10 68-26 90-36 125-57 173-76 299-116 147-47 192-53 110-15-27 13-60 31-74 41-14 9-47 23-75 30-27 7-54 16-60 20-5 4-44 20-85 34-41 15-88 33-105 40-16 7-57 24-90 37s-80 34-105 47c-44 24-177 155-222 219-13 18-31 33-41 33-17 0-17-2-3-22z" />
    <path
      d="M4505 2070c-16-4-23-8-14-9 69-5 270-100 549-261 8-5 65-36 125-70 61-34 157-91 215-126 58-36 112-68 120-71 8-4 26-14 40-23 14-10 72-44 130-75 58-32 142-82 187-112 89-58 93-59 93-40 0 7-18 23-40 36-22 12-45 28-52 34-18 17-148 88-148 81 0-4-17 9-38 27-41 37-108 80-181 118-25 13-48 26-51 31-7 11-171 102-188 104-8 2-20 9-26 17-11 15-111 79-123 79-3 0-21 11-39 25s-34 20-36 15-23 6-47 25-50 35-57 35-24 10-38 23c-13 12-46 33-73 46-26 13-64 32-83 42-49 24-156 59-177 58-10-1-31-5-48-9zm-1015-80c-6-16-20-36-30-45s-21-38-25-64c-6-44-2-70 25-171 5-19 19-80 30-135 12-55 28-114 36-132 8-17 14-37 14-45s4-18 8-24c5-5 17-44 27-87 9-42 21-80 26-83 12-7 11 3-1 40-8 24-67 258-83 331-2 6-6 16-10 23-5 6-6 15-4 20 3 4-3 39-14 77-28 108-25 171 11 238 34 64 36 73 16 80-9 4-19-5-26-23zm746 21-59-6 73-80c41-44 85-93 99-108 28-31 61-53 61-40 0 4-19 29-42 54-24 26-52 57-63 70s-30 36-43 51c-21 25-22 29-7 34 10 4 27-3 45-21 21-20 35-26 53-21 47 11 282-77 428-160 42-24 79-44 83-44s26-12 49-28c23-15 58-35 77-45 19-9 42-21 50-26 8-6 35-19 60-30 70-32 371-190 410-215 19-12 80-51 135-86s156-100 225-145c132-88 189-119 197-112 5 5-6 14-112 85-39 26-82 55-95 65-14 10-72 47-130 82s-123 74-145 88c-22 13-67 39-100 57s-64 36-70 40c-5 4-53 30-105 57-52 28-137 74-189 102s-97 51-100 51c-7 0-175 83-181 90-10 12-222 127-353 192-47 23-157 58-177 56-8-1-42-4-74-7zm-626-67c0-3 6-20 14-37 7-18 26-66 41-107 24-64 39-86 104-150 42-42 92-87 111-100 33-23 68-51 94-75 6-6 34-26 61-45 28-19 52-38 55-41s23-14 45-26c22-11 66-35 98-53s61-29 65-25 1 10-6 13c-8 2-28 16-45 31-18 15-63 49-102 76-38 27-79 57-89 67-11 10-23 18-27 18s-14 6-22 14-45 38-83 67c-38 28-76 59-85 68-10 9-30 28-46 42-40 37-124 205-117 234 4 17 0 24-18 29-29 7-48 8-48 0z" />
    <path
      d="M3937 1833c-23-120-23-205 1-226 27-25 31-21 21 19-7 25-6 70 5 155 19 146 19 139 3 139-9 0-19-30-30-87zm439-184c12-13 39-51 62-84 54-79 59-83 351-264 226-139 829-436 908-447l38-6-25 21c-14 11-38 26-55 32-33 13-102 47-216 107-57 31-79 38-88 29-8-8-11-7-11 4 0 9-34 32-82 56-241 119-296 146-323 158-17 7-38 19-46 27-8 9-55 37-105 64-164 88-296 187-342 257-36 56-34 53-62 62l-25 7 21-23zm230-90c27-18 73-47 101-65 29-19 56-34 60-34 3 0 14-6 22-14 21-19 172-100 366-197 88-43 167-84 175-89 22-14 521-261 548-271 31-12 28-3-5 13-28 14-126 67-333 177-124 67-392 199-470 232-30 13-73 36-95 50-104 69-306 190-346 208-66 31-79 25-23-10z" />
  </g>
</svg>