<svg xmlns="http://www.w3.org/2000/svg" id="root" viewBox="0 0 99 63">
  <path
    d="M 6.976562 62.824219 C 6.59375 62.675781 5.804688 62.527344 5.21875 62.5 C 2.667969 62.351562 0.234375 59.28125 0.0273438 55.976562 C -0.0585938 54.472656 0.0273438 53.882812 0.703125 52.496094 C 1.113281 51.550781 1.730469 50.667969 2.023438 50.519531 C 2.316406 50.371094 2.753906 50.046875 2.960938 49.839844 C 3.164062 49.605469 3.957031 49.074219 4.660156 48.601562 C 5.394531 48.160156 6.039062 47.6875 6.125 47.566406 C 6.214844 47.449219 7.0625 46.832031 8.03125 46.210938 C 9 45.5625 10.582031 44.46875 11.550781 43.820312 C 13.132812 42.730469 20.960938 37.742188 25.769531 34.789062 C 26.824219 34.140625 28.261719 33.433594 28.933594 33.226562 C 30.078125 32.871094 30.398438 32.902344 31.867188 33.402344 C 34.125 34.199219 34.476562 34.585938 33.832031 35.558594 C 32.832031 37.09375 33.800781 38.539062 35.414062 37.917969 C 36.203125 37.625 36.292969 37.652344 36.585938 38.390625 C 36.996094 39.394531 37.40625 41.695312 37.261719 42.285156 C 37.203125 42.640625 36.878906 42.757812 36.085938 42.730469 C 35.0625 42.699219 35.003906 42.757812 34.738281 43.851562 C 34.476562 44.914062 34.503906 45.03125 35.265625 45.648438 L 36.058594 46.300781 L 34.945312 47.15625 C 34.328125 47.628906 33.625 48.160156 33.390625 48.363281 C 31.222656 50.136719 26.824219 53.203125 25.035156 54.207031 C 24.242188 54.648438 23.363281 55.179688 23.128906 55.359375 C 22.894531 55.566406 21.8125 56.214844 20.726562 56.832031 C 19.640625 57.425781 18.671875 58.015625 18.613281 58.160156 C 18.527344 58.308594 18.085938 58.515625 17.648438 58.632812 C 17.179688 58.722656 16.5625 59.078125 16.242188 59.34375 C 15.917969 59.636719 14.539062 60.523438 13.164062 61.289062 C 10.554688 62.734375 8.238281 63.324219 6.976562 62.824219 Z M 6.976562 62.824219 "
  />
  <path
    d="M 47.695312 50.519531 C 47.285156 50.402344 45.820312 49.75 44.472656 49.132812 C 43.152344 48.484375 41.570312 47.773438 41.011719 47.566406 C 40.457031 47.363281 39.839844 47.066406 39.695312 46.949219 C 39.519531 46.832031 38.550781 46.300781 37.554688 45.796875 C 36.234375 45.148438 35.734375 44.734375 35.734375 44.320312 C 35.734375 43.554688 36.382812 43.585938 37.730469 44.410156 C 40.015625 45.855469 46.554688 48.894531 48.546875 49.457031 C 49.808594 49.78125 57.050781 49.605469 61.972656 49.132812 C 64.816406 48.835938 68.863281 48.953125 68.863281 49.339844 C 68.863281 49.8125 66.78125 50.046875 58.457031 50.519531 C 52.5625 50.84375 48.78125 50.84375 47.695312 50.519531 Z M 55.230469 45.03125 C 53.765625 44.527344 51.039062 43.261719 49.105469 42.199219 C 44.851562 39.867188 43.269531 39.246094 41.570312 39.21875 C 40.164062 39.1875 39.753906 39.277344 39.136719 39.867188 C 38.433594 40.546875 38.375 40.546875 38.226562 40.015625 C 38.109375 39.71875 37.789062 38.804688 37.496094 38.007812 C 36.878906 36.441406 36.878906 36.382812 38.285156 34.878906 C 38.667969 34.464844 39.460938 33.609375 40.046875 32.960938 C 40.632812 32.3125 41.011719 32.046875 40.867188 32.371094 C 40.515625 33.285156 40.542969 34.082031 40.953125 34.199219 C 41.363281 34.347656 42.832031 32.871094 44.558594 30.542969 C 45.207031 29.6875 45.910156 28.976562 46.171875 28.976562 C 46.496094 28.976562 46.4375 29.214844 45.851562 29.980469 C 45.410156 30.542969 44.96875 31.042969 44.882812 31.101562 C 44.382812 31.339844 41.335938 35.175781 40.632812 36.472656 C 39.753906 38.066406 39.78125 38.390625 40.867188 38.183594 C 42.097656 37.949219 44.121094 38.65625 46.964844 40.25 C 52.445312 43.378906 54.148438 44.054688 57.285156 44.5 C 57.78125 44.585938 58.425781 44.707031 58.777344 44.765625 C 59.128906 44.851562 60.421875 44.707031 61.652344 44.46875 C 64.40625 43.9375 64.554688 43.9375 64.40625 44.382812 C 64.054688 45.414062 57.605469 45.886719 55.230469 45.03125 Z M 55.230469 45.03125 "
  />
  <path
    d="M 58.222656 39.128906 C 58.191406 39.097656 57.578125 38.980469 56.84375 38.890625 C 54.9375 38.625 53.765625 38.363281 51.714844 37.683594 C 49.046875 36.828125 45.324219 36.265625 43.386719 36.441406 L 41.453125 36.621094 L 42.273438 35.914062 C 43.007812 35.261719 43.269531 35.203125 44.765625 35.351562 C 47.578125 35.648438 50.949219 36.382812 53.003906 37.152344 C 56.933594 38.625 65.257812 38.363281 70.621094 36.5625 C 71.679688 36.238281 75.753906 34.320312 79.679688 32.3125 C 83.640625 30.335938 86.921875 28.742188 86.980469 28.828125 C 87.039062 28.890625 86.511719 29.242188 85.835938 29.597656 C 85.132812 29.953125 84.429688 30.394531 84.253906 30.601562 C 83.726562 31.25 79.710938 33.375 79.328125 33.226562 C 79.09375 33.136719 78.625 33.402344 78.214844 33.816406 C 77.308594 34.703125 73.933594 36.382812 71.003906 37.359375 C 68.335938 38.242188 64.523438 39.070312 64.171875 38.863281 C 64.027344 38.773438 63.820312 38.832031 63.734375 39.011719 C 63.558594 39.277344 58.515625 39.394531 58.222656 39.128906 Z M 34.679688 36.296875 C 34.914062 35.941406 36.527344 34.230469 38.226562 32.460938 C 40.398438 30.21875 41.304688 29.035156 41.304688 28.566406 C 41.304688 27.796875 42.800781 22.929688 43.503906 21.394531 C 43.738281 20.890625 43.945312 20.359375 43.945312 20.183594 C 43.945312 19.535156 45.644531 16.9375 46.875 15.699219 C 48.253906 14.339844 54.761719 9.648438 57.136719 8.292969 C 57.871094 7.878906 59.421875 6.90625 60.625 6.136719 C 62.914062 4.632812 67.074219 2.417969 67.542969 2.417969 C 67.894531 2.417969 65.492188 3.925781 60.363281 6.875 C 59.953125 7.113281 59.101562 7.703125 58.457031 8.203125 C 57.8125 8.675781 56.109375 9.886719 54.644531 10.828125 C 53.207031 11.773438 51.949219 12.628906 51.859375 12.746094 C 51.773438 12.835938 51.246094 13.25 50.6875 13.632812 C 48.253906 15.316406 44.824219 19.476562 44.824219 20.746094 C 44.824219 20.980469 44.707031 21.304688 44.589844 21.480469 C 44.324219 21.746094 43.359375 24.789062 42.773438 27.175781 C 42.390625 28.652344 42.625 29.09375 43.300781 28.238281 C 43.59375 27.914062 44.472656 27.382812 45.265625 27.089844 C 46.085938 26.792969 47.257812 26.320312 47.902344 26.027344 C 51.566406 24.34375 52.972656 23.785156 56.667969 22.605469 C 60.976562 21.21875 62.296875 21.039062 59.894531 22.160156 C 59.101562 22.542969 58.132812 23.074219 57.722656 23.371094 C 57.3125 23.636719 56.34375 24.050781 55.523438 24.257812 C 54.734375 24.460938 53.941406 24.726562 53.765625 24.847656 C 53.617188 24.964844 52.476562 25.4375 51.273438 25.851562 C 50.070312 26.292969 48.695312 26.824219 48.195312 27.03125 C 47.726562 27.238281 46.523438 27.738281 45.558594 28.121094 C 44.589844 28.503906 43.210938 29.125 42.480469 29.507812 C 41.1875 30.21875 37.289062 34.082031 35.96875 35.972656 C 35.589844 36.503906 35.0625 36.945312 34.769531 36.945312 C 34.269531 36.945312 34.269531 36.886719 34.679688 36.296875 Z M 34.679688 36.296875 "
  />
  <path
    d="M 53.179688 36.058594 C 52.710938 35.941406 52.503906 35.824219 52.769531 35.792969 C 54.792969 35.648438 60.683594 32.84375 68.863281 28.09375 C 69.097656 27.945312 70.769531 27.03125 72.527344 26.027344 C 74.316406 25.023438 77.128906 23.339844 78.832031 22.308594 C 80.53125 21.246094 82.113281 20.300781 82.347656 20.214844 C 82.582031 20.09375 83.113281 19.800781 83.523438 19.535156 C 83.933594 19.238281 85.632812 18.238281 87.332031 17.320312 C 89.035156 16.378906 91.496094 14.902344 92.816406 14.015625 C 95.425781 12.304688 95.542969 12.277344 95.542969 12.835938 C 95.542969 13.042969 95.015625 13.515625 94.367188 13.898438 C 93.722656 14.253906 93.050781 14.726562 92.84375 14.902344 C 92.316406 15.402344 88.503906 17.5 88.503906 17.292969 C 88.503906 17.175781 88.007812 17.558594 87.390625 18.089844 C 86.191406 19.179688 84.226562 20.449219 82.085938 21.570312 C 81.351562 21.953125 80.679688 22.339844 80.589844 22.484375 C 80.386719 22.808594 75.578125 25.496094 75.078125 25.554688 C 74.84375 25.613281 74.492188 25.820312 74.316406 26.054688 C 73.992188 26.5 71.0625 28.386719 70.710938 28.386719 C 70.621094 28.386719 70.09375 28.710938 69.566406 29.125 C 69.039062 29.539062 68.570312 29.714844 68.511719 29.566406 C 68.453125 29.421875 67.835938 29.746094 67.132812 30.304688 C 66.429688 30.867188 65.667969 31.339844 65.460938 31.339844 C 65.257812 31.339844 64.757812 31.632812 64.347656 32.015625 C 63.96875 32.371094 63 32.992188 62.207031 33.375 C 61.445312 33.757812 60.332031 34.320312 59.777344 34.613281 C 58.339844 35.320312 55.203125 36.355469 54.585938 36.324219 C 54.292969 36.296875 53.675781 36.175781 53.179688 36.058594 Z M 23.421875 33.699219 C 23.246094 33.226562 22.835938 32.636719 22.542969 32.371094 C 22.25 32.105469 21.929688 31.25 21.8125 30.484375 C 21.632812 29.183594 21.75 28.417969 22.542969 25.4375 C 22.691406 24.875 23.101562 23.074219 23.421875 21.453125 C 23.773438 19.828125 24.242188 18.089844 24.476562 17.558594 C 24.714844 17.054688 24.890625 16.464844 24.890625 16.230469 C 24.890625 15.992188 25.007812 15.699219 25.125 15.523438 C 25.269531 15.375 25.621094 14.222656 25.914062 12.953125 C 26.179688 11.714844 26.53125 10.59375 26.675781 10.503906 C 27.027344 10.296875 27 10.59375 26.648438 11.683594 C 26.414062 12.394531 24.683594 19.296875 24.214844 21.453125 C 24.15625 21.628906 24.039062 21.925781 23.921875 22.132812 C 23.773438 22.308594 23.746094 22.574219 23.804688 22.722656 C 23.890625 22.839844 23.714844 23.871094 23.394531 24.992188 C 22.574219 28.179688 22.660156 30.039062 23.714844 32.015625 C 24.714844 33.90625 24.773438 34.171875 24.183594 34.378906 C 23.921875 34.496094 23.628906 34.230469 23.421875 33.699219 Z M 45.292969 34.320312 L 43.5625 34.140625 L 45.703125 31.78125 C 46.90625 30.484375 48.195312 29.035156 48.605469 28.59375 C 49.425781 27.679688 50.394531 27.03125 50.394531 27.414062 C 50.394531 27.53125 49.835938 28.269531 49.164062 29.007812 C 48.460938 29.773438 47.636719 30.6875 47.316406 31.074219 C 46.992188 31.457031 46.4375 32.136719 46.054688 32.578125 C 45.441406 33.316406 45.410156 33.433594 45.851562 33.582031 C 46.144531 33.699219 46.640625 33.492188 47.167969 32.960938 C 47.785156 32.371094 48.195312 32.195312 48.722656 32.339844 C 50.101562 32.667969 56.992188 30.070312 61.269531 27.621094 C 62.5 26.910156 63.585938 26.320312 63.703125 26.320312 C 63.820312 26.320312 64.464844 25.96875 65.140625 25.496094 C 65.816406 25.054688 66.839844 24.460938 67.398438 24.167969 C 67.953125 23.902344 68.628906 23.546875 68.863281 23.402344 C 69.097656 23.222656 69.890625 22.839844 70.621094 22.515625 C 72.675781 21.570312 81.5 16.910156 82.640625 16.171875 C 83.199219 15.816406 84.988281 14.664062 86.601562 13.632812 C 88.210938 12.601562 91.171875 10.683594 93.195312 9.355469 C 97.066406 6.757812 98.738281 5.84375 98.972656 6.050781 C 99.117188 6.195312 98.796875 6.460938 95.6875 8.558594 C 94.542969 9.324219 93.285156 10.179688 92.902344 10.476562 C 92.492188 10.769531 90.792969 11.863281 89.09375 12.894531 C 87.390625 13.929688 85.484375 15.078125 84.839844 15.492188 C 84.195312 15.875 82.875 16.644531 81.910156 17.175781 C 80.941406 17.707031 80.03125 18.238281 79.855469 18.355469 C 79.710938 18.472656 78.304688 19.238281 76.777344 20.035156 C 75.253906 20.863281 72.761719 22.21875 71.238281 23.046875 C 69.714844 23.871094 68.394531 24.550781 68.304688 24.550781 C 68.101562 24.550781 63.175781 27 63 27.207031 C 62.707031 27.5625 56.492188 30.953125 52.652344 32.871094 C 51.273438 33.550781 48.050781 34.585938 47.460938 34.523438 C 47.226562 34.496094 46.230469 34.40625 45.292969 34.320312 Z M 26.941406 32.339844 C 26.941406 32.253906 27.117188 31.75 27.351562 31.25 C 27.554688 30.71875 28.113281 29.300781 28.554688 28.09375 C 29.257812 26.203125 29.695312 25.554688 31.601562 23.667969 C 32.832031 22.425781 34.300781 21.097656 34.855469 20.714844 C 35.824219 20.035156 36.851562 19.210938 37.613281 18.503906 C 37.789062 18.324219 38.609375 17.734375 39.402344 17.175781 C 40.222656 16.613281 40.925781 16.054688 41.011719 15.964844 C 41.101562 15.875 41.6875 15.550781 42.332031 15.195312 C 42.976562 14.871094 44.265625 14.164062 45.207031 13.632812 C 46.144531 13.101562 46.992188 12.777344 47.109375 12.894531 C 47.226562 13.011719 47.140625 13.191406 46.933594 13.277344 C 46.699219 13.339844 46.113281 13.75 45.617188 14.195312 C 45.085938 14.636719 43.769531 15.640625 42.625 16.4375 C 41.511719 17.234375 40.308594 18.117188 40.015625 18.414062 C 39.695312 18.707031 39.34375 18.945312 39.222656 18.945312 C 39.105469 18.945312 38.8125 19.121094 38.578125 19.359375 C 38.34375 19.59375 37.261719 20.480469 36.144531 21.335938 C 35.03125 22.160156 33.917969 23.074219 33.65625 23.339844 C 33.359375 23.605469 32.773438 24.167969 32.304688 24.582031 C 31.132812 25.671875 28.671875 30.628906 28.875 31.484375 C 28.992188 31.988281 28.875 32.195312 28.347656 32.339844 C 27.496094 32.546875 26.941406 32.578125 26.941406 32.339844 Z M 26.941406 32.339844 "
  />
  <path
    d="M 36.527344 29.066406 C 35.851562 25.523438 35.851562 23.015625 36.558594 22.398438 C 37.347656 21.660156 37.464844 21.777344 37.171875 22.957031 C 36.96875 23.695312 36.996094 25.023438 37.320312 27.53125 C 37.875 31.839844 37.875 31.632812 37.40625 31.632812 C 37.144531 31.632812 36.851562 30.75 36.527344 29.066406 Z M 49.398438 23.636719 C 49.75 23.253906 50.539062 22.132812 51.214844 21.15625 C 52.796875 18.828125 52.945312 18.707031 61.503906 13.367188 C 68.128906 9.265625 85.808594 0.5 88.125 0.175781 L 89.238281 0 L 88.503906 0.621094 C 88.09375 0.945312 87.390625 1.386719 86.894531 1.5625 C 85.925781 1.949219 83.902344 2.949219 80.5625 4.722656 C 78.890625 5.636719 78.246094 5.84375 77.980469 5.578125 C 77.746094 5.339844 77.660156 5.371094 77.660156 5.695312 C 77.660156 5.960938 76.660156 6.640625 75.253906 7.347656 C 68.1875 10.859375 66.578125 11.65625 65.785156 12.011719 C 65.285156 12.214844 64.671875 12.570312 64.4375 12.808594 C 64.203125 13.074219 62.824219 13.898438 61.359375 14.695312 C 56.550781 17.292969 52.679688 20.214844 51.332031 22.277344 C 50.277344 23.929688 50.335938 23.84375 49.515625 24.109375 L 48.78125 24.316406 Z M 56.140625 20.980469 C 56.933594 20.449219 58.28125 19.59375 59.101562 19.0625 C 59.953125 18.503906 60.742188 18.058594 60.859375 18.058594 C 60.949219 18.058594 61.269531 17.882812 61.503906 17.644531 C 62.121094 17.085938 66.546875 14.695312 72.234375 11.832031 C 74.816406 10.5625 77.128906 9.355469 77.367188 9.207031 C 78.011719 8.792969 92.640625 1.503906 93.429688 1.210938 C 94.339844 0.855469 94.25 1.121094 93.285156 1.59375 C 92.464844 2.007812 89.589844 3.570312 83.523438 6.816406 C 79.886719 8.792969 72.03125 12.6875 69.742188 13.664062 C 68.863281 14.046875 67.601562 14.726562 66.957031 15.136719 C 63.910156 17.175781 57.988281 20.746094 56.816406 21.277344 C 54.878906 22.191406 54.5 22.011719 56.140625 20.980469 Z M 56.140625 20.980469 "
  />
</svg>
