<svg xmlns="http://www.w3.org/2000/svg" id="root" viewBox="0 0 100 109">
  <path
    d="M 5.382812 103.621094 C 5.484375 100.699219 5.554688 98.109375 5.519531 97.910156 C 5.417969 92.765625 5.519531 85.707031 5.722656 82.816406 C 5.925781 79.625 5.890625 79.019531 5.453125 78.851562 C 5.078125 78.714844 4.84375 79.050781 4.570312 80.160156 C 4.265625 81.40625 4.0625 81.675781 3.421875 81.675781 C 2.8125 81.675781 2.574219 81.910156 2.40625 82.648438 C 2.304688 83.1875 1.996094 83.824219 1.726562 84.027344 C 1.050781 84.597656 -0.238281 82.816406 0.0351562 81.675781 C 0.167969 81.203125 0.304688 80.160156 0.371094 79.320312 C 0.441406 78.480469 0.8125 76.53125 1.183594 74.953125 C 1.558594 73.339844 1.929688 70.113281 2.066406 67.558594 C 2.371094 61.070312 2.574219 60.433594 4.976562 58.785156 C 6.09375 58.046875 6.976562 57.339844 6.976562 57.171875 C 6.976562 57.039062 7.347656 56.734375 7.789062 56.535156 C 8.566406 56.199219 8.601562 56.027344 8.433594 54.214844 C 8.332031 53.140625 8.128906 52.128906 7.957031 51.960938 C 7.28125 51.222656 7.6875 50.148438 8.941406 49.273438 C 10.566406 48.164062 12.429688 48.097656 13.984375 49.171875 C 15 49.84375 15.101562 50.046875 15.101562 51.761719 C 15.101562 54.585938 15.441406 56.128906 16.050781 56.128906 C 16.324219 56.128906 16.832031 56.332031 17.101562 56.601562 C 17.40625 56.835938 18.488281 57.304688 19.503906 57.644531 C 20.929688 58.078125 21.742188 58.617188 22.960938 59.960938 C 23.976562 61.070312 24.652344 61.574219 24.855469 61.339844 C 25.09375 61.070312 36.335938 25.273438 42.226562 5.882812 L 42.9375 3.5625 L 43.753906 4.46875 L 44.53125 5.378906 L 56.519531 5.378906 L 59.601562 7.023438 L 62.683594 8.671875 L 66.035156 8.199219 C 67.898438 7.933594 69.453125 7.796875 69.523438 7.832031 C 69.554688 7.898438 68.203125 8.503906 66.441406 9.140625 L 63.292969 10.351562 L 58.414062 9.34375 L 53.539062 8.367188 L 48.628906 9.074219 L 43.3125 9.914062 C 43.007812 10.015625 42.9375 9.714844 43.039062 8.972656 C 43.210938 7.964844 43.175781 7.964844 42.871094 8.738281 L 34.238281 36.234375 L 25.972656 62.917969 L 29.019531 66.3125 C 30.78125 68.296875 33.253906 71.589844 34.8125 74.113281 C 37.621094 78.582031 42.023438 84.867188 42.566406 85.238281 C 42.835938 85.371094 43.074219 83.421875 42.871094 82.515625 C 42.835938 82.347656 42.871094 79.457031 42.90625 76.128906 L 43.007812 68.09375 C 43.039062 65.808594 42.464844 65.238281 41.992188 67.121094 C 41.753906 68.0625 41.515625 68.398438 41.007812 68.398438 C 40.570312 68.398438 40.296875 68.667969 40.230469 69.136719 C 40.164062 69.539062 39.890625 70.046875 39.585938 70.28125 C 39.179688 70.648438 38.976562 70.582031 38.46875 69.910156 C 38.128906 69.441406 37.894531 69.003906 37.996094 68.867188 C 38.0625 68.769531 38.199219 67.792969 38.300781 66.71875 C 38.402344 65.675781 38.707031 63.859375 38.976562 62.71875 C 39.25 61.609375 39.554688 58.851562 39.65625 56.632812 C 39.960938 50.550781 40.230469 49.644531 42.125 48.433594 C 43.007812 47.863281 43.957031 47.121094 44.261719 46.785156 C 44.566406 46.417969 45.003906 46.082031 45.207031 46.011719 C 45.511719 45.914062 45.511719 45.273438 45.207031 43.390625 C 44.835938 40.9375 44.835938 40.90625 45.714844 40.0625 C 46.425781 39.359375 46.832031 39.222656 48.15625 39.292969 C 49 39.324219 50.085938 39.59375 50.523438 39.894531 C 51.234375 40.332031 51.335938 40.667969 51.335938 42.316406 C 51.335938 45.140625 51.539062 45.542969 53.472656 46.515625 C 54.453125 46.988281 55.433594 47.390625 55.671875 47.390625 C 55.910156 47.390625 56.960938 48.164062 57.976562 49.140625 C 58.992188 50.082031 59.871094 50.785156 59.9375 50.71875 C 60.074219 50.585938 72.570312 10.554688 74.738281 3.261719 C 75.789062 -0.167969 75.855469 -0.300781 76.429688 0.203125 C 76.769531 0.503906 76.972656 0.90625 76.871094 1.074219 C 76.734375 1.277344 78.765625 1.277344 82.050781 1.144531 L 87.402344 0.90625 L 93.160156 3.796875 L 96.511719 3.394531 C 98.375 3.191406 99.933594 3.058594 100 3.160156 C 100.066406 3.226562 98.714844 3.796875 97.019531 4.4375 L 93.90625 5.578125 L 89.636719 4.773438 L 85.371094 3.933594 L 81.136719 4.539062 C 78.800781 4.839844 76.566406 5.175781 76.160156 5.277344 C 75.3125 5.480469 75.515625 4.804688 66.78125 32.90625 L 60.886719 51.863281 L 63.730469 55.089844 C 65.289062 56.871094 67.761719 60.195312 69.21875 62.515625 C 72.039062 66.964844 75.03125 71.304688 78.191406 75.523438 C 78.359375 75.757812 77.851562 76.09375 76.734375 76.464844 C 75.820312 76.765625 74.703125 77.4375 74.261719 77.945312 C 73.824219 78.449219 72.738281 79.320312 71.824219 79.824219 C 70.03125 80.902344 69.148438 80.96875 63.292969 80.496094 C 60.515625 80.261719 60.140625 80.296875 60.140625 80.800781 C 60.140625 81.101562 60.277344 81.605469 60.480469 81.941406 C 60.75 82.414062 62.175781 90.949219 62.175781 92.128906 C 62.175781 92.597656 58.550781 92.328125 58.042969 91.824219 C 57.875 91.65625 57.671875 90.851562 57.636719 90.011719 C 57.570312 89.203125 57.027344 87.019531 56.417969 85.238281 L 55.332031 81.941406 L 54.25 82.144531 L 50.320312 82.683594 L 47.375 83.121094 C 47.339844 83.152344 47.136719 84.765625 46.933594 86.714844 C 46.222656 93.070312 46.496094 92.429688 44.394531 92.429688 C 42.972656 92.429688 42.53125 92.328125 42.53125 91.925781 C 42.53125 91.117188 41.921875 91.355469 41.109375 92.464844 C 40.671875 93.035156 39.417969 94.042969 38.332031 94.683594 C 36.402344 95.789062 36.234375 95.824219 33.761719 95.65625 C 26.582031 95.117188 24.921875 95.085938 24.921875 95.355469 C 24.921875 95.554688 25.128906 96.128906 25.398438 96.664062 C 25.636719 97.203125 26.246094 100.195312 26.683594 103.285156 L 27.53125 108.964844 L 25.128906 108.730469 C 23.804688 108.597656 22.6875 108.460938 22.621094 108.394531 C 22.316406 105.84375 21.75 103.332031 20.929688 100.898438 L 19.675781 97.066406 L 18.488281 97.234375 L 14.019531 97.808594 C 10.226562 98.277344 10.566406 97.773438 10.023438 103.488281 C 9.414062 109.371094 9.683594 108.898438 7.28125 108.898438 L 5.25 108.898438 Z M 5.382812 103.621094 "
  />
</svg>
