<svg xmlns="http://www.w3.org/2000/svg" id="root" viewBox="1533 639 6574 3283">
  <path
    d="M5313 3763c3-87 5-164 4-170-3-153 0-363 6-449 6-95 5-113-8-118-11-4-18 6-26 39-9 37-15 45-34 45-18 0-25 7-30 29-3 16-12 35-20 41-20 17-58-36-50-70 4-14 8-45 10-70s13-83 24-130c11-48 22-144 26-220 9-193 15-212 86-261 33-22 59-43 59-48 0-4 11-13 24-19 23-10 24-15 19-69-3-32-9-62-14-67-20-22-8-54 29-80 48-33 103-35 149-3 30 20 33 26 33 77 0 84 10 130 28 130 8 0 23 6 31 14 9 7 41 21 71 31 42 13 66 29 102 69 30 33 50 48 56 41 7-8 339-1073 513-1650l21-69 24 27 23 27h354l91 49 91 49 99-14c55-8 101-12 103-11 1 2-39 20-91 39l-93 36-144-30-144-29-145 21-157 25c-9 3-11-6-8-28 5-30 4-30-5-7l-255 818-244 794 90 101c52 59 125 157 171 232 83 133 213 320 229 331 8 4 15-54 9-81-1-5 0-91 1-190l3-239c1-68-16-85-30-29-7 28-14 38-29 38-13 0-21 8-23 22-2 12-10 27-19 34-12 11-18 9-33-11-10-14-17-27-14-31 2-3 6-32 9-64 3-31 12-85 20-119 8-33 17-115 20-181 9-181 17-208 73-244 26-17 54-39 63-49 9-11 22-21 28-23 9-3 9-22 0-78-11-73-11-74 15-99 21-21 33-25 72-23 25 1 57 9 70 18 21 13 24 23 24 72 0 84 6 96 63 125 29 14 58 26 65 26s38 23 68 52c30 28 56 49 58 47 4-4 373-1195 437-1412 31-102 33-106 50-91 10 9 16 21 13 26-4 6 56 6 153 2l158-7 85 43 85 43 99-12c55-6 101-10 103-7 2 2-38 19-88 38l-92 34-126-24-126-25-125 18c-69 9-135 19-147 22-25 6-19-14-277 822l-174 564 84 96c46 53 119 152 162 221a6073 6073 0 0 0 265 387c5 7-10 17-43 28-27 9-60 29-73 44s-45 41-72 56c-53 32-79 34-252 20-82-7-93-6-93 9 0 9 4 24 10 34 8 14 50 268 50 303 0 14-107 6-122-9-5-5-11-29-12-54-2-24-18-89-36-142l-32-98-32 6-116 16-87 13c-1 1-7 49-13 107-21 189-13 170-75 170-42 0-55-3-55-15 0-24-18-17-42 16-13 17-50 47-82 66-57 33-62 34-135 29-212-16-261-17-261-9 0 6 6 23 14 39 7 16 25 105 38 197l25 169-71-7c-39-4-72-8-74-10a1113 1113 0 0 0-50-223l-37-114-35 5-132 17c-112 14-102-1-118 169-18 175-10 161-81 161h-60l4-157zM1632 2310c2-219 0-280-9-280-7 0-13 9-13 21s-8 23-20 26c-11 3-20 14-20 25 0 13-6 18-17 16-23-4-26-65-8-142 7-30 16-96 19-147 10-134 13-146 49-169 73-46 76-51 65-109-8-48-7-53 14-71 23-19 52-19 94 2 17 8 20 18 20 59-1 42 3 53 24 69 14 11 39 22 55 26 17 3 46 21 66 40l35 35 92-298 163-533c39-129 73-237 76-240s11 3 18 14c12 16 23 17 118 11 103-7 104-7 166 25 61 30 66 31 132 22 79-10 78-4-4 26-57 21-57 21-148 3-85-18-97-18-190-3l-99 15-35 116-65 201c-46 135-200 636-200 652 0 8 26 45 59 84 32 38 81 106 110 152 28 45 83 126 121 180l70 97-40 13c-22 8-45 22-50 33-6 10-29 28-51 39-36 19-51 20-141 14l-101-7 6 24c7 26 37 209 37 222 0 5-19 7-42 5-40-3-43-5-46-33-2-16-14-64-28-106l-24-75-82 10c-94 13-91 8-103 141l-7 75h-69l3-280z"
  />
</svg>
