<svg id="root" xmlns="http://www.w3.org/2000/svg" width="768" height="441" viewBox="0 0 7680 4410">
  <g>
    <path
      d="M1960 4318c0-51 7-122 15-158 31-140 73-422 85-570 5-63 17-153 25-200 40-214 46-266 55-430 6-123 18-222 40-335 17-88 37-201 45-252 7-50 19-102 26-114 29-55 138-188 252-307 6-7 33-30 58-50 26-20 76-73 111-117 36-44 83-95 104-114 21-18 78-70 126-116 48-45 103-90 123-99 20-10 77-22 128-27 51-6 128-21 172-35 119-36 137-34 173 23 45 71 146 282 189 398 8 22 21 54 28 70 7 17 16 44 20 62 6 30 3 34-37 59-94 59-537 527-623 659-57 87-109 340-194 940-12 83-26 173-31 200-5 28-16 106-25 175-8 69-17 139-20 155-2 17-7 53-10 80-3 28-13 83-22 123l-16 72h-797v-92zm1760-2375c0-45-61-41-68 6-2 15 4 24 20 30 29 11 48-3 48-36z" />
    <path
      d="M2816 4333c2-43 12-148 23-233 40-307 70-527 76-551 3-13 17-98 30-189 44-299 67-419 106-572 6-22 16-38 24-38 18 0 19-12 5-26-12-12 57-110 167-234 116-131 447-455 483-472l34-17 62 44c34 24 81 61 105 81 83 71 344 339 393 404 48 65 98 152 103 180 1 8 12 42 23 75 27 74 73 297 150 730 11 61 22 121 25 135 10 46 56 303 79 445 13 77 29 160 36 184 6 25 9 64 5 88l-6 43H2813l3-77z" />
    <path
      d="M4792 4405c3-3-3-38-14-78-10-40-30-133-43-207-49-282-87-489-159-885-64-350-99-489-149-595-69-143-379-468-602-631-69-50-67-41-28-169 50-166 162-427 207-484 14-17 17-17 58-2 24 8 69 20 101 25 32 6 78 19 102 30 43 19 148 92 160 111 3 5 16 10 29 10 43 0 171 104 351 284 99 100 202 199 229 221s73 76 102 120 81 117 114 162c52 69 63 90 70 140 4 32 13 70 19 85 5 15 15 75 21 135 6 59 18 133 26 163s23 143 34 250c17 156 25 201 42 228 18 29 19 39 10 66-11 33-7 117 8 176 6 19 10 56 10 82 0 42 16 131 97 548 14 74 27 153 27 175l1 40-414 3c-228 1-412 0-409-3zm-948-2441c9-22-11-54-34-54-21 0-37 40-25 59 10 17 52 13 59-5zm-124-137c-77-200-142-337-201-426-30-44-31-48-33-175-1-136-10-169-44-181-22-6-71-101-79-151-5-27-2-34 11-34 27 0 28-22 1-73-22-44-24-57-18-130 4-52 13-93 25-112 10-16 18-38 18-48 0-24 94-123 147-154 48-28 75-30 193-16 96 12 147 36 179 86 11 18 34 52 51 77 47 71 61 153 50 295-11 145-21 183-57 212-28 23-28 24-28 141 0 115 1 120 28 156 21 26 26 40 19 49-38 45-130 254-187 422-21 61-40 113-44 117s-17-20-31-55z" />
  </g>
</svg>