<svg id="root" xmlns="http://www.w3.org/2000/svg" width="768" height="441" viewBox="0 0 7680 4410">
  <g>
    <path
      d="M2625 3561c-16-7-8-11 36-20 65-14 117-53 135-102 7-19 13-27 13-18 2 28-29 102-51 126-17 18-32 23-67 22-25 0-55-4-66-8zm-311-27c-39-26-93-82-94-96 0-5 29-8 65-8 57 0 69-3 90-25 44-43 28-163-38-288-32-62-89-117-120-117-10 0-43 23-73 51l-54 52v-67c0-37 7-82 14-101 32-75 114-69 186 13 52 59 124 205 146 297 23 97 23 220-1 265-30 59-60 65-121 24z" />
    <path
      d="M2450 3542c0-4 7-27 16-52 12-34 15-66 10-135-12-201-127-417-257-486l-27-14 90-64c140-100 193-102 287-11 43 42 141 182 141 201 0 7 18 68 40 135 50 155 51 201 4 330-18 51-34 58-169 79-55 9-108 18-117 20-10 2-18 0-18-3z" />
    <path
      d="M2817 3473c31-103 33-150 13-257-33-168-72-273-145-391-50-80-101-133-164-168l-44-25 89-27c155-48 144-46 144-24 0 27 33 32 153 25 108-6 233-33 289-62 47-24 118-86 118-102 0-8-9-16-20-19s-20-8-20-12c0-11 193-65 230-64 98 2 202 91 273 234 76 152 96 281 62 397-31 102-83 139-382 272-109 48-287 129-397 179-109 50-202 91-206 91s-1-21 7-47zm424-249c116-35 251-118 294-182 31-45 34-111 7-135-71-64-301 2-422 122-49 47-60 64-69 108-7 35-7 61-1 78 9 23 14 25 73 25 35 0 88-7 118-16z" />
    <path
      d="M3097 3215c-44-44-25-121 45-178 92-76 281-140 357-121 34 8 36 12 39 53 3 40 0 46-42 86-112 107-355 205-399 160zm-927 188-45-4-1-47c-1-44-13-75-62-155l-17-27 72-70c39-39 80-70 90-70 94 0 207 288 143 365-12 15-64 17-180 8z" />
    <path
      d="M2061 3381c-44-44-68-176-31-176 23 0 70 102 70 152 0 47-10 53-39 24zm753-71c0-52 1-74 3-47 2 26 2 68 0 95-2 26-3 4-3-48zm2463-109c-33-40-42-91-23-136 26-61 113-76 158-27 68 72 65 148-7 178-57 23-100 18-128-15zm-1582-63c72-37 102-74 132-163l13-40-5 38c-4 21-9 46-12 54-4 10-2 14 4 10 18-11 36-97 36-171 0-91-31-205-88-321-55-113-120-182-217-229l-70-34 48-16c66-22 187-21 239 3 22 10 66 42 98 71 47 42 67 72 107 154 57 119 74 195 68 309-8 154-86 258-227 302-20 6-23 4-17-10 4-11-7-5-30 15-38 33-74 50-102 50-9-1 1-10 23-22zm-963-166c-107-237-261-349-362-262-55 46-70 35-24-19 48-58 141-51 215 16 59 53 128 149 166 231 19 41 33 76 30 78-2 2-13-18-25-44z" />
    <path
      d="M4040 2950c0-5 8-29 18-52 12-30 17-68 16-128-2-195-93-380-233-479-34-23-61-44-61-46 0-10 201-65 236-65 48 0 123 42 182 100 47 48 105 158 122 235 26 113 10 235-41 306-22 31-239 148-239 129z" />
    <path
      d="M4180 2915c0-2 22-16 48-29 27-14 62-40 79-59 16-18 36-36 45-39 24-10 41-100 36-186-6-84-40-195-85-271-58-99-182-200-247-202-12 0 6-9 39-20 74-25 138-20 212 16 184 91 293 419 197 595-16 29-44 65-64 81-48 40-112 71-120 58-4-6-12-3-21 7-22 27-119 67-119 49zm430-175c-17-10-16-12 27-34 39-20 43-20 43-1 0 8 8 15 18 15 13 1 11 4-8 15-29 17-59 19-80 5z" />
    <path
      d="M4530 2724c0-3 7-31 16-62 40-137-18-354-124-469-17-17-56-49-88-70-47-29-55-38-39-41 11-2 70-20 130-39 99-31 117-34 185-28 43 3 93 15 117 26 51 25 128 108 114 122-10 10 32 106 52 119 6 4 13 37 15 75 5 84-17 141-80 209-33 37-70 60-165 106-126 59-133 62-133 52zm182-40c2-9 25-25 53-36 27-11 53-25 57-31 8-13 38 9 38 28 0 18-80 55-119 55-25 0-32-4-29-16zm168-54c-25-25-26-72-2-93 21-19 57-22 67-7 11 18 35 11 178-55 117-54 144-63 155-52 15 16 4 53-24 79-31 27-298 148-327 148-15 0-36-9-47-20zm-2140-65c19-23 134-80 224-110 59-20 95-25 170-25 112 0 122 11 54 60-72 53-185 82-333 88-121 4-129 3-115-13z" />
    <path
      d="M4944 2499c-5-8-9-59-9-115 0-91 2-100 18-96 13 3 17 16 19 51 5 107-10 189-28 160zm51-104c0-58 5-109 11-115 13-13 256-111 262-105 2 2 5 40 6 84 1 108-10 121-155 188-63 29-116 52-119 53-3 0-5-47-5-105zm-2032-4c-67-49-170-150-219-215-62-81-149-258-162-326-43-223-6-473 100-684 96-192 300-381 502-465 140-58 233-75 406-75 192 1 298 26 465 109 297 147 506 416 572 734 18 90 15 342-6 379-12 23-122 79-239 124-42 16-57 27-67 52-14 32-16 33-122 50-172 27-256 53-330 102-65 42-70 44-144 44-61 0-104 8-195 36-127 38-175 59-112 48 40-7 131 16 163 41 14 10 6 9-25-5-54-24-108-25-157-5-41 17-57 19-48 5 9-15 2-13-46 14-41 22-137 46-250 61-39 5-50 2-86-24z" />
    <path
      d="M5285 2358c4-13 9-63 12-113 3-49 12-102 19-117 30-58 2-120-58-133-18-4-50-26-73-49-22-22-56-53-75-68l-35-27h55c70-1 124 24 175 80 57 62 85 125 92 208 5 55 2 81-12 117-27 72-121 166-100 102zm155-28c0-18 131-96 235-140 55-23 135-60 178-81 42-22 105-46 138-54 38-8 72-24 89-40 26-25 128-70 137-61 12 12-17 28-194 111-103 48-255 121-336 162-172 86-247 117-247 103zm-5-66c4-16 11-71 14-123 6-94 6-95 35-102 16-5 33-6 38-3 11 7 10 131-2 175-11 40-33 63-69 74-22 7-23 5-16-21zm-1236-21-34-38 38 34c34 33 42 41 34 41-2 0-19-17-38-37z" />
    <path
      d="M4920 2257c-13-7-31-25-40-40-13-24-13-30 0-54 18-34 69-59 215-108 129-43 172-46 197-15 47 58 10 93-167 163-176 69-175 69-205 54zm625-57c8-13 8-134 0-159s-11-23 238-121c99-38 188-70 199-70 19 0 20 5 16 70-4 80-22 106-91 136-23 10-111 48-194 86-151 67-180 77-168 58zm-1656-24c16-19 74-36 121-35 33 1 31 2-21 19-101 31-114 33-100 16zm942-86c-18-23-50-52-71-66-28-19-36-30-33-45 7-24 9-24 55 7 50 35 111 111 104 129-9 23-20 18-55-25zm11-73-73-74 118-38c65-21 131-37 147-37 43 1 156 89 156 122 0 7-250 100-269 100-3 0-39-33-79-73zm-512 24c0-14 37-48 58-53 12-4 17 2 17 18 0 15-7 25-22 29-11 2-28 8-37 11s-16 1-16-5zm1127-40c-4-17 12-25 122-64 260-93 468-169 536-196 39-16 86-32 105-35l35-7-35 20c-33 17-689 281-736 295-16 5-23 2-27-13zm-1027-1c0-16 91-70 116-70 14 0 25 8 29 21 9 26 7 28-56 45-64 16-89 18-89 4zm1607-2c4-7 10-51 13-98 5-79 7-85 28-88s22 0 22 56c0 70-15 119-40 132s-33 13-23-2z" />
    <path
      d="M4609 1969c-29-29-22-68 17-94 40-27 274-89 336-90 55 0 81 17 58 39-14 13-268 96-294 96-6 0-18 16-25 35-10 29-17 35-42 35-16 0-38-9-50-21zm718-78-88-76 34-8c22-5 47-3 75 6 41 14 52 11 32-9-7-7 28-22 112-48 68-21 166-51 218-67s102-29 111-29c32 0 151 91 137 105-3 3-103 41-223 85l-218 81-23-22c-25-24-30-20-14 10 8 15 3 21-28 33l-37 14-88-75zm113-36c-13-14-28-25-34-25-5 0 3 13 19 30 16 16 31 28 33 25 3-3-5-16-18-30zm681 13c-1-46 3-78 9-78 12 0 12 94 0 130-6 17-8 2-9-52zm-911-88c0-5 2-10 5-10 7 0 301-84 566-161 244-71 278-79 246-54-10 7-51 19-90 25-40 6-92 22-117 34-59 30-356 121-494 152-127 28-116 27-116 14zm774-67c-14-19-47-48-71-64-44-27-45-28-20-34 15-4 37 0 57 10 34 18 110 83 110 95 0 4-11 12-24 18-22 10-27 7-52-25zm83-19c-11-14-37-38-59-55-55-39-39-37 20 2 48 32 72 56 72 71s-15 7-33-18z" />
  </g>
</svg>