<svg xmlns="http://www.w3.org/2000/svg" id="root" viewBox="0 0 100 74">
  <g>
    <path
      d="M 36.273438 73.472656 C 35.828125 73.1875 34.605469 72.167969 33.585938 71.144531 C 32.570312 70.125 28.335938 65.914062 24.179688 61.828125 L 16.648438 54.351562 L 19.007812 54.351562 C 20.3125 54.351562 22.265625 54.554688 23.40625 54.800781 C 25.199219 55.167969 25.648438 55.492188 27.195312 57.539062 C 28.171875 58.804688 29.027344 59.949219 29.148438 60.070312 C 29.269531 60.191406 30.65625 62.03125 32.203125 64.15625 C 33.75 66.28125 35.09375 68.121094 35.257812 68.242188 C 35.867188 68.691406 38.921875 73.148438 38.921875 73.554688 C 38.921875 74.085938 37.292969 74.046875 36.273438 73.472656 Z M 42.300781 73.351562 C 41.8125 73.023438 40.46875 71.390625 39.289062 69.753906 C 38.105469 68.160156 37.007812 66.773438 36.804688 66.691406 C 36.640625 66.609375 36.476562 66.28125 36.476562 65.996094 C 36.476562 65.710938 36.316406 65.382812 36.152344 65.300781 C 35.542969 65.054688 26.867188 53.328125 26.257812 52.019531 C 25.972656 51.285156 25.566406 50.671875 25.402344 50.671875 C 25.28125 50.671875 25.035156 50.140625 24.875 49.445312 C 24.710938 48.792969 24.464844 48.21875 24.34375 48.21875 C 24.019531 48.21875 22.632812 45.195312 22.632812 44.582031 C 22.632812 44.378906 22.511719 44.132812 22.347656 44.050781 C 22.144531 44.011719 20.351562 40.621094 18.359375 36.574219 L 14.652344 29.21875 L 14.980469 25.949219 C 15.589844 20.148438 15.753906 19.207031 16.160156 19.207031 C 16.363281 19.207031 16.6875 19.535156 16.851562 19.941406 C 17.257812 20.882812 20.273438 26.316406 20.597656 26.5625 C 20.71875 26.683594 21.046875 27.214844 21.332031 27.789062 C 21.574219 28.359375 22.144531 29.382812 22.550781 30.035156 C 22.917969 30.730469 23.894531 32.363281 24.628906 33.714844 C 25.402344 35.0625 27.152344 38.085938 28.578125 40.457031 C 33.34375 48.546875 36.886719 54.839844 36.886719 55.207031 C 36.886719 55.414062 37.089844 55.574219 37.292969 55.574219 C 37.535156 55.574219 37.699219 55.78125 37.699219 56.023438 C 37.699219 56.476562 39.53125 59.660156 42.058594 63.625 C 42.789062 64.8125 43.402344 65.875 43.402344 65.957031 C 43.402344 66.035156 44.335938 67.710938 45.476562 69.632812 C 46.578125 71.554688 47.390625 73.351562 47.269531 73.554688 C 46.863281 74.167969 43.277344 74.046875 42.300781 73.351562 Z M 50.160156 72.902344 C 49.589844 72.289062 49.101562 71.675781 49.101562 71.511719 C 49.101562 71.347656 47.390625 68.285156 45.3125 64.730469 C 43.195312 61.132812 41.242188 57.78125 40.917969 57.210938 C 40.589844 56.636719 40.265625 56.105469 40.144531 55.984375 C 40.019531 55.863281 39.695312 55.332031 39.410156 54.757812 C 39.164062 54.1875 38.269531 52.632812 37.496094 51.285156 C 36.683594 49.9375 35.828125 48.382812 35.582031 47.8125 C 35.296875 47.238281 34.972656 46.707031 34.847656 46.585938 C 34.726562 46.464844 33.996094 45.277344 33.21875 43.929688 C 32.488281 42.582031 31.511719 40.824219 31.0625 40.046875 C 30.613281 39.269531 29.921875 38.125 29.472656 37.472656 C 28.414062 35.960938 28.945312 35.796875 33.261719 36.371094 C 35.132812 36.574219 37.578125 36.777344 38.71875 36.777344 C 39.859375 36.777344 41.121094 37.023438 41.488281 37.308594 C 41.894531 37.554688 43.117188 40.578125 44.253906 43.929688 C 45.355469 47.320312 46.453125 50.425781 46.65625 50.875 C 46.863281 51.324219 47.148438 52.347656 47.308594 53.125 C 47.433594 53.898438 47.714844 54.757812 47.878906 54.960938 C 48 55.207031 48.492188 56.476562 48.855469 57.824219 C 49.265625 59.171875 49.710938 60.644531 49.914062 61.09375 C 50.117188 61.542969 50.363281 62.277344 50.445312 62.726562 C 50.566406 63.175781 51.421875 65.710938 52.316406 68.40625 C 53.214844 71.0625 53.867188 73.390625 53.742188 73.597656 C 53.296875 74.375 51.21875 73.964844 50.160156 72.902344 Z M 64.574219 73.433594 C 64.574219 72.941406 72.066406 61.378906 72.675781 60.886719 C 72.839844 60.765625 73.734375 59.417969 74.753906 57.824219 C 75.773438 56.269531 76.667969 54.882812 76.789062 54.757812 C 76.914062 54.636719 77.808594 53.289062 78.824219 51.695312 C 79.84375 50.140625 80.738281 48.75 80.863281 48.628906 C 80.984375 48.507812 82.246094 46.667969 83.710938 44.542969 C 85.136719 42.417969 86.480469 40.621094 86.644531 40.539062 C 86.808594 40.457031 86.96875 40.210938 86.96875 39.964844 C 86.96875 39.761719 87.742188 38.496094 88.640625 37.144531 C 90.511719 34.488281 90.472656 34.488281 93.484375 36.738281 C 94.257812 37.308594 94.992188 37.800781 95.03125 37.839844 C 95.195312 37.921875 94.21875 42.5 93.402344 45.5625 C 92.671875 48.34375 92.140625 49.609375 91.082031 51.082031 C 90.066406 52.46875 89.78125 52.835938 88.722656 54.105469 C 88.4375 54.429688 88.191406 54.882812 88.191406 55.125 C 88.191406 55.332031 88.027344 55.574219 87.867188 55.65625 C 87.703125 55.738281 85.015625 59.089844 81.921875 63.136719 C 78.824219 67.179688 75.648438 71.265625 74.875 72.25 L 73.449219 73.964844 L 69.011719 73.964844 C 65.632812 73.964844 64.574219 73.84375 64.574219 73.433594 Z M 56.511719 73.066406 C 56.308594 72.78125 56.023438 72.003906 55.902344 71.308594 C 55.453125 68.816406 54.394531 64.28125 53.582031 61.09375 C 53.089844 59.292969 52.441406 56.636719 52.15625 55.167969 C 51.625 52.632812 51.339844 51.449219 50.324219 47.445312 C 49.628906 44.707031 49.914062 44.417969 51.667969 45.972656 C 53.132812 47.320312 53.253906 47.566406 54.027344 51.980469 C 54.476562 54.511719 55.046875 57.78125 55.25 59.253906 C 55.65625 62.113281 57.121094 70.574219 57.488281 72.453125 C 57.734375 73.597656 57.246094 73.921875 56.511719 73.066406 Z M 60.707031 71.308594 C 61.234375 64.851562 62.742188 52.183594 63.351562 49.445312 C 63.679688 47.933594 63.71875 48.261719 63.515625 51.285156 C 63.394531 53.328125 63.148438 56.351562 62.945312 58.027344 C 62.742188 59.703125 62.292969 63.378906 61.96875 66.199219 C 61.359375 71.796875 60.339844 75.84375 60.707031 71.308594 Z M 63.882812 68.039062 C 64.046875 67.140625 64.371094 64.363281 64.65625 61.910156 C 65.144531 57.742188 65.390625 57.007812 67.628906 52.304688 C 68.929688 49.488281 70.316406 46.75 70.683594 46.175781 C 71.046875 45.605469 72.515625 42.785156 73.941406 39.84375 C 75.40625 36.941406 76.667969 34.449219 76.789062 34.328125 C 76.914062 34.203125 77.359375 33.386719 77.765625 32.488281 L 78.582031 30.851562 L 78.90625 33.101562 C 79.070312 34.328125 79.394531 37.636719 79.601562 40.457031 C 80.007812 46.011719 79.925781 46.421875 77.644531 49.445312 C 77.074219 50.222656 76.421875 51.203125 76.179688 51.570312 C 75.285156 53.082031 67.222656 64.894531 66.121094 66.242188 C 65.511719 67.058594 64.980469 67.917969 64.980469 68.160156 C 64.980469 68.367188 64.695312 68.816406 64.328125 69.101562 C 63.71875 69.59375 63.679688 69.511719 63.882812 68.039062 Z M 58.101562 62.238281 C 57.816406 60.480469 57.246094 57.167969 56.796875 54.921875 C 56.390625 52.632812 56.023438 50.222656 56.023438 49.609375 C 56.023438 48.957031 55.859375 48.179688 55.65625 47.894531 C 55.289062 47.320312 56.796875 42.90625 57.328125 42.90625 C 57.488281 42.90625 58.386719 43.726562 59.363281 44.746094 L 61.113281 46.542969 L 60.828125 49.324219 C 60.664062 50.835938 60.300781 54.675781 59.972656 57.824219 C 59.199219 65.464844 58.792969 66.445312 58.101562 62.238281 Z M 23 52.550781 C 22.917969 52.46875 20.964844 52.183594 18.644531 51.980469 C 16.320312 51.734375 14.203125 51.367188 13.917969 51.121094 C 13.675781 50.917969 13.105469 49.730469 12.65625 48.546875 C 12.25 47.363281 11.558594 45.769531 11.152344 45.03125 C 10.742188 44.296875 10.417969 43.480469 10.417969 43.195312 C 10.417969 42.90625 9.96875 41.804688 9.398438 40.703125 C 8.828125 39.597656 8.382812 38.496094 8.382812 38.289062 C 8.382812 37.921875 8.136719 37.308594 6.386719 33.347656 C 5.898438 32.242188 5.125 30.527344 4.71875 29.464844 C 4.308594 28.441406 3.414062 26.316406 2.679688 24.804688 C 1.988281 23.253906 1.460938 21.902344 1.582031 21.820312 C 1.664062 21.742188 3.007812 22.722656 4.554688 23.988281 C 6.101562 25.296875 8.054688 26.847656 8.871094 27.460938 C 11.558594 29.503906 13.105469 31.222656 14.082031 33.304688 C 14.613281 34.449219 16.199219 37.515625 17.625 40.171875 C 19.050781 42.867188 20.191406 45.277344 20.191406 45.5625 C 20.191406 45.851562 20.3125 46.175781 20.515625 46.257812 C 20.679688 46.339844 21.332031 47.484375 21.980469 48.832031 C 22.632812 50.183594 23.324219 51.613281 23.53125 52.019531 C 23.855469 52.632812 23.488281 53 23 52.550781 Z M 51.054688 42.375 C 48.613281 40.128906 48.492188 39.800781 46.78125 32.285156 C 46.046875 28.972656 45.679688 27.421875 44.90625 24.316406 C 44.214844 21.578125 44.296875 21.25 45.640625 21.25 C 46.167969 21.25 47.105469 21.046875 47.714844 20.839844 C 49.019531 20.308594 49.058594 20.351562 52.644531 25.335938 L 55.128906 28.808594 L 55.414062 34.53125 C 55.65625 39.679688 55.617188 40.457031 54.882812 42.296875 C 54.476562 43.398438 53.945312 44.339844 53.742188 44.417969 C 53.539062 44.5 52.316406 43.5625 51.054688 42.375 Z M 59.769531 41.96875 L 57.652344 39.84375 L 57.652344 28.402344 L 59.769531 24.109375 C 60.949219 21.742188 62.089844 19.695312 62.292969 19.574219 C 62.457031 19.410156 63.191406 19.535156 63.839844 19.777344 L 65.0625 20.226562 L 64.820312 26.152344 C 64.125 42.417969 63.882812 44.175781 62.375 44.132812 C 62.132812 44.09375 60.949219 43.152344 59.769531 41.96875 Z M 95.929688 44.011719 C 95.929688 43.929688 96.214844 42.90625 96.539062 41.765625 C 97.191406 39.640625 97.882812 39.148438 98.738281 40.210938 C 99.105469 40.621094 98.902344 41.109375 97.882812 42.417969 C 96.742188 43.847656 95.929688 44.5 95.929688 44.011719 Z M 81.878906 42.007812 C 81.796875 41.722656 81.554688 38.984375 81.351562 35.960938 C 81.105469 32.9375 80.820312 30.117188 80.660156 29.667969 C 80.210938 28.605469 80.902344 28.851562 84.851562 31.261719 C 87.867188 33.101562 88.761719 34 87.90625 34.410156 C 87.703125 34.488281 86.398438 36.328125 84.976562 38.535156 C 83.507812 40.703125 82.289062 42.5 82.207031 42.5 C 82.125 42.5 82.003906 42.253906 81.878906 42.007812 Z M 95.519531 35.308594 C 93.605469 34.082031 92.019531 32.894531 91.9375 32.691406 C 91.816406 32.363281 95.5625 26.234375 98.695312 21.742188 L 100 19.820312 L 100 28.726562 C 100 35.550781 99.878906 37.59375 99.511719 37.554688 C 99.226562 37.554688 97.433594 36.53125 95.519531 35.308594 Z M 36.476562 34.488281 C 36.152344 34.410156 33.953125 34.164062 31.632812 34 C 28.050781 33.753906 27.316406 33.589844 26.949219 32.9375 C 26.707031 32.488281 25.890625 31.140625 25.160156 29.953125 C 24.425781 28.769531 23.40625 27.011719 22.878906 26.070312 C 22.390625 25.089844 21.25 23.128906 20.394531 21.660156 C 19.578125 20.1875 18.519531 18.390625 18.113281 17.652344 C 17.664062 16.917969 17.054688 15.898438 16.730469 15.40625 C 16.28125 14.671875 16.242188 13.691406 16.566406 9.808594 C 16.8125 7.234375 17.097656 4.984375 17.257812 4.863281 C 17.625 4.496094 21.820312 6.417969 21.820312 6.949219 C 21.820312 7.152344 22.0625 7.5625 22.347656 7.847656 C 22.59375 8.132812 24.019531 10.136719 25.441406 12.261719 C 26.867188 14.386719 29.597656 18.390625 31.46875 21.167969 C 33.300781 23.945312 34.847656 26.359375 34.847656 26.5625 C 34.847656 26.808594 35.011719 26.972656 35.175781 26.972656 C 35.378906 26.972656 35.90625 27.707031 36.4375 28.605469 C 36.925781 29.503906 37.578125 30.445312 37.820312 30.730469 C 38.433594 31.382812 40.144531 34.121094 40.144531 34.488281 C 40.144531 34.734375 37.496094 34.734375 36.476562 34.488281 Z M 87.582031 30.160156 C 86.929688 29.75 86.074219 29.300781 85.75 29.136719 C 84.078125 28.359375 81.59375 26.5625 82.164062 26.5625 C 82.53125 26.5625 82.898438 26.441406 82.980469 26.277344 C 83.140625 25.828125 88.640625 23.210938 88.882812 23.414062 C 88.964844 23.539062 88.964844 25.253906 88.925781 27.257812 L 88.800781 30.933594 Z M 91.042969 25.664062 L 91.042969 22.066406 L 93.933594 20.636719 C 95.519531 19.820312 96.945312 19.207031 97.109375 19.289062 C 97.273438 19.371094 95.96875 21.617188 94.21875 24.316406 L 91.042969 29.21875 Z M 10.90625 26.152344 C 10.171875 25.460938 9.480469 24.929688 9.359375 24.929688 C 9.277344 24.929688 8.585938 24.398438 7.851562 23.703125 C 6.589844 22.597656 6.46875 22.148438 5.980469 18.714844 C 5.53125 15.285156 5.125 11.359375 4.472656 4.292969 L 4.230469 1.839844 L 5.695312 3.882812 C 6.507812 5.027344 7.648438 6.578125 8.21875 7.355469 C 10.335938 10.296875 10.664062 10.746094 12.371094 12.953125 C 13.351562 14.261719 14 15.527344 13.917969 15.898438 C 13.796875 16.265625 13.511719 18.714844 13.269531 21.414062 C 13.023438 24.070312 12.699219 26.519531 12.535156 26.808594 C 12.292969 27.257812 11.925781 27.09375 10.90625 26.152344 Z M 54.84375 24.4375 C 54.394531 23.703125 53.703125 22.722656 53.253906 22.230469 C 52.804688 21.78125 52.238281 20.964844 51.953125 20.433594 C 51.503906 19.574219 51.542969 19.371094 52.398438 18.714844 C 52.929688 18.308594 53.582031 17.816406 53.867188 17.574219 C 54.476562 17.082031 55.003906 17.042969 55.941406 17.53125 C 56.308594 17.777344 57.328125 18.0625 58.179688 18.183594 C 59.933594 18.472656 60.054688 18.960938 58.832031 21.128906 C 58.34375 21.984375 57.613281 23.375 57.121094 24.234375 C 56.675781 25.050781 56.144531 25.746094 55.984375 25.746094 C 55.820312 25.746094 55.332031 25.132812 54.84375 24.4375 Z M 1.746094 18.839844 C -0.371094 17.203125 -0.332031 17.367188 0.644531 12.261719 C 0.847656 11.035156 1.175781 9.234375 1.296875 8.253906 C 1.703125 5.515625 2.152344 5.886719 2.640625 9.316406 C 3.171875 12.996094 3.902344 20.148438 3.78125 20.269531 C 3.738281 20.308594 2.84375 19.65625 1.746094 18.839844 Z M 45.070312 18.921875 C 45.558594 17.613281 49.34375 10.378906 49.628906 10.296875 C 49.792969 10.214844 49.914062 9.929688 49.914062 9.6875 C 49.914062 9.398438 50.402344 8.214844 51.054688 6.988281 L 52.15625 4.742188 L 52.644531 9.644531 C 53.132812 14.425781 52.886719 16.347656 51.871094 16.347656 C 51.667969 16.347656 51.054688 16.796875 50.445312 17.328125 C 49.875 17.859375 48.734375 18.390625 47.921875 18.511719 C 47.105469 18.632812 46.128906 18.839844 45.679688 19.042969 C 45.234375 19.207031 44.988281 19.164062 45.070312 18.921875 Z M 61.519531 16.753906 C 61.398438 16.550781 60.746094 16.347656 60.09375 16.347656 C 59.445312 16.347656 58.832031 16.183594 58.710938 15.980469 C 58.589844 15.816406 57.773438 15.527344 56.878906 15.367188 L 55.289062 15.121094 L 55.128906 12.382812 C 55.046875 10.828125 55.003906 9.523438 55.085938 9.441406 C 55.25 9.15625 59.6875 11.484375 59.6875 11.851562 C 59.6875 12.054688 59.933594 12.464844 60.21875 12.75 C 60.746094 13.363281 62.621094 15.855469 63.109375 16.671875 C 63.476562 17.285156 61.886719 17.367188 61.519531 16.753906 Z M 12.453125 9.113281 C 11.679688 8.011719 10.90625 7.109375 10.742188 7.03125 C 10.582031 6.949219 10.417969 6.703125 10.417969 6.457031 C 10.417969 6.210938 9.847656 5.355469 9.195312 4.535156 C 7.566406 2.617188 7.445312 2.410156 6.589844 1.105469 L 5.859375 0 L 7.40625 0.65625 C 8.300781 0.980469 9.605469 1.554688 10.335938 1.878906 C 11.070312 2.25 12.371094 2.738281 13.1875 3.023438 C 14.125 3.351562 14.695312 3.800781 14.652344 4.25 C 14.652344 4.617188 14.613281 6.292969 14.570312 7.96875 C 14.53125 9.644531 14.328125 11.035156 14.164062 11.035156 C 13.960938 11.035156 13.1875 10.175781 12.453125 9.113281 Z M 54.925781 6.335938 C 54.558594 5.3125 55.085938 5.148438 55.617188 6.089844 C 55.902344 6.703125 55.902344 6.949219 55.617188 6.949219 C 55.371094 6.949219 55.085938 6.660156 54.925781 6.335938 Z M 54.925781 6.335938 "
    />
  </g>
</svg>
