<svg xmlns="http://www.w3.org/2000/svg" id="root" viewBox="0 0 100 74">
  <path
    d="M36.3 73.5 19 56.8l-1.2-2.4 5.7.5 5.5 5.2 10 13.5zm6-.1-6.6-8.7-10.4-14.3-10.6-21.2 1.5-10 5.3 8.8 15.2 27 5.7 9.3 4.9 9.3zm7.9-.5-7.1-12L32.7 43l-3.2-5.6 6.5-1 5.5.8 7 19.3 5.2 17zm14.4.5 20.7-31 3.3-5.3 5-.2.8 3.8-2.7 9-4 6.2-14.3 18zm-8-.3-4.2-17-2-8.7 2.2.9 2.2 8.3 2.7 15.9zm4.1-1.8-1.1-1.5 3.8-20.4-.9 12.3zM64 68l2-10.3 3.8-9.6 8.9-17.2.9 10-2 8.7-13.2 19.5zm-6-5.8-2.4-14.5 1.6-4.8 3.8 3.9-1.3 11.5zm-35-9.6L14 51 2.6 25l-.1-2.3L12 31l5.8 9.6L23.5 52zm28-10.2-5.1-14-.5-6 3.2-.7 6.4 6.9.4 6.4-.8 7.7h-3zm8.8-.4-2.1-3.6V28.2l4.6-8.6 2.7 2.1-2.4 21.1-2.7-.7zm36.1 2 2.5-3.5-1.9 3zm-14-2-1.2-12.3 5.7 3.2v3.5l-4.2 6.1Zm13.6-6.7-3.4-2.8 7.9-12.7-.5 17.8Zm-59-.8-9.6-1.6-10.2-17.5.5-10.3 3.9 1.5 2.8 3.5 11.4 17 4.8 7.4zm51-4.3-5.3-3.6 6.7-3.2-.1 7.5zm3.5-4.5 1-4 5.1-2.4-6 10zm-80 .5-3.8-4.4-2-10.7-1-9.3 8.6 12 .9 4.3-1.2 8.7zm43.8-1.8L52 20.2l3.4-2.7 3.1 2.1-1.4 4.6zm-53-5.6L1 9.6l1.7 1.2 1 9.5ZM45 19l6.8-13.7.6 3.5-.6 7.6zm16.4-2.1L55.3 15 55 9.4l4.8 2.9 3.2 4.4h-1.6zM12.5 9l-6-8 2.5.4 5.6 3.2-.4 6.5Z"
  />
</svg>
