<svg xmlns="http://www.w3.org/2000/svg" id="root" viewBox="0 0 99 55">
  <g>
    <path
      d="M 76.941406 53.242188 C 75.820312 52.230469 74.539062 51.238281 74.082031 51.054688 C 73.621094 50.871094 73.027344 50.480469 72.753906 50.226562 C 72.273438 49.765625 72 49.742188 69.414062 49.789062 C 64.859375 49.882812 62.707031 49.351562 59.09375 47.277344 C 57.855469 46.566406 57.078125 45.917969 56.347656 44.953125 C 55.386719 43.730469 55.066406 43.5 52.042969 42.003906 C 48.085938 40.070312 45.773438 39.496094 40.761719 39.21875 C 37.628906 39.058594 37.171875 38.964844 35.546875 38.296875 C 34.171875 37.722656 33.625 37.328125 33.050781 36.59375 C 32.664062 36.085938 32.042969 35.371094 31.679688 35.050781 L 31.015625 34.449219 L 31.496094 33.183594 C 32.160156 31.410156 32.523438 31.132812 34.628906 30.90625 C 35.613281 30.8125 37.238281 30.488281 38.246094 30.214844 C 42.136719 29.152344 41.632812 29.175781 45.957031 30.074219 C 51.472656 31.226562 51.496094 31.226562 54.148438 30.8125 C 55.476562 30.605469 57.148438 30.375 57.878906 30.304688 C 59.253906 30.167969 59.414062 30.027344 58.839844 29.476562 C 58.566406 29.175781 58.292969 29.175781 56.851562 29.453125 C 55.933594 29.636719 54.835938 29.84375 54.445312 29.914062 L 53.691406 30.050781 L 53.691406 26.644531 L 53.667969 23.210938 L 51.539062 20.816406 C 50.191406 19.320312 49.046875 17.777344 48.429688 16.601562 C 47.652344 15.128906 47.308594 14.714844 46.734375 14.507812 C 45.40625 14.046875 41.65625 12.066406 40.167969 11.050781 C 38.335938 9.785156 37.375 9.28125 36.78125 9.28125 C 36.53125 9.28125 36.277344 9.1875 36.1875 9.050781 C 36.050781 8.820312 39.917969 2.832031 40.214844 2.832031 C 40.695312 2.832031 43.210938 3.984375 48.246094 6.515625 C 53.257812 9.027344 55.203125 9.808594 58.75 10.777344 C 60.441406 11.214844 61.265625 11.835938 63.050781 13.886719 C 66.347656 17.730469 76.070312 27.425781 78.773438 29.589844 C 80.28125 30.8125 82.410156 32.539062 83.460938 33.460938 C 84.515625 34.382812 86.117188 35.648438 86.988281 36.246094 C 90.554688 38.757812 93.300781 40.785156 94.5625 41.84375 C 96.484375 43.457031 99 45.964844 99 46.242188 C 99 46.496094 95.019531 49.234375 93.050781 50.339844 C 90.855469 51.609375 84.285156 53.820312 79.320312 54.992188 C 79.136719 55.039062 78.0625 54.257812 76.941406 53.242188 Z M 28.886719 34.429688 C 28.816406 34.3125 29.117188 34.058594 29.550781 33.851562 C 30.417969 33.4375 30.488281 33.484375 30.121094 34.175781 C 29.871094 34.613281 29.117188 34.773438 28.886719 34.429688 Z M 28.886719 34.429688 "
    />
    <path
      d="M 27.238281 27.886719 C 27.308594 20.816406 27.214844 21.117188 31.222656 17.015625 C 34.835938 13.355469 36.371094 12.15625 37.992188 11.789062 C 39.183594 11.535156 39.253906 11.535156 40.214844 12.203125 C 40.761719 12.59375 42.410156 13.449219 43.851562 14.136719 C 46.550781 15.382812 47.285156 15.84375 47.285156 16.28125 C 47.285156 16.417969 47.652344 17.132812 48.085938 17.871094 C 48.519531 18.605469 48.886719 19.226562 48.886719 19.273438 C 48.886719 19.320312 48.199219 19.207031 47.351562 19.066406 C 46.484375 18.90625 44.148438 18.699219 42.113281 18.605469 L 38.429688 18.445312 L 37.125 19.941406 C 36.324219 20.863281 35.203125 21.808594 34.242188 22.382812 C 33.371094 22.914062 32.59375 23.441406 32.503906 23.605469 C 32.410156 23.742188 32.296875 25.054688 32.273438 26.527344 C 32.203125 29.636719 31.976562 30.742188 31.222656 31.550781 C 30.351562 32.515625 28.726562 33.460938 27.925781 33.460938 L 27.195312 33.460938 Z M 27.238281 27.886719 "
    />
    <path
      d="M 50.945312 29.453125 C 50.511719 29.175781 49.734375 28.855469 49.230469 28.761719 C 48.726562 28.671875 47.535156 28.234375 46.550781 27.796875 C 44.675781 26.941406 44.105469 26.964844 43.050781 27.910156 C 42.753906 28.1875 42.042969 28.394531 41.058594 28.484375 C 40.238281 28.554688 39.207031 28.785156 38.773438 28.945312 C 37.101562 29.636719 37.054688 29.636719 36.734375 28.695312 C 36.460938 27.839844 36.484375 27.820312 37.398438 26.988281 C 38.816406 25.722656 40.304688 25.378906 44.949219 25.238281 C 48.429688 25.125 48.910156 25.054688 48.839844 24.730469 C 48.773438 24.410156 48.269531 24.363281 45.363281 24.292969 C 41.335938 24.226562 39.917969 24.457031 37.925781 25.492188 C 36.300781 26.320312 33.601562 27.359375 33.464844 27.21875 C 33.394531 27.171875 33.28125 26.484375 33.210938 25.722656 L 33.050781 24.316406 L 35.019531 22.980469 C 36.09375 22.269531 37.214844 21.347656 37.492188 20.957031 C 37.742188 20.539062 38.132812 20.082031 38.316406 19.941406 C 38.816406 19.527344 44.21875 19.550781 47.101562 19.988281 L 49.414062 20.355469 L 51.105469 21.855469 L 52.777344 23.375 L 52.777344 26.691406 C 52.777344 29.984375 52.777344 30.007812 52.25 30.007812 C 51.976562 30.007812 51.378906 29.753906 50.945312 29.453125 Z M 31.039062 9.164062 C 28.957031 8.632812 25.636719 7.78125 23.667969 7.320312 C 18.015625 5.964844 16.164062 4.789062 17.101562 3.105469 C 17.972656 1.542969 21.449219 0.480469 27.03125 0.0898438 C 29.480469 -0.0703125 30.945312 -0.0234375 35.316406 0.390625 C 38.246094 0.667969 40.695312 0.964844 40.785156 1.035156 C 40.855469 1.125 40.671875 1.335938 40.375 1.542969 C 39.09375 2.394531 34.539062 9.234375 34.8125 9.902344 C 34.859375 10.0625 34.882812 10.199219 34.859375 10.175781 C 34.835938 10.175781 33.121094 9.71875 31.039062 9.164062 Z M 1.40625 5.25 C 5.019531 4.234375 8.429688 3.707031 14.515625 3.175781 L 16.164062 3.039062 L 16.164062 4.441406 L 14.402344 4.441406 C 11.082031 4.441406 4.882812 4.996094 0.144531 5.710938 C -0.289062 5.777344 0.28125 5.570312 1.40625 5.25 Z M 1.40625 5.25 "
    />
  </g>
</svg>
