<svg id="root" xmlns="http://www.w3.org/2000/svg" width="768" height="441" viewBox="0 0 7680 4410">
  <g>
    <path
      d="M5086 3639c-49-44-105-87-125-95s-46-25-58-36c-21-20-33-21-146-19-199 4-293-19-451-109-54-31-88-59-120-101-42-53-56-63-188-128-173-84-274-109-493-121-137-7-157-11-228-40-60-25-84-42-109-74-17-22-44-53-60-67l-29-26 21-55c29-77 45-89 137-99 43-4 114-18 158-30 170-46 148-45 337-6 241 50 242 50 358 32 58-9 131-19 163-22 60-6 67-12 42-36-12-13-24-13-87-1-40 8-88 17-105 20l-33 6v-148l-1-149-93-104c-59-65-109-132-136-183-34-64-49-82-74-91-58-20-222-106-287-150-80-55-122-77-148-77-11 0-22-4-26-10-6-10 163-270 176-270 21 0 131 50 351 160 219 109 304 143 459 185 74 19 110 46 188 135 144 167 569 588 687 682 66 53 159 128 205 168s116 95 154 121c156 109 276 197 331 243 84 70 194 179 194 191 0 11-174 130-260 178-96 55-383 151-600 202-8 2-55-32-104-76zm-2100-817c-3-5 10-16 29-25 38-18 41-16 25 14-11 19-44 26-54 11z" />
    <path
      d="M2914 2538c3-307-1-294 174-472 158-159 225-211 296-227 52-11 55-11 97 18 24 17 96 54 159 84 118 54 150 74 150 93 0 6 16 37 35 69s35 59 35 61-30-3-67-9c-38-7-140-16-229-20l-161-7-57 65c-35 40-84 81-126 106-38 23-72 46-76 53-4 6-9 63-10 127-3 135-13 183-46 218-38 42-109 83-144 83h-32l2-242z" />
    <path
      d="M3950 2606c-19-12-53-26-75-30s-74-23-117-42c-82-37-107-36-153 5-13 12-44 21-87 25-36 3-81 13-100 20-73 30-75 30-89-11-12-37-11-38 29-74 62-55 127-70 330-76 152-5 173-8 170-22s-25-16-152-19c-176-3-238 7-325 52-71 36-189 81-195 75-3-2-8-32-11-65l-7-61 86-58c47-31 96-71 108-88 11-18 28-38 36-44 22-18 258-17 384 2l101 16 74 65 73 66v144c0 143 0 144-23 144-12 0-38-11-57-24zm-870-881c-91-23-236-60-322-80-247-59-328-110-287-183 38-68 190-114 434-131 107-7 171-5 362 13 128 12 235 25 239 28 3 4-5 13-18 22-56 37-255 334-243 363 2 7 3 13 2 12-1 0-76-20-167-44zm-1295-170c158-44 307-67 573-90l72-6v61h-77c-145 0-416 24-623 55-19 3 6-6 55-20z" />
  </g>
</svg>