<svg xmlns="http://www.w3.org/2000/svg" id="root" viewBox="0 0 100 58">
  <g>
    <path
      d="M 1.207031 57.816406 C 1.207031 57.734375 0.941406 57.617188 0.628906 57.550781 C 0.0507812 57.453125 0.0507812 57.453125 0.0507812 56.523438 L 0.0507812 55.613281 L 0.878906 55.714844 C 1.902344 55.828125 5.609375 57.070312 5.941406 57.386719 C 6.453125 57.917969 6.207031 57.984375 3.691406 57.984375 C 2.21875 57.984375 1.207031 57.917969 1.207031 57.816406 Z M 99.503906 56.242188 C 99.503906 55.976562 99.601562 55.828125 99.75 55.828125 C 99.902344 55.828125 100 55.976562 100 56.242188 C 100 56.507812 99.902344 56.65625 99.75 56.65625 C 99.601562 56.65625 99.503906 56.507812 99.503906 56.242188 Z M 7.164062 55 C 7.164062 54.71875 7.117188 54.6875 6.851562 54.835938 C 6.667969 54.917969 6.253906 55 5.941406 55 C 5.378906 55 5.34375 54.96875 5.34375 54.4375 C 5.34375 54.121094 5.410156 53.824219 5.492188 53.773438 C 5.578125 53.722656 5.59375 53.34375 5.542969 52.929688 C 5.460938 52.183594 5.476562 52.183594 5.972656 52.183594 C 6.4375 52.183594 6.46875 52.148438 6.535156 51.4375 C 6.570312 50.972656 6.535156 50.757812 6.4375 50.859375 C 6.339844 50.957031 6.007812 51.023438 5.660156 51.023438 L 5.0625 51.023438 L 4.964844 52.367188 C 4.914062 53.09375 4.832031 53.742188 4.800781 53.789062 C 4.75 53.839844 4.136719 53.824219 3.457031 53.757812 C 2.546875 53.675781 2.199219 53.574219 2.199219 53.410156 C 2.199219 53.277344 2.050781 53.175781 1.871094 53.175781 C 1.589844 53.175781 1.539062 53.0625 1.539062 52.347656 C 1.539062 51.570312 1.570312 51.488281 2.117188 51.171875 C 2.597656 50.890625 2.664062 50.773438 2.53125 50.527344 C 2.433594 50.359375 2.367188 49.996094 2.367188 49.714844 C 2.367188 49.234375 2.417969 49.199219 2.929688 49.199219 C 3.242188 49.199219 3.558594 49.285156 3.609375 49.367188 C 3.65625 49.464844 3.953125 49.53125 4.253906 49.53125 C 4.535156 49.53125 4.863281 49.613281 4.980469 49.730469 C 5.128906 49.878906 5.179688 49.746094 5.179688 49.085938 L 5.179688 48.238281 L 5.90625 48.058594 C 6.453125 47.925781 6.703125 47.757812 6.867188 47.410156 C 7.050781 47.03125 7.199219 46.964844 7.875 46.914062 L 8.65625 46.863281 L 8.65625 47.859375 C 8.65625 48.785156 8.820312 49.117188 9.066406 48.703125 C 9.117188 48.621094 9.433594 48.539062 9.746094 48.539062 C 10.277344 48.539062 10.308594 48.570312 10.308594 49.101562 C 10.308594 49.847656 9.632812 50.359375 8.671875 50.359375 C 8.175781 50.359375 7.992188 50.425781 7.992188 50.609375 C 7.992188 50.773438 8.175781 50.859375 8.570312 50.859375 C 9.132812 50.859375 9.152344 50.875 9.152344 51.503906 C 9.152344 52.25 9.351562 52.464844 9.648438 52.101562 C 9.894531 51.800781 11.320312 51.769531 11.601562 52.050781 C 11.714844 52.167969 11.796875 52.53125 11.796875 52.878906 C 11.796875 53.492188 11.78125 53.507812 11.203125 53.507812 C 10.839844 53.507812 10.523438 53.609375 10.390625 53.773438 C 10.292969 53.921875 9.863281 54.074219 9.449219 54.121094 C 8.785156 54.207031 8.6875 54.269531 8.503906 54.769531 C 8.324219 55.265625 8.222656 55.332031 7.726562 55.332031 C 7.265625 55.332031 7.164062 55.265625 7.164062 55 Z M 92.554688 52.847656 C 91.875 52.78125 89.988281 52.714844 88.382812 52.695312 L 85.4375 52.679688 L 85.4375 51.519531 L 87.472656 51.488281 L 93.132812 51.488281 C 97.914062 51.539062 99.238281 51.304688 95.25 51.105469 L 92.386719 50.972656 L 92.386719 50.445312 C 92.386719 50.09375 92.488281 49.863281 92.652344 49.796875 C 93 49.664062 97.136719 49.664062 98.726562 49.796875 L 100 49.914062 L 100 52.480469 L 99.140625 52.679688 C 98.0625 52.929688 94.242188 53.027344 92.554688 52.847656 Z M 46.714844 49.597656 C 45.6875 49.152344 45.558594 48.933594 45.558594 47.644531 C 45.558594 46.285156 45.472656 46.101562 44.796875 45.902344 C 44.101562 45.703125 43.636719 45.9375 43.40625 46.617188 C 43.222656 47.195312 43.191406 47.210938 42.414062 47.210938 C 41.039062 47.210938 40.625 47.0625 40.445312 46.5 C 40.113281 45.554688 40.210938 45.125 40.839844 44.726562 C 41.171875 44.527344 41.617188 44.097656 41.832031 43.765625 C 42.328125 43.035156 42.246094 42.902344 40.875 42.207031 L 39.878906 41.710938 L 39.996094 40.5 C 40.097656 39.324219 40.097656 39.273438 39.664062 38.941406 C 39.417969 38.742188 39.003906 38.59375 38.753906 38.59375 L 38.277344 38.59375 L 38.277344 35.578125 C 38.277344 33.90625 38.359375 32.097656 38.441406 31.550781 C 38.539062 31.003906 38.789062 29.25 39.019531 27.65625 C 39.699219 22.953125 40.144531 21.328125 41.550781 18.542969 C 42.230469 17.21875 42.941406 15.957031 43.140625 15.726562 C 43.339844 15.496094 43.953125 14.714844 44.480469 13.984375 C 45.027344 13.257812 45.921875 12.179688 46.484375 11.582031 C 47.03125 10.988281 47.726562 10.160156 48.007812 9.726562 C 48.832031 8.5 51.992188 5.386719 53.964844 3.828125 C 54.707031 3.246094 54.972656 3.132812 55.585938 3.132812 C 56.214844 3.132812 56.328125 3.066406 56.5625 2.617188 C 56.777344 2.238281 57.171875 1.957031 58.25 1.457031 C 60.019531 0.644531 61.128906 0.578125 61.921875 1.226562 C 62.1875 1.457031 62.46875 1.824219 62.535156 2.023438 C 62.585938 2.21875 62.800781 2.617188 63.015625 2.882812 C 63.496094 3.53125 64.207031 4.921875 64.769531 6.363281 C 65.035156 7.027344 65.234375 7.359375 65.234375 7.160156 C 65.25 6.828125 65.332031 6.777344 65.894531 6.777344 C 66.441406 6.777344 66.871094 6.992188 66.871094 7.273438 L 67.070312 7.855469 C 67.183594 8.136719 67.433594 9.179688 67.648438 10.191406 L 68.226562 12.761719 C 68.410156 13.421875 68.34375 15.992188 68.128906 16.769531 C 68.046875 17.003906 68.144531 17.050781 68.707031 17.050781 C 69.335938 17.050781 69.386719 17.085938 69.386719 17.53125 C 69.386719 18.078125 68.808594 19.570312 68.34375 20.25 C 68.09375 20.613281 68.0625 20.765625 68.210938 20.914062 C 68.410156 21.113281 68.492188 21.144531 69.054688 21.179688 C 69.320312 21.195312 69.386719 21.3125 69.386719 21.742188 C 69.386719 22.503906 68.675781 23.132812 66.738281 24.078125 C 65.878906 24.492188 64.820312 25.074219 64.386719 25.335938 C 63.695312 25.769531 63.59375 25.917969 63.59375 26.382812 C 63.59375 26.78125 63.460938 27.0625 63.082031 27.425781 C 60.804688 29.652344 58.953125 32.273438 57.621094 35.164062 L 57.125 36.273438 L 57.472656 37.699219 C 57.652344 38.480469 57.800781 39.339844 57.800781 39.605469 C 57.800781 39.871094 57.867188 40.085938 57.96875 40.085938 C 58.148438 40.085938 58.464844 41.148438 58.464844 41.761719 C 58.464844 42.023438 58.214844 42.457031 57.785156 42.921875 C 57.421875 43.316406 56.875 43.996094 56.59375 44.445312 C 56.3125 44.875 55.832031 45.371094 55.519531 45.554688 L 54.941406 45.902344 L 55.304688 46.285156 C 55.816406 46.832031 55.785156 47.757812 55.238281 48.007812 C 54.476562 48.355469 53.980469 48.257812 53.433594 47.609375 L 52.902344 47.011719 L 52.339844 47.359375 C 51.695312 47.742188 50.621094 47.824219 49.976562 47.527344 C 49.414062 47.277344 48.585938 47.660156 48.667969 48.125 L 48.816406 49.167969 L 48.898438 49.863281 L 48.105469 49.863281 C 47.660156 49.847656 47.03125 49.730469 46.714844 49.597656 Z M 49.527344 45.222656 C 49.527344 45.140625 49.328125 45.058594 49.082031 45.074219 C 48.667969 45.074219 48.652344 45.089844 48.949219 45.222656 C 49.394531 45.421875 49.527344 45.421875 49.527344 45.222656 Z M 44.84375 38.261719 L 44 37.121094 C 43.738281 36.753906 43.472656 36.472656 43.4375 36.523438 C 43.40625 36.554688 43.605469 37.101562 43.902344 37.734375 C 44.367188 38.742188 44.464844 38.859375 44.828125 38.792969 L 45.226562 38.726562 Z M 51.628906 32.398438 C 51.648438 32.378906 51.332031 32.296875 50.933594 32.199219 C 50.273438 32.050781 50.191406 32.066406 50.191406 32.3125 C 50.191406 32.546875 50.304688 32.578125 50.902344 32.511719 Z M 46.863281 28.421875 C 46.683594 27.890625 46.484375 27.492188 46.449219 27.542969 C 46.417969 27.574219 46.550781 28.070312 46.75 28.636719 C 46.945312 29.199219 47.144531 29.597656 47.179688 29.515625 C 47.195312 29.429688 47.0625 28.933594 46.863281 28.421875 Z M 59.523438 25.535156 C 59.621094 25.355469 59.175781 24.675781 58.945312 24.675781 C 58.777344 24.675781 58.730469 25.386719 58.910156 25.554688 C 59.058594 25.71875 59.425781 25.703125 59.523438 25.535156 Z M 63.414062 22.953125 C 63.628906 22.703125 63.5625 22.621094 62.867188 22.355469 L 62.417969 22.1875 L 62.71875 22.6875 C 63.046875 23.25 63.148438 23.28125 63.414062 22.953125 Z M 65 18.378906 C 64.867188 18.164062 63.925781 18.164062 63.925781 18.378906 C 63.925781 18.460938 64.125 18.644531 64.386719 18.777344 C 64.769531 18.972656 64.851562 18.972656 64.96875 18.777344 C 65.035156 18.644531 65.050781 18.460938 65 18.378906 Z M 65.167969 14.566406 C 65.347656 14.269531 64.785156 14.203125 64.304688 14.46875 L 63.84375 14.714844 L 64.453125 14.730469 C 64.785156 14.730469 65.117188 14.648438 65.167969 14.566406 Z M 52.078125 10.605469 C 52.125 10.523438 52.078125 10.421875 51.945312 10.375 C 51.8125 10.324219 51.648438 10.457031 51.53125 10.6875 C 51.363281 11.070312 51.382812 11.085938 51.679688 10.921875 C 51.84375 10.835938 52.027344 10.6875 52.078125 10.605469 Z M 63.910156 10.820312 C 63.941406 10.789062 63.875 10.65625 63.757812 10.507812 C 63.527344 10.222656 63.347656 10.289062 63.097656 10.769531 C 62.933594 11.070312 62.949219 11.085938 63.378906 10.988281 C 63.628906 10.921875 63.875 10.855469 63.910156 10.820312 Z M 61.144531 7.242188 C 60.996094 7.09375 60.914062 7.160156 60.78125 7.507812 C 60.53125 8.167969 60.566406 8.21875 60.980469 7.804688 C 61.261719 7.523438 61.292969 7.390625 61.144531 7.242188 Z M 57.171875 5.980469 C 56.84375 5.898438 56.695312 6.199219 56.777344 6.792969 L 56.859375 7.308594 L 57.140625 6.660156 C 57.371094 6.113281 57.390625 6.03125 57.171875 5.980469 Z M 22.503906 47.757812 C 22.4375 47.710938 22.390625 47.261719 22.390625 46.796875 C 22.390625 45.703125 22.703125 45.390625 23.746094 45.390625 C 24.9375 45.390625 25.039062 45.472656 25.039062 46.464844 C 25.039062 47.59375 24.738281 47.875 23.515625 47.875 C 23.019531 47.875 22.554688 47.824219 22.503906 47.757812 Z M 66.902344 44.941406 C 66.308594 44.726562 66.078125 44.34375 66.078125 43.566406 C 66.078125 43.152344 66.160156 42.722656 66.273438 42.605469 C 66.390625 42.488281 66.921875 42.40625 67.484375 42.40625 C 68.046875 42.40625 68.574219 42.488281 68.691406 42.605469 C 68.808594 42.722656 68.890625 43.234375 68.890625 43.765625 C 68.890625 44.527344 68.824219 44.742188 68.574219 44.890625 C 68.226562 45.074219 67.335938 45.089844 66.902344 44.941406 Z M 35.5625 43.300781 C 35.28125 43.035156 35.214844 41.976562 35.445312 41.609375 C 35.628906 41.296875 36.820312 41.164062 37.265625 41.394531 C 37.746094 41.660156 37.777344 43.136719 37.300781 43.402344 C 36.820312 43.648438 35.859375 43.597656 35.5625 43.300781 Z M 18.832031 42.902344 C 18.386719 42.820312 17.65625 42.753906 17.226562 42.753906 C 16.628906 42.738281 16.433594 42.671875 16.433594 42.488281 C 16.433594 42.355469 16.566406 42.222656 16.730469 42.207031 C 16.878906 42.191406 16.300781 42.125 15.4375 42.074219 C 13.335938 41.910156 8.488281 41.890625 8.886719 42.058594 C 9.582031 42.324219 8.753906 42.375 4.453125 42.273438 L 0 42.191406 L 0.0976562 41.03125 C 0.164062 40.351562 0.296875 39.804688 0.414062 39.738281 C 0.761719 39.507812 1.308594 39.574219 1.539062 39.835938 C 1.851562 40.21875 2.003906 40.136719 2.070312 39.554688 C 2.117188 39.058594 2.167969 39.007812 2.699219 39.007812 C 3.226562 39.007812 3.308594 39.074219 3.640625 39.789062 C 3.90625 40.351562 4.171875 40.632812 4.550781 40.800781 C 4.914062 40.949219 6.621094 41.097656 9.53125 41.230469 C 15.71875 41.511719 20.238281 41.941406 20.238281 42.273438 C 20.238281 42.355469 20.320312 42.375 20.402344 42.324219 C 20.503906 42.257812 20.519531 42.140625 20.46875 42.042969 C 20.402344 41.925781 20.4375 41.910156 20.535156 41.976562 C 20.652344 42.042969 20.734375 42.308594 20.734375 42.589844 C 20.734375 43.019531 20.683594 43.070312 20.207031 43.050781 Z M 76.238281 40.550781 C 76.152344 40.417969 76.203125 40.402344 76.386719 40.46875 C 76.550781 40.515625 76.667969 40.515625 76.667969 40.449219 C 76.667969 40.367188 77.195312 40.1875 77.824219 40.019531 C 78.472656 39.855469 78.96875 39.671875 78.917969 39.640625 C 78.882812 39.589844 78.304688 39.722656 77.628906 39.902344 C 76.964844 40.085938 75.90625 40.269531 75.261719 40.335938 C 74.167969 40.417969 74.25 40.382812 76.914062 39.605469 L 86.265625 36.804688 L 92.785156 34.832031 L 92.984375 34.054688 C 93.28125 32.878906 93.8125 32.464844 94.339844 32.992188 C 94.507812 33.160156 94.589844 33.160156 94.703125 32.960938 C 94.789062 32.828125 94.871094 32.597656 94.871094 32.445312 C 94.871094 31.933594 95.53125 31.304688 96.046875 31.304688 C 96.359375 31.304688 96.523438 31.386719 96.542969 31.550781 L 96.589844 32.015625 C 96.609375 32.148438 96.824219 32.199219 97.203125 32.164062 C 97.632812 32.132812 97.832031 32.183594 97.898438 32.363281 C 97.996094 32.613281 98.210938 32.613281 99.453125 32.363281 C 99.652344 32.332031 99.851562 32.148438 99.882812 31.917969 C 99.933594 31.71875 99.949219 32.183594 99.933594 32.945312 L 99.917969 34.320312 L 96.691406 35.132812 C 94.917969 35.578125 90.566406 36.804688 87.007812 37.847656 C 76.535156 40.914062 76.46875 40.929688 76.238281 40.550781 Z M 79.894531 39.421875 C 80.109375 39.339844 80.125 39.273438 79.976562 39.273438 C 79.84375 39.273438 79.578125 39.339844 79.398438 39.421875 C 79.183594 39.507812 79.164062 39.574219 79.316406 39.574219 C 79.449219 39.574219 79.710938 39.507812 79.894531 39.421875 Z M 86.925781 37.367188 C 87.605469 37.152344 88.101562 36.972656 88.003906 36.953125 C 87.148438 37.128906 86.316406 37.394531 85.519531 37.75 C 85.621094 37.75 86.25 37.585938 86.925781 37.367188 Z M 91.558594 36.007812 C 92.46875 35.679688 91.925781 35.746094 90.816406 36.109375 C 90.269531 36.292969 90.085938 36.390625 90.402344 36.324219 C 90.714844 36.273438 91.230469 36.140625 91.558594 36.007812 Z M 68.34375 34.667969 C 68.144531 34.484375 68.210938 32.878906 68.425781 32.664062 C 68.542969 32.546875 68.972656 32.464844 69.386719 32.464844 C 70.347656 32.464844 70.542969 32.664062 70.542969 33.625 C 70.542969 34.039062 70.460938 34.46875 70.347656 34.585938 C 70.128906 34.800781 68.527344 34.867188 68.34375 34.667969 Z M 98.925781 0.480469 C 98.757812 0.296875 98.675781 0.148438 98.726562 0.148438 C 98.792969 0.148438 98.992188 0.296875 99.171875 0.480469 C 99.355469 0.664062 99.4375 0.8125 99.371094 0.8125 C 99.289062 0.8125 99.089844 0.664062 98.925781 0.480469 Z M 98.925781 0.480469 "
    />
    <path
      style="stroke: none; fill-rule: nonzero; fill: rgb(69.803922%, 72.54902%, 52.156863%); fill-opacity: 1"
      d="M 70.976562 55.730469 C 70.660156 55.414062 70.609375 53.675781 70.910156 53.375 C 71.023438 53.261719 71.519531 53.175781 72.035156 53.175781 C 72.546875 53.175781 73.042969 53.261719 73.160156 53.375 C 73.488281 53.707031 73.40625 55.398438 73.058594 55.714844 C 72.664062 56.078125 71.320312 56.09375 70.976562 55.730469 Z M 28.230469 51.238281 C 27.949219 51.140625 27.949219 49.332031 28.214844 49.066406 C 28.332031 48.953125 28.761719 48.871094 29.191406 48.871094 C 30.101562 48.871094 30.5 49.25 30.5 50.113281 C 30.5 50.972656 30.101562 51.355469 29.207031 51.339844 C 28.777344 51.339844 28.332031 51.289062 28.230469 51.238281 Z M 31.027344 50.328125 L 31.078125 49.449219 L 31.789062 49.398438 C 32.632812 49.332031 32.980469 49.566406 32.980469 50.195312 C 32.980469 51.074219 32.847656 51.1875 31.871094 51.1875 L 30.976562 51.1875 Z M 57.421875 48.074219 C 57.257812 47.90625 57.140625 47.492188 57.140625 47.164062 C 57.140625 46.582031 57.125 46.566406 56.445312 46.515625 L 55.734375 46.464844 L 55.683594 45.523438 L 55.632812 44.5625 L 57.636719 44.5625 L 57.636719 45.71875 L 58.429688 45.71875 C 59.605469 45.71875 59.953125 46.035156 59.953125 47.113281 C 59.953125 47.578125 59.871094 48.058594 59.753906 48.171875 C 59.425781 48.503906 57.734375 48.421875 57.421875 48.074219 Z M 76.371094 48.105469 C 76.070312 47.90625 76.003906 47.691406 76.003906 47.046875 C 76.003906 45.96875 76.269531 45.71875 77.410156 45.71875 C 78.171875 45.71875 78.339844 45.785156 78.636719 46.152344 C 79.050781 46.683594 79.082031 47.492188 78.71875 48.007812 C 78.519531 48.304688 78.304688 48.371094 77.609375 48.371094 C 77.097656 48.371094 76.585938 48.273438 76.371094 48.105469 Z M 43.238281 47.890625 C 42.941406 47.328125 43.042969 46.25 43.390625 46.050781 C 43.835938 45.820312 44.777344 45.835938 45.027344 46.085938 C 45.242188 46.300781 45.292969 47.210938 45.125 47.839844 C 45.027344 48.15625 44.910156 48.207031 44.214844 48.207031 C 43.585938 48.207031 43.371094 48.140625 43.238281 47.890625 Z M 73.96875 46.765625 C 73.769531 46.582031 73.835938 45.304688 74.050781 45.089844 C 74.300781 44.84375 75.09375 44.824219 75.527344 45.058594 C 75.839844 45.238281 75.921875 45.785156 75.742188 46.515625 C 75.65625 46.832031 75.527344 46.878906 74.863281 46.878906 C 74.433594 46.878906 74.019531 46.832031 73.96875 46.765625 Z M 21.679688 42.621094 C 21.460938 42.421875 21.5625 40.964844 21.792969 40.765625 C 21.925781 40.648438 22.40625 40.582031 22.917969 40.617188 L 23.796875 40.667969 L 23.847656 41.460938 C 23.878906 41.910156 23.8125 42.375 23.695312 42.503906 C 23.5 42.738281 21.894531 42.835938 21.679688 42.621094 Z M 58.746094 38.808594 C 58.5625 38.644531 58.613281 37.285156 58.796875 36.921875 C 58.925781 36.6875 59.144531 36.605469 59.671875 36.605469 C 60.566406 36.605469 60.78125 36.820312 60.78125 37.699219 C 60.78125 38.828125 60.699219 38.925781 59.722656 38.925781 C 59.242188 38.925781 58.796875 38.875 58.746094 38.808594 Z M 35.742188 36.140625 C 35.363281 35.726562 35.363281 34.371094 35.726562 34.21875 C 36.175781 34.054688 37.367188 34.105469 37.582031 34.320312 C 37.695312 34.433594 37.777344 34.867188 37.777344 35.28125 C 37.777344 35.695312 37.695312 36.125 37.582031 36.242188 C 37.265625 36.554688 36.058594 36.492188 35.742188 36.140625 Z M 26.640625 31.519531 C 26.578125 31.46875 26.527344 31.121094 26.527344 30.773438 C 26.527344 30.144531 26.527344 30.144531 27.1875 30.144531 L 27.851562 30.144531 L 27.851562 30.890625 C 27.851562 31.617188 27.851562 31.636719 27.304688 31.636719 C 26.988281 31.636719 26.691406 31.585938 26.640625 31.519531 Z M 24.65625 29.28125 C 24.457031 29.117188 24.390625 28.851562 24.425781 28.15625 L 24.457031 27.242188 L 25.402344 27.195312 C 26.742188 27.128906 27.023438 27.308594 27.023438 28.289062 C 27.023438 28.734375 26.941406 29.164062 26.824219 29.28125 C 26.558594 29.546875 25.003906 29.53125 24.65625 29.28125 Z M 67.730469 10.921875 C 67.730469 10.375 67.796875 10.324219 68.128906 10.621094 C 68.394531 10.871094 68.277344 11.417969 67.964844 11.417969 C 67.8125 11.417969 67.730469 11.234375 67.730469 10.921875 Z M 67.730469 10.921875 "
    />
    <path
      style="stroke: none; fill-rule: nonzero; fill: rgb(80.784314%, 74.509804%, 54.901961%); fill-opacity: 1"
      d="M 0.0507812 57.402344 C 0.0507812 56.839844 0.0664062 56.839844 0.597656 56.9375 C 0.878906 56.988281 1.722656 57.253906 2.449219 57.503906 L 3.773438 57.949219 L 1.917969 57.949219 L 0.0507812 57.96875 Z M 4.1875 57.320312 C 3.226562 56.972656 1.902344 56.542969 1.257812 56.390625 L 0.0507812 56.09375 L 0.0507812 41.660156 L 3.226562 41.695312 C 4.980469 41.726562 7.097656 41.808594 7.910156 41.890625 C 8.738281 41.992188 11.453125 42.109375 13.949219 42.175781 C 16.449219 42.222656 18.898438 42.339844 19.378906 42.40625 C 19.972656 42.472656 20.289062 42.457031 20.402344 42.324219 C 20.488281 42.207031 20.519531 42.074219 20.453125 42.023438 C 20.402344 41.957031 20.46875 41.910156 20.617188 41.910156 C 20.800781 41.910156 20.898438 42.042969 20.898438 42.257812 C 20.898438 43.433594 22.605469 44.144531 23.863281 43.484375 C 24.128906 43.351562 24.820312 43.203125 25.417969 43.136719 L 26.511719 43.019531 L 26.757812 43.632812 L 27.007812 44.230469 L 28.398438 44.230469 C 29.738281 44.230469 29.785156 44.246094 30.132812 44.726562 C 30.347656 45.007812 30.5 45.457031 30.5 45.785156 C 30.5 46.300781 30.414062 46.417969 29.804688 46.78125 C 28.246094 47.832031 27.039062 49.328125 26.34375 51.074219 C 26.246094 51.320312 26.0625 51.519531 25.929688 51.519531 C 25.796875 51.519531 25.699219 51.585938 25.699219 51.667969 C 25.699219 51.753906 25.300781 51.96875 24.839844 52.132812 L 23.960938 52.433594 L 25.085938 52.480469 L 26.195312 52.53125 L 26.195312 53.261719 C 26.195312 53.972656 26.164062 54.039062 24.953125 55.015625 C 22.902344 56.707031 23.5 56.492188 25.699219 54.753906 C 26.972656 53.757812 27.140625 53.675781 27.898438 53.675781 L 28.710938 53.675781 L 28.644531 54.4375 L 28.59375 55.199219 L 29.109375 54.570312 L 29.636719 53.957031 L 30.761719 54.089844 C 32.382812 54.269531 32.566406 54.253906 33.097656 53.875 C 33.34375 53.707031 33.972656 53.460938 34.46875 53.34375 C 35.910156 53.011719 36.457031 52.746094 36.457031 52.367188 C 36.457031 51.984375 37.28125 51.320312 39.351562 49.996094 C 40.078125 49.53125 40.742188 49.050781 40.808594 48.933594 C 41.023438 48.554688 42.113281 48.652344 42.546875 49.101562 C 43.109375 49.714844 43.007812 51.023438 42.394531 51.023438 C 42.230469 51.023438 42.082031 51.140625 42.082031 51.273438 C 42.082031 51.421875 41.386719 51.984375 40.527344 52.53125 L 38.953125 53.527344 L 39.054688 54.140625 C 39.1875 54.984375 39.316406 55.101562 40.226562 55.214844 C 41.734375 55.398438 42.082031 55.714844 42.082031 56.957031 L 42.082031 57.484375 L 47.046875 57.484375 C 49.777344 57.484375 52.011719 57.4375 52.011719 57.386719 C 52.011719 57.335938 51.746094 56.675781 51.429688 55.894531 C 50.671875 54.074219 50.652344 53.160156 51.347656 52.214844 C 51.929688 51.40625 52.292969 51.1875 53.085938 51.1875 C 53.765625 51.1875 53.898438 51.421875 54.195312 53.09375 C 54.378906 54.105469 54.527344 54.304688 55.386719 54.769531 C 56.03125 55.117188 56.148438 54.902344 56.03125 53.492188 C 55.949219 52.515625 55.980469 52.316406 56.3125 51.851562 C 57.289062 50.476562 59.242188 49.929688 60.234375 50.742188 C 60.484375 50.957031 61.113281 51.289062 61.609375 51.503906 L 62.882812 52.050781 C 63.378906 52.300781 63.757812 53.328125 63.757812 54.421875 C 63.757812 55.414062 64.042969 55.761719 64.984375 55.863281 C 65.414062 55.910156 65.480469 55.847656 65.710938 55.167969 C 66.191406 53.722656 66.207031 53.691406 66.804688 53.59375 C 67.417969 53.476562 69.667969 53.789062 70 54.039062 C 70.097656 54.121094 70.363281 54.753906 70.578125 55.429688 L 70.957031 56.675781 L 73.441406 56.574219 L 73.640625 55.664062 C 73.738281 55.167969 73.820312 54.386719 73.820312 53.921875 C 73.835938 53.09375 73.820312 53.09375 72.679688 52.101562 C 71.785156 51.339844 71.40625 51.121094 71.074219 51.15625 L 69.5 51.238281 C 68.476562 51.273438 68.34375 51.238281 68.0625 50.859375 C 67.898438 50.625 67.714844 50.210938 67.648438 49.929688 C 67.5 49.050781 67.234375 48.953125 64.820312 48.871094 C 62.304688 48.769531 61.9375 48.605469 61.9375 47.558594 C 61.9375 47.230469 61.773438 45.902344 61.574219 44.609375 C 61.246094 42.4375 61.246094 41.660156 61.59375 42.222656 C 61.707031 42.40625 61.808594 42.390625 62.171875 42.15625 C 62.535156 41.910156 62.652344 41.910156 62.867188 42.089844 C 63.015625 42.207031 63.195312 42.457031 63.28125 42.65625 C 63.414062 42.9375 63.429688 42.921875 63.347656 42.570312 C 63.082031 41.429688 63.082031 41.410156 63.414062 41.410156 C 63.644531 41.410156 63.742188 41.5625 63.808594 41.957031 L 64.15625 43.730469 C 64.304688 44.410156 64.421875 45.289062 64.421875 45.6875 L 64.421875 46.382812 L 66.273438 46.382812 C 68.527344 46.382812 69.351562 46.683594 69.832031 47.691406 L 70.128906 48.324219 L 71.15625 48.238281 C 72.578125 48.125 72.910156 48.257812 74.101562 49.367188 C 74.699219 49.914062 75.210938 50.359375 75.261719 50.359375 C 75.308594 50.359375 75.789062 50.144531 76.335938 49.863281 C 76.882812 49.597656 77.578125 49.367188 77.890625 49.367188 C 78.304688 49.367188 78.472656 49.285156 78.539062 49.050781 C 78.585938 48.835938 78.917969 48.636719 79.5625 48.4375 C 80.242188 48.222656 80.574219 48.023438 80.6875 47.726562 C 80.871094 47.34375 80.9375 47.34375 82.128906 47.410156 C 82.804688 47.460938 83.632812 47.445312 83.949219 47.378906 C 84.3125 47.292969 83.78125 47.246094 82.507812 47.230469 C 81.382812 47.230469 80.472656 47.164062 80.472656 47.097656 C 80.472656 47.011719 80.242188 46.8125 79.976562 46.632812 C 79.578125 46.367188 79.480469 46.183594 79.480469 45.6875 C 79.480469 45.023438 79.429688 45.058594 81.183594 44.625 C 81.433594 44.578125 81.613281 44.476562 81.566406 44.445312 C 81.53125 44.394531 80.886719 44.527344 80.160156 44.710938 C 79.429688 44.910156 78.539062 45.058594 78.191406 45.058594 C 77.3125 45.058594 77 44.496094 77 42.921875 C 77 41.875 76.949219 41.710938 76.585938 41.378906 C 76.136719 40.980469 76.003906 40.316406 76.402344 40.46875 C 76.535156 40.515625 76.667969 40.5 76.699219 40.433594 C 76.734375 40.367188 77.496094 40.101562 78.40625 39.855469 C 79.316406 39.589844 80.292969 39.289062 80.554688 39.175781 C 81.300781 38.84375 85.007812 37.765625 85.40625 37.765625 C 85.585938 37.765625 86.546875 37.5 87.523438 37.1875 C 88.515625 36.855469 89.789062 36.492188 90.386719 36.339844 C 93.46875 35.328125 96.597656 34.476562 99.769531 33.789062 C 99.96875 33.789062 100 35.132812 100 42.074219 L 100 50.359375 L 96.722656 50.246094 C 94.570312 50.179688 93.332031 50.210938 93.132812 50.3125 C 92.917969 50.445312 93.660156 50.527344 95.960938 50.609375 L 99.535156 50.742188 C 99.882812 50.773438 100 50.859375 100 51.121094 C 100 51.421875 99.816406 51.503906 98.558594 51.734375 C 97.367188 51.96875 96.09375 52.019531 91.59375 52 C 88.546875 52 86.035156 52.035156 85.96875 52.085938 C 85.917969 52.132812 86.992188 52.183594 88.351562 52.183594 C 89.707031 52.183594 92.039062 52.265625 93.546875 52.382812 C 95.613281 52.59375 97.703125 52.433594 99.71875 51.917969 C 99.984375 51.820312 100 52.066406 100 54.882812 L 99.984375 57.96875 L 5.925781 57.96875 Z M 34.105469 57.203125 C 34.039062 56.839844 33.742188 56.875 33.675781 57.222656 C 33.640625 57.386719 33.726562 57.484375 33.890625 57.484375 C 34.054688 57.484375 34.140625 57.371094 34.105469 57.203125 Z M 8.40625 53.261719 C 8.488281 52.929688 8.503906 52.929688 8.804688 53.292969 C 9.167969 53.742188 9.679688 53.640625 10.0625 53.078125 C 10.324219 52.664062 11.136719 52.515625 11.136719 52.878906 C 11.136719 52.980469 11.1875 53.011719 11.234375 52.960938 C 11.402344 52.796875 10.972656 52.347656 10.671875 52.347656 C 10.523438 52.347656 10.160156 52.582031 9.863281 52.878906 L 9.332031 53.394531 L 9.003906 52.996094 C 8.804688 52.761719 8.671875 52.347656 8.65625 51.984375 C 8.65625 51.253906 8.421875 51.171875 8.125 51.800781 C 7.8125 52.433594 7.59375 52.433594 7.28125 51.820312 C 7.117188 51.519531 7.03125 51.421875 7.097656 51.601562 C 7.363281 52.398438 7.28125 52.597656 6.585938 52.695312 C 6.023438 52.78125 5.972656 52.8125 6.304688 52.929688 C 6.734375 53.078125 6.785156 53.292969 6.386719 53.394531 C 6.171875 53.441406 6.222656 53.476562 6.503906 53.492188 C 6.917969 53.527344 6.917969 53.527344 6.339844 54.007812 C 5.773438 54.503906 5.757812 54.636719 6.304688 54.355469 C 6.453125 54.289062 6.867188 54.15625 7.230469 54.105469 C 7.859375 53.988281 7.859375 53.988281 7.777344 54.453125 C 7.695312 54.816406 7.746094 54.769531 7.992188 54.253906 Z M 4.351562 53.0625 L 4.453125 51.636719 C 4.5 51.023438 4.5 50.394531 4.453125 50.246094 C 4.351562 50.011719 4.300781 50.027344 3.953125 50.34375 C 3.757812 50.527344 3.507812 50.640625 3.441406 50.574219 C 3.359375 50.492188 3.375 50.574219 3.492188 50.726562 C 3.671875 50.957031 3.65625 51.039062 3.292969 51.253906 L 2.417969 51.800781 C 2.132812 51.96875 2.035156 52.101562 2.167969 52.148438 C 2.316406 52.199219 2.332031 52.28125 2.21875 52.414062 C 2.085938 52.566406 2.199219 52.597656 2.613281 52.546875 C 3.261719 52.464844 3.308594 52.53125 2.929688 52.914062 C 2.796875 53.0625 2.746094 53.175781 2.847656 53.175781 C 2.945312 53.175781 3.144531 52.996094 3.292969 52.761719 C 3.691406 52.167969 4.152344 52.214844 4.054688 52.847656 C 4.019531 53.128906 4.054688 53.34375 4.152344 53.34375 C 4.253906 53.34375 4.335938 53.210938 4.351562 53.0625 Z M 7.59375 49.632812 C 7.695312 49.035156 7.726562 49 7.925781 49.285156 C 8.042969 49.449219 8.109375 49.648438 8.058594 49.714844 C 8.007812 49.796875 8.058594 49.863281 8.175781 49.863281 C 8.289062 49.863281 8.324219 49.730469 8.242188 49.5 C 8.175781 49.285156 8.109375 48.71875 8.109375 48.238281 C 8.09375 47.542969 8.042969 47.378906 7.84375 47.410156 C 7.695312 47.445312 7.480469 47.675781 7.363281 47.925781 C 7.199219 48.257812 6.949219 48.421875 6.402344 48.554688 C 5.890625 48.6875 5.710938 48.804688 5.824219 48.917969 C 5.941406 49.035156 5.941406 49.167969 5.824219 49.316406 C 5.675781 49.480469 5.691406 49.53125 5.90625 49.53125 C 6.273438 49.53125 6.238281 49.746094 5.839844 50.113281 C 5.394531 50.507812 5.511719 50.574219 6.105469 50.292969 C 6.371094 50.160156 6.75 50.011719 6.964844 49.945312 C 7.3125 49.847656 7.332031 49.878906 7.25 50.3125 C 7.164062 50.660156 7.183594 50.707031 7.3125 50.527344 C 7.398438 50.394531 7.53125 49.996094 7.59375 49.632812 Z M 9.398438 49.433594 C 9.828125 49.066406 9.847656 49.050781 9.464844 49.285156 C 9.21875 49.433594 8.953125 49.53125 8.886719 49.515625 C 8.589844 49.464844 8.472656 49.53125 8.570312 49.699219 C 8.722656 49.945312 8.851562 49.898438 9.398438 49.433594 Z M 24.242188 47.097656 C 24.820312 46.566406 24.558594 45.886719 23.746094 45.886719 C 23.167969 45.886719 22.621094 46.878906 23 47.261719 C 23.199219 47.476562 23.929688 47.378906 24.242188 47.097656 Z M 15.753906 45.902344 C 16.152344 45.605469 16.152344 45.589844 15.820312 45.488281 C 15.457031 45.371094 14.613281 45.621094 14.613281 45.851562 C 14.613281 46.300781 15.207031 46.332031 15.753906 45.902344 Z M 15.753906 45.902344 "
    />
    <path
      style="stroke: none; fill-rule: nonzero; fill: rgb(80.784314%, 74.509804%, 54.901961%); fill-opacity: 1"
      d="M 71.039062 55.214844 C 71.058594 54.621094 71.058594 54.601562 71.257812 54.96875 C 71.371094 55.167969 71.519531 55.28125 71.585938 55.234375 C 71.652344 55.167969 71.703125 55.199219 71.703125 55.300781 C 71.703125 55.414062 71.820312 55.496094 71.949219 55.496094 C 72.082031 55.496094 72.199219 55.582031 72.199219 55.664062 C 72.199219 55.761719 71.933594 55.828125 71.621094 55.828125 C 71.058594 55.828125 71.039062 55.8125 71.039062 55.214844 Z M 71.039062 55.214844 "
    />
    <path
      style="stroke: none; fill-rule: nonzero; fill: rgb(87.058824%, 87.843137%, 69.019608%); fill-opacity: 1"
      d="M 98.839844 57.816406 C 99.554688 57.320312 99.667969 57.304688 99.667969 57.652344 C 99.667969 57.917969 99.570312 57.984375 99.140625 57.984375 C 98.710938 57.984375 98.644531 57.933594 98.839844 57.816406 Z M 33.011719 57.484375 C 32.832031 57.1875 32.882812 57.089844 33.394531 56.574219 L 33.972656 55.996094 L 34.386719 56.359375 C 34.917969 56.824219 34.917969 57.15625 34.386719 57.15625 C 34.121094 57.15625 33.972656 57.054688 33.972656 56.90625 C 33.972656 56.773438 33.855469 56.65625 33.726562 56.65625 C 33.558594 56.65625 33.476562 56.839844 33.476562 57.238281 C 33.476562 57.902344 33.328125 57.96875 33.011719 57.484375 Z M 27.519531 56.839844 C 27.519531 56.65625 27.585938 56.328125 27.683594 56.09375 C 27.816406 55.730469 27.949219 55.664062 28.445312 55.664062 L 29.058594 55.664062 L 28.726562 56.042969 C 28.546875 56.242188 28.296875 56.574219 28.199219 56.789062 C 27.964844 57.238281 27.519531 57.269531 27.519531 56.839844 Z M 73.359375 56.507812 L 73.457031 55.429688 C 73.554688 54.753906 73.621094 54.667969 73.96875 54.667969 C 74.417969 54.667969 74.417969 54.6875 74.085938 56.375 C 73.96875 56.90625 73.359375 57.023438 73.359375 56.507812 Z M 41.417969 56.441406 C 41.417969 56.308594 41.238281 56.128906 41.007812 56.027344 C 40.410156 55.761719 40.492188 55.496094 41.171875 55.496094 C 41.71875 55.496094 41.75 55.53125 41.75 56.078125 C 41.75 56.390625 41.683594 56.65625 41.585938 56.65625 C 41.503906 56.65625 41.417969 56.558594 41.417969 56.441406 Z M 65.082031 56.242188 C 65.082031 55.894531 65.167969 55.828125 65.578125 55.828125 C 66.09375 55.828125 66.226562 56.109375 65.878906 56.457031 C 65.515625 56.824219 65.082031 56.691406 65.082031 56.242188 Z M 64.15625 56.308594 C 63.609375 56.160156 63.148438 55.730469 63.3125 55.5625 C 63.363281 55.496094 63.757812 55.515625 64.171875 55.5625 C 64.820312 55.664062 64.917969 55.730469 64.917969 56.09375 C 64.917969 56.523438 64.902344 56.523438 64.15625 56.308594 Z M 70.214844 56.242188 C 70.214844 56.109375 70.148438 55.996094 70.082031 55.996094 C 70.015625 55.996094 69.949219 55.847656 69.949219 55.664062 C 69.949219 55.449219 70.066406 55.332031 70.246094 55.332031 C 70.476562 55.332031 70.542969 55.464844 70.542969 55.910156 C 70.542969 56.226562 70.476562 56.492188 70.378906 56.492188 C 70.296875 56.492188 70.214844 56.375 70.214844 56.242188 Z M 58.300781 55.878906 C 58.300781 55.796875 58.398438 55.628906 58.515625 55.480469 C 58.679688 55.25 58.777344 55.234375 59.011719 55.414062 C 59.441406 55.730469 59.339844 55.996094 58.796875 55.996094 C 58.53125 55.996094 58.300781 55.945312 58.300781 55.878906 Z M 29.007812 54.753906 C 29.007812 54.1875 29.023438 54.171875 29.671875 54.171875 C 30.035156 54.171875 30.332031 54.207031 30.332031 54.238281 C 30.332031 54.386719 29.355469 55.332031 29.191406 55.332031 C 29.089844 55.332031 29.007812 55.066406 29.007812 54.753906 Z M 55.980469 54.421875 C 55.980469 53.957031 56.046875 53.839844 56.3125 53.839844 C 56.578125 53.839844 56.644531 53.957031 56.644531 54.421875 C 56.644531 54.882812 56.578125 55 56.3125 55 C 56.046875 55 55.980469 54.882812 55.980469 54.421875 Z M 69.46875 54.503906 C 69.417969 54.421875 69.1875 54.335938 68.957031 54.335938 C 68.675781 54.335938 68.558594 54.253906 68.558594 54.007812 C 68.558594 53.742188 68.675781 53.675781 69.136719 53.675781 C 69.667969 53.675781 69.71875 53.707031 69.71875 54.171875 C 69.71875 54.6875 69.652344 54.785156 69.46875 54.503906 Z M 33.3125 53.957031 C 33.3125 53.441406 33.378906 53.375 33.824219 53.277344 C 34.105469 53.226562 34.601562 53.175781 34.917969 53.175781 C 35.726562 53.175781 35.59375 53.691406 34.71875 53.921875 C 34.355469 54.007812 33.890625 54.1875 33.691406 54.304688 C 33.328125 54.503906 33.3125 54.488281 33.3125 53.957031 Z M 66.574219 53.839844 C 66.574219 53.375 66.605469 53.34375 67.234375 53.34375 C 67.832031 53.34375 67.898438 53.375 67.898438 53.773438 C 67.898438 54.089844 67.832031 54.1875 67.648438 54.105469 C 67.515625 54.054688 67.21875 54.089844 66.988281 54.171875 C 66.605469 54.320312 66.574219 54.289062 66.574219 53.839844 Z M 50.6875 53.261719 C 50.6875 52.714844 50.71875 52.679688 51.25 52.679688 L 51.796875 52.679688 L 51.53125 53.261719 C 51.167969 54.039062 50.6875 54.039062 50.6875 53.261719 Z M 19.359375 53.441406 C 19.078125 53.226562 19.097656 53.210938 19.410156 53.128906 C 19.660156 53.0625 19.742188 53.128906 19.742188 53.359375 C 19.742188 53.722656 19.742188 53.722656 19.359375 53.441406 Z M 36.289062 52.414062 C 36.289062 51.96875 36.371094 51.800781 36.621094 51.734375 C 36.804688 51.6875 36.953125 51.539062 36.953125 51.421875 C 36.953125 51.289062 37.101562 51.1875 37.28125 51.1875 C 37.464844 51.1875 37.613281 51.074219 37.613281 50.941406 C 37.613281 50.757812 37.8125 50.691406 38.359375 50.691406 C 39.167969 50.691406 39.316406 50.90625 38.738281 51.207031 C 38.0625 51.554688 36.953125 52.53125 36.953125 52.78125 C 36.953125 52.914062 36.804688 53.011719 36.621094 53.011719 C 36.355469 53.011719 36.289062 52.894531 36.289062 52.414062 Z M 22.058594 52.761719 C 22.058594 52.515625 22.738281 52.066406 23.117188 52.066406 C 23.597656 52.066406 23.730469 52.582031 23.28125 52.746094 C 22.96875 52.863281 22.058594 52.878906 22.058594 52.761719 Z M 82.589844 52.714844 C 82.261719 52.679688 82.128906 52.566406 82.128906 52.332031 C 82.128906 51.917969 82.640625 51.917969 83.023438 52.332031 C 83.351562 52.695312 83.238281 52.796875 82.589844 52.714844 Z M 61.988281 52.382812 C 61.261719 52.035156 61.277344 51.6875 62.023438 51.6875 C 62.550781 51.6875 62.601562 51.71875 62.601562 52.183594 C 62.601562 52.464844 62.585938 52.664062 62.566406 52.664062 Z M 80.855469 51.933594 L 80.390625 51.539062 L 81.019531 51.519531 C 81.566406 51.519531 81.632812 51.570312 81.632812 51.933594 C 81.632812 52.449219 81.449219 52.464844 80.855469 51.933594 Z M 56.808594 51.519531 C 56.808594 51.039062 56.875 50.859375 57.058594 50.859375 C 57.191406 50.859375 57.304688 50.792969 57.304688 50.691406 C 57.304688 50.609375 57.570312 50.527344 57.886719 50.527344 C 58.199219 50.527344 58.464844 50.460938 58.464844 50.359375 C 58.464844 50.179688 59.273438 50.128906 59.6875 50.292969 C 59.855469 50.359375 59.953125 50.59375 59.953125 50.875 C 59.953125 51.355469 59.953125 51.355469 59.539062 51.089844 C 59.011719 50.742188 58.53125 50.875 57.570312 51.601562 L 56.808594 52.183594 Z M 24.707031 51.71875 C 24.707031 51.554688 25.320312 51.023438 25.515625 51.023438 C 25.601562 51.023438 25.699219 50.90625 25.765625 50.773438 C 25.929688 50.328125 26.195312 50.507812 26.195312 51.089844 C 26.195312 51.453125 26.097656 51.6875 25.929688 51.753906 C 25.566406 51.902344 24.707031 51.867188 24.707031 51.71875 Z M 72.199219 51.339844 L 72.199219 50.839844 L 72.695312 51.1875 C 73.421875 51.703125 73.441406 51.851562 72.796875 51.851562 C 72.25 51.851562 72.199219 51.820312 72.199219 51.339844 Z M 41.46875 50.941406 C 41.585938 50.707031 41.785156 50.527344 41.933594 50.527344 C 42.460938 50.527344 42.445312 49.996094 41.917969 49.5 L 41.402344 49.035156 L 42.578125 49.035156 L 42.578125 50.09375 C 42.578125 51.222656 42.480469 51.355469 41.667969 51.355469 C 41.320312 51.355469 41.304688 51.320312 41.46875 50.941406 Z M 80.472656 51.023438 C 80.472656 50.773438 80.359375 50.691406 80.058594 50.691406 C 79.828125 50.691406 79.644531 50.773438 79.644531 50.859375 C 79.644531 51.140625 79.363281 51.039062 78.867188 50.609375 L 78.40625 50.210938 L 78.949219 50.195312 C 79.230469 50.195312 79.480469 50.128906 79.480469 50.046875 C 79.480469 49.960938 79.628906 49.929688 79.8125 49.980469 C 79.992188 50.027344 80.140625 50.128906 80.140625 50.195312 C 80.140625 50.261719 80.359375 50.410156 80.621094 50.527344 C 80.886719 50.625 81.234375 50.859375 81.398438 51.039062 C 81.679688 51.339844 81.664062 51.355469 81.085938 51.355469 C 80.589844 51.355469 80.472656 51.289062 80.472656 51.023438 Z M 67.730469 50.277344 C 67.730469 50.046875 67.664062 49.863281 67.566406 49.863281 C 67.484375 49.863281 67.398438 49.648438 67.398438 49.367188 C 67.398438 48.953125 67.335938 48.871094 66.988281 48.871094 C 66.507812 48.871094 66.40625 48.4375 66.871094 48.339844 C 67.316406 48.222656 68.027344 48.820312 68.160156 49.398438 C 68.210938 49.699219 68.375 50.113281 68.507812 50.3125 C 68.757812 50.675781 68.742188 50.691406 68.246094 50.691406 C 67.8125 50.691406 67.730469 50.625 67.730469 50.277344 Z M 76.003906 50.195312 C 76.003906 49.8125 76.070312 49.699219 76.335938 49.699219 C 76.519531 49.699219 76.667969 49.632812 76.667969 49.53125 C 76.667969 49.449219 77 49.367188 77.410156 49.367188 C 78.058594 49.367188 78.15625 49.414062 78.15625 49.714844 C 78.15625 49.898438 78.089844 50.011719 77.992188 49.945312 C 77.910156 49.898438 77.460938 50.046875 77.015625 50.277344 C 76.550781 50.507812 76.136719 50.691406 76.089844 50.691406 C 76.039062 50.691406 76.003906 50.476562 76.003906 50.195312 Z M 83.617188 50.3125 C 83.46875 50.195312 83.386719 49.980469 83.417969 49.832031 C 83.5 49.398438 84.777344 49.398438 84.777344 49.832031 C 84.777344 50.445312 84.113281 50.726562 83.617188 50.3125 Z M 29.570312 49.515625 C 29.523438 49.414062 29.289062 49.367188 29.074219 49.414062 C 28.742188 49.464844 28.679688 49.414062 28.679688 49.101562 C 28.679688 48.753906 28.761719 48.703125 29.257812 48.703125 C 29.785156 48.703125 29.835938 48.738281 29.835938 49.199219 C 29.835938 49.730469 29.769531 49.8125 29.570312 49.515625 Z M 78.820312 49.035156 L 78.820312 48.371094 L 79.5625 48.371094 C 80.523438 48.371094 80.554688 48.71875 79.628906 49.085938 C 79.25 49.234375 79 49.433594 79.066406 49.53125 C 79.117188 49.613281 79.082031 49.699219 79 49.699219 C 78.902344 49.699219 78.820312 49.398438 78.820312 49.035156 Z M 72.578125 49 C 71.886719 48.570312 71.886719 48.371094 72.613281 48.371094 C 73.140625 48.371094 73.191406 48.40625 73.191406 48.871094 C 73.191406 49.152344 73.175781 49.367188 73.160156 49.351562 C 73.125 49.351562 72.859375 49.183594 72.578125 49 Z M 69.71875 48.703125 C 69.71875 48.222656 69.75 48.207031 70.476562 48.207031 C 71.074219 48.207031 71.222656 48.257812 71.171875 48.472656 C 71.140625 48.671875 70.148438 49.167969 69.765625 49.199219 C 69.734375 49.199219 69.71875 48.984375 69.71875 48.703125 Z M 62.601562 48.273438 C 62.601562 47.972656 62.667969 47.890625 62.816406 47.992188 C 62.914062 48.058594 63.097656 48.125 63.179688 48.125 C 63.476562 48.15625 63.925781 48.40625 63.925781 48.554688 C 63.925781 48.636719 63.628906 48.703125 63.261719 48.703125 C 62.667969 48.703125 62.601562 48.671875 62.601562 48.273438 Z M 57.304688 47.625 C 57.304688 47.3125 57.339844 47.046875 57.371094 47.046875 C 57.421875 47.046875 57.671875 47.277344 57.953125 47.558594 C 58.234375 47.839844 58.464844 48.089844 58.464844 48.140625 C 58.464844 48.171875 58.199219 48.207031 57.886719 48.207031 C 57.339844 48.207031 57.304688 48.171875 57.304688 47.625 Z M 83.285156 47.644531 C 83.285156 47.246094 83.335938 47.210938 84.03125 47.210938 C 84.660156 47.210938 84.777344 47.261719 84.777344 47.542969 C 84.777344 47.726562 84.675781 47.875 84.542969 47.875 L 83.800781 47.972656 C 83.335938 48.074219 83.285156 48.039062 83.285156 47.644531 Z M 44.199219 47.757812 C 44.449219 47.710938 44.5625 47.59375 44.496094 47.445312 C 44.449219 47.3125 44.480469 47.210938 44.5625 47.210938 C 44.664062 47.210938 44.730469 47.097656 44.730469 46.964844 C 44.730469 46.832031 44.84375 46.714844 44.976562 46.714844 C 45.144531 46.714844 45.226562 46.898438 45.226562 47.292969 C 45.226562 47.875 45.226562 47.875 44.53125 47.859375 C 44.117188 47.839844 43.984375 47.792969 44.199219 47.757812 Z M 85.4375 47.476562 C 85.4375 47.113281 85.519531 47.046875 85.902344 47.03125 C 86.148438 47.03125 86.496094 46.964844 86.679688 46.898438 C 87.007812 46.765625 87.589844 46.996094 87.589844 47.246094 C 87.589844 47.328125 87.441406 47.378906 87.273438 47.378906 C 87.09375 47.378906 86.925781 47.445312 86.894531 47.527344 C 86.878906 47.609375 86.53125 47.726562 86.148438 47.792969 C 85.472656 47.890625 85.4375 47.890625 85.4375 47.476562 Z M 87.753906 47.210938 C 87.753906 47.128906 87.953125 47.046875 88.183594 47.046875 C 88.417969 47.046875 88.566406 47.113281 88.5 47.210938 C 88.449219 47.3125 88.25 47.378906 88.070312 47.378906 C 87.902344 47.378906 87.753906 47.3125 87.753906 47.210938 Z M 14.660156 46.765625 C 14.546875 46.714844 14.445312 46.550781 14.445312 46.367188 C 14.445312 46.152344 14.5625 46.050781 14.84375 46.050781 C 15.074219 46.050781 15.308594 45.984375 15.355469 45.886719 C 15.40625 45.804688 15.753906 45.71875 16.101562 45.71875 C 16.597656 45.71875 16.730469 45.769531 16.664062 45.953125 C 16.464844 46.449219 15.191406 46.964844 14.660156 46.765625 Z M 63.890625 46.78125 C 63.84375 46.730469 63.824219 46.550781 63.875 46.367188 C 64.007812 45.902344 64.421875 45.96875 64.421875 46.464844 C 64.421875 46.847656 64.125 47.03125 63.890625 46.78125 Z M 13.933594 46.25 C 13.703125 45.984375 13.703125 45.886719 13.882812 45.636719 C 14.183594 45.238281 14.3125 45.390625 14.246094 46.050781 C 14.199219 46.550781 14.183594 46.550781 13.933594 46.25 Z M 74.8125 46.433594 C 75.0625 46.382812 75.179688 46.265625 75.113281 46.117188 C 75.0625 45.984375 75.113281 45.886719 75.226562 45.886719 C 75.34375 45.886719 75.277344 45.769531 75.113281 45.636719 C 74.796875 45.40625 74.8125 45.390625 75.308594 45.390625 C 75.808594 45.390625 75.839844 45.421875 75.839844 45.96875 C 75.839844 46.550781 75.839844 46.550781 75.144531 46.53125 C 74.730469 46.515625 74.597656 46.464844 74.8125 46.433594 Z M 61.476562 45.023438 C 61.210938 43.167969 61.210938 43.070312 61.609375 43.070312 C 61.789062 43.070312 61.9375 43.117188 61.9375 43.203125 C 61.9375 43.367188 62.253906 45.371094 62.371094 45.9375 C 62.453125 46.316406 62.402344 46.382812 62.054688 46.382812 C 61.675781 46.382812 61.640625 46.300781 61.476562 45.023438 Z M 49.082031 45.886719 C 47.558594 45.570312 46.335938 44.691406 44.199219 42.355469 C 42.5625 40.550781 41.832031 39.457031 41.71875 38.613281 C 41.636719 38.015625 42.015625 38 42.230469 38.59375 C 42.511719 39.421875 43.804688 41.261719 44.976562 42.539062 C 45.886719 43.515625 46.25 43.78125 47.195312 44.144531 C 48.203125 44.542969 48.503906 44.59375 49.726562 44.527344 C 50.933594 44.460938 51.265625 44.363281 52.492188 43.75 C 53.335938 43.316406 54.292969 42.65625 54.972656 42.023438 C 55.570312 41.460938 56.363281 40.75 56.710938 40.449219 L 57.355469 39.886719 L 56.992188 38.347656 C 56.542969 36.324219 56.542969 35.960938 57.125 34.652344 C 58.316406 31.933594 59.722656 29.929688 62.15625 27.390625 L 63.132812 26.363281 L 61.046875 27.410156 C 58.863281 28.519531 58.398438 28.652344 57.503906 28.46875 C 56.644531 28.289062 53.980469 25.933594 53.484375 24.890625 C 53.035156 23.960938 53.101562 22.554688 53.617188 21.972656 C 54.277344 21.246094 54.261719 21.144531 53.515625 21.277344 C 52.621094 21.425781 52.339844 21.195312 52.339844 20.300781 C 52.339844 19.769531 52.472656 19.4375 53.003906 18.757812 L 53.648438 17.878906 L 52.9375 17.980469 C 52.308594 18.078125 52.175781 18.046875 52.011719 17.730469 C 51.910156 17.53125 51.878906 17.199219 51.945312 17.003906 C 52.273438 15.925781 53.300781 13.472656 54.09375 11.882812 C 54.757812 10.554688 54.921875 10.09375 54.742188 10.09375 C 54.394531 10.09375 52.738281 10.96875 51.894531 11.601562 C 49.511719 13.40625 50.984375 9.179688 53.847656 6.03125 C 57.15625 2.386719 55.402344 3.117188 51.414062 7.042969 C 50.140625 8.320312 48.832031 9.726562 48.535156 10.175781 C 48.238281 10.640625 47.527344 11.484375 46.980469 12.082031 C 46.417969 12.675781 45.523438 13.753906 44.976562 14.484375 C 44.449219 15.210938 43.835938 15.992188 43.636719 16.222656 C 43.4375 16.457031 42.726562 17.714844 42.046875 19.039062 C 40.640625 21.824219 40.195312 23.449219 39.515625 28.15625 C 39.285156 29.746094 39.035156 31.503906 38.9375 32.050781 C 38.855469 32.597656 38.773438 34.1875 38.773438 35.578125 C 38.773438 37.699219 38.804688 38.097656 39.019531 38.097656 C 39.535156 38.097656 39.253906 38.5625 38.671875 38.675781 C 37.960938 38.808594 37.910156 38.761719 37.894531 38.128906 C 37.863281 37.699219 37.828125 37.648438 37.515625 37.765625 C 37.152344 37.914062 37.152344 38.195312 37.265625 33.359375 C 37.28125 32.828125 37.347656 32.644531 37.597656 32.578125 C 37.828125 32.53125 37.929688 32.3125 37.996094 31.699219 C 38.027344 31.253906 38.144531 30.441406 38.242188 29.894531 C 38.34375 29.347656 38.457031 28.1875 38.523438 27.328125 C 38.640625 25.667969 38.671875 25.4375 39.316406 23.183594 C 39.75 21.691406 40.957031 18.957031 41.121094 19.125 C 41.171875 19.171875 41.253906 19.105469 41.320312 18.957031 C 41.386719 18.792969 41.355469 18.726562 41.238281 18.808594 C 41.121094 18.875 41.074219 18.824219 41.121094 18.691406 C 41.171875 18.558594 41.304688 18.476562 41.402344 18.511719 C 41.570312 18.542969 41.652344 18.277344 41.636719 17.765625 C 41.617188 17.648438 41.683594 17.582031 41.75 17.632812 C 41.816406 17.683594 41.964844 17.515625 42.066406 17.25 C 42.347656 16.503906 43.007812 15.429688 43.554688 14.78125 C 43.835938 14.449219 44.066406 14.117188 44.066406 14.035156 C 44.066406 13.953125 44.148438 13.9375 44.234375 13.984375 C 44.332031 14.035156 44.398438 14.003906 44.398438 13.902344 C 44.398438 13.804688 44.695312 13.40625 45.058594 13.007812 C 45.425781 12.609375 45.722656 12.214844 45.722656 12.113281 C 45.722656 12.015625 45.839844 11.863281 45.96875 11.800781 C 46.101562 11.714844 46.484375 11.269531 46.847656 10.804688 C 47.726562 9.628906 50.867188 6.363281 52.027344 5.433594 C 52.558594 5.019531 52.9375 4.625 52.886719 4.558594 C 52.839844 4.507812 52.886719 4.457031 53.019531 4.457031 C 53.152344 4.457031 53.46875 4.226562 53.714844 3.925781 C 53.980469 3.628906 54.144531 3.496094 54.078125 3.628906 C 54.011719 3.761719 54.113281 3.730469 54.277344 3.546875 C 54.441406 3.363281 55.089844 2.964844 55.71875 2.667969 C 56.347656 2.371094 57.125 1.890625 57.472656 1.625 C 58.585938 0.804688 59.972656 0.445312 61.34375 0.628906 C 61.3125 0.664062 61.574219 0.84375 61.9375 1.042969 C 62.304688 1.242188 62.765625 1.65625 62.980469 1.972656 C 63.429688 2.636719 64.753906 5.699219 64.753906 6.046875 C 64.753906 6.347656 64.984375 6.347656 65.25 6.03125 C 65.347656 5.898438 65.53125 5.816406 65.628906 5.832031 C 65.84375 5.867188 66.921875 7.140625 66.820312 7.242188 C 66.789062 7.292969 66.921875 7.457031 67.117188 7.621094 C 67.316406 7.789062 67.398438 7.921875 67.285156 7.9375 C 67.183594 7.9375 67.136719 8.085938 67.183594 8.285156 C 67.25 8.550781 67.316406 8.566406 67.417969 8.402344 C 67.53125 8.234375 67.566406 8.269531 67.582031 8.519531 L 67.582031 9 C 67.566406 9.066406 67.632812 9.230469 67.730469 9.347656 C 67.832031 9.460938 67.945312 9.777344 67.980469 10.027344 C 68.09375 10.707031 68.34375 11.929688 68.460938 12.410156 C 68.65625 13.140625 68.757812 15.230469 68.625 15.527344 C 68.558594 15.675781 68.492188 16.007812 68.492188 16.238281 C 68.476562 16.636719 68.527344 16.671875 68.839844 16.539062 C 69.484375 16.289062 69.785156 16.539062 69.75 17.21875 C 69.71875 17.648438 69.417969 18.644531 69.402344 18.378906 C 69.386719 18.164062 69.351562 18.164062 69.238281 18.359375 C 69.15625 18.492188 69.121094 18.691406 69.171875 18.824219 C 69.21875 18.941406 69.171875 19.039062 69.054688 19.039062 C 68.957031 19.039062 68.890625 19.140625 68.9375 19.257812 C 68.972656 19.355469 68.875 19.6875 68.707031 19.953125 C 68.328125 20.582031 68.359375 21.128906 68.757812 21.144531 C 68.957031 21.160156 69.023438 21.09375 68.9375 20.980469 C 68.890625 20.863281 68.972656 20.898438 69.15625 21.046875 C 69.320312 21.195312 69.550781 21.292969 69.652344 21.246094 C 69.914062 21.160156 69.816406 22.105469 69.550781 22.453125 C 69.417969 22.585938 69.003906 22.902344 68.609375 23.132812 C 68.210938 23.347656 67.898438 23.613281 67.898438 23.714844 C 67.898438 23.8125 67.78125 23.828125 67.632812 23.78125 C 67.5 23.730469 67.433594 23.746094 67.484375 23.847656 C 67.53125 23.945312 67.484375 24.027344 67.367188 24.027344 L 66.902344 24.078125 C 66.769531 24.078125 66.671875 24.175781 66.6875 24.292969 C 66.722656 24.410156 66.621094 24.460938 66.488281 24.410156 C 66.359375 24.34375 66.242188 24.394531 66.242188 24.492188 C 66.242188 24.59375 66.125 24.675781 65.992188 24.675781 C 65.859375 24.675781 65.746094 24.789062 65.746094 24.921875 C 65.746094 25.074219 65.628906 25.171875 65.464844 25.140625 C 65.296875 25.105469 65.101562 25.253906 64.984375 25.46875 C 64.886719 25.6875 64.734375 25.851562 64.652344 25.835938 C 64.570312 25.816406 64.4375 25.949219 64.339844 26.117188 C 64.257812 26.28125 64.023438 26.546875 63.84375 26.714844 C 63.660156 26.894531 63.527344 27.109375 63.5625 27.195312 C 63.578125 27.277344 63.527344 27.308594 63.445312 27.261719 C 63.363281 27.210938 63.113281 27.410156 62.882812 27.722656 C 62.652344 28.023438 62.15625 28.570312 61.773438 28.917969 C 61.410156 29.265625 61.113281 29.644531 61.113281 29.746094 C 61.113281 29.863281 61.046875 29.976562 60.980469 30.011719 C 60.632812 30.144531 59.441406 32 59.042969 33.011719 C 58.796875 33.625 58.53125 34.171875 58.449219 34.21875 C 58.363281 34.269531 58.300781 34.386719 58.300781 34.484375 C 58.300781 34.585938 58.414062 34.566406 58.5625 34.433594 C 58.8125 34.238281 58.828125 34.269531 58.730469 34.867188 C 58.664062 35.230469 58.5625 36.042969 58.515625 36.65625 C 58.429688 37.800781 58.480469 38.015625 59.160156 39.574219 C 59.40625 40.121094 59.441406 40.335938 59.292969 40.417969 C 59.175781 40.484375 59.125 40.617188 59.191406 40.714844 C 59.242188 40.816406 59.191406 40.929688 59.09375 40.964844 C 58.925781 41.03125 58.925781 41.0625 59.078125 41.0625 C 59.191406 41.082031 59.242188 41.195312 59.175781 41.378906 C 59.125 41.527344 59.125 41.609375 59.210938 41.542969 C 59.324219 41.429688 59.789062 41.777344 59.789062 41.976562 C 59.789062 42.023438 59.457031 42.074219 59.042969 42.074219 C 58.496094 42.074219 58.300781 42.140625 58.300781 42.324219 C 58.300781 42.457031 58.183594 42.570312 58.050781 42.570312 C 57.917969 42.570312 57.800781 42.6875 57.800781 42.820312 C 57.800781 42.96875 57.652344 43.070312 57.421875 43.070312 C 57.15625 43.070312 56.859375 43.300781 56.480469 43.816406 C 56.179688 44.230469 55.882812 44.527344 55.851562 44.476562 C 55.734375 44.378906 56.527344 43.25 57.304688 42.40625 C 57.902344 41.761719 57.933594 41.695312 57.769531 41.113281 L 57.585938 40.5 L 57.421875 40.996094 C 57.207031 41.644531 56.148438 43.21875 55.46875 43.882812 C 54.824219 44.542969 53.25 45.339844 51.84375 45.738281 C 50.703125 46.070312 50.191406 46.101562 49.082031 45.886719 Z M 52.339844 44.742188 C 53.417969 44.328125 55.351562 43.085938 55.453125 42.738281 C 55.503906 42.605469 55.320312 42.6875 55.054688 42.9375 C 54.789062 43.183594 54.0625 43.617188 53.417969 43.898438 L 51.679688 44.691406 C 51.363281 44.84375 50.835938 45.007812 50.519531 45.074219 C 49.992188 45.207031 50.007812 45.207031 50.6875 45.15625 C 51.101562 45.125 51.84375 44.941406 52.339844 44.742188 Z M 60.070312 26.847656 C 60.863281 26.496094 62.503906 25.652344 63.675781 24.957031 C 64.867188 24.277344 66.324219 23.5 66.902344 23.214844 C 67.5 22.953125 68.195312 22.503906 68.460938 22.222656 L 68.9375 21.707031 L 68.460938 21.609375 C 67.351562 21.378906 67.152344 20.878906 67.765625 19.917969 C 68.195312 19.222656 68.890625 17.664062 68.808594 17.582031 C 68.773438 17.550781 68.527344 17.648438 68.226562 17.796875 C 67.945312 17.945312 67.597656 18.03125 67.464844 17.980469 C 67.183594 17.863281 67.167969 17.332031 67.417969 16.835938 C 67.78125 16.171875 67.914062 13.902344 67.648438 12.910156 C 67.515625 12.410156 67.269531 11.253906 67.085938 10.324219 C 66.769531 8.632812 66.308594 7.425781 65.976562 7.324219 C 65.859375 7.292969 65.746094 7.605469 65.679688 8.136719 C 65.53125 9.347656 65.316406 9.644531 65.082031 9.015625 C 63.925781 5.867188 63.195312 4.292969 62.519531 3.378906 C 62.304688 3.117188 62.089844 2.71875 62.039062 2.519531 C 61.890625 2.023438 61.011719 1.308594 60.566406 1.308594 C 60.367188 1.308594 59.589844 1.574219 58.828125 1.921875 L 57.453125 2.519531 L 56.414062 4.109375 C 55.832031 4.988281 54.839844 6.347656 54.210938 7.140625 C 53.597656 7.9375 52.921875 8.882812 52.722656 9.246094 L 52.339844 9.910156 L 53.085938 9.578125 C 53.929688 9.195312 55.585938 8.882812 56.015625 9.015625 C 56.164062 9.066406 56.328125 9.230469 56.378906 9.363281 C 56.496094 9.660156 55.867188 11.203125 55.136719 12.445312 C 54.492188 13.523438 53.25 16.007812 53.085938 16.539062 C 52.96875 16.917969 52.988281 16.917969 53.566406 16.820312 C 54.0625 16.71875 54.226562 16.769531 54.574219 17.117188 C 55.136719 17.683594 55.089844 18.097656 54.378906 18.90625 C 53.152344 20.332031 53.183594 20.21875 53.945312 20.183594 C 54.328125 20.152344 54.742188 20.234375 54.890625 20.351562 C 55.285156 20.679688 55.222656 21.625 54.742188 22.320312 C 53.945312 23.5 54.328125 24.640625 56.132812 26.480469 C 57.289062 27.675781 57.324219 27.691406 57.96875 27.589844 C 58.332031 27.542969 59.273438 27.195312 60.070312 26.847656 Z M 60.070312 26.847656 "
    />
    <path
      style="stroke: none; fill-rule: nonzero; fill: rgb(87.058824%, 87.843137%, 69.019608%); fill-opacity: 1"
      d="M 58.679688 26.167969 C 58.347656 26.035156 58.300781 25.882812 58.300781 25.1875 C 58.300781 24.210938 58.53125 23.515625 58.863281 23.515625 C 59.144531 23.515625 60.085938 24.757812 60.234375 25.304688 C 60.402344 25.984375 59.472656 26.496094 58.679688 26.167969 Z M 62.054688 23 C 61.246094 21.90625 61.292969 21.59375 62.238281 21.640625 C 63.164062 21.675781 64.15625 22.171875 64.222656 22.621094 C 64.289062 23.117188 63.660156 23.847656 63.132812 23.847656 C 62.785156 23.847656 62.535156 23.648438 62.054688 23 Z M 55.851562 23.480469 C 55.601562 23.234375 55.601562 22.820312 55.851562 22.273438 C 56.066406 21.808594 56.5625 21.726562 56.710938 22.121094 C 56.976562 22.820312 56.710938 23.679688 56.230469 23.679688 C 56.132812 23.679688 55.964844 23.597656 55.851562 23.480469 Z M 59.210938 22.304688 C 58.644531 21.492188 59.058594 20.980469 59.9375 21.445312 C 60.484375 21.707031 60.582031 22.039062 60.25 22.304688 C 59.773438 22.667969 59.457031 22.667969 59.210938 22.304688 Z M 56.3125 20.863281 C 56.3125 20.679688 56.429688 20.53125 56.5625 20.53125 C 56.695312 20.53125 56.808594 20.679688 56.808594 20.863281 C 56.808594 21.046875 56.695312 21.195312 56.5625 21.195312 C 56.429688 21.195312 56.3125 21.046875 56.3125 20.863281 Z M 58.132812 20.199219 C 58.132812 19.933594 58.214844 19.851562 58.515625 19.902344 C 58.710938 19.933594 58.878906 20.066406 58.878906 20.199219 C 58.878906 20.332031 58.710938 20.464844 58.515625 20.5 C 58.214844 20.546875 58.132812 20.464844 58.132812 20.199219 Z M 60.730469 19.933594 C 60.070312 19.570312 60.203125 19.140625 60.996094 19.074219 C 61.742188 19.007812 61.988281 19.386719 61.507812 19.871094 C 61.226562 20.152344 61.160156 20.152344 60.730469 19.933594 Z M 64.023438 19.324219 C 63.195312 18.859375 62.949219 18.476562 63.195312 18.097656 C 63.347656 17.863281 63.609375 17.796875 64.4375 17.796875 L 65.496094 17.796875 L 65.546875 18.476562 C 65.578125 18.941406 65.515625 19.257812 65.332031 19.4375 C 64.984375 19.785156 64.800781 19.769531 64.023438 19.324219 Z M 58.992188 17.597656 C 59.027344 17.433594 59.210938 17.285156 59.425781 17.25 C 59.707031 17.199219 59.789062 17.285156 59.789062 17.53125 C 59.789062 17.796875 59.6875 17.878906 59.359375 17.878906 C 59.042969 17.878906 58.945312 17.796875 58.992188 17.597656 Z M 61.210938 17.183594 C 60.914062 16.753906 61.078125 16.472656 61.722656 16.304688 C 62.003906 16.238281 62.238281 16.289062 62.402344 16.457031 C 62.632812 16.6875 62.617188 16.753906 62.269531 17.136719 C 61.789062 17.648438 61.542969 17.664062 61.210938 17.183594 Z M 58.796875 15.5625 C 58.796875 15.164062 59.226562 14.929688 59.492188 15.195312 C 59.621094 15.328125 59.621094 15.445312 59.457031 15.644531 C 59.160156 15.992188 58.796875 15.957031 58.796875 15.5625 Z M 63.976562 15.277344 C 63.328125 15.230469 63.046875 15.128906 62.933594 14.914062 C 62.75 14.550781 62.847656 14.433594 63.875 13.921875 C 65.082031 13.324219 65.746094 13.523438 65.746094 14.484375 C 65.746094 15.046875 65.480469 15.410156 65.101562 15.363281 Z M 55.039062 14.964844 C 54.941406 14.699219 55.285156 14.351562 55.519531 14.5 C 55.585938 14.550781 55.652344 14.730469 55.652344 14.914062 C 55.652344 15.296875 55.1875 15.34375 55.039062 14.964844 Z M 57.238281 14.617188 C 57.089844 14.25 57.570312 13.769531 57.820312 14.019531 C 58.050781 14.25 57.851562 14.898438 57.554688 14.898438 C 57.4375 14.898438 57.289062 14.765625 57.238281 14.617188 Z M 60.699219 14.21875 C 60.566406 14.019531 61.226562 13.242188 61.527344 13.242188 C 61.640625 13.242188 61.855469 13.390625 62.023438 13.570312 C 62.269531 13.835938 62.269531 13.9375 62.105469 14.152344 C 61.875 14.433594 60.847656 14.484375 60.699219 14.21875 Z M 56.542969 12.148438 C 56.195312 11.632812 56.445312 10.921875 56.957031 10.921875 C 57.40625 10.921875 57.472656 11.085938 57.355469 11.800781 C 57.238281 12.542969 56.890625 12.695312 56.542969 12.148438 Z M 59.078125 12.460938 C 59.027344 12.378906 59.011719 12.0625 59.027344 11.75 C 59.058594 11.101562 59.375 10.9375 59.9375 11.253906 C 60.382812 11.484375 60.367188 11.765625 59.902344 12.214844 C 59.507812 12.59375 59.210938 12.675781 59.078125 12.460938 Z M 61.890625 11.800781 C 61.65625 11.582031 61.789062 11.269531 62.453125 10.441406 C 62.847656 9.941406 63.261719 9.59375 63.445312 9.59375 C 63.957031 9.59375 64.621094 10.355469 64.554688 10.855469 C 64.503906 11.234375 64.355469 11.335938 63.511719 11.601562 C 62.453125 11.929688 62.054688 11.980469 61.890625 11.800781 Z M 60.019531 8.683594 C 59.902344 8.386719 60.234375 6.960938 60.484375 6.660156 C 60.730469 6.347656 61.34375 6.398438 61.65625 6.746094 C 62.121094 7.242188 62.003906 7.839844 61.359375 8.417969 C 60.714844 8.964844 60.167969 9.082031 60.019531 8.683594 Z M 56.429688 7.988281 C 56.378906 7.90625 56.28125 7.390625 56.230469 6.84375 C 56.132812 6.03125 56.164062 5.800781 56.394531 5.566406 C 56.890625 5.070312 58.132812 5.320312 58.132812 5.914062 C 58.132812 6.460938 57.207031 8.019531 56.859375 8.070312 C 56.660156 8.101562 56.480469 8.054688 56.429688 7.988281 Z M 79.644531 45.390625 C 79.644531 45.023438 79.578125 44.726562 79.480469 44.726562 C 79.398438 44.726562 79.316406 44.609375 79.316406 44.476562 C 79.316406 44.34375 79.429688 44.230469 79.5625 44.230469 C 79.695312 44.230469 79.8125 44.164062 79.8125 44.0625 C 79.8125 43.980469 80.027344 43.929688 80.308594 43.949219 C 80.820312 43.980469 81.019531 44.445312 80.605469 44.609375 C 80.488281 44.660156 80.554688 44.710938 80.769531 44.710938 C 81.351562 44.726562 81.167969 45.257812 80.507812 45.421875 C 79.960938 45.570312 79.8125 45.785156 80.191406 45.9375 C 80.292969 45.984375 80.226562 46.035156 80.027344 46.035156 C 79.695312 46.050781 79.644531 45.96875 79.644531 45.390625 Z M 55.285156 45.390625 C 55.238281 45.074219 55.285156 44.875 55.453125 44.808594 C 55.832031 44.660156 56.644531 44.710938 56.644531 44.890625 C 56.644531 44.992188 56.527344 45.058594 56.394531 45.058594 C 56.246094 45.058594 56.148438 45.207031 56.148438 45.472656 C 56.148438 45.804688 56.066406 45.886719 55.75 45.886719 C 55.4375 45.886719 55.335938 45.785156 55.285156 45.390625 Z M 63.925781 45.304688 C 63.925781 45.171875 63.859375 45.058594 63.777344 45.058594 C 63.695312 45.058594 63.660156 44.910156 63.710938 44.726562 C 63.859375 44.144531 64.257812 44.328125 64.257812 44.976562 C 64.257812 45.289062 64.191406 45.554688 64.089844 45.554688 C 64.007812 45.554688 63.925781 45.4375 63.925781 45.304688 Z M 15.4375 45.15625 C 15.4375 44.84375 15.984375 44.726562 16.316406 44.976562 C 16.730469 45.273438 16.664062 45.390625 16.019531 45.390625 C 15.636719 45.390625 15.4375 45.304688 15.4375 45.15625 Z M 41.800781 44.445312 C 41.550781 44.34375 41.503906 43.234375 41.75 43.234375 C 41.851562 43.234375 41.917969 43.019531 41.917969 42.738281 C 41.917969 42.125 42.296875 42.074219 42.675781 42.65625 C 42.925781 43.035156 42.925781 43.101562 42.578125 43.816406 C 42.214844 44.5625 42.164062 44.609375 41.800781 44.445312 Z M 82.128906 43.980469 C 82.128906 43.847656 82.226562 43.730469 82.359375 43.730469 C 82.492188 43.730469 82.625 43.648438 82.65625 43.550781 C 82.742188 43.300781 83.617188 43.550781 83.617188 43.816406 C 83.617188 44.078125 83.253906 44.230469 82.609375 44.230469 C 82.292969 44.230469 82.128906 44.144531 82.128906 43.980469 Z M 84.808594 43.75 C 84.859375 43.367188 84.941406 43.316406 85.570312 43.269531 C 86.148438 43.21875 86.265625 43.269531 86.265625 43.515625 C 86.265625 43.75 86.066406 43.863281 85.519531 43.996094 C 84.757812 44.179688 84.757812 44.164062 84.808594 43.75 Z M 46.25 41.808594 C 45.242188 41.3125 44.628906 40.617188 43.820312 39.058594 C 43.109375 37.714844 42.660156 36.457031 42.328125 34.785156 L 41.667969 31.71875 C 41.054688 28.835938 41.039062 28.652344 41.320312 28.652344 C 41.484375 28.652344 41.636719 29.03125 41.832031 29.945312 C 42.644531 33.839844 42.84375 34.386719 44.199219 36.257812 C 45.058594 37.601562 46.199219 38.738281 47.542969 39.589844 L 48.949219 40.316406 C 50.15625 40.964844 51.464844 40.566406 54.527344 38.644531 C 56.148438 37.617188 56.726562 37.550781 56.195312 38.445312 C 54.515625 40.898438 51.703125 42.324219 48.734375 42.242188 C 47.328125 42.242188 46.996094 42.191406 46.25 41.808594 Z M 50.605469 41.410156 C 50.96875 41.328125 50.769531 41.296875 49.941406 41.296875 C 48.980469 41.28125 48.570312 41.179688 47.492188 40.683594 C 46.78125 40.351562 45.921875 39.871094 45.589844 39.621094 L 44.996094 39.175781 L 45.359375 39.707031 C 45.988281 40.582031 46.664062 41.046875 47.660156 41.246094 L 48.785156 41.496094 C 49.066406 41.59375 50.089844 41.542969 50.605469 41.410156 Z M 53.085938 40.402344 C 53.183594 40.300781 52.9375 40.367188 52.539062 40.550781 C 51.628906 40.964844 51.398438 41.195312 52.257812 40.847656 C 52.621094 40.683594 53.003906 40.484375 53.085938 40.402344 Z M 39.816406 40.996094 C 39.699219 40.863281 39.597656 40.5 39.597656 40.167969 C 39.597656 39.640625 39.632812 39.589844 40.097656 39.589844 C 40.527344 39.589844 40.59375 39.65625 40.59375 40.054688 C 40.59375 41.113281 40.261719 41.511719 39.816406 40.996094 Z M 39.816406 40.996094 "
    />
    <path
      style="stroke: none; fill-rule: nonzero; fill: rgb(87.058824%, 87.843137%, 69.019608%); fill-opacity: 1"
      d="M 49.179688 37.714844 C 47.195312 37.039062 46.5 36.390625 45.242188 34.039062 C 44.359375 32.472656 43.808594 30.738281 43.621094 28.949219 C 43.488281 27.144531 43.835938 27.242188 44.316406 29.164062 C 44.796875 31.375 45.742188 33.453125 47.097656 35.265625 C 47.292969 35.480469 48.023438 35.925781 48.699219 36.242188 C 50.472656 37.070312 51.480469 37.070312 53.183594 36.242188 C 54.957031 35.378906 55.285156 35.265625 55.417969 35.460938 C 55.585938 35.726562 54.890625 36.324219 53.582031 37.019531 L 52.011719 37.867188 C 51.414062 38.195312 50.421875 38.148438 49.179688 37.714844 Z M 49.179688 37.714844 "
    />
    <path
      style="stroke: none; fill-rule: nonzero; fill: rgb(87.058824%, 87.843137%, 69.019608%); fill-opacity: 1"
      d="M 49.199219 32.925781 C 47.839844 32.546875 47.097656 31.519531 46.070312 28.601562 C 45.789062 27.789062 45.558594 26.929688 45.558594 26.695312 C 45.558594 26.449219 45.40625 25.6875 45.226562 25.007812 C 44.679688 22.917969 44.863281 18.128906 45.574219 16.273438 C 45.921875 15.34375 46.019531 16.171875 45.773438 17.796875 C 45.375 20.167969 45.390625 23.414062 45.789062 24.175781 C 46.136719 24.855469 46.898438 26.714844 47.542969 28.46875 C 48.023438 29.796875 48.335938 30.191406 49.445312 30.9375 C 50.191406 31.4375 52.472656 32.066406 52.953125 31.917969 C 53.550781 31.734375 56.976562 30.308594 57.671875 29.960938 C 57.820312 29.878906 57.984375 29.878906 58.035156 29.945312 C 58.28125 30.359375 55.335938 32.445312 54.292969 32.578125 C 53.898438 32.628906 53.449219 32.746094 53.269531 32.828125 C 52.839844 33.058594 49.890625 33.125 49.199219 32.925781 Z M 49.015625 32 C 48.617188 31.734375 48.070312 31.21875 47.808594 30.839844 C 47.160156 29.894531 47.097656 29.960938 47.640625 30.988281 C 47.941406 31.535156 48.320312 31.933594 48.699219 32.132812 C 49.609375 32.628906 49.84375 32.511719 49.015625 32 Z M 49.015625 32 "
    />
    <path
      style="stroke: none; fill-rule: nonzero; fill: rgb(87.058824%, 87.843137%, 69.019608%); fill-opacity: 1"
      d="M 51.5625 28.46875 C 50.488281 27.9375 49.394531 26.878906 48.851562 25.851562 C 48.585938 25.335938 48.136719 24.625 47.875 24.261719 C 47.410156 23.613281 47.3125 23.265625 46.878906 20.765625 C 46.699219 19.703125 46.714844 19.40625 47.046875 17.796875 C 47.410156 15.941406 47.921875 14.167969 48.1875 13.753906 C 48.269531 13.621094 48.453125 13.570312 48.585938 13.621094 C 48.785156 13.6875 48.75 13.902344 48.4375 14.898438 C 47.988281 16.273438 47.941406 17.300781 48.269531 18.476562 C 48.402344 18.925781 48.601562 19.851562 48.699219 20.53125 C 48.816406 21.210938 49.082031 22.121094 49.296875 22.554688 C 49.527344 23 49.875 23.8125 50.074219 24.375 C 50.289062 24.957031 50.652344 25.734375 50.902344 26.117188 C 51.414062 26.910156 52.671875 27.921875 53.417969 28.121094 C 53.683594 28.203125 53.929688 28.386719 53.964844 28.535156 C 54.046875 28.96875 52.472656 28.917969 51.5625 28.46875 Z M 50.058594 25.71875 C 48.289062 22.289062 47.988281 21.527344 47.855469 19.984375 C 47.691406 18.292969 47.542969 17.898438 47.542969 19.171875 C 47.542969 20.53125 48.121094 23.167969 48.683594 24.34375 C 49.148438 25.304688 50.171875 26.664062 50.4375 26.664062 C 50.503906 26.664062 50.324219 26.234375 50.058594 25.71875 Z M 43.503906 25.054688 C 43.355469 24.113281 43.390625 22.355469 43.554688 22.355469 C 43.785156 22.355469 43.902344 23 43.902344 24.394531 C 43.902344 25.734375 43.6875 26.101562 43.503906 25.054688 Z M 99.585938 0.480469 C 99.519531 0.382812 99.554688 0.199219 99.652344 0.0976562 C 99.902344 -0.148438 100.066406 0.0664062 99.867188 0.414062 C 99.75 0.613281 99.6875 0.628906 99.585938 0.480469 Z M 99.585938 0.480469 "
    />
    <path
      style="stroke: none; fill-rule: nonzero; fill: rgb(93.333333%, 96.078431%, 87.843137%); fill-opacity: 1"
      d="M 0.0507812 57.570312 L 0.0507812 57.136719 L 0.546875 57.519531 C 0.828125 57.71875 1.042969 57.902344 1.042969 57.933594 C 1.042969 57.96875 0.828125 57.984375 0.546875 57.984375 C 0.132812 57.984375 0.0507812 57.917969 0.0507812 57.570312 Z M 99.171875 57.785156 C 99.171875 57.667969 99.371094 57.4375 99.585938 57.269531 L 100 56.972656 L 100 57.484375 C 100 57.902344 99.933594 57.984375 99.585938 57.984375 C 99.355469 57.984375 99.171875 57.882812 99.171875 57.785156 Z M 21.398438 57.667969 C 21.398438 57.585938 21.59375 57.355469 21.84375 57.15625 C 22.089844 56.972656 22.457031 56.558594 22.65625 56.261719 C 22.871094 55.960938 23.628906 55.214844 24.359375 54.601562 C 25.101562 53.988281 25.699219 53.375 25.699219 53.242188 C 25.699219 52.929688 24.738281 52.960938 21.777344 53.425781 C 20.074219 53.691406 19.726562 53.707031 19.492188 53.507812 C 19.128906 53.210938 19.3125 53.128906 20.984375 52.761719 C 21.710938 52.597656 22.6875 52.300781 23.132812 52.101562 C 23.597656 51.902344 24.34375 51.601562 24.820312 51.453125 C 25.46875 51.238281 25.699219 51.074219 25.765625 50.757812 C 25.832031 50.527344 26.0625 50.046875 26.277344 49.679688 C 26.511719 49.332031 26.691406 48.96875 26.691406 48.886719 C 26.691406 48.570312 28.527344 46.730469 29.257812 46.300781 C 29.671875 46.070312 30 45.820312 30 45.753906 C 29.984375 45.6875 29.820312 45.421875 29.605469 45.15625 C 29.222656 44.710938 29.175781 44.691406 27.917969 44.742188 L 26.609375 44.808594 L 26.3125 44.195312 C 26.03125 43.632812 25.980469 43.597656 25.402344 43.683594 C 25.070312 43.730469 24.574219 43.898438 24.308594 44.03125 C 24.027344 44.164062 23.367188 44.277344 22.820312 44.277344 C 21.246094 44.296875 20.335938 43.664062 20.402344 42.605469 C 20.503906 41.148438 20.421875 40.882812 19.660156 40.136719 L 18.898438 39.421875 L 17.855469 39.523438 C 15.871094 39.722656 15.058594 39.289062 15.671875 38.347656 C 16.117188 37.667969 17.144531 37.269531 19.046875 37.039062 C 20.023438 36.90625 21.28125 36.6875 21.84375 36.523438 L 22.871094 36.242188 L 24.042969 36.6875 C 24.988281 37.054688 25.203125 37.203125 25.121094 37.417969 C 24.523438 38.84375 25.054688 39.421875 27.007812 39.421875 C 27.519531 39.441406 28.230469 39.539062 28.59375 39.671875 C 29.886719 40.152344 30.234375 39.988281 31.574219 38.363281 C 31.972656 37.867188 32.300781 37.617188 32.46875 37.667969 L 33.691406 38.015625 C 34.402344 38.230469 34.636719 38.363281 34.636719 38.59375 C 34.636719 39.621094 35.460938 40.167969 36.570312 39.902344 C 37.167969 39.738281 37.582031 39.308594 37.976562 38.394531 C 38.078125 38.164062 38.292969 38.097656 38.90625 38.097656 C 40.03125 38.097656 40.59375 38.546875 40.59375 39.441406 C 40.59375 39.902344 40.527344 40.085938 40.34375 40.085938 C 40.210938 40.085938 40.097656 40.167969 40.097656 40.253906 C 40.097656 40.351562 40.179688 40.417969 40.261719 40.417969 C 40.359375 40.417969 40.425781 40.601562 40.425781 40.832031 C 40.425781 41.164062 40.59375 41.328125 41.304688 41.675781 C 42.429688 42.257812 42.828125 42.589844 42.546875 42.769531 C 42.378906 42.871094 42.378906 42.902344 42.546875 42.902344 C 42.644531 42.902344 42.742188 43.085938 42.742188 43.316406 C 42.742188 43.632812 42.660156 43.730469 42.378906 43.730469 C 42.082031 43.730469 42.046875 43.765625 42.230469 43.882812 C 42.429688 44.015625 42.429688 44.097656 42.199219 44.445312 C 42.046875 44.675781 41.667969 45.007812 41.355469 45.207031 C 40.824219 45.539062 40.789062 45.605469 40.941406 46.035156 C 41.054688 46.382812 41.253906 46.53125 41.617188 46.617188 C 42.546875 46.796875 42.675781 46.746094 42.941406 46.070312 C 43.238281 45.324219 43.785156 45.125 44.894531 45.304688 C 45.90625 45.472656 46.054688 45.71875 46.054688 47.128906 C 46.054688 48.257812 46.085938 48.371094 46.5 48.6875 C 46.730469 48.886719 47.113281 49.085938 47.328125 49.132812 C 47.527344 49.199219 47.707031 49.300781 47.707031 49.382812 C 47.707031 49.566406 47.890625 49.566406 48.1875 49.382812 C 48.386719 49.25 48.386719 49.167969 48.15625 48.804688 C 47.558594 47.890625 47.890625 47.246094 49.148438 46.863281 C 49.777344 46.683594 49.925781 46.699219 50.453125 46.980469 L 51.035156 47.292969 L 51.863281 46.847656 C 52.308594 46.582031 52.820312 46.382812 52.988281 46.382812 C 53.167969 46.382812 53.566406 46.683594 53.863281 47.03125 C 54.410156 47.660156 54.625 47.710938 55.136719 47.277344 C 55.171875 47.246094 54.988281 46.996094 54.757812 46.699219 C 54.179688 46.019531 54.261719 45.589844 55.023438 45.058594 C 55.371094 44.824219 55.867188 44.3125 56.132812 43.898438 C 56.414062 43.484375 56.976562 42.789062 57.390625 42.355469 C 58.101562 41.578125 58.167969 41.542969 58.84375 41.644531 L 60.53125 41.859375 C 61.507812 41.992188 61.527344 42.007812 61.742188 42.636719 C 61.855469 43.003906 61.90625 43.402344 61.875 43.515625 C 61.824219 43.632812 61.855469 43.730469 61.957031 43.730469 C 62.070312 43.730469 62.121094 43.964844 62.070312 44.3125 C 62.039062 44.625 62.070312 44.890625 62.15625 44.890625 C 62.238281 44.890625 62.269531 45.125 62.238281 45.390625 C 62.1875 45.671875 62.222656 45.886719 62.304688 45.886719 C 62.371094 45.886719 62.4375 46.285156 62.4375 46.765625 C 62.4375 48.140625 62.652344 48.257812 65.316406 48.371094 C 67.550781 48.453125 68.179688 48.636719 67.996094 49.152344 C 67.945312 49.265625 67.980469 49.367188 68.0625 49.367188 C 68.160156 49.367188 68.226562 49.515625 68.226562 49.699219 C 68.226562 50.09375 68.675781 50.609375 69.136719 50.757812 C 69.320312 50.808594 69.949219 50.726562 70.542969 50.542969 L 71.621094 50.246094 L 72.976562 51.421875 L 74.316406 52.597656 L 74.332031 53.890625 C 74.351562 54.585938 74.285156 55.167969 74.21875 55.167969 C 74.136719 55.167969 74.101562 55.398438 74.152344 55.664062 C 74.183594 55.945312 74.152344 56.160156 74.070312 56.160156 C 73.988281 56.160156 73.921875 56.359375 73.9375 56.625 L 73.9375 57.070312 L 70.460938 57.171875 L 70.082031 55.929688 C 69.867188 55.25 69.585938 54.601562 69.453125 54.488281 C 69.335938 54.386719 68.875 54.269531 68.460938 54.238281 C 68.027344 54.207031 67.582031 54.089844 67.464844 53.988281 C 67.285156 53.839844 67.136719 53.890625 66.820312 54.238281 C 66.589844 54.488281 66.40625 54.800781 66.40625 54.949219 C 66.40625 55.449219 66.011719 56.328125 65.796875 56.328125 C 65.679688 56.328125 65.578125 56.410156 65.578125 56.492188 C 65.578125 56.707031 65.382812 56.707031 64.800781 56.457031 C 64.554688 56.359375 64.273438 56.261719 64.171875 56.261719 C 64.089844 56.242188 63.84375 56.144531 63.644531 56.027344 C 63.3125 55.847656 63.261719 55.679688 63.261719 54.902344 C 63.261719 53.476562 62.632812 52.367188 61.773438 52.234375 C 61.277344 52.167969 60.183594 51.601562 59.65625 51.15625 C 59.226562 50.792969 59.042969 50.726562 58.796875 50.859375 C 58.628906 50.941406 58.332031 51.023438 58.148438 51.023438 C 57.953125 51.023438 57.800781 51.105469 57.800781 51.1875 C 57.800781 51.289062 57.6875 51.355469 57.554688 51.355469 C 57.421875 51.355469 57.304688 51.4375 57.304688 51.539062 C 57.304688 51.636719 57.125 51.953125 56.890625 52.25 C 56.527344 52.730469 56.496094 52.894531 56.578125 53.941406 C 56.644531 54.917969 56.609375 55.183594 56.347656 55.496094 L 56.046875 55.863281 L 55.222656 55.429688 C 53.996094 54.785156 53.898438 54.667969 53.699219 53.59375 C 53.484375 52.347656 53.234375 51.6875 52.988281 51.6875 C 52.886719 51.6875 52.457031 52.050781 52.027344 52.480469 C 51.132812 53.410156 51.132812 53.425781 52.058594 55.761719 C 52.40625 56.589844 52.671875 57.402344 52.671875 57.550781 C 52.671875 57.785156 52.144531 57.816406 47.128906 57.816406 L 41.585938 57.816406 L 41.585938 57.335938 C 41.585938 56.410156 41.335938 56.0625 40.527344 55.847656 C 40.113281 55.746094 39.597656 55.664062 39.382812 55.664062 C 38.804688 55.664062 38.640625 55.382812 38.507812 54.15625 L 38.40625 53.0625 L 39.863281 52.132812 C 41.355469 51.1875 42.414062 50.328125 42.414062 50.0625 C 42.414062 49.980469 42.214844 49.746094 41.984375 49.515625 C 41.601562 49.167969 41.535156 49.152344 41.371094 49.382812 C 40.523438 50.148438 39.546875 50.761719 38.492188 51.1875 C 38.257812 51.1875 38.109375 51.289062 38.109375 51.4375 C 38.109375 51.570312 37.960938 51.6875 37.777344 51.6875 C 37.597656 51.6875 37.449219 51.785156 37.449219 51.917969 C 37.449219 52.035156 37.316406 52.183594 37.132812 52.234375 C 36.902344 52.28125 36.851562 52.414062 36.902344 52.746094 C 36.984375 53.128906 36.902344 53.210938 36.355469 53.441406 C 35.992188 53.59375 35.429688 53.722656 35.097656 53.722656 C 34.75 53.722656 34.46875 53.773438 34.46875 53.839844 C 34.46875 53.921875 34.320312 53.941406 34.140625 53.890625 C 33.921875 53.824219 33.808594 53.890625 33.808594 54.054688 C 33.808594 54.371094 32.832031 54.835938 32.203125 54.835938 C 31.953125 54.835938 31.425781 54.753906 31.027344 54.667969 C 30.265625 54.488281 29.4375 54.601562 29.605469 54.867188 C 29.738281 55.066406 28.695312 56.160156 28.378906 56.160156 C 28.265625 56.160156 28.214844 56.242188 28.265625 56.328125 C 28.3125 56.425781 28.28125 56.492188 28.179688 56.492188 C 28.082031 56.492188 28.050781 56.558594 28.097656 56.65625 C 28.148438 56.742188 28.082031 57.039062 27.933594 57.320312 C 27.734375 57.703125 27.570312 57.816406 27.1875 57.816406 C 26.90625 57.816406 26.691406 57.769531 26.691406 57.71875 C 26.691406 57.667969 26.90625 57.320312 27.1875 56.9375 C 27.453125 56.558594 27.75 55.894531 27.832031 55.480469 C 27.933594 55.066406 28.050781 54.601562 28.113281 54.453125 C 28.332031 53.855469 27.535156 54.207031 26.144531 55.300781 C 24.144531 56.875 21.398438 58.25 21.398438 57.667969 Z M 72.5625 55.214844 C 72.894531 54.917969 72.960938 54.171875 72.664062 53.875 C 72.546875 53.757812 72.265625 53.675781 72.035156 53.675781 C 71.488281 53.675781 71.207031 53.957031 71.207031 54.519531 C 71.207031 55.363281 71.96875 55.761719 72.5625 55.214844 Z M 29.785156 50.425781 C 29.984375 50.09375 29.984375 50.011719 29.636719 49.632812 C 29.273438 49.21875 29.242188 49.199219 28.894531 49.449219 C 28.480469 49.746094 28.363281 50.609375 28.726562 50.757812 C 29.109375 50.90625 29.554688 50.773438 29.785156 50.425781 Z M 32.367188 50.460938 C 32.484375 50.144531 32.070312 49.796875 31.738281 49.929688 C 31.605469 49.980469 31.492188 50.179688 31.492188 50.359375 C 31.492188 50.59375 31.605469 50.691406 31.886719 50.691406 C 32.101562 50.691406 32.320312 50.59375 32.367188 50.460938 Z M 59.257812 47.675781 C 59.753906 47.179688 59.210938 46.21875 58.429688 46.21875 C 58.066406 46.21875 57.636719 46.664062 57.636719 47.046875 C 57.636719 47.726562 58.761719 48.171875 59.257812 47.675781 Z M 44.664062 47.277344 C 44.8125 46.683594 44.414062 46.285156 43.917969 46.53125 C 43.519531 46.746094 43.488281 46.914062 43.738281 47.394531 C 44 47.859375 44.53125 47.792969 44.664062 47.277344 Z M 57.105469 45.523438 C 57.15625 45.109375 57.105469 45.058594 56.695312 45.058594 C 56.261719 45.058594 55.503906 45.390625 55.914062 45.390625 C 56.03125 45.390625 56.148438 45.539062 56.195312 45.738281 C 56.347656 46.265625 57.042969 46.101562 57.105469 45.523438 Z M 36.804688 42.902344 C 37.433594 42.554688 36.96875 41.644531 36.289062 41.875 C 35.777344 42.058594 35.675781 42.4375 36.058594 42.804688 C 36.355469 43.117188 36.390625 43.117188 36.804688 42.902344 Z M 23.21875 41.992188 C 23.546875 41.59375 23.347656 41.164062 22.820312 41.164062 C 22.289062 41.164062 21.941406 41.542969 22.109375 41.976562 C 22.242188 42.308594 22.9375 42.324219 23.21875 41.992188 Z M 23.21875 41.992188 "
    />
    <path
      style="stroke: none; fill-rule: nonzero; fill: rgb(93.333333%, 96.078431%, 87.843137%); fill-opacity: 1"
      d="M 33.078125 57.570312 C 32.914062 57.105469 32.964844 56.839844 33.3125 56.492188 C 33.726562 56.078125 33.988281 56.078125 34.453125 56.476562 C 34.71875 56.707031 34.800781 56.9375 34.765625 57.269531 C 34.71875 57.703125 34.652344 57.734375 33.957031 57.785156 C 33.359375 57.816406 33.164062 57.769531 33.078125 57.570312 Z M 58.382812 56.609375 C 57.917969 55.878906 58.582031 55.117188 59.273438 55.597656 C 59.539062 55.796875 59.621094 55.996094 59.589844 56.375 C 59.554688 56.808594 59.457031 56.921875 59.09375 56.957031 C 58.777344 56.988281 58.582031 56.90625 58.382812 56.609375 Z M 79.859375 51.273438 C 77.910156 49.960938 77.164062 49.613281 77.164062 50.027344 C 77.164062 50.128906 77.015625 50.195312 76.832031 50.195312 C 76.652344 50.195312 76.5 50.261719 76.5 50.34375 C 76.5 50.410156 76.203125 50.675781 75.855469 50.90625 L 75.210938 51.339844 L 73.835938 50.0625 L 72.480469 48.785156 L 71.355469 48.753906 C 70.511719 48.738281 70.214844 48.785156 70.148438 48.96875 C 70 49.367188 69.816406 49.234375 69.417969 48.386719 C 68.875 47.164062 68.160156 46.878906 65.777344 46.878906 L 63.925781 46.878906 L 63.925781 46.167969 C 63.925781 45.371094 63.347656 42.207031 63.097656 41.578125 C 63 41.347656 62.765625 41.0625 62.585938 40.949219 C 62.238281 40.734375 59.605469 40.335938 59.242188 40.46875 C 59.011719 40.535156 58.496094 39.9375 58.414062 39.488281 C 58.382812 39.308594 58.234375 38.894531 58.066406 38.5625 C 57.753906 37.816406 57.734375 37.484375 58.015625 37.386719 C 58.167969 37.335938 58.167969 37.253906 58.035156 37.085938 C 57.835938 36.820312 57.933594 35.113281 58.148438 35.113281 C 58.234375 35.113281 58.300781 35.015625 58.300781 34.898438 C 58.300781 34.765625 58.449219 34.535156 58.628906 34.371094 C 59.324219 33.738281 60.285156 34.550781 60.515625 35.960938 C 60.617188 36.589844 60.683594 36.65625 61.707031 37.121094 C 63.542969 37.933594 63.460938 37.949219 63.976562 36.65625 C 64.324219 35.777344 64.40625 35.347656 64.339844 34.785156 C 64.289062 34.371094 64.304688 33.953125 64.371094 33.855469 C 64.4375 33.757812 65.101562 33.242188 65.828125 32.710938 C 66.933594 32.039062 67.894531 31.15625 68.65625 30.109375 C 69.238281 29.199219 69.617188 29.03125 71.40625 28.835938 C 72.28125 28.734375 73.339844 28.503906 73.769531 28.320312 C 74.679688 27.9375 75.839844 27.890625 76.46875 28.222656 C 76.71875 28.355469 77.410156 28.984375 78.039062 29.628906 C 79.382812 31.023438 79.449219 31.417969 78.539062 32.199219 C 75.871094 34.46875 74.566406 36.40625 74.398438 38.3125 C 74.351562 38.875 74.167969 39.640625 74.003906 39.988281 L 73.6875 40.632812 L 75.046875 40.535156 C 77.113281 40.367188 77.757812 40.914062 77.5625 42.636719 C 77.476562 43.335938 77.511719 43.632812 77.757812 44.046875 C 77.925781 44.328125 78.125 44.5625 78.207031 44.5625 C 78.289062 44.5625 78.917969 44.429688 79.613281 44.246094 C 80.324219 44.078125 81.566406 43.847656 82.375 43.75 C 83.203125 43.632812 84.476562 43.402344 85.222656 43.21875 C 86.679688 42.886719 87.589844 42.820312 87.589844 43.050781 C 87.589844 43.300781 86.101562 43.914062 85.753906 43.816406 C 85.570312 43.75 85.320312 43.816406 85.171875 43.964844 C 85.039062 44.113281 84.777344 44.230469 84.59375 44.230469 C 84.429688 44.230469 83.519531 44.496094 82.574219 44.808594 C 81.632812 45.125 80.722656 45.339844 80.523438 45.289062 C 80.042969 45.15625 79.859375 45.6875 80.292969 46.003906 C 80.472656 46.117188 80.722656 46.316406 80.835938 46.449219 C 80.984375 46.597656 81.894531 46.699219 83.867188 46.765625 C 86.859375 46.878906 88.25 47.011719 88.25 47.210938 C 88.25 47.394531 86.679688 47.710938 86.296875 47.59375 C 86.066406 47.542969 85.933594 47.578125 85.933594 47.710938 C 85.933594 47.859375 85.652344 47.890625 84.859375 47.839844 C 84.179688 47.777344 83.78125 47.808594 83.78125 47.925781 C 83.78125 48.023438 83.351562 48.058594 82.558594 47.992188 C 81.417969 47.890625 81.316406 47.90625 81.21875 48.222656 C 81.101562 48.605469 80.441406 48.902344 79.792969 48.902344 C 79.5625 48.902344 79.296875 49.035156 79.183594 49.199219 C 79.015625 49.464844 79.183594 49.613281 80.6875 50.574219 C 81.613281 51.171875 82.574219 51.867188 82.824219 52.132812 L 83.269531 52.597656 L 82.609375 52.628906 C 82.046875 52.664062 81.699219 52.5 79.859375 51.273438 Z M 78.273438 47.445312 C 78.472656 47.144531 78.453125 47.046875 78.140625 46.664062 C 77.757812 46.167969 77.164062 46.085938 76.765625 46.484375 C 76.386719 46.847656 76.433594 47.3125 76.882812 47.625 C 77.363281 47.957031 77.972656 47.890625 78.273438 47.445312 Z M 75.242188 46.101562 C 75.410156 45.671875 74.863281 45.304688 74.550781 45.621094 C 74.417969 45.753906 74.351562 45.984375 74.398438 46.117188 C 74.53125 46.464844 75.113281 46.449219 75.242188 46.101562 Z M 68.078125 44.394531 C 68.460938 44.179688 68.507812 43.367188 68.160156 43.085938 C 67.832031 42.804688 66.886719 42.921875 66.671875 43.285156 C 66.457031 43.632812 66.671875 44.046875 67.25 44.34375 C 67.730469 44.59375 67.679688 44.59375 68.078125 44.394531 Z M 60.21875 38.015625 C 60.417969 37.203125 59.605469 36.773438 59.257812 37.5 C 59.011719 38.046875 59.191406 38.429688 59.6875 38.429688 C 60.003906 38.429688 60.136719 38.3125 60.21875 38.015625 Z M 69.882812 34.039062 C 70.128906 33.738281 70.046875 33.292969 69.683594 33.058594 C 69.136719 32.730469 68.542969 33.390625 68.789062 34.054688 C 68.90625 34.351562 69.617188 34.351562 69.882812 34.039062 Z M 69.882812 34.039062 "
    />
    <path
      style="stroke: none; fill-rule: nonzero; fill: rgb(93.333333%, 96.078431%, 87.843137%); fill-opacity: 1"
      d="M 83.617188 50.292969 C 83.519531 50.160156 83.453125 49.878906 83.484375 49.664062 C 83.519531 49.351562 83.632812 49.285156 84.113281 49.285156 C 84.59375 49.285156 84.710938 49.351562 84.742188 49.664062 C 84.777344 49.863281 84.726562 50.027344 84.625 50.027344 C 84.527344 50.027344 84.445312 50.144531 84.445312 50.277344 C 84.445312 50.59375 83.882812 50.609375 83.617188 50.292969 Z M 14.496094 46.699219 C 13.652344 46.382812 13.683594 45.371094 14.546875 45.058594 C 15.488281 44.691406 16.761719 44.992188 16.761719 45.554688 C 16.761719 45.917969 16.53125 46.21875 16.25 46.21875 C 16.066406 46.21875 15.886719 46.332031 15.835938 46.464844 C 15.769531 46.632812 15.621094 46.683594 15.40625 46.617188 C 15.222656 46.566406 15.027344 46.582031 14.960938 46.683594 C 14.910156 46.765625 14.710938 46.78125 14.496094 46.699219 Z M 83.402344 40.648438 C 83.152344 40.382812 83.285156 39.769531 83.632812 39.671875 C 84.128906 39.507812 84.59375 39.988281 84.34375 40.382812 C 84.148438 40.683594 83.601562 40.847656 83.402344 40.648438 Z M 29.007812 38.261719 C 28.777344 38.179688 28.097656 38.128906 27.503906 38.113281 L 26.394531 38.097656 L 26.691406 37.5 C 27.222656 36.492188 26.957031 36.160156 25.121094 35.460938 L 23.714844 34.914062 L 23.714844 34.285156 C 23.714844 33.9375 23.613281 33.574219 23.464844 33.457031 C 23.332031 33.339844 23.21875 33.042969 23.21875 32.777344 C 23.21875 32.398438 23.367188 32.183594 23.960938 31.765625 C 24.375 31.46875 24.707031 31.1875 24.707031 31.105469 C 24.707031 31.039062 24.410156 30.789062 24.042969 30.558594 C 23.347656 30.109375 23.050781 29.695312 23.050781 29.164062 C 23.050781 28.984375 22.902344 28.585938 22.71875 28.289062 C 22.207031 27.425781 22.289062 26.628906 22.96875 25.902344 C 23.515625 25.335938 23.597656 25.304688 24.242188 25.402344 L 26.246094 25.667969 C 26.972656 25.753906 27.75 25.949219 28.015625 26.117188 C 28.726562 26.5625 29.488281 27.625 29.589844 28.304688 C 29.636719 28.636719 29.804688 29.148438 29.953125 29.449219 C 30.101562 29.746094 30.347656 30.640625 30.480469 31.417969 C 30.78125 33.011719 30.84375 33.078125 32.21875 33.109375 C 32.816406 33.125 32.847656 33.09375 32.730469 32.761719 C 32.648438 32.546875 32.601562 32.082031 32.617188 31.71875 L 32.648438 30.390625 C 32.664062 29.230469 32.796875 28.734375 33.230469 28.269531 C 33.574219 27.90625 33.808594 27.824219 34.402344 27.824219 C 35.394531 27.824219 36.007812 28.402344 36.355469 29.710938 L 36.886719 31.570312 C 37.050781 32.214844 37.234375 32.53125 37.449219 32.578125 C 37.746094 32.664062 37.761719 32.84375 37.746094 35.179688 L 37.746094 37.699219 L 37.101562 37.980469 C 36.242188 38.363281 36.222656 38.347656 35.992188 37.699219 C 35.859375 37.335938 35.628906 37.085938 35.332031 36.972656 C 31.640625 35.660156 31.972656 35.644531 30.582031 37.136719 C 29.554688 38.246094 29.371094 38.363281 29.007812 38.261719 Z M 37.085938 35.746094 C 37.582031 35.246094 37.085938 34.5 36.371094 34.683594 C 35.894531 34.800781 35.84375 35.199219 36.242188 35.644531 C 36.554688 35.992188 36.804688 36.027344 37.085938 35.746094 Z M 26.359375 28.734375 C 26.839844 28.15625 26.0625 27.492188 25.136719 27.722656 C 24.820312 27.808594 24.707031 27.9375 24.707031 28.222656 C 24.707031 28.851562 25.929688 29.25 26.359375 28.734375 Z M 9.265625 33.191406 C 9.085938 33.011719 9.132812 32.332031 9.332031 32.214844 C 9.414062 32.148438 9.679688 32.148438 9.914062 32.199219 C 10.242188 32.28125 10.324219 32.398438 10.277344 32.761719 C 10.242188 33.09375 10.128906 33.226562 9.8125 33.257812 C 9.582031 33.292969 9.332031 33.257812 9.265625 33.191406 Z M 18.269531 32.363281 C 18.089844 32.15625 17.96875 31.90625 17.921875 31.636719 C 17.921875 31.21875 18.449219 30.804688 18.980469 30.804688 C 19.460938 30.804688 20.46875 31.484375 20.636719 31.898438 C 20.800781 32.332031 20.140625 32.792969 19.34375 32.792969 C 18.75 32.792969 18.550781 32.710938 18.269531 32.363281 Z M 83.171875 30.722656 C 82.558594 30.457031 82.394531 30.078125 82.675781 29.515625 C 82.9375 28.949219 84.328125 28.453125 84.890625 28.703125 C 85.621094 29.03125 85.570312 29.910156 84.808594 30.441406 C 84.179688 30.890625 83.734375 30.957031 83.171875 30.722656 Z M 19.277344 27.957031 C 18.980469 27.65625 19.03125 27.359375 19.394531 27.160156 C 19.640625 27.042969 19.773438 27.0625 19.972656 27.261719 C 20.121094 27.390625 20.238281 27.574219 20.238281 27.640625 C 20.238281 27.824219 19.859375 28.15625 19.660156 28.15625 C 19.558594 28.15625 19.394531 28.070312 19.277344 27.957031 Z M 78.769531 26.214844 C 78.421875 25.867188 79.101562 24.839844 79.664062 24.839844 C 80.011719 24.839844 80.308594 25.171875 80.308594 25.554688 C 80.308594 25.96875 79.050781 26.515625 78.769531 26.214844 Z M 78.769531 26.214844 "
    />
  </g>
</svg>
