<svg xmlns="http://www.w3.org/2000/svg" id="root" viewBox="-3 1 6043 3500">
  <path fill="#0F0E0B"
    d="M70 3490c0-5-16-12-35-16-35-6-35-6-35-62v-55l50 6c62 7 286 82 306 101 31 32 16 36-136 36-89 0-150-4-150-10zm5940-95c0-16 6-25 15-25s15 9 15 25-6 25-15 25-15-9-15-25zm-5580-75c0-17-3-19-19-10-11 5-36 10-55 10-34 0-36-2-36-34 0-19 4-37 9-40s6-26 3-51c-5-45-4-45 26-45 28 0 30-2 34-45 2-28 0-41-6-35s-26 10-47 10h-36l-6 81c-3 44-8 83-10 86-3 3-40 2-81-2-55-5-76-11-76-21 0-8-9-14-20-14-17 0-20-7-20-50 0-47 2-52 35-71 29-17 33-24 25-39-6-10-10-32-10-49 0-29 3-31 34-31 19 0 38 5 41 10 3 6 21 10 39 10 17 0 37 5 44 12 9 9 12 1 12-39v-51l44-11c33-8 48-18 58-39 11-23 20-27 61-30l47-3v60c0 56 10 76 25 51 3-5 22-10 41-10 32 0 34 2 34 34 0 45-41 76-99 76-30 0-41 4-41 15 0 10 11 15 35 15 34 0 35 1 35 39 0 45 12 58 30 36 15-18 101-20 118-3 7 7 12 29 12 50 0 37-1 38-36 38-22 0-41 6-49 16-6 9-32 18-57 21-40 5-46 9-57 39s-17 34-47 34c-28 0-34-4-34-20zm5160-130c-41-4-155-8-252-9l-178-1v-70l123-2h342c289 3 369-11 128-23l-173-8v-32c0-21 6-35 16-39 21-8 271-8 367 0l77 7v155l-52 12c-65 15-296 21-398 10zm-2770-196c-62-27-70-40-70-118 0-82-5-93-46-105-42-12-70 2-84 43-11 35-13 36-60 36-83 0-108-9-119-43-20-57-14-83 24-107 20-12 47-38 60-58 30-44 25-52-58-94l-60-30 7-73c6-71 6-74-20-94-15-12-40-21-55-21h-29v-182c0-101 5-210 10-243 6-33 21-139 35-235 41-284 68-382 153-550 41-80 84-156 96-170s49-61 81-105c33-44 87-109 121-145 33-36 75-86 92-112 50-74 241-262 360-356 45-35 61-42 98-42 38 0 45-4 59-31 13-23 37-40 102-70 107-49 174-53 222-14 16 14 33 36 37 48 3 12 16 36 29 52 29 39 72 123 106 210 16 40 28 60 28 48 1-20 6-23 40-23 33 0 59 13 59 30l12 35c7 17 22 80 35 141l35 155c11 40 7 195-6 242-5 14 1 17 35 17 38 0 41 2 41 29 0 33-35 123-63 164-15 22-17 31-8 40 12 12 17 14 51 16 16 1 20 8 20 34 0 46-43 84-160 141-52 25-116 60-142 76-42 26-48 35-48 63 0 24-8 41-31 63a1578 1578 0 0 0-330 467l-30 67 21 86c11 47 20 99 20 115s4 29 10 29c11 0 30 64 30 101 0 16-15 42-41 70-22 24-55 65-72 92-17 26-46 56-65 67l-35 21 22 23c31 33 29 89-4 104-46 21-76 15-109-24l-32-36-34 21c-39 23-104 28-143 10-34-15-84 8-79 36l9 63 5 42h-48c-27-1-65-8-84-16zm170-264c0-5-12-10-27-9-25 0-26 1-8 9 27 12 35 12 35 0zm-283-420-51-69c-16-22-32-39-34-36-2 2 10 35 28 73 28 61 34 68 56 64l24-4-23-28zm410-354c1-1-18-6-42-12-40-9-45-8-45 7 0 14 7 16 43 12l44-7zm-288-240c-11-32-23-56-25-53-2 2 6 32 18 66s24 58 26 53c1-5-7-35-19-66zm765-174c6-11-21-52-35-52-10 0-13 43-2 53 9 10 31 9 37-1zm235-156c13-15 9-20-33-36l-27-10 18 30c20 34 26 36 42 16zm96-276c-8-13-65-13-65 0 0 5 12 16 28 24 23 12 28 12 35 0 4-8 5-19 2-24zm10-230c11-18-23-22-52-6l-28 15 37 1c20 0 40-5 43-10zm-791-239c3-5 0-11-8-14s-18 5-25 19c-10 23-9 24 9 14 10-5 21-14 24-19zm715 13c2-2-2-10-9-19-14-17-25-13-40 16-10 18-9 19 17 13 15-4 30-8 32-10zm-167-216c-9-9-14-5-22 16-15 40-13 43 12 18 17-17 19-25 10-34zm-240-76c-20-5-29 13-24 49l5 31 17-39c14-33 15-38 2-41zM1357 2883c-4-3-7-30-7-58 0-66 19-85 82-85 72 0 78 5 78 65 0 68-18 85-92 85-30 0-58-3-61-7zm2683-170c-36-13-50-36-50-83 0-25 5-51 12-58s39-12 73-12 66 5 73 12 12 38 12 70c0 46-4 59-19 68-21 11-75 12-101 3zm-1894-99c-17-16-21-80-7-102 11-19 83-27 110-13 29 16 31 105 2 121-29 15-87 12-105-6zm-1011-24c-27-5-71-9-97-9-36-1-48-5-48-16 0-8 8-16 18-17 9-1-26-5-78-8-127-10-420-11-396-1 42 16-8 19-268 13l-269-5 6-70c4-41 12-74 19-78 21-14 54-10 68 6 19 23 28 18 32-17 3-30 6-33 38-33s37 4 57 47c16 34 32 51 55 61 22 9 125 18 301 26 374 17 647 43 647 63 0 5 5 6 10 3 6-4 7-11 4-17-4-7-2-8 4-4 7 4 12 20 12 37 0 26-3 29-32 28l-83-9zm3469-142c-5-8-2-9 9-5 10 3 17 3 17-1 0-5 32-16 70-26 39-10 69-21 66-23-2-3-37 5-78 16-40 11-104 22-143 26-66 5-61 3 100-44l565-169 394-119 12-47c18-71 50-96 82-64 10 10 15 10 22-2 5-8 10-22 10-31 0-31 40-69 71-69 19 0 29 5 30 15l3 28c1 8 14 11 37 9 26-2 38 1 42 12 6 15 19 15 94 0 12-2 24-13 26-27 3-12 4 16 3 62l-1 83-195 49c-107 27-370 101-585 164-633 185-637 186-651 163zm221-68c13-5 14-9 5-9-8 0-24 4-35 9-13 5-14 9-5 9 8 0 24-4 35-9zm425-124c41-13 71-24 65-25a736 736 0 0 0-150 48c6 0 44-10 85-23zm280-82c55-20 22-16-45 6-33 11-44 17-25 13 19-3 50-11 70-19zm-1403-81c-12-11-8-108 5-121 7-7 33-12 58-12 58 0 70 12 70 70 0 25-5 51-12 58-13 13-110 17-121 5zM5975 30c-10-11-15-20-12-20 4 0 16 9 27 20s16 20 12 20c-5 0-17-9-27-20z" />
  <path fill="#B2B985"
    d="M4286 3364c-19-19-22-124-4-142 7-7 37-12 68-12s61 5 68 12c20 20 15 122-6 141-24 22-105 23-126 1zm-2583-271c-17-6-17-115-1-131 7-7 33-12 59-12 55 0 79 23 79 75s-24 75-78 74c-26 0-53-3-59-6zm169-55 3-53 43-3c51-4 72 10 72 48 0 53-8 60-67 60h-54l3-52zm1595-136c-10-10-17-35-17-55 0-35-1-36-42-39l-43-3-3-57-3-58h121v70h48c71 0 92 19 92 84 0 28-5 57-12 64-20 20-122 15-141-6zm1145 2c-18-12-22-25-22-64 0-65 16-80 85-80 46 0 56 4 74 26 25 32 27 81 5 112-12 18-25 22-67 22-31 0-62-6-75-16zm-2002-13c-18-34-12-99 9-111 27-14 84-13 99 2 13 13 16 68 6 106-6 19-13 22-55 22-38 0-51-4-59-19zm1857-68c-12-11-8-88 5-101 15-15 63-16 89-2 19 11 24 44 13 88-5 19-13 22-53 22-26 0-51-3-54-7zm-3160-250c-13-12-7-100 7-112 8-7 37-11 68-9l53 3 3 48c2 27-2 55-9 63-12 14-109 20-122 7zm2240-230c-11-10-8-92 3-114 8-14 21-19 53-19 54 0 67 13 67 66 0 68-5 74-64 74-29 0-56-3-59-7zm-1390-161c-23-25-23-107-1-116 27-10 99-7 112 6 7 7 12 33 12 58s-5 51-12 58c-19 19-92 15-111-6zm-550-279c-4-3-7-24-7-45 0-38 0-38 40-38h40v45c0 44 0 45-33 45-19 0-37-3-40-7zm-120-135c-12-10-16-26-14-68l2-55 57-3c81-4 98 7 98 66 0 27-5 53-12 60-16 16-110 15-131 0zM4090 660c0-33 4-36 24-18 16 15 9 48-10 48-9 0-14-11-14-30z" />
  <g fill="#CEBE8C">
    <path
      d="M0 3465c0-34 1-34 33-28 17 3 68 19 112 34l80 27H113l-113 1v-34zm250-5c-58-21-138-47-177-56l-73-18v-871l192 2c106 2 234 7 283 12 50 6 214 13 365 17 151 3 299 10 328 14 36 4 55 3 62-5 5-7 7-15 3-18-3-4 1-7 10-7 11 0 17 8 17 21 0 71 103 114 179 74 16-8 58-17 94-21l66-7 15 37 15 36h84c81 0 84 1 105 30 13 17 22 44 22 64 0 31-5 38-42 60a565 565 0 0 0-209 259c-6 15-17 27-25 27s-14 4-14 9-24 18-52 28l-53 18 68 3 67 3v44c0 43-2 47-75 106-124 102-88 89 45-16 77-60 87-65 133-65h49l-4 46-3 46 31-38 32-37 68 8c98 11 109 10 141-13 15-10 53-25 83-32 87-20 120-36 120-59s50-63 175-143c44-28 84-57 88-64 13-23 79-17 105 10 34 37 28 116-9 116-10 0-19 7-19 15 0 9-42 43-94 76l-95 60 6 37c8 51 16 58 71 65 91 11 112 30 112 105v32h300c165 0 300-3 300-6s-16-43-35-90c-46-110-47-165-5-222 35-49 57-62 105-62 41 0 49 14 67 115 11 61 20 73 72 101 39 21 46 8 39-77-5-59-3-71 17-99 59-83 177-116 237-67 15 13 53 33 83 46l77 33c30 15 53 77 53 143 0 60 17 81 74 87 26 3 30-1 44-42 29-87 30-89 66-95 37-7 173 12 193 27 6 5 22 43 35 84l23 75 75-3 75-3 12-55c6-30 11-77 11-105 1-50 0-50-69-110-54-46-77-59-97-57l-95 5c-62 2-70 0-87-23-10-14-21-39-25-56-9-53-25-59-171-64-152-6-174-16-174-79 0-20-10-100-22-178-20-131-20-178 1-144 7 11 13 10 35-4 22-15 29-15 42-4 9 7 20 22 25 34 8 17 9 16 4-5-16-69-16-70 4-70 14 0 20 9 24 33l21 107c9 41 16 94 16 118v42h112c136 0 186 18 215 79l18 38 62-5c86-7 106 1 178 68 36 33 67 60 70 60s32-13 65-30c33-16 75-30 94-30 25 0 35-5 39-19 3-13 23-25 62-37 41-13 61-25 68-43 11-23 15-23 87-19 41 3 91 2 110-2 22-5-10-8-87-9-68 0-123-4-123-8 0-5-14-17-30-28-24-16-30-27-30-57 0-40-3-38 103-64 15-3 26-9 23-11-2-3-41 5-85 16-44 12-98 21-119 21-53 0-72-34-72-129 0-63-3-73-25-93-27-24-35-64-11-55 8 3 16 2 18-2s48-20 103-35c55-16 114-34 130-41 45-20 269-85 293-85 11 0 69-16 128-35 60-20 137-42 173-51a5652 5652 0 0 1 567-154c12 0 14 81 14 500v500l-198-7c-130-4-205-2-217 4-13 8 32 13 171 18l216 8c21 2 28 7 28 23 0 18-11 23-87 37-72 14-149 17-421 16-184 0-336 2-340 5-3 3 62 6 144 6s223 5 314 12a1069 1069 0 0 0 373-28c16-6 17 9 17 179l-1 186H355l-105-39zm1808-7c-4-22-22-20-26 1-2 10 3 16 13 16s15-7 13-17zM505 3215c5-20 6-20 24 2 22 27 53 21 76-13 16-25 65-34 65-12 0 6 3 8 6 5 10-10-16-37-34-37-9 0-31 14-49 32l-32 31-20-24c-12-14-20-39-21-61 0-44-14-49-32-11-19 38-32 38-51 1-10-18-15-24-11-13 16 48 11 60-31 66-34 5-37 7-17 14 26 9 29 22 5 28-13 3-10 5 7 6 25 2 25 2-10 31-34 30-35 38-2 21 9-4 34-12 56-15 38-7 38-7 33 21-5 22-2 19 13-12l25-60zm-245-12 6-86c3-37 3-75 0-84-6-14-9-13-30 6-12 11-27 18-31 14-5-5-4 0 3 9 11 14 10 19-12 32l-53 33c-17 10-23 18-15 21 9 3 10 8 3 16-8 9-1 11 24 8 39-5 42-1 19 22-8 9-11 16-5 16s18-11 27-25c24-36 52-33 46 5-2 17 0 30 6 30s11-8 12-17zm196-207c6-36 8-38 20-21 7 10 11 22 8 26-3 5 0 9 7 9s9-8 4-22c-4-13-8-47-8-76-1-42-4-52-16-50-9 2-22 16-29 31-10 20-25 30-58 38-31 8-42 15-35 22s7 15 0 24c-9 10-8 13 5 13 22 0 20 13-4 35-27 24-20 28 16 11 16-8 39-17 52-21 21-6 22-4 17 22-5 21-4 24 4 13 5-8 13-32 17-54zm109-12c26-22 27-23 4-9-15 9-31 15-35 14-18-3-25 1-19 11 9 15 17 12 50-16zm897-141c35-32 19-73-30-73-35 0-68 60-45 83 12 13 56 7 75-10zm-513-72c24-18 24-19 4-25-22-7-73 8-73 22 0 27 36 29 69 3z" />
    <path
      d="M4290 3333c1-36 1-37 13-15 7 12 16 19 20 16 4-4 7-2 7 4 0 7 7 12 15 12s15 5 15 10c0 6-16 10-35 10-34 0-35-1-35-37z" />
  </g>
  <g fill="#DEE0B0">
    <path
      d="M5970 3490c43-30 50-31 50-10 0 16-6 20-32 20s-30-3-18-10zm-3978-20c-11-18-8-24 23-55l35-35 25 22c32 28 32 48 0 48-16 0-25-6-25-15 0-8-7-15-15-15-10 0-15 11-15 35 0 40-9 44-28 15zm-332-39c0-11 4-31 10-45 8-22 16-26 46-26h37l-20 23c-11 12-26 32-32 45-14 27-41 29-41 3zm2770-20 6-65c6-41 10-46 31-46 27 0 27 1 7 103-7 32-44 39-44 8zm-1930-4c0-8-11-19-25-25-36-16-31-32 10-32 33 0 35 2 35 35 0 19-4 35-10 35-5 0-10-6-10-13zm1430-12c0-21 5-25 30-25 31 0 39 17 18 38-22 22-48 14-48-13zm-56 4c-33-9-61-35-51-45 3-4 27-3 52 0 39 6 45 10 45 32 0 26-1 26-46 13zm366-4c0-8-4-15-8-15s-8-9-8-20c0-13 7-20 18-20 14 0 18 8 18 35 0 19-4 35-10 35-5 0-10-7-10-15zm-720-22c0-5 6-15 13-24 10-14 16-15 30-4 26 19 20 35-13 35-16 0-30-3-30-7zm-1770-68c0-34 1-35 40-35 22 0 40 2 40 4 0 9-59 66-69 66-6 0-11-16-11-35zm1630-20c0-28 4-35 20-35s20 7 20 35-4 35-20 35-20-7-20-35zm815 5c-3-5-17-10-31-10-17 0-24-5-24-20 0-16 7-20 35-20 32 0 35 2 35 30 0 31-4 37-15 20zm-2185-33c0-31 4-35 31-41 17-3 47-6 66-6 49 0 41 31-12 45-22 5-50 16-62 23-22 12-23 11-23-21zm2010-7c0-28 2-30 40-30 36 0 40 2 40 26 0 19-4 25-15 20-8-3-26-1-40 4-23 9-25 7-25-20zm-960-35c0-33 2-35 34-35h33l-16 35c-22 47-51 47-51 0zm-1893 11c-17-13-16-14 3-19 15-4 20 0 20 14 0 22 0 22-23 5zm1023-62c0-27 5-37 20-41 11-3 20-12 20-19 0-8 9-14 20-14s20-7 20-15c0-11 12-15 45-15 49 0 58 13 23 31-41 21-108 80-108 95 0 8-9 14-20 14-16 0-20-7-20-36zm-860 21c0-15 41-42 64-42 29 0 37 31 10 41-19 7-74 8-74 1zm3658-3c-20-2-28-9-28-23 0-25 31-25 54 0 20 22 13 28-26 23zm-1245-20c-44-21-43-42 2-42 32 0 35 2 35 30 0 17-1 29-2 29l-35-17zm1140-27-28-24 38-1c33 0 37 3 37 25 0 31-11 32-47 0zm-1453-25c0-29 4-40 15-40 8 0 15-4 15-10 0-5 16-10 35-10s35-4 35-10c0-11 49-14 74-4 10 4 16 18 16 35 0 29 0 29-25 13-32-21-61-13-119 31l-46 35v-40zm-1940 12c0-10 37-42 49-42 5 0 11-7 15-15 10-27 26-16 26 19 0 22-6 36-16 40-22 9-74 7-74-2zm2870-23v-30l30 21c44 31 45 40 6 40-33 0-36-2-36-31zm-1857-24c7-14 19-25 28-25 32 0 31-32-1-62l-31-28h71v64c0 68-6 76-55 76-21 0-22-2-12-25zm2357 5c0-15-7-20-25-20-14 0-25 5-25 10 0 17-17 11-47-15l-28-24 33-1c17 0 32-4 32-9s9-7 20-4 20 9 20 13 13 13 29 20c16 6 37 20 47 31 17 18 16 19-19 19-30 0-37-4-37-20zm-770-45c0-14-4-25-10-25-5 0-10-13-10-30 0-25-4-30-25-30-29 0-35-26-7-32 27-7 70 29 78 64 3 18 13 43 21 55 15 22 14 23-16 23-26 0-31-4-31-25zm500-5c0-23 4-30 20-30 11 0 20-4 20-10 0-5 20-10 45-10 39 0 45 3 45 21 0 11-4 18-10 14-5-3-32 6-59 20-28 14-53 25-56 25s-5-13-5-30zm460 7c-9-7-14-20-12-29 5-26 82-26 82 0 0 37-40 54-70 29zm-3266-48c-3-6-17-9-30-6-20 3-24 0-24-19 0-21 5-24 35-24 32 0 35 2 35 30 0 32-4 37-16 19zm2976-29v-40h45c58 0 60 21 4 43-23 9-38 21-34 27 3 5 1 10-4 10-6 0-11-18-11-40zm-377-2c-42-26-42-38 2-38 32 0 35 2 35 30 0 17-1 30-2 29-2 0-18-10-35-21zm-173-18c0-29 2-30 46-30 36 0 45 3 42 16-2 12-62 42-85 44-2 0-3-13-3-30zm-430-26c0-18 4-23 13-17 6 4 17 8 22 8 18 2 45 17 45 26 0 5-18 9-40 9-36 0-40-2-40-26zm-320-39c0-19 2-35 4-35 3 0 18 14 35 31s31 32 31 35c0 2-16 4-35 4-33 0-35-2-35-35zm1570 1c0-24 3-26 45-26 38 0 45 3 45 20 0 11-6 20-14 20l-45 6c-28 6-31 4-31-20zm-2362 7c15-3 22-10 18-19-3-8-1-14 4-14 6 0 10-7 10-15s7-15 15-15c10 0 15 11 15 35 0 35 0 35-42 34-25-1-33-4-20-6zm2492-17c0-22 5-26 28-27 15 0 36-4 47-8 20-8 55 6 55 21 0 5-9 8-19 8-11 0-21 4-23 9-1 5-22 12-45 16-41 6-43 6-43-19zm140-16c0-5 12-10 26-10s23 4 19 10c-3 6-15 10-26 10-10 0-19-4-19-10zm-4417-27c-7-3-13-13-13-24 0-13 7-19 24-19 14 0 28-4 31-10 3-5 24-10 45-10 30 0 38 3 34 14-12 30-89 61-121 49zm2975 1c-3-3-4-14-1-25 8-28 33-24 33 6 0 23-18 34-32 19zm-3019-32c-14-16-14-22-3-37 18-24 26-15 22 25-3 30-4 30-19 12zm3679 11c15-3 22-10 18-19-3-8 0-14 7-14s3-7-7-15c-19-14-18-15 12-15s32 2 32 35c0 35 0 35-42 34-25-1-33-4-20-6zm-806-85c-16-112-16-118 8-118 11 0 20 3 20 8 0 10 19 131 26 165 5 23 2 27-19 27-23 0-25-5-35-82zm-749 52c-92-19-166-72-295-213-99-109-143-175-150-226-5-36 18-37 31-1 17 50 95 161 166 238 55 59 77 75 134 97 61 24 79 27 153 23 73-4 93-10 167-47 51-26 109-66 150-104 36-34 84-77 105-95l39-34-22-93c-27-122-27-144 8-223 72-164 157-285 304-438l59-62-126 63c-132 67-160 75-214 64-52-11-213-153-243-216-27-56-23-141 8-176 40-44 39-50-6-42-54 9-71-5-71-59 0-32 8-52 40-93l39-53-43 6c-38 6-46 4-56-15-6-12-8-32-4-44 20-65 82-213 130-309 40-80 50-108 39-108-21 0-121 53-172 91-144 109-55-146 118-336 200-220 94-176-147 61-77 77-156 162-174 189-18 28-61 79-94 115-34 36-88 101-121 145-32 44-69 91-81 105s-55 90-96 170c-85 168-112 266-153 550-14 96-29 202-35 235-5 33-10 129-10 213 0 128 2 152 15 152 31 0 14 28-21 35-43 8-46 5-47-33-2-26-4-29-23-22-22 9-22 26-15-266 1-32 5-43 20-47 14-3 20-16 24-53 2-27 9-76 15-109s13-103 17-155c7-100 9-114 48-250 26-90 99-255 109-245 3 3 8-1 12-10 4-10 2-14-5-9-7 4-10 1-7-7s11-13 17-11c10 2 15-14 14-45-1-7 3-11 7-8s13-7 19-23c17-45 57-110 90-149 17-20 31-40 31-45s5-6 10-3c6 3 10 1 10-5s18-30 40-54 40-48 40-54 7-15 15-19c8-5 31-32 53-60 53-71 243-268 313-324 32-25 55-49 52-53-3-3 0-6 8-6s27-14 42-32c16-18 26-26 22-18s2 6 12-5 49-35 87-53 85-47 106-63a323 323 0 0 1 234-60c-2 2 14 13 36 25s50 37 63 56c27 40 107 225 107 246 0 18 14 18 30-1 6-8 17-13 23-12 13 2 78 79 72 85-2 3 6 13 18 23s17 18 10 19c-6 0-9 9-6 21 4 16 8 17 14 7 7-10 9-8 10 7v29c-1 4 3 14 9 21s13 26 15 41c7 41 22 115 29 144 12 44 18 170 10 188-4 9-8 29-8 43-1 24 2 26 21 18 39-15 57 0 55 41-2 26-20 86-21 70-1-13-3-13-10-1-5 8-7 20-4 28 3 7 0 13-7 13-6 0-10 6-7 13 2 6-4 26-14 42-23 38-21 71 3 72 12 1 16-3 11-10-3-7 2-5 13 4 10 9 24 15 30 12 16-5 10 52-6 73-8 8-33 27-57 41-24 13-43 29-43 35s-7 7-16 4c-8-3-12-2-9 4s0 11-7 11l-28 3c-8 0-14 6-13 13 2 7-4 10-12 7-8-4-15-1-15 5s-7 11-15 11-15 7-15 15c0 9-7 15-17 13s-22 7-29 20c-6 13-15 23-20 22s-13 7-19 17c-5 10-19 26-30 36-11 11-19 24-17 29 1 5-2 7-7 4s-20 9-34 28c-14 18-44 51-67 72-22 21-40 44-40 50 0 7-4 14-8 16-21 8-93 120-117 181-15 37-31 70-36 73s-9 10-9 16 7 5 16-3c15-12 16-10 10 26-4 22-10 71-13 108-5 69-2 82 39 176 15 33 17 46 8 51-7 4-10 12-6 18 3 6 0 13-6 15-10 4-10 6-1 6 7 1 10 8 6 19-3 9-3 14 2 10 7-7 35 14 35 26 0 3-20 6-45 6-33 0-45 4-45 15 0 8-7 15-15 15s-15 7-15 15c0 9-9 15-23 15-16 0-34 14-57 45-18 25-36 43-38 40-7-6 41-74 88-125 36-39 38-43 28-78l-11-37-10 30c-13 39-77 134-118 174-39 40-134 88-219 112-69 20-100 22-167 9zm197-69c65-25 182-100 188-121 3-8-8-3-24 12s-60 41-99 58l-105 48c-19 9-51 19-70 23-32 8-31 8 10 5 25-2 70-13 100-25zm467-1080c48-21 147-72 218-114 72-41 160-88 195-105 36-16 78-43 94-60l29-31-29-6c-67-14-79-44-42-102 26-42 68-136 63-141-2-2-17 4-35 13-17 9-38 14-46 11-17-7-18-39-3-69 22-40 30-177 14-237-8-30-23-100-34-156-19-102-47-175-67-181-7-2-14 17-18 49-9 73-22 91-36 53-70-190-114-285-155-340-13-16-26-40-29-52-9-30-62-73-89-73-12 0-59 16-105 37l-83 36-63 96c-35 53-95 135-133 183-37 48-78 105-90 127l-23 40 45-20c51-23 151-42 177-34 9 3 19 13 22 21 7 18-31 111-75 186-39 65-114 215-124 247-7 23-6 23 29 17 30-6 40-3 61 18 34 34 31 59-12 108-74 86-72 79-26 77 23-2 48 3 57 10 24 20 20 77-9 119-48 71-25 140 84 251 70 72 72 73 111 67 22-3 79-24 127-45z" />
    <path
      d="M3543 1580c-20-8-23-17-23-59 0-59 14-101 34-101 17 0 74 75 83 108 10 41-46 72-94 52zm204-191c-49-66-46-85 11-82 56 2 116 32 120 59 4 30-34 74-66 74-21 0-36-12-65-51zm-375 29c-15-15-15-40 0-73 13-28 43-33 52-9 16 42 0 94-29 94-6 0-16-5-23-12zm203-71c-34-49-9-80 44-52 33 16 39 36 19 52-29 22-48 22-63 0zm-175-87c0-11 7-20 15-20s15 9 15 20-7 20-15 20-15-9-15-20zm110-40c0-16 5-21 23-18 12 2 22 10 22 18s-10 16-22 18c-18 3-23-2-23-18zm157-16c-40-22-32-48 16-52 45-4 60 19 31 48-17 17-21 17-47 4zm199-37c-50-28-65-51-50-74 9-14 25-18 75-18h64l3 41c2 28-2 47-13 58-21 21-32 20-79-7zm-304-104c2-10 13-19 26-21 17-3 22 2 22 17 0 16-6 21-26 21-19 0-25-5-22-17zm134-25c-18-26-8-43 31-53 17-4 31-1 41 9 14 14 13 18-8 41-29 31-44 32-64 3zm-146-98c0-24 26-38 42-22 8 8 8 15-2 27-18 21-40 19-40-5zm313-17c-39-3-56-9-63-22-11-22-5-29 57-60 73-36 113-24 113 34 0 34-16 56-39 53l-68-5zm-540-19c-6-16 15-37 29-28 4 3 8 14 8 25 0 23-28 26-37 3zm133-21c-9-22 20-51 35-36 14 14 2 53-16 53-7 0-16-8-19-17zm209-24c-8-12 32-59 50-59 7 0 20 9 30 20 15 16 15 22 5 35-14 17-76 20-85 4zm-251-125c-21-31-6-74 25-74 27 0 31 10 24 53-7 45-28 54-49 21zm153 19c-3-5-4-24-3-43 2-39 21-49 55-30 27 14 26 31-2 58-24 23-42 28-50 15zm170-40c-14-13-6-32 34-82 24-30 49-51 60-51 31 0 71 46 67 76-3 23-12 29-63 45-64 20-88 23-98 12zm-113-188c-7-18 13-104 28-122 15-19 52-16 71 5 28 30 21 66-18 101-39 33-72 40-81 16zm-217-42c-3-5-9-36-12-69-6-49-4-63 10-77 30-30 105-15 105 21 0 33-56 127-77 130-12 2-23-1-26-5zm1403 2257c0-22-4-40-10-40-5 0-10-7-10-15s7-15 15-15 15-4 15-10c0-5 13-8 30-7 31 2 43 30 18 40-7 3-3 6 10 6 35 1 24 33-16 43-33 9-42 22-19 31 6 3 2 6-10 6-20 1-23-4-23-39zm-1472 0c-3-19 0-31 10-35 23-9 72-6 72 5 0 6-7 10-15 10-9 0-15 9-15 25 0 20-5 25-24 25s-25-6-28-30zm522-5c0-8-4-15-9-15s-7-9-4-20c9-35 33-24 33 15 0 19-4 35-10 35-5 0-10-7-10-15zm-2930-9c0-19 33-26 53-11 25 18 21 25-18 25-23 0-35-5-35-14zm1593-43c-15-6-18-73-3-73 6 0 10-13 10-30 0-37 23-40 46-5 15 23 15 27-6 70-22 45-25 48-47 38zm2437-28c0-8 6-15 14-15s16-5 18-11c5-15 58 0 58 16s-22 25-61 25c-19 0-29-5-29-15zm162-14c3-23 8-26 46-29 35-3 42 0 42 15 0 14-12 21-45 29-46 11-46 10-43-15zm-2330-117c-61-30-98-72-147-166-43-81-70-157-90-258l-40-185c-37-174-38-185-21-185 10 0 19 23 31 78 49 235 61 268 143 381a657 657 0 0 0 202 201l85 44c73 39 152 15 337-101 98-62 133-66 101-12a529 529 0 0 1-451 229c-85 0-105-3-150-26zm263-24c22-5 10-7-40-7-58-1-83-7-148-37-43-20-95-49-115-64l-36-27 22 32c38 53 79 81 139 93l68 15c17 6 79 3 110-5zm150-61c6-6-9-2-33 9-55 25-69 39-17 18 22-10 45-22 50-27zm-802 36c-7-8-13-30-13-50 0-32 2-35 30-35 26 0 30 4 30 28 0 64-20 88-47 57z" />
    <path
      d="M2969 2277c-120-41-162-80-238-222a792 792 0 0 1-98-307c-8-109 13-103 42 13a951 951 0 0 0 168 368c12 13 56 40 97 59 107 50 168 50 271 0 107-52 127-59 135-47 10 16-32 52-111 94l-95 51c-36 20-96 17-171-9z" />
    <path
      d="M2970 1988c-82-23-127-85-189-261-17-49-31-101-31-115 0-15-9-61-20-102-33-126-22-415 21-527 21-56 27-6 12 92-24 143-23 339 1 385 21 41 67 153 106 259 29 80 48 104 115 149 45 30 183 68 212 59 36-11 243-97 285-118 9-5 19-5 22-1 15 25-163 151-226 159-24 3-51 10-62 15-26 14-204 18-246 6zm-11-56c-24-16-57-47-73-70-39-57-43-53-10 9 18 33 41 57 64 69 55 30 69 23 19-8z" />
    <path
      d="M3113 1719c-65-32-131-96-164-158-16-31-43-74-59-96-28-39-34-60-60-211-11-64-10-82 10-179 22-112 53-219 69-244 5-8 16-11 24-8 12 4 10 17-9 77-27 83-30 145-10 216 8 27 20 83 26 124 7 41 23 96 36 122 14 27 35 76 47 110 13 35 35 82 50 105 31 48 107 109 152 121 16 5 31 16 33 25 5 26-90 23-145-4zm-91-166c-107-207-125-253-133-346-10-102-19-126-19-49 0 82 35 241 69 312 28 58 90 140 106 140 4 0-7-26-23-57zm-396-40c-9-57-7-163 3-163 14 0 21 39 21 123 0 81-13 103-24 40zM6015 30c-4-6-2-17 4-23 15-15 25-2 13 19-7 12-11 13-17 4z" />
  </g>
  <g fill="#EEF5E0">
    <path
      d="M0 3475v-26l30 23c17 12 30 23 30 25s-13 3-30 3c-25 0-30-4-30-25zm5990 13c0-7 12-21 25-31l25-18v31c0 25-4 30-25 30-14 0-25-6-25-12zm-4700-7c0-5 12-19 27-31 15-11 37-36 49-54 13-18 59-63 103-100 45-37 81-74 81-82 0-19-58-17-237 11-103 16-124 17-138 5-22-18-11-23 90-45 44-10 103-28 130-40 28-12 73-30 102-39 39-13 53-23 57-42 4-14 18-43 31-65 14-21 25-43 25-48 0-19 111-130 155-156 25-14 45-29 45-33-1-4-11-20-24-36-23-27-26-28-102-25l-79 4-18-37c-17-34-20-36-55-31-20 3-50 13-66 21-17 8-57 15-90 15-95 1-150-37-146-101 6-88 1-104-45-149l-46-43-63 6c-120 12-169-14-132-71 27-41 89-65 204-79 59-8 135-21 169-31l62-17 71 27c57 22 70 31 65 44-36 86-4 121 114 121 31 1 74 7 96 15 78 29 99 19 180-79 24-30 44-45 54-42l74 21c43 13 57 21 57 35 0 62 50 95 117 79 36-10 61-36 85-91 6-14 19-18 56-18 68 0 102 27 102 81 0 28-4 39-15 39-8 0-15 5-15 10 0 6 5 10 10 10 6 0 10 11 10 25 0 20 10 30 53 51 68 35 92 55 75 66-10 6-10 8 0 8 6 0 12 11 12 25 0 19-5 25-22 25-18 0-20 2-9 9 12 8 12 13-2 34-9 14-32 34-51 46-32 20-34 24-25 50 7 21 19 30 41 35 56 11 64 8 80-33 18-45 51-57 118-46 61 10 70 25 70 110 0 68 2 75 27 94 14 12 37 24 50 27 12 4 23 10 23 15 0 11 11 11 29 0 12-8 12-13-2-35-36-55-16-94 60-117 38-11 47-10 79 7l35 19 50-27c27-16 58-28 68-28 11 0 35 18 53 39 33 38 46 41 77 15 2-2-9-17-23-35-35-41-30-67 16-99 21-14 51-45 67-70 17-25 51-67 76-93 43-47 47-49 88-43l102 13c59 8 60 9 73 47 7 22 10 46 8 53-3 7-1 13 5 13 7 0 10 14 7 35-2 19 0 35 5 35s7 14 5 30c-3 17-1 30 4 30 4 0 8 24 8 53 0 83 13 90 174 97 135 5 173 16 162 47-3 7-1 13 4 13 6 0 10 9 10 20 0 24 27 55 55 64 11 3 49-2 85-13l65-18 82 71 81 71 1 78c1 42-3 77-7 77-5 0-7 14-4 30 2 17 0 30-5 30s-9 12-8 28v27l-105 3-105 3-23-75c-13-41-30-80-38-87-7-6-35-13-60-15-26-2-53-9-60-15-11-9-20-6-39 15-14 15-25 34-25 43 0 30-24 83-37 83-7 0-13 5-13 10 0 13-12 13-47-2-15-6-32-12-38-12-5-1-20-7-32-14-20-11-23-21-23-68 0-86-38-153-90-161-30-4-96-38-128-65-26-22-37-26-52-18-10 5-28 10-39 10-12 0-21 5-21 10 0 6-7 10-15 10s-15 5-15 11-11 25-25 43c-22 29-24 39-19 102 4 59 2 75-14 94l-18 22-50-26c-74-39-80-46-92-111-13-75-28-115-43-115-6 0-32 22-58 48-54 56-54 57 2 198 21 50 37 99 37 108 0 14-32 16-335 16h-335v-29c0-56-15-77-64-90-25-6-56-11-69-11-35 0-45-17-53-91l-6-66 88-56c90-57 154-109 154-125 0-5-12-19-26-33-23-21-27-22-37-8a590 590 0 0 1-174 109c-14 0-23 6-23 15 0 8-9 15-20 15s-20 6-20 14c0 7-8 16-19 19-14 3-17 11-14 31 5 23 0 28-33 42-22 9-56 17-76 17-21 0-38 3-38 7 0 5-9 6-20 3-13-4-20 0-20 10 0 19-59 47-97 47-15 0-47-5-71-10-46-11-96-4-86 12 8 12-55 78-74 78-7 0-10 5-7 10 3 6 1 10-5 10s-8 4-5 10c3 5-1 23-10 40-12 23-22 30-45 30-17 0-30-3-30-6s13-24 30-47c16-23 34-63 39-88 6-25 13-53 17-62 13-36-35-15-119 51-121 95-287 178-287 143zm3092-148c20-18 24-63 6-81-7-7-24-12-38-12-33 0-50 17-50 51 0 51 46 75 82 42zm-2585-289c12-20 12-25-9-48-22-25-24-26-45-11-25 18-32 70-10 79 23 9 50 1 64-20zm156 2c7-19-18-40-38-32-8 3-15 15-15 26 0 14 7 20 24 20 13 0 26-6 29-14zm1625-168c30-30-3-88-50-88-22 0-48 27-48 50 0 41 68 68 98 38zm-882-24c9-36-15-60-45-45-24 13-26 23-11 52 16 28 48 24 56-7zm752-106c3-25 0-28-25-28-26 0-72 20-47 20 7 0 14 9 17 21 9 32 51 22 55-13zm-1227-158c38-21 10-76-31-62-31 11-37 34-14 56 18 19 20 19 45 6zm-821-55c20-24 8-50-24-50s-53 23-43 49c8 20 50 21 67 1z" />
    <path
      d="M1996 3475c-10-28-7-44 14-65 25-25 41-25 69-1 16 14 21 28 19 48-3 26-7 28-49 31-36 2-48-1-53-13zm1529-58c-28-44 12-90 54-61 16 12 21 24 19 47-2 26-8 33-30 35-19 2-31-3-43-21zm1298-322c-118-79-163-100-163-75 0 6-9 10-20 10s-20 4-20 9c0 4-18 20-39 34l-39 26-83-77-82-77-68-2c-51-1-69 2-73 13-9 24-20 16-44-35-33-74-76-91-220-91h-112v-43c0-48-35-239-50-277-6-14-20-31-31-38-21-13-180-37-202-29-14 4-45-32-50-59-2-11-11-36-21-56-19-45-20-65-3-71 9-3 9-8 1-18-12-16-6-119 7-119 5 0 9-6 9-13 0-8 9-22 20-32 42-38 100 11 114 96 6 38 10 42 72 70 111 49 106 50 137-28 21-53 26-79 22-113-3-25-2-50 2-56s44-37 88-69a597 597 0 0 0 171-157c35-55 58-65 166-77 53-6 117-20 143-31 55-23 125-26 163-6 15 8 57 46 95 85 81 84 85 108 30 155-161 137-240 254-250 369-3 34-14 80-24 101l-19 39 82-6c125-10 164 23 152 127-5 42-3 60 12 85 10 17 22 31 27 31s43-8 85-19c43-10 118-24 167-30 50-7 127-21 172-32 88-20 143-24 143-10 0 15-90 52-111 46-11-4-26 0-35 9-8 9-24 16-35 16-10 0-65 16-122 35s-112 32-124 29c-29-8-40 24-14 43 11 7 26 19 33 27 9 9 64 15 183 19 181 7 265 15 265 27 0 11-95 30-118 23-14-3-22-1-22 7 0 9-17 11-65 8-41-4-65-2-65 5 0 6-26 8-74 4-69-6-75-5-81 14-7 23-47 41-86 41-14 0-30 8-37 18-10 16 0 25 91 83 56 36 114 78 129 94l27 28-40 2c-34 2-55-8-166-82zm-96-231c12-18 11-24-8-47-23-30-59-35-83-11-23 22-20 50 7 69 29 20 66 16 84-11zm-183-81c10-26-23-48-42-29-8 8-12 22-9 30 8 21 43 20 51-1zm-433-103c23-13 26-62 5-79-20-17-77-10-90 12-13 21 0 46 35 64 29 15 26 15 50 3zm-475-385c12-49-37-75-58-31-15 33-4 56 26 56 19 0 27-7 32-25zm584-240c15-18 10-45-12-59-33-20-69 20-54 60 7 18 50 18 66-1z" />
    <path
      d="M5050 3036c-6-8-10-25-8-38 2-19 9-23 38-23s36 4 38 23c2 12-1 22-7 22s-11 7-11 15c0 19-34 20-50 1zM873 2819c-51-19-49-80 3-99 57-22 134-4 134 30 0 22-14 40-31 40-11 0-22 7-25 15-4 10-13 13-26 9-11-3-23-2-27 4-3 5-15 6-28 1zm4164-365c-15-16-7-53 14-59 30-10 58 19 43 43-12 18-45 28-57 16zm-3287-144c-14-5-55-8-91-9l-67-1 18-36c32-61 16-81-95-123l-85-33v-38c0-21-6-43-15-50-8-7-15-25-15-41 0-23 9-36 45-61 25-18 45-35 45-40 0-4-18-19-40-33-42-27-60-52-60-84 0-11-9-35-20-53-31-52-26-100 15-144 33-34 38-36 77-30l121 16c44 5 91 17 107 27 43 27 89 91 95 132 3 20 13 51 22 69s24 72 32 119c18 96 22 100 105 102 36 1 38-1 31-21-5-13-8-41-7-63l2-80c1-70 9-100 35-128 21-22 35-27 71-27 60 0 97 35 118 114l32 112c10 39 21 58 34 61 18 5 19 16 18 157v152l-39 17c-52 23-53 22-67-17-8-22-22-37-40-44-223-79-203-80-287 10-62 67-73 74-95 68zm488-152c30-30 0-75-43-64-29 7-32 31-8 58 19 21 34 23 51 6zm-648-423c29-35-18-75-74-61-19 5-26 13-26 30 0 38 74 62 100 31zM557 2004c-11-11-8-52 4-59 5-4 21-4 35-1 20 5 25 12 22 34-2 20-9 28-28 30-14 2-29 0-33-4zm544-50a91 91 0 0 1-21-44c0-25 32-50 64-50 29 0 90 41 100 66 10 26-30 54-78 54-36 0-48-5-65-26zm3922-99c-37-16-47-39-30-73 16-34 100-64 134-49 44 20 41 73-5 105-38 27-65 31-99 17zm-3861-167c-18-18-15-36 7-48 15-7 23-6 35 6 9 8 16 19 16 23 0 11-23 31-35 31-6 0-16-5-23-12zm3595-105c-21-21 20-83 54-83 21 0 39 20 39 43 0 25-76 58-93 40z" />
  </g>
</svg>