<svg id="root" xmlns="http://www.w3.org/2000/svg" width="768" height="441" viewBox="0 0 7680 4410">
  <g>
    <path
      d="M3708 3633c-43-4-47-7-62-43-8-21-15-54-15-72 3-411 5-459 15-466 15-10 57-199 51-231-6-26-88-272-94-280-2-2-5-2-8 1-2 2 6 44 19 92 35 125 43 208 22 226-13 10-19 11-29 1-9-9-7-16 13-31l24-18-26-59c-15-32-32-76-39-98-6-22-15-44-20-49-12-13-22 39-15 77 25 134 30 189 27 326-2 127-6 164-23 205-16 41-19 65-15 124 5 65 4 72-13 72-10 0-21-3-23-7-2-5 2-80 10-168 11-139 11-169-2-225-8-36-17-81-20-101-5-33-35-77-35-51 0 38-42 567-45 570-2 3-11 2-19-1-12-5-13-12-5-37 8-22 8-53-1-111-6-44-8-94-5-110 9-41-8-36-29 9-19 37-29 91-45 237-5 44-12 96-16 115-20 105-134 121-171 25-18-49-10-111 26-193 11-24 20-59 20-76s7-66 15-109 15-100 15-127c0-31 5-52 16-61 41-34 46-65 39-228-6-139 2-322 21-468 5-42 4-43-23-43-23 0-40-14-87-69-32-38-67-83-78-99l-18-29 25-17c22-14 24-20 14-38-14-25-32-138-30-190 0-20 10-63 21-95 11-31 20-77 20-102s13-79 32-128c35-93 60-116 134-126 26-3 58-18 88-41 26-20 55-36 64-37 14 0 12-3-5-16-13-8-23-21-23-29 0-7-7-17-17-22-13-8-14-17-8-48 7-38 8-64 4-124-1-19 4-35 14-43 9-6 23-29 32-49 13-33 18-36 38-29 12 4 57 7 100 7 53-2 81 2 89 11 6 7 17 13 24 13 8 0 14 7 14 15s11 22 25 31l24 16-26 39c-14 21-30 39-34 39-5 0-9 13-9 28 0 16-9 55-20 87-25 74-25 75 8 75 62 0 69 7 61 58-4 26-5 50-3 54 2 3 26 14 52 23 26 8 60 27 76 41l29 26 10 266c8 229 11 269 26 280 14 11 16 38 14 208-1 170-3 198-19 215-9 10-28 19-42 19h-25l5 259c3 142 2 280-2 305s-3 49 0 53c4 4 4 31 0 58-24 161-40 254-46 269-4 11 2 29 15 46 11 16 21 36 21 45s6 28 14 43c28 55 28 68 1 80-25 12-41 12-137 5zm-118-1207c0-19-9-44-20-57l-20-24-25 28c-43 48-25 84 43 86 19 1 22-4 22-33zm262-104c6-23 4-41-7-62-21-40-39-39-31 1 3 17 6 47 6 66 0 43 21 40 32-5zm-88-342c-21-89-32-95-22-13 9 81 15 100 28 87 5-5 3-35-6-74zm-435-57c1-42-24-123-38-123-4 0-22 18-40 41-25 30-30 44-22 52 6 6 11 19 11 30 0 10 4 16 10 12 5-3 17 9 26 27 30 59 38 65 45 32 4-16 7-48 8-71zm2113 1599c-7-5-18-45-24-89-10-72-10-86 5-120 24-52 47-141 47-180 0-23 5-33 15-33 8 0 15-6 15-13 0-8 14-33 30-55 41-57 41-125 1-215-73-163-93-332-49-422l22-45-36-67c-20-37-41-69-46-71-5-1-19 28-32 65-31 96-109 253-125 253-20 0-23 20-9 59 7 20 13 43 14 52 0 22-27 32-52 18-19-10-20-17-14-76 4-42 3-70-4-78-14-17 12-123 46-184 13-24 30-64 38-90 8-25 31-82 50-126 20-44 36-92 36-108 0-20 9-32 33-47 17-11 40-20 49-20 10 0 22-9 28-19 5-11 22-26 38-33 18-9 28-22 30-42 3-23 0-28-13-22-13 5-16 0-13-27 2-21-1-31-9-29-16 3-16 2-2-54 15-58 46-79 121-83 49-2 57 0 52 13-4 11 0 16 14 16 13 0 21 9 25 28 3 15 9 36 13 47 7 18 6 18-9 6-9-7-17-12-18-10s-3 23-4 47c-2 24-14 63-26 88-11 25-20 46-18 47 2 2 21 15 41 30s44 27 53 27c32 0 62 44 70 101 6 48 36 146 53 173 12 21 13 91 1 134-8 28-28 61-54 88-42 42-42 44-58 161-11 82-27 146-51 210-20 51-36 102-36 114 0 31 30 151 42 166 5 6 11 35 14 65 2 29 9 73 14 98 6 25 13 60 16 78 4 17 12 32 18 33s22 2 36 2c39 3 37 34-7 76-21 21-44 45-51 55-16 20-49 6-61-27-19-49-31-94-31-113 0-10-6-39-14-64-21-65-40-133-42-145 0-5-2-16-2-22-3-23-20-13-25 15-9 44-51 158-64 174-15 17-11 104 5 135 6 11 8 29 5 41-4 18-13 22-42 22-20 0-42-4-49-8zm375-1146c6-6-16-99-24-105-5-3-15-15-21-26-11-19-11-19-12 3 0 12-5 30-11 40-8 13-8 29 1 61 10 40 13 42 38 36 15-4 28-8 29-9z" />
    <path
      d="M2323 3470c-13-5-23-17-23-27 0-54 23-291 30-308 30-74 35-103 29-165-11-103-10-226 1-256 12-32 4-64-16-64-10 0-14 14-14 53 0 30-11 91-26 138-36 121-46 181-36 225 5 22 4 54-1 74-5 19-13 85-18 145-13 169-12 167-76 140-32-13-35-18-30-44 4-16 2-31-3-33-6-2-6-47 0-118 10-113 4-239-10-223-4 4-15 55-25 113-38 225-40 235-61 235-18 0-19-7-15-105 2-58 7-113 12-122 10-19 12-121 3-155-3-11-14-23-24-26-27-7-35-52-23-123 15-84 32-116 71-134 27-11 32-18 28-36-13-50 32-114 65-93 23 14 26 12 43-49 16-57 16-61-6-111l-21-52-23 28c-12 15-25 42-29 59-3 18-14 43-25 57s-20 34-20 45c0 12-4 24-10 27-5 3-10 28-10 55 0 56-23 80-59 61-29-16-32-37-11-85 10-25 19-53 19-63s3-36 5-58c3-22 5-55 5-72 1-26 5-33 21-33 15 0 20-7 20-27 0-16 11-47 24-69 13-23 27-63 31-90s13-61 21-75c16-32 65-75 96-85 13-4 40-20 60-37 34-27 36-32 24-46-37-41-26-148 17-175 12-8 39-14 59-14 41-1 74 24 85 66 8 33-3 91-22 112-20 23-19 37 5 45 11 3 24 15 30 24 5 10 30 25 56 32 33 10 49 21 56 39 5 14 22 39 38 55 34 36 103 143 117 182 6 15 19 50 28 76 13 37 29 57 65 83 26 19 53 47 60 63 6 16 22 39 36 52 28 27 31 39 6 39-9 0-33 11-52 24-57 38-76 40-112 13-18-14-51-28-74-31l-40-7 10 60c5 34 13 61 18 61 4 0 8 7 8 15s5 15 10 15c6 0 10-13 10-30 0-35 31-58 49-36 8 10 8 21 1 41-11 30-6 45 16 45 27 0 54 38 54 78 0 21 3 42 7 45 3 4 23-43 43-103 38-112 53-140 76-140 20 0 28-20 28-75 1-49 1-50 35-53l34-3-6 61-5 61 34 16 34 17v82c0 57-4 85-14 93-7 6-16 39-20 74-3 34-22 123-40 197-19 74-37 157-41 183-5 29-12 47-21 47-26 0-26 1-40-237-3-62-10-113-15-113-16 0-20 20-11 54 8 27 7 36-5 40-8 3-11 10-8 16 3 5-3 10-15 10-13 0-24 8-27 19-4 14-13 19-36 18-28-2-34 3-50 37-9 21-20 56-23 78-4 22-10 36-15 31-11-11-13-59-4-110 6-36 5-43-9-43-13 0-16 12-16 73 0 79-9 103-35 94-10-4-13-12-8-19 9-16 15-239 7-286-8-49-20-31-27 40-4 35-13 88-22 118s-19 81-22 112c-3 37-12 63-24 73-22 20-39 12-39-19 0-12-3-26-7-30s-8-28-8-54c-3-311-6-402-13-402-5 0-19 69-31 153-12 83-28 185-36 225s-15 90-15 111c0 49-8 71-26 71-8 0-14 9-14 19 0 29-34 38-77 21zm81-107c14-75 17-123 7-123-5 0-13 21-16 48-3 26-9 59-11 75-3 15-1 27 4 27 6 0 13-12 16-27zm616-254c0-24-4-38-10-34-5 3-10 24-10 46 0 24 4 38 10 34 6-3 10-24 10-46zm-70-153c0-24 6-61 14-83 11-31 11-45 1-68l-12-30-36 79c-21 43-37 81-37 84 0 9 53 62 62 62 4 0 8-20 8-44zm-880-91c0-51-16-67-30-31-10 28 6 90 21 80 5-3 9-25 9-49zm1030-46c0-10-4-19-10-19-5 0-10 12-10 26s4 23 10 19c6-3 10-15 10-26zm1317 614c-4-3-7-22-7-42s-7-71-15-114c-20-103-20-173 0-181 19-7 19-41-1-144-12-60-22-86-36-93-10-6-23-21-28-35-9-22-14-24-44-19-29 6-35 4-41-14-9-28-46-52-76-49-17 2-27-4-36-24-8-15-27-35-43-45-30-18-36-29-22-49 9-15 112 42 112 62 0 12 29 34 45 34 4 0 4-22 0-49-4-34-2-67 9-103 8-29 15-71 14-93 0-22 11-71 23-110 22-63 29-73 74-102 27-18 60-33 72-33 20 0 22-4 20-59-2-88 36-124 91-85 17 12 22 25 22 60 0 25-7 58-15 73l-14 29 64 31c70 35 85 52 85 101 0 25 13 44 63 94 75 75 124 164 182 331 24 66 52 144 64 173l21 52h-40c-27 0-47 7-60 20-22 22-24 29-11 49 19 29 1 41-63 41-78 1-134 14-150 36-11 14-22 16-64 11l-51-6-30 47c-37 59-45 90-31 126 6 16 8 36 5 46-8 27-71 50-88 33zm-57-698c0-34-47-145-62-145-4 0-10 10-12 23-20 96-17 127 14 127 10 0 23 7 30 15 20 24 30 18 30-20z" />
  </g>
</svg>