<svg xmlns="http://www.w3.org/2000/svg" id="root" viewBox="0 0 100 70">
  <g>
    <path
      d="M 44.273438 69.875 C 43.175781 69.773438 43.074219 69.695312 42.6875 68.769531 C 42.484375 68.230469 42.304688 67.378906 42.304688 66.917969 C 42.382812 56.347656 42.433594 55.113281 42.6875 54.933594 C 43.074219 54.675781 44.144531 49.816406 43.992188 48.992188 C 43.839844 48.324219 41.742188 42 41.589844 41.792969 C 41.539062 41.742188 41.460938 41.742188 41.386719 41.820312 C 41.332031 41.871094 41.539062 42.949219 41.871094 44.183594 C 42.765625 47.398438 42.96875 49.535156 42.433594 49.996094 C 42.101562 50.253906 41.949219 50.28125 41.691406 50.023438 C 41.460938 49.789062 41.511719 49.609375 42.023438 49.226562 L 42.636719 48.761719 L 41.972656 47.246094 C 41.589844 46.421875 41.15625 45.289062 40.976562 44.726562 C 40.824219 44.160156 40.59375 43.59375 40.464844 43.464844 C 40.15625 43.128906 39.902344 44.46875 40.082031 45.445312 C 40.71875 48.890625 40.847656 50.304688 40.769531 53.828125 C 40.71875 57.09375 40.617188 58.046875 40.183594 59.101562 C 39.773438 60.152344 39.699219 60.769531 39.800781 62.289062 C 39.925781 63.960938 39.902344 64.140625 39.46875 64.140625 C 39.210938 64.140625 38.929688 64.0625 38.878906 63.960938 C 38.828125 63.832031 38.929688 61.902344 39.136719 59.640625 C 39.417969 56.066406 39.417969 55.292969 39.082031 53.855469 C 38.878906 52.929688 38.648438 51.769531 38.574219 51.257812 C 38.445312 50.40625 37.675781 49.277344 37.675781 49.945312 C 37.675781 50.921875 36.605469 64.527344 36.527344 64.601562 C 36.476562 64.679688 36.246094 64.65625 36.042969 64.578125 C 35.734375 64.449219 35.707031 64.269531 35.914062 63.625 C 36.117188 63.058594 36.117188 62.261719 35.886719 60.769531 C 35.734375 59.640625 35.683594 58.355469 35.761719 57.941406 C 35.988281 56.886719 35.554688 57.015625 35.019531 58.175781 C 34.53125 59.125 34.277344 60.515625 33.867188 64.269531 C 33.738281 65.398438 33.5625 66.738281 33.457031 67.226562 C 32.949219 69.925781 30.03125 70.335938 29.085938 67.867188 C 28.625 66.609375 28.832031 65.015625 29.75 62.90625 C 30.03125 62.289062 30.261719 61.386719 30.261719 60.953125 C 30.261719 60.515625 30.441406 59.253906 30.644531 58.148438 C 30.851562 57.042969 31.03125 55.578125 31.03125 54.882812 C 31.03125 54.085938 31.15625 53.546875 31.4375 53.3125 C 32.488281 52.441406 32.613281 51.640625 32.4375 47.449219 C 32.28125 43.875 32.488281 39.171875 32.972656 35.414062 C 33.101562 34.335938 33.074219 34.308594 32.386719 34.308594 C 31.796875 34.308594 31.363281 33.949219 30.160156 32.535156 C 29.34375 31.558594 28.449219 30.402344 28.167969 29.988281 L 27.707031 29.242188 L 28.34375 28.808594 C 28.90625 28.445312 28.957031 28.292969 28.703125 27.828125 C 28.34375 27.1875 27.886719 24.28125 27.9375 22.945312 C 27.9375 22.429688 28.191406 21.324219 28.472656 20.5 C 28.753906 19.703125 28.984375 18.519531 28.984375 17.878906 C 28.984375 17.234375 29.316406 15.847656 29.800781 14.585938 C 30.699219 12.195312 31.335938 11.601562 33.230469 11.347656 C 33.894531 11.269531 34.710938 10.882812 35.480469 10.292969 C 36.144531 9.777344 36.886719 9.367188 37.113281 9.339844 C 37.472656 9.339844 37.421875 9.261719 36.988281 8.929688 C 36.65625 8.722656 36.398438 8.390625 36.398438 8.183594 C 36.398438 8.003906 36.21875 7.746094 35.964844 7.617188 C 35.632812 7.410156 35.605469 7.179688 35.761719 6.382812 C 35.9375 5.40625 35.964844 4.738281 35.863281 3.195312 C 35.835938 2.707031 35.964844 2.292969 36.21875 2.089844 C 36.449219 1.933594 36.808594 1.34375 37.039062 0.828125 C 37.371094 -0.0195312 37.5 -0.0976562 38.011719 0.0820312 C 38.316406 0.183594 39.46875 0.261719 40.566406 0.261719 C 41.921875 0.210938 42.636719 0.3125 42.84375 0.546875 C 42.996094 0.726562 43.277344 0.878906 43.457031 0.878906 C 43.660156 0.878906 43.8125 1.058594 43.8125 1.265625 C 43.8125 1.472656 44.09375 1.832031 44.453125 2.0625 L 45.066406 2.472656 L 44.402344 3.476562 C 44.042969 4.015625 43.636719 4.480469 43.53125 4.480469 C 43.40625 4.480469 43.300781 4.8125 43.300781 5.199219 C 43.300781 5.613281 43.074219 6.613281 42.792969 7.4375 C 42.152344 9.339844 42.152344 9.367188 42.996094 9.367188 C 44.582031 9.367188 44.761719 9.546875 44.554688 10.859375 C 44.453125 11.527344 44.425781 12.144531 44.480469 12.246094 C 44.53125 12.324219 45.144531 12.605469 45.808594 12.835938 C 46.472656 13.042969 47.34375 13.53125 47.75 13.890625 L 48.492188 14.558594 L 48.75 21.402344 C 48.953125 27.289062 49.03125 28.316406 49.414062 28.601562 C 49.769531 28.882812 49.824219 29.578125 49.769531 33.949219 C 49.746094 38.320312 49.695312 39.042969 49.285156 39.480469 C 49.054688 39.734375 48.570312 39.96875 48.210938 39.96875 L 47.574219 39.96875 L 47.699219 46.628906 C 47.777344 50.28125 47.75 53.828125 47.648438 54.472656 C 47.546875 55.113281 47.574219 55.730469 47.648438 55.832031 C 47.75 55.9375 47.75 56.632812 47.648438 57.324219 C 47.035156 61.464844 46.625 63.855469 46.472656 64.242188 C 46.371094 64.527344 46.523438 64.988281 46.855469 65.425781 C 47.136719 65.835938 47.394531 66.351562 47.394531 66.582031 C 47.394531 66.816406 47.546875 67.304688 47.75 67.6875 C 48.46875 69.101562 48.46875 69.4375 47.777344 69.746094 C 47.136719 70.054688 46.730469 70.054688 44.273438 69.875 Z M 41.257812 38.835938 C 41.257812 38.347656 41.027344 37.703125 40.746094 37.371094 L 40.234375 36.753906 L 39.59375 37.472656 C 38.496094 38.707031 38.957031 39.632812 40.695312 39.683594 C 41.179688 39.710938 41.257812 39.582031 41.257812 38.835938 Z M 47.957031 36.160156 C 48.109375 35.570312 48.058594 35.105469 47.777344 34.566406 C 47.238281 33.539062 46.78125 33.5625 46.984375 34.59375 C 47.0625 35.03125 47.136719 35.800781 47.136719 36.289062 C 47.136719 37.394531 47.675781 37.320312 47.957031 36.160156 Z M 45.707031 27.367188 C 45.167969 25.078125 44.886719 24.925781 45.144531 27.03125 C 45.375 29.117188 45.527344 29.605469 45.859375 29.269531 C 45.988281 29.140625 45.9375 28.371094 45.707031 27.367188 Z M 34.582031 25.902344 C 34.609375 24.820312 33.96875 22.738281 33.613281 22.738281 C 33.511719 22.738281 33.050781 23.199219 32.589844 23.792969 C 31.949219 24.5625 31.824219 24.925781 32.027344 25.128906 C 32.179688 25.285156 32.308594 25.617188 32.308594 25.902344 C 32.308594 26.160156 32.410156 26.3125 32.5625 26.210938 C 32.691406 26.132812 33 26.441406 33.230469 26.902344 C 33.996094 28.421875 34.199219 28.574219 34.378906 27.726562 C 34.480469 27.316406 34.558594 26.492188 34.582031 25.902344 Z M 88.609375 67.019531 C 88.429688 66.890625 88.148438 65.863281 87.996094 64.730469 C 87.738281 62.878906 87.738281 62.519531 88.125 61.644531 C 88.738281 60.308594 89.324219 58.019531 89.324219 57.015625 C 89.324219 56.425781 89.453125 56.167969 89.707031 56.167969 C 89.914062 56.167969 90.09375 56.015625 90.09375 55.832031 C 90.09375 55.628906 90.449219 54.984375 90.859375 54.417969 C 91.90625 52.953125 91.90625 51.207031 90.882812 48.890625 C 89.019531 44.699219 88.507812 40.351562 89.632812 38.039062 L 90.195312 36.882812 L 89.273438 35.160156 C 88.761719 34.207031 88.226562 33.382812 88.097656 33.332031 C 87.96875 33.308594 87.613281 34.054688 87.28125 35.003906 C 86.488281 37.472656 84.492188 41.511719 84.082031 41.511719 C 83.574219 41.511719 83.496094 42.023438 83.851562 43.027344 C 84.03125 43.542969 84.1875 44.132812 84.210938 44.363281 C 84.210938 44.929688 83.519531 45.1875 82.882812 44.828125 C 82.394531 44.570312 82.371094 44.390625 82.523438 42.875 C 82.625 41.792969 82.601562 41.074219 82.421875 40.867188 C 82.0625 40.429688 82.730469 37.703125 83.597656 36.136719 C 83.929688 35.519531 84.363281 34.488281 84.570312 33.820312 C 84.773438 33.179688 85.363281 31.710938 85.847656 30.582031 C 86.359375 29.449219 86.769531 28.214844 86.769531 27.804688 C 86.769531 27.289062 87 26.980469 87.613281 26.59375 C 88.046875 26.3125 88.632812 26.082031 88.863281 26.082031 C 89.121094 26.082031 89.425781 25.851562 89.582031 25.59375 C 89.707031 25.308594 90.144531 24.925781 90.550781 24.742188 C 91.011719 24.511719 91.269531 24.179688 91.320312 23.664062 C 91.394531 23.074219 91.320312 22.945312 90.988281 23.097656 C 90.65625 23.226562 90.578125 23.097656 90.65625 22.402344 C 90.707031 21.863281 90.628906 21.605469 90.425781 21.65625 C 90.015625 21.734375 90.015625 21.710938 90.375 20.269531 C 90.757812 18.777344 91.550781 18.238281 93.46875 18.136719 C 94.71875 18.082031 94.925781 18.136719 94.796875 18.46875 C 94.695312 18.753906 94.796875 18.878906 95.15625 18.878906 C 95.488281 18.878906 95.691406 19.113281 95.792969 19.601562 C 95.871094 19.988281 96.023438 20.527344 96.125 20.808594 C 96.304688 21.273438 96.28125 21.273438 95.894531 20.964844 C 95.664062 20.785156 95.460938 20.65625 95.4375 20.707031 C 95.410156 20.757812 95.359375 21.296875 95.332031 21.914062 C 95.28125 22.53125 94.976562 23.535156 94.667969 24.179688 C 94.386719 24.820312 94.15625 25.359375 94.207031 25.386719 C 94.257812 25.4375 94.746094 25.773438 95.257812 26.160156 C 95.769531 26.542969 96.382812 26.851562 96.613281 26.851562 C 97.429688 26.851562 98.195312 27.984375 98.402344 29.449219 C 98.554688 30.683594 99.320312 33.203125 99.757812 33.898438 C 100.0625 34.4375 100.089844 36.238281 99.78125 37.34375 C 99.578125 38.066406 99.066406 38.914062 98.402344 39.609375 C 97.328125 40.6875 97.328125 40.738281 96.917969 43.746094 C 96.636719 45.855469 96.226562 47.503906 95.613281 49.148438 C 95.101562 50.460938 94.695312 51.769531 94.695312 52.078125 C 94.695312 52.875 95.460938 55.960938 95.769531 56.347656 C 95.894531 56.503906 96.050781 57.25 96.125 58.019531 C 96.175781 58.765625 96.355469 59.898438 96.484375 60.539062 C 96.636719 61.183594 96.816406 62.082031 96.894531 62.546875 C 96.996094 62.984375 97.199219 63.367188 97.351562 63.394531 C 97.507812 63.421875 97.914062 63.445312 98.273438 63.445312 C 99.269531 63.523438 99.21875 64.320312 98.09375 65.398438 C 97.558594 65.941406 96.96875 66.558594 96.789062 66.816406 C 96.382812 67.328125 95.539062 66.96875 95.230469 66.121094 C 94.746094 64.859375 94.4375 63.703125 94.4375 63.214844 C 94.4375 62.957031 94.285156 62.210938 94.082031 61.570312 C 93.542969 59.898438 93.058594 58.148438 93.007812 57.839844 C 93.007812 57.710938 92.957031 57.429688 92.957031 57.273438 C 92.878906 56.683594 92.445312 56.941406 92.316406 57.660156 C 92.085938 58.792969 91.011719 61.722656 90.679688 62.132812 C 90.296875 62.570312 90.398438 64.808594 90.808594 65.605469 C 90.960938 65.890625 91.011719 66.351562 90.9375 66.660156 C 90.832031 67.125 90.601562 67.226562 89.863281 67.226562 C 89.351562 67.226562 88.789062 67.125 88.609375 67.019531 Z M 98.195312 37.550781 C 98.351562 37.394531 97.789062 35.003906 97.582031 34.851562 C 97.457031 34.773438 97.199219 34.464844 97.046875 34.179688 C 96.765625 33.691406 96.765625 33.691406 96.738281 34.257812 C 96.738281 34.566406 96.613281 35.03125 96.457031 35.289062 C 96.253906 35.621094 96.253906 36.03125 96.484375 36.855469 C 96.738281 37.882812 96.816406 37.9375 97.457031 37.78125 C 97.839844 37.679688 98.171875 37.574219 98.195312 37.550781 Z M 98.195312 37.550781 "
    />
    <path
      d="M 8.863281 65.683594 C 8.53125 65.554688 8.273438 65.246094 8.273438 64.988281 C 8.273438 63.601562 8.863281 57.503906 9.042969 57.066406 C 9.808594 55.164062 9.9375 54.417969 9.78125 52.824219 C 9.5 50.175781 9.527344 47.011719 9.808594 46.242188 C 10.117188 45.417969 9.910156 44.597656 9.398438 44.597656 C 9.144531 44.597656 9.042969 44.957031 9.042969 45.960938 C 9.042969 46.730469 8.761719 48.300781 8.375 49.507812 C 7.457031 52.621094 7.199219 54.164062 7.457031 55.292969 C 7.585938 55.859375 7.558594 56.683594 7.429688 57.195312 C 7.304688 57.683594 7.097656 59.382812 6.96875 60.925781 C 6.636719 65.273438 6.664062 65.21875 5.027344 64.527344 C 4.210938 64.191406 4.132812 64.0625 4.261719 63.394531 C 4.363281 62.984375 4.3125 62.597656 4.183594 62.546875 C 4.03125 62.496094 4.03125 61.335938 4.183594 59.511719 C 4.4375 56.605469 4.285156 53.367188 3.929688 53.777344 C 3.824219 53.878906 3.542969 55.191406 3.289062 56.683594 C 2.316406 62.46875 2.265625 62.726562 1.730469 62.726562 C 1.269531 62.726562 1.242188 62.546875 1.34375 60.027344 C 1.398438 58.535156 1.523438 57.121094 1.652344 56.886719 C 1.90625 56.398438 1.960938 53.777344 1.730469 52.902344 C 1.652344 52.621094 1.371094 52.3125 1.117188 52.234375 C 0.425781 52.054688 0.21875 50.898438 0.527344 49.070312 C 0.910156 46.910156 1.34375 46.085938 2.34375 45.625 C 3.03125 45.34375 3.160156 45.160156 3.058594 44.699219 C 2.726562 43.414062 3.875 41.765625 4.71875 42.308594 C 5.308594 42.667969 5.386719 42.617188 5.820312 41.046875 C 6.230469 39.582031 6.230469 39.480469 5.667969 38.191406 L 5.128906 36.855469 L 4.542969 37.574219 C 4.234375 37.960938 3.902344 38.65625 3.800781 39.09375 C 3.722656 39.554688 3.441406 40.199219 3.160156 40.558594 C 2.878906 40.917969 2.648438 41.433594 2.648438 41.714844 C 2.648438 42.023438 2.546875 42.332031 2.394531 42.410156 C 2.265625 42.488281 2.136719 43.128906 2.136719 43.824219 C 2.136719 45.265625 1.550781 45.882812 0.628906 45.394531 C -0.113281 44.980469 -0.1875 44.441406 0.347656 43.207031 C 0.605469 42.566406 0.835938 41.84375 0.835938 41.585938 C 0.835938 41.332031 0.910156 40.660156 0.960938 40.097656 C 1.039062 39.53125 1.089844 38.683594 1.089844 38.246094 C 1.117188 37.574219 1.21875 37.394531 1.625 37.394531 C 2.011719 37.394531 2.136719 37.214844 2.136719 36.703125 C 2.136719 36.289062 2.417969 35.492188 2.75 34.925781 C 3.085938 34.335938 3.441406 33.308594 3.542969 32.613281 C 3.648438 31.917969 3.875 31.042969 4.082031 30.683594 C 4.492188 29.859375 5.742188 28.753906 6.535156 28.5 C 6.867188 28.394531 7.558594 27.984375 8.070312 27.546875 C 8.9375 26.851562 8.992188 26.722656 8.683594 26.363281 C 7.738281 25.308594 8.019531 22.558594 9.117188 21.863281 C 9.425781 21.65625 10.117188 21.503906 10.625 21.503906 C 11.675781 21.476562 12.519531 22.121094 12.800781 23.199219 C 13.003906 24.050781 12.722656 25.542969 12.238281 26.082031 C 11.726562 26.671875 11.75 27.03125 12.363281 27.238281 C 12.644531 27.316406 12.980469 27.625 13.132812 27.855469 C 13.261719 28.113281 13.898438 28.5 14.5625 28.679688 C 15.40625 28.933594 15.816406 29.21875 15.996094 29.679688 C 16.125 30.042969 16.558594 30.683594 16.96875 31.09375 C 17.835938 32.019531 19.601562 34.773438 19.957031 35.777344 C 20.113281 36.160156 20.445312 37.0625 20.675781 37.730469 C 21.007812 38.683594 21.417969 39.195312 22.335938 39.863281 C 23 40.351562 23.691406 41.074219 23.871094 41.484375 C 24.023438 41.894531 24.433594 42.488281 24.792969 42.820312 C 25.507812 43.515625 25.582031 43.824219 24.945312 43.824219 C 24.714844 43.824219 24.101562 44.109375 23.613281 44.441406 C 22.15625 45.417969 21.671875 45.46875 20.75 44.777344 C 20.292969 44.417969 19.449219 44.054688 18.859375 43.980469 L 17.835938 43.800781 L 18.09375 45.34375 C 18.21875 46.214844 18.425781 46.910156 18.550781 46.910156 C 18.65625 46.910156 18.757812 47.089844 18.757812 47.296875 C 18.757812 47.503906 18.886719 47.683594 19.011719 47.683594 C 19.167969 47.683594 19.269531 47.347656 19.269531 46.910156 C 19.269531 46.011719 20.0625 45.417969 20.519531 45.984375 C 20.726562 46.242188 20.726562 46.523438 20.546875 47.039062 C 20.265625 47.8125 20.394531 48.195312 20.957031 48.195312 C 21.644531 48.195312 22.335938 49.171875 22.335938 50.203125 C 22.335938 50.742188 22.414062 51.28125 22.515625 51.359375 C 22.59375 51.460938 23.105469 50.253906 23.613281 48.710938 C 24.585938 45.832031 24.96875 45.109375 25.558594 45.109375 C 26.070312 45.109375 26.273438 44.597656 26.273438 43.183594 C 26.300781 41.921875 26.300781 41.894531 27.167969 41.820312 L 28.039062 41.742188 L 27.886719 43.308594 L 27.757812 44.878906 L 28.625 45.289062 L 29.496094 45.726562 L 29.496094 47.835938 C 29.496094 49.300781 29.394531 50.023438 29.136719 50.226562 C 28.957031 50.382812 28.730469 51.230469 28.625 52.132812 C 28.550781 53.003906 28.0625 55.292969 27.605469 57.195312 C 27.117188 59.101562 26.65625 61.234375 26.554688 61.902344 C 26.425781 62.648438 26.25 63.113281 26.019531 63.113281 C 25.355469 63.113281 25.355469 63.136719 24.996094 57.015625 C 24.917969 55.421875 24.738281 54.109375 24.613281 54.109375 C 24.203125 54.109375 24.101562 54.625 24.332031 55.5 C 24.535156 56.195312 24.511719 56.425781 24.203125 56.527344 C 24 56.605469 23.921875 56.785156 24 56.941406 C 24.074219 57.066406 23.921875 57.195312 23.613281 57.195312 C 23.28125 57.195312 23 57.402344 22.925781 57.683594 C 22.824219 58.046875 22.59375 58.175781 22.003906 58.148438 C 21.289062 58.097656 21.136719 58.226562 20.726562 59.101562 C 20.496094 59.640625 20.214844 60.539062 20.136719 61.105469 C 20.035156 61.671875 19.882812 62.03125 19.753906 61.902344 C 19.472656 61.621094 19.421875 60.386719 19.652344 59.074219 C 19.804688 58.148438 19.78125 57.96875 19.421875 57.96875 C 19.089844 57.96875 19.011719 58.277344 19.011719 59.84375 C 19.011719 61.878906 18.78125 62.496094 18.117188 62.261719 C 17.863281 62.160156 17.785156 61.953125 17.914062 61.773438 C 18.144531 61.363281 18.296875 55.628906 18.09375 54.417969 C 17.886719 53.160156 17.582031 53.621094 17.402344 55.449219 C 17.300781 56.347656 17.070312 57.710938 16.839844 58.484375 C 16.609375 59.253906 16.355469 60.566406 16.277344 61.363281 C 16.199219 62.3125 15.96875 62.984375 15.664062 63.238281 C 15.101562 63.753906 14.667969 63.546875 14.667969 62.75 C 14.667969 62.441406 14.589844 62.082031 14.488281 61.980469 C 14.386719 61.878906 14.28125 61.261719 14.28125 60.589844 C 14.207031 52.59375 14.128906 50.253906 13.949219 50.253906 C 13.824219 50.253906 13.464844 52.027344 13.15625 54.1875 C 12.851562 56.324219 12.441406 58.945312 12.238281 59.972656 C 12.03125 61.003906 11.855469 62.289062 11.855469 62.828125 C 11.855469 64.089844 11.648438 64.65625 11.1875 64.65625 C 10.984375 64.65625 10.832031 64.886719 10.832031 65.144531 C 10.832031 65.890625 9.960938 66.121094 8.863281 65.683594 Z M 10.933594 62.929688 C 11.292969 61.003906 11.367188 59.769531 11.113281 59.769531 C 10.984375 59.769531 10.78125 60.308594 10.703125 61.003906 C 10.625 61.671875 10.472656 62.519531 10.421875 62.929688 C 10.34375 63.316406 10.394531 63.625 10.523438 63.625 C 10.675781 63.625 10.855469 63.316406 10.933594 62.929688 Z M 26.683594 56.398438 C 26.683594 55.78125 26.582031 55.421875 26.425781 55.523438 C 26.300781 55.601562 26.171875 56.140625 26.171875 56.707031 C 26.171875 57.324219 26.273438 57.683594 26.425781 57.582031 C 26.582031 57.503906 26.683594 56.964844 26.683594 56.398438 Z M 24.894531 52.464844 C 24.894531 51.847656 25.046875 50.898438 25.25 50.332031 C 25.53125 49.535156 25.53125 49.171875 25.277344 48.582031 L 24.96875 47.8125 L 24.050781 49.84375 C 23.511719 50.949219 23.105469 51.925781 23.105469 52.003906 C 23.105469 52.234375 24.457031 53.597656 24.6875 53.597656 C 24.792969 53.597656 24.894531 53.082031 24.894531 52.464844 Z M 2.394531 50.125 C 2.394531 48.8125 1.984375 48.402344 1.625 49.328125 C 1.371094 50.046875 1.78125 51.640625 2.164062 51.386719 C 2.292969 51.308594 2.394531 50.742188 2.394531 50.125 Z M 28.730469 48.941406 C 28.730469 48.683594 28.625 48.453125 28.472656 48.453125 C 28.34375 48.453125 28.21875 48.761719 28.21875 49.121094 C 28.21875 49.480469 28.320312 49.714844 28.472656 49.609375 C 28.625 49.535156 28.730469 49.226562 28.730469 48.941406 Z M 62.402344 64.730469 C 62.300781 64.65625 62.222656 64.164062 62.222656 63.652344 C 62.222656 63.136719 62.042969 61.824219 61.839844 60.71875 C 61.328125 58.070312 61.328125 56.269531 61.839844 56.066406 C 62.324219 55.886719 62.324219 55.011719 61.8125 52.363281 C 61.507812 50.820312 61.25 50.152344 60.894531 49.972656 C 60.636719 49.816406 60.304688 49.429688 60.175781 49.070312 C 59.949219 48.503906 59.820312 48.453125 59.050781 48.582031 C 58.3125 48.738281 58.15625 48.683594 58.003906 48.222656 C 57.773438 47.503906 56.828125 46.886719 56.0625 46.960938 C 55.625 47.011719 55.371094 46.859375 55.140625 46.34375 C 54.9375 45.960938 54.449219 45.445312 54.042969 45.1875 C 53.273438 44.726562 53.121094 44.441406 53.480469 43.925781 C 53.707031 43.542969 56.34375 45.007812 56.34375 45.523438 C 56.34375 45.832031 57.082031 46.394531 57.492188 46.394531 C 57.59375 46.394531 57.59375 45.832031 57.492188 45.136719 C 57.390625 44.261719 57.441406 43.414062 57.722656 42.488281 C 57.925781 41.742188 58.105469 40.660156 58.082031 40.097656 C 58.082031 39.53125 58.363281 38.269531 58.667969 37.265625 C 59.230469 35.648438 59.410156 35.390625 60.5625 34.644531 C 61.25 34.179688 62.09375 33.796875 62.402344 33.796875 C 62.914062 33.796875 62.964844 33.691406 62.914062 32.277344 C 62.863281 30.015625 63.832031 29.089844 65.238281 30.09375 C 65.675781 30.402344 65.800781 30.734375 65.800781 31.636719 C 65.800781 32.277344 65.625 33.128906 65.417969 33.511719 L 65.0625 34.257812 L 66.699219 35.054688 C 68.488281 35.957031 68.871094 36.394531 68.871094 37.652344 C 68.871094 38.296875 69.203125 38.785156 70.480469 40.070312 C 72.398438 42 73.652344 44.289062 75.136719 48.582031 C 75.75 50.28125 76.464844 52.285156 76.769531 53.03125 L 77.308594 54.367188 L 76.285156 54.367188 C 75.59375 54.367188 75.082031 54.546875 74.75 54.882812 C 74.1875 55.449219 74.136719 55.628906 74.46875 56.140625 C 74.957031 56.886719 74.496094 57.195312 72.859375 57.195312 C 70.863281 57.222656 69.433594 57.558594 69.023438 58.121094 C 68.742188 58.484375 68.460938 58.535156 67.386719 58.40625 L 66.082031 58.25 L 65.316406 59.460938 C 64.371094 60.976562 64.167969 61.773438 64.523438 62.699219 C 64.675781 63.113281 64.730469 63.625 64.652344 63.882812 C 64.449219 64.578125 62.835938 65.167969 62.402344 64.730469 Z M 60.945312 46.78125 C 60.945312 45.90625 59.742188 43.054688 59.359375 43.054688 C 59.257812 43.054688 59.105469 43.308594 59.050781 43.644531 C 58.542969 46.113281 58.617188 46.910156 59.410156 46.910156 C 59.667969 46.910156 60 47.089844 60.175781 47.296875 C 60.6875 47.914062 60.945312 47.757812 60.945312 46.78125 Z M 60.945312 46.78125 "
    />
  </g>
</svg>
