<svg xmlns="http://www.w3.org/2000/svg" id="root" viewBox="0 0 100 58">
  <g>
    <path
      d="M 58.53125 57.984375 C 56.671875 57.824219 55.582031 57.507812 54.578125 56.835938 C 53.71875 56.257812 52.292969 54.796875 52.382812 54.574219 C 52.410156 54.496094 52.480469 54.484375 52.777344 54.511719 C 52.976562 54.527344 53.460938 54.574219 53.859375 54.617188 C 54.804688 54.703125 58.464844 54.644531 59.671875 54.523438 C 61.574219 54.332031 62.914062 53.882812 64.039062 53.050781 C 64.292969 52.863281 64.65625 52.609375 64.84375 52.488281 L 65.191406 52.269531 L 66.113281 52.269531 C 66.960938 52.269531 67.058594 52.257812 67.285156 52.136719 C 67.917969 51.800781 68.5 50.945312 68.742188 49.996094 C 69.0625 48.761719 68.882812 46.863281 68.351562 45.785156 C 68.097656 45.257812 67.804688 44.921875 67.355469 44.632812 C 66.972656 44.382812 66.777344 44.085938 66.777344 43.75 C 66.777344 43.472656 66.628906 42.941406 66.367188 42.296875 C 66.148438 41.742188 66.089844 41.488281 66.195312 41.488281 C 66.363281 41.488281 67.34375 42.292969 67.953125 42.933594 C 68.460938 43.476562 68.789062 43.972656 69.359375 45.074219 C 69.570312 45.476562 69.742188 45.742188 69.804688 45.753906 C 69.855469 45.765625 69.972656 45.714844 70.054688 45.632812 C 70.519531 45.199219 71.199219 45.164062 73.238281 45.484375 C 75.011719 45.753906 75.871094 45.949219 76.351562 46.1875 C 76.800781 46.414062 76.863281 46.535156 76.863281 47.269531 C 76.871094 47.847656 76.949219 48.582031 77.078125 49.140625 C 77.191406 49.660156 77.191406 50.21875 77.078125 50.4375 C 76.90625 50.773438 76.445312 51.078125 75.589844 51.425781 C 74.632812 51.816406 73.738281 51.957031 71.308594 52.09375 C 69.597656 52.195312 69.359375 52.21875 69.128906 52.339844 C 68.921875 52.441406 68.90625 52.714844 69.101562 52.839844 C 69.414062 53.050781 72.71875 52.996094 74.242188 52.761719 C 75.453125 52.570312 76.476562 52.175781 77.273438 51.597656 C 77.902344 51.140625 78.21875 51.019531 78.933594 50.972656 C 79.671875 50.921875 79.882812 50.835938 80.261719 50.425781 C 80.597656 50.054688 80.863281 49.5625 81.082031 48.917969 C 81.265625 48.367188 81.359375 48.210938 81.554688 48.113281 C 81.863281 47.960938 82.03125 47.199219 81.96875 46.25 L 81.929688 45.65625 L 82.125 45.539062 C 82.304688 45.429688 82.414062 45.417969 83.214844 45.417969 C 85.105469 45.425781 87.207031 45.738281 87.863281 46.113281 C 88.273438 46.34375 88.382812 46.59375 88.457031 47.441406 C 88.492188 47.804688 88.527344 48.339844 88.539062 48.617188 L 88.5625 49.128906 L 88.347656 49.261719 C 87.527344 49.777344 86.65625 50.089844 85.566406 50.25 C 85.03125 50.332031 84.664062 50.339844 83.472656 50.308594 C 82.683594 50.292969 81.851562 50.257812 81.640625 50.238281 L 81.246094 50.207031 L 81.265625 50.597656 C 81.28125 50.960938 81.292969 51.003906 81.433594 51.066406 C 81.664062 51.183594 83.1875 51.316406 84.222656 51.316406 C 86.007812 51.316406 87.535156 50.945312 88.589844 50.261719 C 89.195312 49.863281 89.53125 49.742188 90.128906 49.691406 C 91.074219 49.609375 91.40625 49.367188 91.894531 48.414062 C 92.039062 48.136719 92.28125 47.773438 92.4375 47.605469 C 92.875 47.125 92.972656 46.835938 93.046875 45.882812 C 93.066406 45.644531 93.09375 45.382812 93.113281 45.308594 L 93.140625 45.175781 L 94.191406 45.199219 C 95.660156 45.238281 96.296875 45.40625 96.496094 45.808594 C 96.601562 46.003906 96.710938 46.800781 96.710938 47.308594 C 96.710938 48.066406 96.492188 48.476562 95.945312 48.730469 C 95.546875 48.921875 94.992188 49.039062 93.730469 49.199219 C 92.507812 49.355469 92.386719 49.40625 92.386719 49.753906 C 92.386719 50.074219 92.484375 50.101562 93.585938 50.101562 C 95.171875 50.101562 95.957031 49.917969 96.859375 49.320312 C 97.535156 48.882812 97.742188 48.785156 98.210938 48.683594 C 98.664062 48.585938 98.996094 48.4375 99.335938 48.164062 C 99.699219 47.875 99.710938 47.875 99.640625 48.117188 C 99.265625 49.5 97.9375 51.007812 96.441406 51.773438 C 95.753906 52.117188 95.292969 52.210938 94.257812 52.210938 C 93.125 52.210938 92.738281 52.125 91.953125 51.683594 C 91.640625 51.515625 91.359375 51.394531 91.324219 51.414062 C 91.289062 51.4375 90.988281 51.660156 90.65625 51.921875 C 89.089844 53.140625 88.167969 53.5625 86.410156 53.859375 C 85.421875 54.027344 83.769531 54.003906 82.953125 53.8125 C 81.984375 53.582031 81.460938 53.371094 80.804688 52.957031 C 80.636719 52.847656 80.453125 52.761719 80.394531 52.761719 C 80.234375 52.761719 79.851562 53.0625 79.03125 53.835938 C 77.851562 54.949219 77.027344 55.550781 75.953125 56.066406 C 74.910156 56.570312 74.757812 56.585938 72.441406 56.5625 C 70.074219 56.535156 70.289062 56.582031 68.484375 55.695312 C 67.773438 55.34375 67.3125 55.148438 67.273438 55.183594 C 67.238281 55.210938 66.984375 55.40625 66.714844 55.628906 C 65.265625 56.785156 63.304688 57.5625 61.097656 57.871094 C 60.445312 57.960938 58.992188 58.027344 58.53125 57.984375 Z M 6.414062 54.585938 C 5.746094 54.414062 4.953125 54.195312 4.65625 54.089844 C 3.96875 53.851562 3.101562 53.414062 2.628906 53.054688 C 1.417969 52.136719 0.53125 50.628906 0.132812 48.828125 C -0.0117188 48.175781 -0.046875 46.570312 0.0703125 45.882812 C 0.257812 44.695312 0.675781 43.644531 1.308594 42.71875 C 1.648438 42.21875 2.480469 41.34375 2.75 41.199219 C 2.890625 41.128906 2.890625 41.128906 2.855469 41.332031 C 2.835938 41.441406 2.613281 41.996094 2.351562 42.5625 C 1.558594 44.304688 1.140625 45.75 1.140625 46.773438 C 1.140625 46.996094 1.195312 47.417969 1.25 47.703125 C 1.367188 48.25 1.695312 49.078125 1.78125 49.027344 C 1.8125 49.007812 1.835938 48.449219 1.835938 47.785156 C 1.835938 46.488281 1.875 46.066406 2.097656 45.175781 C 2.308594 44.34375 2.617188 43.519531 3.078125 42.585938 C 4.445312 39.835938 6.367188 37.632812 9.621094 35.078125 C 10.472656 34.40625 12.140625 33.417969 13.582031 32.730469 C 15.792969 31.675781 18.835938 30.605469 18.980469 30.835938 C 19.019531 30.898438 18.535156 31.609375 17.578125 32.90625 C 16.707031 34.085938 16.289062 34.703125 16.222656 34.898438 C 16.199219 34.980469 16.078125 35.175781 15.957031 35.34375 C 15.457031 36.019531 14.472656 38.027344 13.714844 39.929688 C 13.339844 40.859375 13.195312 41.320312 13.195312 41.539062 L 13.203125 41.691406 L 13.363281 41.511719 C 13.566406 41.292969 14.03125 40.441406 14.867188 38.773438 C 16.507812 35.5 18.167969 33.007812 20.246094 30.714844 L 20.554688 30.375 L 21.933594 30.558594 C 25.589844 31.054688 28.089844 31.582031 31.277344 32.535156 C 35.933594 33.921875 39.832031 35.628906 42.949219 37.632812 C 45.355469 39.183594 47.207031 40.753906 48.101562 42.007812 C 48.503906 42.574219 48.816406 43.195312 48.988281 43.773438 C 49.128906 44.230469 49.144531 44.394531 49.152344 45.101562 C 49.152344 45.894531 49.152344 45.921875 48.933594 46.558594 C 48.601562 47.527344 48.085938 48.375 47.277344 49.257812 C 46.648438 49.949219 45.476562 50.828125 44.601562 51.269531 C 43.609375 51.773438 41.894531 52.316406 40.269531 52.644531 C 37.402344 53.234375 35.84375 53.304688 26.460938 53.304688 C 19.175781 53.304688 17.875 53.269531 15.25 53.015625 L 13.699219 52.863281 L 13.226562 53.34375 C 12.660156 53.90625 12.054688 54.328125 11.558594 54.496094 C 10.890625 54.714844 9.890625 54.847656 8.726562 54.871094 L 7.628906 54.894531 Z M 29.484375 48.269531 C 30.890625 46.136719 33.578125 40.523438 33.792969 39.257812 C 33.878906 38.761719 33.828125 38.582031 33.492188 38.28125 C 33.101562 37.929688 32.730469 38.027344 32.164062 38.632812 C 30.480469 40.453125 29.085938 43.957031 28.820312 47.027344 C 28.757812 47.726562 28.773438 48.519531 28.859375 48.730469 C 28.941406 48.949219 29.109375 48.828125 29.484375 48.269531 Z M 37.050781 48.066406 C 37.414062 47.730469 38.089844 46.882812 38.785156 45.882812 C 40.617188 43.25 41.203125 41.824219 40.792969 41.019531 C 40.632812 40.71875 40.183594 40.644531 39.75 40.851562 C 38.792969 41.320312 37.453125 43.71875 36.84375 46.085938 C 36.578125 47.085938 36.519531 47.75 36.648438 48.210938 C 36.691406 48.363281 36.761719 48.332031 37.050781 48.066406 Z M 20.273438 46.535156 C 20.398438 46.351562 20.613281 45.992188 20.75 45.738281 C 21.910156 43.59375 23.097656 41.738281 23.929688 40.765625 C 24.570312 40.015625 25.601562 38.328125 25.855469 37.617188 C 25.996094 37.230469 26.070312 36.707031 26.023438 36.417969 C 25.964844 36.042969 25.6875 35.765625 25.371094 35.765625 C 25.035156 35.765625 24.738281 35.933594 24.230469 36.417969 C 23.042969 37.550781 21.675781 39.714844 21.160156 41.273438 C 20.75 42.511719 19.960938 45.652344 19.859375 46.441406 C 19.789062 46.972656 19.945312 47.007812 20.273438 46.535156 Z M 5.8125 46.332031 C 5.871094 46.195312 5.933594 45.941406 5.957031 45.765625 C 6.050781 44.996094 6.570312 43.402344 7.222656 41.882812 C 7.457031 41.316406 7.6875 40.730469 7.722656 40.585938 C 7.785156 40.34375 7.78125 40.308594 7.6875 40.242188 C 7 39.738281 5.882812 41.816406 5.523438 44.246094 C 5.289062 45.886719 5.457031 47.140625 5.8125 46.332031 Z M 8.523438 45.695312 C 8.6875 45.425781 8.832031 45.113281 9.417969 43.742188 C 10.054688 42.273438 10.734375 40.960938 11.894531 38.945312 C 12.203125 38.40625 12.519531 37.605469 12.550781 37.292969 C 12.640625 36.175781 11.71875 36.851562 10.589844 38.71875 C 9.941406 39.785156 9.574219 40.59375 9.066406 42.097656 C 8.457031 43.886719 8.070312 45.941406 8.339844 45.941406 C 8.363281 45.941406 8.445312 45.828125 8.523438 45.695312 Z M 3.960938 45.34375 C 4.125 44.941406 4.601562 43.269531 4.601562 43.113281 C 4.601562 42.808594 4.1875 43.113281 3.921875 43.609375 C 3.644531 44.136719 3.488281 44.785156 3.519531 45.273438 C 3.535156 45.507812 3.5625 45.71875 3.585938 45.761719 C 3.65625 45.871094 3.824219 45.683594 3.960938 45.34375 Z M 3.960938 45.34375 "
    />
    <path
      d="M 53.683594 53.691406 C 52.855469 53.570312 51.785156 53.199219 51.347656 52.875 C 50.765625 52.449219 50.5625 52.417969 48.347656 52.414062 C 46.785156 52.414062 45.460938 52.351562 45.242188 52.261719 C 45.050781 52.1875 45.148438 52.03125 45.5 51.828125 C 47.367188 50.785156 48.890625 49.113281 49.84375 47.085938 C 49.988281 46.773438 50.222656 46.273438 50.363281 45.972656 C 50.675781 45.304688 50.75 45.25 51.128906 45.449219 C 51.46875 45.621094 51.5625 45.628906 54.636719 45.5625 C 56.492188 45.527344 57.0625 45.539062 57.914062 45.617188 C 60.316406 45.828125 62.21875 46.21875 63.289062 46.714844 C 63.886719 46.992188 63.898438 47.015625 63.957031 48.238281 C 63.996094 49.246094 64.082031 49.847656 64.261719 50.453125 C 64.546875 51.40625 64.175781 51.960938 62.769531 52.667969 C 61.113281 53.496094 59.984375 53.671875 56.222656 53.714844 C 55 53.726562 53.859375 53.714844 53.683594 53.691406 Z M 63.289062 45.652344 C 61.914062 45.171875 60.492188 44.882812 58.585938 44.691406 C 57.195312 44.558594 54.386719 44.527344 52.472656 44.628906 C 51.601562 44.671875 50.882812 44.707031 50.875 44.703125 C 50.863281 44.691406 50.910156 44.527344 50.980469 44.332031 C 51.464844 42.886719 53.9375 40.859375 56.523438 39.789062 C 57.179688 39.519531 57.648438 39.464844 59.46875 39.464844 C 61.632812 39.464844 62.007812 39.535156 63.113281 40.105469 C 64.6875 40.917969 65.472656 41.789062 65.933594 43.269531 C 66.199219 44.113281 66.222656 44.054688 65.167969 45.066406 C 64.667969 45.546875 64.214844 45.941406 64.175781 45.933594 C 64.128906 45.933594 63.730469 45.808594 63.289062 45.652344 Z M 76.003906 45.007812 C 75.082031 44.753906 74.535156 44.691406 71.390625 44.496094 C 69.933594 44.402344 69.789062 44.339844 69.4375 43.640625 C 69.136719 43.042969 68.699219 42.476562 67.878906 41.605469 C 67.066406 40.742188 67.03125 40.683594 67.144531 40.453125 C 67.421875 39.921875 68.566406 39.304688 69.777344 39.03125 C 70.371094 38.898438 72.136719 38.851562 72.875 38.945312 C 74.609375 39.160156 75.9375 39.761719 76.972656 40.789062 C 77.910156 41.714844 78.566406 43.0625 78.46875 43.816406 C 78.4375 44.007812 78.363281 44.125 78.042969 44.453125 C 77.433594 45.074219 77.257812 45.1875 76.90625 45.183594 C 76.742188 45.183594 76.339844 45.101562 76.003906 45.007812 Z M 88.117188 45.125 C 87.109375 44.714844 84.414062 44.320312 82.65625 44.320312 C 81.789062 44.320312 81.601562 44.28125 81.601562 44.089844 C 81.601562 43.921875 81.300781 43.195312 80.839844 42.222656 C 80.597656 41.71875 80.445312 41.351562 80.480469 41.320312 C 81.324219 40.5625 82.800781 39.90625 84.398438 39.574219 C 85.273438 39.390625 85.816406 39.4375 86.445312 39.738281 C 87.234375 40.113281 88.441406 41.117188 89.246094 42.085938 C 89.917969 42.882812 90.019531 43.171875 89.789062 43.628906 C 89.664062 43.875 88.429688 45.1875 88.324219 45.183594 C 88.289062 45.183594 88.199219 45.152344 88.117188 45.125 Z M 80.386719 44.695312 C 79.886719 44.363281 79.296875 43.839844 79.242188 43.683594 C 79.210938 43.605469 79.132812 43.296875 79.0625 43.003906 C 78.992188 42.703125 78.855469 42.234375 78.746094 41.960938 C 78.382812 41.003906 78.421875 40.863281 78.929688 41.390625 C 79.527344 42.015625 80.359375 43.40625 80.683594 44.339844 C 80.902344 44.972656 80.867188 45.019531 80.386719 44.695312 Z M 91.78125 44.585938 C 91.425781 44.222656 91.074219 43.707031 90.566406 42.816406 C 89.6875 41.28125 89.570312 40.980469 89.945312 41.183594 C 90.164062 41.304688 90.875 41.984375 91.175781 42.363281 C 91.675781 42.996094 92.15625 43.984375 92.242188 44.570312 C 92.28125 44.824219 92.277344 44.839844 92.148438 44.839844 C 92.074219 44.839844 91.921875 44.742188 91.78125 44.585938 Z M 99.636719 44.414062 C 99.433594 44.066406 99.242188 43.863281 98.785156 43.519531 C 98.6875 43.449219 98.5625 43.285156 98.5 43.164062 C 98.324219 42.824219 97.789062 41.367188 97.828125 41.332031 C 97.898438 41.261719 98.238281 41.464844 98.527344 41.742188 C 99.09375 42.304688 99.722656 43.378906 99.910156 44.117188 C 100.101562 44.859375 99.976562 44.996094 99.636719 44.414062 Z M 95.644531 44.308594 C 95.339844 44.222656 94.976562 44.1875 94.136719 44.164062 L 93.035156 44.128906 L 92.730469 43.546875 C 92.304688 42.726562 91.773438 41.941406 91.296875 41.414062 C 90.6875 40.75 90.527344 40.519531 90.597656 40.386719 C 90.671875 40.246094 91.289062 39.953125 91.75 39.835938 C 92.253906 39.707031 93.273438 39.75 93.925781 39.921875 C 95.632812 40.375 97.046875 41.476562 97.519531 42.738281 C 97.691406 43.21875 97.675781 43.390625 97.386719 43.8125 C 97.039062 44.316406 96.84375 44.4375 96.398438 44.429688 C 96.203125 44.425781 95.867188 44.375 95.644531 44.308594 Z M 95.644531 44.308594 "
    />
    <path
      d="M 49.941406 43.292969 C 49.441406 42.238281 48.765625 41.210938 48.113281 40.511719 C 47.023438 39.328125 44.207031 37.210938 42.179688 36.042969 C 39.191406 34.328125 35.679688 32.828125 32.183594 31.785156 C 29.21875 30.894531 23.226562 29.621094 21.386719 29.5 C 20.289062 29.425781 19.074219 29.617188 17.523438 30.109375 C 17.03125 30.261719 16.511719 30.40625 16.375 30.429688 L 16.121094 30.464844 L 16.15625 30.296875 C 16.171875 30.207031 16.230469 30.007812 16.289062 29.851562 C 16.414062 29.542969 16.367188 29.414062 16.113281 29.320312 C 15.976562 29.273438 15.671875 29.304688 14.878906 29.441406 L 14.695312 29.476562 L 14.695312 29.222656 C 14.695312 28.367188 16.109375 27.4375 17.535156 27.351562 C 18.363281 27.304688 18.480469 27.242188 19.339844 26.402344 C 20.671875 25.109375 22.332031 23.824219 23.339844 23.308594 C 23.683594 23.136719 23.78125 23.128906 23.835938 23.269531 C 23.867188 23.320312 23.902344 24.113281 23.929688 25.019531 C 23.980469 26.859375 24.023438 27.097656 24.398438 27.558594 C 24.664062 27.894531 24.949219 28.027344 25.480469 28.0625 C 26.96875 28.164062 28.222656 27.472656 31.59375 24.667969 C 34.148438 22.550781 37.078125 20.328125 37.9375 19.851562 C 38.796875 19.386719 40.367188 18.800781 41.859375 18.398438 C 43.488281 17.964844 43.976562 17.875 44.917969 17.875 C 45.667969 17.882812 45.804688 17.894531 46.273438 18.039062 C 47.910156 18.554688 51.042969 20.128906 53.453125 21.664062 C 55.027344 22.664062 57.328125 24.386719 58.097656 25.128906 C 58.539062 25.570312 58.773438 25.644531 59.554688 25.609375 C 59.964844 25.585938 60.203125 25.558594 60.183594 25.519531 C 60.148438 25.40625 59.722656 25.296875 59.136719 25.246094 C 58.535156 25.195312 58.414062 25.128906 58.414062 24.875 C 58.414062 24.332031 55.773438 22.257812 52.789062 20.472656 C 52.316406 20.183594 51.335938 19.617188 50.617188 19.207031 C 49.890625 18.796875 49.300781 18.425781 49.300781 18.386719 C 49.300781 18.269531 49.648438 18.292969 50.519531 18.453125 C 51.597656 18.65625 52.230469 18.835938 53.183594 19.210938 C 56.449219 20.507812 60.105469 22.8125 62.324219 24.980469 C 63.136719 25.773438 63.183594 25.875 62.871094 26.246094 C 62.578125 26.605469 62.792969 26.785156 63.433594 26.71875 C 64.332031 26.628906 64.71875 26.367188 64.269531 26.152344 C 64.113281 26.078125 64.03125 25.980469 63.917969 25.726562 C 63.753906 25.355469 63.4375 25.003906 62.652344 24.328125 C 61.480469 23.316406 59.398438 21.800781 57.277344 20.417969 C 56.792969 20.109375 56.394531 19.824219 56.394531 19.800781 C 56.394531 19.730469 57.144531 19.742188 57.503906 19.820312 C 58.425781 20.003906 59.652344 20.570312 61.328125 21.585938 C 63.195312 22.726562 64.34375 23.535156 66.113281 24.992188 C 67.929688 26.476562 68.21875 26.894531 67.519531 27.007812 C 67.394531 27.03125 67.222656 27.109375 67.132812 27.183594 C 66.984375 27.316406 66.984375 27.320312 67.082031 27.425781 C 67.164062 27.511719 67.273438 27.53125 67.628906 27.523438 C 68.378906 27.511719 68.851562 27.308594 68.851562 26.996094 C 68.851562 26.449219 66.332031 24.175781 63.605469 22.269531 C 62.6875 21.628906 61.855469 20.992188 61.828125 20.90625 C 61.777344 20.761719 63.300781 20.898438 64.105469 21.113281 C 66.4375 21.730469 70.460938 24.003906 72.828125 26.03125 C 75.433594 28.269531 76.640625 30.5 76.640625 33.085938 C 76.640625 33.921875 76.59375 34.074219 76.144531 34.75 L 75.816406 35.246094 L 72.601562 35.246094 L 72.601562 35.0625 C 72.601562 34.453125 72.734375 32.917969 72.804688 32.667969 C 72.867188 32.453125 72.996094 32.257812 73.292969 31.917969 C 73.511719 31.667969 73.789062 31.285156 73.898438 31.074219 C 74.136719 30.632812 74.332031 29.917969 74.332031 29.53125 C 74.332031 28.972656 74.097656 28.542969 73.796875 28.542969 C 73.339844 28.542969 72.476562 29.582031 72.347656 30.28125 C 72.308594 30.511719 72.082031 30.796875 71.945312 30.796875 C 71.898438 30.796875 71.804688 30.714844 71.738281 30.617188 C 71.628906 30.472656 71.574219 30.441406 71.402344 30.460938 C 71.289062 30.472656 71.171875 30.519531 71.136719 30.582031 C 71.066406 30.691406 71.089844 30.742188 71.582031 31.546875 C 71.921875 32.113281 71.984375 32.367188 71.984375 33.164062 C 71.984375 34.242188 71.800781 34.917969 71.464844 35.066406 C 71.390625 35.101562 71.195312 35.128906 71.035156 35.128906 C 70.59375 35.128906 68.929688 34.964844 68.566406 34.882812 C 68.171875 34.796875 68.160156 34.75 68.335938 34.019531 C 68.410156 33.703125 68.476562 33.160156 68.5 32.683594 C 68.546875 31.789062 68.578125 31.71875 68.953125 31.71875 C 69.414062 31.71875 69.8125 31.355469 70.179688 30.59375 C 70.757812 29.414062 70.703125 28.195312 70.070312 27.957031 C 69.535156 27.75 68.796875 28.773438 68.398438 30.269531 C 68.304688 30.628906 68.214844 30.933594 68.195312 30.953125 C 68.183594 30.96875 68.039062 30.773438 67.878906 30.519531 C 67.574219 30.039062 67.132812 29.582031 66.984375 29.582031 C 66.828125 29.582031 66.777344 29.367188 66.777344 28.6875 C 66.777344 27.597656 66.609375 27.210938 66.125 27.210938 C 65.800781 27.210938 65.554688 27.390625 65.277344 27.808594 C 64.769531 28.585938 64.46875 29.703125 64.574219 30.441406 C 64.65625 31.003906 64.753906 31.109375 65.214844 31.113281 C 65.625 31.113281 65.667969 31.078125 66.121094 30.414062 C 66.539062 29.777344 66.777344 29.644531 66.777344 30.050781 C 66.777344 30.210938 66.945312 30.449219 67.058594 30.449219 C 67.15625 30.449219 67.476562 31.1875 67.617188 31.765625 C 67.820312 32.539062 67.792969 33.21875 67.527344 34.164062 L 67.332031 34.851562 L 66.984375 34.820312 C 66.789062 34.800781 66.0625 34.742188 65.371094 34.695312 C 63.90625 34.59375 63.53125 34.558594 63.425781 34.488281 C 63.367188 34.453125 63.367188 34.363281 63.453125 33.992188 C 63.730469 32.753906 63.730469 32.742188 63.703125 32.007812 C 63.6875 31.609375 63.632812 31.117188 63.574219 30.910156 C 63.433594 30.355469 62.957031 29.40625 62.683594 29.117188 C 62.460938 28.886719 62.445312 28.847656 62.472656 28.632812 C 62.605469 27.632812 62.554688 27.113281 62.300781 26.8125 C 62.007812 26.460938 61.609375 26.542969 61.140625 27.0625 C 60.3125 27.980469 59.972656 29.859375 60.535156 30.417969 C 60.820312 30.703125 61.128906 30.605469 61.734375 30.042969 C 61.976562 29.820312 62.203125 29.644531 62.242188 29.65625 C 62.363281 29.691406 62.671875 30.207031 62.84375 30.675781 C 63.125 31.40625 63.210938 31.929688 63.144531 32.425781 C 63.0625 33.003906 62.894531 33.53125 62.664062 33.945312 C 62.382812 34.449219 62.1875 34.535156 61.125 34.605469 C 59.914062 34.683594 59.046875 34.894531 57.703125 35.429688 C 56.152344 36.042969 54.730469 36.980469 53.535156 38.164062 C 52.757812 38.941406 52.449219 39.34375 51.710938 40.59375 C 51.175781 41.507812 51.09375 41.652344 50.605469 42.628906 C 50.363281 43.113281 50.144531 43.523438 50.113281 43.535156 C 50.089844 43.550781 50.011719 43.441406 49.941406 43.292969 Z M 47.242188 33.003906 C 47.742188 32.90625 47.945312 32.835938 48.257812 32.652344 C 48.753906 32.355469 49.179688 31.96875 49.539062 31.5 C 50.160156 30.675781 50.367188 29.886719 50.320312 28.511719 C 50.292969 27.5 50.199219 27.152344 49.847656 26.726562 C 49.445312 26.230469 48.558594 25.6875 47.800781 25.472656 C 46.359375 25.054688 43.195312 25.917969 42.929688 26.796875 C 42.910156 26.863281 42.917969 26.921875 42.945312 26.921875 C 42.980469 26.921875 43.238281 26.832031 43.527344 26.71875 C 44.191406 26.460938 45.222656 26.195312 45.847656 26.113281 C 47.300781 25.933594 48.417969 26.199219 49.117188 26.898438 C 49.648438 27.4375 49.808594 28.042969 49.703125 29.089844 C 49.601562 30.136719 49.351562 30.730469 48.753906 31.367188 C 48.316406 31.828125 47.863281 32.140625 46.878906 32.667969 C 46.488281 32.882812 46.136719 33.078125 46.101562 33.113281 C 46.023438 33.195312 46.398438 33.160156 47.242188 33.003906 Z M 44.957031 32.007812 C 45.597656 31.691406 46.003906 31.007812 46.058594 30.148438 C 46.125 29.140625 45.695312 28.351562 44.90625 27.992188 C 44.589844 27.847656 44.507812 27.835938 44.082031 27.859375 C 43.269531 27.910156 42.738281 28.234375 42.425781 28.875 C 42.242188 29.253906 42.234375 29.28125 42.234375 30.015625 C 42.234375 30.683594 42.253906 30.796875 42.375 31.050781 C 42.53125 31.375 42.933594 31.835938 43.222656 32.015625 C 43.660156 32.285156 44.394531 32.28125 44.957031 32.007812 Z M 71.585938 28.246094 C 71.945312 28.183594 72.3125 27.992188 72.3125 27.875 C 72.3125 27.765625 71.972656 27.71875 71.632812 27.789062 C 71.148438 27.882812 70.90625 28.054688 71.046875 28.222656 C 71.132812 28.328125 71.160156 28.328125 71.585938 28.246094 Z M 71.585938 28.246094 "
    />
    <path
      d="M 52.105469 41.941406 C 52.207031 41.59375 52.636719 40.789062 52.992188 40.257812 C 54.457031 38.054688 56.867188 36.464844 59.796875 35.753906 C 60.324219 35.628906 60.449219 35.621094 62.566406 35.621094 C 65.050781 35.621094 66.144531 35.679688 69.976562 35.992188 C 70.359375 36.027344 71.996094 36.152344 73.613281 36.28125 C 75.230469 36.414062 76.875 36.539062 77.273438 36.574219 C 77.671875 36.609375 78.371094 36.65625 78.832031 36.691406 C 80.734375 36.820312 82.425781 36.945312 84.367188 37.097656 C 87.230469 37.328125 87.484375 37.375 87.484375 37.714844 C 87.484375 37.941406 87.285156 38.257812 86.90625 38.640625 C 86.410156 39.148438 86.363281 39.152344 84.863281 39.0625 C 83.460938 38.972656 82.890625 39.007812 82.1875 39.210938 C 81.621094 39.378906 81.390625 39.488281 80.746094 39.90625 C 80.488281 40.078125 80.140625 40.28125 79.984375 40.363281 C 79.703125 40.507812 79.695312 40.507812 79.453125 40.40625 C 79.316406 40.355469 79.152344 40.28125 79.089844 40.246094 C 77.804688 39.488281 76.632812 38.960938 75.203125 38.484375 C 73.753906 37.996094 73.402344 37.945312 71.5625 37.941406 C 70.242188 37.933594 69.964844 37.953125 69.550781 38.042969 C 68.933594 38.1875 67.730469 38.777344 66.847656 39.375 C 66.488281 39.609375 66.121094 39.816406 66.027344 39.839844 C 65.800781 39.894531 65.316406 39.761719 64.308594 39.375 C 62.988281 38.863281 62.394531 38.667969 61.988281 38.597656 C 61.78125 38.5625 60.628906 38.523438 59.421875 38.5 L 57.230469 38.464844 L 56.195312 38.992188 C 54.566406 39.8125 54.25 40.042969 52.976562 41.328125 C 52.261719 42.042969 52.011719 42.21875 52.105469 41.941406 Z M 90.769531 36.574219 C 90.597656 36.546875 89.675781 36.472656 88.722656 36.402344 C 87.109375 36.285156 86.484375 36.246094 83.1875 36.027344 C 79.828125 35.808594 79.125 35.753906 78.046875 35.652344 C 76.90625 35.539062 76.695312 35.507812 76.695312 35.417969 C 76.695312 35.394531 76.800781 35.140625 76.929688 34.851562 C 77.273438 34.074219 77.390625 33.558594 77.390625 32.789062 C 77.390625 31.425781 76.96875 30.113281 76.0625 28.652344 C 75.3125 27.4375 73.6875 25.773438 72.054688 24.542969 C 70.902344 23.675781 69.078125 22.53125 67.917969 21.945312 C 67.164062 21.570312 66.539062 21.199219 66.28125 20.992188 C 66.074219 20.824219 66.039062 20.761719 66.003906 20.507812 C 65.957031 20.171875 65.679688 19.339844 65.46875 18.917969 C 65.25 18.484375 64.832031 17.851562 64.546875 17.53125 C 64.070312 16.988281 63.796875 16.230469 64.042969 16.128906 C 64.417969 15.988281 69.46875 18.222656 71.59375 19.464844 C 73.800781 20.773438 75.464844 22.042969 76.992188 23.609375 C 78.976562 25.640625 80.117188 27.617188 80.636719 29.929688 C 80.75 30.417969 80.761719 30.640625 80.757812 31.996094 C 80.75 33.207031 80.769531 33.511719 80.828125 33.511719 C 80.964844 33.511719 81.207031 33.109375 81.378906 32.597656 C 81.601562 31.945312 81.664062 31.851562 81.957031 31.773438 C 82.257812 31.691406 82.5625 31.71875 84.222656 31.984375 C 87.835938 32.558594 89.074219 32.75 91.316406 33.078125 C 93.566406 33.414062 94.148438 33.539062 94.269531 33.726562 C 94.601562 34.230469 93.386719 35.90625 92.339844 36.414062 C 91.914062 36.617188 91.375 36.675781 90.769531 36.574219 Z M 90.769531 36.574219 "
    />
    <path
      d="M 92.730469 32.605469 C 90.867188 32.402344 81.796875 30.953125 81.675781 30.828125 C 81.640625 30.796875 81.46875 30.285156 81.289062 29.695312 C 80.863281 28.253906 80.730469 27.886719 80.300781 27.007812 C 79.742188 25.863281 78.910156 24.640625 78.152344 23.847656 C 77.84375 23.53125 77.851562 23.398438 78.167969 23.398438 C 78.519531 23.398438 81.972656 24.171875 84.859375 24.894531 C 85.238281 24.992188 86.679688 25.34375 88.058594 25.679688 C 91.472656 26.511719 91.691406 26.582031 92.285156 27.03125 C 92.824219 27.4375 93.585938 28.644531 93.917969 29.632812 C 94.292969 30.753906 94.546875 32.253906 94.410156 32.519531 C 94.347656 32.640625 94.304688 32.644531 93.636719 32.632812 C 93.25 32.632812 92.839844 32.617188 92.730469 32.605469 Z M 25.09375 27.246094 C 24.71875 26.910156 24.617188 26.59375 24.574219 25.707031 C 24.507812 24.230469 24.96875 21.941406 25.71875 20.039062 C 25.875 19.632812 26.261719 18.777344 26.578125 18.148438 L 27.140625 16.992188 L 27.511719 16.957031 C 27.714844 16.941406 28.539062 16.898438 29.34375 16.863281 C 30.683594 16.808594 31.480469 16.730469 31.605469 16.65625 C 31.800781 16.535156 31.359375 16.21875 30.734375 16.042969 C 30.527344 15.988281 30.09375 15.921875 29.777344 15.90625 C 28.953125 15.851562 28.421875 15.714844 28.421875 15.546875 C 28.421875 15.453125 28.695312 15.101562 29.113281 14.644531 L 29.375 14.367188 L 31.976562 14.410156 C 34.449219 14.449219 35.523438 14.425781 35.691406 14.320312 C 35.890625 14.195312 35.246094 13.707031 34.519531 13.441406 C 34.113281 13.296875 33.917969 13.265625 33.152344 13.21875 C 32.355469 13.171875 30.84375 13.007812 30.800781 12.964844 C 30.792969 12.957031 31.0625 12.738281 31.410156 12.484375 C 32.414062 11.726562 33.730469 11.152344 35.339844 10.761719 C 36.152344 10.566406 36.152344 10.566406 36 10.292969 C 35.84375 10.015625 35.886719 9.90625 36.230469 9.617188 C 36.589844 9.320312 36.605469 9.21875 36.359375 8.726562 C 36.117188 8.246094 36.097656 8.054688 36.273438 7.957031 C 36.421875 7.882812 36.808594 7.921875 36.941406 8.03125 C 36.992188 8.074219 37.085938 8.222656 37.15625 8.367188 C 37.253906 8.59375 37.269531 8.71875 37.253906 9.265625 C 37.242188 9.617188 37.230469 10.019531 37.222656 10.171875 C 37.210938 10.699219 37.425781 10.835938 38.832031 11.183594 C 40.484375 11.585938 41.007812 11.597656 41.503906 11.242188 C 41.855469 10.988281 42.351562 10.699219 43.589844 10.042969 C 44.144531 9.75 44.605469 9.507812 44.613281 9.5 C 44.625 9.496094 44.773438 8.773438 44.945312 7.898438 C 45.125 7.027344 45.292969 6.292969 45.320312 6.265625 C 45.351562 6.234375 45.398438 6.308594 45.429688 6.4375 C 45.523438 6.777344 45.667969 7.980469 45.667969 8.386719 C 45.667969 9.097656 45.792969 9.28125 46.476562 9.582031 C 47.015625 9.824219 47.523438 10.140625 47.941406 10.488281 C 48.878906 11.285156 49.15625 11.414062 49.289062 11.121094 C 49.542969 10.554688 49.796875 8.097656 49.9375 4.871094 C 50.101562 0.875 50.183594 -0.0546875 50.355469 0.00390625 C 50.542969 0.0625 50.605469 1.121094 50.742188 6.835938 C 50.8125 9.566406 50.90625 11.664062 50.972656 11.953125 C 50.996094 12.0625 51.089844 12.410156 51.171875 12.726562 C 51.332031 13.339844 51.359375 13.738281 51.25 13.847656 C 51.160156 13.941406 50.949219 13.933594 50.441406 13.832031 C 49.929688 13.71875 49.816406 13.609375 49.683594 13.121094 C 49.628906 12.917969 49.492188 12.605469 49.371094 12.425781 L 49.15625 12.097656 L 49.121094 12.535156 C 49.085938 12.957031 49.007812 13.207031 48.875 13.292969 C 48.757812 13.375 48.355469 13.339844 47.976562 13.21875 C 46.761719 12.84375 42.761719 11.953125 42.253906 11.953125 C 41.992188 11.953125 42.0625 12.085938 42.523438 12.507812 C 43.476562 13.355469 44.285156 15.019531 44.382812 16.328125 C 44.433594 17.074219 44.339844 17.148438 43.015625 17.378906 C 42.652344 17.441406 42.082031 17.574219 41.746094 17.675781 C 40.925781 17.917969 39.203125 18.519531 38.769531 18.714844 C 37.210938 19.414062 34.378906 21.449219 30.953125 24.332031 C 29.113281 25.875 28.242188 26.523438 27.453125 26.917969 C 26.800781 27.246094 26.015625 27.5 25.664062 27.5 C 25.40625 27.5 25.347656 27.476562 25.09375 27.246094 Z M 28.976562 24.199219 C 29.59375 23.882812 29.921875 23.628906 30.191406 23.269531 C 30.671875 22.644531 30.878906 21.785156 30.832031 20.632812 C 30.804688 19.894531 30.769531 19.8125 30.222656 19.253906 C 29.707031 18.726562 29.546875 18.644531 28.953125 18.609375 C 28.101562 18.5625 27.246094 18.835938 26.761719 19.308594 C 26.121094 19.933594 25.664062 21.488281 25.828125 22.5 C 25.976562 23.425781 26.546875 24.039062 27.527344 24.328125 C 28.121094 24.5 28.445312 24.472656 28.976562 24.199219 Z M 28.976562 24.199219 "
    />
    <path
      d="M 28.046875 23.511719 C 28.15625 23.285156 28.261719 23.03125 28.273438 22.945312 C 28.289062 22.859375 28.324219 22.628906 28.359375 22.429688 C 28.40625 22.171875 28.40625 21.957031 28.363281 21.679688 C 28.230469 20.871094 27.910156 20.4375 27.195312 20.136719 L 26.800781 19.96875 L 27.164062 19.738281 C 27.605469 19.453125 28.394531 19.175781 28.746094 19.175781 C 29.089844 19.175781 29.367188 19.328125 29.753906 19.730469 C 30.183594 20.183594 30.292969 20.484375 30.257812 21.066406 C 30.175781 22.375 29.136719 23.703125 28.058594 23.886719 L 27.839844 23.921875 Z M 90.195312 25.476562 C 89.714844 25.375 85.289062 24.285156 84.65625 24.121094 C 84.484375 24.074219 83.925781 23.945312 83.417969 23.832031 C 81.832031 23.472656 78.183594 22.546875 77.527344 22.332031 C 76.664062 22.050781 76.289062 21.839844 75.285156 21.109375 C 73.601562 19.863281 72.644531 19.269531 70.132812 17.898438 C 69.257812 17.417969 68.460938 16.96875 68.363281 16.898438 L 68.191406 16.777344 L 68.363281 16.761719 C 68.628906 16.738281 70.265625 17.074219 74.015625 17.933594 C 74.648438 18.078125 75.75 18.328125 76.464844 18.484375 C 78.894531 19.027344 79.320312 19.128906 80.300781 19.449219 C 81.761719 19.921875 83.691406 20.71875 85.578125 21.621094 C 86.503906 22.0625 87.417969 22.4375 87.464844 22.390625 C 87.527344 22.328125 87.308594 22.140625 86.746094 21.761719 C 84.453125 20.234375 81.710938 19.03125 78.945312 18.339844 C 77.765625 18.042969 77.414062 17.921875 77.28125 17.753906 C 77.089844 17.519531 77.222656 17.328125 77.875 16.871094 C 78.992188 16.097656 80.152344 15.765625 81.730469 15.765625 C 83.203125 15.765625 84.75 16.175781 86.207031 16.953125 C 88.1875 18.007812 89.863281 19.761719 90.402344 21.320312 C 90.609375 21.933594 90.695312 22.542969 90.742188 23.628906 C 90.789062 24.714844 90.84375 25.050781 91.011719 25.230469 C 91.074219 25.292969 91.117188 25.398438 91.105469 25.460938 C 91.074219 25.605469 90.800781 25.609375 90.195312 25.476562 Z M 64.152344 20.523438 C 63.582031 20.441406 61.898438 20.085938 61.597656 19.980469 C 61.054688 19.796875 60.941406 19.652344 60.761719 18.90625 C 60.652344 18.464844 60.511719 18.097656 60.289062 17.65625 C 60.117188 17.316406 59.972656 17.019531 59.972656 17.007812 C 59.972656 16.921875 60.867188 17.109375 62.277344 17.484375 C 64.082031 17.957031 64.914062 18.652344 65.105469 19.835938 C 65.152344 20.136719 65.152344 20.257812 65.09375 20.378906 C 65.023438 20.523438 64.988281 20.535156 64.671875 20.542969 C 64.480469 20.546875 64.25 20.535156 64.152344 20.523438 Z M 59.25 19.460938 C 57.296875 19.097656 48.492188 17.351562 48.464844 17.316406 C 48.453125 17.304688 48.417969 17.050781 48.382812 16.742188 C 48.285156 15.871094 48.066406 15.121094 47.714844 14.425781 C 47.535156 14.066406 47.433594 13.800781 47.472656 13.800781 C 47.738281 13.800781 48.804688 14.03125 50.136719 14.375 C 51.949219 14.835938 55.132812 15.65625 56.539062 16.019531 C 57.492188 16.269531 58.375 16.585938 58.738281 16.8125 C 59.203125 17.097656 59.820312 17.929688 60.023438 18.53125 C 60.167969 18.953125 60.179688 19.222656 60.050781 19.398438 C 59.953125 19.535156 59.761719 19.554688 59.25 19.460938 Z M 46.386719 17.148438 C 45.320312 16.976562 45.304688 16.964844 45.097656 16.273438 C 44.589844 14.585938 44.179688 13.582031 43.789062 13.066406 C 43.710938 12.96875 43.644531 12.824219 43.636719 12.75 C 43.621094 12.628906 43.636719 12.617188 43.878906 12.628906 C 44.40625 12.644531 46.144531 13.488281 46.613281 13.945312 C 47.070312 14.390625 47.664062 15.785156 47.726562 16.5625 C 47.753906 16.910156 47.742188 16.964844 47.628906 17.066406 C 47.484375 17.199219 46.9375 17.234375 46.386719 17.148438 Z M 46.386719 17.148438 "
    />
    <path
      d="M 74.101562 17.171875 C 73.703125 17.101562 68.0625 15.894531 66.835938 15.609375 C 64.589844 15.101562 63.957031 14.859375 64.113281 14.570312 C 64.148438 14.507812 64.367188 14.355469 64.597656 14.234375 C 65.152344 13.945312 65.480469 13.675781 65.710938 13.316406 C 66.050781 12.785156 66.730469 12.210938 67.441406 11.847656 C 67.871094 11.632812 67.964844 11.53125 68.039062 11.1875 C 68.136719 10.765625 68.269531 8.195312 68.304688 6.027344 C 68.351562 3.617188 68.425781 2.777344 68.597656 2.945312 C 68.726562 3.078125 68.886719 5.375 69.027344 9.207031 C 69.0625 10.097656 69.101562 11.066406 69.117188 11.363281 L 69.152344 11.898438 L 69.597656 12.210938 C 70.132812 12.585938 70.78125 13.253906 71.320312 13.988281 C 71.9375 14.824219 72.273438 15.160156 72.804688 15.472656 C 73.6875 15.992188 74.835938 16.945312 74.777344 17.113281 C 74.753906 17.183594 74.367188 17.21875 74.101562 17.171875 Z M 61.355469 16.554688 C 60.800781 16.414062 59.476562 16.089844 58.414062 15.824219 C 56.214844 15.285156 53.980469 14.707031 52.964844 14.414062 C 52.171875 14.183594 52.039062 14.078125 51.984375 13.644531 C 51.925781 13.230469 51.851562 13.015625 51.632812 12.691406 C 51.382812 12.320312 51.390625 12.160156 51.65625 12.136719 C 51.925781 12.109375 52.980469 12.339844 55.214844 12.90625 C 58.375 13.707031 59.285156 13.886719 59.492188 13.753906 C 59.660156 13.644531 59.742188 13.285156 60.027344 11.253906 C 60.359375 8.96875 60.53125 8.320312 60.742188 8.617188 C 60.84375 8.75 60.871094 9.054688 61.007812 11.546875 C 61.074219 12.707031 61.152344 13.796875 61.183594 13.96875 C 61.25 14.332031 61.34375 14.460938 61.679688 14.605469 C 62.152344 14.820312 63.003906 15.835938 63.148438 16.355469 C 63.292969 16.898438 62.917969 16.941406 61.355469 16.554688 Z M 61.355469 16.554688 "
    />
  </g>
</svg>
