<svg xmlns="http://www.w3.org/2000/svg" id="root" viewBox="0 0 38120 17240">
  <g fill="#EEEEBF">
    <path
      d="M24030 17233c-14-2-72-15-129-29-319-78-515-236-717-576-176-298-276-531-404-945-35-111-64-161-168-285-80-97-119-153-156-225-14-29-33-53-40-53-8 0-58 30-113 66-218 147-366 192-595 182-125-6-180-22-278-82l-56-35-135 15c-74 8-188 21-253 30l-119 15-51 46c-99 88-184 134-315 168-84 21-282 34-373 23-233-28-485-228-609-482-22-44-39-86-39-93 0-20-9-16-64 25-112 85-227 132-366 153-116 17-537 7-640-15-144-31-270-85-389-165-82-56-132-79-205-96-79-18-209-64-301-105-37-17-69-29-70-28-1 2-21 32-45 68-203 304-474 503-786 576-97 23-420 26-554 6-288-44-571-150-965-362-307-165-407-213-416-198-5 7-25 41-45 75-151 255-414 518-661 659-187 106-321 134-652 134-558 0-768-52-1036-254-82-62-152-104-275-163-91-44-284-148-429-232-146-83-270-150-276-147-7 2-34 39-60 83-300 485-554 747-880 907-140 69-267 114-410 143-78 16-142 18-485 18-374 0-401-1-510-23-283-57-458-139-826-384-137-92-296-192-354-224-249-136-594-401-705-542-76-96-222-407-285-607l-22-70-167-88c-91-48-209-110-262-138l-96-51-84 59c-518 362-958 515-1369 474-259-26-470-102-640-230-135-102-284-282-364-438-25-50-29-53-64-53-57 1-104 27-264 148-170 128-247 173-367 216l-86 31-298 3c-468 6-526-13-887-287-215-163-310-201-545-220-106-8-110-9-135-40-15-17-33-31-41-31-23 0-206-64-279-97-87-40-160-100-212-173-34-49-47-60-63-55-11 3-81 8-155 12-140 6-218-4-342-43l-48-16v-418h83c91 0 342-26 360-37 16-10 427-11 427-1 0 4 299 8 665 8s665-4 665-8c0-49-107-270-195-403-167-252-434-524-741-757-158-119-420-282-453-282-9 0-60-14-111-30-59-19-145-36-226-45-138-16-203-12-352 20-40 8-84 15-98 15H0v-240c0-153 4-240 10-240s10 7 10 16c0 11 5 14 17 9 59-22 134-27 347-23 266 6 319 15 556 98 80 28 150 52 155 53 10 2 43-33 335-356 73-82 209-221 300-310 92-89 181-182 197-207 126-187 274-536 318-748 8-41 15-125 15-191v-117l103-69c63-43 152-117 232-195 248-241 307-273 605-339 590-130 756-133 1001-19l90 41 67-23c58-21 90-24 249-28 199-4 250 4 346 56 28 15 51 22 56 16 4-5 29-58 56-119 67-155 168-351 209-410 68-95 156-174 242-216 44-22 98-43 121-46l40-5 6-77c3-42 14-223 23-404l18-327h726v313c0 173 3 381 6 464l7 149 100 54c54 30 105 59 112 65 10 7 18 102 31 384l18 374 103-7c157-10 202-21 243-59 109-103 229-133 585-148 132-5 274-14 315-19 204-24 517-6 761 46 155 32 992 271 1236 353 805 269 1129 514 1339 1015 26 61 48 113 50 115 9 10 109-40 174-89 274-206 523-347 910-515 268-116 303-137 416-250 55-55 172-188 260-295 386-473 597-689 959-980 292-235 426-392 485-568l20-63-46-65c-98-137-129-258-122-473 7-193 48-336 124-438l24-31-44-71c-24-40-57-111-72-159-26-78-29-100-28-212 1-108 4-137 28-210 77-236 214-418 376-500 108-55 157-63 340-58l167 4 32-62c88-169 256-384 397-508 214-188 454-315 726-386 181-47 308-61 628-70 162-5 336-14 385-20 144-19 332-8 435 25 86 28 239 98 428 199 123 64 161 72 407 85 99 6 213 18 253 27s75 15 77 12c2-2 22-62 44-134 164-534 403-893 703-1058 64-35 194-86 221-86 16 0 12 66 58-862l33-658 111 1c213 1 574 15 580 21 6 5 94 1562 95 1665 0 29 5 35 53 55 269 115 381 253 441 544 33 156 122 849 146 1124 6 69 13 149 16 179l6 54 226-6c289-7 475-29 1197-141 566-88 888-123 1068-113 112 5 164 20 247 71l55 34 180 5c200 6 247 15 485 92 216 71 590 230 858 364 167 84 578 308 710 388 363 218 743 503 1100 826 189 171 487 478 573 592 87 115 234 336 334 505 38 63 73 121 80 128 9 10 26-3 82-65 209-231 551-313 1633-393 228-17 485-37 570-45 404-40 626-101 684-190l20-30 53 52c62 61 161 111 278 141 114 29 191 39 440 57 121 8 282 22 357 30 176 19 390 20 451 1l47-14 10 42c19 73 51 160 78 206 76 133 270 269 447 315 195 50 341-29 457-248 29-56 76-132 104-169l51-69 6-152c11-273 41-353 197-527 144-161 226-269 256-335 15-31 38-114 51-184 29-145 53-202 97-235 53-40 91-46 270-46 205-1 506-15 619-30 183-24 350-82 435-149 66-53 81-92 92-237 16-203 41-261 121-284 19-6 149-10 290-10s269-4 285-9 41-12 57-15c15-4 27-13 27-21 0-12 14-15 60-15 47 0 60 3 60 15 0 19 24 19 97 0 31-8 94-15 139-15s109-6 141-14 95-18 141-21c69-6 82-10 82-25 0-22 28-30 80-23l40 6v8693l-53 17c-66 21-67 21-67 1 0-18 12-21-170 38-168 54-257 70-358 61-61-5-72-4-72 10 0 17-49 37-91 37-19 0-29-5-29-15 0-11-7-14-22-10-61 14-1385 217-1468 225-221 22-325 7-430-60-110-70-204-213-245-372l-18-67-49-12c-63-15-153-62-195-102l-32-30-238 32c-131 17-249 31-263 31h-26l7 78c9 103-7 425-26 534-80 458-368 779-892 992-395 161-739 254-1173 316-236 34-285 47-470 123-150 61-199 75-513 147-340 78-461 96-732 110-99 5-197 14-218 20s-71 36-110 67c-78 60-153 101-232 126-46 15-230 54-820 172-267 54-517 90-725 106l-155 12-46 41c-57 51-143 98-229 124-88 28-115 31-324 46l-181 13-165 65c-211 84-246 94-600 172-453 100-694 137-988 152l-133 7-87 65c-48 36-110 80-139 98l-52 34-618-1c-340-1-629-4-643-6zm985-423c8-13-1-15-102-28-239-32-434-149-558-334-46-70-57-76-19-10 75 130 165 229 288 316l67 49 127 7c70 4 141 8 159 8 17 1 35-3 38-8zm-697-72c-120-184-294-514-375-712-127-309-215-641-258-978-53-415-43-1263 20-1688 80-546 240-948 595-1497 38-59 68-108 66-110-1-2-49 2-105 7-228 24-411 94-526 202-135 126-189 232-324 630-157 467-152 457-321 633-113 118-151 167-194 253-32 63-66 189-66 243 0 20 23 110 51 200 45 146 52 177 56 281 6 135-2 193-56 383-38 134-38 138-26 203 24 122 68 195 212 347 58 60 113 126 123 145 18 35 46 125 150 480 83 287 143 428 247 590 64 98 184 220 266 268 126 76 325 139 441 141 37 1 38 1 24-21zm1040-158c988-43 2022-356 2419-733 41-39 79-79 84-88 7-15-10-45-88-153l-97-134-47 18c-25 10-137 62-249 115-111 53-234 109-273 124-155 62-390 118-1032 246-366 73-792 111-1377 122l-336 6 55 86c147 227 291 372 390 391 56 11 297 11 551 0zm3077-706c689-67 1382-255 1675-454 67-45 141-123 159-167 12-30 11-36-23-92-20-33-43-77-50-98-12-33-17-38-42-35-47 6-208 60-424 144-480 187-732 255-1020 273l-105 7-40 70c-22 39-66 99-98 134-51 56-75 72-190 128-73 35-143 76-156 90l-25 26 95-6c52-3 162-12 244-20zm-3515-24c988-40 1482-151 2210-495 191-91 430-213 430-221 0-13-81-622-86-642l-5-23-642 6c-353 3-1082 7-1619 10l-978 6v-71h-132c-73 0-139 4-147 9-13 8 5 115 113 698 70 378 130 698 133 711l5 22h237c130 0 346-5 481-10zm3396-275c13-8 28-24 33-34 10-18 6-19-67-22-63-3-90-10-138-34-53-28-59-34-62-65-2-29 9-53 58-130 159-246 208-410 225-745 7-152-8-430-31-565-30-177-93-336-198-504-40-63-56-98-56-123 0-71 55-134 126-143l45-5-50-37-50-38-39 46c-111 130-185 319-231 594-20 118-46 390-40 408 2 5 31-21 64-59 51-58 65-68 93-69 60 0 158 64 189 124 24 47 30 203 9 247-21 43-75 79-121 79-33 0-35-2-35-35 0-19-4-35-10-35-5 0-7 21-3 50l6 50h-43c-46 0-121-36-140-68-11-18-10-3 10 213 39 402 143 744 266 870 62 64 123 74 190 30zm-18526-21c180-31 344-98 514-211 125-82 321-274 396-387 46-69 130-231 130-251 0-3-23 6-52 22-34 18-111 89-227 207-97 98-208 204-247 235-87 70-225 143-324 170-161 45-518 54-640 16-153-48-292-145-438-309-192-215-332-526-332-737v-59h40c37 0 42 4 80 60 22 33 70 115 106 182 81 149 113 195 196 274 170 164 408 265 583 249 87-8 229-55 315-103l65-37-91-7c-197-15-363-104-549-292-144-146-244-305-307-489-30-87-32-101-36-272-6-249 20-382 99-524 78-139 161-221 415-412 229-173 304-256 339-378l7-24-138 6c-142 5-209 18-316 61-170 69-291 181-506 469-155 207-155 207-194 207-36 0-38-1-38-33 0-62 40-190 90-291 138-276 414-561 668-690 167-84 359-116 513-85 30 6 60 11 68 12 9 1 28-30 51-83l37-85-91-18c-75-15-132-17-326-14-262 3-280 7-408 85-391 237-845 976-927 1512-18 113-20 460-4 630 61 674 411 1202 903 1360 154 50 399 64 576 34zm20943-164c366-56 758-176 1027-316 117-61 267-168 300-214l21-29-41-81c-22-44-45-80-50-80-10 0-146 54-400 158-179 74-300 112-455 146-236 52-278 71-290 129-18 81-72 127-227 192-91 39-154 79-170 108-10 19-8 20 73 13 46-4 142-16 212-26zm-22182-142c-225-304-324-503-380-763-35-158-44-328-38-722 4-322 8-381 26-467 31-150 65-246 142-401 83-167 189-321 387-561 81-99 160-196 176-217l29-38-26 10c-174 66-322 196-478 417-46 66-105 140-131 165-52 52-74 61-373 154-245 76-368 138-461 229-53 53-80 90-107 146-43 93-65 179-48 190 7 4 97 10 199 13 268 9 414 35 473 85 28 23 29 28 29 107 0 159-63 283-152 300-21 4-165-2-320-14-156-12-287-21-292-21-22 0 67 284 133 424 74 159 188 299 280 345 20 10 126 51 236 91 215 77 349 136 378 164 19 20 23 81 5 92-6 4-50 10-97 13l-86 6 280 173c153 94 280 172 282 172s-28-42-66-92zm20844-253c363-136 664-251 668-255 5-5-7-113-27-241-20-129-36-237-36-241 0-5-31-8-69-8-151 0-290-33-361-85l-34-25h-786v282c0 268-2 294-35 536-20 139-33 263-29 274 4 14 12 19 27 16 12-3 319-116 682-253zm-19563 189c154-31 322-118 451-232 69-61 209-213 202-220-9-9-147 73-215 128-207 166-258 203-325 235-86 40-185 68-315 86-90 13-93 14-50 20 57 8 165 1 252-17zm3683 11c176-31 332-118 485-274 56-55 124-138 163-196 64-98 164-291 154-301-6-7-64 65-186 228-171 229-268 313-425 365-79 26-88 27-321 28h-240l-65-35c-79-42-266-225-355-347l-60-83h-67c-38 0-68 4-68 9 0 25 68 156 125 241 66 99 176 216 257 274 58 41 154 84 210 95 73 15 299 12 393-4zm17144-119c9-10-2-19-54-41-36-15-68-25-71-22-3 2 10 21 29 41 36 38 75 47 96 22zm-18129-96c-134-162-204-306-225-462-7-56 2-54-185-34-97 10-109 13-80 20 56 13 130 58 146 88 8 15 14 52 14 83 0 51-2 56-27 66-16 6-54 9-86 6s-56-3-53 0c4 5 534 289 544 292 1 1-20-26-48-59zm7951 18c62-29 117-80 165-154l33-51 242-6c133-4 368-7 521-7h278v60h238l59-44c33-24 87-77 122-118 70-86 43-76 298-104l163-18 15-54c25-85 28-139 15-271-12-127-45-262-80-332-24-46-45-49-139-20-83 26-133 57-243 151-151 131-253 170-479 185-96 6-112 5-180-18-41-14-111-46-157-72-147-83-370-260-401-319l-14-26-161 5c-89 3-235 8-325 11l-163 6 282 160 283 161-5 101c-10 181-34 206-202 206-98 0-114-3-239-45-88-29-158-46-207-50-139-11-132-7-206-101-161-203-377-316-662-346l-114-13 4-47 5-48h-240l24 26c74 81 515 463 654 568 105 79 187 157 217 204 11 19 42 91 67 161 55 149 89 211 136 247 50 37 83 44 221 40 104-2 128-6 175-28zm11944-13c355-77 547-135 721-220 123-60 244-149 288-214l29-42-23-49c-13-28-25-50-26-50-2 0-70 24-151 54-470 172-621 229-656 249-38 21-67 61-67 90 0 33-48 71-164 127-66 33-132 69-146 80l-25 22 25-6c14-3 102-21 195-41zm-15955-79c199-36 397-173 524-364 43-64 101-180 94-187-2-2-37 44-78 101-161 227-277 309-472 334-239 30-369-5-507-135-108-103-189-242-206-357l-7-48h-69c-38 0-69 2-69 5 0 14 52 140 85 205 122 243 289 413 442 449 57 13 179 12 263-3zm14065-126c83-197 115-374 115-631s-24-388-131-706c-38-113-69-213-69-221 0-46-16 24-65 279-30 156-57 294-60 307-5 22-5 22 24 7 17-8 50-15 74-15 39 0 51 6 95 45 67 60 84 106 80 214-3 82-4 85-33 101-16 9-39 33-50 54l-20 38-72-5c-40-2-73-1-73 2 0 32 35 277 51 356 25 127 69 285 79 285 5 0 29-50 55-110zm-14923-242-149-273-71 3c-39 2-84 7-99 11-25 7-22 8 25 15 51 7 52 7 52 42 0 20-15 64-35 104-33 66-37 70-69 70-19 0-68-7-111-16-42-9-79-14-81-11-8 7 186 81 303 116 137 40 196 71 295 152 46 37 85 66 86 64 2-2-63-127-146-277zm15837 41c256-111 467-202 467-203 1 0-7-64-17-141s-18-161-19-186v-46l-112-6c-62-4-260-7-441-7h-327l6 138c5 103 1 195-15 367-12 127-23 242-26 258s0 27 6 27 221-91 478-201zm-18049 110c66-15 204-81 188-90-7-4-56-19-108-34-127-35-165-59-300-189-76-74-129-117-157-128l-43-16v59c0 71-15 104-78 171l-45 48 24 26c29 31 144 109 185 125 96 38 238 50 334 28zm-3501-146c-182-186-268-308-330-467-69-179-75-314-23-513 103-390 163-627 160-630-10-10-188 137-286 236-120 122-174 200-223 323-94 234-72 518 54 705 34 50 336 362 402 415 60 48 98 57 242 58h129l-125-127zm9073 106c77-16 167-62 218-112 47-44 116-127 107-127-3 0-36 25-74 56-37 31-93 69-123 83-51 24-64 26-200 26-139 0-148-1-208-29-109-51-209-185-220-297l-5-49h36c19 0 64 13 99 30 56 26 74 30 153 30 99 0 152-17 193-62l23-25-43-6c-24-3-110-25-193-47-135-38-165-42-297-47-82-3-148-3-148 1 0 13 68 183 95 237 44 87 130 210 182 261 80 77 110 88 240 88 62 0 136-5 165-11zm-645-76c-2-5-53-120-113-256l-109-249-58 4c-35 3-64 11-73 20-15 15-14 21 15 77 17 34 31 75 31 91 0 36 11 35-245 16-99-8-181-13-183-12-1 2 34 20 79 40 45 21 157 57 254 81 193 49 246 72 331 144 54 46 82 63 71 44zm-1557-110c51-47 107-132 124-189 6-18-1-24-50-42-31-11-52-16-45-9 17 17 14 133-5 170-29 56-65 96-115 129-27 17-49 33-49 35 0 12 92-49 140-94zm-6340 74c0-31-66-142-116-196-37-40-73-67-116-87-57-26-76-29-191-32l-128-4 26 53c62 122 171 225 283 265 52 18 242 19 242 1zm518-32c32-10 77-36 119-70 49-39 79-56 108-60 108-14 1057-76 1105-73 35 3 90 20 151 46 53 23 115 45 137 50 47 11 60 5 130-62 69-65 361-422 351-430-7-5-3342-87-3346-82-8 8 16 71 47 119 44 70 71 80 243 87l149 6 165 84c90 47 182 100 204 119 25 21 55 63 81 115 53 106 71 130 110 149 43 21 177 22 246 2zm21371-240c17-121 31-252 31-291v-72l-76 79-77 78 7 55c3 30 17 101 31 157 13 56 28 136 31 178 10 103 17 79 53-184zm-15908 179c59-23 120-64 113-76-3-5-51-31-107-59l-101-51-156 36c-214 51-206 46-140 88 132 84 277 107 391 62zm-2689-50c5-3-22-38-59-77-83-88-133-180-171-318l-29-104-56-3c-41-2-67 2-95 17-41 21-162 145-162 166 0 16 149 159 220 211 129 95 206 127 289 119 29-3 58-8 63-11zm19052-20c187-54 455-176 524-239l38-34-17-123c-10-68-18-131-18-140-1-17-23-18-316-18h-315v290c0 160 4 290 8 290s48-12 96-26zm-18618-99c27-14 65-40 83-59l32-33-67-43c-150-95-286-140-420-140-52 0-94 3-94 7 0 20 77 140 122 188 72 79 124 104 219 105 61 0 85-5 125-25zm585-31c17-8 70-41 118-73s110-64 137-72c39-11 136-14 476-14h427l36 35c34 33 39 34 110 34 67 0 77-2 112-30 26-21 53-60 85-125 26-52 48-97 48-101 0-5-485-8-1077-8l-1078 1 28 24c15 14 53 32 85 40 144 40 193 74 247 170s104 134 178 135c21 0 52-7 68-16zm5834-42c-27-15-83-49-122-75-85-56-190-87-296-87-90 0-124-17-195-97-49-56-107-101-117-91-2 2 71 68 161 148l164 145 207 41c249 50 263 51 198 16zm-3863-53c-36-36-66-81-101-155-28-57-55-104-59-104-11 0-98 91-111 117-19 38-13 89 14 122 32 38 69 49 186 60 52 4 100 9 108 10 8 0-9-22-37-50zm403-130c125-94 126-87-20-135-63-20-108-27-209-31l-128-6 7 24c24 81 72 134 170 193 33 20 63 36 66 36s55-37 114-81zm8545 11c300-6 834-13 1188-17l642-6 1-26c0-14 8-99 18-188l17-162-25-6c-14-4-170-75-346-160-451-215-627-278-1075-383-604-142-1208-224-1802-245-102-4-118-2-122 12-14 51-199 1142-194 1146 3 4 198-8 432-24 235-17 447-31 471-31h45v90l-117 2c-87 1-105 3-68 8 28 3 127 5 220 3 94-2 415-8 715-13zm-7862-9c20-11 65-42 100-70l63-51h117c64-1 162-5 217-11 55-5 152-12 215-15 113-6 117-6 219 30 57 20 106 35 107 33 2-2-14-21-36-42l-41-40-108 4-109 3-56-37-56-38-312-18c-172-10-330-18-350-19h-38v99l-122 3-123 3 64 63c69 68 152 122 189 122 12 0 39-9 60-19zm3948-8c49-14 126-36 171-47l82-21 92-100 92-100-324-3c-178-2-343 0-367 3-26 4-55 17-75 35-35 31-86 122-71 127 5 2 63 32 129 67 69 37 133 65 151 65 18 1 72-11 120-26zm-16441-142c109-29 192-71 249-127 42-42 86-109 86-132 0-5-35-23-78-39l-77-31-120 59c-222 107-354 138-608 142-149 2-185 8-134 21 12 3 58 26 102 52 145 84 148 85 335 80 125-3 185-9 245-25zm23925-121c471-31 738-56 754-70 5-5 16-58 26-118l16-108-80-28c-45-15-182-76-306-136-256-123-320-151-440-192-248-84-925-230-885-191 6 6 72 56 148 112 153 113 151 110 122 209-18 58-14 85 35 227 32 95 60 232 60 297v39l48-6c26-3 252-19 502-35zm3104-130c-8-63-24-153-35-200-24-95-72-210-88-210-7 0-11 53-11 157v156l72 108c40 59 74 107 75 105 1-1-5-53-13-116zm-16694 69c1004-22 1826-42 1828-44 6-6-46-160-94-277-228-562-792-1327-1544-2092-202-206-292-284-555-481-844-633-1780-1110-2240-1142-155-10-313 44-504 171-372 248-818 773-1060 1246-272 532-554 1454-643 2101l-21 156 123 174c68 96 124 175 125 177 1 1 55 10 121 19 142 20 599 28 1824 31 698 2 1078-4 2640-39zm-5359-161c73-142 98-166 247-231 96-42 111-52 114-75 25-145 221-1078 264-1251 87-356 127-463 300-811 167-335 276-527 360-637 31-40 126-145 212-234s148-157 136-151c-29 15-175 124-249 185-359 296-883 865-1114 1210-216 323-458 808-600 1205-110 307-167 555-196 850l-6 62 173 1c100 1 194 6 223 13 61 15 56 21 136-136zm319 102c0-46-2-50-18-41-26 14-39 32-47 64-7 26-5 27 29 27h36v-50zm11967 34c54-8 99-17 101-19 2-1 7-31 12-66 24-171 97-295 286-490 105-108 135-169 209-429 102-356 266-644 491-860 107-102 214-172 332-214 87-31 88-31 325-34l237-4v-24c0-20 5-24 28-24 15 0 476 66 1024 146l998 147 129-52c71-28 167-61 213-72 46-12 84-22 86-24 4-3-606-1297-617-1308-5-5-58 16-119 47l-110 55 16 60c12 44 13 68 6 88-8 25-15 28-57 31-44 3-61-5-278-128-127-72-232-130-234-128-1 2-15 40-29 86l-28 82h-40c-35 0-71-19-261-140-121-78-223-139-228-138-4 2-46 37-92 78-78 68-86 78-86 113-1 36-2 37-38 37-30 0-88-28-278-136l-240-137-165 38c-254 59-230 48-230 105v50h-42c-32 0-65-13-142-56-218-122-382-242-545-399-317-306-471-604-488-943-5-111-4-124 13-143 47-52 173-88 389-114 187-22 662-38 935-32 251 6 241 4 430 72 67 25 96 28 270 36 200 9 198 9 406 73 45 13 114 28 154 32 87 8 89 13-31-131-403-484-1138-1048-1942-1489-1393-764-2731-1075-3667-852-58 13-199 51-315 84-266 76-420 110-557 125l-108 11v29c0 43-22 77-97 148-142 133-465 331-868 529-384 190-565 247-1051 332-176 31-204 33-409 33-249 0-246 0-560-102l-170-55-73 77c-247 262-788 1099-1012 1568-88 184-92 171 67 212 877 229 1528 574 2463 1309 560 439 804 680 1110 1091 247 331 435 657 767 1325 118 239 216 436 217 437 0 1 100 9 221 19 220 17 221 17 1070-15 671-25 966-31 1403-31 611 0 596-1 648 64 16 20 35 36 42 36s56-7 109-16zm13103-9c0-3-11-28-25-55-18-35-31-50-45-50-29 0-26-51 6-101 25-41 26-44 19-155-7-110-9-118-61-231-30-64-54-130-54-147 0-16 17-58 37-93 37-63 38-64 77-61 34 3 41 7 46 28 4 17 14 26 30 28 24 4 776-23 972-34 59-3 106-10 103-14-8-13-150-65-225-84-113-27-236-45-555-80-170-19-340-40-376-47l-67-12-21-73c-26-90-26-131 0-169 11-16 27-42 35-57l15-28h-81v119c0 66-5 132-10 148-6 15-32 48-59 73l-49 45 21 341 21 341 35 19c45 24 76 83 95 186 18 92 37 133 74 152 29 16 42 19 42 11zm407-59c45-8 157-25 250-36 262-33 387-64 468-115 39-25 39-26 10-21-16 3-241 37-500 76-258 40-472 73-474 76-2 2 8 21 22 43l26 39 58-23c32-13 95-30 140-39zm-33704-34c-192-144-249-248-260-483-5-116-8-129-25-129-15 0-18 8-18 48 0 73 27 224 53 295 52 141 130 237 240 292 38 19 74 35 79 35s-26-26-69-58zm16480 16c-89-471-588-1228-1387-2103-182-199-460-478-566-567-221-186-510-384-920-630-384-231-491-279-1055-468-209-71-418-144-464-164-47-20-86-34-88-33-6 7 46 372 54 374 4 2 210 100 458 218 247 118 451 212 453 210 3-2-7-24-22-49-15-26-26-60-26-80 0-35 1-36 36-36 94 0 405 230 501 370 75 110 103 195 103 312v77l33 9c389 106 751 194 755 184 2-7 22-12 45-12 33 0 58 10 117 49 224 145 381 349 515 671 120 290 166 356 289 421 195 102 367 272 456 448 51 103 70 195 70 346 0 152-18 238-75 361-19 42-34 79-32 81 3 3 580 36 724 42 31 1 32 0 26-31zm12627-38v-40h366l17-102c9-57 13-106 9-109-6-6-465-166-1107-385-38-14-65-21-60-16 6 5 40 32 78 61 64 50 67 55 66 94 0 23-6 57-13 76-11 31-9 47 26 160 21 69 45 165 54 214l17 87h547v-40zm-26521-59c282-94 368-140 401-213 47-105-35-132-275-92-73 12-186 18-413 21-285 5-312 6-308 21 3 10 24 80 46 157s43 146 45 153c3 9 46 12 166 12h162l176-59zm12809-15c79-41 97-55 120-95 25-43 27-53 26-161 0-137-17-207-79-335-59-123-133-203-232-252-75-37-78-38-187-36-115 2-227 21-227 38 0 16 474 896 480 893 3-2 48-25 99-52zm-11980 25c15-10 66-42 114-70 178-105 257-207 266-344 8-136-56-241-183-301-75-36-227-75-232-60-2 6-29 51-60 100-77 123-144 265-150 318-7 57 19 102 77 135l40 22v82l1 82 42 27c52 32 53 32 85 9zm1299-153c34-79 65-151 69-160 6-17-5-18-145-18h-151v-35c0-31-3-35-25-35-14 0-25 1-25 3 0 1 16 85 35 186 19 100 35 184 35 186 0 5 54 11 105 13l40 2 62-142zm-4499 51c-169-89-214-161-253-401-6-36-8-38-45-38-57 0-58 19-9 167 66 201 92 241 175 274 24 9 159 35 199 38 6 0-25-18-67-40zm30272 6v-35h440v-157l-312-118c-172-65-351-133-398-150-47-18-86-31-88-30-3 2 78 310 124 473l15 52h219v-35zm3283-75c29 0 80 7 115 15 61 15 64 14 110-9 26-13 111-44 190-70 168-54 225-81 271-129l33-35-208-5c-190-3-218-6-309-32-95-26-113-28-367-32l-268-5 6 44c3 23 13 108 23 188l16 145 150 15 150 15 18-52 19-53h51zm-8512-19 17-29-97-42c-53-23-131-57-173-75l-77-34-15 24c-9 13-17 29-18 35-3 9 311 149 337 150 6 0 17-13 26-29zm-24012-44c25-12 38-23 30-25s-51-18-97-34c-45-17-84-29-86-27s-7 30-11 63l-7 58 64-7c34-4 83-17 107-28zm341-66c0-20-2-20-135 12-11 3 15 5 58 6 70 1 77-1 77-18zm-2227-50c3-16 9-41 13-57 7-27 4-26-52 23-32 28-68 53-79 56-11 2 10 5 46 6 66 1 67 1 72-28zm-208 5c-16-7-66-25-111-40-104-34-169-76-191-121l-17-35H870v190l43 1c23 1 121 5 217 8 96 4 231 8 300 9 111 1 122 0 95-12zm28555-1c7-9 11-18 8-20-5-6-168-53-168-49s134 84 141 84c4 0 12-7 19-15zm-26952-26c103-13 104-14 60-86-57-95-132-123-330-123h-138v25c0 17 5 25 18 25 10 0 45 7 77 16 83 21 120 58 149 148 5 14 13 17 39 13 17-3 74-11 125-18zm27377-39c18-8 17-9-7-9-15-1-30 4-33 9-7 12 12 12 40 0zm-2805-40c0-18-125-143-200-199-202-153-515-320-845-451-314-125-544-178-1106-255-388-53-460-65-667-106l-152-31-143 138-143 139 85 7c47 3 169 11 271 18 727 43 1482 193 2125 420 256 91 508 195 680 283 104 53 95 50 95 37zm-750-49c0-21-18-26-142-37-75-6-77-6-71 15 8 31 18 34 52 16 39-20 101-20 101-1 0 13 16 22 48 25 6 0 12-7 12-18zm2679-35c-2-2-21-11-41-19-36-15-38-15-38 4 0 16 7 19 42 19 23 0 39-2 37-4zm-2935-65c-36-32-117-66-185-76-42-6-47-5-52 16-4 13-5 24-4 25 6 4 244 62 257 63 9 0 3-11-16-28zm3366-17c-181-186-503-361-897-488-394-126-994-236-1570-287-116-11-144-10-157 0-26 22-19 36 28 53 25 9 78 39 119 66 40 28 90 57 111 66 62 26 173 45 331 56 176 12 359 38 615 86 403 76 539 118 1015 317 214 89 432 176 445 177 2 0-16-21-40-46zm-24646-20c4-15 3-30-1-34-9-9-883-224-887-218-2 1-23 55-48 118l-46 115 302 7c165 4 366 13 446 21 224 22 227 22 234-9zm20901-14c20 0 25-5 25-25 0-29 21-23-242-70-228-41-233-41-192-16 18 11 34 25 37 33 4 9 6 7 6-4 1-14 10-18 39-18 34 0 40 5 67 50 16 28 32 50 36 50s12-13 19-30c11-27 17-30 55-30 39 0 46 4 76 44 26 33 36 41 42 30 4-8 19-14 32-14zm2926-43c-151-58-406-130-533-152l-37-6 20 61c12 33 22 60 24 60 1 0 28-11 59-25s72-25 91-25h35l2 53 2 52 3-47 4-48 42 1c28 0 88 20 177 58 97 41 138 54 146 47 8-8-1-16-35-29zm-21976-12c3-14 8-37 11-52 3-16 15-38 26-50l21-23-44-19c-55-24-185-51-263-54l-58-2-49 105c-35 75-45 107-36 112 7 4 96 8 199 8h188l5-25zm24565-5c-181-146-496-298-845-410-308-98-733-186-990-205-44-3-96-8-115-11l-35-5 34 25c58 43 204 114 298 145 121 40 237 63 513 106 387 59 480 87 883 259 309 132 296 127 257 96zm-28283-26c185-27 375-29 434-6 24 10 26 8 38-36 7-26 30-83 52-126 136-272 385-484 674-572 88-27 96-28 345-28 224-1 262 1 310 18 86 29 180 79 308 162 140 92 231 135 332 159 131 29 167 44 199 80 37 43 48 82 63 218 9 90 14 107 28 107 9 0 44 3 76 6l59 6 13-48c17-61 87-211 135-285 102-160 231-289 352-352l60-32h335l335 1 90 27c85 26 226 90 306 137l35 22 210-127c115-70 211-129 214-132 7-6-74-321-131-507-275-904-677-1414-1421-1804l-98-51-62 28c-35 16-90 35-123 42-99 21-323 15-550-16-246-33-353-35-565-7-91 12-262 31-380 42-554 52-750 102-1215 310-600 269-769 335-992 386-94 22-151 28-278 32-158 4-215-3-341-43-19-6-63 41-330 350-170 196-310 360-312 364-1 3 32 19 73 35 92 35 236 122 353 212 121 94 369 345 488 494 138 173 189 253 365 578 85 155 165 296 179 313 22 27 109 68 147 69 7 0 92-12 190-26zm22283-46c30-2-160-40-558-111l-603-109-80 38-80 38 38 19c32 17 47 18 113 11 41-4 111-8 155-8 76-1 80 0 83 22 3 21 7 22 101 22 75 0 101-4 111-15 7-8 29-15 49-15 31 0 39 5 55 34l18 33 119 5c80 4 124 10 135 19 13 10 48 14 128 14h111l3 35 4 35 26-32c22-26 35-33 72-35zm2017-59-82-89h-85c-47 0-91-4-99-9s-20-7-28-4c-11 4-9 11 8 29 59 63 197 124 280 124 34 0 39 3 39 24 0 19 4 22 25 19 23-5 20-10-58-94zm7133-17 22-109 139-18c77-10 139-21 139-24s16-98 35-210l34-204-80-176c-44-97-82-178-85-180-3-3-360-81-371-81-2 0-3 9-3 20 0 17-7 20-53 20-98 0-250-90-372-222-136-146-265-362-265-442 0-28 7-52 19-67 19-24 22-24 182-22 89 2 171 5 183 8 31 9-174-187-295-281-420-328-942-602-1251-658-35-6-38-5-38 17 0 17-30 47-125 125-105 87-125 107-125 130 0 72-100 205-215 287-157 113-260 145-485 152-148 5-171 3-225-15-33-11-61-19-62-18-2 1-21 115-43 252s-43 261-46 275c-5 26-3 26 58 33 270 30 649 195 1038 451 269 178 463 350 569 507 73 110 105 143 190 200 177 119 223 174 225 272l1 62 92-22c226-55 512-58 833-9 96 15 213 33 260 40s88 13 91 14 16-48 29-107zm-32417 78h127v-74c0-58-4-79-19-97-19-23-24-24-194-27l-176-3 47 106c41 91 50 105 67 101 11-3 77-6 148-6zm26008-29c15-28 30-41 48-43 14-2-9-7-52-11-48-5-84-4-95 2-14 9-13 10 11 11 15 0 30 6 32 13 18 50 25 67 29 67 3 0 15-18 27-39zm4539-21c-191-129-555-275-882-355-153-37-360-75-411-75h-31l35 26c52 38 165 90 249 114 41 11 178 39 304 60 254 45 358 76 586 175 140 61 182 76 150 55zm-15863-272c18-13 33-25 33-28 0-4-51-123-113-265l-113-260-65-6c-35-4-136-10-224-14l-159-7 14 21c8 12 103 137 210 279l195 258 90 21c50 12 92 22 94 22 3 1 20-9 38-21zm-14854-57c14-5 34-23 46-40l21-30-27-55-27-56h-153c-84 0-153 4-153 8 0 18 78 129 109 155 28 23 41 27 96 27 35 0 75-4 88-9zm24782-43 47-43-141-69-141-69-85 2-85 1v-37l-1-38-15 28c-14 26-20 29-59 25-24-1-41-1-39 1 6 7 458 240 466 240 3 1 27-18 53-41zm-2679-330c81-66 119-103 164-162 13-17 9-17-29 5-58 31-190 156-248 233-42 55-43 58-12 29 19-17 75-64 125-105zm11664 30c0-35-7-90-15-123s-14-71-15-85v-26l-182-22c-99-12-183-21-185-19s4 33 13 68c16 64 16 210-1 252-7 16 6 17 189 17h196v-62zm-553-28 23-39-138-290c-75-160-139-290-142-291-3 0-17 50-31 111-23 98-25 115-13 138 7 14 42 87 78 161 35 74 79 152 97 174 28 33 84 76 99 76 3 0 15-18 27-40zm-8472-62c67-86 69-82-27-76-47 3-121 16-163 29l-78 23 109 37c60 21 111 38 114 38s23-23 45-51zm5135-17c-219-158-499-281-842-371l-146-38-27 71c-18 49-29 99-32 157l-6 85 99-3c82-2 176 10 544 67 245 38 449 70 455 70 5 1-15-17-45-38zm-1545-51c179-21 252-85 280-247l7-42-66 19c-154 44-344 143-434 227l-57 52h90c50 1 130-4 180-9zm-21515-36c290-39 618-48 809-23 79 11 145 18 146 17 2-2 19-36 39-75l36-73h-612c-348 0-627-4-646-9l-32-10v210l33-6c17-3 120-17 227-31zm-7285-90c-14-31-25-58-25-60s-53-4-117-4h-117l39 41c65 67 90 79 172 79h73l-25-56zm28487-49c275-151 732-378 828-411 59-21 82-34 86-49 11-48 94-470 94-480 0-8-30-14-82-18-46-4-154-12-241-18l-159-12 5-41c3-23 15-79 27-125s19-85 16-88c-8-8-93 43-166 100-110 86-224 195-398 381-327 349-358 412-397 809l-5 57h199l193-105zm-540 5c16-55 18-90 15-230l-3-165-42-110c-23-60-47-136-52-168-5-33-11-60-12-62-6-4-2172-184-2176-181-2 2 18 66 44 143l48 138 4 194c4 203-6 309-38 413-12 40-14 58-6 59 22 2 2171 36 2185 35 8-1 22-27 33-66zm-13187-21c200-17 196-12 100-106-86-83-170-134-285-172-66-21-351-83-357-77-2 2 74 87 169 190 163 178 173 187 202 182 17-3 94-10 171-17zm10808-114c42-166 45-238 14-367-111-457-606-1627-1357-3203-390-819-521-1057-741-1350-270-360-523-578-852-735-160-77-266-101-474-107-260-8-458 11-1138 112-484 72-662 94-822 102-75 3-133 10-133 16 0 29 124 534 134 543 6 6 40 19 76 29 161 43 506 192 860 370 654 331 1234 699 1500 952 69 65 94 83 102 75 7-7 29-12 50-12 30 0 38 4 38 18 0 27 138 142 171 142 22 0 34 14 78 86 196 320 458 564 659 614 39 10 42 13 42 45 0 29-4 34-30 40-16 4-30 11-30 16 0 13 78 68 128 90 59 26 174 46 331 60 258 21 349 66 420 206 42 84 55 166 55 358 0 170-2 187-32 305-18 68-32 143-32 166v41l56-5c53-4 57-3 95 34 33 32 39 44 39 80 0 40-2 43-36 54-19 7-33 17-31 24 3 6 26 57 52 114 33 71 51 100 59 92 9-9 106-15 106-6 0 3 49 224 65 292 3 13 35 41 80 70 66 43 75 53 75 79 0 45-10 54-68 57l-53 3 151 214c121 173 150 221 150 248 0 32-1 33-41 33-36 0-40 2-35 20 3 11 8 29 11 39 5 15 21 22 78 31 40 7 90 16 112 20 87 18 87 17 118-105zm8477 16c0-5-59-71-131-146-133-140-137-145-386-530-196-304-233-370-233-415 0-28 8-51 24-73l25-32-136-160c-75-88-202-225-282-305-215-214-378-330-580-411-127-51-152-47-34 5 183 80 405 257 526 419 59 79 307 493 427 712 42 77 132 248 200 380 67 132 161 313 207 403l84 162h145c80 0 144-4 144-9zm-25565-143c35-73 50-114 42-115-6-1-208-12-447-23-239-12-438-24-441-28-12-15-339-1071-339-1096 0-23 4-26 38-26 20 0 345 18 722 40 376 22 691 40 698 40 11 0 13 11 9 43-3 33 13 99 77 310 44 147 84 266 87 265 4-2 58-52 119-112l112-109-60-131c-33-73-97-224-141-336-45-112-99-234-121-272-112-188-294-311-705-476-563-226-1177-350-1835-369l-205-6 25 29c14 16 56 61 92 101 143 155 214 271 301 493 60 152 98 293 213 790 119 516 184 773 232 915l37 110 55 3c60 4 1307 69 1353 71 26 1 32-7 82-111zm-8805 45c0-37-28-214-34-220-20-21-121 47-169 114-34 48-32 54 37 105 33 24 49 28 103 28 62 0 63 0 63-27zm338-6 23-21-93-48c-51-26-99-47-107-47-30-2 19 112 58 134 33 19 88 10 119-18zm6747-183c-110-488-391-1513-459-1673-48-115-106-210-172-280-68-74-131-115-211-137-57-16-70-16-195 0-261 32-454 46-637 46-102 0-191 4-197 8-8 5-10 35-7 98l6 90 136 27c76 15 143 27 149 27 8 0 12-17 12-45v-45h49c43 0 53 4 87 38 22 22 107 79 189 127 230 136 291 180 405 295 120 120 213 240 357 455 215 321 325 551 459 957 32 97 60 176 62 174 1-2-13-75-33-162zm25971-91 7-63h-119c-66 0-125 4-133 9-15 10-9 45 13 74 11 14 19 16 40 7 50-19 98-12 136 20 19 16 38 26 42 22s10-35 14-69zm385-418c-352-682-591-989-886-1141-152-78-171-80-646-50-227 15-415 28-417 30-8 8 39 101 82 160 91 127 188 193 556 374 310 154 373 196 618 419 188 171 259 227 365 291 108 64 307 129 405 131l34 1-111-215zm-5396-27c-4-13-23-63-42-113-75-190-170-315-306-403-105-66-210-92-477-117-253-24-334-44-455-111-65-36-147-122-180-187-34-70-36-168-3-191 12-9 32-16 43-17 11 0-1-8-29-20-149-60-236-175-236-311 0-62 2-68 31-91l30-24-58-12c-32-7-73-22-90-33-46-27-129-123-158-182-40-81-31-196 16-196 23 0 5-17-37-34-70-28-146-105-179-178-36-79-42-191-12-213 17-12 14-16-39-42-132-64-204-165-204-285 0-82 16-103 85-114 124-18 303 29 734 195 101 39 186 70 187 68 8-8-119-249-175-332-263-393-810-918-1351-1296-107-75-654-420-813-513-432-252-793-384-1222-447-156-22-357-39-471-39h-84v78l73 7c367 33 684 206 1024 558 347 359 633 816 976 1562 69 149 234 495 367 770 445 918 594 1234 740 1575 85 200 180 447 180 472 1 38 1 39 1056 138 572 54 1049 98 1062 99 20 1 22-3 17-21zm1855-273c83-24 107-26 185-22 50 3 135 18 190 32 133 36 180 32 291-25 216-109 243-187 189-533-13-86-27-187-31-222-4-36-11-65-15-65-5 0-9 4-9 10 0 26-65 81-113 95-67 20-266 20-467-1-169-17-241-13-310 17-92 41-100 56-161 329-61 271-66 317-46 357 36 70 123 78 297 28zm-5286-202c37-28 83-101 106-171 35-106 50-242 50-449 0-214-12-273-68-326-35-34-105-64-167-72l-50-7-61 109-62 108-34 300-35 300 40 67c94 156 194 206 281 141zm-23382-58c482-64 769-284 874-671 28-102 25-348-5-459-24-91-68-184-93-199-24-14-265 9-356 34-41 11-97 33-125 48l-52 27 257 3 256 2 7 51c10 71-2 152-28 191-13 18-45 45-72 60-79 43-162 53-431 51l-241-2-170 369c-154 333-168 369-150 372 13 2 35 28 61 70l41 67 57 1c31 0 108-7 170-15zm22770-3c105-69 188-353 188-643 0-236-61-354-208-409-101-38-118-29-226 123l-48 67-17 337-16 337 45 58c93 119 214 175 282 130zm-652-89c82-61 138-155 166-280 21-93 30-424 15-523-26-168-116-273-248-288-64-7-88 4-125 55-19 27-50 56-69 67l-35 18-36 397c-35 383-35 397-18 436 21 50 72 99 153 147l62 36 47-18c26-10 66-31 88-47zm-812-22c199-101 276-205 302-413 16-132 13-482-5-553-35-132-146-205-318-208l-78-2-33 85c-19 47-52 130-74 185-62 154-75 243-69 475 5 203 14 255 57 340 24 48 104 130 127 130 7 0 48-18 91-39zm-434-148c-17-71-19-534-4-633 6-36 34-132 61-213 28-82 48-151 45-154s-175 4-383 16-390 21-404 21h-27l14 63c46 223 185 462 394 680 93 97 295 277 311 277 4 0 0-26-7-57zm-9499-204c-10-85-19-156-20-158-2-2-78 30-169 70-90 41-164 75-162 76 6 6 361 170 364 168 2-2-4-72-13-156zm16836 118c35-23 62-69 74-124 6-30 4-33-18-33s-25 5-30 50c-7 61-22 90-45 90-19 0-42 18-42 32 0 15 27 8 61-15zm1909-66c0-11 2-26 5-33 4-11-9-18-51-27-60-14-68-11-78 31-6 25-3 27 36 36 70 16 88 14 88-7zm-4140-98c-39-17-192-46-218-41-18 3 198 55 233 56 13 0 8-5-15-15zm-24473-58 172-27 17-43 16-43 94-7c71-5 94-10 94-21 0-24 71-17 113 12l38 25 33-21c19-11 39-27 46-35 17-20 56-19 145 6 84 23 103 20 156-22l37-29h902v36c0 33 2 35 28 30 15-3 63-10 107-16 128-17 125-16 125-55 0-23-5-35-14-35-7 0-518-40-1136-90-618-49-1136-90-1151-90-17 0-29 5-29 13 0 6-59 65-131 131l-130 118 125 84c74 49 126 91 126 100 0 12 6 15 23 11 12-3 99-18 194-32zm9364-14c139-36 234-89 348-196 136-128 234-274 411-615 163-315 234-426 529-825 86-117 135-191 126-193-21-5-250 85-375 148-252 127-441 273-642 500-61 69-209 229-328 355-246 260-386 416-473 525-66 82-152 209-146 213 14 10 411 105 440 106 20 1 69-8 110-18zm18927-343c-3-7-25-135-48-284l-44-272-125 5c-69 3-127 7-129 8-4 3-81 399-78 402 4 4 411 152 420 152 4 1 6-5 4-11zM6430 9144v-37l-57 6c-39 4-446-30-1218-103-638-60-1181-112-1206-115l-47-5 10 40c8 31 15 40 32 41 11 0 554 47 1206 103 652 57 1206 104 1233 105l47 1v-36zm-185-401c-12-287-46-466-97-520-21-22-26-23-220-23h-198l-38 38c-78 78-196 291-276 497l-35 90 32 3c18 1 192 11 387 22 195 12 373 24 395 29s44 9 48 10c5 0 6-65 2-146zm9076-1307c305-145 331-151 364-90 35 65 122 120 242 155 266 76 769 36 1133-89 216-75 302-116 696-334 153-86 303-168 333-183l54-27-7-251c-4-139-13-405-21-592s-19-469-25-628c-11-305-28-466-61-575-61-199-179-309-392-364-74-19-115-22-428-25-381-5-472 3-674 62-181 52-385 168-471 268-40 46-89 125-82 132 2 3 227-18 499-45 432-44 522-50 719-50 316 0 402 16 510 96 55 40 60 47 60 81 0 49-106 311-129 317-9 2-458 39-999 83l-983 78-10 39c-6 22-168 505-360 1074-192 570-349 1039-349 1044 0 4 26-5 58-21 31-15 177-85 323-155zm-269-797c32-112 58-207 58-211 0-5-31-8-68-8h-68l-32 106c-42 135-51 218-28 261 17 34 54 65 70 60 6-2 36-95 68-208zm3619-154c32-17 83-81 105-134 10-23 14-74 14-166 0-119-2-135-21-159-25-31-80-62-131-71-73-14-197 65-239 151-19 40-21 57-17 139 4 75 11 105 32 150 38 77 81 105 164 105 37 0 75-6 93-15zm3149-80c0-29-55-228-70-252-29-49-55-61-226-103-88-21-368-97-623-169s-615-169-800-216c-558-143-910-244-1042-299-15-7-17 21-23 301-3 169-9 400-12 512-4 114-2 201 2 199 27-16 476-148 503-148 19 0 34-6 37-15 8-19 96-20 139-1 29 13 32 12 67-22l38-36 247 27c223 24 274 26 503 21l255-5 480 105c458 99 525 112 525 101zm-3391-597c43-27 50-28 170-28 146 0 181 8 250 55l51 35v-181c0-204 9-192-78-117-82 70-122 83-252 83-131 0-151-8-247-99l-53-49v454l58-62c31-34 77-75 101-91zm-3300 98c121-63 189-292 120-404-30-51-79-67-160-54-107 18-113 23-133 89-14 46-17 85-14 180 3 134 9 147 78 184 43 22 72 24 109 5zm6546-28c-34-114-118-208-238-267-45-22-136-56-202-75-172-50-1110-328-1305-387-122-37-916-288-1060-335-8-3 1 9 21 25 68 57 121 162 137 276l7 48 1310 368c721 202 1316 368 1323 368 9 1 11-6 7-21zm586-88c57-6 203-26 324-45 237-37 1145-160 1260-170 132-11 135-12 135-45 0-17-5-30-11-30-27 0-2054 251-2057 255-6 6 45 25 93 35 58 11 139 11 256 0zm-3581-355c76-39 110-129 110-289 0-92-3-116-20-143-29-48-62-65-140-71-161-11-231 69-246 282-5 73-3 86 18 126 15 28 43 58 72 78 42 28 57 32 113 32 37 0 76-6 93-15zm-2043-204c522-42 847-72 855-79 23-18 61-109 54-127-3-9-23-24-43-33-33-15-76-17-323-17-288 0-446 10-710 46-80 11-228 30-330 43-193 25-224 33-278 69-36 24-87 97-97 140-6 22-4 27 11 27 11-1 398-31 861-69zm4384-698c-48-414-89-754-92-756-2-2-89-32-192-68-154-52-188-67-192-84-2-11-13-380-24-820-25-932-28-995-47-995-10 0-14 13-14 43 0 124-90 1721-97 1727-4 4-107 17-228 29-121 13-223 26-227 29-9 9-448 1152-448 1166 0 8 1641 489 1646 482 1 0-38-339-85-753zm-2747 404c9-7 29-37 44-67 40-79 81-98 241-107l125-8-205-57c-214-60-316-84-323-77-3 2 10 73 28 157 35 167 47 190 90 159z"
    />
    <path
      d="M5767 13157c-79-74-88-85-87-118 0-34 6-41 75-93 64-48 81-56 117-56 38 0 52 8 116 62 65 55 72 65 72 97 0 30-11 48-67 113-60 68-72 77-103 77-30 0-47-11-123-82zM7690 11520c-124-59-226-107-227-106s3 32 9 68c16 93 4 118-55 118-34 0-90-21-251-95-114-52-211-95-215-95-5 0-14 7-21 15-11 13-9 20 9 38 13 15 21 36 21 59 0 32-3 36-31 42-51 10-214 7-271-5-74-16-141-52-225-120-40-32-77-59-83-59s-64 41-130 90c-150 113-162 115-299 40-131-71-198-119-264-188-100-106-142-227-135-395l3-88 42-39c72-68 198-90 503-89 102 0 596 19 1098 43l913 42 59 59c89 88 93 101 88 269-5 149-16 196-61 245-29 31-111 69-167 76-76 11-78 14-27 47 41 26 47 35 47 65 0 106-43 101-330-37zm290-245c47-24 73-87 74-173 1-104-10-112-154-112-104 0-108 1-114 23-3 13-17 40-31 61-14 20-25 44-25 52 0 40 63 123 115 152 29 16 101 14 135-3zm-576-15h71l18-84c24-118 23-139-14-175-52-53-164-66-224-27-34 22-98 123-91 143 29 74 119 161 154 148 8-3 46-5 86-5zm-1138-42c45-40 84-119 84-173 0-21-7-59-16-82l-17-43h-117c-132 0-159 11-187 78-20 48-17 207 4 245 2 4 51 7 108 7 103 0 105 0 141-32zm589 20c35-16 63-64 73-128 17-111-25-179-116-188-78-7-192 54-234 126-17 29-17 31 12 89 43 85 85 113 172 113 37 0 79-5 93-12z"
    />
  </g>
  <g fill="#010100">
    <path
      d="m24788 16840-127-7-68-49c-98-70-211-188-265-280-26-43-76-143-112-221-63-140-64-143-37-128 42 21 98 89 166 200 167 271 373 388 725 411l101 7-73 39c-81 42-71 41-310 28z"
    />
    <path
      d="M24264 16789c-247-24-469-126-610-282-135-149-241-364-333-677-22-74-62-213-91-308-28-96-59-190-69-210-11-21-66-87-124-147-154-162-196-236-217-381-12-78-12-80 29-222 80-282 80-357 2-611-58-187-64-249-32-373 36-141 88-223 241-383 169-176 164-166 321-633 135-398 189-504 324-630 80-75 194-133 328-167 104-26 294-49 364-43l42 3-75 115c-384 589-546 989-629 1550-63 423-72 1218-20 1628 43 337 131 669 258 978 90 219 270 557 399 747l39 57-33-1c-18-1-69-5-114-10z"
    />
    <path
      d="M24777 16610c-107-20-272-195-427-450l-51-85 333-6c609-12 1045-50 1413-124 642-128 877-184 1032-246 39-15 163-72 275-125 187-89 316-144 337-144 11 0 231 305 231 320 0 25-189 199-280 259-419 274-1122 488-1892 576-253 29-870 45-971 25zM27995 15952c64-90 126-138 258-202 109-52 132-67 183-123 33-36 77-96 99-135l40-70 105-7c288-18 540-86 1020-273 236-92 375-138 454-150l55-9 12 36c6 20 31 70 56 113 35 61 42 82 37 105-26 106-126 199-319 295-371 186-1084 347-1724 388-169 11-177 13-243 46l-68 34 35-48z"
    />
    <path
      d="M24167 15868c-3-13-65-344-138-737-127-687-132-714-114-727 13-10 53-14 135-14 64 0 179-2 256-5l139-6-95 40-95 40 900-4c495-3 1225-7 1622-10l722-6 6 23c6 29 94 702 92 704-710 377-1202 556-1752 638-367 55-869 86-1406 86h-267l-5-22zM28172 15629c-71-21-157-143-216-307-53-149-99-371-128-617-17-148-17-676 0-815 29-235 88-464 152-590 37-73 110-172 147-198l30-21 132 101c115 86 131 102 119 115-12 12-23 9-79-16-99-47-120-49-161-12-20 17-41 44-47 59-11 26-8 35 44 118 106 168 169 327 199 504 24 140 39 423 32 600-15 355-63 518-225 770l-62 94 23 18c33 26 123 58 162 58 18 0 54-7 80-16s50-14 53-10c8 8-43 110-66 130-44 39-123 54-189 35zm-192-1179-20-50h110v35c0 19 2 35 5 35 19 0 78-51 91-79 20-41 14-143-10-190-18-34-65-75-118-102l-39-20-52 56c-81 88-100 128-93 198 8 76 27 110 78 141 64 38 71 34 48-24zM9328 15585c-227-38-413-138-588-314-255-256-420-644-459-1081-16-173-14-576 4-690 82-536 536-1275 927-1512 129-79 143-82 428-86 211-3 272-1 355 14 55 9 105 20 111 23 8 4-5 46-39 126-27 66-51 121-52 123-1 1-28-7-61-18-266-92-609 46-915 367-193 204-317 418-363 626-4 15-2 27 2 27 5 0 79-93 164-207 215-288 336-400 506-469 117-47 171-56 349-61l172-5-6 38c-24 150-91 231-360 433-189 142-254 200-321 284-140 176-188 340-180 613 4 135 7 158 36 241 64 189 164 345 317 498 149 149 298 240 444 271 89 19 142 17 230-6 41-11 79-20 84-20 16 0-91 81-172 130-169 101-370 140-541 106-146-30-317-123-438-240-83-79-115-125-196-274-73-135-142-242-156-242s-12 48 5 128c54 256 220 535 436 729 99 89 210 154 319 187 121 37 420 30 580-15 99-27 237-100 324-170 39-31 151-138 248-237 143-145 190-186 240-211 60-30 118-41 118-21 0 16-46 132-75 190-56 110-130 207-249 326-222 221-462 351-736 398-113 19-379 20-492 1z"
    />
    <path
      d="M8535 15341c-121-75-311-194-422-262l-202-126 137 1c147 1 175-4 166-29-10-24-169-96-389-176-110-39-216-80-236-90-127-63-259-258-348-513-33-94-95-316-89-320 2-2 143 8 313 20 230 18 318 21 342 13 69-22 133-149 133-263 0-42-5-57-24-75-54-51-214-80-498-90-102-3-190-9-194-14-13-13 27-170 63-247 27-56 54-93 107-146 93-91 216-153 461-229 299-93 321-102 373-154 26-25 85-99 131-165 135-193 258-309 401-381 56-29 222-86 229-80 5 6-101 142-269 346-200 243-306 396-389 564-77 155-111 252-142 401-18 85-22 147-26 436-7 469 10 641 88 876 60 179 151 336 368 632 140 190 154 210 144 209-4 0-107-62-228-138zM30396 15400c53-67 86-90 193-135 154-65 208-111 226-192 12-58 54-77 290-129 152-33 273-72 444-142 75-30 190-77 256-104 65-26 141-55 167-63l48-14 55 110 55 110-32 40c-48 60-185 159-308 223-347 181-886 323-1301 344l-136 7 43-55zM28658 15267c-15-32-14-47 23-313 38-271 39-287 39-561v-283h846l34 25c71 52 210 85 361 85 38 0 69 4 69 9s18 126 41 271c22 144 39 263 37 265-6 6-1392 528-1413 532-16 3-25-4-37-30zM9536 15229c-33-5-87-22-120-38l-61-29 95-1c102-1 250-22 340-48 132-38 190-74 450-283 41-33 104-75 140-94 63-33 197-82 205-74 9 8-131 182-212 263-237 236-542 347-837 304zM13092 15229c-56-11-152-54-210-95-163-116-357-388-396-556l-6-28h215l60 83c89 122 276 305 355 347l65 35 210-1c200 0 214-1 291-27 157-52 254-136 425-365 56-75 121-160 145-189 46-53 142-139 149-131 8 8-65 207-104 285-65 131-160 262-261 364-153 156-308 243-485 274-95 16-378 19-453 4zM12275 14924c-539-288-501-266-450-258 22 3 96 17 165 31 143 28 180 23 180-22 0-78-76-127-235-152-70-12-105-21-105-30 0-7 1-13 3-13 1 0 112-11 247-25s246-25 247-25 5 26 9 58c21 173 81 288 278 527 89 108 119 150 104 144-2 0-201-106-443-235zM30561 15108c-68-46-137-215-186-453-42-207-68-465-46-465 5 0 28 7 51 15 66 23 82 20 105-22 11-20 34-44 50-53 27-15 30-22 33-70 4-76-19-130-80-185-28-25-56-45-63-45s-42 14-78 30c-37 17-68 30-70 30-4 0 161-861 166-866 4-4 182 38 189 45 5 4-31 20-78 35l-86 28 6 37c3 20 35 124 71 231 120 355 141 489 132 824-7 286-37 426-135 638l-40 86 102 44c97 43 101 46 98 74-4 39-22 55-68 61-30 4-47-1-73-19zM32109 15073c25-48 119-117 237-174 116-55 164-92 164-126 0-29 29-69 67-90 50-28 768-294 830-308 32-6 33-5 68 66l37 72-39 55c-53 77-165 163-297 227-184 90-362 143-791 235-132 28-251 54-264 57-21 5-22 4-12-14zM20123 15051c-85-22-133-88-204-282-25-70-56-142-67-161-30-47-112-125-217-204-154-116-562-472-685-598l-54-56h197c108 0 197 2 197 5s-9 24-21 46c-11 23-19 42-17 43s53 8 115 14c281 30 496 144 657 346 74 94 67 90 206 101 49 4 119 21 207 50 113 38 146 45 211 45 129 0 163-37 166-182l1-69-329-187c-181-103-323-188-315-189s189-7 403-13c369-10 391-9 399 7 18 34 124 131 225 206 125 93 245 161 338 193 66 22 78 23 175 14 196-18 278-52 427-180 142-122 219-159 358-174l61-7 26 58c41 92 65 195 78 329 13 143 9 245-15 324l-16 56-163 18c-255 28-228 18-298 104-35 41-89 94-122 118l-59 44h-298v-60h-248c-137 0-358 3-491 7l-242 6-33 51c-48 74-103 125-166 154-50 24-68 26-205 29-82 1-165-2-182-6zM16177 14939c-200-47-434-341-530-667l-16-52h217l7 48c17 115 98 254 206 357 128 120 245 157 428 137 214-25 321-98 496-341 46-64 102-134 124-156 38-36 41-37 41-16 0 74-56 217-126 323-127 191-325 328-524 364-84 15-265 17-323 3zM15802 14892c-28-14-96-60-149-103-115-92-164-117-318-164-153-47-273-96-354-145-134-81-134-81 80-39 107 21 197 38 201 39 9 0 81-140 75-146-2-2-66-14-143-26-143-22-151-24-142-34 5-5 430-54 435-50 7 5 374 688 372 691-2 2-28-8-57-23zM30935 14809c-3-13 6-145 20-294 21-220 25-296 19-412l-7-143h359c198 0 410 3 472 7l112 6v36c0 20 10 116 22 213 12 98 20 180 17 182-10 8-966 419-986 424-17 3-23-1-28-19z"
    />
    <path
      d="M13110 14715c-25-7-57-18-73-24-75-30-227-148-227-177 0-8 24-41 54-73 73-80 86-107 86-186 0-75 0-76 87-43 47 18 79 43 173 133 63 62 135 123 160 138 25 14 90 38 144 53 66 18 110 37 129 54l30 26-89 43c-49 23-114 49-144 57-67 17-268 17-330-1zM9698 14686c-52-19-93-54-279-243-218-221-261-286-293-445-21-100-21-304-1-398 54-256 222-470 543-694 46-32 85-57 87-55 10 11-46 240-180 744-38 143-41 184-21 295 40 222 166 422 419 667l136 131-31 6c-58 12-341 6-380-8zM18625 14669c-133-70-292-319-369-578l-16-53 188 5c181 4 192 6 334 45 81 23 177 46 213 53l65 11-19 27c-66 91-115 111-268 111-111 0-122-2-182-30-35-17-65-29-68-27-7 7 28 92 57 137 43 67 98 115 165 147 55 26 70 28 175 28 103 0 121-3 170-26 30-14 86-52 124-83 76-63 123-90 175-101l35-7-18 28c-130 203-236 292-384 323-29 6-117 11-195 11-125 0-147-3-182-21zM16347 14641c18-11 81-41 140-67s131-62 160-81c78-52 133-133 133-197 0-52-28-66-157-77-131-11-165-22-197-59-72-86-26-217 111-311l42-29 7 22c3 13 29 69 56 124 69 144 137 209 256 245 41 12 42 13 36 48-3 20-21 68-40 107-78 163-258 266-504 288l-75 7 32-20zM18356 14644c-41-15-85-45-148-100-61-55-132-83-317-130-193-49-333-108-386-164l-30-31 50 5c28 3 120 11 205 16 85 6 179 13 208 16l52 5-30-60c-61-120-43-154 88-159l87-3 130 292c152 343 146 329 137 328-4 0-25-7-46-15z"
    />
    <path
      d="M10158 14566c-136-49-258-180-314-338l-14-40 168 4c159 3 170 4 229 32 69 31 142 101 186 177 24 41 67 150 67 171 0 14-280 9-322-6z"
    />
    <path
      d="M10672 14533c-39-19-57-43-110-149-26-52-56-94-81-115-22-19-114-72-204-119l-165-84-149-6c-173-7-199-17-244-88-29-46-74-170-64-180 7-7 3453 82 3460 90 7 7-161 227-281 369-87 103-167 177-201 185-38 10-123-11-228-56-52-22-108-43-123-46-24-5-974 58-1077 71-29 4-59 21-108 60-42 34-87 60-119 70-72 21-261 20-306-2zM32236 14476c-4-40-18-120-32-177s-28-141-31-186l-6-83 81-84c44-46 85-93 91-104 10-18-1-38-79-155l-90-134v-185c0-171 2-188 20-209l20-24 21 25c91 109 149 394 149 734 0 150-5 222-30 397-40 280-34 259-74 259h-33l-7-74zM16157 14484c-80-19-162-61-219-113-27-24-47-45-46-47 2-1 101-26 220-54l216-52 131 67c72 37 131 72 131 78 0 17-67 73-114 95-92 44-208 53-319 26zM13533 14425c-95-29-214-114-346-247l-99-98 33-43c56-72 122-138 162-158 31-16 54-19 124-17l86 3 29 104c44 158 85 230 196 339 51 52 92 95 90 97s-30 11-63 20c-71 18-155 18-212 0zM32640 14115v-325h345c190 0 345 3 345 8 0 4 10 78 21 165l22 158-34 35c-66 68-374 207-573 259-54 14-104 25-112 25-12 0-14-54-14-325zM13879 14305c-84-44-204-203-234-312l-6-23h134c146 0 202 12 332 70 71 32 192 107 213 132 10 13 3 23-43 67-81 77-119 91-245 90-91 0-111-3-151-24zM14575 14276c-38-17-74-57-110-121-55-97-103-130-250-170-45-13-69-27-97-56-71-75-165-69 1097-69 624 0 1135 3 1134 8 0 4-28 63-62 131-46 93-72 133-100 155-38 30-42 31-142 31h-104l-36-35-36-35h-397c-458 0-450-1-583 86-48 32-101 65-118 73-37 20-154 21-196 2zM20422 14231l-282-56-185-165c-102-91-198-176-213-188l-27-24 70 7c102 10 135 27 204 104 74 84 108 101 198 101 111 0 212 31 307 94 98 64 147 90 204 105 39 11 42 14 42 46 0 27-4 35-17 34-10-1-145-27-301-58zM16925 14105c-106-60-167-125-188-202-26-93-38-86 146-80 176 5 244 20 360 79l59 29-146 110c-80 60-147 109-149 109-1 0-38-20-82-45zM17687 14066c-21-8-56-26-78-41-44-29-146-129-179-176l-21-29h291v-105l380 21 380 21 57 38 57 38 105-7 106-7 85 87 85 86-59-6c-33-4-115-25-184-48-137-45-112-44-387-18-55 5-153 9-217 10h-117l-63 51c-108 87-172 110-241 85zM21440 14003c-162-85-158-78-113-169 35-71 80-111 135-119 24-3 215-5 424-3l382 3-119 130-120 130-82 21c-45 11-120 32-167 46s-110 28-140 31c-53 6-59 4-200-70zM24676 14069c-37-5-96-21-130-35-33-15-77-28-96-30-19-3-147 4-285 14-137 11-250 19-251 18-3-3 214-1227 218-1231 6-7 433 12 592 25 722 61 1544 227 2020 407 67 25 265 114 441 198 176 85 333 157 349 161 28 7 28 8 23 58-3 28-14 126-23 217l-17 166-646 6c-565 6-1201 16-1916 31-115 2-241 0-279-5zm204-84c0-18-6-18-225-1l-160 13 193 2c165 1 192-1 192-14zM37280 13996c0-21 7-24 60-33 46-7 60-7 60 3 0 7-27 21-60 32l-60 21v-23zM4820 13911c-25-10-81-39-125-65s-90-49-102-52c-19-5-23-13-23-43v-38l158-1c255-2 383-32 620-148l133-66 105 42c57 23 104 47 104 54 0 6-13 38-28 71-55 115-161 192-327 236-65 17-118 22-275 25-175 4-200 2-240-15zM38000 13855c0-17 10-25 53-38 69-22 69-22 65 10-3 25-9 28-60 39-56 11-58 11-58-11zM28650 13781c0-67-28-203-65-311-45-132-52-198-32-268l16-53-112-83c-62-45-150-110-196-144l-85-62h63c126 0 433 56 736 135 281 73 349 99 695 265 124 60 262 121 307 137 95 32 90 18 67 171-23 161-7 146-186 166-120 13-1131 86-1194 86-10 0-14-12-14-39zM11710 13750c-334-5-475-11-564-23-66-9-120-18-121-19-246-346-249-350-246-397 7-158 75-528 151-831 167-668 411-1303 637-1662 328-520 768-967 1107-1123 228-106 441-99 796 24 503 174 1208 576 1835 1046 263 197 353 275 555 481 873 888 1453 1721 1634 2345l24 84-32 3c-17 1-839 20-1826 42-1861 42-2652 47-3950 30z"
    />
    <path
      d="M22395 13688c-11-17-33-41-48-52-28-21-40-21-535-24-425-3-655 2-1416 29l-910 33-220-18c-122-10-222-18-222-19-1-1-99-198-217-437-332-668-520-994-767-1325-306-411-550-652-1110-1091-650-511-1106-797-1628-1023-261-114-603-229-880-297-112-27-113-28-107-53 74-297 800-1468 1105-1784 89-91 56-90 300-12 304 98 311 99 525 100 171 0 209-3 379-33 486-85 667-142 1051-332 420-207 735-401 877-540 79-78 100-118 79-152-10-17-7-18 36-18 120 0 349-48 668-140 360-104 545-136 830-146 736-26 1557 164 2480 573 1013 449 2032 1145 2571 1755 100 113 214 259 214 274 0 4-53 4-117 1-87-4-141-13-203-32-209-65-209-65-410-74-174-8-203-11-270-36-183-66-183-66-400-72-242-6-721 10-905 32-216 26-342 62-389 114-17 19-18 31-12 115 33 480 417 967 1032 1310 55 31 106 56 112 56 8 0 12-19 12-50 0-57-28-45 251-110l186-43 239 136c132 75 247 139 257 143 14 5 17 0 18-32 1-36 8-45 103-130l102-92 239 154c132 84 245 154 252 154 6 0 26-44 44-97 17-54 33-99 34-101 1-1 117 63 257 143 141 80 263 145 271 145 31 0 35-30 14-101-11-38-18-71-16-73s68-36 146-75l143-71 14 33c8 17 154 329 326 692 171 363 314 666 317 673 3 8-4 12-19 12-47 0-184 41-318 95l-135 55-985-145c-542-79-1000-147-1017-150-30-5-33-4-33 19v24l-237 4c-237 3-238 3-325 34-118 42-225 112-332 214-225 216-389 504-491 860-74 260-104 321-209 429-189 195-262 319-286 490-5 35-10 65-12 67-4 3-260 44-275 44-4-1-17-15-28-32zM10115 13695c-31-8-116-13-222-14l-173-1v-34c0-54 19-233 36-331 102-611 516-1516 929-2035 362-455 853-940 1160-1145 86-58 212-121 222-112 10 10-57 87-238 274-97 101-202 215-232 255-85 111-193 302-361 638-173 348-213 455-300 811-43 173-239 1106-264 1251-3 23-18 33-114 75-148 64-174 90-256 248-66 128-68 130-102 132-19 0-57-5-85-12zM10490 13693c0-31 22-97 37-115 8-9 35-24 59-32l44-15v179h-70c-60 0-70-2-70-17zM35811 13630c-48-77-50-80-28-85 61-13 1142-173 1147-169 18 19-94 103-179 135-82 31-204 55-396 79-228 28-343 52-422 89-36 17-67 31-68 31-2 0-26-36-54-80z"
    />
    <path
      d="M35613 13681c-51-24-69-56-89-159-19-102-50-162-95-186l-35-19-22-371-23-371 50-45c28-25 55-58 61-73 5-16 10-82 10-148v-119h180l-55 90-56 89 22 74 21 74 67 12c36 7 206 28 376 47 430 47 546 68 697 126 46 17 93 44 120 68l43 39-60 1c-33 1-311 11-618 23l-558 22-7-29c-4-16-12-31-18-33-5-2-26 25-47 60l-37 64 51 109c50 107 52 112 65 253l13 145-29 48c-28 45-28 48-10 48 15 0 31 22 65 90l45 90h-42c-24 0-62-9-85-19zM2515 13673c-16-2-55-11-85-19-242-69-367-268-388-621l-7-113h102l6 129c12 257 80 363 342 540 61 41 114 78 120 82 9 9-32 10-90 2zM18400 13618c-201-11-367-21-369-23s7-18 19-34c35-51 90-177 111-258 40-157 20-353-51-494-89-176-261-346-456-448-123-65-169-131-289-421-134-322-291-526-515-671-83-54-100-59-100-28 0 15-5 19-17 15-33-9-831-216-834-216-2 0-2-30-1-67 9-157-55-292-205-439-95-93-353-268-370-251-3 3 11 32 30 64 34 55 35 58 20 88-9 16-17 31-18 33-3 3-952-445-963-454-6-4-64-455-60-460 2-2 58 19 124 47 65 28 290 109 499 179 564 189 671 237 1055 468 410 246 699 444 920 630 106 89 384 368 566 567 822 900 1322 1667 1392 2138l9 57-66-1c-36-1-230-10-431-21zM4745 13599c-4-5-3-13 0-19 4-6-54-11-156-12l-162-3-57-197-57-196 321-5c240-3 346-9 421-22 141-24 283-25 317-3 55 36 45 145-19 205-49 46-152 93-348 158-93 31-189 67-212 80-24 13-45 19-48 14zM30891 13543c-6-38-32-139-58-227-50-170-49-154-16-268 3-11-26-39-101-98-58-44-108-85-111-90-8-13 6-40 21-40 13 0 1283 435 1289 442 2 2-6 63-18 136l-21 132h-366v80h-608l-11-67z"
    />
    <path
      d="M17616 13518c-24-46-146-272-270-503l-225-420 52-12c101-24 223-36 307-29 171 12 297 108 385 291 66 137 79 196 80 365 0 140-1 147-27 191-23 40-41 54-117 93-49 25-101 60-115 76l-25 30-45-82zM5698 13526l-67-41-1-82v-82l-40-22c-57-32-83-78-82-145 0-29 6-71 13-91 16-52 82-181 126-250 21-32 49-79 63-105l25-46 111 28c200 50 292 112 334 225 18 51 21 75 18 160s-8 109-31 157c-36 74-122 152-244 224-52 31-109 69-126 84l-32 27-67-41zm262-392c36-41 65-79 65-84 0-14-136-130-153-130-14 0-162 108-162 119-1 7 173 171 180 170 3 0 34-34 70-75zM6925 13508c-38-5-71-11-72-12-3-3-83-417-83-428 0-5 101-8 225-8 218 0 225 1 225 20s-7 20-165 20c-139 0-165 2-165 15 0 12 27 15 165 17l164 3-83 190c-94 216-78 202-211 183zM2535 13445c-169-27-208-63-264-240-13-38-34-101-48-139-23-60-24-73-14-107l12-39h138l6 38c40 250 78 306 281 416 166 89 164 86 59 85-50-1-126-7-170-14zM32600 13423c-29-100-157-578-155-581 1-1 188 68 416 154s426 161 442 166l27 10v218h-440v70h-279l-11-37zM35875 13441l-150-16-22-185c-12-102-22-200-22-218l-1-34 298 5c288 4 300 5 397 32 92 26 117 29 322 32l222 5-10 26c-15 40-77 100-131 128-26 13-112 45-190 70-79 26-168 59-199 75l-56 28-84-19c-126-29-125-29-145 35-21 64 1 61-229 36zM27425 13301c-100-42-191-81-203-86l-23-10 42-65c23-36 42-66 43-67 3-3 407 175 414 181 9 9-64 126-78 125-8-1-96-35-195-78zM3414 13289c3-19 8-50 11-70 4-28-4-53-41-130l-45-94 68 67c61 59 79 71 165 103l98 36 156-35c85-20 157-36 160-36 2 0 4 24 4 54v54l-127 4c-119 4-133 6-196 36-57 27-85 34-163 39l-95 6 5-34zM30045 13230c5-23-5-31-142-115-81-49-150-91-154-93s-13 24-21 56l-13 60-42-21-42-22 40-52 40-53h-264l36-27c20-16 36-30 37-33 0-3-46-21-102-40-55-19-105-36-109-38-5-2-12 12-18 30-5 18-10 26-10 18-1-10-57-39-163-83-90-37-166-67-170-67-5 0-8 20-8 45 0 45 0 45-35 45h-35v-50c0-27-3-50-6-50s-44 18-89 39l-84 39-24-71c-13-39-28-72-33-74s-24 22-43 53c-43 72-67 71-91-1-15-46-20-50-53-56-49-8-53-13-33-44 22-33 52-39 150-31 276 22 507 90 1012 296 406 166 419 171 567 204l28 7-52 62c-82 97-81 96-74 67zM1245 13184c-181-6-347-13-367-13l-38-1v-250h396l17 35c23 48 84 84 227 134l121 42 85-73c47-40 95-80 106-88 21-14 21-14 15 10-4 14-16 69-28 123l-22 97-91-2c-50 0-239-7-421-14zM2930 13140c-18-65-73-117-145-135-32-8-67-15-77-15-15 0-18-9-18-55v-55h168c211 0 257 11 323 79 28 29 53 67 63 96 28 83 33 79-121 99-76 10-148 20-160 23-19 4-23-1-33-37zM750 13111c-5-11-9-44-9-73l1-53 9 60c5 33 11 66 14 73 7 19-3 14-15-7zM27625 13058c-863-437-1944-695-3113-744l-164-7 179-173c98-95 186-173 195-173 9-1 54 8 100 19 153 36 355 69 725 120 600 83 819 133 1138 260 525 209 947 477 1057 670 27 48 43 100 31 99-5 0-71-32-148-71z"
    />
    <path
      d="M26948 13056c-49-17-88-36-88-43 0-18-8-16-69 17-29 16-57 27-61 25-5-3-14-27-21-53l-12-49-116-28c-64-15-130-32-148-37l-32-9 16-47c9-26 19-50 22-55 11-11 161 18 219 43 46 20 93 60 104 89 1 5 65 15 141 22 75 7 137 16 137 20s-13 16-30 25l-29 18 34 42c53 64 55 64-67 20zM30065 12946c-71-24-245-92-385-151-519-217-661-262-1070-339-256-48-439-74-615-86-158-11-269-30-331-56-21-9-71-39-113-67-41-27-104-60-139-73-34-12-65-23-67-25s16-25 38-52l42-47 165 15c1245 117 2061 366 2474 755 60 57 153 170 139 170-4-1-66-20-138-44zM0 11821c0-767 3-1161 10-1161 6 0 10 100 10 280v280l22-5c87-20 174-34 243-40 115-9 318 16 444 55 56 18 105 30 108 27 7-8 96 43 247 140 238 155 403 289 607 492 216 217 353 397 454 600 41 82 105 248 105 273 0 4-317 8-705 8s-705-3-705-7c0-10-353-9-368 1-17 10-272 36-364 36H20v84c0 47-4 88-10 91-7 4-10-383-10-1154zM26232 12880c-30-38-59-70-65-70-7 0-25 25-42 55-16 30-32 55-35 55s-25-34-50-75-48-75-52-75-10 25-13 55l-7 56-35-56c-32-51-74-85-104-85-7 0-31 21-54 47l-41 47-23-23c-16-16-21-31-18-47 2-14 0-27-5-30-5-4-43-3-84 1l-74 7v62l-42-48-43-48-102-5-103-6v34c0 33-1 32-36-31-45-80-40-76-62-57-15 14-40 17-120 17h-102v40c0 40 0 40-40 40h-40l16-39c9-22 14-50 12-63-3-26-12-27-208-13-95 7-110 6-145-13-22-11-48-29-58-39-17-19-15-21 72-62 50-24 92-48 94-54 2-8 279 38 892 148 488 88 881 161 871 163-12 3-16 15-16 58 0 53-1 54-24 48-21-5-27 0-43 36l-18 41-53-71zM5155 12894c-184-15-350-23-523-23-238-1-253-2-248-19 3-10 30-78 60-152 40-101 59-136 72-137 11-1 224 48 474 110 432 107 455 114 458 137 5 30-7 110-16 109-4-1-128-12-277-25zM31965 12875c-5-2-48-15-95-30s-194-74-327-131c-402-172-496-200-883-259-372-57-521-95-672-171-82-41-197-116-224-145-17-19-16-19 42-19 81 0 278 18 404 36 704 102 1400 362 1691 631 48 45 91 96 77 92-2 0-7-2-13-4zM6829 12831l-26-6 64-140c36-77 66-141 68-143s56 4 122 13c218 30 303 61 303 111 0 16-10 34-25 45-14 12-27 35-31 57-13 79 9 72-232 71-119-1-229-4-243-8z"
    />
    <path
      d="M3260 12790c-34-11-65-30-80-49-14-17-94-158-179-313-84-156-179-321-210-368-94-144-248-328-406-486-160-160-284-262-421-345-83-50-239-119-269-119-8 0-15-4-15-8s136-165 303-358c166-192 319-369 339-393l37-44 53 22c207 82 470 65 819-55 135-46 323-125 744-314 465-208 661-258 1215-310 118-11 289-30 380-42 221-29 372-28 625 7 220 30 396 35 490 16 33-7 94-29 135-47 87-41 74-43 255 54 456 246 793 559 1026 952 178 302 311 651 444 1173 30 116 53 212 52 212-1 1-107 65-236 143l-235 142-50-31c-95-57-231-118-321-146-89-27-92-27-395-28h-305l-60 32c-121 63-250 192-352 352-47 73-118 223-134 284l-13 47h-47c-25 0-73-3-106-6l-60-7-11-106c-24-222-45-247-262-296-101-24-192-67-332-159-128-83-222-133-308-162-48-16-85-19-280-18-216 0-229 1-315 28-289 88-539 300-674 572-22 43-47 104-56 135l-16 57-52-20c-85-32-197-33-400-4-210 31-244 31-317 6zm4720-1209c5-11 10-22 10-25 0-2-41-31-92-63l-92-58 80-8c243-23 314-99 314-333 0-105-11-131-90-209l-59-59-913-42c-502-24-983-43-1068-43-273-1-403 23-473 88-37 35-41 43-45 97-12 177 80 350 250 465 72 49 237 139 255 139 7 0 76-47 152-104 158-120 129-118 257-15 85 70 151 103 232 119 60 12 215 10 228-3 4-3-5-20-20-37-41-49-32-81 36-130 48-35 63-38 48-9-7 11-10 22-8 24 9 9 423 195 434 195 27 0 33-34 18-104-13-62-13-71 1-86 15-17 31-11 263 100 136 65 252 119 259 119 7 1 17-8 23-18z"
    />
    <path
      d="M7815 11308c-61-33-109-104-121-177-5-34-3-45 19-71 14-16 31-46 38-65l13-35h137c184 0 184 0 184 142-1 87-4 110-23 145-12 24-35 49-52 58-34 18-165 20-195 3zM7243 11284c-31-15-80-80-116-150-16-31-15-32 26-99 62-101 78-110 195-110 110 0 151 17 186 75 20 35 19 47-11 203l-17 87h-57c-31 0-83 2-115 5-44 4-67 2-91-11zM5986 11272c-14-24-26-186-17-241 11-71 22-92 57-120 24-19 40-21 174-21h147l19 48c39 101 9 238-67 307l-39 35h-134c-74 0-137-4-140-8zM6627 11253c-42-30-97-129-97-176 0-60 62-127 156-169 37-16 62-19 126-16 77 3 81 5 112 39 41 44 51 100 36 195-13 78-38 125-75 142-14 7-70 12-123 12-89 0-100-2-135-27zM27850 12770c0-40 0-40-39-40-98 0-223-62-308-153l-48-52 38-3c35-3 37-5 37-39v-36l46 43 47 43 81-6 81-6 130 137c72 75 121 132 110 127-44-18-92-17-134 4l-41 21v-40zM2316 12640c-31-71-59-136-62-145-6-15 14-16 211-13 268 4 255-4 255 154v104h-127c-81 0-145 5-174 14l-46 14-57-128zM33195 12741c-44-15-156-60-250-100-255-109-344-136-601-181-126-21-263-49-304-60-138-39-282-121-324-185l-18-28 88 7c504 39 1203 286 1438 508 39 37 67 67 61 67-5 1-46-12-90-28zM34830 12755c-47-7-164-25-260-40-212-32-457-43-585-26-49 7-148 26-219 42-70 17-131 28-133 25-3-3-1-23 5-46 25-99-26-168-219-297-85-58-117-91-190-201-106-157-300-329-569-507-392-259-774-424-1043-451-63-6-68-9-63-28 2-12 26-156 52-321s49-301 49-303c1-1 33 12 71 30 69 33 70 33 219 32 209 0 321-35 480-149 115-82 215-215 215-286 0-23 19-43 113-120 154-127 142-112 122-143l-17-26 48 6c277 32 635 191 1054 469 85 56 207 142 270 191 117 91 360 322 360 343 0 13-29 13-205 2-161-11-204-5-224 31-14 25-13 31 26 110 79 158 224 341 344 434 66 51 192 114 227 114 23 0 24-2 18-52-6-52-6-52 9-26 9 15 26 30 38 33s104 23 205 44c100 21 184 40 186 42 17 17 166 364 166 386 0 15-16 120-35 233s-35 208-35 211-62 14-139 24l-139 18-22 109-23 108-36-1c-20-1-74-7-121-14zM17105 12422l-110-26-233-309c-129-170-232-311-229-313 7-7 541 26 549 34 6 7 248 559 248 567 0 7-98 75-106 74-5-1-58-13-119-27zM26873 12249l-253-131v-143l36 43c20 23 40 42 45 42s15-11 21-25c9-19 19-25 45-25 31 0 33 2 33 33v33h83c84-1 84-1 221 67 75 37 150 70 167 74 16 3 29 9 29 13 0 7-156 143-168 147-4 1-121-57-259-128zM2161 12323c-38-40-121-175-121-197 0-3 89-6 198-6h198l36 73 36 72-30 43c-17 24-41 47-55 53-13 5-68 9-120 9h-97l-45-47zM24230 12243c1-30 44-125 85-188 54-81 185-217 256-264 63-42 145-78 156-68 11 12-27 92-67 141-22 27-89 88-149 137-124 101-153 132-189 206-24 48-29 53-59 53-25 0-33-4-33-17zM35741 12008c24-90 24-123-1-223-11-44-20-86-20-92 0-18 47-17 258 9l182 22v26c1 14 7 52 15 85s15 102 15 153v92h-468l19-72zM35529 12020c-60-31-107-96-175-240-36-74-73-151-83-170-18-35-18-35 23-207 22-95 43-173 46-173s80 156 171 348l165 347-34 58c-38 64-53 69-113 37zM26905 11927c-177-61-179-62-134-68 24-4 83-19 129-34 72-23 108-28 229-33 166-5 159-20 51 116-36 45-72 82-80 81-8 0-96-28-195-62zM31895 11889c-422-66-524-79-590-75-44 3-88 8-99 12-18 7-18 1-14-117 4-104 9-136 32-194 15-38 30-73 34-77 10-10 321 71 467 123 271 94 527 236 693 380 30 27 31 29 10 28-13-1-252-37-533-80zM8920 11723c0-159-4-152 74-128 41 13 150 15 678 15 347 0 628 3 626 8-2 4-26 52-55 108l-52 101-138-19c-230-32-481-25-840 21l-293 38v-144zM30390 11859c0-7 33-44 73-83 123-120 327-220 551-271l29-6-6 73c-15 190-89 265-282 288-126 14-365 13-365-1zM8681 11435c-202-602-278-767-514-1120-144-215-237-335-357-455-114-115-175-159-405-295-82-48-167-105-189-127-21-21-47-38-57-38-16 0-19 8-19 53v54l-179-36-178-35-7-119c-6-94-5-122 6-128 7-5 97-9 199-9 181 0 397-16 629-45 146-19 203-19 271 1 148 43 280 189 375 415 74 174 381 1305 478 1759 46 214 78 413 74 459-2 28-29-42-127-334zM1755 11778c-32-17-94-79-126-125l-30-43h327l41 90 41 90h-116c-66 0-126-5-137-12zM29994 11698c16-222 38-331 90-443 45-97 113-183 308-391 260-278 412-410 560-484 45-22 83-38 86-36 6 6-47 245-60 269-5 10-8 20-6 22 2 1 114 11 249 21l245 18-56 283c-32 156-59 285-61 287-2 1-40 15-84 31-96 34-554 262-823 410l-193 105h-262l7-92zM28715 11740c-594-10-1088-19-1097-19-24-1-23-17 6-103 37-110 49-217 44-400-4-163-4-163-50-298-25-74-49-154-52-177-5-36-4-41 12-37 9 1 514 45 1122 95 608 51 1106 93 1108 94 1 1 7 29 12 62 5 32 29 108 52 168l42 110 3 195c3 168 1 204-15 260l-19 65-44 1c-24 1-530-7-1124-16zM16239 11458c-118-127-220-240-227-249-10-15 2-13 75 12 49 16 153 43 233 59 249 52 361 99 469 197 83 74 159 173 134 173-10 0-108 9-218 20s-212 20-226 20c-21 0-66-43-240-232zM27305 11654c-76-14-141-27-143-29s-12-38-22-80l-18-77 35 7c19 3 42 9 50 12 21 8 27 18-159-249-141-201-158-229-147-246 10-16 18-18 43-11 17 5 43 9 57 9 51 0 38-25-37-74-44-29-76-57-79-70-16-68-65-289-65-292 0-8-39-4-44 5-4 5 10 55 30 111 31 84 35 103 23 111-8 4-17 5-21 1s-54-106-111-227c-89-187-108-220-126-219-11 0-21-3-21-7 0-13 50-47 86-59 19-6 34-17 34-24 0-6-18-29-39-50-51-50-79-45-118 22l-28 47-6-65c-9-86 3-193 37-321 24-91 28-122 27-254 0-161-15-250-54-328-71-140-162-185-420-206-157-14-272-34-331-60-57-25-120-72-147-109l-21-30 52-20 53-20-45-11c-65-16-145-56-218-108-137-98-321-309-443-507-52-85-62-96-74-76-9 15-185-138-178-156 8-21-6-17-43 11l-32 25-99-98c-252-252-839-626-1513-967-354-178-699-327-860-370-36-10-70-23-76-29-7-6-42-139-78-296-37-157-69-292-72-301-4-14 14-17 138-22 169-7 334-27 833-102 693-103 871-120 1167-112 241 6 335 25 505 107 329 157 582 375 852 735 220 293 351 531 741 1350 747 1569 1246 2745 1355 3198 38 158 30 296-30 500-19 67-4 65-200 31zM35567 11418c-46-90-140-271-207-403-164-320-248-472-425-770-178-299-226-366-352-485-117-111-252-202-393-264-102-46-245-124-238-131 6-6 162 16 223 31 146 38 312 123 473 243 117 88 346 318 526 529l148 172-36 50c-20 28-36 55-36 60 0 19 137 238 416 667 49 75 113 154 196 241 68 70 138 149 156 175l33 47h-400l-84-162z"
    />
    <path
      d="M9630 11504c-349-18-660-34-690-36l-55-3-37-110c-48-142-113-399-232-915-115-497-153-638-213-790-92-236-148-321-370-572-46-51-83-98-83-105 0-9 20-11 78-8 42 3 156 7 252 10 629 18 1252 144 1805 367 411 165 593 288 704 476 22 37 82 173 134 302s120 290 153 356l59 121-149 143c-132 125-150 140-160 123-5-10-51-153-101-318-82-269-90-301-76-312s14-12 1-13c-9 0-325-18-704-40s-690-39-691-38c-3 4 330 1056 336 1062 2 2 200 14 439 26 239 11 447 22 461 23l27 2-68 143-69 142-58-1c-32-1-344-16-693-35zM1419 11482c-14-9-44-33-67-52l-41-35 21-35c64-106 137-165 221-176 26-4 47-5 47-3 0 3 9 67 20 144s20 148 20 158c0 15-11 17-97 17-77 0-104-4-124-18zM1789 11486c-32-18-56-66-69-137-20-106-23-105 88-52 53 25 126 59 161 75l64 30-45 45c-43 42-49 45-109 49-45 3-72 0-90-10zM34598 11263l-68-55-42 15c-24 8-50 18-59 21-11 5-22-7-42-46-32-63-35-103-8-118 11-5 86-10 170-10 176 0 160-17 133 147l-17 102-67-56zM34987 10974c-101-22-226-70-304-116-106-64-177-120-365-291-246-224-307-265-624-422-383-189-490-266-582-417-30-50-77-166-70-173 2-2 203-16 447-31 428-27 448-27 525-11 203 41 412 198 610 456 142 186 264 391 463 779l125 242-79-1c-43 0-109-7-146-15zM28591 10675c-1111-105-1110-105-1111-143 0-25-95-272-180-472-146-341-295-657-740-1575-133-275-298-621-367-770-343-746-629-1203-976-1562-340-352-657-525-1024-558l-73-7v-138h114c333 0 712 59 1016 160 245 80 441 171 707 326 159 93 706 438 813 513 535 374 1086 901 1346 1287 87 130 177 310 198 397 9 38-1 36-172-29-414-157-560-206-683-225-78-12-143 0-159 31-26 48 0 135 61 205 78 88 196 138 479 200 193 42 311 76 397 115 63 29 158 89 151 96-8 7-146-36-323-102-317-117-445-149-506-124-17 7-34 23-39 35-20 53 33 178 103 242 81 75 151 100 407 148 221 41 309 65 394 105 64 30 151 88 144 95-10 11-205-40-400-104-219-72-343-100-391-88-62 16-72 63-32 143 31 63 121 164 166 187 19 9 243 69 499 133s466 117 467 118 0 12-4 24c-3 13-13 22-25 22-30 0-167-36-323-85-218-68-324-95-405-101-67-6-78-4-102 16-38 29-37 78 3 158 49 100 147 171 283 206 30 8 115 22 188 31 327 39 376 52 441 115 39 40 48 65 20 56-34-10-519-115-611-133-84-15-96-16-120-2-19 10-28 24-30 48-7 74 98 216 203 275 121 67 202 87 455 111 274 25 376 51 486 124 147 97 245 240 328 479 38 108 41 123 29 121-5-1-500-48-1102-104zM31960 10513c-14-2-67-15-119-29-153-39-201-40-311-9-125 37-252 44-305 19-27-12-43-30-56-59-17-39-18-48-4-136 20-132 100-480 118-515 52-101 180-128 463-100 311 31 433 19 493-49 17-20 31-40 31-45 0-6 17-10 39-10h38l7 65c4 35 18 136 31 222 29 182 32 335 10 410-18 60-70 112-166 166-104 58-200 83-269 70zM26066 10296c-52-20-113-82-165-169l-44-71 38-326 37-325 62-109 61-108 76 5c133 9 213 58 249 154 18 48 20 78 20 276 0 238-14 369-50 479-26 76-71 147-115 177-41 28-118 36-169 17zM2535 10163c-22-37-45-68-50-70-6-2-23 22-39 52-20 38-34 55-45 52-9-2-15-10-13-18s93-211 204-452l202-437 240 2c158 1 265-2 311-10 79-15 159-54 187-93 26-35 39-95 32-146l-6-43h-582l28-29c39-40 127-86 213-110 86-23 272-44 363-39 61 3 66 5 87 37 62 92 98 288 90 489-16 428-250 709-689 827-116 31-292 55-406 55l-87-1-40-66zM25457 10215c-70-26-162-110-210-190-3-6 3-174 13-373l18-362 48-68c27-37 66-87 88-110l40-44 55 7c117 15 208 67 256 148 39 68 55 156 55 316 0 321-78 600-188 673-33 22-120 23-175 3zM24730 10156c-91-54-137-97-162-155l-20-43 38-423 38-423 35-18c19-11 50-40 68-66 40-54 56-62 138-60 106 3 184 42 235 121 58 87 65 129 65 406 0 261-8 339-46 441-42 110-137 205-243 240-28 9-55 18-61 20-5 2-44-16-85-40zM23980 10117c-59-47-102-114-127-201-11-36-17-118-20-276-6-266 5-348 69-505 22-55 55-138 74-185l33-85 108 1c203 2 311 67 348 209 18 71 21 480 5 613-20 158-74 262-175 337-46 34-234 135-252 135-5 0-33-19-63-43zM23665 9998c-142-106-380-345-467-468-122-173-202-352-229-513-7-42-11-78-8-80 6-6 893-56 898-51 3 3-23 87-57 187-33 100-66 211-71 247-6 36-11 167-11 291 0 234 3 260 54 422 8 26 12 47 8 47s-57-37-117-82zM14004 9822l-251-117 226-101c124-56 229-99 232-95 7 6 52 422 46 427-1 2-115-50-253-114zM30941 9863c10-53 24-73 50-73 24 0 39-29 46-90l6-50h107v38c0 21-7 61-15 89-22 74-69 109-171 127l-31 5 8-46zM32855 9813c-38-8-72-17-74-19-2-1 4-35 14-74 14-56 21-70 34-66 9 3 48 13 86 22 39 9 73 20 77 23 3 3 1 33-6 66-14 70-19 72-131 48zM4078 9679c6-7 12-17 12-21s-62-49-137-99c-76-50-141-94-145-98-4-3 60-67 142-141 142-126 149-135 133-152-11-12-12-18-4-18 7 0 546 43 1198 95 653 52 1192 95 1200 95 9 0 13 17 13 65 0 75 16 66-160 90-63 9-125 18-137 20-21 5-23 2-23-35v-40h-842l-40 32c-52 41-116 47-212 20l-68-20-45 34c-55 42-99 45-151 9-42-29-52-31-52-11 0 11-23 16-94 21l-94 7-16 43-17 42-202 32c-111 18-218 35-237 38-29 4-33 3-22-8zM13340 9599c-102-26-197-48-212-49-38 0-36-22 8-96 85-142 238-321 604-709 119-126 267-286 328-355 247-278 505-458 846-591 94-37 288-99 308-99 10 0-33 62-233 335-280 382-334 468-499 785-177 341-275 487-411 615-114 107-209 160-348 196-114 29-180 24-391-32zM32415 9237c-137-50-251-91-252-92-3-1 85-457 89-460 2-1 73-5 158-9l156-7 52 327c29 180 52 327 50 328-2 2-115-38-253-87zM5160 9108c-695-60-1265-110-1266-111s-11-34-22-74l-20-71 31 4c18 3 559 54 1202 115 1078 102 1307 119 1357 103 16-5 18 2 18 70 0 66-2 76-17 75-10-1-587-51-1283-111zM6195 8914c-38-7-248-24-467-36l-396-22 30-86c88-249 245-533 323-584 20-13 61-16 248-16 220 0 224 0 245 23 32 34 60 127 76 251 18 137 32 486 20 485-5-1-40-7-79-15zM14894 7655c-4-9 156-498 355-1088 199-589 366-1088 371-1107l10-35 982-78c541-44 990-81 999-83 10-3 39-59 74-146l58-141-39-34c-104-88-209-112-499-113-171 0-278 8-740 55-297 29-540 53-542 52-1-1 9-28 21-59 55-134 165-237 351-329 136-66 248-101 418-130 108-19 152-20 495-16 346 3 384 5 459 25 213 56 331 165 392 364 33 109 50 270 61 575 6 159 17 441 25 628s18 467 21 622l7 281-54 27c-30 15-180 97-333 183-312 173-418 227-533 273-309 124-564 177-900 186-281 8-439-14-569-80-67-34-106-67-129-111-11-20-24-36-29-36s-165 74-355 165c-191 91-352 165-359 165s-15-7-18-15zM14965 6882c-35-12-56-27-73-52-22-32-24-42-19-130 3-69 13-124 38-202l33-108h109c99 0 108 2 103 18-3 9-35 123-72 252-36 129-67 236-67 237-1 0-24-6-52-15zM18448 6505c-23-15-47-46-64-82-25-51-29-70-32-179-4-111-2-127 17-168 27-56 78-101 149-134 45-20 65-24 116-20 70 6 134 35 165 74 19 25 21 39 21 189 0 177-4 197-59 272-45 61-74 73-183 73-83 0-97-3-130-25zM21315 6344l-530-115-265 6c-238 4-287 3-475-19l-210-24-42 40-42 41-56-21c-31-12-63-22-71-22-7 0-29 17-49 38-34 36-35 36-41 14-4-13-12-21-18-19-76 28-517 159-522 155-3-3-1-226 5-494 6-269 11-519 11-556v-67l48 21c140 63 464 157 1073 313 185 47 545 144 800 216s536 148 624 170c88 21 171 47 185 57 41 31 59 72 91 213 16 74 32 142 35 152s0 17-8 16c-7 0-251-52-543-115z"
    />
    <path
      d="M18240 5737v-327l71 74c39 41 94 90 122 108 48 31 57 33 137 33 99 0 145-18 228-89 57-49 121-91 128-84 2 3 3 116 2 252l-3 246-55-46c-94-78-120-88-247-92-106-4-115-3-155 21-42 25-117 98-190 187l-38 45v-328zM14990 5931c-72-39-75-46-78-220-2-132 0-165 16-211l19-55 64-17c135-35 234-17 273 50 38 67 31 245-15 334-25 49-75 105-110 124-39 20-126 17-169-5zM20350 5571l-1345-378-7-47c-24-171-120-300-251-338-23-7-95-12-159-12-104 1-123 4-165 26-38 19-53 35-75 78-15 30-35 60-44 67-23 17-86 17-105 1-13-11-89-334-89-378 0-42 361 56 1250 340 239 76 509 161 600 189 195 59 1133 337 1305 387 66 19 157 53 202 75 141 70 231 187 250 325 4 34 3 44-8 43-8 0-619-171-1359-378zM21971 5819c-56-11-110-39-129-67-13-19-12-22 10-26 12-3 487-62 1053-131 567-69 1047-128 1068-131l37-6v131l-32 5c-18 3-64 8-103 11-115 10-1023 133-1260 170-345 54-529 67-644 44z"
    />
    <path
      d="M18444 5448c-67-46-94-101-94-192 0-176 43-294 120-334 40-21 56-23 151-20 117 4 145 15 179 71 17 28 20 51 20 173 0 156-12 213-55 269-40 54-71 65-178 65-90 0-97-2-143-32zM15710 5327c0-27 39-126 63-162 53-77 119-106 292-125 55-6 177-22 271-36 336-47 482-57 824-58 350-1 386 3 416 50 20 30 13 72-24 139-22 41-33 51-62 58-19 4-411 36-870 72s-852 67-872 70c-28 4-38 2-38-8zM20280 5089c-476-137-868-250-871-252-7-2 457-1217 469-1229 4-3 106-16 227-29 121-12 224-25 228-29 7-6 97-1603 97-1727v-43h88l6 98c3 53 15 457 27 897 11 440 22 809 24 820 4 17 38 32 195 85 154 52 191 69 195 85 2 11 43 360 90 775s87 765 89 778c2 12 3 22 2 21 0 0-390-112-866-250zM37280 5225c0-24 3-25 60-25s60 1 60 25-3 25-60 25-60-1-60-25zM38000 5151v-27l61 10c65 11 61 16-23 35-37 9-38 8-38-18z"
    />
  </g>
</svg>
