<svg xmlns="http://www.w3.org/2000/svg" id="root" viewBox="0 0 100 57">
  <g>
    <path
      d="M 76.453125 51.617188 C 74.867188 51.484375 74.800781 51.472656 74.800781 50.984375 C 74.800781 50.574219 74.828125 50.546875 75.371094 50.46875 C 75.671875 50.425781 77.53125 50.347656 79.5 50.308594 L 83.074219 50.214844 L 83.140625 49.394531 C 83.179688 48.933594 83.324219 48.378906 83.457031 48.152344 C 83.667969 47.796875 83.773438 47.742188 84.246094 47.742188 C 84.988281 47.742188 85.144531 47.96875 85.222656 49.183594 C 85.277344 49.9375 85.34375 50.203125 85.488281 50.230469 C 85.644531 50.253906 85.6875 50.136719 85.644531 49.699219 C 85.632812 49.382812 85.6875 48.839844 85.777344 48.46875 L 85.949219 47.808594 L 86.542969 47.808594 C 87.085938 47.808594 87.152344 47.847656 87.363281 48.269531 C 87.507812 48.550781 87.597656 49.039062 87.597656 49.5 L 87.597656 50.253906 L 88.628906 50.253906 C 90.144531 50.253906 90.183594 50.230469 90.289062 49.371094 C 90.328125 48.972656 90.460938 48.445312 90.566406 48.191406 C 90.726562 47.796875 90.816406 47.742188 91.214844 47.742188 C 91.832031 47.742188 92.042969 48.085938 92.175781 49.261719 L 92.28125 50.1875 L 100 50.1875 L 100 51.710938 L 88.496094 51.683594 C 82.164062 51.671875 76.742188 51.644531 76.453125 51.617188 Z M 33.3125 51.101562 C 31.953125 50.96875 31.914062 50.941406 31.953125 50.414062 L 31.992188 49.925781 L 33.441406 49.820312 C 34.246094 49.765625 39.15625 49.738281 44.355469 49.753906 C 53.707031 49.792969 53.8125 49.792969 53.285156 49.542969 C 52.996094 49.410156 52.425781 48.984375 52.03125 48.601562 C 51.398438 47.980469 51.320312 47.847656 51.320312 47.359375 C 51.320312 46.988281 51.265625 46.816406 51.132812 46.816406 C 51.042969 46.816406 50.792969 46.683594 50.582031 46.527344 C 50.238281 46.246094 50.117188 46.234375 48.246094 46.273438 C 46.332031 46.3125 46.292969 46.300781 46.214844 46.023438 C 46.160156 45.851562 46.070312 45.773438 45.949219 45.8125 C 45.199219 46.101562 42.980469 46.578125 41.769531 46.699219 C 39.960938 46.882812 27.980469 46.910156 26.34375 46.738281 L 25.171875 46.605469 L 24.855469 46.976562 C 24.273438 47.691406 23.484375 47.925781 21.703125 47.925781 C 19.644531 47.941406 17.847656 47.476562 16.726562 46.644531 C 16.226562 46.273438 15.582031 45.324219 15.289062 44.527344 C 14.777344 43.152344 14.839844 40.640625 15.421875 39.503906 C 15.644531 39.066406 15.644531 39.066406 15.34375 39.121094 C 15.183594 39.144531 14.933594 39.132812 14.816406 39.078125 C 14.589844 38.988281 14.605469 38.972656 14.839844 38.882812 C 14.988281 38.816406 11.808594 38.777344 7.785156 38.777344 C 3.761719 38.777344 0.566406 38.800781 0.6875 38.84375 C 1.132812 38.960938 0.949219 39.277344 0.449219 39.277344 L -0.0117188 39.277344 L 0.0273438 35.90625 C 0.0546875 34.054688 0.117188 32.507812 0.171875 32.453125 C 0.210938 32.402344 0.34375 32.429688 0.433594 32.507812 C 0.566406 32.625 0.671875 32.613281 0.871094 32.46875 C 1.003906 32.363281 1.199219 32.269531 1.292969 32.269531 C 1.464844 32.269531 2.386719 32.984375 3.230469 33.761719 C 3.851562 34.34375 4.261719 34.503906 5.753906 34.78125 C 6.515625 34.914062 7.296875 35.140625 7.480469 35.269531 C 7.664062 35.402344 7.902344 35.5625 7.996094 35.640625 C 8.167969 35.761719 9.035156 35.589844 10.832031 35.074219 L 11.703125 34.808594 L 12.730469 35.335938 C 13.46875 35.707031 14.128906 35.917969 15.105469 36.105469 C 16.476562 36.34375 17.019531 36.539062 17.019531 36.765625 C 17.019531 36.84375 17.109375 36.898438 17.214844 36.898438 C 17.480469 36.898438 17.46875 37.164062 17.191406 37.375 C 16.980469 37.53125 16.992188 37.546875 17.347656 37.558594 C 17.664062 37.558594 17.808594 37.464844 17.996094 37.148438 C 18.613281 36.105469 19.894531 34.796875 21.78125 33.300781 C 22.441406 32.785156 24.289062 31.753906 25.304688 31.355469 C 26.054688 31.066406 26.1875 30.972656 26.148438 30.722656 C 26.109375 30.496094 26.003906 30.417969 25.621094 30.390625 L 25.132812 30.351562 L 25.144531 29.730469 C 25.144531 29.308594 25.222656 29.015625 25.410156 28.816406 C 25.804688 28.382812 26.582031 28.039062 27.203125 28.039062 C 27.730469 28.039062 27.847656 27.972656 28.5625 27.230469 C 29.644531 26.132812 31.160156 25.128906 31.742188 25.128906 C 32.125 25.128906 32.191406 25.074219 32.257812 24.769531 C 32.46875 23.804688 32.914062 22.589844 33.363281 21.753906 C 33.800781 20.933594 33.90625 20.828125 34.273438 20.789062 C 34.671875 20.75 34.695312 20.710938 34.695312 20.261719 C 34.695312 19.917969 34.800781 19.652344 35.027344 19.402344 C 35.34375 19.070312 35.460938 19.042969 36.386719 19.019531 C 36.9375 19.003906 37.175781 18.976562 36.898438 18.953125 C 36.410156 18.898438 36.398438 18.886719 36.4375 18.410156 C 36.476562 17.984375 36.570312 17.855469 37.203125 17.429688 C 37.679688 17.101562 38.273438 16.847656 38.878906 16.691406 C 39.722656 16.492188 39.839844 16.425781 39.839844 16.175781 C 39.839844 16.003906 39.894531 15.871094 39.945312 15.871094 C 40.011719 15.871094 40.054688 15.59375 40.054688 15.25 L 40.039062 14.613281 L 40.6875 14.574219 C 41.042969 14.546875 41.398438 14.601562 41.476562 14.679688 C 41.558594 14.757812 41.648438 15.222656 41.6875 15.699219 L 41.753906 16.585938 L 42.679688 16.808594 C 43.457031 16.996094 43.628906 17.007812 43.800781 16.863281 C 43.917969 16.757812 44.445312 16.4375 44.988281 16.160156 L 45.964844 15.644531 L 46.175781 14.535156 L 46.386719 13.421875 L 46.859375 13.382812 C 47.320312 13.34375 47.320312 13.34375 47.414062 13.964844 C 47.453125 14.308594 47.492188 14.785156 47.492188 15.035156 C 47.492188 15.445312 47.546875 15.5 48.125 15.75 C 48.46875 15.898438 48.878906 16.132812 49.023438 16.28125 L 49.3125 16.542969 L 49.40625 15.910156 C 49.460938 15.566406 49.578125 13.875 49.65625 12.167969 L 49.800781 9.058594 L 50.304688 9.019531 C 50.566406 8.992188 50.804688 8.992188 50.804688 9.019531 C 50.816406 9.046875 50.898438 10.925781 50.976562 13.210938 L 51.121094 17.378906 L 52.042969 17.535156 C 52.558594 17.628906 53.746094 17.90625 54.695312 18.15625 L 56.410156 18.609375 L 56.648438 16.875 C 56.78125 15.921875 56.925781 15.089844 56.980469 15.035156 C 57.042969 14.972656 57.296875 14.945312 57.53125 14.972656 L 57.980469 15.011719 L 58.0625 15.871094 C 58.113281 16.347656 58.152344 17.246094 58.167969 17.878906 C 58.179688 18.910156 58.207031 19.03125 58.441406 19.109375 C 58.589844 19.164062 58.890625 19.386719 59.101562 19.613281 L 59.5 20.035156 L 59.5 19.558594 C 59.5 19.136719 59.550781 19.042969 59.960938 18.859375 C 60.210938 18.738281 60.488281 18.5 60.566406 18.34375 C 60.765625 17.960938 61.304688 17.496094 61.820312 17.273438 C 62.230469 17.085938 62.230469 17.085938 62.308594 15.789062 C 62.363281 15.0625 62.402344 13.78125 62.402344 12.933594 C 62.402344 12.085938 62.441406 11.308594 62.480469 11.1875 C 62.53125 11.054688 62.71875 10.976562 62.996094 10.976562 C 63.417969 10.976562 63.417969 10.988281 63.496094 11.675781 C 63.535156 12.046875 63.613281 13.476562 63.667969 14.839844 L 63.761719 17.3125 L 64.261719 17.65625 C 64.523438 17.855469 65 18.355469 65.304688 18.792969 C 65.605469 19.230469 66.015625 19.664062 66.214844 19.746094 C 66.398438 19.824219 66.808594 20.101562 67.125 20.339844 C 67.574219 20.710938 67.679688 20.871094 67.679688 21.238281 C 67.679688 21.542969 67.742188 21.6875 67.863281 21.6875 C 67.96875 21.6875 68.140625 21.730469 68.246094 21.769531 C 68.390625 21.820312 68.457031 21.742188 68.496094 21.476562 C 68.589844 20.65625 70.222656 19.96875 72.085938 19.96875 C 74.140625 19.96875 75.964844 20.695312 77.320312 22.085938 C 78.402344 23.183594 78.761719 24.015625 78.761719 25.433594 C 78.761719 25.960938 78.8125 26.449219 78.878906 26.53125 C 78.945312 26.59375 79.023438 26.832031 79.050781 27.046875 C 79.078125 27.335938 79.167969 27.457031 79.378906 27.480469 C 79.75 27.535156 80.289062 28.183594 80.765625 29.121094 C 81.371094 30.3125 81.53125 32.46875 81.121094 33.816406 C 80.949219 34.359375 80.078125 35.140625 79.523438 35.246094 C 79.289062 35.285156 78.507812 35.269531 77.808594 35.21875 L 76.515625 35.097656 L 76.515625 35.640625 C 76.515625 35.933594 76.425781 36.304688 76.320312 36.460938 C 76.132812 36.726562 76.148438 36.765625 76.636719 37.148438 C 77.242188 37.636719 77.835938 37.703125 77.835938 37.28125 C 77.835938 36.882812 78.574219 36.632812 79.734375 36.632812 C 80.84375 36.632812 82.042969 37.003906 82.519531 37.480469 C 82.71875 37.679688 82.929688 37.746094 83.257812 37.71875 C 84.15625 37.636719 85.066406 38.800781 85.183594 40.203125 L 85.265625 40.996094 L 84.789062 40.996094 C 84.394531 40.996094 84.273438 40.929688 84.117188 40.613281 C 83.824219 40.058594 83.589844 40.03125 83.179688 40.496094 C 82.835938 40.878906 82.824219 40.929688 82.914062 41.871094 C 83.007812 42.953125 83.179688 43.085938 83.8125 42.585938 C 83.996094 42.4375 84.328125 42.320312 84.550781 42.320312 C 84.933594 42.320312 84.960938 42.347656 84.960938 42.824219 C 84.945312 44.027344 83.628906 45.558594 82.242188 45.96875 C 81.386719 46.222656 79.433594 46.167969 79.089844 45.890625 C 78.929688 45.757812 78.800781 45.8125 78.378906 46.140625 C 77.257812 47.042969 75.710938 47.425781 73.628906 47.320312 C 72.742188 47.28125 72.175781 47.171875 71.753906 46.988281 L 71.132812 46.710938 L 70.433594 47.425781 C 70 47.863281 69.355469 48.324219 68.746094 48.628906 L 67.742188 49.132812 L 65.832031 49.132812 C 64.011719 49.132812 63.867188 49.117188 63.019531 48.746094 L 62.125 48.363281 L 61.832031 48.640625 C 61.320312 49.132812 59.800781 49.738281 58.613281 49.949219 C 57.441406 50.148438 54.710938 50.148438 54.15625 49.9375 C 53.917969 49.84375 53.917969 49.859375 54.128906 49.992188 C 54.261719 50.082031 54.355469 50.308594 54.355469 50.574219 L 54.355469 51.023438 L 53.273438 51.089844 C 52.058594 51.167969 34.140625 51.167969 33.3125 51.101562 Z M 61.992188 45.03125 C 62.203125 44.847656 62.480469 44.421875 62.613281 44.105469 C 63.167969 42.652344 62.214844 40.402344 61.265625 40.890625 C 61.132812 40.972656 60.816406 41.234375 60.59375 41.488281 C 60.210938 41.882812 60.160156 42.027344 60.160156 42.636719 C 60.160156 43.019531 60.25 43.628906 60.355469 43.988281 C 60.460938 44.34375 60.554688 44.765625 60.554688 44.925781 C 60.554688 45.148438 60.644531 45.230469 60.988281 45.269531 C 61.214844 45.296875 61.453125 45.335938 61.503906 45.335938 C 61.542969 45.347656 61.769531 45.214844 61.992188 45.03125 Z M 70.726562 44.027344 C 70.9375 43.800781 71.175781 43.351562 71.253906 43.035156 C 71.332031 42.71875 71.476562 42.453125 71.570312 42.453125 C 71.78125 42.453125 71.898438 41.988281 71.808594 41.511719 C 71.753906 41.210938 71.664062 41.128906 71.410156 41.128906 C 71.226562 41.128906 70.910156 40.984375 70.6875 40.800781 C 70.265625 40.441406 69.933594 40.496094 69.617188 40.996094 C 69.539062 41.144531 69.378906 41.261719 69.273438 41.261719 C 69.089844 41.261719 69.101562 41.855469 69.339844 43.816406 C 69.417969 44.421875 69.433594 44.4375 69.882812 44.4375 C 70.222656 44.4375 70.433594 44.332031 70.726562 44.027344 Z M 78.3125 43.3125 C 78.46875 43.207031 78.667969 42.929688 78.773438 42.691406 C 78.867188 42.453125 79.078125 42.121094 79.246094 41.964844 C 79.417969 41.804688 79.550781 41.511719 79.550781 41.328125 C 79.550781 41.050781 79.484375 40.996094 79.183594 40.996094 C 78.917969 40.996094 78.71875 40.878906 78.523438 40.601562 C 78.179688 40.136719 77.980469 40.175781 77.492188 40.824219 C 77.164062 41.261719 77.152344 41.328125 77.242188 42.398438 C 77.335938 43.496094 77.335938 43.511719 77.691406 43.511719 C 77.875 43.511719 78.167969 43.417969 78.3125 43.3125 Z M 36.6875 40.335938 C 37.363281 39.039062 38.191406 37.230469 38.324219 36.804688 C 38.546875 36.011719 37.742188 36.898438 37.019531 38.246094 C 36.570312 39.066406 36.121094 40.363281 35.964844 41.261719 C 35.859375 41.871094 36.003906 41.683594 36.6875 40.335938 Z M 43.019531 39.09375 C 43.457031 38.246094 43.441406 38.023438 42.96875 38.457031 C 42.613281 38.800781 41.621094 40.628906 41.503906 41.195312 C 41.425781 41.511719 41.53125 41.433594 42.019531 40.734375 C 42.363281 40.257812 42.808594 39.53125 43.019531 39.09375 Z M 50.265625 40.257812 C 50.265625 40.152344 50.210938 40.070312 50.132812 40.070312 C 50.066406 40.070312 50 40.191406 50 40.351562 C 50 40.496094 50.066406 40.574219 50.132812 40.535156 C 50.210938 40.496094 50.265625 40.363281 50.265625 40.257812 Z M 30.816406 38.390625 C 31.109375 37.96875 31.476562 37.464844 31.664062 37.253906 C 32.175781 36.671875 32.980469 35.285156 32.980469 34.992188 C 32.980469 34.769531 32.863281 34.835938 32.335938 35.390625 C 31.980469 35.746094 31.492188 36.382812 31.265625 36.777344 C 30.871094 37.441406 30.144531 39.144531 30.265625 39.144531 C 30.289062 39.144531 30.539062 38.800781 30.816406 38.390625 Z M 61.476562 37.691406 C 61.476562 37.625 61.292969 37.558594 61.070312 37.558594 C 60.84375 37.558594 60.699219 37.613281 60.753906 37.691406 C 60.792969 37.769531 60.976562 37.824219 61.160156 37.824219 C 61.332031 37.824219 61.476562 37.769531 61.476562 37.691406 Z M 46.621094 30.933594 C 46.808594 30.707031 46.964844 30.417969 46.964844 30.285156 C 46.964844 29.941406 46.332031 29.226562 46.027344 29.226562 C 45.632812 29.226562 45.117188 29.824219 45.117188 30.257812 C 45.117188 30.707031 45.644531 31.34375 46.027344 31.34375 C 46.160156 31.34375 46.4375 31.160156 46.621094 30.933594 Z M 66.292969 30.667969 C 66.410156 30.445312 66.476562 30.191406 66.453125 30.113281 C 66.398438 29.953125 65.964844 30.695312 65.964844 30.945312 C 65.964844 31.183594 66.082031 31.09375 66.292969 30.667969 Z M 63.640625 30.445312 C 63.734375 30.246094 63.867188 29.941406 63.917969 29.757812 C 64.023438 29.4375 64.011719 29.425781 63.746094 29.664062 C 63.601562 29.796875 63.429688 30.140625 63.351562 30.429688 C 63.207031 31 63.351562 31 63.640625 30.445312 Z M 61.070312 29.824219 C 61.359375 29.265625 61.425781 28.960938 61.226562 28.960938 C 61.109375 28.960938 60.554688 30.167969 60.554688 30.429688 C 60.554688 30.667969 60.738281 30.457031 61.070312 29.824219 Z M 58.3125 29.054688 C 58.3125 28.726562 58.257812 28.578125 58.167969 28.644531 C 57.996094 28.75 57.652344 29.53125 57.652344 29.824219 C 57.652344 30.007812 57.691406 30.007812 57.980469 29.796875 C 58.21875 29.609375 58.296875 29.4375 58.3125 29.054688 Z M 34.617188 25.0625 C 34.710938 24.703125 34.417969 24.003906 34.140625 23.910156 C 33.945312 23.84375 33.628906 24.664062 33.734375 24.980469 C 33.773438 25.101562 33.90625 25.300781 34.011719 25.417969 C 34.246094 25.695312 34.5 25.550781 34.617188 25.0625 Z M 99.0625 46.484375 C 99.023438 46.460938 97.425781 46.421875 95.515625 46.421875 C 93.589844 46.40625 90.605469 46.367188 88.890625 46.328125 L 85.753906 46.246094 L 85.753906 45.824219 C 85.753906 45.496094 85.816406 45.375 86.054688 45.296875 C 86.214844 45.257812 89.417969 45.175781 93.179688 45.136719 L 100 45.058594 L 100 46.550781 L 99.566406 46.550781 C 99.3125 46.550781 99.089844 46.527344 99.0625 46.484375 Z M 99.0625 46.484375 "
    />
    <path
      d="M 5.671875 45.296875 C 5.566406 45.269531 5.199219 45.203125 4.855469 45.164062 C 4.246094 45.085938 4.222656 45.070312 4.222656 44.648438 L 4.222656 44.210938 L 5.515625 44.132812 C 6.214844 44.078125 8.546875 44.039062 10.699219 44.039062 C 15.039062 44.039062 15.09375 44.050781 15.011719 44.832031 L 14.972656 45.296875 L 10.421875 45.308594 C 7.914062 45.324219 5.777344 45.308594 5.671875 45.296875 Z M 87.558594 39.582031 C 87.507812 39.542969 87.46875 39.359375 87.46875 39.1875 C 87.46875 38.921875 87.53125 38.882812 87.980469 38.882812 C 88.273438 38.882812 88.535156 38.816406 88.5625 38.722656 C 88.601562 38.628906 88.640625 38.800781 88.640625 39.121094 L 88.65625 39.675781 L 88.152344 39.675781 C 87.875 39.675781 87.597656 39.636719 87.558594 39.582031 Z M 91.386719 35.734375 C 91.109375 35.429688 91.09375 34.597656 91.371094 34.332031 C 91.570312 34.121094 92.402344 34.042969 92.796875 34.199219 C 93.125 34.332031 93.085938 35.65625 92.757812 35.839844 C 92.347656 36.050781 91.621094 36 91.386719 35.734375 Z M 87.914062 35.507812 C 87.636719 35.085938 87.71875 33.777344 88.035156 33.273438 C 88.230469 32.984375 88.363281 32.929688 88.917969 32.929688 C 89.273438 32.929688 89.710938 32.984375 89.894531 33.0625 C 90.199219 33.167969 90.238281 33.261719 90.238281 33.828125 C 90.238281 34.359375 90.160156 34.582031 89.828125 34.992188 C 89.289062 35.695312 89.078125 35.839844 88.5625 35.839844 C 88.246094 35.839844 88.074219 35.746094 87.914062 35.507812 Z M 96.664062 31.117188 C 96.503906 30.972656 96.558594 29.953125 96.726562 29.78125 C 96.914062 29.597656 97.742188 29.570312 98.207031 29.757812 C 98.496094 29.863281 98.546875 29.96875 98.546875 30.390625 C 98.546875 30.667969 98.484375 30.960938 98.390625 31.050781 C 98.21875 31.222656 96.808594 31.277344 96.664062 31.117188 Z M 94.589844 27.652344 C 94.589844 26.964844 94.839844 26.199219 95.171875 25.933594 C 95.289062 25.839844 95.671875 25.789062 96.199219 25.816406 L 97.03125 25.855469 L 97.070312 26.582031 C 97.097656 27.152344 97.058594 27.390625 96.875 27.601562 C 96.542969 27.972656 95.726562 28.300781 95.105469 28.300781 L 94.589844 28.300781 Z M 79.710938 24.136719 C 79.617188 23.949219 79.550781 23.566406 79.550781 23.289062 C 79.550781 22.734375 79.722656 22.613281 80.554688 22.613281 C 81.238281 22.613281 81.425781 22.851562 81.371094 23.671875 L 81.332031 24.398438 L 80.59375 24.441406 C 79.921875 24.480469 79.855469 24.453125 79.710938 24.136719 Z M 69.261719 19.125 C 69.261719 18.726562 69.328125 18.355469 69.394531 18.316406 C 69.472656 18.265625 69.855469 18.199219 70.25 18.15625 C 71.160156 18.066406 71.371094 18.222656 71.371094 18.976562 C 71.371094 19.535156 71.359375 19.546875 70.792969 19.691406 C 70.460938 19.769531 69.988281 19.835938 69.734375 19.835938 L 69.261719 19.835938 Z M 80.34375 18.289062 C 80.34375 17.789062 80.421875 17.5625 80.710938 17.230469 C 81.054688 16.808594 81.121094 16.796875 82.03125 16.796875 L 82.980469 16.796875 L 82.980469 17.511719 C 82.980469 18.078125 82.914062 18.277344 82.652344 18.566406 C 82.363281 18.886719 82.242188 18.910156 81.332031 18.910156 L 80.34375 18.910156 Z M 73.085938 18.5 C 72.835938 18.34375 72.585938 18.144531 72.53125 18.066406 C 72.386719 17.855469 72.402344 16.863281 72.558594 16.453125 C 72.703125 16.09375 72.703125 16.09375 73.695312 16.1875 C 74.246094 16.226562 74.75 16.292969 74.816406 16.347656 C 75.105469 16.519531 74.828125 18.460938 74.484375 18.671875 C 74.207031 18.859375 73.546875 18.78125 73.085938 18.5 Z M 85.449219 14.863281 C 85.277344 14.691406 85.355469 13.792969 85.539062 13.636719 C 85.660156 13.542969 86.042969 13.488281 86.503906 13.515625 L 87.269531 13.554688 L 87.269531 14.878906 L 86.410156 14.917969 C 85.9375 14.945312 85.5 14.917969 85.449219 14.863281 Z M 85.449219 14.863281 "
    />
    <path
      style="stroke: none; fill-rule: nonzero; fill: rgb(60.784314%, 56.862745%, 35.294118%); fill-opacity: 1"
      d="M 0 47.941406 L 0 38.882812 L 7.492188 38.882812 C 13.140625 38.882812 15.027344 38.84375 15.144531 38.722656 C 15.410156 38.457031 15.34375 39.210938 15.054688 39.78125 C 13.773438 42.332031 14.945312 45.945312 17.507812 47.304688 C 18.957031 48.085938 19.960938 48.335938 21.570312 48.324219 C 23.167969 48.324219 23.972656 48.074219 24.695312 47.386719 L 25.054688 47.042969 L 28.390625 47.214844 C 30.660156 47.332031 33.167969 47.359375 36.214844 47.292969 C 41.003906 47.199219 42.507812 47.082031 43.984375 46.65625 C 45.355469 46.289062 46.003906 46.222656 46.253906 46.433594 C 46.410156 46.566406 47.058594 46.632812 48.535156 46.683594 L 50.59375 46.75 L 50.871094 47.347656 C 51.132812 47.914062 52.757812 49.59375 53.035156 49.59375 C 53.113281 49.59375 53.167969 49.714844 53.167969 49.84375 C 53.167969 50.097656 52.941406 50.109375 43.113281 50.164062 C 34.355469 50.214844 32.652344 50.253906 32.320312 50.375 C 32.28125 50.386719 32.402344 50.46875 32.585938 50.558594 C 32.824219 50.664062 35.632812 50.703125 42.613281 50.71875 C 47.941406 50.730469 52.691406 50.703125 53.152344 50.679688 C 53.917969 50.613281 53.972656 50.597656 53.746094 50.425781 C 53.523438 50.253906 53.5625 50.242188 54.15625 50.308594 C 57.136719 50.691406 58.761719 50.492188 60.671875 49.527344 C 62.019531 48.851562 62.414062 48.8125 63.429688 49.195312 C 64.339844 49.542969 66.265625 49.714844 67.125 49.527344 C 68.101562 49.304688 69.15625 48.734375 70.105469 47.925781 C 70.566406 47.53125 71.070312 47.214844 71.226562 47.214844 C 71.386719 47.214844 71.886719 47.347656 72.335938 47.492188 C 74.011719 48.058594 76.898438 47.609375 78.125 46.578125 C 78.484375 46.273438 78.5625 46.261719 79.328125 46.367188 C 80.898438 46.578125 81.792969 46.511719 82.585938 46.101562 C 83.613281 45.558594 85.039062 44.039062 85.289062 43.207031 C 85.421875 42.757812 85.449219 42.480469 85.355469 42.320312 C 85.277344 42.1875 85.222656 41.871094 85.222656 41.621094 L 85.222656 41.167969 L 86.53125 41.078125 C 87.257812 41.039062 88.007812 40.929688 88.207031 40.867188 C 88.824219 40.628906 89.566406 39.941406 90 39.199219 C 90.316406 38.671875 90.515625 38.484375 90.726562 38.484375 C 91.054688 38.484375 91.132812 38.683594 90.871094 38.800781 C 90.777344 38.84375 91.214844 38.867188 91.859375 38.84375 C 92.808594 38.816406 93.007812 38.855469 93.007812 39.015625 C 93.007812 39.121094 92.558594 39.6875 92.019531 40.269531 C 91.386719 40.945312 91.003906 41.472656 90.949219 41.738281 C 90.882812 42.070312 90.753906 42.199219 90.199219 42.464844 L 89.511719 42.78125 L 94.761719 42.824219 L 100 42.847656 L 100 57 L 0 57 Z M 99.734375 50.941406 L 99.734375 50.585938 L 95.816406 50.585938 C 92.425781 50.585938 91.886719 50.558594 91.859375 50.386719 C 91.847656 50.28125 91.792969 49.84375 91.753906 49.433594 C 91.703125 49 91.570312 48.550781 91.425781 48.378906 L 91.175781 48.074219 L 90.964844 48.601562 C 90.832031 48.894531 90.726562 49.449219 90.699219 49.859375 L 90.671875 50.585938 L 88.984375 50.625 C 87.191406 50.664062 86.792969 50.613281 87.042969 50.359375 C 87.425781 49.976562 87.019531 48.207031 86.542969 48.207031 C 86.253906 48.207031 85.988281 49.394531 86.148438 49.976562 C 86.304688 50.558594 86.238281 50.652344 85.621094 50.652344 C 84.761719 50.652344 84.722656 50.613281 84.800781 49.660156 C 84.867188 48.773438 84.644531 48.140625 84.261719 48.140625 C 83.824219 48.140625 83.324219 49.804688 83.640625 50.1875 C 83.746094 50.320312 83.761719 50.441406 83.695312 50.507812 C 83.628906 50.574219 81.9375 50.664062 79.945312 50.703125 C 77.957031 50.746094 76.054688 50.824219 75.726562 50.890625 L 75.132812 50.996094 L 75.726562 51.089844 C 76.78125 51.246094 77.214844 51.261719 88.5625 51.285156 L 99.734375 51.300781 Z M 99.777344 45.8125 L 99.839844 45.453125 L 93.285156 45.535156 C 89.207031 45.574219 86.621094 45.652344 86.410156 45.730469 C 86.160156 45.839844 86.648438 45.878906 88.390625 45.890625 C 93.695312 45.929688 99.394531 46.035156 99.460938 46.089844 C 99.589844 46.234375 99.710938 46.128906 99.777344 45.8125 Z M 14.578125 44.832031 C 14.75 44.542969 13.972656 44.460938 10.699219 44.449219 C 7.164062 44.421875 5.144531 44.515625 5.144531 44.714844 C 5.144531 44.871094 5.964844 44.914062 10.382812 44.9375 C 12.703125 44.9375 14.539062 44.898438 14.578125 44.832031 Z M 14.578125 44.832031 "
    />
    <path
      style="stroke: none; fill-rule: nonzero; fill: rgb(60.784314%, 56.862745%, 35.294118%); fill-opacity: 1"
      d="M 87.28125 39.726562 C 87.164062 39.609375 87.070312 39.304688 87.070312 39 C 87.070312 38.578125 87.109375 38.484375 87.335938 38.484375 C 87.507812 38.484375 87.574219 38.550781 87.519531 38.683594 C 87.46875 38.800781 87.519531 38.882812 87.636719 38.882812 C 87.742188 38.882812 87.863281 38.972656 87.914062 39.078125 C 88.007812 39.332031 88.257812 39.34375 88.257812 39.09375 C 88.257812 38.988281 88.335938 38.867188 88.429688 38.84375 C 88.546875 38.789062 88.535156 38.734375 88.390625 38.628906 C 88.230469 38.523438 88.285156 38.484375 88.628906 38.484375 L 89.050781 38.484375 L 89.050781 39.941406 L 88.273438 39.941406 C 87.730469 39.941406 87.414062 39.875 87.28125 39.726562 Z M 96.542969 39.449219 C 96.386719 39.410156 96.304688 39.265625 96.304688 38.988281 C 96.304688 38.644531 96.332031 38.605469 96.503906 38.75 C 96.636719 38.855469 97.058594 38.894531 97.824219 38.867188 C 98.890625 38.816406 98.945312 38.828125 98.945312 39.09375 C 98.945312 39.304688 98.839844 39.398438 98.535156 39.464844 C 98.074219 39.554688 96.898438 39.542969 96.542969 39.449219 Z M 55.777344 26.964844 C 55.488281 26.660156 55.488281 26.582031 55.738281 26.582031 C 55.84375 26.582031 55.9375 26.675781 55.9375 26.78125 C 55.9375 26.925781 56.082031 26.980469 56.4375 26.980469 C 56.703125 26.980469 57.019531 27.046875 57.125 27.113281 C 57.269531 27.203125 57.136719 27.230469 56.664062 27.230469 C 56.1875 27.230469 55.9375 27.152344 55.777344 26.964844 Z M 34.355469 26.304688 C 34.128906 26.238281 33.839844 26.066406 33.707031 25.921875 C 33.46875 25.65625 33.46875 25.65625 33.773438 25.65625 C 33.945312 25.65625 34.183594 25.5625 34.3125 25.445312 C 34.433594 25.339844 34.671875 25.261719 34.816406 25.285156 C 35.078125 25.324219 35.078125 25.351562 34.894531 25.695312 L 34.695312 26.066406 L 35.09375 25.988281 C 35.394531 25.921875 35.488281 25.949219 35.488281 26.09375 C 35.488281 26.4375 35.066406 26.515625 34.355469 26.304688 Z M 34.355469 26.304688 "
    />
    <path
      style="stroke: none; fill-rule: nonzero; fill: rgb(92.941176%, 92.54902%, 74.117647%); fill-opacity: 1"
      d="M 54.078125 50.613281 C 53.761719 50.441406 53.273438 50.230469 52.996094 50.136719 C 52.320312 49.910156 50.832031 48.496094 50.476562 47.742188 L 50.199219 47.148438 L 48.140625 47.082031 C 46.808594 47.042969 46.015625 46.960938 45.882812 46.855469 C 45.738281 46.722656 45.554688 46.738281 45.039062 46.894531 C 43.628906 47.332031 42.296875 47.503906 39.378906 47.609375 C 35.171875 47.769531 30.699219 47.769531 27.847656 47.597656 L 25.433594 47.453125 L 25.078125 47.796875 C 24.894531 47.96875 24.445312 48.257812 24.078125 48.429688 C 23.496094 48.695312 23.207031 48.722656 21.570312 48.734375 C 19.988281 48.734375 19.589844 48.695312 18.8125 48.429688 C 16.4375 47.636719 15.265625 46.59375 14.523438 44.632812 C 13.957031 43.152344 14.023438 40.640625 14.644531 39.398438 C 15.027344 38.671875 16.726562 36.898438 17.070312 36.898438 C 17.269531 36.898438 17.53125 36.648438 17.941406 36.105469 C 19.050781 34.558594 21.597656 32.441406 23.613281 31.355469 C 24.539062 30.867188 24.65625 30.761719 24.539062 30.550781 C 24.460938 30.417969 24.40625 30.007812 24.40625 29.636719 C 24.40625 29.042969 24.472656 28.898438 24.894531 28.40625 C 25.476562 27.773438 26.503906 27.242188 27.175781 27.242188 C 27.574219 27.242188 27.757812 27.125 28.296875 26.570312 C 28.996094 25.867188 30.289062 24.902344 31.121094 24.480469 C 31.503906 24.269531 31.648438 24.097656 31.78125 23.644531 C 32.097656 22.589844 32.824219 21.1875 33.351562 20.605469 C 33.628906 20.300781 33.90625 19.902344 33.957031 19.757812 C 34.011719 19.597656 34.355469 19.191406 34.734375 18.847656 C 35.605469 18.066406 35.527344 18.144531 36.09375 17.496094 C 36.582031 16.929688 38.429688 15.871094 38.929688 15.871094 C 39.140625 15.871094 39.183594 15.765625 39.183594 15.300781 C 39.183594 14.652344 39.433594 14.230469 39.972656 13.953125 C 41.109375 13.355469 42.480469 14.21875 42.480469 15.511719 C 42.480469 15.910156 42.519531 15.960938 42.980469 16.082031 C 43.417969 16.1875 43.546875 16.160156 44.355469 15.699219 C 45.289062 15.167969 45.515625 14.800781 45.515625 13.847656 C 45.515625 13.265625 46.160156 12.695312 46.820312 12.695312 C 47.652344 12.695312 48.046875 13.121094 48.167969 14.152344 C 48.257812 14.984375 48.535156 15.40625 48.695312 14.972656 C 48.746094 14.851562 48.824219 13.464844 48.878906 11.902344 L 48.972656 9.074219 L 49.40625 8.636719 C 49.988281 8.054688 50.644531 8.027344 51.1875 8.570312 C 51.648438 9.03125 51.675781 9.308594 51.792969 13.488281 C 51.832031 15.195312 51.886719 16.609375 51.914062 16.636719 C 51.925781 16.664062 52.808594 16.902344 53.851562 17.179688 L 55.765625 17.667969 L 55.9375 16.347656 C 56.09375 15.128906 56.148438 14.972656 56.542969 14.585938 C 57.335938 13.78125 58.441406 14.136719 58.707031 15.273438 C 58.785156 15.566406 58.878906 16.453125 58.929688 17.230469 C 58.972656 18.011719 59.050781 18.632812 59.089844 18.621094 C 59.589844 18.355469 60.039062 18 60.132812 17.789062 C 60.199219 17.628906 60.527344 17.3125 60.859375 17.058594 C 61.1875 16.808594 61.492188 16.476562 61.53125 16.332031 C 61.570312 16.1875 61.609375 15.207031 61.609375 14.152344 C 61.621094 11.675781 61.742188 11.015625 62.191406 10.621094 C 62.664062 10.210938 63.324219 10.222656 63.800781 10.632812 C 64.222656 10.988281 64.300781 11.480469 64.460938 14.90625 L 64.550781 17.058594 L 64.988281 17.390625 C 65.222656 17.574219 65.605469 18.011719 65.832031 18.371094 C 66.265625 19.042969 66.886719 19.480469 66.886719 19.109375 C 66.886719 18.792969 67.335938 18.886719 67.941406 19.320312 C 68.417969 19.664062 68.546875 19.707031 68.8125 19.585938 C 68.996094 19.507812 69.128906 19.335938 69.128906 19.175781 C 69.128906 19.003906 69.222656 18.910156 69.394531 18.910156 C 69.566406 18.910156 69.65625 19.003906 69.65625 19.175781 C 69.65625 19.480469 69.628906 19.480469 70.394531 19.296875 C 70.871094 19.175781 70.988281 19.082031 70.9375 18.910156 C 70.882812 18.6875 70.988281 18.671875 72.480469 18.738281 C 73.761719 18.792969 74.140625 18.859375 74.433594 19.058594 C 74.628906 19.191406 74.945312 19.308594 75.144531 19.308594 C 75.738281 19.308594 76.992188 20.089844 77.96875 21.082031 C 79.207031 22.3125 79.710938 23.328125 79.800781 24.796875 C 79.882812 25.90625 80.054688 26.277344 80.792969 26.964844 C 80.976562 27.152344 81.132812 27.390625 81.132812 27.519531 C 81.132812 27.652344 81.199219 27.800781 81.265625 27.839844 C 81.621094 28.0625 82.191406 29.320312 82.191406 29.886719 C 82.191406 30.21875 82.242188 30.839844 82.320312 31.265625 C 82.425781 31.910156 82.414062 32.097656 82.257812 32.269531 C 82.152344 32.386719 82.058594 32.707031 82.058594 32.984375 C 82.058594 33.246094 81.914062 33.789062 81.742188 34.160156 C 81.570312 34.542969 81.386719 34.96875 81.34375 35.125 C 81.292969 35.269531 81.121094 35.484375 80.9375 35.574219 C 80.582031 35.761719 80.621094 35.972656 81.003906 35.972656 C 81.132812 35.972656 81.636719 36.183594 82.125 36.449219 C 82.613281 36.699219 83.046875 36.871094 83.085938 36.832031 C 83.140625 36.792969 83.085938 36.699219 82.980469 36.632812 C 82.835938 36.539062 82.902344 36.5 83.21875 36.5 C 83.457031 36.5 83.746094 36.59375 83.851562 36.699219 C 83.972656 36.804688 84.195312 36.898438 84.367188 36.898438 C 84.65625 36.898438 84.722656 36.976562 85.605469 38.484375 C 85.921875 39.039062 86.148438 39.742188 86.148438 40.203125 C 86.148438 40.480469 86.214844 40.878906 86.304688 41.0625 C 86.476562 41.460938 86.410156 41.566406 85.949219 41.566406 C 85.6875 41.566406 85.621094 41.605469 85.699219 41.777344 C 85.898438 42.242188 85.898438 42.847656 85.699219 43.535156 C 85.449219 44.4375 84.050781 45.945312 82.980469 46.484375 C 82.125 46.921875 80.671875 47.066406 79.566406 46.828125 C 78.90625 46.699219 78.839844 46.699219 78.496094 46.988281 C 78.296875 47.160156 77.71875 47.476562 77.214844 47.675781 C 76.425781 47.992188 76.09375 48.046875 74.539062 48.113281 C 73.019531 48.152344 72.652344 48.125 72.019531 47.914062 L 71.265625 47.664062 L 70.460938 48.363281 C 69.550781 49.144531 68.351562 49.765625 67.308594 49.976562 C 66.386719 50.175781 63.984375 49.949219 63.007812 49.582031 L 62.28125 49.316406 L 61.09375 49.925781 C 59.566406 50.691406 58.484375 50.917969 56.34375 50.917969 C 54.828125 50.917969 54.605469 50.890625 54.078125 50.613281 Z M 58.351562 49.527344 C 59.5 49.328125 60.816406 48.761719 61.597656 48.140625 L 62.109375 47.714844 L 63.140625 48.21875 C 64.167969 48.722656 64.207031 48.734375 65.765625 48.734375 C 67.296875 48.734375 67.375 48.722656 68.273438 48.285156 C 68.878906 47.980469 69.523438 47.519531 70.160156 46.894531 C 70.988281 46.089844 71.148438 45.984375 71.34375 46.128906 C 72.308594 46.828125 73.851562 47.09375 75.410156 46.828125 C 76.558594 46.632812 77.28125 46.300781 78.125 45.625 L 78.800781 45.097656 L 79.246094 45.363281 C 79.90625 45.757812 80.9375 45.839844 81.859375 45.574219 C 82.96875 45.242188 84.15625 44.078125 84.5 42.996094 L 84.589844 42.675781 L 84.234375 42.953125 C 84.035156 43.113281 83.71875 43.246094 83.546875 43.246094 C 83.378906 43.246094 83.035156 43.390625 82.808594 43.550781 C 82.136719 44.050781 81.597656 44.210938 80.5 44.222656 C 79.566406 44.238281 79.484375 44.210938 79.484375 43.972656 C 79.484375 43.75 79.605469 43.695312 80.289062 43.617188 C 82.28125 43.40625 82.597656 43.152344 82.492188 41.964844 C 82.425781 41.210938 82.386719 41.128906 82.03125 40.984375 C 81.820312 40.890625 81.265625 40.8125 80.832031 40.8125 L 80.011719 40.800781 L 79.945312 41.511719 C 79.894531 41.988281 79.789062 42.28125 79.628906 42.398438 C 79.484375 42.492188 79.273438 42.808594 79.140625 43.101562 C 78.878906 43.695312 78.496094 43.945312 77.902344 43.933594 C 77.679688 43.921875 77.28125 44.066406 77.003906 44.25 C 75.949219 44.953125 74.550781 45.203125 72.769531 45.03125 C 71.820312 44.953125 71.769531 44.925781 71.769531 44.621094 L 71.769531 44.289062 L 72.941406 44.382812 C 74.3125 44.488281 75.566406 44.289062 76.332031 43.855469 L 76.847656 43.5625 L 76.808594 42.636719 C 76.753906 41.621094 76.664062 41.472656 75.792969 41.25 C 75.011719 41.039062 72.835938 40.867188 72.492188 40.996094 C 72.257812 41.089844 72.214844 41.183594 72.269531 41.511719 C 72.347656 42.09375 72.191406 42.847656 71.980469 42.847656 C 71.875 42.847656 71.726562 43.101562 71.648438 43.429688 C 71.570312 43.75 71.332031 44.199219 71.121094 44.421875 C 70.804688 44.765625 70.632812 44.832031 70.144531 44.832031 C 69.695312 44.832031 69.445312 44.925781 69.0625 45.230469 C 68.21875 45.902344 66.964844 46.207031 64.972656 46.207031 C 63.335938 46.222656 63.257812 46.207031 63.257812 45.957031 C 63.257812 45.707031 63.378906 45.691406 64.839844 45.613281 C 66.703125 45.519531 67.28125 45.414062 68.035156 45.070312 C 68.929688 44.648438 69.0625 44.421875 68.890625 43.628906 C 68.800781 43.257812 68.734375 42.664062 68.734375 42.308594 C 68.734375 41.671875 68.707031 41.632812 68.273438 41.449219 C 67.757812 41.234375 65.527344 40.867188 64.75 40.867188 C 64.484375 40.867188 64.167969 40.957031 64.050781 41.078125 C 63.800781 41.328125 63.824219 41.355469 63.457031 40.601562 C 63.296875 40.269531 63.019531 39.820312 62.847656 39.582031 C 62.480469 39.09375 61.371094 38.152344 61.28125 38.246094 C 61.238281 38.285156 61.332031 38.578125 61.476562 38.894531 C 61.621094 39.210938 61.742188 39.648438 61.742188 39.847656 C 61.742188 40.125 61.847656 40.285156 62.191406 40.46875 C 62.863281 40.878906 63.246094 41.976562 63.207031 43.351562 C 63.179688 44.25 62.875 45.003906 62.363281 45.441406 C 62.003906 45.746094 61.859375 45.773438 61.292969 45.71875 C 60.699219 45.667969 60.582031 45.707031 60.039062 46.128906 C 59.246094 46.722656 58.523438 47.042969 57.414062 47.226562 C 56.398438 47.410156 52.941406 47.464844 52.214844 47.304688 C 51.875 47.238281 51.714844 47.253906 51.714844 47.347656 C 51.714844 47.519531 52.691406 48.507812 53.230469 48.894531 C 54.367188 49.6875 56.226562 49.910156 58.351562 49.527344 Z M 23.5625 47.214844 C 23.878906 47.082031 24.289062 46.777344 24.5 46.550781 L 24.867188 46.140625 L 26.582031 46.3125 C 28.707031 46.527344 39.222656 46.527344 41.371094 46.300781 C 43.207031 46.117188 45.183594 45.613281 46.304688 45.058594 C 48.179688 44.117188 49.550781 42.292969 49.523438 40.71875 C 49.5 39.039062 48.296875 37.597656 45.183594 35.5625 C 41.753906 33.328125 36.160156 31.394531 31.148438 30.734375 L 29.644531 30.535156 L 29.195312 31.039062 C 27.769531 32.652344 26.664062 34.371094 25.476562 36.804688 C 24.882812 37.996094 24.539062 38.5625 24.539062 38.3125 C 24.539062 37.796875 26.015625 34.476562 26.464844 33.976562 C 26.570312 33.871094 26.648438 33.710938 26.648438 33.644531 C 26.648438 33.578125 27.097656 32.929688 27.636719 32.214844 C 28.179688 31.488281 28.601562 30.878906 28.574219 30.855469 C 28.378906 30.65625 25.410156 31.792969 23.8125 32.679688 C 22.585938 33.355469 22.320312 33.539062 20.84375 34.808594 C 18.230469 37.015625 16.53125 40.164062 16.648438 42.519531 C 16.675781 43.0625 16.664062 43.511719 16.609375 43.511719 C 16.570312 43.511719 16.425781 43.191406 16.304688 42.824219 C 15.988281 41.804688 16.238281 40.5625 17.109375 38.789062 C 17.296875 38.390625 17.425781 38.046875 17.386719 38.023438 C 17.347656 37.980469 17.109375 38.152344 16.859375 38.40625 C 15.078125 40.136719 14.839844 43.300781 16.359375 45.402344 C 17.03125 46.355469 17.941406 46.882812 19.566406 47.265625 C 20.011719 47.371094 20.5 47.492188 20.644531 47.53125 C 21.175781 47.664062 23.007812 47.464844 23.5625 47.214844 Z M 57.71875 46.484375 C 58.761719 46.195312 59.734375 45.652344 59.945312 45.257812 C 60.09375 44.976562 60.09375 44.820312 59.945312 44.332031 C 59.839844 44 59.761719 43.363281 59.761719 42.914062 C 59.761719 42.109375 59.75 42.082031 59.339844 41.882812 C 58.035156 41.277344 55.011719 40.917969 52.480469 41.078125 C 51.398438 41.144531 51.015625 41.128906 50.859375 40.996094 C 50.59375 40.785156 50.527344 40.867188 50.09375 41.898438 C 49.484375 43.339844 48.191406 44.820312 47.070312 45.363281 C 46.320312 45.730469 46.636719 45.824219 48.667969 45.824219 C 50.316406 45.824219 50.671875 45.863281 50.871094 46.050781 C 51.160156 46.300781 51.703125 46.527344 52.441406 46.683594 C 53.285156 46.871094 56.808594 46.738281 57.71875 46.484375 Z M 61.070312 40.308594 C 61.292969 40.113281 61.304688 40.019531 61.1875 39.597656 C 60.898438 38.5 60.222656 37.757812 59.035156 37.203125 C 58.3125 36.859375 58.125 36.832031 56.664062 36.832031 C 55.144531 36.832031 55.039062 36.84375 54.15625 37.269531 C 52.636719 37.980469 51.082031 39.316406 50.804688 40.113281 L 50.671875 40.480469 L 52.742188 40.390625 C 55.183594 40.296875 57.597656 40.535156 59.035156 41.039062 L 59.945312 41.355469 L 60.382812 40.945312 C 60.605469 40.71875 60.921875 40.429688 61.070312 40.308594 Z M 69.445312 40.414062 C 69.90625 39.980469 69.921875 39.925781 69.800781 39.410156 C 69.539062 38.246094 68.378906 37.097656 67.085938 36.710938 C 65.144531 36.144531 62.957031 36.449219 62.085938 37.402344 C 61.847656 37.679688 61.859375 37.691406 62.574219 38.40625 C 62.980469 38.816406 63.417969 39.382812 63.546875 39.675781 C 63.824219 40.296875 63.824219 40.296875 65.832031 40.390625 C 66.664062 40.429688 67.652344 40.546875 68.007812 40.652344 C 68.917969 40.917969 68.90625 40.917969 69.445312 40.414062 Z M 77.769531 39.304688 C 77.652344 38.828125 76.109375 37.335938 75.421875 37.03125 C 74.945312 36.820312 74.722656 36.792969 74.128906 36.882812 C 73.207031 37.042969 72.058594 37.480469 71.582031 37.863281 L 71.199219 38.167969 L 71.621094 39.039062 C 71.847656 39.515625 72.03125 39.980469 72.03125 40.058594 C 72.03125 40.21875 72.136719 40.242188 72.824219 40.203125 C 73.5625 40.175781 75.632812 40.457031 76.199219 40.652344 L 76.714844 40.824219 L 77.28125 40.242188 C 77.757812 39.753906 77.835938 39.582031 77.769531 39.304688 Z M 71.132812 39.636719 C 70.765625 38.855469 70.09375 37.957031 69.882812 37.957031 C 69.828125 37.957031 69.90625 38.261719 70.054688 38.617188 C 70.199219 38.988281 70.316406 39.398438 70.316406 39.542969 C 70.316406 39.6875 70.394531 39.859375 70.488281 39.925781 C 70.566406 40.003906 70.832031 40.21875 71.042969 40.390625 C 71.265625 40.5625 71.464844 40.652344 71.476562 40.585938 C 71.503906 40.523438 71.34375 40.097656 71.132812 39.636719 Z M 79.417969 40.496094 C 79.417969 40.03125 78.90625 39.054688 78.402344 38.550781 C 77.71875 37.863281 77.46875 37.785156 77.796875 38.367188 C 77.929688 38.605469 78.152344 39 78.296875 39.265625 C 78.800781 40.203125 79.417969 40.867188 79.417969 40.496094 Z M 84.710938 39.980469 C 84.539062 39.359375 83.90625 38.433594 83.496094 38.207031 C 83.230469 38.074219 83.21875 38.089844 83.3125 38.300781 C 83.363281 38.445312 83.496094 38.800781 83.613281 39.105469 C 83.71875 39.425781 83.90625 39.703125 84.050781 39.742188 C 84.195312 39.792969 84.394531 40.003906 84.511719 40.230469 C 84.777344 40.757812 84.882812 40.628906 84.710938 39.980469 Z M 82.941406 39.914062 C 83.21875 39.53125 83.21875 39.476562 83.035156 39.027344 C 82.441406 37.585938 80.117188 36.621094 78.695312 37.214844 C 78.441406 37.320312 78.230469 37.464844 78.230469 37.53125 C 78.230469 37.597656 78.46875 37.902344 78.761719 38.207031 C 79.050781 38.511719 79.433594 39.054688 79.617188 39.425781 L 79.945312 40.070312 L 80.710938 40.085938 C 81.121094 40.097656 81.609375 40.152344 81.792969 40.203125 C 82.402344 40.402344 82.652344 40.335938 82.941406 39.914062 Z M 51.742188 36.871094 C 53.007812 34.992188 55.832031 33.472656 58.0625 33.460938 C 58.351562 33.460938 58.613281 33.367188 58.734375 33.234375 C 59.011719 32.902344 59.234375 32.191406 59.234375 31.632812 C 59.234375 31.199219 58.761719 30.019531 58.574219 30.019531 C 58.523438 30.019531 58.351562 30.167969 58.179688 30.351562 C 57.507812 31.066406 57.019531 30.535156 57.269531 29.347656 C 57.425781 28.617188 57.941406 27.90625 58.324219 27.90625 C 58.695312 27.90625 58.878906 28.382812 58.773438 29.042969 C 58.71875 29.4375 58.734375 29.625 58.839844 29.625 C 58.917969 29.625 59.128906 29.941406 59.300781 30.324219 C 59.65625 31.09375 59.722656 31.992188 59.472656 32.8125 C 59.394531 33.101562 59.355469 33.355469 59.394531 33.394531 C 59.417969 33.433594 60.054688 33.5 60.777344 33.539062 L 62.109375 33.632812 L 62.257812 33.15625 C 62.347656 32.890625 62.414062 32.453125 62.425781 32.175781 C 62.425781 31.632812 62.058594 30.550781 61.859375 30.550781 C 61.792969 30.550781 61.742188 30.457031 61.742188 30.351562 C 61.742188 30.007812 61.515625 30.125 61.226562 30.628906 C 61.003906 31.011719 60.882812 31.09375 60.582031 31.050781 C 60.265625 31.011719 60.222656 30.960938 60.183594 30.445312 C 60.132812 29.730469 60.660156 28.5 61.070312 28.367188 C 61.542969 28.222656 61.769531 28.527344 61.726562 29.28125 C 61.6875 29.824219 61.726562 29.96875 61.914062 29.996094 C 62.03125 30.019531 62.257812 30.257812 62.414062 30.511719 L 62.71875 30.984375 L 62.914062 30.246094 C 63.125 29.492188 63.574219 28.832031 63.890625 28.832031 C 64.394531 28.832031 64.539062 29.664062 64.183594 30.511719 C 63.90625 31.171875 63.613281 31.476562 63.230469 31.476562 C 62.957031 31.476562 62.929688 31.527344 62.929688 32.125 C 62.929688 32.480469 62.863281 32.945312 62.796875 33.140625 C 62.71875 33.339844 62.703125 33.550781 62.757812 33.605469 C 62.808594 33.65625 63.351562 33.738281 63.945312 33.789062 C 64.972656 33.882812 65.027344 33.871094 65.183594 33.578125 C 65.277344 33.40625 65.355469 32.929688 65.355469 32.519531 C 65.371094 31.925781 65.289062 31.675781 65 31.222656 C 64.671875 30.734375 64.65625 30.667969 64.867188 30.589844 C 64.988281 30.535156 65.117188 30.578125 65.144531 30.65625 C 65.238281 30.960938 65.539062 30.8125 65.605469 30.429688 C 65.710938 29.902344 66.386719 29.160156 66.664062 29.265625 C 67.214844 29.480469 67.003906 30.855469 66.292969 31.566406 C 65.898438 31.964844 65.859375 32.085938 65.816406 32.957031 L 65.765625 33.921875 L 67.996094 33.921875 L 68.3125 33.460938 C 68.589844 33.050781 68.613281 32.890625 68.574219 32.003906 C 68.429688 29.664062 66.597656 27.535156 62.914062 25.457031 C 61.042969 24.386719 59.75 23.925781 58.667969 23.9375 L 58.246094 23.949219 L 58.574219 24.214844 C 58.761719 24.359375 59.394531 24.824219 59.988281 25.234375 C 61.398438 26.226562 63.191406 27.863281 63.191406 28.167969 C 63.191406 28.421875 62.847656 28.566406 62.230469 28.566406 C 61.78125 28.566406 61.808594 28.261719 62.242188 28.195312 C 62.691406 28.128906 62.574219 27.890625 61.769531 27.203125 C 60.210938 25.894531 59.300781 25.246094 57.808594 24.347656 C 56.34375 23.472656 55.5 23.144531 54.75 23.15625 C 54.445312 23.15625 54.433594 23.171875 54.65625 23.316406 C 57.636719 25.234375 59.761719 26.914062 59.761719 27.324219 C 59.761719 27.429688 59.855469 27.546875 59.960938 27.585938 C 60.304688 27.71875 60.171875 27.878906 59.628906 27.972656 C 58.972656 28.078125 58.746094 27.957031 59.035156 27.652344 C 59.222656 27.429688 59.207031 27.390625 58.878906 27.019531 C 57.164062 25.152344 53.113281 22.785156 50.871094 22.335938 C 49.816406 22.140625 49.433594 22.113281 49.617188 22.257812 C 49.644531 22.285156 50.238281 22.628906 50.921875 23.011719 C 53.523438 24.464844 55.9375 26.25 55.9375 26.726562 C 55.9375 27.046875 55.859375 27.003906 54.945312 26.25 C 52.507812 24.214844 48.035156 21.820312 46.6875 21.820312 C 45.382812 21.820312 42.402344 22.734375 41.359375 23.449219 C 40.304688 24.1875 38.429688 25.628906 37.03125 26.808594 C 35.117188 28.421875 34.078125 29.003906 33.179688 28.9375 C 32.664062 28.910156 32.492188 28.832031 32.269531 28.527344 C 32.03125 28.195312 31.992188 27.972656 32.003906 26.832031 C 32.003906 25.882812 31.964844 25.523438 31.847656 25.523438 C 31.53125 25.523438 29.75 26.832031 28.957031 27.628906 C 28.246094 28.367188 28.125 28.433594 27.597656 28.433594 C 26.703125 28.433594 25.671875 29.070312 25.566406 29.691406 C 25.539062 29.875 25.59375 29.941406 25.726562 29.902344 C 26.597656 29.664062 26.914062 29.796875 26.664062 30.257812 C 26.582031 30.40625 26.558594 30.550781 26.597656 30.589844 C 26.636719 30.617188 27.085938 30.511719 27.613281 30.324219 C 28.839844 29.914062 29.828125 29.824219 30.949219 30.007812 C 36.34375 30.921875 39.761719 31.953125 43.257812 33.710938 C 44.789062 34.476562 45.738281 35.074219 47.164062 36.15625 C 48.523438 37.175781 49.246094 37.957031 49.75 38.933594 L 50.160156 39.714844 L 50.6875 38.671875 C 50.988281 38.101562 51.453125 37.28125 51.742188 36.871094 Z M 52.402344 37.875 C 52.847656 37.402344 53.402344 36.992188 54.078125 36.660156 L 55.066406 36.171875 L 56.792969 36.183594 C 58.351562 36.183594 58.601562 36.222656 59.433594 36.554688 C 61.214844 37.253906 61.148438 37.242188 61.675781 36.84375 C 61.925781 36.648438 62.480469 36.328125 62.902344 36.128906 C 63.5625 35.828125 63.8125 35.773438 65.039062 35.773438 C 66.199219 35.773438 66.621094 35.839844 67.613281 36.15625 C 68.273438 36.367188 69.195312 36.765625 69.683594 37.042969 C 70.160156 37.335938 70.621094 37.558594 70.6875 37.558594 C 70.765625 37.558594 71.121094 37.359375 71.492188 37.109375 C 72.28125 36.566406 72.980469 36.433594 74.339844 36.566406 C 75.316406 36.660156 75.328125 36.648438 75.726562 36.261719 C 76.199219 35.785156 76.226562 35.46875 75.832031 35.390625 C 75.515625 35.3125 73.707031 35.164062 69.128906 34.847656 C 67.636719 34.742188 65.382812 34.558594 64.117188 34.453125 C 60.792969 34.148438 57.980469 34.066406 57.125 34.226562 C 54.605469 34.703125 52.53125 36.277344 51.609375 38.390625 C 51.398438 38.867188 51.558594 38.777344 52.402344 37.875 Z M 78.035156 36.128906 C 78.273438 36 78.246094 35.984375 77.824219 35.972656 C 77.453125 35.972656 77.320312 36.039062 77.203125 36.289062 C 77.019531 36.710938 77.164062 36.832031 77.492188 36.515625 C 77.652344 36.382812 77.890625 36.210938 78.035156 36.128906 Z M 79.378906 34.769531 C 80.171875 34.476562 81.121094 33.128906 80.792969 32.796875 C 80.726562 32.730469 79.988281 32.585938 79.15625 32.46875 C 77.597656 32.257812 76.027344 32.003906 73.957031 31.675781 C 72.136719 31.371094 72.070312 31.382812 71.898438 31.992188 C 71.832031 32.269531 71.675781 32.574219 71.570312 32.664062 C 71.386719 32.8125 71.371094 32.730469 71.453125 31.925781 C 71.78125 28.300781 68.628906 24.519531 63.125 21.953125 C 61.769531 21.320312 60.078125 20.632812 59.894531 20.632812 C 59.605469 20.632812 59.789062 21.1875 60.289062 21.753906 C 60.738281 22.269531 61.214844 23.355469 61.214844 23.859375 C 61.214844 23.9375 61.609375 24.214844 62.109375 24.464844 C 64.339844 25.617188 65.777344 26.636719 67.109375 27.996094 C 68.839844 29.757812 69.539062 31.953125 68.867188 33.445312 C 68.71875 33.761719 68.601562 34.042969 68.601562 34.054688 C 68.601562 34.148438 70.078125 34.265625 75.066406 34.582031 C 76.914062 34.703125 78.496094 34.820312 78.5625 34.847656 C 78.800781 34.925781 78.996094 34.914062 79.378906 34.769531 Z M 80.910156 32.042969 C 81.054688 31.804688 80.710938 30.179688 80.371094 29.519531 C 79.75 28.289062 79.378906 27.972656 78.101562 27.667969 C 71.820312 26.121094 69.839844 25.65625 69.617188 25.683594 C 69.378906 25.722656 69.378906 25.734375 69.617188 25.988281 C 70.644531 27.125 71.34375 28.382812 71.753906 29.886719 C 71.898438 30.417969 72.042969 30.867188 72.058594 30.878906 C 72.085938 30.894531 73.113281 31.066406 74.339844 31.265625 C 79.777344 32.136719 80.792969 32.257812 80.910156 32.042969 Z M 33.917969 28.367188 C 34.644531 28.101562 35.265625 27.691406 36.675781 26.503906 C 39.433594 24.1875 41.453125 22.746094 42.480469 22.363281 C 43.929688 21.835938 44.722656 21.582031 45.316406 21.503906 C 46.238281 21.359375 46.292969 21.292969 46.148438 20.460938 C 45.988281 19.625 45.460938 18.609375 44.960938 18.183594 C 44.273438 17.601562 44.3125 17.601562 46.832031 18.15625 C 47.664062 18.34375 48.546875 18.566406 48.800781 18.660156 C 49.300781 18.832031 49.472656 18.699219 49.472656 18.117188 C 49.472656 17.800781 49.472656 17.800781 49.65625 18.066406 C 49.761719 18.210938 49.867188 18.476562 49.894531 18.648438 C 49.921875 18.898438 50.039062 18.992188 50.394531 19.058594 C 50.644531 19.109375 50.898438 19.125 50.964844 19.082031 C 51.070312 19.019531 50.976562 18.4375 50.777344 17.878906 C 50.710938 17.722656 50.632812 15.910156 50.59375 13.847656 C 50.554688 11.796875 50.488281 9.957031 50.449219 9.746094 C 50.277344 8.925781 50.160156 9.652344 50.078125 11.996094 C 49.960938 15.273438 49.75 17.191406 49.511719 17.285156 C 49.40625 17.324219 49.117188 17.152344 48.839844 16.886719 C 48.574219 16.625 48.074219 16.292969 47.730469 16.148438 C 47.125 15.882812 47.097656 15.855469 47.085938 15.316406 C 47.085938 14.773438 46.898438 13.621094 46.832031 13.753906 C 46.820312 13.792969 46.703125 14.324219 46.582031 14.929688 L 46.359375 16.042969 L 45.382812 16.558594 C 44.839844 16.835938 44.300781 17.167969 44.183594 17.257812 C 43.917969 17.511719 43.546875 17.511719 42.414062 17.230469 C 41.199219 16.953125 41.132812 16.902344 41.238281 16.132812 C 41.332031 15.433594 41.148438 14.945312 40.777344 14.945312 C 40.410156 14.945312 40.371094 15.0625 40.605469 15.488281 C 40.816406 15.871094 40.816406 15.898438 40.515625 16.148438 C 40.265625 16.347656 40.238281 16.4375 40.371094 16.597656 C 40.5 16.757812 40.460938 16.796875 40.144531 16.863281 C 38.984375 17.125 37.980469 17.511719 37.402344 17.945312 L 36.742188 18.449219 L 37.335938 18.542969 C 37.664062 18.582031 38.230469 18.632812 38.601562 18.632812 C 39.246094 18.648438 40.078125 19.03125 40.199219 19.375 C 40.222656 19.453125 39.460938 19.492188 38.007812 19.46875 L 35.792969 19.414062 L 35.433594 19.785156 C 35.25 19.996094 35.09375 20.207031 35.09375 20.246094 C 35.09375 20.367188 35.605469 20.5 36.109375 20.5 C 36.609375 20.5 37.230469 20.710938 37.363281 20.933594 C 37.425781 21.054688 37.042969 21.105469 35.84375 21.160156 L 34.234375 21.226562 L 33.613281 22.484375 C 32.558594 24.585938 32.085938 27.667969 32.71875 28.300781 C 33.035156 28.617188 33.179688 28.632812 33.917969 28.367188 Z M 78.628906 27.125 C 78.628906 27.046875 78.574219 26.953125 78.496094 26.914062 C 78.429688 26.875 78.363281 26.398438 78.363281 25.855469 C 78.363281 24.398438 78.007812 23.582031 76.925781 22.484375 C 74.828125 20.351562 71.4375 19.746094 69.460938 21.132812 C 68.695312 21.664062 68.773438 21.835938 69.855469 22.097656 C 71.003906 22.363281 72.214844 22.773438 73.335938 23.289062 C 74.367188 23.753906 76.121094 24.835938 76.121094 24.996094 C 76.121094 25.0625 75.394531 24.757812 74.511719 24.335938 C 72.425781 23.355469 70.949219 22.8125 69.394531 22.496094 C 68.707031 22.351562 67.136719 21.992188 65.898438 21.703125 C 64.671875 21.410156 63.390625 21.148438 63.0625 21.09375 C 62.507812 21.015625 62.574219 21.066406 63.945312 21.808594 C 65.644531 22.71875 66.609375 23.316406 67.757812 24.1875 C 68.65625 24.875 68.761719 24.902344 73.019531 25.933594 C 74.261719 26.226562 75.949219 26.636719 76.78125 26.847656 C 78.46875 27.269531 78.628906 27.296875 78.628906 27.125 Z M 60.582031 23.289062 C 60.527344 22.574219 59.972656 21.980469 59.117188 21.730469 C 58.179688 21.464844 56.992188 21.1875 56.992188 21.238281 C 56.992188 21.253906 57.109375 21.476562 57.242188 21.714844 C 57.375 21.953125 57.53125 22.375 57.574219 22.65625 C 57.679688 23.238281 57.785156 23.289062 59.234375 23.582031 C 60.554688 23.832031 60.632812 23.816406 60.582031 23.289062 Z M 57.125 22.667969 C 57.125 22.21875 56.6875 21.503906 56.1875 21.148438 C 55.964844 20.988281 55.371094 20.761719 54.839844 20.632812 C 54.3125 20.484375 52.824219 20.101562 51.515625 19.769531 C 50.210938 19.425781 48.945312 19.109375 48.707031 19.082031 L 48.273438 19.019531 L 48.5625 19.558594 C 48.71875 19.863281 48.878906 20.417969 48.929688 20.789062 L 49.011719 21.476562 L 50.527344 21.78125 C 54.5 22.589844 56.558594 22.984375 56.832031 23 C 57.058594 23.011719 57.125 22.945312 57.125 22.667969 Z M 48.507812 21.214844 C 48.628906 20.910156 48.191406 19.640625 47.808594 19.191406 C 47.507812 18.820312 45.816406 18.039062 45.660156 18.199219 C 45.621094 18.238281 45.660156 18.371094 45.753906 18.488281 C 46.054688 18.898438 46.4375 19.785156 46.609375 20.511719 C 46.792969 21.199219 46.820312 21.226562 47.308594 21.304688 C 48.207031 21.449219 48.417969 21.425781 48.507812 21.214844 Z M 67.28125 21.304688 C 67.28125 21.148438 66.253906 20.328125 65.816406 20.140625 C 65.621094 20.0625 65.210938 19.625 64.90625 19.191406 C 64.605469 18.753906 64.128906 18.25 63.867188 18.050781 L 63.363281 17.707031 L 63.273438 15.234375 C 63.21875 13.875 63.140625 12.445312 63.101562 12.0625 C 62.96875 10.882812 62.796875 11.570312 62.796875 13.292969 C 62.796875 14.164062 62.757812 15.460938 62.703125 16.1875 C 62.625 17.484375 62.625 17.484375 62.214844 17.667969 C 61.703125 17.894531 61.160156 18.355469 60.964844 18.738281 C 60.882812 18.898438 60.605469 19.136719 60.355469 19.253906 C 59.433594 19.691406 59.683594 19.835938 62.203125 20.394531 C 62.929688 20.539062 64.261719 20.828125 65.171875 21.027344 C 67.03125 21.4375 67.28125 21.476562 67.28125 21.304688 Z M 59.234375 20.921875 C 59.234375 20.578125 58.574219 19.746094 58.167969 19.574219 C 57.824219 19.425781 57.824219 19.414062 57.730469 17.496094 C 57.691406 16.4375 57.613281 15.511719 57.574219 15.445312 C 57.402344 15.167969 57.269531 15.617188 57.042969 17.296875 C 56.808594 18.992188 56.792969 19.042969 56.492188 19.042969 C 56.320312 19.042969 55.132812 18.78125 53.851562 18.449219 C 50.976562 17.707031 50.792969 17.695312 51.253906 18.304688 C 51.359375 18.449219 51.453125 18.699219 51.453125 18.859375 C 51.453125 19.019531 51.53125 19.203125 51.621094 19.28125 C 51.742188 19.386719 54.445312 20.089844 58.507812 21.066406 C 59.050781 21.199219 59.234375 21.160156 59.234375 20.921875 Z M 59.234375 20.921875 "
    />
    <path
      style="stroke: none; fill-rule: nonzero; fill: rgb(92.941176%, 92.54902%, 74.117647%); fill-opacity: 1"
      d="M 35.355469 42.691406 C 35.355469 40.546875 36.386719 37.703125 37.636719 36.34375 C 38.152344 35.773438 38.378906 35.722656 38.707031 36.089844 C 38.90625 36.304688 38.917969 36.421875 38.785156 36.925781 C 38.441406 38.234375 35.910156 43.21875 35.527344 43.351562 C 35.410156 43.378906 35.355469 43.207031 35.355469 42.691406 Z M 40.765625 42.558594 C 40.765625 41.792969 41.1875 40.414062 41.742188 39.359375 C 42.363281 38.167969 42.875 37.652344 43.390625 37.71875 C 43.890625 37.769531 43.929688 38.511719 43.457031 39.4375 C 42.824219 40.695312 41.160156 42.980469 40.871094 42.980469 C 40.816406 42.980469 40.765625 42.796875 40.765625 42.558594 Z M 29.15625 41.792969 C 29.15625 41.382812 29.882812 38.511719 30.183594 37.757812 C 30.816406 36.171875 32.335938 34.253906 32.96875 34.253906 C 33.390625 34.253906 33.5625 34.742188 33.390625 35.402344 C 33.246094 35.917969 32.46875 37.230469 31.980469 37.757812 C 31.53125 38.246094 30.644531 39.597656 30.011719 40.773438 C 29.355469 42.003906 29.15625 42.242188 29.15625 41.792969 Z M 19.128906 41.15625 C 19.128906 39.265625 20.078125 36.976562 20.710938 37.359375 C 20.84375 37.441406 20.777344 37.652344 20.34375 38.617188 C 20 39.359375 19.523438 40.839844 19.523438 41.144531 C 19.523438 41.460938 19.378906 41.792969 19.246094 41.792969 C 19.183594 41.792969 19.128906 41.5 19.128906 41.15625 Z M 21.109375 41.078125 C 21.109375 40.324219 21.675781 38.378906 22.242188 37.214844 C 22.890625 35.878906 23.71875 34.808594 23.996094 34.96875 C 24.289062 35.152344 24.0625 35.800781 23.257812 37.148438 C 22.847656 37.835938 22.242188 39.027344 21.925781 39.792969 C 21.265625 41.367188 21.109375 41.621094 21.109375 41.078125 Z M 17.808594 40.773438 C 17.808594 40.21875 18.167969 39.398438 18.457031 39.304688 C 18.574219 39.265625 18.601562 39.332031 18.5625 39.488281 C 18.523438 39.636719 18.390625 40.085938 18.273438 40.507812 C 18.019531 41.367188 17.808594 41.5 17.808594 40.773438 Z M 47.363281 32.453125 C 47.363281 32.429688 47.703125 32.230469 48.125 32.019531 C 49.433594 31.355469 49.933594 30.5625 49.90625 29.1875 C 49.882812 27.519531 47.808594 27.03125 45.34375 28.101562 C 45.171875 28.167969 45.132812 28.144531 45.183594 27.996094 C 45.382812 27.496094 47.320312 26.898438 48.285156 27.058594 C 48.929688 27.164062 49.710938 27.613281 50.054688 28.078125 C 50.449219 28.605469 50.433594 30.125 50.039062 30.894531 C 49.644531 31.632812 48.929688 32.242188 48.324219 32.335938 C 48.046875 32.375 47.71875 32.441406 47.597656 32.46875 C 47.46875 32.492188 47.363281 32.480469 47.363281 32.453125 Z M 47.363281 32.453125 "
    />
    <path
      style="stroke: none; fill-rule: nonzero; fill: rgb(92.941176%, 92.54902%, 74.117647%); fill-opacity: 1"
      d="M 45.410156 31.699219 C 44.777344 31.332031 44.511719 30.5625 44.722656 29.757812 C 44.894531 29.121094 45.328125 28.804688 46.054688 28.777344 C 47.730469 28.738281 47.835938 31.582031 46.175781 31.804688 C 45.921875 31.847656 45.582031 31.792969 45.410156 31.699219 Z M 64.671875 28.9375 C 64.734375 28.738281 65.566406 28.617188 65.566406 28.804688 C 65.566406 28.9375 65.144531 29.09375 64.800781 29.09375 C 64.695312 29.09375 64.644531 29.015625 64.671875 28.9375 Z M 56.070312 27.113281 C 56.070312 27.046875 56.1875 26.980469 56.332031 26.980469 C 56.476562 26.980469 56.597656 27.046875 56.597656 27.113281 C 56.597656 27.191406 56.476562 27.242188 56.332031 27.242188 C 56.1875 27.242188 56.070312 27.191406 56.070312 27.113281 Z M 34.761719 26.292969 C 34.800781 26.199219 35.054688 26 35.328125 25.855469 C 35.898438 25.550781 36.410156 24.652344 36.410156 23.964844 C 36.410156 23.644531 36.292969 23.410156 36.015625 23.117188 C 35.671875 22.773438 35.539062 22.71875 35.132812 22.785156 C 34.882812 22.828125 34.511719 22.972656 34.328125 23.089844 L 33.996094 23.300781 L 34.378906 23.472656 C 35.144531 23.792969 35.34375 25.0625 34.75 25.777344 C 34.339844 26.265625 34.167969 26.277344 33.707031 25.894531 C 33.125 25.378906 33.125 24.269531 33.707031 23.144531 C 33.929688 22.695312 34.644531 22.351562 35.34375 22.351562 C 35.816406 22.351562 35.988281 22.429688 36.359375 22.800781 C 36.753906 23.195312 36.808594 23.328125 36.792969 23.964844 C 36.792969 24.929688 36.558594 25.496094 36.015625 25.933594 C 35.515625 26.332031 34.65625 26.582031 34.761719 26.292969 Z M 34.761719 26.292969 "
    />
    <path
      style="stroke: none; fill-rule: nonzero; fill: rgb(96.078431%, 94.509804%, 83.529412%); fill-opacity: 1"
      d="M 90.5 43.273438 C 89.734375 43.257812 89.0625 43.179688 89.011719 43.125 C 88.773438 42.890625 89.300781 42.214844 89.894531 41.988281 C 90.382812 41.804688 90.488281 41.699219 90.554688 41.339844 C 90.6875 40.628906 92.441406 38.933594 93.800781 38.207031 C 94.417969 37.875 95.011719 37.558594 95.132812 37.519531 C 95.355469 37.453125 95.726562 37.757812 96.425781 38.617188 C 96.792969 39.054688 96.859375 39.078125 97.585938 39.078125 C 98.246094 39.066406 98.441406 39 99.0625 38.578125 C 99.445312 38.3125 99.816406 38.089844 99.882812 38.089844 C 99.945312 38.089844 100 39.253906 100 40.667969 L 100 43.246094 L 99.644531 43.257812 C 98.0625 43.285156 91.609375 43.300781 90.5 43.273438 Z M 90.5 43.273438 "
    />
    <path
      style="stroke: none; fill-rule: nonzero; fill: rgb(96.078431%, 94.509804%, 83.529412%); fill-opacity: 1"
      d="M 85.84375 41.328125 C 85.792969 41.210938 85.753906 40.878906 85.753906 40.601562 C 85.753906 40.136719 85.527344 39.425781 85.210938 38.882812 C 84.328125 37.375 84.261719 37.292969 83.957031 37.292969 C 83.800781 37.292969 83.507812 37.148438 83.324219 36.964844 C 83.140625 36.777344 82.941406 36.632812 82.875 36.632812 C 82.558594 36.632812 82.507812 35.917969 82.769531 35.441406 C 82.863281 35.257812 83.167969 34.703125 83.441406 34.199219 C 84.207031 32.773438 84.367188 32.546875 84.800781 32.214844 C 85.039062 32.058594 85.605469 31.542969 86.09375 31.105469 C 86.726562 30.496094 87.386719 30.074219 88.546875 29.492188 C 89.417969 29.054688 90.238281 28.699219 90.382812 28.699219 C 90.644531 28.699219 92.296875 29.121094 93.246094 29.4375 C 94.234375 29.769531 95.25 29.597656 95.25 29.109375 C 95.25 28.871094 95.027344 28.804688 91.980469 28.050781 C 90.515625 27.679688 90.328125 27.667969 89.933594 27.839844 C 89.3125 28.101562 88.179688 28.433594 87.875 28.433594 C 87.558594 28.433594 87.507812 28.261719 87.414062 26.847656 C 87.347656 25.695312 86.859375 24.269531 86.265625 23.449219 C 86.027344 23.105469 85.898438 22.785156 85.9375 22.640625 C 85.976562 22.507812 86.386719 22.03125 86.847656 21.582031 L 87.679688 20.75 L 88.917969 20.617188 C 90.316406 20.484375 90.515625 20.511719 91.160156 21.015625 C 91.410156 21.214844 91.898438 21.542969 92.242188 21.742188 L 92.863281 22.097656 L 93.207031 21.582031 C 93.546875 21.066406 93.546875 21.042969 93.363281 20.261719 C 93.257812 19.824219 93.21875 19.402344 93.257812 19.335938 C 93.363281 19.164062 94.101562 18.871094 95.371094 18.515625 C 96.609375 18.144531 97.097656 17.695312 97.097656 16.875 C 97.097656 16.585938 97.175781 16.242188 97.269531 16.121094 C 97.363281 16.015625 97.996094 15.550781 98.679688 15.089844 L 99.933594 14.269531 L 100.011719 36.699219 L 99.511719 37.121094 C 99.246094 37.347656 98.761719 37.613281 98.457031 37.703125 C 98.140625 37.785156 97.847656 37.917969 97.808594 37.96875 C 97.730469 38.113281 97.136719 38.128906 97.070312 37.996094 C 96.992188 37.808594 95.527344 36.898438 95.316406 36.898438 C 95.066406 36.898438 91.914062 37.957031 91.820312 38.074219 C 91.78125 38.113281 91.542969 38.300781 91.292969 38.472656 C 91.027344 38.644531 90.710938 39.027344 90.566406 39.332031 C 90.238281 40.003906 89.3125 40.957031 88.734375 41.195312 C 88.496094 41.300781 87.757812 41.421875 87.109375 41.472656 C 86.070312 41.554688 85.910156 41.539062 85.84375 41.328125 Z M 88.65625 39.226562 C 88.65625 38.789062 88.296875 38.457031 87.875 38.511719 C 87.136719 38.589844 87.492188 39.542969 88.273438 39.542969 C 88.589844 39.542969 88.65625 39.488281 88.65625 39.226562 Z M 92.363281 35.441406 C 92.664062 35.269531 92.691406 34.714844 92.402344 34.597656 C 91.847656 34.386719 91.398438 34.914062 91.769531 35.324219 C 92.03125 35.613281 92.03125 35.613281 92.363281 35.441406 Z M 89.367188 34.703125 C 90 33.949219 89.972656 33.578125 89.261719 33.394531 C 88.8125 33.289062 88.734375 33.300781 88.507812 33.578125 C 88.140625 34.027344 88.0625 34.714844 88.3125 35.113281 C 88.574219 35.523438 88.746094 35.457031 89.367188 34.703125 Z M 98.019531 30.617188 C 98.21875 30.363281 98.101562 30.207031 97.613281 30.085938 C 97.230469 29.996094 96.886719 30.285156 97.019531 30.617188 C 97.109375 30.878906 97.808594 30.878906 98.019531 30.617188 Z M 95.726562 27.691406 C 96.371094 27.414062 96.726562 27.019531 96.675781 26.582031 C 96.648438 26.316406 96.558594 26.238281 96.199219 26.210938 C 95.964844 26.1875 95.671875 26.238281 95.566406 26.332031 C 95.171875 26.660156 94.800781 27.90625 95.105469 27.90625 C 95.171875 27.90625 95.449219 27.8125 95.726562 27.691406 Z M 95.726562 27.691406 "
    />
    <path
      style="stroke: none; fill-rule: nonzero; fill: rgb(96.078431%, 94.509804%, 83.529412%); fill-opacity: 1"
      d="M 82.085938 32.148438 C 81.980469 32.085938 81.886719 31.609375 81.832031 30.867188 C 81.753906 29.664062 81.609375 29.226562 81.054688 28.472656 C 80.882812 28.25 80.738281 27.972656 80.738281 27.863281 C 80.738281 27.773438 80.582031 27.546875 80.394531 27.363281 C 79.65625 26.675781 79.484375 26.304688 79.40625 25.195312 C 79.355469 24.386719 79.246094 23.9375 78.929688 23.277344 C 78.179688 21.730469 75.816406 19.707031 74.734375 19.707031 C 74.539062 19.707031 74.234375 19.585938 74.050781 19.441406 C 73.761719 19.214844 73.507812 19.175781 72.480469 19.175781 C 71.332031 19.175781 71.226562 19.148438 70.9375 18.832031 C 70.660156 18.542969 70.566406 18.515625 70.183594 18.609375 C 69.855469 18.699219 69.710938 18.820312 69.644531 19.082031 C 69.589844 19.28125 69.605469 19.480469 69.683594 19.519531 C 69.867188 19.640625 69.3125 19.984375 68.71875 20.117188 C 68.246094 20.222656 68.152344 20.195312 67.585938 19.757812 C 67.230469 19.492188 66.925781 19.253906 66.898438 19.230469 C 66.875 19.203125 66.953125 18.976562 67.085938 18.738281 C 67.320312 18.304688 67.308594 18.277344 66.875 16.558594 L 66.4375 14.8125 L 67.019531 14.21875 C 67.335938 13.886719 67.652344 13.621094 67.71875 13.621094 C 67.785156 13.621094 68.0625 13.421875 68.324219 13.183594 C 68.867188 12.710938 69.933594 11.929688 70.394531 11.664062 C 70.554688 11.570312 71.175781 11.441406 71.753906 11.359375 C 72.863281 11.226562 73.546875 11.347656 74.972656 11.957031 L 75.460938 12.152344 L 75.460938 13.316406 C 75.460938 14.519531 75.566406 14.8125 75.988281 14.8125 C 76.320312 14.8125 76.621094 14.402344 76.714844 13.820312 C 76.753906 13.527344 76.859375 12.988281 76.925781 12.617188 L 77.058594 11.941406 L 78.191406 11.425781 C 79.011719 11.070312 79.5 10.925781 79.894531 10.949219 C 80.476562 10.976562 80.644531 10.859375 80.804688 10.316406 C 80.9375 9.890625 82.230469 8.1875 82.597656 7.960938 C 82.742188 7.867188 83.273438 7.722656 83.761719 7.65625 C 84.234375 7.589844 85.054688 7.472656 85.582031 7.378906 C 86.742188 7.195312 86.742188 7.195312 87.730469 8.792969 C 88.113281 9.402344 88.523438 9.984375 88.640625 10.089844 C 88.761719 10.183594 89.355469 10.488281 89.972656 10.765625 C 90.59375 11.03125 91.332031 11.375 91.621094 11.519531 C 92.296875 11.851562 92.824219 11.835938 93.746094 11.492188 C 94.867188 11.070312 95.039062 10.84375 95.238281 9.46875 C 95.433594 8.148438 95.566406 7.949219 96.664062 7.417969 C 97.003906 7.246094 97.453125 6.996094 97.652344 6.851562 C 98.152344 6.507812 98.5625 6.558594 99.289062 7.0625 L 99.933594 7.5 L 99.90625 9.5625 C 99.882812 11.585938 99.882812 11.625 99.484375 12.324219 C 99.035156 13.105469 98.273438 13.820312 97.347656 14.269531 C 96.1875 14.851562 96.015625 15.0625 95.792969 16.214844 L 95.582031 17.257812 L 94.089844 17.746094 C 93.257812 18.011719 92.480469 18.328125 92.347656 18.449219 C 92.214844 18.566406 92.042969 18.925781 91.964844 19.253906 C 91.78125 19.957031 91.769531 19.957031 89.882812 19.535156 C 88.679688 19.253906 88.484375 19.242188 88.101562 19.402344 C 87.863281 19.507812 87.636719 19.625 87.597656 19.679688 C 87.558594 19.730469 87.28125 19.929688 86.992188 20.101562 C 86.53125 20.378906 84.433594 22.613281 84.433594 22.839844 C 84.433594 22.878906 84.617188 23.238281 84.828125 23.632812 C 85.054688 24.03125 85.316406 24.785156 85.433594 25.300781 C 85.554688 25.828125 85.699219 26.34375 85.765625 26.464844 C 85.9375 26.808594 86.121094 29.609375 85.988281 29.835938 C 85.9375 29.902344 85.644531 30.085938 85.328125 30.234375 C 83.273438 31.25 82.636719 31.621094 82.507812 31.859375 C 82.308594 32.242188 82.269531 32.269531 82.085938 32.148438 Z M 80.976562 23.644531 C 81.027344 23.238281 80.6875 22.984375 80.238281 23.105469 C 79.90625 23.183594 79.894531 23.261719 80.105469 23.738281 C 80.316406 24.226562 80.921875 24.164062 80.976562 23.644531 Z M 82.257812 18.171875 C 82.441406 17.972656 82.585938 17.667969 82.585938 17.511719 C 82.585938 17.230469 82.519531 17.191406 82.03125 17.191406 C 81.570312 17.191406 81.410156 17.257812 81.109375 17.628906 C 80.554688 18.277344 80.605469 18.515625 81.332031 18.515625 C 81.820312 18.515625 82.003906 18.449219 82.257812 18.171875 Z M 74.40625 17.5625 C 74.5 17.191406 74.523438 16.863281 74.460938 16.796875 C 74.394531 16.742188 74.0625 16.648438 73.707031 16.609375 C 73.113281 16.519531 73.074219 16.53125 72.941406 16.875 C 72.875 17.085938 72.835938 17.378906 72.875 17.523438 C 72.957031 17.828125 73.839844 18.394531 74.089844 18.289062 C 74.183594 18.265625 74.328125 17.933594 74.40625 17.5625 Z M 86.875 14.21875 C 86.875 13.875 86.148438 13.765625 85.898438 14.070312 C 85.644531 14.375 85.859375 14.5625 86.386719 14.519531 C 86.769531 14.496094 86.875 14.429688 86.875 14.21875 Z M 76.160156 9.375 C 75.9375 9.152344 76.109375 8.859375 76.464844 8.859375 C 76.832031 8.859375 76.914062 9.308594 76.570312 9.441406 C 76.304688 9.546875 76.332031 9.546875 76.160156 9.375 Z M 72.164062 9.019531 C 72.164062 8.769531 72.636719 8.464844 73.035156 8.464844 C 73.179688 8.464844 73.21875 8.542969 73.140625 8.769531 C 73.035156 9.125 73.101562 9.074219 72.597656 9.191406 C 72.230469 9.269531 72.164062 9.246094 72.164062 9.019531 Z M 80.6875 8.359375 C 80.59375 8.199219 80.976562 7.855469 81.09375 7.988281 C 81.148438 8.027344 81.09375 8.171875 80.976562 8.277344 C 80.859375 8.410156 80.738281 8.4375 80.6875 8.359375 Z M 80.6875 8.359375 "
    />
    <path
      style="stroke: none; fill-rule: nonzero; fill: rgb(96.078431%, 94.509804%, 83.529412%); fill-opacity: 1"
      d="M 93.761719 6.917969 C 93.613281 6.785156 93.65625 6.558594 93.839844 6.296875 C 94.035156 6.015625 94.460938 6.136719 94.460938 6.46875 C 94.460938 6.863281 93.996094 7.15625 93.761719 6.917969 Z M 88.125 6.097656 C 87.847656 5.992188 87.824219 5.621094 88.0625 5.421875 C 88.3125 5.210938 88.65625 5.34375 88.65625 5.660156 C 88.65625 5.992188 88.390625 6.203125 88.125 6.097656 Z M 80.25 4.667969 C 80.011719 4.574219 80.039062 4.035156 80.277344 3.78125 C 80.582031 3.492188 81.082031 3.703125 81.027344 4.113281 C 81.015625 4.285156 80.898438 4.507812 80.777344 4.601562 C 80.539062 4.773438 80.5 4.773438 80.25 4.667969 Z M 89.523438 1.230469 C 89.339844 1.042969 89.472656 0.6875 89.777344 0.554688 C 90.09375 0.410156 90.5 0.460938 90.5 0.660156 C 90.5 0.898438 89.683594 1.386719 89.523438 1.230469 Z M 89.523438 1.230469 "
    />
  </g>
</svg>
