<svg
  class="img-fluid"
  id="outputsvg"
  xmlns="http://www.w3.org/2000/svg"
  style="transform: none; transform-origin: 50% 50%; cursor: move"
  viewBox="160 5992.57 24936.9 10427.43"
>
  <g id="l4iw7IqaWGLzMWuLs8TwLmm" fill="rgb(0,0,0)" style="transform: none">
    <g style="transform: none">
      <path
        id="pDeuRc6j7"
        d="M20000 16410 c-647 -7 -716 -10 -900 -36 -174 -25 -175 -25 -96 -40 149 -28 309 -37 1121 -60 506 -14 811 -27 902 -40 59 -9 63 -29 17 -104 -31 -51 -2 -253 53 -369 59 -125 124 -155 181 -85 52 63 66 134 63 341 -1 179 -1 182 23 209 23 27 28 29 130 32 132 5 171 -2 192 -34 15 -23 15 -31 0 -107 -20 -102 -20 -187 -1 -282 18 -88 36 -132 65 -162 25 -27 23 -27 58 -9 60 31 120 195 129 348 6 91 4 100 -22 153 -18 38 -24 60 -17 67 23 23 169 29 534 22 l376 -7 7 -126 c8 -152 35 -285 81 -406 19 -49 36 -91 38 -92 2 -2 22 21 46 51 54 71 84 164 104 331 27 213 24 202 59 216 35 13 768 27 1515 28 l412 1 0 85 0 85 -2217 -2 c-1220 -1 -2504 -5 -2853 -8z"
      ></path>
      <path
        id="pJBf4o1a9"
        d="M9115 16270 c-627 -9 -798 -19 -845 -47 -36 -21 -38 -29 -6 -37 85 -21 1116 -37 3426 -51 520 -3 1104 -10 1298 -15 l353 -10 117 46 c106 42 164 76 151 88 -2 3 -40 10 -84 16 -100 14 -3551 22 -4410 10z"
      ></path>
      <path
        id="pkpmJVjoE"
        d="M14150 16024 c-322 -28 -511 -83 -685 -199 -149 -100 -396 -353 -381 -391 5 -14 17 -16 69 -11 34 3 118 11 187 18 164 15 799 5 1008 -16 330 -33 562 -111 757 -255 44 -32 107 -76 140 -97 l60 -38 160 0 c147 0 164 -2 203 -23 110 -58 211 -206 253 -370 55 -214 24 -542 -68 -729 -44 -91 -95 -149 -173 -199 -66 -43 -100 -95 -100 -153 0 -48 -26 -140 -71 -251 -38 -96 -48 -140 -30 -140 29 0 199 139 305 250 88 94 145 180 244 370 36 70 66 116 77 118 9 2 29 -7 43 -21 81 -75 199 -81 552 -26 308 47 457 81 540 122 78 39 89 60 89 187 1 100 15 227 37 324 20 90 20 186 0 224 -30 58 -110 111 -258 171 -166 68 -321 92 -742 116 -297 17 -338 21 -378 42 -36 18 -39 65 -5 87 54 36 627 27 891 -14 210 -33 388 -101 526 -201 109 -79 164 -100 288 -108 128 -9 164 -24 230 -95 58 -64 104 -149 142 -261 32 -95 48 -122 82 -139 54 -26 83 -158 72 -322 l-7 -103 34 -20 c31 -19 50 -21 189 -21 328 1 692 55 806 120 71 40 90 83 103 230 6 63 12 155 14 203 l4 89 -37 23 c-142 89 -293 143 -482 171 -93 14 -157 15 -363 10 -137 -3 -281 -9 -318 -12 l-68 -6 3 68 c3 63 5 70 29 81 40 20 304 43 484 43 309 0 574 -64 757 -182 105 -69 163 -90 267 -99 164 -14 221 -56 306 -221 25 -48 67 -111 94 -140 76 -83 93 -133 106 -298 3 -41 8 -86 11 -99 l5 -23 182 4 c255 7 365 36 400 105 18 34 37 172 37 260 0 131 -38 202 -133 246 -69 33 -165 53 -384 81 -212 27 -233 36 -233 96 0 55 17 60 208 60 275 0 411 -32 568 -135 117 -76 153 -93 234 -110 79 -17 136 -43 195 -90 63 -50 65 -50 53 -8 -65 239 -295 500 -555 632 -119 60 -199 76 -378 76 -197 0 -264 -15 -400 -91 -54 -29 -103 -50 -109 -47 -6 4 -58 43 -116 88 -271 211 -431 284 -736 335 -171 29 -458 25 -599 -8 -168 -40 -259 -76 -373 -148 -29 -19 -61 -34 -71 -34 -28 0 -94 52 -236 186 -205 193 -348 297 -534 386 -181 87 -207 90 -609 86 -410 -5 -373 3 -686 -150 -123 -61 -203 -95 -210 -89 -6 5 -50 39 -97 77 -251 200 -591 335 -974 388 -113 16 -365 27 -445 20z"
      ></path>
      <path
        id="p1ldngxO6"
        d="M5114 15436 c-116 -30 -253 -68 -305 -86 -119 -41 -269 -117 -351 -179 -210 -159 -364 -420 -433 -731 -25 -113 -31 -391 -11 -510 33 -205 105 -387 215 -547 59 -87 203 -238 250 -263 24 -12 24 -12 18 23 -3 19 -42 115 -87 213 -138 301 -210 551 -210 728 0 39 9 112 19 161 20 95 77 238 92 229 5 -3 9 -100 9 -215 0 -224 7 -297 46 -451 36 -144 90 -287 170 -448 237 -476 570 -857 1134 -1299 148 -116 437 -287 687 -406 383 -183 911 -368 936 -328 7 11 -77 134 -243 358 -151 204 -224 311 -235 345 -4 14 -25 48 -46 77 -87 117 -258 464 -389 793 -65 161 -90 241 -90 279 l1 26 28 -31 c35 -38 116 -185 261 -474 284 -566 572 -997 932 -1394 l54 -59 239 32 c634 86 1067 177 1620 342 807 240 1483 535 2024 882 417 268 738 540 893 757 70 98 124 205 154 305 24 79 27 108 28 230 0 137 0 142 -38 252 -57 168 -147 314 -287 467 -109 120 -312 272 -464 348 -172 87 -469 181 -751 238 -497 102 -767 114 -2394 114 -1263 0 -1489 -6 -1944 -50 l-269 -26 -82 83 c-98 97 -203 170 -289 199 -116 38 -289 61 -491 65 l-190 4 -211 -53z m4000 -1093 c244 -369 710 -1340 747 -1559 15 -86 6 -117 -52 -169 -68 -61 -132 -44 -230 61 -292 315 -534 921 -580 1452 -11 121 -8 258 7 295 14 38 43 17 108 -80z m1312 -35 c63 -58 180 -205 301 -378 317 -455 419 -702 348 -841 -28 -52 -106 -65 -181 -29 -166 81 -398 496 -504 905 -46 173 -56 288 -34 368 8 26 20 21 70 -25z m-2909 -265 c22 -32 59 -94 83 -138 201 -371 407 -692 551 -860 111 -130 290 -422 334 -545 24 -67 37 -157 29 -207 -10 -65 -58 -113 -113 -113 -58 0 -110 29 -198 113 -206 196 -443 570 -532 840 -71 214 -208 757 -226 894 -12 92 15 98 72 16z m-2507 -35 c10 -24 21 -68 25 -98 16 -133 106 -409 219 -672 41 -98 81 -199 87 -224 11 -42 10 -48 -6 -60 -119 -87 -313 273 -375 693 -41 284 -12 501 50 361z m470 -110 c28 -47 53 -101 155 -338 110 -254 228 -481 429 -830 54 -93 109 -232 114 -286 16 -193 -144 -76 -340 247 -112 184 -176 324 -264 584 -106 310 -173 665 -126 665 4 0 18 -19 32 -42z m-791 -61 c28 -70 111 -359 111 -386 0 -53 -72 0 -118 86 -48 91 -75 203 -70 288 3 40 8 77 12 84 12 19 41 -13 65 -72z"
      ></path>
      <path
        id="pHPB6jn5T"
        d="M13310 15281 c-144 -21 -329 -85 -405 -141 -101 -74 -136 -79 -520 -80 -271 0 -501 -11 -539 -26 -33 -13 -16 -40 45 -75 324 -181 588 -470 753 -821 25 -54 66 -140 90 -192 54 -116 67 -125 133 -91 59 30 75 31 608 20 322 -6 421 -4 568 9 417 37 747 104 932 190 104 48 106 52 116 264 7 174 22 278 53 383 49 165 -15 261 -259 383 -287 143 -483 174 -1135 181 -212 2 -410 0 -440 -4z"
      ></path>
      <path
        id="pBMao6Nhn"
        d="M25015 15131 c-15 -14 -598 -29 -1590 -41 -1181 -14 -1668 -24 -1684 -34 -11 -7 -11 -10 2 -18 22 -12 315 -26 792 -38 512 -12 2554 -35 2560 -28 9 8 -16 111 -33 141 -17 28 -31 34 -47 18z"
      ></path>
      <path
        id="p1AlnefNMO"
        d="M2015 14830 c-385 -8 -537 -19 -559 -40 -5 -5 -7 -13 -3 -16 17 -17 161 -34 373 -45 306 -15 1727 -7 1834 11 97 15 143 34 138 57 -3 15 -18 19 -93 24 -164 12 -1273 17 -1690 9z"
      ></path>
      <path
        id="p1DwlMSuIC"
        d="M14975 13890 c-238 -83 -485 -133 -815 -166 -241 -23 -728 -28 -1060 -11 -151 8 -276 14 -277 13 -2 -2 6 -30 18 -64 84 -250 513 -601 961 -786 114 -47 195 -56 511 -56 375 0 440 12 632 111 273 140 409 291 489 547 46 146 50 136 -133 311 -87 83 -165 151 -172 150 -8 0 -77 -22 -154 -49z"
      ></path>
      <path
        id="phkNdnLsN"
        d="M17180 13779 c-160 -44 -255 -55 -800 -89 -253 -16 -278 -27 -339 -148 -52 -103 -128 -201 -270 -352 -141 -149 -147 -159 -127 -199 48 -92 246 -199 456 -246 103 -23 409 -31 537 -15 301 37 531 141 711 319 162 160 276 393 259 524 -5 33 -18 53 -74 110 -105 107 -136 127 -197 126 -28 0 -98 -14 -156 -30z"
      ></path>
      <path
        id="pJRQ0Xbeu"
        d="M19280 13799 c-175 -71 -642 -139 -947 -139 -150 0 -183 -7 -183 -40 0 -29 -52 -155 -132 -323 -42 -87 -68 -151 -62 -156 146 -131 402 -245 679 -302 152 -32 246 -24 355 28 137 65 346 239 486 406 116 138 134 188 94 267 -22 43 -236 270 -254 269 -6 0 -22 -5 -36 -10z"
      ></path>
      <path
        id="p1GIRpzwOA"
        d="M17940 13725 c-87 -58 -189 -148 -199 -175 -5 -14 -19 -67 -31 -118 -12 -52 -36 -133 -55 -180 -63 -166 -56 -190 32 -99 104 108 248 349 304 510 38 110 32 118 -51 62z"
      ></path>
      <path
        id="pcuaKQZrg"
        d="M19915 13706 c-61 -63 -122 -152 -210 -306 -153 -266 -173 -318 -108 -283 38 21 161 139 213 204 87 110 170 281 185 382 7 44 6 47 -16 47 -13 0 -39 -17 -64 -44z"
      ></path>
      <path
        id="pKaKfq8pc"
        d="M21277 13676 c-35 -60 -68 -95 -147 -155 -17 -12 -39 -40 -50 -61 -30 -59 -123 -311 -116 -317 12 -12 71 23 121 71 98 97 207 283 240 411 33 128 11 152 -48 51z"
      ></path>
      <path
        id="p0Ap7jY4y"
        d="M20585 13658 c-53 -15 -116 -21 -261 -25 l-191 -6 -53 -101 c-74 -142 -166 -278 -249 -369 -105 -115 -133 -155 -121 -178 13 -24 120 -75 200 -95 87 -22 264 -15 377 15 296 78 541 269 623 487 30 83 27 113 -23 186 -60 87 -94 108 -171 107 -34 -1 -92 -10 -131 -21z"
      ></path>
      <path
        id="pvNdCGLk9"
        d="M12661 13482 c-87 -182 -204 -360 -317 -481 -189 -205 -677 -571 -1029 -773 -518 -297 -1127 -556 -1733 -737 -514 -154 -1553 -374 -1872 -395 -190 -13 -401 20 -670 105 -85 27 -175 52 -199 56 l-44 6 6 -29 c3 -16 13 -50 23 -77 22 -54 14 -76 -30 -92 -24 -8 -77 -3 -214 21 l-32 6 0 -44 c0 -148 245 -309 492 -324 144 -8 164 -19 313 -164 231 -224 519 -446 694 -535 59 -30 76 -31 86 -7 5 9 11 146 16 303 9 318 16 359 81 439 46 58 96 81 188 87 258 18 475 -102 1060 -587 443 -366 951 -751 1100 -833 149 -81 421 -182 680 -252 282 -75 367 -90 530 -90 130 1 154 3 235 28 284 89 827 362 1245 627 273 173 672 471 805 600 77 76 117 89 253 83 71 -4 112 -9 109 -16 -6 -19 -80 -38 -182 -47 -104 -9 -125 -20 -125 -64 0 -94 -458 -453 -975 -762 -82 -50 -252 -148 -377 -219 -126 -71 -228 -135 -228 -142 0 -20 60 -16 211 12 187 35 297 66 462 131 566 224 1200 623 1585 998 141 137 149 155 95 219 -51 62 -14 93 97 82 156 -16 223 -61 145 -98 -27 -13 -41 -30 -61 -74 -28 -64 -83 -125 -219 -242 -203 -175 -564 -437 -932 -676 -84 -54 -153 -103 -153 -107 0 -12 130 -10 192 3 160 32 373 130 663 306 324 197 523 337 830 589 315 257 365 329 244 349 -22 4 -52 17 -67 30 -26 23 -26 24 -9 42 14 15 33 18 95 17 130 -2 212 -37 212 -91 0 -95 -437 -488 -910 -818 -159 -111 -303 -221 -308 -236 -9 -25 255 -1 395 36 404 107 1102 500 1512 851 452 387 661 773 661 1220 0 145 -8 171 -86 288 l-57 86 -279 0 -278 0 0 -32 c0 -105 23 -371 35 -414 11 -37 33 -71 85 -130 38 -43 86 -109 105 -146 41 -76 75 -200 75 -267 0 -96 -41 -171 -93 -171 -79 0 -229 180 -251 301 -7 40 -46 89 -70 89 -8 0 -24 -14 -36 -31 -19 -25 -28 -30 -58 -27 -20 2 -40 10 -46 21 -12 19 -8 28 77 167 59 98 70 142 70 280 0 186 -32 303 -90 329 -13 6 -47 11 -75 11 -76 0 -365 -29 -428 -43 -68 -15 -70 -23 -40 -149 13 -55 25 -149 29 -231 8 -155 13 -167 78 -167 80 0 149 -63 213 -195 100 -204 91 -415 -19 -456 -93 -36 -221 141 -290 400 -16 62 -32 115 -35 118 -2 3 -27 -31 -55 -75 -53 -83 -129 -162 -155 -162 -27 0 -36 -37 -36 -155 0 -188 -29 -255 -113 -255 -56 0 -99 31 -147 103 -88 135 -140 328 -122 456 14 97 31 115 111 116 71 0 79 -6 157 -121 73 -110 114 -133 114 -63 0 28 29 69 49 69 17 0 72 128 97 228 35 134 30 251 -16 415 l-34 119 -60 -6 c-34 -3 -160 -13 -280 -21 -254 -18 -319 -24 -337 -36 -10 -6 -10 -22 5 -86 48 -214 48 -216 43 -343 -3 -69 -12 -154 -22 -190 -25 -96 -107 -260 -155 -310 -38 -40 -41 -47 -36 -84 23 -173 14 -263 -30 -315 -51 -61 -120 -47 -201 43 -144 159 -203 484 -105 581 49 49 103 32 208 -65 42 -39 81 -69 88 -67 21 6 74 95 104 176 49 127 64 217 52 303 -14 100 -43 191 -83 263 -49 87 -83 102 -267 114 -210 14 -360 50 -593 143 -269 106 -516 268 -723 473 -135 134 -188 204 -316 420 -93 158 -107 183 -192 352 -42 84 -80 155 -85 157 -4 3 -18 -16 -30 -42z m-468 -1780 c87 -17 122 -29 176 -61 86 -51 160 -118 222 -199 108 -143 144 -279 136 -517 -5 -175 -21 -235 -82 -309 -70 -86 -224 -180 -355 -217 -250 -72 -799 77 -845 229 -3 12 -2 22 3 22 6 0 51 -16 101 -35 115 -45 294 -91 402 -105 252 -31 446 15 567 136 92 93 120 198 102 379 -18 181 -61 284 -165 394 -76 80 -154 134 -325 225 -68 37 -129 71 -135 77 -13 14 52 8 198 -19z m-396 -172 c111 -55 181 -173 191 -322 11 -174 -63 -311 -200 -373 -55 -25 -69 -27 -143 -23 -141 9 -233 65 -287 176 -32 65 -33 70 -33 197 0 116 3 135 24 179 27 56 97 136 147 167 76 47 203 46 301 -1z m4617 -651 c62 -11 126 -44 126 -64 0 -19 -59 -27 -118 -15 -84 16 -126 46 -102 75 15 18 20 18 94 4z"
      ></path>
      <path
        id="p2XD0h9jz"
        d="M22133 13394 c-10 -14 -26 -34 -35 -45 -18 -18 -17 -19 30 -19 26 0 64 -4 85 -9 l39 -9 -21 22 c-12 12 -21 30 -21 38 0 53 -47 66 -77 22z"
      ></path>
      <path
        id="pDdJIj9Ii"
        d="M160 13113 c0 -322 19 -1120 29 -1256 5 -66 14 -124 20 -130 9 -9 22 -6 51 11 21 12 45 22 52 22 7 0 39 -16 72 -36 90 -54 100 -54 186 5 95 63 204 151 350 281 63 57 141 120 173 141 97 63 240 108 472 149 152 27 307 64 382 91 32 12 97 49 144 81 l87 60 68 -7 c78 -8 146 -22 319 -66 127 -33 494 -137 506 -145 4 -2 76 32 161 75 279 145 398 186 753 256 319 63 396 91 427 153 15 29 15 30 -17 45 -65 31 -270 222 -395 368 -35 41 -70 79 -79 84 -11 7 -419 9 -1186 8 -1055 -3 -2202 8 -2472 23 l-103 5 0 -218z"
      ></path>
      <path
        id="p4HUL23SD"
        d="M13036 13248 c18 -60 92 -199 154 -291 254 -381 672 -656 1180 -779 91 -22 113 -23 480 -23 431 0 620 10 1285 64 66 6 350 28 630 50 281 23 566 45 635 51 69 6 190 14 270 20 330 22 623 44 960 70 496 40 540 48 540 107 0 39 -34 94 -100 160 -86 88 -94 89 -354 73 -243 -15 -342 -9 -464 26 -98 29 -138 48 -250 120 -45 30 -105 65 -132 79 -49 25 -50 25 -92 8 -24 -9 -52 -22 -63 -28 -223 -131 -426 -222 -674 -305 -251 -84 -312 -93 -631 -94 -229 -1 -277 2 -349 18 -107 25 -316 127 -469 230 -62 41 -126 77 -142 81 -39 9 -123 -14 -298 -81 -229 -88 -332 -122 -402 -134 -36 -6 -236 -13 -445 -17 l-380 -6 -180 91 c-282 142 -337 182 -558 404 -124 124 -167 154 -151 106z"
      ></path>
      <path
        id="p1irqHrpC"
        d="M23102 12456 c-48 -52 -58 -82 -43 -128 18 -51 55 -73 124 -73 52 0 62 3 83 28 30 35 32 98 4 144 -18 31 -84 73 -113 73 -8 0 -33 -20 -55 -44z"
      ></path>
      <path
        id="pEgkKjOV3"
        d="M22257 12430 c-44 -35 -67 -97 -67 -181 0 -103 30 -186 92 -252 l47 -50 64 5 c38 3 87 16 120 31 126 58 110 138 -69 348 -67 78 -117 119 -146 119 -9 0 -27 -9 -41 -20z"
      ></path>
      <path
        id="pSlsP84u2"
        d="M19740 12320 c-30 -5 -190 -18 -355 -30 -280 -20 -388 -27 -960 -65 -582 -38 -704 -47 -891 -65 -198 -19 -234 -25 -234 -40 0 -4 18 -48 40 -98 60 -135 80 -224 80 -357 0 -236 -73 -463 -230 -716 -130 -210 -412 -498 -695 -711 -200 -150 -516 -348 -717 -449 -131 -65 -239 -129 -284 -165 -36 -29 -42 -40 -48 -84 -8 -58 -56 -202 -93 -275 -38 -75 -110 -184 -160 -240 -82 -94 -130 -225 -87 -242 65 -25 941 362 1309 577 383 226 671 446 936 717 344 351 542 693 632 1093 20 85 22 123 21 358 -1 209 2 262 12 262 24 0 66 -70 96 -158 38 -113 49 -129 100 -143 52 -14 105 -9 393 37 626 99 841 132 1230 189 390 58 491 80 512 112 57 87 -153 377 -335 465 -74 35 -167 45 -272 28z"
      ></path>
      <path
        id="pNJVkWayK"
        d="M20080 11633 c-323 -35 -1896 -286 -1917 -307 -6 -6 -36 -94 -67 -196 -74 -250 -97 -313 -171 -465 -97 -198 -241 -410 -373 -547 -53 -55 -52 -78 3 -78 61 0 660 134 1160 259 66 17 316 78 555 136 592 144 630 156 733 234 93 70 225 279 283 450 65 194 109 453 85 499 -11 21 -18 22 -134 20 -67 0 -138 -3 -157 -5z"
      ></path>
      <path
        id="py9OVcmgZ"
        d="M24450 11309 c-62 -26 -79 -82 -39 -132 33 -43 87 -54 159 -32 32 10 69 29 81 42 22 22 22 24 6 58 -9 19 -30 41 -48 50 -39 21 -126 28 -159 14z"
      ></path>
      <path
        id="pNQ1LVmUl"
        d="M8353 10706 c-65 -58 -83 -113 -90 -266 -12 -256 68 -652 198 -981 27 -70 94 -218 149 -327 l98 -200 64 -6 c35 -3 178 -10 318 -16 232 -10 370 -23 392 -36 34 -21 -43 -76 -151 -106 -36 -10 -111 -21 -166 -24 -143 -9 -235 -33 -235 -62 0 -16 47 -77 120 -156 l45 -48 451 7 c429 7 615 3 644 -15 35 -22 -77 -106 -203 -152 -70 -25 -104 -31 -237 -39 -138 -8 -400 -36 -408 -44 -1 -1 46 -39 106 -83 174 -131 402 -230 681 -298 141 -34 141 -34 115 -81 -27 -48 -20 -67 40 -117 62 -51 65 -69 22 -154 -42 -83 -45 -116 -15 -133 26 -13 93 -6 116 13 9 7 25 33 37 58 17 39 20 61 17 155 -2 61 -4 131 -5 157 -2 91 35 115 279 175 286 70 377 72 463 10 61 -44 147 -94 362 -207 96 -51 176 -93 177 -94 2 -1 28 -126 58 -277 31 -151 60 -278 65 -283 5 -5 13 8 19 30 16 59 41 267 41 337 0 123 22 155 140 207 94 42 182 97 254 157 163 138 211 160 234 109 44 -98 88 -523 112 -1081 29 -691 43 -852 73 -842 32 10 43 193 67 1182 12 472 28 835 40 885 4 19 20 79 34 134 28 106 33 175 14 194 -16 16 -52 15 -140 -3 -89 -19 -109 -38 -132 -123 -9 -35 -33 -89 -54 -120 l-37 -57 -6 76 c-6 73 -20 116 -43 131 -20 14 -90 8 -156 -13 -210 -65 -904 -219 -992 -219 -45 0 -33 23 47 96 165 147 305 435 322 661 9 129 -7 142 -237 182 -63 11 -162 34 -220 51 -142 42 -441 146 -516 180 -270 121 -761 473 -1355 972 -319 267 -470 379 -607 447 -113 57 -249 101 -310 101 -45 0 -55 -4 -99 -44z m673 -527 c107 -55 164 -99 211 -161 83 -108 119 -257 111 -456 -5 -128 -11 -142 -106 -239 -89 -91 -117 -105 -220 -111 -148 -8 -296 39 -380 121 -111 108 -190 377 -162 552 26 160 125 266 295 316 103 30 159 25 251 -22z"
      ></path>
      <path
        id="pvVkFBqkQ"
        d="M8865 10060 c19 -39 37 -83 39 -98 3 -15 9 -55 15 -89 8 -45 8 -82 1 -130 -23 -140 -79 -215 -203 -267 l-68 -29 63 -40 c76 -49 213 -97 274 -97 60 0 108 26 175 96 74 78 93 130 87 231 -14 226 -194 456 -381 488 l-38 6 36 -71z"
      ></path>
      <path
        id="p4WSoMoj2"
        d="M23894 10564 c-21 -85 70 -310 149 -368 40 -29 167 -35 217 -9 65 34 65 141 -1 224 -54 68 -211 154 -322 174 -33 7 -37 5 -43 -21z"
      ></path>
      <path
        id="p2k9GdHix"
        d="M19640 10400 c-83 -18 -850 -206 -960 -235 -30 -8 -127 -30 -215 -50 -275 -62 -907 -222 -1021 -259 -150 -49 -215 -85 -389 -212 -292 -215 -458 -318 -893 -555 -152 -83 -290 -161 -307 -173 l-30 -21 30 -3 c46 -4 330 54 980 203 110 25 301 68 425 95 421 94 495 112 665 167 253 82 588 220 915 376 160 76 319 141 327 133 11 -11 -27 -43 -125 -109 -397 -264 -873 -472 -1352 -592 -205 -51 -266 -72 -289 -101 -33 -41 -10 -74 103 -153 194 -134 395 -191 669 -191 255 0 523 71 776 205 343 183 634 486 727 756 36 106 51 211 59 399 8 188 18 246 47 277 11 11 18 29 16 40 -5 25 -53 26 -158 3z"
      ></path>
      <path
        id="pFJp6HXU8"
        d="M20215 9608 c-34 -26 -75 -112 -75 -156 0 -28 5 -35 35 -48 19 -7 57 -14 84 -14 42 0 56 5 85 30 56 50 60 133 9 184 -34 34 -98 36 -138 4z"
      ></path>
      <path
        id="pJmh7ry8p"
        d="M15125 9543 c-99 -14 -391 -76 -443 -94 -94 -32 -114 -57 -145 -186 -19 -76 -43 -140 -82 -216 -30 -59 -55 -110 -55 -112 0 -15 155 17 400 82 313 82 457 202 490 407 8 52 8 73 -2 94 -12 25 -18 27 -73 28 -33 1 -73 -1 -90 -3z"
      ></path>
      <path
        id="p2fpGFulJ"
        d="M14275 9359 c-339 -63 -1865 -365 -1870 -371 -2 -2 -8 -46 -14 -99 -17 -151 -55 -281 -116 -401 -31 -62 -49 -108 -42 -108 46 0 231 40 462 99 314 80 866 222 1110 285 165 43 318 98 381 137 81 49 188 193 223 297 25 73 27 120 5 150 -17 24 -50 27 -139 11z"
      ></path>
      <path
        id="p8XqSrnSH"
        d="M12045 8959 c-185 -30 -188 -32 -224 -151 -88 -292 -159 -466 -227 -555 -13 -17 -25 -42 -26 -55 -3 -21 0 -23 42 -21 91 3 393 149 474 228 79 77 182 318 193 453 5 60 3 69 -17 87 -25 23 -120 29 -215 14z"
      ></path>
      <path
        id="p1GHWrhEJ5"
        d="M16850 8963 c-69 -12 -1047 -221 -1260 -270 -389 -88 -499 -130 -472 -180 6 -11 44 -37 84 -58 96 -50 153 -97 193 -159 59 -92 177 -191 300 -254 75 -37 91 -55 104 -114 17 -73 40 -518 46 -893 8 -417 21 -562 51 -533 22 23 50 420 74 1083 6 154 13 322 16 373 l6 93 77 54 c93 65 205 180 299 307 107 145 165 203 257 257 153 90 352 255 342 284 -4 12 -71 18 -117 10z"
      ></path>
      <path
        id="pxlA3i61X"
        d="M14640 8856 c-96 -24 -326 -80 -510 -126 -381 -93 -769 -193 -945 -244 -137 -40 -160 -58 -170 -133 -10 -72 -23 -109 -61 -165 -43 -64 -42 -92 4 -96 47 -5 230 35 617 133 548 139 706 170 742 147 29 -19 43 -81 93 -433 57 -395 87 -507 124 -456 17 23 22 76 46 507 11 201 25 389 30 419 12 63 28 85 86 110 82 37 230 213 255 303 25 94 -40 101 -311 34z"
      ></path>
      <path
        id="p1BkVa199V"
        d="M17573 8473 c-18 -7 -16 -88 2 -123 25 -49 146 -98 209 -86 45 9 96 60 96 96 0 40 -29 57 -142 85 -114 28 -149 34 -165 28z"
      ></path>
      <path
        id="pnTUz2U2B"
        d="M20380 8243 c-29 -11 -50 -36 -50 -62 0 -47 109 -188 175 -227 69 -40 232 -45 270 -8 59 59 -66 264 -179 293 -46 11 -189 14 -216 4z"
      ></path>
      <path
        id="p1EgEfK0nM"
        d="M18552 8169 c-35 -17 -91 -57 -125 -89 l-62 -58 1 -74 c0 -58 6 -85 25 -124 l24 -49 58 -3 c63 -3 211 21 265 44 l35 14 -6 66 c-8 84 -42 208 -70 259 -29 52 -61 55 -145 14z"
      ></path>
      <path
        id="p19kcbuYiB"
        d="M21647 7250 c-66 -20 -73 -53 -23 -107 31 -34 39 -37 97 -41 55 -3 69 0 99 20 53 36 54 96 3 116 -40 15 -143 22 -176 12z"
      ></path>
    </g>
  </g>
</svg>
