<svg xmlns="http://www.w3.org/2000/svg" id="root" viewBox="4002 5992.6 17338.3 10033.6">
  <path
    d="M14150 16024c-322-28-511-83-685-199-149-100-396-353-381-391 5-14 17-16 69-11 34 3 118 11 187 18 164 15 799 5 1008-16 330-33 562-111 757-255 44-32 107-76 140-97l60-38h160c147 0 164-2 203-23 110-58 211-206 253-370 55-214 24-542-68-729-44-91-95-149-173-199-66-43-100-95-100-153 0-48-26-140-71-251-38-96-48-140-30-140 29 0 199 139 305 250 88 94 145 180 244 370 36 70 66 116 77 118 9 2 29-7 43-21 81-75 199-81 552-26 308 47 457 81 540 122 78 39 89 60 89 187 1 100 15 227 37 324 20 90 20 186 0 224-30 58-110 111-258 171-166 68-321 92-742 116-297 17-338 21-378 42-36 18-39 65-5 87 54 36 627 27 891-14 210-33 388-101 526-201 109-79 164-100 288-108 128-9 164-24 230-95 58-64 104-149 142-261 32-95 48-122 82-139 54-26 83-158 72-322l-7-103 34-20c31-19 50-21 189-21 328 1 692 55 806 120 71 40 90 83 103 230 6 63 12 155 14 203l4 89-37 23c-142 89-293 143-482 171-93 14-157 15-363 10-137-3-281-9-318-12l-68-6 3 68c3 63 5 70 29 81 40 20 304 43 484 43 309 0 574-64 757-182 105-69 163-90 267-99 164-14 221-56 306-221 25-48 67-111 94-140 76-83 93-133 106-298 3-41 8-86 11-99l5-23 182 4c255 7 365 36 400 105 18 34 37 172 37 260 0 131-38 202-133 246-69 33-165 53-384 81-212 27-233 36-233 96 0 55 17 60 208 60 275 0 411-32 568-135 117-76 153-93 234-110 79-17 136-43 195-90 63-50 65-50 53-8-65 239-295 500-555 632-119 60-199 76-378 76-197 0-264-15-400-91-54-29-103-50-109-47-6 4-58 43-116 88-271 211-431 284-736 335-171 29-458 25-599-8-168-40-259-76-373-148-29-19-61-34-71-34-28 0-94 52-236 186-205 193-348 297-534 386-181 87-207 90-609 86-410-5-373 3-686-150-123-61-203-95-210-89-6 5-50 39-97 77-251 200-591 335-974 388-113 16-365 27-445 20zm-9036-588c-116-30-253-68-305-86-119-41-269-117-351-179-210-159-364-420-433-731-25-113-31-391-11-510 33-205 105-387 215-547 59-87 203-238 250-263 24-12 24-12 18 23-3 19-42 115-87 213-138 301-210 551-210 728 0 39 9 112 19 161 20 95 77 238 92 229 5-3 9-100 9-215 0-224 7-297 46-451 36-144 90-287 170-448 237-476 570-857 1134-1299 148-116 437-287 687-406 383-183 911-368 936-328 7 11-77 134-243 358-151 204-224 311-235 345-4 14-25 48-46 77-87 117-258 464-389 793-65 161-90 241-90 279l1 26 28-31c35-38 116-185 261-474 284-566 572-997 932-1394l54-59 239 32c634 86 1067 177 1620 342 807 240 1483 535 2024 882 417 268 738 540 893 757 70 98 124 205 154 305 24 79 27 108 28 230 0 137 0 142-38 252-57 168-147 314-287 467-109 120-312 272-464 348-172 87-469 181-751 238-497 102-767 114-2394 114-1263 0-1489-6-1944-50l-269-26-82 83c-98 97-203 170-289 199-116 38-289 61-491 65l-190 4zm4000-1093c244-369 710-1340 747-1559 15-86 6-117-52-169-68-61-132-44-230 61-292 315-534 921-580 1452-11 121-8 258 7 295 14 38 43 17 108-80zm1312-35c63-58 180-205 301-378 317-455 419-702 348-841-28-52-106-65-181-29-166 81-398 496-504 905-46 173-56 288-34 368 8 26 20 21 70-25zm-2909-265c22-32 59-94 83-138 201-371 407-692 551-860 111-130 290-422 334-545 24-67 37-157 29-207-10-65-58-113-113-113-58 0-110 29-198 113-206 196-443 570-532 840-71 214-208 757-226 894-12 92 15 98 72 16zm-2507-35c10-24 21-68 25-98 16-133 106-409 219-672 41-98 81-199 87-224 11-42 10-48-6-60-119-87-313 273-375 693-41 284-12 501 50 361zm470-110c28-47 53-101 155-338 110-254 228-481 429-830 54-93 109-232 114-286 16-193-144-76-340 247-112 184-176 324-264 584-106 310-173 665-126 665 4 0 18-19 32-42zm-791-61c28-70 111-359 111-386 0-53-72 0-118 86-48 91-75 203-70 288 3 40 8 77 12 84 12 19 41-13 65-72z"
  />
  <path
    d="M13310 15281c-144-21-329-85-405-141-101-74-136-79-520-80-271 0-501-11-539-26-33-13-16-40 45-75 324-181 588-470 753-821 25-54 66-140 90-192 54-116 67-125 133-91 59 30 75 31 608 20 322-6 421-4 568 9 417 37 747 104 932 190 104 48 106 52 116 264 7 174 22 278 53 383 49 165-15 261-259 383-287 143-483 174-1135 181-212 2-410 0-440-4zm1665-1391c-238-83-485-133-815-166-241-23-728-28-1060-11-151 8-276 14-277 13-2-2 6-30 18-64 84-250 513-601 961-786 114-47 195-56 511-56 375 0 440 12 632 111 273 140 409 291 489 547 46 146 50 136-133 311-87 83-165 151-172 150-8 0-77-22-154-49zm2205-111c-160-44-255-55-800-89-253-16-278-27-339-148-52-103-128-201-270-352-141-149-147-159-127-199 48-92 246-199 456-246 103-23 409-31 537-15 301 37 531 141 711 319 162 160 276 393 259 524-5 33-18 53-74 110-105 107-136 127-197 126-28 0-98-14-156-30zm2100 20c-175-71-642-139-947-139-150 0-183-7-183-40 0-29-52-155-132-323-42-87-68-151-62-156 146-131 402-245 679-302 152-32 246-24 355 28 137 65 346 239 486 406 116 138 134 188 94 267-22 43-236 270-254 269-6 0-22-5-36-10zm-1340-74c-87-58-189-148-199-175-5-14-19-67-31-118-12-52-36-133-55-180-63-166-56-190 32-99 104 108 248 349 304 510 38 110 32 118-51 62zm1975-19c-61-63-122-152-210-306-153-266-173-318-108-283 38 21 161 139 213 204 87 110 170 281 185 382 7 44 6 47-16 47-13 0-39-17-64-44zm1362-30c-35-60-68-95-147-155-17-12-39-40-50-61-30-59-123-311-116-317 12-12 71 23 121 71 98 97 207 283 240 411s11 152-48 51zm-692-18c-53-15-116-21-261-25l-191-6-53-101c-74-142-166-278-249-369-105-115-133-155-121-178 13-24 120-75 200-95 87-22 264-15 377 15 296 78 541 269 623 487 30 83 27 113-23 186-60 87-94 108-171 107-34-1-92-10-131-21z"
  />
  <path
    d="M12661 13482c-87-182-204-360-317-481-189-205-677-571-1029-773-518-297-1127-556-1733-737-514-154-1553-374-1872-395-190-13-401 20-670 105-85 27-175 52-199 56l-44 6 6-29c3-16 13-50 23-77 22-54 14-76-30-92-24-8-77-3-214 21l-32 6v-44c0-148 245-309 492-324 144-8 164-19 313-164 231-224 519-446 694-535 59-30 76-31 86-7 5 9 11 146 16 303 9 318 16 359 81 439 46 58 96 81 188 87 258 18 475-102 1060-587 443-366 951-751 1100-833 149-81 421-182 680-252 282-75 367-90 530-90 130 1 154 3 235 28 284 89 827 362 1245 627 273 173 672 471 805 600 77 76 117 89 253 83 71-4 112-9 109-16-6-19-80-38-182-47-104-9-125-20-125-64 0-94-458-453-975-762-82-50-252-148-377-219-126-71-228-135-228-142 0-20 60-16 211 12 187 35 297 66 462 131 566 224 1200 623 1585 998 141 137 149 155 95 219-51 62-14 93 97 82 156-16 223-61 145-98-27-13-41-30-61-74-28-64-83-125-219-242-203-175-564-437-932-676-84-54-153-103-153-107 0-12 130-10 192 3 160 32 373 130 663 306 324 197 523 337 830 589 315 257 365 329 244 349-22 4-52 17-67 30-26 23-26 24-9 42 14 15 33 18 95 17 130-2 212-37 212-91 0-95-437-488-910-818-159-111-303-221-308-236-9-25 255-1 395 36 404 107 1102 500 1512 851 452 387 661 773 661 1220 0 145-8 171-86 288l-57 86h-557v-32c0-105 23-371 35-414 11-37 33-71 85-130 38-43 86-109 105-146 41-76 75-200 75-267 0-96-41-171-93-171-79 0-229 180-251 301-7 40-46 89-70 89-8 0-24-14-36-31-19-25-28-30-58-27-20 2-40 10-46 21-12 19-8 28 77 167 59 98 70 142 70 280 0 186-32 303-90 329-13 6-47 11-75 11-76 0-365-29-428-43-68-15-70-23-40-149 13-55 25-149 29-231 8-155 13-167 78-167 80 0 149-63 213-195 100-204 91-415-19-456-93-36-221 141-290 400-16 62-32 115-35 118-2 3-27-31-55-75-53-83-129-162-155-162-27 0-36-37-36-155 0-188-29-255-113-255-56 0-99 31-147 103-88 135-140 328-122 456 14 97 31 115 111 116 71 0 79-6 157-121 73-110 114-133 114-63 0 28 29 69 49 69 17 0 72 128 97 228 35 134 30 251-16 415l-34 119-60-6c-34-3-160-13-280-21-254-18-319-24-337-36-10-6-10-22 5-86 48-214 48-216 43-343-3-69-12-154-22-190-25-96-107-260-155-310-38-40-41-47-36-84 23-173 14-263-30-315-51-61-120-47-201 43-144 159-203 484-105 581 49 49 103 32 208-65 42-39 81-69 88-67 21 6 74 95 104 176 49 127 64 217 52 303-14 100-43 191-83 263-49 87-83 102-267 114-210 14-360 50-593 143-269 106-516 268-723 473-135 134-188 204-316 420-93 158-107 183-192 352-42 84-80 155-85 157-4 3-18-16-30-42zm-468-1780c87-17 122-29 176-61 86-51 160-118 222-199 108-143 144-279 136-517-5-175-21-235-82-309-70-86-224-180-355-217-250-72-799 77-845 229-3 12-2 22 3 22 6 0 51-16 101-35 115-45 294-91 402-105 252-31 446 15 567 136 92 93 120 198 102 379s-61 284-165 394c-76 80-154 134-325 225-68 37-129 71-135 77-13 14 52 8 198-19zm-396-172c111-55 181-173 191-322 11-174-63-311-200-373-55-25-69-27-143-23-141 9-233 65-287 176-32 65-33 70-33 197 0 116 3 135 24 179 27 56 97 136 147 167 76 47 203 46 301-1zm4617-651c62-11 126-44 126-64 0-19-59-27-118-15-84 16-126 46-102 75 15 18 20 18 94 4z"
  />
  <path
    d="M13036 13248c18-60 92-199 154-291 254-381 672-656 1180-779 91-22 113-23 480-23 431 0 620 10 1285 64 66 6 350 28 630 50 281 23 566 45 635 51s190 14 270 20c330 22 623 44 960 70 496 40 540 48 540 107 0 39-34 94-100 160-86 88-94 89-354 73-243-15-342-9-464 26-98 29-138 48-250 120-45 30-105 65-132 79-49 25-50 25-92 8-24-9-52-22-63-28-223-131-426-222-674-305-251-84-312-93-631-94-229-1-277 2-349 18-107 25-316 127-469 230-62 41-126 77-142 81-39 9-123-14-298-81-229-88-332-122-402-134-36-6-236-13-445-17l-380-6-180 91c-282 142-337 182-558 404-124 124-167 154-151 106zm6704-928c-30-5-190-18-355-30-280-20-388-27-960-65-582-38-704-47-891-65-198-19-234-25-234-40 0-4 18-48 40-98 60-135 80-224 80-357 0-236-73-463-230-716-130-210-412-498-695-711-200-150-516-348-717-449-131-65-239-129-284-165-36-29-42-40-48-84-8-58-56-202-93-275-38-75-110-184-160-240-82-94-130-225-87-242 65-25 941 362 1309 577 383 226 671 446 936 717 344 351 542 693 632 1093 20 85 22 123 21 358-1 209 2 262 12 262 24 0 66-70 96-158 38-113 49-129 100-143 52-14 105-9 393 37 626 99 841 132 1230 189 390 58 491 80 512 112 57 87-153 377-335 465-74 35-167 45-272 28z"
  />
  <path
    d="M20080 11633c-323-35-1896-286-1917-307-6-6-36-94-67-196-74-250-97-313-171-465-97-198-241-410-373-547-53-55-52-78 3-78 61 0 660 134 1160 259 66 17 316 78 555 136 592 144 630 156 733 234 93 70 225 279 283 450 65 194 109 453 85 499-11 21-18 22-134 20-67 0-138-3-157-5zm-11727-927c-65-58-83-113-90-266-12-256 68-652 198-981 27-70 94-218 149-327l98-200 64-6c35-3 178-10 318-16 232-10 370-23 392-36 34-21-43-76-151-106-36-10-111-21-166-24-143-9-235-33-235-62 0-16 47-77 120-156l45-48 451 7c429 7 615 3 644-15 35-22-77-106-203-152-70-25-104-31-237-39-138-8-400-36-408-44-1-1 46-39 106-83 174-131 402-230 681-298 141-34 141-34 115-81-27-48-20-67 40-117 62-51 65-69 22-154-42-83-45-116-15-133 26-13 93-6 116 13 9 7 25 33 37 58 17 39 20 61 17 155-2 61-4 131-5 157-2 91 35 115 279 175 286 70 377 72 463 10 61-44 147-94 362-207 96-51 176-93 177-94 2-1 28-126 58-277 31-151 60-278 65-283s13 8 19 30c16 59 41 267 41 337 0 123 22 155 140 207 94 42 182 97 254 157 163 138 211 160 234 109 44-98 88-523 112-1081 29-691 43-852 73-842 32 10 43 193 67 1182 12 472 28 835 40 885 4 19 20 79 34 134 28 106 33 175 14 194-16 16-52 15-140-3-89-19-109-38-132-123-9-35-33-89-54-120l-37-57-6 76c-6 73-20 116-43 131-20 14-90 8-156-13-210-65-904-219-992-219-45 0-33 23 47 96 165 147 305 435 322 661 9 129-7 142-237 182-63 11-162 34-220 51-142 42-441 146-516 180-270 121-761 473-1355 972-319 267-470 379-607 447-113 57-249 101-310 101-45 0-55-4-99-44zm673-527c107-55 164-99 211-161 83-108 119-257 111-456-5-128-11-142-106-239-89-91-117-105-220-111-148-8-296 39-380 121-111 108-190 377-162 552 26 160 125 266 295 316 103 30 159 25 251-22z"
  />
  <path
    d="M8865 10060c19-39 37-83 39-98 3-15 9-55 15-89 8-45 8-82 1-130-23-140-79-215-203-267l-68-29 63-40c76-49 213-97 274-97 60 0 108 26 175 96 74 78 93 130 87 231-14 226-194 456-381 488l-38 6zm10775 340c-83-18-850-206-960-235-30-8-127-30-215-50-275-62-907-222-1021-259-150-49-215-85-389-212-292-215-458-318-893-555-152-83-290-161-307-173l-30-21 30-3c46-4 330 54 980 203 110 25 301 68 425 95 421 94 495 112 665 167 253 82 588 220 915 376 160 76 319 141 327 133 11-11-27-43-125-109-397-264-873-472-1352-592-205-51-266-72-289-101-33-41-10-74 103-153 194-134 395-191 669-191 255 0 523 71 776 205 343 183 634 486 727 756 36 106 51 211 59 399s18 246 47 277c11 11 18 29 16 40-5 25-53 26-158 3zm-4515-857c-99-14-391-76-443-94-94-32-114-57-145-186-19-76-43-140-82-216-30-59-55-110-55-112 0-15 155 17 400 82 313 82 457 202 490 407 8 52 8 73-2 94-12 25-18 27-73 28-33 1-73-1-90-3zm-850-184c-339-63-1865-365-1870-371-2-2-8-46-14-99-17-151-55-281-116-401-31-62-49-108-42-108 46 0 231 40 462 99 314 80 866 222 1110 285 165 43 318 98 381 137 81 49 188 193 223 297 25 73 27 120 5 150-17 24-50 27-139 11zm-2230-400c-185-30-188-32-224-151-88-292-159-466-227-555-13-17-25-42-26-55-3-21 0-23 42-21 91 3 393 149 474 228 79 77 182 318 193 453 5 60 3 69-17 87-25 23-120 29-215 14z"
  />
  <path
    d="M16850 8963c-69-12-1047-221-1260-270-389-88-499-130-472-180 6-11 44-37 84-58 96-50 153-97 193-159 59-92 177-191 300-254 75-37 91-55 104-114 17-73 40-518 46-893 8-417 21-562 51-533 22 23 50 420 74 1083 6 154 13 322 16 373l6 93 77 54c93 65 205 180 299 307 107 145 165 203 257 257 153 90 352 255 342 284-4 12-71 18-117 10zm-2210-107c-96-24-326-80-510-126-381-93-769-193-945-244-137-40-160-58-170-133-10-72-23-109-61-165-43-64-42-92 4-96 47-5 230 35 617 133 548 139 706 170 742 147 29-19 43-81 93-433 57-395 87-507 124-456 17 23 22 76 46 507 11 201 25 389 30 419 12 63 28 85 86 110 82 37 230 213 255 303 25 94-40 101-311 34z"
  />
</svg>
