<svg xmlns="http://www.w3.org/2000/svg" id="root" viewBox="244 1310.5 24975.2 9879.5">
  <path
    d="M16353 11152c-96-76-161-158-218-275-54-109-63-137-47-137 13 0 43 37 103 124 69 101 133 165 206 204 72 38 123 52 243 66l95 12-42 22c-37 19-58 22-167 22h-124l-49-38z"
  />
  <path
    d="M16095 11149c-144-24-295-103-370-194-94-115-149-240-236-533-34-114-67-218-74-232s-48-63-91-110c-137-151-154-219-104-415 38-150 37-216-4-355-67-222-37-327 151-532 91-99 97-112 199-403 36-104 84-225 106-267 70-134 185-219 344-253 85-18 234-31 234-20 0 5-33 61-74 125-248 390-354 685-398 1100-20 198-17 795 5 940 61 388 169 687 369 1023 40 67 75 125 76 130 5 9-67 7-133-4z"
  />
  <path
    d="M16416 11009c-70-47-261-297-242-317 4-4 128-10 276-14 444-11 658-34 1037-113 386-81 443-98 673-205 85-40 171-78 192-85l36-13 58 78c31 43 66 92 76 109l20 30-67 63c-85 81-153 126-290 193-198 96-424 169-699 226-276 56-406 70-726 76l-295 5-49-33zm2163-397c20-38 102-102 179-141 82-41 131-87 179-168 14-24 26-43 28-43s49-5 106-11c187-18 287-46 604-164 193-72 354-123 358-113 1 2 19 37 40 79 41 84 40 101-4 157-128 164-662 322-1270 376-99 9-167 20-187 30-40 20-45 20-33-2z"
  />
  <path
    d="M16075 10549c-3-13-30-159-61-324-117-634-116-628-88-639 9-3 84-6 167-6h152l-50 24-50 24 1056-6c1033-5 1057-5 1062 14 12 40 59 435 53 449-12 33-424 223-658 303-343 119-660 162-1295 178l-282 7-6-24zm2601-170c-130-102-206-419-206-858 0-262 15-391 64-546 41-129 126-255 163-241 8 3 48 32 88 63 86 66 88 92 4 53-46-22-53-23-76-10-14 8-32 24-39 36-13 18-11 26 11 65 112 197 141 294 157 527 13 178 2 364-28 477-18 71-69 179-118 253-20 30-36 56-36 58 0 3 21 14 47 26 37 16 58 19 105 14l59-6-23 42c-13 23-34 48-48 55-38 19-94 16-124-8zm-101-759c-6-28-5-30 24-30 24 0 31 4 31 20 0 26 18 25 47-2 19-18 23-32 23-78 0-65-17-94-77-131l-36-23-35 40c-53 61-65 90-57 140 4 31 15 50 36 69 40 33 52 32 44-5zm-12160 749c-162-11-268-55-401-168-125-105-222-255-283-439-49-148-63-245-68-477-7-309 16-423 141-680 125-258 305-487 463-589 57-37 85-48 140-56 92-13 312-13 391 1 62 11 64 12 59 39-3 15-17 52-31 83l-24 56-54-15c-104-27-204-12-330 51-89 45-164 103-253 196-87 91-134 155-179 245-36 72-70 174-58 174 4 0 51-58 104-128 211-279 335-352 594-352h82l-9 41c-21 91-60 136-247 278-245 187-312 305-312 556 0 95 4 121 29 193 43 123 85 186 201 303 84 85 120 113 180 142 101 50 178 63 254 44 51-14 56-14 44 0-22 26-130 92-188 114-35 14-89 23-146 26-117 7-198-16-305-86-100-66-161-135-232-262-32-57-67-115-77-129l-20-25v35c0 84 67 254 142 361 107 152 245 263 366 294 71 19 219 19 314 1 149-29 234-82 416-260 131-128 195-176 235-176 22 0 19 13-23 106-52 116-187 271-309 353-185 126-354 168-606 150z"
  />
  <path
    d="M5905 10251c-33-21-154-96-269-167l-209-129 97-3c71-2 96-6 94-15-5-17-113-68-247-118-158-57-206-84-253-143-45-57-117-200-146-291-27-85-46-164-41-169 2-2 96 2 209 9 141 9 212 9 227 2 33-15 73-101 73-159 0-38-4-50-23-62-39-26-148-46-295-52-95-5-145-11-148-19-3-6 7-48 21-93 48-150 149-228 405-310 220-70 216-67 323-212 97-130 166-193 262-240 84-42 135-58 135-44 0 5-70 97-156 204-218 274-296 406-346 590-22 81-23 100-23 410 1 321 1 326 28 425 45 167 107 277 321 573 21 28 34 52 29 52-4 0-35-18-68-39zm14256-11c25-30 57-53 119-82 90-43 150-90 150-120 0-34 41-57 154-83 160-39 249-68 438-146 92-38 175-69 186-69 13 0 28 21 53 71l34 71-64 59c-171 158-620 307-1010 335l-94 6 34-42zm-1141-79c-8-16-5-66 15-213 19-143 25-236 25-370v-178h276c255 0 279 1 308 19 44 27 144 51 213 51h59l23 148c12 81 25 161 27 178 7 36 68 9-506 224-217 82-403 151-412 155-11 4-20 0-28-14zm-12525-27c-11-3-42-13-70-22l-50-16 115-12c155-16 237-46 345-126 181-134 202-148 264-173 35-14 66-24 69-21 7 8-42 71-117 150-130 136-289 213-456 221-44 2-89 2-100-1zm2305-8c-25-7-61-21-80-31-48-25-144-118-196-192-41-57-104-180-104-203 0-6 29-10 69-10h70l44 58c59 75 193 204 236 226 28 15 56 17 185 14 126-3 160-8 207-26 76-30 158-107 263-245 87-116 167-199 173-180 2 6-13 52-33 103-99 248-300 443-501 485-82 18-271 18-333 1zm-450-157c-334-180-372-201-367-205 2-2 36 2 76 11 103 21 151 20 151-4 0-51-44-81-145-100-32-6-63-15-67-19-5-5 64-16 153-26 88-10 162-16 163-14 2 1 8 30 15 63 17 90 59 169 147 280 89 112 99 125 87 124-4 0-100-50-213-110zm11915 79c-54-42-110-204-140-406-8-53-15-119-15-146 0-40 3-47 16-42 54 21 65 19 104-20 58-57 55-119-8-186-30-32-45-34-97-12-20 8-39 13-42 11-5-6 96-530 107-546 6-11 19-11 65 0 51 11 55 14 39 26-9 7-32 16-51 19-24 5-33 11-33 26 0 11 22 89 49 173 68 209 81 285 81 475 0 223-23 335-106 516-3 7 23 25 60 42 64 30 79 49 54 70-29 22-55 22-83 0zm1015-17c0-15 69-68 134-102 91-48 117-68 132-105 8-19 28-41 45-50 54-27 511-196 538-197 19-2 30 7 48 38 12 22 23 43 23 47 0 15-104 118-148 146-106 69-282 125-624 201-157 35-148 34-148 22zm-7875-26c-41-21-69-64-111-176-42-108-70-142-213-257-172-138-451-388-451-404 0-5 55-7 123-6 129 3 124 1 110 49-4 13 8 17 66 23 97 9 218 49 289 96 32 22 90 73 128 113l69 74 76 11c42 6 112 23 155 37 103 32 164 33 200 2 23-20 28-34 32-83l4-59-129-73c-212-121-268-153-277-162-10-10 86-18 312-24l173-6 67 63c37 35 101 86 142 114 152 102 209 120 329 104 97-13 156-41 260-123 89-71 135-94 212-103l56-7 28 84c39 117 49 354 17 406-5 7-57 18-131 26l-123 15-84 80-84 81h-96c-87 0-96-2-101-20-5-19-14-20-324-20h-318l-15 28c-21 38-71 89-109 109-46 24-240 30-282 8zm-2585-70c-56-18-145-95-204-178-53-75-75-119-110-214l-26-73h75c73 0 75 1 75 25 0 66 89 210 166 269 68 52 132 70 223 62 42-3 93-11 113-16 62-18 130-71 195-155 35-44 84-102 109-130l45-50-6 40c-3 22-24 78-47 124-76 158-232 279-388 301-89 13-167 11-220-5zm-276-59c-130-91-157-105-286-149-123-43-273-117-251-124 6-2 62 5 124 16 62 12 113 20 115 18 10-12 44-90 41-93-2-2-43-9-91-16-47-6-86-14-86-18 0-10 273-41 281-32 14 15 239 445 235 449-2 2-39-21-82-51zm9971-16c-4-6 1-97 10-203 10-107 15-228 12-274l-6-83h257c141 0 280 3 308 6l51 6 13 122c7 66 13 130 14 141 1 16-50 41-319 157-176 75-323 138-327 138s-10-5-13-10z"
  />
  <path
    d="M8805 9788c-68-25-165-99-165-126 0-8 17-33 38-56 32-34 40-52 45-95 4-30 8-55 10-57 13-13 89 32 155 92 97 89 112 98 202 129 71 24 100 40 100 55 0 4-35 22-77 39-70 28-88 31-178 30-55 0-113-5-130-11zm-2155-7c-79-7-99-21-245-172-127-132-160-181-181-276-34-152-6-329 72-450 65-101 309-321 332-298 4 3-26 136-66 294-82 321-82 331-34 466 36 102 97 190 222 318l110 114-53 7c-55 6-55 6-157-3zm5810-9c-86-39-181-175-244-351l-27-74 118 6c147 8 405 64 401 87-2 8-22 27-45 44-57 40-163 48-240 18-29-11-53-16-53-11 0 24 52 109 82 134 55 47 93 57 189 53 87-3 87-3 163-56s146-89 146-75c-1 5-23 38-51 76-56 76-131 131-199 146-50 12-217 13-240 3zm-1415-68c147-75 185-112 185-182 0-36-9-40-110-53-85-10-120-31-134-77-12-43 24-115 78-154l41-29 9 23c54 131 113 204 184 227 48 16 49 22 23 84-51 119-167 192-336 211-50 6-49 6 60-50zm1216 40c-18-8-50-28-69-45-44-39-112-70-217-98-127-35-215-72-249-103l-31-29 55 6c73 8 274 23 277 21 1-1-7-21-18-45-34-77-30-85 62-96l54-7 88 202c48 111 87 204 85 205-2 2-18-3-37-11z"
  />
  <path
    d="M6908 9700c-76-14-155-89-203-191l-25-54 83-3c45-2 101 0 124 3 81 12 164 91 204 194 10 27 15 51 12 55-8 8-148 6-195-4z"
  />
  <path
    d="M7270 9683c-45-6-64-24-106-99-43-77-51-84-176-151-100-54-107-56-220-68-70-7-124-17-134-26-20-17-64-106-64-131 0-22-52-22 695-3 1459 36 1565 40 1565 53s-207 267-253 311c-44 43-47 44-95 38-27-3-78-17-112-31-76-31-112-32-420-11-389 26-376 24-429 62-25 18-57 38-71 44-29 12-130 19-180 12zm14095-35c-3-24-15-89-26-146-27-145-27-145 36-215 30-34 55-67 55-74s-25-51-55-98l-55-85v-118c0-84 4-124 14-137 13-17 15-16 40 21 78 119 105 445 61 746-21 142-22 148-44 148-15 0-21-10-26-42zm-10580-18c-57-22-131-79-118-90 7-7 172-49 248-64 23-4 49 4 110 37 44 23 80 49 80 57s-22 28-49 45c-44 26-59 30-135 32-66 2-97-2-136-17zm-1723-46c-52-26-242-187-242-206 0-20 114-128 144-136 17-5 51-6 74-3l44 6 28 88c29 91 47 119 124 200 25 26 46 52 46 56 0 13-39 21-106 21-45 0-73-7-112-26zm12568-184v-210h225c124 0 225 3 225 8 0 4 7 52 15 107 14 98 14 100-8 123-47 51-360 182-433 182h-24v-210zM9323 9519c-50-32-143-164-143-204 0-3 44-5 98-5 82 1 108 5 167 28 77 31 175 91 175 107 0 17-62 73-93 84-50 19-168 13-204-10zm491-8c-44-11-50-16-94-82-42-60-78-86-156-109-53-16-100-58-84-74 12-12 1453-17 1465-4 11 10-74 166-103 188-19 15-40 20-92 20-58 0-69-3-90-25l-23-25h-221c-299 1-336 6-430 64-77 49-120 60-172 47zm3789-36c-147-29-165-35-200-66l-137-119c-82-72-94-86-74-88 42-7 95 18 155 71 58 52 63 54 132 61 82 7 115 19 221 80 41 24 87 47 103 50 18 4 27 13 27 26 0 27-27 25-227-15zm-2273-81c-62-35-89-62-111-109-33-71-30-75 59-75 101 0 184 16 244 46 26 13 48 26 48 28 0 7-178 136-187 136-4 0-28-12-53-26zm483-34c-23-10-70-47-104-82l-62-63 96-3 97-3v-34c0-41-30-39 276-21 210 13 223 14 259 39 34 23 44 25 109 20l72-6 47 54c26 30 43 55 38 57-6 2-60-11-120-28-107-30-113-31-212-20-55 5-143 10-194 10-81 0-94 3-111 21-23 26-90 65-124 72-15 4-42-2-67-13zm2566 10c-45-13-171-83-177-98-8-23 38-101 70-118 22-12 76-14 292-12l264 3-77 83-76 83-105 28c-136 36-160 40-191 31zm2031 4c-14-3-54-14-89-26-60-19-72-20-234-9-93 6-172 9-174 7-3-2 23-159 57-348 34-188 66-369 72-402l11-58 136 6c325 16 642 55 946 116 404 81 569 134 870 275 44 21 127 60 185 86 58 27 106 52 108 57 3 9-25 262-29 267-2 2-348 8-769 14s-832 13-915 15c-82 3-161 2-175 0zm90-53c41-8 39-9-32-10-46 0-78 3-78 9 0 12 46 12 110 1zm8170 5c0-14 30-26 65-26 25 0 9 14-32 28-26 9-33 8-33-2zm-21260-55c-14-5-57-25-96-45-66-33-91-57-79-75 2-5 60-11 127-15 156-8 220-24 360-86l112-50 45 17c26 9 56 23 68 31 20 12 20 16 8 44-31 74-95 129-190 163-56 19-310 31-355 16zm21730-39c0-10 45-32 65-32 21 0 18 17-4 30-24 12-61 13-61 2zm-6124-44c-14-81-39-194-56-258-17-60-19-83-11-115 6-22 6-44 1-50s-61-49-124-95c-110-81-114-85-85-88 70-7 436 66 623 125 45 14 177 70 294 124s224 102 237 105c41 10 45 24 34 100-14 87-21 100-59 108-43 8-772 66-842 66-4 0-9-10-12-22zm-11126-28c-190-5-363-13-385-17-36-7-47-18-108-103-97-133-100-143-87-243 60-441 243-1047 426-1404 192-377 544-761 810-886 172-80 338-65 644 61 370 151 977 531 1295 810 78 68 350 354 492 517 186 212 395 499 517 708 120 204 241 493 213 508-7 4-277 12-602 18-324 7-745 16-935 21-500 14-1878 19-2280 10zm-758-27c-16-3-22-9-18-20 3-8 9-25 12-38 5-20 55-55 79-55 3 0 5 26 3 58-3 53-5 57-28 58-14 1-35 0-48-3z"
  />
  <path
    d="m14898 9107-26-32-434 1c-238 1-647 9-908 19-431 15-628 15-763-2l-47-6-172-339c-430-853-663-1134-1378-1665-527-391-925-589-1465-730-87-23-87-23-4-193 164-337 574-956 691-1043l27-20 128 41c197 62 208 64 363 65 115 0 174-5 286-27 301-56 430-101 712-247 382-199 581-347 556-413-5-13 2-16 37-16 59 0 246-40 425-90 207-58 316-79 479-91 381-28 841 50 1321 225 855 311 1719 877 2137 1399 26 33 47 63 47 68 0 20-129 8-237-21-75-20-154-33-245-40-102-7-150-16-208-37-69-25-90-27-250-31-333-7-682 24-778 69-52 25-57 44-42 144 31 203 130 375 322 561 114 110 370 284 418 284 5 0 10-11 10-25 0-17 8-29 23-35 29-12 233-60 256-60 10 0 89 40 176 89l159 90 17-37c9-20 42-59 73-85l56-48 57 39c99 67 254 162 263 162 5 0 17-25 27-56 9-31 22-58 28-60 6-3 84 37 173 87 155 87 204 104 188 63-3-9-9-32-12-52l-6-37 91-45c57-27 94-41 100-35 5 6 34 64 64 130 49 107 291 622 345 733 23 47 23 46-43 57-22 4-87 25-145 48l-105 41-155-23c-85-12-379-55-653-96s-505-75-513-75-14 6-14 14c0 10-36 14-165 18l-164 6-87 42c-71 34-104 59-174 129-147 144-233 297-311 543-55 175-76 214-173 324-92 105-131 175-150 266l-13 63-64 11c-103 19-121 16-151-19zm8812-18c-18-27-30-53-26-56 6-6 547-89 701-108 55-6 58-6 45 10-46 55-157 93-350 120-155 21-258 44-302 66l-36 19-32-51zm-16972 34-128-4v-32c0-52 19-194 40-293 73-355 322-892 558-1206 195-260 579-648 767-776 69-47 164-96 171-89 3 3-52 66-123 141-70 76-151 167-180 203-89 114-301 518-366 700-35 97-84 298-162 668-36 171-71 335-78 365l-12 55-76 36c-85 41-112 69-165 169l-36 70-42-2c-22-1-98-4-168-5z"
  />
  <path
    d="M23583 9120c-29-12-49-45-64-105-16-65-34-100-61-120-22-15-24-26-39-258l-16-242 39-40 38-41v-174h61c61 0 61 0 47 23-61 96-60 92-45 144 17 57 2 52 277 83 251 27 370 46 445 71 62 21 135 63 135 78 0 8-148 15-566 27-209 6-231 5-237-9-10-26-21-20-45 22l-22 39 32 68c43 91 60 236 35 289-9 19-13 35-8 35 4 0 23 27 40 60l32 60-28-1c-15 0-38-4-50-9zm-21710-10c-188-38-275-166-296-437l-4-53h64l7 83c11 132 30 181 100 252 34 33 91 81 128 105 89 60 90 67 1 50zm10527-27c-250-17-334-24-337-27-2-1 8-23 21-47 93-167 88-372-10-519-54-80-150-168-243-223-108-64-122-84-221-307-83-188-180-316-309-408-54-39-66-44-83-33-15 9-32 8-86-7-37-11-121-33-187-50s-156-41-201-52l-81-21-6-72c-12-136-98-253-273-370-103-68-111-70-84-18 20 40 20 81-1 81-9 0-48-18-416-192-201-95-211-101-217-131-10-55-36-270-34-272 2-1 53 16 113 39 61 23 193 71 295 105 366 125 462 169 738 338 423 258 570 375 860 686 570 610 927 1146 978 1467l7 40-89-2c-49-1-109-3-134-5zm8080-70c-7-31-23-93-37-137-18-62-23-93-18-133l6-51-47-39c-90-74-94-78-86-90s243 63 697 223c176 62 158 48 150 118-3 34-9 73-12 89l-5 27h-238v50h-399l-11-57zm-17145 37c-11-5-59-9-107-9l-87-1-20-67c-44-152-51-177-51-185 0-4 78-8 173-8 94 0 235-7 311-15 193-19 226-11 226 55 0 74-36 99-257 181-166 61-163 60-188 49z"
  />
  <path
    d="M11777 8998c-65-119-317-590-317-592 0-11 162-28 222-24 122 8 195 60 261 186 42 80 57 147 57 248 0 102-16 136-80 171-29 15-65 38-80 51l-29 23-34-63zm-7804 16c-42-25-43-26-43-79 0-49-3-55-29-71-57-34-66-105-25-194 28-60 113-208 124-215 10-6 117 24 174 49 56 26 99 66 115 109 6 16 11 58 11 95-1 116-39 169-199 276-46 31-84 56-85 56l-43-26zm206-320c-7-8-30-29-51-46l-39-31-55 38-55 38 58 59 58 59 48-51c39-42 45-55 36-66zm579 309c-19-3-30-12-33-26-19-93-45-233-45-248 0-18 10-19 145-19 80 0 145 4 145 9 0 14-40 21-129 21-118 0-92 18 31 22l97 3-47 106c-26 59-54 114-61 123-13 15-43 18-103 9zm-2876-44c-94-16-113-39-171-202-19-55-29-98-25-113 5-21 12-24 55-24 38 0 49 4 49 16 0 8 7 46 16 84 20 88 58 132 174 200l85 50-65-1c-36-1-89-5-118-10zm19725 4c-2-5-21-71-41-148-21-77-44-162-51-190-8-27-13-50-11-52s196 68 505 183c35 13 66 24 67 24 2 0 4 34 4 75v75h-145c-138 0-145 1-145 20s-7 20-89 20c-50 0-92-3-94-7zm2119-4c-38-5-71-11-72-12-4-4-34-245-34-268 0-16 16-17 193-12 120 3 213 10 247 20 30 8 126 17 213 20 86 3 157 9 157 14 0 17-54 71-89 88-20 10-72 31-116 46s-102 36-128 48c-44 18-55 19-110 9-67-13-81-7-91 33-6 22-11 25-54 24-26-1-78-6-116-10zm-5516-91c-69-27-129-54-134-58-6-6 2-26 18-50 26-40 27-40 59-26 66 28 222 98 229 102 9 6-15 55-34 71-10 8-45-2-138-39zm-15730-40c0-31-9-71-20-97-11-24-20-46-20-49s19 13 43 35c24 25 66 51 99 64 56 21 59 21 140 5 46-9 93-19 106-23 20-5 22-2 22 31v36h-72c-52 0-93 7-143 25-38 13-89 25-112 25h-43v-52zm17427-29c-15-15-59-46-98-69-73-43-88-43-89 1 0 24-11 29-34 17-11-6-23-12-25-14s7-16 19-31l22-28-76-3c-42-2-76-6-76-9 0-4 7-14 16-24 14-16 11-18-51-39-47-16-70-19-77-12-8 8-19 7-39-4-54-27-182-73-190-68-5 3-9 16-9 30 0 17-5 24-20 24-16 0-20-7-20-35 0-19-2-35-5-35s-28 11-55 25-51 25-53 25-12-21-22-47l-18-47-33 39-32 39-22-37c-12-20-33-40-46-43-31-8-30-19 1-40 22-15 36-15 123-4 176 22 304 62 657 205 213 86 254 101 308 110 20 4 37 12 37 17 0 6-15 27-32 47l-33 36-28-26zm-18902-9-177-9-38-1v-160h130c118 0 130 2 140 19 16 31 64 60 149 91l78 29 64-54c37-31 65-49 67-42 1 7-4 39-11 72l-14 60-124 1c-68 0-187-2-264-6zm1152-33c-18-41-57-73-100-82-44-10-57-23-57-56v-29h89c163 0 226 24 267 102 32 61 22 71-91 83-33 4-68 9-77 11-12 4-21-5-31-29zm16138-68c-198-97-535-223-775-288-320-87-792-158-1183-177l-139-7 74-74c40-41 95-93 121-115l48-41 97 21c98 22 235 44 507 82 318 44 476 82 675 160 229 90 466 221 593 327 53 44 127 137 127 159s-17 16-145-47z"
  />
  <path
    d="M17909 8711c-26-9-53-21-60-28-11-9-20-8-39 2-40 23-60 18-66-14-6-28-11-31-98-52-50-12-94-24-98-26-8-4 10-61 22-68 28-17 190 46 203 78 4 10 32 17 91 22 83 7 112 17 81 29-20 7-19 25 2 48 23 26 15 28-38 9zm1991-90c-58-21-181-70-275-109-93-39-216-86-271-105-181-63-514-128-755-147-160-13-221-29-303-79-33-21-78-45-98-52-21-7-38-16-38-19 0-4 13-19 29-34l30-28 168 17c766 78 1293 242 1546 483 70 68 105 112 85 111-7 0-60-17-118-38zM244 7955c0-385 2-644 3-576l4 124 37-7c187-32 276-28 443 18 250 69 701 456 874 751 50 83 105 211 105 241 0 16-36 16-578 12-317-3-590-1-607 3-16 5-85 12-152 15l-122 7-4 56c-2 31-3-259-3-644zm17188 641c-18-25-38-46-43-46s-19 16-31 36l-21 35-30-45c-35-54-47-58-47-14v33l-25-37c-14-21-35-43-46-49-18-9-26-6-53 20-25 24-35 28-44 19-7-7-12-20-12-30 0-15-9-18-55-18-50 0-55 2-55 22 0 21-2 20-27-9-25-28-35-32-95-36-64-4-68-3-68 17 0 16-6 11-26-22-21-36-28-41-44-32-10 5-46 10-79 10-58 0-61 1-61 25 0 20-5 25-26 25-22 0-24-3-18-22 17-53 17-53-101-53-89 0-116-3-138-18-15-10-25-22-23-26 3-5 31-21 62-36 49-24 63-27 113-21 57 7 738 127 956 169l120 23 3 37c3 31 0 37-15 37-12 0-23 11-29 26l-9 27-33-47zm-13792 9c-74-8-211-14-305-15-93-1-182-5-197-9l-27-6 37-90c30-72 42-91 60-93 21-3 519 116 577 138 23 9 26 15 23 47-2 25-8 38-18 39-8 1-76-4-150-11zm17310-106c-328-131-370-144-650-190-244-40-333-64-430-117-74-41-131-83-125-92 11-18 333 19 520 60 339 74 660 203 829 332 65 50 109 98 90 98-5 0-110-41-234-91zm-16203 64c-33-3-47-8-44-16 40-99 82-177 96-177 39 0 189 31 224 46 43 20 44 26 17 79-11 22-20 45-20 51s-10 14-22 18c-24 6-166 5-251-1zm13743-38c0-24-17-35-56-35-32 0-114-42-159-81-40-36-43-45-15-52 13-3 20-14 20-28 0-23 0-23 28 4 24 23 37 27 83 27 54 0 55 0 120 68 36 37 71 75 79 85 12 17 11 18-13 12-16-4-38-1-57 8-29 15-30 15-30-8z"
  />
  <path
    d="M2361 8523c-28-15-57-58-168-252-154-271-219-358-398-536-144-145-237-213-367-271l-87-38 47-56c76-90 363-423 383-444 17-19 19-19 61-2 28 11 82 20 154 23 101 5 121 3 235-26 132-33 259-80 484-180 453-203 509-218 980-271 301-34 453-37 630-15 202 25 298 18 409-29 37-15 40-15 89 10 258 129 480 306 631 503 100 130 216 353 281 541 50 145 133 440 137 487l3 37-149 91-148 90-114-56c-140-70-188-79-415-79-174 0-174 0-223 29-65 39-159 132-208 206-41 63-94 169-104 211-6 22-11 24-63 24-31 0-62-4-70-9s-19-45-26-96c-16-108-32-128-129-156-109-31-136-43-256-114-195-116-191-115-376-115-180 0-225 9-335 66-159 83-278 216-349 388-23 53-26 57-50 49-31-10-189-10-340 1-102 7-119 5-149-11zm3112-785c2-8-23-31-59-54l-63-41 63-6c145-14 187-57 194-196l4-86-46-56-45-55-283-12c-1130-49-1174-49-1271-16-70 24-90 54-85 134 7 126 86 229 237 312 97 53 86 55 197-29 40-29 78-53 85-53 8 0 34 16 59 36 94 75 126 88 228 92 52 3 93 1 90-4-2-5-10-21-17-36-13-25-12-30 5-49 26-28 58-46 52-28-5 15 231 130 272 132 27 2 29-8 19-78-6-47 20-42 186 35 83 38 155 69 162 70 6 0 13-6 16-12z"
  />
  <path
    d="M5330 7532c-49-48-60-99-33-139 11-15 23-36 27-47 6-17 15-18 98-14 106 7 118 15 118 87 0 64-17 118-43 136-13 9-43 15-75 15-50 0-58-3-92-38zm-340 16c-24-9-80-91-80-118 0-26 44-96 69-110 29-15 127-12 160 4 39 21 51 53 40 112-5 27-11 63-14 81l-6 31-75 4c-42 2-84 0-94-4zm-834-30c-9-37-7-144 4-174 18-46 37-53 143-54 96 0 98 0 107 26 13 34 13 106-1 141-5 15-22 40-37 56-24 26-30 27-118 27-87 0-92-1-98-22zm432 11c-24-13-68-91-68-118 0-62 85-121 174-121 49 0 60 4 82 28 24 25 26 33 22 99-3 59-8 76-27 97-22 23-32 26-95 26-39 0-79-5-88-11zm-2831 904c-21-49-37-92-37-96 0-15 265-4 283 12 13 10 17 30 17 81v68l-97 4c-54 2-105 8-113 11-12 6-24-12-53-80zm20083 8c-201-80-262-98-415-125-160-29-229-48-296-83-67-34-118-77-106-89 11-12 209 17 347 51 264 65 526 179 630 274 30 28 51 50 45 50-5 0-98-35-205-78zm1245 72c-16-2-93-13-170-25-195-29-398-29-522 0-51 12-97 22-102 22s-9-20-8-44c2-57-16-82-119-161-43-34-98-86-121-116-127-162-257-277-453-399-214-133-463-241-594-256-30-4-60-10-66-14-10-6-6-53 20-214l32-205 37 16c46 22 195 29 276 13 146-28 303-159 339-281 2-9 37-45 78-80 45-39 73-71 72-82-1-17 4-18 45-12 214 32 533 194 836 424 69 52 235 210 235 222 0 5-58 9-129 9-181 0-186 11-74 179 76 113 163 199 243 239 77 39 90 40 90 6 0-21 3-24 14-15 7 6 54 20 105 31 170 36 168 35 192 88 54 120 79 187 79 215 0 55-41 271-53 279-6 4-41 10-77 14-36 3-72 10-81 15-10 5-21 33-29 74-13 71-10 69-95 58zm-11644-221-64-16-150-201-150-200 49-3c44-3 304 14 309 21 9 10 155 353 155 363 0 15-53 54-72 53-7-1-42-8-77-17zm-9788-69c-45-58-76-113-68-121 4-4 61-7 128-7h121l23 40c29 52 29 61-6 96-27 27-35 29-99 29-69 0-71-1-99-37zm16192-46-160-83-3-42c-3-45 10-55 28-22 13 24 35 26 44 5 8-22 46-19 46 4 0 15 10 19 60 24 34 4 82 18 113 33 28 15 76 37 105 49l54 22-53 46c-30 26-58 47-64 47-5 0-82-38-170-83zm-1721-1c-15-39 91-197 179-267 56-44 126-84 134-75 19 19-20 72-133 181-68 66-124 126-124 132 0 14-28 43-41 43-5 0-12-6-15-14zm7533-138c10-43 10-142-1-192l-9-39 99 8c55 4 119 10 144 14l45 6 13 104c7 58 11 110 8 118-4 10-40 13-156 13h-152l9-32zm-161-28c-42-37-146-236-146-280 0-40 40-210 49-210 5 0 31 48 58 108 28 59 76 160 106 224l56 117-22 33c-30 44-57 46-101 8zm-5603-35c-57-18-108-37-114-41-20-12 121-44 224-51 53-3 97-3 97 1 0 11-92 126-99 125-3 0-52-15-108-34zm3227-36c-233-38-321-48-372-44l-68 5v-72c1-84 27-171 53-176 27-5 271 65 382 110 110 45 278 140 340 193l40 34-35-1c-19 0-172-22-340-49zm-15032-84c-4-95 0-118 21-108 9 4 208 9 444 11 264 2 427 7 427 13 0 5-14 37-31 70l-30 60-67-8c-116-14-454-6-614 14l-147 19-3-71zm14072 66c0-23 127-124 203-160 68-33 183-71 212-71 4 0 5 25 1 56-12 100-49 145-141 169-64 16-275 21-275 6zm-18755-48c-23-6-68-45-97-85l-19-28h211l25 50c14 27 25 54 25 60 0 10-106 12-145 3zm18490-60c18-197 39-266 113-372 64-90 351-382 430-435 69-47 142-82 142-69 0 5-9 46-20 92s-19 86-16 88c2 2 72 10 155 17 84 7 153 15 155 17 7 7-65 353-75 366-6 6-22 14-36 18-33 8-466 224-589 293-91 52-92 52-179 52h-87l7-67zM5912 7595c-107-308-190-488-309-667-165-246-261-348-428-456-55-35-132-86-171-112-40-27-75-46-78-43-3 4-6 19-6 35 0 33 4 33-130 4l-105-22-3-81-3-80 173-6c95-4 229-14 298-22 238-28 290-18 380 75 76 78 129 198 206 465 139 485 282 1091 272 1157-2 13-44-96-96-247zm13598 258c-565-9-1173-23-1178-28-3-3 3-33 13-67 12-42 20-109 23-200 4-137 4-139-33-258-21-67-35-124-31-127 5-5 94 1 391 27 61 6 247 22 415 36 562 46 653 55 660 59 4 3 10 23 14 46 4 22 18 68 31 101 22 54 25 78 27 202 1 91-3 154-11 179l-13 37-71-2c-40-1-146-4-237-5zm-8633-198c-81-87-146-159-145-161 2-1 41 8 88 20 47 13 126 33 175 45 143 34 226 82 308 180 15 18 27 36 27 40 0 5-35 11-77 14-43 4-112 9-154 13l-76 7-146-158zm7260 135c-48-9-91-21-96-26s-13-29-19-53l-10-43 29 6c16 3 29 3 29 0s-45-71-100-151c-55-81-100-153-100-160 0-9 14-13 40-13 49 0 51-12 4-40-48-31-60-52-80-152-12-56-23-88-31-88-17 0-16 16 3 73 9 25 14 54 12 64-3 11-33-39-77-127-41-79-81-150-89-156-14-10-10-15 27-34l43-22-28-29c-15-16-33-29-38-29-6 0-24 14-39 32l-28 33 5-95c3-52 13-122 22-155 23-88 17-302-12-365-47-103-101-130-318-155-141-17-210-41-258-90-16-15-28-31-28-35s15-12 33-17l32-10-30-8c-127-33-275-167-413-372-30-46-61-83-69-83-20 0-102-70-109-93-5-17-7-17-30-2-24 16-26 15-97-51-96-89-197-165-357-270-341-222-854-484-1140-584l-105-36-42-170c-23-93-43-182-45-199l-3-30 80-7c152-13 291-30 530-64 430-62 551-74 720-74 187 0 250 9 358 52 275 109 545 375 767 758 98 168 411 816 653 1350 348 769 545 1278 564 1451 9 89-26 263-56 278-9 5-55 1-104-9zm5306-357c-270-521-405-744-518-858-90-91-141-126-300-209-125-65-140-76-104-76 52 1 161 30 233 64 158 73 298 192 527 451l103 117-22 39c-28 48-34 33 131 292 132 207 164 251 274 371 114 123 116 116-36 116h-129l-159-307z"
  />
  <path
    d="M6600 7694c-146-7-326-17-400-21l-135-8-27-75c-14-41-52-181-83-310-216-893-218-901-409-1130-63-75-91-117-83-121 16-9 330 8 502 26 375 41 744 145 1053 297 119 58 154 80 206 131 73 73 95 111 172 294 31 76 74 176 95 222 22 46 39 89 39 95 0 13-174 176-188 176-5 0-12-8-15-17-2-10-28-92-56-182-28-91-52-177-53-192-3-34 25-30-488-59-466-26-423-27-415 11 13 59 203 651 211 659 5 4 137 14 294 20 157 7 290 15 296 19 8 4-2 35-29 94l-40 87-91-1c-50-1-210-8-356-15zm-5409-14c-18-4-47-21-63-37l-29-29 30-41c37-51 81-83 125-90l33-5 12 76c6 42 11 90 11 106 0 29-2 30-42 29-24-1-58-5-77-9zm239 3c-32-12-50-37-61-89-7-30-10-57-7-60s51 16 107 42l102 47-28 28c-28 26-84 43-113 32zm21483-150c-40-33-44-34-79-23-33 11-39 11-51-6-17-24-27-60-20-77 10-26 170-37 200-14 15 11 15 19 4 83l-12 72-42-35zm242-193c-124-25-223-83-391-232-195-172-247-208-439-305-286-144-350-195-407-320-16-36-28-67-26-69 9-8 502-36 578-32 75 3 95 9 165 43 142 70 291 232 430 466 50 84 226 411 243 451 5 10-100 8-153-2zm-3485-126c-8-2-139-15-290-29-541-50-1049-101-1101-112-17-3-31-14-35-27-41-144-185-472-439-1001-103-214-265-553-360-751-177-372-289-585-398-753-187-289-440-536-652-637-88-42-231-84-287-84-49 0-58-9-58-56v-44h48c26 0 107 5 180 10 376 29 705 142 1067 368 214 133 461 296 538 353 397 300 727 647 857 902 41 81 62 147 47 147-2 0-59-21-128-46-368-137-492-165-525-119-30 41 11 126 85 175 51 34 118 56 319 104 135 32 242 74 287 110 19 16 19 16-10 10-16-4-111-36-210-71-198-71-299-90-324-59-19 23-6 76 33 133 47 68 107 95 296 133 85 18 179 40 208 50 66 23 151 72 135 77-16 6-136-26-273-70-155-51-215-63-245-49-48 22-26 97 49 171 48 47 57 50 469 152 142 36 207 56 207 65 0 21-48 17-146-12-49-15-132-40-184-55-132-40-205-47-230-24-26 24-25 41 5 102 49 98 108 125 340 159 174 26 246 49 266 85 13 26 11 26-198-20-244-54-266-57-287-36-11 11-14 25-10 39 15 47 45 95 80 126 78 68 150 88 424 119 245 27 366 130 460 389 23 62 20 82-10 76zm1043-181c-33-6-53-41-53-89 0-46 29-197 61-317 36-132 71-145 339-128 102 7 199 10 215 6 55-12 84-27 100-51 9-14 25-24 38-24 22 0 24 7 41 131 37 272 32 327-30 385-46 44-135 86-193 92-29 2-85-4-145-18-95-22-101-22-175-7-90 19-167 27-198 20zm-3368-131c-43-5-78-35-122-100l-39-58 24-215c25-213 25-214 66-287l41-73 45 6c110 15 163 58 176 141 10 70-3 361-19 419-16 59-49 126-70 144-21 17-67 27-102 23zm-15442-86c-15-25-31-46-35-46s-15 14-25 30c-18 31-33 39-33 18 0-7 58-139 129-293l129-280 189-5c238-6 290-25 314-112 21-79 22-78-194-78l-192-1 25-21c63-53 156-81 312-94 83-6 87-6 112 19 43 43 61 124 61 282 0 152-10 203-56 295-65 130-178 219-356 279-66 22-147 36-270 46l-82 7-28-46zm14992 15c-38-23-78-61-98-92-14-21-14-51-5-259l11-235 42-60c68-96 71-98 140-79 75 19 122 55 149 113 19 41 21 63 20 201-2 201-34 334-99 405-20 21-33 25-77 25-34 0-64-7-83-19zm-473-41c-100-67-99-64-71-385l23-270 54-52c51-49 58-53 103-53 83 0 132 29 172 105 21 37 22 54 22 245 0 237-11 290-76 364-38 43-112 86-148 86-10 0-46-18-79-40zm-485-29c-66-70-77-117-77-320 0-184 2-195 68-365l46-119 77 6c123 8 186 45 215 124 17 48 19 368 3 445-14 64-48 135-81 165-28 26-177 113-194 113-6 0-32-22-57-49zm-183-55c-143-105-297-271-370-402-45-80-94-217-94-261 0-26 5-34 23-37 39-9 552-31 555-25 2 4-16 67-39 140l-42 134-1 185c-1 153 2 195 18 243 10 32 16 60 14 63-3 2-31-16-64-40zm-6341-119c-84-40-153-74-153-77s64-33 143-67c99-43 144-58 148-50 7 13 29 200 29 242 0 14-3 25-7 24-5 0-77-33-160-72zm11100 39c4-10 7-24 7-32s11-19 25-26c17-8 27-23 33-52 7-37 11-41 37-41s30 4 33 32c4 38-20 93-47 110-10 6-36 15-56 19-34 6-37 5-32-10zm1240-47c-37-11-37-10-22-62 10-38 12-39 46-32 82 15 93 27 73 79-10 28-37 32-97 15zm-18838-91c3-8-33-37-85-72-50-32-90-62-90-67 0-4 41-45 90-90 58-53 89-88 85-97-6-17-22-18 780 48 199 16 604 49 703 56l92 7v86l-47 6c-27 4-70 10-98 15-57 9-65 7-65-21 0-18-9-19-275-19-257 0-277 1-307 20-37 22-84 25-141 9-32-9-41-7-64 10-31 25-75 27-107 5-16-10-26-12-31-5-3 6-19 11-34 11-59 0-89 11-95 36-7 27-5 26-172 54-143 24-145 24-139 8zm6210-14c-11-2-82-18-157-36-106-25-138-36-138-48 0-37 115-185 296-381 500-542 537-575 763-688 103-52 308-127 318-117 3 3-12 29-33 58-289 397-307 426-486 753-85 156-137 230-215 308-72 73-172 130-248 142-22 3-49 8-60 9-11 2-29 2-40 0zm12348-271c-108-40-153-61-153-72 0-8 12-77 26-152l26-136 101-5c56-3 103-4 105-3 2 2 17 88 33 192 16 103 31 198 33 211 2 12-2 22-8 21-6 0-80-26-163-56zm-17233-28c-74-8-299-27-500-44s-412-36-470-41-188-17-290-26c-104-9-188-21-192-27-8-13-21-78-16-81 2-2 156 12 343 30 599 58 1117 105 1238 111l117 6v87l-47-1c-27-1-109-7-183-14zm25-185c-33-4-165-14-292-21-177-10-233-16-233-26 0-22 45-134 90-223 58-117 117-199 149-208 14-4 86-7 158-7 120 0 134 2 153 20 30 31 50 140 57 318 5 131 4 157-8 156l-74-9zm5740-823c-6-13 469-1446 482-1457 4-4 199-22 433-39 374-29 591-47 807-67l61-5 40-92c46-107 46-109-47-155-54-26-64-27-236-31-99-2-234 2-300 8-181 18-496 51-532 55-42 6-43-14-5-75 68-107 217-199 398-244 120-31 361-42 575-27 122 8 144 13 208 42 144 67 194 163 215 415 4 39 13 246 21 460 8 215 17 463 21 551l6 162-99 55c-561 315-721 371-1098 384-136 5-186 2-249-11-92-19-169-58-198-100-12-17-23-33-24-35-2-2-89 38-193 88-258 124-281 133-286 118zm45-504c-23-9-52-36-60-58-9-27 3-136 24-207l17-58h70c38 0 69 4 69 8 0 7-27 103-71 255-11 37-23 67-27 66-4 0-14-3-22-6zm2271-258c-38-33-50-71-53-170-3-101 17-139 95-180 45-24 60-27 100-21 27 4 59 18 77 32 30 26 30 26 30 135 0 124-11 161-59 202-28 23-42 27-96 27-53 0-68-4-94-25zm1869-100-335-73-155 5c-113 4-196 1-309-11l-153-18-28 27-29 28-42-17c-42-17-42-17-69 9-19 18-29 22-32 14-5-14-10-13-203 45-66 20-127 36-136 36-15 0-17-11-13-97 2-54 6-214 8-356s6-260 8-263c2-2 47 12 99 30 95 34 424 127 659 186 69 17 238 63 375 101 138 39 331 92 430 119s192 53 207 59c34 13 50 45 73 141 9 41 19 83 22 93 3 13-1 17-19 16-13-1-174-34-358-74z"
  />
  <path
    d="M12190 3911v-214l53 50c82 78 100 87 173 85 60 0 69-4 131-49 37-26 73-52 80-56 10-6 13 24 13 158v167l-32-28c-54-45-106-64-179-64-76 0-101 15-186 108l-52 57-1-214zm-2130 126c-13-7-30-24-37-37-16-31-17-205-2-248 13-37 53-52 137-52 46 0 58 4 83 29 26 27 29 36 29 99 0 76-12 122-44 165-39 53-110 72-166 44zm3660-193c-399-112-793-223-876-246l-152-42-6-43c-6-49-38-116-70-151-42-47-92-64-190-65-106-1-129 10-165 73-20 36-26 40-61 40h-38l-26-110c-31-131-32-150-8-150 54 0 330 80 885 256 164 52 481 149 705 215s448 134 499 151c106 36 175 83 215 148 32 53 48 130 27 129-8 0-340-92-739-205zm885 113c-30-14-61-44-54-52 4-3 1389-175 1412-175 4 0 7 20 7 45 0 43-1 45-29 45-42 0-377 44-741 96-346 51-544 64-595 41z"
  />
  <path
    d="M12310 3702c-42-41-44-49-40-152 2-69 18-117 50-153 28-31 30-32 115-32 83 0 88 1 111 28 22 26 24 37 24 133 0 168-26 206-146 212l-74 4-40-40zm-1767-80c25-124 74-150 349-186 270-35 464-48 665-44 125 2 174 7 186 17 23 18 21 69-2 108-24 38 28 31-611 83-267 22-509 42-539 46l-54 6 6-30zm3417-11c-69-21-318-93-555-161-236-68-434-126-438-130-7-6 56-177 250-681l48-126 151-18 150-18 13-216c9-155 49-900 51-949 0-2 12-2 28 0l27 3 6 150c4 83 12 350 19 595s15 449 19 453 61 27 127 50l119 42 17 135c9 74 35 299 58 500 22 201 43 375 45 388 6 27 17 28-135-17zm10710-35c0-12 11-16 41-16 52 0 48 24-4 28-28 2-37-1-37-12zm470-51c0-16 23-18 54-6 18 7 18 8-5 14-37 10-49 8-49-8z"
  />
</svg>