<svg xmlns="http://www.w3.org/2000/svg" id="root" viewBox="0 0 7580 4310">
  <g>
    <path
      d="M5795 3903c-120-10-125-11-125-48 0-31 2-33 43-39 23-3 164-9 313-12l271-7 5-62c3-35 14-77 24-94 16-27 24-31 60-31 56 0 68 17 74 109 4 57 9 77 20 79 12 2 15-7 12-40-1-24 3-65 10-93l13-50h45c41 0 46 3 62 35 11 21 18 58 18 93v57h78c115 0 118-2 126-67 3-30 13-70 21-89 12-30 19-34 49-34 47 0 63 26 73 115l8 70h585v115l-872-2c-480-1-891-3-913-5zM2525 3864c-103-10-106-12-103-52l3-37 110-8c61-4 433-6 827-5 709 3 717 3 677-16-22-10-65-42-95-71-48-47-54-57-54-94 0-28-4-41-14-41-7 0-26-10-42-22-26-21-35-22-177-19-145 3-148 2-154-19-4-13-11-19-20-16-57 22-225 58-317 67-137 14-1045 16-1169 3l-89-10-24 28c-44 54-104 72-239 72-156 1-292-34-377-97-38-28-87-100-109-160-39-104-34-294 10-380 17-33 17-33-6-29-12 2-31 1-40-3-17-7-16-8 2-15 11-5-230-8-535-8s-547 2-538 5c34 9 20 33-18 33H-1l3-255c2-140 7-257 11-261 3-4 13-2 20 4 10 9 18 8 33-3 10-8 25-15 32-15 13 0 83 54 147 113 47 44 78 56 191 77 58 10 117 27 131 37s32 22 39 28c13 9 79-4 215-43l66-20 78 40c56 28 106 44 180 58 104 18 145 33 145 50 0 6 7 10 15 10 20 0 19 20-2 36-16 12-15 13 12 14 24 0 35-7 49-31 47-79 144-178 287-291 50-39 190-117 267-147 57-22 67-29 64-48-3-17-11-23-40-25l-37-3 1-47c0-32 6-54 20-69 30-33 89-59 136-59 40 0 49-5 103-61 82-83 197-159 241-159 29 0 34-4 39-27 16-73 50-165 84-228 33-62 41-70 69-73 30-3 32-6 32-40 0-26 8-46 25-65 24-25 33-27 103-29 42-1 60-3 39-5-37-4-38-5-35-41 3-32 10-42 58-74 36-25 81-44 127-56 64-15 73-20 73-39 0-13 4-23 8-23 5 0 8-21 8-47l-1-48 49-3c27-2 54 2 60 8s13 41 16 77l5 67 70 17c59 14 72 15 85 4 9-8 49-32 90-53l74-39 16-84 16-84 36-3c35-3 35-3 42 44 3 26 6 62 6 81 0 31 4 35 48 54 26 11 57 29 68 40l22 20 7-48c4-26 13-154 19-283l11-235 38-3c20-2 38-2 38 0 1 2 7 144 13 317l11 315 70 12c39 7 129 28 201 47l130 34 18-131c10-72 21-135 25-139 5-5 24-7 42-5l34 3 6 65c4 36 7 104 8 152 1 78 3 87 21 93 11 4 34 21 50 38l30 32v-36c0-32 4-39 35-53 19-9 40-27 46-39 15-29 56-64 95-81 31-14 31-14 37-112 4-55 7-152 7-216s3-123 6-132c4-10 18-16 39-16 32 0 32 1 38 53 3 28 9 136 13 239l7 187 38 26c20 15 56 53 79 86s54 66 69 72c14 6 45 27 69 45 34 28 42 40 42 68 0 23 5 34 14 34 8 0 21 3 29 6 11 4 16-2 19-22 7-62 131-114 272-114 156 0 294 55 397 160 82 83 109 146 109 253 0 40 4 77 9 83 5 5 11 23 13 39 2 22 9 31 25 33 28 4 69 53 105 124 46 90 58 253 27 355-13 41-79 100-121 108-18 3-77 2-130-2l-98-9v41c0 22-7 50-15 62-14 20-13 23 24 52 46 37 91 42 91 10 0-30 56-49 144-49 84 0 175 28 211 64 15 15 31 20 56 18 68-6 137 82 146 188l6 60h-36c-30 0-39-5-51-29-22-42-40-44-71-9-26 29-27 33-20 104 7 82 20 92 68 54 14-11 39-20 56-20 29 0 31 2 31 38-1 91-101 207-206 238-65 19-213 15-239-6-12-10-22-6-54 19-85 68-202 97-360 89-67-3-110-11-142-25l-47-21-53 54c-33 33-82 68-128 91l-76 38h-145c-138 0-149-1-213-29l-68-29-22 21c-39 37-154 83-244 99-89 15-296 15-338-1-18-7-18-6-2 4 10 7 17 24 17 44v34l-82 5c-92 6-1450 6-1513 1zm2174-459c16-14 37-46 47-70 42-110-30-280-102-243-10 6-34 26-51 45-29 30-33 41-33 87 0 29 7 75 15 102s15 59 15 71c0 17 7 23 33 26 17 2 35 5 39 5 3 1 20-9 37-23zm662-76c16-17 34-51 40-75s17-44 24-44c16 0 25-35 18-71-4-23-11-29-30-29-14 0-38-11-55-25-32-27-57-23-81 15-6 11-18 20-26 20-14 0-13 45 5 193 6 46 7 47 41 47 26 0 42-8 64-31zm575-54c12-8 27-29 35-47 7-18 23-43 36-55s23-34 23-48c0-21-5-25-28-25-20 0-35-9-50-30-26-35-41-32-78 17-25 33-26 38-19 119 7 83 7 84 34 84 14 0 36-7 47-15zm-3155-225c51-98 114-235 124-267 17-60-44 7-99 109-34 62-68 160-80 228-8 46 3 32 55-70zm480-94c33-64 32-81-4-48-27 26-102 164-111 207-6 24 2 18 39-35 26-36 60-91 76-124zm549 88c0-8-4-14-10-14-5 0-10 9-10 21 0 11 5 17 10 14 6-3 10-13 10-21zm-1474-141c22-32 50-70 64-86 39-44 100-149 100-171 0-17-9-12-49 30-27 27-64 75-81 105-30 50-85 179-76 179 2 0 21-26 42-57zm2324-53c0-5-14-10-31-10s-28 4-24 10c3 6 17 10 31 10 13 0 24-4 24-10zm-1126-511c14-17 26-39 26-49 0-26-48-80-71-80-30 0-69 45-69 78 0 34 40 82 69 82 10 0 31-14 45-31zm1491-20c9-17 14-36 12-42-4-12-37 44-37 63 0 18 9 11 25-21zm-201-17c7-15 17-38 21-52 8-24 7-25-13-7-11 10-24 36-30 58-11 43 0 43 22 1zm-195-47c22-42 27-65 12-65-9 0-51 91-51 111 0 18 14 2 39-46zm-209-58c0-25-4-36-11-31-13 8-39 67-39 89 0 14 3 14 25-2 18-14 24-27 25-56zm-1796-302c7-27-15-80-36-87-15-5-39 57-31 81 3 9 13 24 21 33 18 21 37 10 46-27zM7509 3515c-3-2-124-5-269-5-146-1-372-4-502-7l-238-6v-32c0-25 5-34 23-40 12-3 255-9 540-12l517-6v113h-33c-19 0-36-2-38-5z"
    />
    <path
      d="M430 3425c-8-2-36-7-62-10-46-6-48-7-48-39v-33l98-6c53-4 230-7 393-7 329 0 333 1 327 60l-3 35-345 1c-190 1-352 0-360-1zM6637 2993c-4-3-7-17-7-30 0-20 5-23 39-23 22 0 42-5 44-12 3-7 6 6 6 30l1 42h-38c-21 0-42-3-45-7zM6927 2702c-21-23-22-86-1-106 15-16 78-22 108-10 25 10 22 110-3 124-31 16-86 12-104-8zM6664 2685c-21-32-15-131 9-169 15-22 25-26 67-26 27 0 60 4 74 10 23 8 26 15 26 58 0 40-6 57-31 88-41 53-57 64-96 64-24 0-37-7-49-25zM7327 2353c-12-11-8-88 5-101 14-14 77-16 112-2 22 8 26 16 26 48 0 21-5 43-12 50-13 13-120 17-131 5zM7170 2091c0-52 19-110 44-130 9-7 38-11 78-9l63 3 3 55c2 43-1 61-15 77-25 28-87 53-134 53h-39v-49zM6042 1825c-7-14-12-43-12-64 0-42 13-51 76-51 52 0 66 18 62 80l-3 55-56 3c-51 3-56 1-67-23zM5250 1446c0-30 5-58 10-61 6-4 35-9 65-12 69-7 85 5 85 62 0 42-1 43-44 54-25 6-61 11-80 11h-36v-54zM6090 1383c0-38 6-55 28-80 26-32 31-33 100-33h72v54c0 43-5 58-25 80-22 24-31 26-100 26h-75v-47zM5540 1399c-19-12-38-27-42-33-11-16-10-91 2-122 11-27 11-27 86-20 42 3 80 8 85 12 22 13 1 160-25 176-21 14-71 8-106-13zM6477 1124c-13-13-7-81 7-93 9-7 38-11 73-9l58 3v100l-65 3c-36 2-69 0-73-4z"
    />
  </g>
  <g fill="#9B915A">
    <path
      d="M0 3625v-685h568c428 0 571-3 580-12 20-20 15 37-7 80-97 193-8 466 186 569 110 59 186 78 308 77 121 0 182-19 237-71l27-26 253 13c172 9 362 11 593 6 363-7 477-16 589-48 104-28 153-33 172-17 12 10 61 15 173 19l156 5 21 45c20 43 143 170 164 170 6 0 10 9 10 19 0 19-17 20-762 24-664 4-793 7-818 16-3 1 6 7 20 14 18 8 231 11 760 12 404 1 764-1 799-3 58-5 62-6 45-19s-14-14 31-9c226 29 349 14 494-59 102-51 132-54 209-25 69 26 215 39 280 25 74-17 154-60 226-121 35-30 73-54 85-54s50 10 84 21c127 43 346 9 439-69 27-23 33-24 91-16 119 16 187 11 247-20 78-41 186-156 205-219 10-34 12-55 5-67-6-10-10-34-10-53v-34l99-7c55-3 112-11 127-16 47-18 103-70 136-126 24-40 39-54 55-54 25 0 31 15 11 24-7 3 26 5 75 3 72-2 87 1 87 13 0 8-34 51-75 95-48 51-77 91-81 111-5 25-15 35-57 55l-52 24 398 3 397 2v1070H0v-685zm7560 227v-27h-297c-257 0-298-2-300-15-1-8-5-41-8-72-4-33-14-67-25-80l-19-23-16 40c-10 22-18 64-20 95l-2 55-128 3c-136 3-166-1-147-20 29-29-2-163-38-163-22 0-42 90-30 134s7 51-40 51c-65 0-68-3-62-75 5-67-12-115-41-115-33 0-71 126-47 155 8 10 9 19 4 24s-133 12-284 15-295 9-320 14l-45 8 45 7c80 12 113 13 973 15l847 1v-27zm3-388 5-27-497 6c-309 3-505 9-521 15-19 8 18 11 150 12 402 3 834 11 839 15 10 11 19 3 24-21zm-6458-74c13-22-46-28-294-29-268-2-421 5-421 20 0 12 62 15 397 17 176 0 315-3 318-8z"
    />
    <path
      d="M6616 3004c-9-9-16-32-16-55 0-32 3-39 20-39 13 0 18 5 14 15-4 9 0 15 9 15 8 0 17 7 21 15 7 19 26 20 26 1 0-8 6-17 13-19 9-4 8-8-3-16-12-8-8-11 18-11h32v110h-59c-41 0-65-5-75-16zM7318 2983c-12-3-18-14-18-35 0-26 2-29 15-18 10 8 42 11 100 9 81-4 85-3 85 17 0 16-8 23-31 28-35 7-124 6-151-1zM4228 2039c-22-23-22-29-3-29 8 0 15 7 15 15 0 11 11 15 38 15 20 0 44 5 52 10 11 7 1 9-35 9s-55-6-67-20zM2604 1989c-17-5-39-18-49-29-18-20-18-20 5-20 13 0 31-7 41-16 9-8 27-14 38-12 20 3 20 5 6 31l-15 28 30-6c23-5 30-3 30 8 0 26-32 32-86 16z"
    />
  </g>
  <g fill="#EDECBD">
    <path
      d="M4099 3827c-24-13-61-29-82-36-51-17-164-124-191-181l-21-45-156-5c-101-3-161-9-171-17-11-10-25-9-64 3-107 33-208 46-429 54-319 12-658 12-874-1l-183-11-27 26c-14 13-48 35-76 48-44 20-66 22-190 23-120 0-150-3-209-23-180-60-269-139-325-287-43-112-38-302 9-396 29-55 158-189 184-189 15 0 35-19 66-60 84-117 277-277 430-359 70-37 79-45 70-61-6-10-10-41-10-69 0-45 5-56 37-93 44-48 122-88 173-88 30 0 44-9 85-51 53-53 151-126 214-158 29-16 40-29 50-63 24-80 79-186 119-230 21-23 42-53 46-64 4-12 30-43 59-69 66-59 60-53 103-102 37-43 177-123 215-123 16 0 19-8 19-43 0-49 19-81 60-102 86-45 190 20 190 118 0 30 3 34 38 43 33 8 43 6 104-29 71-40 88-68 88-140 0-44 49-87 99-87 63 0 93 32 102 110 7 63 28 95 40 62 4-9 10-114 14-232l7-214 33-33c44-44 94-46 135-5 35 35 37 56 46 372 3 129 7 236 9 238 1 2 68 20 147 41l145 37 13-100c12-92 16-104 46-133 60-61 144-34 164 52 6 22 13 89 17 148 3 59 9 106 12 105 38-20 72-47 79-63 5-12 30-36 55-55s48-44 51-55 6-85 6-165c1-187 10-237 44-267 36-31 86-30 122 1 32 27 38 64 50 323l7 163 33 25c18 14 47 47 64 74 33 51 80 84 80 56 0-24 34-17 80 16 36 26 46 29 66 20 14-6 24-19 24-31 0-13 7-20 20-20s20 7 20 20c0 23-2 23 56 9 36-9 45-16 41-29-4-17 4-18 117-13 97 4 126 9 148 24 15 10 39 19 54 19 45 0 140 59 214 134 94 93 132 170 139 281 6 84 19 112 75 164 14 14 26 32 26 42s5 21 10 24c27 17 70 112 70 155 0 25 4 72 10 104 8 49 7 63-5 76-8 9-15 33-15 54 0 20-11 61-24 89-13 29-27 61-30 73-4 11-17 27-31 34-27 14-24 30 5 30 10 0 48 16 85 36 37 19 70 32 73 29 4-3 0-10-8-15-11-7-6-10 18-10 18 0 40 7 48 15 9 8 26 15 39 15 22 0 27 6 94 120 24 42 41 95 41 130 0 21 5 51 12 65 13 30 8 38-27 38-20 0-25 3-19 16 15 35 15 81 0 133-19 68-125 182-206 223-65 33-175 44-259 26-50-10-55-10-81 12-15 13-59 37-97 52-60 24-85 28-203 33-115 3-143 1-191-15l-57-19-61 53c-69 59-160 106-239 122-70 15-252-2-326-30l-55-20-90 46c-116 58-198 75-360 75-115 0-132-2-172-23zm324-82c87-15 187-58 246-105l39-32 78 38c78 38 81 39 199 39 116 0 122-1 190-34 46-23 95-58 143-105 63-61 75-69 90-58 73 53 190 73 308 53 87-15 142-40 206-91l51-40 34 20c50 30 128 36 198 16 84-25 174-113 200-195l7-24-27 21c-15 12-39 22-52 22s-39 11-56 23c-51 38-92 50-175 51-71 1-77-1-77-19 0-17 9-21 61-27 151-16 175-35 167-125-5-57-8-63-35-74-16-7-58-13-91-13l-62-1-5 54c-4 36-12 58-24 67-11 7-27 31-37 53-20 45-49 64-94 63-17-1-47 10-68 24-80 53-186 72-321 59-72-6-76-8-76-31v-25l89 7c104 8 199-7 257-40l39-22-3-70c-4-77-11-88-77-105-59-16-224-29-250-19-18 7-21 14-17 39 6 44-6 101-22 101-8 0-19 19-25 44-6 24-24 58-40 75-24 26-37 31-74 31-34 0-53 7-82 30-64 51-159 74-310 74-124 1-130 0-130-19s9-20 120-26c141-7 185-15 242-41 68-32 78-49 65-109-7-28-12-73-12-100 0-48-2-51-35-65-39-16-208-44-267-44-20 0-44 7-53 16-19 19-17 21-45-36-12-25-33-59-46-77-28-37-112-108-119-101-3 3 4 25 15 49s20 57 20 72c0 21 8 33 34 47 51 31 80 114 77 218-2 68-25 125-64 158-27 23-38 25-81 21-45-4-54-1-95 31-60 45-115 69-199 83-77 14-339 18-394 6-26-5-38-4-38 3 0 13 74 88 115 117 86 60 227 77 388 48zm-2637-175c24-10 55-33 71-50l28-31 130 13c161 16 958 16 1121-1 139-14 289-52 374-94 142-71 246-209 244-328-2-127-93-236-329-390-260-169-684-315-1064-365l-114-15-34 38c-108 122-192 252-282 436-45 90-71 133-71 114 0-39 112-290 146-328 8-8 14-20 14-25s34-54 75-108c41-55 73-101 71-103-15-15-240 71-361 138-93 51-113 65-225 161-198 167-327 405-318 583 2 41 1 75-3 75-3 0-14-24-23-52-24-77-5-171 61-305 14-30 24-56 21-58-3-3-21 10-40 29-135 131-153 370-38 529 51 72 120 112 243 141 34 8 71 17 82 20 40 10 179-5 221-24zm2589-55c79-22 153-63 169-93 11-21 11-33 0-70-8-25-14-73-14-107 0-61-1-63-32-78-99-46-328-73-520-61-82 5-111 4-123-6-20-16-25-10-58 68-46 109-144 221-229 262-57 28-33 35 121 35 125 0 152 3 167 17 22 19 63 36 119 48 64 14 331 4 400-15zm254-467c17-15 18-22 9-54-22-83-73-139-163-181-55-26-69-28-180-28-115 0-123 1-190 33-115 54-233 155-254 215l-10 28 157-7c185-7 368 11 477 49l69 24 33-31c17-17 41-39 52-48zm635 8c35-33 36-37 27-76-20-88-108-175-206-204-147-43-313-20-379 52-18 21-17 22 37 76 31 31 64 74 74 96 21 47 21 47 173 54 63 3 138 12 165 20 69 20 68 20 109-18zm631-84c-9-36-126-149-178-172-36-16-53-18-98-11-70 12-157 45-193 74l-29 23 32 66c17 36 31 71 31 77 0 12 8 14 60 11 56-2 213 19 256 34l39 13 43-44c36-37 42-50 37-71zm-503 25c-28-59-79-127-95-127-4 0 2 23 13 50 11 28 20 59 20 70s6 24 13 29c6 6 26 22 42 35 17 13 32 20 33 15 2-5-10-37-26-72zm628 65c0-35-39-109-77-147-52-52-71-58-46-14 10 18 27 48 38 68 38 71 85 121 85 93zm401-39c-13-47-61-117-92-134-20-10-21-9-14 7 4 11 14 38 23 61 8 24 22 45 33 48 11 4 26 20 35 37 20 40 28 30 15-19zm-134-5c21-29 21-33 7-67-45-109-221-182-329-137-19 8-35 19-35 24s18 28 40 51 51 64 65 92l25 49 58 1c31 1 68 5 82 9 46 15 65 10 87-22zm-2365-230c96-142 310-257 479-258 22 0 42-7 51-17 21-25 38-79 38-121 0-33-36-122-50-122-4 0-17 11-30 25-51 54-88 14-69-76 12-55 51-109 80-109 28 0 42 36 34 86-4 30-3 44 5 44 6 0 22 24 35 53 27 58 32 126 13 188-6 22-9 41-6 44 2 3 50 8 105 11l101 7 11-36c7-20 12-53 13-74 0-41-28-123-43-123-5 0-9-7-9-15 0-26-17-17-39 21-17 29-26 35-49 32-24-3-27-7-30-46-4-54 36-147 67-157 36-11 53 12 50 69-3 41 0 52 14 54 9 2 26 20 38 39l23 36 15-56c16-57 50-107 74-107 38 0 49 63 22 127-21 50-43 73-72 73-21 0-23 4-23 49 0 27-5 62-10 77-6 15-7 31-3 35s45 10 90 14c78 7 82 6 94-16 7-13 13-49 13-80 1-45-5-64-27-98-25-37-26-42-10-48 9-4 19-1 21 5 7 23 30 12 35-17 8-40 59-96 80-88 42 16 26 120-28 174-30 30-33 39-36 105l-4 73h169l24-35c21-31 23-43 20-110-11-177-150-338-429-495-142-81-240-116-322-115l-32 1 25 20c14 11 62 46 107 77 107 75 243 199 243 222 0 19-26 30-73 30-34 0-32-23 1-28 34-5 25-23-36-75-118-99-187-148-300-216-111-66-175-91-232-90-23 0-24 1-7 12 226 145 387 272 387 303 0 8 7 17 15 20 26 10 16 22-25 29-50 8-67-1-45-24 14-17 13-20-12-48-130-141-437-320-607-354-80-15-109-17-95-6 2 2 47 28 99 57 197 110 380 245 380 281 0 24-6 21-75-36-185-154-524-335-626-335-99 0-325 69-404 123-80 56-222 165-328 254-145 122-224 166-292 161-39-2-52-8-69-31-18-25-21-42-20-128 0-72-3-99-12-99-24 0-159 99-219 159-54 56-63 61-103 61-68 0-146 48-154 95-2 14 2 19 12 16 66-18 90-8 71 27-6 11-8 22-5 25 3 2 37-6 77-20 93-31 168-38 253-24 409 69 668 147 933 280 116 58 188 103 296 185 103 77 158 136 196 210l31 59 40-79c23-43 58-105 80-136zm50 76c34-36 76-67 127-92l75-37 131 1c118 0 137 3 200 28 135 53 130 52 170 22 19-15 61-39 93-54 50-23 69-27 162-27 88 0 120 5 195 29 50 16 120 46 157 67 36 22 71 39 76 39 6 0 33-15 61-34 60-41 113-51 216-41 74 7 75 6 105-23 36-36 38-60 8-66-24-6-161-17-508-41-113-8-284-22-380-30-252-23-465-29-530-17-191 36-348 155-418 315-16 36-4 29 60-39zm1943-132c18-10 16-11-16-12-28 0-38 5-47 24-14 32-3 41 22 17 12-10 30-23 41-29zm102-103c60-22 132-124 107-149-5-5-61-16-124-25-118-16-237-35-394-60-138-23-143-22-156 24-5 21-17 44-25 51-14 11-15 5-9-56 25-274-214-560-631-754-103-48-231-100-245-100-22 0-8 42 30 85 34 39 70 121 70 159 0 6 30 27 68 46 169 87 278 164 379 267 131 133 184 299 133 412-11 24-20 45-20 46 0 7 112 16 490 40 140 9 260 18 265 20 18 6 33 5 62-6zm116-206c11-18-15-141-41-191-47-93-75-117-172-140-476-117-626-152-643-150-18 3-18 4 0 23 78 86 131 181 162 295 11 40 22 74 23 75 2 1 80 14 173 29 412 66 489 75 498 59zm-3562-278c55-20 102-51 209-141 209-175 362-284 440-313 110-40 170-59 215-65 70-11 74-16 63-79-12-63-52-140-90-172-52-44-49-44 142-2 63 14 130 31 149 38 38 13 51 3 51-41 0-24 0-24 14-4 8 11 16 31 18 44 2 19 11 26 38 31 19 4 38 5 43 2 8-5 1-49-14-91-5-12-11-149-14-305-3-155-8-294-11-310-13-62-22-7-28 170-9 248-25 393-43 400-8 3-30-10-51-30-20-20-58-45-84-56-46-20-48-22-49-63 0-41-14-128-19-118-1 3-10 43-19 89l-17 84-74 39c-41 21-82 46-91 53-20 19-48 19-134-2-92-21-97-25-89-83 7-53-7-90-35-90s-31 9-13 41c16 29 16 31-7 50-19 15-21 22-11 34s7 15-17 20c-88 20-164 49-208 82l-50 38 45 7c25 3 68 7 96 7 49 1 112 30 121 56 2 6-56 9-166 7l-168-4-27 28c-14 16-26 32-26 35 0 9 39 19 77 19s85 16 95 33c5 9-24 13-115 17l-122 5-47 95c-80 159-116 392-68 440 24 24 35 25 91 5zm3389-94c0-6-4-13-10-16-5-3-10-39-10-80 0-110-27-172-109-255-159-161-416-207-566-102-58 40-52 53 30 73 87 20 179 51 264 90 78 35 211 117 211 129 0 5-55-18-122-50-158-74-270-115-388-139-52-11-171-38-265-60-93-22-190-42-215-46-42-6-37-2 67 54 129 69 202 114 289 180 68 52 76 54 399 132 94 22 222 53 285 69 128 32 140 34 140 21zm-1368-290c-4-54-46-99-111-118-71-20-161-41-161-37 0 1 9 18 19 36s22 50 25 71c8 44 16 48 126 70 100 19 106 18 102-22zm-262-47c0-34-33-88-71-115-17-12-62-29-102-39-40-11-153-40-252-65-99-26-195-50-213-52l-33-5 22 41c12 23 24 65 28 93l6 52 115 23c301 61 457 91 478 92 17 1 22-4 22-25zm-653-110c9-23-24-119-53-153-23-28-151-87-163-75-3 3 0 13 7 22 23 31 52 98 65 153 14 52 16 54 53 60 68 11 84 9 91-7zm1423 7c0-12-78-74-111-88-15-6-46-39-69-72s-59-71-79-86l-38-26-7-187c-4-103-10-211-13-240-10-89-23-37-23 93 0 66-3 164-7 219-6 98-6 98-37 112-39 17-80 52-95 81-6 12-27 30-46 39-70 33-51 44 140 86 55 11 156 33 225 48 141 31 160 34 160 21zm-610-29c0-26-50-89-81-102-26-11-26-12-33-157-3-80-9-150-12-155-13-21-23 13-40 140-18 128-19 132-42 132-13 0-103-20-200-45-218-56-232-57-197-11 8 11 15 30 15 42s6 26 13 32c9 8 214 61 522 135 41 10 55 7 55-11z"
    />
    <path
      d="M2680 3228c0-162 78-377 173-480 39-43 56-47 81-19 15 16 16 25 6 63-26 99-218 476-247 486-9 2-13-11-13-50zM3090 3218c0-58 32-162 74-242 47-90 86-129 125-124 38 4 41 60 5 130-48 95-174 268-196 268-4 0-8-14-8-32zM2210 3160c0-31 55-248 78-305 48-120 163-265 211-265 32 0 45 37 32 87-11 39-70 138-107 178-34 37-101 139-149 228-50 93-65 111-65 77zM1450 3112c0-143 72-316 120-287 10 6 5 22-28 95-26 56-62 168-62 191 0 24-11 49-21 49-5 0-9-22-9-48zM1600 3106c0-57 43-204 86-292 49-101 112-182 133-170 22 14 5 63-56 165-31 52-77 142-101 200-50 119-62 138-62 97zM1350 3083c0-42 27-104 49-111 9-3 11 2 8 14-3 11-13 45-22 77-19 65-35 75-35 20zM3590 2454c0-2 26-17 58-33 99-50 137-110 135-214-2-126-159-163-346-82-13 5-16 3-12-8 15-38 162-83 235-71 49 8 108 42 134 77 30 40 29 155-1 213-30 56-84 102-130 109-21 3-46 8-55 10-10 2-18 1-18-1z"
    />
    <path
      d="M3442 2397c-48-28-68-86-52-147 13-48 46-72 101-74 127-3 135 212 9 229-19 3-45-1-58-8zM4902 2188c5-15 68-24 68-10 0 10-32 22-58 22-8 0-12-6-10-12zM4250 2050c0-5 9-10 20-10s20 5 20 10c0 6-9 10-20 10s-20-4-20-10zM2635 1988c3-7 22-22 43-33 43-23 82-91 82-143 0-24-9-42-30-64-26-26-36-30-67-25-19 3-47 14-61 23l-25 16 29 13c58 24 73 120 28 174-31 37-44 38-79 9-44-39-44-123 0-208 17-34 71-60 124-60 36 0 49 6 77 34 30 30 34 40 33 88 0 73-18 116-59 149-38 30-103 49-95 27z"
    />
  </g>
  <g fill="#F5F1D5">
    <path
      d="M6860 3272c-58-1-109-7-113-11-18-18 22-69 67-86 37-14 45-22 50-49 10-54 143-182 246-237 47-25 92-49 101-52 17-5 45 18 98 83 28 33 33 35 88 35 50-1 65-6 112-38 29-20 57-37 62-37s9 88 9 195v195l-27 1c-120 2-609 3-693 1z"
    />
    <path
      d="M6507 3125c-4-9-7-34-7-55 0-35-17-89-41-130-67-114-72-120-95-120-12 0-34-11-48-25s-29-25-34-25c-24 0-28-54-8-90 7-14 30-56 51-94 58-108 70-125 103-150 18-12 61-51 98-84 48-46 98-78 186-122 66-33 128-60 139-60 20 0 145 32 217 56 75 25 152 12 152-25 0-18-17-23-248-80-111-28-125-29-155-16-47 20-133 45-156 45-24 0-28-13-35-120-5-87-42-195-87-257-18-26-28-50-25-61 3-10 34-46 69-80l63-63 94-10c106-10 121-8 170 30 19 15 56 40 82 55l47 27 26-39c26-39 26-41 12-100-8-33-11-65-8-70 8-13 64-35 160-62 94-28 131-62 131-124 0-22 6-48 13-57 7-8 55-43 107-78l95-62 3 848 3 848-38 32c-20 17-57 37-80 44-24 6-46 16-49 20-6 11-51 12-56 2-6-14-117-83-133-83-19 0-258 80-265 89-3 3-21 17-40 30-20 13-44 42-55 65-25 51-95 123-139 141-18 8-74 17-123 21-79 6-91 5-96-11zm213-159c0-33-27-58-59-54-56 6-29 78 30 78 24 0 29-4 29-24zm281-286c23-13 25-55 3-64-42-16-76 24-48 55 20 22 20 22 45 9zm-227-56c48-57 46-85-8-99-34-8-40-7-57 14-28 34-34 86-15 116 20 31 33 26 80-31zm656-309c15-19 6-31-31-40-29-7-55 15-45 40 7 20 60 20 76 0zm-174-221c49-21 76-51 72-84-2-20-9-26-36-28-18-2-40 2-48 9-30 25-58 119-35 119 5 0 26-7 47-16z"
    />
    <path
      d="M6222 2431c-8-5-15-41-19-97-6-91-17-124-59-181-13-17-24-38-24-46 0-7-12-24-26-38-56-52-69-80-75-164-4-61-12-95-36-145-57-117-236-270-318-270-15 0-38-9-52-20-22-17-41-20-119-20-87 0-95-2-117-26-21-22-28-24-57-17-25 7-36 16-41 36-4 15-3 30 3 33 14 9-28 35-73 45-36 8-43 6-86-27-27-20-50-38-52-40s4-19 14-37c18-33 17-35-16-165l-33-132 44-45c24-25 48-45 53-45s26-15 46-33c41-36 122-95 157-115 12-7 59-17 103-23 84-10 136-1 244 45l37 15v88c0 91 8 113 40 113 25 0 48-31 55-75 3-22 11-63 16-91l10-51 86-39c62-27 99-38 129-36 44 2 57-7 69-48 10-32 108-161 136-178 11-7 51-18 88-23 36-5 98-14 138-21 88-14 88-14 163 107 29 46 60 90 69 98 9 7 54 30 101 51 47 20 103 46 125 57 51 25 91 24 161-2 85-32 98-49 113-153 15-100 25-115 108-155 26-13 60-32 75-43 38-26 69-22 124 16l49 33-2 156c-2 153-2 156-32 209-34 59-92 113-162 147-88 44-101 60-118 147l-16 79-113 37c-63 20-122 44-132 53s-23 36-29 61c-14 53-15 53-158 21-91-21-106-22-135-10-18 8-35 17-38 21s-24 19-46 32c-35 21-194 190-194 207 0 3 14 30 30 60 17 30 37 87 46 126 9 40 20 79 25 88 13 26 27 238 17 255-4 5-26 19-50 30-156 77-204 105-214 123-15 29-18 31-32 22zm-84-643c4-31-22-50-56-41-25 6-26 12-10 48 16 37 62 32 66-7zm97-414c14-15 25-38 25-50 0-21-5-24-42-24-35 0-47 5-70 33-42 49-38 67 17 67 37 0 51-5 70-26zm-595-46c7-28 9-53 4-58-5-4-30-11-57-14-45-7-48-6-58 20-5 16-8 38-5 49 6 23 73 66 92 58 7-2 18-27 24-55zm945-253c0-26-55-34-74-11s-3 37 37 34c29-2 37-7 37-23zM5773 709c-17-17-4-39 23-39 28 0 34 34 8 44-20 8-18 8-31-5zM5470 682c0-19 36-42 66-42 11 0 14 6 8 23-8 27-3 23-41 32-28 6-33 4-33-13zM6116 632c-7-12 22-38 31-28 4 3 0 14-9 22-9 10-18 12-22 6z"
    />
    <path
      d="M7107 523c-11-10-8-27 6-47 15-21 47-12 47 13 0 30-35 52-53 34zM6680 461c-21-8-23-36-5-51 19-16 45-6 45 18 0 25-20 41-40 33zM6083 353c-18-7-16-48 2-67 23-22 61-6 57 25-1 13-10 30-19 37-18 13-21 13-40 5zM6786 93c-14-14-4-41 19-51 24-11 55-7 55 8 0 18-62 55-74 43z"
    />
  </g>
</svg>
