<svg xmlns="http://www.w3.org/2000/svg" id="root" viewBox="0 0 100 42">
  <g>
    <path
      d="M 79.558594 41.960938 C 76.964844 41.929688 76.6875 41.917969 75.949219 41.816406 C 75.253906 41.714844 75.25 41.714844 75.566406 41.652344 C 76.164062 41.539062 76.804688 41.503906 80.0625 41.410156 C 82.089844 41.355469 83.3125 41.304688 83.679688 41.25 C 83.914062 41.214844 83.929688 41.132812 83.746094 40.832031 C 83.621094 40.625 83.738281 39.8125 83.957031 39.34375 C 84.195312 38.84375 84.457031 38.722656 84.683594 39.003906 C 84.894531 39.257812 84.949219 39.542969 84.9375 40.375 C 84.933594 41.097656 84.933594 41.109375 85.027344 41.21875 C 85.121094 41.328125 85.140625 41.335938 85.550781 41.347656 C 86.078125 41.367188 86.234375 41.339844 86.320312 41.210938 C 86.378906 41.117188 86.378906 41.085938 86.320312 40.78125 C 86.238281 40.367188 86.238281 40.027344 86.316406 39.644531 C 86.386719 39.289062 86.460938 39.113281 86.578125 38.992188 C 86.675781 38.882812 86.667969 38.882812 86.808594 38.953125 C 87.050781 39.078125 87.289062 39.742188 87.328125 40.355469 C 87.351562 40.722656 87.34375 40.757812 87.238281 40.972656 C 87.167969 41.125 87.140625 41.214844 87.171875 41.242188 C 87.261719 41.335938 87.847656 41.359375 89.3125 41.332031 L 90.820312 41.304688 L 90.847656 40.796875 C 90.878906 40.183594 90.988281 39.648438 91.171875 39.160156 C 91.25 38.964844 91.316406 38.792969 91.324219 38.789062 C 91.332031 38.78125 91.414062 38.875 91.507812 38.996094 C 91.726562 39.28125 91.847656 39.65625 91.925781 40.328125 C 92.035156 41.1875 92.023438 41.140625 92.164062 41.199219 C 92.304688 41.25 95.242188 41.308594 98.238281 41.3125 L 99.890625 41.316406 L 99.890625 42 L 91 41.992188 C 86.109375 41.988281 80.960938 41.972656 79.558594 41.960938 Z M 35.910156 41.394531 C 33.398438 41.359375 32.710938 41.320312 32.523438 41.207031 C 32.378906 41.121094 32.371094 41.089844 32.5 41.058594 C 32.839844 40.972656 36.972656 40.910156 46.238281 40.851562 C 48.320312 40.839844 50.664062 40.8125 51.441406 40.792969 L 52.855469 40.75 L 53.328125 40.9375 C 53.75 41.105469 53.984375 41.242188 53.933594 41.292969 C 53.925781 41.304688 53.773438 41.332031 53.59375 41.355469 C 53.195312 41.410156 39.355469 41.445312 35.910156 41.394531 Z M 56.101562 40.40625 C 54.808594 40.292969 54.050781 40.070312 53.355469 39.601562 C 52.757812 39.199219 51.765625 38.179688 51.828125 38.027344 C 51.847656 37.972656 51.894531 37.964844 52.101562 37.984375 C 52.238281 37.996094 52.578125 38.027344 52.851562 38.058594 C 53.511719 38.117188 56.058594 38.078125 56.894531 37.992188 C 58.21875 37.859375 59.148438 37.546875 59.929688 36.964844 C 60.105469 36.835938 60.359375 36.660156 60.492188 36.574219 L 60.734375 36.421875 L 61.375 36.421875 C 61.964844 36.421875 62.03125 36.414062 62.1875 36.328125 C 62.628906 36.09375 63.035156 35.5 63.203125 34.839844 C 63.421875 33.976562 63.300781 32.65625 62.929688 31.902344 C 62.753906 31.535156 62.550781 31.300781 62.238281 31.101562 C 61.972656 30.925781 61.835938 30.71875 61.835938 30.484375 C 61.835938 30.292969 61.730469 29.921875 61.550781 29.472656 C 61.398438 29.085938 61.359375 28.910156 61.429688 28.910156 C 61.546875 28.910156 62.230469 29.46875 62.652344 29.917969 C 63.007812 30.296875 63.234375 30.640625 63.632812 31.40625 C 63.777344 31.6875 63.898438 31.875 63.941406 31.882812 C 63.976562 31.890625 64.058594 31.855469 64.113281 31.796875 C 64.4375 31.496094 64.910156 31.472656 66.328125 31.691406 C 67.5625 31.882812 68.160156 32.019531 68.492188 32.183594 C 68.804688 32.339844 68.847656 32.425781 68.847656 32.9375 C 68.851562 33.339844 68.910156 33.851562 68.996094 34.242188 C 69.078125 34.605469 69.078125 34.992188 68.996094 35.144531 C 68.878906 35.378906 68.554688 35.589844 67.960938 35.832031 C 67.296875 36.105469 66.675781 36.203125 64.988281 36.300781 C 63.796875 36.367188 63.632812 36.386719 63.472656 36.46875 C 63.328125 36.542969 63.316406 36.730469 63.453125 36.820312 C 63.667969 36.964844 65.964844 36.929688 67.023438 36.765625 C 67.867188 36.632812 68.582031 36.355469 69.132812 35.953125 C 69.570312 35.636719 69.792969 35.550781 70.289062 35.519531 C 70.800781 35.484375 70.945312 35.421875 71.210938 35.136719 C 71.445312 34.878906 71.628906 34.535156 71.78125 34.085938 C 71.910156 33.703125 71.972656 33.59375 72.109375 33.527344 C 72.324219 33.421875 72.441406 32.890625 72.398438 32.226562 L 72.371094 31.8125 L 72.507812 31.734375 C 72.628906 31.65625 72.707031 31.648438 73.265625 31.648438 C 74.578125 31.652344 76.039062 31.871094 76.496094 32.132812 C 76.78125 32.292969 76.855469 32.464844 76.910156 33.058594 C 76.933594 33.3125 76.957031 33.683594 76.964844 33.875 L 76.980469 34.234375 L 76.832031 34.328125 C 76.261719 34.683594 75.65625 34.902344 74.898438 35.015625 C 74.527344 35.070312 74.269531 35.074219 73.445312 35.054688 C 72.894531 35.042969 72.316406 35.019531 72.167969 35.007812 L 71.898438 34.984375 L 71.910156 35.257812 C 71.921875 35.511719 71.929688 35.539062 72.023438 35.582031 C 72.183594 35.664062 73.242188 35.757812 73.964844 35.757812 C 75.203125 35.757812 76.265625 35.5 77 35.023438 C 77.421875 34.746094 77.65625 34.660156 78.070312 34.625 C 78.730469 34.570312 78.957031 34.398438 79.300781 33.734375 C 79.398438 33.542969 79.566406 33.289062 79.675781 33.171875 C 79.980469 32.835938 80.046875 32.636719 80.101562 31.96875 C 80.113281 31.804688 80.132812 31.625 80.144531 31.570312 L 80.164062 31.480469 L 80.894531 31.496094 C 81.917969 31.523438 82.359375 31.640625 82.5 31.917969 C 82.570312 32.054688 82.648438 32.609375 82.648438 32.964844 C 82.648438 33.492188 82.496094 33.777344 82.113281 33.957031 C 81.835938 34.089844 81.453125 34.167969 80.574219 34.28125 C 79.722656 34.390625 79.640625 34.425781 79.640625 34.667969 C 79.640625 34.890625 79.707031 34.910156 80.472656 34.910156 C 81.578125 34.910156 82.121094 34.78125 82.75 34.367188 C 83.21875 34.0625 83.363281 33.992188 83.691406 33.925781 C 84.007812 33.855469 84.234375 33.75 84.472656 33.5625 C 84.722656 33.359375 84.730469 33.359375 84.683594 33.53125 C 84.421875 34.492188 83.5 35.542969 82.457031 36.074219 C 81.980469 36.316406 81.660156 36.382812 80.941406 36.382812 C 80.152344 36.382812 79.882812 36.320312 79.339844 36.015625 C 79.121094 35.898438 78.925781 35.8125 78.902344 35.824219 C 78.878906 35.839844 78.667969 36 78.4375 36.179688 C 77.351562 37.03125 76.707031 37.324219 75.484375 37.527344 C 74.800781 37.644531 73.648438 37.628906 73.082031 37.496094 C 72.410156 37.335938 72.042969 37.191406 71.585938 36.902344 C 71.472656 36.824219 71.34375 36.765625 71.304688 36.765625 C 71.191406 36.765625 70.925781 36.972656 70.355469 37.511719 C 69.535156 38.289062 68.960938 38.710938 68.214844 39.066406 C 67.488281 39.417969 67.386719 39.429688 65.773438 39.414062 C 64.128906 39.394531 64.277344 39.425781 63.023438 38.808594 C 62.527344 38.5625 62.207031 38.425781 62.179688 38.453125 C 62.15625 38.472656 61.980469 38.609375 61.792969 38.761719 C 60.785156 39.566406 59.421875 40.109375 57.886719 40.324219 C 57.433594 40.390625 56.421875 40.433594 56.101562 40.40625 Z M 19.867188 38.035156 C 19.402344 37.914062 18.851562 37.761719 18.644531 37.691406 C 18.167969 37.523438 17.566406 37.21875 17.238281 36.96875 C 16.394531 36.328125 15.777344 35.277344 15.5 34.023438 C 15.398438 33.570312 15.375 32.449219 15.457031 31.96875 C 15.589844 31.144531 15.878906 30.410156 16.320312 29.765625 C 16.554688 29.417969 17.132812 28.808594 17.320312 28.707031 C 17.417969 28.660156 17.417969 28.660156 17.394531 28.800781 C 17.382812 28.878906 17.226562 29.265625 17.042969 29.660156 C 16.492188 30.871094 16.203125 31.878906 16.203125 32.589844 C 16.203125 32.746094 16.238281 33.042969 16.277344 33.238281 C 16.359375 33.621094 16.585938 34.199219 16.648438 34.160156 C 16.667969 34.148438 16.683594 33.757812 16.683594 33.296875 C 16.683594 32.394531 16.710938 32.097656 16.867188 31.480469 C 17.011719 30.898438 17.230469 30.324219 17.550781 29.675781 C 18.5 27.757812 19.835938 26.222656 22.097656 24.441406 C 22.691406 23.976562 23.847656 23.285156 24.851562 22.808594 C 26.386719 22.070312 28.503906 21.324219 28.605469 21.484375 C 28.632812 21.53125 28.296875 22.027344 27.628906 22.929688 C 27.023438 23.75 26.734375 24.179688 26.6875 24.316406 C 26.671875 24.375 26.589844 24.511719 26.503906 24.628906 C 26.15625 25.097656 25.46875 26.496094 24.945312 27.820312 C 24.683594 28.46875 24.582031 28.792969 24.582031 28.945312 L 24.585938 29.050781 L 24.699219 28.925781 C 24.839844 28.773438 25.164062 28.179688 25.746094 27.015625 C 26.886719 24.738281 28.039062 23 29.484375 21.402344 L 29.699219 21.164062 L 30.65625 21.292969 C 33.199219 21.640625 34.9375 22.003906 37.15625 22.671875 C 40.390625 23.636719 43.101562 24.824219 45.269531 26.222656 C 46.941406 27.300781 48.230469 28.398438 48.851562 29.273438 C 49.132812 29.667969 49.347656 30.097656 49.46875 30.5 C 49.566406 30.820312 49.578125 30.933594 49.582031 31.425781 C 49.582031 31.980469 49.582031 32 49.429688 32.441406 C 49.199219 33.117188 48.839844 33.707031 48.277344 34.324219 C 47.839844 34.804688 47.027344 35.417969 46.417969 35.726562 C 45.726562 36.074219 44.535156 36.453125 43.40625 36.683594 C 41.414062 37.09375 40.332031 37.140625 33.804688 37.140625 C 28.742188 37.140625 27.835938 37.117188 26.011719 36.941406 L 24.933594 36.835938 L 24.601562 37.171875 C 24.210938 37.5625 23.789062 37.855469 23.445312 37.972656 C 22.980469 38.125 22.285156 38.21875 21.476562 38.234375 L 20.714844 38.25 Z M 35.90625 33.632812 C 36.886719 32.148438 38.753906 28.238281 38.902344 27.355469 C 38.960938 27.007812 38.925781 26.882812 38.695312 26.675781 C 38.421875 26.429688 38.164062 26.496094 37.773438 26.917969 C 36.601562 28.1875 35.628906 30.628906 35.445312 32.769531 C 35.402344 33.253906 35.414062 33.808594 35.472656 33.957031 C 35.53125 34.109375 35.648438 34.023438 35.90625 33.632812 Z M 41.167969 33.492188 C 41.421875 33.257812 41.890625 32.667969 42.375 31.96875 C 43.644531 30.136719 44.054688 29.144531 43.769531 28.582031 C 43.660156 28.375 43.34375 28.320312 43.046875 28.464844 C 42.378906 28.792969 41.449219 30.464844 41.023438 32.113281 C 40.839844 32.808594 40.800781 33.273438 40.886719 33.59375 C 40.917969 33.699219 40.96875 33.679688 41.167969 33.492188 Z M 29.503906 32.425781 C 29.589844 32.296875 29.738281 32.046875 29.835938 31.871094 C 30.640625 30.375 31.46875 29.082031 32.046875 28.40625 C 32.492188 27.882812 33.207031 26.707031 33.386719 26.210938 C 33.480469 25.941406 33.535156 25.578125 33.5 25.378906 C 33.460938 25.117188 33.269531 24.921875 33.046875 24.921875 C 32.816406 24.921875 32.605469 25.039062 32.253906 25.378906 C 31.429688 26.167969 30.476562 27.671875 30.121094 28.761719 C 29.835938 29.621094 29.285156 31.808594 29.214844 32.363281 C 29.167969 32.730469 29.273438 32.757812 29.503906 32.425781 Z M 19.449219 32.285156 C 19.492188 32.1875 19.535156 32.011719 19.550781 31.890625 C 19.613281 31.355469 19.976562 30.242188 20.429688 29.183594 C 20.59375 28.789062 20.753906 28.382812 20.777344 28.28125 C 20.820312 28.113281 20.816406 28.085938 20.753906 28.039062 C 20.277344 27.6875 19.5 29.140625 19.25 30.832031 C 19.085938 31.976562 19.203125 32.847656 19.449219 32.285156 Z M 21.335938 31.839844 C 21.449219 31.652344 21.546875 31.433594 21.957031 30.480469 C 22.398438 29.457031 22.871094 28.542969 23.675781 27.136719 C 23.894531 26.761719 24.113281 26.203125 24.132812 25.984375 C 24.199219 25.207031 23.554688 25.679688 22.769531 26.980469 C 22.320312 27.722656 22.066406 28.285156 21.710938 29.332031 C 21.285156 30.582031 21.019531 32.011719 21.207031 32.011719 C 21.222656 32.011719 21.277344 31.933594 21.335938 31.839844 Z M 18.164062 31.597656 C 18.277344 31.3125 18.609375 30.148438 18.609375 30.042969 C 18.609375 29.828125 18.320312 30.042969 18.136719 30.386719 C 17.941406 30.753906 17.835938 31.207031 17.855469 31.546875 C 17.867188 31.707031 17.886719 31.859375 17.902344 31.886719 C 17.949219 31.960938 18.066406 31.832031 18.164062 31.597656 Z M 18.164062 31.597656 "
    />
    <path
      d="M 52.734375 37.414062 C 52.15625 37.328125 51.414062 37.070312 51.109375 36.84375 C 50.703125 36.546875 50.5625 36.527344 49.023438 36.523438 C 47.9375 36.523438 47.015625 36.476562 46.863281 36.417969 C 46.730469 36.363281 46.796875 36.257812 47.042969 36.117188 C 48.34375 35.386719 49.402344 34.222656 50.0625 32.808594 C 50.164062 32.589844 50.328125 32.246094 50.421875 32.035156 C 50.640625 31.566406 50.691406 31.53125 50.957031 31.667969 C 51.191406 31.789062 51.257812 31.792969 53.394531 31.75 C 54.6875 31.726562 55.082031 31.734375 55.671875 31.785156 C 57.34375 31.933594 58.667969 32.203125 59.410156 32.550781 C 59.828125 32.742188 59.835938 32.761719 59.875 33.613281 C 59.902344 34.316406 59.964844 34.734375 60.085938 35.15625 C 60.285156 35.820312 60.027344 36.207031 59.046875 36.699219 C 57.898438 37.273438 57.113281 37.398438 54.496094 37.429688 C 53.648438 37.4375 52.851562 37.429688 52.734375 37.414062 Z M 99.667969 36.808594 C 99.609375 36.75 97.273438 36.691406 93.292969 36.644531 C 88.558594 36.585938 86.605469 36.546875 86.539062 36.507812 C 86.496094 36.476562 86.496094 36.464844 86.550781 36.433594 C 86.636719 36.386719 87.8125 36.328125 89.726562 36.28125 C 91.777344 36.230469 99.964844 36.140625 99.992188 36.167969 C 100.027344 36.199219 99.925781 36.613281 99.859375 36.734375 C 99.789062 36.847656 99.734375 36.871094 99.667969 36.808594 Z M 7.441406 35.597656 C 5.898438 35.5625 5.289062 35.519531 5.199219 35.433594 C 5.179688 35.414062 5.171875 35.382812 5.1875 35.371094 C 5.253906 35.300781 5.832031 35.234375 6.683594 35.1875 C 7.910156 35.128906 13.609375 35.160156 14.035156 35.234375 C 14.425781 35.292969 14.609375 35.371094 14.589844 35.460938 C 14.578125 35.523438 14.519531 35.539062 14.21875 35.558594 C 13.558594 35.609375 9.113281 35.628906 7.441406 35.597656 Z M 59.410156 31.808594 C 58.457031 31.476562 57.464844 31.273438 56.140625 31.140625 C 55.175781 31.046875 53.222656 31.027344 51.890625 31.097656 C 51.285156 31.128906 50.785156 31.152344 50.78125 31.148438 C 50.773438 31.140625 50.804688 31.027344 50.851562 30.890625 C 51.1875 29.882812 52.910156 28.46875 54.707031 27.726562 C 55.164062 27.535156 55.488281 27.5 56.753906 27.5 C 58.257812 27.5 58.519531 27.546875 59.289062 27.945312 C 60.382812 28.511719 60.929688 29.117188 61.25 30.148438 C 61.433594 30.738281 61.449219 30.699219 60.714844 31.402344 C 60.367188 31.738281 60.054688 32.011719 60.027344 32.007812 C 59.996094 32.007812 59.71875 31.917969 59.410156 31.808594 Z M 68.25 31.363281 C 67.609375 31.183594 67.230469 31.140625 65.042969 31.003906 C 64.027344 30.941406 63.929688 30.894531 63.683594 30.40625 C 63.476562 29.992188 63.171875 29.597656 62.601562 28.988281 C 62.035156 28.390625 62.011719 28.351562 62.09375 28.1875 C 62.285156 27.816406 63.078125 27.386719 63.921875 27.199219 C 64.332031 27.105469 65.5625 27.074219 66.074219 27.136719 C 67.28125 27.285156 68.203125 27.707031 68.925781 28.421875 C 69.574219 29.066406 70.03125 30.003906 69.964844 30.53125 C 69.945312 30.664062 69.890625 30.746094 69.667969 30.976562 C 69.246094 31.40625 69.121094 31.488281 68.878906 31.484375 C 68.765625 31.484375 68.484375 31.425781 68.25 31.363281 Z M 76.671875 31.441406 C 75.96875 31.15625 74.097656 30.882812 72.875 30.882812 C 72.273438 30.882812 72.140625 30.855469 72.140625 30.722656 C 72.140625 30.605469 71.933594 30.097656 71.613281 29.421875 C 71.445312 29.070312 71.339844 28.8125 71.363281 28.792969 C 71.949219 28.265625 72.976562 27.804688 74.085938 27.578125 C 74.695312 27.449219 75.074219 27.480469 75.507812 27.6875 C 76.058594 27.949219 76.898438 28.652344 77.457031 29.324219 C 77.921875 29.878906 77.996094 30.082031 77.835938 30.398438 C 77.746094 30.574219 76.890625 31.488281 76.816406 31.484375 C 76.792969 31.484375 76.730469 31.464844 76.671875 31.441406 Z M 71.300781 31.144531 C 70.949219 30.910156 70.542969 30.546875 70.5 30.441406 C 70.480469 30.382812 70.425781 30.171875 70.375 29.964844 C 70.328125 29.753906 70.230469 29.429688 70.15625 29.238281 C 69.902344 28.570312 69.933594 28.472656 70.285156 28.839844 C 70.703125 29.277344 71.277344 30.246094 71.503906 30.894531 C 71.65625 31.339844 71.632812 31.371094 71.300781 31.144531 Z M 79.21875 31.070312 C 78.972656 30.816406 78.730469 30.457031 78.375 29.835938 C 77.761719 28.765625 77.683594 28.554688 77.945312 28.695312 C 78.097656 28.78125 78.589844 29.257812 78.796875 29.519531 C 79.148438 29.960938 79.480469 30.648438 79.539062 31.054688 C 79.566406 31.234375 79.5625 31.246094 79.476562 31.246094 C 79.421875 31.246094 79.320312 31.175781 79.21875 31.070312 Z M 84.679688 30.949219 C 84.539062 30.707031 84.40625 30.566406 84.089844 30.324219 C 84.023438 30.273438 83.933594 30.164062 83.890625 30.078125 C 83.769531 29.839844 83.398438 28.824219 83.425781 28.800781 C 83.472656 28.753906 83.710938 28.894531 83.910156 29.085938 C 84.304688 29.476562 84.742188 30.226562 84.871094 30.742188 C 85.003906 31.257812 84.917969 31.355469 84.679688 30.949219 Z M 81.90625 30.875 C 81.691406 30.816406 81.441406 30.789062 80.859375 30.773438 L 80.09375 30.75 L 79.878906 30.34375 C 79.582031 29.769531 79.214844 29.222656 78.882812 28.855469 C 78.460938 28.394531 78.347656 28.234375 78.398438 28.140625 C 78.449219 28.042969 78.878906 27.839844 79.199219 27.757812 C 79.546875 27.667969 80.257812 27.695312 80.710938 27.816406 C 81.898438 28.132812 82.878906 28.902344 83.207031 29.78125 C 83.328125 30.113281 83.316406 30.234375 83.117188 30.527344 C 82.875 30.878906 82.738281 30.964844 82.429688 30.960938 C 82.292969 30.957031 82.0625 30.917969 81.90625 30.875 Z M 81.90625 30.875 "
    />
    <path
      d="M 50.128906 30.167969 C 49.78125 29.433594 49.3125 28.714844 48.859375 28.230469 C 48.101562 27.402344 46.144531 25.929688 44.734375 25.117188 C 42.65625 23.917969 40.214844 22.875 37.785156 22.148438 C 35.722656 21.527344 31.554688 20.640625 30.277344 20.554688 C 29.515625 20.503906 28.667969 20.636719 27.589844 20.980469 C 27.25 21.085938 26.890625 21.1875 26.792969 21.203125 L 26.617188 21.226562 L 26.640625 21.113281 C 26.652344 21.046875 26.691406 20.910156 26.734375 20.800781 C 26.820312 20.582031 26.789062 20.496094 26.613281 20.429688 C 26.515625 20.398438 26.304688 20.417969 25.753906 20.515625 L 25.625 20.539062 L 25.625 20.363281 C 25.625 19.765625 26.609375 19.117188 27.597656 19.058594 C 28.175781 19.023438 28.257812 18.980469 28.855469 18.398438 C 29.78125 17.496094 30.933594 16.601562 31.636719 16.242188 C 31.875 16.121094 31.941406 16.117188 31.980469 16.214844 C 32 16.25 32.027344 16.800781 32.046875 17.433594 C 32.082031 18.714844 32.109375 18.878906 32.371094 19.203125 C 32.554688 19.4375 32.753906 19.527344 33.125 19.554688 C 34.160156 19.625 35.027344 19.140625 37.375 17.1875 C 39.152344 15.714844 41.1875 14.164062 41.785156 13.832031 C 42.382812 13.507812 43.472656 13.101562 44.511719 12.816406 C 45.644531 12.515625 45.984375 12.457031 46.636719 12.457031 C 47.160156 12.460938 47.253906 12.46875 47.582031 12.570312 C 48.71875 12.925781 50.894531 14.027344 52.574219 15.09375 C 53.667969 15.789062 55.265625 16.992188 55.800781 17.511719 C 56.109375 17.816406 56.269531 17.871094 56.816406 17.84375 C 57.101562 17.828125 57.265625 17.808594 57.253906 17.78125 C 57.226562 17.703125 56.929688 17.628906 56.523438 17.589844 C 56.105469 17.554688 56.019531 17.511719 56.019531 17.332031 C 56.019531 16.953125 54.183594 15.507812 52.113281 14.265625 C 51.78125 14.0625 51.101562 13.667969 50.601562 13.382812 C 50.09375 13.097656 49.683594 12.839844 49.683594 12.808594 C 49.683594 12.730469 49.925781 12.746094 50.53125 12.859375 C 51.28125 13 51.722656 13.125 52.382812 13.386719 C 54.652344 14.289062 57.195312 15.894531 58.738281 17.40625 C 59.304688 17.957031 59.335938 18.03125 59.121094 18.289062 C 58.917969 18.539062 59.066406 18.664062 59.511719 18.617188 C 60.136719 18.554688 60.402344 18.371094 60.089844 18.222656 C 59.984375 18.171875 59.925781 18.101562 59.847656 17.925781 C 59.734375 17.667969 59.515625 17.421875 58.96875 16.949219 C 58.15625 16.246094 56.707031 15.191406 55.230469 14.226562 C 54.894531 14.011719 54.617188 13.8125 54.617188 13.796875 C 54.617188 13.75 55.140625 13.757812 55.386719 13.808594 C 56.027344 13.9375 56.882812 14.332031 58.046875 15.042969 C 59.34375 15.835938 60.144531 16.398438 61.375 17.414062 C 62.636719 18.449219 62.839844 18.738281 62.351562 18.820312 C 62.265625 18.835938 62.144531 18.886719 62.085938 18.941406 C 61.980469 19.03125 61.980469 19.039062 62.046875 19.109375 C 62.105469 19.171875 62.179688 19.183594 62.429688 19.179688 C 62.949219 19.171875 63.277344 19.027344 63.277344 18.8125 C 63.277344 18.429688 61.527344 16.847656 59.628906 15.515625 C 58.992188 15.070312 58.414062 14.625 58.394531 14.566406 C 58.359375 14.464844 59.417969 14.5625 59.980469 14.710938 C 61.597656 15.140625 64.398438 16.726562 66.042969 18.140625 C 67.855469 19.699219 68.691406 21.253906 68.691406 23.054688 C 68.691406 23.636719 68.660156 23.742188 68.347656 24.214844 L 68.121094 24.558594 L 65.886719 24.558594 L 65.886719 24.429688 C 65.886719 24.007812 65.976562 22.9375 66.027344 22.761719 C 66.070312 22.613281 66.160156 22.476562 66.367188 22.238281 C 66.519531 22.066406 66.710938 21.800781 66.789062 21.652344 C 66.953125 21.34375 67.089844 20.847656 67.089844 20.574219 C 67.089844 20.1875 66.925781 19.886719 66.714844 19.886719 C 66.398438 19.886719 65.796875 20.613281 65.710938 21.097656 C 65.679688 21.261719 65.523438 21.457031 65.429688 21.457031 C 65.394531 21.457031 65.332031 21.402344 65.285156 21.332031 C 65.207031 21.230469 65.171875 21.210938 65.050781 21.222656 C 64.972656 21.230469 64.890625 21.265625 64.867188 21.308594 C 64.820312 21.386719 64.835938 21.421875 65.175781 21.980469 C 65.414062 22.375 65.457031 22.554688 65.457031 23.109375 C 65.457031 23.859375 65.328125 24.328125 65.09375 24.433594 C 65.042969 24.457031 64.90625 24.480469 64.792969 24.480469 C 64.488281 24.480469 63.332031 24.363281 63.078125 24.304688 C 62.804688 24.246094 62.796875 24.214844 62.917969 23.707031 C 62.96875 23.484375 63.019531 23.105469 63.035156 22.773438 C 63.066406 22.152344 63.085938 22.101562 63.347656 22.101562 C 63.667969 22.101562 63.945312 21.847656 64.203125 21.316406 C 64.601562 20.496094 64.566406 19.644531 64.125 19.480469 C 63.753906 19.335938 63.238281 20.046875 62.960938 21.089844 C 62.898438 21.339844 62.835938 21.554688 62.820312 21.566406 C 62.8125 21.578125 62.714844 21.441406 62.601562 21.265625 C 62.390625 20.929688 62.085938 20.613281 61.980469 20.613281 C 61.871094 20.613281 61.835938 20.464844 61.835938 19.988281 C 61.835938 19.230469 61.71875 18.960938 61.382812 18.960938 C 61.15625 18.960938 60.984375 19.085938 60.792969 19.375 C 60.441406 19.917969 60.230469 20.695312 60.304688 21.210938 C 60.359375 21.601562 60.429688 21.675781 60.75 21.679688 C 61.035156 21.679688 61.066406 21.65625 61.378906 21.191406 C 61.671875 20.75 61.835938 20.65625 61.835938 20.9375 C 61.835938 21.050781 61.953125 21.214844 62.03125 21.214844 C 62.101562 21.214844 62.320312 21.730469 62.421875 22.132812 C 62.5625 22.675781 62.542969 23.144531 62.355469 23.804688 L 62.21875 24.285156 L 61.980469 24.261719 C 61.84375 24.25 61.339844 24.210938 60.855469 24.175781 C 59.839844 24.105469 59.578125 24.082031 59.503906 24.03125 C 59.464844 24.007812 59.464844 23.941406 59.527344 23.683594 C 59.71875 22.824219 59.71875 22.816406 59.699219 22.304688 C 59.6875 22.027344 59.648438 21.683594 59.609375 21.539062 C 59.511719 21.152344 59.179688 20.492188 58.988281 20.289062 C 58.835938 20.128906 58.824219 20.101562 58.84375 19.953125 C 58.9375 19.253906 58.898438 18.890625 58.722656 18.683594 C 58.519531 18.4375 58.242188 18.492188 57.917969 18.855469 C 57.339844 19.496094 57.105469 20.804688 57.496094 21.195312 C 57.691406 21.394531 57.910156 21.324219 58.332031 20.933594 C 58.5 20.777344 58.65625 20.65625 58.683594 20.664062 C 58.769531 20.6875 58.980469 21.046875 59.101562 21.375 C 59.296875 21.886719 59.359375 22.246094 59.308594 22.59375 C 59.253906 22.996094 59.136719 23.363281 58.976562 23.652344 C 58.78125 24.003906 58.644531 24.0625 57.90625 24.113281 C 57.0625 24.167969 56.460938 24.3125 55.527344 24.6875 C 54.449219 25.117188 53.457031 25.769531 52.628906 26.59375 C 52.085938 27.132812 51.875 27.414062 51.363281 28.285156 C 50.988281 28.921875 50.933594 29.023438 50.589844 29.703125 C 50.421875 30.042969 50.269531 30.328125 50.25 30.335938 C 50.234375 30.347656 50.179688 30.269531 50.128906 30.167969 Z M 48.253906 22.996094 C 48.601562 22.929688 48.742188 22.878906 48.960938 22.75 C 49.304688 22.546875 49.601562 22.277344 49.851562 21.949219 C 50.28125 21.375 50.425781 20.824219 50.394531 19.867188 C 50.375 19.160156 50.3125 18.921875 50.066406 18.621094 C 49.785156 18.277344 49.167969 17.898438 48.644531 17.75 C 47.640625 17.457031 45.4375 18.058594 45.253906 18.671875 C 45.242188 18.71875 45.246094 18.757812 45.265625 18.757812 C 45.289062 18.757812 45.472656 18.695312 45.671875 18.617188 C 46.132812 18.4375 46.851562 18.25 47.285156 18.195312 C 48.292969 18.070312 49.070312 18.253906 49.558594 18.742188 C 49.925781 19.117188 50.039062 19.539062 49.964844 20.269531 C 49.894531 21 49.722656 21.414062 49.304688 21.855469 C 49 22.179688 48.6875 22.394531 48 22.761719 C 47.730469 22.910156 47.484375 23.050781 47.460938 23.074219 C 47.40625 23.128906 47.667969 23.105469 48.253906 22.996094 Z M 46.664062 22.304688 C 47.109375 22.082031 47.390625 21.605469 47.433594 21.007812 C 47.476562 20.304688 47.179688 19.753906 46.628906 19.503906 C 46.410156 19.402344 46.351562 19.394531 46.054688 19.410156 C 45.492188 19.449219 45.121094 19.671875 44.90625 20.121094 C 44.777344 20.382812 44.773438 20.402344 44.773438 20.914062 C 44.773438 21.382812 44.785156 21.457031 44.871094 21.636719 C 44.976562 21.859375 45.257812 22.183594 45.457031 22.308594 C 45.765625 22.496094 46.273438 22.492188 46.664062 22.304688 Z M 65.179688 19.683594 C 65.429688 19.636719 65.683594 19.503906 65.683594 19.425781 C 65.683594 19.347656 65.449219 19.316406 65.210938 19.363281 C 64.875 19.429688 64.707031 19.546875 64.804688 19.664062 C 64.863281 19.738281 64.882812 19.738281 65.179688 19.683594 Z M 88.113281 29.8125 C 88.074219 29.753906 88.007812 29.675781 87.972656 29.628906 C 87.898438 29.558594 87.902344 29.554688 88.09375 29.554688 C 88.195312 29.554688 88.347656 29.539062 88.433594 29.519531 L 88.589844 29.480469 L 88.503906 29.570312 C 88.457031 29.617188 88.421875 29.691406 88.421875 29.722656 C 88.421875 29.9375 88.234375 29.988281 88.113281 29.8125 Z M 0.00390625 28.679688 C 0.00390625 27.382812 0.078125 24.167969 0.117188 23.621094 C 0.136719 23.355469 0.175781 23.121094 0.199219 23.097656 C 0.234375 23.0625 0.285156 23.074219 0.402344 23.140625 C 0.488281 23.191406 0.582031 23.230469 0.613281 23.230469 C 0.640625 23.230469 0.769531 23.164062 0.898438 23.085938 C 1.261719 22.867188 1.300781 22.867188 1.644531 23.105469 C 2.027344 23.359375 2.464844 23.714844 3.050781 24.238281 C 3.300781 24.464844 3.613281 24.71875 3.742188 24.804688 C 4.132812 25.058594 4.707031 25.238281 5.636719 25.40625 C 6.246094 25.515625 6.867188 25.664062 7.167969 25.773438 C 7.296875 25.820312 7.558594 25.96875 7.746094 26.097656 L 8.09375 26.339844 L 8.367188 26.3125 C 8.679688 26.28125 8.953125 26.222656 9.644531 26.046875 C 10.15625 25.914062 11.628906 25.492188 11.675781 25.460938 C 11.691406 25.453125 11.980469 25.589844 12.320312 25.765625 C 13.441406 26.347656 13.917969 26.511719 15.339844 26.792969 C 16.621094 27.046875 16.929688 27.160156 17.050781 27.410156 C 17.113281 27.527344 17.113281 27.53125 16.984375 27.59375 C 16.722656 27.71875 15.902344 28.488281 15.398438 29.074219 C 15.261719 29.238281 15.121094 29.394531 15.082031 29.414062 C 15.039062 29.441406 13.402344 29.449219 10.328125 29.445312 C 6.097656 29.433594 1.496094 29.476562 0.414062 29.539062 L 0.00390625 29.558594 Z M 0.00390625 28.679688 "
    />
    <path
      d="M 51.632812 29.222656 C 51.707031 28.980469 52.003906 28.421875 52.25 28.050781 C 53.269531 26.515625 54.945312 25.410156 56.984375 24.914062 C 57.347656 24.824219 57.4375 24.820312 58.910156 24.820312 C 60.636719 24.820312 61.394531 24.863281 64.0625 25.078125 C 64.324219 25.101562 65.464844 25.191406 66.585938 25.28125 C 67.714844 25.371094 68.855469 25.460938 69.132812 25.484375 C 69.410156 25.511719 69.894531 25.542969 70.214844 25.566406 C 71.539062 25.65625 72.714844 25.742188 74.066406 25.847656 C 76.054688 26.007812 76.230469 26.042969 76.230469 26.28125 C 76.230469 26.4375 76.09375 26.65625 75.832031 26.921875 C 75.484375 27.277344 75.453125 27.28125 74.410156 27.21875 C 73.4375 27.15625 73.039062 27.179688 72.550781 27.324219 C 72.15625 27.4375 71.996094 27.515625 71.546875 27.804688 C 71.367188 27.925781 71.125 28.066406 71.019531 28.125 C 70.820312 28.226562 70.816406 28.226562 70.648438 28.15625 C 70.554688 28.121094 70.441406 28.066406 70.398438 28.042969 C 69.503906 27.515625 68.6875 27.148438 67.695312 26.816406 C 66.6875 26.476562 66.441406 26.441406 65.164062 26.4375 C 64.246094 26.433594 64.054688 26.445312 63.765625 26.507812 C 63.335938 26.609375 62.496094 27.019531 61.882812 27.433594 C 61.636719 27.601562 61.378906 27.746094 61.3125 27.761719 C 61.15625 27.796875 60.820312 27.707031 60.121094 27.433594 C 59.199219 27.082031 58.789062 26.945312 58.507812 26.894531 C 58.363281 26.871094 57.5625 26.84375 56.722656 26.828125 L 55.199219 26.804688 L 54.476562 27.167969 C 53.347656 27.742188 53.125 27.902344 52.238281 28.796875 C 51.742188 29.296875 51.570312 29.417969 51.632812 29.222656 Z M 92 26.035156 C 91.804688 25.824219 91.765625 25.703125 91.824219 25.519531 C 91.898438 25.3125 92.046875 25.222656 92.324219 25.222656 C 92.53125 25.222656 92.570312 25.234375 92.65625 25.335938 C 92.777344 25.476562 92.785156 25.730469 92.671875 25.917969 C 92.601562 26.042969 92.335938 26.210938 92.21875 26.210938 C 92.1875 26.210938 92.085938 26.128906 92 26.035156 Z M 88.609375 25.929688 C 88.433594 25.789062 88.339844 25.539062 88.339844 25.199219 C 88.339844 24.785156 88.460938 24.449219 88.710938 24.183594 L 88.898438 23.984375 L 89.15625 24.003906 C 89.308594 24.015625 89.503906 24.066406 89.636719 24.128906 C 90.140625 24.363281 90.078125 24.683594 89.359375 25.53125 C 89.089844 25.84375 88.890625 26.007812 88.773438 26.007812 C 88.738281 26.007812 88.667969 25.972656 88.609375 25.929688 Z M 78.515625 25.484375 C 78.398438 25.464844 77.753906 25.414062 77.09375 25.363281 C 75.96875 25.285156 75.539062 25.257812 73.242188 25.101562 C 70.910156 24.949219 70.421875 24.914062 69.671875 24.839844 C 68.878906 24.765625 68.734375 24.742188 68.734375 24.679688 C 68.734375 24.664062 68.804688 24.488281 68.894531 24.285156 C 69.132812 23.742188 69.214844 23.382812 69.214844 22.847656 C 69.214844 21.898438 68.921875 20.984375 68.292969 19.964844 C 67.769531 19.117188 66.640625 17.957031 65.503906 17.101562 C 64.703125 16.496094 63.433594 15.699219 62.628906 15.292969 C 62.105469 15.03125 61.671875 14.773438 61.492188 14.625 C 61.347656 14.511719 61.324219 14.464844 61.296875 14.289062 C 61.265625 14.054688 61.074219 13.476562 60.925781 13.179688 C 60.773438 12.878906 60.484375 12.441406 60.285156 12.214844 C 59.953125 11.835938 59.761719 11.308594 59.933594 11.238281 C 60.195312 11.136719 63.707031 12.699219 65.183594 13.5625 C 66.71875 14.472656 67.875 15.359375 68.9375 16.453125 C 70.316406 17.863281 71.109375 19.242188 71.472656 20.855469 C 71.550781 21.195312 71.558594 21.347656 71.554688 22.296875 C 71.550781 23.136719 71.5625 23.351562 71.605469 23.351562 C 71.699219 23.351562 71.867188 23.070312 71.988281 22.714844 C 72.140625 22.257812 72.183594 22.195312 72.390625 22.140625 C 72.597656 22.082031 72.8125 22.101562 73.964844 22.289062 C 76.476562 22.6875 77.339844 22.820312 78.898438 23.050781 C 80.460938 23.28125 80.867188 23.371094 80.949219 23.5 C 81.179688 23.851562 80.335938 25.019531 79.609375 25.371094 C 79.3125 25.515625 78.9375 25.554688 78.515625 25.484375 Z M 78.515625 25.484375 "
    />
    <path
      d="M 79.878906 22.71875 C 78.585938 22.578125 72.277344 21.566406 72.191406 21.480469 C 72.167969 21.457031 72.050781 21.105469 71.925781 20.691406 C 71.628906 19.6875 71.535156 19.433594 71.238281 18.820312 C 70.851562 18.023438 70.273438 17.167969 69.742188 16.617188 C 69.53125 16.394531 69.535156 16.300781 69.753906 16.300781 C 70 16.300781 72.402344 16.84375 74.40625 17.34375 C 74.671875 17.414062 75.675781 17.660156 76.632812 17.894531 C 79.007812 18.472656 79.160156 18.523438 79.570312 18.835938 C 79.945312 19.117188 80.472656 19.960938 80.707031 20.648438 C 80.96875 21.429688 81.144531 22.472656 81.046875 22.660156 C 81.003906 22.742188 80.976562 22.746094 80.511719 22.738281 C 80.242188 22.738281 79.957031 22.726562 79.878906 22.71875 Z M 97.402344 21.414062 C 97.15625 21.308594 97.085938 21.082031 97.246094 20.882812 C 97.378906 20.707031 97.597656 20.664062 97.886719 20.753906 C 98.011719 20.792969 98.160156 20.871094 98.210938 20.921875 C 98.296875 21.011719 98.296875 21.019531 98.234375 21.15625 C 98.199219 21.230469 98.113281 21.320312 98.042969 21.355469 C 97.886719 21.441406 97.535156 21.46875 97.402344 21.414062 Z M 32.855469 18.984375 C 32.59375 18.75 32.523438 18.53125 32.496094 17.914062 C 32.445312 16.882812 32.765625 15.289062 33.289062 13.960938 C 33.398438 13.679688 33.664062 13.085938 33.886719 12.644531 L 34.277344 11.839844 L 34.535156 11.816406 C 34.675781 11.804688 35.25 11.773438 35.8125 11.75 C 36.742188 11.710938 37.292969 11.660156 37.382812 11.605469 C 37.519531 11.519531 37.210938 11.300781 36.777344 11.179688 C 36.632812 11.136719 36.332031 11.09375 36.113281 11.082031 C 35.539062 11.046875 35.167969 10.949219 35.167969 10.832031 C 35.167969 10.769531 35.359375 10.523438 35.652344 10.203125 L 35.832031 10.011719 L 37.640625 10.039062 C 39.359375 10.066406 40.105469 10.050781 40.222656 9.980469 C 40.363281 9.890625 39.914062 9.550781 39.40625 9.367188 C 39.128906 9.265625 38.992188 9.242188 38.457031 9.210938 C 37.902344 9.175781 36.855469 9.0625 36.820312 9.03125 C 36.816406 9.027344 37.007812 8.875 37.246094 8.699219 C 37.945312 8.171875 38.859375 7.769531 39.976562 7.496094 C 40.542969 7.359375 40.542969 7.359375 40.4375 7.171875 C 40.332031 6.976562 40.359375 6.902344 40.597656 6.699219 C 40.847656 6.496094 40.859375 6.421875 40.6875 6.078125 C 40.519531 5.746094 40.507812 5.613281 40.625 5.542969 C 40.730469 5.492188 41 5.519531 41.09375 5.597656 C 41.128906 5.625 41.191406 5.730469 41.242188 5.828125 C 41.308594 5.988281 41.320312 6.074219 41.308594 6.453125 C 41.300781 6.699219 41.292969 6.980469 41.289062 7.085938 C 41.28125 7.453125 41.429688 7.550781 42.40625 7.792969 C 43.554688 8.074219 43.917969 8.082031 44.265625 7.832031 C 44.507812 7.65625 44.851562 7.453125 45.714844 6.996094 C 46.101562 6.792969 46.421875 6.625 46.425781 6.621094 C 46.433594 6.617188 46.539062 6.113281 46.65625 5.503906 C 46.78125 4.894531 46.898438 4.382812 46.917969 4.363281 C 46.9375 4.34375 46.96875 4.394531 46.996094 4.484375 C 47.058594 4.722656 47.160156 5.558594 47.160156 5.84375 C 47.160156 6.335938 47.246094 6.464844 47.71875 6.675781 C 48.097656 6.84375 48.449219 7.066406 48.738281 7.308594 C 49.394531 7.863281 49.585938 7.953125 49.675781 7.746094 C 49.855469 7.351562 50.03125 5.640625 50.125 3.394531 C 50.242188 0.609375 50.300781 -0.0390625 50.417969 0 C 50.546875 0.0429688 50.589844 0.777344 50.6875 4.761719 C 50.734375 6.664062 50.800781 8.125 50.847656 8.328125 C 50.863281 8.402344 50.929688 8.644531 50.984375 8.867188 C 51.097656 9.292969 51.117188 9.570312 51.039062 9.648438 C 50.976562 9.710938 50.832031 9.707031 50.480469 9.636719 C 50.121094 9.558594 50.042969 9.484375 49.949219 9.140625 C 49.914062 9 49.816406 8.78125 49.734375 8.65625 L 49.585938 8.429688 L 49.5625 8.734375 C 49.535156 9.027344 49.480469 9.203125 49.390625 9.261719 C 49.308594 9.316406 49.027344 9.292969 48.761719 9.210938 C 47.921875 8.949219 45.136719 8.328125 44.785156 8.328125 C 44.605469 8.328125 44.652344 8.417969 44.972656 8.714844 C 45.636719 9.304688 46.195312 10.464844 46.265625 11.375 C 46.300781 11.894531 46.238281 11.949219 45.316406 12.109375 C 45.0625 12.152344 44.664062 12.246094 44.433594 12.316406 C 43.863281 12.484375 42.664062 12.902344 42.363281 13.039062 C 41.28125 13.527344 39.3125 14.945312 36.929688 16.953125 C 35.652344 18.03125 35.046875 18.480469 34.496094 18.753906 C 34.042969 18.984375 33.496094 19.160156 33.253906 19.160156 C 33.070312 19.160156 33.03125 19.144531 32.855469 18.984375 Z M 35.554688 16.863281 C 35.984375 16.640625 36.210938 16.464844 36.402344 16.214844 C 36.734375 15.777344 36.878906 15.179688 36.84375 14.378906 C 36.824219 13.863281 36.800781 13.804688 36.421875 13.414062 C 36.0625 13.046875 35.953125 12.992188 35.539062 12.96875 C 34.945312 12.933594 34.351562 13.125 34.015625 13.453125 C 33.570312 13.890625 33.253906 14.972656 33.363281 15.679688 C 33.46875 16.324219 33.867188 16.75 34.546875 16.949219 C 34.960938 17.070312 35.183594 17.050781 35.554688 16.863281 Z M 35.554688 16.863281 "
    />
    <path
      d="M 34.910156 16.382812 C 34.984375 16.226562 35.058594 16.046875 35.066406 15.988281 C 35.078125 15.925781 35.101562 15.765625 35.125 15.628906 C 35.15625 15.449219 35.15625 15.300781 35.128906 15.105469 C 35.035156 14.542969 34.8125 14.238281 34.316406 14.03125 L 34.042969 13.914062 L 34.296875 13.753906 C 34.601562 13.554688 35.148438 13.363281 35.394531 13.363281 C 35.632812 13.363281 35.828125 13.464844 36.09375 13.75 C 36.390625 14.0625 36.46875 14.273438 36.445312 14.679688 C 36.386719 15.589844 35.667969 16.515625 34.917969 16.644531 L 34.765625 16.667969 Z M 95.175781 18.414062 C 95.089844 18.070312 95.453125 17.164062 95.773438 16.929688 C 95.933594 16.8125 96.441406 16.789062 96.640625 16.894531 C 96.902344 17.03125 96.902344 17.460938 96.636719 17.796875 C 96.421875 18.070312 95.792969 18.417969 95.347656 18.496094 C 95.214844 18.527344 95.199219 18.519531 95.175781 18.414062 Z M 78.117188 17.753906 C 77.78125 17.679688 74.707031 16.921875 74.265625 16.804688 C 74.144531 16.773438 73.757812 16.683594 73.402344 16.605469 C 72.300781 16.355469 69.765625 15.710938 69.308594 15.5625 C 68.707031 15.363281 68.449219 15.21875 67.75 14.707031 C 66.578125 13.839844 65.914062 13.425781 64.167969 12.472656 C 63.558594 12.136719 63.007812 11.824219 62.9375 11.773438 L 62.816406 11.691406 L 62.9375 11.679688 C 63.121094 11.664062 64.261719 11.894531 66.867188 12.496094 C 67.308594 12.597656 68.074219 12.769531 68.574219 12.878906 C 70.261719 13.257812 70.558594 13.328125 71.238281 13.550781 C 72.253906 13.882812 73.597656 14.4375 74.90625 15.066406 C 75.550781 15.371094 76.1875 15.632812 76.21875 15.601562 C 76.261719 15.558594 76.109375 15.429688 75.71875 15.164062 C 74.125 14.097656 72.21875 13.261719 70.296875 12.777344 C 69.472656 12.574219 69.230469 12.488281 69.136719 12.371094 C 69.003906 12.207031 69.097656 12.074219 69.550781 11.753906 C 70.328125 11.214844 71.132812 10.984375 72.234375 10.984375 C 73.257812 10.984375 74.332031 11.273438 75.34375 11.8125 C 76.71875 12.546875 77.886719 13.769531 78.261719 14.855469 C 78.40625 15.285156 78.464844 15.707031 78.496094 16.464844 C 78.527344 17.21875 78.570312 17.453125 78.683594 17.578125 C 78.730469 17.625 78.757812 17.695312 78.75 17.742188 C 78.730469 17.839844 78.535156 17.84375 78.117188 17.753906 Z M 80.421875 14.5625 C 80.285156 14.457031 80.121094 14.109375 80.121094 13.933594 C 80.121094 13.820312 80.140625 13.792969 80.261719 13.742188 C 80.335938 13.710938 80.488281 13.683594 80.597656 13.683594 C 80.765625 13.683594 80.824219 13.703125 80.9375 13.804688 C 81.164062 14.007812 81.179688 14.339844 80.976562 14.546875 C 80.839844 14.683594 80.582031 14.691406 80.421875 14.5625 Z M 60.011719 14.300781 C 59.613281 14.242188 58.441406 13.996094 58.234375 13.921875 C 57.859375 13.792969 57.777344 13.691406 57.652344 13.171875 C 57.578125 12.867188 57.480469 12.609375 57.324219 12.300781 C 57.203125 12.066406 57.105469 11.859375 57.105469 11.851562 C 57.105469 11.792969 57.726562 11.921875 58.707031 12.183594 C 59.964844 12.511719 60.539062 12.996094 60.671875 13.820312 C 60.703125 14.03125 60.703125 14.113281 60.664062 14.199219 C 60.617188 14.300781 60.59375 14.308594 60.371094 14.3125 C 60.238281 14.316406 60.078125 14.308594 60.011719 14.300781 Z M 56.601562 13.558594 C 55.242188 13.304688 49.125 12.089844 49.105469 12.066406 C 49.097656 12.058594 49.070312 11.878906 49.046875 11.667969 C 48.980469 11.058594 48.828125 10.535156 48.582031 10.050781 C 48.457031 9.800781 48.386719 9.617188 48.414062 9.617188 C 48.597656 9.617188 49.339844 9.777344 50.265625 10.015625 C 51.527344 10.335938 53.738281 10.910156 54.71875 11.164062 C 55.378906 11.335938 55.992188 11.558594 56.246094 11.714844 C 56.570312 11.910156 57 12.492188 57.140625 12.910156 C 57.238281 13.203125 57.25 13.394531 57.160156 13.515625 C 57.09375 13.613281 56.960938 13.625 56.601562 13.558594 Z M 47.660156 11.949219 C 46.917969 11.828125 46.90625 11.820312 46.761719 11.339844 C 46.410156 10.164062 46.125 9.464844 45.851562 9.105469 C 45.800781 9.035156 45.75 8.933594 45.746094 8.882812 C 45.734375 8.796875 45.746094 8.789062 45.917969 8.796875 C 46.28125 8.808594 47.492188 9.398438 47.816406 9.714844 C 48.132812 10.027344 48.546875 10.996094 48.589844 11.542969 C 48.609375 11.78125 48.601562 11.820312 48.523438 11.890625 C 48.421875 11.984375 48.042969 12.007812 47.660156 11.949219 Z M 47.660156 11.949219 "
    />
    <path
      d="M 66.929688 11.964844 C 66.652344 11.914062 62.730469 11.074219 61.875 10.875 C 60.316406 10.523438 59.875 10.351562 59.984375 10.152344 C 60.007812 10.109375 60.160156 10.003906 60.320312 9.917969 C 60.703125 9.714844 60.933594 9.527344 61.09375 9.277344 C 61.332031 8.90625 61.804688 8.507812 62.296875 8.253906 C 62.597656 8.105469 62.660156 8.03125 62.714844 7.796875 C 62.78125 7.5 62.875 5.710938 62.898438 4.199219 C 62.929688 2.519531 62.980469 1.933594 63.101562 2.050781 C 63.191406 2.144531 63.304688 3.742188 63.398438 6.414062 C 63.421875 7.035156 63.453125 7.710938 63.464844 7.917969 L 63.488281 8.289062 L 63.796875 8.507812 C 64.167969 8.769531 64.617188 9.234375 64.996094 9.746094 C 65.425781 10.328125 65.65625 10.5625 66.027344 10.78125 C 66.640625 11.144531 67.4375 11.808594 67.398438 11.925781 C 67.382812 11.972656 67.113281 11.996094 66.929688 11.964844 Z M 58.066406 11.535156 C 57.679688 11.4375 56.757812 11.210938 56.019531 11.027344 C 54.492188 10.652344 52.9375 10.25 52.230469 10.042969 C 51.683594 9.882812 51.589844 9.808594 51.550781 9.507812 C 51.511719 9.21875 51.457031 9.066406 51.304688 8.84375 C 51.132812 8.585938 51.136719 8.472656 51.320312 8.457031 C 51.511719 8.4375 52.242188 8.597656 53.796875 8.992188 C 55.992188 9.550781 56.625 9.675781 56.769531 9.582031 C 56.886719 9.507812 56.945312 9.257812 57.144531 7.839844 C 57.371094 6.25 57.492188 5.796875 57.640625 6.003906 C 57.710938 6.097656 57.730469 6.308594 57.824219 8.046875 C 57.871094 8.855469 57.925781 9.613281 57.945312 9.734375 C 57.992188 9.988281 58.058594 10.074219 58.289062 10.175781 C 58.621094 10.324219 59.214844 11.035156 59.3125 11.394531 C 59.414062 11.773438 59.152344 11.804688 58.066406 11.535156 Z M 69.828125 9.992188 C 69.753906 9.960938 69.761719 9.636719 69.835938 9.496094 C 69.9375 9.296875 70.421875 9.101562 70.671875 9.148438 C 70.855469 9.183594 71.058594 9.390625 71.058594 9.535156 C 71.058594 9.695312 70.941406 9.765625 70.488281 9.878906 C 70.03125 9.992188 69.890625 10.015625 69.828125 9.992188 Z M 81.082031 9.0625 C 80.96875 9.019531 80.882812 8.917969 80.882812 8.816406 C 80.882812 8.625 81.320312 8.058594 81.585938 7.898438 C 81.859375 7.738281 82.515625 7.71875 82.667969 7.867188 C 82.902344 8.105469 82.402344 8.929688 81.949219 9.046875 C 81.765625 9.09375 81.191406 9.105469 81.082031 9.0625 Z M 73.753906 8.765625 C 73.613281 8.699219 73.386719 8.535156 73.25 8.40625 L 73.003906 8.175781 L 73.007812 7.875 C 73.007812 7.640625 73.03125 7.535156 73.109375 7.375 L 73.203125 7.179688 L 73.4375 7.167969 C 73.6875 7.15625 74.28125 7.25 74.5 7.34375 L 74.640625 7.402344 L 74.617188 7.667969 C 74.582031 8.003906 74.445312 8.503906 74.335938 8.710938 C 74.21875 8.917969 74.089844 8.929688 73.753906 8.765625 Z M 86.164062 5.066406 C 85.898438 4.984375 85.871094 4.851562 86.070312 4.632812 C 86.195312 4.496094 86.226562 4.484375 86.460938 4.46875 C 86.679688 4.457031 86.738281 4.46875 86.859375 4.550781 C 87.070312 4.695312 87.074219 4.9375 86.871094 5.015625 C 86.710938 5.078125 86.296875 5.105469 86.164062 5.066406 Z M 86.164062 5.066406 "
    />
  </g>
</svg>
