<svg xmlns="http://www.w3.org/2000/svg" id="root" viewBox="0 0 101 40">
  <g>
    <path
      d="M 65.144531 39.84375 C 64.757812 39.539062 64.492188 39.207031 64.261719 38.730469 C 64.046875 38.289062 64.007812 38.175781 64.074219 38.175781 C 64.125 38.175781 64.246094 38.328125 64.488281 38.679688 C 64.769531 39.089844 65.027344 39.347656 65.324219 39.503906 C 65.613281 39.660156 65.820312 39.714844 66.304688 39.773438 L 66.691406 39.820312 L 66.519531 39.910156 C 66.371094 39.988281 66.285156 40 65.84375 40 L 65.34375 40 Z M 65.144531 39.84375 "
    />
    <path
      d="M 64.101562 39.832031 C 63.519531 39.734375 62.910156 39.414062 62.605469 39.046875 C 62.226562 38.582031 62.003906 38.074219 61.652344 36.890625 C 61.511719 36.429688 61.378906 36.007812 61.351562 35.949219 C 61.324219 35.894531 61.15625 35.695312 60.984375 35.503906 C 60.429688 34.894531 60.359375 34.617188 60.5625 33.824219 C 60.714844 33.21875 60.710938 32.949219 60.546875 32.386719 C 60.277344 31.488281 60.398438 31.0625 61.15625 30.234375 C 61.527344 29.832031 61.550781 29.78125 61.960938 28.601562 C 62.109375 28.179688 62.300781 27.691406 62.390625 27.519531 C 62.675781 26.980469 63.140625 26.632812 63.78125 26.496094 C 64.125 26.425781 64.726562 26.371094 64.726562 26.414062 C 64.726562 26.4375 64.59375 26.664062 64.429688 26.921875 C 63.425781 28.5 62.996094 29.695312 62.820312 31.375 C 62.738281 32.175781 62.75 34.59375 62.839844 35.179688 C 63.085938 36.75 63.523438 37.960938 64.332031 39.324219 C 64.492188 39.59375 64.636719 39.828125 64.640625 39.847656 C 64.660156 39.886719 64.367188 39.878906 64.101562 39.832031 Z M 64.101562 39.832031 "
    />
    <path
      d="M 65.398438 39.265625 C 65.117188 39.074219 64.34375 38.0625 64.421875 37.984375 C 64.4375 37.964844 64.9375 37.941406 65.539062 37.925781 C 67.332031 37.882812 68.199219 37.789062 69.730469 37.46875 C 71.292969 37.140625 71.523438 37.070312 72.453125 36.636719 C 72.796875 36.476562 73.144531 36.324219 73.230469 36.292969 L 73.375 36.242188 L 73.609375 36.558594 C 73.734375 36.730469 73.875 36.929688 73.917969 37 L 73.996094 37.121094 L 73.726562 37.375 C 73.382812 37.703125 73.109375 37.886719 72.554688 38.15625 C 71.753906 38.546875 70.839844 38.839844 69.726562 39.070312 C 68.609375 39.296875 68.085938 39.355469 66.789062 39.378906 L 65.597656 39.398438 Z M 74.148438 37.660156 C 74.226562 37.503906 74.558594 37.246094 74.871094 37.089844 C 75.203125 36.921875 75.402344 36.734375 75.59375 36.40625 C 75.652344 36.3125 75.699219 36.234375 75.707031 36.234375 C 75.714844 36.234375 75.90625 36.214844 76.136719 36.1875 C 76.894531 36.117188 77.296875 36.003906 78.578125 35.523438 C 79.359375 35.234375 80.011719 35.027344 80.027344 35.066406 C 80.03125 35.074219 80.105469 35.21875 80.1875 35.386719 C 80.355469 35.726562 80.351562 35.796875 80.171875 36.023438 C 79.65625 36.6875 77.496094 37.328125 75.035156 37.546875 C 74.636719 37.582031 74.359375 37.625 74.28125 37.667969 C 74.117188 37.746094 74.097656 37.746094 74.148438 37.660156 Z M 74.148438 37.660156 "
    />
    <path
      d="M 64.019531 37.402344 C 64.007812 37.351562 63.898438 36.761719 63.773438 36.09375 C 63.300781 33.523438 63.304688 33.550781 63.417969 33.503906 C 63.453125 33.492188 63.757812 33.480469 64.09375 33.480469 L 64.707031 33.480469 L 64.507812 33.578125 L 64.304688 33.675781 L 68.574219 33.652344 C 72.75 33.628906 72.847656 33.628906 72.867188 33.707031 C 72.917969 33.871094 73.109375 35.46875 73.082031 35.523438 C 73.035156 35.660156 71.367188 36.429688 70.421875 36.75 C 69.035156 37.234375 67.753906 37.40625 65.183594 37.472656 L 64.046875 37.5 Z M 74.539062 36.714844 C 74.011719 36.300781 73.707031 35.019531 73.707031 33.242188 C 73.707031 32.179688 73.765625 31.660156 73.964844 31.03125 C 74.128906 30.507812 74.472656 30 74.625 30.054688 C 74.65625 30.066406 74.816406 30.183594 74.980469 30.3125 C 75.328125 30.578125 75.335938 30.683594 74.996094 30.523438 C 74.808594 30.4375 74.78125 30.433594 74.6875 30.484375 C 74.632812 30.515625 74.558594 30.582031 74.53125 30.628906 C 74.480469 30.703125 74.488281 30.734375 74.574219 30.894531 C 75.027344 31.691406 75.144531 32.082031 75.210938 33.027344 C 75.261719 33.746094 75.21875 34.5 75.097656 34.957031 C 75.023438 35.246094 74.816406 35.683594 74.621094 35.984375 C 74.539062 36.105469 74.472656 36.210938 74.472656 36.21875 C 74.472656 36.230469 74.558594 36.273438 74.664062 36.324219 C 74.8125 36.386719 74.898438 36.398438 75.089844 36.378906 L 75.328125 36.355469 L 75.234375 36.523438 C 75.183594 36.617188 75.097656 36.71875 75.039062 36.746094 C 74.886719 36.824219 74.660156 36.8125 74.539062 36.714844 Z M 74.128906 33.644531 C 74.105469 33.527344 74.109375 33.519531 74.226562 33.519531 C 74.324219 33.519531 74.351562 33.539062 74.351562 33.601562 C 74.351562 33.707031 74.425781 33.703125 74.542969 33.59375 C 74.621094 33.519531 74.636719 33.464844 74.636719 33.277344 C 74.636719 33.015625 74.566406 32.898438 74.324219 32.746094 L 74.179688 32.65625 L 74.039062 32.816406 C 73.824219 33.0625 73.773438 33.179688 73.808594 33.382812 C 73.824219 33.507812 73.867188 33.585938 73.953125 33.664062 C 74.113281 33.796875 74.164062 33.792969 74.128906 33.644531 Z M 24.957031 36.675781 C 24.300781 36.628906 23.871094 36.453125 23.332031 35.996094 C 22.828125 35.570312 22.4375 34.960938 22.191406 34.21875 C 21.992188 33.617188 21.933594 33.226562 21.914062 32.285156 C 21.886719 31.035156 21.980469 30.574219 22.484375 29.535156 C 22.988281 28.488281 23.71875 27.5625 24.355469 27.148438 C 24.585938 27 24.699219 26.953125 24.921875 26.921875 C 25.296875 26.871094 26.183594 26.871094 26.503906 26.925781 C 26.753906 26.96875 26.761719 26.976562 26.742188 27.082031 C 26.730469 27.144531 26.675781 27.292969 26.617188 27.421875 L 26.519531 27.648438 L 26.300781 27.585938 C 25.882812 27.476562 25.476562 27.539062 24.96875 27.792969 C 24.609375 27.976562 24.304688 28.210938 23.945312 28.585938 C 23.59375 28.953125 23.402344 29.214844 23.222656 29.578125 C 23.074219 29.871094 22.9375 30.28125 22.984375 30.28125 C 23.003906 30.28125 23.191406 30.046875 23.40625 29.765625 C 24.261719 28.632812 24.761719 28.339844 25.808594 28.339844 L 26.140625 28.339844 L 26.105469 28.503906 C 26.019531 28.875 25.863281 29.054688 25.105469 29.628906 C 24.113281 30.386719 23.84375 30.867188 23.84375 31.882812 C 23.84375 32.265625 23.859375 32.371094 23.960938 32.664062 C 24.132812 33.160156 24.304688 33.414062 24.773438 33.890625 C 25.113281 34.234375 25.257812 34.347656 25.5 34.464844 C 25.910156 34.667969 26.222656 34.71875 26.527344 34.644531 C 26.734375 34.585938 26.753906 34.585938 26.707031 34.644531 C 26.617188 34.746094 26.179688 35.015625 25.945312 35.105469 C 25.804688 35.160156 25.585938 35.195312 25.355469 35.210938 C 24.882812 35.238281 24.554688 35.144531 24.121094 34.859375 C 23.71875 34.59375 23.472656 34.316406 23.183594 33.800781 C 23.054688 33.570312 22.914062 33.335938 22.871094 33.277344 L 22.792969 33.175781 L 22.792969 33.320312 C 22.792969 33.660156 23.0625 34.347656 23.367188 34.78125 C 23.800781 35.394531 24.355469 35.84375 24.847656 35.96875 C 25.132812 36.046875 25.730469 36.046875 26.117188 35.972656 C 26.71875 35.855469 27.0625 35.644531 27.796875 34.921875 C 28.328125 34.402344 28.585938 34.210938 28.75 34.210938 C 28.835938 34.210938 28.824219 34.261719 28.65625 34.636719 C 28.445312 35.109375 27.898438 35.734375 27.40625 36.066406 C 26.65625 36.578125 25.976562 36.746094 24.957031 36.675781 Z M 24.957031 36.675781 "
    />
    <path
      d="M 22.894531 36.195312 C 22.757812 36.113281 22.269531 35.808594 21.804688 35.519531 L 20.960938 35 L 21.351562 34.988281 C 21.640625 34.980469 21.742188 34.960938 21.734375 34.925781 C 21.710938 34.855469 21.277344 34.652344 20.734375 34.449219 C 20.09375 34.21875 19.902344 34.109375 19.710938 33.871094 C 19.527344 33.636719 19.238281 33.058594 19.121094 32.691406 C 19.011719 32.347656 18.933594 32.027344 18.953125 32.007812 C 18.960938 32 19.34375 32.015625 19.800781 32.042969 C 20.371094 32.078125 20.65625 32.078125 20.71875 32.050781 C 20.851562 31.992188 21.011719 31.644531 21.011719 31.40625 C 21.011719 31.253906 20.996094 31.207031 20.917969 31.15625 C 20.761719 31.050781 20.320312 30.96875 19.726562 30.945312 C 19.34375 30.925781 19.140625 30.902344 19.128906 30.871094 C 19.117188 30.84375 19.15625 30.675781 19.214844 30.492188 C 19.40625 29.886719 19.816406 29.570312 20.851562 29.238281 C 21.742188 28.953125 21.722656 28.964844 22.15625 28.378906 C 22.550781 27.851562 22.828125 27.597656 23.214844 27.40625 C 23.554688 27.238281 23.761719 27.171875 23.761719 27.230469 C 23.761719 27.25 23.480469 27.621094 23.132812 28.054688 C 22.25 29.164062 21.933594 29.699219 21.734375 30.445312 C 21.644531 30.773438 21.640625 30.847656 21.640625 32.105469 C 21.644531 33.402344 21.644531 33.425781 21.753906 33.824219 C 21.933594 34.5 22.183594 34.945312 23.050781 36.144531 C 23.136719 36.257812 23.1875 36.355469 23.167969 36.355469 C 23.152344 36.355469 23.027344 36.28125 22.894531 36.195312 Z M 80.542969 36.152344 C 80.644531 36.03125 80.773438 35.9375 81.027344 35.820312 C 81.390625 35.648438 81.632812 35.457031 81.632812 35.335938 C 81.632812 35.195312 81.796875 35.105469 82.253906 35 C 82.902344 34.839844 83.261719 34.722656 84.027344 34.40625 C 84.398438 34.253906 84.734375 34.128906 84.777344 34.128906 C 84.832031 34.128906 84.890625 34.214844 84.992188 34.414062 L 85.128906 34.703125 L 84.871094 34.941406 C 84.179688 35.582031 82.363281 36.183594 80.789062 36.296875 L 80.40625 36.324219 Z M 75.929688 35.832031 C 75.898438 35.769531 75.910156 35.566406 75.992188 34.96875 C 76.066406 34.390625 76.09375 34.015625 76.09375 33.472656 L 76.09375 32.75 L 77.207031 32.75 C 78.238281 32.75 78.335938 32.757812 78.453125 32.828125 C 78.632812 32.9375 79.035156 33.035156 79.316406 33.035156 L 79.554688 33.035156 L 79.648438 33.632812 C 79.695312 33.960938 79.746094 34.285156 79.757812 34.355469 C 79.785156 34.5 80.03125 34.390625 77.710938 35.261719 C 76.832031 35.59375 76.078125 35.875 76.042969 35.890625 C 76 35.90625 75.960938 35.890625 75.929688 35.832031 Z M 25.277344 35.722656 C 25.234375 35.710938 25.109375 35.671875 24.996094 35.632812 L 24.792969 35.570312 L 25.257812 35.519531 C 25.886719 35.457031 26.21875 35.335938 26.652344 35.011719 C 27.386719 34.46875 27.472656 34.410156 27.722656 34.3125 C 27.863281 34.253906 27.988281 34.214844 28 34.226562 C 28.027344 34.257812 27.832031 34.511719 27.527344 34.832031 C 27 35.382812 26.359375 35.695312 25.683594 35.726562 C 25.503906 35.734375 25.324219 35.734375 25.277344 35.722656 Z M 34.601562 35.691406 C 34.5 35.664062 34.355469 35.605469 34.277344 35.566406 C 34.082031 35.464844 33.695312 35.089844 33.484375 34.789062 C 33.320312 34.558594 33.0625 34.058594 33.0625 33.964844 C 33.0625 33.941406 33.179688 33.925781 33.34375 33.925781 L 33.625 33.925781 L 33.804688 34.160156 C 34.042969 34.464844 34.585938 34.988281 34.757812 35.074219 C 34.871094 35.136719 34.984375 35.144531 35.507812 35.132812 C 36.015625 35.121094 36.152344 35.101562 36.34375 35.027344 C 36.652344 34.90625 36.984375 34.59375 37.40625 34.035156 C 37.757812 33.566406 38.082031 33.230469 38.105469 33.304688 C 38.113281 33.332031 38.054688 33.515625 37.972656 33.722656 C 37.574219 34.726562 36.761719 35.515625 35.945312 35.6875 C 35.617188 35.761719 34.851562 35.761719 34.601562 35.691406 Z M 32.78125 35.054688 C 31.429688 34.328125 31.277344 34.242188 31.296875 34.226562 C 31.304688 34.21875 31.441406 34.234375 31.605469 34.269531 C 32.019531 34.355469 32.214844 34.351562 32.214844 34.253906 C 32.214844 34.046875 32.035156 33.925781 31.628906 33.847656 C 31.5 33.824219 31.375 33.789062 31.355469 33.773438 C 31.335938 33.75 31.617188 33.707031 31.976562 33.667969 C 32.332031 33.625 32.632812 33.601562 32.636719 33.609375 C 32.644531 33.613281 32.667969 33.730469 32.695312 33.867188 C 32.765625 34.230469 32.933594 34.550781 33.289062 35 C 33.648438 35.453125 33.691406 35.503906 33.640625 35.5 C 33.625 35.5 33.238281 35.296875 32.78125 35.054688 Z M 80.964844 35.375 C 80.746094 35.207031 80.519531 34.550781 80.398438 33.730469 C 80.367188 33.515625 80.339844 33.25 80.339844 33.140625 C 80.339844 32.980469 80.351562 32.949219 80.402344 32.96875 C 80.621094 33.054688 80.664062 33.046875 80.824219 32.890625 C 81.058594 32.660156 81.046875 32.40625 80.792969 32.136719 C 80.671875 32.007812 80.609375 32 80.398438 32.089844 C 80.316406 32.121094 80.242188 32.140625 80.230469 32.132812 C 80.207031 32.109375 80.617188 29.988281 80.660156 29.921875 C 80.6875 29.878906 80.738281 29.878906 80.925781 29.921875 C 81.132812 29.964844 81.148438 29.980469 81.082031 30.027344 C 81.046875 30.054688 80.953125 30.09375 80.875 30.105469 C 80.777344 30.125 80.742188 30.148438 80.742188 30.210938 C 80.742188 30.253906 80.832031 30.570312 80.941406 30.910156 C 81.214844 31.757812 81.269531 32.0625 81.269531 32.832031 C 81.269531 33.734375 81.175781 34.1875 80.839844 34.921875 C 80.828125 34.949219 80.933594 35.023438 81.082031 35.09375 C 81.339844 35.214844 81.402344 35.289062 81.300781 35.375 C 81.183594 35.464844 81.078125 35.464844 80.964844 35.375 Z M 85.070312 35.304688 C 85.070312 35.246094 85.347656 35.03125 85.613281 34.894531 C 85.980469 34.699219 86.085938 34.617188 86.144531 34.46875 C 86.179688 34.390625 86.257812 34.300781 86.328125 34.265625 C 86.546875 34.15625 88.394531 33.472656 88.503906 33.46875 C 88.578125 33.460938 88.625 33.496094 88.699219 33.621094 C 88.746094 33.710938 88.789062 33.796875 88.789062 33.8125 C 88.789062 33.875 88.371094 34.289062 88.191406 34.402344 C 87.761719 34.683594 87.050781 34.910156 85.667969 35.21875 C 85.035156 35.359375 85.070312 35.355469 85.070312 35.304688 Z M 53.222656 35.203125 C 53.058594 35.117188 52.945312 34.941406 52.773438 34.488281 C 52.605469 34.050781 52.492188 33.914062 51.914062 33.449219 C 51.21875 32.890625 50.089844 31.878906 50.089844 31.8125 C 50.089844 31.792969 50.3125 31.785156 50.585938 31.789062 C 51.109375 31.800781 51.089844 31.792969 51.03125 31.988281 C 51.015625 32.039062 51.0625 32.054688 51.296875 32.078125 C 51.691406 32.117188 52.179688 32.277344 52.46875 32.46875 C 52.597656 32.558594 52.832031 32.765625 52.984375 32.925781 L 53.265625 33.226562 L 53.570312 33.269531 C 53.742188 33.292969 54.023438 33.363281 54.199219 33.421875 C 54.613281 33.550781 54.859375 33.554688 55.007812 33.429688 C 55.101562 33.347656 55.121094 33.289062 55.136719 33.09375 L 55.152344 32.851562 L 54.628906 32.558594 C 53.773438 32.066406 53.546875 31.9375 53.511719 31.902344 C 53.46875 31.859375 53.859375 31.828125 54.773438 31.804688 L 55.472656 31.78125 L 55.742188 32.035156 C 55.890625 32.175781 56.152344 32.382812 56.316406 32.496094 C 56.929688 32.910156 57.160156 32.984375 57.648438 32.917969 C 58.039062 32.867188 58.277344 32.75 58.699219 32.421875 C 59.058594 32.132812 59.246094 32.039062 59.554688 32.003906 L 59.78125 31.972656 L 59.894531 32.316406 C 60.054688 32.789062 60.09375 33.746094 59.964844 33.957031 C 59.945312 33.988281 59.734375 34.03125 59.433594 34.0625 L 58.9375 34.125 L 58.597656 34.449219 L 58.257812 34.777344 L 57.871094 34.777344 C 57.519531 34.777344 57.480469 34.769531 57.460938 34.695312 C 57.441406 34.617188 57.40625 34.613281 56.152344 34.613281 L 54.863281 34.613281 L 54.804688 34.726562 C 54.71875 34.882812 54.515625 35.089844 54.363281 35.167969 C 54.175781 35.265625 53.394531 35.289062 53.222656 35.203125 Z M 42.769531 34.917969 C 42.542969 34.84375 42.183594 34.535156 41.945312 34.195312 C 41.730469 33.894531 41.640625 33.714844 41.5 33.332031 L 41.394531 33.035156 L 41.699219 33.035156 C 41.992188 33.035156 42 33.039062 42 33.136719 C 42 33.402344 42.359375 33.988281 42.671875 34.226562 C 42.949219 34.4375 43.207031 34.507812 43.574219 34.476562 C 43.742188 34.464844 43.949219 34.433594 44.03125 34.410156 C 44.28125 34.339844 44.558594 34.125 44.820312 33.785156 C 44.960938 33.605469 45.160156 33.371094 45.261719 33.257812 L 45.441406 33.054688 L 45.417969 33.21875 C 45.40625 33.304688 45.320312 33.535156 45.226562 33.71875 C 44.921875 34.359375 44.289062 34.847656 43.660156 34.9375 C 43.300781 34.992188 42.984375 34.984375 42.769531 34.917969 Z M 41.652344 34.679688 C 41.128906 34.3125 41.019531 34.253906 40.496094 34.074219 C 40 33.902344 39.394531 33.601562 39.480469 33.574219 C 39.507812 33.566406 39.730469 33.59375 39.984375 33.636719 C 40.234375 33.6875 40.441406 33.71875 40.449219 33.710938 C 40.488281 33.664062 40.625 33.347656 40.613281 33.335938 C 40.605469 33.328125 40.441406 33.296875 40.246094 33.269531 C 40.054688 33.246094 39.898438 33.214844 39.898438 33.195312 C 39.898438 33.15625 41.003906 33.03125 41.035156 33.066406 C 41.089844 33.128906 42 34.871094 41.984375 34.886719 C 41.976562 34.894531 41.828125 34.800781 41.652344 34.679688 Z M 81.976562 34.613281 C 81.960938 34.589844 81.980469 34.222656 82.015625 33.792969 C 82.058594 33.359375 82.078125 32.871094 82.066406 32.683594 L 82.039062 32.347656 L 83.082031 32.347656 C 83.648438 32.347656 84.210938 32.359375 84.324219 32.371094 L 84.53125 32.394531 L 84.585938 32.890625 C 84.613281 33.15625 84.636719 33.414062 84.640625 33.460938 C 84.644531 33.523438 84.4375 33.625 83.351562 34.097656 C 82.640625 34.398438 82.042969 34.65625 82.027344 34.65625 C 82.011719 34.65625 81.988281 34.632812 81.976562 34.613281 Z M 81.976562 34.613281 "
    />
    <path
      d="M 34.621094 34.324219 C 34.347656 34.222656 33.953125 33.921875 33.953125 33.8125 C 33.953125 33.78125 34.023438 33.679688 34.105469 33.585938 C 34.238281 33.449219 34.269531 33.375 34.289062 33.203125 C 34.304688 33.078125 34.320312 32.980469 34.328125 32.96875 C 34.382812 32.917969 34.691406 33.101562 34.957031 33.34375 C 35.347656 33.703125 35.410156 33.738281 35.773438 33.867188 C 36.058594 33.960938 36.175781 34.027344 36.175781 34.089844 C 36.175781 34.105469 36.035156 34.175781 35.867188 34.246094 C 35.582031 34.359375 35.511719 34.371094 35.148438 34.367188 C 34.925781 34.367188 34.691406 34.347656 34.621094 34.324219 Z M 25.90625 34.292969 C 25.585938 34.265625 25.503906 34.210938 24.914062 33.597656 C 24.402344 33.0625 24.269531 32.867188 24.183594 32.480469 C 24.046875 31.867188 24.160156 31.148438 24.472656 30.660156 C 24.738281 30.25 25.722656 29.359375 25.816406 29.453125 C 25.832031 29.464844 25.710938 30.003906 25.550781 30.644531 C 25.21875 31.941406 25.21875 31.984375 25.414062 32.527344 C 25.558594 32.941406 25.804688 33.296875 26.308594 33.816406 L 26.753906 34.277344 L 26.539062 34.304688 C 26.320312 34.332031 26.320312 34.332031 25.90625 34.292969 Z M 49.402344 34.257812 C 49.054688 34.101562 48.667969 33.550781 48.414062 32.835938 L 48.304688 32.539062 L 48.78125 32.5625 C 49.378906 32.59375 50.421875 32.820312 50.40625 32.914062 C 50.394531 32.945312 50.316406 33.023438 50.222656 33.09375 C 49.992188 33.253906 49.5625 33.285156 49.253906 33.164062 C 49.132812 33.121094 49.039062 33.101562 49.039062 33.121094 C 49.039062 33.21875 49.246094 33.5625 49.371094 33.664062 C 49.589844 33.851562 49.746094 33.894531 50.132812 33.878906 C 50.484375 33.867188 50.484375 33.867188 50.792969 33.652344 C 51.101562 33.4375 51.382812 33.289062 51.382812 33.347656 C 51.378906 33.367188 51.289062 33.5 51.175781 33.65625 C 50.949219 33.960938 50.648438 34.183594 50.371094 34.246094 C 50.171875 34.292969 49.496094 34.296875 49.402344 34.257812 Z M 43.679688 33.984375 C 44.273438 33.679688 44.425781 33.527344 44.425781 33.246094 C 44.425781 33.101562 44.390625 33.082031 43.984375 33.03125 C 43.640625 32.992188 43.496094 32.90625 43.441406 32.71875 C 43.390625 32.546875 43.539062 32.253906 43.757812 32.097656 L 43.921875 31.980469 L 43.957031 32.070312 C 44.175781 32.601562 44.414062 32.898438 44.703125 32.992188 C 44.898438 33.054688 44.902344 33.078125 44.796875 33.332031 C 44.589844 33.8125 44.121094 34.109375 43.4375 34.183594 C 43.234375 34.210938 43.238281 34.210938 43.679688 33.984375 Z M 48.597656 34.144531 C 48.523438 34.113281 48.394531 34.03125 48.316406 33.960938 C 48.140625 33.804688 47.863281 33.679688 47.441406 33.566406 C 46.925781 33.425781 46.570312 33.273438 46.433594 33.148438 L 46.308594 33.03125 L 46.53125 33.054688 C 46.824219 33.089844 47.636719 33.148438 47.652344 33.140625 C 47.65625 33.136719 47.621094 33.054688 47.578125 32.957031 C 47.441406 32.648438 47.457031 32.613281 47.828125 32.570312 L 48.046875 32.542969 L 48.402344 33.359375 C 48.597656 33.808594 48.753906 34.183594 48.746094 34.1875 C 48.738281 34.195312 48.671875 34.175781 48.597656 34.144531 Z M 48.597656 34.144531 "
    />
    <path
      d="M 26.949219 33.964844 C 26.640625 33.910156 26.324219 33.605469 26.128906 33.191406 L 26.027344 32.972656 L 26.363281 32.960938 C 26.542969 32.953125 26.769531 32.960938 26.863281 32.972656 C 27.191406 33.023438 27.527344 33.34375 27.6875 33.761719 C 27.730469 33.871094 27.75 33.964844 27.738281 33.984375 C 27.707031 34.015625 27.140625 34.007812 26.949219 33.964844 Z M 26.949219 33.964844 "
    />
    <path
      d="M 28.414062 33.898438 C 28.230469 33.875 28.15625 33.800781 27.984375 33.496094 C 27.8125 33.183594 27.777344 33.15625 27.273438 32.886719 C 26.867188 32.667969 26.839844 32.660156 26.382812 32.609375 C 26.101562 32.582031 25.882812 32.542969 25.839844 32.503906 C 25.761719 32.4375 25.582031 32.074219 25.582031 31.972656 C 25.582031 31.886719 25.371094 31.886719 28.394531 31.960938 C 34.292969 32.109375 34.722656 32.125 34.722656 32.175781 C 34.722656 32.230469 33.886719 33.257812 33.699219 33.4375 C 33.519531 33.609375 33.507812 33.613281 33.316406 33.589844 C 33.207031 33.578125 33 33.519531 32.863281 33.464844 C 32.554688 33.339844 32.410156 33.335938 31.164062 33.421875 C 29.589844 33.523438 29.644531 33.515625 29.429688 33.671875 C 29.328125 33.742188 29.199219 33.824219 29.140625 33.847656 C 29.023438 33.898438 28.617188 33.925781 28.414062 33.898438 Z M 85.414062 33.757812 C 85.402344 33.660156 85.351562 33.394531 85.308594 33.164062 C 85.199219 32.578125 85.199219 32.578125 85.453125 32.292969 C 85.574219 32.15625 85.675781 32.023438 85.675781 31.996094 C 85.675781 31.964844 85.574219 31.789062 85.453125 31.597656 L 85.230469 31.253906 L 85.230469 30.777344 C 85.230469 30.4375 85.246094 30.273438 85.289062 30.222656 C 85.339844 30.152344 85.347656 30.15625 85.449219 30.304688 C 85.765625 30.789062 85.875 32.109375 85.695312 33.328125 C 85.613281 33.902344 85.609375 33.925781 85.519531 33.925781 C 85.457031 33.925781 85.433594 33.886719 85.414062 33.757812 Z M 42.628906 33.683594 C 42.398438 33.59375 42.097656 33.363281 42.152344 33.320312 C 42.179688 33.289062 42.847656 33.121094 43.152344 33.058594 C 43.246094 33.042969 43.351562 33.074219 43.597656 33.210938 C 43.777344 33.300781 43.921875 33.40625 43.921875 33.441406 C 43.921875 33.472656 43.832031 33.554688 43.722656 33.621094 C 43.546875 33.726562 43.484375 33.742188 43.179688 33.75 C 42.910156 33.761719 42.785156 33.742188 42.628906 33.683594 Z M 35.660156 33.496094 C 35.449219 33.390625 34.679688 32.738281 34.679688 32.664062 C 34.679688 32.582031 35.140625 32.144531 35.265625 32.113281 C 35.332031 32.09375 35.46875 32.089844 35.5625 32.101562 L 35.742188 32.125 L 35.855469 32.480469 C 35.972656 32.847656 36.042969 32.960938 36.355469 33.289062 C 36.457031 33.394531 36.542969 33.5 36.542969 33.515625 C 36.542969 33.570312 36.382812 33.601562 36.113281 33.601562 C 35.929688 33.601562 35.816406 33.574219 35.660156 33.496094 Z M 86.484375 32.75 L 86.484375 31.902344 L 87.394531 31.902344 C 87.898438 31.902344 88.304688 31.914062 88.304688 31.933594 C 88.304688 31.949219 88.332031 32.144531 88.367188 32.367188 C 88.421875 32.765625 88.421875 32.773438 88.332031 32.867188 C 88.144531 33.070312 86.878906 33.601562 86.582031 33.601562 L 86.484375 33.601562 Z M 36.714844 33.234375 C 36.511719 33.105469 36.136719 32.570312 36.136719 32.40625 C 36.136719 32.394531 36.316406 32.386719 36.535156 32.386719 C 36.863281 32.390625 36.96875 32.40625 37.207031 32.5 C 37.519531 32.625 37.917969 32.871094 37.917969 32.933594 C 37.917969 33.003906 37.664062 33.230469 37.539062 33.273438 C 37.339844 33.351562 36.859375 33.328125 36.714844 33.234375 Z M 38.703125 33.203125 C 38.523438 33.15625 38.5 33.136719 38.320312 32.871094 C 38.152344 32.625 38.003906 32.519531 37.691406 32.429688 C 37.476562 32.363281 37.285156 32.191406 37.351562 32.128906 C 37.398438 32.078125 43.226562 32.058594 43.273438 32.113281 C 43.320312 32.152344 42.976562 32.785156 42.859375 32.875 C 42.78125 32.933594 42.695312 32.953125 42.488281 32.953125 C 42.25 32.953125 42.207031 32.941406 42.121094 32.851562 L 42.03125 32.75 L 41.136719 32.75 C 39.925781 32.757812 39.777344 32.777344 39.398438 33.011719 C 39.085938 33.210938 38.910156 33.253906 38.703125 33.203125 Z M 54.023438 33.054688 C 53.429688 32.9375 53.355469 32.914062 53.214844 32.789062 L 52.660156 32.304688 C 52.328125 32.015625 52.28125 31.957031 52.363281 31.949219 C 52.53125 31.921875 52.746094 32.023438 52.988281 32.238281 C 53.222656 32.449219 53.242188 32.457031 53.523438 32.484375 C 53.855469 32.511719 53.988281 32.5625 54.417969 32.808594 C 54.582031 32.90625 54.769531 33 54.832031 33.011719 C 54.90625 33.027344 54.941406 33.0625 54.941406 33.117188 C 54.941406 33.226562 54.832031 33.21875 54.023438 33.054688 Z M 44.832031 32.726562 C 44.582031 32.585938 44.472656 32.476562 44.382812 32.285156 C 44.25 32 44.261719 31.984375 44.621094 31.984375 C 45.03125 31.984375 45.367188 32.046875 45.609375 32.167969 C 45.714844 32.222656 45.800781 32.273438 45.800781 32.28125 C 45.800781 32.3125 45.082031 32.832031 45.046875 32.832031 C 45.03125 32.832031 44.933594 32.785156 44.832031 32.726562 Z M 46.785156 32.589844 C 46.691406 32.550781 46.503906 32.398438 46.363281 32.257812 L 46.113281 32.003906 L 46.894531 31.980469 L 46.894531 31.839844 C 46.894531 31.675781 46.773438 31.683594 48.011719 31.757812 C 48.859375 31.808594 48.914062 31.8125 49.058594 31.914062 C 49.195312 32.007812 49.234375 32.015625 49.5 31.996094 L 49.789062 31.96875 L 49.980469 32.1875 C 50.085938 32.3125 50.152344 32.410156 50.132812 32.421875 C 50.109375 32.429688 49.890625 32.375 49.648438 32.304688 C 49.214844 32.183594 49.191406 32.179688 48.789062 32.226562 C 48.570312 32.246094 48.210938 32.265625 48.007812 32.265625 C 47.679688 32.265625 47.625 32.277344 47.558594 32.351562 C 47.464844 32.457031 47.195312 32.613281 47.054688 32.644531 C 46.996094 32.660156 46.886719 32.632812 46.785156 32.589844 Z M 57.160156 32.628906 C 56.980469 32.578125 56.46875 32.292969 56.445312 32.234375 C 56.414062 32.140625 56.601562 31.824219 56.730469 31.757812 C 56.820312 31.707031 57.035156 31.699219 57.910156 31.707031 L 58.976562 31.71875 L 58.359375 32.390625 L 57.933594 32.503906 C 57.382812 32.652344 57.289062 32.667969 57.160156 32.628906 Z M 65.375 32.648438 C 65.320312 32.632812 65.15625 32.589844 65.015625 32.542969 C 64.773438 32.464844 64.722656 32.460938 64.070312 32.503906 C 63.691406 32.527344 63.375 32.542969 63.367188 32.535156 C 63.351562 32.523438 63.457031 31.890625 63.597656 31.125 C 63.734375 30.363281 63.863281 29.628906 63.886719 29.496094 L 63.933594 29.261719 L 64.480469 29.285156 C 65.796875 29.351562 67.078125 29.507812 68.308594 29.757812 C 69.941406 30.082031 70.609375 30.296875 71.824219 30.871094 C 72.003906 30.953125 72.339844 31.113281 72.574219 31.21875 C 72.808594 31.328125 73.003906 31.429688 73.011719 31.449219 C 73.023438 31.484375 72.910156 32.507812 72.894531 32.527344 C 72.886719 32.539062 71.484375 32.5625 69.785156 32.585938 C 68.082031 32.609375 66.417969 32.636719 66.082031 32.648438 C 65.75 32.660156 65.433594 32.65625 65.375 32.648438 Z M 65.738281 32.433594 C 65.90625 32.398438 65.898438 32.394531 65.609375 32.390625 C 65.425781 32.390625 65.292969 32.402344 65.292969 32.429688 C 65.292969 32.476562 65.480469 32.476562 65.738281 32.433594 Z M 98.777344 32.453125 C 98.777344 32.394531 98.898438 32.347656 99.042969 32.347656 C 99.144531 32.347656 99.078125 32.402344 98.914062 32.460938 C 98.808594 32.496094 98.777344 32.492188 98.777344 32.453125 Z M 12.804688 32.230469 C 12.746094 32.210938 12.574219 32.128906 12.414062 32.046875 C 12.148438 31.914062 12.046875 31.816406 12.09375 31.742188 C 12.105469 31.722656 12.339844 31.699219 12.609375 31.683594 C 13.238281 31.652344 13.5 31.585938 14.066406 31.335938 L 14.519531 31.132812 L 14.699219 31.203125 C 14.804688 31.238281 14.925781 31.292969 14.976562 31.328125 C 15.054688 31.375 15.054688 31.390625 15.007812 31.503906 C 14.882812 31.804688 14.625 32.027344 14.238281 32.164062 C 14.011719 32.242188 12.984375 32.289062 12.804688 32.230469 Z M 100.679688 32.070312 C 100.679688 32.03125 100.863281 31.941406 100.941406 31.941406 C 101.027344 31.941406 101.015625 32.011719 100.925781 32.0625 C 100.828125 32.113281 100.679688 32.117188 100.679688 32.070312 Z M 75.914062 31.894531 C 75.859375 31.566406 75.757812 31.109375 75.6875 30.847656 C 75.617188 30.605469 75.609375 30.511719 75.644531 30.382812 C 75.667969 30.292969 75.667969 30.207031 75.648438 30.179688 C 75.628906 30.15625 75.402344 29.984375 75.144531 29.796875 C 74.699219 29.46875 74.683594 29.453125 74.800781 29.441406 C 75.085938 29.410156 76.566406 29.707031 77.320312 29.945312 C 77.503906 30.003906 78.039062 30.230469 78.511719 30.449219 C 78.984375 30.667969 79.417969 30.859375 79.46875 30.875 C 79.632812 30.914062 79.652344 30.96875 79.605469 31.277344 C 79.550781 31.628906 79.519531 31.683594 79.367188 31.714844 C 79.195312 31.746094 76.246094 31.984375 75.960938 31.984375 C 75.945312 31.984375 75.925781 31.941406 75.914062 31.894531 Z M 30.921875 31.78125 C 30.152344 31.761719 29.453125 31.726562 29.363281 31.710938 C 29.21875 31.683594 29.171875 31.636719 28.925781 31.292969 C 28.535156 30.757812 28.523438 30.714844 28.574219 30.3125 C 28.816406 28.523438 29.558594 26.070312 30.296875 24.625 C 31.074219 23.101562 32.496094 21.546875 33.574219 21.039062 C 34.269531 20.714844 34.941406 20.777344 36.175781 21.285156 C 37.675781 21.898438 40.128906 23.4375 41.414062 24.566406 C 41.730469 24.839844 42.832031 26 43.40625 26.660156 C 44.15625 27.515625 45 28.679688 45.496094 29.523438 C 45.980469 30.351562 46.46875 31.519531 46.355469 31.582031 C 46.328125 31.597656 45.234375 31.628906 43.921875 31.65625 C 42.613281 31.683594 40.910156 31.71875 40.140625 31.738281 C 38.117188 31.796875 32.546875 31.816406 30.921875 31.78125 Z M 27.855469 31.671875 C 27.789062 31.660156 27.765625 31.632812 27.78125 31.589844 C 27.792969 31.558594 27.820312 31.488281 27.832031 31.4375 C 27.851562 31.355469 28.054688 31.214844 28.148438 31.214844 C 28.164062 31.214844 28.171875 31.320312 28.164062 31.449219 C 28.148438 31.664062 28.140625 31.679688 28.050781 31.683594 C 27.992188 31.6875 27.90625 31.683594 27.855469 31.671875 Z M 27.855469 31.671875 "
    />
    <path
      d="M 59.261719 31.566406 L 59.15625 31.4375 L 57.402344 31.441406 C 56.4375 31.445312 54.785156 31.476562 53.730469 31.515625 C 51.984375 31.578125 51.1875 31.578125 50.644531 31.507812 L 50.453125 31.484375 L 49.757812 30.113281 C 48.019531 26.660156 47.078125 25.519531 44.183594 23.371094 C 42.054688 21.789062 40.445312 20.988281 38.261719 20.414062 C 37.910156 20.324219 37.910156 20.324219 38.246094 19.632812 C 38.90625 18.269531 40.566406 15.765625 41.039062 15.410156 L 41.148438 15.332031 L 41.664062 15.496094 C 42.460938 15.746094 42.507812 15.757812 43.132812 15.761719 C 43.597656 15.761719 43.835938 15.738281 44.289062 15.652344 C 45.507812 15.425781 46.027344 15.242188 47.167969 14.652344 C 48.714844 13.84375 49.519531 13.246094 49.417969 12.980469 C 49.398438 12.925781 49.425781 12.914062 49.566406 12.914062 C 49.804688 12.914062 50.5625 12.753906 51.285156 12.550781 C 52.125 12.316406 52.5625 12.230469 53.222656 12.179688 C 54.765625 12.066406 56.625 12.382812 58.566406 13.09375 C 62.023438 14.351562 65.515625 16.644531 67.207031 18.757812 C 67.3125 18.890625 67.398438 19.011719 67.398438 19.03125 C 67.398438 19.113281 66.875 19.0625 66.4375 18.945312 C 66.136719 18.867188 65.816406 18.8125 65.449219 18.785156 C 65.035156 18.757812 64.839844 18.71875 64.605469 18.632812 C 64.328125 18.535156 64.242188 18.523438 63.597656 18.507812 C 62.25 18.480469 60.839844 18.605469 60.449219 18.789062 C 60.238281 18.890625 60.21875 18.964844 60.28125 19.371094 C 60.40625 20.191406 60.804688 20.890625 61.582031 21.644531 C 62.042969 22.089844 63.078125 22.792969 63.273438 22.792969 C 63.292969 22.792969 63.3125 22.746094 63.3125 22.691406 C 63.3125 22.621094 63.34375 22.574219 63.40625 22.550781 C 63.523438 22.5 64.347656 22.308594 64.441406 22.308594 C 64.480469 22.308594 64.800781 22.46875 65.152344 22.667969 L 65.796875 23.03125 L 65.863281 22.882812 C 65.902344 22.800781 66.035156 22.644531 66.160156 22.539062 L 66.386719 22.34375 L 66.617188 22.5 C 67.015625 22.773438 67.644531 23.15625 67.679688 23.15625 C 67.699219 23.15625 67.75 23.054688 67.789062 22.929688 C 67.824219 22.804688 67.878906 22.695312 67.902344 22.6875 C 67.925781 22.675781 68.242188 22.835938 68.601562 23.039062 C 69.230469 23.390625 69.425781 23.460938 69.363281 23.292969 C 69.351562 23.257812 69.328125 23.164062 69.3125 23.082031 L 69.289062 22.933594 L 69.65625 22.753906 C 69.886719 22.644531 70.039062 22.585938 70.0625 22.609375 C 70.082031 22.632812 70.199219 22.871094 70.320312 23.136719 C 70.519531 23.570312 71.5 25.65625 71.714844 26.105469 C 71.808594 26.292969 71.808594 26.289062 71.542969 26.335938 C 71.453125 26.351562 71.191406 26.4375 70.957031 26.53125 L 70.53125 26.695312 L 69.90625 26.601562 C 69.5625 26.554688 68.371094 26.378906 67.265625 26.214844 C 66.15625 26.046875 65.222656 25.910156 65.191406 25.910156 C 65.15625 25.910156 65.132812 25.933594 65.132812 25.964844 C 65.132812 26.007812 64.988281 26.023438 64.464844 26.039062 L 63.800781 26.0625 L 63.449219 26.234375 C 63.164062 26.371094 63.03125 26.472656 62.746094 26.757812 C 62.152344 27.339844 61.804688 27.957031 61.488281 28.953125 C 61.265625 29.664062 61.183594 29.820312 60.789062 30.265625 C 60.417969 30.691406 60.261719 30.972656 60.183594 31.34375 L 60.128906 31.597656 L 59.871094 31.644531 C 59.453125 31.71875 59.382812 31.707031 59.261719 31.566406 Z M 94.898438 31.492188 C 94.824219 31.382812 94.777344 31.277344 94.792969 31.265625 C 94.816406 31.242188 97.003906 30.90625 97.625 30.828125 C 97.847656 30.804688 97.859375 30.804688 97.808594 30.871094 C 97.621094 31.09375 97.171875 31.246094 96.394531 31.355469 C 95.765625 31.441406 95.351562 31.535156 95.171875 31.621094 L 95.027344 31.699219 Z M 26.261719 31.628906 L 25.746094 31.613281 L 25.746094 31.484375 C 25.746094 31.273438 25.820312 30.699219 25.90625 30.296875 C 26.199219 28.859375 27.207031 26.6875 28.164062 25.414062 C 28.949219 24.363281 30.503906 22.792969 31.265625 22.273438 C 31.542969 22.085938 31.925781 21.886719 31.957031 21.914062 C 31.96875 21.925781 31.746094 22.179688 31.457031 22.484375 C 31.175781 22.792969 30.847656 23.160156 30.730469 23.308594 C 30.371094 23.769531 29.511719 25.402344 29.25 26.140625 C 29.109375 26.535156 28.910156 27.347656 28.59375 28.84375 C 28.449219 29.539062 28.308594 30.203125 28.28125 30.324219 L 28.230469 30.546875 L 27.925781 30.691406 C 27.582031 30.855469 27.472656 30.96875 27.257812 31.375 L 27.109375 31.660156 L 26.941406 31.652344 C 26.851562 31.648438 26.542969 31.632812 26.261719 31.628906 Z M 26.261719 31.628906 "
    />
    <path
      d="M 94.382812 31.617188 C 94.265625 31.570312 94.183594 31.4375 94.125 31.191406 C 94.058594 30.929688 93.988281 30.789062 93.878906 30.707031 C 93.789062 30.648438 93.78125 30.601562 93.71875 29.664062 L 93.65625 28.683594 L 93.8125 28.519531 L 93.964844 28.355469 L 93.964844 27.652344 L 94.214844 27.652344 C 94.460938 27.652344 94.460938 27.652344 94.402344 27.742188 C 94.15625 28.132812 94.160156 28.117188 94.222656 28.328125 C 94.289062 28.558594 94.230469 28.539062 95.339844 28.664062 C 96.355469 28.773438 96.839844 28.847656 97.140625 28.949219 C 97.390625 29.035156 97.6875 29.207031 97.6875 29.265625 C 97.6875 29.296875 97.089844 29.328125 95.398438 29.375 C 94.554688 29.398438 94.464844 29.394531 94.441406 29.339844 C 94.398438 29.234375 94.355469 29.257812 94.257812 29.429688 L 94.167969 29.585938 L 94.296875 29.859375 C 94.472656 30.230469 94.539062 30.816406 94.441406 31.03125 C 94.402344 31.109375 94.386719 31.171875 94.40625 31.171875 C 94.421875 31.171875 94.5 31.28125 94.570312 31.414062 L 94.699219 31.660156 L 94.585938 31.65625 C 94.523438 31.65625 94.433594 31.636719 94.382812 31.617188 Z M 6.585938 31.578125 C 5.828125 31.425781 5.476562 30.90625 5.390625 29.808594 L 5.375 29.59375 L 5.632812 29.59375 L 5.660156 29.929688 C 5.707031 30.464844 5.78125 30.664062 6.066406 30.949219 C 6.203125 31.082031 6.433594 31.277344 6.582031 31.375 C 6.945312 31.617188 6.949219 31.648438 6.585938 31.578125 Z M 49.160156 31.46875 C 48.148438 31.398438 47.808594 31.371094 47.796875 31.359375 C 47.789062 31.355469 47.828125 31.265625 47.882812 31.167969 C 48.257812 30.492188 48.238281 29.664062 47.839844 29.066406 C 47.621094 28.742188 47.234375 28.386719 46.859375 28.164062 C 46.421875 27.90625 46.363281 27.824219 45.964844 26.921875 C 45.628906 26.160156 45.234375 25.644531 44.714844 25.269531 C 44.496094 25.113281 44.449219 25.09375 44.378906 25.136719 C 44.316406 25.171875 44.25 25.167969 44.03125 25.109375 C 43.882812 25.0625 43.542969 24.976562 43.273438 24.90625 C 43.007812 24.835938 42.644531 24.738281 42.460938 24.695312 L 42.132812 24.609375 L 42.109375 24.320312 C 42.0625 23.769531 41.714844 23.292969 41.007812 22.820312 C 40.589844 22.546875 40.558594 22.539062 40.667969 22.746094 C 40.746094 22.910156 40.746094 23.074219 40.664062 23.074219 C 40.625 23.074219 40.46875 23.003906 38.980469 22.296875 C 38.167969 21.914062 38.125 21.890625 38.101562 21.769531 C 38.0625 21.546875 37.957031 20.675781 37.964844 20.667969 C 37.972656 20.664062 38.179688 20.730469 38.421875 20.824219 C 38.667969 20.917969 39.203125 21.113281 39.613281 21.25 C 41.09375 21.757812 41.484375 21.933594 42.601562 22.617188 C 44.308594 23.664062 44.90625 24.136719 46.078125 25.394531 C 48.382812 27.867188 49.828125 30.035156 50.03125 31.335938 L 50.0625 31.496094 L 49.699219 31.488281 C 49.503906 31.484375 49.261719 31.476562 49.160156 31.46875 Z M 81.835938 31.183594 C 81.804688 31.058594 81.742188 30.808594 81.683594 30.628906 C 81.613281 30.378906 81.59375 30.253906 81.613281 30.09375 L 81.636719 29.886719 L 81.445312 29.726562 C 81.082031 29.429688 81.066406 29.410156 81.097656 29.363281 C 81.132812 29.316406 82.082031 29.617188 83.917969 30.265625 C 84.628906 30.515625 84.554688 30.460938 84.523438 30.742188 C 84.511719 30.882812 84.488281 31.039062 84.476562 31.105469 L 84.457031 31.214844 L 83.492188 31.214844 L 83.492188 31.414062 L 81.878906 31.414062 Z M 12.5 31.335938 C 12.457031 31.316406 12.261719 31.296875 12.066406 31.296875 L 11.714844 31.292969 L 11.632812 31.023438 C 11.457031 30.40625 11.429688 30.304688 11.429688 30.273438 C 11.429688 30.257812 11.742188 30.242188 12.128906 30.242188 C 12.507812 30.242188 13.078125 30.214844 13.386719 30.179688 C 14.167969 30.105469 14.300781 30.136719 14.300781 30.402344 C 14.300781 30.703125 14.152344 30.804688 13.261719 31.136719 C 12.589844 31.382812 12.601562 31.378906 12.5 31.335938 Z M 12.5 31.335938 "
    />
    <path
      d="M 46.640625 31.125 C 46.375 30.644531 45.359375 28.734375 45.359375 28.726562 C 45.359375 28.683594 46.011719 28.613281 46.253906 28.628906 C 46.75 28.664062 47.042969 28.875 47.3125 29.382812 C 47.480469 29.707031 47.542969 29.980469 47.542969 30.386719 C 47.542969 30.800781 47.476562 30.9375 47.21875 31.078125 C 47.101562 31.140625 46.953125 31.234375 46.894531 31.285156 L 46.777344 31.378906 Z M 15.082031 31.1875 C 14.910156 31.089844 14.90625 31.082031 14.90625 30.871094 C 14.90625 30.671875 14.894531 30.648438 14.789062 30.582031 C 14.558594 30.445312 14.523438 30.15625 14.6875 29.796875 C 14.800781 29.554688 15.144531 28.953125 15.1875 28.925781 C 15.230469 28.902344 15.664062 29.023438 15.894531 29.125 C 16.121094 29.230469 16.292969 29.390625 16.359375 29.566406 C 16.382812 29.628906 16.402344 29.800781 16.402344 29.949219 C 16.398438 30.421875 16.246094 30.632812 15.597656 31.066406 C 15.410156 31.191406 15.257812 31.292969 15.253906 31.292969 Z M 15.914062 29.894531 C 15.886719 29.859375 15.792969 29.777344 15.707031 29.707031 L 15.550781 29.582031 L 15.328125 29.734375 L 15.105469 29.890625 L 15.574219 30.367188 L 15.769531 30.160156 C 15.925781 29.992188 15.949219 29.9375 15.914062 29.894531 Z M 18.253906 31.144531 C 18.179688 31.132812 18.132812 31.097656 18.121094 31.039062 C 18.042969 30.664062 17.9375 30.097656 17.9375 30.035156 C 17.9375 29.960938 17.980469 29.957031 18.527344 29.957031 C 18.847656 29.957031 19.113281 29.976562 19.113281 29.996094 C 19.113281 30.050781 18.949219 30.078125 18.589844 30.078125 C 18.113281 30.078125 18.21875 30.152344 18.714844 30.167969 L 19.109375 30.179688 L 18.917969 30.609375 C 18.8125 30.847656 18.699219 31.070312 18.671875 31.109375 C 18.617188 31.167969 18.496094 31.179688 18.253906 31.144531 Z M 6.625 30.964844 C 6.242188 30.902344 6.167969 30.808594 5.933594 30.148438 C 5.855469 29.925781 5.816406 29.75 5.832031 29.691406 C 5.851562 29.605469 5.878906 29.59375 6.054688 29.59375 C 6.207031 29.59375 6.253906 29.609375 6.253906 29.660156 C 6.253906 29.691406 6.28125 29.84375 6.316406 30 C 6.398438 30.355469 6.550781 30.535156 7.019531 30.808594 L 7.363281 31.011719 L 7.101562 31.007812 C 6.957031 31.003906 6.742188 30.988281 6.625 30.964844 Z M 86.390625 30.984375 C 86.382812 30.960938 86.308594 30.695312 86.226562 30.382812 C 86.140625 30.070312 86.046875 29.726562 86.019531 29.613281 C 85.988281 29.503906 85.96875 29.410156 85.976562 29.402344 C 85.984375 29.394531 86.769531 29.679688 88.019531 30.144531 C 88.160156 30.199219 88.285156 30.242188 88.289062 30.242188 C 88.296875 30.242188 88.304688 30.378906 88.304688 30.546875 L 88.304688 30.847656 L 87.71875 30.847656 C 87.160156 30.847656 87.132812 30.851562 87.132812 30.929688 C 87.132812 31.007812 87.105469 31.011719 86.773438 31.011719 C 86.570312 31.011719 86.398438 31 86.390625 30.984375 Z M 94.960938 30.964844 C 94.808594 30.945312 94.675781 30.921875 94.671875 30.917969 C 94.652344 30.902344 94.53125 29.925781 94.53125 29.832031 C 94.53125 29.769531 94.597656 29.765625 95.3125 29.785156 C 95.796875 29.796875 96.175781 29.824219 96.3125 29.867188 C 96.433594 29.898438 96.820312 29.933594 97.171875 29.945312 C 97.519531 29.957031 97.808594 29.984375 97.808594 30.003906 C 97.808594 30.070312 97.589844 30.289062 97.449219 30.359375 C 97.367188 30.398438 97.15625 30.484375 96.980469 30.546875 C 96.800781 30.605469 96.566406 30.691406 96.460938 30.738281 C 96.285156 30.8125 96.238281 30.816406 96.015625 30.777344 C 95.746094 30.722656 95.6875 30.746094 95.648438 30.910156 C 95.625 31 95.605469 31.011719 95.429688 31.007812 C 95.324219 31.003906 95.113281 30.984375 94.960938 30.964844 Z M 72.65625 30.597656 C 72.375 30.488281 72.132812 30.378906 72.113281 30.363281 C 72.089844 30.339844 72.121094 30.257812 72.1875 30.160156 C 72.289062 30 72.292969 30 72.425781 30.054688 C 72.691406 30.167969 73.320312 30.453125 73.351562 30.46875 C 73.386719 30.492188 73.289062 30.691406 73.210938 30.757812 C 73.171875 30.789062 73.03125 30.746094 72.65625 30.597656 Z M 9.042969 30.4375 C 9.042969 30.3125 9.007812 30.148438 8.960938 30.042969 C 8.917969 29.945312 8.878906 29.855469 8.878906 29.84375 C 8.878906 29.832031 8.957031 29.898438 9.054688 29.988281 C 9.152344 30.089844 9.320312 30.191406 9.453125 30.246094 C 9.679688 30.332031 9.695312 30.332031 10.019531 30.265625 C 10.207031 30.230469 10.398438 30.1875 10.449219 30.171875 C 10.53125 30.152344 10.539062 30.164062 10.539062 30.296875 L 10.539062 30.445312 L 10.246094 30.445312 C 10.039062 30.445312 9.871094 30.472656 9.667969 30.546875 C 9.515625 30.597656 9.308594 30.648438 9.214844 30.648438 L 9.042969 30.648438 Z M 79.515625 30.320312 C 79.457031 30.257812 79.277344 30.132812 79.121094 30.039062 C 78.824219 29.867188 78.765625 29.867188 78.761719 30.042969 C 78.761719 30.140625 78.714844 30.160156 78.625 30.113281 C 78.578125 30.089844 78.53125 30.0625 78.523438 30.054688 C 78.515625 30.046875 78.550781 29.992188 78.597656 29.929688 L 78.6875 29.816406 L 78.382812 29.804688 C 78.210938 29.796875 78.074219 29.78125 78.074219 29.769531 C 78.074219 29.75 78.101562 29.710938 78.136719 29.671875 C 78.195312 29.605469 78.183594 29.597656 77.933594 29.511719 C 77.742188 29.449219 77.648438 29.4375 77.621094 29.464844 C 77.589844 29.496094 77.542969 29.492188 77.464844 29.449219 C 77.246094 29.339844 76.726562 29.152344 76.695312 29.171875 C 76.675781 29.183594 76.660156 29.238281 76.660156 29.292969 C 76.660156 29.363281 76.636719 29.390625 76.578125 29.390625 C 76.511719 29.390625 76.496094 29.363281 76.496094 29.25 C 76.496094 29.171875 76.488281 29.109375 76.476562 29.109375 C 76.464844 29.109375 76.363281 29.152344 76.253906 29.210938 C 76.144531 29.265625 76.046875 29.3125 76.039062 29.3125 C 76.03125 29.3125 75.992188 29.226562 75.949219 29.121094 L 75.878906 28.929688 L 75.746094 29.089844 L 75.613281 29.246094 L 75.527344 29.097656 C 75.476562 29.015625 75.390625 28.933594 75.339844 28.921875 C 75.214844 28.890625 75.21875 28.84375 75.34375 28.761719 C 75.433594 28.699219 75.488281 28.699219 75.839844 28.742188 C 76.554688 28.832031 77.070312 28.996094 78.5 29.574219 C 79.359375 29.921875 79.527344 29.984375 79.742188 30.019531 C 79.824219 30.035156 79.894531 30.066406 79.894531 30.089844 C 79.894531 30.113281 79.832031 30.199219 79.765625 30.277344 L 79.628906 30.425781 Z M 3.078125 30.28125 L 2.363281 30.246094 L 2.207031 30.242188 L 2.207031 29.59375 L 2.734375 29.59375 C 3.210938 29.59375 3.257812 29.601562 3.300781 29.671875 C 3.363281 29.796875 3.558594 29.914062 3.902344 30.039062 L 4.21875 30.15625 L 4.476562 29.9375 C 4.625 29.8125 4.738281 29.738281 4.746094 29.769531 C 4.75 29.796875 4.730469 29.925781 4.703125 30.058594 L 4.648438 30.300781 L 4.144531 30.304688 C 3.871094 30.304688 3.390625 30.296875 3.078125 30.28125 Z M 7.734375 30.148438 C 7.664062 29.984375 7.503906 29.851562 7.332031 29.816406 C 7.152344 29.777344 7.101562 29.722656 7.101562 29.589844 L 7.101562 29.472656 L 7.460938 29.472656 C 8.121094 29.472656 8.375 29.570312 8.539062 29.886719 C 8.671875 30.132812 8.628906 30.171875 8.171875 30.222656 C 8.039062 30.238281 7.898438 30.257812 7.863281 30.265625 C 7.8125 30.28125 7.777344 30.246094 7.734375 30.148438 Z M 73 29.875 C 72.199219 29.480469 70.835938 28.96875 69.863281 28.707031 C 68.570312 28.355469 66.660156 28.066406 65.082031 27.992188 L 64.519531 27.960938 L 64.816406 27.664062 C 64.980469 27.496094 65.203125 27.285156 65.308594 27.199219 L 65.5 27.03125 L 65.894531 27.117188 C 66.289062 27.207031 66.84375 27.292969 67.945312 27.449219 C 69.230469 27.625 69.867188 27.78125 70.671875 28.097656 C 71.597656 28.460938 72.558594 28.992188 73.070312 29.421875 C 73.285156 29.597656 73.585938 29.976562 73.585938 30.0625 C 73.585938 30.152344 73.515625 30.128906 73 29.875 Z M 73 29.875 "
    />
    <path
      d="M 71.4375 29.960938 C 71.332031 29.925781 71.222656 29.878906 71.195312 29.847656 C 71.148438 29.8125 71.113281 29.816406 71.035156 29.855469 C 70.875 29.949219 70.792969 29.929688 70.769531 29.800781 C 70.746094 29.6875 70.726562 29.675781 70.375 29.589844 C 70.171875 29.542969 69.992188 29.492188 69.976562 29.484375 C 69.945312 29.46875 70.019531 29.238281 70.066406 29.210938 C 70.179688 29.140625 70.835938 29.394531 70.886719 29.523438 C 70.902344 29.566406 71.015625 29.59375 71.253906 29.613281 C 71.589844 29.644531 71.707031 29.683594 71.582031 29.730469 C 71.503906 29.761719 71.507812 29.832031 71.589844 29.925781 C 71.683594 30.03125 71.652344 30.039062 71.4375 29.960938 Z M 79.488281 29.597656 C 79.253906 29.511719 78.757812 29.316406 78.378906 29.15625 C 78 29 77.503906 28.808594 77.28125 28.730469 C 76.550781 28.476562 75.203125 28.214844 74.226562 28.136719 C 73.582031 28.082031 73.335938 28.019531 73.003906 27.816406 C 72.867188 27.730469 72.6875 27.632812 72.605469 27.605469 C 72.519531 27.578125 72.453125 27.542969 72.453125 27.527344 C 72.453125 27.511719 72.503906 27.453125 72.570312 27.390625 L 72.691406 27.277344 L 73.371094 27.347656 C 76.46875 27.664062 78.597656 28.328125 79.621094 29.300781 C 79.90625 29.578125 80.046875 29.757812 79.964844 29.75 C 79.9375 29.75 79.722656 29.683594 79.488281 29.597656 Z M 0 26.902344 C 0 25.34375 0.0078125 24.292969 0.0117188 24.570312 L 0.0273438 25.070312 L 0.179688 25.042969 C 0.933594 24.914062 1.292969 24.929688 1.96875 25.117188 C 2.980469 25.394531 4.804688 26.960938 5.503906 28.15625 C 5.707031 28.492188 5.929688 29.011719 5.929688 29.132812 C 5.929688 29.199219 5.78125 29.199219 3.589844 29.179688 C 2.308594 29.167969 1.207031 29.175781 1.136719 29.191406 C 1.070312 29.214844 0.792969 29.242188 0.523438 29.253906 L 0.0273438 29.28125 L 0.0117188 29.507812 C 0.00390625 29.632812 0 28.460938 0 26.902344 Z M 69.507812 29.496094 C 69.4375 29.394531 69.355469 29.3125 69.335938 29.3125 C 69.3125 29.3125 69.257812 29.375 69.210938 29.457031 L 69.125 29.597656 L 69.003906 29.414062 C 68.863281 29.199219 68.8125 29.179688 68.8125 29.359375 L 68.8125 29.492188 L 68.710938 29.34375 C 68.65625 29.257812 68.570312 29.167969 68.527344 29.144531 C 68.453125 29.109375 68.421875 29.121094 68.3125 29.226562 C 68.210938 29.324219 68.167969 29.339844 68.132812 29.300781 C 68.105469 29.273438 68.085938 29.222656 68.085938 29.179688 C 68.085938 29.121094 68.046875 29.109375 67.863281 29.109375 C 67.660156 29.109375 67.640625 29.117188 67.640625 29.199219 C 67.640625 29.28125 67.632812 29.277344 67.53125 29.160156 C 67.429688 29.046875 67.390625 29.03125 67.148438 29.015625 C 66.886719 29 66.871094 29.003906 66.871094 29.082031 C 66.871094 29.148438 66.847656 29.128906 66.765625 28.996094 C 66.683594 28.847656 66.652344 28.828125 66.589844 28.867188 C 66.546875 28.886719 66.402344 28.90625 66.269531 28.90625 C 66.035156 28.90625 66.023438 28.910156 66.023438 29.007812 C 66.023438 29.089844 66.003906 29.109375 65.917969 29.109375 C 65.828125 29.109375 65.820312 29.097656 65.84375 29.019531 C 65.914062 28.804688 65.914062 28.804688 65.4375 28.804688 C 65.078125 28.804688 64.96875 28.792969 64.878906 28.730469 C 64.816406 28.691406 64.777344 28.644531 64.785156 28.625 C 64.796875 28.605469 64.910156 28.542969 65.035156 28.480469 C 65.234375 28.382812 65.289062 28.371094 65.492188 28.394531 C 65.722656 28.425781 68.476562 28.910156 69.359375 29.078125 L 69.84375 29.171875 L 69.855469 29.324219 C 69.867188 29.449219 69.855469 29.472656 69.796875 29.472656 C 69.746094 29.472656 69.703125 29.515625 69.679688 29.578125 L 69.640625 29.6875 Z M 13.734375 29.535156 C 13.433594 29.5 12.878906 29.476562 12.5 29.472656 C 12.125 29.46875 11.765625 29.453125 11.703125 29.4375 L 11.59375 29.410156 L 11.742188 29.046875 C 11.863281 28.757812 11.914062 28.679688 11.988281 28.671875 C 12.070312 28.660156 14.085938 29.140625 14.320312 29.230469 C 14.414062 29.265625 14.425781 29.289062 14.414062 29.421875 C 14.40625 29.519531 14.378906 29.574219 14.339844 29.578125 C 14.308594 29.582031 14.03125 29.5625 13.734375 29.535156 Z M 83.734375 29.105469 C 82.410156 28.574219 82.238281 28.519531 81.105469 28.335938 C 80.121094 28.171875 79.761719 28.074219 79.367188 27.859375 C 79.070312 27.695312 78.839844 27.523438 78.863281 27.488281 C 78.90625 27.414062 80.207031 27.566406 80.964844 27.730469 C 82.335938 28.03125 83.632812 28.554688 84.316406 29.074219 C 84.582031 29.277344 84.757812 29.472656 84.679688 29.472656 C 84.660156 29.472656 84.238281 29.304688 83.734375 29.105469 Z M 18.210938 29.363281 C 18.078125 29.351562 18.019531 29.332031 18.03125 29.296875 C 18.195312 28.898438 18.363281 28.582031 18.421875 28.582031 C 18.578125 28.582031 19.183594 28.707031 19.328125 28.769531 C 19.5 28.847656 19.503906 28.875 19.394531 29.089844 C 19.351562 29.175781 19.3125 29.269531 19.3125 29.292969 C 19.3125 29.320312 19.273438 29.351562 19.226562 29.367188 C 19.128906 29.390625 18.554688 29.386719 18.210938 29.363281 Z M 73.785156 29.210938 C 73.785156 29.113281 73.71875 29.066406 73.5625 29.066406 C 73.429688 29.066406 73.097656 28.898438 72.917969 28.738281 C 72.753906 28.59375 72.742188 28.558594 72.855469 28.527344 C 72.910156 28.515625 72.9375 28.472656 72.9375 28.414062 C 72.9375 28.324219 72.9375 28.324219 73.050781 28.433594 C 73.148438 28.523438 73.199219 28.542969 73.386719 28.542969 C 73.605469 28.542969 73.609375 28.542969 73.871094 28.816406 C 74.015625 28.964844 74.160156 29.121094 74.191406 29.160156 C 74.238281 29.230469 74.234375 29.234375 74.140625 29.210938 C 74.074219 29.191406 73.984375 29.207031 73.910156 29.242188 C 73.792969 29.300781 73.785156 29.300781 73.785156 29.210938 Z M 73.785156 29.210938 "
    />
    <path
      d="M 8.5625 29.203125 C 8.449219 29.140625 8.332031 28.964844 7.882812 28.179688 C 7.257812 27.082031 6.996094 26.730469 6.273438 26.011719 C 5.691406 25.425781 5.3125 25.148438 4.789062 24.914062 L 4.4375 24.761719 L 4.625 24.535156 C 4.933594 24.167969 6.09375 22.820312 6.175781 22.734375 C 6.242188 22.660156 6.253906 22.660156 6.421875 22.726562 C 6.535156 22.773438 6.753906 22.808594 7.042969 22.820312 C 7.453125 22.839844 7.535156 22.832031 7.996094 22.714844 C 8.527344 22.582031 9.042969 22.390625 9.953125 21.988281 C 11.785156 21.164062 12.011719 21.105469 13.914062 20.890625 C 15.132812 20.753906 15.746094 20.738281 16.464844 20.828125 C 17.28125 20.929688 17.667969 20.902344 18.117188 20.710938 C 18.265625 20.652344 18.277344 20.652344 18.476562 20.753906 C 19.519531 21.273438 20.417969 21.992188 21.027344 22.789062 C 21.433594 23.316406 21.902344 24.21875 22.164062 24.980469 C 22.367188 25.566406 22.703125 26.761719 22.71875 26.949219 L 22.730469 27.101562 L 22.128906 27.46875 L 21.53125 27.832031 L 21.070312 27.605469 C 20.503906 27.324219 20.308594 27.285156 19.390625 27.285156 C 18.6875 27.285156 18.6875 27.285156 18.488281 27.402344 C 18.226562 27.5625 17.847656 27.9375 17.648438 28.238281 C 17.480469 28.492188 17.269531 28.921875 17.226562 29.09375 C 17.203125 29.179688 17.183594 29.1875 16.972656 29.1875 C 16.847656 29.1875 16.722656 29.171875 16.691406 29.152344 C 16.65625 29.132812 16.613281 28.96875 16.585938 28.765625 C 16.519531 28.328125 16.457031 28.246094 16.0625 28.132812 C 15.621094 28.007812 15.511719 27.957031 15.027344 27.671875 C 14.238281 27.203125 14.253906 27.207031 13.507812 27.207031 C 12.777344 27.207031 12.597656 27.242188 12.152344 27.472656 C 11.507812 27.808594 11.027344 28.347656 10.742188 29.042969 C 10.648438 29.257812 10.636719 29.273438 10.539062 29.242188 C 10.414062 29.203125 9.773438 29.203125 9.164062 29.246094 C 8.75 29.273438 8.683594 29.265625 8.5625 29.203125 Z M 21.144531 26.023438 C 21.152344 25.992188 21.054688 25.898438 20.90625 25.804688 L 20.652344 25.636719 L 20.90625 25.613281 C 21.492188 25.558594 21.664062 25.382812 21.691406 24.820312 L 21.707031 24.472656 L 21.523438 24.246094 L 21.339844 24.023438 L 20.195312 23.976562 C 15.625 23.777344 15.449219 23.777344 15.054688 23.910156 C 14.773438 24.007812 14.691406 24.128906 14.710938 24.453125 C 14.742188 24.960938 15.058594 25.378906 15.671875 25.714844 C 16.0625 25.929688 16.019531 25.9375 16.46875 25.597656 C 16.628906 25.480469 16.78125 25.382812 16.8125 25.382812 C 16.84375 25.382812 16.949219 25.449219 17.050781 25.53125 C 17.429688 25.832031 17.558594 25.886719 17.972656 25.902344 C 18.183594 25.914062 18.347656 25.90625 18.335938 25.886719 C 18.328125 25.867188 18.296875 25.800781 18.265625 25.738281 C 18.214844 25.636719 18.21875 25.617188 18.285156 25.542969 C 18.390625 25.429688 18.523438 25.355469 18.496094 25.429688 C 18.476562 25.488281 19.429688 25.953125 19.597656 25.960938 C 19.707031 25.96875 19.714844 25.929688 19.675781 25.648438 C 19.648438 25.457031 19.753906 25.476562 20.425781 25.789062 C 20.761719 25.941406 21.054688 26.066406 21.082031 26.070312 C 21.105469 26.070312 21.132812 26.046875 21.144531 26.023438 Z M 21.144531 26.023438 "
    />
    <path
      d="M 20.566406 25.1875 C 20.371094 24.996094 20.324219 24.789062 20.433594 24.625 C 20.480469 24.566406 20.527344 24.480469 20.542969 24.4375 C 20.566406 24.367188 20.605469 24.363281 20.941406 24.378906 C 21.367188 24.40625 21.417969 24.441406 21.417969 24.730469 C 21.417969 24.992188 21.347656 25.210938 21.242188 25.28125 C 21.191406 25.320312 21.070312 25.34375 20.941406 25.34375 C 20.738281 25.34375 20.707031 25.332031 20.566406 25.1875 Z M 19.191406 25.253906 C 19.097656 25.21875 18.871094 24.886719 18.871094 24.777344 C 18.871094 24.671875 19.046875 24.386719 19.148438 24.332031 C 19.265625 24.269531 19.660156 24.28125 19.796875 24.347656 C 19.953125 24.433594 20 24.5625 19.957031 24.800781 C 19.9375 24.910156 19.914062 25.054688 19.902344 25.128906 L 19.875 25.253906 L 19.574219 25.269531 C 19.402344 25.277344 19.234375 25.269531 19.191406 25.253906 Z M 15.820312 25.132812 C 15.785156 24.984375 15.792969 24.550781 15.835938 24.429688 C 15.910156 24.242188 15.984375 24.214844 16.414062 24.210938 C 16.804688 24.210938 16.8125 24.210938 16.847656 24.316406 C 16.898438 24.453125 16.898438 24.742188 16.84375 24.886719 C 16.824219 24.945312 16.753906 25.046875 16.695312 25.113281 C 16.597656 25.21875 16.574219 25.222656 16.214844 25.222656 C 15.863281 25.222656 15.84375 25.21875 15.820312 25.132812 Z M 17.566406 25.175781 C 17.46875 25.125 17.292969 24.808594 17.292969 24.699219 C 17.292969 24.449219 17.636719 24.210938 17.996094 24.210938 C 18.195312 24.210938 18.238281 24.226562 18.328125 24.324219 C 18.425781 24.425781 18.433594 24.457031 18.417969 24.722656 C 18.40625 24.960938 18.382812 25.03125 18.308594 25.117188 C 18.21875 25.210938 18.179688 25.222656 17.921875 25.222656 C 17.765625 25.222656 17.605469 25.203125 17.566406 25.175781 Z M 6.117188 28.835938 C 6.035156 28.636719 5.96875 28.464844 5.96875 28.449219 C 5.96875 28.386719 7.039062 28.433594 7.113281 28.496094 C 7.164062 28.539062 7.183594 28.617188 7.183594 28.824219 L 7.183594 29.101562 L 6.789062 29.117188 C 6.570312 29.125 6.367188 29.148438 6.332031 29.160156 C 6.285156 29.183594 6.234375 29.113281 6.117188 28.835938 Z M 87.335938 28.871094 C 86.523438 28.546875 86.273438 28.472656 85.65625 28.363281 C 85.007812 28.246094 84.730469 28.167969 84.460938 28.027344 C 84.1875 27.890625 83.980469 27.714844 84.03125 27.667969 C 84.074219 27.617188 84.875 27.734375 85.433594 27.875 C 86.5 28.136719 87.5625 28.597656 87.980469 28.984375 C 88.101562 29.097656 88.1875 29.183594 88.164062 29.183594 C 88.144531 29.183594 87.765625 29.042969 87.335938 28.871094 Z M 92.371094 29.160156 C 92.304688 29.152344 91.992188 29.109375 91.683594 29.058594 C 90.894531 28.941406 90.074219 28.941406 89.570312 29.058594 C 89.363281 29.109375 89.179688 29.148438 89.160156 29.148438 C 89.136719 29.148438 89.121094 29.066406 89.125 28.96875 C 89.132812 28.738281 89.0625 28.636719 88.644531 28.320312 C 88.472656 28.179688 88.25 27.96875 88.15625 27.847656 C 87.640625 27.191406 87.117188 26.726562 86.324219 26.234375 C 85.457031 25.695312 84.449219 25.257812 83.921875 25.199219 C 83.800781 25.179688 83.679688 25.15625 83.65625 25.140625 C 83.613281 25.117188 83.628906 24.925781 83.734375 24.273438 L 83.863281 23.445312 L 84.015625 23.507812 C 84.199219 23.597656 84.804688 23.625 85.128906 23.5625 C 85.722656 23.449219 86.355469 22.917969 86.5 22.425781 C 86.507812 22.386719 86.652344 22.242188 86.816406 22.101562 C 87 21.941406 87.113281 21.8125 87.109375 21.769531 C 87.105469 21.699219 87.125 21.695312 87.289062 21.71875 C 88.15625 21.847656 89.445312 22.503906 90.671875 23.4375 C 90.949219 23.648438 91.621094 24.285156 91.621094 24.335938 C 91.621094 24.355469 91.386719 24.371094 91.097656 24.371094 C 90.367188 24.371094 90.347656 24.414062 90.800781 25.097656 C 91.109375 25.554688 91.460938 25.902344 91.78125 26.0625 C 92.09375 26.222656 92.148438 26.226562 92.148438 26.089844 C 92.148438 26.003906 92.160156 25.992188 92.203125 26.027344 C 92.230469 26.050781 92.421875 26.109375 92.628906 26.152344 C 93.316406 26.296875 93.308594 26.292969 93.40625 26.507812 C 93.621094 26.996094 93.722656 27.265625 93.722656 27.378906 C 93.722656 27.601562 93.558594 28.476562 93.507812 28.507812 C 93.484375 28.523438 93.34375 28.550781 93.199219 28.566406 C 93.050781 28.578125 92.90625 28.605469 92.871094 28.625 C 92.832031 28.648438 92.785156 28.761719 92.753906 28.925781 C 92.699219 29.214844 92.714844 29.207031 92.371094 29.160156 Z M 45.28125 28.265625 L 45.023438 28.203125 L 44.414062 27.386719 L 43.808594 26.578125 L 44.007812 26.566406 C 44.183594 26.554688 45.234375 26.621094 45.257812 26.652344 C 45.292969 26.691406 45.882812 28.078125 45.882812 28.121094 C 45.882812 28.179688 45.667969 28.339844 45.59375 28.335938 C 45.5625 28.332031 45.421875 28.300781 45.28125 28.265625 Z M 5.699219 27.988281 C 5.515625 27.753906 5.390625 27.527344 5.421875 27.496094 C 5.4375 27.480469 5.667969 27.46875 5.941406 27.46875 L 6.429688 27.46875 L 6.523438 27.628906 C 6.640625 27.839844 6.640625 27.878906 6.5 28.019531 C 6.390625 28.128906 6.355469 28.136719 6.097656 28.136719 C 5.820312 28.136719 5.8125 28.132812 5.699219 27.988281 Z M 71.179688 27.800781 L 70.53125 27.464844 L 70.519531 27.292969 C 70.507812 27.113281 70.558594 27.070312 70.632812 27.207031 C 70.683594 27.300781 70.773438 27.3125 70.8125 27.226562 C 70.84375 27.136719 70.996094 27.148438 70.996094 27.242188 C 70.996094 27.300781 71.035156 27.320312 71.238281 27.339844 C 71.375 27.355469 71.570312 27.410156 71.695312 27.472656 C 71.808594 27.535156 72.003906 27.621094 72.121094 27.671875 L 72.339844 27.761719 L 72.125 27.945312 C 72.003906 28.050781 71.890625 28.136719 71.867188 28.136719 C 71.847656 28.136719 71.535156 27.984375 71.179688 27.800781 Z M 64.21875 27.796875 C 64.160156 27.636719 64.585938 27 64.941406 26.714844 C 65.167969 26.539062 65.453125 26.375 65.484375 26.410156 C 65.5625 26.488281 65.402344 26.703125 64.945312 27.144531 C 64.671875 27.410156 64.445312 27.65625 64.445312 27.679688 C 64.445312 27.734375 64.332031 27.851562 64.28125 27.851562 C 64.257812 27.851562 64.230469 27.828125 64.21875 27.796875 Z M 94.683594 27.238281 C 94.722656 27.0625 94.722656 26.664062 94.679688 26.460938 L 94.640625 26.300781 L 95.042969 26.335938 C 95.265625 26.351562 95.523438 26.375 95.625 26.390625 L 95.808594 26.414062 L 95.859375 26.835938 C 95.886719 27.070312 95.902344 27.28125 95.890625 27.316406 C 95.875 27.355469 95.730469 27.367188 95.261719 27.367188 L 94.644531 27.367188 Z M 94.03125 27.125 C 93.863281 26.976562 93.441406 26.167969 93.441406 25.992188 C 93.441406 25.828125 93.601562 25.140625 93.640625 25.140625 C 93.660156 25.140625 93.765625 25.335938 93.875 25.578125 C 93.988281 25.816406 94.179688 26.226562 94.300781 26.484375 L 94.527344 26.957031 L 94.441406 27.09375 C 94.320312 27.269531 94.210938 27.277344 94.03125 27.125 Z M 71.371094 26.984375 C 71.140625 26.910156 70.9375 26.832031 70.910156 26.816406 C 70.832031 26.769531 71.402344 26.636719 71.816406 26.609375 C 72.03125 26.597656 72.210938 26.597656 72.210938 26.613281 C 72.210938 26.660156 71.835938 27.125 71.808594 27.121094 C 71.796875 27.121094 71.597656 27.058594 71.371094 26.984375 Z M 84.421875 26.835938 C 83.480469 26.683594 83.125 26.644531 82.917969 26.660156 L 82.644531 26.679688 L 82.644531 26.386719 C 82.648438 26.046875 82.753906 25.695312 82.859375 25.675781 C 82.96875 25.65625 83.953125 25.9375 84.402344 26.121094 C 84.847656 26.300781 85.527344 26.6875 85.777344 26.902344 L 85.9375 27.039062 L 85.796875 27.035156 C 85.722656 27.035156 85.101562 26.945312 84.421875 26.835938 Z M 23.632812 26.496094 C 23.617188 26.113281 23.632812 26.019531 23.71875 26.058594 C 23.753906 26.074219 24.558594 26.097656 25.511719 26.105469 C 26.582031 26.113281 27.242188 26.132812 27.242188 26.15625 C 27.242188 26.175781 27.183594 26.304688 27.113281 26.441406 L 26.992188 26.683594 L 26.722656 26.652344 C 26.253906 26.59375 24.886719 26.625 24.238281 26.707031 L 23.644531 26.785156 Z M 80.539062 26.765625 C 80.539062 26.671875 81.054688 26.261719 81.363281 26.117188 C 81.636719 25.984375 82.101562 25.828125 82.21875 25.828125 C 82.234375 25.828125 82.238281 25.929688 82.222656 26.054688 C 82.175781 26.460938 82.023438 26.644531 81.652344 26.738281 C 81.394531 26.804688 80.539062 26.824219 80.539062 26.765625 Z M 4.695312 26.570312 C 4.601562 26.546875 4.421875 26.386719 4.304688 26.226562 L 4.226562 26.113281 L 5.078125 26.113281 L 5.179688 26.316406 C 5.238281 26.425781 5.28125 26.535156 5.28125 26.558594 C 5.28125 26.597656 4.851562 26.605469 4.695312 26.570312 Z M 79.46875 26.328125 C 79.542969 25.53125 79.625 25.25 79.925781 24.820312 C 80.183594 24.457031 81.34375 23.273438 81.664062 23.058594 C 81.945312 22.871094 82.238281 22.726562 82.238281 22.78125 C 82.238281 22.800781 82.203125 22.964844 82.15625 23.152344 C 82.113281 23.339844 82.082031 23.5 82.09375 23.507812 C 82.101562 23.515625 82.382812 23.550781 82.71875 23.578125 C 83.058594 23.605469 83.339844 23.636719 83.347656 23.648438 C 83.375 23.675781 83.085938 25.074219 83.042969 25.128906 C 83.019531 25.152344 82.953125 25.183594 82.898438 25.203125 C 82.765625 25.234375 81.015625 26.109375 80.515625 26.386719 C 80.148438 26.597656 80.144531 26.597656 79.792969 26.597656 L 79.441406 26.597656 Z M 22.921875 25.445312 C 22.488281 24.199219 22.152344 23.46875 21.671875 22.742188 C 21.003906 21.746094 20.617188 21.335938 19.941406 20.898438 C 19.71875 20.757812 19.40625 20.550781 19.25 20.445312 C 19.085938 20.335938 18.945312 20.257812 18.933594 20.269531 C 18.921875 20.285156 18.910156 20.347656 18.910156 20.410156 C 18.910156 20.546875 18.925781 20.546875 18.382812 20.429688 L 17.960938 20.339844 L 17.949219 20.011719 L 17.933594 19.6875 L 18.636719 19.664062 C 19.019531 19.648438 19.5625 19.605469 19.839844 19.574219 C 20.800781 19.460938 21.011719 19.5 21.375 19.878906 C 21.683594 20.191406 21.898438 20.679688 22.210938 21.761719 C 22.773438 23.722656 23.351562 26.175781 23.308594 26.445312 C 23.300781 26.496094 23.132812 26.054688 22.921875 25.445312 Z M 77.910156 26.488281 C 75.628906 26.453125 73.167969 26.394531 73.148438 26.375 C 73.136719 26.363281 73.160156 26.242188 73.199219 26.105469 C 73.25 25.933594 73.28125 25.664062 73.292969 25.292969 C 73.308594 24.738281 73.308594 24.730469 73.160156 24.25 C 73.074219 23.980469 73.019531 23.746094 73.035156 23.734375 C 73.054688 23.714844 73.414062 23.738281 74.617188 23.84375 C 74.863281 23.871094 75.613281 23.933594 76.292969 23.992188 C 78.566406 24.175781 78.933594 24.214844 78.964844 24.230469 C 78.980469 24.242188 79.003906 24.324219 79.019531 24.414062 C 79.035156 24.503906 79.09375 24.691406 79.144531 24.824219 C 79.234375 25.042969 79.246094 25.140625 79.253906 25.644531 C 79.257812 26.011719 79.242188 26.265625 79.210938 26.367188 L 79.15625 26.515625 L 78.871094 26.507812 C 78.707031 26.503906 78.28125 26.492188 77.910156 26.488281 Z M 43 25.6875 C 42.671875 25.335938 42.410156 25.042969 42.414062 25.035156 C 42.421875 25.03125 42.578125 25.066406 42.769531 25.117188 C 42.960938 25.167969 43.277344 25.25 43.476562 25.296875 C 44.054688 25.4375 44.390625 25.628906 44.722656 26.027344 C 44.785156 26.101562 44.832031 26.171875 44.832031 26.1875 C 44.832031 26.210938 44.691406 26.234375 44.519531 26.246094 C 44.347656 26.261719 44.066406 26.28125 43.898438 26.296875 L 43.589844 26.328125 Z M 72.359375 26.234375 C 72.164062 26.199219 71.992188 26.148438 71.972656 26.128906 C 71.949219 26.109375 71.917969 26.011719 71.894531 25.914062 L 71.855469 25.738281 L 71.972656 25.765625 C 72.035156 25.777344 72.089844 25.777344 72.089844 25.765625 C 72.089844 25.753906 71.90625 25.476562 71.683594 25.152344 C 71.460938 24.824219 71.28125 24.535156 71.28125 24.503906 C 71.28125 24.46875 71.335938 24.453125 71.441406 24.453125 C 71.640625 24.453125 71.648438 24.402344 71.457031 24.289062 C 71.261719 24.164062 71.214844 24.078125 71.132812 23.675781 C 71.085938 23.449219 71.042969 23.320312 71.007812 23.320312 C 70.941406 23.320312 70.945312 23.382812 71.019531 23.613281 C 71.058594 23.714844 71.078125 23.832031 71.070312 23.875 C 71.058594 23.917969 70.9375 23.714844 70.757812 23.359375 C 70.59375 23.039062 70.429688 22.753906 70.398438 22.726562 C 70.339844 22.6875 70.359375 22.667969 70.507812 22.589844 L 70.679688 22.5 L 70.566406 22.382812 C 70.507812 22.320312 70.433594 22.265625 70.414062 22.265625 C 70.390625 22.265625 70.316406 22.324219 70.257812 22.394531 L 70.144531 22.53125 L 70.164062 22.144531 C 70.175781 21.933594 70.214844 21.652344 70.253906 21.515625 C 70.34375 21.160156 70.320312 20.292969 70.203125 20.039062 C 70.015625 19.621094 69.796875 19.511719 68.917969 19.410156 C 68.347656 19.34375 68.070312 19.246094 67.875 19.046875 C 67.808594 18.988281 67.761719 18.921875 67.761719 18.90625 C 67.761719 18.890625 67.820312 18.855469 67.894531 18.835938 L 68.023438 18.796875 L 67.902344 18.765625 C 67.390625 18.628906 66.789062 18.089844 66.234375 17.257812 C 66.113281 17.070312 65.984375 16.921875 65.953125 16.921875 C 65.871094 16.921875 65.542969 16.640625 65.511719 16.546875 C 65.492188 16.476562 65.484375 16.476562 65.390625 16.539062 C 65.292969 16.601562 65.285156 16.597656 65 16.332031 C 64.609375 15.96875 64.203125 15.664062 63.554688 15.238281 C 62.175781 14.339844 60.101562 13.277344 58.945312 12.875 L 58.519531 12.726562 L 58.351562 12.039062 C 58.257812 11.664062 58.175781 11.300781 58.167969 11.234375 L 58.15625 11.113281 L 58.480469 11.085938 C 59.09375 11.03125 59.65625 10.960938 60.625 10.824219 C 62.363281 10.574219 62.851562 10.523438 63.535156 10.523438 C 64.292969 10.523438 64.546875 10.5625 64.984375 10.734375 C 66.09375 11.175781 67.1875 12.253906 68.085938 13.804688 C 68.480469 14.484375 69.746094 17.109375 70.726562 19.269531 C 72.132812 22.382812 72.929688 24.445312 73.007812 25.144531 C 73.042969 25.503906 72.902344 26.210938 72.78125 26.269531 C 72.742188 26.289062 72.558594 26.273438 72.359375 26.234375 Z M 93.816406 24.789062 C 92.726562 22.679688 92.179688 21.777344 91.722656 21.316406 C 91.359375 20.945312 91.152344 20.804688 90.507812 20.46875 C 90.003906 20.207031 89.941406 20.160156 90.089844 20.160156 C 90.296875 20.164062 90.738281 20.28125 91.03125 20.421875 C 91.667969 20.714844 92.234375 21.199219 93.160156 22.246094 L 93.578125 22.71875 L 93.488281 22.878906 C 93.375 23.070312 93.351562 23.011719 94.019531 24.058594 C 94.554688 24.898438 94.683594 25.074219 95.128906 25.5625 C 95.589844 26.058594 95.597656 26.03125 94.980469 26.03125 L 94.460938 26.03125 Z M 93.816406 24.789062 "
    />
    <path
      d="M 25.703125 25.84375 C 25.113281 25.816406 24.386719 25.777344 24.085938 25.761719 L 23.539062 25.726562 L 23.429688 25.425781 C 23.375 25.257812 23.222656 24.691406 23.09375 24.167969 C 22.222656 20.554688 22.214844 20.519531 21.441406 19.59375 C 21.1875 19.289062 21.074219 19.121094 21.105469 19.105469 C 21.171875 19.066406 22.441406 19.136719 23.136719 19.210938 C 24.652344 19.375 26.144531 19.796875 27.394531 20.410156 C 27.875 20.648438 28.015625 20.734375 28.226562 20.941406 C 28.523438 21.238281 28.613281 21.390625 28.921875 22.132812 C 29.046875 22.441406 29.222656 22.84375 29.308594 23.03125 C 29.394531 23.21875 29.464844 23.390625 29.464844 23.414062 C 29.464844 23.46875 28.761719 24.128906 28.703125 24.128906 C 28.683594 24.128906 28.65625 24.097656 28.644531 24.058594 C 28.636719 24.019531 28.53125 23.6875 28.417969 23.324219 C 28.304688 22.953125 28.207031 22.605469 28.203125 22.546875 C 28.191406 22.40625 28.304688 22.425781 26.230469 22.308594 C 24.34375 22.203125 24.519531 22.199219 24.550781 22.351562 C 24.605469 22.589844 25.371094 24.988281 25.40625 25.019531 C 25.425781 25.035156 25.957031 25.074219 26.59375 25.101562 C 27.226562 25.128906 27.765625 25.160156 27.789062 25.175781 C 27.824219 25.191406 27.78125 25.320312 27.671875 25.558594 L 27.511719 25.910156 L 27.144531 25.90625 C 26.941406 25.902344 26.292969 25.875 25.703125 25.84375 Z M 3.828125 25.789062 C 3.757812 25.773438 3.640625 25.703125 3.574219 25.636719 L 3.457031 25.519531 L 3.578125 25.355469 C 3.730469 25.148438 3.90625 25.019531 4.085938 24.992188 L 4.21875 24.96875 L 4.265625 25.277344 C 4.289062 25.449219 4.3125 25.644531 4.3125 25.707031 C 4.3125 25.824219 4.304688 25.828125 4.140625 25.824219 C 4.042969 25.820312 3.90625 25.804688 3.828125 25.789062 Z M 4.796875 25.800781 C 4.667969 25.753906 4.59375 25.652344 4.550781 25.441406 C 4.519531 25.320312 4.507812 25.210938 4.519531 25.199219 C 4.535156 25.183594 4.726562 25.261719 4.953125 25.367188 L 5.367188 25.558594 L 5.253906 25.671875 C 5.140625 25.777344 4.914062 25.84375 4.796875 25.800781 Z M 91.671875 25.191406 C 91.511719 25.058594 91.496094 25.054688 91.355469 25.101562 C 91.222656 25.144531 91.195312 25.144531 91.148438 25.074219 C 91.078125 24.980469 91.039062 24.832031 91.066406 24.765625 C 91.109375 24.660156 91.753906 24.613281 91.875 24.707031 C 91.9375 24.753906 91.9375 24.785156 91.890625 25.042969 L 91.84375 25.335938 Z M 92.652344 24.410156 C 92.152344 24.3125 91.75 24.074219 91.070312 23.472656 C 90.28125 22.777344 90.074219 22.628906 89.296875 22.238281 C 88.140625 21.65625 87.878906 21.449219 87.648438 20.941406 C 87.585938 20.796875 87.535156 20.671875 87.542969 20.664062 C 87.582031 20.628906 89.574219 20.515625 89.882812 20.535156 C 90.183594 20.546875 90.265625 20.570312 90.550781 20.707031 C 91.125 20.992188 91.726562 21.648438 92.289062 22.59375 C 92.492188 22.933594 93.203125 24.257812 93.269531 24.421875 C 93.292969 24.460938 92.867188 24.453125 92.652344 24.410156 Z M 78.558594 23.902344 C 78.527344 23.894531 77.996094 23.839844 77.386719 23.785156 C 75.199219 23.582031 73.144531 23.375 72.933594 23.332031 C 72.863281 23.320312 72.808594 23.273438 72.792969 23.222656 C 72.625 22.636719 72.042969 21.3125 71.015625 19.167969 C 70.601562 18.300781 69.945312 16.929688 69.5625 16.128906 C 68.84375 14.621094 68.390625 13.761719 67.953125 13.078125 C 67.195312 11.910156 66.171875 10.910156 65.316406 10.5 C 64.957031 10.332031 64.378906 10.160156 64.152344 10.160156 C 63.957031 10.160156 63.917969 10.125 63.917969 9.933594 L 63.917969 9.757812 L 64.113281 9.757812 C 64.21875 9.757812 64.546875 9.777344 64.839844 9.796875 C 66.363281 9.914062 67.691406 10.371094 69.15625 11.285156 C 70.023438 11.824219 71.019531 12.484375 71.332031 12.714844 C 72.9375 13.929688 74.273438 15.335938 74.796875 16.367188 C 74.964844 16.695312 75.046875 16.960938 74.988281 16.960938 C 74.980469 16.960938 74.75 16.878906 74.46875 16.777344 C 72.980469 16.222656 72.480469 16.109375 72.347656 16.292969 C 72.226562 16.460938 72.390625 16.804688 72.691406 17.003906 C 72.898438 17.140625 73.167969 17.230469 73.980469 17.425781 C 74.527344 17.554688 74.960938 17.722656 75.140625 17.871094 C 75.21875 17.933594 75.21875 17.933594 75.101562 17.910156 C 75.035156 17.894531 74.652344 17.765625 74.253906 17.621094 C 73.453125 17.335938 73.042969 17.257812 72.941406 17.382812 C 72.863281 17.476562 72.917969 17.691406 73.074219 17.921875 C 73.265625 18.199219 73.507812 18.308594 74.273438 18.460938 C 74.617188 18.535156 74.996094 18.621094 75.113281 18.664062 C 75.378906 18.757812 75.722656 18.953125 75.660156 18.976562 C 75.59375 19 75.109375 18.871094 74.554688 18.691406 C 73.929688 18.484375 73.6875 18.4375 73.566406 18.492188 C 73.371094 18.582031 73.460938 18.886719 73.761719 19.183594 C 73.957031 19.375 73.992188 19.386719 75.660156 19.800781 C 76.234375 19.945312 76.496094 20.027344 76.496094 20.0625 C 76.496094 20.148438 76.300781 20.132812 75.90625 20.015625 C 75.707031 19.953125 75.371094 19.851562 75.160156 19.792969 C 74.628906 19.628906 74.332031 19.601562 74.230469 19.695312 C 74.125 19.792969 74.128906 19.863281 74.253906 20.109375 C 74.449219 20.503906 74.6875 20.613281 75.628906 20.753906 C 76.332031 20.855469 76.621094 20.949219 76.703125 21.097656 C 76.753906 21.203125 76.746094 21.203125 75.902344 21.015625 C 74.914062 20.796875 74.828125 20.785156 74.742188 20.871094 C 74.695312 20.914062 74.683594 20.96875 74.699219 21.027344 C 74.761719 21.21875 74.882812 21.410156 75.023438 21.539062 C 75.339844 21.8125 75.632812 21.894531 76.738281 22.019531 C 77.730469 22.128906 78.21875 22.546875 78.597656 23.59375 C 78.691406 23.84375 78.679688 23.925781 78.558594 23.902344 Z M 82.777344 23.167969 C 82.644531 23.144531 82.5625 23.003906 82.5625 22.808594 C 82.5625 22.621094 82.679688 22.011719 82.808594 21.523438 C 82.953125 20.992188 83.097656 20.9375 84.179688 21.007812 C 84.59375 21.035156 84.984375 21.046875 85.050781 21.03125 C 85.273438 20.984375 85.390625 20.921875 85.453125 20.824219 C 85.492188 20.769531 85.554688 20.726562 85.609375 20.726562 C 85.695312 20.726562 85.703125 20.757812 85.773438 21.257812 C 85.921875 22.359375 85.902344 22.582031 85.652344 22.816406 C 85.464844 22.996094 85.105469 23.164062 84.871094 23.1875 C 84.753906 23.199219 84.527344 23.171875 84.285156 23.117188 C 83.902344 23.027344 83.875 23.027344 83.578125 23.089844 C 83.214844 23.164062 82.902344 23.199219 82.777344 23.167969 Z M 69.15625 22.636719 C 68.984375 22.617188 68.839844 22.496094 68.664062 22.234375 L 68.503906 22 L 68.601562 21.128906 C 68.703125 20.265625 68.703125 20.261719 68.871094 19.964844 L 69.035156 19.671875 L 69.21875 19.695312 C 69.664062 19.757812 69.875 19.929688 69.929688 20.265625 C 69.96875 20.550781 69.917969 21.726562 69.851562 21.960938 C 69.789062 22.203125 69.652344 22.472656 69.570312 22.546875 C 69.484375 22.613281 69.296875 22.65625 69.15625 22.636719 Z M 6.710938 22.289062 C 6.648438 22.1875 6.582031 22.105469 6.566406 22.105469 C 6.550781 22.105469 6.507812 22.160156 6.464844 22.226562 C 6.394531 22.351562 6.332031 22.382812 6.332031 22.296875 C 6.332031 22.269531 6.566406 21.734375 6.855469 21.113281 L 7.375 19.980469 L 8.140625 19.957031 C 9.101562 19.933594 9.3125 19.855469 9.410156 19.503906 C 9.496094 19.183594 9.5 19.1875 8.625 19.1875 L 7.847656 19.183594 L 7.949219 19.101562 C 8.207031 18.886719 8.582031 18.773438 9.210938 18.71875 C 9.546875 18.695312 9.5625 18.695312 9.664062 18.796875 C 9.839844 18.96875 9.910156 19.296875 9.910156 19.9375 C 9.910156 20.554688 9.871094 20.761719 9.683594 21.132812 C 9.421875 21.660156 8.964844 22.019531 8.246094 22.261719 C 7.980469 22.351562 7.652344 22.40625 7.152344 22.449219 L 6.820312 22.476562 Z M 67.335938 22.351562 C 67.183594 22.257812 67.019531 22.105469 66.941406 21.980469 C 66.882812 21.894531 66.882812 21.773438 66.921875 20.929688 L 66.964844 19.980469 L 67.132812 19.734375 C 67.410156 19.347656 67.421875 19.339844 67.699219 19.414062 C 68.003906 19.492188 68.195312 19.636719 68.304688 19.875 C 68.378906 20.039062 68.386719 20.128906 68.382812 20.6875 C 68.375 21.5 68.246094 22.039062 67.984375 22.328125 C 67.902344 22.410156 67.851562 22.429688 67.671875 22.429688 C 67.535156 22.429688 67.414062 22.398438 67.335938 22.351562 Z M 65.425781 22.183594 C 65.019531 21.914062 65.023438 21.925781 65.136719 20.625 L 65.230469 19.535156 L 65.449219 19.324219 C 65.65625 19.125 65.683594 19.109375 65.863281 19.109375 C 66.199219 19.109375 66.398438 19.226562 66.558594 19.535156 C 66.644531 19.683594 66.648438 19.753906 66.648438 20.523438 C 66.648438 21.484375 66.605469 21.699219 66.34375 22 C 66.1875 22.171875 65.890625 22.347656 65.742188 22.347656 C 65.703125 22.347656 65.558594 22.273438 65.425781 22.183594 Z M 63.460938 22.066406 C 63.195312 21.785156 63.152344 21.59375 63.152344 20.773438 C 63.152344 20.027344 63.160156 19.984375 63.425781 19.292969 L 63.613281 18.8125 L 63.921875 18.835938 C 64.421875 18.871094 64.675781 19.019531 64.792969 19.339844 C 64.863281 19.535156 64.871094 20.828125 64.804688 21.140625 C 64.75 21.398438 64.609375 21.6875 64.476562 21.808594 C 64.363281 21.914062 63.761719 22.265625 63.691406 22.265625 C 63.667969 22.265625 63.5625 22.175781 63.460938 22.066406 Z M 62.722656 21.84375 C 62.144531 21.421875 61.523438 20.746094 61.226562 20.21875 C 61.042969 19.894531 60.847656 19.339844 60.847656 19.160156 C 60.847656 19.054688 60.867188 19.023438 60.9375 19.011719 C 61.097656 18.976562 63.171875 18.886719 63.183594 18.910156 C 63.191406 18.925781 63.117188 19.179688 63.027344 19.476562 L 62.855469 20.019531 L 62.851562 20.769531 C 62.847656 21.386719 62.859375 21.558594 62.925781 21.753906 C 62.964844 21.882812 62.988281 21.996094 62.980469 22.007812 C 62.96875 22.015625 62.855469 21.941406 62.722656 21.84375 Z M 37.078125 21.363281 C 36.738281 21.203125 36.460938 21.0625 36.460938 21.050781 C 36.460938 21.039062 36.71875 20.917969 37.039062 20.78125 C 37.441406 20.605469 37.621094 20.546875 37.636719 20.578125 C 37.664062 20.628906 37.753906 21.386719 37.753906 21.558594 C 37.753906 21.613281 37.742188 21.660156 37.726562 21.65625 C 37.707031 21.65625 37.414062 21.519531 37.078125 21.363281 Z M 81.96875 21.519531 C 81.984375 21.480469 81.996094 21.425781 81.996094 21.390625 C 81.996094 21.359375 82.039062 21.316406 82.097656 21.285156 C 82.167969 21.253906 82.207031 21.191406 82.230469 21.074219 C 82.257812 20.925781 82.277344 20.910156 82.378906 20.910156 C 82.484375 20.910156 82.5 20.925781 82.515625 21.039062 C 82.53125 21.191406 82.433594 21.414062 82.324219 21.484375 C 82.285156 21.507812 82.179688 21.546875 82.097656 21.5625 C 81.960938 21.585938 81.949219 21.582031 81.96875 21.519531 Z M 86.984375 21.332031 C 86.832031 21.285156 86.832031 21.289062 86.894531 21.078125 C 86.933594 20.925781 86.941406 20.921875 87.078125 20.949219 C 87.410156 21.011719 87.457031 21.058594 87.375 21.269531 C 87.335938 21.382812 87.226562 21.398438 86.984375 21.332031 Z M 10.800781 20.960938 C 10.8125 20.929688 10.667969 20.8125 10.457031 20.671875 C 10.253906 20.542969 10.09375 20.421875 10.09375 20.398438 C 10.09375 20.382812 10.257812 20.21875 10.457031 20.035156 C 10.691406 19.820312 10.816406 19.679688 10.800781 19.644531 C 10.777344 19.574219 10.710938 19.570312 13.957031 19.835938 C 14.761719 19.902344 16.398438 20.035156 16.796875 20.0625 L 17.171875 20.09375 L 17.171875 20.441406 L 16.980469 20.464844 C 16.871094 20.480469 16.699219 20.503906 16.585938 20.523438 C 16.355469 20.5625 16.320312 20.554688 16.320312 20.441406 C 16.320312 20.367188 16.285156 20.363281 15.210938 20.363281 C 14.171875 20.363281 14.089844 20.367188 13.96875 20.445312 C 13.820312 20.535156 13.628906 20.546875 13.398438 20.480469 C 13.269531 20.445312 13.230469 20.453125 13.140625 20.519531 C 13.011719 20.621094 12.835938 20.628906 12.707031 20.542969 C 12.640625 20.5 12.601562 20.492188 12.582031 20.519531 C 12.570312 20.546875 12.503906 20.566406 12.445312 20.566406 C 12.203125 20.566406 12.082031 20.609375 12.058594 20.710938 C 12.03125 20.820312 12.039062 20.816406 11.363281 20.929688 C 10.785156 21.027344 10.777344 21.027344 10.800781 20.960938 Z M 35.914062 20.90625 C 35.871094 20.898438 35.582031 20.832031 35.28125 20.761719 C 34.851562 20.660156 34.722656 20.613281 34.722656 20.566406 C 34.722656 20.414062 35.1875 19.816406 35.917969 19.023438 C 37.941406 16.828125 38.089844 16.695312 39.003906 16.238281 C 39.421875 16.027344 40.25 15.722656 40.289062 15.765625 C 40.300781 15.777344 40.242188 15.882812 40.15625 16 C 38.988281 17.605469 38.914062 17.722656 38.191406 19.046875 C 37.847656 19.679688 37.636719 19.980469 37.320312 20.292969 C 37.03125 20.589844 36.625 20.820312 36.320312 20.871094 C 36.230469 20.882812 36.121094 20.902344 36.078125 20.90625 C 36.03125 20.914062 35.960938 20.914062 35.914062 20.90625 Z M 85.851562 19.808594 C 85.414062 19.648438 85.230469 19.5625 85.230469 19.515625 C 85.230469 19.484375 85.28125 19.207031 85.335938 18.902344 L 85.441406 18.351562 L 85.851562 18.332031 C 86.078125 18.320312 86.265625 18.316406 86.273438 18.320312 C 86.28125 18.328125 86.34375 18.675781 86.410156 19.097656 C 86.472656 19.511719 86.535156 19.898438 86.542969 19.949219 C 86.550781 20 86.535156 20.039062 86.507812 20.035156 C 86.484375 20.035156 86.1875 19.929688 85.851562 19.808594 Z M 16.160156 19.695312 C 15.859375 19.664062 14.949219 19.585938 14.136719 19.515625 C 13.324219 19.449219 12.472656 19.371094 12.238281 19.351562 C 12.003906 19.332031 11.476562 19.28125 11.0625 19.246094 C 10.644531 19.210938 10.304688 19.160156 10.289062 19.136719 C 10.253906 19.085938 10.203125 18.820312 10.222656 18.808594 C 10.230469 18.800781 10.855469 18.855469 11.609375 18.929688 C 14.03125 19.164062 16.128906 19.355469 16.617188 19.378906 L 17.089844 19.402344 L 17.089844 19.757812 L 16.898438 19.753906 C 16.789062 19.746094 16.460938 19.722656 16.160156 19.695312 Z M 16.261719 18.945312 C 16.128906 18.929688 15.59375 18.890625 15.082031 18.863281 C 14.363281 18.820312 14.136719 18.796875 14.136719 18.757812 C 14.136719 18.667969 14.320312 18.214844 14.5 17.851562 C 14.738281 17.378906 14.976562 17.046875 15.105469 17.011719 C 15.160156 16.996094 15.453125 16.984375 15.742188 16.984375 C 16.230469 16.984375 16.285156 16.992188 16.363281 17.0625 C 16.484375 17.1875 16.5625 17.628906 16.59375 18.351562 C 16.613281 18.882812 16.609375 18.988281 16.558594 18.984375 Z M 39.472656 15.613281 C 39.449219 15.5625 41.371094 9.761719 41.421875 9.714844 C 41.4375 9.699219 42.226562 9.625 43.175781 9.558594 C 44.6875 9.441406 45.5625 9.367188 46.4375 9.285156 L 46.683594 9.265625 L 46.847656 8.894531 C 47.03125 8.460938 47.03125 8.453125 46.65625 8.265625 C 46.4375 8.160156 46.398438 8.15625 45.703125 8.140625 C 45.300781 8.132812 44.753906 8.148438 44.488281 8.171875 C 43.757812 8.246094 42.480469 8.378906 42.335938 8.394531 C 42.167969 8.421875 42.164062 8.339844 42.316406 8.09375 C 42.589844 7.660156 43.195312 7.285156 43.925781 7.105469 C 44.410156 6.980469 45.386719 6.933594 46.25 6.996094 C 46.746094 7.027344 46.832031 7.046875 47.09375 7.164062 C 47.675781 7.4375 47.878906 7.824219 47.960938 8.84375 C 47.976562 9.003906 48.015625 9.839844 48.046875 10.707031 C 48.078125 11.578125 48.117188 12.582031 48.132812 12.9375 L 48.15625 13.59375 L 47.753906 13.816406 C 45.488281 15.09375 44.839844 15.320312 43.316406 15.371094 C 42.765625 15.390625 42.5625 15.378906 42.308594 15.328125 C 41.9375 15.25 41.625 15.09375 41.507812 14.921875 C 41.460938 14.851562 41.414062 14.789062 41.410156 14.78125 C 41.402344 14.773438 41.050781 14.933594 40.628906 15.136719 C 39.585938 15.640625 39.492188 15.675781 39.472656 15.613281 Z M 39.65625 13.574219 C 39.5625 13.539062 39.445312 13.429688 39.414062 13.339844 C 39.375 13.230469 39.425781 12.789062 39.511719 12.5 L 39.578125 12.265625 L 39.863281 12.265625 C 40.015625 12.265625 40.140625 12.28125 40.140625 12.296875 C 40.140625 12.328125 40.03125 12.714844 39.855469 13.332031 C 39.808594 13.480469 39.761719 13.601562 39.746094 13.597656 C 39.726562 13.597656 39.6875 13.585938 39.65625 13.574219 Z M 48.839844 12.53125 C 48.6875 12.394531 48.636719 12.242188 48.625 11.839844 C 48.613281 11.433594 48.695312 11.277344 49.007812 11.113281 C 49.191406 11.015625 49.253906 11.003906 49.414062 11.027344 C 49.523438 11.042969 49.652344 11.101562 49.726562 11.15625 C 49.847656 11.261719 49.847656 11.261719 49.847656 11.703125 C 49.847656 12.207031 49.800781 12.355469 49.609375 12.519531 C 49.496094 12.613281 49.4375 12.628906 49.21875 12.628906 C 49.003906 12.628906 48.945312 12.613281 48.839844 12.53125 Z M 56.398438 12.125 L 55.042969 11.828125 L 54.417969 11.847656 C 53.960938 11.867188 53.625 11.851562 53.167969 11.804688 L 52.546875 11.730469 L 52.433594 11.839844 L 52.316406 11.953125 L 52.148438 11.886719 C 51.976562 11.816406 51.976562 11.816406 51.867188 11.921875 C 51.792969 11.996094 51.75 12.011719 51.738281 11.980469 C 51.71875 11.921875 51.699219 11.925781 50.917969 12.160156 C 50.652344 12.242188 50.40625 12.308594 50.367188 12.308594 C 50.308594 12.308594 50.300781 12.261719 50.316406 11.914062 C 50.324219 11.695312 50.339844 11.046875 50.347656 10.472656 C 50.355469 9.898438 50.371094 9.421875 50.378906 9.40625 C 50.386719 9.398438 50.570312 9.457031 50.78125 9.53125 C 51.164062 9.667969 52.496094 10.042969 53.445312 10.28125 C 53.726562 10.351562 54.40625 10.539062 54.960938 10.691406 C 55.519531 10.847656 56.300781 11.0625 56.699219 11.171875 C 57.101562 11.28125 57.476562 11.386719 57.539062 11.410156 C 57.675781 11.464844 57.742188 11.59375 57.832031 11.984375 C 57.871094 12.148438 57.910156 12.320312 57.921875 12.359375 C 57.933594 12.410156 57.917969 12.429688 57.84375 12.425781 C 57.792969 12.421875 57.140625 12.285156 56.398438 12.125 Z M 56.398438 12.125 "
    />
    <path
      d="M 48.308594 10.53125 L 48.308594 9.664062 L 48.523438 9.867188 C 48.855469 10.179688 48.929688 10.21875 49.222656 10.210938 C 49.464844 10.210938 49.503906 10.195312 49.753906 10.011719 C 49.902344 9.90625 50.046875 9.800781 50.078125 9.785156 C 50.117188 9.761719 50.128906 9.882812 50.128906 10.425781 L 50.128906 11.101562 L 50 10.988281 C 49.78125 10.804688 49.570312 10.726562 49.277344 10.726562 C 48.96875 10.726562 48.867188 10.789062 48.523438 11.164062 L 48.3125 11.394531 Z M 39.695312 11.039062 C 39.644531 11.011719 39.574219 10.941406 39.546875 10.890625 C 39.480469 10.765625 39.476562 10.058594 39.539062 9.886719 C 39.589844 9.734375 39.753906 9.675781 40.09375 9.675781 C 40.277344 9.675781 40.328125 9.691406 40.429688 9.792969 C 40.53125 9.902344 40.546875 9.9375 40.546875 10.195312 C 40.546875 10.5 40.496094 10.6875 40.367188 10.863281 C 40.210938 11.074219 39.921875 11.152344 39.695312 11.039062 Z M 54.496094 10.257812 C 52.882812 9.804688 51.289062 9.355469 50.953125 9.261719 L 50.339844 9.09375 L 50.316406 8.917969 C 50.292969 8.71875 50.160156 8.449219 50.03125 8.308594 C 49.863281 8.117188 49.660156 8.046875 49.265625 8.042969 C 48.835938 8.039062 48.742188 8.085938 48.597656 8.339844 C 48.515625 8.484375 48.492188 8.5 48.351562 8.5 L 48.195312 8.5 L 48.089844 8.054688 C 47.964844 7.527344 47.960938 7.449219 48.058594 7.449219 C 48.277344 7.449219 49.394531 7.773438 51.636719 8.484375 C 52.300781 8.695312 53.582031 9.089844 54.488281 9.355469 C 55.394531 9.621094 56.300781 9.898438 56.507812 9.964844 C 56.9375 10.113281 57.214844 10.300781 57.375 10.566406 C 57.503906 10.78125 57.570312 11.09375 57.484375 11.089844 C 57.453125 11.089844 56.109375 10.714844 54.496094 10.257812 Z M 58.074219 10.714844 C 57.953125 10.660156 57.828125 10.539062 57.859375 10.503906 C 57.875 10.492188 63.476562 9.796875 63.566406 9.796875 C 63.585938 9.796875 63.597656 9.878906 63.597656 9.980469 C 63.597656 10.152344 63.59375 10.160156 63.480469 10.160156 C 63.308594 10.160156 61.953125 10.339844 60.480469 10.550781 C 59.082031 10.757812 58.28125 10.808594 58.074219 10.714844 Z M 58.074219 10.714844 "
    />
    <path
      d="M 48.796875 9.683594 C 48.625 9.515625 48.617188 9.484375 48.632812 9.066406 C 48.640625 8.789062 48.707031 8.59375 48.835938 8.449219 C 48.949219 8.324219 48.957031 8.320312 49.300781 8.320312 C 49.636719 8.320312 49.65625 8.324219 49.75 8.433594 C 49.839844 8.539062 49.847656 8.582031 49.847656 8.972656 C 49.847656 9.652344 49.742188 9.804688 49.257812 9.828125 L 48.957031 9.84375 Z M 41.648438 9.359375 C 41.75 8.855469 41.949219 8.753906 43.0625 8.605469 C 44.152344 8.464844 44.9375 8.410156 45.75 8.429688 C 46.253906 8.4375 46.453125 8.457031 46.503906 8.496094 C 46.59375 8.570312 46.585938 8.777344 46.492188 8.933594 C 46.398438 9.089844 46.605469 9.058594 44.023438 9.269531 C 42.945312 9.359375 41.964844 9.441406 41.84375 9.457031 L 41.625 9.480469 Z M 55.46875 9.316406 C 55.1875 9.230469 54.183594 8.9375 53.222656 8.664062 C 52.269531 8.386719 51.46875 8.152344 51.453125 8.136719 C 51.421875 8.113281 51.679688 7.421875 52.464844 5.378906 L 52.65625 4.871094 L 53.269531 4.796875 L 53.875 4.722656 L 53.925781 3.847656 C 53.964844 3.222656 54.125 0.207031 54.132812 0.0078125 C 54.132812 0 54.183594 0 54.246094 0.0078125 L 54.355469 0.0195312 L 54.378906 0.625 C 54.394531 0.960938 54.429688 2.042969 54.457031 3.035156 C 54.484375 4.027344 54.515625 4.851562 54.535156 4.871094 C 54.550781 4.886719 54.78125 4.980469 55.046875 5.070312 L 55.527344 5.242188 L 55.597656 5.789062 C 55.632812 6.089844 55.738281 7 55.832031 7.8125 C 55.921875 8.625 56.003906 9.332031 56.011719 9.382812 C 56.039062 9.492188 56.082031 9.496094 55.46875 9.316406 Z M 98.777344 9.171875 C 98.777344 9.125 98.824219 9.109375 98.945312 9.109375 C 99.15625 9.109375 99.140625 9.207031 98.929688 9.222656 C 98.816406 9.230469 98.777344 9.21875 98.777344 9.171875 Z M 100.679688 8.964844 C 100.679688 8.902344 100.773438 8.894531 100.898438 8.941406 C 100.972656 8.972656 100.972656 8.976562 100.878906 9 C 100.726562 9.039062 100.679688 9.03125 100.679688 8.964844 Z M 100.679688 8.964844 "
    />
  </g>
</svg>
