<svg id="root" xmlns="http://www.w3.org/2000/svg" width="768" height="441" viewBox="0 0 7680 4410">
  <path
    d="M3810 3689c0-5-4-7-10-4-6 4-11-53-12-152l-3-158-45-6c-274-38-446-135-606-341-24-31-44-62-44-69s-11-26-24-43c-30-40-106-261-106-309 0-33 3-37 33-42 80-15 353 77 441 148 22 19 49 38 59 43 9 6 51 50 91 98 74 87 128 182 161 284 16 51 39 68 46 35 2-10 2-121-1-248l-5-229-25-12c-14-7-54-17-90-24-154-27-297-121-383-252-75-112-106-189-114-272l-6-79 58 8c140 17 302 94 382 182 51 55 99 125 128 187 48 101 57 74 53-149-3-182 3-171-106-195-100-23-185-78-264-171-61-73-108-182-108-255 0-42 2-44 28-44 42 0 130 28 193 62 84 44 151 114 225 234 10 15 14 17 25 7 10-10 12-45 10-134l-2-121-45-84c-66-125-84-203-80-349 3-143 27-225 92-319 55-81 73-81 128 0 65 94 89 176 92 319 4 146-14 224-80 349l-45 84-2 121c-2 89 0 124 10 134 11 10 15 8 25-7 74-120 141-190 225-234 63-34 151-62 193-62 26 0 28 2 28 44 0 73-47 182-108 255-79 93-164 148-264 171-109 24-103 13-106 195-4 218 6 248 49 158 33-71 103-174 141-208 97-88 241-154 373-170l58-8-6 77c-7 82-42 167-114 274-87 131-229 225-383 252-36 7-76 17-90 24l-25 12-5 229c-3 127-3 238-1 248 7 33 30 16 46-35 33-102 87-197 161-284 40-48 82-92 91-98 10-5 37-25 60-43 57-47 230-118 333-136 154-29 140-31 140 21 0 56-73 274-106 318-13 17-24 36-24 43s-20 38-44 69c-160 206-332 303-606 341l-45 6-3 158c-1 99-6 156-12 152-6-3-10-1-10 4 0 6-4 11-10 11-5 0-10-5-10-11z" />
</svg>