<svg id="root" xmlns="http://www.w3.org/2000/svg" width="768" height="441" viewBox="0 0 7680 4410">
  <path
    d="M3218 3379c-10-10-18-22-18-25 0-4 41-47 90-96l90-89v-45l-30-29-30-29 90-86 90-86v-64h-9c-11 0-111-100-111-111v-9h-30v-10c0-10-36-50-45-50s-45-40-45-50v-10h-30v-15c0-8-3-15-7-15-5 0-17-3-29-6l-21-6-91 91c-50 50-93 91-97 91s-20-14-36-31l-29-31-24 6-24 6-84 86-85 86-21-13-22-14v-73l15-12 15-12v-49l15-5 15-6v-56l15-6 15-5v-21c0-11 6-29 13-40l12-21-57-55-58-56v-482l59-55 58-56 8-23 7-24-38-34-39-34 33-29c17-17 32-35 32-40v-11h28l6-12 5-13 23 25c13 14 33 33 44 43l22 18 265-266c146-147 273-275 281-284l16-18-41-41-42-41 52-52 52-53 34 38 33 38 21-7 21-6 56-60 57-59h490l53 56 53 55 20-10c11-6 31-11 44-11h25l6-15 5-15h49l12-15 12-15h39l15-15 15-15h59l19 19 19 19-89 88-89 87-6 22-6 23 34 37 33 38-13 5-12 4v28h-9c-5 0-41 32-81 70l-71 71 6 29 7 30h9c12 0 49 37 49 50v10h30v30h30v30h9c13 0 141 128 141 141v9h63l87-90 87-89 28 29 29 30h46l89-90c50-50 93-90 96-90s14 9 25 20l20 20v38l-15 12-15 12v46l-15 12-15 12v44l-12 12c-6 6-17 26-23 44-7 18-15 40-19 48l-7 16 60 59 60 60 1 238v237l-52 50c-29 28-56 50-59 50-4 0-10 14-14 31l-7 31 33 29 33 30-53 50-52 51-34-37-33-38-16 6-16 6v21h-30v10c0 11-190 200-202 200-4 0-8 5-8 10 0 13-37 50-50 50-5 0-10 4-10 8 0 12-159 172-171 172h-9v30h-10c-13 0-50 37-50 51 0 6 17 26 37 45l37 35-52 52-51 51-29-32-29-32h-43l-23 26c-48 56-66 74-77 74h-10v30h-493l-56-61-56-62-32 17c-18 9-38 16-46 16h-15l-12 15-12 15h-46l-12 15-12 15h-46l-12 15-12 15-22-1-21-1-17-19z" />
</svg>