<svg id="root" xmlns="http://www.w3.org/2000/svg" width="768" height="441" viewBox="0 0 7680 4410">
  <g>
    <path
      d="M1348 3341c54-34 213-112 442-216 543-247 520-238 520-215 0 12-84 54-295 150-88 40-204 94-257 121-129 65-364 165-408 173l-35 7 33-20zm1224-387c-45-22-52-30-52-55 0-42-26-99-62-136-30-31-30-32-19-84 6-29 21-67 32-85 29-48 86-94 115-94 40 0 89 61 149 185 55 113 75 178 75 238 0 30-4 37-31 46-58 20-150 14-207-15zm-233-66c-11-20-7-26 36-66l48-43 29 28c15 16 29 42 31 60 4 29 2 31-32 37-70 11-100 7-112-16zm1104-71c-90-28-163-54-163-57 0-4 23-17 50-30l51-24 172 13c95 7 201 16 237 20l65 7-122 62c-68 34-124 62-125 61-2 0-76-23-165-52zm-412 19c-46-15-63-43-36-59 11-7 27-12 35-12 19 0 26-74 11-118-6-16-9-32-7-35 3-2 14 26 25 63 21 66 28 160 14 168-5 3-23 0-42-7z" />
    <path
      d="M2811 2788c-7-24-35-85-62-136l-49-93 62-27c129-57 126-57 149-36 12 11 34 40 49 66 14 27 30 45 35 40 4-4 5-2 1 5-3 6 0 31 8 55 24 68 16 81-85 127-50 23-91 41-93 41-1 0-8-19-15-42zm295 10c-3-13-6-37-6-54 0-85-104-291-183-367l-29-27 36-15c54-23 66-19 119 37 77 83 157 267 157 364 0 28-49 84-73 84-8 0-17-10-21-22z" />
    <path
      d="M3220 2717c0-93-80-276-157-358-25-27-44-50-42-52 10-6 80-37 85-37 3 0-4 15-15 34-18 29-19 35-7 45s66-11 273-103c142-64 262-121 266-128s21-37 38-65c20-36 36-53 49-53 11 0 56-18 99-40 109-54 160-66 198-46 75 38 152 173 160 279 6 90-3 101-139 168-64 32-119 62-122 67-6 11-118-5-126-17-7-12-545 246-545 261 0 7 19 18 43 23l43 11-46 22c-25 12-48 22-50 22-3 0-5-15-5-33z" />
    <path
      d="M3820 2709c-102-10-254-23-337-30-84-7-153-15-153-19 0-14 433-210 464-210 41 0 318 47 366 62 19 6 77 27 129 46l94 36-134 67c-155 79-137 77-429 48zm-813-144c-21-44-95-125-114-125-8 0-21 7-29 15-26 25-34 17-34-35s11-61 55-44c28 11 156 207 142 220-2 2-11-12-20-31zm143-282c0-3 59-90 132-192s161-229 197-281c115-169 117-171 248-227 182-79 169-84 122 53-22 64-48 133-59 153-27 54-170 284-183 297-7 6-57 30-112 54-55 23-155 67-222 96-68 29-123 50-123 47zm1045-88c0-84-3-96-34-158s-107-147-141-159c-8-3-13-8-10-10 3-3 68-34 145-68 94-42 157-64 193-68l53-5 53 55c67 69 96 141 96 237 0 85-18 112-104 151-34 15-104 48-156 72l-95 45v-92zm-1141 37c26-70 118-277 129-289 15-15 227-104 226-95 0 4-60 90-132 191-124 173-135 186-184 207l-52 23 13-37zm1971-133c-77-55-144-104-149-109-8-8 134-86 184-100 32-9 249 5 261 17 5 5 12 50 15 99 6 103 13 92-96 152l-75 40-140-99z" />
    <path
      d="M4580 2020c0-45-7-88-19-121-25-64-92-154-132-175-17-8-29-17-27-20 3-2 103-47 222-99 187-81 216-91 202-70-40 60-6 59 138-4 61-27 156-68 211-92s112-55 127-70c27-26 28-27 59-10 50 27 91 108 97 190 3 45 1 71-7 75-6 4-11 2-11-3 0-19-21-12-144 48-67 32-169 82-228 110-59 29-112 59-118 66-16 20-4 35 28 36 19 0-38 33-178 104-113 57-208 104-212 104-5 1-8-30-8-69z" />
    <path
      d="M5505 1879c-209-15-402-28-430-28l-50-1 30-18c17-9 108-55 203-101l174-83 67 6c37 4 143 20 237 35 159 27 229 48 437 129 14 6 1 17-61 50-97 51-74 51-607 11zm-9-281c19-87-10-163-93-246-29-29-53-55-53-58 0-12 41 0 87 26 70 40 104 103 104 193 1 67-16 117-38 117-11 0-13-8-7-32z" />
    <path
      d="M5571 1531c-2-98-43-183-110-228-43-29-20-30 25-2 66 40 114 167 94 249-7 33-8 31-9-19zm-885-53c4-40 12-122 18-182l11-110 80-33c44-17 85-32 92-33 6 0 43 30 82 68l71 67-78 103c-74 98-81 104-157 141-44 21-90 42-103 46l-23 7 7-74z" />
    <path
      d="M5610 1497c0-74-20-121-76-178l-45-46 68-6c63-6 126 1 152 17 16 10 33 86 27 120-4 20-28 52-66 90l-60 60v-57zm-709 2c14-19 61-83 105-144 308-430 477-651 511-669 43-22 145-58 150-53 2 2-9 30-23 63-14 32-39 94-55 136-41 113-70 165-186 345l-105 162-141 62c-78 34-173 77-212 97l-69 34 25-33z" />
  </g>
</svg>