<svg xmlns="http://www.w3.org/2000/svg" id="root" viewBox="0 0 100 68">
  <path
    d="M 50.816406 46.472656 L 45.683594 44.722656 L 42.035156 41.222656 L 43.566406 38.546875 C 45.101562 35.867188 45.101562 35.867188 48.460938 33.457031 C 52.378906 30.617188 53.304688 30.300781 57.960938 30.167969 L 61 30.089844 L 65.023438 35.972656 L 64.230469 36.425781 C 62.746094 37.300781 61.664062 38.464844 60.417969 40.453125 C 59.757812 41.542969 59.042969 42.414062 58.886719 42.414062 C 58.144531 42.414062 57.617188 43.503906 57.191406 45.835938 C 56.875 47.691406 56.6875 48.25 56.371094 48.222656 C 56.132812 48.195312 53.648438 47.425781 50.816406 46.472656 Z M 50.816406 46.472656 "
  />
  <path
    d="M 77.773438 48.488281 C 77.773438 48.035156 77.667969 47.453125 77.507812 47.1875 C 77.21875 46.65625 77.058594 46.523438 69.835938 41.671875 C 67.140625 39.871094 64.917969 38.308594 64.890625 38.226562 C 64.835938 38.121094 65.179688 37.828125 65.605469 37.589844 L 66.398438 37.140625 L 68.832031 38.679688 C 70.179688 39.5 72.90625 41.195312 74.863281 42.414062 C 76.820312 43.609375 78.460938 44.644531 78.488281 44.667969 C 78.539062 44.695312 78.671875 45.304688 78.804688 45.996094 C 79.015625 47.082031 78.964844 47.480469 78.539062 48.300781 C 77.933594 49.519531 77.773438 49.546875 77.773438 48.488281 Z M 77.773438 48.488281 "
  />
  <path
    d="M 72.828125 52.886719 C 72.085938 52.542969 68.832031 50.582031 65.632812 48.511719 L 59.785156 44.722656 L 60.3125 43.902344 C 60.605469 43.449219 61.34375 42.285156 61.980469 41.277344 C 62.589844 40.296875 63.222656 39.527344 63.355469 39.554688 C 63.515625 39.605469 66.398438 41.488281 69.757812 43.742188 L 75.84375 47.851562 L 76 49.308594 C 76.160156 50.632812 76.105469 50.820312 75.5 51.296875 C 75.046875 51.667969 74.835938 52.117188 74.8125 52.703125 C 74.785156 53.710938 74.625 53.710938 72.828125 52.886719 Z M 72.828125 52.886719 "
  />
  <path
    d="M 68.25 57.023438 C 67.007812 56.332031 64.308594 54.398438 62.296875 52.703125 L 58.59375 49.652344 L 58.671875 48.117188 C 58.699219 47.242188 58.777344 46.5 58.832031 46.445312 C 59.015625 46.285156 59.917969 46.816406 64.28125 49.707031 C 72.164062 54.847656 72.933594 55.246094 74.996094 55.0625 L 76.292969 54.957031 L 74.519531 56.625 C 72.90625 58.1875 72.640625 58.320312 71.609375 58.296875 C 70.789062 58.296875 69.890625 57.949219 68.25 57.023438 Z M 68.25 57.023438 "
  />
  <path
    d="M 39.386719 37.988281 C 38.59375 37.300781 37.984375 36.609375 37.984375 36.453125 C 38.011719 36.265625 38.699219 35.046875 39.546875 33.746094 C 41.027344 31.441406 41.1875 31.308594 43.753906 29.769531 C 45.234375 28.894531 46.820312 28.046875 47.324219 27.863281 C 48.566406 27.464844 54.8125 27.464844 55.234375 27.886719 C 55.5 28.152344 55.074219 28.339844 53.304688 28.816406 C 51.664062 29.242188 50.632812 29.71875 49.414062 30.59375 C 44.019531 34.488281 43.910156 34.59375 42.722656 36.453125 C 42.058594 37.457031 41.53125 38.441406 41.53125 38.597656 C 41.53125 39.339844 40.683594 39.101562 39.386719 37.988281 Z M 39.386719 37.988281 "
  />
  <path
    d="M 36.664062 33.347656 C 36.082031 32.5 36.132812 32.105469 36.929688 31.8125 C 38.09375 31.359375 39.625 26.882812 39.308594 24.839844 C 38.992188 22.957031 38.515625 22.425781 34.46875 19.695312 C 18.464844 8.878906 16.636719 7.6875 15.84375 7.6875 C 15.234375 7.6875 14.707031 8.007812 13.753906 8.960938 L 12.457031 10.207031 L 12.40625 12.195312 C 12.351562 14.976562 12.351562 14.976562 13.09375 15.851562 L 13.753906 16.648438 L 13.144531 16.78125 C 12.035156 17.074219 10.683594 16.515625 7.007812 14.261719 C -0.585938 9.625 -0.132812 10.101562 0.105469 7.078125 C 0.289062 4.71875 0.449219 4.453125 2.800781 1.960938 C 3.992188 0.714844 4.257812 0.558594 5.816406 0.292969 L 7.511719 0 L 12.828125 3.101562 C 15.738281 4.773438 18.488281 6.441406 18.9375 6.785156 C 19.390625 7.105469 24.734375 10.523438 30.84375 14.367188 C 36.929688 18.210938 43.515625 22.375 45.472656 23.621094 L 48.992188 25.847656 L 47.589844 26.058594 C 46.53125 26.21875 45.394531 26.722656 43.011719 28.179688 C 39.839844 30.089844 39.019531 30.882812 37.933594 33.085938 C 37.429688 34.09375 37.191406 34.144531 36.664062 33.347656 Z M 36.664062 33.347656 "
  />
  <path
    d="M 33.699219 28.578125 C 14.679688 15.5625 14.019531 15.03125 14.019531 13.46875 C 14.046875 11.957031 14.46875 10.605469 15.15625 9.914062 L 15.84375 9.226562 L 26.425781 16.355469 C 37.511719 23.804688 37.5625 23.832031 37.5625 25.714844 C 37.5625 26.5625 36.585938 29.875 36.292969 30.0625 C 36.160156 30.140625 34.996094 29.453125 33.699219 28.578125 Z M 33.699219 28.578125 "
  />
  <path
    d="M 76.097656 52.957031 L 76.453125 52.242188 C 76.453125 52.242188 100.320312 67.796875 99.996094 68 C 99.667969 68.199219 76.097656 52.957031 76.097656 52.957031 Z M 76.097656 52.957031 "
  />
</svg>
