<svg xmlns="http://www.w3.org/2000/svg" id="root" viewBox="2100.14 900 3779.99 2565.07">
  <path
    d="m 4021,2653 -194,-66 -69,-66 -69,-66 58,-101 c 58,-101 58,-101 185,-192 148,-107 183,-119 359,-124 l 115,-3 76,111 76,111 -30,17 c -56,33 -97,77 -144,152 -25,41 -52,74 -58,74 -28,0 -48,41 -64,129 -12,70 -19,91 -31,90 -9,-1 -103,-30 -210,-66 z"
  ></path>
  <path
    d="m 5040,2729 c 0,-17 -4,-39 -10,-49 -11,-20 -17,-25 -290,-208 -102,-68 -186,-127 -187,-130 -2,-4 11,-15 27,-24 l 30,-17 92,58 c 51,31 154,95 228,141 74,45 136,84 137,85 2,1 7,24 12,50 8,41 6,56 -10,87 -23,46 -29,47 -29,7 z"
  ></path>
  <path
    d="m 4853,2895 c -28,-13 -151,-87 -272,-165 l -221,-143 20,-31 c 11,-17 39,-61 63,-99 23,-37 47,-66 52,-65 6,2 115,73 242,158 l 230,155 6,55 c 6,50 4,57 -19,75 -17,14 -25,31 -26,53 -1,38 -7,38 -75,7 z"
  ></path>
  <path
    d="m 4680,3051 c -47,-26 -149,-99 -225,-163 l -140,-115 3,-58 c 1,-33 4,-61 6,-63 7,-6 41,14 206,123 298,194 327,209 405,202 l 49,-4 -67,63 c -61,59 -71,64 -110,63 -31,0 -65,-13 -127,-48 z"
  ></path>
  <path
    d="m 3589,2333 c -30,-26 -53,-52 -53,-58 1,-7 27,-53 59,-102 56,-87 62,-92 159,-150 56,-33 116,-65 135,-72 47,-15 283,-15 299,1 10,10 -6,17 -73,35 -62,16 -101,34 -147,67 -204,147 -208,151 -253,221 -25,38 -45,75 -45,81 0,28 -32,19 -81,-23 z"
  ></path>
  <path
    d="m 3486,2158 c -22,-32 -20,-47 10,-58 44,-17 102,-186 90,-263 -12,-71 -30,-91 -183,-194 -605,-408 -674,-453 -704,-453 -23,0 -43,12 -79,48 l -49,47 -2,75 c -2,105 -2,105 26,138 l 25,30 -23,5 c -42,11 -93,-10 -232,-95 -287,-175 -270,-157 -261,-271 7,-89 13,-99 102,-193 45,-47 55,-53 114,-63 l 64,-11 201,117 c 110,63 214,126 231,139 17,12 219,141 450,286 230,145 479,302 553,349 l 133,84 -53,8 c -40,6 -83,25 -173,80 -120,72 -151,102 -192,185 -19,38 -28,40 -48,10 z"
  ></path>
  <path
    d="m 3374,1978 c -719,-491 -744,-511 -744,-570 1,-57 17,-108 43,-134 l 26,-26 400,269 c 419,281 421,282 421,353 0,32 -37,157 -48,164 -5,3 -49,-23 -98,-56 z"
  ></path>
  <path
    d="m 4976.6782,2897.5637 13.3945,-26.8789 c 0,0 902.2715,586.7481 889.9273,594.3152 -12.3442,7.5671 -903.3218,-567.4363 -903.3218,-567.4363 z"
  ></path>
</svg>
