<svg id="root" xmlns="http://www.w3.org/2000/svg" width="768" height="441" viewBox="0 0 7680 4410">
  <path
    d="M2810 3663c1-138 22-548 35-692 41-432 135-890 254-1233 11-32 23-79 26-105 8-56 44-123 81-152 22-17 25-26 21-50-7-35-1-39 93-46 41-3 69-10 76-20 13-18 57-35 90-35 34 0 30-12-12-35-64-34-100-84-108-149-13-111 39-209 158-303 39-31 97-81 129-111l58-55 97 7c72 6 106 13 131 29 19 11 53 30 75 41 34 18 42 27 47 58 3 20 19 53 35 73 61 78 74 100 85 154 15 74 5 178-20 212-22 30-19 39 14 39 12 0 34 9 48 20 16 13 52 24 98 30 63 7 76 12 94 37 11 15 44 56 73 90l53 63-7 93c-6 93-6 95 30 178 21 46 51 111 67 143s29 65 29 73c0 7 9 32 20 53 17 34 20 56 18 148-2 106-2 109 36 187 21 44 73 184 116 310 43 127 92 265 109 307 17 43 38 119 47 170s29 125 44 163c15 39 31 85 35 104l7 34-40-5c-24-4-52-16-69-32-36-34-95-53-124-40-16 8-33 4-67-13-39-20-61-23-151-23-126 0-162-9-227-55-43-31-56-35-110-35-113 0-360 89-500 181-35 23-75 42-89 42-13 0-45-15-71-32s-57-31-68-31c-12 0-48-11-81-25-70-29-123-31-171-9-19 9-97 79-173 155l-139 139h-202v-47z" />
</svg>