<svg xmlns="http://www.w3.org/2000/svg" id="root" viewBox="0 0 100 132">
  <g>
    <path
      d="M 0 129.953125 C 0.0429688 123.949219 0.964844 106.105469 1.535156 99.835938 C 3.332031 81.035156 7.449219 61.105469 12.664062 46.175781 C 13.144531 44.785156 13.671875 42.738281 13.804688 41.605469 C 14.152344 39.167969 15.730469 36.253906 17.351562 34.992188 C 18.316406 34.25 18.449219 33.859375 18.273438 32.816406 C 17.964844 31.292969 18.230469 31.117188 22.347656 30.8125 C 24.144531 30.683594 25.371094 30.378906 25.679688 29.941406 C 26.25 29.160156 28.175781 28.417969 29.625 28.417969 C 31.113281 28.417969 30.9375 27.898438 29.097656 26.894531 C 26.292969 25.417969 24.714844 23.242188 24.363281 20.410156 C 23.792969 15.582031 26.074219 11.316406 31.289062 7.222656 C 32.996094 5.875 35.539062 3.699219 36.941406 2.394531 L 39.484375 0 L 43.734375 0.304688 C 46.890625 0.566406 48.378906 0.871094 49.472656 1.566406 C 50.308594 2.046875 51.796875 2.871094 52.761719 3.351562 C 54.25 4.132812 54.601562 4.527344 54.820312 5.875 C 54.953125 6.746094 55.652344 8.183594 56.355469 9.050781 C 59.027344 12.445312 59.597656 13.40625 60.078125 15.753906 C 60.734375 18.976562 60.296875 23.5 59.203125 24.980469 C 58.238281 26.285156 58.371094 26.679688 59.816406 26.679688 C 60.34375 26.679688 61.304688 27.070312 61.917969 27.550781 C 62.621094 28.113281 64.199219 28.59375 66.214844 28.855469 C 68.972656 29.160156 69.542969 29.375 70.332031 30.464844 C 70.816406 31.117188 72.261719 32.902344 73.53125 34.382812 L 75.855469 37.125 L 75.546875 41.171875 C 75.285156 45.21875 75.285156 45.304688 76.863281 48.917969 C 77.78125 50.917969 79.097656 53.75 79.796875 55.140625 C 80.5 56.535156 81.070312 57.96875 81.070312 58.320312 C 81.070312 58.625 81.464844 59.710938 81.945312 60.625 C 82.691406 62.105469 82.820312 63.0625 82.734375 67.066406 C 82.648438 71.679688 82.648438 71.808594 84.3125 75.203125 C 85.230469 77.121094 87.511719 83.210938 89.394531 88.695312 C 91.28125 94.222656 93.425781 100.230469 94.171875 102.058594 C 94.917969 103.929688 95.835938 107.238281 96.230469 109.457031 C 96.625 111.675781 97.503906 114.894531 98.160156 116.550781 C 98.816406 118.246094 99.519531 120.25 99.691406 121.074219 L 100 122.554688 L 98.246094 122.339844 C 97.195312 122.164062 95.96875 121.640625 95.222656 120.945312 C 93.644531 119.464844 91.058594 118.640625 89.789062 119.203125 C 89.089844 119.554688 88.34375 119.378906 86.855469 118.640625 C 85.144531 117.769531 84.179688 117.636719 80.238281 117.636719 C 74.714844 117.636719 73.136719 117.246094 70.289062 115.246094 C 68.40625 113.894531 67.835938 113.722656 65.46875 113.722656 C 60.515625 113.722656 49.691406 117.59375 43.558594 121.597656 C 42.023438 122.597656 40.273438 123.425781 39.65625 123.425781 C 39.089844 123.425781 37.6875 122.773438 36.546875 122.035156 C 35.40625 121.292969 34.050781 120.683594 33.566406 120.683594 C 33.042969 120.683594 31.464844 120.207031 30.015625 119.597656 C 26.949219 118.335938 24.628906 118.246094 22.523438 119.203125 C 21.691406 119.597656 18.273438 122.644531 14.941406 125.949219 L 8.851562 132 L 0 132 Z M 0 129.953125 "
    />
  </g>
</svg>
