<svg xmlns="http://www.w3.org/2000/svg" id="root" viewBox="0 0 100 102">
  <g>
    <path
      d="M 82.175781 101.027344 C 80.707031 100.964844 78.40625 100.832031 77.066406 100.734375 C 75.730469 100.625 74.085938 100.515625 73.417969 100.480469 C 72.75 100.445312 71.859375 100.359375 71.449219 100.285156 L 70.679688 100.152344 L 70.679688 99.265625 L 71.386719 99.035156 C 71.765625 98.898438 72.300781 98.753906 72.566406 98.707031 C 72.835938 98.65625 73.929688 98.449219 75 98.242188 C 77.480469 97.769531 77.847656 97.769531 78.675781 98.230469 C 79.890625 98.925781 80.863281 99.203125 82.421875 99.351562 C 84.160156 99.507812 83.992188 99.507812 86.433594 99.335938 C 88.566406 99.203125 88.90625 99.132812 90.121094 98.558594 L 90.9375 98.183594 L 92.273438 98.183594 C 93.589844 98.183594 95.949219 98.5 97.566406 98.886719 C 98.003906 98.996094 98.480469 99.105469 98.636719 99.144531 C 98.855469 99.191406 98.90625 99.289062 98.90625 99.628906 C 98.90625 99.96875 98.855469 100.054688 98.675781 100.054688 C 98.550781 100.054688 98.261719 100.128906 98.042969 100.226562 C 97.480469 100.457031 96.898438 100.503906 92.398438 100.785156 C 87.285156 101.113281 85.402344 101.148438 82.175781 101.027344 Z M 82.175781 101.027344 "
    />
    <path
      d="M 82.054688 98.960938 C 81.242188 98.898438 80.558594 98.765625 79.988281 98.558594 L 79.136719 98.242188 L 79.101562 97.792969 C 79.0625 97.429688 79.125 97.269531 79.464844 96.929688 L 79.867188 96.515625 L 80.414062 96.578125 C 80.71875 96.601562 81.53125 96.746094 82.238281 96.882812 C 84.71875 97.355469 87.019531 97.332031 87.796875 96.820312 C 88.101562 96.625 89.660156 96.578125 89.660156 96.773438 C 89.660156 96.832031 89.828125 96.96875 90.023438 97.078125 C 90.316406 97.234375 90.390625 97.34375 90.390625 97.671875 L 90.390625 98.085938 L 89.390625 98.414062 C 87.957031 98.886719 84.464844 99.144531 82.054688 98.960938 Z M 82.542969 95.898438 C 82.140625 95.835938 81.777344 95.714844 81.726562 95.640625 C 81.558594 95.375 81.628906 94.292969 81.886719 93.246094 C 82.410156 91.046875 82.507812 89.84375 82.589844 84.675781 L 82.664062 79.691406 L 83.578125 79.617188 C 84.074219 79.570312 85.046875 79.535156 85.742188 79.519531 L 86.996094 79.507812 L 86.933594 81.1875 C 86.691406 86.960938 86.738281 88.738281 87.164062 90.414062 C 87.261719 90.804688 87.433594 91.691406 87.542969 92.394531 C 87.652344 93.101562 87.808594 93.855469 87.90625 94.085938 C 88.1875 94.742188 88.125 95.351562 87.761719 95.691406 L 87.445312 95.980469 L 85.363281 96.007812 C 84.210938 96.019531 82.945312 95.96875 82.542969 95.898438 Z M 37.164062 93.0625 C 36.765625 92.96875 35.609375 92.832031 34.597656 92.761719 C 32.808594 92.652344 31.449219 92.433594 30.71875 92.152344 C 30.511719 92.078125 29.976562 91.945312 29.5 91.847656 C 29.039062 91.761719 28.34375 91.570312 27.980469 91.433594 C 27.617188 91.300781 27.164062 91.191406 26.996094 91.179688 C 26.484375 91.179688 26.351562 90.914062 26.433594 90.050781 C 26.507812 89.332031 26.933594 87.886719 27.25 87.289062 L 27.398438 87.011719 L 28.152344 87.082031 C 28.613281 87.121094 30 87.519531 31.835938 88.128906 C 33.46875 88.675781 34.9375 89.113281 35.109375 89.113281 C 35.28125 89.113281 36.007812 89.246094 36.714844 89.417969 L 37.992188 89.734375 L 40.4375 89.734375 C 42.894531 89.734375 44.257812 89.625 46.289062 89.285156 C 47.796875 89.027344 47.980469 88.980469 51.300781 87.886719 C 54.476562 86.851562 55.195312 86.730469 55.28125 87.203125 C 55.425781 87.96875 55.597656 89.636719 55.597656 90.242188 C 55.597656 90.789062 55.546875 90.949219 55.363281 91.058594 C 54.964844 91.265625 53.152344 91.640625 51.265625 91.910156 C 50.269531 92.042969 48.796875 92.261719 47.992188 92.394531 C 46.59375 92.613281 45.414062 92.722656 41.242188 93.003906 C 40.207031 93.078125 39.027344 93.148438 38.625 93.1875 C 38.210938 93.210938 37.578125 93.160156 37.164062 93.0625 Z M 37.164062 93.0625 "
    />
    <path
      d="M 38.320312 88.980469 C 38.015625 88.917969 37.203125 88.785156 36.496094 88.699219 C 34.292969 88.40625 32.945312 88.03125 32.214844 87.519531 C 32.042969 87.386719 31.386719 87.15625 30.753906 86.984375 C 29.5 86.65625 27.871094 86.097656 27.3125 85.804688 C 27.117188 85.695312 26.410156 85.136719 25.742188 84.554688 C 25.085938 83.984375 24.0625 83.191406 23.492188 82.792969 C 22.347656 82.027344 21.046875 80.90625 21.046875 80.675781 C 21.046875 80.601562 20.609375 80.054688 20.074219 79.460938 L 19.101562 78.378906 L 19.101562 77.320312 L 19.441406 77.320312 C 19.890625 77.320312 20.71875 77.660156 21.605469 78.195312 C 22.761719 78.914062 25.546875 80.214844 26.214844 80.371094 C 26.558594 80.445312 27.042969 80.617188 27.3125 80.761719 C 27.578125 80.894531 28.480469 81.234375 29.320312 81.527344 C 30.15625 81.808594 31.300781 82.207031 31.875 82.414062 C 33.164062 82.863281 35.523438 83.351562 37.285156 83.519531 C 38.027344 83.59375 39.0625 83.703125 39.597656 83.765625 C 40.582031 83.875 43.566406 83.75 45.4375 83.53125 C 46.496094 83.410156 49.027344 82.851562 50.488281 82.425781 C 53.710938 81.476562 55.960938 80.554688 60.378906 78.390625 C 61.835938 77.671875 62.675781 77.320312 62.957031 77.320312 L 63.382812 77.320312 L 63.382812 77.792969 C 63.382812 78.136719 63.261719 78.453125 62.957031 78.902344 C 61.496094 81.066406 57.261719 84.785156 55.046875 85.855469 C 54.511719 86.109375 53.746094 86.5 53.34375 86.71875 C 52.664062 87.09375 51.945312 87.3125 49.636719 87.835938 C 49.136719 87.945312 48.394531 88.140625 47.980469 88.261719 C 46.996094 88.554688 44.695312 88.847656 42.09375 88.992188 C 39.648438 89.125 39.085938 89.125 38.320312 88.980469 Z M 38.320312 88.980469 "
    />
    <path
      d="M 38.746094 83.21875 C 38.34375 83.121094 37.808594 83.046875 37.566406 83.035156 C 37.007812 83.035156 35.632812 82.839844 34.488281 82.597656 C 34.027344 82.5 33.527344 82.425781 33.394531 82.425781 C 33.089844 82.425781 31.714844 82.011719 30.597656 81.574219 C 30.132812 81.394531 29.257812 81.089844 28.648438 80.90625 C 28.054688 80.710938 27.46875 80.492188 27.371094 80.410156 C 27.273438 80.324219 26.75 80.09375 26.214844 79.886719 C 24.707031 79.328125 23.46875 78.804688 22.980469 78.535156 C 22.738281 78.402344 22.46875 78.292969 22.382812 78.292969 C 22.285156 78.292969 21.972656 78.136719 21.667969 77.941406 C 21.363281 77.746094 20.65625 77.417969 20.109375 77.199219 C 18.722656 76.652344 17.785156 75.875 17.421875 74.972656 C 17.042969 74.015625 16.886719 73.078125 16.933594 72.019531 L 16.972656 71.121094 L 16.75 71.121094 C 16.433594 71.121094 16.132812 70.355469 15.765625 68.6875 C 15.597656 67.921875 15.351562 66.851562 15.207031 66.332031 C 14.78125 64.652344 14.867188 64.191406 15.621094 64.191406 L 16.121094 64.191406 L 15.695312 63.972656 L 15.269531 63.765625 L 15.230469 62.671875 C 15.21875 62.074219 15.242188 60.921875 15.292969 60.117188 L 15.390625 58.660156 L 15.863281 58.621094 L 16.339844 58.585938 L 17.519531 59.363281 C 18.164062 59.800781 18.90625 60.265625 19.171875 60.410156 C 19.429688 60.554688 19.730469 60.714844 19.828125 60.773438 C 19.925781 60.835938 20.558594 61.164062 21.230469 61.492188 C 23.832031 62.78125 26.132812 63.59375 29.015625 64.238281 C 31.449219 64.773438 32.445312 64.921875 37.324219 65.46875 L 41.265625 65.894531 L 42.554688 65.769531 C 43.273438 65.699219 44.378906 65.566406 45.011719 65.46875 C 45.644531 65.371094 47.398438 65.152344 48.90625 64.980469 C 53.539062 64.433594 54.757812 64.179688 57.238281 63.167969 C 58.101562 62.804688 59.039062 62.453125 59.304688 62.367188 C 60.644531 61.941406 63.453125 60.457031 64.855469 59.4375 C 65.460938 58.988281 65.765625 58.839844 66.082031 58.839844 L 66.507812 58.839844 L 66.582031 59.425781 C 66.628906 59.742188 66.726562 60.835938 66.800781 61.867188 L 66.945312 63.742188 L 66.617188 64.03125 C 66.433594 64.191406 66.191406 64.324219 66.082031 64.324219 C 65.972656 64.335938 66.046875 64.375 66.242188 64.421875 L 66.605469 64.496094 L 66.714844 65.589844 C 66.847656 66.816406 66.65625 69.941406 66.410156 70.621094 L 66.265625 71.023438 L 65.621094 70.972656 C 64.332031 70.863281 63.625 69.890625 63.625 68.214844 C 63.625 66.851562 63.808594 66.113281 64.320312 65.429688 C 64.585938 65.089844 64.648438 64.957031 64.476562 65.101562 C 63.84375 65.660156 63.140625 67.230469 63.140625 68.09375 C 63.140625 68.699219 63.648438 69.976562 64.085938 70.425781 C 64.464844 70.828125 65.207031 71.242188 65.546875 71.242188 C 65.972656 71.242188 66.09375 71.546875 66.023438 72.359375 C 65.9375 73.308594 65.109375 75.035156 64.28125 75.960938 C 63.6875 76.640625 63.164062 76.929688 60.402344 78.109375 C 59.730469 78.402344 58.589844 78.890625 57.847656 79.203125 C 57.117188 79.519531 56.179688 79.921875 55.777344 80.09375 C 55.378906 80.273438 54.964844 80.480469 54.867188 80.566406 C 54.539062 80.820312 52.175781 81.648438 50.914062 81.953125 C 50.242188 82.097656 49.636719 82.28125 49.5625 82.328125 C 49.246094 82.558594 46.121094 83.011719 43.855469 83.15625 C 40.316406 83.386719 39.488281 83.398438 38.746094 83.21875 Z M 41.363281 77.429688 C 41.433594 77.308594 41.484375 77.054688 41.484375 76.847656 L 41.484375 76.480469 L 41.035156 76.445312 L 40.570312 76.410156 L 40.535156 75.316406 C 40.511719 74.71875 40.535156 74.085938 40.570312 73.929688 L 40.644531 73.648438 L 41.132812 73.699219 L 41.605469 73.746094 L 41.546875 72.640625 C 41.398438 70.488281 41.15625 69.308594 40.875 69.480469 C 40.582031 69.660156 40.488281 70.730469 40.460938 73.855469 L 40.449219 77.152344 L 40.667969 77.480469 C 40.898438 77.832031 41.167969 77.808594 41.363281 77.429688 Z M 45.667969 74.097656 C 45.71875 73.964844 45.644531 74.039062 45.5 74.257812 C 45.144531 74.769531 45.0625 75.535156 45.269531 76.226562 L 45.425781 76.773438 L 45.511719 75.558594 C 45.546875 74.890625 45.621094 74.234375 45.667969 74.097656 Z M 52.371094 74.769531 C 52.324219 74.464844 52.238281 74.136719 52.164062 74.039062 C 52.082031 73.90625 52.066406 73.929688 52.117188 74.160156 C 52.152344 74.328125 52.191406 74.902344 52.203125 75.4375 L 52.214844 76.410156 L 52.324219 75.863281 C 52.382812 75.558594 52.410156 75.070312 52.371094 74.769531 Z M 29.804688 74.816406 C 29.804688 74.402344 29.757812 74.171875 29.683594 74.21875 C 29.464844 74.355469 29.539062 75.496094 29.769531 75.496094 C 29.792969 75.496094 29.804688 75.191406 29.804688 74.816406 Z M 58.941406 74.171875 C 59.039062 73.832031 59.050781 70.804688 58.941406 70.085938 C 58.769531 68.96875 58.699219 69.175781 58.734375 70.660156 L 58.785156 72.117188 L 58.222656 72.082031 C 57.542969 72.019531 57.53125 72.105469 58.015625 73.054688 C 58.210938 73.429688 58.429688 73.878906 58.503906 74.074219 C 58.648438 74.464844 58.832031 74.5 58.941406 74.171875 Z M 23.550781 74.0625 C 23.636719 74.015625 23.867188 73.625 24.074219 73.199219 C 24.5 72.3125 24.683594 71.253906 24.78125 69.1875 C 24.855469 67.667969 24.730469 67.023438 24.34375 66.78125 L 24.085938 66.621094 L 23.917969 66.902344 C 23.722656 67.207031 23.515625 67.875 23.699219 67.617188 C 23.757812 67.523438 23.976562 67.472656 24.222656 67.496094 L 24.636719 67.535156 L 24.671875 68.386719 C 24.683594 68.90625 24.597656 69.78125 24.429688 70.632812 L 24.148438 72.03125 L 23.113281 72.03125 L 23.113281 73.015625 C 23.113281 74.125 23.1875 74.304688 23.550781 74.0625 Z M 57.617188 70.730469 C 57.566406 70.171875 57.507812 69.40625 57.457031 69.003906 L 57.382812 68.300781 L 57.859375 68.335938 L 58.332031 68.386719 L 58.027344 67.753906 C 57.871094 67.398438 57.699219 67.109375 57.664062 67.109375 C 57.617188 67.109375 57.519531 67.386719 57.433594 67.726562 C 57.226562 68.53125 57.382812 71.726562 57.628906 71.726562 C 57.664062 71.726562 57.664062 71.277344 57.617188 70.730469 Z M 49.878906 71.484375 C 49.660156 71.351562 48.976562 71.351562 48.539062 71.484375 C 48.320312 71.558594 48.503906 71.582031 49.148438 71.59375 C 49.78125 71.59375 50 71.570312 49.878906 71.484375 Z M 19.085938 67.898438 C 19.085938 67.570312 19.039062 67.179688 18.976562 67.046875 C 18.90625 66.878906 18.867188 67.121094 18.867188 67.777344 C 18.855469 68.3125 18.820312 68.882812 18.796875 69.054688 C 18.757812 69.25 18.796875 69.199219 18.90625 68.933594 C 19.003906 68.699219 19.085938 68.238281 19.085938 67.898438 Z M 82.90625 78.378906 C 82.714844 78.28125 82.082031 77.78125 81.519531 77.273438 C 80 75.875 79.210938 75.363281 77.09375 74.414062 C 76.035156 73.941406 75.0625 73.480469 74.9375 73.394531 C 74.160156 72.847656 72.75 71.414062 72.261719 70.671875 C 71.617188 69.6875 71.007812 67.984375 71.070312 67.339844 L 71.105469 66.925781 L 71.714844 66.9375 C 72.738281 66.960938 74.574219 67.472656 74.574219 67.742188 C 74.574219 67.789062 74.84375 67.839844 75.171875 67.839844 C 75.5 67.839844 76.230469 67.949219 76.789062 68.082031 C 78.6875 68.53125 81.398438 68.726562 85.644531 68.738281 C 89.71875 68.75 91.375 68.605469 92.726562 68.128906 C 92.992188 68.03125 93.359375 67.960938 93.539062 67.960938 C 93.992188 67.960938 95.535156 67.449219 96.496094 67 C 97.082031 66.71875 97.457031 66.621094 97.773438 66.644531 L 98.234375 66.683594 L 98.273438 67.023438 C 98.296875 67.21875 98.234375 67.632812 98.125 67.933594 C 98.027344 68.25 97.882812 68.738281 97.808594 69.03125 C 97.738281 69.308594 97.628906 69.539062 97.566406 69.539062 C 97.492188 69.539062 97.445312 69.648438 97.445312 69.78125 C 97.445312 70.234375 96.824219 71.277344 96.121094 72.007812 C 95.28125 72.894531 93.550781 74.0625 92.6875 74.34375 C 92.324219 74.453125 91.460938 74.828125 90.765625 75.167969 L 89.5 75.777344 L 88.273438 76.945312 C 86.824219 78.316406 86.605469 78.414062 84.621094 78.488281 C 83.636719 78.523438 83.175781 78.5 82.90625 78.378906 Z M 82.90625 78.378906 "
    />
    <path
      d="M 81.691406 67.703125 C 79.671875 67.558594 78.015625 67.289062 75.667969 66.742188 C 73.453125 66.234375 72.359375 65.867188 72.007812 65.515625 C 71.835938 65.34375 71.777344 65.113281 71.777344 64.6875 L 71.777344 64.082031 L 72.542969 63.863281 L 73.296875 63.644531 L 72.6875 63.582031 L 72.082031 63.523438 L 72.042969 63.058594 C 72.007812 62.648438 72.398438 61.273438 72.628906 60.96875 C 72.6875 60.910156 72.75 60.714844 72.773438 60.542969 C 72.796875 60.3125 72.894531 60.226562 73.164062 60.203125 C 74.101562 60.09375 74.367188 60.507812 74.304688 61.941406 L 74.269531 62.867188 L 74.5625 62.539062 C 74.78125 62.269531 74.828125 62.113281 74.769531 61.757812 C 74.648438 60.980469 74.34375 60.421875 73.90625 60.15625 L 73.480469 59.910156 L 73.480469 59.449219 C 73.480469 59.132812 73.578125 58.867188 73.769531 58.636719 C 73.929688 58.453125 74.085938 58.171875 74.136719 58.027344 C 74.257812 57.648438 74.953125 57.648438 76.214844 58.050781 C 77.917969 58.585938 78.710938 58.71875 81.289062 58.855469 C 83.125 58.949219 84.636719 58.949219 86.886719 58.855469 C 90.097656 58.71875 91.433594 58.550781 93.515625 58.039062 C 94.828125 57.710938 95.351562 57.699219 95.5 57.992188 C 95.898438 58.769531 96.007812 59.242188 95.960938 59.8125 L 95.898438 60.421875 L 96.53125 60.421875 L 96.875 61.308594 C 97.226562 62.28125 97.261719 62.550781 97.082031 63.023438 L 96.957031 63.339844 L 97.238281 63.339844 C 97.445312 63.339844 97.542969 63.449219 97.664062 63.824219 C 97.738281 64.09375 97.808594 64.519531 97.808594 64.773438 C 97.808594 65.46875 97.226562 65.929688 95.742188 66.367188 C 94.890625 66.621094 90.292969 67.460938 89.050781 67.582031 C 87.175781 67.765625 83.371094 67.824219 81.691406 67.703125 Z M 85.402344 65.527344 C 85.523438 65.441406 85.304688 65.40625 84.671875 65.40625 C 84.039062 65.40625 83.820312 65.441406 83.941406 65.527344 C 84.039062 65.589844 84.367188 65.648438 84.671875 65.648438 C 84.976562 65.648438 85.304688 65.589844 85.402344 65.527344 Z M 86.8125 64.3125 L 87.140625 63.824219 L 86.972656 63.085938 C 86.714844 61.929688 86.546875 61.976562 86.59375 63.21875 C 86.628906 63.863281 86.582031 64.386719 86.507812 64.542969 C 86.265625 64.980469 86.472656 64.824219 86.8125 64.3125 Z M 82.835938 64.167969 C 82.6875 63.644531 82.6875 62.828125 82.847656 62.402344 L 82.96875 62.0625 L 82.773438 62.304688 C 82.214844 63 82.191406 63.496094 82.675781 64.25 C 82.945312 64.652344 82.96875 64.640625 82.835938 64.167969 Z M 79.683594 63.460938 C 79.78125 63.277344 79.746094 63.15625 79.488281 62.867188 L 79.171875 62.488281 L 78.808594 62.695312 C 78.308594 63 78.175781 63.265625 78.441406 63.484375 C 79.003906 63.984375 79.402344 63.972656 79.683594 63.460938 Z M 90.925781 63.546875 C 91.035156 63.363281 91.007812 63.277344 90.765625 63.085938 C 90.460938 62.828125 89.84375 62.769531 89.707031 62.988281 C 89.597656 63.183594 90.28125 63.839844 90.558594 63.800781 C 90.679688 63.777344 90.851562 63.667969 90.925781 63.546875 Z M 94.828125 61.441406 C 94.867188 61.308594 95.035156 61.042969 95.207031 60.871094 C 95.390625 60.6875 95.472656 60.542969 95.414062 60.542969 C 95.011719 60.542969 94.441406 61.710938 94.609375 62.183594 L 94.707031 62.429688 L 94.746094 62.0625 C 94.757812 61.867188 94.804688 61.589844 94.828125 61.441406 Z M 84.890625 61.394531 L 85.695312 61.394531 L 85.449219 61.222656 C 85.121094 60.992188 83.894531 61.140625 83.601562 61.441406 L 83.394531 61.648438 L 83.734375 61.527344 C 83.929688 61.457031 84.441406 61.394531 84.890625 61.394531 Z M 11.726562 65.539062 C 11.191406 65.285156 10.4375 64.871094 10.0625 64.628906 C 9.671875 64.386719 9.304688 64.191406 9.246094 64.191406 C 8.992188 64.191406 7.398438 62.683594 6.972656 62.039062 C 6.714844 61.660156 6.410156 61.210938 6.300781 61.042969 C 6.179688 60.871094 6.007812 60.542969 5.898438 60.3125 C 5.804688 60.09375 5.523438 59.691406 5.304688 59.4375 C 5.074219 59.183594 4.621094 58.441406 4.304688 57.785156 C 4.003906 57.128906 3.566406 56.238281 3.34375 55.800781 C 3.125 55.363281 2.90625 54.746094 2.859375 54.402344 C 2.773438 53.773438 2.542969 52.933594 2.226562 52.09375 C 2.128906 51.828125 1.996094 51.304688 1.945312 50.9375 C 1.886719 50.574219 1.75 49.675781 1.640625 48.933594 C 1.546875 48.203125 1.375 47.21875 1.277344 46.746094 C 1.167969 46.28125 1.035156 45.261719 0.972656 44.496094 C 0.828125 42.734375 0.828125 38.394531 0.984375 37.261719 C 1.046875 36.800781 1.15625 35.839844 1.214844 35.132812 C 1.410156 33.09375 2.054688 29.992188 2.519531 28.945312 C 2.617188 28.703125 2.835938 27.960938 2.980469 27.28125 C 3.234375 26.222656 3.722656 24.824219 4.332031 23.5 C 4.429688 23.292969 4.5 23.074219 4.5 23.015625 C 4.5 22.941406 4.609375 22.796875 4.746094 22.671875 C 4.878906 22.550781 4.988281 22.332031 4.988281 22.199219 C 4.988281 21.808594 6.300781 19.78125 7.675781 18.042969 C 9.085938 16.253906 11.339844 14.222656 11.898438 14.222656 C 11.996094 14.222656 12.410156 14.054688 12.824219 13.859375 C 14.28125 13.140625 16.933594 12.644531 19.28125 12.644531 C 20.804688 12.644531 21.835938 12.8125 22.664062 13.179688 C 23.699219 13.640625 23.84375 13.859375 24.757812 16.351562 C 24.925781 16.824219 25.195312 17.480469 25.363281 17.808594 C 25.523438 18.152344 25.789062 18.917969 25.949219 19.511719 C 26.121094 20.121094 26.386719 20.898438 26.570312 21.25 C 26.945312 21.992188 28.503906 24.277344 29.34375 25.324219 C 29.730469 25.820312 29.925781 26.175781 29.925781 26.40625 C 29.925781 26.976562 29.574219 27.914062 29.183594 28.339844 C 28.992188 28.558594 28.832031 28.8125 28.832031 28.898438 C 28.832031 29.007812 28.648438 29.054688 28.25 29.054688 L 27.664062 29.054688 L 27.226562 28.605469 C 26.996094 28.351562 26.277344 27.355469 25.632812 26.382812 C 24.730469 25.019531 24.378906 24.351562 24.074219 23.464844 C 23.855469 22.832031 23.613281 22.222656 23.527344 22.125 C 23.441406 22.027344 23.332031 21.726562 23.285156 21.46875 C 23.234375 21.203125 23.101562 20.8125 22.980469 20.617188 C 22.871094 20.414062 22.6875 19.890625 22.578125 19.464844 C 22.273438 18.285156 21.105469 16.265625 20.4375 15.78125 C 19.78125 15.304688 16.496094 15.28125 14.5 15.742188 C 13.222656 16.046875 12.46875 16.449219 11.53125 17.347656 C 10.195312 18.648438 9.488281 19.695312 8.066406 22.492188 C 6.65625 25.25 6.460938 25.808594 5.402344 30.027344 C 4.84375 32.242188 4.757812 33.46875 4.757812 39.449219 C 4.746094 44.046875 4.804688 45.007812 5.242188 47.65625 C 5.804688 50.988281 6.449219 52.96875 7.761719 55.339844 C 9.269531 58.074219 10.230469 59.097656 12.933594 60.859375 L 14.113281 61.625 L 14.113281 63.183594 C 14.113281 64.03125 14.074219 65.03125 14.039062 65.382812 L 13.953125 66.015625 L 13.332031 66.015625 C 12.871094 66.015625 12.46875 65.894531 11.726562 65.539062 Z M 11.726562 65.539062 "
    />
    <path
      d="M 37.96875 64.375 C 37.203125 64.214844 35.863281 64.03125 35 63.960938 C 34.148438 63.898438 33.371094 63.777344 33.273438 63.703125 C 33.175781 63.621094 33.089844 63.097656 33.042969 62.148438 C 33.003906 61.371094 32.917969 59.9375 32.859375 58.964844 C 32.796875 57.992188 32.738281 57.054688 32.738281 56.871094 C 32.726562 56.496094 32.542969 56.421875 32.433594 56.75 C 32.398438 56.859375 32.3125 57.042969 32.25 57.140625 C 32.191406 57.238281 32.082031 57.457031 32.007812 57.625 C 31.875 57.929688 31.765625 58.125 31.363281 58.746094 C 31.035156 59.230469 31.105469 59.414062 31.484375 59.046875 C 31.703125 58.839844 31.957031 58.71875 32.191406 58.71875 L 32.566406 58.71875 L 32.726562 59.921875 C 32.882812 61.101562 32.835938 62.488281 32.617188 63.277344 L 32.519531 63.644531 L 31.910156 63.632812 C 31.570312 63.621094 30.816406 63.484375 30.242188 63.339844 L 29.195312 63.058594 L 29.195312 62.210938 L 28.953125 62.429688 C 28.527344 62.816406 27.25 62.632812 24.878906 61.832031 C 23.746094 61.457031 22.589844 61.089844 22.3125 61.03125 L 21.824219 60.910156 L 21.667969 59.414062 C 21.507812 57.941406 21.582031 56.289062 21.886719 54.355469 C 21.996094 53.648438 21.886719 53.648438 21.546875 54.378906 C 21.410156 54.660156 21.191406 55.074219 21.046875 55.292969 L 20.777344 55.679688 L 21.433594 55.679688 L 21.351562 57.601562 C 21.300781 58.648438 21.203125 59.605469 21.144531 59.730469 C 20.9375 60.117188 20.097656 59.996094 19.246094 59.449219 C 18.613281 59.046875 18.492188 58.914062 18.492188 58.621094 L 18.492188 58.28125 L 18.054688 58.332031 C 17.714844 58.367188 17.554688 58.320312 17.300781 58.074219 C 17.117188 57.917969 16.8125 57.675781 16.605469 57.554688 C 16.410156 57.429688 16.203125 57.273438 16.15625 57.199219 C 16.105469 57.140625 16.058594 56.484375 16.058594 55.765625 C 16.058594 54.320312 16.203125 53.796875 16.765625 53.371094 L 17.066406 53.128906 L 16.386719 53.128906 L 16.460938 52.253906 C 16.691406 49.433594 19.257812 43.183594 21.351562 40.386719 L 21.957031 39.570312 L 22.933594 39.570312 L 23.003906 40.242188 L 23.078125 40.910156 L 23.089844 39.804688 L 23.113281 38.707031 L 23.46875 37.980469 C 23.660156 37.589844 24.234375 36.75 24.757812 36.121094 L 25.695312 34.988281 L 26.324219 35.039062 C 26.800781 35.074219 27.25 35.257812 28.164062 35.765625 C 29.867188 36.726562 31.351562 37.324219 33.878906 38.101562 C 37.128906 39.085938 37.128906 39.085938 40.632812 39.085938 C 43.953125 39.085938 45.304688 38.941406 47.761719 38.355469 C 49.320312 37.992188 52.640625 36.65625 53.648438 35.996094 C 54.074219 35.730469 54.488281 35.5 54.5625 35.5 C 54.636719 35.5 54.878906 35.367188 55.109375 35.195312 C 55.378906 35 55.679688 34.890625 55.972656 34.890625 L 56.433594 34.890625 L 57.175781 35.804688 C 57.992188 36.800781 58.296875 37.503906 58.515625 38.929688 C 58.589844 39.414062 58.722656 40.09375 58.820312 40.421875 L 58.992188 41.03125 L 58.992188 40.582031 L 59.003906 40.121094 L 59.476562 40.121094 C 59.878906 40.121094 60.011719 40.179688 60.269531 40.519531 C 61.070312 41.578125 63.492188 46.296875 64.429688 48.617188 C 64.902344 49.773438 65.328125 51.707031 65.328125 52.628906 L 65.328125 53.25 L 65.085938 53.25 C 64.867188 53.25 64.902344 53.308594 65.269531 53.636719 C 65.984375 54.257812 66.179688 54.78125 66.179688 56.046875 C 66.179688 57.273438 66.203125 57.210938 65.121094 57.941406 C 64.488281 58.355469 63.808594 58.488281 63.550781 58.234375 C 63.480469 58.160156 63.453125 58.320312 63.480469 58.660156 L 63.527344 59.195312 L 63.175781 59.277344 C 62.992188 59.328125 62.640625 59.523438 62.398438 59.71875 C 62.105469 59.949219 61.765625 60.082031 61.351562 60.128906 L 60.742188 60.203125 L 60.65625 58.523438 C 60.621094 57.589844 60.546875 56.542969 60.5 56.203125 L 60.425781 55.558594 L 60.753906 55.558594 C 61.121094 55.558594 61.167969 55.316406 60.875 55.011719 C 60.765625 54.914062 60.523438 54.539062 60.328125 54.183594 L 59.976562 53.554688 L 60.046875 54.28125 C 60.085938 54.683594 60.183594 55.207031 60.253906 55.4375 C 60.339844 55.691406 60.402344 56.8125 60.402344 58.257812 C 60.402344 60.25 60.363281 60.6875 60.21875 60.847656 C 59.964844 61.089844 58.234375 61.785156 56.875 62.183594 C 55.597656 62.5625 53.273438 62.742188 52.824219 62.5 L 52.554688 62.355469 L 52.554688 62.78125 C 52.554688 63.132812 52.507812 63.21875 52.285156 63.265625 C 52.128906 63.292969 51.703125 63.375 51.339844 63.460938 C 50.972656 63.535156 50.390625 63.632812 50.046875 63.667969 L 49.429688 63.730469 L 49.355469 63.4375 C 49.304688 63.292969 49.269531 62.050781 49.269531 60.703125 L 49.269531 58.234375 L 49.695312 58.234375 C 49.925781 58.234375 50.121094 58.222656 50.121094 58.195312 C 50.121094 58.171875 49.964844 57.820312 49.757812 57.40625 C 49.5625 56.992188 49.390625 56.566406 49.390625 56.472656 C 49.390625 56.375 49.34375 56.289062 49.292969 56.289062 C 49.171875 56.289062 49.027344 59.496094 49.027344 62.074219 L 49.027344 63.800781 L 48.699219 63.875 C 48.503906 63.910156 46.898438 64.105469 45.109375 64.3125 C 41.230469 64.75 39.867188 64.761719 37.96875 64.375 Z M 41.277344 61.796875 C 41.121094 61.769531 40.851562 61.769531 40.667969 61.796875 C 40.472656 61.820312 40.609375 61.84375 40.9375 61.84375 C 41.277344 61.84375 41.421875 61.820312 41.277344 61.796875 Z M 40.207031 61.636719 C 40.171875 61.578125 40.011719 61.515625 39.867188 61.527344 L 39.597656 61.527344 L 39.84375 61.636719 C 40.183594 61.785156 40.292969 61.785156 40.207031 61.636719 Z M 36.507812 57.003906 C 36.339844 55.910156 36.300781 53.429688 36.421875 51.851562 C 36.546875 50.320312 36.433594 50.183594 36.242188 51.621094 C 36.058594 52.96875 36.09375 55.71875 36.3125 56.859375 C 36.410156 57.382812 36.496094 57.832031 36.496094 57.855469 C 36.496094 57.882812 36.519531 57.882812 36.558594 57.84375 C 36.59375 57.808594 36.570312 57.429688 36.507812 57.003906 Z M 45.765625 54.585938 L 45.765625 52.324219 L 45.449219 50.816406 C 45.269531 49.980469 45.046875 49.054688 44.953125 48.75 C 44.855469 48.445312 44.804688 48.335938 44.84375 48.507812 C 44.867188 48.679688 44.964844 49.199219 45.023438 49.664062 C 45.097656 50.136719 45.230469 50.757812 45.328125 51.0625 C 45.535156 51.667969 45.632812 56.191406 45.472656 57.320312 L 45.378906 57.929688 L 45.570312 57.382812 C 45.730469 56.957031 45.765625 56.324219 45.765625 54.585938 Z M 25.171875 56.773438 C 25.035156 56.140625 25.085938 51.097656 25.230469 50.269531 C 25.269531 50.074219 25.21875 50.210938 25.121094 50.574219 C 25.011719 50.9375 24.902344 51.898438 24.867188 52.703125 C 24.769531 54.527344 25.035156 57.699219 25.253906 57.46875 C 25.292969 57.445312 25.242188 57.128906 25.171875 56.773438 Z M 57.191406 55.074219 C 57.421875 52.980469 57.117188 50.746094 56.179688 47.558594 C 55.984375 46.902344 55.960938 47.183594 56.144531 47.898438 C 56.765625 50.308594 57.238281 53.894531 57.066406 54.914062 C 57.007812 55.304688 56.921875 55.949219 56.886719 56.347656 C 56.777344 57.601562 57.03125 56.507812 57.191406 55.074219 Z M 28.769531 56.398438 C 28.878906 56.191406 28.953125 55.996094 28.929688 55.972656 C 28.894531 55.949219 28.785156 56.117188 28.675781 56.347656 C 28.417969 56.871094 28.515625 56.921875 28.769531 56.398438 Z M 53.078125 55.800781 C 52.96875 55.535156 52.859375 55.339844 52.835938 55.363281 C 52.773438 55.425781 53.125 56.289062 53.210938 56.289062 C 53.234375 56.289062 53.175781 56.070312 53.078125 55.800781 Z M 52.117188 52.652344 C 52.066406 52.445312 52.007812 52.289062 51.984375 52.324219 C 51.945312 52.347656 51.957031 52.554688 52.007812 52.761719 C 52.117188 53.261719 52.214844 53.164062 52.117188 52.652344 Z M 51.777344 51.15625 C 51.667969 50.671875 51.496094 49.746094 51.398438 49.117188 C 51.289062 48.484375 51.167969 47.742188 51.105469 47.472656 L 50.996094 46.988281 L 50.984375 47.378906 C 50.972656 47.800781 51.496094 50.988281 51.703125 51.707031 C 51.933594 52.496094 51.984375 52.105469 51.777344 51.15625 Z M 36.847656 49.117188 C 36.984375 48.484375 37.117188 47.851562 37.164062 47.71875 C 37.203125 47.582031 37.152344 47.632812 37.042969 47.816406 C 36.859375 48.132812 36.484375 49.90625 36.507812 50.332031 C 36.519531 50.609375 36.59375 50.367188 36.847656 49.117188 Z M 25.730469 47.925781 C 25.65625 47.839844 25.4375 48.640625 25.378906 49.238281 L 25.304688 49.90625 L 25.535156 48.933594 C 25.65625 48.398438 25.753906 47.949219 25.730469 47.925781 Z M 21.777344 47.0625 C 21.835938 46.828125 21.875 46.609375 21.835938 46.585938 C 21.8125 46.5625 21.75 46.695312 21.703125 46.878906 C 21.65625 47.074219 21.546875 47.339844 21.460938 47.472656 C 21.230469 47.789062 21.253906 48.019531 21.472656 47.71875 C 21.582031 47.597656 21.714844 47.292969 21.777344 47.0625 Z M 44.527344 47.253906 C 44.527344 47.097656 44.441406 46.867188 44.332031 46.734375 L 44.148438 46.5 L 44.269531 46.769531 C 44.34375 46.914062 44.402344 47.144531 44.402344 47.28125 C 44.402344 47.425781 44.429688 47.535156 44.464844 47.535156 C 44.5 47.535156 44.527344 47.414062 44.527344 47.253906 Z M 31.265625 44.921875 C 31.398438 43.898438 31.265625 42.136719 31.035156 41.722656 C 30.9375 41.566406 30.925781 41.625 30.984375 41.941406 C 31.082031 42.476562 31.082031 44.933594 30.984375 46.378906 L 30.914062 47.472656 L 31.023438 46.683594 C 31.082031 46.246094 31.191406 45.457031 31.265625 44.921875 Z M 51.230469 41.75 C 51.421875 41.515625 52.371094 41.53125 52.738281 41.773438 C 52.90625 41.882812 53.199219 42.199219 53.40625 42.464844 C 53.601562 42.746094 53.769531 42.914062 53.769531 42.855469 C 53.769531 42.597656 52.738281 41.421875 52.359375 41.238281 L 51.933594 41.042969 L 51.605469 41.214844 C 50.875 41.625 50.609375 43.097656 50.804688 45.652344 L 50.898438 46.988281 L 50.996094 44.460938 C 51.046875 42.816406 51.132812 41.859375 51.230469 41.75 Z M 26.875 45.140625 C 27.082031 44.714844 27.226562 44.375 27.191406 44.375 C 27.128906 44.375 26.398438 45.785156 26.398438 45.90625 C 26.398438 46.050781 26.472656 45.929688 26.875 45.140625 Z M 59.660156 44.191406 C 59.5 43.523438 59.292969 42.539062 59.195312 42.003906 L 59.015625 41.03125 L 59.074219 41.882812 C 59.136719 42.660156 59.429688 44.09375 59.746094 45.078125 C 59.988281 45.832031 59.953125 45.417969 59.660156 44.191406 Z M 22.492188 44.433594 L 22.492188 44.070312 L 22.382812 44.3125 C 22.324219 44.445312 22.273438 44.691406 22.273438 44.859375 C 22.261719 45.105469 22.285156 45.128906 22.382812 44.980469 C 22.445312 44.886719 22.492188 44.640625 22.492188 44.433594 Z M 54.390625 43.742188 C 54.257812 43.523438 54.136719 43.390625 54.136719 43.4375 C 54.136719 43.597656 54.539062 44.253906 54.597656 44.191406 C 54.636719 44.167969 54.539062 43.960938 54.390625 43.742188 Z M 22.96875 41.761719 C 22.96875 41.261719 22.933594 41.371094 22.738281 42.429688 C 22.457031 44.046875 22.457031 44.300781 22.75 43.21875 C 22.871094 42.757812 22.980469 42.101562 22.96875 41.761719 Z M 41.007812 42.792969 C 41.398438 42.792969 41.496094 42.757812 41.398438 42.660156 C 41.230469 42.488281 40.511719 42.613281 40.195312 42.867188 L 39.964844 43.050781 L 40.230469 42.925781 C 40.378906 42.855469 40.730469 42.792969 41.007812 42.792969 Z M 30.4375 40.945312 C 30.339844 40.847656 30.230469 40.847656 30.023438 40.945312 L 29.746094 41.078125 L 30.171875 41.078125 C 30.488281 41.089844 30.546875 41.054688 30.4375 40.945312 Z M 80.839844 57.625 C 78.675781 57.527344 77.019531 57.285156 76.007812 56.894531 C 75.292969 56.628906 74.574219 56.105469 74.574219 55.851562 C 74.574219 55.753906 74.441406 55.28125 74.269531 54.804688 C 74.101562 54.332031 73.964844 53.785156 73.964844 53.589844 L 73.964844 53.25 L 74.671875 53.25 C 75.460938 53.25 75.707031 53.140625 75.644531 52.8125 L 75.609375 52.582031 L 74.367188 52.519531 C 73.6875 52.484375 73.113281 52.433594 73.078125 52.398438 C 72.773438 52.082031 72.261719 50.976562 72.261719 50.636719 L 72.261719 50.210938 L 72.726562 50.210938 C 72.96875 50.210938 73.785156 50.292969 74.511719 50.390625 C 75.253906 50.488281 77.152344 50.625 78.746094 50.707031 C 82.371094 50.878906 92.410156 50.792969 93.953125 50.574219 C 94.539062 50.488281 95 50.402344 94.988281 50.390625 C 94.964844 50.378906 93.503906 50.417969 91.726562 50.476562 C 89.953125 50.539062 85.71875 50.574219 82.300781 50.539062 L 76.09375 50.488281 L 73.964844 50.222656 C 72.796875 50.0625 71.640625 49.882812 71.410156 49.796875 L 70.984375 49.664062 L 70.949219 49.101562 L 70.914062 48.542969 L 71.3125 48.375 C 71.65625 48.226562 73.832031 48.203125 84.550781 48.214844 C 91.738281 48.226562 97.628906 48.277344 97.933594 48.335938 L 98.480469 48.445312 L 98.515625 48.910156 C 98.539062 49.164062 98.492188 49.457031 98.40625 49.554688 C 98.199219 49.808594 97.507812 50.074219 96.777344 50.199219 L 96.167969 50.308594 L 96.691406 50.320312 L 97.203125 50.332031 L 97.203125 50.828125 C 97.203125 51.097656 97.140625 51.425781 97.082031 51.546875 C 96.886719 51.910156 96.007812 52.363281 94.964844 52.628906 C 94.441406 52.761719 93.941406 52.933594 93.867188 53.007812 C 93.660156 53.210938 94.125 53.492188 94.683594 53.492188 L 95.15625 53.492188 L 95.097656 54.015625 C 95.011719 54.71875 94.683594 56.410156 94.609375 56.484375 C 94.585938 56.519531 94.015625 56.738281 93.359375 56.96875 C 92.359375 57.320312 91.886719 57.40625 90.632812 57.503906 C 88.308594 57.664062 83.152344 57.734375 80.839844 57.625 Z M 90.472656 53.664062 C 90.804688 53.601562 90.949219 53.175781 90.730469 52.921875 L 90.570312 52.726562 L 89.015625 52.8125 C 88.164062 52.859375 87.382812 52.921875 87.285156 52.957031 C 87.054688 53.054688 87.054688 53.25 87.273438 53.566406 L 87.457031 53.820312 L 88.832031 53.773438 C 89.585938 53.746094 90.328125 53.699219 90.472656 53.664062 Z M 81.691406 53.589844 C 82.019531 53.445312 82.042969 53.394531 81.886719 53.152344 C 81.726562 52.898438 80.960938 52.773438 79.660156 52.761719 C 78.832031 52.761719 78.46875 52.8125 78.429688 52.921875 C 78.371094 53.089844 78.566406 53.503906 78.757812 53.636719 C 78.976562 53.785156 81.351562 53.746094 81.691406 53.589844 Z M 81.691406 53.589844 "
    />
    <path
      d="M 38.140625 38.160156 C 37.808594 38.113281 37.117188 38.015625 36.605469 37.941406 C 34.730469 37.675781 30.472656 36.121094 28.613281 35.039062 C 28.1875 34.792969 27.640625 34.476562 27.398438 34.332031 L 26.945312 34.089844 L 26.910156 33.542969 L 26.875 33.007812 L 27.3125 32.484375 C 27.652344 32.09375 27.847656 31.972656 28.113281 31.972656 L 28.46875 31.972656 L 28.46875 31.4375 C 28.46875 30.988281 28.550781 30.792969 29.003906 30.246094 C 29.292969 29.882812 29.78125 29.066406 30.085938 28.425781 C 30.378906 27.78125 30.875 26.878906 31.167969 26.429688 C 32.054688 25.042969 33.40625 22.164062 33.746094 20.886719 C 34.148438 19.453125 34.429688 17.445312 34.429688 16.035156 C 34.429688 15.453125 34.464844 14.808594 34.5 14.601562 L 34.585938 14.222656 L 34.964844 14.222656 C 35.171875 14.234375 35.472656 14.308594 35.644531 14.40625 C 35.816406 14.503906 36.007812 14.578125 36.070312 14.589844 C 36.144531 14.589844 35.816406 14.371094 35.339844 14.113281 C 34.417969 13.59375 34.246094 13.386719 34.003906 12.535156 C 33.285156 9.910156 32.835938 8.765625 32.128906 7.71875 C 31.957031 7.476562 31.875 7.160156 31.875 6.785156 L 31.875 6.199219 L 32.273438 6.199219 C 32.492188 6.199219 33.234375 6.480469 34.015625 6.855469 C 36.460938 8.035156 37.847656 8.328125 41.546875 8.460938 C 44.015625 8.558594 45.21875 8.414062 48.785156 7.574219 C 50.230469 7.234375 51.570312 6.992188 52.226562 6.953125 L 53.296875 6.894531 L 53.261719 7.367188 L 53.222656 7.839844 L 52.066406 8.449219 C 49.429688 9.835938 48.261719 11.015625 47.738281 12.777344 C 47.601562 13.203125 47.398438 13.496094 46.945312 13.90625 C 46.605469 14.210938 46.265625 14.480469 46.179688 14.480469 C 46.105469 14.492188 46.265625 14.539062 46.53125 14.578125 L 47.019531 14.648438 L 47.054688 15.160156 C 47.082031 15.453125 47.007812 16.144531 46.910156 16.714844 L 46.738281 17.761719 L 46.910156 18.757812 C 47.175781 20.351562 47.398438 21.289062 47.796875 22.464844 C 48.1875 23.644531 49.269531 25.882812 49.84375 26.699219 C 50.023438 26.964844 50.523438 27.683594 50.949219 28.289062 C 51.363281 28.898438 52.066406 29.808594 52.492188 30.308594 C 53.140625 31.074219 53.285156 31.316406 53.285156 31.667969 L 53.285156 32.09375 L 53.710938 32.09375 C 54.539062 32.09375 55.171875 33.054688 54.9375 33.980469 C 54.84375 34.382812 53.84375 35.023438 52.25 35.730469 C 50.609375 36.449219 50.597656 36.449219 50.183594 36.507812 C 49.988281 36.546875 49.085938 36.824219 48.210938 37.128906 C 46.433594 37.738281 45.023438 38.015625 43.003906 38.175781 C 41.386719 38.296875 38.964844 38.296875 38.140625 38.160156 Z M 43.285156 35.667969 C 44.878906 35.425781 47.042969 34.902344 48.601562 34.355469 C 49.269531 34.125 49.769531 33.929688 49.695312 33.929688 C 49.5 33.917969 47.699219 34.394531 47.46875 34.515625 C 47.359375 34.574219 46.910156 34.683594 46.472656 34.769531 C 46.035156 34.84375 45.570312 34.953125 45.4375 35.011719 C 44.867188 35.242188 41.351562 35.535156 39.988281 35.464844 C 38.175781 35.367188 36.058594 34.976562 34.855469 34.539062 C 34.320312 34.34375 33.550781 34.066406 33.152344 33.917969 C 32.75 33.773438 32.152344 33.53125 31.8125 33.371094 C 31.15625 33.066406 30.183594 32.777344 30.363281 32.933594 C 30.425781 32.984375 31.351562 33.433594 32.410156 33.917969 L 34.355469 34.804688 L 36.667969 35.28125 C 40.21875 35.996094 40.816406 36.035156 43.285156 35.667969 Z M 44.488281 15.269531 L 44.828125 15.074219 L 44.101562 15.160156 C 43.152344 15.269531 39.320312 15.28125 38.382812 15.171875 C 37.859375 15.113281 37.761719 15.125 38.027344 15.207031 C 39.304688 15.585938 43.832031 15.621094 44.488281 15.269531 Z M 36.859375 14.769531 C 36.300781 14.550781 36.082031 14.566406 36.558594 14.769531 C 36.765625 14.867188 37.007812 14.941406 37.105469 14.941406 C 37.203125 14.941406 37.09375 14.855469 36.859375 14.769531 Z M 36.859375 14.769531 "
    />
    <path
      d="M 38.261719 7.660156 C 37.796875 7.523438 37.140625 7.355469 36.8125 7.28125 C 35.378906 6.953125 31.09375 4.898438 29.816406 3.925781 L 29.0625 3.34375 L 29.101562 2.855469 L 29.136719 2.371094 L 29.804688 2.152344 C 30.71875 1.859375 34.015625 1.144531 35.28125 0.960938 C 37.664062 0.609375 48.113281 0.875 50.425781 1.347656 C 52.019531 1.675781 54.5625 2.480469 54.695312 2.699219 C 54.730469 2.757812 54.976562 2.894531 55.242188 3.003906 C 55.5 3.101562 55.71875 3.234375 55.71875 3.28125 C 55.71875 3.34375 56.242188 3.648438 56.886719 3.964844 C 58.394531 4.691406 58.757812 5.007812 58.757812 5.53125 L 58.757812 5.945312 L 58.25 6.003906 C 57.957031 6.042969 56.605469 6.089844 55.230469 6.128906 C 52.457031 6.199219 51.375 6.347656 48.566406 7.0625 C 46.105469 7.683594 45.242188 7.78125 41.910156 7.855469 L 39.113281 7.902344 Z M 38.261719 7.660156 "
    />
    <path
      style="stroke: none; fill-rule: nonzero; fill: rgb(87.058824%, 83.137255%, 63.921569%); fill-opacity: 1"
      d="M 83.210938 101.867188 C 77.796875 101.648438 71.605469 101.199219 70.839844 100.964844 C 70.074219 100.734375 69.707031 100.324219 69.707031 99.691406 C 69.707031 98.972656 70.035156 98.667969 71.253906 98.292969 C 72.675781 97.84375 72.859375 97.804688 75.183594 97.367188 C 76.363281 97.148438 77.421875 97.015625 77.761719 97.050781 L 78.332031 97.101562 L 78.855469 96.566406 C 79.453125 95.945312 80.339844 95.3125 80.609375 95.3125 C 80.71875 95.3125 80.777344 95.191406 80.777344 94.960938 C 80.777344 94.765625 80.9375 93.792969 81.144531 92.796875 C 81.363281 91.726562 81.558594 90.230469 81.628906 89.113281 C 81.835938 86.097656 81.945312 79.265625 81.8125 78.792969 C 81.726562 78.511719 81.398438 78.121094 80.777344 77.574219 C 79.464844 76.410156 78.992188 76.117188 76.957031 75.207031 C 74.9375 74.292969 74.746094 74.171875 73.441406 73.078125 C 71.984375 71.863281 71.105469 70.574219 70.511719 68.773438 C 70.15625 67.714844 70.109375 67.121094 70.363281 66.644531 C 70.753906 65.894531 70.875 65.34375 71.15625 63.097656 C 71.265625 62.171875 72.042969 59.996094 72.382812 59.632812 C 72.519531 59.484375 72.628906 59.292969 72.628906 59.195312 C 72.628906 59.097656 72.773438 58.804688 72.957031 58.539062 C 73.578125 57.636719 73.722656 57.238281 73.734375 56.410156 C 73.746094 55.851562 73.675781 55.425781 73.492188 54.976562 C 73.359375 54.621094 73.234375 54.210938 73.234375 54.0625 C 73.222656 53.917969 73.066406 53.578125 72.871094 53.308594 C 72.664062 53.042969 72.410156 52.664062 72.285156 52.472656 C 71.65625 51.4375 71.035156 50.574219 70.582031 50.136719 L 70.074219 49.625 L 70.074219 49.054688 C 70.074219 48.570312 70.132812 48.421875 70.472656 48.082031 C 70.695312 47.863281 71.09375 47.621094 71.351562 47.546875 C 71.886719 47.402344 95.695312 47.378906 97.601562 47.511719 L 98.6875 47.597656 L 99.039062 47.996094 C 99.683594 48.714844 99.453125 49.820312 98.539062 50.390625 C 98.164062 50.636719 98.054688 50.769531 98.054688 51.046875 C 98.054688 51.535156 97.628906 52.105469 96.777344 52.761719 C 96.167969 53.238281 96.046875 53.394531 96.007812 53.746094 C 95.996094 53.980469 95.898438 54.488281 95.804688 54.890625 C 95.425781 56.496094 95.425781 56.53125 96.15625 57.554688 C 96.363281 57.84375 96.472656 58.183594 96.679688 59.265625 C 96.714844 59.460938 96.875 59.730469 97.03125 59.851562 C 97.191406 59.972656 97.371094 60.300781 97.445312 60.578125 C 97.519531 60.859375 97.664062 61.296875 97.761719 61.550781 C 97.847656 61.796875 97.933594 62.183594 97.933594 62.402344 C 97.933594 62.609375 98.101562 63.121094 98.296875 63.523438 C 98.699219 64.335938 98.769531 65.078125 98.480469 65.492188 L 98.296875 65.746094 L 99.050781 66.5 L 98.992188 67.207031 C 98.878906 68.46875 98.6875 69.175781 98.113281 70.292969 C 97.371094 71.777344 96.933594 72.347656 95.925781 73.210938 C 94.878906 74.097656 93.699219 74.816406 92.75 75.132812 C 92.359375 75.265625 91.8125 75.484375 91.546875 75.605469 C 91.277344 75.738281 90.789062 75.972656 90.472656 76.117188 C 90.132812 76.261719 89.429688 76.808594 88.84375 77.371094 L 87.796875 78.367188 L 87.75 80.300781 C 87.640625 84.421875 87.664062 88.917969 87.808594 89.539062 C 87.894531 89.878906 88.101562 90.9375 88.273438 91.898438 C 88.441406 92.871094 88.660156 93.84375 88.757812 94.074219 C 88.855469 94.304688 88.929688 94.667969 88.929688 94.875 C 88.941406 95.289062 89.183594 95.628906 89.683594 95.921875 C 90.425781 96.359375 90.996094 96.785156 91.121094 97.015625 C 91.230469 97.222656 91.375 97.257812 92.054688 97.257812 C 92.96875 97.257812 95.851562 97.671875 96.777344 97.925781 C 97.117188 98.023438 97.628906 98.132812 97.933594 98.183594 C 98.613281 98.28125 99.550781 98.742188 99.804688 99.105469 C 100.316406 99.835938 99.746094 100.90625 98.84375 100.90625 C 98.601562 100.90625 98.296875 100.964844 98.175781 101.027344 C 97.796875 101.234375 96.289062 101.378906 92.03125 101.636719 C 86.203125 101.988281 86.070312 101.988281 83.210938 101.867188 Z M 92.03125 100.417969 C 96.519531 100.140625 97.117188 100.089844 97.675781 99.859375 C 97.894531 99.761719 98.199219 99.691406 98.332031 99.691406 C 98.785156 99.691406 98.453125 99.542969 97.421875 99.300781 C 95.742188 98.910156 93.308594 98.546875 92.273438 98.546875 L 91.300781 98.546875 L 90.488281 98.9375 C 89.269531 99.496094 88.929688 99.570312 86.800781 99.714844 C 84.320312 99.882812 83.832031 99.882812 82.054688 99.714844 C 80.5 99.582031 79.828125 99.375 78.40625 98.632812 L 77.542969 98.195312 L 75.488281 98.582031 C 74.34375 98.800781 73.199219 99.019531 72.933594 99.070312 C 72.273438 99.191406 71.046875 99.605469 71.046875 99.703125 C 71.046875 99.835938 72.457031 100.042969 73.785156 100.117188 C 74.453125 100.152344 76.09375 100.261719 77.433594 100.371094 C 80.777344 100.613281 84.925781 100.773438 86.679688 100.710938 C 87.480469 100.6875 89.890625 100.554688 92.03125 100.417969 Z M 86.738281 98.488281 C 88.296875 98.351562 90.21875 97.792969 89.84375 97.574219 C 89.71875 97.5 89.511719 97.34375 89.390625 97.234375 C 89.125 96.96875 88.527344 96.953125 88.164062 97.1875 C 87.761719 97.441406 86.605469 97.625 85.351562 97.625 C 84.171875 97.625 81.179688 97.222656 80.621094 97.003906 L 80.28125 96.859375 L 79.855469 97.269531 C 79.621094 97.488281 79.453125 97.71875 79.476562 97.78125 C 79.488281 97.828125 79.890625 98.023438 80.351562 98.195312 C 81.703125 98.691406 83.261719 98.765625 86.738281 98.488281 Z M 87.421875 95.300781 L 87.738281 94.972656 L 87.542969 94.449219 C 87.445312 94.160156 87.238281 93.234375 87.105469 92.394531 C 86.972656 91.558594 86.800781 90.71875 86.738281 90.511719 C 86.398438 89.453125 86.300781 83.253906 86.570312 80.554688 L 86.640625 79.835938 L 84.902344 79.921875 C 83.941406 79.972656 83.113281 80.042969 83.078125 80.09375 C 83.027344 80.140625 82.96875 82.425781 82.933594 85.160156 C 82.859375 90.328125 82.808594 91.011719 82.285156 93.40625 C 82.105469 94.183594 82.007812 94.960938 82.042969 95.117188 L 82.117188 95.410156 L 82.871094 95.53125 C 83.296875 95.605469 84.417969 95.652344 85.363281 95.640625 L 87.105469 95.617188 Z M 86.179688 77.902344 C 86.53125 77.792969 87.03125 77.40625 87.90625 76.578125 L 89.136719 75.410156 L 90.402344 74.804688 C 91.09375 74.464844 91.957031 74.085938 92.324219 73.976562 C 93.1875 73.699219 94.914062 72.53125 95.753906 71.644531 C 96.460938 70.914062 97.082031 69.867188 97.082031 69.417969 C 97.082031 69.285156 97.128906 69.175781 97.203125 69.175781 C 97.261719 69.175781 97.371094 68.945312 97.445312 68.664062 C 97.519531 68.371094 97.652344 67.910156 97.75 67.632812 C 97.859375 67.316406 97.871094 67.085938 97.796875 67.046875 C 97.738281 67 97.3125 67.144531 96.859375 67.363281 C 95.898438 67.8125 94.355469 68.324219 93.90625 68.324219 C 93.722656 68.324219 93.359375 68.398438 93.089844 68.496094 C 92.824219 68.589844 92.007812 68.773438 91.277344 68.894531 C 90.171875 69.078125 89.292969 69.113281 85.644531 69.101562 C 81.023438 69.101562 78.394531 68.90625 76.421875 68.445312 C 75.863281 68.3125 75.132812 68.203125 74.804688 68.203125 C 74.476562 68.203125 74.210938 68.152344 74.210938 68.09375 C 74.210938 67.960938 73.429688 67.65625 72.808594 67.546875 C 72.542969 67.496094 72.164062 67.398438 71.984375 67.328125 C 71.421875 67.109375 71.363281 67.328125 71.726562 68.433594 C 72.152344 69.746094 72.980469 70.972656 74.136719 72.019531 C 75.378906 73.136719 75.242188 73.066406 77.457031 74.050781 C 79.574219 75 80.363281 75.507812 81.886719 76.90625 C 82.445312 77.417969 83.078125 77.917969 83.273438 78.011719 C 83.699219 78.207031 85.378906 78.136719 86.179688 77.902344 Z M 88.625 67.21875 C 89.925781 67.097656 94.453125 66.28125 95.4375 65.988281 C 96.265625 65.734375 96.898438 65.429688 97.191406 65.113281 L 97.480469 64.8125 L 97.3125 64.261719 C 97.226562 63.949219 97.105469 63.703125 97.042969 63.703125 C 96.996094 63.703125 96.75 63.789062 96.507812 63.886719 C 95.875 64.152344 95.71875 64.117188 95.085938 63.570312 C 94.292969 62.878906 94.113281 62.476562 94.195312 61.648438 C 94.28125 60.882812 94.5625 60.433594 95.121094 60.191406 C 95.597656 59.972656 95.707031 59.59375 95.449219 59.109375 C 95.339844 58.902344 95.253906 58.660156 95.253906 58.5625 C 95.253906 58.160156 94.964844 58.125 94.039062 58.367188 C 91.132812 59.132812 85.949219 59.484375 81.070312 59.230469 C 78.359375 59.085938 77.578125 58.964844 75.851562 58.414062 C 74.660156 58.039062 74.609375 58.039062 74.5 58.390625 C 74.453125 58.539062 74.292969 58.816406 74.136719 59 C 73.976562 59.195312 73.84375 59.386719 73.84375 59.449219 C 73.84375 59.496094 74.039062 59.65625 74.269531 59.789062 C 74.71875 60.058594 74.925781 60.457031 75.171875 61.492188 C 75.378906 62.320312 75.230469 62.671875 74.429688 63.402344 C 73.976562 63.800781 73.589844 64.019531 72.980469 64.203125 C 72.324219 64.398438 72.140625 64.507812 72.140625 64.6875 C 72.140625 65.285156 73.078125 65.699219 76.035156 66.378906 C 78.648438 66.988281 80.269531 67.230469 81.972656 67.289062 C 82.738281 67.316406 83.382812 67.363281 83.429688 67.398438 C 83.515625 67.496094 86.945312 67.375 88.625 67.21875 Z M 73.429688 63 C 73.578125 62.890625 73.757812 62.671875 73.832031 62.523438 C 74.003906 62.183594 74.003906 61.371094 73.832031 60.980469 C 73.589844 60.457031 73.113281 60.433594 73.113281 60.957031 C 73.113281 61.101562 73.066406 61.273438 73.003906 61.347656 C 72.824219 61.539062 72.359375 62.960938 72.445312 63.097656 C 72.566406 63.292969 73.152344 63.230469 73.429688 63 Z M 96.433594 63.121094 C 96.765625 62.914062 96.824219 62.441406 96.582031 61.941406 C 96.449219 61.675781 96.351562 61.441406 96.351562 61.417969 C 96.351562 61.40625 96.324219 61.261719 96.277344 61.089844 L 96.203125 60.785156 L 95.863281 60.992188 C 95.667969 61.101562 95.414062 61.371094 95.304688 61.589844 L 95.097656 61.964844 L 95.28125 62.441406 C 95.523438 63.035156 96.058594 63.363281 96.433594 63.121094 Z M 90.207031 57.140625 C 91.53125 57.042969 91.984375 56.957031 92.992188 56.605469 C 93.648438 56.375 94.222656 56.15625 94.246094 56.117188 C 94.28125 56.082031 94.378906 55.65625 94.464844 55.171875 C 94.550781 54.683594 94.660156 54.183594 94.707031 54.074219 L 94.792969 53.855469 L 94.292969 53.855469 C 93.503906 53.855469 93.066406 53.261719 93.46875 52.714844 C 93.550781 52.605469 94.039062 52.398438 94.585938 52.265625 C 95.984375 51.910156 96.835938 51.363281 96.835938 50.828125 C 96.835938 50.648438 95.875 50.671875 94.585938 50.890625 C 93.746094 51.035156 92.066406 51.097656 87.398438 51.144531 C 81.035156 51.21875 76.679688 51.085938 74.101562 50.746094 C 73.34375 50.648438 72.699219 50.585938 72.664062 50.609375 C 72.554688 50.734375 73.417969 52.019531 73.648438 52.082031 C 73.796875 52.117188 74.355469 52.15625 74.902344 52.15625 L 75.898438 52.15625 L 76.035156 52.386719 C 76.214844 52.738281 76.179688 53.199219 75.960938 53.417969 C 75.839844 53.554688 75.546875 53.613281 75.0625 53.613281 L 74.34375 53.613281 L 74.648438 54.464844 C 74.804688 54.925781 74.9375 55.390625 74.9375 55.484375 C 74.9375 55.984375 76.324219 56.640625 78.054688 56.96875 C 80.0625 57.347656 85.925781 57.429688 90.207031 57.140625 Z M 95.011719 49.964844 C 95.839844 49.90625 96.8125 49.761719 97.164062 49.652344 C 97.894531 49.417969 98.296875 49.066406 98.078125 48.847656 C 97.835938 48.605469 91.507812 48.496094 81.449219 48.53125 C 73.6875 48.570312 71.898438 48.605469 71.617188 48.75 C 71.179688 48.96875 71.242188 49.261719 71.777344 49.433594 C 72.164062 49.566406 75.71875 50.027344 77.191406 50.136719 C 78.382812 50.234375 93.515625 50.089844 95.011719 49.964844 Z M 95.011719 49.964844 "
    />
    <path
      style="stroke: none; fill-rule: nonzero; fill: rgb(87.058824%, 83.137255%, 63.921569%); fill-opacity: 1"
      d="M 83.320312 65.734375 C 83.089844 65.589844 82.699219 65.152344 82.433594 64.773438 C 81.582031 63.535156 81.738281 62.5 82.957031 61.359375 L 83.539062 60.8125 L 84.527344 60.726562 L 85.523438 60.640625 L 86.09375 61.066406 C 86.972656 61.710938 87.164062 61.976562 87.398438 62.914062 C 87.566406 63.59375 87.578125 63.839844 87.46875 64.128906 C 87.25 64.703125 86.75 65.285156 86.15625 65.660156 L 85.597656 66.015625 L 84.671875 66.015625 C 83.894531 66.015625 83.660156 65.964844 83.320312 65.734375 Z M 85.523438 64.859375 C 86.191406 64.519531 86.421875 63.558594 86.132812 62.464844 C 85.960938 61.867188 85.65625 61.722656 84.769531 61.785156 C 83.90625 61.84375 83.453125 62.136719 83.222656 62.804688 C 83.015625 63.414062 83.210938 64.203125 83.699219 64.703125 C 83.976562 64.980469 84.148438 65.042969 84.609375 65.042969 C 84.914062 65.042969 85.328125 64.957031 85.523438 64.859375 Z M 78.371094 64.070312 C 77.617188 63.605469 77.628906 62.851562 78.40625 62.367188 C 78.992188 62.003906 79.476562 62.050781 79.855469 62.5 C 80.765625 63.582031 79.597656 64.824219 78.371094 64.070312 Z M 89.648438 63.839844 C 89.148438 63.351562 89.039062 62.878906 89.332031 62.621094 C 89.609375 62.390625 90.21875 62.332031 90.679688 62.488281 C 91.496094 62.757812 91.75 63.59375 91.167969 64.058594 C 90.65625 64.457031 90.195312 64.386719 89.648438 63.839844 Z M 86.886719 53.882812 C 86.386719 53.1875 86.628906 52.519531 87.382812 52.519531 C 87.601562 52.519531 88.429688 52.457031 89.222656 52.398438 L 90.667969 52.277344 L 90.960938 52.457031 C 91.179688 52.605469 91.242188 52.75 91.242188 53.1875 C 91.242188 53.964844 91.046875 54.101562 89.914062 54.101562 C 89.390625 54.101562 88.550781 54.136719 88.054688 54.171875 L 87.140625 54.257812 Z M 78.394531 54.003906 C 78.175781 53.855469 77.980469 53.40625 77.980469 53.019531 C 77.980469 52.398438 78.1875 52.300781 79.527344 52.363281 C 81.921875 52.457031 82.359375 52.566406 82.359375 53.128906 C 82.359375 53.25 82.398438 53.429688 82.433594 53.539062 C 82.578125 53.929688 81.875 54.101562 80.144531 54.101562 C 79.257812 54.101562 78.46875 54.050781 78.394531 54.003906 Z M 36.605469 93.792969 C 36.230469 93.707031 35.230469 93.613281 34.390625 93.5625 C 33.550781 93.515625 32.410156 93.367188 31.847656 93.257812 C 30.035156 92.859375 28.660156 92.492188 28.164062 92.261719 C 27.894531 92.140625 27.457031 92.007812 27.191406 91.957031 C 26.167969 91.789062 25.546875 91.214844 25.546875 90.449219 C 25.546875 89.84375 25.960938 88.25 26.339844 87.433594 C 26.628906 86.792969 26.738281 86.195312 26.546875 86.195312 C 26.496094 86.195312 25.960938 85.746094 25.363281 85.210938 C 24.757812 84.664062 23.808594 83.910156 23.234375 83.53125 C 21.824219 82.621094 18.992188 79.667969 18.382812 78.5 C 18.261719 78.28125 18.003906 77.84375 17.785156 77.503906 C 17.578125 77.175781 17.398438 76.796875 17.398438 76.6875 C 17.398438 76.566406 17.226562 76.214844 17.03125 75.898438 C 16.667969 75.328125 16.179688 73.976562 16.179688 73.550781 C 16.179688 73.429688 16.070312 73.101562 15.9375 72.808594 C 15.804688 72.519531 15.695312 72.054688 15.695312 71.789062 C 15.695312 71.523438 15.597656 71.035156 15.460938 70.695312 C 15.339844 70.367188 15.109375 69.492188 14.953125 68.773438 L 14.671875 67.449219 L 14.246094 67.15625 C 13.964844 66.976562 13.636719 66.867188 13.320312 66.867188 C 12.714844 66.867188 11.300781 66.257812 9.757812 65.332031 C 8.480469 64.566406 6.824219 63.023438 6.082031 61.894531 C 5.851562 61.539062 5.402344 60.894531 5.074219 60.46875 C 4.304688 59.4375 2.25 55.207031 2.140625 54.402344 C 2.054688 53.820312 1.910156 53.308594 1.460938 51.910156 C 1.339844 51.546875 1.167969 50.757812 1.09375 50.148438 C 0.949219 49.128906 0.828125 48.472656 0.414062 46.625 C 0.0117188 44.8125 -0.0976562 39.304688 0.21875 36.898438 C 0.292969 36.363281 0.414062 35.292969 0.488281 34.527344 C 0.644531 32.875 1.09375 30.671875 1.507812 29.480469 C 1.933594 28.277344 2.25 27.304688 2.53125 26.320312 C 2.75 25.554688 3.625 23.148438 3.917969 22.550781 C 3.976562 22.417969 4.234375 21.957031 4.5 21.519531 C 4.757812 21.082031 5.132812 20.425781 5.339844 20.058594 C 6.3125 18.332031 8.867188 15.402344 10.28125 14.40625 C 11.121094 13.8125 12.785156 12.960938 13.734375 12.632812 C 15.535156 12.011719 19.136719 11.632812 20.9375 11.902344 C 22.382812 12.109375 23.199219 12.449219 23.90625 13.179688 C 24.511719 13.796875 24.609375 13.992188 25.488281 16.351562 C 25.65625 16.824219 25.9375 17.480469 26.09375 17.808594 C 26.421875 18.492188 26.800781 19.511719 26.996094 20.253906 C 27.164062 20.886719 28.152344 22.503906 29.355469 24.144531 L 30.316406 25.421875 L 30.632812 25.382812 C 30.898438 25.359375 31.046875 25.191406 31.386719 24.519531 C 31.617188 24.070312 31.996094 23.355469 32.203125 22.941406 C 32.421875 22.527344 32.761719 21.53125 32.96875 20.742188 C 33.308594 19.390625 33.394531 18.78125 33.675781 15.136719 L 33.785156 13.796875 L 33.503906 13.375 C 33.34375 13.140625 33.210938 12.839844 33.210938 12.691406 C 33.210938 12.546875 33.078125 12.058594 32.90625 11.621094 C 32.738281 11.171875 32.601562 10.734375 32.601562 10.636719 C 32.601562 10.296875 32.105469 9.15625 31.570312 8.265625 C 31.121094 7.511719 31.023438 7.246094 31.023438 6.746094 C 31.023438 6.417969 30.984375 6.019531 30.949219 5.871094 C 30.914062 5.738281 30.402344 5.253906 29.804688 4.8125 C 28.480469 3.828125 28.101562 3.390625 28.101562 2.855469 C 28.101562 2.335938 28.550781 1.789062 29.183594 1.53125 C 29.792969 1.300781 31.738281 0.800781 33.636719 0.402344 L 35.097656 0.0976562 L 38.867188 0.0351562 C 42.992188 -0.0351562 48.371094 0.15625 50 0.4375 C 50.570312 0.523438 51.496094 0.753906 52.066406 0.925781 C 52.640625 1.09375 53.40625 1.324219 53.769531 1.433594 C 54.136719 1.554688 54.597656 1.75 54.804688 1.882812 C 55 2.03125 55.339844 2.210938 55.558594 2.296875 C 55.777344 2.382812 56.023438 2.539062 56.09375 2.625 C 56.179688 2.722656 56.75 3.050781 57.371094 3.34375 C 57.992188 3.648438 58.722656 4.097656 59.003906 4.351562 L 59.488281 4.828125 L 59.488281 5.445312 C 59.488281 6.636719 58.953125 6.90625 56.507812 6.929688 C 54.914062 6.941406 54.429688 7.125 54.113281 7.804688 C 53.867188 8.328125 53.589844 8.535156 52.128906 9.277344 C 50.171875 10.285156 48.953125 11.453125 48.601562 12.703125 C 48.492188 13.058594 48.25 13.578125 48.042969 13.859375 L 47.675781 14.359375 L 47.824219 14.769531 C 47.957031 15.113281 47.945312 15.414062 47.773438 16.4375 L 47.578125 17.6875 L 47.75 18.78125 C 48.308594 22.246094 49.246094 24.535156 51.324219 27.535156 C 52.164062 28.726562 53.855469 30.917969 54.234375 31.269531 C 54.28125 31.316406 54.609375 31.609375 54.964844 31.925781 C 55.328125 32.253906 55.644531 32.640625 55.679688 32.824219 C 55.707031 33.007812 55.949219 33.359375 56.214844 33.628906 C 56.996094 34.40625 58.46875 36.253906 58.722656 36.777344 C 58.855469 37.042969 59.039062 37.53125 59.125 37.871094 C 59.257812 38.34375 59.464844 38.648438 60.121094 39.292969 C 61.132812 40.3125 61.996094 41.722656 63.6875 45.164062 C 65.535156 48.945312 65.804688 49.6875 66.121094 52.15625 C 66.265625 53.261719 66.386719 53.699219 66.679688 54.269531 L 67.066406 54.988281 L 66.996094 56.398438 C 66.957031 57.417969 66.984375 57.894531 67.09375 58.113281 C 67.371094 58.648438 67.566406 60.410156 67.566406 62.304688 C 67.566406 69.003906 67.492188 70.304688 67.019531 71.097656 C 66.859375 71.386719 66.789062 71.726562 66.789062 72.273438 C 66.789062 73.503906 65.984375 75.179688 64.792969 76.445312 L 64.183594 77.089844 L 64.222656 77.625 C 64.257812 78.28125 63.992188 78.828125 63.027344 80.03125 C 61.617188 81.769531 58.199219 84.847656 56.449219 85.941406 C 56.082031 86.171875 55.765625 86.378906 55.742188 86.390625 C 55.71875 86.402344 55.789062 86.546875 55.886719 86.707031 C 56.09375 87.035156 56.289062 88.214844 56.410156 89.84375 L 56.484375 90.875 L 56.144531 91.277344 C 55.960938 91.496094 55.667969 91.75 55.488281 91.835938 C 54.976562 92.105469 53.125 92.480469 50.789062 92.808594 C 49.585938 92.980469 48.066406 93.210938 47.410156 93.308594 C 46.09375 93.515625 39.34375 93.976562 38.078125 93.964844 C 37.640625 93.953125 36.984375 93.878906 36.605469 93.792969 Z M 40.753906 92.640625 C 44.804688 92.382812 46.203125 92.261719 47.628906 92.03125 C 48.429688 91.898438 49.902344 91.679688 50.898438 91.542969 C 52.808594 91.277344 54.597656 90.898438 55.011719 90.679688 L 55.269531 90.546875 L 55.183594 89.792969 C 54.988281 87.945312 54.914062 87.410156 54.828125 87.339844 C 54.78125 87.289062 53.394531 87.691406 51.726562 88.238281 C 48.164062 89.40625 48.175781 89.40625 46.214844 89.722656 C 42.945312 90.242188 38.089844 90.257812 36.070312 89.734375 C 35.535156 89.597656 34.953125 89.476562 34.757812 89.476562 C 34.574219 89.476562 33.101562 89.039062 31.472656 88.492188 C 29.855469 87.957031 28.332031 87.507812 28.101562 87.496094 L 27.6875 87.472656 L 27.398438 88.175781 C 27.238281 88.578125 27.03125 89.246094 26.921875 89.671875 C 26.703125 90.546875 26.800781 90.816406 27.359375 90.816406 C 27.53125 90.828125 27.980469 90.9375 28.34375 91.070312 C 28.710938 91.203125 29.402344 91.398438 29.867188 91.484375 C 30.339844 91.582031 30.875 91.714844 31.082031 91.789062 C 31.8125 92.066406 33.175781 92.285156 34.964844 92.394531 C 35.972656 92.46875 37.128906 92.589844 37.53125 92.6875 C 37.933594 92.785156 38.371094 92.84375 38.503906 92.820312 C 38.636719 92.796875 39.648438 92.710938 40.753906 92.640625 Z M 41.726562 88.625 C 44.332031 88.480469 46.628906 88.1875 47.617188 87.898438 C 48.027344 87.777344 48.769531 87.582031 49.269531 87.472656 C 51.582031 86.949219 52.300781 86.730469 52.980469 86.355469 C 53.382812 86.132812 54.148438 85.746094 54.683594 85.492188 C 56.398438 84.664062 59.476562 82.148438 61.398438 80.007812 C 62.382812 78.902344 63.113281 77.867188 62.980469 77.734375 C 62.957031 77.699219 61.945312 78.160156 60.753906 78.742188 C 55.351562 81.40625 52.554688 82.449219 48.359375 83.421875 C 46.484375 83.847656 45.546875 83.96875 42.699219 84.128906 C 40.609375 84.25 40.304688 84.238281 36.800781 83.886719 C 35.097656 83.703125 32.738281 83.21875 31.507812 82.777344 C 30.9375 82.574219 29.792969 82.171875 28.953125 81.890625 C 28.113281 81.601562 27.214844 81.257812 26.945312 81.125 C 26.679688 80.980469 26.191406 80.808594 25.851562 80.738281 C 25.183594 80.578125 22.398438 79.277344 21.242188 78.5625 C 20.269531 77.964844 19.464844 77.648438 19.464844 77.867188 C 19.464844 77.953125 19.902344 78.5 20.4375 79.09375 C 20.972656 79.691406 21.410156 80.238281 21.410156 80.3125 C 21.410156 80.542969 22.714844 81.660156 23.855469 82.425781 C 24.429688 82.828125 25.449219 83.617188 26.105469 84.191406 C 26.777344 84.773438 27.480469 85.332031 27.675781 85.441406 C 28.234375 85.734375 29.867188 86.292969 31.121094 86.621094 C 31.75 86.792969 32.410156 87.023438 32.578125 87.15625 C 33.308594 87.667969 34.660156 88.042969 36.859375 88.335938 C 37.566406 88.421875 38.382812 88.554688 38.6875 88.613281 C 39.441406 88.761719 39.355469 88.761719 41.726562 88.625 Z M 43.429688 82.792969 C 45.730469 82.644531 48.867188 82.195312 49.195312 81.964844 C 49.269531 81.917969 49.878906 81.734375 50.546875 81.585938 C 51.8125 81.285156 54.171875 80.457031 54.5 80.203125 C 54.597656 80.117188 55.011719 79.910156 55.414062 79.726562 C 55.816406 79.558594 56.75 79.15625 57.480469 78.839844 C 58.222656 78.523438 59.367188 78.039062 60.035156 77.746094 C 62.808594 76.566406 63.320312 76.273438 63.917969 75.59375 C 64.964844 74.402344 65.914062 72.203125 65.570312 71.789062 C 65.488281 71.691406 65.316406 71.605469 65.183594 71.605469 C 65.0625 71.605469 64.757812 71.496094 64.5 71.375 C 63.027344 70.609375 62.347656 68.386719 63.042969 66.535156 C 63.578125 65.089844 64.160156 64.484375 65.425781 64.058594 C 65.828125 63.921875 66.242188 63.714844 66.351562 63.59375 L 66.546875 63.386719 L 66.363281 61.332031 C 66.265625 60.214844 66.15625 59.265625 66.121094 59.230469 C 66.09375 59.207031 65.695312 59.449219 65.242188 59.777344 C 63.820312 60.824219 61.023438 62.304688 59.671875 62.730469 C 59.402344 62.816406 58.46875 63.167969 57.601562 63.535156 C 55.132812 64.53125 53.878906 64.8125 49.269531 65.34375 C 47.835938 65.515625 45.886719 65.757812 44.953125 65.894531 C 41.789062 66.316406 41.324219 66.316406 36.984375 65.832031 C 32.054688 65.285156 31.082031 65.140625 28.648438 64.605469 C 25.765625 63.960938 23.46875 63.144531 20.863281 61.855469 C 20.195312 61.527344 19.5625 61.199219 19.464844 61.140625 C 19.367188 61.078125 19.0625 60.921875 18.808594 60.773438 C 18.539062 60.628906 17.785156 60.15625 17.128906 59.71875 C 16.398438 59.230469 15.886719 58.964844 15.816406 59.035156 C 15.753906 59.097656 15.695312 60.105469 15.667969 61.261719 L 15.632812 63.386719 L 15.9375 63.535156 C 16.105469 63.621094 16.570312 63.839844 16.972656 64.019531 C 17.945312 64.46875 18.867188 65.417969 19.222656 66.34375 C 19.914062 68.128906 19.234375 70.488281 17.824219 71.277344 L 17.335938 71.558594 L 17.300781 72.054688 C 17.25 72.738281 17.445312 73.746094 17.785156 74.609375 C 18.152344 75.507812 19.085938 76.289062 20.472656 76.835938 C 21.023438 77.054688 21.726562 77.382812 22.03125 77.574219 C 22.335938 77.769531 22.652344 77.929688 22.75 77.929688 C 22.835938 77.929688 23.101562 78.039062 23.34375 78.171875 C 23.832031 78.4375 25.074219 78.960938 26.582031 79.519531 C 27.117188 79.726562 27.640625 79.957031 27.738281 80.042969 C 27.835938 80.128906 28.417969 80.347656 29.015625 80.542969 C 29.621094 80.726562 30.5 81.027344 30.960938 81.210938 C 32.082031 81.648438 33.453125 82.0625 33.757812 82.0625 C 33.894531 82.0625 34.390625 82.136719 34.855469 82.230469 C 35.996094 82.476562 37.371094 82.667969 37.933594 82.667969 C 38.175781 82.683594 38.710938 82.753906 39.113281 82.851562 C 39.585938 82.960938 40.183594 83 40.816406 82.960938 C 41.351562 82.925781 42.53125 82.851562 43.429688 82.792969 Z M 17.433594 70.511719 C 17.957031 70.097656 18.394531 69.03125 18.46875 68.007812 L 18.527344 67.121094 L 18.199219 66.453125 C 17.628906 65.285156 15.621094 64.082031 15.402344 64.773438 C 15.351562 64.894531 15.4375 65.429688 15.570312 65.964844 C 15.71875 66.488281 15.960938 67.558594 16.132812 68.324219 C 16.449219 69.746094 16.8125 70.753906 17.007812 70.753906 C 17.066406 70.753906 17.261719 70.644531 17.433594 70.511719 Z M 66.046875 70.246094 C 66.398438 69.222656 66.496094 65.054688 66.167969 64.859375 C 65.972656 64.738281 65.023438 65.359375 64.636719 65.867188 C 63.976562 66.730469 63.785156 68.386719 64.246094 69.34375 C 64.527344 69.941406 64.730469 70.160156 65.269531 70.441406 C 65.789062 70.707031 65.898438 70.683594 66.046875 70.246094 Z M 13.675781 65.015625 C 13.710938 64.664062 13.746094 63.839844 13.746094 63.183594 L 13.746094 61.988281 L 12.566406 61.222656 C 9.867188 59.460938 8.90625 58.441406 7.398438 55.703125 C 6.460938 54.015625 5.914062 52.664062 5.472656 50.914062 C 5.195312 49.855469 4.757812 47.609375 4.671875 46.925781 C 4.648438 46.695312 4.574219 46.003906 4.5 45.382812 C 4.355469 44.058594 4.34375 35.28125 4.488281 33.007812 C 4.5625 31.851562 4.707031 30.953125 5.035156 29.664062 C 6.09375 25.445312 6.289062 24.886719 7.699219 22.125 C 9.125 19.332031 9.828125 18.285156 11.15625 17.007812 C 12.117188 16.085938 12.6875 15.757812 13.953125 15.441406 C 16.070312 14.894531 20.0625 14.878906 20.804688 15.414062 C 21.472656 15.902344 22.640625 17.917969 22.945312 19.097656 C 23.054688 19.523438 23.234375 20.046875 23.34375 20.253906 C 23.46875 20.449219 23.601562 20.835938 23.648438 21.105469 C 23.699219 21.359375 23.808594 21.664062 23.894531 21.761719 C 23.976562 21.859375 24.222656 22.464844 24.441406 23.097656 C 24.746094 23.988281 25.097656 24.65625 25.996094 26.015625 C 26.640625 26.988281 27.359375 27.984375 27.589844 28.242188 C 28.027344 28.691406 28.46875 28.835938 28.46875 28.535156 C 28.46875 28.449219 28.636719 28.179688 28.832031 27.960938 C 29.039062 27.730469 29.246094 27.390625 29.304688 27.183594 C 29.367188 26.976562 29.453125 26.722656 29.488281 26.625 C 29.539062 26.503906 29.355469 26.164062 28.976562 25.699219 C 28.140625 24.644531 26.582031 22.355469 26.203125 21.617188 C 26.023438 21.261719 25.753906 20.484375 25.582031 19.878906 C 25.425781 19.28125 25.15625 18.515625 25 18.175781 C 24.828125 17.847656 24.5625 17.191406 24.390625 16.714844 C 23.710938 14.867188 23.550781 14.515625 23.25 14.175781 C 22.601562 13.46875 21.058594 13.007812 19.28125 13.007812 C 17.300781 13.007812 14.539062 13.554688 13.1875 14.222656 C 12.773438 14.417969 12.359375 14.589844 12.261719 14.589844 C 11.703125 14.589844 9.453125 16.617188 8.042969 18.40625 C 6.667969 20.144531 5.351562 22.175781 5.351562 22.5625 C 5.351562 22.699219 5.242188 22.917969 5.109375 23.039062 C 4.976562 23.160156 4.867188 23.304688 4.867188 23.378906 C 4.867188 23.4375 4.792969 23.65625 4.695312 23.863281 C 4.085938 25.191406 3.601562 26.589844 3.34375 27.644531 C 3.199219 28.328125 2.980469 29.066406 2.882812 29.3125 C 2.421875 30.355469 1.777344 33.457031 1.582031 35.5 C 1.519531 36.203125 1.410156 37.164062 1.351562 37.625 C 1.082031 39.585938 1.242188 44.519531 1.640625 46.378906 C 1.738281 46.855469 1.910156 47.839844 2.007812 48.570312 C 2.117188 49.308594 2.25 50.210938 2.3125 50.574219 C 2.359375 50.9375 2.492188 51.460938 2.589844 51.730469 C 2.90625 52.566406 3.140625 53.40625 3.222656 54.039062 C 3.273438 54.378906 3.492188 55 3.710938 55.4375 C 3.929688 55.875 4.367188 56.761719 4.671875 57.417969 C 4.988281 58.074219 5.4375 58.816406 5.667969 59.074219 C 5.886719 59.328125 6.167969 59.730469 6.265625 59.949219 C 6.375 60.179688 6.546875 60.507812 6.667969 60.675781 C 6.777344 60.847656 7.082031 61.296875 7.335938 61.675781 C 7.761719 62.320312 9.355469 63.824219 9.609375 63.824219 C 9.671875 63.824219 10.035156 64.019531 10.425781 64.261719 C 11.324219 64.847656 13.003906 65.636719 13.332031 65.648438 L 13.589844 65.648438 Z M 44.746094 63.949219 C 46.53125 63.742188 48.140625 63.546875 48.308594 63.511719 L 48.625 63.449219 L 48.699219 59.742188 C 48.785156 56.167969 48.855469 55.558594 49.171875 55.558594 C 49.367188 55.558594 49.757812 55.9375 49.757812 56.117188 C 49.757812 56.375 50.707031 58.304688 51.253906 59.167969 C 51.546875 59.621094 51.8125 60.082031 51.847656 60.191406 C 51.898438 60.300781 52.175781 60.773438 52.480469 61.25 C 53.113281 62.246094 53.261719 62.320312 54.550781 62.210938 C 55.914062 62.085938 59.34375 60.980469 59.816406 60.507812 C 59.914062 60.410156 60 59.863281 60.046875 59.023438 C 60.109375 57.773438 60.046875 56.894531 59.71875 54.949219 C 59.574219 54.039062 59.574219 52.992188 59.730469 52.835938 C 59.9375 52.628906 60.21875 52.882812 60.570312 53.589844 C 60.777344 53.992188 61.023438 54.390625 61.121094 54.488281 C 61.214844 54.585938 61.386719 54.855469 61.484375 55.085938 C 61.859375 55.886719 62.96875 57.1875 63.734375 57.734375 L 64.101562 58.003906 L 64.746094 57.578125 C 65.804688 56.882812 65.816406 56.859375 65.816406 56.046875 C 65.816406 55.132812 65.523438 54.511719 64.828125 53.953125 C 63.140625 52.605469 62.082031 51.253906 60.839844 48.835938 C 59.636719 46.488281 58.976562 44.472656 58.6875 42.222656 C 58.589844 41.457031 58.453125 40.714844 58.40625 40.558594 C 58.34375 40.410156 58.234375 39.863281 58.152344 39.339844 C 57.933594 37.871094 57.640625 37.175781 56.8125 36.167969 C 56.398438 35.667969 56.023438 35.257812 55.972656 35.257812 C 55.925781 35.257812 55.707031 35.390625 55.472656 35.558594 C 55.242188 35.730469 55 35.863281 54.925781 35.863281 C 54.855469 35.863281 54.441406 36.09375 54.015625 36.363281 C 53.003906 37.019531 49.683594 38.355469 48.125 38.722656 C 45.597656 39.328125 44.34375 39.449219 40.632812 39.449219 C 36.714844 39.449219 36.800781 39.460938 33.515625 38.464844 C 31.007812 37.699219 29.5 37.09375 27.859375 36.167969 C 27.226562 35.816406 26.558594 35.488281 26.375 35.4375 L 26.058594 35.355469 L 25.121094 36.496094 C 24.597656 37.117188 24.027344 37.929688 23.84375 38.308594 L 23.515625 38.988281 L 23.429688 40.835938 C 23.382812 42.003906 23.261719 43.023438 23.101562 43.609375 C 22.980469 44.117188 22.871094 44.667969 22.871094 44.824219 C 22.871094 44.980469 22.796875 45.261719 22.699219 45.445312 C 22.617188 45.625 22.445312 46.1875 22.324219 46.683594 C 22.214844 47.183594 22.007812 47.777344 21.886719 47.996094 C 21.75 48.214844 21.65625 48.472656 21.65625 48.542969 C 21.65625 48.628906 21.472656 48.921875 21.253906 49.199219 C 21.046875 49.480469 20.707031 49.980469 20.5 50.292969 C 20.046875 51.023438 18.40625 52.75 17.507812 53.445312 C 16.617188 54.125 16.421875 54.550781 16.421875 55.765625 C 16.421875 56.289062 16.472656 56.773438 16.519531 56.847656 C 16.570312 56.910156 16.800781 57.089844 17.042969 57.238281 C 17.273438 57.382812 17.578125 57.601562 17.699219 57.746094 L 17.917969 57.992188 L 19.003906 56.859375 C 20.035156 55.800781 21.289062 54.113281 21.289062 53.808594 C 21.289062 53.722656 21.472656 53.480469 21.691406 53.273438 L 22.105469 52.871094 L 22.261719 53.066406 C 22.398438 53.238281 22.410156 53.480469 22.273438 54.5 C 21.921875 57.371094 21.898438 57.796875 22.042969 59.183594 L 22.191406 60.542969 L 22.675781 60.664062 C 22.957031 60.726562 24.074219 61.078125 25.183594 61.457031 C 26.289062 61.820312 27.457031 62.160156 27.773438 62.195312 L 28.359375 62.28125 L 28.660156 61.988281 C 28.832031 61.832031 29.125 61.457031 29.292969 61.152344 C 29.464844 60.847656 29.78125 60.398438 29.988281 60.15625 C 30.339844 59.742188 30.65625 59.195312 30.828125 58.71875 C 30.863281 58.621094 31.035156 58.320312 31.203125 58.050781 C 31.375 57.785156 31.570312 57.429688 31.640625 57.261719 C 31.714844 57.089844 31.824219 56.871094 31.886719 56.773438 C 31.945312 56.675781 32.054688 56.445312 32.128906 56.265625 C 32.273438 55.886719 32.714844 55.800781 32.945312 56.082031 C 33.078125 56.226562 33.285156 58.867188 33.417969 61.90625 C 33.453125 62.78125 33.527344 63.253906 33.636719 63.339844 C 33.722656 63.414062 34.511719 63.535156 35.363281 63.59375 C 36.230469 63.667969 37.566406 63.851562 38.332031 64.007812 C 40.183594 64.386719 40.914062 64.375 44.746094 63.949219 Z M 32.371094 62.257812 C 32.542969 61.089844 32.3125 59 32.019531 59.230469 C 31.667969 59.535156 29.5625 62.414062 29.5625 62.609375 C 29.5625 62.683594 31.082031 63.121094 31.8125 63.253906 C 32.164062 63.316406 32.214844 63.242188 32.371094 62.257812 Z M 50.972656 63.085938 C 51.339844 63.011719 51.765625 62.925781 51.921875 62.902344 C 52.3125 62.828125 52.261719 62.585938 51.65625 61.722656 C 51.363281 61.308594 50.851562 60.46875 50.5 59.851562 C 50.144531 59.230469 49.816406 58.695312 49.757812 58.660156 C 49.621094 58.574219 49.585938 62.609375 49.71875 63.070312 C 49.769531 63.292969 49.855469 63.339844 50.046875 63.292969 C 50.195312 63.253906 50.609375 63.167969 50.972656 63.085938 Z M 14.527344 59.535156 C 14.695312 57.445312 14.792969 56.824219 15 56.445312 C 15.132812 56.203125 15.207031 55.789062 15.207031 55.328125 C 15.207031 54.925781 15.28125 54.355469 15.378906 54.074219 C 15.472656 53.785156 15.570312 53.089844 15.609375 52.519531 C 15.765625 49.917969 17.917969 44.265625 19.925781 41.152344 C 20.789062 39.804688 21.53125 38.890625 21.984375 38.625 C 22.25 38.464844 22.519531 38.136719 22.75 37.6875 C 23.078125 37.042969 24.902344 34.648438 25.230469 34.429688 C 25.535156 34.234375 26.121094 33.335938 26.265625 32.835938 C 26.363281 32.496094 26.617188 32.109375 26.996094 31.730469 C 27.75 30.976562 27.945312 30.515625 27.6875 30.125 C 27.578125 29.957031 27.273438 29.652344 27.019531 29.445312 C 26.59375 29.105469 24.367188 25.980469 23.832031 24.984375 C 23.722656 24.789062 23.40625 23.960938 23.125 23.160156 C 22.847656 22.355469 22.457031 21.347656 22.273438 20.910156 C 22.082031 20.472656 21.800781 19.742188 21.65625 19.28125 C 21.433594 18.550781 20.765625 17.277344 20.269531 16.632812 C 19.890625 16.132812 17.066406 16.058594 14.976562 16.484375 C 13.015625 16.886719 12.226562 17.398438 10.886719 19.148438 C 9.976562 20.328125 7.871094 24.398438 7.359375 25.96875 C 7.128906 26.636719 6.667969 28.300781 6.3125 29.675781 L 5.679688 32.15625 L 5.621094 38.175781 L 5.570312 44.191406 L 5.828125 46.015625 C 6.449219 50.332031 7.140625 52.675781 8.527344 55.183594 C 9.003906 56.019531 9.539062 56.894531 9.707031 57.128906 C 9.890625 57.347656 10.144531 57.6875 10.28125 57.882812 C 10.753906 58.550781 14.074219 60.847656 14.292969 60.664062 C 14.378906 60.59375 14.476562 60.09375 14.527344 59.535156 Z M 62.042969 59.328125 C 62.273438 59.144531 62.617188 58.964844 62.808594 58.914062 C 62.992188 58.878906 63.140625 58.792969 63.140625 58.746094 C 63.140625 58.695312 62.75 58.222656 62.285156 57.699219 C 61.8125 57.175781 61.324219 56.554688 61.179688 56.335938 C 61.046875 56.105469 60.925781 55.921875 60.914062 55.921875 C 60.898438 55.921875 60.925781 56.398438 60.972656 56.992188 C 61.007812 57.578125 61.058594 58.441406 61.058594 58.925781 L 61.070312 59.789062 L 61.351562 59.730469 C 61.496094 59.691406 61.8125 59.511719 62.042969 59.328125 Z M 20.777344 59.363281 C 20.839844 59.242188 20.925781 58.441406 20.972656 57.578125 L 21.046875 55.996094 L 20.828125 56.238281 C 20.71875 56.363281 20.21875 56.945312 19.730469 57.527344 L 18.84375 58.597656 L 19.597656 59.085938 C 20.4375 59.632812 20.621094 59.667969 20.777344 59.363281 Z M 64.964844 52.628906 C 64.964844 52.007812 64.441406 49.917969 64.039062 48.921875 C 62.761719 45.761719 59.730469 40.179688 59.453125 40.496094 C 59.367188 40.582031 59.925781 43.644531 60.21875 44.679688 C 60.972656 47.378906 62.191406 49.675781 64.148438 52.128906 C 64.804688 52.933594 64.964844 53.03125 64.964844 52.628906 Z M 17.75 52.179688 C 18.054688 51.863281 18.746094 51 19.28125 50.269531 C 19.804688 49.527344 20.292969 48.910156 20.339844 48.898438 C 20.488281 48.835938 20.804688 48.191406 20.804688 47.949219 C 20.804688 47.828125 20.914062 47.511719 21.035156 47.242188 C 21.363281 46.550781 21.789062 45.273438 21.898438 44.617188 C 22.507812 41.238281 22.652344 40.230469 22.578125 40.046875 L 22.480469 39.816406 L 22.054688 40.300781 C 21.179688 41.296875 20.011719 43.378906 18.734375 46.199219 C 18.125 47.558594 17.019531 51.074219 16.847656 52.203125 L 16.765625 52.761719 L 16.984375 52.761719 C 17.105469 52.761719 17.445312 52.507812 17.75 52.179688 Z M 42.640625 37.808594 C 44.660156 37.652344 46.070312 37.371094 47.847656 36.765625 C 48.722656 36.460938 49.621094 36.179688 49.816406 36.144531 C 50.230469 36.082031 50.242188 36.082031 51.886719 35.367188 C 53.261719 34.757812 54.429688 34.050781 54.550781 33.738281 C 54.648438 33.457031 54.390625 32.957031 53.992188 32.667969 L 53.660156 32.421875 L 52.761719 32.996094 C 49.804688 34.832031 44.636719 36.253906 40.875 36.242188 L 39.234375 36.242188 L 36.617188 35.707031 L 34.003906 35.183594 L 32.054688 34.285156 C 30.996094 33.785156 29.683594 33.140625 29.148438 32.835938 L 28.1875 32.289062 L 27.714844 32.824219 C 27.457031 33.117188 27.261719 33.433594 27.273438 33.542969 C 27.300781 33.640625 27.519531 33.832031 27.761719 33.96875 C 28.003906 34.113281 28.550781 34.429688 28.976562 34.671875 C 30.839844 35.753906 35.097656 37.3125 36.972656 37.578125 C 37.480469 37.652344 38.175781 37.75 38.503906 37.796875 C 39.332031 37.929688 41.035156 37.929688 42.640625 37.808594 Z M 43.066406 34.941406 C 44.039062 34.832031 44.9375 34.695312 45.074219 34.648438 C 45.207031 34.585938 45.65625 34.492188 46.070312 34.40625 C 46.496094 34.332031 47.019531 34.199219 47.226562 34.101562 C 47.445312 34.015625 48.101562 33.832031 48.6875 33.6875 C 49.269531 33.554688 50.097656 33.261719 50.511719 33.054688 C 51.410156 32.605469 52.917969 31.730469 52.917969 31.65625 C 52.917969 31.621094 52.566406 31.183594 52.128906 30.671875 C 51.703125 30.175781 50.996094 29.261719 50.582031 28.65625 C 50.15625 28.046875 49.660156 27.328125 49.476562 27.0625 C 48.90625 26.246094 47.824219 24.011719 47.433594 22.832031 C 47.019531 21.617188 46.800781 20.691406 46.507812 18.964844 L 46.324219 17.808594 L 46.53125 16.496094 C 46.765625 14.988281 46.714844 14.832031 46.09375 15.113281 C 44.574219 15.804688 44.5 15.816406 42.699219 15.890625 C 39.78125 16.011719 37.3125 15.660156 35.570312 14.894531 L 34.9375 14.613281 L 34.867188 14.976562 C 34.828125 15.183594 34.792969 15.816406 34.792969 16.398438 C 34.792969 17.808594 34.511719 19.816406 34.113281 21.25 C 33.769531 22.527344 32.421875 25.410156 31.53125 26.792969 C 31.242188 27.246094 30.742188 28.144531 30.449219 28.789062 C 30.144531 29.433594 29.660156 30.246094 29.367188 30.613281 C 29.074219 30.964844 28.832031 31.339844 28.832031 31.425781 C 28.832031 31.632812 30.011719 32.242188 31.203125 32.640625 C 31.738281 32.824219 32.3125 33.042969 32.480469 33.140625 C 32.652344 33.226562 33.113281 33.421875 33.515625 33.566406 C 33.917969 33.699219 34.769531 34.003906 35.402344 34.222656 C 36.375 34.5625 37.796875 34.855469 39.476562 35.050781 C 40.351562 35.160156 41.421875 35.121094 43.066406 34.941406 Z M 44.441406 14.648438 C 45.925781 14.261719 47.082031 13.375 47.371094 12.402344 C 47.894531 10.648438 49.234375 9.324219 51.789062 8.046875 C 52.335938 7.769531 52.824219 7.476562 52.871094 7.402344 C 53.015625 7.160156 51.714844 7.34375 49.148438 7.9375 C 45.488281 8.789062 44.417969 8.921875 41.546875 8.839844 C 37.542969 8.71875 36.167969 8.4375 33.648438 7.222656 C 32.164062 6.503906 31.945312 6.539062 32.519531 7.402344 C 33.25 8.511719 33.636719 9.484375 34.367188 12.167969 C 34.453125 12.484375 34.597656 12.851562 34.695312 12.996094 C 35.0625 13.617188 37.382812 14.613281 38.929688 14.832031 C 40.046875 14.988281 43.589844 14.867188 44.441406 14.648438 Z M 45.339844 7.292969 C 45.886719 7.222656 47.175781 6.953125 48.199219 6.699219 C 51.007812 5.980469 52.09375 5.835938 54.867188 5.761719 C 56.242188 5.726562 57.601562 5.675781 57.894531 5.640625 L 58.417969 5.566406 L 58.152344 5.289062 C 58.003906 5.128906 57.3125 4.71875 56.617188 4.375 C 55.925781 4.035156 55.351562 3.707031 55.351562 3.648438 C 55.351562 3.597656 55.132812 3.464844 54.878906 3.367188 C 54.609375 3.257812 54.367188 3.125 54.332031 3.0625 C 54.195312 2.84375 51.65625 2.042969 50.0625 1.714844 C 48.539062 1.398438 44.707031 1.191406 40.085938 1.179688 C 36.351562 1.167969 35.667969 1.238281 32.726562 1.882812 C 30.460938 2.394531 29.5 2.6875 29.5 2.882812 C 29.5 3.488281 35.132812 6.457031 37.175781 6.917969 C 37.507812 6.992188 38.164062 7.160156 38.625 7.292969 L 39.476562 7.539062 L 41.910156 7.488281 C 43.25 7.453125 44.792969 7.367188 45.339844 7.292969 Z M 45.339844 7.292969 "
    />
    <path
      style="stroke: none; fill-rule: nonzero; fill: rgb(87.058824%, 83.137255%, 63.921569%); fill-opacity: 1"
      d="M 32.53125 79.035156 C 31.65625 78.816406 30.132812 77.394531 29.511719 76.203125 C 28.785156 74.804688 29.292969 73.078125 30.753906 71.933594 C 31.605469 71.277344 32.019531 71.121094 32.847656 71.121094 C 34.136719 71.121094 35.363281 71.703125 36.046875 72.640625 C 36.507812 73.273438 37.054688 74.355469 37.164062 74.863281 C 37.25 75.289062 36.933594 77.429688 36.714844 77.890625 C 36.640625 78.039062 36.242188 78.316406 35.828125 78.523438 C 34.707031 79.082031 33.503906 79.265625 32.53125 79.035156 Z M 34.671875 78.230469 C 34.867188 78.136719 35.269531 77.820312 35.558594 77.527344 C 36.726562 76.398438 36.496094 74.65625 34.964844 72.957031 C 33.722656 71.570312 32.726562 71.523438 31.230469 72.75 C 30.449219 73.382812 30.171875 74.050781 30.171875 75.230469 L 30.171875 76.191406 L 30.535156 76.6875 C 30.949219 77.261719 31.691406 77.84375 32.421875 78.183594 C 33.015625 78.464844 34.183594 78.488281 34.671875 78.230469 Z M 47.445312 79.035156 C 46.398438 78.707031 45.582031 78.039062 45.046875 77.054688 C 44.878906 76.75 44.828125 76.371094 44.828125 75.484375 L 44.828125 74.316406 L 45.269531 73.660156 C 46.484375 71.835938 47.53125 71.109375 49.050781 71.023438 L 49.988281 70.960938 L 50.511719 71.277344 C 51.214844 71.691406 51.847656 72.371094 52.324219 73.246094 L 52.738281 73.976562 L 52.738281 76.53125 L 52.398438 77.101562 C 51.945312 77.878906 51.324219 78.355469 50.21875 78.78125 C 49.257812 79.15625 48.164062 79.253906 47.445312 79.035156 Z M 49.125 78.355469 C 49.476562 78.246094 49.757812 78.121094 49.757812 78.074219 C 49.757812 78.027344 50.074219 77.832031 50.460938 77.648438 C 51.070312 77.382812 51.230469 77.234375 51.519531 76.699219 L 51.859375 76.070312 L 51.789062 75.132812 C 51.703125 73.878906 51.242188 72.957031 50.316406 72.238281 C 49.878906 71.910156 48.734375 71.863281 48.101562 72.164062 C 47.589844 72.410156 46.472656 73.601562 46.15625 74.234375 C 45.828125 74.914062 45.828125 76.46875 46.179688 77.125 C 46.59375 77.929688 47.421875 78.464844 48.308594 78.523438 C 48.40625 78.535156 48.785156 78.453125 49.125 78.355469 Z M 40.304688 77.84375 L 40.085938 77.515625 L 40.097656 73.855469 C 40.121094 70.0625 40.195312 69.394531 40.632812 68.992188 L 40.863281 68.773438 L 41.167969 68.980469 C 41.351562 69.089844 41.53125 69.371094 41.605469 69.648438 C 41.910156 70.78125 42.066406 75.460938 41.859375 77.125 C 41.765625 77.929688 41.546875 78.171875 40.914062 78.171875 C 40.621094 78.171875 40.460938 78.085938 40.304688 77.84375 Z M 41.300781 75.15625 C 41.300781 74.328125 41.167969 73.890625 40.996094 74.160156 C 40.863281 74.367188 40.839844 75.898438 40.960938 76.019531 C 41.144531 76.214844 41.289062 75.824219 41.300781 75.15625 Z M 58.332031 74.707031 C 58.164062 74.546875 58.027344 74.328125 58.027344 74.21875 C 58.027344 74.109375 57.882812 73.769531 57.699219 73.464844 C 57.285156 72.761719 57.203125 72.3125 56.996094 69.964844 L 56.835938 68.019531 L 57.082031 67.289062 C 57.214844 66.890625 57.359375 66.511719 57.421875 66.464844 C 57.652344 66.222656 58.066406 66.707031 58.636719 67.886719 L 59.246094 69.140625 L 59.355469 70.476562 C 59.429688 71.21875 59.441406 72.421875 59.402344 73.136719 C 59.320312 74.949219 59.003906 75.386719 58.332031 74.707031 Z M 58.394531 70.851562 C 58.394531 69.917969 58.261719 69.25 57.992188 68.894531 C 57.871094 68.714844 57.859375 68.917969 57.945312 70.050781 C 58.054688 71.570312 58.089844 71.726562 58.273438 71.726562 C 58.34375 71.726562 58.394531 71.375 58.394531 70.851562 Z M 22.796875 74.316406 C 22.566406 73.394531 23.078125 67.523438 23.453125 66.742188 C 23.820312 66.003906 24.792969 66.125 25.074219 66.949219 C 25.230469 67.449219 25.230469 70.246094 25.074219 70.925781 C 25 71.191406 24.988281 71.460938 25.023438 71.523438 C 25.121094 71.679688 24.828125 72.664062 24.417969 73.574219 C 24.125 74.21875 23.976562 74.414062 23.6875 74.523438 C 23.089844 74.71875 22.882812 74.683594 22.796875 74.316406 Z M 24.074219 70.195312 C 24.355469 68.738281 24.390625 68.019531 24.222656 67.898438 C 23.90625 67.703125 23.261719 71.351562 23.566406 71.644531 C 23.722656 71.8125 23.820312 71.535156 24.074219 70.195312 Z M 39.976562 62.171875 C 38.332031 61.660156 36.605469 59.910156 36.203125 58.332031 C 35.707031 56.433594 35.546875 53.757812 35.828125 51.789062 C 36.121094 49.589844 36.472656 47.816406 36.667969 47.425781 C 36.777344 47.230469 36.859375 46.976562 36.859375 46.878906 C 36.859375 46.695312 37.152344 45.953125 37.359375 45.589844 C 38.796875 43.097656 40.097656 41.917969 41.191406 42.125 C 41.800781 42.234375 42.445312 42.671875 42.917969 43.304688 C 43.929688 44.617188 44.28125 45.140625 44.28125 45.308594 C 44.28125 45.417969 44.441406 45.808594 44.636719 46.199219 C 44.828125 46.585938 44.964844 47.011719 44.9375 47.132812 C 44.902344 47.269531 44.988281 47.582031 45.121094 47.851562 C 45.488281 48.554688 45.996094 51.144531 46.132812 52.945312 C 46.351562 56.105469 46.007812 58.429688 45.074219 59.875 C 43.992188 61.578125 41.582031 62.660156 39.976562 62.171875 Z M 42.019531 61.128906 C 42.714844 60.894531 43.003906 60.726562 43.503906 60.214844 C 44.234375 59.496094 44.828125 58.378906 45.035156 57.320312 C 45.253906 56.253906 45.207031 52.144531 44.964844 51.425781 C 44.867188 51.121094 44.746094 50.574219 44.695312 50.210938 C 44.574219 49.152344 44.210938 47.898438 43.785156 46.988281 C 43.648438 46.71875 43.550781 46.40625 43.550781 46.28125 C 43.550781 45.566406 41.933594 43.363281 41.289062 43.207031 C 41.132812 43.160156 40.816406 43.195312 40.597656 43.28125 C 40.195312 43.4375 38.929688 44.582031 38.929688 44.789062 C 38.929688 44.847656 38.855469 44.996094 38.757812 45.089844 C 38.539062 45.335938 37.808594 47.132812 37.554688 48.019531 C 36.75 50.867188 36.519531 54.269531 36.933594 57.054688 C 37.117188 58.332031 37.371094 58.964844 38.027344 59.777344 C 38.515625 60.375 39.730469 61.152344 40.183594 61.152344 C 40.351562 61.152344 40.535156 61.210938 40.570312 61.273438 C 40.695312 61.457031 41.082031 61.417969 42.019531 61.128906 Z M 25.851562 58.746094 C 25.535156 58.683594 25.085938 58.257812 24.867188 57.84375 C 24.429688 56.992188 24.34375 51.765625 24.746094 50.125 C 24.855469 49.699219 24.964844 49.089844 25 48.75 C 25.023438 48.410156 25.15625 47.9375 25.292969 47.679688 C 25.414062 47.4375 25.644531 46.816406 25.789062 46.320312 C 26.15625 45.054688 26.640625 44.179688 27.980469 42.40625 C 29.148438 40.835938 29.695312 40.363281 30.328125 40.363281 C 30.777344 40.363281 31.472656 41.285156 31.582031 42.039062 C 31.835938 43.65625 31.59375 46.683594 30.949219 49.832031 C 30.449219 52.335938 29.464844 56.046875 29.125 56.75 L 28.808594 57.40625 L 27.808594 58.050781 C 26.835938 58.671875 26.339844 58.855469 25.851562 58.746094 Z M 26.667969 57.675781 C 27.410156 57.382812 27.785156 56.992188 28.332031 55.9375 C 28.976562 54.695312 29.269531 53.796875 29.769531 51.484375 C 30.402344 48.542969 30.414062 48.445312 30.558594 46.625 C 30.804688 43.632812 30.707031 41.675781 30.328125 41.515625 C 29.878906 41.347656 28.332031 43.292969 27.347656 45.285156 C 26.65625 46.660156 26.214844 47.949219 25.828125 49.664062 C 25.304688 52.007812 25.304688 56.542969 25.816406 57.601562 C 25.984375 57.917969 26.007812 57.929688 26.667969 57.675781 Z M 54.648438 58.523438 C 53.429688 57.917969 52.785156 56.910156 52.066406 54.464844 C 51.789062 53.492188 51.472656 52.457031 51.375 52.15625 C 50.839844 50.476562 50.304688 45.832031 50.390625 43.558594 C 50.449219 41.882812 50.621094 41.261719 51.105469 40.921875 C 51.460938 40.679688 52.335938 40.667969 52.796875 40.910156 C 53.140625 41.089844 54.136719 42.269531 54.136719 42.503906 C 54.136719 42.5625 54.269531 42.769531 54.441406 42.953125 C 54.769531 43.339844 56.191406 46.199219 56.484375 47.050781 C 56.738281 47.828125 56.886719 48.363281 57.261719 50.027344 L 57.589844 51.484375 L 57.589844 53.613281 C 57.589844 55.800781 57.382812 57.359375 56.984375 58.136719 C 56.605469 58.878906 55.667969 59.035156 54.648438 58.523438 Z M 55.914062 58.015625 C 56.191406 57.832031 56.351562 57.320312 56.519531 55.949219 C 56.777344 54.0625 56.75 53.429688 56.375 51.253906 C 55.742188 47.570312 55.183594 46.0625 53.601562 43.667969 C 52.578125 42.113281 51.972656 41.652344 51.582031 42.125 C 51.375 42.378906 51.351562 46.636719 51.546875 47.535156 C 51.628906 47.898438 51.789062 48.773438 51.898438 49.480469 C 52.175781 51.242188 52.945312 54.246094 53.40625 55.351562 C 53.867188 56.472656 54.550781 57.46875 55.097656 57.832031 C 55.535156 58.125 55.695312 58.160156 55.914062 58.015625 Z M 55.914062 58.015625 "
    />
  </g>
</svg>
