<svg xmlns="http://www.w3.org/2000/svg" id="root" viewBox="0 0 100 82">
  <g>
    <path
      d="M 96.496094 81.367188 C 96.355469 80.996094 96.15625 79.464844 96.042969 77.960938 C 95.929688 76.425781 95.757812 75.175781 95.644531 75.175781 C 95.53125 75.175781 95.277344 74.609375 95.078125 73.898438 C 94.851562 73.160156 94.226562 72.109375 93.632812 71.484375 C 93.035156 70.890625 92.496094 70.179688 92.382812 69.925781 C 92.296875 69.695312 92.015625 69.414062 91.730469 69.300781 C 91.476562 69.1875 90.738281 68.5625 90.085938 67.878906 C 89.433594 67.199219 88.808594 66.660156 88.695312 66.660156 C 88.382812 66.660156 82.566406 60.78125 82.566406 60.441406 C 82.566406 60.269531 82.3125 60.015625 82 59.84375 C 81.6875 59.675781 81.433594 59.390625 81.433594 59.222656 C 81.433594 59.050781 81.121094 58.484375 80.722656 57.972656 C 80.328125 57.460938 80.015625 56.921875 80.015625 56.808594 C 80.015625 56.664062 79.789062 56.296875 79.503906 55.984375 C 79.222656 55.671875 78.738281 54.820312 78.457031 54.082031 C 78.171875 53.34375 77.859375 52.746094 77.746094 52.746094 C 77.632812 52.746094 77.378906 52.238281 77.179688 51.613281 C 76.980469 50.988281 76.726562 50.476562 76.609375 50.476562 C 76.496094 50.476562 76.242188 49.964844 76.042969 49.3125 C 75.789062 48.574219 75.417969 48.0625 74.996094 47.890625 C 74.625 47.75 74.257812 47.410156 74.144531 47.15625 C 74.03125 46.871094 73.804688 46.53125 73.605469 46.359375 C 73.40625 46.21875 73.207031 45.820312 73.152344 45.507812 C 72.980469 44.484375 72.1875 44.742188 70.484375 46.359375 C 69.578125 47.210938 68.582031 48.007812 68.328125 48.089844 C 68.042969 48.175781 67.816406 48.347656 67.816406 48.488281 C 67.816406 48.628906 67.5625 48.828125 67.222656 48.914062 C 66.910156 49.027344 65.207031 50.53125 63.421875 52.265625 C 61.660156 54.023438 59.988281 55.585938 59.703125 55.757812 C 58.625 56.382812 58.203125 57.433594 57.890625 60.128906 C 57.71875 61.605469 57.464844 62.882812 57.351562 62.96875 C 57.207031 63.054688 56.894531 63.933594 56.640625 64.957031 C 55.421875 69.980469 54.9375 71.628906 54.710938 71.714844 C 54.597656 71.769531 54.484375 72.679688 54.457031 73.699219 C 54.429688 76.9375 54.089844 78.78125 53.40625 79.519531 C 52.246094 80.742188 48.472656 81.28125 46.828125 80.429688 C 45.804688 79.917969 45.75 79.578125 46.597656 79.121094 C 46.941406 78.925781 48.160156 77.84375 49.265625 76.710938 C 50.910156 75.0625 51.335938 74.410156 51.507812 73.5 C 51.621094 72.847656 51.789062 72.335938 51.933594 72.335938 C 52.160156 72.335938 52.214844 71.855469 52.839844 66.035156 C 53.011719 64.1875 53.265625 62.683594 53.378906 62.683594 C 53.492188 62.683594 53.664062 61.378906 53.746094 59.789062 C 53.945312 56.550781 54.457031 53.316406 54.742188 53.316406 C 54.855469 53.316406 55.167969 52.746094 55.476562 52.039062 C 55.789062 51.328125 56.128906 50.761719 56.242188 50.761719 C 56.355469 50.761719 56.667969 50.304688 56.925781 49.765625 C 57.179688 49.226562 57.464844 48.773438 57.578125 48.773438 C 57.691406 48.773438 57.945312 48.320312 58.171875 47.777344 C 58.398438 47.238281 58.65625 46.785156 58.738281 46.785156 C 58.855469 46.785156 59.164062 46.246094 59.476562 45.59375 C 59.761719 44.910156 60.300781 44.144531 60.640625 43.859375 C 61.007812 43.578125 61.292969 43.179688 61.292969 43.007812 C 61.292969 42.808594 61.546875 42.5 61.859375 42.300781 C 62.171875 42.101562 62.429688 41.761719 62.429688 41.53125 C 62.429688 41.304688 62.597656 41.023438 62.824219 40.910156 C 63.449219 40.539062 64.953125 37.984375 65.152344 36.933594 C 65.234375 36.421875 65.433594 35.996094 65.546875 35.996094 C 65.691406 35.996094 66.003906 35.003906 66.257812 33.808594 C 66.511719 32.589844 66.824219 31.339844 66.964844 31.027344 C 67.363281 30.121094 67.875 25.09375 67.929688 21.460938 C 67.960938 18.394531 67.902344 18.109375 67.335938 17.484375 C 66.625 16.746094 64.273438 16.121094 62.117188 16.121094 C 60.699219 16.121094 57.890625 16.859375 57.890625 17.230469 C 57.890625 17.34375 57.378906 17.628906 56.78125 17.824219 C 56.160156 18.023438 55.589844 18.367188 55.507812 18.5625 C 55.421875 18.792969 55.195312 18.960938 54.996094 18.960938 C 54.203125 18.960938 52.980469 20.808594 52.613281 22.566406 C 52.046875 25.179688 51.535156 25.578125 48.554688 25.71875 C 46.316406 25.832031 46.058594 25.917969 45.265625 26.683594 C 44.558594 27.421875 44.300781 27.507812 43.421875 27.367188 C 42.882812 27.28125 41.578125 27.109375 40.527344 27.023438 C 38.855469 26.855469 38.601562 26.882812 38.601562 27.308594 C 38.601562 27.5625 38.488281 27.761719 38.34375 27.761719 C 38.203125 27.761719 38.003906 28.1875 37.917969 28.699219 C 37.804688 29.183594 37.351562 30.121094 36.898438 30.714844 C 36.414062 31.339844 36.046875 31.992188 36.046875 32.191406 C 36.046875 32.363281 35.875 32.589844 35.679688 32.675781 C 35.054688 32.902344 34.628906 35.570312 34.628906 39.148438 C 34.628906 40.992188 34.515625 42.527344 34.402344 42.527344 C 34.257812 42.527344 33.917969 43.71875 33.636719 45.167969 C 33.351562 46.585938 32.984375 47.863281 32.8125 47.976562 C 32.386719 48.261719 32.414062 58.113281 32.839844 58.367188 C 33.066406 58.511719 33.265625 61.121094 33.4375 66.007812 C 33.722656 73.445312 33.722656 73.445312 34.628906 75.289062 C 35.707031 77.449219 37.324219 79.007812 38.769531 79.292969 C 39.335938 79.378906 39.988281 79.664062 40.214844 79.890625 C 40.445312 80.117188 40.871094 80.285156 41.152344 80.285156 C 41.4375 80.285156 41.777344 80.429688 41.863281 80.570312 C 41.976562 80.742188 40.726562 80.855469 38.34375 80.855469 C 36.046875 80.855469 34.628906 80.96875 34.628906 81.140625 C 34.628906 81.308594 33.890625 81.421875 33.011719 81.421875 C 30.570312 81.394531 30.089844 80.882812 30.089844 78.328125 C 30.089844 77.25 30.230469 76.253906 30.375 76.171875 C 30.714844 75.941406 30.742188 72.707031 30.402344 72.566406 C 30.261719 72.535156 29.917969 70.492188 29.664062 68.078125 C 29.378906 65.664062 29.039062 63.535156 28.898438 63.335938 C 28.757812 63.167969 28.558594 61.40625 28.472656 59.449219 C 28.332031 56.523438 28.21875 55.871094 27.878906 55.871094 C 27.339844 55.871094 25.835938 57.433594 25.265625 58.566406 C 25.039062 59.050781 24.613281 59.675781 24.359375 59.957031 C 24.074219 60.269531 23.847656 60.667969 23.847656 60.839844 C 23.847656 61.605469 21.4375 64.105469 20.671875 64.105469 C 20.417969 64.105469 20.019531 64.304688 19.765625 64.53125 C 19.539062 64.757812 19.226562 64.957031 19.054688 64.957031 C 18.601562 64.957031 16.078125 65.863281 15.90625 66.0625 C 15.820312 66.175781 15.226562 66.488281 14.542969 66.746094 C 13.863281 67.027344 13.15625 67.367188 12.984375 67.511719 C 12.21875 68.136719 9.949219 69.78125 9.835938 69.78125 C 9.636719 69.78125 7.964844 71.429688 7.964844 71.628906 C 7.964844 71.742188 7.625 72.222656 7.226562 72.707031 C 6.460938 73.613281 6.460938 73.613281 6.660156 77.277344 C 6.855469 80.597656 6.828125 80.910156 6.402344 80.742188 C 6.148438 80.65625 5.808594 80.570312 5.664062 80.570312 C 5.496094 80.570312 5.242188 80.203125 5.097656 79.71875 C 4.929688 79.265625 4.671875 78.867188 4.53125 78.867188 C 4.390625 78.867188 4.078125 78.355469 3.820312 77.730469 C 3.566406 77.105469 3.253906 76.597656 3.140625 76.597656 C 3 76.597656 2.800781 76.3125 2.6875 75.972656 C 2.574219 75.601562 2.148438 74.808594 1.722656 74.183594 C 1.296875 73.558594 0.871094 72.761719 0.757812 72.421875 C 0.644531 72.054688 0.417969 71.769531 0.277344 71.769531 C -0.261719 71.769531 0.0507812 70.945312 0.671875 70.777344 C 1.015625 70.691406 1.554688 70.492188 1.863281 70.378906 C 2.175781 70.238281 3 69.953125 3.679688 69.753906 C 4.503906 69.5 5.523438 68.816406 6.601562 67.824219 C 7.511719 66.972656 8.246094 66.175781 8.246094 66.0625 C 8.246094 65.550781 12.503906 60.980469 12.984375 60.980469 C 13.183594 60.980469 13.351562 60.894531 13.351562 60.753906 C 13.351562 60.554688 15.339844 59.84375 15.933594 59.84375 C 16.644531 59.84375 18.375 58.851562 19.226562 57.941406 C 19.765625 57.402344 20.21875 56.550781 20.332031 55.925781 C 20.445312 55.359375 20.671875 54.792969 20.84375 54.679688 C 21.039062 54.535156 21.152344 53.257812 21.152344 51.101562 C 21.152344 48.375 21.070312 47.664062 20.699219 47.269531 C 19.960938 46.558594 19.507812 44.117188 19.707031 42.15625 C 19.960938 39.746094 20.445312 37.417969 20.699219 37.417969 C 20.8125 37.417969 21.125 36.707031 21.4375 35.855469 C 21.722656 35.003906 22.035156 34.292969 22.117188 34.292969 C 22.203125 34.292969 22.542969 33.753906 22.855469 33.074219 C 23.167969 32.417969 23.566406 31.710938 23.765625 31.511719 C 23.960938 31.3125 24.191406 30.6875 24.304688 30.089844 C 24.417969 29.523438 24.644531 28.871094 24.8125 28.644531 C 25.011719 28.386719 25.125 26.515625 25.125 23.390625 C 25.152344 20.722656 25.265625 18.222656 25.382812 17.824219 C 25.804688 16.632812 28.332031 14.703125 29.492188 14.703125 C 29.664062 14.703125 29.804688 14.589844 29.804688 14.476562 C 29.804688 14.335938 30.457031 14.078125 31.28125 13.878906 C 32.074219 13.710938 32.898438 13.425781 33.125 13.253906 C 33.636719 12.828125 33.578125 11.609375 33.039062 10.585938 C 32.757812 10.074219 32.558594 8.996094 32.53125 7.890625 C 32.5 6.101562 32.53125 5.988281 33.550781 5.050781 C 35.507812 3.175781 35.449219 3.203125 38.117188 3.203125 C 40.527344 3.203125 40.671875 3.234375 41.324219 4.027344 C 41.945312 4.738281 42.03125 5.105469 42.003906 6.726562 C 41.917969 10.726562 42.03125 13.851562 42.289062 13.851562 C 42.429688 13.851562 42.742188 14.078125 43.023438 14.335938 C 43.449219 14.789062 44.101562 14.84375 48.019531 14.84375 C 51.082031 14.84375 52.585938 14.730469 52.726562 14.53125 C 52.839844 14.335938 53.464844 14.050781 54.144531 13.851562 C 56.160156 13.226562 55.421875 11.578125 52.8125 10.957031 C 52.015625 10.785156 51.363281 10.53125 51.363281 10.414062 C 51.363281 10.300781 50.996094 10.132812 50.542969 10.019531 C 49.71875 9.847656 49.71875 9.820312 50.171875 9.054688 C 50.769531 8.003906 50.402344 7.632812 47.960938 6.839844 C 46.117188 6.242188 46.117188 6.242188 47.195312 6.042969 C 48.5 5.789062 51.476562 6.101562 51.59375 6.46875 C 51.648438 6.640625 51.820312 6.753906 51.988281 6.753906 C 52.160156 6.753906 52.726562 7.152344 53.265625 7.605469 C 53.976562 8.230469 54.511719 8.457031 55.335938 8.457031 C 56.128906 8.457031 56.527344 8.597656 56.726562 8.96875 C 56.867188 9.253906 57.519531 9.648438 58.144531 9.875 C 58.796875 10.074219 59.308594 10.332031 59.308594 10.445312 C 59.308594 10.558594 60.101562 10.8125 61.039062 10.984375 C 63.195312 11.410156 64.042969 11.125 65.660156 9.394531 C 66.285156 8.710938 66.964844 8.171875 67.164062 8.171875 C 67.335938 8.171875 67.675781 8.003906 67.875 7.804688 C 68.386719 7.292969 69.660156 6.980469 70.484375 7.207031 C 70.996094 7.320312 71.277344 7.71875 71.617188 8.824219 C 72.269531 10.8125 73.035156 11.578125 74.371094 11.578125 C 75.957031 11.578125 76.128906 11.039062 75.902344 7.179688 C 75.675781 3.488281 75.929688 2.324219 77.234375 1.074219 C 78.257812 0.0820312 79.957031 -0.230469 81.945312 0.195312 C 84.667969 0.761719 86.113281 3.402344 85.066406 5.816406 C 84.527344 7.007812 84.070312 7.546875 82 9.367188 C 80.667969 10.558594 80.808594 11.636719 82.566406 13.3125 C 83.703125 14.390625 83.988281 14.84375 83.988281 15.582031 C 83.988281 17.03125 83.390625 20.097656 83.105469 20.097656 C 82.964844 20.097656 82.851562 20.269531 82.851562 20.464844 C 82.851562 20.664062 82.339844 21.773438 81.71875 22.9375 C 79.164062 27.761719 78.878906 28.472656 78.878906 29.976562 C 78.878906 30.800781 78.964844 31.453125 79.109375 31.453125 C 79.222656 31.453125 79.5625 32.53125 79.84375 33.867188 C 80.128906 35.203125 80.46875 36.367188 80.582031 36.421875 C 80.695312 36.507812 80.867188 37.160156 80.980469 37.898438 C 81.066406 38.664062 81.375 39.660156 81.660156 40.113281 C 81.972656 40.597656 82.371094 41.675781 82.566406 42.527344 C 82.765625 43.378906 83.023438 44.144531 83.136719 44.230469 C 83.363281 44.402344 84.269531 48.746094 84.269531 49.625 C 84.269531 49.9375 84.382812 50.191406 84.496094 50.191406 C 84.78125 50.191406 85.6875 54.28125 85.6875 55.53125 C 85.6875 56.664062 86.910156 58.597656 87.757812 58.824219 C 89.320312 59.191406 92.214844 62.34375 92.214844 63.648438 C 92.214844 63.875 92.382812 64.246094 92.609375 64.472656 C 92.835938 64.699219 93.234375 65.523438 93.488281 66.320312 C 93.773438 67.113281 94.140625 67.910156 94.367188 68.105469 C 94.597656 68.277344 94.765625 68.589844 94.765625 68.761719 C 94.792969 68.929688 95.304688 69.527344 95.929688 70.066406 C 98.339844 72.140625 99.304688 73.160156 99.304688 73.558594 C 99.304688 73.8125 99.476562 74.039062 99.644531 74.097656 C 100.097656 74.269531 100.128906 78.8125 99.671875 79.09375 C 99.503906 79.207031 99.304688 79.578125 99.191406 79.890625 C 98.964844 80.683594 97.660156 81.992188 97.121094 81.992188 C 96.921875 81.992188 96.636719 81.707031 96.496094 81.367188 Z M 96.496094 81.367188 "
    />
  </g>
</svg>
