<svg id="root" xmlns="http://www.w3.org/2000/svg" width="768" height="441" viewBox="0 0 7680 4410">
  <g>
    <path
      d="M0 2205V0h7680v4410H0V2205zm3955 1133c61-244 111-448 113-454 3-13-206-168-228-168-27 0-232 156-227 173 2 9 53 213 113 454 60 240 111 437 114 437s55-199 115-442zm-265 132c0-14-89-370-95-380-3-4-17-11-32-14-16-4-62-23-104-42l-75-35-172 103c-95 57-172 106-172 110 0 12 141 103 225 145 157 79 425 150 425 113zm435-9c98-24 211-64 290-103 69-34 225-136 225-146 0-4-77-53-172-110l-171-103-77 35c-42 19-89 38-103 41-15 4-30 12-34 18-3 5-27 95-53 199l-48 188h32c17 0 67-9 111-19zm-995-382c313-188 400-244 396-257-3-9-13-69-22-132s-20-119-25-124-69-19-143-31l-135-22-237 396c-272 455-247 411-240 411 2 0 185-108 406-241zm1818 219c-8-13-115-192-238-398s-225-377-227-380c-5-6-255 30-274 40-10 6-20 44-33 127-10 65-19 126-20 136-1 15 92 75 394 257 217 131 399 239 404 239 4 1 2-9-6-21zm-2008-469 102-171-35-77c-19-42-39-89-44-106-9-29-13-31-201-79-106-27-195-46-199-43-21 21 56 297 118 419 40 80 136 228 147 228 5 0 55-77 112-171zm1973 89c73-111 111-189 152-311 35-107 63-243 52-253-4-4-93 15-198 42l-192 49-14 40c-7 22-27 70-44 106l-31 67 102 171c57 94 106 171 111 171 4 0 32-37 62-82zm-923-339c82-34 154-66 159-73 5-6 37-77 70-158l61-146-61-149c-34-81-65-152-70-157-4-5-76-37-159-72l-151-63-147 61c-81 33-152 66-159 72-6 6-39 78-72 159l-61 148 64 155c35 86 66 157 68 158 8 5 294 124 301 125 5 1 75-27 157-60zm-738-263c44-59 77-114 74-121-2-7-39-61-82-119-55-76-81-105-93-102-9 3-198 51-421 106-223 56-423 106-445 111-37 10-15 17 410 124 248 62 456 113 464 112s50-51 93-111zm1723 0c248-62 443-116 435-119-8-4-206-54-440-112s-432-108-441-111c-12-3-38 25-93 100-42 57-78 111-82 119-7 18 146 238 165 237 3 0 209-52 456-114zm-2235-301c80-20 161-40 180-45 30-8 37-16 48-52 7-24 27-73 43-109l30-65-103-172c-57-95-106-172-109-172-8 0-87 118-127 190-65 115-141 354-142 443 0 22 4 27 18 23 9-3 82-21 162-41zm2380 18c0-48-49-231-84-316-47-113-166-316-186-317-3 0-51 77-108 171l-103 172 35 81c19 44 38 93 41 109 5 18 16 29 34 34 14 4 100 26 191 49s168 43 173 43c4 1 7-11 7-26zm-1757-169c103-15 118-20 122-38 3-12 13-74 23-139 16-103 17-119 4-129-22-19-787-477-790-473-1 1 106 183 239 405 214 356 244 401 263 397 11-3 74-13 139-23zm1353-371c130-219 239-402 242-407 3-6-10 0-29 11s-196 118-394 237c-198 118-365 219-372 223-9 6-6 42 10 148l23 140 129 22c72 11 136 22 142 22 7 1 119-178 249-396zm-753 116c80-59 107-84 103-97-3-9-53-208-111-442s-108-432-111-440-57 192-120 444c-89 356-112 461-102 467 7 4 56 39 108 78s102 70 110 70 64-36 123-80zm-512-238c35-16 83-34 106-41l41-13 50-199 50-200-54 7c-85 10-221 50-320 93-92 40-284 157-284 173 0 7 328 209 341 209 3 0 35-13 70-29zm1020-72c93-55 169-104 169-108 0-11-152-108-235-149-95-47-207-85-309-107-127-26-121-44-64 184l50 198 39 12c21 6 66 25 101 41 35 15 67 29 71 29 4 1 84-44 178-100z" />
    <path
      d="M3814 3233c-45-188-57-217-100-233-34-13-30-32 16-69 22-18 52-54 65-82 35-68 55-65 96 11 19 37 45 68 65 81 40 25 43 46 9 59-35 13-59 58-80 148-25 113-25 112-45 112-13 0-22-9-26-27zm36-157c0-7 11-34 25-60l25-46-28-40c-15-21-29-39-32-39s-19 19-35 42l-31 42 24 35c13 19 26 47 29 62 5 27 23 30 23 4zm-605-185c-11-5-31-21-45-36-35-38-35-112 0-150 18-20 24-35 21-64-2-32 2-42 25-60 15-11 34-21 44-21s29 10 44 21c23 18 27 28 25 60-3 29 3 44 21 64 20 21 25 37 25 76 0 41-5 53-31 80-33 33-92 46-129 30zm108-62c40-49 2-129-63-129-71 0-105 86-54 137 21 21 32 24 62 19 20-3 45-15 55-27zm-33-193c0-13-7-26-15-30-25-9-45 4-45 30 0 20 5 24 30 24s30-4 30-24zm981 245c-37-39-61-121-64-212l-2-74 119-3 119-3-6 88c-6 107-29 174-69 208-39 33-64 32-97-4zm82-63c13-28 37-132 37-160 0-4-30-8-66-8h-67l6 54c6 65 40 146 60 146 8 0 22-15 30-32zm-792-466c-49-26-60-47-39-69 17-16 20-16 57 5 48 27 77 28 119 2 32-20 32-20 65 0 40 25 73 25 117 1 34-18 36-18 72 0 47 24 62 24 116-3 43-21 45-21 58-3 12 16 11 22-7 42-31 32-83 47-138 38-25-4-59-6-76-5-32 2-109 3-165 1-19-1-60 1-90 4-43 5-63 2-89-13zm2-123c-41-20-61-48-48-69 9-15 32-12 61 6 32 22 94 21 127-1 24-15 29-16 50-2 41 27 79 29 121 7l40-20 43 21c45 22 63 20 120-9 30-15 34-15 49 0s15 18-8 41c-38 38-100 54-151 38-52-15-52-15-105 1-36 10-50 10-86-3-35-12-47-13-71-2-44 18-95 16-142-8zm23-114c-48-17-81-48-73-69 8-20 34-20 67-1 34 19 86 19 121-2 27-16 31-16 58 0 37 22 94 22 127 0 23-15 28-15 60 0 43 21 94 22 120 2 48-37 92-2 50 40-37 37-99 50-153 32-38-13-50-13-94 0s-56 13-95 0c-38-12-50-12-82-1-46 16-58 16-106-1zm-691 191c-27-13-66-40-84-60l-35-36 35-36c101-107 272-112 377-11 17 17 32 39 32 48 0 22-62 76-114 100-59 27-148 25-211-5zm199-42c17-8 42-24 55-35l25-20-30-24c-36-30-44-31-44-5 0 65-66 111-128 89-34-12-62-52-62-89 0-26-8-25-45 5l-30 24 30 25c63 53 157 65 229 30zm-64-79c0-31-26-43-46-23s-7 48 22 48c19 0 24-5 24-25zm1359 38c6-10 31-44 56-76 43-54 50-59 78-54 26 4 38-1 63-25l32-30 67 53 68 53 29-17c29-16 29-16 113 41 46 31 84 60 85 65 0 4-135 7-300 7-283 0-300-1-291-17zm-1226-520c7-104 21-151 56-194 75-90 158 8 177 209l7 72h-246l6-87zm173-19c-9-68-23-117-41-139-15-20-15-20-35 3-20 24-33 65-45 140l-7 42h135l-7-46zm981 101c-65-23-97-65-97-130 0-78 50-134 128-143 86-10 152 52 152 143 0 96-92 162-183 130zm89-108c54-47 24-127-47-127-66 0-95 88-43 129 34 27 57 26 90-2zm-653-122c-40-17-87-86-78-114 11-37 49-27 70 19 17 37 24 44 42 38 12-4 5-26-34-105-30-61-34-78-28-114 14-85 104-143 155-101 26 21 27 29 17 182-1 25 2 35 13 35s14-8 12-29c-4-32 15-51 35-34 22 18 16 76-12 103-30 31-46 31-71 4-16-18-19-37-19-117s-3-97-16-100c-22-4-46 27-54 68-5 29 1 49 34 114 46 89 49 105 24 134-25 28-52 33-90 17z" />
  </g>
</svg>