<svg id="root" xmlns="http://www.w3.org/2000/svg" width="768" height="441" viewBox="0 0 7680 4410">
  <g>
    <path
      d="M3706 3317c-60-243-111-447-113-453s48-48 112-93l115-83 115 83c80 58 114 88 110 98-2 9-52 210-111 446-59 237-110 433-113 437-3 3-55-192-115-435zm144-119c45-180 55-203 96-218 29-11 32-46 6-54-27-9-62-49-92-104-14-26-31-47-39-47s-30 27-50 60-51 69-68 80c-39 24-42 52-8 65 32 12 59 67 80 165 21 95 21 95 45 95 14 0 22-11 30-42z" />
    <path
      d="M3810 3062c0-10-11-40-25-66l-25-46 28-40c26-38 42-50 42-31 0 5 12 23 26 40l25 30-25 44c-14 24-26 51-26 60s-4 19-10 22c-5 3-10-2-10-13zm-275 378c-95-22-208-61-290-102-69-35-225-136-225-146 1-4 78-53 172-109l170-102 32 16c17 9 65 28 106 44l75 27 42 163c61 238 60 229 26 228-15 0-64-9-108-19zm435 11c0-21 91-376 98-382 4-4 25-12 47-19s67-26 99-42l59-29 171 102c94 56 173 104 176 106 15 13-199 142-311 187-143 58-339 102-339 77zm-1259-171c9-14 116-193 239-398 123-206 229-376 236-379 13-5 263 33 272 41 6 7 42 224 41 256 0 22-39 49-351 235-495 296-456 275-437 245zm648-446c30-33 33-41 28-81-3-27-14-54-28-69-17-19-23-34-20-63 2-32-2-42-25-60-15-11-34-21-44-21s-29 10-44 21c-23 18-27 28-25 61 2 21-1 42-7 46-49 33-58 114-17 162 34 41 58 51 108 45 30-3 48-13 74-41z" />
    <path
      d="M3233 2828c-56-27-50-114 9-139 37-15 74 1 97 42 19 33 1 81-35 98-30 13-42 13-71-1zm9-210c2-17 10-23 28-23s26 6 28 23c3 19-1 22-28 22s-31-3-28-22zm1290 441c-238-141-402-245-399-252 2-7 13-68 23-135 15-107 21-125 38-132 41-14 258-42 266-34 5 5 111 180 237 389s232 386 236 393c5 6 7 12 5 12s-185-108-406-241zm-149-196c14-16 33-45 42-66 15-37 37-204 28-219-2-5-59-8-125-8h-121l6 78c8 102 32 179 67 214 36 35 69 36 103 1z" />
    <path
      d="M4300 2787c-11-24-22-69-26-101l-7-57 64 3 64 3-4 45c-4 61-39 150-57 150-8 0-24-19-34-43zm-1550 116c-97-145-171-327-201-495-7-38-10-70-7-73s92 16 198 43l193 48 17 50c10 27 29 75 44 106l26 56-102 171c-57 94-106 171-110 171-3 0-30-35-58-77zm1972-94-104-172 35-76c19-42 39-89 44-106 9-28 14-30 202-77 107-27 196-46 199-43 8 8-27 172-54 255-14 41-43 111-64 155-39 81-137 235-149 235-3 0-53-77-109-171zm-1052-250c-80-33-150-66-157-72-6-7-39-78-72-159l-61-147 62-148c33-81 65-152 69-157 5-5 76-37 159-72l150-62 151 64c83 35 154 66 157 69s34 73 68 156l62 150-60 147c-33 81-65 152-71 159-10 9-300 134-310 133-1 0-67-28-147-61zm78-219c24 1 138 2 175 1 12-1 47 2 78 5 45 5 65 2 96-15 23-11 43-28 47-37 13-35-38-60-63-30-21 25-71 28-116 6l-41-20-40 20c-42 22-80 20-121-7-20-13-26-14-45-1-44 28-77 30-124 7-49-23-74-20-74 9 0 44 64 74 145 66 33-2 70-4 83-4zm-8-122c14 0 46 3 72 7 31 5 58 3 77-5 24-10 40-9 79 0 62 16 114 7 153-28 50-45 8-87-45-47-26 20-91 19-122-2-24-15-27-15-54 0-36 22-94 22-131 0-27-16-31-16-58 0-37 22-91 22-129 0-36-21-65-11-60 19 2 16 18 31 48 46 37 19 54 22 95 17 28-4 61-7 75-7zm-35-122c31-13 39-13 70 0 41 17 68 17 115 1 28-10 43-10 74 1 48 16 104 8 147-21 40-27 45-40 24-61-16-15-19-15-50 4-40 24-87 26-126 3-27-16-31-16-64 0-45 22-89 22-126 0-27-16-31-16-58 0-39 23-86 21-128-4-27-17-36-19-48-9-22 18-18 43 11 64 50 36 106 44 159 22zm-1019 199c-425-107-448-114-410-124 21-5 219-55 440-110 220-55 407-103 415-106 20-7 184 218 173 237-26 43-157 218-162 217-4 0-209-51-456-114zm439-9c28-13 66-40 85-60l34-36-44-45c-59-60-109-78-203-73-65 3-81 8-123 37-27 18-57 44-68 58-18 25-18 25 15 60 50 52 122 83 194 83 42 0 75-7 110-24z" />
    <path
      d="M2920 2238c-61-32-72-53-40-78 33-26 40-25 40 6 0 35 16 61 48 78 44 25 1 18-48-6zm139 8c28-16 50-52 51-83 0-30 11-29 40 2 20 21 21 27 9 41-8 10-32 25-54 35-46 21-82 25-46 5zm-68-70c-9-11-8-17 4-30 20-20 47-9 43 18-4 25-30 32-47 12zm1419 123c-45-62-79-117-76-125s40-61 83-119c54-74 82-104 92-100 8 3 195 51 415 106 221 55 419 105 440 110 38 10 15 17-415 125-249 62-455 113-456 114-1 0-38-50-83-111zm580-87c0-5-38-35-85-66-86-57-86-57-114-40l-29 17-67-53-66-53-29 28c-24 23-35 27-63 22-32-5-36-2-90 68-31 41-57 77-57 80s135 5 300 5 300-4 300-8zm-2445-228c19-157 104-373 208-526 28-43 54-78 57-78s51 79 108 174l103 174-29 59c-16 32-35 76-42 98s-16 44-20 48c-4 5-94 30-200 57l-192 48 7-54zm2364 6c-102-26-190-50-196-53-6-4-14-19-18-34-3-15-22-61-41-102l-34-75 102-173c57-95 105-173 108-173 10 0 109 157 148 235 59 118 135 377 121 413-2 5-88-12-190-38zm-1964-517c-131-219-240-401-242-405s176 100 396 233c334 200 401 244 401 262 0 26-37 258-42 261-2 1-55 10-118 20s-125 20-137 23c-19 4-47-39-258-394zm465 255c-1-112-49-245-97-267-33-15-37-14-72 15-36 30-66 119-76 227l-7 67h252v-42z" />
    <path
      d="M3225 1668c11-69 23-111 41-136 15-21 17-22 33-7 20 17 36 66 46 138l7 47h-134l7-42zm1085 179c-69-11-127-22-129-24-4-3-50-277-47-279 1-1 775-467 799-481 13-8 5 5-247 425-126 210-234 381-240 381-6-1-67-11-136-22zm102-77c45-13 93-66 102-114 9-50-22-119-66-146-39-24-107-26-148-5-105 54-87 231 26 265 39 11 44 11 86 0z" />
    <path
      d="M4350 1673c-77-28-60-143 22-143s93 122 13 143c-11 3-27 3-35 0zm-650-82c-72-54-104-84-103-97 3-32 218-884 223-884 3 0 54 197 114 438 60 240 111 442 113 448 5 13-210 174-230 173-6 0-59-35-117-78zm145-63c23-18 27-26 22-60-3-21-19-60-36-87-23-35-31-60-31-92 0-47 21-89 46-89 16 0 16-1 18 111 1 92 17 129 57 129 44 0 79-101 44-130-21-17-35-3-35 36 0 19-4 34-9 34-16 0-21-33-11-75 17-71 12-114-15-140-13-14-35-25-49-25-32 0-85 45-102 87-22 50-17 85 21 156 19 36 35 73 35 81 0 31-27 15-46-26-22-48-32-54-58-35-24 18-16 53 21 97 44 53 85 62 128 28zm-655-248c-91-55-166-103-168-108-3-11 141-104 228-148 41-20 113-50 160-65 88-31 248-64 257-55 3 3-16 91-42 196-34 138-52 193-64 197-9 3-52 21-96 40s-87 36-95 39c-8 2-89-41-180-96zm1045 83c-16-9-61-29-99-44s-72-33-76-40c-14-27-94-368-88-375 20-20 297 60 420 122 80 40 228 134 228 145 0 7-326 202-345 206-5 1-23-5-40-14z" />
  </g>
</svg>