<svg xmlns="http://www.w3.org/2000/svg" id="root" viewBox="92 65 2088 1856">
  <g fill="#0F0E0C">
    <path
      d="m1035 1908-15-63c-13-58-77-271-86-286-3-6-12-38-20-72-16-69-43-137-55-137-4 0-3 15 2 32 13 46 14 43-38 70-165 87-246 130-303 163-83 47-126 54-162 26-15-12-32-38-39-59-7-20-32-73-56-116-55-101-75-145-128-281l-43-110 57-13c31-8 92-22 137-31l81-18 41 141c23 78 42 152 42 166 0 22-31 120-54 173-5 11-4 17 3 17s19-17 27-37l29-68c13-28 14-27 8 33-4 39-2 62 4 62 14 0 23-49 23-119 0-48 3-58 23-70 34-20 101-70 174-128 36-29 69-53 72-53 4 0 18 26 31 58 24 60 40 86 47 78 3-2-12-55-32-116-20-62-33-115-30-119 4-3 41-14 83-23l103-24c26-6 26-5 33 63 16 152 80 397 121 460 13 21 38 56 54 79 17 22 40 61 51 87 20 45 53 225 43 240-8 13-223 8-228-5z"></path>
    <path
      d="M1285 1853a597 597 0 0 0-100-281c-69-95-84-125-120-251-25-87-65-298-65-346 0-2 21-8 48-14 26-6 83-23 127-39l80-29 3-43 3-42 57 6 89 12 31 6 4 85c2 69 6 86 21 95 17 9 17 11 2 22-14 10-16 34-13 186l3 435v260l-82 3-81 3-7-68zm-42-512c10-1 22-12 26-25 5-13 19-26 31-29 31-8 25-71-6-75-12-2-24-12-27-23-4-15-14-19-46-19-37 0-41 3-41 24 0 19-6 25-27 28-25 3-28 7-28 38s3 35 28 38c18 2 27 9 27 21 0 23 7 30 28 26 9-2 25-4 35-4z"></path>
    <path
      d="M1497 1913c-4-3-7-121-8-262s-4-330-8-421c-5-136-3-170 9-192 13-24 13-28-3-46-13-14-17-36-17-89 0-80-7-74 101-89l46-6 9 53 9 54 60 17c33 9 91 27 130 40l69 25-2 54c-13 268-48 421-118 511-55 71-74 122-80 218-3 41-7 90-10 108l-5 32h-88c-48 0-91-3-94-7z"></path>
    <path
      d="M1710 1858c0-118 17-188 61-248 86-120 106-192 130-460l13-141 36 6c19 4 54 15 77 25l42 18-25 89c-31 108-41 172-26 158 7-6 18-28 26-50l15-40v38c1 21 7 70 15 110s17 104 21 142c3 39 15 102 25 142 20 74 60 251 60 265 0 4-53 8-119 8-132 0-131 1-131-77 0-26 5-33 31-42 18-6 46-11 63-11s38-5 46-10c11-7 1-10-35-10l-50-1 52-22c56-23 72-44 26-32-16 3-52 17-80 30l-53 24v-22c0-36 29-179 44-222 19-55 30-125 19-125-5 0-15 21-21 48l-43 157c-20 71-33 145-38 210l-6 100-87 3-88 3v-63zM170 981c-14-52-13-72 10-114 14-26 20-56 20-102 0-60 2-65 24-71 23-5 173 20 185 31 15 16-26 29-83 27-58-2-65 0-71 19-9 26 0 35 20 19 9-8 27-10 49-6 48 9 81-1 96-30 8-14 22-24 36-24 33 0 54-10 54-26s43-29 65-20c24 9 18 20-22 41-20 11-51 32-69 46-19 15-46 32-61 38-46 20-72 62-74 119l-2 50-46 12-83 20c-37 7-38 6-48-29zm1215-187c-59-9-75-15-75-28 0-12 8-12 48 1 60 19 187 11 214-14 17-15 18-15 18 4 0 13-9 23-22 27-33 9-148 15-183 10z"></path>
    <path
      d="M1368 741c-34-8-103-94-116-146-29-112-23-215 13-215 10 0 15-10 15-32 1-49 17-110 32-120 12-9 106-4 177 9 29 5 33 3 28-11-8-20-6-20 37 0 38 19 46 36 46 103 0 32 6 51 21 67 19 20 21 34 21 124 0 74-4 105-14 113-8 7-27 30-43 52-15 22-35 46-43 53-16 12-125 15-174 3zm142-239c0-83 9-102 47-102 13 0 23-4 23-10 0-5-13-10-29-10-43 0-61 31-61 106 0 58-2 62-25 66-13 3-26 0-28-5-5-15-27 1-27 19 0 10 13 14 50 14h50v-78zM365 674c-11-18-76-24-113-11-21 8-23 6-20-20 3-27 5-28 67-31 60-3 66-1 87 25 13 15 23 34 24 41 0 17-33 15-45-4zm-75-101c0-3 7-23 17-44 18-42 29-46 151-56 73-6 74-6 70 18-3 20-11 24-72 34-53 9-73 17-84 33-10 15-25 22-48 22-19 0-34-3-34-7zm906-39c-17-17-21-94-6-129 6-17 8-15 13 15 8 48 15 130 11 130-1 0-10-7-18-16zm478-74c1-39 5-70 11-70 12 0 19 63 10 107-10 56-21 36-21-37zM486 425c-3-10-5-19-4-20 8-8 118-16 118-9-1 23-21 37-62 41-37 4-46 2-52-12z"></path>
    <path
      d="M1208 355c-15-19-16-38-11-124l6-101h36c26 0 44-8 68-32l33-32 122 16c103 13 130 14 173 3 57-15 65-13 41 13-25 29-11 47 50 66 31 10 53 21 49 24-3 4-27 14-53 23-54 18-64 40-32 74l21 22-20 6c-13 3-21 13-21 25 0 25-12 34-34 26-11-4-16-19-16-49 0-63-14-92-57-113-82-42-145-46-113-7 15 19 7 19-54 0-40-12-53-13-74-2-39 19-62 57-69 115-7 64-22 79-45 47zm-843 5c-3-5-4-10-1-10 2 0-2-22-9-50l-13-50 40-11c22-5 42-9 44-6 2 2 7 31 10 64 6 57 5 60-17 66-34 9-47 9-54-3zm16-158c-1-9-8-11-21-7-24 8-27-10-4-19 13-5 16-16 11-59l-5-52 12 50c9 38 17 49 29 47 9-2 17 2 17 8 0 5-6 10-14 10s-17 8-19 18c-3 9-5 11-6 4z"></path>
  </g>
  <path fill="#2A4E88"
    d="M414 606c-15-12-17-18-8-33 17-27 50-28 68-1 15 21 15 24-1 35-22 17-35 16-59-1zm-34-163-9-50c-9-48 0-63 40-63 25 0 29 5 37 43 11 52 5 69-22 65-11-1-27 1-33 5-7 5-13 5-13 0z"></path>
</svg>