<svg xmlns="http://www.w3.org/2000/svg" id="root" viewBox="519 493 2770 2767">
  <path
    d="M907 3245c-47-24-374-282-381-300-13-36-6-102 15-128l20-27 55 61c29 34 54 65 54 69 0 17 52 70 69 70 36 0 126 56 143 89 9 19 29 46 43 61s32 48 40 74c14 45 14 46-8 46-12 0-35-7-50-15z"
  />
  <path
    d="M1038 3249c-10-5-22-28-28-50s-26-57-43-77c-18-20-40-53-49-73-13-28-30-43-72-63-30-14-58-31-61-36-3-6-17-10-30-10-17 0-30-12-51-47-15-27-43-63-61-82-25-24-31-37-24-44 11-11 207-16 286-8 22 3 47 2 55-2 12-6 26 15 63 88 26 52 47 104 47 115 0 10 5 22 10 25 6 4 7 11 4 17-4 6-2 8 3 5 6-4 27 24 47 63 21 38 46 75 57 80 26 14 25 20-17 68-31 37-41 42-77 42-23 0-50-5-59-11zm1598-29c-41-45-43-55-18-69 9-5 35-42 56-83 22-40 45-77 53-81 7-4 13-18 13-30-1-12 21-64 47-114 36-70 52-91 63-86 8 4 33 5 55 3 66-7 259-5 279 3 16 7 14 12-21 50-21 23-50 61-63 85-16 29-30 42-45 42-11 0-26 5-32 11s-35 23-64 38c-39 19-58 36-73 67-12 22-33 55-48 73-15 17-32 50-38 71-12 46-33 60-88 60-34 0-45-6-76-40z"
  />
  <path
    d="M2830 3249c0-5 4-8 9-5 5 4 7-2 4-13-5-21 17-71 42-91 9-8 25-32 36-54 15-33 30-46 77-67 31-15 67-30 79-34 21-6 83-82 83-102 0-4 20-27 44-51l45-42 20 29c26 36 27 96 3 133-17 26-324 269-372 295-30 16-70 17-70 2zM634 2639c12-152 64-293 150-412 54-76 162-163 252-203 82-37 83-38 99-88 9-28 28-63 42-78l26-27 36 62c20 34 73 99 117 144l81 82-31 29c-21 20-45 31-73 35-37 4-54 16-129 90-53 53-96 87-111 89-19 2-28 12-38 40-7 20-27 60-45 88-28 44-33 61-38 135-4 69-8 85-21 86l-170 3-153 1 6-76zm2218 71c-16-4-19-16-21-85-2-71-6-86-39-145-20-35-39-76-42-89-4-19-14-27-39-32-26-5-54-27-105-82-77-81-101-97-142-97-16 0-41-13-63-32l-36-33 48-38c56-45 129-134 163-201l25-48 23 21c21 20 36 50 67 129 5 12 14 22 21 22 30 0 139 61 205 116a755 755 0 0 1 258 529l7 70h-155c-86 0-165-2-175-5zm-1369-621a725 725 0 0 1-227-253c-23-46-36-86-34-103 4-35 44-59 82-49 26 6 27 8 12 25-24 26-20 50 22 120 38 66 131 160 183 187 27 14 33 14 54 0s23-14 29 7c9 35 7 46-14 67-26 26-54 25-107-1zm733-1a70 70 0 0 1-10-72c5-14 8-14 30 1 22 14 26 14 52-2 95-63 185-166 213-247 11-33 11-40-5-57-18-20-18-20 9-27 36-9 73 10 81 41 11 44-63 179-146 268-101 108-189 145-224 95z"
  />
  <path
    d="M1493 1941c-53-41-95-91-132-155l-22-39 48-49c26-27 87-86 135-130l87-80 108 76c59 41 119 84 131 94l24 18-158 152c-86 84-161 152-165 152s-29-17-56-39z"
  />
  <path
    d="M2073 1807c-200-192-296-264-666-500-499-319-644-465-708-715-22-85-23-106-9-97 6 4 7 11 4 17-4 6-3 8 3 5 5-3 34 15 64 42a3072 3072 0 0 0 663 453l220 115c111 57 237 129 282 158 119 80 314 238 436 354l108 103-16 31a564 564 0 0 1-194 207c-4 0-88-78-187-173zm46-435c-41-32-97-74-126-93l-51-35 196-104c388-204 458-244 562-313 114-76 189-133 319-244 46-40 88-70 94-66 6 3 7 1 3-5-3-6-2-13 4-17 16-10 12 15-16 111a758 758 0 0 1-164 296c-62 69-239 211-355 286a7353 7353 0 0 1-385 242c-4 0-41-26-81-58z"
  />
</svg>
