<svg id="root" xmlns="http://www.w3.org/2000/svg" width="768" height="441" viewBox="0 0 7680 4410">
  <g>
    <path
      d="M2416 4401c-3-5-1-132 4-282 6-151 8-292 4-314-5-34 1-52 40-126 25-47 68-151 95-231 27-79 60-164 72-188 17-33 24-67 28-145 6-94 9-106 42-161 20-32 55-115 78-184 22-69 62-163 89-210 40-73 54-89 96-112 27-14 75-29 105-32 139-16 128-9 153-89 22-69 24-72 59-78 23-3 50-19 74-42 45-44 110-77 152-77 35 0 43-13 43-70 0-35-3-38-33-44-53-10-77-32-77-71 0-19 5-37 10-40 20-12 9-40-25-65-19-14-35-29-35-35 0-5-14-23-31-41-27-28-29-35-19-54 7-12 9-36 6-52-7-33 11-74 55-128 36-43 41-105 9-115-36-12-26-63 22-112 23-24 50-43 59-43 18 0 59-49 59-69 0-16 35-31 73-31 22 0 41-7 53-21 17-19 27-21 109-17 68 3 107 11 158 32 52 21 71 25 82 16 16-13 17-11 39 56 9 28 28 62 41 74 27 25 31 50 15 81-8 15-7 21 4 25s12 13 5 37c-13 46-11 90 7 166 16 66 16 67-10 120-14 29-37 108-52 175-49 227-70 251-214 250-97-1-169-26-216-75-15-16-32-29-38-29-21 0 60 71 108 95 42 21 64 25 137 25 48 0 99-4 113-10 18-7 26-6 26 1 0 11 9 10 93-8 44-9 82 13 103 60 17 38 57 84 129 145 16 14 49 27 85 33 78 12 129 35 140 62 6 12 17 32 26 44 16 22 15 22-35 21-67-2-93 20-90 77 2 32-3 46-24 69-32 34-34 64-7 99 24 30 25 37 5 37-8 0-19 9-25 21-26 47 16 106 118 170 80 49 112 77 112 97 0 8 9 27 20 42l21 29-47 3c-54 3-77 26-55 52 11 12 33 16 103 16 49 0 97 4 107 10 12 6 21 26 25 61 14 107 53 201 118 290 81 108 123 132 218 126 54-4 97-16 153-45 4-2 7 56 7 130v133l-80 72c-72 64-86 81-131 174-44 90-50 110-50 166v63H3725c-747 0-1306-4-1309-9zm1612-507c2-90 0-113-13-124-12-10-18-10-30 0s-15 37-15 120c0 58 3 110 7 114s16 6 28 4c19-3 20-11 23-114zm-804 32c28-13 79-44 113-69s110-66 168-91c59-25 122-56 141-71l34-26 94 25 94 26 129-48c184-69 192-74 224-157 30-77 41-111 59-168 32-103-51-184-121-121-15 13-17 9-22-47-7-74-19-92-37-50-7 17-19 31-26 31-8 0-22 9-31 20-10 11-25 20-34 20-10 0-32 23-51 53l-33 52-6-105c-7-121-13-146-40-160-10-6-19-20-19-30 0-46-49-10-92 67-20 35-39 49-106 83-86 43-121 73-173 145-25 35-35 42-49 35-18-10-98 8-166 36-26 11-92 19-208 25-94 4-189 13-211 18-144 35-134 257 18 418 113 120 221 147 351 89zm465-116c38-65 47-88 40-102-21-39-46-20-98 71-54 93-59 109-39 129 19 19 44-5 97-98zm173 45c22-78 22-92 0-104-29-15-43 1-63 74-20 75-14 99 25 93 16-2 25-16 38-63zm332 59c20-8 20-41 0-111-17-59-37-75-61-50-15 14-14 21 2 79 15 55 30 88 40 88 2 0 10-3 19-6zm220-26c7-12-3-37-41-104-57-100-74-117-99-92-16 16-13 23 36 110 64 114 79 125 104 86zm110-181c9-15 2-26-46-72-58-57-88-64-88-22 0 25 89 119 109 115 8-2 19-11 25-21zm164-96c29-18 5-47-78-98-93-57-125-63-125-23 0 20 15 34 85 77 91 55 98 57 118 44zm16-224c15-25-8-41-85-57-54-12-62-11-77 3-15 15-15 18-1 33 18 17 103 44 133 41 10-1 24-10 30-20zm-1279-177c0-25 0-25-111-28-90-2-113 0-124 13-7 8-10 22-6 30 5 13 25 15 123 13l118-3v-25zm549-25c3-8 16-15 30-15 16 0 27-7 31-20 3-11 13-20 22-20 11 0 14-6 9-24-6-26 8-69 33-99 17-21 17-20-39-39-54-18-102-8-125 24-16 24-20 69-7 82 4 4 7 18 8 29 3 87 5 97 18 97 8 0 16-7 20-15zm-535-109c26-32-10-56-109-72-27-4-40-2-50 11-19 23 3 42 66 60 64 17 79 18 93 1zm59-143c15-29 5-40-90-94-70-40-95-50-107-42-35 22-18 47 74 100 50 29 95 53 102 53s16-8 21-17zm92-117c0-2 3-11 6-20 7-18-81-116-105-116-18 0-41 18-41 32 0 5 21 31 46 58 31 33 55 50 70 50 13 0 24-2 24-4zm123-108c7-11-1-35-32-91-55-99-74-122-95-114-32 12-27 36 24 124 64 108 79 120 103 81zm641-84c54-97 59-117 28-129-21-8-44 20-97 119-34 63-37 76-26 90 7 9 19 16 27 16 7 0 37-43 68-96zm-504 31c11-13 11-27 0-73-7-31-16-65-21-74-12-22-48-23-56-2s14 115 33 142c18 26 27 27 44 7zm330-66c24-80 21-99-15-99-14 0-25 1-25 3 0 1-9 33-20 71-21 74-16 96 21 96 14 0 23-16 39-71zm-172 39c19-19 16-202-4-222-19-19-26-20-42-4-13 13-18 219-5 231 10 11 38 8 51-5z" />
    <path
      d="M3039 3897c-92-34-158-99-204-199-34-74-42-143-22-189 13-33 20-37 73-47 33-7 118-14 189-18 135-6 303-26 367-44 29-8 51-28 95-81 49-61 68-76 147-116 121-61 161-74 175-60 32 32-3 99-72 133-80 40-79 39-57 96 26 70 52 94 107 102 55 7 144-17 186-51 15-12 45-28 67-34 29-9 40-18 45-38 10-42 53-101 74-101 24 0 30 17 19 55-4 16-8 46-8 65 0 20-6 44-14 55-7 11-21 44-30 73-15 44-24 56-59 74-58 29-228 91-252 91-20 0-183-43-220-58-18-8-19-7-6 8 12 15 12 20-5 33-29 23-81 48-177 88-48 20-111 55-140 78-100 79-206 112-278 85zm2011-234c-24-9-49-34-98-98-60-79-76-119-104-252-22-110-23-113-53-119-38-8-122-88-130-124-7-33-31-56-110-105-99-62-155-125-110-125 8 0 63 25 122 56l106 55 21-20 21-21-32-31c-17-17-77-54-134-83-81-40-105-56-107-74-2-12 3-24 10-27 8-3 74 15 147 40 74 25 138 44 143 43 32-11-150-129-231-151-27-7-37-33-20-53 18-21 67-13 182 32 55 21 94 31 100 25 16-16-22-57-82-90-67-36-86-54-77-77 12-32 123 2 203 62 18 14 52 62 78 108l45 83v122c0 81 5 132 14 154 15 35 92 117 204 215 96 84 129 151 138 277 6 88 6 91-20 122-41 49-163 79-226 56z" />
  </g>
</svg>