<svg xmlns="http://www.w3.org/2000/svg" id="root" viewBox="0 0 100 109">
  <path
    d="M 45.476562 108.734375 C 44.464844 108.125 44.574219 101.929688 45.621094 99.195312 C 46.3125 97.359375 46.347656 96.925781 45.984375 95.089844 C 45.621094 93.289062 45.660156 92.714844 46.3125 90.375 C 47.578125 85.730469 47.722656 84.398438 47.398438 80.367188 L 47.035156 76.511719 L 48.15625 74.785156 C 49.820312 72.230469 49.386719 70.574219 45.695312 64.597656 C 44.828125 63.191406 43.667969 61.03125 43.160156 59.808594 C 42.65625 58.546875 41.53125 56.207031 40.664062 54.625 C 39.6875 52.714844 38.890625 50.628906 38.492188 48.71875 C 38.128906 47.097656 37.550781 45.300781 37.226562 44.722656 C 36.863281 44.148438 35.015625 42.382812 33.097656 40.761719 C 31.179688 39.179688 29.042969 37.164062 28.320312 36.335938 C 26.90625 34.640625 26.617188 34.570312 25.421875 35.6875 C 25.027344 36.046875 23.832031 36.515625 22.746094 36.730469 C 19.414062 37.34375 18.4375 38.242188 15.035156 43.605469 C 13.1875 46.558594 10.726562 47.496094 8.15625 46.234375 C 6.707031 45.515625 4.03125 42.996094 3.34375 41.699219 C 2.257812 39.644531 3.234375 35.757812 5.441406 33.382812 C 6.671875 32.050781 8.15625 26.613281 8.410156 22.328125 C 8.628906 18.835938 9.859375 14.550781 10.980469 13.292969 C 11.488281 12.753906 11.269531 12.5 8.554688 10.160156 C 4.828125 6.992188 -0.277344 1.914062 0.0117188 1.628906 C 0.445312 1.195312 6.238281 3.425781 10.328125 5.625 C 12.683594 6.882812 14.707031 7.929688 14.816406 7.929688 C 14.960938 7.929688 14.855469 7.0625 14.5625 6.054688 C 13.839844 3.210938 13.515625 0.0078125 13.984375 0.0078125 C 14.671875 0.0078125 19.015625 4.292969 20.933594 6.847656 C 22.925781 9.511719 23.324219 9.726562 26.546875 9.726562 C 27.742188 9.726562 30.855469 9.980469 33.425781 10.269531 C 42.257812 11.3125 46.128906 12.679688 47.902344 15.488281 C 48.664062 16.675781 49.132812 17 50.871094 17.46875 C 54.925781 18.585938 56.628906 19.195312 58.691406 20.242188 C 60.066406 20.925781 61.078125 21.214844 61.550781 21.03125 C 62.960938 20.601562 65.027344 20.851562 66.582031 21.644531 C 67.992188 22.328125 68.429688 22.402344 71.214844 22.148438 C 72.953125 22.003906 75.054688 21.824219 75.957031 21.789062 C 76.863281 21.753906 78.457031 21.429688 79.542969 21.105469 C 82.65625 20.203125 86.167969 20.347656 90.257812 21.609375 C 92.210938 22.183594 94.058594 22.6875 94.382812 22.6875 C 94.960938 22.6875 97.53125 26.828125 99.199219 30.429688 C 99.921875 32.015625 100.03125 32.769531 99.996094 36.910156 C 99.957031 41.160156 99.886719 41.878906 98.835938 44.902344 C 97.714844 48.214844 97.714844 48.25 97.929688 53.617188 C 98.148438 58.726562 98.113281 59.050781 97.496094 59.050781 C 97.132812 59.050781 96.554688 58.800781 96.191406 58.476562 C 95.832031 58.152344 95.289062 57.972656 95 58.078125 C 94.238281 58.367188 93.949219 61.390625 94.417969 64.199219 C 94.78125 66.503906 94.746094 66.792969 93.914062 68.628906 C 92.972656 70.644531 91.523438 76.621094 91.523438 78.421875 C 91.523438 80.042969 90.472656 83.535156 89.675781 84.6875 C 88.988281 85.621094 88.953125 86.019531 89.171875 88.898438 C 89.53125 93.542969 89.027344 94.335938 85.625 94.335938 C 83.089844 94.335938 81.097656 93.507812 80.808594 92.320312 C 80.410156 90.84375 81.714844 87.816406 83.414062 86.125 C 84.285156 85.296875 85.007812 84.433594 85.007812 84.253906 C 85.007812 84.109375 85.117188 83.714844 85.226562 83.425781 C 85.332031 83.066406 84.933594 82.742188 83.957031 82.308594 C 82.691406 81.84375 82.472656 81.589844 82.472656 80.652344 C 82.472656 78.816406 83.597656 76.226562 85.042969 74.640625 C 86.492188 73.058594 86.710938 72.589844 86.09375 72.191406 C 85.875 72.050781 85.730469 69.960938 85.730469 67.117188 C 85.730469 62.507812 85.660156 62.113281 84.609375 59.375 C 83.957031 57.828125 83.34375 56.53125 83.234375 56.53125 C 83.125 56.53125 81.640625 57.433594 79.941406 58.511719 C 75.847656 61.140625 72.230469 62.292969 67.269531 62.542969 L 63.433594 62.722656 L 62.671875 64.09375 C 62.238281 64.8125 60.320312 67.476562 58.402344 70.03125 C 54.382812 75.359375 54.457031 74.820312 56.410156 80.941406 C 57.640625 84.757812 57.75 86.125 56.882812 88.828125 C 56.375 90.484375 56.339844 90.949219 56.734375 91.921875 C 56.988281 92.570312 57.351562 93.792969 57.496094 94.660156 C 57.714844 96.027344 57.640625 96.386719 56.988281 97.035156 C 56.554688 97.46875 55.289062 98.042969 54.203125 98.257812 C 51.015625 98.980469 51.054688 98.90625 52.71875 100.417969 C 54.746094 102.292969 54.78125 103.480469 52.789062 105.964844 C 51.957031 106.972656 50.980469 108.015625 50.582031 108.304688 C 49.640625 108.953125 46.273438 109.238281 45.476562 108.734375 Z M 52.574219 87.890625 C 52.828125 86.234375 52.464844 83.175781 52.03125 83.175781 C 51.847656 83.175781 51.703125 84.542969 51.703125 86.234375 C 51.703125 89.402344 52.175781 90.300781 52.574219 87.890625 Z M 54.417969 62.542969 C 55.613281 60.457031 55.578125 60.132812 54.058594 60.132812 L 52.789062 60.132812 L 52.789062 62.113281 C 52.789062 63.191406 52.933594 64.09375 53.152344 64.09375 C 53.332031 64.09375 53.914062 63.371094 54.417969 62.542969 Z M 54.417969 62.542969 "
  />
</svg>
