<svg id="root" xmlns="http://www.w3.org/2000/svg"
  style="transform:matrix(1,0,0,1,0,0);transform-origin:50% 50%;cursor:move;transition:transform 200ms ease-in-out 0s"
  width="768" height="441" viewBox="0 0 7680 4410">
  <g>
    <path
      d="M3730 4103c-111-14-292-81-379-141-30-20-68-47-85-58-30-21-102-96-159-168-42-53-113-201-139-291-19-67-22-102-21-215 2-266 65-430 234-607 134-141 231-200 436-267 28-9 57-24 64-33 17-19 16-167 0-187-18-22-60-26-323-27-295-1-300 0-309 77-4 28-11 66-17 85s-14 59-18 89c-15 118-160 460-223 523-15 15-37 18-162 18-79 1-166 1-192 0l-48-1 64-77c204-248 300-519 313-878 5-143 2-171-36-310-12-44-27-104-33-133-6-28-15-52-19-52s-8-6-8-14-13-38-28-68c-16-30-32-65-35-79-3-13-21-42-39-64s-42-56-52-75c-11-19-28-44-38-54-10-11-18-23-18-26 0-9 296-24 309-16 5 3 21 29 36 58s36 64 46 77c11 13 19 28 19 34s18 40 39 76c44 75 113 286 131 400 6 40 15 82 20 92 14 26 60 29 351 26 287-2 289-3 289-69 0-39-34-88-60-88-25 0-148-66-192-103-60-50-152-165-174-214-45-108-56-169-57-312-1-99 7-127 74-266 30-63 115-160 171-196 27-18 55-37 61-43 18-16 55-33 127-57 58-19 83-21 220-17 121 3 160 7 180 20 14 8 43 21 65 28 63 20 155 87 218 160 70 80 90 112 125 199 24 60 26 78 26 191-2 220-37 311-176 455-77 80-97 95-175 129-48 22-96 47-106 56-24 22-32 80-14 104 13 17 31 18 301 17 174-1 295-5 307-11 10-6 21-21 23-33s12-64 21-116c30-169 82-308 194-519 50-93 49-93 251-90l172 3-32 35c-42 47-86 116-147 230-51 96-113 260-113 300 0 12-4 30-10 40-14 27-40 210-40 287 0 205 46 429 120 579 22 44 40 84 40 88 0 15 132 209 171 251 30 32 37 46 27 50-7 3-96 4-198 3l-184-3-27-45c-58-93-100-177-135-264-19-50-39-100-44-112-11-29-46-174-64-269-10-50-22-85-33-92-23-18-567-11-588 7-11 9-15 35-15 101 0 102 1 104 105 133 142 40 305 144 421 269 74 80 154 205 172 271 7 28 18 65 22 81 40 139 43 168 32 295-11 136-47 261-99 348-15 26-34 59-43 74-29 53-135 170-195 215-33 25-114 72-180 104-173 83-321 106-515 82zm317-341c148-52 267-157 338-297 67-130 72-318 15-461-61-152-186-280-317-323-73-24-72-25-75 263l-3 251h-310v-250c-1-138-4-256-9-263-30-49-200 43-295 160-90 111-132 232-133 388 0 97 2 112 34 190 96 241 291 368 570 369 92 1 117-3 185-27zm-52-2383c80-39 134-96 179-186l36-72-15-86c-24-141-53-192-147-261-99-73-298-80-400-15-24 15-55 35-70 44-16 10-28 24-28 32 0 18-30 85-48 107-24 29-27 147-7 209 55 165 181 256 359 258 69 1 86-3 141-30z" />
    <path
      d="M5245 2273c-49-2-93-7-98-12-4-4-5-141-1-304l7-297h278l-3 304-3 304-29 6c-16 3-36 5-45 4s-56-4-106-5zm-2989-11c-2-4-2-141 1-305l6-297 51-2c65-2 220 3 225 8 2 2 5 139 6 304l2 300h-143c-78 0-145-3-148-8z" />
  </g>
</svg>