<svg id="root" xmlns="http://www.w3.org/2000/svg"
  style="transform:matrix(1,0,0,1,0,0);transform-origin:50% 50%;cursor:move;transition:transform 200ms ease-in-out 0s"
  width="768" height="441" viewBox="0 0 7680 4410">
  <path
    d="m3293 2890-22-9-9-18c-5-10-13-37-17-61l-7-44-30-34-31-35-46-21-46-21-62-1-61-1-27 25-27 25-18 40c-10 22-25 58-34 80-9 21-24 47-33 57l-16 18h-444l-13-25-13-24 7-87c3-47 11-105 17-129l11-42 83-81 82-82 13-32c11-31 46-109 73-168 7-14 33-56 58-95l47-70 5-25c3-14 28-101 57-195l52-170 23-36 24-37 30-13c17-8 31-17 31-21 0-5 5-8 11-8 10 0 52-17 107-43l23-11 49 1 48 1 17 13c39 33 79 77 108 119 16 25 46 64 65 88l34 43 54 39c29 22 56 40 59 40s11 5 18 10c7 6 25 20 40 31l29 22 22 51c33 73 76 180 76 188 0 4 11 31 24 60s31 75 41 101l18 48 28 15c15 7 37 14 48 14s33 6 48 12l28 13 30 32c50 53 89 105 116 158l27 50 31 100c17 54 31 109 31 121v22l-16 6-16 6-416-1h-417l-22-9zm2577-50v-20h30v-27l20-18c11-10 20-24 20-30v-13l15-6 15-5v-29l15-6 15-5v-29l15-6 15-5v-31h21l6-17c4-10 19-29 34-44 15-14 30-35 33-47l7-20 14-6 15-5v-26l29-25 30-24-5-8-5-8h72l5 15 6 15h138l47-45c78-72 130-115 139-115 5 0 20 12 33 26s37 32 53 40l28 15v19h30v20l25 10 25 10v20h31l5 15 6 15h27l11 20 11 20h29v20l25 6 25 6v28h28l6 15 5 15h42l5-15 6-15h37l13-14c8-7 25-17 38-21s30-14 38-22l14-14 22 16c11 8 31 20 44 25l22 10v20h38l12 15c7 8 19 15 26 15h14v30h10c12 0 73 41 78 53 2 4 10 7 18 7h15l5 15 6 15h28v170H5870v-20z" />
</svg>