<svg xmlns="http://www.w3.org/2000/svg" id="root" viewBox="0 0 101 21">
  <path
    d="M 10.195312 20.480469 C 10.195312 20.054688 10.367188 19.980469 11.191406 19.980469 C 12.214844 19.980469 12.613281 20.503906 11.789062 20.828125 C 10.941406 21.152344 10.195312 21.003906 10.195312 20.480469 Z M 7.523438 20.453125 C 6.976562 20.277344 6.75 20.105469 6.851562 19.855469 C 7.027344 19.40625 7.148438 19.40625 8.148438 19.753906 C 8.648438 19.929688 8.871094 20.128906 8.773438 20.378906 C 8.621094 20.777344 8.621094 20.777344 7.523438 20.453125 Z M 13.335938 20.054688 C 13.164062 19.605469 13.085938 19.65625 14.136719 19.230469 C 14.859375 18.957031 15.007812 18.957031 15.207031 19.253906 C 15.457031 19.679688 15.308594 19.828125 14.261719 20.179688 C 13.613281 20.402344 13.4375 20.378906 13.335938 20.054688 Z M 4.507812 19.03125 C 4.132812 18.730469 3.980469 18.429688 4.082031 18.179688 C 4.230469 17.804688 4.332031 17.804688 5.078125 18.304688 C 5.527344 18.582031 5.851562 18.980469 5.777344 19.15625 C 5.605469 19.605469 5.179688 19.554688 4.507812 19.03125 Z M 9.296875 19.03125 C 8.898438 18.78125 8.671875 16.433594 8.597656 12.0625 C 8.546875 9.714844 8.398438 7.992188 8.199219 7.519531 C 8.023438 7.09375 7.847656 6.742188 7.800781 6.742188 C 7.574219 6.742188 4.78125 9.890625 4.53125 10.441406 C 4.355469 10.8125 4.230469 11.015625 4.207031 10.863281 C 4.207031 10.738281 4.082031 10.789062 3.957031 10.988281 C 3.734375 11.3125 3.707031 11.3125 3.707031 10.988281 C 3.707031 10.289062 7.550781 5.070312 8.222656 4.871094 C 9.121094 4.570312 9.421875 4.046875 9.269531 3.074219 C 9.097656 2 9.695312 1.347656 10.46875 1.773438 C 10.84375 1.949219 10.941406 2.296875 10.941406 3.246094 C 10.941406 4.347656 11.015625 4.496094 11.539062 4.644531 C 11.914062 4.722656 12.265625 5.09375 12.464844 5.570312 C 12.636719 6.019531 13.113281 6.820312 13.488281 7.367188 C 13.886719 7.917969 14.386719 8.617188 14.609375 8.941406 C 14.808594 9.242188 14.910156 9.589844 14.808594 9.691406 C 14.710938 9.789062 14.507812 9.664062 14.335938 9.390625 C 14.183594 9.140625 13.585938 8.441406 13.011719 7.84375 C 12.265625 7.066406 11.914062 6.84375 11.765625 7.066406 C 11.664062 7.21875 11.589844 9.066406 11.640625 11.113281 C 11.691406 13.1875 11.617188 15.335938 11.492188 15.882812 C 11.316406 16.632812 11.339844 17.082031 11.589844 17.507812 C 12.015625 18.28125 12.015625 18.480469 11.617188 18.480469 C 11.167969 18.480469 10.742188 17.058594 10.816406 15.734375 C 10.84375 15.109375 10.691406 13.886719 10.46875 12.988281 L 10.09375 11.363281 L 9.746094 13.609375 C 9.570312 14.859375 9.46875 16.609375 9.546875 17.558594 C 9.621094 18.480469 9.644531 19.230469 9.621094 19.230469 C 9.59375 19.230469 9.445312 19.128906 9.296875 19.03125 Z M 16.332031 18.554688 C 16.207031 18.28125 16.378906 17.929688 16.828125 17.53125 C 17.402344 16.980469 17.527344 16.957031 17.828125 17.28125 C 18.152344 17.605469 18.101562 17.730469 17.351562 18.304688 C 16.582031 18.878906 16.457031 18.929688 16.332031 18.554688 Z M 86.304688 18.304688 C 86.679688 18.257812 87.179688 17.980469 87.429688 17.707031 C 87.703125 17.40625 88.175781 17.230469 88.824219 17.230469 C 89.425781 17.230469 90.074219 17.03125 90.523438 16.707031 C 91.519531 15.957031 92.890625 16.160156 94.238281 17.257812 C 94.8125 17.707031 95.261719 18.15625 95.261719 18.28125 C 95.261719 18.378906 93.09375 18.457031 90.472656 18.457031 C 87.828125 18.429688 85.957031 18.355469 86.304688 18.304688 Z M 2.234375 16.832031 C 1.9375 16.457031 1.738281 16.035156 1.785156 15.882812 C 1.960938 15.382812 2.386719 15.484375 2.910156 16.207031 C 3.359375 16.808594 3.382812 16.980469 3.109375 17.207031 C 2.835938 17.433594 2.636719 17.355469 2.234375 16.832031 Z M 50.933594 16.609375 C 50.757812 16.40625 50.609375 15.707031 50.609375 15.035156 C 50.609375 14.035156 50.507812 13.761719 50.082031 13.585938 C 49.734375 13.410156 49.535156 13.085938 49.484375 12.5625 C 49.433594 11.886719 49.511719 11.761719 50.082031 11.664062 C 50.933594 11.488281 51.179688 11.664062 51.03125 12.386719 C 50.957031 12.886719 50.980469 12.9375 51.257812 12.710938 C 51.707031 12.335938 51.707031 12.011719 51.230469 11.488281 C 50.832031 11.039062 51.15625 11.015625 46.542969 12.039062 C 45.742188 12.210938 45.121094 12.488281 45.167969 12.613281 C 45.21875 12.761719 45.34375 12.8125 45.492188 12.761719 C 46.640625 12.335938 48.738281 12.011719 48.9375 12.210938 C 49.433594 12.710938 48.859375 13.160156 47.390625 13.484375 C 46.566406 13.660156 45.792969 13.785156 45.691406 13.785156 C 45.566406 13.785156 45.394531 13.9375 45.292969 14.136719 C 45.042969 14.585938 44.347656 14.585938 44.519531 14.136719 C 44.59375 13.9375 44.519531 13.535156 44.371094 13.238281 C 44.097656 12.738281 43.921875 12.6875 42.898438 12.8125 C 42.273438 12.886719 40.554688 13.238281 39.105469 13.585938 C 35.265625 14.511719 35.140625 14.484375 35.140625 12.585938 C 35.140625 12.113281 35.039062 11.738281 34.914062 11.738281 C 34.792969 11.738281 34.742188 11.988281 34.816406 12.3125 C 34.914062 12.785156 34.890625 12.8125 34.640625 12.4375 C 34.492188 12.1875 34.191406 11.988281 34.019531 11.988281 C 33.445312 11.988281 33.570312 11.3125 34.167969 11.164062 C 34.46875 11.089844 34.890625 11.140625 35.140625 11.3125 C 35.488281 11.511719 36.363281 11.464844 38.859375 11.015625 C 40.652344 10.714844 42.226562 10.539062 42.375 10.613281 C 42.5 10.6875 42.625 10.640625 42.625 10.488281 C 42.625 10.316406 42.800781 10.265625 43.023438 10.339844 C 43.472656 10.515625 46.441406 10.089844 47.238281 9.742188 C 47.515625 9.617188 48.460938 9.464844 49.359375 9.390625 C 50.257812 9.339844 51.207031 9.191406 51.457031 9.089844 C 51.878906 8.917969 51.90625 9.015625 51.730469 10.140625 C 51.554688 11.339844 51.554688 11.339844 52.03125 10.914062 C 52.804688 10.238281 53.003906 10.414062 52.976562 11.8125 C 52.976562 13.011719 53.027344 13.113281 53.601562 13.1875 C 54.125 13.261719 54.148438 13.238281 53.875 12.886719 C 53.699219 12.6875 53.625 12.414062 53.699219 12.261719 C 53.777344 12.136719 53.777344 11.988281 53.675781 11.914062 C 53.550781 11.863281 53.625 11.863281 53.800781 11.914062 C 54.425781 12.0625 56.144531 11.6875 55.796875 11.464844 C 55.621094 11.339844 55.046875 11.3125 54.550781 11.414062 C 53.675781 11.539062 53.601562 11.511719 53.601562 10.9375 C 53.601562 10.414062 53.726562 10.339844 54.773438 10.289062 C 55.421875 10.265625 55.996094 10.140625 56.070312 10.015625 C 56.144531 9.914062 56.621094 9.714844 57.09375 9.640625 C 57.566406 9.539062 58.191406 9.390625 58.464844 9.339844 C 58.738281 9.265625 58.863281 9.289062 58.714844 9.414062 C 58.589844 9.515625 58.464844 10.289062 58.464844 11.089844 C 58.464844 12.585938 58.464844 12.585938 57.617188 12.8125 C 57.144531 12.9375 56.871094 13.113281 57.019531 13.1875 C 57.441406 13.484375 57.566406 14.683594 57.167969 14.835938 C 56.644531 15.035156 56.644531 15.035156 56.519531 14.433594 L 56.421875 13.859375 L 56.371094 14.433594 C 56.34375 15.210938 55.847656 14.882812 55.847656 14.0625 C 55.847656 13.386719 55.648438 13.363281 53.851562 13.859375 C 52.503906 14.210938 52.480469 14.183594 52.328125 12.613281 L 52.152344 11.113281 L 52.203125 12.6875 C 52.230469 13.910156 52.152344 14.234375 51.855469 14.234375 C 51.554688 14.234375 51.554688 14.285156 51.828125 14.460938 C 52.003906 14.585938 52.628906 14.535156 53.300781 14.335938 C 53.925781 14.136719 54.5 13.984375 54.574219 13.984375 C 54.648438 13.984375 54.699219 14.484375 54.648438 15.085938 C 54.550781 16.109375 54.472656 16.234375 53.578125 16.582031 C 52.378906 17.082031 51.332031 17.082031 50.933594 16.609375 Z M 50.558594 12.785156 C 50.707031 12.335938 50.183594 12.4375 50.007812 12.886719 C 49.910156 13.136719 49.984375 13.238281 50.160156 13.1875 C 50.308594 13.136719 50.507812 12.9375 50.558594 12.785156 Z M 56.894531 11.1875 C 56.945312 10.316406 57.070312 10.113281 57.59375 9.964844 C 57.96875 9.863281 58.042969 9.789062 57.792969 9.765625 C 57.070312 9.714844 56.070312 10.289062 56.21875 10.6875 C 56.296875 10.863281 56.34375 11.3125 56.34375 11.636719 C 56.34375 12.664062 56.820312 12.289062 56.894531 11.1875 Z M 18.527344 16.132812 C 18.449219 15.957031 18.601562 15.460938 18.851562 15.035156 C 19.199219 14.460938 19.425781 14.335938 19.671875 14.484375 C 19.996094 14.683594 19.972656 14.835938 19.574219 15.609375 C 19.074219 16.53125 18.75 16.707031 18.527344 16.132812 Z M 18.527344 16.132812 "
  />
  <path
    d="M 54.847656 15.757812 C 54.847656 15.335938 55.597656 15.132812 55.921875 15.460938 C 56.121094 15.660156 56.121094 15.734375 55.921875 15.734375 C 55.773438 15.734375 55.472656 15.808594 55.246094 15.882812 C 55.023438 15.957031 54.847656 15.910156 54.847656 15.757812 Z M 38.808594 15.308594 C 38.707031 15.234375 38.632812 14.960938 38.632812 14.710938 C 38.632812 14.234375 39.304688 13.984375 42.25 13.363281 C 43.648438 13.085938 43.773438 13.085938 43.972656 13.535156 C 44.296875 14.183594 44.046875 14.335938 41.703125 14.910156 L 39.65625 15.410156 L 39.382812 14.761719 L 39.132812 14.109375 L 39.257812 14.808594 C 39.382812 15.433594 39.15625 15.683594 38.808594 15.308594 Z M 0.539062 13.636719 C 0.265625 12.738281 0.339844 12.488281 0.839844 12.488281 C 1.164062 12.488281 1.738281 14.109375 1.511719 14.335938 C 1.164062 14.710938 0.765625 14.410156 0.539062 13.636719 Z M 89.675781 14.035156 C 89.597656 13.8125 89.523438 13.1875 89.472656 12.6875 C 89.425781 11.789062 89.472656 11.714844 90.648438 11.113281 C 91.34375 10.765625 92.117188 10.488281 92.417969 10.488281 C 92.890625 10.488281 92.917969 10.589844 92.742188 11.8125 C 92.644531 12.511719 92.542969 13.3125 92.542969 13.5625 C 92.519531 13.859375 92.320312 13.984375 91.792969 13.984375 C 91.394531 13.984375 90.773438 14.085938 90.421875 14.234375 C 89.921875 14.410156 89.773438 14.386719 89.675781 14.035156 Z M 34.21875 13.8125 C 33.617188 13.410156 33.46875 12.636719 33.917969 12.363281 C 34.292969 12.113281 34.46875 12.363281 34.46875 13.085938 C 34.46875 13.4375 34.566406 13.6875 34.714844 13.660156 C 34.839844 13.636719 35.015625 13.761719 35.066406 13.9375 C 35.214844 14.335938 34.890625 14.285156 34.21875 13.8125 Z M 26.410156 12.238281 L 26.410156 10.988281 L 25.160156 10.988281 C 23.988281 10.988281 23.914062 10.9375 23.914062 10.363281 C 23.914062 9.789062 23.988281 9.742188 25.136719 9.742188 L 26.382812 9.742188 L 26.460938 8.566406 C 26.535156 7.566406 26.609375 7.394531 27.109375 7.367188 C 27.605469 7.316406 27.65625 7.441406 27.65625 8.542969 L 27.65625 9.742188 L 28.902344 9.742188 C 30.078125 9.742188 30.152344 9.789062 30.152344 10.363281 C 30.152344 10.9375 30.078125 10.988281 28.902344 10.988281 L 27.65625 10.988281 L 27.65625 12.238281 C 27.65625 13.410156 27.605469 13.484375 27.03125 13.484375 C 26.460938 13.484375 26.410156 13.410156 26.410156 12.238281 Z M 19.773438 12.6875 C 19.847656 12.363281 19.921875 11.914062 19.921875 11.6875 C 19.921875 11.386719 20.121094 11.238281 20.445312 11.238281 C 20.871094 11.238281 20.945312 11.339844 20.820312 11.8125 C 20.746094 12.113281 20.671875 12.5625 20.671875 12.8125 C 20.671875 13.085938 20.472656 13.238281 20.148438 13.238281 C 19.722656 13.238281 19.648438 13.136719 19.773438 12.6875 Z M 62.980469 12.785156 C 62.730469 12.386719 63.15625 11.488281 63.578125 11.488281 C 63.878906 11.488281 64.078125 11.238281 64.179688 10.714844 C 64.402344 9.492188 64.328125 9.265625 63.980469 10.214844 C 63.804688 10.6875 63.503906 11.140625 63.304688 11.1875 C 63.082031 11.238281 63.054688 11.214844 63.230469 11.0625 C 63.679688 10.738281 63.878906 9.914062 63.554688 9.714844 C 63.105469 9.441406 63.65625 8.140625 64.253906 8.042969 C 64.726562 7.96875 64.753906 8.066406 64.652344 9.164062 C 64.378906 11.839844 63.53125 13.660156 62.980469 12.785156 Z M 69.816406 11.863281 L 69.816406 11.238281 L 76.054688 11.238281 L 76.054688 12.488281 L 69.816406 12.488281 Z M 0.015625 10.238281 C 0.0390625 9.464844 0.164062 9.242188 0.515625 9.242188 C 0.863281 9.242188 0.964844 9.441406 0.964844 10.238281 C 0.964844 11.089844 0.886719 11.238281 0.464844 11.238281 C 0.015625 11.238281 -0.0351562 11.089844 0.015625 10.238281 Z M 35.316406 11.0625 C 34.992188 10.765625 35.140625 9.988281 35.515625 9.988281 C 35.738281 9.988281 35.890625 10.214844 35.890625 10.613281 C 35.890625 11.214844 35.640625 11.414062 35.316406 11.0625 Z M 36.136719 10.640625 C 36.136719 10.316406 36.0625 9.863281 35.988281 9.640625 C 35.863281 9.339844 36.011719 9.242188 36.585938 9.242188 C 37.011719 9.242188 37.386719 9.339844 37.4375 9.492188 C 37.484375 9.640625 40.15625 9.367188 44.496094 8.742188 C 48.3125 8.21875 51.503906 7.792969 51.53125 7.84375 C 51.582031 7.890625 51.554688 8.09375 51.480469 8.292969 C 51.304688 8.714844 51.15625 8.742188 46.191406 9.492188 C 44.371094 9.765625 42.398438 10.089844 41.800781 10.238281 C 39.804688 10.6875 38.058594 10.765625 37.835938 10.441406 C 37.683594 10.191406 37.636719 10.214844 37.636719 10.515625 C 37.636719 10.738281 37.386719 10.988281 37.085938 11.089844 C 36.214844 11.3125 36.136719 11.289062 36.136719 10.640625 Z M 36.136719 10.640625 "
  />
  <path
    d="M 11.015625 0.824219 C 10.019531 0.625 10.320312 0 11.390625 0 C 12.464844 0 12.714844 0.152344 12.515625 0.648438 C 12.390625 1 12.089844 1.023438 11.015625 0.824219 Z M 11.015625 0.824219 "
  />
  <path
    d="M 7.199219 0.875 C 7.199219 0.527344 8.621094 -0.0234375 9.019531 0.175781 C 9.46875 0.425781 9.121094 0.949219 8.421875 1.101562 C 7.324219 1.324219 7.199219 1.300781 7.199219 0.875 Z M 7.199219 0.875 "
  />
  <path
    d="M 14.558594 1.824219 C 13.613281 1.324219 13.660156 1.375 13.835938 0.925781 C 13.960938 0.574219 14.058594 0.574219 14.832031 0.925781 C 15.632812 1.324219 15.929688 1.824219 15.484375 2.074219 C 15.382812 2.148438 14.957031 2.023438 14.558594 1.824219 Z M 14.558594 1.824219 "
  />
  <path
    d="M 4.304688 2.449219 C 4.105469 2.148438 5.054688 1.25 5.578125 1.25 C 6.203125 1.25 6.128906 1.875 5.480469 2.296875 C 4.707031 2.824219 4.554688 2.847656 4.304688 2.449219 Z M 4.304688 2.449219 "
  />
  <path
    d="M 17.078125 3.523438 C 16.53125 2.949219 16.480469 2.773438 16.753906 2.546875 C 17.027344 2.324219 17.253906 2.421875 17.777344 2.972656 C 18.328125 3.546875 18.375 3.722656 18.101562 3.945312 C 17.828125 4.171875 17.601562 4.070312 17.078125 3.523438 Z M 17.078125 3.523438 "
  />
  <path
    d="M 2.011719 4.945312 C 1.636719 4.472656 2.835938 3.023438 3.234375 3.421875 C 3.457031 3.648438 3.382812 3.898438 2.984375 4.472656 C 2.335938 5.34375 2.359375 5.34375 2.011719 4.945312 Z M 2.011719 4.945312 "
  />
  <path
    d="M 19.023438 6.21875 C 18.652344 5.46875 18.699219 4.746094 19.125 4.746094 C 19.300781 4.746094 20.171875 6.292969 20.171875 6.59375 C 20.171875 6.644531 19.996094 6.742188 19.796875 6.84375 C 19.546875 6.917969 19.300781 6.71875 19.023438 6.21875 Z M 19.023438 6.21875 "
  />
  <path
    d="M 57.34375 6.992188 C 57.34375 6.867188 57.519531 6.742188 57.71875 6.742188 C 57.917969 6.742188 58.089844 6.867188 58.089844 6.992188 C 58.089844 7.144531 57.917969 7.242188 57.71875 7.242188 C 57.519531 7.242188 57.34375 7.144531 57.34375 6.992188 Z M 57.34375 6.992188 "
  />
  <path
    d="M 53.003906 7.792969 C 52.925781 7.644531 53.476562 7.46875 54.25 7.367188 C 55.847656 7.167969 56.394531 7.367188 54.949219 7.617188 C 54.398438 7.71875 53.800781 7.84375 53.550781 7.890625 C 53.328125 7.96875 53.078125 7.917969 53.003906 7.792969 Z M 53.003906 7.792969 "
  />
  <path
    d="M 0.5625 7.191406 C 0.765625 6.195312 1.113281 5.792969 1.460938 6.144531 C 1.8125 6.492188 1.261719 7.992188 0.789062 7.992188 C 0.488281 7.992188 0.441406 7.816406 0.5625 7.191406 Z M 0.5625 7.191406 "
  />
  <path
    d="M 69.816406 8.867188 L 69.816406 8.242188 L 76.054688 8.242188 L 76.054688 9.492188 L 69.816406 9.492188 Z M 69.816406 8.867188 "
  />
  <path
    d="M 85.582031 9.242188 C 84.960938 8.964844 84.335938 8.441406 84.085938 7.992188 C 83.761719 7.394531 83.539062 7.269531 83.164062 7.394531 C 82.886719 7.46875 82.265625 7.59375 81.789062 7.667969 C 80.246094 7.867188 79.394531 6.21875 80.742188 5.621094 C 81.117188 5.46875 81.292969 5.171875 81.292969 4.722656 C 81.292969 3.199219 83.136719 2.046875 85.132812 2.347656 C 86.007812 2.5 86.28125 2.421875 86.628906 2.023438 C 87.703125 0.824219 89.648438 0.824219 90.898438 2 L 91.445312 2.5 L 92.144531 1.949219 C 93.640625 0.773438 96.683594 1.125 97.632812 2.597656 C 97.882812 2.972656 98.355469 3.246094 98.929688 3.324219 C 100.027344 3.523438 101 4.371094 101 5.171875 C 101 5.746094 99.925781 6.992188 99.453125 6.992188 C 99.304688 6.992188 98.878906 7.34375 98.503906 7.742188 C 97.632812 8.691406 96.234375 8.765625 95.335938 7.941406 C 94.789062 7.417969 94.738281 7.417969 93.890625 7.816406 C 93.390625 8.042969 92.492188 8.242188 91.894531 8.242188 C 91.296875 8.242188 90.722656 8.367188 90.621094 8.515625 C 90.347656 8.992188 88.453125 9.742188 87.527344 9.742188 C 87.054688 9.742188 86.179688 9.515625 85.582031 9.242188 Z M 85.582031 9.242188 "
  />
  <path
    d="M 52.726562 9.742188 C 53.050781 9.589844 53.101562 9.515625 52.851562 9.515625 C 52.652344 9.492188 52.328125 9.265625 52.152344 8.992188 C 51.878906 8.542969 51.90625 8.492188 52.527344 8.464844 C 52.925781 8.441406 53.375 8.441406 53.578125 8.464844 C 53.777344 8.515625 53.824219 8.417969 53.699219 8.21875 C 53.578125 7.992188 53.652344 7.96875 53.949219 8.066406 C 54.199219 8.167969 54.574219 8.140625 54.796875 8.015625 C 55.023438 7.890625 55.972656 7.742188 56.917969 7.644531 C 58.390625 7.542969 58.589844 7.566406 58.589844 7.941406 C 58.589844 8.765625 58.191406 8.964844 55.523438 9.464844 C 52.679688 10.015625 51.90625 10.089844 52.726562 9.742188 Z M 52.726562 9.742188 "
  />
  <path
    d="M 20.097656 9.816406 C 19.773438 9.492188 19.921875 7.992188 20.273438 7.992188 C 20.621094 7.992188 20.921875 8.714844 20.921875 9.566406 C 20.921875 9.988281 20.421875 10.140625 20.097656 9.816406 Z M 20.097656 9.816406 "
  />
  <path
    d="M 58.839844 10.789062 C 58.839844 10.390625 59.066406 10.289062 60.535156 10.164062 C 62.957031 9.914062 63.332031 9.941406 63.332031 10.339844 C 63.332031 10.6875 62.957031 10.789062 60.164062 11.140625 C 58.964844 11.261719 58.839844 11.238281 58.839844 10.789062 Z M 58.839844 10.789062 "
  />
</svg>
