<svg id="root" xmlns="http://www.w3.org/2000/svg" viewBox="1781.38 3220 4048.62 840.84">
  <path
    d="M2190 4040c0-17 7-20 40-20 41 0 57 21 24 34-34 13-64 7-64-14zm-107-1c-22-7-31-14-27-24 7-18 12-18 52-4 20 7 29 15 25 25-6 16-6 16-50 3zm233-16c-7-18-10-16 32-33 29-11 35-11 43 1 10 17 4 23-38 37-26 9-33 8-37-5zm-354-41c-15-12-21-24-17-34 6-15 10-15 40 5 18 11 31 27 28 34-7 18-24 16-51-5zm192 0c-16-10-25-104-28-279-2-94-8-163-16-182-7-17-14-31-16-31-9 0-121 126-131 148-7 15-12 23-13 17 0-5-5-3-10 5-9 13-10 13-10 0 0-28 154-237 181-245 36-12 48-33 42-72-7-43 17-69 48-52 15 7 19 21 19 59 0 44 3 50 24 56 15 3 29 18 37 37 7 18 26 50 41 72 16 22 36 50 45 63 8 12 12 26 8 30s-12-1-19-12c-6-10-30-38-53-62-30-31-44-40-50-31-4 6-7 80-5 162 2 83-1 169-6 191-7 30-6 48 4 65 17 31 17 39 1 39-18 0-35-57-32-110 1-25-5-74-14-110l-15-65-14 90c-7 50-11 120-8 158 3 37 4 67 3 67s-7-4-13-8zm282-19c-5-11 2-25 20-41 23-22 28-23 40-10 13 13 11 18-19 41-31 23-36 25-41 10zm2805-10c15-2 35-13 45-24 11-12 30-19 56-19 24 0 50-8 68-21 40-30 95-22 149 22 23 18 41 36 41 41 0 4-87 7-192 7-106-1-181-4-167-6zm-3370-59c-12-15-20-32-18-38 7-20 24-16 45 13 18 24 19 31 8 40s-19 6-35-15zm1952-9c-7-8-13-36-13-63 0-40-4-51-21-58-14-7-22-20-24-41-2-27 1-32 24-36 34-7 44 0 38 29-3 20-2 22 9 13 18-15 18-28-1-49-16-18-3-19-188 22-32 7-57 18-55 23 2 6 7 8 13 6 46-17 130-30 138-22 20 20-3 38-62 51-33 7-64 12-68 12-5 0-12 6-16 14-10 18-38 18-31 0 3-8 0-24-6-36-11-20-18-22-59-17-25 3-94 17-152 31-154 37-159 36-159-40 0-19-4-34-9-34s-7 10-4 23c4 19 3 20-7 5-6-10-18-18-25-18-23 0-18-27 6-33 12-3 29-1 39 6 14 8 49 6 149-12 72-12 135-19 141-16 5 3 10 1 10-5 0-7 7-9 16-6 18 7 137-10 169-24 11-5 49-11 85-14 36-2 74-8 84-12 17-7 18-3 11 42-7 48-7 48 12 31 31-27 39-20 38 36 0 48 2 52 25 55 21 3 22 2 11-12-7-8-10-19-7-25 3-5 3-11-1-14-5-2-2-2 5 0 25 6 94-9 80-18-7-5-30-6-50-2-35 5-38 4-38-19 0-21 5-24 47-26 26-1 49-6 52-11 3-4 22-12 41-15 19-4 44-10 55-12 11-3 16-2 10 3-5 4-10 35-10 67 0 60 0 60-34 69-19 5-30 12-24 15 17 12 22 60 6 66-21 8-21 8-26-16l-4-23-2 23c-1 31-21 18-21-15 0-27-8-28-80-8-54 14-55 13-61-50l-7-60 2 63c1 49-2 62-14 62s-12 2-1 9c7 5 32 3 59-5 25-8 48-14 51-14s5 20 3 44c-4 41-7 46-43 60-48 20-90 20-106 1zm-15-153c6-18-15-14-22 4-4 10-1 14 6 12 6-2 14-10 16-16zm254-64c2-35 7-43 28-49 15-4 18-7 8-8-29-2-69 21-63 37 3 7 5 25 5 38 0 41 19 26 22-18zm-1538 198c-3-7 3-27 13-44 14-23 23-28 33-22 13 8 12 14-4 45-20 37-33 44-42 21z"
  ></path>
  <path
    d="M3980 3851c0-17 30-25 43-12 8 8 8 11 0 11-6 0-18 3-27 6s-16 1-16-5zm-643-18c-4-3-7-14-7-24 0-19 27-29 145-54 56-11 61-11 69 7 13 26 3 32-91 55l-82 20-11-26-10-26 5 28c5 25-4 35-18 20zm-1534-67c-11-36-8-46 12-46 13 0 36 65 27 74-14 15-30 3-39-28zm3573 16c-3-9-6-34-8-54-2-36 0-39 47-63 28-14 59-25 71-25 19 0 20 4 13 53-4 28-8 60-8 70-1 12-9 17-30 17-16 0-41 4-55 10-20 7-26 6-30-8zm-2223-9c-24-16-30-47-12-58 15-10 22 0 22 29 0 14 4 24 10 23 5-1 12 4 14 11 6 16-7 14-34-5zm-313-63v-50h-50c-47 0-50-2-50-25s3-25 49-25h50l3-47c3-40 6-47 26-48 20-2 22 3 22 47v48h50c47 0 50 2 50 25s-3 25-50 25h-50v50c0 47-2 50-25 50s-25-3-25-50zm-266 18c3-13 6-31 6-40 0-12 8-18 21-18 17 0 20 4 15 23-3 12-6 30-6 40 0 11-8 17-21 17-17 0-20-4-15-22zm1732 4c-10-16 7-52 24-52 12 0 20-10 24-31 9-49 6-58-8-20-7 19-19 37-27 39-9 2-10 1-3-5 18-13 26-46 13-54-18-11 4-63 28-67 19-3 20 1 16 45-11 107-45 180-67 145zm274-37v-25h250v50h-250v-25zm-2798-65c1-31 6-40 20-40s18 8 18 40c0 34-3 40-20 40-18 0-20-6-18-40zm1415 33c-13-12-7-43 8-43 9 0 15 9 15 25 0 24-10 32-23 18zm33-17c0-13-3-31-6-40-5-12 1-16 24-16 17 0 32 4 34 10s109-5 283-30c153-21 281-38 282-36 2 2 1 10-2 18-7 17-13 18-212 48-73 11-152 24-176 30-80 18-150 21-159 8-6-10-8-9-8 3 0 9-10 19-22 23-35 9-38 8-38-18z"
  ></path>
  <path d="m 2223,3253 c -40,-8 -28,-33 15,-33 43,0 53,6 45,26 -5,14 -17,15 -60,7 z"></path>
  <path d="m 2070,3255 c 0,-14 57,-36 73,-28 18,10 4,31 -24,37 -44,9 -49,8 -49,-9 z"></path>
  <path
    d="m 2365,3293 c -38,-20 -36,-18 -29,-36 5,-14 9,-14 40,0 32,16 44,36 26,46 -4,3 -21,-2 -37,-10 z"
  ></path>
  <path d="m 1954,3318 c -8,-12 30,-48 51,-48 25,0 22,25 -4,42 -31,21 -37,22 -47,6 z"></path>
  <path
    d="m 2466,3361 c -22,-23 -24,-30 -13,-39 11,-9 20,-5 41,17 22,23 24,30 13,39 -11,9 -20,5 -41,-17 z"
  ></path>
  <path d="m 1862,3418 c -15,-19 33,-77 49,-61 9,9 6,19 -10,42 -26,35 -25,35 -39,19 z"></path>
  <path d="m 2544,3469 c -15,-30 -13,-59 4,-59 7,0 42,62 42,74 0,2 -7,6 -15,10 -10,3 -20,-5 -31,-25 z"></path>
  <path d="m 4080,3500 c 0,-5 7,-10 15,-10 8,0 15,5 15,10 0,6 -7,10 -15,10 -8,0 -15,-4 -15,-10 z"></path>
  <path d="m 3906,3532 c -3,-6 19,-13 50,-17 64,-8 86,0 28,10 -22,4 -46,9 -56,11 -9,3 -19,1 -22,-4 z"></path>
  <path d="m 1804,3508 c 8,-40 22,-56 36,-42 14,14 -8,74 -27,74 -12,0 -14,-7 -9,-32 z"></path>
  <path d="m 4580,3575 v -25 h 250 v 50 h -250 z"></path>
  <path
    d="m 5212,3590 c -25,-11 -50,-32 -60,-50 -13,-24 -22,-29 -37,-24 -11,3 -36,8 -55,11 -62,8 -96,-58 -42,-82 15,-6 22,-18 22,-36 0,-61 74,-107 154,-95 35,6 46,3 60,-13 43,-48 121,-48 171,-1 l 22,20 28,-22 c 60,-47 182,-33 220,26 10,15 29,26 52,29 44,8 83,42 83,74 0,23 -43,73 -62,73 -6,0 -23,14 -38,30 -35,38 -91,41 -127,8 -22,-21 -24,-21 -58,-5 -20,9 -56,17 -80,17 -24,0 -47,5 -51,11 -11,19 -87,49 -124,49 -19,0 -54,-9 -78,-20 z"
  ></path>
  <path
    d="m 3895,3610 c 13,-6 15,-9 5,-9 -8,-1 -21,-10 -28,-21 -11,-18 -10,-20 15,-21 16,-1 34,-1 42,0 8,2 10,-2 5,-10 -5,-9 -2,-10 10,-6 10,4 25,3 34,-2 9,-5 47,-11 85,-15 59,-4 67,-3 67,12 0,33 -16,41 -123,61 -114,22 -145,25 -112,11 z"
  ></path>
  <path d="m 2587,3613 c -13,-13 -7,-73 7,-73 14,0 26,29 26,63 0,17 -20,23 -33,10 z"></path>
  <path
    d="m 4140,3652 c 0,-16 9,-20 68,-25 97,-10 112,-9 112,7 0,14 -15,18 -127,32 -48,5 -53,4 -53,-14 z"
  ></path>
</svg>
