<svg xmlns="http://www.w3.org/2000/svg" id="root" viewBox="0 0 99 33">
  <g>
    <path
      d="M 16.871094 27.59375 C 16.6875 27.320312 16.46875 27.171875 16.304688 27.226562 C 16.15625 27.28125 16.046875 27.300781 16.046875 27.265625 C 16.046875 27.210938 15.992188 27.042969 15.917969 26.859375 C 15.847656 26.640625 15.863281 26.585938 16.011719 26.679688 C 16.265625 26.84375 16.265625 26.804688 16.027344 25.339844 C 15.808594 23.910156 15.9375 23.121094 16.414062 23.121094 C 17.546875 23.121094 18.699219 27.355469 17.710938 27.886719 C 17.234375 28.144531 17.234375 28.144531 16.871094 27.59375 Z M 16.871094 27.59375 "
    />
    <path
      d="M 66.871094 28.035156 C 66.871094 27.429688 66.890625 27.410156 68.296875 26.953125 C 69.6875 26.496094 69.722656 26.496094 70.621094 26.789062 L 71.535156 27.097656 L 69.433594 27.796875 C 68.28125 28.179688 67.21875 28.53125 67.109375 28.585938 C 66.945312 28.640625 66.871094 28.457031 66.871094 28.035156 Z M 66.871094 28.035156 "
    />
    <path
      d="M 66.871094 29.390625 C 66.871094 29.132812 67.730469 28.785156 71.460938 27.574219 C 74.878906 26.476562 76.011719 26.164062 75.976562 26.382812 C 75.941406 26.566406 74.441406 27.171875 71.535156 28.179688 C 69.121094 29.023438 67.089844 29.722656 67.019531 29.722656 C 66.925781 29.722656 66.871094 29.574219 66.871094 29.390625 Z M 66.871094 29.390625 "
    />
    <path
      d="M 58.589844 32.398438 C 58.535156 32.25 58.535156 30.4375 58.589844 28.363281 L 58.699219 24.585938 L 59.90625 24.238281 C 61.992188 23.617188 66.433594 22.386719 66.578125 22.386719 C 66.707031 22.386719 66.597656 26.273438 66.398438 28.894531 L 66.304688 30.199219 L 65.082031 30.546875 C 64.402344 30.730469 62.796875 31.28125 61.496094 31.773438 C 58.917969 32.726562 58.738281 32.78125 58.589844 32.398438 Z M 58.589844 32.398438 "
    />
    <path
      d="M 55.683594 31.589844 L 53.363281 30.5625 L 53.304688 26.660156 L 53.25 22.773438 L 53.707031 22.882812 C 53.964844 22.9375 55.0625 23.324219 56.175781 23.746094 C 58.113281 24.476562 58.167969 24.515625 58.316406 25.136719 C 58.460938 25.851562 58.28125 32.65625 58.113281 32.636719 C 58.058594 32.636719 56.964844 32.160156 55.683594 31.589844 Z M 55.683594 31.589844 "
    />
    <path
      d="M 55.535156 32.691406 C 54.953125 32.453125 54.695312 32.25 54.660156 31.957031 L 54.605469 31.554688 L 55.554688 31.9375 C 56.78125 32.417969 56.816406 32.433594 56.816406 32.765625 C 56.816406 33.09375 56.5625 33.074219 55.535156 32.691406 Z M 55.535156 32.691406 "
    />
    <path
      d="M 18.460938 26.585938 C 18.460938 25.414062 18.257812 24.753906 17.566406 23.617188 C 17.070312 22.828125 17.015625 22.863281 18.953125 22.570312 C 19.683594 22.441406 22.28125 21.855469 24.710938 21.269531 C 27.125 20.664062 29.796875 20.097656 30.617188 19.96875 C 31.988281 19.765625 32.152344 19.785156 32.484375 20.078125 C 33.289062 20.792969 33.707031 23.339844 33.140625 23.929688 C 32.8125 24.257812 31.878906 24.53125 27.839844 25.484375 C 26.140625 25.90625 23.507812 26.566406 21.988281 26.972656 C 18.296875 27.941406 18.460938 27.960938 18.460938 26.585938 Z M 71.167969 26.292969 C 70.765625 26.164062 70.382812 25.980469 70.308594 25.90625 C 70.234375 25.835938 70.089844 24.992188 69.980469 24.039062 C 69.652344 21.214844 69.613281 21.453125 70.457031 21.195312 L 71.222656 20.976562 L 71.425781 22.019531 C 71.605469 22.9375 71.992188 26.476562 71.917969 26.53125 C 71.917969 26.550781 71.570312 26.4375 71.167969 26.292969 Z M 72.355469 26.382812 C 72.355469 26.257812 72.230469 25.136719 72.082031 23.945312 C 71.664062 20.589844 71.589844 20.867188 73.144531 20.460938 C 73.855469 20.28125 74.550781 20.097656 74.660156 20.058594 C 74.917969 19.96875 75.027344 20.792969 75.191406 23.691406 L 75.320312 25.652344 L 74.058594 26.054688 C 73.378906 26.292969 72.703125 26.511719 72.59375 26.566406 C 72.464844 26.605469 72.355469 26.53125 72.355469 26.382812 Z M 72.355469 26.382812 "
    />
    <path
      d="M 32.5 25.046875 C 32.300781 24.808594 32.355469 24.769531 32.738281 24.769531 C 32.996094 24.769531 33.34375 24.644531 33.488281 24.476562 C 33.761719 24.203125 33.835938 24 34.035156 22.9375 C 34.089844 22.679688 34.089844 22.917969 34.074219 23.46875 C 34.019531 24.292969 33.925781 24.550781 33.523438 24.898438 C 32.941406 25.394531 32.8125 25.414062 32.5 25.046875 Z M 32.5 25.046875 "
    />
    <path
      d="M 34.21875 24.644531 C 34.675781 23.46875 34.457031 21.488281 33.691406 19.984375 C 33.433594 19.472656 33.234375 19.03125 33.234375 18.996094 C 33.234375 18.886719 35.628906 18.5 35.847656 18.59375 C 35.976562 18.628906 36.320312 19.160156 36.613281 19.746094 C 37.054688 20.628906 37.164062 21.066406 37.164062 22.019531 C 37.164062 23.433594 36.816406 24.386719 36.265625 24.476562 C 36.066406 24.515625 35.480469 24.644531 35.007812 24.734375 C 34.257812 24.882812 34.148438 24.863281 34.21875 24.644531 Z M 3.085938 23.25 L 1.183594 22.132812 L 2.242188 21.929688 C 2.867188 21.800781 3.414062 21.5625 3.558594 21.378906 C 4.109375 20.609375 3.558594 17.769531 2.699219 16.980469 C 2.425781 16.722656 2.171875 16.6875 1.4375 16.796875 L 0.523438 16.925781 L 0.414062 16.027344 C 0.359375 15.550781 0.269531 14.960938 0.214844 14.742188 C 0.179688 14.503906 0.214844 14.320312 0.289062 14.320312 C 0.652344 14.320312 4.015625 16.027344 4.089844 16.246094 C 4.183594 16.464844 5.058594 24.292969 5.003906 24.332031 C 5.003906 24.347656 4.125 23.855469 3.085938 23.25 Z M 5.441406 24.09375 C 5.425781 23.910156 5.242188 22.074219 5.003906 20.003906 C 4.765625 17.933594 4.601562 16.226562 4.621094 16.191406 C 4.65625 16.15625 8.769531 15.441406 13.78125 14.578125 C 18.808594 13.734375 30.835938 11.679688 40.546875 10.03125 C 50.253906 8.382812 58.222656 7.0625 58.261719 7.097656 C 58.316406 7.152344 58.167969 7.554688 57.949219 7.996094 C 57.695312 8.527344 57.546875 9.1875 57.546875 9.792969 C 57.53125 10.304688 57.421875 10.949219 57.273438 11.203125 C 57.128906 11.460938 57.019531 12.046875 57 12.542969 C 57 13.625 57.089844 13.585938 53.25 14.339844 C 51.644531 14.652344 49.46875 15.109375 48.40625 15.367188 C 47.347656 15.605469 44.675781 16.171875 42.464844 16.632812 C 40.253906 17.089844 36.925781 17.824219 35.0625 18.261719 C 33.195312 18.703125 30.125 19.363281 28.203125 19.730469 C 23.816406 20.554688 22.425781 20.867188 17.234375 22.09375 C 12.097656 23.324219 6.8125 24.40625 6.027344 24.40625 C 5.589844 24.40625 5.441406 24.3125 5.441406 24.09375 Z M 5.441406 24.09375 "
    />
    <path
      d="M 54.367188 22.773438 C 51.003906 21.636719 49.90625 21.105469 51.003906 21.105469 C 51.277344 21.105469 51.714844 20.828125 52.136719 20.390625 C 52.757812 19.746094 53.015625 19.636719 54.109375 19.453125 C 55.9375 19.144531 56.230469 18.777344 56.085938 16.886719 C 56.03125 16.097656 55.71875 15.476562 55.078125 14.871094 L 54.605469 14.414062 L 56.121094 14.136719 L 57.640625 13.863281 L 57.695312 12.800781 C 57.75 11.792969 57.765625 11.734375 58.152344 11.863281 C 58.371094 11.917969 58.570312 11.992188 58.609375 12.03125 C 58.625 12.046875 58.589844 14.761719 58.515625 18.042969 C 58.445312 22.1875 58.335938 24.039062 58.207031 24.019531 C 58.097656 24 56.359375 23.449219 54.367188 22.773438 Z M 58.917969 18.0625 C 58.992188 14.742188 59.066406 12.011719 59.082031 11.972656 C 59.195312 11.882812 69.15625 9.921875 69.339844 9.976562 C 69.433594 10.011719 68.609375 10.234375 67.511719 10.453125 C 66.398438 10.671875 65.007812 10.984375 64.402344 11.113281 C 63.800781 11.257812 62.960938 11.425781 62.519531 11.480469 C 61.386719 11.664062 61.1875 12.066406 61.242188 14.066406 L 61.296875 15.695312 L 62.117188 15.660156 C 62.574219 15.660156 64.515625 15.257812 66.414062 14.796875 C 68.335938 14.339844 70.070312 13.917969 70.308594 13.863281 C 71.078125 13.679688 71.441406 13.109375 71.441406 12.085938 C 71.441406 11.222656 71.386719 11.09375 70.691406 10.453125 C 69.832031 9.664062 69.667969 9.773438 72.632812 9.1875 C 73.746094 8.96875 75.519531 8.582031 76.582031 8.34375 C 79.15625 7.757812 79.304688 7.757812 79.304688 8.472656 C 79.304688 8.804688 79.230469 8.984375 79.121094 8.914062 C 78.921875 8.785156 72.539062 10.066406 72.339844 10.269531 C 72.15625 10.433594 71.789062 16.941406 71.953125 17.109375 C 72.082031 17.234375 78.410156 15.734375 78.828125 15.476562 C 78.921875 15.402344 78.957031 15.550781 78.882812 15.804688 C 78.8125 16.042969 78.753906 16.648438 78.753906 17.125 C 78.753906 18.207031 78.261719 18.792969 77.183594 18.976562 C 76.671875 19.070312 62.796875 22.917969 59.121094 23.984375 C 58.792969 24.074219 58.792969 23.890625 58.917969 18.0625 Z M 63.855469 20.078125 C 64.769531 19.839844 66.398438 19.417969 67.511719 19.160156 C 69.761719 18.628906 70.328125 18.390625 70.875 17.695312 C 71.460938 16.941406 71.371094 16.097656 70.65625 15.292969 L 70.035156 14.632812 L 66.578125 15.421875 C 64.679688 15.859375 62.796875 16.265625 62.394531 16.335938 C 61.972656 16.394531 61.550781 16.519531 61.425781 16.59375 C 61.1875 16.742188 61.09375 20.390625 61.332031 20.628906 C 61.40625 20.699219 61.644531 20.71875 61.84375 20.644531 C 62.046875 20.589844 62.960938 20.335938 63.855469 20.078125 Z M 63.855469 20.078125 "
    />
    <path
      d="M 61.769531 19.601562 C 61.769531 19.269531 61.84375 18.628906 61.917969 18.171875 L 62.046875 17.347656 L 62.355469 17.933594 C 62.886719 18.941406 62.683594 20.1875 61.992188 20.1875 C 61.84375 20.1875 61.753906 19.96875 61.769531 19.601562 Z M 63.03125 19.050781 C 63.03125 18.574219 62.886719 18.007812 62.648438 17.640625 C 62.449219 17.308594 62.300781 16.996094 62.339844 16.980469 C 62.375 16.941406 67.546875 15.789062 69.925781 15.292969 C 70.859375 15.089844 71.1875 17.308594 70.289062 17.878906 C 69.925781 18.117188 63.746094 19.820312 63.253906 19.820312 C 63.125 19.820312 63.03125 19.507812 63.03125 19.050781 Z M 37.636719 22.441406 C 37.527344 22.058594 37.292969 21.085938 37.109375 20.28125 L 36.761719 18.8125 L 37.875 18.574219 C 38.480469 18.429688 40.636719 17.914062 42.667969 17.417969 C 46.597656 16.449219 47.53125 16.355469 48.207031 16.816406 C 48.992188 17.363281 49.394531 18.996094 48.957031 19.839844 C 48.664062 20.351562 47.804688 20.738281 46.046875 21.105469 C 45.1875 21.269531 43.195312 21.746094 41.640625 22.148438 C 40.089844 22.554688 38.589844 22.9375 38.316406 23.011719 C 37.859375 23.121094 37.804688 23.066406 37.636719 22.441406 Z M 67.785156 22.039062 C 67.785156 21.949219 67.988281 21.835938 68.242188 21.800781 C 68.753906 21.691406 68.863281 21.910156 68.40625 22.09375 C 68.003906 22.242188 67.785156 22.222656 67.785156 22.039062 Z M 0.304688 21.453125 C 0.140625 21.140625 0.160156 21.085938 0.324219 21.195312 C 0.582031 21.359375 0.542969 21.105469 0.140625 19.636719 C -0.132812 18.648438 0.0117188 17.402344 0.398438 17.546875 C 0.542969 17.601562 0.800781 17.914062 0.964844 18.226562 C 1.238281 18.777344 1.257812 18.777344 1.164062 18.316406 C 1.109375 18.0625 1.019531 17.710938 0.945312 17.566406 C 0.871094 17.382812 1.019531 17.273438 1.457031 17.199219 C 2.242188 17.070312 2.8125 17.65625 2.992188 18.8125 C 3.046875 19.269531 3.175781 19.691406 3.269531 19.746094 C 3.558594 19.929688 3.433594 20.738281 3.066406 21.105469 C 2.867188 21.304688 2.5 21.472656 2.242188 21.472656 C 1.824219 21.472656 1.785156 21.398438 1.769531 20.609375 C 1.75 19.105469 1.4375 18.832031 1.4375 20.296875 C 1.421875 21.011719 1.367188 21.65625 1.292969 21.710938 C 1.238281 21.78125 1.019531 21.691406 0.816406 21.527344 C 0.46875 21.214844 0.453125 21.214844 0.5625 21.527344 C 0.726562 21.964844 0.5625 21.910156 0.304688 21.453125 Z M 47.875 21.304688 C 47.585938 21.121094 47.75 21.011719 48.554688 20.828125 C 48.917969 20.757812 49.246094 20.535156 49.414062 20.222656 C 49.722656 19.636719 49.761719 19.746094 49.503906 20.5 C 49.394531 20.8125 49.101562 21.140625 48.84375 21.269531 C 48.296875 21.507812 48.207031 21.507812 47.875 21.304688 Z M 47.875 21.304688 "
    />
    <path
      d="M 49.980469 20.519531 C 50.289062 19.308594 50.144531 17.710938 49.613281 16.796875 C 49.359375 16.320312 49.136719 15.859375 49.136719 15.789062 C 49.136719 15.53125 50.984375 15.203125 51.222656 15.402344 C 51.644531 15.75 52.226562 17.164062 52.335938 18.078125 C 52.519531 19.527344 51.714844 20.699219 50.34375 21.011719 C 49.832031 21.121094 49.816406 21.121094 49.980469 20.519531 Z M 95.628906 20.589844 C 95.90625 20.480469 95.976562 20.167969 96.03125 18.90625 C 96.085938 18.042969 96.289062 16.117188 96.507812 14.632812 C 96.710938 13.128906 96.855469 11.863281 96.800781 11.828125 C 96.726562 11.734375 96.269531 13.992188 95.464844 18.484375 L 95.171875 20.167969 L 94.589844 20.078125 C 93.492188 19.875 92.265625 19.417969 92.15625 19.160156 C 92.027344 18.792969 92.285156 15.183594 92.46875 14.890625 C 92.578125 14.6875 92.871094 14.707031 93.910156 14.980469 C 94.824219 15.21875 95.265625 15.257812 95.394531 15.128906 C 95.703125 14.816406 96.125 12.046875 96.179688 10.105469 L 96.214844 8.363281 L 94.824219 8.199219 L 93.4375 8.050781 L 94.148438 5.816406 C 94.550781 4.605469 94.898438 3.578125 94.898438 3.578125 C 95.007812 3.503906 97.878906 3.925781 97.988281 4.035156 C 98.042969 4.089844 97.914062 5.171875 97.660156 6.4375 C 97.019531 9.757812 97.128906 9.996094 97.96875 7.171875 C 98.902344 4.054688 98.902344 4.054688 98.996094 4.476562 C 99.050781 4.660156 98.703125 6.179688 98.246094 7.867188 C 97.128906 11.992188 96.015625 20.167969 96.582031 20.1875 C 96.671875 20.207031 96.5625 20.316406 96.308594 20.460938 C 96.050781 20.609375 95.722656 20.71875 95.574219 20.71875 C 95.375 20.71875 95.394531 20.683594 95.628906 20.589844 Z M 32.777344 19.636719 C 32.375 19.214844 32.320312 19.085938 32.554688 19.085938 C 32.71875 19.085938 32.976562 19.34375 33.140625 19.636719 C 33.304688 19.949219 33.398438 20.1875 33.359375 20.1875 C 33.324219 20.1875 33.066406 19.949219 32.777344 19.636719 Z M 52.90625 19.050781 C 52.59375 18.078125 52.046875 15.566406 52.101562 15.496094 C 52.15625 15.457031 52.628906 15.328125 53.179688 15.21875 C 54.914062 14.871094 55.535156 15.402344 55.535156 17.234375 C 55.535156 18.191406 55.136719 18.777344 54.3125 19.105469 C 53.691406 19.34375 52.976562 19.308594 52.90625 19.050781 Z M 52.90625 19.050781 "
    />
    <path
      d="M 48.902344 16.667969 C 48.609375 16.265625 48.277344 15.972656 48.152344 16.027344 C 48.023438 16.082031 47.804688 16.042969 47.65625 15.953125 C 47.472656 15.84375 47.566406 15.789062 47.988281 15.789062 C 48.480469 15.789062 48.664062 15.917969 49.066406 16.519531 C 49.703125 17.492188 49.558594 17.601562 48.902344 16.667969 Z M 72.976562 16.15625 C 73.035156 15.824219 73.089844 14.449219 73.089844 13.109375 L 73.089844 10.65625 L 73.601562 10.5625 C 73.875 10.507812 74.898438 10.25 75.867188 10.011719 C 76.835938 9.757812 77.894531 9.554688 78.207031 9.554688 L 78.773438 9.554688 L 78.683594 10.433594 C 78.628906 10.910156 78.535156 12.175781 78.464844 13.257812 L 78.351562 15.238281 L 77.605469 15.441406 C 76.617188 15.695312 73.65625 16.503906 73.199219 16.648438 C 72.886719 16.742188 72.867188 16.667969 72.976562 16.15625 Z M 2.589844 14.90625 C 0.582031 13.917969 0.582031 13.953125 3.03125 13.660156 C 3.980469 13.550781 4.164062 13.585938 4.164062 13.828125 C 4.164062 13.992188 4.417969 14.304688 4.730469 14.523438 L 5.296875 14.925781 L 7.800781 14.632812 C 9.171875 14.46875 14.53125 13.585938 19.703125 12.691406 C 24.878906 11.792969 30.398438 10.894531 31.953125 10.65625 C 33.507812 10.433594 36.578125 9.941406 38.753906 9.535156 C 40.949219 9.152344 43.835938 8.65625 45.152344 8.4375 C 46.488281 8.234375 48.828125 7.832031 50.328125 7.539062 C 54.457031 6.75 56.160156 6.53125 56.5625 6.769531 C 56.851562 6.953125 56.78125 6.96875 56.085938 6.988281 C 55.042969 6.988281 52.722656 7.355469 48.132812 8.269531 C 46.121094 8.65625 43.746094 9.078125 42.832031 9.1875 C 40.492188 9.480469 35.226562 10.359375 30.765625 11.203125 C 28.660156 11.589844 24.21875 12.378906 20.890625 12.945312 C 12.246094 14.394531 6.757812 15.367188 5.808594 15.585938 C 4.601562 15.878906 4.566406 15.859375 2.589844 14.90625 Z M 61.9375 13.882812 C 61.9375 13.109375 62.007812 12.488281 62.101562 12.488281 C 62.191406 12.488281 62.410156 12.871094 62.59375 13.332031 C 62.941406 14.265625 62.796875 15.089844 62.246094 15.203125 C 61.972656 15.257812 61.9375 15.089844 61.9375 13.882812 Z M 63.179688 14.230469 C 63.234375 13.644531 63.140625 13.238281 62.867188 12.800781 C 62.648438 12.453125 62.484375 12.121094 62.484375 12.066406 C 62.484375 12.011719 63.289062 11.828125 64.277344 11.664062 C 65.246094 11.496094 66.890625 11.148438 67.894531 10.910156 C 70.402344 10.304688 71.078125 10.582031 71.078125 12.195312 C 71.078125 12.984375 70.492188 13.496094 69.375 13.679688 C 68.957031 13.753906 67.457031 14.082031 66.066406 14.429688 C 64.660156 14.78125 63.417969 15.054688 63.308594 15.054688 C 63.199219 15.054688 63.140625 14.722656 63.179688 14.230469 Z M 79.359375 12.929688 C 79.414062 11.957031 79.503906 11.132812 79.558594 11.078125 C 79.613281 11.003906 92.121094 10.160156 93.855469 10.105469 C 94.078125 10.105469 93.507812 12.453125 93.253906 12.671875 C 93.125 12.78125 80.125 14.6875 79.503906 14.6875 C 79.304688 14.6875 79.269531 14.359375 79.359375 12.929688 Z M 94.625 14.375 C 94.203125 13.917969 94.1875 12.195312 94.570312 10.910156 C 94.824219 10.050781 95.628906 8.820312 95.8125 9.003906 C 95.886719 9.078125 95.300781 12.890625 94.992188 14.484375 C 94.953125 14.667969 94.84375 14.632812 94.625 14.375 Z M 93.089844 14.304688 C 92.761719 14.210938 92.429688 13.953125 92.320312 13.679688 C 92.121094 13.222656 92.121094 13.222656 92.925781 13.222656 C 93.65625 13.222656 93.785156 13.277344 93.929688 13.699219 C 94.257812 14.558594 94.1875 14.613281 93.089844 14.304688 Z M 93.089844 14.304688 "
    />
    <path
      d="M 5.441406 14.191406 C 5.441406 14.101562 5.316406 13.257812 5.167969 12.304688 C 5.023438 11.351562 4.929688 10.5625 4.949219 10.542969 C 4.96875 10.527344 5.441406 10.453125 6.011719 10.378906 L 7.035156 10.25 L 7.253906 11.882812 C 7.582031 14.449219 7.617188 14.320312 6.449219 14.320312 C 5.898438 14.320312 5.441406 14.265625 5.441406 14.191406 Z M 8.09375 13.917969 C 8.058594 13.789062 7.929688 12.816406 7.820312 11.753906 C 7.710938 10.691406 7.582031 9.535156 7.527344 9.167969 L 7.4375 8.527344 L 9.390625 8.289062 C 10.472656 8.160156 11.585938 8.015625 11.84375 7.960938 L 12.316406 7.867188 L 12.535156 10.324219 C 12.664062 11.664062 12.757812 12.890625 12.757812 13.054688 C 12.757812 13.367188 11.75 13.644531 9.921875 13.863281 C 9.429688 13.917969 8.824219 14.007812 8.585938 14.066406 C 8.351562 14.121094 8.148438 14.046875 8.09375 13.917969 Z M 4.457031 12.632812 C 4.382812 11.902344 4.273438 11.113281 4.21875 10.894531 C 4.164062 10.65625 4.199219 10.472656 4.308594 10.472656 C 4.417969 10.472656 4.546875 10.910156 4.621094 11.441406 C 4.675781 11.957031 4.785156 12.746094 4.839844 13.183594 C 4.894531 13.644531 4.859375 13.953125 4.75 13.953125 C 4.65625 13.953125 4.511719 13.347656 4.457031 12.632812 Z M 13.25 13.09375 C 13.214844 13 13.121094 12.140625 13.046875 11.167969 C 12.921875 9.40625 12.921875 9.390625 13.339844 9.296875 C 13.945312 9.152344 56.523438 3.136719 56.871094 3.136719 C 57.511719 3.136719 57.074219 4.789062 56.140625 5.90625 C 55.992188 6.089844 55.464844 6.273438 54.84375 6.347656 C 54.277344 6.402344 52.574219 6.695312 51.058594 6.988281 C 49.558594 7.28125 47.308594 7.648438 46.085938 7.792969 C 44.878906 7.941406 41.953125 8.398438 39.59375 8.804688 C 37.253906 9.1875 34.804688 9.574219 34.148438 9.644531 C 33.488281 9.71875 32.5 9.882812 31.953125 10.011719 C 31.402344 10.140625 30.453125 10.304688 29.851562 10.378906 C 29.246094 10.433594 28.277344 10.617188 27.710938 10.765625 C 27.125 10.910156 25.738281 11.148438 24.601562 11.296875 C 23.488281 11.441406 21.511719 11.773438 20.214844 12.03125 C 18.9375 12.285156 17.566406 12.488281 17.179688 12.488281 C 16.816406 12.488281 15.972656 12.617188 15.316406 12.761719 C 14.65625 12.910156 13.945312 13.074219 13.726562 13.128906 C 13.503906 13.183594 13.285156 13.167969 13.25 13.09375 Z M 58.28125 10.304688 C 58.28125 9.71875 58.351562 9.574219 58.699219 9.5 C 59.394531 9.316406 77.953125 5.886719 78.171875 5.886719 C 78.5 5.886719 78.445312 6.714844 78.097656 7.007812 C 77.933594 7.132812 77.054688 7.371094 76.140625 7.554688 C 75.207031 7.722656 73.671875 8.03125 72.722656 8.269531 C 71.773438 8.492188 70.621094 8.710938 70.164062 8.746094 C 69.707031 8.785156 66.871094 9.316406 63.855469 9.921875 C 60.855469 10.527344 58.371094 11.019531 58.335938 11.019531 C 58.296875 11.019531 58.28125 10.691406 58.28125 10.304688 Z M 6.503906 9.425781 C 6.320312 9.390625 6.175781 9.242188 6.175781 9.132812 C 6.175781 9.003906 6.121094 8.710938 6.046875 8.492188 C 5.9375 8.050781 5.9375 8.050781 6.523438 8.34375 C 6.925781 8.566406 7.089844 8.785156 7.089844 9.097656 C 7.089844 9.554688 7.050781 9.574219 6.503906 9.425781 Z M 93.621094 9.425781 C 92.90625 9.335938 92.851562 9.113281 93.4375 8.730469 C 93.746094 8.527344 94.113281 8.492188 94.734375 8.566406 L 95.59375 8.691406 L 95.191406 9.113281 C 94.953125 9.351562 94.644531 9.535156 94.496094 9.519531 C 94.332031 9.519531 93.929688 9.464844 93.621094 9.425781 Z M 58.828125 8.949219 C 58.828125 8.621094 60.015625 5.757812 60.234375 5.59375 C 60.363281 5.464844 61.277344 5.28125 62.265625 5.15625 C 63.234375 5.042969 64.859375 4.769531 65.867188 4.585938 C 71.441406 3.523438 77.109375 2.589844 78.117188 2.589844 C 78.5 2.589844 78.535156 2.679688 78.664062 3.890625 C 78.738281 4.585938 78.738281 5.226562 78.683594 5.28125 C 78.574219 5.394531 73.949219 6.253906 64.128906 8.015625 C 61.570312 8.472656 59.320312 8.875 59.15625 8.929688 C 58.972656 8.984375 58.828125 8.984375 58.828125 8.949219 Z M 6.980469 8.070312 C 6.886719 7.921875 10.359375 7.464844 10.855469 7.574219 C 11.054688 7.609375 10.269531 7.757812 9.136719 7.921875 C 8.003906 8.070312 7.035156 8.144531 6.980469 8.070312 Z M 58.679688 7.777344 C 58.699219 7.007812 58.425781 6.695312 57.585938 6.53125 C 56.632812 6.347656 56.617188 6.308594 56.925781 5.648438 L 57.21875 5.042969 L 58.425781 5.226562 C 59.101562 5.320312 59.667969 5.410156 59.707031 5.429688 C 59.722656 5.449219 59.503906 6.125 59.210938 6.914062 C 58.808594 8.03125 58.679688 8.234375 58.679688 7.777344 Z M 60.566406 4.75 C 60.710938 4.402344 70.636719 2.863281 71.550781 3.046875 C 72.136719 3.175781 71.261719 3.339844 66.597656 4.074219 C 60.125 5.082031 60.453125 5.042969 60.566406 4.75 Z M 60.566406 4.75 "
    />
    <path
      d="M 58.152344 4.660156 C 57.785156 4.585938 57.730469 4.457031 57.730469 3.667969 L 57.730469 2.769531 L 56.449219 2.769531 C 55.207031 2.769531 55.171875 2.753906 55.171875 2.3125 C 55.171875 1.78125 55.171875 1.78125 57.273438 2.09375 L 58.738281 2.3125 L 58.792969 3.558594 C 58.828125 4.238281 58.773438 4.769531 58.699219 4.769531 C 58.625 4.75 58.371094 4.695312 58.152344 4.660156 Z M 59.304688 3.652344 C 59.449219 2.277344 59.46875 2.222656 59.941406 2.222656 C 60.289062 2.222656 60.308594 2.292969 60.179688 3.375 C 60.035156 4.734375 60.015625 4.789062 59.539062 4.789062 C 59.195312 4.789062 59.175781 4.714844 59.304688 3.652344 Z M 60.65625 3.339844 C 60.65625 2.714844 60.730469 2.589844 61.078125 2.496094 C 61.644531 2.367188 69.652344 1.304688 70.035156 1.304688 C 70.363281 1.304688 70.472656 1.945312 70.199219 2.332031 C 70.125 2.441406 68.097656 2.84375 65.683594 3.210938 C 63.269531 3.597656 61.148438 3.945312 60.984375 3.980469 C 60.710938 4.074219 60.65625 3.964844 60.65625 3.339844 Z M 73.453125 2.714844 C 73.453125 2.515625 73.820312 2.40625 74.933594 2.3125 C 75.738281 2.238281 76.433594 2.222656 76.488281 2.277344 C 76.542969 2.3125 76.011719 2.460938 75.335938 2.589844 C 74.660156 2.699219 73.949219 2.84375 73.78125 2.898438 C 73.582031 2.953125 73.453125 2.882812 73.453125 2.714844 Z M 73.453125 2.714844 "
    />
    <path
      d="M 71.023438 2.644531 C 70.746094 2.570312 70.691406 2.40625 70.746094 1.800781 L 70.804688 1.03125 L 69.488281 0.976562 C 68.296875 0.917969 68.152344 0.882812 68.152344 0.554688 C 68.152344 0.0195312 68.425781 -0.015625 70.253906 0.257812 L 71.898438 0.480469 L 71.953125 1.632812 C 72.007812 2.84375 71.972656 2.882812 71.023438 2.644531 Z M 72.394531 1.671875 C 72.484375 0.734375 72.742188 0.257812 73.035156 0.441406 C 73.125 0.496094 73.144531 0.976562 73.089844 1.523438 C 73.015625 2.277344 72.921875 2.515625 72.648438 2.550781 C 72.339844 2.625 72.320312 2.53125 72.394531 1.671875 Z M 74.367188 1.230469 L 74.367188 0.40625 L 75.246094 0.296875 C 75.722656 0.242188 76.378906 0.148438 76.707031 0.09375 L 77.3125 0.00390625 L 77.203125 1.761719 L 76.011719 1.761719 C 75.355469 1.761719 74.714844 1.835938 74.605469 1.910156 C 74.421875 2.019531 74.367188 1.855469 74.367188 1.230469 Z M 73.636719 1.121094 C 73.636719 0.71875 73.726562 0.386719 73.820312 0.386719 C 73.929688 0.386719 74.003906 0.71875 74.003906 1.121094 C 74.003906 1.523438 73.929688 1.855469 73.820312 1.855469 C 73.726562 1.855469 73.636719 1.523438 73.636719 1.121094 Z M 73.636719 1.121094 "
    />
  </g>
</svg>
