<svg id="root" xmlns="http://www.w3.org/2000/svg"
  style="transform:none;transform-origin:50% 50%;cursor:move;max-height:none" width="768" height="441"
  viewBox="0 0 7680 4410">
  <g>
    <path
      d="M2190 4040c0-17 7-20 40-20 41 0 57 21 24 34-34 13-64 7-64-14zm-107-1c-22-7-31-14-27-24 7-18 12-18 52-4 20 7 29 15 25 25-6 16-6 16-50 3zm233-16c-7-18-10-16 32-33 29-11 35-11 43 1 10 17 4 23-38 37-26 9-33 8-37-5zm-354-41c-15-12-21-24-17-34 6-15 10-15 40 5 18 11 31 27 28 34-7 18-24 16-51-5zm192 0c-16-10-25-104-28-279-2-94-8-163-16-182-7-17-14-31-16-31-9 0-121 126-131 148-7 15-12 23-13 17 0-5-5-3-10 5-9 13-10 13-10 0 0-28 154-237 181-245 36-12 48-33 42-72-7-43 17-69 48-52 15 7 19 21 19 59 0 44 3 50 24 56 15 3 29 18 37 37 7 18 26 50 41 72 16 22 36 50 45 63 8 12 12 26 8 30s-12-1-19-12c-6-10-30-38-53-62-30-31-44-40-50-31-4 6-7 80-5 162 2 83-1 169-6 191-7 30-6 48 4 65 17 31 17 39 1 39-18 0-35-57-32-110 1-25-5-74-14-110l-15-65-14 90c-7 50-11 120-8 158 3 37 4 67 3 67s-7-4-13-8zm282-19c-5-11 2-25 20-41 23-22 28-23 40-10 13 13 11 18-19 41-31 23-36 25-41 10zm2805-10c15-2 35-13 45-24 11-12 30-19 56-19 24 0 50-8 68-21 40-30 95-22 149 22 23 18 41 36 41 41 0 4-87 7-192 7-106-1-181-4-167-6zm-3370-59c-12-15-20-32-18-38 7-20 24-16 45 13 18 24 19 31 8 40s-19 6-35-15zm1952-9c-7-8-13-36-13-63 0-40-4-51-21-58-14-7-22-20-24-41-2-27 1-32 24-36 34-7 44 0 38 29-3 20-2 22 9 13 18-15 18-28-1-49-16-18-3-19-188 22-32 7-57 18-55 23 2 6 7 8 13 6 46-17 130-30 138-22 20 20-3 38-62 51-33 7-64 12-68 12-5 0-12 6-16 14-10 18-38 18-31 0 3-8 0-24-6-36-11-20-18-22-59-17-25 3-94 17-152 31-154 37-159 36-159-40 0-19-4-34-9-34s-7 10-4 23c4 19 3 20-7 5-6-10-18-18-25-18-23 0-18-27 6-33 12-3 29-1 39 6 14 8 49 6 149-12 72-12 135-19 141-16 5 3 10 1 10-5 0-7 7-9 16-6 18 7 137-10 169-24 11-5 49-11 85-14 36-2 74-8 84-12 17-7 18-3 11 42-7 48-7 48 12 31 31-27 39-20 38 36 0 48 2 52 25 55 21 3 22 2 11-12-7-8-10-19-7-25 3-5 3-11-1-14-5-2-2-2 5 0 25 6 94-9 80-18-7-5-30-6-50-2-35 5-38 4-38-19 0-21 5-24 47-26 26-1 49-6 52-11 3-4 22-12 41-15 19-4 44-10 55-12 11-3 16-2 10 3-5 4-10 35-10 67 0 60 0 60-34 69-19 5-30 12-24 15 17 12 22 60 6 66-21 8-21 8-26-16l-4-23-2 23c-1 31-21 18-21-15 0-27-8-28-80-8-54 14-55 13-61-50l-7-60 2 63c1 49-2 62-14 62s-12 2-1 9c7 5 32 3 59-5 25-8 48-14 51-14s5 20 3 44c-4 41-7 46-43 60-48 20-90 20-106 1zm-15-153c6-18-15-14-22 4-4 10-1 14 6 12 6-2 14-10 16-16zm254-64c2-35 7-43 28-49 15-4 18-7 8-8-29-2-69 21-63 37 3 7 5 25 5 38 0 41 19 26 22-18zm-1538 198c-3-7 3-27 13-44 14-23 23-28 33-22 13 8 12 14-4 45-20 37-33 44-42 21z" />
    <path
      d="M3980 3851c0-17 30-25 43-12 8 8 8 11 0 11-6 0-18 3-27 6s-16 1-16-5zm-643-18c-4-3-7-14-7-24 0-19 27-29 145-54 56-11 61-11 69 7 13 26 3 32-91 55l-82 20-11-26-10-26 5 28c5 25-4 35-18 20zm-1534-67c-11-36-8-46 12-46 13 0 36 65 27 74-14 15-30 3-39-28zm3573 16c-3-9-6-34-8-54-2-36 0-39 47-63 28-14 59-25 71-25 19 0 20 4 13 53-4 28-8 60-8 70-1 12-9 17-30 17-16 0-41 4-55 10-20 7-26 6-30-8zm-2223-9c-24-16-30-47-12-58 15-10 22 0 22 29 0 14 4 24 10 23 5-1 12 4 14 11 6 16-7 14-34-5zm-313-63v-50h-50c-47 0-50-2-50-25s3-25 49-25h50l3-47c3-40 6-47 26-48 20-2 22 3 22 47v48h50c47 0 50 2 50 25s-3 25-50 25h-50v50c0 47-2 50-25 50s-25-3-25-50zm-266 18c3-13 6-31 6-40 0-12 8-18 21-18 17 0 20 4 15 23-3 12-6 30-6 40 0 11-8 17-21 17-17 0-20-4-15-22zm1732 4c-10-16 7-52 24-52 12 0 20-10 24-31 9-49 6-58-8-20-7 19-19 37-27 39-9 2-10 1-3-5 18-13 26-46 13-54-18-11 4-63 28-67 19-3 20 1 16 45-11 107-45 180-67 145zm274-37v-25h250v50h-250v-25zm-2798-65c1-31 6-40 20-40s18 8 18 40c0 34-3 40-20 40-18 0-20-6-18-40zm1415 33c-13-12-7-43 8-43 9 0 15 9 15 25 0 24-10 32-23 18zm33-17c0-13-3-31-6-40-5-12 1-16 24-16 17 0 32 4 34 10s109-5 283-30c153-21 281-38 282-36 2 2 1 10-2 18-7 17-13 18-212 48-73 11-152 24-176 30-80 18-150 21-159 8-6-10-8-9-8 3 0 9-10 19-22 23-35 9-38 8-38-18z" />
    <path
      d="M4140 3652c0-16 9-20 68-25 97-10 112-9 112 7 0 14-15 18-127 32-48 5-53 4-53-14zm-1553-39c-13-13-7-73 7-73s26 29 26 63c0 17-20 23-33 10zm1308-3c13-6 15-9 5-9-8-1-21-10-28-21-11-18-10-20 15-21 16-1 34-1 42 0 8 2 10-2 5-10-5-9-2-10 10-6 10 4 25 3 34-2s47-11 85-15c59-4 67-3 67 12 0 33-16 41-123 61-114 22-145 25-112 11zm1317-20c-25-11-50-32-60-50-13-24-22-29-37-24-11 3-36 8-55 11-62 8-96-58-42-82 15-6 22-18 22-36 0-61 74-107 154-95 35 6 46 3 60-13 43-48 121-48 171-1l22 20 28-22c60-47 182-33 220 26 10 15 29 26 52 29 44 8 83 42 83 74 0 23-43 73-62 73-6 0-23 14-38 30-35 38-91 41-127 8-22-21-24-21-58-5-20 9-56 17-80 17s-47 5-51 11c-11 19-87 49-124 49-19 0-54-9-78-20zm-632-15v-25h250v50h-250v-25zm-2776-67c8-40 22-56 36-42s-8 74-27 74c-12 0-14-7-9-32zm2102 24c-3-6 19-13 50-17 64-8 86 0 28 10-22 4-46 9-56 11-9 3-19 1-22-4zm174-32c0-5 7-10 15-10s15 5 15 10c0 6-7 10-15 10s-15-4-15-10zm-1536-31c-15-30-13-59 4-59 7 0 42 62 42 74 0 2-7 6-15 10-10 3-20-5-31-25zm-682-51c-15-19 33-77 49-61 9 9 6 19-10 42-26 35-25 35-39 19zm604-57c-22-23-24-30-13-39s20-5 41 17c22 23 24 30 13 39s-20 5-41-17zm-512-43c-8-12 30-48 51-48 25 0 22 25-4 42-31 21-37 22-47 6zm411-25c-38-20-36-18-29-36 5-14 9-14 40 0 32 16 44 36 26 46-4 3-21-2-37-10zm-295-38c0-14 57-36 73-28 18 10 4 31-24 37-44 9-49 8-49-9zm153-2c-40-8-28-33 15-33s53 6 45 26c-5 14-17 15-60 7zm1927-251c-32-13-46-24-48-40l-3-22 52 21c67 26 69 27 69 45s-14 17-70-4zm8-60-127-56-3-213-3-212 25 6c14 3 74 24 135 47 106 40 109 42 117 76 8 39-2 410-11 409-3 0-63-26-133-57zm159 44c-3-8-3-107 0-220l6-206 66-19c114-34 357-101 365-101 7 0 1 212-10 355l-5 71-67 19c-37 10-125 40-196 67-141 52-151 55-159 34zm453-164c0-14 47-33 251-99 187-60 249-77 247-65-2 10-84 43-243 98-132 46-243 84-247 84-5 0-8-8-8-18zm0-74c0-33 1-34 78-59 76-25 78-25 127-9l50 17-115 38c-63 21-121 40-127 43-9 3-13-7-13-30zm-2735-24c-10-15-22-23-31-20-8 3-14 4-14 2 0-3-3-12-7-22-4-12-3-15 5-10 14 9 14 7 1-73-12-78-5-121 21-121 62 0 125 231 71 260-26 14-26 14-46-16z" />
    <path
      d="M2122 2669c0-64-11-100-49-162-27-43-30-41 76-57 40-7 182-39 315-71 132-33 278-64 323-71 75-11 84-10 102 6 44 39 67 178 36 210-18 18-69 33-290 85-93 23-237 59-320 81-202 53-193 54-193-21zm2883-16c-22-7-43-17-47-21s-12-50-18-102c-18-154-20-141 26-155l42-12 11 57c10 50 31 243 27 246 0 1-19-5-41-13zm65 5c0-7-7-68-15-133-23-183-27-168 58-190 39-10 77-20 83-22 14-5 20 40 29 198l7 107-69 22c-37 13-74 25-80 28-7 2-13-2-13-10z" />
    <path
      d="M2890 2585c-11-13-8-15 13-15 14 0 33-7 41-16 15-15 19-26 30-84 3-14 3-1 2 29-3 45-8 59-30 78-32 27-39 28-56 8z" />
    <path
      d="M2984 2563c25-64 13-172-29-254-14-28-25-52-25-54 0-6 131-27 143-22 7 2 26 31 42 63 24 48 30 72 30 124 0 77-19 129-49 134-11 2-43 9-69 14-41 8-47 7-43-5zm-1703-76-104-61 58-11c34-7 64-20 72-30 30-42 0-197-47-240-15-14-29-16-69-10l-50 7-6-49c-3-26-8-58-11-70-2-13 0-23 4-23 20 0 204 93 208 105 5 12 53 439 50 441 0 1-48-26-105-59zm129 46c-1-10-11-110-24-223s-22-206-21-208c2-2 227-41 501-88 275-46 933-158 1464-248s967-162 969-160c3 3-5 25-17 49-14 29-22 65-22 98-1 28-7 63-15 77s-14 46-15 73c0 59 5 57-205 98-88 17-207 42-265 56-58 13-204 44-325 69s-303 65-405 89-270 60-375 80c-240 45-316 62-600 129-281 67-570 126-613 126-24 0-32-5-32-17z" />
    <path
      d="M4086 2461c-184-62-244-91-184-91 15 0 39-15 62-39 34-35 48-41 108-51 100-17 116-37 108-140-3-43-20-77-55-110l-26-25 83-15 83-15 3-58c3-55 4-58 25-51 12 3 23 7 25 9 1 1-1 149-5 328-4 226-10 327-17 326-6-1-101-31-210-68zm249-257c4-181 8-330 9-332 6-5 551-112 561-109 5 2-40 14-100 26-61 12-137 29-170 36-33 8-79 17-103 20-62 10-73 32-70 141l3 89 45-2c25 0 131-22 235-47 105-25 200-48 213-51 42-10 62-41 62-97 0-47-3-54-41-89-47-43-56-37 106-69 61-12 158-33 216-46 141-32 149-32 149 7 0 18-4 28-10 24-11-7-360 63-371 74-10 9-30 364-21 373 7 7 353-75 376-89 5-4 7 4 3 18-4 13-7 46-7 72 0 59-27 91-86 101-28 5-787 215-988 273-18 5-18-5-11-323zm270 110c50-13 139-36 200-50 123-29 154-42 184-80 32-41 27-87-12-131l-34-36-189 43c-104 24-207 46-229 50-23 3-46 10-53 14-13 8-18 207-5 220 4 4 17 5 28 1 11-3 61-17 110-31z" />
    <path
      d="M4491 2288c0-18 4-53 8-78l7-45 17 32c29 55 18 123-20 123-8 0-13-12-12-32zm69-30c0-26-8-57-21-77-11-18-19-35-17-36 2-2 285-65 415-92 51-11 69 110 20 141-20 13-358 106-385 106-7 0-12-17-12-42zm-1389 185c-6-21-19-74-29-118l-19-80 61-13c33-8 151-36 262-63 215-53 266-58 303-33 43 30 65 119 41 165-16 28-63 49-159 69-47 9-156 35-241 57s-167 43-182 47c-25 6-28 3-37-31zm1649-22c0-5 11-11 25-13 28-6 34 6 9 16-22 8-34 7-34-3zm-3691-32c-9-17-8-20 1-14 14 9 12-5-10-85-15-54-7-122 14-114 8 3 22 20 31 37 15 30 16 30 11 5-3-14-8-33-12-41-4-10 4-16 28-20 43-7 74 25 84 88 3 25 10 48 15 51 16 10 9 54-11 74-11 11-31 20-45 20-23 0-25-4-26-47-1-82-18-97-18-17-1 39-4 74-8 77-3 4-15-1-26-10-19-17-20-17-14 0 9 24 0 21-14-4zm2602-8c-16-10-7-16 37-26 20-4 38-16 47-33 17-32 19-26 5 15-6 17-22 35-36 42-30 13-35 13-53 2z" />
    <path
      d="M3846 2338c17-66 9-153-20-203-14-26-26-51-26-55 0-14 101-32 114-21 23 19 55 96 61 146 10 79-34 143-109 160-28 6-29 6-20-27zm2497 4c15-6 19-23 22-92 3-47 14-152 26-233 11-82 19-151 16-153-4-5-29 118-73 363l-16 92-32-5c-60-11-127-36-133-50-7-20 7-217 17-233 6-11 22-10 79 5 50 13 74 15 81 8 17-17 40-168 43-274l2-95-76-9-76-8 39-122c22-66 41-122 41-122 6-4 163 19 169 25 3 3-4 62-18 131-35 181-29 194 17 40 51-170 51-170 56-147 3 10-16 93-41 185-61 225-122 671-91 672 5 1-1 7-15 15s-32 14-40 14c-11 0-10-2 3-7zm-3438-52c-22-23-25-30-12-30 9 0 23 14 32 30 9 17 14 30 12 30s-16-13-32-30zm1101-32c-17-53-47-190-44-194 3-2 29-9 59-15 95-19 129 10 129 110 0 52-22 84-67 102-34 13-73 11-77-3z" />
    <path
      d="M3787 2128c-16-22-34-38-41-35s-19 1-27-4c-10-6-5-9 18-9 27 0 37 7 59 40 35 53 27 59-9 8zm1317-28c3-18 6-93 6-166v-134l28-5c15-3 71-17 124-30 53-14 111-25 128-25h31l-5 48c-3 26-8 95-12 154l-6 108-41 11c-54 14-216 58-241 66-17 5-18 1-12-27zm-3850-68c-110-54-110-52 24-68 52-6 62-4 62 9 0 9 14 26 31 38l31 22 137-16c75-9 368-57 651-106s585-98 670-111c85-12 253-39 372-61 120-21 278-48 350-60 73-11 201-33 283-49 226-43 319-55 341-42 16 10 12 11-26 12-57 0-184 20-435 70-110 21-240 44-290 50-128 16-416 64-660 110-115 21-358 64-540 95-473 79-773 132-825 144-66 16-68 15-176-37zm3246-56c0-42 4-76 9-76s17 21 27 46c19 51 11 96-19 102-15 3-17-6-17-72zm68 19c3-32-2-54-17-78-12-19-21-37-21-40s44-13 98-22c53-9 143-28 198-41 137-33 174-18 174 70 0 43-32 71-93 81-23 4-105 22-181 41-77 19-145 34-151 34s-9-18-7-45zm885-71c3-53 8-98 11-101 3-4 687-50 782-53 12 0-19 128-33 140-7 6-718 110-752 110-11 0-13-18-8-96zm835 79c-23-25-24-119-3-189 14-47 58-114 68-104 4 4-28 212-45 299-2 10-8 8-20-6zm-84-4c-18-5-36-19-42-34-11-25-11-25 33-25 40 0 47 3 55 26 18 47 14 50-46 33z" />
    <path
      d="M1410 1993c0-5-7-51-15-103s-13-95-12-96 27-5 58-9l56-7 12 89c18 140 20 133-44 133-30 0-55-3-55-7zm145-15c-2-7-9-60-15-118s-13-121-16-141l-5-35 107-13c59-7 120-15 134-18l26-5 12 134c7 73 12 140 12 149 0 17-55 32-155 44-27 3-60 8-73 11s-24-1-27-8zm-199-70c-4-40-10-83-13-95-3-13-1-23 5-23s13 24 17 53c3 28 9 71 12 95 3 25 1 42-5 42-5 0-13-33-16-72zm481 25c-2-5-7-52-11-105-7-96-7-97 16-102 33-8 2362-336 2381-336 35 0 11 90-40 151-8 10-37 20-71 24-31 3-124 19-207 35-82 16-205 36-272 44-66 8-226 33-355 55-128 21-262 42-298 46s-90 13-120 20-82 16-115 20c-33 3-86 13-117 21-32 8-108 21-170 29-61 8-169 26-240 40-70 14-145 25-166 25-20 0-66 7-102 15s-75 17-87 20-24 2-26-2zm2463-152c0-32 4-40 23-44 38-10 1053-197 1065-197 18 0 15 45-4 61-9 7-57 20-107 30-51 9-135 26-187 39-52 12-115 24-140 26s-180 31-345 64c-164 33-300 60-302 60s-3-18-3-39zm-2832-48c-10-2-18-10-18-16 0-7-3-23-7-35-6-24-6-24 26-8 22 12 31 24 31 41 0 25-2 26-32 18zm4765 0c-39-5-42-17-10-38 17-11 37-13 71-9l47 7-22 23c-13 13-30 23-38 22-9 0-31-3-48-5zm-1903-26c0-18 65-174 77-183 7-7 57-17 111-24 53-6 142-21 197-31 305-58 615-109 670-109 21 0 23 5 30 71 4 38 4 73 1 76-6 6-259 53-796 149-140 25-263 47-272 50-10 3-18 3-18 1zm-2836-48c-5-8 185-33 212-27 11 2-32 10-94 19-62 8-115 12-118 8zm2828-16c1-42-14-59-60-68-52-10-53-12-36-48l16-33 66 10c37 5 68 10 70 11 1 1-11 38-27 81-22 61-29 72-29 47zm103-165c8-19 551-103 601-93 32 7-16 16-271 56-354 55-336 53-330 37z" />
    <path
      d="M4293 1473c-20-4-23-11-23-54v-49h-70c-68 0-70-1-70-25 0-29 0-29 115-12l80 12 3 68c2 37-1 66-5 66-4-1-18-4-30-6zm63-55c8-75 9-78 35-78 19 0 20 4 13 63-8 74-9 77-35 77-19 0-20-4-13-62zm74-17c0-34 4-41 23-46 31-7 469-65 490-65 18 0 24 35 9 56-4 6-115 28-247 48-132 21-248 40-257 42-15 5-18-1-18-35zm700-34c0-11 20-17 81-22 44-4 82-5 85-2 3 2-26 10-63 17-37 6-76 14-85 17-11 3-18-1-18-10z" />
    <path
      d="M4997 1363c-15-4-18-13-15-46l3-42-72-3c-65-3-73-5-73-23 0-29 15-31 115-16l90 12 3 63c3 66 1 68-51 55zm75-53c5-51 19-77 35-67 5 3 6 29 3 59-4 41-9 54-24 56-17 4-18-1-14-48zm108-24v-45l48-6c26-3 62-8 80-11l33-5-3 48-3 48h-65c-36 0-71 4-77 8-10 6-13-3-13-37zm-40-6c0-22 5-40 10-40 6 0 10 18 10 40s-4 40-10 40c-5 0-10-18-10-40z" />
  </g>
</svg>