<svg xmlns="http://www.w3.org/2000/svg" id="root" viewBox="0 0 100 57">
  <g>
    <path
      d="M 74.425781 56.726562 C 74.230469 56.566406 73.644531 56.304688 73.136719 56.121094 C 72.617188 55.953125 72.082031 55.757812 71.9375 55.691406 C 71.796875 55.625 71 55.429688 70.183594 55.246094 C 69.363281 55.0625 68.191406 54.761719 67.578125 54.578125 C 66.964844 54.382812 66.25 54.171875 65.988281 54.09375 C 64.675781 53.726562 66.121094 53.636719 67.773438 53.976562 C 68.136719 54.054688 68.542969 54.144531 68.699219 54.160156 C 68.839844 54.183594 69.035156 54.25 69.113281 54.304688 C 69.363281 54.460938 71.183594 54.90625 73.164062 55.296875 C 74.203125 55.507812 75.296875 55.796875 75.585938 55.925781 C 75.871094 56.070312 76.5625 56.28125 77.121094 56.398438 C 77.679688 56.515625 78.292969 56.6875 78.488281 56.789062 C 78.8125 56.972656 78.671875 56.988281 76.808594 57 C 74.933594 57 74.75 56.972656 74.425781 56.726562 Z M 76.820312 54.695312 C 76.71875 54.683594 76.351562 54.617188 76.015625 54.578125 C 75.664062 54.539062 75.390625 54.445312 75.390625 54.367188 C 75.390625 54.238281 76.5625 54.210938 77.578125 54.328125 C 78.125 54.40625 78.226562 54.445312 78.109375 54.589844 C 77.980469 54.761719 77.328125 54.8125 76.820312 54.695312 Z M 68.878906 53.742188 C 68.777344 53.660156 68.464844 53.597656 68.191406 53.597656 C 67.667969 53.597656 66.796875 53.296875 66.796875 53.113281 C 66.796875 52.914062 70.066406 52.667969 70.609375 52.824219 C 71.183594 52.980469 71.195312 53.058594 70.765625 53.464844 C 70.402344 53.804688 69.230469 53.976562 68.878906 53.742188 Z M 20.015625 52.628906 C 19.898438 52.339844 20.210938 52.222656 21.746094 51.960938 C 22.421875 51.84375 23.308594 51.621094 23.699219 51.476562 C 24.296875 51.238281 24.804688 51.1875 26.734375 51.136719 C 28.242188 51.109375 29.039062 51.136719 29.039062 51.214844 C 29.039062 51.449219 28.230469 51.605469 26.628906 51.671875 C 25.429688 51.722656 24.820312 51.816406 24.089844 52.066406 C 23.554688 52.234375 22.59375 52.445312 21.941406 52.535156 C 21.304688 52.613281 20.613281 52.71875 20.429688 52.757812 C 20.183594 52.8125 20.066406 52.773438 20.015625 52.628906 Z M 50.363281 51.542969 C 50.285156 51.253906 50.457031 50.847656 50.652344 50.847656 C 50.832031 50.847656 50.808594 51.277344 50.613281 51.566406 C 50.441406 51.789062 50.429688 51.789062 50.363281 51.542969 Z M 50.363281 51.542969 "
    />
    <path
      d="M 53.515625 51.515625 C 52.160156 51.410156 51.367188 51.097656 51.550781 50.730469 C 51.652344 50.546875 51.902344 50.46875 52.695312 50.402344 C 53.253906 50.363281 53.945312 50.375 54.230469 50.453125 C 54.519531 50.519531 54.832031 50.585938 54.921875 50.585938 C 55.207031 50.585938 55.078125 50.257812 54.699219 50.023438 C 54.386719 49.839844 54.335938 49.722656 54.335938 49.277344 C 54.335938 48.714844 53.75 47.757812 53.488281 47.914062 C 53.359375 47.992188 53.410156 48.699219 53.582031 49.261719 C 53.671875 49.539062 53.660156 49.550781 53.4375 49.433594 C 53.308594 49.367188 52.902344 49.261719 52.566406 49.210938 C 52.058594 49.132812 51.886719 49.160156 51.691406 49.339844 C 51.550781 49.472656 51.40625 49.550781 51.367188 49.511719 C 51.238281 49.394531 51.535156 48.792969 51.757812 48.699219 C 52.03125 48.59375 51.886719 48.359375 51.5625 48.359375 C 51.417969 48.359375 51.25 48.242188 51.171875 48.097656 C 50.949219 47.691406 50.664062 47.785156 50.429688 48.320312 C 50.273438 48.714844 50.261719 48.898438 50.378906 49.222656 C 50.597656 49.839844 50.558594 49.839844 49.933594 49.210938 L 49.363281 48.621094 L 48.398438 48.621094 C 47.578125 48.621094 47.355469 48.675781 46.925781 48.960938 C 46.652344 49.144531 46.316406 49.421875 46.199219 49.5625 C 46.003906 49.773438 45.964844 49.785156 45.964844 49.617188 C 45.964844 49.511719 46.144531 49.289062 46.355469 49.121094 C 46.601562 48.949219 46.746094 48.714844 46.746094 48.515625 C 46.746094 48.242188 46.707031 48.214844 46.328125 48.292969 C 46.09375 48.347656 45.847656 48.4375 45.78125 48.503906 C 45.585938 48.6875 45.183594 48.636719 45.183594 48.4375 C 45.183594 48.332031 45.246094 48.203125 45.324219 48.152344 C 45.625 47.96875 45.105469 47.835938 44.101562 47.835938 C 42.617188 47.835938 42.1875 47.507812 42.917969 46.933594 C 43.320312 46.605469 43.996094 46.578125 45.050781 46.839844 C 46.015625 47.078125 46.25 47.195312 46.484375 47.484375 C 46.667969 47.707031 46.707031 47.707031 47.175781 47.507812 C 47.550781 47.351562 47.890625 47.324219 48.554688 47.390625 C 49.296875 47.457031 49.492188 47.429688 49.933594 47.183594 C 50.820312 46.699219 51.171875 46.277344 51.171875 45.742188 C 51.171875 45.21875 50.753906 44.761719 48.894531 43.203125 C 48.398438 42.78125 47.761719 42.195312 47.5 41.90625 C 47.058594 41.410156 47.019531 41.277344 47.003906 40.636719 C 47.003906 40.230469 46.941406 39.835938 46.863281 39.757812 C 46.757812 39.65625 46.757812 39.589844 46.863281 39.535156 C 47.082031 39.394531 47.03125 38.371094 46.785156 37.875 C 46.445312 37.152344 45.820312 36.511719 45.535156 36.550781 C 45.390625 36.578125 45.15625 36.539062 45 36.472656 C 44.84375 36.394531 44.542969 36.265625 44.324219 36.171875 C 43.984375 36.027344 43.894531 35.910156 43.839844 35.519531 C 43.777344 35.035156 43.253906 33.828125 43.113281 33.828125 C 43.058594 33.828125 42.722656 34.039062 42.34375 34.289062 C 41.523438 34.851562 41.445312 35.230469 42.097656 35.648438 C 42.316406 35.792969 42.902344 36.238281 43.371094 36.617188 C 43.855469 36.996094 44.480469 37.429688 44.765625 37.558594 C 45.066406 37.703125 45.324219 37.925781 45.363281 38.058594 C 45.390625 38.175781 45.546875 38.28125 45.703125 38.28125 C 46.09375 38.28125 46.300781 38.894531 46.417969 40.347656 C 46.523438 41.734375 46.707031 41.617188 44.792969 41.421875 C 43.085938 41.238281 42.707031 41.082031 42.707031 40.570312 C 42.695312 39.523438 42.332031 38.542969 41.550781 37.519531 C 41.132812 36.972656 40.480469 36.222656 40.117188 35.859375 C 39.753906 35.503906 39.453125 35.152344 39.453125 35.074219 C 39.453125 34.992188 39.648438 34.851562 39.882812 34.773438 C 40.285156 34.613281 41.144531 33.683594 41.144531 33.398438 C 41.144531 33.320312 40.792969 32.914062 40.351562 32.507812 L 39.558594 31.773438 L 40.519531 31.695312 C 41.652344 31.617188 41.847656 31.707031 42.773438 32.78125 C 43.125 33.199219 43.503906 33.5 43.582031 33.476562 C 43.710938 33.421875 43.710938 33.34375 43.59375 33.136719 C 43.410156 32.769531 42.214844 31.5625 41.863281 31.382812 C 41.472656 31.171875 38.671875 31.328125 38.582031 31.550781 C 38.542969 31.65625 38.320312 31.734375 38.085938 31.734375 C 37.644531 31.734375 36.027344 32.390625 35.886719 32.625 C 35.847656 32.691406 35.753906 33.136719 35.691406 33.605469 C 35.585938 34.367188 35.613281 34.574219 35.925781 35.609375 L 36.289062 36.773438 L 36.027344 37.363281 C 35.898438 37.691406 35.675781 38.058594 35.558594 38.1875 C 35.351562 38.398438 35.300781 38.398438 34.871094 38.226562 C 34.621094 38.121094 33.984375 37.703125 33.464844 37.296875 C 32.929688 36.90625 32.449219 36.578125 32.394531 36.578125 C 32.070312 36.578125 33.152344 38.699219 33.984375 39.679688 C 34.636719 40.464844 34.6875 40.492188 35.535156 40.636719 C 36.144531 40.742188 36.511719 40.742188 36.769531 40.648438 C 37.226562 40.464844 37.890625 40.464844 38.605469 40.648438 C 39.050781 40.765625 39.257812 40.910156 39.503906 41.304688 C 39.6875 41.578125 39.792969 41.828125 39.726562 41.867188 C 39.660156 41.90625 39.519531 41.800781 39.402344 41.617188 C 39.285156 41.433594 39.101562 41.289062 38.984375 41.289062 C 38.683594 41.289062 38.621094 41.65625 38.867188 42.023438 C 38.984375 42.207031 39.0625 42.378906 39.035156 42.402344 C 39.011719 42.417969 38.632812 42.378906 38.191406 42.296875 C 37.5 42.179688 37.371094 42.117188 37.355469 41.894531 C 37.34375 41.671875 37.332031 41.65625 37.277344 41.855469 C 37.214844 42.101562 37.097656 42.140625 36.902344 41.945312 C 36.796875 41.839844 36.707031 41.867188 36.589844 42.011719 C 36.40625 42.234375 36.417969 42.285156 36.785156 43.164062 C 36.875 43.371094 36.847656 43.371094 36.316406 43.148438 C 36.003906 43.003906 35.46875 42.863281 35.128906 42.808594 C 34.636719 42.730469 34.503906 42.757812 34.402344 42.953125 C 34.285156 43.136719 34.230469 43.148438 34.0625 43.003906 C 33.816406 42.796875 33.464844 42.902344 33.464844 43.1875 C 33.464844 43.308594 33.554688 43.542969 33.671875 43.726562 C 33.945312 44.144531 33.855469 44.222656 33.398438 43.988281 C 33.152344 43.855469 32.578125 43.792969 31.535156 43.792969 C 29.882812 43.777344 29.832031 43.75 29.585938 42.863281 C 29.285156 41.800781 29.179688 41.054688 29.296875 40.558594 C 29.933594 37.613281 29.832031 36.851562 28.4375 33.90625 C 28.21875 33.449219 28.164062 33.214844 28.257812 33.121094 C 28.335938 33.042969 28.84375 32.835938 29.402344 32.652344 L 30.402344 32.324219 L 30.441406 30.476562 L 30.480469 28.632812 L 30.027344 28.238281 L 29.585938 27.832031 L 28.101562 27.859375 C 27.292969 27.886719 26.304688 27.832031 25.914062 27.753906 C 25.429688 27.664062 23.765625 27.636719 20.835938 27.6875 C 16.511719 27.769531 16.460938 27.769531 15.757812 28.09375 L 15.039062 28.433594 L 7.527344 28.515625 L 0 28.59375 L 0 27.023438 C 0 25.582031 0.015625 25.464844 0.261719 25.386719 C 0.5625 25.292969 0.574219 25.28125 1.71875 24.167969 C 2.515625 23.394531 2.617188 23.328125 3.53125 23.132812 C 4.089844 23.015625 4.78125 22.964844 5.183594 23.003906 C 6.1875 23.109375 6.914062 22.820312 7.515625 22.074219 C 7.789062 21.746094 8.347656 21.078125 8.765625 20.582031 L 9.519531 19.691406 L 10.585938 20.265625 C 11.433594 20.710938 11.746094 20.960938 12.085938 21.472656 C 12.332031 21.824219 12.578125 22.140625 12.644531 22.152344 C 12.710938 22.179688 13.28125 21.957031 13.90625 21.640625 C 14.988281 21.117188 15.078125 21.089844 16.015625 21.144531 C 17.214844 21.210938 20.976562 21.210938 22.65625 21.15625 C 23.765625 21.117188 24 21.050781 24.84375 20.644531 C 25.914062 20.121094 26.511719 20.109375 27.488281 20.621094 C 28.113281 20.933594 28.320312 20.894531 28.4375 20.382812 C 28.542969 19.992188 29.390625 18.617188 30.234375 17.503906 C 30.613281 17.007812 31.027344 16.652344 31.757812 16.261719 C 32.304688 15.945312 32.929688 15.59375 33.136719 15.476562 C 33.90625 15.03125 34.855469 14.613281 36.523438 13.996094 C 37.460938 13.65625 38.660156 13.210938 39.191406 13.015625 C 39.726562 12.816406 40.429688 12.515625 40.753906 12.359375 C 41.316406 12.070312 42.070312 11.863281 44.609375 11.3125 C 45.730469 11.0625 46.445312 10.945312 48.503906 10.65625 C 49.011719 10.59375 50.183594 10.410156 51.105469 10.277344 C 52.042969 10.132812 53.644531 9.898438 54.6875 9.742188 C 55.730469 9.585938 56.925781 9.402344 57.355469 9.335938 C 57.785156 9.257812 58.371094 9.164062 58.660156 9.125 C 58.957031 9.085938 59.503906 8.902344 59.894531 8.707031 C 60.585938 8.378906 60.613281 8.339844 60.652344 7.816406 C 60.691406 7.359375 60.636719 7.203125 60.378906 6.964844 C 59.988281 6.601562 58.722656 5.945312 58.152344 5.8125 C 57.929688 5.761719 56.953125 5.460938 55.988281 5.160156 C 54.558594 4.714844 52.136719 4.257812 51.210938 4.242188 C 51.132812 4.242188 50.832031 4.570312 50.546875 4.976562 C 50.039062 5.695312 49.910156 5.789062 47.527344 7.148438 C 47.277344 7.292969 46.992188 7.476562 46.902344 7.542969 C 46.613281 7.789062 46.5625 7.527344 46.835938 7.214844 C 47.277344 6.730469 48.828125 4.519531 48.828125 4.375 C 48.828125 4.203125 48.816406 4.203125 48.359375 4.425781 C 48.074219 4.570312 47.160156 4.621094 44.570312 4.664062 C 42.683594 4.6875 41.222656 4.675781 41.316406 4.621094 C 41.394531 4.570312 42.8125 4.191406 44.453125 3.785156 L 47.433594 3.039062 L 48.058594 3.328125 C 48.699219 3.640625 49.089844 3.613281 49.089844 3.261719 C 49.089844 3.15625 48.644531 2.382812 48.085938 1.558594 C 47.539062 0.734375 47.121094 0.0273438 47.148438 0 C 47.175781 -0.0234375 47.667969 0.238281 48.230469 0.589844 C 49.113281 1.140625 49.375 1.390625 50.066406 2.382812 C 50.519531 3.011719 50.964844 3.601562 51.054688 3.667969 C 51.160156 3.746094 52.03125 3.917969 52.996094 4.046875 C 55.636719 4.386719 61.171875 5.828125 62.5 6.507812 C 62.980469 6.757812 63.113281 6.914062 63.242188 7.386719 C 63.386719 7.855469 63.371094 8 63.203125 8.289062 C 62.863281 8.851562 61.925781 9.308594 59.894531 9.871094 C 59.648438 9.9375 59.035156 10.109375 58.527344 10.253906 C 57.605469 10.5 56.457031 10.710938 55.011719 10.855469 C 54.582031 10.894531 53.761719 10.984375 53.191406 11.0625 C 52.617188 11.128906 51.652344 11.246094 51.042969 11.3125 C 50 11.429688 47.917969 11.796875 46.613281 12.097656 C 46.289062 12.164062 45.714844 12.28125 45.339844 12.359375 C 44.949219 12.425781 44.503906 12.515625 44.363281 12.570312 C 43.945312 12.6875 40.664062 13.929688 39.988281 14.21875 L 39.414062 14.46875 L 38.996094 14.0625 C 38.566406 13.644531 38.28125 13.550781 38.28125 13.839844 C 38.28125 14.035156 38.761719 14.519531 39.0625 14.613281 C 39.207031 14.664062 39.128906 14.753906 38.828125 14.925781 C 34.699219 17.28125 33.996094 17.78125 33.699219 18.617188 C 33.4375 19.363281 33.410156 20.003906 33.632812 20.175781 C 33.710938 20.242188 34.402344 20.304688 35.144531 20.320312 C 36.367188 20.34375 36.550781 20.320312 36.941406 20.058594 C 37.460938 19.691406 37.578125 19.414062 37.304688 19.21875 C 37.121094 19.074219 37.175781 19.023438 37.695312 18.789062 C 38.035156 18.628906 38.386719 18.511719 38.488281 18.511719 C 38.699219 18.511719 38.867188 18.265625 38.867188 17.9375 C 38.867188 17.738281 39.074219 17.621094 39.871094 17.375 C 40.703125 17.125 40.898438 17.007812 40.964844 16.746094 C 41.003906 16.574219 41.160156 16.328125 41.300781 16.195312 C 41.445312 16.066406 41.613281 15.828125 41.679688 15.671875 C 41.769531 15.4375 41.886719 15.371094 42.253906 15.371094 C 43.164062 15.371094 43.90625 15.070312 44.570312 14.414062 C 45.050781 13.945312 45.351562 13.761719 45.792969 13.683594 C 46.105469 13.617188 46.457031 13.484375 46.589844 13.378906 C 46.707031 13.277344 47.121094 13.066406 47.5 12.9375 C 47.890625 12.804688 48.253906 12.59375 48.320312 12.464844 C 48.398438 12.320312 48.605469 12.242188 48.996094 12.230469 C 49.296875 12.230469 49.636719 12.214844 49.753906 12.214844 C 49.855469 12.214844 50.429688 12.503906 51.027344 12.871094 C 52.109375 13.539062 53.085938 13.890625 53.449219 13.761719 C 53.582031 13.695312 53.621094 13.5625 53.566406 13.277344 C 53.449219 12.699219 53.699219 12.777344 54.167969 13.472656 C 54.933594 14.597656 55.574219 14.964844 55.402344 14.191406 C 55.339844 13.90625 55.363281 13.800781 55.507812 13.800781 C 55.792969 13.800781 57.761719 15.621094 58.476562 16.5625 C 58.777344 16.953125 58.839844 16.980469 59.035156 16.824219 C 59.152344 16.71875 59.285156 16.679688 59.324219 16.71875 C 59.363281 16.757812 59.503906 17.414062 59.636719 18.171875 C 59.910156 19.757812 59.972656 19.898438 60.234375 19.675781 C 60.339844 19.597656 60.441406 19.546875 60.46875 19.574219 C 60.613281 19.757812 61.199219 21.011719 61.328125 21.433594 C 61.40625 21.695312 61.535156 21.917969 61.601562 21.917969 C 61.667969 21.917969 61.835938 22.152344 61.980469 22.441406 C 62.121094 22.726562 62.34375 22.964844 62.460938 22.964844 C 62.65625 22.964844 62.65625 22.988281 62.449219 23.210938 C 62.332031 23.34375 62.265625 23.539062 62.316406 23.671875 C 62.421875 23.945312 62.722656 23.855469 63.683594 23.265625 C 64.414062 22.820312 64.425781 22.820312 65.246094 22.964844 C 65.832031 23.066406 67.058594 23.09375 69.335938 23.027344 C 71.339844 22.976562 72.796875 22.988281 73.148438 23.066406 C 73.617188 23.171875 73.75 23.160156 74.007812 22.949219 C 74.53125 22.53125 75 22.519531 75.871094 22.871094 C 76.601562 23.171875 78.929688 24.664062 79.101562 24.941406 C 79.242188 25.164062 79.515625 25.042969 81.46875 23.878906 C 83.671875 22.558594 83.566406 22.582031 86.066406 22.832031 C 86.742188 22.898438 87.238281 22.886719 87.328125 22.804688 C 87.40625 22.742188 87.511719 22.464844 87.5625 22.203125 C 87.65625 21.667969 87.679688 21.65625 89.320312 21.25 C 89.882812 21.105469 90.195312 20.90625 90.832031 20.320312 C 91.273438 19.898438 91.71875 19.558594 91.808594 19.558594 C 91.914062 19.558594 92.226562 19.742188 92.5 19.953125 C 93.148438 20.449219 93.304688 20.4375 93.929688 19.9375 L 94.425781 19.519531 L 95.351562 19.675781 C 95.871094 19.769531 96.585938 19.898438 96.964844 19.964844 L 97.640625 20.097656 L 97.734375 20.828125 L 97.824219 21.550781 L 98.878906 21.511719 L 99.933594 21.457031 L 99.972656 25.710938 L 100 29.980469 L 99.0625 29.886719 C 98.539062 29.835938 97.054688 29.785156 95.765625 29.785156 C 94.269531 29.769531 93.019531 29.691406 92.316406 29.574219 C 91.703125 29.457031 90.742188 29.285156 90.167969 29.183594 C 88.773438 28.933594 72.042969 28.878906 71.390625 29.117188 C 71.066406 29.234375 70.859375 29.234375 70.546875 29.117188 C 69.804688 28.855469 67.773438 28.800781 64.832031 28.984375 C 62.941406 29.089844 61.941406 29.207031 61.847656 29.3125 C 61.757812 29.417969 61.785156 29.664062 61.914062 30.097656 C 62.082031 30.675781 62.070312 30.765625 61.835938 31.25 C 61.535156 31.90625 61.535156 31.96875 61.808594 32.285156 C 61.992188 32.492188 62.003906 32.558594 61.863281 32.652344 C 61.757812 32.714844 61.707031 32.875 61.757812 33.042969 C 61.796875 33.226562 61.746094 33.410156 61.574219 33.582031 C 61.445312 33.710938 61.328125 33.90625 61.328125 34.011719 C 61.328125 34.289062 61.589844 34.40625 61.757812 34.234375 C 62.292969 33.699219 61.835938 34.757812 61.082031 35.832031 C 60.585938 36.511719 60.46875 36.566406 60.351562 36.199219 C 60.273438 35.921875 59.949219 35.753906 59.753906 35.871094 C 59.6875 35.910156 59.441406 36.265625 59.230469 36.65625 C 59.011719 37.050781 58.789062 37.390625 58.722656 37.429688 C 58.671875 37.457031 58.582031 37.191406 58.542969 36.828125 C 58.410156 35.871094 57.65625 35.214844 57.199219 35.675781 C 57.097656 35.78125 57.03125 35.636719 56.964844 35.136719 C 56.902344 34.652344 56.785156 34.378906 56.550781 34.167969 C 56.367188 34.023438 56.054688 33.554688 55.847656 33.148438 C 55.636719 32.730469 55.378906 32.390625 55.273438 32.390625 C 55.167969 32.390625 54.765625 32.246094 54.375 32.0625 C 53.984375 31.878906 53.4375 31.734375 53.152344 31.734375 L 52.644531 31.734375 L 52.472656 32.558594 C 52.382812 33.003906 52.199219 33.804688 52.070312 34.3125 C 51.652344 35.921875 51.730469 36.972656 52.410156 38.960938 C 52.722656 39.902344 53.046875 40.742188 53.125 40.832031 C 53.359375 41.121094 54.464844 41.527344 55.273438 41.617188 C 55.703125 41.671875 56.25 41.828125 56.484375 41.957031 C 56.71875 42.089844 57.136719 42.207031 57.410156 42.207031 C 57.957031 42.207031 59.609375 42.546875 59.882812 42.71875 C 60.011719 42.808594 60.027344 42.886719 59.910156 43.109375 C 59.765625 43.359375 59.648438 43.386719 58.582031 43.386719 C 57.539062 43.386719 57.410156 43.410156 57.433594 43.621094 C 57.5 44.316406 57.316406 44.339844 56.628906 43.710938 C 56.355469 43.464844 55.976562 43.226562 55.792969 43.175781 C 55.441406 43.085938 55.078125 43.292969 55.078125 43.59375 C 55.078125 43.84375 54.972656 43.832031 54.558594 43.464844 C 54.230469 43.1875 52.941406 42.875 52.773438 43.03125 C 52.695312 43.109375 53.957031 44.761719 54.753906 45.609375 C 55.117188 46.003906 55.636719 46.738281 55.910156 47.222656 C 56.355469 48.019531 56.394531 48.175781 56.328125 48.726562 C 56.183594 49.683594 56.003906 50.0625 55.652344 50.0625 C 55.234375 50.0625 55.117188 50.324219 55.441406 50.574219 C 55.675781 50.742188 55.703125 50.847656 55.625 51.175781 C 55.496094 51.621094 55.390625 51.644531 53.515625 51.515625 Z M 52.734375 42.050781 C 52.734375 41.957031 52.667969 41.789062 52.605469 41.683594 C 52.5 41.527344 52.472656 41.566406 52.472656 41.855469 C 52.472656 42.050781 52.539062 42.207031 52.605469 42.207031 C 52.683594 42.207031 52.734375 42.128906 52.734375 42.050781 Z M 52.292969 40.804688 C 52.097656 39.746094 51.652344 38.855469 50.832031 37.886719 C 50.636719 37.652344 50.519531 37.21875 50.390625 36.316406 C 50.300781 35.636719 50.183594 34.8125 50.128906 34.484375 C 49.792969 32.480469 49.777344 32.664062 50.324219 32.167969 C 50.597656 31.929688 50.78125 31.683594 50.730469 31.644531 C 50.558594 31.472656 49.988281 31.917969 49.699219 32.414062 C 49.453125 32.875 49.441406 32.964844 49.597656 33.789062 C 49.675781 34.289062 49.816406 35.058594 49.882812 35.53125 C 50.128906 37.035156 50.429688 37.992188 50.820312 38.425781 C 51.144531 38.804688 51.472656 39.445312 52.097656 40.871094 C 52.332031 41.421875 52.394531 41.410156 52.292969 40.804688 Z M 60.769531 34.328125 C 61.160156 33.894531 61.328125 33.5 61.328125 33.054688 C 61.328125 32.742188 61.277344 32.652344 61.066406 32.652344 C 60.714844 32.652344 59.84375 34 59.960938 34.351562 C 60.066406 34.707031 60.441406 34.679688 60.769531 34.328125 Z M 57.941406 34.300781 C 57.941406 34.039062 57.003906 32.78125 56.808594 32.78125 C 56.574219 32.78125 56.472656 33.292969 56.652344 33.539062 C 57.304688 34.40625 57.941406 34.773438 57.941406 34.300781 Z M 59.324219 34.289062 C 59.441406 33.984375 59.074219 32.992188 58.839844 32.9375 C 58.542969 32.886719 58.464844 33.175781 58.621094 33.867188 C 58.710938 34.351562 58.800781 34.484375 58.996094 34.484375 C 59.140625 34.484375 59.285156 34.390625 59.324219 34.289062 Z M 32.488281 33.960938 C 32.617188 33.738281 32.175781 33.214844 31.574219 32.898438 C 31.25 32.730469 30.988281 32.546875 30.988281 32.492188 C 30.988281 32.429688 30.898438 32.390625 30.792969 32.390625 C 30.46875 32.390625 30.574219 32.742188 30.976562 33.03125 C 31.183594 33.1875 31.417969 33.304688 31.496094 33.304688 C 31.574219 33.304688 31.757812 33.488281 31.925781 33.699219 C 32.226562 34.117188 32.355469 34.167969 32.488281 33.960938 Z M 59.246094 32.0625 C 59.246094 31.957031 59.152344 31.867188 59.050781 31.867188 C 58.945312 31.867188 58.855469 31.957031 58.855469 32.0625 C 58.855469 32.167969 58.945312 32.257812 59.050781 32.257812 C 59.152344 32.257812 59.246094 32.167969 59.246094 32.0625 Z M 60.285156 31.800781 C 60.285156 31.695312 60.167969 31.601562 60.027344 31.601562 C 59.765625 31.601562 59.6875 31.746094 59.855469 31.90625 C 60.011719 32.074219 60.285156 31.996094 60.285156 31.800781 Z M 51.886719 31.472656 C 51.925781 31.40625 51.847656 31.339844 51.707031 31.339844 C 51.550781 31.339844 51.433594 31.40625 51.433594 31.472656 C 51.433594 31.550781 51.511719 31.601562 51.613281 31.601562 C 51.71875 31.601562 51.847656 31.550781 51.886719 31.472656 Z M 36.210938 30.871094 C 36.199219 30.59375 36.121094 30.253906 36.054688 30.136719 C 35.976562 30.007812 35.988281 29.886719 36.066406 29.835938 C 36.289062 29.707031 36.210938 29.507812 35.949219 29.507812 C 35.574219 29.507812 35.507812 29.929688 35.742188 30.753906 C 35.988281 31.589844 36.289062 31.667969 36.210938 30.871094 Z M 60.027344 31.171875 C 60.027344 30.910156 59.375 30.019531 59.230469 30.097656 C 59.0625 30.214844 59.089844 30.359375 59.386719 30.871094 C 59.660156 31.328125 60.027344 31.511719 60.027344 31.171875 Z M 57.421875 30.386719 C 57.421875 29.96875 56.992188 29.585938 56.652344 29.707031 C 56.316406 29.808594 56.316406 29.914062 56.652344 30.347656 C 56.992188 30.777344 57.421875 30.804688 57.421875 30.386719 Z M 60.675781 29.902344 C 60.820312 29.757812 60.9375 29.496094 60.9375 29.324219 C 60.9375 28.710938 60.480469 28.75 60.105469 29.390625 C 59.699219 30.070312 60.128906 30.453125 60.675781 29.902344 Z M 49.21875 29.195312 C 49.308594 29.011719 49.347656 28.699219 49.308594 28.433594 C 49.128906 27.386719 49.050781 27.152344 48.878906 27.152344 C 48.75 27.152344 48.710938 27.414062 48.738281 28.332031 C 48.761719 29.546875 48.894531 29.785156 49.21875 29.195312 Z M 42.226562 27.453125 C 42.265625 26.339844 42.253906 25.59375 42.175781 25.515625 C 41.914062 25.242188 41.796875 25.816406 41.796875 27.519531 C 41.796875 28.878906 41.835938 29.246094 41.980469 29.246094 C 42.109375 29.246094 42.160156 28.828125 42.226562 27.453125 Z M 57.707031 28.527344 C 57.734375 28.382812 56.433594 27.6875 56.144531 27.675781 C 55.792969 27.675781 56.082031 28.003906 56.71875 28.355469 C 57.355469 28.710938 57.683594 28.761719 57.707031 28.527344 Z M 60.859375 28.070312 C 61.289062 27.648438 60.976562 27.597656 60.222656 27.976562 C 59.53125 28.316406 59.402344 28.449219 59.582031 28.632812 C 59.699219 28.75 60.558594 28.371094 60.859375 28.070312 Z M 63.488281 28.054688 C 63.996094 27.964844 64.335938 27.832031 64.375 27.714844 C 64.570312 27.21875 64.089844 27.152344 62.929688 27.558594 C 61.941406 27.886719 61.613281 28.199219 62.238281 28.199219 C 62.488281 28.199219 63.046875 28.132812 63.488281 28.054688 Z M 53.035156 27.546875 C 52.5 27.21875 52.136719 26.445312 52.316406 26.066406 C 52.394531 25.910156 52.527344 25.542969 52.628906 25.253906 C 52.722656 24.964844 53.125 24.324219 53.542969 23.828125 C 53.957031 23.316406 54.296875 22.859375 54.296875 22.804688 C 54.296875 22.164062 52.472656 24.207031 52.214844 25.136719 C 52.121094 25.449219 51.992188 25.75 51.941406 25.792969 C 51.71875 25.921875 51.824219 26.773438 52.109375 27.203125 C 52.488281 27.78125 52.996094 28.09375 53.230469 27.910156 C 53.359375 27.792969 53.320312 27.714844 53.035156 27.546875 Z M 37.394531 25.882812 C 37.488281 25.765625 37.851562 25.386719 38.214844 25.042969 C 38.839844 24.429688 38.933594 24.167969 38.449219 24.324219 C 37.761719 24.558594 36.589844 26.105469 37.109375 26.105469 C 37.175781 26.105469 37.304688 26.011719 37.394531 25.882812 Z M 29.949219 24.679688 C 29.949219 24.601562 29.894531 24.507812 29.816406 24.46875 C 29.664062 24.363281 29.648438 23.316406 29.804688 23.160156 C 29.871094 23.082031 30.078125 22.742188 30.273438 22.375 C 30.753906 21.484375 31.042969 21.195312 31.640625 21 C 32.1875 20.816406 32.355469 20.476562 31.902344 20.476562 C 31.40625 20.476562 30.105469 21.433594 30.078125 21.8125 C 30.078125 21.863281 29.910156 22.191406 29.6875 22.53125 C 29.375 23.027344 29.296875 23.289062 29.296875 23.894531 C 29.296875 24.625 29.375 24.757812 29.792969 24.78125 C 29.871094 24.796875 29.949219 24.742188 29.949219 24.679688 Z M 40.535156 23.371094 C 41.144531 22.949219 41.300781 22.703125 40.964844 22.703125 C 40.730469 22.703125 39.425781 23.578125 39.285156 23.839844 C 39.21875 23.945312 39.207031 24.128906 39.257812 24.246094 C 39.335938 24.441406 39.375 24.429688 39.621094 24.128906 C 39.777344 23.945312 40.183594 23.605469 40.535156 23.371094 Z M 43.320312 22.820312 C 44.582031 22.296875 44.609375 22.269531 46.863281 19.914062 C 47.539062 19.191406 47.644531 19.023438 47.460938 18.957031 C 47.292969 18.878906 46.886719 19.234375 45.78125 20.382812 C 44.988281 21.210938 44.140625 21.980469 43.917969 22.085938 C 43.253906 22.402344 42.722656 22.480469 42.511719 22.308594 C 42.253906 22.097656 42.097656 22.492188 42.316406 22.765625 C 42.511719 23.003906 42.824219 23.015625 43.320312 22.820312 Z M 38.554688 22.675781 C 38.632812 21.851562 38.542969 20.671875 38.398438 20.671875 C 38.308594 20.671875 38.191406 20.84375 38.136719 21.050781 C 38.046875 21.390625 38.058594 21.71875 38.230469 22.542969 C 38.292969 22.84375 38.527344 22.949219 38.554688 22.675781 Z M 48.503906 22.230469 C 48.527344 21.929688 48.789062 21.234375 49.113281 20.59375 C 49.660156 19.519531 49.765625 19.363281 50.703125 18.316406 C 51.132812 17.832031 51.316406 17.335938 51.054688 17.335938 C 50.988281 17.335938 50.78125 17.53125 50.574219 17.78125 C 49.699219 18.8125 49.285156 19.351562 49.140625 19.613281 C 48.046875 21.640625 47.785156 22.320312 48.046875 22.636719 C 48.308594 22.949219 48.464844 22.804688 48.503906 22.230469 Z M 43.074219 21.128906 C 43.097656 20.882812 43.230469 20.265625 43.371094 19.78125 C 43.621094 18.929688 43.632812 18.511719 43.386719 18.511719 C 43.332031 18.511719 43.214844 18.789062 43.113281 19.140625 C 43.019531 19.480469 42.890625 19.886719 42.824219 20.058594 C 42.761719 20.226562 42.707031 20.554688 42.707031 20.804688 C 42.707031 21.050781 42.644531 21.289062 42.578125 21.328125 C 42.382812 21.445312 42.566406 21.679688 42.8125 21.628906 C 42.957031 21.601562 43.046875 21.433594 43.074219 21.128906 Z M 10.027344 51.121094 C 10.210938 51.058594 10.730469 50.886719 11.199219 50.730469 C 11.667969 50.585938 12.605469 50.269531 13.28125 50.023438 C 13.960938 49.785156 14.988281 49.511719 15.5625 49.421875 C 16.132812 49.328125 17.097656 49.09375 17.710938 48.910156 C 19.039062 48.503906 20.351562 48.4375 20.417969 48.777344 C 20.445312 48.949219 20.328125 49.015625 19.832031 49.078125 C 19.492188 49.121094 18.789062 49.300781 18.269531 49.484375 C 17.761719 49.65625 17.148438 49.800781 16.902344 49.800781 C 16.277344 49.8125 14.898438 50.089844 12.890625 50.625 C 11.25 51.058594 9.246094 51.398438 10.027344 51.121094 Z M 45.183594 50.46875 C 45.183594 50.285156 45.246094 50.21875 45.378906 50.285156 C 45.597656 50.363281 45.574219 50.613281 45.339844 50.691406 C 45.246094 50.714844 45.183594 50.625 45.183594 50.46875 Z M 26.835938 50.46875 C 26.617188 50.324219 26.746094 49.878906 26.992188 49.957031 C 27.164062 50.023438 27.292969 50.585938 27.125 50.585938 C 27.070312 50.585938 26.941406 50.53125 26.835938 50.46875 Z M 32.199219 49.445312 C 32.109375 49.421875 32.03125 49.289062 32.03125 49.171875 C 32.03125 48.882812 33.605469 48.347656 34.726562 48.253906 C 35.402344 48.203125 35.558594 48.230469 35.625 48.414062 C 35.742188 48.726562 35.675781 48.753906 34.726562 48.882812 C 34.257812 48.960938 33.566406 49.132812 33.203125 49.277344 C 32.511719 49.550781 32.460938 49.5625 32.199219 49.445312 Z M 27.554688 48.9375 C 27.398438 48.515625 27.476562 48.230469 27.734375 48.230469 C 27.878906 48.230469 28.035156 48.214844 28.085938 48.203125 C 28.296875 48.125 28.269531 48.660156 28.046875 48.898438 C 27.773438 49.199219 27.65625 49.210938 27.554688 48.9375 Z M 66.199219 48.371094 C 65.558594 48.269531 64.542969 47.363281 64.910156 47.234375 C 65.117188 47.15625 65.714844 47.207031 66.730469 47.40625 C 67.226562 47.507812 67.253906 47.546875 67.253906 47.96875 C 67.253906 48.476562 67.121094 48.53125 66.199219 48.371094 Z M 33.761719 46.699219 C 33.957031 46.671875 34.246094 46.671875 34.414062 46.699219 C 34.570312 46.722656 34.414062 46.75 34.050781 46.75 C 33.699219 46.75 33.554688 46.722656 33.761719 46.699219 Z M 80.792969 46.5 C 80.15625 46.4375 79.453125 46.332031 79.230469 46.265625 C 78.800781 46.121094 86.328125 46.214844 87.433594 46.355469 L 88.085938 46.449219 L 87.5625 46.539062 C 86.859375 46.683594 82.238281 46.644531 80.792969 46.5 Z M 80.792969 46.5 "
    />
    <path
      d="M 59.53125 45.992188 C 57.199219 45.792969 57.121094 45.636719 59.347656 45.625 C 61.261719 45.609375 61.953125 45.730469 61.785156 46.015625 C 61.691406 46.148438 61.457031 46.148438 59.53125 45.992188 Z M 24.15625 45.609375 C 23.945312 45.558594 23.101562 45.425781 22.304688 45.347656 C 20.210938 45.113281 20.523438 44.890625 22.773438 45.007812 C 24.0625 45.074219 24.703125 45.164062 25.105469 45.347656 C 25.40625 45.480469 25.652344 45.625 25.652344 45.664062 C 25.652344 45.78125 24.609375 45.742188 24.15625 45.609375 Z M 69.792969 45.347656 C 70.296875 44.902344 70.390625 44.878906 70.492188 45.152344 C 70.636719 45.546875 70.429688 45.742188 69.871094 45.742188 L 69.335938 45.730469 Z M 34.597656 44.863281 C 34.558594 44.800781 34.570312 44.5625 34.597656 44.316406 C 34.648438 44.015625 34.699219 43.933594 34.777344 44.054688 C 34.933594 44.300781 34.921875 44.785156 34.777344 44.890625 C 34.714844 44.929688 34.621094 44.917969 34.597656 44.863281 Z M 42.5 44.417969 C 42.460938 44.339844 42.460938 44.144531 42.5 43.960938 C 42.589844 43.632812 42.589844 43.632812 42.96875 43.871094 C 43.191406 43.988281 43.359375 44.132812 43.359375 44.183594 C 43.359375 44.355469 42.589844 44.5625 42.5 44.417969 Z M 82.132812 44.105469 C 82.09375 44.066406 81.15625 43.988281 80.050781 43.921875 C 78.945312 43.871094 77.953125 43.765625 77.851562 43.699219 C 77.746094 43.632812 77.171875 43.609375 76.5625 43.632812 C 75.558594 43.660156 75.0625 43.609375 72.773438 43.136719 C 72.1875 43.003906 72.003906 42.902344 72.003906 42.652344 C 72.003906 42.351562 73.449219 42.402344 73.867188 42.730469 C 74.140625 42.953125 74.386719 42.992188 75.351562 42.992188 C 75.976562 42.992188 77.121094 42.925781 77.875 42.847656 C 79.191406 42.703125 79.320312 42.703125 80.714844 43.046875 C 82.707031 43.515625 86.328125 43.648438 88.929688 43.320312 C 91.9375 42.953125 93.554688 42.824219 94.0625 42.914062 C 94.335938 42.964844 94.53125 43.03125 94.515625 43.058594 C 94.492188 43.085938 93.96875 43.164062 93.359375 43.242188 C 92.210938 43.398438 89.515625 43.816406 88.292969 44.039062 C 87.5625 44.171875 82.265625 44.222656 82.132812 44.105469 Z M 22.007812 43.425781 C 21.328125 43.371094 19 43.070312 17.1875 42.796875 C 16.511719 42.691406 15.730469 42.613281 15.46875 42.601562 C 15.195312 42.601562 14.976562 42.546875 14.976562 42.46875 C 14.976562 42.296875 16.617188 42.296875 18.101562 42.46875 C 21.25 42.808594 22.722656 43.019531 22.878906 43.136719 C 23.0625 43.308594 22.984375 43.53125 22.75 43.488281 C 22.65625 43.476562 22.332031 43.449219 22.007812 43.425781 Z M 39.503906 42.847656 C 39.464844 42.769531 39.519531 42.613281 39.636719 42.496094 C 39.832031 42.296875 39.84375 42.3125 39.84375 42.640625 C 39.84375 42.992188 39.675781 43.109375 39.503906 42.847656 Z M 10.875 42.46875 C 10.914062 42.402344 11.199219 42.339844 11.5 42.339844 C 11.902344 42.339844 11.992188 42.378906 11.851562 42.46875 C 11.589844 42.640625 10.769531 42.640625 10.875 42.46875 Z M 6.640625 39.851562 C 5.105469 39.796875 4.960938 39.773438 5.535156 39.667969 C 6.277344 39.535156 13.777344 39.65625 14.441406 39.824219 C 14.949219 39.929688 9.507812 39.957031 6.640625 39.851562 Z M 24.480469 36.707031 C 24.480469 36.644531 24.675781 36.578125 24.921875 36.578125 C 25.171875 36.578125 25.417969 36.644531 25.457031 36.707031 C 25.507812 36.789062 25.328125 36.839844 25.015625 36.839844 C 24.714844 36.839844 24.480469 36.789062 24.480469 36.707031 Z M 0 31.601562 L 0 30.53125 L 1.015625 30.621094 C 1.5625 30.675781 2.476562 30.792969 3.023438 30.898438 C 3.582031 30.988281 4.988281 31.132812 6.148438 31.222656 C 8.085938 31.355469 9.296875 31.5625 9.742188 31.851562 C 9.84375 31.917969 9.101562 31.957031 7.984375 31.945312 C 6.929688 31.945312 5.445312 32.007812 4.6875 32.101562 C 3.933594 32.191406 2.734375 32.324219 2.019531 32.390625 C 1.304688 32.441406 0.546875 32.546875 0.351562 32.585938 L 0 32.675781 Z M 72.914062 31 C 72.734375 30.542969 72.71875 30.554688 73.304688 30.554688 C 73.59375 30.554688 73.828125 30.621094 73.828125 30.6875 C 73.828125 30.765625 73.734375 30.816406 73.632812 30.816406 C 73.527344 30.816406 73.4375 30.9375 73.4375 31.078125 C 73.4375 31.460938 73.058594 31.40625 72.914062 31 Z M 89.777344 30.6875 C 89.425781 30.632812 87.601562 30.570312 85.742188 30.554688 C 82.304688 30.53125 81.105469 30.425781 82.304688 30.253906 C 82.628906 30.214844 83.398438 30.203125 84.007812 30.253906 C 84.726562 30.308594 85.753906 30.253906 86.9375 30.097656 C 88.671875 29.886719 88.8125 29.886719 89.855469 30.097656 C 90.742188 30.28125 91.3125 30.308594 92.941406 30.242188 C 94.53125 30.175781 95.011719 30.203125 95.375 30.347656 C 95.625 30.453125 95.832031 30.582031 95.832031 30.621094 C 95.832031 30.675781 95.117188 30.699219 94.242188 30.675781 C 93.359375 30.660156 92.148438 30.6875 91.535156 30.726562 C 90.921875 30.765625 90.140625 30.753906 89.777344 30.6875 Z M 15.234375 29.050781 C 15.5625 28.933594 16.238281 28.789062 16.734375 28.722656 C 18.140625 28.554688 22.136719 28.421875 22.136719 28.566406 C 22.136719 28.738281 21.132812 28.855469 19.609375 28.855469 C 18.882812 28.855469 17.800781 28.917969 17.1875 28.984375 C 16.578125 29.050781 15.757812 29.140625 15.367188 29.183594 L 14.648438 29.246094 Z M 15.234375 29.050781 "
    />
  </g>
</svg>
