<svg id="root" xmlns="http://www.w3.org/2000/svg" width="768" height="441" viewBox="0 0 7680 4410">
  <g>
    <path
      d="M5716 4389c-15-12-60-32-99-46-40-13-81-28-92-33s-72-20-135-34-153-37-200-51c-47-15-102-31-122-37-101-28 10-35 137-9 28 6 59 13 71 14 11 2 26 7 32 11 19 12 159 46 311 76 80 16 164 38 186 48 22 11 75 27 118 36s90 22 105 30c25 14 14 15-129 16-144 0-158-2-183-21zm184-155c-8-1-36-6-62-9-27-3-48-10-48-16 0-10 90-12 168-3 42 6 50 9 41 20-10 13-60 17-99 8zm-610-73c-8-6-32-11-53-11-40 0-107-23-107-37 0-15 251-34 293-22 44 12 45 18 12 49-28 26-118 39-145 21zm-3753-85c-9-22 15-31 133-51 52-9 120-26 150-37 46-18 85-22 233-26 116-2 177 0 177 6 0 18-62 30-185 35-92 4-139 11-195 30-41 13-115 29-165 36-49 6-102 14-116 17-19 4-28 1-32-10zm2331-83c-6-22 7-53 22-53 14 0 12 33-3 55-13 17-14 17-19-2z" />
    <path
      d="M4110 3991c-104-8-165-32-151-60 8-14 27-20 88-25 43-3 96-2 118 4 22 5 46 10 53 10 22 0 12-25-17-43-24-14-28-23-28-57 0-43-45-116-65-104-10 6-6 60 7 103 7 21 6 22-11 13-10-5-41-13-67-17-39-6-52-4-67 10-11 10-22 16-25 13-10-9 13-55 30-62 21-8 10-26-15-26-11 0-24-9-30-20-17-31-39-24-57 17-12 30-13 44-4 69 17 47 14 47-34-1l-44-45h-74c-63 0-80 4-113 26-21 14-47 35-56 46-15 16-18 17-18 4 0-8 14-25 30-38 19-13 30-31 30-46 0-21-3-23-32-17-18 4-37 11-42 16-15 14-46 10-46-5 0-8 5-18 11-22 23-14-17-24-94-24-114 0-147-25-91-69 31-25 83-27 164-7 74 18 92 27 110 49 14 17 17 17 53 2 29-12 55-14 106-9 57 5 72 3 106-16 68-37 95-69 95-110 0-40-32-75-175-194-38-32-87-77-107-99-34-38-37-48-38-97 0-31-5-61-11-67-8-8-8-13 0-17 17-11 13-89-6-127-26-55-74-104-96-101-11 2-29-1-41-6-12-6-35-16-52-23-26-11-33-20-37-50-5-37-45-129-56-129-4 0-30 16-59 35-63 43-69 72-19 104 17 11 62 45 98 74 37 29 85 62 107 72 23 11 43 28 46 38 2 9 14 17 26 17 30 0 46 47 55 158 8 106 22 97-125 82-131-14-160-26-160-65-1-80-29-155-89-233-32-42-82-99-110-127-28-27-51-54-51-60s15-17 33-23c31-12 97-83 97-105 0-6-27-37-61-68l-61-56 74-6c87-6 102 1 173 83 27 32 56 55 62 53 10-4 10-10 1-26-14-28-106-120-133-134-30-16-245-4-252 13-3 8-20 14-38 14-34 0-158 50-169 68-3 5-10 39-15 75-8 58-6 74 18 153l28 89-20 45c-10 25-27 53-36 63-16 16-20 16-53 3-19-8-68-40-108-71-41-30-78-55-82-55-25 0 58 162 122 237 50 60 54 62 119 73 47 8 75 8 95 1 35-14 86-14 141 0 34 9 50 20 69 50 14 21 22 40 17 43s-16-5-25-19-23-25-32-25c-23 0-28 28-9 56 9 14 15 27 13 29-2 1-31-2-65-8-53-9-63-14-64-31s-2-18-6-3c-5 19-14 22-29 7-8-8-15-6-24 5-14 17-13 21 15 88 7 16 5 16-36-1-24-11-65-22-91-26-38-6-48-4-56 11-9 14-13 15-26 4-19-16-46-8-46 14 0 9 7 27 16 41 21 32 14 38-21 20-19-10-63-15-143-15-127-1-131-3-150-71-23-81-31-138-22-176 49-225 41-283-66-508-17-35-21-53-14-60 6-6 45-22 88-36l77-25 3-141 3-141-35-30-34-31-114 2c-62 2-138-2-168-8-37-7-165-9-390-5-332 6-336 6-390 31l-55 26-577 6-578 6v-120c0-110 1-119 20-125 23-7 24-8 112-93 61-59 69-64 139-79 43-9 96-13 127-10 77 8 133-14 179-71 21-25 64-76 96-114l58-68 82 44c65 34 89 53 115 92 19 27 38 51 43 52 5 2 49-15 97-39 83-40 90-42 162-38 92 5 381 5 510 1 85-3 103-8 168-39 82-40 128-41 203-2 48 24 64 21 73-18 8-30 73-135 138-220 29-38 61-65 117-95 42-24 90-51 106-60 59-34 132-66 260-113 72-26 164-60 205-75s95-38 120-50c43-22 101-38 296-80 86-19 141-28 299-50 39-5 129-19 200-29 72-11 195-29 275-41s172-26 205-31c33-6 78-13 100-16 23-3 65-17 95-32 53-25 55-28 58-68 3-35-1-47-21-65-30-28-127-78-171-88-17-4-92-27-166-50-110-34-296-69-367-70-6 0-29 25-51 56-39 55-49 62-232 166-19 11-41 25-48 30-22 19-26-1-5-25 34-37 153-206 153-217 0-13-1-13-36 4-22 11-92 15-291 18-145 2-257 1-250-3 6-4 115-33 241-64l229-57 48 22c49 24 79 22 79-5 0-8-34-67-77-130-42-63-74-117-72-119s40 18 83 45c68 42 88 61 141 137 35 48 69 93 76 98 8 6 75 19 149 29 203 26 628 136 730 188 37 19 47 31 57 67 11 36 10 47-3 69-26 43-98 78-254 121-19 5-66 18-105 29-71 19-159 35-270 46-33 3-96 10-140 16-44 5-118 14-165 19-80 9-240 37-340 60-25 5-69 14-98 20-30 5-64 12-75 16-32 9-284 104-336 126l-44 19-32-31c-33-32-55-39-55-17 0 15 37 52 60 59 11 4 5 11-18 24-317 180-371 218-394 282-20 57-22 106-5 119 6 5 59 10 116 11 94 2 108 0 138-20 40-28 49-49 28-64-14-11-10-15 30-33 26-12 53-21 61-21 16 0 29-19 29-44 0-15 16-24 77-43 64-19 79-28 84-48 3-13 15-32 26-42s24-28 29-40c7-18 16-23 44-23 70 0 127-23 178-73 37-36 60-50 94-56 24-5 51-15 61-23 9-8 41-24 70-34 30-10 58-26 63-36 6-11 22-17 52-18 23 0 49-1 58-1 8 0 52 22 98 50 83 51 158 78 186 68 10-5 13-15 9-37-9-44 10-38 46 15 59 86 108 114 95 55-5-22-3-30 8-30 22 0 173 139 228 211 23 30 28 32 43 20 9-8 19-11 22-8s14 53 24 111c21 121 26 132 46 115 8-6 16-10 18-8 11 14 56 110 66 142 6 20 16 37 21 37s18 18 29 40 28 40 37 40c15 0 15 2-1 19-9 10-14 25-10 35 8 21 31 14 105-31 56-34 57-34 120-23 45 8 139 10 314 5 154-4 266-3 293 3 36 8 46 7 66-9 40-32 76-33 143-6 56 23 235 137 248 158 11 17 32 8 182-81 169-101 161-99 353-80 52 5 90 4 97-2 6-5 14-26 18-46 7-41 9-42 135-73 43-11 67-26 116-71 34-32 68-58 75-58 8 0 32 14 53 30 50 38 62 37 110-1l38-32 71 12c40 7 95 17 124 22l52 10 7 56 7 55 81-3 81-4 3 325 2 326-72-7c-40-4-154-8-253-8-115-1-211-7-265-16-47-9-121-22-165-30-107-19-1392-23-1442-5-25 9-41 9-65 0-57-20-213-24-439-10-145 8-222 17-229 25s-5 27 5 60c13 44 12 51-6 88-23 50-23 55-2 79 14 16 15 21 4 28-8 5-12 17-8 30 3 14-1 28-14 41-10 10-19 25-19 33 0 21 20 30 33 17 41-41 6 40-52 122-38 52-47 56-56 28-6-21-31-34-46-25-5 3-24 30-40 60-17 30-34 56-39 59-4 2-11-18-14-46-10-73-68-123-103-88-8 8-13-3-18-41-5-37-14-58-32-74-14-11-38-47-54-78-16-32-36-58-44-58s-39-11-69-25-72-25-94-25h-39l-13 63c-7 34-21 95-31 134-32 123-26 203 26 355 24 72 49 136 55 143 18 22 103 53 165 60 33 4 75 16 93 26s50 19 71 19c42 0 169 26 190 39 10 7 11 13 2 30-11 19-20 21-102 21-80 0-90 2-88 18 5 53-9 55-62 7-21-19-50-37-64-41-27-7-55 9-55 32 0 19-8 18-40-10-25-21-124-45-137-33-6 6 91 132 152 197 28 30 68 86 89 123 34 61 37 73 32 115-11 73-25 102-52 102-32 0-41 20-16 39 18 13 20 21 14 46-10 34-18 36-162 26zm-60-723c0-7-5-20-10-28-8-12-10-9-10 13 0 15 5 27 10 27 6 0 10-6 10-12zm-34-95c-15-81-49-149-112-223-15-18-24-51-34-120-7-52-16-115-20-140-26-153-27-139 15-177 21-18 35-37 31-40-13-13-57 21-79 59-19 35-20 42-8 105 6 38 17 97 22 133 19 115 42 188 72 221 25 29 50 78 98 187 18 42 23 41 15-5zm651-495c30-33 43-63 43-97 0-24-4-31-20-31-27 0-94 103-85 130 8 27 37 25 62-2zm-217-2c0-20-72-116-87-116-18 0-26 39-12 58 50 66 99 94 99 58zm106-1c9-23-19-99-37-103-23-4-29 18-17 71 7 37 14 47 29 47 11 0 22-7 25-15zm-2061-25c10-17-24-57-70-81-25-13-45-27-45-31 0-5-7-8-15-8-25 0-17 27 14 49 16 12 34 21 40 21s20 14 33 30c23 32 33 36 43 20zm2055-145c0-8-7-15-15-15s-15 7-15 15 7 15 15 15 15-7 15-15zm80-20c0-8-9-15-20-15-20 0-26 11-13 23 12 13 33 7 33-8zm-645-25c3-5-3-10-14-10-12 0-21 5-21 10 0 6 6 10 14 10s18-4 21-10zm-1204-46c-1-21-7-47-12-56-6-10-5-19 1-23 17-10 11-25-9-25-29 0-34 32-16 95 19 64 42 70 36 9zm1829 23c0-20-50-88-61-82-13 9-11 20 12 59 21 35 49 49 49 23zm-200-60c0-32-33-61-59-52-26 8-26 16 0 49s59 35 59 3zm250-37c11-11 20-31 20-44 0-47-35-44-64 5-31 52 2 81 44 39zm-880-54c7-14 10-38 7-58-14-80-20-98-33-98-10 0-13 20-11 90 2 93 12 111 37 66zm-537-133c3-85 2-142-4-148-20-21-29 23-29 153 0 104 3 132 14 132 10 0 14-32 19-137zm1189 82c2-11-98-64-120-65-27 0-5 25 44 52s74 31 76 13zm242-35c33-32 9-36-49-7-53 26-63 36-49 50 9 9 75-20 98-43zm202-1c39-7 65-17 68-26 15-38-22-43-111-12-76 25-101 49-53 49 19 0 62-5 96-11zm-803-39c-41-25-69-84-55-113 6-12 16-40 24-62 7-22 38-71 70-109 32-39 58-74 58-78 0-49-140 107-160 178-7 24-17 47-21 50-17 10-9 75 13 108 29 44 68 68 86 54 10-9 7-15-15-28zm-1201-127c7-9 35-38 63-64 48-47 55-67 18-55-53 18-143 136-103 136 5 0 15-7 22-17zm-572-92c0-6-4-13-10-16-12-8-13-88-1-100 5-6 21-32 36-60 37-68 59-90 105-105 42-14 55-40 20-40-38 0-138 73-140 102 0 4-13 29-30 55-24 38-30 58-30 104 0 56 6 66 38 68 6 1 12-3 12-8zm813-100c47-32 59-51 33-51-18 0-118 67-129 87-5 8-6 22-2 31 6 15 9 14 28-9 12-14 43-40 70-58zm214-42c97-40 99-42 272-222 52-55 60-68 46-73-13-6-44 21-129 109-61 63-126 122-143 130-51 24-92 30-108 17-20-16-32 14-15 35 15 18 39 19 77 4zm-366-11c6-63-1-153-12-153-7 0-16 13-20 29-7 26-6 51 7 114 5 23 23 31 25 10zm764-34c2-23 22-76 47-125 42-82 50-94 122-174 33-37 47-75 27-75-5 0-21 15-37 34-67 79-99 120-110 140-84 155-104 207-84 231s32 13 35-31zm-417-84c2-19 12-66 23-103 19-65 20-97 1-97-4 0-13 21-21 48-7 26-17 57-22 70s-9 38-9 57-5 37-10 40c-15 9-1 27 18 23 11-2 18-15 20-38zM770 3961c14-5 54-18 90-30 36-11 108-35 160-54 52-18 131-39 175-46s118-25 165-39c102-31 203-36 208-10 2 13-7 18-45 23-26 3-80 17-120 31-39 13-86 24-105 24-48 1-154 22-308 63-126 33-280 59-220 38zm2700-50c0-14 5-19 15-14 17 6 15 25-3 31-7 2-12-5-12-17zm-1409 0c-17-11-7-45 12-39 13 5 23 48 10 48-4 0-14-4-22-9zm412-78c-7-2-13-12-13-21 0-22 121-63 207-70 52-4 64-2 69 12 9 24 4 26-69 36-36 6-89 19-117 30-53 21-57 22-77 13zm-357-39c-12-32-6-54 14-54 11 0 23-1 27-2 16-6 14 35-3 53-21 23-30 24-38 3zm2968-43c-49-8-127-77-99-87 16-6 62-2 140 13 38 8 40 11 40 43 0 39-10 43-81 31zm-2491-128c15-2 37-2 50 0 12 2 0 4-28 4-27 0-38-2-22-4zm3612-15c-49-5-103-13-120-18-33-11 545-4 630 7l50 7-40 7c-54 11-409 8-520-3z" />
    <path
      d="M4572 3569c-179-15-185-27-14-28 147-1 200 8 187 30-7 10-25 10-173-2zm-2717-29c-16-4-81-14-142-20-161-18-137-35 36-26 99 5 148 12 179 26 23 10 42 21 42 24 0 9-80 6-115-4zm3505-20c39-34 46-36 54-15 11 30-5 45-48 45l-41-1 35-29zm-2703-37c-3-5-2-23 0-42 4-23 8-29 14-20 12 19 11 56 0 64-5 3-12 2-14-2zm607-34c-3-6-3-21 0-35 7-25 7-25 36-7 17 9 30 20 30 24 0 13-59 29-66 18zm3044-24c-3-3-75-9-160-14-85-4-161-12-169-17s-52-7-99-5c-77 2-115-2-291-38-45-10-59-18-59-37 0-23 111-19 143 6 21 17 40 20 114 20 48 0 136-5 194-11 101-11 111-11 218 15 153 36 431 46 631 21 231-28 355-38 394-31 21 4 36 9 35 11-2 2-42 8-89 14-88 12-295 44-389 61-56 10-463 14-473 5zm-4618-52c-52-4-231-27-370-48-52-8-112-14-132-15-21 0-38-4-38-10 0-13 126-13 240 0 242 26 355 42 367 51 14 13 8 30-10 27-7-1-32-3-57-5zm1344-44c-3-6 1-18 10-27 15-15 16-14 16 11 0 27-13 36-26 16zm-2199-29c3-5 25-10 48-10 31 0 38 3 27 10-20 13-83 13-75 0zm-325-200c-118-4-129-6-85-14 57-10 633-1 684 12 39 8-379 10-599 2zm1370-240c0-5 15-10 34-10s38 5 41 10c4 6-10 10-34 10-23 0-41-4-41-10zM0 2470v-82l78 7c42 4 112 13 154 21 43 7 151 18 240 25 149 10 242 26 276 48 8 5-49 8-135 7-81 0-195 5-253 12s-150 17-205 22c-55 4-113 12-128 15l-27 7v-82zm5600-46c-14-35-15-34 30-34 22 0 40 5 40 10 0 6-7 10-15 10s-15 9-15 20c0 29-29 25-40-6zm1295-24c-27-4-167-9-310-10-264-2-356-10-264-23 25-3 84-4 131 0 55 4 134 0 225-12 133-16 144-16 224 0 68 14 112 16 237 11 122-5 159-3 187 8 19 8 35 18 35 21 0 4-55 6-122 4-68-1-161 1-208 4s-107 2-135-3zm-5725-125c25-9 77-20 115-25 108-13 415-23 415-12 0 13-77 22-194 22-56 0-139 5-186 10s-110 12-140 15l-55 5 45-15z" />
  </g>
</svg>