<svg id="root" xmlns="http://www.w3.org/2000/svg" width="768" height="441" viewBox="0 0 7680 4410">
  <path
    d="M4558 3720c-14-4-44-22-66-39-21-18-56-34-78-38-52-8-94-33-101-61-4-17 5-33 35-66 33-36 41-53 47-100 8-65-1-138-22-181-26-50-204-226-250-246-39-18-42-23-53-75-6-30-9-72-5-94 9-55-11-57-154-21-69 18-145 31-180 31-93 0-313-61-438-120-58-28-107-49-109-47s-6 97-10 213c-6 203-6 212 20 317 14 59 32 121 41 137 23 45 124 148 172 177 41 23 51 25 115 19 65-6 73-4 95 16 70 65-30 127-207 128-72 0-78-2-141-43-36-24-90-58-120-75-69-39-122-91-170-166-33-51-38-63-33-100 12-84-28-203-127-382-50-90-93-164-95-164-3 0-62 51-132 113-70 61-154 134-187 162-33 27-103 91-155 142-88 85-96 96-112 155-21 77-32 169-24 202 5 19 14 24 56 30 59 8 102 43 102 81 0 33-2 36-58 46-41 8-67 7-139-6-11-2-28-4-38-4-10-1-30-14-46-30-25-25-29-40-37-117-4-49-8-124-9-166 0-42-3-79-7-83-18-19-161 106-215 187-84 127-144 134-95 10 11-28 34-56 64-80 26-20 92-77 146-127 83-75 101-97 111-133 6-24 22-53 35-65s36-33 51-47c16-14 41-53 57-87 49-103 68-221 77-478s13-273 84-383c82-127 184-194 405-266l141-46 178 1c98 0 246 4 328 10 83 5 272 13 420 19 253 8 398 20 438 36 9 3 17 2 17-4 0-12 54-32 86-32 13 0 24-5 24-10 0-6 11-8 26-4 18 5 25 3 21-3-8-12 61-12 81 1 6 4 12 4 12-1 0-13 52-33 87-33 18 0 33-5 33-11 0-12 58-8 94 7 12 4 17 4 13-2-3-6 19-9 56-8 34 1 65-3 68-8s34-11 68-13c34-3 70-9 79-14 35-18 234-32 271-19 15 5 27 5 31-1 8-14 54 11 106 59 24 22 53 40 64 40 24 0 174 149 200 199 10 20 37 54 61 76 23 22 71 83 105 135s85 129 113 169c28 41 51 82 51 91s-12 27-26 41c-15 13-37 41-50 61-24 38-67 57-129 58-40 1-76 31-68 59 9 34-64 101-110 101-39 0-49-9-66-60-15-44-49-80-76-80-11 0-47 9-79 21-41 14-62 17-69 10-6-6-19-11-29-11-11 0-18-7-18-20s-7-20-20-20c-11 0-20-7-20-16 0-11-6-14-20-9-15 5-20 2-20-12-1-17-1-17-14 0-16 20-32 22-40 5-5-10-7-10-12 0-3 6-13 12-22 12-10 0-25 17-35 39-10 21-27 41-38 44-16 4-19 11-14 27 6 19 4 21-14 15-12-4-21-2-21 4s-8 7-17 4c-12-5-15-2-10 10 4 11 1 17-8 17-8 0-15 7-15 15s-7 15-15 15-15 7-15 16c0 14-3 14-15 4-21-17-21 8 0 37 15 21 15 21-22 11-27-7-38-7-41 1-2 6-12 11-23 11-10 0-19 5-19 10 0 6-11 10-24 10-22 0-28 6-36 35-2 6-10 15-19 22-12 8-16 31-18 92-1 45 1 81 6 81 7 0 71 123 75 144 1 6 8 22 15 35 8 14 11 40 8 63-6 45-49 132-83 169-47 50-23 89 55 89 48 0 111 48 111 84 0 44-28 56-131 55-52 0-106-4-121-9zM2324 2376c4-49 2-66-5-59-14 14-27 114-21 155l5 33 8-30c4-16 10-61 13-99z" />
</svg>