<svg xmlns="http://www.w3.org/2000/svg" id="root" viewBox="1014 685 3646 3370">
  <path
    d="M2990 2370v-477c0-5 61-9 135-11l135-3v30c0 41 24 61 71 61h39v123c0 147 6 158 95 165l55 5-2 286-3 286-262 3-263 2zm-710 436c0-365-4-407-40-447-20-20-38-29-59-29h-31v-730h545l1 750v750h-416zm201-559c46-31 52-80 14-121-23-25-32-28-66-23-71 9-103 61-74 117 28 54 72 64 126 27zm9-315c25-32 25-72 0-105a76 76 0 0 0-99-23c-32 17-41 34-41 79 1 78 93 110 140 49zm-226-214c8-14 7-21-6-34-30-30-75 9-48 42 16 18 39 15 54-8zm16 1608v-126l208 2 207 3 3 118 3 117h-188c-103 0-198 3-210 6-23 6-23 6-23-120zm2118-391-3-657v-103l55-3c30-1 60 1 65 5 7 5 8 230 5 658l-5 650-57 3-58 3zm-458-56c0-338-3-630-6-649l-6-36 99-12c54-7 149-12 211-12h112v1310h-189c-104 0-196 3-205 6-14 6-16-52-16-607zm283 410c43-23 50-68 15-93-31-22-45-20-73 9-30 29-31 49-5 75 23 23 33 24 63 9zm21-291c9-12 16-28 16-35 0-17-37-53-54-53-38 0-62 70-34 98 19 19 55 14 72-10zm-6-240c7-7 12-24 12-38 0-33-17-50-50-50-31 0-50 17-50 44 0 43 59 73 88 44zm-1958 816v-29l235 3c226 3 235 3 235 22s-8 20-219 20c-121 0-226 3-235 6-12 5-16 0-16-22zm-1113 19c-3-5-7-270-8-589l-2-579 392-3 391-2v1170h-347c-192 0-364 3-384 6-20 4-39 2-42-3zm707-97c9-13 7-20-7-31-35-26-66 12-35 43 15 15 28 11 42-12zm-512-233c20-18 24-73 6-91-31-31-98 9-98 59 0 45 56 65 92 32zm338-68c16-9 36-29 45-45 54-105-55-237-154-186-77 40-84 176-11 233 21 17 85 16 120-2zm-342-171c18-12 22-24 20-52-2-30-8-38-30-46-56-20-95 64-46 98 28 20 28 20 56 0zm2211 336-3-381c0-17 4-33 9-34 6-2 67-6 138-10l127-6v781h-270zm85-286c20-8 21-47 2-63-32-27-64 27-34 57 14 14 12 14 32 6zm-664 253v-387l263 2 262 3-4 380c-1 209-4 381-5 382l-259 5-257 3zm-1000-152v-756l80 3 79 3 5 730c3 402 8 740 12 753 6 22 5 22-85 22h-91zm-828 610c2-80 6-145 11-145h767v290h-781zm728-10c20-25 8-50-25-50-31 0-43 20-31 51 7 18 40 18 56-1zm1914 181c-9-25 5-36 45-36 23 0 48-8 62-19 23-19 24-24 27-195l3-176h579l1 138c1 75 0 151-1 169-2 41 27 58 86 49 46-6 54 2 54 53v28l-425 2c-371 2-426 0-431-13zm-2787 82c-3-9-3-18-2-20 2-2 287-2 634 0 591 2 631 3 631 20 0 16-39 17-629 17-583 0-630-1-634-17z"
  />
  <path
    d="M3565 2827c-3-7-4-136-3-287l3-275 40-3c62-4 82-10 90-29 4-10 10-70 14-133l6-115 47 3c39 2 49-1 62-20 9-12 16-39 16-60v-38h130c72 0 133-1 138-2 4-2 8 9 10 25 3 24 0 27-26 27-53 0-72 26-79 108l-6 72h-53c-41 0-59 5-81 24l-28 24-3 346-3 346h-135c-99 0-136-3-139-13zm114-84c13-25-4-53-33-53-28 0-40 24-26 51 13 24 46 25 59 2zm-1906-775 6-363 160-3 161-2v730h-332l5-362zm263-243c7-18-13-45-33-45-17 0-27 24-19 45 7 20 45 19 52 0zm1424 321c0-123 0-125-26-145-15-12-40-21-55-21-26 0-29-3-29-35l-2-42c-2-5 26-11 60-15 35-4 69-12 76-17 8-6 57-8 134-4l122 6v124l-50 5c-77 8-80 13-80 149v119h-150v-124z"
  />
  <path
    d="M4080 2058c0-59 20-68 147-68 96 0 112 2 128 20 12 13 15 27 11 45-6 22-11 25-55 25-26 0-89 3-139 6l-92 7v-35zm120-630c0-478-8-646-31-674-9-11-61-14-285-14h-273l-26 25-25 26v720l-32-3-33-3-6-190c-3-104-10-206-15-225l-10-35-278-3c-257-2-277-4-274-20s27-17 281-20l277-2v-68c0-37 3-110 6-162l7-95h773v1225h-56v-482zm-703 236c-4-4-7-18-7-31 0-20 5-23 36-23 33 0 35 2 32 28-2 20-9 28-28 30-14 2-29 0-33-4zm-1460-171c-2-5-3-24-2-43 2-29 6-35 23-34l182 2 160 2v80h-179c-99 0-182-3-184-7zm148-318v-165h323c315 0 322 0 322 20 0 19-7 20-252 20-139 0-263 3-275 6-32 9-43 53-43 175v109h-75v-165z"
  />
</svg>
