<svg xmlns="http://www.w3.org/2000/svg" id="root" viewBox="5 0 3335 1909">
  <path fill="#EFF6E1"
    d="M1702 1861c-2-79-4-81-85-81-40-1-98-3-130-7l-58-5-55 56c-46 49-61 58-103 65-27 4-56 4-65-1s-21-6-26-3c-6 3-10 1-10-5 0-7-6-10-14-7s-16 3-18-1-21-17-43-29c-58-31-87-77-84-133 3-51 25-90 81-138 34-30 38-38 38-82 0-42-4-52-31-74-41-35-83-33-159 5-74 39-112 84-114 139-1 22-7 45-14 52-6 6-12 18-12 26 0 19-36 49-88 73-34 16-60 20-115 18-40-1-76-6-82-9-5-4-21-10-35-13-29-7-80-49-80-65 0-18-48-25-79-12-16 6-42 24-57 39-47 44-77 53-119 35a85 85 0 0 1-51-52c-28-73-39-87-64-86l-25 1 3-96 5-97c2-2 82 11 128 21 30 6 48-10 55-49 5-31-14-46-110-80l-72-28a4419 4419 0 0 1-3-357c3 5 29 16 59 25 29 9 71 30 92 47 33 28 38 37 38 78 0 33-7 54-25 79-14 19-25 42-25 52 0 28 37 59 68 56 28-2 71 17 84 36 4 6 8 37 8 68 0 46 5 62 26 87 14 17 30 29 35 25 5-3 9-1 9 4 0 13 50 33 94 38 69 7 207-41 191-66-3-4 0-10 6-12s13-30 16-63c10-130 36-175 129-220 48-23 64-27 108-21 57 7 74 10 96 19 8 3 23 5 33 4 15 0 17-6 12-26-4-14-7-60-6-101 1-67 7-85 48-173 29-61 61-111 83-130 98-89 252-121 372-77 72 25 85 34 107 71 16 27 17 27 56 12 22-8 50-17 63-20 51-12 79-106 42-143-29-29-40-63-40-120 0-50 27-123 42-114 4 3 8-3 9-13 0-10 2-27 4-38s6-38 8-61c5-48 30-100 49-102 7-1 38-8 68-17 81-23 147-19 199 10 38 22 58 26 156 29l113 3-16-26a70 70 0 0 1-8-54l6-27h263c233 1 260 2 243 15-11 8-16 15-11 15s1 6-9 13c-9 7-19 26-21 42-7 58 6 95 55 146 27 28 54 64 60 80 7 16 17 29 22 29 6 0 8 6 5 14s-3 17 1 20c9 9 14 37 12 71-1 53-82 116-163 129l-72 11-34 6 16 34c9 19 20 35 25 35 10 0 27 41 37 89a268 268 0 0 1 67-33c22-7 71-28 109-46 115-55 224-49 266 12 8 12 22 30 32 40 12 13 17 34 17 77 0 55-2 61-35 90-35 31-36 31-150 31-65 0-116 4-120 10-3 6-26 19-50 30l-44 20 20 46c40 90 26 100-178 121-72 7-97 25-112 81-24 87 50 182 141 182 46 0 68-18 119-96 46-70 100-110 154-115 17-2 57 3 89 10 57 13 111 11 149-4 15-7 17 2 17 94v101h-33c-44 0-134 80-178 158a938 938 0 0 1-56 92c4 0-1 9-10 19-37 40-48 56-44 61 7 9-73 48-104 50-92 6-123 0-175-35-29-19-56-35-61-35s-27 12-48 26c-45 29-122 42-196 33-27-3-53-4-58-2-13 7 21 47 43 50 87 13 76 74-15 87-25 4-193 6-374 4l-329-3v-44zm448-36c0-24-2-25-75-25-67 0-75 2-75 19 0 25 12 29 88 30 60 1 62 0 62-24zm-251-51c2-2-7-4-22-4-14 0-29 5-32 10-6 10 42 4 54-6zm241-14c0-12-8-12-35 0-18 8-17 9 8 9 15 1 27-3 27-9zm-572-92c-2-7-21-21-41-31-32-16-37-23-37-52 0-19 5-46 10-61 10-25 9-26-12-20-13 3-58 9-100 13-77 6-78 6-79-18 0-15-6-5-14 26-13 47-13 51 8 73 44 48 130 79 220 81 35 1 48-3 45-11zm251-7c10-6 44-14 75-17 31-4 56-10 56-14l-6-38-6-31-147-4c-80-2-158-7-173-12-27-7-26-6 12 33 30 30 40 48 40 72v33l65-6c36-4 73-11 84-16zm431-25c0-30 4-35 28-39 23-3 22-4-8-6-50-2-144-53-148-80-4-26-3-26-53-1-34 18-39 24-33 43 11 37 44 77 63 77 10 0 26 9 36 20 13 15 31 20 67 20h48v-34zm-258-198c70-34 85-55 66-91-7-13-8-50-4-103 4-46 4-117 0-158l-7-76h-108l3-47 3-48h43c55 0 55-13 0-17l-43-3-3-47-3-48h35c25 0 36-4 36-15 0-8-9-15-20-15s-40-18-64-40l-44-40-72 41c-94 53-148 69-240 69-41 0-85 3-96 6l-22 6 25 61c14 34 29 80 35 102l24 105c17 72 31 109 82 220 19 41 43 95 52 120 22 55 39 61 165 55 76-3 100-9 157-37zm-647 0c17-7 25-19 25-36 0-23 3-24 50-20l50 3 15-44c14-41 13-49-9-125-14-45-27-97-31-116l-18-74-11-38-19 63c-18 61-68 280-83 362-7 41-6 42 31 25zm1039-260 30-153 32-151c6-24-15-34-78-34-31 0-38-4-46-27-7-18-11-22-11-10-1 13-10 17-39 17-40 0-127-25-150-43-20-16-22-6-12 68l20 190c17 184 1 165 135 165 111 0 115-1 119-22zm306-82c0-25-12-46-26-46-10 0-14-14-14-53v-54l-51-11c-28-7-54-10-59-7-4 3-18 41-30 86-18 67-19 83-8 90 7 5 52 9 101 9 68 0 87-3 87-14zm189-17c37-13 37-13 11-67-19-40-23-42-65-42-31 0-47-5-54-17-15-28-18-13-13 65l4 72h43c23 0 56-5 74-11zm-64-261c-33-74-62-128-78-147-8-9-17-24-20-33-6-18-42-25-51-10-3 5 7 47 22 95l27 87 51 15c29 8 54 22 58 30 3 8 8 15 10 15 3 0-6-24-19-52zm-701-144c9-8 21-24 26-35 10-17 7-19-29-19-59 0-71-8-71-45 0-53 9-65 46-65 29 0 34-4 34-23 0-12 11-42 24-67l24-45-39-17c-21-9-39-12-39-7 0 19-75 9-105-15l-29-24-23 72c-12 39-23 79-23 89 0 9-4 17-9 17-12 0 7 59 25 80 8 8 26 30 41 49 51 64 115 88 147 55zm597-227c19-12 38-35 44-51 8-25 7-31-13-44-12-8-22-20-22-26 0-17-140-11-151 6-5 7-9 27-9 45 0 25-5 33-30 42-41 14-38 20 8 14 28-4 47 1 73 16 43 27 58 26 100-2zm-547-257c18 0 45 9 59 20 36 28 55 25 28-4-28-29-151-96-197-106-27-6-37-4-55 16a74 74 0 0 1-55 24c-32 0-44 14-44 48 1 15 2 15 11 0 10-19 89-27 89-9 0 5 23 11 52 13 34 4 56 11 63 22 9 15 10 15 13-4 3-15 11-20 36-20z" />
  <g fill="#14120F">
    <path
      d="M1720 1896c0-7 10-16 23-20 35-9 207-7 207 3 0 5 30 13 68 18 59 9 46 10-115 12-150 1-183-2-183-13zm507 3c8-8 25-9 60-1l48 10-59 1c-44 1-57-2-49-10zm-152-17c-103-4-105-5-105-62v-50h83c45 0 99-3 120-6 36-6 37-6 37 24 0 17-6 32-15 36-19 7-19 25 1 47 15 17 14 18-22 16l-99-5z" />
    <path
      d="M2243 1869c-24-6-43-14-43-20 0-12 33-12 46 1 6 6 42 14 80 17 55 4 77 2 103-11 34-18 53-14 33 6-15 15-165 20-219 7zm-523-49v-43l38 7c20 3 72 6 115 6 74 0 77 1 77 24 0 28-12 31-143 42l-87 7v-43z" />
    <path
      d="m2300 1853-29-9c-11-4-10-8 5-19 22-17 80-20 89-5 3 6 15 10 26 10 10 0 19 4 19 9 0 17-73 27-110 14zm-80-52c0-16 6-21 25-21 16 0 25 6 25 15 0 8-4 15-9 15s-16 3-25 6c-12 4-16 0-16-15zm85-10c-3-6-3-11 2-11 4 0 1-5-7-10-10-7-11-10-2-10 7 0 15 7 19 15 7 19-2 31-12 16zm-577-28c-29-7-21-33 10-33 15 0 85-11 156-25 78-16 142-23 162-19 30 5 34 10 34 36v30l-72-4c-50-2-73 1-76 10-2 8-31 12-100 11-53-1-105-3-114-6zm496-14c-4-8-25-9-60-5-42 5-54 3-54-8 0-9 17-15 51-19 69-8 109 1 109 24 0 21-34 27-46 8zm71-10c-9-13-7-15 33-22 27-6 32-4 32 13 0 15-7 20-29 20-17 0-33-5-36-11zm-888-40c-67-16-135-59-157-100-6-10-3-37 6-70 8-30 19-83 24-119 26-159 118-532 131-525 11 7 55 140 79 240 11 50 28 103 36 119 19 38 18 46-8 122-17 46-27 63-38 60-48-14-80-17-80-8 0 6 15 14 33 18 32 7 32 7-23 21-58 15-89 33-54 32 10 0 53-6 94-14 41-7 79-11 84-8 9 6 3 76-9 105-5 13 2 20 28 32 39 16 57 41 57 80 0 26 0 26-82 25-46-1-100-5-121-10z" />
    <path
      d="M1640 1680c0-32-52-100-77-100-12 0-13-8-8-42l9-45 56 15c41 13 93 17 201 17h145l12 49c7 27 19 57 28 67 15 16 13 18-33 24-47 7-78 14-158 34-22 6-70 11-107 11h-68v-30zm468 3c-12-13-29-23-39-23-32 0-89-110-75-145 3-8 40-32 83-53 69-35 89-40 166-44 48-2 87-2 87 1-1 20-31 39-72 45-25 4-52 14-59 22-7 9-20 12-33 8-34-10-7 12 50 40 50 25 52 25 130 12 43-8 93-19 110-26 36-15 66-8 58 15-3 8-11 15-17 15-7 0-45 16-86 37-40 20-88 39-105 44-29 6-29 7-5 8 14 1 59-12 99-29 89-36 100-37 100-5 0 21-8 26-50 39-28 8-67 24-88 35-28 15-60 21-135 23-91 3-100 1-119-19z" />
    <path
      d="M2230 1525c-38-22-31-39 20-45 25-3 55-11 67-18s53-12 92-12c64 0 71 2 71 20 0 38-201 82-250 55zm-544-23c-22-5-32-17-45-52-10-25-32-74-49-110-60-127-81-188-103-304-10-51-65-201-82-224-19-25 12-35 125-43 130-8 159-16 248-67 50-29 67-46 76-70l10-32 58 65c38 43 68 68 87 72 23 4 30 12 34 37 43 269 60 459 43 486-10 15-10 26 0 53 13 36 15 70 6 102-3 13-30 33-74 54-65 32-77 34-187 37-65 2-131 0-147-4zm324-536c0-15-24-28-34-19-13 14-5 33 14 33 11 0 20-6 20-14zm-5-117c0-7-8-15-17-17-18-3-25 18-11 32 10 10 28 1 28-15zm337 574c2-14-5-19-29-21-29-3-33-7-33-32 0-16-3-31-8-33-4-3-7 9-7 26 0 22-5 32-15 32-19 0-25-41-10-61 17-19 5-18-14 2-9 8-16 26-16 40 0 17-5 24-20 24-17 0-20-7-20-50v-50l58-1c64-1 60-6-8-11-33-3-46-8-48-21-3-15 11-17 158-17 136 0 162 2 167 15 9 25-4 30-105 36-83 5-88 6-32 7 36 1 82 5 103 8 37 7 37 7 37 55 0 59-14 69-100 69-52 0-60-2-58-17zm104-38c8-31-12-57-40-53-13 2-22 12-24 26-5 36 5 52 32 52 19 0 27-7 32-25z" />
    <path
      d="M2397 1393c-11-10-8-41 4-49 16-9 43 21 36 40-7 16-28 21-40 9zm-267-7c0-14-7-44-16-66-12-31-14-44-5-54 11-13 6-82-29-387-16-139-16-139 28-139 21 0 42 4 47 9 10 8 102 41 117 41 4 0 8-7 8-15s7-15 15-15c22 0 29 64 17 155-6 49-7 84-1 89 5 6 9-2 9-21 0-18 5-35 10-38 6-3 10-43 10-88 1-70 3-80 14-64 7 9 26 17 42 17s45 3 65 6l36 6-14 52c-7 28-25 110-39 181l-30 153c-4 21-8 22-135 22h-131l4 87c2 63 0 87-9 90-8 3-13-5-13-21zm195-176c-3-5-15-10-26-10-10 0-19 5-19 10 0 6 12 10 26 10s23-4 19-10zm142-76c-16-5-17-12-12-47 7-37 53-209 58-213 1-1 39 8 85 19l82 22 1 55c1 36 3 47 8 32 5-21 8-17 21 25 13 40 15 44 18 22 3-24-18-120-34-164-15-37 78-1 112 44 10 13 16 13 38 3 32-14 56-16 56-2 0 5 11 33 24 62 40 90 41 97 9 109-15 6-59 15-98 20-87 11-344 20-368 13z" />
    <path
      d="M2795 886c-14-13-45-29-68-35l-42-10-33-108c-18-59-32-114-32-121s14-15 30-19c17-3 33-10 36-14 13-22 46-8 59 25a1172 1172 0 0 1 135 275c0 37-48 41-85 7zm-740-165c-53-9-76-23-114-68l-45-53c-8-8-18-28-21-43-4-16-20-38-36-49-26-20-29-28-29-77 0-108 28-136 44-45 11 68 18 84 23 59 8-38 53-177 64-197 10-19 11-19 28 8 20 33 51 61 51 47 0-6-8-18-19-27-10-9-21-31-25-47-10-53-33-29-80 86-24 59-24 59-32 30-4-16-3-76 3-134 8-82 14-107 28-117 26-19 45-17 45 3 0 13 6 11 29-11 28-27 34-28 83-22 77 11 199 77 248 136l40 48-25 6c-20 5-25 13-25 36 0 32-17 41-27 14-6-16-93-87-100-81-1 2 4 26 12 53l15 52c0 11-64-34-87-62-15-19-41-38-57-42l-29-7 8 39 9 53c2 8 9 17 16 19 9 3 11-1 6-14-18-43-24-74-15-74 5 0 26 16 46 37 35 34 103 72 129 73 7 0 4-16-9-40-28-57-14-61 33-10 50 55 52 76 5 84-45 9-86 70-93 139-4 44-6 47-33 47-21 0-29-5-29-17-1-16-2-16-11 1-14 23 3 36 47 36 34 0 44-13 44-58 0-56 20-102 51-118 17-8 32-14 34-12 1 2-1 30-5 63-12 95-106 268-144 264l-51-8zm535-157c-8-8-28-21-47-29-35-15-44-39-18-49 8-3 36 6 63 20 37 20 56 24 90 20 23-3 42-4 42-2s-17 15-38 30c-43 30-74 33-92 10zm-220-44c0-12 7-28 15-36 13-14 16-14 21 0 9 24 0 50-19 54-12 2-17-3-17-18z" />
    <path
      d="M2445 520c-18-28-63-120-59-120 2 0 13 5 23 12 16 9 28 7 70-13 46-21 51-27 51-56 0-33 41-93 65-93 7 0 15 9 18 20 7 28 44 25 59-5l13-25 33 23c17 12 32 27 32 33 0 5 13 20 30 32 26 20 28 25 18 42-16 25-26 25-55-2l-23-21v34c0 42-15 59-53 59-16 0-26 4-22 10 3 6 22 10 41 10 28 0 35 4 32 18-5 26-89 29-131 5-26-15-40-17-79-10-41 8-47 13-50 35-2 22-5 24-13 12zm361-129c-7-11 22-23 35-15 5 3 7 10 4 15-8 12-32 12-39 0z" />
    <path
      d="M2470 368c0-7-3-23-6-35-9-33 23-30 38 3 10 21 9 27-3 35-20 12-29 11-29-3zm322-50c-7-7-12-18-12-25 0-18 29-16 37 3 8 21-10 37-25 22zm-165-55c-14-13-7-81 8-87 28-10 45 4 39 33-13 52-30 72-47 54zm94-24c-17-14-21-23-14-30 16-16 47-7 51 15 6 29-11 36-37 15z" />
  </g>
  <path fill="#461816"
    d="M2247 1223c-4-3-7-31-7-62 0-45 4-60 26-82 22-23 24-29 13-47-10-16-10-39 0-114 6-51 8-94 4-95-4-2-5-49-2-105 9-153 26-199 82-231 36-21 53-10 43 27-4 17-13 26-26 26-30 0-53 43-44 82 4 18 7 55 6 81s5 63 13 83c8 19 15 52 16 72s9 44 16 53c12 15 11 20-11 44s-26 37-26 92c0 58-2 64-24 73-18 7-23 14-19 29 3 12 13 21 23 21 23 0 44 26 36 45-4 11-20 15-59 15-30 0-57-3-60-7zm413-730c-19-3-42-11-51-19-18-16-49-19-141-11-56 5-56 4-60-25-3-20-1-25 6-18 13 13 93 13 101-1 4-6 13-8 20-6 6 3 19-3 28-14 21-24 45-24 69-2 15 13 23 15 36 7 23-15 27-48 7-64-10-8-15-9-15-1 0 6-7 11-15 11s-15-9-15-20c0-13 7-20 19-20 11 0 23-4 26-10 12-19 45-10 83 25 22 19 43 31 48 27 5-3 3 0-3 8-7 8-13 26-13 40 0 33-23 66-60 85-16 8-30 14-32 13l-38-5zm146-102c-3-5 1-11 9-15 9-3 15 0 15 9 0 16-16 20-24 6z" />
</svg>