<svg xmlns="http://www.w3.org/2000/svg" id="root" viewBox="1252 70 1696 1840">
  <path
    d="M1730 1896c0-20 199-30 220-11 8 8 35 15 60 18 25 2-28 4-117 5-131 2-163-1-163-12zm500 5c0-8 79-3 89 5 2 2-17 4-42 4-26 0-47-4-47-9zm-217-28c-24-3-33-9-33-22 0-10-3-33-6-50l-6-31h232v24c0 14-5 28-11 32-6 3-9 17-6 30 4 24 3 24-67 22-39 0-86-3-103-5zm335 0c12-2 30-2 40 0 9 3-1 5-23 4-22 0-30-2-17-4zm-120-10c-10-2-18-9-18-14 0-12 3-12 36 6 28 14 19 18-18 8zm69-15c-35-9-36-11-20-24 23-17 61-18 96-1 33 15 34 23 5 31-28 7-33 7-81-6zm-575-33c-2-33 0-35 23-29 13 3 63 7 110 8 79 1 85 2 85 22 0 25-36 34-145 34h-70l-3-35zm508-20c0-8 7-15 15-15s15 7 15 15-7 15-15 15-15-7-15-15zm-472-32c-34-3-48-8-48-19 0-10 12-14 42-14 36 0 107-11 238-38 19-4 50-6 68-4 28 3 32 7 32 33v31l-75-7c-65-6-75-5-75 9 0 16-52 19-182 9zm472-12c0-14-30-18-69-10-19 4-40 5-45 1-16-9 31-20 92-21 46-1 52 1 52 19 0 11-7 20-15 20s-15-4-15-9zm60-19c0-6 16-12 35-14 22-2 34 0 32 6-4 14-67 21-67 8zm-835-32c-78-7-147-37-182-79-28-32-28-36-3-146l50-235c16-80 43-192 59-250l29-105 19 45c11 25 34 102 52 172s39 141 48 159c14 28 14 34 0 64-9 18-19 49-22 68-6 33-9 35-32 26-53-20-100-4-51 18 20 9 17 11-30 22-28 7-55 18-59 24-6 10 35 8 161-9l49-7-7 39-13 65c-4 24-1 28 26 34 33 7 61 46 61 85 0 22-18 24-155 10z"
  />
  <path
    d="M1640 1678c0-31-35-86-63-99-19-9-22-16-19-50 3-33 7-39 21-34 94 38 233 51 344 32 47-8 47-8 47 20 0 15 9 47 19 69l19 42-55 7c-31 4-76 13-102 21-25 7-83 14-128 14-79 0-83-1-83-22zm470 2c-6-10-22-20-37-22-22-2-33-13-50-48-13-24-23-58-23-75 0-28 6-34 78-69 67-34 88-39 160-43 81-4 83-3 72 17-8 15-21 20-54 20-27 0-48 6-56 15-7 8-21 15-31 15-11 0-19 5-19 10 0 6 4 10 10 10 5 0 26 12 47 26 34 23 44 25 98 20 33-3 92-15 130-26 83-24 75-23 75-7 0 15-168 97-198 97-10 0-27 7-38 15-18 14-17 14 12 15 18 0 57-12 87-26 31-14 73-28 93-31 31-5 36-4 32 13-2 12-23 25-65 40-34 11-70 27-79 35-12 10-49 14-126 15-96 2-110 0-118-16z"
  />
  <path
    d="M2232 1520c-37-20-34-25 23-35 22-4 52-14 66-23 32-18 159-9 159 12 0 13-77 40-145 51l-55 10c-8 2-30-5-48-15zm-570-32c-5-7-13-24-17-38s-25-61-46-106c-58-123-75-171-98-274-11-52-36-133-56-180-19-46-35-87-35-91 0-15 68-29 144-29 91 0 145-16 244-75 52-30 62-41 62-63 1-25 4-23 59 36 33 35 72 67 87 71 27 7 29 11 45 112 27 159 42 336 35 398-3 31-2 71 3 89 19 66 6 89-74 127-71 35-73 35-207 35-97 0-138-4-146-12zm347-512c9-10 8-16-4-26-19-16-41 1-32 24 8 20 21 20 36 2zm-1-128c-5-34-38-37-38-4 0 20 5 26 21 26 15 0 20-5 17-22zm354 584c-7-2-12-10-12-18 0-9-11-14-34-14-29 0-33-3-29-19 7-26-14-61-35-61-26 0-42 20-42 52 0 18-5 28-15 28-8 0-15-4-15-10 0-5 5-10 10-10 6 0 10-7 10-15s-7-15-15-15-15-9-15-20c0-19 6-20 123-19 67 0 140 3 162 7 38 7 40 9 43 47 1 22-1 45-5 51-8 11-109 24-131 16zm76-24c20-20 15-66-9-78-42-23-83 55-41 79 23 14 36 13 50-1zm-81-34c3-8 1-20-6-27-14-14-47 15-37 32 10 16 36 13 43-5zm125-9c0-5-5-11-11-13s-11 4-11 13 5 15 11 13 11-8 11-13z"
  />
  <path
    d="M2400 1376c0-30 15-42 24-20 10 27 7 44-9 44-9 0-15-9-15-24zm-270-2c0-22-7-50-16-62-14-20-14-26-2-44 11-16 12-35 7-77-5-31-15-128-24-216-8-88-18-174-21-191-6-30-4-32 30-36 20-2 39-1 44 3 4 3 34 16 67 27 44 15 63 17 73 9 24-19 34 13 28 92-5 65-4 72 9 61 12-10 14-24 9-59-3-25-1-57 5-71 5-14 10-20 10-14 1 7 29 15 66 19 36 3 67 10 69 14 3 4-3 41-14 82-10 41-21 94-25 119-3 25-10 59-15 75-5 17-11 51-15 78-6 47-6 47-45 47-24 0-40-5-44-15-3-8-14-15-25-15s-22-8-24-17c-3-11-5-8-6 9-1 26-4 27-58 30l-58 3-3 85c-3 86-22 141-22 64z"
  />
  <path
    d="M2235 1388c-8-21 0-48 14-48 16 0 20 28 6 47-13 17-14 17-20 1zm-33-105c-20-3-32-9-29-16 9-27 317-18 317 9 0 11-24 14-127 12-71 0-143-3-161-5zm285-150c-28-3-37-8-33-18 3-8 10-40 16-72 5-32 18-83 28-114l18-57 39 13 81 24 41 11-5 70c-3 46-1 70 6 70 6 0 12-15 15-32l3-33 9 33c7 31 21 49 31 39 4-3-2-36-34-176-4-21-2-22 19-16 13 4 41 21 63 37 34 28 41 30 72 20 34-10 34-10 53 33 36 82 45 115 35 125-29 29-321 57-457 43zm317-246c-16-14-49-31-74-40-37-12-46-20-53-48-4-19-12-43-17-54-8-17-40-123-40-131 0-5 91-44 101-44 5 0 9 5 9 12 0 6 10 25 23 42 29 39 127 239 127 260 0 9-4 16-9 16s-16 2-24 6c-8 3-27-6-43-19zm-780-175c-44-14-128-107-153-169-7-18-24-39-38-49-24-15-25-20-20-81 3-36 10-70 15-75 12-12 13-7 30 87 8 47 9 49 19 25 6-14 19-52 28-85s23-75 31-94l15-34 19 30c17 29 86 80 96 71 2-3-2-18-11-34-16-30-19-54-9-54 4 0 24 16 46 36 40 36 126 79 137 69 3-3 0-15-7-26s-18-32-23-47l-10-27 26 25c15 14 36 38 47 54 23 31 14 46-29 46-29 0-83 82-83 127 0 61-28 84-56 46-12-17-13-17-20 0-8 23 2 33 43 40 41 8 49-4 62-82 11-66 28-95 61-104 16-4 18-2 10 13-6 10-9 36-9 57 1 41-62 180-100 221-22 22-70 28-117 14zm570-146c-3-8-21-21-39-27-40-15-55-49-22-49 12 0 36 9 54 19 17 11 51 21 74 23l43 3-26 17c-41 27-77 33-84 14z"
  />
  <path
    d="M2442 507c-6-7-20-35-32-62-20-46-20-48-2-32 18 17 22 16 71-9 46-24 51-30 51-61 0-25 8-43 32-66l31-32 10 23c13 30 63 31 72 1 4-11 10-19 13-17l35 17c15 8 27 22 27 33 0 10 3 18 8 18 4 0 15 7 24 14 15 11 16 17 5 39-18 40-51 33-60-13-3-17-5-12-6 16-1 48-15 64-56 65-30 2-30 2 8 12 26 7 37 16 35 26-5 25-63 25-112 2-31-15-52-19-77-15-49 10-71 23-65 40 7 17 2 18-12 1z"
  />
  <path
    d="m2475 355-10-30c-2-8-1-15 3-15 14 0 32 24 32 42 0 22-19 24-25 3zm-606-10c-3-32-1-74 6-161 6-74 9-83 31-93 22-9 26-8 33 11 8 22 8 22 26-5 15-24 23-27 74-27 46 0 71 7 126 35 77 40 93 53 139 110 20 25 25 37 14 33-22-9-39 13-31 40 8 32-6 27-60-23-70-65-77-60-51 34 6 20 5 22-12 13-19-10-57-46-82-76-7-9-24-16-39-16-24 0-25 2-20 39 5 38 4 39-13 23-9-9-23-34-29-54-19-59-36-44-86 77-14 35-25 52-26 40zm922-39c-8-9-11-19-7-23 9-9 29 13 24 27-2 8-8 7-17-4zm-163-58c-2-6-2-24 0-40 5-34 42-41 42-7 0 40-32 77-42 47zm106-1c-3-9-12-17-20-17s-14-4-14-10c0-5 14-10 30-10 31 0 37 13 20 40-8 12-10 12-16-3z"
  />
  <path
    fill="#6C2727"
    d="M2258 1223c-15-4-18-16-18-61 0-46 4-60 26-83s24-29 13-47c-10-16-10-38-1-107 7-58 8-94 2-106-6-10-6-20-1-23s6-35 4-71c-7-86 26-196 69-226 30-22 58-20 58 4 0 19-26 40-39 33-5-4-17 4-26 16-12 19-14 39-10 108 9 123 12 142 26 150 6 5 9 17 6 29s-1 24 5 27c5 3 7 12 4 20s1 17 9 20c19 8 20 44 1 44-26 0-39 30-40 98-1 63-2 67-23 65-25-3-26 0-17 35 4 12 14 22 24 22 23 0 44 26 36 45-5 15-66 19-108 8zm398-733c-15-5-37-17-49-27-15-14-21-15-24-5-4 10-9 9-24-4-15-14-20-14-24-3-6 16-83 23-104 10-25-16-1-31 49-31 37 0 55-6 78-25 35-29 49-31 74-8 24 22 53 6 53-28 0-19-5-24-25-24-15 0-26-6-28-17-3-13 3-18 20-18 13 0 29-5 36-12 18-18 85 19 79 44-3 10-2 18 3 18 17 0 20 61 3 87-14 20-72 56-85 52l-32-9z"
  />
</svg>
