<svg id="root" xmlns="http://www.w3.org/2000/svg" width="768" height="441" viewBox="0 0 7680 4410">
  <g>
    <path
      d="M4822 3238c-27-27 2-120 51-166l23-22 40 21c33 18 51 20 124 16 179-11 349-106 408-230 18-36 21-38 21-17 1 39-52 122-114 178-100 92-258 173-412 212-88 23-124 25-141 8z" />
    <path
      d="M4969 3023c-12-3-18-21-22-62-9-82-45-175-112-287-51-87-56-98-45-119 18-34 7-53-44-75-25-10-53-31-63-46-24-37-64-157-55-166 4-4 25-11 47-16 22-6 90-29 150-52 90-35 121-42 171-40 37 1 77-5 99-14l36-16 53 58c99 106 129 147 162 217 53 115 104 298 104 375 0 51-31 110-72 140-96 69-322 127-409 103zm338-116c72-65 63-217-13-217-53 0-123 96-124 171 0 72 79 99 137 46z" />
    <path
      d="M5221 2876c-22-26 33-136 69-136 23 0 34 31 26 74-11 60-67 96-95 62zm-1028-48c-33-9-79-58-85-92-2-14 5-22 27-29 20-7 30-7 33 1 2 6 12 22 23 36 41 53 87 35 328-123 163-107 192-121 216-101 14 11 14 15-1 32-18 19-334 223-392 252-46 23-111 34-149 24zm-983-79c-195-21-402-43-460-49-269-27-377-103-409-286-11-70-35-334-30-338 2-1 112-22 244-45 132-24 278-51 325-61 133-29 764-145 870-160 30-4 264-47 520-94 256-48 564-105 685-127s233-42 248-45l29-6-16 30c-31 60-66 92-119 106-29 8-167 38-307 67-362 73-356 71-415 132-34 35-56 69-67 102l-15 50 4-115c5-104 4-117-14-139l-20-25-164 32c-196 38-265 57-273 77-3 8-8 176-12 375l-7 360 23 25c17 18 34 25 62 25 53 0 316-76 352-102l29-21-7 34c-13 68-24 74-223 139-255 84-323 100-407 99-39-1-231-19-426-40zm16-218c326-88 494-131 512-131 32 0 58-44 44-75-7-14-18-25-27-25-19 0-654 148-666 156-14 8-10 47 7 72 19 27 40 27 130 3zm81-142c87-23 220-56 295-74 151-36 191-54 186-87-7-47-22-45-360 33-344 79-367 88-346 133 10 23 24 32 55 35 7 0 84-17 170-40zm153-154c310-65 330-72 330-115 0-9-8-24-17-32-16-14-48-9-353 56-329 70-335 71-344 98-13 37 16 71 53 63 14-3 163-34 331-70zm-65-105c121-26 240-51 265-55 65-11 118-34 125-56 8-25-11-59-34-59-44 0-666 132-673 143-14 22-8 66 10 76 21 13 36 11 307-49z" />
    <path
      d="M3150 2486c14-8 75-26 135-40 61-15 180-44 266-66 85-22 164-40 175-40 19 1 19 1 0 12-24 13-552 148-580 148-19-1-19-2 4-14zm-17-117c9-6 49-17 88-25 38-8 160-37 271-64 110-28 212-50 226-50 44 0 11 19-53 31-33 5-155 35-271 65-198 51-305 69-261 43zm-17-108c-9-14 7-18 309-81 154-32 288-61 298-65 9-4 17-3 17 3 0 13-11 17-130 41-52 11-167 37-255 59-201 49-232 55-239 43zm-6-130c0-6 10-11 21-11 12 0 135-25 273-56 256-57 358-74 343-58-5 5-45 16-90 25s-163 35-262 58c-201 48-285 60-285 42zm1198 452c57-68 74-107 81-186 4-47 11-72 20-75 12-4 13 9 9 74-7 100-30 155-81 199-59 51-75 44-29-12zm-2353 0c-3-16-11-45-16-66-6-22-8-42-4-45 8-9 180-49 240-57 44-6 53-4 72 17 12 13 29 40 37 59l15 37-164 41c-91 22-167 41-170 41-2 0-7-12-10-27zm1925-347c0-261 3-367 11-372 17-10 298-63 338-64h34l-6 113c-4 61-10 214-13 340-5 142-11 233-18 243-11 14-298 104-332 104-12 0-14-58-14-364zm-1607 157c-14-14-34-23-52-23-37 0-51-22-58-95-5-50-4-53 18-57 41-5 53-48 41-140-12-85-39-147-80-185-22-20-24-28-16-51 7-20 16-27 34-27 54 0 98 157 123 440 8 88 14 160 13 161 0 0-11-10-23-23zm2050-213c3-66 13-147 23-179 15-56 64-131 85-131 6 0 8 3 6 8-2 4-8 91-11 195l-8 187 29 1c19 0 8 6-37 20-100 29-94 36-87-101z" />
    <path
      d="M1818 2182c-3-37-15-96-27-131s-21-65-19-66c2-2 75-15 163-30 88-14 167-28 176-31 26-7 61 86 67 177 4 69 2 77-14 82s-219 44-315 61c-26 5-26 4-31-62zm-64 27c-20-25-34-81-34-132 0-65 14-52 35 31 18 70 18 125-1 101zm2770-24c3-8 10-40 15-72 9-48 8-70-5-118-9-33-18-69-21-80-4-19 10-24 209-64 117-24 221-46 230-49 27-7 48 54 48 138 0 82-17 123-59 144-49 26-423 116-417 101zm-37-95c3-47 7-87 9-89 8-9 2 135-6 154-6 12-7-13-3-65zm510 23c-8-13 42-89 56-84 6 2 35 9 62 16 28 6 50 16 49 21-2 25-154 68-167 47zm-2711-150c-10-38-28-87-41-110l-23-42 57-6c31-3 72-10 91-16 19-5 117-22 218-38 151-23 186-25 201-15 23 17 57 96 66 154l6 45-273 48c-150 26-276 48-279 48-4-1-14-31-23-68zm2852 50c-32-8-19-19 17-15 19 2 32 8 29 13-5 9-17 10-46 2zm49-50c-14-13-7-75 12-111 17-32 112-130 233-241 32-29 40-32 53-21 19 16 22 10-131 216-115 155-143 181-167 157zm-140-17c-10-26 27-134 59-171 19-22 22-23 10-5-27 42-38 72-50 135-9 43-14 55-19 41zm-2122-39c-2-6-13-45-25-85-25-88-74-149-123-155-29-3-28-4 8-5 62-3 97 25 139 109 38 76 46 133 21 143-9 3-17 0-20-7zm82-14c-4-3-7-18-7-32s-14-55-30-89c-31-66-31-82-1-82 31 0 69 49 91 116 17 52 19 68 10 79-13 15-51 20-63 8zm118-70c-31-107-72-164-131-184-26-8-26-9 10-4 87 10 163 105 165 208 1 59-25 47-44-20zm81-6c-4-23-18-66-31-96-30-64-30-61-4-61 32 0 76 51 93 110 24 80 22 90-18 90-32 0-34-2-40-43z" />
    <path
      d="M3336 1824c-3-9-6-23-6-32 0-27-55-135-79-156-12-11-41-23-64-27-41-6-41-7 16-8 49-1 61 3 81 23 59 64 111 216 73 216-8 0-18-7-21-16zm1784 0c0-5 18-28 40-49s40-35 40-29c0 5-18 28-40 49s-40 35-40 29zm-1709-36c-11-30-45-116-58-145-3-8 3-13 14-13 29 0 72 51 89 105 20 69 19 85-10 85-18 0-27-8-35-32zm1595-2c-17-27-10-38 32-50 28-9 30 16 3 50l-19 24-16-24zm-1475-8c-4-13-16-47-27-76-26-76-59-111-114-121l-45-9 38-1c54-1 101 21 125 60 20 33 52 129 52 156 0 21-20 15-29-9zm76 5c-4-3-7-16-7-27 0-12-14-50-30-84-17-35-30-66-30-68s9-4 19-4c11 0 31 14 45 31 27 32 62 132 51 149-7 11-38 14-48 3z" />
    <path
      d="M3714 1733c-9-48-47-126-76-153-15-14-35-20-67-20-33 0-42-3-34-11 7-7 27-8 55-4 75 13 148 110 148 199 0 39-18 31-26-11zm67-25c-6-30-23-72-38-93l-26-38 54 7c30 4 72 10 94 13 44 5 636-84 760-115 57-14 71-21 73-38 3-19 16-24 136-43 73-11 148-21 165-21 18 0 40-4 49-9s38-12 64-15c44-7 50-5 84 26 29 28 37 42 38 74l1 39-70 13c-541 98-1247 228-1341 247-30 7-31 6-43-47zm-1479-11c-32-34-52-90-52-147 0-36 4-50 14-50 20 0 36 54 36 120 0 43 4 59 15 64 49 19 38-136-15-212-35-50-36-52-11-52 57 0 111 98 111 201 0 77-56 121-98 76zm2874-6c-3-4 3-16 14-26 19-18 20-17 20 8 0 26-22 38-34 18zm74-24c0-20 7-66 16-104 15-65 15-127-1-165-6-15-2-18 28-18 46 0 86 34 117 99l24 52-45 45c-24 25-65 64-91 86l-48 40v-35zm254-122c-22-29-24-38-14-50 15-18 61-20 78-3 26 26 8 88-24 88-7 0-25-16-40-35zm-1693-16c-24-5-46-11-50-14-9-10 14-39 40-52 27-13 723-113 785-113 45 0 64 14 64 46 0 27 35 19-402 89-365 58-367 58-437 44zm1162-234c-48-34-54-136-12-181 48-51 129-17 143 59 7 38-7 92-30 118-21 23-71 25-101 4zm81-47c22-31 20-60-5-92-24-31-40-33-64-6-22 24-22 62-1 95 20 31 50 32 70 3z" />
  </g>
</svg>