<svg xmlns="http://www.w3.org/2000/svg" id="root" viewBox="0 0 100 56">
  <g>
    <path
      d="M 80.355469 55.699219 C 79.652344 55 80.40625 52.589844 81.675781 51.394531 L 82.269531 50.824219 L 83.304688 51.371094 C 84.160156 51.835938 84.628906 51.886719 86.519531 51.785156 C 91.15625 51.5 95.558594 49.035156 97.085938 45.824219 C 97.554688 44.890625 97.632812 44.835938 97.632812 45.382812 C 97.65625 46.394531 96.285156 48.542969 94.679688 49.996094 C 92.089844 52.382812 87.996094 54.480469 84.007812 55.492188 C 81.726562 56.089844 80.792969 56.140625 80.355469 55.699219 Z M 80.355469 55.699219 "
    />
    <path
      d="M 84.160156 50.125 C 83.851562 50.046875 83.695312 49.582031 83.589844 48.519531 C 83.359375 46.394531 82.425781 43.980469 80.691406 41.078125 C 79.371094 38.824219 79.238281 38.539062 79.523438 37.992188 C 79.992188 37.113281 79.707031 36.621094 78.386719 36.050781 C 77.738281 35.789062 77.011719 35.246094 76.753906 34.855469 C 76.132812 33.898438 75.09375 30.789062 75.328125 30.554688 C 75.433594 30.449219 75.976562 30.269531 76.546875 30.140625 C 77.117188 29.984375 78.878906 29.386719 80.429688 28.792969 C 82.761719 27.882812 83.566406 27.703125 84.859375 27.753906 C 85.820312 27.78125 86.855469 27.625 87.425781 27.390625 L 88.359375 26.976562 L 89.730469 28.480469 C 92.296875 31.226562 93.074219 32.289062 93.925781 34.105469 C 95.300781 37.085938 96.621094 41.832031 96.621094 43.828125 C 96.621094 45.148438 95.816406 46.679688 94.757812 47.457031 C 92.269531 49.246094 86.414062 50.746094 84.160156 50.125 Z M 92.917969 47.117188 C 94.78125 45.433594 94.546875 41.492188 92.582031 41.492188 C 91.207031 41.492188 89.394531 43.980469 89.367188 45.925781 C 89.367188 47.792969 91.414062 48.492188 92.917969 47.117188 Z M 92.917969 47.117188 "
    />
    <path
      d="M 90.6875 46.316406 C 90.121094 45.640625 91.542969 42.789062 92.476562 42.789062 C 93.074219 42.789062 93.355469 43.59375 93.148438 44.707031 C 92.863281 46.261719 91.414062 47.195312 90.6875 46.316406 Z M 64.058594 45.070312 C 63.207031 44.835938 62.011719 43.566406 61.859375 42.6875 C 61.804688 42.324219 61.988281 42.117188 62.558594 41.933594 C 63.074219 41.753906 63.335938 41.753906 63.414062 41.960938 C 63.464844 42.117188 63.722656 42.53125 64.007812 42.894531 C 65.070312 44.265625 66.261719 43.800781 72.503906 39.703125 C 76.726562 36.929688 77.476562 36.566406 78.101562 37.085938 C 78.460938 37.371094 78.460938 37.476562 78.074219 37.917969 C 77.609375 38.410156 69.421875 43.695312 67.917969 44.449219 C 66.726562 45.042969 65.042969 45.328125 64.058594 45.070312 Z M 38.597656 43.023438 C 33.546875 42.476562 28.183594 41.90625 26.679688 41.753906 C 19.710938 41.050781 16.914062 39.082031 16.085938 34.339844 C 15.800781 32.523438 15.179688 25.679688 15.308594 25.578125 C 15.359375 25.550781 18.210938 25.007812 21.628906 24.410156 C 25.050781 23.789062 28.832031 23.089844 30.046875 22.828125 C 33.492188 22.078125 49.839844 19.070312 52.585938 18.679688 C 53.363281 18.578125 59.421875 17.460938 66.054688 16.246094 C 72.6875 15 80.664062 13.523438 83.796875 12.953125 C 86.933594 12.382812 89.835938 11.863281 90.222656 11.785156 L 90.972656 11.628906 L 90.558594 12.40625 C 89.757812 13.964844 88.851562 14.792969 87.476562 15.15625 C 86.726562 15.363281 83.152344 16.140625 79.523438 16.890625 C 70.148438 18.785156 70.304688 18.734375 68.773438 20.3125 C 67.894531 21.222656 67.324219 22.101562 67.039062 22.957031 L 66.652344 24.253906 L 66.753906 21.273438 C 66.882812 18.578125 66.859375 18.242188 66.390625 17.671875 L 65.875 17.023438 L 61.625 17.851562 C 56.546875 18.835938 54.761719 19.328125 54.554688 19.847656 C 54.476562 20.054688 54.347656 24.410156 54.242188 29.570312 L 54.0625 38.902344 L 54.65625 39.550781 C 55.097656 40.015625 55.539062 40.199219 56.261719 40.199219 C 57.636719 40.199219 64.449219 38.226562 65.382812 37.554688 L 66.132812 37.007812 L 65.949219 37.890625 C 65.613281 39.652344 65.328125 39.808594 60.175781 41.492188 C 53.570312 43.671875 51.808594 44.085938 49.632812 44.058594 C 48.621094 44.035156 43.648438 43.566406 38.597656 43.023438 Z M 39.011719 37.371094 C 47.457031 35.089844 51.808594 33.976562 52.273438 33.976562 C 53.101562 33.976562 53.777344 32.835938 53.414062 32.03125 C 53.230469 31.667969 52.949219 31.382812 52.714844 31.382812 C 52.222656 31.382812 35.773438 35.21875 35.460938 35.425781 C 35.101562 35.636719 35.203125 36.644531 35.644531 37.292969 C 36.136719 37.992188 36.679688 37.992188 39.011719 37.371094 Z M 41.109375 33.691406 C 43.363281 33.09375 46.808594 32.238281 48.75 31.773438 C 52.664062 30.839844 53.699219 30.371094 53.570312 29.515625 C 53.386719 28.296875 53 28.351562 44.242188 30.371094 C 35.332031 32.421875 34.738281 32.652344 35.28125 33.820312 C 35.539062 34.417969 35.902344 34.648438 36.707031 34.726562 C 36.886719 34.726562 38.882812 34.285156 41.109375 33.691406 Z M 45.074219 29.699219 C 53.101562 28.011719 53.621094 27.832031 53.621094 26.71875 C 53.621094 26.484375 53.414062 26.09375 53.179688 25.886719 C 52.765625 25.523438 51.9375 25.65625 44.035156 27.339844 C 35.515625 29.152344 35.359375 29.179688 35.125 29.878906 C 34.789062 30.839844 35.539062 31.71875 36.5 31.511719 C 36.859375 31.433594 40.722656 30.632812 45.074219 29.699219 Z M 43.390625 26.976562 C 46.523438 26.300781 49.605469 25.65625 50.253906 25.550781 C 51.9375 25.265625 53.308594 24.667969 53.492188 24.097656 C 53.699219 23.449219 53.207031 22.570312 52.609375 22.570312 C 51.472656 22.570312 35.359375 25.992188 35.175781 26.277344 C 34.816406 26.847656 34.96875 27.988281 35.4375 28.246094 C 35.980469 28.582031 36.367188 28.53125 43.390625 26.976562 Z M 43.390625 26.976562 "
    />
    <path
      d="M 37.042969 36.207031 C 37.40625 35.996094 38.984375 35.53125 40.539062 35.167969 C 42.121094 34.78125 45.203125 34.027344 47.429688 33.457031 C 49.632812 32.886719 51.679688 32.421875 51.964844 32.421875 C 52.457031 32.445312 52.457031 32.445312 51.964844 32.730469 C 51.339844 33.070312 37.664062 36.566406 36.9375 36.566406 C 36.445312 36.542969 36.445312 36.515625 37.042969 36.207031 Z M 36.601562 33.171875 C 36.835938 33.015625 37.871094 32.730469 38.882812 32.523438 C 39.867188 32.316406 43.027344 31.566406 45.902344 30.863281 C 48.75 30.140625 51.394531 29.570312 51.753906 29.570312 C 52.894531 29.570312 52.039062 30.0625 50.382812 30.371094 C 49.527344 30.503906 46.367188 31.28125 43.363281 32.058594 C 38.234375 33.378906 35.460938 33.847656 36.601562 33.171875 Z M 36.160156 30.371094 C 35.929688 30.007812 36.34375 29.90625 44.164062 28.273438 C 48.15625 27.441406 51.625 26.691406 51.886719 26.585938 C 52.117188 26.484375 52.324219 26.511719 52.324219 26.664062 C 52.324219 27.003906 52.039062 27.105469 48.957031 27.726562 C 47.609375 28.011719 44.632812 28.6875 42.351562 29.257812 C 37.144531 30.527344 36.34375 30.683594 36.160156 30.371094 Z M 36.007812 27.003906 C 36.007812 26.847656 36.265625 26.71875 36.550781 26.71875 C 36.859375 26.71875 40.046875 26.070312 43.621094 25.265625 C 50.253906 23.789062 52.894531 23.347656 52.507812 23.761719 C 52.378906 23.890625 51.339844 24.175781 50.175781 24.410156 C 49.011719 24.644531 45.953125 25.316406 43.390625 25.914062 C 38.183594 27.15625 36.007812 27.46875 36.007812 27.003906 Z M 67.039062 38.71875 C 68.515625 36.957031 68.957031 35.945312 69.136719 33.898438 C 69.242188 32.679688 69.421875 32.03125 69.65625 31.953125 C 69.964844 31.851562 69.992188 32.1875 69.886719 33.871094 C 69.707031 36.464844 69.109375 37.890625 67.789062 39.03125 C 66.261719 40.351562 65.847656 40.171875 67.039062 38.71875 Z M 6.085938 38.71875 C 6.007812 38.304688 5.800781 37.554688 5.671875 37.007812 C 5.515625 36.4375 5.464844 35.921875 5.570312 35.84375 C 5.777344 35.609375 10.230469 34.570312 11.785156 34.363281 C 12.925781 34.210938 13.160156 34.261719 13.652344 34.804688 C 13.960938 35.140625 14.402344 35.84375 14.609375 36.335938 L 15 37.292969 L 10.75 38.355469 C 8.394531 38.925781 6.425781 39.417969 6.347656 39.417969 C 6.292969 39.417969 6.164062 39.109375 6.085938 38.71875 Z M 55.953125 29.722656 C 55.953125 22.957031 56.03125 20.210938 56.238281 20.082031 C 56.675781 19.820312 63.957031 18.449219 64.992188 18.421875 L 65.875 18.421875 L 65.71875 21.351562 C 65.613281 22.933594 65.457031 26.898438 65.382812 30.164062 C 65.25 33.847656 65.097656 36.207031 64.914062 36.464844 C 64.628906 36.828125 57.195312 39.160156 56.316406 39.160156 C 56.003906 39.160156 55.953125 37.65625 55.953125 29.722656 Z M 14.324219 33.792969 C 13.960938 33.429688 13.445312 33.199219 12.976562 33.199219 C 12.019531 33.199219 11.65625 32.628906 11.476562 30.734375 C 11.347656 29.4375 11.371094 29.363281 11.941406 29.257812 C 13.003906 29.128906 13.316406 28.011719 13.003906 25.628906 C 12.691406 23.425781 11.992188 21.816406 10.929688 20.832031 C 10.363281 20.3125 10.308594 20.105469 10.515625 19.511719 C 10.699219 18.992188 10.929688 18.8125 11.398438 18.8125 C 12.796875 18.8125 13.9375 22.878906 14.582031 30.21875 C 14.792969 32.5 14.945312 34.363281 14.921875 34.390625 C 14.921875 34.390625 14.636719 34.132812 14.324219 33.792969 Z M 67.425781 28.273438 C 67.503906 26.5625 67.765625 24.460938 68.023438 23.632812 C 68.410156 22.179688 69.679688 20.238281 70.226562 20.238281 C 70.378906 20.238281 70.433594 20.3125 70.378906 20.445312 C 70.328125 20.546875 70.171875 22.804688 70.09375 25.5 L 69.886719 30.347656 L 70.640625 30.371094 C 71.132812 30.371094 70.847656 30.527344 69.679688 30.890625 C 67.089844 31.644531 67.246094 31.824219 67.425781 28.273438 Z M 67.425781 28.273438 "
    />
    <path
      d="M 2.539062 28.324219 C 2.460938 27.367188 2.148438 25.835938 1.839844 24.929688 C 1.527344 24.019531 1.296875 23.242188 1.347656 23.21875 C 1.398438 23.164062 3.289062 22.828125 5.570312 22.441406 C 7.847656 22.078125 9.894531 21.714844 10.128906 21.636719 C 10.800781 21.453125 11.707031 23.867188 11.863281 26.226562 C 11.96875 28.011719 11.914062 28.222656 11.5 28.351562 C 11.085938 28.480469 5.828125 29.492188 3.339844 29.933594 C 2.667969 30.0625 2.667969 30.035156 2.539062 28.324219 Z M 0.878906 29.023438 C 0.363281 28.375 0 26.925781 0 25.601562 C 0 23.917969 0.363281 24.253906 0.90625 26.40625 C 1.371094 28.222656 1.371094 29.648438 0.878906 29.023438 Z M 72.632812 28.402344 C 72.710938 28.195312 72.894531 27.367188 73.023438 26.535156 C 73.257812 25.292969 73.230469 24.722656 72.894531 23.476562 C 72.660156 22.621094 72.425781 21.6875 72.347656 21.402344 C 72.246094 20.910156 72.609375 20.78125 77.761719 19.742188 C 80.792969 19.121094 83.488281 18.550781 83.722656 18.472656 C 84.421875 18.292969 84.964844 19.875 84.964844 22.050781 C 84.964844 24.175781 84.523438 25.238281 83.4375 25.785156 C 82.167969 26.457031 72.480469 28.792969 72.632812 28.402344 Z M 71.675781 25.941406 C 71.753906 24.722656 71.855469 23.683594 71.910156 23.632812 C 72.117188 23.398438 71.960938 27.132812 71.753906 27.625 C 71.597656 27.9375 71.570312 27.289062 71.675781 25.941406 Z M 84.886719 26.535156 C 84.679688 26.199219 85.976562 24.230469 86.335938 24.359375 C 86.492188 24.410156 87.242188 24.589844 87.941406 24.773438 C 88.667969 24.929688 89.238281 25.1875 89.210938 25.316406 C 89.160156 25.964844 85.222656 27.082031 84.886719 26.535156 Z M 14.660156 22.648438 C 14.402344 21.664062 13.9375 20.390625 13.597656 19.796875 L 13.003906 18.707031 L 14.480469 18.550781 C 15.285156 18.472656 16.34375 18.292969 16.835938 18.136719 C 17.328125 18.007812 19.867188 17.566406 22.484375 17.152344 C 26.394531 16.554688 27.300781 16.503906 27.691406 16.761719 C 28.285156 17.203125 29.167969 19.25 29.402344 20.753906 L 29.554688 21.921875 L 22.484375 23.164062 C 18.597656 23.839844 15.335938 24.410156 15.257812 24.410156 C 15.152344 24.382812 14.894531 23.605469 14.660156 22.648438 Z M 88.539062 23.945312 C 87.710938 23.734375 88.046875 23.449219 88.980469 23.554688 C 89.472656 23.605469 89.808594 23.761719 89.730469 23.890625 C 89.601562 24.125 89.289062 24.152344 88.539062 23.945312 Z M 89.808594 22.648438 C 89.445312 22.308594 89.628906 20.703125 90.121094 19.769531 C 90.558594 18.941406 93.019531 16.398438 96.15625 13.523438 C 96.984375 12.769531 97.191406 12.691406 97.527344 12.976562 C 98.019531 13.394531 98.097656 13.238281 94.132812 18.578125 C 91.15625 22.59375 90.429688 23.269531 89.808594 22.648438 Z M 86.183594 22.207031 C 85.921875 21.53125 86.882812 18.734375 87.710938 17.773438 C 88.203125 17.203125 88.28125 17.175781 87.96875 17.644531 C 87.269531 18.734375 86.984375 19.511719 86.675781 21.144531 C 86.441406 22.257812 86.3125 22.570312 86.183594 22.207031 Z M 31.214844 21.195312 C 31.164062 21.039062 30.878906 20.027344 30.566406 18.992188 C 29.917969 16.710938 28.648438 15.128906 27.378906 14.972656 C 26.628906 14.894531 26.65625 14.871094 27.585938 14.84375 C 29.195312 14.765625 30.101562 15.492188 31.1875 17.671875 C 32.171875 19.640625 32.378906 21.117188 31.730469 21.378906 C 31.5 21.453125 31.292969 21.378906 31.214844 21.195312 Z M 33.339844 20.832031 C 33.234375 20.753906 33.15625 20.367188 33.15625 20.003906 C 33.15625 19.640625 32.792969 18.578125 32.378906 17.695312 C 31.578125 15.984375 31.578125 15.570312 32.355469 15.570312 C 33.15625 15.570312 34.140625 16.839844 34.710938 18.578125 C 35.152344 19.925781 35.203125 20.339844 34.96875 20.625 C 34.632812 21.015625 33.648438 21.144531 33.339844 20.832031 Z M 36.394531 19.019531 C 35.59375 16.246094 34.53125 14.765625 33 14.25 C 32.328125 14.039062 32.328125 14.015625 33.261719 14.144531 C 35.515625 14.402344 37.484375 16.867188 37.535156 19.535156 C 37.558594 21.066406 36.886719 20.753906 36.394531 19.019531 Z M 38.492188 18.863281 C 38.390625 18.265625 38.027344 17.152344 37.691406 16.375 C 36.914062 14.714844 36.914062 14.792969 37.585938 14.792969 C 38.414062 14.792969 39.554688 16.113281 39.996094 17.644531 C 40.617188 19.71875 40.566406 19.976562 39.527344 19.976562 C 38.699219 19.976562 38.648438 19.925781 38.492188 18.863281 Z M 38.492188 18.863281 "
    />
    <path
      d="M 41.859375 19.042969 C 41.78125 18.8125 41.707031 18.449219 41.707031 18.214844 C 41.707031 17.515625 40.28125 14.714844 39.660156 14.171875 C 39.347656 13.886719 38.597656 13.574219 38 13.46875 C 36.9375 13.316406 36.9375 13.289062 38.414062 13.261719 C 39.683594 13.238281 39.996094 13.339844 40.511719 13.859375 C 42.042969 15.519531 43.390625 19.457031 42.40625 19.457031 C 42.195312 19.457031 41.9375 19.277344 41.859375 19.042969 Z M 88.074219 19.042969 C 88.074219 18.914062 88.539062 18.316406 89.109375 17.773438 C 89.679688 17.230469 90.144531 16.867188 90.144531 17.023438 C 90.144531 17.152344 89.679688 17.746094 89.109375 18.292969 C 88.539062 18.835938 88.074219 19.199219 88.074219 19.042969 Z M 43.804688 18.109375 C 43.519531 17.332031 42.636719 15.105469 42.300781 14.351562 C 42.222656 14.144531 42.378906 14.015625 42.664062 14.015625 C 43.414062 14.015625 44.527344 15.335938 44.96875 16.738281 C 45.488281 18.527344 45.460938 18.941406 44.710938 18.941406 C 44.242188 18.941406 44.011719 18.734375 43.804688 18.109375 Z M 85.121094 18.058594 C 84.679688 17.359375 84.859375 17.074219 85.949219 16.761719 C 86.675781 16.53125 86.726562 17.175781 86.027344 18.058594 L 85.535156 18.679688 Z M 46.910156 17.851562 C 46.808594 17.515625 46.496094 16.632812 46.210938 15.882812 C 45.539062 13.910156 44.683594 13.003906 43.257812 12.746094 L 42.09375 12.511719 L 43.078125 12.484375 C 44.476562 12.460938 45.695312 13.03125 46.316406 14.039062 C 46.835938 14.894531 47.664062 17.386719 47.664062 18.085938 C 47.664062 18.628906 47.144531 18.472656 46.910156 17.851562 Z M 48.878906 17.980469 C 48.777344 17.902344 48.699219 17.566406 48.699219 17.28125 C 48.699219 16.96875 48.335938 15.984375 47.921875 15.105469 C 47.480469 14.195312 47.144531 13.394531 47.144531 13.339844 C 47.144531 13.289062 47.378906 13.238281 47.636719 13.238281 C 47.921875 13.238281 48.441406 13.601562 48.800781 14.039062 C 49.503906 14.871094 50.410156 17.460938 50.125 17.902344 C 49.941406 18.1875 49.140625 18.265625 48.878906 17.980469 Z M 48.878906 17.980469 "
    />
    <path
      d="M 51.652344 16.683594 C 51.417969 15.441406 50.433594 13.417969 49.683594 12.71875 C 49.292969 12.355469 48.777344 12.199219 47.949219 12.199219 C 47.09375 12.199219 46.859375 12.121094 47.066406 11.914062 C 47.25 11.734375 47.765625 11.707031 48.492188 11.8125 C 50.433594 12.148438 52.324219 14.664062 52.324219 16.96875 C 52.324219 17.980469 51.859375 17.773438 51.652344 16.683594 Z M 53.386719 16.035156 C 53.230469 15.257812 52.792969 14.171875 52.402344 13.625 L 51.730469 12.640625 L 53.128906 12.824219 C 53.90625 12.925781 54.992188 13.082031 55.5625 13.160156 C 56.703125 13.289062 72.039062 10.980469 75.25 10.179688 C 76.726562 9.816406 77.089844 9.632812 77.140625 9.195312 C 77.21875 8.699219 77.554688 8.570312 80.664062 8.078125 C 82.554688 7.792969 84.5 7.535156 84.9375 7.535156 C 85.40625 7.535156 85.976562 7.429688 86.207031 7.300781 C 86.441406 7.171875 87.191406 6.988281 87.867188 6.914062 C 89.003906 6.730469 89.160156 6.78125 90.042969 7.585938 C 90.792969 8.3125 91 8.675781 91.027344 9.503906 L 91.050781 10.515625 L 89.238281 10.851562 C 75.222656 13.394531 56.9375 16.761719 54.5 17.253906 C 53.722656 17.4375 53.699219 17.410156 53.386719 16.035156 Z M 15.074219 15.75 C 14.246094 14.871094 13.730469 13.417969 13.730469 11.941406 C 13.730469 11.007812 13.832031 10.644531 14.089844 10.644531 C 14.609375 10.644531 15.023438 12.046875 15.023438 13.753906 C 15.023438 14.871094 15.128906 15.285156 15.414062 15.414062 C 16.683594 15.90625 16.398438 11.890625 15.023438 9.917969 C 14.117188 8.625 14.089844 8.570312 14.738281 8.570312 C 16.214844 8.570312 17.613281 11.113281 17.613281 13.78125 C 17.613281 15.777344 16.164062 16.917969 15.074219 15.75 Z M 89.523438 15.597656 C 89.445312 15.492188 89.601562 15.179688 89.886719 14.921875 C 90.378906 14.457031 90.402344 14.480469 90.402344 15.128906 C 90.402344 15.804688 89.835938 16.113281 89.523438 15.597656 Z M 91.441406 14.972656 C 91.441406 14.457031 91.621094 13.261719 91.855469 12.277344 C 92.242188 10.59375 92.242188 8.984375 91.828125 8 C 91.671875 7.613281 91.777344 7.535156 92.554688 7.535156 C 93.746094 7.535156 94.78125 8.414062 95.585938 10.101562 L 96.207031 11.449219 L 95.039062 12.617188 C 94.417969 13.261719 93.355469 14.273438 92.683594 14.84375 L 91.441406 15.882812 Z M 98.019531 11.8125 C 97.449219 11.058594 97.398438 10.828125 97.65625 10.515625 C 98.046875 10.050781 99.238281 9.996094 99.679688 10.4375 C 100.351562 11.113281 99.886719 12.71875 99.054688 12.71875 C 98.875 12.71875 98.410156 12.304688 98.019531 11.8125 Z M 54.164062 11.398438 C 53.542969 11.265625 52.972656 11.113281 52.871094 11.035156 C 52.636719 10.773438 53.230469 10.023438 53.90625 9.6875 C 54.605469 9.347656 72.632812 6.757812 74.242188 6.757812 C 75.40625 6.757812 75.898438 7.121094 75.898438 7.949219 C 75.898438 8.648438 76.804688 8.441406 65.484375 10.257812 C 56.03125 11.761719 55.976562 11.761719 54.164062 11.398438 Z M 84.265625 5.332031 C 83.023438 4.449219 82.867188 1.804688 83.953125 0.640625 C 85.199219 -0.683594 87.296875 0.199219 87.660156 2.167969 C 87.839844 3.152344 87.476562 4.554688 86.882812 5.226562 C 86.335938 5.824219 85.042969 5.875 84.265625 5.332031 Z M 86.363281 4.113281 C 86.933594 3.308594 86.882812 2.558594 86.234375 1.726562 C 85.613281 0.925781 85.199219 0.871094 84.574219 1.570312 C 84.007812 2.195312 84.007812 3.179688 84.550781 4.035156 C 85.066406 4.839844 85.84375 4.863281 86.363281 4.113281 Z M 86.363281 4.113281 "
    />
  </g>
</svg>
