<svg xmlns="http://www.w3.org/2000/svg" id="root" viewBox="0 0 100 112">
  <g>
    <path
      d="M 0 111.863281 C 0 111.78125 0.1875 111.328125 0.425781 110.902344 C 0.640625 110.453125 0.773438 110.027344 0.71875 109.972656 C 0.640625 109.894531 0.878906 108.800781 1.226562 107.523438 C 2.53125 102.894531 3.96875 96.617188 4.394531 93.769531 C 4.847656 90.710938 6.097656 86.988281 8.070312 82.730469 C 9.453125 79.75 10.121094 77.199219 10.121094 74.75 C 10.121094 71.53125 11.824219 60.570312 12.78125 57.539062 C 13.902344 53.945312 15.820312 49.183594 16.992188 46.949219 L 17.976562 45.113281 L 20.90625 43.835938 C 22.53125 43.144531 23.996094 42.585938 24.179688 42.558594 C 24.847656 42.558594 38.667969 35.800781 39.628906 35.03125 C 39.839844 34.84375 39.945312 34.285156 39.894531 33.410156 L 39.8125 32.050781 L 36.832031 32.15625 C 33.875 32.238281 33.875 32.238281 33.769531 31.625 C 33.714844 31.121094 33.503906 30.960938 32.835938 30.90625 C 31.984375 30.828125 31.957031 30.800781 31.957031 29.496094 C 31.957031 28.753906 31.824219 27.902344 31.636719 27.582031 C 31.453125 27.261719 31.292969 26.652344 31.238281 26.199219 C 30.839844 22.101562 30.839844 22.101562 30.226562 21.703125 C 29.109375 20.957031 29.160156 20.371094 30.492188 18.457031 C 31.398438 17.179688 31.664062 16.621094 31.453125 16.410156 C 31.132812 16.089844 31.050781 14.066406 31.316406 13.082031 C 31.476562 12.523438 31.53125 12.5 31.957031 12.898438 C 32.25 13.164062 32.78125 13.296875 33.34375 13.242188 C 34.0625 13.191406 34.273438 13.003906 34.515625 12.285156 C 34.671875 11.804688 35.101562 11.140625 35.5 10.820312 C 35.898438 10.503906 36.324219 9.945312 36.429688 9.570312 C 36.671875 8.90625 36.699219 8.90625 37.125 9.917969 C 37.46875 10.796875 37.628906 10.929688 38.269531 10.847656 C 38.800781 10.796875 39.148438 10.503906 39.46875 9.835938 C 39.972656 8.828125 40 8.851562 40.054688 10.636719 L 40.078125 11.832031 L 41.277344 11.804688 C 42.023438 11.804688 43.460938 11.40625 45.007812 10.769531 C 47.722656 9.679688 49.402344 9.386719 50.839844 9.757812 C 52.089844 10.078125 52.089844 10.394531 50.8125 11.035156 C 50.199219 11.328125 49.535156 11.9375 49.292969 12.390625 C 49.027344 12.871094 48.496094 13.617188 48.097656 14.121094 C 47.429688 14.890625 47.375 15.132812 47.535156 16.195312 C 47.910156 18.695312 48.601562 18.9375 50.757812 17.261719 C 51.769531 16.488281 52.332031 16.222656 52.730469 16.355469 C 54.085938 16.78125 54.085938 19.308594 52.730469 20.613281 C 51.878906 21.4375 51.691406 22.472656 52.25 23.484375 C 52.808594 24.574219 54.195312 26.117188 54.753906 26.332031 C 55.152344 26.492188 55.367188 26.863281 55.472656 27.582031 C 55.578125 28.140625 55.898438 29.125 56.21875 29.789062 C 56.859375 31.066406 56.882812 31.519531 56.589844 34.5 C 56.40625 36.308594 56.429688 36.46875 57.070312 37.210938 C 57.417969 37.636719 57.871094 38.621094 58.054688 39.339844 C 58.347656 40.617188 58.347656 40.722656 57.816406 41.175781 C 57.175781 41.65625 57.042969 42.347656 57.363281 43.304688 C 57.550781 43.863281 57.335938 44.15625 55.953125 45.433594 C 54.035156 47.214844 53.820312 48.09375 55.101562 48.839844 L 55.871094 49.289062 L 55.3125 50.167969 C 54.992188 50.621094 54.378906 51.445312 53.953125 51.976562 C 52.917969 53.308594 52.863281 54.746094 53.847656 55.304688 C 54.566406 55.703125 54.59375 55.703125 56.21875 54.851562 C 56.324219 54.824219 56.378906 55.25 56.351562 55.808594 C 56.351562 56.394531 56.484375 57.058594 56.699219 57.296875 C 57.203125 57.910156 58.347656 57.855469 58.507812 57.191406 C 58.667969 56.578125 59.121094 56.472656 59.121094 57.03125 C 59.121094 57.21875 59.308594 57.539062 59.546875 57.75 C 59.785156 57.9375 59.921875 58.335938 59.839844 58.707031 C 59.707031 59.398438 60.265625 62.085938 60.90625 63.789062 C 61.144531 64.402344 61.25 64.988281 61.171875 65.09375 C 61.066406 65.171875 60.90625 65.039062 60.800781 64.773438 C 60.71875 64.480469 60.132812 63.789062 59.519531 63.203125 C 58.933594 62.59375 58.242188 61.820312 58.027344 61.476562 C 57.65625 60.917969 57.390625 60.808594 56.164062 60.808594 C 54.753906 60.78125 54.726562 60.808594 54.648438 61.582031 C 54.59375 62.085938 54.992188 63.417969 55.660156 64.988281 C 56.246094 66.394531 56.722656 67.914062 56.722656 68.339844 C 56.722656 69.003906 56.964844 69.296875 57.976562 69.988281 C 58.695312 70.464844 59.785156 71.425781 60.398438 72.144531 C 61.835938 73.738281 62.34375 74.03125 63.195312 73.710938 C 64.472656 73.207031 65.914062 66.6875 65.246094 64.375 C 65.113281 63.921875 65.085938 63.578125 65.191406 63.578125 C 65.832031 63.601562 67.589844 64.933594 67.960938 65.703125 C 68.414062 66.582031 69.320312 67.195312 69.773438 66.902344 C 69.90625 66.820312 70.09375 67.195312 70.171875 67.753906 C 70.28125 68.3125 70.414062 69.082031 70.464844 69.484375 C 70.597656 70.199219 70.011719 71.449219 68.496094 73.765625 C 67.9375 74.617188 67.804688 74.695312 67.535156 74.324219 C 67.324219 74.058594 66.925781 73.953125 66.3125 74.003906 C 65.511719 74.085938 65.378906 74.191406 65.300781 74.882812 C 65.246094 75.363281 65.351562 75.761719 65.621094 75.972656 C 66.179688 76.371094 65.992188 76.425781 63.515625 76.851562 C 61.039062 77.277344 58.855469 78.421875 58.269531 79.566406 C 57.683594 80.710938 57.65625 81.828125 58.214844 82.144531 C 58.773438 82.4375 56.246094 82.730469 52.941406 82.730469 C 50.09375 82.730469 48.46875 83.371094 48.46875 84.460938 C 48.46875 84.859375 48.308594 85.125 48.070312 85.125 C 47.324219 85.125 47.082031 86.109375 47.484375 87.519531 C 47.695312 88.265625 47.855469 88.851562 47.804688 88.851562 C 47.777344 88.851562 47.429688 88.371094 47.03125 87.757812 C 46.339844 86.722656 46.285156 86.695312 44.925781 86.773438 C 43.570312 86.855469 43.542969 86.855469 43.382812 87.839844 C 43.222656 88.851562 43.328125 89.222656 44.554688 92.253906 C 45.699219 95.023438 45.671875 95.074219 43.808594 95.101562 L 42.210938 95.101562 L 42.238281 96.164062 C 42.261719 97.707031 43.328125 100.261719 44.367188 101.351562 C 44.875 101.886719 45.273438 102.523438 45.273438 102.761719 C 45.273438 103.027344 45.566406 103.535156 45.9375 103.90625 C 46.578125 104.546875 47.402344 106.78125 47.402344 107.898438 C 47.402344 108.242188 47.777344 108.882812 48.203125 109.335938 C 48.976562 110.132812 49.160156 110.746094 48.839844 111.570312 C 48.707031 111.941406 47.960938 111.996094 43.25 111.996094 L 37.816406 111.996094 L 37.816406 111.382812 C 37.816406 110.078125 36.964844 108.21875 36.164062 107.765625 C 35.605469 107.445312 35.445312 107.207031 35.550781 106.808594 C 36.21875 104.546875 35.898438 102.605469 34.859375 102.46875 C 34.273438 102.390625 34.222656 102.285156 34.300781 101.539062 C 34.378906 100.847656 34.246094 100.527344 33.582031 99.941406 C 32.464844 98.957031 32.304688 98.109375 33.023438 97.097656 C 33.554688 96.351562 33.609375 96.03125 33.449219 94.675781 C 33.261719 92.8125 31.902344 90.179688 31.160156 90.179688 C 30.574219 90.179688 29.988281 88.769531 28.574219 83.929688 C 28.070312 82.171875 27.191406 79.726562 26.605469 78.472656 C 26.046875 77.222656 25.566406 76.027344 25.566406 75.8125 C 25.566406 75.46875 25.539062 75.46875 25.300781 75.8125 C 25.167969 76.027344 25.035156 76.480469 25.035156 76.824219 C 25.035156 77.222656 24.875 77.410156 24.5 77.410156 C 24.207031 77.410156 23.96875 77.222656 23.96875 77.011719 C 23.96875 76.796875 23.726562 76.503906 23.433594 76.347656 C 23.140625 76.1875 22.742188 75.65625 22.53125 75.175781 C 22.34375 74.695312 21.730469 73.6875 21.171875 72.941406 C 20.371094 71.824219 20.027344 71.558594 19.441406 71.558594 C 19.015625 71.558594 18.613281 71.664062 18.507812 71.796875 C 18.214844 72.277344 17.523438 78.339844 17.683594 79.246094 C 17.761719 79.726562 18.003906 80.335938 18.214844 80.574219 C 18.429688 80.816406 18.667969 81.375 18.773438 81.800781 C 18.960938 82.597656 18.960938 82.597656 17.871094 81.453125 C 17.015625 80.550781 16.617188 80.308594 16.03125 80.390625 C 15.339844 80.46875 15.3125 80.550781 15.234375 82.117188 C 15.179688 83.316406 15.339844 84.300781 15.820312 85.710938 C 16.164062 86.773438 16.511719 88.15625 16.589844 88.769531 C 16.75 90.074219 18.027344 92.335938 18.828125 92.679688 C 20.132812 93.292969 20.078125 93.664062 18.1875 97.816406 C 17.203125 99.996094 15.980469 102.417969 15.472656 103.214844 L 14.539062 104.679688 L 14.300781 103.480469 C 14.167969 102.816406 13.742188 101.859375 13.367188 101.351562 C 12.996094 100.847656 12.355469 99.835938 11.984375 99.09375 C 11.371094 97.894531 11.238281 97.761719 10.414062 97.761719 C 9.535156 97.761719 9.453125 97.839844 8.230469 100.316406 C 7.511719 101.699219 6.710938 103.746094 6.445312 104.839844 C 5.964844 106.648438 4.660156 109.359375 3.914062 110 C 3.726562 110.160156 3.382812 110.636719 3.140625 111.0625 C 2.742188 111.753906 2.53125 111.863281 1.359375 111.941406 C 0.613281 111.996094 0 111.941406 0 111.863281 Z M 53.875 65.039062 C 53.847656 63.867188 53.742188 63.65625 52.730469 62.832031 C 52.144531 62.324219 51.34375 61.34375 51 60.648438 L 50.359375 59.398438 L 50.972656 59.105469 C 52.277344 58.523438 51.957031 56.898438 50.414062 56.234375 L 49.402344 55.808594 L 50.332031 55.515625 C 51.929688 54.957031 51.957031 54.265625 50.359375 51.046875 C 49.585938 49.53125 48.707031 48.066406 48.390625 47.828125 C 47.695312 47.269531 46.578125 47.214844 46.125 47.695312 C 45.9375 47.855469 45.21875 48.199219 44.527344 48.4375 L 43.277344 48.863281 L 43.195312 50.488281 C 43.140625 51.390625 43.222656 52.5625 43.382812 53.066406 C 43.648438 54.078125 43.433594 54.425781 42.34375 54.585938 C 41.542969 54.691406 41.304688 55.726562 41.863281 56.738281 C 42.210938 57.40625 45.191406 60.117188 45.539062 60.117188 C 45.644531 60.117188 46.445312 60.96875 47.296875 62.007812 C 48.789062 63.84375 50.4375 65.171875 51.210938 65.171875 C 51.425781 65.171875 51.71875 65.492188 51.878906 65.863281 C 52.144531 66.421875 52.355469 66.53125 53.074219 66.449219 C 53.929688 66.371094 53.929688 66.34375 53.875 65.039062 Z M 42.554688 48.519531 C 42.636719 47.773438 42.503906 47.613281 41.542969 47.109375 C 40 46.3125 38.402344 46.097656 38.1875 46.65625 C 37.949219 47.296875 38.296875 48.414062 38.828125 48.570312 C 39.066406 48.652344 39.574219 48.863281 39.945312 49.078125 C 40.320312 49.265625 41.039062 49.421875 41.542969 49.398438 C 42.371094 49.34375 42.476562 49.265625 42.554688 48.519531 Z M 42.554688 48.519531 "
    />
    <path
      d="M 49.71875 62.726562 C 48.976562 61.953125 47.910156 60.835938 47.402344 60.25 C 46.871094 59.664062 45.699219 58.601562 44.820312 57.882812 C 43.328125 56.710938 43.195312 56.527344 43.460938 55.96875 C 43.621094 55.648438 43.914062 55.304688 44.101562 55.222656 C 44.289062 55.144531 45.539062 55.621094 46.871094 56.289062 C 48.203125 56.925781 49.535156 57.457031 49.800781 57.457031 C 50.574219 57.457031 50.679688 57.910156 49.933594 58.097656 C 49.425781 58.230469 49.269531 58.441406 49.269531 59.027344 C 49.269531 59.878906 50.121094 62.085938 50.574219 62.351562 C 50.707031 62.460938 51.105469 62.886719 51.398438 63.308594 C 52.382812 64.667969 51.292969 64.292969 49.71875 62.726562 Z M 47.324219 55.621094 C 45.753906 54.585938 44.6875 53.253906 44.449219 51.976562 C 43.941406 49.238281 44.925781 49.15625 46.125 51.84375 C 46.578125 52.800781 47.191406 53.894531 47.535156 54.265625 C 48.175781 54.957031 48.65625 56.152344 48.28125 56.101562 C 48.175781 56.101562 47.75 55.886719 47.324219 55.621094 Z M 48.734375 53.839844 C 48.070312 53.253906 45.804688 49.824219 45.804688 49.371094 C 45.804688 49.289062 45.964844 49.289062 46.179688 49.371094 C 46.363281 49.449219 46.605469 49.316406 46.710938 49.078125 C 47.003906 48.28125 48.097656 49.398438 49.242188 51.632812 C 49.855469 52.800781 50.332031 53.867188 50.332031 53.972656 C 50.332031 54.53125 49.480469 54.453125 48.734375 53.839844 Z M 4.527344 111.863281 C 4.527344 111.570312 5.40625 109.972656 6.285156 108.667969 C 6.789062 107.898438 7.324219 106.59375 7.5625 105.554688 C 7.804688 104.570312 8.546875 102.65625 9.214844 101.300781 C 10.332031 99.066406 10.492188 98.878906 10.707031 99.464844 C 10.8125 99.808594 11.34375 100.660156 11.824219 101.328125 C 13.582031 103.695312 13.582031 105.980469 11.878906 108.75 C 11.316406 109.652344 10.757812 110.398438 10.652344 110.398438 C 10.546875 110.398438 10.304688 110.769531 10.121094 111.195312 L 9.800781 111.996094 L 7.164062 111.996094 C 5.699219 111.996094 4.527344 111.941406 4.527344 111.863281 Z M 25.726562 110.34375 C 25.859375 107.765625 26.472656 105.929688 27.535156 104.839844 C 28.734375 103.613281 29.347656 101.9375 29.027344 100.820312 C 28.65625 99.519531 29.640625 95.449219 30.679688 93.984375 C 31.636719 92.679688 31.929688 92.761719 32.222656 94.464844 C 32.410156 95.449219 32.332031 95.738281 31.796875 96.539062 C 30.890625 97.894531 30.972656 98.90625 32.089844 100.210938 C 33.128906 101.433594 33.289062 102.152344 32.488281 102.152344 C 31.34375 102.152344 32.382812 103.375 33.769531 103.640625 C 34.515625 103.800781 34.621094 103.933594 34.621094 104.652344 C 34.621094 105.105469 34.515625 105.902344 34.355469 106.40625 C 34.007812 107.578125 34.195312 108.109375 35.046875 108.484375 C 35.871094 108.882812 36.484375 110.238281 36.246094 111.167969 L 36.058594 111.863281 L 30.839844 111.941406 L 25.621094 111.996094 Z M 25.726562 110.34375 "
    />
    <path
      d="M 50.304688 111.410156 C 50.28125 111.0625 50.28125 110.691406 50.304688 110.585938 C 50.414062 110.027344 49.640625 108.535156 49.214844 108.375 C 48.921875 108.296875 48.683594 107.871094 48.601562 107.257812 C 48.308594 105.53125 47.617188 103.695312 47.109375 103.269531 C 46.816406 103.027344 46.605469 102.605469 46.605469 102.3125 C 46.605469 102.019531 46.152344 101.300781 45.59375 100.6875 C 44.765625 99.835938 43.410156 97.148438 43.410156 96.378906 C 43.410156 96.296875 43.941406 96.296875 44.605469 96.378906 C 45.621094 96.484375 45.886719 96.40625 46.203125 95.953125 C 46.816406 95.074219 46.683594 94.171875 45.539062 91.296875 C 44.953125 89.859375 44.472656 88.449219 44.472656 88.210938 C 44.472656 87.308594 45.539062 87.785156 46.550781 89.195312 C 47.136719 89.941406 47.855469 90.816406 48.203125 91.109375 C 48.523438 91.402344 49.160156 92.148438 49.585938 92.785156 C 50.011719 93.398438 50.519531 93.902344 50.730469 93.902344 C 51.265625 93.902344 52.195312 95.207031 52.195312 95.925781 C 52.195312 96.273438 52.730469 97.335938 53.367188 98.265625 C 54.007812 99.226562 54.886719 100.902344 55.3125 102.042969 C 55.84375 103.480469 56.21875 104.148438 56.644531 104.304688 C 56.964844 104.414062 57.308594 104.8125 57.390625 105.15625 C 57.550781 105.742188 59.28125 106.886719 59.574219 106.59375 C 59.628906 106.515625 59.335938 105.714844 58.882812 104.785156 C 58.457031 103.855469 57.976562 102.417969 57.84375 101.621094 C 57.65625 100.660156 57.203125 99.597656 56.511719 98.558594 C 55.550781 97.148438 55.285156 96.910156 54.167969 96.617188 L 52.890625 96.273438 L 53.769531 95.738281 C 54.378906 95.367188 54.59375 95.074219 54.488281 94.753906 C 54.378906 94.410156 54.59375 94.089844 55.152344 93.664062 C 55.925781 93.078125 55.953125 93.027344 55.527344 92.574219 C 55.257812 92.28125 54.460938 91.855469 53.6875 91.617188 C 52.941406 91.378906 51.878906 90.953125 51.34375 90.683594 C 50.226562 90.125 48.894531 88.34375 48.628906 87.066406 C 48.441406 86.269531 48.46875 86.1875 49.082031 86.1875 C 49.453125 86.1875 49.800781 86.324219 49.855469 86.507812 C 49.90625 86.667969 50.171875 86.746094 50.414062 86.640625 C 51.023438 86.402344 51 85.949219 50.359375 86.109375 C 49.960938 86.214844 49.855469 86.054688 49.746094 85.390625 C 49.585938 84.378906 49.878906 84.167969 50.652344 84.699219 C 51.453125 85.257812 52.011719 85.230469 52.570312 84.621094 C 53.023438 84.113281 52.996094 84.113281 51.878906 84.21875 L 50.730469 84.300781 L 51.902344 84.0625 C 52.542969 83.929688 53.234375 83.902344 53.449219 84.007812 C 53.820312 84.21875 58.589844 83.742188 59.519531 83.371094 C 59.8125 83.261719 60.371094 82.945312 60.773438 82.675781 C 61.679688 82.039062 62.34375 82.066406 62.503906 82.730469 C 62.582031 83.023438 62.875 83.261719 63.140625 83.261719 C 63.914062 83.261719 64.394531 84.21875 64.261719 85.472656 C 64.128906 86.480469 64.207031 86.640625 64.765625 86.90625 C 65.273438 87.148438 65.511719 87.09375 66.019531 86.695312 C 66.738281 86.109375 67.296875 86.054688 67.457031 86.535156 C 67.617188 87.039062 68.707031 86.347656 69.453125 85.285156 C 70.226562 84.140625 70.199219 83.769531 69.320312 83.847656 C 68.734375 83.902344 68.546875 83.796875 68.335938 83.210938 C 68.121094 82.597656 68.230469 82.304688 69.054688 81.082031 C 69.585938 80.308594 70.039062 79.511719 70.039062 79.324219 C 70.039062 78.898438 69.507812 78.925781 68.867188 79.40625 C 68.574219 79.617188 68.070312 79.804688 67.75 79.804688 C 67.429688 79.804688 66.789062 80.097656 66.363281 80.46875 C 65.621094 81.109375 65.40625 81.132812 62.316406 81.132812 C 59.46875 81.132812 59.09375 81.082031 59.226562 80.710938 C 59.308594 80.46875 59.386719 80.257812 59.386719 80.175781 C 59.386719 79.9375 63.515625 78.207031 64.792969 77.941406 C 66.789062 77.542969 69.667969 75.175781 70.253906 73.472656 C 70.414062 72.992188 70.8125 72.25 71.132812 71.796875 C 71.609375 71.105469 71.664062 70.757812 71.53125 69.082031 C 71.265625 65.519531 70.945312 63.894531 70.519531 63.390625 C 69.828125 62.644531 69.425781 61.449219 69.878906 61.449219 C 70.066406 61.449219 70.386719 61.632812 70.574219 61.847656 C 70.757812 62.058594 71.105469 62.246094 71.371094 62.246094 C 71.929688 62.246094 72.96875 63.867188 72.96875 64.773438 C 72.96875 65.121094 73.074219 65.464844 73.210938 65.546875 C 73.6875 65.863281 74.300781 65.359375 74.300781 64.667969 C 74.300781 63.390625 73.554688 60.332031 73.101562 59.851562 C 72.863281 59.585938 72.542969 58.921875 72.410156 58.363281 C 72.25 57.777344 71.824219 56.925781 71.476562 56.472656 C 70.730469 55.488281 69.773438 55.304688 69.773438 56.128906 C 69.773438 56.421875 69.585938 56.660156 69.375 56.660156 C 68.839844 56.660156 68.203125 55.355469 67.988281 53.867188 C 67.910156 53.203125 67.75 52.589844 67.617188 52.507812 C 67.511719 52.457031 67.164062 53.148438 66.898438 54.050781 C 66.605469 54.984375 66.203125 55.753906 66.019531 55.808594 C 65.726562 55.863281 65.644531 55.0625 65.59375 51.710938 C 65.511719 47.429688 65.246094 46.285156 64.339844 46.285156 C 63.726562 46.285156 63.621094 45.511719 64.179688 45.035156 C 64.714844 44.582031 64.953125 42.824219 64.5 42.824219 C 64.367188 42.824219 64.128906 42.507812 63.941406 42.109375 L 63.621094 41.414062 L 63.117188 42.214844 C 62.847656 42.667969 62.503906 43.117188 62.34375 43.199219 C 62.183594 43.304688 62.050781 43.597656 62.050781 43.863281 C 62.050781 44.421875 60.585938 45.832031 59.066406 46.761719 C 57.976562 47.429688 57.761719 47.878906 58.535156 47.878906 C 59.199219 47.878906 59.652344 48.386719 59.652344 49.132812 C 59.652344 49.476562 59.839844 50.0625 60.078125 50.433594 C 60.640625 51.257812 60.320312 51.660156 59.761719 50.859375 C 59.546875 50.539062 59.253906 50.273438 59.121094 50.273438 C 59.015625 50.273438 58.773438 51.019531 58.613281 51.949219 C 58.457031 52.855469 58.164062 54.132812 57.921875 54.796875 C 57.628906 55.753906 57.578125 55.808594 57.710938 55.0625 C 57.894531 54.027344 57.894531 53.785156 57.84375 52.351562 C 57.761719 50.992188 57.097656 51.019531 56.484375 52.402344 C 55.953125 53.601562 55.257812 54.238281 54.515625 54.265625 C 54.0625 54.265625 54.0625 54.210938 54.59375 53.28125 C 54.914062 52.722656 55.527344 51.871094 55.980469 51.367188 C 56.671875 50.59375 56.859375 50.515625 57.285156 50.753906 C 58.054688 51.234375 58.054688 51.152344 57.523438 49.957031 C 57.257812 49.316406 56.671875 48.546875 56.273438 48.226562 L 55.527344 47.613281 L 57.335938 45.804688 C 59.148438 43.996094 59.546875 43.039062 58.667969 42.71875 C 58.296875 42.558594 58.347656 42.425781 59.042969 41.789062 L 59.867188 41.042969 L 59.335938 39.207031 C 59.015625 38.195312 58.480469 37 58.136719 36.546875 C 57.816406 36.09375 57.523438 35.402344 57.523438 35.003906 C 57.523438 34.367188 57.601562 34.3125 58.136719 34.472656 C 58.457031 34.578125 59.199219 34.976562 59.785156 35.378906 C 60.371094 35.777344 61.199219 36.308594 61.597656 36.546875 C 61.996094 36.785156 62.476562 37.292969 62.636719 37.613281 C 62.902344 38.25 64.847656 39.207031 65.273438 38.941406 C 65.40625 38.863281 65.511719 38.570312 65.511719 38.277344 C 65.511719 37.371094 66.230469 37.71875 68.363281 39.632812 C 70.414062 41.46875 71 41.761719 71.53125 41.230469 C 71.71875 41.042969 72.089844 41.148438 72.730469 41.574219 C 73.234375 41.921875 73.796875 42.160156 73.953125 42.109375 C 74.113281 42.054688 74.566406 42.425781 74.964844 42.933594 C 75.367188 43.464844 75.84375 43.890625 76.058594 43.890625 C 76.246094 43.890625 76.566406 44.15625 76.722656 44.5 C 77.285156 45.566406 78.109375 46.285156 78.988281 46.445312 C 79.46875 46.523438 79.972656 46.738281 80.105469 46.921875 C 80.347656 47.214844 81.199219 49.398438 81.25 49.875 C 81.277344 50.035156 81.703125 50.621094 82.183594 51.179688 C 82.824219 51.925781 83.140625 52.589844 83.25 53.519531 C 83.382812 54.476562 83.621094 54.957031 84.128906 55.355469 C 84.792969 55.886719 84.820312 56.019531 84.820312 58.363281 C 84.820312 60.757812 84.847656 60.863281 85.671875 61.792969 C 86.84375 63.125 87.910156 66.554688 87.988281 69.191406 C 88.015625 70.359375 88.175781 71.398438 88.363281 71.636719 C 88.574219 71.902344 88.628906 72.410156 88.523438 73.128906 C 88.363281 74.058594 88.496094 74.484375 89.320312 76.054688 C 90.253906 77.863281 90.28125 77.914062 89.773438 78.207031 C 89.1875 78.5 89 78.234375 87.855469 75.761719 C 87.484375 74.988281 87.269531 74.828125 86.84375 74.9375 C 86.472656 75.042969 86.230469 74.910156 86.097656 74.589844 C 86.019531 74.296875 85.433594 73.472656 84.847656 72.703125 L 83.78125 71.316406 L 82.714844 73.976562 C 82.128906 75.46875 81.519531 76.613281 81.304688 76.613281 C 80.773438 76.613281 80.824219 73.207031 81.386719 72.59375 C 81.703125 72.25 81.8125 71.585938 81.8125 70.042969 C 81.785156 68.578125 81.917969 67.832031 82.183594 67.539062 C 82.53125 67.140625 82.503906 67.007812 81.945312 66.34375 L 81.304688 65.597656 L 81.117188 66.664062 C 80.773438 68.445312 79.308594 71.902344 78.375 73.128906 C 77.894531 73.765625 77.496094 74.378906 77.496094 74.511719 C 77.496094 74.882812 75.871094 75.867188 74.941406 76.078125 C 74.085938 76.265625 73.980469 76.214844 73.367188 75.335938 C 72.996094 74.804688 72.703125 74.429688 72.675781 74.484375 C 72.675781 74.5625 72.382812 75.707031 72.011719 77.011719 C 71.585938 78.554688 71.265625 80.601562 71.132812 82.730469 C 70.867188 86.480469 70.304688 89.433594 69.507812 90.976562 L 68.976562 92.042969 L 69.507812 95.554688 C 69.855469 97.839844 70.28125 99.542969 70.730469 100.527344 C 71.265625 101.671875 72.144531 104.226562 72.171875 104.730469 C 72.171875 104.757812 71.824219 104.972656 71.398438 105.183594 C 70.679688 105.554688 70.625 105.554688 69.828125 104.730469 C 69.347656 104.226562 68.867188 103.347656 68.707031 102.628906 C 68.46875 101.699219 68.070312 101.085938 67.191406 100.261719 C 66.070312 99.226562 65.914062 99.171875 64.742188 99.304688 C 63.886719 99.410156 63.382812 99.332031 63.089844 99.066406 C 62.714844 98.746094 62.609375 98.773438 62.078125 99.332031 C 61.464844 99.96875 61.464844 99.996094 61.917969 101.195312 C 62.691406 103.214844 63.941406 104.386719 66.871094 105.875 C 68.976562 106.914062 69.667969 107.152344 70.039062 106.941406 C 70.304688 106.78125 70.839844 106.675781 71.183594 106.675781 C 71.796875 106.675781 71.878906 106.832031 72.171875 108.457031 C 72.332031 109.441406 72.570312 110.425781 72.730469 110.691406 C 72.863281 110.957031 72.890625 111.355469 72.808594 111.570312 C 72.675781 111.941406 71.902344 111.996094 67.136719 111.996094 L 61.625 111.996094 L 61.730469 111.117188 C 61.8125 110.34375 61.703125 110.132812 60.878906 109.492188 C 60.347656 109.09375 59.386719 108.589844 58.75 108.351562 C 57.65625 107.949219 57.523438 107.949219 56.882812 108.351562 C 56.511719 108.617188 56.191406 109.042969 56.191406 109.335938 C 56.191406 109.625 56.03125 110.34375 55.871094 110.929688 L 55.527344 111.996094 L 52.941406 111.996094 C 50.414062 111.996094 50.332031 111.96875 50.304688 111.410156 Z M 51.929688 100.554688 C 51.796875 100.128906 51.453125 99.410156 51.160156 99.011719 C 50.597656 98.214844 48.789062 96.699219 48.601562 96.882812 C 48.496094 96.992188 51.878906 101.351562 52.0625 101.351562 C 52.117188 101.351562 52.0625 101.007812 51.929688 100.554688 Z M 78.136719 70.414062 C 78.882812 69.484375 79.09375 69.03125 79.09375 68.074219 C 79.121094 67.035156 78.933594 61.527344 78.855469 60.332031 C 78.855469 60.089844 78.402344 59.640625 77.871094 59.347656 L 76.910156 58.761719 L 77.097656 60.382812 C 77.257812 61.875 77.230469 62.085938 76.351562 63.628906 C 75.84375 64.5625 75.285156 65.757812 75.125 66.289062 C 74.941406 66.820312 74.621094 67.40625 74.40625 67.566406 C 74.222656 67.753906 74.035156 68.230469 74.035156 68.632812 C 74.035156 69.667969 73.796875 70.226562 73.34375 70.226562 C 73.128906 70.226562 72.96875 70.492188 72.96875 70.839844 C 72.96875 71.398438 73.101562 71.425781 75.074219 71.503906 L 77.152344 71.585938 Z M 75.738281 61.074219 C 76.003906 60.4375 76.03125 59.851562 75.871094 59.027344 C 75.765625 58.390625 75.660156 57.40625 75.632812 56.847656 C 75.632812 56.261719 75.394531 55.488281 75.101562 55.0625 C 74.808594 54.636719 74.273438 53.679688 73.929688 52.910156 L 73.261719 51.523438 L 73.050781 52.429688 C 72.835938 53.203125 72.675781 53.335938 71.957031 53.414062 C 71.476562 53.46875 71.105469 53.652344 71.105469 53.8125 C 71.105469 54.636719 71.476562 55.25 72.195312 55.648438 C 72.625 55.886719 72.96875 56.3125 72.96875 56.578125 C 72.96875 56.847656 73.261719 57.484375 73.609375 57.988281 C 73.953125 58.496094 74.460938 59.613281 74.726562 60.464844 C 74.992188 61.289062 75.234375 61.980469 75.285156 61.980469 C 75.3125 61.980469 75.527344 61.582031 75.738281 61.074219 Z M 79.679688 55.59375 C 79.679688 55.011719 79.707031 54.371094 79.734375 54.210938 C 79.761719 54.027344 79.492188 53.839844 79.175781 53.785156 C 78.589844 53.707031 78.5625 53.785156 78.5625 55.167969 C 78.5625 56.472656 78.613281 56.660156 79.09375 56.660156 C 79.519531 56.660156 79.628906 56.472656 79.679688 55.59375 Z M 77.335938 51.632812 C 77.789062 51.125 77.789062 51.074219 77.125 50.433594 C 76.164062 49.449219 75.898438 49.582031 75.898438 50.941406 C 75.898438 51.925781 75.980469 52.136719 76.378906 52.136719 C 76.671875 52.136719 77.097656 51.898438 77.335938 51.632812 Z M 77.335938 51.632812 "
    />
    <path
      d="M 75.101562 69.800781 C 75.101562 69.5625 75.472656 68.523438 75.925781 67.488281 C 76.351562 66.421875 76.832031 65.277344 76.992188 64.933594 C 77.390625 63.949219 77.738281 64.5625 77.921875 66.6875 C 78.082031 68.445312 78.054688 68.65625 77.46875 69.402344 C 76.75 70.308594 75.101562 70.601562 75.101562 69.800781 Z M 57.203125 110.746094 C 57.417969 110.027344 57.628906 109.441406 57.683594 109.386719 C 57.710938 109.335938 58.347656 109.546875 59.09375 109.894531 C 60.265625 110.398438 60.453125 110.558594 60.453125 111.222656 L 60.453125 111.996094 L 56.804688 111.996094 Z M 89.109375 110.71875 C 88.867188 110.027344 88.203125 108.640625 87.617188 107.632812 C 87.03125 106.648438 86.417969 105.371094 86.257812 104.785156 C 86.070312 104.199219 85.777344 103.613281 85.566406 103.453125 C 85.058594 103.027344 85.140625 102.683594 85.753906 102.683594 C 86.070312 102.683594 86.390625 102.445312 86.496094 102.125 C 86.605469 101.832031 87.003906 101.433594 87.351562 101.273438 C 87.722656 101.085938 88.148438 100.554688 88.308594 100.078125 L 88.574219 99.199219 L 90.011719 100.847656 C 91.476562 102.523438 92.195312 103.855469 93.34375 106.832031 C 94.167969 109.042969 95.019531 110.664062 95.367188 110.664062 C 95.5 110.664062 96.058594 110.878906 96.617188 111.117188 C 97.152344 111.355469 97.894531 111.648438 98.269531 111.753906 C 98.640625 111.863281 96.804688 111.941406 94.222656 111.96875 L 89.535156 111.996094 Z M 89.109375 110.71875 "
    />
    <path
      d="M 97.949219 110.265625 C 97.789062 109.917969 97.550781 109.679688 97.445312 109.761719 C 97.335938 109.8125 96.9375 109.8125 96.589844 109.734375 C 95.898438 109.546875 95.234375 108.296875 93.582031 104.039062 C 93.050781 102.683594 92.355469 101.566406 91.34375 100.449219 C 90.546875 99.519531 89.507812 98.320312 89.054688 97.761719 C 87.960938 96.351562 87.351562 96.589844 87.351562 98.398438 C 87.351562 99.996094 87.003906 100.289062 86.125 99.464844 L 85.484375 98.878906 L 85.484375 101.671875 L 84.5 101.484375 C 83.167969 101.246094 83.089844 101.167969 83.089844 100.34375 C 83.089844 99.941406 82.847656 99.117188 82.53125 98.558594 C 82.105469 97.734375 81.972656 96.804688 81.835938 94.4375 C 81.757812 92.761719 81.542969 90.792969 81.332031 90.101562 C 81.117188 89.300781 81.066406 88.609375 81.199219 88.238281 C 81.4375 87.679688 81.4375 87.679688 81.625 88.183594 C 82.664062 90.976562 82.929688 91.21875 84.207031 90.738281 C 84.554688 90.632812 85.058594 90.605469 85.351562 90.710938 C 85.699219 90.84375 86.046875 90.765625 86.339844 90.527344 C 86.976562 89.941406 87.804688 90.3125 88.574219 91.535156 C 88.921875 92.09375 89.320312 92.574219 89.453125 92.574219 C 89.585938 92.574219 89.855469 92.972656 90.039062 93.453125 C 90.226562 93.902344 90.890625 94.835938 91.476562 95.5 C 92.089844 96.164062 92.96875 97.363281 93.421875 98.1875 C 93.875 98.984375 94.566406 99.808594 94.914062 100.023438 C 95.339844 100.234375 95.925781 101.113281 96.511719 102.3125 C 97.015625 103.347656 97.65625 104.464844 97.921875 104.730469 C 98.214844 105.023438 98.828125 106.355469 99.308594 107.683594 C 100.027344 109.679688 100.132812 110.210938 99.867188 110.53125 C 99.335938 111.167969 98.296875 111.035156 97.949219 110.265625 Z M 67.191406 104.707031 C 65.539062 103.933594 63.488281 102.097656 63.328125 101.246094 C 63.222656 100.6875 63.300781 100.636719 64.421875 100.582031 C 65.511719 100.527344 65.753906 100.636719 66.496094 101.40625 C 66.949219 101.886719 67.402344 102.710938 67.511719 103.214844 C 67.617188 103.722656 67.9375 104.414062 68.253906 104.757812 C 68.921875 105.476562 68.894531 105.476562 67.191406 104.707031 Z M 67.191406 104.707031 "
    />
    <path
      d="M 97.363281 101.140625 C 96.9375 100.261719 96.324219 99.382812 95.980469 99.199219 C 95.632812 99.011719 95.046875 98.375 94.671875 97.761719 C 94.328125 97.125 93.449219 95.925781 92.730469 95.074219 C 92.011719 94.195312 91.210938 93.160156 90.972656 92.707031 C 89.375 89.808594 87.589844 88.503906 86.046875 89.089844 C 85.644531 89.222656 84.925781 89.410156 84.394531 89.460938 C 83.488281 89.59375 83.433594 89.542969 83.117188 88.636719 C 82.929688 88.078125 82.582031 87.386719 82.398438 87.066406 C 81.972656 86.402344 80.984375 86.269531 80.480469 86.773438 C 80.238281 87.015625 80.160156 87.015625 80.160156 86.746094 C 80.160156 86.5625 79.492188 85.738281 78.695312 84.886719 C 77.308594 83.421875 75.445312 80.042969 74.964844 78.128906 C 74.78125 77.488281 74.859375 77.382812 75.578125 77.25 C 76.589844 77.039062 78.402344 75.519531 79.015625 74.378906 L 79.46875 73.554688 L 79.679688 75.414062 C 79.867188 77.4375 80.238281 77.941406 81.542969 77.941406 C 82.238281 77.941406 82.398438 77.757812 83.25 75.921875 C 83.753906 74.804688 84.261719 74.003906 84.421875 74.085938 C 84.582031 74.191406 84.875 74.644531 85.058594 75.121094 C 85.273438 75.65625 85.671875 76.078125 86.070312 76.160156 C 86.472656 76.265625 86.871094 76.691406 87.164062 77.332031 C 88.097656 79.40625 88.816406 79.882812 90.171875 79.433594 C 90.652344 79.300781 90.785156 79.378906 90.945312 79.992188 C 91.023438 80.390625 91.53125 81.375 92.011719 82.199219 C 92.941406 83.6875 95.632812 90.792969 96.777344 94.78125 C 97.550781 97.390625 98.347656 101.644531 98.214844 102.3125 C 98.164062 102.578125 97.84375 102.152344 97.363281 101.140625 Z M 55.953125 100.394531 C 55.632812 99.675781 55.660156 99.652344 56.058594 100.078125 C 56.324219 100.316406 56.484375 100.636719 56.40625 100.820312 C 56.351562 101.007812 56.136719 100.792969 55.953125 100.394531 Z M 52.730469 93.902344 C 52.730469 93.769531 52.25 93.34375 51.691406 92.945312 C 51.105469 92.574219 50.574219 92.09375 50.492188 91.882812 C 50.359375 91.5625 50.4375 91.5625 50.945312 91.882812 C 51.265625 92.09375 52.039062 92.414062 52.675781 92.601562 C 53.902344 92.945312 53.953125 93.027344 53.421875 93.71875 C 53.023438 94.222656 52.730469 94.304688 52.730469 93.902344 Z M 20.398438 92.09375 C 20.292969 91.910156 19.972656 91.777344 19.707031 91.777344 C 19.015625 91.777344 17.976562 89.675781 17.710938 87.785156 C 17.601562 86.988281 17.308594 85.898438 17.042969 85.390625 C 16.804688 84.886719 16.511719 83.875 16.457031 83.183594 L 16.296875 81.90625 L 16.964844 82.519531 C 17.335938 82.863281 18.054688 83.953125 18.5625 84.964844 C 19.066406 85.976562 19.679688 86.828125 19.972656 86.90625 C 20.292969 86.988281 20.507812 87.386719 20.640625 88.210938 C 20.800781 89.410156 21.117188 89.699219 21.410156 88.957031 C 21.679688 88.238281 21.597656 87.625 20.984375 86.296875 C 20.640625 85.523438 20.320312 84.167969 20.238281 82.996094 C 20.105469 81.480469 19.921875 80.789062 19.46875 80.148438 C 18.882812 79.351562 18.855469 79.167969 19.015625 76.796875 C 19.121094 75.414062 19.28125 73.953125 19.414062 73.527344 L 19.628906 72.753906 L 20.371094 73.953125 C 20.800781 74.617188 21.304688 75.601562 21.519531 76.132812 C 21.730469 76.691406 22.128906 77.199219 22.371094 77.277344 C 22.691406 77.382812 23.035156 78.207031 23.515625 80.042969 L 24.179688 82.652344 L 23.300781 85.683594 C 22.371094 88.957031 20.71875 92.601562 20.398438 92.09375 Z M 65.511719 84.621094 C 65.511719 84.140625 65.328125 83.476562 65.085938 83.128906 C 64.660156 82.492188 64.660156 82.464844 65.300781 82.464844 C 65.644531 82.464844 66.203125 82.277344 66.550781 82.039062 C 67.136719 81.613281 67.164062 81.613281 67.003906 82.144531 C 66.898438 82.4375 67.003906 83.15625 67.191406 83.742188 C 67.535156 84.753906 67.535156 84.804688 67.003906 84.9375 C 66.683594 84.992188 66.230469 85.152344 65.992188 85.257812 C 65.59375 85.417969 65.511719 85.3125 65.511719 84.621094 Z M 61.625 71.664062 C 61.199219 71.132812 60.824219 70.601562 60.773438 70.464844 C 60.71875 70.359375 60.105469 69.882812 59.414062 69.429688 C 58.402344 68.789062 58.082031 68.445312 57.976562 67.726562 C 57.894531 67.222656 57.46875 65.996094 57.042969 64.988281 C 55.84375 62.246094 55.792969 61.980469 56.429688 61.980469 C 56.722656 61.980469 57.175781 62.351562 57.523438 62.910156 C 57.84375 63.417969 58.429688 64.054688 58.800781 64.347656 C 59.546875 64.878906 61.835938 68.921875 62.183594 70.359375 L 62.398438 71.160156 L 62.769531 70.253906 C 63.0625 69.589844 63.089844 69.164062 62.875 68.550781 C 62.714844 68.125 62.582031 67.195312 62.582031 66.53125 C 62.582031 65.304688 62.53125 65.066406 61.542969 61.449219 C 61.226562 60.25 61.066406 59.082031 61.144531 58.523438 C 61.277344 57.777344 61.171875 57.484375 60.746094 57.085938 C 60.160156 56.554688 60.054688 55.515625 60.425781 53.894531 C 60.640625 52.800781 61.039062 52.777344 61.625 53.785156 C 61.917969 54.265625 62.476562 55.089844 62.902344 55.648438 C 63.726562 56.710938 64.128906 58.097656 63.675781 58.363281 C 63.25 58.628906 63.300781 62.460938 63.753906 63.949219 C 64.019531 64.773438 64.074219 65.890625 63.996094 67.378906 C 63.863281 69.535156 63.117188 72.410156 62.664062 72.542969 C 62.53125 72.59375 62.078125 72.195312 61.625 71.664062 Z M 69.242188 65.226562 C 69.242188 64.5625 67.855469 63.335938 66.363281 62.671875 C 65.246094 62.167969 65.191406 62.085938 65.328125 61.207031 C 65.378906 60.648438 65.246094 59.71875 64.953125 59 C 64.472656 57.804688 64.5 56.765625 65.007812 57.058594 C 65.113281 57.136719 65.539062 57.777344 65.914062 58.46875 C 66.285156 59.160156 66.949219 59.933594 67.375 60.171875 C 67.910156 60.464844 68.175781 60.835938 68.175781 61.261719 C 68.175781 61.609375 68.414062 62.113281 68.707031 62.378906 C 69 62.644531 69.242188 63.070312 69.242188 63.335938 C 69.242188 63.601562 69.425781 63.921875 69.667969 64.054688 C 69.90625 64.1875 70.039062 64.535156 69.988281 64.90625 C 69.878906 65.679688 69.242188 65.945312 69.242188 65.226562 Z M 71.292969 60.648438 C 70.917969 60.359375 70.386719 60.117188 70.09375 60.117188 C 69.320312 60.117188 67.804688 59.054688 67.136719 58.070312 C 66.472656 57.03125 66.472656 57.03125 67.03125 56.820312 C 67.324219 56.6875 67.644531 56.847656 67.9375 57.246094 C 68.308594 57.722656 68.65625 57.832031 69.640625 57.855469 C 70.890625 57.855469 70.890625 57.855469 71.371094 59.132812 C 71.636719 59.851562 72.011719 60.597656 72.171875 60.808594 C 72.648438 61.367188 72.089844 61.261719 71.292969 60.648438 Z M 63.460938 54.238281 C 63.195312 53.785156 62.636719 52.988281 62.210938 52.484375 C 61.8125 52.003906 61.519531 51.445312 61.597656 51.234375 C 61.679688 51.046875 61.570312 50.539062 61.359375 50.140625 C 61.144531 49.742188 60.984375 49.105469 60.984375 48.707031 C 60.984375 48.304688 60.824219 47.828125 60.664062 47.640625 C 60.371094 47.375 60.398438 47.269531 60.71875 47.082031 C 60.933594 46.976562 61.410156 46.605469 61.785156 46.285156 C 62.261719 45.886719 62.476562 45.804688 62.53125 46.070312 C 62.582031 46.257812 63.035156 46.789062 63.515625 47.214844 L 64.394531 48.011719 L 64.5 51.445312 C 64.582031 55.167969 64.339844 55.863281 63.460938 54.238281 Z M 54.40625 24.417969 C 53.128906 23.007812 53.050781 22.023438 54.085938 21.039062 C 54.355469 20.773438 54.699219 19.921875 54.859375 19.121094 C 55.207031 17.152344 54.726562 15.769531 53.527344 15.265625 C 52.195312 14.707031 51.746094 14.8125 50.359375 15.957031 C 49.667969 16.542969 49.027344 17.019531 48.921875 17.019531 C 48.816406 17.019531 48.734375 16.621094 48.734375 16.117188 C 48.734375 15.53125 48.949219 15.027344 49.402344 14.574219 C 49.746094 14.226562 50.171875 13.617188 50.304688 13.242188 C 50.464844 12.816406 51.105469 12.257812 51.984375 11.78125 C 53.714844 10.875 53.875 10.050781 52.542969 9.144531 C 50.707031 7.921875 48.335938 8.054688 44.5 9.597656 C 41.703125 10.714844 41.171875 10.820312 41.332031 10.316406 C 41.464844 9.945312 44.289062 7.84375 45.273438 7.390625 C 46.070312 7.019531 49.292969 6.964844 51.664062 7.285156 C 53.261719 7.523438 53.367188 7.496094 53.023438 7.097656 C 52.089844 5.953125 50.945312 5.554688 47.9375 5.367188 C 44.660156 5.15625 45.058594 4.996094 41.972656 7.550781 C 40.773438 8.535156 40.664062 8.5625 40.824219 7.976562 C 40.933594 7.601562 41.011719 7.042969 41.011719 6.726562 C 41.011719 6.40625 41.386719 5.714844 41.8125 5.234375 C 42.261719 4.730469 42.691406 3.933594 42.769531 3.480469 C 42.929688 2.761719 42.875 2.65625 42.371094 2.65625 C 41.144531 2.65625 40.265625 3.398438 39.734375 4.863281 C 39.441406 5.660156 39.09375 6.75 38.988281 7.335938 C 38.90625 7.894531 38.667969 8.667969 38.480469 8.988281 C 38.1875 9.570312 38.164062 9.519531 37.84375 8.160156 C 37.601562 7.042969 37.601562 6.300781 37.84375 4.941406 C 38.003906 3.984375 38.242188 3.105469 38.375 3.027344 C 38.800781 2.789062 38.640625 2.390625 38.109375 2.390625 C 36.882812 2.390625 35.046875 5.449219 35.632812 6.539062 C 36.03125 7.335938 35.285156 9.519531 34.488281 9.890625 C 34.0625 10.078125 33.714844 10.554688 33.554688 11.195312 C 33.234375 12.390625 32.625 12.363281 32.355469 11.140625 C 32.25 10.714844 32.0625 10.316406 31.929688 10.238281 C 31.453125 9.917969 31.691406 7.761719 32.355469 6.246094 C 33.316406 4.089844 34.246094 3.027344 36.136719 1.988281 C 39.734375 -0.00390625 43.460938 -0.484375 47.296875 0.5 C 51.796875 1.671875 54.40625 3.878906 56.351562 8.242188 L 57.601562 11.035156 L 57.550781 14.441406 C 57.496094 17.710938 57.445312 17.925781 56.566406 19.789062 C 56.058594 20.851562 55.5 22.449219 55.3125 23.378906 L 54.964844 25.027344 Z M 54.40625 24.417969 "
    />
  </g>
</svg>
