<svg id="root" xmlns="http://www.w3.org/2000/svg" width="768" height="441" viewBox="0 0 7680 4410">
  <g>
    <path
      d="M2040 4405c0-3 7-20 16-36 8-17 13-33 11-35-3-3 6-44 19-92 49-174 103-410 119-517 17-115 64-255 138-415 52-112 77-208 77-300 0-121 64-533 100-647 42-135 114-314 158-398l37-69 110-48c61-26 116-47 123-48 25 0 544-254 580-283 8-7 12-28 10-61l-3-51-112 4c-111 3-111 3-115-20-2-19-10-25-35-27-32-3-33-4-33-53 0-28-5-60-12-72s-13-35-15-52c-15-154-15-154-38-169-42-28-40-50 10-122 34-48 44-69 36-77-12-12-15-88-5-125 6-21 8-22 24-7 11 10 31 15 52 13 27-2 35-9 44-36 6-18 22-43 37-55s31-33 35-47c9-25 10-25 26 13 13 33 19 38 43 35 20-2 33-13 45-38 19-38 20-37 22 30l1 45 45-1c28 0 82-15 140-39 102-41 165-52 219-38 47 12 47 24-1 48-23 11-48 34-57 51-10 18-30 46-45 65-25 29-27 38-21 78 14 94 40 103 121 40 38-29 59-39 74-34 51 16 51 111 0 160-32 31-39 70-18 108 21 41 73 99 94 107 15 6 23 20 27 47 4 21 16 58 28 83 24 48 25 65 14 177-7 68-6 74 18 102 13 16 30 53 37 80 11 48 11 52-9 69-24 18-29 44-17 80 7 21-1 32-53 80-72 67-80 100-32 128l29 17-21 33c-12 17-35 48-51 68-39 50-41 104-4 125 27 15 28 15 89-17 4-1 6 15 5 36 0 22 5 47 13 56 19 23 62 21 68-4 6-23 23-27 23-6 0 7 7 19 16 27 9 7 14 22 11 36-5 26 16 127 40 191 9 23 13 45 10 49-4 3-10-2-14-12-3-11-25-37-48-59-22-23-48-52-56-65-14-21-24-25-70-25-53-1-54 0-57 29-2 19 13 69 38 128 22 53 40 110 40 126 0 25 9 36 47 62 27 18 68 54 91 81 54 60 73 71 105 59 48-19 102-264 77-351-5-17-6-30-2-30 24 1 90 51 104 80 17 33 51 56 68 45 5-3 12 11 15 32 4 21 9 50 11 65 5 27-17 74-74 161-21 32-26 35-36 21-8-10-23-14-46-12-30 3-35 7-38 33-2 18 2 33 12 41 21 15 14 17-79 33s-175 59-197 102-23 85-2 97c21 11-74 22-198 22-107 0-168 24-168 65 0 15-6 25-15 25-28 0-37 37-22 90 8 28 14 50 12 50-1 0-14-18-29-41-26-39-28-40-79-37s-52 3-58 40c-6 38-2 52 44 166 43 104 42 106-28 107h-60l1 40c1 58 41 154 80 195 19 20 34 44 34 53 0 10 11 29 25 43 24 24 55 108 55 150 0 13 14 37 30 54 29 30 36 53 24 84-5 14-33 16-210 16h-204v-23c0-49-32-119-62-136-21-12-27-21-23-36 25-85 13-158-26-163-22-3-24-7-21-35 3-26-2-38-27-60-42-37-48-69-21-107 20-28 22-40 16-91-7-70-58-169-86-169-22 0-44-53-97-235-19-66-52-158-74-205-21-47-39-92-39-100 0-13-1-13-10 0-5 8-10 25-10 38 0 15-6 22-20 22-11 0-20-7-20-15s-9-19-20-25-26-26-34-44c-7-18-30-56-51-84-30-42-43-52-65-52-16 0-31 4-35 9-11 18-37 246-31 280 3 18 12 41 20 50s17 30 21 46c7 30 7 30-34-13-32-34-47-43-69-40-26 3-27 6-30 65-2 45 4 82 22 135 13 40 26 92 29 115 6 49 54 134 84 147 49 23 47 37-24 193-37 82-83 173-102 203l-35 55-9-45c-5-25-21-61-35-80s-38-57-52-85c-23-45-28-50-59-50-33 0-36 3-82 96-27 52-57 129-67 170-18 68-67 170-95 194-7 6-20 24-29 40-15 26-23 30-67 33-28 2-51 0-51-3zm2023-1760c-1-44-5-52-43-83-22-19-52-56-65-82l-24-47 23-11c49-22 37-83-21-108l-38-16 35-11c60-21 61-47 1-168-29-57-62-112-74-121-26-21-68-23-85-5-7 6-34 19-60 28l-47 16-3 61c-2 34 1 78 7 97 10 38 2 51-39 57-30 4-39 43-18 81 13 25 125 127 138 127 4 0 34 32 66 71 56 69 118 119 147 119 8 0 19 12 25 26 10 21 18 25 45 22 32-3 32-4 30-53zm-425-621c3-28-2-34-38-53-58-30-118-38-126-17-9 24 4 66 24 72 9 3 28 11 42 19 14 7 41 13 60 12 31-2 35-5 38-33z" />
    <path
      d="M3907 2558c-28-29-68-71-87-93-20-22-64-62-97-89-56-44-61-51-51-72 6-12 17-25 24-28s54 15 104 40c50 24 100 44 110 44 29 0 33 17 5 24-19 5-25 13-25 35 0 32 32 115 49 125 5 4 20 20 31 36 37 51-4 37-63-22zm-90-267c-59-39-99-89-108-137-19-103 18-106 63-5 17 36 40 77 53 91 24 26 42 71 28 69-4 0-20-8-36-18zm53-67c-25-22-110-151-110-168 0-3 6-3 14 0 7 3 16-2 20-11 11-30 52 12 95 96 23 44 41 84 41 88 0 21-32 18-60-5zM2210 4405c0-11 33-71 66-120 19-29 39-78 48-117 9-37 37-109 62-160 42-84 48-91 56-69 4 13 24 45 42 70 66 89 66 175 2 279-21 34-42 62-46 62s-13 14-20 30l-12 30h-99c-55 0-99-2-99-5zm796-57c5-97 28-166 68-207 45-46 68-109 56-151-14-49 23-202 62-257 36-49 47-46 58 18 7 37 4 48-16 78-34 51-31 89 11 138 39 46 45 73 15 73-43 0-4 46 48 56 28 6 32 11 32 38 0 17-4 47-10 66-13 44-6 64 26 78 31 15 54 66 45 101l-7 26-196 3-196 2 4-62z" />
    <path
      d="M3929 4388c-1-13-1-27 0-31 4-21-25-77-41-83-11-3-20-19-23-42-11-65-37-134-56-150-11-9-19-25-19-36s-17-38-38-61c-31-32-82-133-82-162 0-3 20-3 45 0 38 4 48 1 60-16 23-33 18-67-25-175-22-54-40-107-40-116 0-34 40-16 78 37 22 28 49 61 62 72 12 11 36 39 52 63 16 23 35 42 43 42 20 0 55 49 55 76 0 13 20 53 44 88 24 36 57 99 73 142 20 54 34 79 50 85 12 4 25 19 28 32 6 22 71 65 82 54 2-3-9-33-26-68-16-35-34-89-39-119-7-36-24-76-50-115-36-53-46-62-88-73l-48-13 33-20c23-14 31-25 27-37-4-13 4-25 25-41 29-22 30-24 14-41-10-11-40-27-69-36-28-9-68-25-88-35-42-21-92-88-102-136-7-30-6-33 17-33 14 0 27 5 29 12 2 6 12 9 21 5 23-9 22-26-2-20-15 4-19-2-23-27-6-38 5-46 34-26 30 21 51 20 72-3 17-19 16-19-26-15l-43 3 44-9c24-5 50-6 58-2 14 8 193-10 228-24 11-4 32-16 47-26 34-24 59-23 65 2 3 11 14 20 24 20 29 0 47 36 42 83-5 38-2 44 19 54 19 9 28 7 47-8 27-22 48-24 54-6 6 19 47-7 75-47 29-43 28-57-5-54-22 2-29-2-37-24-8-23-4-34 27-80 20-29 37-59 37-66 0-16-20-15-44 3-11 8-30 15-42 15s-36 11-52 25c-28 24-36 25-152 25-107 0-121-2-116-16 3-9 6-17 6-20 0-9 155-74 203-84 75-15 183-104 205-168 6-18 21-46 33-63 18-26 20-39 15-102-10-134-22-195-38-214-26-28-41-73-24-73 7 0 19 7 26 15s20 15 30 15c21 0 60 61 60 95 0 13 4 26 9 29 18 12 41-7 41-33 0-48-28-163-45-181-9-10-21-35-26-56-6-22-22-54-35-71-28-37-64-44-64-13 0 11-7 20-15 20-20 0-44-49-52-105-3-25-9-48-14-51-4-2-17 24-27 58-11 35-26 64-33 66-11 2-14-28-16-154-3-161-13-204-47-204-23 0-27-29-6-47 20-17 29-83 12-83-5 0-14-12-21-27l-12-26-19 30c-10 17-23 34-29 37-6 4-11 15-11 25 0 21-55 74-112 109-41 25-49 42-20 42 25 0 42 19 42 47 0 13 7 35 16 49 21 31 9 46-12 16-8-12-19-22-24-22-4 0-13 28-19 63-6 34-17 82-26 107-11 36-13 38-8 10 7-39 7-48 5-102-3-51-28-50-51 2-20 45-46 69-74 70-17 0-17-2 3-37 12-21 35-53 52-72 26-29 33-32 49-23 29 18 29 15 9-30-10-24-32-53-47-65l-28-23 68-68c68-68 83-104 50-116-14-6-12-11 14-35l31-28-20-69c-12-38-32-83-45-100-12-17-23-43-23-58 0-24 3-26 23-20 12 4 40 19 62 34s53 35 68 44 33 28 39 40c10 24 83 60 99 50 5-3 9-14 9-25 0-34 27-21 107 51 77 69 99 80 119 60 7-7 21-3 45 13 19 13 40 22 46 20s23 12 38 31c15 20 33 36 41 36 7 0 19 10 25 23 21 40 52 67 85 73 18 3 37 11 42 18 9 11 41 93 43 111 1 6 17 28 35 49 24 28 36 53 40 88 5 36 14 54 33 69 25 20 26 25 26 113 0 90 1 94 32 129 44 50 84 179 87 278 1 44 7 83 14 92 8 10 10 29 6 56-6 35-1 51 30 110 35 68 36 70 17 81-22 11-29 1-72-92-14-29-22-35-38-31-14 4-23-1-28-13-3-11-25-42-47-71l-40-52-40 100c-22 56-45 99-53 99-20 0-18-128 3-151 12-13 16-38 16-96-1-55 4-83 14-94 13-15 12-20-9-45l-24-28-7 40c-13 67-68 197-103 243-18 24-33 47-33 52 0 14-61 51-96 59-32 7-36 5-59-28-14-20-25-34-26-32 0 3-11 46-25 95-16 58-28 135-33 215-10 141-31 252-61 310l-20 40 20 132c13 86 29 150 46 187 20 43 53 139 54 158 0 1-13 9-29 17-27 14-29 14-59-17-18-19-36-52-42-79-9-35-24-58-57-89-42-39-48-41-92-36-32 4-51 1-62-9-14-12-18-11-38 10-23 24-23 25-6 70 29 76 76 120 186 176 79 39 105 48 119 40 10-6 30-10 43-10 23 0 26 6 37 67 6 37 15 74 21 84 5 10 6 25 3 33-5 14-34 16-213 16h-207l4-33c3-29-1-37-32-61-20-15-56-34-80-43-41-15-46-15-70 0-14 10-26 26-26 37s-6 38-12 60l-13 40h-97c-95 0-98-1-99-22zm61-408c-5-16-18-43-29-58-21-30-89-87-96-80-4 4 123 168 130 168 2 0 0-13-5-30zm984-1133c28-35 36-52 36-88 1-39-6-246-9-291 0-9-17-26-37-37l-36-22 7 61c6 56 5 64-28 122-19 35-40 80-46 100-7 20-19 42-27 48-7 7-14 25-14 40 0 39-9 60-26 60-8 0-14 10-14 23 0 21 5 22 79 25l78 3 37-44zm-90-351c10-24 11-46 5-77-4-24-8-61-9-82 0-22-9-51-20-67s-31-52-44-81l-25-52-8 34c-8 29-14 34-41 37-18 2-32 9-32 15 0 31 14 54 41 69 16 9 29 25 29 35s11 34 24 53 32 61 42 93c10 31 19 57 21 57 1 0 9-15 17-34zm148-206c0-22 1-46 2-52 1-7-9-14-21-16-22-3-23 0-23 52 0 49 2 56 20 56 16 0 20-7 22-40zm-88-149c17-19 17-21-8-45-36-37-46-32-46 19 0 37 3 45 18 45 11 0 27-9 36-19z" />
    <path
      d="M4860 2824c0-9 14-48 31-87 16-40 34-83 40-96 15-37 28-14 35 66 6 66 5 74-17 102-27 34-89 45-89 15zm-672 1539c8-27 16-49 18-51 1-2 25 6 53 19 44 19 51 25 51 50v29h-137l15-47zm1198-1c-9-26-34-78-56-116-22-37-45-85-51-107-7-22-18-44-26-50-19-16-16-29 7-29 12 0 24-9 28-21 4-11 19-26 32-32 14-7 30-27 36-45l10-33 54 62c55 63 82 113 125 225 31 83 63 144 76 144 5 0 26 8 47 17 20 9 48 20 62 24s-55 7-152 8l-176 1-16-48z" />
    <path
      d="M5718 4345c-6-13-15-22-19-19-4 2-19 2-32-1-26-7-51-54-113-214-20-51-46-93-84-135-30-35-69-80-86-101-41-53-64-44-64 24 0 60-13 71-46 40l-24-22v105l-37-7c-50-9-53-12-53-43 0-15-9-46-21-67-16-31-21-66-26-155-3-63-11-137-19-163-8-30-10-56-5-70 9-21 9-21 16-2 39 105 49 114 97 96 13-4 32-5 43-1 13 5 26 2 37-7 24-22 55-8 84 38 13 21 28 39 33 39s15 15 22 33c7 17 32 52 54 77 23 25 56 70 73 101 17 30 43 61 56 69 16 8 38 41 60 86 19 39 43 81 53 91 11 11 34 61 52 111 27 75 31 95 21 107-20 24-59 19-72-10zm-1155-209c-62-29-139-98-145-130-4-21-1-23 41-25 41-2 50 2 78 31 17 18 34 49 38 68s16 45 28 58c25 27 24 27-40-2z" />
    <path
      d="M5696 4002c-16-33-39-66-52-73s-35-31-49-54c-13-24-46-69-73-101-27-33-57-72-66-89-60-109-127-158-185-136-15 5-42 12-62 14-34 5-36 3-48-31-7-21-20-47-27-59-16-25-53-30-72-11-9 9-12 9-12-1 0-7-25-38-55-70-52-55-122-182-140-254-7-24-4-28 23-33 38-8 106-65 129-108l17-31 8 70c7 76 21 95 70 95 26 0 32-7 64-76 19-42 38-72 44-69 6 4 17 21 24 39 8 20 23 36 38 39 15 4 30 20 41 44 35 78 62 96 113 79 18-5 23-2 29 21 3 15 22 52 40 83 35 56 136 323 179 473 29 98 59 258 54 283-2 10-14-6-32-44zm-1555-28c-12-27-11-28 4-12 10 9 16 21 13 28-2 7-10-1-17-16zm-121-244c0-5-18-21-39-36-22-14-42-32-45-40-5-12-2-12 17 0 12 8 41 20 65 27 46 13 48 16 28 42-15 19-26 22-26 7zm-1214-68c-4-7-16-12-26-12-26 0-65-79-75-150-4-30-15-71-25-90-9-19-20-57-22-83l-6-48 25 23c14 13 41 54 60 92s42 70 53 73c12 3 20 18 25 49 6 45 18 56 29 28 10-27 7-50-16-100-13-29-25-80-28-124-5-57-12-83-29-107-22-30-23-37-17-126 4-52 10-107 15-123l8-29 28 45c16 25 35 62 43 82 8 21 23 40 32 43 12 4 25 35 43 104l25 98-33 114c-35 123-97 260-109 241zm1694-281c0-18-7-43-16-56-16-24-16-25 8-25 13 0 34-7 47-16 22-16 23-16 17 4-4 11 0 38 7 60 13 38 13 40-7 45-12 2-29 8-38 12-15 6-18 2-18-24zm-146-487c-16-20-30-40-32-45-2-4-25-22-51-39-38-24-50-37-54-64-3-19-19-65-35-103-45-103-47-113-23-113 11 0 28 14 41 35 12 19 34 43 48 54 28 20 114 172 127 226l8 30 14-34c11-25 12-41 4-64-6-16-11-51-11-76 0-46-2-55-39-191-12-45-18-89-15-110 5-28 1-39-15-54-22-20-26-59-12-120 8-41 23-42 45-4 11 18 32 49 48 70 31 40 46 92 29 102-16 10-14 154 3 210 10 31 12 73 9 129-5 81-33 189-50 194-5 2-22-13-39-33zm286-242c0-25-52-71-108-96-42-19-44-22-39-55 2-21-3-56-14-83-18-45-17-84 2-73 4 3 20 27 34 53s39 55 55 64c20 11 30 25 30 41 0 13 9 32 20 42s20 26 20 36 7 22 16 27 14 18 12 32c-4 29-28 39-28 12zm77-172c-14-11-34-20-45-20-29 0-86-40-111-77-25-39-25-39-4-47 11-5 23 1 34 16 14 18 27 22 64 23 47 0 47 0 65 48 10 27 24 55 30 63 18 21-3 17-33-6zm-294-241c-10-17-31-47-47-66-15-18-26-39-23-47 3-7-1-26-9-41s-14-39-14-54-6-33-12-40c-11-10-10-14 2-21 8-4 26-18 40-30 18-15 26-18 28-8 2 7 19 27 37 43l33 30 4 129c3 140-6 166-39 105zm-340-1121c-48-53-51-90-12-127 10-10 23-42 29-72 13-74-5-126-50-145-50-21-67-17-119 26-26 22-50 40-54 40s-7-15-7-34c0-22 8-41 25-58 13-13 29-36 34-50 6-16 30-37 63-55 65-34 71-65 21-99-69-46-158-41-302 17-105 42-125 46-119 27 5-14 111-93 148-110 30-14 151-16 240-4 60 9 64 8 51-7-35-43-78-58-191-65-123-8-108-14-224 82-45 37-49 38-43 16 4-14 7-35 7-47s14-38 30-56c17-19 33-49 36-66 6-27 4-31-15-31-46 0-79 28-99 83-11 30-24 71-28 93-3 21-12 50-19 62-11 22-12 20-24-31-9-42-9-70 0-121 6-36 15-69 20-72 16-9 10-24-10-24-46 0-115 115-93 156 15 30-13 112-43 126-16 7-29 25-35 49-12 45-35 44-45-2-4-16-11-31-16-34-18-12-9-93 16-150 36-81 71-121 142-160 135-75 275-93 419-56 169 44 267 127 340 291l47 105-2 128c-2 123-4 131-37 201-19 40-40 100-47 135l-13 62-21-23z" />
  </g>
</svg>