<svg xmlns="http://www.w3.org/2000/svg" id="root" viewBox="0 0 99 69">
  <path
    d="M 3.421875 67.78125 C 3.421875 67.132812 2.855469 66.078125 1.890625 65.023438 C 0.441406 63.484375 0.320312 63.078125 0.242188 60.847656 L 0.160156 58.414062 L 7.644531 58.414062 C 12.71875 58.414062 15.332031 58.574219 15.855469 58.898438 C 16.863281 59.507812 17.910156 58.738281 17.910156 57.398438 C 17.910156 56.304688 16.941406 55.816406 15.894531 56.382812 C 15.492188 56.628906 14.328125 56.789062 13.320312 56.789062 L 11.46875 56.789062 L 11.46875 54.558594 C 11.46875 52.53125 11.550781 52.328125 12.394531 52.328125 C 12.878906 52.328125 13.5625 52.492188 13.84375 52.691406 C 14.648438 53.21875 15.894531 52.492188 15.894531 51.558594 C 15.894531 50.625 15.171875 50.300781 14.085938 50.746094 C 13.644531 50.910156 12.878906 51.070312 12.394531 51.070312 C 11.589844 51.109375 11.46875 50.910156 11.46875 49.449219 L 11.46875 47.785156 L 19.640625 48.027344 L 27.890625 48.273438 C 27.929688 48.273438 27.96875 49.488281 27.96875 50.949219 C 27.96875 53.464844 27.890625 53.746094 26.683594 54.925781 C 24.871094 56.816406 22.828125 58.464844 20.605469 59.832031 C 20.445312 59.710938 20.402344 59.75 20.484375 59.871094 C 20.605469 59.996094 19.839844 60.804688 18.792969 61.617188 C 17.023438 62.957031 16.660156 63.078125 13.480469 63.28125 L 10.0625 63.484375 L 9.820312 69 L 6.640625 68.917969 C 3.460938 68.835938 3.421875 68.835938 3.421875 67.78125 Z M 3.421875 67.78125 "
  />
  <path
    d="M 11.46875 66.929688 L 11.46875 64.902344 L 14.488281 64.902344 C 16.136719 64.902344 17.507812 64.742188 17.507812 64.578125 C 17.507812 64.132812 21.207031 61.535156 21.8125 61.535156 C 22.09375 61.535156 22.214844 61.375 22.132812 61.210938 C 22.011719 61.050781 22.699219 60.320312 23.625 59.546875 C 24.546875 58.816406 26.320312 57.316406 27.488281 56.183594 C 28.695312 55.085938 29.902344 54.195312 30.222656 54.195312 L 34.046875 54.316406 L 37.347656 54.355469 L 37.066406 55.65625 C 36.742188 57.316406 36.542969 57.480469 35.574219 56.871094 C 34.570312 56.222656 34.007812 56.546875 34.007812 57.84375 C 34.007812 58.777344 34.125 58.816406 35.414062 58.574219 C 36.742188 58.332031 36.824219 58.371094 36.824219 59.386719 C 36.824219 60.441406 35.816406 60.886719 35.535156 59.953125 C 35.253906 59.101562 33.925781 59.953125 34.085938 60.925781 C 34.167969 61.699219 34.410156 61.820312 35.535156 61.738281 C 36.703125 61.617188 36.824219 61.699219 36.824219 62.710938 C 36.824219 63.523438 36.664062 63.726562 36.140625 63.5625 C 34.328125 63.078125 34.207031 63.078125 34.085938 64.089844 L 33.964844 65.105469 L 37.871094 65.066406 C 41.894531 65.066406 42.699219 64.742188 41.652344 63.484375 C 41.289062 63.035156 40.96875 62.996094 40.445312 63.28125 C 39.117188 64.011719 38.433594 63.765625 38.433594 62.632812 C 38.433594 61.617188 38.554688 61.578125 39.800781 61.78125 C 41.371094 62.023438 42.214844 61.375 41.8125 60.277344 C 41.53125 59.546875 40.242188 59.386719 39.839844 60.035156 C 39.316406 60.847656 38.433594 60.441406 38.433594 59.386719 C 38.433594 58.371094 38.511719 58.332031 40.042969 58.574219 C 41.855469 58.859375 42.578125 58.128906 41.652344 56.992188 C 41.167969 56.425781 40.6875 56.425781 38.957031 57.074219 C 38.59375 57.238281 38.433594 56.710938 38.433594 55.207031 L 38.433594 53.179688 L 34.328125 53.019531 C 31.351562 52.9375 32.113281 52.894531 36.945312 52.816406 C 43.988281 52.734375 44.105469 52.691406 43.421875 50.949219 C 43.222656 50.382812 42.214844 50.300781 36.378906 50.300781 L 29.578125 50.300781 L 29.578125 39.347656 L 35.574219 39.347656 C 40.40625 39.347656 41.734375 39.46875 42.214844 39.957031 C 42.539062 40.320312 43.542969 40.5625 44.589844 40.5625 C 46.199219 40.5625 46.5625 40.402344 48.050781 38.699219 C 48.9375 37.683594 49.703125 36.671875 49.703125 36.425781 C 49.703125 36.222656 49.863281 36.183594 50.105469 36.304688 C 50.304688 36.425781 49.621094 37.644531 48.574219 38.941406 L 46.683594 41.375 L 44.148438 41.375 C 42.375 41.375 41.410156 41.171875 40.96875 40.726562 C 40.40625 40.160156 40.242188 40.160156 39.722656 40.726562 C 38.875 41.578125 39.398438 42.753906 40.566406 42.429688 C 41.046875 42.308594 42.738281 42.1875 44.308594 42.1875 L 47.207031 42.1875 L 49.257812 39.507812 C 51.070312 37.117188 51.3125 36.589844 51.3125 34.84375 C 51.3125 33.75 51.511719 32.855469 51.714844 32.855469 C 51.953125 32.855469 52.117188 31.761719 52.117188 30.421875 L 52.117188 27.988281 L 55.414062 27.988281 L 55.253906 29.449219 C 55.09375 31.355469 56.140625 32.207031 57.226562 31.113281 C 57.832031 30.546875 57.871094 30.261719 57.429688 29.613281 C 56.582031 28.234375 56.863281 27.988281 59.160156 27.988281 C 60.40625 27.988281 61.613281 27.828125 61.894531 27.582031 C 64.066406 25.800781 66.28125 24.378906 67.085938 24.257812 C 67.8125 24.175781 68.011719 23.890625 68.011719 22.917969 C 68.011719 21.253906 66.886719 21.132812 65.515625 22.636719 C 63.34375 24.945312 60.769531 26.367188 58.796875 26.367188 L 56.984375 26.367188 L 57.066406 24.867188 C 57.144531 23.488281 57.066406 23.324219 56.140625 23.324219 C 55.214844 23.324219 55.132812 23.488281 55.214844 24.867188 L 55.296875 26.367188 L 48.894531 26.367188 L 48.894531 15.007812 L 37.226562 15.007812 C 30.304688 15.007812 25.554688 14.847656 25.554688 14.644531 C 25.554688 14.441406 25.152344 13.628906 24.667969 12.816406 L 23.742188 11.398438 L 18.230469 11.359375 C 14.808594 11.359375 12.675781 11.195312 12.675781 10.953125 C 12.675781 10.710938 14.730469 10.546875 18.070312 10.546875 L 23.460938 10.546875 L 25.113281 12.453125 L 26.761719 14.398438 L 38.433594 14.523438 L 50.105469 14.644531 L 50.105469 18.820312 C 50.105469 21.296875 49.941406 23.121094 49.660156 23.40625 C 49.097656 23.972656 49.539062 24.746094 50.464844 24.746094 C 51.070312 24.746094 51.148438 24.257812 50.988281 19.59375 C 50.910156 16.710938 50.789062 14.15625 50.707031 13.871094 C 50.585938 13.507812 49.257812 13.386719 45.878906 13.386719 C 43.34375 13.386719 41.25 13.222656 41.25 13.0625 C 41.25 12.046875 42.457031 11.761719 46.722656 11.761719 C 51.996094 11.761719 51.632812 11.398438 51.632812 16.753906 C 51.632812 18.742188 51.753906 20.445312 51.875 20.566406 C 51.996094 20.6875 54.046875 20.769531 56.503906 20.726562 C 59.199219 20.6875 61.007812 20.808594 61.171875 21.054688 C 61.492188 21.621094 62.980469 21.621094 63.0625 21.09375 C 63.261719 19.671875 63.261719 19.671875 57.871094 19.835938 L 52.519531 19.957031 L 52.519531 17.402344 L 62.097656 17.484375 L 71.632812 17.5625 L 71.753906 16.550781 C 71.835938 15.738281 71.675781 15.414062 71.03125 15.210938 C 70.546875 15.050781 69.945312 15.128906 69.703125 15.375 C 69.421875 15.65625 66.644531 15.820312 61.695312 15.820312 L 54.128906 15.820312 L 54.128906 13.34375 L 60.808594 13.425781 C 67.570312 13.507812 68.574219 13.304688 68.09375 12.007812 C 67.8125 11.316406 66.605469 11.113281 66.605469 11.722656 C 66.605469 12.25 63.304688 11.925781 62.980469 11.359375 C 62.78125 11.074219 60.890625 10.871094 57.710938 10.832031 L 52.71875 10.75 L 52.519531 7.300781 C 52.316406 3.894531 52.316406 3.855469 51.230469 3.730469 C 50.34375 3.609375 50.105469 3.367188 50.105469 2.636719 C 50.105469 2.109375 49.742188 1.417969 49.257812 1.09375 C 48.492188 0.527344 48.613281 0.488281 50.988281 0.324219 C 52.355469 0.242188 53.683594 0.324219 53.925781 0.488281 C 54.410156 0.890625 56.019531 0.890625 56.300781 0.488281 C 56.382812 0.324219 64.671875 0.121094 74.652344 0.0820312 L 92.761719 0 L 93.125 0.890625 C 93.605469 2.148438 95.175781 9.003906 95.175781 9.855469 C 95.175781 10.222656 94.53125 11.5625 93.726562 12.816406 C 92.480469 14.765625 92.320312 15.292969 92.5625 16.550781 C 92.84375 18.089844 95.296875 25.636719 96.222656 27.785156 L 97.792969 31.640625 L 99 34.683594 C 99.121094 34.925781 97.953125 35.617188 96.464844 36.265625 C 90.265625 38.941406 89.542969 39.308594 89.542969 39.710938 C 89.542969 39.957031 89.945312 40.890625 90.386719 41.78125 L 91.273438 43.445312 L 90.386719 44.378906 C 89.382812 45.472656 89.339844 45.960938 90.226562 47.296875 C 90.871094 48.3125 90.871094 48.351562 89.222656 49.894531 C 88.296875 50.746094 87.53125 51.597656 87.53125 51.800781 C 87.53125 52.003906 87.972656 53.300781 88.535156 54.679688 C 89.101562 56.058594 89.542969 57.519531 89.542969 57.964844 C 89.542969 59.019531 85.878906 62.226562 83.265625 63.484375 C 81.292969 64.417969 81.132812 64.417969 78.636719 63.890625 C 75.578125 63.238281 74.007812 62.671875 73.644531 62.105469 C 73.527344 61.859375 73.125 61.65625 72.800781 61.65625 C 72.480469 61.65625 71.230469 61.210938 70.105469 60.683594 L 64.992188 58.453125 C 63.34375 57.761719 60.96875 56.667969 59.722656 56.019531 C 58.472656 55.371094 57.308594 54.964844 57.105469 55.128906 C 56.421875 55.613281 54.691406 58.210938 54.128906 59.546875 C 53.847656 60.320312 53.402344 61.128906 53.164062 61.414062 C 52.640625 61.980469 50.0625 67.011719 50.105469 67.417969 C 50.105469 67.582031 50.386719 67.984375 50.746094 68.308594 C 51.3125 68.917969 49.660156 68.960938 32.4375 68.960938 C 13.761719 68.960938 13.480469 68.960938 13.480469 68.148438 C 13.480469 67.457031 13.761719 67.335938 15.414062 67.335938 C 17.144531 67.335938 17.585938 67.09375 20.726562 64.496094 C 22.617188 62.957031 24.46875 61.699219 24.871094 61.65625 C 25.273438 61.65625 25.554688 61.332031 25.554688 60.847656 C 25.554688 59.914062 24.546875 59.75 24.066406 60.601562 C 23.703125 61.210938 19.476562 64.78125 17.828125 65.875 C 17.023438 66.402344 16.136719 66.566406 14.6875 66.445312 L 12.675781 66.324219 L 12.675781 67.660156 C 12.675781 68.554688 12.476562 68.960938 12.074219 68.960938 C 11.628906 68.960938 11.46875 68.472656 11.46875 66.929688 Z M 34.691406 44.621094 C 34.933594 43.769531 36.742188 42.347656 37.46875 42.511719 C 37.707031 42.550781 38.152344 42.308594 38.433594 41.984375 C 38.875 41.457031 38.875 41.214844 38.351562 40.6875 C 37.789062 40.117188 37.546875 40.238281 36.019531 41.742188 C 35.09375 42.632812 34.207031 43.363281 34.085938 43.363281 C 33.203125 43.242188 32.796875 43.484375 32.796875 44.132812 C 32.796875 45.59375 34.328125 46 34.691406 44.621094 Z M 1.207031 67.214844 C 0.804688 66.605469 0.5625 66 0.683594 65.917969 C 1.007812 65.550781 2.292969 67.253906 2.132812 67.824219 C 2.011719 68.148438 1.691406 67.90625 1.207031 67.214844 Z M 1.007812 50.707031 C 1.007812 47.378906 1.125 44.621094 1.328125 44.621094 C 1.488281 44.621094 1.609375 47.339844 1.609375 50.707031 C 1.609375 54.03125 1.488281 56.789062 1.328125 56.789062 C 1.125 56.789062 1.007812 54.074219 1.007812 50.707031 Z M 1.007812 50.707031 "
  />
  <path
    d="M 2.214844 50.707031 L 2.214844 44.621094 L 6.558594 44.621094 C 10.824219 44.621094 10.945312 44.582031 11.992188 43.484375 C 12.597656 42.875 13.078125 42.226562 13.078125 42.066406 C 13.078125 41.902344 10.183594 41.78125 6.640625 41.78125 L 0.203125 41.78125 L 0.203125 24.296875 L 1.527344 24.417969 L 2.816406 24.542969 L 2.738281 27.746094 C 2.695312 29.53125 2.535156 31.640625 2.414062 32.453125 C 2.253906 33.507812 2.335938 34.074219 2.738281 34.398438 C 3.945312 35.414062 5.394531 33.910156 4.628906 32.453125 C 4.023438 31.316406 4.105469 31.152344 5.472656 31.316406 L 6.722656 31.4375 L 6.761719 35.289062 L 6.839844 39.144531 L 13.199219 39.265625 L 19.519531 39.386719 L 19.519531 45.835938 L 11.390625 45.917969 L 3.21875 46.039062 L 3.097656 51.4375 C 2.9375 58.980469 2.214844 58.371094 2.214844 50.707031 Z M 2.214844 50.707031 "
  />
  <path
    d="M 3.824219 51.71875 L 3.824219 46.648438 L 10.140625 46.648438 L 10.222656 48.921875 L 10.300781 51.234375 L 9.175781 50.949219 C 7.003906 50.421875 6.839844 50.460938 6.839844 51.515625 C 6.839844 52.449219 6.960938 52.53125 8.570312 52.410156 L 10.261719 52.289062 L 10.261719 56.789062 L 3.824219 56.789062 Z M 29.578125 51.3125 C 29.578125 50.785156 30.464844 50.707031 36.097656 50.785156 C 40.847656 50.867188 42.617188 51.03125 42.777344 51.4375 C 42.898438 51.800781 41.410156 51.921875 36.257812 51.921875 C 30.546875 51.921875 29.578125 51.839844 29.578125 51.3125 Z M 20.324219 40.199219 L 20.324219 33.75 L 21.851562 32.613281 C 22.65625 31.964844 23.503906 31.476562 23.664062 31.558594 C 23.863281 31.601562 23.90625 31.476562 23.742188 31.234375 C 23.503906 30.871094 24.066406 30.667969 24.871094 30.789062 C 25.070312 30.828125 25.113281 30.667969 24.953125 30.421875 C 24.832031 30.21875 24.953125 30.019531 25.273438 30.019531 C 26.039062 30.019531 26.480469 28.921875 25.875 28.558594 C 25.636719 28.394531 25.03125 28.761719 24.546875 29.328125 C 24.105469 29.9375 23.582031 30.421875 23.421875 30.421875 C 23.222656 30.421875 22.296875 31.113281 21.289062 31.925781 C 19.71875 33.261719 19.519531 33.628906 19.519531 35.167969 L 19.519531 36.914062 L 9.457031 36.914062 L 9.457031 34.238281 C 9.457031 32.003906 9.617188 31.355469 10.542969 30.097656 C 11.148438 29.289062 11.832031 28.394531 12.113281 28.152344 C 12.394531 27.949219 12.675781 27.015625 12.757812 26.125 L 12.878906 24.542969 L 17.023438 24.417969 L 21.128906 24.296875 L 21.128906 20.078125 C 21.128906 17.765625 21.289062 15.78125 21.53125 15.617188 C 22.175781 15.210938 21.449219 14.15625 20.566406 14.277344 C 19.757812 14.398438 19.71875 14.5625 19.878906 18.984375 L 20 23.527344 L 10.101562 23.527344 C 1.570312 23.527344 0.203125 23.445312 0.203125 22.917969 C 0.203125 22.390625 1.449219 22.308594 8.855469 22.308594 L 17.507812 22.308594 L 17.507812 19.347656 C 17.507812 17.6875 17.707031 16.183594 17.949219 15.941406 C 18.59375 15.292969 18.070312 14.117188 17.222656 14.277344 C 16.582031 14.398438 16.5 14.847656 16.660156 17.96875 L 16.78125 21.5 L 8.492188 21.5 C 1.410156 21.5 0.203125 21.417969 0.203125 20.890625 C 0.203125 20.363281 1.207031 20.28125 6.839844 20.28125 L 13.480469 20.28125 L 13.480469 18.375 C 13.480469 17.199219 13.722656 16.226562 14.164062 15.738281 C 14.769531 15.050781 14.769531 14.925781 14.164062 14.320312 C 13.644531 13.792969 13.402344 13.75 12.917969 14.15625 C 12.515625 14.523438 12.394531 15.210938 12.554688 17.035156 L 12.796875 19.472656 L 0.203125 19.472656 L 0.203125 13.386719 L 11.832031 13.386719 C 23.140625 13.386719 23.503906 13.425781 23.742188 14.199219 C 24.386719 16.226562 24.46875 16.226562 36.460938 16.226562 C 47.40625 16.226562 47.6875 16.226562 47.6875 17.035156 C 47.6875 17.726562 47.40625 17.847656 46.121094 17.847656 C 43.464844 17.847656 43.261719 18.050781 43.261719 20.726562 L 43.261719 23.121094 L 41.855469 23.121094 C 40.847656 23.121094 40.445312 22.960938 40.445312 22.511719 C 40.445312 22.148438 40.082031 21.132812 39.640625 20.28125 L 38.835938 18.660156 L 28.773438 18.660156 L 28.773438 27.179688 L 33.203125 27.179688 L 33.203125 32.65625 C 33.203125 38.980469 32.960938 39.308594 30.382812 36.507812 C 28.933594 34.925781 28.816406 34.886719 26.238281 34.886719 L 23.542969 34.886719 L 23.542969 40.765625 C 23.542969 45.714844 23.460938 46.648438 22.9375 46.648438 C 22.414062 46.648438 22.335938 45.757812 22.335938 41.050781 L 22.335938 35.453125 L 24.429688 33.871094 C 25.59375 32.980469 26.882812 32.128906 27.246094 31.964844 C 28.128906 31.601562 28.171875 31.074219 27.367188 30.421875 C 26.882812 30.019531 26.722656 30.097656 26.359375 30.871094 C 26.117188 31.398438 24.910156 32.574219 23.742188 33.464844 L 21.570312 35.089844 L 21.53125 40.890625 C 21.53125 45.714844 21.449219 46.648438 20.925781 46.648438 C 20.402344 46.648438 20.324219 45.675781 20.324219 40.199219 Z M 20.324219 40.199219 "
  />
  <path
    d="M 24.347656 41.171875 L 24.347656 35.65625 L 26.683594 35.777344 C 28.332031 35.859375 28.933594 36.0625 28.855469 36.425781 C 28.816406 36.75 28.894531 36.871094 29.097656 36.75 C 29.296875 36.628906 29.742188 36.914062 30.101562 37.359375 C 30.746094 38.089844 30.746094 38.128906 29.378906 38.128906 L 27.96875 38.128906 L 27.96875 46.648438 L 24.347656 46.648438 Z M 5.152344 43.527344 C 8.089844 43.445312 10.261719 43.199219 10.261719 43 C 10.261719 42.753906 10.542969 42.59375 10.90625 42.59375 C 11.46875 42.59375 11.46875 42.714844 11.066406 43.199219 C 10.664062 43.6875 9.578125 43.808594 5.273438 43.726562 L 0 43.648438 Z M 2.535156 42.714844 C 3.902344 42.632812 6.078125 42.632812 7.363281 42.714844 C 8.613281 42.796875 7.484375 42.835938 4.828125 42.835938 C 2.171875 42.835938 1.125 42.796875 2.535156 42.714844 Z M 44.507812 39.46875 C 46.644531 39.226562 48.574219 37.074219 48.9375 34.5625 L 49.179688 32.65625 L 49.257812 34.398438 C 49.296875 35.898438 49.097656 36.34375 47.648438 37.925781 C 46.199219 39.507812 45.757812 39.753906 44.507812 39.671875 L 43.0625 39.632812 Z M 7.847656 38.617188 C 7.605469 38.535156 7.445312 36.871094 7.445312 34.84375 C 7.445312 31.964844 7.566406 31.234375 8.046875 31.234375 C 8.492188 31.234375 8.652344 31.964844 8.734375 34.398438 L 8.855469 37.523438 L 14.207031 37.644531 C 20.402344 37.765625 21.570312 38.535156 15.613281 38.578125 L 9.941406 38.65625 C 9.015625 38.699219 8.046875 38.699219 7.847656 38.617188 Z M 34.167969 32.65625 C 34.167969 29.53125 34.246094 28.3125 34.289062 29.9375 C 34.367188 31.558594 34.367188 34.113281 34.289062 35.617188 C 34.207031 37.117188 34.167969 35.777344 34.167969 32.65625 Z M 34.167969 32.65625 "
  />
  <path
    d="M 35.214844 32.65625 C 35.214844 29.289062 35.375 27.179688 35.617188 27.179688 C 35.855469 27.179688 36.019531 28.882812 36.019531 31.4375 L 36.019531 35.695312 L 41.652344 35.695312 L 41.652344 30.421875 L 47.6875 30.421875 L 47.6875 33.019531 C 47.6875 35.25 47.527344 35.816406 46.644531 36.871094 L 45.597656 38.128906 L 35.214844 38.128906 Z M 35.214844 32.65625 "
  />
  <path
    d="M 38.632812 34.886719 L 36.621094 34.683594 L 36.621094 27.382812 L 38.433594 27.179688 C 40.125 26.976562 40.242188 26.894531 40.363281 25.675781 C 40.484375 24.378906 40.527344 24.339844 42.496094 24.339844 L 44.46875 24.339844 L 44.46875 19.066406 L 47.6875 19.066406 L 47.6875 29.691406 L 44.992188 29.613281 C 40.605469 29.449219 40.886719 29.246094 40.765625 32.371094 L 40.644531 35.089844 Z M 48.894531 31.4375 C 48.894531 31.03125 49.296875 30.828125 50.105469 30.828125 C 50.910156 30.828125 51.3125 31.03125 51.3125 31.4375 C 51.3125 31.84375 50.910156 32.046875 50.105469 32.046875 C 49.296875 32.046875 48.894531 31.84375 48.894531 31.4375 Z M 4.226562 27.179688 L 4.226562 24.296875 L 7.96875 24.417969 C 11.589844 24.542969 11.671875 24.582031 11.792969 25.554688 C 11.871094 26.203125 11.429688 27.179688 10.585938 28.3125 C 9.296875 30.019531 9.257812 30.019531 6.761719 30.019531 L 4.226562 30.019531 Z M 49.097656 29.613281 C 49.21875 29.410156 49.78125 29.207031 50.34375 29.207031 C 50.867188 29.207031 51.3125 29.410156 51.3125 29.613281 C 51.3125 29.855469 50.746094 30.019531 50.0625 30.019531 C 49.378906 30.019531 48.9375 29.855469 49.097656 29.613281 Z M 49.417969 28.109375 C 49.78125 28.03125 50.425781 28.03125 50.828125 28.109375 C 51.191406 28.234375 50.867188 28.3125 50.105469 28.3125 C 49.339844 28.3125 49.015625 28.234375 49.417969 28.109375 Z M 30.382812 22.917969 C 30.382812 20.851562 30.503906 20.28125 30.988281 20.28125 C 31.472656 20.28125 31.589844 20.851562 31.589844 22.917969 C 31.589844 24.988281 31.472656 25.554688 30.988281 25.554688 C 30.503906 25.554688 30.382812 24.988281 30.382812 22.917969 Z M 33.203125 22.917969 C 33.203125 20.566406 33.28125 20.28125 34.007812 20.28125 C 34.648438 20.28125 34.8125 20.566406 34.851562 21.621094 L 34.933594 24.257812 C 35.011719 25.351562 34.890625 25.554688 34.125 25.554688 C 33.242188 25.554688 33.203125 25.394531 33.203125 22.917969 Z M 33.203125 22.917969 "
  />
  <path
    d="M 36.824219 22.917969 C 36.824219 20.605469 36.902344 20.28125 37.585938 20.28125 C 38.554688 20.28125 38.835938 21.054688 38.835938 23.566406 C 38.835938 25.433594 38.753906 25.554688 37.828125 25.554688 C 36.863281 25.554688 36.824219 25.472656 36.824219 22.917969 Z M 52.519531 14.601562 C 52.519531 13.953125 52.71875 13.386719 52.921875 13.386719 C 53.164062 13.386719 53.324219 13.953125 53.324219 14.601562 C 53.324219 15.292969 53.164062 15.820312 52.921875 15.820312 C 52.71875 15.820312 52.519531 15.292969 52.519531 14.601562 Z M 25.472656 11.316406 L 24.144531 9.289062 L 18.390625 9.410156 C 13.160156 9.53125 12.675781 9.453125 12.675781 8.84375 C 12.675781 8.4375 12.957031 8.113281 13.28125 8.113281 C 13.761719 8.113281 13.882812 7.421875 13.882812 4.257812 C 13.882812 -0.609375 14.609375 -0.851562 14.769531 3.933594 L 14.890625 7.503906 L 16.296875 7.625 C 17.0625 7.707031 17.867188 7.949219 18.109375 8.152344 C 18.953125 8.964844 20.765625 8.074219 20.402344 6.976562 C 20.324219 6.652344 19.640625 6.570312 18.070312 6.734375 L 15.894531 7.019531 L 15.894531 3.773438 C 15.894531 0.648438 15.9375 0.488281 16.863281 0.324219 C 18.027344 0.0820312 19.117188 0.648438 19.117188 1.460938 C 19.117188 1.785156 19.4375 2.433594 19.878906 2.878906 C 20.523438 3.609375 21.046875 3.652344 24.992188 3.570312 L 29.378906 3.449219 L 29.578125 1.824219 C 29.742188 0.445312 29.902344 0.203125 30.785156 0.203125 C 31.710938 0.203125 31.792969 0.40625 31.992188 2.433594 C 32.195312 4.460938 32.277344 4.664062 33.203125 4.785156 C 35.050781 4.988281 35.375 5.234375 34.8125 5.882812 C 34.085938 6.773438 34.609375 7.707031 35.855469 7.707031 C 36.863281 7.707031 36.902344 7.625 36.664062 6.289062 C 36.378906 4.910156 36.421875 4.867188 37.628906 4.867188 C 38.753906 4.867188 38.835938 4.949219 38.753906 6.164062 C 38.632812 7.300781 38.796875 7.546875 39.558594 7.625 C 40.527344 7.789062 41.371094 6.449219 40.527344 6.164062 C 40.242188 6.085938 40.042969 5.761719 40.042969 5.4375 C 40.042969 5.03125 40.605469 4.867188 42.214844 4.867188 C 44.027344 4.867188 44.390625 4.988281 44.589844 5.679688 C 44.75 6.367188 45.152344 6.492188 47.246094 6.492188 L 49.703125 6.492188 L 49.703125 10.953125 L 45.476562 10.953125 C 43.0625 10.953125 41.25 11.113281 41.25 11.359375 C 41.25 11.5625 40.847656 12.089844 40.363281 12.574219 C 39.558594 13.304688 38.957031 13.386719 33.160156 13.386719 L 26.800781 13.386719 Z M 52.519531 11.683594 C 52.519531 11.519531 54.410156 11.359375 56.742188 11.359375 C 59.078125 11.359375 60.96875 11.480469 60.96875 11.683594 C 60.96875 11.84375 59.078125 11.964844 56.742188 11.964844 C 54.410156 12.007812 52.519531 11.84375 52.519531 11.683594 Z M 0.203125 10.546875 C 0.203125 9.816406 0.523438 9.734375 4.75 9.65625 L 9.257812 9.53125 L 9.375 6.570312 C 9.496094 3.691406 9.457031 3.609375 8.046875 2.148438 C 7.285156 1.339844 6.640625 0.609375 6.640625 0.527344 C 6.640625 0.488281 7.566406 0.40625 8.652344 0.40625 L 10.664062 0.40625 L 10.664062 11.359375 L 5.433594 11.359375 C 0.484375 11.359375 0.203125 11.316406 0.203125 10.546875 Z M 0.203125 10.546875 "
  />
  <path
    d="M 50.425781 8.234375 L 50.304688 5.476562 L 47.6875 5.234375 L 45.074219 4.988281 L 48.375 4.949219 L 51.671875 4.867188 L 51.59375 7.789062 C 51.550781 9.613281 51.351562 10.75 51.027344 10.832031 C 50.707031 10.953125 50.507812 10.183594 50.425781 8.234375 Z M 0.203125 7.546875 C 0.203125 6.691406 0.402344 6.570312 1.289062 6.613281 C 2.214844 6.691406 2.453125 6.492188 2.535156 5.71875 C 2.65625 4.828125 2.574219 4.785156 1.449219 4.988281 C 0.320312 5.234375 0.203125 5.152344 0.203125 4.21875 C 0.203125 3.652344 0.363281 3.285156 0.5625 3.40625 C 0.765625 3.570312 0.886719 3.328125 0.804688 2.960938 C 0.644531 1.867188 1.367188 1.21875 2.65625 1.21875 L 3.824219 1.21875 L 3.824219 8.519531 L 2.011719 8.519531 C 0.363281 8.519531 0.203125 8.4375 0.203125 7.546875 Z M 4.628906 4.910156 C 4.628906 1.582031 4.707031 1.21875 5.394531 1.21875 C 6.480469 1.21875 7.164062 2.148438 6.519531 2.839844 C 6.117188 3.328125 6.15625 3.328125 6.679688 2.921875 C 7.242188 2.515625 7.484375 2.515625 8.007812 3.082031 C 8.53125 3.570312 8.652344 4.339844 8.570312 6.042969 L 8.453125 8.316406 L 6.558594 8.4375 L 4.628906 8.558594 Z M 12.835938 3.449219 C 12.835938 1.460938 12.878906 0.566406 12.957031 1.5 C 13.039062 2.433594 13.039062 4.097656 12.957031 5.152344 C 12.878906 6.207031 12.835938 5.476562 12.835938 3.449219 Z M 33.203125 2.070312 C 33.203125 -0.566406 34.570312 -0.445312 34.890625 2.230469 C 34.972656 3.246094 34.851562 3.488281 34.125 3.570312 C 33.28125 3.691406 33.203125 3.527344 33.203125 2.070312 Z M 36.421875 2.230469 C 36.421875 0.488281 37.75 -0.488281 38.433594 0.769531 C 38.632812 1.21875 38.835938 2.027344 38.835938 2.597656 C 38.835938 3.488281 38.675781 3.652344 37.628906 3.652344 C 36.5 3.652344 36.421875 3.527344 36.421875 2.230469 Z M 40.042969 2.515625 C 40.042969 1.175781 41.046875 0.121094 42.257812 0.164062 C 42.898438 0.203125 43.101562 0.527344 43.183594 1.945312 L 43.300781 3.652344 L 41.691406 3.652344 C 40.164062 3.652344 40.042969 3.570312 40.042969 2.515625 Z M 43.664062 2.070312 C 43.664062 0.691406 43.785156 0.488281 44.710938 0.285156 C 46.121094 0.0390625 49.058594 1.621094 49.21875 2.757812 C 49.339844 3.609375 49.21875 3.652344 46.523438 3.652344 L 43.664062 3.652344 Z M 20.605469 2.148438 C 19.277344 0.648438 19.558594 0.324219 22.457031 0.324219 C 24.027344 0.324219 25.394531 0.527344 25.757812 0.8125 C 26.238281 1.21875 26.480469 1.21875 26.964844 0.8125 C 27.808594 0.0820312 28.773438 0.609375 28.773438 1.824219 C 28.773438 2.839844 28.773438 2.839844 25.03125 2.839844 C 21.933594 2.839844 21.128906 2.71875 20.605469 2.148438 Z M 20.605469 2.148438 "
  />
</svg>
