<svg xmlns="http://www.w3.org/2000/svg" id="root" viewBox="0 0 99 77">
  <g>
    <path
      d="M 57.429688 76.617188 C 56.75 76.269531 56.390625 76.042969 55.40625 75.34375 L 54.847656 74.941406 L 54.835938 73.960938 C 54.835938 73.347656 54.914062 72.835938 55.035156 72.59375 C 55.140625 72.378906 55.21875 72.152344 55.207031 72.097656 C 55.207031 72.046875 55.261719 71.816406 55.351562 71.589844 C 55.660156 70.890625 55.59375 69.429688 55.234375 68.4375 C 55.101562 68.0625 55.101562 67.796875 55.21875 67.257812 C 55.300781 66.871094 55.367188 66.320312 55.367188 66.023438 C 55.367188 65.742188 55.433594 65.460938 55.5 65.421875 C 55.671875 65.316406 55.671875 61.746094 55.488281 59.738281 C 55.351562 58.273438 55.367188 58.101562 55.632812 57.230469 C 55.792969 56.71875 55.964844 56.183594 56.03125 56.035156 C 56.125 55.792969 56.246094 55.367188 56.496094 54.425781 C 56.535156 54.265625 56.496094 53.703125 56.417969 53.152344 C 56.164062 51.476562 56.070312 49.265625 56.257812 49.265625 C 56.335938 49.265625 56.550781 49.078125 56.710938 48.847656 C 56.960938 48.488281 56.988281 48.339844 56.894531 47.683594 C 56.828125 47.253906 56.777344 46.570312 56.777344 46.140625 L 56.761719 45.363281 L 56.136719 44.972656 C 55.777344 44.746094 55.378906 44.570312 55.246094 44.570312 C 55.101562 44.570312 54.714844 44.921875 54.289062 45.445312 C 53.742188 46.128906 53.558594 46.273438 53.410156 46.15625 C 53.292969 46.0625 53.265625 45.859375 53.320312 45.566406 C 53.371094 45.269531 53.34375 45.109375 53.253906 45.109375 C 53.066406 45.109375 51.601562 42.894531 51.402344 42.304688 C 51.308594 42.050781 51.242188 41.675781 51.242188 41.476562 C 51.242188 41.21875 51.175781 41.085938 51.042969 41.085938 C 50.9375 41.085938 50.816406 40.9375 50.765625 40.777344 C 50.710938 40.523438 50.617188 40.46875 50.367188 40.523438 C 50.101562 40.578125 50.046875 40.535156 50.046875 40.226562 C 50.046875 39.90625 50.019531 39.878906 49.765625 40.011719 C 49.621094 40.105469 49.410156 40.132812 49.300781 40.09375 C 49.089844 40.011719 49.074219 40.054688 49.234375 40.683594 C 49.300781 40.9375 49.566406 42.023438 49.832031 43.097656 C 50.101562 44.171875 50.367188 45.257812 50.433594 45.511719 C 50.511719 45.765625 50.59375 46.195312 50.632812 46.449219 C 50.671875 46.703125 50.832031 47.496094 50.976562 48.191406 C 51.125 48.890625 51.269531 49.585938 51.296875 49.734375 C 51.550781 51.289062 51.84375 52.589844 51.933594 52.535156 C 51.988281 52.496094 52 52.550781 51.960938 52.65625 C 51.933594 52.75 52.054688 53.582031 52.253906 54.507812 C 52.441406 55.417969 52.625 56.597656 52.652344 57.109375 C 52.679688 57.632812 52.773438 58.746094 52.851562 59.589844 C 53.039062 61.558594 53.039062 67.863281 52.839844 68.359375 C 52.773438 68.558594 52.707031 68.867188 52.707031 69.054688 C 52.707031 69.230469 52.652344 69.484375 52.585938 69.617188 C 52.519531 69.738281 52.359375 70.195312 52.242188 70.609375 C 51.894531 71.722656 51.363281 72.730469 50.964844 73.023438 C 50.578125 73.320312 49.886719 73.386719 49.023438 73.226562 C 48.464844 73.132812 48.464844 73.132812 48.117188 73.722656 C 47.574219 74.660156 47.28125 74.792969 45.589844 74.847656 C 43.875 74.914062 43.265625 74.78125 43.011719 74.324219 C 42.757812 73.867188 42.972656 73.160156 43.714844 71.992188 C 44.128906 71.347656 44.273438 71.011719 44.179688 70.90625 C 44.101562 70.796875 44.113281 70.71875 44.261719 70.664062 C 44.367188 70.625 44.460938 70.421875 44.460938 70.222656 C 44.460938 70.019531 44.554688 69.511719 44.671875 69.109375 C 44.78125 68.707031 44.964844 68.035156 45.074219 67.632812 C 45.230469 67.058594 45.273438 66.453125 45.21875 64.886719 C 45.125 62.191406 44.898438 61.425781 44.898438 63.8125 C 44.886719 65.691406 44.460938 68.707031 44.101562 69.445312 C 43.503906 70.625 42.945312 70.851562 40.695312 70.851562 C 39.726562 70.851562 38.875 70.90625 38.808594 70.972656 C 38.730469 71.039062 38.4375 71.121094 38.144531 71.160156 C 37.851562 71.199219 37.132812 71.335938 36.546875 71.46875 C 35.734375 71.671875 35.085938 71.710938 33.792969 71.683594 L 32.09375 71.644531 L 32.09375 71.292969 C 32.09375 70.71875 32.957031 69.980469 33.847656 69.792969 C 35.097656 69.523438 36.320312 68.480469 36.90625 67.136719 C 37.226562 66.425781 37.265625 65.234375 37.011719 63.71875 C 36.945312 63.25 36.878906 62.621094 36.878906 62.3125 C 36.878906 61.988281 36.839844 61.734375 36.785156 61.734375 C 36.71875 61.734375 36.667969 61.320312 36.652344 60.824219 C 36.613281 59.429688 36.335938 56.90625 36.214844 56.976562 C 36.148438 57.015625 36.136719 56.921875 36.175781 56.785156 C 36.214844 56.640625 36.148438 55.902344 36.027344 55.136719 C 35.921875 54.375 35.761719 53.300781 35.683594 52.75 C 35.242188 49.480469 34.976562 47.925781 34.644531 46.71875 C 34.195312 45.121094 33.941406 44.195312 33.886719 43.96875 C 33.542969 42.707031 33.128906 36.769531 33.300781 35.734375 C 33.367188 35.402344 33.527344 34.460938 33.6875 33.644531 C 33.835938 32.839844 33.96875 31.847656 33.992188 31.472656 C 34.007812 31.082031 34.074219 30.761719 34.140625 30.761719 C 34.195312 30.761719 34.21875 30.667969 34.179688 30.5625 C 34.125 30.453125 34.152344 30.332031 34.21875 30.292969 C 34.367188 30.199219 34.40625 28.898438 34.273438 28.5625 C 34.101562 28.121094 33.875 28.375 33.648438 29.246094 C 33.382812 30.253906 32.71875 31.996094 31.90625 33.777344 C 31.359375 34.972656 31.359375 35 31.335938 36.660156 C 31.335938 37.585938 31.28125 38.699219 31.226562 39.128906 C 31.160156 39.652344 31.1875 40.121094 31.308594 40.46875 C 31.574219 41.328125 31.558594 41.367188 31.28125 41.289062 C 31.027344 41.207031 30.960938 41.328125 31.027344 41.742188 C 31.042969 41.878906 30.949219 41.902344 30.667969 41.835938 C 30.46875 41.785156 30.125 41.703125 29.925781 41.664062 L 29.550781 41.59375 L 29.644531 42.441406 C 29.816406 43.902344 29.777344 44.8125 29.539062 45.054688 C 29.3125 45.296875 28.382812 45.363281 27.875 45.1875 C 27.570312 45.082031 27.570312 45.09375 27.570312 46.15625 C 27.570312 46.933594 27.648438 47.402344 27.835938 47.855469 C 28.035156 48.328125 28.074219 48.648438 28.023438 49.238281 C 27.957031 49.828125 28.007812 50.136719 28.195312 50.605469 C 28.367188 50.980469 28.433594 51.398438 28.394531 51.707031 C 28.367188 51.988281 28.449219 52.511719 28.609375 52.980469 C 28.953125 53.984375 29.300781 55.417969 29.445312 56.4375 C 29.683594 58.085938 29.964844 61.023438 29.964844 61.910156 C 29.964844 62.726562 29.9375 62.835938 29.699219 62.902344 C 29.484375 62.953125 29.445312 63.046875 29.511719 63.261719 C 29.726562 63.933594 29.777344 64.417969 29.726562 65.527344 C 29.660156 67.058594 29.589844 67.109375 27.515625 67.207031 L 26 67.273438 L 25.773438 66.910156 C 25.5625 66.589844 25.5625 66.453125 25.695312 65.554688 C 25.789062 65.007812 25.816406 64.484375 25.761719 64.402344 C 25.707031 64.296875 25.722656 64.28125 25.816406 64.335938 C 25.921875 64.402344 25.972656 64.269531 25.972656 63.894531 C 25.972656 63.371094 25.949219 63.332031 25.335938 63.046875 L 24.710938 62.738281 L 24.617188 61.265625 C 24.5625 60.460938 24.417969 58.53125 24.3125 56.976562 C 24.191406 55.433594 24.074219 53.863281 24.058594 53.515625 C 24.03125 53.101562 23.914062 52.765625 23.738281 52.578125 C 23.582031 52.390625 23.445312 52.027344 23.40625 51.613281 C 23.3125 50.671875 23.128906 49.949219 22.863281 49.425781 C 22.675781 49.050781 22.664062 48.917969 22.796875 48.527344 C 22.941406 48.140625 22.929688 48.03125 22.769531 47.832031 C 22.648438 47.695312 22.304688 47.105469 21.984375 46.515625 C 21.679688 45.925781 21.347656 45.351562 21.253906 45.242188 C 21.160156 45.136719 21.039062 44.558594 20.988281 43.96875 C 20.921875 43.152344 20.773438 42.601562 20.347656 41.648438 C 20.054688 40.964844 19.761719 40.375 19.695312 40.335938 C 19.511719 40.214844 19.070312 40.414062 18.925781 40.683594 C 18.820312 40.871094 18.84375 41.074219 18.976562 41.40625 C 19.152344 41.824219 19.152344 41.890625 18.910156 42.144531 C 18.765625 42.304688 18.5 42.425781 18.3125 42.425781 C 17.941406 42.425781 17.742188 42.816406 17.621094 43.769531 C 17.570312 44.238281 17.449219 44.464844 17.101562 44.773438 C 16.625 45.203125 16.570312 45.375 16.265625 47.855469 C 16.199219 48.378906 16.078125 49.210938 16 49.734375 C 15.878906 50.539062 15.894531 50.6875 16.066406 50.820312 C 16.199219 50.914062 16.265625 51.195312 16.265625 51.625 C 16.265625 51.988281 16.359375 52.765625 16.464844 53.355469 C 16.957031 55.996094 17.023438 58.449219 16.71875 61.910156 C 16.636719 62.78125 16.609375 62.847656 16.253906 62.96875 C 15.828125 63.117188 15.773438 63.261719 15.695312 64.46875 C 15.628906 65.449219 15.402344 65.675781 14.230469 65.878906 C 13.765625 65.957031 13.035156 66.144531 12.609375 66.292969 C 12.183594 66.441406 11.703125 66.5625 11.542969 66.5625 C 11.398438 66.5625 11.210938 66.613281 11.144531 66.683594 C 10.984375 66.828125 8.632812 66.628906 8.191406 66.425781 C 7.964844 66.332031 7.886719 66.1875 7.886719 65.863281 C 7.886719 65.289062 7.898438 65.273438 9.148438 64.324219 C 10.867188 63.007812 11.25 62.59375 11.183594 62.203125 C 11.144531 62.015625 11.160156 61.867188 11.210938 61.867188 C 11.382812 61.867188 11.476562 60.996094 11.609375 58.582031 C 11.664062 57.335938 11.757812 56.089844 11.796875 55.835938 C 12.183594 53.179688 12.195312 53.101562 11.902344 52.132812 C 11.570312 51.007812 11.359375 49.761719 11.277344 48.59375 C 11.25 48.113281 11.226562 47.695312 11.226562 47.65625 C 11.199219 47.523438 9.75 47.535156 9.75 47.667969 C 9.75 47.738281 9.828125 48.019531 9.933594 48.285156 C 10.332031 49.359375 10.332031 50.472656 9.933594 50.472656 C 9.667969 50.472656 9.308594 49.601562 9.402344 49.183594 C 9.523438 48.703125 9.269531 47.976562 8.855469 47.65625 C 8.433594 47.320312 8.191406 47.320312 8.085938 47.65625 C 8.046875 47.804688 7.898438 47.925781 7.765625 47.925781 C 7.554688 47.925781 7.515625 47.75 7.449219 46.625 C 7.355469 45.082031 7.195312 44.53125 6.757812 44.332031 C 6.515625 44.222656 6.421875 44.0625 6.421875 43.808594 C 6.421875 43.605469 6.355469 43.097656 6.265625 42.683594 C 6.089844 41.796875 6.265625 40.175781 6.621094 39.476562 C 7.046875 38.644531 7.992188 38.363281 10.507812 38.351562 C 11.863281 38.335938 12.023438 38.3125 12.277344 38.042969 C 12.582031 37.707031 12.621094 37.0625 12.367188 36.472656 C 12.167969 36.003906 12.234375 35.320312 12.476562 35.320312 C 12.699219 35.320312 13.113281 34.675781 13.035156 34.460938 C 12.992188 34.367188 12.726562 34.222656 12.421875 34.128906 C 12.117188 34.046875 11.875 33.914062 11.875 33.847656 C 11.875 33.777344 11.785156 33.644531 11.675781 33.539062 C 11.503906 33.363281 11.515625 33.308594 11.71875 33.160156 C 11.835938 33.066406 11.902344 33.042969 11.851562 33.09375 C 11.730469 33.230469 12.765625 33.738281 13.019531 33.683594 C 13.273438 33.617188 12.753906 32.117188 12.355469 31.765625 C 12.128906 31.578125 12.007812 31.324219 12.007812 31.082031 C 12.007812 30.574219 11.851562 30.347656 11.316406 30.105469 C 11.050781 29.972656 10.867188 29.769531 10.839844 29.582031 C 10.785156 29.246094 10.613281 29.207031 10.359375 29.460938 C 10.109375 29.703125 8.285156 33.605469 8.285156 33.871094 C 8.285156 34.167969 8.046875 34.730469 7.632812 35.359375 C 7.367188 35.777344 7.300781 36.058594 7.300781 36.769531 C 7.289062 37.855469 6.847656 38.875 6.199219 39.277344 C 5.957031 39.421875 5.785156 39.636719 5.796875 39.746094 C 5.8125 39.851562 5.691406 40 5.519531 40.082031 C 5.359375 40.148438 5.253906 40.296875 5.292969 40.375 C 5.332031 40.46875 5.386719 40.628906 5.425781 40.722656 C 5.464844 40.804688 5.4375 40.964844 5.371094 41.058594 C 5.292969 41.207031 5.171875 41.179688 4.8125 40.964844 C 4.5625 40.804688 4.320312 40.683594 4.269531 40.683594 C 4.097656 40.683594 4.148438 41.300781 4.414062 42.320312 C 4.546875 42.855469 4.722656 43.605469 4.800781 43.96875 C 4.878906 44.34375 5.09375 45.269531 5.28125 46.046875 C 5.453125 46.824219 5.707031 47.925781 5.824219 48.515625 C 6.15625 50.191406 6.117188 50.148438 7.925781 50.242188 C 8.65625 50.285156 9.03125 50.363281 9.203125 50.527344 C 9.734375 51.007812 9.191406 51.328125 7.621094 51.476562 C 6.503906 51.585938 6.355469 51.636719 6.53125 51.851562 C 6.597656 51.933594 6.691406 52.253906 6.730469 52.550781 C 6.78125 52.84375 6.875 53.355469 6.957031 53.691406 C 7.035156 54.023438 7.15625 54.628906 7.234375 55.03125 C 7.300781 55.433594 7.488281 56.316406 7.632812 56.976562 C 7.78125 57.644531 7.992188 58.609375 8.113281 59.121094 C 8.21875 59.644531 8.417969 60.246094 8.539062 60.460938 C 8.855469 61.023438 8.898438 62.902344 8.589844 63.234375 C 8.125 63.746094 5.972656 64.09375 5.652344 63.71875 C 5.453125 63.464844 5.320312 62.875 3.898438 56.171875 C 3.75 55.511719 3.511719 54.386719 3.351562 53.691406 C 3.203125 52.992188 3.019531 52.148438 2.953125 51.8125 C 2.886719 51.476562 2.78125 51.195312 2.726562 51.167969 C 2.671875 51.15625 2.644531 50.902344 2.671875 50.605469 C 2.714844 50.230469 2.671875 50.054688 2.539062 50.003906 C 2.40625 49.949219 2.367188 49.789062 2.40625 49.535156 C 2.433594 49.304688 2.378906 49.039062 2.289062 48.917969 C 2.195312 48.796875 2.128906 48.527344 2.140625 48.3125 C 2.167969 48.097656 2.101562 47.804688 1.980469 47.644531 C 1.875 47.480469 1.820312 47.265625 1.863281 47.171875 C 1.902344 47.066406 1.847656 46.785156 1.753906 46.542969 C 1.664062 46.316406 1.597656 45.980469 1.609375 45.820312 C 1.636719 45.644531 1.570312 45.390625 1.460938 45.242188 C 1.355469 45.082031 1.289062 44.855469 1.328125 44.734375 C 1.355469 44.597656 1.316406 44.316406 1.222656 44.101562 C 1.128906 43.875 1.078125 43.605469 1.089844 43.484375 C 1.105469 43.367188 1.039062 43.097656 0.957031 42.882812 C 0.863281 42.667969 0.8125 42.414062 0.824219 42.320312 C 0.835938 42.226562 0.730469 41.703125 0.585938 41.179688 C 0.226562 39.839844 -0.09375 37.960938 0.0273438 37.828125 C 0.171875 37.667969 2.246094 37.199219 2.792969 37.199219 C 3.136719 37.199219 3.269531 37.265625 3.324219 37.464844 C 3.363281 37.613281 3.445312 37.734375 3.511719 37.734375 C 3.683594 37.734375 4.828125 35.28125 4.828125 34.933594 C 4.828125 34.769531 4.878906 34.542969 4.945312 34.410156 C 5.265625 33.777344 5.371094 33.351562 5.746094 31.433594 C 6.117188 29.527344 6.222656 29.207031 7.007812 27.609375 C 7.472656 26.660156 7.914062 25.71875 7.964844 25.53125 C 8.019531 25.34375 8.230469 24.929688 8.457031 24.609375 C 8.804688 24.097656 9.308594 22.582031 9.136719 22.582031 C 9.109375 22.582031 9.441406 22.207031 9.894531 21.75 C 10.640625 20.972656 10.945312 20.4375 11.742188 18.628906 C 11.890625 18.277344 12.050781 17.742188 12.074219 17.488281 C 12.089844 17.378906 12.167969 17.152344 12.25 16.992188 C 12.34375 16.816406 12.367188 16.683594 12.316406 16.683594 C 12.261719 16.683594 12.277344 16.628906 12.355469 16.574219 C 12.421875 16.523438 12.621094 16.253906 12.792969 15.984375 C 13.234375 15.25 13.683594 14.992188 14.667969 14.898438 C 15.828125 14.792969 15.960938 14.726562 16.265625 14.121094 C 16.625 13.425781 16.597656 12.511719 16.1875 11.386719 C 16 10.878906 15.761719 10.179688 15.640625 9.859375 C 15.492188 9.457031 15.292969 9.1875 14.976562 9.015625 C 14.578125 8.773438 14.535156 8.691406 14.617188 8.316406 C 14.65625 8.089844 14.761719 7.859375 14.828125 7.820312 C 14.921875 7.765625 14.910156 7.566406 14.789062 7.257812 C 14.441406 6.292969 15.160156 4.65625 16.144531 4.148438 C 16.570312 3.917969 18.0625 3.878906 18.578125 4.078125 C 18.765625 4.148438 19.417969 4.265625 20.015625 4.347656 C 21.984375 4.589844 22.902344 5.449219 23.566406 7.671875 C 23.871094 8.707031 23.9375 9.132812 23.886719 9.738281 C 23.804688 10.527344 23.78125 10.554688 23.15625 10.515625 C 22.753906 10.488281 22.597656 10.71875 22.449219 11.496094 C 22.277344 12.40625 23.394531 14.269531 24.125 14.269531 C 24.246094 14.269531 24.378906 14.203125 24.40625 14.121094 C 24.457031 13.960938 26.890625 15.128906 27.078125 15.394531 C 27.132812 15.476562 27.15625 15.785156 27.144531 16.078125 C 27.105469 16.589844 27.132812 16.617188 27.703125 16.832031 C 28.5 17.125 29.101562 17.664062 30.070312 18.960938 C 30.84375 19.996094 30.988281 20.316406 31.253906 21.578125 C 31.320312 21.898438 31.441406 22.128906 31.574219 22.152344 C 31.734375 22.179688 31.839844 21.914062 32.078125 20.878906 C 32.332031 19.726562 32.371094 19.246094 32.332031 17.21875 C 32.292969 14.605469 32.316406 14.496094 33.261719 13.4375 C 33.703125 12.941406 35.175781 11.667969 36.535156 10.609375 C 36.917969 10.316406 37.011719 10.140625 37.011719 9.777344 C 37.011719 9.523438 36.945312 9.308594 36.867188 9.308594 C 36.800781 9.308594 36.761719 9.253906 36.800781 9.203125 C 36.960938 8.933594 36.320312 7.296875 35.828125 6.695312 C 35.335938 6.105469 35.042969 5.300781 35.203125 5.03125 C 35.242188 4.964844 35.363281 4.347656 35.46875 3.664062 C 35.710938 2.054688 35.816406 1.800781 36.5625 0.996094 C 37.277344 0.21875 38.128906 -0.128906 38.875 0.0429688 C 40.085938 0.324219 41.082031 1.171875 41.375 2.164062 C 41.457031 2.445312 41.613281 3.007812 41.734375 3.421875 C 41.855469 3.839844 42.039062 4.292969 42.132812 4.429688 C 42.347656 4.710938 42.371094 5.152344 42.253906 5.796875 C 42.1875 6.144531 42.09375 6.210938 41.746094 6.25 C 41.335938 6.292969 41.335938 6.292969 41.296875 7.136719 C 41.253906 7.96875 41.269531 7.996094 41.761719 8.492188 C 42.1875 8.90625 42.464844 9.039062 43.464844 9.296875 C 45.589844 9.84375 47.707031 11.066406 48.476562 12.191406 C 48.957031 12.890625 49.394531 14.121094 49.847656 15.984375 C 50.058594 16.804688 50.257812 17.488281 50.300781 17.488281 C 50.339844 17.488281 50.351562 17.957031 50.324219 18.519531 C 50.300781 19.097656 50.351562 20.773438 50.445312 22.261719 C 50.59375 24.582031 50.59375 25.210938 50.417969 26.886719 C 50.300781 27.945312 50.140625 29.03125 50.074219 29.285156 C 49.992188 29.542969 49.6875 30.574219 49.382812 31.566406 C 48.570312 34.222656 48.144531 36.097656 48.238281 36.632812 C 48.332031 37.210938 48.675781 37.625 48.996094 37.53125 C 49.421875 37.386719 49.78125 37.695312 49.78125 38.203125 C 49.78125 38.578125 49.832031 38.671875 50.046875 38.671875 C 50.246094 38.671875 50.3125 38.765625 50.3125 39.019531 C 50.3125 39.328125 50.339844 39.355469 50.511719 39.210938 C 50.671875 39.074219 50.765625 39.074219 50.871094 39.183594 C 50.964844 39.277344 51.085938 39.34375 51.136719 39.34375 C 51.191406 39.34375 51.242188 38.578125 51.242188 37.625 C 51.242188 36.6875 51.308594 35.710938 51.390625 35.453125 C 51.484375 35.1875 51.5625 33.832031 51.578125 32.304688 C 51.601562 30.828125 51.683594 29.140625 51.761719 28.550781 C 51.828125 27.960938 51.988281 26.765625 52.109375 25.90625 C 52.308594 24.367188 52.308594 24.324219 52.015625 23.441406 C 51.722656 22.542969 51.722656 22.542969 51.976562 21.65625 C 52.109375 21.175781 52.269531 19.96875 52.320312 18.976562 C 52.386719 17.984375 52.492188 16.976562 52.585938 16.722656 C 52.667969 16.480469 53.105469 15.890625 53.558594 15.421875 C 54.261719 14.710938 54.542969 14.523438 55.3125 14.269531 C 56.417969 13.894531 57.363281 13.304688 58.144531 12.488281 L 58.71875 11.882812 L 58.585938 11.160156 C 58.503906 10.769531 58.386719 10.179688 58.320312 9.84375 C 58.253906 9.511719 58.160156 8.398438 58.105469 7.363281 L 58.027344 5.488281 L 58.519531 4.832031 C 59.222656 3.90625 59.847656 3.609375 61.085938 3.609375 C 62.257812 3.609375 63.226562 4.027344 63.625 4.667969 C 63.972656 5.246094 64.382812 6.9375 64.492188 8.167969 C 64.582031 9.375 64.476562 9.765625 63.730469 10.742188 C 63.359375 11.238281 63.320312 11.359375 63.425781 11.734375 C 63.53125 12.097656 63.679688 12.207031 64.609375 12.582031 C 65.195312 12.808594 65.953125 13.199219 66.285156 13.425781 C 66.871094 13.839844 67.910156 14.191406 68.054688 14.027344 C 68.160156 13.933594 68.667969 14.417969 68.667969 14.605469 C 68.667969 14.820312 68.972656 14.941406 69.476562 14.941406 C 69.703125 14.941406 70.023438 15.085938 70.261719 15.316406 C 70.636719 15.652344 70.6875 15.796875 70.914062 17.355469 C 71.085938 18.535156 71.261719 19.230469 71.5 19.726562 C 71.804688 20.316406 72.390625 22.570312 72.800781 24.726562 C 72.976562 25.601562 73.320312 26.5 73.480469 26.445312 C 73.5625 26.417969 73.878906 25.921875 74.1875 25.332031 C 74.558594 24.648438 75.183594 23.816406 75.929688 23 C 79.132812 19.511719 79.707031 19.070312 82.632812 17.714844 C 84.480469 16.859375 84.691406 16.386719 84.09375 14.257812 C 83.816406 13.222656 83.734375 10.863281 83.972656 10.703125 C 84.039062 10.664062 84.09375 10.527344 84.09375 10.394531 C 84.09375 9.9375 84.492188 9.335938 84.945312 9.121094 C 85.890625 8.664062 87.859375 9.027344 88.457031 9.75 C 88.550781 9.859375 88.933594 10.058594 89.292969 10.195312 C 89.652344 10.328125 90.050781 10.542969 90.171875 10.675781 C 90.371094 10.90625 90.371094 10.945312 89.972656 11.359375 C 89.46875 11.898438 89.148438 12.621094 89.148438 13.304688 C 89.148438 14.015625 88.507812 16.160156 88.203125 16.496094 C 87.925781 16.789062 87.84375 17.851562 88.085938 18.277344 C 88.152344 18.414062 88.65625 18.800781 89.203125 19.152344 C 89.746094 19.5 90.476562 20.089844 90.835938 20.492188 C 91.394531 21.109375 91.527344 21.402344 91.914062 22.664062 C 92.167969 23.46875 92.472656 24.417969 92.621094 24.78125 C 92.753906 25.144531 92.871094 25.640625 92.871094 25.882812 C 92.871094 26.445312 92.976562 26.457031 93.496094 25.90625 C 94.363281 24.96875 95.53125 22.769531 95.53125 22.058594 C 95.53125 21.539062 95.171875 20.707031 94.933594 20.707031 C 94.828125 20.707031 94.5625 20.972656 94.347656 21.296875 C 93.777344 22.128906 93.390625 22.246094 92.726562 21.765625 C 92.367188 21.511719 92.328125 21.417969 92.367188 20.851562 C 92.394531 20.34375 92.460938 20.222656 92.6875 20.195312 C 93.085938 20.144531 93.417969 19.742188 94.070312 18.492188 C 95 16.765625 95.132812 16.523438 95.746094 15.597656 C 96.171875 14.96875 96.328125 14.589844 96.328125 14.242188 C 96.328125 13.640625 96.421875 13.574219 96.996094 13.734375 C 97.527344 13.882812 97.738281 13.734375 98.257812 12.847656 C 98.472656 12.488281 98.699219 12.257812 98.84375 12.257812 C 99.070312 12.257812 99.070312 12.339844 98.710938 13.238281 C 98.511719 13.761719 98.339844 14.390625 98.324219 14.617188 C 98.324219 14.832031 98.085938 15.515625 97.792969 16.132812 C 97.273438 17.207031 97.261719 17.261719 97.378906 18.078125 C 97.511719 19.03125 97.792969 19.566406 98.21875 19.671875 C 98.457031 19.742188 98.484375 19.820312 98.40625 20.398438 C 98.285156 21.253906 98.097656 21.726562 97.59375 22.449219 C 97.074219 23.1875 96.597656 24.152344 96.597656 24.488281 C 96.597656 24.621094 96.554688 24.726562 96.488281 24.726562 C 96.382812 24.726562 96.0625 25.679688 96.0625 26.003906 C 96.0625 26.109375 96.011719 26.203125 95.945312 26.203125 C 95.878906 26.203125 95.785156 26.363281 95.730469 26.566406 C 95.480469 27.585938 93.65625 30.773438 93.179688 31.042969 C 92.792969 31.257812 92.167969 31.003906 91.792969 30.480469 C 91.648438 30.265625 91.460938 30.089844 91.394531 30.089844 C 91.234375 30.089844 91.234375 31.378906 91.394531 31.6875 C 91.527344 31.914062 91.527344 32.34375 91.476562 34.972656 C 91.449219 36.085938 91.410156 36.328125 91.210938 36.488281 C 91.011719 36.621094 90.984375 36.714844 91.117188 36.957031 C 91.195312 37.128906 91.289062 37.867188 91.316406 38.605469 C 91.355469 39.34375 91.476562 40.910156 91.582031 42.089844 C 91.703125 43.273438 91.859375 45.417969 91.941406 46.851562 C 92.019531 48.285156 92.152344 49.933594 92.21875 50.5 C 92.417969 52.054688 92.378906 53.527344 92.128906 54.425781 C 91.953125 55.042969 91.914062 55.714844 91.925781 57.308594 C 91.953125 59.496094 91.792969 60.96875 91.460938 61.628906 C 91.355469 61.84375 91.222656 62.527344 91.183594 63.140625 C 91.117188 64.160156 91.128906 64.308594 91.421875 64.777344 C 92.179688 66.011719 92.738281 66.628906 93.429688 66.964844 C 93.910156 67.191406 94.203125 67.433594 94.320312 67.703125 C 94.429688 67.929688 94.574219 68.144531 94.652344 68.210938 C 95.078125 68.503906 93.269531 69.027344 91.953125 68.988281 C 91.554688 68.976562 91.023438 68.855469 90.757812 68.71875 C 90.464844 68.574219 89.800781 68.4375 89.082031 68.386719 C 87.527344 68.265625 87.460938 68.199219 87.660156 67.003906 C 87.75 66.507812 87.816406 65.074219 87.804688 63.828125 C 87.804688 61.761719 87.777344 61.492188 87.472656 60.636719 C 87.140625 59.722656 87.140625 59.644531 87.273438 58.128906 C 87.351562 57.230469 87.390625 55.179688 87.351562 53.289062 C 87.300781 50.335938 87.257812 49.910156 86.992188 49.0625 C 86.6875 48.113281 86.488281 47.949219 86.34375 48.5 C 86.050781 49.535156 85.957031 49.976562 85.808594 50.808594 C 85.730469 51.328125 85.609375 51.867188 85.558594 52.015625 C 85.503906 52.160156 85.398438 52.589844 85.316406 52.953125 C 85.238281 53.328125 85.050781 54.199219 84.90625 54.898438 C 84.414062 57.1875 84.226562 58.53125 84.226562 59.789062 C 84.226562 61.292969 84.148438 61.707031 83.800781 62.136719 C 83.65625 62.324219 83.574219 62.390625 83.628906 62.3125 C 83.75 62.070312 83.628906 62.097656 83.375 62.351562 C 83.203125 62.511719 83.164062 62.886719 83.164062 64.269531 C 83.164062 65.757812 83.203125 66.039062 83.414062 66.308594 C 83.550781 66.496094 83.75 66.84375 83.867188 67.097656 C 84.1875 67.863281 84.867188 68.695312 85.226562 68.789062 C 85.476562 68.855469 85.664062 69.070312 85.902344 69.566406 C 86.316406 70.410156 86.261719 70.464844 84.625 70.839844 C 82.992188 71.226562 82.671875 71.199219 81.472656 70.582031 C 80.902344 70.289062 80.332031 70.046875 80.199219 70.046875 C 79.796875 70.046875 79.640625 69.472656 79.8125 68.679688 C 80.0625 67.511719 80.265625 64.417969 80.171875 63.34375 C 80.089844 62.527344 80.011719 62.285156 79.746094 62.042969 C 79.425781 61.734375 79.425781 61.679688 79.453125 60.046875 C 79.480469 58.273438 79.398438 58.019531 78.894531 58.195312 C 78.773438 58.222656 78.640625 58.167969 78.589844 58.046875 C 78.546875 57.941406 78.402344 57.847656 78.253906 57.847656 C 77.976562 57.847656 76.765625 57.496094 76.246094 57.269531 C 75.808594 57.070312 72.351562 55.015625 71.59375 54.507812 C 71.261719 54.28125 70.953125 54.09375 70.902344 54.09375 C 70.527344 54.09375 70.566406 61.398438 70.953125 65.085938 C 71.074219 66.253906 71.179688 66.640625 71.539062 67.351562 C 72.03125 68.277344 72.085938 68.640625 71.832031 69.324219 C 71.683594 69.726562 71.710938 69.792969 72.03125 70.128906 C 72.230469 70.328125 72.390625 70.570312 72.390625 70.664062 C 72.390625 70.933594 73.175781 71.671875 73.894531 72.085938 C 75.476562 73.011719 74.929688 74.621094 72.789062 75.371094 C 71.101562 75.960938 69.144531 75.839844 67.269531 75.023438 C 67.125 74.953125 66.644531 74.765625 66.207031 74.605469 C 65.0625 74.175781 64.570312 73.949219 64.476562 73.800781 C 64.4375 73.722656 64.316406 73.667969 64.222656 73.667969 C 64.089844 73.667969 64.066406 73.894531 64.117188 74.621094 C 64.15625 75.261719 64.132812 75.664062 64 75.894531 C 63.824219 76.230469 63.214844 76.644531 62.816406 76.699219 C 62.707031 76.710938 62.164062 76.792969 61.617188 76.871094 C 61.070312 76.964844 60.046875 77.019531 59.355469 76.992188 C 58.320312 76.964844 57.972656 76.898438 57.429688 76.617188 Z M 64.332031 71.589844 C 64.863281 69.699219 65.140625 66.898438 64.96875 65.152344 C 64.914062 64.496094 64.902344 63.371094 64.96875 62.671875 C 65.023438 61.9375 65.023438 60.621094 64.941406 59.550781 C 64.824219 57.992188 64.835938 57.523438 65.007812 56.652344 C 65.15625 55.941406 65.207031 55.070312 65.183594 53.917969 C 65.15625 52.992188 65.183594 52.269531 65.234375 52.296875 C 65.328125 52.363281 65.261719 51.449219 65.128906 50.78125 C 65.074219 50.511719 64.542969 50.125 62.761719 49.089844 L 62.347656 48.863281 L 62.257812 51.035156 C 62.1875 52.242188 62.097656 53.476562 62.015625 53.796875 C 61.949219 54.105469 61.882812 55.820312 61.882812 57.617188 C 61.882812 60.660156 61.910156 60.996094 62.28125 63.007812 C 62.507812 64.1875 62.722656 65.636719 62.761719 66.226562 C 62.800781 66.816406 62.921875 67.566406 63.027344 67.890625 C 63.265625 68.652344 63.265625 69.082031 63.015625 69.832031 C 62.816406 70.410156 62.816406 70.4375 63.253906 71.347656 C 63.863281 72.636719 63.890625 72.664062 64.023438 72.449219 C 64.089844 72.339844 64.222656 71.964844 64.332031 71.589844 Z M 79.546875 56.4375 C 79.503906 56.265625 79.53125 56.144531 79.585938 56.183594 C 79.652344 56.222656 79.707031 56.144531 79.707031 56.007812 C 79.707031 55.863281 79.773438 55.6875 79.863281 55.59375 C 79.957031 55.5 79.996094 55.136719 79.972656 54.667969 C 79.890625 53.394531 79.945312 52.1875 80.089844 52.039062 C 80.171875 51.960938 80.238281 51.757812 80.238281 51.585938 C 80.238281 51.410156 80.34375 50.953125 80.488281 50.550781 C 80.648438 50.082031 80.714844 49.628906 80.675781 49.183594 C 80.636719 48.824219 80.714844 47.628906 80.835938 46.515625 C 81.0625 44.519531 81.113281 40.710938 80.929688 40.523438 C 80.875 40.46875 80.863281 39.988281 80.914062 39.449219 C 80.96875 38.914062 80.980469 38.429688 80.957031 38.378906 C 80.914062 38.324219 80.703125 38.324219 80.449219 38.363281 C 79.503906 38.511719 78.828125 37.773438 78.523438 36.234375 C 78.386719 35.617188 78.203125 35.265625 77.539062 34.449219 C 77.085938 33.886719 76.367188 32.960938 75.941406 32.398438 C 75.503906 31.820312 75.0625 31.3125 74.957031 31.246094 C 74.769531 31.152344 74.757812 31.191406 74.851562 31.578125 C 74.902344 31.835938 74.957031 32.195312 74.957031 32.398438 C 74.957031 32.597656 74.996094 32.734375 75.050781 32.707031 C 75.101562 32.679688 75.117188 32.785156 75.089844 32.960938 C 74.996094 33.402344 75.328125 34.046875 76.234375 35.144531 C 76.660156 35.683594 77.179688 36.488281 77.390625 36.957031 C 77.921875 38.136719 77.921875 39.53125 77.378906 40.859375 C 77.179688 41.367188 76.9375 41.808594 76.847656 41.835938 C 76.644531 41.917969 75.078125 41.273438 74.757812 40.980469 C 74.570312 40.832031 74.519531 40.5625 74.519531 39.945312 C 74.519531 39.503906 74.464844 39.074219 74.410156 39.007812 C 74.34375 38.925781 74.226562 38.605469 74.132812 38.269531 C 74.054688 37.933594 73.917969 37.546875 73.851562 37.398438 C 73.585938 36.78125 73.453125 36.179688 73.453125 35.601562 C 73.441406 34.796875 73.121094 34.101562 72.285156 33.082031 C 71.5 32.128906 70.527344 30.238281 70.527344 29.664062 C 70.527344 29.449219 70.460938 29.140625 70.382812 28.992188 C 70.300781 28.832031 70.234375 28.429688 70.234375 28.09375 C 70.25 27.773438 70.183594 27.410156 70.101562 27.316406 C 70.023438 27.207031 69.941406 26.941406 69.929688 26.699219 C 69.890625 26.070312 69.769531 25.625 69.371094 24.621094 C 68.945312 23.5625 68.414062 22.582031 68.265625 22.582031 C 68.121094 22.582031 67.988281 22.984375 68.066406 23.121094 C 68.109375 23.1875 68.082031 24.445312 68 25.921875 C 67.867188 28.226562 67.882812 28.644531 68.042969 28.886719 C 68.148438 29.046875 68.214844 29.285156 68.175781 29.433594 C 68.132812 29.570312 68.160156 29.6875 68.226562 29.6875 C 68.292969 29.6875 68.46875 30.160156 68.613281 30.734375 C 68.746094 31.296875 69.011719 32.035156 69.210938 32.382812 C 69.808594 33.417969 69.890625 33.886719 69.941406 36.378906 C 69.96875 38.003906 70.0625 39.101562 70.222656 39.917969 C 70.355469 40.5625 70.5 41.074219 70.527344 41.03125 C 70.621094 40.9375 70.582031 43.527344 70.476562 44.972656 C 70.367188 46.421875 70.59375 50.097656 70.835938 50.59375 C 70.992188 50.914062 71.726562 51.398438 75.25 53.527344 C 76.5 54.28125 77.285156 54.871094 78.109375 55.660156 C 79.292969 56.828125 79.652344 57.015625 79.546875 56.4375 Z M 64.476562 46.15625 C 64.371094 45.269531 63.933594 43.578125 63.691406 43.125 L 63.507812 42.777344 L 63.359375 43.296875 C 63.28125 43.59375 63.132812 44.171875 63.015625 44.597656 C 62.707031 45.738281 62.734375 45.804688 63.585938 46.355469 C 64 46.625 64.398438 46.851562 64.449219 46.851562 C 64.515625 46.851562 64.53125 46.53125 64.476562 46.15625 Z M 54.222656 44.503906 C 54.316406 44.15625 54.503906 43.6875 54.675781 43.339844 C 54.703125 43.273438 54.636719 43.230469 54.515625 43.230469 C 54.382812 43.230469 54.300781 43.125 54.300781 42.949219 C 54.300781 42.75 54.234375 42.683594 54.011719 42.722656 C 53.71875 42.761719 53.703125 42.828125 53.691406 43.875 C 53.675781 44.828125 53.703125 44.988281 53.890625 44.949219 C 53.996094 44.921875 54.15625 44.71875 54.222656 44.503906 Z M 55.632812 41.902344 C 55.632812 41.851562 55.820312 41.570312 56.03125 41.289062 C 56.390625 40.832031 56.429688 40.683594 56.429688 39.800781 C 56.429688 39.195312 56.378906 38.808594 56.285156 38.78125 C 56.191406 38.753906 56.136719 38.417969 56.152344 37.949219 C 56.152344 37.507812 56.097656 37.078125 56.019531 36.984375 C 55.660156 36.554688 55.671875 32.195312 56.03125 31.765625 C 56.113281 31.671875 56.164062 31.324219 56.152344 31.003906 C 56.136719 30.695312 56.203125 30.253906 56.285156 30.050781 C 56.363281 29.835938 56.429688 29.355469 56.429688 28.964844 C 56.429688 28.589844 56.496094 28.199219 56.578125 28.121094 C 56.65625 28.039062 56.722656 27.503906 56.738281 26.925781 C 56.75 26.109375 56.683594 25.71875 56.46875 25.238281 C 56.113281 24.445312 55.804688 24.394531 55.699219 25.105469 C 55.660156 25.371094 55.554688 25.855469 55.472656 26.175781 C 55.339844 26.710938 55.351562 27.183594 55.605469 29.058594 C 55.671875 29.488281 55.671875 29.863281 55.621094 29.890625 C 55.578125 29.929688 55.5 30.210938 55.445312 30.519531 C 55.394531 30.84375 55.179688 31.726562 54.953125 32.476562 C 54.726562 33.242188 54.582031 33.941406 54.609375 34.019531 C 54.636719 34.113281 54.570312 34.246094 54.449219 34.34375 C 54.117188 34.582031 54.167969 36.042969 54.542969 36.824219 C 54.703125 37.171875 54.835938 37.519531 54.835938 37.585938 C 54.835938 37.667969 54.902344 37.734375 54.96875 37.734375 C 55.046875 37.734375 55.101562 38.070312 55.101562 38.472656 C 55.101562 38.859375 55.167969 39.515625 55.261719 39.90625 C 55.394531 40.523438 55.417969 40.980469 55.378906 41.488281 C 55.367188 41.554688 55.195312 41.582031 54.96875 41.542969 C 54.648438 41.476562 54.570312 41.5 54.570312 41.675781 C 54.570312 41.835938 54.648438 41.878906 54.902344 41.808594 C 55.101562 41.757812 55.234375 41.785156 55.234375 41.878906 C 55.234375 41.957031 55.328125 42.023438 55.433594 42.023438 C 55.539062 42.023438 55.632812 41.972656 55.632812 41.902344 Z M 54.355469 41.207031 C 54.261719 41.058594 53.902344 41.046875 53.902344 41.195312 C 53.902344 41.382812 54.050781 41.476562 54.25 41.394531 C 54.355469 41.355469 54.394531 41.273438 54.355469 41.207031 Z M 29.179688 36.824219 C 29.644531 35.429688 30.109375 31.269531 29.832031 31.097656 C 29.777344 31.058594 29.566406 31.203125 29.351562 31.40625 C 29.140625 31.605469 28.542969 32.117188 28.007812 32.546875 C 27.476562 32.972656 27.011719 33.445312 26.972656 33.5625 C 26.933594 33.699219 27 34.167969 27.117188 34.597656 C 27.222656 35.039062 27.355469 35.910156 27.398438 36.566406 C 27.476562 37.722656 27.476562 37.734375 27.824219 37.734375 C 28.007812 37.734375 28.261719 37.800781 28.367188 37.867188 C 28.699219 38.082031 28.808594 37.960938 29.179688 36.824219 Z M 80.769531 34.90625 C 80.769531 34.625 80.464844 33.578125 80.382812 33.578125 C 80.34375 33.578125 80.289062 32.949219 80.277344 32.195312 C 80.265625 31.433594 80.199219 30.574219 80.117188 30.277344 C 80.050781 29.996094 79.917969 28.980469 79.839844 28.011719 C 79.757812 27.0625 79.640625 26.136719 79.597656 25.960938 L 79.503906 25.652344 L 78.972656 26.054688 C 78.679688 26.285156 78.03125 26.738281 77.539062 27.089844 C 76.832031 27.558594 76.644531 27.757812 76.710938 27.917969 C 76.765625 28.054688 76.886719 28.390625 76.980469 28.683594 C 77.539062 30.386719 77.921875 31.339844 78.402344 32.167969 C 79.28125 33.710938 80.011719 34.757812 80.289062 34.90625 C 80.664062 35.078125 80.769531 35.078125 80.769531 34.90625 Z M 13.804688 32.546875 C 13.804688 32.15625 13.75 32.023438 13.550781 31.996094 C 13.324219 31.941406 13.3125 31.996094 13.40625 32.453125 C 13.566406 33.363281 13.816406 33.417969 13.804688 32.546875 Z M 46.46875 28.992188 C 46.535156 28.308594 46.65625 27.25 46.734375 26.644531 C 46.867188 25.71875 46.867188 25.507812 46.707031 25.304688 C 46.550781 25.117188 46.550781 25.089844 46.707031 25.199219 C 46.867188 25.292969 46.882812 25.183594 46.816406 24.566406 C 46.707031 23.695312 46.230469 22.046875 46.070312 22.046875 C 45.75 22.046875 44.992188 24.941406 44.992188 26.175781 C 44.992188 26.859375 45.125 27.464844 45.550781 28.777344 C 45.898438 29.808594 46.164062 30.441406 46.230469 30.375 C 46.296875 30.304688 46.402344 29.675781 46.46875 28.992188 Z M 29.167969 26.671875 C 29.167969 26.417969 29.03125 26.417969 28.632812 26.699219 C 27.664062 27.34375 27.171875 28.082031 27.609375 28.253906 C 27.796875 28.335938 29.167969 26.953125 29.167969 26.671875 Z M 12.914062 25.773438 C 13.113281 25.574219 13.125 25.128906 12.941406 25.128906 C 12.765625 25.128906 12.277344 25.625 12.277344 25.800781 C 12.277344 25.988281 12.714844 25.976562 12.914062 25.773438 Z M 12.914062 25.773438 "
    />
    <path
      d="M 44.234375 75.050781 C 44.5 75.023438 44.953125 75.023438 45.230469 75.050781 C 45.5 75.074219 45.273438 75.101562 44.726562 75.101562 C 44.179688 75.101562 43.957031 75.074219 44.234375 75.050781 Z M 25.335938 66.425781 C 25.335938 66.171875 25.363281 66.066406 25.402344 66.199219 C 25.429688 66.320312 25.429688 66.535156 25.402344 66.667969 C 25.363281 66.789062 25.335938 66.683594 25.335938 66.425781 Z M 55.40625 64.082031 C 55.40625 63.785156 55.433594 63.679688 55.460938 63.851562 C 55.488281 64.015625 55.488281 64.253906 55.460938 64.390625 C 55.417969 64.511719 55.394531 64.375 55.40625 64.082031 Z M 55.128906 58.382812 C 55.128906 58.128906 55.152344 58.019531 55.195312 58.15625 C 55.21875 58.273438 55.21875 58.488281 55.195312 58.625 C 55.152344 58.746094 55.128906 58.636719 55.128906 58.382812 Z M 87.058594 52.886719 C 87.058594 52.550781 87.085938 52.414062 87.113281 52.589844 C 87.140625 52.75 87.140625 53.019531 87.113281 53.195312 C 87.085938 53.355469 87.058594 53.21875 87.058594 52.886719 Z M 50.75 24.59375 C 50.75 24.191406 50.777344 24.019531 50.804688 24.230469 C 50.832031 24.433594 50.832031 24.753906 50.804688 24.96875 C 50.777344 25.171875 50.75 24.996094 50.75 24.59375 Z M 50.75 24.59375 "
    />
  </g>
</svg>
