<svg id="root" xmlns="http://www.w3.org/2000/svg"
  style="transform:matrix(1,0,0,1,0,0);transform-origin:50% 50%;cursor:move;transition:transform 200ms ease-in-out 0s"
  width="1536" height="882" viewBox="0 0 15360 8820">
  <g>
    <path
      d="M8095 7830c-51-26-78-43-152-95l-42-30-1-73c0-46 6-84 15-102 8-16 14-33 13-37 0-4 4-21 11-38 23-52 18-161-9-235-10-28-10-48-1-88 6-29 11-70 11-92 0-21 5-42 10-45 13-8 13-274-1-424-10-109-9-122 11-187 12-38 25-78 30-89 7-18 16-50 35-120 3-12 0-54-6-95-19-125-26-290-12-290 6 0 22-14 34-31 19-27 21-38 14-87-5-32-9-83-9-115l-1-58-47-29c-27-17-57-30-67-30-11 0-40 26-72 65-41 51-55 62-66 53-9-7-11-22-7-44s2-34-5-34c-14 0-124-165-139-209-7-19-12-47-12-62 0-19-5-29-15-29-8 0-17-11-21-23-4-19-11-23-30-19-20 4-24 1-24-22 0-24-2-26-21-16-11 7-27 9-35 6-16-6-17-3-5 44 5 19 25 100 45 180s40 161 45 180c6 19 12 51 15 70s15 78 26 130 22 104 24 115c19 116 41 213 48 209 4-3 5 1 2 9-2 7 7 69 22 138 14 68 28 156 30 194 2 39 9 122 15 185 14 147 14 617-1 654-5 15-10 38-10 52 0 13-4 32-9 42-5 9-17 43-26 74-26 83-66 158-96 180-29 22-81 27-146 15-42-7-42-7-68 37-41 70-63 80-190 84-129 5-175-5-194-39s-3-87 53-174c31-48 42-73 35-81-6-8-5-14 6-18 8-3 15-18 15-33s7-53 16-83c8-30 22-80 30-110 12-43 15-88 11-205-7-201-24-258-24-80-1 140-33 365-60 420-45 88-87 105-256 105-73 0-137 4-142 9-6 5-28 11-50 14s-76 13-120 23c-61 15-110 18-207 16l-128-3v-26c0-43 65-98 132-112 94-20 186-98 230-198 24-53 27-142 8-255-5-35-10-82-10-105 0-24-3-43-7-43-5 0-9-31-10-68-3-104-24-292-33-287-5 3-6-4-3-14 3-11-2-66-11-123-8-57-20-137-26-178-33-244-53-360-78-450-34-119-53-188-57-205-26-94-57-537-44-614 5-25 17-95 29-156 11-60 21-134 23-162 1-29 6-53 11-53 4 0 6-7 3-15-4-8-2-17 3-20 11-7 14-104 4-129-13-33-30-14-47 51-20 75-70 205-131 338-41 89-41 91-43 215 0 69-4 152-8 184-5 39-3 74 6 100 20 64 19 67-2 61-19-6-24 3-19 34 1 10-6 12-27 7-15-4-41-10-56-13l-28-5 7 63c13 109 10 177-8 195-17 18-87 23-125 10-23-8-23-7-23 72 0 58 6 93 20 127 15 35 18 59 14 103-5 44-1 67 13 102 13 28 18 59 15 82-2 21 4 60 16 95 26 75 52 182 63 258 18 123 39 342 39 408 0 61-2 69-20 74-16 4-19 11-14 27 16 50 20 86 16 169-5 114-10 118-166 125l-114 5-17-27c-16-24-16-34-6-101 7-41 9-80 5-86-4-8-3-9 4-5 8 5 12-5 12-33 0-39-2-42-48-63l-47-23-7-110c-4-60-15-204-23-320-9-115-18-232-19-258-2-31-11-56-24-70-12-14-22-41-25-72-7-70-21-124-41-163-14-28-15-38-5-67 11-29 10-37-2-52-9-10-35-54-59-98-23-44-48-87-55-95s-16-51-20-95c-5-61-16-102-48-173-22-51-44-95-49-98-14-9-47 6-58 26-8 14-6 29 4 54 13 31 13 36-5 55-11 12-31 21-45 21-28 0-43 29-52 100-4 35-13 52-39 75-36 32-40 45-63 230-5 39-14 101-20 140-9 60-8 71 5 81 10 7 15 28 15 60 0 27 7 85 15 129 37 197 42 380 19 638-6 65-8 70-35 79-32 11-36 22-42 112-5 73-22 90-110 105-35 6-90 20-122 31s-68 20-80 20c-11 0-25 4-30 9-12 11-189-4-222-19-17-7-23-18-23-42 0-43 1-44 95-115 129-98 158-129 153-158-3-14-2-25 2-25 13 0 20-65 30-245 4-93 11-186 14-205 29-198 30-204 8-276-25-84-41-177-47-264-2-36-4-67-4-70-2-10-111-9-111 1 0 5 6 26 14 46 30 80 30 163 0 163-20 0-47-65-40-96 9-36-10-90-41-114-32-25-50-25-58 0-3 11-14 20-24 20-16 0-19-13-24-97-7-115-19-156-52-171-18-8-25-20-25-39 0-15-5-53-12-84-13-66 0-187 27-239 32-62 103-83 292-84 102-1 114-3 133-23 23-25 26-73 7-117-15-35-10-86 8-86 17 0 48-48 42-64-3-7-23-18-46-25-23-6-41-16-41-21s-7-15-15-23c-13-13-12-17 3-28 9-7 14-9 10-5-9 10 69 48 88 44 19-5-20-117-50-143-17-14-26-33-26-51 0-38-12-55-52-73-20-10-34-25-36-39-4-25-17-28-36-9-19 18-156 309-156 329 0 22-18 64-49 111-20 31-25 52-25 105-1 81-34 157-83 187-18 11-31 27-30 35s-8 19-21 25c-12 5-20 16-17 22 3 7 7 19 10 26 3 6 1 18-4 25-6 11-15 9-42-7-19-12-37-21-41-21-13 0-9 46 11 122 10 40 23 96 29 123 6 28 22 97 36 155 13 58 32 140 41 184 25 125 22 122 158 129 55 3 83 9 96 21 40 36-1 60-119 71-84 8-95 12-82 28 5 6 12 30 15 52 4 22 11 60 17 85s15 70 21 100c5 30 19 96 30 145 11 50 27 122 36 160 8 39 23 84 32 100 24 42 27 182 4 207-35 38-197 64-221 36-15-19-25-63-132-563-11-49-29-133-41-185-11-52-25-115-30-140s-13-46-17-48c-4-1-6-20-4-42 3-28 0-41-10-45s-13-16-10-35c2-17-2-37-9-46s-12-29-11-45c2-16-3-38-12-50-8-12-12-28-9-35 3-8-1-29-8-47-7-17-12-42-11-54 2-13-3-32-11-43-8-12-13-29-10-38 2-10-1-31-8-47-7-17-11-37-10-46s-4-29-10-45c-7-16-11-35-10-42s-7-46-18-85c-27-100-51-240-42-250 11-12 167-47 208-47 26 0 36 5 40 20 3 11 9 20 14 20 13 0 99-183 99-209 0-12 4-29 9-39 24-47 32-79 60-222 28-142 36-166 95-285 35-71 68-141 72-155s20-45 37-69c26-38 64-151 51-151-2 0 23-28 57-62 56-58 79-98 139-233 11-26 23-66 25-85 1-8 7-25 13-37 7-13 9-23 5-23s-3-4 3-8c5-4 20-24 33-44 33-55 67-74 141-81 87-8 97-13 120-58 27-52 25-120-6-204-14-38-32-90-41-114-11-30-26-50-50-63-30-18-33-24-27-52 3-17 11-34 16-37 7-4 6-19-3-42-26-72 28-194 102-232 32-17 144-20 183-5 14 5 63 14 108 20 148 18 217 82 267 248 23 77 28 109 24 154-6 59-8 61-55 58-30-2-42 15-53 73-13 68 71 207 126 207 9 0 19-5 21-11 4-12 187 75 201 95 4 6 6 29 5 51-3 38-1 40 42 56 60 22 105 62 178 159 58 77 69 101 89 195 5 24 14 41 24 43 12 2 20-18 38-95 19-86 22-122 19-273-3-195-1-203 70-282 33-37 144-132 246-211 29-22 36-35 36-62 0-19-5-35-11-35-5 0-8-4-5-8 12-20-36-142-73-187-37-44-59-104-47-124 3-5 12-51 20-102 18-120 26-139 82-199 54-58 118-84 174-71 91 21 166 84 188 158 6 21 18 63 27 94s23 65 30 75c16 21 18 54 9 102-5 26-12 31-38 34-31 3-31 3-34 66-3 62-2 64 35 101 32 31 53 41 128 60 160 41 319 132 377 216 36 52 69 144 103 283 16 61 31 112 34 112s4 35 2 77c-2 43 2 168 9 279 11 173 11 220-2 345-9 79-21 160-26 179-6 19-29 96-52 170-61 198-93 338-86 378 7 43 33 74 57 67 32-11 59 12 59 50 0 28 4 35 20 35 15 0 20 7 20 26 0 23 2 25 15 14 12-10 19-10 27-2 7 7 16 12 20 12s8-57 8-128c0-70 5-143 11-162 7-20 13-121 14-235 2-110 8-236 14-280 5-44 17-133 26-197 15-115 15-118-7-184-22-67-22-67-3-133 10-36 22-126 26-200 5-74 13-149 20-168 6-18 39-62 73-97 53-53 74-67 132-86 83-28 154-72 213-133l43-45-10-54c-6-29-15-73-20-98s-12-108-16-185l-6-140 37-49c53-69 100-91 193-91 88 0 161 31 191 79 26 43 57 169 65 261 7 90-1 119-57 192-28 37-31 46-23 74 8 27 19 35 89 63 44 17 101 46 126 63 44 31 122 57 133 45 8-7 46 29 46 43 0 16 23 25 61 25 17 0 41 11 59 28 28 25 32 36 49 152 13 88 26 140 44 177 23 44 67 212 98 373 13 65 39 132 51 128 6-2 30-39 53-83 28-51 75-113 131-174 241-260 284-293 504-394 139-64 155-99 110-258-21-77-27-253-9-265 5-3 9-13 9-23 0-34 30-79 64-95 71-34 219-7 264 47 7 8 36 23 63 33s57 26 66 36c15 17 15 20-15 51-38 40-62 94-62 145 0 53-48 213-71 238-21 22-27 101-9 133 5 10 43 39 84 65s96 70 123 100c42 46 52 68 81 162 19 60 42 131 53 158 10 27 19 64 19 82 0 42 8 43 47 2 65-70 153-234 153-287 0-39-27-101-45-101-8 0-28 20-44 44-43 62-72 71-122 35-27-19-30-26-27-68 2-38 7-47 24-49 30-4 55-34 104-127 70-129 80-147 126-216 32-47 44-75 44-101 0-45 7-50 50-38 40 11 56 0 95-66 16-27 33-44 44-44 17 0 17 6-10 73-15 39-28 86-29 103 0 16-18 67-40 113-39 80-40 84-31 145 10 71 31 111 63 119 18 5 20 11 14 54-9 64-23 99-61 153-39 55-75 127-75 152 0 10-3 18-8 18-8 0-32 71-32 95 0 8-4 15-9 15s-12 12-16 27c-19 76-156 314-192 334-29 16-76-3-104-42-11-16-25-29-30-29-12 0-12 96 0 119 10 17 10 49 6 245-2 83-5 101-20 113-15 10-17 17-7 35 6 13 13 68 15 123 3 55 12 172 20 260 9 88 21 248 27 355s16 230 21 272c15 116 12 226-7 293-13 46-16 96-15 215 2 163-10 273-35 322-8 16-18 67-21 113-5 76-4 87 18 122 57 92 99 138 151 163 36 17 58 35 67 55 8 17 19 33 25 38 32 22-104 61-203 58-30-1-70-10-90-20-22-11-72-21-126-25-117-9-122-14-107-103 7-37 12-144 11-237 0-154-2-174-25-238-25-68-25-74-15-187 6-67 9-220 6-361-4-220-7-252-27-315-23-71-38-83-49-42-22 77-29 110-40 172-6 39-15 79-19 90s-12 43-18 70c-6 28-20 93-31 145-37 171-51 271-51 365 0 112-6 143-32 175-11 14-17 19-13 13 9-18 0-16-19 3-13 12-16 40-16 143 0 111 3 132 19 152 10 14 25 40 34 59 24 57 75 119 102 126 19 5 33 21 51 58 31 63 27 67-96 95-123 29-147 27-237-19-43-22-86-40-96-40-30 0-42-43-29-102 19-87 34-318 27-398-6-61-12-79-32-97-24-23-24-27-22-149 2-132-4-151-42-138-9 2-19-2-23-11-3-8-14-15-25-15-21 0-112-26-151-43-33-15-293-168-350-206-25-17-48-31-52-31-28 0-25 545 4 820 9 87 17 116 44 169 37 69 41 96 22 147-11 30-9 35 15 60 15 15 27 33 27 40 0 20 59 75 113 106 119 69 78 189-83 245-127 44-274 35-415-26-11-5-47-19-80-31-86-32-123-49-130-60-3-6-12-10-19-10-10 0-12 17-8 71 3 48 1 78-9 95-13 25-59 56-89 60-8 1-49 7-90 13-41 7-118 11-170 9-78-2-104-7-145-28zm519-375c40-141 61-350 48-480-4-49-5-133 0-185 4-55 4-153-2-233-9-116-8-151 5-216 11-53 15-118 13-204-2-69 0-123 4-121 7 5 2-63-8-113-4-20-44-49-178-126l-31-17-7 162c-5 90-12 182-18 206-5 23-10 151-10 285 0 227 2 252 30 402 17 88 33 196 36 240s12 100 20 124c18 57 18 89-1 145-15 43-15 45 18 113 46 96 48 98 58 82 5-8 15-36 23-64zm1144-1130c-3-13-1-22 3-19 5 3 9-3 9-13 0-11 5-24 12-31s10-34 8-69c-6-95-2-185 9-196 6-6 11-21 11-34s8-47 19-77c12-35 17-69 14-102-3-27 3-116 12-199 17-149 21-433 7-447-4-4-5-40-1-80s5-76 3-80c-3-4-19-4-38-1-71 11-122-44-145-159-10-46-24-72-74-133-34-42-88-111-120-153-33-43-66-81-74-86-14-7-15-4-8 25 4 19 8 46 8 61s3 25 7 23 5 6 3 19c-7 33 18 81 86 163 32 40 71 100 87 135 40 88 40 192-1 291-15 38-33 71-40 73-15 6-133-42-157-64-14-11-18-31-18-77 0-33-4-65-8-70-5-6-14-30-21-55-6-25-16-54-21-65-20-46-30-91-30-134-1-60-25-112-88-188-59-71-132-212-132-255 0-16-5-39-11-50-6-12-11-42-11-67 1-24-4-51-10-58-6-8-12-28-13-46-3-47-12-80-42-155-32-79-72-152-83-152s-21 30-15 40c3 5 1 99-5 209-10 172-9 203 3 221 8 12 13 30 10 41-3 10-1 19 4 19s18 35 29 78c10 42 30 97 45 123 45 77 51 112 55 298 2 121 9 203 21 264 10 48 21 86 23 83 7-7 4 186-4 294s9 382 27 419c12 24 67 60 332 219 94 56 153 100 215 159 89 87 116 101 108 58zm-1133-767c-8-66-41-192-59-226l-14-26-11 39c-6 22-17 65-26 97-23 85-21 90 43 131 31 20 61 37 65 37 5 0 6-24 2-52zm-771-123c7-26 21-61 34-87 2-5-3-8-12-8-10 0-16-8-16-21 0-15-5-20-22-17-22 3-23 8-24 86-1 71 1 83 15 80 8-2 20-17 25-33zm106-194c0-4 14-25 30-46 27-34 30-45 30-111 0-45-4-74-11-76s-11-27-10-62c0-33-4-65-10-72-27-32-26-357 1-389 6-7 10-33 9-57-1-23 4-56 10-71 6-16 11-52 11-81 0-28 5-57 11-63s11-46 12-89c1-61-4-90-20-126-27-59-50-63-58-10-3 20-11 56-17 80-10 40-9 75 10 215 5 32 5 60 1 62-3 3-9 24-13 47-4 24-20 90-37 146-17 57-28 109-26 115 2 7-3 17-12 24-25 18-21 127 7 185 12 26 22 52 22 57 0 6 5 11 10 11 6 0 10 25 10 55 0 29 5 78 12 107 10 46 12 80 9 118-1 5-14 7-31 4-24-5-30-3-30 10 0 12 6 15 25 10 15-4 25-2 25 5 0 6 7 11 15 11s15-4 15-9zm-96-52c-7-11-34-12-34-1 0 14 11 21 26 15 8-3 11-9 8-14zm-1893-327c35-104 70-414 49-427-4-3-20 8-36 23s-61 53-101 85-75 67-78 76c-3 10 2 45 11 77 8 33 18 98 21 147 6 86 6 87 32 87 14 0 33 5 41 10 25 16 33 7 61-78zm3879-143c0-21-23-99-29-99-3 0-7-47-8-103-1-57-6-121-12-143-5-21-15-97-21-169-6-71-15-140-18-153l-7-23-40 30c-22 17-71 51-108 77-53 35-67 50-62 62 4 10 13 35 20 57 42 127 71 198 107 260 66 115 121 193 142 204 28 13 36 13 36 0zm-5035-176c0-29-4-39-19-41-17-4-18 0-11 34 12 68 31 72 30 7zm2456-265c5-51 14-130 20-175 10-69 10-85-2-100-12-14-12-16 0-8 12 7 13-1 8-47-8-65-44-188-56-188-24 0-81 216-81 308 0 51 10 96 42 194 26 77 46 124 51 119s13-52 18-103zm-1301-173c0-19-10-19-40 2-73 48-110 103-77 116 14 6 117-97 117-118zm-1222-67c15-15 16-48 2-48-13 0-50 37-50 50 0 14 33 13 48-2z" />
    <path
      d="M7103 7713c20-2 54-2 75 0 20 2 3 4-38 4s-58-2-37-4zm-1421-643c0-19 2-27 5-17 2 9 2 25 0 35-3 9-5 1-5-18zm2261-175c0-22 2-30 4-17 2 12 2 30 0 40-3 9-5-1-4-23zm-21-425c0-19 2-27 5-17 2 9 2 25 0 35-3 9-5 1-5-18zm2401-410c0-25 2-35 4-22 2 12 2 32 0 45-2 12-4 2-4-23zM7593 3950c0-30 2-43 4-27 2 15 2 39 0 55-2 15-4 2-4-28z" />
  </g>
</svg>