<svg xmlns="http://www.w3.org/2000/svg" id="root" viewBox="1160 -2 8720 6745">
  <path
    d="M4230 6712c0-26 4-32 21-32l922-25 3312-91c545-14 993-30 997-33 7-6 28-165 55-409l4-43 132 3 132 3 8 55c5 30 21 134 38 231l29 182c0 4-78 6-173 5-122-2-178 0-188 9-19 15-1276 50-2124 58-608 6-652 8-1255 50-508 35-700 44-1025 49-220 3-509 9-642 13l-243 6v-31z"
  />
  <path
    d="M1181 6468a938 938 0 0 1 213-293l111-110 8-195c4-107 10-201 12-207 2-7 18-13 34-13 68 0 80-29 31-72-24-21-30-34-30-68s6-47 31-71l31-29 6-429 5-429 24-5 23-4v442c0 385 2 444 15 449 8 3 23 21 32 41 16 33 16 37 0 70-9 20-24 38-32 41-8 4-15 17-15 30 0 19 5 24 24 24 20 0 36 20 97 120 40 67 76 123 80 126 4 2 36-3 72-11 214-50 491-18 703 79l72 34 6-42 17-163 13-123h40c49 0 71-12 63-34-4-11-19-16-47-16-35 0-40-3-40-23 0-53 30-606 35-654 6-48 9-53 41-63 19-6 39-10 45-8 13 4 39 92 130 432l62 229-42 34c-31 26-41 42-41 64 0 29 0 29 59 29h59l6-67 17-263 10-195 41-69c36-62 40-73 34-114-3-25-15-55-26-67-17-19-20-35-20-131 0-110 0-110-31-140-17-16-43-51-57-79-22-42-27-63-27-130 0-70 4-87 30-134 31-55 91-112 138-130 23-9 27-16 27-52 0-33 6-47 31-70l32-30 5-449c3-248 8-450 13-450 4 0 15-3 25-7 16-6 16 21 9 455-5 346-4 462 4 462 27 0 61 49 61 88 0 36 3 40 40 57a289 289 0 0 1 136 389c-23 48-26 60-15 67 8 5 19 8 26 6 6-1 65-50 131-109l119-107 6-88c3-48 15-397 28-774l23-685 63-38 63-37v-127l-65-7c-59-7-64-9-60-29 2-11 12-174 21-361l17-340 115-192 115-193h177v-50c0-43-3-50-20-50-11 0-38-7-60-16l-40-16v-176l31-11c18-6 45-11 60-11h29v-80c0-69-3-82-20-92-29-19-28-93 1-109l22-11-8-445-7-445 23 4 24 3 7 345c4 190 10 391 14 448 5 91 8 102 25 102s19 8 19 60c0 53-2 60-20 60s-20 7-20 80v80h60v230h-25c-23 0-25 3-25 49v49l75 7c74 7 75 8 79 39 8 52 39 1015 33 1030-3 8-24 17-46 21l-41 7v67c0 39 5 72 12 79s31 12 55 12 43 1 43 3c0 30 51 460 55 467 3 5 34 10 69 10h63l6-142c4-79 7-170 7-204v-60l60-42c60-42 60-43 60-93 0-44-3-51-26-59-14-6-35-10-47-10-50-1-49 9-33-373l15-357 93-180 93-180h165v-47c0-48-1-48-50-70l-50-22v-169l50-13 50-13v-55c0-73-8-99-31-106-15-5-19-16-19-55 0-40 3-49 20-53 21-5 21-9 18-446l-3-441h21c20 0 21 6 27 183l14 440c5 205 9 257 20 257 9 0 13 17 13 65 0 38-4 65-10 65-7 0-10 29-8 77l3 78 38 3 37 3v219h-70v97l53 7c28 3 69 6 90 6 20 0 37 3 38 8 5 76 35 1039 33 1043s-24 12-49 18l-46 12 3 67 3 67 46 3 46 3 6 82c4 45 9 141 12 212 3 72 8 145 11 163l5 32h149v-397l50-46c47-44 50-49 50-97 0-45-3-52-26-60-14-6-41-10-60-10-29 0-34-4-34-22l16-368 16-345 101-172 101-173h167l-3-47c-3-44-5-48-33-53-70-15-75-22-75-116 0-82 1-85 26-94 14-6 36-10 50-10 23 0 24-2 24-70 0-65-2-71-25-82-21-9-25-18-25-55s4-45 25-53l25-10-7-425c-6-425-6-425 14-425 19 0 22 8 27 77 3 43 9 235 12 427 6 329 8 349 25 353 16 5 19 15 19 64 0 46-3 59-15 59s-15 14-15 70v70h80v220h-34c-43 0-46 5-39 57l5 41 77 6 77 7 18 516c10 283 14 519 9 523-4 4-25 13-47 20l-39 12 6 66c4 36 9 67 11 69 2 3 22 7 43 10l38 5 54 832 68 1056 15 225 55 120 76 164 20 45 24-42c23-38 29-42 64-42 32 0 39-4 39-19 0-11-4-23-10-26-6-4-4-17 5-36 16-30 16-30-38-87-51-54-104-138-94-149 8-7 167 88 180 107 10 17 15 15 53-24 24-23 61-52 84-65l41-23-35 70c-20 39-40 74-46 77-7 4-9 19-5 36 6 26 4 29-18 29-13 0-32 9-41 19-15 16-16 25-6 59 10 40 12 41 58 44l47 3 16 130c51 414 130 1108 126 1111l-1247 38-1245 37-533-35c-296-20-614-36-713-36h-179l20 40 20 40H1160l21-42zm831 20c21-6 52-26 67-44 26-30 28-36 20-78-11-60-33-103-77-148-29-30-43-38-73-38-74 0-141 73-141 154 0 74 38 126 109 152 47 16 47 16 95 2zm2644-260-6-120v-29l-122 3-123 3-3 118-3 117h264l-7-92zm884 44c0-27-3-83-6-125l-7-77h-247v118c0 65 3 122 7 125 3 4 62 7 130 7h123v-48zm860 10c0-22-3-80-6-130l-7-92h-247v93c0 50 3 109 6 130l7 37h247v-38zm-1758-309c2-5 2-70 0-146l-4-138-111 3-112 3-3 143-3 142h115c63 0 116-3 118-7zm870-98c-1-49-5-114-8-142l-5-53h-219v291l118-3 117-3-3-90zm862 73c1-2-3-66-8-143l-11-140h-107c-59 1-109 3-111 5-2 3-2 70 1 149l5 144 114-6c63-3 116-7 117-9zm-1744-426c0-38-3-110-7-161l-6-92-96 3-96 3-3 158-3 157h211v-68zm859 42c2-1-1-67-5-146l-9-143-97-3-98-3v313l103-7c56-4 104-9 106-11zm847-131c-4-71-9-136-12-145-5-16-18-18-100-18h-94v290h213l-7-127zm-2592-143c35-42 49-102 44-186-5-76-37-149-69-159-52-17-91 48-97 160-5 93 10 157 43 191 32 32 48 30 79-6zm869-247c-3-71-6-134-9-141-3-9-26-12-86-10l-83 3-3 138-3 137h188l-4-127zm853 90c-3-21-8-82-11-135l-7-98h-178v53c0 28 3 89 7 135l6 82h189l-6-37zm839-90c-4-71-9-131-12-135-2-5-42-8-89-8h-84v128c0 71 3 132 7 135 3 4 47 7 96 7h89l-7-127zm-24-247c2-2 0-67-6-143l-10-138h-150l4 135c2 74 5 138 8 143 4 7 146 10 154 3zm-1681-90c0-45-3-111-6-145l-7-61h-147v114c0 62-3 128-6 145l-6 31h172v-84zm836-23c-4-60-9-123-12-140l-5-33h-149v280h172l-6-107zm808-415-13-145c-1-2-28-3-61-3h-60v290h145l-11-142zm-1661-10c-3-79-7-145-10-147-2-3-30-7-62-9l-58-4-6 143c-3 79-3 147-1 151 3 5 36 8 74 8h70l-7-142zm825 50c-3-51-7-117-7-145l-1-53h-130v290h145l-7-92zm812-335c-1-116-18-245-36-264-21-23-42-24-66-2-16 14-18 33-18 159v143l43 4 60 5c14 2 17-6 17-45zm-836-55c-13-181-17-201-45-217-22-12-28-12-53 4-27 18-28 21-22 78 3 33 6 98 6 143v84h121l-7-92zm-816-54c-3-120-6-138-23-150-23-17-45-17-66-1-13 10-18 40-24 150l-7 137h124l-4-136zm1645-732c34-33 38-96 7-135-41-52-136-44-165 14-31 59-11 119 49 144 39 17 73 10 109-23zm-839-18c30-31 38-70 21-110-48-114-214-62-191 59 15 79 113 108 170 51zm-825-10c38-32 49-80 27-122-19-38-47-54-91-54s-72 16-91 54c-33 64 18 148 91 148 21 0 45-9 64-26zm4356 3164c3-57 8-118 11-135l5-33h158l5 33a13756 13756 0 0 1 36 226c0 7-36 11-110 11h-111l6-102z"
  />
</svg>
