<svg xmlns="http://www.w3.org/2000/svg" id="root" viewBox="0 0 99 77">
  <g>
    <path
      d="M 34.855469 76.644531 C 34.855469 76.347656 34.898438 76.28125 35.09375 76.28125 L 45.558594 75.996094 L 83.164062 74.957031 C 89.351562 74.796875 94.4375 74.613281 94.480469 74.578125 C 94.5625 74.511719 94.800781 72.695312 95.105469 69.910156 L 95.152344 69.417969 L 96.648438 69.453125 L 98.148438 69.488281 L 98.238281 70.117188 C 98.296875 70.457031 98.476562 71.644531 98.671875 72.753906 L 99 74.832031 C 99 74.875 98.113281 74.898438 97.035156 74.886719 C 95.652344 74.863281 95.015625 74.886719 94.902344 74.992188 C 94.6875 75.160156 80.414062 75.5625 70.789062 75.652344 C 63.882812 75.722656 63.386719 75.746094 56.539062 76.222656 C 50.773438 76.625 48.589844 76.726562 44.902344 76.78125 C 42.402344 76.816406 39.125 76.886719 37.613281 76.929688 L 34.855469 77 Z M 34.855469 76.644531 "
    />
    <path
      d="M 0.238281 73.859375 C 0.820312 72.597656 1.640625 71.460938 2.65625 70.515625 L 3.917969 69.261719 L 4.007812 67.035156 C 4.054688 65.8125 4.121094 64.738281 4.144531 64.671875 C 4.167969 64.589844 4.347656 64.523438 4.53125 64.523438 C 5.300781 64.523438 5.4375 64.191406 4.882812 63.699219 C 4.609375 63.460938 4.542969 63.3125 4.542969 62.925781 C 4.542969 62.535156 4.609375 62.386719 4.894531 62.113281 L 5.246094 61.78125 L 5.3125 56.886719 L 5.371094 51.988281 L 5.640625 51.929688 L 5.902344 51.886719 L 5.902344 56.929688 C 5.902344 61.324219 5.925781 62 6.074219 62.054688 C 6.164062 62.089844 6.335938 62.296875 6.4375 62.523438 C 6.617188 62.902344 6.617188 62.945312 6.4375 63.324219 C 6.335938 63.550781 6.164062 63.757812 6.074219 63.792969 C 5.984375 63.835938 5.902344 63.984375 5.902344 64.132812 C 5.902344 64.351562 5.960938 64.410156 6.175781 64.410156 C 6.402344 64.410156 6.585938 64.636719 7.277344 65.777344 C 7.730469 66.542969 8.140625 67.183594 8.1875 67.214844 C 8.230469 67.238281 8.59375 67.183594 9.003906 67.089844 C 11.433594 66.519531 14.578125 66.886719 16.984375 67.992188 L 17.800781 68.382812 L 17.871094 67.902344 L 18.0625 66.039062 L 18.210938 64.636719 L 18.664062 64.636719 C 19.222656 64.636719 19.472656 64.5 19.378906 64.25 C 19.335938 64.121094 19.164062 64.066406 18.847656 64.066406 C 18.449219 64.066406 18.390625 64.03125 18.390625 63.804688 C 18.390625 63.199219 18.734375 56.886719 18.789062 56.335938 C 18.859375 55.789062 18.890625 55.730469 19.253906 55.617188 C 19.472656 55.550781 19.699219 55.503906 19.765625 55.527344 C 19.914062 55.574219 20.207031 56.578125 21.242188 60.457031 L 21.945312 63.074219 L 21.46875 63.460938 C 21.117188 63.757812 21.003906 63.941406 21.003906 64.191406 C 21.003906 64.523438 21.003906 64.523438 21.671875 64.523438 L 22.34375 64.523438 L 22.410156 63.757812 L 22.605469 60.753906 L 22.71875 58.527344 L 23.183594 57.742188 C 23.59375 57.035156 23.636719 56.90625 23.570312 56.441406 C 23.535156 56.15625 23.398438 55.8125 23.273438 55.675781 C 23.082031 55.457031 23.046875 55.277344 23.046875 54.179688 C 23.046875 52.925781 23.046875 52.925781 22.695312 52.582031 C 22.503906 52.398438 22.207031 52 22.046875 51.679688 C 21.796875 51.199219 21.742188 50.960938 21.742188 50.195312 C 21.742188 49.394531 21.785156 49.203125 22.082031 48.664062 C 22.433594 48.039062 23.113281 47.386719 23.648438 47.183594 C 23.910156 47.078125 23.957031 47 23.957031 46.589844 C 23.957031 46.210938 24.023438 46.050781 24.308594 45.789062 L 24.671875 45.445312 L 24.726562 40.320312 C 24.761719 37.488281 24.816406 35.183594 24.875 35.183594 C 24.921875 35.183594 25.046875 35.148438 25.160156 35.105469 C 25.339844 35.035156 25.339844 35.34375 25.261719 40.296875 C 25.203125 44.246094 25.214844 45.570312 25.304688 45.570312 C 25.613281 45.570312 26 46.132812 26 46.578125 C 26 46.988281 26.03125 47.035156 26.453125 47.226562 C 27.25 47.605469 27.859375 48.289062 28.152344 49.121094 C 28.441406 49.957031 28.386719 50.875 27.996094 51.667969 C 27.734375 52.214844 27.703125 52.351562 27.828125 52.433594 C 27.917969 52.488281 28.042969 52.523438 28.121094 52.5 C 28.191406 52.488281 28.859375 51.929688 29.609375 51.257812 L 30.960938 50.035156 L 31.027344 49.03125 C 31.0625 48.484375 31.199219 44.5 31.347656 40.195312 L 31.605469 32.375 L 32.324219 31.941406 L 33.039062 31.519531 L 33.039062 30.070312 L 32.300781 29.988281 C 31.628906 29.910156 31.574219 29.886719 31.617188 29.660156 C 31.640625 29.53125 31.753906 27.671875 31.855469 25.539062 L 32.050781 21.65625 L 33.355469 19.464844 L 34.660156 17.261719 L 36.671875 17.261719 L 36.671875 16.691406 C 36.671875 16.199219 36.636719 16.121094 36.445312 16.121094 C 36.320312 16.121094 36.011719 16.039062 35.761719 15.9375 L 35.308594 15.753906 L 35.308594 13.746094 L 35.660156 13.617188 C 35.863281 13.550781 36.171875 13.492188 36.339844 13.492188 L 36.671875 13.492188 L 36.671875 12.582031 C 36.671875 11.792969 36.636719 11.644531 36.445312 11.53125 C 36.113281 11.3125 36.125 10.46875 36.457031 10.285156 L 36.703125 10.160156 L 36.613281 5.078125 L 36.535156 0 L 36.796875 0.046875 L 37.066406 0.078125 L 37.148438 4.019531 C 37.191406 6.1875 37.261719 8.480469 37.308594 9.132812 C 37.363281 10.171875 37.398438 10.296875 37.589844 10.296875 C 37.785156 10.296875 37.804688 10.386719 37.804688 10.980469 C 37.804688 11.585938 37.785156 11.667969 37.578125 11.667969 C 37.375 11.667969 37.351562 11.746094 37.351562 12.582031 L 37.351562 13.492188 L 38.035156 13.492188 L 38.035156 16.121094 L 37.75 16.121094 C 37.488281 16.121094 37.464844 16.152344 37.464844 16.679688 L 37.464844 17.238281 L 38.316406 17.316406 C 39.15625 17.398438 39.167969 17.410156 39.214844 17.761719 C 39.304688 18.355469 39.65625 29.351562 39.589844 29.519531 C 39.554688 29.613281 39.316406 29.714844 39.066406 29.761719 L 38.601562 29.839844 L 38.601562 30.605469 C 38.601562 31.050781 38.65625 31.429688 38.738281 31.507812 C 38.816406 31.585938 39.089844 31.644531 39.363281 31.644531 C 39.632812 31.644531 39.851562 31.65625 39.851562 31.679688 C 39.851562 32.023438 40.429688 36.929688 40.472656 37.011719 C 40.507812 37.066406 40.859375 37.125 41.257812 37.125 L 41.972656 37.125 L 42.039062 35.503906 C 42.085938 34.601562 42.121094 33.5625 42.121094 33.175781 L 42.121094 32.488281 L 42.800781 32.011719 C 43.484375 31.53125 43.484375 31.519531 43.484375 30.949219 C 43.484375 30.445312 43.449219 30.367188 43.1875 30.273438 C 43.027344 30.207031 42.789062 30.160156 42.652344 30.160156 C 42.085938 30.148438 42.097656 30.261719 42.28125 25.902344 L 42.449219 21.828125 L 43.503906 19.773438 L 44.5625 17.71875 L 46.433594 17.71875 L 46.433594 17.179688 C 46.433594 16.632812 46.421875 16.632812 45.867188 16.382812 L 45.300781 16.128906 L 45.300781 14.203125 L 46.433594 13.90625 L 46.433594 13.277344 C 46.433594 12.441406 46.34375 12.144531 46.082031 12.066406 C 45.914062 12.007812 45.867188 11.882812 45.867188 11.4375 C 45.867188 10.980469 45.902344 10.878906 46.09375 10.832031 C 46.332031 10.777344 46.332031 10.730469 46.296875 5.742188 L 46.265625 0.707031 L 46.503906 0.707031 C 46.730469 0.707031 46.742188 0.777344 46.808594 2.796875 L 46.96875 7.820312 C 47.023438 10.160156 47.070312 10.753906 47.195312 10.753906 C 47.296875 10.753906 47.34375 10.949219 47.34375 11.496094 C 47.34375 11.929688 47.296875 12.238281 47.230469 12.238281 C 47.148438 12.238281 47.117188 12.570312 47.136719 13.117188 L 47.171875 14.007812 L 47.605469 14.042969 L 48.023438 14.074219 L 48.023438 16.574219 L 47.230469 16.574219 L 47.230469 17.683594 L 47.832031 17.761719 C 48.148438 17.796875 48.613281 17.832031 48.851562 17.832031 C 49.078125 17.832031 49.273438 17.867188 49.285156 17.921875 C 49.339844 18.789062 49.683594 29.785156 49.660156 29.828125 C 49.636719 29.875 49.386719 29.964844 49.101562 30.035156 L 48.582031 30.171875 L 48.613281 30.9375 L 48.648438 31.703125 L 49.171875 31.734375 L 49.691406 31.769531 L 49.761719 32.707031 C 49.804688 33.21875 49.863281 34.316406 49.898438 35.125 C 49.929688 35.949219 49.988281 36.78125 50.023438 36.988281 L 50.078125 37.351562 L 51.769531 37.351562 L 51.769531 32.820312 L 52.339844 32.296875 C 52.871094 31.792969 52.90625 31.734375 52.90625 31.1875 C 52.90625 30.675781 52.871094 30.59375 52.609375 30.503906 C 52.453125 30.433594 52.144531 30.390625 51.929688 30.390625 C 51.601562 30.390625 51.542969 30.34375 51.542969 30.136719 L 51.726562 25.9375 L 51.90625 22 L 53.054688 20.035156 L 54.199219 18.058594 L 56.097656 18.058594 L 56.0625 17.523438 C 56.027344 17.019531 56.003906 16.976562 55.6875 16.917969 C 54.894531 16.746094 54.835938 16.667969 54.835938 15.59375 C 54.835938 14.65625 54.847656 14.625 55.132812 14.519531 C 55.289062 14.453125 55.539062 14.40625 55.699219 14.40625 C 55.960938 14.40625 55.972656 14.382812 55.972656 13.609375 C 55.972656 12.867188 55.949219 12.796875 55.6875 12.671875 C 55.449219 12.570312 55.402344 12.464844 55.402344 12.042969 C 55.402344 11.621094 55.449219 11.53125 55.6875 11.4375 L 55.972656 11.324219 L 55.890625 6.472656 C 55.824219 1.621094 55.824219 1.621094 56.050781 1.621094 C 56.265625 1.621094 56.300781 1.710938 56.355469 2.5 C 56.390625 2.992188 56.460938 5.183594 56.492188 7.375 C 56.5625 11.128906 56.585938 11.359375 56.777344 11.40625 C 56.960938 11.460938 56.992188 11.574219 56.992188 12.136719 C 56.992188 12.660156 56.960938 12.808594 56.824219 12.808594 C 56.6875 12.808594 56.652344 12.96875 56.652344 13.609375 L 56.652344 14.40625 L 57.5625 14.40625 L 57.5625 16.917969 L 57.175781 16.917969 C 56.6875 16.917969 56.652344 16.976562 56.730469 17.570312 L 56.789062 18.035156 L 57.664062 18.105469 L 58.539062 18.183594 L 58.742188 24.074219 C 58.855469 27.308594 58.902344 30 58.84375 30.046875 C 58.796875 30.09375 58.558594 30.195312 58.308594 30.273438 L 57.867188 30.410156 L 57.933594 31.164062 C 57.980469 31.578125 58.039062 31.929688 58.058594 31.953125 C 58.082031 31.988281 58.308594 32.03125 58.546875 32.066406 L 58.980469 32.125 L 59.59375 41.621094 L 60.363281 53.675781 L 60.535156 56.246094 L 61.160156 57.617188 L 62.023438 59.488281 L 62.25 60 L 62.523438 59.523438 C 62.785156 59.089844 62.851562 59.042969 63.25 59.042969 C 63.613281 59.042969 63.691406 58.996094 63.691406 58.824219 C 63.691406 58.699219 63.644531 58.5625 63.578125 58.527344 C 63.511719 58.484375 63.53125 58.335938 63.632812 58.117188 C 63.816406 57.777344 63.816406 57.777344 63.203125 57.125 C 62.625 56.507812 62.023438 55.550781 62.136719 55.425781 C 62.226562 55.34375 64.03125 56.429688 64.179688 56.644531 C 64.292969 56.839844 64.351562 56.816406 64.78125 56.371094 C 65.054688 56.109375 65.472656 55.777344 65.734375 55.628906 L 66.199219 55.367188 L 65.804688 56.167969 C 65.574219 56.609375 65.347656 57.011719 65.28125 57.046875 C 65.203125 57.089844 65.179688 57.261719 65.222656 57.457031 C 65.292969 57.753906 65.269531 57.785156 65.019531 57.785156 C 64.871094 57.785156 64.65625 57.890625 64.554688 58.003906 C 64.382812 58.1875 64.371094 58.289062 64.484375 58.675781 C 64.601562 59.132812 64.621094 59.144531 65.144531 59.179688 L 65.679688 59.214844 L 65.859375 60.699219 C 66.4375 65.425781 67.335938 73.347656 67.289062 73.382812 L 53.132812 73.816406 L 39 74.238281 L 32.945312 73.835938 C 29.585938 73.609375 25.976562 73.425781 24.851562 73.425781 L 22.820312 73.425781 L 23.273438 74.339844 L 0 74.339844 Z M 9.671875 74.089844 C 9.910156 74.019531 10.261719 73.792969 10.433594 73.585938 C 10.730469 73.246094 10.75 73.175781 10.660156 72.695312 C 10.535156 72.011719 10.285156 71.519531 9.785156 71.007812 C 9.457031 70.664062 9.296875 70.574219 8.957031 70.574219 C 8.117188 70.574219 7.355469 71.40625 7.355469 72.332031 C 7.355469 73.175781 7.789062 73.769531 8.59375 74.066406 C 9.128906 74.25 9.128906 74.25 9.671875 74.089844 Z M 39.691406 71.121094 L 39.621094 69.75 L 39.621094 69.417969 L 38.238281 69.453125 L 36.839844 69.488281 L 36.808594 70.835938 L 36.773438 72.171875 L 39.769531 72.171875 Z M 49.726562 71.625 C 49.726562 71.316406 49.691406 70.675781 49.660156 70.195312 L 49.578125 69.316406 L 46.773438 69.316406 L 46.773438 70.664062 C 46.773438 71.40625 46.808594 72.058594 46.855469 72.089844 C 46.890625 72.136719 47.558594 72.171875 48.332031 72.171875 L 49.726562 72.171875 Z M 59.492188 71.738281 C 59.492188 71.484375 59.457031 70.824219 59.421875 70.253906 L 59.34375 69.203125 L 56.539062 69.203125 L 56.539062 70.265625 C 56.539062 70.835938 56.574219 71.507812 56.605469 71.75 L 56.6875 72.171875 L 59.492188 72.171875 Z M 39.53125 68.210938 C 39.554688 68.152344 39.554688 67.410156 39.53125 66.542969 L 39.488281 64.96875 L 38.226562 65 L 36.953125 65.035156 L 36.921875 66.667969 L 36.886719 68.289062 L 38.191406 68.289062 C 38.90625 68.289062 39.507812 68.253906 39.53125 68.210938 Z M 49.410156 67.089844 C 49.398438 66.53125 49.351562 65.789062 49.316406 65.46875 L 49.261719 64.863281 L 46.773438 64.863281 L 46.773438 68.1875 L 48.113281 68.152344 L 49.441406 68.117188 Z M 59.195312 67.925781 C 59.207031 67.902344 59.160156 67.171875 59.105469 66.292969 L 58.980469 64.695312 L 57.765625 64.695312 C 57.09375 64.707031 56.527344 64.726562 56.503906 64.75 C 56.480469 64.785156 56.480469 65.550781 56.515625 66.453125 L 56.574219 68.09375 L 57.867188 68.027344 C 58.582031 67.992188 59.183594 67.945312 59.195312 67.925781 Z M 39.394531 63.0625 C 39.394531 62.628906 39.363281 61.804688 39.316406 61.222656 L 39.25 60.171875 L 38.15625 60.207031 L 37.066406 60.242188 L 37.035156 62.046875 L 37 63.835938 L 39.394531 63.835938 Z M 49.148438 63.539062 C 49.171875 63.527344 49.136719 62.777344 49.089844 61.875 L 48.988281 60.242188 L 47.886719 60.207031 L 46.773438 60.171875 L 46.773438 63.746094 L 47.945312 63.667969 C 48.582031 63.621094 49.125 63.5625 49.148438 63.539062 Z M 58.765625 62.046875 C 58.71875 61.234375 58.660156 60.492188 58.628906 60.390625 C 58.570312 60.207031 58.421875 60.183594 57.492188 60.183594 L 56.425781 60.183594 L 56.425781 63.496094 L 58.84375 63.496094 Z M 29.335938 60.414062 C 29.734375 59.933594 29.894531 59.25 29.835938 58.289062 C 29.78125 57.421875 29.417969 56.589844 29.054688 56.472656 C 28.460938 56.28125 28.019531 57.023438 27.953125 58.300781 C 27.894531 59.363281 28.066406 60.09375 28.441406 60.480469 C 28.804688 60.847656 28.984375 60.824219 29.335938 60.414062 Z M 39.203125 57.59375 C 39.167969 56.78125 39.132812 56.0625 39.101562 55.984375 C 39.066406 55.878906 38.804688 55.847656 38.125 55.871094 L 37.183594 55.902344 L 37.148438 57.480469 L 37.113281 59.042969 L 39.25 59.042969 Z M 48.886719 58.621094 C 48.851562 58.378906 48.796875 57.683594 48.761719 57.078125 L 48.683594 55.960938 L 46.660156 55.960938 L 46.660156 56.566406 C 46.660156 56.886719 46.695312 57.582031 46.742188 58.105469 L 46.808594 59.042969 L 48.953125 59.042969 Z M 58.414062 57.59375 C 58.367188 56.78125 58.308594 56.097656 58.277344 56.050781 C 58.253906 55.996094 57.800781 55.960938 57.265625 55.960938 L 56.3125 55.960938 L 56.3125 57.421875 C 56.3125 58.230469 56.347656 58.929688 56.390625 58.964844 C 56.425781 59.007812 56.925781 59.042969 57.480469 59.042969 L 58.492188 59.042969 Z M 58.140625 54.773438 C 58.164062 54.75 58.140625 54.007812 58.070312 53.140625 L 57.957031 51.566406 L 56.253906 51.566406 L 56.300781 53.105469 C 56.324219 53.953125 56.355469 54.683594 56.390625 54.738281 C 56.4375 54.820312 58.050781 54.851562 58.140625 54.773438 Z M 39.054688 53.746094 C 39.054688 53.230469 39.019531 52.480469 38.988281 52.089844 L 38.90625 51.394531 L 37.238281 51.394531 L 37.238281 52.695312 C 37.238281 53.402344 37.203125 54.15625 37.171875 54.351562 L 37.101562 54.703125 L 39.054688 54.703125 Z M 48.546875 53.484375 C 48.5 52.796875 48.445312 52.078125 48.410156 51.886719 L 48.351562 51.507812 L 46.660156 51.507812 L 46.660156 54.703125 L 48.613281 54.703125 Z M 57.71875 48.746094 L 57.570312 47.089844 C 57.5625 47.066406 57.253906 47.054688 56.878906 47.054688 L 56.199219 47.054688 L 56.199219 50.367188 L 57.84375 50.367188 Z M 38.863281 48.632812 C 38.828125 47.730469 38.78125 46.976562 38.75 46.953125 C 38.726562 46.917969 38.40625 46.875 38.042969 46.851562 L 37.386719 46.804688 L 37.316406 48.4375 C 37.285156 49.339844 37.285156 50.117188 37.308594 50.160156 C 37.339844 50.21875 37.714844 50.253906 38.148438 50.253906 L 38.941406 50.253906 Z M 48.226562 49.203125 C 48.195312 48.621094 48.148438 47.867188 48.148438 47.546875 L 48.136719 46.941406 L 46.660156 46.941406 L 46.660156 50.253906 L 48.308594 50.253906 Z M 57.445312 45.378906 C 57.4375 44.054688 57.242188 42.582031 57.039062 42.363281 C 56.800781 42.101562 56.5625 42.089844 56.289062 42.339844 C 56.109375 42.5 56.085938 42.71875 56.085938 44.15625 L 56.085938 45.789062 L 56.574219 45.835938 L 57.253906 45.890625 C 57.414062 45.914062 57.445312 45.824219 57.445312 45.378906 Z M 47.957031 44.75 C 47.808594 42.683594 47.761719 42.457031 47.445312 42.273438 C 47.195312 42.136719 47.128906 42.136719 46.84375 42.320312 C 46.535156 42.523438 46.527344 42.558594 46.59375 43.210938 C 46.628906 43.585938 46.660156 44.328125 46.660156 44.839844 L 46.660156 45.800781 L 48.035156 45.800781 Z M 38.691406 44.132812 C 38.65625 42.765625 38.625 42.558594 38.429688 42.421875 C 38.167969 42.226562 37.917969 42.226562 37.679688 42.410156 C 37.535156 42.523438 37.476562 42.867188 37.410156 44.121094 L 37.328125 45.6875 L 38.738281 45.6875 Z M 57.367188 35.777344 C 57.753906 35.402344 57.800781 34.679688 57.445312 34.234375 C 56.980469 33.640625 55.902344 33.734375 55.574219 34.394531 C 55.222656 35.070312 55.449219 35.753906 56.128906 36.039062 C 56.574219 36.234375 56.960938 36.152344 57.367188 35.777344 Z M 47.84375 35.570312 C 48.183594 35.21875 48.273438 34.773438 48.082031 34.316406 C 47.535156 33.015625 45.652344 33.609375 45.914062 34.988281 C 46.082031 35.890625 47.195312 36.222656 47.84375 35.570312 Z M 38.476562 35.457031 C 38.90625 35.09375 39.03125 34.542969 38.78125 34.066406 C 38.566406 33.632812 38.25 33.449219 37.75 33.449219 C 37.25 33.449219 36.933594 33.632812 36.714844 34.066406 C 36.339844 34.796875 36.921875 35.753906 37.75 35.753906 C 37.988281 35.753906 38.261719 35.652344 38.476562 35.457031 Z M 87.929688 71.578125 C 87.964844 70.925781 88.019531 70.230469 88.054688 70.035156 L 88.113281 69.660156 L 89.90625 69.660156 L 89.960938 70.035156 C 90.105469 70.894531 90.242188 71.753906 90.371094 72.617188 C 90.371094 72.695312 89.960938 72.742188 89.121094 72.742188 L 87.863281 72.742188 Z M 87.929688 71.578125 "
    />
  </g>
</svg>
