<svg xmlns="http://www.w3.org/2000/svg" id="root" viewBox="0 0 191 150">
  <path
    d="M 160.929688 149.910156 C 159.691406 149.871094 158.65625 149.824219 158.636719 149.796875 C 158.609375 149.769531 158.625 149.664062 158.683594 149.550781 C 158.804688 149.324219 158.996094 149.855469 156.738281 143.972656 C 155.75 141.402344 154.503906 138.15625 153.976562 136.75 C 153.4375 135.351562 152.484375 132.886719 151.84375 131.273438 C 151.199219 129.667969 150.710938 128.316406 150.746094 128.28125 C 150.898438 128.136719 153.738281 126.65625 154.511719 126.324219 C 156.34375 125.53125 157.832031 125.4375 159.023438 126.023438 C 160.304688 126.65625 161.542969 128.101562 163.324219 131.035156 C 164.703125 133.3125 165.175781 134.011719 165.824219 134.71875 C 166.710938 135.671875 167.46875 135.910156 167.875 135.359375 C 168.023438 135.152344 168.082031 134.90625 168.109375 134.238281 C 168.175781 132.878906 167.921875 131.59375 167.070312 128.960938 C 166.496094 127.164062 165.96875 125.144531 165.890625 124.410156 C 165.824219 123.738281 166.003906 123.210938 166.570312 122.398438 C 167.570312 120.980469 169.457031 119.714844 170.796875 119.554688 C 172.601562 119.347656 173.507812 120.613281 177.820312 129.335938 C 180.59375 134.945312 182.367188 139.082031 182.902344 141.195312 C 183.066406 141.835938 183.066406 141.886719 182.914062 142.121094 C 182.394531 142.914062 179.121094 144.867188 175.488281 146.566406 C 172.769531 147.832031 171.308594 148.363281 170.136719 148.492188 C 169.449219 148.578125 168.75 148.863281 168.535156 149.144531 C 168.308594 149.429688 168.382812 149.730469 168.722656 149.871094 C 168.988281 149.996094 168.695312 150.003906 166.097656 149.996094 C 164.496094 149.984375 162.164062 149.949219 160.929688 149.910156 Z M 169.542969 142.101562 C 170.15625 141.722656 170.875 140.988281 171.109375 140.507812 C 171.5625 139.601562 171.308594 138.449219 170.507812 137.722656 C 169.714844 137.003906 168.589844 136.882812 167.816406 137.417969 C 167.222656 137.84375 166.808594 138.703125 166.808594 139.523438 C 166.808594 140.363281 167.003906 140.902344 167.515625 141.488281 C 168.222656 142.300781 168.890625 142.507812 169.542969 142.101562 Z M 173.460938 149.871094 C 176.027344 149.484375 177.960938 148.917969 180.300781 147.863281 C 182.007812 147.085938 182.601562 146.898438 183.292969 146.898438 C 184.253906 146.898438 184.59375 147.296875 184.761719 148.617188 C 184.875 149.4375 185.027344 149.65625 185.648438 149.871094 C 185.960938 149.984375 185.09375 150.003906 179.308594 149.996094 C 173.355469 149.996094 172.703125 149.976562 173.460938 149.871094 Z M 125.480469 143.273438 C 125.480469 143.1875 126.242188 142.632812 126.289062 142.679688 C 126.320312 142.707031 126.148438 142.859375 125.914062 143.027344 C 125.675781 143.1875 125.480469 143.300781 125.480469 143.273438 Z M 121.261719 141.433594 C 120.722656 141.1875 120.175781 140.609375 119.855469 139.949219 C 119.636719 139.503906 119.574219 139.242188 119.554688 138.636719 C 119.515625 137.691406 119.6875 137.324219 120.289062 136.984375 C 120.675781 136.769531 120.808594 136.75 121.894531 136.75 C 122.96875 136.75 123.109375 136.769531 123.535156 136.984375 C 123.789062 137.117188 124.128906 137.390625 124.289062 137.589844 C 124.5625 137.917969 124.582031 138.003906 124.582031 138.664062 C 124.582031 139.535156 124.433594 139.882812 123.761719 140.621094 C 123.242188 141.195312 122.488281 141.609375 121.996094 141.609375 C 121.808594 141.609375 121.476562 141.527344 121.261719 141.433594 Z M 35.113281 136.558594 C 33.792969 136.417969 32.660156 136.171875 30.566406 135.570312 C 27.554688 134.699219 24.140625 133.3125 23.632812 132.753906 C 23.460938 132.558594 23.460938 132.558594 23.773438 132.367188 C 24.441406 131.960938 26.132812 131.414062 31.171875 130 C 34.078125 129.175781 37.152344 128.261719 39.238281 127.589844 C 46.816406 125.164062 52.164062 123.371094 58.015625 121.3125 C 59.082031 120.933594 61.015625 120.253906 62.308594 119.800781 C 67.214844 118.074219 75.113281 115.214844 80.378906 113.269531 C 84.234375 111.832031 99.183594 106.707031 102.769531 105.582031 C 104.203125 105.128906 104.464844 105.074219 104.597656 105.1875 C 105.484375 105.914062 112.296875 116.023438 113.476562 118.347656 C 114.183594 119.753906 114.214844 120.1875 113.609375 120.765625 C 113.164062 121.1875 112.929688 121.3125 112.523438 121.3125 C 112.089844 121.3125 111.65625 120.886719 110.824219 119.640625 C 109.542969 117.714844 108.683594 117.054688 108.269531 117.648438 C 107.929688 118.128906 108.128906 119.453125 108.789062 121.226562 C 109.15625 122.210938 109.175781 122.292969 109.0625 122.664062 C 108.84375 123.398438 107.617188 124.332031 106.882812 124.332031 C 106.429688 124.332031 106.109375 124.039062 105.316406 122.851562 C 104.183594 121.160156 103.304688 120.367188 102.558594 120.367188 C 102.183594 120.367188 101.890625 120.746094 101.890625 121.238281 C 101.890625 121.851562 102.445312 123.097656 103.238281 124.285156 C 103.777344 125.078125 103.816406 125.609375 103.382812 126.289062 C 103.011719 126.863281 99.277344 130.921875 99.199219 130.828125 C 99.191406 130.808594 98.964844 130.007812 98.699219 129.035156 C 98.003906 126.476562 97.445312 125.503906 96.472656 125.136719 C 96.058594 124.976562 96.003906 124.976562 94.84375 125.171875 C 93.199219 125.449219 89.546875 126.4375 86.085938 127.542969 C 83.753906 128.289062 80.90625 129.128906 76.953125 130.234375 C 74.753906 130.847656 69.054688 132.234375 66.507812 132.785156 C 65.128906 133.078125 62.328125 133.699219 60.277344 134.160156 C 52.902344 135.84375 51.910156 136.003906 46.457031 136.476562 C 44.050781 136.683594 36.792969 136.738281 35.113281 136.558594 Z M 66.675781 126.628906 C 67.875 124.503906 69.714844 120.453125 69.714844 119.941406 C 69.714844 119.613281 68.414062 119.894531 65.628906 120.832031 C 63.15625 121.671875 60.628906 122.757812 60.175781 123.164062 C 59.808594 123.492188 60.230469 123.917969 61.554688 124.53125 C 62.734375 125.070312 63.082031 125.335938 64.515625 126.730469 L 65.769531 127.96875 L 65.988281 127.714844 C 66.109375 127.570312 66.414062 127.082031 66.675781 126.628906 Z M 72.648438 125.464844 C 77.367188 124.984375 83.425781 123.457031 83.566406 122.710938 C 83.640625 122.292969 81.941406 120.933594 79.878906 119.753906 C 77.988281 118.679688 75.6875 117.722656 74.960938 117.722656 C 74.46875 117.722656 73.226562 119.539062 71.96875 122.078125 C 71.007812 124.003906 70.554688 125.222656 70.707031 125.464844 C 70.78125 125.589844 71.414062 125.589844 72.648438 125.464844 Z M 87.605469 120.867188 C 88.546875 119.667969 92.171875 112.597656 91.953125 112.378906 C 91.726562 112.152344 81.980469 114.695312 80.828125 115.277344 C 80.632812 115.382812 80.40625 115.570312 80.320312 115.695312 C 79.894531 116.347656 81 117.59375 83.160156 118.90625 C 84.058594 119.453125 87.160156 121.027344 87.351562 121.027344 C 87.425781 121.027344 87.539062 120.953125 87.605469 120.867188 Z M 126.507812 135.738281 C 125.5 134.464844 124.882812 133.21875 124.722656 132.09375 C 124.675781 131.726562 124.5625 131.226562 124.480469 130.972656 C 124.253906 130.28125 123.367188 128.628906 122.753906 127.730469 C 120.476562 124.4375 119.6875 123.144531 118.242188 120.414062 C 116.601562 117.300781 115.148438 114.902344 113.277344 112.25 C 111.683594 109.984375 106.238281 101.316406 105.5625 99.972656 C 104.824219 98.511719 103.851562 95.195312 103.363281 92.46875 C 102.777344 89.230469 102.664062 87.066406 103.003906 85.625 C 103.464844 83.707031 104.511719 81.242188 105.144531 80.601562 C 105.675781 80.0625 106.191406 79.929688 107.644531 79.976562 C 108.675781 79.996094 108.882812 80.035156 109.050781 80.183594 C 109.316406 80.421875 109.304688 80.582031 108.976562 81.554688 C 108.449219 83.113281 108.183594 85.964844 108.183594 89.964844 C 108.183594 93.582031 108.304688 94.613281 108.863281 95.761719 C 110.003906 98.085938 112.355469 99.664062 115.363281 100.117188 C 117.121094 100.378906 118.675781 100.230469 120.402344 99.632812 C 120.902344 99.457031 121.429688 99.3125 121.5625 99.3125 C 122.28125 99.3125 123.1875 100.144531 124.335938 101.84375 C 125.386719 103.402344 125.421875 103.929688 124.621094 105.582031 C 123.808594 107.246094 123.882812 107.679688 125.441406 109.839844 C 126.875 111.832031 127.128906 112.664062 126.574219 113.609375 C 126.421875 113.863281 125.933594 114.46875 125.480469 114.957031 C 125.015625 115.449219 124.574219 116.007812 124.488281 116.183594 C 124.207031 116.78125 124.328125 117.382812 125.175781 119.433594 C 126.121094 121.71875 127.128906 124.691406 127.308594 125.75 C 127.660156 127.789062 127.714844 131.085938 127.453125 134.472656 C 127.355469 135.671875 127.242188 136.136719 127.015625 136.203125 C 126.960938 136.21875 126.726562 136.011719 126.507812 135.738281 Z M 116.042969 124.097656 C 115.863281 123.964844 115.667969 123.863281 115.601562 123.863281 C 115.429688 123.863281 115.449219 123.699219 115.628906 123.636719 C 115.875 123.539062 115.910156 123.558594 116.175781 123.957031 C 116.308594 124.164062 116.410156 124.332031 116.402344 124.332031 C 116.382812 124.324219 116.222656 124.21875 116.042969 124.097656 Z M 116.042969 124.097656 "
  ></path>
  <path
    d="M 150.191406 123.644531 C 149.945312 123.484375 149.730469 123.144531 149.257812 122.199219 C 148.359375 120.40625 147.777344 119.714844 146.359375 118.792969 C 143.980469 117.242188 140.945312 116.507812 136.847656 116.496094 C 135.273438 116.488281 134.1875 116.335938 133.539062 116.015625 C 132.933594 115.730469 132.007812 114.835938 131.246094 113.816406 C 130.101562 112.285156 127.933594 109.058594 127.6875 108.519531 C 127.015625 107.054688 127.300781 106.261719 129.894531 102.355469 C 131.6875 99.632812 132.679688 98.433594 134.160156 97.160156 C 135 96.453125 135.886719 96 138.234375 95.121094 C 140.851562 94.140625 143.246094 93.601562 143.464844 93.941406 C 143.566406 94.121094 143.519531 94.773438 143.351562 95.28125 C 143.125 96 142.351562 97.519531 141.738281 98.453125 C 140.980469 99.617188 140.5 100.21875 139.378906 101.417969 C 138.246094 102.628906 137.566406 103.535156 137.152344 104.394531 C 136.765625 105.214844 136.820312 105.773438 137.394531 106.980469 C 138.585938 109.453125 141.078125 111.925781 142.359375 111.890625 C 143.265625 111.871094 147.332031 110.578125 152.984375 108.519531 C 158.75 106.414062 161.410156 105.640625 162.855469 105.640625 C 163.777344 105.640625 164.050781 105.734375 164.457031 106.175781 C 165.015625 106.773438 165.503906 107.859375 166.664062 111.066406 C 167.703125 113.949219 167.84375 114.4375 167.75 114.816406 C 167.542969 115.703125 166.921875 116.621094 165.515625 118.128906 C 163.644531 120.132812 162.871094 121.273438 162.742188 122.257812 C 162.617188 123.117188 162.457031 123.144531 160.910156 122.613281 C 160.210938 122.378906 159.863281 122.324219 158.910156 122.273438 C 157.390625 122.210938 156.804688 122.3125 153.730469 123.164062 C 152.324219 123.550781 151.03125 123.863281 150.84375 123.863281 C 150.652344 123.863281 150.371094 123.765625 150.191406 123.644531 Z M 150.191406 123.644531 "
  ></path>
  <path
    d="M 141.445312 107.886719 C 141.191406 107.601562 140.378906 105.949219 140.105469 105.140625 C 139.933594 104.628906 139.90625 104.460938 139.992188 104.269531 C 140.253906 103.683594 143.339844 101.578125 149.371094 97.867188 C 150.605469 97.105469 151.199219 96.246094 151.332031 95.035156 C 151.457031 93.933594 151.796875 93.769531 153.378906 94.074219 C 155.316406 94.441406 156.230469 94.148438 157.664062 92.695312 C 158.785156 91.5625 159.570312 90.183594 159.722656 89.078125 C 159.835938 88.257812 160.109375 87.910156 161.003906 87.390625 C 161.777344 86.945312 162.710938 86.597656 164.402344 86.085938 C 165.929688 85.640625 169.449219 84.753906 170.769531 84.5 C 173.375 83.988281 173.488281 83.980469 175.816406 83.972656 C 178.269531 83.972656 179.046875 84.074219 180.6875 84.632812 C 181.6875 84.980469 185.113281 86.511719 185.035156 86.578125 C 185 86.613281 184.167969 86.878906 183.179688 87.179688 C 181.113281 87.796875 179.886719 88.363281 178.695312 89.238281 C 176.121094 91.148438 174.535156 93.375 173.929688 95.914062 C 173.488281 97.773438 173.0625 98.078125 169.667969 98.972656 C 165.996094 99.9375 162.664062 101.003906 156.144531 103.308594 C 152.957031 104.429688 141.90625 108.09375 141.707031 108.09375 C 141.671875 108.09375 141.558594 108 141.445312 107.886719 Z M 182.566406 105.667969 C 180.386719 105.335938 178.648438 103.929688 177.847656 101.835938 C 177.382812 100.644531 177.253906 99.890625 177.253906 98.320312 C 177.242188 96.660156 177.441406 95.679688 178.015625 94.515625 C 178.460938 93.601562 179.507812 92.507812 180.414062 92.007812 C 181.828125 91.222656 183.660156 90.816406 185.792969 90.816406 C 187.773438 90.816406 188.714844 91.097656 189.554688 91.941406 C 190.613281 92.996094 190.992188 94.375 191 97.140625 C 191 98.605469 190.960938 99.03125 190.792969 99.757812 C 190.554688 100.816406 190.085938 101.917969 189.574219 102.675781 C 189.113281 103.355469 188.152344 104.289062 187.554688 104.636719 C 186.226562 105.402344 183.933594 105.886719 182.566406 105.667969 Z M 126.761719 100.164062 C 125.394531 98.699219 123.015625 93.867188 122.542969 91.609375 C 122.367188 90.722656 122.46875 90.410156 123.195312 89.675781 C 123.894531 88.984375 125.234375 88.058594 125.875 87.832031 C 126.96875 87.445312 127.742188 88.191406 129.421875 91.242188 C 130.28125 92.800781 130.507812 93.609375 130.519531 95.066406 C 130.527344 96.046875 130.488281 96.359375 130.308594 96.953125 C 129.96875 98.039062 129.375 99.164062 128.800781 99.796875 C 127.886719 100.804688 127.441406 100.890625 126.761719 100.164062 Z M 146.152344 96 C 146.097656 95.828125 146.046875 95.394531 146.046875 95.027344 C 146.046875 94.660156 146 93.875 145.953125 93.289062 C 145.824219 91.628906 145.539062 91.195312 144.058594 90.429688 C 142.433594 89.578125 141.425781 88.199219 139.671875 84.425781 C 138.511719 81.933594 138.5 81.894531 138.6875 81.753906 C 139.492188 81.148438 142.207031 79.957031 142.792969 79.957031 C 143.585938 79.957031 145.824219 84.152344 147.179688 88.164062 C 147.578125 89.332031 148.578125 92.996094 148.757812 93.949219 C 148.898438 94.695312 148.339844 95.519531 147.351562 96.019531 C 146.613281 96.386719 146.285156 96.386719 146.152344 96 Z M 133.375 93.347656 C 133.054688 92.921875 132.894531 92.574219 132.367188 91.25 C 131.40625 88.816406 130.695312 86.265625 130.808594 85.652344 C 131 84.632812 133.054688 82.667969 134.300781 82.320312 C 134.707031 82.207031 134.746094 82.207031 134.972656 82.421875 C 135.886719 83.28125 139.3125 89.710938 139.125 90.210938 C 139.011719 90.503906 136.453125 92.214844 134.726562 93.148438 C 133.707031 93.707031 133.652344 93.714844 133.375 93.347656 Z M 153.457031 91.316406 C 152.296875 90.703125 151.3125 88.871094 149.859375 84.546875 C 149.152344 82.449219 148.9375 81.488281 148.992188 80.65625 C 149.019531 80.148438 149.066406 80.015625 149.304688 79.769531 C 149.625 79.429688 150.3125 79.203125 151.011719 79.203125 C 151.664062 79.203125 152.246094 79.601562 152.910156 80.476562 C 154.636719 82.773438 156.050781 86.539062 156.050781 88.832031 C 156.050781 89.902344 155.898438 90.316406 155.296875 90.84375 C 154.617188 91.46875 154.023438 91.617188 153.457031 91.316406 Z M 113.164062 85.886719 C 112.324219 85.585938 111.863281 84.800781 111.863281 83.6875 C 111.863281 82.875 112.082031 82.328125 112.664062 81.695312 C 113.675781 80.589844 115.082031 80.636719 115.96875 81.808594 C 116.863281 82.980469 116.796875 84.121094 115.761719 85.152344 C 115.015625 85.898438 114.003906 86.179688 113.164062 85.886719 Z M 154.652344 77.644531 C 154.304688 77.324219 154.304688 77.324219 154.550781 77.316406 C 154.730469 77.316406 154.824219 77.390625 154.945312 77.644531 C 155.03125 77.824219 155.078125 77.976562 155.058594 77.976562 C 155.03125 77.976562 154.851562 77.824219 154.652344 77.644531 Z M 87.171875 77.03125 C 86.933594 76.992188 86.832031 76.957031 86.933594 76.945312 C 87.265625 76.917969 87.898438 76.589844 88.292969 76.21875 L 88.691406 75.871094 L 88.480469 76.378906 C 88.378906 76.664062 88.265625 76.945312 88.238281 77.011719 C 88.191406 77.136719 87.867188 77.136719 87.171875 77.03125 Z M 39.359375 75.390625 C 38.519531 75.011719 37.199219 73.273438 36.453125 71.585938 C 34.859375 67.949219 34.625 64.417969 35.925781 63.558594 C 37.066406 62.792969 38.726562 63.984375 39.898438 66.410156 C 40.40625 67.449219 40.691406 68.269531 41.125 69.996094 C 41.285156 70.621094 41.605469 71.6875 41.832031 72.378906 C 42.070312 73.066406 42.257812 73.785156 42.257812 73.980469 C 42.257812 74.445312 41.984375 74.878906 41.503906 75.199219 C 41.179688 75.417969 40.984375 75.464844 40.390625 75.492188 C 39.890625 75.511719 39.566406 75.484375 39.359375 75.390625 Z M 81.507812 74.625 C 81.507812 74.605469 81.765625 73.625 82.074219 72.441406 C 83.3125 67.75 83.632812 65.542969 83.40625 63.246094 C 83.066406 59.867188 81.71875 57.640625 78.867188 55.730469 C 76.933594 54.449219 75.273438 53.949219 73.667969 54.175781 C 72.714844 54.304688 72.273438 54.457031 70.714844 55.195312 C 69.996094 55.535156 69.222656 55.835938 69.007812 55.863281 C 68.640625 55.902344 68.574219 55.875 68.242188 55.535156 C 67.78125 55.070312 66.800781 53.429688 66.402344 52.4375 C 65.976562 51.398438 65.96875 50.320312 66.355469 48.945312 C 66.6875 47.761719 66.703125 46.902344 66.414062 46.140625 C 66.167969 45.488281 65.402344 44.289062 64.296875 42.855469 C 63.855469 42.269531 63.488281 41.769531 63.488281 41.730469 C 63.496094 41.703125 63.796875 41.4375 64.167969 41.152344 C 65.449219 40.171875 66.300781 39.371094 66.496094 38.953125 C 66.921875 38.085938 66.667969 36.914062 65.488281 34.253906 C 63.960938 30.796875 63.441406 28.183594 63.101562 22.074219 C 62.976562 19.9375 63.007812 18.75 63.175781 18.578125 C 63.582031 18.171875 65.195312 19.875 65.894531 21.460938 C 66.015625 21.742188 66.253906 22.433594 66.414062 22.988281 C 66.800781 24.339844 67.875 26.511719 68.921875 28.078125 C 71.402344 31.761719 71.949219 32.667969 72.214844 33.460938 C 72.546875 34.421875 73.980469 36.78125 76.980469 41.296875 C 79.585938 45.203125 80.574219 46.773438 82.027344 49.226562 C 82.640625 50.265625 83.492188 51.710938 83.914062 52.4375 C 85.59375 55.277344 86.539062 57.574219 87.253906 60.546875 C 87.980469 63.539062 88.21875 66.777344 87.878906 69.007812 C 87.511719 71.480469 86.519531 73.578125 85.480469 74.105469 C 85.027344 74.320312 84.820312 74.359375 83.160156 74.53125 C 81.605469 74.679688 81.507812 74.691406 81.507812 74.625 Z M 47.464844 74.199219 C 47.03125 73.933594 46.636719 73.332031 46.003906 71.953125 C 44.832031 69.402344 44.003906 67.070312 42.8125 63.058594 C 41.9375 60.074219 41.945312 60.167969 42.457031 59.613281 C 42.851562 59.1875 43.859375 58.621094 44.75 58.335938 C 45.050781 58.242188 45.125 58.242188 45.25 58.367188 C 45.371094 58.488281 45.363281 58.621094 45.183594 59.519531 C 45.003906 60.394531 44.992188 60.613281 45.089844 61.140625 C 45.390625 62.925781 46.703125 64.445312 48.125 64.671875 C 48.4375 64.71875 48.777344 64.804688 48.863281 64.851562 C 49.117188 64.992188 49.304688 65.332031 49.371094 65.824219 C 49.496094 66.644531 50.125 68.128906 51.078125 69.855469 C 51.757812 71.09375 52.070312 71.925781 52.070312 72.539062 C 52.070312 72.90625 52.03125 72.992188 51.722656 73.246094 C 51.335938 73.566406 50.382812 73.945312 49.285156 74.207031 C 48.324219 74.433594 47.851562 74.433594 47.464844 74.199219 Z M 47.464844 74.199219 "
  ></path>
  <path
    d="M 75.808594 73.59375 C 75.273438 73.398438 74.792969 72.960938 74.527344 72.441406 C 74.1875 71.773438 74.195312 70.753906 74.554688 70.09375 C 75.066406 69.148438 75.707031 68.648438 76.519531 68.570312 C 77.886719 68.429688 78.820312 69.835938 78.640625 71.78125 C 78.566406 72.640625 78.273438 73.226562 77.8125 73.460938 C 77.347656 73.707031 76.292969 73.773438 75.808594 73.59375 Z M 55.910156 71.914062 C 54.902344 70.660156 52.476562 66.597656 51.929688 65.238281 C 51.542969 64.304688 51.542969 64.3125 52.964844 63.371094 C 54.703125 62.207031 56.523438 61.359375 57.269531 61.359375 C 58.097656 61.359375 58.355469 61.652344 58.488281 62.757812 C 58.601562 63.777344 58.921875 64.703125 59.769531 66.476562 C 60.164062 67.289062 60.503906 68.117188 60.535156 68.328125 C 60.617188 68.988281 60.222656 69.527344 58.730469 70.753906 C 57.636719 71.640625 56.648438 72.3125 56.402344 72.3125 C 56.308594 72.3125 56.089844 72.132812 55.910156 71.914062 Z M 13.042969 70.5625 C 10.496094 70.046875 6.96875 68.769531 6.496094 68.203125 C 6.316406 67.988281 6.449219 67.902344 7.222656 67.789062 C 9.222656 67.488281 12.621094 65.625 14.328125 63.90625 C 15.007812 63.226562 15.234375 62.917969 15.761719 61.925781 C 16.308594 60.894531 16.734375 59.972656 17.335938 58.480469 C 17.554688 57.921875 18.339844 57.203125 19.214844 56.75 C 20.214844 56.230469 22.207031 55.515625 25.386719 54.523438 C 28.800781 53.457031 33.011719 52.085938 39.144531 50.027344 C 44.085938 48.367188 45.410156 47.980469 46.929688 47.707031 C 48.882812 47.367188 49.976562 47.726562 50.484375 48.878906 C 50.644531 49.226562 50.65625 49.332031 50.550781 49.632812 C 50.222656 50.679688 48.558594 52.652344 46.710938 54.183594 C 45.703125 55.03125 44.925781 55.46875 44.21875 55.601562 C 43.199219 55.796875 42.03125 56.5625 40.890625 57.789062 C 39.972656 58.773438 39.625 59.386719 39.511719 60.1875 C 39.378906 61.226562 39.359375 61.265625 39.078125 61.265625 C 38.945312 61.265625 38.539062 61.09375 38.179688 60.886719 C 37.160156 60.300781 36.546875 60.199219 35.59375 60.453125 C 34.785156 60.667969 34.132812 61.074219 33.339844 61.878906 C 32.453125 62.757812 31.933594 63.664062 31.558594 64.992188 C 30.972656 67.015625 30.527344 67.429688 28.152344 68.183594 C 24.28125 69.421875 17.054688 70.828125 14.707031 70.789062 C 14.367188 70.789062 13.621094 70.6875 13.042969 70.5625 Z M 64.167969 66.921875 C 63.410156 66.542969 62.15625 64.757812 61.308594 62.871094 C 60.5625 61.199219 60.355469 60.007812 60.601562 58.808594 C 60.957031 57.082031 62.941406 54.089844 63.734375 54.089844 C 64.222656 54.089844 65.488281 56.203125 67.203125 59.867188 C 68.902344 63.511719 68.894531 63.878906 67.109375 65.664062 C 65.78125 66.996094 64.976562 67.335938 64.167969 66.921875 Z M 3.808594 64.34375 C 1.769531 63.777344 0.703125 62.757812 0.210938 60.933594 C -0.109375 59.726562 -0.0625 56.789062 0.324219 54.675781 C 0.84375 51.804688 2.316406 50.058594 4.816406 49.332031 C 5.96875 49 6.828125 48.933594 7.875 49.121094 C 10.382812 49.558594 12.601562 50.953125 13.488281 52.652344 C 13.960938 53.570312 13.949219 57.054688 13.480469 58.847656 C 12.882812 61.074219 11.609375 62.398438 8.835938 63.652344 C 6.742188 64.597656 5.375 64.785156 3.808594 64.34375 Z M 3.808594 64.34375 "
  ></path>
  <path
    d="M 48.003906 61.207031 C 47.910156 61.09375 47.871094 60.773438 47.871094 60.09375 C 47.871094 59.300781 47.917969 59 48.144531 58.308594 C 48.65625 56.734375 49.609375 55.382812 51.902344 52.992188 C 53.417969 51.398438 54.382812 50.226562 54.609375 49.679688 C 54.710938 49.425781 54.703125 49.332031 54.53125 48.953125 C 54.042969 47.820312 52.402344 45.640625 51.164062 44.449219 C 49.945312 43.289062 49.003906 42.75 47.917969 42.617188 C 47.25 42.53125 46.710938 42.722656 45.8125 43.324219 C 44.925781 43.921875 44.410156 44.128906 39.472656 45.78125 C 37.191406 46.546875 34.09375 47.613281 32.585938 48.140625 C 29.546875 49.207031 27.820312 49.738281 27.113281 49.8125 L 26.632812 49.859375 L 26.039062 48.367188 C 25.707031 47.535156 25.207031 46.234375 24.933594 45.460938 C 24.652344 44.683594 24.035156 43.042969 23.574219 41.816406 C 23.101562 40.578125 22.726562 39.539062 22.726562 39.492188 C 22.726562 39.453125 23.566406 38.566406 24.59375 37.527344 C 27.09375 35 27.933594 33.78125 28.09375 32.496094 C 28.21875 31.496094 28.40625 31.4375 29.972656 31.949219 C 32.339844 32.703125 33.539062 32.621094 38.550781 31.324219 C 39.765625 31.003906 40.777344 30.769531 40.785156 30.777344 C 40.792969 30.796875 41.179688 31.476562 41.644531 32.277344 C 42.683594 34.109375 43.105469 34.714844 43.917969 35.5 C 44.636719 36.1875 45.34375 36.632812 46.410156 37.066406 C 47.878906 37.671875 49.410156 37.914062 52.496094 38.039062 C 55.371094 38.152344 56.050781 38.253906 57.25 38.804688 C 58.316406 39.285156 60.421875 41.617188 62.261719 44.34375 C 63.296875 45.882812 63.796875 46.839844 63.796875 47.308594 C 63.796875 48.507812 60.0625 54.125 57.410156 56.894531 C 56.128906 58.242188 54.589844 59.1875 53.371094 59.375 C 52.496094 59.507812 51.296875 59.953125 49.898438 60.652344 C 48.511719 61.339844 48.191406 61.433594 48.003906 61.207031 Z M 86.453125 49.746094 C 86.085938 49.605469 85.332031 48.640625 84.585938 47.375 C 83.6875 45.875 81.453125 42.496094 80.085938 40.597656 C 77.167969 36.566406 76.574219 35.554688 76.621094 34.773438 C 76.648438 34.335938 76.660156 34.320312 77.214844 34.015625 C 78.253906 33.441406 79.066406 33.488281 79.640625 34.167969 C 79.820312 34.367188 80.160156 34.914062 80.40625 35.375 C 81.300781 37.085938 82 37.632812 82.546875 37.046875 C 83.027344 36.539062 82.867188 35.121094 82.160156 33.621094 C 81.660156 32.554688 81.660156 32.183594 82.167969 31.710938 C 82.386719 31.515625 82.867188 31.195312 83.253906 31.003906 C 84.40625 30.417969 84.914062 30.578125 85.753906 31.808594 C 86.199219 32.457031 86.5 33.054688 86.640625 33.542969 C 86.726562 33.835938 86.832031 33.96875 87.078125 34.09375 C 87.632812 34.375 88.578125 34.261719 88.773438 33.882812 C 89.011719 33.441406 88.785156 32.382812 88.152344 30.996094 C 87.511719 29.570312 87.539062 29.003906 88.351562 27.792969 C 88.792969 27.144531 91.371094 24.167969 91.824219 23.792969 C 92.019531 23.632812 91.964844 23.453125 92.5 25.90625 C 93.125 28.683594 93.351562 29.21875 94.019531 29.503906 C 94.597656 29.75 96.050781 29.617188 98.570312 29.117188 C 100.34375 28.757812 101.265625 28.492188 104.390625 27.445312 C 105.949219 26.925781 108.304688 26.191406 109.628906 25.8125 C 119.78125 22.894531 136.253906 19.25 144.726562 18.050781 C 146.398438 17.816406 146.824219 17.785156 149.351562 17.785156 C 152.199219 17.785156 153.511719 17.882812 155.625 18.222656 C 158.65625 18.710938 161.257812 19.371094 163.484375 20.203125 C 164.703125 20.65625 167.996094 22.109375 168.15625 22.261719 C 168.195312 22.300781 166.449219 22.914062 164.289062 23.621094 C 159.730469 25.113281 158.144531 25.566406 156.097656 25.964844 C 154.097656 26.339844 148.417969 28.183594 137.273438 32.042969 C 135.378906 32.703125 132.6875 33.628906 131.28125 34.121094 C 120.308594 37.914062 109.484375 41.824219 106.84375 42.929688 C 105.109375 43.65625 102.710938 44.507812 96.796875 46.488281 C 93.8125 47.488281 90.386719 48.652344 89.191406 49.074219 C 86.980469 49.851562 86.800781 49.886719 86.453125 49.746094 Z M 103.304688 41.523438 C 105.144531 41.003906 107.464844 40.304688 108.449219 39.972656 C 111.34375 39 111.476562 38.925781 110.984375 38.398438 C 109.882812 37.234375 104.683594 34.261719 103.75 34.261719 C 103.351562 34.261719 102.777344 35.015625 101.703125 36.953125 C 101.34375 37.59375 98.984375 42.316406 98.863281 42.628906 L 98.785156 42.835938 L 99.371094 42.65625 C 99.691406 42.550781 101.464844 42.042969 103.304688 41.523438 Z M 116.375 36.773438 C 117.195312 36.394531 117.894531 35.441406 118.6875 33.621094 C 119.421875 31.921875 120.082031 29.664062 119.949219 29.304688 C 119.828125 28.992188 117.683594 29.21875 114.582031 29.882812 C 111.371094 30.570312 107.949219 31.523438 107.503906 31.855469 C 107.335938 31.996094 107.34375 32.015625 107.789062 32.476562 C 108.363281 33.0625 109.863281 34.175781 111.535156 35.273438 C 114.023438 36.886719 115.289062 37.285156 116.375 36.773438 Z M 121.949219 34.921875 C 123.394531 34.628906 124.820312 34.222656 126.515625 33.640625 C 128.015625 33.128906 130.933594 31.957031 131.066406 31.824219 C 131.132812 31.75 127.886719 29.058594 126.667969 28.183594 C 125.753906 27.519531 125.402344 27.351562 125.175781 27.472656 C 125.007812 27.566406 123.988281 29.058594 123.554688 29.851562 C 122.714844 31.382812 120.855469 35.113281 120.929688 35.113281 C 120.988281 35.113281 121.441406 35.027344 121.949219 34.921875 Z M 121.949219 34.921875 "
  ></path>
  <path
    d="M 19.46875 35.40625 C 19.261719 35.308594 18.855469 34.980469 18.5625 34.667969 C 17.460938 33.46875 16.554688 31.875 13.402344 25.574219 C 9.789062 18.351562 7.941406 14.367188 7.84375 13.574219 C 7.714844 12.453125 8.683594 11.6875 13.109375 9.46875 C 17.035156 7.503906 20.660156 6.136719 24.347656 5.238281 C 26.894531 4.617188 29.847656 4.390625 30.765625 4.738281 C 32.125 5.265625 33.113281 7.363281 37.304688 18.636719 C 37.785156 19.9375 38.585938 22.054688 39.085938 23.347656 C 39.585938 24.640625 39.992188 25.820312 39.992188 25.964844 C 39.992188 26.613281 38.8125 27.371094 36.519531 28.210938 C 35.09375 28.730469 33.832031 28.945312 33.019531 28.804688 C 31.039062 28.464844 29.480469 26.8125 26.878906 22.308594 C 25.847656 20.523438 25.734375 20.363281 25.234375 19.835938 C 24.761719 19.335938 24.441406 19.15625 24 19.15625 C 23.3125 19.15625 23.007812 19.769531 23.007812 21.148438 C 23.007812 22.320312 23.234375 23.453125 23.953125 25.898438 C 24.734375 28.578125 24.925781 29.457031 24.925781 30.496094 C 24.914062 31.863281 24.527344 32.515625 22.792969 34.082031 C 21.226562 35.5 20.386719 35.828125 19.46875 35.40625 Z M 22.480469 17.257812 C 23.394531 17.03125 23.980469 16.21875 23.980469 15.171875 C 23.980469 14.125 23.394531 13.386719 22.347656 13.113281 C 20.980469 12.753906 19.773438 13.726562 19.773438 15.179688 C 19.773438 15.8125 20.035156 16.617188 20.328125 16.898438 C 20.773438 17.316406 21.660156 17.464844 22.480469 17.257812 Z M 68.269531 18.691406 C 67.980469 18.542969 67.648438 18.351562 67.542969 18.257812 C 67.214844 17.957031 66.960938 17.105469 66.941406 16.230469 C 66.921875 14.746094 67.300781 14.039062 68.1875 13.914062 C 68.789062 13.832031 69.546875 13.925781 70.046875 14.140625 C 71.5 14.785156 71.894531 17.144531 70.714844 18.183594 C 70.347656 18.503906 69.242188 18.984375 68.914062 18.96875 C 68.867188 18.957031 68.574219 18.835938 68.269531 18.691406 Z M 60.65625 16.246094 C 60.65625 15.992188 60.695312 15.945312 60.890625 15.945312 C 61.023438 15.945312 61.128906 15.984375 61.128906 16.019531 C 61.128906 16.066406 61.023438 16.199219 60.890625 16.324219 L 60.65625 16.539062 Z M 7.582031 8.128906 C 6.828125 7.664062 6.003906 6.464844 4.769531 4.003906 C 3.957031 2.40625 3.296875 1.347656 2.722656 0.765625 C 2.289062 0.308594 2.277344 0.328125 3.289062 0.167969 C 4.277344 0.0078125 20.707031 -0.0664062 23.433594 0.0820312 C 25.960938 0.214844 26.074219 0.246094 25.167969 0.507812 C 24.78125 0.632812 24.085938 0.914062 23.621094 1.152344 C 22.566406 1.679688 20.601562 2.558594 18.195312 3.578125 C 17.1875 4.003906 15.660156 4.652344 14.800781 5.011719 C 12.554688 5.964844 10.109375 7.175781 9.5625 7.609375 C 8.667969 8.328125 8.136719 8.457031 7.582031 8.128906 Z M 7.582031 8.128906 "
  ></path>
</svg>
