<svg xmlns="http://www.w3.org/2000/svg" id="root" viewBox="411.51 631.33 20242.49 15886.95">
  <path
    d="M17467 16509c-131-4-241-9-243-12-3-3-1-14 5-26 13-24 33 32-206-591-105-272-237-616-293-765-57-148-158-409-226-580-68-170-120-313-116-317 16-15 317-172 399-207 194-84 352-94 478-32 136 67 267 220 456 531 146 241 196 315 265 390 94 101 174 126 217 68 16-22 22-48 25-119 7-144-20-280-110-559-61-190-117-404-125-482-7-71 12-127 72-213 106-150 306-284 448-301 191-22 287 112 744 1036 294 594 482 1032 539 1256 17 68 17 73 1 98-55 84-402 291-787 471-288 134-443 190-567 204-73 9-147 39-170 69-24 30-16 62 20 77 28 13-3 14-278 13-170-1-417-5-548-9zm913-827c65-40 141-118 166-169 48-96 21-218-64-295-84-76-203-89-285-32-63 45-107 136-107 223 0 89 21 146 75 208 75 86 146 108 215 65zM18795 16505c272-41 477-101 725-213 181-82 244-102 317-102 102 0 138 42 156 182 12 87 28 110 94 133 33 12-59 14-672 13-631 0-700-2-620-13zM13710 15806c0-9 81-68 86-63 3 3-15 19-40 37-25 17-46 29-46 26zM13263 15611c-57-26-115-87-149-157-23-47-30-75-32-139-4-100 14-139 78-175 41-23 55-25 170-25 114 0 129 2 174 25 27 14 63 43 80 64 29 35 31 44 31 114 0 92-16 129-87 207-55 61-135 105-187 105-20 0-55-9-78-19zM4133 15095c-140-15-260-41-482-105-319-92-681-239-735-298-18-21-18-21 15-41 71-43 250-101 784-251 308-87 634-184 855-255 803-257 1370-447 1990-665 113-40 318-112 455-160 520-183 1357-486 1915-692 409-152 1993-695 2373-814 152-48 180-54 194-42 94 77 816 1148 941 1394 75 149 78 195 14 256-47 45-72 58-115 58-46 0-92-45-180-177-136-204-227-274-271-211-36 51-15 191 55 379 39 104 41 113 29 152-23 78-153 177-231 177-48 0-82-31-166-157-120-179-213-263-292-263-40 0-71 40-71 92 0 65 59 197 143 323 57 84 61 140 15 212-39 61-435 491-443 481-1-2-25-87-53-190-74-271-133-374-236-413-44-17-50-17-173 4-174 29-561 134-928 251-247 79-549 168-968 285-233 65-837 212-1107 270-146 31-443 97-660 146-782 178-887 195-1465 245-255 22-1024 28-1202 9zm3345-1052c127-225 322-654 322-708 0-35-138-5-433 94-262 89-530 204-578 247-39 35 6 80 146 145 125 57 162 85 314 233l133 131 23-27c13-15 45-67 73-115zm633-123c500-51 1142-213 1157-292 8-44-172-188-391-313-200-114-444-215-521-215-52 0-184 192-317 461-102 204-150 333-134 359 8 13 75 13 206 0zm1585-487c100-127 484-876 461-899-24-24-1057 245-1179 307-21 11-45 31-54 44-45 69 72 201 301 340 95 58 424 225 444 225 8 0 20-8 27-17zM13819 15008c-107-135-172-267-189-386-5-39-17-92-26-119-24-73-118-248-183-343-241-349-325-486-478-775-174-330-328-584-526-865-169-240-746-1158-818-1300-78-155-181-506-233-795-62-343-74-572-38-725 49-203 160-464 227-532 56-57 111-71 265-66 109 2 131 6 149 22 28 25 27 42-8 145-56 165-84 467-84 891 0 383 13 492 72 614 121 246 370 413 689 461 186 28 351 12 534-51 53-19 109-34 123-34 76 0 172 88 294 268 111 165 115 221 30 396-86 176-78 222 87 451 152 211 179 299 120 399-16 27-68 91-116 143-49 52-96 111-105 130-30 63-17 127 73 344 100 242 207 557 226 669 37 216 43 565 15 924-10 127-22 176-46 183-6 2-31-20-54-49zM12710 13775c-19-14-40-25-47-25-18 0-16-17 3-24 26-10 30-8 58 34 14 22 25 40 24 40-2-1-19-12-38-25z"
  />
  <path
    d="M16329 13727c-26-17-49-53-99-153-95-190-157-263-307-361-252-164-574-242-1008-243-167-1-282-17-351-51-64-30-162-125-243-233-121-162-351-504-377-561-71-155-41-239 234-653 190-288 295-415 452-550 89-75 183-123 432-216 277-104 531-161 554-125 11 19 6 88-12 142-24 76-106 237-171 336-80 123-131 187-250 314-120 128-192 224-236 315-41 87-35 146 26 274 126 262 390 524 526 520 96-2 527-139 1126-357 611-223 893-305 1046-305 98 0 127 10 170 57 59 63 111 178 234 518 110 305 125 357 115 397-22 94-88 191-237 351-198 212-280 333-294 437-13 91-30 94-194 38-74-25-111-31-212-36-161-7-223 4-549 94-149 41-286 74-306 74s-50-10-69-23z"
  />
  <path
    d="M15402 12058c-27-30-113-205-142-291-18-54-21-72-12-92 28-62 355-285 994-678 131-81 194-172 208-300 13-117 49-134 217-102 205 39 302 8 454-146 119-120 202-266 218-383 12-87 41-124 136-179 82-47 181-84 360-138 162-47 535-141 675-168 276-54 288-55 535-56 260 0 342 11 516 70 106 37 469 199 461 206-4 4-92 32-197 64-219 65-349 125-475 218-273 202-441 438-505 707-47 197-92 229-452 324-389 102-742 215-1433 459-338 119-1509 507-1530 507-4 0-16-10-28-22zM19760 11823c-231-35-415-184-500-406-49-126-63-206-63-372-1-176 20-280 81-403 47-97 158-213 254-266 150-83 344-126 570-126 210 0 310 30 399 119 112 112 152 258 153 551 0 155-4 200-22 277-25 112-75 229-129 309-49 72-151 171-214 208-141 81-384 132-529 109zM13846 11240c-145-155-397-667-447-906-19-94-8-127 69-205 74-73 216-171 284-195 116-41 198 38 376 361 91 165 115 251 116 405 1 104-3 137-22 200-36 115-99 234-160 301-97 107-144 116-216 39zM15901 10799c-6-18-11-64-11-103s-5-122-10-184c-14-176-44-222-201-303-172-90-279-236-465-636-123-264-124-268-104-283 85-64 373-190 435-190 84 0 321 444 465 869 42 124 148 512 167 613 15 79-44 166-149 219-78 39-113 39-127-2zM14547 10518c-34-45-51-82-107-222-102-258-177-528-165-593 20-108 238-316 370-353 43-12 47-12 71 11 97 91 460 772 440 825-12 31-283 212-466 311-108 59-114 60-143 21zM16675 10303c-123-65-227-259-381-717-75-222-98-324-92-412 3-54 8-68 33-94 34-36 107-60 181-60 69 0 131 42 201 135 183 243 333 642 333 885 0 113-16 157-80 213-72 66-135 82-195 50zM12405 9728c-89-32-138-115-138-233 0-86 23-144 85-211 107-117 256-112 350 12 95 124 88 245-22 354-79 79-186 109-275 78zM16802 8855c-37-34-37-34-11-35 19 0 29 8 42 35 9 19 14 35 12 35-3 0-22-16-43-35zM9650 8790c-25-4-36-8-25-9 35-3 102-38 144-77l42-37-22 54c-11 30-23 60-26 67-5 13-39 13-113 2zM4583 8616c-89-40-229-224-308-403-169-385-194-759-56-850 121-81 297 45 421 302 54 110 84 197 130 380 17 66 51 179 75 252 25 73 45 149 45 170 0 49-29 95-80 129-34 23-55 28-118 31-53 2-87-1-109-11zM9050 8535c0-2 27-106 60-231 131-497 165-731 141-974-36-358-179-594-481-796-205-136-381-189-551-165-101 14-148 30-313 108-76 36-158 68-181 71-39 4-46 1-81-35-49-49-153-223-195-328-45-110-46-224-5-370 35-125 37-216 6-297-26-69-107-196-224-348-47-62-86-115-86-119 1-3 33-31 72-61 136-104 226-189 247-233 45-92 18-216-107-498-162-366-217-643-253-1290-13-226-10-352 8-370 43-43 214 137 288 305 13 30 38 103 55 162 41 143 155 373 266 539 263 390 321 486 349 570 35 102 187 352 505 830 276 414 381 580 535 840 65 110 155 263 200 340 178 301 278 544 354 859 77 317 102 660 66 896-39 262-144 484-254 540-48 23-70 27-246 45-165 16-175 17-175 10zM5442 8490c-46-28-88-92-155-238-124-270-212-517-338-942-93-316-92-306-38-365 42-45 149-105 243-135 32-10 40-10 53 3s12 27-7 122c-19 93-20 116-10 172 32 189 171 350 322 374 33 5 69 14 78 19 27 15 47 51 54 103 13 87 80 244 181 427 72 131 105 219 105 284 0 39-4 48-37 75-41 34-142 74-258 102-102 24-152 24-193-1z"
  />
  <path
    d="M8446 8426c-57-21-108-67-136-122-36-71-35-179 3-249 54-100 122-153 208-161 145-15 244 134 225 340-8 91-39 153-88 178-49 26-161 33-212 14zM6337 8248c-107-133-364-563-422-707-41-99-41-98 110-198 184-123 377-213 456-213 88 0 115 31 129 148 12 108 46 206 136 394 42 86 78 174 81 196 9 70-33 127-191 257-116 94-221 165-247 165-10 0-33-19-52-42zM1794 8105c-270-55-644-190-694-250-19-23-5-32 77-44 212-32 572-229 753-411 72-72 96-105 152-210 58-109 103-207 167-365 23-59 106-135 199-183 106-55 317-131 654-236 362-113 808-258 1458-476 524-176 664-217 825-246 207-36 323 2 377 124 17 37 18 48 7 80-35 111-211 320-407 482-107 90-189 136-264 150-108 21-232 102-353 232-97 104-134 169-146 254-14 110-16 114-46 114-14 0-57-18-95-40-108-62-173-73-274-46-86 23-155 66-239 151-94 93-149 189-189 330-62 214-109 258-361 338-410 131-1176 280-1425 276-36 0-115-11-176-24zM7212 7719c-80-40-213-229-303-429-79-177-101-303-75-430 38-183 248-500 332-500 52 0 186 224 368 612 180 386 179 425-10 614-141 141-226 177-312 133zM815 7446c-216-60-329-168-381-361-34-128-29-439 12-663 55-304 211-489 476-566 122-35 213-42 324-22 266 46 501 194 595 374 50 97 49 466-1 656-63 236-198 376-492 509-222 100-367 120-533 73z"
  />
  <path
    d="M5499 7114c-10-12-14-46-14-118 0-84 5-116 29-189 54-167 155-310 398-563 161-169 263-293 287-351 11-27 10-37-8-77-52-120-226-351-357-477-129-123-229-180-344-194-71-9-128 11-223 75-94 63-149 85-672 260-242 81-570 194-730 250-322 113-505 169-580 177l-51 5-63-158c-35-88-88-226-117-308-30-82-95-256-144-386-50-131-90-241-90-246 0-4 89-98 198-208 265-268 354-397 371-533 13-106 33-112 199-58 251 80 378 71 909-66 129-34 236-59 237-58 1 2 42 74 91 159 110 194 155 258 241 341 76 73 151 120 264 166 156 64 318 90 645 103 305 12 377 23 504 81 113 51 336 298 531 587 110 163 163 264 163 314 0 127-396 722-677 1015-136 143-299 243-428 263-93 14-220 61-368 135-147 73-181 83-201 59zM9574 5900c-39-15-119-117-198-251-95-159-332-517-477-718-309-427-372-534-367-617 3-46 4-48 63-80 110-61 196-56 257 16 19 21 55 79 81 128 95 181 169 239 227 177 51-54 34-204-41-363-53-113-53-152 1-202 23-21 74-55 115-75 122-62 176-45 265 85 47 69 79 132 94 184 9 31 20 45 46 58 59 30 159 18 180-22 25-47 1-159-66-306-68-151-65-211 21-339 47-69 320-384 368-424 21-17 15-36 72 224 66 294 90 351 161 381 61 26 215 12 482-41 188-38 286-66 617-177 165-55 415-133 555-173 1076-309 2822-695 3720-822 177-25 222-28 490-28 302 0 441 10 665 46 321 52 597 122 833 210 129 48 478 202 495 218 4 4-181 69-410 144-483 158-651 206-868 248-212 40-814 235-1995 644-201 70-486 168-635 220-1163 402-2310 816-2590 933-184 77-438 167-1065 377-316 106-679 229-806 274-234 82-253 86-290 71zm1786-871c195-55 441-129 545-164 307-103 321-111 269-167-117-123-668-438-767-438-42 0-103 80-217 285-38 68-288 568-301 601l-8 22 62-19c34-11 222-65 417-120zm1385-503c87-40 161-141 245-334 78-180 148-419 134-457-13-33-240-9-569 61-340 73-703 174-750 209-18 15-17 17 30 66 61 62 220 180 397 296 264 171 398 213 513 159zm591-196c153-31 304-74 484-136 159-54 468-178 482-192 7-8-337-293-466-386-97-70-134-88-158-75-18 10-126 168-172 252-89 162-286 557-278 557 6 0 54-9 108-20z"
  />
  <path
    d="M2475 4381c-22-10-65-45-96-78-117-127-213-296-547-963-383-765-579-1187-589-1271-14-119 89-200 558-435 416-208 800-353 1191-448 270-66 583-90 680-53 144 56 249 278 693 1472 51 138 136 362 189 499s96 262 96 277c0 69-125 149-368 238-151 55-285 78-371 63-210-36-375-211-651-688-109-189-121-206-174-262-50-53-84-72-131-72-73 0-105 65-105 211 0 124 24 244 100 503 83 284 103 377 103 487-1 145-42 214-226 380-166 150-255 185-352 140zm319-1922c97-24 159-110 159-221s-62-189-173-218c-145-38-273 65-273 219 0 67 28 152 59 182 47 44 141 60 228 38zM7647 2611c-31-16-66-36-77-46-35-32-62-122-64-215-2-157 38-232 132-245 64-9 144 1 197 24 154 68 196 318 71 428-39 34-156 85-191 83-5-1-36-14-68-29zM6840 2352c0-27 4-32 25-32 14 0 25 4 25 8 0 5-11 19-25 32l-25 23v-31zM1215 1492c-80-49-167-176-298-437-86-169-156-281-217-343-46-48-47-46 60-63 105-17 1846-25 2135-9 268 14 280 17 184 45-41 13-115 43-164 68-112 56-320 149-575 257-107 45-269 114-360 152-238 101-497 229-555 275-95 76-151 90-210 55z"
  />
</svg>
