<svg xmlns="http://www.w3.org/2000/svg" id="root" viewBox="0 0 100 79">
  <g>
    <path
      d="M 84.257812 78.953125 C 83.609375 78.933594 83.066406 78.90625 83.054688 78.894531 C 83.042969 78.878906 83.050781 78.824219 83.082031 78.761719 C 83.144531 78.644531 83.242188 78.925781 82.0625 75.824219 C 81.542969 74.472656 80.890625 72.761719 80.617188 72.023438 C 80.332031 71.285156 79.835938 69.988281 79.5 69.136719 C 79.160156 68.292969 78.90625 67.578125 78.925781 67.5625 C 79.003906 67.484375 80.492188 66.707031 80.894531 66.53125 C 81.855469 66.113281 82.632812 66.0625 83.257812 66.371094 C 83.929688 66.707031 84.578125 67.46875 85.511719 69.011719 C 86.230469 70.210938 86.480469 70.578125 86.820312 70.953125 C 87.285156 71.453125 87.679688 71.578125 87.894531 71.289062 C 87.96875 71.179688 88 71.050781 88.015625 70.699219 C 88.050781 69.984375 87.917969 69.304688 87.472656 67.917969 C 87.171875 66.972656 86.894531 65.910156 86.855469 65.523438 C 86.820312 65.167969 86.914062 64.890625 87.210938 64.464844 C 87.734375 63.714844 88.722656 63.050781 89.421875 62.964844 C 90.367188 62.855469 90.839844 63.523438 93.101562 68.117188 C 94.550781 71.070312 95.480469 73.25 95.761719 74.363281 C 95.847656 74.699219 95.847656 74.726562 95.765625 74.851562 C 95.496094 75.269531 93.78125 76.296875 91.878906 77.191406 C 90.457031 77.859375 89.691406 78.136719 89.078125 78.207031 C 88.71875 78.25 88.351562 78.402344 88.238281 78.550781 C 88.121094 78.699219 88.160156 78.859375 88.335938 78.933594 C 88.476562 78.996094 88.320312 79.003906 86.960938 78.996094 C 86.125 78.992188 84.902344 78.972656 84.257812 78.953125 Z M 88.765625 74.839844 C 89.085938 74.640625 89.464844 74.253906 89.585938 74 C 89.824219 73.523438 89.691406 72.917969 89.269531 72.535156 C 88.855469 72.15625 88.265625 72.089844 87.863281 72.375 C 87.550781 72.597656 87.335938 73.050781 87.335938 73.480469 C 87.335938 73.925781 87.4375 74.207031 87.703125 74.515625 C 88.074219 74.945312 88.425781 75.054688 88.765625 74.839844 Z M 90.816406 78.933594 C 92.160156 78.726562 93.171875 78.429688 94.398438 77.875 C 95.292969 77.464844 95.601562 77.367188 95.964844 77.367188 C 96.46875 77.367188 96.644531 77.578125 96.734375 78.273438 C 96.792969 78.703125 96.871094 78.820312 97.199219 78.933594 C 97.363281 78.992188 96.90625 79.003906 93.878906 78.996094 C 90.761719 78.996094 90.421875 78.988281 90.816406 78.933594 Z M 65.695312 75.457031 C 65.695312 75.410156 66.09375 75.121094 66.121094 75.144531 C 66.136719 75.160156 66.046875 75.238281 65.921875 75.328125 C 65.800781 75.410156 65.695312 75.472656 65.695312 75.457031 Z M 63.488281 74.488281 C 63.207031 74.359375 62.917969 74.054688 62.75 73.707031 C 62.636719 73.472656 62.605469 73.335938 62.59375 73.015625 C 62.574219 72.515625 62.664062 72.324219 62.980469 72.144531 C 63.179688 72.03125 63.25 72.023438 63.820312 72.023438 C 64.382812 72.023438 64.457031 72.03125 64.679688 72.144531 C 64.8125 72.214844 64.988281 72.359375 65.074219 72.464844 C 65.214844 72.636719 65.226562 72.683594 65.226562 73.03125 C 65.226562 73.488281 65.148438 73.671875 64.796875 74.058594 C 64.523438 74.363281 64.128906 74.582031 63.871094 74.582031 C 63.773438 74.582031 63.601562 74.539062 63.488281 74.488281 Z M 18.382812 71.921875 C 17.691406 71.847656 17.097656 71.71875 16.003906 71.398438 C 14.425781 70.941406 12.640625 70.210938 12.375 69.917969 C 12.285156 69.8125 12.285156 69.8125 12.445312 69.714844 C 12.796875 69.5 13.683594 69.210938 16.320312 68.464844 C 17.84375 68.03125 19.453125 67.550781 20.542969 67.199219 C 24.511719 65.917969 27.3125 64.976562 30.375 63.890625 C 30.933594 63.691406 31.945312 63.332031 32.621094 63.09375 C 35.191406 62.1875 39.328125 60.679688 42.082031 59.65625 C 44.101562 58.898438 51.929688 56.199219 53.804688 55.605469 C 54.554688 55.367188 54.695312 55.339844 54.761719 55.398438 C 55.226562 55.78125 58.792969 61.105469 59.410156 62.328125 C 59.78125 63.070312 59.796875 63.296875 59.480469 63.601562 C 59.25 63.824219 59.125 63.890625 58.914062 63.890625 C 58.6875 63.890625 58.457031 63.667969 58.023438 63.011719 C 57.351562 61.996094 56.902344 61.648438 56.6875 61.960938 C 56.507812 62.214844 56.613281 62.910156 56.957031 63.847656 C 57.148438 64.363281 57.160156 64.40625 57.101562 64.601562 C 56.984375 64.988281 56.34375 65.480469 55.960938 65.480469 C 55.722656 65.480469 55.554688 65.328125 55.140625 64.703125 C 54.546875 63.8125 54.085938 63.394531 53.695312 63.394531 C 53.5 63.394531 53.347656 63.59375 53.347656 63.851562 C 53.347656 64.175781 53.636719 64.832031 54.050781 65.457031 C 54.332031 65.875 54.355469 66.152344 54.128906 66.511719 C 53.933594 66.816406 51.976562 68.953125 51.9375 68.902344 C 51.933594 68.890625 51.8125 68.472656 51.675781 67.957031 C 51.3125 66.609375 51.019531 66.097656 50.507812 65.90625 C 50.292969 65.820312 50.265625 65.820312 49.65625 65.925781 C 48.796875 66.070312 46.882812 66.589844 45.070312 67.171875 C 43.851562 67.566406 42.359375 68.007812 40.289062 68.589844 C 39.136719 68.914062 36.152344 69.644531 34.820312 69.933594 C 34.097656 70.085938 32.632812 70.414062 31.558594 70.65625 C 27.699219 71.542969 27.179688 71.628906 24.324219 71.878906 C 23.0625 71.988281 19.261719 72.015625 18.382812 71.921875 Z M 34.910156 66.691406 C 35.535156 65.570312 36.5 63.4375 36.5 63.167969 C 36.5 62.996094 35.820312 63.144531 34.359375 63.636719 C 33.066406 64.082031 31.742188 64.652344 31.503906 64.867188 C 31.3125 65.039062 31.535156 65.261719 32.226562 65.585938 C 32.84375 65.871094 33.027344 66.011719 33.777344 66.746094 L 34.433594 67.398438 L 34.550781 67.261719 C 34.613281 67.1875 34.773438 66.929688 34.910156 66.691406 Z M 38.035156 66.078125 C 40.507812 65.824219 43.679688 65.019531 43.753906 64.628906 C 43.789062 64.40625 42.902344 63.691406 41.820312 63.070312 C 40.832031 62.503906 39.628906 62 39.246094 62 C 38.988281 62 38.339844 62.957031 37.679688 64.292969 C 37.175781 65.308594 36.941406 65.949219 37.019531 66.078125 C 37.058594 66.144531 37.390625 66.144531 38.035156 66.078125 Z M 45.867188 63.65625 C 46.359375 63.023438 48.257812 59.300781 48.144531 59.1875 C 48.023438 59.066406 42.921875 60.40625 42.320312 60.710938 C 42.214844 60.769531 42.097656 60.867188 42.050781 60.933594 C 41.828125 61.277344 42.410156 61.933594 43.539062 62.625 C 44.007812 62.910156 45.632812 63.742188 45.734375 63.742188 C 45.773438 63.742188 45.832031 63.703125 45.867188 63.65625 Z M 66.234375 71.488281 C 65.707031 70.816406 65.382812 70.160156 65.300781 69.570312 C 65.273438 69.375 65.214844 69.113281 65.171875 68.980469 C 65.054688 68.613281 64.589844 67.746094 64.269531 67.269531 C 63.078125 65.535156 62.664062 64.855469 61.90625 63.417969 C 61.046875 61.777344 60.289062 60.515625 59.308594 59.117188 C 58.472656 57.925781 55.621094 53.359375 55.269531 52.652344 C 54.882812 51.882812 54.371094 50.136719 54.117188 48.699219 C 53.808594 46.996094 53.75 45.855469 53.929688 45.097656 C 54.171875 44.085938 54.71875 42.789062 55.050781 42.449219 C 55.328125 42.167969 55.597656 42.097656 56.359375 42.121094 C 56.898438 42.132812 57.007812 42.152344 57.09375 42.230469 C 57.234375 42.355469 57.226562 42.441406 57.054688 42.953125 C 56.78125 43.773438 56.640625 45.273438 56.640625 47.382812 C 56.640625 49.285156 56.703125 49.828125 56.996094 50.433594 C 57.59375 51.660156 58.824219 52.488281 60.398438 52.726562 C 61.320312 52.867188 62.132812 52.789062 63.039062 52.472656 C 63.300781 52.378906 63.574219 52.304688 63.644531 52.304688 C 64.023438 52.304688 64.496094 52.742188 65.097656 53.636719 C 65.648438 54.457031 65.664062 54.734375 65.246094 55.605469 C 64.820312 56.484375 64.859375 56.710938 65.675781 57.847656 C 66.425781 58.898438 66.558594 59.335938 66.269531 59.835938 C 66.191406 59.96875 65.933594 60.285156 65.695312 60.542969 C 65.453125 60.804688 65.222656 61.097656 65.175781 61.191406 C 65.03125 61.503906 65.09375 61.820312 65.535156 62.902344 C 66.03125 64.105469 66.558594 65.671875 66.652344 66.226562 C 66.835938 67.300781 66.867188 69.039062 66.730469 70.820312 C 66.679688 71.453125 66.617188 71.699219 66.5 71.734375 C 66.472656 71.742188 66.347656 71.632812 66.234375 71.488281 Z M 60.753906 65.359375 C 60.660156 65.289062 60.558594 65.234375 60.523438 65.234375 C 60.433594 65.234375 60.445312 65.148438 60.539062 65.117188 C 60.667969 65.0625 60.6875 65.074219 60.824219 65.285156 C 60.894531 65.394531 60.949219 65.480469 60.945312 65.480469 C 60.933594 65.476562 60.847656 65.421875 60.753906 65.359375 Z M 60.753906 65.359375 "
    />
    <path
      d="M 78.632812 65.121094 C 78.503906 65.035156 78.394531 64.855469 78.144531 64.359375 C 77.675781 63.414062 77.371094 63.050781 76.628906 62.5625 C 75.382812 61.746094 73.792969 61.359375 71.648438 61.355469 C 70.824219 61.351562 70.253906 61.269531 69.914062 61.101562 C 69.597656 60.953125 69.113281 60.480469 68.714844 59.941406 C 68.117188 59.136719 66.980469 57.4375 66.851562 57.152344 C 66.5 56.382812 66.648438 55.964844 68.007812 53.90625 C 68.945312 52.472656 69.464844 51.839844 70.242188 51.171875 C 70.679688 50.796875 71.144531 50.558594 72.375 50.097656 C 73.746094 49.582031 74.996094 49.296875 75.113281 49.476562 C 75.164062 49.570312 75.140625 49.914062 75.054688 50.179688 C 74.933594 50.558594 74.53125 51.359375 74.207031 51.851562 C 73.8125 52.464844 73.558594 52.78125 72.972656 53.414062 C 72.378906 54.050781 72.023438 54.527344 71.808594 54.980469 C 71.605469 55.414062 71.632812 55.707031 71.933594 56.34375 C 72.558594 57.644531 73.863281 58.949219 74.535156 58.929688 C 75.007812 58.917969 77.136719 58.238281 80.097656 57.152344 C 83.113281 56.042969 84.507812 55.636719 85.265625 55.636719 C 85.746094 55.636719 85.890625 55.6875 86.101562 55.917969 C 86.394531 56.234375 86.652344 56.804688 87.257812 58.496094 C 87.800781 60.011719 87.875 60.269531 87.828125 60.46875 C 87.71875 60.9375 87.394531 61.421875 86.65625 62.214844 C 85.679688 63.269531 85.273438 63.871094 85.207031 64.390625 C 85.140625 64.839844 85.054688 64.855469 84.246094 64.578125 C 83.878906 64.453125 83.699219 64.425781 83.199219 64.398438 C 82.402344 64.363281 82.097656 64.417969 80.488281 64.867188 C 79.75 65.070312 79.074219 65.234375 78.976562 65.234375 C 78.875 65.234375 78.726562 65.183594 78.632812 65.121094 Z M 78.632812 65.121094 "
    />
    <path
      d="M 74.054688 56.820312 C 73.921875 56.671875 73.496094 55.800781 73.355469 55.375 C 73.261719 55.105469 73.25 55.015625 73.292969 54.914062 C 73.429688 54.605469 75.046875 53.496094 78.203125 51.542969 C 78.851562 51.140625 79.160156 50.691406 79.230469 50.050781 C 79.296875 49.472656 79.476562 49.386719 80.304688 49.546875 C 81.316406 49.738281 81.796875 49.585938 82.546875 48.820312 C 83.132812 48.222656 83.542969 47.496094 83.625 46.914062 C 83.683594 46.484375 83.828125 46.300781 84.296875 46.027344 C 84.699219 45.792969 85.1875 45.609375 86.074219 45.339844 C 86.875 45.105469 88.71875 44.636719 89.40625 44.503906 C 90.773438 44.234375 90.832031 44.230469 92.050781 44.226562 C 93.335938 44.226562 93.742188 44.277344 94.601562 44.574219 C 95.125 44.757812 96.917969 45.5625 96.878906 45.597656 C 96.859375 45.617188 96.421875 45.757812 95.90625 45.914062 C 94.824219 46.238281 94.179688 46.539062 93.558594 47 C 92.210938 48.003906 91.378906 49.175781 91.0625 50.515625 C 90.832031 51.492188 90.609375 51.65625 88.832031 52.125 C 86.910156 52.632812 85.164062 53.195312 81.75 54.410156 C 80.082031 55 74.296875 56.929688 74.191406 56.929688 C 74.171875 56.929688 74.113281 56.878906 74.054688 56.820312 Z M 95.585938 55.652344 C 94.441406 55.476562 93.535156 54.734375 93.113281 53.632812 C 92.871094 53.007812 92.804688 52.609375 92.804688 51.78125 C 92.796875 50.90625 92.902344 50.390625 93.203125 49.777344 C 93.433594 49.296875 93.984375 48.722656 94.457031 48.457031 C 95.199219 48.042969 96.15625 47.828125 97.273438 47.828125 C 98.3125 47.828125 98.804688 47.976562 99.242188 48.421875 C 99.796875 48.976562 99.996094 49.703125 100 51.160156 C 100 51.933594 99.980469 52.15625 99.890625 52.539062 C 99.765625 53.097656 99.519531 53.675781 99.253906 54.074219 C 99.011719 54.433594 98.507812 54.925781 98.195312 55.109375 C 97.5 55.511719 96.300781 55.765625 95.585938 55.652344 Z M 66.367188 52.753906 C 65.652344 51.980469 64.40625 49.4375 64.160156 48.246094 C 64.066406 47.78125 64.121094 47.617188 64.5 47.230469 C 64.867188 46.863281 65.566406 46.378906 65.902344 46.257812 C 66.476562 46.054688 66.878906 46.449219 67.761719 48.054688 C 68.210938 48.875 68.328125 49.300781 68.335938 50.066406 C 68.339844 50.585938 68.320312 50.75 68.222656 51.0625 C 68.046875 51.632812 67.734375 52.226562 67.433594 52.558594 C 66.957031 53.089844 66.722656 53.136719 66.367188 52.753906 Z M 76.519531 50.558594 C 76.492188 50.46875 76.464844 50.242188 76.464844 50.046875 C 76.464844 49.855469 76.441406 49.441406 76.414062 49.132812 C 76.347656 48.257812 76.199219 48.03125 75.421875 47.625 C 74.574219 47.179688 74.042969 46.453125 73.125 44.464844 C 72.519531 43.152344 72.511719 43.132812 72.609375 43.058594 C 73.03125 42.738281 74.453125 42.109375 74.761719 42.109375 C 75.175781 42.109375 76.347656 44.320312 77.058594 46.433594 C 77.265625 47.046875 77.789062 48.976562 77.882812 49.480469 C 77.957031 49.871094 77.664062 50.308594 77.148438 50.570312 C 76.761719 50.765625 76.589844 50.765625 76.519531 50.558594 Z M 69.828125 49.164062 C 69.664062 48.9375 69.578125 48.753906 69.300781 48.058594 C 68.800781 46.777344 68.425781 45.433594 68.484375 45.109375 C 68.585938 44.574219 69.664062 43.539062 70.316406 43.355469 C 70.527344 43.296875 70.546875 43.296875 70.667969 43.410156 C 71.144531 43.863281 72.9375 47.246094 72.839844 47.511719 C 72.78125 47.664062 71.441406 48.566406 70.539062 49.058594 C 70.003906 49.351562 69.976562 49.355469 69.828125 49.164062 Z M 80.34375 48.09375 C 79.738281 47.769531 79.222656 46.804688 78.460938 44.527344 C 78.089844 43.421875 77.976562 42.917969 78.007812 42.480469 C 78.019531 42.210938 78.046875 42.140625 78.171875 42.011719 C 78.335938 41.832031 78.699219 41.714844 79.0625 41.714844 C 79.40625 41.714844 79.710938 41.921875 80.058594 42.382812 C 80.960938 43.59375 81.703125 45.578125 81.703125 46.785156 C 81.703125 47.347656 81.621094 47.566406 81.308594 47.84375 C 80.953125 48.171875 80.640625 48.25 80.34375 48.09375 Z M 59.25 45.234375 C 58.808594 45.074219 58.566406 44.660156 58.566406 44.074219 C 58.566406 43.648438 58.683594 43.359375 58.988281 43.027344 C 59.515625 42.445312 60.253906 42.46875 60.714844 43.085938 C 61.183594 43.703125 61.148438 44.304688 60.609375 44.847656 C 60.21875 45.238281 59.6875 45.386719 59.25 45.234375 Z M 80.96875 40.894531 C 80.789062 40.722656 80.789062 40.722656 80.917969 40.71875 C 81.011719 40.71875 81.058594 40.757812 81.125 40.894531 C 81.167969 40.988281 81.191406 41.066406 81.183594 41.066406 C 81.167969 41.066406 81.074219 40.988281 80.96875 40.894531 Z M 45.640625 40.570312 C 45.515625 40.550781 45.460938 40.53125 45.515625 40.523438 C 45.6875 40.511719 46.019531 40.335938 46.226562 40.140625 L 46.433594 39.957031 L 46.324219 40.226562 C 46.273438 40.375 46.210938 40.523438 46.199219 40.558594 C 46.171875 40.625 46.003906 40.625 45.640625 40.570312 Z M 20.605469 39.707031 C 20.167969 39.507812 19.476562 38.589844 19.085938 37.703125 C 18.25 35.785156 18.128906 33.925781 18.808594 33.472656 C 19.40625 33.070312 20.277344 33.699219 20.890625 34.976562 C 21.15625 35.523438 21.304688 35.957031 21.53125 36.863281 C 21.617188 37.195312 21.78125 37.753906 21.902344 38.121094 C 22.027344 38.480469 22.125 38.859375 22.125 38.964844 C 22.125 39.207031 21.980469 39.4375 21.730469 39.605469 C 21.558594 39.71875 21.457031 39.746094 21.148438 39.757812 C 20.886719 39.769531 20.714844 39.753906 20.605469 39.707031 Z M 42.675781 39.300781 C 42.675781 39.292969 42.808594 38.777344 42.972656 38.152344 C 43.617188 35.683594 43.785156 34.519531 43.667969 33.308594 C 43.492188 31.53125 42.785156 30.355469 41.292969 29.351562 C 40.28125 28.675781 39.410156 28.414062 38.570312 28.53125 C 38.070312 28.601562 37.839844 28.679688 37.023438 29.070312 C 36.648438 29.25 36.242188 29.40625 36.128906 29.421875 C 35.9375 29.441406 35.902344 29.425781 35.730469 29.25 C 35.488281 29.003906 34.972656 28.140625 34.765625 27.617188 C 34.542969 27.070312 34.539062 26.503906 34.742188 25.777344 C 34.914062 25.15625 34.921875 24.703125 34.773438 24.300781 C 34.644531 23.957031 34.242188 23.324219 33.664062 22.570312 C 33.433594 22.261719 33.238281 22 33.238281 21.976562 C 33.242188 21.964844 33.402344 21.824219 33.597656 21.671875 C 34.265625 21.15625 34.710938 20.734375 34.816406 20.515625 C 35.039062 20.058594 34.90625 19.441406 34.285156 18.039062 C 33.488281 16.21875 33.214844 14.84375 33.039062 11.625 C 32.972656 10.5 32.988281 9.875 33.078125 9.785156 C 33.289062 9.570312 34.132812 10.46875 34.5 11.304688 C 34.5625 11.449219 34.6875 11.816406 34.773438 12.105469 C 34.972656 12.820312 35.535156 13.960938 36.085938 14.789062 C 37.382812 16.726562 37.667969 17.207031 37.808594 17.621094 C 37.984375 18.128906 38.734375 19.371094 40.304688 21.75 C 41.667969 23.808594 42.183594 24.632812 42.945312 25.925781 C 43.265625 26.472656 43.714844 27.234375 43.933594 27.617188 C 44.8125 29.113281 45.308594 30.324219 45.683594 31.886719 C 46.0625 33.464844 46.1875 35.167969 46.011719 36.34375 C 45.816406 37.644531 45.296875 38.75 44.753906 39.027344 C 44.515625 39.140625 44.410156 39.164062 43.539062 39.253906 C 42.726562 39.332031 42.675781 39.335938 42.675781 39.300781 Z M 24.851562 39.078125 C 24.625 38.9375 24.417969 38.621094 24.085938 37.894531 C 23.472656 36.550781 23.039062 35.324219 22.414062 33.210938 C 21.957031 31.640625 21.960938 31.6875 22.230469 31.394531 C 22.433594 31.171875 22.964844 30.875 23.429688 30.722656 C 23.585938 30.675781 23.625 30.675781 23.691406 30.738281 C 23.753906 30.804688 23.75 30.875 23.65625 31.347656 C 23.5625 31.808594 23.554688 31.921875 23.605469 32.199219 C 23.765625 33.140625 24.453125 33.941406 25.195312 34.058594 C 25.359375 34.085938 25.539062 34.128906 25.582031 34.15625 C 25.714844 34.230469 25.8125 34.40625 25.847656 34.667969 C 25.914062 35.097656 26.242188 35.882812 26.742188 36.789062 C 27.097656 37.441406 27.261719 37.882812 27.261719 38.203125 C 27.261719 38.398438 27.242188 38.441406 27.078125 38.578125 C 26.878906 38.746094 26.378906 38.945312 25.804688 39.082031 C 25.300781 39.203125 25.054688 39.203125 24.851562 39.078125 Z M 24.851562 39.078125 "
    />
    <path
      d="M 39.691406 38.757812 C 39.410156 38.65625 39.160156 38.425781 39.019531 38.152344 C 38.839844 37.800781 38.847656 37.265625 39.035156 36.917969 C 39.300781 36.417969 39.636719 36.15625 40.0625 36.113281 C 40.777344 36.039062 41.265625 36.78125 41.171875 37.804688 C 41.132812 38.257812 40.980469 38.566406 40.738281 38.6875 C 40.496094 38.820312 39.945312 38.855469 39.691406 38.757812 Z M 29.273438 37.875 C 28.746094 37.214844 27.476562 35.074219 27.1875 34.359375 C 26.984375 33.867188 26.984375 33.871094 27.730469 33.375 C 28.640625 32.761719 29.59375 32.316406 29.984375 32.316406 C 30.417969 32.316406 30.550781 32.46875 30.621094 33.050781 C 30.679688 33.589844 30.847656 34.078125 31.292969 35.011719 C 31.5 35.4375 31.675781 35.875 31.695312 35.984375 C 31.738281 36.332031 31.53125 36.617188 30.75 37.265625 C 30.175781 37.730469 29.660156 38.085938 29.53125 38.085938 C 29.480469 38.085938 29.367188 37.988281 29.273438 37.875 Z M 6.828125 37.164062 C 5.496094 36.890625 3.648438 36.21875 3.402344 35.921875 C 3.308594 35.808594 3.375 35.761719 3.78125 35.703125 C 4.828125 35.542969 6.609375 34.5625 7.5 33.65625 C 7.859375 33.300781 7.976562 33.136719 8.253906 32.613281 C 8.539062 32.070312 8.761719 31.585938 9.078125 30.800781 C 9.191406 30.503906 9.601562 30.128906 10.058594 29.886719 C 10.582031 29.613281 11.625 29.238281 13.292969 28.714844 C 15.078125 28.152344 17.285156 27.433594 20.496094 26.347656 C 23.082031 25.472656 23.773438 25.269531 24.570312 25.125 C 25.59375 24.945312 26.164062 25.136719 26.429688 25.742188 C 26.515625 25.925781 26.523438 25.980469 26.464844 26.140625 C 26.292969 26.691406 25.421875 27.730469 24.457031 28.535156 C 23.929688 28.984375 23.519531 29.214844 23.152344 29.285156 C 22.617188 29.386719 22.007812 29.789062 21.410156 30.4375 C 20.929688 30.953125 20.746094 31.277344 20.6875 31.699219 C 20.617188 32.246094 20.605469 32.265625 20.460938 32.265625 C 20.390625 32.265625 20.175781 32.175781 19.988281 32.066406 C 19.457031 31.757812 19.132812 31.703125 18.636719 31.839844 C 18.210938 31.953125 17.871094 32.164062 17.457031 32.589844 C 16.992188 33.050781 16.71875 33.53125 16.523438 34.230469 C 16.214844 35.292969 15.984375 35.511719 14.738281 35.910156 C 12.710938 36.5625 8.929688 37.304688 7.699219 37.28125 C 7.523438 37.28125 7.132812 37.230469 6.828125 37.164062 Z M 33.597656 35.246094 C 33.199219 35.046875 32.542969 34.105469 32.097656 33.113281 C 31.707031 32.230469 31.601562 31.605469 31.730469 30.972656 C 31.914062 30.0625 32.953125 28.488281 33.367188 28.488281 C 33.625 28.488281 34.285156 29.601562 35.183594 31.53125 C 36.074219 33.449219 36.070312 33.644531 35.136719 34.582031 C 34.441406 35.285156 34.019531 35.464844 33.597656 35.246094 Z M 1.992188 33.886719 C 0.925781 33.589844 0.367188 33.050781 0.109375 32.089844 C -0.0585938 31.457031 -0.03125 29.910156 0.167969 28.796875 C 0.441406 27.285156 1.210938 26.363281 2.523438 25.980469 C 3.125 25.808594 3.574219 25.773438 4.121094 25.871094 C 5.4375 26.101562 6.597656 26.835938 7.0625 27.730469 C 7.308594 28.214844 7.304688 30.046875 7.058594 30.992188 C 6.746094 32.164062 6.078125 32.863281 4.625 33.523438 C 3.53125 34.019531 2.8125 34.121094 1.992188 33.886719 Z M 1.992188 33.886719 "
    />
    <path
      d="M 25.132812 32.234375 C 25.082031 32.175781 25.0625 32.007812 25.0625 31.648438 C 25.0625 31.230469 25.089844 31.074219 25.207031 30.710938 C 25.472656 29.878906 25.972656 29.167969 27.175781 27.910156 C 27.96875 27.070312 28.472656 26.453125 28.589844 26.164062 C 28.644531 26.03125 28.640625 25.980469 28.550781 25.78125 C 28.292969 25.183594 27.4375 24.039062 26.789062 23.410156 C 26.148438 22.800781 25.65625 22.515625 25.089844 22.445312 C 24.738281 22.398438 24.457031 22.5 23.984375 22.816406 C 23.519531 23.132812 23.25 23.242188 20.667969 24.113281 C 19.472656 24.515625 17.851562 25.078125 17.0625 25.355469 C 15.46875 25.914062 14.566406 26.195312 14.195312 26.234375 L 13.945312 26.257812 L 13.632812 25.472656 C 13.460938 25.035156 13.199219 24.351562 13.054688 23.941406 C 12.90625 23.535156 12.582031 22.667969 12.34375 22.023438 C 12.09375 21.371094 11.898438 20.824219 11.898438 20.800781 C 11.898438 20.777344 12.339844 20.3125 12.875 19.765625 C 14.183594 18.433594 14.625 17.792969 14.707031 17.113281 C 14.773438 16.589844 14.871094 16.558594 15.691406 16.828125 C 16.933594 17.222656 17.558594 17.179688 20.183594 16.496094 C 20.820312 16.328125 21.347656 16.207031 21.351562 16.210938 C 21.359375 16.21875 21.558594 16.578125 21.804688 17 C 22.347656 17.964844 22.566406 18.28125 22.992188 18.695312 C 23.371094 19.058594 23.738281 19.292969 24.296875 19.523438 C 25.066406 19.839844 25.871094 19.96875 27.484375 20.035156 C 28.988281 20.09375 29.347656 20.148438 29.972656 20.4375 C 30.53125 20.691406 31.632812 21.917969 32.597656 23.355469 C 33.140625 24.164062 33.402344 24.667969 33.402344 24.914062 C 33.402344 25.546875 31.445312 28.503906 30.058594 29.964844 C 29.386719 30.675781 28.582031 31.171875 27.941406 31.269531 C 27.484375 31.339844 26.855469 31.574219 26.125 31.945312 C 25.398438 32.304688 25.230469 32.355469 25.132812 32.234375 Z M 45.261719 26.199219 C 45.070312 26.125 44.675781 25.617188 44.285156 24.949219 C 43.816406 24.160156 42.644531 22.382812 41.929688 21.382812 C 40.402344 19.257812 40.089844 18.726562 40.117188 18.3125 C 40.128906 18.082031 40.136719 18.074219 40.425781 17.914062 C 40.96875 17.613281 41.394531 17.636719 41.695312 17.996094 C 41.789062 18.101562 41.96875 18.386719 42.097656 18.628906 C 42.566406 19.53125 42.933594 19.820312 43.21875 19.511719 C 43.46875 19.242188 43.386719 18.496094 43.015625 17.707031 C 42.753906 17.144531 42.753906 16.949219 43.019531 16.699219 C 43.132812 16.597656 43.386719 16.429688 43.589844 16.328125 C 44.191406 16.019531 44.457031 16.105469 44.898438 16.753906 C 45.128906 17.09375 45.289062 17.410156 45.363281 17.664062 C 45.40625 17.820312 45.460938 17.890625 45.589844 17.957031 C 45.882812 18.105469 46.375 18.042969 46.476562 17.84375 C 46.601562 17.613281 46.484375 17.054688 46.152344 16.324219 C 45.816406 15.574219 45.832031 15.273438 46.257812 14.636719 C 46.488281 14.296875 47.839844 12.726562 48.074219 12.53125 C 48.179688 12.445312 48.148438 12.351562 48.429688 13.644531 C 48.757812 15.105469 48.875 15.386719 49.226562 15.539062 C 49.527344 15.667969 50.289062 15.597656 51.609375 15.335938 C 52.535156 15.144531 53.019531 15.007812 54.65625 14.453125 C 55.472656 14.179688 56.703125 13.792969 57.398438 13.59375 C 62.710938 12.058594 71.335938 10.136719 75.773438 9.507812 C 76.648438 9.382812 76.871094 9.367188 78.195312 9.367188 C 79.683594 9.367188 80.371094 9.417969 81.480469 9.597656 C 83.066406 9.855469 84.429688 10.203125 85.59375 10.640625 C 86.230469 10.878906 87.957031 11.644531 88.039062 11.722656 C 88.058594 11.746094 87.144531 12.066406 86.015625 12.441406 C 83.628906 13.226562 82.796875 13.464844 81.726562 13.675781 C 80.679688 13.871094 77.707031 14.84375 71.871094 16.875 C 70.878906 17.222656 69.46875 17.710938 68.734375 17.96875 C 62.988281 19.96875 57.320312 22.027344 55.9375 22.609375 C 55.03125 22.992188 53.773438 23.441406 50.679688 24.484375 C 49.117188 25.011719 47.324219 25.625 46.695312 25.847656 C 45.539062 26.253906 45.445312 26.273438 45.261719 26.199219 Z M 54.085938 21.867188 C 55.050781 21.59375 56.265625 21.226562 56.78125 21.050781 C 58.296875 20.539062 58.363281 20.5 58.105469 20.222656 C 57.53125 19.609375 54.808594 18.042969 54.320312 18.042969 C 54.109375 18.042969 53.808594 18.441406 53.246094 19.460938 C 53.058594 19.800781 51.824219 22.285156 51.761719 22.453125 L 51.71875 22.558594 L 52.027344 22.464844 C 52.195312 22.410156 53.121094 22.144531 54.085938 21.867188 Z M 60.929688 19.367188 C 61.359375 19.167969 61.726562 18.664062 62.140625 17.707031 C 62.523438 16.8125 62.871094 15.625 62.800781 15.433594 C 62.738281 15.269531 61.613281 15.386719 59.992188 15.738281 C 58.308594 16.101562 56.519531 16.601562 56.285156 16.777344 C 56.195312 16.851562 56.199219 16.863281 56.433594 17.105469 C 56.734375 17.414062 57.519531 18 58.394531 18.578125 C 59.699219 19.425781 60.359375 19.636719 60.929688 19.367188 Z M 63.847656 18.390625 C 64.605469 18.238281 65.351562 18.023438 66.238281 17.71875 C 67.023438 17.449219 68.550781 16.832031 68.621094 16.761719 C 68.65625 16.722656 66.957031 15.304688 66.316406 14.84375 C 65.839844 14.492188 65.65625 14.40625 65.535156 14.46875 C 65.449219 14.519531 64.914062 15.304688 64.6875 15.722656 C 64.25 16.527344 63.273438 18.492188 63.3125 18.492188 C 63.34375 18.492188 63.582031 18.449219 63.847656 18.390625 Z M 63.847656 18.390625 "
    />
    <path
      d="M 10.191406 18.648438 C 10.085938 18.597656 9.871094 18.421875 9.71875 18.257812 C 9.140625 17.625 8.667969 16.789062 7.015625 13.46875 C 5.125 9.664062 4.15625 7.566406 4.105469 7.148438 C 4.039062 6.558594 4.546875 6.15625 6.863281 4.988281 C 8.917969 3.953125 10.816406 3.230469 12.746094 2.757812 C 14.082031 2.433594 15.628906 2.3125 16.109375 2.496094 C 16.820312 2.773438 17.335938 3.878906 19.53125 9.816406 C 19.78125 10.5 20.203125 11.617188 20.464844 12.296875 C 20.726562 12.976562 20.9375 13.597656 20.9375 13.675781 C 20.9375 14.015625 20.320312 14.414062 19.121094 14.859375 C 18.375 15.132812 17.714844 15.246094 17.289062 15.171875 C 16.25 14.992188 15.433594 14.121094 14.074219 11.75 C 13.53125 10.808594 13.472656 10.726562 13.210938 10.445312 C 12.964844 10.183594 12.796875 10.089844 12.566406 10.089844 C 12.207031 10.089844 12.046875 10.410156 12.046875 11.136719 C 12.046875 11.753906 12.164062 12.351562 12.539062 13.640625 C 12.949219 15.050781 13.050781 15.515625 13.050781 16.0625 C 13.042969 16.78125 12.839844 17.125 11.933594 17.949219 C 11.113281 18.695312 10.671875 18.871094 10.191406 18.648438 Z M 11.769531 9.089844 C 12.25 8.96875 12.554688 8.542969 12.554688 7.992188 C 12.554688 7.4375 12.25 7.050781 11.699219 6.90625 C 10.984375 6.71875 10.351562 7.230469 10.351562 7.996094 C 10.351562 8.328125 10.488281 8.75 10.644531 8.898438 C 10.875 9.121094 11.339844 9.199219 11.769531 9.089844 Z M 35.742188 9.84375 C 35.59375 9.765625 35.417969 9.664062 35.363281 9.617188 C 35.191406 9.457031 35.058594 9.007812 35.046875 8.546875 C 35.039062 7.765625 35.234375 7.394531 35.699219 7.328125 C 36.015625 7.285156 36.410156 7.335938 36.671875 7.449219 C 37.433594 7.785156 37.640625 9.03125 37.023438 9.578125 C 36.832031 9.746094 36.253906 10 36.082031 9.988281 C 36.054688 9.984375 35.902344 9.921875 35.742188 9.84375 Z M 31.757812 8.554688 C 31.757812 8.421875 31.777344 8.398438 31.878906 8.398438 C 31.949219 8.398438 32.003906 8.417969 32.003906 8.4375 C 32.003906 8.460938 31.949219 8.53125 31.878906 8.597656 L 31.757812 8.710938 Z M 3.96875 4.28125 C 3.574219 4.035156 3.144531 3.40625 2.496094 2.109375 C 2.070312 1.265625 1.726562 0.710938 1.425781 0.402344 C 1.199219 0.164062 1.191406 0.171875 1.722656 0.0898438 C 2.238281 0.00390625 10.839844 -0.0351562 12.269531 0.0429688 C 13.59375 0.113281 13.652344 0.128906 13.175781 0.265625 C 12.972656 0.332031 12.609375 0.480469 12.367188 0.605469 C 11.816406 0.882812 10.785156 1.347656 9.527344 1.882812 C 9 2.109375 8.199219 2.449219 7.75 2.640625 C 6.574219 3.140625 5.292969 3.777344 5.007812 4.007812 C 4.539062 4.386719 4.261719 4.453125 3.96875 4.28125 Z M 3.96875 4.28125 "
    />
  </g>
</svg>
