<svg xmlns="http://www.w3.org/2000/svg" id="root" viewBox="0 0 99 92">
  <path
    d="M 53.65625 46 L 53.65625 32.976562 C 53.65625 32.839844 55.3125 32.730469 57.320312 32.679688 L 60.984375 32.597656 L 60.984375 33.414062 C 60.984375 34.535156 61.636719 35.082031 62.914062 35.082031 L 63.972656 35.082031 L 63.972656 38.4375 C 63.972656 42.449219 64.136719 42.75 66.550781 42.941406 L 68.046875 43.078125 L 67.992188 50.886719 L 67.910156 58.695312 L 60.796875 58.777344 L 53.65625 58.832031 Z M 34.375 57.902344 C 34.375 47.9375 34.265625 46.792969 33.289062 45.699219 C 32.746094 45.152344 32.257812 44.90625 31.6875 44.90625 L 30.847656 44.90625 L 30.847656 24.980469 L 45.644531 24.980469 L 45.671875 45.453125 L 45.671875 65.929688 L 34.375 65.929688 Z M 39.832031 42.640625 C 41.082031 41.796875 41.246094 40.457031 40.214844 39.339844 C 39.589844 38.65625 39.34375 38.574219 38.421875 38.710938 C 36.492188 38.957031 35.625 40.375 36.414062 41.90625 C 37.171875 43.378906 38.367188 43.652344 39.832031 42.640625 Z M 40.078125 34.042969 C 40.757812 33.167969 40.757812 32.078125 40.078125 31.175781 C 39.472656 30.308594 38.3125 30.035156 37.390625 30.546875 C 36.519531 31.011719 36.277344 31.476562 36.277344 32.703125 C 36.304688 34.835938 38.800781 35.707031 40.078125 34.042969 Z M 33.941406 28.199219 C 34.160156 27.820312 34.132812 27.628906 33.777344 27.273438 C 32.964844 26.453125 31.742188 27.519531 32.476562 28.417969 C 32.910156 28.910156 33.535156 28.828125 33.941406 28.199219 Z M 34.375 72.097656 L 34.375 68.660156 L 40.023438 68.714844 L 45.644531 68.796875 L 45.726562 72.015625 L 45.808594 75.210938 L 40.703125 75.210938 C 37.90625 75.210938 35.324219 75.292969 35 75.375 C 34.375 75.539062 34.375 75.539062 34.375 72.097656 Z M 91.886719 61.425781 L 91.804688 43.488281 L 91.804688 40.675781 L 93.296875 40.59375 C 94.113281 40.566406 94.925781 40.621094 95.0625 40.730469 C 95.253906 40.867188 95.28125 47.011719 95.199219 58.695312 L 95.0625 76.4375 L 93.515625 76.519531 L 91.941406 76.601562 Z M 79.449219 59.894531 C 79.449219 50.667969 79.367188 42.695312 79.285156 42.179688 L 79.125 41.195312 L 81.8125 40.867188 C 83.277344 40.675781 85.859375 40.539062 87.542969 40.539062 L 90.582031 40.539062 L 90.582031 76.300781 L 85.449219 76.300781 C 82.625 76.300781 80.128906 76.382812 79.882812 76.464844 C 79.503906 76.628906 79.449219 75.046875 79.449219 59.894531 Z M 87.132812 71.089844 C 88.300781 70.460938 88.492188 69.230469 87.542969 68.550781 C 86.699219 67.949219 86.320312 68.003906 85.558594 68.796875 C 84.746094 69.585938 84.71875 70.132812 85.421875 70.84375 C 86.046875 71.46875 86.320312 71.496094 87.132812 71.089844 Z M 87.703125 63.144531 C 87.949219 62.816406 88.140625 62.378906 88.140625 62.1875 C 88.140625 61.726562 87.132812 60.742188 86.671875 60.742188 C 85.640625 60.742188 84.988281 62.652344 85.75 63.417969 C 86.265625 63.9375 87.242188 63.800781 87.703125 63.144531 Z M 87.542969 56.59375 C 87.730469 56.402344 87.867188 55.9375 87.867188 55.554688 C 87.867188 54.652344 87.40625 54.191406 86.507812 54.191406 C 85.667969 54.191406 85.152344 54.652344 85.152344 55.390625 C 85.152344 56.566406 86.753906 57.382812 87.542969 56.59375 Z M 34.375 78.867188 L 34.375 78.078125 L 40.757812 78.160156 C 46.894531 78.242188 47.136719 78.242188 47.136719 78.757812 C 47.136719 79.277344 46.921875 79.304688 41.191406 79.304688 C 37.90625 79.304688 35.054688 79.386719 34.808594 79.46875 C 34.484375 79.605469 34.375 79.46875 34.375 78.867188 Z M 4.15625 79.386719 C 4.074219 79.25 3.964844 72.015625 3.9375 63.308594 L 3.882812 47.5 L 14.527344 47.417969 L 25.144531 47.363281 L 25.144531 79.304688 L 15.722656 79.304688 C 10.507812 79.304688 5.839844 79.386719 5.292969 79.46875 C 4.75 79.578125 4.234375 79.523438 4.15625 79.386719 Z M 23.351562 76.738281 C 23.597656 76.382812 23.542969 76.195312 23.160156 75.894531 C 22.210938 75.183594 21.371094 76.222656 22.210938 77.066406 C 22.617188 77.476562 22.972656 77.367188 23.351562 76.738281 Z M 9.449219 70.378906 C 9.992188 69.886719 10.101562 68.386719 9.613281 67.894531 C 8.769531 67.046875 6.953125 68.140625 6.953125 69.503906 C 6.953125 70.734375 8.472656 71.28125 9.449219 70.378906 Z M 18.628906 68.523438 C 19.0625 68.277344 19.605469 67.730469 19.847656 67.292969 C 21.316406 64.425781 18.355469 60.824219 15.667969 62.214844 C 13.578125 63.308594 13.386719 67.019531 15.367188 68.578125 C 15.9375 69.039062 17.675781 69.011719 18.628906 68.523438 Z M 9.339844 63.855469 C 9.828125 63.527344 9.9375 63.199219 9.882812 62.433594 C 9.828125 61.617188 9.667969 61.398438 9.070312 61.179688 C 7.546875 60.632812 6.488281 62.925781 7.820312 63.855469 C 8.582031 64.398438 8.582031 64.398438 9.339844 63.855469 Z M 69.375 73.027344 L 69.292969 62.625 C 69.292969 62.160156 69.402344 61.726562 69.539062 61.699219 C 69.703125 61.644531 71.359375 61.535156 73.285156 61.425781 L 76.734375 61.261719 L 76.734375 82.582031 L 69.402344 82.582031 Z M 71.683594 65.21875 C 72.226562 65 72.253906 63.9375 71.738281 63.5 C 70.871094 62.761719 70 64.234375 70.816406 65.054688 C 71.195312 65.4375 71.140625 65.4375 71.683594 65.21875 Z M 53.65625 72.125 L 53.65625 61.5625 L 60.796875 61.617188 L 67.910156 61.699219 L 67.800781 72.070312 C 67.773438 77.777344 67.691406 82.472656 67.664062 82.5 L 60.632812 82.636719 L 53.65625 82.71875 Z M 26.5 67.976562 L 26.5 47.335938 L 28.671875 47.417969 L 30.820312 47.5 L 30.953125 67.429688 C 31.035156 78.40625 31.171875 87.632812 31.28125 87.988281 C 31.441406 88.585938 31.417969 88.585938 28.972656 88.585938 L 26.5 88.585938 Z M 4.019531 84.628906 C 4.074219 82.445312 4.179688 80.671875 4.316406 80.671875 L 25.144531 80.671875 L 25.144531 88.585938 L 3.9375 88.585938 Z M 23.785156 84.355469 C 24.328125 83.671875 24.003906 82.992188 23.105469 82.992188 C 22.265625 82.992188 21.941406 83.535156 22.265625 84.382812 C 22.457031 84.875 23.351562 84.875 23.785156 84.355469 Z M 75.757812 89.296875 C 75.511719 88.613281 75.894531 88.316406 76.980469 88.316406 C 77.601562 88.316406 78.28125 88.097656 78.664062 87.796875 C 79.285156 87.277344 79.3125 87.140625 79.394531 82.472656 L 79.476562 77.667969 L 95.199219 77.667969 L 95.226562 81.433594 C 95.253906 83.484375 95.226562 85.558594 95.199219 86.046875 C 95.144531 87.167969 95.933594 87.632812 97.535156 87.386719 C 98.78125 87.222656 99 87.441406 99 88.832031 L 99 89.597656 L 87.460938 89.652344 C 77.386719 89.707031 75.894531 89.652344 75.757812 89.296875 Z M 0.0820312 91.535156 C 0 91.289062 0 91.042969 0.0273438 90.988281 C 0.0820312 90.933594 7.820312 90.933594 17.242188 90.988281 C 33.289062 91.042969 34.375 91.070312 34.375 91.535156 C 34.375 91.972656 33.316406 92 17.296875 92 C 1.464844 92 0.191406 91.972656 0.0820312 91.535156 Z M 0.0820312 91.535156 "
  />
  <path
    d="M 69.265625 58.476562 C 69.1875 58.285156 69.160156 54.761719 69.1875 50.640625 L 69.265625 43.132812 L 70.355469 43.050781 C 72.035156 42.941406 72.582031 42.777344 72.796875 42.261719 C 72.90625 41.988281 73.070312 40.347656 73.175781 38.628906 L 73.339844 35.488281 L 74.617188 35.570312 C 75.675781 35.625 75.945312 35.542969 76.300781 35.027344 C 76.542969 34.699219 76.734375 33.960938 76.734375 33.386719 L 76.734375 32.351562 L 80.265625 32.351562 C 82.21875 32.351562 83.875 32.324219 84.011719 32.296875 C 84.121094 32.242188 84.230469 32.542969 84.28125 32.976562 C 84.363281 33.632812 84.28125 33.714844 83.578125 33.714844 C 82.136719 33.714844 81.621094 34.425781 81.433594 36.664062 L 81.269531 38.628906 L 79.828125 38.628906 C 78.714844 38.628906 78.226562 38.765625 77.628906 39.285156 L 76.871094 39.941406 L 76.707031 58.832031 L 73.042969 58.832031 C 70.355469 58.832031 69.347656 58.75 69.265625 58.476562 Z M 72.363281 56.183594 C 72.714844 55.5 72.253906 54.734375 71.46875 54.734375 C 70.707031 54.734375 70.378906 55.390625 70.761719 56.128906 C 71.113281 56.785156 72.011719 56.8125 72.363281 56.183594 Z M 20.609375 35.027344 L 20.773438 25.117188 L 25.117188 25.035156 L 29.488281 24.980469 L 29.488281 44.90625 L 20.472656 44.90625 Z M 27.75 28.390625 C 27.941406 27.898438 27.398438 27.164062 26.855469 27.164062 C 26.394531 27.164062 26.121094 27.820312 26.339844 28.390625 C 26.527344 28.9375 27.558594 28.910156 27.75 28.390625 Z M 66.417969 37.15625 C 66.417969 33.796875 66.417969 33.742188 65.710938 33.195312 C 65.304688 32.867188 64.625 32.625 64.21875 32.625 C 63.511719 32.625 63.429688 32.542969 63.429688 31.667969 L 63.375 30.519531 C 63.320312 30.382812 64.082031 30.222656 65.003906 30.113281 C 65.953125 30.003906 66.878906 29.785156 67.066406 29.648438 C 67.285156 29.484375 68.617188 29.429688 70.707031 29.539062 L 74.019531 29.703125 L 74.019531 33.085938 L 72.660156 33.222656 C 70.570312 33.441406 70.488281 33.578125 70.488281 37.292969 L 70.488281 40.539062 L 66.417969 40.539062 Z M 66.417969 37.15625 "
  />
  <path
    d="M 83.25 37.484375 C 83.25 35.871094 83.792969 35.625 87.242188 35.625 C 89.847656 35.625 90.285156 35.679688 90.71875 36.171875 C 91.042969 36.527344 91.125 36.910156 91.015625 37.402344 C 90.855469 38 90.71875 38.082031 89.523438 38.082031 C 88.816406 38.082031 87.105469 38.164062 85.75 38.246094 L 83.25 38.4375 Z M 86.507812 20.285156 C 86.507812 7.234375 86.292969 2.648438 85.667969 1.882812 C 85.421875 1.582031 84.011719 1.5 77.929688 1.5 L 70.515625 1.5 L 69.808594 2.183594 L 69.132812 2.894531 L 69.132812 22.550781 L 68.261719 22.46875 L 67.367188 22.386719 L 67.203125 17.199219 C 67.121094 14.359375 66.933594 11.574219 66.796875 11.054688 L 66.523438 10.101562 L 58.976562 10.019531 C 52 9.964844 51.453125 9.910156 51.535156 9.472656 C 51.617188 9.035156 52.269531 9.007812 59.167969 8.925781 L 66.6875 8.871094 L 66.6875 7.015625 C 66.6875 6.007812 66.769531 4.011719 66.851562 2.59375 L 67.039062 0 L 88.03125 0 L 88.03125 33.441406 L 86.507812 33.441406 Z M 67.421875 26.726562 C 67.3125 26.617188 67.230469 26.234375 67.230469 25.878906 C 67.230469 25.335938 67.367188 25.253906 68.207031 25.253906 C 69.105469 25.253906 69.160156 25.308594 69.078125 26.015625 C 69.023438 26.5625 68.832031 26.78125 68.316406 26.835938 C 67.9375 26.890625 67.53125 26.835938 67.421875 26.726562 Z M 27.777344 22.058594 C 27.722656 21.921875 27.695312 21.402344 27.722656 20.882812 C 27.777344 20.09375 27.886719 19.929688 28.347656 19.957031 L 33.289062 20.011719 L 37.632812 20.066406 L 37.632812 22.25 L 32.773438 22.25 C 30.085938 22.25 27.832031 22.167969 27.777344 22.058594 Z M 31.796875 13.375 L 31.796875 8.871094 L 40.566406 8.871094 C 49.121094 8.871094 49.308594 8.871094 49.308594 9.417969 C 49.308594 9.9375 49.121094 9.964844 42.46875 9.964844 C 38.691406 9.964844 35.324219 10.046875 35 10.128906 C 34.132812 10.375 33.832031 11.574219 33.832031 14.90625 L 33.832031 17.882812 L 31.796875 17.882812 Z M 31.796875 13.375 "
  />
</svg>
