<svg xmlns="http://www.w3.org/2000/svg" id="root" viewBox="0 0 99 51">
  <g>
    <path
      d="M 32.058594 50.792969 C 31.953125 50.679688 31.871094 50.542969 31.871094 50.496094 C 31.871094 50.453125 31.816406 50.367188 31.757812 50.316406 C 31.695312 50.261719 31.644531 50.140625 31.644531 50.039062 C 31.644531 49.949219 31.613281 49.84375 31.570312 49.820312 C 31.53125 49.796875 31.492188 49.691406 31.492188 49.59375 C 31.492188 49.492188 31.464844 49.386719 31.417969 49.363281 C 31.378906 49.339844 31.34375 49.167969 31.34375 48.984375 C 31.34375 48.800781 31.3125 48.628906 31.265625 48.605469 C 31.167969 48.542969 31.167969 46.421875 31.257812 46.316406 C 31.296875 46.277344 31.351562 46.097656 31.371094 45.90625 C 31.464844 45.152344 31.507812 44.917969 31.574219 44.871094 C 31.613281 44.851562 31.644531 44.75 31.644531 44.660156 C 31.644531 44.5625 31.695312 44.4375 31.757812 44.386719 C 31.816406 44.332031 31.871094 44.226562 31.871094 44.152344 C 31.871094 43.945312 32.503906 42.554688 32.976562 41.726562 C 33.445312 40.914062 33.558594 40.730469 33.738281 40.511719 C 33.828125 40.394531 33.902344 40.265625 33.902344 40.230469 C 33.902344 40.128906 35.605469 38.457031 35.703125 38.457031 C 35.75 38.457031 35.910156 38.320312 36.058594 38.152344 C 36.210938 37.988281 36.449219 37.773438 36.601562 37.683594 C 36.757812 37.589844 36.96875 37.417969 37.082031 37.300781 C 37.1875 37.1875 37.332031 37.089844 37.390625 37.089844 C 37.453125 37.089844 37.542969 37.035156 37.597656 36.976562 C 37.707031 36.839844 38.25 36.457031 38.445312 36.382812 C 38.558594 36.34375 38.574219 36.230469 38.574219 35.570312 C 38.574219 35.097656 38.613281 34.742188 38.664062 34.632812 C 38.816406 34.367188 39.277344 33.898438 39.382812 33.898438 C 39.515625 33.898438 39.503906 33.972656 39.34375 34.117188 C 38.890625 34.519531 38.824219 35.007812 39.171875 35.257812 C 39.480469 35.476562 39.726562 35.457031 40.042969 35.183594 C 40.445312 34.824219 40.558594 34.566406 40.429688 34.316406 C 40.300781 34.070312 40.089844 33.90625 39.910156 33.898438 C 39.726562 33.898438 39.789062 33.714844 39.976562 33.683594 C 40.15625 33.660156 40.773438 33.925781 40.910156 34.085938 C 41.054688 34.261719 41.527344 34.230469 41.664062 34.050781 C 41.726562 33.964844 41.816406 33.898438 41.859375 33.898438 C 41.914062 33.898438 42.054688 33.8125 42.175781 33.707031 C 42.304688 33.601562 42.425781 33.515625 42.464844 33.515625 C 42.492188 33.515625 42.597656 33.441406 42.6875 33.359375 C 42.785156 33.265625 42.929688 33.152344 43.003906 33.105469 C 43.503906 32.816406 43.925781 32.476562 43.925781 32.363281 C 43.925781 32.246094 43.5625 31.921875 43.441406 31.921875 C 43.417969 31.921875 43.230469 31.808594 43.035156 31.679688 C 42.839844 31.542969 42.621094 31.398438 42.5625 31.351562 C 42.492188 31.3125 42.296875 31.183594 42.132812 31.070312 C 41.957031 30.949219 41.769531 30.855469 41.703125 30.855469 C 41.640625 30.855469 41.589844 30.835938 41.589844 30.804688 C 41.589844 30.765625 41.515625 30.703125 41.414062 30.660156 C 41.324219 30.613281 41.097656 30.492188 40.910156 30.394531 C 40.722656 30.300781 40.421875 30.195312 40.234375 30.164062 C 40.042969 30.128906 39.726562 30.066406 39.515625 30.019531 C 39.3125 29.976562 39.019531 29.914062 38.875 29.890625 C 38.734375 29.867188 38.539062 29.800781 38.445312 29.738281 C 38.355469 29.679688 38.234375 29.640625 38.183594 29.664062 C 38.128906 29.679688 37.972656 29.648438 37.828125 29.59375 C 37.695312 29.535156 37.496094 29.488281 37.398438 29.488281 C 37.308594 29.488281 37.203125 29.457031 37.179688 29.414062 C 37.160156 29.375 36.984375 29.335938 36.804688 29.335938 C 36.625 29.335938 36.449219 29.304688 36.429688 29.261719 C 36.40625 29.222656 36.230469 29.183594 36.042969 29.183594 C 35.863281 29.183594 35.710938 29.15625 35.710938 29.109375 C 35.710938 29.070312 35.5625 29.03125 35.378906 29.03125 C 35.191406 29.03125 35.019531 29.003906 34.996094 28.957031 C 34.972656 28.917969 34.800781 28.878906 34.628906 28.878906 C 34.4375 28.878906 34.265625 28.835938 34.214844 28.773438 C 34.160156 28.714844 33.964844 28.644531 33.769531 28.628906 C 33.574219 28.605469 33.226562 28.546875 33 28.5 C 32.773438 28.457031 32.417969 28.394531 32.207031 28.363281 C 32.003906 28.324219 31.757812 28.265625 31.667969 28.210938 C 31.574219 28.160156 31.363281 28.121094 31.199219 28.121094 C 31.035156 28.121094 30.875 28.089844 30.851562 28.042969 C 30.832031 28.007812 30.625 27.96875 30.410156 27.96875 C 30.195312 27.96875 29.984375 27.9375 29.949219 27.898438 C 29.902344 27.863281 29.667969 27.808594 29.421875 27.785156 C 28.410156 27.695312 28.132812 27.65625 27.988281 27.589844 C 27.90625 27.550781 27.636719 27.503906 27.386719 27.480469 C 26.46875 27.40625 25.796875 27.308594 25.683594 27.238281 C 25.625 27.199219 25.324219 27.148438 25.015625 27.109375 C 24.703125 27.078125 24.148438 27.019531 23.769531 26.980469 C 23.402344 26.933594 22.792969 26.875 22.414062 26.84375 C 22.046875 26.8125 21.660156 26.746094 21.570312 26.691406 C 21.472656 26.640625 21.125 26.601562 20.6875 26.601562 C 20.296875 26.601562 19.949219 26.570312 19.929688 26.523438 C 19.898438 26.480469 19.46875 26.449219 18.878906 26.449219 C 18.339844 26.449219 17.855469 26.417969 17.8125 26.371094 C 17.773438 26.335938 17.132812 26.28125 16.386719 26.257812 C 14.601562 26.199219 2.539062 26.199219 1.109375 26.257812 L 0 26.304688 L 0 26.015625 C 0 25.773438 0.0546875 25.6875 0.285156 25.5 C 0.4375 25.371094 0.671875 25.226562 0.792969 25.164062 C 0.917969 25.109375 1.078125 25.035156 1.144531 24.996094 C 1.21875 24.957031 1.339844 24.929688 1.425781 24.929688 C 1.5 24.929688 1.605469 24.875 1.65625 24.816406 C 1.710938 24.753906 1.816406 24.699219 1.890625 24.699219 C 1.964844 24.699219 2.050781 24.671875 2.070312 24.625 C 2.09375 24.585938 2.199219 24.546875 2.296875 24.546875 C 2.394531 24.546875 2.5 24.519531 2.523438 24.472656 C 2.546875 24.433594 2.683594 24.398438 2.816406 24.398438 C 2.960938 24.398438 3.113281 24.34375 3.164062 24.28125 C 3.21875 24.222656 3.351562 24.167969 3.472656 24.167969 C 3.585938 24.167969 3.707031 24.136719 3.730469 24.09375 C 3.753906 24.054688 3.910156 24.015625 4.074219 24.015625 C 4.234375 24.015625 4.371094 23.984375 4.371094 23.941406 C 4.371094 23.902344 4.503906 23.863281 4.664062 23.863281 C 4.828125 23.863281 4.988281 23.835938 5.011719 23.789062 C 5.03125 23.75 5.191406 23.710938 5.347656 23.710938 C 5.507812 23.710938 5.664062 23.683594 5.6875 23.636719 C 5.710938 23.597656 5.898438 23.558594 6.101562 23.558594 C 6.304688 23.558594 6.496094 23.523438 6.515625 23.484375 C 6.539062 23.445312 6.726562 23.410156 6.925781 23.410156 C 7.148438 23.410156 7.324219 23.363281 7.375 23.300781 C 7.457031 23.203125 7.640625 23.171875 8.816406 23.058594 C 9.085938 23.035156 9.335938 22.984375 9.371094 22.945312 C 9.417969 22.90625 9.675781 22.875 9.953125 22.875 C 10.300781 22.875 10.480469 22.839844 10.539062 22.769531 C 10.636719 22.648438 11.234375 22.601562 13.367188 22.527344 C 14.148438 22.503906 14.59375 22.519531 14.648438 22.574219 C 14.691406 22.617188 15.144531 22.648438 15.777344 22.648438 C 16.554688 22.65625 16.890625 22.6875 17.027344 22.761719 C 17.15625 22.839844 17.472656 22.867188 18.050781 22.875 C 18.503906 22.875 18.910156 22.90625 18.957031 22.945312 C 18.992188 22.984375 19.363281 23.035156 19.777344 23.058594 C 21.15625 23.128906 21.917969 23.21875 22.015625 23.316406 C 22.066406 23.371094 22.316406 23.410156 22.648438 23.410156 C 22.949219 23.410156 23.21875 23.445312 23.242188 23.484375 C 23.265625 23.53125 23.523438 23.558594 23.808594 23.558594 C 24.09375 23.558594 24.351562 23.597656 24.375 23.636719 C 24.394531 23.683594 24.621094 23.710938 24.863281 23.710938 C 25.105469 23.710938 25.332031 23.75 25.351562 23.789062 C 25.375 23.835938 25.59375 23.863281 25.835938 23.863281 C 26.070312 23.863281 26.292969 23.894531 26.339844 23.933594 C 26.378906 23.972656 26.597656 24.023438 26.820312 24.046875 C 27.792969 24.160156 27.953125 24.191406 28.035156 24.289062 C 28.085938 24.351562 28.261719 24.398438 28.472656 24.398438 C 28.667969 24.398438 28.855469 24.425781 28.902344 24.464844 C 28.9375 24.503906 29.105469 24.554688 29.269531 24.578125 C 29.4375 24.601562 29.722656 24.640625 29.910156 24.671875 C 30.097656 24.699219 30.316406 24.769531 30.402344 24.820312 C 30.484375 24.882812 30.65625 24.929688 30.792969 24.929688 C 30.921875 24.929688 31.054688 24.964844 31.078125 25.003906 C 31.101562 25.050781 31.238281 25.082031 31.378906 25.082031 C 31.523438 25.082031 31.660156 25.117188 31.679688 25.15625 C 31.703125 25.203125 31.839844 25.234375 31.984375 25.234375 C 32.125 25.234375 32.261719 25.269531 32.285156 25.308594 C 32.308594 25.355469 32.425781 25.382812 32.554688 25.382812 C 32.675781 25.382812 32.835938 25.414062 32.910156 25.453125 C 33.144531 25.566406 33.574219 25.6875 33.769531 25.6875 C 33.875 25.6875 34.003906 25.734375 34.046875 25.796875 C 34.09375 25.855469 34.234375 25.925781 34.355469 25.945312 C 34.484375 25.96875 34.679688 26.015625 34.808594 26.039062 C 34.929688 26.0625 35.0625 26.128906 35.109375 26.183594 C 35.15625 26.234375 35.253906 26.265625 35.328125 26.242188 C 35.394531 26.226562 35.5 26.265625 35.554688 26.328125 C 35.613281 26.394531 35.75 26.449219 35.871094 26.449219 C 35.984375 26.449219 36.105469 26.488281 36.125 26.523438 C 36.148438 26.570312 36.238281 26.601562 36.324219 26.601562 C 36.398438 26.601562 36.535156 26.640625 36.617188 26.675781 C 36.699219 26.722656 36.835938 26.789062 36.917969 26.828125 C 37 26.875 37.136719 26.90625 37.210938 26.90625 C 37.292969 26.90625 37.386719 26.941406 37.40625 26.980469 C 37.429688 27.027344 37.519531 27.058594 37.601562 27.058594 C 37.6875 27.058594 37.90625 27.140625 38.09375 27.246094 C 38.28125 27.351562 38.476562 27.4375 38.539062 27.4375 C 38.597656 27.4375 38.792969 27.519531 38.980469 27.625 C 39.171875 27.734375 39.367188 27.816406 39.425781 27.816406 C 39.488281 27.816406 39.734375 27.921875 39.96875 28.042969 C 40.203125 28.175781 40.4375 28.273438 40.488281 28.273438 C 40.617188 28.273438 41.191406 28.5625 41.25 28.644531 C 41.355469 28.828125 41.792969 28.957031 42.273438 28.957031 C 42.554688 28.957031 42.808594 28.996094 42.832031 29.03125 C 42.863281 29.078125 43.253906 29.109375 43.765625 29.109375 C 44.390625 29.109375 44.738281 29.148438 44.925781 29.222656 C 45.109375 29.300781 45.453125 29.335938 45.964844 29.335938 C 46.394531 29.335938 46.847656 29.375 46.984375 29.429688 C 47.316406 29.550781 47.511719 29.441406 48.167969 28.8125 C 48.664062 28.320312 48.671875 28.3125 48.671875 27.90625 C 48.671875 27.6875 48.625 27.414062 48.566406 27.292969 C 48.429688 27.035156 48.519531 26.820312 48.703125 26.972656 C 48.769531 27.035156 48.988281 27.070312 49.222656 27.070312 C 49.554688 27.0625 49.636719 27.027344 49.777344 26.851562 C 49.996094 26.585938 49.996094 26.335938 49.785156 26.191406 C 49.660156 26.097656 49.644531 26.046875 49.703125 25.984375 C 49.769531 25.917969 49.863281 25.9375 50.066406 26.097656 C 50.207031 26.214844 50.328125 26.28125 50.328125 26.25 C 50.328125 26.21875 50.425781 26.289062 50.546875 26.402344 C 50.917969 26.761719 50.945312 26.675781 50.9375 25.421875 C 50.925781 24.257812 50.886719 24.09375 50.621094 24.09375 C 50.539062 24.09375 50.480469 24.0625 50.480469 24.015625 C 50.480469 23.976562 50.410156 23.941406 50.328125 23.941406 C 50.246094 23.941406 50.179688 23.910156 50.179688 23.863281 C 50.179688 23.828125 50.101562 23.789062 50.003906 23.789062 C 49.90625 23.789062 49.765625 23.734375 49.679688 23.675781 C 49.605469 23.613281 49.476562 23.558594 49.410156 23.558594 C 49.335938 23.558594 49.273438 23.53125 49.273438 23.484375 C 49.273438 23.445312 49.175781 23.410156 49.046875 23.410156 C 48.925781 23.410156 48.820312 23.378906 48.820312 23.332031 C 48.820312 23.292969 48.738281 23.257812 48.648438 23.257812 C 48.550781 23.257812 48.445312 23.234375 48.414062 23.203125 C 48.347656 23.128906 47.828125 22.953125 47.683594 22.953125 C 47.617188 22.953125 47.519531 22.898438 47.464844 22.839844 C 47.414062 22.769531 47.316406 22.738281 47.253906 22.761719 C 47.195312 22.785156 47.097656 22.761719 47.042969 22.714844 C 46.945312 22.632812 46.703125 22.566406 46.070312 22.441406 C 45.953125 22.421875 45.808594 22.351562 45.746094 22.292969 C 45.695312 22.238281 45.613281 22.207031 45.574219 22.238281 C 45.53125 22.261719 45.425781 22.230469 45.332031 22.167969 C 45.175781 22.070312 44.996094 22.015625 44.390625 21.910156 C 44.257812 21.886719 44.128906 21.84375 44.105469 21.804688 C 44.082031 21.765625 43.953125 21.734375 43.8125 21.734375 C 43.667969 21.734375 43.53125 21.707031 43.511719 21.660156 C 43.488281 21.621094 43.34375 21.585938 43.203125 21.585938 C 43.058594 21.585938 42.945312 21.554688 42.945312 21.507812 C 42.945312 21.46875 42.816406 21.433594 42.667969 21.433594 C 42.507812 21.433594 42.3125 21.378906 42.238281 21.316406 C 42.152344 21.257812 41.972656 21.203125 41.835938 21.203125 C 41.703125 21.203125 41.589844 21.175781 41.589844 21.128906 C 41.589844 21.089844 41.453125 21.050781 41.296875 21.050781 C 41.128906 21.050781 40.972656 21.023438 40.949219 20.976562 C 40.925781 20.9375 40.773438 20.898438 40.617188 20.898438 C 40.464844 20.898438 40.300781 20.863281 40.261719 20.824219 C 40.179688 20.742188 39.636719 20.617188 39.050781 20.542969 C 38.871094 20.519531 38.726562 20.472656 38.726562 20.445312 C 38.726562 20.40625 38.53125 20.359375 38.296875 20.335938 C 37.203125 20.222656 37.070312 20.199219 37.070312 20.140625 C 37.070312 20.101562 36.863281 20.054688 36.617188 20.035156 C 36.367188 20.011719 35.953125 19.964844 35.695312 19.941406 C 35.441406 19.917969 35.164062 19.851562 35.078125 19.789062 C 34.980469 19.722656 34.734375 19.683594 34.429688 19.683594 C 34.160156 19.683594 33.902344 19.652344 33.859375 19.617188 C 33.820312 19.570312 33.4375 19.523438 33 19.5 C 31.839844 19.449219 31.386719 19.371094 31.359375 19.214844 C 31.34375 19.136719 31.378906 19.03125 31.433594 18.984375 C 31.589844 18.832031 32.34375 18.46875 32.496094 18.46875 C 32.570312 18.46875 32.722656 18.421875 32.835938 18.363281 C 33.414062 18.074219 38.703125 18.082031 39.230469 18.375 C 39.320312 18.421875 39.578125 18.46875 39.8125 18.46875 C 40.035156 18.46875 40.246094 18.5 40.269531 18.542969 C 40.292969 18.589844 40.480469 18.621094 40.675781 18.621094 C 40.886719 18.621094 41.078125 18.664062 41.128906 18.71875 C 41.175781 18.78125 41.304688 18.808594 41.421875 18.789062 C 41.542969 18.773438 41.746094 18.808594 41.875 18.878906 C 42.003906 18.945312 42.191406 19 42.304688 19 C 42.410156 19 42.492188 19.039062 42.492188 19.074219 C 42.492188 19.121094 42.605469 19.152344 42.75 19.152344 C 42.890625 19.152344 43.035156 19.191406 43.058594 19.226562 C 43.082031 19.273438 43.214844 19.304688 43.351562 19.304688 C 43.480469 19.304688 43.625 19.335938 43.667969 19.363281 C 43.707031 19.394531 43.871094 19.472656 44.039062 19.523438 C 44.203125 19.578125 44.421875 19.652344 44.527344 19.699219 C 44.910156 19.859375 45.25 20.003906 45.371094 20.070312 C 45.445312 20.109375 45.550781 20.140625 45.613281 20.140625 C 45.664062 20.140625 45.753906 20.195312 45.808594 20.253906 C 45.859375 20.324219 45.921875 20.359375 45.9375 20.335938 C 45.953125 20.324219 46.183594 20.429688 46.464844 20.566406 C 46.734375 20.710938 47.007812 20.824219 47.058594 20.824219 C 47.121094 20.824219 47.164062 20.863281 47.164062 20.898438 C 47.164062 20.945312 47.21875 20.976562 47.277344 20.976562 C 47.335938 20.976562 47.511719 21.050781 47.667969 21.136719 C 47.828125 21.226562 48.136719 21.394531 48.355469 21.507812 C 48.574219 21.628906 48.800781 21.757812 48.859375 21.8125 C 48.917969 21.867188 48.972656 21.886719 48.972656 21.859375 C 48.972656 21.804688 49.558594 22.109375 49.613281 22.191406 C 49.664062 22.285156 50.101562 22.496094 50.230469 22.496094 C 50.285156 22.496094 50.328125 22.535156 50.328125 22.574219 C 50.328125 22.617188 50.367188 22.648438 50.417969 22.648438 C 50.464844 22.648438 50.609375 22.722656 50.734375 22.824219 C 50.863281 22.921875 51.089844 23.058594 51.234375 23.136719 C 51.375 23.203125 51.601562 23.324219 51.722656 23.410156 C 51.851562 23.484375 52.023438 23.554688 52.121094 23.554688 C 52.210938 23.558594 52.355469 23.597656 52.4375 23.636719 C 52.519531 23.683594 52.65625 23.75 52.738281 23.789062 C 52.824219 23.835938 52.957031 23.863281 53.042969 23.863281 C 53.125 23.863281 53.191406 23.902344 53.191406 23.941406 C 53.191406 23.984375 53.273438 24.015625 53.371094 24.015625 C 53.46875 24.015625 53.703125 24.101562 53.878906 24.207031 C 54.367188 24.488281 54.691406 24.457031 55.480469 24.054688 C 55.851562 23.863281 56.199219 23.710938 56.25 23.710938 C 56.3125 23.710938 56.355469 23.683594 56.355469 23.636719 C 56.355469 23.597656 56.425781 23.558594 56.5 23.558594 C 56.582031 23.558594 56.65625 23.539062 56.671875 23.507812 C 56.6875 23.46875 56.832031 23.378906 56.996094 23.292969 C 57.164062 23.21875 57.480469 23.027344 57.695312 22.890625 C 58.074219 22.640625 58.105469 22.632812 58.230469 22.753906 C 58.367188 22.875 58.390625 22.875 58.683594 22.695312 C 58.851562 22.585938 59.039062 22.496094 59.105469 22.496094 C 59.167969 22.496094 59.21875 22.464844 59.21875 22.421875 C 59.21875 22.382812 59.265625 22.34375 59.324219 22.34375 C 59.429688 22.34375 60.242188 21.875 60.378906 21.734375 C 60.425781 21.691406 60.515625 21.660156 60.589844 21.660156 C 60.664062 21.660156 60.726562 21.628906 60.726562 21.585938 C 60.726562 21.546875 60.785156 21.507812 60.863281 21.507812 C 60.9375 21.507812 61.027344 21.476562 61.074219 21.441406 C 61.207031 21.316406 61.863281 20.976562 61.96875 20.976562 C 62.03125 20.976562 62.082031 20.945312 62.082031 20.898438 C 62.082031 20.863281 62.148438 20.824219 62.234375 20.824219 C 62.316406 20.824219 62.382812 20.792969 62.382812 20.75 C 62.382812 20.710938 62.429688 20.671875 62.488281 20.671875 C 62.550781 20.671875 62.773438 20.550781 62.992188 20.40625 C 63.21875 20.261719 63.4375 20.140625 63.484375 20.140625 C 63.535156 20.140625 63.589844 20.117188 63.605469 20.085938 C 63.632812 20.003906 65.035156 19.304688 65.15625 19.304688 C 65.203125 19.304688 65.246094 19.273438 65.246094 19.226562 C 65.246094 19.191406 65.3125 19.152344 65.398438 19.152344 C 65.480469 19.152344 65.546875 19.121094 65.546875 19.074219 C 65.546875 19.039062 65.601562 19 65.660156 19 C 65.730469 19 65.910156 18.917969 66.074219 18.808594 C 66.242188 18.703125 66.421875 18.621094 66.480469 18.621094 C 66.542969 18.621094 66.601562 18.597656 66.617188 18.566406 C 66.65625 18.476562 68.273438 17.691406 69.105469 17.359375 C 69.308594 17.28125 69.464844 17.191406 69.464844 17.160156 C 69.464844 17.121094 69.535156 17.101562 69.609375 17.101562 C 69.691406 17.101562 69.765625 17.078125 69.78125 17.046875 C 69.820312 16.957031 70.617188 16.566406 70.761719 16.566406 C 70.828125 16.566406 70.914062 16.539062 70.933594 16.492188 C 70.957031 16.453125 71.046875 16.414062 71.128906 16.414062 C 71.207031 16.414062 71.273438 16.386719 71.273438 16.339844 C 71.273438 16.300781 71.328125 16.265625 71.386719 16.265625 C 71.445312 16.265625 71.566406 16.226562 71.652344 16.1875 C 71.734375 16.148438 71.871094 16.082031 71.953125 16.035156 C 72.035156 15.996094 72.171875 15.960938 72.246094 15.960938 C 72.328125 15.960938 72.410156 15.929688 72.441406 15.890625 C 72.488281 15.808594 72.917969 15.578125 73.023438 15.578125 C 73.058594 15.578125 73.347656 15.457031 73.65625 15.3125 C 73.964844 15.167969 74.265625 15.046875 74.324219 15.046875 C 74.378906 15.046875 74.453125 15.011719 74.476562 14.972656 C 74.5 14.925781 74.589844 14.894531 74.671875 14.894531 C 74.746094 14.894531 74.882812 14.859375 74.964844 14.820312 C 75.046875 14.78125 75.183594 14.714844 75.265625 14.667969 C 75.351562 14.628906 75.5 14.589844 75.605469 14.589844 C 75.710938 14.589844 75.792969 14.5625 75.792969 14.515625 C 75.792969 14.476562 75.871094 14.441406 75.96875 14.441406 C 76.066406 14.441406 76.207031 14.386719 76.292969 14.324219 C 76.367188 14.265625 76.503906 14.210938 76.59375 14.210938 C 76.675781 14.210938 76.773438 14.179688 76.820312 14.152344 C 76.855469 14.113281 77.089844 14.023438 77.339844 13.945312 C 77.585938 13.871094 77.820312 13.785156 77.867188 13.75 C 77.902344 13.710938 78.03125 13.679688 78.144531 13.679688 C 78.257812 13.679688 78.355469 13.648438 78.355469 13.605469 C 78.355469 13.566406 78.453125 13.527344 78.574219 13.527344 C 78.703125 13.527344 78.824219 13.488281 78.847656 13.453125 C 78.867188 13.40625 78.988281 13.375 79.109375 13.375 C 79.230469 13.375 79.351562 13.335938 79.375 13.300781 C 79.394531 13.253906 79.554688 13.222656 79.71875 13.222656 C 79.878906 13.222656 80.015625 13.191406 80.015625 13.148438 C 80.015625 13.109375 80.105469 13.070312 80.210938 13.070312 C 80.316406 13.070312 80.464844 13.042969 80.542969 12.996094 C 80.617188 12.957031 80.8125 12.898438 80.96875 12.875 C 81.128906 12.851562 81.285156 12.796875 81.324219 12.761719 C 81.371094 12.722656 81.519531 12.691406 81.671875 12.691406 C 81.820312 12.691406 81.972656 12.660156 82.019531 12.625 C 82.054688 12.585938 82.222656 12.539062 82.386719 12.515625 C 83.140625 12.410156 83.578125 12.320312 83.652344 12.242188 C 83.699219 12.199219 83.929688 12.160156 84.164062 12.160156 C 84.40625 12.160156 84.625 12.121094 84.648438 12.082031 C 84.667969 12.046875 84.941406 12.007812 85.25 12.007812 C 85.558594 12.007812 85.832031 11.976562 85.851562 11.929688 C 85.882812 11.886719 86.253906 11.855469 86.71875 11.855469 C 87.1875 11.855469 87.554688 11.824219 87.585938 11.78125 C 87.617188 11.734375 88.007812 11.703125 88.527344 11.703125 C 89.425781 11.703125 89.507812 11.726562 89.507812 12.007812 C 89.507812 12.167969 89.03125 12.617188 88.867188 12.617188 C 88.769531 12.617188 88.664062 12.644531 88.640625 12.691406 C 88.617188 12.730469 88.496094 12.769531 88.375 12.769531 C 88.257812 12.769531 88.136719 12.796875 88.113281 12.84375 C 88.089844 12.882812 87.941406 12.917969 87.78125 12.917969 C 87.628906 12.917969 87.472656 12.949219 87.425781 12.988281 C 87.367188 13.054688 87.1875 13.078125 86.117188 13.191406 C 85.890625 13.214844 85.632812 13.285156 85.550781 13.34375 C 85.476562 13.40625 85.296875 13.453125 85.160156 13.453125 C 85.03125 13.453125 84.894531 13.488281 84.875 13.527344 C 84.851562 13.566406 84.691406 13.605469 84.535156 13.605469 C 84.375 13.605469 84.21875 13.640625 84.195312 13.679688 C 84.171875 13.726562 84.058594 13.753906 83.945312 13.753906 C 83.832031 13.761719 83.660156 13.808594 83.554688 13.871094 C 83.449219 13.929688 83.261719 13.976562 83.125 13.984375 C 82.996094 13.984375 82.863281 14.023438 82.839844 14.058594 C 82.816406 14.097656 82.679688 14.136719 82.539062 14.136719 C 82.394531 14.136719 82.257812 14.171875 82.234375 14.210938 C 82.214844 14.257812 82.054688 14.289062 81.898438 14.289062 C 81.738281 14.289062 81.582031 14.324219 81.558594 14.363281 C 81.535156 14.402344 81.378906 14.441406 81.210938 14.441406 C 81.054688 14.441406 80.917969 14.476562 80.917969 14.515625 C 80.917969 14.5625 80.835938 14.589844 80.738281 14.589844 C 80.640625 14.589844 80.4375 14.644531 80.285156 14.707031 C 80.132812 14.773438 79.976562 14.804688 79.929688 14.773438 C 79.886719 14.75 79.796875 14.78125 79.726562 14.84375 C 79.660156 14.902344 79.480469 14.972656 79.335938 14.996094 C 78.851562 15.070312 78.621094 15.140625 78.492188 15.253906 C 78.417969 15.320312 78.289062 15.351562 78.191406 15.328125 C 78.09375 15.304688 77.949219 15.335938 77.875 15.398438 C 77.792969 15.457031 77.648438 15.503906 77.558594 15.503906 C 77.460938 15.503906 77.363281 15.535156 77.339844 15.578125 C 77.316406 15.617188 77.195312 15.65625 77.074219 15.65625 C 76.953125 15.65625 76.835938 15.695312 76.8125 15.730469 C 76.789062 15.777344 76.652344 15.808594 76.511719 15.808594 C 76.367188 15.808594 76.230469 15.847656 76.207031 15.882812 C 76.1875 15.929688 76.066406 15.960938 75.945312 15.960938 C 75.824219 15.960938 75.703125 15.996094 75.679688 16.035156 C 75.660156 16.082031 75.5625 16.113281 75.464844 16.113281 C 75.371094 16.113281 75.265625 16.140625 75.230469 16.179688 C 75.183594 16.21875 74.882812 16.339844 74.550781 16.453125 C 73.917969 16.660156 73.699219 16.742188 73.367188 16.917969 C 73.261719 16.976562 73.121094 17.023438 73.050781 17.023438 C 72.984375 17.023438 72.863281 17.0625 72.78125 17.101562 C 72.699219 17.144531 72.5625 17.214844 72.480469 17.25 C 72.398438 17.296875 72.285156 17.328125 72.230469 17.328125 C 72.179688 17.328125 71.988281 17.394531 71.816406 17.480469 C 71.652344 17.5625 71.46875 17.632812 71.433594 17.632812 C 71.386719 17.632812 71.128906 17.753906 70.851562 17.898438 C 70.582031 18.042969 70.308594 18.164062 70.257812 18.164062 C 70.136719 18.164062 69.660156 18.40625 69.632812 18.492188 C 69.617188 18.519531 69.554688 18.542969 69.503906 18.542969 C 69.449219 18.542969 69.226562 18.644531 69.007812 18.757812 C 68.78125 18.871094 68.449219 19.015625 68.261719 19.074219 C 68.070312 19.128906 67.867188 19.214844 67.808594 19.257812 C 67.566406 19.433594 67.355469 19.53125 67.21875 19.53125 C 67.054688 19.53125 66.625 19.738281 66.566406 19.84375 C 66.535156 19.882812 66.460938 19.914062 66.382812 19.914062 C 66.316406 19.914062 66.113281 19.980469 65.941406 20.0625 C 65.773438 20.148438 65.5625 20.214844 65.480469 20.214844 C 65.398438 20.214844 65.308594 20.246094 65.285156 20.292969 C 65.261719 20.335938 65.171875 20.367188 65.089844 20.367188 C 65.011719 20.367188 64.945312 20.40625 64.945312 20.445312 C 64.945312 20.488281 64.878906 20.519531 64.792969 20.519531 C 64.710938 20.519531 64.644531 20.558594 64.644531 20.597656 C 64.644531 20.640625 64.582031 20.671875 64.507812 20.671875 C 64.433594 20.671875 64.042969 20.839844 63.632812 21.050781 C 63.226562 21.257812 62.84375 21.433594 62.789062 21.433594 C 62.738281 21.433594 62.570312 21.5 62.421875 21.585938 C 62.269531 21.667969 62.105469 21.734375 62.042969 21.734375 C 61.984375 21.734375 61.929688 21.773438 61.929688 21.8125 C 61.929688 21.859375 61.863281 21.886719 61.789062 21.886719 C 61.707031 21.886719 61.613281 21.925781 61.59375 21.964844 C 61.570312 22.011719 61.480469 22.039062 61.402344 22.039062 C 61.253906 22.039062 60.777344 22.269531 60.742188 22.367188 C 60.726562 22.398438 60.652344 22.421875 60.566406 22.421875 C 60.492188 22.421875 60.425781 22.457031 60.425781 22.496094 C 60.425781 22.542969 60.363281 22.574219 60.289062 22.574219 C 60.214844 22.574219 60.125 22.601562 60.085938 22.640625 C 59.941406 22.761719 59.285156 23.105469 59.179688 23.105469 C 59.121094 23.105469 59.070312 23.140625 59.070312 23.179688 C 59.070312 23.226562 59.023438 23.257812 58.96875 23.257812 C 58.917969 23.257812 58.730469 23.324219 58.554688 23.410156 C 58.390625 23.492188 58.179688 23.558594 58.105469 23.558594 C 58.019531 23.558594 57.914062 23.613281 57.863281 23.675781 C 57.808594 23.734375 57.742188 23.773438 57.710938 23.75 C 57.683594 23.734375 57.578125 23.804688 57.484375 23.902344 C 57.386719 24.007812 57.269531 24.09375 57.214844 24.09375 C 57.167969 24.09375 57.085938 24.144531 57.035156 24.207031 C 56.929688 24.335938 56.085938 24.929688 56.007812 24.929688 C 55.980469 24.929688 55.902344 24.988281 55.835938 25.066406 C 55.769531 25.132812 55.625 25.238281 55.511719 25.300781 C 55.21875 25.453125 55.1875 25.605469 55.429688 25.855469 C 55.59375 26.03125 55.691406 26.070312 55.988281 26.070312 C 56.183594 26.070312 56.371094 26.039062 56.394531 25.992188 C 56.417969 25.953125 56.5 25.917969 56.574219 25.917969 C 56.695312 25.917969 57.019531 25.789062 57.351562 25.605469 C 57.425781 25.566406 57.570312 25.535156 57.667969 25.535156 C 57.773438 25.535156 57.878906 25.507812 57.902344 25.460938 C 57.921875 25.421875 58.015625 25.382812 58.097656 25.382812 C 58.238281 25.382812 58.308594 25.355469 58.667969 25.171875 C 58.765625 25.117188 58.894531 25.082031 58.957031 25.082031 C 59.015625 25.082031 59.128906 25.050781 59.203125 25.011719 C 59.273438 24.972656 59.46875 24.882812 59.632812 24.816406 C 59.800781 24.746094 59.996094 24.664062 60.0625 24.625 C 60.136719 24.578125 60.265625 24.546875 60.339844 24.546875 C 60.425781 24.546875 60.515625 24.519531 60.539062 24.472656 C 60.558594 24.425781 60.636719 24.398438 60.695312 24.398438 C 60.757812 24.398438 60.976562 24.3125 61.191406 24.207031 C 61.402344 24.101562 61.644531 24.015625 61.714844 24.015625 C 61.789062 24.015625 61.871094 23.984375 61.894531 23.941406 C 61.917969 23.902344 62.035156 23.863281 62.164062 23.863281 C 62.285156 23.863281 62.382812 23.835938 62.382812 23.789062 C 62.382812 23.75 62.464844 23.710938 62.5625 23.710938 C 62.667969 23.710938 62.773438 23.683594 62.796875 23.636719 C 62.820312 23.597656 62.925781 23.558594 63.023438 23.558594 C 63.121094 23.558594 63.226562 23.53125 63.25 23.484375 C 63.273438 23.445312 63.378906 23.410156 63.46875 23.410156 C 63.566406 23.410156 63.6875 23.355469 63.738281 23.292969 C 63.792969 23.234375 63.882812 23.179688 63.949219 23.179688 C 64.085938 23.179688 64.546875 23.042969 64.734375 22.945312 C 64.808594 22.90625 64.921875 22.875 64.996094 22.875 C 65.066406 22.875 65.179688 22.832031 65.238281 22.777344 C 65.308594 22.722656 65.617188 22.59375 65.925781 22.503906 C 66.234375 22.40625 66.550781 22.296875 66.617188 22.261719 C 66.691406 22.222656 66.820312 22.191406 66.898438 22.191406 C 66.980469 22.191406 67.070312 22.160156 67.09375 22.117188 C 67.113281 22.078125 67.214844 22.039062 67.304688 22.039062 C 67.394531 22.039062 67.53125 21.988281 67.605469 21.933594 C 67.679688 21.875 67.800781 21.84375 67.875 21.867188 C 67.945312 21.878906 68.050781 21.84375 68.101562 21.78125 C 68.164062 21.714844 68.269531 21.660156 68.34375 21.660156 C 68.425781 21.660156 68.546875 21.628906 68.621094 21.59375 C 68.691406 21.554688 68.902344 21.484375 69.089844 21.433594 C 69.277344 21.378906 69.480469 21.3125 69.542969 21.273438 C 69.667969 21.195312 69.683594 21.1875 70.074219 21.058594 C 70.21875 21.015625 70.414062 20.976562 70.503906 20.976562 C 70.589844 20.976562 70.6875 20.9375 70.707031 20.898438 C 70.730469 20.863281 70.835938 20.824219 70.933594 20.824219 C 71.03125 20.824219 71.128906 20.792969 71.152344 20.753906 C 71.175781 20.71875 71.304688 20.671875 71.441406 20.648438 C 72.074219 20.535156 72.222656 20.496094 72.335938 20.398438 C 72.402344 20.335938 72.507812 20.308594 72.570312 20.332031 C 72.628906 20.351562 72.726562 20.324219 72.78125 20.253906 C 72.832031 20.195312 72.925781 20.140625 72.992188 20.140625 C 73.097656 20.140625 73.421875 20.050781 73.796875 19.914062 C 73.878906 19.882812 74.152344 19.796875 74.402344 19.722656 C 74.648438 19.652344 74.914062 19.5625 74.980469 19.523438 C 75.054688 19.488281 75.199219 19.457031 75.296875 19.457031 C 75.402344 19.457031 75.507812 19.425781 75.53125 19.378906 C 75.554688 19.34375 75.6875 19.304688 75.832031 19.304688 C 75.976562 19.304688 76.109375 19.273438 76.132812 19.226562 C 76.15625 19.191406 76.277344 19.152344 76.398438 19.152344 C 76.519531 19.152344 76.636719 19.121094 76.660156 19.074219 C 76.683594 19.03125 76.765625 19 76.839844 19 C 76.917969 19 77.082031 18.945312 77.195312 18.886719 C 77.316406 18.824219 77.503906 18.773438 77.617188 18.773438 C 77.730469 18.773438 77.84375 18.742188 77.867188 18.695312 C 77.890625 18.65625 78.007812 18.621094 78.128906 18.621094 C 78.25 18.621094 78.371094 18.589844 78.394531 18.542969 C 78.417969 18.507812 78.523438 18.46875 78.621094 18.46875 C 78.71875 18.46875 78.914062 18.421875 79.050781 18.363281 C 79.433594 18.203125 79.816406 18.089844 80 18.089844 C 80.082031 18.089844 80.179688 18.058594 80.203125 18.011719 C 80.226562 17.964844 80.359375 17.9375 80.503906 17.9375 C 80.648438 17.9375 80.78125 17.898438 80.804688 17.859375 C 80.828125 17.820312 80.964844 17.785156 81.105469 17.785156 C 81.25 17.785156 81.386719 17.753906 81.40625 17.707031 C 81.429688 17.671875 81.566406 17.632812 81.707031 17.632812 C 81.851562 17.632812 81.988281 17.59375 82.011719 17.554688 C 82.03125 17.511719 82.136719 17.480469 82.234375 17.480469 C 82.335938 17.480469 82.53125 17.433594 82.664062 17.375 C 83.074219 17.199219 83.441406 17.101562 83.652344 17.101562 C 83.757812 17.101562 83.871094 17.070312 83.894531 17.023438 C 83.917969 16.984375 84.050781 16.949219 84.179688 16.949219 C 84.316406 16.949219 84.488281 16.894531 84.5625 16.832031 C 84.648438 16.773438 84.820312 16.71875 84.957031 16.71875 C 85.089844 16.71875 85.226562 16.683594 85.25 16.644531 C 85.273438 16.605469 85.410156 16.566406 85.550781 16.566406 C 85.695312 16.566406 85.832031 16.539062 85.851562 16.492188 C 85.875 16.453125 86.011719 16.414062 86.152344 16.414062 C 86.296875 16.414062 86.433594 16.386719 86.457031 16.339844 C 86.476562 16.300781 86.636719 16.265625 86.792969 16.265625 C 86.953125 16.265625 87.109375 16.234375 87.132812 16.1875 C 87.15625 16.148438 87.292969 16.113281 87.433594 16.113281 C 87.578125 16.113281 87.714844 16.074219 87.734375 16.035156 C 87.757812 15.996094 87.894531 15.960938 88.023438 15.960938 C 88.160156 15.960938 88.332031 15.90625 88.40625 15.847656 C 88.488281 15.785156 88.664062 15.730469 88.796875 15.730469 C 88.933594 15.730469 89.070312 15.703125 89.09375 15.65625 C 89.113281 15.617188 89.273438 15.578125 89.429688 15.578125 C 89.589844 15.578125 89.746094 15.542969 89.769531 15.503906 C 89.792969 15.464844 89.921875 15.429688 90.042969 15.429688 C 90.167969 15.429688 90.34375 15.390625 90.433594 15.335938 C 90.589844 15.253906 90.960938 15.152344 91.429688 15.078125 C 91.554688 15.054688 91.722656 15.011719 91.804688 14.972656 C 91.949219 14.910156 92.121094 14.871094 92.859375 14.773438 C 93.023438 14.742188 93.191406 14.699219 93.230469 14.660156 C 93.273438 14.621094 93.433594 14.589844 93.582031 14.589844 C 93.742188 14.589844 93.890625 14.554688 93.914062 14.515625 C 93.9375 14.46875 94.085938 14.441406 94.246094 14.441406 C 94.402344 14.441406 94.578125 14.394531 94.621094 14.332031 C 94.675781 14.273438 94.832031 14.210938 94.992188 14.1875 C 95.140625 14.160156 95.445312 14.105469 95.648438 14.066406 C 95.859375 14.023438 96.191406 13.960938 96.386719 13.921875 C 96.582031 13.886719 96.785156 13.816406 96.832031 13.769531 C 96.882812 13.71875 97.054688 13.679688 97.222656 13.679688 C 97.53125 13.679688 97.675781 13.648438 98.496094 13.421875 C 98.734375 13.351562 98.945312 13.300781 98.960938 13.300781 C 98.984375 13.300781 99 14.167969 99 15.230469 L 99 17.160156 L 98.835938 17.207031 C 98.734375 17.230469 98.59375 17.25 98.511719 17.25 C 98.425781 17.25 98.140625 17.359375 97.878906 17.480469 C 97.476562 17.675781 97.34375 17.699219 97.042969 17.664062 C 96.792969 17.632812 96.621094 17.648438 96.453125 17.738281 C 96.316406 17.808594 96.039062 17.859375 95.769531 17.859375 C 95.519531 17.859375 95.292969 17.890625 95.269531 17.9375 C 95.246094 17.980469 95.023438 18.011719 94.78125 18.011719 C 94.539062 18.011719 94.3125 18.050781 94.292969 18.089844 C 94.269531 18.132812 94.050781 18.164062 93.808594 18.164062 C 93.566406 18.164062 93.339844 18.203125 93.289062 18.253906 C 93.199219 18.347656 92.800781 18.414062 91.765625 18.511719 C 91.542969 18.535156 91.324219 18.589844 91.285156 18.628906 C 91.238281 18.664062 91.050781 18.695312 90.855469 18.695312 C 90.660156 18.695312 90.472656 18.734375 90.449219 18.773438 C 90.425781 18.816406 90.222656 18.847656 89.996094 18.847656 C 89.769531 18.847656 89.566406 18.878906 89.542969 18.925781 C 89.523438 18.960938 89.332031 19 89.128906 19 C 88.925781 19 88.738281 19.039062 88.714844 19.074219 C 88.691406 19.121094 88.535156 19.152344 88.371094 19.152344 C 88.203125 19.152344 87.992188 19.191406 87.902344 19.242188 C 87.8125 19.289062 87.585938 19.355469 87.398438 19.394531 C 87.207031 19.425781 86.871094 19.488281 86.644531 19.53125 C 86.417969 19.578125 86.070312 19.636719 85.867188 19.675781 C 85.671875 19.707031 85.46875 19.773438 85.421875 19.820312 C 85.371094 19.875 85.203125 19.914062 85.054688 19.914062 C 84.894531 19.914062 84.746094 19.949219 84.722656 19.988281 C 84.699219 20.035156 84.511719 20.0625 84.308594 20.0625 C 84.105469 20.0625 83.917969 20.09375 83.894531 20.140625 C 83.871094 20.179688 83.714844 20.214844 83.554688 20.214844 C 83.398438 20.214844 83.238281 20.246094 83.214844 20.292969 C 83.191406 20.335938 83.035156 20.367188 82.875 20.367188 C 82.71875 20.367188 82.558594 20.40625 82.539062 20.445312 C 82.515625 20.488281 82.347656 20.519531 82.167969 20.519531 C 81.996094 20.519531 81.8125 20.558594 81.761719 20.613281 C 81.707031 20.664062 81.558594 20.695312 81.414062 20.6875 C 81.265625 20.671875 81.128906 20.71875 81.070312 20.785156 C 81.015625 20.855469 80.851562 20.898438 80.683594 20.898438 C 80.527344 20.898438 80.375 20.9375 80.351562 20.976562 C 80.332031 21.023438 80.195312 21.050781 80.050781 21.050781 C 79.910156 21.050781 79.773438 21.082031 79.75 21.128906 C 79.726562 21.167969 79.589844 21.203125 79.457031 21.203125 C 79.320312 21.203125 79.148438 21.257812 79.0625 21.316406 C 78.988281 21.378906 78.792969 21.433594 78.640625 21.433594 C 78.492188 21.433594 78.339844 21.46875 78.320312 21.507812 C 78.296875 21.554688 78.160156 21.585938 78.015625 21.585938 C 77.875 21.585938 77.738281 21.613281 77.714844 21.660156 C 77.691406 21.699219 77.535156 21.734375 77.375 21.734375 C 77.21875 21.734375 77.058594 21.773438 77.039062 21.8125 C 77.015625 21.851562 76.855469 21.886719 76.699219 21.886719 C 76.539062 21.886719 76.382812 21.917969 76.359375 21.964844 C 76.335938 22.011719 76.1875 22.039062 76.027344 22.039062 C 75.855469 22.039062 75.695312 22.085938 75.636719 22.160156 C 75.574219 22.238281 75.46875 22.269531 75.335938 22.238281 C 75.207031 22.214844 75.09375 22.238281 75.042969 22.304688 C 74.988281 22.367188 74.835938 22.421875 74.695312 22.421875 C 74.558594 22.421875 74.421875 22.449219 74.402344 22.496094 C 74.378906 22.542969 74.242188 22.574219 74.097656 22.574219 C 73.957031 22.574219 73.820312 22.609375 73.796875 22.648438 C 73.773438 22.695312 73.65625 22.722656 73.542969 22.722656 C 73.429688 22.722656 73.269531 22.777344 73.1875 22.839844 C 73.113281 22.898438 72.917969 22.953125 72.765625 22.953125 C 72.609375 22.953125 72.480469 22.992188 72.480469 23.027344 C 72.480469 23.074219 72.34375 23.105469 72.1875 23.105469 C 72.019531 23.105469 71.863281 23.140625 71.839844 23.179688 C 71.816406 23.21875 71.695312 23.257812 71.574219 23.257812 C 71.453125 23.257812 71.335938 23.292969 71.3125 23.332031 C 71.289062 23.378906 71.128906 23.410156 70.964844 23.410156 C 70.808594 23.410156 70.671875 23.445312 70.671875 23.484375 C 70.671875 23.53125 70.589844 23.558594 70.492188 23.558594 C 70.390625 23.558594 70.1875 23.613281 70.03125 23.683594 C 69.871094 23.742188 69.707031 23.78125 69.652344 23.757812 C 69.59375 23.734375 69.511719 23.773438 69.464844 23.835938 C 69.414062 23.894531 69.261719 23.941406 69.121094 23.941406 C 68.984375 23.941406 68.847656 23.976562 68.824219 24.015625 C 68.804688 24.054688 68.695312 24.09375 68.589844 24.09375 C 68.484375 24.09375 68.320312 24.144531 68.222656 24.214844 C 68.117188 24.28125 67.964844 24.320312 67.882812 24.296875 C 67.808594 24.273438 67.703125 24.304688 67.648438 24.367188 C 67.605469 24.425781 67.453125 24.472656 67.3125 24.472656 C 67.175781 24.472656 67.039062 24.503906 67.015625 24.546875 C 66.996094 24.59375 66.851562 24.625 66.707031 24.625 C 66.566406 24.625 66.453125 24.664062 66.453125 24.699219 C 66.453125 24.746094 66.316406 24.777344 66.160156 24.777344 C 65.992188 24.777344 65.835938 24.816406 65.8125 24.851562 C 65.789062 24.898438 65.667969 24.929688 65.546875 24.929688 C 65.425781 24.929688 65.308594 24.964844 65.285156 25.003906 C 65.261719 25.050781 65.125 25.082031 64.996094 25.082031 C 64.863281 25.082031 64.6875 25.132812 64.613281 25.195312 C 64.53125 25.253906 64.359375 25.308594 64.222656 25.308594 C 64.085938 25.308594 63.949219 25.339844 63.929688 25.382812 C 63.90625 25.429688 63.785156 25.460938 63.65625 25.460938 C 63.535156 25.460938 63.4375 25.5 63.4375 25.535156 C 63.4375 25.582031 63.308594 25.613281 63.160156 25.613281 C 63 25.613281 62.804688 25.664062 62.730469 25.726562 C 62.648438 25.789062 62.488281 25.839844 62.375 25.839844 C 62.261719 25.839844 62.140625 25.878906 62.121094 25.917969 C 62.097656 25.960938 61.976562 25.992188 61.855469 25.992188 C 61.734375 25.992188 61.613281 26.03125 61.59375 26.070312 C 61.570312 26.113281 61.410156 26.144531 61.253906 26.144531 C 61.09375 26.144531 60.9375 26.183594 60.914062 26.21875 C 60.890625 26.265625 60.769531 26.296875 60.652344 26.296875 C 60.53125 26.296875 60.410156 26.335938 60.386719 26.371094 C 60.363281 26.417969 60.230469 26.449219 60.085938 26.449219 C 59.941406 26.449219 59.808594 26.488281 59.785156 26.523438 C 59.761719 26.5625 59.609375 26.601562 59.453125 26.601562 C 59.285156 26.601562 59.121094 26.644531 59.070312 26.714844 C 59.015625 26.777344 58.863281 26.828125 58.722656 26.828125 C 58.585938 26.828125 58.449219 26.867188 58.429688 26.90625 C 58.40625 26.949219 58.269531 26.980469 58.125 26.980469 C 57.984375 26.980469 57.855469 27.011719 57.832031 27.050781 C 57.808594 27.085938 57.683594 27.132812 57.546875 27.15625 C 56.808594 27.277344 56.621094 27.460938 56.824219 27.839844 C 56.867188 27.929688 56.90625 28.097656 56.898438 28.21875 C 56.890625 28.332031 56.929688 28.53125 56.996094 28.652344 C 57.058594 28.773438 57.109375 29.03125 57.109375 29.222656 C 57.109375 29.535156 57.070312 29.601562 56.777344 29.898438 C 56.589844 30.082031 56.339844 30.273438 56.21875 30.316406 C 56.023438 30.402344 55.964844 30.394531 55.730469 30.234375 C 55.277344 29.929688 54.894531 29.609375 54.734375 29.421875 C 54.1875 28.730469 53.921875 28.5 53.675781 28.5 C 53.539062 28.5 53.402344 28.539062 53.378906 28.578125 C 53.359375 28.621094 53.222656 28.652344 53.085938 28.652344 C 52.949219 28.652344 52.777344 28.707031 52.695312 28.765625 C 52.621094 28.828125 52.484375 28.878906 52.402344 28.878906 C 52.152344 28.878906 52.0625 29.03125 52.0625 29.464844 C 52.0625 29.800781 52.023438 29.90625 51.835938 30.128906 C 51.480469 30.53125 50.863281 30.613281 50.488281 30.308594 L 50.296875 30.164062 L 49.3125 31.191406 C 47.226562 33.386719 47.121094 33.503906 47.226562 33.675781 C 47.316406 33.8125 47.292969 33.867188 47.019531 34.132812 C 46.652344 34.488281 46.613281 34.769531 46.902344 35.039062 C 47.105469 35.234375 47.503906 35.28125 47.632812 35.136719 C 47.675781 35.082031 47.753906 35.039062 47.796875 35.039062 C 47.976562 35.039062 48.292969 34.621094 48.292969 34.382812 C 48.292969 34.132812 47.964844 33.746094 47.753906 33.746094 C 47.683594 33.746094 47.601562 33.714844 47.578125 33.667969 C 47.511719 33.5625 47.878906 33.496094 48.054688 33.585938 C 48.144531 33.632812 48.292969 33.667969 48.390625 33.667969 C 48.492188 33.667969 48.703125 33.753906 48.851562 33.859375 C 49.003906 33.964844 49.160156 34.050781 49.199219 34.050781 C 49.296875 34.050781 49.75 34.511719 49.890625 34.769531 C 49.96875 34.902344 50.066406 35.066406 50.117188 35.152344 C 50.59375 35.894531 50.707031 36.09375 50.707031 36.199219 C 50.707031 36.269531 50.734375 36.34375 50.78125 36.367188 C 50.824219 36.390625 50.855469 36.472656 50.855469 36.550781 C 50.855469 36.625 50.910156 36.730469 50.976562 36.792969 C 51.035156 36.847656 51.074219 36.953125 51.058594 37.019531 C 51.035156 37.097656 51.066406 37.195312 51.128906 37.25 C 51.203125 37.308594 51.234375 37.523438 51.234375 38.007812 C 51.234375 38.546875 51.203125 38.730469 51.074219 38.945312 C 50.839844 39.347656 50.488281 39.523438 49.898438 39.523438 C 49.453125 39.523438 49.378906 39.5 49.117188 39.277344 C 48.957031 39.140625 48.601562 38.835938 48.324219 38.609375 C 48.054688 38.382812 47.617188 38 47.359375 37.773438 C 46.847656 37.300781 46.5 37.089844 46.273438 37.089844 C 46.183594 37.089844 46.09375 37.058594 46.070312 37.011719 C 46.050781 36.976562 45.914062 36.9375 45.769531 36.9375 C 45.628906 36.9375 45.492188 36.90625 45.46875 36.863281 C 45.445312 36.824219 45.289062 36.785156 45.121094 36.785156 C 44.902344 36.785156 44.828125 36.816406 44.828125 36.90625 C 44.828125 36.96875 44.679688 37.265625 44.488281 37.554688 C 44.300781 37.84375 44.152344 38.128906 44.152344 38.183594 C 44.152344 38.246094 44.128906 38.304688 44.089844 38.320312 C 44.023438 38.351562 43.699219 39.308594 43.699219 39.5 C 43.699219 39.574219 43.652344 39.703125 43.59375 39.789062 C 43.539062 39.871094 43.472656 40.0625 43.449219 40.207031 C 43.425781 40.351562 43.375 40.625 43.328125 40.8125 C 43.292969 41.003906 43.222656 41.292969 43.1875 41.460938 C 43.148438 41.628906 43.082031 41.839844 43.035156 41.929688 C 42.984375 42.023438 42.945312 42.167969 42.945312 42.25 C 42.945312 42.410156 42.921875 42.476562 42.734375 42.84375 C 42.679688 42.941406 42.644531 43.0625 42.644531 43.117188 C 42.644531 43.222656 42.394531 43.808594 42.257812 44.007812 C 42.222656 44.066406 42.09375 44.273438 41.980469 44.453125 C 41.867188 44.644531 41.664062 44.917969 41.535156 45.070312 C 41.402344 45.230469 41.289062 45.390625 41.289062 45.425781 C 41.289062 45.578125 38.890625 47.929688 38.183594 48.476562 C 37.371094 49.105469 37.273438 49.175781 37.179688 49.175781 C 37.128906 49.175781 37.070312 49.226562 37.046875 49.289062 C 37.023438 49.347656 36.851562 49.464844 36.660156 49.554688 C 36.472656 49.636719 36.171875 49.8125 35.984375 49.933594 C 35.804688 50.0625 35.597656 50.164062 35.539062 50.164062 C 35.472656 50.164062 35.394531 50.199219 35.375 50.238281 C 35.351562 50.285156 35.269531 50.316406 35.183594 50.316406 C 35.109375 50.316406 34.898438 50.398438 34.726562 50.503906 C 34.542969 50.609375 34.320312 50.695312 34.226562 50.695312 C 34.136719 50.695312 34.039062 50.734375 34.015625 50.769531 C 33.996094 50.816406 33.820312 50.847656 33.640625 50.847656 C 33.460938 50.847656 33.285156 50.882812 33.265625 50.921875 C 33.242188 50.96875 33 51 32.734375 51 C 32.308594 51 32.230469 50.976562 32.058594 50.792969 Z M 54.511719 26.675781 C 54.53125 26.640625 54.609375 26.601562 54.675781 26.601562 C 54.855469 26.601562 54.992188 26.363281 55 26.070312 C 55 25.71875 54.886719 25.613281 54.53125 25.613281 C 54.171875 25.613281 53.914062 25.773438 53.792969 26.078125 C 53.703125 26.289062 53.710938 26.320312 53.90625 26.523438 C 54.117188 26.753906 54.417969 26.820312 54.511719 26.675781 Z M 75.53125 49.5625 C 75.042969 49.257812 74.832031 48.929688 74.574219 48.109375 C 74.4375 47.691406 74.410156 46.226562 74.527344 46.082031 C 74.582031 46.011719 74.613281 45.875 74.605469 45.777344 C 74.589844 45.679688 74.632812 45.511719 74.695312 45.414062 C 74.761719 45.3125 74.816406 45.144531 74.816406 45.039062 C 74.816406 44.933594 74.851562 44.828125 74.890625 44.804688 C 74.9375 44.78125 74.964844 44.675781 74.964844 44.574219 C 74.964844 44.476562 75.003906 44.371094 75.042969 44.347656 C 75.175781 44.265625 75.125 43.808594 74.964844 43.664062 C 74.859375 43.566406 74.816406 43.429688 74.816406 43.199219 C 74.816406 42.789062 75.042969 42.601562 75.464844 42.652344 C 75.734375 42.683594 75.742188 42.675781 75.914062 42.28125 C 76.011719 42.050781 76.097656 41.839844 76.097656 41.800781 C 76.097656 41.703125 75.644531 41.496094 75.417969 41.496094 C 75.3125 41.496094 75.183594 41.460938 75.140625 41.414062 C 75.085938 41.359375 74.921875 41.347656 74.726562 41.367188 C 73.933594 41.476562 73.5625 41.550781 73.40625 41.632812 C 73.316406 41.6875 73.113281 41.726562 72.953125 41.726562 C 72.789062 41.726562 72.628906 41.757812 72.585938 41.792969 C 72.523438 41.855469 72.382812 41.886719 71.410156 42 C 71.214844 42.023438 71.019531 42.089844 70.964844 42.152344 C 70.914062 42.210938 70.738281 42.257812 70.511719 42.257812 C 70.316406 42.257812 70.128906 42.296875 70.105469 42.332031 C 70.082031 42.378906 69.925781 42.410156 69.757812 42.410156 C 69.601562 42.410156 69.464844 42.449219 69.464844 42.484375 C 69.464844 42.53125 69.324219 42.5625 69.140625 42.5625 C 68.960938 42.5625 68.789062 42.59375 68.75 42.628906 C 68.703125 42.667969 68.539062 42.714844 68.375 42.738281 C 67.851562 42.8125 67.550781 42.875 67.394531 42.941406 C 67.3125 42.980469 67.160156 43.027344 67.054688 43.039062 C 66.949219 43.0625 66.769531 43.117188 66.640625 43.15625 C 66.121094 43.335938 65.863281 43.398438 65.675781 43.398438 C 65.570312 43.398438 65.457031 43.4375 65.433594 43.472656 C 65.414062 43.519531 65.292969 43.550781 65.179688 43.550781 C 65.066406 43.550781 64.90625 43.601562 64.824219 43.664062 C 64.75 43.726562 64.589844 43.777344 64.476562 43.777344 C 64.363281 43.777344 64.253906 43.816406 64.230469 43.855469 C 64.207031 43.898438 64.085938 43.929688 63.964844 43.929688 C 63.84375 43.929688 63.726562 43.96875 63.703125 44.007812 C 63.679688 44.050781 63.542969 44.082031 63.402344 44.082031 C 63.257812 44.082031 63.121094 44.121094 63.097656 44.15625 C 63.078125 44.203125 62.957031 44.234375 62.835938 44.234375 C 62.714844 44.234375 62.59375 44.273438 62.570312 44.308594 C 62.550781 44.355469 62.445312 44.386719 62.347656 44.386719 C 62.246094 44.386719 62.140625 44.425781 62.121094 44.460938 C 62.097656 44.507812 62.015625 44.539062 61.9375 44.539062 C 61.863281 44.539062 61.644531 44.621094 61.449219 44.726562 C 61.253906 44.835938 61.050781 44.917969 60.996094 44.917969 C 60.945312 44.917969 60.742188 45 60.53125 45.101562 C 60.328125 45.199219 60.023438 45.320312 59.859375 45.375 C 59.503906 45.488281 59.234375 45.59375 59.054688 45.6875 C 58.976562 45.722656 58.859375 45.753906 58.78125 45.753906 C 58.707031 45.753906 58.617188 45.785156 58.570312 45.824219 C 58.535156 45.859375 58.367188 45.90625 58.203125 45.921875 C 57.808594 45.953125 57.789062 45.832031 58.089844 45.253906 C 58.316406 44.820312 58.714844 44.386719 58.878906 44.386719 C 58.925781 44.386719 59.074219 44.265625 59.21875 44.121094 C 59.363281 43.976562 59.511719 43.855469 59.558594 43.855469 C 59.609375 43.855469 59.707031 43.785156 59.785156 43.703125 C 59.859375 43.617188 60.101562 43.457031 60.328125 43.351562 C 60.546875 43.238281 60.726562 43.125 60.726562 43.085938 C 60.726562 43.046875 60.792969 43.019531 60.871094 43.019531 C 60.953125 43.019531 61.027344 42.988281 61.042969 42.957031 C 61.074219 42.882812 61.984375 42.484375 62.128906 42.484375 C 62.1875 42.484375 62.234375 42.464844 62.234375 42.425781 C 62.234375 42.363281 62.78125 42.105469 62.910156 42.105469 C 62.957031 42.105469 63.054688 42.074219 63.136719 42.03125 C 63.21875 41.992188 63.355469 41.921875 63.4375 41.878906 C 63.519531 41.839844 63.671875 41.800781 63.769531 41.800781 C 63.875 41.800781 63.980469 41.769531 64.003906 41.726562 C 64.027344 41.6875 64.160156 41.648438 64.304688 41.648438 C 64.449219 41.648438 64.582031 41.621094 64.605469 41.574219 C 64.628906 41.535156 64.765625 41.496094 64.90625 41.496094 C 65.050781 41.496094 65.1875 41.46875 65.207031 41.421875 C 65.230469 41.382812 65.367188 41.347656 65.496094 41.347656 C 65.628906 41.339844 65.820312 41.292969 65.925781 41.230469 C 66.03125 41.171875 66.257812 41.125 66.429688 41.117188 C 66.601562 41.117188 66.769531 41.085938 66.792969 41.042969 C 66.8125 41.003906 67.054688 40.964844 67.320312 40.964844 C 67.582031 40.964844 67.824219 40.933594 67.847656 40.890625 C 67.875 40.84375 68.253906 40.8125 68.71875 40.8125 C 69.246094 40.8125 69.609375 40.777344 69.714844 40.722656 C 69.835938 40.652344 70.609375 40.609375 72.480469 40.578125 C 75.011719 40.53125 75.597656 40.488281 75.6875 40.351562 C 75.710938 40.3125 75.808594 40.28125 75.90625 40.28125 C 76.003906 40.28125 76.109375 40.25 76.132812 40.207031 C 76.15625 40.167969 76.238281 40.128906 76.3125 40.128906 C 76.382812 40.128906 76.523438 40.039062 76.628906 39.925781 C 77.097656 39.386719 77.136719 38.972656 76.734375 38.617188 C 76.59375 38.488281 76.472656 38.335938 76.472656 38.28125 C 76.472656 38.144531 76.667969 37.980469 76.976562 37.84375 C 77.210938 37.742188 77.226562 37.710938 77.179688 37.46875 C 77.152344 37.324219 77.105469 37.171875 77.066406 37.136719 C 77.03125 37.089844 77 37.011719 77 36.953125 C 77 36.6875 76.765625 36.640625 75.441406 36.632812 C 74.65625 36.632812 74.128906 36.664062 74.097656 36.710938 C 74.070312 36.753906 73.609375 36.785156 72.96875 36.785156 C 72.328125 36.785156 71.871094 36.816406 71.839844 36.863281 C 71.816406 36.90625 71.558594 36.9375 71.273438 36.9375 C 70.988281 36.9375 70.730469 36.976562 70.707031 37.011719 C 70.6875 37.058594 70.386719 37.089844 70.046875 37.089844 C 69.625 37.097656 69.382812 37.128906 69.285156 37.203125 C 69.203125 37.265625 69.027344 37.316406 68.894531 37.316406 C 68.757812 37.316406 68.621094 37.355469 68.597656 37.394531 C 68.578125 37.4375 68.417969 37.46875 68.253906 37.46875 C 67.996094 37.46875 67.957031 37.445312 67.957031 37.300781 C 67.957031 36.960938 69.195312 36.027344 69.648438 36.027344 C 69.707031 36.027344 69.78125 35.996094 69.804688 35.949219 C 69.828125 35.910156 69.949219 35.875 70.070312 35.875 C 70.1875 35.875 70.308594 35.84375 70.332031 35.796875 C 70.355469 35.757812 70.648438 35.722656 70.972656 35.722656 C 71.296875 35.722656 71.589844 35.691406 71.613281 35.644531 C 71.636719 35.605469 71.960938 35.570312 72.328125 35.570312 C 72.734375 35.570312 73.023438 35.539062 73.050781 35.484375 C 73.082031 35.433594 73.203125 35.425781 73.375 35.457031 C 73.527344 35.476562 73.851562 35.523438 74.097656 35.539062 C 74.347656 35.5625 74.582031 35.613281 74.625 35.652344 C 74.664062 35.691406 74.808594 35.722656 74.9375 35.722656 C 75.070312 35.722656 75.207031 35.757812 75.230469 35.796875 C 75.253906 35.84375 75.386719 35.875 75.53125 35.875 C 75.675781 35.875 75.808594 35.910156 75.832031 35.949219 C 75.855469 35.996094 76.203125 36.027344 76.59375 36.027344 C 77.082031 36.027344 77.375 36.0625 77.527344 36.140625 C 77.691406 36.222656 77.792969 36.230469 77.949219 36.175781 C 78.09375 36.117188 78.175781 36.125 78.25 36.183594 C 78.339844 36.253906 78.417969 36.207031 78.640625 35.941406 C 78.792969 35.757812 79.214844 35.304688 79.585938 34.914062 C 79.945312 34.527344 80.238281 34.179688 80.238281 34.132812 C 80.238281 34.09375 80.398438 33.914062 80.585938 33.730469 C 80.773438 33.546875 80.976562 33.3125 81.039062 33.199219 C 81.097656 33.078125 81.300781 32.832031 81.484375 32.644531 C 81.671875 32.460938 81.820312 32.269531 81.820312 32.234375 C 81.820312 32.1875 82.023438 31.9375 82.273438 31.671875 C 82.523438 31.398438 82.726562 31.152344 82.726562 31.117188 C 82.726562 30.972656 85.414062 28.425781 85.566406 28.425781 C 85.605469 28.425781 85.746094 28.324219 85.875 28.195312 C 86.011719 28.066406 86.148438 27.96875 86.183594 27.96875 C 86.222656 27.96875 86.351562 27.894531 86.46875 27.792969 C 86.582031 27.695312 86.808594 27.558594 86.960938 27.488281 C 87.109375 27.414062 87.261719 27.324219 87.285156 27.285156 C 87.3125 27.238281 87.359375 27.222656 87.398438 27.246094 C 87.425781 27.269531 87.496094 27.230469 87.546875 27.171875 C 87.601562 27.109375 87.699219 27.058594 87.765625 27.058594 C 87.835938 27.058594 87.933594 27.019531 87.976562 26.972656 C 88.023438 26.925781 88.136719 26.90625 88.234375 26.917969 C 88.390625 26.941406 88.414062 26.988281 88.414062 27.238281 C 88.414062 27.460938 88.375 27.558594 88.265625 27.621094 C 88.179688 27.65625 88.023438 27.757812 87.910156 27.832031 C 87.796875 27.90625 87.660156 27.96875 87.601562 27.96875 C 87.546875 27.96875 87.417969 28.050781 87.320312 28.160156 C 87.222656 28.265625 87.109375 28.347656 87.074219 28.347656 C 87.035156 28.347656 86.855469 28.476562 86.675781 28.636719 C 86.492188 28.789062 86.152344 29.070312 85.921875 29.261719 C 85.6875 29.449219 85.265625 29.808594 84.992188 30.066406 C 84.722656 30.316406 84.375 30.605469 84.234375 30.710938 C 84.089844 30.8125 83.628906 31.238281 83.207031 31.65625 C 82.792969 32.074219 82.167969 32.6875 81.8125 33.023438 C 80.964844 33.84375 79.410156 35.492188 79.410156 35.59375 C 79.410156 35.628906 79.28125 35.8125 79.132812 35.996094 C 78.445312 36.777344 78.371094 36.96875 78.695312 37.089844 C 78.832031 37.144531 78.882812 37.21875 78.882812 37.355469 C 78.882812 37.523438 78.914062 37.546875 79.175781 37.546875 C 79.34375 37.546875 79.5 37.515625 79.523438 37.46875 C 79.546875 37.429688 79.621094 37.394531 79.683594 37.394531 C 79.742188 37.394531 80.035156 37.144531 80.34375 36.839844 C 80.648438 36.527344 81.03125 36.175781 81.1875 36.054688 C 81.347656 35.933594 81.746094 35.578125 82.070312 35.265625 C 82.394531 34.953125 82.71875 34.664062 82.785156 34.625 C 82.855469 34.589844 83.125 34.367188 83.382812 34.132812 C 84.4375 33.183594 84.664062 32.984375 84.714844 32.984375 C 84.753906 32.984375 84.925781 32.847656 85.113281 32.679688 C 85.304688 32.515625 85.492188 32.378906 85.535156 32.378906 C 85.574219 32.378906 85.738281 32.261719 85.898438 32.132812 C 86.464844 31.65625 86.703125 31.464844 86.765625 31.464844 C 86.800781 31.457031 86.953125 31.359375 87.097656 31.238281 C 87.238281 31.109375 87.398438 31.007812 87.441406 31.007812 C 87.496094 31.007812 87.546875 30.984375 87.5625 30.949219 C 87.585938 30.886719 88.355469 30.324219 88.40625 30.324219 C 88.429688 30.324219 88.707031 30.136719 89.039062 29.90625 C 89.371094 29.679688 89.695312 29.488281 89.746094 29.488281 C 89.808594 29.488281 89.921875 29.421875 89.996094 29.335938 C 90.078125 29.246094 90.261719 29.125 90.402344 29.054688 C 90.554688 28.988281 90.804688 28.851562 90.953125 28.75 C 91.113281 28.652344 91.300781 28.578125 91.382812 28.578125 C 91.464844 28.578125 91.554688 28.546875 91.578125 28.5 C 91.601562 28.460938 91.691406 28.425781 91.773438 28.425781 C 91.851562 28.425781 91.917969 28.394531 91.917969 28.347656 C 91.917969 28.3125 92.015625 28.273438 92.136719 28.273438 C 92.265625 28.273438 92.386719 28.242188 92.40625 28.195312 C 92.429688 28.160156 92.550781 28.121094 92.671875 28.121094 C 92.792969 28.121094 92.914062 28.089844 92.933594 28.042969 C 92.957031 28.007812 93.046875 27.96875 93.128906 27.96875 C 93.214844 27.96875 93.363281 27.914062 93.460938 27.847656 C 93.558594 27.777344 93.671875 27.75 93.710938 27.769531 C 93.75 27.792969 93.847656 27.761719 93.921875 27.703125 C 93.996094 27.640625 94.140625 27.589844 94.230469 27.589844 C 94.320312 27.589844 94.417969 27.558594 94.441406 27.511719 C 94.464844 27.476562 94.609375 27.4375 94.75 27.4375 C 94.894531 27.4375 95.089844 27.390625 95.179688 27.332031 C 95.285156 27.261719 95.699219 27.207031 96.339844 27.179688 L 97.335938 27.125 L 97.457031 27.316406 C 97.589844 27.527344 97.546875 27.671875 97.253906 27.945312 C 97.027344 28.160156 96.542969 28.425781 96.378906 28.425781 C 96.21875 28.433594 96.03125 28.578125 95.964844 28.75 C 95.933594 28.835938 95.835938 28.878906 95.691406 28.878906 C 95.570312 28.878906 95.445312 28.917969 95.421875 28.957031 C 95.398438 29.003906 95.292969 29.03125 95.195312 29.03125 C 95.097656 29.03125 94.992188 29.070312 94.96875 29.109375 C 94.945312 29.15625 94.855469 29.183594 94.773438 29.183594 C 94.699219 29.183594 94.628906 29.222656 94.628906 29.261719 C 94.628906 29.304688 94.5625 29.335938 94.480469 29.335938 C 94.398438 29.335938 94.328125 29.375 94.328125 29.414062 C 94.328125 29.457031 94.269531 29.488281 94.191406 29.488281 C 94.117188 29.488281 94.027344 29.519531 93.980469 29.558594 C 93.945312 29.601562 93.371094 29.90625 92.707031 30.25 C 92.054688 30.582031 91.488281 30.886719 91.464844 30.917969 C 91.441406 30.949219 91.15625 31.109375 90.824219 31.273438 C 90.5 31.441406 90.140625 31.648438 90.035156 31.730469 C 89.851562 31.882812 89.785156 31.921875 89.191406 32.179688 C 89.039062 32.246094 88.890625 32.339844 88.867188 32.378906 C 88.84375 32.414062 88.691406 32.507812 88.542969 32.582031 C 88.300781 32.695312 87.828125 32.96875 87.351562 33.265625 C 87.277344 33.320312 87.074219 33.433594 86.898438 33.507812 C 86.734375 33.59375 86.546875 33.714844 86.492188 33.785156 C 86.441406 33.84375 86.34375 33.898438 86.265625 33.898438 C 86.199219 33.898438 86.078125 33.972656 85.996094 34.058594 C 85.921875 34.148438 85.785156 34.246094 85.703125 34.285156 C 85.621094 34.324219 85.402344 34.476562 85.210938 34.621094 C 85.023438 34.765625 84.804688 34.914062 84.722656 34.953125 C 84.632812 34.992188 84.519531 35.074219 84.464844 35.144531 C 84.414062 35.210938 84.308594 35.265625 84.242188 35.265625 C 84.171875 35.265625 84.066406 35.332031 84.007812 35.417969 C 83.945312 35.5 83.855469 35.570312 83.8125 35.570312 C 83.757812 35.570312 83.613281 35.652344 83.496094 35.757812 C 83.367188 35.867188 83.238281 35.949219 83.199219 35.949219 C 83.164062 35.949219 83.050781 36.03125 82.953125 36.140625 C 82.855469 36.246094 82.734375 36.328125 82.6875 36.328125 C 82.636719 36.328125 82.539062 36.398438 82.460938 36.480469 C 82.386719 36.566406 82.289062 36.632812 82.234375 36.632812 C 82.183594 36.632812 82.085938 36.703125 82.011719 36.785156 C 81.933594 36.867188 81.820312 36.9375 81.761719 36.9375 C 81.703125 36.9375 81.519531 37.050781 81.363281 37.1875 C 80.78125 37.675781 80.554688 37.847656 80.488281 37.847656 C 80.449219 37.847656 80.324219 37.957031 80.203125 38.078125 C 80.082031 38.207031 79.9375 38.304688 79.886719 38.304688 C 79.824219 38.304688 79.683594 38.425781 79.554688 38.570312 C 79.425781 38.714844 79.28125 38.835938 79.230469 38.835938 C 79.183594 38.835938 78.996094 38.988281 78.808594 39.179688 C 78.621094 39.363281 78.425781 39.515625 78.371094 39.523438 C 78.121094 39.527344 77.671875 40.175781 77.460938 40.820312 C 77.375 41.09375 77.347656 41.726562 77.414062 41.726562 C 77.4375 41.726562 77.582031 41.671875 77.730469 41.613281 C 77.917969 41.527344 78.03125 41.519531 78.085938 41.574219 C 78.121094 41.613281 78.25 41.648438 78.355469 41.648438 C 78.695312 41.648438 79.464844 42.082031 79.589844 42.347656 C 79.914062 42.996094 79.480469 43.472656 78.882812 43.132812 C 78.777344 43.070312 78.589844 43.027344 78.453125 43.019531 C 78.324219 43.019531 78.191406 42.988281 78.167969 42.941406 C 78.101562 42.828125 77.699219 42.851562 77.453125 42.980469 C 77.234375 43.09375 77.226562 43.109375 77.226562 43.703125 C 77.226562 44.027344 77.265625 44.324219 77.300781 44.347656 C 77.347656 44.371094 77.375 44.492188 77.375 44.613281 C 77.375 44.734375 77.414062 44.855469 77.453125 44.878906 C 77.496094 44.902344 77.527344 45 77.527344 45.09375 C 77.527344 45.183594 77.582031 45.328125 77.640625 45.40625 C 77.785156 45.59375 77.785156 46.261719 77.640625 46.515625 C 77.582031 46.621094 77.535156 46.832031 77.527344 46.992188 C 77.527344 47.144531 77.496094 47.335938 77.460938 47.410156 C 77.421875 47.480469 77.292969 47.746094 77.179688 47.996094 C 77.058594 48.246094 76.902344 48.503906 76.835938 48.574219 C 76.757812 48.640625 76.699219 48.75 76.699219 48.808594 C 76.699219 48.921875 75.929688 49.707031 75.816406 49.707031 C 75.785156 49.707031 75.660156 49.644531 75.53125 49.5625 Z M 61.140625 4.953125 C 60.90625 4.785156 60.769531 4.027344 60.953125 3.914062 C 60.996094 3.890625 61.027344 3.804688 61.027344 3.730469 C 61.027344 3.609375 60.980469 3.59375 60.6875 3.625 C 60.257812 3.675781 60.070312 3.609375 60.199219 3.457031 C 60.3125 3.320312 60.734375 3.304688 60.855469 3.425781 C 60.921875 3.496094 60.988281 3.488281 61.140625 3.386719 C 61.246094 3.320312 61.3125 3.230469 61.292969 3.191406 C 61.230469 3.09375 60.296875 3.09375 60.234375 3.191406 C 60.214844 3.238281 59.875 3.265625 59.476562 3.265625 C 58.894531 3.265625 58.765625 3.242188 58.765625 3.152344 C 58.765625 3.078125 58.84375 3.039062 58.984375 3.039062 C 59.113281 3.039062 59.234375 3.007812 59.257812 2.960938 C 59.285156 2.917969 59.792969 2.886719 60.523438 2.886719 L 61.75 2.886719 L 62.007812 2.660156 C 62.148438 2.539062 62.300781 2.4375 62.339844 2.429688 C 62.398438 2.429688 62.640625 2.242188 63.203125 1.769531 C 63.363281 1.632812 63.542969 1.519531 63.605469 1.519531 C 63.65625 1.519531 63.753906 1.449219 63.816406 1.367188 C 63.875 1.28125 63.980469 1.214844 64.046875 1.214844 C 64.117188 1.214844 64.214844 1.160156 64.265625 1.101562 C 64.484375 0.835938 65.035156 0.53125 65.300781 0.53125 C 65.441406 0.53125 65.734375 0.4375 65.953125 0.332031 C 66.164062 0.226562 66.398438 0.105469 66.46875 0.0664062 C 66.640625 -0.0234375 66.980469 -0.015625 66.980469 0.0664062 C 66.980469 0.152344 66.828125 0.242188 66 0.636719 C 65.691406 0.789062 65.375 0.949219 65.308594 0.988281 C 65.230469 1.03125 65.125 1.0625 65.066406 1.0625 C 65.003906 1.0625 64.945312 1.09375 64.929688 1.125 C 64.921875 1.152344 64.679688 1.296875 64.402344 1.433594 C 64.132812 1.570312 63.84375 1.746094 63.769531 1.832031 C 63.703125 1.90625 63.605469 1.976562 63.550781 1.976562 C 63.5 1.976562 63.402344 2.042969 63.324219 2.125 C 63.25 2.210938 63.152344 2.277344 63.097656 2.277344 C 62.992188 2.277344 62.542969 2.742188 62.429688 2.976562 C 62.382812 3.078125 62.246094 3.199219 62.136719 3.25 C 61.925781 3.359375 61.878906 3.449219 62.007812 3.53125 C 62.140625 3.617188 62.097656 3.949219 61.945312 3.949219 C 61.734375 3.949219 61.628906 4.101562 61.628906 4.40625 C 61.628906 4.597656 61.578125 4.734375 61.457031 4.847656 C 61.261719 5.03125 61.246094 5.039062 61.140625 4.953125 Z M 61.140625 4.953125 "
    />
    <path
      d="M 55.609375 4.757812 C 55.535156 4.664062 55.585938 4.613281 55.917969 4.460938 C 56.484375 4.1875 57.472656 3.851562 57.546875 3.90625 C 57.589844 3.929688 57.660156 3.898438 57.710938 3.835938 C 57.773438 3.761719 57.945312 3.722656 58.230469 3.722656 C 58.464844 3.722656 58.699219 3.683594 58.746094 3.640625 C 58.84375 3.539062 59.371094 3.578125 59.371094 3.683594 C 59.371094 3.730469 59.242188 3.769531 59.089844 3.785156 C 58.933594 3.800781 58.773438 3.84375 58.738281 3.882812 C 58.691406 3.921875 58.535156 3.949219 58.382812 3.949219 C 58.226562 3.949219 58.074219 3.988281 58.050781 4.027344 C 58.027344 4.074219 57.9375 4.101562 57.855469 4.101562 C 57.78125 4.101562 57.652344 4.132812 57.578125 4.171875 C 57.359375 4.285156 56.484375 4.574219 56.242188 4.621094 C 56.121094 4.640625 55.949219 4.703125 55.859375 4.765625 C 55.722656 4.847656 55.6875 4.847656 55.609375 4.757812 Z M 55.609375 4.757812 "
    />
  </g>
</svg>
