<svg xmlns="http://www.w3.org/2000/svg" id="root" viewBox="811.96 2450.76 23638.04 10856.7">
  <path
    d="M6785 11965c-290-51-440-87-506-120-30-16-67-83-144-265-135-318-355-900-355-941 0-110 198 94 354 365 165 286 393 555 640 754 131 106 256 219 256 233s-43 10-245-26zm1228 183c-64-70-124-286-193-693-22-132-54-308-70-391-47-238-36-255 295-484 231-159 584-415 728-528 257-201 477-352 513-352 38 0 322 306 590 635 355 434 594 771 594 837 0 33-61 89-121 111-227 83-520 193-689 259-392 152-846 331-1065 420-249 102-431 171-494 188-23 6-48 13-55 16-6 2-21-6-33-18zm-2253 482c-134-35-277-54-556-74-216-16-284-32-284-67 0-28 74-71 219-128 238-93 504-171 736-217 110-22 426-25 580-5 207 26 397 73 434 107 49 45-141 166-449 288-245 96-324 118-455 122-97 3-124 0-225-26zm3054 660c-39-10-98-32-130-48-121-61-316-113-639-172-165-30-198-39-155-40 174-4 439-21 530-35 58-9 242-49 410-90s400-95 515-120c1190-261 1420-317 1990-482 232-67 386-118 660-218 116-43 269-99 340-125 1536-560 2072-779 2297-940 48-34 149-120 224-191 151-141 210-187 224-173 13 14-28 128-124 344-196 443-249 491-737 671-195 71-616 221-979 349-107 38-276 98-375 135-480 177-2383 793-3010 974-563 162-862 208-1041 161z"
  />
  <path
    d="M7475 11930c-78-11-157-37-284-91-257-111-484-252-621-388-169-168-407-575-398-681l3-35 75-3c191-8 1070 99 1176 143 28 12 33 21 53 95 68 251 150 677 158 816 5 94 4 103-16 123-11 11-32 21-45 21s-30 2-38 4c-7 2-36 0-63-4zm4197-247c-12-31-5-334 12-468 45-351 93-467 180-427 42 19 66 81 76 196 5 61 16 119 27 141 17 35 20 37 55 32 72-10 155-99 198-215 12-30 25-94 29-141 12-128 63-226 131-250 26-9 34-7 50 9 24 24 21 81-16 268-55 279-159 442-422 660-121 100-278 212-299 212-7 0-17-8-21-17zm-994-639c-29-25-78-72-108-103-514-532-1160-1272-1160-1329 0-38 286-289 645-565 339-261 855-671 1195-951 118-97 218-176 222-176s8 636 8 1413v1413l-297 146c-242 119-421 198-448 198-3 0-28-21-57-46z"
  />
  <path
    d="M11707 9317c-6-1289-13-1629-42-1821-17-111-31-140-72-150-44-10-223-64-413-123-298-93-773-208-1110-268-313-56-598-124-712-170-103-42-130-83-69-107 86-32 834-248 1082-312 304-78 524-113 632-102 65 7 80 13 417 156 107 45 286 117 397 160 269 104 453 201 453 238 0 3-18 87-41 187-49 218-49 249 7 306 105 108 963 481 1746 760l348 124v295c0 506-32 786-100 885-121 176-648 463-1400 763-302 120-405 164-875 374-99 45-194 87-211 94l-31 13-6-1302zm1510 184c218-59 415-156 449-222 14-27 15-46 8-109-21-189-3-239 127-369 48-48 91-99 94-114 12-48-4-91-73-198-96-147-178-247-306-374-122-122-184-161-239-151-18 4-92 42-166 86-104 62-143 80-172 80-36 0-40-4-93-85-30-46-64-89-75-95-28-14-77-13-109 4-76 40-241 264-316 427-117 258-136 522-53 740 33 88 67 141 141 218 99 104 202 160 347 191 24 5 107 7 184 5 118-3 158-8 252-34z"
  />
  <path
    d="M12771 9376c-29-7-62-23-74-34-20-20-20-21-2-49 46-70 152-160 415-353l154-113 133 136c144 149 168 182 154 219-14 36-115 114-179 138-154 58-476 88-601 56zm-290-189c-65-38-142-217-149-348-4-79-1-94 33-195 62-182 199-428 260-468 39-26 58-19 136 48 121 103 285 309 346 433 29 61 27 84-18 155-56 88-287 264-444 339-95 46-132 54-164 36zm991-299c-67-85-52-230 35-337 68-83 146-106 180-55 38 59 23 200-30 279-66 98-153 151-185 113zm-285-368c-64-56-101-135-95-200 13-131 142-197 285-145 47 17 264 165 264 180 0 11-232 166-279 186-24 11-63 19-86 19-36 0-51-7-89-40zm-5832 2080c-49-5-160-13-245-20-403-30-486-61-580-219-76-127-103-252-121-546-16-287 11-628 68-843 61-232 62-265 3-270-30-3-40 4-95 61-146 152-209 389-222 827-9 319 16 523 81 669 54 119 59 188 16 211-82 44-130-136-161-600-58-879 199-1525 803-2018 245-199 640-418 868-482 542-150 994 44 1268 544 104 188 137 367 129 691-6 271-41 463-122 680-114 304-562 833-738 871-53 11-250 132-447 275-131 94-316 180-383 178-17-1-72-5-122-9zm-727-1994c59-32 315-308 481-520 156-200 205-286 164-286-85 0-659 556-719 696-16 37-3 98 24 113 22 13 19 13 50-3zm11417 308c-274-86-596-172-895-239-344-77-877-216-1335-349-276-80-728-201-1065-286-614-154-1272-385-1885-661-114-52-211-111-229-141-17-27 2-48 79-87 111-56 190-48 549 55 265 77 633 191 1041 324 998 325 1661 468 2485 534 403 33 619 39 1310 40 681 0 803-4 1135-35 570-53 1318-243 2045-519 385-146 663-279 860-411 167-112 197-119 485-126 391-9 1426 53 1705 103 104 18 120 23 120 34 0 34-632 221-2340 693-1031 286-1208 336-1660 478-140 44-435 139-655 211-220 71-456 148-525 169-69 22-170 55-225 73-191 65-704 226-717 225-7 0-134-39-283-85zm-8303 34c11-125 169-380 342-553 117-117 164-147 192-124 30 25 54 87 54 140 0 73-44 149-144 251-147 150-385 338-428 338-19 0-20-5-16-52z"
  />
  <path
    d="M9115 9450c-7-11 6-37 51-103 58-84 86-227 106-525 23-360-25-695-133-921-100-212-232-356-474-518-105-70-155-115-155-137 0-38 101 3 147 59 43 52 81 75 124 75 44 0 54-18 38-68-15-46-1-55 75-47 124 13 430 108 592 184 86 40 236 136 337 215 168 131 293 274 259 295-43 27-281-53-536-181-185-93-272-144-400-237-108-78-231-145-252-137-45 17 22 104 157 201 202 146 563 336 849 449 210 83 230 93 230 115 0 12-26 41-62 73-205 176-300 315-425 623-90 221-209 399-330 496-104 83-181 117-198 89z"
  />
  <path
    d="M10556 8278c-13-18-49-87-80-152-31-66-82-153-113-195-201-267-586-559-951-721-187-82-378-179-397-200-15-17-16-22-4-36 19-23 96-15 346 37 289 59 914 204 1158 269 61 16 182 47 270 70 189 49 471 132 551 164 32 12 62 29 68 38 23 37-39 119-218 287-179 167-560 471-591 471-8 0-25-15-39-32zm6809-295c-448-13-884-40-1099-68-383-50-937-180-1511-354-276-83-719-215-830-246-330-94-694-208-782-246-24-10-43-22-43-27 0-24 280-133 463-182 300-79 469-89 1772-100 1273-11 1872-28 2810-80 663-37 959-44 1245-31 316 14 447 27 915 92 832 115 1318 170 1623 184 73 3 139 8 147 11 28 11 15 33-47 85-443 369-1701 791-2708 908-405 48-1321 73-1955 54zm-4990-911c54-53 238-211 296-255 172-128 282-152 362-79 38 36 35 70-10 114-21 20-48 41-60 47-27 14-334 110-463 146-52 14-104 29-115 32-13 3-17 2-10-5zm849-332c-45-14-60-35-46-65 19-42 56-57 160-67 53-4 166-19 249-33 227-37 275-36 252 6-26 50-168 111-332 144-99 20-243 27-283 15z"
  />
  <path
    d="M12393 6669c-28-5-82-20-119-34-85-32-526-226-522-230 2-2 136-44 298-95 421-132 798-269 1350-490 670-268 827-317 928-289 143 40 292 340 296 599 1 87-1 99-26 142-33 54-122 138-193 179-87 50-137 49-313-7-210-66-612-55-987 26-130 29-231 61-385 123-109 43-252 89-269 86-3-1-29-5-58-10zm1987-62c17-17 260-172 308-196 65-32 245-93 342-115 36-8 117-22 180-31 330-48 1113-220 2180-480 725-176 1168-280 2195-515 648-148 1176-238 1163-199-10 30-364 232-813 464-298 154-543 284-905 480-811 441-858 456-1675 515-793 57-1174 71-2130 77-467 3-848 3-845 0zm-5462-112c-303-61-1044-274-1064-306-12-19 5-21 93-10 342 44 1099 250 1186 322 22 18 22 18-38 18-33 0-113-11-177-24zm832-179c0-8 33-48 73-89 114-117 316-241 532-328 131-52 197-31 297 94 64 82 61 84-195 158-612 177-707 199-707 165zm1710-16c-103-11-210-62-210-100 0-39 61-61 548-206 1023-303 1311-393 1817-567 201-69 343-105 465-115 154-14 206 15 113 62-108 54-866 372-1123 470-662 252-1049 380-1305 430-147 29-220 36-305 26zm-2760-115c-354-75-1576-396-2180-572-904-263-1421-450-1880-679-495-248-876-542-1353-1049-239-253-467-522-592-700-42-58-258-446-252-451 1-1 144 13 317 32 537 56 656 98 1007 360 213 160 537 358 863 529 492 259 789 430 1242 718 567 360 904 555 1538 887 741 388 1600 891 1600 936 0 35-115 31-310-11z"
  />
  <path
    d="M7590 6133c-177-30-762-184-1615-423-159-45-384-108-500-140-115-33-345-98-510-145-599-173-1063-304-1200-340-206-55-523-132-575-140-213-34-388-189-1110-985-102-112-257-283-345-380-679-747-895-1000-920-1081-22-67 69-65 489 11 194 35 888 188 897 198 4 4 72 125 152 269 271 488 498 785 941 1229 408 408 579 537 986 743 581 295 1311 561 2220 811 249 68 385 108 722 211 313 96 425 139 413 159-4 6-9 9-13 9-4-1-18-4-32-6zm1238-865C7240 3662 6906 3298 6995 3264c39-15 288 65 515 166 235 105 1071 394 1345 465 309 81 352 123 495 490 164 419 353 808 500 1030 104 156 230 379 219 389-2 2-74 49-159 104-169 108-249 152-279 152-12 0-299-283-803-792zm1977 733c-37-15-58-49-63-101-6-63 11-84 82-106 138-41 786-37 786 6 0 36-626 211-746 209-22 0-48-4-59-8zm4070-56c-72-25-123-94-280-375-53-96-99-178-101-182-3-4 17-16 43-28 484-217 1397-572 1993-775 609-207 832-360 1078-740 193-298 197-302 232-270 27 25 77 188 91 299 33 266-23 637-109 718-32 31-151 91-897 450-889 429-1870 885-1951 907-48 13-50 13-99-4zm-498-663c-50-55 19-103 263-185 204-69 417-107 435-77 11 17-45 43-198 90-190 59-213 69-276 123-77 66-187 90-224 49zm4073-832c-181-15-293-38-329-68-17-14-23-40-36-147-9-71-27-204-42-295-16-104-26-209-27-285-1-109 1-120 17-119 27 3 112 65 290 212 164 136 331 272 467 380 98 78 240 226 240 251 0 27-18 38-91 56-78 19-341 27-489 15z"
  />
</svg>
