<svg xmlns="http://www.w3.org/2000/svg" id="root" viewBox="0 0 100 46">
  <path
    d="M 25.269531 40.3125 C 24.042969 40.09375 23.40625 39.941406 23.128906 39.804688 C 23 39.734375 22.84375 39.453125 22.519531 38.679688 C 21.949219 37.332031 21.015625 34.867188 21.015625 34.691406 C 21.015625 34.226562 21.855469 35.089844 22.515625 36.238281 C 23.210938 37.453125 24.175781 38.589844 25.222656 39.433594 C 25.777344 39.882812 26.304688 40.363281 26.304688 40.421875 C 26.304688 40.480469 26.125 40.464844 25.269531 40.3125 Z M 30.464844 41.085938 C 30.191406 40.789062 29.9375 39.875 29.648438 38.152344 C 29.554688 37.589844 29.417969 36.84375 29.351562 36.492188 C 29.152344 35.484375 29.199219 35.414062 30.597656 34.445312 C 31.578125 33.769531 33.070312 32.683594 33.679688 32.207031 C 34.765625 31.355469 35.695312 30.714844 35.847656 30.714844 C 36.011719 30.714844 37.210938 32.011719 38.34375 33.40625 C 39.847656 35.246094 40.859375 36.671875 40.859375 36.953125 C 40.859375 37.089844 40.601562 37.328125 40.347656 37.421875 C 39.386719 37.773438 38.144531 38.238281 37.429688 38.519531 C 35.773438 39.164062 33.851562 39.921875 32.925781 40.296875 C 31.871094 40.730469 31.101562 41.023438 30.835938 41.09375 C 30.738281 41.121094 30.632812 41.148438 30.601562 41.164062 C 30.578125 41.171875 30.515625 41.136719 30.464844 41.085938 Z M 20.933594 43.128906 C 20.367188 42.980469 19.761719 42.898438 18.582031 42.816406 C 17.667969 42.746094 17.378906 42.679688 17.378906 42.53125 C 17.378906 42.414062 17.691406 42.230469 18.304688 41.988281 C 19.3125 41.59375 20.4375 41.265625 21.417969 41.070312 C 21.882812 40.976562 23.222656 40.964844 23.871094 41.046875 C 24.75 41.160156 25.550781 41.359375 25.707031 41.503906 C 25.917969 41.691406 25.113281 42.207031 23.808594 42.722656 C 22.773438 43.128906 22.4375 43.222656 21.882812 43.238281 C 21.472656 43.25 21.359375 43.238281 20.933594 43.128906 Z M 33.851562 45.925781 C 33.6875 45.882812 33.4375 45.789062 33.300781 45.722656 C 32.789062 45.464844 31.964844 45.242188 30.597656 44.992188 C 29.902344 44.867188 29.761719 44.828125 29.945312 44.824219 C 30.679688 44.808594 31.800781 44.734375 32.1875 44.675781 C 32.429688 44.636719 33.210938 44.46875 33.921875 44.292969 C 34.628906 44.121094 35.613281 43.890625 36.097656 43.785156 C 41.132812 42.679688 42.105469 42.441406 44.515625 41.742188 C 45.5 41.460938 46.148438 41.242188 47.308594 40.820312 C 47.800781 40.636719 48.449219 40.402344 48.746094 40.289062 C 55.246094 37.917969 57.511719 36.988281 58.464844 36.308594 C 58.667969 36.164062 59.09375 35.800781 59.414062 35.5 C 60.050781 34.902344 60.300781 34.707031 60.359375 34.765625 C 60.414062 34.824219 60.242188 35.308594 59.835938 36.222656 C 59.007812 38.101562 58.78125 38.304688 56.71875 39.066406 C 55.894531 39.367188 54.113281 40.003906 52.578125 40.542969 C 52.125 40.707031 51.410156 40.960938 50.988281 41.117188 C 48.960938 41.867188 40.910156 44.476562 38.257812 45.242188 C 35.875 45.929688 34.609375 46.125 33.851562 45.925781 Z M 33.851562 45.925781 "
  />
  <path
    d="M 28.1875 40.164062 C 27.859375 40.117188 27.523438 40.007812 26.988281 39.777344 C 25.898438 39.308594 24.9375 38.710938 24.359375 38.132812 C 23.644531 37.421875 22.636719 35.699219 22.675781 35.25 L 22.6875 35.101562 L 23.003906 35.085938 C 23.8125 35.054688 27.53125 35.507812 27.980469 35.691406 C 28.097656 35.742188 28.121094 35.78125 28.203125 36.097656 C 28.492188 37.160156 28.839844 38.964844 28.875 39.554688 C 28.894531 39.953125 28.890625 39.988281 28.804688 40.074219 C 28.757812 40.121094 28.671875 40.164062 28.613281 40.164062 C 28.558594 40.164062 28.488281 40.171875 28.453125 40.179688 C 28.425781 40.1875 28.300781 40.179688 28.1875 40.164062 Z M 45.941406 39.117188 C 45.890625 38.984375 45.921875 37.703125 45.992188 37.132812 C 46.183594 35.648438 46.386719 35.15625 46.753906 35.324219 C 46.933594 35.40625 47.035156 35.667969 47.078125 36.15625 C 47.097656 36.414062 47.144531 36.660156 47.191406 36.753906 C 47.261719 36.902344 47.277344 36.910156 47.421875 36.886719 C 47.726562 36.84375 48.078125 36.46875 48.261719 35.976562 C 48.3125 35.851562 48.367188 35.578125 48.382812 35.378906 C 48.433594 34.835938 48.652344 34.421875 48.9375 34.320312 C 49.046875 34.28125 49.082031 34.289062 49.148438 34.359375 C 49.25 34.460938 49.238281 34.703125 49.082031 35.492188 C 48.847656 36.675781 48.410156 37.367188 47.296875 38.289062 C 46.785156 38.714844 46.121094 39.1875 46.03125 39.1875 C 46.003906 39.1875 45.960938 39.15625 45.941406 39.117188 Z M 41.738281 36.410156 C 41.617188 36.304688 41.40625 36.105469 41.28125 35.972656 C 39.105469 33.71875 36.375 30.582031 36.375 30.34375 C 36.375 30.179688 37.582031 29.117188 39.101562 27.949219 C 40.535156 26.84375 42.71875 25.105469 44.15625 23.917969 C 44.65625 23.507812 45.078125 23.171875 45.097656 23.171875 C 45.113281 23.171875 45.128906 25.867188 45.128906 29.160156 L 45.128906 35.148438 L 43.875 35.765625 C 42.851562 36.269531 42.09375 36.605469 41.980469 36.605469 C 41.964844 36.605469 41.859375 36.515625 41.738281 36.410156 Z M 41.738281 36.410156 "
  />
  <path
    d="M 46.089844 29.09375 C 46.066406 23.628906 46.035156 22.191406 45.914062 21.375 C 45.839844 20.90625 45.78125 20.785156 45.609375 20.742188 C 45.421875 20.699219 44.664062 20.46875 43.863281 20.21875 C 42.601562 19.824219 40.589844 19.339844 39.164062 19.085938 C 37.839844 18.847656 36.636719 18.558594 36.152344 18.363281 C 35.71875 18.1875 35.605469 18.011719 35.863281 17.910156 C 36.226562 17.777344 39.390625 16.859375 40.4375 16.589844 C 41.726562 16.257812 42.65625 16.109375 43.113281 16.15625 C 43.386719 16.1875 43.453125 16.210938 44.878906 16.816406 C 45.328125 17.007812 46.085938 17.3125 46.554688 17.496094 C 47.695312 17.9375 48.472656 18.347656 48.472656 18.503906 C 48.472656 18.515625 48.398438 18.871094 48.300781 19.296875 C 48.09375 20.21875 48.09375 20.351562 48.328125 20.59375 C 48.773438 21.050781 52.402344 22.632812 55.714844 23.8125 L 57.1875 24.339844 L 57.1875 25.589844 C 57.1875 27.730469 57.050781 28.917969 56.765625 29.339844 C 56.253906 30.082031 54.023438 31.300781 50.84375 32.570312 C 49.5625 33.078125 49.128906 33.265625 47.140625 34.15625 C 46.722656 34.347656 46.320312 34.523438 46.246094 34.554688 L 46.117188 34.609375 Z M 52.480469 29.871094 C 53.402344 29.621094 54.234375 29.210938 54.378906 28.929688 C 54.4375 28.816406 54.441406 28.734375 54.414062 28.46875 C 54.324219 27.667969 54.398438 27.457031 54.949219 26.90625 C 55.152344 26.703125 55.335938 26.488281 55.347656 26.421875 C 55.398438 26.21875 55.332031 26.039062 55.039062 25.585938 C 54.632812 24.960938 54.285156 24.539062 53.742188 24 C 53.226562 23.484375 52.964844 23.316406 52.734375 23.359375 C 52.65625 23.375 52.34375 23.539062 52.03125 23.722656 C 51.589844 23.988281 51.425781 24.0625 51.304688 24.0625 C 51.152344 24.0625 51.132812 24.046875 50.910156 23.703125 C 50.78125 23.507812 50.640625 23.324219 50.59375 23.300781 C 50.472656 23.242188 50.265625 23.246094 50.132812 23.316406 C 49.808594 23.488281 49.113281 24.4375 48.792969 25.125 C 48.300781 26.21875 48.21875 27.339844 48.570312 28.261719 C 48.710938 28.632812 48.855469 28.859375 49.167969 29.183594 C 49.585938 29.625 50.019531 29.863281 50.632812 29.996094 C 50.734375 30.015625 51.085938 30.023438 51.414062 30.015625 C 51.914062 30.003906 52.082031 29.980469 52.480469 29.871094 Z M 52.480469 29.871094 "
  />
  <path
    d="M 50.59375 29.34375 C 50.46875 29.3125 50.328125 29.246094 50.277344 29.199219 C 50.195312 29.113281 50.195312 29.109375 50.269531 28.992188 C 50.464844 28.695312 50.914062 28.3125 52.027344 27.496094 L 52.679688 27.015625 L 53.242188 27.59375 C 53.851562 28.222656 53.953125 28.363281 53.890625 28.519531 C 53.832031 28.671875 53.40625 29.003906 53.136719 29.105469 C 52.484375 29.351562 51.121094 29.476562 50.59375 29.34375 Z M 49.367188 28.542969 C 49.089844 28.378906 48.765625 27.621094 48.734375 27.066406 C 48.71875 26.730469 48.730469 26.667969 48.875 26.242188 C 49.136719 25.46875 49.714844 24.425781 49.976562 24.257812 C 50.140625 24.148438 50.21875 24.175781 50.550781 24.460938 C 51.0625 24.898438 51.753906 25.769531 52.015625 26.296875 C 52.136719 26.554688 52.128906 26.652344 51.9375 26.953125 C 51.699219 27.324219 50.722656 28.070312 50.058594 28.390625 C 49.65625 28.582031 49.5 28.617188 49.367188 28.542969 Z M 53.558594 27.273438 C 53.273438 26.914062 53.339844 26.300781 53.707031 25.847656 C 53.992188 25.496094 54.324219 25.398438 54.46875 25.613281 C 54.628906 25.863281 54.566406 26.460938 54.339844 26.796875 C 54.0625 27.210938 53.691406 27.4375 53.558594 27.273438 Z M 52.351562 25.714844 C 52.082031 25.476562 51.925781 25.144531 51.949219 24.867188 C 52.003906 24.3125 52.550781 24.035156 53.15625 24.253906 C 53.355469 24.324219 54.273438 24.953125 54.273438 25.015625 C 54.273438 25.0625 53.292969 25.71875 53.09375 25.804688 C 52.992188 25.851562 52.824219 25.886719 52.730469 25.886719 C 52.578125 25.886719 52.511719 25.855469 52.351562 25.714844 Z M 27.679688 34.527344 C 27.472656 34.507812 27.003906 34.472656 26.644531 34.445312 C 24.9375 34.316406 24.585938 34.183594 24.191406 33.515625 C 23.867188 32.976562 23.753906 32.449219 23.679688 31.203125 C 23.609375 29.984375 23.726562 28.542969 23.964844 27.628906 C 24.222656 26.648438 24.226562 26.507812 23.976562 26.488281 C 23.851562 26.472656 23.808594 26.503906 23.578125 26.746094 C 22.957031 27.390625 22.691406 28.394531 22.636719 30.25 C 22.597656 31.601562 22.707031 32.464844 22.980469 33.082031 C 23.207031 33.585938 23.230469 33.878906 23.046875 33.976562 C 22.699219 34.164062 22.496094 33.402344 22.367188 31.433594 C 22.121094 27.710938 23.207031 24.972656 25.765625 22.886719 C 26.800781 22.042969 28.472656 21.113281 29.4375 20.84375 C 31.730469 20.207031 33.640625 21.03125 34.800781 23.148438 C 35.238281 23.945312 35.378906 24.703125 35.347656 26.074219 C 35.320312 27.222656 35.171875 28.039062 34.828125 28.957031 C 34.347656 30.246094 32.453125 32.484375 31.707031 32.648438 C 31.484375 32.695312 30.648438 33.207031 29.816406 33.8125 C 29.261719 34.210938 28.480469 34.574219 28.195312 34.566406 C 28.125 34.5625 27.890625 34.546875 27.679688 34.527344 Z M 24.605469 26.078125 C 24.855469 25.945312 25.9375 24.773438 26.640625 23.875 C 27.300781 23.027344 27.507812 22.664062 27.332031 22.664062 C 26.972656 22.664062 24.546875 25.019531 24.292969 25.613281 C 24.222656 25.769531 24.277344 26.027344 24.394531 26.09375 C 24.484375 26.148438 24.472656 26.148438 24.605469 26.078125 Z M 72.902344 27.382812 C 71.746094 27.019531 70.382812 26.65625 69.117188 26.371094 C 67.664062 26.046875 65.40625 25.457031 63.46875 24.894531 C 62.300781 24.554688 60.390625 24.042969 58.964844 23.683594 C 56.367188 23.027344 53.582031 22.050781 50.988281 20.882812 C 50.507812 20.660156 50.097656 20.410156 50.019531 20.285156 C 49.949219 20.167969 50.03125 20.082031 50.355469 19.914062 C 50.824219 19.679688 51.160156 19.710938 52.679688 20.148438 C 53.800781 20.472656 55.355469 20.957031 57.082031 21.519531 C 61.304688 22.898438 64.109375 23.503906 67.59375 23.785156 C 69.300781 23.921875 70.214844 23.949219 73.136719 23.953125 C 76.015625 23.953125 76.535156 23.9375 77.9375 23.804688 C 80.347656 23.578125 83.515625 22.773438 86.589844 21.605469 C 88.21875 20.988281 89.394531 20.421875 90.226562 19.863281 C 90.933594 19.390625 91.0625 19.359375 92.28125 19.332031 C 93.933594 19.292969 98.3125 19.554688 99.492188 19.765625 C 99.933594 19.84375 100 19.863281 100 19.910156 C 100 20.054688 97.328125 20.847656 90.101562 22.847656 C 85.738281 24.058594 84.992188 24.269531 83.078125 24.871094 C 82.484375 25.058594 81.238281 25.460938 80.308594 25.765625 C 79.375 26.066406 78.378906 26.394531 78.085938 26.480469 C 77.792969 26.574219 77.367188 26.714844 77.132812 26.792969 C 76.328125 27.066406 74.15625 27.75 74.101562 27.746094 C 74.070312 27.746094 73.535156 27.578125 72.902344 27.382812 Z M 37.777344 27.527344 C 37.824219 27 38.492188 25.917969 39.226562 25.1875 C 39.71875 24.691406 39.917969 24.5625 40.039062 24.660156 C 40.164062 24.765625 40.265625 25.027344 40.265625 25.253906 C 40.265625 25.5625 40.078125 25.886719 39.65625 26.316406 C 39.035156 26.953125 38.027344 27.75 37.847656 27.75 C 37.765625 27.75 37.761719 27.726562 37.777344 27.527344 Z M 37.777344 27.527344 "
  />
  <path
    d="M 35.125 29.65625 C 35.097656 29.609375 35.152344 29.5 35.339844 29.21875 C 35.585938 28.863281 35.707031 28.257812 35.789062 26.996094 C 35.886719 25.46875 35.683594 24.050781 35.226562 23.09375 C 34.804688 22.195312 34.246094 21.585938 33.222656 20.898438 C 32.777344 20.601562 32.566406 20.410156 32.566406 20.316406 C 32.566406 20.15625 32.992188 20.332031 33.1875 20.566406 C 33.371094 20.789062 33.53125 20.886719 33.710938 20.886719 C 33.898438 20.886719 33.941406 20.808594 33.875 20.597656 C 33.808594 20.402344 33.871094 20.363281 34.191406 20.398438 C 34.714844 20.453125 36.011719 20.855469 36.695312 21.175781 C 37.058594 21.347656 37.695312 21.753906 38.121094 22.089844 C 38.832031 22.644531 39.359375 23.25 39.214844 23.339844 C 39.035156 23.453125 38.027344 23.113281 36.949219 22.570312 C 36.167969 22.175781 35.796875 21.960938 35.257812 21.566406 C 34.800781 21.238281 34.28125 20.953125 34.191406 20.988281 C 34 21.058594 34.285156 21.425781 34.855469 21.839844 C 35.710938 22.457031 37.238281 23.261719 38.445312 23.742188 C 39.335938 24.09375 39.417969 24.136719 39.417969 24.226562 C 39.417969 24.277344 39.308594 24.402344 39.15625 24.539062 C 38.289062 25.285156 37.886719 25.871094 37.359375 27.175781 C 36.980469 28.113281 36.476562 28.867188 35.964844 29.277344 C 35.523438 29.628906 35.199219 29.773438 35.125 29.65625 Z M 35.125 29.65625 "
  />
  <path
    d="M 41.222656 24.691406 C 41.167969 24.613281 41.015625 24.320312 40.882812 24.046875 C 40.753906 23.765625 40.535156 23.398438 40.40625 23.21875 C 39.554688 22.089844 37.925781 20.851562 36.382812 20.164062 C 35.589844 19.816406 34.78125 19.40625 34.703125 19.316406 C 34.640625 19.246094 34.636719 19.222656 34.6875 19.164062 C 34.765625 19.066406 35.09375 19.101562 36.148438 19.320312 C 37.371094 19.570312 40.015625 20.1875 41.046875 20.460938 C 41.304688 20.53125 41.816406 20.660156 42.191406 20.757812 C 42.988281 20.964844 44.183594 21.316406 44.523438 21.453125 C 44.65625 21.503906 44.785156 21.574219 44.808594 21.613281 C 44.90625 21.769531 44.644531 22.117188 43.886719 22.828125 C 43.128906 23.539062 41.519531 24.824219 41.386719 24.824219 C 41.351562 24.824219 41.28125 24.761719 41.222656 24.691406 Z M 70.027344 23.441406 C 68.132812 23.386719 66.289062 23.269531 65.378906 23.152344 C 63.757812 22.941406 61.414062 22.390625 58.984375 21.652344 C 57.816406 21.300781 55.945312 20.742188 55.472656 20.609375 C 54.078125 20.210938 52.539062 19.730469 52.167969 19.566406 C 52.066406 19.523438 51.984375 19.472656 51.984375 19.453125 C 51.984375 19.351562 53.167969 18.890625 53.941406 18.683594 C 55.210938 18.347656 55.925781 18.304688 61.4375 18.257812 C 66.824219 18.210938 69.359375 18.140625 73.328125 17.917969 C 76.132812 17.761719 77.382812 17.734375 78.59375 17.789062 C 79.929688 17.847656 80.484375 17.902344 82.464844 18.179688 C 85.984375 18.664062 88.039062 18.898438 89.332031 18.957031 C 89.640625 18.96875 89.917969 18.992188 89.953125 19.003906 C 90.070312 19.050781 90.015625 19.144531 89.753906 19.363281 C 87.878906 20.925781 82.558594 22.714844 78.296875 23.210938 C 76.585938 23.414062 72.710938 23.519531 70.027344 23.441406 Z M 48.917969 19.582031 C 49.144531 19.355469 49.925781 18.6875 50.167969 18.5 C 50.898438 17.957031 51.363281 17.855469 51.699219 18.164062 C 51.863281 18.316406 51.847656 18.460938 51.660156 18.648438 C 51.570312 18.734375 51.457031 18.820312 51.40625 18.847656 C 51.289062 18.90625 49.992188 19.3125 49.445312 19.464844 C 49.226562 19.523438 49.007812 19.589844 48.960938 19.601562 C 48.90625 19.613281 48.886719 19.609375 48.917969 19.582031 Z M 52.507812 18.171875 C 52.320312 18.113281 52.253906 18.027344 52.3125 17.898438 C 52.394531 17.71875 52.550781 17.65625 52.992188 17.613281 C 53.214844 17.597656 53.691406 17.535156 54.042969 17.476562 C 55.003906 17.316406 55.207031 17.320312 55.109375 17.5 C 55 17.710938 54.398438 17.96875 53.707031 18.109375 C 53.289062 18.195312 52.679688 18.222656 52.507812 18.171875 Z M 52.507812 18.171875 "
  />
  <path
    d="M 48.992188 17.871094 C 48.875 17.851562 48.644531 17.789062 48.488281 17.730469 C 48.128906 17.59375 46.265625 16.769531 46.28125 16.753906 C 46.289062 16.746094 46.855469 16.566406 47.542969 16.351562 C 49.324219 15.792969 50.917969 15.210938 53.253906 14.277344 C 56.085938 13.140625 56.75 12.933594 57.179688 13.050781 C 57.785156 13.222656 58.414062 14.492188 58.429688 15.589844 C 58.4375 15.957031 58.425781 16.007812 58.320312 16.191406 C 58.183594 16.417969 57.804688 16.777344 57.503906 16.949219 C 57.136719 17.160156 56.925781 17.15625 56.179688 16.917969 C 55.292969 16.640625 53.589844 16.6875 52.003906 17.03125 C 51.457031 17.152344 51.027344 17.289062 50.375 17.550781 C 49.914062 17.734375 49.308594 17.929688 49.238281 17.914062 C 49.226562 17.910156 49.117188 17.894531 48.992188 17.871094 Z M 57.398438 17.609375 C 57.472656 17.539062 58.5 16.882812 58.703125 16.78125 C 58.976562 16.644531 59.738281 16.386719 60.148438 16.292969 C 60.300781 16.257812 60.644531 16.199219 60.910156 16.160156 C 62.304688 15.957031 65.617188 15.230469 70.132812 14.128906 C 73.199219 13.382812 75.074219 12.941406 79.417969 11.945312 C 82.160156 11.320312 84.394531 10.9375 84.339844 11.101562 C 84.296875 11.230469 82.800781 12.085938 80.898438 13.066406 C 79.640625 13.722656 78.601562 14.273438 77.070312 15.101562 C 73.640625 16.96875 73.441406 17.035156 69.984375 17.285156 C 66.628906 17.527344 65.019531 17.585938 60.972656 17.609375 C 59 17.621094 57.386719 17.621094 57.398438 17.609375 Z M 34.292969 17.136719 C 33.011719 16.878906 29.875 15.976562 29.792969 15.839844 C 29.742188 15.757812 29.8125 15.75 30.183594 15.796875 C 31.632812 15.984375 34.832031 16.855469 35.203125 17.160156 C 35.296875 17.238281 35.296875 17.238281 35.042969 17.238281 C 34.902344 17.238281 34.5625 17.191406 34.292969 17.136719 Z M 37.8125 16.378906 C 37.8125 16.34375 37.953125 16.175781 38.121094 16 C 38.601562 15.503906 39.457031 14.980469 40.371094 14.609375 C 40.925781 14.390625 41.203125 14.480469 41.628906 15.007812 C 41.898438 15.355469 41.886719 15.363281 40.804688 15.679688 C 38.214844 16.429688 37.8125 16.519531 37.8125 16.378906 Z M 45.046875 16.308594 C 44.609375 16.261719 44.15625 16.046875 44.15625 15.886719 C 44.15625 15.71875 44.414062 15.628906 46.476562 15.011719 C 50.804688 13.730469 52.023438 13.347656 54.164062 12.609375 C 55.011719 12.316406 55.613281 12.164062 56.128906 12.125 C 56.78125 12.0625 57 12.1875 56.609375 12.386719 C 56.152344 12.613281 52.945312 13.960938 51.855469 14.378906 C 49.058594 15.445312 47.417969 15.988281 46.335938 16.199219 C 45.714844 16.320312 45.40625 16.351562 45.046875 16.308594 Z M 33.371094 15.820312 C 31.871094 15.503906 26.703125 14.144531 24.148438 13.398438 C 20.324219 12.285156 18.136719 11.492188 16.195312 10.523438 C 14.101562 9.472656 12.488281 8.226562 10.46875 6.078125 C 9.460938 5.003906 8.496094 3.867188 7.964844 3.113281 C 7.789062 2.867188 6.875 1.222656 6.898438 1.199219 C 6.902344 1.195312 7.507812 1.253906 8.242188 1.335938 C 10.511719 1.574219 11.015625 1.75 12.5 2.863281 C 13.402344 3.539062 14.773438 4.378906 16.152344 5.101562 C 18.234375 6.199219 19.488281 6.925781 21.40625 8.144531 C 23.804688 9.671875 25.230469 10.496094 27.914062 11.902344 C 31.046875 13.546875 34.679688 15.679688 34.679688 15.867188 C 34.679688 16.015625 34.195312 16 33.371094 15.820312 Z M 33.371094 15.820312 "
  />
  <path
    d="M 28.675781 15.601562 C 27.925781 15.476562 25.449219 14.824219 21.84375 13.808594 C 21.167969 13.617188 20.21875 13.351562 19.726562 13.214844 C 19.242188 13.078125 18.265625 12.800781 17.570312 12.601562 C 15.035156 11.871094 13.074219 11.3125 12.492188 11.160156 C 11.621094 10.929688 10.28125 10.601562 10.058594 10.570312 C 9.160156 10.425781 8.417969 9.769531 5.363281 6.394531 C 4.933594 5.921875 4.277344 5.195312 3.90625 4.785156 C 1.03125 1.621094 0.117188 0.546875 0.0117188 0.203125 C -0.0820312 -0.078125 0.304688 -0.0703125 2.082031 0.25 C 2.902344 0.398438 5.839844 1.046875 5.875 1.089844 C 5.894531 1.109375 6.179688 1.621094 6.519531 2.230469 C 7.664062 4.296875 8.625 5.554688 10.5 7.4375 C 12.226562 9.167969 12.949219 9.710938 14.671875 10.585938 C 17.128906 11.835938 20.21875 12.960938 24.0625 14.023438 C 25.117188 14.308594 25.691406 14.480469 27.117188 14.914062 C 28.441406 15.324219 28.914062 15.503906 28.863281 15.589844 C 28.847656 15.613281 28.828125 15.628906 28.808594 15.628906 C 28.792969 15.625 28.734375 15.609375 28.675781 15.601562 Z M 33.910156 11.9375 C 27.195312 5.132812 25.78125 3.589844 26.15625 3.445312 C 26.320312 3.382812 27.375 3.722656 28.335938 4.148438 C 29.328125 4.59375 32.867188 5.820312 34.027344 6.121094 C 35.332031 6.464844 35.515625 6.640625 36.121094 8.195312 C 36.8125 9.972656 37.613281 11.621094 38.234375 12.558594 C 38.675781 13.222656 39.207031 14.164062 39.160156 14.207031 C 39.152344 14.214844 38.847656 14.414062 38.488281 14.648438 C 37.773438 15.105469 37.4375 15.292969 37.308594 15.292969 C 37.257812 15.292969 36.042969 14.09375 33.910156 11.9375 Z M 42.273438 15.042969 C 42.117188 14.980469 42.03125 14.835938 42.007812 14.613281 C 41.984375 14.347656 42.054688 14.257812 42.355469 14.164062 C 42.9375 13.992188 45.679688 14.007812 45.679688 14.191406 C 45.679688 14.34375 43.03125 15.085938 42.523438 15.078125 C 42.433594 15.078125 42.320312 15.058594 42.273438 15.042969 Z M 59.492188 14.804688 C 59.1875 14.699219 58.972656 14.40625 58.308594 13.214844 C 58.085938 12.808594 57.890625 12.460938 57.882812 12.445312 C 57.867188 12.429688 57.953125 12.378906 58.0625 12.328125 C 60.109375 11.40625 63.972656 9.902344 66.496094 9.042969 C 69.070312 8.167969 70.015625 7.519531 71.054688 5.90625 C 71.871094 4.644531 71.886719 4.628906 72.035156 4.765625 C 72.152344 4.871094 72.363281 5.558594 72.421875 6.03125 C 72.5625 7.15625 72.324219 8.730469 71.960938 9.074219 C 71.824219 9.203125 71.320312 9.457031 68.164062 10.980469 C 64.40625 12.796875 60.253906 14.730469 59.910156 14.824219 C 59.710938 14.878906 59.699219 14.878906 59.492188 14.804688 Z M 57.386719 11.996094 C 57.175781 11.761719 57.46875 11.558594 58.5 11.210938 C 59.363281 10.921875 60.261719 10.757812 60.339844 10.886719 C 60.386719 10.957031 60.148438 11.070312 59.5 11.269531 C 58.699219 11.515625 58.601562 11.558594 58.335938 11.789062 C 58.007812 12.066406 57.542969 12.171875 57.386719 11.996094 Z M 74.617188 8.472656 C 73.851562 8.40625 73.378906 8.308594 73.226562 8.183594 C 73.152344 8.125 73.128906 8.011719 73.074219 7.558594 C 73.035156 7.257812 72.957031 6.695312 72.894531 6.308594 C 72.828125 5.871094 72.785156 5.425781 72.78125 5.101562 C 72.777344 4.640625 72.785156 4.59375 72.851562 4.597656 C 72.96875 4.613281 73.328125 4.875 74.078125 5.496094 C 74.773438 6.074219 75.480469 6.648438 76.054688 7.105469 C 76.46875 7.4375 77.070312 8.066406 77.070312 8.171875 C 77.070312 8.285156 76.996094 8.332031 76.6875 8.40625 C 76.355469 8.488281 75.242188 8.523438 74.617188 8.472656 Z M 74.617188 8.472656 "
  />
</svg>
