<svg xmlns="http://www.w3.org/2000/svg" id="root" viewBox="0 0 115 134">
  <path
    fill-rule="evenodd"
    d="M49 0v16l-1-3-1-1v62l-1 1v17h4v1h-4v2h4v1h-4v1h4v2h-4v28h-9l-1-5c-1-17-3-34-7-51l1-1-1-13v12l-1-5-2-3v27h2v1h-2v1h2v1h-2v1h2v1h-2v5l-1 1v4h-4l4 1v23h-2l-3 4h5v3h14l-1-3h8v1l23 2v-3h46v-12h-15l-2-16-1-1v17h-2l-1 1-1-11v11l-7 3h-2a1 1 0 0 1-2 0 1 1 0 0 1 0-1 1 1 0 0 1 1 0v-2h-7l-1 3h-7l-4-16 7-2h-7l-1-3-8-57 1-2-1-18-1-3v16l-4-17V2l-1-2zm0 41a1 1 0 0 1 0 2 1 1 0 0 1-1-1l1-1zm-1 8h1a1 1 0 1 1 0 1 1 1 0 0 1-1-1zm1 7a1 1 0 0 1 0 2 1 1 0 0 1-1-1l1-1zm2 55a3 3 0 1 1 0 5 3 3 0 0 1 0-5zm-24 2a1 1 0 0 1 0 2 1 1 0 0 1 0-2zm24 7a2 2 0 0 1 0 4 2 2 0 0 1 0-4zm28 2a1 1 0 0 1 0 1v-1zm-20 3h2v5h-2v-5zm8 1h16v2H67v-2zm20 1a1 1 0 0 1 0 1v-1zm-62 1h7v2h-7v-2zm-19-9-6 13 9-1v-12z"
  />
</svg>
