<svg xmlns="http://www.w3.org/2000/svg" id="root" viewBox="0 0 115 134">
  <g fill-rule="evenodd">
    <path fill="#1d2530" d="M49 131H20l3-4h26z" />
    <path fill="#232c39" d="M76 120h7v5h-9z" />
    <path fill="#232c39" d="M115 131H60l4-8h22l9-4h20z" />
    <path fill="#fff1c5" d="M67 126h16v2H67z" />
    <path fill="#232c39" d="M60 105h11l-11 3zm-39-2h4v1l-4-1z" />
    <path
      fill="#232c39"
      d="M54 22v16l-4-17V2l-1-2v16l-1-3-1-1v62l-1 1v57l23 2c-1-11-3-22-6-32l-8-57 1-2-1-18zM26 61v37l-1 1v35h14l-3-12c-1-19-4-39-8-58z"
    />
    <path
      fill="#1d2530"
      d="M47 60h1l3 2V34l-4-19zm0 14V62l5 6v11l-3-4zm-1 1zM25 99v34l3-2v-30zm1-36v35h1l1 1V72zm35 68-1-3-8-1V86l-6-11v57l7 1z"
    />
    <path fill="#232c39" d="M9 131v-12H6l-6 13z" />
    <path fill="#666b65" d="M29 57v14l1-1-1-13z" />
    <path fill="#232c39" d="m93 109 1 12-1 1v-14zm4 10v-17l1 1 2 17z" />
    <path
      fill="#fff1c5"
      d="M87 127a1 1 0 0 1 0 1v-1m4 0a1 1 0 1 1 0 1 1 1 0 0 1 0-1m3 0a1 1 0 0 1 0 1v-1m-43-16a3 3 0 1 1 0 5 3 3 0 0 1 0-5m0 9a2 2 0 1 1 0 4 2 2 0 0 1 0-4m-2-79a1 1 0 1 1 0 2 1 1 0 0 1-1-1l1-1m0 8a1 1 0 1 1 0 1 1 1 0 0 1-1-1h1m0 7a1 1 0 1 1 0 2 1 1 0 0 1-1-1l1-1m-22 57a1 1 0 1 1 0 2 1 1 0 0 1 0-2m0 4a1 1 0 1 1 0 1 1 1 0 0 1 0-1m0 4a1 1 0 1 1 0 1 1 1 0 0 1 0-1m18-26h5v1h-5zm0 2h5v2h-5zm0-5h5v1h-5zm-20 36h7v2h-7zm1-38h2-2zm0 2h2-2zm0-4h2v1h-2zm33 37h2v5h-2zm20-3a1 1 0 0 1 0 1v-1m3 0a1 1 0 1 1 0 1 1 1 0 0 1 0-1"
    />
    <path fill="#47596c" d="M113 130h2v-11h-2z" />
  </g>
</svg>
