<svg xmlns="http://www.w3.org/2000/svg" id="root" viewBox="0 0 99 52">
  <g>
    <path
      style="stroke: none; fill-rule: nonzero; fill: rgb(91.764706%, 94.509804%, 85.490196%); fill-opacity: 1"
      d="M 12.15625 51.539062 C 12.433594 51.199219 12.15625 50.800781 10.773438 49.570312 C 9.085938 48.0625 8.996094 48.003906 7.582031 48.1875 C 5.15625 48.464844 3.316406 47.019531 2.824219 44.40625 C 2.488281 42.4375 4.449219 40.285156 6.628906 40.285156 C 7.460938 40.285156 7.734375 40.070312 8.65625 38.59375 C 9.238281 37.671875 9.730469 36.808594 9.730469 36.65625 C 9.730469 36.53125 9.148438 36.070312 8.441406 35.671875 C 6.753906 34.71875 5.003906 33.089844 4.144531 31.734375 C 3.777344 31.089844 3.101562 30.105469 2.640625 29.519531 C 2.179688 28.9375 1.410156 27.492188 0.921875 26.292969 C 0.09375 24.171875 0.0625 24.015625 0.0625 17.988281 L 0.0625 11.839844 L 1.257812 8.855469 C 2.546875 5.628906 3.960938 3.75 6.875 1.382812 L 8.566406 0 L 11.605469 0 C 14.429688 0 14.644531 0.03125 14.644531 0.613281 C 14.644531 1.445312 13.507812 2.398438 12.035156 2.859375 C 10.804688 3.230469 9.269531 4.304688 8.65625 5.289062 L 7.058594 7.472656 C 6.324219 8.425781 5.496094 9.71875 5.21875 10.363281 C 4.910156 10.976562 4.449219 11.746094 4.175781 12.023438 C 3.5625 12.640625 3.132812 17.28125 3.46875 20.203125 C 3.777344 23.308594 6.414062 28.136719 8.996094 30.472656 C 12.496094 33.765625 17.183594 35.496094 21.980469 35.269531 C 24.648438 35.054688 28.425781 33.609375 30.757812 31.890625 C 32.847656 30.382812 34.902344 28.074219 34.902344 27.308594 C 34.902344 26.96875 35.425781 26.628906 36.53125 26.261719 C 37.390625 25.984375 38.21875 25.617188 38.3125 25.429688 C 38.433594 25.277344 39.140625 25.0625 39.9375 25 C 41.351562 24.816406 41.351562 24.816406 41.351562 25.769531 C 41.351562 26.601562 41.195312 26.785156 40.367188 27 C 39.601562 27.183594 39.324219 27.492188 38.925781 28.597656 C 38.125 30.84375 34.105469 34.71875 30.667969 36.59375 C 27.71875 38.257812 24.410156 39.164062 21.027344 39.238281 C 18.328125 39.421875 15.777344 39.023438 13.078125 37.976562 C 12.707031 37.855469 12.277344 38.347656 11.328125 39.976562 C 10.160156 42.007812 10.097656 42.191406 10.53125 42.988281 C 10.746094 43.453125 10.960938 44.25 10.960938 44.804688 C 10.960938 45.664062 11.203125 45.941406 12.769531 47.019531 C 14.398438 48.125 14.613281 48.21875 14.980469 47.785156 C 15.472656 47.171875 16.390625 46.804688 18.757812 46.25 C 20.445312 45.820312 20.691406 45.851562 22.441406 46.464844 C 25.078125 47.355469 26.15625 48.09375 27.042969 49.664062 C 28.242188 51.691406 28.148438 51.96875 26.214844 51.96875 C 24.957031 51.96875 24.527344 51.847656 24.21875 51.355469 C 23.605469 50.339844 21.457031 49.171875 20.199219 49.140625 C 19 49.140625 17.128906 50.09375 16.054688 51.324219 C 15.59375 51.847656 15.101562 51.96875 13.628906 51.96875 C 12.09375 51.96875 11.847656 51.90625 12.15625 51.539062 Z M 74.65625 51.230469 C 71.964844 50.496094 69.523438 49.039062 67.597656 47.019531 C 64.957031 44.742188 63.207031 41.605469 62.652344 38.160156 C 61.980469 35.242188 61.949219 34.59375 62.195312 31.796875 C 62.347656 30.074219 62.625 28.382812 62.808594 28.046875 C 63.054688 27.582031 63.023438 27.335938 62.683594 27.0625 C 62.4375 26.84375 62.222656 26.570312 62.222656 26.414062 C 62.222656 25.953125 64.433594 26.109375 64.957031 26.570312 C 65.386719 26.96875 70.234375 28.691406 70.390625 28.507812 L 70.636719 27.800781 C 70.789062 27.246094 70.667969 27.121094 69.867188 26.9375 C 69.347656 26.84375 68.578125 26.753906 68.179688 26.753906 C 67.78125 26.753906 67.441406 26.628906 67.441406 26.445312 C 67.441406 26.292969 67.226562 26.136719 66.953125 26.136719 C 66.246094 26.136719 64.371094 23.925781 64.371094 23.09375 C 64.371094 22.539062 64.464844 22.449219 64.773438 22.726562 C 65.109375 22.972656 65.507812 22.664062 66.613281 21.21875 C 67.472656 20.109375 68.546875 19.128906 69.347656 18.726562 L 70.726562 18.019531 C 70.757812 17.988281 70.511719 17.066406 70.207031 15.929688 L 69.589844 13.929688 L 67.71875 13.746094 C 64.710938 13.40625 62.746094 11.992188 61.332031 9.164062 C 59.800781 6.121094 60.074219 2.828125 62.007812 0.675781 C 62.625 0 62.714844 0 71.097656 0 L 79.570312 0.03125 L 78.21875 0.832031 L 76.898438 1.628906 L 77.113281 4.183594 C 77.296875 6.613281 77.265625 6.828125 76.375 8.671875 C 75.453125 10.609375 73.859375 12.609375 73.214844 12.609375 C 72.84375 12.609375 73.03125 14.082031 73.550781 15.4375 L 73.859375 16.238281 L 75.300781 15.804688 C 76.222656 15.527344 78.15625 15.375 80.671875 15.375 C 84.234375 15.375 84.816406 15.46875 87.027344 16.265625 C 90.34375 17.496094 92.613281 19.035156 94.425781 21.25 C 96.878906 24.308594 98.394531 28.015625 98.785156 31.917969 C 99.09375 34.410156 99.09375 35.085938 98.601562 37.148438 C 97.957031 39.882812 96.757812 42.714844 95.410156 44.679688 C 92.851562 47.625 89.660156 49.945312 86.078125 51.476562 C 84.234375 52.277344 77.449219 52.121094 74.65625 51.230469 Z M 85.585938 48.21875 C 87.242188 47.632812 90.589844 45.386719 91.632812 44.128906 C 92.828125 42.652344 95.992188 35.734375 95.992188 34.5625 C 95.992188 32.902344 95.378906 31.398438 94.457031 30.75 L 93.535156 30.105469 L 93.535156 34.75 L 92.183594 34.75 C 90.894531 34.75 90.773438 34.65625 90.097656 33.457031 C 89.238281 31.917969 88.316406 31.582031 85.707031 31.859375 C 83.589844 32.074219 82.023438 32.65625 81.042969 33.582031 C 80.488281 34.101562 80.335938 34.59375 80.335938 35.703125 C 80.335938 36.5 80.457031 37.238281 80.613281 37.332031 C 81.195312 37.699219 82.484375 40.867188 82.484375 41.914062 C 82.484375 42.960938 82.390625 43.050781 81.65625 43.050781 C 81.164062 43.050781 80.613281 43.175781 80.367188 43.328125 C 79.722656 43.757812 80.367188 45.234375 81.59375 46.066406 C 82.175781 46.464844 82.792969 47.078125 82.976562 47.449219 C 83.191406 47.785156 83.589844 48.1875 83.898438 48.308594 L 84.511719 48.554688 C 84.542969 48.585938 85 48.433594 85.585938 48.21875 Z M 73.644531 46.527344 C 74.535156 45.726562 74.320312 45.511719 72.570312 45.511719 C 71.125 45.511719 70.851562 45.417969 70.265625 44.589844 C 69.285156 43.296875 69.375 41.945312 70.511719 40.867188 C 71.554688 39.851562 72.691406 39.730469 74.378906 40.4375 C 75.300781 40.804688 75.484375 40.804688 75.609375 40.4375 C 75.792969 39.945312 74.996094 38.683594 73.765625 37.546875 C 73.152344 36.960938 72.96875 36.5 72.96875 35.488281 C 72.96875 34.070312 73.488281 33.519531 74.78125 33.519531 C 75.117188 33.519531 75.484375 33.363281 75.609375 33.148438 C 75.761719 32.902344 75.609375 32.871094 75.085938 33.027344 C 74.6875 33.117188 73.03125 33.304688 71.433594 33.394531 C 68.671875 33.582031 68.457031 33.550781 67.410156 32.84375 C 66.550781 32.226562 66.214844 32.136719 65.847656 32.410156 C 65.386719 32.75 65.386719 32.84375 65.847656 33.425781 C 66.152344 33.765625 66.675781 34.226562 67.074219 34.410156 C 67.566406 34.6875 67.75 35.054688 67.75 35.824219 C 67.75 36.808594 67.65625 36.902344 66.859375 36.902344 C 66.367188 36.902344 65.664062 37.148438 65.261719 37.484375 L 64.558594 38.039062 L 66.308594 40.777344 C 68.210938 43.820312 69.746094 45.417969 71.585938 46.371094 C 73.089844 47.171875 72.96875 47.140625 73.644531 46.527344 Z M 81.132812 27.859375 C 81.71875 27.246094 81.6875 27.152344 80.734375 26.96875 C 80.242188 26.875 79.570312 26.722656 79.199219 26.601562 C 78.585938 26.414062 78.492188 26.476562 78.492188 27.152344 C 78.492188 27.828125 78.648438 27.953125 79.507812 28.074219 L 80.582031 28.230469 C 80.644531 28.261719 80.886719 28.105469 81.132812 27.859375 Z M 75.609375 27.675781 C 75.855469 27.675781 76.039062 27.460938 76.039062 27.214844 C 76.039062 26.9375 75.761719 26.753906 75.363281 26.753906 C 74.964844 26.753906 74.351562 26.660156 73.980469 26.570312 C 73.550781 26.445312 73.273438 26.507812 73.273438 26.722656 C 73.273438 26.90625 73.488281 27.0625 73.734375 27.0625 C 73.980469 27.0625 74.195312 27.277344 74.195312 27.554688 C 74.195312 27.890625 74.351562 27.984375 74.6875 27.859375 C 74.964844 27.769531 75.363281 27.675781 75.609375 27.675781 Z M 77.695312 20.757812 C 79.539062 20.726562 80.027344 20.601562 80.582031 20.050781 C 81.5625 19.066406 84.140625 19.128906 86.199219 20.140625 C 87.058594 20.601562 88.101562 21.066406 88.5625 21.25 C 89.332031 21.527344 89.300781 21.496094 88.316406 20.601562 C 85.535156 18.285156 81.941406 17.175781 78.339844 17.527344 C 75.640625 17.929688 71.433594 19.621094 71.433594 20.328125 C 71.433594 20.449219 71.984375 20.632812 72.628906 20.757812 C 73.304688 20.878906 73.921875 21.1875 74.011719 21.433594 C 74.195312 21.863281 74.289062 21.863281 74.839844 21.339844 C 75.300781 20.941406 75.976562 20.789062 77.695312 20.757812 Z M 77.695312 20.757812 "
    />
    <path
      style="stroke: none; fill-rule: nonzero; fill: rgb(91.764706%, 94.509804%, 85.490196%); fill-opacity: 1"
      d="M 84.632812 45.851562 C 84.296875 45.632812 84.171875 44.957031 84.171875 43.453125 L 84.171875 41.359375 L 85.214844 41.269531 C 86.351562 41.144531 88.808594 41.699219 89.484375 42.222656 C 89.667969 42.375 89.851562 43.050781 89.851562 43.726562 C 89.851562 44.835938 89.761719 44.957031 88.714844 45.417969 C 87.242188 46.035156 85.214844 46.25 84.632812 45.851562 Z M 44.234375 51.167969 C 44.328125 50.894531 44.417969 50.277344 44.417969 49.785156 C 44.417969 49.046875 44.542969 48.894531 45.1875 48.894531 C 45.894531 48.894531 45.953125 49.015625 45.953125 50.277344 C 45.953125 51.632812 45.921875 51.660156 45.003906 51.660156 C 44.265625 51.660156 44.082031 51.570312 44.234375 51.167969 Z M 16.484375 28.445312 C 16.484375 27.429688 16.546875 27.367188 17.558594 27.367188 C 18.570312 27.367188 18.632812 27.429688 18.632812 28.445312 C 18.632812 29.460938 18.570312 29.519531 17.558594 29.519531 C 16.546875 29.519531 16.484375 29.460938 16.484375 28.445312 Z M 26.308594 27.828125 C 26.308594 26.816406 26.371094 26.753906 27.382812 26.753906 C 28.394531 26.753906 28.457031 26.816406 28.457031 27.828125 C 28.457031 28.84375 28.394531 28.90625 27.382812 28.90625 C 26.371094 28.90625 26.308594 28.84375 26.308594 27.828125 Z M 37.972656 21.21875 C 37.972656 21.066406 37.757812 20.910156 37.511719 20.910156 C 37.207031 20.910156 37.050781 20.574219 37.050781 19.835938 C 37.050781 19.128906 37.207031 18.757812 37.480469 18.757812 C 38.21875 18.757812 38.3125 16.050781 37.605469 14.144531 C 37.265625 13.222656 36.898438 11.992188 36.746094 11.4375 C 35.886719 7.964844 30.421875 2.738281 26.277344 1.445312 C 25.480469 1.199219 25.078125 0.890625 25.078125 0.554688 C 25.078125 0.0625 25.449219 0 28.304688 0 C 31.128906 0 31.742188 0.09375 33.03125 0.769531 C 35.515625 2.03125 38.1875 5.535156 40.367188 10.457031 C 41.164062 12.238281 41.441406 13.347656 41.566406 15.3125 C 41.6875 17.160156 41.871094 17.835938 42.148438 17.835938 C 42.667969 17.835938 42.699219 18.328125 42.210938 18.941406 C 40.613281 20.941406 39.84375 21.527344 38.925781 21.527344 C 38.402344 21.527344 37.972656 21.402344 37.972656 21.21875 Z M 53.628906 12.761719 C 53.628906 11.101562 53.660156 11.070312 54.488281 11.070312 C 55.378906 11.070312 55.378906 11.070312 55.164062 12.484375 C 54.980469 13.746094 54.519531 14.421875 53.875 14.453125 C 53.722656 14.453125 53.628906 13.683594 53.628906 12.761719 Z M 52.09375 8.765625 C 52.09375 7.75 52.15625 7.6875 53.167969 7.6875 C 54.179688 7.6875 54.242188 7.75 54.242188 8.765625 C 54.242188 9.777344 54.179688 9.839844 53.167969 9.839844 C 52.15625 9.839844 52.09375 9.777344 52.09375 8.765625 Z M 48.71875 6.304688 C 48.71875 5.257812 48.746094 5.226562 49.945312 5.226562 C 51.140625 5.226562 51.171875 5.257812 51.171875 6.304688 C 51.171875 7.347656 51.140625 7.378906 49.945312 7.378906 C 48.746094 7.378906 48.71875 7.347656 48.71875 6.304688 Z M 48.71875 6.304688 "
    />
    <path
      style="stroke: none; fill-rule: nonzero; fill: rgb(87.843137%, 89.019608%, 70.588235%); fill-opacity: 1"
      d="M 44.234375 51.140625 C 44.296875 50.648438 44.480469 48.894531 44.574219 47.203125 C 44.664062 45.511719 44.820312 43.636719 44.910156 43.019531 C 45.0625 42.007812 45.003906 41.882812 44.296875 41.699219 C 43.285156 41.453125 43.285156 41.023438 44.417969 38.378906 C 45.25 36.441406 45.339844 35.980469 45.15625 34.316406 C 45.035156 33.273438 44.417969 31.121094 43.804688 29.519531 C 42.761719 26.90625 42.546875 26.601562 41.902344 26.691406 L 39.660156 26.84375 C 37.726562 26.96875 35.792969 27.613281 35.886719 28.105469 C 36.007812 28.691406 34.226562 30.8125 33.953125 30.414062 C 33.796875 30.136719 32.96875 30.136719 30.542969 30.445312 C 26.308594 30.964844 23.054688 31.304688 19.648438 31.550781 C 16.332031 31.796875 15.625 31.519531 14.644531 29.460938 C 14 28.105469 13.90625 27.183594 14.214844 25.554688 C 14.398438 24.632812 14.488281 24.601562 15.902344 24.601562 C 16.699219 24.601562 17.46875 24.753906 17.558594 24.910156 C 17.898438 25.429688 18.328125 25.246094 18.328125 24.570312 C 18.328125 23.925781 18.234375 23.894531 16.269531 24.078125 C 15.101562 24.171875 12.523438 24.691406 10.5 25.214844 C 8.472656 25.707031 6.261719 26.136719 5.554688 26.136719 C 4.328125 26.136719 4.234375 26.078125 3.46875 24.601562 C 3.039062 23.769531 2.640625 22.539062 2.578125 21.863281 L 2.488281 20.664062 L 4.328125 20.511719 L 8.136719 20.109375 L 10.070312 19.894531 L 8.75 19.128906 C 6.785156 18.019531 4.144531 16.265625 3.375 15.558594 C 2.425781 14.730469 2.363281 11.992188 3.285156 11.070312 C 3.621094 10.730469 3.898438 10.332031 3.898438 10.148438 C 3.898438 9.65625 5.003906 9.777344 5.464844 10.332031 C 6.324219 11.378906 11.296875 14.945312 14.734375 16.972656 C 15.960938 17.683594 16.207031 17.742188 15.839844 17.28125 C 15.441406 16.699219 12.738281 13.53125 10.4375 10.917969 C 9.824219 10.238281 8.996094 8.949219 8.59375 8.085938 C 7.980469 6.765625 7.707031 6.457031 7.089844 6.457031 C 6.140625 6.457031 6.171875 6.148438 7.121094 5.226562 C 7.550781 4.828125 7.890625 4.398438 7.890625 4.242188 C 7.890625 3.722656 9.824219 2.304688 11.019531 1.96875 L 12.1875 1.597656 L 12.125 2.738281 C 12.09375 3.503906 12.464844 4.519531 13.230469 5.996094 C 14.519531 8.394531 15.257812 9.347656 14.550781 7.6875 C 14.273438 7.101562 13.691406 5.472656 13.230469 4.089844 L 12.371094 1.597656 L 13.136719 0.800781 C 13.753906 0.121094 14.152344 0 15.59375 0 L 17.34375 0 L 18.019531 1.9375 C 18.910156 4.304688 21.058594 8.734375 22.53125 11.195312 C 23.882812 13.4375 27.351562 18.175781 28.792969 19.710938 L 31.1875 22.292969 L 32.507812 23.738281 L 33.523438 23.1875 L 35.792969 21.742188 C 37.082031 20.878906 37.113281 20.847656 36.53125 20.234375 C 36.222656 19.894531 35.210938 19.035156 34.289062 18.359375 C 28.304688 13.898438 21.089844 4.859375 21.089844 1.785156 C 21.089844 0.613281 21.089844 0.613281 22.316406 0.613281 C 23.332031 0.613281 23.789062 0.832031 24.710938 1.722656 C 26.613281 3.566406 31.066406 6.367188 35.300781 8.332031 C 36.929688 9.101562 37.421875 9.503906 37.542969 10.117188 C 37.636719 10.546875 37.972656 11.59375 38.3125 12.421875 C 38.617188 13.253906 38.894531 14.054688 38.894531 14.175781 C 38.894531 14.574219 37.234375 14.515625 36.804688 14.082031 C 36.621094 13.898438 36.375 13.808594 36.285156 13.898438 C 36.191406 13.960938 36.804688 14.515625 37.667969 15.097656 L 39.171875 16.144531 L 38.984375 18.449219 L 38.800781 20.757812 L 39.875 19.679688 C 40.460938 19.066406 41.011719 18.449219 41.074219 18.265625 C 41.136719 18.113281 42.855469 17.683594 44.878906 17.34375 L 48.5625 16.757812 L 48.65625 15.621094 C 48.71875 14.730469 48.625 14.421875 48.132812 14.144531 C 47.550781 13.839844 47.488281 13.53125 47.488281 11.007812 C 47.488281 9.472656 47.335938 7.75 47.121094 7.195312 C 46.875 6.519531 46.875 5.8125 47.058594 4.890625 C 47.335938 3.597656 47.398438 3.535156 48.316406 3.628906 C 48.871094 3.691406 49.824219 3.445312 50.527344 3.105469 C 52.0625 2.304688 53.015625 2.277344 53.230469 3.042969 C 53.351562 3.476562 53.78125 3.660156 55.195312 3.8125 C 56.945312 4.027344 57.003906 4.058594 56.820312 4.796875 C 56.699219 5.226562 56.761719 5.535156 56.976562 5.535156 C 57.621094 5.535156 57.3125 6.121094 56.390625 6.671875 C 55.5625 7.164062 55.46875 7.347656 55.46875 8.765625 C 55.46875 11.070312 55.101562 13.53125 54.824219 13.347656 C 54.671875 13.253906 54.640625 13.375 54.734375 13.621094 C 54.824219 13.867188 54.671875 14.144531 54.425781 14.238281 C 54.152344 14.359375 53.9375 14.792969 53.9375 15.222656 C 53.9375 16.144531 54.519531 16.453125 58.632812 17.558594 C 61.089844 18.234375 61.304688 18.359375 61.304688 19.066406 C 61.332031 19.621094 61.792969 20.203125 63.054688 21.21875 C 64.003906 21.988281 65.386719 23.1875 66.121094 23.894531 C 66.921875 24.664062 67.65625 25.125 67.902344 25 C 68.210938 24.910156 68.363281 25.03125 68.363281 25.398438 C 68.363281 25.890625 68.425781 25.921875 68.671875 25.523438 C 68.886719 25.214844 68.976562 25.183594 68.976562 25.460938 C 68.976562 25.707031 69.222656 25.769531 69.746094 25.644531 C 70.207031 25.523438 70.511719 25.585938 70.511719 25.800781 C 70.511719 25.984375 70.726562 26.136719 70.972656 26.136719 C 71.21875 26.136719 71.433594 26.015625 71.433594 25.863281 C 71.433594 25.308594 72.445312 25.214844 74.535156 25.585938 C 76.253906 25.863281 76.835938 25.832031 77.417969 25.523438 C 77.847656 25.308594 78.277344 25.214844 78.402344 25.308594 C 78.492188 25.429688 78.769531 25.246094 79.015625 24.910156 C 79.597656 24.078125 80.644531 24.109375 80.644531 24.910156 C 80.644531 25.308594 80.429688 25.523438 80.027344 25.523438 C 79.570312 25.523438 79.414062 25.738281 79.414062 26.261719 C 79.414062 26.691406 79.261719 27.121094 79.046875 27.246094 C 78.585938 27.523438 79.539062 27.921875 80.734375 27.953125 C 81.347656 27.984375 81.5625 28.136719 81.5625 28.597656 C 81.5625 29.335938 81.101562 29.367188 78.339844 28.875 C 76.652344 28.597656 76.160156 28.628906 74.351562 29.183594 C 73.214844 29.550781 71.894531 29.828125 71.433594 29.828125 C 70.265625 29.828125 64.679688 28.074219 64.035156 27.492188 C 63.757812 27.246094 63.421875 27.0625 63.269531 27.121094 C 63.113281 27.152344 62.410156 26.875 61.703125 26.507812 C 60.996094 26.136719 60.289062 25.832031 60.136719 25.832031 C 59.984375 25.832031 59.554688 27.246094 59.15625 28.9375 C 58.21875 32.113281 58.261719 35.5 59.277344 38.652344 L 60.015625 40.4375 L 59.339844 40.867188 L 58.632812 41.328125 C 58.632812 41.359375 58.847656 43.636719 59.183594 46.433594 L 59.769531 51.753906 C 59.769531 51.878906 59.371094 51.96875 58.847656 51.96875 C 58.324219 51.96875 57.925781 51.816406 57.925781 51.601562 C 57.925781 50.1875 57.21875 44.097656 57.066406 43.914062 C 56.945312 43.789062 56.546875 43.757812 56.144531 43.851562 C 55.59375 44.003906 55.46875 44.25 55.46875 45.359375 C 55.46875 46.585938 55.378906 46.710938 54.582031 46.894531 C 53.75 47.078125 53.722656 47.140625 53.964844 48.21875 C 54.121094 48.832031 54.242188 49.941406 54.242188 50.675781 C 54.242188 51.90625 54.210938 51.96875 53.320312 51.96875 C 52.492188 51.96875 52.402344 51.878906 52.371094 50.984375 C 52.371094 50.433594 52.246094 49.695312 52.125 49.355469 C 51.941406 48.894531 51.816406 49.171875 51.664062 50.371094 C 51.480469 51.816406 51.386719 51.96875 50.710938 51.96875 C 49.976562 51.96875 49.945312 51.90625 49.945312 49.816406 C 49.945312 47.726562 49.914062 47.664062 49.175781 47.664062 C 48.503906 47.664062 48.410156 47.542969 48.410156 46.617188 L 48.410156 45.574219 L 50.683594 45.050781 C 52.460938 44.679688 52.953125 44.464844 52.800781 44.097656 C 52.675781 43.757812 52.554688 43.726562 52.214844 44.003906 C 51.785156 44.34375 48.164062 44.21875 47.089844 43.820312 C 46.753906 43.667969 46.628906 44.25 46.476562 46.804688 C 46.167969 51.570312 46.046875 51.96875 44.972656 51.96875 C 44.144531 51.96875 44.082031 51.878906 44.234375 51.140625 Z M 50.527344 39.605469 C 50.710938 38.5625 50.835938 37.671875 50.773438 37.640625 L 48.839844 37.363281 L 46.9375 37.148438 L 46.445312 38.625 C 46.167969 39.421875 45.984375 40.097656 46.046875 40.128906 C 46.230469 40.316406 49.546875 41.484375 49.824219 41.484375 C 50.039062 41.515625 50.34375 40.652344 50.527344 39.605469 Z M 57.589844 39.761719 C 57.621094 39.730469 57.433594 39.144531 57.128906 38.46875 C 56.605469 37.238281 56.546875 37.207031 55.070312 37.207031 C 53.75 37.207031 53.597656 37.269531 53.78125 37.761719 L 54.304688 39.730469 L 54.640625 41.144531 L 56.054688 40.5 Z M 50.867188 29.460938 C 50.867188 27 50.3125 18.417969 50.160156 18.265625 C 50.128906 18.203125 48.839844 18.449219 47.335938 18.820312 L 43.898438 19.558594 C 43.3125 19.679688 43.222656 19.925781 43.128906 21.308594 L 43.039062 22.910156 L 41.902344 23 C 40.949219 23.09375 40.734375 23 40.734375 22.539062 C 40.707031 22.046875 40.675781 22.046875 40.335938 22.449219 C 38.113281 24.53125 35.398438 26.011719 32.449219 26.753906 C 30.605469 27.183594 29.46875 27.644531 30.296875 27.644531 C 31.128906 27.644531 34.042969 26.84375 37.421875 25.707031 C 39.230469 25.09375 40.921875 24.601562 41.164062 24.601562 C 41.441406 24.601562 41.65625 24.324219 41.65625 23.953125 C 41.65625 23.433594 41.808594 23.339844 42.761719 23.433594 C 43.898438 23.523438 43.898438 23.523438 44.941406 26.445312 L 46.445312 30.691406 L 46.9375 31.980469 L 50.867188 31.980469 Z M 56.730469 31.152344 C 57.464844 29.273438 58.570312 24.324219 58.753906 22.109375 L 58.941406 19.742188 L 57.773438 19.375 C 56.421875 18.941406 53.199219 18.144531 53.105469 18.265625 C 53.078125 18.296875 53.136719 21.402344 53.230469 25.15625 L 53.414062 31.980469 L 54.917969 31.980469 C 56.269531 31.980469 56.453125 31.890625 56.730469 31.152344 Z M 21.304688 28.660156 C 21.734375 28.507812 21.917969 28.320312 21.765625 28.074219 C 21.425781 27.554688 19.246094 27.921875 19.246094 28.476562 C 19.246094 28.9375 20.136719 29 21.304688 28.660156 Z M 70.511719 27.523438 C 70.511719 27.214844 70.207031 27.0625 69.683594 27.0625 C 68.027344 27.0625 66.214844 26.199219 63.359375 24.109375 C 61.332031 22.601562 60.996094 22.480469 60.996094 23.339844 C 60.996094 23.800781 61.886719 24.386719 64.773438 25.769531 C 69.714844 28.199219 70.511719 28.445312 70.511719 27.523438 Z M 26.0625 25.339844 C 26.828125 25.15625 26.769531 25.09375 25.140625 24.230469 C 22.6875 22.941406 20.90625 21.832031 19.617188 20.757812 C 18.695312 19.988281 18.601562 19.957031 18.878906 20.511719 C 19.09375 20.878906 19.402344 21.28125 19.554688 21.371094 C 19.738281 21.464844 19.863281 22.109375 19.863281 22.785156 L 19.863281 23.984375 L 21.242188 23.984375 C 22.253906 23.984375 22.777344 24.171875 23.238281 24.664062 C 23.574219 25.03125 23.851562 25.460938 23.851562 25.617188 C 23.851562 25.769531 24.160156 25.800781 24.558594 25.707031 C 24.925781 25.585938 25.601562 25.429688 26.0625 25.339844 Z M 50.28125 11.070312 C 50.773438 11.070312 50.867188 10.855469 50.867188 9.871094 C 50.867188 9.195312 50.742188 8.546875 50.558594 8.457031 C 50.40625 8.363281 50.253906 8.488281 50.253906 8.734375 C 50.253906 9.011719 49.976562 9.226562 49.636719 9.226562 C 49.207031 9.226562 49.023438 9.441406 48.992188 9.933594 C 48.902344 11.777344 49.390625 13.5 49.578125 11.929688 C 49.636719 11.316406 49.851562 11.070312 50.28125 11.070312 Z M 50.28125 11.070312 "
    />
    <path
      style="stroke: none; fill-rule: nonzero; fill: rgb(87.843137%, 89.019608%, 70.588235%); fill-opacity: 1"
      d="M 44.328125 23.492188 C 44.203125 23.371094 44.113281 22.601562 44.113281 21.773438 L 44.113281 20.296875 L 50.28125 20.296875 L 50.191406 21.925781 L 50.097656 23.523438 L 47.335938 23.617188 C 45.800781 23.648438 44.449219 23.617188 44.328125 23.492188 Z M 82.882812 49.203125 C 82.515625 49.046875 82.148438 48.648438 82.023438 48.308594 C 81.933594 47.972656 81.378906 47.417969 80.796875 47.078125 C 79.722656 46.433594 78.800781 44.804688 78.800781 43.480469 C 78.800781 42.683594 79.597656 42.128906 80.765625 42.128906 C 81.195312 42.128906 81.5625 42.035156 81.5625 41.914062 C 81.5625 41.421875 80.058594 38.714844 79.292969 37.792969 C 78.402344 36.714844 78.308594 36.347656 78.921875 36.101562 C 79.230469 35.980469 79.324219 35.609375 79.230469 34.839844 C 78.984375 32.78125 80.917969 31.488281 85.402344 30.75 C 88.441406 30.257812 90.035156 30.78125 91.019531 32.535156 C 92.03125 34.316406 92.613281 34.226562 92.613281 32.320312 C 92.613281 30.167969 92.429688 30.042969 88.410156 28.9375 C 87.671875 28.722656 87.089844 28.476562 87.089844 28.351562 C 87.121094 27.582031 88.59375 26.753906 89.945312 26.753906 C 90.589844 26.753906 92.492188 27.828125 95.132812 29.675781 C 96.453125 30.597656 96.914062 31.828125 96.914062 34.5625 C 96.914062 36.132812 96.667969 36.933594 95.195312 40.128906 C 93.167969 44.589844 92.277344 45.757812 89.574219 47.480469 C 86.535156 49.417969 84.664062 49.910156 82.882812 49.203125 Z M 88.808594 43.914062 C 88.929688 43.757812 88.808594 43.421875 88.59375 43.234375 C 88.011719 42.714844 85.617188 42.066406 85.214844 42.3125 C 84.785156 42.558594 85.09375 44.621094 85.585938 44.925781 C 85.984375 45.171875 88.53125 44.375 88.808594 43.914062 Z M 6.96875 47.972656 C 6.96875 47.816406 7.183594 47.664062 7.429688 47.664062 C 7.675781 47.664062 7.890625 47.816406 7.890625 47.972656 C 7.890625 48.15625 7.675781 48.277344 7.429688 48.277344 C 7.183594 48.277344 6.96875 48.15625 6.96875 47.972656 Z M 71.125 47.480469 C 68.917969 46.464844 67.472656 45.019531 65.417969 41.789062 C 64.21875 39.851562 63.757812 38.839844 63.757812 38.039062 C 63.757812 36.746094 64.589844 35.980469 66.0625 35.949219 C 66.890625 35.949219 66.921875 35.917969 66.398438 35.578125 C 65.292969 34.902344 64.066406 33.394531 64.066406 32.71875 C 64.066406 32.257812 64.433594 31.796875 65.171875 31.367188 C 66.335938 30.628906 66.429688 30.628906 68.609375 32.011719 C 69.589844 32.65625 69.746094 32.65625 73 32.257812 C 76.007812 31.917969 76.40625 31.917969 76.835938 32.351562 C 77.511719 33.027344 77.113281 34.101562 76.097656 34.316406 C 74.75 34.59375 73.890625 35.027344 73.890625 35.394531 C 73.890625 35.578125 74.503906 36.410156 75.269531 37.269531 C 78.035156 40.34375 77.296875 42.683594 73.949219 41.515625 L 72.324219 40.929688 L 71.402344 41.820312 L 70.449219 42.714844 L 71.1875 43.667969 C 71.800781 44.527344 72.046875 44.621094 73.273438 44.558594 C 75.332031 44.464844 75.425781 44.527344 75.425781 45.480469 C 75.425781 46.527344 74.105469 48.277344 73.335938 48.277344 C 73.03125 48.277344 72.046875 47.910156 71.125 47.480469 Z M 20.167969 39.054688 C 20.167969 38.898438 20.507812 38.746094 20.9375 38.746094 C 21.367188 38.746094 21.703125 38.898438 21.703125 39.054688 C 21.703125 39.238281 21.367188 39.359375 20.9375 39.359375 C 20.507812 39.359375 20.167969 39.238281 20.167969 39.054688 Z M 26.921875 37.976562 C 26.921875 37.730469 27.136719 37.515625 27.382812 37.515625 C 27.628906 37.515625 27.84375 37.640625 27.84375 37.792969 C 27.84375 37.945312 27.628906 38.132812 27.382812 38.253906 C 27.105469 38.347656 26.921875 38.253906 26.921875 37.976562 Z M 6.015625 33.855469 C 5.097656 33.027344 4.421875 32.289062 4.511719 32.195312 C 4.605469 32.105469 5.433594 32.6875 6.355469 33.519531 C 7.246094 34.378906 7.921875 35.117188 7.828125 35.210938 C 7.734375 35.300781 6.90625 34.71875 6.015625 33.855469 Z M 82.792969 26.785156 C 82.792969 26.167969 84.570312 24.816406 85 25.09375 C 85.125 25.183594 85.246094 25.585938 85.246094 26.015625 C 85.246094 26.539062 85 26.84375 84.449219 27.0625 C 83.28125 27.523438 82.792969 27.429688 82.792969 26.785156 Z M 0 22.292969 C 0 21.617188 0.0625 21.371094 0.121094 21.773438 C 0.183594 22.140625 0.183594 22.695312 0.121094 23 C 0.03125 23.277344 -0.03125 22.972656 0 22.292969 Z M 73.367188 22.664062 C 73.03125 22.234375 72.140625 21.773438 71.125 21.496094 C 70.082031 21.21875 69.4375 20.878906 69.4375 20.601562 C 69.4375 19.957031 71.800781 18.296875 73.796875 17.527344 C 76.773438 16.390625 79.96875 16.113281 82.914062 16.757812 C 85.832031 17.375 87.304688 18.082031 89.332031 19.773438 C 90.496094 20.757812 90.773438 21.1875 90.710938 21.800781 C 90.621094 22.507812 90.496094 22.601562 89.484375 22.570312 C 88.871094 22.539062 87.304688 22.019531 86.015625 21.402344 C 84.695312 20.789062 83.3125 20.296875 82.914062 20.296875 C 82.515625 20.296875 81.777344 20.726562 81.226562 21.25 C 80.429688 22.046875 80.152344 22.140625 79.324219 21.957031 C 77.605469 21.527344 76.253906 21.773438 75.578125 22.601562 C 74.78125 23.554688 74.105469 23.585938 73.367188 22.664062 Z M 93.230469 20.386719 C 92.644531 19.804688 91.324219 18.757812 90.34375 18.113281 C 88.164062 16.667969 88.378906 16.511719 90.589844 17.898438 C 92.371094 19.003906 93.75 20.203125 94.179688 21.003906 C 94.609375 21.742188 94.457031 21.648438 93.230469 20.386719 Z M 72.660156 12.640625 C 72.660156 12.300781 72.9375 11.960938 73.304688 11.839844 C 73.980469 11.625 74.625 11.992188 73.949219 12.207031 C 73.734375 12.300781 73.367188 12.546875 73.121094 12.824219 C 72.722656 13.222656 72.660156 13.191406 72.660156 12.640625 Z M 76.375 2.183594 C 76.070312 2 76.070312 1.875 76.34375 1.691406 C 76.746094 1.445312 77.082031 1.660156 76.929688 2.121094 C 76.835938 2.304688 76.621094 2.335938 76.375 2.183594 Z M 76.375 2.183594 "
    />
    <path
      style="stroke: none; fill-rule: nonzero; fill: rgb(24.313725%, 29.803922%, 15.294118%); fill-opacity: 1"
      d="M 16.332031 35.855469 C 11.242188 34.542969 6.925781 31.167969 4.421875 26.539062 C 3.746094 25.246094 3.746094 25.214844 4.910156 25.214844 C 5.464844 25.214844 7.550781 24.785156 9.578125 24.261719 C 11.695312 23.738281 14.457031 23.246094 16.117188 23.15625 C 17.652344 23.0625 18.941406 22.878906 18.941406 22.753906 C 18.941406 22.234375 15.257812 18.695312 13.84375 17.898438 C 11.449219 16.511719 9.792969 15.40625 7.273438 13.5 C 4.328125 11.285156 3.777344 10.671875 4.050781 9.871094 C 4.296875 9.011719 6.261719 6.210938 7.304688 5.136719 L 8.164062 4.304688 L 9.210938 6.519531 C 9.792969 7.75 10.746094 9.316406 11.359375 9.992188 L 14.367188 13.53125 C 16.914062 16.574219 20.597656 20.140625 22.039062 21.003906 C 26.371094 23.554688 27.414062 24.046875 28.917969 24.386719 C 31.464844 24.910156 31.496094 24.476562 29.039062 21.894531 C 23.242188 15.644531 18.855469 8.222656 16.175781 0.121094 C 16.175781 0.0625 18.328125 0 20.9375 0 C 26.214844 0 27.230469 0.214844 30.296875 2.03125 C 32.539062 3.351562 34.902344 5.65625 36.46875 8.117188 C 38.464844 11.164062 38.25 11.222656 33.796875 8.980469 C 29.195312 6.703125 25.632812 4.429688 23.789062 2.644531 C 22.714844 1.597656 22.011719 1.261719 22.011719 1.785156 C 22.011719 2.246094 24.433594 6.179688 26.09375 8.363281 C 27.902344 10.761719 32.691406 15.589844 34.78125 17.097656 C 36.621094 18.417969 38.894531 20.480469 38.894531 20.789062 C 38.894531 20.941406 38.402344 21.402344 37.789062 21.832031 L 35.886719 23.21875 C 34.351562 24.386719 30.757812 25.707031 28.394531 25.984375 C 27.660156 26.078125 26.675781 26.261719 26.15625 26.414062 C 24.003906 27.0625 23.269531 27.0625 22.929688 26.445312 C 22.316406 25.308594 21.671875 24.910156 20.414062 24.910156 C 19.1875 24.910156 19.1875 24.9375 19.371094 25.832031 C 19.523438 26.660156 19.460938 26.753906 18.695312 26.753906 C 18.234375 26.753906 17.527344 26.476562 17.097656 26.136719 C 15.992188 25.277344 15.378906 25.371094 15.164062 26.414062 C 14.917969 27.554688 15.902344 29.644531 16.976562 30.320312 C 17.683594 30.78125 18.113281 30.8125 21.335938 30.472656 C 23.300781 30.257812 25.910156 29.980469 27.074219 29.796875 L 31.773438 29.183594 C 33.183594 29.027344 34.6875 28.753906 35.085938 28.597656 C 36.070312 28.199219 36.007812 28.414062 34.6875 30.042969 C 32.6875 32.289062 30.183594 34.03125 27.382812 35.117188 C 25.234375 35.949219 24.496094 36.101562 21.394531 36.164062 C 19.15625 36.226562 17.3125 36.132812 16.332031 35.855469 Z M 16.332031 35.855469 "
    />
    <path
      style="stroke: none; fill-rule: nonzero; fill: rgb(24.313725%, 29.803922%, 15.294118%); fill-opacity: 1"
      d="M 17.558594 29.828125 C 17.46875 29.675781 17.621094 29.492188 17.925781 29.492188 C 18.234375 29.460938 17.925781 29.335938 17.28125 29.246094 C 15.5625 28.96875 15.472656 28.320312 17.160156 28.476562 L 18.480469 28.597656 L 17.039062 28.136719 C 16.207031 27.859375 15.5625 27.523438 15.5625 27.335938 C 15.5625 27.121094 15.777344 27.089844 16.117188 27.214844 C 17.039062 27.582031 17.957031 27.738281 17.128906 27.367188 C 16.054688 26.90625 15.53125 26.414062 15.746094 26.078125 C 15.839844 25.921875 16.207031 26.046875 16.546875 26.355469 C 16.976562 26.722656 17.652344 26.90625 18.664062 26.90625 C 19.648438 26.90625 20.167969 27.03125 20.167969 27.308594 C 20.167969 27.492188 19.953125 27.675781 19.707031 27.675781 C 19.460938 27.675781 19.246094 27.890625 19.246094 28.136719 C 19.246094 28.382812 19.460938 28.597656 19.707031 28.597656 C 19.953125 28.597656 20.167969 28.8125 20.167969 29.058594 C 20.167969 29.304688 20.351562 29.519531 20.597656 29.519531 C 21.394531 29.519531 22.011719 29.152344 22.011719 28.691406 C 22.011719 28.105469 23.054688 28.320312 23.175781 28.9375 C 23.332031 29.707031 18.019531 30.535156 17.558594 29.828125 Z M 23.851562 28.535156 C 23.851562 27.675781 23.851562 27.644531 26.15625 27.246094 L 27.8125 26.875 C 28.519531 26.660156 28.550781 26.722656 28.363281 27.613281 C 28.242188 28.289062 28.273438 28.597656 28.550781 28.628906 C 29.222656 28.691406 27.105469 29.152344 25.941406 29.183594 C 25.292969 29.183594 24.742188 29.058594 24.679688 28.84375 C 24.558594 28.535156 24.433594 28.566406 24.191406 28.90625 C 23.914062 29.273438 23.851562 29.214844 23.851562 28.535156 Z M 29.5625 28.628906 C 29.714844 28.476562 30.667969 28.289062 31.679688 28.199219 L 33.523438 28.046875 L 31.988281 28.445312 C 30.144531 28.9375 29.132812 29 29.5625 28.628906 Z M 22.011719 27.367188 C 21.824219 27.03125 21.210938 26.539062 20.628906 26.292969 C 18.847656 25.554688 19.402344 24.816406 21.210938 25.523438 C 21.855469 25.769531 22.929688 27.183594 22.929688 27.828125 C 22.929688 28.230469 22.316406 27.921875 22.011719 27.367188 Z M 29.101562 27.308594 C 29.070312 26.445312 29.195312 26.355469 32.292969 25.644531 C 34.289062 25.183594 38.371094 22.816406 39.414062 21.527344 C 39.722656 21.15625 39.785156 21.15625 39.816406 21.496094 C 39.816406 21.957031 39.445312 22.292969 37.542969 23.617188 C 35.609375 24.9375 34.84375 25.371094 33.460938 25.832031 C 32.722656 26.046875 32.140625 26.414062 32.140625 26.601562 C 32.140625 27 31.1875 27.367188 30.082031 27.367188 C 29.714844 27.367188 29.347656 27.554688 29.285156 27.769531 C 29.195312 27.953125 29.101562 27.769531 29.101562 27.308594 Z M 34.136719 27.675781 C 34.472656 27.523438 35.027344 27.398438 35.363281 27.398438 L 35.976562 27.398438 L 35.363281 27.675781 C 35.027344 27.828125 34.472656 27.953125 34.136719 27.953125 L 33.523438 27.953125 Z M 2.488281 20.789062 C 2.242188 19.773438 2.457031 13.960938 2.761719 13.652344 C 2.886719 13.53125 3.4375 13.839844 3.992188 14.328125 C 5.464844 15.683594 6.753906 16.542969 10.746094 18.789062 L 14.398438 20.820312 L 10.746094 21.035156 C 8.75 21.125 6.140625 21.308594 4.910156 21.402344 C 2.703125 21.585938 2.703125 21.585938 2.488281 20.789062 Z M 21.152344 17.773438 C 16.453125 13.683594 11.480469 6.703125 10.773438 3.230469 C 10.589844 2.246094 10.558594 2.304688 13.167969 0.984375 C 13.261719 0.921875 13.660156 1.84375 14.027344 2.984375 C 15.289062 6.527344 16.9375 9.917969 18.941406 13.101562 C 18.941406 13.222656 21.425781 16.914062 22.59375 18.480469 C 23.269531 19.402344 22.777344 19.15625 21.152344 17.773438 Z M 35.300781 14.945312 C 32.570312 12.914062 27.84375 8.609375 27.84375 8.179688 C 27.84375 8.085938 28.609375 8.488281 29.53125 9.101562 C 31.28125 10.210938 34.84375 11.992188 37.421875 13.039062 C 38.554688 13.53125 38.863281 13.808594 39.015625 14.546875 C 39.324219 16.082031 39.230469 17.21875 38.800781 17.21875 C 38.554688 17.21875 36.992188 16.207031 35.300781 14.945312 Z M 35.300781 14.945312 "
    />
    <path
      style="stroke: none; fill-rule: nonzero; fill: rgb(5.882353%, 5.490196%, 4.705882%); fill-opacity: 1"
      d="M 45.15625 50.371094 C 45.277344 49.476562 45.433594 47.265625 45.554688 45.449219 L 45.738281 42.191406 L 47.152344 42.589844 C 47.917969 42.804688 49.117188 43.082031 49.824219 43.207031 C 51.417969 43.453125 51.785156 43.019531 52.09375 40.652344 C 52.277344 39.085938 52.308594 38.992188 52.523438 39.824219 C 52.984375 41.730469 53.691406 43.359375 54.027344 43.359375 C 54.242188 43.359375 55.164062 43.019531 56.144531 42.621094 L 57.863281 41.914062 L 58.050781 42.867188 L 58.539062 47.050781 C 58.695312 48.832031 58.910156 50.648438 59.03125 51.140625 L 59.214844 51.96875 L 53.445312 51.96875 L 53.078125 49.570312 C 52.554688 46.28125 52.585938 46.21875 53.628906 45.972656 C 54.152344 45.851562 54.550781 45.632812 54.550781 45.449219 C 54.550781 45.265625 54.304688 45.234375 54.027344 45.359375 C 53.722656 45.449219 52.585938 45.757812 51.480469 46.003906 C 49.332031 46.527344 48.625 46.863281 50.097656 46.679688 C 50.710938 46.617188 51.019531 46.710938 50.988281 46.988281 L 50.925781 49.664062 L 50.867188 51.96875 L 44.941406 51.96875 Z M 45.15625 50.371094 "
    />
    <path
      style="stroke: none; fill-rule: nonzero; fill: rgb(5.882353%, 5.490196%, 4.705882%); fill-opacity: 1"
      d="M 49.175781 42.40625 C 46.628906 41.882812 44.574219 40.960938 44.632812 40.375 C 44.664062 39.945312 45.863281 36.472656 46.109375 36.070312 C 46.136719 36.007812 47.457031 36.164062 49.054688 36.378906 L 51.941406 36.746094 L 51.847656 37.824219 C 51.664062 39.792969 51.019531 42.527344 50.710938 42.621094 C 50.558594 42.652344 49.851562 42.558594 49.175781 42.40625 Z M 53.628906 41.421875 L 52.832031 38.53125 C 52.554688 37.640625 52.429688 36.777344 52.554688 36.59375 C 52.648438 36.441406 53.8125 36.285156 55.132812 36.285156 L 57.496094 36.285156 L 58.019531 37.453125 C 58.292969 38.101562 58.632812 39.054688 58.726562 39.578125 C 58.941406 40.589844 59 40.5625 54.949219 42.3125 L 53.964844 42.742188 Z M 50.253906 34.964844 L 50.253906 33.886719 L 52.0625 33.765625 C 53.875 33.671875 53.90625 33.671875 54.027344 34.59375 C 54.121094 35.117188 54.121094 35.578125 54.058594 35.640625 C 53.964844 35.734375 53.105469 35.855469 52.09375 35.917969 L 50.253906 36.039062 Z M 46.8125 35.457031 C 46.109375 35.332031 45.953125 35.179688 45.953125 34.410156 C 45.953125 33.550781 45.984375 33.519531 47.582031 33.519531 C 48.503906 33.519531 49.300781 33.582031 49.390625 33.671875 C 49.453125 33.765625 49.484375 34.226562 49.390625 34.75 C 49.238281 35.734375 48.992188 35.792969 46.8125 35.457031 Z M 54.855469 34.625 L 54.855469 33.519531 L 57.957031 33.519531 L 57.863281 34.535156 C 57.773438 35.488281 57.710938 35.515625 56.332031 35.609375 L 54.855469 35.703125 Z M 45.1875 30.691406 L 43.714844 26.601562 C 43.039062 24.507812 42.578125 23.832031 42.578125 24.847656 C 42.578125 25.308594 42.394531 25.523438 41.996094 25.523438 C 41.65625 25.523438 39.816406 26.078125 37.910156 26.722656 C 34.042969 28.074219 29.898438 29.058594 29.378906 28.753906 C 29.222656 28.660156 29.070312 28.105469 29.070312 27.582031 C 29.070312 26.628906 29.132812 26.570312 31.15625 26.015625 C 34.257812 25.15625 38.710938 22.785156 39.140625 21.742188 C 39.199219 21.617188 39.660156 21.28125 40.183594 21.035156 C 41.164062 20.511719 41.625 20.757812 41.65625 21.773438 C 41.65625 21.988281 41.808594 22.078125 41.964844 21.988281 C 42.148438 21.863281 42.210938 21.1875 42.085938 20.296875 L 41.902344 18.789062 L 43.070312 18.605469 C 44.265625 18.417969 47.796875 17.621094 48.808594 17.34375 C 49.085938 17.25 49.332031 16.972656 49.332031 16.699219 C 49.332031 16.390625 49.515625 16.296875 49.824219 16.421875 C 50.097656 16.511719 50.558594 16.605469 50.898438 16.605469 C 51.417969 16.605469 51.480469 16.789062 51.449219 18.082031 C 51.417969 18.882812 51.511719 22.539062 51.632812 26.230469 L 51.878906 32.902344 L 46.078125 32.902344 Z M 49.269531 21.925781 C 49.363281 21.25 49.269531 21.21875 47.214844 21.21875 C 45.308594 21.21875 45.035156 21.28125 45.035156 21.773438 C 45.035156 22.664062 45.339844 22.785156 47.335938 22.695312 C 48.992188 22.601562 49.175781 22.539062 49.269531 21.925781 Z M 49.269531 21.925781 "
    />
    <path
      style="stroke: none; fill-rule: nonzero; fill: rgb(5.882353%, 5.490196%, 4.705882%); fill-opacity: 1"
      d="M 45.648438 21.832031 C 45.648438 21.679688 46.351562 21.527344 47.183594 21.527344 C 48.042969 21.527344 48.71875 21.679688 48.71875 21.832031 C 48.71875 22.019531 48.042969 22.140625 47.183594 22.140625 C 46.351562 22.140625 45.648438 22.019531 45.648438 21.832031 Z M 52.402344 29.890625 C 52.402344 28.230469 52.308594 24.539062 52.1875 21.742188 L 52 16.605469 L 52.800781 16.605469 C 53.230469 16.605469 53.691406 16.730469 53.78125 16.914062 C 53.875 17.066406 54.550781 17.34375 55.253906 17.527344 C 59.984375 18.726562 60.414062 18.882812 60.230469 19.527344 C 60.136719 19.863281 59.984375 20.695312 59.890625 21.371094 L 59.769531 22.601562 L 60.320312 21.402344 C 60.8125 20.328125 60.902344 20.265625 61.304688 20.757812 C 61.949219 21.527344 66.03125 24.507812 67.472656 25.277344 C 68.179688 25.644531 69.4375 25.984375 70.265625 26.078125 L 71.800781 26.230469 L 71.585938 27.644531 C 71.464844 28.414062 71.3125 29.121094 71.25 29.183594 C 70.851562 29.613281 67.167969 28.382812 63.851562 26.722656 C 60.78125 25.214844 60.074219 24.753906 60.074219 24.199219 C 60.074219 22.910156 59.554688 24.199219 59.03125 26.84375 C 58.753906 28.320312 58.265625 30.257812 57.957031 31.152344 L 57.40625 32.75 L 54.917969 32.84375 L 52.402344 32.933594 Z M 17.957031 29.921875 C 18.480469 29.707031 18.417969 29.273438 17.804688 29.121094 C 17.28125 29 17.28125 28.96875 17.804688 28.9375 C 18.417969 28.90625 18.449219 28.78125 18.019531 27.953125 C 17.835938 27.644531 17.496094 27.367188 17.253906 27.367188 C 16.824219 27.367188 15.746094 26.445312 15.960938 26.261719 C 16.023438 26.167969 16.484375 26.324219 16.976562 26.601562 C 17.925781 27.089844 18.941406 27.183594 20.136719 26.84375 L 20.875 26.660156 L 20.136719 26.109375 C 19.214844 25.398438 19.523438 25.09375 20.8125 25.460938 C 21.949219 25.738281 22.839844 26.9375 22.992188 28.445312 C 23.085938 29.304688 22.992188 29.367188 21.550781 29.707031 C 20.046875 30.074219 17.191406 30.226562 17.957031 29.921875 Z M 23.851562 28.476562 C 23.851562 28.046875 23.945312 27.675781 24.097656 27.644531 L 24.925781 27.492188 L 26.953125 27.183594 C 28.332031 27 28.363281 27.03125 28.550781 27.859375 C 28.640625 28.351562 28.671875 28.78125 28.640625 28.8125 C 28.609375 28.84375 27.535156 28.96875 26.214844 29.058594 L 23.851562 29.273438 Z M 72.140625 27.828125 C 72.261719 27 72.414062 26.292969 72.476562 26.199219 C 72.570312 26.136719 73.613281 26.261719 74.78125 26.476562 C 76.683594 26.816406 76.960938 26.9375 76.960938 27.523438 C 76.960938 28.230469 75.976562 28.660156 73.304688 29.089844 L 71.957031 29.304688 Z M 73.273438 28.136719 C 73.273438 27.890625 73.152344 27.675781 72.96875 27.675781 C 72.816406 27.675781 72.660156 27.890625 72.660156 28.136719 C 72.660156 28.382812 72.816406 28.597656 72.96875 28.597656 C 73.152344 28.597656 73.273438 28.382812 73.273438 28.136719 Z M 79.199219 28.84375 C 77.789062 28.597656 77.574219 28.476562 77.574219 27.828125 C 77.574219 27.089844 78.832031 24.96875 79.507812 24.539062 C 79.722656 24.417969 80.214844 24.292969 80.613281 24.292969 C 81.289062 24.292969 81.316406 24.324219 80.859375 25.03125 C 80.398438 25.707031 80.398438 25.800781 80.828125 25.953125 C 81.65625 26.261719 82.792969 26.167969 83.742188 25.644531 C 84.265625 25.398438 84.847656 25.246094 85.03125 25.308594 C 85.246094 25.371094 84.847656 25.707031 84.171875 26.078125 C 83.496094 26.445312 83.128906 26.722656 83.34375 26.753906 C 83.558594 26.753906 84.019531 26.601562 84.386719 26.414062 C 84.726562 26.230469 85.0625 26.167969 85.1875 26.261719 C 85.429688 26.539062 85.125 26.753906 83.804688 27.246094 L 82.636719 27.707031 L 83.804688 27.554688 C 84.816406 27.429688 84.941406 27.460938 84.632812 27.828125 C 84.417969 28.074219 83.898438 28.289062 83.4375 28.289062 C 83.007812 28.289062 82.421875 28.445312 82.175781 28.597656 C 81.839844 28.84375 81.933594 28.875 82.578125 28.722656 C 83.097656 28.597656 83.40625 28.660156 83.40625 28.875 C 83.40625 29.273438 81.472656 29.273438 79.199219 28.84375 Z M 79.199219 28.84375 "
    />
    <path
      style="stroke: none; fill-rule: nonzero; fill: rgb(5.882353%, 5.490196%, 4.705882%); fill-opacity: 1"
      d="M 16.484375 27.800781 L 15.71875 27.367188 L 16.636719 27.554688 C 17.710938 27.800781 17.835938 27.859375 17.496094 28.074219 C 17.34375 28.167969 16.914062 28.046875 16.484375 27.800781 Z M 50.742188 16.019531 C 50.066406 15.929688 49.484375 15.683594 49.421875 15.5 C 49.332031 15.222656 49.667969 15.222656 50.742188 15.4375 C 51.726562 15.652344 52.402344 15.652344 52.890625 15.40625 C 53.476562 15.160156 53.628906 15.160156 53.628906 15.527344 C 53.628906 15.773438 53.535156 15.992188 53.414062 16.019531 L 52.554688 16.113281 C 52.214844 16.175781 51.386719 16.113281 50.742188 16.019531 Z M 50.710938 14.851562 C 50.375 14.761719 49.667969 14.359375 49.148438 13.992188 C 48.042969 13.160156 47.644531 11.53125 47.980469 9.316406 C 48.132812 8.148438 48.257812 7.996094 48.777344 8.179688 C 49.332031 8.332031 49.363281 8.273438 49.175781 7.410156 C 49.054688 6.886719 49.054688 6.457031 49.117188 6.457031 C 49.207031 6.457031 50.007812 6.796875 50.925781 7.226562 C 53.199219 8.273438 54.304688 8.210938 53.261719 7.101562 C 52.921875 6.765625 52.953125 6.703125 53.414062 6.886719 L 54.121094 7.074219 C 54.179688 7.074219 54.242188 7.472656 54.242188 7.933594 C 54.242188 8.734375 54.152344 8.792969 53.351562 8.671875 C 52.214844 8.519531 51.632812 9.441406 51.941406 10.949219 C 52.09375 11.902344 52.0625 11.992188 51.328125 11.992188 C 50.898438 11.992188 50.558594 12.148438 50.558594 12.300781 C 50.558594 12.640625 51.019531 12.667969 51.941406 12.421875 C 52.460938 12.300781 52.554688 12.054688 52.460938 10.792969 C 52.339844 9.132812 52.769531 8.734375 54.121094 9.226562 C 54.824219 9.503906 54.886719 9.625 54.703125 10.976562 C 54.394531 13.4375 54.304688 13.652344 53.167969 14.390625 C 52.09375 15.066406 51.847656 15.128906 50.710938 14.851562 Z M 50.710938 14.851562 "
    />
    <path
      style="stroke: none; fill-rule: nonzero; fill: rgb(5.882353%, 5.490196%, 4.705882%); fill-opacity: 1"
      d="M 54.609375 7.78125 C 54.550781 6.949219 54.394531 6.765625 53.445312 6.457031 C 52.1875 6.027344 51.816406 6.210938 52.429688 6.949219 C 52.800781 7.410156 52.769531 7.441406 52.09375 7.226562 C 51.695312 7.101562 50.957031 6.703125 50.527344 6.394531 C 49.484375 5.597656 48.53125 5.78125 48.65625 6.703125 C 48.71875 7.164062 48.59375 7.378906 48.289062 7.378906 C 47.917969 7.378906 47.796875 7.042969 47.796875 5.84375 C 47.796875 4.398438 48.132812 3.90625 48.5625 4.613281 C 48.6875 4.828125 49.238281 4.675781 50.039062 4.214844 C 52.03125 3.042969 52.707031 2.921875 52.707031 3.660156 C 52.707031 4.214844 52.890625 4.304688 54.027344 4.304688 C 55.53125 4.304688 55.929688 4.519531 55.441406 5.105469 C 55.164062 5.441406 55.253906 5.597656 55.808594 5.8125 L 56.546875 6.089844 L 55.714844 6.457031 C 55.132812 6.734375 54.855469 7.132812 54.765625 7.8125 L 54.640625 8.765625 Z M 54.609375 7.78125 "
    />
    <path
      style="stroke: none; fill-rule: nonzero; fill: rgb(30.980392%, 36.078431%, 22.352941%); fill-opacity: 1"
      d="M 14.335938 51.691406 C 14.335938 51.167969 15.65625 49.753906 16.914062 48.957031 C 18.695312 47.785156 21.609375 47.816406 23.421875 48.988281 C 24.558594 49.695312 26 51.261719 26 51.785156 C 26 51.878906 23.390625 51.96875 20.167969 51.96875 C 16.976562 51.96875 14.335938 51.847656 14.335938 51.691406 Z M 51.570312 25.371094 C 51.570312 24.691406 51.632812 24.445312 51.695312 24.847656 C 51.757812 25.214844 51.757812 25.769531 51.695312 26.078125 C 51.601562 26.355469 51.542969 26.046875 51.570312 25.371094 Z M 4.820312 21.21875 C 4.820312 20.820312 5.433594 20.820312 6.046875 21.21875 C 6.414062 21.464844 6.324219 21.527344 5.679688 21.527344 C 5.1875 21.527344 4.820312 21.402344 4.820312 21.21875 Z M 46.199219 21.003906 C 46.722656 20.941406 47.644531 20.941406 48.195312 21.003906 C 48.71875 21.066406 48.289062 21.125 47.183594 21.125 C 46.078125 21.125 45.648438 21.066406 46.199219 21.003906 Z M 9.425781 20.601562 C 9.425781 20.449219 9.640625 20.296875 9.882812 20.296875 C 10.128906 20.296875 10.34375 20.449219 10.34375 20.601562 C 10.34375 20.789062 10.128906 20.910156 9.882812 20.910156 C 9.640625 20.910156 9.425781 20.789062 9.425781 20.601562 Z M 36.898438 10.457031 C 36.316406 10.238281 36.316406 10.210938 36.835938 9.992188 C 37.421875 9.75 37.789062 9.933594 37.636719 10.394531 C 37.574219 10.546875 37.234375 10.578125 36.898438 10.457031 Z M 17.652344 0.09375 C 18.171875 0.03125 19.09375 0.03125 19.648438 0.09375 C 20.167969 0.152344 19.738281 0.214844 18.632812 0.214844 C 17.527344 0.214844 17.097656 0.152344 17.652344 0.09375 Z M 17.652344 0.09375 "
    />
  </g>
</svg>
