<svg xmlns="http://www.w3.org/2000/svg" id="root" viewBox="0 0 99 70">
  <path
    d="M 42.007812 68.582031 C 42.226562 67.117188 43.109375 57.898438 43.109375 56.746094 C 43.109375 56.390625 43.375 56.257812 43.902344 56.480469 C 44.296875 56.613281 45.929688 57.054688 47.515625 57.367188 C 50.25 57.984375 50.425781 57.941406 51.175781 57.097656 C 51.570312 56.566406 51.925781 55.503906 51.925781 54.660156 C 51.925781 52.535156 52.542969 52.800781 53.160156 55.148438 C 53.46875 56.257812 53.996094 57.277344 54.394531 57.453125 C 54.746094 57.585938 56.15625 57.277344 57.566406 56.789062 C 58.933594 56.257812 60.078125 55.902344 60.167969 55.992188 C 60.253906 56.078125 61.621094 68.714844 61.621094 69.691406 C 61.621094 69.867188 59.945312 70 57.917969 70 L 54.214844 70 L 53.730469 67.25 C 52.894531 62.375 52.894531 61.796875 53.996094 61.664062 C 54.523438 61.578125 55.1875 61.222656 55.539062 60.824219 C 56.066406 60.203125 55.980469 60.113281 54.789062 60.378906 L 50.734375 61.179688 C 47.957031 61.710938 46.988281 62.464844 49.058594 62.464844 C 50.292969 62.464844 50.425781 63.21875 49.898438 67.695312 L 49.589844 70 L 41.742188 70 Z M 42.007812 68.582031 "
  />
  <path
    d="M 48.175781 56.167969 C 46.679688 55.859375 41.917969 54.171875 41.390625 53.773438 C 41.300781 53.6875 41.699219 52.132812 42.269531 50.273438 C 42.976562 48.054688 43.503906 47.035156 43.902344 47.167969 C 44.210938 47.257812 46.019531 47.523438 47.957031 47.65625 C 51.96875 48.011719 51.835938 47.789062 51 52.445312 C 50.25 56.566406 50.207031 56.613281 48.175781 56.167969 Z M 53.777344 52.753906 C 53.246094 50.847656 52.804688 48.988281 52.804688 48.632812 C 52.804688 47.566406 57.964844 46.902344 59.328125 47.789062 C 59.859375 48.101562 61.84375 53.199219 61.535156 53.375 C 60.871094 53.730469 55.097656 56.257812 54.921875 56.257812 C 54.789062 56.257812 54.261719 54.707031 53.777344 52.753906 Z M 45.972656 46.28125 L 44.34375 45.882812 C 43.503906 45.707031 43.109375 45.308594 43.109375 44.730469 C 43.109375 43.933594 43.417969 43.84375 45.53125 43.84375 C 47.914062 43.84375 47.957031 43.84375 47.957031 45.175781 C 47.957031 46.460938 47.429688 46.769531 45.972656 46.28125 Z M 49.71875 45.175781 C 49.71875 43.84375 49.765625 43.84375 52.144531 43.84375 C 54.523438 43.84375 54.570312 43.84375 54.570312 45.175781 C 54.570312 46.503906 54.523438 46.503906 52.144531 46.503906 C 49.765625 46.503906 49.71875 46.503906 49.71875 45.175781 Z M 56.066406 45.394531 C 55.890625 44.773438 55.890625 44.15625 56.023438 44.023438 C 56.464844 43.578125 59.195312 43.535156 59.683594 43.933594 C 60.476562 44.507812 59.902344 45.929688 58.84375 46.238281 C 56.992188 46.726562 56.332031 46.503906 56.066406 45.394531 Z M 43.417969 42.203125 C 43.066406 41.628906 40.550781 34.933594 39.714844 32.40625 C 39.273438 31.078125 38.699219 30.101562 38.480469 30.191406 C 38.214844 30.234375 38.082031 30.589844 38.082031 30.855469 C 38.128906 31.164062 37.335938 31.652344 36.320312 31.875 C 35.351562 32.140625 33.148438 32.851562 31.429688 33.46875 C 27.328125 34.976562 21.597656 36.394531 20.1875 36.21875 C 19.304688 36.128906 19.085938 35.863281 19.085938 34.800781 C 19.085938 33.558594 19.21875 33.425781 22.390625 32.539062 C 26.402344 31.386719 27.726562 30.8125 30.371094 28.90625 C 31.515625 28.105469 32.660156 27.441406 32.925781 27.441406 C 33.191406 27.441406 33.410156 27.265625 33.410156 27.042969 C 33.410156 26.820312 34.027344 26.199219 34.734375 25.667969 L 36.054688 24.691406 L 36.539062 26.066406 C 37.289062 28.195312 37.953125 27.21875 37.6875 24.515625 C 37.464844 22.164062 37.464844 22.121094 38.613281 22.121094 C 40.464844 22.078125 48.046875 20.039062 48.398438 19.460938 C 48.574219 19.152344 49.101562 19.0625 49.632812 19.195312 C 50.46875 19.460938 50.515625 19.992188 50.777344 26.910156 L 51.261719 38.4375 L 51.484375 42.515625 L 47.5625 42.515625 C 45.402344 42.515625 43.503906 42.382812 43.417969 42.203125 Z M 47.867188 26.6875 C 47.738281 25.492188 47.648438 25.445312 44.785156 25.3125 L 41.785156 25.179688 L 41.785156 27.882812 L 48 27.882812 Z M 47.867188 26.6875 "
  />
  <path
    d="M 43.683594 26.6875 C 44.34375 26.597656 45.402344 26.597656 46.105469 26.6875 C 46.765625 26.777344 46.195312 26.863281 44.871094 26.863281 C 43.550781 26.863281 42.976562 26.777344 43.683594 26.6875 Z M 52.363281 35.375 C 52.363281 31.386719 52.234375 26.199219 52.101562 23.851562 C 51.835938 19.816406 51.835938 19.59375 52.71875 19.371094 C 53.203125 19.238281 53.777344 19.285156 53.996094 19.507812 C 54.4375 19.949219 61.753906 22.121094 62.769531 22.121094 C 63.515625 22.121094 63.515625 22.566406 62.679688 26.246094 C 62.28125 27.929688 63.253906 27.796875 63.957031 26.066406 L 64.488281 24.691406 L 67.792969 27.441406 C 71.582031 30.5 75.375 32.582031 78.0625 32.984375 L 79.914062 33.292969 L 79.738281 35.242188 L 79.605469 37.238281 L 77.753906 36.972656 C 74.226562 36.394531 63.605469 31.253906 63.605469 30.144531 C 63.605469 29.789062 63.382812 29.4375 63.074219 29.347656 C 62.769531 29.214844 62.460938 29.835938 62.28125 30.855469 L 61.09375 36.085938 L 59.992188 40.875 C 59.769531 41.980469 59.59375 42.070312 57.699219 42.070312 C 56.597656 42.070312 54.921875 42.203125 54.039062 42.335938 L 52.363281 42.648438 Z M 3.789062 38.214844 C 5.332031 37.902344 4.9375 37.195312 3.128906 37.105469 C 1.5 37.0625 1.5 37.0625 2.910156 36.882812 C 4.230469 36.707031 4.980469 35.863281 3.789062 35.863281 C 2.910156 35.863281 -0.175781 34.933594 0 34.757812 C 0.0898438 34.625 0.925781 34.757812 1.851562 35.023438 C 3.746094 35.554688 4.539062 35.199219 2.953125 34.535156 C 2.070312 34.179688 2.027344 34.089844 2.777344 34.136719 C 6.65625 34.355469 7.890625 33.78125 6.214844 32.496094 C 5.511719 31.964844 5.511719 31.917969 6.613281 31.875 C 7.492188 31.875 8.109375 32.273438 8.949219 33.515625 C 10.445312 35.777344 10.402344 37.105469 8.859375 37.460938 L 6.082031 38.125 C 5.246094 38.347656 4.144531 38.480469 3.660156 38.480469 C 2.910156 38.390625 2.910156 38.390625 3.789062 38.214844 Z M 11.8125 36.796875 C 11.8125 36.574219 11.726562 36.128906 11.59375 35.777344 C 11.417969 35.332031 12.121094 35.023438 14.238281 34.625 C 18.027344 33.914062 17.984375 33.914062 17.984375 35.332031 C 17.984375 36.351562 17.761719 36.574219 16.792969 36.664062 L 13.707031 36.972656 C 12.652344 37.105469 11.8125 37.015625 11.8125 36.796875 Z M 17.101562 35.15625 C 17.101562 34.757812 16.882812 34.535156 16.574219 34.625 C 15.78125 34.890625 15.648438 35.863281 16.398438 35.863281 C 16.792969 35.863281 17.101562 35.554688 17.101562 35.15625 Z M 81.015625 36.839844 C 81.015625 36.617188 81.414062 36.308594 81.941406 36.175781 C 82.957031 35.910156 82.691406 34.976562 81.632812 34.976562 C 81.191406 34.976562 81.015625 34.625 81.105469 34.003906 C 81.191406 33.425781 81.367188 33.027344 81.589844 33.070312 L 84.5 33.425781 C 86.570312 33.648438 87.144531 33.914062 87.320312 34.578125 C 87.582031 35.554688 86.878906 35.953125 84.101562 36.484375 L 81.808594 37.015625 C 81.367188 37.148438 81.015625 37.0625 81.015625 36.839844 Z M 90.050781 36.351562 C 88.949219 36.085938 88.730469 35.863281 88.863281 34.84375 C 89.039062 33.070312 90.757812 30.675781 92.035156 30.410156 C 93.488281 30.101562 93.667969 30.367188 92.785156 31.34375 C 92.34375 31.785156 92.167969 32.316406 92.34375 32.449219 C 92.917969 33.027344 96.707031 32.761719 97.675781 32.050781 C 98.25 31.652344 98.824219 31.429688 98.957031 31.609375 C 99.089844 31.742188 98.25 32.273438 97.105469 32.851562 C 95.210938 33.78125 95.121094 33.871094 96.089844 34.136719 C 97.0625 34.445312 97.0625 34.445312 95.914062 34.488281 C 95.210938 34.535156 94.679688 34.757812 94.679688 34.976562 C 94.679688 35.242188 95.429688 35.332031 96.574219 35.199219 L 98.425781 34.976562 L 96.574219 35.554688 C 95.5625 35.820312 94.59375 36.21875 94.414062 36.441406 C 94.019531 36.796875 91.949219 36.796875 90.050781 36.351562 Z M 90.050781 36.351562 "
  />
  <path
    d="M 0.351562 33.425781 C 0.0429688 33.070312 0 32.761719 0.265625 32.761719 C 0.484375 32.761719 0.925781 33.070312 1.234375 33.425781 C 1.542969 33.78125 1.585938 34.089844 1.324219 34.089844 C 1.101562 34.089844 0.660156 33.78125 0.351562 33.425781 Z M 51.261719 17.820312 C 52.234375 17.6875 53.246094 17.421875 53.554688 17.15625 C 53.996094 16.800781 54.128906 16.890625 54.128906 17.421875 C 54.128906 18 53.6875 18.132812 51.835938 18.042969 C 49.71875 18 49.675781 17.953125 51.261719 17.820312 Z M 49.941406 16.3125 C 47.648438 15.648438 46.195312 13.921875 46.148438 11.792969 C 46.0625 9.664062 46.148438 9 46.457031 7.582031 C 46.636719 6.648438 46.765625 6.605469 47.382812 7.136719 C 48 7.625 48.046875 7.535156 47.867188 6.25 C 47.648438 4.566406 47.824219 4.523438 50.515625 5.808594 C 51.660156 6.296875 53.113281 6.738281 53.820312 6.738281 C 54.480469 6.738281 55.011719 6.914062 55.011719 7.136719 C 55.011719 7.316406 54.4375 7.492188 53.777344 7.492188 C 52.054688 7.492188 51.484375 8.246094 51.484375 10.507812 C 51.484375 12.148438 51.351562 12.414062 50.691406 12.28125 C 50.207031 12.191406 49.808594 12.367188 49.808594 12.589844 C 49.765625 12.855469 50.382812 13.035156 51.175781 13.035156 C 52.585938 13.035156 52.585938 13.035156 52.585938 10.816406 C 52.585938 8.601562 52.585938 8.601562 54.085938 8.46875 L 55.582031 8.335938 L 55.273438 11.347656 C 55.011719 14.007812 54.832031 14.496094 53.554688 15.558594 C 52.011719 16.890625 51.878906 16.890625 49.941406 16.3125 Z M 49.941406 16.3125 "
  />
  <path
    d="M 45.753906 3.457031 C 45.753906 1.863281 45.839844 1.683594 46.636719 1.949219 C 47.164062 2.128906 48.222656 1.816406 49.410156 1.109375 C 51.617188 -0.222656 52.363281 -0.308594 52.363281 0.621094 C 52.363281 1.0625 52.804688 1.285156 53.820312 1.285156 C 54.570312 1.285156 55.671875 1.417969 56.242188 1.550781 C 57.167969 1.816406 57.167969 1.863281 56.464844 2.4375 C 55.714844 2.96875 55.757812 3.015625 56.773438 3.414062 C 57.832031 3.8125 57.832031 3.8125 56.90625 4.300781 C 56.066406 4.789062 54.878906 4.609375 52.628906 3.679688 C 51.925781 3.414062 51.835938 3.503906 52.011719 4.300781 C 52.363281 5.496094 51.617188 5.542969 50.160156 4.390625 C 48.664062 3.191406 46.636719 3.191406 46.636719 4.390625 C 46.636719 4.875 46.457031 5.277344 46.195312 5.277344 C 45.972656 5.277344 45.753906 4.476562 45.753906 3.457031 Z M 45.753906 3.457031 "
  />
</svg>
