<svg xmlns="http://www.w3.org/2000/svg" id="root" viewBox="0 0 99 99">
  <g>
    <path
      d="M 0.0703125 98.800781 C 0.144531 98.664062 0.527344 98.25 0.894531 97.878906 C 1.277344 97.507812 1.839844 96.882812 2.148438 96.46875 C 2.445312 96.066406 3.328125 95.085938 4.082031 94.3125 C 4.847656 93.527344 5.730469 92.589844 6.042969 92.234375 C 6.367188 91.863281 7.824219 90.300781 9.300781 88.742188 C 10.777344 87.199219 12.339844 85.519531 12.78125 85.042969 C 13.222656 84.554688 14.183594 83.511719 14.917969 82.742188 C 17.011719 80.511719 18.121094 79.308594 19.046875 78.285156 C 19.535156 77.765625 20.480469 76.753906 21.171875 76.042969 C 21.863281 75.328125 23.382812 73.707031 24.550781 72.460938 C 25.714844 71.199219 27.144531 69.667969 27.71875 69.058594 C 28.292969 68.433594 29.089844 67.574219 29.488281 67.128906 C 29.886719 66.683594 31.023438 65.480469 32.011719 64.453125 C 33 63.429688 34.371094 61.972656 35.050781 61.230469 C 36.6875 59.417969 39.707031 56.179688 42.539062 53.222656 C 43.808594 51.902344 45.136719 50.488281 45.476562 50.105469 C 46.09375 49.40625 48.558594 46.761719 51.253906 43.925781 C 52.433594 42.660156 52.613281 42.542969 54.5 41.621094 C 55.589844 41.070312 56.757812 40.476562 57.066406 40.269531 C 57.625 39.929688 57.671875 39.914062 58.054688 40.152344 C 58.347656 40.328125 58.539062 40.359375 58.730469 40.253906 C 58.878906 40.164062 59.46875 39.898438 60.03125 39.632812 C 60.605469 39.378906 61.222656 39.097656 61.429688 39.007812 C 62.167969 38.664062 62.757812 38.234375 62.757812 38.011719 C 62.757812 37.671875 59.957031 35.933594 59.410156 35.933594 C 59.128906 35.933594 58.628906 36.808594 58.628906 37.296875 C 58.628906 37.519531 58.554688 37.746094 58.480469 37.789062 C 58.40625 37.832031 58.335938 38.101562 58.335938 38.351562 C 58.335938 38.621094 58.230469 38.976562 58.113281 39.15625 C 57.90625 39.4375 57.832031 39.46875 57.507812 39.320312 C 57.226562 39.183594 57.023438 39.183594 56.652344 39.320312 C 56.078125 39.527344 55.679688 39.542969 55.679688 39.363281 C 55.679688 39.183594 56.578125 38.101562 57.539062 37.148438 C 58.039062 36.644531 58.335938 36.230469 58.335938 36.019531 C 58.335938 35.722656 57.949219 35.1875 56.757812 33.851562 C 56.566406 33.644531 56.417969 33.4375 56.417969 33.375 C 56.417969 33.332031 56.328125 33.183594 56.226562 33.078125 C 56.121094 32.976562 55.871094 32.648438 55.679688 32.367188 C 55.488281 32.085938 55.28125 31.816406 55.238281 31.773438 C 55.089844 31.625 54.117188 30.480469 53.703125 29.945312 C 53.230469 29.335938 52.90625 29.261719 52.507812 29.691406 C 52.230469 30.003906 51.449219 30.183594 49.484375 30.421875 C 47.921875 30.597656 47.714844 30.464844 47.714844 29.320312 C 47.714844 28.90625 47.644531 28.175781 47.554688 27.703125 C 47.464844 27.226562 47.4375 26.675781 47.480469 26.484375 C 47.582031 26.097656 48.425781 25.234375 48.71875 25.234375 C 48.808594 25.234375 48.894531 25.175781 48.894531 25.101562 C 48.894531 25.027344 49.027344 24.925781 49.175781 24.863281 C 49.339844 24.820312 49.75 24.554688 50.105469 24.269531 C 50.445312 23.988281 50.84375 23.75 50.960938 23.75 C 51.242188 23.75 51.976562 24.195312 53.023438 25 C 54.042969 25.757812 54.191406 25.949219 54.203125 26.4375 C 54.203125 26.839844 54.707031 27.613281 54.957031 27.613281 C 55.046875 27.613281 55.382812 27.804688 55.722656 28.027344 C 56.0625 28.265625 56.636719 28.625 57.007812 28.816406 C 58.273438 29.5 58.335938 29.632812 58.335938 32.011719 C 58.335938 33.570312 58.394531 34.164062 58.539062 34.371094 C 58.746094 34.65625 58.761719 34.65625 58.910156 34.296875 C 58.996094 34.089844 59.128906 33.316406 59.203125 32.558594 C 59.410156 30.585938 59.660156 30.257812 60.441406 30.882812 C 60.648438 31.042969 60.855469 31.179688 60.898438 31.179688 C 60.945312 31.179688 61.476562 31.476562 62.066406 31.847656 C 62.667969 32.21875 63.304688 32.515625 63.464844 32.515625 C 63.671875 32.515625 63.980469 32.234375 64.378906 31.714844 C 64.703125 31.265625 65.042969 30.835938 65.148438 30.777344 C 65.25 30.71875 65.441406 30.464844 65.558594 30.210938 C 65.8125 29.707031 65.988281 29.410156 66.886719 28.058594 C 67.257812 27.539062 67.683594 26.929688 67.875 26.722656 C 68.050781 26.515625 68.6875 25.757812 69.261719 25.011719 C 70.589844 23.347656 71 22.890625 72.933594 20.929688 C 74.851562 18.996094 76.207031 17.734375 76.738281 17.40625 C 76.960938 17.257812 77.445312 16.859375 77.816406 16.515625 C 78.40625 15.964844 78.980469 15.492188 80.601562 14.273438 C 80.808594 14.125 81.5 13.632812 82.148438 13.1875 C 82.800781 12.757812 83.359375 12.355469 83.402344 12.296875 C 83.449219 12.253906 83.773438 12.058594 84.140625 11.851562 C 85.144531 11.300781 85.46875 10.976562 85.46875 10.484375 C 85.46875 9.578125 86.796875 8.480469 87.652344 8.65625 C 88.328125 8.804688 88.328125 8.792969 88.785156 6.667969 C 88.902344 6.132812 88.992188 5.464844 89.007812 5.167969 C 89.007812 4.511719 89.363281 4.171875 90.613281 3.5625 C 91.824219 2.984375 91.988281 3.058594 91.925781 4.125 L 91.882812 4.957031 L 91.144531 5.316406 C 90.746094 5.507812 90.246094 5.746094 90.039062 5.835938 C 89.464844 6.085938 89.390625 6.222656 89.050781 7.378906 C 88.683594 8.613281 88.742188 8.878906 89.496094 9.488281 C 90.113281 9.980469 90.777344 9.949219 91.988281 9.355469 C 93.121094 8.792969 93.285156 8.644531 93.445312 7.886719 C 93.503906 7.589844 93.667969 6.933594 93.785156 6.445312 C 94.140625 5.078125 94.09375 4.648438 93.625 4.410156 C 93.300781 4.246094 93.210938 4.113281 93.238281 3.769531 C 93.285156 3.042969 93.460938 2.300781 93.636719 2.078125 C 93.816406 1.855469 95.15625 1.214844 96.308594 0.8125 C 96.71875 0.664062 97.382812 0.414062 97.8125 0.25 C 98.960938 -0.226562 99.066406 -0.105469 98.976562 1.347656 C 98.859375 3.445312 98.742188 3.949219 98.34375 4.363281 C 98.136719 4.574219 97.855469 4.734375 97.738281 4.734375 C 97.605469 4.734375 97.265625 4.808594 96.984375 4.914062 C 94.539062 5.714844 94.285156 5.894531 94.714844 6.503906 C 94.921875 6.800781 95.023438 6.832031 95.777344 6.757812 C 96.234375 6.726562 96.851562 6.636719 97.148438 6.59375 L 97.695312 6.488281 L 97.605469 7.054688 C 97.5625 7.378906 97.457031 7.691406 97.398438 7.78125 C 97.324219 7.855469 97.265625 8.003906 97.265625 8.121094 C 97.265625 8.761719 95.878906 9.710938 93.726562 10.53125 C 93.445312 10.648438 93.046875 10.839844 92.839844 10.976562 C 92.636719 11.109375 92.238281 11.316406 91.957031 11.421875 C 91.160156 11.734375 91.070312 11.851562 91.070312 12.652344 C 91.070312 13.21875 90.984375 13.515625 90.6875 13.902344 C 90.277344 14.453125 89.507812 14.835938 88.832031 14.835938 C 88.519531 14.835938 88.253906 14.984375 87.960938 15.296875 C 87.722656 15.550781 87.53125 15.816406 87.53125 15.890625 C 87.53125 16.054688 86.648438 17.378906 86.351562 17.660156 C 86.085938 17.914062 85.691406 18.523438 85.246094 19.324219 C 85.085938 19.621094 84.804688 20.035156 84.628906 20.246094 C 84.4375 20.46875 84.289062 20.675781 84.289062 20.75 C 84.289062 20.808594 84.007812 21.152344 83.683594 21.523438 C 83.359375 21.894531 82.886719 22.472656 82.652344 22.816406 C 82.414062 23.15625 82.179688 23.453125 82.105469 23.484375 C 82.046875 23.5 81.664062 23.957031 81.265625 24.492188 C 80.410156 25.636719 75.351562 30.746094 74.230469 31.609375 C 73.804688 31.9375 73.183594 32.441406 72.859375 32.722656 C 72.535156 33.019531 72.210938 33.257812 72.152344 33.257812 C 72.078125 33.257812 71.929688 33.347656 71.828125 33.449219 C 70.765625 34.417969 68.480469 36.066406 67.625 36.480469 C 65.648438 37.402344 64.632812 37.953125 64.617188 38.085938 C 64.585938 38.339844 65.515625 38.339844 65.988281 38.101562 C 66.222656 37.96875 66.738281 37.757812 67.136719 37.625 C 67.519531 37.507812 68.125 37.269531 68.464844 37.105469 C 69.261719 36.75 69.984375 36.75 70.632812 37.105469 C 70.914062 37.269531 72.046875 38.011719 73.15625 38.738281 C 74.261719 39.480469 75.191406 40.089844 75.234375 40.089844 C 75.277344 40.089844 75.484375 40.226562 75.691406 40.386719 C 76.164062 40.761719 76.503906 40.761719 77.417969 40.402344 L 78.152344 40.121094 L 78.816406 40.507812 C 79.1875 40.699219 79.597656 40.953125 79.71875 41.042969 C 79.835938 41.144531 80.246094 41.367188 80.617188 41.5625 C 81.5 41.992188 81.753906 42.453125 81.515625 43.121094 C 81.414062 43.390625 81.339844 43.777344 81.339844 44 C 81.339844 44.207031 81.28125 44.429688 81.191406 44.472656 C 81.117188 44.519531 81.042969 44.785156 81.042969 45.066406 C 81.042969 45.351562 80.984375 45.617188 80.898438 45.664062 C 80.808594 45.707031 80.75 45.898438 80.75 46.09375 C 80.75 46.792969 80.246094 46.96875 76.914062 47.429688 C 76.117188 47.546875 75.410156 47.578125 75.277344 47.503906 C 75.085938 47.414062 74.996094 46.96875 74.851562 45.632812 C 74.761719 44.667969 74.613281 43.730469 74.539062 43.539062 C 74.40625 43.179688 73.035156 42.46875 72.492188 42.46875 C 72.34375 42.46875 72.179688 42.410156 72.121094 42.335938 C 72.078125 42.246094 71.5625 42.050781 70.972656 41.875 C 70.398438 41.695312 69.777344 41.488281 69.617188 41.429688 L 68.804688 41.132812 C 68.523438 41.027344 68.15625 40.894531 67.992188 40.820312 C 67.269531 40.507812 66.371094 40.285156 66.136719 40.34375 C 66.003906 40.386719 65.75 40.523438 65.605469 40.65625 C 63.570312 42.46875 62.773438 43.195312 62.476562 43.476562 C 62.285156 43.671875 62.035156 43.789062 61.917969 43.746094 C 61.800781 43.703125 61.667969 43.65625 61.636719 43.65625 C 61.609375 43.65625 61.578125 43.09375 61.578125 42.410156 C 61.578125 40.921875 61.503906 40.6875 61.0625 40.6875 C 60.605469 40.6875 60.53125 40.984375 60.441406 43.316406 L 60.355469 45.277344 L 59.308594 46.285156 C 58.730469 46.835938 57.671875 47.800781 56.949219 48.410156 C 56.226562 49.019531 55.429688 49.734375 55.164062 49.96875 C 54.914062 50.222656 54.335938 50.726562 53.894531 51.097656 C 53.453125 51.484375 52.804688 52.09375 52.433594 52.4375 C 52.066406 52.792969 51.003906 53.742188 50.074219 54.558594 C 47.171875 57.070312 46.667969 57.515625 46.09375 58.066406 C 44.441406 59.609375 42.777344 61.140625 42.496094 61.320312 C 42.332031 61.4375 41.832031 61.882812 41.40625 62.285156 C 40.960938 62.699219 40.503906 63.101562 40.371094 63.175781 C 40.238281 63.25 39.988281 63.445312 39.8125 63.621094 C 39.488281 63.949219 37.671875 65.597656 36.15625 66.964844 C 35.652344 67.394531 34.722656 68.242188 34.074219 68.835938 C 33.425781 69.429688 32.496094 70.246094 32.011719 70.664062 C 31.523438 71.066406 30.992188 71.539062 30.832031 71.734375 C 30.667969 71.910156 30.285156 72.222656 29.976562 72.417969 C 29.679688 72.625 29.148438 73.085938 28.796875 73.457031 C 28.457031 73.828125 27.925781 74.304688 27.632812 74.496094 C 27.320312 74.6875 27.070312 74.957031 27.070312 75.074219 C 27.070312 75.195312 27.011719 75.296875 26.9375 75.296875 C 26.847656 75.296875 26.4375 75.625 26.007812 76.027344 C 25.582031 76.425781 25.035156 76.902344 24.800781 77.097656 C 24.5625 77.289062 23.914062 77.882812 23.355469 78.417969 C 22.792969 78.953125 22.25 79.414062 22.160156 79.441406 C 22.058594 79.472656 21.527344 79.949219 20.949219 80.496094 C 20.390625 81.046875 19.625 81.761719 19.253906 82.074219 C 18.886719 82.382812 18.238281 82.992188 17.808594 83.394531 C 17.367188 83.808594 16.910156 84.195312 16.777344 84.269531 C 16.644531 84.34375 16.261719 84.671875 15.9375 84.984375 C 15.613281 85.296875 15.289062 85.546875 15.230469 85.546875 C 15.15625 85.546875 14.652344 85.996094 14.125 86.542969 C 13.578125 87.078125 12.605469 88 11.957031 88.5625 C 10.847656 89.542969 8.992188 91.296875 8.269531 92.054688 C 8.089844 92.234375 7.871094 92.382812 7.78125 92.382812 C 7.695312 92.382812 7.605469 92.425781 7.574219 92.5 C 7.5625 92.558594 6.941406 93.140625 6.203125 93.777344 C 5.480469 94.433594 4.757812 95.054688 4.625 95.191406 C 4.480469 95.324219 4.09375 95.664062 3.769531 95.945312 C 3.429688 96.230469 2.695312 96.898438 2.117188 97.433594 C 1.558594 97.96875 0.984375 98.457031 0.851562 98.53125 C 0.71875 98.605469 0.570312 98.710938 0.527344 98.769531 C 0.480469 98.8125 0.335938 98.902344 0.1875 98.960938 C -0.0195312 99.039062 -0.046875 99.007812 0.0703125 98.800781 Z M 16.527344 83.5 C 16.410156 83.378906 16.011719 83.78125 16.011719 84.035156 C 16.011719 84.195312 16.085938 84.167969 16.304688 83.914062 C 16.46875 83.722656 16.570312 83.542969 16.527344 83.5 Z M 17.292969 83.128906 C 17.351562 83.039062 17.648438 82.769531 17.929688 82.5625 C 18.222656 82.339844 18.679688 81.9375 18.960938 81.65625 C 19.238281 81.390625 19.902344 80.792969 20.433594 80.347656 C 21.261719 79.664062 22.011719 78.96875 23.589844 77.4375 C 23.753906 77.273438 24.328125 76.769531 24.84375 76.324219 C 25.359375 75.894531 25.964844 75.359375 26.1875 75.148438 C 26.390625 74.941406 26.730469 74.644531 26.9375 74.496094 C 27.308594 74.199219 27.925781 73.632812 30.402344 71.347656 C 31.964844 69.890625 33.234375 68.746094 34.753906 67.410156 C 35.269531 66.949219 35.902344 66.371094 36.15625 66.148438 C 37.347656 65.019531 38.515625 63.949219 40.105469 62.523438 C 41.082031 61.660156 42.464844 60.382812 43.21875 59.671875 C 43.957031 58.957031 44.824219 58.171875 45.152344 57.933594 C 45.460938 57.695312 46.003906 57.25 46.34375 56.9375 C 46.667969 56.609375 47.597656 55.792969 48.378906 55.09375 C 49.175781 54.398438 50.429688 53.238281 51.195312 52.511719 C 51.949219 51.78125 52.746094 51.070312 52.953125 50.9375 C 53.15625 50.800781 53.96875 50.058594 54.765625 49.300781 C 55.546875 48.542969 56.402344 47.742188 56.652344 47.503906 C 57.007812 47.148438 57.167969 46.792969 57.433594 45.691406 C 57.613281 44.949219 57.832031 44.207031 57.90625 44.074219 C 57.980469 43.925781 58.039062 43.507812 58.039062 43.136719 C 58.039062 42.46875 58.039062 42.46875 57.507812 42.46875 C 57.226562 42.46875 56.84375 42.542969 56.667969 42.632812 C 56.359375 42.796875 40.667969 58.601562 29.445312 70.054688 C 26.730469 72.816406 22.941406 76.679688 21.011719 78.640625 C 17.53125 82.175781 16.542969 83.320312 16.96875 83.320312 C 17.085938 83.320312 17.234375 83.230469 17.292969 83.128906 Z M 78.683594 44.621094 C 79.199219 44.355469 79.71875 43.714844 79.71875 43.34375 C 79.71875 43.195312 79.523438 42.855469 79.289062 42.585938 C 78.875 42.125 78.800781 42.097656 77.875 42.097656 C 76.929688 42.097656 76.871094 42.113281 76.457031 42.617188 C 76.222656 42.898438 76.03125 43.210938 76.03125 43.316406 C 76.03125 43.730469 76.382812 44.234375 76.898438 44.519531 C 77.550781 44.890625 78.109375 44.917969 78.683594 44.621094 Z M 67.402344 30.613281 C 68.375 30.316406 70.027344 30.257812 71.015625 30.507812 C 73.347656 31.105469 73.464844 31.105469 74.570312 30.421875 C 75.648438 29.753906 75.851562 28.800781 74.910156 28.800781 C 74.734375 28.800781 74.394531 28.726562 74.171875 28.636719 C 73.9375 28.5625 72.742188 28.488281 71.519531 28.488281 C 69.644531 28.472656 69.128906 28.519531 68.40625 28.773438 C 67.933594 28.933594 67.375 29.113281 67.167969 29.15625 C 66.738281 29.246094 65.914062 30.035156 65.765625 30.480469 C 65.589844 31.015625 66.015625 31.058594 67.402344 30.613281 Z M 51.492188 27.644531 C 51.816406 27.390625 52.140625 26.855469 52.140625 26.589844 C 52.140625 26.515625 51.933594 26.246094 51.683594 25.992188 C 51.300781 25.609375 51.121094 25.535156 50.488281 25.535156 C 49.457031 25.535156 48.894531 25.949219 48.894531 26.722656 C 48.894531 27.167969 48.984375 27.359375 49.308594 27.597656 C 49.824219 27.984375 51.050781 28.015625 51.492188 27.644531 Z M 74.984375 23.320312 C 75.734375 23.261719 77.402344 23.273438 78.671875 23.335938 C 79.9375 23.410156 81.117188 23.421875 81.296875 23.378906 C 81.457031 23.347656 81.78125 22.992188 82.003906 22.621094 C 82.578125 21.625 82.371094 21.464844 80.410156 21.300781 C 77.238281 21.03125 74.304688 21.179688 73.300781 21.6875 C 73.066406 21.804688 72.683594 22.175781 72.445312 22.53125 C 71.902344 23.347656 72.078125 23.660156 72.992188 23.527344 C 73.332031 23.46875 74.214844 23.394531 74.984375 23.320312 Z M 85.410156 18.269531 C 85.792969 17.839844 85.867188 17.332031 85.585938 17.109375 C 85.484375 17.019531 85.101562 16.917969 84.730469 16.871094 C 84.363281 16.8125 83.773438 16.710938 83.402344 16.636719 C 82.414062 16.410156 80.882812 16.441406 79.597656 16.710938 C 78.300781 16.976562 77.726562 17.242188 77.503906 17.675781 C 77.152344 18.3125 77.34375 18.371094 79.96875 18.460938 C 81.324219 18.492188 82.871094 18.597656 83.402344 18.671875 C 84.613281 18.832031 84.996094 18.757812 85.410156 18.269531 Z M 88.417969 13.5 C 88.417969 12.714844 88.136719 12.191406 87.355469 11.523438 C 86.457031 10.753906 85.777344 10.828125 86.015625 11.703125 C 86.101562 12.074219 87.976562 14.078125 88.242188 14.09375 C 88.34375 14.09375 88.417969 13.871094 88.417969 13.5 Z M 88.417969 13.5 "
    />
  </g>
</svg>
