<svg xmlns="http://www.w3.org/2000/svg" id="root" viewBox="664.3 381.2 6713.3 6664.3">
  <path
    d="M669 7032c5-9 31-37 56-62 26-25 64-67 85-95 20-27 80-93 131-145 52-53 112-116 133-140 22-25 121-130 221-235 100-104 206-217 236-249 30-33 95-103 145-155 142-150 217-231 280-300 33-35 97-103 144-151s150-157 229-241c79-85 176-188 215-229 39-42 93-100 120-130s104-111 171-180 160-167 206-217c111-122 316-340 508-539 86-89 176-184 199-210 42-47 209-225 392-416 80-85 92-93 220-155 74-37 153-77 174-91 38-23 41-24 67-8 20 12 33 14 46 7 10-6 50-24 88-42 39-17 81-36 95-42 50-23 90-52 90-67 0-23-190-140-227-140-19 0-53 59-53 92 0 15-5 30-10 33s-10 21-10 38c0 18-7 42-15 54-14 19-19 21-41 11-19-9-33-9-58 0-39 14-66 15-66 3s61-85 126-149c34-34 54-62 54-76 0-20-26-56-107-146-13-14-23-28-23-32 0-3-6-13-13-20s-24-29-37-48-27-37-30-40c-10-10-76-87-104-123-32-41-54-46-81-17-19 21-72 33-205 49-106 12-120 3-120-74 0-28-5-77-11-109s-8-69-5-82c7-26 64-84 84-84 6 0 12-4 12-9s9-12 19-16c11-3 39-21 63-40 23-19 50-35 58-35 19 0 69 30 140 84 69 51 79 64 80 97 0 27 34 79 51 79 6 0 29 13 52 28 23 16 62 40 87 53 86 46 90 55 90 215 0 105 4 145 14 159 14 19 15 19 25-5 6-14 15-66 20-117 14-133 31-155 84-113 14 11 28 20 31 20s39 20 79 45c41 25 84 45 95 45 14 0 35-19 62-54 22-30 45-59 52-63s20-21 28-38c17-34 29-54 90-145 25-35 54-76 67-90 12-14 55-65 94-115 90-112 118-143 249-275 130-130 222-215 258-237 15-10 48-37 73-60 40-37 79-69 189-151 14-10 61-43 105-73 44-29 82-56 85-60 3-3 25-16 50-30 68-37 90-59 90-92 0-61 90-135 148-123 46 10 46 9 77-134 8-36 14-81 15-101 0-44 24-67 109-108 82-39 93-34 89 38l-3 56-50 24c-27 13-61 29-75 35-39 17-44 26-67 104-25 83-21 101 30 142 42 33 87 31 169-9 77-38 88-48 99-99 4-20 15-64 23-97 24-92 21-121-11-137-22-11-28-20-26-43 3-49 15-99 27-114s103-58 181-85c28-10 73-27 102-38 78-32 85-24 79 74-8 141-16 175-43 203-14 14-33 25-41 25-9 0-32 5-51 12-166 54-183 66-154 107 14 20 21 22 72 17 31-2 73-8 93-11l37-7-6 38c-3 22-10 43-14 49-5 5-9 15-9 23 0 43-94 107-240 162-19 8-46 21-60 30s-41 23-60 30c-54 21-60 29-60 83 0 38-6 58-26 84-28 37-80 63-126 63-21 0-39 10-59 31-16 17-29 35-29 40 0 11-60 100-80 119-18 17-45 58-75 112-11 20-30 48-42 62-13 15-23 29-23 34 0 4-19 27-41 52s-54 64-70 87-32 43-37 45c-4 1-30 32-57 68-58 77-401 421-477 479-29 22-71 56-93 75-22 20-44 36-48 36-5 0-15 6-22 13-72 65-227 176-285 204-134 62-203 99-204 108-2 17 61 17 93 1 16-9 51-23 78-32 26-8 67-24 90-35 54-24 103-24 147 0 19 11 96 61 171 110 75 50 138 91 141 91s17 9 31 20c32 25 55 25 117 1l50-19 45 26c25 13 53 30 61 36 8 7 36 22 61 35 60 29 77 60 61 105-7 18-12 44-12 59 0 14-4 29-10 32-5 3-10 21-10 40s-4 37-10 40-10 16-10 29c0 47-34 59-260 90-54 8-102 10-111 5-13-6-19-36-29-126-6-65-16-128-21-141-9-24-102-72-139-72-10 0-21-4-25-9-3-6-38-19-78-31-39-12-81-26-92-30l-55-20c-19-7-44-16-55-21-49-21-110-36-126-32-9 3-26 12-36 21-138 122-192 171-212 190-13 13-30 21-38 18s-17-6-19-6-4-38-4-84c0-100-5-116-35-116-31 0-36 20-42 177l-6 132-71 68c-39 37-111 102-160 143s-103 89-121 105c-17 17-56 51-86 76-30 26-74 67-99 90-25 24-97 88-160 143-197 169-231 199-270 236-112 104-225 207-244 219-11 8-45 38-74 65-30 28-61 55-70 60s-26 18-38 30c-22 22-145 133-248 225-34 29-97 86-141 126s-107 95-140 123c-33 27-69 59-80 72-11 12-37 33-58 46-20 14-56 45-80 70-23 25-59 57-79 70-21 13-38 31-38 39s-4 15-9 15c-6 0-34 22-63 49s-66 59-82 72-60 53-98 89-75 67-81 69c-7 2-43 34-82 71-38 37-90 85-115 106s-69 62-98 89c-30 28-61 54-70 59s-35 27-57 48-44 38-48 38c-5 0-39 30-75 67-37 36-103 98-147 136-75 66-201 184-250 235-12 12-27 22-33 22s-12 3-14 8c-1 4-43 43-93 86-49 44-98 86-107 95-10 9-36 32-58 51-23 19-73 64-112 100-38 36-77 69-86 74s-19 12-22 16c-3 3-13 9-23 13-14 5-16 3-8-11zm1116-1030c-8-8-35 19-35 36 0 11 5 9 20-8 11-13 18-25 15-28zm52-25c4-6 24-24 43-38 20-15 51-42 70-61 19-18 64-58 100-88 56-46 107-93 214-196 11-11 50-45 85-75 35-29 76-65 91-79 14-14 37-34 51-44 25-20 67-58 235-212 106-98 192-175 295-265 35-31 78-70 95-85 81-76 160-148 268-244 66-58 160-144 211-192 50-48 109-101 131-117 21-16 58-46 81-67 22-22 85-77 138-124 54-47 139-125 191-174 51-49 105-97 119-106s69-59 123-110c53-51 111-105 128-121 24-24 35-48 53-122 12-50 27-100 32-109 5-10 9-38 9-63 0-45 0-45-36-45-19 0-45 5-57 11-21 11-1085 1075-1846 1846-184 186-441 446-572 578-236 238-303 315-274 315 8 0 18-6 22-13zm4163-2592c35-18 70-61 70-86 0-10-13-33-29-51-28-31-33-33-96-33-64 0-68 1-96 35-16 19-29 40-29 47 0 28 24 62 59 81 44 25 82 27 121 7zm-765-943c66-20 178-24 245-7 158 40 166 40 241-6 73-45 87-109 23-109-12 0-35-5-50-11-16-5-97-10-180-10-127-1-162 2-211 19-32 11-70 23-84 26-29 6-85 59-95 89-12 36 17 39 111 9zm-1079-200c22-17 44-53 44-71 0-5-14-23-31-40-26-26-38-31-81-31-70 0-108 28-108 80 0 30 6 43 28 59 35 26 118 28 148 3zm1593-291c51-4 164-3 250 1 86 5 166 6 178 3 11-2 33-26 48-51 39-67 25-78-108-89-215-18-414-8-482 26-16 8-42 33-58 57-37 55-25 76 37 67 23-4 83-9 135-14zm707-340c26-29 31-63 12-78-7-6-33-13-58-16-25-4-65-11-90-16-67-15-171-13-258 5-88 18-127 36-142 65-24 43-11 47 167 53 92 2 197 9 233 14 82 11 108 6 136-27zm204-321c0-53-19-88-72-133-61-52-107-47-91 12 6 25 133 160 151 161 7 0 12-15 12-40z"
  />
</svg>
