<svg xmlns="http://www.w3.org/2000/svg" id="root" viewBox="0 0 100 125">
  <g>
    <path
      d="M 46.238281 122.707031 C 44.699219 120.253906 38.480469 110.605469 33.835938 103.550781 C 29.734375 97.246094 26.488281 94.144531 20.199219 90.429688 L 15.246094 87.5 L 10.152344 80.101562 C 5.265625 73.011719 1.953125 67.355469 0.484375 63.675781 C -0.167969 61.96875 -0.167969 61.9375 0.515625 59.3125 C 0.894531 57.847656 1.335938 54.574219 1.507812 52.050781 C 1.953125 46.324219 1.988281 46.121094 3.285156 44.519531 C 4.308594 43.222656 4.34375 43.15625 4.140625 40.566406 C 3.933594 38.28125 4.035156 37.53125 4.789062 35.28125 C 5.574219 32.898438 5.78125 32.589844 7.144531 31.804688 C 7.964844 31.328125 9.027344 30.921875 9.539062 30.921875 L 10.425781 30.921875 L 10.222656 25.398438 L 12.714844 23.082031 C 14.152344 21.71875 15.175781 20.492188 15.175781 20.082031 C 15.175781 19.707031 14.9375 18.242188 14.628906 16.84375 L 14.117188 14.289062 L 15.175781 11.457031 C 15.757812 9.890625 16.441406 8.152344 16.679688 7.574219 C 17.363281 6.039062 19.722656 3.210938 20.917969 2.5625 L 21.941406 1.949219 L 23.136719 3.277344 C 24.402344 4.675781 24.746094 4.574219 24.746094 2.835938 C 24.746094 2.425781 25.257812 1.574219 25.871094 0.996094 C 26.964844 -0.0625 27.101562 -0.09375 28.949219 0.109375 C 30.726562 0.3125 30.964844 0.449219 31.613281 1.574219 C 32.226562 2.597656 32.296875 3.140625 32.125 4.777344 C 31.886719 7.027344 32.363281 7.539062 33.800781 6.585938 C 34.621094 6.039062 34.65625 6.074219 40.222656 11.765625 C 49.449219 21.105469 48.835938 20.21875 50.203125 26.320312 C 50.851562 29.285156 51.570312 30.851562 54.851562 36.882812 C 57.582031 41.828125 57.515625 41.691406 59.804688 51.574219 C 60.421875 54.402344 61.683594 66.980469 61.785156 71.820312 L 61.890625 75.773438 L 66.09375 82.042969 C 68.417969 85.519531 71.285156 89.816406 72.484375 91.621094 C 75.933594 96.769531 76.824219 101.335938 75.214844 105.902344 C 74.121094 108.9375 73.097656 110.4375 69.988281 113.539062 C 67.152344 116.367188 64.726562 118.410156 59.359375 122.535156 L 56.113281 124.988281 L 47.707031 124.988281 Z M 66.058594 106.855469 C 65.441406 105.699219 58.371094 95.304688 56.011719 92.167969 C 53.3125 88.554688 53.003906 88.488281 53.3125 91.484375 C 53.449219 93.085938 53.789062 94.179688 54.335938 95.03125 C 55.875 97.3125 60.828125 103.007812 63.324219 105.324219 C 65.851562 107.675781 66.777344 108.1875 66.058594 106.855469 Z M 66.777344 99.085938 C 64.109375 93.835938 63.1875 92.371094 60.421875 89.03125 C 55.808594 83.476562 55.566406 83.714844 58.847656 90.53125 C 61.480469 96.054688 69.339844 106.925781 69.78125 105.628906 C 69.851562 105.425781 68.484375 102.496094 66.777344 99.085938 Z M 37.558594 96.496094 C 40.222656 95.335938 40.632812 95.03125 44.460938 91.007812 C 48.9375 86.269531 49.554688 85.488281 48.253906 86.167969 C 44.90625 87.941406 36.636719 93.972656 35.644531 95.40625 C 35.203125 96.019531 34.722656 96.597656 34.585938 96.632812 C 34.277344 96.769531 34.210938 97.722656 34.519531 97.722656 C 34.621094 97.722656 35.988281 97.175781 37.558594 96.496094 Z M 56.625 80.851562 C 57.992188 80.273438 59.941406 78.125 59.941406 77.136719 C 59.941406 76.796875 59.769531 75.910156 59.53125 75.195312 C 58.882812 72.945312 58.710938 73.113281 55.261719 79.214844 C 53.996094 81.5 54.304688 81.839844 56.625 80.851562 Z M 36.019531 76.863281 C 35.988281 71.171875 35.78125 70.355469 33.59375 67.457031 C 30.894531 63.84375 30.726562 64.082031 32.125 69.367188 C 32.605469 71.171875 33.320312 73.898438 33.765625 75.398438 C 34.210938 76.898438 34.757812 78.773438 34.960938 79.589844 C 35.679688 82.113281 36.019531 81.191406 36.019531 76.863281 Z M 23.546875 77.035156 C 25.257812 74.171875 25.566406 73.386719 25.804688 71.308594 C 26.214844 67.730469 26.179688 65.617188 25.703125 65.753906 C 25.1875 65.921875 23.003906 71.820312 21.875 76.011719 C 20.40625 81.5 20.710938 81.703125 23.546875 77.035156 Z M 48.628906 72.09375 C 48.628906 71.855469 48.289062 70.660156 47.878906 69.433594 L 47.128906 67.21875 L 44.394531 65.789062 C 41.933594 64.492188 40.464844 64.015625 40.464844 64.492188 C 40.464844 64.59375 41.179688 65.753906 42.070312 67.046875 C 44.085938 70.117188 48.734375 73.660156 48.628906 72.09375 Z M 8.410156 65.789062 C 9.539062 64.867188 11.484375 63.539062 12.714844 62.753906 C 14.835938 61.492188 15.003906 61.289062 15.109375 60.09375 L 15.210938 58.800781 L 13.742188 59.039062 C 11.894531 59.34375 8.410156 60.46875 7.453125 61.082031 C 6.976562 61.390625 6.597656 62.175781 6.359375 63.503906 C 5.917969 65.617188 5.8125 67.390625 6.15625 67.390625 C 6.257812 67.390625 7.28125 66.671875 8.410156 65.789062 Z M 6.222656 59.480469 C 8.582031 58.050781 8.582031 57.949219 6.597656 55.9375 C 4.6875 53.996094 4.070312 53.722656 3.761719 54.710938 C 3.320312 56.210938 2.839844 59.6875 3.011719 60.128906 C 3.25 60.777344 4.582031 60.503906 6.222656 59.480469 Z M 32.125 58.699219 C 33.765625 57.742188 34.3125 56.347656 33.5625 55.152344 C 32.910156 54.097656 32.332031 54.265625 32.089844 55.597656 C 31.953125 56.242188 31.375 57.230469 30.691406 57.878906 C 30.042969 58.492188 29.527344 59.140625 29.527344 59.277344 C 29.527344 59.789062 30.65625 59.550781 32.125 58.699219 Z M 26.386719 58.664062 C 27.445312 58.355469 27.339844 58.050781 25.734375 56.3125 C 24.949219 55.460938 23.617188 53.753906 22.730469 52.496094 C 20.847656 49.769531 19.6875 48.914062 16.816406 48.199219 C 14.289062 47.550781 5.609375 46.734375 4.789062 47.042969 C 4.378906 47.210938 4.277344 47.519531 4.445312 48.199219 C 5.027344 50.824219 5.371094 51.4375 7.113281 52.734375 C 8.820312 54.027344 9.058594 54.097656 11.347656 54.097656 C 12.683594 54.097656 13.84375 53.960938 13.980469 53.753906 C 14.082031 53.585938 13.945312 52.902344 13.671875 52.257812 C 12.957031 50.550781 13.605469 50.347656 14.9375 51.882812 C 17.296875 54.640625 18.96875 56.109375 21.191406 57.472656 C 23.480469 58.835938 24.675781 59.105469 26.386719 58.664062 Z M 35.917969 50.789062 C 36.089844 50.28125 28.46875 41.757812 26.078125 39.746094 C 24.472656 38.417969 24.027344 38.246094 19.859375 37.363281 C 15.484375 36.441406 8.855469 35.351562 7.589844 35.351562 C 6.566406 35.351562 5.574219 37.804688 5.675781 40.054688 L 5.78125 41.996094 L 10.734375 42.203125 C 16.203125 42.40625 20.097656 43.15625 21.976562 44.28125 C 22.660156 44.691406 23.273438 45.132812 23.378906 45.234375 C 23.480469 45.335938 24.640625 46.359375 25.941406 47.519531 C 29.085938 50.28125 31.476562 51.402344 33.9375 51.300781 C 34.996094 51.234375 35.851562 51.027344 35.917969 50.789062 Z M 40.804688 49.734375 C 42.34375 48.269531 42.546875 47.144531 41.558594 45.917969 C 40.738281 44.929688 40.121094 45.269531 40.121094 46.699219 C 40.121094 47.3125 39.882812 48.132812 39.609375 48.542969 C 39.335938 48.914062 38.960938 49.664062 38.753906 50.144531 C 38.277344 51.472656 39.132812 51.300781 40.804688 49.734375 Z M 54.132812 46.496094 C 54.132812 46.257812 53.140625 45.097656 51.945312 43.90625 L 49.757812 41.757812 L 46.476562 41.179688 C 44.667969 40.839844 43.027344 40.703125 42.820312 40.839844 C 42.34375 41.109375 43.539062 42.984375 44.496094 43.496094 C 44.972656 43.734375 49.65625 45.472656 53.105469 46.699219 C 53.960938 47.007812 54.132812 46.972656 54.132812 46.496094 Z M 40.464844 40.703125 C 40.464844 39.644531 39.335938 37.054688 38.824219 36.917969 C 38.515625 36.816406 37.21875 36.644531 35.953125 36.507812 C 34.039062 36.339844 33.59375 36.375 33.425781 36.816406 C 33.046875 37.804688 34.246094 39.339844 36.089844 40.257812 C 38.003906 41.214844 40.464844 41.453125 40.464844 40.703125 Z M 34.792969 35.386719 C 34.894531 35.214844 33.765625 33.578125 32.296875 31.703125 C 29.800781 28.566406 29.460938 28.261719 27.546875 27.546875 C 25.222656 26.726562 21.667969 26.25 15.757812 26.011719 C 11.007812 25.839844 11.109375 25.773438 11.792969 29.148438 L 12.273438 31.429688 L 15.519531 31.839844 C 17.296875 32.042969 19.753906 32.554688 20.984375 32.964844 C 26.351562 34.738281 30.144531 35.65625 32.332031 35.65625 C 33.59375 35.691406 34.6875 35.554688 34.792969 35.386719 Z M 41.285156 35.179688 C 42.105469 34.363281 42.273438 32.523438 41.761719 30.171875 C 41.316406 28.089844 41.25 27.988281 39.609375 27.101562 C 38.6875 26.625 37.796875 26.285156 37.628906 26.386719 C 37.492188 26.457031 37.902344 27.136719 38.550781 27.851562 C 39.199219 28.566406 39.917969 29.796875 40.15625 30.546875 C 40.53125 31.773438 40.496094 32.011719 39.644531 33.441406 C 39.164062 34.261719 38.753906 35.113281 38.753906 35.316406 C 38.753906 35.894531 40.703125 35.761719 41.285156 35.179688 Z M 42.445312 23.21875 C 43.4375 22.945312 43.402344 22.058594 42.378906 19.433594 C 41.453125 17.082031 40.222656 15.171875 37.320312 11.59375 C 35.613281 9.515625 35.132812 9.105469 34.277344 9.105469 C 33.730469 9.105469 33.183594 9.3125 33.082031 9.550781 C 32.980469 9.824219 33.046875 11.425781 33.21875 13.128906 C 33.457031 15.546875 33.800781 16.777344 34.722656 18.753906 C 35.78125 20.96875 36.15625 21.410156 37.765625 22.332031 C 39.574219 23.386719 40.875 23.625 42.445312 23.21875 Z M 33.765625 22.773438 C 33.867188 22.636719 33.5625 20.898438 33.082031 18.957031 C 32.605469 17.015625 32.125 14.183594 31.988281 12.71875 L 31.75 10.027344 L 30.554688 9.617188 C 29.390625 9.242188 29.324219 9.140625 28.777344 6.515625 C 28.46875 5.050781 28.195312 3.722656 28.195312 3.585938 C 28.128906 3.039062 26.453125 3.347656 26.179688 3.925781 C 26.007812 4.234375 25.667969 5.359375 25.429688 6.378906 C 25.1875 7.402344 24.710938 8.730469 24.402344 9.277344 C 24.0625 9.855469 23.582031 11.015625 23.378906 11.867188 C 23.035156 13.230469 23.070312 13.808594 23.71875 16.128906 C 25.050781 21.070312 25.085938 21.070312 29.222656 21.546875 C 30.316406 21.683594 31.613281 22.058594 32.125 22.398438 C 33.289062 23.113281 33.527344 23.183594 33.765625 22.773438 Z M 20.609375 18.617188 C 21.089844 17.765625 21.054688 17.660156 19.6875 16.367188 C 17.773438 14.558594 17.773438 13.539062 19.617188 12.3125 C 20.472656 11.765625 21.054688 11.050781 21.191406 10.503906 C 21.292969 10.027344 21.429688 9.3125 21.5 8.96875 C 21.667969 8.152344 20.4375 5.699219 19.859375 5.699219 C 19.617188 5.699219 18.867188 6.414062 18.183594 7.300781 C 15.6875 10.675781 15.6875 10.640625 15.6875 14.765625 C 15.6875 19.398438 15.894531 19.742188 18.390625 19.605469 C 19.824219 19.503906 20.199219 19.367188 20.609375 18.617188 Z M 20.609375 18.617188 "
    />
    <path
      d="M 61.308594 124.851562 C 61.308594 124.785156 63.152344 123.25 65.375 121.410156 C 71.082031 116.808594 75.660156 111.96875 77.027344 109.175781 C 78.359375 106.378906 79.042969 102.902344 78.839844 99.871094 C 78.667969 97.28125 78.632812 97.28125 80.855469 100.449219 C 87.484375 109.992188 87.414062 109.789062 87.859375 114.628906 C 88.066406 117.21875 87.585938 119.707031 86.183594 122.707031 L 85.125 124.988281 L 73.234375 124.988281 C 66.671875 124.988281 61.308594 124.921875 61.308594 124.851562 Z M 88.917969 123.726562 C 90.082031 121.445312 90.796875 118.785156 91.003906 116.058594 L 91.207031 113.433594 L 95.308594 118.582031 C 97.566406 121.410156 99.613281 124.035156 99.855469 124.375 C 100.296875 124.957031 100.058594 124.988281 94.285156 124.988281 L 88.304688 124.988281 Z M 88.917969 123.726562 "
    />
  </g>
</svg>
