<svg id="root" xmlns="http://www.w3.org/2000/svg" width="768" height="441" viewBox="0 0 7680 4410">
  <g>
    <path
      d="M4099 4273c-45-72-227-355-363-562-120-185-215-276-399-385l-145-86-149-217c-143-208-240-374-283-482-19-50-19-51 1-128 11-43 24-139 29-213 13-168 14-174 52-221 30-38 31-40 25-116-6-67-3-89 19-155 23-70 29-79 69-102 24-14 55-26 70-26h26l-3-81-3-81 73-68c42-40 72-76 72-88 0-11-7-54-16-95l-15-75 31-83c17-46 37-97 44-114 20-45 89-128 124-147l30-18 35 39c37 41 47 38 47-13 0-12 15-37 33-54 32-31 36-32 90-26 52 6 59 10 78 43 18 30 20 46 15 94-7 66 7 81 49 53 24-16 25-15 188 152 270 274 252 248 292 427 19 87 40 133 136 310 80 145 78 141 145 431 18 83 55 452 58 594l3 116 123 184c68 102 152 228 187 281 101 151 127 285 80 419-32 89-62 133-153 224-83 83-154 143-311 264l-95 72h-246l-43-67zm580-465c-18-34-225-339-294-431-79-106-88-108-79-20 4 47 14 79 30 104 45 67 190 234 263 302 74 69 101 84 80 45zm21-228c-78-154-105-197-186-295-135-163-142-156-46 44 77 162 307 481 320 443 2-6-38-92-88-192zm-855-76c78-34 90-43 202-161 131-139 149-162 111-142-98 52-340 229-369 271-13 18-27 35-31 36-9 4-11 32-2 32 3 0 43-16 89-36zm558-459c40-17 97-80 97-109 0-10-5-36-12-57-19-66-24-61-125 118-37 67-28 77 40 48zm-603-117c-1-167-7-191-71-276-79-106-84-99-43 56 14 53 35 133 48 177s29 99 35 123c21 74 31 47 31-80zm-365 5c50-84 59-107 66-168 12-105 11-167-3-163-15 5-79 178-112 301-43 161-34 167 49 30zm734-145c0-7-10-42-22-78l-22-65-80-42c-72-38-115-52-115-38 0 3 21 37 47 75 59 90 195 194 192 148zm-1177-185c33-27 90-66 126-89 62-37 67-43 70-78l3-38-43 7c-54 9-156 42-184 60-14 9-25 32-32 71-13 62-16 114-6 114 3 0 33-21 66-47zm-64-185c69-42 69-45 11-104-56-57-74-65-83-36-13 44-27 146-22 159 7 19 46 11 94-19zm758-23c48-28 64-69 42-104-19-31-36-26-43 13-4 19-21 48-41 67-19 18-34 37-34 41 0 15 33 8 76-17zm-168-1c31-9 28-18-19-69-23-25-62-75-88-112-55-80-89-105-173-126-74-19-328-43-352-34-12 5-15 14-10 34 17 77 27 95 78 133 50 38 57 40 124 40 39 0 73-4 77-10 3-5-1-25-9-44-21-50-2-56 37-11 69 81 118 124 183 164 67 40 102 48 152 35zm279-231c5-15-218-265-288-324-47-39-60-44-182-70-128-27-322-59-359-59-30 0-59 72-56 138l3 57 145 6c160 6 274 28 329 61 20 12 38 25 41 28s37 33 75 67c92 81 162 114 234 111 31-2 56-8 58-15zm143-31c45-43 51-76 22-112-24-29-42-19-42 23 0 18-7 42-15 54-8 11-19 33-25 47-14 39 11 34 60-12zm390-95c0-7-29-41-64-76l-64-63-96-17c-53-10-101-14-107-10-14 8 21 63 49 78 14 7 151 58 252 94 25 9 30 8 30-6zm-400-170c0-31-33-107-48-111-9-3-47-8-84-12-56-5-69-4-74 9-11 29 24 74 78 101 56 28 128 35 128 13zm-166-156c3-5-30-53-73-108-73-92-83-101-139-122-68-24-172-38-345-45-139-5-136-7-116 92l14 67 95 12c52 6 124 21 160 33 157 52 268 79 332 79 37 1 69-3 72-8zm190-6c24-24 29-78 14-147-13-61-15-64-63-90-27-14-53-24-58-21-4 2 8 22 27 43s40 57 47 79c11 36 10 43-15 85-14 24-26 49-26 55 0 17 57 13 74-4zm34-351c29-8 28-34-2-111-27-69-63-125-148-230-50-61-64-73-89-73-16 0-32 6-35 13-3 8-1 55 4 105 7 71 17 107 44 165 31 65 42 78 89 105 53 31 91 38 137 26zm-254-13c3-4-6-55-20-112s-28-140-32-183l-7-79-35-12c-34-11-36-14-52-91-9-43-17-82-17-86-2-16-51-7-59 10-5 9-15 42-22 72s-21 69-30 85c-10 17-24 51-30 76-10 40-9 57 10 125 39 145 40 145 161 159 32 4 70 15 85 25 34 21 41 23 48 11zm-385-122c14-25 13-28-27-66-56-53-56-83-2-119 25-16 42-37 46-53 3-14 7-35 9-45 5-24-31-96-48-96-7 0-29 21-49 47-73 99-73 98-73 219 0 136 6 146 79 142 42-3 53-7 65-29z" />
    <path
      d="M4540 4336c0-2 54-47 119-101 167-135 301-277 341-359 39-82 59-184 53-273-5-76-6-76 59 17 194 280 192 274 205 416 6 76-8 149-49 237l-31 67h-348c-192 0-349-2-349-4zm808-33c34-67 55-145 61-225l6-77 120 151c66 83 126 160 133 170 13 17 6 18-163 18h-175l18-37z" />
  </g>
</svg>