<svg xmlns="http://www.w3.org/2000/svg" id="root" viewBox="0 0 3160 3850">
  <path
    d="M1462 3825c-7-14-12-31-12-37s-22-45-50-87c-53-81-190-293-342-531-130-204-232-304-430-423l-145-88-94-141c-52-78-98-146-104-152-38-42-96-139-181-306-58-113-67-183-39-290 10-36 23-133 29-216 12-144 14-152 45-198 32-46 33-50 26-115-7-69 2-118 38-203 18-42 82-88 123-88 25 0 25-1 19-54-4-33-3-68 4-89 12-34 109-137 130-137 7 0 7-9 0-27-6-16-12-77-12-138-2-100 0-115 25-167 38-81 113-183 153-208 24-15 47-20 77-18 38 3 46-1 72-29 28-33 29-33 122-33h94l20 40c12 24 20 59 20 90v50h39c37 0 46 8 231 197 106 109 199 207 206 219 8 11 26 74 40 140 27 123 24 116 180 409 40 77 63 154 108 365 20 90 55 434 61 598l5 117 183 275c101 151 192 298 201 325 22 62 31 225 18 285-16 66-6 61 14-6 11-40 16-90 15-151l-1-93h33c27 0 37 7 57 38 14 20 68 100 121 177 95 138 96 141 109 227 16 103 9 210-18 291-27 80-9 59 24-28 17-46 28-98 31-152l6-83h33c31 0 41 10 126 117 51 65 126 158 165 208 51 63 73 98 73 118v27h-530l-1-22v-23l-16 23-15 22h-808v-24c0-13 9-36 21-52 11-16-1-5-28 24l-50 52h-105c-103 0-105-1-116-25zm698-390c19-19 32-35 29-35s-20 16-39 35-32 35-29 35 20-16 39-35zm135-176c9-17 15-33 13-35-3-2-12 12-21 31-21 43-13 47 8 4zm-374-407c-11-21-27-45-37-53-16-13-16-12-4 11 17 32 50 80 56 80 2 0-4-17-15-38zm-212-17c-18-25-34-43-36-41-6 6 50 85 60 86 5 0-6-20-24-45zm85-517c-4-5-17 8-30 29-33 53-30 63 6 18 16-20 27-42 24-47zm-699-123c-3-24-13-49-20-55-19-16-19-12 3 67 18 69 29 62 17-12zm-296-20c0-13-5-8-14 15-18 46-18 61 0 30 8-14 14-34 14-45zm636-84c-7-22-62-57-72-47-4 3 11 22 32 41 40 38 51 40 40 6zM326 1949c10-12 50-39 87-61 38-22 67-42 64-44-8-8-142 38-159 54-20 20-35 72-21 72 6 0 18-9 29-21zm-86-167 30-19-29-21-29-21-6 22c-7 27-8 57-1 57 2 0 18-8 35-18zm538-50c-19-21-50-63-68-93-43-71-76-96-156-119-63-18-299-48-308-39-2 2-2 17 1 32 4 18 25 44 60 72 45 37 62 45 96 45h42l-3-45-4-45h44c43 0 47 3 90 59 29 37 76 78 129 114 98 66 126 73 77 19zm281-199c-8-10-16-20-19-23s-43-48-90-100c-151-171-167-181-350-218-121-25-243-45-284-47-17 0-45 59-45 98l-1 37h118c128 0 284 25 342 55 45 23 72 44 138 108 53 50 149 106 186 107 16 0 17-2 5-17zm465-184c-20-19-77-38-118-39-29 0-15 9 55 35 80 30 89 30 63 4zm-315-129c-11-30-17-34-84-45l-40-7 24 26c13 14 42 32 65 40s42 15 43 15c1 1-3-12-8-29zm-201-167c-18-21-43-54-56-75-28-46-121-85-231-98-133-15-269-22-274-13-2 4 1 28 7 53l11 45 85 11c69 8 268 60 400 104 14 5 40 9 59 9l33 1-34-37zm286-332c10-15-26-105-65-161-68-98-131-175-145-178-23-6-5 112 29 193 35 85 40 90 97 126 46 29 75 36 84 20zm-289-112c-9-34-19-94-22-133-6-79-15-96-48-96-27 0-40-31-51-117-4-29-10-51-14-48-4 2-13 32-19 66-7 34-20 74-29 87-37 56-40 91-14 182 13 47 29 90 36 97 13 14 170 43 174 32 2-4-4-35-13-70zm-369 0c4-7-1-16-9-21-22-12-39-45-49-93-6-33-6-30-3 18 5 77 39 131 61 96zm24-240c13-22 13-59 1-59-10 0-61 83-61 100 0 14 48-18 60-41z"
  />
  <g fill="#EEEEBF">
    <path
      d="M1412 3827c-12-13-22-34-22-48 0-15-61-119-151-259-83-129-186-289-228-354-115-181-199-264-371-366-77-47-156-101-174-120-56-59-285-398-354-524-119-217-126-247-92-378 11-42 25-143 31-225 10-143 12-150 44-198s33-53 28-122c-4-56-1-86 16-141 24-81 54-121 117-158 43-25 44-27 44-78 0-59 10-77 88-157l54-57-11-51c-17-81-13-130 18-217 43-119 67-161 130-227 65-69 96-87 147-87 26 0 46-8 72-31C833-2 835-2 917 2c75 4 86 7 114 34 39 37 59 75 59 114 0 22 5 30 18 30 20 0 443 433 465 476 8 16 24 74 36 129 27 120 30 129 136 325 85 157 96 189 145 410 23 101 56 410 66 622l7 128 183 275c100 151 186 284 189 295 5 15 15 20 39 20 49 0 71 27 276 329 24 35 46 80 49 100 6 33 9 36 43 39 44 4 63 24 223 230 61 77 117 141 126 142 29 0 56 43 63 98l7 52h-35c-26 0-38-6-51-27-10-16-44-59-75-98-31-38-101-126-156-195l-99-125-7 85c-6 86-40 195-76 248-10 15-27 44-37 66-24 46-29 48-91 44l-49-3 23-21c33-31 102-170 123-248 21-79 22-122 6-218-11-60-22-82-112-213-55-81-110-160-121-176l-22-30 2 93c2 168-58 295-207 441-67 66-264 231-342 287-12 8-34 32-49 53-27 35-31 37-88 37s-58-1-47-22c20-37 120-130 234-218 60-47 160-134 222-195 96-94 117-121 150-190 35-75 38-86 38-170 0-61-7-108-19-145-12-34-90-162-206-335l-186-280-1-105c-1-129-38-510-59-605-49-222-68-284-108-360-156-293-153-286-180-409-14-66-32-129-40-140-7-12-101-110-207-219-160-165-196-197-213-192-72 23-70 24-62-43 6-51 3-68-14-102l-20-40h-62c-54 0-66 4-90 27-19 19-28 37-28 59 0 47-14 49-48 6l-30-37-38 20c-63 34-168 196-188 290-3 17-1 64 5 105 23 155 23 148 1 154-27 9-122 111-123 133-1 10 0 46 1 81 2 61 1 62-24 62-30 0-101 41-115 67-5 10-18 45-29 79-16 50-18 73-12 130 8 68 7 70-28 124s-36 59-48 205c-6 83-19 179-29 215-9 36-15 82-12 103 9 64 170 366 232 433 6 6 52 74 104 152l94 141 145 88c198 119 300 219 430 423 152 238 289 450 342 531 28 42 50 82 50 90s9 29 20 47 20 35 20 37c0 3-19 5-43 5-33 0-49-6-65-23z"
    />
    <path
      d="M1952 3187c-31-29-69-64-83-78-14-13-57-62-95-109s-71-87-74-90c-38-36-58-81-64-147-6-57-4-73 6-72 17 0 29 16 217 288 187 273 205 313 93 208zM2065 3138c-21-24-58-72-83-108s-63-88-84-116c-37-50-151-277-164-328-9-39 13-25 61 36 22 28 63 79 91 113 34 39 84 125 143 242 50 100 91 186 91 192 0 21-18 11-55-31zM1080 2929c0-38 134-153 322-276 80-52 108-67 108-55 0 5-55 66-122 136-109 114-132 133-202 167-83 41-106 47-106 28zM1670 2450c0-31 107-210 125-210 8 0 20 20 28 48 16 51 10 70-32 120-32 36-121 67-121 42zM1086 2368c-46-149-101-377-92-385 8-8 26 10 91 98l40 54 3 158c3 103 0 157-6 157s-22-37-36-82zM690 2414c0-42 58-242 98-337 43-101 52-104 51-21-2 140-10 174-73 277-57 94-76 114-76 81zM1414 2155c-39-28-78-69-108-112-40-59-55-93-42-93 1 0 46 20 99 45l95 44 16 53c28 99 29 108 15 108-8 0-42-21-75-45zM247 2043c-8-16 22-155 37-172 16-18 123-53 198-67 77-13 58 58-30 109-32 19-87 58-122 86-65 51-75 57-83 44zM165 1793c9-83 24-133 38-133 21 1 120 99 114 114-8 19-110 76-137 76-21 0-22-3-15-57zM940 1812c0-5 14-21 30-37 17-16 35-46 41-67 11-44 34-50 50-14 17 37 3 72-38 101-36 24-83 34-83 17zM671 1743c-53-36-100-77-129-114-43-57-82-80-67-41 3 9 9 29 12 45l6 27h-81c-80 0-80 0-134-44-46-38-56-51-66-96-7-28-12-56-12-61 0-24 289 2 400 35 67 20 96 45 145 122 20 32 57 80 82 106 59 60 54 78-19 78-48 0-62-6-137-57zM948 1551c-31-15-80-50-110-78-66-64-93-85-138-108-58-30-214-55-342-55H240v-63c0-67 20-124 47-134 20-8 155 11 338 48 189 38 203 47 355 219 47 52 99 111 117 130 52 55 45 70-29 70-48-1-77-8-120-29zM1200 1565c0-3 11-28 25-55s25-63 25-80c0-22 5-30 18-30 34 0 55 78 29 110-30 38-97 76-97 55zM1525 1409c-60-22-122-45-137-51-32-12-75-75-61-89 5-5 47-1 107 10l98 18 69 69c38 38 69 72 69 76 0 15-35 7-145-33zM1144 1264c-51-18-84-52-87-90l-2-29 60 1c95 1 110 8 129 57 25 67 22 77-21 76-21 0-56-7-79-15zM1228 1123c-25-6-22-27 8-72 23-36 24-43 14-81-6-22-27-59-47-81s-33-43-29-47c12-12 100 45 115 75 9 16 15 59 15 101 1 66-2 76-23 93-13 10-26 18-30 18-3-1-14-3-23-6zM920 1110c-132-44-331-96-400-104l-85-11-17-70c-24-99-24-99 137-91 189 10 265 22 338 51 55 22 71 34 101 78 19 29 52 71 72 94s33 47 29 53c-7 12-138 12-175 0zM1202 743c-69-36-85-55-120-141-27-64-32-92-34-167l-3-90 27-3c15-2 34 0 42 5 15 9 87 99 144 183 44 63 94 191 82 210-4 7-26 16-50 20-34 6-50 3-88-17zM1015 733c-16-9-66-22-110-30s-85-19-92-26c-6-7-23-56-39-110-25-92-26-103-14-150 7-29 21-63 30-77 10-14 24-54 30-88 13-63 30-92 54-92 22 0 33 22 40 75 12 86 25 115 51 115 33 0 42 17 48 95 3 39 18 118 32 178 32 131 29 142-30 110zM566 628c-17-26-36-130-29-162 10-47 66-161 99-201l24-30 20 25c28 35 33 61 20 109-8 31-21 48-50 67-55 36-51 71 14 126 30 26 30 28 16 55-13 23-24 29-57 31-35 3-44-1-57-20z"
    />
  </g>
</svg>
