<svg xmlns="http://www.w3.org/2000/svg" id="root" viewBox="525.85 1932.92 20272.96 9834.39">
  <path
    d="M19457 11759c-484-21-624-55-681-164-19-36-21-56-20-190 1-184 28-328 108-569 196-591 562-1123 794-1153 33-4 45 2 117 60 120 96 342 303 763 708l153 148-119 238c-154 307-282 604-326 755-20 69-57 115-111 139-81 36-295 45-678 28zM20490 11645c-17-21-8-79 31-201 45-142 94-238 148-295 71-73 117-66 128 21 13 96-45 255-134 364-80 99-147 142-173 111zM18320 11585c-6-8-17-45-22-82-9-59-8-84 11-177 99-495 624-1579 897-1853 46-47 69-63 89-63 27 0 27 1 21 42-9 55-70 192-138 309-191 328-245 423-297 528-128 255-219 495-302 799-80 294-139 435-201 487-34 29-41 30-58 10zM17980 11483c-88-31-394-170-1205-546-660-306-874-400-1025-452-52-18-167-65-255-105-526-237-747-326-837-337-144-17-126-93 185-738 227-474 336-729 367-860 30-133 183-460 257-549 125-153 261-160 484-25 204 124 794 399 1374 642 99 41 365 155 590 252 436 188 678 290 865 362 63 25 122 51 131 59 59 53 17 183-202 625-338 680-495 1062-554 1339-31 149-60 251-86 303-19 37-45 46-89 30zm-871-922c172-53 315-219 342-396 9-52 7-82-5-141-36-176-149-283-339-319-203-39-347-1-453 119-88 100-173 312-159 396 14 85 151 243 261 302 108 58 243 73 353 39zm-1182-467c63-30 147-118 190-199 96-181 109-457 29-632-47-101-148-177-254-190-59-7-156 17-220 54-174 100-349 412-329 585 13 104 82 205 210 306 143 114 251 136 374 76z"
  />
  <path
    d="M16817 10374c-61-19-122-79-137-135-21-76 9-163 84-246 64-71 131-103 216-103 106 0 178 48 231 156 36 73 43 178 15 232-44 86-270 139-409 96zM15702 9925c-59-26-149-122-173-184-62-165 64-355 258-386 108-17 242 73 279 188 15 50 15 57-1 112-61 210-223 331-363 270zM13895 10403c-115-11-303-108-353-183-20-30-23-44-19-95 6-77 29-135 210-515 416-877 1031-2295 1146-2642 71-214 146-242 365-139 158 73 206 133 206 253 0 135-50 268-355 933-200 438-416 942-662 1545-265 650-312 762-331 784-36 40-127 66-207 59zM12915 10027c-82-27-182-111-205-172-23-57-15-143 23-255 44-132 88-235 272-635 201-437 227-495 555-1261 379-883 487-1095 617-1215 65-61 102-79 161-79 75 0 137 37 239 144 175 184 175 198-5 555-174 343-328 679-597 1301-70 162-205 471-300 685-95 215-201 458-234 540-94 229-102 245-153 297-69 71-142 102-248 105-50 2-102-3-125-10zM12178 9665c-83-23-111-45-137-110-20-51-24-77-24-170-1-136 19-218 73-300 74-115 354-703 508-1070 28-66 76-181 107-255 207-493 527-1234 576-1337 65-136 143-232 222-271 92-46 207-21 287 63 33 35 35 39 34 104-3 124-76 318-331 871-286 619-505 1125-724 1663-184 455-279 648-369 750-66 75-121 90-222 62zM11722 8915c-51-14-255-105-297-131-92-59-1206-554-2325-1034-282-121-685-302-813-366-145-72-197-107-197-130 0-68 711-1699 976-2241 96-196 101-200 201-182 158 29 725 256 1498 599 77 34 277 123 445 197 168 75 347 155 399 180 52 24 214 96 360 160 408 177 1016 444 1019 448 6 5-417 924-527 1146-110 221-208 391-257 445-38 41-44 41-174-3-93-32-123-45-550-233-459-202-760-333-1015-440-500-210-1081-482-1206-566-107-71-157-87-269-88-197-1-346 81-406 223-35 83-5 178 83 263 102 98 261 189 623 356 107 50 265 122 350 162 264 122 1129 515 1240 563 113 48 137 57 244 83 163 40 640 316 750 433 44 48 48 56 42 89-3 20-14 45-25 55-26 26-100 31-169 12z"
  />
  <path
    d="M11865 8465c-163-48-489-188-1068-459-409-191-745-336-780-336-100 0-906-402-1129-564-63-45-73-62-63-106 12-53 50-87 110-101 100-22 254 21 509 141 55 26 247 114 426 195s377 171 440 200c165 75 565 254 705 315 326 143 856 420 985 517 91 67 104 85 97 135-12 90-80 108-232 63zM7331 7414c-88-24-140-69-148-132-7-51 57-242 200-597 420-1044 1070-2463 1200-2621 50-60 126-38 232 70 70 71 107 140 113 212 15 183-331 1118-833 2249-160 360-244 516-366 677-68 88-113 121-196 143-70 18-131 18-202-1zM7150 6050c-124-39-441-173-830-350-193-88-757-343-1045-472-251-113-911-391-1360-573-126-52-268-110-315-130s-121-52-165-70c-599-246-1221-507-1303-547s-186-123-197-157c-6-19 292-754 385-948 64-135 125-233 145-233 32 0 386 153 860 373 438 203 555 257 1080 504 275 129 565 265 645 303 286 134 566 258 616 273 81 24 334 134 780 338 94 43 216 98 270 122 54 25 218 100 364 167s310 142 365 167c242 108 305 153 305 216 0 21-21 70-60 138-66 116-169 352-219 499-46 133-116 299-151 354-28 43-32 46-72 45-24 0-68-9-98-19zM1637 3653c-18-18-5-110 29-201 130-346 445-1041 481-1060 30-17 67 7 71 44 8 81-172 544-349 896-130 261-199 355-232 321zM1050 3551c-76-24-223-116-309-196-87-80-158-204-198-345-14-51-18-98-17-215 1-132 4-161 28-240 77-258 245-463 471-575 102-51 148-57 261-35 222 44 459 168 510 268 13 23 13 38 3 85-36 175-249 714-396 1005-99 195-170 258-288 256-22 0-51-4-65-8z"
  />
</svg>