<svg xmlns="http://www.w3.org/2000/svg" id="root" viewBox="10 0 2288.03 1137.15">
  <path
    d="M2020 1129c-19-6-56-17-81-25-25-7-89-34-143-59-53-25-99-45-101-45s-30-12-62-26l-57-27-14 22c-19 28-80 29-115 1-14-11-36-20-50-20-13 0-32-9-42-20s-28-20-40-20c-28 0-45-18-45-50 0-28 19-18-377-192-34-15-46-16-62-6-13 8-29 9-52 2-30-8-34-14-37-46-2-20 4-50 12-65l14-29-91-42c-143-64-197-87-272-117-87-34-189-79-237-105-20-11-50-20-67-20s-42-11-60-26c-29-24-31-31-31-88s3-65 33-94C68 8 85 0 113 0c40 0 97 24 97 40 0 6 6 10 13 10 8 0 40 13 73 29 32 15 82 38 109 50 28 12 58 26 68 32 10 5 57 27 105 48s107 48 132 59 63 29 85 38c22 10 43 20 47 22s19-19 33-47c20-41 30-51 51-51 42 0 64 18 64 50 0 20 5 30 15 30 8 0 48 16 89 35s77 35 80 35 33 13 68 29c161 74 176 80 182 65 7-19 80-18 96 1 7 8 25 15 40 15s35 9 45 20 28 20 39 20c39 0 66 28 66 68 0 34 4 39 43 57s199 88 277 121c19 8 42 19 50 24 8 6 25 14 38 20 12 5 22 14 22 20 0 5 6 10 13 10 6 0 38 24 70 53 41 37 57 60 57 78 0 14 5 30 11 36 16 16 3 76-22 99-16 15-39 19-117 21-53 1-113-3-132-8z"
  ></path>
  <g fill="#DED4A3">
    <path
      d="M2020 1129c-19-6-56-17-81-25-25-7-89-34-143-59-53-25-99-45-101-45s-30-12-62-26l-57-27-14 22c-19 28-80 29-115 1-14-11-36-20-50-20-13 0-32-9-42-20s-28-20-40-20c-28 0-45-18-45-50 0-28 19-18-377-192-34-15-46-16-62-6-13 8-29 9-52 2-30-8-34-14-37-46-2-20 4-50 12-65l14-29-91-42c-143-64-197-87-272-117-87-34-189-79-237-105-20-11-50-20-67-20s-42-11-60-26c-29-24-31-31-31-88s3-65 33-94C68 8 85 0 113 0c40 0 97 24 97 40 0 6 6 10 13 10 8 0 40 13 73 29 32 15 82 38 109 50 28 12 58 26 68 32 10 5 57 27 105 48s107 48 132 59 63 29 85 38c22 10 43 20 47 22s19-19 33-47c20-41 30-51 51-51 42 0 64 18 64 50 0 20 5 30 15 30 8 0 48 16 89 35s77 35 80 35 33 13 68 29c161 74 176 80 182 65 7-19 80-18 96 1 7 8 25 15 40 15s35 9 45 20 28 20 39 20c39 0 66 28 66 68 0 34 4 39 43 57s199 88 277 121c19 8 42 19 50 24 8 6 25 14 38 20 12 5 22 14 22 20 0 5 6 10 13 10 6 0 38 24 70 53 41 37 57 60 57 78 0 14 5 30 11 36 16 16 3 76-22 99-16 15-39 19-117 21-53 1-113-3-132-8zm185-41c4-13 16-42 27-65l21-42-52-50c-29-28-55-51-59-51-38 1-102 122-102 193 0 30 11 34 97 36 56 1 62-1 68-21zm58-28c8-30-8-33-22-4-6 14-11 30-11 36 0 17 27-10 33-32zm-244-17c15-57 31-93 66-150 14-24 21-43 16-43-24 0-111 177-111 225 0 32 18 12 29-32zm-44-3c4-22 27-79 51-126 38-75 41-86 26-91-9-3-35-14-57-23-22-10-85-37-140-60-55-24-109-49-120-57-32-21-50-15-68 22-9 20-17 40-17 45s-16 42-35 81c-38 78-41 89-24 89 5 0 35 11 65 25s56 25 59 25c2 0 46 19 97 43 128 59 142 66 150 66 3 1 9-17 13-39zm-442-92c3-7 22-53 42-103 20-49 52-123 71-163 39-84 41-97 15-112-29-15-39-12-46 13-10 32-92 221-127 292-27 56-28 60-12 72 23 17 50 17 57 1zm-83-55c6-16 15-37 20-48s19-42 31-70c43-100 71-161 86-188 14-26 13-30-3-48-33-37-52-21-95 81-48 112-58 136-94 213-21 46-24 61-15 72 21 25 59 18 70-12zm-70-95c18-46 54-129 80-185 35-73 45-104 37-112-21-21-44-11-60 27-9 20-39 91-67 157s-56 124-61 130c-10 10-12 49-2 58 3 4 14 7 23 7 12 0 27-24 50-82zm-90-12c0-11-76-56-95-56-4 0-88-38-213-96-57-27-71-46-52-69 14-17 51-20 66-6 5 5 63 33 129 61s134 58 152 66c17 8 35 14 40 14 6 0 28-40 50-89l41-89-61-27c-34-15-77-33-95-42-210-94-257-112-265-104S870 604 870 615c0 5 32 20 205 94 66 29 136 60 155 70 43 23 60 25 60 7zm20-50c0-8-53-38-127-71-71-32-147-66-170-77-40-19-63-18-63 3 0 8 118 69 133 69 3 0 43 17 89 39 123 57 138 61 138 37zM859 567c59-129 106-254 103-274-3-18-29-40-37-31-21 24-155 331-155 354 0 16 31 23 50 11 8-5 26-32 39-60zm-58-125c7-20 18-46 25-57 12-18 10-22-24-37-137-63-193-88-197-88-3 0-42-18-87-39-199-94-260-121-266-121-4 0-17 26-30 58-13 31-25 62-28 68s12 18 33 26c21 9 94 39 163 68 130 53 145 60 245 105 114 52 140 62 147 59 3-3 12-21 19-42zM201 154c16-37 27-69 24-72s-7-3-9-1c-7 9-56 122-56 130 0 22 13 4 41-57zm-69 34c17-31 48-110 48-124 0-13-43-34-70-34-11 0-31 12-45 27-36 39-35 103 1 132 34 27 50 26 66-1z"
    ></path>
    <path
      d="M1805 960c-15-17-16-24-7-45 14-30 33-39 67-31 33 8 44 50 20 76-23 26-57 25-80 0zm70-24c0-30-31-44-51-24-24 24-11 50 23 46 20-2 28-9 28-22zM1695 922c-31-23-36-40-21-70 29-57 86-49 86 13 0 48-35 79-65 57zm46-33c8-17 8-24-3-36-27-27-71 14-47 43 17 20 37 17 50-7z"
    ></path>
  </g>
</svg>
