<svg xmlns="http://www.w3.org/2000/svg" id="root" viewBox="271 40 1803 1870">
  <path
    d="M753 1830c4-64 11-90 36-135 86-154 89-159 96-235 4-41 7-82 6-90-1-36 23-178 34-205l34-77c11-27 25-48 30-48 6 0 10-3 9-7-1-9 11-39 44-111 27-60 26-114-5-161-16-24-26-56-29-94-8-93-26-95-30-3-1 36-7 60-15 63-7 3-31 32-53 65-44 66-79 98-110 101-11 1-20 4-20 8 0 7-70 29-91 29-25-1 23-30 49-30 13 0 20-4 17-10-4-6 8-10 29-10 36 0 66-21 66-45 0-8 24-39 54-69 47-47 55-62 61-103 12-91 13-93 48-93 37 0 117-34 117-50 0-5 5-10 10-10 6 0 10 11 10 24 0 20-7 26-32 31-55 11-68 16-68 26 0 5 15 7 33 4l51-7c10-2 21 2 23 9 3 7-13 14-41 18-26 4-52 16-63 28-17 20-17 20 0 14 10-4 27-2 37 3 16 8 18 8 14-5-5-11 1-15 25-15s31 4 31 19c0 14-10 20-41 25-60 10-83 24-68 42s29 18 29 0c0-11 40-26 71-26 23 0 5 29-21 35-16 4-30 10-30 15 0 12 29 20 35 10 10-16 23-11 21 6-1 9-14 22-29 28-20 8-24 15-18 25 7 12 13 12 24 3 7-7 16-9 20-6 9 9-4 35-14 28-5-3-9 0-9 5 0 6-6 11-14 11s-18 5-22 12c-5 8 3 9 29 5 28-4 37-2 37 9 0 8-10 14-24 14-13 0-34 8-47 19l-22 18 26 5c19 4 27 1 27-8 0-8 7-14 15-14s15 4 15 9c0 18-43 62-78 80-55 29-109 90-122 140-6 23-8 46-4 50 4 3 9 0 11-6 3-7 11-13 19-13 16 0 19-16 4-25s23-76 57-101c47-34 59-38 37-13-31 34-55 85-57 119-1 17-6 30-10 30-5 0-5 5-2 10 3 6 2 10-2 10-9 0-20 19-54 93-12 26-26 47-31 47s-6 5-3 10c4 6 10 8 14 6 4-3 4 14 0 37-24 139-30 161-41 169-7 4-9 8-4 8 4 0-6 14-22 32-17 17-29 35-26 40 10 16-5 53-36 88-30 34-37 54-21 64 11 7-9 106-22 106-6 0-8-29-4-80z" />
  <path
    d="M791 1888c1-12 4-36 8-53 7-30 7-30 13-5 10 33 17 23 19-25 3-58 28-145 53-185 28-43 55-123 58-164 1-24 2-21 8 14 5 35 8 41 15 26 5-11 3-38-4-65-14-57-3-126 29-171l23-33 12 34c10 29 9 39-7 65-24 41-23 55 2 25 12-14 20-18 20-10 0 12 2 12 9 0 5-8 7-31 5-52-4-31-2-39 11-39 8 0 20 11 27 25 10 21 3 39-52 147-34 68-66 128-70 133-4 6-13 28-20 50s-19 46-28 53-37 65-62 129c-43 111-71 153-69 101z" />
  <path
    d="M1518 1872c-10-20-27-66-38-102-12-36-34-81-49-100s-34-53-41-75-29-69-49-105a776 776 0 0 1-96-220c-25-100-30-108-73-101-27 5-40 14-50 34-7 15-17 27-22 27-16 0 3-40 36-76 28-29 37-34 49-24 8 7 12 17 8 23-3 5-2 7 4 4 6-4 21 5 34 19 17 18 23 35 22 66-2 46-3 46 27-7 15-27 17-35 6-26-14 11-16 11-16-2 0-9-20-37-46-63-25-26-43-53-40-60 3-8 0-11-10-7-7 3-14 10-14 17 0 6-16 27-36 46s-43 49-51 68c-7 18-18 30-22 27-20-12-1-42 97-151 12-14 22-30 22-37 0-6 16 12 35 41 20 28 41 52 47 52s9 3 5 6c-3 3 9 18 26 34 30 27 31 30 19 62-16 46-16 111 1 105 6-2 17 3 24 12 11 14 12 14 12 1 0-8-6-24-14-34-13-17-13-41 1-85 7-21 42 25 55 72 6 23 8 76 5 121-3 52-2 67 3 43 12-55 17-54 25 6 7 61 32 128 51 139 7 4 16 25 20 45 4 21 13 50 21 65s14 45 14 67c0 32 3 39 15 35 12-5 15 3 15 35 0 51-10 52-32 3z" />
  <path
    d="m1571 1863-17-65c-4-13-1-16 10-12 18 7 22-11 6-21-6-4-8-11-4-16 3-5 0-8-6-7-18 5-52-46-54-81-1-19-11-40-28-56-31-29-51-108-52-202-1-38-6-65-13-67-6-3-14-19-18-36s-18-44-32-61c-16-19-29-51-34-81-5-29-19-65-35-85-14-19-23-37-20-40s8 2 12 11c3 9 10 14 14 11s22 11 40 31c23 27 31 44 28 64-3 18 2 31 13 38 26 16 29 5 12-46-19-59-53-96-121-134-30-18-58-41-63-55-12-32-11-37 4-26 19 15 57 13 57-3 0-8-15-16-40-20-24-4-40-12-40-20 0-17 8-17 41 0 22 11 26 11 26 0 0-8-15-19-34-26-21-8-33-19-33-30 0-20 15-24 25-8 5 8 11 7 21-1 19-15 8-29-22-29-17 0-24-5-24-20 0-11 5-20 10-20 6 0 10 4 10 10 0 5 7 7 15 4 23-9 18-23-10-30-14-3-25-13-25-21 0-19 60-8 78 15 8 10 12 11 12 3 0-7 5-9 10-6s10 0 10-8c0-13-60-37-94-37-30 0-14-35 17-38 15-2 27 1 27 6s11 10 25 10c52 0 19-31-48-43-36-7-47-18-28-29 4-3 11-3 15 1 10 10 86 12 86 2 0-5-7-9-15-9s-15-5-15-11c0-5-5-7-10-4-6 4-24 4-40 0-27-6-30-11-30-43v-36l16 23c20 27 88 60 126 61 32 0 47 19 24 32-11 6-16 23-16 58 0 30-4 50-11 50-6 0-9 7-5 15 3 8-2 19-12 24-9 6-13 11-8 11s3 7-5 16c-12 14-32 120-20 109 6-6 60 104 61 123 0 6 4 12 8 12 15 0 71 136 87 209 8 40 20 127 26 194 11 111 15 128 48 187l40 75c2 6 9 17 16 25 24 28 47 200 26 200-5 0-14-21-20-47zm-470 8c-28-18 1-29 79-30 63-1 80 2 80 13 0 7-7 17-16 20-24 9-127 7-143-3zm-198-58c-7-3-13-11-13-20 0-17 41-14 47 3 4 13-16 23-34 17zm511-5c-3-5-2-14 4-20 12-12 42-4 42 11 0 13-39 21-46 9zm-810-157c-45-27-82-91-53-91 19 0 98 85 91 97-6 9-15 8-38-6zm1096 5c0-8 10-23 23-33 12-10 30-30 40-45 19-31 35-36 43-13 7 17-41 78-74 94-29 14-32 14-32-3zM430 1468c-29-39-37-83-16-83 13 0 76 106 70 117-10 16-24 7-54-34zm1430 26c0-12 65-114 73-114 20 0 16 33-8 74-17 29-34 46-46 46-10 0-19-3-19-6zm125-224c-8-12 22-107 37-116 22-14 28 13 12 58-17 51-38 76-49 58zm-1664-28c-17-41-18-84-2-90 8-3 11 0 7 7-4 6-3 11 2 11 11 0 32 53 32 81 0 29-26 23-39-9zm719-83c1-22 38-99 48-99 5 0 14-11 20-24 6-14 20-30 32-36 19-10 20-9 14 17-11 42-114 171-114 142z" />
  <path
    d="M1287 1152c-10-10-14-22-10-27 5-4 3-5-4-1-6 3-21-7-33-24-19-26-20-33-8-48s11-16-4-4c-14 11-18 10-27-7-6-11-11-28-11-37 0-30 76 52 100 108 23 55 22 68-3 40zM280 1024c-20-51-6-154 20-154 6 0 10 35 10 90 0 91-11 115-30 64zm1755 13c-3-7-5-47-3-88 2-57 6-74 18-74 19 0 28 55 21 120-6 47-26 71-36 42zm-1535-27c21-7 16-8-25-11-32-1-40-4-22-6 15-2 31-12 36-22 8-14 4-17-27-19-59-4-50-12 13-12 48 0 56 2 46 14-31 37 60 36 97-1 19-19 37-17 22 2-19 23-113 65-141 64l-24-1 25-8zm1278-10c-41-22-114-70-106-70 14 0 77 31 83 40 8 14 62 13 71-1 3-6 0-15-7-20-9-5 8-8 46-8 52 1 55 2 27 9-47 11-62 27-31 34 59 13 61 15 19 14-61 0-70 3-40 12l25 8-25 1c-14 0-42-9-62-19zM591 921c-9-6 2-10 37-12 53-4 58 7 7 16-17 3-36 1-44-4zm993-11c-74-26-101-47-139-106-19-29-43-58-54-64-12-6-21-17-21-25 0-22 4-19 47 24 60 62 83 91 83 107 0 18 58 44 79 36 9-3 12-1 7 6-5 8 2 12 22 12 16 0 35 7 42 15 17 20 0 19-66-5z" />
  <path
    d="M1687 918c-15-11-9-12 34-9 35 2 47 6 38 12a69 69 0 0 1-72-3zm-929-69c22-18 82-49 82-42 0 15-23 33-43 33-10 0-16 4-12 9 3 6-4 9-15 8s-16-4-12-8zm802 2c0-5-10-11-22-15-22-5-66-66-49-66 5 0 11 7 15 15 3 8 27 28 53 45 38 23 43 30 26 30-13 0-23-4-23-9zM307 763c-12-11-7-36 14-82 14-33 23-41 31-33s8 23-2 56c-13 46-31 71-43 59zm1706-15c-8-13-33-78-33-88 0-3 9-6 20-7 16-1 22 7 31 40 5 23 10 46 10 52 1 15-18 17-28 3zM898 695c15-30 28-50 30-45 5 15-30 89-44 94-7 3-1-18 14-49zm547 35c-3-5-3-10 2-10 4 0 3-4-3-8s-14-20-18-37c-6-26-3-24 19 14 14 23 25 45 25 47 0 8-19 4-25-6zm-38-27c-8-14-19-68-13-62 8 8 26 69 21 69-2 0-6-3-8-7z" />
  <path
    d="M812 647c-10-12-2-26 65-102 23-27 63-83 63-89 0-2-10-2-22 1-19 5-17 0 14-31 20-20 58-77 84-127s58-104 72-121c23-27 28-29 91-26 48 2 65 7 63 16-1 8 2 11 7 8 12-8 52 58 134 219 6 11 41 46 79 78 38 31 62 57 54 57s-35-20-60-45-46-40-46-34c0 10 29 55 58 89 60 71 72 89 66 104-3 9-12 16-19 16-17 0-37-25-27-34 4-4 2-7-3-6-32 7-43-2-49-38-9-58-37-83-114-102-56-14-68-20-70-39-2-15 0-21 7-17s9 1 5-8c-3-8 3-19 15-26 17-8 21-20 21-59 0-31-5-53-15-61-8-7-15-20-15-29 0-10-9-27-20-39-17-18-32-22-79-22-52 0-59 3-79 30-12 16-22 34-22 40s-7 18-15 26c-24 25-19 81 11 109 14 13 27 35 30 49 4 26-4 31-103 51-39 8-79 57-88 109-4 20-10 35-13 32-2-3-16 4-30 14-29 23-36 24-50 7z" />
  <path
    d="M970 545c14-16 109-50 117-41 3 3 0 8-8 10l-67 25c-38 14-50 15-42 6zm363-8c-34-13-53-27-36-27 14 0 83 29 83 35 0 7-10 5-47-8zm-933-23c0-30 51-104 72-104 11 0 10 38-2 45-5 3-17 21-26 40-17 36-44 48-44 19zm430 9c0-5 17-19 38-32l37-24-29 32c-29 30-46 39-46 24zm1072-25-14-38c-1-3-8-11-15-18-18-19-6-35 17-22 16 8 60 84 60 103 0 4-8 7-18 7-11 0-22-13-30-32zm-747-81c-51-28-59-48-56-137 2-53 13-62 74-66 49-3 55-1 65 22 11 22 10 24-16 24-39 0-52 16-42 51 7 25 6 29-8 27-9-2-18 5-20 15-3 14 4 17 33 17h36l-7-47c-6-41-5-45 10-40 10 4 22 7 27 7 16 0-2 73-25 98-32 35-49 42-71 29zm-615-76c0-21 73-91 95-91 23 0 18 11-30 63-46 50-65 58-65 28zm1230 9c0-6-19-28-41-49-46-43-47-73-1-43 31 20 77 71 77 86 0 6-8 12-17 14-10 2-18-2-18-8zM800 166c0-18 106-70 126-62 26 10 14 23-47 50-69 30-79 31-79 12zm663-11c-54-25-70-40-53-50 16-10 109 25 120 45 9 16 4 31-9 29-3 0-29-11-58-24zm-350-83c-13-2-23-7-23-12 0-13 29-20 88-20 58 0 93 12 79 27-9 8-105 12-144 5z" />
</svg>