<svg xmlns="http://www.w3.org/2000/svg" id="root" viewBox="0 0 100 113">
  <path
    d="M 97.878906 112.671875 C 97.457031 112.445312 97.132812 112.121094 97.132812 111.898438 C 97.132812 111.671875 96.96875 111.480469 96.773438 111.480469 C 96.578125 111.480469 95.636719 110.671875 94.695312 109.707031 C 93.722656 108.738281 92.84375 107.933594 92.746094 107.933594 C 92.648438 107.933594 91.542969 106.9375 90.308594 105.710938 C 89.074219 104.519531 87.417969 103.003906 86.671875 102.359375 C 85.890625 101.75 84.363281 100.394531 83.292969 99.363281 C 80.953125 97.140625 77.476562 93.953125 74.097656 90.921875 C 72.800781 89.730469 70.589844 87.699219 69.226562 86.410156 C 67.894531 85.125 66.433594 83.996094 66.042969 83.867188 C 65.230469 83.671875 63.347656 84.316406 63.347656 84.769531 C 63.347656 84.898438 62.5 85.285156 61.496094 85.605469 C 60.453125 85.929688 59.578125 86.28125 59.511719 86.410156 C 59.449219 86.574219 59.253906 86.667969 59.121094 86.667969 C 58.765625 86.667969 57.171875 85.125 57.171875 84.769531 C 57.171875 84.609375 56.945312 84.316406 56.6875 84.09375 C 56.425781 83.867188 56.199219 83.414062 56.199219 83.09375 C 56.199219 82.738281 56.070312 82.480469 55.90625 82.480469 C 55.742188 82.480469 55.515625 82.222656 55.417969 81.933594 C 55.222656 81.320312 53.175781 78.9375 52.851562 78.9375 C 52.753906 78.9375 50.253906 76.554688 47.332031 73.652344 C 42.683594 69.078125 40.054688 66.144531 38.820312 64.148438 C 38.65625 63.890625 38.234375 63.441406 37.941406 63.214844 C 37.617188 62.988281 37.355469 62.601562 37.355469 62.34375 C 37.355469 62.085938 37.160156 61.765625 36.933594 61.636719 C 36.707031 61.507812 36.253906 60.765625 35.894531 60.023438 C 35.539062 59.25 35.148438 58.640625 35.050781 58.640625 C 34.921875 58.640625 34.59375 57.960938 34.269531 57.125 C 33.945312 56.253906 33.589844 55.515625 33.457031 55.417969 C 33.328125 55.320312 32.257812 53.453125 31.121094 51.230469 L 29.007812 47.203125 L 27.089844 47.007812 C 24.425781 46.75 23.191406 45.621094 22.707031 42.980469 C 22.511719 41.949219 22.21875 40.820312 22.054688 40.53125 C 21.664062 39.757812 21.699219 37.472656 22.089844 37.214844 C 22.476562 36.988281 22.542969 34.570312 22.183594 34.410156 C 21.925781 34.3125 21.632812 33.832031 19.910156 30.609375 C 18.871094 28.707031 18.417969 28.386719 16.921875 28.578125 C 14.910156 28.835938 13.738281 27.964844 13.316406 25.871094 C 13.089844 24.9375 13.058594 23.390625 13.152344 22.425781 C 13.347656 20.878906 13.285156 20.554688 12.535156 19.460938 C 12.082031 18.785156 11.691406 18.074219 11.691406 17.882812 C 11.691406 17.6875 11.433594 17.238281 11.109375 16.882812 C 10.816406 16.5625 10.328125 15.851562 10.066406 15.304688 C 9.515625 14.207031 8.3125 12.308594 7.792969 11.664062 C 7.597656 11.4375 7.273438 10.824219 7.078125 10.308594 C 6.820312 9.535156 6.558594 9.34375 5.84375 9.34375 C 5.324219 9.34375 4.835938 9.535156 4.773438 9.761719 C 4.644531 10.050781 4.511719 10.050781 4.316406 9.792969 C 4.1875 9.601562 3.699219 9.3125 3.277344 9.183594 C 1.945312 8.761719 0.746094 7.25 0.355469 5.476562 C -0.199219 2.933594 -0.0664062 0 0.613281 0 C 0.710938 0 0.808594 1.128906 0.839844 2.511719 C 0.875 5.121094 1.394531 6.539062 2.855469 7.992188 C 3.734375 8.859375 5.519531 8.988281 5.519531 8.152344 C 5.519531 7.183594 4.871094 5.15625 4.546875 5.15625 C 4.382812 5.15625 4.089844 4.605469 3.863281 3.964844 C 3.667969 3.285156 3.214844 2.222656 2.886719 1.609375 C 2.53125 1 2.269531 0.386719 2.269531 0.257812 C 2.269531 0.0976562 3.082031 0 4.058594 0 L 5.84375 0 L 6.527344 1.546875 C 6.882812 2.382812 7.566406 3.800781 7.988281 4.734375 C 8.410156 5.636719 8.769531 6.539062 8.769531 6.734375 C 8.769531 7.089844 9.320312 7.28125 11.300781 7.570312 C 12.050781 7.699219 12.863281 7.957031 13.089844 8.183594 C 13.285156 8.410156 13.707031 8.667969 14.03125 8.761719 C 14.324219 8.890625 14.746094 9.503906 14.972656 10.117188 C 15.199219 10.761719 15.527344 11.277344 15.65625 11.277344 C 16.046875 11.277344 15.980469 15.078125 15.589844 15.207031 C 15.394531 15.273438 15.199219 15.949219 15.167969 16.722656 C 15.136719 17.71875 15.265625 18.171875 15.6875 18.398438 C 15.980469 18.589844 16.242188 18.945312 16.242188 19.171875 C 16.242188 19.429688 16.5 19.910156 16.824219 20.234375 C 17.117188 20.554688 17.667969 21.328125 18.027344 22.003906 C 18.382812 22.648438 18.773438 23.199219 18.90625 23.199219 C 19 23.199219 19.230469 23.488281 19.328125 23.84375 C 19.457031 24.195312 19.976562 24.96875 20.464844 25.519531 C 21.308594 26.417969 21.699219 26.582031 23.550781 26.773438 C 26.667969 27.097656 26.894531 27.484375 26.117188 31.640625 C 25.890625 32.863281 25.921875 32.863281 30.078125 37.050781 C 32.386719 39.339844 34.433594 41.242188 34.628906 41.242188 C 34.824219 41.242188 35.960938 42.175781 37.160156 43.300781 C 38.363281 44.429688 39.761719 45.527344 40.28125 45.6875 C 41.417969 46.105469 41.515625 46.171875 46.746094 51.324219 C 49.050781 53.582031 51.164062 55.417969 51.457031 55.417969 C 51.75 55.417969 51.976562 55.644531 51.976562 55.933594 C 51.976562 56.222656 52.527344 56.996094 53.210938 57.671875 C 54.671875 59.121094 55.222656 59.992188 55.222656 60.957031 C 55.222656 61.378906 55.613281 62.054688 56.035156 62.472656 C 56.492188 62.890625 56.847656 63.34375 56.847656 63.503906 C 56.847656 63.664062 57.074219 63.792969 57.335938 63.792969 C 57.597656 63.792969 57.824219 63.921875 57.824219 64.085938 C 57.824219 64.566406 60.519531 67.660156 61.136719 67.855469 C 61.460938 67.949219 61.722656 68.242188 61.722656 68.53125 C 61.722656 69.078125 62.957031 70.207031 63.605469 70.238281 C 63.832031 70.238281 64.351562 70.011719 64.773438 69.753906 C 65.457031 69.304688 65.585938 69.335938 66.367188 70.011719 C 66.917969 70.464844 67.246094 71.074219 67.246094 71.625 C 67.246094 72.269531 67.4375 72.527344 68.023438 72.6875 C 68.445312 72.785156 69.097656 73.234375 69.484375 73.652344 C 69.84375 74.070312 70.332031 74.425781 70.492188 74.425781 C 71.046875 74.425781 70.492188 76.683594 69.8125 77.359375 C 69.453125 77.710938 69.195312 78.195312 69.195312 78.453125 C 69.195312 78.679688 69 79.035156 68.804688 79.164062 C 68.316406 79.484375 67.570312 80.710938 67.570312 81.226562 C 67.570312 81.578125 73.253906 87.3125 73.613281 87.3125 C 73.742188 87.3125 74.78125 88.3125 75.984375 89.503906 C 77.183594 90.730469 78.386719 91.855469 78.679688 92.019531 C 78.972656 92.179688 80.207031 93.242188 81.441406 94.402344 C 82.675781 95.5625 84.980469 97.65625 86.542969 99.074219 C 88.101562 100.492188 90.179688 102.425781 91.089844 103.359375 C 92.03125 104.261719 92.972656 105.035156 93.167969 105.035156 C 93.394531 105.035156 93.558594 105.261719 93.558594 105.519531 C 93.558594 105.777344 93.722656 106 93.914062 106 C 94.109375 106 95.085938 106.808594 96.09375 107.804688 C 97.097656 108.804688 98.429688 110.027344 99.015625 110.542969 C 100.804688 112.121094 99.957031 113.703125 97.878906 112.671875 Z M 54.898438 73.8125 C 55.355469 72.945312 55.289062 71.171875 54.769531 70.496094 C 54.152344 69.691406 52.171875 69.722656 51.324219 70.558594 C 50.515625 71.367188 50.480469 72.914062 51.226562 73.78125 C 52.007812 74.683594 54.414062 74.683594 54.898438 73.8125 Z M 50.675781 70.238281 C 51.488281 69.433594 51.519531 67.886719 50.773438 67.015625 C 49.992188 66.113281 47.589844 66.113281 47.101562 66.984375 C 46.648438 67.855469 46.679688 69.464844 47.167969 70.238281 C 47.71875 71.109375 49.800781 71.109375 50.675781 70.238281 Z M 47.039062 66.628906 C 47.265625 66.402344 47.425781 65.664062 47.425781 64.921875 C 47.425781 63.246094 47.003906 62.828125 45.316406 62.828125 C 43.625 62.828125 43.203125 63.246094 43.203125 64.921875 C 43.203125 65.664062 43.367188 66.402344 43.59375 66.628906 C 43.820312 66.855469 44.570312 67.015625 45.316406 67.015625 C 46.0625 67.015625 46.808594 66.855469 47.039062 66.628906 Z M 27.609375 44.71875 C 27.609375 44.140625 27.707031 43.335938 27.804688 42.949219 C 27.96875 42.304688 27.871094 42.207031 27.15625 42.207031 C 26.410156 42.207031 26.3125 42.109375 26.507812 41.402344 C 26.667969 40.789062 26.570312 40.597656 26.179688 40.597656 C 25.855469 40.597656 25.660156 40.304688 25.660156 39.824219 C 25.660156 39.050781 25.140625 38.664062 24.003906 38.664062 C 23.484375 38.664062 23.386719 38.886719 23.386719 40.402344 C 23.386719 41.371094 23.550781 42.273438 23.710938 42.367188 C 23.90625 42.464844 24.039062 42.851562 24.039062 43.171875 C 24.039062 44.109375 24.71875 45.398438 25.304688 45.527344 C 25.597656 45.621094 26.214844 45.6875 26.734375 45.71875 C 27.511719 45.75 27.609375 45.65625 27.609375 44.71875 Z M 25.660156 30.316406 C 26.179688 29.351562 26.050781 28.417969 25.371094 28.03125 C 24.558594 27.613281 23.160156 27.613281 22.898438 28.03125 C 22.542969 28.609375 24.101562 30.832031 24.914062 30.898438 C 25.140625 30.929688 25.464844 30.640625 25.660156 30.316406 Z M 17.34375 27.289062 C 17.636719 26.839844 17.574219 26.644531 17.148438 26.386719 C 16.824219 26.195312 16.566406 25.871094 16.566406 25.613281 C 16.566406 25.355469 16.304688 24.96875 15.949219 24.746094 C 15.625 24.519531 15.265625 24.003906 15.136719 23.617188 C 14.714844 22.296875 14.292969 22.84375 14.292969 24.746094 C 14.292969 27 14.941406 28.128906 16.144531 27.964844 C 16.597656 27.902344 17.148438 27.613281 17.34375 27.289062 Z M 14.746094 12.953125 C 14.679688 10.953125 14.582031 10.503906 13.902344 9.828125 C 12.472656 8.410156 10.394531 7.925781 10.394531 9.019531 C 10.394531 9.375 10.554688 9.664062 10.71875 9.664062 C 10.914062 9.664062 11.042969 9.828125 11.042969 10.050781 C 11.042969 10.601562 12.113281 12.886719 12.375 12.886719 C 12.503906 12.886719 12.828125 13.46875 13.121094 14.207031 C 13.511719 15.144531 13.804688 15.464844 14.226562 15.402344 C 14.679688 15.304688 14.777344 14.917969 14.746094 12.953125 Z M 14.746094 12.953125 "
  />
  <path
    d="M 52.464844 72.65625 C 51.8125 72.171875 51.8125 72.171875 52.464844 71.6875 C 53.015625 71.238281 53.144531 71.238281 53.566406 71.6875 C 54.023438 72.105469 54.023438 72.234375 53.566406 72.65625 C 53.144531 73.105469 53.015625 73.105469 52.464844 72.65625 Z M 48.402344 69.109375 C 47.785156 68.402344 48.566406 67.5625 49.410156 68.015625 C 49.734375 68.175781 50.027344 68.464844 50.027344 68.628906 C 50.027344 68.789062 49.734375 69.078125 49.410156 69.238281 C 48.953125 69.496094 48.695312 69.464844 48.402344 69.109375 Z M 44.730469 65.46875 C 44.242188 64.921875 44.242188 64.855469 44.761719 64.40625 C 45.25 63.988281 45.382812 64.019531 45.804688 64.4375 C 46.257812 64.890625 46.257812 65.019531 45.804688 65.5 C 45.285156 66.015625 45.21875 66.015625 44.730469 65.46875 Z M 44.730469 65.46875 "
  />
</svg>
