<svg id="root" xmlns="http://www.w3.org/2000/svg" width="768" height="441" viewBox="0 0 7680 4410">
  <g fill="#000001">
    <path
      d="M4893 3527c-13-7-23-17-23-24s-5-13-11-13-35-25-64-55c-30-30-57-55-60-55s-37-31-75-69c-38-37-89-84-112-104-24-19-71-61-104-93-72-69-179-168-283-262-40-37-108-100-150-140-41-40-86-75-98-79-25-6-83 14-83 28 0 4-26 16-57 26-32 10-59 21-61 25-2 5-8 8-12 8-11 0-60-48-60-59 0-5-7-14-15-21s-15-21-15-31c0-11-4-19-9-19s-12-8-15-17c-6-19-69-93-79-93-3 0-80-74-170-164-143-142-224-233-262-295-5-8-18-22-27-29-10-7-18-19-18-27s-6-18-13-22-21-27-32-50c-11-24-23-43-26-43-4 0-14-21-24-47-10-27-21-50-25-53s-37-61-72-130l-65-125-59-6c-82-8-120-43-135-125-6-32-15-67-20-76-12-24-11-95 1-103 12-7 14-82 3-87-8-3-17-18-70-118-32-59-46-69-92-63-62 8-98-19-111-84-7-29-8-77-5-107 6-48 4-58-19-92-14-21-26-43-26-49s-8-20-18-31c-9-10-24-32-32-49-17-34-54-93-70-113-6-7-16-26-22-42-8-24-16-30-38-30-16 0-31 6-33 13-4 9-8 9-14 1-4-6-19-15-32-19-41-13-78-60-90-115-17-79-13-170 8-170 3 0 6 35 7 78 1 81 17 125 62 170 27 27 82 31 82 5 0-30-20-93-30-93-5 0-14-17-21-37-6-21-20-54-30-73-11-19-19-38-19-42 0-5 25-8 55-8h55l21 48c11 26 32 70 45 99 13 28 24 56 24 62 0 11 17 17 78 26 23 4 48 12 55 19 6 7 19 15 29 18 9 4 22 23 29 42 7 20 17 36 21 36 12 0 10 118-2 122-6 2-12 23-13 47-1 31 3 45 16 52 9 6 17 17 17 24 0 8 8 23 18 33 9 10 26 34 37 55 11 20 23 37 27 37 3 0 10 9 13 20 4 11 20 35 35 52 26 28 38 33 95 39 96 10 103 22 79 151-7 38-6 38 122 168 71 71 134 130 140 130s41 29 78 64 80 69 96 74c35 13 38 15 199 175 71 70 136 127 145 127s16 7 16 16 17 33 38 54c45 45 62 72 62 102 0 13 12 34 25 47 14 13 25 27 25 32s7 9 15 9 15 4 15 9c0 15 83 111 102 117 10 3 18 12 18 21 0 17 38 52 58 53 7 0 23-7 36-15 21-14 25-13 49 8 17 14 27 33 27 50 0 20 6 28 24 33 13 3 33 17 45 30 11 13 26 24 31 24 17 0 0 70-21 91-11 11-19 26-19 34 0 7-6 18-12 22-15 10-38 48-38 64 0 11 175 189 186 189 4 0 36 31 73 68 37 38 74 73 83 78s47 38 85 74 109 101 157 145 112 104 140 133c29 28 58 52 64 52 7 0 12 7 12 15s5 15 11 15 36 25 67 56 72 69 90 85c55 49 29 98-35 66zM3570 2321c14-27 12-82-4-103-19-25-80-24-106 2-25 25-26 73-3 100 24 28 98 28 113 1zm-130-111c25-25 26-73 3-100-24-28-98-28-113-1-14 27-13 77 2 101 17 27 81 27 108 0zm-112-112c7-7 12-30 12-53 0-52-13-65-65-65s-65 13-65 65c0 23 5 46 12 53s30 12 53 12 46-5 53-12zm-598-680c0-18 3-43 6-55 5-20 2-23-20-23-23 0-26-3-20-25 5-19 2-25-10-25-10 0-16-9-16-24 0-24-16-36-51-36-16 0-19 7-19 54 0 30 5 58 10 61 6 3 10 15 10 25 0 29 21 69 39 73 9 3 28 5 44 6 24 1 27-2 27-31zm-60-447c16-30 12-59-9-71-25-13-68-13-76 0-11 18 37 87 62 89 7 1 17-8 23-18zm-256-94c9-14 7-20-6-28-10-6-18-16-18-24s-8-20-19-27c-10-7-21-23-25-35-13-41-26-24-26 35 0 70 20 105 57 100 14-2 31-11 37-21zm-80-445c-2-62-5-76-26-97-44-44-108-59-108-25 0 11 5 20 10 20 6 0 10 5 10 12 0 17 33 88 41 88 4 0 14 18 23 41 12 29 21 39 34 37 14-3 17-15 16-76z" />
    <path
      d="M3495 2285c-20-15-20-15 0-30 17-14 21-14 34 0 14 13 14 17 0 30-13 14-17 14-34 0zm-125-110c-19-22 5-48 31-34 10 5 19 14 19 19s-9 14-19 19c-14 8-22 7-31-4zm-113-113c-15-17-15-19 1-33 15-13 19-12 32 1 14 14 14 18 0 33-16 16-18 16-33-1z" />
  </g>
</svg>