<svg xmlns="http://www.w3.org/2000/svg" id="root" viewBox="0 0 99 67">
  <path
    d="M 8.550781 66.929688 C 8.550781 66.792969 9.921875 64.066406 9.988281 64.066406 C 10.027344 64.066406 10.144531 64.195312 10.242188 64.34375 C 10.339844 64.5 10.628906 64.792969 10.894531 65.007812 C 11.457031 65.464844 11.484375 65.671875 11.078125 66.335938 C 10.921875 66.589844 10.785156 66.851562 10.785156 66.902344 C 10.785156 66.960938 10.339844 67 9.667969 67 C 9.054688 67 8.550781 66.96875 8.550781 66.929688 Z M 11.757812 66.902344 C 11.757812 66.765625 12.136719 66.023438 12.207031 66.023438 C 12.292969 66.023438 13.996094 66.910156 13.996094 66.960938 C 13.996094 66.980469 13.488281 67 12.878906 67 C 12.167969 67 11.757812 66.960938 11.757812 66.902344 Z M 25.230469 66.832031 C 25.269531 66.734375 25.335938 66.355469 25.382812 65.972656 L 25.570312 64.605469 C 25.617188 64.234375 25.695312 63.472656 25.726562 62.914062 C 25.785156 62.066406 25.8125 61.917969 25.949219 61.9375 C 26.074219 61.96875 26.113281 62.183594 26.171875 63.238281 C 26.210938 63.941406 26.289062 64.683594 26.335938 64.898438 C 26.386719 65.113281 26.464844 65.601562 26.492188 65.972656 C 26.53125 66.355469 26.609375 66.734375 26.660156 66.832031 C 26.738281 66.980469 26.679688 67 25.949219 67 C 25.238281 67 25.171875 66.980469 25.230469 66.832031 Z M 39.039062 66.511719 C 38.921875 65.671875 39.300781 62.933594 39.566406 62.671875 C 39.632812 62.601562 39.777344 62.601562 40.03125 62.679688 C 40.75 62.894531 41.65625 62.914062 43.066406 62.757812 C 43.835938 62.671875 44.640625 62.601562 44.867188 62.601562 C 45.265625 62.601562 45.265625 62.601562 45.574219 63.265625 C 45.945312 64.066406 46.1875 65.4375 46.121094 66.34375 L 46.070312 67 L 45.644531 67 C 45.226562 67 45.214844 67 45.214844 66.667969 C 45.214844 65.914062 44.5625 65.855469 44.398438 66.589844 C 44.3125 66.980469 44.292969 67 43.933594 67 C 43.589844 67 43.5625 66.980469 43.5625 66.734375 C 43.5625 66.375 43.210938 65.796875 43.046875 65.886719 C 42.707031 66.082031 42.589844 66.265625 42.589844 66.628906 L 42.589844 67 L 40.839844 67 L 40.839844 66.589844 C 40.828125 66.070312 40.605469 65.085938 40.449219 64.890625 C 40.375 64.800781 40.261719 64.753906 40.144531 64.761719 C 40.03125 64.773438 39.925781 64.835938 39.867188 64.9375 C 39.816406 65.046875 39.769531 65.554688 39.769531 66.0625 L 39.769531 67 L 39.4375 67 C 39.117188 67 39.109375 66.988281 39.039062 66.511719 Z M 47.492188 66.21875 C 47.539062 65.621094 47.511719 65.289062 47.382812 64.800781 C 47.296875 64.460938 47.25 64.136719 47.289062 64.097656 C 47.328125 64.058594 47.5 64.085938 47.675781 64.15625 C 47.851562 64.226562 48.191406 64.34375 48.453125 64.421875 L 49.425781 64.714844 C 50.390625 64.996094 51.976562 65.328125 52.421875 65.339844 C 52.957031 65.339844 53.191406 65.125 53.414062 64.410156 C 53.648438 63.65625 54.074219 61.566406 54.210938 60.5 C 54.242188 60.238281 54.308594 59.886719 54.359375 59.71875 C 54.40625 59.5625 54.496094 59.144531 54.550781 58.792969 C 54.707031 57.929688 54.902344 56.964844 55.027344 56.496094 C 55.085938 56.28125 55.136719 55.949219 55.136719 55.75 C 55.136719 55.339844 55.320312 55.144531 55.640625 55.195312 C 55.835938 55.222656 55.886719 55.320312 56.03125 56.105469 L 56.363281 57.695312 C 56.449219 58.085938 56.546875 58.636719 56.59375 58.917969 C 56.777344 60.308594 57.105469 61.675781 57.578125 62.992188 C 57.742188 63.550781 58.113281 64.449219 58.480469 65.242188 C 58.667969 65.640625 58.988281 65.75 59.851562 65.691406 C 60.28125 65.671875 60.824219 65.582031 61.070312 65.496094 L 62.140625 65.183594 C 62.75 65.027344 62.976562 64.96875 64.277344 64.578125 L 65.496094 64.226562 C 65.816406 64.136719 66.214844 64.019531 66.371094 63.960938 L 66.894531 63.804688 C 67.128906 63.746094 67.128906 63.753906 67.070312 64.273438 L 66.90625 65.4375 C 66.855469 65.789062 66.808594 66.277344 66.808594 66.539062 L 66.808594 67 L 47.421875 67 Z M 71.765625 66.902344 C 71.765625 66.714844 72.03125 66.695312 72.507812 66.84375 L 72.984375 66.988281 L 72.378906 66.988281 C 72.019531 67 71.765625 66.960938 71.765625 66.902344 Z M 79.257812 66.941406 L 79.402344 66.324219 C 79.617188 65.476562 79.851562 63.929688 79.925781 62.828125 C 79.964844 62.28125 80.015625 61.8125 80.035156 61.792969 C 80.132812 61.703125 80.871094 61.636719 80.96875 61.703125 C 81.09375 61.78125 81.5625 63.335938 81.648438 63.96875 C 81.679688 64.214844 81.746094 64.546875 81.792969 64.714844 C 81.84375 64.878906 81.949219 65.367188 82.019531 65.789062 C 82.097656 66.21875 82.183594 66.65625 82.222656 66.785156 L 82.289062 67 L 80.773438 67 C 79.9375 67 79.257812 66.96875 79.257812 66.941406 Z M 91.746094 66.734375 C 91.480469 66.324219 91.289062 65.484375 91.25 64.519531 C 91.210938 63.695312 91.21875 63.628906 91.492188 63.199219 C 91.648438 62.945312 91.792969 62.574219 91.832031 62.378906 C 91.859375 62.183594 91.996094 61.761719 92.125 61.460938 C 92.261719 61.144531 92.464844 60.648438 92.570312 60.355469 C 93.066406 59.09375 93.105469 59.035156 93.347656 59.054688 C 93.457031 59.074219 93.738281 59.164062 93.960938 59.269531 C 94.847656 59.671875 96.296875 60.011719 97.035156 60.003906 C 97.832031 59.984375 97.734375 59.875 97.921875 61.085938 C 97.980469 61.46875 98.066406 62.300781 98.125 62.945312 C 98.183594 63.589844 98.269531 64.351562 98.320312 64.644531 C 98.445312 65.339844 98.445312 65.894531 98.308594 66.511719 C 98.222656 66.910156 98.171875 67 98 67 C 97.792969 67 97.785156 66.949219 97.773438 66.179688 C 97.765625 65.5625 97.695312 65.183594 97.511719 64.683594 C 97.375 64.324219 97.191406 63.628906 97.09375 63.160156 C 96.910156 62.210938 96.753906 62.035156 96.453125 62.398438 C 96.226562 62.679688 96.226562 62.945312 96.472656 64.175781 C 96.644531 65.054688 96.675781 65.886719 96.578125 66.929688 C 96.570312 66.96875 96.324219 67 96.023438 67 C 95.5 67 95.480469 66.988281 95.539062 66.785156 C 95.742188 66.121094 95.710938 65.828125 95.421875 65.074219 C 95.253906 64.65625 95.089844 64.195312 95.050781 64.039062 C 94.972656 63.714844 94.75 63.578125 94.292969 63.578125 C 93.835938 63.578125 93.484375 63.726562 93.007812 64.125 C 92.453125 64.578125 92.261719 65.105469 92.316406 66.03125 C 92.335938 66.433594 92.335938 66.8125 92.316406 66.882812 C 92.242188 67.089844 91.929688 67.011719 91.746094 66.734375 Z M 17.449219 66.414062 C 16.386719 66.324219 14.929688 65.945312 14.480469 65.652344 C 13.851562 65.339844 13.25 64.980469 12.671875 64.578125 C 11.753906 63.9375 10.984375 63.113281 10.40625 62.152344 C 10.152344 61.675781 9.386719 60.597656 9.015625 60.207031 C 8.871094 60.050781 8.742188 59.875 8.742188 59.835938 C 8.742188 59.796875 8.703125 59.710938 8.644531 59.640625 L 8.296875 59.210938 C 8.160156 59.035156 7.957031 58.890625 7.859375 58.890625 C 7.605469 58.890625 7.167969 58.4375 7.207031 58.234375 C 7.246094 58.046875 8.148438 57.726562 8.636719 57.714844 C 9.074219 57.714844 9.570312 58.234375 10.007812 59.132812 C 10.183594 59.496094 10.515625 60.003906 10.738281 60.257812 C 10.972656 60.519531 11.292969 60.929688 11.46875 61.183594 C 11.75 61.597656 11.914062 61.714844 12.914062 62.183594 C 13.539062 62.476562 14.179688 62.816406 14.355469 62.953125 C 14.519531 63.082031 14.707031 63.1875 14.765625 63.1875 C 14.824219 63.1875 15.191406 63.492188 15.570312 63.863281 C 16.417969 64.65625 16.582031 64.753906 17.128906 64.753906 C 17.359375 64.753906 17.632812 64.820312 17.730469 64.898438 C 17.984375 65.085938 18.273438 65.085938 18.558594 64.890625 C 18.828125 64.695312 18.917969 64.78125 18.984375 65.289062 L 19.113281 65.992188 C 19.160156 66.277344 19.140625 66.316406 18.917969 66.363281 C 18.402344 66.472656 18.207031 66.472656 17.449219 66.414062 Z M 83.320312 66.207031 C 83.222656 66.148438 83.148438 65.925781 83.109375 65.5625 C 82.980469 64.460938 82.640625 62.738281 82.445312 62.269531 C 82.164062 61.566406 82.234375 61.527344 84.109375 61.519531 C 84.945312 61.519531 86.296875 61.460938 87.105469 61.398438 C 88.679688 61.273438 88.980469 61.300781 88.980469 61.617188 C 88.980469 61.996094 89.515625 64.046875 89.878906 65.027344 C 90.140625 65.730469 90.082031 65.816406 89.421875 65.828125 C 89.207031 65.828125 88.59375 65.894531 88.058594 65.972656 C 87.523438 66.050781 86.40625 66.140625 85.578125 66.167969 C 84.75 66.199219 83.933594 66.238281 83.777344 66.257812 C 83.613281 66.277344 83.410156 66.257812 83.320312 66.207031 Z M 28.128906 66.050781 C 27.992188 66.023438 27.882812 65.925781 27.863281 65.796875 C 27.640625 64.617188 27.417969 62.171875 27.515625 62.015625 C 27.542969 61.957031 28.300781 61.878906 29.1875 61.820312 C 30.082031 61.773438 30.910156 61.683594 31.035156 61.644531 C 31.152344 61.597656 31.941406 61.585938 32.765625 61.617188 L 34.273438 61.675781 L 34.304688 63.480469 C 34.3125 64.480469 34.304688 65.386719 34.273438 65.503906 C 34.234375 65.660156 34.128906 65.738281 33.855469 65.777344 L 32.667969 65.972656 C 31.890625 66.109375 28.710938 66.167969 28.128906 66.050781 Z M 74.539062 65.953125 C 72.644531 65.652344 70.832031 65.183594 70.746094 64.96875 C 70.71875 64.890625 70.871094 64.292969 71.085938 63.636719 C 71.300781 62.984375 71.523438 62.183594 71.59375 61.839844 C 71.660156 61.507812 71.738281 61.175781 71.777344 61.117188 C 71.835938 61.027344 72.28125 61.078125 73.488281 61.28125 C 74.734375 61.5 75.570312 61.578125 77.019531 61.617188 L 78.914062 61.675781 L 78.898438 62.308594 C 78.886719 62.660156 78.839844 63.121094 78.78125 63.335938 C 78.722656 63.550781 78.613281 64.144531 78.527344 64.65625 C 78.4375 65.164062 78.34375 65.691406 78.304688 65.828125 L 78.234375 66.070312 L 76.824219 66.082031 C 76 66.089844 75.054688 66.042969 74.539062 65.953125 Z M 20.695312 65.828125 C 19.753906 65.328125 19.703125 63.707031 20.617188 63.207031 C 20.960938 63.023438 21.757812 63.148438 22.136719 63.441406 C 22.777344 63.929688 22.933594 64.644531 22.542969 65.328125 C 22.378906 65.632812 22.234375 65.757812 21.894531 65.875 C 21.328125 66.0625 21.125 66.0625 20.695312 65.828125 Z M 23.964844 64.007812 C 23.886719 63.65625 23.644531 63.1875 23.4375 62.992188 C 22.730469 62.320312 22.097656 61.957031 21.542969 61.898438 C 21.039062 61.851562 21.125 61.625 21.640625 61.625 C 22.4375 61.625 24.355469 61.839844 24.410156 61.9375 C 24.527344 62.125 24.285156 64.027344 24.121094 64.195312 C 24.0625 64.253906 24.003906 64.183594 23.964844 64.007812 Z M 23.964844 64.007812 "
  />
  <path
    d="M 59.40625 64 C 59.347656 63.84375 59.269531 63.65625 59.222656 63.578125 C 59.183594 63.5 59.054688 63.082031 58.9375 62.652344 C 58.8125 62.222656 58.675781 61.761719 58.617188 61.625 C 58.316406 60.890625 58.191406 60.34375 57.820312 58.300781 L 57.507812 56.691406 C 57.421875 56.210938 57.335938 55.683594 57.335938 55.515625 L 57.324219 55.222656 L 58.929688 55.164062 C 60.71875 55.097656 61.117188 55.046875 62.402344 54.765625 C 62.898438 54.65625 63.375 54.589844 63.453125 54.628906 C 63.539062 54.65625 63.664062 54.824219 63.742188 55 C 63.929688 55.417969 64.132812 55.710938 64.714844 56.386719 C 65.183594 56.914062 65.707031 57.65625 66.679688 59.132812 L 67.402344 60.238281 C 67.828125 60.882812 67.972656 61.195312 67.972656 61.5 C 67.972656 61.742188 67.898438 61.8125 67.226562 62.125 C 66.808594 62.320312 66.164062 62.554688 65.785156 62.652344 C 65.417969 62.738281 64.6875 62.945312 64.179688 63.089844 C 63.675781 63.246094 62.75 63.511719 62.140625 63.675781 C 61.527344 63.84375 60.824219 64.046875 60.582031 64.125 C 59.871094 64.351562 59.53125 64.3125 59.40625 64 Z M 16.554688 63.539062 C 16.105469 63.316406 16.066406 63.238281 16.289062 62.945312 C 16.4375 62.75 16.445312 62.75 16.679688 63.042969 C 17.234375 63.707031 17.1875 63.871094 16.554688 63.539062 Z M 51.730469 63.714844 C 51.371094 63.65625 50.28125 63.382812 49.785156 63.226562 C 49.253906 63.050781 47.753906 62.621094 47.160156 62.476562 L 46.722656 62.359375 L 46.734375 61.578125 C 46.734375 61.144531 46.792969 60.226562 46.851562 59.523438 C 46.90625 58.832031 46.964844 57.773438 46.964844 57.199219 L 46.964844 56.132812 L 47.269531 56.4375 C 47.511719 56.691406 47.636719 56.738281 48.015625 56.738281 C 48.269531 56.738281 48.628906 56.699219 48.8125 56.640625 C 49 56.59375 49.660156 56.503906 50.273438 56.445312 C 51.683594 56.320312 52.871094 56.125 53.210938 55.957031 C 53.367188 55.890625 53.550781 55.664062 53.648438 55.449219 C 53.804688 55.105469 54 54.96875 54.09375 55.15625 C 54.113281 55.195312 53.941406 55.996094 53.707031 56.933594 C 53.464844 57.871094 53.238281 58.820312 53.191406 59.035156 C 53.027344 59.828125 52.898438 60.53125 52.695312 61.625 C 52.59375 62.261719 52.457031 62.890625 52.277344 63.511719 C 52.238281 63.65625 52.160156 63.765625 52.09375 63.765625 Z M 17.90625 62.289062 C 17.699219 61.898438 17.242188 61.195312 16.902344 60.726562 L 15.890625 59.308594 C 15.667969 59.007812 15.261719 58.585938 14.96875 58.378906 C 14.675781 58.175781 14.0625 57.695312 13.617188 57.304688 C 12.78125 56.574219 12.195312 56.132812 11.671875 55.839844 L 11.359375 55.671875 L 11.523438 55.300781 C 11.734375 54.703125 11.976562 54.113281 12.253906 53.542969 C 12.585938 52.867188 12.847656 52.496094 13.5 51.832031 C 13.945312 51.355469 14.394531 50.972656 14.480469 50.972656 C 14.667969 50.972656 14.96875 51.199219 15.453125 51.675781 C 15.648438 51.882812 16.125 52.273438 16.503906 52.554688 C 17.070312 52.984375 18.167969 53.875 18.5 54.179688 C 18.539062 54.21875 18.859375 54.6875 19.207031 55.222656 C 19.558594 55.75 20.027344 56.417969 20.238281 56.679688 L 20.628906 57.179688 L 20.5625 58.496094 C 20.523438 59.222656 20.472656 59.835938 20.453125 59.855469 C 20.375 59.945312 20.308594 59.769531 19.96875 58.585938 C 19.34375 56.378906 18.671875 55.410156 18.234375 56.085938 C 18.101562 56.28125 18.101562 56.359375 18.226562 56.777344 C 18.609375 57.644531 18.90625 58.546875 19.113281 59.476562 C 19.199219 59.769531 19.355469 60.226562 19.460938 60.492188 C 19.597656 60.824219 19.636719 61.066406 19.589844 61.339844 C 19.472656 62.035156 19.257812 61.929688 18.964844 61.039062 C 18.78125 60.484375 18.570312 59.941406 18.332031 59.40625 C 17.671875 57.636719 17.488281 57.21875 17.261719 56.964844 C 17.15625 56.835938 17 56.738281 16.914062 56.738281 C 16.4375 56.738281 16.398438 57.441406 16.816406 58.332031 C 16.980469 58.675781 17.109375 59.007812 17.109375 59.066406 C 17.109375 59.125 17.167969 59.320312 17.242188 59.496094 C 17.4375 59.945312 17.632812 60.492188 17.894531 61.28125 C 18.011719 61.664062 18.195312 62.113281 18.292969 62.289062 C 18.488281 62.640625 18.519531 62.855469 18.382812 62.933594 C 18.332031 62.972656 18.121094 62.671875 17.90625 62.289062 Z M 14.8125 61.851562 C 14.441406 61.585938 14.054688 61.378906 13.46875 61.144531 C 13.207031 61.039062 13.199219 61.007812 13.257812 60.636719 C 13.296875 60.414062 13.382812 60.109375 13.460938 59.953125 C 13.539062 59.808594 13.605469 59.621094 13.605469 59.542969 C 13.605469 59.464844 13.675781 59.347656 13.753906 59.28125 C 13.964844 59.105469 14.347656 59.484375 15.074219 60.597656 C 15.523438 61.28125 15.628906 61.519531 15.582031 61.722656 C 15.464844 62.210938 15.355469 62.230469 14.8125 61.851562 Z M 4.316406 61.359375 C 4.015625 61.058594 3.976562 60.773438 4.125 60.042969 L 4.300781 59.328125 L 4.601562 59.105469 C 5.300781 58.566406 6.410156 59.125 6.410156 60.011719 C 6.410156 60.402344 6.117188 61.078125 5.855469 61.3125 C 5.535156 61.585938 4.570312 61.625 4.316406 61.359375 Z M 40.1875 61.300781 C 39.914062 61.234375 39.664062 61.164062 39.632812 61.136719 C 39.535156 61.027344 39.730469 55.175781 39.828125 55.078125 C 39.894531 55.007812 40.167969 55.027344 40.652344 55.136719 L 41.570312 55.332031 C 42.035156 55.429688 42.132812 55.613281 42.257812 56.710938 C 42.445312 58.28125 42.636719 59.398438 42.773438 59.640625 C 42.941406 59.964844 43.328125 60.03125 43.640625 59.796875 C 43.824219 59.652344 43.914062 59.464844 44.007812 58.976562 C 44.222656 57.871094 44.535156 55.800781 44.535156 55.496094 C 44.535156 55.214844 44.769531 54.890625 44.886719 55.007812 C 44.914062 55.039062 44.960938 55.800781 44.980469 56.710938 C 45 57.609375 45.078125 58.839844 45.148438 59.425781 C 45.214844 60.023438 45.246094 60.65625 45.214844 60.84375 L 45.167969 61.183594 L 44.242188 61.242188 C 41.773438 61.398438 40.671875 61.421875 40.1875 61.300781 Z M 21.550781 60.121094 C 21.523438 60.050781 21.5625 59.640625 21.640625 59.222656 C 21.824219 58.144531 21.824219 56.601562 21.628906 56.445312 C 21.4375 56.28125 21.53125 56.152344 21.855469 56.152344 C 22.371094 56.152344 22.371094 56.152344 22.253906 58.214844 C 22.183594 59.378906 22.097656 60.140625 22.027344 60.179688 C 21.855469 60.296875 21.609375 60.265625 21.550781 60.121094 Z M 31.707031 60.121094 C 31.617188 60.011719 31.609375 59.875 31.6875 59.601562 C 31.746094 59.398438 31.792969 58.878906 31.804688 58.449219 C 31.8125 57.433594 31.960938 56.914062 32.28125 56.828125 C 32.417969 56.789062 33.078125 56.757812 33.769531 56.75 L 35.003906 56.738281 L 35.003906 57.0625 C 34.992188 57.226562 34.953125 57.570312 34.898438 57.8125 C 34.847656 58.058594 34.761719 58.605469 34.703125 59.035156 C 34.535156 60.265625 34.554688 60.257812 33.066406 60.257812 C 32.105469 60.257812 31.792969 60.226562 31.707031 60.121094 Z M 74.878906 60.160156 L 73.304688 59.914062 C 72.671875 59.828125 72.089844 59.691406 72 59.621094 C 71.875 59.535156 71.824219 59.261719 71.765625 58.292969 C 71.730469 57.628906 71.660156 56.914062 71.621094 56.71875 C 71.535156 56.269531 71.347656 56.289062 73.800781 56.535156 C 74.78125 56.632812 75.609375 56.757812 75.648438 56.816406 C 75.675781 56.867188 75.6875 57.65625 75.65625 58.554688 C 75.597656 60.394531 75.648438 60.296875 74.878906 60.160156 Z M 85.394531 60.023438 C 85.277344 59.875 85.226562 56.953125 85.34375 56.847656 C 85.441406 56.757812 87.5625 56.515625 88.300781 56.503906 L 88.738281 56.496094 L 88.699219 57.03125 C 88.679688 57.324219 88.582031 57.824219 88.484375 58.136719 C 88.378906 58.457031 88.300781 58.996094 88.300781 59.328125 L 88.300781 59.945312 L 87.457031 60.003906 L 86.046875 60.101562 C 85.695312 60.128906 85.453125 60.101562 85.394531 60.023438 Z M 96.570312 58.546875 C 95.449219 58.339844 94.097656 57.902344 93.875 57.65625 C 93.699219 57.460938 93.671875 57.34375 93.699219 56.71875 C 93.777344 55.078125 93.875 53.828125 93.941406 53.71875 C 93.992188 53.632812 94.148438 53.621094 94.488281 53.679688 L 94.964844 53.757812 L 94.992188 54.285156 C 95.011719 54.578125 94.984375 55.253906 94.925781 55.78125 C 94.816406 56.847656 94.875 57.148438 95.214844 57.324219 C 95.617188 57.539062 95.761719 57.226562 96.023438 55.632812 C 96.160156 54.84375 96.296875 54.148438 96.335938 54.089844 C 96.421875 53.945312 97.414062 54.042969 97.890625 54.246094 C 98.25 54.394531 98.25 54.394531 98.183594 54.863281 L 98.027344 56.066406 C 97.941406 56.835938 97.492188 58.371094 97.308594 58.554688 C 97.230469 58.636719 97.027344 58.625 96.570312 58.546875 Z M 76.289062 55.507812 L 74.101562 55.320312 C 71.699219 55.117188 71.59375 55.097656 71.425781 54.84375 C 71.269531 54.609375 70.757812 51.988281 70.832031 51.804688 C 70.871094 51.707031 71.574219 51.257812 72.574219 50.691406 L 73.1875 50.328125 C 73.382812 50.191406 73.5 50.179688 73.839844 50.269531 C 75.171875 50.621094 75.53125 50.523438 76.152344 49.664062 C 77.078125 48.414062 77.789062 46.9375 78.175781 45.441406 C 78.234375 45.21875 78.457031 44.828125 78.664062 44.5625 C 79.179688 43.90625 79.324219 43.496094 79.390625 42.558594 C 79.421875 42.121094 79.480469 41.71875 79.527344 41.667969 C 79.578125 41.621094 79.871094 41.550781 80.171875 41.523438 L 80.714844 41.464844 L 80.714844 46.390625 C 80.714844 51.167969 80.578125 55.125 80.414062 55.3125 C 80.363281 55.359375 80.230469 55.417969 80.113281 55.429688 C 79.5 55.476562 76.628906 55.535156 76.289062 55.507812 Z M 81.980469 55.417969 C 81.863281 55.28125 81.832031 54.34375 81.824219 49.273438 C 81.804688 45.988281 81.765625 42.804688 81.738281 42.207031 C 81.667969 40.945312 81.570312 41.0625 82.757812 40.761719 L 83.875 40.46875 C 84.429688 40.3125 85.226562 40.125 86.550781 39.832031 C 87.054688 39.714844 87.609375 39.589844 87.765625 39.539062 L 89.03125 39.160156 C 91.53125 38.394531 91.6875 38.375 91.570312 38.796875 C 91.460938 39.160156 91.316406 40.332031 91.230469 41.511719 C 91.171875 42.148438 91.082031 42.746094 91.023438 42.851562 C 90.917969 43.066406 90.605469 44.777344 90.449219 46.039062 C 90.109375 48.753906 89.898438 50.082031 89.605469 51.316406 C 89.46875 51.851562 89.324219 52.710938 89.273438 53.222656 C 89.167969 54.304688 89.039062 54.8125 88.828125 54.988281 C 88.59375 55.183594 86.121094 55.457031 84.023438 55.527344 C 82.28125 55.585938 82.117188 55.574219 81.980469 55.417969 Z M 27.269531 55.097656 C 27.203125 55.046875 27.195312 53.191406 27.242188 49.605469 C 27.28125 46.625 27.308594 40.839844 27.300781 36.753906 C 27.289062 29.503906 27.320312 28.332031 27.621094 26.25 C 27.746094 25.351562 27.972656 24.15625 28.15625 23.414062 C 28.234375 23.0625 28.371094 22.429688 28.4375 22.007812 C 28.613281 20.914062 28.710938 20.84375 29.996094 20.914062 C 31.230469 20.972656 32.054688 21.097656 32.203125 21.246094 C 32.28125 21.324219 32.28125 21.519531 32.191406 22.015625 C 31.941406 23.394531 31.882812 24.109375 32.007812 24.382812 C 32.152344 24.675781 32.875 25.066406 33.28125 25.074219 C 33.542969 25.074219 35.179688 25.59375 36.363281 26.054688 C 36.65625 26.171875 37.210938 26.347656 37.582031 26.464844 C 38.652344 26.765625 38.554688 26.5625 38.523438 28.652344 C 38.503906 29.667969 38.445312 31.183594 38.398438 32.015625 C 38.347656 32.84375 38.308594 35.296875 38.308594 37.46875 C 38.308594 39.980469 38.269531 41.472656 38.214844 41.601562 C 38.15625 41.699219 38.066406 41.972656 38.019531 42.199219 C 37.96875 42.433594 37.84375 42.949219 37.726562 43.351562 C 37.386719 44.5625 37.242188 45.128906 37.09375 45.695312 C 36.957031 46.261719 36.824219 46.78125 36.460938 48.089844 C 36.246094 48.851562 36.054688 49.617188 35.886719 50.386719 C 35.664062 51.207031 35.375 52.769531 35.21875 53.972656 C 35.042969 55.3125 35.488281 55.175781 31.132812 55.175781 C 29.0625 55.175781 27.328125 55.136719 27.269531 55.097656 Z M 48.757812 55.117188 C 48.667969 55.078125 48.679688 54.941406 48.785156 54.609375 C 48.863281 54.355469 48.96875 53.933594 49.027344 53.660156 C 49.078125 53.398438 49.183594 52.984375 49.261719 52.75 C 49.425781 52.253906 49.445312 50.660156 49.289062 50.359375 C 49.136719 50.074219 49.058594 50.023438 48.433594 49.839844 C 48.125 49.75 47.773438 49.710938 47.578125 49.75 C 47.402344 49.78125 47.257812 49.800781 47.25 49.78125 L 47.199219 47.386719 C 47.160156 45.832031 47.179688 44.964844 47.25 44.835938 C 47.328125 44.691406 47.480469 44.640625 47.957031 44.601562 C 48.300781 44.570312 48.8125 44.472656 49.105469 44.386719 C 49.398438 44.289062 49.816406 44.171875 50.03125 44.121094 C 51.160156 43.828125 51.1875 43.632812 50.46875 41.6875 C 50.292969 41.230469 50.148438 40.703125 50.136719 40.515625 C 50.128906 40.183594 50.136719 40.175781 50.515625 40.144531 C 51.226562 40.105469 52.101562 39.929688 52.820312 39.6875 C 53.765625 39.375 56.351562 38.835938 58.441406 38.511719 C 59.96875 38.277344 61.625 37.945312 62.332031 37.730469 C 64.199219 37.15625 64.199219 37.15625 64.425781 37.300781 C 65.210938 37.808594 65.84375 38.140625 66.222656 38.257812 C 66.925781 38.472656 68.722656 38.503906 69.773438 38.328125 C 70.269531 38.238281 70.738281 38.191406 70.8125 38.21875 C 71 38.296875 71.691406 39.519531 71.652344 39.707031 C 71.632812 39.824219 71.359375 39.929688 70.699219 40.078125 C 70.191406 40.195312 69.65625 40.339844 69.511719 40.398438 C 69.375 40.457031 68.976562 40.535156 68.636719 40.566406 C 68.304688 40.605469 67.476562 40.800781 66.808594 41.003906 C 66.136719 41.210938 65.417969 41.40625 65.203125 41.445312 C 64.988281 41.472656 64.636719 41.5625 64.425781 41.640625 C 63.722656 41.875 62.886719 42.070312 61.847656 42.226562 C 60.972656 42.351562 60.113281 42.542969 59.269531 42.804688 L 57.8125 43.214844 C 56.332031 43.644531 55.886719 43.75 55.28125 43.859375 C 54.960938 43.917969 54.457031 44.054688 54.164062 44.179688 C 53.871094 44.296875 53.472656 44.425781 53.289062 44.464844 C 53.101562 44.503906 52.734375 44.589844 52.460938 44.671875 L 51.207031 44.972656 C 49.777344 45.296875 49.308594 45.902344 49.007812 47.796875 C 48.863281 48.726562 49.308594 49.203125 50.195312 49.078125 L 51.878906 48.882812 C 53.289062 48.726562 53.523438 48.65625 54.191406 48.207031 C 54.757812 47.828125 55.097656 47.269531 55.261719 46.457031 L 55.390625 45.84375 L 55.769531 45.84375 C 56.128906 45.84375 56.175781 45.871094 56.351562 46.234375 C 56.613281 46.761719 56.59375 47.621094 56.304688 48.089844 C 56.070312 48.480469 55.90625 48.578125 55.253906 48.785156 C 55 48.851562 54.667969 49.027344 54.515625 49.164062 C 54.359375 49.300781 54.164062 49.410156 54.09375 49.410156 C 54.019531 49.410156 53.726562 49.644531 53.445312 49.9375 C 52.988281 50.40625 52.917969 50.535156 52.773438 51.179688 C 52.609375 51.960938 52.316406 54.003906 52.316406 54.433594 C 52.316406 54.773438 52.160156 54.824219 50.566406 54.96875 L 49.058594 55.125 C 48.949219 55.144531 48.8125 55.144531 48.757812 55.117188 Z M 54.621094 42.84375 C 55.097656 42.394531 54.835938 41.628906 53.941406 40.925781 C 53.121094 40.273438 52.480469 40.078125 51.996094 40.332031 C 51.546875 40.574219 51.519531 40.976562 51.90625 41.601562 C 52.246094 42.140625 52.703125 42.53125 53.335938 42.824219 C 53.949219 43.117188 54.328125 43.117188 54.621094 42.84375 Z M 58.316406 41.804688 C 58.375 41.765625 58.480469 41.609375 58.53125 41.464844 C 58.746094 40.90625 58.152344 40.144531 57.148438 39.675781 C 56.554688 39.402344 56.304688 39.382812 55.914062 39.589844 C 55.652344 39.726562 55.621094 39.785156 55.621094 40.253906 C 55.621094 40.898438 55.855469 41.210938 56.644531 41.589844 C 57.21875 41.875 58.042969 41.984375 58.316406 41.804688 Z M 61.574219 41.035156 C 61.683594 40.9375 61.75 40.742188 61.75 40.515625 C 61.75 40.222656 61.671875 40.078125 61.371094 39.773438 C 60.960938 39.363281 60.242188 38.953125 59.929688 38.953125 C 59.8125 38.953125 59.628906 39.03125 59.511719 39.128906 C 59.046875 39.511719 59.355469 40.292969 60.222656 40.917969 C 60.671875 41.25 61.28125 41.296875 61.574219 41.035156 Z M 23.800781 54.921875 C 23.167969 54.851562 22.503906 54.753906 22.332031 54.695312 C 22.15625 54.636719 21.667969 54.578125 21.242188 54.578125 C 20.597656 54.570312 20.425781 54.53125 20.25 54.363281 C 19.957031 54.101562 19.96875 53.984375 20.296875 53.738281 C 20.445312 53.632812 20.617188 53.367188 20.695312 53.164062 C 21.125 51.941406 21.550781 51.101562 21.941406 50.710938 C 22.429688 50.21875 22.476562 49.9375 22.136719 49.371094 C 21.914062 49.019531 21.914062 48.96875 22.039062 48.589844 C 22.371094 47.640625 21.757812 46.351562 20.753906 45.882812 C 19.78125 45.421875 18.597656 45.824219 17.625 46.925781 C 17.320312 47.269531 16.960938 47.59375 16.796875 47.660156 C 16.542969 47.769531 16.234375 48.179688 16.234375 48.421875 C 16.234375 48.472656 16.347656 48.648438 16.484375 48.8125 C 16.785156 49.175781 16.746094 49.3125 16.242188 49.898438 L 15.851562 50.339844 L 15.28125 49.730469 C 14.917969 49.351562 14.53125 49.058594 14.269531 48.960938 C 13.617188 48.695312 13.605469 48.6875 13.605469 47.757812 C 13.605469 46.828125 13.382812 44.875 13.167969 44.035156 C 13.023438 43.4375 12.820312 42.460938 12.574219 41.171875 C 12.421875 40.339844 12.421875 40.292969 12.585938 40 C 12.75 39.726562 12.75 39.511719 12.691406 37.144531 C 12.652344 35.746094 12.585938 34.417969 12.535156 34.203125 C 12.488281 34 12.4375 33.050781 12.4375 32.113281 C 12.4375 31.175781 12.390625 29.980469 12.332031 29.472656 C 12.167969 27.890625 12.078125 26.796875 12.128906 26.621094 C 12.15625 26.503906 12.324219 26.445312 12.761719 26.394531 C 14.65625 26.191406 17.730469 25.632812 18.90625 25.273438 C 19.285156 25.164062 19.65625 25.113281 19.9375 25.144531 C 20.335938 25.195312 20.40625 25.164062 20.597656 24.917969 C 20.8125 24.644531 20.8125 24.578125 20.765625 23.316406 C 20.734375 22.59375 20.746094 21.949219 20.785156 21.890625 C 20.941406 21.636719 21.757812 21.46875 22.945312 21.449219 C 24.304688 21.421875 24.199219 21.363281 24.859375 22.527344 C 25.492188 23.648438 25.628906 24.636719 25.859375 29.765625 C 25.96875 32.199219 25.878906 53.289062 25.765625 54.238281 C 25.714844 54.609375 25.617188 54.949219 25.550781 54.988281 C 25.394531 55.085938 25.257812 55.085938 23.800781 54.921875 Z M 42.824219 54.53125 C 42.464844 54.246094 41.636719 54.011719 40.722656 53.933594 C 40.351562 53.90625 40.023438 53.828125 39.972656 53.769531 C 39.886719 53.652344 39.964844 51.96875 40.167969 49.554688 L 40.292969 48.082031 L 39.699219 46.867188 C 38.960938 45.335938 38.777344 44.777344 38.914062 44.433594 C 38.960938 44.296875 39.039062 44.003906 39.089844 43.789062 C 39.136719 43.574219 39.261719 43.066406 39.378906 42.667969 C 39.488281 42.265625 39.644531 41.601562 39.730469 41.199219 C 39.816406 40.800781 39.964844 40.332031 40.070312 40.15625 C 40.332031 39.734375 41.226562 37.90625 41.226562 37.800781 C 41.226562 37.761719 41.34375 37.4375 41.480469 37.085938 C 41.617188 36.746094 41.773438 36.304688 41.8125 36.117188 C 41.976562 35.433594 42.695312 33.234375 42.804688 33.136719 C 42.84375 33.089844 43 33.558594 43.320312 34.730469 C 43.648438 35.902344 43.746094 36.273438 43.796875 36.511719 C 43.894531 37.007812 44.816406 40.398438 45.039062 41.101562 C 45.175781 41.503906 45.363281 42.1875 45.449219 42.617188 C 45.546875 43.046875 45.671875 43.59375 45.75 43.839844 C 45.847656 44.191406 45.859375 45.128906 45.800781 48.773438 L 45.710938 53.4375 C 45.703125 53.652344 45.402344 53.75 44.679688 53.757812 C 43.894531 53.769531 43.542969 53.953125 43.425781 54.421875 C 43.320312 54.84375 43.230469 54.863281 42.824219 54.53125 Z M 9.824219 54.453125 C 9.753906 54.375 9.597656 54.277344 9.492188 54.238281 C 8.804688 53.910156 8.160156 53.503906 7.566406 53.023438 C 7.429688 53.023438 5.921875 51.96875 5.5625 51.628906 C 5.164062 51.257812 5.164062 51.089844 5.535156 50.730469 C 5.882812 50.398438 5.855469 50.386719 7.402344 51.421875 C 7.976562 51.8125 8.53125 52.15625 8.625 52.183594 C 8.929688 52.28125 9.296875 52.085938 9.367188 51.792969 C 9.445312 51.480469 9.269531 51.207031 7.800781 49.390625 C 7.625 49.175781 7.480469 48.949219 7.480469 48.882812 C 7.480469 48.609375 8.957031 47.386719 9.394531 47.296875 C 9.667969 47.25 10.210938 47.582031 11.027344 48.324219 C 11.359375 48.617188 12.214844 49.214844 12.324219 49.214844 C 12.363281 49.214844 12.566406 49.371094 12.78125 49.554688 C 12.992188 49.742188 13.199219 49.898438 13.238281 49.898438 C 13.421875 49.898438 13.265625 50.121094 12.710938 50.652344 C 11.894531 51.308594 11.234375 52.144531 10.785156 53.09375 C 10.785156 53.144531 10.542969 53.699219 10.269531 54.285156 C 10.125 54.578125 9.980469 54.636719 9.824219 54.453125 Z M 64.824219 53.984375 C 64.792969 53.855469 64.765625 53.613281 64.765625 53.4375 C 64.765625 53.261719 64.726562 53.035156 64.675781 52.9375 C 64.617188 52.839844 64.492188 52.234375 64.375 51.578125 C 64.21875 50.671875 64.199219 50.339844 64.289062 50.121094 C 64.347656 49.976562 64.433594 49.613281 64.484375 49.320312 C 64.570312 48.734375 65.144531 46.886719 65.28125 46.703125 C 65.328125 46.632812 65.398438 46.574219 65.4375 46.574219 C 65.464844 46.574219 65.601562 47.003906 65.726562 47.535156 C 65.84375 48.050781 66.058594 48.792969 66.195312 49.164062 C 66.523438 50.082031 66.574219 50.457031 66.390625 50.660156 C 66.117188 50.984375 65.816406 51.753906 65.222656 53.699219 C 65.074219 54.199219 64.910156 54.304688 64.824219 53.984375 Z M 64.824219 53.984375 "
  />
  <path
    d="M 47.199219 52.46875 L 47.25 51.179688 C 47.257812 51.082031 47.347656 51.0625 47.570312 51.109375 C 48.164062 51.226562 48.203125 51.394531 47.890625 52.4375 C 47.8125 52.683594 47.714844 53.035156 47.675781 53.222656 C 47.617188 53.476562 47.53125 53.574219 47.363281 53.59375 L 47.152344 53.632812 Z M 59.890625 53.542969 C 59.871094 53.222656 59.921875 51.414062 59.960938 51.375 C 59.980469 51.34375 60.214844 51.296875 60.464844 51.257812 C 60.71875 51.226562 61.351562 51.089844 61.867188 50.964844 C 62.390625 50.847656 62.839844 50.769531 62.867188 50.789062 C 62.886719 50.816406 62.984375 51.304688 63.082031 51.882812 C 63.226562 52.808594 63.226562 52.945312 63.101562 53.074219 C 62.859375 53.328125 59.910156 53.75 59.890625 53.542969 Z M 97.785156 53.015625 C 97.570312 52.964844 97.066406 52.9375 96.664062 52.945312 C 96.265625 52.957031 95.78125 52.90625 95.597656 52.847656 L 94.671875 52.566406 L 94.089844 52.390625 L 94.128906 51.558594 C 94.195312 49.839844 94.148438 49.945312 95.34375 49.105469 C 96.578125 48.238281 96.695312 48.089844 96.363281 47.816406 C 96.074219 47.582031 95.652344 47.640625 94.867188 48.042969 L 94.28125 48.335938 L 94.03125 48.03125 C 93.863281 47.847656 93.730469 47.523438 93.660156 47.132812 C 93.59375 46.800781 93.367188 45.929688 93.15625 45.207031 C 92.394531 42.65625 92.394531 42.707031 92.980469 41.875 C 93.222656 41.53125 93.535156 41.015625 93.679688 40.742188 C 93.824219 40.457031 94.117188 39.949219 94.332031 39.617188 C 94.546875 39.277344 94.875 38.679688 95.070312 38.289062 C 95.410156 37.59375 95.808594 37.15625 96.023438 37.222656 C 96.082031 37.242188 96.167969 37.429688 96.207031 37.644531 L 96.421875 38.5625 C 97.179688 41.726562 97.503906 42.960938 97.617188 43.253906 C 97.988281 44.140625 98.570312 46.535156 98.667969 47.503906 C 98.699219 47.886719 98.796875 48.335938 98.863281 48.519531 C 99.019531 48.902344 99.039062 49.390625 98.902344 50.074219 L 98.707031 51.433594 C 98.503906 53.105469 98.484375 53.152344 97.785156 53.015625 Z M 18.703125 52.652344 L 17.664062 51.753906 C 17.253906 51.402344 16.914062 51.050781 16.914062 50.953125 C 16.914062 50.867188 17.050781 50.671875 17.207031 50.515625 C 17.371094 50.367188 17.496094 50.160156 17.496094 50.074219 C 17.496094 49.769531 17.671875 49.800781 18.429688 50.25 C 18.839844 50.496094 19.363281 50.769531 19.597656 50.855469 C 19.820312 50.953125 20.027344 51.042969 20.035156 51.070312 C 20.09375 51.160156 19.199219 52.925781 19.101562 52.917969 C 19.054688 52.917969 18.867188 52.800781 18.703125 52.652344 Z M 67.925781 50.621094 C 67.714844 50.207031 67.535156 49.773438 67.390625 49.332031 C 67.292969 49.164062 66.710938 47.042969 66.710938 46.878906 C 67.65625 46.277344 68.660156 45.777344 69.707031 45.382812 C 69.851562 45.238281 69.851562 45.355469 69.707031 45.628906 C 69.648438 45.746094 69.597656 46 69.617188 46.183594 C 69.648438 46.652344 70.308594 48.003906 70.765625 48.519531 C 71.078125 48.871094 71.195312 48.941406 71.523438 48.949219 C 72.089844 48.960938 72.207031 49.164062 71.84375 49.515625 C 71.027344 50.300781 68.976562 51.558594 68.507812 51.558594 C 68.410156 51.558594 68.199219 51.21875 67.925781 50.621094 Z M 37.757812 50.710938 C 37.523438 50.691406 37.335938 50.621094 37.335938 50.5625 C 37.335938 50.4375 37.484375 49.867188 37.726562 49.019531 L 38.097656 47.710938 C 38.195312 47.328125 38.328125 47.003906 38.386719 46.984375 C 38.445312 46.964844 38.582031 47.160156 38.691406 47.414062 C 38.921875 47.933594 38.941406 48.597656 38.765625 49.898438 C 38.632812 50.828125 38.671875 50.796875 37.757812 50.710938 Z M 3.890625 50.015625 C 2.976562 49.046875 1.078125 46.761719 0.359375 45.753906 C -0.0390625 45.207031 -0.0976562 44.835938 0.125 44.308594 L 0.601562 43.15625 C 0.796875 42.695312 1.128906 42.003906 1.34375 41.601562 C 1.566406 41.199219 1.742188 40.847656 1.742188 40.820312 C 1.742188 40.789062 2.011719 40.234375 2.335938 39.589844 C 3.433594 37.410156 3.753906 36.753906 4.027344 36.117188 C 4.183594 35.765625 4.355469 35.414062 4.414062 35.335938 C 4.472656 35.257812 4.589844 35.035156 4.660156 34.847656 C 4.726562 34.664062 5.136719 33.785156 5.554688 32.894531 L 6.488281 30.921875 C 6.574219 30.714844 6.691406 30.566406 6.738281 30.578125 C 6.847656 30.617188 7.460938 31.703125 7.878906 32.601562 C 8.265625 33.429688 8.988281 34.878906 9.289062 35.433594 C 9.570312 35.960938 10.339844 37.644531 10.4375 37.945312 C 10.503906 38.160156 10.417969 38.328125 9.492188 39.734375 C 8.761719 40.847656 7.3125 42.714844 6.777344 43.234375 L 6.339844 43.652344 L 5.183594 43.574219 C 3.785156 43.46875 3.269531 43.527344 3.21875 43.769531 C 3.199219 43.867188 3.238281 44.015625 3.308594 44.09375 C 3.597656 44.445312 5.144531 44.914062 6.03125 44.914062 C 6.652344 44.914062 6.683594 44.925781 7.292969 45.414062 C 7.636719 45.6875 8.023438 46 8.148438 46.117188 L 8.394531 46.3125 L 7.859375 46.761719 C 7.578125 47.003906 7.082031 47.453125 6.777344 47.757812 C 6.332031 48.21875 6.222656 48.382812 6.195312 48.6875 C 6.167969 49.039062 6.148438 49.066406 5.855469 49.078125 C 5.386719 49.078125 5.078125 49.292969 4.699219 49.867188 C 4.511719 50.152344 4.328125 50.386719 4.300781 50.386719 C 4.269531 50.386719 4.085938 50.21875 3.890625 50.015625 Z M 56.496094 50.210938 C 56.496094 50.160156 56.683594 50.054688 56.914062 49.945312 C 57.714844 49.605469 58.910156 48.746094 59.191406 48.324219 C 59.492188 47.867188 59.511719 47.484375 59.367188 45.636719 C 59.300781 44.71875 59.308594 44.648438 59.472656 44.570312 C 59.8125 44.433594 61.507812 43.828125 61.796875 43.742188 C 61.964844 43.691406 62.507812 43.585938 63.015625 43.488281 C 63.519531 43.390625 64.074219 43.261719 64.25 43.183594 C 64.65625 43.019531 65.054688 43.019531 65.054688 43.195312 C 65.054688 43.320312 64.824219 43.925781 64.523438 44.570312 C 64.367188 44.925781 63.898438 46.332031 63.832031 46.671875 C 63.570312 47.347656 63.363281 48.046875 63.21875 48.753906 C 63.167969 48.960938 63.113281 49.144531 63.09375 49.164062 C 63.0625 49.195312 62.789062 49.261719 62.46875 49.3125 C 62.160156 49.371094 61.457031 49.527344 60.921875 49.652344 C 59.066406 50.113281 56.496094 50.4375 56.496094 50.210938 Z M 20.414062 49.75 C 20.230469 49.613281 19.9375 49.457031 19.761719 49.398438 C 19.589844 49.339844 19.167969 49.15625 18.828125 48.96875 C 18.0625 48.558594 17.992188 48.304688 18.539062 47.886719 C 18.878906 47.632812 18.964844 47.613281 19.65625 47.621094 C 20.074219 47.632812 20.453125 47.671875 20.523438 47.699219 C 20.617188 47.769531 20.609375 47.945312 20.464844 48.824219 C 20.40625 49.117188 20.445312 49.203125 20.695312 49.449219 C 21.230469 49.964844 21.027344 50.179688 20.414062 49.75 Z M 73.761719 49.117188 C 73.644531 49.078125 73.5 48.96875 73.421875 48.871094 C 73.304688 48.734375 73.3125 48.675781 73.441406 48.453125 C 74.246094 47.042969 74.394531 46.605469 74.1875 46.222656 C 74.101562 46.039062 73.984375 45.988281 73.722656 45.988281 C 73.351562 45.988281 73.324219 46.007812 72.207031 47.074219 C 71.738281 47.515625 71.640625 47.574219 71.535156 47.445312 C 71.347656 47.257812 70.890625 46.417969 70.890625 46.28125 C 70.890625 46.222656 71.195312 45.832031 71.5625 45.421875 L 72.515625 44.347656 L 72.789062 44.015625 L 73.175781 44.335938 C 73.390625 44.503906 73.9375 44.828125 74.394531 45.042969 C 75.085938 45.375 75.355469 45.441406 76.046875 45.492188 C 76.960938 45.558594 76.941406 45.53125 76.667969 46.234375 C 76.308594 47.160156 75.753906 48.226562 75.375 48.707031 C 74.976562 49.203125 74.96875 49.214844 74.460938 49.203125 C 74.1875 49.203125 73.867188 49.164062 73.761719 49.117188 Z M 73.761719 49.117188 "
  />
  <path
    d="M 57.46875 48.179688 L 57.566406 47.464844 C 57.644531 46.984375 57.644531 46.632812 57.558594 46.175781 C 57.375 45.140625 57.382812 45.0625 57.695312 45.03125 C 57.957031 45.003906 57.957031 45.003906 57.957031 45.578125 C 57.957031 45.902344 58.023438 46.507812 58.101562 46.925781 L 58.25 47.691406 L 57.984375 47.964844 C 57.753906 48.207031 57.46875 48.324219 57.46875 48.179688 Z M 50.300781 47.679688 C 50.273438 47.601562 50.320312 47.386719 50.410156 47.199219 C 50.496094 47.015625 50.566406 46.800781 50.566406 46.722656 C 50.566406 46.515625 51.082031 46.195312 51.558594 46.097656 C 51.789062 46.046875 52.324219 45.910156 52.753906 45.792969 C 53.890625 45.472656 53.824219 45.453125 53.8125 46.164062 C 53.804688 46.605469 53.753906 46.828125 53.628906 46.964844 C 53.386719 47.238281 52.492188 47.554688 51.945312 47.554688 C 51.691406 47.554688 51.234375 47.613281 50.925781 47.691406 C 50.429688 47.808594 50.351562 47.808594 50.300781 47.679688 Z M 66.523438 45.804688 C 66.46875 45.707031 66.398438 45.433594 66.359375 45.199219 C 66.320312 44.964844 66.242188 44.660156 66.175781 44.523438 C 66.066406 44.308594 66.085938 44.160156 66.3125 43.46875 C 66.457031 43.027344 66.59375 42.648438 66.621094 42.628906 L 67.148438 42.382812 C 67.691406 42.140625 67.613281 42.101562 68.101562 42.851562 C 68.460938 43.410156 68.773438 43.574219 69.550781 43.632812 C 70.113281 43.683594 70.261719 43.722656 70.289062 43.859375 C 70.316406 44.035156 70.191406 44.101562 68.851562 44.679688 C 68.207031 44.953125 67.15625 45.570312 66.953125 45.792969 C 66.730469 46.039062 66.640625 46.039062 66.523438 45.804688 Z M 74.910156 43.820312 C 73.671875 43.203125 73.34375 42.753906 73.089844 41.308594 C 72.933594 40.476562 72.535156 39.277344 72.050781 38.191406 C 71.894531 37.859375 71.765625 37.515625 71.765625 37.429688 C 71.765625 37.292969 72.15625 37.085938 72.398438 37.097656 C 72.457031 37.097656 72.632812 37.488281 72.796875 37.957031 C 72.953125 38.433594 73.214844 39.03125 73.363281 39.285156 C 73.585938 39.675781 73.671875 39.746094 73.886719 39.714844 C 74.128906 39.6875 74.148438 39.65625 74.140625 39.246094 C 74.140625 38.804688 74.023438 38.277344 73.730469 37.3125 C 73.566406 36.734375 73.636719 36.460938 73.957031 36.460938 C 74.09375 36.460938 74.21875 36.667969 74.441406 37.242188 C 74.820312 38.21875 75.046875 38.648438 75.296875 38.933594 C 75.550781 39.207031 75.910156 39.21875 76 38.953125 C 76.074219 38.707031 75.753906 37.429688 75.425781 36.695312 L 75.179688 36.136719 L 75.492188 36.078125 C 75.84375 36 75.773438 35.933594 76.765625 37.3125 C 77.332031 38.09375 77.378906 38.199219 77.4375 38.804688 C 77.503906 39.492188 77.503906 39.511719 78 41.035156 C 78.351562 42.128906 78.34375 42.363281 77.933594 43.203125 C 77.542969 44.003906 77.3125 44.132812 76.320312 44.132812 C 75.609375 44.132812 75.433594 44.09375 74.910156 43.820312 Z M 71.476562 43.371094 C 71.476562 43.183594 71.738281 43 71.855469 43.105469 C 71.921875 43.183594 71.738281 43.476562 71.59375 43.527344 C 71.523438 43.546875 71.476562 43.476562 71.476562 43.371094 Z M 46.957031 43.242188 C 46.753906 42.84375 46.851562 42.5 47.289062 42.167969 C 47.859375 41.71875 48.125 41.386719 48.132812 41.101562 C 48.144531 40.730469 48.367188 39.921875 48.464844 39.921875 C 48.511719 39.921875 48.699219 40.371094 48.871094 40.925781 L 49.339844 42.363281 C 49.417969 42.609375 49.464844 42.832031 49.445312 42.871094 C 49.386719 42.960938 48.621094 43.15625 47.765625 43.300781 C 47.113281 43.410156 47.042969 43.398438 46.957031 43.242188 Z M 69.347656 42.355469 C 69.054688 42.246094 69.113281 41.945312 69.433594 41.90625 C 69.570312 41.894531 69.832031 41.816406 70.015625 41.738281 C 70.203125 41.660156 70.601562 41.550781 70.890625 41.492188 L 71.699219 41.335938 C 71.941406 41.277344 71.972656 41.296875 71.941406 41.484375 C 71.921875 41.660156 71.746094 41.757812 71.085938 41.992188 C 70.015625 42.375 69.617188 42.460938 69.347656 42.355469 Z M 69.347656 42.355469 "
  />
  <path
    d="M 46.441406 40.984375 L 45.898438 39.148438 C 45.703125 38.5625 45.515625 37.898438 45.457031 37.585938 L 45.265625 36.753906 C 45.1875 36.492188 45.058594 35.914062 44.972656 35.484375 L 44.679688 34.164062 C 44.601562 33.871094 44.476562 33.253906 44.390625 32.796875 L 44.039062 31.085938 C 43.933594 30.605469 43.835938 30.078125 43.824219 29.914062 C 43.804688 29.640625 43.824219 29.621094 44.242188 29.5625 C 44.90625 29.464844 45.683594 29.289062 45.878906 29.199219 C 45.964844 29.152344 46.265625 29.082031 46.527344 29.042969 C 47.753906 28.886719 49.234375 28.46875 49.652344 28.15625 C 50.078125 27.832031 50.175781 27.363281 50.175781 25.742188 C 50.175781 24.761719 50.214844 24.285156 50.300781 24.167969 C 50.410156 24 50.496094 24.011719 51.585938 24.285156 C 52.859375 24.617188 53.074219 24.753906 53.199219 25.332031 C 53.238281 25.546875 53.386719 26.113281 53.511719 26.589844 C 53.648438 27.078125 53.785156 27.714844 53.8125 28.007812 C 53.851562 28.300781 53.921875 28.683594 53.96875 28.839844 C 54.203125 29.601562 54.582031 37.136719 54.40625 37.671875 C 54.359375 37.847656 54.164062 37.917969 53.191406 38.113281 C 53.054688 38.132812 52.617188 38.277344 52.21875 38.414062 C 51.820312 38.5625 51.160156 38.707031 50.757812 38.746094 C 50.359375 38.785156 49.972656 38.835938 49.894531 38.863281 C 49.796875 38.894531 49.730469 38.785156 49.671875 38.5625 C 49.359375 37.378906 49.164062 36.96875 48.679688 36.519531 C 48.464844 36.316406 48.308594 36.273438 47.617188 36.246094 C 46.945312 36.214844 46.78125 36.234375 46.597656 36.394531 C 46.121094 36.765625 46.160156 37.429688 46.722656 38.855469 C 46.90625 39.316406 47.101562 39.882812 47.160156 40.125 C 47.277344 40.546875 47.269531 40.566406 46.976562 40.828125 C 46.644531 41.121094 46.488281 41.171875 46.441406 40.984375 Z M 92.335938 40.691406 C 92.308594 40.613281 92.347656 40.007812 92.414062 39.34375 C 92.570312 38.003906 92.640625 37.878906 93.253906 37.878906 C 93.445312 37.878906 93.699219 37.847656 93.824219 37.820312 C 94.136719 37.730469 94.097656 37.878906 93.542969 38.882812 C 92.433594 40.886719 92.414062 40.917969 92.335938 40.691406 Z M 78.867188 40.378906 C 78.808594 40.300781 78.769531 40.136719 78.789062 40.019531 C 78.808594 39.851562 78.984375 39.753906 79.644531 39.519531 C 80.101562 39.363281 80.871094 39.128906 81.347656 39 C 82.464844 38.71875 83.339844 38.472656 84.898438 38.023438 C 86.359375 37.605469 87.835938 37.230469 89.324219 36.902344 C 89.59375 36.804688 90.070312 36.648438 90.390625 36.558594 C 91.316406 36.296875 93.175781 35.71875 93.582031 35.570312 C 94.167969 35.355469 94.59375 35.394531 94.777344 35.679688 C 95.003906 36.019531 94.835938 36.175781 94.15625 36.253906 C 93.855469 36.296875 93.339844 36.382812 93.019531 36.460938 L 91.695312 36.753906 C 91.289062 36.84375 90.65625 37.027344 90.285156 37.164062 L 89.324219 37.488281 C 89.167969 37.527344 88.613281 37.703125 88.105469 37.878906 C 87.269531 38.152344 86.550781 38.347656 85.140625 38.660156 C 84.722656 38.746094 83.925781 38.980469 82.367188 39.472656 C 82.183594 39.53125 81.851562 39.609375 81.640625 39.648438 C 81.152344 39.734375 79.527344 40.300781 79.410156 40.429688 C 79.265625 40.566406 79.003906 40.535156 78.867188 40.378906 Z M 78.867188 40.378906 "
  />
  <path
    d="M 48.191406 39.148438 C 48.144531 38.960938 48.007812 38.589844 47.871094 38.328125 C 47.628906 37.839844 47.628906 37.417969 47.878906 37.691406 C 48.105469 37.9375 48.335938 38.738281 48.308594 39.121094 L 48.28125 39.492188 Z M 78.507812 38.289062 C 78.351562 37.839844 77.992188 37.105469 77.90625 37.046875 C 77.71875 36.941406 77.789062 36.726562 78.019531 36.65625 C 78.683594 36.480469 78.992188 36.402344 79.792969 36.214844 L 81.007812 35.921875 C 81.191406 35.875 81.832031 35.746094 82.417969 35.628906 C 84.273438 35.289062 85.761719 34.9375 86.210938 34.742188 C 87 34.398438 88.3125 33.96875 88.5625 33.96875 C 88.828125 33.96875 88.894531 34.007812 88.945312 34.242188 C 88.972656 34.390625 89.070312 34.691406 89.148438 34.917969 C 89.332031 35.414062 89.273438 35.582031 88.914062 35.660156 L 87.914062 35.875 C 87.09375 36.039062 86.707031 36.148438 84.75 36.753906 C 84.003906 36.988281 83.261719 37.195312 83.097656 37.222656 C 82.671875 37.292969 81.5625 37.59375 81.445312 37.671875 C 81.394531 37.710938 80.996094 37.847656 80.570312 37.964844 L 79.546875 38.269531 C 79.410156 38.316406 79.140625 38.386719 78.933594 38.414062 C 78.644531 38.453125 78.554688 38.425781 78.507812 38.289062 Z M 39.710938 35.21875 L 39.828125 29.796875 L 39.894531 26.835938 L 40.246094 26.738281 C 40.441406 26.6875 40.703125 26.640625 40.839844 26.640625 C 40.976562 26.640625 41.226562 26.601562 41.394531 26.550781 C 41.570312 26.503906 42.101562 26.425781 42.589844 26.386719 C 43.5625 26.316406 43.621094 26.355469 43.328125 26.914062 C 43.183594 27.195312 43.085938 27.429688 42.5625 28.839844 C 42.199219 29.804688 42.085938 30.1875 41.859375 31.136719 C 41.78125 31.488281 41.625 32.054688 41.519531 32.40625 L 41.023438 34.117188 C 40.867188 34.703125 40.664062 35.335938 40.585938 35.53125 C 40.292969 36.195312 40.195312 36.472656 40.003906 37.078125 C 39.90625 37.410156 39.777344 37.683594 39.730469 37.683594 C 39.683594 37.683594 39.671875 36.636719 39.710938 35.21875 Z M 55.757812 37.46875 C 55.730469 37.417969 55.710938 36.785156 55.710938 36.070312 C 55.71875 35.347656 55.679688 33.910156 55.613281 32.875 C 55.535156 31.566406 55.535156 30.851562 55.601562 30.5 C 55.660156 30.234375 55.777344 29.503906 55.867188 28.886719 C 55.953125 28.273438 56.109375 27.429688 56.207031 27.03125 L 56.496094 25.742188 C 56.566406 25.429688 56.691406 25.113281 56.78125 25.035156 C 57.089844 24.773438 59.433594 24.371094 59.550781 24.578125 C 59.589844 24.636719 59.570312 25.507812 59.511719 26.523438 C 59.386719 28.566406 59.445312 29.0625 59.824219 29.25 C 60.339844 29.503906 60.796875 29.601562 61.894531 29.71875 C 62.539062 29.785156 63.460938 29.921875 63.9375 30.011719 C 64.425781 30.097656 65.066406 30.195312 65.378906 30.226562 L 65.933594 30.273438 L 65.933594 30.871094 C 65.933594 31.195312 65.875 31.820312 65.796875 32.25 C 65.679688 32.875 65.550781 34.789062 65.542969 36.050781 C 65.542969 36.273438 65.425781 36.265625 65 35.972656 C 64.550781 35.667969 64.296875 35.667969 63.34375 35.972656 C 62.355469 36.339844 61.332031 36.601562 60.289062 36.753906 C 59.941406 36.824219 59.203125 36.960938 58.636719 37.046875 C 58.074219 37.136719 57.207031 37.292969 56.710938 37.390625 C 56.167969 37.488281 55.789062 37.527344 55.757812 37.46875 Z M 67.34375 37 C 67.234375 36.824219 67.363281 36.472656 67.742188 35.914062 C 67.933594 35.621094 68.304688 34.996094 68.566406 34.507812 C 68.820312 34.027344 69.0625 33.628906 69.101562 33.628906 C 69.140625 33.628906 69.230469 33.890625 69.308594 34.214844 L 69.578125 35.484375 C 69.8125 36.519531 69.851562 36.871094 69.765625 36.929688 C 69.714844 36.949219 69.171875 37.007812 68.546875 37.046875 C 67.730469 37.097656 67.390625 37.085938 67.34375 37 Z M 70.941406 36.511719 C 70.851562 36.375 70.8125 36.136719 70.648438 34.847656 C 70.472656 33.570312 70.472656 33.570312 71.234375 33.371094 C 71.445312 33.3125 72.234375 32.972656 72.984375 32.601562 L 74.976562 31.664062 C 75.53125 31.429688 75.84375 31.214844 76.5625 30.597656 C 76.746094 30.429688 76.777344 29.835938 76.640625 28.664062 C 76.601562 28.300781 76.601562 27.960938 76.628906 27.910156 C 76.738281 27.742188 78.097656 27.683594 78.847656 27.8125 L 79.546875 27.929688 L 79.695312 28.417969 C 79.773438 28.683594 79.859375 29.0625 79.886719 29.257812 L 80.082031 30.304688 C 80.316406 31.449219 80.433594 32.980469 80.347656 33.804688 C 80.269531 34.59375 80.171875 34.75 79.773438 34.75 C 79.65625 34.75 79.34375 34.828125 79.089844 34.9375 C 78.839844 35.035156 78.285156 35.191406 77.867188 35.289062 L 77.105469 35.453125 L 76.71875 35.191406 C 76.347656 34.925781 76.300781 34.917969 75.492188 34.984375 C 75.035156 35.015625 74.597656 35.09375 74.53125 35.152344 C 74.460938 35.199219 74.074219 35.355469 73.664062 35.484375 C 73.253906 35.621094 72.789062 35.835938 72.625 35.972656 C 72.46875 36.109375 72.242188 36.214844 72.128906 36.214844 C 72.011719 36.214844 71.71875 36.304688 71.484375 36.414062 C 71 36.636719 71.019531 36.636719 70.941406 36.511719 Z M 9.929688 33.675781 C 9.21875 32.25 8.460938 30.765625 8.246094 30.363281 C 8.042969 29.960938 7.867188 29.609375 7.867188 29.570312 C 7.867188 29.53125 7.605469 28.996094 7.285156 28.390625 C 6.546875 27 6.03125 25.808594 6.109375 25.683594 C 6.1875 25.554688 7.964844 25.710938 8.988281 25.925781 C 9.414062 26.015625 9.960938 26.179688 10.203125 26.289062 L 10.640625 26.492188 L 10.707031 27.128906 C 10.914062 28.964844 11.078125 31.429688 11.078125 32.582031 C 11.078125 33.292969 11.125 34.183594 11.183594 34.546875 C 11.234375 34.90625 11.273438 35.445312 11.253906 35.738281 L 11.222656 36.265625 Z M 90.664062 34.730469 C 90.605469 34.664062 90.488281 34.300781 90.382812 33.921875 C 90.207031 33.214844 89.820312 32.601562 89.574219 32.601562 C 89.46875 32.601562 89.457031 32.570312 89.535156 32.492188 C 89.613281 32.414062 89.769531 32.425781 90.109375 32.542969 C 90.363281 32.628906 90.695312 32.699219 90.839844 32.699219 C 90.984375 32.699219 91.394531 32.785156 91.753906 32.902344 L 92.414062 33.109375 L 92.355469 33.667969 C 92.269531 34.46875 92.230469 34.535156 91.675781 34.703125 C 91.074219 34.878906 90.792969 34.886719 90.664062 34.730469 Z M 66.867188 34.574219 C 66.808594 34.476562 66.960938 32.054688 67.050781 31.925781 C 67.078125 31.867188 67.109375 31.417969 67.117188 30.941406 L 67.128906 30.050781 L 67.476562 29.902344 C 67.808594 29.757812 68.917969 29.523438 69.804688 29.40625 C 70.355469 29.328125 70.335938 29.453125 69.65625 30.351562 C 68.851562 31.4375 68.429688 32.074219 67.992188 32.894531 C 67.019531 34.722656 66.992188 34.78125 66.867188 34.574219 Z M 81.5625 34.195312 C 81.394531 34.039062 81.503906 32.550781 81.746094 31.59375 C 81.980469 30.699219 82.171875 29.796875 82.328125 28.886719 C 82.398438 28.515625 82.652344 28.007812 82.804688 27.890625 C 82.921875 27.800781 84.703125 27.792969 85.324219 27.871094 C 86.007812 27.96875 86.035156 28.105469 85.78125 29.667969 C 85.492188 31.378906 85.5 31.390625 86.882812 31.917969 C 87.367188 32.113281 87.855469 32.191406 88.621094 32.210938 C 89.226562 32.21875 88.253906 32.804688 87.378906 32.953125 C 86.746094 33.050781 85.734375 33.351562 85.394531 33.53125 C 84.683594 33.890625 81.765625 34.410156 81.5625 34.195312 Z M 93.40625 34.175781 C 93.359375 34.078125 93.4375 33.550781 93.613281 32.914062 C 93.652344 32.765625 95.625 31.820312 95.90625 31.820312 C 96.074219 31.820312 96.09375 31.859375 96.035156 32.082031 C 96.003906 32.230469 95.886719 32.53125 95.78125 32.765625 C 95.683594 32.992188 95.597656 33.332031 95.597656 33.519531 C 95.597656 33.988281 95.382812 34.164062 94.828125 34.164062 C 94.566406 34.164062 94.167969 34.195312 93.921875 34.222656 C 93.632812 34.261719 93.457031 34.242188 93.40625 34.175781 Z M 93.40625 34.175781 "
  />
  <path
    d="M 80.878906 29.015625 L 80.765625 28.457031 C 80.589844 27.429688 79.9375 26.699219 79.082031 26.589844 C 78.488281 26.511719 78.1875 26.386719 78.1875 26.210938 C 78.1875 25.957031 78.363281 25.945312 79.082031 26.171875 C 79.722656 26.375 79.976562 26.394531 81.785156 26.394531 C 83.867188 26.394531 84.050781 26.367188 84.671875 25.90625 C 84.867188 25.75 84.878906 25.761719 84.878906 26.09375 C 84.878906 26.582031 84.730469 26.660156 83.914062 26.609375 C 83.371094 26.570312 83.097656 26.601562 82.710938 26.746094 C 82.117188 26.972656 81.882812 27.265625 81.355469 28.429688 C 81.164062 28.839844 80.988281 29.179688 80.96875 29.179688 C 80.9375 29.179688 80.898438 29.101562 80.878906 29.015625 Z M 62.964844 28.527344 C 62.265625 28.351562 62.160156 27.714844 61.835938 21.949219 C 61.769531 20.765625 61.75 18.996094 61.789062 17.621094 L 61.847656 15.292969 L 61.566406 15.03125 C 61.148438 14.640625 61.109375 14.0625 61.4375 13.417969 C 61.691406 12.929688 61.699219 12.832031 61.730469 11.121094 L 61.769531 9.324219 L 61.261719 8.316406 C 60.980469 7.757812 60.785156 7.261719 60.816406 7.203125 C 60.855469 7.144531 61.15625 7.09375 61.496094 7.09375 C 62.0625 7.09375 62.121094 7.113281 62.449219 7.464844 C 62.90625 7.925781 63.433594 9.089844 63.597656 9.996094 C 63.664062 10.378906 63.722656 11.394531 63.722656 12.246094 C 63.722656 13.816406 63.539062 28.527344 63.511719 28.574219 C 63.492188 28.605469 63.1875 28.585938 62.964844 28.527344 Z M 54.640625 26.328125 L 54.300781 25.195312 C 54.054688 24.429688 54.074219 24.390625 54.796875 24.390625 C 55.234375 24.390625 55.429688 24.429688 55.429688 24.519531 C 55.429688 24.578125 55.359375 25.007812 55.273438 25.46875 C 55.183594 25.925781 55.085938 26.445312 55.066406 26.621094 C 54.980469 27.15625 54.863281 27.070312 54.640625 26.328125 Z M 80.035156 25.371094 C 79.304688 25.28125 79.003906 25.09375 78.3125 24.363281 C 77.640625 23.640625 77.632812 23.621094 77.503906 21.507812 C 77.457031 20.757812 77.371094 19.769531 77.300781 19.320312 C 77.203125 18.578125 77.214844 18.421875 77.410156 17.5625 C 77.523438 17.042969 77.660156 16.496094 77.710938 16.339844 C 77.757812 16.183594 77.796875 15.917969 77.796875 15.742188 C 77.796875 15.578125 77.855469 15.351562 77.933594 15.253906 C 78.050781 15.089844 78.109375 15.078125 78.457031 15.1875 C 78.925781 15.332031 82.476562 15.5 83.585938 15.429688 L 84.363281 15.382812 L 84.527344 15.851562 C 84.691406 16.339844 84.9375 17.589844 85.042969 18.480469 C 85.074219 18.761719 85.199219 19.105469 85.335938 19.320312 C 85.472656 19.515625 85.558594 19.730469 85.539062 19.808594 C 85.472656 19.984375 85.394531 21.441406 85.394531 22.535156 C 85.382812 23.25 85.355469 23.40625 85.160156 23.628906 L 84.332031 24.675781 L 83.710938 25.46875 L 82.144531 25.457031 C 81.28125 25.449219 80.328125 25.410156 80.035156 25.371094 Z M 82.386719 22.46875 C 82.632812 22.242188 82.601562 21.976562 82.308594 21.78125 C 82.105469 21.644531 81.988281 21.636719 81.6875 21.722656 C 81.472656 21.773438 81.269531 21.792969 81.210938 21.761719 C 81.152344 21.722656 81.113281 21.195312 81.132812 20.386719 C 81.152344 19.171875 81.132812 19.027344 80.917969 18.558594 C 80.648438 17.972656 80.667969 17.980469 79.1875 17.882812 C 78.207031 17.824219 78.1875 17.824219 77.847656 18.089844 C 77.601562 18.273438 77.503906 18.410156 77.523438 18.558594 C 77.554688 18.761719 77.59375 18.773438 78.625 18.742188 C 80.140625 18.703125 80.472656 18.929688 80.316406 19.898438 C 80.277344 20.171875 80.210938 20.796875 80.171875 21.304688 C 80.113281 22.152344 80.121094 22.230469 80.316406 22.429688 C 80.492188 22.605469 80.636719 22.632812 81.367188 22.632812 C 82.007812 22.632812 82.253906 22.59375 82.386719 22.46875 Z M 26.492188 23.589844 L 26.203125 22.535156 L 25.917969 21.597656 C 25.707031 20.914062 25.714844 20.875 26.066406 20.875 C 26.308594 20.875 27.214844 21.050781 27.300781 21.117188 C 27.339844 21.15625 27.019531 22.9375 26.921875 23.191406 C 26.871094 23.316406 26.832031 23.601562 26.832031 23.816406 C 26.832031 24.371094 26.699219 24.285156 26.492188 23.589844 Z M 57.238281 23.425781 C 57.207031 23.375 57.277344 23.269531 57.402344 23.191406 L 57.898438 22.789062 C 58.277344 22.449219 58.363281 22.46875 58.328125 22.898438 C 58.296875 23.269531 58.316406 23.257812 57.546875 23.445312 C 57.402344 23.484375 57.265625 23.472656 57.238281 23.425781 Z M 53.347656 22.964844 C 52.558594 22.546875 51.246094 21.449219 50.75 20.796875 C 50.242188 20.152344 50.167969 19.9375 49.921875 18.566406 L 49.640625 17.0625 C 49.234375 14.992188 49.214844 14.804688 49.308594 14.296875 C 49.367188 14.015625 49.496094 13.230469 49.59375 12.546875 C 49.785156 11.238281 49.894531 10.90625 50.128906 10.90625 L 51.003906 11.011719 C 51.644531 11.109375 51.761719 11.101562 51.984375 10.953125 C 52.160156 10.847656 52.335938 10.808594 52.589844 10.855469 C 52.929688 10.90625 52.988281 10.875 53.570312 10.320312 C 53.921875 9.996094 54.242188 9.734375 54.300781 9.734375 C 54.359375 9.734375 54.5625 10.015625 54.746094 10.347656 C 55.273438 11.277344 56.011719 11.953125 57.101562 12.5 C 57.617188 12.753906 58.101562 12.957031 58.191406 12.957031 C 58.402344 12.957031 58.511719 13.210938 58.578125 13.953125 C 58.617188 14.308594 58.792969 14.992188 58.96875 15.46875 C 59.269531 16.269531 59.289062 16.378906 59.210938 16.957031 C 59.164062 17.296875 59.035156 17.933594 58.917969 18.371094 L 58.636719 19.503906 C 58.539062 20.355469 58.113281 21.136719 57.449219 21.675781 C 57.023438 22.085938 56.371094 22.605469 56.011719 22.820312 C 55.390625 23.199219 55.300781 23.21875 54.582031 23.21875 C 53.949219 23.21875 53.746094 23.179688 53.347656 22.964844 Z M 55.234375 19.261719 C 55.699219 18.832031 55.378906 18.566406 54.261719 18.480469 C 53.785156 18.441406 53.367188 18.382812 53.347656 18.34375 C 53.328125 18.3125 53.414062 17.953125 53.5625 17.550781 C 53.84375 16.710938 53.902344 15.527344 53.695312 14.824219 C 53.523438 14.238281 52.792969 13.476562 52.277344 13.339844 C 51.382812 13.09375 49.765625 13.554688 49.632812 14.082031 C 49.523438 14.503906 49.699219 14.550781 50.320312 14.269531 C 51.390625 13.769531 52.296875 13.875 52.703125 14.542969 C 52.996094 15.019531 52.9375 16.582031 52.570312 17.785156 C 52.277344 18.742188 52.316406 19.074219 52.734375 19.289062 C 53.238281 19.554688 54.941406 19.523438 55.234375 19.261719 Z M 76.164062 21.734375 C 75.988281 21.558594 76 19.074219 76.183594 18.929688 C 76.425781 18.722656 76.515625 19.046875 76.542969 20.335938 C 76.582031 21.773438 76.503906 22.074219 76.164062 21.734375 Z M 86.484375 21.636719 C 86.425781 21.558594 86.414062 21.117188 86.464844 20.511719 C 86.550781 19.203125 86.628906 18.898438 86.824219 18.9375 C 87.085938 18.988281 87.171875 19.632812 87.054688 20.609375 C 86.929688 21.625 86.734375 21.96875 86.484375 21.636719 Z M 23.117188 19.925781 C 22.757812 19.886719 22.75 19.867188 22.75 19.503906 L 22.75 19.132812 L 23.234375 19.398438 C 23.535156 19.554688 23.722656 19.722656 23.722656 19.828125 C 23.722656 19.917969 23.664062 19.984375 23.605469 19.976562 Z M 26.738281 19.652344 C 26.386719 19.585938 25.917969 19.523438 25.695312 19.515625 C 25.101562 19.503906 24.832031 19.367188 24.316406 18.832031 C 24.0625 18.566406 23.683594 18.265625 23.46875 18.15625 C 23.265625 18.050781 22.886719 17.785156 22.632812 17.582031 L 21.835938 16.9375 C 21.40625 16.601562 21.328125 16.320312 21.191406 14.570312 C 21.132812 13.816406 21.046875 12.917969 21 12.566406 C 20.863281 11.648438 20.882812 10.867188 21.046875 10.542969 C 21.125 10.398438 21.25 9.742188 21.339844 9.097656 L 21.582031 7.289062 C 21.628906 6.9375 21.648438 6.441406 21.621094 6.167969 C 21.589844 5.6875 21.601562 5.667969 22.027344 5.285156 C 22.46875 4.914062 22.496094 4.90625 23.109375 4.925781 C 23.457031 4.945312 24.148438 5.023438 24.636719 5.101562 C 25.121094 5.1875 26.308594 5.285156 27.269531 5.335938 C 29.390625 5.433594 29.617188 5.5 30.09375 6.265625 C 30.277344 6.558594 30.433594 6.820312 30.433594 6.859375 C 30.433594 6.898438 30.492188 7.007812 30.558594 7.085938 C 30.636719 7.171875 30.792969 7.484375 30.917969 7.777344 C 31.035156 8.070312 31.375 8.796875 31.65625 9.371094 L 32.171875 10.4375 L 32.085938 11.148438 C 32.039062 11.542969 31.96875 12.792969 31.929688 13.945312 C 31.890625 15.097656 31.824219 16.132812 31.785156 16.25 C 31.734375 16.367188 31.511719 16.582031 31.289062 16.730469 C 31.054688 16.878906 30.589844 17.269531 30.238281 17.589844 C 29.886719 17.921875 29.324219 18.429688 28.972656 18.722656 C 28.625 19.015625 28.242188 19.378906 28.117188 19.535156 C 27.863281 19.828125 27.730469 19.839844 26.738281 19.652344 Z M 27.796875 14.933594 C 27.933594 14.835938 28.058594 14.640625 28.078125 14.503906 C 28.128906 14.074219 27.894531 13.984375 26.648438 13.984375 L 25.519531 13.984375 L 25.539062 13.542969 C 25.550781 13.300781 25.636719 12.664062 25.753906 12.128906 C 25.957031 11.101562 26.015625 9.605469 25.871094 9.226562 L 25.714844 8.726562 C 25.648438 8.394531 25.25 8.128906 24.390625 7.875 C 23.613281 7.640625 23.402344 7.632812 22.828125 7.828125 C 22.28125 8.011719 22.078125 8.363281 22.300781 8.707031 C 22.429688 8.894531 22.554688 8.933594 23.207031 8.972656 C 23.625 8.992188 24.050781 9.058594 24.160156 9.117188 C 24.265625 9.175781 24.488281 9.265625 24.644531 9.3125 L 24.9375 9.402344 L 24.925781 10.171875 C 24.917969 10.925781 24.703125 12.167969 24.5 12.714844 C 24.449219 12.851562 24.402344 13.320312 24.402344 13.75 C 24.402344 14.464844 24.421875 14.550781 24.65625 14.765625 C 24.996094 15.089844 25.6875 15.207031 26.824219 15.15625 C 27.347656 15.128906 27.621094 15.070312 27.796875 14.933594 Z M 30.453125 19.445312 C 30.460938 19.359375 30.539062 19.261719 30.609375 19.230469 C 30.695312 19.203125 30.734375 19.25 30.703125 19.367188 C 30.695312 19.457031 30.617188 19.554688 30.550781 19.585938 C 30.460938 19.613281 30.421875 19.566406 30.453125 19.445312 Z M 60.058594 18.636719 C 60.027344 18.597656 60.039062 18.429688 60.085938 18.273438 C 60.125 18.117188 60.195312 17.648438 60.234375 17.238281 C 60.28125 16.78125 60.359375 16.4375 60.445312 16.367188 C 60.671875 16.183594 60.710938 16.328125 60.601562 16.9375 C 60.542969 17.25 60.484375 17.699219 60.476562 17.941406 C 60.445312 18.566406 60.234375 18.917969 60.058594 18.636719 Z M 48.28125 18.011719 C 48.125 17.628906 48.074219 16.523438 48.222656 16.613281 C 48.269531 16.640625 48.335938 16.925781 48.375 17.230469 C 48.414062 17.542969 48.484375 17.875 48.542969 17.980469 C 48.609375 18.097656 48.601562 18.195312 48.53125 18.265625 C 48.464844 18.332031 48.386719 18.265625 48.28125 18.011719 Z M 48.28125 18.011719 "
  />
  <path
    d="M 76.203125 16.164062 C 76.171875 15.175781 76.164062 14.289062 76.183594 14.179688 C 76.210938 14.074219 76.230469 13.894531 76.230469 13.777344 C 76.242188 13.640625 76.570312 13.289062 77.195312 12.753906 L 78.253906 11.824219 C 78.4375 11.640625 79.605469 11.601562 81.589844 11.699219 C 84.363281 11.835938 84.390625 11.835938 84.75 12.382812 C 84.90625 12.625 85.199219 13.007812 85.394531 13.230469 C 85.578125 13.445312 85.792969 13.757812 85.871094 13.90625 C 85.949219 14.054688 86.066406 14.257812 86.140625 14.347656 C 86.25 14.472656 86.257812 14.699219 86.160156 15.617188 C 86.101562 16.222656 86.007812 16.898438 85.949219 17.113281 L 85.839844 17.503906 L 85.761719 17.210938 L 85.589844 16.347656 C 85.472656 15.664062 85.128906 14.960938 84.808594 14.707031 C 84.597656 14.53125 84.449219 14.523438 82.671875 14.582031 C 80.996094 14.640625 80.589844 14.621094 79.285156 14.425781 C 78.46875 14.308594 77.730469 14.238281 77.652344 14.269531 C 77.449219 14.347656 77.046875 15.234375 76.921875 15.890625 L 76.726562 16.820312 C 76.679688 17.035156 76.609375 17.375 76.582031 17.582031 C 76.550781 17.785156 76.464844 17.941406 76.398438 17.941406 C 76.300781 17.941406 76.25 17.53125 76.203125 16.164062 Z M 59.453125 14.179688 C 59.425781 14.101562 59.386719 13.894531 59.375 13.71875 C 59.367188 13.484375 59.414062 13.398438 59.550781 13.367188 C 59.824219 13.308594 59.929688 13.484375 59.863281 13.867188 C 59.792969 14.230469 59.542969 14.425781 59.453125 14.179688 Z M 19.761719 14.0625 C 19.664062 14.035156 19.636719 13.671875 19.636719 12.734375 C 19.636719 11.992188 19.675781 11.492188 19.722656 11.542969 C 19.800781 11.628906 19.976562 14.140625 19.910156 14.121094 Z M 33.203125 13.835938 C 33.105469 13.542969 33.242188 11.199219 33.359375 11.199219 C 33.515625 11.199219 33.574219 11.699219 33.523438 12.703125 C 33.476562 13.757812 33.339844 14.257812 33.203125 13.835938 Z M 48.394531 12.988281 C 48.230469 12.722656 47.917969 11.699219 47.832031 11.148438 C 47.746094 10.582031 47.746094 10.542969 48.125 9.820312 C 48.492188 9.089844 48.503906 9.070312 48.453125 8.246094 L 48.394531 7.425781 L 48.765625 6.871094 C 48.96875 6.566406 49.183594 6.3125 49.242188 6.3125 C 49.308594 6.3125 49.359375 6.753906 49.367188 7.652344 C 49.386719 8.386719 49.445312 9.136719 49.503906 9.324219 C 49.601562 9.625 49.59375 9.675781 49.320312 9.957031 C 49.097656 10.203125 48.980469 10.464844 48.824219 11.128906 C 48.707031 11.609375 48.621094 12.136719 48.609375 12.304688 C 48.601562 12.761719 48.484375 13.125 48.394531 12.988281 Z M 59.589844 12.566406 C 58.890625 12.351562 57.859375 11.414062 57.128906 10.308594 C 56.625 9.558594 56.457031 9.402344 56.253906 9.480469 C 56.03125 9.566406 55.972656 9.8125 56.109375 10.085938 C 56.1875 10.210938 56.207031 10.347656 56.175781 10.378906 C 56.136719 10.417969 56.078125 10.359375 56.039062 10.261719 C 56 10.164062 55.933594 10.035156 55.886719 9.976562 C 55.835938 9.929688 55.679688 9.636719 55.542969 9.34375 C 55.261719 8.757812 54.914062 8.492188 54.542969 8.589844 C 54.25 8.667969 53.210938 9.34375 52.957031 9.625 C 52.851562 9.734375 52.714844 9.832031 52.644531 9.832031 C 52.578125 9.832031 52.355469 9.558594 52.160156 9.226562 C 51.578125 8.226562 51.671875 7.554688 52.578125 6.246094 C 53.191406 5.363281 53.492188 5.207031 54.6875 5.160156 C 55.914062 5.109375 57.1875 5.296875 57.761719 5.601562 C 58.308594 5.894531 59.433594 6.773438 59.6875 7.09375 C 59.785156 7.230469 59.929688 7.496094 60.007812 7.679688 C 60.085938 7.867188 60.289062 8.304688 60.464844 8.648438 C 60.632812 8.992188 60.777344 9.363281 60.777344 9.480469 C 60.777344 9.898438 60.445312 10.347656 59.949219 10.601562 C 59.386719 10.90625 59.25 11.230469 59.628906 11.40625 C 59.804688 11.484375 59.960938 11.472656 60.261719 11.367188 C 60.652344 11.238281 60.671875 11.238281 60.71875 11.433594 C 60.796875 11.746094 60.671875 12.410156 60.503906 12.546875 C 60.328125 12.675781 59.988281 12.683594 59.589844 12.566406 Z M 50.738281 9.832031 C 50.652344 9.773438 50.4375 9.480469 50.253906 9.167969 C 49.816406 8.394531 49.824219 7.816406 50.28125 6.761719 C 50.757812 5.667969 51.390625 5.082031 51.886719 5.277344 C 52.015625 5.324219 51.976562 5.414062 51.644531 5.777344 C 51.03125 6.441406 50.75 7.183594 50.75 8.082031 C 50.738281 8.648438 50.789062 8.933594 50.945312 9.226562 C 51.265625 9.851562 51.175781 10.085938 50.738281 9.832031 Z M 19.683594 8.492188 C 19.65625 8.179688 19.589844 7.730469 19.539062 7.484375 C 19.492188 7.242188 19.421875 6.695312 19.382812 6.265625 C 19.34375 5.835938 19.277344 5.375 19.226562 5.238281 C 19.121094 4.945312 18.964844 2.863281 19.035156 2.53125 C 19.082031 2.285156 19.265625 2.179688 20.269531 1.816406 C 20.8125 1.621094 20.851562 1.621094 20.96875 1.777344 C 21.039062 1.875 21.09375 2.003906 21.09375 2.0625 C 21.09375 2.414062 21.902344 2.746094 22.222656 2.519531 C 22.378906 2.414062 22.691406 1.835938 23.050781 0.96875 L 23.382812 0.175781 L 23.933594 0.0585938 C 24.316406 -0.0117188 24.675781 -0.0195312 25.101562 0.0507812 C 25.433594 0.0976562 26.347656 0.175781 27.125 0.214844 C 28.457031 0.273438 28.574219 0.304688 29.167969 0.597656 C 29.800781 0.917969 30.820312 1.25 31.550781 1.378906 C 31.765625 1.417969 31.988281 1.476562 32.039062 1.515625 C 32.09375 1.554688 32.339844 1.660156 32.601562 1.757812 C 32.855469 1.855469 33.28125 2.082031 33.542969 2.265625 C 33.808594 2.453125 34.058594 2.597656 34.097656 2.597656 C 34.148438 2.597656 34.371094 2.773438 34.613281 2.992188 L 35.050781 3.382812 L 33.855469 3.351562 L 32.648438 3.332031 L 32.417969 3.605469 C 31.988281 4.113281 32.066406 4.25 33.398438 5.335938 L 34.265625 6.070312 L 34.46875 6.265625 L 34 6.3125 C 33.398438 6.390625 33.253906 6.558594 32.914062 7.613281 C 32.757812 8.082031 32.589844 8.453125 32.542969 8.433594 C 32.496094 8.425781 32.28125 7.992188 32.066406 7.484375 C 31.839844 6.910156 31.550781 6.359375 31.210938 5.84375 C 31.210938 5.796875 31.121094 5.648438 31.015625 5.519531 C 30.558594 4.992188 29.390625 3.714844 29.070312 3.402344 C 28.195312 2.558594 25.472656 1.777344 25.082031 2.265625 C 24.976562 2.382812 24.984375 2.441406 25.140625 2.609375 C 25.308594 2.773438 25.648438 2.894531 26.699219 3.175781 C 27.242188 3.324219 28.292969 3.890625 28.730469 4.28125 C 29.167969 4.671875 29.304688 4.914062 29.011719 4.808594 C 28.933594 4.777344 28.574219 4.710938 28.214844 4.652344 C 27.328125 4.523438 25.734375 4.171875 24.597656 3.871094 C 24.355469 3.800781 23.722656 3.734375 23.175781 3.703125 L 22.203125 3.65625 L 21.746094 4.183594 L 21.054688 4.964844 C 20.929688 5.109375 20.792969 5.375 20.753906 5.550781 C 20.714844 5.726562 20.648438 5.921875 20.597656 5.980469 C 20.550781 6.039062 20.492188 6.304688 20.464844 6.566406 C 20.414062 6.996094 20.316406 7.691406 20.171875 8.6875 C 20.132812 8.960938 20.066406 9.050781 19.929688 9.050781 C 19.78125 9.050781 19.734375 8.953125 19.683594 8.492188 Z M 19.683594 8.492188 "
  />
</svg>
