<svg xmlns="http://www.w3.org/2000/svg" id="root" viewBox="136 175 11829 6654">
  <path
    d="M1133 6822c-211-1-383-5-383-8 0-4 9-23 19-43 32-59 65-135 122-278 11-30 30-29 82 4 63 41 81 52 97 58 65 27 303 160 350 195 44 33 102 60 129 60 28 0 89-32 123-64 24-23 89-106 164-208 12-16 40-48 62-71s61-67 87-97l109-124 106-124c53-65 63-70 77-40l36 73c15 28 39 78 55 111 16 34 35 64 41 68s11 16 11 26 4 20 8 22c10 4 95 151 114 198 29 67 38 85 83 155 24 39 45 75 45 80 0 6-77 10-210 10-190 0-210-1-210-17s-6-30-44-106c-9-19-16-39-16-45s-12-28-26-49c-23-32-32-38-63-38-43 0-63 22-120 130l-47 91c-13 24-22 27-90 34-42 4-133 5-202 3l-509-6zm3035 1c-247-3-298-6-298-17 0-8 4-16 9-18 21-7 194-251 246-346 26-47 43-50 97-16 24 15 81 47 128 71l100 53c99 62 231 133 255 137 38 6 98-36 140-98 40-59 240-260 340-341 44-36 101-88 126-114 51-53 188-180 219-201 22-16 26-11 34 47 4 25 13 61 20 80 14 36 33 107 47 175 26 125 32 152 41 170 5 11 16 50 24 85 26 115 31 134 49 194 9 32 25 66 35 76 25 25 75 29 415 35 192 3 301 8 303 15 3 7-81 10-250 10-139 0-380 1-536 3l-282 2v-75c0-70-15-158-43-255-9-28-19-42-39-49-32-11-88 9-88 32 0 16-163 307-185 331-15 15-367 21-907 14zm-998-23c30-11 67-20 81-20s40-5 58-11c34-12 53-4 72 33 9 17 3 18-128 17h-138l55-19zm3467 13c-18-17-4-40 36-58 23-11 48-31 54-45 15-31 16-131 2-185-6-22-14-63-19-92-4-28-11-56-14-62-3-5-13-42-21-83-28-132-31-143-57-188-14-25-28-68-31-95-3-28-12-63-21-80-14-26-22-85-12-85 5 0 136 134 239 245 158 169 177 190 177 197 0 14 62 40 84 34 26-6 119-76 206-155 64-58 144-122 216-171 45-31 69-54 113-108 58-71 64-61 57 86-3 70-6 221-6 337 0 235 3 247 67 264 67 19 220 12 473-20l215-24c243-26 368-43 425-60 103-30 240-65 254-65 8 0 16 14 19 33 12 77 41 193 71 282 22 64 29 98 22 101-6 2-348 3-761 2-744-3-750-3-750-23 0-11-8-38-17-60-37-88-88-226-88-239 0-20-44-46-77-46-38 0-80 29-151 103-9 9-20 17-25 17-8 0-56 43-196 178l-75 72h-201c-111 0-205-3-208-7zm-3827-47c0-8-4-16-9-18-5-1-40-64-78-138-39-74-79-151-91-170s-26-44-31-55c-5-12-32-60-61-108-28-48-65-120-82-160-17-39-48-97-69-129-40-59-45-76-30-106l35-74c24-50 31-58 55-58 15 0 32-5 39-12 8-8 37-8 116 1 58 7 109 10 115 7 5-3 47-10 94-15 61-6 94-14 115-30 29-20 72-89 72-115 0-27 67-141 85-145 19-3 94 17 109 30 5 4-5 30-23 58a413 413 0 0 0-45 94c-28 67-56 143-56 153 0 7-7 17-15 24-28 23-17 79 36 189l64 136a4817 4817 0 0 0 152 295l55 86c60 91 61 97 18 100-54 4-215 45-330 85a907 907 0 0 0-174 69c-43 23-66 26-66 6z"
  />
  <path
    d="M1510 6628c-75-46-115-73-123-85-4-7-14-13-21-13-8 0-18-6-24-13s-45-30-86-51c-42-20-78-42-81-47-4-5-13-9-20-9-8 0-43-17-77-38-35-21-94-53-132-70-73-34-166-91-166-102 0-20 17-15 63 17 50 35 51 35 126 29 41-4 81-12 88-17 21-18 126-38 165-32 28 4 47 0 73-16 20-11 52-21 71-21 53 0 89-24 113-74 24-52 28-118 7-135-22-18-27-62-7-67 21-7 80-34 166-77 208-105 203-103 352-113 91-5 117-4 135 8 13 8 45 18 71 22 56 9 65 23 44 69-8 17-20 48-26 67-11 33-99 153-145 195-11 11-48 51-81 90-33 38-77 86-97 107-21 21-38 41-38 44s-30 38-66 78c-37 39-93 106-126 149a504 504 0 0 1-118 127c-3 0-21-10-40-22zm4409 4c-28-3-29-5-63-132-54-197-86-333-86-362 0-13-5-29-10-34-6-6-15-33-20-60-17-92-37-179-54-236-13-45-15-62-6-79 10-18 17-20 58-14 26 3 70 12 97 19 28 8 107 17 177 20s139 11 153 16c15 6 52 10 84 10 117 0 116-1 141 109 13 53 35 121 48 151 29 64 50 127 62 190l19 88c28 108 33 132 43 210 13 99 15 97-81 106-65 7-510 5-562-2zm-1289-153-130-71c-74-39-111-60-267-147-111-62-106-53-70-126 29-58 35-64 63-65 33 0 64 25 64 52 0 20 63 76 94 84a1076 1076 0 0 0 468-85c36-17 77-31 90-31s29-5 34-10c12-12 191-52 211-48 7 2-26 37-74 78a2540 2540 0 0 0-312 298c-52 56-99 102-105 101-6 0-36-14-66-30zm3164-73c-9-25 4-570 15-611 17-63 23-166 10-181-20-24 17-28 69-8 34 14 77 19 157 20l123 2c15 2 16 32 2 32-15 0-67 38-112 82-32 31-38 43-38 79 0 33 8 51 36 88 48 61 185 191 200 191 7 0 14 4 16 8 2 5 23 23 48 40 25 18 61 46 80 62 27 22 58 35 119 48 83 18 85 18 157-3 41-12 77-24 80-28 4-4 15-7 24-7s34-18 55-40 44-40 50-40c7 0 20-9 30-20s26-20 37-20c10 0 44-9 76-20 60-21 121-28 139-17 17 10 43 73 43 101 0 20-7 29-27 38-34 13-137 44-217 64-32 8-86 23-120 35-71 23-162 37-531 79l-220 25c-156 19-294 20-301 1zm2841-239-75-47c-30-20-77-47-105-60-27-12-57-29-65-36-8-6-55-33-105-59-118-63-173-97-179-113-3-7-1-35 4-63 13-68 2-152-24-187a665 665 0 0 0-170-170c-69-46-71-47-150-47-87 0-119 13-195 78l-33 28-32-32c-17-17-47-43-66-57-19-15-42-33-51-42-93-87-129-126-129-143 0-10 13-38 29-62 40-59 71-147 71-201 0-42 2-46 35-60a740 740 0 0 0 202-84c35-21 55-18 88 13 11 10 44 34 72 53 29 19 67 53 85 76 33 41 169 148 188 148 5 0 10 5 10 10 0 6 8 14 18 18 9 4 52 30 94 57 71 46 96 75 65 75-12 0-286-156-297-169a949 949 0 0 0-266-141c-23 0-25 3-22 33 3 27 13 39 70 77 36 25 75 53 86 63 10 9 23 17 28 17s32 17 59 38c81 59 139 98 158 105 26 10 151 93 166 111 7 9 18 16 24 16 21 0 105 46 162 90a1453 1453 0 0 0 165 110c6 7 108 70 114 70 11 0 165 92 175 104 7 8 34 25 59 37 52 25 91 50 138 90l32 26-37 12c-20 6-54 25-76 41-22 17-73 51-114 77-41 27-91 63-111 81-39 34-62 38-95 19zm70-107c21-40 19-72-6-104-26-33-62-34-94-2-20 20-24 31-18 58 10 55 31 78 69 78 27 0 36-6 49-30zm-165-109c25-47 3-150-36-176-33-21-70-8-84 30-12 31-2 112 16 143 19 30 88 32 104 3zm-216-112c36-28 36-89 0-136-29-39-58-42-91-11-27 26-31 83-8 128s58 52 99 19zm-3415 163c-74-75-139-143-144-151-7-12 14-13 139-8 81 4 166 11 189 17 23 5 90 12 150 16 71 4 107 10 107 17s-22 26-48 44-65 48-86 68c-41 37-164 135-168 135l-139-138z"
  />
  <path
    d="M8520 6098c-105-53-358-267-344-290 3-4 28-23 56-42 49-32 54-34 80-20 15 8 43 28 62 44 18 17 37 30 41 30 10 0 123 89 132 104 4 7 16 16 26 19 27 10 166 110 166 120 1 13-79 45-129 52-36 5-54 2-90-17zm-7671-36c-71-94-129-222-129-284 0-40-31-165-87-346-22-74-23-85-10-105a632 632 0 0 1 374-137h72l6 38c4 20 11 48 17 62 10 24 16 53 38 190 6 36 16 85 22 110l16 79c4 31 57 118 122 201 15 19 38 54 50 77s28 47 36 54c22 18 17 39-11 39-18 0-32-11-50-40-14-22-25-42-25-45 0-6-52-70-174-212-32-37-71-44-81-14-8 27 8 60 55 111 23 25 46 54 51 65 11 23 27 49 53 88 27 40 11 46-27 9-18-18-38-32-43-32-15 0-66-53-100-102-16-24-32-44-36-46-5-2-8-9-8-15 0-7-16-27-34-45-45-45-80-42-84 7-2 19 1 37 6 40s36 44 69 91 77 101 96 120c37 35 39 50 7 50-22 0-98-84-148-163-20-32-52-75-70-95-31-34-35-35-47-19-29 40 35 208 108 285 19 20 25 32 16 32-7-1-30-22-50-48zm3581 0c-22-8-44-39-97-142-26-51-26-234 1-274 17-28 20-28 80-22a950 950 0 0 1 156 30c25 5 25 7 25 100 0 73 4 98 16 112 9 11 20 29 23 40 4 12 29 43 56 68 28 26 50 51 50 56 0 6-17 10-37 10-21 0-56 5-78 10-52 11-176 19-195 12zm5545-15c-16-12-43-35-60-51-16-15-43-35-60-44-37-19-88-54-97-67-14-19-8-33 20-43 15-6 65-47 111-91 46-45 88-81 93-81 19 0 6 75-22 127-27 50-30 59-20 89 13 38 74 95 138 126 37 19 41 24 28 36-25 25-97 25-131-1zm-1180-115c-62-42-109-79-151-119-7-7-17-13-21-13-5 0-22-14-39-31-27-28-50-46-184-140-25-17-69-51-99-75-43-35-61-44-92-44-23 0-39-5-39-11 0-18 39-127 68-189 13-30 29-73 34-95 13-58 51-101 116-133 31-15 107-55 167-87 95-50 117-58 160-57 28 1 79-5 115-13 64-14 134-28 217-44 23-4 48-12 55-18 19-15 75-26 82-15 8 13-102 114-154 142-45 24-101 60-110 71-3 3-21 9-41 13-44 8-82 46-77 77 4 33 51 56 166 85 121 29 134 36 197 97a1653 1653 0 0 0 265 192c47 30 53 63 17 99-29 29-72 25-89-7-24-45-89-103-135-120-26-10-69-28-94-41-32-16-51-21-68-14-36 13-22 47 39 97 30 24 66 60 78 79 26 37 90 98 128 122 28 17 33 64 10 95-13 18-16 18-57-19l-61-55a918 918 0 0 0-172-146c-27-16-67-46-90-67-51-49-89-50-94-3-2 21 4 37 20 52l60 56c20 19 43 48 52 64 8 17 49 62 92 100 42 39 73 76 70 82-4 5-23 13-42 17-31 6-39 2-72-30-36-35-63-55-230-172-72-50-86-56-109-48-15 5-28 14-30 19-3 10 29 49 108 132 21 22 39 44 39 48s23 27 50 52c87 78 53 88-55 15zm-8535-7c-49-16-74-49-107-142-24-69-23-263 2-363 28-113 46-126 137-96l103 31c86 24 88 26 108 91l33 104c8 25 14 58 14 73 0 16 4 36 9 45 10 18 42 179 44 222 2 23-2 26-53 33a893 893 0 0 1-290 2zm3865-37-105-52c-25-11-47-24-50-27-3-4-16-10-30-14s-28-13-32-19c-10-15-10-184 0-190 7-4 304 13 310 18a383 383 0 0 0-27 192c2 62 1 115-1 118-3 2-32-9-65-26zm705 25c-8-3-29-21-47-40-59-64-83-191-43-228 11-10 20-24 20-31s3-14 8-16c16-7 88-105 109-148 80-165 113-249 113-287 0-14 6-23 15-23 18 0 18 16-1 105a678 678 0 0 0-28 218c5 33 9 37 34 37 22 0 33-8 50-37 35-59 59-137 66-218 5-51 11-75 20-75 21 0 26 52 15 160-20 190-11 240 40 227 42-11 69-90 83-236 9-99 14-126 26-126 21 0 28 51 18 131-4 38-9 121-11 184-2 112-2 115 20 118 16 2 26-4 33-20a437 437 0 0 0 60-217c0-35 3-62 6-59 12 13 5 210-10 275l-23 107c-7 31-15 42-50 61-23 12-57 33-75 47-18 13-58 40-88 58l-55 35-145 2c-80 1-152 0-160-4z"
  />
  <path
    d="M1326 5705c-27-41-36-65-36-97 0-24-5-63-11-88l-24-115c-7-38-18-86-23-106-11-44-8-50 38-71 62-28 124-56 172-76 53-23 194-157 222-211 17-32 19-33 69-28 29 2 83 16 121 30 55 22 86 27 154 27 91 0 82 3 241-90a550 550 0 0 0 148-243c11-23 17-26 33-17 10 5 29 10 42 10s28 4 34 8c5 5 43 19 84 31 41 13 90 29 108 37s40 14 48 14c9 0 30 6 47 14 18 7 55 18 82 23 28 6 86 20 130 32s96 24 115 27 60 12 90 20 66 14 80 14 43 7 65 15 65 14 95 15c30 0 71 4 90 10 19 5 89 13 155 19 154 12 195 25 217 71 37 74 238 218 393 281 30 13 77 23 234 53 46 9 88 19 94 23 5 3 41 5 78 4 41-1 69 2 69 8 0 18-22 64-59 123-36 57-50 66-101 59-65-8-192-31-200-36-5-3-84-10-176-15-91-6-193-14-227-20-34-5-87-10-117-10s-71-5-90-11c-51-15-179-38-305-54-187-24-319-49-407-77-50-15-101 8-146 66a688 688 0 0 0-102 189c0 30-29 46-81 45-55-2-67-9-44-28 14-12 36-54 70-136 20-49 17-133-5-145-50-26-81-35-130-38-30-1-66-8-80-15-58-30-176-63-269-77-36-5-69-13-75-19-5-5-44-10-86-10-64 0-81 4-112 25a711 711 0 0 0-152 215c-4 14-11 34-16 45l-27 79c-16 50-23 61-47 67-16 5-70 28-120 53l-171 81c-44 20-88 40-97 46-32 17-45 10-82-46zm2072-446c25-9 34-19 43-52 21-79-13-228-62-273-26-24-96-22-114 2-20 27-38 100-32 126 28 116 61 182 100 198 29 12 29 12 65-1zm-378-52c34-17 49-67 49-167 0-62-4-96-18-125-35-75-99-114-157-95-27 9-35 19-47 58-25 79-26 92-10 145 31 106 45 137 75 166 34 33 67 39 108 18zm-396-69c37-16 53-47 70-128 24-115-6-209-91-279-46-38-79-39-121-3-27 23-34 38-44 98-18 107 1 196 55 259s84 75 131 53zm2906 579c0-27 13-36 26-16 3 6-1 18-10 27-15 15-16 14-16-11zm1725 12c-49-4-110-12-135-18s-72-11-105-11-91-5-130-11c-76-11-349-36-541-49-67-4-137-13-155-19-19-6-95-15-169-20-74-4-182-18-240-29l-160-29-55-8-2-62-1-63h38c21 0 51 5 67 11 15 6 64 15 108 19 91 10 171 26 230 46 23 8 57 14 76 14 20 0 55 6 80 14 48 15 184 39 324 57l195 24c58 8 123 18 145 24s60 11 85 11 61 4 80 10c35 9 102 20 265 41 105 13 135 23 135 44 0 16 3 16-135 4zm316-61c-18-33-111-98-139-98s-169-25-259-46c-34-8-85-14-115-14-29-1-73-5-98-11-25-5-81-14-126-19s-94-15-110-21l-29-11 59-29c33-15 78-46 100-67 23-22 55-47 71-55 17-8 48-34 70-56 43-45 57-49 104-25 26 13 32 21 29 44-1 15 2 34 8 41 6 8 14 22 17 31 7 18 116 78 143 78 9 0 30 6 47 14 18 8 43 16 57 19 38 7 146 47 216 78 22 11 45 19 52 19 18 0 62 22 62 32 0 4-7 8-17 8-9 0-40 25-70 55s-55 55-57 55l-15-22z"
  />
  <path
    d="M2265 5588c-16-5-43-11-58-14-16-2-33-6-38-9-14-9-11-41 6-55 8-7 15-19 15-26 0-8 18-51 41-96l41-81 66 6c37 3 96 18 132 33 36 14 83 30 105 34 66 14 95 28 95 47-1 20-70 103-87 103-5 0-18 9-27 19-10 11-35 23-57 26-21 4-41 11-45 16-7 12-151 10-189-3zm-280-60 14-53c21-79 90-195 117-195 21 0 18 10-30 107l-61 126c-18 41-52 54-40 15zm5970-63c-22-8-52-15-66-15-15 0-32-7-39-15s-25-15-41-15-43-6-61-14l-88-36-75-30c-45-20-235-80-253-80-32 0-45-25-38-71 8-50 43-129 57-129 5 0 27 9 49 20s47 20 58 20c10 0 22 4 28 9 5 5 41 21 79 36 39 15 104 43 145 63 99 46 136 54 170 37 27-14 40-40 40-81 0-20-106-156-155-198a98 98 0 0 1-25-27c0-3-27-34-61-70-116-122-129-151-76-164 32-8 101 34 257 160 138 111 167 134 186 153 7 6 16 12 21 12 4 0 26 15 48 34 36 30 39 36 28 57-6 13-28 74-48 134-20 61-43 124-50 140-8 17-17 42-20 58-6 31-14 32-70 12zm-1625-57c-19-5-71-15-115-23-163-28-246-44-256-51-6-3-34-9-63-13-50-6-51-7-54-42-2-21 4-64 12-97 9-33 16-74 16-91 0-31 7-63 41-199 11-40 19-84 19-98s5-34 10-44c11-21 38-139 47-205 3-22 9-44 13-48 4-5 50 25 101 67 52 42 126 92 166 111s89 49 110 67c79 70 179 145 216 161 20 10 37 21 37 26 0 4 11 14 25 21 28 15 31 36 10 64-8 11-15 26-15 34 0 9-12 30-26 49-22 29-49 77-146 263-12 25-27 48-33 52-13 10-72 8-115-4z"
  />
  <path
    d="M5614 5281c-43-11-54-19-54-43 0-20-53-78-72-78-5 0-34-11-63-26-33-15-76-26-110-28-33-2-60-8-65-16-4-7-32-15-61-18-41-4-60-11-82-33-26-26-35-29-95-29-37 0-78 6-92 13-32 16-70 91-70 139v39l-92-3c-106-3-102 3-73-103 38-137 53-240 65-440 6-88 14-185 19-215s10-119 10-198c1-81 6-152 12-163s15-68 20-127c12-141 27-281 40-367 6-38 15-126 20-195 17-224 24-276 42-303 9-14 17-36 17-47 0-12 18-52 40-90s40-73 40-77c0-12 104-171 133-201 12-14 45-35 72-48 46-22 63-24 200-24 83 0 155 4 160 8 6 4 29 30 50 57 22 28 45 55 51 60 6 6 19 24 29 40 10 17 31 46 47 65l64 80c35 44 204 226 351 380 39 41 143 153 230 249a4906 4906 0 0 0 311 318c29 28 77 68 107 88s110 91 178 158a3315 3315 0 0 0 390 341c15 14 30 26 32 26 9 0 93 60 106 76 11 14 10 19-11 35-14 10-30 19-36 19-16 0-61 52-74 84-19 52 17 127 109 225 28 30 51 58 51 62 0 13-28 11-58-4l-60-30c-19-9-40-17-48-17s-25-7-39-16c-13-8-38-14-56-12-30 3-37 10-71 73-21 39-38 77-38 86 0 31-31 29-98-7a834 834 0 0 1-182-115c0-5-8-9-19-9-10 0-31-16-45-35-15-19-35-35-44-35-16 0-80-34-92-49-8-10-69-51-76-51-23 0-204-144-204-163 0-6 28-42 63-81 84-94 117-145 117-178 0-21-5-28-20-28-33 0-131 69-225 158-72 69-68 69-125 25-28-21-78-62-112-90-33-29-64-53-68-53s-25-17-46-38c-22-20-61-55-89-77-27-21-109-97-180-167-72-70-138-133-147-140-8-7-36-39-62-71-25-32-56-68-67-80-12-12-33-38-47-57l-33-40c-4-3-34-39-67-80l-86-105-64-74c-95-114-111-128-137-123-30 5-55 37-55 70 0 23 54 116 87 149 10 10 38 43 63 73s57 69 72 85c15 17 46 58 69 90 23 33 48 64 55 70 8 5 24 25 38 43a2627 2627 0 0 0 296 312l149 144c63 61 71 80 51 131-5 14-14 49-20 78a3446 3446 0 0 1-73 342l-26 120-21 110c-5 33-16 87-23 120-14 65-22 71-83 56zM583 5168l-17-38c-3-8-22-42-41-75-20-33-48-85-62-115s-39-71-55-91c-15-20-28-40-28-44 0-13 114-134 122-129 4 3 8 15 8 27s9 36 20 52c11 17 20 36 20 43 0 22 61 139 92 176 21 25 38 36 56 36 56 0 56 1 53-243-2-211-1-225 16-231 22-6 191-1 199 6 3 3 9 64 15 134a1065 1065 0 0 0 35 229c4 28 10 55 15 61s10 32 11 58l3 48-95 4c-52 3-99 9-105 13-5 5-26 12-45 16-53 10-121 36-162 62-46 28-42 28-55 1zm3747-50c-57-25-100-48-120-65l-42-35c-12-10-25-18-30-18-20 0-108-94-108-115 0-47-74-104-119-92-10 2-23 2-28-2-5-3-7-61-5-128 3-101 7-122 21-127 9-3 30-15 46-26l45-27c13-6 152-111 190-145a1222 1222 0 0 1 170-125c0-7 47-33 59-33 10 0 1 804-9 834-6 16-10 49-10 72 0 48-10 53-60 32zm4730-3c0-8 6-15 13-15 8 0 40-18 71-40 32-23 62-40 67-38 4 2-8 27-27 56-34 50-37 52-80 52-32 0-44-4-44-15zm-7710-95c0-17 5-40 10-51 6-10 15-38 20-61 28-133 42-184 50-192 6-6 10-26 10-45 0-20 6-56 14-81s20-70 26-100c18-88 35-154 41-165 4-5 10-35 14-65s12-66 17-80c6-14 14-47 19-75 28-163 47-199 100-188 39 8 63-10 94-69a1350 1350 0 0 0 124-272c22-48 51-141 51-165 0-9 7-29 15-45 8-15 15-39 15-51 0-13 5-36 11-52 14-37 38-160 49-256 5-43 15-90 22-104 13-26 15-26 113-24 55 1 123 8 150 16l105 30c73 20 289 45 387 45 108-1 140-23 204-145 30-57 54-91 66-93 24-3 129 59 189 114 27 24 54 44 59 44 6 0 39 29 73 65l64 64-12 38c-6 21-18 52-26 70-8 17-14 36-14 41 0 6-6 23-14 39-24 47-46 100-46 113 0 6-7 25-16 41-8 17-20 54-25 82a1739 1739 0 0 1-99 349 471 471 0 0 1-38 101c-16 34-39 89-53 122-13 33-39 89-58 125l-87 169c-30 58-67 119-82 135-31 33-72 108-72 131 0 20-15 26-42 16l-98-31-95-30-90-29-124-38c-47-15-56-15-80-2-21 12-27 24-32 69a347 347 0 0 1-180 278c-72 35-134 27-258-32-13-6-59-11-102-11-95 0-117 13-174 106a543 543 0 0 1-171 167c-23 12-24 11-24-18zm6885-57c-22-14-42-29-45-33s-39-31-80-61-85-66-98-81c-12-14-48-43-80-64a895 895 0 0 1-242-220c-28-36-91-93-154-140-59-43-119-90-134-104s-48-41-74-59c-27-19-48-38-48-43s62-70 138-146c77-75 147-149 157-165 14-21 20-25 31-16 8 6 14 23 14 36 0 14 6 39 14 56 19 43 56 166 56 187 0 9 4 20 9 25 5 6 14 26 19 45 14 48 66 185 90 240 26 58 98 131 252 256 19 16 37 31 40 35 15 17 238 193 258 202 33 15 27 34-18 57-50 26-57 25-105-7z"
  />
  <path
    d="M8525 4828c-95-24-153-58-271-163-27-24-71-59-97-76s-47-35-47-40c0-6-38-47-84-92-64-62-91-97-111-142l-34-75c-4-8-18-49-31-90-12-41-42-135-67-208-56-171-64-244-33-300 12-22 34-46 47-53 30-16 143-136 182-193 36-52 44-80 37-120-5-26-14-37-44-49-59-25-99-30-230-29-118 2-122 1-112-17 5-11 10-70 10-131 0-117 25-328 42-345 5-5 44-13 86-17s122-14 177-23c55-8 159-22 230-30 221-26 306-41 316-56 5-8 7-45 4-84-4-51-1-89 13-140l19-69 54-14c39-10 64-11 94-3 22 5 67 13 100 16 33 4 78 12 100 19s92 21 155 30a1377 1377 0 0 1 223 49c47 11 49 12 44 42-8 55-29 150-38 170-4 11-10 39-12 63-4 36-1 48 21 74 24 29 131 88 159 88 7 0 41 13 75 28l118 51 85 36 58 23c28 12 34 31 17 60-20 33-53 141-116 377l-44 145c-54 168-69 229-90 377-5 34-16 76-25 92-8 17-15 41-15 55s-4 28-10 31a2204 2204 0 0 1-180 446c0 8-7 24-15 36s-27 45-41 73c-18 37-35 56-58 65-57 24-286 61-446 73-71 6-105 13-133 30l-40 21-42-11zm-4995-84c-25-7-67-13-95-13-27-1-72-8-99-16s-63-15-80-15c-34 0-143-23-217-46-26-8-56-14-67-14-36 0-34-18 6-72 42-58 105-175 221-418 19-41 38-77 41-80s7-14 8-24c2-11 17-47 33-81s29-69 29-78 6-31 14-49c52-123 96-268 106-353 9-69 48-188 86-257 7-14 14-32 14-39s8-30 18-52l17-39 79 5c104 7 113 17 81 82s-32 115 0 165c14 22 29 40 33 40s18 10 32 23 32 26 40 30l35 20 126 70c99 53 179 115 179 138 0 6-10 29-22 52-42 82-48 95-48 111 0 8-23 62-51 118l-67 138c-10 19-19 37-22 40-7 7-37 62-73 135-16 33-45 83-63 112-19 28-34 55-34 59s-7 15-15 24c-8 8-17 35-20 59-3 23-11 48-17 56-7 7-37 52-67 99-58 94-59 94-141 70zM595 4603c-10-71-14-82-41-100-23-15-27-14-59 3-19 10-38 15-42 10-4-4-9-140-11-301-3-279-3-294 16-312 52-49 189-170 213-188 15-12 76-69 136-127 59-59 146-139 193-178 47-40 146-130 220-200l165-154c17-14 56-52 87-83 31-32 59-55 62-52 3 2 10 63 16 134 6 72 15 162 20 200 15 126 24 519 12 541-6 11-64 47-129 79l-133 66c-90 47-200 99-221 104-20 5-29 1-41-17-21-31-117-128-166-166-49-39-89-42-98-8-9 37 25 90 126 199 30 32 61 69 67 82 14 26 35 256 24 267-4 4-34 3-66-2-33-5-78-10-99-10-59 0-150 29-186 59-30 25-32 31-37 114-3 48-9 87-14 87-4 0-11-21-14-47zm3405-294c0-5 13-33 29-62a3960 3960 0 0 0 245-529c6-20 53-25 84-9 9 5 40 14 67 21 166 42 183 51 150 78-12 9-41 44-65 77-65 89-258 269-303 284-7 2-53 37-104 77-95 76-103 81-103 63z"
  />
  <path
    d="M7150 4035c-9-11-10-25-2-52 12-43 31-101 42-123 4-8 19-54 35-103 15-48 31-90 36-93s9-16 9-29 6-39 14-57l31-78c46-121 51-128 108-139 29-5 90-12 137-15 47-2 105-10 130-16 63-16 156-10 153 10-2 8-40 54-85 101l-163 175a5321 5321 0 0 1-416 424c-12 7-21 5-29-5zm3785 4c-44-4-125-15-180-23l-240-31c-134-14-294-33-474-54-88-11-209-37-230-51-17-10 40-128 96-198 24-30 43-59 43-65 0-11 88-142 139-209 12-14 21-33 21-42s5-16 11-16c5 0 15-13 20-30 6-16 15-30 20-30s23-13 41-30c33-31 48-36 76-21 9 5 96 11 193 13 96 2 180 7 186 11s49 87 97 184c128 261 130 266 164 286 38 22 63 12 81-32 10-24 10-34-2-57-8-16-18-43-21-61-7-32-16-51-86-198-84-177-84-175-61-199 11-11 23-33 26-49 12-45 34-49 130-27 104 24 204 26 246 4 18-9 38-32 49-57l19-42 2 30 2 49c0 28 68 92 107 99 31 7 32 8 26 44a5212 5212 0 0 1-133 503c-13 41-36 125-50 185-15 61-31 113-37 117-13 9-172 7-281-3zm-3970-179c-21-22-43-40-47-40-29 0-308-260-397-370-20-25-39-46-43-48-5-2-35-37-67-77-59-72-60-74-49-112 5-21 16-45 24-54 8-8 14-21 14-28 0-15 26-99 45-146 26-63 38-101 44-145 7-44 55-150 68-150 18 0 143 56 176 79 28 20 36 31 32 46l-21 70c-8 28-18 75-21 106-5 53-4 57 27 82 17 15 37 27 45 27 7 0 18 7 25 15s20 15 29 15c10 0 46 20 82 45a2752 2752 0 0 0 263 170c16 12 18 19 9 37-5 13-16 39-22 58-40 113-69 188-79 207-7 12-12 30-12 40 0 9-6 35-14 58l-32 98c-10 31-23 57-29 57s-29-18-50-40zm-5245-316c0-65-7-157-15-204s-15-110-15-140-5-75-11-100-17-121-26-215c-25-277-26-285-14-285 17 0 145 73 177 100 16 14 47 47 68 73 36 45 39 52 37 105-1 31-8 80-15 107-21 76-37 145-45 200-4 28-12 66-18 85s-16 58-21 85c-20 98-80 286-97 303-3 3-5-48-5-114zm8035 59c6-16 32-97 81-255a1126 1126 0 0 1 120-335c13-9 37-11 84-7 66 6 178 29 187 37 2 3-17 20-42 39-26 18-65 51-86 73-62 65-129 142-129 149 0 4-22 40-50 81-27 41-50 78-50 82s-14 26-30 47c-17 22-30 44-30 50-1 16-36 56-50 56-8 0-9-7-5-17zm255-525c0-13-23-5-28 10-2 7 2 10 12 6 9-3 16-11 16-16zm-2732 148c-8-7-27-21-43-29-17-9-43-27-60-41l-30-24 21-24c12-12 31-42 43-65 12-24 25-43 30-43 10 0 27 40 37 85 4 17 9 35 13 40 6 10 30 93 31 108 0 12-28 8-42-7zm182-15c-5-11-10-31-10-44 0-24-102-342-134-419-9-21-16-48-16-60 0-13-7-36-15-52-8-15-15-44-15-62 0-29 3-34 24-34 13 0 37 7 53 14 15 8 59 23 97 33 91 24 92 29 72 209-9 77-16 202-15 277 0 75-2 141-6 146-10 17-23 13-35-8zm-1336-179c-45-48-103-114-131-147-27-33-67-78-87-100-21-22-61-69-89-104l-50-65 12-50 22-106c5-30 14-59 18-63 12-12 110 19 176 54 30 16 63 29 74 29 10 0 24 7 31 15s19 15 27 15 27 6 41 14c15 8 39 19 55 25 33 13 34 35 12 221-8 69-15 173-15 232s-3 109-8 112c-4 2-44-35-88-82z"
  />
  <path
    d="M11500 3063c-14-2-37-9-52-15-29-11-29-7-33-128-2-69-26-240-39-284-9-29-20-42-39-49-57-19-74 11-107 189-12 66-32 140-44 165l-21 44-73-1c-41-1-79-7-85-13s-24-11-40-11c-29 0-29 0-22-46 3-26 10-56 15-68 9-24 70-215 93-291l33-127c11-43 24-78 29-78 6 0 20 6 30 14 22 15 114 39 210 56 33 5 80 14 105 20 25 5 61 9 81 10 36 0 36 0 43 51 13 96 0 467-19 542-7 27-13 29-65 20zm-7510-28c-7-8-20-15-28-15-18 0-193-88-256-128-23-15-79-46-125-70-76-39-114-64-162-106-14-12-17-36-16-150 0-110-2-140-15-152-14-14-47-19-155-23-21-1-43-12-67-35-32-30-36-39-36-85 0-29 4-71 10-94 5-23 12-63 15-89 7-55 26-78 63-78 24 1 32 12 78 108 59 121 113 190 174 217 41 18 42 18 77 0 19-11 37-24 38-30 2-5 10-73 20-150 9-77 23-162 31-188 8-27 18-77 21-112 6-62 8-65 47-92 62-41 129-60 257-72 161-15 186-6 215 75 11 32 35 91 53 129 40 87 39 142-4 199-19 25-28 48-27 70 1 35 47 134 93 204 16 24 29 47 29 52 0 4 4 10 8 12 17 7 53 70 48 83-3 9-18 21-33 27-15 7-35 17-43 24s-33 17-56 23c-59 16-78 44-98 141-17 78-27 112-61 195l-31 77c-20 50-41 61-64 33zm-372-52c-28-4-55-29-44-40 8-8 76 26 76 39 0 4-1 7-2 7l-30-6zm2768-349c5-49 8-104 8-121-1-39 15-42 56-13 15 11 40 24 56 31l29 11-38 13c-49 17-47 14-73 92-34 100-48 95-38-13zm-3124 29c5-26 38-29 38-4 0 15-6 21-21 21-14 0-19-5-17-17zm1706 2c-3-4-2-21 4-38 5-18 14-50 18-72 21-105 47-183 94-277 41-82 56-104 75-106 28-4 117 53 176 113 46 46 125 140 125 149 0 3-17 5-37 4-128-4-313 46-330 87-3 8-10 15-17 15-12 1-87 92-96 116-3 8-8 12-12 9zm-1804-122-15-42c-9-23-9-23 28-16 61 11 67 21 31 55-27 25-37 25-44 3zm3611-44c-83-33-243-108-265-125-14-10-50-29-194-100-69-34-92-60-101-114-4-22-20-65-36-97-16-31-29-62-29-69s-10-28-22-48c-28-43-73-60-135-51-72 11-97-22-113-147-11-90 6-143 45-143 26 0 29 5 54 90 40 134 63 173 106 181 25 4 41 2 53-8 23-19 150-78 169-78 4 0 21-12 36-26 26-24 28-31 24-83-2-31-9-69-15-86-36-96-75-275-66-300 3-7 17-18 32-25l46-22c10-5 39-13 65-18 25-5 78-18 116-30 39-12 108-26 155-31l85-10 40 43c65 70 105 126 105 147 0 10-6 32-14 48-47 94-57 153-37 205 5 13 54 70 110 126 56 57 101 108 101 114 0 5 9 23 21 39 35 50 11 79-67 79-41 0-120 44-130 73-4 12-10 122-13 245-5 183-9 224-21 232-21 14-48 11-105-11z"
  />
  <path
    d="M2985 2372c-86-67-99-81-122-132-55-123-62-191-32-300 22-76 25-84 77-201 29-64 47-142 43-189-1-14 9-37 21-52 13-15 36-46 52-68 17-22 33-40 38-40 4 0 8-6 8-12 0-7 14-21 30-30 17-9 30-24 30-33 0-8 7-15 16-15s22-6 28-14c21-26 142-83 216-100 71-18 80-18 169-2 52 9 120 16 150 16 31 0 81 7 111 15s68 15 84 15c47 0 152 66 237 150 43 42 79 80 79 84 0 9-48 96-62 113-8 9-19 8-50-4-34-14-50-14-103-5-34 7-79 12-100 12-52 0-194 46-269 87-64 35-96 98-96 189 0 23-5 55-12 71-6 15-15 57-19 93-22 186-21 181-35 169-8-6-28-39-44-73-17-34-41-73-54-87-12-13-26-37-29-51-11-44-63-76-127-78-77-2-75-3-110 26-38 33-58 78-75 172-30 165-30 192 3 260 16 34 24 62 18 62s-38-22-71-48zm6520-70c-49-41-107-87-128-102-74-56-156-131-226-207-29-33-30-33-128-33h-98l-30-38c-29-36-30-40-33-163-3-112-1-131 19-177 22-51 36-60 73-46 22 9 106 188 106 227 0 52 20 71 63 63 33-6 87-49 87-68 0-14 73-134 95-154 12-12 36-29 53-38s35-24 40-34c5-9 12-68 15-130 4-102 7-116 32-152 30-44 113-103 160-114 74-18 77-16 117 59l45 85c4 8 15 27 26 42 25 34 19 104-12 144-27 34-27 82 0 142l33 77 69 145c30 63 53 118 51 122-3 4-16 8-30 8-33 0-93 32-125 67-15 15-32 48-37 73-20 85-41 153-51 163-6 6-11 23-11 38s-7 34-15 43c-8 8-15 19-15 25s-12 10-27 9c-18-1-61-29-118-76zm-8180 56c3-8 20-23 38-33 35-21 207-185 207-198 0-5 26-41 59-80 32-40 78-101 101-137 24-36 56-80 71-97a1797 1797 0 0 1 368-400l61-43c3-3 28-15 55-25 89-34 288-18 410 32 44 18 125 90 125 110 0 8-7 16-15 19s-17 13-20 23c-7 24-57 46-157 70-140 35-238 98-418 271-52 50-124 114-160 143-60 49-174 127-184 127-3 0-25 14-49 30-25 17-48 30-52 30s-34 16-66 35c-33 19-66 35-74 35-7 0-26 6-42 14-55 27-104 46-121 46-9 0-30 7-45 15s-43 17-63 21c-27 5-33 3-29-8zm4755-34c-36-18-70-34-75-34-6 0-21-7-33-16-22-15-22-16-4-52 75-151 86-165 98-115 4 15 11 34 17 41s14 32 18 55c11 65 35 119 59 139 37 30-5 21-80-18zm5405-16c-92-12-210-36-260-53-159-55-150-49-171-118-14-47-29-72-63-105-52-51-137-96-201-107-45-8-45-8-15-17 17-5 66-8 110-7 92 2 157-11 185-36 34-31 56-122 58-246 3-118 8-163 22-214 5-16 12-70 15-120 7-98 16-117 54-113 37 4 59 66 42 114-8 23-13 98-13 223 0 196 7 231 43 231 38 0 59-114 59-316 0-84 4-155 9-158 17-11 60 13 65 36 3 13 10 113 16 223 7 110 16 207 21 217 14 27 37 22 54-12 12-23 15-68 16-210 0-242 14-235 38 18 12 124 17 142 40 142 32 0 39-22 46-130 11-155 25-158 24-5-2 293-14 455-43 565-15 58-32 110-37 116s-12 28-17 49c-4 21-12 39-17 40-6 1-41-2-80-7zm-2435-118c-14-4-39-8-57-9-34-1-103-29-103-42 0-11 30-39 43-40 72-9 147 2 147 21 0 5 6 15 13 22l31 36 19 22-34-1c-19-1-45-5-59-9zm-3217-67c-4-10-20-37-35-59-15-23-28-44-28-48 0-3-22-43-50-89-27-46-57-104-66-128-64-174-104-307-104-350 0-42 124-329 151-349 3-3 15-26 27-51 11-26 29-56 40-67 24-24 110-65 182-86l87-27c18-5 81-14 140-19l174-16c39-4 80-2 100 4 19 6 86 14 149 18 63 3 129 12 146 19 30 12 32 16 39 85 5 52 4 74-5 80-6 4-54 10-106 13-52 4-116 13-142 21s-81 22-122 32c-41 9-108 32-148 50-60 27-75 39-87 68-19 46-19 144 1 209a6063 6063 0 0 0 61 199c9 20 12 41 9 47-8 12-107 61-124 61-7 0-12-9-12-19 0-11-4-22-9-25-5-4-12-25-16-48-10-55-39-122-64-147-29-29-106-28-173 1-43 18-53 28-74 74-19 42-24 69-24 136 0 46 6 106 14 135 17 63 77 156 111 171 30 14 31 20 4 72-26 49-37 57-46 33z"
  />
  <path
    d="M8660 2095c-7-8-18-15-24-15-27 0-86-87-86-127 0-9-11-31-26-50-34-44-82-45-138-3-46 35-93 39-126 12-17-13-22-29-23-67-2-44 3-56 39-105 23-30 51-64 63-74 11-11 21-27 21-36 0-10 6-22 13-28 22-19 21-88-3-112-11-11-26-20-34-20-16 0-42 37-52 74-7 28-52 78-64 71-4-2-5-16-2-30 6-34-13-78-49-109-32-28-37-68-19-136l23-90c26-99 59-143 132-179 71-35 78-35 160 5 62 30 101 22 110-23a508 508 0 0 0 30-139c7-77 35-144 60-144 6 0 23-7 40-16 16-8 52-20 80-25 27-6 61-14 75-19s43-11 65-14l85-15c157-34 312-52 383-44 38 5 52 11 65 32 9 14 25 35 34 45 10 11 18 23 18 27 0 12 51 58 81 74 14 8 50 17 80 20 30 4 69 11 87 17 30 9 32 12 32 57 0 67-15 78-122 83-75 4-97 9-160 41-151 74-213 165-232 337-10 88-13 97-41 120-74 62-85 76-85 114 0 59-19 39-49-49-60-178-105-213-212-166-84 38-126 104-154 245-29 150-10 274 57 368 11 15 6 24-32 63-46 47-78 56-100 30zm3225-44a1051 1051 0 0 1-88-35c-18-6-18-16-11-184 4-97 10-199 13-227l6-50 73-5c44-3 76-1 80 5 16 25 0 379-20 448-13 44-26 56-53 48zm-984-291c-24-11-49-20-56-20s-19-7-26-16c-17-20-126-74-151-74s-25-3-33-162c-4-94-3-138 4-138s11 30 11 79c0 64 4 83 21 105 25 32 70 35 99 6 19-19 19-32 14-642-2-343-6-645-7-673-2-44 0-50 18-50s21 11 33 115c10 89 20 129 43 176 29 60 29 62 28 235 0 96-4 210-9 254s-14 162-21 262c-11 172-11 185 6 224 14 31 32 49 72 71 29 16 55 34 58 38 4 6-14 209-19 216-8 12-51 9-85-6z"
  />
  <path
    d="M10983 1253c4-81 11-179 16-218 6-38 10-154 10-257 1-120 5-189 12-193 5-4 21-4 34-1 38 10 60 117 80 397 5 63 4 67-21 84-34 22-49 62-63 165-22 159-24 165-50 168l-23 4 5-149z"
  />
</svg>
