<svg xmlns="http://www.w3.org/2000/svg" id="root" viewBox="0 0 100 87">
  <g>
    <path
      d="M 33.640625 86.976562 L 33.460938 86.957031 L 33.46875 86.421875 C 33.46875 86.125 33.484375 85.960938 33.496094 86.050781 C 33.542969 86.511719 33.617188 86.746094 33.757812 86.875 C 33.839844 86.945312 33.882812 87.003906 33.863281 87 C 33.839844 86.996094 33.738281 86.984375 33.640625 86.976562 Z M 33.640625 86.976562 "
    />
    <path
      d="M 88.40625 86.972656 L 88.105469 86.957031 L 87.1875 86.128906 C 86.6875 85.675781 86.222656 85.238281 86.15625 85.164062 C 86.089844 85.085938 86.238281 85.210938 86.480469 85.429688 C 87.484375 86.355469 88 86.703125 88.542969 86.847656 C 89.011719 86.964844 89.59375 86.847656 89.59375 86.632812 C 89.59375 86.484375 89.316406 86.148438 88.496094 85.3125 C 87.511719 84.3125 86.820312 83.453125 85.96875 82.175781 C 84.792969 80.417969 84.109375 79.269531 83.40625 77.867188 C 82.890625 76.835938 82.691406 76.375 82.386719 75.523438 C 81.035156 71.777344 73.699219 60.222656 70.050781 56.105469 C 69.039062 54.964844 68.449219 54.226562 68.285156 53.90625 C 68.179688 53.707031 68.210938 53.507812 68.566406 52.109375 C 69.058594 50.164062 69.726562 48.066406 70.410156 46.308594 C 70.890625 45.070312 71.0625 44.371094 70.949219 44.074219 C 70.859375 43.839844 70.46875 44.214844 70.160156 44.824219 C 69.570312 46 68.683594 48.664062 67.871094 51.695312 C 65.941406 58.898438 64.238281 67.417969 63.738281 72.371094 C 63.621094 73.503906 63.621094 75.851562 63.742188 76.933594 C 63.894531 78.394531 64.242188 80.132812 64.574219 81.148438 C 64.867188 82.042969 65.078125 82.539062 65.609375 83.582031 C 66.160156 84.679688 66.453125 85.441406 66.511719 85.957031 C 66.578125 86.488281 66.632812 86.664062 66.804688 86.816406 L 66.972656 86.960938 L 34.207031 86.960938 L 34.335938 86.832031 C 34.625 86.519531 34.730469 86.144531 35.058594 84.140625 C 35.328125 82.515625 35.519531 81.484375 35.726562 80.453125 C 36.648438 75.941406 36.582031 72.960938 35.390625 66.316406 C 34.710938 62.519531 33.144531 55.394531 32.242188 51.964844 C 31.605469 49.539062 30.882812 47.214844 30.398438 45.988281 C 30.027344 45.058594 29.574219 44.261719 29.355469 44.140625 C 29.140625 44.027344 28.972656 44.136719 28.972656 44.394531 C 28.972656 44.683594 29.230469 45.472656 29.640625 46.4375 C 30.234375 47.84375 31.507812 52.074219 31.742188 53.429688 C 31.789062 53.707031 31.785156 53.769531 31.714844 53.90625 C 31.550781 54.226562 30.960938 54.964844 29.949219 56.105469 C 27.796875 58.53125 24.210938 63.71875 21.089844 68.925781 C 20.472656 69.949219 19.378906 71.828125 19.378906 71.867188 C 19.378906 71.875 19.265625 72.082031 19.128906 72.332031 C 18.601562 73.257812 17.914062 74.695312 17.679688 75.34375 C 17.457031 75.972656 17.160156 76.628906 16.421875 78.132812 C 15.132812 80.761719 14.898438 81.320312 14.828125 81.890625 C 14.789062 82.214844 14.519531 83.242188 14.292969 83.960938 C 14.058594 84.699219 13.3125 86.683594 13.25 86.75 C 13.214844 86.789062 12.183594 86.824219 9.761719 86.859375 C 3.816406 86.953125 1.734375 86.964844 1.851562 86.914062 C 2.015625 86.847656 1.980469 86.703125 1.738281 86.425781 C 1.0625 85.664062 1.171875 84.855469 2.140625 83.476562 C 2.65625 82.738281 2.871094 82.484375 4.847656 80.304688 C 6.023438 79.003906 6.777344 78.089844 6.777344 77.957031 C 6.777344 77.78125 5.703125 78.167969 4.429688 78.808594 C 2.976562 79.535156 2.335938 79.800781 2.660156 79.527344 C 3.128906 79.132812 7.609375 76.109375 7.789062 76.0625 C 7.933594 76.027344 7.894531 76.214844 7.667969 76.71875 C 7.308594 77.503906 7.179688 78.203125 7.222656 79.160156 C 7.25 79.855469 7.351562 80.359375 7.546875 80.773438 C 7.761719 81.230469 8.03125 81.410156 8.925781 81.714844 C 10.320312 82.183594 12.003906 82.363281 12.191406 82.070312 C 12.253906 81.964844 12.226562 81.9375 12 81.910156 C 11.574219 81.851562 11.503906 81.835938 11.503906 81.78125 C 11.503906 81.75 11.628906 81.609375 11.78125 81.460938 C 12.515625 80.757812 14.058594 78.339844 15.257812 76.027344 C 15.882812 74.820312 16.085938 74.335938 16.539062 72.996094 C 16.757812 72.351562 17.070312 71.5 17.230469 71.101562 C 17.910156 69.445312 18.148438 68.613281 18.230469 67.609375 C 18.304688 66.667969 18.578125 65.777344 19.316406 64.050781 L 19.410156 63.839844 L 19.734375 64.597656 C 20.25 65.804688 20.492188 66.246094 20.640625 66.246094 C 20.679688 66.246094 20.714844 66.160156 20.734375 66.011719 C 20.773438 65.722656 20.992188 65.398438 21.179688 65.355469 C 21.414062 65.308594 21.433594 65.292969 21.433594 65.191406 C 21.433594 65.128906 21.332031 65.019531 21.136719 64.878906 C 20.785156 64.617188 20.660156 64.476562 20.5 64.125 C 20.214844 63.5 20.324219 62.773438 20.792969 62.191406 C 21.257812 61.625 21.828125 61.222656 23.101562 60.574219 C 24.515625 59.863281 25.324219 59.289062 26.328125 58.285156 C 27.324219 57.285156 27.746094 56.605469 27.828125 55.863281 C 27.894531 55.265625 27.886719 52.074219 27.804688 49.714844 C 27.667969 45.585938 27.738281 43.75 28.097656 42.328125 C 28.363281 41.261719 28.703125 40.609375 29.550781 39.542969 C 30.132812 38.816406 30.3125 38.640625 30.457031 38.640625 C 30.6875 38.640625 31.023438 39.070312 32.035156 40.671875 C 32.476562 41.375 32.660156 41.617188 33.03125 41.988281 C 33.757812 42.722656 34.558594 43.277344 35.738281 43.875 C 37.347656 44.6875 38.6875 45.070312 40.691406 45.289062 C 41.195312 45.34375 41.679688 45.398438 41.78125 45.414062 L 41.957031 45.441406 L 41.855469 45.566406 C 41.625 45.875 40.238281 47.285156 39.886719 47.582031 C 39.007812 48.324219 38.550781 48.519531 37.734375 48.515625 C 37.117188 48.511719 36.800781 48.421875 35.484375 47.875 C 35.039062 47.691406 34.679688 47.546875 34.667969 47.558594 C 34.660156 47.566406 35.003906 47.863281 35.433594 48.222656 C 36.359375 48.992188 36.671875 49.3125 36.648438 49.460938 C 36.636719 49.570312 36.554688 49.625 36.183594 49.78125 L 35.96875 49.878906 L 36.347656 49.878906 C 37.097656 49.886719 38.4375 49.644531 39.203125 49.363281 C 39.359375 49.304688 39.527344 49.269531 39.582031 49.289062 C 39.738281 49.335938 39.808594 49.597656 39.808594 50.136719 C 39.808594 50.960938 39.609375 51.527344 39.15625 51.984375 C 38.648438 52.484375 38.109375 52.652344 36.992188 52.65625 C 36.21875 52.65625 36.085938 52.695312 36.277344 52.859375 C 36.488281 53.035156 36.960938 53.226562 37.332031 53.285156 C 37.640625 53.328125 37.738281 53.328125 37.960938 53.261719 C 38.46875 53.113281 38.535156 53.167969 38.402344 53.613281 C 38.28125 54.015625 38.324219 54.1875 38.578125 54.308594 C 38.84375 54.4375 39.117188 54.855469 39.382812 55.519531 C 39.617188 56.113281 39.667969 56.1875 39.722656 56.089844 C 39.742188 56.050781 39.769531 55.496094 39.785156 54.855469 C 39.863281 51.65625 40.144531 49.398438 40.574219 48.542969 C 41.011719 47.667969 42.113281 46.710938 43.484375 46.011719 C 44.835938 45.324219 46.324219 44.957031 47.769531 44.957031 C 48.609375 44.957031 49.167969 45.054688 49.695312 45.300781 C 50.109375 45.496094 50.601562 45.886719 50.691406 46.097656 C 50.773438 46.292969 50.730469 46.425781 50.480469 46.753906 C 50.023438 47.371094 50.015625 47.589844 50.429688 48.15625 C 50.703125 48.527344 50.554688 48.894531 49.761719 49.738281 C 48.648438 50.933594 48.386719 51.460938 48.304688 52.621094 C 48.21875 53.84375 47.808594 54.625 45.84375 57.324219 C 43.820312 60.089844 42.875 61.589844 41.863281 63.613281 C 40.429688 66.484375 39.890625 68.535156 39.96875 70.875 C 40.027344 72.839844 40.601562 73.742188 42.746094 75.265625 C 43.980469 76.140625 44.820312 77 44.820312 77.394531 C 44.820312 77.722656 44.285156 78.480469 43.671875 79.019531 C 43.074219 79.539062 42.671875 79.941406 42.671875 80.015625 C 42.671875 80.066406 42.710938 80.078125 42.855469 80.054688 C 42.949219 80.035156 43.199219 80.011719 43.398438 79.996094 C 43.71875 79.972656 43.792969 79.980469 44.023438 80.085938 C 44.324219 80.21875 44.574219 80.460938 44.703125 80.722656 C 44.800781 80.921875 44.824219 81.34375 44.757812 81.660156 L 44.722656 81.84375 L 44.84375 81.71875 C 44.949219 81.613281 45.003906 81.597656 45.140625 81.617188 C 45.238281 81.636719 45.347656 81.679688 45.394531 81.722656 C 45.4375 81.761719 45.53125 81.792969 45.597656 81.792969 C 45.707031 81.792969 45.726562 81.773438 45.726562 81.65625 C 45.726562 81.496094 45.511719 81.070312 45.125 80.464844 C 44.609375 79.644531 44.535156 78.929688 44.941406 78.664062 C 45.046875 78.59375 45.121094 78.585938 45.316406 78.613281 C 45.953125 78.695312 45.941406 78.695312 46.027344 78.597656 C 46.242188 78.359375 46.21875 77.554688 45.976562 77.058594 C 45.691406 76.46875 44.765625 75.507812 43.246094 74.226562 C 41.957031 73.140625 41.523438 72.660156 41.609375 72.4375 C 41.652344 72.320312 42.253906 72.375 42.746094 72.527344 C 42.953125 72.59375 43.394531 72.734375 43.722656 72.839844 C 44.464844 73.078125 45.332031 73.273438 45.894531 73.335938 C 47.210938 73.472656 47.566406 73.648438 48.066406 74.378906 C 48.371094 74.828125 48.765625 75.125 48.921875 75.023438 C 49.015625 74.96875 48.972656 74.75 48.777344 74.3125 C 48.539062 73.769531 48.5 73.53125 48.617188 73.277344 C 48.722656 73.042969 48.683594 72.871094 48.492188 72.707031 C 48.410156 72.640625 48.273438 72.523438 48.179688 72.441406 C 47.714844 72.035156 48.101562 71.507812 49.089844 71.203125 C 49.304688 71.140625 49.699219 71.015625 49.976562 70.933594 C 50.691406 70.714844 51.074219 70.507812 51.074219 70.335938 C 51.074219 70.238281 50.820312 70.203125 50.535156 70.265625 C 49.960938 70.382812 49.59375 70.300781 49.59375 70.054688 C 49.59375 69.679688 49.222656 69.863281 48.519531 70.574219 C 47.90625 71.203125 47.574219 71.464844 47.121094 71.695312 C 46.511719 72 46.167969 72.085938 45.441406 72.117188 C 44.722656 72.144531 44.320312 72.085938 43.5625 71.839844 C 42.550781 71.503906 41.8125 71.035156 41.421875 70.46875 C 41.210938 70.160156 41.011719 69.566406 40.949219 69.066406 C 40.734375 67.277344 41.835938 64.660156 43.890625 62.105469 C 44.101562 61.84375 44.789062 61.035156 45.417969 60.3125 C 46.902344 58.609375 47.578125 57.804688 47.972656 57.273438 C 48.585938 56.453125 48.695312 56.414062 49.675781 56.699219 C 50.421875 56.914062 51.207031 57.230469 51.640625 57.488281 C 52.171875 57.796875 52.734375 58.367188 53.164062 59.019531 C 54.042969 60.371094 54.25 60.632812 54.777344 61.082031 C 55.375 61.59375 56.078125 61.890625 56.671875 61.890625 C 57.121094 61.890625 57.339844 61.816406 57.609375 61.574219 C 58.167969 61.074219 58.933594 59.601562 59.417969 58.105469 C 59.808594 56.910156 59.890625 56.121094 59.71875 55.335938 C 59.546875 54.570312 59.113281 53.476562 58.738281 52.859375 C 58.460938 52.394531 58.144531 51.71875 57.984375 51.257812 C 57.78125 50.648438 57.757812 50.003906 57.894531 48.945312 C 58.066406 47.632812 58.027344 47.34375 57.664062 47.160156 C 57.40625 47.027344 56.535156 46.855469 56.304688 46.894531 C 55.90625 46.953125 55.757812 47.121094 55.445312 47.882812 C 55.191406 48.515625 55.03125 48.792969 54.875 48.878906 C 54.757812 48.9375 54.734375 48.929688 54.617188 48.847656 C 54.429688 48.710938 54.25 48.304688 54.058594 47.582031 C 53.777344 46.535156 53.507812 46.132812 52.875 45.824219 C 52.429688 45.605469 51.898438 45.222656 51.335938 44.714844 C 50.796875 44.226562 50.445312 43.972656 50.128906 43.84375 C 49.875 43.746094 49.792969 43.734375 48.902344 43.738281 C 48.292969 43.738281 47.570312 43.777344 46.898438 43.84375 C 41.917969 44.34375 38.644531 44.261719 36.539062 43.582031 C 34.730469 43 33.617188 41.992188 32.691406 40.097656 C 32.292969 39.277344 32.011719 38.492188 31.957031 38.0625 C 31.90625 37.636719 32.023438 37.558594 32.945312 37.417969 C 34.1875 37.226562 36.464844 37.238281 37.242188 37.4375 C 37.929688 37.617188 38.433594 37.898438 39.402344 38.640625 C 40.152344 39.210938 41.632812 40.265625 41.691406 40.265625 C 41.796875 40.265625 41.921875 39.683594 42.027344 38.722656 C 42.179688 37.308594 42.296875 37.148438 43.375 36.785156 C 44.101562 36.539062 44.496094 36.339844 45.203125 35.863281 C 46.007812 35.324219 46.679688 34.777344 47.308594 34.148438 C 47.941406 33.515625 48.230469 33.109375 48.304688 32.726562 C 48.402344 32.273438 48.746094 31.832031 49.878906 30.699219 C 50.867188 29.710938 51.265625 29.242188 51.265625 29.0625 C 51.265625 29.007812 51.230469 28.976562 51.179688 28.976562 C 51.011719 28.976562 50.664062 29.257812 49.960938 29.96875 C 49.53125 30.410156 49.207031 30.703125 49.132812 30.722656 C 48.964844 30.765625 48.875 30.65625 48.738281 30.253906 C 48.625 29.914062 48.519531 29.742188 48.429688 29.742188 C 48.34375 29.742188 48.339844 29.753906 48.023438 30.71875 L 47.757812 31.527344 L 47.40625 30.742188 C 47.066406 29.957031 46.816406 29.5 46.734375 29.5 C 46.648438 29.5 46.644531 29.640625 46.707031 29.964844 C 46.796875 30.386719 46.875 30.59375 47.210938 31.320312 C 47.535156 32.019531 47.613281 32.328125 47.542969 32.707031 C 47.417969 33.371094 46.601562 34.210938 45.359375 34.9375 C 44.113281 35.671875 42.792969 36.03125 42.480469 35.722656 C 42.113281 35.351562 42.875 33.488281 43.761719 32.574219 C 44.070312 32.257812 44.207031 32.175781 44.496094 32.136719 C 44.644531 32.125 44.75 32.085938 44.75 32.050781 C 44.75 32.019531 44.648438 31.925781 44.523438 31.851562 C 44.25 31.671875 44.191406 31.492188 44.339844 31.253906 C 44.582031 30.859375 44.367188 30.773438 43.871094 31.066406 C 43.542969 31.261719 43.335938 31.472656 42.851562 32.097656 C 42.574219 32.457031 42.511719 32.515625 42.382812 32.515625 C 42.207031 32.515625 42.078125 32.386719 41.777344 31.894531 C 41.335938 31.175781 41.238281 31.023438 41.21875 31.042969 C 41.203125 31.054688 41.246094 31.242188 41.3125 31.46875 C 41.519531 32.179688 41.539062 32.425781 41.5625 34.34375 C 41.589844 36.574219 41.503906 38.277344 41.332031 38.820312 C 41.292969 38.929688 41.25 38.976562 41.179688 38.976562 C 41.039062 38.976562 40.695312 38.6875 40.394531 38.324219 C 39.828125 37.644531 39.175781 37.160156 38.175781 36.679688 C 36.789062 36.011719 35.390625 35.671875 34.019531 35.671875 C 33.144531 35.671875 32.746094 35.75 32.125 36.03125 C 31.433594 36.351562 31.402344 36.332031 31.339844 35.53125 C 31.308594 35.128906 31.199219 34.804688 31.023438 34.617188 C 30.730469 34.304688 30.570312 34.5625 30.507812 35.4375 C 30.429688 36.476562 30.199219 36.859375 29.140625 37.707031 C 27.871094 38.722656 26.9375 40.445312 26.515625 42.539062 C 26.339844 43.417969 26.285156 44.097656 26.316406 45.070312 C 26.347656 46.109375 26.449219 46.714844 26.753906 47.652344 C 27.015625 48.457031 27.058594 48.839844 26.945312 49.238281 C 26.730469 49.992188 25.675781 51.699219 25.03125 52.355469 C 24.554688 52.835938 24.21875 52.996094 23.652344 53.027344 C 22.902344 53.058594 22.851562 53.101562 23.308594 53.300781 C 24.035156 53.609375 24.148438 53.710938 24.003906 53.886719 C 23.972656 53.925781 23.695312 54.152344 23.390625 54.378906 C 22.792969 54.835938 22.273438 55.351562 22.304688 55.445312 C 22.363281 55.613281 23.007812 55.355469 23.722656 54.878906 C 24.273438 54.507812 24.949219 53.996094 25.175781 53.773438 C 25.273438 53.671875 25.398438 53.503906 25.441406 53.398438 C 25.488281 53.292969 25.648438 53.035156 25.800781 52.824219 C 26.128906 52.367188 27.121094 51.121094 27.144531 51.144531 C 27.171875 51.164062 26.980469 53.769531 26.917969 54.261719 C 26.796875 55.242188 26.449219 56.261719 25.992188 56.96875 C 25.265625 58.09375 24.433594 58.835938 22.316406 60.25 C 20.628906 61.375 19.085938 62.792969 18.109375 64.101562 C 17.65625 64.710938 17.429688 65.179688 17.375 65.59375 C 17.308594 66.144531 16.949219 66.445312 16.371094 66.457031 C 15.976562 66.460938 15.703125 66.359375 15.328125 66.074219 C 15.035156 65.851562 14.84375 65.757812 14.84375 65.839844 C 14.84375 65.847656 14.902344 66.078125 14.96875 66.347656 C 15.128906 66.957031 15.113281 67.191406 14.886719 67.421875 C 14.800781 67.511719 14.707031 67.585938 14.679688 67.585938 C 14.570312 67.585938 14.171875 67.875 14.082031 68.023438 C 13.886719 68.34375 13.996094 68.445312 14.40625 68.320312 C 14.730469 68.230469 15.214844 67.992188 15.671875 67.695312 C 16.066406 67.441406 16.816406 67.074219 17.03125 67.03125 C 17.222656 66.992188 17.375 67.140625 17.375 67.359375 C 17.375 67.78125 16.972656 68.636719 16.347656 69.550781 C 15.609375 70.632812 14.183594 71.886719 12.320312 73.082031 C 10.367188 74.339844 8.875 75.003906 7.789062 75.097656 C 7.027344 75.160156 6.832031 75.234375 6.503906 75.578125 C 6.355469 75.742188 6.058594 75.980469 5.847656 76.121094 C 5.414062 76.410156 4.535156 76.890625 4.535156 76.835938 C 4.535156 76.824219 4.796875 76.527344 5.113281 76.1875 C 6.054688 75.1875 6.839844 74.726562 8.878906 73.996094 C 10.664062 73.355469 11.375 72.898438 11.902344 72.074219 C 12.246094 71.53125 12.375 71.164062 12.796875 69.523438 C 13.304688 67.542969 13.757812 66.234375 14.542969 64.453125 C 15.207031 62.949219 16.195312 61.121094 17.101562 59.714844 C 18.730469 57.1875 19.507812 55.921875 20.226562 54.644531 C 20.800781 53.621094 21.851562 51.464844 22.191406 50.613281 C 22.792969 49.109375 23.265625 47.492188 23.480469 46.175781 C 23.824219 44.121094 24.144531 42.710938 24.746094 40.617188 C 25.84375 36.796875 26.851562 34.414062 27.820312 33.367188 C 28.828125 32.277344 30.398438 31.746094 36.394531 30.457031 C 40.84375 29.507812 42.324219 29.144531 43.65625 28.683594 C 44.582031 28.367188 44.59375 28.351562 44.777344 27.710938 C 44.855469 27.457031 44.882812 27.179688 44.902344 26.59375 C 44.925781 25.898438 44.9375 25.816406 45.007812 25.839844 C 45.050781 25.859375 45.589844 26.0625 46.207031 26.296875 C 48.109375 27.007812 48.4375 27.082031 49.808594 27.082031 C 50.609375 27.082031 50.839844 27.0625 51.25 26.976562 C 52.1875 26.773438 52.839844 26.492188 53.597656 25.976562 C 54.519531 25.34375 54.859375 25.277344 55.007812 25.699219 C 55.027344 25.75 55.058594 26.007812 55.082031 26.277344 C 55.132812 26.835938 55.25 27.195312 55.535156 27.636719 C 55.8125 28.058594 56 28.222656 56.417969 28.414062 C 58 29.148438 63.640625 30.707031 66.394531 31.179688 C 66.695312 31.234375 67.191406 31.296875 67.492188 31.320312 C 68.125 31.371094 68.519531 31.492188 69.148438 31.816406 C 70.09375 32.304688 71.308594 33.21875 72.152344 34.074219 C 72.949219 34.882812 73.269531 35.363281 73.835938 36.617188 C 75.417969 40.085938 76.996094 44.832031 77.441406 47.441406 C 77.480469 47.667969 77.523438 48.109375 77.542969 48.421875 C 77.578125 49.164062 77.640625 49.605469 77.785156 50.175781 C 78.289062 52.203125 79.800781 55.078125 82.433594 59.042969 C 84.839844 62.660156 86.226562 65.722656 87.1875 69.5 C 87.589844 71.082031 87.789062 71.628906 88.152344 72.164062 C 88.683594 72.945312 89.4375 73.402344 91.144531 73.992188 C 92.21875 74.363281 93.203125 74.84375 93.769531 75.269531 C 94.589844 75.890625 95.675781 77.070312 96.863281 78.644531 C 97.109375 78.976562 97.355469 79.316406 97.398438 79.398438 C 97.46875 79.539062 97.46875 79.546875 97.375 79.546875 C 97.1875 79.546875 96.671875 79.339844 95.703125 78.875 C 93.824219 77.972656 93.269531 77.804688 93.269531 78.132812 C 93.269531 78.296875 93.53125 78.621094 94.265625 79.378906 C 95.683594 80.828125 97.40625 82.867188 98.050781 83.851562 C 98.582031 84.664062 98.695312 85.121094 98.546875 85.832031 C 98.417969 86.464844 98.457031 86.796875 98.679688 86.902344 C 98.753906 86.9375 98.09375 86.957031 96.476562 86.972656 C 95.210938 86.980469 94.175781 86.972656 94.175781 86.953125 C 94.175781 86.929688 94.21875 86.914062 94.265625 86.914062 C 94.449219 86.914062 94.417969 86.816406 94.214844 86.726562 C 93.792969 86.550781 92.78125 86.292969 92.484375 86.292969 C 92.265625 86.292969 92.03125 86.382812 91.976562 86.488281 C 91.902344 86.621094 92.117188 86.796875 92.4375 86.871094 C 92.582031 86.902344 92.6875 86.9375 92.675781 86.945312 C 92.65625 86.972656 88.828125 86.988281 88.40625 86.972656 Z M 0.00390625 86.496094 C 0.0117188 86.09375 0.0195312 86.0625 0.046875 86.269531 C 0.0976562 86.597656 0.214844 86.8125 0.398438 86.890625 L 0.550781 86.957031 L 0.277344 86.960938 L 0 86.960938 Z M 0.00390625 86.496094 "
    />
    <path
      d="M 67.511719 86.824219 C 67.585938 86.746094 67.675781 86.601562 67.707031 86.503906 L 67.773438 86.316406 L 67.78125 86.640625 L 67.78125 86.960938 L 67.378906 86.960938 Z M 99.601562 86.890625 C 99.785156 86.8125 99.890625 86.625 99.945312 86.28125 C 99.984375 86.042969 99.988281 86.058594 99.996094 86.496094 L 100 86.960938 L 99.726562 86.960938 L 99.449219 86.957031 Z M 14.617188 86.492188 C 14.757812 86.34375 14.992188 86.023438 15.132812 85.78125 C 15.273438 85.535156 15.394531 85.34375 15.398438 85.347656 C 15.410156 85.355469 15.300781 85.679688 15.164062 86.066406 L 14.917969 86.769531 L 14.355469 86.769531 Z M 9.589844 81.367188 C 9.058594 81.199219 8.640625 80.78125 8.347656 80.144531 C 7.953125 79.261719 7.976562 78.105469 8.40625 77.292969 C 8.496094 77.125 8.6875 76.886719 8.875 76.707031 C 9.507812 76.109375 10.125 75.949219 11.101562 76.121094 C 11.832031 76.25 12.132812 76.257812 12.558594 76.175781 C 13.09375 76.066406 13.441406 75.882812 14.402344 75.203125 C 14.839844 74.890625 15.230469 74.617188 15.265625 74.597656 C 15.316406 74.566406 15.09375 74.949219 14.238281 76.339844 C 13.460938 77.609375 11.871094 80.058594 11.652344 80.332031 C 11.335938 80.71875 10.808594 81.183594 10.492188 81.34375 C 10.21875 81.484375 9.96875 81.488281 9.589844 81.367188 Z M 1.324219 79.152344 C 1.363281 78.855469 1.542969 78.496094 1.765625 78.277344 L 1.960938 78.085938 L 1.773438 78.378906 C 1.664062 78.542969 1.519531 78.820312 1.453125 79 C 1.304688 79.402344 1.289062 79.417969 1.324219 79.152344 Z M 11.625 75.03125 C 11.527344 74.960938 11.53125 74.957031 11.695312 74.78125 C 11.945312 74.515625 14.203125 72.839844 14.785156 72.484375 C 15.230469 72.210938 15.515625 72.105469 15.515625 72.214844 C 15.515625 72.359375 14.765625 73.265625 14.195312 73.8125 C 13.828125 74.164062 13.089844 74.703125 12.703125 74.894531 C 12.292969 75.101562 11.796875 75.164062 11.625 75.03125 Z M 77.253906 69.5 C 77.210938 69.421875 77.191406 69.355469 77.203125 69.355469 C 77.214844 69.355469 77.257812 69.421875 77.300781 69.5 C 77.34375 69.578125 77.363281 69.640625 77.355469 69.640625 C 77.339844 69.640625 77.296875 69.578125 77.253906 69.5 Z M 76.347656 67.957031 C 75.910156 67.210938 75.210938 66.066406 74.800781 65.40625 C 74.058594 64.214844 73.875 63.902344 74.191406 64.355469 C 74.816406 65.265625 77.25 69.308594 77.167969 69.308594 C 77.160156 69.308594 76.792969 68.699219 76.347656 67.957031 Z M 48.496094 26.085938 C 47.726562 25.914062 46.839844 25.492188 45.957031 24.878906 C 44.550781 23.898438 43.617188 22.976562 43.351562 22.300781 C 43.296875 22.167969 43.230469 21.832031 43.203125 21.554688 C 43.117188 20.742188 42.875 20 42.449219 19.230469 C 42.144531 18.683594 41.851562 18.332031 41.554688 18.140625 C 41.359375 18.015625 41.28125 17.921875 41.203125 17.738281 C 40.882812 17.003906 40.683594 15.089844 40.730469 13.308594 C 40.757812 12.207031 40.824219 11.757812 41.046875 11.148438 C 41.308594 10.425781 41.519531 9.183594 41.648438 7.613281 C 41.800781 5.683594 42.15625 4.199219 42.644531 3.464844 C 42.878906 3.105469 43.582031 2.445312 44.042969 2.136719 C 45.90625 0.894531 48.953125 0.1875 51.457031 0.410156 C 52.53125 0.503906 53.21875 0.65625 53.996094 0.96875 C 55.800781 1.691406 57.179688 3.082031 57.699219 4.71875 C 58.007812 5.683594 58.078125 6.140625 58.351562 9.289062 C 58.472656 10.632812 58.625 12.203125 58.6875 12.78125 C 58.910156 14.75 58.898438 15.402344 58.640625 15.914062 C 58.578125 16.035156 58.375 16.3125 58.191406 16.535156 C 57.8125 16.992188 57.417969 17.71875 57.191406 18.359375 C 57.113281 18.589844 56.984375 19.097656 56.902344 19.488281 C 56.394531 21.984375 55.714844 23.027344 53.734375 24.355469 C 52.191406 25.382812 51.089844 25.902344 50.078125 26.082031 C 49.605469 26.167969 48.863281 26.167969 48.496094 26.085938 Z M 60.109375 13.882812 C 60.109375 13.671875 60.117188 13.589844 60.128906 13.703125 C 60.136719 13.8125 60.136719 13.984375 60.128906 14.085938 C 60.117188 14.183594 60.109375 14.089844 60.109375 13.882812 Z M 60.058594 12.894531 C 60.050781 12.722656 60.039062 12.40625 60.023438 12.203125 L 60.003906 11.824219 L 60.050781 12.160156 C 60.074219 12.34375 60.089844 12.65625 60.082031 12.851562 L 60.066406 13.210938 Z M 59.960938 11.464844 C 59.960938 11.375 59.972656 11.335938 59.984375 11.382812 C 59.996094 11.425781 59.996094 11.503906 59.984375 11.550781 C 59.972656 11.59375 59.960938 11.554688 59.960938 11.464844 Z M 40.769531 4.117188 C 40.765625 4.042969 40.910156 3.609375 40.9375 3.632812 C 40.945312 3.640625 40.910156 3.765625 40.863281 3.910156 C 40.8125 4.054688 40.769531 4.144531 40.769531 4.117188 Z M 58.070312 2.148438 C 57.917969 1.96875 57.480469 1.488281 57.09375 1.082031 C 56.710938 0.675781 56.503906 0.433594 56.632812 0.539062 C 56.996094 0.839844 57.742188 1.632812 58.082031 2.078125 C 58.246094 2.292969 58.375 2.46875 58.367188 2.46875 C 58.351562 2.46875 58.222656 2.328125 58.070312 2.148438 Z M 42.40625 1.453125 C 42.75 1.117188 43.144531 0.808594 43.53125 0.585938 C 43.847656 0.398438 44.617188 0.0351562 44.765625 0 C 44.835938 -0.0117188 44.683594 0.0742188 44.421875 0.191406 C 43.65625 0.546875 42.917969 1.019531 42.351562 1.523438 C 42.128906 1.71875 42.136719 1.703125 42.40625 1.453125 Z M 42.40625 1.453125 "
    />
  </g>
</svg>
