<svg xmlns="http://www.w3.org/2000/svg" id="root" viewBox="0 0 99 88">
  <g>
    <path
      d="M 0 86.308594 C 0 85.375 0.335938 84.109375 0.714844 83.472656 C 1.132812 82.839844 1.382812 81.78125 1.300781 80.976562 C 1.214844 79.875 1.425781 79.453125 2.265625 78.902344 C 2.851562 78.480469 3.355469 77.847656 3.355469 77.464844 C 3.355469 76.324219 5.453125 74.671875 7.886719 73.785156 C 10.109375 73.023438 11.328125 71.667969 11.328125 70.0625 C 11.328125 68.875 13.089844 64.179688 14.222656 62.363281 C 14.808594 61.347656 16.402344 58.765625 17.703125 56.609375 C 20.429688 52.164062 21.183594 50.21875 22.066406 45.691406 C 22.988281 40.953125 24.582031 35.960938 25.757812 34.183594 C 26.890625 32.578125 29.449219 31.476562 34.398438 30.503906 C 38.71875 29.699219 42.328125 28.855469 42.746094 28.558594 C 43.460938 28.132812 43.292969 26.441406 42.410156 25.636719 C 41.992188 25.257812 41.53125 24.199219 41.363281 23.3125 C 41.234375 22.421875 40.648438 21.195312 40.019531 20.519531 C 39.011719 19.417969 38.972656 19.207031 39.179688 15.484375 C 39.558594 8.460938 40.0625 5.289062 41.066406 3.851562 C 42.621094 1.648438 44.96875 0.71875 49.332031 0.507812 C 53.820312 0.296875 55.5 0.886719 57.429688 3.34375 C 58.519531 4.695312 58.6875 5.414062 59.105469 9.476562 C 59.777344 16.078125 59.695312 17.769531 58.8125 18.785156 C 58.351562 19.292969 57.804688 20.773438 57.511719 22.085938 C 57.21875 23.394531 56.714844 24.707031 56.378906 24.960938 C 55.539062 25.679688 55.667969 27.332031 56.632812 28.261719 C 57.386719 28.9375 62.964844 30.503906 67.328125 31.179688 C 69.425781 31.519531 71.773438 32.957031 73.117188 34.777344 C 74.796875 36.976562 77.648438 45.058594 77.984375 48.484375 C 78.320312 51.65625 79.199219 53.644531 82.765625 59.019531 C 85.242188 62.785156 86.75 65.957031 87.378906 68.792969 C 88.21875 72.429688 88.597656 72.894531 91.113281 73.785156 C 92.75 74.335938 93.925781 75.136719 95.558594 76.914062 C 97.617188 79.15625 97.785156 79.453125 97.574219 80.976562 C 97.449219 82.203125 97.574219 82.921875 98.203125 83.683594 C 98.664062 84.320312 99 85.375 99 86.351562 L 99 88 L 87.253906 88 L 85.535156 86.433594 C 84.277344 85.25 82.933594 82.964844 80.375 77.847656 C 75.800781 68.625 68.921875 57.960938 67.496094 57.960938 C 67.328125 57.960938 67.117188 58.597656 67.035156 59.359375 C 66.824219 60.839844 65.316406 68.582031 64.519531 72.304688 C 63.847656 75.351562 64.644531 81.105469 66.113281 83.558594 C 66.65625 84.53125 67.117188 85.925781 67.117188 86.644531 L 67.117188 88 L 33.140625 88 L 33.140625 86.984375 C 33.140625 86.433594 33.515625 83.8125 33.980469 81.1875 C 34.902344 75.773438 34.984375 74.164062 34.441406 71.964844 C 34.230469 71.121094 33.515625 67.648438 32.886719 64.222656 C 32.257812 60.753906 31.585938 57.960938 31.460938 57.960938 C 30.121094 57.960938 22.527344 69.636719 18.667969 77.71875 C 17.15625 80.851562 15.941406 83.601562 15.941406 83.894531 C 15.941406 84.191406 15.648438 85.164062 15.351562 86.097656 L 14.765625 87.789062 L 7.382812 87.914062 L 0 88 Z M 57.09375 59.359375 L 57.972656 57.328125 L 56.882812 55.296875 C 56.296875 54.195312 55.792969 52.925781 55.792969 52.503906 C 55.792969 51.871094 55.457031 51.65625 54.242188 51.53125 C 52.941406 51.402344 52.644531 51.191406 52.183594 49.921875 L 51.679688 48.441406 L 51.640625 49.796875 C 51.597656 50.683594 51.179688 51.53125 50.339844 52.375 C 49.5 53.222656 49.082031 54.070312 49.082031 54.914062 C 49.082031 56.058594 49.289062 56.226562 51.011719 56.734375 C 52.183594 57.074219 53.191406 57.707031 53.527344 58.300781 C 53.863281 58.808594 54.40625 59.695312 54.742188 60.289062 C 55.121094 60.878906 55.582031 61.347656 55.792969 61.347656 C 56.003906 61.347656 56.589844 60.457031 57.09375 59.359375 Z M 57.09375 59.359375 "
    />
    <path
      style="stroke: none; fill-rule: nonzero; fill: rgb(87.058824%, 83.137255%, 63.921569%); fill-opacity: 1"
      d="M 0 86.136719 C 0 85.082031 0.167969 84.109375 0.417969 83.980469 C 0.628906 83.855469 0.921875 82.796875 1.089844 81.613281 C 1.300781 80.046875 1.636719 79.328125 2.347656 78.820312 C 2.894531 78.480469 3.355469 77.847656 3.355469 77.464844 C 3.355469 76.324219 5.453125 74.671875 7.886719 73.785156 C 10.109375 73.023438 11.328125 71.667969 11.328125 70.0625 C 11.328125 68.875 13.089844 64.179688 14.222656 62.363281 C 14.808594 61.347656 16.402344 58.765625 17.703125 56.609375 C 20.429688 52.164062 21.183594 50.21875 22.066406 45.691406 C 22.988281 40.953125 24.582031 35.960938 25.757812 34.183594 C 26.890625 32.578125 29.449219 31.476562 34.398438 30.503906 C 38.71875 29.699219 42.328125 28.855469 42.746094 28.558594 C 43.460938 28.132812 43.292969 26.441406 42.410156 25.636719 C 41.992188 25.257812 41.53125 24.199219 41.363281 23.3125 C 41.234375 22.421875 40.648438 21.195312 40.0625 20.5625 C 39.136719 19.546875 39.011719 19.039062 39.011719 16.160156 C 39.011719 11.210938 40.019531 5.375 41.109375 3.808594 C 42.328125 2.117188 44.59375 0.972656 47.863281 0.464844 C 53.109375 -0.378906 54.199219 -0.0859375 56.882812 2.835938 C 58.8125 4.90625 58.9375 5.332031 59.398438 13.242188 C 59.652344 17.429688 59.609375 17.855469 58.855469 18.742188 C 58.394531 19.25 57.804688 20.773438 57.511719 22.085938 C 57.21875 23.394531 56.714844 24.707031 56.378906 24.960938 C 55.539062 25.679688 55.667969 27.332031 56.632812 28.261719 C 57.386719 28.9375 62.964844 30.503906 67.328125 31.179688 C 69.425781 31.519531 71.773438 32.957031 73.117188 34.777344 C 74.796875 36.976562 77.648438 45.058594 77.984375 48.484375 C 78.320312 51.65625 79.199219 53.644531 82.765625 59.019531 C 85.242188 62.785156 86.75 65.957031 87.378906 68.792969 C 88.21875 72.429688 88.597656 72.894531 91.113281 73.785156 C 92.75 74.335938 93.925781 75.136719 95.558594 76.914062 C 97.617188 79.15625 97.785156 79.453125 97.574219 80.976562 C 97.449219 82.203125 97.574219 82.921875 98.203125 83.683594 C 98.664062 84.320312 99 85.375 99 86.351562 C 99 87.703125 98.875 88 98.160156 88 C 97.488281 88 97.363281 87.789062 97.574219 86.816406 C 97.785156 85.84375 97.449219 85.207031 95.894531 83.304688 C 94.847656 82.078125 93.589844 80.636719 93.128906 80.214844 C 91.699219 78.820312 92.203125 78.648438 94.386719 79.75 C 95.519531 80.34375 96.484375 80.722656 96.484375 80.554688 C 96.484375 80.425781 95.644531 79.328125 94.636719 78.101562 C 93.167969 76.40625 92.246094 75.730469 90.441406 75.136719 C 87.507812 74.125 87.003906 73.574219 86.289062 70.441406 C 85.492188 67.140625 83.980469 63.757812 81.800781 60.457031 C 78.152344 54.914062 76.765625 51.910156 76.765625 49.585938 C 76.765625 47.511719 74.667969 41.039062 72.65625 36.890625 C 71.859375 35.199219 68.417969 32.578125 67.035156 32.578125 C 65.105469 32.578125 56.167969 30.125 55.371094 29.402344 C 54.910156 28.980469 54.535156 28.175781 54.535156 27.625 C 54.535156 26.484375 54.199219 26.398438 52.941406 27.332031 C 51.304688 28.472656 48.660156 28.726562 46.480469 27.839844 L 44.464844 27.078125 L 44.464844 28.050781 C 44.464844 28.558594 44.296875 29.234375 44.128906 29.53125 C 43.921875 29.828125 41.152344 30.628906 37.921875 31.308594 C 28.191406 33.378906 27.894531 33.507812 26.34375 36.554688 C 25.378906 38.457031 23.703125 44.167969 23.324219 46.960938 C 22.738281 50.8125 20.972656 54.703125 17.117188 60.542969 C 15.019531 63.800781 13.507812 67.183594 12.710938 70.441406 C 11.996094 73.574219 11.492188 74.125 8.597656 75.136719 C 7.300781 75.5625 5.832031 76.367188 5.328125 76.957031 L 4.40625 77.972656 L 5.328125 77.464844 C 5.832031 77.210938 6.375 76.789062 6.503906 76.578125 C 6.628906 76.324219 7.257812 76.152344 7.800781 76.152344 C 9.480469 76.152344 14.554688 72.9375 15.941406 70.992188 C 17.15625 69.34375 17.535156 68.117188 16.90625 68.117188 C 16.695312 68.117188 15.941406 68.496094 15.226562 68.960938 C 14.472656 69.425781 13.84375 69.597656 13.84375 69.382812 C 13.84375 69.128906 14.136719 68.835938 14.472656 68.707031 C 14.933594 68.539062 15.019531 68.15625 14.851562 67.523438 C 14.597656 66.761719 14.640625 66.71875 15.226562 67.226562 C 16.023438 67.863281 17.199219 67.566406 17.199219 66.71875 C 17.199219 65.621094 19.757812 62.871094 22.191406 61.304688 C 25.421875 59.230469 26.554688 57.625 26.722656 54.621094 L 26.890625 52.25 L 26.050781 53.308594 C 25.589844 53.898438 25.167969 54.492188 25.167969 54.621094 C 25.167969 54.789062 24.371094 55.421875 23.449219 56.058594 C 21.773438 57.15625 21.5625 56.648438 23.238281 55.464844 C 24.035156 54.875 24.035156 54.832031 23.238281 54.535156 C 22.527344 54.238281 22.570312 54.195312 23.492188 54.195312 C 24.246094 54.152344 24.875 53.644531 25.757812 52.207031 C 26.847656 50.429688 26.929688 50.132812 26.511719 48.90625 C 25.296875 45.566406 26.46875 40.699219 28.902344 38.878906 C 29.824219 38.203125 30.203125 37.570312 30.203125 36.722656 C 30.203125 36.003906 30.371094 35.582031 30.621094 35.75 C 30.832031 35.875 31.042969 36.382812 31.042969 36.851562 C 31.042969 37.527344 31.167969 37.613281 31.839844 37.230469 C 33.769531 36.214844 38.425781 37.484375 39.9375 39.472656 C 40.3125 39.980469 40.734375 40.277344 40.859375 40.191406 C 41.195312 39.8125 41.320312 34.101562 40.984375 33 C 40.691406 32.027344 40.691406 32.027344 41.152344 32.789062 C 41.90625 34.058594 41.90625 34.058594 42.621094 33.085938 C 43.207031 32.195312 44.382812 31.730469 43.878906 32.535156 C 43.710938 32.746094 43.878906 33.042969 44.128906 33.125 C 44.464844 33.296875 44.425781 33.378906 43.960938 33.378906 C 43.292969 33.421875 41.949219 35.582031 41.949219 36.679688 C 41.949219 37.90625 46.058594 36.003906 46.941406 34.355469 C 47.191406 33.847656 47.152344 33.253906 46.730469 32.578125 C 46.4375 31.984375 46.1875 31.222656 46.1875 30.882812 C 46.1875 30.546875 46.4375 30.84375 46.730469 31.519531 L 47.277344 32.789062 L 47.613281 31.730469 C 47.90625 30.757812 47.988281 30.757812 48.242188 31.476562 C 48.492188 32.238281 48.578125 32.195312 49.625 31.054688 C 50.253906 30.375 50.757812 30.039062 50.757812 30.292969 C 50.757812 30.546875 50.085938 31.308594 49.289062 32.027344 C 48.492188 32.746094 47.820312 33.632812 47.820312 33.972656 C 47.820312 34.863281 44.550781 37.613281 42.996094 37.992188 C 41.90625 38.289062 41.738281 38.542969 41.613281 39.894531 C 41.53125 40.742188 41.402344 41.460938 41.277344 41.460938 C 41.195312 41.460938 40.269531 40.785156 39.179688 39.980469 C 37.460938 38.625 37 38.5 34.609375 38.5 C 33.140625 38.5 31.796875 38.710938 31.671875 38.921875 C 31.503906 39.175781 31.839844 40.277344 32.382812 41.375 C 34.1875 45.058594 37.25 45.902344 46.269531 45.058594 C 49.417969 44.761719 49.625 44.804688 50.675781 45.777344 C 51.304688 46.371094 52.101562 46.960938 52.519531 47.089844 C 52.898438 47.214844 53.316406 47.890625 53.484375 48.613281 C 53.863281 50.386719 54.367188 50.558594 54.871094 49.121094 C 55.246094 48.105469 55.457031 47.933594 56.421875 48.144531 C 57.511719 48.359375 57.554688 48.441406 57.300781 50.21875 C 57.09375 51.785156 57.261719 52.417969 58.140625 53.984375 C 58.730469 55 59.230469 56.480469 59.230469 57.242188 C 59.230469 58.933594 57.636719 62.574219 56.757812 62.910156 C 55.539062 63.375 53.945312 62.402344 52.898438 60.542969 C 52.058594 59.144531 51.386719 58.597656 49.960938 58.089844 C 48.199219 57.496094 48.117188 57.496094 47.488281 58.425781 C 47.109375 58.976562 45.722656 60.585938 44.425781 62.066406 C 40.230469 66.71875 39.304688 71.160156 42.160156 72.515625 C 44.464844 73.65625 46.4375 73.402344 47.863281 71.839844 C 48.535156 71.078125 49.082031 70.738281 49.082031 71.035156 C 49.082031 71.375 49.375 71.5 49.917969 71.375 C 50.382812 71.246094 50.675781 71.332031 50.546875 71.5 C 50.421875 71.710938 49.75 71.964844 49.082031 72.132812 C 47.613281 72.472656 47.066406 73.148438 47.863281 73.65625 C 48.15625 73.828125 48.285156 74.125 48.15625 74.292969 C 47.988281 74.460938 48.03125 74.925781 48.285156 75.351562 C 48.828125 76.40625 48.15625 76.367188 47.488281 75.308594 C 47.191406 74.800781 46.523438 74.460938 45.808594 74.460938 C 45.179688 74.417969 43.921875 74.164062 42.996094 73.828125 C 40.816406 73.023438 40.566406 73.402344 42.367188 74.925781 C 45.011719 77.125 45.722656 77.972656 45.722656 78.945312 C 45.722656 79.625 45.558594 79.875 45.136719 79.707031 C 44.214844 79.328125 43.921875 80.34375 44.632812 81.441406 C 45.390625 82.585938 45.515625 83.09375 44.925781 82.753906 C 44.71875 82.585938 44.464844 82.625 44.339844 82.796875 C 44.257812 83.007812 44.257812 82.878906 44.339844 82.542969 C 44.59375 81.613281 43.585938 80.765625 42.621094 81.0625 C 41.992188 81.273438 42.117188 81.019531 43.125 80.171875 C 43.878906 79.539062 44.464844 78.691406 44.382812 78.355469 C 44.296875 78.015625 43.417969 77.085938 42.367188 76.367188 C 39.851562 74.589844 39.347656 73.53125 39.601562 70.484375 C 39.851562 67.355469 41.867188 63.164062 45.347656 58.511719 C 47.191406 56.015625 47.820312 54.875 47.820312 53.816406 C 47.820312 52.800781 48.199219 52.039062 49.082031 51.109375 C 50.085938 50.09375 50.253906 49.710938 49.878906 49.246094 C 49.5 48.78125 49.542969 48.484375 49.917969 48.019531 C 50.382812 47.46875 50.339844 47.257812 49.667969 46.75 C 47.988281 45.480469 43.921875 46.199219 41.488281 48.1875 C 40.1875 49.289062 39.9375 49.839844 39.683594 51.699219 C 39.515625 52.925781 39.390625 54.789062 39.390625 55.847656 C 39.390625 57.625 39.347656 57.664062 38.972656 56.609375 C 38.71875 55.929688 38.339844 55.421875 38.132812 55.421875 C 37.964844 55.421875 37.878906 55.125 38.007812 54.789062 C 38.214844 54.324219 38.089844 54.238281 37.628906 54.40625 C 37.25 54.535156 36.621094 54.449219 36.203125 54.195312 C 35.574219 53.859375 35.699219 53.773438 36.875 53.816406 C 38.46875 53.859375 39.433594 52.925781 39.433594 51.277344 C 39.433594 50.472656 39.265625 50.304688 38.71875 50.558594 C 38.300781 50.769531 37.292969 50.9375 36.496094 51.023438 C 35.699219 51.109375 35.40625 51.066406 35.824219 50.9375 C 36.539062 50.726562 36.496094 50.601562 35.40625 49.667969 L 34.1875 48.652344 L 35.824219 49.332031 C 37.710938 50.09375 38.59375 49.796875 40.480469 47.808594 L 41.570312 46.625 L 39.347656 46.371094 C 36.578125 45.988281 33.222656 44.210938 32.089844 42.476562 C 30.035156 39.21875 30.328125 39.429688 29.238281 40.785156 C 27.601562 42.6875 27.308594 44.550781 27.519531 50.683594 C 27.644531 53.773438 27.644531 56.777344 27.519531 57.328125 C 27.183594 58.597656 25 60.710938 23.070312 61.601562 C 20.972656 62.574219 20.136719 63.460938 20.136719 64.5625 C 20.136719 65.113281 20.472656 65.746094 20.890625 65.957031 C 21.269531 66.210938 21.351562 66.421875 21.101562 66.421875 C 20.808594 66.421875 20.554688 66.761719 20.511719 67.183594 C 20.511719 67.609375 20.21875 67.269531 19.84375 66.421875 L 19.210938 64.941406 L 18.625 66.378906 C 18.289062 67.140625 18.039062 68.242188 18.039062 68.792969 C 18.039062 69.382812 17.746094 70.527344 17.367188 71.414062 C 16.988281 72.261719 16.445312 73.785156 16.152344 74.757812 C 15.605469 76.578125 12.417969 82.035156 11.578125 82.585938 C 11.285156 82.796875 11.328125 82.921875 11.703125 82.921875 C 12.039062 82.921875 12.207031 83.007812 12.082031 83.132812 C 11.660156 83.558594 8.347656 82.839844 7.71875 82.203125 C 7.003906 81.484375 6.921875 78.988281 7.59375 77.761719 C 7.84375 77.296875 7.886719 77 7.675781 77.125 C 6.585938 77.804688 2.683594 80.46875 2.515625 80.679688 C 2.390625 80.808594 3.3125 80.425781 4.488281 79.792969 C 5.707031 79.199219 6.710938 78.820312 6.710938 78.988281 C 6.710938 79.199219 5.496094 80.636719 3.984375 82.246094 C 1.300781 85.164062 0.753906 86.476562 1.761719 87.492188 C 2.140625 87.875 2.011719 88 1.132812 88 C 0.0820312 88 0 87.875 0 86.136719 Z M 11.871094 80.933594 C 12.417969 80.046875 13.421875 78.480469 14.054688 77.464844 L 15.1875 75.605469 L 13.886719 76.535156 C 12.921875 77.253906 12.292969 77.421875 11.160156 77.210938 C 10.109375 77 9.523438 77.125 8.851562 77.675781 C 7.214844 79.117188 8.011719 82.5 10.027344 82.5 C 10.445312 82.5 11.285156 81.78125 11.871094 80.933594 Z M 14.261719 74.671875 C 15.941406 72.894531 15.648438 72.769531 13.507812 74.335938 C 11.160156 76.070312 11.074219 76.152344 11.996094 76.152344 C 12.457031 76.152344 13.464844 75.476562 14.261719 74.671875 Z M 51.976562 26.398438 C 55.039062 24.625 55.875 23.480469 56.378906 20.519531 C 56.546875 19.589844 57.09375 18.402344 57.554688 17.894531 C 58.351562 17.050781 58.394531 16.667969 58.097656 14.089844 C 57.933594 12.523438 57.722656 10.070312 57.597656 8.671875 C 57.386719 5.457031 56.296875 3.722656 53.863281 2.496094 C 50.339844 0.804688 44.003906 2.074219 42.160156 4.90625 C 41.738281 5.585938 41.363281 7.148438 41.234375 8.84375 C 41.152344 10.367188 40.859375 12.058594 40.605469 12.566406 C 40.019531 13.75 40.355469 19.125 41.027344 19.375 C 41.738281 19.589844 42.789062 21.746094 42.789062 23.015625 C 42.789062 23.691406 43.332031 24.453125 44.425781 25.34375 C 47.488281 27.796875 49.164062 28.007812 51.976562 26.398438 Z M 51.976562 26.398438 "
    />
    <path
      style="stroke: none; fill-rule: nonzero; fill: rgb(87.058824%, 83.137255%, 63.921569%); fill-opacity: 1"
      d="M 13.886719 85.800781 C 14.304688 84.574219 14.683594 83.261719 14.683594 82.878906 C 14.683594 82.5 15.226562 81.1875 15.898438 79.917969 C 16.527344 78.648438 17.242188 77.210938 17.410156 76.660156 C 18.332031 73.574219 26.21875 61.050781 29.574219 57.328125 C 30.621094 56.183594 31.460938 55.085938 31.460938 54.914062 C 31.460938 54.113281 30.035156 49.246094 29.324219 47.554688 C 28.820312 46.496094 28.566406 45.480469 28.734375 45.355469 C 29.449219 44.59375 31.125 49.375 32.929688 57.242188 C 36.035156 71.160156 36.539062 75.519531 35.53125 80.679688 C 35.152344 82.5 34.734375 84.871094 34.566406 86.011719 C 34.398438 87.28125 34.105469 88 33.726562 88 C 32.929688 88 32.972656 86.898438 33.980469 81.1875 C 34.902344 75.773438 34.984375 74.164062 34.441406 71.964844 C 34.230469 71.121094 33.515625 67.648438 32.886719 64.222656 C 32.257812 60.753906 31.585938 57.960938 31.460938 57.960938 C 30.121094 57.960938 22.527344 69.636719 18.667969 77.71875 C 17.15625 80.851562 15.941406 83.601562 15.941406 83.894531 C 15.898438 85.375 14.683594 87.789062 13.925781 87.914062 L 13.046875 88.042969 Z M 65.859375 87.070312 C 65.859375 86.5625 65.398438 85.375 64.851562 84.402344 C 63.554688 82.160156 62.757812 77.804688 63.050781 74.125 C 63.554688 66.847656 67.789062 48.613281 69.636719 45.691406 C 70.433594 44.378906 70.515625 45.691406 69.675781 47.554688 C 68.964844 49.246094 67.539062 54.113281 67.539062 54.914062 C 67.539062 55.085938 68.378906 56.183594 69.425781 57.328125 C 72.78125 61.050781 80.667969 73.574219 81.589844 76.660156 C 82.304688 78.988281 85.410156 84.109375 87.171875 85.882812 C 88.933594 87.621094 89.015625 87.789062 88.175781 87.914062 C 87.589844 88 86.792969 87.578125 85.910156 86.730469 C 85.199219 86.011719 84.148438 85.125 83.605469 84.742188 C 83.101562 84.402344 82.640625 83.726562 82.640625 83.261719 C 82.640625 81.90625 77.144531 71.160156 73.664062 65.789062 C 70.558594 61.007812 68.167969 57.960938 67.496094 57.960938 C 67.328125 57.960938 67.117188 58.597656 67.035156 59.359375 C 66.824219 60.839844 65.316406 68.582031 64.519531 72.304688 C 63.847656 75.351562 64.644531 81.105469 66.113281 83.558594 C 67.246094 85.589844 67.496094 88 66.488281 88 C 66.113281 88 65.859375 87.621094 65.859375 87.070312 Z M 91.03125 87.578125 C 91.03125 87.324219 91.492188 87.238281 92.203125 87.40625 C 93.839844 87.832031 93.882812 88 92.371094 88 C 91.617188 88 91.03125 87.789062 91.03125 87.578125 Z M 91.03125 87.578125 "
    />
  </g>
</svg>
