<svg xmlns="http://www.w3.org/2000/svg" id="root" viewBox="220 923.67 20950 18184.39">
  <path d="m7268 19103-38-4 2-112c0-62 3-96 5-77 10 96 26 145 55 172 17 15 26 27 22 26-5-1-26-3-46-5z" />
  <path
    d="m18741 19102-63-3-192-173c-105-95-202-186-216-202s17 10 68 56c210 193 318 266 432 296 98 25 220 0 220-45 0-31-58-101-230-276-206-209-351-388-529-655-247-368-390-608-537-901-108-215-150-312-214-490-283-783-1820-3198-2584-4058-212-239-336-393-370-460-22-42-16-83 59-376 103-406 243-845 386-1212 101-259 137-405 113-467-19-49-101 29-165 157-124 245-310 802-480 1436-404 1505-761 3286-866 4321-24 237-24 728 1 954 32 305 105 669 174 881 62 187 106 291 217 509 116 229 177 388 189 496 14 111 26 148 62 180l35 30H7386l27-27c61-65 83-144 152-563 56-339 96-555 140-770 193-943 179-1566-71-2955-142-794-470-2283-659-3000-134-507-285-993-387-1249-77-194-172-361-218-386-45-24-80-1-80 53 0 60 54 225 140 427 124 294 391 1178 440 1461 10 58 9 71-6 100-34 67-158 221-370 460-451 507-1202 1591-1856 2679-129 214-358 607-358 615 0 2-24 45-53 97-110 194-254 494-303 630-47 131-109 268-264 583-270 549-319 666-334 785-8 68-64 283-112 433-49 154-205 569-218 583-8 8-224 15-731 23-1246 19-1682 22-1657 11 34-14 27-44-24-102-142-159-119-328 84-616 108-155 153-208 567-663 247-272 405-463 405-491 0-37-225 44-492 178-305 152-439 207-371 150 98-82 1037-714 1075-724 30-7 22 32-26 137-75 164-102 310-93 510 6 146 27 251 68 338 45 95 101 133 289 196 292 98 645 136 684 75 13-22 7-28-40-34-89-12-104-15-104-27 0-6 26-36 58-67 154-147 477-652 728-1135 131-253 174-354 269-634 46-135 111-313 145-396 142-346 192-520 209-730 16-197 73-383 228-744l19-44 68 159c108 252 159 344 190 344 8 0 16-18 20-49 8-60 54-128 93-137 49-10 53-13 53-34 0-13-21-36-62-66-74-54-100-84-133-157-60-131-37-283 61-404 97-119 217-203 484-338 296-149 465-269 676-479 208-209 297-351 314-506 14-125 12-792-5-1285-29-863-14-1247 61-1544 56-223 127-359 305-582 122-152 159-189 190-189 48 0 118 90 330 425 93 147 131 197 209 275 152 153 320 269 567 394 337 170 618 250 1038 296 105 11 207 23 228 26l37 6-21 26c-49 64-339 359-413 421-184 155-280 196-451 195-129-1-195-19-471-134-93-38-169-68-171-66s70 64 160 139c194 161 260 228 255 259-3 23-20 34-98 67l-45 20h80c157 2 438-49 598-108 33-12 68-19 79-15 33 10 48 64 48 177 0 172-42 291-137 386-106 105-219 140-453 141-162 0-190 8-150 42 44 37 143 77 221 89 65 9 85 9 132-5 106-31 120-19 92 74-25 84-16 120 37 145 56 27 113 114 169 253 49 124 59 140 71 119 4-8 10-124 13-258 16-668 75-1140 165-1319 92-183 323-383 610-529 283-144 595-221 898-221 176 0 293 21 403 72 87 41 190 123 209 167 17 41 8 68-44 137-96 129-98 175-11 293 57 78 26 154-140 331-233 250-288 360-305 602-18 256-104 419-516 983-424 578-622 892-834 1315-300 600-413 1029-397 1518 13 410 133 599 582 917 259 183 435 363 435 445 0 69-112 227-241 340-125 109-209 193-209 208 0 11 8 13 38 8 20-4 72-9 114-12 67-5 83-3 131 19 63 28 115 78 142 133 21 42 26 130 12 196l-8 38 26-26c22-22 33-25 62-21 20 4 43 13 53 22 9 8 29 15 43 15 23 0 27-4 27-29 0-33-45-122-126-249-108-171-124-321-39-376 22-15 38-17 79-11 133 17 131 17 149-3 45-50 40-218-11-322-60-123-254-324-572-592-270-227-361-327-343-374 9-24 135-13 238 19 44 14 136 43 205 65 155 50 337 91 455 104 276 29 350 65 455 218 64 94 146 156 179 135 20-12 11-57-30-149-50-113-58-163-34-216 22-49 14-85-26-119-17-14-46-39-65-56-98-85-17-195 190-259 45-13 128-39 186-56 150-46 230-89 230-125 0-20-53-28-113-15-120 25-197 8-197-44 0-78-78-40-225 109-129 131-198 186-293 234-128 64-200 82-352 88-151 6-235-6-394-58-212-70-366-168-448-286-44-65-86-189-99-293-45-374 186-921 616-1455 44-55 188-224 320-375 311-356 453-524 535-635 129-172 152-180 357-120 156 45 321 111 412 165 111 64 229 183 319 320 184 282 227 337 338 431 125 107 272 169 397 169 94 0 140-16 196-66 117-105 278-413 379-725 82-250 99-415 63-579-36-160-127-389-205-518-58-97-125-238-158-335-43-127-48-262-19-483 36-274 28-335-48-373-54-28-237-64-285-56-84 13-115 48-180 207-53 132-87 190-120 208-24 12-29 11-54-6-39-29-77-114-117-265-59-219-115-303-248-367-93-46-204-126-322-232-113-102-187-155-253-182-53-21-70-23-257-22-128 0-279 8-420 22-1043 104-1729 87-2170-55-379-122-612-332-806-728-84-172-143-336-154-426-11-89 14-105 207-134 260-40 737-38 900 4 144 37 250 96 453 251 157 119 467 340 479 340 22 0 49-122 71-323 32-295 56-329 282-405 152-51 235-93 383-192 169-113 309-227 441-359 133-132 193-217 209-297 20-95 92-187 330-424 207-206 290-304 290-342 0-11-7-18-18-18-35 0-108 59-255 208-90 92-158 153-174 157-35 9-54-14-82-98-24-71-46-107-65-107-18 0-19 3-85 204l-56 169-73-164c-72-164-124-259-141-259-18 0-19 29-6 97 19 88 35 131 106 283 68 146 84 211 69 290-26 139-197 314-457 466-261 154-538 229-603 164-77-77 82-467 268-658 65-66 93-83 154-91 31-3 53-11 53-18s-21-26-47-42c-58-37-70-75-39-125 51-82 6-100-98-39-69 41-112 85-214 216-58 75-71 87-98 87-37 0-64-27-127-130-92-150-113-182-117-178-3 3 6 42 20 89 43 149 47 200 52 601 6 466-12 822-48 936-8 23-17 32-32 32-29 0-101-60-164-136-119-142-256-243-465-344-291-139-584-210-871-210-183 0-267 16-397 75-145 67-151 63-164-105-7-84-30-152-67-191-61-65-95-11-108 172-16 217-64 297-286 474-266 212-462 572-550 1010-37 184-48 326-42 529 7 217 28 344 92 540 55 168 64 248 40 331-45 158-266 515-401 652-100 100-170 134-289 140-157 7-168 16-72 57 152 65 176 86 146 123-7 8-65 55-129 103-125 95-234 203-227 223 12 35 147-19 297-119 115-77 257-184 304-231 21-21 47-56 56-78 10-22 43-76 75-120 69-96 277-356 282-351 5 4-35 548-48 651-25 205-98 418-194 566-152 235-326 390-770 686-353 235-677 531-881 805-95 127-143 225-154 312-14 115-89 178-210 180-83 1-140-20-219-80-61-46-101-66-101-49 0 2 12 50 26 106 33 128 30 177-17 225-18 19-38 34-44 34-23 0-106 61-125 92-41 67-18 88 68 62 68-19 169-69 265-131 83-53 240-130 285-139 40-8 72 23 72 69 0 88-84 267-215 458-155 226-454 488-844 738-409 263-722 402-949 421-160 13-201 29-270 101-31 34-93 84-137 113-91 61-275 161-275 150 0-3 55-65 121-136 197-209 362-305 789-458 374-134 523-229 633-402 72-113 99-190 188-533 106-414 201-687 366-1060 139-314 346-696 536-990 341-528 504-793 654-1060 121-214 341-664 412-842 126-315 225-653 270-928 72-429 139-724 265-1162 230-798 441-1296 644-1515 211-228 540-339 1797-608 932-199 1242-275 1521-371 194-66 196-69 235-203 16-53 22-111 26-234 5-145 7-162 22-157 9 4 122 46 251 95 399 149 468 164 755 164 168 0 216-4 302-22 196-42 333-101 492-209 193-132 264-146 295-58 4 11 11 65 16 121 10 117 35 192 95 284 58 88 97 123 185 163 331 153 1513 479 2090 578 63 11 167 24 230 29 132 11 215 36 347 104 198 102 452 293 629 472 167 169 234 269 353 531 331 725 662 1717 755 2263 8 47 17 139 21 205 8 155 21 247 51 366 106 424 422 1025 974 1854 504 756 795 1396 996 2185 84 331 126 445 202 557 111 163 269 259 627 382 225 78 431 178 550 267 172 130 399 377 648 706 52 69 103 140 112 157 15 30 15 31-5 31-39 0-147-43-350-140-394-189-510-224-510-155 0 34 55 102 209 260 297 303 658 729 793 935 111 170 135 265 104 414-27 132-19 202 28 224 15 7-123 11-462 14-265 2-482 0-482-4 0-5 9-8 19-8 38 0 32-20-11-39-88-37-300-91-362-91-46 0-95 19-107 41-15 28 30 65 97 80 30 7 52 14 50 16-4 5-806 9-895 5zM221 19003c1-84 3-91 9-48 10 69 35 114 73 130l32 14-57 1h-58l1-97z"
  />
  <path
    d="M14364 19071c15-16 34-46 41-67l14-39 1 68v67h-84l28-29zM21087 19085c38-16 60-55 72-127 8-50 9-47 10 45l1 97h-57l-58-1 32-14zM3282 19002c30-31 79-98 108-149 30-51 55-91 56-90 2 1-21 69-49 150l-52 147h-118l55-58zM2229 17931c-111-35-199-123-260-256-83-184-78-426 12-596 19-35 59-85 98-122 133-125 262-159 467-123 153 27 216 29 305 12 112-23 185-62 386-204 92-65 174-122 181-126 11-7-36 73-215 364-163 265-496 777-542 834-66 81-177 178-243 212-57 29-110 30-189 5zM497 17468c8-62 46-137 93-183l41-40-40 61c-23 34-53 92-67 130-31 84-34 87-27 32zM2655 16606c-20-14-19-15 15-52 52-55 525-406 647-480 94-57 153-79 153-56 0 30-157 219-276 334-77 73-232 186-313 226-86 43-190 56-226 28zM16405 15450c-9-16-13-30-11-30 3 0 12 14 21 30 9 17 13 30 11 30-3 0-12-13-21-30zM16215 15128c-92-156-238-395-324-533-156-249-194-315-128-220 131 190 641 1035 624 1035-2 0-79-127-172-282zM10380 6376c-161-36-347-124-532-252-295-205-490-398-546-539-11-28-25-98-31-156-18-170-69-325-158-486-64-114-125-188-187-228-41-26-58-45-74-84-67-153-109-553-99-926 6-230 20-324 66-451 55-151 99-411 126-739 32-403 107-714 209-867 49-75 196-213 293-278 390-259 1029-407 1553-361 225 20 369 52 532 117 378 151 667 442 776 784 65 202 79 297 137 955 25 281 57 609 70 730 47 412 44 548-10 655-13 25-55 83-94 130-79 95-162 247-209 381-17 48-44 154-61 236-106 522-249 740-664 1017-323 215-554 324-766 361-99 18-254 18-331 1zM12813 3825c0-44 2-61 4-37 2 23 2 59 0 80-2 20-4 1-4-43zM12802 3619c-1-36-4-102-7-145l-4-79 10 70c5 39 8 104 6 145l-3 75-2-66zM12782 3320c0-19 2-27 5-17 2 9 2 25 0 35-3 9-5 1-5-18zM8761 1784c-1-15 30-106 35-101 2 2-5 28-15 58-11 30-20 49-20 43zM12386 1373c-32-38-124-138-205-223-80-85-123-136-96-114 76 63 232 229 303 322 35 45 62 82 60 82-3 0-30-30-62-67zM9104 1227c72-70 155-134 236-181 66-39 227-115 258-122 15-3-17 15-72 40-160 74-315 173-433 278-47 41-45 38 11-15z"
  />
</svg>
