<svg xmlns="http://www.w3.org/2000/svg" id="root" viewBox="0 0 100 59">
  <path
    d="M 1.023438 55.148438 C 0.953125 50.273438 0.660156 45.210938 0.328125 43.414062 C -0.21875 40.410156 -0.0351562 22.148438 0.550781 21.78125 C 0.695312 21.671875 0.84375 20.972656 0.84375 20.203125 C 0.84375 18.445312 1.097656 17.050781 1.757812 14.925781 C 2.050781 13.933594 2.195312 13.164062 2.050781 13.164062 C 1.902344 13.164062 1.976562 13.015625 2.160156 12.871094 C 2.378906 12.722656 2.929688 11.769531 3.40625 10.707031 C 3.882812 9.679688 4.722656 8.324219 5.273438 7.699219 C 5.820312 7.113281 6.226562 6.527344 6.113281 6.417969 C 5.859375 6.160156 11.09375 2.96875 12.230469 2.714844 L 13.769531 2.238281 C 15.195312 1.722656 18.34375 1.832031 19.222656 2.382812 L 19.917969 2.75 C 21.128906 3.042969 23.179688 4.289062 23.03125 4.65625 C 22.921875 4.914062 23.03125 5.023438 23.214844 4.914062 C 23.433594 4.804688 23.582031 4.949219 23.582031 5.242188 C 23.582031 5.609375 23.25 5.832031 22.777344 5.832031 C 21.675781 5.832031 17.6875 7.808594 16.917969 8.726562 C 16.074219 9.71875 16.074219 10.082031 16.878906 10.5625 C 17.246094 10.742188 17.464844 10.964844 17.355469 11.039062 L 15.085938 12.539062 C 13.65625 13.457031 12.960938 14.152344 12.960938 14.628906 C 12.960938 15.035156 12.816406 15.363281 12.597656 15.363281 C 12.414062 15.363281 12.230469 15.730469 12.230469 16.207031 C 12.230469 16.832031 12.15625 16.902344 11.902344 16.464844 C 11.679688 16.171875 11.609375 15.839844 11.71875 15.695312 C 11.972656 15.253906 10.875 14.628906 9.996094 14.742188 C 8.605469 14.960938 7.835938 16.390625 7.761719 18.957031 C 7.652344 20.863281 7.761719 21.339844 8.3125 21.632812 C 8.640625 21.855469 8.933594 22.222656 8.933594 22.476562 C 8.933594 23.101562 9.738281 23.429688 11.132812 23.429688 C 11.71875 23.429688 12.265625 23.578125 12.375 23.726562 C 12.597656 24.054688 12.707031 32.523438 12.523438 33.332031 C 12.191406 34.617188 11.277344 35.53125 10.324219 35.53125 C 9.8125 35.53125 9.117188 35.789062 8.789062 36.082031 C 8.496094 36.375 8.164062 36.632812 8.019531 36.632812 C 7.652344 36.632812 5.933594 38.464844 5.859375 38.941406 L 5.273438 40.480469 C 4.648438 41.875 4.648438 50.457031 5.234375 52.765625 L 5.820312 55.332031 C 5.894531 55.847656 6.113281 56.726562 6.335938 57.277344 L 6.738281 58.449219 C 6.738281 58.523438 5.457031 58.632812 3.917969 58.707031 L 1.0625 58.816406 Z M 1.023438 55.148438 "
  />
  <path
    d="M 7.984375 58.339844 C 8.09375 58.15625 7.910156 57.128906 7.617188 56.03125 C 7.324219 54.929688 6.992188 53.316406 6.882812 52.398438 C 6.773438 51.484375 6.554688 50.492188 6.371094 50.199219 C 6.113281 49.6875 6.1875 46.789062 6.480469 44.882812 C 6.554688 44.441406 6.882812 43.710938 7.214844 43.234375 C 7.542969 42.71875 7.835938 42.132812 7.835938 41.875 C 7.835938 41.617188 8.09375 41.398438 8.386719 41.398438 C 8.714844 41.398438 9.042969 41.179688 9.152344 40.886719 C 9.265625 40.59375 9.777344 40.226562 10.324219 40.078125 C 12.011719 39.640625 15.378906 40.042969 14.976562 40.628906 C 14.902344 40.8125 15.234375 41.324219 15.707031 41.765625 C 16.222656 42.242188 16.625 42.902344 16.625 43.234375 C 16.625 43.5625 16.734375 43.929688 16.84375 44.039062 C 16.953125 44.148438 17.0625 45.6875 17.101562 47.484375 C 17.136719 49.6875 17.320312 50.75 17.648438 50.859375 C 17.867188 50.933594 18.015625 51.152344 17.867188 51.335938 C 17.757812 51.519531 17.867188 51.667969 18.089844 51.667969 C 18.308594 51.667969 18.417969 51.8125 18.308594 51.960938 C 18.199219 52.144531 18.34375 52.691406 18.636719 53.242188 C 18.929688 53.792969 19.078125 54.234375 19.003906 54.234375 C 18.859375 54.234375 19.589844 56.800781 20.101562 58.011719 C 20.359375 58.597656 19.917969 58.632812 14.0625 58.632812 C 10.617188 58.632812 7.871094 58.488281 7.984375 58.339844 Z M 7.984375 58.339844 "
  />
  <path
    d="M 21.382812 57.460938 C 21.128906 56.800781 20.871094 55.957031 20.796875 55.589844 C 20.726562 55.222656 20.394531 54.453125 20.101562 53.867188 C 19.773438 53.242188 19.554688 52.730469 19.589844 52.691406 L 19.1875 51.484375 C 18.453125 49.6875 18.125 48 18.453125 47.816406 C 18.636719 47.707031 18.894531 46.679688 19.039062 45.542969 C 19.40625 42.609375 18.746094 40.226562 17.171875 38.648438 C 15.746094 37.21875 13.4375 35.789062 13 36.082031 C 12.816406 36.15625 13.035156 35.347656 13.4375 34.210938 C 14.023438 32.636719 14.316406 32.269531 14.757812 32.453125 C 15.085938 32.597656 15.671875 32.707031 16.074219 32.746094 C 16.988281 32.78125 18.785156 35.054688 18.820312 36.15625 C 18.820312 36.59375 19.078125 37.21875 19.40625 37.511719 C 19.699219 37.84375 19.882812 38.097656 19.738281 38.097656 C 19.296875 38.097656 20.652344 39.75 21.128906 39.75 C 21.347656 39.785156 21.53125 39.933594 21.492188 40.152344 C 21.457031 40.335938 22.300781 41.4375 23.363281 42.609375 C 24.421875 43.746094 25.230469 44.773438 25.117188 44.882812 C 25.007812 44.957031 25.265625 45.175781 25.632812 45.324219 C 26.511719 45.652344 27.242188 46.347656 27.242188 46.863281 C 27.242188 47.082031 27.5 47.265625 27.792969 47.265625 C 28.085938 47.265625 28.597656 47.851562 28.925781 48.550781 C 29.257812 49.246094 29.660156 49.722656 29.84375 49.613281 C 30.246094 49.355469 30.867188 50.96875 31.234375 53.167969 C 31.453125 54.527344 31.34375 55.222656 30.683594 56.761719 L 29.84375 58.632812 L 21.824219 58.632812 Z M 65.945312 58.414062 C 65.46875 57.9375 66.128906 57.535156 67.375 57.535156 C 68.253906 57.535156 68.621094 57.714844 68.621094 58.082031 C 68.621094 58.449219 68.253906 58.632812 67.410156 58.632812 C 66.714844 58.632812 66.054688 58.523438 65.945312 58.414062 Z M 69.71875 58.304688 C 69.71875 58.121094 70.449219 57.898438 71.292969 57.863281 C 72.390625 57.753906 72.902344 57.863281 72.902344 58.191406 C 72.902344 58.488281 72.316406 58.632812 71.292969 58.632812 C 70.449219 58.632812 69.71875 58.488281 69.71875 58.304688 Z M 73.746094 58.265625 C 73.746094 58.046875 74.441406 57.972656 75.46875 58.121094 C 77.847656 58.375 77.921875 58.632812 75.648438 58.632812 C 74.589844 58.632812 73.746094 58.449219 73.746094 58.265625 Z M 78.324219 57.9375 C 78.101562 57.753906 77.152344 57.535156 76.125 57.460938 C 74.550781 57.351562 74.296875 57.203125 74.367188 56.617188 L 75.027344 51.117188 C 75.0625 50.710938 75.285156 49.90625 75.539062 49.355469 C 75.761719 48.769531 75.941406 48.035156 75.941406 47.707031 C 75.941406 47.265625 76.273438 47.449219 77.042969 48.292969 C 77.773438 49.097656 78.140625 49.320312 78.140625 48.953125 C 78.140625 48.621094 78.394531 48.367188 78.6875 48.367188 C 79.09375 48.367188 79.238281 48.769531 79.238281 49.796875 C 79.238281 51.191406 78.542969 52.289062 78.214844 51.371094 C 78.140625 51.117188 77.921875 50.933594 77.738281 50.933594 C 77.554688 50.933594 77.445312 52.214844 77.445312 53.792969 C 77.480469 55.332031 77.554688 56.324219 77.664062 55.992188 C 77.992188 54.671875 78.871094 55.261719 78.871094 56.800781 C 78.871094 58.375 78.835938 58.449219 78.324219 57.9375 Z M 67.519531 56.507812 C 66.679688 56.398438 66.605469 56.285156 66.714844 54.78125 L 66.863281 53.207031 L 73.78125 53.207031 L 73.597656 54.671875 C 73.527344 55.480469 73.34375 56.214844 73.234375 56.359375 C 72.976562 56.578125 69.058594 56.691406 67.519531 56.507812 Z M 67.265625 51.777344 C 67.046875 51.703125 66.640625 50.675781 66.421875 49.539062 L 65.652344 45.800781 C 65.195312 43.808594 64.902344 41.785156 64.773438 39.75 C 64.664062 38.941406 64.554688 38.0625 64.589844 37.84375 C 64.628906 36.742188 64.738281 36.265625 64.957031 36.265625 C 65.398438 36.265625 69.386719 26.878906 69.058594 26.585938 C 68.949219 26.476562 69.132812 26.363281 69.5 26.363281 C 70.046875 26.363281 71 24.640625 70.816406 23.945312 C 70.78125 23.796875 71 23.542969 71.328125 23.359375 C 71.660156 23.175781 71.914062 22.808594 71.914062 22.550781 C 71.914062 22.074219 73.710938 21.597656 75.6875 21.597656 C 76.636719 21.597656 76.859375 21.890625 76.675781 23.027344 C 76.636719 23.285156 77.078125 23.980469 77.628906 24.566406 C 78.175781 25.15625 78.507812 25.632812 78.285156 25.667969 C 76.710938 25.816406 76.234375 25.960938 75.578125 26.546875 C 75.175781 26.914062 74.84375 27.390625 74.84375 27.613281 C 74.84375 27.832031 75.027344 27.792969 75.285156 27.539062 C 75.539062 27.28125 75.980469 27.097656 76.273438 27.097656 C 76.566406 27.097656 76.164062 27.539062 75.355469 28.050781 C 74.550781 28.601562 73.671875 29.371094 73.378906 29.773438 C 72.757812 30.800781 72.5 32.820312 72.976562 33.113281 C 73.417969 33.40625 73.636719 33.039062 73.78125 31.683594 C 73.890625 30.726562 74.515625 29.921875 76.234375 28.527344 C 76.492188 28.308594 77.589844 28.089844 78.6875 28.089844 C 79.75 28.050781 80.554688 27.90625 80.484375 27.757812 C 80.410156 27.613281 80.484375 27.429688 80.703125 27.28125 C 80.921875 27.136719 81.070312 27.574219 81.070312 28.34375 C 81.070312 29.738281 80.152344 30.25 79.898438 29.042969 C 79.824219 28.566406 79.605469 28.75 79.164062 29.664062 C 78.871094 30.363281 78.507812 31.351562 78.359375 31.863281 C 78.25 32.378906 78.433594 32.160156 78.761719 31.425781 C 79.386719 29.957031 79.972656 29.589844 79.972656 30.691406 C 79.972656 31.71875 78.835938 34.796875 78.46875 34.796875 C 78.285156 34.796875 78.140625 35.054688 78.140625 35.347656 C 78.140625 35.640625 77.921875 35.898438 77.664062 35.898438 C 77.371094 35.898438 77.152344 35.640625 77.152344 35.347656 C 77.152344 35.054688 77.296875 34.796875 77.480469 34.796875 C 77.628906 34.796875 77.773438 34.503906 77.773438 34.175781 C 77.738281 33.773438 77.40625 34.066406 76.859375 34.945312 C 76.382812 35.753906 76.089844 36.558594 76.199219 36.742188 C 76.308594 36.925781 76.527344 36.851562 76.710938 36.59375 C 76.859375 36.339844 77.078125 36.191406 77.1875 36.300781 C 77.589844 36.667969 77.882812 39.894531 77.589844 40.554688 C 77.335938 41.179688 77.296875 41.179688 77.042969 40.480469 C 76.785156 39.933594 76.710938 40.078125 76.710938 41.214844 C 76.710938 42.390625 76.785156 42.535156 77.078125 42.058594 C 77.699219 40.957031 78.03125 41.324219 78.285156 43.269531 C 78.46875 44.515625 78.394531 45.324219 78.140625 45.578125 C 77.882812 45.800781 77.773438 45.835938 77.808594 45.617188 C 77.847656 45.433594 77.808594 44.992188 77.664062 44.699219 L 77.261719 43.597656 C 77.152344 43.304688 77.152344 43.746094 77.261719 44.625 C 77.554688 46.714844 76.601562 46.605469 76.234375 44.515625 C 75.832031 42.316406 75.6875 41.765625 75.210938 39.75 C 74.734375 37.804688 74.589844 36.960938 74.515625 35.640625 C 74.515625 35.164062 74.296875 34.796875 74.074219 34.796875 C 73.78125 34.796875 73.710938 35.496094 73.855469 37.070312 C 74.074219 39.675781 73.671875 40.300781 70.890625 41.546875 L 69.351562 42.242188 L 69.277344 44.664062 L 69.023438 50.785156 C 68.984375 51.554688 68.105469 52.070312 67.265625 51.777344 Z M 67.265625 51.777344 "
  />
  <path
    d="M 69.863281 50.894531 C 69.972656 50.273438 70.085938 48.144531 70.085938 46.203125 L 70.085938 42.683594 L 71.953125 41.765625 C 72.976562 41.289062 73.929688 40.628906 74.039062 40.335938 C 74.183594 39.96875 74.367188 40.300781 74.515625 41.214844 C 74.882812 43.34375 75.210938 44.773438 75.429688 45.140625 C 75.539062 45.324219 75.46875 45.652344 75.285156 45.910156 C 75.0625 46.164062 74.808594 47.007812 74.699219 47.816406 C 74.148438 51.554688 74.148438 51.554688 72.71875 51.8125 C 71.953125 51.921875 70.964844 52.03125 70.488281 52.03125 C 69.71875 52.03125 69.644531 51.921875 69.863281 50.894531 Z M 17.355469 42.535156 C 17.355469 41.582031 14.609375 38.648438 14.0625 39.015625 C 13.878906 39.125 13.65625 39.050781 13.511719 38.832031 C 13.253906 38.429688 11.386719 38.320312 10.984375 38.722656 C 10.875 38.867188 10.472656 39.015625 10.105469 39.050781 C 8.859375 39.164062 8.386719 39.382812 7.726562 40.226562 C 7.359375 40.664062 6.847656 41.03125 6.628906 41.03125 C 6.335938 41.03125 6.335938 40.921875 6.554688 40.738281 C 6.773438 40.59375 7.324219 39.894531 7.800781 39.164062 C 9.191406 37.070312 9.667969 37 14.132812 38.0625 C 14.941406 38.246094 15.78125 38.683594 16.292969 39.164062 C 17.210938 40.042969 18.050781 42.316406 17.6875 42.902344 C 17.464844 43.269531 17.355469 43.195312 17.355469 42.535156 Z M 19.882812 35.824219 L 19.738281 35.054688 C 19.554688 34.136719 17.980469 31.863281 17.6875 32.085938 C 17.539062 32.160156 17.320312 32.085938 17.210938 31.902344 C 17.101562 31.753906 16.367188 31.5 15.5625 31.351562 L 14.132812 31.132812 L 13.988281 29.152344 C 13.878906 27.355469 14.171875 26.769531 14.792969 27.5 C 15.234375 27.976562 19.992188 29.519531 21.53125 29.628906 C 21.714844 29.664062 21.675781 29.886719 21.457031 30.140625 C 20.980469 30.691406 20.320312 33.113281 20.210938 34.726562 C 20.140625 35.714844 19.992188 36.191406 19.882812 35.824219 Z M 22.886719 29.261719 C 22.410156 29.078125 21.566406 28.859375 21.054688 28.785156 C 20.542969 28.710938 19.699219 28.492188 19.1875 28.273438 C 17.429688 27.539062 15.929688 27.023438 15.820312 27.136719 C 15.746094 27.171875 15.378906 27.023438 14.941406 26.804688 C 14.355469 26.511719 14.097656 25.925781 13.949219 24.53125 C 13.695312 22.257812 13.21875 21.746094 11.351562 21.78125 C 10.4375 21.78125 9.851562 21.597656 9.667969 21.230469 L 9.042969 19.949219 C 8.457031 18.773438 9.152344 16.355469 10.214844 15.949219 C 10.617188 15.804688 10.800781 16.246094 11.789062 19.765625 C 11.9375 20.277344 12.339844 20.71875 12.707031 20.792969 C 13.292969 20.902344 13.363281 20.644531 13.292969 18.773438 C 13.21875 15.839844 14.097656 14.082031 16.148438 13.164062 C 17.027344 12.796875 17.722656 12.285156 17.722656 12.0625 C 17.722656 11.84375 17.867188 11.734375 18.050781 11.84375 C 18.234375 11.953125 18.566406 11.808594 18.820312 11.550781 C 19.332031 10.890625 18.636719 9.351562 17.980469 9.71875 C 17.722656 9.863281 17.980469 9.570312 18.492188 9.058594 C 19.625 7.992188 20.25 7.738281 22.335938 7.332031 C 23.765625 7.039062 23.875 7.113281 24.53125 8.175781 C 24.898438 8.800781 25.484375 9.644531 25.851562 10.011719 C 26.179688 10.378906 26.402344 10.855469 26.289062 11 C 26.21875 11.148438 26.328125 11.402344 26.582031 11.585938 C 27.132812 11.917969 27.316406 13.164062 26.804688 13.164062 C 26.328125 13.164062 26.582031 16.390625 27.132812 17.125 L 28.523438 19.105469 C 29.511719 20.644531 29.367188 20.828125 27.097656 21.378906 C 26.144531 21.632812 26.070312 21.746094 26.253906 22.992188 C 26.402344 23.726562 26.328125 24.605469 26.144531 24.898438 C 25.960938 25.226562 25.960938 25.59375 26.21875 25.925781 C 26.546875 26.292969 26.472656 26.695312 25.996094 27.5 C 25.667969 28.089844 25.484375 28.566406 25.632812 28.566406 C 25.742188 28.566406 25.667969 28.820312 25.410156 29.113281 C 24.898438 29.738281 24.167969 29.773438 22.886719 29.261719 Z M 24.824219 17.125 C 25.265625 15.839844 24.863281 14.851562 24.019531 15.179688 C 23.691406 15.328125 23.105469 15.472656 22.703125 15.546875 C 21.859375 15.730469 20.945312 16.464844 21.089844 16.902344 C 21.164062 17.085938 21.347656 17.234375 21.492188 17.199219 C 21.640625 17.199219 22.042969 17.417969 22.335938 17.710938 C 23.140625 18.519531 24.421875 18.222656 24.824219 17.125 Z M 25.777344 13.605469 C 25.777344 13.015625 24.863281 12.429688 23.949219 12.429688 C 22.445312 12.429688 22.335938 12.871094 23.65625 13.382812 C 25.15625 13.898438 25.777344 13.972656 25.777344 13.605469 Z M 25.777344 13.605469 "
  />
  <path
    d="M 23.835938 17.085938 C 23.726562 16.792969 23.875 16.316406 24.167969 16.097656 C 24.714844 15.621094 24.789062 15.878906 24.351562 16.976562 C 24.128906 17.601562 24.058594 17.601562 23.835938 17.085938 Z M 70.816406 21.523438 C 70.816406 20.863281 71.074219 20.460938 71.585938 20.316406 C 72.609375 19.984375 74.550781 18.003906 74.296875 17.527344 C 74.148438 17.34375 74.222656 17.199219 74.40625 17.199219 C 74.589844 17.199219 75.027344 17.785156 75.394531 18.480469 C 75.871094 19.289062 76.234375 19.617188 76.492188 19.398438 C 76.75 19.179688 76.894531 19.359375 76.894531 19.949219 C 76.894531 20.425781 76.75 20.71875 76.566406 20.609375 C 75.832031 20.167969 72.246094 20.9375 71.550781 21.707031 L 70.816406 22.476562 Z M 66.386719 20.242188 L 66.238281 18.296875 L 66.09375 16.757812 C 66.054688 16.574219 65.835938 16.464844 65.542969 16.464844 C 65.289062 16.464844 64.847656 16.207031 64.589844 15.914062 C 64.226562 15.4375 64.296875 15.21875 65.105469 14.59375 C 66.460938 13.53125 66.933594 12.503906 66.386719 11.84375 C 66.167969 11.550781 66.09375 11.332031 66.277344 11.332031 C 66.460938 11.332031 66.386719 11.183594 66.128906 11 C 65.582031 10.671875 65.910156 8.765625 66.496094 8.765625 C 66.679688 8.765625 66.714844 8.617188 66.605469 8.398438 C 66.460938 8.175781 66.679688 8.140625 67.191406 8.359375 C 67.667969 8.507812 68.105469 8.875 68.179688 9.128906 C 68.289062 9.386719 68.179688 9.496094 67.960938 9.386719 C 67.777344 9.242188 67.410156 9.351562 67.191406 9.644531 C 66.605469 10.304688 67.226562 10.523438 69.609375 10.449219 L 71.476562 10.414062 L 71.695312 12.503906 C 71.84375 13.675781 72.0625 14.703125 72.246094 14.777344 C 72.390625 14.886719 72.832031 14.449219 73.195312 13.789062 C 74.589844 11.441406 75.578125 11.148438 75.578125 13.089844 C 75.578125 13.789062 75.246094 14.300781 74.476562 14.8125 C 73.636719 15.363281 73.378906 15.839844 73.378906 16.757812 C 73.378906 17.382812 73.234375 17.929688 73.011719 17.929688 C 72.832031 17.929688 72.648438 18.1875 72.648438 18.480469 C 72.648438 18.773438 72.355469 19.03125 72.023438 19.03125 C 71.660156 19.03125 70.488281 19.433594 69.425781 19.949219 C 67.082031 21.046875 66.421875 21.085938 66.386719 20.242188 Z M 75.761719 17.085938 C 75.210938 15.878906 75.175781 15.621094 75.613281 15.363281 C 75.90625 15.179688 76.199219 15.179688 76.34375 15.402344 C 76.457031 15.621094 76.675781 15.765625 76.820312 15.730469 C 77.628906 15.546875 77.921875 16.023438 77.371094 16.683594 C 77.042969 17.050781 76.710938 17.636719 76.601562 17.929688 C 76.492188 18.296875 76.199219 18.003906 75.761719 17.085938 Z M 75.761719 17.085938 "
  />
  <path
    d="M 78.101562 17.125 L 77.957031 16.28125 L 77.847656 15.472656 C 77.808594 15.21875 77.445312 14.996094 77.042969 14.996094 C 75.761719 14.996094 75.722656 13.933594 76.929688 12.761719 C 77.554688 12.210938 78.175781 11.84375 78.324219 11.992188 C 78.507812 12.136719 78.507812 12.0625 78.359375 11.808594 C 78.25 11.585938 78.285156 11.292969 78.507812 11.148438 C 78.726562 11.039062 78.800781 10.523438 78.726562 10.011719 C 78.617188 9.425781 78.726562 9.128906 79.09375 9.128906 C 79.457031 9.128906 79.605469 9.570312 79.605469 10.523438 C 79.605469 11.550781 79.347656 12.136719 78.507812 12.90625 C 77.222656 14.117188 77.113281 14.628906 78.140625 14.628906 C 78.761719 14.628906 78.871094 14.886719 78.871094 16.097656 C 78.871094 16.902344 78.726562 17.5625 78.507812 17.5625 C 78.324219 17.5625 78.101562 17.34375 78.101562 17.125 Z M 78.101562 17.125 "
  />
  <path
    d="M 72.355469 11.953125 C 72.28125 9.679688 72.207031 9.496094 71.109375 9.496094 C 70.558594 9.496094 70.085938 9.351562 70.085938 9.128906 C 70.085938 8.945312 70.265625 8.765625 70.449219 8.765625 C 70.671875 8.765625 70.816406 8.542969 70.816406 8.25 C 70.816406 7.921875 70.121094 7.664062 68.730469 7.480469 C 67.558594 7.332031 66.53125 7.261719 66.460938 7.296875 C 66.386719 7.332031 66.203125 7.222656 66.09375 7.039062 C 65.984375 6.855469 65.324219 6.453125 64.664062 6.160156 L 63.457031 5.574219 L 66.824219 5.355469 C 68.65625 5.242188 70.265625 5.023438 70.378906 4.914062 C 70.523438 4.804688 70.378906 4.363281 70.121094 3.921875 C 69.863281 3.519531 69.792969 3.261719 69.972656 3.375 C 70.15625 3.484375 71.035156 3.667969 71.914062 3.777344 C 74.332031 4.105469 74.808594 4.179688 75.0625 4.4375 C 75.394531 4.804688 76.34375 4.328125 76.089844 3.960938 C 75.980469 3.777344 76.234375 3.628906 76.636719 3.628906 C 77.078125 3.628906 77.40625 3.8125 77.40625 4.035156 C 77.40625 4.21875 77.589844 4.289062 77.773438 4.179688 C 77.992188 4.070312 78.140625 4.289062 78.140625 4.695312 C 78.140625 5.207031 77.957031 5.390625 77.589844 5.242188 C 77.261719 5.097656 77.042969 5.242188 77.042969 5.609375 C 77.042969 6.015625 77.371094 6.195312 77.992188 6.195312 C 78.507812 6.195312 78.835938 6.050781 78.6875 5.832031 C 78.578125 5.648438 78.726562 5.464844 79.019531 5.464844 C 79.859375 5.464844 79.640625 7.515625 78.6875 8.542969 C 78.101562 9.203125 77.957031 9.570312 78.214844 10.046875 C 78.507812 10.523438 78.324219 10.925781 77.554688 11.769531 L 76.492188 12.835938 L 76.308594 11.992188 C 75.980469 10.671875 74.550781 10.671875 73.378906 11.992188 L 72.425781 13.128906 Z M 72.355469 11.953125 "
  />
  <path
    style="stroke: none; fill-rule: nonzero; fill: rgb(49.411765%, 49.803922%, 37.254902%); fill-opacity: 1"
    d="M 56.71875 58.78125 C 57.488281 58.449219 56.792969 41.582031 55.949219 40.226562 C 55.878906 40.078125 56.28125 38.980469 56.867188 37.730469 C 57.453125 36.484375 58.148438 34.910156 58.367188 34.210938 C 58.625 33.480469 59.171875 32.230469 59.648438 31.425781 C 60.125 30.582031 60.417969 29.703125 60.308594 29.410156 C 60.199219 29.113281 60.453125 28.566406 60.894531 28.160156 C 61.40625 27.648438 61.625 27.097656 61.550781 26.253906 C 61.441406 25.226562 61.332031 25.082031 60.527344 25.226562 C 58.441406 25.519531 58.332031 25.484375 57.78125 23.980469 C 57.523438 23.175781 57.269531 22.222656 57.269531 21.890625 C 57.269531 21.523438 56.902344 21.15625 56.351562 21.011719 C 55.511719 20.792969 55.109375 19.984375 55.730469 19.691406 C 55.878906 19.617188 56.460938 19.066406 57.011719 18.40625 C 58.039062 17.308594 58.039062 17.234375 57.488281 16.171875 C 57.011719 15.253906 57.011719 14.996094 57.453125 14.410156 C 58.109375 13.53125 58.148438 12.796875 57.523438 12.796875 C 57.011719 12.796875 55.070312 10.964844 55.070312 10.488281 C 55.070312 10.339844 56.390625 10.230469 58 10.230469 L 60.929688 10.230469 L 60.710938 9.128906 C 60.453125 7.957031 60.601562 7.847656 61.589844 8.359375 C 61.917969 8.582031 62.796875 8.800781 63.492188 8.910156 C 64.773438 9.128906 64.773438 9.167969 64.738281 10.816406 C 64.703125 11.769531 64.8125 12.320312 64.957031 12.0625 C 65.140625 11.769531 65.324219 11.734375 65.46875 11.992188 C 65.582031 12.210938 65.03125 13.054688 64.1875 13.859375 C 63.054688 14.960938 62.761719 15.511719 62.945312 15.988281 C 63.128906 16.355469 63.199219 16.792969 63.164062 16.941406 C 63.128906 17.125 63.273438 17.160156 63.457031 17.050781 C 63.96875 16.722656 64.921875 17.199219 64.738281 17.675781 C 64.664062 17.929688 64.882812 18.957031 65.25 19.949219 C 65.910156 21.746094 65.945312 21.78125 67.339844 21.707031 L 68.730469 21.597656 L 68.472656 24.203125 C 68.289062 25.816406 67.886719 27.390625 67.375 28.308594 C 66.898438 29.152344 66.347656 30.433594 66.09375 31.132812 C 65.542969 32.890625 63.96875 35.898438 63.75 35.679688 C 63.421875 35.347656 63.53125 37.621094 64.117188 42.5 C 64.480469 45.433594 64.703125 49.613281 64.664062 52.765625 L 64.589844 58.558594 C 64.589844 58.890625 63.53125 59 60.492188 58.964844 C 58.21875 58.964844 56.535156 58.890625 56.71875 58.78125 Z M 78.101562 58.488281 C 78.433594 58.121094 78.433594 57.898438 78.140625 57.714844 C 77.847656 57.535156 77.882812 57.3125 78.214844 56.875 C 78.578125 56.398438 78.578125 56.359375 78.214844 56.578125 C 77.847656 56.800781 77.773438 56.214844 77.921875 53.609375 L 78.140625 50.199219 C 78.214844 49.980469 78.101562 47.121094 77.992188 45.984375 C 77.957031 45.578125 77.808594 45.027344 77.628906 44.773438 C 77.480469 44.515625 77.296875 43.636719 77.222656 42.753906 C 77.003906 40.152344 76.636719 37.585938 76.492188 37.402344 C 76.417969 37.328125 76.566406 36.816406 76.859375 36.265625 C 77.152344 35.714844 77.261719 35.164062 77.152344 35.019531 C 77.003906 34.910156 77.113281 34.796875 77.335938 34.796875 C 77.589844 34.796875 77.773438 34.542969 77.773438 34.25 C 77.773438 33.957031 78.285156 32.636719 78.871094 31.386719 C 79.496094 30.105469 79.972656 28.859375 79.972656 28.601562 C 79.972656 28.382812 80.375 27.539062 80.886719 26.730469 C 81.398438 25.960938 81.691406 25.042969 81.582031 24.75 C 81.472656 24.457031 81.726562 23.90625 82.132812 23.542969 C 82.679688 23.101562 82.898438 22.476562 82.898438 21.378906 C 82.898438 19.507812 82.679688 19.289062 81.398438 19.949219 C 79.824219 20.792969 78.910156 20.644531 78.6875 19.582031 L 78.25 17.675781 C 77.992188 16.5 77.921875 16.097656 77.847656 15.472656 C 77.808594 15.21875 77.445312 14.996094 77.042969 14.996094 C 75.761719 14.996094 75.722656 13.933594 76.929688 12.761719 C 77.554688 12.210938 78.175781 11.84375 78.324219 11.992188 C 78.46875 12.136719 78.542969 12.0625 78.507812 11.878906 L 78.507812 11.332031 C 78.835938 10.707031 78.6875 8.875 78.324219 8.984375 C 78.101562 9.09375 77.921875 8.800781 77.921875 8.398438 C 77.921875 7.992188 78.03125 7.664062 78.140625 7.664062 C 78.285156 7.664062 78.394531 7.445312 78.394531 7.222656 C 78.394531 6.96875 78.46875 6.527344 78.542969 6.234375 C 78.652344 5.902344 78.101562 5.464844 77.042969 5.058594 C 76.125 4.695312 75.613281 4.398438 75.871094 4.398438 C 76.199219 4.363281 76.234375 4.179688 75.941406 3.667969 C 75.761719 3.261719 75.578125 2.859375 75.578125 2.75 C 75.578125 2.640625 77.113281 2.53125 79.019531 2.53125 L 82.460938 2.53125 L 82.058594 1.429688 C 81.617188 0.257812 81.875 -0.367188 82.605469 0.257812 C 82.898438 0.476562 84.472656 0.878906 86.121094 1.171875 C 88.867188 1.648438 89.199219 1.648438 89.492188 1.101562 C 89.820312 0.585938 89.929688 0.585938 90.40625 1.210938 C 90.699219 1.613281 90.957031 2.347656 90.957031 2.824219 C 90.957031 3.59375 91.066406 3.667969 92.054688 3.445312 C 93.300781 3.191406 93.480469 3.628906 92.75 5.242188 C 92.382812 5.976562 92.457031 6.636719 93.152344 8.726562 C 94.03125 11.550781 93.957031 12.175781 92.421875 14.519531 C 91.542969 15.804688 91.359375 16.464844 91.285156 18.996094 C 91.140625 22.148438 91.175781 22.183594 93.261719 24.089844 C 93.773438 24.53125 94.359375 24.898438 94.582031 24.898438 C 95.203125 24.898438 95.753906 26.253906 95.570312 27.316406 C 95.351562 28.492188 96.191406 33.480469 97.179688 37.109375 C 98.207031 40.777344 98.460938 44.113281 97.914062 46.679688 C 97.65625 47.890625 97.328125 49.136719 97.144531 49.429688 C 96.960938 49.757812 96.410156 51.042969 95.9375 52.328125 C 95.128906 54.34375 95.058594 54.894531 95.351562 56.507812 C 95.570312 57.535156 95.714844 58.523438 95.714844 58.671875 C 95.714844 58.851562 91.652344 59 86.707031 59 C 78.980469 59 77.738281 58.925781 78.101562 58.488281 Z M 97.070312 27.574219 C 97.730469 27.5 98.902344 27.5 99.632812 27.574219 C 100.402344 27.648438 99.890625 27.722656 98.460938 27.722656 C 97.070312 27.722656 96.449219 27.648438 97.070312 27.574219 Z M 97.070312 27.574219 "
  />
</svg>
