<svg xmlns="http://www.w3.org/2000/svg" id="root" viewBox="0 0 150 242">
  <path
    d="M14 15.8S29 7.4 48.7 4.6c19.7-2.8 41-2.3 41-2.3l1 39.8s-6.8-11-27.2-10c-20.5.9-44.3 13-44.3 13Zm0 0"
  />
  <path
    d="M23.6 53.3s24.3-11 40.1-10.1a44 44 0 0 1 24.4 7.7s.2 7.8 1 12c.8 4 4.7 16.2 7.5 21.1 2.9 5 6.8 15.6 15.3 19.2 8.5 3.6 10.1 9.8 10.1 9.8s6.5 23 13.5 32.9c7 9.8 17.3 20.4 13.7 21.4-3.6 1-9.3 3.9-9.3 3.9s-3.1 3.1-9.3-4.4c-6.3-7.5-13.5-16-15.3-21.5-1.8-5.4-6.8-9.8-9.9-9.5-3 .2-3.3 3.6-3.3 3.6s1 13.4 2.3 16.8c1.3 3.4 1.3 20.4 1.3 20.4s1.5 30.6.8 35.7c-.8 5.2 2 10.6-2.6 12.2-4.7 1.5-8.6 4.4-10.4-8.6-1.8-12.9-5.2-30-5.2-36.2 0-6.2-1.3-11.9-1.3-11.9s-1.5-6.4-5.4-6.7c-3.9-.2-11.1 2.3-10.4 8.5.8 6.3 5.2 34.2 6.3 37.6 1 3.3.2 10.3.7 16.5.6 6.2.3 15-2.3 15-2.6 0-5.7 1.3-8.3-14.5-2.6-15.8-6.7-33.6-6.7-33.6s-2-11.4-1.6-16c.5-4.7.3-11.4-7.7-10.9s-6 10.6-6 10.6v18.4c0 4.4.5 18 3.6 25.8 3.1 7.8 5.2 21.2-.7 21.2-6 0-9.4-13.4-9.4-13.4s-1-9.6-2.8-13.7a77.7 77.7 0 0 1-5.5-27.4c.8-8.3 2.6-25.9-6.2-25.6-8.8.2-10.6 6.7-11.9 10a34 34 0 0 0-1.8 18.2c1 10.6 7 29.2.3 28.1C4.4 215 0 185.2 0 185.2s-.5-17.9 3.1-30c3.7-12.2 0-44 0-44s10.7-27 12.5-29.5a94.6 94.6 0 0 0 8-28.4Zm0 0"
  />
</svg>
