<svg xmlns="http://www.w3.org/2000/svg" id="root" viewBox=".1 0 149.8 150">
  <path
    d="M48.7 0v13.4a36 36 0 0 0-9.6 2.6L32.4 4.4l-10.2 5.8L29 22c-2.6 2-5 4.4-7 7l-11.7-7-5.9 10.3 11.7 6.8c-1.2 3-2 6.2-2.5 9.5H0v11.7h13.5A42 42 0 0 0 16 70L4.4 76.6l6 10.2L21.8 80a39 39 0 0 0 3.8 4.3l6.2-6.8a32.5 32.5 0 0 1 44.5-47.3l6.1-6.8-2.2-1.9 6.6-11.4-10.2-5.8L70 15.8a46 46 0 0 0-9.7-2.5V0Zm50 22.1-11.3 6.6-3-3.4-6.2 6.7a32.5 32.5 0 0 1 .7 44.4l3.9 9c1.7-1.5 3.3-3.2 4.8-5l11.2 6.4 5.8-10.2L93.5 70c1.2-3.1 2.1-6.4 2.6-9.8H109V48.6H96c-.4-3.4-1.3-6.7-2.6-9.8l11.2-6.5Zm-22.6.7a1.5 1.5 0 1 1 0 3 1.5 1.5 0 0 1 0-3Zm-21.3 2.3a29.5 29.5 0 1 0 5.6 58.4l-1.2-2.2-8.4-.4 5.6-16.1 6.3.9-1.5-11.3-16-5.9 2.3-1.5h21l3.7 21.5-5 3.3.2 3 10.1-1.6v.1a29.5 29.5 0 0 0-22.7-48.2Zm31 6.8a1.5 1.5 0 1 1 0 3 1.5 1.5 0 0 1 0-3Zm-60 43.4a1.5 1.5 0 1 1 0 3 1.5 1.5 0 0 1 0-3Zm8 4-6.2 6.8 1.3 1-6.7 11.6 10.2 5.9L39 93c3.1 1.3 6.3 2.2 9.7 2.7v13.1h11.7V96c2.1-.3 4.1-.8 6.1-1.4L62 86.3a32.6 32.6 0 0 1-28.2-7Zm1.6 5a1.5 1.5 0 1 1 0 3.1 1.5 1.5 0 0 1 0-3Zm44 24.9v4l-5 2.6-3.4-3.5-2.5 2.5 2.3 2.4v1.5l-3.9 4-.8-.9h-5.2v3h2.7l1.9 2v5.7l-2 1.9H61v3h5l.8-.8 4 3.9v1.5l-2.4 2.4 2.5 2.5 3.5-3.5 5 2.6v4h3.4v-4l5-2.6 3.4 3.5 2.5-2.5-2.3-2.4v-1.5l3.9-4 .8.9h5.2v-3h-2.7l-1.9-1.9v-5.8l1.9-1.8h2.7v-3h-5.2l-.8.7-4-3.9v-1.5l2.4-2.4-2.5-2.5-3.5 3.5-5-2.5v-4Zm1.7 7 2.1.5 2.5 2.4-.1 1.2-2 3.9-2 2.1h-1.4l-2.6-2.2-1.4-4.4.7-2.3.6-.4Zm-10 7 2.9 1.5 4.2 4.3v1.4l-4.2 4.2-3 1.7-2.7-2.7v-8.8Zm19.5 0 2.9 1.6v8.8l-2.7 2.7-3-1.7-4.2-4.2V129l4.2-4.3Zm-10.4 9.7h1.3l2.2 2.1 1.9 4 .2 1-2.6 2.5-2.1.5-3.6-.8-.6-.4-.7-2.3 1.4-4.4Zm41.3-54.7v6.2c-1.3.2-2.6.6-3.8 1l1.6 4a15.3 15.3 0 0 1 11.6 28.2l4 9.7 4.6-2.7-3-5.3c1.2-1 2.3-2.1 3.3-3.4l5.3 3 2.8-4.7-5.3-3c.6-1.6 1-3.1 1.2-4.7h6.1V101h-6c-.3-1.6-.7-3.1-1.3-4.6l5.3-3-2.8-4.8-5.3 3c-1-1.2-2.1-2.3-3.4-3.3l3.1-5.3-4.8-2.8-3.1 5.4c-1.5-.6-3-1-4.5-1.2v-6.2Zm-7.6 2L109 83l3.2 5.4c-1.2 1-2.3 2.1-3.3 3.3l-5.5-3.1-2.8 4.8 5.5 3.1c-.5 1.5-1 3-1.2 4.5h-6.3v5.5h6.3c.2 1.6.6 3 1.2 4.5l-5.5 3.2 2.8 4.8 5.4-3.2c1 1.3 2.1 2.4 3.3 3.3l-3.1 5.5 4.8 2.7 3.1-5.4c1.5.6 3 1 4.5 1.3v6.2h5.6v-6.2a18 18 0 0 0 4-1l-1.6-4A15.3 15.3 0 0 1 118 90l-3.9-9.6Zm0 0"
  />
</svg>
