<svg xmlns="http://www.w3.org/2000/svg" id="root" viewBox="0 0 7411 4261">
  <path
    d="M2840 4195c-36-36-85-77-109-92-39-23-45-24-53-9-5 10-22 16-42 16-28 0-36-5-49-32-67-144-82-215-81-393 0-82 7-217 15-300l14-150 64 2c73 2 75-5 4-15-48-7-48-7-51-48-2-23 9-90 23-150s33-140 41-179c8-38 21-73 27-77 7-4 43-8 81-8 66 0 74 3 176 60 134 75 160 98 160 142 0 33 0 33 44 30 44-4 45-3 168 109 189 173 273 261 327 343 27 42 63 94 80 115 22 27 31 50 31 75 0 34-2 36-31 36-24 0-29 3-25 18 29 98 48 236 53 395l6 177h-809zm123-895c22-77 20-89-2-25-15 42-22 51-45 53-26 3-27 4-9 17 31 24 39 17 56-45zm3097 945c0-10-10-15-34-15-19 0-37-4-40-9-16-25-88-419-93-513-3-38 0-75 7-87 10-19 8-21-20-21-35 0-38-7-70-127-22-81-25-125-10-154 9-16 7-19-8-19-26 0-55-77-50-130 3-36 1-40-19-40-30 0-46-39-41-103 2-39 0-47-14-47-32.7-31.6-50.6-13.4-63 15l-43 3c-31 2-55-4-90-23-96-53-111-77-113-178-1-50-3-55-8-27-5 32-10 35-42 38-33 3-40-2-82-54-38-46-47-64-47-95 0-34-3-39-23-39-18 0-29-12-50-58-16-33-50-81-78-108-38-37-49-55-49-80 0-54 73-70 176-37 45 14 65 29 124 94 55 61 70 84 70 108s4 31 20 31c11 0 23 6 26 14 4 12 10 12 35-1 22-11 28-20 23-32-34-80-45-265-19-311 20-35 19-38-12-42s-36-16-59-158c-13-86-20-103-68-175-63-96-76-130-76-205 0-69 12-82 71-78 44 3 57 15 172 158 22 27 17 14-18-53-45-83-47-91-41-141 10-76 23-84 128-84h87l39 42c21 22 49 56 62 74 20 26 26 30 33 17 5-9 23-15 47-15h40l45 88c25 48 60 108 79 133 34 48 50 105 62 227 6 52 4 62-8 62-10 0-1 15 24 40 38 38 40 42 36 95-2 45 0 55 13 55 20 0 45 98 54 217 6 72 5 84-9 89-15 6-15 9-3 23 18 20 37 98 37 150 2.7 39.9 28.3 42.7 58 73 7 7 12 33 12 59 0 37-4 49-17 52-10 3-5 5 12 6 27 1 32 7 48 50 9 27 17 65 17 84 0 35-1 36-42 40-39 3-37 4 13 5 30 1 63 8 72 15 9 6 32 46 51 87 26 58 35 94 41 162l7 87 30 3c29 3 31 7 69 123 45 139 50 185 18 185-18 0-11 11 39 64 33 35 72 81 88 103 16 21 43 55 61 76 45 51 121 170 129 202l6 25h-411c-359 0-411-2-411-15zM320 3688c-11-12-20-25-20-28 0-4 19-12 41-19 36-11 44-10 58 4 15 15 14 18-14 41-37 29-39 29-65 2zm1207-85c-12-12-7-50 8-63 21-18 77-5 94 22 12 19 11 23-5 35-19 13-86 18-97 6zM391 3219c-72-12-81-22-81-80s10-64 112-75l63-6 33 43c35 46 35 55-1 99-24 31-38 33-126 19zm3246-146c-10-9-9-81 1-87 11-7 89 17 103 31 16 16 2 50-24 57-30 8-72 8-80-1zm-2455-195c-32-32 1-88 51-88 35 0 36 28 1 69-29 34-35 36-52 19z"
  />
  <path
    fill="#f3eec5"
    d="M5651 4203c33.5-109.1 110.2-187.2 181-271 16-24 42.7-52.7 44.7-50.7s-.7 51.7 7.3 97.7l21.7 72.3c-68.8 68.5-101 145.8-130.7 207.7-48 1-96 1-144 1z"
  />
  <path
    d="M142 2652c-16-14-18-23-11-48 7-24 19-35 50-47 23-9 46-14 50-11 25 15-9 92-51 114-13 7-23 5-38-8zm550-559c3-35 6-38 35-41 44-4 63 28 33 58-11 11-32 20-46 20-23 0-25-3-22-37zm3271-323c-13-5-23-13-23-17 0-8 58-73 65-73 2 0 20 14 39 31 31 26 34 33 23 50-13 21-64 25-104 9zm-2309-51c-3-6-3-66 1-132 9-151 22-181 102-231 57-35 57-36 25-36-20 0-35-6-39-16-11-30 20-172 74-334l55-165 76-75c42-42 100-101 128-133 63-71 109-99 399-242l230-114 170-19c149-17 178-23 231-50s79-33 195-43c74-6 193-23 264-36 72-13 154-27 183-30l52-5v35c0 26-15 55-65 125-61 84-125 202-125 228 0 19-133 132-268 229-30 22-64 76-130 210-34 68-78 139-118 187-68 81-116 169-95 176 6 2 11 23 11 47 0 39-5 47-53 91-29 27-89 67-132 89-44 22-107 58-140 79-33 22-90 54-127 73-67 33-68 33-216 33-82 0-170-3-196-6l-46-7v-62c0-34 4-86 9-116 13-76 21-179 12-149-4 14-13 72-20 130s-17 128-22 156l-10 50-93 12c-52 6-125 23-164 37-73 26-146 33-158 14zm500-499c8-30 13-56 12-57s-24 11-51 27l-50 30h33c30 0 32 2 33 38 1 42 3 38 23-38zm4273 503c-25-25 10-83 51-83 21 0 52 24 52 41 0 31-22 49-59 49-21 0-41-3-44-7zm-6217-78c0-9 7-29 15-45 12-23 22-30 45-30 25 0 30 4 30 25 0 18-10 31-32 45-40 24-58 25-58 5z"
  />
  <path
    fill="#f3eec5"
    d="M6305.8 2961.1s67.7-69.7 125.2-123.1a1359 1359 0 0 0 150-160c57-70.1 153-213 209-304s149.5-197 268-314 146.5-130 227-170 124.1-61 124.1-61l-1.6 168.2s-32.8 5.2-91.3 30.5c-58.6 25.2-67.3 30.3-171.3 133.8-104 103.5-182.5 199-234.9 277.5-52.4 78.4-98 154-128 195-12 17-40.2 51.9-115 148.8-74.8 97-312.3 314-312.3 314z"
  />
  <path
    d="M507 1593c-25-24 15-73 60-73 26 0 54 26 47 44-10 26-89 48-107 29zm5783-347c0-24 53-76 77-76 13 0 43 33 43 48 0 17-39 39-82 46-36 6-38 5-38-18zm-5550-49c-27-44-25-52 15-77 42-26 70-15 77 30 5 36-7 55-45 69-25 10-29 8-47-22zm3370-89c0-20 12-32 54-57 31-20 40-21 47-10 16 25 7 40-38 63-38 19-63 21-63 4zm2937-146c-3-4-7-19-11-34-5-22 0-31 31-57 21-17 43-31 49-31 17 0 39 60 28 77s-92 55-97 45zm-1017-87c-21-23-22-27-10-70 12-42 15-46 39-41 14 3 44 8 66 12 53 9 65 20 65 60 0 39-13 47-91 57-40 5-49 3-69-18zm-474-40c-4-11 5-27 23-46 31-31 46-35 71-19 13 8 10 14-15 39-38 37-70 47-79 26zM1036 723c-8-28 7-45 34-40 19 3 25 34 10 52-19 23-37 18-44-12zm5726-36c-9-11-19-45-36-119-4-15-26-50-51-78-24-27-42-56-39-62 3-7 35-37 72-65 66-52 151-83 187-69 7 2 32 43 56 90l42 85-11 72c-6 40-17 78-24 85s-52 26-100 43c-66 23-89 27-96 18zm-981-186c-13-23 5-49 34-51 58-6 85 0 85 18 0 47-98 74-119 33z"
  />
  <path
    fill="#f3eec5"
    d="M6156.6 2489s33.4-19 163.4-115c36-26 104-84 152-128 143.7-133.2 307.5-278 399-416.7 51.7-64 87.9-146.8 136-211.3 58.3-98.8 131.4-176.7 197.7-272 67.2-102.2 140.9-191.4 205.3-279v326s-63.6 50-122.7 121c-59.2 70.8-99.9 128.5-180.3 247-51 82-72 110-183 242s-108.6 110.7-259 252-243 204.3-357 299c-36.5 30.5-124.3 97.7-124.3 97.7zM4485.5 4259.7S4577 4156 4711 4023c167-165 234.4-218 330-263s118.2-79.3 196.7-140.3c78.5-61 200.3-126.7 346.3-197.7 80-40 165.3-85.8 165.3-85.8l25 135.4S5748 3495 5616 3560c-154 76-202 93.4-279.5 159-77.5 65.4-126.5 109-206.5 150-122 63-172 102-320 247l-133.2 144z"
  />
  <path
    d="M4947 393c-4-3-7-41-7-84v-78l38-10c87-24 116-30 124-25 13 8 48 81 48 102 0 30-64 83-112 93-54 10-83 11-91 2zm-469-78c-9-10 2-35 15-35 6 0 24-12 40-27 28-27 29-28 43-9 8 11 14 23 14 28 0 21-96 58-112 43z"
  />
  <path
    fill="#f3eec5"
    d="M6504 3436c108.3-83.3 243.1-197 300-240 92-69.5 246.8-189.8 331.4-301.4 84.6-111.6 96.8-157.6 132.3-218.4 35.4-60.7 91.9-154.7 137.3-241.2l6 261-68 125c-75.3 112-80 136-173 229-107 106-177 168-375 330-60 49-122 101-136 114-27 24.5-86.5 75.9-86.5 75.9zm-2646.5 565.8s42.1-37.8 135-144c92.8-106.1 139.5-170.3 221.5-327.8s108.3-236.6 121.4-319.7c13.2-83-1.5-134.4-1.5-134.4l-71.8 36.9c-180.7 91.4-309.9 145.2-503.1 208.2l-163.8 58.7-33.2-60.7c-26-28-48-55-50-60-2-4 13-11 33-15 171-37 351-107.6 490-175s227.5-111.5 293-170c65.6-58.5 108.8-136.5 108.8-136.5s40.9 125.2 39.3 307.5c-1.5 182.3-33.3 298-65.8 378-7.1 68-174.3 320-174.3 320s153.8-36.4 278.4-93.6c124.7-57.3 264-132.4 400.6-234.4 181.2-119.8 336-233.3 505-360 49-37 90.2-69.6 90.2-69.6l145.8 62s-133.9 103.6-254.4 187.9c-120.6 84.3-183.6 136.2-325 237.8-141.3 101.6-260.2 179.3-456.6 269.9-169.9 85.9-371.7 140.3-520 176-70 16.8-242.5 57.8-242.5 57.8z"
  />
  <path d="M5960 92c0-47 69-78 101-45 29 28 6 54-54 60-42 5-47 4-47-15z" />
  <path
    fill="#e4e3a6"
    d="M3313 4238c-40-45-55-105-37-152 8-21 14-20 46 7 42 36 51 74 39 160-2 15-28 6-48-15zm2633 0c-8-13-20-45-26-73-27.2-123.4-36.6-200.7-62-330-5-27-12-81-15-120-3-49-11-76-24-91-10-11-27-45-37-75-24.7-81-37.8-204.1-65-269-15-34-27-70-27-82 0-11-11-33-25-50-14-16-25-36-25-44-68-31.9-168.1-75-225-112-45-30-72-56-86-83-13-26-31-44-50-51-36-13-138-130-146-168-3-16-11-31-19-34-7-3-27-33-45-68-17-35-56-89-85-120-42-44-54-64-54-88 0-45 15-67 60-90 50-25 101-25 176 0 51 17 70 31 134 101l75 81-4-123c-2-76-8-131-16-144-14-23-30-87-45-188-9-57-20-82-61-143-62-92-79-139-79-216 0-55 3-63 35-95 35-35 37-36 95-30 59 5 60 5 60-20 0-16 14-39 38-63l38-38h189l61 62c58 59 63 62 103 58 59-6 84 15 132 111 23 45 54 98 69 117s35 49 43 67c18 33 47 184 47 239 0 19 11 49 25 70 15 21 25 51 25 71 0 18 6 44 14 56 17 27 46 138 46 178 6.5 94.2 5.4 186.9 19 236 6 21 11 50 11 65 0 16 13 39 35 61 27 27 35 43 35 71 40.8 82 51.2 191.6 88 239 38 40 99 187 104 249 67.4 100.2 88 182.6 119 275 16 47 29 108 29 134 0 51-9 38 158 242 26 32 60 79 76 105s39 60 52 75c13 16 24 37 24 48 0 15-7 19-37 19-49 0-52-3-105-85-25-38-62-91-84-116-21-26-59-72-84-104-85-109-246-244-291-245-44 0-184 269-228 440l-28 105-61 3c-54 3-63 0-76-20zm121-173c39-121 94-234 166-337 104-152 179-278 173-293-7-19-41-19-141 0-101 19-140 31-190 57-90 47-159 144-151 215 10 101 80 465 93 486 4 6 10-2 15-18 5-17 20-66 35-110zm483-308c0-17-81-242-88-245-5-1-28 26-50 62-46 73-48 67 45 125 28 18 57 39 63 47 11 12 30 20 30 11zm-602-248c38-37 85-70 120-86 71-31 210-62 280-63 31 0 52-4 52-11 0-6-18-49-39-95-32-67-44-84-66-90-37-9-159 2-219 20-84 26-219 117-247 168-6 12-3 41 10 91 21 76 38 127 44 127 1 0 31-27 65-61zm-89-278c93-78 264-141 382-141 34 0 34 1 12-61-19-52-27-56-91-43-24 5-34 15-46 44-8 21-20 41-26 45s-35-5-64-19-59-26-66-26c-36 0-190 119-190 148 0 12 33 92 37 92 3 0 26-18 52-39zm-64-176c31-25 69-52 85-60 17-9 30-18 30-21 0-16-33-64-44-64-28 0-156 103-156 126 0 17 18 64 25 64 3 0 30-20 60-45zm276-97c7-29 4-112-6-128-11-18-102-4-128 20-15 14 2 47 49 95 50 50 74 54 85 13zm-489-53c10-79 42-176 86-255 63-117 206-282 316-365 36-27 66-57 66-66 0-23-45-76-79-93-14-7-46-16-71-19-45-6-45-6-105 57-89 93-133 182-209 431-10 32-18 41-39 43-24 3-27 0-27-25 0-38 51-201 91-289 17-38 50-96 73-129 66-95 65-89 12-82-138 19-246 120-246 231 0 58 18 145 36 173 20 31 7 82-23 94-53 20-92 169-63 245 12 31 25 43 95 84 68 41 78 37 87-35zm129 29c7-9 37-31 65-49 29-19 55-43 59-54 14-44 242-102 280-71 24 20 28 6 15-52-18-77-34-91-95-85-28 3-75 13-105 23-96 31-250 206-250 284 0 24 13 26 31 4zm477-20c41-11 21-64-25-64-19 0-23 5-23 28 0 41 7 47 48 36zm-868-172c0-15 11-51 25-79 13-29 20-55 15-58-11-7-119 23-137 37-19 15-17 21 33 82 48 58 64 63 64 18zm584-154c34-12 95-25 136-28l75-5-3-55c-4-80-32-190-48-190-23 0-122 91-219 200-57 65-135 185-135 209 0 7 30-15 67-48 45-41 86-67 127-83zm-660-24c28-9 57-18 64-20 8-2-13-33-58-82-60-67-79-81-126-96-46-15-61-16-85-5l-30 12 54 56c29 31 64 80 77 109 17 38 28 51 39 47 8-3 38-13 65-21zm228-412c21-30 89-70 148-89 60-18 289-25 348-10 31 8 33 7 28-15-3-12-10-54-17-91-8-49-21-82-45-115-19-26-54-87-79-135-26-50-51-87-58-85-7 3-16 19-22 36-5 18-12 32-17 32-4 0-38-37-76-82-93-112-97-115-119-89s-31 26-60-1c-23-22-24-22-43-2-32 32-28 73 17 155 23 41 51 109 64 151 37 130 4 140-68 21-44-72-158-212-179-220s-44 16-44 47c0 44 20 90 76 175 44 67 55 92 64 150 11 75 30 165 37 178 8 13 32 7 45-11zM3611 4191c-7-13-16-51-19-84-4-48-2-59 9-55 18 6 39 101 30 136l-8 27zm-838-244c-67-64-106-138-101-190 3-31 4-30 63 53 69 99 107 168 102 184-2 6-31-15-64-47zm435-34c-26-30-38-60-38-97 0-47 16-54 51-20 25 24 29 35 29 81 0 57-14 68-42 36zm285-285c-41-66-96-238-75-238 15 0 122 238 122 271 0 21-22 6-47-33zm-427-21c-38-32-39-35-44-110-6-92 4-98 61-39 35 36 38 45 44 110 7 85-1 90-61 39zM1628 1749l-31-30 7-127c7-121 9-130 46-202 30-59 41-94 50-166 8-62 30-146 70-263l59-172 142-147c165-170 181-181 515-344l219-107 170-19c149-17 178-23 231-50s79-33 195-43c74-6 193-23 264-36 206-39 229-40 260-9 40 40 34 82-22 163-26 37-62 90-80 116s-42 75-54 108c-19 53-34 71-109 137-47 43-105 91-129 107-23 17-52 38-65 47s-56 81-96 160c-47 91-96 170-135 218-83 101-86 106-78 184l6 67-69 67c-48 47-97 81-162 115-50 26-122 67-160 91-37 24-95 56-129 71l-63 28-197-5c-226-6-363 8-472 47-96 35-144 33-183-6zm154-74c39-14 112-31 164-37l93-12 10-50c5-28 16-105 25-172 8-66 18-128 22-137 8-22-8-22-48-1-18 9-63 27-101 40-101 34-213 107-236 152-18 37-38 213-26 232 9 14 20 13 97-15zm744-78c38-18 96-51 129-73 33-21 96-57 140-79 79-40 185-126 185-150 0-8-9-11-25-7-14 2-25 0-25-6 0-32 80-176 134-241 40-47 85-118 118-186 66-134 100-188 130-210 135-97 268-210 268-229 0-26 65-144 125-229 66-91 69-109 17-88-39 15-256 49-401 61-106 10-133 16-185 42-53 27-82 33-231 50l-170 19-230 114c-290 143-336 171-399 242-28 32-86 91-128 133l-77 75-52 155c-53 158-83 287-68 296 5 3 19-2 32-11 13-8 62-28 109-44s129-52 182-81c57-31 101-49 106-44 6 6-3 57-21 124-28 107-39 169-55 327l-7 62 34 3c19 2 93 4 165 6l132 3z"
  />
  <path
    fill="#e4e3a6"
    d="M2456 1472c-9-14 8-29 69-60 33-17 82-49 109-71 69-59 83-53 47 17-24 46-76 97-114 111-33 13-104 15-111 3zm411-379c-15-24 20-130 60-184 38-52 107-108 119-97 2 3-15 34-39 70s-52 88-62 116c-19 52-68 111-78 95zm-587-98c0-8 11-38 24-68 20-46 28-55 63-65 46-14 103-16 103-4 0 11-98 104-137 130-36 26-53 28-53 7zm-300-148c0-8 13-32 29-53 39-54 101-111 101-94 0 28-42 100-76 130-38 33-54 38-54 17zm600-72c0-8 10-35 22-60 16-33 32-50 65-65 43-20 93-27 93-12 0 10-107 114-140 136-30 20-40 20-40 1z"
  />
  <path
    fill="#f3eec5"
    d="M1036 4233c56.2-74.3 133.4-144.4 221.3-232.6 88-88.1 99.6-128.1 403.1-280.6C1964 3567.3 2048 3546 2308 3483c181-44 219-47 199 49-13 61-62 61-137 77-281.3 53.7-511 162.2-668.2 240.2A1571.3 1571.3 0 0 0 1295 4147l-110 113h-165z"
  />
  <path
    fill="#e4e3a6"
    d="M2910 535c0-3 9-23 20-45 17-33 27-41 74-54 65-19 76-20 76-3-1 23-45 66-90 86-43 20-80 27-80 16zm-521-48c21-26 153-95 232-122 84-29 79-28 79-15 0 15-106 89-165 115-30 13-78 27-107 31-49 7-52 6-39-9zm411 3727c-58-59-94-78-119-64-65 34-120-5-164-117-46-116-57-173-64-311a6271.3 6271.3 0 0 1 27-387c20-209 41-324 101-548 15-55 55-77 144-77 67 0 74 3 180 62 132 73 172 102 190 138 9 17 25 30 45 33 20 5 83 55 198 160 185.5 143.4 239.5 226.7 308 333 22 32 56 81 76 107 47 61 52 114 14 152l-25 24 20 93c11 51 22 145 24 208 3 63 7 143 10 178l4 63-42-3-42-3-6-155c-5-112-14-191-34-285-37-172-37-169 3-173 17-2 32-6 32-9s-14-23-31-44-53-73-80-115c-27-41-84-110-127-153-123-124-322-303-333-299s-74 153-90 213c-35 133-51 175-66 175-9 0-50-20-92-45-93-54-191-92-251-96l-45-4-14 150c-20 210-19 374 2 457 19 72 53 161 73 192 13 18 14 18 23-7 13-34 22-34 90 4 59 33 201 164 201 186 0 9-16 13-48 13-44 0-52-4-92-46zm125-951c3-16 29-87 56-159s47-138 44-146c-8-21-44-45-161-111-99-56-157-71-191-49-6 4-19 39-27 77-8 39-27 119-41 179s-24 115-21 122c3 8 18 14 33 14 41 0 169 44 233 79 30 16 57 28 61 25 4-2 10-16 14-31zm275-2904c0-6 9-27 21-45 20-33 29-37 122-60 45-10 33 20-21 54-64 42-122 66-122 51z"
  />
  <path
    fill="#f3eec5"
    d="M0 1380v-115c99.9-62 211.3-104.6 315-169 76-48 183-151 202-195 8-18 36-70.7 36-70.7s-90 53.4-166 109.4c-51 38-104.6 63.5-104.6 63.5S283 920 322 810c59-163 111.2-266.1 192.6-346.1 81.4-80 137.8-98.4 246.9-136.7 109-38.4 224.7-77.6 323.5-125.2 98.8-47.6 178.7-107.2 272-161l71-41h267c-140.3 108.9-299.9 189.3-425 256a2581.5 2581.5 0 0 1-497 197.8c-74 21-148.3 74.5-184 122.9-35.7 48.4-55.4 89.2-79.8 132.5 0 0 46.5-27.7 98.3-57.7 51.9-30 171.8-83.7 171.8-83.7S759.8 648.4 739 713a2718.9 2718.9 0 0 1-86 221c-24.7 55.7-44 79-115 153.5S429 1189 290 1274c-135 83-223 146-258 186l-31 35z"
  />
</svg>
