<svg xmlns="http://www.w3.org/2000/svg" id="root" viewBox="0 0 99 82">
  <g>
    <path
      d="M 60.117188 81.957031 C 55.414062 81.902344 54.011719 81.851562 53.835938 81.726562 C 53.730469 81.648438 53.730469 81.628906 53.824219 81.417969 C 53.882812 81.296875 54.195312 80.890625 54.527344 80.507812 C 55.421875 79.476562 55.390625 79.34375 53.945312 78.457031 C 52.988281 77.863281 52.410156 77.390625 51.84375 76.726562 C 50.570312 75.253906 49.832031 73.53125 49.832031 72.0625 C 49.832031 70.003906 51.300781 67.675781 53.582031 66.109375 C 54.835938 65.246094 56.09375 64.714844 57.703125 64.351562 C 58.707031 64.128906 59.71875 63.792969 60.308594 63.496094 C 62.15625 62.550781 63.167969 60.976562 62.90625 59.445312 C 62.796875 58.800781 62.523438 58.273438 61.960938 57.625 C 61.117188 56.648438 60.882812 56.3125 60.757812 55.933594 C 60.691406 55.722656 60.582031 55.523438 60.503906 55.464844 C 60.425781 55.417969 60.035156 55.320312 59.636719 55.25 C 59.238281 55.183594 58.882812 55.109375 58.859375 55.089844 C 58.824219 55.070312 58.394531 55 57.890625 54.925781 C 55.984375 54.644531 53.808594 53.859375 52.941406 53.144531 C 52.347656 52.644531 52.089844 52.234375 51.988281 51.589844 C 51.953125 51.402344 51.894531 49.722656 51.855469 47.867188 C 51.816406 46.011719 51.757812 44.316406 51.726562 44.097656 C 51.574219 43.125 50.398438 41.5 49.503906 41.039062 C 49.203125 40.886719 49.054688 40.738281 49.046875 40.597656 C 49.046875 40.472656 49.386719 40.105469 49.695312 39.910156 C 50.203125 39.585938 50.492188 39.671875 51.074219 40.296875 C 52.398438 41.730469 52.933594 42.71875 53.128906 44.058594 C 53.183594 44.40625 53.265625 45.519531 53.324219 46.53125 C 53.554688 50.859375 53.683594 51.722656 54.140625 52.164062 C 54.449219 52.453125 55.488281 52.914062 56.597656 53.234375 C 57.636719 53.53125 58.171875 53.628906 59.582031 53.773438 C 60.601562 53.878906 60.875 53.878906 61.835938 53.816406 C 62.660156 53.753906 63.46875 53.75 65.148438 53.800781 C 67.503906 53.875 71.246094 53.835938 72 53.730469 C 72.378906 53.675781 72.535156 53.609375 72.976562 53.316406 C 73.273438 53.117188 73.714844 52.773438 73.964844 52.550781 C 74.21875 52.328125 74.6875 51.941406 75.007812 51.695312 C 75.667969 51.191406 76.65625 50.375 77.660156 49.492188 C 78.417969 48.835938 79.109375 48.316406 79.339844 48.242188 C 79.464844 48.203125 79.554688 48.261719 79.847656 48.558594 C 80.410156 49.125 80.363281 49.222656 79.15625 50.222656 C 78.886719 50.445312 78.445312 50.828125 78.175781 51.070312 C 77.910156 51.316406 77.144531 51.964844 76.476562 52.519531 C 75.8125 53.066406 74.851562 53.894531 74.34375 54.359375 C 73.429688 55.191406 73.414062 55.203125 73.335938 55.570312 C 73.160156 56.425781 72.976562 56.75 72.0625 57.761719 C 71.332031 58.578125 71.121094 59.0625 71.121094 59.953125 C 71.128906 60.917969 71.5 61.6875 72.398438 62.542969 C 73.316406 63.425781 74.207031 63.808594 76.851562 64.464844 C 78.523438 64.878906 79.019531 65.058594 79.941406 65.601562 C 81.644531 66.601562 82.867188 67.898438 83.605469 69.492188 C 84.027344 70.398438 84.140625 71.015625 84.101562 72.253906 C 84.066406 73.503906 83.988281 73.824219 83.5 74.820312 C 82.90625 76.03125 82.390625 76.59375 80.246094 78.398438 C 79.203125 79.277344 79.027344 79.464844 79.027344 79.679688 C 79.027344 79.863281 79.226562 80.191406 79.644531 80.671875 C 80.292969 81.421875 80.457031 81.757812 80.222656 81.863281 C 79.921875 81.988281 68.652344 82.042969 60.117188 81.957031 Z M 5.003906 80.988281 C 4.730469 80.917969 4.550781 80.816406 4.382812 80.648438 C 3.953125 80.214844 3.925781 80.082031 3.855469 78.445312 C 3.820312 77.628906 3.761719 76.832031 3.722656 76.679688 C 3.675781 76.496094 3.65625 75.632812 3.671875 74.253906 C 3.691406 72.207031 3.695312 72.09375 3.820312 71.957031 C 4.21875 71.515625 4.917969 71.234375 5.628906 71.234375 C 5.988281 71.234375 6.015625 71.246094 6.386719 71.59375 C 6.878906 72.050781 6.976562 72.300781 7.058594 73.265625 C 7.09375 73.6875 7.160156 74.339844 7.199219 74.71875 C 7.375 76.457031 7.316406 79.738281 7.09375 80.160156 C 6.976562 80.402344 6.386719 80.949219 6.171875 81.035156 C 5.929688 81.128906 5.460938 81.109375 5.003906 80.988281 Z M 16.457031 80.929688 C 15.617188 80.753906 15.210938 80.628906 15.152344 80.507812 C 15.046875 80.3125 15.0625 76.523438 15.179688 74.820312 C 15.320312 72.699219 15.300781 72.78125 15.628906 72.535156 C 16.085938 72.199219 16.386719 72.089844 16.855469 72.089844 C 17.410156 72.089844 18.027344 72.371094 18.175781 72.699219 C 18.351562 73.082031 18.484375 73.925781 18.554688 75.199219 C 18.640625 76.660156 18.59375 79.765625 18.488281 80.128906 C 18.398438 80.417969 18.109375 80.726562 17.757812 80.902344 C 17.472656 81.054688 17.09375 81.0625 16.457031 80.929688 Z M 16.457031 80.929688 "
    />
    <path
      d="M 81.554688 80.898438 C 81.246094 80.71875 81.0625 79.832031 81.285156 79.648438 C 81.414062 79.542969 82.335938 79.496094 86.632812 79.398438 C 91.148438 79.285156 93.6875 79.199219 94.277344 79.121094 C 95.105469 79.015625 95.980469 78.71875 96.554688 78.339844 C 97.855469 77.484375 98.292969 76.714844 97.945312 75.890625 C 97.527344 74.890625 95.789062 73.964844 93.222656 73.378906 C 92.550781 73.21875 90.511719 72.945312 89.3125 72.84375 C 89.023438 72.820312 88.320312 72.746094 87.746094 72.675781 C 85.871094 72.445312 85.621094 72.324219 85.621094 71.660156 C 85.621094 71.386719 85.65625 71.265625 85.773438 71.128906 L 85.921875 70.949219 L 86.835938 71.0625 C 87.339844 71.121094 87.984375 71.226562 88.265625 71.292969 C 88.554688 71.367188 89.039062 71.457031 89.339844 71.496094 C 89.636719 71.535156 89.992188 71.609375 90.121094 71.660156 C 90.253906 71.707031 90.59375 71.78125 90.886719 71.824219 C 91.171875 71.867188 91.675781 71.96875 91.996094 72.054688 C 92.316406 72.148438 93.121094 72.351562 93.785156 72.515625 C 97.285156 73.390625 97.554688 73.550781 98.441406 75.351562 C 98.917969 76.3125 99.035156 76.695312 98.992188 77.121094 C 98.917969 77.800781 98.332031 78.679688 97.644531 79.128906 C 97.058594 79.503906 96.242188 79.707031 94.601562 79.890625 C 94.097656 79.941406 93.480469 80.027344 93.222656 80.082031 C 92.890625 80.152344 92.328125 80.171875 91.265625 80.171875 C 90.421875 80.167969 89.625 80.191406 89.441406 80.234375 C 89.265625 80.273438 88.28125 80.339844 87.253906 80.378906 C 85.152344 80.457031 83.9375 80.574219 82.75 80.8125 C 81.832031 80.988281 81.722656 80.996094 81.554688 80.898438 Z M 10.925781 80.484375 C 10.363281 80.304688 9.875 79.871094 9.746094 79.445312 C 9.707031 79.320312 9.660156 77.902344 9.640625 76.101562 L 9.601562 72.976562 L 9.765625 72.734375 C 9.855469 72.601562 9.925781 72.464844 9.925781 72.425781 C 9.925781 72.199219 10.894531 71.695312 11.417969 71.648438 C 11.738281 71.621094 11.839844 71.648438 12.148438 71.804688 C 12.710938 72.09375 12.851562 72.359375 12.933594 73.238281 C 13.128906 75.429688 13.1875 79.179688 13.035156 79.542969 C 12.925781 79.8125 12.414062 80.285156 12.0625 80.449219 C 11.75 80.589844 11.320312 80.601562 10.925781 80.484375 Z M 51.269531 79.390625 C 51.210938 79.359375 50.738281 79.226562 50.210938 79.101562 C 49.6875 78.96875 48.945312 78.738281 48.550781 78.59375 C 48.160156 78.445312 47.605469 78.246094 47.316406 78.160156 C 46.1875 77.804688 45.417969 77.300781 43.785156 75.839844 C 43.25 75.359375 42.582031 74.800781 42.308594 74.589844 C 40.648438 73.324219 37.800781 72.074219 35.785156 71.71875 C 34.386719 71.476562 32.679688 71.832031 30.929688 72.734375 C 30.273438 73.070312 29.265625 73.726562 27.429688 75.003906 C 25.851562 76.109375 24.5 76.792969 22.871094 77.324219 C 21.703125 77.707031 20.402344 77.878906 20.265625 77.667969 C 20.238281 77.621094 20.214844 77.292969 20.214844 76.929688 C 20.214844 76.351562 20.226562 76.273438 20.34375 76.195312 C 20.4375 76.132812 20.964844 76.089844 22.050781 76.042969 C 23.484375 75.984375 23.65625 75.964844 23.976562 75.820312 C 24.394531 75.632812 25.757812 74.800781 27.886719 73.425781 C 31.949219 70.804688 33.320312 70.320312 35.925781 70.574219 C 38.742188 70.851562 41.144531 71.976562 44.285156 74.496094 C 46.226562 76.050781 47.949219 76.863281 49.910156 77.140625 C 50.417969 77.214844 50.875 77.3125 50.96875 77.371094 C 51.117188 77.46875 51.855469 78.871094 51.855469 79.054688 C 51.855469 79.160156 51.554688 79.457031 51.453125 79.457031 C 51.40625 79.457031 51.320312 79.421875 51.269531 79.390625 Z M 1.367188 78.34375 C 0.765625 78.109375 0.117188 77.542969 0.0273438 77.179688 C -0.0507812 76.878906 0.0507812 76.167969 0.230469 75.785156 C 0.445312 75.3125 0.789062 74.945312 1.207031 74.746094 C 1.757812 74.484375 2.175781 74.5625 2.246094 74.9375 C 2.320312 75.28125 2.351562 78.082031 2.292969 78.199219 C 2.226562 78.320312 1.902344 78.476562 1.738281 78.46875 C 1.699219 78.464844 1.527344 78.410156 1.367188 78.34375 Z M 49.441406 67.765625 C 49.386719 67.746094 49.003906 67.578125 48.589844 67.378906 C 47.871094 67.042969 47.789062 67.023438 46.695312 66.867188 C 46.070312 66.773438 44.765625 66.609375 43.789062 66.496094 C 42.824219 66.386719 41.628906 66.253906 41.144531 66.195312 C 39.207031 65.976562 36.738281 65.5625 34.894531 65.148438 C 31.296875 64.347656 26.90625 62.871094 23.152344 61.214844 C 20.265625 59.945312 17.261719 58.464844 16.394531 57.886719 C 14.941406 56.925781 13.160156 54.992188 11.722656 52.816406 C 10.703125 51.269531 9.886719 49.652344 9.320312 48.070312 C 8.855469 46.78125 8.785156 46.347656 8.789062 44.820312 C 8.789062 43.46875 8.855469 42.925781 9.148438 41.730469 C 10.128906 37.75 13.226562 33.160156 16.316406 31.101562 C 18.308594 29.777344 20.695312 28.929688 24.375 28.25 C 27.445312 27.679688 29.078125 27.75 33.355469 28.640625 C 35.796875 29.144531 37.972656 29.824219 39.492188 30.546875 C 39.890625 30.738281 40.367188 30.941406 40.542969 31 C 40.726562 31.066406 41.261719 31.371094 41.746094 31.683594 C 42.222656 32.007812 42.792969 32.363281 43.007812 32.488281 C 43.515625 32.777344 44.019531 33.285156 44.019531 33.5 C 44.019531 33.730469 43.679688 34 43.378906 34 C 43.09375 34 42.746094 33.824219 41.765625 33.179688 C 39.996094 32.015625 39.570312 31.789062 38.042969 31.226562 C 36.933594 30.816406 32.464844 29.546875 31.238281 29.296875 C 29.691406 28.976562 27.679688 29.007812 24.921875 29.402344 C 21.167969 29.9375 19.203125 30.726562 16.851562 32.625 C 15.898438 33.394531 14.277344 34.996094 13.46875 35.972656 C 12.304688 37.382812 11.167969 39.238281 10.683594 40.539062 C 9.554688 43.558594 9.71875 46.664062 11.167969 49.625 C 12.128906 51.589844 13.664062 53.5 15.804688 55.398438 C 18.273438 57.589844 20.03125 58.617188 24.492188 60.476562 C 25.96875 61.089844 27.644531 61.8125 28.519531 62.214844 C 29.410156 62.621094 30.160156 62.871094 31.414062 63.183594 C 34.308594 63.898438 40.644531 64.898438 45.5625 65.40625 C 46.429688 65.496094 47.5 65.617188 47.945312 65.667969 C 48.386719 65.726562 49.144531 65.785156 49.628906 65.8125 C 50.457031 65.859375 50.519531 65.871094 50.660156 66.023438 C 50.832031 66.214844 50.824219 66.308594 50.5625 66.761719 C 50.375 67.097656 49.722656 67.8125 49.609375 67.804688 C 49.570312 67.804688 49.492188 67.785156 49.441406 67.765625 Z M 65.246094 52.945312 C 65.140625 52.839844 65.113281 52.730469 65.113281 52.425781 C 65.113281 52.003906 65.074219 51.828125 64.972656 51.828125 C 64.761719 51.828125 63.195312 50.558594 63.0625 50.28125 C 62.867188 49.875 63.082031 48.953125 63.519531 48.289062 C 63.855469 47.78125 64.871094 47.15625 65.363281 47.15625 C 65.429688 47.15625 65.539062 47.117188 65.609375 47.066406 C 65.722656 46.980469 65.742188 46.863281 65.769531 46.078125 C 65.8125 44.894531 65.746094 44.953125 66.996094 44.960938 C 68.175781 44.960938 68.40625 45.03125 68.464844 45.421875 C 68.492188 45.566406 68.511719 46.027344 68.511719 46.445312 C 68.511719 47.019531 68.535156 47.238281 68.601562 47.308594 C 68.660156 47.367188 68.902344 47.414062 69.273438 47.441406 C 70.652344 47.527344 71.363281 48.15625 71.4375 49.339844 C 71.460938 49.761719 71.441406 49.894531 71.324219 50.128906 C 71.164062 50.472656 70.652344 50.867188 69.902344 51.242188 C 69.609375 51.386719 69.339844 51.539062 69.308594 51.585938 C 69.269531 51.628906 69.222656 51.914062 69.195312 52.222656 C 69.125 53.105469 69.269531 53.039062 67.171875 53.066406 C 65.441406 53.085938 65.375 53.078125 65.246094 52.945312 Z M 81.433594 49.164062 C 81.277344 49.039062 80.90625 48.675781 80.613281 48.355469 C 80.320312 48.027344 79.964844 47.714844 79.828125 47.652344 C 79.476562 47.488281 79.351562 47.363281 79.351562 47.15625 C 79.351562 46.882812 80.023438 46.300781 80.34375 46.300781 C 80.441406 46.300781 82.351562 48.210938 82.460938 48.421875 C 82.605469 48.703125 82.570312 48.867188 82.296875 49.136719 C 81.984375 49.460938 81.8125 49.460938 81.433594 49.164062 Z M 82.644531 47.242188 C 82.269531 46.875 81.574219 46.027344 81.574219 45.925781 C 81.574219 45.808594 81.917969 45.433594 82.207031 45.238281 C 82.34375 45.136719 82.617188 45.027344 82.828125 44.988281 C 83.167969 44.90625 83.21875 44.914062 83.5 45.050781 C 83.890625 45.242188 84.054688 45.507812 84.054688 45.945312 C 84.054688 46.335938 83.792969 46.925781 83.464844 47.277344 C 83.191406 47.566406 82.96875 47.558594 82.644531 47.242188 Z M 66.003906 44.382812 C 65.859375 44.257812 65.8125 44.136719 65.761719 43.769531 C 65.695312 43.316406 65.703125 43.308594 65.867188 43.164062 C 66.027344 43.019531 66.09375 43.011719 67.027344 43.011719 C 67.6875 43.011719 68.074219 43.039062 68.183594 43.097656 C 68.492188 43.257812 68.523438 44.03125 68.230469 44.230469 C 68.152344 44.28125 67.765625 44.355469 67.367188 44.394531 C 66.976562 44.425781 66.542969 44.480469 66.414062 44.5 C 66.226562 44.527344 66.140625 44.5 66.003906 44.382812 Z M 66.210938 42.296875 C 65.96875 42.277344 65.742188 42.222656 65.695312 42.175781 C 65.605469 42.085938 65.511719 41.632812 65.507812 41.230469 C 65.507812 40.847656 65.390625 40.742188 64.917969 40.683594 C 64.382812 40.617188 64.050781 40.421875 63.574219 39.902344 C 62.972656 39.238281 62.652344 38.558594 62.5625 37.777344 C 62.46875 37.027344 62.554688 36.566406 62.855469 36.125 C 63.1875 35.632812 63.652344 35.289062 64.257812 35.085938 C 64.574219 34.980469 64.8125 34.863281 64.851562 34.789062 C 64.929688 34.644531 64.9375 33.933594 64.867188 33.835938 C 64.839844 33.796875 64.691406 33.726562 64.527344 33.679688 C 64.042969 33.539062 63.488281 33.203125 63.253906 32.914062 C 62.75 32.304688 62.429688 31.21875 62.5625 30.613281 C 62.769531 29.671875 63.992188 28.363281 64.789062 28.226562 C 65.03125 28.1875 65.082031 28.144531 65.128906 27.980469 C 65.199219 27.726562 65.132812 27.25 65.011719 27.125 C 64.957031 27.074219 64.703125 26.96875 64.441406 26.890625 C 63.925781 26.738281 63.429688 26.441406 63.109375 26.101562 C 62.800781 25.773438 62.019531 24.421875 61.855469 23.949219 C 61.691406 23.46875 61.6875 23.332031 61.816406 22.726562 C 62.042969 21.640625 62.835938 20.527344 63.886719 19.804688 C 64.265625 19.542969 64.304688 19.417969 64.363281 18.277344 L 64.410156 17.457031 L 64.21875 17.277344 C 63.878906 16.949219 63.15625 16.746094 62.078125 16.667969 C 61.300781 16.609375 60.113281 16.464844 59.496094 16.34375 C 59.222656 16.292969 58.558594 16.226562 58.007812 16.199219 C 57.453125 16.175781 56.96875 16.121094 56.910156 16.082031 C 56.773438 15.976562 56.695312 15.574219 56.691406 14.976562 L 56.691406 14.46875 L 57.066406 14.425781 C 57.277344 14.398438 57.832031 14.410156 58.320312 14.457031 C 58.804688 14.503906 59.484375 14.570312 59.824219 14.59375 C 60.589844 14.667969 62.59375 14.667969 63.378906 14.601562 C 63.917969 14.554688 63.972656 14.535156 64.148438 14.339844 C 64.3125 14.15625 64.332031 14.089844 64.332031 13.640625 C 64.332031 13.109375 64.421875 12.949219 64.773438 12.851562 C 64.871094 12.824219 65.867188 12.792969 66.980469 12.785156 C 68.105469 12.78125 69.152344 12.753906 69.3125 12.726562 C 69.582031 12.6875 69.621094 12.695312 69.71875 12.839844 C 69.777344 12.929688 69.855469 13.28125 69.894531 13.648438 C 69.953125 14.179688 69.992188 14.320312 70.125 14.449219 C 70.265625 14.59375 70.304688 14.601562 70.835938 14.554688 C 71.148438 14.53125 72.683594 14.507812 74.25 14.503906 C 76.855469 14.496094 77.117188 14.503906 77.308594 14.613281 C 77.574219 14.757812 77.621094 14.929688 77.5625 15.574219 C 77.496094 16.34375 77.457031 16.457031 77.175781 16.550781 C 76.832031 16.667969 75.542969 16.753906 73.472656 16.800781 C 71.175781 16.851562 70.738281 16.898438 70.1875 17.152344 C 69.699219 17.382812 69.71875 17.332031 69.660156 18.449219 C 69.613281 19.292969 69.628906 19.3125 70.605469 19.824219 C 71.003906 20.035156 71.417969 20.292969 71.515625 20.398438 C 71.808594 20.691406 72.101562 21.390625 72.273438 22.21875 C 72.457031 23.101562 72.46875 23.46875 72.332031 24.160156 C 72.109375 25.351562 71.585938 25.960938 70.195312 26.667969 C 69.757812 26.882812 69.53125 26.960938 69.3125 26.960938 L 69.019531 26.960938 L 69.066406 27.542969 C 69.09375 27.855469 69.132812 28.132812 69.15625 28.152344 C 69.175781 28.179688 69.429688 28.296875 69.71875 28.421875 C 70.808594 28.890625 71.097656 29.179688 71.449219 30.171875 C 71.761719 31.039062 71.507812 32.230469 70.867188 32.875 C 70.542969 33.203125 70.222656 33.371094 69.648438 33.515625 C 69.398438 33.574219 69.15625 33.671875 69.117188 33.726562 C 69.019531 33.851562 69.007812 34.449219 69.097656 34.683594 C 69.175781 34.894531 69.523438 35.121094 69.769531 35.121094 C 70.265625 35.121094 70.945312 35.691406 71.292969 36.402344 C 71.476562 36.785156 71.480469 36.824219 71.480469 37.785156 C 71.480469 38.730469 71.476562 38.785156 71.300781 39.144531 C 71.203125 39.347656 71.011719 39.613281 70.875 39.730469 C 70.585938 39.988281 69.691406 40.421875 69.253906 40.511719 C 68.757812 40.625 68.757812 40.613281 68.714844 41.421875 C 68.6875 41.882812 68.640625 42.183594 68.589844 42.238281 C 68.496094 42.328125 66.988281 42.367188 66.210938 42.296875 Z M 46.605469 40.574219 C 46.441406 40.386719 46.304688 40.199219 46.304688 40.152344 C 46.304688 39.960938 46.636719 39.605469 47.089844 39.304688 C 47.355469 39.125 47.988281 38.574219 48.492188 38.085938 C 49.804688 36.796875 49.941406 36.683594 50.082031 36.757812 C 50.28125 36.867188 50.617188 37.242188 50.617188 37.363281 C 50.617188 37.429688 50.414062 37.699219 50.164062 37.960938 C 49.921875 38.222656 49.542969 38.652344 49.328125 38.902344 C 48.578125 39.785156 47.277344 40.90625 47.003906 40.90625 C 46.953125 40.90625 46.769531 40.757812 46.605469 40.574219 Z M 45.820312 37.335938 C 44.867188 36.324219 44.84375 36.285156 44.941406 36.097656 C 45.15625 35.683594 45.898438 35.054688 46.160156 35.054688 C 46.324219 35.054688 47.917969 36.699219 47.976562 36.921875 C 47.996094 37.015625 48.003906 37.132812 47.984375 37.183594 C 47.929688 37.324219 46.839844 38.144531 46.703125 38.144531 C 46.625 38.144531 46.273438 37.824219 45.820312 37.335938 Z M 45.820312 37.335938 "
    />
    <path
      d="M 42.941406 36.097656 C 42.777344 35.953125 42.714844 35.84375 42.714844 35.699219 C 42.714844 35.394531 42.816406 35.269531 43.210938 35.074219 C 43.445312 34.953125 43.847656 34.625 44.371094 34.125 C 45.441406 33.101562 45.5 33.074219 45.839844 33.414062 C 46.199219 33.777344 46.15625 33.875 45.148438 34.808594 C 44.050781 35.824219 43.449219 36.304688 43.292969 36.304688 C 43.230469 36.304688 43.074219 36.210938 42.941406 36.097656 Z M 65.265625 11.996094 C 65.101562 11.878906 65.070312 11.65625 65.199219 11.476562 C 65.316406 11.320312 65.9375 11.242188 67.222656 11.242188 C 68.542969 11.242188 68.773438 11.300781 68.773438 11.65625 C 68.773438 12.050781 68.726562 12.054688 66.980469 12.082031 C 65.609375 12.101562 65.390625 12.089844 65.265625 11.996094 Z M 65.519531 10.589844 C 65.285156 10.53125 65.074219 10.367188 64.972656 10.15625 C 64.929688 10.082031 64.878906 9.300781 64.847656 8.347656 C 64.820312 7.425781 64.769531 6.582031 64.730469 6.484375 C 64.636719 6.246094 64.382812 6.140625 63.644531 6.050781 C 62.671875 5.925781 62.441406 5.859375 62.339844 5.640625 C 62.214844 5.398438 62.214844 4.964844 62.339844 4.859375 C 62.402344 4.808594 62.875 4.761719 63.789062 4.726562 C 65.132812 4.683594 65.453125 4.628906 65.527344 4.453125 C 65.546875 4.398438 65.578125 4.164062 65.605469 3.925781 C 65.644531 3.53125 65.636719 3.484375 65.519531 3.417969 C 65.324219 3.3125 64.890625 3.226562 63.953125 3.121094 C 62.71875 2.976562 62.488281 2.847656 62.273438 2.175781 C 62.136719 1.746094 62.167969 1.359375 62.378906 0.933594 C 62.691406 0.292969 63.273438 0.148438 65.898438 0.0507812 C 68.25 -0.0429688 70.128906 0 70.789062 0.15625 C 71.300781 0.273438 71.683594 0.542969 71.878906 0.917969 C 71.992188 1.136719 72.011719 2.367188 71.90625 2.5625 C 71.75 2.859375 71.003906 3.0625 69.777344 3.148438 C 68.933594 3.214844 68.667969 3.273438 68.5625 3.4375 C 68.535156 3.476562 68.511719 3.707031 68.511719 3.953125 C 68.511719 4.589844 68.535156 4.601562 70.019531 4.648438 C 71.1875 4.683594 71.203125 4.683594 71.359375 4.851562 C 71.480469 4.984375 71.515625 5.097656 71.515625 5.367188 C 71.515625 5.828125 71.390625 5.953125 70.882812 6.003906 C 69.777344 6.121094 69.097656 6.328125 68.953125 6.589844 C 68.902344 6.695312 68.902344 7.078125 68.96875 8.078125 C 69.09375 9.992188 69.011719 10.285156 68.355469 10.492188 C 67.96875 10.601562 65.867188 10.679688 65.519531 10.589844 Z M 65.519531 10.589844 "
    />
  </g>
</svg>
