<svg xmlns="http://www.w3.org/2000/svg" id="root" viewBox="0 0 99 53">
  <g>
    <path
      d="M 68.832031 52.636719 C 68.082031 52.429688 67.101562 52.144531 66.640625 51.988281 C 66.03125 51.78125 65.285156 51.679688 63.929688 51.601562 C 62.511719 51.523438 61.882812 51.433594 61.328125 51.210938 C 60.089844 50.746094 60.4375 50.527344 61.855469 50.875 C 62.253906 50.980469 63.222656 51.121094 63.996094 51.210938 C 64.78125 51.289062 66.058594 51.445312 66.859375 51.550781 C 67.644531 51.664062 68.367188 51.71875 68.429688 51.664062 C 68.519531 51.613281 68.546875 51.382812 68.496094 51.082031 C 68.445312 50.796875 68.445312 50.433594 68.496094 50.265625 C 68.574219 49.941406 69.140625 49.59375 69.371094 49.734375 C 69.550781 49.851562 69.386719 51.070312 69.128906 51.457031 C 68.972656 51.703125 68.960938 51.78125 69.113281 51.925781 C 69.386719 52.183594 70.457031 52.519531 71.796875 52.765625 L 73.019531 53 L 71.601562 53 C 70.457031 53 69.925781 52.933594 68.832031 52.636719 Z M 34.304688 51.898438 C 33.902344 51.820312 33.722656 51.472656 33.375 50.125 C 33.105469 49.113281 33.09375 48.894531 33.222656 48.246094 C 33.3125 47.84375 33.414062 47.144531 33.453125 46.679688 C 33.492188 46.210938 33.710938 45.320312 33.917969 44.683594 C 34.175781 43.921875 34.253906 43.492188 34.175781 43.414062 C 33.980469 43.222656 33.789062 43.390625 33.441406 44.089844 C 32.9375 45.097656 32.640625 46.136719 32.460938 47.574219 C 32.28125 49.035156 32.253906 48.867188 33.054688 50.953125 C 33.144531 51.199219 33.183594 51.457031 33.128906 51.511719 C 32.976562 51.664062 31.699219 51.210938 31.699219 51.003906 C 31.699219 50.914062 31.53125 50.449219 31.3125 49.980469 C 30.875 49.011719 30.835938 48.414062 31.132812 47.261719 C 31.414062 46.148438 31.480469 45.695312 31.390625 45.304688 C 31.222656 44.683594 30.914062 44.996094 30.539062 46.160156 C 30.253906 47.054688 30.203125 47.480469 30.214844 48.429688 C 30.242188 49.464844 30.28125 49.671875 30.589844 50.164062 C 30.785156 50.460938 30.925781 50.773438 30.898438 50.835938 C 30.875 50.902344 30.601562 50.8125 30.28125 50.628906 C 29.339844 50.125 29.222656 50.074219 28.464844 49.867188 C 27.792969 49.671875 27.726562 49.621094 27.535156 49.113281 C 27.03125 47.675781 26.992188 46.589844 27.394531 44.699219 C 27.652344 43.503906 28.644531 41.433594 29.09375 41.148438 C 29.289062 41.03125 29.738281 40.746094 30.085938 40.515625 C 31.46875 39.632812 31.957031 39.414062 32.445312 39.453125 L 32.925781 39.492188 L 32.539062 39.722656 C 32.332031 39.867188 31.945312 40.230469 31.699219 40.550781 C 31.453125 40.863281 31.082031 41.316406 30.886719 41.535156 C 30.695312 41.769531 30.320312 42.367188 30.0625 42.859375 C 29.597656 43.765625 29.597656 43.765625 29.585938 45.539062 C 29.570312 46.511719 29.625 47.351562 29.675781 47.40625 C 29.882812 47.613281 30.023438 47.121094 30.023438 46.226562 C 30.023438 44.8125 30.769531 42.597656 31.621094 41.5 C 32.28125 40.667969 32.703125 40.214844 32.886719 40.203125 C 32.9375 40.203125 33.222656 40.035156 33.53125 39.828125 C 34.058594 39.464844 34.175781 39.4375 35.761719 39.386719 C 37.179688 39.347656 37.65625 39.269531 38.855469 38.90625 C 39.847656 38.609375 40.632812 38.46875 41.472656 38.429688 C 42.117188 38.390625 42.660156 38.390625 42.660156 38.429688 C 42.660156 38.453125 42.515625 38.816406 42.335938 39.21875 C 41.78125 40.476562 41.589844 42.027344 41.652344 44.671875 C 41.71875 46.730469 41.753906 47.066406 41.988281 47.519531 C 42.542969 48.570312 42.953125 48.828125 42.671875 47.949219 C 42.402344 47.105469 42.285156 46.199219 42.257812 44.414062 C 42.234375 42.792969 42.269531 42.46875 42.566406 41.367188 C 42.992188 39.839844 43.585938 38.375 43.832031 38.246094 C 44.515625 37.871094 45.714844 37.351562 45.894531 37.351562 C 46.011719 37.351562 46.140625 37.484375 46.191406 37.652344 C 46.320312 38.117188 46.28125 39.492188 46.113281 40.449219 C 45.933594 41.550781 46.113281 43.351562 46.460938 43.6875 C 46.65625 43.882812 46.667969 43.84375 46.640625 43.117188 C 46.628906 42.691406 46.695312 41.589844 46.785156 40.65625 C 46.859375 39.738281 46.898438 38.582031 46.859375 38.105469 C 46.757812 37.121094 46.808594 37.066406 47.777344 36.914062 C 48.074219 36.875 48.394531 36.796875 48.5 36.757812 C 48.78125 36.652344 48.925781 37.003906 49.15625 38.3125 C 49.402344 39.699219 50.148438 41.367188 50.921875 42.210938 C 51.21875 42.535156 51.503906 42.792969 51.566406 42.792969 C 51.785156 42.792969 51.683594 42.457031 51.308594 42.015625 C 50.484375 41.007812 50.160156 40.214844 50.007812 38.84375 C 49.929688 38.039062 49.773438 37.40625 49.632812 37.144531 C 49.503906 36.925781 49.347656 36.511719 49.3125 36.226562 C 49.21875 35.746094 49.246094 35.695312 49.867188 35.113281 C 50.226562 34.777344 50.574219 34.503906 50.652344 34.503906 C 50.730469 34.503906 50.949219 34.777344 51.140625 35.097656 C 52.765625 37.871094 53.179688 38.519531 53.65625 38.960938 C 53.953125 39.230469 54.609375 39.851562 55.101562 40.332031 C 56.945312 42.09375 58.671875 42.898438 57.019531 41.226562 C 56.402344 40.589844 56.296875 40.4375 56.453125 40.332031 C 56.828125 40.097656 57.238281 40.269531 58.839844 41.304688 C 59.675781 41.859375 60.464844 42.183594 60.605469 42.042969 C 60.785156 41.859375 59.175781 40.628906 57.703125 39.828125 C 57.109375 39.503906 56.816406 39.425781 56.167969 39.425781 C 55.523438 39.425781 55.265625 39.347656 54.675781 39.023438 C 54.082031 38.675781 53.847656 38.414062 53.164062 37.367188 C 52.726562 36.679688 52.121094 35.667969 51.824219 35.113281 L 51.269531 34.113281 L 51.542969 33.53125 C 51.695312 33.207031 51.8125 32.847656 51.8125 32.703125 C 51.8125 32.574219 52.03125 32.144531 52.289062 31.769531 C 52.546875 31.394531 52.804688 30.824219 52.855469 30.515625 C 52.921875 30.214844 53.140625 29.710938 53.359375 29.386719 C 53.65625 28.945312 53.746094 28.675781 53.746094 28.195312 C 53.746094 27.859375 53.835938 27.289062 53.953125 26.925781 C 54.082031 26.523438 54.171875 25.695312 54.199219 24.789062 C 54.210938 23.921875 54.300781 23.144531 54.390625 22.949219 L 54.558594 22.585938 L 60.078125 22.585938 L 61.519531 21.992188 C 62.320312 21.667969 63.246094 21.214844 63.597656 20.996094 C 63.945312 20.773438 64.421875 20.578125 64.652344 20.566406 C 65.21875 20.515625 65.878906 20.164062 67.722656 18.949219 C 68.558594 18.378906 69.332031 17.925781 69.421875 17.925781 C 69.515625 17.925781 69.617188 18.078125 69.65625 18.273438 C 69.785156 18.855469 69.976562 20.695312 69.914062 20.785156 C 69.886719 20.839844 69.707031 20.917969 69.515625 20.96875 C 69.308594 21.007812 68.84375 21.292969 68.457031 21.578125 C 68.070312 21.875 67.503906 22.1875 67.191406 22.277344 C 66.496094 22.484375 65.890625 22.832031 65.800781 23.078125 C 65.734375 23.246094 65.917969 23.261719 66.949219 23.195312 C 68.289062 23.117188 68.613281 22.988281 69.347656 22.1875 C 69.589844 21.925781 69.925781 21.667969 70.09375 21.617188 C 70.546875 21.488281 70.492188 22.121094 70.03125 22.417969 C 69.824219 22.535156 69.140625 23.027344 68.496094 23.519531 C 67.347656 24.375 67.308594 24.402344 66.238281 24.515625 C 64.34375 24.738281 61.867188 25.476562 61.867188 25.8125 C 61.867188 26.019531 62.164062 26.03125 63.015625 25.863281 C 63.480469 25.773438 64.769531 25.578125 65.867188 25.425781 C 67.578125 25.203125 67.941406 25.113281 68.367188 24.816406 C 70.222656 23.519531 70.378906 23.480469 70.390625 24.308594 C 70.441406 26.5625 70.402344 28.519531 70.324219 28.648438 C 70.273438 28.738281 69.773438 29.039062 69.203125 29.324219 C 68.339844 29.761719 68.070312 29.839844 67.375 29.839844 C 66.769531 29.839844 66.214844 29.957031 65.207031 30.308594 C 64.472656 30.566406 63.609375 30.785156 63.285156 30.785156 C 62.757812 30.800781 60.992188 30.617188 59.5625 30.410156 C 58.269531 30.214844 59.574219 30.941406 61.367188 31.40625 C 62.796875 31.785156 64.539062 31.691406 65.453125 31.214844 C 66.355469 30.746094 66.769531 30.644531 67.488281 30.707031 C 68.042969 30.773438 68.261719 30.707031 69.0625 30.308594 C 69.566406 30.046875 70.003906 29.894531 70.015625 29.945312 C 70.183594 30.292969 69.992188 32.09375 69.695312 33.015625 C 69.515625 33.585938 69.269531 34.503906 69.140625 35.0625 C 68.945312 35.992188 68.90625 36.070312 68.648438 36.019531 C 67.359375 35.707031 65.632812 35.410156 65.183594 35.421875 C 64.484375 35.4375 63.519531 35.695312 63.453125 35.875 C 63.390625 36.058594 64.730469 36.316406 65.660156 36.316406 C 66.277344 36.316406 67.527344 36.574219 68.226562 36.859375 C 68.546875 36.992188 68.585938 37.054688 68.519531 37.390625 C 68.484375 37.597656 68.445312 37.859375 68.445312 37.949219 C 68.445312 38.089844 68.1875 38.128906 67.308594 38.128906 C 65.660156 38.128906 61.675781 37.183594 60.101562 36.40625 C 58.65625 35.707031 56.96875 35.292969 56.96875 35.65625 C 56.96875 35.773438 58.246094 36.316406 58.492188 36.316406 C 58.554688 36.316406 59.082031 36.628906 59.691406 37.015625 C 60.941406 37.804688 62.230469 38.3125 63.726562 38.597656 C 64.304688 38.699219 65.066406 38.84375 65.414062 38.90625 C 65.773438 38.972656 66.5625 39.0625 67.191406 39.113281 C 67.875 39.167969 68.316406 39.257812 68.316406 39.347656 C 68.316406 39.425781 68.160156 39.789062 67.980469 40.152344 L 67.644531 40.8125 L 66.675781 40.890625 C 66.058594 40.941406 65.402344 40.890625 64.859375 40.773438 C 64.382812 40.683594 63.671875 40.589844 63.285156 40.589844 C 62.859375 40.589844 62.371094 40.488281 62.0625 40.332031 C 60.980469 39.800781 60.667969 40.125 61.636719 40.761719 C 62.4375 41.289062 63.480469 41.613281 64.832031 41.757812 C 65.996094 41.875 66.898438 42.105469 66.898438 42.289062 C 66.898438 42.351562 66.585938 43.039062 66.199219 43.804688 C 65.8125 44.582031 65.453125 45.421875 65.414062 45.683594 C 65.246094 46.535156 65.128906 46.601562 64.175781 46.382812 C 63.726562 46.265625 62.976562 46.109375 62.511719 46.03125 C 61.441406 45.835938 59.445312 44.917969 58.027344 43.945312 C 57.421875 43.519531 56.878906 43.183594 56.816406 43.183594 C 56.761719 43.183594 56.710938 43.285156 56.710938 43.402344 C 56.710938 43.816406 57.832031 44.683594 59.03125 45.191406 C 59.675781 45.460938 60.644531 45.964844 61.183594 46.304688 C 61.804688 46.703125 62.421875 46.976562 62.886719 47.066406 C 63.789062 47.25 64.574219 47.480469 64.574219 47.558594 C 64.574219 47.585938 64.175781 48.050781 63.671875 48.582031 C 63.183594 49.113281 62.769531 49.621094 62.769531 49.683594 C 62.769531 49.878906 61.015625 49.722656 59.367188 49.386719 C 58.644531 49.242188 57.574219 49.074219 56.980469 49.023438 L 55.886719 48.90625 L 54.378906 47.3125 C 53.539062 46.433594 52.675781 45.398438 52.457031 45.035156 C 52.03125 44.28125 51.8125 44.167969 51.8125 44.671875 C 51.8125 45.152344 52.496094 46.277344 53.191406 46.949219 C 53.539062 47.289062 53.925781 47.832031 54.082031 48.195312 L 54.351562 48.84375 L 52.921875 48.921875 L 51.488281 48.996094 L 51.128906 48.582031 C 50.753906 48.15625 50.238281 47.46875 49.710938 46.679688 C 49.542969 46.433594 49.21875 45.65625 49 44.96875 C 48.640625 43.867188 48.589844 43.519531 48.589844 42.351562 C 48.589844 41.5625 48.539062 40.96875 48.460938 40.914062 C 48.28125 40.8125 47.945312 41.640625 47.855469 42.390625 C 47.765625 43.183594 48.433594 45.578125 48.988281 46.472656 C 50.136719 48.3125 50.511719 49.023438 50.355469 49.074219 C 50.277344 49.101562 50.03125 49.152344 49.8125 49.179688 C 49.414062 49.242188 47.15625 49.695312 46.140625 49.90625 C 45.429688 50.058594 45.378906 50.007812 44.941406 48.816406 C 44.128906 46.5625 43.921875 44.761719 44.371094 43.53125 C 44.644531 42.78125 44.683594 40.796875 44.4375 40.875 C 44.230469 40.953125 43.949219 41.757812 43.496094 43.558594 L 43.136719 44.996094 L 43.355469 46.25 C 43.546875 47.339844 44.078125 49.242188 44.386719 49.941406 C 44.5 50.1875 44.320312 50.242188 42.59375 50.433594 C 41.960938 50.511719 41.203125 50.65625 40.917969 50.757812 C 40.453125 50.925781 39.949219 51.003906 39.949219 50.914062 C 39.949219 50.902344 39.847656 50.578125 39.707031 50.214844 C 39.5625 49.828125 39.421875 48.984375 39.371094 48.207031 C 39.304688 47.273438 39.203125 46.71875 39.023438 46.355469 C 38.828125 45.964844 38.765625 45.578125 38.75 44.671875 C 38.738281 43.609375 38.789062 43.402344 39.214844 42.351562 C 39.472656 41.707031 39.667969 41.175781 39.640625 41.148438 C 39.617188 41.109375 39.410156 41.289062 39.191406 41.523438 C 38.917969 41.820312 38.648438 42.390625 38.328125 43.363281 C 37.796875 44.957031 37.796875 45.332031 38.339844 46.484375 C 38.53125 46.875 38.660156 47.40625 38.660156 47.726562 C 38.675781 48.039062 38.816406 48.933594 38.984375 49.722656 C 39.191406 50.644531 39.253906 51.1875 39.164062 51.289062 C 38.816406 51.703125 35.488281 52.132812 34.304688 51.898438 Z M 61.675781 29.582031 C 61.636719 29.515625 61.183594 29.335938 60.667969 29.179688 C 60.152344 29.039062 59.40625 28.804688 59.007812 28.660156 C 58.527344 28.507812 57.910156 28.414062 57.238281 28.414062 C 55.449219 28.414062 55.859375 28.855469 57.832031 29.0625 C 58.425781 29.128906 58.96875 29.21875 59.046875 29.269531 C 59.585938 29.59375 61.855469 29.878906 61.675781 29.582031 Z M 61.148438 26.226562 C 61.261719 26.136719 61.328125 26.007812 61.289062 25.953125 C 61.199219 25.800781 59.394531 25.695312 58.878906 25.8125 C 58.335938 25.941406 57.175781 25.761719 56.789062 25.488281 C 56.453125 25.253906 55.679688 25.242188 55.679688 25.476562 C 55.679688 25.746094 56.867188 26.238281 57.769531 26.355469 C 58.980469 26.5 60.902344 26.433594 61.148438 26.226562 Z M 71.667969 49.542969 C 71.667969 49.398438 71.730469 49.242188 71.796875 49.203125 C 71.875 49.152344 71.925781 49.269531 71.925781 49.449219 C 71.925781 49.632812 71.875 49.789062 71.796875 49.789062 C 71.730469 49.789062 71.667969 49.671875 71.667969 49.542969 Z M 77.238281 49.398438 C 76.8125 49.050781 76.902344 48.597656 77.429688 48.453125 C 77.972656 48.285156 78.242188 48.414062 78.242188 48.816406 C 78.242188 49.605469 77.792969 49.867188 77.238281 49.398438 Z M 77.238281 49.398438 "
    />
    <path
      d="M 26.476562 48.90625 C 25.394531 47.558594 24.828125 46.367188 24.609375 45.035156 C 24.453125 44.101562 24.453125 44.101562 24.890625 43.222656 C 25.730469 41.550781 26.179688 41.058594 27.585938 40.269531 C 28.28125 39.867188 29.03125 39.476562 29.25 39.398438 C 29.714844 39.246094 29.699219 38.984375 29.222656 38.933594 C 28.683594 38.867188 26.414062 39.917969 25.9375 40.449219 C 25.703125 40.707031 25.511719 40.835938 25.511719 40.746094 C 25.511719 40.34375 27.070312 38.46875 27.855469 37.921875 C 28.320312 37.597656 28.449219 37.558594 29.417969 37.597656 C 30.914062 37.636719 33.105469 38.234375 32.910156 38.546875 C 32.871094 38.609375 32.484375 38.636719 32.046875 38.621094 C 31.324219 38.582031 31.25 38.609375 31.210938 38.855469 C 31.183594 39.011719 30.992188 39.21875 30.707031 39.347656 C 30.152344 39.621094 28.953125 40.539062 28.386719 41.136719 C 27.84375 41.707031 26.980469 43.492188 26.710938 44.582031 C 26.414062 45.796875 26.414062 47.859375 26.710938 48.675781 C 26.839844 49.023438 26.917969 49.320312 26.890625 49.347656 C 26.878906 49.375 26.683594 49.167969 26.476562 48.90625 Z M 67.347656 48.921875 C 67.207031 48.894531 66.949219 48.765625 66.792969 48.636719 L 66.484375 48.414062 L 66.730469 47.898438 C 66.859375 47.625 67.050781 47.390625 67.15625 47.390625 C 67.347656 47.390625 67.929688 48.167969 67.929688 48.429688 C 67.929688 48.6875 67.605469 48.957031 67.347656 48.921875 Z M 11.523438 48.519531 C 11.804688 48.234375 14.191406 47.457031 15.726562 47.144531 C 16.628906 46.964844 17.609375 46.71875 17.902344 46.613281 C 18.703125 46.328125 20.1875 46.210938 22.03125 46.289062 C 23.5625 46.355469 23.617188 46.367188 23.0625 46.511719 C 22.738281 46.589844 21.8125 46.703125 21 46.742188 C 19.386719 46.835938 18.585938 46.976562 18.046875 47.25 C 17.867188 47.339844 17.273438 47.46875 16.742188 47.519531 C 16.214844 47.558594 15.027344 47.792969 14.101562 48.027344 C 12.011719 48.558594 11.355469 48.6875 11.523438 48.519531 Z M 72.441406 46.304688 C 72.261719 45.953125 72.273438 45.824219 72.519531 45.578125 C 72.710938 45.382812 72.75 45.382812 72.96875 45.589844 C 73.265625 45.863281 73.292969 46.367188 73.007812 46.472656 C 72.683594 46.601562 72.582031 46.5625 72.441406 46.304688 Z M 66.898438 46.175781 C 66.714844 45.824219 66.730469 45.695312 66.960938 45.460938 C 67.375 45.046875 67.8125 45.605469 67.476562 46.109375 C 67.230469 46.484375 67.078125 46.496094 66.898438 46.175781 Z M 21.152344 45.488281 C 21.0625 45.398438 21 45.28125 21 45.226562 C 21 45.074219 21.359375 45.097656 21.460938 45.265625 C 21.589844 45.488281 21.332031 45.667969 21.152344 45.488281 Z M 73.882812 44.671875 C 73.574219 44.28125 73.625 44.011719 74.011719 43.921875 C 74.476562 43.789062 74.644531 43.960938 74.605469 44.464844 C 74.554688 45.046875 74.246094 45.136719 73.882812 44.671875 Z M 80.886719 44.191406 C 77.957031 43.867188 80.265625 43.789062 85.589844 44.050781 C 86.984375 44.113281 87.214844 44.152344 86.75 44.230469 C 85.953125 44.359375 82.148438 44.335938 80.886719 44.191406 Z M 21.914062 43.921875 C 21.796875 43.609375 21.953125 43.3125 22.234375 43.3125 C 22.46875 43.3125 22.546875 43.480469 22.46875 43.804688 C 22.351562 44.191406 22.042969 44.269531 21.914062 43.921875 Z M 75.726562 43.699219 C 75.625 43.53125 75.78125 43.285156 75.933594 43.375 C 76.089844 43.480469 76.089844 43.828125 75.933594 43.828125 C 75.855469 43.828125 75.765625 43.777344 75.726562 43.699219 Z M 68.972656 43.15625 C 68.894531 42.9375 68.921875 42.78125 69.074219 42.597656 C 69.539062 42.015625 69.785156 42.003906 70.121094 42.558594 C 70.46875 43.128906 70.289062 43.441406 69.589844 43.441406 C 69.179688 43.441406 69.0625 43.390625 68.972656 43.15625 Z M 81.660156 41.757812 C 81.167969 41.691406 80.007812 41.613281 79.082031 41.5625 C 76.023438 41.40625 74.453125 41.238281 73.148438 40.929688 C 72.441406 40.761719 71.292969 40.515625 70.597656 40.398438 C 69.796875 40.253906 69.359375 40.113281 69.386719 40.023438 C 69.4375 39.867188 70.675781 39.890625 71.410156 40.074219 C 71.652344 40.136719 73.253906 40.230469 74.953125 40.269531 C 78.640625 40.359375 79.082031 40.410156 81.402344 40.980469 C 81.683594 41.042969 82.960938 41.136719 84.238281 41.1875 C 86.597656 41.277344 88.453125 41.148438 90.605469 40.785156 C 91.792969 40.578125 93.546875 40.527344 93.816406 40.707031 C 93.933594 40.773438 93.675781 40.851562 93.109375 40.914062 C 92.628906 40.96875 92.140625 41.019531 92.039062 41.042969 C 89.226562 41.613281 87.691406 41.796875 85.203125 41.820312 C 83.746094 41.835938 82.160156 41.808594 81.660156 41.757812 Z M 21.527344 41.097656 C 20.457031 40.980469 17.839844 40.566406 16.769531 40.34375 C 15.105469 40.007812 16.910156 40.046875 19.839844 40.410156 C 20.648438 40.515625 21.914062 40.628906 22.648438 40.683594 C 23.5625 40.734375 23.964844 40.8125 23.964844 40.914062 C 23.964844 41.265625 23.472656 41.289062 21.527344 41.097656 Z M 74.179688 39.347656 C 73.871094 39.023438 73.988281 38.714844 74.453125 38.675781 C 74.761719 38.648438 74.863281 38.6875 74.914062 38.867188 C 75.058594 39.503906 74.621094 39.789062 74.179688 39.347656 Z M 36.148438 38.234375 C 35.875 38 35.4375 37.585938 35.167969 37.3125 C 34.664062 36.820312 33.851562 36.445312 33.296875 36.445312 C 32.796875 36.445312 32.949219 36.769531 33.609375 37.082031 C 34.34375 37.429688 35.21875 38.429688 34.84375 38.507812 C 34.714844 38.53125 34.085938 38.273438 33.441406 37.949219 C 32.589844 37.507812 32.023438 37.3125 31.3125 37.210938 C 30.785156 37.132812 30.242188 37.003906 30.113281 36.9375 C 29.882812 36.820312 29.882812 36.808594 30.125 36.628906 C 30.527344 36.355469 32.976562 35.707031 34.03125 35.605469 L 34.988281 35.515625 L 35.824219 36.082031 C 36.390625 36.472656 36.6875 36.757812 36.765625 37.03125 C 36.832031 37.25 37.0625 37.613281 37.292969 37.84375 C 37.628906 38.195312 37.65625 38.285156 37.5 38.390625 C 37.398438 38.453125 37.242188 38.519531 37.152344 38.519531 C 37.074219 38.519531 36.921875 38.558594 36.816406 38.597656 C 36.703125 38.636719 36.417969 38.480469 36.148438 38.234375 Z M 75.445312 38.429688 C 75.355469 38.390625 75.277344 38.222656 75.277344 38.050781 C 75.277344 37.804688 75.339844 37.742188 75.597656 37.742188 C 75.832031 37.742188 75.921875 37.804688 75.921875 37.988281 C 75.921875 38.273438 75.664062 38.507812 75.445312 38.429688 Z M 37.992188 37.652344 C 37.8125 37.445312 37.566406 37.082031 37.460938 36.835938 C 37.359375 36.589844 37.113281 36.226562 36.933594 36.03125 C 36.613281 35.695312 36.613281 35.667969 36.84375 35.667969 C 37.320312 35.667969 39.203125 36.175781 41.019531 36.796875 L 42.851562 37.417969 L 41.625 37.523438 C 40.957031 37.574219 40.042969 37.714844 39.601562 37.820312 C 38.507812 38.066406 38.378906 38.050781 37.992188 37.652344 Z M 6.042969 37.496094 C 6.042969 37.339844 7.796875 37.277344 9.78125 37.351562 C 10.773438 37.390625 11.265625 37.457031 11.070312 37.507812 C 10.605469 37.652344 6.042969 37.636719 6.042969 37.496094 Z M 72.570312 35.65625 C 72.453125 35.449219 72.464844 35.320312 72.632812 35.074219 C 72.945312 34.582031 73.472656 34.75 73.472656 35.34375 C 73.472656 35.914062 72.828125 36.148438 72.570312 35.65625 Z M 77.109375 35.773438 C 77.03125 35.695312 76.953125 35.527344 76.953125 35.421875 C 76.953125 35.253906 76.980469 35.253906 77.160156 35.4375 C 77.273438 35.554688 77.351562 35.707031 77.328125 35.785156 C 77.289062 35.902344 77.222656 35.890625 77.109375 35.773438 Z M 39.617188 34.191406 C 39.511719 33.921875 39.652344 33.726562 39.964844 33.726562 C 40.15625 33.726562 40.222656 33.804688 40.183594 34.011719 C 40.132812 34.359375 39.730469 34.492188 39.617188 34.191406 Z M 71.5 34.285156 C 71.304688 34.089844 71.421875 33.726562 71.667969 33.726562 C 71.808594 33.726562 71.925781 33.804688 71.925781 33.90625 C 71.925781 34.128906 71.617188 34.398438 71.5 34.285156 Z M 41.589844 31.953125 C 41.535156 31.914062 41.496094 31.785156 41.496094 31.679688 C 41.496094 31.523438 41.535156 31.523438 41.691406 31.652344 C 41.792969 31.746094 41.882812 31.863281 41.882812 31.925781 C 41.882812 32.070312 41.703125 32.082031 41.589844 31.953125 Z M 26.027344 31.589844 C 25.769531 31.277344 26.050781 31.058594 26.335938 31.332031 C 26.542969 31.539062 26.515625 31.785156 26.296875 31.785156 C 26.234375 31.785156 26.117188 31.691406 26.027344 31.589844 Z M 43.199219 31.628906 C 42.980469 31.40625 43.007812 31.070312 43.25 30.878906 C 43.417969 30.734375 43.496094 30.746094 43.714844 30.980469 C 43.984375 31.253906 43.984375 31.265625 43.753906 31.523438 C 43.484375 31.824219 43.40625 31.835938 43.199219 31.628906 Z M 0.0078125 26.835938 L 0.046875 22.003906 L 0.5 21.941406 C 0.757812 21.886719 1.027344 21.808594 1.117188 21.757812 C 1.207031 21.707031 1.273438 21.734375 1.273438 21.796875 C 1.273438 22.070312 1.8125 21.941406 2.289062 21.539062 C 2.898438 21.058594 4.082031 20.761719 5.320312 20.785156 C 6.480469 20.8125 7.085938 20.566406 7.808594 19.765625 C 8.105469 19.425781 8.351562 19.117188 8.363281 19.078125 C 8.363281 19.039062 8.59375 18.753906 8.878906 18.429688 C 9.164062 18.117188 9.394531 17.820312 9.394531 17.769531 C 9.394531 17.511719 10.179688 17.71875 11.007812 18.195312 C 11.625 18.546875 12 18.855469 12.167969 19.15625 C 12.632812 20.035156 12.695312 20.046875 13.90625 19.441406 L 15.003906 18.894531 L 16.355469 18.960938 C 18.226562 19.039062 19.746094 19.039062 22.570312 18.949219 C 24.570312 18.871094 25.046875 18.816406 25.367188 18.625 L 25.769531 18.390625 L 26.21875 18.84375 L 26.683594 19.296875 L 25.832031 20.191406 C 25.355469 20.695312 24.90625 21.214844 24.800781 21.355469 C 24.710938 21.5 24.570312 22.171875 24.480469 22.847656 C 24.363281 23.894531 24.375 24.167969 24.542969 24.648438 C 24.648438 24.957031 24.738281 25.253906 24.738281 25.320312 C 24.738281 25.386719 23.242188 25.4375 21.425781 25.4375 C 17.621094 25.4375 16.203125 25.554688 15.570312 25.941406 C 15.144531 26.199219 14.964844 26.214844 8.414062 26.214844 C 2.070312 26.214844 1.683594 26.226562 1.492188 26.445312 C 1.363281 26.578125 1.273438 26.730469 1.273438 26.785156 C 1.273438 26.835938 1.117188 27.003906 0.9375 27.160156 L 0.601562 27.457031 L 0.9375 27.625 C 1.15625 27.742188 1.273438 27.921875 1.273438 28.117188 C 1.273438 28.351562 1.335938 28.414062 1.632812 28.414062 C 1.828125 28.414062 2.445312 28.507812 3.011719 28.625 C 3.582031 28.738281 5.089844 28.910156 6.363281 29 C 8.09375 29.117188 8.828125 29.21875 9.238281 29.402344 L 9.792969 29.648438 L 8.078125 29.648438 C 7.136719 29.648438 5.695312 29.722656 4.882812 29.816406 C 2.136719 30.125 1.335938 30.214844 1.3125 30.214844 C 1.285156 30.230469 1.273438 30.398438 1.273438 30.617188 C 1.273438 30.980469 0.898438 31.371094 0.71875 31.1875 C 0.679688 31.148438 0.589844 31.238281 0.5 31.382812 C 0.421875 31.539062 0.28125 31.652344 0.175781 31.652344 C 0.0078125 31.652344 -0.015625 31.019531 0.0078125 26.835938 Z M 75.496094 31.046875 C 75.445312 31.007812 75.40625 30.851562 75.40625 30.722656 C 75.40625 30.4375 75.742188 30.410156 75.84375 30.695312 C 75.972656 31.019531 75.714844 31.277344 75.496094 31.046875 Z M 36.574219 30.527344 C 36.445312 30.046875 36.703125 29.839844 37.101562 30.085938 C 37.230469 30.175781 37.242188 30.253906 37.128906 30.476562 C 36.945312 30.800781 36.648438 30.839844 36.574219 30.527344 Z M 51 30.269531 C 50.832031 30.113281 50.910156 29.839844 51.101562 29.839844 C 51.207031 29.839844 51.296875 29.957031 51.296875 30.101562 C 51.296875 30.359375 51.15625 30.4375 51 30.269531 Z M 51 30.269531 "
    />
    <path
      d="M 40.207031 28.765625 C 40.207031 28.402344 40.285156 28.117188 40.453125 27.949219 C 40.582031 27.808594 40.851562 27.210938 41.046875 26.617188 C 41.40625 25.527344 41.40625 25.527344 41.332031 22.792969 C 41.265625 19.789062 41.203125 19.480469 40.363281 17.792969 C 40.015625 17.082031 39.691406 16.667969 39.152344 16.203125 C 38.429688 15.566406 38.417969 15.566406 36.832031 15.320312 C 35.191406 15.074219 33.929688 15.113281 31.957031 15.488281 C 31.570312 15.554688 30.9375 15.671875 30.550781 15.734375 C 30.164062 15.8125 29.480469 15.980469 29.019531 16.136719 C 28.320312 16.355469 28.089844 16.382812 27.535156 16.265625 C 26.890625 16.148438 25.613281 16.226562 25.058594 16.433594 C 24.917969 16.5 24.632812 16.695312 24.414062 16.886719 C 24.054688 17.226562 23.320312 17.484375 23.320312 17.289062 C 23.320312 17.1875 23.847656 15.824219 24.078125 15.332031 C 24.351562 14.777344 24.996094 14.425781 25.78125 14.425781 C 26.621094 14.425781 27.585938 14.011719 28.464844 13.273438 C 28.785156 13.003906 29.429688 12.574219 29.894531 12.304688 C 30.359375 12.042969 31.132812 11.539062 31.609375 11.203125 C 32.371094 10.65625 32.628906 10.554688 33.453125 10.425781 C 35.21875 10.164062 36.058594 10.269531 38.957031 11.125 C 40.351562 11.527344 41.847656 13.09375 42.296875 14.621094 C 42.554688 15.515625 42.917969 17.652344 42.917969 18.339844 C 42.917969 19.671875 43.484375 19.453125 43.625 18.066406 C 43.691406 17.394531 43.652344 16.847656 43.433594 15.800781 C 43.121094 14.246094 42.929688 13.703125 42.402344 12.9375 C 41.976562 12.328125 40.453125 10.800781 40.042969 10.582031 C 39.679688 10.398438 38.480469 10.0625 37.242188 9.804688 C 36.300781 9.609375 34.496094 9.636719 33.222656 9.84375 C 32.78125 9.917969 32.730469 9.894531 32.730469 9.660156 C 32.730469 9.492188 33.09375 9.105469 33.773438 8.535156 C 34.34375 8.054688 34.871094 7.535156 34.949219 7.382812 C 35.140625 6.941406 37.0625 6.65625 38.855469 6.785156 C 40.273438 6.875 40.6875 7.042969 42.386719 8.144531 C 43.277344 8.726562 43.765625 8.832031 43.613281 8.417969 C 43.574219 8.3125 42.851562 7.757812 42 7.199219 L 40.464844 6.164062 L 39.101562 6.074219 C 37.773438 5.980469 36.484375 6.035156 35.839844 6.214844 C 35.566406 6.292969 35.542969 6.265625 35.632812 5.996094 C 35.671875 5.828125 35.914062 5.515625 36.160156 5.296875 C 36.40625 5.089844 36.90625 4.609375 37.28125 4.246094 C 37.746094 3.792969 38.171875 3.519531 38.636719 3.367188 C 39.152344 3.183594 39.5 2.9375 40.078125 2.34375 L 40.851562 1.539062 L 41.78125 1.550781 C 42.644531 1.550781 42.890625 1.628906 44.914062 2.484375 C 46.859375 3.3125 47.171875 3.496094 47.699219 4.050781 C 48.304688 4.726562 49.492188 6.875 49.492188 7.355469 C 49.503906 7.769531 49.917969 8.535156 50.136719 8.535156 C 50.277344 8.535156 50.328125 8.390625 50.316406 8.015625 C 50.289062 7.367188 50.007812 6.527344 49.324219 5.050781 C 48.613281 3.558594 47.789062 2.796875 46.488281 2.445312 C 45.996094 2.316406 45.441406 2.097656 45.261719 1.929688 C 44.8125 1.566406 44.308594 1.382812 43.496094 1.28125 C 43.136719 1.230469 42.761719 1.152344 42.671875 1.097656 C 42.386719 0.917969 43.546875 0.554688 45.042969 0.347656 C 47.789062 -0.015625 48.253906 -0.0546875 48.511719 0.0507812 C 49.53125 0.4375 52.585938 2.03125 52.832031 2.304688 C 53.292969 2.796875 53.539062 2.742188 53.449219 2.1875 C 53.347656 1.550781 52.894531 1.046875 52.132812 0.710938 L 51.488281 0.425781 L 52.132812 0.503906 C 53.371094 0.660156 54.46875 0.929688 55.433594 1.34375 C 56.375 1.734375 56.429688 1.773438 56.6875 2.421875 C 56.828125 2.796875 57.007812 3.390625 57.085938 3.765625 C 57.164062 4.128906 57.394531 4.804688 57.601562 5.269531 C 57.820312 5.734375 57.976562 6.214844 57.976562 6.359375 C 57.949219 6.746094 58.128906 7.5625 58.246094 7.5625 C 58.492188 7.5625 58.621094 7.1875 58.683594 6.253906 C 58.761719 5.308594 58.75 5.21875 58.257812 4.117188 C 57.882812 3.273438 57.792969 2.925781 57.898438 2.808594 C 57.976562 2.71875 58.078125 2.640625 58.128906 2.640625 C 58.285156 2.640625 59.46875 3.457031 60.078125 3.988281 C 60.410156 4.285156 60.8125 4.609375 60.980469 4.726562 C 61.261719 4.933594 61.289062 5.011719 61.261719 6.019531 C 61.25 6.617188 61.289062 7.34375 61.367188 7.628906 C 61.46875 8.027344 61.457031 8.378906 61.300781 9.117188 C 61.03125 10.398438 61.03125 11.320312 61.289062 11.320312 C 61.390625 11.320312 61.480469 11.304688 61.480469 11.292969 C 61.480469 11.265625 61.636719 10.851562 61.816406 10.347656 C 62.074219 9.597656 62.152344 9.128906 62.203125 7.691406 C 62.242188 6.734375 62.308594 5.867188 62.332031 5.761719 C 62.371094 5.621094 62.511719 5.695312 62.808594 6.019531 C 63.648438 6.902344 64.421875 7.898438 64.679688 8.417969 C 64.832031 8.714844 65.15625 9.117188 65.414062 9.324219 L 65.890625 9.699219 L 65.570312 10.996094 C 65.386719 11.707031 65.207031 12.523438 65.15625 12.808594 C 65.117188 13.09375 64.832031 13.855469 64.550781 14.492188 C 63.648438 16.5 61.804688 18.132812 59.832031 18.6875 C 58.824219 18.960938 58.644531 19.050781 58.644531 19.21875 C 58.644531 19.648438 60.191406 19.402344 61.496094 18.753906 C 62.140625 18.429688 62.539062 18.105469 63.171875 17.378906 C 63.621094 16.863281 64.1875 16.226562 64.421875 15.980469 C 64.976562 15.398438 65.515625 14.234375 65.867188 12.9375 C 66.34375 11.074219 66.394531 10.929688 66.496094 10.929688 C 66.546875 10.929688 66.664062 11.058594 66.742188 11.214844 C 66.820312 11.382812 67.0625 11.8125 67.285156 12.160156 C 68.367188 13.933594 68.355469 14.117188 66.871094 16.785156 C 65.902344 18.546875 65.335938 19.050781 62.4375 20.800781 C 60.953125 21.695312 60.023438 21.941406 58.105469 21.941406 C 56.53125 21.941406 54.957031 22.121094 54.714844 22.328125 C 54.46875 22.535156 54.289062 22.199219 54.289062 21.539062 C 54.289062 20.671875 54.03125 19.917969 53.4375 19 C 53.140625 18.558594 52.777344 17.976562 52.613281 17.703125 C 52.445312 17.433594 52.019531 16.992188 51.671875 16.71875 L 51.039062 16.214844 L 51.707031 15.761719 C 52.082031 15.503906 52.507812 15.191406 52.648438 15.074219 C 52.792969 14.945312 53.089844 14.75 53.308594 14.648438 C 53.785156 14.402344 54.183594 13.832031 54.070312 13.558594 C 54.003906 13.378906 53.925781 13.417969 53.578125 13.742188 C 53.179688 14.128906 51.722656 14.90625 51.617188 14.789062 C 51.59375 14.765625 51.824219 14.453125 52.148438 14.101562 C 52.882812 13.289062 53.589844 12.121094 53.824219 11.359375 C 53.925781 10.996094 54.003906 10.164062 54.003906 9.273438 C 54.003906 7.976562 53.964844 7.691406 53.695312 7.058594 C 53.515625 6.65625 53.242188 5.839844 53.089844 5.230469 C 52.804688 4.105469 52.558594 3.652344 52.339844 3.871094 C 52.1875 4.039062 52.726562 6.707031 53.035156 7.289062 C 53.410156 8.042969 53.320312 10.035156 52.816406 11.617188 C 52.535156 12.511719 52.328125 12.964844 52.097656 13.132812 C 51.914062 13.273438 51.734375 13.390625 51.683594 13.390625 C 51.527344 13.390625 51.644531 12.171875 51.851562 11.695312 C 51.953125 11.449219 52.070312 10.957031 52.121094 10.605469 C 52.171875 10.242188 52.277344 9.6875 52.355469 9.363281 C 52.519531 8.6875 52.417969 8.082031 52.132812 8.082031 C 52.03125 8.082031 51.914062 8.234375 51.875 8.441406 C 51.839844 8.636719 51.695312 9.195312 51.554688 9.6875 C 51.425781 10.179688 51.347656 10.644531 51.386719 10.75 C 51.425781 10.839844 51.320312 11.265625 51.179688 11.707031 C 51.027344 12.132812 50.910156 12.640625 50.910156 12.820312 C 50.910156 13.003906 50.742188 13.378906 50.535156 13.636719 C 50.328125 13.894531 50.046875 14.347656 49.890625 14.632812 C 49.738281 14.945312 49.480469 15.21875 49.324219 15.257812 C 48.988281 15.347656 48.074219 15.359375 48.074219 15.269531 C 48.074219 15.242188 48.1875 14.917969 48.332031 14.558594 C 48.730469 13.535156 48.691406 11.628906 48.253906 10.320312 C 47.90625 9.3125 47.6875 8.933594 46.925781 8.082031 C 46.707031 7.835938 46.527344 7.589844 46.527344 7.550781 C 46.527344 7.457031 45.082031 6.265625 44.371094 5.773438 C 43.832031 5.398438 41.574219 4.710938 41.355469 4.855469 C 41.058594 5.035156 41.433594 5.269531 42.722656 5.75 C 44.785156 6.511719 46.539062 8.234375 47.285156 10.21875 C 47.609375 11.085938 47.6875 11.472656 47.710938 12.574219 C 47.75 14 47.582031 14.53125 47.324219 13.792969 C 47.25 13.574219 47.121094 13.328125 47.042969 13.234375 C 46.976562 13.144531 46.667969 12.691406 46.359375 12.226562 C 45.84375 11.433594 45.765625 11.371094 44.980469 11.097656 C 43.339844 10.554688 43.019531 10.878906 44.4375 11.640625 C 45.132812 12.03125 45.390625 12.25 45.777344 12.859375 C 46.398438 13.832031 46.511719 14.128906 46.601562 15.191406 L 46.695312 16.070312 L 46.214844 16.433594 C 45.957031 16.628906 45.726562 16.773438 45.699219 16.746094 C 45.6875 16.71875 45.609375 16.164062 45.535156 15.515625 C 45.351562 13.894531 44.902344 12.949219 43.726562 11.773438 C 42.503906 10.527344 41.859375 10.035156 40.878906 9.542969 C 39.964844 9.078125 39.433594 9 39.433594 9.3125 C 39.433594 9.425781 39.859375 9.699219 40.503906 9.996094 C 41.535156 10.488281 41.808594 10.722656 43.175781 12.304688 C 44.128906 13.402344 44.386719 13.933594 44.785156 15.722656 C 44.914062 16.253906 45.054688 16.785156 45.109375 16.886719 C 45.238281 17.121094 44.902344 18.003906 44.515625 18.480469 C 44.347656 18.675781 44.128906 19.128906 44.023438 19.464844 C 43.921875 19.816406 43.636719 20.371094 43.378906 20.695312 C 43.121094 21.046875 42.917969 21.460938 42.917969 21.65625 C 42.917969 21.847656 42.773438 22.769531 42.59375 23.6875 C 42.414062 24.621094 42.179688 25.929688 42.066406 26.601562 C 41.859375 27.820312 41.847656 27.832031 41.136719 28.585938 C 40.738281 28.984375 40.363281 29.324219 40.3125 29.324219 C 40.261719 29.324219 40.207031 29.078125 40.207031 28.765625 Z M 58.878906 20.578125 C 60.0625 20.410156 60.578125 20.203125 60.335938 19.957031 C 60.179688 19.800781 56.90625 20.101562 56.363281 20.332031 C 55.925781 20.503906 55.820312 20.710938 56.105469 20.8125 C 56.296875 20.890625 57.332031 20.800781 58.878906 20.578125 Z M 53.796875 16.808594 C 54.648438 16.589844 55.113281 16.332031 56.542969 15.230469 C 57.460938 14.53125 57.871094 13.949219 58.195312 12.871094 C 58.246094 12.691406 58.453125 12.34375 58.644531 12.097656 C 58.839844 11.851562 59.058594 11.511719 59.148438 11.359375 C 59.417969 10.828125 59.691406 9.324219 59.804688 7.769531 C 59.882812 6.472656 59.871094 6.136719 59.691406 5.621094 C 59.457031 4.972656 59.175781 4.53125 59.058594 4.648438 C 59.019531 4.675781 58.96875 5.683594 58.941406 6.875 C 58.917969 8.082031 58.839844 9.375 58.773438 9.765625 C 58.566406 10.878906 57.265625 13.558594 56.582031 14.285156 C 55.652344 15.257812 54.855469 15.824219 53.847656 16.242188 C 53.332031 16.460938 52.894531 16.628906 52.882812 16.628906 C 52.855469 16.628906 52.84375 16.71875 52.84375 16.824219 C 52.84375 17.054688 52.832031 17.054688 53.796875 16.808594 Z M 62.230469 15.566406 C 63.285156 14.464844 63.945312 13.429688 64.125 12.652344 C 64.1875 12.34375 64.164062 12.226562 64.046875 12.226562 C 63.839844 12.226562 63.414062 12.613281 63.414062 12.796875 C 63.414062 12.871094 63.246094 13.132812 63.042969 13.378906 C 62.835938 13.625 62.589844 13.972656 62.488281 14.15625 C 62.398438 14.335938 62.0625 14.828125 61.753906 15.230469 C 61.261719 15.878906 61.160156 16.242188 61.480469 16.242188 C 61.535156 16.242188 61.882812 15.929688 62.230469 15.566406 Z M 51.554688 2.769531 C 51.554688 2.691406 51.285156 2.34375 50.960938 1.992188 C 50.355469 1.332031 49.59375 0.96875 49.167969 1.136719 C 48.847656 1.253906 49.066406 1.476562 49.828125 1.8125 C 50.199219 1.980469 50.675781 2.289062 50.859375 2.511719 C 51.207031 2.898438 51.554688 3.027344 51.554688 2.769531 Z M 72.660156 29.230469 C 72.609375 29.191406 72.570312 29.039062 72.570312 28.910156 C 72.570312 28.726562 72.464844 28.675781 72.117188 28.675781 C 71.808594 28.675781 71.667969 28.609375 71.667969 28.480469 C 71.667969 28.324219 71.847656 28.285156 72.554688 28.285156 L 73.445312 28.285156 L 73.253906 28.804688 C 73.058594 29.285156 72.851562 29.4375 72.660156 29.230469 Z M 26.695312 28.910156 C 26.464844 28.675781 26.503906 28.546875 26.800781 28.546875 C 26.96875 28.546875 27.058594 28.636719 27.058594 28.804688 C 27.058594 29.101562 26.929688 29.140625 26.695312 28.910156 Z M 26.695312 28.910156 "
    />
    <path
      d="M 39.175781 27.640625 C 39.175781 26.539062 39.046875 26.03125 38.660156 25.695312 C 38.621094 25.65625 38.441406 25.425781 38.273438 25.179688 C 37.914062 24.660156 37.734375 24.503906 37.113281 24.179688 C 36.871094 24.050781 36.546875 23.855469 36.40625 23.738281 C 36.148438 23.519531 34.84375 23.066406 34.019531 22.910156 C 33.773438 22.859375 32.949219 22.792969 32.203125 22.753906 C 30.886719 22.703125 30.785156 22.71875 29.957031 23.09375 C 29.480469 23.3125 28.964844 23.492188 28.8125 23.492188 C 28.667969 23.492188 28.257812 23.664062 27.894531 23.855469 C 27.210938 24.230469 26.941406 24.632812 26.644531 25.722656 C 26.554688 26.058594 26.453125 26.292969 26.402344 26.238281 C 26.347656 26.1875 26.15625 25.695312 25.976562 25.152344 C 25.625 24.101562 25.550781 23.117188 25.769531 22.316406 C 26 21.460938 27.445312 20.164062 29.277344 19.128906 C 30.292969 18.558594 30.578125 18.105469 30.511719 17.171875 C 30.472656 16.5 30.511719 16.472656 31.945312 16.304688 C 32.667969 16.226562 32.730469 16.242188 32.730469 16.460938 C 32.730469 16.785156 32.976562 17.019531 33.3125 17.019531 C 33.710938 17.019531 33.789062 16.886719 33.570312 16.550781 C 33.464844 16.382812 33.425781 16.226562 33.480469 16.1875 C 33.53125 16.164062 33.980469 16.097656 34.484375 16.046875 C 35.671875 15.929688 38.042969 16.292969 38.351562 16.65625 C 38.558594 16.875 38.558594 16.902344 38.339844 17.070312 C 38.015625 17.300781 38.171875 17.625 38.648438 17.730469 L 39.046875 17.820312 L 38.777344 18.039062 C 38.621094 18.171875 38.53125 18.324219 38.570312 18.402344 C 38.714844 18.636719 39.175781 18.6875 39.359375 18.496094 C 40.195312 17.664062 40.867188 24.195312 40.195312 26.523438 C 39.847656 27.769531 39.433594 28.804688 39.292969 28.804688 C 39.230469 28.804688 39.175781 28.273438 39.175781 27.640625 Z M 38.726562 23.105469 C 39.0625 22.445312 38.917969 22.054688 38.417969 22.316406 C 38.09375 22.496094 38.003906 22.78125 38.144531 23.171875 C 38.3125 23.597656 38.480469 23.585938 38.726562 23.105469 Z M 39.628906 22.070312 C 39.886719 21.5625 39.875 21.292969 39.589844 21.292969 C 39.253906 21.292969 39.046875 21.550781 39.046875 21.941406 C 39.046875 22.574219 39.332031 22.640625 39.628906 22.070312 Z M 31.324219 21.550781 C 31.636719 21.382812 31.648438 20.800781 31.351562 20.683594 C 31.121094 20.59375 30.539062 21.175781 30.539062 21.5 C 30.539062 21.707031 30.964844 21.746094 31.324219 21.550781 Z M 37.230469 21.433594 C 37.476562 21.277344 37.320312 20.761719 36.984375 20.539062 C 36.636719 20.332031 36.46875 20.4375 36.46875 20.890625 C 36.46875 21.433594 36.816406 21.695312 37.230469 21.433594 Z M 35.503906 21.277344 C 35.554688 21.214844 35.554688 21.007812 35.515625 20.824219 C 35.414062 20.4375 34.972656 20.410156 34.859375 20.773438 C 34.714844 21.226562 35.285156 21.65625 35.503906 21.277344 Z M 38.378906 20.617188 C 38.402344 20.464844 38.3125 20.371094 38.09375 20.308594 C 37.644531 20.203125 37.460938 20.332031 37.644531 20.65625 C 37.8125 20.96875 38.3125 20.941406 38.378906 20.617188 Z M 34.253906 20.449219 C 34.574219 19.738281 34.328125 19.296875 33.773438 19.59375 C 33.324219 19.839844 33.195312 20.242188 33.453125 20.527344 C 33.761719 20.863281 34.085938 20.839844 34.253906 20.449219 Z M 30.847656 20.179688 C 31.121094 20.074219 31.121094 19.53125 30.847656 19.425781 C 30.460938 19.285156 29.894531 19.816406 30.101562 20.140625 C 30.179688 20.269531 30.550781 20.292969 30.847656 20.179688 Z M 39.601562 19.453125 C 39.808594 19.128906 39.488281 18.804688 38.996094 18.855469 C 38.492188 18.910156 38.378906 19.335938 38.816406 19.554688 C 39.203125 19.75 39.433594 19.726562 39.601562 19.453125 Z M 33.296875 19.0625 C 33.480469 18.804688 33.480469 18.753906 33.3125 18.585938 C 33.066406 18.339844 32.472656 18.585938 32.472656 18.933594 C 32.472656 19.425781 32.988281 19.519531 33.296875 19.0625 Z M 33.039062 17.808594 C 33.078125 17.742188 33.027344 17.625 32.9375 17.546875 C 32.730469 17.378906 32.523438 17.574219 32.667969 17.792969 C 32.769531 17.949219 32.949219 17.964844 33.039062 17.808594 Z M 89.71875 28.414062 C 89.332031 28.351562 88.078125 28.3125 86.933594 28.300781 C 85.796875 28.285156 84.132812 28.246094 83.257812 28.195312 L 81.660156 28.09375 L 83.914062 28.015625 C 85.152344 27.960938 86.660156 27.859375 87.265625 27.78125 C 88.132812 27.664062 88.554688 27.664062 89.265625 27.792969 C 89.792969 27.898438 91.160156 27.960938 92.515625 27.960938 C 94.035156 27.960938 94.914062 28.015625 95.003906 28.105469 C 95.105469 28.207031 94.566406 28.273438 93.042969 28.324219 C 91.882812 28.378906 90.824219 28.429688 90.683594 28.46875 C 90.542969 28.492188 90.105469 28.46875 89.71875 28.414062 Z M 51.167969 27.886719 C 49.480469 27.613281 48.859375 27.46875 48.925781 27.367188 C 48.960938 27.300781 49.257812 27.277344 49.59375 27.300781 C 49.929688 27.328125 50.703125 27.367188 51.335938 27.367188 C 52.445312 27.378906 52.457031 27.378906 52.457031 27.703125 C 52.457031 28.066406 52.378906 28.078125 51.167969 27.886719 Z M 91.070312 27.082031 L 89.136719 26.691406 L 80.445312 26.65625 C 75.675781 26.628906 71.730469 26.578125 71.691406 26.539062 C 71.640625 26.5 71.601562 25.695312 71.601562 24.75 L 71.589844 23.039062 L 72.722656 21.914062 C 73.34375 21.277344 73.859375 20.722656 73.859375 20.671875 C 73.859375 20.617188 74.050781 20.488281 74.296875 20.410156 C 74.695312 20.257812 74.824219 20.28125 75.5625 20.59375 C 76.011719 20.773438 76.953125 21.332031 77.648438 21.824219 C 78.359375 22.316406 79.027344 22.71875 79.144531 22.71875 C 79.261719 22.71875 79.777344 22.457031 80.292969 22.132812 C 80.808594 21.808594 81.257812 21.550781 81.296875 21.550781 C 81.335938 21.550781 81.789062 21.292969 82.289062 20.96875 L 83.21875 20.386719 L 85.0625 20.527344 C 86.09375 20.605469 86.957031 20.617188 87.023438 20.554688 C 87.085938 20.488281 87.214844 20.21875 87.304688 19.933594 C 87.488281 19.425781 87.5 19.414062 88.660156 19.078125 C 89.742188 18.765625 89.910156 18.675781 90.566406 18.015625 C 90.980469 17.601562 91.367188 17.277344 91.457031 17.277344 C 91.546875 17.277344 91.832031 17.457031 92.101562 17.664062 C 92.722656 18.15625 92.953125 18.15625 93.648438 17.652344 L 94.203125 17.25 L 95.234375 17.457031 C 95.789062 17.574219 96.34375 17.664062 96.460938 17.664062 C 96.574219 17.664062 96.820312 17.730469 97.027344 17.820312 C 97.21875 17.898438 97.734375 18.09375 98.160156 18.234375 L 98.933594 18.507812 L 98.972656 22.925781 L 99 27.339844 L 98.40625 27.429688 C 98.070312 27.46875 96.71875 27.507812 95.402344 27.496094 C 93.261719 27.484375 92.796875 27.445312 91.070312 27.082031 Z M 16.421875 26.578125 C 16.707031 26.523438 18.046875 26.460938 19.386719 26.421875 C 21 26.371094 21.617188 26.394531 21.191406 26.460938 C 20.84375 26.523438 19.503906 26.601562 18.226562 26.628906 C 16.949219 26.65625 16.136719 26.628906 16.421875 26.578125 Z M 24.363281 26.304688 C 24.207031 26.109375 24.300781 25.953125 24.570312 25.953125 C 24.660156 25.953125 24.738281 26.070312 24.738281 26.214844 C 24.738281 26.511719 24.570312 26.550781 24.363281 26.304688 Z M 46.230469 25.953125 C 44.824219 25.902344 43.625 25.8125 43.5625 25.746094 C 43.304688 25.488281 43.585938 25.0625 44.152344 24.839844 C 44.628906 24.660156 44.863281 24.648438 45.714844 24.777344 C 48.175781 25.125 48.589844 25.179688 48.796875 25.179688 C 48.925781 25.179688 49.363281 24.816406 49.773438 24.375 C 50.472656 23.625 50.535156 23.585938 50.84375 23.726562 C 51.464844 24.011719 51.863281 23.921875 52.445312 23.351562 C 53.035156 22.792969 53.164062 22.769531 53 23.234375 C 52.933594 23.402344 52.933594 23.804688 53 24.128906 C 53.089844 24.660156 53.0625 25.242188 52.882812 25.863281 C 52.832031 26.058594 52.636719 26.085938 50.804688 26.058594 C 49.699219 26.046875 47.636719 26.007812 46.230469 25.953125 Z M 46.230469 25.953125 "
    />
    <path
      d="M 30.125 25.59375 C 28.8125 25.566406 28.335938 25.515625 28.21875 25.371094 C 28.101562 25.230469 28.179688 25.140625 28.65625 24.933594 C 28.980469 24.777344 29.289062 24.660156 29.367188 24.660156 C 29.429688 24.660156 29.792969 24.503906 30.164062 24.308594 C 30.925781 23.910156 32.410156 23.753906 33.234375 23.984375 C 33.492188 24.050781 33.980469 24.179688 34.34375 24.269531 C 34.691406 24.347656 35.128906 24.503906 35.308594 24.59375 C 35.488281 24.699219 35.929688 24.933594 36.300781 25.101562 C 36.664062 25.28125 37 25.488281 37.050781 25.566406 C 37.140625 25.707031 35.761719 25.707031 30.125 25.59375 Z M 66.457031 18.804688 C 66.511719 18.714844 66.742188 18.378906 66.949219 18.054688 C 67.167969 17.730469 67.578125 16.964844 67.863281 16.34375 C 68.148438 15.710938 68.445312 15.203125 68.507812 15.203125 C 68.585938 15.203125 68.804688 15.410156 69 15.65625 C 69.269531 15.996094 69.347656 16.226562 69.320312 16.539062 C 69.28125 16.886719 69.164062 17.019531 68.417969 17.472656 C 67.941406 17.757812 67.320312 18.210938 67.050781 18.480469 C 66.574219 18.960938 66.277344 19.117188 66.457031 18.804688 Z M 71.460938 14.671875 C 71.359375 14.492188 71.730469 14.117188 71.910156 14.21875 C 72.15625 14.375 72.078125 14.816406 71.808594 14.816406 C 71.667969 14.816406 71.511719 14.75 71.460938 14.671875 Z M 71.460938 14.671875 "
    />
  </g>
</svg>
