<svg id="root" xmlns="http://www.w3.org/2000/svg" width="768" height="441" viewBox="0 0 7680 4410">
  <g>
    <path
      d="M2662 4173c-31-6-45-33-72-137-21-78-22-95-12-145 7-31 15-85 18-121s20-105 36-154c20-59 26-92 20-98-15-15-30-2-57 52-39 78-62 158-76 269-14 113-16 100 46 261 7 19 10 39 6 43-12 12-111-23-111-39 0-7-13-43-30-79-34-75-37-121-14-210 22-86 27-121 20-151-13-48-37-24-66 66-22 69-26 102-25 175 2 80 5 96 29 134 15 23 26 47 24 52s-23-2-48-16c-73-39-82-43-141-59-52-15-57-19-72-58-39-111-42-195-11-341 20-92 97-252 132-274 15-9 50-31 77-49 107-68 145-85 183-82l37 3-30 18c-16 11-46 39-65 64-19 24-48 59-63 76-15 18-44 64-64 102-36 70-36 70-37 207-1 75 3 140 7 144 16 16 27-22 27-91 0-109 58-280 124-365 51-64 84-99 98-100 4 0 26-13 50-29 41-28 50-30 173-34 110-3 147-9 240-37 77-23 138-34 203-37 50-3 92-3 92 0 0 2-11 30-25 61-43 97-58 217-53 421 5 159 8 185 26 220 43 81 75 101 53 33-21-65-30-135-32-273-2-125 1-150 24-235 33-118 79-231 98-241 53-29 146-69 160-69 9 0 19 10 23 23 10 36 7 142-6 216-14 85 0 224 27 250 15 15 16 12 14-44-1-33 4-118 11-190 6-71 9-160 6-197-8-76-4-80 71-92 23-3 48-9 56-12 22-8 33 19 51 120 19 107 77 236 137 301 23 25 45 45 50 45 17 0 9-26-20-60-64-78-89-139-101-245-6-62-18-111-29-131-10-17-22-49-25-71-7-37-5-41 43-86 28-26 55-47 61-47s23 21 38 46c126 214 158 264 195 298 23 21 74 69 112 106 143 136 277 198 149 69-48-49-56-61-44-69 29-18 61-5 185 75 65 43 126 68 137 57 14-14-111-109-225-171-46-25-69-31-119-31s-70-6-116-31c-46-27-64-47-117-128-34-53-81-131-104-174l-43-77 21-45c12-25 21-53 21-64 0-10 17-43 37-72s40-73 44-97c5-23 22-62 39-87 23-34 30-55 30-92 0-26 7-70 16-98 10-31 17-95 19-165 1-67 8-127 15-142l13-28h428l112-46c62-25 134-60 161-77s64-32 82-33c44-4 95-31 238-125 65-44 125-79 132-79s15 12 18 27c10 45 25 187 20 194-2 4-16 10-31 14-16 3-52 25-82 47-30 23-74 47-98 54-54 16-101 43-108 62-5 13 9 14 89 9 104-6 129-16 186-78 19-20 45-40 58-44 35-10 31 39-5 62-16 9-69 47-119 85-89 66-92 68-175 77-147 17-339 74-339 100 0 16 23 17 89 4 36-7 136-22 221-34 133-17 161-24 194-47 144-100 156-103 157-39 4 174 1 325-5 335-4 7-43 30-87 52-67 34-88 40-142 40-47 0-90 9-168 36-57 20-124 37-149 37-41 1-178-13-289-29-100-15 1 41 140 77 111 29 246 22 317-15 70-36 102-44 158-39 43 5 60 0 122-31 39-20 73-32 74-28 13 27-2 166-25 237-14 44-33 115-43 158-15 72-18 78-38 74-100-24-234-47-269-46-54 1-129 21-134 35s99 34 171 34c48 0 145 20 199 42 25 10 28 15 23 41-3 16-6 36-6 43 0 11-20 14-88 14-128 0-437-73-559-133-112-54-243-86-243-58 0 9 99 51 118 51 5 0 46 24 93 54 97 61 197 100 313 122 45 8 104 19 131 24 28 5 89 12 138 16 53 4 87 11 87 18 0 6-12 34-26 62l-26 51-75 6c-48 4-99 0-141-9-37-7-92-14-122-14-33 0-71-8-95-20-84-41-108-16-33 33 62 41 143 66 248 77 90 9 160 27 160 41 0 5-24 58-54 117-30 60-58 125-61 145-13 66-22 71-96 54-35-9-93-21-129-27-83-15-238-86-348-161-47-33-89-59-94-59-4 0-8 8-8 17 0 32 87 99 180 138 50 21 125 60 167 86 48 31 96 52 132 59 70 14 131 32 131 38 0 2-31 38-70 79-38 41-70 80-70 85 0 15-136 3-264-23-56-11-139-24-185-28l-85-9-117-123c-65-68-132-148-149-176-33-58-50-67-50-28 0 37 53 124 107 176 27 26 57 68 69 96l21 50-111 6-111 6-28-32c-29-33-69-86-110-147-13-19-38-79-55-132-28-85-32-112-32-202 0-61-4-107-10-111-14-8-40 56-47 114-7 61 45 246 88 315 89 142 118 197 106 201-6 2-25 6-42 8-31 5-206 40-285 56-55 12-59 8-93-84-63-174-79-313-44-408 21-58 24-211 5-205-16 6-38 68-73 207l-28 111 17 97c15 84 56 231 80 285 9 19-5 23-139 38-49 6-108 17-130 25-36 13-75 19-75 12 0-1-8-26-19-54-11-30-22-95-26-155-5-72-13-115-27-143-15-30-20-60-21-130-1-82 3-98 36-179 20-50 35-91 33-93-2-3-18 11-35 29-21 23-42 67-67 142-41 123-41 152 1 241 15 30 25 71 25 96 1 24 12 93 25 154 16 71 21 113 14 121-27 32-285 65-377 47zm2123-1723c-3-5-38-19-78-31-40-11-98-29-129-40-37-12-85-19-137-19-139 0-107 34 46 50 46 5 88 12 94 16 42 25 218 47 204 24zm-41-259c9-7 14-17 11-21-7-12-147-20-187-11-42 10-132-4-162-25-26-18-86-19-86-1 0 21 92 59 162 68 94 11 243 6 262-10z" />
    <path
      d="M2055 3942c-84-104-128-196-145-299-12-72-12-72 22-140 65-129 100-167 209-228 54-31 112-61 129-67 36-12 35-32-2-36-42-5-218 76-255 117-18 20-33 30-33 23 0-31 121-176 182-218 36-25 46-28 121-25 116 3 286 49 271 73-3 5-33 7-67 6-56-3-62-1-65 18-2 12-17 28-39 38-43 21-136 92-180 138-42 44-109 182-130 266-23 94-23 253 0 316 10 27 16 50 14 52-1 2-16-14-32-34zm750-824c-21-18-55-50-76-71-39-38-102-67-145-67-39 0-27 25 24 49 57 27 125 104 96 110-10 2-59-18-109-43-66-34-110-49-165-57-41-6-83-16-93-21-18-9-18-10 1-24 31-21 221-71 303-79l74-7 65 44c44 30 67 52 73 73 5 17 23 45 41 63 26 27 28 34 16 42-8 5-20 10-27 10-6 0-18 3-26 6-9 3-31-9-52-28zm143-45c-14-16-33-44-41-63s-27-47-41-62c-25-26-25-28-7-28 37 0 183 39 324 87l142 48-95 8c-52 4-123 15-157 23-85 19-95 18-125-13zm172-686c0-28 6-50 19-63 10-11 31-57 46-103 28-84 28-84 22-295-5-232-10-256-75-386-27-55-52-87-94-123-56-49-57-49-180-68-127-19-225-16-378 13-30 5-79 14-109 19-30 6-83 19-119 31-54 17-72 19-115 10-50-9-149-3-192 13-11 5-33 20-50 35-28 26-85 46-85 31 0-8 41-113 59-151 21-43 71-70 132-70 65 0 140-32 208-89 25-21 75-54 111-75 36-20 96-59 133-85 59-42 79-50 143-60 137-20 202-12 427 54 108 31 224 152 259 270 20 69 48 234 48 287 0 103 44 86 55-21 5-52 2-94-15-175-24-120-39-162-80-221-33-47-151-165-183-182-28-14-121-40-217-60-73-15-213-13-312 3-34 6-38 4-38-14 0-13 28-43 81-87 44-37 85-77 91-89 15-34 164-56 303-46 110 7 142 20 274 105 69 45 107 53 95 21-3-8-59-51-125-94l-119-80-106-7c-103-7-203-3-253 11-21 6-23 4-16-17 3-13 22-37 41-54 19-16 58-53 87-81 36-35 69-56 105-68 40-14 67-33 112-79l60-62 72 1c67 0 86 6 243 72 151 64 175 78 216 121 47 52 139 218 139 255 1 32 33 91 50 91 11 0 15-11 14-40-2-50-24-115-77-229-55-115-119-174-220-201-38-10-81-27-95-40-35-28-74-42-137-50-28-4-57-10-64-14-22-14 68-42 184-58 213-28 249-31 269-23 79 30 316 153 335 174 36 38 55 34 48-9-8-49-43-88-102-114l-50-22 50 6c96 12 181 33 256 65 73 30 77 33 97 83 11 29 25 75 31 104 6 28 24 80 40 116 17 36 29 73 29 84-2 30 12 93 21 93 19 0 29-29 34-101 6-73 5-80-33-165-29-65-36-92-28-101 6-7 14-13 18-13 12 0 104 63 151 104 26 23 57 48 70 57 22 16 24 22 22 100-1 46 2 102 8 124 8 31 7 58-5 115-21 99-21 170-1 170 8 0 15-1 15-2 0-2 12-34 26-73 20-58 26-94 30-205 3-74 8-141 10-149 3-11 14-5 37 20 65 68 125 145 145 185 12 23 37 54 57 70l37 29-25 100c-14 55-28 118-32 140-3 22-25 81-47 130-70 155-213 281-366 324-78 21-92 28-92 41 0 33 120 14 221-36 50-25 81-50 130-106 35-40 79-89 97-108 43-45 85-135 112-235 37-144 41-155 49-155 4 0 13 10 19 22 6 13 25 46 42 73 84 137 83 151-32 357-75 136-119 175-344 310-115 69-187 88-336 88-122 0-244 14-263 30s-33-10-33-61c0-67-20-125-66-196-23-34-51-79-64-100s-46-55-73-76l-49-39 52-35c29-20 62-44 73-53 11-10 34-25 51-33 37-19 68-63 59-84-5-14-11-11-38 14-31 30-144 90-152 81-2-2 16-26 41-53 57-63 112-153 130-212 8-28 14-92 14-161 0-100-3-122-24-171-14-31-35-94-47-141-22-87-41-122-58-105-12 13 30 219 54 264 29 58 22 212-17 334-22 69-38 104-56 117-14 11-28 20-32 20-12 0-3-94 13-131 8-19 17-57 21-84 4-28 12-71 18-96 13-52 5-99-17-99-8 0-17 12-20 28-3 15-14 58-25 96-10 38-16 74-13 82 3 7-5 40-16 74-12 33-21 72-21 86s-13 43-29 63-38 55-50 77c-12 24-32 45-44 48-26 7-97 8-97 1 0-2 9-27 20-55 31-79 28-226-6-327-27-78-44-107-103-173-17-19-31-38-31-41 0-7-112-99-167-137-42-29-217-82-234-71-23 14 6 32 106 69 160 59 296 192 354 345 25 67 31 97 33 182 3 110-10 151-30 94-6-17-16-36-22-43-5-7-29-42-53-78-40-61-46-66-107-87-127-42-152-17-42 42 54 30 74 47 104 94 48 75 57 98 64 180l7 68-37 28c-20 15-38 26-40 24-1-2-7-45-13-95-14-125-49-198-140-289-95-96-145-134-221-172-71-36-112-42-112-18 0 9 33 30 83 53 80 38 101 56 207 178 74 85 94 126 125 264 10 41 21 82 25 90 10 18-16 86-46 123-13 15-30 50-38 76-8 27-30 70-50 95-20 27-36 59-36 74s-11 86-25 157c-14 72-32 173-41 225-16 94-17 95-72 153-31 31-60 57-64 57s-8-19-8-43zm1448-632c92-13 132-29 113-48-12-12-266 11-308 29-34 13-42 29-20 37 15 6 95-1 215-18zm-394-291c66-17 102-37 213-122 71-54 103-99 128-182 4-14 20-41 35-60s32-45 39-57c21-41 42-157 51-277 6-100 5-126-9-166-18-50-40-84-49-75-3 2-7 80-9 172-2 93-8 193-13 223-16 86-117 293-170 349-72 75-134 119-212 151-40 17-74 30-75 30-2 0-3 7-3 15 0 18-1 18 74-1zm654-96c82-85 133-165 147-225 5-24 3-33-6-33-16 0-49 30-49 44 0 6-13 26-29 45s-35 46-43 60c-7 14-33 52-57 83-38 50-46 78-21 78 4 0 31-24 58-52zm-828-988c0-6-21-33-46-60-47-51-106-79-139-66-25 9-8 26 51 52 29 13 66 37 80 54 27 30 54 40 54 20z" />
    <path
      d="M3040 2300c0-85-10-124-40-150-3-3-17-21-30-40-28-40-42-52-90-77-19-10-44-25-55-34-20-17-121-52-185-64-19-4-83-9-141-12-102-4-110-3-174 26-37 17-77 31-89 31-11 0-43 13-71 28-53 29-74 60-97 144-7 26-15 44-19 40s-19-42-33-84c-27-81-33-157-16-219 18-66 130-166 272-246 79-44 101-79 96-151-3-52 0-54 111-67 56-6 61-5 61 12 0 25 19 43 45 43 31 0 37-10 20-36-8-13-11-25-7-28 4-2 39-7 78-11 92-9 276 19 300 47 16 17 16 19-1 32-25 18-13 43 24 51l31 7-21 17c-12 10-19 22-16 28 11 18 47 22 61 7 65-64 117 440 65 620-27 96-59 176-70 176-5 0-9-41-9-90zm-35-350c26-51 15-81-24-61-25 14-32 36-21 66 13 33 26 32 45-5zm70-80c20-39 19-60-3-60-26 0-42 20-42 50 0 49 22 54 45 10zm-644-40c24-13 25-58 2-67-18-7-63 38-63 63 0 16 33 19 61 4zm458-9c19-12 7-52-19-69-27-16-40-8-40 27 0 42 27 62 59 42zm-134-12c4-5 4-21 1-35-8-30-42-32-51-4-11 35 33 68 50 39zm223-51c2-12-5-19-22-24-35-8-49 2-35 27 13 24 52 22 57-3zm-320-13c25-55 6-89-37-66-35 19-45 50-25 72 24 26 49 24 62-6zm-264-21c21-8 21-50 0-58-30-11-74 30-58 55 6 10 35 12 58 3zm679-56c16-25-9-50-47-46-39 4-48 37-14 54 30 15 48 13 61-8zm-489-30c14-20 14-24 1-37-19-19-65 0-65 27 0 38 40 45 64 10zm-20-97c3-5-1-14-8-20-16-13-32 2-21 19 8 12 22 13 29 1zm2592 77c4-7 22-33 38-58 17-25 49-84 71-132 22-49 45-88 50-88 6 0 23 16 38 35 21 26 27 44 25 68-3 27-12 37-70 72-37 22-85 57-106 78-37 37-60 49-46 25z" />
  </g>
</svg>