<svg xmlns="http://www.w3.org/2000/svg" id="root" viewBox="0 0 99 53">
  <g>
    <path
      d="M 91.035156 52.683594 C 90.875 52.480469 90.570312 51.929688 90.386719 51.441406 C 89.335938 48.792969 91.601562 42.089844 94.457031 39.441406 C 95.734375 38.261719 97.210938 37.546875 97.757812 37.871094 C 98.46875 38.320312 98.996094 39.789062 98.996094 41.355469 L 98.996094 42.84375 L 98.183594 42.722656 C 97.109375 42.539062 96.503906 42.722656 95.652344 43.476562 C 94.253906 44.71875 93.40625 47.46875 93.933594 49.078125 C 94.074219 49.507812 94.457031 50.097656 94.78125 50.382812 L 95.371094 50.933594 L 94.417969 51.769531 C 93.082031 52.949219 91.644531 53.335938 91.035156 52.683594 Z M 91.035156 52.683594 "
    />
    <path
      d="M 87.492188 49.546875 C 85.75 47.632812 83.949219 46.328125 81.011719 44.839844 C 78.804688 43.71875 78.378906 43.578125 77.265625 43.558594 C 75.804688 43.535156 75.21875 43.273438 74.691406 42.375 C 73.902344 41.09375 74.265625 39.035156 75.828125 35.773438 C 77.445312 32.433594 78.84375 31.351562 80.871094 31.863281 C 81.617188 32.046875 81.882812 32.230469 82.125 32.757812 C 82.449219 33.453125 82.550781 33.492188 86.035156 34.695312 C 88.644531 35.570312 91.015625 36.203125 93.40625 36.628906 C 94.296875 36.792969 95.085938 36.996094 95.1875 37.097656 C 95.269531 37.179688 94.882812 37.609375 94.335938 38.015625 C 92.574219 39.339844 90.652344 42.417969 89.699219 45.453125 C 89.234375 46.878906 88.808594 49.953125 88.992188 50.445312 C 89.273438 51.199219 88.667969 50.832031 87.492188 49.546875 Z M 95.390625 49.304688 C 94.113281 47.9375 95.753906 43.800781 97.558594 43.800781 C 98.550781 43.800781 98.792969 44.167969 98.792969 45.636719 C 98.792969 47.144531 98.40625 48.183594 97.535156 49.121094 C 96.765625 49.894531 96.019531 49.976562 95.390625 49.304688 Z M 72.324219 40.644531 C 71.230469 39.949219 71.917969 36.488281 73.800781 33.269531 C 74.792969 31.554688 75.625 30.824219 76.535156 30.824219 C 77.285156 30.824219 77.75 31.148438 77.40625 31.414062 C 76.03125 32.414062 73.457031 37.648438 73.03125 40.277344 C 72.972656 40.726562 72.6875 40.867188 72.324219 40.644531 Z M 64.628906 38.832031 C 64.140625 38.078125 64.203125 36.179688 64.789062 34.46875 C 65.578125 32.105469 67.160156 29.070312 68.171875 27.992188 C 69.0625 27.035156 69.226562 26.953125 70.054688 26.953125 C 71.007812 26.953125 71.511719 27.296875 72.039062 28.316406 C 72.242188 28.703125 72.203125 28.828125 71.734375 29.113281 C 70.136719 30.191406 67.808594 35.449219 67.808594 38.035156 C 67.808594 38.871094 67.746094 39.011719 67.28125 39.175781 C 66.996094 39.300781 66.371094 39.378906 65.882812 39.378906 C 65.132812 39.378906 64.929688 39.300781 64.628906 38.832031 Z M 64.628906 38.832031 "
    />
    <path
      d="M 69.324219 38.992188 C 69.023438 38.648438 68.980469 38.363281 69.082031 37.28125 C 69.144531 36.570312 69.347656 35.550781 69.550781 35 C 69.953125 33.777344 71.695312 30.621094 72.222656 30.152344 C 72.75 29.660156 73.882812 29.5 74.328125 29.84375 C 74.652344 30.089844 74.632812 30.191406 73.863281 31.128906 C 72.628906 32.636719 71.066406 36.019531 70.785156 37.792969 C 70.5625 39.035156 70.460938 39.277344 70.117188 39.339844 C 69.894531 39.378906 69.550781 39.21875 69.324219 38.992188 Z M 61.183594 37.242188 C 59.910156 36.648438 59.808594 36.507812 60.292969 35.894531 C 61.265625 34.59375 61.40625 32.492188 60.597656 30.863281 C 59.464844 28.5625 56.265625 27.503906 53.832031 28.601562 C 52.578125 29.171875 51.871094 29.90625 51.503906 31.046875 C 51.324219 31.597656 51.101562 32.085938 51.019531 32.128906 C 50.9375 32.1875 50.1875 31.902344 49.359375 31.496094 C 48.527344 31.109375 44.902344 29.355469 41.277344 27.625 C 37.652344 25.890625 34.128906 24.203125 33.441406 23.875 C 32.730469 23.527344 32.082031 23.324219 31.960938 23.386719 C 31.839844 23.449219 31.617188 23.773438 31.457031 24.121094 C 31.152344 24.671875 31.171875 24.75 31.679688 25.527344 C 32.75 27.15625 32.46875 28.804688 30.867188 30.109375 C 30.21875 30.621094 29.9375 30.722656 28.964844 30.722656 C 27 30.722656 25.765625 29.640625 25.5625 27.808594 C 25.402344 26.421875 26.089844 25.160156 27.304688 24.566406 C 27.808594 24.324219 28.457031 24.121094 28.742188 24.097656 C 29.371094 24.097656 29.632812 23.8125 29.816406 22.9375 C 29.996094 22.144531 29.550781 21.835938 27.851562 21.632812 C 26.007812 21.410156 25.277344 20.453125 25.277344 18.273438 C 25.277344 15.765625 27.566406 10.957031 29.429688 9.511719 C 30.484375 8.714844 32.40625 8.554688 33.238281 9.226562 C 33.542969 9.46875 33.785156 9.777344 33.785156 9.898438 C 33.785156 10.347656 34.089844 10.632812 34.859375 10.957031 C 35.566406 11.242188 35.605469 11.242188 35.832031 10.835938 C 36.011719 10.46875 35.953125 10.222656 35.507812 9.390625 C 35.0625 8.59375 34.980469 8.1875 35.0625 7.515625 C 35.222656 6.191406 35.527344 5.621094 36.4375 5.007812 C 38.097656 3.910156 40.40625 4.375 41.339844 6.007812 C 41.5625 6.394531 41.683594 7.066406 41.683594 7.800781 C 41.683594 8.878906 41.601562 9.105469 41.035156 9.753906 C 40.285156 10.613281 39.375 11.058594 38.363281 11.058594 C 37.714844 11.058594 37.226562 11.445312 37.226562 11.976562 C 37.226562 12.097656 37.652344 12.300781 42.898438 14.726562 C 45.105469 15.746094 47.796875 17.03125 54.035156 19.964844 C 54.867188 20.371094 56.042969 20.902344 56.628906 21.164062 L 57.703125 21.65625 L 58.492188 21.246094 C 59.445312 20.757812 60.820312 20.71875 61.894531 21.144531 C 62.664062 21.449219 62.664062 21.449219 65.175781 20.269531 C 74.449219 15.910156 75.582031 15.316406 75.664062 14.828125 C 75.785156 14.15625 76.332031 13.707031 77.023438 13.707031 C 77.832031 13.707031 78.339844 14.238281 78.339844 15.09375 C 78.339844 15.992188 77.628906 16.4375 76.535156 16.253906 C 75.785156 16.132812 75.441406 16.253906 72.425781 17.863281 C 70.601562 18.800781 68.433594 19.964844 67.605469 20.433594 C 66.773438 20.878906 65.601562 21.492188 65.011719 21.796875 C 64.242188 22.183594 63.960938 22.429688 64.019531 22.652344 C 64.082031 22.835938 64.242188 23.304688 64.382812 23.691406 C 64.507812 24.078125 64.648438 24.507812 64.6875 24.648438 C 64.730469 24.792969 65.378906 25.21875 66.167969 25.605469 C 67.644531 26.359375 67.949219 26.625 67.605469 26.851562 C 67.097656 27.15625 65.761719 29.253906 64.929688 31.027344 C 63.980469 33.023438 63.230469 35.40625 63.089844 36.832031 C 62.988281 37.851562 62.644531 37.914062 61.183594 37.242188 Z M 50.027344 29.457031 C 50.230469 29.273438 50.390625 28.847656 50.390625 28.480469 C 50.390625 27.074219 48.121094 25.972656 47.171875 26.929688 C 46.542969 27.5625 46.625 28.296875 47.433594 29.113281 C 47.980469 29.660156 48.285156 29.804688 48.890625 29.804688 C 49.316406 29.804688 49.824219 29.660156 50.027344 29.457031 Z M 44.71875 26.953125 C 45.753906 25.914062 44.699219 24.097656 43.082031 24.097656 C 40.425781 24.097656 41.277344 27.195312 43.972656 27.339844 C 44.152344 27.359375 44.496094 27.175781 44.71875 26.953125 Z M 39.253906 24.507812 C 39.777344 24.222656 39.921875 23.386719 39.554688 22.671875 C 38.808594 21.226562 36.476562 21.003906 36.132812 22.367188 C 35.789062 23.773438 37.894531 25.242188 39.253906 24.507812 Z M 39.253906 24.507812 "
    />
    <path
      d="M 55.148438 35.835938 C 53.386719 35.285156 52.417969 34.0625 52.417969 32.414062 C 52.417969 30.621094 53.773438 29.398438 55.796875 29.355469 C 57.378906 29.335938 58.574219 29.84375 59.320312 30.882812 C 60.4375 32.433594 59.988281 35.101562 58.492188 35.855469 C 57.84375 36.179688 56.203125 36.160156 55.148438 35.835938 Z M 23.050781 19.679688 C 22.769531 19.515625 22.140625 18.71875 21.632812 17.945312 C 20.660156 16.417969 18.191406 13.75 16.875 12.769531 C 16.429688 12.445312 16.023438 12.140625 15.964844 12.078125 C 15.640625 11.753906 13.1875 10.144531 12.09375 9.550781 C 11 8.960938 10.777344 8.738281 10.617188 8.144531 C 10.253906 6.699219 11.367188 4.539062 12.5 4.539062 C 12.703125 4.539062 14.304688 4.90625 16.085938 5.335938 C 20.785156 6.496094 24.386719 6.84375 27.507812 6.394531 C 28.722656 6.210938 29.734375 6.414062 30.242188 6.902344 C 30.644531 7.3125 30.625 7.574219 30.199219 7.738281 C 27.464844 8.738281 24.410156 13.953125 24.085938 18.171875 C 24.023438 19.128906 23.882812 19.921875 23.761719 19.941406 C 23.660156 19.984375 23.335938 19.863281 23.050781 19.679688 Z M 6.445312 6.71875 C 4.441406 5.722656 4.320312 5.621094 4.257812 4.988281 C 4.15625 3.988281 4.785156 2.542969 5.453125 2.175781 C 5.980469 1.910156 6.121094 1.933594 7.597656 2.582031 C 8.46875 2.972656 9.421875 3.359375 9.726562 3.417969 C 10.636719 3.644531 10.757812 3.96875 10.191406 4.742188 C 9.910156 5.128906 9.585938 5.964844 9.441406 6.617188 C 9.28125 7.453125 9.097656 7.800781 8.875 7.800781 C 8.714844 7.800781 7.621094 7.3125 6.445312 6.71875 Z M 1.34375 4.5 C 0.371094 4.152344 0.167969 3.988281 0.0664062 3.5 C -0.199219 2.296875 0.429688 0.648438 1.34375 0.199219 C 1.949219 -0.125 2.3125 -0.0664062 2.902344 0.464844 C 3.125 0.667969 3.507812 0.894531 3.773438 0.972656 C 4.238281 1.117188 4.359375 1.464844 4.015625 1.808594 C 3.914062 1.910156 3.609375 2.644531 3.347656 3.417969 C 3.082031 4.195312 2.78125 4.84375 2.679688 4.867188 C 2.578125 4.886719 1.96875 4.722656 1.34375 4.5 Z M 1.34375 4.5 "
    />
  </g>
</svg>
