<svg xmlns="http://www.w3.org/2000/svg" id="root" viewBox="0 0 100 94">
  <g>
    <path
      d="M 6.984375 93.535156 C 4.25 93.050781 3.058594 92.535156 1.195312 91.078125 C 0.457031 90.464844 0.0078125 89.851562 0.0078125 89.398438 C 0.0078125 88.753906 1.839844 80.898438 6.597656 61.085938 C 7.402344 57.789062 8.785156 52.070312 9.683594 48.320312 C 13.125 33.773438 14.183594 29.765625 15.40625 26.019531 L 16.691406 22.140625 L 21.289062 21.945312 C 23.828125 21.847656 26.113281 21.6875 26.371094 21.621094 C 26.789062 21.527344 26.851562 22.042969 26.789062 25.210938 C 26.691406 29.898438 25.789062 33.289062 23.25 38.398438 L 21.417969 42.082031 L 21.996094 43.566406 C 23.378906 47.15625 23.636719 45.570312 17.882812 68.617188 C 11.582031 93.699219 11.707031 93.308594 10.9375 93.730469 C 10.230469 94.117188 10.164062 94.117188 6.984375 93.535156 Z M 89 93.828125 C 88.675781 93.761719 88.417969 93.566406 88.417969 93.472656 C 88.417969 93.34375 87.039062 87.878906 85.367188 81.285156 C 83.695312 74.726562 81.058594 64.316406 79.546875 58.242188 L 76.75 47.125 L 77.425781 44.957031 C 78.324219 42.144531 78.324219 41.46875 77.296875 39.949219 C 76.136719 38.234375 74.464844 34.519531 73.5 31.382812 C 72.792969 29.152344 72.664062 28.117188 72.664062 24.984375 L 72.664062 21.265625 L 73.566406 21.492188 C 74.046875 21.621094 76.460938 21.816406 78.902344 21.914062 L 83.371094 22.140625 L 84.914062 27.117188 C 86.84375 33.257812 90.089844 46.378906 97.9375 79.992188 C 98.578125 82.675781 99.285156 85.585938 99.542969 86.523438 C 99.800781 87.425781 99.992188 88.6875 99.992188 89.335938 C 99.992188 90.335938 99.800781 90.59375 98.738281 91.273438 C 96.941406 92.4375 95.429688 92.988281 92.761719 93.566406 C 90.316406 94.054688 89.964844 94.085938 89 93.828125 Z M 89 93.828125 "
    />
    <path
      d="M 23.15625 83.644531 C 23.15625 83.226562 23.316406 82.320312 23.476562 81.578125 C 24.632812 76.601562 25.46875 68.90625 25.628906 62.21875 C 25.824219 54.039062 25.46875 50.742188 23.765625 45.3125 L 22.738281 42.082031 L 23.378906 40.820312 C 25.46875 36.75 26.046875 35.421875 26.882812 32.902344 L 27.785156 30.058594 L 28.332031 30.964844 C 29.90625 33.453125 31.769531 41.242188 32.800781 49.613281 C 33.636719 56.433594 34.019531 63.023438 34.277344 74.757812 L 34.503906 84.355469 L 28.84375 84.355469 C 23.15625 84.355469 23.15625 84.355469 23.15625 83.644531 Z M 23.15625 83.644531 "
    />
    <path
      d="M 35.691406 81.125 C 35.691406 76.601562 35.113281 62.765625 34.730469 57.53125 C 33.730469 44.796875 31.964844 36.039062 29.261719 30.574219 C 28.007812 28.085938 27.976562 27.925781 27.976562 24.597656 L 27.976562 21.136719 L 29.679688 19.714844 C 30.582031 18.90625 31.898438 17.679688 32.574219 16.96875 C 33.796875 15.675781 36.015625 11.539062 36.015625 10.570312 C 36.015625 9.566406 36.722656 9.632812 38.457031 10.796875 C 41.320312 12.703125 43.085938 12.992188 50.933594 12.863281 C 58.328125 12.734375 59.066406 12.574219 61.992188 10.601562 C 63.34375 9.664062 63.984375 9.632812 63.984375 10.503906 C 63.984375 11.214844 65.527344 14.542969 66.492188 16 C 66.976562 16.675781 67.941406 17.777344 68.648438 18.421875 C 71.894531 21.332031 71.703125 20.910156 71.703125 24.628906 C 71.703125 27.472656 71.574219 28.25 70.867188 29.898438 C 70.414062 30.964844 69.675781 32.644531 69.289062 33.613281 C 67.714844 37.332031 66.105469 46.476562 65.269531 56.238281 C 64.949219 59.824219 64.339844 77.085938 64.308594 82.351562 L 64.308594 84.355469 L 35.691406 84.355469 Z M 35.691406 81.125 "
    />
    <path
      d="M 65.59375 82.191406 C 65.59375 80.964844 65.753906 75.921875 65.914062 70.945312 C 66.589844 51.972656 68.164062 40.046875 70.960938 32.871094 C 71.414062 31.675781 71.925781 30.800781 72.023438 30.929688 C 72.152344 31.058594 72.890625 32.804688 73.664062 34.746094 C 74.433594 36.714844 75.558594 39.074219 76.136719 40.011719 L 77.199219 41.726562 L 76.394531 44.699219 C 74.5 51.714844 74.015625 57.5625 74.5625 65.933594 C 74.851562 70.457031 76.234375 80.414062 77.007812 83.484375 L 77.230469 84.355469 L 65.59375 84.355469 Z M 17.6875 20.75 C 17.6875 20.621094 17.976562 19.941406 18.363281 19.230469 C 19.746094 16.582031 23.347656 13.511719 27.496094 11.410156 C 29.648438 10.308594 33.441406 9.050781 34.566406 9.050781 C 35.273438 9.050781 35.308594 9.113281 34.984375 10.277344 C 33.988281 14.027344 30.773438 18.261719 27.878906 19.683594 C 27.078125 20.070312 25.46875 20.554688 24.375 20.71875 C 21.902344 21.074219 17.6875 21.105469 17.6875 20.75 Z M 75.398438 20.683594 C 73.246094 20.363281 72.183594 19.910156 70.609375 18.648438 C 68.230469 16.773438 66.78125 14.578125 65.304688 10.699219 L 64.660156 8.953125 L 66.074219 9.148438 C 70.160156 9.726562 75.882812 12.636719 79.128906 15.835938 C 80.898438 17.582031 82.632812 20.070312 82.632812 20.847656 C 82.632812 21.074219 77.296875 20.976562 75.398438 20.683594 Z M 41.960938 11.34375 C 39.742188 10.796875 36.980469 8.757812 36.980469 7.691406 C 36.980469 7.109375 37.269531 5.785156 38.296875 1.84375 L 38.617188 0.613281 L 40.871094 1.808594 C 42.125 2.488281 43.890625 3.167969 44.792969 3.394531 L 46.464844 3.75 L 46.558594 7.691406 L 46.65625 11.636719 L 44.792969 11.601562 C 43.761719 11.570312 42.507812 11.472656 41.960938 11.34375 Z M 47.589844 7.757812 L 47.589844 3.847656 L 49.773438 3.941406 L 51.929688 4.039062 L 52.027344 7.855469 L 52.121094 11.636719 L 47.589844 11.636719 Z M 50.964844 9.859375 C 50.964844 9.050781 50.835938 8.855469 50.128906 8.792969 C 49.195312 8.695312 48.714844 9.371094 49.066406 10.40625 C 49.195312 10.859375 49.484375 10.988281 50.097656 10.925781 C 50.835938 10.859375 50.964844 10.664062 50.964844 9.859375 Z M 50.964844 5.65625 C 50.964844 4.785156 50.867188 4.6875 50 4.6875 C 49.324219 4.6875 49.003906 4.847656 48.9375 5.269531 C 48.746094 6.335938 49.132812 6.851562 50.0625 6.722656 C 50.835938 6.625 50.964844 6.464844 50.964844 5.65625 Z M 53.375 7.628906 L 53.375 3.554688 L 54.308594 3.554688 C 55.433594 3.554688 57.394531 2.875 59.839844 1.648438 L 61.703125 0.679688 L 62.347656 3.523438 C 63.277344 7.464844 63.246094 8.175781 62.023438 9.210938 C 60.160156 10.761719 58.519531 11.410156 55.882812 11.570312 L 53.375 11.730469 Z M 46.398438 2.585938 C 44.46875 2.230469 41.542969 1.164062 40.644531 0.484375 C 40.097656 0.0664062 40.742188 0.03125 46.335938 0 C 49.808594 0 54.179688 0.0976562 56.109375 0.226562 C 59.164062 0.386719 59.515625 0.484375 58.96875 0.871094 C 57.007812 2.328125 50.128906 3.265625 46.398438 2.585938 Z M 46.398438 2.585938 "
    />
  </g>
</svg>
