<svg id="root" xmlns="http://www.w3.org/2000/svg" width="768" height="441" viewBox="0 0 7680 4410">
  <g fill="#010101">
    <path
      d="M2477 3944c-85-15-122-31-180-76-23-19-37-38-37-52 0-20 57-263 205-876 25-102 68-279 96-395 107-450 140-574 178-690l40-120 143-6c79-3 150-8 158-10 13-3 15 13 13 111-3 145-31 250-110 408l-57 114 18 46c43 111 51 62-128 775-196 776-192 764-216 777-22 12-24 12-123-6zm2551 9c-10-2-18-8-18-11 0-4-43-173-95-377-52-203-134-525-181-713l-87-344 21-67c28-87 28-108-4-155-36-53-88-168-118-265-22-69-26-101-26-198v-115l28 7c15 4 90 10 166 13l139 7 48 154c60 190 161 596 405 1636 20 83 42 173 50 202 8 28 14 67 14 87 0 31-6 39-39 60-56 36-103 53-186 71-76 15-87 16-117 8z" />
    <path
      d="M2980 3638c0-13 5-41 10-64 36-154 62-392 67-599 6-253-5-355-58-523l-32-100 20-39c65-126 83-167 109-245l28-88 17 28c49 77 107 318 139 577 26 211 38 415 46 778l7 297h-176c-177 0-177 0-177-22z" />
    <path
      d="M3370 3560c0-140-18-568-30-730-31-394-86-665-170-834-39-77-40-82-40-185v-107l53-44c28-25 69-63 90-85 38-40 107-168 107-198 0-31 22-29 76 7 89 59 144 68 388 64 230-4 253-9 344-70 42-29 62-30 62-3 0 22 48 125 78 170 15 21 45 55 67 75 101 90 95 77 95 192 0 88-4 112-26 163-14 33-37 85-49 115-49 115-99 398-125 700-10 111-29 645-30 808v62h-890v-100z" />
    <path
      d="M4300 3593c0-38 5-194 10-348 21-587 70-956 157-1178 14-37 30-64 33-60 4 4 27 58 51 118 24 61 59 134 77 163l33 53-25 92c-59 217-74 398-57 657 9 140 52 448 76 543l7 27h-362v-67zM2810 1692c0-4 9-25 21-47 43-82 155-177 284-242 67-34 185-73 220-73 22 0 23 2 13 38-31 116-131 247-221 291-25 12-75 27-109 32-77 11-208 12-208 1zm1795-2c-67-10-100-24-149-63-74-58-119-126-165-246l-20-54 44 6c127 18 305 108 406 207 55 54 109 131 109 155 0 7-166 4-225-5zm-1040-289c-69-17-155-80-155-113 0-18 9-59 41-181l10-38 70 37c39 21 94 42 122 49l52 11 3 122 3 122-58-1c-32-1-71-4-88-8zm175-111v-121l68 3 67 3 3 118 3 117h-141v-120zm105 65c0-25-4-31-26-33-29-3-44 18-33 50 4 14 13 18 32 16 23-2 27-8 27-33zm0-130c0-27-3-30-30-30-21 0-31 5-33 18-6 33 6 49 35 45 24-3 28-8 28-33zm75 61v-126h29c35 0 96-21 172-59l58-30 20 88c29 122 28 144-10 176-58 48-109 68-191 73l-78 5v-127zm-217-156c-60-11-151-44-179-65-17-13 3-14 177-15 108 0 244 3 304 7 95 5 106 8 89 20-61 45-275 74-391 53z" />
  </g>
</svg>