<svg id="root" xmlns="http://www.w3.org/2000/svg" width="768" height="441" viewBox="0 0 7680 4410">
  <path
    d="M3470 3795c-9-11-8-25 5-67 10-29 26-67 36-83 12-21 20-62 25-131l7-101-56-5c-47-4-63-11-103-44-25-21-67-54-93-72-42-30-51-32-101-27-30 3-94 8-142 11l-86 6-8-48c-6-43 1-93 21-145 9-25-25-29-156-22-130 7-177-3-209-44-11-14-20-39-20-55s-6-31-15-34c-12-5-15-25-15-94 0-157 40-319 120-485 60-125 130-229 295-440 72-92 138-177 148-191 18-24 18-24-10-35-15-6-43-12-61-13-18-2-41-11-50-20-10-9-24-16-30-16-7 0-12-4-12-10 0-5-13-10-28-10-34 0-45-9-32-25 8-10 1-14-27-20-78-14-127-60-156-147-18-53-13-57 35-28 18 11 50 20 71 20 35 0 48-12 27-25-16-10-12-25 7-25 9 0 38 23 63 50 36 39 53 50 77 50 16 0 44 7 62 16s41 14 52 11c12-3 23 2 29 14 6 11 21 19 35 19s34 5 45 12c16 11 23 9 47-14 36-33 56-42 128-57 78-17 90-23 90-52 0-21 5-24 40-24 31 0 40-4 43-19 2-11 11-26 19-34s21-25 30-38c13-20 24-24 69-24h54v-35c0-29 4-35 21-35 19 0 20-2 8-16-7-9-14-22-15-29-1-8-14-26-28-42-23-24-26-36-26-93 1-41 6-72 15-84 8-11 15-30 15-43s9-27 23-34c12-7 26-18 30-25 4-8 23-14 40-14 18 0 37-4 42-9 6-5 33-11 60-12 53-3 115 21 115 44 0 7 6 19 12 25 7 7 11 28 10 46-3 34-3 34 55 47 68 14 98 38 114 88s38 83 50 75c6-3 24 3 40 15 15 11 35 21 43 21s34 19 58 43c23 24 59 54 78 67 86 57 90 65 90 160v87l-72 7c-81 7-94 15-103 57-4 17-19 58-35 92-19 43-29 87-34 142-4 58-11 83-23 92-14 11-16 31-14 140 2 140 1 131 35 323 14 74 30 180 36 235 12 99 51 216 87 257 12 13 14 30 9 70-4 29-7 58-8 63 0 6 3 27 7 47 6 34 4 41-25 68-17 16-29 33-26 38s10 78 15 163c12 192 22 221 92 278 32 27 58 58 65 78l12 34-59 29c-80 41-118 40-158-5-17-20-31-46-31-58 0-17-10-28-36-40l-35-17 2-108c1-59-3-134-9-167-7-33-13-75-14-94-2-19-8-36-14-38-18-6-94 75-94 100 0 13-7 32-15 43-8 10-15 27-15 36 0 15-10 12-67-17-91-46-123-51-154-26-21 17-22 22-11 40 6 11 12 23 12 26s-43 5-95 5h-95v28c0 15-7 36-15 46-8 11-15 30-15 42s-7 27-15 34c-11 9-12 17-5 30 11 21 9 179-3 198-12 18-181 17-197-3zm762-2442c17-15 19-15 36 0s82 24 82 12c0-19-36-54-61-59-17-3-49-26-77-54-26-27-62-58-80-71l-32-23-46 22c-38 19-45 26-42 49 2 21 9 27 38 31 41 7 60 17 60 32s71 78 89 78c8 0 23-7 33-17z" />
</svg>