<svg id="root" viewBox="0 0 99 98" version="1.1" xmlns="http://www.w3.org/2000/svg">
  <path
    d="M 43.785156,18.253906 C 43.089844,18.132812 42.429688,17.875 41.855469,17.46875 41.078125,17.0625 40.730469,16.230469 40.308594,15.519531 40.042969,14.746094 39.519531,14.109375 39.503906,13.25 c -0.101562,-0.785156 0.191406,-1.867188 1.152344,-1.875 1.207031,-0.222656 1.574219,1.089844 1.460938,2.039062 0.167968,0.851563 0.550781,1.320313 1,2.015626 0.519531,0.65625 1.1875,1.375 2.113281,1.0625 0.785156,-0.34375 1.097656,-1.320313 1.167969,-2.125 0.08203,-1.347657 0.05469,-2.753907 -0.484376,-4.015626 C 45.796875,9.546875 45.566406,8.769531 45.285156,8.015625 44.9375,6.203125 44.898438,4.339844 45.074219,2.511719 c 0.117187,-0.8125 0.621093,-1.578125 1.289062,-2.039063 0.714844,-0.4921872 1.589844,-0.609375 2.394531,-0.316406 0.949219,0.40625 1.726563,1.128906 2.207032,2.050781 0.445312,0.554688 0.417968,1.394531 0.804687,2.011719 0.246094,0.636719 0.585938,2.003906 1.460938,1.652344 0.238281,-0.894532 1.082031,-1.835938 2.03125,-1.117188 0.878906,0.59375 0.578125,1.699219 0.183593,2.484375 -0.785156,1.375 -2.789062,1.847657 -4.0625,0.867188 -0.777343,-0.589844 -1.390624,-1.375 -1.78125,-2.28125 C 49.261719,4.847656 49.105469,3.785156 48.484375,2.9375 48.117188,1.929688 46.730469,2.214844 46.527344,3.15625 c -0.3125,0.878906 -0.3125,1.8125 -0.08984,2.707031 0.02734,0.773438 0.320312,1.484375 0.546875,2.214844 0.183594,0.777344 0.410156,1.5625 0.695313,2.308594 C 48,11.421875 48.128906,12.5 48.101562,13.582031 c -0.02734,1.144531 0.15625,2.492188 -0.6875,3.417969 -0.566406,0.808594 -1.503906,1.28125 -2.488281,1.253906 -0.382812,0.02734 -0.765625,0.02734 -1.140625,0 z m 29.375,6.058594 c -0.804687,-0.132812 -1.582031,-0.40625 -2.3125,-0.742188 -0.539062,-0.265624 -1.007812,-0.625 -1.371094,-1.097656 -0.539062,-0.3125 -0.613281,-1.003906 -1.023437,-1.441406 -0.285156,-0.589844 -0.375,-1.300781 -0.332031,-1.964844 -0.05469,-0.738281 0.01953,-1.46875 0.238281,-2.160156 0.300781,-0.425781 0.339844,-0.953125 0.476563,-1.449219 0.171874,-0.648437 0.546874,-1.191406 0.851562,-1.78125 0.464844,-0.535156 1.042969,-0.960937 1.582031,-1.414062 0.445313,-0.386719 0.96875,-0.582031 1.5625,-0.582031 0.722657,-0.09375 1.507813,-0.148438 2.1875,0.183593 0.417969,0.464844 1.058594,0.648438 1.5,1.082031 0.492188,0.230469 0.867188,0.628907 1.335938,0.90625 0.464843,0.359376 0.75,0.894532 1.113281,1.347657 0.273438,0.507812 0.503906,1.042969 0.648438,1.605469 0.230468,0.730468 0.128906,1.558593 0.05469,2.328124 -0.273437,0.414063 -0.253906,0.949219 -0.519531,1.375 -0.230469,0.496094 -0.566406,0.921876 -0.867188,1.375 -0.46875,0.480469 -0.84375,1.042969 -1.429687,1.382813 -0.558594,0.378906 -1.195313,0.59375 -1.792969,0.886719 -0.601562,0.175781 -1.296875,0.316406 -1.902344,0.160156 z m 1.59375,-3.972656 C 75.089844,20.183594 75.246094,19.8125 75.464844,19.539062 75.660156,19.261719 75.96875,19 75.90625,18.632812 c 0.0078,-0.378906 0.226562,-0.683593 0.328125,-1.042968 0.148437,-0.316406 -0.15625,-0.5625 -0.136719,-0.878906 -0.01953,-0.257813 0.0078,-0.535157 -0.08203,-0.785157 -0.175781,-0.15625 -0.08203,-0.480469 -0.300781,-0.597656 -0.195313,-0.34375 -0.511719,-0.601563 -0.707032,-0.953125 -0.292968,-0.21875 -0.554687,-0.570312 -0.949218,-0.5625 -0.457032,-0.03516 -0.925782,-0.0078 -1.382813,0 -0.320312,0.121094 -0.730469,0.06641 -0.988281,0.296875 -0.152344,0.351563 -0.574219,0.40625 -0.710938,0.773437 -0.191406,0.257813 -0.414062,0.519532 -0.53125,0.804688 -0.05469,0.5 -0.03516,1.007812 0.0078,1.515625 0.175781,0.347656 0.25,0.71875 0.441406,1.050781 0.08984,0.332032 0.08203,0.703125 0.308594,0.988282 0.08203,0.332031 0.457031,0.386718 0.585937,0.738281 0.292969,0.210937 0.632813,0.378906 0.933594,0.609375 0.355469,0.0078 0.675782,0.304687 1.050782,0.210937 0.320312,-0.117187 0.84375,-0.238281 0.980468,-0.460937 z m -57.75,7.582031 c -0.476562,-0.453125 -0.230468,-1.191406 -0.339844,-1.773437 -0.03516,-1.570313 -0.109374,-3.140626 0.03906,-4.710938 0.234375,-0.710938 0.410156,-1.449219 0.609375,-2.175781 -0.07031,-0.675781 0.359375,-1.15625 0.402344,-1.8125 0.183594,-0.820313 0.679687,-1.550781 1.226562,-2.160157 0.449219,-0.40625 0.832032,-0.914062 1.410156,-1.132812 0.464844,-0.40625 1.078126,-0.453125 1.65625,-0.554688 0.636719,0.03516 1.316407,-0.06641 1.902344,0.277344 0.457032,0.183594 0.847656,0.542969 1.132813,0.949219 0.457031,0.34375 0.601562,0.960937 0.75,1.488281 0.191406,0.664063 0.503906,1.292969 0.53125,2.003906 0,0.691407 0.375,1.308594 0.375,1.992188 -0.06641,0.765625 0.21875,1.496094 0.183593,2.261719 -0.02734,1.144531 0.08203,2.289062 -0.121093,3.417969 -0.136719,0.671874 -0.539063,1.292968 -1.199219,1.523437 -0.648438,0.148437 -1.289062,-0.398437 -1.972656,-0.01953 -1.0625,0.195312 -2.160156,0.148437 -3.238282,0.210937 -0.742187,0.02734 -1.492187,0.07422 -2.234374,0.167969 -0.335938,0.183594 -0.757813,0.195312 -1.113282,0.04687 z m 2.421875,-1.292969 c 1.519531,-0.222656 3.074219,0.05469 4.582031,-0.257812 0.679688,0.0625 1.554688,0.0078 1.457032,-0.925782 0.08984,-2.003906 0.117187,-4.015624 -0.08203,-6.007812 -0.121093,-0.59375 -0.222656,-1.183594 -0.476562,-1.71875 -0.15625,-0.589844 -0.511719,-1.109375 -0.871094,-1.605469 -0.417968,-0.398437 -0.96875,-0.75 -1.582031,-0.667969 -0.566406,-0.0625 -1.097656,0.203126 -1.488281,0.601563 -0.386719,0.472656 -0.679688,1.023437 -1,1.542969 -0.320313,0.628906 -0.65625,1.253906 -0.820313,1.957031 -0.285156,0.5625 -0.3125,1.164063 -0.46875,1.773437 -0.191406,1.570313 -0.08203,3.175782 -0.292969,4.753907 -0.511718,0.757812 0.640626,0.757812 1.042969,0.554687 z m 62.726563,15.457032 c -0.191406,-0.898438 1.335937,-0.492188 1.828125,-0.980469 0.652343,-0.414063 1.355469,-0.664063 1.941406,-1.164063 0.914063,-0.597656 1.882813,-1.105468 2.679687,-1.863281 0.273438,-0.582031 1.554688,-0.203125 1.515626,-0.757813 -0.859376,-0.441406 -1.25,-1.421874 -2.109376,-1.875 -0.503906,-0.570312 -1.152343,-0.359374 -1.199218,0.40625 -0.402344,0.664063 -0.675782,1.792969 -1.539063,1.867188 -0.628906,-0.433594 0.421875,-1.230469 0.421875,-1.859375 0.191406,-0.257813 0.769532,-1.21875 0.04687,-0.894531 -0.394531,0.722656 -1.34375,0.8125 -1.691406,1.578125 -0.6875,0.59375 -1.445313,1.074219 -2.132813,1.664062 -1.003906,0.90625 -2.277343,1.402344 -3.4375,2.066407 -0.84375,0.304687 -1.703124,0.609374 -2.582031,0.730468 -1.058593,-0.398437 0.359375,-0.976562 0.84375,-1.179687 0.59375,-0.59375 1.425781,-0.851563 2.121094,-1.339844 0.75,-0.480469 1.648437,-0.792969 2.203125,-1.535156 1.402344,-1.152344 2.828125,-2.289063 4.199219,-3.488281 0.632812,-0.589844 1.636719,-0.792969 2.359375,-0.230469 0.84375,0.542969 1.363281,1.449219 2.148437,2.050781 0.332031,0.914062 1.472657,0.40625 1.921875,-0.121094 0.84375,-0.242187 1.226563,-1.054687 1.96875,-1.402344 1.269532,-0.371093 2.285156,0.71875 3.320313,1.261719 0.554687,0.675781 1.800781,0.980469 2.011719,1.828125 -0.625,0.65625 -1.472657,-0.136718 -2.058594,-0.46875 -0.789063,-0.40625 -1.371094,-1.144531 -2.222656,-1.402344 -0.960938,-0.40625 -1.773438,0.292969 -2.507813,0.839844 -0.566406,0.292969 -1.351563,0.847656 -0.402344,1.292969 0.851563,0.46875 1.8125,0.664063 2.671875,1.097656 0.8125,0.40625 1.800782,0.515625 2.507813,1.125 0.609375,1.144531 -1.417969,0.730469 -1.941407,0.359375 -1.03125,-0.386718 -2.140624,-0.5625 -3.210937,-0.773437 -1.234375,-0.101563 -2.558594,-0.0078 -3.601563,0.738281 -1.191406,0.777344 -2.40625,1.53125 -3.789062,1.875 -0.75,0.191406 -1.480469,0.710938 -2.285156,0.554688 z m -69.988282,0.941406 c -0.4375,-0.351563 -1.644531,0.128906 -1.628906,-0.554688 0.597656,-0.34375 1.328125,-0.34375 1.984375,-0.460937 0.789063,-0.06641 1.527344,-0.304688 2.25,-0.519531 0.257813,-0.414063 0.113281,-1.464844 0.605469,-1.964844 0.347656,-0.222656 0.484375,-1.183594 -0.101562,-0.765625 -0.375,0.515625 -0.703126,1.070312 -1.097657,1.558593 C 13.578125,40.902344 12.808594,41.273438 11.980469,41.375 10.691406,41.46484 9.3125,41.45703 8.148438,40.773438 7.363281,40.496094 6.851562,39.785156 6.339844,39.15625 c -0.25,-0.625 -0.578125,-1.402344 -1.445313,-1.191406 -0.632812,0.214844 -2.125,-0.375 -2.125,0.527344 0.460938,0.425781 1,0.75 1.417969,1.191406 0.320312,0.02734 1.089844,0.894531 0.449219,0.636718 C 3.953125,39.886719 3.367188,39.304688 2.625,38.953125 2.105469,38.511719 1.453125,38.289062 0.851562,38.003906 0.375,37.957031 -0.53125,37.394531 0.402344,37.210938 1.105469,37.015625 1.792969,36.746094 2.46875,36.480469 3.0625,36.304688 3.585938,35.898438 4.1875,35.757812 4.800781,35.601562 5.433594,35.519531 5.980469,35.1875 c 0.75,-0.175781 1.375,-0.589844 2.058593,-0.921875 0.714844,-0.06641 1.316407,-0.566406 2.039063,-0.582031 0.925781,-0.04687 1.941406,-0.148438 2.761719,0.378906 0.632812,0.15625 1.097656,0.550781 1.628906,0.921875 0.578125,0.433594 1.050781,0.988281 1.519531,1.550781 0.421875,0.703125 0.933594,1.339844 1.324219,2.058594 0.457031,0.519531 0.679688,1.292969 1.234375,1.773438 0.359375,0.730468 -0.601563,1.238281 -1.179687,1.386718 -0.703126,0.40625 -1.515626,0.394532 -2.222657,0.78125 -0.941406,0.261719 -1.9375,0.34375 -2.878906,0.554688 -0.04687,-0.0078 -0.0625,-0.04687 -0.101563,-0.0625 z m 4.4375,-2.402344 c 0.484376,-0.378906 -0.46875,-0.976562 -0.421874,-0.265625 -0.339844,0.394531 0.175781,0.46875 0.421874,0.265625 z m -3.804687,-2.464844 c 0.171875,-0.351562 1.078125,-0.535156 0.375,-0.96875 -0.476563,-0.792968 -1.609375,0.02734 -0.925781,0.691406 0.148437,0.203126 0.265625,0.589844 0.550781,0.277344 z M 86.542969,71.65625 c -0.675781,-0.285156 -1.289063,-0.710938 -1.746094,-1.300781 -0.695313,-0.625 -1.203125,-1.433594 -1.464844,-2.335938 -0.4375,-0.933593 -0.394531,-1.976562 -0.59375,-2.972656 -0.101562,-0.671875 -0.06641,-1.347656 -0.292969,-1.992187 0.01953,-0.960938 -0.300781,-1.886719 -0.230468,-2.847657 -0.01563,-0.894531 -0.226563,-1.761719 -0.179688,-2.667969 -0.01953,-0.921874 -0.01172,-1.84375 0.04297,-2.757812 0.476563,-0.703125 1.511719,-0.296875 2.1875,-0.609375 2.523437,-0.05859 5.039063,-0.04687 7.5625,0.02734 0.796875,0.191406 0.714844,1.179687 0.707031,1.828125 -0.05469,3.359375 0.03516,6.722656 -0.203125,10.074218 -0.265625,0.914063 -0.320312,1.890626 -0.722656,2.757813 -0.351563,0.84375 -0.921875,1.570313 -1.65625,2.105469 -0.355469,0.554687 -0.894531,0.851562 -1.554687,0.804687 -0.621094,0.01953 -1.242188,-0.02734 -1.855469,-0.113281 z m 2.441406,-1.632812 c 0.933594,-0.535157 1.5625,-1.484376 1.691406,-2.558594 0.277344,-1.300782 0.46875,-2.628906 0.429688,-3.96875 0.01953,-2.308594 0.210937,-4.625 0.06641,-6.933594 -0.265625,-1.054688 -1.519531,-0.988281 -2.371094,-0.933594 -1.480469,0.02734 -2.953125,-0.0078 -4.425781,0.01953 -1.042969,0.05469 -0.613281,1.246093 -0.6875,1.917968 0.01172,1.183594 -0.136719,2.410156 0.238281,3.554688 0.109375,0.742187 -0.08203,1.515625 0.183594,2.246094 0.15625,1.144531 0.128906,2.355468 0.640625,3.425781 0.230469,0.699219 0.546875,1.382812 1.078125,1.917969 0.714844,0.953124 1.957031,1.683593 3.15625,1.3125 z m -76.738281,6.09375 C 11.285156,75.988281 10.28125,75.859375 9.503906,75.210938 8.722656,74.738281 8.082031,74.0625 7.644531,73.253906 7.085938,72.347656 6.734375,71.328125 6.621094,70.265625 6.558594,68.742188 6.285156,67.105469 7.023438,65.695312 7.691406,64.300781 8.644531,62.960938 10.050781,62.269531 10.8125,61.660156 9.695312,60.890625 9.578125,60.144531 9.320312,59.191406 9.335938,58.1875 9.632812,57.246094 c 0.511719,-1.050782 1.3125,-1.925782 2.304688,-2.53125 0.640625,-0.804688 1.792969,-0.847656 2.695312,-0.488282 0.984376,0.335938 1.789063,1.066407 2.222657,2.019532 0.367187,0.859375 0.597656,1.792968 0.46875,2.734375 0.01563,1.082031 -0.304688,2.113281 -1.136719,2.824219 -1.070312,0.539062 0.734375,1.035156 1.117188,1.523437 0.886718,0.445313 1.355468,1.332031 1.875,2.125 0.292968,0.804687 0.742187,1.550781 0.714843,2.445313 -0.09375,0.914062 0.136719,1.914062 -0.265625,2.761718 -0.230468,0.75 -0.585937,1.46875 -0.953125,2.171875 -0.691406,1.007813 -1.609375,1.835938 -2.679687,2.417969 -0.703125,0.46875 -1.507813,0.757812 -2.378906,0.773438 -0.457032,0 -0.914063,0.242187 -1.371094,0.09375 z m 2.011718,-1.476563 c 0.789063,-0.09375 1.492188,-0.40625 2.078126,-0.933594 0.988281,-0.894531 1.894531,-2.039062 2.113281,-3.398437 0.05469,-1.347656 0.191406,-2.824219 -0.613281,-3.996094 -0.476563,-0.84375 -1.140626,-1.566406 -1.941407,-2.105469 -0.738281,-0.535156 -1.699219,-0.65625 -2.558593,-0.839843 -0.757813,0.359374 -1.609376,0.101562 -2.351563,0.527343 -0.894531,0.441407 -1.371094,1.382813 -2.011719,2.113281 -0.449218,0.765626 -0.941406,1.496094 -1.035156,2.417969 -0.277344,1.054688 -0.246094,2.167969 0.09375,3.203125 0.539062,1.3125 1.480469,2.539063 2.878906,2.964844 1.089844,0.203125 2.25,0.183594 3.347656,0.04687 z m 0.183594,-12.925781 c 0.878906,-0.230469 1.492188,-0.988282 1.792969,-1.8125 0.0625,-0.855469 0.300781,-1.816406 -0.08984,-2.621094 -0.46875,-0.820312 -0.980469,-1.789062 -1.996093,-1.984375 -1.316407,-0.324219 -2.460938,0.730469 -3.164063,1.726563 -0.636719,0.957031 -0.773437,2.164062 -0.367187,3.242187 0.332031,0.71875 0.945312,1.613281 1.867187,1.335937 0.660156,-0.08203 1.308594,0.378907 1.957031,0.113282 z m 20.03125,36.191406 c -1.546875,-0.414062 -2.9375,-1.117188 -2.925781,-3 -0.710937,-1.394531 -0.53125,-3.082031 0.457031,-4.292969 0.824219,-1.339843 1.636719,-2.695312 2.292969,-4.15625 0.722656,-1.042969 1.539063,-2.1875 2.042969,-3.453125 0.976562,-0.726562 1.042968,-4.816406 1.050781,-5.566406 0.05469,-3.914062 -0.04687,-7.875 -0.300781,-11.753906 0.09766,-1.523438 -0.777344,-2.722656 -1.609375,-3.859375 -1.199219,-1.46875 -2.049739,-2.9554 -2.570313,-3.617188 -1.109375,-1.277343 -1.96875,-2.652343 -3.101562,-3.90625 -1.007813,-1.578125 -2.277344,-2.871093 -3.054688,-4.609375 -0.789062,-1.382812 -0.846118,-3.976697 -0.6875,-4.984375 0.58734,-0.843373 1.199219,-1.765625 2.371094,-3.121093 1.589844,-1.707032 2.53125,-2.769532 3.382812,-3.96875 1.296876,-1.351563 2.660157,-3.1875 4.792969,-2.984376 1.417969,-0.339843 3.183594,-2.558593 3.4375,-2.695312 0.75,-1.339844 1.117188,-2.632812 1.464844,-3.648438 0.246094,-1.105468 1.464844,-2.695312 1.1875,-0.203124 -0.546875,1.820312 1.538338,3.832768 1.363281,4.453124 -1.316406,0.976563 -2.285156,2.160157 -3.683594,2.722657 -1,0.859375 -2.003906,1.902343 -2.984374,2.734375 -1.003907,1.300781 -1.828126,2.667968 -2.925782,3.773437 -1.160156,1.203125 -2.230468,2.550781 -3.265625,3.84375 -0.914062,1.855469 0.382813,3.71875 1.34375,5.160157 1.042969,1.300781 2.269531,2.675781 3.824219,3.378906 1.492188,0.5625 2.910156,-0.15625 4.535156,-1.0625 1.136719,-1.007813 1.75,-0.949219 2.386719,-2.03125 0.597656,-1.355469 0.6875,-3.25 0.320313,-4.765625 -0.785157,-2.730469 -1.359376,-5.925781 -0.546876,-8.777344 1.351563,-0.953125 2.359376,-2.4375 4.089844,-2.808594 1.445313,-0.148437 2.960938,1.042969 3.996094,1.550781 0.703125,2.449219 0.171875,5.152344 0.273438,7.691407 -0.128907,1.808593 -1.078126,3.230469 -1.5,4.929687 -0.640626,1.507813 -0.96875,3.804688 0.503906,4.894532 1.78125,0.804687 3.628906,-0.285157 5.257812,-0.785157 0.988282,-0.386719 2.321334,-1.133363 2.925782,-1.476562 1.21875,-0.617188 2.692537,-1.828876 3.386718,-2.355469 1.609375,-0.898438 2.226563,-2.921875 1.390625,-4.578125 -0.46875,-1.496094 -1.179687,-3.027344 -2.214843,-4.238281 -1.226563,-1.257813 -2.101563,-2.667969 -2.195313,-4.480469 -0.722656,-1.578125 -3.75,-2.566406 -2.863281,-4.484375 0.300781,-1.265625 0.319104,-3.58001 1.308594,-3.871094 0.476562,1.746094 0.960937,3.398438 1.554687,5.035156 1.28125,2.464844 1.410156,2.785157 2.597656,3.367188 1.710938,0.574219 2.917969,2.4375 3.675781,3.5 0.988282,1.421875 3.75,4.738281 2.554688,3.289062 -0.769531,-0.8125 2.203125,2.445313 2.777344,3.414063 1.328125,1.71875 -0.867188,3.316406 -1.910156,4.433594 -1.398438,1.308593 -2.964844,2.382812 -4.296876,3.773437 -2.179687,1.351563 -3.264048,2.145506 -3.660156,2.503906 -1.289062,0.941407 -2.157982,2.371755 -3.019531,3.648438 -0.783648,1.180577 -1.324219,2.898438 -2.332031,4.191406 -0.648438,1.726563 -0.613282,3.386719 -0.710938,5.242188 -0.605468,2.253906 -0.332031,4.847656 -0.613281,7.230468 -0.832031,3.195313 2.722656,2.28125 3.933594,3.960938 0.984375,1.117188 2.892764,1.610294 3.65625,1.855469 1.582031,0.582031 3.21875,1.15625 4.902343,1.570312 1.539063,0.628907 3.191407,1.089844 4.882813,1.542969 1.070313,0.351562 2.445313,1.320312 2.5625,2.796875 -0.410156,1.644531 -2.421875,3.683594 -3.164063,3.839844 -2.296874,0.527343 -5.550781,0.492187 -7.261718,0.59375 -2.09375,0.0625 -4.5,0.347656 -6.703125,0.46875 -2.125,0.242187 -4.097657,1.0625 -6.195313,1.46875 -1.78125,0.277343 -3.375,1.226562 -5.222656,1.515625 -2.183594,0.929687 -4.746094,1.097656 -7.207031,1.070312 -1.417969,-0.101562 -2.347657,0.367188 -3.757813,0.08984 z"
  />
</svg>
