<svg xmlns="http://www.w3.org/2000/svg" id="root" viewBox="7.6 1.9 3324.4 2318.1">
  <path
    d="m1890 2283-315-35-240-69-240-70-445-59c-244-33-449-60-455-60s-35-98-64-217c-29-120-70-267-89-328-47-145-46-230 4-425 38-149 74-232 115-270 15-14 37-54 50-92 18-52 70-134 229-360C553 137 652 4 661 2s34 20 60 53c54 69 171 147 404 272 154 82 192 97 405 164 129 40 370 125 535 190l300 117 10 56 10 56 46-31 47-30 168 108c340 219 369 241 477 376 68 84 116 156 154 232l55 110-10 100c-6 64-23 142-46 215l-37 115-97 66c-92 63-107 69-249 108l-151 41-268-1c-234-1-311-6-584-36zm818-591c-7-17-96-92-109-92-7 0-61-31-119-69-63-42-155-90-230-121-69-29-156-69-195-90-185-100-638-188-847-165-53 6-100 13-103 17-12 12 138 138 250 208 215 136 479 226 850 290 130 23 192 28 333 29 96 1 172-3 170-7z"
  />
</svg>
