<svg xmlns="http://www.w3.org/2000/svg" id="root" viewBox="0 0 100 70">
  <g>
    <path
      d="M 56.625 68.878906 L 47.148438 67.824219 L 39.929688 65.738281 L 32.710938 63.625 L 19.324219 61.84375 C 11.984375 60.847656 5.816406 60.03125 5.636719 60.03125 C 5.457031 60.03125 4.585938 57.074219 3.710938 53.480469 C 2.839844 49.855469 1.605469 45.417969 1.035156 43.578125 C -0.378906 39.199219 -0.347656 36.632812 1.15625 30.742188 C 2.296875 26.246094 3.382812 23.738281 4.613281 22.589844 C 5.066406 22.167969 5.726562 20.960938 6.117188 19.8125 C 6.660156 18.242188 8.222656 15.765625 13.007812 8.945312 C 16.40625 4.082031 19.382812 0.0664062 19.65625 0.00390625 C 19.925781 -0.0546875 20.675781 0.609375 21.460938 1.605469 C 23.082031 3.691406 26.601562 6.042969 33.613281 9.820312 C 38.246094 12.296875 39.386719 12.746094 45.792969 14.769531 C 49.675781 15.980469 56.925781 18.546875 61.886719 20.507812 L 70.910156 24.039062 L 71.511719 27.421875 L 72.898438 26.488281 L 74.3125 25.582031 L 79.363281 28.839844 C 89.59375 35.453125 90.464844 36.117188 93.714844 40.195312 C 95.757812 42.730469 97.203125 44.90625 98.34375 47.199219 L 100 50.523438 L 99.699219 53.542969 C 99.519531 55.472656 99.007812 57.828125 98.316406 60.03125 L 97.203125 63.503906 L 94.285156 65.5 C 91.515625 67.402344 91.066406 67.582031 86.792969 68.757812 L 82.253906 69.996094 L 74.191406 69.96875 C 67.152344 69.9375 64.835938 69.785156 56.625 68.878906 Z M 81.230469 51.035156 C 81.019531 50.523438 78.34375 48.257812 77.949219 48.257812 C 77.742188 48.257812 76.117188 47.320312 74.371094 46.171875 C 72.476562 44.90625 69.707031 43.457031 67.453125 42.519531 C 65.378906 41.644531 62.761719 40.4375 61.585938 39.800781 C 56.023438 36.78125 42.394531 34.125 36.109375 34.820312 C 34.515625 35 33.101562 35.210938 33.011719 35.332031 C 32.648438 35.695312 37.160156 39.5 40.53125 41.613281 C 46.996094 45.71875 54.9375 48.4375 66.097656 50.371094 C 70.007812 51.066406 71.875 51.214844 76.117188 51.246094 C 79.003906 51.277344 81.289062 51.15625 81.230469 51.035156 Z M 81.230469 51.035156 "
    />
  </g>
</svg>
