<svg xmlns="http://www.w3.org/2000/svg" id="root" viewBox="0 0 100 82">
  <g>
    <path
      d="M 80.917969 6.726562 C 80.554688 5.992188 79.96875 4.929688 79.621094 4.375 C 79.273438 3.824219 78.855469 3.054688 78.691406 2.6875 C 78.523438 2.300781 78.324219 1.988281 78.234375 1.988281 C 78.140625 1.988281 78.453125 2.707031 78.910156 3.605469 C 79.382812 4.488281 80.042969 5.71875 80.371094 6.359375 C 81.175781 7.847656 81.414062 8.234375 81.503906 8.140625 C 81.539062 8.105469 81.285156 7.460938 80.917969 6.726562 Z M 75.511719 7.753906 C 75.511719 7.371094 75.4375 7.148438 75.328125 7.222656 C 75.015625 7.40625 75.125 8.417969 75.457031 8.417969 C 75.492188 8.417969 75.511719 8.125 75.511719 7.753906 Z M 51.390625 10.527344 C 51.734375 10.363281 52.046875 10.179688 52.082031 10.160156 C 52.101562 10.144531 52.027344 9.90625 51.917969 9.628906 C 51.679688 9.113281 51.570312 9.113281 50.3125 9.628906 C 49.46875 9.976562 48.722656 9.960938 47.605469 9.519531 L 46.65625 9.152344 L 46.363281 9.554688 C 45.925781 10.199219 45.871094 10.144531 47.644531 10.824219 C 48.28125 11.078125 50.695312 10.894531 51.390625 10.527344 Z M 76.078125 11.261719 C 75.910156 10.710938 75.910156 10.710938 75.894531 11.445312 C 75.875 11.90625 75.929688 12.109375 76.058594 11.980469 C 76.167969 11.871094 76.167969 11.59375 76.078125 11.261719 Z M 40.425781 16.753906 C 40.425781 16.296875 40.332031 15.761719 40.222656 15.558594 C 40.039062 15.191406 40.023438 15.191406 39.675781 15.503906 C 39.492188 15.671875 39.328125 15.984375 39.328125 16.167969 C 39.328125 16.535156 40.039062 17.5625 40.296875 17.582031 C 40.371094 17.597656 40.425781 17.214844 40.425781 16.753906 Z M 2.011719 17.597656 C 2.125 17.25 2.34375 16.128906 2.507812 15.121094 C 2.671875 14.109375 2.925781 12.878906 3.074219 12.382812 C 3.402344 11.226562 3.402344 10.804688 3.074219 10.804688 C 2.761719 10.804688 2.671875 11.023438 2.414062 12.730469 C 2.304688 13.449219 2.140625 14.183594 2.050781 14.386719 C 1.957031 14.585938 1.722656 15.617188 1.539062 16.679688 C 1.265625 18.09375 1.226562 18.644531 1.390625 18.738281 C 1.59375 18.882812 1.667969 18.773438 2.011719 17.597656 Z M 6.253906 15.871094 C 5.925781 15.542969 5.667969 16 5.886719 16.570312 C 6.125 17.214844 6.125 19.929688 5.886719 20.078125 C 5.777344 20.152344 5.832031 20.351562 6.015625 20.609375 C 6.324219 21.03125 6.34375 20.976562 6.398438 18.554688 C 6.4375 17.03125 6.378906 16 6.253906 15.871094 Z M 42.800781 21.363281 C 42.800781 21.089844 42.691406 20.902344 42.542969 20.902344 C 42.253906 20.902344 42.085938 21.253906 42.214844 21.601562 C 42.363281 22.007812 42.800781 21.839844 42.800781 21.363281 Z M 42.800781 21.363281 "
    />
    <path
      d="M 74.285156 20.902344 C 74.46875 19.050781 75.164062 14.917969 75.34375 14.550781 C 75.601562 14.054688 75.457031 11.445312 75.089844 9.792969 C 74.925781 9.097656 74.796875 8.140625 74.777344 7.683594 C 74.777344 6.875 74.816406 6.820312 75.730469 6.214844 C 76.296875 5.828125 76.753906 5.386719 76.824219 5.113281 C 77.136719 3.972656 77.390625 2.523438 77.28125 2.429688 C 77.226562 2.355469 76.570312 2.707031 75.839844 3.203125 C 75.109375 3.699219 74.304688 4.191406 74.046875 4.320312 C 73.023438 4.800781 72.789062 5.148438 72.675781 6.304688 C 72.621094 6.910156 72.496094 7.699219 72.386719 8.050781 C 72.292969 8.398438 72.054688 10.179688 71.855469 11.996094 C 71.652344 13.816406 71.378906 16.09375 71.234375 17.046875 C 70.777344 20.207031 70.703125 21.457031 70.941406 21.457031 C 71.050781 21.457031 71.199219 21.289062 71.253906 21.089844 C 71.308594 20.886719 71.417969 20.71875 71.488281 20.71875 C 71.5625 20.71875 71.691406 20.519531 71.746094 20.261719 C 71.835938 19.875 71.964844 19.800781 72.550781 19.800781 C 73.390625 19.800781 73.683594 20.058594 73.683594 20.832031 C 73.683594 22.226562 74.140625 22.28125 74.285156 20.902344 Z M 74.285156 20.902344 "
    />
    <path
      d="M 72.730469 22.191406 C 73.445312 21.527344 73.207031 20.003906 72.421875 20.261719 C 71.964844 20.410156 71.765625 21.03125 71.929688 21.914062 C 72.074219 22.648438 72.183594 22.703125 72.730469 22.191406 Z M 44.992188 22.300781 C 44.992188 21.988281 44.316406 21.457031 43.933594 21.457031 C 43.769531 21.457031 43.804688 21.621094 44.078125 22.007812 C 44.480469 22.59375 44.992188 22.742188 44.992188 22.300781 Z M 38.140625 21.511719 C 38.03125 20.519531 37.976562 20.371094 37.757812 20.554688 C 37.464844 20.792969 37.410156 21.933594 37.683594 22.097656 C 37.792969 22.152344 37.867188 22.484375 37.867188 22.796875 C 37.882812 23.308594 37.902344 23.347656 38.066406 23.035156 C 38.195312 22.832031 38.230469 22.261719 38.140625 21.511719 Z M 38.140625 21.511719 "
    />
    <path
      d="M 37.246094 22.335938 C 37.117188 20.519531 37.316406 19.765625 37.902344 19.65625 C 38.121094 19.617188 38.25 19.765625 38.324219 20.207031 C 38.394531 20.535156 38.5625 20.976562 38.707031 21.179688 C 38.980469 21.546875 39 21.546875 39.238281 21.199219 C 39.382812 21.015625 39.527344 20.757812 39.566406 20.648438 C 39.621094 20.519531 39.859375 20.554688 40.316406 20.777344 C 41.117188 21.160156 41.628906 21.179688 41.757812 20.832031 C 41.832031 20.664062 41.574219 20.425781 41.046875 20.152344 C 40.605469 19.914062 40.242188 19.675781 40.242188 19.617188 C 40.261719 19.5625 40.425781 19.324219 40.605469 19.085938 L 40.972656 18.664062 L 41.976562 19.140625 C 44.828125 20.554688 47.863281 21.089844 50.96875 20.738281 C 52.027344 20.609375 53.015625 20.445312 53.199219 20.351562 C 53.363281 20.261719 53.945312 20.042969 54.496094 19.875 C 55.042969 19.710938 55.882812 19.34375 56.359375 19.066406 L 57.21875 18.589844 L 56.90625 18.09375 L 56.578125 17.617188 L 55.5 18.167969 C 54.898438 18.460938 54.039062 18.8125 53.582031 18.902344 C 53.125 19.011719 52.558594 19.195312 52.320312 19.304688 C 51.71875 19.601562 46.054688 19.601562 45.707031 19.324219 C 45.558594 19.195312 45.15625 19.050781 44.808594 18.976562 C 43.839844 18.753906 41.703125 17.746094 41.703125 17.488281 C 41.703125 17.011719 41.285156 17.03125 40.773438 17.523438 L 40.242188 18.039062 L 39.75 17.5625 L 39.273438 17.085938 L 38.414062 17.5625 C 37.664062 17.984375 37.445312 18.242188 36.933594 19.34375 C 36.332031 20.648438 36.292969 20.960938 36.441406 22.703125 C 36.515625 23.605469 36.75 24.007812 37.207031 24.027344 C 37.300781 24.027344 37.316406 23.292969 37.246094 22.335938 Z M 37.246094 22.335938 "
    />
    <path
      d="M 51.222656 25.496094 C 52.265625 25.386719 53.289062 25.238281 53.492188 25.144531 C 53.691406 25.054688 54.457031 24.835938 55.191406 24.667969 C 55.902344 24.484375 56.503906 24.300781 56.503906 24.226562 C 56.503906 24.171875 56.851562 24.007812 57.273438 23.878906 C 58.570312 23.476562 59.59375 22.777344 59.484375 22.375 C 59.300781 21.65625 58.953125 21.582031 58.203125 22.078125 C 55.152344 24.0625 49.121094 24.890625 44.847656 23.898438 C 43.019531 23.476562 42.707031 23.363281 40.625 22.355469 C 39.492188 21.804688 39.21875 21.730469 39.015625 21.933594 C 38.449219 22.484375 39.089844 23.21875 40.625 23.75 C 41.046875 23.914062 41.484375 24.097656 41.59375 24.191406 C 41.703125 24.265625 42.378906 24.484375 43.074219 24.667969 C 43.785156 24.835938 44.519531 25.054688 44.71875 25.144531 C 45.066406 25.3125 47.3125 25.585938 48.757812 25.660156 C 49.085938 25.660156 50.183594 25.585938 51.222656 25.496094 Z M 77.792969 26.46875 C 77.867188 25.972656 78.03125 25.128906 78.160156 24.578125 C 78.304688 24.027344 78.542969 22.667969 78.707031 21.546875 C 78.871094 20.445312 79.054688 19.398438 79.109375 19.25 C 79.183594 19.105469 79.402344 17.984375 79.640625 16.773438 C 79.859375 15.558594 80.167969 14 80.316406 13.285156 C 80.480469 12.585938 80.699219 11.300781 80.808594 10.4375 C 80.972656 9.058594 80.957031 8.785156 80.679688 8.050781 C 80.207031 6.875 78.066406 2.90625 77.902344 2.90625 C 77.8125 2.90625 77.703125 3.457031 77.628906 4.15625 C 77.554688 4.835938 77.464844 5.550781 77.410156 5.753906 C 77.355469 5.972656 77.574219 6.507812 77.976562 7.132812 C 78.324219 7.683594 78.617188 8.289062 78.617188 8.492188 C 78.617188 8.675781 78.324219 9.28125 77.976562 9.8125 C 77.628906 10.34375 77.335938 10.859375 77.335938 10.96875 C 77.335938 11.078125 77.265625 11.171875 77.191406 11.171875 C 77.101562 11.171875 76.824219 11.648438 76.550781 12.238281 C 76.1875 13.007812 75.96875 14 75.691406 15.945312 C 75.492188 17.414062 75.199219 19.507812 75.035156 20.59375 L 74.722656 22.574219 L 75.144531 23.144531 C 75.398438 23.492188 75.675781 24.300781 75.839844 25.238281 C 76.113281 26.671875 76.167969 26.78125 76.644531 26.871094 C 76.917969 26.945312 77.191406 27.074219 77.246094 27.167969 C 77.484375 27.535156 77.683594 27.277344 77.792969 26.46875 Z M 44.261719 26.871094 C 44.261719 26.523438 44.132812 26.394531 43.769531 26.304688 C 43.476562 26.230469 43.183594 26.121094 43.074219 26.046875 C 42.984375 25.972656 42.488281 25.808594 41.976562 25.679688 C 41.484375 25.53125 40.605469 25.183594 40.058594 24.90625 C 38.835938 24.285156 38.78125 24.285156 38.78125 24.851562 C 38.78125 25.238281 38.960938 25.386719 39.929688 25.824219 C 40.550781 26.121094 41.648438 26.503906 42.34375 26.6875 C 43.054688 26.871094 43.695312 27.09375 43.804688 27.183594 C 44.097656 27.441406 44.261719 27.351562 44.261719 26.871094 Z M 76.332031 27.882812 C 76.660156 27.535156 76.644531 27.515625 76.296875 27.515625 C 76.078125 27.515625 75.875 27.664062 75.820312 27.882812 C 75.765625 28.085938 75.785156 28.25 75.855469 28.25 C 75.949219 28.25 76.148438 28.085938 76.332031 27.882812 Z M 67.980469 28.011719 C 68.019531 27.9375 68.492188 27.589844 69.042969 27.238281 C 69.992188 26.617188 70.027344 26.578125 70.027344 25.769531 C 70.027344 25.3125 69.972656 24.945312 69.917969 24.945312 C 69.773438 24.945312 68.785156 25.640625 67.945312 26.359375 C 67.542969 26.6875 67.085938 26.964844 66.921875 26.964844 C 66.410156 26.964844 66.191406 27.386719 66.191406 28.398438 L 66.191406 29.371094 L 67.066406 28.765625 C 67.542969 28.433594 67.964844 28.085938 67.980469 28.011719 Z M 67.980469 28.011719 "
    />
    <path
      d="M 74.597656 28.652344 L 75.601562 27.71875 L 75.582031 26.414062 C 75.566406 25.695312 75.472656 25.019531 75.363281 24.890625 C 75.273438 24.777344 75.144531 24.46875 75.089844 24.210938 C 75.035156 23.953125 74.652344 23.4375 74.265625 23.054688 L 73.574219 22.355469 L 72.898438 22.648438 C 72.054688 22.996094 71.671875 22.996094 71.671875 22.667969 C 71.671875 21.730469 70.375 22.355469 68.566406 24.15625 C 67.632812 25.109375 66.828125 25.753906 66.519531 25.808594 C 66.226562 25.863281 66.007812 25.972656 66.007812 26.046875 C 66.007812 26.136719 65.953125 26.339844 65.878906 26.523438 C 65.679688 27.054688 66.703125 26.671875 67.796875 25.808594 C 69.773438 24.246094 70.574219 24.007812 70.574219 25 C 70.574219 26.414062 71.015625 26.78125 72.695312 26.78125 C 73.664062 26.78125 73.71875 26.742188 73.921875 26.230469 C 74.230469 25.386719 74.597656 25.53125 74.597656 26.523438 C 74.597656 27.277344 74.523438 27.421875 73.683594 28.230469 C 73.1875 28.707031 72.769531 29.242188 72.769531 29.40625 C 72.769531 29.9375 73.574219 29.609375 74.597656 28.652344 Z M 65.824219 28.121094 C 65.824219 27.679688 65.75 27.332031 65.660156 27.332031 C 65.515625 27.332031 65.277344 28.835938 65.296875 29.8125 C 65.296875 30.34375 65.296875 30.34375 65.550781 29.628906 C 65.695312 29.222656 65.824219 28.542969 65.824219 28.121094 Z M 54.292969 29.738281 C 55.738281 29.425781 57 29.113281 57.109375 29.019531 C 57.238281 28.929688 57.765625 28.707031 58.316406 28.542969 C 59.449219 28.175781 61.714844 27.054688 61.894531 26.800781 C 61.949219 26.6875 61.859375 26.394531 61.695312 26.136719 C 61.421875 25.714844 61.347656 25.695312 61 25.917969 C 60.105469 26.503906 58.148438 27.40625 57.144531 27.699219 C 56.742188 27.828125 56.175781 28.03125 55.867188 28.15625 C 54.367188 28.835938 47.878906 29.425781 46.453125 29.019531 C 46.109375 28.910156 44.992188 28.691406 43.988281 28.507812 C 42.984375 28.339844 42.125 28.140625 42.070312 28.085938 C 42.015625 28.011719 41.613281 27.847656 41.15625 27.71875 C 40.699219 27.589844 39.457031 27.054688 38.378906 26.542969 C 36.679688 25.714844 36.40625 25.53125 36.386719 25.128906 C 36.386719 24.871094 36.292969 24.46875 36.222656 24.210938 C 36.113281 23.898438 36.09375 24.0625 36.167969 24.6875 C 36.222656 25.203125 36.277344 25.898438 36.292969 26.25 C 36.3125 26.816406 36.421875 26.910156 37.683594 27.570312 C 38.433594 27.957031 39.417969 28.398438 39.875 28.542969 C 40.332031 28.691406 40.828125 28.875 40.972656 28.964844 C 41.117188 29.039062 41.867188 29.261719 42.617188 29.425781 C 43.367188 29.589844 44.480469 29.847656 45.085938 29.996094 C 45.722656 30.140625 47.3125 30.25 48.941406 30.25 C 51.316406 30.269531 52.046875 30.195312 54.292969 29.738281 Z M 37.738281 30.324219 C 37.773438 30.234375 37.703125 29.847656 37.574219 29.445312 L 37.355469 28.707031 L 37.335938 29.589844 C 37.316406 30.34375 37.519531 30.710938 37.738281 30.324219 Z M 97.035156 30.121094 C 97.402344 29.773438 97.695312 29.222656 97.894531 28.507812 C 98.058594 27.917969 98.277344 27.238281 98.386719 27.019531 C 98.609375 26.578125 98.5 26.304688 98.207031 26.488281 C 97.875 26.6875 96.910156 28.765625 96.78125 29.515625 C 96.707031 29.9375 96.597656 30.269531 96.507812 30.269531 C 96.414062 30.269531 96.34375 30.363281 96.34375 30.453125 C 96.34375 30.730469 96.433594 30.691406 97.035156 30.121094 Z M 41.285156 30.984375 C 41.683594 30.636719 41.558594 30.507812 40.679688 30.289062 C 40.222656 30.160156 39.640625 29.9375 39.402344 29.773438 C 38.980469 29.5 38.960938 29.5 38.960938 30.011719 C 38.960938 30.289062 39.074219 30.65625 39.21875 30.800781 C 39.546875 31.152344 40.9375 31.261719 41.285156 30.984375 Z M 12.722656 31.445312 C 13.105469 31.296875 13.105469 30.304688 12.722656 29.753906 C 12.539062 29.480469 12.265625 29.351562 11.828125 29.351562 C 11.261719 29.351562 11.1875 29.40625 11.078125 30.03125 C 10.929688 30.800781 11.132812 31.226562 11.753906 31.390625 C 12.355469 31.574219 12.394531 31.574219 12.722656 31.445312 Z M 12.722656 31.445312 "
    />
    <path
      d="M 10.21875 31.535156 C 10.347656 31.296875 10.457031 30.746094 10.457031 30.324219 C 10.457031 29.699219 10.566406 29.480469 11.023438 29.078125 L 11.605469 28.597656 L 11.222656 26.910156 C 11.003906 25.972656 10.582031 24.191406 10.273438 22.925781 C 9.46875 19.601562 8.847656 17.011719 8.445312 15.121094 C 8.207031 14.109375 7.933594 13.339844 7.695312 13.082031 C 7.277344 12.640625 4.425781 11.117188 4.28125 11.246094 C 4.167969 11.375 4.792969 14.128906 5.046875 14.511719 C 5.15625 14.699219 5.539062 14.9375 5.90625 15.027344 C 6.964844 15.320312 7.074219 15.742188 7.09375 19.527344 C 7.113281 22.023438 7.183594 23.144531 7.421875 24.117188 C 7.605469 24.835938 7.804688 25.496094 7.898438 25.585938 C 7.96875 25.695312 8.171875 26.359375 8.355469 27.054688 C 8.539062 27.773438 8.757812 28.433594 8.828125 28.542969 C 8.921875 28.636719 9.121094 29.5 9.304688 30.417969 C 9.632812 32.125 9.816406 32.34375 10.21875 31.535156 Z M 65.277344 32.988281 C 65.277344 32.328125 65.203125 32.34375 65.019531 33.078125 C 64.949219 33.375 64.984375 33.574219 65.09375 33.574219 C 65.183594 33.574219 65.277344 33.316406 65.277344 32.988281 Z M 17.109375 33.613281 C 17.164062 33.519531 16.652344 33.171875 15.972656 32.839844 C 15.296875 32.511719 14.476562 31.976562 14.164062 31.664062 C 13.398438 30.96875 13.25 31.113281 13.855469 31.996094 C 14.476562 32.894531 16.816406 34.070312 17.109375 33.613281 Z M 13.636719 32.527344 C 13.472656 32.199219 13.214844 31.921875 13.070312 31.921875 C 12.703125 31.921875 12.777344 32.214844 13.289062 32.765625 C 13.582031 33.078125 13.761719 33.5 13.78125 33.925781 L 13.800781 34.585938 L 13.890625 33.851562 C 13.929688 33.375 13.835938 32.894531 13.636719 32.527344 Z M 98.789062 33.355469 C 98.972656 32.214844 99.191406 30.984375 99.285156 30.636719 C 99.523438 29.753906 99.996094 26.984375 99.996094 26.375 C 99.996094 25.992188 99.90625 25.863281 99.632812 25.863281 C 99.15625 25.863281 98.992188 26.25 98.734375 27.972656 C 98.609375 28.78125 98.445312 29.609375 98.351562 29.8125 C 98.261719 30.011719 98.023438 31.132812 97.820312 32.289062 C 97.621094 33.445312 97.402344 34.621094 97.328125 34.914062 C 97.21875 35.394531 97.253906 35.410156 97.859375 35.410156 L 98.5 35.410156 Z M 54.222656 35.0625 C 54.625 34.972656 55.703125 34.714844 56.597656 34.492188 C 57.511719 34.292969 58.496094 33.996094 58.789062 33.871094 C 59.101562 33.722656 59.8125 33.464844 60.398438 33.28125 C 60.964844 33.097656 61.4375 32.894531 61.4375 32.804688 C 61.4375 32.730469 61.53125 32.65625 61.660156 32.65625 C 62.042969 32.65625 64.546875 31.316406 64.546875 31.097656 C 64.546875 30.984375 64.4375 30.730469 64.289062 30.546875 C 64.050781 30.214844 63.960938 30.234375 61.96875 31.226562 C 60.816406 31.792969 59.519531 32.363281 59.0625 32.492188 C 58.605469 32.621094 58.148438 32.785156 58.039062 32.878906 C 57.636719 33.171875 53.433594 33.980469 51.332031 34.179688 C 49.816406 34.308594 48.519531 34.308594 46.949219 34.179688 C 44.792969 33.996094 40.570312 33.171875 40.167969 32.878906 C 40.058594 32.785156 39.601562 32.621094 39.144531 32.492188 C 38.6875 32.363281 37.390625 31.792969 36.257812 31.226562 C 34.265625 30.234375 34.191406 30.214844 33.9375 30.5625 C 33.792969 30.746094 33.664062 31.003906 33.664062 31.113281 C 33.644531 31.648438 40.023438 34.273438 42.070312 34.566406 C 42.527344 34.640625 43.054688 34.769531 43.257812 34.859375 C 44.316406 35.375 52.320312 35.503906 54.222656 35.0625 Z M 96.398438 34.273438 C 96.945312 32.75 97.273438 31.042969 97.074219 30.914062 C 96.980469 30.859375 96.871094 31.167969 96.796875 31.59375 C 96.726562 32.03125 96.597656 32.472656 96.523438 32.566406 C 96.453125 32.675781 96.285156 33.246094 96.160156 33.851562 C 96.050781 34.457031 95.902344 35.097656 95.867188 35.28125 C 95.8125 35.449219 95.8125 35.59375 95.847656 35.59375 C 95.886719 35.59375 96.140625 34.988281 96.398438 34.273438 Z M 19.355469 35.722656 C 18.953125 34.878906 18.789062 34.769531 17.398438 34.53125 C 14.621094 34.035156 14.660156 34.035156 14.660156 34.546875 C 14.660156 35.191406 15.117188 35.59375 15.828125 35.59375 C 16.140625 35.59375 16.523438 35.707031 16.632812 35.816406 C 16.941406 36.128906 19.28125 36.679688 19.484375 36.496094 C 19.574219 36.402344 19.519531 36.074219 19.355469 35.722656 Z M 10.785156 36.84375 C 10.914062 36.714844 11.003906 36.386719 11.003906 36.109375 C 11.003906 35.464844 11.296875 35.429688 11.441406 36.054688 C 11.535156 36.421875 11.679688 36.511719 12.15625 36.511719 C 12.738281 36.511719 13.929688 35.925781 13.929688 35.613281 C 13.929688 35.523438 13.5625 34.972656 13.105469 34.382812 C 12.648438 33.796875 12.355469 33.28125 12.464844 33.246094 C 12.574219 33.207031 12.777344 33.28125 12.921875 33.390625 C 13.527344 33.90625 13.140625 33.226562 12.410156 32.511719 C 11.425781 31.519531 10.820312 31.480469 10.292969 32.363281 C 9.960938 32.894531 9.90625 33.261719 9.90625 35.027344 C 9.90625 36.863281 9.945312 37.0625 10.238281 37.0625 C 10.417969 37.0625 10.65625 36.972656 10.785156 36.84375 Z M 74.945312 34.675781 C 75.511719 34.179688 75.621094 33.925781 75.910156 32.328125 C 76.550781 29.058594 76.625 28.5625 76.515625 28.46875 C 76.367188 28.324219 75.4375 28.855469 74.03125 29.882812 C 72.605469 30.929688 72.367188 31.480469 72.039062 34.402344 C 71.929688 35.410156 71.800781 36.476562 71.746094 36.753906 C 71.636719 37.265625 71.671875 37.25 72.988281 36.257812 C 73.71875 35.707031 74.597656 34.988281 74.945312 34.675781 Z M 71.34375 36.203125 C 71.820312 33.648438 72.164062 30.894531 72.039062 30.746094 C 71.945312 30.675781 71.835938 31.078125 71.765625 31.664062 C 71.691406 32.273438 71.582031 33.007812 71.488281 33.300781 C 71.417969 33.613281 71.289062 34.21875 71.214844 34.675781 C 71.160156 35.117188 71.050781 35.539062 70.960938 35.59375 C 70.886719 35.652344 70.851562 36.035156 70.90625 36.476562 C 70.996094 37.433594 71.125 37.359375 71.34375 36.203125 Z M 8.152344 37.855469 C 8.246094 37.652344 8.335938 37.617188 8.410156 37.726562 C 8.480469 37.835938 8.773438 37.964844 9.046875 38.019531 C 9.523438 38.109375 9.558594 38.074219 9.46875 37.671875 C 9.394531 37.433594 9.304688 36.074219 9.25 34.660156 C 9.195312 32.824219 9.066406 31.777344 8.828125 31.042969 C 8.628906 30.472656 8.390625 29.535156 8.261719 28.984375 C 8.152344 28.433594 7.988281 27.808594 7.898438 27.605469 C 7.804688 27.40625 7.605469 26.617188 7.441406 25.863281 C 7.277344 25.109375 7.058594 24.320312 6.984375 24.117188 C 6.890625 23.914062 6.726562 23.382812 6.617188 22.925781 C 6.507812 22.464844 6.125 21.65625 5.777344 21.144531 C 5.429688 20.609375 5.15625 20.097656 5.15625 19.984375 C 5.15625 19.894531 5.101562 19.800781 5.027344 19.800781 C 4.9375 19.800781 4.644531 19.34375 4.351562 18.792969 C 3.839844 17.875 3.824219 17.765625 4.078125 17.304688 C 4.445312 16.589844 4.40625 13.46875 4.003906 12.75 C 3.675781 12.125 3.695312 12.109375 3.273438 14.109375 C 3.128906 14.863281 2.835938 16.222656 2.617188 17.140625 C 2.179688 19.03125 2.234375 19.730469 3.128906 22.5 C 3.421875 23.382812 3.714844 24.410156 3.785156 24.761719 C 3.859375 25.109375 3.988281 25.496094 4.058594 25.585938 C 4.132812 25.695312 4.335938 26.394531 4.515625 27.148438 C 4.699219 27.902344 4.902344 28.617188 4.972656 28.707031 C 5.066406 28.820312 5.265625 29.425781 5.429688 30.085938 C 5.59375 30.746094 5.851562 31.535156 5.996094 31.867188 C 6.125 32.179688 6.253906 32.566406 6.253906 32.710938 C 6.253906 32.859375 6.453125 33.59375 6.691406 34.328125 C 6.929688 35.082031 7.222656 36.144531 7.347656 36.695312 C 7.640625 38.054688 7.679688 38.167969 7.878906 38.167969 C 7.96875 38.167969 8.097656 38.019531 8.152344 37.855469 Z M 13.910156 38.734375 C 13.34375 38.292969 11.972656 37.671875 11.296875 37.558594 C 10.125 37.359375 9.871094 38 10.96875 38.367188 C 11.332031 38.476562 11.734375 38.644531 11.828125 38.71875 C 12.101562 38.9375 12.648438 39.046875 13.542969 39.066406 L 14.347656 39.085938 Z M 10.96875 38.917969 C 10.511719 38.734375 9.726562 38.515625 9.230469 38.441406 C 7.878906 38.257812 8.539062 38.753906 9.960938 39.011719 C 11.644531 39.324219 11.9375 39.285156 10.96875 38.917969 Z M 10.96875 38.917969 "
    />
    <path
      d="M 54.585938 40.003906 C 55.390625 39.890625 56.214844 39.726562 56.414062 39.636719 C 56.613281 39.542969 57.4375 39.339844 58.222656 39.175781 C 59.027344 39.03125 59.757812 38.828125 59.867188 38.734375 C 59.976562 38.644531 60.433594 38.476562 60.890625 38.351562 C 61.347656 38.238281 62.042969 37.984375 62.445312 37.800781 C 64.964844 36.640625 66.171875 36.035156 66.664062 35.667969 L 67.230469 35.246094 L 67.671875 35.707031 C 68.035156 36.109375 68.21875 36.164062 68.804688 36.074219 C 69.570312 35.945312 69.609375 36.019531 69.1875 37.0625 C 69.023438 37.488281 68.929688 37.871094 69.003906 37.925781 C 69.1875 38.109375 69.644531 37.617188 69.753906 37.046875 C 69.828125 36.753906 69.9375 36.511719 70.007812 36.511719 C 70.175781 36.511719 70.410156 35.375 70.484375 34.125 C 70.539062 33.171875 70.851562 32.289062 71.125 32.289062 C 71.214844 32.289062 71.308594 31.960938 71.308594 31.574219 C 71.308594 31.167969 71.398438 30.785156 71.488281 30.730469 C 71.597656 30.675781 71.671875 30.433594 71.671875 30.214844 C 71.671875 29.996094 72.039062 29.386719 72.496094 28.855469 C 72.953125 28.339844 73.316406 27.882812 73.316406 27.828125 C 73.316406 27.789062 72.769531 27.699219 72.09375 27.625 C 71.179688 27.535156 70.8125 27.40625 70.632812 27.148438 C 70.300781 26.6875 70.101562 26.6875 69.972656 27.148438 C 69.917969 27.351562 69.734375 27.515625 69.570312 27.515625 C 69.386719 27.515625 68.730469 27.957031 68.109375 28.488281 C 67.488281 29.003906 66.703125 29.589844 66.390625 29.753906 C 65.824219 30.066406 65.824219 30.085938 65.824219 31.554688 C 65.824219 32.878906 65.878906 33.117188 66.28125 33.667969 L 66.757812 34.273438 L 65.789062 34.824219 C 64.949219 35.300781 63.59375 35.960938 61.714844 36.789062 C 60.085938 37.523438 56.285156 38.515625 53.582031 38.902344 C 52.121094 39.121094 45.777344 39.121094 44.535156 38.902344 C 40.023438 38.128906 36.128906 36.863281 33.003906 35.136719 C 31.746094 34.4375 31.398438 34.402344 31.234375 35.027344 C 31.160156 35.300781 31.304688 35.503906 31.816406 35.835938 C 33.609375 37.007812 38.761719 39.03125 40.789062 39.359375 C 41.246094 39.433594 41.703125 39.5625 41.796875 39.636719 C 41.90625 39.726562 42.761719 39.875 43.714844 39.984375 C 44.664062 40.09375 45.742188 40.222656 46.089844 40.257812 C 47.203125 40.386719 53.070312 40.222656 54.585938 40.003906 Z M 9.160156 44.410156 C 9.046875 43.96875 8.902344 43.511719 8.828125 43.398438 C 8.738281 43.308594 8.539062 42.59375 8.355469 41.839844 C 8.171875 41.085938 7.96875 40.386719 7.898438 40.277344 C 7.824219 40.1875 7.625 39.46875 7.441406 38.71875 C 7.257812 37.964844 7.058594 37.265625 6.984375 37.15625 C 6.910156 37.0625 6.710938 36.347656 6.527344 35.59375 C 6.34375 34.84375 6.105469 33.980469 5.980469 33.667969 C 5.851562 33.375 5.59375 32.492188 5.429688 31.738281 C 5.246094 30.984375 5.046875 30.289062 4.972656 30.179688 C 4.902344 30.085938 4.664062 29.371094 4.460938 28.617188 C 4.242188 27.863281 3.824219 26.375 3.511719 25.3125 C 3.203125 24.246094 2.78125 22.757812 2.578125 22.007812 C 2.179688 20.464844 1.777344 19.507812 1.464844 19.324219 C 1.320312 19.234375 1.300781 19.304688 1.375 19.527344 C 1.445312 19.710938 1.59375 20.226562 1.703125 20.703125 C 1.8125 21.160156 1.957031 21.695312 2.050781 21.859375 C 2.140625 22.023438 2.34375 22.722656 2.507812 23.421875 C 2.652344 24.097656 2.855469 24.835938 2.964844 25.035156 C 3.054688 25.238281 3.3125 26.101562 3.511719 26.964844 C 3.714844 27.828125 3.96875 28.691406 4.058594 28.890625 C 4.152344 29.09375 4.40625 29.882812 4.609375 30.636719 C 5.523438 33.8125 5.703125 34.421875 5.886719 34.769531 C 5.980469 34.972656 6.179688 35.667969 6.34375 36.328125 C 6.636719 37.488281 6.875 38.332031 7.804688 41.289062 C 8.042969 42.042969 8.300781 42.996094 8.371094 43.398438 C 8.480469 44.078125 9.140625 45.4375 9.285156 45.292969 C 9.304688 45.253906 9.25 44.867188 9.160156 44.410156 Z M 89.304688 44.980469 C 89.488281 43.582031 89.34375 43.308594 88.394531 43.308594 C 87.351562 43.308594 87.113281 43.710938 87.1875 45.382812 C 87.207031 45.859375 87.242188 45.878906 88.191406 45.878906 L 89.179688 45.878906 Z M 89.304688 44.980469 "
    />
    <path
      d="M 55.136719 45.546875 C 55.445312 45.4375 56.542969 45.179688 57.601562 44.980469 C 59.539062 44.628906 62.644531 43.765625 62.992188 43.511719 C 63.101562 43.417969 63.414062 43.308594 63.6875 43.234375 C 64.636719 43.015625 68.804688 41.011719 69.664062 40.351562 L 70.046875 40.074219 L 69.679688 39.617188 L 69.316406 39.175781 L 68.710938 39.523438 C 66.902344 40.554688 63.960938 41.929688 62.902344 42.226562 C 62.445312 42.351562 62.003906 42.519531 61.894531 42.59375 C 61.804688 42.664062 61.183594 42.867188 60.527344 43.03125 C 59.867188 43.199219 59.171875 43.417969 58.972656 43.492188 C 57.710938 44.042969 52.355469 44.683594 49.105469 44.683594 C 45.886719 44.683594 40.207031 44.007812 39.417969 43.527344 C 39.328125 43.453125 38.578125 43.234375 37.773438 43.015625 C 35.507812 42.410156 34.175781 41.875 31.324219 40.445312 L 28.710938 39.121094 L 28.527344 39.582031 C 28.4375 39.820312 28.363281 40.09375 28.363281 40.167969 C 28.363281 40.386719 33.296875 42.832031 35.035156 43.453125 C 35.839844 43.75 36.953125 44.097656 37.5 44.226562 C 38.050781 44.355469 38.597656 44.519531 38.6875 44.59375 C 38.796875 44.683594 39.785156 44.886719 40.882812 45.050781 C 41.996094 45.21875 43.054688 45.4375 43.257812 45.53125 C 43.859375 45.789062 45.046875 45.84375 49.925781 45.789062 C 52.6875 45.769531 54.804688 45.660156 55.136719 45.546875 Z M 19.554688 45.695312 C 18.953125 45.199219 18.878906 45.035156 18.769531 43.988281 C 18.625 42.664062 18.824219 41.984375 19.5 41.546875 C 19.941406 41.269531 19.996094 41.269531 20.195312 41.527344 C 20.324219 41.691406 20.78125 41.875 21.238281 41.929688 C 22.042969 42.042969 22.058594 42.042969 21.566406 41.765625 C 21.128906 41.488281 21.074219 41.363281 20.964844 39.746094 C 20.796875 37.652344 20.617188 37.414062 18.863281 37.0625 C 18.203125 36.953125 17.601562 36.789062 17.492188 36.695312 C 17.398438 36.625 17.109375 36.511719 16.851562 36.457031 C 16.597656 36.402344 16.066406 36.273438 15.683594 36.164062 C 15.007812 36 14.859375 36.035156 13.929688 36.625 C 13.378906 36.972656 12.792969 37.25 12.648438 37.25 C 12.503906 37.265625 12.703125 37.433594 13.105469 37.632812 C 13.507812 37.835938 14.09375 38.238281 14.402344 38.550781 C 14.714844 38.847656 15.207031 39.15625 15.5 39.25 C 15.972656 39.359375 16.046875 39.507812 16.195312 40.332031 C 16.285156 40.867188 16.449219 41.289062 16.558594 41.289062 C 16.980469 41.304688 17.4375 42.28125 17.730469 43.695312 C 17.894531 44.59375 18.09375 45.144531 18.242188 45.144531 C 18.367188 45.144531 18.640625 45.402344 18.863281 45.695312 C 19.136719 46.0625 19.410156 46.246094 19.738281 46.246094 L 20.230469 46.246094 Z M 86.546875 46.394531 C 86.636719 46.226562 86.695312 46.042969 86.636719 45.988281 C 86.601562 45.933594 85.742188 45.953125 84.757812 46.007812 L 82.949219 46.117188 L 83.75 46.449219 C 84.757812 46.871094 86.253906 46.835938 86.546875 46.394531 Z M 86.546875 46.394531 "
    />
    <path
      d="M 16.523438 46.210938 C 16.414062 45.972656 16.195312 45.050781 16.03125 44.132812 C 15.863281 43.234375 15.664062 42.410156 15.574219 42.296875 C 15.5 42.207031 15.390625 41.730469 15.316406 41.269531 L 15.1875 40.425781 L 13.234375 40.113281 C 12.15625 39.949219 11.113281 39.726562 10.914062 39.636719 C 10.710938 39.542969 10.070312 39.398438 9.488281 39.304688 L 8.410156 39.140625 L 8.539062 39.800781 C 8.609375 40.167969 8.71875 40.554688 8.8125 40.644531 C 8.882812 40.753906 9.105469 41.488281 9.269531 42.296875 C 9.449219 43.105469 9.652344 43.859375 9.726562 43.949219 C 9.78125 44.0625 9.945312 44.484375 10.054688 44.886719 L 10.273438 45.660156 L 11.882812 45.953125 C 12.757812 46.117188 13.636719 46.246094 13.855469 46.246094 C 14.054688 46.246094 14.292969 46.300781 14.367188 46.394531 C 14.585938 46.613281 16.375 46.925781 16.558594 46.761719 C 16.667969 46.667969 16.652344 46.464844 16.523438 46.210938 Z M 85.671875 48.503906 C 85.742188 48.210938 85.871094 47.878906 85.980469 47.753906 C 86.273438 47.386719 85.945312 47.203125 84.828125 47.109375 C 81.613281 46.777344 81.722656 46.777344 81.722656 47.128906 C 81.722656 47.292969 81.667969 47.753906 81.613281 48.121094 L 81.503906 48.800781 L 82.472656 48.871094 C 83.019531 48.910156 83.933594 48.945312 84.5 48.964844 C 85.503906 49 85.558594 48.984375 85.671875 48.503906 Z M 53.527344 51.003906 C 56.667969 50.726562 61.164062 49.902344 62.261719 49.367188 C 62.460938 49.277344 63.121094 49.054688 63.722656 48.890625 C 64.328125 48.726562 64.910156 48.523438 65.003906 48.449219 C 65.113281 48.375 65.625 48.175781 66.171875 47.992188 C 66.71875 47.808594 67.414062 47.511719 67.726562 47.347656 C 68.035156 47.164062 68.476562 46.960938 68.695312 46.90625 C 68.914062 46.835938 69.917969 46.320312 70.921875 45.769531 C 72.550781 44.867188 72.75 44.722656 72.585938 44.410156 C 72.476562 44.226562 72.332031 44.023438 72.238281 43.949219 C 72.148438 43.894531 70.632812 44.558594 68.875 45.421875 C 67.140625 46.28125 65.585938 46.980469 65.441406 46.980469 C 65.296875 46.980469 65.019531 47.089844 64.820312 47.238281 C 64.070312 47.753906 58.515625 49.167969 55.226562 49.679688 C 52.066406 50.15625 42.527344 49.972656 41.15625 49.421875 C 41.007812 49.351562 40.058594 49.109375 39.054688 48.890625 C 37.082031 48.46875 34.449219 47.679688 33.570312 47.273438 C 33.28125 47.128906 32.824219 46.960938 32.566406 46.890625 C 31.636719 46.613281 27.613281 44.667969 26.828125 44.117188 C 26.132812 43.640625 25.621094 43.878906 25.621094 44.683594 C 25.621094 44.941406 31.03125 47.695312 32.292969 48.082031 C 32.695312 48.210938 33.113281 48.375 33.207031 48.449219 C 33.316406 48.523438 33.917969 48.742188 34.578125 48.910156 C 35.234375 49.09375 35.855469 49.3125 35.949219 49.386719 C 36.148438 49.535156 38.652344 50.101562 41.117188 50.582031 C 44.207031 51.167969 49.542969 51.351562 53.527344 51.003906 Z M 8.957031 50.726562 C 8.992188 50.707031 8.8125 50.359375 8.554688 49.9375 C 8.300781 49.535156 8.082031 49.148438 8.082031 49.09375 C 8.082031 49.019531 7.769531 48.503906 7.386719 47.9375 C 7.003906 47.367188 6.324219 46.265625 5.886719 45.511719 C 5.429688 44.757812 5.011719 44.117188 4.9375 44.078125 C 4.847656 44.042969 4.792969 43.933594 4.792969 43.824219 C 4.792969 43.710938 4.535156 43.253906 4.222656 42.792969 C 3.914062 42.335938 3.585938 41.746094 3.492188 41.507812 C 3.367188 41.179688 3.238281 41.105469 2.910156 41.195312 C 1.976562 41.488281 2.03125 41.671875 3.96875 44.867188 C 4.515625 45.789062 5.175781 46.890625 5.429688 47.347656 C 6.308594 48.871094 6.765625 49.644531 6.964844 49.863281 C 7.074219 49.992188 7.167969 50.140625 7.167969 50.214844 C 7.167969 50.269531 7.332031 50.5625 7.550781 50.855469 C 7.953125 51.425781 7.878906 51.425781 8.957031 50.726562 Z M 4.972656 49.292969 C 4.679688 48.835938 4.425781 48.433594 4.425781 48.359375 C 4.425781 48.15625 3.328125 46.613281 3.183594 46.613281 C 3.109375 46.613281 2.945312 46.6875 2.816406 46.761719 C 2.652344 46.871094 2.761719 47.238281 3.238281 48.210938 C 3.585938 48.925781 3.878906 49.605469 3.878906 49.71875 C 3.878906 49.828125 3.949219 49.917969 4.023438 49.917969 C 4.097656 49.917969 4.316406 50.339844 4.515625 50.835938 C 4.71875 51.351562 4.917969 51.753906 4.992188 51.753906 C 5.066406 51.753906 5.191406 51.976562 5.265625 52.269531 C 5.394531 52.65625 5.449219 52.488281 5.484375 51.425781 C 5.539062 50.195312 5.503906 50.03125 4.972656 49.292969 Z M 90.09375 52.730469 C 90.21875 52.25 90.441406 51.609375 90.585938 51.296875 C 90.730469 51.003906 90.96875 50.25 91.132812 49.644531 C 91.296875 49.039062 91.5 48.375 91.589844 48.175781 C 91.683594 47.972656 91.9375 47.183594 92.140625 46.429688 C 92.359375 45.675781 92.632812 44.8125 92.777344 44.5 C 92.90625 44.207031 93.125 43.546875 93.253906 43.03125 C 93.363281 42.535156 93.527344 42.023438 93.621094 41.929688 C 93.691406 41.820312 93.894531 41.160156 94.058594 40.460938 C 94.222656 39.746094 94.441406 39.011719 94.53125 38.808594 C 94.625 38.605469 94.84375 37.652344 95.042969 36.695312 C 95.246094 35.742188 95.59375 34.308594 95.792969 33.5 C 96.011719 32.710938 96.140625 32.03125 96.105469 31.976562 C 96.050781 31.941406 95.921875 32.308594 95.8125 32.785156 C 95.683594 33.261719 95.5 33.757812 95.429688 33.871094 C 95.335938 33.980469 95.117188 34.640625 94.953125 35.339844 C 94.808594 36.035156 94.605469 36.679688 94.515625 36.789062 C 94.441406 36.878906 94.242188 37.542969 94.058594 38.238281 C 93.894531 38.9375 93.691406 39.636719 93.601562 39.800781 C 93.417969 40.167969 92.46875 43.179688 92.03125 44.777344 C 91.863281 45.4375 91.644531 46.0625 91.574219 46.15625 C 91.5 46.265625 91.351562 46.835938 91.242188 47.441406 C 91.132812 48.046875 90.933594 48.632812 90.785156 48.726562 C 90.660156 48.835938 90.421875 49.660156 90.238281 50.5625 C 90.074219 51.5 89.816406 52.304688 89.671875 52.417969 C 89.269531 52.710938 89.324219 53.59375 89.761719 53.59375 C 89.816406 53.59375 89.984375 53.207031 90.09375 52.730469 Z M 90.09375 52.730469 "
    />
    <path
      d="M 87.332031 53.410156 C 87.84375 53.410156 88.007812 53.28125 88.574219 52.398438 C 88.921875 51.828125 89.214844 51.257812 89.214844 51.113281 C 89.214844 50.78125 89.617188 49.863281 89.816406 49.71875 C 89.984375 49.589844 90.328125 47.714844 90.328125 46.945312 C 90.328125 46.375 90.019531 45.695312 89.761719 45.695312 C 89.671875 45.695312 89.636719 45.824219 89.707031 45.988281 C 89.800781 46.246094 89.652344 46.28125 88.464844 46.226562 C 87.148438 46.15625 87.113281 46.171875 87.058594 46.613281 C 87.023438 46.871094 86.914062 47.164062 86.839844 47.257812 C 86.75 47.367188 86.511719 47.953125 86.308594 48.597656 C 85.90625 49.789062 85.945312 50.46875 86.417969 50.875 C 86.65625 51.074219 86.695312 50.984375 86.636719 50.285156 C 86.527344 48.925781 86.914062 49.167969 87.113281 50.597656 C 87.261719 51.5 87.261719 51.996094 87.132812 52.121094 C 87.023438 52.234375 85.796875 52.304688 84.171875 52.304688 C 81.851562 52.304688 81.375 52.34375 81.285156 52.582031 C 81.15625 52.929688 81.960938 53.296875 82.492188 53.113281 C 82.671875 53.058594 82.949219 53.097656 83.058594 53.207031 C 83.292969 53.390625 85.671875 53.574219 86.382812 53.464844 C 86.582031 53.445312 87.003906 53.410156 87.332031 53.410156 Z M 90.730469 53.683594 C 90.878906 53.554688 91.0625 53.113281 91.132812 52.730469 C 91.1875 52.34375 91.371094 51.792969 91.5 51.480469 C 91.644531 51.1875 91.917969 50.304688 92.140625 49.550781 C 92.359375 48.800781 92.597656 48.101562 92.667969 47.992188 C 92.761719 47.898438 92.960938 47.273438 93.125 46.613281 C 93.289062 45.953125 93.492188 45.292969 93.546875 45.144531 C 93.984375 44.007812 95.703125 38.9375 95.996094 37.890625 C 96.195312 37.191406 96.433594 36.441406 96.523438 36.238281 C 96.707031 35.871094 97.054688 34.382812 97.074219 34.035156 C 97.074219 33.703125 95.136719 38.292969 94.878906 39.195312 C 94.753906 39.691406 94.585938 40.1875 94.515625 40.277344 C 94.441406 40.386719 94.242188 41.050781 94.058594 41.746094 C 93.875 42.464844 93.675781 43.125 93.601562 43.214844 C 93.527344 43.328125 93.308594 43.933594 93.144531 44.59375 C 92.960938 45.253906 92.707031 45.988281 92.578125 46.246094 C 92.449219 46.503906 92.230469 47.21875 92.066406 47.84375 C 91.902344 48.449219 91.644531 49.183594 91.5 49.476562 C 91.351562 49.773438 91.226562 50.101562 91.226562 50.214844 C 91.226562 50.324219 91.042969 50.949219 90.839844 51.589844 C 90.09375 53.8125 90.074219 54.363281 90.730469 53.683594 Z M 89.214844 54.4375 C 88.667969 54.328125 88.046875 54.144531 87.828125 54.015625 C 87.460938 53.792969 86.65625 53.886719 86.65625 54.125 C 86.65625 54.289062 88.648438 54.636719 89.582031 54.636719 C 90.09375 54.636719 90 54.601562 89.214844 54.4375 Z M 89.214844 54.4375 "
    />
    <path
      d="M 79.695312 56.328125 C 79.824219 55.574219 80.003906 54.894531 80.078125 54.785156 C 80.261719 54.546875 80.515625 53.261719 80.609375 52.085938 C 80.625 51.792969 80.882812 51.753906 83.386719 51.753906 L 86.128906 51.753906 L 85.761719 51.242188 C 85.558594 50.949219 85.339844 50.507812 85.285156 50.230469 C 85.121094 49.625 84.8125 49.550781 81.414062 49.257812 C 80.097656 49.148438 79.183594 49.441406 79.074219 50.011719 C 78.726562 51.9375 78.324219 53.59375 78.125 54.015625 C 77.976562 54.289062 77.921875 54.582031 77.976562 54.675781 C 78.011719 54.765625 77.921875 55.226562 77.757812 55.683594 C 77.445312 56.53125 77.445312 56.53125 77.867188 56.824219 C 78.105469 56.988281 78.414062 57.429688 78.5625 57.796875 C 78.835938 58.441406 78.835938 58.441406 79.144531 58.054688 C 79.328125 57.851562 79.566406 57.0625 79.695312 56.328125 Z M 70.996094 57.796875 C 70.886719 57.6875 70.121094 57.246094 69.277344 56.824219 C 67.160156 55.722656 66.117188 55.171875 66.007812 55.0625 C 65.808594 54.859375 64.289062 54.144531 64.21875 54.214844 C 64.089844 54.363281 64.363281 54.65625 64.875 54.933594 C 65.40625 55.191406 67.726562 56.457031 69.753906 57.578125 C 70.464844 57.980469 71.070312 58.21875 71.105469 58.128906 C 71.144531 58.035156 71.085938 57.890625 70.996094 57.796875 Z M 78.179688 58.347656 C 78.359375 58.035156 77.921875 57.707031 77.667969 57.960938 C 77.539062 58.089844 77.210938 58.183594 76.933594 58.183594 C 76.660156 58.183594 76.421875 58.273438 76.421875 58.367188 C 76.421875 58.625 78.011719 58.605469 78.179688 58.347656 Z M 16.304688 58.972656 C 16.304688 58.714844 16.265625 58.714844 15.9375 59.007812 C 15.738281 59.191406 15.574219 59.414062 15.574219 59.503906 C 15.574219 59.597656 15.738281 59.578125 15.9375 59.46875 C 16.140625 59.359375 16.304688 59.136719 16.304688 58.972656 Z M 16.304688 58.972656 "
    />
    <path
      d="M 88.265625 60.257812 C 88.777344 58.476562 88.757812 58.550781 88.976562 58 C 89.085938 57.742188 89.269531 57.097656 89.417969 56.585938 C 89.542969 56.050781 89.707031 55.613281 89.800781 55.613281 C 89.875 55.613281 89.945312 55.539062 89.945312 55.429688 C 89.945312 55.335938 89.707031 55.246094 89.433594 55.246094 C 89.160156 55.246094 88.851562 55.171875 88.757812 55.078125 C 88.648438 55.007812 87.679688 54.785156 86.566406 54.621094 C 85.46875 54.453125 84.390625 54.234375 84.191406 54.144531 C 83.824219 53.976562 81.667969 53.59375 81.136719 53.59375 C 80.9375 53.59375 80.773438 54.015625 80.554688 55.117188 C 80.371094 55.941406 80.167969 56.789062 80.078125 56.988281 C 79.878906 57.449219 79.53125 59.175781 79.53125 59.726562 C 79.53125 60.109375 79.675781 60.167969 81.59375 60.535156 C 82.710938 60.734375 84.425781 61.085938 85.378906 61.285156 C 87.992188 61.820312 87.789062 61.890625 88.265625 60.257812 Z M 56.667969 60.570312 C 57.492188 59.910156 58.917969 58.753906 59.867188 58 C 60.800781 57.246094 61.785156 56.457031 62.078125 56.253906 C 62.371094 56.050781 62.882812 55.628906 63.230469 55.316406 C 63.796875 54.824219 63.832031 54.710938 63.652344 54.363281 C 63.539062 54.144531 63.375 53.960938 63.304688 53.960938 C 63.230469 53.960938 62.5 54.527344 61.695312 55.207031 C 60.871094 55.886719 59.941406 56.640625 59.613281 56.898438 C 59.0625 57.320312 57.492188 58.605469 55.648438 60.128906 C 55.023438 60.625 54.859375 60.902344 54.859375 61.324219 C 54.859375 61.636719 54.933594 61.855469 55.023438 61.820312 C 55.097656 61.800781 55.847656 61.230469 56.667969 60.570312 Z M 17.507812 61.542969 C 18.148438 61.230469 18.167969 61.195312 18.058594 60.40625 C 18.003906 59.945312 17.875 59.503906 17.785156 59.414062 C 17.710938 59.339844 17.328125 59.46875 16.941406 59.742188 C 16.558594 60 16.046875 60.257812 15.808594 60.3125 C 15.261719 60.460938 15.28125 60.535156 15.972656 61.25 C 16.652344 61.949219 16.632812 61.949219 17.507812 61.542969 Z M 89.304688 62.09375 C 89.363281 61.800781 89.542969 61.339844 89.671875 61.027344 C 89.816406 60.734375 90.054688 59.984375 90.238281 59.375 C 90.402344 58.769531 90.585938 58.203125 90.660156 58.089844 C 90.804688 57.851562 91.664062 55.335938 92.140625 53.777344 C 92.339844 53.113281 92.578125 52.417969 92.667969 52.214844 C 92.777344 52.011719 93.179688 50.820312 93.601562 49.550781 C 94.019531 48.285156 94.441406 47.089844 94.53125 46.890625 C 94.625 46.6875 95.0625 45.363281 95.519531 43.949219 C 95.976562 42.535156 96.414062 41.25 96.507812 41.085938 C 96.597656 40.921875 96.78125 40.425781 96.890625 39.984375 C 97.019531 39.542969 97.21875 38.9375 97.347656 38.625 C 97.621094 38.019531 98.1875 36.109375 98.113281 36.054688 C 98.097656 36.035156 97.859375 35.960938 97.585938 35.890625 C 97.128906 35.777344 97.074219 35.835938 96.871094 36.550781 C 96.742188 36.992188 96.578125 37.433594 96.507812 37.523438 C 96.433594 37.632812 96.195312 38.367188 95.976562 39.175781 C 95.757812 39.984375 95.519531 40.738281 95.429688 40.828125 C 95.355469 40.9375 95.152344 41.546875 94.972656 42.207031 C 94.808594 42.867188 94.605469 43.492188 94.515625 43.582031 C 94.441406 43.695312 94.242188 44.300781 94.058594 44.960938 C 93.894531 45.621094 93.675781 46.246094 93.601562 46.339844 C 93.507812 46.449219 93.308594 47.035156 93.144531 47.679688 C 92.996094 48.320312 92.742188 49.09375 92.597656 49.421875 C 92.449219 49.753906 92.011719 51.132812 91.589844 52.488281 C 91.171875 53.847656 90.769531 55.132812 90.675781 55.335938 C 90.585938 55.539062 90.128906 56.953125 89.652344 58.457031 C 89.179688 59.984375 88.738281 61.304688 88.667969 61.398438 C 88.59375 61.507812 88.484375 61.800781 88.410156 62.09375 C 88.300781 62.535156 88.355469 62.589844 88.738281 62.589844 C 89.070312 62.589844 89.214844 62.460938 89.304688 62.09375 Z M 19.117188 65.015625 C 19.300781 64.71875 21.546875 63.691406 22.003906 63.691406 C 22.5 63.691406 22.992188 64.132812 23.082031 64.683594 C 23.191406 65.199219 23.613281 65.269531 23.613281 64.777344 C 23.613281 64.519531 23.300781 64.058594 22.828125 63.617188 C 22.386719 63.195312 21.765625 62.386719 21.4375 61.820312 C 21.109375 61.230469 20.726562 60.753906 20.578125 60.753906 C 20.214844 60.753906 18.058594 61.597656 17.507812 61.949219 L 17.035156 62.257812 L 17.398438 62.867188 C 17.601562 63.195312 17.765625 63.582031 17.765625 63.746094 C 17.765625 64.039062 18.660156 65.160156 18.898438 65.160156 C 18.972656 65.160156 19.0625 65.085938 19.117188 65.015625 Z M 24.710938 64.886719 C 24.710938 64.59375 24.601562 64.425781 24.433594 64.425781 C 24.105469 64.425781 24.105469 64.519531 24.34375 64.996094 C 24.601562 65.472656 24.710938 65.4375 24.710938 64.886719 Z M 63.265625 65.859375 C 63.265625 65.765625 63.6875 65.105469 64.179688 64.40625 C 64.691406 63.710938 65.09375 63.105469 65.09375 63.03125 C 65.09375 62.976562 65.351562 62.554688 65.679688 62.113281 C 66.171875 61.414062 66.226562 61.25 66.007812 61.121094 C 65.863281 61.011719 65.679688 60.9375 65.625 60.9375 C 65.53125 60.9375 64.363281 62.535156 64.363281 62.683594 C 64.363281 62.71875 63.960938 63.378906 63.449219 64.113281 C 62.480469 65.566406 62.425781 65.710938 62.753906 66.042969 C 62.972656 66.261719 63.265625 66.171875 63.265625 65.859375 Z M 14.714844 65.859375 C 14.273438 65.4375 13.984375 65.492188 14.164062 65.988281 C 14.238281 66.132812 14.476562 66.261719 14.695312 66.261719 L 15.097656 66.261719 Z M 22.152344 65.894531 C 22.152344 65.621094 22.058594 65.675781 21.675781 66.097656 C 21.328125 66.5 21.328125 66.5 21.75 66.28125 C 21.96875 66.171875 22.152344 65.988281 22.152344 65.894531 Z M 22.152344 65.894531 "
    />
    <path
      d="M 19.902344 66.796875 C 21.253906 66.003906 22.664062 64.648438 22.261719 64.5 C 22.097656 64.445312 21.765625 64.519531 21.511719 64.683594 C 21.273438 64.847656 20.871094 64.976562 20.652344 64.976562 C 20.414062 64.976562 19.8125 65.179688 19.320312 65.417969 C 18.769531 65.675781 18.296875 65.785156 18.128906 65.695312 C 17.984375 65.621094 17.710938 65.511719 17.546875 65.453125 C 17.179688 65.34375 16.667969 64.242188 16.667969 63.527344 C 16.667969 63.269531 16.539062 62.882812 16.394531 62.699219 C 16.25 62.5 16.121094 62.203125 16.121094 62.058594 C 16.121094 61.890625 15.917969 61.636719 15.699219 61.488281 C 15.460938 61.339844 14.96875 61.011719 14.605469 60.789062 C 13.761719 60.238281 13.746094 59.835938 14.566406 59.210938 C 15.1875 58.714844 15.351562 58.238281 15.097656 57.558594 C 14.96875 57.210938 13.378906 57.15625 13.050781 57.484375 C 12.757812 57.777344 12.777344 59.007812 13.070312 59.488281 C 13.195312 59.742188 13.214844 59.910156 13.105469 59.945312 C 12.449219 60.203125 12.394531 60.332031 12.703125 60.992188 C 12.886719 61.339844 13.015625 61.765625 13.015625 61.949219 C 13.015625 62.113281 13.140625 62.480469 13.289062 62.753906 C 13.433594 63.050781 13.507812 63.324219 13.453125 63.363281 C 13.417969 63.417969 13.488281 63.691406 13.652344 63.984375 C 13.800781 64.28125 13.929688 64.628906 13.929688 64.757812 C 13.929688 64.886719 14.148438 65.070312 14.441406 65.179688 C 14.714844 65.269531 15.351562 65.765625 15.847656 66.261719 C 17.125 67.511719 18.367188 67.675781 19.902344 66.796875 Z M 16.597656 67.546875 C 16.140625 67.125 15.792969 66.996094 15.242188 66.996094 C 14.511719 66.996094 14.511719 66.996094 14.714844 67.53125 C 14.859375 67.953125 15.0625 68.082031 15.738281 68.226562 C 16.195312 68.320312 16.722656 68.320312 16.886719 68.246094 C 17.179688 68.097656 17.144531 68.027344 16.597656 67.546875 Z M 26.574219 68.761719 C 26.792969 68.429688 26.738281 68.28125 26.410156 68.28125 C 25.695312 68.28125 25.257812 68.523438 25.257812 68.871094 C 25.257812 69.183594 25.332031 69.21875 25.859375 69.109375 C 26.171875 69.035156 26.5 68.871094 26.574219 68.761719 Z M 15.808594 69.074219 C 15.882812 69.015625 15.773438 68.832031 15.554688 68.6875 C 15.132812 68.394531 14.96875 68.464844 15.132812 68.90625 C 15.242188 69.199219 15.589844 69.292969 15.808594 69.074219 Z M 16.597656 69.753906 C 16.980469 69.457031 17.363281 69.199219 17.4375 69.199219 C 17.507812 69.199219 18.1875 68.761719 18.933594 68.246094 C 19.683594 67.714844 20.453125 67.164062 20.632812 67.050781 C 20.835938 66.90625 20.707031 66.925781 20.269531 67.089844 C 19.886719 67.234375 19.355469 67.53125 19.097656 67.730469 C 18.84375 67.933594 18.476562 68.097656 18.296875 68.097656 C 17.875 68.097656 17.035156 68.484375 17.035156 68.6875 C 17.035156 68.761719 16.925781 68.832031 16.796875 68.832031 C 16.394531 68.832031 15.316406 69.84375 15.460938 70.082031 C 15.664062 70.394531 15.792969 70.359375 16.597656 69.753906 Z M 53.289062 72.175781 C 53.324219 72.101562 53.289062 71.917969 53.199219 71.773438 C 53.050781 71.535156 53.015625 71.535156 52.851562 71.773438 C 52.757812 71.917969 52.667969 72.101562 52.667969 72.195312 C 52.667969 72.378906 53.179688 72.359375 53.289062 72.175781 Z M 12.191406 72.746094 C 12.136719 72.46875 11.917969 71.917969 11.734375 71.496094 C 11.550781 71.09375 11.296875 70.394531 11.167969 69.9375 C 11.039062 69.476562 10.875 69.035156 10.820312 68.925781 C 10.75 68.832031 10.511719 68.117188 10.273438 67.363281 C 10.054688 66.613281 9.796875 65.914062 9.726562 65.804688 C 9.652344 65.710938 9.433594 65.085938 9.269531 64.425781 C 9.085938 63.765625 8.882812 63.160156 8.8125 63.050781 C 8.71875 62.957031 8.519531 62.332031 8.355469 61.671875 C 8.171875 61.011719 7.96875 60.40625 7.898438 60.292969 C 7.824219 60.203125 7.386719 58.972656 6.910156 57.578125 C 6.4375 56.179688 5.980469 54.894531 5.90625 54.730469 C 5.8125 54.566406 5.59375 54.050781 5.414062 53.59375 C 5.230469 53.132812 5.027344 52.730469 4.972656 52.671875 C 4.773438 52.472656 2.234375 47.164062 2.234375 46.925781 C 2.234375 46.777344 2.398438 46.523438 2.578125 46.355469 C 2.925781 46.042969 2.925781 46.007812 2.5625 44.757812 C 2.378906 44.0625 2.085938 43.269531 1.941406 42.996094 C 1.8125 42.703125 1.683594 42.371094 1.683594 42.261719 C 1.683594 41.855469 1.429688 41.984375 0.699219 42.738281 L 0.00390625 43.453125 L 0.589844 45.089844 C 0.917969 45.972656 1.375 47.238281 1.59375 47.898438 C 1.832031 48.558594 2.234375 49.679688 2.507812 50.378906 C 3.035156 51.828125 3.894531 54.253906 4.445312 55.867188 C 4.644531 56.476562 4.882812 57.042969 4.957031 57.15625 C 5.046875 57.265625 5.210938 57.722656 5.339844 58.183594 C 5.449219 58.640625 5.667969 59.265625 5.796875 59.558594 C 6.070312 60.167969 6.800781 62.222656 7.386719 64.058594 C 7.585938 64.71875 7.804688 65.289062 7.878906 65.34375 C 7.953125 65.398438 8.152344 65.933594 8.335938 66.539062 C 8.519531 67.144531 8.738281 67.730469 8.8125 67.824219 C 8.882812 67.933594 9.085938 68.503906 9.269531 69.128906 C 9.523438 70.046875 9.816406 70.523438 10.875 71.734375 C 11.589844 72.5625 12.210938 73.242188 12.246094 73.242188 C 12.285156 73.242188 12.265625 73.019531 12.191406 72.746094 Z M 53.617188 72.835938 C 53.601562 72.765625 53.378906 72.78125 53.160156 72.855469 C 52.667969 73.058594 52.667969 73.738281 53.144531 75.023438 L 53.492188 75.902344 L 53.582031 74.433594 C 53.636719 73.625 53.65625 72.910156 53.617188 72.835938 Z M 18.679688 76.546875 C 19.0625 76.253906 19.429688 75.996094 19.484375 75.996094 C 19.539062 75.996094 20.160156 75.554688 20.871094 75.039062 C 21.566406 74.507812 22.882812 73.535156 23.777344 72.890625 C 25.238281 71.863281 25.402344 71.679688 25.257812 71.332031 C 25.167969 71.128906 24.910156 69.953125 24.710938 68.742188 C 24.398438 66.925781 24.105469 65.710938 23.886719 65.382812 C 23.851562 65.34375 23.066406 65.859375 22.132812 66.519531 C 21.183594 67.179688 19.484375 68.339844 18.367188 69.128906 C 17.234375 69.898438 16.210938 70.632812 16.101562 70.78125 C 15.957031 70.964844 15.957031 71.277344 16.121094 71.992188 C 16.25 72.523438 16.414062 73.003906 16.484375 73.058594 C 16.558594 73.113281 16.761719 73.773438 16.941406 74.527344 C 17.289062 75.996094 17.691406 77.097656 17.875 77.097656 C 17.929688 77.097656 18.296875 76.859375 18.679688 76.546875 Z M 15.753906 76.859375 C 15.753906 76.730469 15.683594 76.546875 15.589844 76.453125 C 15.519531 76.34375 15.296875 75.703125 15.132812 74.984375 C 14.953125 74.289062 14.75 73.625 14.660156 73.515625 C 14.585938 73.425781 14.347656 72.765625 14.128906 72.046875 C 13.929688 71.351562 13.378906 69.695312 12.941406 68.375 C 12.484375 67.070312 12.117188 65.878906 12.101562 65.75 C 12.101562 65.601562 11.972656 65.234375 11.828125 64.921875 C 11.679688 64.59375 11.386719 63.800781 11.207031 63.140625 C 11.003906 62.480469 10.636719 61.210938 10.363281 60.292969 C 10.089844 59.394531 9.816406 58.570312 9.742188 58.457031 C 9.652344 58.367188 9.449219 57.648438 9.269531 56.898438 C 9.085938 56.144531 8.882812 55.445312 8.8125 55.335938 C 8.738281 55.246094 8.539062 54.65625 8.355469 54.050781 C 7.953125 52.582031 7.292969 51.1875 6.324219 49.71875 C 5.886719 49.039062 5.523438 48.433594 5.523438 48.375 C 5.523438 48.304688 5.175781 47.734375 4.753906 47.109375 C 4.316406 46.484375 3.824219 45.660156 3.621094 45.273438 C 3.4375 44.886719 3.257812 44.613281 3.21875 44.648438 C 3.089844 44.777344 3.714844 46.59375 3.96875 46.871094 C 4.113281 47.019531 4.242188 47.183594 4.242188 47.257812 C 4.242188 47.328125 4.480469 47.714844 4.773438 48.136719 C 5.703125 49.515625 6.070312 50.46875 6.070312 51.554688 C 6.089844 53.242188 7.183594 57.722656 7.859375 58.917969 C 7.953125 59.0625 8.171875 59.6875 8.355469 60.292969 C 8.539062 60.902344 8.757812 61.488281 8.828125 61.582031 C 8.902344 61.691406 9.105469 62.257812 9.269531 62.867188 C 9.449219 63.472656 9.652344 64.097656 9.742188 64.242188 C 9.816406 64.390625 10.070312 65.105469 10.292969 65.804688 C 10.511719 66.519531 10.75 67.179688 10.820312 67.273438 C 10.894531 67.382812 11.09375 67.988281 11.277344 68.648438 C 11.441406 69.3125 11.644531 69.9375 11.734375 70.027344 C 11.808594 70.136719 11.972656 70.632812 12.101562 71.128906 C 12.226562 71.644531 12.449219 72.304688 12.574219 72.597656 C 12.703125 72.910156 12.941406 73.460938 13.085938 73.828125 C 13.378906 74.5625 15.316406 77.097656 15.589844 77.097656 C 15.683594 77.097656 15.753906 76.988281 15.753906 76.859375 Z M 16.960938 76.511719 C 16.796875 75.867188 16.578125 75.1875 16.484375 74.984375 C 16.320312 74.636719 16.011719 73.570312 15.171875 70.578125 C 14.988281 69.878906 14.75 69.128906 14.660156 68.925781 C 14.457031 68.523438 13.726562 66.132812 13.179688 64.058594 C 12.960938 63.304688 12.738281 62.609375 12.667969 62.5 C 12.574219 62.40625 12.375 61.691406 12.191406 60.9375 C 12.007812 60.183594 11.808594 59.488281 11.734375 59.375 C 11.660156 59.285156 11.460938 58.625 11.277344 57.90625 C 11.09375 57.210938 10.894531 56.546875 10.820312 56.4375 C 10.75 56.347656 10.636719 56.015625 10.566406 55.703125 C 10.492188 55.410156 10.183594 54.308594 9.851562 53.28125 C 9.285156 51.371094 9.105469 51.148438 8.445312 51.570312 C 8.226562 51.699219 8.226562 51.867188 8.425781 52.710938 C 8.574219 53.242188 8.738281 53.777344 8.828125 53.867188 C 8.902344 53.976562 9.105469 54.636719 9.285156 55.335938 C 9.449219 56.050781 9.652344 56.714844 9.726562 56.804688 C 9.796875 56.914062 10.054688 57.648438 10.273438 58.441406 C 10.492188 59.246094 10.75 60.039062 10.820312 60.183594 C 11.023438 60.550781 12.285156 64.574219 12.285156 64.832031 C 12.285156 64.921875 12.410156 65.269531 12.558594 65.582031 C 12.703125 65.914062 12.996094 66.703125 13.179688 67.363281 C 14.074219 70.375 14.496094 71.71875 14.660156 72.046875 C 14.75 72.25 14.96875 72.910156 15.132812 73.515625 C 15.296875 74.121094 15.5 74.710938 15.574219 74.800781 C 15.644531 74.914062 15.808594 75.445312 15.9375 75.996094 C 16.066406 76.546875 16.285156 77.28125 16.449219 77.613281 C 16.6875 78.164062 16.761719 78.199219 16.996094 77.941406 C 17.234375 77.703125 17.234375 77.539062 16.960938 76.511719 Z M 16.960938 76.511719 "
    />
    <path
      d="M 67.066406 81.320312 L 67.195312 80.734375 C 67.269531 80.402344 67.433594 79.925781 67.5625 79.667969 C 67.707031 79.410156 67.945312 78.308594 68.109375 77.1875 C 68.273438 76.085938 68.476562 75.003906 68.566406 74.800781 C 68.65625 74.601562 68.894531 73.441406 69.097656 72.230469 C 69.71875 68.449219 70.191406 66.023438 70.464844 65.070312 C 70.613281 64.574219 70.867188 63.25 71.03125 62.132812 C 71.199219 61.027344 71.363281 59.835938 71.417969 59.523438 C 71.507812 58.953125 71.453125 58.898438 70.632812 58.496094 C 70.15625 58.257812 68.621094 57.464844 67.25 56.75 C 65.878906 56.015625 64.671875 55.429688 64.582031 55.429688 C 64.398438 55.429688 64.328125 55.925781 64.070312 58.3125 C 63.980469 59.339844 63.996094 59.449219 64.34375 59.558594 C 64.5625 59.613281 64.839844 59.78125 64.949219 59.890625 C 65.074219 60.019531 65.570312 60.292969 66.0625 60.515625 C 66.539062 60.753906 66.921875 60.992188 66.921875 61.085938 C 66.921875 61.15625 66.574219 61.726562 66.136719 62.316406 C 65.695312 62.921875 65.183594 63.691406 65.003906 64.023438 C 64.800781 64.335938 64.328125 65.050781 63.941406 65.601562 C 63.511719 66.21875 63.234375 66.804688 62.992188 67.910156 C 62.75 69.015625 62.542969 70.644531 62.261719 73.332031 C 62.003906 75.554688 61.730469 77.867188 61.621094 78.476562 C 61.53125 79.082031 61.4375 79.871094 61.457031 80.21875 C 61.492188 81.265625 61.457031 81.320312 61 81.320312 C 60.5625 81.320312 60.5625 81.285156 60.652344 80.273438 C 60.691406 79.6875 60.800781 79.007812 60.890625 78.75 C 60.984375 78.492188 61.183594 76.804688 61.347656 74.984375 C 61.511719 73.167969 61.714844 71.550781 61.804688 71.386719 C 61.96875 71.054688 62.28125 67.695312 62.207031 66.90625 C 62.1875 66.613281 61.949219 66.042969 61.714844 65.675781 C 61.457031 65.289062 61.257812 64.941406 61.257812 64.886719 C 61.257812 64.847656 60.964844 64.351562 60.617188 63.800781 C 60.269531 63.25 59.976562 62.625 59.976562 62.40625 C 59.976562 62.167969 60.378906 61.746094 61.109375 61.15625 C 62.042969 60.449219 62.570312 60.023438 62.886719 59.648438 C 63.199219 59.269531 63.292969 58.945312 63.359375 58.441406 C 63.414062 57.945312 63.539062 57.191406 63.652344 56.75 C 63.738281 56.351562 63.796875 56.054688 63.765625 55.894531 C 63.734375 55.738281 63.613281 55.714844 63.332031 55.867188 C 62.773438 56.167969 61.585938 57.15625 59.246094 59.101562 C 58.992188 59.304688 58.058594 60.09375 57.144531 60.828125 C 56.25 61.582031 55.355469 62.460938 55.191406 62.792969 C 54.914062 63.324219 54.84375 64.371094 54.679688 69.476562 C 54.277344 82 54.3125 81.320312 53.835938 81.320312 C 53.601562 81.320312 53.398438 81.265625 53.398438 81.191406 C 53.378906 81.101562 53.363281 80.183594 53.324219 79.117188 C 53.269531 77.207031 52.46875 73.425781 52.121094 73.425781 C 51.902344 73.425781 51.699219 76.03125 51.808594 77.519531 C 51.84375 78.253906 52.027344 79.097656 52.175781 79.394531 C 52.339844 79.707031 52.523438 80.257812 52.578125 80.640625 L 52.703125 81.320312 C 52.921875 82.175781 65.886719 82.277344 67.066406 81.320312 Z M 36.222656 0.390625 C 36.222656 0.429688 35.820312 0.757812 35.328125 1.125 C 34.703125 1.605469 34.359375 1.949219 34.199219 2.445312 C 34.039062 2.945312 34.066406 3.597656 34.191406 4.6875 C 34.285156 5.679688 34.429688 7.351562 34.503906 8.417969 C 34.558594 9.480469 34.6875 10.601562 34.777344 10.894531 C 34.871094 11.207031 35.070312 13.339844 35.214844 15.671875 C 35.382812 18.09375 35.601562 19.984375 35.710938 20.132812 C 35.875 20.335938 36.058594 20.097656 36.570312 19.03125 C 37.082031 18.003906 37.410156 17.5625 38.050781 17.121094 C 38.78125 16.605469 38.890625 16.460938 39.015625 15.597656 C 39.109375 15.066406 39.089844 13.007812 39 10.933594 L 38.816406 7.222656 L 37.683594 5.039062 L 36.570312 2.851562 L 37.207031 2.191406 C 37.554688 1.824219 37.867188 1.457031 37.882812 1.347656 C 37.902344 1.253906 38.050781 0.980469 38.230469 0.757812 C 38.523438 0.390625 38.726562 0.335938 39.894531 0.335938 C 40.917969 0.355469 41.175781 0.390625 40.917969 0.539062 C 40.753906 0.628906 40.515625 0.667969 40.425781 0.613281 C 40.132812 0.429688 40.222656 0.941406 40.605469 1.675781 C 40.808594 2.042969 40.972656 2.484375 40.972656 2.652344 C 40.972656 2.816406 40.625 3.9375 40.222656 5.148438 C 39.472656 7.351562 39.472656 7.371094 39.585938 9.410156 C 39.859375 14.457031 39.894531 14.84375 40.222656 14.84375 C 40.679688 14.84375 40.972656 15.210938 40.972656 15.78125 C 40.972656 16.367188 41.394531 16.753906 41.886719 16.625 C 42.105469 16.570312 42.636719 16.699219 43.09375 16.902344 C 43.550781 17.101562 43.96875 17.230469 44.007812 17.175781 C 44.171875 17.03125 43.839844 15.945312 43.640625 15.945312 C 43.511719 15.945312 43.273438 15.835938 43.09375 15.707031 C 42.78125 15.46875 42.78125 15.414062 43.039062 14.898438 L 43.332031 14.328125 L 44.207031 14.769531 C 44.683594 15.007812 45.230469 15.210938 45.394531 15.210938 C 45.558594 15.210938 45.742188 15.285156 45.796875 15.375 C 46 15.707031 48.519531 16 50.035156 15.871094 C 51.5 15.761719 54.347656 14.882812 54.605469 14.457031 C 54.660156 14.347656 54.585938 14.074219 54.421875 13.851562 L 54.148438 13.410156 L 53.089844 13.851562 C 52.503906 14.089844 51.902344 14.292969 51.753906 14.292969 C 51.589844 14.292969 51.371094 14.386719 51.261719 14.496094 C 51.003906 14.753906 47.277344 14.789062 46.964844 14.53125 C 46.839844 14.421875 46.492188 14.292969 46.179688 14.21875 C 45.886719 14.164062 45.25 13.925781 44.792969 13.707031 L 43.953125 13.300781 L 43.839844 9.445312 C 43.769531 7.332031 43.714844 4.671875 43.714844 3.515625 C 43.714844 2.375 43.640625 1.4375 43.566406 1.4375 C 43.496094 1.4375 43.273438 1.179688 43.109375 0.886719 L 42.78125 0.335938 C 41.179688 -0.25 37.289062 0.0351562 36.222656 0.390625 Z M 36.222656 0.390625 "
    />
  </g>
</svg>
