<svg xmlns="http://www.w3.org/2000/svg" id="root" viewBox="0 0 99 40">
  <g>
    <path
      d="M 69.269531 30.15625 C 53.109375 24.730469 39.820312 20.25 39.757812 20.191406 C 39.59375 20.023438 40.828125 17.324219 41.074219 17.324219 C 41.339844 17.324219 61.527344 25.203125 84.695312 34.34375 C 89.210938 36.117188 94.242188 38.097656 95.886719 38.714844 C 98.71875 39.789062 99.316406 40.035156 98.863281 39.996094 C 98.761719 39.996094 85.453125 35.558594 69.269531 30.15625 Z M 34.75 30.898438 C 33.660156 30.382812 32.941406 29.226562 32.695312 27.597656 C 32.59375 26.9375 32.53125 26.398438 32.570312 26.398438 C 32.59375 26.398438 33.207031 26.667969 33.925781 27.019531 C 35.425781 27.742188 35.589844 27.761719 35.960938 27.308594 C 36.207031 27.019531 36.246094 27.019531 36.371094 27.390625 C 36.71875 28.320312 36.824219 30.339844 36.554688 30.855469 C 36.226562 31.453125 35.898438 31.453125 34.75 30.898438 Z M 59.699219 23.925781 C 50.007812 20.085938 42.019531 16.890625 41.9375 16.804688 C 41.855469 16.722656 42.265625 16.683594 42.820312 16.746094 C 43.476562 16.804688 45.078125 17.363281 47.234375 18.292969 C 49.101562 19.097656 52.328125 20.457031 54.421875 21.304688 C 75 29.679688 78.058594 30.9375 77.527344 30.917969 C 77.421875 30.917969 69.394531 27.761719 59.699219 23.925781 Z M 59.699219 23.925781 "
    />
    <path
      d="M 34.398438 26.769531 C 32.550781 26.050781 31.914062 24.996094 32.550781 23.65625 C 32.960938 22.789062 34.480469 20.871094 37.5625 17.324219 C 38.898438 15.796875 40.746094 13.589844 41.648438 12.453125 C 44.421875 8.988281 46.1875 7.625 47.914062 7.625 C 49.101562 7.625 50.828125 8.222656 50.539062 8.511719 C 50.375 8.679688 49.945312 8.636719 48.980469 8.390625 C 47.726562 8.058594 47.582031 8.039062 46.925781 8.367188 C 46.0625 8.78125 44.523438 10.410156 41.914062 13.710938 C 40.828125 15.074219 38.917969 17.425781 37.644531 18.929688 C 34.441406 22.707031 33.679688 23.757812 33.679688 24.398438 C 33.679688 24.976562 34.316406 25.535156 35.507812 26.027344 C 36.1875 26.296875 36.1875 26.316406 35.816406 26.730469 L 35.425781 27.164062 Z M 34.398438 26.769531 "
    />
    <path
      d="M 35.179688 25.160156 C 34.113281 24.6875 34.03125 24.128906 34.871094 23.035156 C 35.855469 21.757812 40.273438 16.496094 40.375 16.496094 C 40.417969 16.496094 40.109375 17.21875 39.65625 18.105469 C 38.589844 20.25 38.566406 20.417969 39.367188 20.707031 L 40.003906 20.933594 L 38.179688 23.265625 C 37.171875 24.523438 36.289062 25.574219 36.1875 25.574219 C 36.105469 25.574219 35.652344 25.390625 35.179688 25.160156 Z M 33.640625 19.242188 C 32.46875 18.726562 32.449219 18.703125 32.449219 17.859375 C 32.449219 16.25 34.152344 13.421875 35.386719 13.011719 C 36.082031 12.761719 36.945312 12.929688 38.566406 13.671875 L 39.59375 14.125 L 37.292969 16.847656 C 36.023438 18.355469 34.933594 19.632812 34.890625 19.675781 C 34.851562 19.714844 34.277344 19.507812 33.640625 19.242188 Z M 33.640625 19.242188 "
    />
    <path
      d="M 30.660156 18.765625 C 29.613281 18.539062 28.359375 17.921875 27.847656 17.34375 C 27.539062 16.992188 27.476562 16.703125 27.582031 15.773438 C 27.808594 13.648438 29.511719 11.378906 31.277344 10.90625 C 32.242188 10.660156 33.886719 10.949219 34.914062 11.566406 L 35.609375 12 L 34.871094 12.390625 C 33.226562 13.238281 31.566406 16.003906 31.542969 17.898438 C 31.542969 18.476562 31.542969 18.972656 31.523438 18.953125 C 31.523438 18.929688 31.132812 18.847656 30.660156 18.765625 Z M 30.660156 18.765625 "
    />
    <path
      d="M 25.773438 16.910156 C 24.726562 16.640625 24.128906 16.351562 23.453125 15.773438 C 22.898438 15.300781 22.796875 15.074219 22.796875 14.308594 C 22.796875 12.472656 24.765625 9.6875 26.347656 9.253906 C 27.335938 8.988281 28.710938 9.152344 29.941406 9.6875 C 30.824219 10.082031 31.09375 10.515625 30.457031 10.515625 C 30.25 10.515625 29.695312 10.886719 29.222656 11.339844 C 28.175781 12.328125 26.820312 15.199219 26.839844 16.351562 C 26.839844 17.15625 26.800781 17.179688 25.773438 16.910156 Z M 40.664062 16.167969 C 40.664062 16.125 41.382812 15.21875 42.265625 14.164062 C 43.128906 13.113281 44.378906 11.585938 45.039062 10.761719 C 46.722656 8.65625 47.5625 8.308594 49.289062 8.988281 C 49.738281 9.171875 50.316406 9.277344 50.5625 9.214844 C 50.992188 9.089844 50.992188 9.132812 50.847656 10.96875 C 50.789062 12 50.683594 12.90625 50.625 12.949219 C 50.5625 13.011719 49.988281 12.886719 49.308594 12.679688 C 48.609375 12.472656 47.871094 12.371094 47.5625 12.453125 C 46.699219 12.660156 45.058594 14.351562 43.824219 16.25 C 43.804688 16.289062 43.457031 16.144531 43.066406 15.960938 C 42.386719 15.628906 42.265625 15.628906 41.484375 15.941406 C 41.03125 16.105469 40.664062 16.230469 40.664062 16.167969 Z M 40.664062 16.167969 "
    />
    <path
      d="M 20.414062 14.929688 C 19.960938 14.765625 19.261719 14.371094 18.875 14.042969 C 18.257812 13.503906 18.175781 13.339844 18.195312 12.453125 C 18.214844 11.195312 18.832031 9.9375 20.023438 8.761719 C 21.070312 7.707031 22.199219 7.316406 23.597656 7.523438 C 24.398438 7.644531 26.082031 8.328125 26.082031 8.535156 C 26.082031 8.574219 25.671875 8.863281 25.15625 9.171875 C 24.664062 9.503906 23.988281 10.144531 23.660156 10.597656 C 22.816406 11.792969 21.933594 14.125 22.097656 14.742188 C 22.199219 15.175781 22.160156 15.257812 21.75 15.238281 C 21.480469 15.238281 20.886719 15.09375 20.414062 14.929688 Z M 20.414062 14.929688 "
    />
    <path
      d="M 16.164062 13.320312 C 13.964844 12.722656 13.226562 10.96875 14.253906 8.738281 C 15.21875 6.65625 17.332031 5.5 19.386719 5.976562 C 21.050781 6.347656 22.304688 7.214844 21.171875 7.214844 C 20.96875 7.214844 20.332031 7.625 19.777344 8.121094 C 18.542969 9.253906 17.601562 11.175781 17.578125 12.617188 C 17.558594 13.710938 17.578125 13.691406 16.164062 13.320312 Z M 16.164062 13.320312 "
    />
    <path
      d="M 11.089844 11.296875 C 8.851562 10.144531 8.75 8.058594 10.84375 5.726562 C 11.789062 4.675781 12.589844 4.324219 14.109375 4.324219 C 14.972656 4.324219 15.609375 4.46875 16.429688 4.882812 C 17.519531 5.417969 17.539062 5.4375 16.941406 5.523438 C 15.363281 5.726562 13.0625 8.824219 13.0625 10.761719 C 13.0625 11.691406 13.039062 11.753906 12.527344 11.753906 C 12.238281 11.753906 11.582031 11.546875 11.089844 11.296875 Z M 11.089844 11.296875 "
    />
    <path
      d="M 7.085938 9.089844 C 5.648438 8.574219 4.476562 7.957031 4.046875 7.460938 C 3.71875 7.109375 3.695312 6.945312 3.921875 6.078125 C 4.230469 4.882812 5.460938 3.273438 6.46875 2.796875 C 7.394531 2.34375 8.113281 2.449219 10.269531 3.335938 C 11.109375 3.683594 11.828125 3.996094 11.871094 4.015625 C 11.910156 4.058594 11.417969 4.574219 10.78125 5.171875 C 9.488281 6.410156 8.953125 7.296875 8.726562 8.617188 C 8.5625 9.585938 8.523438 9.605469 7.085938 9.089844 Z M 7.085938 9.089844 "
    />
    <path
      d="M 1.703125 8.039062 C 0.453125 7.480469 0 6.636719 0 4.839844 C 0 3.890625 0.144531 3.109375 0.390625 2.570312 C 0.78125 1.683594 1.992188 0.507812 2.8125 0.179688 C 4.066406 -0.296875 6.058594 0.21875 6.777344 1.230469 L 7.1875 1.808594 L 6.285156 2.34375 C 3.882812 3.746094 2.484375 6.863281 3.738281 8.039062 L 4.191406 8.449219 L 3.367188 8.449219 C 2.9375 8.449219 2.175781 8.265625 1.703125 8.039062 Z M 1.703125 8.039062 "
    />
  </g>
</svg>
