<svg xmlns="http://www.w3.org/2000/svg" id="root" viewBox="0 0 100 50">
  <g>
    <path
      style="stroke: none; fill-rule: nonzero; fill: rgb(93.333333%, 93.333333%, 74.901961%); fill-opacity: 1"
      d="M 30.488281 49.898438 C 30.453125 49.839844 30.394531 49.71875 30.363281 49.621094 C 30.332031 49.527344 30.285156 49.441406 30.265625 49.433594 C 30.222656 49.414062 29.738281 48.738281 29.105469 47.820312 L 28.730469 47.273438 L 28.167969 47.015625 C 27.84375 46.867188 27.558594 46.71875 27.492188 46.660156 C 27.117188 46.34375 26.152344 45.464844 26.09375 45.386719 C 25.980469 45.238281 25.914062 45.035156 25.914062 44.832031 C 25.914062 44.675781 26.078125 42.917969 26.121094 42.625 C 26.128906 42.542969 26.125 42.523438 26.09375 42.523438 C 26.039062 42.523438 26.039062 42.421875 26.09375 41.992188 C 26.121094 41.738281 26.144531 41.644531 26.207031 41.527344 C 26.25 41.453125 26.699219 40.820312 27.199219 40.125 C 28.082031 38.921875 28.136719 38.835938 28.511719 38.152344 C 28.726562 37.761719 28.996094 37.226562 29.113281 36.960938 C 29.292969 36.550781 29.328125 36.484375 29.386719 36.476562 C 29.441406 36.464844 29.476562 36.402344 29.640625 36.050781 C 30.628906 33.875 31.527344 32.390625 33.28125 30.035156 C 34.621094 28.234375 35.175781 27.558594 36.019531 26.679688 L 36.417969 26.265625 L 36.464844 25.9375 C 36.492188 25.726562 36.53125 25.566406 36.574219 25.480469 C 36.628906 25.371094 36.628906 25.351562 36.59375 25.359375 C 36.570312 25.367188 36.285156 25.445312 35.960938 25.53125 L 35.367188 25.6875 L 35.359375 25.882812 C 35.339844 26.136719 35.273438 26.285156 35.042969 26.542969 C 34.875 26.738281 34.851562 26.777344 34.824219 26.933594 C 34.734375 27.421875 34.371094 27.800781 33.859375 27.925781 C 33.757812 27.953125 33.542969 27.964844 33.152344 27.960938 C 32.679688 27.960938 32.550781 27.953125 32.34375 27.90625 C 31.835938 27.789062 31.234375 27.515625 30.683594 27.160156 L 30.433594 27 L 28.179688 27.597656 C 26.941406 27.925781 25.859375 28.210938 25.777344 28.226562 C 25.5625 28.265625 25.347656 28.21875 25.027344 28.058594 C 24.695312 27.894531 24.441406 27.710938 24.140625 27.402344 C 22.851562 26.109375 21.851562 23.289062 21.582031 20.214844 C 21.527344 19.527344 21.527344 18.332031 21.585938 17.777344 C 21.738281 16.371094 22.175781 15.265625 22.683594 15.03125 C 22.753906 14.996094 23.238281 14.859375 23.757812 14.726562 C 24.554688 14.519531 24.699219 14.476562 24.695312 14.4375 C 24.695312 14.410156 24.703125 14.234375 24.714844 14.042969 C 24.808594 12.601562 25.496094 11.601562 26.828125 10.957031 C 27.238281 10.761719 27.644531 10.609375 28.542969 10.332031 C 29.332031 10.082031 29.53125 10.007812 30.832031 9.476562 C 32.390625 8.839844 33.511719 8.453125 34.34375 8.257812 L 34.480469 8.230469 L 34.515625 8.003906 C 34.542969 7.792969 34.710938 7.261719 34.84375 6.957031 L 34.90625 6.820312 L 34.8125 6.667969 C 34.757812 6.589844 34.695312 6.46875 34.671875 6.40625 C 34.605469 6.234375 34.542969 5.84375 34.527344 5.453125 C 34.5 4.914062 34.574219 4.546875 34.765625 4.269531 L 34.855469 4.136719 L 34.859375 3.644531 C 34.863281 3.023438 34.921875 2.796875 35.164062 2.53125 C 35.363281 2.3125 35.6875 2.152344 35.941406 2.152344 C 36.011719 2.152344 36.085938 2.121094 36.183594 2.054688 C 36.265625 2.003906 36.394531 1.945312 36.472656 1.929688 C 36.605469 1.898438 36.644531 1.871094 36.796875 1.707031 C 36.9375 1.558594 36.972656 1.496094 36.988281 1.402344 C 37.058594 0.917969 37.21875 0.640625 37.542969 0.441406 C 37.84375 0.257812 38.128906 0.230469 38.542969 0.335938 C 38.726562 0.382812 38.925781 0.367188 38.996094 0.304688 C 39.019531 0.28125 39.152344 0.210938 39.296875 0.144531 C 39.554688 0.0234375 39.558594 0.0195312 39.9375 0.00390625 C 40.539062 -0.0195312 40.796875 0.0585938 41.125 0.363281 C 41.285156 0.507812 41.304688 0.519531 41.449219 0.53125 C 41.582031 0.542969 41.636719 0.527344 41.824219 0.449219 C 42.109375 0.324219 42.242188 0.296875 42.679688 0.277344 C 43.253906 0.25 43.542969 0.332031 43.800781 0.589844 C 43.886719 0.671875 43.96875 0.765625 43.988281 0.796875 C 44.015625 0.847656 44.015625 0.847656 44.070312 0.800781 C 44.164062 0.714844 44.390625 0.644531 44.578125 0.644531 C 44.867188 0.644531 44.984375 0.699219 45.242188 0.957031 C 45.445312 1.15625 45.476562 1.199219 45.523438 1.359375 C 45.570312 1.515625 45.578125 1.601562 45.570312 2 L 45.5625 2.457031 L 45.699219 2.597656 C 45.929688 2.84375 46.039062 3.128906 46.039062 3.507812 L 46.039062 3.730469 L 46.132812 3.761719 C 46.285156 3.820312 46.492188 4.023438 46.582031 4.214844 C 46.691406 4.4375 46.714844 4.640625 46.65625 4.863281 C 46.582031 5.160156 46.511719 5.238281 46.15625 5.429688 C 45.863281 5.59375 45.835938 5.601562 45.664062 5.601562 C 45.5625 5.601562 45.371094 5.582031 45.234375 5.5625 C 44.871094 5.5 44.878906 5.5 44.800781 5.648438 L 44.734375 5.78125 L 44.867188 5.925781 C 45.019531 6.089844 45.148438 6.339844 45.191406 6.554688 C 45.207031 6.636719 45.222656 6.851562 45.222656 7.039062 L 45.222656 7.371094 L 45.53125 7.371094 C 45.785156 7.371094 45.855469 7.378906 45.960938 7.425781 C 46.03125 7.460938 46.382812 7.703125 46.746094 7.96875 L 47.410156 8.453125 L 48.796875 8.453125 C 50.140625 8.453125 50.195312 8.449219 50.332031 8.394531 C 50.535156 8.3125 50.957031 8.21875 51.40625 8.152344 C 51.984375 8.066406 52.046875 8.050781 52.664062 7.847656 C 52.980469 7.746094 53.578125 7.554688 54 7.425781 C 55.160156 7.066406 55.808594 6.847656 56.324219 6.640625 C 57.144531 6.308594 57.246094 6.308594 58.363281 6.546875 C 59.195312 6.722656 59.574219 6.789062 60.214844 6.863281 C 60.75 6.925781 61.140625 7.011719 61.457031 7.136719 C 62.164062 7.417969 63.101562 8.058594 65.085938 9.617188 C 66.042969 10.367188 66.621094 10.804688 67.164062 11.191406 C 67.746094 11.609375 68.152344 11.953125 68.597656 12.410156 C 69.875 13.730469 70.601562 15.164062 70.757812 16.660156 C 70.804688 17.128906 70.777344 18.023438 70.703125 18.285156 C 70.550781 18.851562 70.222656 19.210938 69.648438 19.429688 C 69.4375 19.511719 69.367188 19.527344 69.167969 19.527344 C 68.976562 19.53125 68.914062 19.515625 68.789062 19.457031 C 68.609375 19.375 68.480469 19.269531 68.371094 19.121094 C 68.328125 19.0625 68.226562 18.953125 68.144531 18.882812 C 67.9375 18.707031 67.808594 18.496094 67.734375 18.183594 C 67.71875 18.113281 67.679688 18.148438 67.632812 18.28125 C 67.566406 18.464844 67.347656 18.699219 67.15625 18.796875 C 67 18.871094 66.992188 18.871094 66.492188 18.871094 C 65.992188 18.871094 65.988281 18.871094 65.84375 18.796875 C 65.640625 18.6875 65.476562 18.53125 65.394531 18.359375 C 65.347656 18.265625 65.1875 17.613281 64.921875 16.488281 C 64.703125 15.542969 64.519531 14.761719 64.515625 14.757812 C 64.515625 14.757812 63.488281 14.332031 62.234375 13.816406 L 59.957031 12.882812 L 59.398438 13.15625 C 58.785156 13.457031 58.675781 13.488281 58.417969 13.433594 C 58.203125 13.390625 58.070312 13.316406 57.890625 13.144531 L 57.734375 12.996094 L 57.191406 13.121094 L 56.652344 13.246094 L 55.367188 14.214844 C 54.097656 15.167969 54.074219 15.1875 53.203125 16.007812 C 52.671875 16.507812 52.320312 16.855469 52.320312 16.882812 C 52.320312 16.996094 52.210938 18.210938 52.195312 18.277344 C 52.15625 18.433594 52.046875 18.597656 51.476562 19.339844 L 50.886719 20.105469 L 50.894531 20.242188 C 50.902344 20.320312 50.914062 20.386719 50.925781 20.398438 C 50.9375 20.410156 51.148438 20.332031 51.394531 20.226562 C 51.800781 20.046875 51.863281 20.027344 52.0625 20.015625 C 52.273438 20.003906 52.308594 20.011719 53.070312 20.242188 C 53.507812 20.375 53.898438 20.5 53.941406 20.519531 C 54.074219 20.589844 54.289062 20.808594 54.359375 20.941406 C 54.394531 21.015625 54.433594 21.136719 54.445312 21.21875 C 54.472656 21.402344 54.410156 22.320312 54.355469 22.519531 C 54.300781 22.707031 54.164062 22.902344 54.007812 23.023438 L 53.878906 23.117188 L 53.878906 23.535156 L 54.011719 23.617188 C 54.261719 23.785156 54.414062 24.058594 54.4375 24.40625 C 54.449219 24.597656 54.640625 29.046875 54.640625 29.1875 C 54.640625 29.234375 54.664062 29.238281 55.03125 29.238281 C 56.074219 29.238281 57.101562 29.125 59.214844 28.769531 C 61.214844 28.4375 61.660156 28.382812 62.792969 28.335938 C 63.894531 28.292969 64.558594 28.210938 65.742188 27.980469 C 66.121094 27.90625 66.480469 27.832031 66.546875 27.816406 C 66.875 27.746094 67.789062 27.589844 68.242188 27.53125 C 69.078125 27.417969 69.496094 27.390625 70.359375 27.390625 C 71.292969 27.390625 71.316406 27.394531 73.074219 27.664062 C 74.398438 27.871094 74.855469 27.933594 75.492188 27.992188 C 76.117188 28.054688 77.074219 28.054688 77.527344 27.996094 C 78.472656 27.871094 79.195312 27.53125 79.628906 27.015625 L 79.777344 26.835938 L 79.914062 26.917969 C 80.203125 27.089844 80.929688 27.429688 81.246094 27.550781 C 82.265625 27.925781 83.152344 28.054688 84.59375 28.027344 C 85.65625 28.007812 86.101562 27.945312 86.835938 27.695312 C 87.324219 27.535156 87.945312 27.21875 88.484375 26.851562 C 89.117188 26.425781 89.101562 26.433594 89.363281 26.433594 C 89.671875 26.4375 89.972656 26.546875 90.6875 26.917969 C 91.382812 27.277344 91.683594 27.429688 91.890625 27.507812 C 92.304688 27.667969 92.746094 27.71875 93.609375 27.695312 C 94.5 27.671875 94.960938 27.625 97.171875 27.332031 C 97.910156 27.238281 98.742188 27.132812 99.015625 27.101562 C 99.296875 27.074219 99.589844 27.03125 99.671875 27.007812 C 99.753906 26.984375 99.859375 26.964844 99.910156 26.964844 L 100 26.964844 L 100 31.460938 L 99.898438 31.445312 C 99.839844 31.433594 99.773438 31.421875 99.75 31.414062 C 99.722656 31.40625 99.699219 31.417969 99.691406 31.449219 C 99.679688 31.488281 99.679688 31.492188 99.675781 31.453125 C 99.671875 31.417969 99.613281 31.40625 99.367188 31.378906 C 99.195312 31.363281 98.664062 31.285156 98.183594 31.210938 C 97.003906 31.027344 96.554688 30.972656 95.945312 30.933594 C 95.332031 30.898438 94.921875 30.914062 94.105469 31.007812 C 93.378906 31.09375 92.558594 31.125 92.210938 31.074219 C 91.699219 31.003906 91.074219 30.765625 90.15625 30.292969 C 89.449219 29.933594 89.179688 29.824219 88.742188 29.726562 C 88.496094 29.671875 88.378906 29.667969 87.765625 29.664062 C 86.972656 29.664062 86.882812 29.675781 85.445312 29.949219 C 84.144531 30.203125 83.777344 30.261719 83.164062 30.304688 C 82.960938 30.320312 81.066406 30.335938 78.753906 30.335938 C 74.789062 30.335938 74.679688 30.335938 73.894531 30.277344 C 72.941406 30.203125 71.523438 30.1875 71.203125 30.246094 C 70.800781 30.320312 70.679688 30.378906 70.46875 30.597656 C 70.238281 30.835938 70.117188 30.894531 69.796875 30.933594 C 69.59375 30.960938 68.941406 30.949219 68.847656 30.921875 C 68.796875 30.902344 68.84375 30.832031 69.0625 30.585938 C 69.289062 30.335938 69.414062 30.132812 69.414062 30.015625 C 69.414062 29.914062 69.308594 29.804688 69.144531 29.746094 C 68.84375 29.640625 68.761719 29.640625 63.488281 29.800781 L 58.453125 29.953125 L 58.164062 30.046875 C 57.523438 30.253906 57.042969 30.335938 56.382812 30.335938 C 55.867188 30.335938 55.550781 30.304688 55.054688 30.207031 C 54.867188 30.171875 54.707031 30.152344 54.699219 30.15625 C 54.695312 30.164062 54.710938 30.710938 54.738281 31.371094 C 54.777344 32.347656 54.777344 32.597656 54.75 32.714844 C 54.730469 32.796875 54.625 33.015625 54.488281 33.242188 C 54.359375 33.457031 54.261719 33.652344 54.269531 33.675781 C 54.277344 33.699219 54.394531 33.992188 54.53125 34.328125 C 54.820312 35.035156 54.988281 35.507812 55.132812 36.046875 C 55.21875 36.363281 55.246094 36.429688 55.285156 36.429688 C 55.332031 36.429688 55.359375 36.515625 55.484375 37.03125 L 55.628906 37.632812 L 55.753906 37.683594 C 55.953125 37.769531 56.144531 37.980469 56.265625 38.25 C 56.320312 38.378906 56.441406 38.65625 56.535156 38.863281 L 56.703125 39.246094 L 57.03125 39.308594 C 57.394531 39.371094 57.5 39.410156 57.664062 39.53125 C 57.835938 39.65625 57.917969 39.800781 58.117188 40.316406 C 58.308594 40.789062 58.328125 40.878906 58.261719 40.878906 C 58.234375 40.878906 58.273438 41.003906 58.390625 41.296875 C 58.546875 41.691406 58.558594 41.726562 58.558594 41.945312 C 58.5625 42.074219 58.550781 42.21875 58.539062 42.265625 C 58.515625 42.347656 58.519531 42.351562 58.703125 42.441406 C 59.242188 42.707031 59.859375 43.207031 60.757812 44.109375 C 62.03125 45.386719 62.800781 46.402344 63.054688 47.128906 C 63.117188 47.300781 63.160156 47.378906 63.277344 47.5 C 63.359375 47.585938 63.453125 47.703125 63.488281 47.753906 C 63.527344 47.804688 63.605469 47.90625 63.667969 47.976562 C 63.804688 48.128906 64.265625 48.867188 64.417969 49.167969 C 64.476562 49.289062 64.578125 49.507812 64.636719 49.65625 C 64.699219 49.808594 64.753906 49.945312 64.765625 49.964844 C 64.777344 49.992188 64.636719 50 64.113281 50 L 63.445312 50 L 63.386719 49.816406 C 63.351562 49.710938 63.261719 49.5 63.179688 49.34375 C 62.734375 48.46875 62.691406 48.398438 62.363281 48.011719 C 62.164062 47.785156 62.117188 47.710938 62.066406 47.550781 C 61.890625 47.003906 61.117188 46.003906 60.007812 44.890625 C 59.015625 43.894531 58.527344 43.523438 57.84375 43.238281 C 57.789062 43.214844 57.726562 43.15625 57.683594 43.082031 C 57.558594 42.863281 57.292969 42.25 57.292969 42.171875 C 57.292969 42.121094 57.320312 42.074219 57.390625 42.015625 L 57.484375 41.933594 L 57.210938 41.222656 C 57.054688 40.828125 56.914062 40.496094 56.894531 40.480469 C 56.875 40.460938 56.617188 40.410156 56.324219 40.359375 C 56.03125 40.308594 55.777344 40.261719 55.761719 40.25 C 55.746094 40.242188 55.71875 40.140625 55.695312 40.027344 C 55.671875 39.886719 55.585938 39.652344 55.421875 39.277344 L 55.183594 38.726562 L 54.914062 38.625 C 54.652344 38.523438 54.640625 38.519531 54.617188 38.417969 C 54.601562 38.363281 54.539062 38.101562 54.476562 37.839844 C 54.109375 36.261719 53.960938 35.769531 53.445312 34.507812 C 53.246094 34.023438 53.085938 33.59375 53.085938 33.550781 C 53.085938 33.507812 53.207031 33.273438 53.40625 32.945312 L 53.726562 32.40625 L 53.570312 28.625 C 53.480469 26.546875 53.40625 24.769531 53.398438 24.675781 L 53.378906 24.511719 L 53.117188 24.511719 L 52.855469 24.515625 L 52.824219 23.363281 C 52.804688 22.730469 52.792969 22.210938 52.796875 22.207031 C 52.800781 22.203125 52.925781 22.191406 53.078125 22.183594 L 53.351562 22.164062 L 53.378906 21.820312 C 53.390625 21.628906 53.402344 21.472656 53.398438 21.464844 C 53.398438 21.464844 53.109375 21.375 52.761719 21.273438 L 52.132812 21.078125 L 51.59375 21.3125 C 51.292969 21.441406 51.046875 21.550781 51.039062 21.554688 C 51.023438 21.574219 51.125 22.144531 51.148438 22.160156 C 51.15625 22.164062 51.289062 22.191406 51.441406 22.21875 C 51.652344 22.253906 51.71875 22.277344 51.71875 22.308594 C 51.71875 22.332031 51.738281 22.746094 51.761719 23.226562 C 51.78125 23.710938 51.800781 24.210938 51.800781 24.34375 L 51.800781 24.582031 L 51.222656 24.582031 L 51.238281 24.878906 C 51.25 25.039062 51.265625 25.257812 51.273438 25.367188 L 51.285156 25.5625 L 50.992188 25.617188 C 50.832031 25.652344 50.671875 25.679688 50.640625 25.679688 C 50.59375 25.679688 50.53125 25.566406 50.253906 24.988281 L 49.925781 24.296875 L 49.90625 23.953125 C 49.894531 23.765625 49.882812 23.535156 49.871094 23.445312 L 49.859375 23.277344 L 49.636719 23.242188 C 49.515625 23.226562 49.40625 23.207031 49.398438 23.191406 C 49.371094 23.167969 49.300781 22.753906 49.320312 22.738281 C 49.332031 22.730469 49.988281 22.1875 50.03125 22.148438 C 50.042969 22.140625 49.992188 21.613281 49.914062 20.980469 C 49.839844 20.347656 49.785156 19.8125 49.789062 19.789062 C 49.796875 19.761719 50.113281 19.339844 50.488281 18.847656 L 51.175781 17.953125 L 51.246094 17.125 L 51.3125 16.296875 L 51.429688 16.183594 C 51.492188 16.121094 51.957031 15.683594 52.457031 15.214844 C 53.371094 14.363281 53.375 14.355469 54.726562 13.339844 C 55.46875 12.777344 56.109375 12.304688 56.144531 12.285156 C 56.230469 12.238281 57.925781 11.847656 58.035156 11.847656 C 58.109375 11.847656 58.164062 11.886719 58.371094 12.097656 L 58.621094 12.347656 L 59.222656 12.042969 C 59.625 11.84375 59.859375 11.738281 59.917969 11.738281 C 59.972656 11.738281 61.054688 12.167969 62.710938 12.847656 C 64.195312 13.457031 65.417969 13.960938 65.421875 13.96875 C 65.429688 13.976562 65.898438 15.949219 66.261719 17.523438 L 66.335938 17.84375 L 66.648438 17.84375 L 66.738281 17.582031 C 66.835938 17.292969 66.835938 17.203125 66.75 16.710938 C 66.730469 16.589844 66.703125 16.371094 66.691406 16.222656 L 66.675781 15.957031 L 66.773438 15.957031 C 66.835938 15.957031 67.191406 16.074219 67.652344 16.25 L 68.433594 16.539062 L 68.433594 16.636719 C 68.429688 16.691406 68.414062 16.816406 68.390625 16.914062 C 68.34375 17.140625 68.34375 17.195312 68.390625 17.257812 C 68.425781 17.308594 68.433594 17.308594 68.574219 17.261719 C 68.65625 17.238281 68.769531 17.214844 68.824219 17.214844 C 68.914062 17.214844 68.925781 17.222656 68.925781 17.292969 C 68.925781 17.335938 68.886719 17.480469 68.839844 17.613281 C 68.714844 17.972656 68.765625 18.136719 68.976562 18.046875 C 69.023438 18.027344 69.109375 18.011719 69.160156 18.011719 L 69.25 18.011719 L 69.25 18.21875 C 69.25 18.417969 69.253906 18.421875 69.316406 18.40625 C 69.421875 18.375 69.566406 18.242188 69.628906 18.109375 C 69.722656 17.929688 69.75 17.511719 69.714844 16.984375 C 69.667969 16.277344 69.515625 15.734375 69.179688 15.050781 C 68.824219 14.332031 68.398438 13.757812 67.734375 13.089844 C 67.273438 12.621094 67.101562 12.480469 66.464844 12.027344 C 65.859375 11.589844 65.515625 11.328125 64.5 10.53125 C 62.222656 8.746094 61.394531 8.199219 60.730469 8.03125 C 60.585938 7.992188 60.214844 7.929688 59.898438 7.890625 C 59.261719 7.816406 58.832031 7.742188 57.992188 7.5625 C 57.679688 7.492188 57.382812 7.4375 57.328125 7.4375 C 57.273438 7.4375 57.019531 7.523438 56.722656 7.640625 C 56.15625 7.863281 55.5625 8.066406 54.191406 8.488281 C 53.679688 8.648438 53.117188 8.828125 52.9375 8.890625 C 52.472656 9.046875 52.265625 9.097656 51.742188 9.175781 C 51.179688 9.257812 50.875 9.332031 50.648438 9.429688 L 50.476562 9.503906 L 48.757812 9.515625 L 47.035156 9.523438 L 46.367188 9.035156 C 46 8.765625 45.660156 8.519531 45.613281 8.488281 L 45.53125 8.425781 L 44.835938 8.546875 C 44.453125 8.617188 44.117188 8.671875 44.082031 8.671875 C 44.03125 8.671875 44.019531 8.65625 44.019531 8.578125 C 44.019531 8.523438 44.042969 8.378906 44.074219 8.253906 C 44.171875 7.832031 44.21875 7.027344 44.15625 6.8125 C 44.140625 6.757812 44.054688 6.640625 43.957031 6.535156 C 43.859375 6.4375 43.761719 6.316406 43.738281 6.269531 C 43.664062 6.128906 43.554688 5.714844 43.554688 5.585938 C 43.554688 5.480469 43.566406 5.460938 43.625 5.4375 C 43.699219 5.410156 43.804688 5.257812 43.902344 5.035156 C 43.953125 4.914062 43.964844 4.84375 43.964844 4.617188 L 43.964844 4.34375 L 44.164062 4.34375 C 44.269531 4.34375 44.484375 4.363281 44.632812 4.382812 C 45.164062 4.464844 45.15625 4.464844 45.121094 4.421875 C 45.0625 4.347656 45.023438 4.136719 45.003906 3.777344 C 44.980469 3.363281 44.960938 3.320312 44.773438 3.273438 C 44.710938 3.257812 44.53125 3.191406 44.375 3.125 C 44.214844 3.058594 44.03125 2.988281 43.960938 2.972656 C 43.835938 2.9375 43.828125 2.929688 43.828125 2.847656 C 43.828125 2.777344 43.839844 2.757812 43.890625 2.75 C 43.941406 2.742188 43.953125 2.722656 43.960938 2.636719 C 43.96875 2.554688 43.984375 2.527344 44.054688 2.492188 C 44.105469 2.46875 44.183594 2.410156 44.234375 2.367188 C 44.285156 2.320312 44.351562 2.289062 44.398438 2.289062 C 44.5 2.289062 44.539062 2.242188 44.539062 2.113281 C 44.539062 2.011719 44.535156 2.007812 44.488281 2.054688 C 44.402344 2.128906 44.160156 2.148438 43.398438 2.136719 C 42.746094 2.125 42.308594 2.089844 42.199219 2.050781 C 42.15625 2.035156 42.144531 1.851562 42.191406 1.851562 C 42.207031 1.851562 42.21875 1.835938 42.21875 1.816406 C 42.21875 1.742188 42.316406 1.6875 42.429688 1.6875 C 42.523438 1.6875 42.542969 1.679688 42.550781 1.625 C 42.554688 1.585938 42.589844 1.558594 42.640625 1.542969 C 42.6875 1.523438 42.785156 1.472656 42.859375 1.421875 L 42.996094 1.328125 L 42.707031 1.335938 C 42.472656 1.339844 42.40625 1.355469 42.34375 1.398438 C 42.21875 1.488281 42.21875 1.488281 41.9375 1.550781 C 41.574219 1.632812 41.21875 1.613281 40.867188 1.496094 C 40.640625 1.417969 40.605469 1.398438 40.453125 1.234375 L 40.289062 1.054688 L 40.039062 1.054688 C 39.792969 1.054688 39.785156 1.058594 39.660156 1.15625 C 39.40625 1.347656 39.171875 1.414062 38.726562 1.414062 C 38.554688 1.414062 38.371094 1.394531 38.285156 1.371094 C 38.140625 1.332031 38.132812 1.332031 38.085938 1.386719 C 38.0625 1.421875 38.039062 1.492188 38.039062 1.550781 C 38.039062 1.894531 37.898438 2.140625 37.4375 2.59375 L 37.109375 2.917969 L 36.957031 2.925781 C 36.746094 2.933594 36.722656 2.980469 36.808594 3.171875 C 36.847656 3.25 36.875 3.367188 36.875 3.425781 C 36.878906 3.519531 36.867188 3.539062 36.796875 3.574219 C 36.753906 3.59375 36.640625 3.621094 36.550781 3.625 L 36.386719 3.636719 L 36.292969 3.503906 C 36.246094 3.429688 36.15625 3.335938 36.101562 3.296875 C 35.929688 3.171875 35.921875 3.203125 35.921875 3.933594 C 35.921875 4.621094 35.925781 4.605469 35.71875 4.8125 C 35.660156 4.867188 35.609375 4.949219 35.601562 5 C 35.550781 5.242188 35.601562 5.863281 35.683594 6.023438 C 35.703125 6.066406 35.789062 6.171875 35.867188 6.261719 C 36.039062 6.449219 36.058594 6.492188 36.039062 6.761719 C 36.03125 6.929688 36.007812 7.007812 35.863281 7.328125 C 35.683594 7.726562 35.554688 8.105469 35.554688 8.230469 C 35.554688 8.324219 35.609375 8.460938 35.75 8.707031 C 35.8125 8.820312 35.855469 8.929688 35.855469 8.984375 C 35.855469 9.089844 35.859375 9.089844 35.511719 9.121094 C 35.25 9.148438 34.703125 9.265625 34.230469 9.394531 C 33.378906 9.632812 32.4375 9.976562 30.777344 10.660156 C 30.320312 10.851562 29.695312 11.085938 29.398438 11.183594 C 27.671875 11.738281 27.511719 11.796875 27.078125 12.042969 C 26.410156 12.425781 26.027344 12.914062 25.839844 13.613281 C 25.765625 13.894531 25.757812 14.105469 25.785156 15.105469 L 25.792969 15.308594 L 24.496094 15.644531 L 23.199219 15.976562 L 23.125 16.09375 C 22.753906 16.738281 22.554688 17.910156 22.589844 19.269531 C 22.679688 22.4375 23.796875 25.773438 25.128906 26.839844 C 25.242188 26.929688 25.402344 27.042969 25.484375 27.085938 L 25.632812 27.164062 L 28.074219 26.519531 C 29.417969 26.160156 30.566406 25.871094 30.628906 25.871094 C 30.722656 25.871094 30.773438 25.894531 30.921875 26.011719 C 31.355469 26.339844 31.914062 26.640625 32.386719 26.808594 C 32.640625 26.894531 32.652344 26.898438 33.128906 26.898438 C 33.578125 26.898438 33.617188 26.894531 33.6875 26.839844 C 33.769531 26.777344 33.773438 26.746094 33.734375 26.492188 L 33.714844 26.359375 L 34.121094 25.945312 L 33.882812 25.964844 C 33.664062 25.984375 33.644531 25.984375 33.617188 25.929688 C 33.550781 25.804688 33.582031 25.652344 33.726562 25.40625 C 33.816406 25.246094 33.859375 25.132812 33.859375 25.074219 L 33.859375 24.980469 L 35.847656 24.453125 C 36.941406 24.160156 37.878906 23.925781 37.929688 23.925781 L 38.027344 23.925781 L 38.265625 24.40625 C 38.464844 24.808594 38.503906 24.90625 38.503906 25.015625 C 38.503906 25.085938 38.484375 25.171875 38.460938 25.203125 C 38.441406 25.234375 38.222656 25.421875 37.972656 25.621094 L 37.527344 25.980469 L 37.5 26.175781 C 37.480469 26.285156 37.460938 26.460938 37.449219 26.566406 C 37.425781 26.785156 37.46875 26.734375 36.566406 27.683594 C 36.046875 28.230469 35.792969 28.535156 35.140625 29.375 C 32.53125 32.746094 31.46875 34.484375 30.164062 37.515625 C 30.050781 37.785156 29.769531 38.339844 29.53125 38.773438 C 29.113281 39.535156 29.082031 39.578125 28.195312 40.796875 C 27.695312 41.484375 27.273438 42.070312 27.253906 42.097656 C 27.230469 42.144531 26.980469 44.488281 26.980469 44.691406 C 26.980469 44.742188 27.109375 44.875 27.589844 45.300781 L 28.203125 45.84375 L 28.832031 46.136719 L 29.46875 46.429688 L 29.8125 46.933594 C 30 47.210938 30.339844 47.699219 30.566406 48.019531 C 30.792969 48.339844 31.058594 48.714844 31.148438 48.855469 C 31.238281 48.992188 31.371094 49.179688 31.433594 49.269531 C 31.5 49.359375 31.628906 49.535156 31.726562 49.664062 C 31.988281 50.019531 32.019531 50 31.226562 50 L 30.558594 50 Z M 30.488281 49.898438 "
    />
    <path
      style="stroke: none; fill-rule: nonzero; fill: rgb(93.333333%, 93.333333%, 74.901961%); fill-opacity: 1"
      d="M 35.800781 49.949219 C 35.800781 49.835938 35.710938 49.558594 35.59375 49.320312 C 35.527344 49.179688 35.472656 49.058594 35.472656 49.046875 C 35.472656 49.03125 35.433594 48.964844 35.386719 48.886719 C 35.191406 48.582031 34.867188 47.597656 34.515625 46.21875 C 34.398438 45.757812 34.277344 45.304688 34.246094 45.207031 C 34.160156 44.929688 34.164062 44.902344 34.351562 44.738281 L 34.515625 44.597656 L 34.3125 44.363281 C 34.167969 44.199219 34.105469 44.109375 34.105469 44.058594 C 34.105469 44.019531 34.1875 43.785156 34.285156 43.542969 C 34.382812 43.296875 34.460938 43.085938 34.460938 43.074219 C 34.460938 43.0625 34.339844 42.96875 34.1875 42.867188 C 33.929688 42.695312 33.914062 42.679688 33.914062 42.589844 C 33.914062 42.527344 33.972656 42.378906 34.078125 42.167969 L 34.242188 41.839844 L 34.214844 41.570312 C 34.203125 41.425781 34.191406 41.230469 34.191406 41.140625 L 34.191406 40.976562 L 35.601562 39.351562 L 37.015625 37.730469 L 39.746094 35.585938 L 42.472656 33.4375 L 43.5 33.128906 C 44.082031 32.957031 44.574219 32.828125 44.636719 32.828125 C 44.699219 32.828125 44.796875 32.847656 44.851562 32.871094 C 44.933594 32.902344 44.976562 32.90625 45.09375 32.882812 C 45.171875 32.863281 45.269531 32.855469 45.304688 32.859375 C 45.359375 32.863281 45.65625 33.15625 46.425781 33.945312 L 47.472656 35.027344 L 47.910156 35.769531 C 48.152344 36.183594 48.957031 37.628906 49.699219 38.988281 L 51.050781 41.460938 L 52.238281 42.789062 L 52.472656 43.363281 C 52.601562 43.675781 52.71875 43.945312 52.738281 43.960938 C 52.757812 43.980469 53.007812 44.105469 53.296875 44.242188 L 53.816406 44.488281 L 54.035156 44.367188 C 54.335938 44.199219 54.382812 44.203125 54.625 44.429688 C 54.738281 44.535156 55.167969 44.84375 55.652344 45.167969 C 56.113281 45.472656 56.546875 45.777344 56.625 45.839844 C 56.703125 45.90625 56.882812 46.058594 57.019531 46.175781 C 57.164062 46.296875 57.492188 46.554688 57.753906 46.75 C 58.777344 47.507812 58.953125 47.664062 59.203125 48.039062 C 59.488281 48.46875 59.515625 48.527344 59.707031 49.082031 C 59.804688 49.367188 59.921875 49.65625 59.96875 49.726562 C 60.011719 49.796875 60.050781 49.886719 60.050781 49.929688 L 60.050781 50 L 58.886719 49.984375 L 58.828125 49.8125 C 58.792969 49.71875 58.757812 49.570312 58.75 49.484375 C 58.730469 49.316406 58.671875 49.207031 58.359375 48.726562 C 58.152344 48.417969 58.121094 48.386719 57.199219 47.691406 C 56.835938 47.417969 56.429688 47.097656 56.296875 46.988281 C 56.167969 46.875 55.992188 46.730469 55.914062 46.664062 C 55.839844 46.597656 55.578125 46.414062 55.339844 46.253906 C 55.097656 46.097656 54.746094 45.859375 54.554688 45.730469 L 54.207031 45.5 L 54.089844 45.53125 C 53.734375 45.621094 53.644531 45.597656 52.832031 45.214844 C 52.457031 45.039062 52.101562 44.851562 52.035156 44.804688 C 51.871094 44.679688 51.785156 44.527344 51.542969 43.925781 L 51.328125 43.402344 L 50.757812 42.761719 C 50.195312 42.128906 50.191406 42.125 49.925781 41.640625 C 49.691406 41.214844 49.652344 41.152344 49.589844 41.152344 C 49.527344 41.148438 49.421875 40.964844 48.445312 39.175781 C 47.851562 38.089844 47.292969 37.078125 47.210938 36.933594 C 47.039062 36.648438 47.027344 36.605469 47.089844 36.605469 C 47.113281 36.605469 47.132812 36.601562 47.132812 36.59375 C 47.132812 36.582031 47.015625 36.375 46.871094 36.136719 L 46.609375 35.695312 L 45.777344 34.839844 L 44.949219 33.984375 L 44.785156 33.949219 L 44.625 33.917969 L 43.808594 34.160156 L 42.996094 34.40625 L 41.660156 35.457031 C 40.820312 36.117188 40.339844 36.511719 40.367188 36.519531 C 40.394531 36.523438 40.414062 36.542969 40.414062 36.558594 C 40.414062 36.578125 39.851562 37.035156 39.160156 37.574219 C 38.472656 38.117188 37.859375 38.609375 37.800781 38.671875 C 37.738281 38.730469 37.164062 39.386719 36.527344 40.125 C 35.375 41.449219 35.363281 41.460938 35.363281 41.582031 C 35.363281 41.671875 35.351562 41.699219 35.320312 41.699219 C 35.285156 41.699219 35.28125 41.722656 35.292969 41.820312 C 35.304688 41.886719 35.296875 42.003906 35.273438 42.101562 L 35.234375 42.273438 L 35.3125 42.351562 C 35.425781 42.457031 35.550781 42.726562 35.570312 42.90625 C 35.589844 43.085938 35.546875 43.285156 35.410156 43.625 L 35.316406 43.859375 L 35.421875 43.992188 C 35.480469 44.0625 35.550781 44.191406 35.582031 44.269531 C 35.691406 44.558594 35.628906 44.96875 35.449219 45.183594 L 35.378906 45.269531 L 35.550781 45.945312 C 35.769531 46.820312 35.984375 47.527344 36.179688 48.042969 C 36.269531 48.269531 36.347656 48.511719 36.359375 48.578125 C 36.371094 48.644531 36.402344 48.730469 36.429688 48.769531 C 36.574219 48.972656 36.757812 49.519531 36.800781 49.855469 L 36.820312 50 L 36.308594 50 C 35.839844 50 35.800781 49.996094 35.800781 49.949219 Z M 35.800781 49.949219 "
    />
    <path
      style="stroke: none; fill-rule: nonzero; fill: rgb(45.098039%, 45.098039%, 29.019608%); fill-opacity: 1"
      d="M 21.519531 42.492188 C 18.191406 42.414062 15.117188 42.28125 9.242188 41.957031 C 5.984375 41.773438 5.222656 41.757812 4.683594 41.859375 C 4.503906 41.890625 4.195312 41.964844 4 42.015625 C 3.308594 42.203125 2.898438 42.300781 2.605469 42.339844 C 2.042969 42.421875 1.175781 42.460938 0.757812 42.421875 C 0.609375 42.40625 0.574219 42.394531 0.574219 42.359375 C 0.574219 42.324219 0.523438 42.296875 0.40625 42.261719 C 0.3125 42.234375 0.1875 42.175781 0.121094 42.132812 L 0 42.058594 L 0 27.375 L 0.078125 27.375 C 0.316406 27.375 0.789062 27.578125 1.121094 27.824219 C 1.417969 28.046875 1.476562 28.0625 2.226562 28.0625 C 3.179688 28.0625 3.273438 28.09375 3.546875 28.503906 C 3.640625 28.644531 3.734375 28.824219 3.757812 28.898438 C 3.792969 29.023438 3.792969 29.050781 3.757812 29.160156 C 3.6875 29.355469 3.699219 29.414062 3.824219 29.519531 C 3.886719 29.574219 4.132812 29.71875 4.371094 29.839844 C 5.042969 30.1875 5.292969 30.390625 5.378906 30.648438 C 5.414062 30.75 5.738281 30.988281 6.582031 31.53125 C 8.042969 32.472656 8.414062 32.667969 9.023438 32.828125 C 9.242188 32.886719 9.332031 32.894531 9.777344 32.894531 C 10.242188 32.894531 10.304688 32.890625 10.582031 32.816406 C 10.746094 32.773438 10.976562 32.703125 11.085938 32.664062 C 11.359375 32.5625 11.496094 32.542969 11.757812 32.582031 C 12.066406 32.625 12.488281 32.769531 13.164062 33.0625 L 13.753906 33.316406 L 14.011719 33.300781 C 14.371094 33.277344 14.457031 33.320312 14.714844 33.628906 C 14.941406 33.902344 15.078125 34.023438 15.253906 34.113281 C 15.476562 34.222656 15.832031 34.179688 17.136719 33.882812 C 17.410156 33.816406 17.851562 33.679688 18.308594 33.519531 C 19.390625 33.140625 19.671875 33.058594 20.027344 33.03125 C 20.199219 33.015625 20.253906 33.023438 20.523438 33.113281 C 21.113281 33.300781 21.394531 33.351562 22.300781 33.414062 C 22.929688 33.460938 23.15625 33.496094 23.402344 33.589844 C 23.554688 33.652344 23.628906 33.703125 24.050781 34.058594 C 24.757812 34.660156 26.507812 35.945312 26.953125 36.1875 L 27.101562 36.269531 L 27.402344 36.242188 C 27.789062 36.207031 28.21875 36.246094 28.90625 36.378906 C 29.191406 36.4375 29.425781 36.484375 29.429688 36.484375 C 29.433594 36.484375 29.335938 36.722656 29.210938 37.007812 C 29.085938 37.292969 28.808594 37.84375 28.59375 38.234375 C 28.21875 38.917969 28.164062 39.003906 27.28125 40.207031 C 26.78125 40.902344 26.332031 41.535156 26.289062 41.609375 C 26.226562 41.726562 26.203125 41.820312 26.175781 42.074219 C 26.152344 42.253906 26.132812 42.425781 26.132812 42.460938 L 26.132812 42.523438 L 24.285156 42.515625 C 23.265625 42.515625 22.019531 42.503906 21.519531 42.492188 Z M 35.273438 41.558594 C 35.265625 41.460938 35.269531 41.398438 35.292969 41.371094 C 35.476562 41.148438 37.753906 38.546875 37.808594 38.492188 C 37.855469 38.457031 38.433594 37.996094 39.09375 37.476562 L 40.300781 36.527344 L 42.261719 36.554688 C 43.34375 36.566406 44.882812 36.585938 45.6875 36.59375 L 47.152344 36.613281 L 47.292969 36.851562 C 47.519531 37.238281 49.648438 41.132812 49.636719 41.144531 C 49.632812 41.148438 46.472656 41.257812 42.625 41.386719 C 36.945312 41.574219 35.597656 41.625 35.488281 41.660156 C 35.292969 41.71875 35.289062 41.71875 35.273438 41.558594 Z M 86.621094 40.957031 C 85.769531 40.945312 83.085938 40.902344 80.652344 40.867188 C 73.53125 40.753906 72.90625 40.746094 69.894531 40.710938 C 66.140625 40.671875 63.453125 40.691406 60.8125 40.78125 C 59.679688 40.820312 58.632812 40.855469 58.488281 40.863281 L 58.226562 40.875 L 58.039062 40.40625 C 57.835938 39.886719 57.753906 39.738281 57.582031 39.613281 C 57.417969 39.492188 57.3125 39.453125 56.949219 39.390625 L 56.621094 39.328125 L 56.453125 38.945312 C 56.359375 38.738281 56.238281 38.460938 56.183594 38.332031 C 56.0625 38.0625 55.871094 37.851562 55.671875 37.769531 L 55.550781 37.714844 L 55.394531 37.089844 C 55.230469 36.417969 55.230469 36.414062 55.382812 36.414062 C 55.648438 36.414062 56.273438 36.238281 56.664062 36.054688 C 57.039062 35.882812 57.222656 35.859375 57.558594 35.945312 C 57.957031 36.046875 58.328125 36.253906 59.179688 36.859375 C 59.441406 37.042969 59.488281 37.066406 59.636719 37.082031 C 59.730469 37.089844 59.90625 37.140625 60.039062 37.195312 C 60.167969 37.246094 60.359375 37.304688 60.472656 37.320312 C 60.746094 37.363281 61.273438 37.320312 61.828125 37.210938 C 62.058594 37.164062 62.371094 37.109375 62.519531 37.085938 C 62.882812 37.027344 63.027344 36.988281 63.613281 36.796875 C 64.746094 36.425781 65.210938 36.316406 65.554688 36.339844 C 65.71875 36.347656 65.78125 36.367188 65.957031 36.464844 C 66.324219 36.667969 66.839844 36.8125 67.332031 36.84375 C 67.628906 36.859375 67.667969 36.851562 68.390625 36.664062 C 69.242188 36.4375 70.078125 36.34375 70.386719 36.4375 C 70.449219 36.457031 70.574219 36.535156 70.675781 36.621094 C 71.21875 37.097656 72.179688 37.59375 73.539062 38.09375 C 74.800781 38.558594 74.820312 38.566406 75.78125 38.730469 C 76.265625 38.8125 77.023438 38.941406 77.457031 39.015625 C 80.082031 39.476562 81.476562 39.628906 82.988281 39.628906 C 83.96875 39.628906 84.257812 39.605469 85.007812 39.46875 C 85.65625 39.347656 85.984375 39.316406 86.730469 39.296875 C 88.1875 39.265625 89.125 39.390625 91.902344 39.988281 C 94.386719 40.523438 95.144531 40.628906 96.21875 40.59375 C 96.519531 40.585938 96.808594 40.570312 96.859375 40.5625 L 96.957031 40.550781 L 96.835938 40.609375 C 96.660156 40.691406 96.132812 40.703125 95.113281 40.648438 C 94.652344 40.621094 94.0625 40.601562 93.800781 40.601562 C 93.335938 40.601562 93.316406 40.605469 92.980469 40.699219 C 92.175781 40.929688 92.175781 40.929688 91.5 40.960938 C 90.792969 40.992188 88.9375 40.992188 86.621094 40.957031 Z M 86.621094 40.957031 "
    />
    <path
      d="M 31.730469 49.855469 C 31.671875 49.777344 31.582031 49.65625 31.527344 49.589844 C 31.378906 49.398438 31.25 49.214844 31.066406 48.9375 C 30.976562 48.796875 30.710938 48.421875 30.484375 48.101562 C 30.257812 47.78125 29.917969 47.292969 29.730469 47.015625 L 29.386719 46.511719 L 28.121094 45.925781 L 27.492188 45.367188 L 26.867188 44.8125 L 26.882812 44.6875 C 26.890625 44.617188 26.953125 44 27.019531 43.316406 C 27.089844 42.632812 27.15625 42.046875 27.171875 42.015625 C 27.191406 41.988281 27.613281 41.402344 28.113281 40.714844 C 29 39.496094 29.03125 39.453125 29.449219 38.691406 C 29.6875 38.257812 29.96875 37.703125 30.082031 37.433594 C 31.386719 34.402344 32.449219 32.664062 35.058594 29.292969 C 35.710938 28.453125 35.964844 28.148438 36.484375 27.601562 C 36.730469 27.339844 37.027344 27.027344 37.140625 26.902344 L 37.347656 26.679688 L 37.382812 26.375 C 37.4375 25.871094 37.394531 25.9375 37.917969 25.519531 C 38.222656 25.273438 38.390625 25.117188 38.40625 25.066406 C 38.429688 25 38.40625 24.933594 38.191406 24.5 C 37.980469 24.078125 37.9375 24.003906 37.890625 24.015625 C 37.773438 24.039062 33.957031 25.058594 33.941406 25.066406 C 33.9375 25.074219 33.941406 25.097656 33.960938 25.121094 C 33.980469 25.15625 33.953125 25.230469 33.828125 25.449219 C 33.660156 25.742188 33.652344 25.777344 33.707031 25.851562 C 33.734375 25.890625 33.761719 25.890625 34.050781 25.855469 C 34.222656 25.835938 34.367188 25.820312 34.371094 25.824219 C 34.375 25.828125 34.25 25.96875 34.097656 26.132812 L 33.8125 26.433594 L 33.851562 26.585938 C 33.90625 26.773438 33.871094 26.871094 33.726562 26.945312 C 33.640625 26.992188 33.566406 26.996094 33.097656 26.988281 C 32.578125 26.976562 32.558594 26.972656 32.308594 26.890625 C 31.839844 26.726562 31.3125 26.441406 30.890625 26.128906 C 30.78125 26.046875 30.675781 25.972656 30.652344 25.964844 C 30.628906 25.957031 29.488281 26.246094 28.113281 26.613281 L 25.613281 27.273438 L 25.441406 27.183594 C 24.089844 26.5 22.917969 23.710938 22.570312 20.363281 C 22.507812 19.796875 22.488281 18.660156 22.527344 18.15625 C 22.597656 17.222656 22.78125 16.46875 23.042969 16.011719 L 23.117188 15.894531 L 24.414062 15.5625 L 25.710938 15.226562 L 25.703125 15.105469 C 25.699219 15.039062 25.695312 14.71875 25.691406 14.394531 C 25.6875 13.835938 25.691406 13.792969 25.757812 13.53125 C 25.945312 12.832031 26.328125 12.34375 26.996094 11.960938 C 27.429688 11.714844 27.589844 11.65625 29.316406 11.101562 C 29.613281 11.003906 30.238281 10.769531 30.695312 10.578125 C 33.128906 9.574219 34.472656 9.140625 35.507812 9.03125 C 35.640625 9.015625 35.753906 9 35.761719 8.992188 C 35.765625 8.984375 35.722656 8.890625 35.660156 8.777344 C 35.484375 8.460938 35.441406 8.324219 35.472656 8.132812 C 35.507812 7.910156 35.59375 7.671875 35.78125 7.246094 C 35.945312 6.878906 35.984375 6.710938 35.953125 6.574219 C 35.941406 6.535156 35.867188 6.433594 35.785156 6.34375 C 35.601562 6.140625 35.566406 6.074219 35.53125 5.832031 C 35.496094 5.613281 35.488281 5.0625 35.519531 4.917969 C 35.527344 4.867188 35.578125 4.785156 35.636719 4.730469 C 35.84375 4.527344 35.839844 4.539062 35.839844 3.847656 C 35.839844 3.269531 35.84375 3.222656 35.894531 3.167969 C 35.933594 3.125 35.964844 3.113281 36.015625 3.125 C 36.125 3.152344 36.28125 3.28125 36.375 3.417969 C 36.46875 3.558594 36.5 3.566406 36.648438 3.519531 C 36.808594 3.464844 36.8125 3.449219 36.738281 3.292969 C 36.667969 3.140625 36.652344 2.925781 36.707031 2.871094 C 36.726562 2.851562 36.804688 2.835938 36.882812 2.835938 L 37.027344 2.835938 L 37.351562 2.511719 C 37.8125 2.058594 37.957031 1.8125 37.957031 1.472656 C 37.957031 1.257812 38.0625 1.207031 38.367188 1.289062 C 38.546875 1.339844 38.882812 1.339844 39.082031 1.300781 C 39.277344 1.257812 39.421875 1.191406 39.578125 1.074219 L 39.707031 0.972656 L 40.371094 0.972656 L 40.535156 1.152344 C 40.6875 1.316406 40.722656 1.335938 40.941406 1.414062 C 41.292969 1.53125 41.527344 1.542969 41.855469 1.46875 C 42.136719 1.402344 42.136719 1.402344 42.261719 1.316406 C 42.328125 1.269531 42.390625 1.261719 42.71875 1.253906 C 43.078125 1.246094 43.171875 1.257812 43.171875 1.332031 C 43.171875 1.359375 42.828125 1.585938 42.726562 1.621094 C 42.664062 1.640625 42.636719 1.671875 42.632812 1.726562 C 42.625 1.796875 42.617188 1.800781 42.503906 1.789062 C 42.414062 1.773438 42.378906 1.78125 42.34375 1.820312 C 42.320312 1.847656 42.300781 1.882812 42.300781 1.898438 C 42.300781 1.917969 42.28125 1.933594 42.265625 1.933594 C 42.242188 1.9375 42.246094 1.945312 42.273438 1.957031 C 42.363281 2.011719 42.761719 2.042969 43.488281 2.046875 C 44.429688 2.054688 44.386719 2.070312 44.527344 1.722656 C 44.550781 1.660156 44.585938 1.613281 44.597656 1.621094 C 44.632812 1.640625 44.625 2.300781 44.585938 2.339844 C 44.570312 2.355469 44.523438 2.371094 44.476562 2.371094 C 44.433594 2.371094 44.367188 2.402344 44.316406 2.449219 C 44.265625 2.492188 44.1875 2.550781 44.136719 2.574219 C 44.066406 2.609375 44.050781 2.636719 44.042969 2.71875 C 44.035156 2.800781 44.019531 2.824219 43.96875 2.835938 C 43.914062 2.847656 43.925781 2.855469 44.035156 2.886719 C 44.109375 2.90625 44.296875 2.976562 44.457031 3.042969 C 44.613281 3.109375 44.792969 3.175781 44.855469 3.191406 C 45.042969 3.238281 45.0625 3.28125 45.085938 3.695312 C 45.109375 4.128906 45.144531 4.277344 45.257812 4.410156 C 45.34375 4.519531 45.515625 4.613281 45.628906 4.621094 C 45.667969 4.621094 45.683594 4.628906 45.667969 4.632812 C 45.652344 4.640625 45.375 4.601562 45.054688 4.546875 C 44.734375 4.492188 44.378906 4.441406 44.261719 4.433594 L 44.046875 4.417969 L 44.046875 4.695312 C 44.046875 4.925781 44.035156 4.996094 43.984375 5.117188 C 43.886719 5.339844 43.78125 5.492188 43.707031 5.519531 C 43.621094 5.554688 43.621094 5.566406 43.707031 5.863281 C 43.796875 6.179688 43.832031 6.242188 44.039062 6.453125 C 44.136719 6.558594 44.222656 6.675781 44.238281 6.730469 C 44.304688 6.957031 44.253906 7.910156 44.152344 8.339844 C 44.125 8.464844 44.105469 8.570312 44.105469 8.574219 C 44.113281 8.578125 44.445312 8.523438 44.851562 8.453125 L 45.585938 8.320312 L 46.351562 8.878906 L 47.117188 9.441406 L 48.757812 9.433594 L 50.394531 9.421875 L 50.566406 9.347656 C 50.792969 9.25 51.097656 9.175781 51.660156 9.09375 C 52.183594 9.015625 52.390625 8.964844 52.855469 8.808594 C 53.035156 8.746094 53.597656 8.566406 54.109375 8.40625 C 55.492188 7.976562 56.074219 7.78125 56.648438 7.554688 C 57.28125 7.300781 57.273438 7.304688 58.070312 7.476562 C 58.90625 7.65625 59.335938 7.730469 59.980469 7.808594 C 60.292969 7.847656 60.667969 7.910156 60.8125 7.949219 C 61.476562 8.117188 62.304688 8.664062 64.582031 10.449219 C 65.597656 11.246094 65.941406 11.507812 66.546875 11.941406 C 66.796875 12.121094 67.089844 12.339844 67.203125 12.429688 C 67.5 12.667969 68.195312 13.375 68.445312 13.695312 C 69.089844 14.503906 69.542969 15.410156 69.714844 16.234375 C 69.828125 16.765625 69.851562 17.742188 69.753906 18.082031 C 69.691406 18.3125 69.503906 18.476562 69.242188 18.546875 L 69.167969 18.5625 L 69.167969 18.324219 C 69.167969 18.109375 69.164062 18.089844 69.125 18.105469 C 69 18.15625 68.871094 18.183594 68.808594 18.164062 C 68.65625 18.125 68.636719 17.882812 68.761719 17.527344 C 68.84375 17.292969 68.84375 17.292969 68.78125 17.308594 C 68.324219 17.441406 68.269531 17.421875 68.269531 17.148438 C 68.269531 17.082031 68.289062 16.9375 68.308594 16.828125 C 68.335938 16.71875 68.347656 16.628906 68.34375 16.625 C 68.320312 16.601562 66.785156 16.039062 66.773438 16.046875 C 66.757812 16.0625 66.800781 16.425781 66.863281 16.832031 C 66.925781 17.230469 66.917969 17.382812 66.816406 17.671875 L 66.730469 17.925781 L 66.488281 17.925781 C 66.355469 17.925781 66.246094 17.921875 66.246094 17.914062 C 66.246094 17.898438 65.375 14.152344 65.359375 14.089844 C 65.347656 14.058594 64.417969 13.664062 62.632812 12.933594 L 59.917969 11.816406 L 59.257812 12.148438 L 58.59375 12.484375 L 58.316406 12.207031 L 58.039062 11.925781 L 57.164062 12.128906 C 56.683594 12.242188 56.261719 12.347656 56.226562 12.367188 C 56.191406 12.386719 55.550781 12.859375 54.808594 13.421875 C 53.457031 14.4375 53.453125 14.445312 52.539062 15.296875 C 52.039062 15.765625 51.574219 16.203125 51.511719 16.265625 L 51.394531 16.378906 L 51.328125 17.207031 L 51.257812 18.039062 L 50.566406 18.9375 L 49.875 19.839844 L 50.003906 20.929688 C 50.074219 21.53125 50.132812 22.066406 50.132812 22.117188 C 50.136719 22.207031 50.113281 22.234375 49.773438 22.515625 L 49.410156 22.816406 L 49.441406 22.964844 C 49.472656 23.132812 49.480469 23.136719 49.777344 23.171875 L 49.9375 23.191406 L 49.953125 23.359375 C 49.964844 23.453125 49.976562 23.683594 49.988281 23.871094 L 50.007812 24.214844 L 50.332031 24.902344 L 50.660156 25.589844 L 50.921875 25.535156 L 51.1875 25.480469 L 51.167969 25.164062 C 51.160156 24.984375 51.148438 24.765625 51.148438 24.671875 L 51.148438 24.5 L 51.71875 24.5 L 51.71875 24.34375 C 51.71875 24.257812 51.703125 23.792969 51.679688 23.308594 C 51.65625 22.828125 51.636719 22.414062 51.636719 22.390625 C 51.636719 22.359375 51.570312 22.335938 51.359375 22.300781 C 51.203125 22.273438 51.070312 22.242188 51.0625 22.234375 C 51.03125 22.199219 50.921875 21.511719 50.945312 21.488281 C 50.957031 21.472656 51.230469 21.355469 51.546875 21.21875 L 52.117188 20.96875 L 52.800781 21.171875 C 53.171875 21.285156 53.480469 21.382812 53.488281 21.390625 C 53.492188 21.394531 53.480469 21.589844 53.464844 21.820312 L 53.429688 22.246094 L 53.15625 22.265625 C 53.007812 22.273438 52.882812 22.285156 52.882812 22.289062 C 52.882812 22.292969 52.890625 22.777344 52.910156 23.363281 L 52.9375 24.433594 L 53.203125 24.425781 C 53.347656 24.417969 53.46875 24.417969 53.472656 24.425781 C 53.472656 24.429688 53.546875 26.242188 53.644531 28.457031 L 53.816406 32.480469 L 53.5 33.003906 C 53.328125 33.289062 53.1875 33.542969 53.191406 33.566406 C 53.191406 33.589844 53.347656 33.992188 53.539062 34.457031 C 54.039062 35.683594 54.195312 36.183594 54.558594 37.757812 C 54.621094 38.019531 54.683594 38.28125 54.699219 38.335938 C 54.722656 38.4375 54.734375 38.441406 54.996094 38.542969 L 55.265625 38.644531 L 55.503906 39.195312 C 55.667969 39.570312 55.753906 39.804688 55.777344 39.945312 C 55.800781 40.058594 55.828125 40.160156 55.84375 40.167969 C 55.859375 40.179688 56.113281 40.226562 56.410156 40.277344 C 56.761719 40.335938 56.960938 40.382812 56.984375 40.414062 C 57.007812 40.433594 57.15625 40.792969 57.320312 41.207031 L 57.613281 41.960938 L 57.378906 42.179688 L 57.546875 42.550781 C 57.761719 43.023438 57.816406 43.113281 57.925781 43.15625 C 58.605469 43.441406 59.097656 43.8125 60.089844 44.808594 C 61.199219 45.921875 61.972656 46.921875 62.148438 47.46875 C 62.199219 47.628906 62.246094 47.703125 62.445312 47.929688 C 62.773438 48.316406 62.804688 48.363281 63.246094 49.230469 C 63.390625 49.515625 63.476562 49.722656 63.515625 49.890625 L 63.539062 50 L 60.003906 50 L 59.902344 49.835938 C 59.847656 49.746094 59.722656 49.449219 59.625 49.160156 C 59.433594 48.609375 59.40625 48.546875 59.121094 48.125 C 58.871094 47.746094 58.695312 47.59375 57.671875 46.832031 C 57.410156 46.636719 57.082031 46.378906 56.9375 46.257812 C 56.800781 46.140625 56.621094 45.988281 56.542969 45.925781 C 56.464844 45.859375 56.03125 45.554688 55.570312 45.25 C 55.082031 44.921875 54.65625 44.617188 54.542969 44.511719 L 54.34375 44.328125 L 53.820312 44.609375 L 53.253906 44.34375 C 52.945312 44.199219 52.675781 44.0625 52.65625 44.046875 C 52.636719 44.027344 52.519531 43.757812 52.390625 43.445312 L 52.15625 42.871094 L 50.96875 41.542969 L 49.617188 39.070312 C 48.875 37.710938 48.070312 36.261719 47.828125 35.851562 L 47.390625 35.105469 L 46.421875 34.109375 C 45.894531 33.5625 45.417969 33.074219 45.371094 33.023438 C 45.289062 32.9375 45.277344 32.933594 45.175781 32.960938 C 45.011719 33.003906 44.890625 33.003906 44.757812 32.949219 L 44.632812 32.902344 L 42.554688 33.519531 L 39.824219 35.671875 L 37.085938 37.824219 L 35.824219 39.277344 C 35.132812 40.078125 34.496094 40.804688 34.414062 40.898438 L 34.265625 41.070312 L 34.296875 41.488281 L 34.332031 41.90625 L 34.164062 42.242188 C 34.070312 42.429688 34.003906 42.589844 34.007812 42.601562 C 34.015625 42.613281 34.152344 42.707031 34.308594 42.8125 C 34.46875 42.917969 34.597656 43.011719 34.597656 43.023438 C 34.597656 43.035156 34.507812 43.269531 34.398438 43.550781 L 34.195312 44.054688 L 34.421875 44.316406 C 34.550781 44.460938 34.652344 44.589844 34.652344 44.605469 C 34.652344 44.613281 34.570312 44.699219 34.464844 44.792969 L 34.277344 44.960938 L 34.332031 45.132812 C 34.359375 45.226562 34.480469 45.675781 34.597656 46.136719 C 34.949219 47.515625 35.273438 48.5 35.46875 48.804688 C 35.515625 48.882812 35.554688 48.949219 35.554688 48.964844 C 35.554688 48.976562 35.609375 49.097656 35.675781 49.238281 C 35.785156 49.464844 35.839844 49.636719 35.894531 49.910156 L 35.914062 50 L 31.839844 50 Z M 99.679688 31.511719 C 99.679688 31.445312 99.6875 31.417969 99.691406 31.453125 C 99.695312 31.484375 99.695312 31.539062 99.691406 31.574219 C 99.6875 31.609375 99.679688 31.582031 99.679688 31.511719 Z M 99.679688 31.511719 "
    />
  </g>
</svg>
