<svg xmlns="http://www.w3.org/2000/svg" id="root" viewBox="0 0 100 56">
  <g>
    <path
      d="M 10.03125 55.640625 C 7.664062 55.308594 7.304688 54.800781 7.035156 51.832031 C 6.945312 50.570312 6.558594 48.441406 6.226562 47.121094 C 5.359375 43.613281 5.148438 42.292969 4.910156 38.183594 C 4.789062 36.171875 4.609375 34.464844 4.519531 34.375 L 2.902344 32.605469 C 1.855469 31.40625 1.496094 30.773438 1.496094 30.023438 C 1.496094 28.886719 1.855469 28.554688 4.640625 27.023438 C 8.503906 24.894531 11.378906 22.644531 11.378906 21.746094 C 11.378906 21.085938 10.238281 20.875 6.585938 20.875 C 5 20.875 2.84375 20.785156 1.828125 20.695312 L 0 20.488281 L 0 18.148438 C 0 16.40625 0.0898438 15.777344 0.390625 15.777344 C 0.597656 15.777344 0.929688 15.386719 1.109375 14.878906 C 1.4375 13.976562 1.46875 13.976562 3.683594 13.976562 C 6.167969 13.976562 6.289062 14.066406 6.289062 16.105469 C 6.289062 17.246094 6.316406 17.277344 7.335938 17.277344 C 8.054688 17.277344 8.382812 17.425781 8.382812 17.726562 C 8.382812 17.964844 9.011719 18.476562 9.761719 18.867188 L 11.136719 19.554688 L 13.710938 18.988281 C 15.71875 18.507812 16.496094 18.445312 17.394531 18.6875 C 18.023438 18.867188 18.621094 18.925781 18.710938 18.835938 C 18.980469 18.566406 18.890625 17.125 18.5625 16.796875 C 18.414062 16.648438 17.933594 15.566406 17.515625 14.425781 C 16.796875 12.507812 16.707031 11.96875 16.738281 8.308594 C 16.765625 6.089844 16.917969 4.050781 17.097656 3.75 C 17.304688 3.328125 17.722656 3.179688 18.5625 3.179688 C 19.699219 3.179688 19.761719 3.121094 19.761719 2.28125 C 19.761719 1.230469 20.328125 1.109375 21.855469 1.859375 C 22.722656 2.308594 22.902344 2.308594 23.621094 1.917969 C 24.042969 1.648438 24.878906 1.351562 25.449219 1.230469 C 26.019531 1.109375 26.828125 0.75 27.277344 0.421875 C 27.902344 -0.0585938 28.203125 -0.121094 28.683594 0.148438 C 29.011719 0.328125 29.789062 0.480469 30.359375 0.480469 C 31.675781 0.480469 31.707031 0.71875 30.539062 1.828125 C 28.921875 3.359375 29.492188 4.050781 32.335938 4.078125 C 34.25 4.078125 35.03125 4.347656 35.03125 5.007812 C 35.03125 5.367188 34.730469 5.640625 34.222656 5.757812 C 32.664062 6.148438 32.632812 6.207031 32.632812 11.398438 C 32.632812 16.707031 32.632812 16.675781 30.570312 18.867188 L 29.519531 19.976562 L 30.6875 19.976562 C 32.394531 20.007812 34.460938 20.515625 35.328125 21.144531 C 36.289062 21.835938 40.210938 22.976562 46.257812 24.355469 C 48.890625 24.925781 54.371094 26.425781 58.441406 27.65625 C 62.515625 28.886719 65.929688 29.875 66.046875 29.875 C 66.378906 29.875 65.988281 26.816406 65.597656 26.605469 C 65.390625 26.457031 62.875 26.183594 60 25.976562 L 54.761719 25.585938 L 53.921875 24.503906 C 52.84375 23.125 50.597656 19.765625 50.597656 19.554688 C 50.597656 19.195312 51.46875 19.40625 53.980469 20.425781 C 55.417969 20.996094 56.675781 21.476562 56.828125 21.476562 C 56.976562 21.476562 57.632812 20.996094 58.292969 20.425781 C 59.820312 19.136719 60.570312 19.078125 61.078125 20.277344 C 61.40625 21.085938 61.796875 21.265625 66.167969 22.675781 C 71.109375 24.234375 71.558594 24.355469 71.558594 23.90625 C 71.558594 23.753906 72.097656 23.695312 72.753906 23.785156 C 74.25 23.996094 74.671875 23.636719 75.300781 21.777344 L 75.777344 20.335938 L 78.082031 19.828125 L 80.75 19.167969 C 80.957031 19.078125 81.136719 19.226562 81.136719 19.464844 C 81.136719 19.738281 80.089844 20.875 78.832031 22.046875 C 77.542969 23.214844 76.648438 24.175781 76.828125 24.175781 C 77.007812 24.175781 79.28125 22.824219 81.886719 21.175781 L 86.617188 18.148438 L 89.609375 17.875 C 91.257812 17.695312 92.664062 17.605469 92.695312 17.667969 C 92.722656 17.695312 91.738281 18.957031 90.507812 20.488281 L 88.234375 23.246094 L 83.710938 24.324219 C 77.066406 25.945312 76.917969 25.976562 77.097656 26.273438 C 77.1875 26.425781 77.84375 26.695312 78.53125 26.875 C 81.316406 27.625 82.632812 29.15625 82.632812 31.765625 C 82.632812 32.214844 82.753906 32.574219 82.902344 32.574219 C 83.054688 32.574219 83.113281 32.84375 83.023438 33.175781 C 82.902344 33.652344 83.023438 33.773438 83.652344 33.773438 L 90.628906 34.222656 C 94.011719 34.492188 96.886719 34.582031 97.035156 34.464844 C 97.15625 34.34375 97.304688 33.953125 97.367188 33.625 C 97.664062 31.945312 100 33.535156 100 35.421875 L 100 36.5625 L 96.257812 36.414062 C 92.722656 36.261719 92.542969 36.292969 93.113281 36.773438 C 93.441406 37.074219 93.710938 37.492188 93.710938 37.734375 C 93.710938 38.0625 94.160156 38.242188 95.328125 38.363281 C 96.226562 38.453125 97.304688 38.753906 97.722656 39.023438 C 98.472656 39.503906 98.503906 39.683594 98.503906 42.050781 C 98.503906 44.242188 98.441406 44.570312 97.992188 44.570312 C 97.695312 44.570312 97.1875 44.78125 96.886719 45.023438 C 96.199219 45.53125 92.992188 45.621094 91.796875 45.171875 C 91.199219 44.960938 91.019531 44.691406 91.019531 43.972656 C 91.019531 43.164062 90.929688 43.074219 90.03125 43.074219 C 89.492188 43.074219 88.414062 42.863281 87.632812 42.59375 L 86.226562 42.113281 L 86.226562 39.59375 C 86.226562 37.554688 86.316406 37.074219 86.675781 37.074219 C 86.917969 37.074219 87.125 36.894531 87.125 36.652344 C 87.125 36.414062 87.367188 36.144531 87.664062 36.082031 C 87.933594 35.992188 87.785156 35.933594 87.277344 35.902344 C 86.796875 35.875 86.078125 35.785156 85.71875 35.695312 C 85.089844 35.511719 85.03125 35.605469 85.03125 36.5625 C 85.03125 37.492188 84.941406 37.613281 84.101562 37.792969 C 82.542969 38.09375 80.75 38.003906 79.878906 37.554688 C 79.070312 37.132812 79.042969 37.132812 79.042969 37.941406 C 79.042969 38.664062 78.890625 38.84375 78.113281 38.992188 C 76.136719 39.382812 74.550781 39.113281 69.96875 37.554688 C 67.335938 36.652344 65.089844 35.8125 64.910156 35.632812 C 64.730469 35.453125 64.519531 34.703125 64.460938 33.953125 L 64.28125 32.574219 L 65.238281 32.574219 C 65.777344 32.574219 66.558594 32.84375 67.007812 33.144531 C 67.992188 33.863281 69.160156 34.222656 69.160156 33.832031 C 69.160156 33.683594 68.414062 33.234375 67.515625 32.875 C 66.617188 32.515625 65.867188 32.035156 65.867188 31.824219 C 65.867188 31.585938 65.417969 31.3125 64.910156 31.222656 C 63.980469 31.015625 62.902344 30.683594 56.738281 28.792969 C 52.097656 27.386719 47.335938 26.15625 47.1875 26.335938 C 47.125 26.367188 47.007812 26.996094 46.886719 27.683594 C 46.707031 28.855469 46.765625 28.976562 47.457031 29.15625 C 48.171875 29.335938 48.203125 29.453125 48.203125 31.496094 L 48.203125 33.683594 L 51.136719 34.195312 L 55.179688 35.003906 C 56.675781 35.394531 58.441406 37.191406 58.921875 38.8125 C 59.402344 40.433594 59.761719 40.523438 65.179688 40.253906 C 67.964844 40.132812 69.460938 40.164062 69.460938 40.371094 C 69.460938 40.523438 69.878906 40.671875 70.359375 40.671875 C 71.167969 40.671875 71.257812 40.761719 71.257812 41.691406 C 71.257812 42.621094 71.078125 42.832031 69.402344 43.914062 C 68.351562 44.542969 66.917969 45.382812 66.167969 45.742188 C 63.773438 46.941406 60.507812 49.222656 60.507812 49.671875 C 60.507812 49.910156 60.6875 50.390625 60.929688 50.691406 C 61.167969 51.019531 61.378906 51.859375 61.378906 52.582031 L 61.378906 53.871094 L 60.210938 53.871094 C 59.582031 53.871094 58.472656 53.601562 57.753906 53.300781 C 57.035156 52.96875 55.570312 52.609375 54.519531 52.492188 C 52.722656 52.28125 52.515625 52.339844 50.359375 53.449219 L 48.113281 54.621094 L 43.054688 54.621094 C 38.023438 54.621094 38.023438 54.621094 38.023438 55.308594 L 38.023438 55.96875 L 24.941406 55.941406 C 17.722656 55.910156 11.019531 55.789062 10.03125 55.640625 Z M 10.03125 55.640625 "
    />
    <path
      d="M 77.84375 50.390625 L 75.839844 50.089844 C 74.582031 49.941406 74.550781 49.910156 74.550781 48.859375 L 74.550781 47.78125 L 78.683594 47.960938 C 83.292969 48.171875 83.261719 48.140625 77.84375 46.460938 L 74.101562 45.292969 L 74.011719 44.03125 C 73.921875 42.773438 73.921875 42.773438 74.910156 42.773438 C 75.480469 42.773438 76.046875 42.890625 76.226562 43.042969 C 77.246094 44.03125 90.597656 46.972656 92.007812 46.523438 C 92.214844 46.460938 94.070312 46.339844 96.199219 46.222656 L 100 46.011719 L 100 47.363281 C 100 48.621094 99.941406 48.710938 99.070312 48.890625 C 98.5625 48.980469 96.347656 49.070312 94.160156 49.070312 C 91.019531 49.070312 89.519531 49.222656 86.886719 49.820312 C 83.925781 50.511719 80.867188 50.707031 77.84375 50.390625 Z M 77.84375 50.390625 "
    />
    <path
      style="stroke: none; fill-rule: nonzero; fill: rgb(79.215686%, 80%, 65.098039%); fill-opacity: 1"
      d="M 0 37.792969 L 0 19.585938 L 2.933594 19.796875 C 8.082031 20.097656 11.828125 20.097656 11.765625 19.765625 C 11.675781 19.40625 13.144531 18.925781 13.414062 19.226562 C 13.503906 19.316406 13.292969 19.648438 12.964844 19.945312 C 12.367188 20.515625 11.796875 22.4375 12.097656 22.945312 C 12.425781 23.457031 9.371094 25.765625 5.507812 27.925781 C 2.125 29.816406 2.125 29.816406 3.683594 31.554688 C 4.75 32.738281 5.796875 33.9375 6.828125 35.152344 C 7.484375 35.902344 7.695312 36.472656 7.277344 36.472656 C 7.15625 36.472656 6.765625 36.113281 6.40625 35.664062 L 5.75 34.824219 L 5.539062 36.503906 C 5.328125 38.304688 6.078125 43.074219 7.15625 46.730469 C 7.457031 47.78125 7.8125 49.640625 7.902344 50.871094 C 8.144531 53.78125 8.5625 54.378906 10.480469 54.648438 C 11.675781 54.800781 11.976562 54.949219 11.976562 55.398438 C 11.976562 55.941406 11.648438 55.96875 5.988281 55.96875 L 0 55.96875 Z M 37.1875 54.710938 C 37.277344 53.480469 37.304688 53.421875 38.171875 53.511719 C 38.683594 53.570312 40.898438 53.628906 43.144531 53.660156 L 47.214844 53.71875 L 49.460938 52.550781 C 51.738281 51.378906 51.765625 51.378906 54.429688 51.5625 C 56.226562 51.679688 57.632812 51.949219 58.652344 52.402344 C 59.519531 52.761719 60.300781 52.96875 60.390625 52.851562 C 60.507812 52.761719 60.300781 52.070312 59.941406 51.351562 C 58.800781 49.132812 58.953125 48.769531 61.796875 46.941406 C 63.203125 46.042969 65.390625 44.753906 66.675781 44.03125 C 67.964844 43.34375 69.339844 42.472656 69.761719 42.140625 L 70.507812 41.542969 L 69.460938 41.691406 L 67.214844 42.023438 L 66.019531 42.171875 L 67.1875 41.722656 C 67.84375 41.484375 68.414062 41.210938 68.472656 41.183594 C 68.503906 41.121094 66.4375 41.09375 63.832031 41.121094 C 61.257812 41.152344 58.980469 41.09375 58.773438 41.03125 C 58.5625 40.972656 58.261719 40.433594 58.054688 39.832031 C 57.214844 37.222656 55.570312 35.964844 52.394531 35.542969 C 51.226562 35.363281 49.730469 35.035156 49.042969 34.792969 C 48.382812 34.554688 47.515625 34.375 47.125 34.375 C 46.738281 34.375 46.40625 34.253906 46.40625 34.074219 C 46.40625 33.925781 46.617188 33.773438 46.855469 33.773438 C 47.214844 33.773438 47.304688 33.382812 47.304688 32.003906 C 47.304688 30.265625 47.277344 30.203125 46.378906 30.023438 C 45.390625 29.816406 45.417969 30.023438 45.988281 27.207031 C 46.136719 26.367188 46.046875 26.273438 44.941406 25.945312 C 43.953125 25.644531 43.710938 25.433594 43.710938 24.867188 C 43.710938 24.476562 43.832031 24.207031 43.953125 24.296875 C 44.101562 24.386719 45.6875 24.777344 47.484375 25.195312 C 49.28125 25.617188 51.765625 26.214844 52.992188 26.574219 C 54.222656 26.90625 55.480469 27.144531 55.777344 27.054688 C 56.046875 26.996094 56.226562 27.054688 56.136719 27.175781 C 55.988281 27.414062 57.394531 27.953125 60.480469 28.792969 L 64.191406 29.84375 L 66.226562 30.445312 L 66.109375 28.675781 C 66.019531 27.355469 65.808594 26.753906 65.390625 26.394531 C 64.851562 25.976562 64.878906 25.945312 66.019531 26.066406 L 67.214844 26.214844 L 66.019531 25.644531 L 64.820312 25.074219 L 65.867188 25.285156 C 66.4375 25.375 67.304688 25.433594 67.753906 25.40625 C 68.351562 25.375 68.53125 25.464844 68.382812 25.707031 C 68.261719 25.945312 68.292969 25.976562 68.53125 25.855469 C 69.160156 25.433594 70.359375 25.945312 70.359375 26.605469 C 70.359375 27.144531 70.238281 27.175781 68.800781 26.996094 C 66.199219 26.636719 66.347656 26.574219 66.40625 28.226562 C 66.558594 31.105469 66.648438 31.253906 68.503906 32.003906 C 69.429688 32.363281 70.328125 32.785156 70.507812 32.933594 C 71.046875 33.414062 71.527344 33.175781 71.648438 32.363281 C 71.765625 31.585938 71.765625 31.585938 71.828125 32.484375 C 71.855469 33.503906 72.722656 34.253906 73.53125 33.953125 C 73.742188 33.863281 73.921875 33.925781 73.863281 34.105469 C 73.832031 34.285156 74.820312 34.824219 76.019531 35.304688 C 78.472656 36.234375 78.742188 36.171875 78.742188 34.523438 C 78.742188 33.445312 77.035156 31.855469 76.136719 32.152344 C 75.6875 32.304688 75.660156 32.273438 76.046875 32.003906 C 76.4375 31.734375 76.4375 31.675781 76.046875 31.644531 L 75.148438 31.644531 C 74.820312 31.675781 74.789062 31.644531 75.089844 31.433594 C 75.359375 31.253906 74.96875 30.773438 73.742188 29.785156 L 72.007812 28.375 L 71.828125 29.214844 C 71.675781 29.84375 71.617188 29.726562 71.585938 28.613281 L 71.558594 27.207031 L 73.292969 26.875 C 76.167969 26.273438 76.40625 26.09375 74.910156 25.707031 L 73.144531 25.164062 C 72.8125 25.046875 72.722656 25.074219 72.875 25.34375 C 73.023438 25.585938 72.964844 25.707031 72.722656 25.644531 C 71.855469 25.554688 71.226562 25.675781 71.40625 25.976562 C 71.496094 26.15625 71.46875 26.273438 71.289062 26.273438 C 70.597656 26.273438 70.6875 25.675781 71.40625 25.496094 C 72.425781 25.253906 72.246094 25.105469 69.851562 24.265625 C 67.664062 23.515625 66.316406 23.574219 66.046875 24.414062 C 65.929688 24.804688 65.898438 24.777344 65.929688 24.324219 C 65.957031 23.277344 65.867188 23.097656 65.359375 23.066406 C 64.101562 22.976562 61.199219 21.6875 60.6875 20.996094 C 60 20.097656 59.730469 20.097656 58.652344 20.996094 C 57.964844 21.566406 57.902344 21.746094 58.261719 21.894531 C 59.042969 22.195312 59.28125 22.105469 59.582031 21.417969 C 59.851562 20.816406 59.878906 20.816406 59.789062 21.328125 C 59.730469 21.777344 60.210938 22.226562 61.828125 23.246094 C 62.964844 23.964844 64.070312 24.6875 64.222656 24.835938 C 64.699219 25.285156 63.023438 24.804688 60.179688 23.636719 C 55.03125 21.566406 53.292969 20.9375 53.292969 21.175781 C 53.292969 21.328125 53.921875 21.984375 54.730469 22.707031 C 55.507812 23.394531 55.839844 23.816406 55.480469 23.605469 C 55.121094 23.425781 54.25 22.585938 53.53125 21.777344 C 51.527344 19.464844 51.289062 20.007812 53.203125 22.527344 C 54.761719 24.566406 55.03125 24.777344 56.199219 24.957031 C 56.917969 25.046875 57.753906 25.074219 58.082031 24.984375 C 58.683594 24.835938 63.441406 25.527344 63.710938 25.824219 C 64.132812 26.246094 63.203125 26.246094 59.25 25.945312 C 56.078125 25.675781 54.820312 25.464844 54.429688 25.105469 C 54.160156 24.835938 53.144531 23.457031 52.125 22.015625 C 50 18.925781 50.089844 18.867188 53.980469 20.425781 C 55.417969 20.996094 56.707031 21.476562 56.855469 21.476562 C 57.007812 21.476562 57.8125 20.847656 58.652344 20.097656 L 60.148438 18.746094 L 60.75 19.738281 C 61.078125 20.277344 61.46875 20.875 61.617188 21.027344 C 62.066406 21.566406 71.347656 24.324219 71.46875 23.964844 C 71.558594 23.753906 72.035156 23.695312 72.753906 23.785156 C 74.25 23.996094 74.671875 23.636719 75.300781 21.777344 L 75.777344 20.335938 L 78.503906 19.707031 C 80 19.347656 81.316406 19.167969 81.40625 19.257812 C 81.496094 19.347656 80.449219 20.515625 79.042969 21.804688 C 77.664062 23.125 76.675781 24.175781 76.828125 24.175781 C 77.007812 24.175781 79.28125 22.824219 81.886719 21.175781 L 86.617188 18.148438 L 89.609375 17.875 C 91.257812 17.695312 92.664062 17.605469 92.695312 17.667969 C 92.722656 17.695312 91.738281 18.957031 90.507812 20.488281 L 88.234375 23.246094 L 83.710938 24.324219 C 77.066406 25.945312 76.917969 25.976562 77.097656 26.273438 C 77.1875 26.425781 77.84375 26.695312 78.53125 26.875 C 81.316406 27.625 82.632812 29.15625 82.632812 31.765625 C 82.632812 32.214844 82.753906 32.574219 82.933594 32.574219 C 83.113281 32.574219 83.113281 32.84375 82.902344 33.355469 C 82.753906 33.804688 82.664062 34.195312 82.722656 34.285156 C 82.933594 34.492188 91.199219 35.242188 95.597656 35.453125 L 100 35.664062 L 100 41.300781 C 100 45.652344 99.910156 46.972656 99.640625 46.972656 L 95.148438 47.273438 C 91.855469 47.511719 90.328125 47.480469 87.515625 47.121094 C 84.042969 46.671875 76.019531 44.542969 75.179688 43.882812 C 74.851562 43.582031 74.789062 43.613281 74.910156 43.941406 C 75.058594 44.453125 79.730469 46.042969 83.832031 47 C 85.390625 47.363281 86.855469 47.75 87.066406 47.871094 C 87.304688 47.992188 86.4375 48.292969 84.96875 48.621094 C 83.023438 49.042969 81.738281 49.132812 78.890625 48.980469 C 74.730469 48.769531 75.449219 49.222656 79.761719 49.519531 C 82.066406 49.699219 82.992188 49.609375 85.898438 48.953125 C 88.773438 48.292969 90.179688 48.140625 94.671875 48.082031 L 100 47.992188 L 100 55.96875 L 37.097656 55.96875 Z M 94.609375 42.621094 C 94.609375 40.792969 94.582031 40.671875 93.953125 40.671875 C 93.5625 40.671875 92.964844 40.582031 92.605469 40.492188 C 92.007812 40.3125 91.917969 40.402344 91.917969 41.242188 C 91.917969 41.902344 92.066406 42.171875 92.457031 42.203125 C 92.933594 42.234375 92.933594 42.261719 92.457031 42.382812 C 92.125 42.472656 91.917969 42.800781 91.917969 43.253906 C 91.917969 44.03125 92.664062 44.511719 93.953125 44.542969 C 94.582031 44.570312 94.609375 44.453125 94.609375 42.621094 Z M 95.839844 44.273438 C 96.136719 44.09375 96.40625 43.730469 96.4375 43.433594 C 96.4375 43.132812 96.527344 43.074219 96.617188 43.3125 C 96.675781 43.492188 96.945312 43.671875 97.1875 43.671875 C 97.484375 43.671875 97.574219 43.253906 97.515625 41.960938 C 97.457031 40.28125 97.425781 40.222656 96.707031 40.34375 C 95.417969 40.523438 94.910156 40.941406 94.910156 41.871094 C 94.910156 42.59375 95 42.710938 95.449219 42.5625 C 95.71875 42.472656 96.109375 42.261719 96.316406 42.113281 C 96.527344 41.960938 96.738281 41.960938 96.855469 42.171875 C 97.035156 42.472656 96.738281 42.652344 95.660156 42.832031 C 95.269531 42.890625 95.03125 43.191406 94.96875 43.761719 C 94.851562 44.660156 94.96875 44.722656 95.839844 44.273438 Z M 89.699219 40.792969 C 89.429688 40.132812 88.324219 40.253906 88.324219 40.972656 C 88.324219 41.722656 89.609375 42.351562 89.761719 41.664062 C 89.820312 41.421875 89.789062 41.03125 89.699219 40.792969 Z M 91.316406 41.273438 C 91.316406 40.792969 91.46875 40.371094 91.617188 40.371094 C 91.796875 40.371094 91.917969 40.191406 91.917969 39.953125 C 91.917969 39.714844 92.125 39.472656 92.367188 39.351562 C 92.605469 39.261719 92.8125 38.902344 92.8125 38.574219 C 92.8125 38.035156 92.664062 37.972656 91.558594 38.125 C 90.328125 38.273438 90.300781 38.242188 91.257812 37.972656 C 91.765625 37.792969 92.214844 37.582031 92.214844 37.523438 C 92.214844 37.464844 91.675781 37.253906 90.988281 37.074219 C 89.699219 36.714844 88.023438 36.921875 88.023438 37.433594 C 88.023438 37.613281 88.234375 37.644531 88.503906 37.554688 L 89.761719 37.222656 C 90.390625 37.101562 90.328125 37.164062 89.550781 37.464844 L 88.5625 37.851562 L 89.25 38.214844 C 89.699219 38.453125 89.761719 38.511719 89.371094 38.394531 C 89.042969 38.273438 88.414062 38.125 87.964844 38.035156 C 87.1875 37.914062 87.125 37.972656 87.125 38.84375 C 87.125 40.042969 87.992188 40.164062 88.054688 38.964844 L 88.082031 38.125 L 88.292969 39.023438 C 88.441406 39.714844 88.652344 39.953125 89.3125 40.011719 C 90.03125 40.101562 90.121094 40.253906 90.121094 41.152344 C 90.121094 41.960938 90.238281 42.171875 90.71875 42.171875 C 91.199219 42.171875 91.316406 41.960938 91.316406 41.273438 Z M 88.023438 40.824219 C 88.023438 40.34375 87.84375 40.074219 87.574219 40.074219 C 86.738281 40.074219 87.035156 41.273438 87.964844 41.542969 C 87.992188 41.574219 88.023438 41.242188 88.023438 40.824219 Z M 95.808594 40.253906 C 96.886719 39.804688 96.765625 39.652344 95.238281 39.324219 C 94.492188 39.171875 94.28125 39.203125 94.460938 39.472656 C 94.609375 39.683594 94.492188 39.804688 94.132812 39.773438 C 92.304688 39.5625 92.066406 39.984375 93.773438 40.371094 L 94.789062 40.644531 C 94.820312 40.671875 95.269531 40.492188 95.808594 40.253906 Z M 77.542969 38.003906 C 78.324219 37.792969 78.171875 37.734375 73.441406 36.742188 C 71.886719 36.445312 71.886719 36.414062 71.675781 35.09375 C 71.496094 33.742188 70.957031 32.964844 70.957031 33.984375 C 70.929688 34.402344 70.839844 34.375 70.480469 33.773438 L 70.03125 33.023438 L 70.238281 33.773438 C 70.328125 34.195312 70.628906 34.734375 70.839844 35.003906 C 71.078125 35.242188 71.257812 35.605469 71.257812 35.785156 C 71.257812 36.171875 66.496094 34.492188 65.808594 33.894531 C 65.359375 33.445312 65.328125 33.472656 65.480469 34.074219 C 65.6875 34.855469 66.347656 35.152344 71.707031 36.953125 C 75.6875 38.273438 76.226562 38.363281 77.542969 38.003906 Z M 83.234375 36.894531 L 84.191406 36.683594 L 83.023438 36.292969 C 82.277344 36.023438 81.558594 35.992188 80.988281 36.144531 L 80.089844 36.414062 L 80.839844 36.714844 C 81.765625 37.101562 82.007812 37.132812 83.234375 36.894531 Z M 81.4375 35.574219 C 81.617188 35.574219 82.335938 34.015625 82.335938 33.625 C 82.335938 33.472656 80.03125 33.535156 79.730469 33.714844 C 79.550781 33.832031 79.28125 34.3125 79.160156 34.792969 C 78.980469 35.605469 79.011719 35.664062 79.730469 35.511719 C 80.238281 35.421875 80.449219 35.484375 80.328125 35.664062 C 80.210938 35.84375 80.328125 35.902344 80.660156 35.785156 C 80.957031 35.664062 81.289062 35.574219 81.4375 35.574219 Z M 81.316406 32.425781 C 81.40625 32.003906 81.4375 31.285156 81.378906 30.773438 C 81.316406 30.292969 81.347656 29.964844 81.496094 30.054688 C 81.945312 30.355469 81.738281 29.664062 81.109375 28.855469 C 79.582031 26.90625 76.765625 26.636719 76.40625 28.375 C 76.347656 28.613281 76.167969 28.976562 75.988281 29.125 C 75.808594 29.304688 75.808594 29.15625 76.019531 28.765625 C 76.199219 28.375 76.257812 28.074219 76.136719 28.074219 C 76.019531 28.074219 76.167969 27.863281 76.46875 27.625 C 77.035156 27.175781 77.035156 27.175781 76.4375 27.175781 C 75.839844 27.175781 74.101562 28.34375 74.671875 28.375 C 74.851562 28.375 74.699219 28.554688 74.402344 28.792969 C 73.921875 29.15625 73.890625 29.273438 74.222656 29.695312 C 74.789062 30.382812 75.238281 30.292969 74.851562 29.574219 C 74.671875 29.246094 74.609375 28.976562 74.699219 28.976562 C 74.789062 28.976562 75.089844 29.453125 75.328125 30.023438 C 75.570312 30.59375 75.957031 31.074219 76.199219 31.074219 C 76.4375 31.074219 76.648438 31.195312 76.648438 31.34375 C 76.648438 31.914062 78.921875 33.144531 80 33.144531 C 80.957031 33.175781 81.167969 33.054688 81.316406 32.425781 Z M 75.777344 27.023438 C 76.289062 26.90625 76.617188 26.753906 76.558594 26.664062 C 76.46875 26.574219 75.359375 26.753906 74.070312 27.054688 L 71.738281 27.566406 L 72.605469 28.285156 L 73.441406 29.035156 L 74.160156 28.136719 C 74.550781 27.625 75.269531 27.144531 75.777344 27.023438 Z M 77.542969 22.675781 C 79.042969 21.175781 80.238281 19.886719 80.238281 19.828125 C 80.238281 19.765625 79.339844 20.035156 78.261719 20.367188 C 76.527344 20.9375 76.199219 21.175781 75.808594 22.074219 C 75.539062 22.644531 75.121094 23.367188 74.910156 23.636719 C 74.519531 24.085938 74.519531 24.234375 74.878906 24.6875 C 75.269531 25.136719 75.238281 25.164062 74.699219 24.957031 L 73.652344 24.625 L 72.542969 24.296875 C 72.15625 24.207031 71.855469 24.234375 71.855469 24.386719 C 71.855469 24.59375 73.171875 25.046875 74.640625 25.34375 C 74.761719 25.34375 76.078125 24.144531 77.542969 22.675781 Z M 78.324219 25.105469 C 78.113281 24.777344 80.628906 24.117188 81.347656 24.355469 C 81.796875 24.503906 81.828125 24.476562 81.4375 24.175781 C 81.046875 23.875 81.109375 23.847656 81.675781 23.964844 C 82.097656 24.054688 82.277344 23.996094 82.125 23.816406 C 82.007812 23.574219 82.277344 23.546875 82.964844 23.664062 C 83.53125 23.753906 83.800781 23.753906 83.621094 23.695312 C 83.414062 23.605469 83.863281 23.1875 84.671875 22.765625 C 86.316406 21.894531 87.605469 20.757812 88.203125 19.617188 C 88.621094 18.808594 88.621094 18.777344 87.753906 18.777344 C 87.304688 18.777344 86.738281 18.988281 86.527344 19.226562 C 86.347656 19.464844 85.148438 20.214844 83.890625 20.9375 C 82.605469 21.625 81.316406 22.375 80.988281 22.585938 L 79.941406 23.15625 L 78.171875 24.117188 C 77.035156 24.777344 76.945312 24.925781 77.425781 25.105469 C 78.203125 25.433594 78.503906 25.433594 78.324219 25.105469 Z M 86.4375 23.066406 C 87.785156 22.644531 88.382812 22.195312 90 20.394531 L 91.917969 18.238281 L 90.660156 18.386719 C 89.941406 18.476562 89.25 18.714844 89.070312 18.957031 L 87.933594 20.578125 C 87.457031 21.234375 86.378906 22.195312 85.539062 22.675781 C 83.773438 23.695312 84.070312 23.816406 86.4375 23.066406 Z M 86.4375 23.066406 "
    />
    <path
      style="stroke: none; fill-rule: nonzero; fill: rgb(79.215686%, 80%, 65.098039%); fill-opacity: 1"
      d="M 41.316406 52.519531 L 39.761719 52.21875 C 37.722656 51.890625 38.5625 51.589844 40.808594 51.832031 C 43.113281 52.101562 44.910156 51.921875 44.910156 51.472656 C 44.910156 51.289062 44.820312 51.171875 44.699219 51.171875 C 44.550781 51.171875 44.070312 50.8125 43.59375 50.390625 C 42.1875 49.160156 42.964844 49.191406 44.609375 50.449219 L 46.136719 51.621094 L 45.148438 52.039062 C 44.132812 52.460938 42.125 52.730469 41.316406 52.519531 Z M 44.761719 41.960938 C 43.082031 41.722656 41.617188 41.242188 41.617188 40.941406 C 41.617188 40.734375 41.855469 40.703125 42.125 40.824219 L 44.160156 41.332031 C 45.6875 41.664062 47.035156 42.203125 46.109375 42.113281 Z M 26.945312 36.171875 L 24.25 33.804688 C 23.53125 33.144531 22.992188 32.542969 23.082031 32.453125 C 23.171875 32.363281 24.101562 32.753906 25.148438 33.324219 C 26.226562 33.894531 27.722656 34.671875 28.503906 35.035156 C 29.28125 35.421875 29.941406 35.875 29.941406 36.082031 C 29.941406 36.292969 28.980469 35.964844 27.664062 35.273438 L 25.390625 34.105469 L 27.15625 35.722656 C 28.113281 36.625 28.742188 37.34375 28.59375 37.375 C 28.414062 37.375 27.664062 36.832031 26.945312 36.171875 Z M 34.640625 33.175781 C 34.011719 33.054688 33.351562 32.785156 33.144531 32.574219 C 32.84375 32.273438 33.054688 32.246094 34.132812 32.425781 C 34.851562 32.542969 35.988281 32.8125 36.675781 33.023438 L 37.875 33.414062 L 36.828125 33.414062 C 36.257812 33.414062 35.269531 33.292969 34.640625 33.175781 Z M 6.585938 30.984375 C 5.417969 29.632812 5.359375 29.515625 6.136719 30.023438 C 7.066406 30.59375 7.542969 31.105469 8.113281 32.0625 C 8.683594 33.023438 7.933594 32.515625 6.585938 30.984375 Z M 68.082031 30.925781 C 67.785156 30.683594 67.632812 30.472656 67.785156 30.472656 C 67.933594 30.472656 67.84375 30.234375 67.632812 29.964844 C 67.246094 29.484375 67.277344 29.453125 67.753906 29.84375 C 68.292969 30.292969 68.472656 29.90625 67.933594 29.363281 C 67.542969 28.976562 68.113281 28.523438 69.042969 28.523438 C 69.671875 28.496094 69.671875 28.523438 69.222656 29.273438 C 68.953125 29.695312 68.59375 30.113281 68.441406 30.203125 C 68.054688 30.503906 68.53125 31.074219 69.191406 31.074219 C 69.519531 31.074219 69.730469 30.953125 69.640625 30.835938 C 69.550781 30.683594 69.671875 30.566406 69.910156 30.566406 C 70.507812 30.566406 70.480469 30.953125 69.878906 31.195312 C 69.160156 31.464844 68.710938 31.40625 68.082031 30.925781 Z M 68.863281 29.125 C 68.863281 28.886719 68.742188 28.675781 68.59375 28.675781 C 68.203125 28.675781 67.933594 29.15625 68.171875 29.394531 C 68.503906 29.726562 68.863281 29.574219 68.863281 29.125 Z M 23.144531 27.773438 L 23.773438 25.734375 C 24.070312 24.867188 24.222656 23.9375 24.101562 23.636719 C 23.921875 23.15625 23.863281 23.1875 23.472656 23.726562 C 23.054688 24.296875 23.023438 24.234375 23.113281 22.976562 C 23.171875 21.925781 23.082031 21.625 22.722656 21.535156 C 22.394531 21.476562 22.15625 21.714844 22.035156 22.195312 C 21.917969 22.644531 21.707031 22.976562 21.558594 22.976562 C 21.167969 22.976562 21.167969 22.796875 21.738281 21.746094 C 21.976562 21.234375 22.125 20.636719 22.035156 20.394531 C 21.945312 20.15625 22.066406 19.976562 22.277344 19.976562 C 22.515625 19.976562 22.753906 19.828125 22.8125 19.617188 C 22.902344 19.375 23.082031 19.375 23.382812 19.554688 C 23.621094 19.707031 24.519531 19.976562 25.417969 20.125 C 26.316406 20.304688 27.097656 20.578125 27.15625 20.785156 C 27.246094 21.027344 26.976562 21.054688 26.136719 20.847656 C 25.507812 20.695312 24.730469 20.578125 24.429688 20.578125 C 23.832031 20.578125 23.832031 20.578125 24.429688 21.027344 C 24.730469 21.265625 25.449219 21.535156 25.988281 21.65625 C 26.496094 21.746094 26.945312 21.957031 26.945312 22.105469 C 26.945312 22.496094 26.257812 22.4375 25.058594 21.925781 C 24.460938 21.6875 23.921875 21.476562 23.832031 21.476562 C 23.53125 21.476562 23.953125 22.765625 24.402344 23.277344 C 24.96875 23.90625 24.96875 24.746094 24.402344 25.496094 C 24.160156 25.824219 23.953125 26.304688 23.953125 26.574219 C 23.953125 26.84375 23.742188 27.324219 23.472656 27.65625 C 23.171875 28.015625 23.054688 28.074219 23.144531 27.773438 Z M 31.136719 27.566406 L 29.371094 26.84375 C 28.980469 26.695312 28.710938 26.484375 28.800781 26.425781 C 29.011719 26.214844 32.632812 27.535156 32.632812 27.835938 C 32.632812 28.164062 32.367188 28.105469 31.136719 27.566406 Z M 40.808594 24.355469 C 39.730469 23.9375 39.222656 23.546875 39.222656 23.1875 C 39.222656 22.765625 39.371094 22.707031 40.058594 22.855469 C 40.507812 22.976562 41.078125 23.15625 41.347656 23.304688 C 41.617188 23.457031 41.945312 23.457031 42.066406 23.335938 C 42.214844 23.214844 42.214844 23.277344 42.125 23.457031 C 42.007812 23.664062 42.1875 23.875 42.515625 23.964844 C 42.902344 24.054688 43.054688 24.265625 42.933594 24.59375 C 42.722656 25.164062 42.785156 25.164062 40.808594 24.355469 Z M 67.964844 24.324219 C 67.542969 24.085938 67.367188 23.90625 67.515625 23.90625 C 67.695312 23.90625 68.144531 24.085938 68.5625 24.324219 C 68.980469 24.566406 69.191406 24.746094 69.011719 24.746094 C 68.863281 24.746094 68.382812 24.566406 67.964844 24.324219 Z M 29.339844 20.695312 C 29.339844 19.976562 29.402344 19.945312 30.898438 20.035156 C 31.886719 20.097656 32.484375 20.277344 32.574219 20.546875 C 32.695312 20.875 32.425781 20.9375 31.257812 20.785156 C 30.449219 20.695312 29.96875 20.695312 30.179688 20.785156 C 30.628906 20.964844 30.359375 21.476562 29.761719 21.476562 C 29.519531 21.476562 29.339844 21.175781 29.339844 20.695312 Z M 9.25 18.867188 C 8.863281 18.417969 8.890625 18.417969 9.582031 18.777344 C 10.597656 19.285156 10.660156 19.375 10.121094 19.375 C 9.851562 19.375 9.460938 19.167969 9.25 18.867188 Z M 29.042969 8.667969 C 28.621094 8.609375 28.113281 8.277344 27.902344 7.980469 C 27.484375 7.289062 27.664062 7.257812 29.011719 7.707031 C 30.300781 8.160156 30.539062 7.859375 29.371094 7.230469 C 28.054688 6.570312 28.144531 5.878906 29.582031 5.878906 C 30.179688 5.878906 30.898438 6.027344 31.136719 6.179688 C 31.46875 6.390625 31.289062 6.480469 30.417969 6.480469 L 29.25 6.480469 L 30.269531 7.167969 C 30.839844 7.527344 31.316406 8.070312 31.378906 8.367188 C 31.496094 8.878906 30.929688 8.96875 29.042969 8.667969 Z M 17.367188 3.988281 C 17.367188 3.269531 17.484375 3.179688 18.414062 3.179688 C 19.101562 3.179688 19.460938 3.328125 19.460938 3.597656 C 19.460938 3.898438 19.25 3.960938 18.832031 3.871094 C 18.382812 3.75 18.023438 3.871094 17.785156 4.230469 C 17.394531 4.769531 17.367188 4.738281 17.367188 3.988281 Z M 17.367188 3.988281 "
    />
    <path
      style="stroke: none; fill-rule: nonzero; fill: rgb(87.843137%, 88.627451%, 71.372549%); fill-opacity: 1"
      d="M 11.078125 55.519531 C 11.078125 55.21875 10.75 55.070312 10.03125 55.070312 C 8.773438 55.070312 7.574219 54.558594 7.335938 53.898438 C 7.246094 53.628906 7.066406 52.550781 6.976562 51.472656 C 6.886719 50.390625 6.585938 48.679688 6.257812 47.660156 C 5.390625 44.722656 4.492188 39.621094 4.492188 37.582031 C 4.492188 34.433594 4.222656 33.652344 2.664062 31.792969 C 1.855469 30.835938 1.199219 29.90625 1.199219 29.726562 C 1.199219 29.15625 2.425781 28.195312 4.789062 26.875 C 8.53125 24.746094 11.078125 22.734375 11.078125 21.867188 C 11.078125 20.578125 12.007812 19.40625 13.324219 19.015625 C 14.519531 18.6875 17.425781 18.535156 18.261719 18.777344 C 18.800781 18.957031 19.070312 17.425781 18.59375 16.855469 C 18.414062 16.648438 17.933594 15.539062 17.484375 14.398438 C 16.796875 12.507812 16.707031 11.96875 16.738281 8.308594 C 16.796875 4.257812 17.007812 3.179688 17.8125 3.179688 C 18.351562 3.179688 18.382812 3.539062 17.933594 3.988281 C 17.785156 4.140625 17.542969 5.96875 17.457031 8.007812 C 17.335938 11.066406 17.394531 11.96875 17.8125 13.078125 C 18.082031 13.828125 18.382812 14.726562 18.472656 15.117188 C 18.5625 15.476562 18.832031 15.777344 19.042969 15.777344 C 19.582031 15.777344 19.582031 15.355469 19.011719 14.878906 C 18.472656 14.425781 18.382812 10.976562 18.921875 10.4375 C 19.402344 9.957031 20.210938 10.5 20.6875 11.636719 L 21.078125 12.628906 L 21.199219 10.707031 L 21.289062 8.820312 L 22.484375 9 C 23.113281 9.089844 23.652344 9.117188 23.652344 9.027344 C 23.652344 8.9375 23.351562 8.457031 22.992188 7.949219 C 22.425781 7.167969 22.394531 7.019531 22.753906 6.777344 C 23.5625 6.269531 25.71875 6.480469 27.605469 7.230469 C 30.058594 8.21875 30.628906 8.1875 29.339844 7.140625 C 28.683594 6.570312 28.441406 6.207031 28.683594 6.058594 C 28.890625 5.9375 29.042969 6.027344 29.042969 6.300781 C 29.042969 6.570312 29.191406 6.777344 29.339844 6.777344 C 29.941406 6.777344 31.4375 8.097656 31.40625 8.546875 C 31.40625 8.878906 31.347656 8.910156 31.226562 8.667969 C 31.078125 8.21875 30.238281 8.128906 30.238281 8.546875 C 30.238281 8.96875 27.992188 8.429688 26.886719 7.738281 C 25.929688 7.140625 23.351562 6.777344 23.351562 7.257812 C 23.351562 7.347656 23.683594 7.886719 24.101562 8.488281 C 25.179688 10.078125 24.820312 10.316406 22.394531 9.597656 C 21.945312 9.476562 21.886719 9.75 21.796875 11.636719 C 21.738281 12.867188 21.585938 13.828125 21.40625 13.796875 C 21.257812 13.796875 20.777344 13.136719 20.390625 12.386719 C 20 11.609375 19.550781 10.976562 19.402344 10.976562 C 19.28125 10.976562 19.160156 11.726562 19.160156 12.628906 C 19.160156 13.859375 19.28125 14.335938 19.609375 14.488281 C 19.878906 14.578125 20.300781 15.058594 20.570312 15.566406 C 20.808594 16.078125 21.675781 17.335938 22.484375 18.386719 C 23.652344 19.855469 23.863281 20.277344 23.441406 20.304688 C 23.023438 20.304688 23.082031 20.394531 23.652344 20.667969 C 24.070312 20.847656 24.460938 21.117188 24.550781 21.234375 C 24.640625 21.355469 25.359375 21.597656 26.167969 21.777344 C 27.8125 22.136719 29.640625 22.855469 29.640625 23.125 C 29.640625 23.394531 27.933594 23.007812 26.496094 22.375 C 24.761719 21.625 23.5625 21.386719 23.800781 21.804688 C 23.980469 22.046875 23.863281 22.046875 23.382812 21.804688 C 23.054688 21.597656 22.753906 21.296875 22.722656 21.085938 C 22.722656 20.875 22.515625 21.175781 22.277344 21.746094 C 21.738281 22.945312 21.40625 22.824219 21.855469 21.625 C 22.425781 20.15625 21.648438 19.375 20.75 20.515625 C 20.390625 20.964844 20.359375 20.875 20.507812 19.765625 C 20.628906 19.046875 20.597656 18.476562 20.449219 18.476562 C 19.851562 18.507812 19.402344 19.078125 18.742188 20.785156 C 18.351562 21.777344 17.875 22.855469 17.695312 23.15625 C 17.367188 23.636719 17.335938 23.605469 17.484375 22.765625 C 17.722656 21.328125 17.125 21.535156 16.40625 23.15625 C 15.75 24.65625 15.808594 26.035156 16.617188 27.953125 C 16.917969 28.703125 17.214844 28.976562 17.722656 28.976562 C 18.113281 28.976562 19.101562 29.304688 19.96875 29.695312 L 21.527344 30.445312 L 22.457031 28.792969 C 22.933594 27.894531 23.441406 27.175781 23.53125 27.175781 C 23.773438 27.175781 23.351562 28.34375 22.664062 29.542969 C 22.304688 30.113281 21.976562 31.015625 21.945312 31.523438 C 21.917969 32.035156 21.496094 33.324219 21.019531 34.402344 C 19.878906 36.863281 19.402344 38.152344 18.441406 41.121094 L 17.664062 43.523438 L 19.730469 45.53125 C 20.898438 46.640625 22.484375 47.902344 23.324219 48.292969 C 24.640625 48.980469 25.507812 49.671875 25 49.671875 C 24.429688 49.671875 21.109375 47.511719 19.429688 46.042969 L 17.484375 44.332031 L 17.15625 45.140625 C 16.945312 45.5625 16.648438 46.492188 16.46875 47.179688 C 16.167969 48.410156 16.167969 48.5 17.425781 50.089844 C 18.144531 50.992188 18.921875 51.800781 19.160156 51.921875 C 19.402344 52.011719 20.570312 52.191406 21.707031 52.28125 C 23.953125 52.429688 28.054688 53.300781 29.878906 54.019531 C 30.988281 54.441406 34.761719 55.371094 35.417969 55.371094 C 35.597656 55.371094 34.550781 54.171875 33.082031 52.671875 C 31.617188 51.199219 30.507812 49.882812 30.628906 49.761719 C 30.75 49.640625 31.976562 49.910156 33.324219 50.359375 C 34.671875 50.78125 36.707031 51.289062 37.875 51.472656 C 40.179688 51.832031 40.71875 52.070312 39.25 52.070312 C 38.414062 52.070312 38.292969 52.160156 38.382812 52.730469 C 38.503906 53.628906 39.640625 53.898438 43.113281 53.839844 C 46.40625 53.78125 48.59375 53.300781 50.300781 52.21875 C 51.136719 51.679688 51.886719 51.472656 52.902344 51.472656 C 55.03125 51.472656 57.574219 51.949219 59.042969 52.640625 C 60.121094 53.152344 60.359375 53.152344 60.417969 52.789062 C 60.480469 52.550781 60.328125 52.039062 60.089844 51.652344 C 59.820312 51.261719 59.550781 50.480469 59.429688 49.910156 C 59.25 48.890625 59.3125 48.800781 61.136719 47.421875 C 62.15625 46.640625 63.773438 45.652344 64.671875 45.230469 C 66.765625 44.242188 70.359375 41.933594 70.359375 41.574219 C 70.359375 41.300781 68.234375 41.84375 66.167969 42.652344 C 65.597656 42.863281 63.113281 43.523438 60.628906 44.121094 C 58.171875 44.722656 55.269531 45.621094 54.191406 46.132812 C 51.40625 47.421875 50.839844 47.453125 47.753906 46.371094 C 45.867188 45.683594 44.3125 45.351562 42.515625 45.230469 L 40 45.082031 L 40.507812 45.800781 L 41.738281 47.601562 C 42.125 48.203125 42.84375 49.011719 43.324219 49.402344 C 44.878906 50.75 45.089844 51.261719 43.652344 50.300781 C 42.902344 49.792969 41.648438 48.5 40.839844 47.390625 C 39.910156 46.132812 38.980469 45.230469 38.171875 44.84375 C 34.808594 43.34375 31.796875 41.144531 29.339844 38.394531 C 26.4375 35.394531 26.527344 35.421875 30.839844 38.902344 C 32.574219 40.3125 35.210938 42.140625 36.707031 42.980469 C 39.339844 44.421875 39.550781 44.480469 42.394531 44.660156 C 44.609375 44.78125 45.898438 45.023438 47.457031 45.621094 C 50.597656 46.820312 51.136719 46.851562 53.324219 45.832031 C 55.449219 44.84375 57.304688 44.273438 61.078125 43.402344 C 62.484375 43.074219 64.851562 42.414062 66.316406 41.933594 L 69.011719 41.03125 L 64.460938 41.210938 C 61.199219 41.300781 59.878906 41.273438 59.878906 41.03125 C 59.878906 40.851562 59.671875 40.761719 59.429688 40.851562 C 58.800781 41.121094 58.144531 40.492188 57.933594 39.414062 C 57.605469 37.941406 55.417969 35.992188 53.863281 35.722656 C 53.144531 35.632812 51.585938 35.332031 50.390625 35.09375 C 49.191406 34.855469 47.1875 34.671875 45.898438 34.671875 C 43.683594 34.671875 36.648438 33.5625 36.945312 33.234375 C 37.035156 33.175781 38.832031 33.265625 40.929688 33.472656 C 43.023438 33.683594 45.359375 33.773438 46.109375 33.742188 L 47.457031 33.625 L 47.335938 31.972656 C 47.277344 31.074219 47.097656 30.234375 46.886719 30.113281 C 46.707031 29.996094 44.640625 29.875 42.304688 29.875 C 37.902344 29.875 37.964844 29.875 32.066406 27.894531 C 31.828125 27.835938 31.707031 27.683594 31.796875 27.625 C 31.855469 27.535156 33.261719 27.804688 34.851562 28.226562 C 37.277344 28.824219 38.53125 28.976562 41.765625 28.976562 L 45.71875 28.976562 L 45.929688 27.746094 C 46.167969 26.273438 46.046875 26.066406 44.820312 25.824219 C 44.3125 25.707031 43.324219 25.34375 42.664062 25.015625 C 42.007812 24.6875 40.449219 24.117188 39.191406 23.726562 C 37.1875 23.125 35.929688 22.554688 33.710938 21.265625 C 33.382812 21.054688 32.785156 20.875 32.425781 20.875 C 32.066406 20.875 31.707031 20.695312 31.648438 20.515625 C 31.558594 20.277344 31.46875 20.246094 31.46875 20.457031 C 31.4375 20.636719 31.109375 20.726562 30.6875 20.636719 C 30.089844 20.546875 29.96875 20.605469 30.121094 20.996094 C 30.300781 21.417969 30.121094 21.476562 29.011719 21.328125 C 27.8125 21.175781 25.777344 20.695312 25 20.394531 C 24.851562 20.335938 25.507812 20.335938 26.496094 20.425781 C 28.234375 20.578125 28.351562 20.546875 29.222656 19.617188 C 31.167969 17.515625 31.675781 16.378906 31.796875 13.886719 C 31.945312 11.367188 31.828125 11.066406 30.390625 10.917969 C 29.371094 10.828125 29.339844 11.007812 29.878906 13.976562 C 30.089844 15.175781 30.089844 15.6875 29.820312 15.835938 C 29.3125 16.167969 26.945312 16.105469 26.945312 15.777344 C 26.945312 15.628906 27.484375 15.476562 28.144531 15.476562 L 29.371094 15.476562 L 29.132812 14.367188 C 29.011719 13.738281 28.890625 12.628906 28.890625 11.878906 L 28.890625 10.527344 L 30.480469 10.527344 L 32.035156 10.558594 L 32.035156 6.480469 L 30.988281 6.480469 C 29.671875 6.480469 29.582031 5.878906 30.929688 5.847656 C 31.4375 5.847656 32.425781 5.667969 33.082031 5.460938 L 34.28125 5.097656 L 32.785156 4.859375 C 28.414062 4.199219 27.457031 3.210938 29.789062 1.679688 L 30.628906 1.140625 L 29.519531 0.929688 C 28.773438 0.78125 28.054688 0.871094 27.304688 1.167969 C 24.941406 2.191406 22.367188 2.789062 21.347656 2.578125 C 20.417969 2.339844 20.359375 2.371094 20.359375 3.179688 C 20.359375 4.257812 19.96875 4.527344 19.160156 4.019531 C 18.382812 3.539062 18.382812 3.179688 19.160156 3.179688 C 19.640625 3.179688 19.761719 2.96875 19.761719 2.28125 C 19.761719 1.230469 20.328125 1.109375 21.855469 1.859375 C 22.722656 2.308594 22.902344 2.308594 23.621094 1.917969 C 24.042969 1.648438 24.878906 1.351562 25.449219 1.230469 C 26.019531 1.109375 26.828125 0.75 27.277344 0.421875 C 27.902344 -0.0585938 28.203125 -0.121094 28.683594 0.148438 C 29.011719 0.328125 29.851562 0.480469 30.507812 0.480469 C 31.199219 0.480469 31.738281 0.539062 31.738281 0.628906 C 31.738281 0.71875 31.257812 1.199219 30.6875 1.710938 C 28.921875 3.300781 29.402344 4.078125 32.214844 4.078125 C 34.25 4.078125 35.359375 4.410156 35.269531 4.949219 C 35.210938 5.21875 34.761719 5.578125 34.28125 5.730469 C 32.605469 6.300781 32.632812 6.179688 32.632812 11.367188 C 32.632812 16.707031 32.632812 16.675781 30.570312 18.867188 L 29.519531 19.976562 L 30.6875 19.976562 C 32.394531 20.007812 34.460938 20.515625 35.328125 21.144531 C 35.75 21.445312 36.886719 21.925781 37.875 22.226562 C 38.863281 22.496094 39.820312 22.824219 39.96875 22.976562 C 40.148438 23.097656 41.136719 23.484375 42.214844 23.816406 C 44.941406 24.6875 46.226562 25.195312 46.4375 25.464844 C 46.527344 25.617188 46.558594 26.367188 46.46875 27.207031 C 46.378906 28.136719 46.4375 28.675781 46.648438 28.675781 C 47.457031 28.675781 47.902344 29.664062 47.902344 31.40625 C 47.902344 33.503906 47.902344 33.503906 52.125 34.375 C 55.957031 35.152344 57.066406 35.902344 58.324219 38.453125 C 58.742188 39.261719 59.222656 39.773438 59.699219 39.894531 C 60.121094 39.984375 62.964844 40.042969 66.019531 40.042969 C 69.402344 40.011719 71.707031 40.101562 71.886719 40.28125 C 72.394531 40.792969 69.492188 43.101562 65.988281 44.960938 C 62.457031 46.851562 60.210938 48.320312 60 48.921875 C 59.910156 49.101562 60.179688 50.179688 60.597656 51.289062 C 61.496094 53.839844 61.316406 53.960938 57.964844 52.878906 C 56.617188 52.460938 54.761719 52.039062 53.832031 51.921875 C 52.246094 51.742188 51.976562 51.832031 49.519531 53.03125 L 46.886719 54.320312 L 42.515625 54.378906 L 38.171875 54.410156 L 38.082031 55.21875 C 37.875 56.75 37.277344 55.789062 37.1875 53.808594 L 37.097656 51.832031 L 35.75 51.621094 C 35 51.53125 33.863281 51.230469 33.203125 51.019531 C 32.574219 50.78125 32.035156 50.632812 32.035156 50.691406 L 34.519531 53.300781 C 36.976562 55.820312 36.976562 55.820312 36.078125 55.910156 C 35.597656 55.941406 33.351562 55.519531 31.136719 54.921875 C 24.699219 53.210938 23.59375 53 21.886719 52.96875 C 19.789062 52.96875 18.054688 52.101562 17.007812 50.570312 C 16.558594 49.910156 16.046875 49.371094 15.898438 49.371094 C 15.777344 49.371094 15.179688 50.421875 14.582031 51.710938 C 13.980469 53 13.292969 54.230469 13.054688 54.441406 C 12.785156 54.679688 12.574219 55.101562 12.574219 55.398438 C 12.574219 55.820312 12.367188 55.96875 11.828125 55.96875 C 11.347656 55.96875 11.078125 55.789062 11.078125 55.519531 Z M 12.664062 53.75 C 13.113281 53.210938 13.683594 52.160156 13.953125 51.441406 C 14.25 50.722656 14.582031 49.972656 14.699219 49.792969 C 14.851562 49.609375 15.179688 48.890625 15.417969 48.171875 C 15.867188 46.941406 15.867188 46.882812 15.328125 47.363281 C 14.671875 47.960938 12.304688 49.042969 11.648438 49.070312 C 11.167969 49.070312 9.851562 46.339844 9.402344 44.480469 L 9.191406 43.640625 L 8.351562 44.453125 C 7.246094 45.5 7.214844 44.902344 8.324219 43.613281 C 9.761719 41.902344 9.96875 41.121094 9.28125 39.832031 C 8.953125 39.234375 8.203125 38.125 7.632812 37.375 C 7.097656 36.625 6.617188 35.875 6.617188 35.722656 C 6.585938 35.542969 6.316406 35.242188 5.988281 35.035156 C 5.417969 34.703125 5.390625 34.734375 5.539062 35.332031 C 5.597656 35.722656 5.839844 37.703125 5.988281 39.714844 C 6.167969 41.753906 6.46875 43.792969 6.617188 44.210938 C 7.1875 45.710938 7.785156 48.742188 7.933594 50.929688 C 8.171875 54.019531 8.652344 54.589844 11.109375 54.738281 C 11.675781 54.769531 12.125 54.5 12.664062 53.75 Z M 13.890625 47.242188 C 16.316406 45.621094 16.4375 45.351562 19.222656 36.234375 C 19.460938 35.484375 19.402344 34.914062 18.980469 33.742188 C 18.683594 32.902344 18.292969 32.125 18.082031 31.945312 C 17.875 31.765625 17.15625 32.0625 15.988281 32.84375 C 14.101562 34.074219 14.070312 34.132812 11.347656 39.921875 C 9.96875 42.800781 9.910156 43.3125 10.660156 45.621094 C 11.617188 48.589844 11.765625 48.652344 13.890625 47.242188 Z M 11.378906 37.703125 C 11.378906 37.492188 10.660156 36.351562 9.789062 35.152344 C 8.890625 33.984375 8.023438 32.722656 7.8125 32.363281 C 7.125 31.042969 7.933594 31.703125 9.429688 33.652344 L 11.40625 36.261719 C 11.886719 36.894531 11.917969 36.863281 12.695312 35.421875 C 13.144531 34.582031 13.832031 33.472656 14.222656 32.933594 C 14.609375 32.394531 15.210938 31.105469 15.570312 30.054688 C 16.136719 28.285156 16.167969 28.074219 15.75 26.84375 C 15.148438 25.164062 15.148438 25.105469 15.898438 23.15625 C 16.257812 22.136719 16.738281 21.445312 17.066406 21.328125 C 17.394531 21.207031 17.875 20.9375 18.113281 20.695312 C 19.460938 19.347656 17.542969 18.746094 14.371094 19.527344 L 12.277344 20.035156 L 12.277344 21.597656 C 12.277344 22.976562 12.15625 23.246094 11.316406 23.996094 C 9.519531 25.554688 7.484375 26.875 4.789062 28.226562 C 4.042969 28.613281 3.203125 29.183594 2.902344 29.515625 C 2.394531 30.085938 2.394531 30.144531 3.621094 31.554688 L 5.359375 33.535156 C 6.496094 34.703125 7.15625 35.574219 8.683594 37.941406 L 10.300781 40.460938 L 10.839844 39.292969 C 11.136719 38.664062 11.378906 37.941406 11.378906 37.703125 Z M 21.257812 31.734375 C 21.257812 31.195312 20.957031 30.925781 20 30.503906 C 19.28125 30.203125 18.203125 29.84375 17.574219 29.753906 C 16.46875 29.542969 16.4375 29.574219 15.867188 30.835938 C 15.570312 31.523438 15.359375 32.152344 15.390625 32.214844 C 15.449219 32.273438 15.957031 32.035156 16.496094 31.703125 C 17.066406 31.34375 17.722656 31.074219 17.964844 31.074219 C 18.234375 31.074219 18.800781 31.855469 19.3125 32.875 L 20.210938 34.671875 L 20.71875 33.535156 C 21.019531 32.933594 21.257812 32.125 21.257812 31.734375 Z M 21.675781 18.535156 C 20.328125 16.226562 19.460938 15.808594 19.460938 17.457031 C 19.460938 18.058594 19.609375 18.175781 20.359375 18.175781 C 21.046875 18.175781 21.257812 18.296875 21.257812 18.777344 C 21.257812 19.105469 21.46875 19.375 21.738281 19.375 C 22.125 19.375 22.125 19.285156 21.675781 18.535156 Z M 21.675781 18.535156 "
    />
    <path
      style="stroke: none; fill-rule: nonzero; fill: rgb(87.843137%, 88.627451%, 71.372549%); fill-opacity: 1"
      d="M 41.855469 52.160156 C 42.394531 52.101562 43.203125 52.101562 43.652344 52.160156 C 44.101562 52.21875 43.652344 52.28125 42.664062 52.28125 C 41.675781 52.28125 41.316406 52.21875 41.855469 52.160156 Z M 89.910156 41.121094 C 89.910156 40.460938 89.96875 40.222656 90.03125 40.613281 C 90.089844 40.972656 90.089844 41.511719 90.03125 41.8125 C 89.941406 42.082031 89.878906 41.78125 89.910156 41.121094 Z M 43.203125 41.664062 C 42.574219 41.421875 42.753906 41.003906 43.414062 41.183594 C 43.742188 41.273438 44.011719 41.453125 44.011719 41.601562 C 44.011719 41.902344 43.773438 41.902344 43.203125 41.664062 Z M 39.371094 40.523438 C 35.210938 39.144531 29.070312 36.324219 28.621094 35.605469 C 28.382812 35.242188 29.671875 35.574219 30.238281 36.023438 C 30.480469 36.203125 31.167969 36.5625 31.738281 36.773438 C 32.304688 36.984375 32.933594 37.285156 33.082031 37.402344 C 33.5625 37.761719 40.179688 40.28125 41.226562 40.523438 C 42.125 40.703125 42.722656 41.152344 42.457031 41.421875 C 42.394531 41.484375 41.019531 41.09375 39.371094 40.523438 Z M 91.316406 40.761719 C 91.316406 40.074219 91.648438 39.621094 92.304688 39.382812 C 92.84375 39.171875 93.023438 37.972656 92.484375 37.972656 C 92.335938 37.972656 92.246094 37.851562 92.335938 37.703125 C 92.574219 37.34375 91.136719 37.011719 90.328125 37.222656 C 89.96875 37.285156 89.820312 37.285156 90.03125 37.191406 C 90.238281 37.101562 90.300781 36.832031 90.210938 36.59375 C 90.03125 36.082031 90.507812 36.054688 91.796875 36.535156 C 92.367188 36.714844 92.84375 37.164062 92.933594 37.492188 C 93.023438 37.851562 93.441406 38.511719 93.890625 38.992188 C 94.609375 39.773438 94.640625 39.832031 94.070312 39.652344 C 93.710938 39.53125 93.171875 39.5625 92.902344 39.742188 C 92.335938 40.042969 92.394531 40.101562 93.863281 40.492188 C 94.191406 40.582031 93.890625 40.582031 93.203125 40.523438 C 92.1875 40.402344 91.917969 40.460938 91.917969 40.824219 C 91.917969 41.0625 91.796875 41.273438 91.617188 41.273438 C 91.46875 41.273438 91.316406 41.03125 91.316406 40.761719 Z M 96.496094 40.164062 C 96.765625 40.101562 97.007812 39.804688 97.007812 39.53125 C 97.007812 39.144531 97.097656 39.144531 97.367188 39.414062 C 97.664062 39.714844 97.664062 39.863281 97.304688 40.074219 C 97.066406 40.222656 96.648438 40.34375 96.40625 40.34375 C 96.078125 40.3125 96.109375 40.253906 96.496094 40.164062 Z M 77.785156 37.734375 C 77.214844 37.671875 77.035156 37.492188 77.15625 37.191406 C 77.335938 36.714844 78.324219 36.625 78.59375 37.074219 C 78.710938 37.253906 78.890625 37.3125 79.042969 37.222656 C 79.191406 37.132812 79.371094 37.191406 79.460938 37.34375 C 79.671875 37.671875 78.863281 37.851562 77.785156 37.734375 Z M 88.832031 36.59375 C 88.921875 36.351562 89.160156 36.171875 89.402344 36.171875 C 90.03125 36.171875 89.910156 36.683594 89.25 36.863281 C 88.832031 36.953125 88.710938 36.894531 88.832031 36.59375 Z M 80.988281 35.753906 C 81.496094 35.511719 81.945312 35.394531 82.007812 35.453125 C 82.214844 35.664062 81.917969 35.8125 80.988281 35.992188 L 80.089844 36.171875 Z M 26.316406 34.34375 C 25.75 33.863281 25.71875 33.804688 26.199219 34.042969 C 27.214844 34.554688 27.722656 34.972656 27.367188 34.972656 C 27.15625 34.972656 26.707031 34.703125 26.316406 34.34375 Z M 70.570312 33.894531 C 70.449219 33.773438 70.449219 33.5625 70.539062 33.445312 C 70.75 33.054688 71.855469 33.113281 71.855469 33.503906 C 71.855469 33.683594 71.585938 33.742188 71.226562 33.625 C 70.777344 33.472656 70.660156 33.503906 70.777344 33.742188 C 71.019531 34.105469 70.867188 34.195312 70.570312 33.894531 Z M 71.617188 29.964844 C 71.558594 27.476562 71.617188 27.175781 72.097656 27.207031 C 72.425781 27.207031 72.457031 27.265625 72.214844 27.386719 C 71.917969 27.503906 71.917969 27.625 72.1875 27.953125 C 72.425781 28.226562 72.425781 28.375 72.214844 28.375 C 72.007812 28.375 71.828125 29.246094 71.765625 30.566406 C 71.675781 32.664062 71.675781 32.632812 71.617188 29.964844 Z M 76.046875 31.34375 L 75 30.445312 L 76.136719 31.222656 C 77.125 31.945312 77.425781 32.273438 77.15625 32.273438 Z M 81.496094 31.375 C 81.496094 30.804688 81.558594 30.566406 81.648438 30.863281 C 81.707031 31.132812 81.707031 31.613281 81.648438 31.914062 C 81.558594 32.183594 81.496094 31.945312 81.496094 31.375 Z M 82.125 31.222656 C 82.125 30.566406 82.1875 30.324219 82.246094 30.714844 C 82.304688 31.074219 82.304688 31.613281 82.246094 31.914062 C 82.15625 32.183594 82.097656 31.882812 82.125 31.222656 Z M 65.6875 26.726562 C 65.480469 26.546875 64.132812 26.273438 62.542969 26.183594 C 59.851562 25.976562 59.3125 25.855469 59.640625 25.496094 C 59.910156 25.253906 65.898438 25.886719 66.199219 26.183594 C 66.347656 26.335938 66.347656 26.574219 66.226562 26.753906 C 66.078125 27.023438 65.929688 26.996094 65.6875 26.726562 Z M 68.503906 26.964844 C 67.457031 26.816406 67.425781 26.09375 68.441406 25.855469 C 69.492188 25.585938 70.269531 25.886719 70.449219 26.574219 C 70.597656 27.207031 70.390625 27.234375 68.503906 26.964844 Z M 64.011719 25.015625 C 63.054688 24.6875 62.277344 24.296875 62.277344 24.144531 C 62.277344 23.816406 62.785156 23.785156 62.992188 24.144531 C 63.082031 24.265625 63.773438 24.566406 64.519531 24.777344 C 65.269531 24.984375 65.867188 25.285156 65.867188 25.40625 C 65.867188 25.554688 65.839844 25.675781 65.808594 25.644531 Z M 75.058594 25.285156 C 74.941406 24.984375 75.121094 24.894531 75.628906 25.015625 C 76.019531 25.074219 76.257812 25.253906 76.167969 25.40625 C 75.929688 25.824219 75.238281 25.734375 75.058594 25.285156 Z M 70.449219 24.445312 C 69.042969 24.027344 68.980469 23.605469 70.359375 23.996094 C 71.019531 24.144531 71.558594 24.414062 71.558594 24.535156 C 71.558594 24.65625 71.527344 24.777344 71.496094 24.746094 Z M 77.542969 22.824219 C 78.113281 22.257812 78.621094 21.777344 78.710938 21.777344 C 78.800781 21.777344 78.414062 22.257812 77.84375 22.824219 C 77.277344 23.394531 76.765625 23.875 76.675781 23.875 C 76.585938 23.875 76.976562 23.394531 77.542969 22.824219 Z M 77.542969 22.824219 "
    />
  </g>
</svg>
