<svg xmlns="http://www.w3.org/2000/svg" id="root" viewBox="0 44 3340 1867">
  <g fill="#0F0E0D">
    <path
      d="M335 1899c-79-11-91-28-100-127-3-42-16-113-27-157-29-117-36-161-44-298-4-67-10-124-13-127l-54-59c-35-40-47-61-47-86 0-38 12-49 105-100 129-71 225-146 225-176 0-22-38-29-160-29-53 0-125-3-159-6l-61-7v-78c0-58 3-79 13-79 7 0 18-13 24-30 11-30 12-30 86-30 83 0 87 3 87 71 0 38 1 39 35 39 24 0 35 5 35 15 0 8 21 25 46 38l46 23 86-19c67-16 93-18 123-10 21 6 41 8 44 5 9-9 6-57-5-68-5-5-21-41-35-79-24-64-27-82-26-204 1-74 6-142 12-152 7-14 21-19 49-19 38 0 40-2 40-30 0-35 19-39 70-14 29 15 35 15 59 2 14-9 42-19 61-23s46-16 61-27c21-16 31-18 47-9 11 6 37 11 56 11 44 0 45 8 6 45-54 51-35 74 60 75 64 0 90 9 90 31 0 12-10 21-27 25-52 13-53 15-53 188 0 177 0 176-69 249l-35 37h39c57 1 126 18 155 39 32 23 163 61 365 107 88 19 271 69 407 110s250 74 254 74c11 0-2-102-15-109-7-5-91-14-187-21l-175-13-28-36c-36-46-111-158-111-165 0-12 29-5 113 29 48 19 90 35 95 35s27-16 49-35c51-43 76-45 93-5 11 27 24 33 170 80 165 52 180 56 180 41 0-5 18-7 40-4 50 7 64-5 85-67l16-48 77-17 89-22c7-3 13 2 13 10 0 9-35 47-77 86-43 39-73 71-67 71s82-45 169-100l158-101 100-9c55-6 102-9 103-7 1 1-32 43-73 94l-76 92-151 36c-222 54-227 55-221 65 3 5 25 14 48 20 93 25 137 76 137 163 0 15 4 27 9 27s7 9 4 20c-4 16 0 20 21 20l233 15c113 9 209 12 214 8 4-4 9-17 11-28 10-56 88-3 88 60v38l-125-5c-118-5-124-4-105 12 11 10 20 24 20 32 0 11 15 17 54 21 30 3 66 13 80 22 25 16 26 22 26 101 0 73-2 84-17 84-10 0-27 7-37 15-23 17-130 20-170 5-20-7-26-16-26-40 0-27-3-30-33-30-18 0-54-7-80-16l-47-16v-84c0-68 3-84 15-84 8 0 15-6 15-14s8-17 18-19c9-3 4-5-13-6-16-1-40-4-52-7-21-6-23-3-23 29 0 31-3 35-31 41-52 10-112 7-141-8-27-14-28-14-28 13 0 24-5 30-31 35-66 13-119 4-272-48-88-30-163-58-169-64s-13-31-15-56l-6-46h32c18 0 44 9 59 19 33 24 72 36 72 23 0-5-25-20-55-32s-55-28-55-35c0-8-15-17-32-20-31-7-67-18-273-81-155-47-314-88-319-82-2 1-6 22-10 45-6 39-4 43 19 49 24 6 25 10 25 78v73l98 17 135 27c50 13 109 73 125 127s28 57 209 48c93-4 143-3 143 4 0 5 14 10 30 10 27 0 30 3 30 34s-6 38-62 74c-35 21-83 49-108 61-80 40-189 116-189 131 0 8 6 24 14 34 8 11 15 39 15 63v43h-39c-21 0-58-9-82-19-24-11-73-23-108-27-60-7-67-5-139 32l-75 39h-169c-168 0-168 0-168 23v22l-437-1c-241-1-465-5-498-10z" />
    <path
      d="m2600 1724-67-10c-42-5-43-6-43-41v-36l138 6c154 7 153 6-28-50l-125-39-3-42c-3-42-3-42 30-42 19 0 38 4 44 9 34 33 480 131 527 116 7-2 69-6 140-10l127-7v45c0 42-2 45-31 51-17 3-91 6-164 6-105 0-155 5-243 25a914 914 0 0 1-302 19z" />
  </g>
  <g fill="#CACCA6">
    <path
      d="M0 1304V697l98 7c172 10 297 10 295-1-3-12 46-28 55-18 3 3-4 14-15 24-20 19-39 83-29 100 11 17-91 94-220 166-113 63-113 63-61 121a5284 5284 0 0 1 105 120c22 25 29 44 15 44-4 0-17-12-29-27l-22-28-7 56c-7 60 18 219 54 341 10 35 22 97 25 138 8 97 22 117 86 126 40 5 50 10 50 25 0 18-11 19-200 19H0v-606zm1242 564c3-41 4-43 33-40 17 2 91 4 166 5l136 2 75-39c76-39 77-39 166-33 60 4 107 13 141 28 29 12 55 19 58 15 4-3-3-26-15-50-38-74-33-86 62-147 47-30 120-73 163-97 43-23 89-52 103-63l25-20-35 5-75 11-40 5 39-15c22-8 41-17 43-18 1-2-68-3-155-2-86 1-162-1-169-3s-17-20-24-40c-28-87-83-129-189-143-39-6-89-17-112-25-22-8-51-14-64-14s-24-4-24-10c0-5 7-10 15-10 12 0 15-13 15-59 0-58-1-60-31-66-33-7-32 0-13-94 5-28 2-31-35-42-33-10-41-17-41-36 0-13 4-22 8-19 5 3 58 16 118 30s143 34 184 46c41 11 83 19 93 16 9-2 15 0 12 4-5 8 42 26 145 54l124 35 68 20-4-59c-3-44-10-64-24-76-18-14-17-15 21-11l40 5-40-19-40-19 35 7c19 3 48 5 63 4 20-1 26 2 21 10-4 8-3 9 5 5 21-14 61 3 61 25 0 18-4 19-52 13-87-12-82-14-80 41 5 96 8 101 70 126 31 12 61 26 67 31 18 16 34 8 38-19 4-26 4-26 6 4 1 34 30 59 57 49 7-3 13-1 11 5-1 6 32 24 72 40 82 31 91 29 91-26 0-36-57-89-87-79-15 5-16 4-3-5s13-11 0-12h-30c-11 1-12 0-2-7 9-6-4-22-45-55l-58-47-6 28c-5 21-7 17-8-20l-1-47 58-11c96-20 104-26 54-39l-59-18c-11-4-14-3-9 6 5 8 3 12-5 10-29-3-50 1-44 11 3 6 2 10-4 10-23 0-20-20 4-26 34-8 28-13-52-41-73-25-118-23-127 5-4 13-5 12-4-3 1-35-2-41-19-42-42-3-139-46-156-69-23-30-32-30-68 0-23 19-25 25-13 30 26 10 34 7 44-16 9-20 10-20 7-3-2 15 14 30 68 64 38 24 75 48 80 53 16 15-40-1-135-40-172-69-230-90-230-82 0 5 21 27 48 51 26 23 37 37 25 30-12-6-41-34-65-61-67-77-75-59-11 25 52 68 61 75 100 81 24 3 52 4 63 1 20-5 179 18 188 28 14 14-17 14-149 4-106-9-148-16-161-28-9-9-43-55-77-103-71-103-68-105 62-53 48 19 91 35 96 35s32-21 60-46l50-45 20 33c11 18 24 38 29 43 15 18 325 110 329 98 3-7 19-9 43-6 50 7 64-5 85-67l16-48 91-21c50-12 94-18 97-15s-32 42-79 85c-46 44-79 79-74 79 6 0 82-45 169-100l158-101 100-9c55-6 102-9 103-7 1 1-32 43-73 94l-76 92-151 36c-222 54-227 55-221 65 3 5 25 14 48 20 93 25 137 76 137 163 0 15 4 27 10 27s6 9-1 26c-5 15-8 28-6 31 7 7 283 32 430 39l147 7v188c0 145-3 189-12 189l-150 10c-110 8-161 7-255-5-116-15-384-86-412-108-11-10-13-9-9 2 5 17 161 70 298 102 52 12 101 25 108 29 8 4-21 14-70 25-65 14-108 17-203 12-139-7-115 8 29 18 77 6 108 3 205-19 96-22 143-27 293-29l178-3v266H1239l3-42zm1918-403c0-61-1-65-22-65-13 0-33-3-45-6-20-6-23-3-23 25 0 22 5 31 18 32 16 1 16 2 0 6-11 3-18 14-18 29 0 26 25 42 68 43 21 1 22-3 22-64zm41 55c10-6 19-18 20-28 0-10 3-12 6-4 2 6 11 12 19 12 10 0 13-14 11-57-2-56-3-58-27-54-43 6-60 20-60 51 0 24 3 28 18 23 9-3 22-10 29-15s14-5 18 2c6 10-4 16-40 22-13 2-21 12-23 31-4 30 0 32 29 17zm-205-116c-9-22-46-18-46 6 0 25 43 46 48 23 2-8 1-21-2-29zm54 16c0-16 5-30 10-30 6 0 10-6 10-14s7-16 15-20c8-3 15-15 15-26 0-18-5-20-42-15-41 5-42 4-10-5 17-6 32-13 32-15s-18-9-41-15c-43-12-99-5-99 12 0 6 7 7 16 4l42-11c21-4 19-2-7 8l-33 13 23 12c15 8 17 10 4 6-11-4-32-9-47-12-26-4-28-2-28 27 0 40 29 44 31 4l1-28 7 30c5 23 12 31 34 33 24 3 27 8 27 38 0 27 4 34 20 34s20-7 20-30zm-110-15c0-16-6-25-15-25-28 0-18 40 13 49 1 1 2-10 2-24zm260-19c36-15 32-20-19-31-25-5-32-4-26 5 5 7 1 11-11 10-61-7-69 7-12 20l34 9c1 1 16-5 34-13zm-610-75c26-7 21-9-137-42-52-10-52-11-59-55-6-45-24-71-24-37-1 14-4 13-16-7l-15-25 7 25c3 14 13 32 20 41 8 8 14 20 14 26 0 13-159-43-182-63-15-15-16-14-11 6 7 26 29 36 208 96 133 44 151 47 195 35zm190-37 32-7-39-13c-25-9-49-10-68-5l-30 9 25 10c31 13 39 14 80 6zm-60-44c6 0 30-52 30-65 0-5-77-3-87 3-6 4-15 20-19 36-6 27-5 29 19 24 17-3 24-1 20 5s0 8 11 4c10-4 21-7 26-7zm-4-105c3-14 4-38 2-55-2-16-1-27 4-24 15 10 8-13-13-40-51-65-145-74-157-16-2 8-8 20-14 25-6 6-6 1 1-12 6-13 8-23 4-23s1-7 11-15c19-15 19-15-1-15s-78 39-59 40c6 0 1 6-9 14-16 12-17 16-6 30 19 23 34 20 21-4-6-11-8-20-5-20s13 16 21 35 21 35 29 35 15 4 15 9c0 19 76 60 112 60 32 1 39-3 44-24zm-185-180c17-4 28-9 26-12-3-3-40 3-83 13l-78 17 29 24 28 25 24-30c13-17 37-33 54-37zm59-145c50-50 90-93 90-95s-30 7-66 18c-58 19-69 27-82 57-9 19-23 43-30 52-13 15-13 20-1 35 13 15 12 16-6 9l-35-11-37-11c-13-3-23-2-23 3 0 7 44 22 93 32 4 0 48-40 97-89zm26 81c-7-11 77-33 101-25 15 5 16 4 3-6s-11-11 8-7c14 3 20 1 15-5-4-8 5-9 28-5 19 3 28 3 22 1-7-3 8-17 35-31 55-29 98-67 118-105 14-27 14-28-15-28-15 0-34 7-41 15-6 8-46 33-88 57-43 23-86 48-97 55l-35 19-59 32c-38 22-41 27-25 33 26 11 36 11 30 0zm271-68c45-14 65-29 119-89l64-72-42 5c-24 3-47 11-53 19l-38 54c-16 22-52 54-80 70-59 34-49 38 30 13z" />
    <path
      d="m1380 1795-52-10c-68-11-40-21 35-13 77 9 137 3 137-12 0-6-3-10-7-10-5 0-21-12-37-26-47-41-21-40 34 2l51 39-33 14c-34 14-101 23-128 16zm115-352c-56-8-105-24-105-34 0-7 8-8 17-4l68 17c51 11 96 29 65 26l-45-5zm-595-193-90-79c-24-22-42-42-39-45s34 10 69 29c36 19 86 45 112 57 26 13 48 28 48 35s-32-4-76-27l-76-39 59 54c32 30 53 54 48 55-6 0-31-18-55-40zm257-100c-21-4-43-13-50-20-10-10-3-11 33-5 24 4 62 13 85 20l40 13h-35c-19 0-52-4-73-8zm-937-73c-39-45-41-49-15-32 31 19 47 36 66 68s-6 15-51-36zm2054-2c-10-8-15-15-10-15s2-8-5-17c-13-16-12-17 4-4 18 15 24 2 6-16-13-13 6-28 37-28 21-1 21 0 6 25-9 14-21 28-26 31-13 10 3 29 25 29 11 0 18-4 15-8-3-5 1-9 9-9 20 0 19 13-1 21-24 9-39 7-60-9zm26-60c0-8-4-15-9-15-13 0-22 16-14 24 11 11 23 6 23-9zM773 970l21-68c10-29 15-60 11-70-6-16-8-15-21 3-14 19-15 17-12-25 2-35-1-45-13-48-11-2-19 6-23 22-4 15-11 26-16 26-13 0-13-6 6-41 8-17 13-37 10-45s1-14 8-14c8 0 16-5 18-12 3-8 9-8 19-2 8 5 38 14 68 19 30 6 56 15 58 22 3 8-6 9-34 2-21-5-47-9-57-9-20 0-20 0 0 15 10 8 34 17 52 21 17 3 32 10 32 15 0 13-23 11-63-6-20-8-38-15-41-15-10 0 4 43 19 60 19 21 19 49 0 74-8 11-15 27-15 36s-7 25-16 36c-10 12-14 14-11 4zm267-7-59-24c-13-5-22-12-19-14 7-7 128 37 128 47 0 11-9 9-50-9zm323-107c-36-14-53-27-53-39 0-14 5-16 28-11 15 4 34 10 43 15s20 5 24 1c5-4 5-2 2 4-4 7 2 14 13 17 13 3 18 10 14 21-7 19-5 19-71-8zm907-1c-14-8-20-14-15-14 6 0 21 6 35 14s21 14 15 14c-5 0-21-6-35-14zM980 734c0-24 2-25 52-22 33 2 53 8 56 17 4 11-5 13-44 8-27-3-43-3-36 0 15 6 6 23-14 23-8 0-14-10-14-26zm-671-61c-13-15-12-15 11-3 34 17 36 20 18 20-9 0-22-7-29-17zm661-340c-14-2-31-13-38-23-14-23-8-24 37-9 43 15 51 5 12-16-44-22-41-45 7-45 20 0 44 5 52 10 11 7 5 10-24 10h-39l34 23c19 12 35 30 37 40 4 17-15 20-78 10zM580 177c0-24 4-27 35-27 23 0 35 5 35 14 0 10-7 12-21 9-15-4-27 0-35 12-13 18-14 17-14-8z" />
  </g>
  <g fill="#E0E2B6">
    <path
      d="M370 1895c0-10-11-15-35-15-42 0-82-17-90-39-3-9-9-45-12-81s-13-93-24-127c-29-98-59-268-59-336 0-105-9-131-61-193-27-32-49-63-49-69 0-19 41-51 120-95 125-71 210-138 210-167 0-43 31-82 75-95 40-11 137-16 165-8 18 6 27-45 11-64-6-7-22-44-37-82-23-63-26-81-25-203 2-135 9-171 36-171 18 0 19 12 4 27-5 5-13 66-16 134-4 102-2 132 12 169 9 25 19 55 22 68 3 12 12 22 19 22 18 0 18-14-1-30-18-15-21-130-3-148 16-16 43 2 59 40l13 33 4-64 3-63 40 6c21 3 39 4 39 1s-10-19-22-36c-19-26-20-31-8-39 27-17 99-10 162 15 82 33 101 32 58-3-22-19-30-31-22-36 7-4 12-1 12 8s5 16 10 16c20 0 70 44 69 59 0 11-2 12-6 4-5-15-33-18-33-4s-75-4-112-27c-32-20-118-32-118-16 0 3 11 21 25 41 36 53 24 61-57 37-15-4-17 5-20 68-2 41-7 73-13 72-5 0-21-22-34-47-13-26-28-47-33-47-4 0-8 25-8 55 0 41 4 57 15 62 9 3 23 19 32 36 8 17 37 59 64 94 39 49 46 63 32 64-14 0-12 3 7 12 14 6 27 15 30 19s27 12 54 18c55 12 116 36 116 45s-57-4-105-25c-58-25-98-33-90-19 6 8 2 8-14 0-11-7-21-17-22-24 0-7-7 3-15 22-18 40-29 36-14-4 19-49-7-75-37-37-12 15-13 12-8-25 4-24 3-43-2-43-20 1-35 20-57 77-13 33-29 69-35 79-11 16-12 15-7-13 8-48-12-41-36 13-22 50-20 96 7 160 10 25 20 34 37 34 13 0 46 11 75 24l52 25 31-55c16-30 33-54 36-54 8 0-6 39-29 79-12 19-23 49-24 66s-15 60-31 96c-38 82-54 125-86 224l-26 80 69 67c39 37 92 79 120 92 44 23 73 46 56 46-19 0-130-72-186-121l-65-57-11 27c-7 14-17 45-23 68-10 41-10 44 32 97 24 30 50 57 58 61 8 3 47 9 85 12 75 5 212 34 273 58 37 14 163 45 185 45 6 0-29-40-78-90-49-49-86-93-82-97s45 5 90 20c45 14 113 31 152 37 77 12 95 20 46 20-28 0-32 3-29 22 4 30 42 39 158 37 110-2 183-18 240-54 28-18 53-25 87-25 71 0 156 16 205 39 36 17 44 17 46 5 2-8-3-25-11-38-9-13-18-39-22-58-6-34-4-37 57-83 34-26 88-59 118-73 70-33 190-110 190-122 0-9-71 9-140 36-19 7-102 29-185 49-82 20-179 50-215 67-93 43-112 44-215 8-63-23-115-34-175-38l-84-5 17 24 41 60c13 20 37 47 53 60 52 45 59 62 11 30-25-17-67-60-94-97-31-42-62-72-89-85a870 870 0 0 1-295-215c-97-100-94-99 50 17 58 47 146 108 196 136 88 48 95 50 190 56 74 4 117 12 169 32 105 40 123 41 196 7 71-33 133-52 259-81 47-11 126-33 175-49l90-30-152 6c-109 3-153 2-153-6 0-6-7-9-15-6-21 9-43-12-50-48-11-49-84-114-136-123-24-3-76-13-116-21s-107-14-150-14c-74 0-309-37-299-48 3-2 63 1 133 8s148 10 173 9l45-4-4-55c-2-30-8-58-15-62-6-4-75-8-153-8-147 0-145 0-342-66-8-2-12-7-9-9 2-3 49 6 102 20 81 20 123 25 231 25h132l7-41c8-49 4-56-37-64-17-4-50-16-72-27s-74-30-116-43c-67-20-109-39-183-82-11-7-31-13-43-13s-24-6-26-12c-3-8-6-9-6-2-1 6-12 9-26 6-20-3-24-1-19 12 6 14 0 16-37 11-40-5-108-21-134-31-5-2 17-2 50 1 58 5 62 4 91-27 65-70 82-108 86-191 5-84 1-94-47-99-34-3-35 3-17 102 7 40 7 57-2 62-17 11-96 9-96-2 0-5 18-10 40-10h41l-8-37c-4-21-8-58-8-83v-45h53l52 1V260h-35c-44 0-47-20-2-21 17 0 50-6 72-13l40-12-50-8c-146-22-178-55-100-106l28-18-37-7c-25-5-49-2-74 8-79 34-165 54-199 47-31-8-33-7-33 20 0 36-13 45-40 28-26-16-26-28 0-28 16 0 20-7 20-30 0-35 19-39 70-14 29 15 35 15 59 2 14-9 42-19 61-23s46-16 61-27c21-16 31-18 47-9 11 6 39 11 61 11 23 0 41 2 41 5s-16 19-35 36c-59 53-43 79 51 79 68 0 105 11 102 29-2 9-17 21-33 26-56 19-55 15-55 188 0 178 0 177-69 250l-35 37h39c57 1 126 18 155 39 14 10 52 26 85 36 33 9 65 20 70 25 6 4 39 17 75 28 91 29 134 46 141 55 3 5 4 30 1 58-3 31-1 49 6 49 27 0 42 33 42 91 0 70 0 70 141 99 128 26 165 51 207 136 14 27 30 44 46 48 14 3 109 5 211 5 113-1 190 2 196 8 17 17-80 94-197 156-118 63-193 112-200 132-3 6 6 42 20 79 30 85 24 89-88 53-45-14-107-28-138-32-53-6-62-3-144 37l-88 43-146 2-145 1-3 27c-7 51-27 19-30-47l-3-66-45-7c-25-3-63-13-85-20-21-8-39-13-39-11l83 87c82 84 82 84 52 87-16 1-91-13-165-33-215-57-252-64-309-65-70 0-128-29-163-80-15-22-32-40-37-40-4 0-24 35-44 78s-43 84-51 91c-9 8-16 22-16 32 0 14-7 19-25 19-16 0-25-6-25-15zm53-59c15-18 34-53 43-77 10-24 21-49 25-55 5-6 16-30 24-54 15-41 15-43-3-27-22 20-101 56-123 57-16 0-60-91-75-153l-7-28-28 27c-37 35-38 15-1-28 48-57 55-83 32-126-11-20-36-57-55-82-18-25-34-50-34-55-1-6-10-16-21-23-19-11-20-10-15 10 2 13 10 79 15 146 6 68 16 136 21 150 19 50 39 151 44 224 8 103 24 122 106 127 19 1 34-8 52-33zm41-217c81-54 85-63 178-367 8-25 6-44-8-83-10-28-23-54-30-60s-31 4-70 30c-63 41-64 43-155 236-46 96-48 113-23 190 32 99 37 101 108 54zm-84-318c0-7-24-45-53-85-30-39-59-81-66-93-23-44 4-22 54 43l66 87c16 21 17 20 43-28 15-28 38-65 51-83s33-61 45-96c19-59 20-66 6-107-20-56-20-58 5-123 12-34 28-57 39-61s27-13 35-21c45-45-19-65-125-39l-70 17v52c0 46-4 55-32 80-60 52-128 96-218 141-25 13-53 32-63 43-17 19-17 21 24 68l58 66c38 39 60 68 111 147l54 84 18-39c10-21 18-45 18-53zm330-199c0-18-10-27-42-41-24-10-60-22-81-25-37-7-38-6-57 36-10 23-17 44-16 46 2 2 19-6 37-17 19-12 41-21 49-21 9 0 28 26 45 60l30 60 17-38c10-20 18-47 18-60zm14-440c-45-77-74-91-74-36 0 20 5 24 30 24 23 0 30 4 30 20 0 11 7 20 16 20 13 0 13-3-2-28z" />
    <path
      d="M1398 1783c18-2 45-2 60 0s0 4-33 4-45-2-27-4zm1605-368c0-22 2-30 4-17 2 12 2 30 0 40-3 9-5-1-4-23zm-1560 18c-21-8-15-22 7-16 11 3 20 9 20 14 0 10-8 10-27 2zm-128-38c-139-46-344-140-359-164-8-12 35-1 54 14 8 6 31 18 50 25s40 17 45 21c16 12 237 96 272 104 30 6 50 21 41 30-2 2-48-11-103-30zm1735 8c0-23 11-38 33-46 18-7 24-47 6-47-5 0-8-4-5-9 8-12-40-23-67-16-12 2-17 2-10-1s9-12 6-20c-6-17 10-18 53-2 19 6 35 21 38 32 3 12 17 34 32 50 24 26 25 28 6 22-12-4-30-3-39 3-19 10-17 12 32 25 11 3 1 3-22 1-34-4-43-2-43 10 0 8-4 15-10 15-5 0-10-8-10-17zm173-20c9-2 17-12 17-21 0-13 3-13 12-4 10 10 10 15-2 22-8 5-22 9-30 9-11-1-10-3 3-6zm-625-81c-19-2-25-8-21-18 6-16 39-19 48-4 4 6 10 8 15 5s11-1 14 4c7 11-20 17-56 13zm369-38c3-8 11-14 19-14 21 0 17 17-5 23-14 3-18 1-14-9zm-262-28c17-8 32-12 34-10 7 7-3 12-34 18l-30 6 30-14zm-1826-47c-19-16-20-18-4-10 34 17 51 31 39 31-7 0-22-9-35-21zm1478-15c-4-4-4-11-1-15 7-13 44-11 44 2 0 6-9 8-21 4-15-5-19-4-15 4 8 12 3 15-7 5zm35-131c-2-83 0-93 16-92 11 0 12 2 4 6-10 4-10 8-1 19 8 9 8 14 1 14s-13 29-15 73c-3 70-3 69-5-20zm148 46-35-30 38 26c33 24 43 35 34 35l-37-31zm182 1c0-19 2-27 5-17 2 9 2 25 0 35-3 9-5 1-5-18zm21-5c0-22 2-30 4-17 2 12 2 30 0 40-3 9-5-1-4-23zm-549-150c-7-6-52-15-105-18-90-7-108-11-97-23 9-8 209 13 219 23 5 5 5 13 1 19-5 9-10 8-18-1zm94 8c-35-5-36-29-2-37 35-9 61 1 67 24 5 21-2 22-65 13zm-150-65c-32-11-58-24-58-29 0-11 17-12 24 0 3 4 26 14 51 21s45 17 45 21c0 5-1 9-2 8l-60-21zm369 9c-4-10 2-13 19-9 13 2 21 8 18 13-8 14-31 11-37-4zm-154-28c-47-14-49-28-3-15 22 5 40 14 40 18s-1 8-2 7l-35-10zm237-54c19-19 36-35 39-35s-10 16-29 35-36 35-39 35 10-16 29-35z" />
  </g>
</svg>