<svg xmlns="http://www.w3.org/2000/svg" id="root" viewBox="0 0 99 57">
  <g>
    <path
      d="M 2.667969 53.078125 L 0.65625 49.136719 L 3.6875 45.882812 C 5.367188 44.117188 6.84375 42.683594 7 42.734375 C 8.195312 43.09375 14.359375 55.203125 13.671875 55.871094 C 13.519531 56.050781 6.640625 56.972656 5.445312 56.996094 C 4.707031 56.996094 4.601562 56.84375 2.667969 53.078125 Z M 0.503906 54.949219 C -0.0820312 54.359375 -0.1875 52.847656 0.347656 52.414062 C 0.605469 52.183594 0.859375 52.4375 1.496094 53.640625 C 1.929688 54.460938 2.285156 55.230469 2.285156 55.308594 C 2.285156 55.664062 0.960938 55.410156 0.503906 54.949219 Z M 14.921875 54.386719 C 14.871094 54.207031 14.640625 53.308594 14.410156 52.386719 C 13.824219 50.109375 12.015625 46.5 10.285156 44.21875 C 8.960938 42.425781 8.882812 42.273438 9.316406 41.964844 C 9.570312 41.761719 9.953125 41.660156 10.15625 41.683594 C 10.71875 41.8125 12.832031 44.527344 13.851562 46.472656 C 14.613281 47.984375 16.550781 53.105469 16.550781 53.695312 C 16.550781 53.820312 16.195312 54.101562 15.785156 54.308594 C 15.175781 54.617188 14.996094 54.640625 14.921875 54.386719 Z M 18.027344 51.902344 C 17.265625 48.648438 14.691406 43.578125 12.652344 41.25 L 11.710938 40.148438 L 15.457031 38.175781 C 24.777344 33.335938 68.925781 11.546875 72.773438 9.882812 C 74.480469 9.167969 75.117188 9.320312 76.644531 10.855469 C 79.34375 13.570312 81.179688 18.667969 80.261719 20.972656 C 80.085938 21.433594 75.574219 23.863281 52.46875 35.925781 C 46.789062 38.894531 36.855469 44.09375 30.382812 47.496094 C 23.914062 50.878906 18.589844 53.667969 18.539062 53.667969 C 18.488281 53.667969 18.285156 52.875 18.027344 51.902344 Z M 24.089844 48.136719 C 24.652344 47.855469 25.109375 47.34375 25.492188 46.574219 C 26.027344 45.472656 26.027344 45.320312 25.695312 44.375 C 25.210938 42.992188 24.269531 42.324219 22.816406 42.324219 C 21.085938 42.324219 19.863281 43.683594 19.863281 45.601562 C 19.863281 46.804688 20.21875 47.421875 21.210938 48.035156 C 22.207031 48.648438 22.945312 48.675781 24.089844 48.136719 Z M 32.066406 43.835938 C 35.019531 42.273438 33.695312 37.792969 30.382812 38.125 C 29.035156 38.28125 28.574219 38.636719 27.964844 40.046875 C 27.328125 41.453125 27.53125 42.402344 28.675781 43.425781 C 29.671875 44.296875 30.867188 44.449219 32.066406 43.835938 Z M 54.558594 32.851562 C 61.613281 29.140625 69.410156 25.015625 71.90625 23.710938 C 76.949219 21.046875 77.359375 20.664062 77.101562 18.742188 C 76.925781 17.386719 75.292969 15.773438 74.148438 15.773438 C 73.003906 15.773438 38.6875 33.234375 37.820312 34.234375 C 37.082031 35.128906 37.007812 36.078125 37.59375 37.535156 C 38.203125 39.074219 39.578125 39.917969 41.058594 39.6875 C 41.464844 39.636719 47.527344 36.5625 54.558594 32.851562 Z M 54.558594 32.851562 "
    />
    <path
      d="M 21.621094 46.472656 C 21.210938 46.0625 21.109375 45.757812 21.238281 45.117188 C 21.417969 44.167969 22.003906 43.683594 22.945312 43.683594 C 23.863281 43.683594 24.449219 44.296875 24.449219 45.242188 C 24.449219 46.78125 22.691406 47.546875 21.621094 46.472656 Z M 30.050781 42.734375 C 28.90625 42.324219 28.726562 40.890625 29.695312 39.945312 C 30.179688 39.433594 30.484375 39.328125 31.019531 39.457031 C 32.421875 39.789062 32.777344 41.222656 31.707031 42.273438 C 31.097656 42.914062 30.792969 42.992188 30.050781 42.734375 Z M 39.683594 37.765625 C 39.425781 37.640625 39.171875 37.128906 39.070312 36.640625 C 38.6875 34.59375 37.71875 35.207031 56.316406 25.886719 C 65.714844 21.175781 73.664062 17.308594 73.96875 17.308594 C 74.863281 17.308594 75.449219 18.128906 75.347656 19.28125 C 75.269531 20.253906 75.242188 20.253906 72.339844 21.789062 C 48.34375 34.414062 41.261719 38.050781 40.726562 38.050781 C 40.394531 38.050781 39.910156 37.921875 39.683594 37.765625 Z M 81.738281 18.027344 C 81.511719 15.773438 80.261719 13.109375 78.351562 10.933594 C 77.5625 10.011719 76.976562 9.242188 77.027344 9.191406 C 77.257812 8.960938 78.734375 9.933594 79.320312 10.703125 C 80.238281 11.957031 81.714844 15.183594 81.894531 16.386719 C 81.996094 16.949219 82.019531 17.949219 81.96875 18.589844 C 81.894531 19.640625 81.867188 19.589844 81.738281 18.027344 Z M 83.878906 16.824219 C 83.472656 13.671875 82.324219 11.445312 79.804688 8.9375 C 78.378906 7.503906 78.070312 7.066406 78.480469 7.066406 C 80.441406 7.066406 83.269531 10.574219 84.414062 14.46875 C 84.898438 16.15625 84.949219 18.078125 84.492188 18.691406 C 84.210938 19.074219 84.132812 18.820312 83.878906 16.824219 Z M 85.585938 13.441406 C 85.253906 12.445312 84.542969 10.984375 83.980469 10.191406 C 81.96875 7.296875 81.664062 7.886719 86.324219 5.53125 C 88.566406 4.40625 90.707031 3.484375 91.039062 3.484375 C 91.953125 3.484375 93.765625 4.992188 94.453125 6.351562 C 94.78125 7.015625 95.113281 8.195312 95.191406 9.039062 L 95.316406 10.550781 L 90.988281 12.90625 C 88.59375 14.183594 86.554688 15.261719 86.425781 15.261719 C 86.300781 15.261719 85.941406 14.441406 85.585938 13.441406 Z M 94.808594 12.726562 C 95.316406 12.445312 95.980469 11.882812 96.3125 11.496094 L 96.871094 10.78125 L 96.691406 11.675781 C 96.488281 12.804688 96.386719 12.90625 95.011719 13.085938 L 93.867188 13.238281 Z M 98.324219 10.445312 C 98.324219 7.117188 95.519531 1.742188 93.152344 0.511719 C 92.183594 0 92.386719 -0.152344 93.535156 0.179688 C 94.707031 0.488281 96.769531 2.714844 97.660156 4.609375 C 98.554688 6.503906 99.164062 9.21875 98.960938 10.445312 C 98.707031 11.882812 98.324219 11.90625 98.324219 10.445312 Z M 89.152344 1.945312 C 89.558594 1.203125 90.554688 1.050781 91.726562 1.5625 C 92.921875 2.125 92.898438 2.253906 91.675781 1.972656 C 91.039062 1.820312 90.476562 1.871094 89.917969 2.101562 C 88.847656 2.5625 88.820312 2.5625 89.152344 1.945312 Z M 89.152344 1.945312 "
    />
  </g>
</svg>
