<svg id="root" xmlns="http://www.w3.org/2000/svg" width="768" height="441" viewBox="0 0 7680 4410">
  <g>
    <path
      d="m1985 3027-79-154 119-127c66-69 124-125 130-123 47 14 289 487 262 513-6 7-276 43-323 44-29 0-33-6-109-153zm-85 73c-23-23-27-82-6-99 10-9 20 1 45 48 17 32 31 62 31 65 0 14-52 4-70-14zm566-22c-2-7-11-42-20-78-23-89-94-230-162-319-52-70-55-76-38-88 10-8 25-12 33-11 22 5 105 111 145 187 30 59 106 259 106 282 0 5-14 16-30 24-24 12-31 13-34 3zm122-97c-30-127-131-325-211-416l-37-43 147-77c366-189 2099-1040 2250-1105 67-28 92-22 152 38 106 106 178 305 142 395-7 18-184 113-1091 584-223 116-613 319-867 452-254 132-463 241-465 241s-10-31-20-69zm238-147c22-11 40-31 55-61 21-43 21-49 8-86-19-54-56-80-113-80-68 0-116 53-116 128 0 47 14 71 53 95s68 25 113 4zm313-168c116-61 64-236-66-223-53 6-71 20-95 75-25 55-17 92 28 132 39 34 86 40 133 16zm883-429c277-145 583-306 681-357 198-104 214-119 204-194-7-53-71-116-116-116s-1392 682-1426 721c-29 35-32 72-9 129 24 60 78 93 136 84 16-2 254-122 530-267z" />
    <path
      d="M2729 2769c-16-16-20-28-15-53 7-37 30-56 67-56 36 0 59 24 59 61 0 60-69 90-111 48zm331-146c-45-16-52-72-14-109 19-20 31-24 52-19 55 13 69 69 27 110-24 25-36 28-65 18zm378-194c-10-5-20-25-24-44-15-80-53-56 677-420 369-184 681-335 693-335 35 0 58 32 54 77-3 38-4 38-118 98-942 493-1220 635-1241 635-13 0-32-5-41-11zm1651-771c-9-88-58-192-133-277-31-36-54-66-52-68 9-9 67 29 90 59 36 49 94 175 101 222 4 22 5 61 3 86-3 41-4 39-9-22zm84-47c-16-123-61-210-160-308-56-56-68-73-52-73 77 0 188 137 233 289 19 66 21 141 3 165-11 15-14 5-24-73zm67-132c-13-39-41-96-63-127-79-113-91-90 92-182 88-44 172-80 185-80 36 0 107 59 134 112 13 26 26 72 29 105l5 59-170 92c-94 50-174 92-179 92s-19-32-33-71zm362-28c20-11 46-33 59-48l22-28-7 35c-8 44-12 48-66 55l-45 6 37-20zm138-89c0-130-110-340-203-388-38-20-30-26 15-13 46 12 127 99 162 173s59 180 51 228c-10 56-25 57-25 0zm-360-332c16-29 55-35 101-15 47 22 46 27-2 16-25-6-47-4-69 5-42 18-43 18-30-6z" />
  </g>
</svg>