<svg xmlns="http://www.w3.org/2000/svg" id="root" viewBox="0 0 100 57">
  <g>
    <path
      d="M 0.507812 55.40625 C 1.707031 50.824219 2.277344 46.101562 2.203125 41.367188 C 2.339844 36.824219 2.578125 33.570312 2.78125 33.296875 C 3.050781 32.992188 3.695312 32.925781 5.152344 33.09375 C 7.253906 33.332031 8.746094 32.890625 16.035156 29.941406 C 18.8125 28.789062 18.984375 28.6875 18.984375 27.703125 C 18.984375 26.789062 18.914062 26.71875 18.066406 26.957031 C 17.527344 27.09375 16.441406 27.261719 15.628906 27.363281 C 13.964844 27.566406 13.558594 27.226562 13.558594 25.667969 C 13.558594 25.160156 13.320312 24.246094 13.015625 23.667969 C 12.710938 23.089844 12.441406 22.007812 12.371094 21.226562 L 12.238281 19.464844 C 12.238281 19.261719 11.59375 18.921875 10.847656 18.683594 C 8.949219 18.105469 9.085938 17.359375 11.527344 14.917969 C 13.730469 12.714844 14.136719 11.527344 12.882812 10.851562 C 12 10.375 12 9.222656 12.914062 8.273438 L 13.59375 7.5625 L 12.167969 6.308594 C 10.507812 4.917969 9.492188 3.492188 9.492188 2.644531 C 9.492188 2.101562 9.863281 2.035156 12.542969 2.035156 L 15.59375 2.035156 L 15.59375 1.015625 C 15.59375 0.441406 15.761719 0 16.035156 0 C 18.167969 0.0351562 27.085938 0.746094 28.882812 1.050781 C 31.117188 1.390625 31.1875 1.457031 32.035156 2.984375 C 33.832031 6.171875 34.78125 13.902344 33.761719 17.023438 C 31.863281 22.988281 31.761719 23.429688 32 25.5 C 32.101562 26.617188 32.339844 27.738281 32.542969 27.972656 C 32.710938 28.210938 34 28.890625 35.320312 29.5 L 40.167969 31.703125 C 43.253906 33.164062 44.78125 33.570312 47.289062 33.570312 C 51.050781 33.570312 50.679688 32.28125 50.679688 45.472656 L 50.679688 56.964844 L 0.269531 56.964844 Z M 56.507812 49.609375 C 56.371094 49.507812 56.269531 45.234375 56.269531 40.113281 L 56.269531 30.855469 L 68.746094 30.855469 L 68.710938 21.804688 L 68.644531 12.714844 L 78.914062 12.613281 L 89.152344 12.546875 L 89.152344 30.824219 L 94.507812 30.925781 L 99.832031 31.027344 L 99.832031 49.675781 L 89.59375 49.777344 L 79.320312 49.84375 L 79.320312 31.195312 L 76.949219 31.195312 L 76.949219 49.84375 L 66.847656 49.84375 C 61.289062 49.84375 56.609375 49.742188 56.507812 49.609375 Z M 56.507812 49.609375 "
    />
    <path
      style="stroke: none; fill-rule: nonzero; fill: rgb(87.843137%, 89.019608%, 72.54902%); fill-opacity: 1"
      d="M 0 56.558594 C 0.0351562 56.015625 0.8125 52.828125 1.457031 50.863281 C 1.761719 49.84375 2 46.726562 2.167969 41.570312 C 2.304688 36.6875 2.542969 33.601562 2.78125 33.332031 C 3.050781 32.992188 3.660156 32.925781 5.152344 33.09375 C 7.253906 33.332031 8.746094 32.890625 16.035156 29.941406 C 18.8125 28.789062 18.984375 28.6875 18.984375 27.703125 C 18.984375 26.789062 18.914062 26.71875 18.066406 26.957031 C 17.527344 27.09375 16.441406 27.261719 15.628906 27.363281 C 13.964844 27.566406 13.558594 27.226562 13.558594 25.667969 C 13.558594 25.160156 13.253906 24.109375 12.847656 23.328125 C 12.472656 22.582031 12.238281 21.632812 12.339844 21.226562 C 12.679688 19.871094 12.203125 19.089844 10.847656 18.683594 C 8.8125 18.074219 8.882812 17.496094 11.355469 15.089844 C 13.832031 12.648438 14.136719 11.628906 12.710938 10.714844 C 11.660156 10.035156 11.660156 9.800781 12.710938 8.542969 L 13.558594 7.527344 L 12.167969 6.308594 C 10.746094 5.085938 9.152344 3.019531 9.152344 2.40625 C 9.152344 2.171875 10.304688 2.035156 12.203125 2.035156 C 13.898438 2.035156 15.253906 1.964844 15.253906 1.863281 C 15.253906 1.761719 15.015625 1.289062 14.710938 0.847656 L 14.167969 0 L 15.628906 0 C 18.136719 0 26.472656 0.679688 28.882812 1.050781 C 31.117188 1.390625 31.1875 1.457031 32.035156 2.984375 C 32.542969 3.867188 33.21875 6.035156 33.59375 7.800781 C 34.8125 13.597656 34.847656 12.785156 32.949219 20.039062 C 32.40625 22.039062 32.304688 23.191406 32.441406 25.398438 C 32.644531 28.179688 32.644531 28.210938 33.695312 28.585938 C 34.269531 28.789062 36.578125 29.875 38.8125 30.957031 C 42.578125 32.855469 43.117188 33.027344 45.964844 33.265625 C 47.660156 33.398438 49.421875 33.636719 49.933594 33.738281 L 50.8125 33.976562 L 50.746094 44.011719 C 50.746094 49.574219 50.8125 54.726562 50.984375 55.542969 C 51.21875 56.832031 51.1875 56.964844 50.578125 56.964844 C 49.964844 56.964844 49.863281 56.660156 49.660156 54.523438 C 49.527344 53.167969 49.492188 48.183594 49.558594 43.503906 C 49.660156 33.941406 49.832031 34.585938 47.152344 34.585938 L 45.558594 34.585938 L 44.8125 36.890625 C 44.40625 38.148438 43.933594 39.808594 43.761719 40.621094 C 43.59375 41.4375 43.355469 42.183594 43.253906 42.285156 C 42.78125 42.757812 43.117188 38.960938 43.730469 36.960938 C 44.472656 34.519531 44.472656 34.519531 42.035156 33.773438 C 40.304688 33.265625 37.289062 31.941406 33.730469 30.179688 C 31.695312 29.160156 31.355469 28.855469 31.253906 28.007812 L 31.117188 27.023438 L 27.21875 27.226562 C 25.085938 27.332031 23.253906 27.5 23.152344 27.601562 C 23.015625 27.703125 23.117188 29.128906 23.355469 30.753906 C 23.730469 33.46875 23.730469 33.738281 23.117188 34.550781 C 22.609375 35.230469 22.542969 35.605469 22.8125 36.214844 C 23.050781 36.722656 22.984375 38.179688 22.578125 41.132812 C 22.066406 44.996094 21.015625 55.035156 21.015625 56.390625 C 21.015625 56.695312 20.78125 56.964844 20.507812 56.964844 C 20.167969 56.964844 20 56.628906 20 56.050781 C 20 53.8125 20.78125 46.894531 21.558594 42.046875 C 22.238281 37.910156 22.339844 36.65625 22 36.078125 C 21.695312 35.503906 21.730469 35.164062 22.101562 34.550781 C 22.542969 33.875 22.542969 33.195312 22.269531 30.621094 C 21.898438 27.464844 21.898438 27.464844 20.949219 27.464844 C 20.136719 27.464844 20 27.601562 20 28.414062 C 20 29.230469 19.761719 29.433594 18.035156 30.109375 C 14.746094 31.46875 7.660156 33.910156 7.050781 33.910156 C 6.269531 33.910156 6.035156 34.859375 5.796875 38.65625 L 5.558594 41.875 L 5.1875 40.148438 C 4.882812 38.894531 4.882812 37.808594 5.085938 36.417969 C 5.527344 33.808594 5.558594 33.910156 4.578125 33.910156 C 4 33.910156 3.695312 34.113281 3.59375 34.6875 C 3.390625 35.636719 2.949219 45.503906 3.015625 47.199219 C 3.050781 48.21875 2.339844 52.457031 1.527344 56.21875 C 1.320312 57 0 57.304688 0 56.558594 Z M 17.832031 25.90625 C 18.746094 25.601562 20.746094 24.753906 22.304688 24.007812 L 25.085938 22.683594 L 25.085938 21.328125 C 25.085938 19.699219 25.660156 18.480469 27.085938 17.15625 C 28 16.277344 28.136719 15.902344 28.136719 14.378906 C 28.136719 13.394531 28 12.511719 27.796875 12.375 C 27.355469 12.105469 26.101562 13.425781 26.101562 14.207031 C 26.101562 15.429688 25.695312 15.9375 24.746094 15.9375 C 23.863281 15.9375 23.761719 15.800781 23.660156 14.683594 C 23.558594 13.5625 23.390625 13.324219 22.136719 12.714844 C 20.949219 12.140625 20.679688 11.800781 20.371094 10.613281 C 20.167969 9.800781 19.933594 9.15625 19.898438 9.15625 L 17.863281 9.527344 C 15.015625 10.035156 13.628906 9.460938 15.421875 8.476562 C 16.542969 7.867188 16.507812 7.628906 15.289062 7.527344 C 13.695312 7.390625 12.542969 9.527344 13.695312 10.476562 C 14.609375 11.257812 14.542969 12.476562 13.421875 14.039062 C 12.847656 14.886719 11.933594 15.867188 11.421875 16.277344 C 10.203125 17.257812 10.269531 17.53125 11.796875 17.9375 C 13.050781 18.277344 13.085938 18.34375 13.457031 20.414062 C 13.796875 22.449219 14.40625 25.125 14.746094 26.042969 C 14.949219 26.585938 15.796875 26.550781 17.832031 25.90625 Z M 27.730469 26.109375 L 30.847656 26.109375 L 30.847656 24.3125 C 30.847656 22.480469 30.441406 21.703125 29.492188 21.703125 C 29.21875 21.703125 28.679688 20.988281 28.238281 19.972656 C 27.59375 18.546875 27.390625 18.308594 26.882812 18.617188 C 26.441406 18.820312 26.167969 19.632812 25.933594 21.226562 L 25.59375 23.5 L 22.710938 24.992188 L 19.832031 26.515625 L 22.203125 26.3125 C 23.527344 26.210938 26 26.109375 27.730469 26.109375 Z M 32.066406 18.414062 C 33.320312 14.410156 33.492188 10.953125 32.609375 7.902344 L 31.628906 4.441406 C 31.152344 2.441406 30.101562 2 25.390625 1.660156 C 16.609375 1.085938 16.578125 1.085938 17.152344 1.730469 C 18.101562 2.78125 17.390625 3.050781 13.863281 3.050781 C 12.035156 3.050781 10.507812 3.152344 10.507812 3.324219 C 10.542969 3.765625 11.390625 4.714844 12.710938 5.765625 C 13.761719 6.613281 14.304688 6.78125 15.796875 6.78125 C 17.832031 6.78125 18.304688 7.1875 17.390625 8.207031 C 16.78125 8.917969 16.78125 8.917969 17.796875 8.714844 C 18.371094 8.578125 19.152344 8.410156 19.527344 8.273438 C 20.167969 8.105469 20.339844 8.308594 20.847656 9.800781 C 21.320312 11.222656 21.660156 11.664062 22.710938 12.207031 C 24 12.851562 24.40625 13.425781 24.40625 14.613281 C 24.40625 14.953125 24.644531 15.257812 24.914062 15.257812 C 25.21875 15.257812 25.421875 14.953125 25.421875 14.511719 C 25.421875 13.222656 26.679688 11.527344 27.558594 11.527344 C 29.085938 11.527344 29.730469 15.019531 28.578125 16.953125 C 28.035156 17.871094 28.035156 18.003906 28.847656 19.464844 C 29.558594 20.820312 29.933594 21.160156 30.914062 21.328125 C 31.050781 21.328125 31.558594 20.039062 32.066406 18.414062 Z M 32.066406 18.414062 "
    />
    <path
      style="stroke: none; fill-rule: nonzero; fill: rgb(87.843137%, 89.019608%, 72.54902%); fill-opacity: 1"
      d="M 6.882812 54.1875 C 7.015625 52.117188 6.882812 50.589844 6.40625 48.320312 C 5.660156 44.828125 5.59375 43.4375 6.101562 43.945312 C 6.78125 44.625 7.796875 50.625 7.796875 53.847656 C 7.796875 56.523438 7.730469 56.964844 7.253906 56.964844 C 6.746094 56.964844 6.710938 56.628906 6.882812 54.1875 Z M 41.492188 56.390625 C 41.59375 56.050781 41.898438 54.1875 42.203125 52.253906 C 42.8125 48.183594 43.355469 45.742188 43.761719 45.269531 C 44.203125 44.828125 44.167969 45.371094 43.320312 51.472656 C 42.644531 56.320312 42.507812 56.964844 41.933594 56.964844 C 41.492188 56.964844 41.355469 56.796875 41.492188 56.390625 Z M 56.269531 40.351562 L 56.269531 30.515625 L 68.472656 30.515625 L 68.472656 12.207031 L 89.492188 12.207031 L 89.492188 30.515625 L 100 30.515625 L 100 50.183594 L 79.320312 50.183594 L 79.320312 31.875 L 76.949219 31.875 L 76.949219 50.183594 L 56.269531 50.183594 Z M 59.660156 47.4375 C 59.660156 46.117188 59.628906 46.082031 58.578125 46.183594 C 57.695312 46.25 57.421875 46.453125 57.355469 47.066406 C 57.152344 48.320312 57.527344 48.828125 58.644531 48.828125 C 59.59375 48.828125 59.660156 48.761719 59.660156 47.4375 Z M 73.558594 48.488281 C 73.558594 48.285156 71.085938 48.148438 66.78125 48.148438 C 62.472656 48.148438 60 48.285156 60 48.488281 C 60 48.691406 62.472656 48.828125 66.78125 48.828125 C 71.085938 48.828125 73.558594 48.691406 73.558594 48.488281 Z M 75.933594 47.640625 C 75.933594 46.554688 75.863281 46.453125 74.914062 46.453125 C 73.964844 46.453125 73.898438 46.554688 73.898438 47.640625 C 73.898438 48.726562 73.964844 48.828125 74.914062 48.828125 C 75.863281 48.828125 75.933594 48.726562 75.933594 47.640625 Z M 82.371094 47.472656 C 82.371094 46.183594 82.304688 46.117188 81.355469 46.117188 C 80.40625 46.117188 80.339844 46.183594 80.339844 47.472656 C 80.339844 48.761719 80.40625 48.828125 81.355469 48.828125 C 82.304688 48.828125 82.371094 48.761719 82.371094 47.472656 Z M 96.269531 48.488281 C 96.269531 48.285156 93.796875 48.148438 89.492188 48.148438 C 85.1875 48.148438 82.710938 48.285156 82.710938 48.488281 C 82.710938 48.691406 85.1875 48.828125 89.492188 48.828125 C 93.796875 48.828125 96.269531 48.691406 96.269531 48.488281 Z M 98.710938 48.660156 C 98.78125 48.558594 98.8125 48.046875 98.710938 47.472656 C 98.578125 46.625 98.40625 46.453125 97.59375 46.453125 C 96.746094 46.453125 96.609375 46.589844 96.609375 47.402344 C 96.609375 47.945312 96.710938 48.488281 96.847656 48.589844 C 97.085938 48.863281 98.441406 48.894531 98.710938 48.660156 Z M 73.492188 46.894531 C 73.558594 46.386719 73.832031 46.117188 74.269531 46.117188 C 74.882812 46.117188 74.914062 45.808594 74.914062 40.179688 L 74.914062 34.246094 L 74.066406 34.246094 C 73.457031 34.246094 73.21875 34.078125 73.21875 33.570312 C 73.21875 32.925781 72.984375 32.890625 66.609375 32.890625 L 60 32.890625 L 60 33.738281 C 60 34.347656 59.832031 34.585938 59.320312 34.585938 C 58.679688 34.585938 58.644531 34.824219 58.644531 39.976562 C 58.644531 45.0625 58.679688 45.371094 59.320312 45.539062 C 59.832031 45.675781 60 46.015625 60 46.757812 L 60 47.8125 L 66.710938 47.742188 C 73.355469 47.640625 73.390625 47.640625 73.492188 46.894531 Z M 96.269531 47.097656 C 96.269531 46.691406 96.542969 46.320312 96.949219 46.21875 C 97.59375 46.046875 97.628906 45.742188 97.628906 40.28125 C 97.628906 34.824219 97.59375 34.519531 96.949219 34.347656 C 96.578125 34.246094 96.269531 33.875 96.269531 33.535156 C 96.269531 32.925781 95.898438 32.890625 89.492188 32.890625 L 82.710938 32.890625 L 82.710938 33.738281 C 82.710938 34.347656 82.542969 34.585938 82.035156 34.585938 C 81.390625 34.585938 81.355469 34.824219 81.355469 39.976562 C 81.355469 45.0625 81.390625 45.371094 82.035156 45.539062 C 82.542969 45.675781 82.710938 46.015625 82.710938 46.757812 L 82.710938 47.8125 L 89.492188 47.8125 C 96.136719 47.8125 96.269531 47.8125 96.269531 47.097656 Z M 75.933594 40.179688 C 75.933594 36.453125 75.796875 34.246094 75.59375 34.246094 C 75.390625 34.246094 75.253906 36.453125 75.253906 40.179688 C 75.253906 43.910156 75.390625 46.117188 75.59375 46.117188 C 75.796875 46.117188 75.933594 43.910156 75.933594 40.179688 Z M 98.679688 45.707031 C 98.882812 43.199219 98.609375 34.417969 98.304688 34.316406 C 98.066406 34.214844 97.964844 36.144531 97.964844 40.148438 C 97.964844 43.910156 98.101562 46.117188 98.304688 46.117188 C 98.507812 46.117188 98.644531 45.910156 98.679688 45.707031 Z M 58.304688 39.976562 C 58.304688 35.773438 58.203125 34.550781 57.898438 34.65625 C 57.558594 34.757812 57.421875 36.144531 57.355469 39.671875 C 57.253906 44.65625 57.355469 45.4375 57.964844 45.4375 C 58.167969 45.4375 58.304688 43.503906 58.304688 39.976562 Z M 81.015625 40.011719 C 81.015625 36.621094 80.882812 34.585938 80.679688 34.585938 C 80.472656 34.585938 80.339844 36.621094 80.339844 40.011719 C 80.339844 43.402344 80.472656 45.4375 80.679688 45.4375 C 80.882812 45.4375 81.015625 43.402344 81.015625 40.011719 Z M 59.320312 32.890625 C 59.320312 31.976562 59.21875 31.875 58.304688 31.875 C 57.390625 31.875 57.289062 31.976562 57.289062 32.890625 C 57.289062 33.808594 57.390625 33.910156 58.304688 33.910156 C 59.21875 33.910156 59.320312 33.808594 59.320312 32.890625 Z M 75.933594 32.890625 C 75.933594 31.976562 75.832031 31.875 74.949219 31.875 C 73.796875 31.875 73.421875 32.28125 73.730469 33.230469 C 73.863281 33.703125 74.238281 33.910156 74.949219 33.910156 C 75.832031 33.910156 75.933594 33.808594 75.933594 32.890625 Z M 82.035156 32.890625 C 82.035156 32.042969 81.898438 31.875 81.1875 31.875 C 80.472656 31.875 80.339844 32.042969 80.339844 32.890625 C 80.339844 33.738281 80.472656 33.910156 81.1875 33.910156 C 81.898438 33.910156 82.035156 33.738281 82.035156 32.890625 Z M 98.8125 32.890625 C 98.8125 32.179688 98.609375 32.007812 97.695312 31.941406 C 96.679688 31.839844 96.609375 31.90625 96.609375 32.890625 C 96.609375 33.875 96.679688 33.941406 97.695312 33.839844 C 98.609375 33.773438 98.8125 33.601562 98.8125 32.890625 Z M 70.101562 31.976562 C 68.304688 31.90625 65.253906 31.90625 63.320312 31.976562 C 61.390625 32.007812 62.882812 32.078125 66.609375 32.078125 C 70.339844 32.078125 71.898438 32.007812 70.101562 31.976562 Z M 92.984375 31.976562 C 91.050781 31.90625 87.933594 31.90625 86.035156 31.976562 C 84.101562 32.007812 85.660156 32.078125 89.492188 32.078125 C 93.320312 32.078125 94.882812 32.007812 92.984375 31.976562 Z M 71.527344 28.992188 C 71.527344 27.972656 71.421875 27.804688 70.746094 27.804688 C 69.695312 27.804688 69.59375 27.941406 69.761719 29.160156 C 69.863281 29.976562 70.066406 30.179688 70.710938 30.179688 C 71.421875 30.179688 71.527344 30.007812 71.527344 28.992188 Z M 82.472656 29.941406 C 80.542969 29.875 77.421875 29.875 75.527344 29.941406 C 73.59375 29.976562 75.152344 30.042969 78.984375 30.042969 C 82.8125 30.042969 84.371094 29.976562 82.472656 29.941406 Z M 88.136719 29.160156 C 88.136719 28.246094 88.035156 28.144531 87.117188 28.144531 C 86.203125 28.144531 86.101562 28.246094 86.101562 29.160156 C 86.101562 30.078125 86.203125 30.179688 87.117188 30.179688 C 88.035156 30.179688 88.136719 30.078125 88.136719 29.160156 Z M 85.695312 28.617188 C 85.761719 28.210938 86.101562 27.804688 86.472656 27.703125 C 87.085938 27.535156 87.117188 27.195312 87.117188 21.734375 L 87.117188 15.9375 L 86.269531 15.9375 C 85.660156 15.9375 85.421875 15.765625 85.421875 15.257812 C 85.421875 14.613281 85.1875 14.582031 78.644531 14.582031 C 74.914062 14.582031 71.898438 14.683594 71.898438 14.851562 C 72.035156 15.664062 71.796875 16.277344 71.355469 16.277344 C 70.914062 16.277344 70.847656 17.089844 70.847656 21.53125 C 70.847656 28.585938 70.203125 28.515625 70.066406 21.464844 L 69.964844 16.105469 L 69.898438 21.601562 L 69.832031 27.09375 L 70.949219 27.195312 C 71.898438 27.296875 72.035156 27.433594 72.136719 28.414062 L 72.238281 29.5 L 78.914062 29.433594 C 85.457031 29.332031 85.59375 29.332031 85.695312 28.617188 Z M 88.136719 21.667969 C 88.136719 18.074219 88 15.9375 87.796875 15.9375 C 87.59375 15.9375 87.457031 18.140625 87.457031 21.90625 C 87.457031 25.769531 87.558594 27.769531 87.796875 27.636719 C 88 27.5 88.136719 25.160156 88.136719 21.667969 Z M 71.527344 14.582031 C 71.527344 13.734375 71.390625 13.5625 70.679688 13.5625 C 69.761719 13.5625 69.289062 14.242188 69.628906 15.089844 C 69.730469 15.359375 70.203125 15.597656 70.679688 15.597656 C 71.390625 15.597656 71.527344 15.429688 71.527344 14.582031 Z M 88.136719 14.582031 L 88.136719 13.5625 L 79.933594 13.632812 L 71.695312 13.734375 L 78.914062 13.800781 C 85.59375 13.902344 86.101562 13.96875 86.101562 14.546875 C 86.101562 15.359375 86.40625 15.597656 87.355469 15.597656 C 88 15.597656 88.136719 15.429688 88.136719 14.582031 Z M 88.136719 14.582031 "
    />
  </g>
</svg>
