<svg xmlns="http://www.w3.org/2000/svg" id="root" viewBox="0 -1 6880 4062">
  <g fill="#CFCEA3">
    <path
      d="M0 3336v-724l73-7 74-7 51 26c28 14 54 26 57 26s5-11 5-25v-25h619l3 19 3 19 40-16 40-16 664-3c460-3 669-7 678-15 10-8 13-53 13-182 0-100 4-176 10-182s11-128 12-304l3-295 30-3c17-1 40-8 52-14s34-8 50-5c63 12 67 12 79-11 13-26 50-49 86-54 12-2 28-13 34-26 15-30 75-92 89-92 6 0 39-28 73-63l62-63v-45c0-51-29-89-68-89-11 0-24-5-27-10-3-6-16-10-29-10-35 0-56-30-56-83 0-25 5-49 10-52 6-3 10-26 10-50v-44l32-15c17-9 52-16 78-16 25 0 50-4 56-9 5-5 25-11 44-13 28-2 38-10 54-40 25-48 57-51 93-8 27 33 63 39 83 15 7-8 10-22 6-30l-5-15h419v19c0 49 76 55 98 9 8-17 21-28 33-28 23 0 24 8 3 32-25 27-2 48 52 48 23 0 46 5 49 10 3 6 28 10 54 10s62 7 79 16l32 15v54c0 30 4 57 10 60s10 23 10 44c0 42-23 71-58 71-11 0-24 4-27 10-3 5-16 10-29 10-28 0-66 39-66 69 0 12-4 31-10 41-14 26-4 46 33 64 18 8 43 26 56 40 14 14 30 26 36 26 14 0 94 81 109 111 6 13 20 25 31 27 31 5 81 30 95 47 7 9 29 15 54 15 23 0 46 4 51 9 6 6 30 11 55 13l45 3 3 295c1 176 6 298 12 304s10 69 10 142c0 78 4 135 10 139 6 3 10 21 10 39 0 17 5 37 12 44 9 9 165 12 642 12h630l23 22 23 21v-43h350v15c0 17 40 21 56 5 12-12 115-18 462-24l242-5v1469H2613l-18-20c-23-25-35-25-35 0v20H0v-724zm682 442-4-48H437c-132 0-237 3-233 7 9 10 157 24 309 29l127 5 22 29c12 17 22 29 23 27 1-1 0-23-3-49zm1373 43c31-7 17-9-67-10l-107-1-3-36-3-37-50 46-50 46h120c66 0 138-4 160-8zm215-1c-8-5-22-10-30-10h-15l15 10c8 5 22 10 30 10h15l-15-10zm-305-160c3-5 15-10 25-10s22-4 25-10c4-6-10-10-34-10-34 0-41 3-41 20 0 21 15 27 25 10zm1660-25c28-4 54-11 60-16 5-5 24-9 41-9 18 0 36-4 39-10 3-5 27-10 53-10 44 0 101-15 129-33 6-4 18-20 26-35 7-15 18-36 24-47s17-40 24-65 21-58 31-75c24-40 23-47-9-43-21 2-29 9-31 28-2 14-7 34-12 45s-10 29-12 40l-3 20h-130c-90 0-134 4-143 13-20 18-86 15-105-5-8-10-17-36-19-58-2-34-6-39-23-36-11 2-41 5-67 8l-48 5v37c0 20-5 42-12 49s-11 32-9 56c1 24-2 47-8 51-6 3-11 29-11 56v50l83-5c45-3 105-8 132-11zm-595-54c0-17-5-33-11-37s-9-30-7-64c1-32 0-62-5-66-4-4-7-24-7-44v-37l-102-12c-57-7-113-17-126-22s-42-9-64-9c-33 0-39 3-30 12 7 7 12 20 12 30s4 26 9 36c5 9 17 35 28 57s25 49 31 60 13 32 17 47c4 20 13 29 33 33 15 4 35 10 44 16 10 5 37 9 60 9 24 0 50 5 58 10s25 10 38 10c18 0 22-6 22-29zm1570-31c0-15-7-20-28-20-42 0-47 12-10 26 18 6 34 12 36 13 1 0 2-8 2-19zm-3495-30c3-5 16-10 28-10 18 0 19-2 7-10-27-17-60-12-60 10 0 21 15 27 25 10zm-375-160c0-5-12-10-27-10-22 0-25 2-13 10 20 13 40 13 40 0zm-353-157c-3-2-21 4-41 15l-36 19 38 15 37 14 3-29c2-16 1-31-1-34zm1668-3c3-5-8-16-24-25-39-20-41-19-41 10 0 21 5 25 29 25 17 0 32-4 36-10zm1620-21c16-6 12-8-15-8-48-1-60-16-60-71 0-25 5-51 12-58 18-18 108-15 130 5 20 18 25 87 8 98-5 3-10 10-10 16 0 12 127 12 135-1 3-5 30-10 58-11h52l-23-11c-27-13-37-46-29-95 7-42 20-53 62-53 23 0 27-3 15-10-8-5-27-10-41-10s-57-15-95-34c-70-34-142-102-209-196-16-24-49-63-72-87-35-38-47-44-75-41l-33 3-6 75c-10 119-44 215-88 253-15 12-47 29-72 36-24 7-53 17-64 21-50 20-63 24-109 29l-50 6 3 70c1 38 5 73 7 77 3 4 42 8 86 8h81l-16-18c-23-25-22-85 2-106 14-13 33-16 77-14l59 3v129l-25 7c-14 4 45 5 130 2s164-9 175-14zm-795-263c0-146 4-237 10-241 19-12 10-40-24-73l-34-33-43 14c-57 19-68 44-69 149v88l-35 39c-32 35-126 91-153 91-7 0-12 18-12 45 0 24-6 50-14 57-11 10-7 15 23 25 51 18 51 18 51-32v-45l26-10c33-13 90-13 115 0 14 8 19 21 19 56 0 25-5 54-10 65l-11 19h23c13 0 30 5 38 10s34 10 58 10h42v-234zM506 3119c3-5-6-9-20-9-16 0-26 6-26 14 0 15 36 11 46-5zm3579 1c3-5 17-10 29-10 32 0 42-16 48-72l6-48h-67l-66 1 18 14c15 11 18 24 15 69-3 53 3 69 17 46zm275-85c18-21 5-45-25-45-21 0-25 5-25 30 0 23 5 30 19 30 10 0 24-7 31-15zm-2840-160c0-26-22-33-49-16-10 7-8 12 10 25 32 22 39 20 39-9zm-950-115c-25-16-30-12-30 22v32l23-22 22-23-15-9zm2558 21c103-51 142-83 142-118 0-13-17-42-40-67l-40-43v-149l48-45c26-25 60-51 75-57 34-15 84-16 92-2 3 6 19 10 35 10 19 0 44 13 75 40s56 40 76 40c16 0 37 4 47 8 102 50 137 71 150 92 9 14 36 47 59 74 24 26 43 54 43 61 0 39 66 85 166 115 43 13 195 9 269-7l40-8-1-50c-1-28-4-72-9-100l-7-50-151 3c-95 2-154-1-160-7s-24-11-40-11-40-9-54-20-31-20-38-20c-29 0-195-103-195-122 0-4-13-22-28-40-16-18-35-54-43-80-15-52-20-55-63-33-21 11-63 15-165 15-181 0-214-12-270-95-35-51-42-83-48-206l-4-97-82-7c-45-3-129-10-187-15-119-10-176-18-205-29-58-23-88-30-77-19 16 16 15 90-1 112-11 15-24 17-70 15-56-4-73 3-41 15 9 3 30 6 49 6 18 0 37 6 43 13 7 8 10 78 9 197l-2 185-55 3c-30 2-60 8-67 14-10 8-13 61-13 214v204l27 6c14 4 34 2 44-5 10-6 24-11 31-11 6 0 22-10 35-22l23-21v-183l48-46c49-48 63-53 182-65 44-4 60-11 80-34 33-38 106-58 153-41 18 7 40 12 49 12 8 0 36 22 62 50l46 49v53c0 67-25 132-56 147l-24 11v85c0 86 4 93 38 76zm-104-326c-8-21-33-26-54-12-24 14-25 30-4 52l17 16 23-22c12-11 20-27 18-34zm360 29c20-8 21-40 1-48-18-7-55 13-55 30 0 23 22 30 54 18zm894-186 54-13-6-295-5-295-25-3c-13-2-44 10-72 27l-48 31h30c48 1 64 20 64 78 0 33-6 56-16 66-20 21-83 20-106-1-24-21-25-99-1-125 16-18 6-26-12-9-13 12-73 20-215 30-63 4-128 12-143 16l-28 8 35 29c20 16 43 43 51 58 20 38 19 119-1 158l-15 31 23 33c60 87 109 120 242 163 83 27 121 30 194 13zm-584-326c-6-9-22-17-35-17-34 0-40 42-7 54 31 12 58-11 42-37zm-203-51c4-29 13-50 27-60l44-33 23-17-102-1h-102l-17 36-17 35 14 27c26 53 40 63 83 60l41-3 6-44zm-986-207c-43-32-95-30-95 3v18l57-4 57-3-19-14zm705-86c0-53 22-78 69-78 54 1 71 19 71 74v46h100v-43c0-60 22-79 86-75l49 3 3 53c3 44 6 52 23 52 15 0 19-7 19-37 0-51 23-73 78-73 56 0 82 21 82 67 0 20 5 33 13 33 9 0 11-12 9-39l-4-38 30-22c33-23 91-28 110-9 14 14 27 5 17-12-4-6-25-23-48-37s-47-34-54-43c-22-31-67-42-145-36-40 3-124 8-186 12l-112 6-11 19c-7 15-21 19-59 19-70 0-80-14-80-114v-83l-122-6c-68-3-131-8-140-12l-18-7v43c0 27-8 56-20 74-18 28-36 43-152 131l-48 36v35c0 22-7 41-17 49l-18 13 28 1h27v-32c0-45 25-68 75-68 53 0 65 13 65 72v48h20c16 0 20-7 20-32 0-48 24-68 85-68 62 0 75 11 75 66 0 36 3 43 23 47 55 11 57 9 57-35zm-225-528c-11-5-27-9-35-9l-15-1 15 10c8 5 24 9 35 9h20l-20-9zm805 0 15-10h-15c-8 0-22 5-30 10l-15 10h15c8 0 22-5 30-10zm-510-145c7-8 10-22 6-30l-6-16-107 5c-60 2-127 7-151 11-78 13-55 25 50 26 57 1 117 5 133 9 47 12 62 11 75-5zm385-4c153-9 75-30-143-38l-122-4-6 16c-4 8 0 23 7 31 11 14 25 15 84 9 38-4 120-10 180-14z"
    ></path>
    <path
      d="M3037.02 1909.107c0 43.41-35.192 78.601-78.602 78.601-43.41 0-78.602-35.19-78.602-78.601 0-43.41 35.191-78.602 78.602-78.602 43.41 0 78.601 35.191 78.601 78.602ZM2748.892 1861.461c0 43.76-35.474 79.234-79.233 79.234-43.76 0-79.234-35.474-79.234-79.234s35.474-79.233 79.234-79.233c43.759 0 79.233 35.474 79.233 79.233ZM4033.037 1885.271c0 41.789-33.876 75.665-75.665 75.665-41.789 0-75.666-33.876-75.666-75.665 0-41.789 33.877-75.665 75.666-75.665 41.789 0 75.665 33.876 75.665 75.665ZM3897 1943"
    ></path>
  </g>
  <g>
    <path
      d="M1410 4041c10-20 45-47 91-70 14-7 48-30 75-52 27-21 76-57 109-80s78-59 100-79 59-47 83-60c23-13 42-27 42-31 0-17-30-27-95-33-38-3-101-10-140-16-198-27-250-37-330-60-55-16-155-29-174-23-38 12-100 43-106 53-3 5-16 10-29 10-25 0-76 21-76 33 0 4-9 7-20 7s-20 5-20 10c0 6-7 10-15 10s-30 9-50 20-41 20-47 20-20 7-30 17c-10 9-28 21-41 28-18 9-21 18-19 50 2 22 8 44 13 50 5 5 9 18 9 30s4 25 9 30c5 6 11 29 15 53l6 43-32-3-32-3-16-45c-23-65-49-116-68-133-13-12-49-17-142-21-120-4-262-18-325-31-16-3-40-8-53-11-17-3-22-10-20-27l3-22 295-5 295-5 75-37c41-21 82-38 91-38 8 0 19-4 25-8 5-4 27-14 48-21 47-16 128-63 133-77 2-5-18-15-44-23-27-7-58-17-71-22s-33-9-44-9c-29 0-83-17-278-86-52-19-104-34-116-34-11 0-24-3-28-7-9-10-78-33-98-33-27 0-138-52-138-64 0-6 33-27 73-46 78-37 127-67 127-78 0-9-45-28-85-36-39-9-91-22-135-35-19-5-52-14-74-20-21-5-43-14-49-20-14-14-1-41 22-41 11 0 23-4 26-10 3-5 15-10 25-10 11 0 49-13 85-30 36-16 72-30 80-30 7 0 17-4 20-10 3-5 17-10 30-10s27-4 30-10c3-5 17-10 31-10 13 0 24-3 24-8 0-4 10-12 22-17 29-14 35-35 9-35-12 0-29-4-39-9-40-20-101-44-153-61-31-10-83-31-115-48l-59-29-62 5-63 4v-42h1151c764 0 1148 3 1144 10-4 6-223 10-626 10-340 0-627 4-637 9-9 5-35 14-57 20-22 7-51 17-65 23s-34 14-45 18-57 26-103 48c-45 23-91 42-100 42-10 0-33 13-52 30-19 16-43 29-52 30-9 0-20 5-23 10-3 6-19 10-35 10s-32 5-35 10c-3 6-17 10-30 10s-27 5-30 10c-3 6-13 10-21 10s-34 9-56 20c-23 11-49 20-58 20-22 0-54 35-45 49 3 6 13 11 22 11 17 0 24 2 169 50 50 16 107 30 125 30 19 1 45 7 58 14l24 13-24 17c-13 9-28 16-34 16-28 0-155 73-155 88 0 9 39 25 120 51 131 40 148 43 186 37 22-4 102-12 179-17 153-10 320-23 490-39 118-11 265-23 437-37 67-6 113-14 120-22 8-8 9-15 3-18-5-2-37-19-70-38-106-60-401-221-463-252-72-37-1-73 146-73 51 0 101-4 111-9 9-5 145-11 301-12l285-2 3 15c7 38-22 43-292 50-288 8-416 16-416 26 1 18 20 33 75 58 33 15 66 34 73 41s21 13 29 13c9 0 48 15 87 34 39 18 120 57 181 85 101 48 124 64 125 83 0 12-63 36-110 43-48 6-132 18-252 36-40 5-152 14-248 19-156 8-304 18-570 36-47 3-89 10-94 15-6 5-27 9-48 9-75 0-36 22 77 45 17 3 47 10 68 15 103 27 126 32 172 40 56 10 118 23 185 40 25 6 69 16 98 21 84 15 153 27 212 39 30 6 80 15 110 21s112 13 182 16l127 5 45-31c24-17 47-31 51-31 3 0 32-18 63-40l57-40 180 2 180 3 3 17c4 19-41 26-238 34l-125 5-37 30c-20 16-41 29-46 29s-17 9-27 20-23 20-30 20c-6 0-24 14-40 30-16 17-36 30-45 30-19 0-110 76-110 92 0 6 66 8 183 6l182-3 65 42c36 23 76 51 90 61 14 11 41 27 60 37 40 21 86 55 138 105l37 35-59 3-58 3-55-56c-35-36-83-70-136-98-127-65-110-63-427-51l-185 6-36 29c-20 16-41 29-46 29s-22 14-38 30c-16 17-34 30-40 30-7 0-20 9-30 20s-25 20-34 20-27 9-41 20-38 20-53 20h-28l11-19zM662 2720c23-11 46-20 52-20 16 0 136-64 136-72 0-5-126-8-280-8s-280 4-280 8c0 11 45 32 68 32 10 0 22 4 27 8 10 8 39 17 135 42 36 9 73 20 98 29 2 1 22-8 44-19zM4555 4040c10-11 26-20 36-20s38-13 62-30c25-16 49-30 55-30 10 0 107-36 134-51 10-5 23-9 29-9 20 0 215-98 229-115 15-18 17-16-40-43-42-20-120-44-200-62-19-4-78-22-130-40-149-51-299-75-323-51-6 6-32 11-58 11s-51 5-54 10c-3 6-26 10-50 10s-47 5-50 10c-3 6-19 10-35 10s-32 5-35 10c-7 11-58 14-67 4-12-11 5-44 26-49 11-3 39-10 61-16s48-15 57-20c10-5 30-9 46-9 15 0 32-4 37-9 9-8 34-13 153-27 26-3 56-9 67-14s36-11 55-14c19-2 55-10 80-16s70-15 100-20c99-16 125-21 145-30 20-8 38-13 125-30 25-5 60-12 78-16 17-3 32-9 32-13 0-3-26-17-58-30-258-105-287-128-187-144 146-23 187-29 265-37 47-5 117-14 155-20 164-25 277-38 495-59 110-11 119-14 217-79 79-52 102-77 86-93-4-4-55-10-113-13-153-9-320-33-348-50-20-12 1-30 73-67 35-17 67-39 70-47 4-10-11-33-42-64l-47-48h-608c-394 0-609-4-613-10-4-7 376-10 1134-10 749 0 1142-3 1146-10 3-5 35-10 71-10h64v40h-294c-186 0-297 4-301 10-3 6-21 10-40 10s-37 5-40 10c-3 6-17 10-30 10s-27 5-30 10c-3 6-21 10-40 10s-37 5-40 10c-3 6-28 10-55 10s-52 5-55 10c-3 6-19 10-35 10s-42 5-57 12c-29 12-93 67-93 79 0 4 21 10 48 13 26 4 81 11 122 16 41 6 105 13 141 18 68 7 99 23 99 50 0 17-60 74-102 97-48 26-34 38 35 30 34-3 109-10 167-15 174-15 199-20 205-41 4-11 22-36 41-57 19-20 34-41 34-46 0-28 39-35 178-36h142v62l-67-6c-38-3-95-8-129-12l-61-6-32 38c-17 21-31 43-31 49 0 24-66 75-96 75-16 0-34 4-40 9-5 5-45 12-89 15s-132 10-195 16c-105 9-159 15-333 36-31 3-60 10-63 15-12 21 165 214 292 317 39 32 54 34 195 28 301-14 395-16 409-7 9 6 17 37 22 83 4 40 11 93 15 118l8 44 35 9c19 5 63 12 98 14l62 5v58h-69c-74 0-155-26-178-57-8-10-13-47-13-88 0-45-6-84-16-103l-15-32h-137c-74 0-175 5-223 11-73 10-97 9-150-5l-64-16-165-163c-187-185-222-212-253-202-12 4-67 11-122 16-160 14-199 19-220 29-20 9-75 16-213 26-47 4-72 10-69 17 2 6 60 40 130 75s127 70 127 77c0 6-19 18-42 25-24 8-47 17-53 20-11 8-42 16-115 30-83 16-105 21-125 30s-42 13-145 30c-95 15-120 22-120 31 0 5 6 9 14 9 7 0 35 9 62 19s69 24 94 31c73 19 112 31 165 50 28 10 83 28 123 41 68 21 112 53 112 81 0 5-14 22-31 37l-30 28 50 27c28 14 56 26 62 26s39 13 73 29c33 15 81 36 106 45 25 10 50 22 55 26 14 12 97 40 118 40 9 0 17 5 17 10 0 6-33 10-80 10-44 0-80-4-80-8 0-5-30-19-67-31-60-20-117-44-292-122-31-14-47-17-54-10-6 6-21 11-34 11s-31 4-41 10c-9 5-48 23-87 40-38 18-78 36-87 41-10 5-24 9-33 9-15 0-82 34-99 51-6 5-37 9-70 9h-59l18-20zm1345-1357c14-2 34-8 45-13 25-11 71-21 109-24 17-2 32-8 34-14 3-9-35-12-137-12-156 0-169 6-136 56 13 20 22 24 38 19 12-4 33-9 47-12zM3135 3670c-11-5-39-9-62-9-23-1-44-5-47-10-6-9-44-16-136-27-25-3-54-9-65-14s-32-11-47-14c-20-5-29-14-33-34-4-15-11-36-17-47s-20-38-31-60-23-48-28-57c-5-10-9-24-9-31 0-8-11-35-25-62-13-27-21-53-18-58s19-6 37-2c17 3 56 10 86 15l120 20c36 6 117 14 180 18l115 7 3 45c1 25 7 54 13 65 13 26 8 257-6 261-5 1-19-1-30-6zm-9-51c24-27 8-54-32-54-23 0-30 5-32 23-8 53 28 70 64 31zm-11-139c0-26-5-36-18-38-35-7-73 49-50 72 4 4 21 6 38 4l30-3v-35zm-7-82c20-20 14-54-12-66-20-9-27-7-47 14l-22 24 18 20c20 23 45 26 63 8zM3282 3503l3-178 115-7c63-4 138-9 165-10l50-3 3 41c3 45 29 78 54 69 13-5 33-44 52-98 9-28 23-11 18 23-9 63 54 85 82 28 9-17 16-42 16-55 0-26 21-39 46-29 13 5 14 9 4 20-6 8-10 32-8 53l3 38h35c27 0 35-4 38-20 2-11 7-29 12-40s10-31 12-45c2-18 10-26 28-28 14-2 34-8 46-13 12-6 32-9 45-7 31 4 28 32-11 108-16 30-34 73-40 95-7 22-17 49-23 60s-17 32-24 47c-8 15-20 31-26 35-28 18-85 33-129 33-26 0-50 5-53 10-3 6-21 10-39 10-17 0-36 4-42 9-14 14-96 22-272 27l-162 5 2-178zm88 143c6-8 10-25 8-38-2-18-10-24-35-26-39-4-55 28-27 59 20 23 37 24 54 5zm18-127 13-21-17-19c-24-27-53-24-64 7-19 49 41 77 68 33zm10-105c29-20 28-48-2-62-20-9-27-7-40 7-19 21-21 57-3 64 19 8 21 8 45-9z"
    ></path>
    <path
      d="M3347 3233c-5-4-70-10-145-13l-137-5-6-70c-3-38-9-78-13-87-14-31 11-58 54-58 21 0 52-5 67-11 51-21 67-27 112-40 25-7 57-24 72-36 44-38 78-134 88-253l6-75 63-3 64-3 41 44c23 24 56 63 72 87 66 93 139 162 207 195 86 42 109 46 323 54l180 6 3 43c4 49-10 72-44 72-12 0-26 5-29 10-3 6-21 10-40 10s-37 5-40 10c-3 6-19 10-35 10s-32 5-35 10c-3 6-16 10-29 10-12 0-26 4-32 9-8 8-33 13-151 27-27 3-57 9-68 14s-58 12-105 14c-153 9-344 24-390 31-25 4-49 3-53-2zm8-113v-35l-31-3c-20-2-36 4-49 18l-18 20 18 20c13 14 29 20 49 18l31-3v-35zm353-1 13-21-17-19c-29-33-84-19-84 21 0 41 65 56 88 19zm306-19c32-12 35-50 5-68-20-13-59-8-59 8 0 5-3 15-6 23s2 22 11 31c19 19 17 19 49 6zm264-49c8-50-60-73-78-26-5 14-7 31-4 39 13 33 77 23 82-13zM2845 3191c-9-8-38-13-160-27-27-3-54-10-60-15-5-5-17-9-27-9s-26-4-36-9c-9-5-35-14-57-19-156-41-148-36-160-115-9-62 5-73 94-76 81-3 155-36 206-92l35-39v-86c0-89 17-144 45-144 9 0 36-10 61-21l45-22 44 44 45 44v47c0 26-5 50-10 53-7 4-10 92-10 248l2 242-24 3c-13 2-28-1-33-7zm-155-110c16-31 12-51-13-62-34-16-77 4-77 35 0 43 70 64 90 27zm-225-57c9-9 15-26 13-38-2-17-10-21-38-21-41 0-52 25-24 56 21 23 28 24 49 3z"
    ></path>
    <path
      d="M3054 2929c-11-18 21-40 67-46 55-6 94-23 145-63 50-41 73-84 74-140 0-43 13-70 32-70 12 0 10 148-2 155-5 3-10 21-10 39 0 20-8 40-20 51-35 31-113 65-151 65-21 0-41 5-44 10-8 14-82 13-91-1zM4060 2890c-8-5-32-10-52-10s-40-4-43-10c-3-5-15-10-27-10-35 0-113-59-154-117-21-30-54-73-71-95-18-22-33-46-33-53 0-14-109-75-133-75-21 0-32-19-19-32 6-6 29-5 68 4 49 11 67 21 109 63 28 28 61 68 75 89s43 61 66 89c41 53 47 56 189 97 36 10 141 10 315-2l45-3 3 23c7 47-9 52-172 52-83 0-158-5-166-10zM2415 2860l-70-5v-25c0-20 4-24 20-21 11 2 45 5 76 8l55 5 46-29c56-34 78-81 78-166 0-60 16-97 54-129 23-19 66-24 66-8 0 6-10 14-22 19-51 19-60 46-74 210-5 52-11 69-33 91-49 50-84 59-196 50z"
    ></path>
    <path
      d="M3067 2833c-4-3-7-60-7-125v-118l24-11c25-12 56-76 56-117 0-30-86-122-114-122-11 0-27-4-35-9-21-13-72 7-101 39-20 22-36 29-80 33-119 12-133 17-182 65l-48 46v183l-23 21c-13 12-31 22-40 22s-19 5-22 10c-8 13-105 13-125 0-12-7-14-46-11-237 2-132 7-233 13-240 5-7 35-13 66-15l57-3 3-26c4-34-14-47-68-51-32-2-45-7-45-18s15-16 55-20l55-5v-70l-55-5-55-5v-50l32 2c49 4 83-12 83-40 0-32-18-47-59-47-60 0-62-4-59-136l3-119 53-3c44-3 62 2 106 27 29 17 62 31 73 31 10 0 23 4 29 9 15 14 54 19 394 46l85 7 1 97c1 117 9 152 45 206 54 80 91 95 240 95 106 0 147-10 190-47 26-22 47-5 65 55 10 31 30 72 46 90 15 18 28 36 28 40 0 19 166 122 195 122 7 0 24 9 38 20s39 20 55 20c17 0 34 5 38 11 5 8 51 10 159 7l153-5 8 51c4 28 8 87 8 131l1 80-40 8c-71 16-286 20-330 7-99-30-165-76-165-115 0-7-19-35-43-61-23-27-50-60-59-74-13-21-48-42-150-92-10-4-31-8-47-8-20 0-45-13-76-40s-56-40-75-40c-16 0-31-4-35-10-10-15-56 10-107 59l-48 45v89l40 43 40 44v106l-27 26c-28 25-62 45-118 68-16 7-38 16-47 21-21 11-32 11-41 2zm-79-895c19-19 14-52-9-66l-21-13-19 17c-21 19-25 60-6 67 22 9 43 7 55-5zm-280-59 13-21-17-19c-21-23-42-24-66-2-22 20-22 27-2 47 22 22 57 20 72-5zm-196-64c14-32-5-57-41-53-27 3-39 33-27 64 9 24 55 17 68-11z"
    ></path>
    <path
      d="M2960 2781c0-39 9-61 26-61s19 42 4 71c-16 28-30 23-30-10zM3059.209 2468.484c0 40.3-32.669 72.968-72.968 72.968-40.298 0-72.967-32.669-72.967-72.968 0-40.298 32.669-72.967 72.967-72.967 40.3 0 72.968 32.669 72.968 72.967ZM3438.691 2466.15c0 39.05-31.656 70.706-70.705 70.706-39.05 0-70.705-31.656-70.705-70.705 0-39.05 31.656-70.706 70.705-70.706 39.05 0 70.705 31.656 70.705 70.706ZM2760 2470c0-5 18-10 40-10s40 5 40 10c0 6-18 10-40 10s-40-4-40-10zM4085 2428c-74-18-115-31-115-38 0-3 5-11 11-17 7-7 25-5 61 9 43 16 70 18 167 15 64-3 127-6 141-8 17-3 25 1 25 11 0 11-21 18-85 27-100 14-151 14-205 1zM3855 2336c-48-21-77-58-126-158-12-24-11-61 1-53 6 3 10 14 10 23 0 18 119 146 152 163 20 11 25 39 6 39-7-1-26-7-43-14z"
    ></path>
    <path
      d="M4054 2315c-137-45-185-78-247-171-32-48-33-53-7-106 25-52 25-75 1-114-53-87-143-109-224-54-48 32-57 46-57 89 0 38-32 66-59 52-11-6-35-11-54-11-70 0-112-108-72-188l16-30 217-6c296-8 515-27 537-47 5-5 16-9 25-9s38-14 64-30l48-31 56 3 56 3 2 190c1 105 3 250 5 324l3 134-49 13c-77 20-179 16-261-11zm-60-417c8-14 6-22-11-40l-22-22-21 19c-20 18-26 45-13 59 12 12 56 2 67-16zm230-34c22-22 20-57-5-72l-21-13-19 17c-23 21-24 42-2 66 20 22 27 22 47 2z"
    ></path>
    <path
      d="M3340 2120c-54-10-96-36-119-74l-22-34 3-114 3-113h50l3 85c1 47 6 94 11 105s13 32 19 47c17 43 63 60 141 55 36-3 78-8 94-12 32-9 38 12 10 37-20 17-136 28-193 18zM3628 2043l-28-14v-98l30-16 30-16 30 16c54 28 67 86 27 123-26 25-50 26-89 5zM3130 1694c-8-2-87-9-175-14-230-13-345-35-345-67 0-13 8-15 43-11 32 4 49 0 66-13l22-18-13-21-13-21 31-27c17-15 58-47 90-72 111-86 141-131 115-173-23-36-1-42 106-29 123 15 498 16 614 1 101-13 120-9 112 21-9 35-58 46-225 53l-157 7-27-24-28-24-23 15-23 15v58c0 40 5 64 16 74 21 22 51 20 63-3l11-19 112-6c185-10 242-16 266-28 18-10 30-7 65 12 23 13 55 36 71 52 15 15 32 28 36 28 5 0 23 12 40 26l31 27-6 38-7 39 27 10c18 7 33 7 46-1 24-12 59-3 59 16 0 8-12 18-27 21-16 4-32 10-38 14-26 20-286 38-640 44-154 3-287 3-295 0zm-232-92c-5-37-32-50-57-28-27 25-27 51 1 70l22 16 18-17c11-10 18-27 16-41zm200 30c7-49-48-70-83-32l-18 20 18 20c27 29 79 24 83-8zm220-2c2-17-4-29-19-38l-21-13-19 17c-19 17-25 45-12 58 4 4 21 6 38 4 24-2 31-8 33-28zm237-10c0-41-25-52-56-24-37 33-21 65 31 61l25-2v-35zm190 20 18-20-18-20c-10-11-26-20-35-20s-25 9-35 20l-18 20 18 20c10 11 26 20 35 20s25-9 35-20zm193-31c2-16-5-29-18-37l-21-13-30 22-30 21 18 22c10 11 22 24 28 28 16 11 50-17 53-43zM2920 1130c-8-5-26-10-40-10-15 0-30-4-35-9-6-5-27-14-48-21-70-22-38-34 83-31 63 1 119 6 125 9 5 4 73 9 150 12l140 5 3 28 3 27h-183c-101 0-190-5-198-10zM3364 1125c-16-40-2-44 183-49 98-3 231-8 297-11 92-5 117-3 114 6-4 13-13 18-58 37-52 22-91 26-308 29l-222 4-6-16zM3196 993c-4-4-78-11-164-14-178-9-269-21-237-33 11-4 30-12 43-17s40-9 62-9c21 0 41-4 44-9 10-15 85-23 231-25l140-1 3 43c2 24-2 50-9 58-12 15-100 20-113 7zM3371 987c-7-9-11-34-9-59l3-43 155 1c85 1 180 6 210 12s71 14 90 17c132 21 183 45 97 45-24 0-47 4-53 9-5 5-74 12-154 15s-186 9-236 12c-73 5-92 3-103-9z"
    ></path>
  </g>
  <g fill="#FDFDFA">
    <path
      d="M3710 810c-12-7-12-12-2-22 17-17 15-79-3-104l-14-21 64-63c36-34 65-66 65-71 0-14-58-62-96-79-41-19-35-30 17-30 21 0 41-4 44-10 3-5 16-10 28-11 33-1 121-52 125-73 5-24-36-66-64-66-13 0-25-4-28-9-6-9 79-71 97-71 17 0 77-64 77-82 0-11 8-18 19-18 10 0 35-18 55-40l36-40h75c41 0 75 4 75 8 0 20-32 70-65 102-19 18-35 39-35 45s-13 21-30 33c-16 13-30 31-30 41s17 52 39 94c28 54 36 78 28 86-7 7-55 11-118 11-61 0-111 4-114 10s-16 10-29 10c-29 0-46 18-46 50 0 36 65 90 108 90 10 0 22 4 28 9 5 5 20 11 33 13 14 1 26 8 28 15 4 12-50 43-78 43-10 0-21 5-24 10-3 6-21 10-40 10s-37 5-40 10c-3 6-16 10-29 10-32 0-46 19-46 62v38h-38c-21 0-42 4-48 10-5 5-15 6-24 0zM3018 779c3-22-2-37-19-55-22-24-66-32-84-16-6 5-30 14-55 21s-53 17-62 22c-26 14-22-2 12-41 36-42 37-60 7-88l-23-22h-88c-55 0-85-4-81-10 3-5 16-10 27-10 12 0 31-9 42-19 12-10 41-26 66-34 24-8 49-21 54-30 13-20 1-46-26-56-13-5-34-21-47-35-14-14-30-26-36-26-7 0-19-8-29-18-9-11-35-25-59-32-23-8-61-26-84-42-23-15-49-28-57-28-9 0-16-4-16-10 0-14 46-13 87 2 34 12 62 5 70-19 4-12-190-204-220-218-17-8-6-10 54-13l75-3 105 106c59 60 121 115 144 125 22 10 76 55 120 100s90 86 103 91l23 9-29 25c-17 14-34 25-39 25s-23 15-41 33c-52 54-40 107 24 107 18 0 36 5 39 10 3 6 19 10 34 10 29 0 51 30 51 70 0 10 4 21 9 24s11 22 13 41l4 35h-73l5-31z"
    ></path>
    <path
      d="M3186 794c-3-9-6-29-6-44 0-16-4-32-10-35-5-3-10-19-10-35 0-69-39-120-92-120-37 0-50-12-25-24 61-29 92-55 95-81l4-28-124-124c-67-67-129-123-136-123s-16-10-21-23c-5-12-21-33-35-46-14-14-26-30-26-36 0-7-9-20-20-30-50-45-55-45 542-45h562l-70 72c-39 40-74 81-77 91-4 9-12 17-20 17-21 0-59 46-55 67 2 10 22 27 45 38 51 24 54 35 10 35-21 0-41 8-52 20-10 11-28 20-39 21-38 1-81 33-84 63-4 36 17 59 85 93l54 26-60 61c-34 34-61 69-61 78s14 28 30 41c17 14 26 29 20 32-5 3-10 17-10 31v24h-408l-6-16z"
    ></path>
  </g>
</svg>
