<svg xmlns="http://www.w3.org/2000/svg" id="root" viewBox="0 0 99 59">
  <g>
    <path
      style="stroke: none; fill-rule: nonzero; fill: rgb(81.176471%, 80.784314%, 63.921569%); fill-opacity: 1"
      d="M 0 48.480469 L 0 37.957031 L 1.050781 37.855469 L 2.117188 37.753906 L 2.847656 38.132812 C 3.253906 38.335938 3.625 38.511719 3.667969 38.511719 C 3.710938 38.511719 3.742188 38.351562 3.742188 38.148438 L 3.742188 37.785156 L 12.648438 37.785156 L 12.691406 38.058594 L 12.734375 38.335938 L 13.308594 38.101562 L 13.886719 37.871094 L 23.441406 37.828125 C 30.058594 37.785156 33.066406 37.726562 33.195312 37.609375 C 33.339844 37.492188 33.382812 36.839844 33.382812 34.964844 C 33.382812 33.511719 33.441406 32.40625 33.527344 32.320312 C 33.613281 32.230469 33.6875 30.460938 33.699219 27.902344 L 33.742188 23.613281 L 34.175781 23.570312 C 34.417969 23.554688 34.75 23.453125 34.921875 23.367188 C 35.097656 23.28125 35.414062 23.25 35.644531 23.292969 C 36.550781 23.46875 36.605469 23.46875 36.78125 23.136719 C 36.964844 22.757812 37.5 22.421875 38.015625 22.351562 C 38.191406 22.320312 38.421875 22.160156 38.507812 21.972656 C 38.722656 21.535156 39.585938 20.636719 39.785156 20.636719 C 39.875 20.636719 40.347656 20.230469 40.835938 19.71875 L 41.730469 18.804688 L 41.730469 18.152344 C 41.730469 17.410156 41.3125 16.855469 40.75 16.855469 C 40.59375 16.855469 40.40625 16.785156 40.363281 16.710938 C 40.320312 16.625 40.132812 16.566406 39.945312 16.566406 C 39.441406 16.566406 39.140625 16.128906 39.140625 15.359375 C 39.140625 14.996094 39.210938 14.648438 39.285156 14.605469 C 39.371094 14.5625 39.425781 14.226562 39.425781 13.878906 L 39.425781 13.238281 L 39.886719 13.019531 C 40.132812 12.890625 40.636719 12.789062 41.011719 12.789062 C 41.371094 12.789062 41.730469 12.730469 41.816406 12.65625 C 41.886719 12.585938 42.175781 12.496094 42.449219 12.46875 C 42.851562 12.4375 42.996094 12.324219 43.226562 11.886719 C 43.585938 11.191406 44.046875 11.144531 44.5625 11.769531 C 44.953125 12.25 45.472656 12.335938 45.757812 11.988281 C 45.859375 11.871094 45.902344 11.667969 45.84375 11.554688 L 45.773438 11.335938 L 51.800781 11.335938 L 51.800781 11.609375 C 51.800781 12.324219 52.894531 12.410156 53.210938 11.742188 C 53.328125 11.496094 53.515625 11.335938 53.6875 11.335938 C 54.019531 11.335938 54.03125 11.453125 53.730469 11.800781 C 53.371094 12.191406 53.703125 12.496094 54.480469 12.496094 C 54.808594 12.496094 55.140625 12.570312 55.183594 12.644531 C 55.226562 12.730469 55.585938 12.789062 55.960938 12.789062 C 56.335938 12.789062 56.851562 12.890625 57.097656 13.019531 L 57.558594 13.238281 L 57.558594 14.023438 C 57.558594 14.460938 57.617188 14.851562 57.703125 14.894531 C 57.789062 14.9375 57.847656 15.230469 57.847656 15.535156 C 57.847656 16.144531 57.515625 16.566406 57.011719 16.566406 C 56.851562 16.566406 56.664062 16.625 56.621094 16.710938 C 56.578125 16.785156 56.394531 16.855469 56.207031 16.855469 C 55.800781 16.855469 55.253906 17.425781 55.253906 17.859375 C 55.253906 18.035156 55.199219 18.308594 55.113281 18.457031 C 54.910156 18.832031 55.054688 19.125 55.585938 19.386719 C 55.847656 19.503906 56.207031 19.761719 56.394531 19.96875 C 56.59375 20.171875 56.824219 20.34375 56.910156 20.34375 C 57.113281 20.34375 58.261719 21.523438 58.480469 21.957031 C 58.566406 22.148438 58.765625 22.320312 58.925781 22.351562 C 59.371094 22.421875 60.089844 22.785156 60.292969 23.035156 C 60.394531 23.164062 60.710938 23.25 61.070312 23.25 C 61.398438 23.25 61.730469 23.308594 61.804688 23.382812 C 61.890625 23.46875 62.234375 23.542969 62.59375 23.570312 L 63.242188 23.613281 L 63.285156 27.902344 C 63.300781 30.460938 63.371094 32.230469 63.457031 32.320312 C 63.542969 32.40625 63.601562 33.320312 63.601562 34.382812 C 63.601562 35.515625 63.660156 36.34375 63.746094 36.402344 C 63.832031 36.445312 63.890625 36.707031 63.890625 36.96875 C 63.890625 37.214844 63.960938 37.507812 64.0625 37.609375 C 64.191406 37.738281 66.4375 37.785156 73.300781 37.785156 L 82.367188 37.785156 L 82.695312 38.101562 L 83.027344 38.40625 L 83.027344 37.785156 L 88.0625 37.785156 L 88.0625 38 C 88.0625 38.25 88.640625 38.304688 88.871094 38.074219 C 89.042969 37.898438 90.523438 37.8125 95.519531 37.726562 L 99 37.652344 L 99 59 L 37.601562 59 L 37.339844 58.710938 C 37.011719 58.347656 36.835938 58.347656 36.835938 58.710938 L 36.835938 59 L 0 59 Z M 9.8125 54.902344 L 9.757812 54.203125 L 6.289062 54.203125 C 4.390625 54.203125 2.878906 54.246094 2.933594 54.304688 C 3.066406 54.453125 5.195312 54.65625 7.382812 54.726562 L 9.210938 54.800781 L 9.527344 55.222656 C 9.699219 55.46875 9.84375 55.644531 9.855469 55.613281 C 9.871094 55.597656 9.855469 55.28125 9.8125 54.902344 Z M 29.570312 55.527344 C 30.015625 55.425781 29.816406 55.394531 28.605469 55.382812 L 27.066406 55.367188 L 27.023438 54.84375 L 26.980469 54.304688 L 26.261719 54.976562 L 25.542969 55.644531 L 27.269531 55.644531 C 28.21875 55.644531 29.253906 55.585938 29.570312 55.527344 Z M 32.664062 55.511719 C 32.550781 55.441406 32.347656 55.367188 32.234375 55.367188 L 32.015625 55.367188 L 32.234375 55.511719 C 32.347656 55.585938 32.550781 55.65625 32.664062 55.65625 L 32.878906 55.65625 Z M 28.277344 53.1875 C 28.320312 53.113281 28.492188 53.042969 28.636719 53.042969 C 28.777344 53.042969 28.953125 52.984375 28.996094 52.898438 C 29.050781 52.808594 28.851562 52.75 28.503906 52.75 C 28.015625 52.75 27.914062 52.792969 27.914062 53.042969 C 27.914062 53.347656 28.132812 53.433594 28.277344 53.1875 Z M 52.160156 52.824219 C 52.566406 52.765625 52.9375 52.664062 53.027344 52.589844 C 53.097656 52.519531 53.371094 52.460938 53.617188 52.460938 C 53.875 52.460938 54.132812 52.402344 54.175781 52.316406 C 54.21875 52.242188 54.566406 52.171875 54.9375 52.171875 C 55.574219 52.171875 56.394531 51.953125 56.796875 51.691406 C 56.882812 51.632812 57.054688 51.398438 57.167969 51.183594 C 57.269531 50.964844 57.429688 50.660156 57.515625 50.5 C 57.601562 50.339844 57.757812 49.917969 57.859375 49.554688 C 57.960938 49.191406 58.164062 48.710938 58.304688 48.464844 C 58.652344 47.882812 58.636719 47.78125 58.175781 47.839844 C 57.875 47.867188 57.757812 47.96875 57.730469 48.246094 C 57.703125 48.449219 57.628906 48.742188 57.558594 48.898438 C 57.484375 49.058594 57.414062 49.320312 57.386719 49.480469 L 57.34375 49.773438 L 55.472656 49.773438 C 54.175781 49.773438 53.542969 49.832031 53.414062 49.960938 C 53.125 50.222656 52.175781 50.179688 51.902344 49.886719 C 51.789062 49.742188 51.660156 49.367188 51.628906 49.046875 C 51.601562 48.550781 51.542969 48.480469 51.296875 48.523438 C 51.140625 48.550781 50.707031 48.59375 50.335938 48.636719 L 49.644531 48.710938 L 49.644531 49.25 C 49.644531 49.539062 49.570312 49.859375 49.472656 49.960938 C 49.371094 50.0625 49.3125 50.425781 49.339844 50.773438 C 49.355469 51.125 49.3125 51.457031 49.226562 51.515625 C 49.140625 51.558594 49.066406 51.9375 49.066406 52.328125 L 49.066406 53.054688 L 50.261719 52.984375 C 50.910156 52.941406 51.773438 52.867188 52.160156 52.824219 Z M 43.601562 52.039062 C 43.601562 51.792969 43.527344 51.558594 43.441406 51.5 C 43.355469 51.441406 43.3125 51.066406 43.339844 50.570312 C 43.355469 50.105469 43.339844 49.671875 43.269531 49.613281 C 43.210938 49.554688 43.167969 49.261719 43.167969 48.972656 L 43.167969 48.433594 L 41.699219 48.261719 C 40.878906 48.160156 40.074219 48.015625 39.886719 47.941406 C 39.699219 47.867188 39.285156 47.808594 38.96875 47.808594 C 38.492188 47.808594 38.40625 47.855469 38.535156 47.984375 C 38.636719 48.085938 38.707031 48.273438 38.707031 48.421875 C 38.707031 48.566406 38.765625 48.796875 38.835938 48.945312 C 38.910156 49.074219 39.082031 49.453125 39.242188 49.773438 C 39.398438 50.09375 39.601562 50.484375 39.6875 50.644531 C 39.773438 50.804688 39.875 51.109375 39.929688 51.328125 C 39.988281 51.617188 40.117188 51.75 40.40625 51.808594 C 40.621094 51.863281 40.910156 51.953125 41.039062 52.039062 C 41.183594 52.113281 41.570312 52.171875 41.902344 52.171875 C 42.246094 52.171875 42.621094 52.242188 42.738281 52.316406 C 42.851562 52.386719 43.097656 52.460938 43.285156 52.460938 C 43.542969 52.460938 43.601562 52.375 43.601562 52.039062 Z M 66.191406 51.589844 C 66.191406 51.371094 66.089844 51.296875 65.789062 51.296875 C 65.183594 51.296875 65.113281 51.472656 65.644531 51.675781 C 65.902344 51.761719 66.132812 51.851562 66.164062 51.863281 C 66.175781 51.863281 66.191406 51.75 66.191406 51.589844 Z M 15.902344 51.152344 C 15.945312 51.078125 16.128906 51.007812 16.304688 51.007812 C 16.5625 51.007812 16.578125 50.976562 16.402344 50.863281 C 16.015625 50.613281 15.539062 50.6875 15.539062 51.007812 C 15.539062 51.3125 15.757812 51.398438 15.902344 51.152344 Z M 10.503906 48.828125 C 10.503906 48.753906 10.332031 48.683594 10.117188 48.683594 C 9.800781 48.683594 9.757812 48.710938 9.929688 48.828125 C 10.214844 49.015625 10.503906 49.015625 10.503906 48.828125 Z M 5.425781 46.546875 C 5.382812 46.515625 5.121094 46.605469 4.835938 46.765625 L 4.316406 47.039062 L 4.863281 47.257812 L 5.394531 47.460938 L 5.4375 47.039062 C 5.46875 46.808594 5.453125 46.589844 5.425781 46.546875 Z M 29.425781 46.503906 C 29.46875 46.429688 29.3125 46.269531 29.082031 46.140625 C 28.519531 45.847656 28.492188 45.863281 28.492188 46.285156 C 28.492188 46.589844 28.5625 46.648438 28.910156 46.648438 C 29.152344 46.648438 29.367188 46.589844 29.425781 46.503906 Z M 52.738281 46.199219 C 52.96875 46.109375 52.910156 46.082031 52.523438 46.082031 C 51.832031 46.066406 51.660156 45.847656 51.660156 45.050781 C 51.660156 44.6875 51.730469 44.308594 51.832031 44.207031 C 52.089844 43.945312 53.386719 43.988281 53.703125 44.277344 C 53.988281 44.539062 54.0625 45.542969 53.816406 45.703125 C 53.746094 45.746094 53.671875 45.847656 53.671875 45.9375 C 53.671875 46.109375 55.5 46.109375 55.617188 45.921875 C 55.660156 45.847656 56.046875 45.777344 56.449219 45.761719 L 57.199219 45.761719 L 56.867188 45.601562 C 56.480469 45.414062 56.335938 44.933594 56.449219 44.222656 C 56.550781 43.609375 56.738281 43.449219 57.34375 43.449219 C 57.671875 43.449219 57.730469 43.40625 57.558594 43.304688 C 57.441406 43.234375 57.167969 43.160156 56.96875 43.160156 C 56.765625 43.160156 56.148438 42.941406 55.601562 42.664062 C 54.59375 42.171875 53.558594 41.183594 52.59375 39.816406 C 52.363281 39.46875 51.886719 38.902344 51.558594 38.554688 C 51.054688 38 50.882812 37.914062 50.476562 37.957031 L 50.003906 38 L 49.917969 39.089844 C 49.773438 40.820312 49.285156 42.214844 48.652344 42.769531 C 48.433594 42.941406 47.976562 43.1875 47.613281 43.289062 C 47.269531 43.394531 46.851562 43.539062 46.695312 43.597656 C 45.972656 43.886719 45.789062 43.945312 45.125 44.015625 L 44.40625 44.105469 L 44.449219 45.121094 C 44.464844 45.675781 44.519531 46.183594 44.550781 46.242188 C 44.59375 46.300781 45.15625 46.355469 45.789062 46.355469 L 46.953125 46.355469 L 46.722656 46.09375 C 46.390625 45.730469 46.40625 44.859375 46.75 44.554688 C 46.953125 44.367188 47.226562 44.324219 47.859375 44.351562 L 48.707031 44.394531 L 48.707031 46.269531 L 48.347656 46.371094 C 48.148438 46.429688 48.996094 46.445312 50.21875 46.402344 C 51.441406 46.355469 52.578125 46.269531 52.738281 46.199219 Z M 41.296875 42.375 C 41.296875 40.253906 41.355469 38.929688 41.441406 38.875 C 41.714844 38.699219 41.585938 38.292969 41.097656 37.8125 L 40.605469 37.332031 L 39.988281 37.535156 C 39.167969 37.8125 39.011719 38.175781 38.996094 39.703125 L 38.996094 40.980469 L 38.492188 41.546875 C 38.03125 42.054688 36.679688 42.871094 36.289062 42.871094 C 36.191406 42.871094 36.117188 43.132812 36.117188 43.523438 C 36.117188 43.871094 36.03125 44.25 35.917969 44.351562 C 35.757812 44.496094 35.816406 44.570312 36.246094 44.714844 C 36.980469 44.976562 36.980469 44.976562 36.980469 44.25 L 36.980469 43.597656 L 37.355469 43.449219 C 37.832031 43.261719 38.648438 43.261719 39.011719 43.449219 C 39.210938 43.566406 39.285156 43.757812 39.285156 44.265625 C 39.285156 44.628906 39.210938 45.050781 39.140625 45.210938 L 38.980469 45.484375 L 39.3125 45.484375 C 39.5 45.484375 39.742188 45.558594 39.859375 45.628906 C 39.972656 45.703125 40.347656 45.777344 40.695312 45.777344 L 41.296875 45.777344 Z M 7.28125 45.324219 C 7.324219 45.253906 7.195312 45.195312 6.992188 45.195312 C 6.761719 45.195312 6.621094 45.28125 6.621094 45.398438 C 6.621094 45.617188 7.136719 45.558594 7.28125 45.324219 Z M 58.78125 45.339844 C 58.824219 45.265625 59.027344 45.195312 59.199219 45.195312 C 59.660156 45.195312 59.804688 44.960938 59.890625 44.148438 L 59.976562 43.449219 L 59.011719 43.449219 L 58.0625 43.464844 L 58.320312 43.667969 C 58.535156 43.828125 58.578125 44.015625 58.535156 44.671875 C 58.492188 45.441406 58.578125 45.675781 58.78125 45.339844 Z M 62.738281 44.105469 C 62.996094 43.800781 62.808594 43.449219 62.378906 43.449219 C 62.078125 43.449219 62.019531 43.523438 62.019531 43.886719 C 62.019531 44.222656 62.089844 44.324219 62.292969 44.324219 C 62.4375 44.324219 62.636719 44.222656 62.738281 44.105469 Z M 21.871094 41.78125 C 21.871094 41.402344 21.554688 41.300781 21.167969 41.546875 C 21.023438 41.648438 21.050781 41.722656 21.3125 41.910156 C 21.769531 42.230469 21.871094 42.199219 21.871094 41.78125 Z M 8.203125 40.109375 C 7.84375 39.875 7.769531 39.933594 7.769531 40.429688 L 7.769531 40.894531 L 8.101562 40.574219 L 8.417969 40.238281 Z M 45.011719 40.414062 C 46.492188 39.671875 47.054688 39.207031 47.054688 38.699219 C 47.054688 38.511719 46.808594 38.089844 46.476562 37.726562 L 45.902344 37.101562 L 45.902344 34.933594 L 46.59375 34.28125 C 46.96875 33.917969 47.457031 33.539062 47.671875 33.453125 C 48.160156 33.234375 48.882812 33.21875 48.996094 33.421875 C 49.039062 33.511719 49.269531 33.570312 49.5 33.570312 C 49.773438 33.570312 50.132812 33.757812 50.578125 34.148438 C 51.023438 34.542969 51.386719 34.730469 51.671875 34.730469 C 51.902344 34.730469 52.207031 34.789062 52.347656 34.847656 C 53.816406 35.574219 54.320312 35.878906 54.507812 36.183594 C 54.636719 36.386719 55.027344 36.867188 55.355469 37.261719 C 55.703125 37.636719 55.976562 38.042969 55.976562 38.148438 C 55.976562 38.714844 56.925781 39.382812 58.363281 39.816406 C 58.984375 40.007812 61.167969 39.949219 62.234375 39.714844 L 62.808594 39.601562 L 62.796875 38.875 C 62.78125 38.464844 62.738281 37.828125 62.667969 37.421875 L 62.566406 36.691406 L 60.394531 36.738281 C 59.027344 36.765625 58.175781 36.722656 58.089844 36.636719 C 58.003906 36.546875 57.746094 36.476562 57.515625 36.476562 C 57.285156 36.476562 56.9375 36.34375 56.738281 36.183594 C 56.535156 36.023438 56.292969 35.894531 56.191406 35.894531 C 55.773438 35.894531 53.386719 34.398438 53.386719 34.121094 C 53.386719 34.0625 53.199219 33.800781 52.980469 33.539062 C 52.753906 33.277344 52.480469 32.753906 52.363281 32.378906 C 52.148438 31.621094 52.074219 31.578125 51.457031 31.898438 C 51.15625 32.058594 50.550781 32.117188 49.082031 32.117188 C 46.476562 32.117188 46.003906 31.941406 45.199219 30.734375 C 44.695312 29.992188 44.59375 29.527344 44.507812 27.742188 L 44.449219 26.332031 L 43.269531 26.230469 C 42.621094 26.1875 41.414062 26.085938 40.578125 26.011719 C 38.867188 25.867188 38.046875 25.75 37.628906 25.589844 C 36.792969 25.257812 36.363281 25.15625 36.519531 25.316406 C 36.75 25.546875 36.738281 26.621094 36.507812 26.941406 C 36.347656 27.160156 36.160156 27.1875 35.5 27.160156 C 34.691406 27.101562 34.449219 27.203125 34.910156 27.378906 C 35.039062 27.421875 35.339844 27.464844 35.613281 27.464844 C 35.875 27.464844 36.148438 27.550781 36.234375 27.65625 C 36.332031 27.769531 36.375 28.789062 36.363281 30.515625 L 36.332031 33.207031 L 35.542969 33.25 C 35.109375 33.277344 34.679688 33.367188 34.578125 33.453125 C 34.433594 33.570312 34.390625 34.339844 34.390625 36.5625 L 34.390625 39.527344 L 34.78125 39.613281 C 34.980469 39.671875 35.269531 39.644531 35.414062 39.542969 C 35.554688 39.453125 35.757812 39.382812 35.859375 39.382812 C 35.945312 39.382812 36.175781 39.238281 36.363281 39.0625 L 36.691406 38.757812 L 36.691406 36.097656 L 37.382812 35.429688 C 38.089844 34.730469 38.289062 34.660156 40.003906 34.484375 C 40.636719 34.425781 40.867188 34.324219 41.152344 33.992188 C 41.628906 33.4375 42.679688 33.148438 43.355469 33.394531 C 43.613281 33.496094 43.929688 33.570312 44.0625 33.570312 C 44.175781 33.570312 44.578125 33.886719 44.953125 34.296875 L 45.613281 35.007812 L 45.613281 35.777344 C 45.613281 36.75 45.253906 37.695312 44.808594 37.914062 L 44.464844 38.074219 L 44.464844 39.308594 C 44.464844 40.558594 44.519531 40.660156 45.011719 40.414062 Z M 43.515625 35.675781 C 43.398438 35.371094 43.039062 35.296875 42.738281 35.5 C 42.390625 35.707031 42.378906 35.9375 42.679688 36.257812 L 42.925781 36.488281 L 43.253906 36.171875 C 43.425781 36.011719 43.542969 35.777344 43.515625 35.675781 Z M 48.695312 36.097656 C 48.980469 35.980469 48.996094 35.515625 48.707031 35.398438 C 48.449219 35.296875 47.917969 35.589844 47.917969 35.835938 C 47.917969 36.171875 48.234375 36.273438 48.695312 36.097656 Z M 61.558594 33.394531 L 62.335938 33.207031 L 62.25 28.917969 L 62.175781 24.632812 L 61.816406 24.589844 C 61.628906 24.558594 61.183594 24.734375 60.78125 24.980469 L 60.089844 25.429688 L 60.523438 25.429688 C 61.214844 25.445312 61.441406 25.722656 61.441406 26.566406 C 61.441406 27.042969 61.355469 27.378906 61.214844 27.523438 C 60.925781 27.828125 60.019531 27.8125 59.6875 27.507812 C 59.34375 27.203125 59.328125 26.070312 59.671875 25.691406 C 59.902344 25.429688 59.757812 25.316406 59.5 25.5625 C 59.3125 25.734375 58.449219 25.851562 56.40625 25.996094 C 55.5 26.054688 54.566406 26.171875 54.347656 26.230469 L 53.945312 26.347656 L 54.449219 26.769531 C 54.738281 27 55.070312 27.394531 55.183594 27.609375 C 55.472656 28.164062 55.457031 29.339844 55.167969 29.90625 L 54.953125 30.355469 L 55.285156 30.835938 C 56.148438 32.101562 56.851562 32.582031 58.765625 33.207031 C 59.960938 33.597656 60.507812 33.640625 61.558594 33.394531 Z M 53.15625 28.65625 C 53.070312 28.527344 52.839844 28.410156 52.652344 28.410156 C 52.160156 28.410156 52.074219 29.019531 52.550781 29.195312 C 52.996094 29.371094 53.386719 29.035156 53.15625 28.65625 Z M 50.234375 27.914062 C 50.292969 27.496094 50.421875 27.1875 50.621094 27.042969 L 51.253906 26.566406 L 51.585938 26.316406 L 50.117188 26.304688 L 48.652344 26.304688 L 48.40625 26.824219 L 48.160156 27.335938 L 48.363281 27.726562 C 48.738281 28.496094 48.9375 28.644531 49.558594 28.597656 L 50.148438 28.554688 Z M 36.046875 24.90625 C 35.425781 24.441406 34.679688 24.472656 34.679688 24.953125 L 34.679688 25.214844 L 35.5 25.15625 L 36.320312 25.113281 Z M 46.191406 23.65625 C 46.191406 22.886719 46.507812 22.523438 47.183594 22.523438 C 47.960938 22.539062 48.203125 22.800781 48.203125 23.601562 L 48.203125 24.269531 L 49.644531 24.269531 L 49.644531 23.644531 C 49.644531 22.773438 49.960938 22.496094 50.882812 22.554688 L 51.585938 22.597656 L 51.628906 23.367188 C 51.671875 24.007812 51.714844 24.125 51.960938 24.125 C 52.175781 24.125 52.234375 24.019531 52.234375 23.585938 C 52.234375 22.84375 52.566406 22.523438 53.355469 22.523438 C 54.164062 22.523438 54.535156 22.828125 54.535156 23.5 C 54.535156 23.789062 54.609375 23.976562 54.722656 23.976562 C 54.851562 23.976562 54.882812 23.804688 54.851562 23.410156 L 54.796875 22.859375 L 55.226562 22.539062 C 55.703125 22.203125 56.535156 22.132812 56.808594 22.410156 C 57.011719 22.613281 57.199219 22.480469 57.054688 22.234375 C 56.996094 22.148438 56.695312 21.898438 56.363281 21.695312 C 56.03125 21.492188 55.6875 21.203125 55.585938 21.070312 C 55.269531 20.621094 54.621094 20.460938 53.5 20.546875 C 52.925781 20.59375 51.714844 20.664062 50.824219 20.722656 L 49.210938 20.808594 L 49.054688 21.085938 C 48.953125 21.304688 48.75 21.363281 48.203125 21.363281 C 47.199219 21.363281 47.054688 21.160156 47.054688 19.707031 L 47.054688 18.5 L 45.296875 18.410156 C 44.320312 18.367188 43.414062 18.296875 43.285156 18.238281 L 43.023438 18.136719 L 43.023438 18.761719 C 43.023438 19.152344 42.910156 19.574219 42.738281 19.835938 C 42.476562 20.242188 42.21875 20.460938 40.550781 21.738281 L 39.859375 22.261719 L 39.859375 22.773438 C 39.859375 23.089844 39.757812 23.367188 39.613281 23.484375 L 39.355469 23.671875 L 39.757812 23.6875 L 40.148438 23.6875 L 40.148438 23.222656 C 40.148438 22.566406 40.507812 22.234375 41.226562 22.234375 C 41.988281 22.234375 42.160156 22.421875 42.160156 23.28125 L 42.160156 23.976562 L 42.449219 23.976562 C 42.679688 23.976562 42.738281 23.875 42.738281 23.511719 C 42.738281 22.816406 43.082031 22.523438 43.960938 22.523438 C 44.851562 22.523438 45.039062 22.683594 45.039062 23.484375 C 45.039062 24.007812 45.082031 24.109375 45.371094 24.167969 C 46.160156 24.328125 46.191406 24.296875 46.191406 23.65625 Z M 42.953125 15.984375 C 42.792969 15.914062 42.5625 15.855469 42.449219 15.855469 L 42.234375 15.839844 L 42.449219 15.984375 C 42.5625 16.058594 42.792969 16.117188 42.953125 16.117188 L 43.242188 16.117188 Z M 54.535156 15.984375 L 54.753906 15.839844 L 54.535156 15.839844 C 54.421875 15.839844 54.21875 15.914062 54.105469 15.984375 L 53.890625 16.128906 L 54.105469 16.128906 C 54.21875 16.128906 54.421875 16.058594 54.535156 15.984375 Z M 47.199219 13.878906 C 47.296875 13.761719 47.339844 13.558594 47.285156 13.441406 L 47.199219 13.210938 L 45.65625 13.28125 C 44.792969 13.3125 43.832031 13.382812 43.484375 13.441406 C 42.363281 13.632812 42.695312 13.804688 44.203125 13.820312 C 45.023438 13.835938 45.886719 13.894531 46.117188 13.949219 C 46.792969 14.125 47.011719 14.109375 47.199219 13.878906 Z M 52.738281 13.820312 C 54.9375 13.6875 53.816406 13.382812 50.679688 13.269531 L 48.925781 13.210938 L 48.839844 13.441406 C 48.78125 13.558594 48.839844 13.777344 48.9375 13.894531 C 49.097656 14.097656 49.296875 14.109375 50.148438 14.023438 C 50.695312 13.964844 51.875 13.878906 52.738281 13.820312 Z M 52.738281 13.820312 "
    />
    <path
      style="stroke: none; fill-rule: nonzero; fill: rgb(81.176471%, 80.784314%, 63.921569%); fill-opacity: 1"
      d="M 43.703125 27.742188 C 43.703125 28.375 43.195312 28.886719 42.570312 28.886719 C 41.945312 28.886719 41.4375 28.375 41.4375 27.742188 C 41.4375 27.113281 41.945312 26.601562 42.570312 26.601562 C 43.195312 26.601562 43.703125 27.113281 43.703125 27.742188 Z M 39.554688 27.050781 C 39.554688 27.6875 39.042969 28.203125 38.414062 28.203125 C 37.785156 28.203125 37.273438 27.6875 37.273438 27.050781 C 37.273438 26.414062 37.785156 25.898438 38.414062 25.898438 C 39.042969 25.898438 39.554688 26.414062 39.554688 27.050781 Z M 58.035156 27.398438 C 58.035156 28.003906 57.546875 28.496094 56.945312 28.496094 C 56.34375 28.496094 55.855469 28.003906 55.855469 27.398438 C 55.855469 26.789062 56.34375 26.296875 56.945312 26.296875 C 57.546875 26.296875 58.035156 26.789062 58.035156 27.398438 Z M 56.074219 28.234375 "
    />
    <path
      d="M 20.289062 58.722656 C 20.433594 58.433594 20.9375 58.039062 21.597656 57.707031 C 21.800781 57.605469 22.289062 57.269531 22.679688 56.949219 C 23.066406 56.644531 23.773438 56.121094 24.246094 55.789062 C 24.722656 55.453125 25.367188 54.929688 25.683594 54.640625 C 26 54.351562 26.535156 53.957031 26.878906 53.769531 C 27.210938 53.578125 27.484375 53.375 27.484375 53.316406 C 27.484375 53.070312 27.050781 52.925781 26.117188 52.839844 C 25.570312 52.792969 24.664062 52.691406 24.101562 52.605469 C 21.253906 52.214844 20.503906 52.066406 19.355469 51.734375 C 18.5625 51.5 17.125 51.3125 16.851562 51.398438 C 16.304688 51.574219 15.410156 52.023438 15.324219 52.171875 C 15.28125 52.242188 15.09375 52.316406 14.90625 52.316406 C 14.546875 52.316406 13.8125 52.621094 13.8125 52.792969 C 13.8125 52.851562 13.683594 52.898438 13.527344 52.898438 C 13.367188 52.898438 13.238281 52.96875 13.238281 53.042969 C 13.238281 53.128906 13.136719 53.1875 13.023438 53.1875 C 12.90625 53.1875 12.589844 53.316406 12.304688 53.476562 C 12.015625 53.636719 11.714844 53.769531 11.625 53.769531 C 11.539062 53.769531 11.339844 53.871094 11.195312 54.015625 C 11.050781 54.144531 10.792969 54.320312 10.605469 54.421875 C 10.347656 54.554688 10.304688 54.683594 10.332031 55.148438 C 10.359375 55.46875 10.445312 55.789062 10.519531 55.875 C 10.589844 55.949219 10.648438 56.136719 10.648438 56.3125 C 10.648438 56.484375 10.707031 56.675781 10.777344 56.746094 C 10.851562 56.835938 10.9375 57.167969 10.992188 57.519531 L 11.078125 58.144531 L 10.621094 58.097656 L 10.160156 58.054688 L 9.929688 57.402344 C 9.597656 56.457031 9.222656 55.714844 8.949219 55.46875 C 8.761719 55.292969 8.246094 55.222656 6.90625 55.164062 C 5.179688 55.105469 3.136719 54.902344 2.230469 54.714844 C 2 54.667969 1.65625 54.597656 1.46875 54.554688 C 1.222656 54.507812 1.152344 54.40625 1.179688 54.160156 L 1.222656 53.839844 L 5.46875 53.769531 L 9.714844 53.695312 L 10.792969 53.15625 C 11.382812 52.851562 11.972656 52.605469 12.101562 52.605469 C 12.214844 52.605469 12.375 52.546875 12.460938 52.488281 C 12.535156 52.429688 12.851562 52.285156 13.152344 52.183594 C 13.828125 51.953125 14.992188 51.269531 15.066406 51.066406 C 15.09375 50.992188 14.808594 50.847656 14.433594 50.730469 C 14.042969 50.628906 13.597656 50.484375 13.410156 50.410156 C 13.222656 50.339844 12.9375 50.28125 12.777344 50.28125 C 12.359375 50.28125 11.582031 50.035156 8.777344 49.03125 C 8.03125 48.753906 7.28125 48.535156 7.109375 48.535156 C 6.949219 48.535156 6.761719 48.492188 6.707031 48.433594 C 6.574219 48.289062 5.582031 47.957031 5.296875 47.957031 C 4.90625 47.957031 3.308594 47.199219 3.308594 47.027344 C 3.308594 46.9375 3.785156 46.632812 4.359375 46.355469 C 5.480469 45.820312 6.1875 45.382812 6.1875 45.222656 C 6.1875 45.09375 5.539062 44.816406 4.964844 44.699219 C 4.402344 44.570312 3.65625 44.378906 3.023438 44.191406 C 2.75 44.121094 2.273438 43.988281 1.957031 43.902344 C 1.65625 43.828125 1.339844 43.699219 1.25 43.609375 C 1.050781 43.40625 1.238281 43.015625 1.570312 43.015625 C 1.726562 43.015625 1.898438 42.957031 1.941406 42.871094 C 1.984375 42.796875 2.160156 42.722656 2.300781 42.722656 C 2.460938 42.722656 3.007812 42.535156 3.527344 42.289062 C 4.042969 42.054688 4.5625 41.851562 4.675781 41.851562 C 4.777344 41.851562 4.921875 41.792969 4.964844 41.707031 C 5.007812 41.632812 5.210938 41.5625 5.394531 41.5625 C 5.582031 41.5625 5.785156 41.503906 5.828125 41.417969 C 5.871094 41.34375 6.074219 41.269531 6.273438 41.269531 C 6.460938 41.269531 6.621094 41.226562 6.621094 41.15625 C 6.621094 41.097656 6.761719 40.980469 6.9375 40.90625 C 7.351562 40.703125 7.4375 40.398438 7.066406 40.398438 C 6.894531 40.398438 6.648438 40.339844 6.503906 40.269531 C 5.929688 39.976562 5.050781 39.628906 4.300781 39.382812 C 3.855469 39.238281 3.109375 38.929688 2.648438 38.683594 L 1.796875 38.261719 L 0.90625 38.335938 L 0 38.394531 L 0 37.785156 L 16.5625 37.785156 C 27.554688 37.785156 33.082031 37.828125 33.023438 37.929688 C 32.964844 38.015625 29.816406 38.074219 24.015625 38.074219 C 19.125 38.074219 14.992188 38.132812 14.851562 38.203125 C 14.71875 38.277344 14.347656 38.40625 14.03125 38.496094 C 13.714844 38.597656 13.296875 38.742188 13.09375 38.828125 C 12.894531 38.917969 12.605469 39.03125 12.445312 39.089844 C 12.289062 39.148438 11.625 39.46875 10.964844 39.789062 C 10.316406 40.121094 9.65625 40.398438 9.527344 40.398438 C 9.382812 40.398438 9.050781 40.589844 8.777344 40.835938 C 8.503906 41.066406 8.160156 41.257812 8.03125 41.269531 C 7.898438 41.269531 7.742188 41.34375 7.699219 41.417969 C 7.65625 41.503906 7.425781 41.5625 7.195312 41.5625 C 6.964844 41.5625 6.734375 41.632812 6.691406 41.707031 C 6.648438 41.792969 6.445312 41.851562 6.257812 41.851562 C 6.074219 41.851562 5.871094 41.925781 5.828125 41.996094 C 5.785156 42.085938 5.640625 42.144531 5.527344 42.144531 C 5.410156 42.144531 5.035156 42.273438 4.71875 42.433594 C 4.390625 42.59375 4.015625 42.722656 3.886719 42.722656 C 3.570312 42.722656 3.109375 43.234375 3.238281 43.4375 C 3.28125 43.523438 3.425781 43.597656 3.554688 43.597656 C 3.800781 43.597656 3.898438 43.625 5.984375 44.324219 C 6.707031 44.554688 7.527344 44.757812 7.785156 44.757812 C 8.058594 44.773438 8.433594 44.859375 8.621094 44.960938 L 8.964844 45.152344 L 8.621094 45.398438 C 8.433594 45.527344 8.214844 45.628906 8.128906 45.628906 C 7.726562 45.628906 5.898438 46.691406 5.898438 46.910156 C 5.898438 47.039062 6.460938 47.273438 7.625 47.652344 C 9.511719 48.230469 9.757812 48.273438 10.304688 48.1875 C 10.621094 48.128906 11.769531 48.015625 12.878906 47.941406 C 15.082031 47.796875 17.484375 47.605469 19.929688 47.375 C 21.628906 47.214844 23.742188 47.039062 26.21875 46.835938 C 27.183594 46.75 27.84375 46.632812 27.945312 46.515625 C 28.058594 46.402344 28.074219 46.300781 27.988281 46.253906 C 27.914062 46.226562 27.457031 45.980469 26.980469 45.703125 C 25.457031 44.832031 21.210938 42.492188 20.316406 42.042969 C 19.28125 41.503906 20.304688 40.980469 22.417969 40.980469 C 23.152344 40.980469 23.871094 40.921875 24.015625 40.847656 C 24.144531 40.777344 26.101562 40.691406 28.347656 40.675781 L 32.449219 40.644531 L 32.492188 40.863281 C 32.59375 41.417969 32.175781 41.488281 28.289062 41.589844 C 24.144531 41.707031 22.304688 41.824219 22.304688 41.96875 C 22.316406 42.230469 22.589844 42.449219 23.382812 42.8125 C 23.859375 43.03125 24.332031 43.304688 24.433594 43.40625 C 24.535156 43.507812 24.734375 43.597656 24.851562 43.597656 C 24.980469 43.597656 25.542969 43.8125 26.101562 44.089844 C 26.664062 44.351562 27.828125 44.917969 28.707031 45.324219 C 30.160156 46.023438 30.492188 46.253906 30.503906 46.53125 C 30.503906 46.707031 29.597656 47.054688 28.921875 47.15625 C 28.230469 47.242188 27.023438 47.417969 25.296875 47.679688 C 24.722656 47.753906 23.109375 47.882812 21.726562 47.957031 C 19.484375 48.070312 17.355469 48.21875 13.527344 48.480469 C 12.851562 48.523438 12.246094 48.625 12.171875 48.695312 C 12.085938 48.769531 11.785156 48.828125 11.484375 48.828125 C 10.402344 48.828125 10.964844 49.148438 12.589844 49.480469 C 12.835938 49.523438 13.265625 49.625 13.570312 49.699219 C 15.050781 50.09375 15.382812 50.164062 16.042969 50.28125 C 16.851562 50.425781 17.742188 50.613281 18.707031 50.863281 C 19.066406 50.949219 19.699219 51.09375 20.117188 51.167969 C 21.324219 51.386719 22.316406 51.558594 23.167969 51.734375 C 23.597656 51.820312 24.316406 51.953125 24.75 52.039062 C 25.183594 52.125 26.363281 52.226562 27.367188 52.273438 L 29.195312 52.34375 L 29.84375 51.894531 C 30.1875 51.648438 30.519531 51.441406 30.578125 51.441406 C 30.621094 51.441406 31.039062 51.183594 31.484375 50.863281 L 32.304688 50.28125 L 34.894531 50.308594 L 37.484375 50.351562 L 37.527344 50.601562 C 37.585938 50.875 36.9375 50.976562 34.101562 51.09375 L 32.304688 51.167969 L 31.773438 51.601562 C 31.484375 51.835938 31.183594 52.023438 31.109375 52.023438 C 31.039062 52.023438 30.867188 52.15625 30.722656 52.316406 C 30.578125 52.476562 30.390625 52.605469 30.289062 52.605469 C 30.203125 52.605469 29.945312 52.808594 29.714844 53.042969 C 29.484375 53.289062 29.195312 53.476562 29.066406 53.476562 C 28.792969 53.476562 27.484375 54.582031 27.484375 54.816406 C 27.484375 54.902344 28.433594 54.929688 30.117188 54.902344 L 32.734375 54.859375 L 33.671875 55.46875 C 34.191406 55.804688 34.765625 56.210938 34.964844 56.355469 C 35.167969 56.515625 35.554688 56.746094 35.828125 56.894531 C 36.40625 57.199219 37.066406 57.691406 37.816406 58.417969 L 38.347656 58.925781 L 37.5 58.972656 L 36.664062 59.015625 L 35.875 58.199219 C 35.371094 57.675781 34.679688 57.183594 33.917969 56.777344 C 32.089844 55.832031 32.332031 55.859375 27.773438 56.035156 L 25.109375 56.121094 L 24.589844 56.542969 C 24.304688 56.777344 24 56.964844 23.929688 56.964844 C 23.859375 56.964844 23.613281 57.167969 23.382812 57.402344 C 23.152344 57.648438 22.894531 57.835938 22.808594 57.835938 C 22.707031 57.835938 22.519531 57.96875 22.375 58.128906 C 22.230469 58.289062 22.015625 58.417969 21.886719 58.417969 C 21.757812 58.417969 21.496094 58.550781 21.296875 58.710938 C 21.09375 58.871094 20.75 59 20.535156 59 L 20.132812 59 Z M 9.527344 39.527344 C 9.855469 39.367188 10.1875 39.238281 10.273438 39.238281 C 10.503906 39.238281 12.230469 38.304688 12.230469 38.191406 C 12.230469 38.117188 10.417969 38.074219 8.203125 38.074219 C 5.984375 38.074219 4.171875 38.132812 4.171875 38.191406 C 4.171875 38.351562 4.820312 38.65625 5.152344 38.65625 C 5.296875 38.65625 5.46875 38.714844 5.539062 38.769531 C 5.683594 38.886719 6.101562 39.019531 7.484375 39.382812 C 8 39.511719 8.53125 39.671875 8.894531 39.804688 C 8.921875 39.816406 9.210938 39.6875 9.527344 39.527344 Z M 65.542969 58.710938 C 65.6875 58.550781 65.917969 58.417969 66.0625 58.417969 C 66.207031 58.417969 66.609375 58.230469 66.953125 57.984375 C 67.3125 57.75 67.660156 57.546875 67.746094 57.546875 C 67.890625 57.546875 69.285156 57.023438 69.675781 56.804688 C 69.816406 56.734375 70.003906 56.675781 70.089844 56.675781 C 70.378906 56.675781 73.183594 55.25 73.386719 55.003906 C 73.601562 54.742188 73.632812 54.769531 72.8125 54.378906 C 72.207031 54.089844 71.085938 53.738281 69.933594 53.476562 C 69.660156 53.417969 68.8125 53.15625 68.0625 52.898438 C 65.917969 52.15625 63.761719 51.808594 63.414062 52.15625 C 63.328125 52.242188 62.953125 52.316406 62.582031 52.316406 C 62.207031 52.316406 61.847656 52.386719 61.804688 52.460938 C 61.761719 52.546875 61.429688 52.605469 61.082031 52.605469 C 60.738281 52.605469 60.40625 52.679688 60.363281 52.75 C 60.320312 52.839844 60.089844 52.898438 59.859375 52.898438 C 59.628906 52.898438 59.398438 52.96875 59.355469 53.042969 C 59.257812 53.203125 58.523438 53.246094 58.394531 53.101562 C 58.21875 52.941406 58.464844 52.460938 58.765625 52.386719 C 58.925781 52.34375 59.328125 52.242188 59.644531 52.15625 C 59.960938 52.066406 60.335938 51.9375 60.464844 51.863281 C 60.609375 51.792969 60.898438 51.734375 61.125 51.734375 C 61.34375 51.734375 61.585938 51.675781 61.660156 51.601562 C 61.789062 51.488281 62.148438 51.414062 63.859375 51.210938 C 64.234375 51.167969 64.667969 51.078125 64.824219 51.007812 C 64.984375 50.933594 65.34375 50.847656 65.617188 50.804688 C 65.890625 50.773438 66.40625 50.660156 66.765625 50.570312 C 67.128906 50.484375 67.773438 50.351562 68.207031 50.28125 C 69.632812 50.046875 70.003906 49.976562 70.292969 49.84375 C 70.582031 49.730469 70.839844 49.65625 72.089844 49.410156 C 72.453125 49.335938 72.953125 49.234375 73.214844 49.175781 C 73.457031 49.132812 73.675781 49.046875 73.675781 48.988281 C 73.675781 48.945312 73.300781 48.742188 72.839844 48.550781 C 69.128906 47.027344 68.710938 46.691406 70.148438 46.457031 C 72.25 46.125 72.839844 46.039062 73.960938 45.921875 C 74.636719 45.847656 75.644531 45.71875 76.191406 45.628906 C 78.550781 45.265625 80.179688 45.078125 83.316406 44.773438 C 84.898438 44.613281 85.027344 44.570312 86.4375 43.625 C 87.574219 42.871094 87.90625 42.507812 87.675781 42.273438 C 87.617188 42.214844 86.882812 42.128906 86.050781 42.085938 C 83.847656 41.953125 81.445312 41.605469 81.042969 41.359375 C 80.753906 41.183594 81.054688 40.921875 82.09375 40.382812 C 82.597656 40.136719 83.054688 39.816406 83.097656 39.703125 C 83.15625 39.554688 82.941406 39.222656 82.496094 38.769531 L 81.820312 38.074219 L 73.070312 38.074219 C 67.402344 38.074219 64.308594 38.015625 64.25 37.929688 C 64.191406 37.828125 69.660156 37.785156 80.566406 37.785156 C 91.34375 37.785156 97 37.738281 97.058594 37.636719 C 97.101562 37.566406 97.5625 37.492188 98.078125 37.492188 L 99 37.492188 L 99 38.074219 L 94.769531 38.074219 C 92.09375 38.074219 90.496094 38.132812 90.4375 38.21875 C 90.394531 38.304688 90.136719 38.363281 89.863281 38.363281 C 89.589844 38.363281 89.332031 38.4375 89.285156 38.511719 C 89.242188 38.597656 89.042969 38.65625 88.855469 38.65625 C 88.667969 38.65625 88.46875 38.726562 88.421875 38.800781 C 88.378906 38.886719 88.121094 38.945312 87.847656 38.945312 C 87.574219 38.945312 87.316406 39.019531 87.273438 39.089844 C 87.230469 39.179688 86.871094 39.238281 86.480469 39.238281 C 86.09375 39.238281 85.734375 39.308594 85.691406 39.382812 C 85.648438 39.46875 85.417969 39.527344 85.1875 39.527344 C 84.957031 39.527344 84.582031 39.601562 84.367188 39.703125 C 83.949219 39.875 83.027344 40.675781 83.027344 40.847656 C 83.027344 40.90625 83.328125 40.996094 83.71875 41.039062 C 84.09375 41.097656 84.882812 41.199219 85.472656 41.269531 C 86.0625 41.359375 86.984375 41.460938 87.503906 41.53125 C 88.480469 41.632812 88.925781 41.867188 88.925781 42.257812 C 88.925781 42.507812 88.0625 43.335938 87.460938 43.667969 C 86.769531 44.046875 86.96875 44.222656 87.964844 44.105469 C 88.453125 44.0625 89.53125 43.960938 90.367188 43.886719 C 92.871094 43.667969 93.230469 43.597656 93.316406 43.289062 C 93.375 43.132812 93.632812 42.769531 93.90625 42.460938 C 94.179688 42.171875 94.394531 41.867188 94.394531 41.792969 C 94.394531 41.386719 94.957031 41.285156 96.957031 41.269531 L 99 41.269531 L 99 42.171875 L 98.035156 42.085938 C 97.488281 42.042969 96.667969 41.96875 96.179688 41.910156 L 95.300781 41.824219 L 94.839844 42.375 C 94.597656 42.679688 94.394531 43 94.394531 43.085938 C 94.394531 43.4375 93.445312 44.175781 93.015625 44.175781 C 92.785156 44.175781 92.523438 44.234375 92.4375 44.308594 C 92.367188 44.378906 91.789062 44.484375 91.15625 44.527344 C 90.523438 44.570312 89.257812 44.671875 88.351562 44.757812 C 86.839844 44.890625 86.0625 44.976562 83.558594 45.28125 C 83.113281 45.324219 82.695312 45.425781 82.652344 45.5 C 82.480469 45.804688 85.027344 48.609375 86.855469 50.105469 C 87.417969 50.570312 87.632812 50.601562 89.660156 50.511719 C 93.992188 50.308594 95.34375 50.28125 95.546875 50.410156 C 95.675781 50.5 95.792969 50.949219 95.863281 51.617188 C 95.921875 52.199219 96.019531 52.96875 96.078125 53.332031 L 96.195312 53.972656 L 96.699219 54.101562 C 96.972656 54.175781 97.605469 54.277344 98.109375 54.304688 L 99 54.378906 L 99 55.222656 L 98.007812 55.222656 C 96.941406 55.222656 95.777344 54.84375 95.445312 54.394531 C 95.332031 54.246094 95.257812 53.710938 95.257812 53.113281 C 95.257812 52.460938 95.171875 51.894531 95.027344 51.617188 L 94.8125 51.152344 L 92.839844 51.152344 C 91.777344 51.152344 90.324219 51.226562 89.632812 51.3125 C 88.582031 51.457031 88.238281 51.441406 87.472656 51.238281 L 86.554688 51.007812 L 84.179688 48.636719 C 81.488281 45.949219 80.984375 45.558594 80.539062 45.703125 C 80.367188 45.761719 79.574219 45.863281 78.78125 45.9375 C 76.480469 46.140625 75.917969 46.210938 75.617188 46.355469 C 75.328125 46.488281 74.539062 46.589844 72.550781 46.734375 C 71.875 46.792969 71.515625 46.878906 71.558594 46.980469 C 71.589844 47.070312 72.421875 47.5625 73.429688 48.070312 C 74.4375 48.582031 75.257812 49.089844 75.257812 49.191406 C 75.257812 49.277344 74.984375 49.453125 74.652344 49.554688 C 74.308594 49.671875 73.976562 49.800781 73.890625 49.84375 C 73.730469 49.960938 73.285156 50.078125 72.234375 50.28125 C 71.042969 50.511719 70.722656 50.585938 70.4375 50.714844 C 70.148438 50.847656 69.832031 50.90625 68.351562 51.152344 C 66.984375 51.371094 66.625 51.472656 66.625 51.601562 C 66.625 51.675781 66.710938 51.734375 66.824219 51.734375 C 66.925781 51.734375 67.328125 51.863281 67.71875 52.011719 C 68.105469 52.15625 68.710938 52.359375 69.070312 52.460938 C 70.121094 52.738281 70.679688 52.910156 71.445312 53.1875 C 71.847656 53.332031 72.636719 53.59375 73.214844 53.78125 C 74.191406 54.089844 74.824219 54.554688 74.824219 54.960938 C 74.824219 55.03125 74.625 55.28125 74.378906 55.496094 L 73.949219 55.90625 L 74.667969 56.296875 C 75.070312 56.5 75.472656 56.675781 75.558594 56.675781 C 75.644531 56.675781 76.121094 56.863281 76.609375 57.097656 C 77.085938 57.3125 77.777344 57.621094 78.136719 57.75 C 78.496094 57.894531 78.855469 58.070312 78.925781 58.128906 C 79.128906 58.300781 80.324219 58.710938 80.625 58.710938 C 80.753906 58.710938 80.871094 58.78125 80.871094 58.855469 C 80.871094 58.941406 80.394531 59 79.71875 59 C 79.085938 59 78.566406 58.941406 78.566406 58.882812 C 78.566406 58.8125 78.136719 58.609375 77.601562 58.433594 C 76.738281 58.144531 75.917969 57.792969 73.402344 56.660156 C 72.953125 56.457031 72.726562 56.414062 72.625 56.515625 C 72.539062 56.601562 72.320312 56.675781 72.132812 56.675781 C 71.949219 56.675781 71.6875 56.734375 71.542969 56.820312 C 71.414062 56.894531 70.855469 57.15625 70.292969 57.402344 C 69.746094 57.664062 69.171875 57.925781 69.039062 57.996094 C 68.898438 58.070312 68.695312 58.128906 68.566406 58.128906 C 68.351562 58.128906 67.386719 58.621094 67.140625 58.871094 C 67.054688 58.941406 66.609375 59 66.132812 59 L 65.285156 59 Z M 84.898438 38.988281 C 85.101562 38.960938 85.386719 38.875 85.546875 38.800781 C 85.90625 38.640625 86.566406 38.496094 87.113281 38.453125 C 87.359375 38.421875 87.574219 38.335938 87.601562 38.25 C 87.648438 38.117188 87.101562 38.074219 85.632812 38.074219 C 83.386719 38.074219 83.199219 38.160156 83.675781 38.886719 C 83.863281 39.179688 83.992188 39.238281 84.222656 39.164062 C 84.394531 39.105469 84.695312 39.03125 84.898438 38.988281 Z M 45.109375 53.332031 C 44.953125 53.261719 44.550781 53.203125 44.21875 53.203125 C 43.886719 53.1875 43.585938 53.128906 43.542969 53.054688 C 43.457031 52.925781 42.910156 52.824219 41.585938 52.664062 C 41.226562 52.621094 40.808594 52.535156 40.652344 52.460938 C 40.492188 52.386719 40.191406 52.300781 39.972656 52.257812 C 39.6875 52.183594 39.558594 52.054688 39.5 51.761719 C 39.441406 51.546875 39.339844 51.238281 39.253906 51.078125 C 39.167969 50.921875 38.96875 50.527344 38.808594 50.207031 C 38.648438 49.886719 38.476562 49.511719 38.40625 49.378906 C 38.332031 49.234375 38.277344 49.03125 38.277344 48.929688 C 38.277344 48.8125 38.117188 48.421875 37.917969 48.027344 C 37.730469 47.636719 37.613281 47.257812 37.65625 47.183594 C 37.699219 47.113281 37.929688 47.097656 38.191406 47.15625 C 38.433594 47.199219 38.996094 47.300781 39.425781 47.375 L 41.152344 47.664062 C 41.671875 47.753906 42.835938 47.867188 43.746094 47.925781 L 45.398438 48.027344 L 45.441406 48.683594 C 45.457031 49.046875 45.542969 49.46875 45.628906 49.625 C 45.816406 50.003906 45.746094 53.363281 45.542969 53.417969 C 45.472656 53.433594 45.269531 53.40625 45.109375 53.332031 Z M 44.980469 52.589844 C 45.328125 52.199219 45.097656 51.808594 44.519531 51.808594 C 44.191406 51.808594 44.089844 51.878906 44.0625 52.140625 C 43.945312 52.910156 44.464844 53.15625 44.980469 52.589844 Z M 44.824219 50.570312 C 44.824219 50.195312 44.75 50.046875 44.5625 50.019531 C 44.0625 49.917969 43.515625 50.730469 43.84375 51.066406 C 43.902344 51.125 44.148438 51.152344 44.390625 51.125 L 44.824219 51.078125 Z M 44.722656 49.378906 C 45.011719 49.089844 44.925781 48.59375 44.550781 48.421875 C 44.261719 48.289062 44.160156 48.320312 43.875 48.625 L 43.558594 48.972656 L 43.816406 49.261719 C 44.105469 49.597656 44.464844 49.640625 44.722656 49.378906 Z M 47.226562 50.90625 L 47.269531 48.320312 L 48.925781 48.21875 C 49.832031 48.160156 50.910156 48.085938 51.296875 48.070312 L 52.019531 48.027344 L 52.0625 48.625 C 52.105469 49.277344 52.480469 49.757812 52.839844 49.625 C 53.027344 49.554688 53.3125 48.988281 53.585938 48.203125 C 53.714844 47.796875 53.917969 48.042969 53.84375 48.535156 C 53.714844 49.453125 54.621094 49.773438 55.027344 48.945312 C 55.15625 48.695312 55.253906 48.332031 55.253906 48.144531 C 55.253906 47.765625 55.558594 47.578125 55.917969 47.722656 C 56.105469 47.796875 56.121094 47.855469 55.976562 48.015625 C 55.890625 48.128906 55.832031 48.480469 55.859375 48.785156 L 55.902344 49.335938 L 56.40625 49.335938 C 56.796875 49.335938 56.910156 49.277344 56.953125 49.046875 C 56.984375 48.886719 57.054688 48.625 57.125 48.464844 C 57.199219 48.304688 57.269531 48.015625 57.300781 47.808594 C 57.328125 47.546875 57.441406 47.433594 57.703125 47.402344 C 57.902344 47.375 58.191406 47.289062 58.363281 47.214844 C 58.535156 47.128906 58.824219 47.082031 59.011719 47.113281 C 59.457031 47.171875 59.414062 47.578125 58.851562 48.683594 C 58.621094 49.117188 58.363281 49.742188 58.277344 50.0625 C 58.175781 50.382812 58.03125 50.773438 57.945312 50.933594 C 57.859375 51.09375 57.703125 51.398438 57.601562 51.617188 C 57.484375 51.835938 57.3125 52.066406 57.226562 52.125 C 56.824219 52.386719 56.003906 52.605469 55.371094 52.605469 C 54.996094 52.605469 54.652344 52.679688 54.609375 52.75 C 54.566406 52.839844 54.304688 52.898438 54.046875 52.898438 C 53.800781 52.898438 53.527344 52.953125 53.441406 53.027344 C 53.242188 53.230469 52.0625 53.347656 49.527344 53.417969 L 47.199219 53.492188 Z M 48.492188 52.984375 C 48.578125 52.867188 48.636719 52.621094 48.609375 52.429688 C 48.578125 52.171875 48.464844 52.082031 48.105469 52.054688 C 47.542969 51.996094 47.3125 52.460938 47.714844 52.910156 C 48.003906 53.246094 48.25 53.261719 48.492188 52.984375 Z M 48.75 51.136719 L 48.9375 50.832031 L 48.695312 50.558594 C 48.347656 50.164062 47.929688 50.207031 47.773438 50.660156 C 47.5 51.371094 48.363281 51.777344 48.75 51.136719 Z M 48.894531 49.613281 C 49.3125 49.320312 49.296875 48.914062 48.867188 48.710938 C 48.578125 48.582031 48.476562 48.609375 48.292969 48.8125 C 48.019531 49.117188 47.988281 49.640625 48.25 49.742188 C 48.523438 49.859375 48.550781 49.859375 48.894531 49.613281 Z M 48.894531 49.613281 "
    />
    <path
      d="M 48.160156 46.980469 C 48.089844 46.925781 47.15625 46.835938 46.074219 46.792969 L 44.105469 46.71875 L 44.019531 45.703125 C 43.972656 45.152344 43.886719 44.570312 43.832031 44.4375 C 43.628906 43.988281 43.988281 43.597656 44.609375 43.597656 C 44.910156 43.597656 45.355469 43.523438 45.570312 43.4375 C 46.304688 43.132812 46.535156 43.042969 47.183594 42.855469 C 47.542969 42.753906 48.003906 42.507812 48.21875 42.332031 C 48.851562 41.78125 49.339844 40.382812 49.484375 38.65625 L 49.570312 37.566406 L 50.476562 37.523438 L 51.398438 37.476562 L 51.988281 38.117188 C 52.320312 38.464844 52.796875 39.03125 53.027344 39.382812 C 53.976562 40.734375 55.027344 41.734375 56.003906 42.214844 C 57.242188 42.824219 57.574219 42.882812 60.652344 43 L 63.242188 43.085938 L 63.285156 43.710938 C 63.34375 44.425781 63.140625 44.757812 62.652344 44.757812 C 62.480469 44.757812 62.277344 44.832031 62.234375 44.902344 C 62.191406 44.992188 61.933594 45.050781 61.660156 45.050781 C 61.386719 45.050781 61.125 45.121094 61.082031 45.195312 C 61.039062 45.28125 60.808594 45.339844 60.578125 45.339844 C 60.351562 45.339844 60.121094 45.414062 60.078125 45.484375 C 60.03125 45.574219 59.847656 45.628906 59.660156 45.628906 C 59.488281 45.628906 59.285156 45.6875 59.199219 45.761719 C 59.082031 45.878906 58.722656 45.949219 57.027344 46.152344 C 56.636719 46.199219 56.207031 46.285156 56.046875 46.355469 C 55.890625 46.429688 55.210938 46.53125 54.535156 46.5625 C 52.335938 46.691406 49.585938 46.910156 48.925781 47.011719 C 48.566406 47.070312 48.21875 47.054688 48.160156 46.980469 Z M 48.277344 45.339844 L 48.277344 44.832031 L 47.832031 44.789062 C 47.542969 44.757812 47.3125 44.847656 47.125 45.050781 L 46.867188 45.339844 L 47.125 45.628906 C 47.3125 45.835938 47.542969 45.921875 47.832031 45.890625 L 48.277344 45.847656 Z M 53.355469 45.324219 L 53.542969 45.019531 L 53.300781 44.742188 C 52.882812 44.265625 52.089844 44.46875 52.089844 45.050781 C 52.089844 45.644531 53.027344 45.863281 53.355469 45.324219 Z M 57.757812 45.050781 C 58.21875 44.875 58.261719 44.324219 57.832031 44.0625 C 57.542969 43.871094 56.984375 43.945312 56.984375 44.175781 C 56.984375 44.25 56.9375 44.394531 56.894531 44.511719 C 56.851562 44.628906 56.925781 44.832031 57.054688 44.960938 C 57.328125 45.238281 57.300781 45.238281 57.757812 45.050781 Z M 61.558594 44.335938 C 61.671875 43.609375 60.695312 43.277344 60.4375 43.960938 C 60.363281 44.164062 60.335938 44.410156 60.378906 44.527344 C 60.566406 45.003906 61.488281 44.859375 61.558594 44.335938 Z M 40.9375 46.371094 C 40.808594 46.253906 40.390625 46.183594 38.636719 45.980469 C 38.246094 45.9375 37.859375 45.835938 37.773438 45.761719 C 37.699219 45.6875 37.527344 45.628906 37.382812 45.628906 C 37.238281 45.628906 37.011719 45.574219 36.867188 45.5 C 36.738281 45.425781 36.363281 45.296875 36.046875 45.222656 C 33.800781 44.628906 33.917969 44.699219 33.742188 43.550781 C 33.613281 42.652344 33.816406 42.492188 35.097656 42.449219 C 36.261719 42.40625 37.328125 41.925781 38.058594 41.109375 L 38.5625 40.542969 L 38.5625 39.292969 C 38.5625 38 38.808594 37.203125 39.210938 37.203125 C 39.339844 37.203125 39.730469 37.058594 40.089844 36.898438 L 40.738281 36.578125 L 41.371094 37.214844 L 42.015625 37.855469 L 42.015625 38.539062 C 42.015625 38.917969 41.945312 39.265625 41.875 39.308594 C 41.773438 39.367188 41.730469 40.644531 41.730469 42.914062 L 41.757812 46.429688 L 41.414062 46.472656 C 41.226562 46.503906 41.011719 46.457031 40.9375 46.371094 Z M 38.707031 44.773438 C 38.9375 44.324219 38.878906 44.03125 38.519531 43.871094 C 38.03125 43.640625 37.414062 43.929688 37.414062 44.378906 C 37.414062 45.003906 38.421875 45.3125 38.707031 44.773438 Z M 35.46875 43.945312 C 35.601562 43.8125 35.6875 43.566406 35.65625 43.394531 C 35.628906 43.144531 35.511719 43.085938 35.109375 43.085938 C 34.519531 43.085938 34.363281 43.449219 34.765625 43.902344 C 35.066406 44.234375 35.167969 44.25 35.46875 43.945312 Z M 35.46875 43.945312 "
    />
    <path
      d="M 43.945312 42.5625 C 43.789062 42.300781 44.246094 41.984375 44.910156 41.894531 C 45.699219 41.808594 46.261719 41.5625 46.996094 40.980469 C 47.714844 40.382812 48.046875 39.757812 48.0625 38.945312 C 48.0625 38.320312 48.25 37.929688 48.523438 37.929688 C 48.695312 37.929688 48.664062 40.078125 48.492188 40.179688 C 48.421875 40.226562 48.347656 40.484375 48.347656 40.746094 C 48.347656 41.039062 48.234375 41.328125 48.0625 41.488281 C 47.558594 41.9375 46.433594 42.433594 45.886719 42.433594 C 45.585938 42.433594 45.296875 42.507812 45.253906 42.578125 C 45.140625 42.78125 44.074219 42.769531 43.945312 42.5625 Z M 58.421875 41.996094 C 58.304688 41.925781 57.960938 41.851562 57.671875 41.851562 C 57.386719 41.851562 57.097656 41.792969 57.054688 41.707031 C 57.011719 41.632812 56.839844 41.5625 56.664062 41.5625 C 56.164062 41.5625 55.039062 40.703125 54.449219 39.863281 C 54.148438 39.425781 53.671875 38.800781 53.429688 38.480469 C 53.167969 38.160156 52.953125 37.8125 52.953125 37.710938 C 52.953125 37.507812 51.386719 36.621094 51.039062 36.621094 C 50.738281 36.621094 50.578125 36.34375 50.765625 36.15625 C 50.851562 36.070312 51.183594 36.082031 51.746094 36.214844 C 52.449219 36.375 52.707031 36.519531 53.3125 37.128906 C 53.714844 37.535156 54.191406 38.117188 54.390625 38.421875 C 54.59375 38.726562 55.011719 39.308594 55.34375 39.714844 C 55.933594 40.484375 56.019531 40.53125 58.0625 41.125 C 58.578125 41.269531 60.089844 41.269531 62.59375 41.097656 L 63.242188 41.054688 L 63.285156 41.386719 C 63.386719 42.070312 63.15625 42.144531 60.808594 42.144531 C 59.617188 42.144531 58.535156 42.070312 58.421875 41.996094 Z M 34.75 41.5625 L 33.742188 41.488281 L 33.742188 41.125 C 33.742188 40.835938 33.800781 40.777344 34.03125 40.820312 C 34.191406 40.847656 34.679688 40.894531 35.125 40.9375 L 35.917969 41.007812 L 36.578125 40.589844 C 37.382812 40.09375 37.699219 39.410156 37.699219 38.175781 C 37.699219 37.304688 37.929688 36.765625 38.476562 36.300781 C 38.808594 36.023438 39.425781 35.953125 39.425781 36.183594 C 39.425781 36.273438 39.285156 36.386719 39.109375 36.460938 C 38.375 36.738281 38.246094 37.128906 38.046875 39.511719 C 37.972656 40.269531 37.886719 40.515625 37.570312 40.835938 C 36.867188 41.5625 36.363281 41.691406 34.75 41.5625 Z M 34.75 41.5625 "
    />
    <path
      d="M 44.132812 41.167969 C 44.074219 41.125 44.03125 40.296875 44.03125 39.351562 L 44.03125 37.636719 L 44.378906 37.476562 C 44.738281 37.304688 45.183594 36.375 45.183594 35.777344 C 45.183594 35.34375 43.945312 34.003906 43.542969 34.003906 C 43.382812 34.003906 43.152344 33.945312 43.039062 33.875 C 42.738281 33.683594 42.003906 33.976562 41.585938 34.441406 C 41.296875 34.761719 41.066406 34.863281 40.433594 34.921875 C 38.722656 35.09375 38.519531 35.167969 37.816406 35.863281 L 37.125 36.535156 L 37.125 39.191406 L 36.792969 39.496094 C 36.605469 39.671875 36.347656 39.816406 36.21875 39.816406 C 36.089844 39.816406 35.945312 39.890625 35.902344 39.964844 C 35.785156 40.152344 34.390625 40.152344 34.101562 39.964844 C 33.929688 39.863281 33.902344 39.292969 33.945312 36.519531 C 33.972656 34.601562 34.046875 33.132812 34.132812 33.03125 C 34.203125 32.929688 34.636719 32.84375 35.082031 32.8125 L 35.902344 32.769531 L 35.945312 32.390625 C 36.003906 31.898438 35.742188 31.707031 34.964844 31.652344 C 34.507812 31.621094 34.320312 31.550781 34.320312 31.390625 C 34.320312 31.230469 34.535156 31.15625 35.109375 31.097656 L 35.902344 31.027344 L 35.902344 30.007812 L 35.109375 29.9375 L 34.320312 29.863281 L 34.320312 29.136719 L 34.78125 29.164062 C 35.484375 29.222656 35.972656 28.992188 35.972656 28.585938 C 35.972656 28.121094 35.714844 27.902344 35.125 27.902344 C 34.261719 27.902344 34.234375 27.84375 34.277344 25.925781 L 34.320312 24.195312 L 35.082031 24.152344 C 35.714844 24.109375 35.972656 24.179688 36.605469 24.542969 C 37.023438 24.792969 37.5 24.996094 37.65625 24.996094 C 37.800781 24.996094 37.988281 25.054688 38.074219 25.125 C 38.289062 25.328125 38.851562 25.402344 43.746094 25.792969 L 44.96875 25.894531 L 44.980469 27.304688 C 44.996094 29.007812 45.109375 29.515625 45.628906 30.300781 C 46.40625 31.460938 46.9375 31.679688 49.082031 31.679688 C 50.609375 31.679688 51.199219 31.535156 51.816406 30.996094 C 52.191406 30.675781 52.492188 30.925781 52.753906 31.796875 C 52.894531 32.246094 53.183594 32.84375 53.414062 33.105469 C 53.628906 33.367188 53.816406 33.628906 53.816406 33.683594 C 53.816406 33.960938 56.207031 35.457031 56.621094 35.457031 C 56.722656 35.457031 56.96875 35.589844 57.167969 35.75 C 57.371094 35.910156 57.730469 36.039062 57.960938 36.039062 C 58.207031 36.039062 58.449219 36.113281 58.507812 36.199219 C 58.578125 36.316406 59.242188 36.34375 60.796875 36.300781 L 62.996094 36.226562 L 63.113281 36.96875 C 63.171875 37.375 63.226562 38.234375 63.226562 38.875 L 63.242188 40.035156 L 62.667969 40.152344 C 61.644531 40.382812 58.550781 40.441406 57.917969 40.253906 C 56.492188 39.816406 55.542969 39.148438 55.542969 38.582031 C 55.542969 38.480469 55.269531 38.074219 54.925781 37.695312 C 54.59375 37.304688 54.207031 36.824219 54.074219 36.621094 C 53.890625 36.316406 53.386719 36.011719 51.917969 35.285156 C 51.773438 35.226562 51.472656 35.167969 51.242188 35.167969 C 50.953125 35.167969 50.59375 34.980469 50.148438 34.585938 C 49.703125 34.195312 49.339844 34.003906 49.066406 34.003906 C 48.839844 34.003906 48.621094 33.945312 48.566406 33.859375 C 48.421875 33.640625 47.757812 34.003906 47.023438 34.71875 L 46.335938 35.371094 L 46.335938 36.664062 L 46.910156 37.289062 L 47.484375 37.929688 L 47.484375 39.46875 L 47.097656 39.847656 C 46.695312 40.210938 46.203125 40.5 45.398438 40.835938 C 45.167969 40.9375 44.851562 41.066406 44.722656 41.140625 C 44.421875 41.300781 44.261719 41.300781 44.132812 41.167969 Z M 42.996094 28.164062 C 43.269531 27.886719 43.199219 27.40625 42.867188 27.203125 L 42.5625 27.015625 L 42.289062 27.261719 C 41.988281 27.539062 41.929688 28.132812 42.203125 28.234375 C 42.519531 28.367188 42.824219 28.335938 42.996094 28.164062 Z M 38.96875 27.304688 L 39.152344 27 L 38.910156 26.722656 C 38.605469 26.390625 38.304688 26.375 37.960938 26.695312 C 37.644531 26.984375 37.644531 27.085938 37.929688 27.378906 C 38.246094 27.699219 38.75 27.667969 38.96875 27.304688 Z M 36.148438 26.375 C 36.347656 25.910156 36.074219 25.546875 35.554688 25.605469 C 35.167969 25.648438 34.996094 26.085938 35.167969 26.535156 C 35.296875 26.882812 35.960938 26.78125 36.148438 26.375 Z M 36.148438 26.375 "
    />
    <path
      d="M 42.59375 40.414062 C 42.59375 39.847656 42.722656 39.527344 42.96875 39.527344 C 43.210938 39.527344 43.242188 40.136719 43.023438 40.558594 C 42.792969 40.964844 42.59375 40.894531 42.59375 40.414062 Z M 44.019531 35.871094 C 44.019531 36.457031 43.550781 36.933594 42.96875 36.933594 C 42.390625 36.933594 41.921875 36.457031 41.921875 35.871094 C 41.921875 35.285156 42.390625 34.8125 42.96875 34.8125 C 43.550781 34.8125 44.019531 35.285156 44.019531 35.871094 Z M 49.480469 35.839844 C 49.480469 36.40625 49.027344 36.867188 48.464844 36.867188 C 47.902344 36.867188 47.445312 36.40625 47.445312 35.839844 C 47.445312 35.269531 47.902344 34.8125 48.464844 34.8125 C 49.027344 34.8125 49.480469 35.269531 49.480469 35.839844 Z M 39.714844 35.894531 C 39.714844 35.820312 39.972656 35.75 40.289062 35.75 C 40.605469 35.75 40.867188 35.820312 40.867188 35.894531 C 40.867188 35.980469 40.605469 36.039062 40.289062 36.039062 C 39.972656 36.039062 39.714844 35.980469 39.714844 35.894531 Z M 58.78125 35.285156 C 57.714844 35.023438 57.125 34.832031 57.125 34.730469 C 57.125 34.6875 57.199219 34.570312 57.285156 34.484375 C 57.386719 34.382812 57.644531 34.410156 58.164062 34.617188 C 58.78125 34.847656 59.167969 34.875 60.566406 34.832031 C 61.488281 34.789062 62.394531 34.746094 62.59375 34.71875 C 62.839844 34.671875 62.953125 34.730469 62.953125 34.875 C 62.953125 35.035156 62.652344 35.136719 61.730469 35.269531 C 60.292969 35.472656 59.558594 35.472656 58.78125 35.285156 Z M 55.472656 33.945312 C 54.78125 33.640625 54.363281 33.105469 53.660156 31.652344 C 53.484375 31.300781 53.5 30.765625 53.671875 30.878906 C 53.757812 30.925781 53.816406 31.085938 53.816406 31.214844 C 53.816406 31.476562 55.527344 33.335938 56.003906 33.582031 C 56.292969 33.742188 56.363281 34.148438 56.089844 34.148438 C 55.988281 34.136719 55.714844 34.046875 55.472656 33.945312 Z M 55.472656 33.945312 "
    />
    <path
      d="M 58.335938 33.640625 C 56.363281 32.988281 55.671875 32.507812 54.78125 31.15625 C 54.320312 30.460938 54.304688 30.386719 54.679688 29.617188 C 55.039062 28.859375 55.039062 28.527344 54.695312 27.960938 C 53.933594 26.695312 52.636719 26.375 51.472656 27.175781 C 50.78125 27.640625 50.652344 27.84375 50.652344 28.46875 C 50.652344 29.019531 50.191406 29.425781 49.800781 29.222656 C 49.644531 29.136719 49.296875 29.0625 49.023438 29.0625 C 48.019531 29.0625 47.414062 27.496094 47.988281 26.332031 L 48.21875 25.894531 L 51.34375 25.808594 C 55.601562 25.691406 58.753906 25.417969 59.070312 25.125 C 59.140625 25.054688 59.300781 24.996094 59.429688 24.996094 C 59.558594 24.996094 59.976562 24.792969 60.351562 24.558594 L 61.039062 24.109375 L 61.847656 24.152344 L 62.652344 24.195312 L 62.679688 26.957031 C 62.695312 28.484375 62.722656 30.589844 62.753906 31.664062 L 62.796875 33.613281 L 62.089844 33.800781 C 60.984375 34.09375 59.515625 34.035156 58.335938 33.640625 Z M 57.472656 27.582031 C 57.585938 27.378906 57.558594 27.261719 57.3125 27 L 56.996094 26.679688 L 56.695312 26.957031 C 56.40625 27.21875 56.320312 27.609375 56.507812 27.8125 C 56.679688 27.988281 57.3125 27.84375 57.472656 27.582031 Z M 60.78125 27.085938 C 61.097656 26.769531 61.070312 26.257812 60.710938 26.042969 L 60.40625 25.851562 L 60.132812 26.097656 C 59.804688 26.40625 59.789062 26.710938 60.105469 27.058594 C 60.394531 27.378906 60.492188 27.378906 60.78125 27.085938 Z M 60.78125 27.085938 "
    />
    <path
      d="M 48.0625 30.808594 C 47.285156 30.664062 46.679688 30.285156 46.347656 29.734375 L 46.03125 29.238281 L 46.074219 27.582031 L 46.117188 25.941406 L 46.839844 25.941406 L 46.882812 27.175781 C 46.894531 27.859375 46.96875 28.539062 47.039062 28.699219 C 47.113281 28.859375 47.226562 29.164062 47.3125 29.382812 C 47.558594 30.007812 48.21875 30.253906 49.339844 30.183594 C 49.859375 30.140625 50.464844 30.066406 50.695312 30.007812 C 51.15625 29.878906 51.242188 30.183594 50.839844 30.546875 C 50.550781 30.792969 48.882812 30.953125 48.0625 30.808594 Z M 52.207031 29.6875 L 51.800781 29.484375 L 51.800781 28.0625 L 52.234375 27.828125 L 52.664062 27.597656 L 53.097656 27.828125 C 53.875 28.234375 54.0625 29.078125 53.484375 29.617188 C 53.113281 29.980469 52.765625 29.992188 52.207031 29.6875 Z M 45.039062 24.617188 C 44.925781 24.589844 43.789062 24.488281 42.519531 24.414062 C 39.210938 24.226562 37.558594 23.90625 37.558594 23.441406 C 37.558594 23.25 37.671875 23.222656 38.175781 23.28125 C 38.636719 23.339844 38.878906 23.28125 39.125 23.089844 L 39.441406 22.828125 L 39.066406 22.21875 L 39.511719 21.828125 C 39.757812 21.609375 40.347656 21.144531 40.808594 20.78125 C 42.40625 19.53125 42.835938 18.878906 42.464844 18.265625 C 42.132812 17.742188 42.449219 17.65625 43.988281 17.84375 C 45.757812 18.0625 51.15625 18.078125 52.824219 17.859375 C 54.277344 17.671875 54.550781 17.730469 54.4375 18.164062 C 54.304688 18.671875 53.601562 18.832031 51.199219 18.933594 L 48.9375 19.035156 L 48.550781 18.6875 L 48.148438 18.339844 L 47.816406 18.558594 L 47.484375 18.773438 L 47.484375 19.617188 C 47.484375 20.199219 47.558594 20.546875 47.714844 20.695312 C 48.019531 21.011719 48.449219 20.984375 48.621094 20.648438 L 48.78125 20.375 L 50.390625 20.285156 C 53.054688 20.140625 53.875 20.054688 54.21875 19.878906 C 54.480469 19.734375 54.652344 19.777344 55.15625 20.054688 C 55.484375 20.242188 55.945312 20.578125 56.175781 20.808594 C 56.394531 21.027344 56.636719 21.214844 56.695312 21.214844 C 56.765625 21.214844 57.027344 21.390625 57.269531 21.59375 L 57.714844 21.988281 L 57.628906 22.539062 L 57.53125 23.105469 L 57.917969 23.25 C 58.175781 23.351562 58.394531 23.351562 58.578125 23.238281 C 58.925781 23.0625 59.429688 23.191406 59.429688 23.46875 C 59.429688 23.585938 59.257812 23.730469 59.039062 23.773438 C 58.808594 23.832031 58.578125 23.917969 58.492188 23.976562 C 58.121094 24.269531 54.378906 24.53125 49.285156 24.617188 C 47.066406 24.660156 45.15625 24.660156 45.039062 24.617188 Z M 41.699219 23.28125 C 41.628906 22.742188 41.242188 22.554688 40.878906 22.875 C 40.492188 23.238281 40.492188 23.613281 40.894531 23.890625 L 41.210938 24.125 L 41.46875 23.875 C 41.628906 23.730469 41.730469 23.484375 41.699219 23.28125 Z M 44.578125 23.714844 C 44.679688 23.003906 43.886719 22.699219 43.382812 23.25 L 43.125 23.542969 L 43.382812 23.832031 C 43.773438 24.253906 44.519531 24.179688 44.578125 23.714844 Z M 47.746094 23.6875 C 47.773438 23.441406 47.6875 23.265625 47.472656 23.136719 L 47.167969 22.945312 L 46.894531 23.191406 C 46.621094 23.441406 46.535156 23.847656 46.722656 24.035156 C 46.78125 24.09375 47.023438 24.125 47.269531 24.09375 C 47.613281 24.066406 47.714844 23.976562 47.746094 23.6875 Z M 51.15625 23.542969 C 51.15625 22.945312 50.796875 22.785156 50.347656 23.191406 C 49.816406 23.671875 50.046875 24.136719 50.796875 24.078125 L 51.15625 24.050781 Z M 53.890625 23.832031 L 54.148438 23.542969 L 53.890625 23.25 C 53.746094 23.089844 53.515625 22.960938 53.386719 22.960938 C 53.253906 22.960938 53.027344 23.089844 52.882812 23.25 L 52.621094 23.542969 L 52.882812 23.832031 C 53.027344 23.992188 53.253906 24.125 53.386719 24.125 C 53.515625 24.125 53.746094 23.992188 53.890625 23.832031 Z M 56.664062 23.382812 C 56.695312 23.148438 56.59375 22.960938 56.40625 22.84375 L 56.105469 22.65625 L 55.671875 22.976562 L 55.242188 23.28125 L 55.5 23.601562 C 55.644531 23.761719 55.816406 23.949219 55.902344 24.007812 C 56.132812 24.167969 56.621094 23.761719 56.664062 23.382812 Z M 42.015625 16.421875 C 41.902344 16.347656 41.644531 16.277344 41.441406 16.277344 C 41.226562 16.277344 41.011719 16.21875 40.9375 16.144531 C 40.851562 16.074219 40.550781 15.941406 40.246094 15.839844 C 39.242188 15.519531 39.699219 15.347656 41.441406 15.390625 C 42.347656 15.402344 43.152344 15.476562 43.242188 15.519531 C 43.3125 15.578125 44.289062 15.652344 45.398438 15.695312 L 47.414062 15.765625 L 47.457031 16.175781 L 47.5 16.566406 L 44.867188 16.566406 C 43.414062 16.566406 42.132812 16.492188 42.015625 16.421875 Z M 48.40625 16.347656 C 48.175781 15.765625 48.378906 15.710938 51.039062 15.636719 C 52.449219 15.59375 54.363281 15.519531 55.3125 15.476562 C 56.636719 15.402344 56.996094 15.433594 56.953125 15.5625 C 56.894531 15.753906 56.765625 15.824219 56.121094 16.101562 C 55.371094 16.421875 54.808594 16.480469 51.6875 16.523438 L 48.492188 16.582031 Z M 45.988281 14.429688 C 45.929688 14.371094 44.867188 14.269531 43.628906 14.226562 C 41.066406 14.097656 39.757812 13.921875 40.21875 13.746094 C 40.378906 13.6875 40.652344 13.574219 40.835938 13.5 C 41.023438 13.425781 41.414062 13.371094 41.730469 13.371094 C 42.03125 13.371094 42.320312 13.3125 42.363281 13.238281 C 42.507812 13.019531 43.585938 12.90625 45.6875 12.875 L 47.703125 12.859375 L 47.746094 13.484375 C 47.773438 13.835938 47.714844 14.210938 47.613281 14.328125 C 47.441406 14.546875 46.175781 14.621094 45.988281 14.429688 Z M 48.507812 14.34375 C 48.40625 14.210938 48.347656 13.847656 48.378906 13.484375 L 48.421875 12.859375 L 50.652344 12.875 C 51.875 12.890625 53.242188 12.960938 53.671875 13.050781 C 54.105469 13.136719 54.695312 13.253906 54.96875 13.296875 C 56.867188 13.601562 57.601562 13.949219 56.363281 13.949219 C 56.019531 13.949219 55.6875 14.007812 55.601562 14.082031 C 55.527344 14.152344 54.535156 14.257812 53.386719 14.300781 C 52.234375 14.34375 50.707031 14.429688 49.988281 14.472656 C 48.9375 14.546875 48.664062 14.515625 48.507812 14.34375 Z M 48.507812 14.34375 "
    />
    <path
      style="stroke: none; fill-rule: nonzero; fill: rgb(99.215686%, 99.215686%, 98.039216%); fill-opacity: 1"
      d="M 53.386719 11.769531 C 53.210938 11.667969 53.210938 11.597656 53.355469 11.453125 C 53.601562 11.203125 53.570312 10.304688 53.3125 9.941406 L 53.113281 9.632812 L 54.03125 8.71875 C 54.550781 8.226562 54.96875 7.761719 54.96875 7.6875 C 54.96875 7.484375 54.132812 6.785156 53.585938 6.539062 C 52.996094 6.261719 53.082031 6.101562 53.832031 6.101562 C 54.132812 6.101562 54.421875 6.046875 54.464844 5.957031 C 54.507812 5.886719 54.695312 5.8125 54.867188 5.796875 C 55.34375 5.785156 56.609375 5.042969 56.664062 4.738281 C 56.738281 4.386719 56.148438 3.777344 55.746094 3.777344 C 55.558594 3.777344 55.386719 3.71875 55.34375 3.648438 C 55.253906 3.515625 56.480469 2.617188 56.738281 2.617188 C 56.984375 2.617188 57.847656 1.6875 57.847656 1.425781 C 57.847656 1.265625 57.960938 1.164062 58.121094 1.164062 C 58.261719 1.164062 58.621094 0.902344 58.910156 0.582031 L 59.429688 0 L 60.507812 0 C 61.097656 0 61.585938 0.0585938 61.585938 0.117188 C 61.585938 0.40625 61.125 1.132812 60.652344 1.597656 C 60.378906 1.859375 60.148438 2.164062 60.148438 2.253906 C 60.148438 2.339844 59.960938 2.558594 59.714844 2.730469 C 59.488281 2.921875 59.285156 3.183594 59.285156 3.328125 C 59.285156 3.472656 59.53125 4.082031 59.847656 4.695312 C 60.25 5.480469 60.363281 5.828125 60.25 5.945312 C 60.148438 6.046875 59.457031 6.101562 58.550781 6.101562 C 57.671875 6.101562 56.953125 6.160156 56.910156 6.25 C 56.867188 6.335938 56.679688 6.394531 56.492188 6.394531 C 56.074219 6.394531 55.832031 6.65625 55.832031 7.121094 C 55.832031 7.644531 56.765625 8.429688 57.386719 8.429688 C 57.53125 8.429688 57.703125 8.488281 57.789062 8.558594 C 57.859375 8.632812 58.074219 8.71875 58.261719 8.75 C 58.464844 8.761719 58.636719 8.863281 58.667969 8.964844 C 58.722656 9.140625 57.945312 9.589844 57.542969 9.589844 C 57.398438 9.589844 57.242188 9.664062 57.199219 9.738281 C 57.15625 9.824219 56.894531 9.882812 56.621094 9.882812 C 56.347656 9.882812 56.089844 9.953125 56.046875 10.027344 C 56.003906 10.113281 55.816406 10.171875 55.628906 10.171875 C 55.167969 10.171875 54.96875 10.449219 54.96875 11.074219 L 54.96875 11.625 L 54.421875 11.625 C 54.117188 11.625 53.816406 11.683594 53.730469 11.769531 C 53.660156 11.84375 53.515625 11.859375 53.386719 11.769531 Z M 43.425781 11.320312 C 43.472656 11 43.398438 10.78125 43.152344 10.519531 C 42.835938 10.171875 42.203125 10.054688 41.945312 10.289062 C 41.859375 10.363281 41.515625 10.492188 41.152344 10.59375 C 40.792969 10.695312 40.390625 10.839844 40.261719 10.914062 C 39.886719 11.117188 39.945312 10.882812 40.433594 10.316406 C 40.953125 9.707031 40.96875 9.445312 40.535156 9.039062 L 40.203125 8.71875 L 38.9375 8.71875 C 38.148438 8.71875 37.714844 8.660156 37.773438 8.574219 C 37.816406 8.5 38.003906 8.429688 38.160156 8.429688 C 38.332031 8.429688 38.605469 8.296875 38.765625 8.152344 C 38.9375 8.007812 39.355469 7.773438 39.714844 7.660156 C 40.058594 7.542969 40.421875 7.351562 40.492188 7.222656 C 40.679688 6.933594 40.507812 6.554688 40.117188 6.410156 C 39.929688 6.335938 39.628906 6.101562 39.441406 5.898438 C 39.242188 5.695312 39.011719 5.523438 38.921875 5.523438 C 38.824219 5.523438 38.648438 5.40625 38.507812 5.261719 C 38.375 5.101562 38.003906 4.898438 37.65625 4.796875 C 37.328125 4.679688 36.78125 4.417969 36.449219 4.183594 C 36.117188 3.96875 35.742188 3.777344 35.628906 3.777344 C 35.5 3.777344 35.398438 3.71875 35.398438 3.632812 C 35.398438 3.429688 36.058594 3.445312 36.648438 3.660156 C 37.140625 3.835938 37.542969 3.734375 37.65625 3.386719 C 37.714844 3.210938 34.921875 0.421875 34.492188 0.21875 C 34.246094 0.101562 34.40625 0.0742188 35.269531 0.0273438 L 36.347656 -0.015625 L 37.859375 1.527344 C 38.707031 2.398438 39.601562 3.195312 39.929688 3.34375 C 40.246094 3.488281 41.023438 4.140625 41.65625 4.796875 C 42.289062 5.449219 42.953125 6.046875 43.140625 6.117188 L 43.472656 6.25 L 43.054688 6.613281 C 42.808594 6.816406 42.5625 6.976562 42.492188 6.976562 C 42.421875 6.976562 42.160156 7.191406 41.902344 7.453125 C 41.152344 8.238281 41.328125 9.011719 42.246094 9.011719 C 42.507812 9.011719 42.765625 9.082031 42.808594 9.15625 C 42.851562 9.242188 43.082031 9.300781 43.296875 9.300781 C 43.714844 9.300781 44.03125 9.738281 44.03125 10.316406 C 44.03125 10.464844 44.089844 10.621094 44.160156 10.667969 C 44.234375 10.710938 44.320312 10.984375 44.347656 11.261719 L 44.40625 11.769531 L 43.355469 11.769531 Z M 43.425781 11.320312 "
    />
    <path
      style="stroke: none; fill-rule: nonzero; fill: rgb(99.215686%, 99.215686%, 98.039216%); fill-opacity: 1"
      d="M 45.84375 11.539062 C 45.800781 11.40625 45.757812 11.117188 45.757812 10.898438 C 45.757812 10.667969 45.699219 10.433594 45.613281 10.390625 C 45.542969 10.347656 45.472656 10.113281 45.472656 9.882812 C 45.472656 8.878906 44.910156 8.136719 44.148438 8.136719 C 43.613281 8.136719 43.425781 7.964844 43.789062 7.789062 C 44.664062 7.367188 45.109375 6.988281 45.15625 6.613281 L 45.210938 6.207031 L 43.425781 4.402344 C 42.464844 3.429688 41.570312 2.617188 41.46875 2.617188 C 41.371094 2.617188 41.242188 2.46875 41.167969 2.28125 C 41.097656 2.105469 40.867188 1.800781 40.664062 1.613281 C 40.464844 1.410156 40.289062 1.175781 40.289062 1.089844 C 40.289062 0.988281 40.160156 0.800781 40.003906 0.652344 C 39.285156 0 39.210938 0 47.800781 0 L 55.890625 0 L 54.882812 1.046875 C 54.320312 1.628906 53.816406 2.222656 53.773438 2.367188 C 53.714844 2.5 53.601562 2.617188 53.484375 2.617188 C 53.183594 2.617188 52.636719 3.285156 52.695312 3.589844 C 52.722656 3.734375 53.011719 3.980469 53.34375 4.140625 C 54.074219 4.492188 54.117188 4.648438 53.484375 4.648438 C 53.183594 4.648438 52.894531 4.765625 52.738281 4.941406 C 52.59375 5.101562 52.335938 5.230469 52.175781 5.246094 C 51.628906 5.261719 51.011719 5.726562 50.96875 6.160156 C 50.910156 6.683594 51.210938 7.019531 52.191406 7.511719 L 52.96875 7.890625 L 52.105469 8.777344 C 51.617188 9.269531 51.226562 9.78125 51.226562 9.910156 C 51.226562 10.042969 51.429688 10.316406 51.660156 10.507812 C 51.902344 10.710938 52.03125 10.929688 51.945312 10.972656 C 51.875 11.015625 51.800781 11.21875 51.800781 11.421875 L 51.800781 11.769531 L 45.929688 11.769531 Z M 45.84375 11.539062 "
    />
  </g>
</svg>
