<svg xmlns="http://www.w3.org/2000/svg" id="root" viewBox="0 0 99 46">
  <g>
    <path
      d="M 35.996094 45.335938 C 35.183594 44.53125 34.585938 44.113281 33.457031 43.558594 C 32.324219 42.996094 32.183594 42.96875 30.738281 42.96875 C 29.695312 42.96875 28.605469 43 25.863281 43.105469 L 25.097656 43.132812 L 24.679688 43.464844 C 24.453125 43.648438 24.144531 43.855469 23.996094 43.933594 C 23.847656 44.007812 23.570312 44.222656 23.371094 44.40625 C 23.171875 44.59375 22.898438 44.792969 22.761719 44.855469 C 22.628906 44.917969 22.441406 45.042969 22.351562 45.140625 C 22.242188 45.253906 22.105469 45.339844 21.945312 45.386719 C 21.8125 45.425781 21.574219 45.535156 21.425781 45.628906 C 20.949219 45.917969 20.792969 45.976562 20.449219 45.976562 L 20.128906 45.976562 L 20.277344 45.738281 C 20.464844 45.433594 20.683594 45.253906 21.433594 44.796875 C 21.769531 44.59375 22.425781 44.140625 22.894531 43.785156 C 23.363281 43.433594 23.960938 42.988281 24.226562 42.800781 C 24.722656 42.445312 25.132812 42.121094 25.777344 41.574219 C 25.984375 41.398438 26.335938 41.136719 26.554688 40.996094 C 27.53125 40.367188 27.558594 40.335938 27.363281 40.160156 C 27.214844 40.019531 26.855469 39.941406 25.964844 39.84375 C 22.789062 39.496094 20.882812 39.179688 19.183594 38.707031 C 18.253906 38.453125 17.035156 38.347656 16.632812 38.488281 C 16.273438 38.617188 15.535156 39 15.375 39.140625 C 15.257812 39.246094 15.144531 39.292969 14.921875 39.320312 C 14.441406 39.394531 13.890625 39.621094 13.800781 39.792969 C 13.769531 39.847656 13.675781 39.890625 13.539062 39.910156 C 13.386719 39.933594 13.300781 39.976562 13.25 40.058594 C 13.207031 40.125 13.113281 40.183594 13.007812 40.203125 C 12.910156 40.21875 12.597656 40.347656 12.308594 40.488281 C 12.019531 40.625 11.722656 40.757812 11.648438 40.777344 C 11.488281 40.8125 11.386719 40.875 10.980469 41.175781 C 10.824219 41.292969 10.628906 41.425781 10.546875 41.46875 C 10.34375 41.578125 10.285156 41.816406 10.347656 42.273438 C 10.375 42.464844 10.449219 42.730469 10.507812 42.863281 C 10.570312 42.992188 10.632812 43.195312 10.644531 43.316406 C 10.660156 43.433594 10.726562 43.648438 10.792969 43.792969 C 10.910156 44.050781 11.105469 45.042969 11.046875 45.101562 C 11.027344 45.117188 10.824219 45.109375 10.59375 45.097656 L 10.167969 45.0625 L 9.921875 44.390625 C 9.46875 43.15625 9.109375 42.527344 8.796875 42.398438 C 8.535156 42.289062 8.019531 42.230469 6.898438 42.171875 C 4.46875 42.054688 3.050781 41.902344 1.71875 41.613281 C 1.214844 41.503906 1.167969 41.460938 1.191406 41.140625 C 1.203125 41.003906 1.222656 40.882812 1.234375 40.871094 C 1.242188 40.863281 3.15625 40.824219 5.484375 40.78125 L 9.714844 40.710938 L 10.566406 40.28125 C 11.382812 39.875 12.015625 39.605469 12.183594 39.605469 C 12.230469 39.605469 12.347656 39.558594 12.453125 39.507812 C 12.554688 39.449219 12.851562 39.316406 13.113281 39.21875 C 13.730469 38.96875 14.328125 38.65625 14.742188 38.367188 C 15.082031 38.125 15.117188 38.082031 15.015625 38.003906 C 14.828125 37.863281 13.199219 37.347656 12.78125 37.308594 C 12.308594 37.253906 11.523438 37.023438 9.867188 36.441406 C 7.890625 35.746094 7.460938 35.613281 7.136719 35.582031 C 6.980469 35.566406 6.78125 35.5 6.640625 35.425781 C 6.335938 35.253906 5.761719 35.058594 5.367188 34.996094 C 5.199219 34.96875 4.90625 34.890625 4.714844 34.824219 C 4.289062 34.671875 3.476562 34.253906 3.371094 34.125 C 3.289062 34.042969 3.289062 34.03125 3.425781 33.921875 C 3.507812 33.859375 4.035156 33.570312 4.601562 33.277344 C 5.570312 32.777344 6.191406 32.390625 6.191406 32.292969 C 6.191406 32.15625 5.675781 31.910156 5.101562 31.777344 C 4.039062 31.53125 1.800781 30.917969 1.460938 30.78125 C 1.257812 30.699219 1.179688 30.601562 1.179688 30.425781 C 1.1875 30.21875 1.390625 30.054688 1.640625 30.054688 C 1.710938 30.054688 1.867188 29.988281 1.980469 29.910156 C 2.09375 29.832031 2.230469 29.769531 2.285156 29.769531 C 2.410156 29.769531 2.863281 29.625 3.238281 29.46875 C 3.394531 29.402344 3.722656 29.265625 3.96875 29.160156 C 4.214844 29.054688 4.492188 28.957031 4.582031 28.9375 C 4.671875 28.917969 4.828125 28.851562 4.929688 28.78125 C 5.042969 28.703125 5.214844 28.640625 5.402344 28.617188 C 5.574219 28.59375 5.75 28.539062 5.835938 28.476562 C 5.921875 28.414062 6.085938 28.355469 6.246094 28.335938 C 6.46875 28.308594 6.539062 28.277344 6.679688 28.132812 C 6.777344 28.039062 6.886719 27.960938 6.921875 27.960938 C 7.039062 27.960938 7.277344 27.71875 7.277344 27.601562 C 7.277344 27.539062 7.261719 27.488281 7.242188 27.488281 C 7.027344 27.480469 6.550781 27.359375 6.332031 27.25 C 5.972656 27.070312 5.027344 26.6875 4.371094 26.464844 C 3.65625 26.222656 3.175781 26.019531 2.449219 25.652344 L 1.824219 25.339844 L 1.109375 25.390625 C 0.722656 25.417969 0.3125 25.441406 0.203125 25.441406 L 0 25.441406 L 0 24.824219 L 10.054688 24.824219 C 20.210938 24.828125 32.113281 24.902344 32.722656 24.964844 L 33.054688 24.996094 L 32.839844 25.023438 C 32.347656 25.101562 31.152344 25.113281 23.648438 25.164062 C 19.3125 25.1875 15.546875 25.230469 15.285156 25.25 C 14.902344 25.28125 14.671875 25.339844 14.058594 25.550781 C 12.875 25.957031 12.378906 26.164062 10.988281 26.84375 C 10.519531 27.074219 9.929688 27.328125 9.675781 27.414062 C 9.316406 27.539062 9.113281 27.644531 8.757812 27.90625 C 8.5 28.085938 8.199219 28.265625 8.082031 28.300781 C 7.960938 28.332031 7.792969 28.410156 7.699219 28.472656 C 7.585938 28.546875 7.414062 28.59375 7.171875 28.621094 C 6.933594 28.652344 6.769531 28.695312 6.679688 28.765625 C 6.601562 28.824219 6.4375 28.878906 6.289062 28.898438 C 6.144531 28.914062 5.972656 28.972656 5.867188 29.046875 C 5.773438 29.113281 5.605469 29.183594 5.492188 29.203125 C 5.378906 29.226562 5.039062 29.351562 4.734375 29.476562 C 4.433594 29.605469 4.097656 29.730469 3.992188 29.75 C 3.890625 29.761719 3.722656 29.820312 3.628906 29.867188 C 3.445312 29.964844 3.214844 30.253906 3.214844 30.394531 C 3.214844 30.511719 3.382812 30.609375 3.636719 30.648438 C 3.757812 30.667969 4.4375 30.871094 5.152344 31.105469 C 6.539062 31.554688 7.511719 31.8125 7.820312 31.8125 C 7.925781 31.8125 8.117188 31.839844 8.246094 31.878906 C 8.5 31.945312 8.929688 32.144531 8.929688 32.191406 C 8.929688 32.28125 8.375 32.597656 8.066406 32.675781 C 7.429688 32.847656 5.882812 33.757812 5.917969 33.941406 C 5.949219 34.113281 6.742188 34.429688 8.199219 34.859375 C 9.550781 35.253906 9.839844 35.296875 10.515625 35.1875 C 10.863281 35.132812 12.222656 35.015625 13.300781 34.949219 C 14.476562 34.878906 17.367188 34.644531 20.058594 34.402344 C 21.359375 34.285156 23.210938 34.125 24.171875 34.046875 C 26.890625 33.828125 27.558594 33.746094 27.855469 33.609375 C 27.996094 33.542969 28.054688 33.390625 27.96875 33.308594 C 27.914062 33.261719 26.320312 32.363281 24.667969 31.457031 C 22.628906 30.332031 21.5625 29.75 20.910156 29.40625 C 20.074219 28.964844 20.027344 28.9375 19.945312 28.785156 C 19.859375 28.621094 19.953125 28.496094 20.246094 28.363281 C 20.65625 28.171875 21.121094 28.105469 22.355469 28.058594 C 22.992188 28.027344 23.621094 27.984375 23.75 27.960938 C 24.472656 27.804688 26.609375 27.722656 30.058594 27.722656 L 32.453125 27.722656 L 32.480469 27.890625 C 32.523438 28.117188 32.480469 28.234375 32.332031 28.3125 C 31.953125 28.507812 31.429688 28.550781 27.597656 28.675781 C 23.917969 28.792969 22.453125 28.882812 22.335938 29.003906 C 22.273438 29.066406 22.417969 29.300781 22.585938 29.425781 C 22.667969 29.488281 23.03125 29.6875 23.390625 29.867188 C 23.75 30.046875 24.171875 30.285156 24.332031 30.390625 C 24.492188 30.5 24.742188 30.617188 24.882812 30.65625 C 25.1875 30.734375 25.84375 31.011719 26.746094 31.441406 C 27.09375 31.609375 27.585938 31.839844 27.832031 31.960938 C 29.402344 32.691406 30.335938 33.203125 30.429688 33.378906 C 30.539062 33.582031 30.488281 33.664062 30.183594 33.808594 C 29.675781 34.046875 29.09375 34.167969 27.265625 34.425781 C 24.527344 34.816406 24.277344 34.839844 21.121094 35.019531 C 19.964844 35.085938 18.703125 35.160156 18.3125 35.1875 C 17.921875 35.210938 17.089844 35.261719 16.46875 35.304688 C 13.101562 35.519531 12.433594 35.585938 12.125 35.742188 C 12.050781 35.78125 11.769531 35.828125 11.496094 35.847656 C 11.226562 35.867188 10.980469 35.910156 10.953125 35.9375 C 10.839844 36.050781 11.515625 36.273438 12.851562 36.566406 C 13.179688 36.636719 13.910156 36.8125 14.484375 36.960938 C 15.054688 37.101562 15.847656 37.277344 16.25 37.347656 C 16.953125 37.472656 17.636719 37.621094 19.042969 37.957031 C 19.421875 38.046875 20.050781 38.179688 20.4375 38.246094 C 21.589844 38.457031 23.65625 38.84375 24.289062 38.96875 C 25.109375 39.132812 26.007812 39.222656 27.714844 39.296875 L 29.179688 39.363281 L 29.722656 38.992188 C 30.019531 38.789062 30.394531 38.558594 30.550781 38.476562 C 30.703125 38.398438 31.164062 38.105469 31.566406 37.820312 L 32.296875 37.3125 L 34.867188 37.339844 C 36.863281 37.363281 37.449219 37.386719 37.480469 37.429688 C 37.546875 37.539062 37.523438 37.75 37.4375 37.796875 C 37.167969 37.933594 36.386719 38.011719 34.074219 38.113281 L 32.3125 38.191406 L 31.851562 38.550781 C 31.601562 38.746094 31.304688 38.953125 31.1875 39.003906 C 31.070312 39.054688 30.855469 39.207031 30.703125 39.347656 C 30.558594 39.484375 30.378906 39.605469 30.296875 39.621094 C 30.21875 39.636719 30.019531 39.777344 29.835938 39.949219 C 29.417969 40.335938 29.269531 40.4375 29.050781 40.5 C 28.761719 40.582031 28.058594 41.109375 27.679688 41.527344 C 27.476562 41.753906 27.464844 41.820312 27.609375 41.871094 C 27.667969 41.894531 28.851562 41.902344 30.246094 41.898438 L 32.78125 41.886719 L 33.648438 42.464844 C 34.125 42.78125 34.6875 43.164062 34.894531 43.316406 C 35.105469 43.464844 35.496094 43.714844 35.769531 43.867188 C 36.039062 44.019531 36.464844 44.292969 36.714844 44.484375 C 37.238281 44.878906 38.355469 45.894531 38.289062 45.914062 C 38.265625 45.925781 37.890625 45.949219 37.460938 45.964844 L 36.679688 46 Z M 9.492188 26.609375 C 9.800781 26.464844 10.136719 26.332031 10.234375 26.308594 C 10.554688 26.238281 11.46875 25.785156 12.054688 25.417969 L 12.261719 25.285156 L 12.121094 25.234375 C 11.945312 25.175781 4.71875 25.164062 4.375 25.21875 L 4.148438 25.261719 L 4.253906 25.371094 C 4.390625 25.519531 4.914062 25.726562 5.144531 25.726562 C 5.246094 25.726562 5.421875 25.78125 5.542969 25.847656 C 5.800781 25.984375 6.222656 26.113281 7.441406 26.4375 C 7.9375 26.570312 8.457031 26.71875 8.601562 26.769531 C 8.742188 26.820312 8.878906 26.863281 8.898438 26.863281 C 8.921875 26.867188 9.1875 26.75 9.492188 26.609375 Z M 65.550781 45.714844 C 65.738281 45.535156 65.875 45.449219 66 45.425781 C 66.246094 45.378906 66.527344 45.253906 66.847656 45.042969 C 67.410156 44.679688 67.570312 44.601562 68.269531 44.363281 C 68.664062 44.230469 69.175781 44.035156 69.394531 43.933594 C 69.621094 43.828125 69.914062 43.714844 70.046875 43.675781 C 70.417969 43.582031 70.960938 43.339844 71.910156 42.851562 C 72.859375 42.367188 73.398438 42.039062 73.472656 41.898438 C 73.535156 41.777344 73.464844 41.710938 73.03125 41.492188 C 72.457031 41.207031 71.511719 40.890625 70.382812 40.605469 C 69.789062 40.453125 68.808594 40.167969 68.21875 39.96875 C 66.417969 39.363281 65.082031 39.070312 64.144531 39.066406 C 63.640625 39.0625 63.554688 39.074219 63.386719 39.167969 C 63.230469 39.253906 63.0625 39.289062 62.605469 39.328125 C 62.167969 39.359375 61.972656 39.398438 61.832031 39.472656 C 61.6875 39.550781 61.507812 39.582031 61.132812 39.613281 C 60.757812 39.636719 60.570312 39.671875 60.421875 39.75 C 60.3125 39.800781 60.042969 39.878906 59.828125 39.917969 C 59.609375 39.953125 59.398438 40.015625 59.355469 40.054688 C 59.308594 40.097656 59.15625 40.148438 59.019531 40.175781 C 58.566406 40.261719 58.296875 40.140625 58.347656 39.863281 C 58.382812 39.671875 58.640625 39.429688 58.878906 39.375 C 59.535156 39.203125 60.027344 39.054688 60.332031 38.933594 C 60.539062 38.851562 60.832031 38.78125 61.066406 38.757812 C 61.292969 38.734375 61.53125 38.675781 61.640625 38.625 C 61.886719 38.496094 62.160156 38.441406 63.277344 38.300781 C 64.277344 38.175781 64.511719 38.132812 64.921875 37.992188 C 65.066406 37.945312 65.453125 37.859375 65.777344 37.800781 C 66.101562 37.75 66.519531 37.664062 66.699219 37.617188 C 67.128906 37.496094 67.898438 37.34375 68.492188 37.253906 C 69.339844 37.128906 69.976562 36.992188 70.363281 36.851562 C 70.574219 36.769531 71.332031 36.589844 72.050781 36.445312 C 73.324219 36.191406 73.597656 36.117188 73.644531 36.039062 C 73.683594 35.980469 73.289062 35.765625 72.730469 35.542969 C 71.085938 34.890625 69.839844 34.296875 69.527344 34.027344 C 69.164062 33.703125 69.386719 33.613281 71.164062 33.335938 C 72.398438 33.148438 72.792969 33.09375 74.421875 32.90625 C 74.878906 32.851562 75.601562 32.753906 76.03125 32.6875 C 78.496094 32.316406 79.6875 32.167969 82.859375 31.859375 C 84.941406 31.65625 84.980469 31.640625 86.410156 30.675781 C 86.875 30.363281 87.351562 30.007812 87.476562 29.878906 C 87.710938 29.628906 87.796875 29.4375 87.691406 29.355469 C 87.59375 29.273438 87.078125 29.203125 86.214844 29.152344 C 84.082031 29.015625 81.738281 28.699219 81.132812 28.457031 C 80.988281 28.394531 80.945312 28.351562 80.945312 28.265625 C 80.945312 28.117188 81.160156 27.960938 81.960938 27.523438 C 82.625 27.160156 83 26.90625 83.070312 26.777344 C 83.148438 26.625 82.929688 26.296875 82.367188 25.71875 L 81.828125 25.15625 L 76.082031 25.15625 C 70.058594 25.152344 64.683594 25.089844 64.40625 25.019531 C 64.316406 24.996094 64.25 24.972656 64.265625 24.972656 C 64.449219 24.914062 69.363281 24.871094 78.132812 24.847656 C 90.65625 24.820312 96.175781 24.789062 96.703125 24.730469 C 96.910156 24.710938 97.175781 24.667969 97.292969 24.636719 C 97.414062 24.605469 97.835938 24.578125 98.238281 24.574219 L 98.972656 24.5625 L 98.984375 24.863281 L 99 25.15625 L 95.605469 25.15625 C 91.839844 25.164062 90.566406 25.199219 90.386719 25.320312 C 90.320312 25.363281 90.089844 25.414062 89.867188 25.4375 C 89.59375 25.460938 89.402344 25.507812 89.300781 25.574219 C 89.214844 25.628906 89.011719 25.695312 88.851562 25.722656 C 88.6875 25.746094 88.496094 25.8125 88.421875 25.871094 C 88.320312 25.945312 88.179688 25.980469 87.875 26.007812 C 87.605469 26.03125 87.402344 26.085938 87.265625 26.15625 C 87.105469 26.242188 86.945312 26.269531 86.496094 26.296875 C 85.914062 26.335938 85.796875 26.359375 85.664062 26.472656 C 85.621094 26.507812 85.410156 26.558594 85.191406 26.582031 C 84.613281 26.65625 84.347656 26.746094 83.960938 27.007812 C 83.585938 27.261719 83.023438 27.792969 83.023438 27.894531 C 83.023438 27.929688 83.105469 27.980469 83.203125 28.003906 C 83.359375 28.046875 85.171875 28.292969 86.898438 28.511719 C 88.34375 28.699219 88.722656 28.8125 88.867188 29.125 C 88.945312 29.289062 88.945312 29.300781 88.859375 29.464844 C 88.722656 29.722656 88.085938 30.304688 87.550781 30.65625 C 87.285156 30.835938 87.058594 31.007812 87.050781 31.039062 C 87.011719 31.171875 87.25 31.203125 87.871094 31.152344 C 89.667969 31.003906 91.761719 30.804688 92.238281 30.742188 C 93.058594 30.628906 93.210938 30.566406 93.351562 30.265625 C 93.414062 30.132812 93.675781 29.792969 94.148438 29.226562 C 94.246094 29.109375 94.355469 28.925781 94.386719 28.832031 C 94.519531 28.417969 94.980469 28.347656 97.425781 28.34375 L 98.996094 28.34375 L 98.996094 29.199219 L 98.824219 29.199219 C 98.660156 29.199219 96.433594 29 95.710938 28.917969 L 95.332031 28.875 L 95.105469 29.117188 C 94.769531 29.472656 94.46875 29.921875 94.382812 30.167969 C 94.332031 30.320312 94.222656 30.460938 94.011719 30.660156 C 93.65625 31 93.273438 31.195312 92.875 31.242188 C 92.714844 31.261719 92.523438 31.308594 92.445312 31.351562 C 92.261719 31.445312 91.488281 31.558594 90.585938 31.621094 C 87.671875 31.820312 83.1875 32.3125 82.769531 32.472656 C 82.65625 32.519531 82.640625 32.542969 82.667969 32.652344 C 82.753906 32.996094 83.632812 34.042969 84.9375 35.351562 C 86.027344 36.457031 86.90625 37.226562 87.277344 37.410156 L 87.535156 37.539062 L 88.71875 37.539062 C 89.371094 37.539062 90.519531 37.507812 91.269531 37.46875 C 92.027344 37.429688 93.28125 37.402344 94.066406 37.398438 C 95.308594 37.398438 95.503906 37.40625 95.570312 37.472656 C 95.6875 37.59375 95.773438 37.988281 95.898438 39.042969 C 95.964844 39.574219 96.054688 40.21875 96.097656 40.480469 C 96.175781 40.929688 96.183594 40.953125 96.324219 41.015625 C 96.589844 41.125 97.46875 41.265625 98.234375 41.328125 L 98.996094 41.386719 L 98.996094 42.234375 L 98.089844 42.207031 C 97.316406 42.183594 97.105469 42.164062 96.730469 42.058594 C 96.226562 41.925781 95.757812 41.707031 95.554688 41.519531 C 95.355469 41.328125 95.308594 41.125 95.261719 40.183594 C 95.210938 39.222656 95.164062 38.941406 94.964844 38.503906 L 94.824219 38.179688 L 93.210938 38.179688 C 91.519531 38.179688 90.445312 38.230469 89.542969 38.347656 C 88.613281 38.472656 88.203125 38.449219 87.3125 38.222656 L 86.542969 38.035156 L 85.269531 36.761719 C 82.25 33.757812 81.5625 33.113281 81.078125 32.859375 C 80.855469 32.738281 80.753906 32.710938 80.617188 32.730469 C 80.523438 32.742188 80.234375 32.785156 79.976562 32.828125 C 79.714844 32.867188 79.046875 32.945312 78.488281 33 C 76.199219 33.21875 76.066406 33.238281 75.632812 33.386719 C 75.289062 33.503906 74.65625 33.59375 73.503906 33.691406 C 71.597656 33.847656 71.355469 33.910156 71.722656 34.152344 C 72.164062 34.445312 72.367188 34.558594 73.390625 35.089844 C 74.519531 35.679688 75.226562 36.113281 75.226562 36.214844 C 75.226562 36.324219 74.992188 36.460938 74.597656 36.59375 C 74.386719 36.664062 74.082031 36.785156 73.921875 36.855469 C 73.554688 37.03125 73.179688 37.125 71.894531 37.375 C 71.257812 37.492188 70.722656 37.625 70.511719 37.710938 C 70.136719 37.859375 69.699219 37.953125 68.304688 38.179688 C 67.253906 38.351562 66.8125 38.449219 66.699219 38.53125 C 66.578125 38.617188 66.640625 38.75 66.789062 38.75 C 66.855469 38.75 67.316406 38.890625 67.816406 39.0625 C 68.320312 39.230469 69.035156 39.460938 69.414062 39.5625 C 70.230469 39.792969 73.480469 40.875 73.875 41.050781 C 74.21875 41.203125 74.589844 41.484375 74.710938 41.679688 C 74.878906 41.949219 74.839844 42.035156 74.371094 42.496094 L 73.941406 42.921875 L 74.59375 43.257812 C 74.957031 43.4375 75.378906 43.625 75.535156 43.671875 C 75.691406 43.714844 76.242188 43.9375 76.761719 44.171875 C 77.28125 44.398438 77.929688 44.675781 78.207031 44.785156 C 78.484375 44.886719 78.800781 45.039062 78.917969 45.109375 C 79.195312 45.292969 79.792969 45.519531 80.234375 45.613281 C 80.738281 45.730469 80.816406 45.753906 80.835938 45.820312 C 80.878906 45.9375 80.46875 45.984375 79.554688 45.964844 C 78.671875 45.953125 78.648438 45.949219 78.488281 45.828125 C 78.292969 45.6875 78.167969 45.632812 77.234375 45.296875 C 76.523438 45.035156 75.605469 44.648438 74.015625 43.941406 C 72.902344 43.441406 72.820312 43.425781 72.558594 43.550781 C 72.445312 43.609375 72.226562 43.667969 72.074219 43.679688 C 71.894531 43.699219 71.660156 43.777344 71.375 43.910156 C 71.144531 44.019531 70.789062 44.179688 70.597656 44.265625 C 70.402344 44.351562 69.929688 44.566406 69.546875 44.746094 C 69.167969 44.925781 68.742188 45.097656 68.601562 45.121094 C 68.308594 45.175781 67.648438 45.488281 67.332031 45.714844 C 67.015625 45.941406 66.839844 45.976562 66.011719 45.976562 L 65.28125 45.972656 Z M 84.683594 26.109375 C 85.003906 26.03125 85.363281 25.9375 85.480469 25.894531 C 85.914062 25.734375 86.308594 25.632812 86.816406 25.5625 C 87.601562 25.441406 87.804688 25.296875 87.3125 25.199219 C 87.027344 25.144531 84.390625 25.148438 83.992188 25.207031 C 83.644531 25.257812 83.449219 25.351562 83.449219 25.472656 C 83.449219 25.683594 83.859375 26.25 84.015625 26.25 C 84.0625 26.25 84.359375 26.1875 84.683594 26.109375 Z M 47.210938 39.222656 C 47.214844 38.503906 47.230469 37.34375 47.25 36.636719 L 47.277344 35.351562 L 48.457031 35.277344 C 49.109375 35.234375 50.089844 35.175781 50.632812 35.144531 C 51.179688 35.117188 51.710938 35.078125 51.816406 35.0625 L 52.011719 35.039062 L 52.042969 35.449219 C 52.09375 36 52.1875 36.292969 52.386719 36.492188 C 52.605469 36.722656 52.824219 36.726562 52.984375 36.507812 C 53.140625 36.300781 53.359375 35.851562 53.492188 35.472656 C 53.550781 35.300781 53.628906 35.128906 53.660156 35.089844 C 53.773438 34.972656 53.84375 35.109375 53.835938 35.414062 C 53.820312 35.886719 53.863281 36.082031 54.019531 36.257812 C 54.148438 36.402344 54.191406 36.421875 54.394531 36.421875 C 54.578125 36.421875 54.652344 36.398438 54.78125 36.28125 C 54.984375 36.097656 55.171875 35.6875 55.238281 35.257812 C 55.265625 35.078125 55.324219 34.886719 55.367188 34.84375 C 55.480469 34.714844 55.738281 34.6875 55.933594 34.777344 L 56.09375 34.855469 L 55.996094 35.019531 C 55.871094 35.21875 55.824219 35.613281 55.875 36.0625 L 55.910156 36.375 L 56.25 36.375 C 56.746094 36.375 56.878906 36.316406 56.945312 36.074219 C 56.972656 35.964844 57.058594 35.691406 57.132812 35.46875 C 57.210938 35.238281 57.269531 35.023438 57.269531 34.992188 C 57.269531 34.953125 57.292969 34.84375 57.324219 34.75 C 57.375 34.550781 57.503906 34.460938 57.8125 34.402344 C 57.917969 34.386719 58.148438 34.316406 58.328125 34.253906 C 58.847656 34.074219 59.222656 34.117188 59.285156 34.359375 C 59.335938 34.574219 59.222656 34.921875 58.832031 35.753906 C 58.621094 36.191406 58.359375 36.828125 58.246094 37.164062 C 58.035156 37.769531 57.605469 38.660156 57.371094 38.980469 C 57.132812 39.296875 56.398438 39.539062 55.460938 39.605469 C 54.980469 39.644531 54.800781 39.671875 54.609375 39.769531 C 54.460938 39.835938 54.222656 39.898438 54.011719 39.917969 C 53.800781 39.933594 53.558594 39.996094 53.417969 40.058594 C 52.980469 40.269531 52.257812 40.339844 49.945312 40.414062 C 49.152344 40.4375 48.210938 40.472656 47.859375 40.492188 L 47.207031 40.519531 Z M 48.402344 40.078125 C 48.546875 39.964844 48.640625 39.660156 48.601562 39.4375 C 48.558594 39.199219 48.382812 39.085938 48.054688 39.085938 C 47.457031 39.085938 47.324219 39.535156 47.792969 40.007812 C 47.996094 40.207031 48.207031 40.234375 48.402344 40.078125 Z M 48.625 38.300781 C 48.695312 38.234375 48.792969 38.105469 48.835938 38.015625 C 48.921875 37.863281 48.921875 37.859375 48.816406 37.726562 C 48.445312 37.234375 47.976562 37.199219 47.792969 37.640625 C 47.671875 37.917969 47.707031 38.125 47.890625 38.308594 C 48.046875 38.464844 48.074219 38.476562 48.273438 38.453125 C 48.421875 38.4375 48.527344 38.390625 48.625 38.300781 Z M 48.769531 36.710938 C 49.292969 36.378906 49.332031 36 48.859375 35.757812 C 48.601562 35.625 48.492188 35.636719 48.3125 35.828125 C 48.015625 36.148438 47.992188 36.589844 48.257812 36.761719 C 48.457031 36.878906 48.519531 36.875 48.769531 36.710938 Z M 45.054688 40.335938 C 44.953125 40.296875 44.621094 40.25 44.320312 40.226562 C 43.746094 40.175781 43.636719 40.152344 43.519531 40.054688 C 43.402344 39.953125 42.945312 39.855469 41.976562 39.726562 C 41.347656 39.644531 40.90625 39.554688 40.558594 39.445312 C 40.277344 39.359375 39.980469 39.269531 39.902344 39.253906 C 39.6875 39.207031 39.578125 39.0625 39.460938 38.660156 C 39.40625 38.472656 39.125 37.847656 38.835938 37.28125 C 38.542969 36.6875 38.304688 36.148438 38.28125 36.015625 C 38.234375 35.761719 38.070312 35.320312 37.972656 35.164062 C 37.863281 34.992188 37.660156 34.4375 37.660156 34.3125 C 37.660156 34.226562 37.6875 34.183594 37.769531 34.164062 C 37.824219 34.152344 38.238281 34.203125 38.675781 34.277344 C 41.316406 34.75 42.179688 34.859375 43.96875 34.972656 C 44.59375 35.011719 45.167969 35.042969 45.25 35.042969 L 45.390625 35.042969 L 45.441406 35.675781 C 45.476562 36.0625 45.53125 36.410156 45.59375 36.570312 C 45.671875 36.773438 45.699219 37.011719 45.722656 37.59375 C 45.753906 38.386719 45.679688 39.929688 45.59375 40.238281 C 45.550781 40.394531 45.53125 40.414062 45.394531 40.410156 C 45.3125 40.40625 45.160156 40.371094 45.054688 40.335938 Z M 44.921875 39.640625 C 45.183594 39.359375 45.203125 39.15625 44.980469 38.96875 C 44.863281 38.867188 44.785156 38.847656 44.554688 38.847656 C 44.175781 38.847656 44.101562 38.894531 44.058594 39.15625 C 44.019531 39.4375 44.066406 39.683594 44.191406 39.808594 C 44.269531 39.886719 44.328125 39.898438 44.503906 39.878906 C 44.6875 39.859375 44.753906 39.816406 44.921875 39.640625 Z M 44.757812 38.082031 C 44.847656 38.035156 44.851562 38 44.824219 37.644531 C 44.785156 37.183594 44.710938 37.039062 44.507812 37.039062 C 44.035156 37.039062 43.546875 37.773438 43.832031 38.058594 C 43.921875 38.148438 44.601562 38.167969 44.757812 38.082031 Z M 44.691406 36.417969 C 45.054688 36.054688 44.863281 35.476562 44.351562 35.390625 C 44.199219 35.367188 44.164062 35.386719 43.875 35.664062 C 43.703125 35.828125 43.566406 35.976562 43.566406 35.996094 C 43.566406 36.046875 44.027344 36.488281 44.121094 36.523438 C 44.328125 36.609375 44.539062 36.570312 44.691406 36.417969 Z M 44.691406 36.417969 "
    />
    <path
      d="M 48.132812 34.023438 C 47.816406 33.933594 46.949219 33.867188 45.410156 33.804688 C 44.695312 33.78125 44.109375 33.75 44.105469 33.746094 C 44.101562 33.742188 44.074219 33.445312 44.042969 33.09375 C 44.015625 32.742188 43.960938 32.25 43.917969 32.003906 C 43.78125 31.140625 43.78125 31.089844 43.917969 30.921875 C 44.074219 30.734375 44.222656 30.6875 44.832031 30.625 C 45.199219 30.589844 45.425781 30.535156 45.753906 30.40625 C 45.992188 30.308594 46.472656 30.140625 46.824219 30.023438 C 47.984375 29.640625 48.378906 29.363281 48.726562 28.695312 C 49.171875 27.839844 49.394531 26.835938 49.542969 25.003906 L 49.578125 24.644531 L 50.21875 24.617188 C 50.574219 24.597656 50.992188 24.574219 51.136719 24.558594 L 51.402344 24.535156 L 51.972656 25.175781 C 52.289062 25.527344 52.816406 26.171875 53.140625 26.601562 C 54.175781 27.976562 55.140625 28.851562 56.160156 29.339844 C 57.257812 29.867188 57.820312 29.953125 60.863281 30.054688 C 61.730469 30.082031 62.621094 30.117188 62.832031 30.128906 C 63.285156 30.164062 63.273438 30.132812 63.273438 30.828125 C 63.273438 31.546875 63.148438 31.734375 62.644531 31.808594 C 62.507812 31.828125 62.3125 31.886719 62.21875 31.949219 C 62.101562 32.019531 61.925781 32.070312 61.632812 32.097656 C 61.339844 32.128906 61.183594 32.167969 61.089844 32.238281 C 61 32.304688 60.839844 32.355469 60.605469 32.378906 C 60.378906 32.40625 60.191406 32.457031 60.054688 32.539062 C 59.941406 32.601562 59.734375 32.667969 59.59375 32.683594 C 59.457031 32.699219 59.273438 32.753906 59.195312 32.800781 C 59 32.914062 58.726562 32.972656 57.601562 33.121094 C 57.097656 33.1875 56.5 33.285156 56.277344 33.335938 C 56.054688 33.394531 55.792969 33.457031 55.6875 33.480469 C 55.582031 33.503906 54.445312 33.59375 53.160156 33.691406 C 50.78125 33.859375 49.507812 33.96875 48.953125 34.046875 C 48.5625 34.101562 48.414062 34.097656 48.132812 34.023438 Z M 48.109375 32.90625 L 48.292969 32.90625 L 48.292969 31.875 L 47.980469 31.84375 C 47.554688 31.8125 47.375 31.875 47.09375 32.148438 L 46.851562 32.378906 L 47.070312 32.597656 C 47.304688 32.839844 47.582031 32.96875 47.792969 32.929688 C 47.867188 32.914062 48.007812 32.90625 48.109375 32.90625 Z M 53.101562 32.585938 C 53.1875 32.539062 53.316406 32.40625 53.394531 32.292969 L 53.53125 32.078125 L 53.433594 31.941406 C 53.292969 31.742188 52.9375 31.527344 52.75 31.527344 C 52.527344 31.527344 52.285156 31.640625 52.1875 31.785156 C 52.085938 31.945312 52.082031 32.246094 52.1875 32.386719 C 52.367188 32.648438 52.808594 32.742188 53.101562 32.585938 Z M 57.621094 32.140625 C 58.207031 31.921875 58.296875 31.394531 57.800781 31.109375 C 57.4375 30.90625 57.054688 30.996094 56.957031 31.3125 C 56.84375 31.679688 56.875 31.800781 57.101562 32.03125 C 57.214844 32.144531 57.316406 32.238281 57.332031 32.238281 C 57.351562 32.238281 57.480469 32.195312 57.621094 32.140625 Z M 61.335938 31.71875 C 61.519531 31.585938 61.597656 31.332031 61.527344 31.09375 C 61.425781 30.746094 61.011719 30.542969 60.71875 30.695312 C 60.539062 30.789062 60.457031 30.921875 60.390625 31.214844 C 60.324219 31.507812 60.394531 31.703125 60.597656 31.792969 C 60.792969 31.882812 61.15625 31.84375 61.335938 31.71875 Z M 41.085938 33.480469 C 41.035156 33.460938 40.910156 33.410156 40.816406 33.367188 C 40.71875 33.324219 40.234375 33.234375 39.707031 33.167969 C 38.472656 33.003906 38.019531 32.925781 37.792969 32.804688 C 37.6875 32.753906 37.480469 32.6875 37.335938 32.664062 C 37.1875 32.640625 36.9375 32.566406 36.78125 32.507812 C 36.625 32.445312 36.105469 32.28125 35.625 32.148438 C 34.167969 31.753906 33.984375 31.660156 33.851562 31.226562 C 33.753906 30.894531 33.707031 30.011719 33.785156 29.867188 C 33.886719 29.679688 34.222656 29.570312 34.84375 29.527344 C 35.585938 29.46875 35.890625 29.417969 36.414062 29.242188 C 37.007812 29.046875 37.570312 28.664062 38.117188 28.089844 L 38.542969 27.640625 L 38.574219 26.527344 C 38.601562 25.371094 38.65625 24.949219 38.835938 24.597656 C 38.957031 24.359375 38.996094 24.335938 39.367188 24.234375 C 39.535156 24.1875 39.914062 24.039062 40.199219 23.898438 L 40.722656 23.644531 L 41.371094 24.300781 L 42.015625 24.953125 L 42 25.566406 C 41.984375 26.039062 41.960938 26.21875 41.898438 26.335938 C 41.761719 26.589844 41.710938 28.136719 41.738281 30.984375 L 41.761719 33.464844 L 41.550781 33.496094 C 41.300781 33.527344 41.214844 33.527344 41.085938 33.480469 Z M 38.582031 31.953125 C 38.648438 31.894531 38.734375 31.753906 38.777344 31.640625 C 38.9375 31.214844 38.734375 30.914062 38.25 30.871094 C 37.769531 30.832031 37.425781 31.066406 37.425781 31.4375 C 37.425781 31.585938 37.460938 31.660156 37.59375 31.8125 C 37.6875 31.917969 37.832031 32.019531 37.914062 32.050781 C 38.148438 32.121094 38.453125 32.074219 38.582031 31.953125 Z M 35.402344 31.039062 C 35.691406 30.777344 35.742188 30.308594 35.507812 30.199219 C 35.34375 30.128906 34.949219 30.132812 34.757812 30.214844 C 34.464844 30.339844 34.480469 30.625 34.796875 30.972656 C 35.042969 31.242188 35.164062 31.257812 35.402344 31.039062 Z M 35.402344 31.039062 "
    />
    <path
      d="M 44.101562 29.695312 C 43.949219 29.628906 43.921875 29.585938 43.945312 29.4375 C 43.96875 29.234375 44.402344 29.03125 45.003906 28.9375 C 45.75 28.816406 46.207031 28.621094 46.804688 28.175781 C 47.648438 27.542969 47.964844 26.992188 48.054688 26.011719 C 48.078125 25.738281 48.121094 25.449219 48.152344 25.371094 C 48.222656 25.1875 48.382812 25.015625 48.488281 25.015625 C 48.605469 25.015625 48.640625 25.386719 48.613281 26.304688 C 48.589844 26.949219 48.578125 27.078125 48.492188 27.222656 C 48.433594 27.316406 48.378906 27.519531 48.363281 27.6875 C 48.300781 28.265625 48.195312 28.476562 47.796875 28.742188 C 47.175781 29.15625 46.496094 29.417969 45.875 29.484375 C 45.585938 29.511719 45.394531 29.558594 45.234375 29.644531 C 45.046875 29.75 44.945312 29.769531 44.628906 29.769531 C 44.414062 29.761719 44.1875 29.734375 44.101562 29.695312 Z M 59.160156 29.144531 C 58.863281 29.121094 58.511719 29.070312 58.382812 29.027344 C 58.253906 28.984375 57.957031 28.933594 57.71875 28.914062 C 57.269531 28.871094 57.152344 28.839844 57.035156 28.742188 C 56.992188 28.703125 56.816406 28.648438 56.648438 28.613281 C 56.257812 28.527344 56.039062 28.417969 55.574219 28.0625 C 55.136719 27.71875 54.675781 27.246094 54.335938 26.773438 C 54.199219 26.578125 53.859375 26.117188 53.585938 25.753906 C 53.3125 25.386719 53.046875 24.996094 52.996094 24.882812 C 52.921875 24.714844 52.828125 24.625 52.527344 24.421875 C 52.035156 24.09375 51.320312 23.746094 51.058594 23.703125 C 50.804688 23.671875 50.6875 23.550781 50.710938 23.367188 C 50.726562 23.238281 50.734375 23.234375 51.042969 23.21875 C 51.433594 23.199219 52.0625 23.34375 52.484375 23.546875 C 52.890625 23.742188 53.699219 24.554688 54.269531 25.34375 C 55.460938 26.984375 55.777344 27.355469 56.210938 27.574219 C 56.546875 27.742188 58.082031 28.199219 58.5 28.257812 C 58.96875 28.3125 60.714844 28.28125 62.207031 28.179688 C 62.964844 28.128906 63.210938 28.125 63.234375 28.167969 C 63.277344 28.238281 63.28125 28.78125 63.242188 28.890625 C 63.191406 29.023438 62.96875 29.097656 62.46875 29.144531 C 61.914062 29.203125 59.96875 29.203125 59.160156 29.144531 Z M 34.542969 28.605469 C 34.113281 28.570312 33.757812 28.542969 33.753906 28.539062 C 33.707031 28.519531 33.753906 28.007812 33.800781 27.941406 C 33.863281 27.863281 33.898438 27.859375 34.261719 27.910156 C 34.480469 27.9375 34.945312 27.984375 35.285156 28.015625 L 35.914062 28.066406 L 36.320312 27.816406 C 37.363281 27.160156 37.628906 26.675781 37.703125 25.257812 C 37.761719 24.320312 37.933594 23.859375 38.398438 23.453125 C 38.777344 23.117188 39.410156 23 39.410156 23.257812 C 39.410156 23.355469 39.253906 23.476562 38.925781 23.632812 C 38.410156 23.878906 38.28125 24.269531 38.085938 26.109375 C 37.949219 27.414062 37.910156 27.523438 37.492188 27.949219 C 37.078125 28.367188 36.71875 28.550781 36.183594 28.621094 C 35.746094 28.683594 35.582031 28.679688 34.542969 28.605469 Z M 34.542969 28.605469 "
    />
    <path
      d="M 44.1875 28.253906 C 44.078125 28.179688 44.042969 27.6875 44.042969 26.132812 L 44.039062 24.707031 L 44.289062 24.582031 C 44.597656 24.429688 44.871094 24.039062 45.050781 23.5 C 45.203125 23.039062 45.207031 22.839844 45.074219 22.578125 C 44.851562 22.140625 44.269531 21.503906 43.839844 21.230469 C 43.613281 21.085938 43.105469 20.960938 42.71875 20.957031 C 42.339844 20.957031 42.050781 21.097656 41.59375 21.515625 C 41.421875 21.667969 41.214844 21.824219 41.125 21.863281 C 41.035156 21.902344 40.550781 21.984375 40.050781 22.050781 C 39.097656 22.167969 38.675781 22.277344 38.351562 22.480469 C 38.246094 22.554688 37.914062 22.84375 37.628906 23.128906 L 37.09375 23.652344 L 37.09375 26.28125 L 36.964844 26.402344 C 36.679688 26.675781 36.375 26.867188 36.246094 26.867188 C 36.171875 26.867188 36.03125 26.925781 35.929688 26.996094 C 35.761719 27.117188 35.703125 27.125 35.15625 27.140625 C 34.414062 27.164062 34.125 27.097656 34.023438 26.894531 C 33.929688 26.691406 33.902344 24.636719 33.976562 22.503906 C 34.042969 20.492188 34.070312 20.175781 34.183594 20.089844 C 34.316406 19.996094 34.699219 19.929688 35.328125 19.894531 L 35.902344 19.867188 L 35.929688 19.609375 C 36.003906 19.007812 35.808594 18.835938 34.949219 18.742188 C 34.554688 18.699219 34.304688 18.609375 34.304688 18.503906 C 34.304688 18.421875 34.453125 18.3125 34.628906 18.269531 C 34.765625 18.234375 35.703125 18.125 35.875 18.125 C 35.894531 18.125 35.914062 17.898438 35.914062 17.628906 L 35.914062 17.132812 L 35.785156 17.105469 C 35.710938 17.09375 35.351562 17.058594 34.980469 17.027344 L 34.304688 16.96875 L 34.304688 16.277344 L 34.886719 16.261719 C 35.464844 16.242188 35.582031 16.210938 35.835938 16.011719 C 35.949219 15.921875 35.988281 15.53125 35.902344 15.367188 C 35.78125 15.132812 35.570312 15.042969 35.058594 15.003906 C 34.414062 14.960938 34.359375 14.914062 34.292969 14.367188 C 34.261719 14.113281 34.257812 13.488281 34.28125 12.652344 L 34.316406 11.335938 L 34.53125 11.308594 C 34.9375 11.25 35.703125 11.273438 35.917969 11.351562 C 36.03125 11.394531 36.371094 11.554688 36.679688 11.710938 C 36.984375 11.867188 37.390625 12.035156 37.585938 12.085938 C 37.773438 12.132812 38.011719 12.21875 38.109375 12.273438 C 38.355469 12.40625 38.609375 12.449219 39.714844 12.5625 C 40.558594 12.648438 43.480469 12.894531 44.5625 12.976562 L 44.976562 13.003906 L 45 14.410156 C 45.027344 16.253906 45.097656 16.59375 45.621094 17.378906 C 46.402344 18.550781 46.933594 18.765625 49.046875 18.761719 C 50.574219 18.753906 50.96875 18.675781 51.609375 18.238281 C 51.8125 18.09375 52.03125 17.980469 52.09375 17.980469 C 52.332031 17.980469 52.535156 18.25 52.710938 18.789062 C 52.921875 19.441406 53.425781 20.300781 53.972656 20.945312 C 54.304688 21.339844 56.085938 22.421875 56.589844 22.535156 C 56.699219 22.558594 56.882812 22.648438 57.007812 22.730469 C 57.335938 22.957031 57.625 23.070312 57.992188 23.117188 C 58.191406 23.144531 58.390625 23.203125 58.496094 23.265625 C 58.660156 23.371094 58.699219 23.375 59.917969 23.375 C 60.605469 23.375 61.574219 23.355469 62.078125 23.335938 C 62.921875 23.304688 62.984375 23.304688 63.007812 23.386719 C 63.085938 23.640625 63.1875 24.855469 63.210938 25.898438 L 63.238281 27.085938 L 62.867188 27.167969 C 62.238281 27.300781 61.878906 27.339844 60.617188 27.402344 C 58.613281 27.496094 57.945312 27.410156 56.863281 26.917969 C 56.265625 26.644531 55.65625 26.128906 55.59375 25.835938 C 55.519531 25.503906 55.5 25.480469 54.417969 24.136719 C 53.773438 23.335938 53.71875 23.289062 52.546875 22.695312 C 51.839844 22.339844 51.726562 22.296875 51.367188 22.253906 C 50.882812 22.195312 50.691406 22.105469 50.164062 21.683594 C 49.648438 21.28125 49.390625 21.140625 49.046875 21.09375 C 48.90625 21.074219 48.699219 21.019531 48.59375 20.964844 C 48.425781 20.886719 48.371094 20.875 48.234375 20.921875 C 47.957031 21.011719 47.386719 21.445312 46.832031 21.984375 L 46.308594 22.488281 L 46.308594 23.101562 L 46.3125 23.707031 L 46.898438 24.351562 L 47.484375 24.992188 L 47.484375 25.757812 L 47.488281 26.523438 L 47.214844 26.789062 C 46.800781 27.183594 46.320312 27.472656 45.371094 27.90625 C 44.546875 28.28125 44.332031 28.34375 44.1875 28.253906 Z M 42.980469 15.253906 C 43.125 15.109375 43.140625 15.058594 43.140625 14.851562 C 43.140625 14.582031 43.042969 14.429688 42.753906 14.238281 L 42.566406 14.121094 L 42.375 14.308594 C 42.164062 14.515625 42.078125 14.652344 42.035156 14.890625 C 41.980469 15.21875 42.183594 15.414062 42.59375 15.414062 C 42.789062 15.414062 42.84375 15.390625 42.980469 15.253906 Z M 38.765625 14.601562 C 38.832031 14.550781 38.949219 14.410156 39.027344 14.300781 L 39.167969 14.097656 L 38.941406 13.875 C 38.550781 13.484375 38.222656 13.5 37.859375 13.917969 C 37.675781 14.125 37.675781 14.179688 37.835938 14.375 C 38.113281 14.703125 38.511719 14.800781 38.765625 14.601562 Z M 35.871094 13.773438 C 36.058594 13.675781 36.195312 13.4375 36.195312 13.203125 C 36.195312 12.949219 36.101562 12.824219 35.847656 12.753906 C 35.566406 12.675781 35.328125 12.753906 35.199219 12.960938 C 35.050781 13.203125 35.101562 13.640625 35.285156 13.789062 C 35.394531 13.871094 35.699219 13.859375 35.871094 13.773438 Z M 35.871094 13.773438 "
    />
    <path
      d="M 42.617188 27.6875 C 42.542969 27.429688 42.636719 26.839844 42.773438 26.691406 C 42.894531 26.566406 42.96875 26.554688 43.070312 26.664062 C 43.136719 26.726562 43.148438 26.816406 43.132812 27.105469 C 43.125 27.40625 43.09375 27.507812 42.984375 27.667969 C 42.816406 27.929688 42.691406 27.933594 42.617188 27.6875 Z M 42.742188 23.972656 C 42.386719 23.882812 42.167969 23.695312 42.011719 23.351562 C 41.777344 22.832031 42.007812 22.261719 42.574219 21.972656 C 42.640625 21.933594 42.8125 21.910156 42.957031 21.910156 C 43.3125 21.910156 43.625 22.070312 43.824219 22.355469 C 43.960938 22.546875 43.96875 22.597656 43.96875 22.957031 C 43.96875 23.3125 43.960938 23.355469 43.824219 23.550781 C 43.582031 23.878906 43.105469 24.070312 42.742188 23.972656 Z M 48.054688 23.847656 C 47.507812 23.609375 47.289062 22.933594 47.59375 22.394531 C 47.785156 22.042969 48.277344 21.824219 48.652344 21.921875 C 49.125 22.039062 49.414062 22.359375 49.460938 22.804688 C 49.507812 23.238281 49.292969 23.628906 48.902344 23.832031 C 48.683594 23.941406 48.292969 23.949219 48.054688 23.847656 Z M 39.886719 23.074219 C 39.699219 23.019531 39.714844 22.933594 39.9375 22.871094 C 40.167969 22.808594 40.617188 22.839844 40.78125 22.925781 C 40.882812 22.980469 40.882812 22.984375 40.796875 23.035156 C 40.691406 23.09375 40.046875 23.125 39.886719 23.074219 Z M 58.972656 22.40625 C 58.253906 22.25 57.222656 21.945312 57.136719 21.855469 C 57.128906 21.84375 57.15625 21.773438 57.199219 21.691406 C 57.265625 21.566406 57.300781 21.546875 57.480469 21.546875 C 57.59375 21.546875 57.9375 21.625 58.246094 21.726562 L 58.804688 21.902344 L 60.128906 21.898438 C 60.855469 21.890625 61.746094 21.867188 62.101562 21.835938 C 62.804688 21.773438 62.941406 21.789062 62.941406 21.925781 C 62.941406 22.070312 62.769531 22.148438 62.257812 22.253906 C 61.097656 22.492188 59.675781 22.554688 58.972656 22.40625 Z M 55.636719 21.105469 C 54.917969 20.828125 54.410156 20.261719 53.796875 19.023438 C 53.558594 18.546875 53.460938 18.082031 53.585938 18.003906 C 53.664062 17.953125 53.820312 18.140625 53.820312 18.292969 C 53.820312 18.53125 55.460938 20.339844 55.953125 20.632812 C 56.144531 20.75 56.246094 20.914062 56.222656 21.074219 C 56.203125 21.230469 56.003906 21.242188 55.636719 21.105469 Z M 55.636719 21.105469 "
    />
    <path
      d="M 59.703125 21.023438 C 58.621094 20.898438 57.035156 20.332031 56.195312 19.769531 C 55.664062 19.417969 55.074219 18.742188 54.601562 17.953125 C 54.371094 17.5625 54.378906 17.394531 54.671875 16.710938 C 54.804688 16.414062 54.921875 16.070312 54.941406 15.957031 C 55.015625 15.386719 54.378906 14.441406 53.679688 14.082031 C 52.921875 13.699219 52.121094 13.8125 51.285156 14.414062 C 50.789062 14.777344 50.710938 14.910156 50.65625 15.496094 C 50.628906 15.78125 50.589844 15.933594 50.507812 16.042969 C 50.28125 16.375 50.097656 16.429688 49.710938 16.292969 C 49.597656 16.253906 49.332031 16.203125 49.113281 16.175781 C 48.640625 16.121094 48.511719 16.0625 48.234375 15.75 C 47.910156 15.386719 47.796875 15.035156 47.800781 14.390625 C 47.800781 13.835938 47.867188 13.59375 48.121094 13.191406 L 48.234375 13.003906 L 49.71875 12.972656 C 54.847656 12.855469 58.347656 12.585938 59.042969 12.253906 C 59.175781 12.191406 59.375 12.117188 59.492188 12.085938 C 59.734375 12.023438 60.257812 11.75 60.726562 11.4375 L 61.03125 11.230469 L 61.824219 11.273438 C 62.261719 11.296875 62.625 11.328125 62.632812 11.335938 C 62.644531 11.351562 62.769531 19.402344 62.777344 20.351562 L 62.777344 20.703125 L 62.46875 20.789062 C 61.664062 21.019531 60.515625 21.113281 59.703125 21.023438 Z M 57.214844 14.886719 C 57.359375 14.816406 57.441406 14.734375 57.488281 14.625 C 57.550781 14.472656 57.550781 14.449219 57.441406 14.289062 C 57.378906 14.1875 57.25 14.035156 57.160156 13.945312 L 56.996094 13.789062 L 56.785156 13.984375 C 56.445312 14.300781 56.316406 14.703125 56.5 14.902344 C 56.609375 15.019531 56.949219 15.015625 57.214844 14.886719 Z M 60.714844 14.246094 C 61.136719 13.863281 61.066406 13.335938 60.558594 13.0625 L 60.390625 12.972656 L 60.152344 13.203125 C 59.90625 13.445312 59.832031 13.644531 59.894531 13.851562 C 59.945312 14.007812 60.34375 14.414062 60.441406 14.414062 C 60.492188 14.414062 60.617188 14.339844 60.714844 14.246094 Z M 60.714844 14.246094 "
    />
    <path
      d="M 48.199219 17.929688 C 47.664062 17.851562 47.046875 17.570312 46.710938 17.261719 C 46.601562 17.160156 46.398438 16.90625 46.265625 16.707031 L 46.023438 16.335938 L 46.070312 14.792969 C 46.09375 13.945312 46.117188 13.203125 46.117188 13.148438 C 46.117188 13.042969 46.136719 13.039062 46.445312 13.039062 C 46.628906 13.039062 46.789062 13.054688 46.804688 13.085938 C 46.820312 13.109375 46.851562 13.59375 46.875 14.164062 C 46.933594 15.417969 46.960938 15.597656 47.1875 16.175781 C 47.398438 16.703125 47.617188 16.96875 47.976562 17.128906 C 48.207031 17.238281 48.273438 17.242188 49.144531 17.238281 C 49.820312 17.238281 50.179688 17.214844 50.480469 17.160156 C 50.710938 17.109375 50.9375 17.085938 50.992188 17.101562 C 51.140625 17.148438 51.105469 17.351562 50.902344 17.554688 C 50.753906 17.699219 50.664062 17.742188 50.371094 17.808594 C 49.710938 17.953125 48.726562 18.007812 48.199219 17.929688 Z M 52.179688 16.78125 L 51.789062 16.582031 L 51.789062 15.179688 L 52.222656 14.945312 L 52.660156 14.707031 L 52.984375 14.882812 C 53.558594 15.191406 53.878906 15.671875 53.808594 16.109375 C 53.769531 16.347656 53.566406 16.667969 53.363281 16.824219 C 53.226562 16.933594 53.136719 16.957031 52.882812 16.96875 C 52.59375 16.984375 52.535156 16.964844 52.179688 16.78125 Z M 44.667969 11.703125 C 44.503906 11.683594 43.695312 11.621094 42.871094 11.5625 C 40.3125 11.398438 39.136719 11.261719 38.332031 11.042969 C 37.785156 10.890625 37.566406 10.746094 37.566406 10.542969 C 37.566406 10.390625 37.664062 10.367188 38.203125 10.40625 C 38.582031 10.429688 38.710938 10.417969 38.855469 10.355469 C 39.058594 10.277344 39.410156 10.011719 39.410156 9.945312 C 39.410156 9.917969 39.332031 9.78125 39.242188 9.640625 C 39.148438 9.492188 39.085938 9.355469 39.101562 9.332031 C 39.140625 9.269531 40.128906 8.445312 40.859375 7.867188 C 42.390625 6.660156 42.773438 6.074219 42.460938 5.417969 C 42.394531 5.269531 42.339844 5.125 42.339844 5.085938 C 42.339844 4.902344 42.859375 4.863281 43.90625 4.980469 C 45.007812 5.101562 46.269531 5.148438 48.550781 5.148438 C 50.847656 5.148438 52.042969 5.101562 53.066406 4.980469 C 54.183594 4.847656 54.4375 4.894531 54.4375 5.226562 C 54.4375 5.472656 54.207031 5.679688 53.8125 5.804688 C 53.371094 5.941406 52.796875 6 50.734375 6.097656 L 48.933594 6.183594 L 48.152344 5.480469 L 47.820312 5.699219 L 47.488281 5.921875 L 47.488281 6.59375 C 47.492188 7.34375 47.542969 7.636719 47.691406 7.800781 C 48.019531 8.152344 48.421875 8.121094 48.648438 7.734375 C 48.789062 7.492188 48.585938 7.519531 50.984375 7.382812 C 52.921875 7.265625 53.75 7.183594 54.136719 7.042969 C 54.492188 6.925781 54.597656 6.929688 54.941406 7.089844 C 55.324219 7.277344 55.707031 7.539062 56.167969 7.9375 C 56.371094 8.117188 56.679688 8.339844 56.851562 8.441406 C 57.019531 8.542969 57.285156 8.734375 57.4375 8.875 L 57.714844 9.121094 L 57.628906 9.632812 C 57.582031 9.914062 57.558594 10.171875 57.570312 10.203125 C 57.601562 10.296875 58.003906 10.421875 58.246094 10.421875 C 58.351562 10.421875 58.519531 10.390625 58.609375 10.351562 C 58.925781 10.21875 59.242188 10.28125 59.382812 10.503906 C 59.449219 10.597656 59.445312 10.617188 59.339844 10.722656 C 59.277344 10.785156 59.082031 10.882812 58.894531 10.941406 C 58.714844 11 58.527344 11.074219 58.472656 11.113281 C 58.089844 11.359375 55.242188 11.582031 50.75 11.707031 C 48.839844 11.765625 45.089844 11.757812 44.667969 11.703125 Z M 41.429688 11.023438 C 41.664062 10.769531 41.734375 10.546875 41.667969 10.285156 C 41.558594 9.851562 41.210938 9.726562 40.898438 10 C 40.476562 10.371094 40.496094 10.722656 40.960938 11.066406 C 41.082031 11.15625 41.195312 11.230469 41.210938 11.230469 C 41.226562 11.230469 41.328125 11.136719 41.429688 11.023438 Z M 44.375 11.121094 C 44.523438 11.023438 44.535156 10.988281 44.550781 10.746094 C 44.5625 10.503906 44.550781 10.460938 44.417969 10.308594 C 44.132812 9.984375 43.742188 10.027344 43.359375 10.417969 L 43.128906 10.65625 L 43.253906 10.808594 C 43.609375 11.230469 44.035156 11.351562 44.375 11.121094 Z M 47.484375 11.179688 C 47.671875 11.113281 47.726562 11.011719 47.726562 10.722656 C 47.726562 10.464844 47.617188 10.324219 47.304688 10.160156 L 47.148438 10.082031 L 46.941406 10.285156 C 46.699219 10.523438 46.628906 10.679688 46.648438 10.925781 C 46.65625 11.066406 46.691406 11.125 46.78125 11.167969 C 46.925781 11.246094 47.285156 11.25 47.484375 11.179688 Z M 53.597656 11.179688 C 53.746094 11.101562 54.105469 10.746094 54.105469 10.675781 C 54.105469 10.574219 53.835938 10.300781 53.617188 10.1875 C 53.34375 10.039062 53.210938 10.078125 52.886719 10.394531 L 52.621094 10.652344 L 52.753906 10.808594 C 53.054688 11.183594 53.347656 11.308594 53.597656 11.179688 Z M 51.140625 10.761719 C 51.128906 10.320312 51.0625 10.15625 50.863281 10.109375 C 50.710938 10.070312 50.570312 10.132812 50.328125 10.351562 C 50.082031 10.574219 50.003906 10.808594 50.113281 10.976562 C 50.21875 11.144531 50.34375 11.179688 50.773438 11.167969 L 51.152344 11.160156 Z M 56.269531 11.070312 C 56.46875 10.964844 56.625 10.71875 56.648438 10.472656 C 56.660156 10.289062 56.648438 10.230469 56.546875 10.113281 C 56.480469 10.035156 56.355469 9.933594 56.265625 9.882812 L 56.09375 9.792969 L 55.671875 10.09375 C 55.347656 10.328125 55.257812 10.414062 55.289062 10.472656 C 55.316406 10.507812 55.457031 10.675781 55.609375 10.839844 C 55.910156 11.160156 56.023438 11.199219 56.269531 11.070312 Z M 43.117188 3.667969 C 42.328125 3.632812 42.027344 3.59375 41.894531 3.523438 C 41.847656 3.492188 41.644531 3.449219 41.445312 3.425781 C 41.253906 3.402344 41.015625 3.339844 40.921875 3.289062 C 40.832031 3.238281 40.542969 3.113281 40.289062 3.019531 C 39.863281 2.855469 39.671875 2.726562 39.75 2.652344 C 39.761719 2.636719 39.910156 2.601562 40.074219 2.574219 C 40.40625 2.519531 42.519531 2.558594 42.929688 2.628906 C 43.0625 2.648438 43.304688 2.691406 43.472656 2.71875 C 43.808594 2.769531 45.046875 2.84375 46.484375 2.894531 C 47.261719 2.921875 47.394531 2.9375 47.414062 3.003906 C 47.421875 3.046875 47.445312 3.222656 47.464844 3.402344 L 47.5 3.722656 L 45.660156 3.710938 C 44.652344 3.710938 43.511719 3.6875 43.117188 3.667969 Z M 48.414062 3.515625 C 48.3125 3.242188 48.320312 3.117188 48.449219 3.03125 C 48.664062 2.890625 49.015625 2.867188 52.875 2.722656 C 53.617188 2.695312 54.742188 2.652344 55.378906 2.625 C 56.675781 2.570312 56.941406 2.585938 56.941406 2.722656 C 56.941406 2.851562 56.765625 2.96875 56.265625 3.195312 C 55.746094 3.421875 55.398438 3.507812 54.695312 3.578125 C 54.238281 3.621094 50.632812 3.71875 49.066406 3.722656 L 48.496094 3.722656 Z M 46.261719 1.671875 C 46.171875 1.648438 45.957031 1.601562 45.789062 1.5625 C 45.617188 1.527344 44.886719 1.464844 44.15625 1.421875 C 41.59375 1.269531 40.414062 1.148438 40.179688 1.023438 C 40.105469 0.980469 40.128906 0.960938 40.332031 0.871094 C 40.828125 0.65625 41.128906 0.578125 41.664062 0.542969 C 42.101562 0.507812 42.234375 0.480469 42.34375 0.398438 C 42.667969 0.15625 43.605469 0.0664062 46 0.0507812 L 47.703125 0.0390625 L 47.714844 0.617188 C 47.734375 1.386719 47.6875 1.503906 47.339844 1.601562 C 47.027344 1.6875 46.476562 1.726562 46.261719 1.671875 Z M 48.769531 1.636719 C 48.460938 1.554688 48.414062 1.453125 48.398438 0.871094 C 48.382812 0.578125 48.390625 0.265625 48.410156 0.171875 L 48.445312 0 L 50.21875 0.0273438 C 52.652344 0.0703125 53.101562 0.113281 54.738281 0.417969 C 56.4375 0.742188 57.046875 0.917969 56.917969 1.050781 C 56.898438 1.070312 56.648438 1.097656 56.359375 1.117188 C 56.066406 1.132812 55.734375 1.179688 55.621094 1.222656 C 55.347656 1.320312 54.246094 1.425781 52.804688 1.488281 C 52.15625 1.515625 51.285156 1.558594 50.867188 1.582031 C 49.550781 1.660156 48.933594 1.671875 48.769531 1.636719 Z M 48.769531 1.636719 "
    />
  </g>
</svg>
