<svg id="root" xmlns="http://www.w3.org/2000/svg" width="768" height="441" viewBox="0 0 7680 4410">
  <g>
    <path
      d="M2947 3816c-48-45-225-325-246-389-21-66-36-147-28-147 3 0 20 24 37 54 45 80 82 116 119 116 46 0 57-29 32-85-11-25-16-47-10-50 15-10 10-69-7-94-12-17-13-26-5-34 16-16 13-59-6-86-13-19-14-28-5-42 16-25 15-44-2-78-26-49-166-230-191-247-18-12-25-25-25-48 0-17-7-71-16-119-20-116-10-151 50-178 51-23 86-25 86-4 0 46 114 181 182 216 47 24 69 24 182-1 368-83 489-120 502-155 4-8-1-26-10-40-22-33-20-36 10-25 14 6 70 10 124 10 77 0 112-5 157-22 81-30 113-64 113-121 0-60-6-73-47-98-19-12-32-23-30-25 9-9 358-84 391-84 60 0 391 180 435 236 27 34 27 43-4 404-14 162-29 353-34 423-7 84-15 137-25 152-12 18-70 41-268 108-248 84-1173 401-1315 451-90 32-113 32-146 2zm448-150c71-24 168-56 215-70 46-15 99-38 117-52 64-49 65-52 61-402-3-210-8-326-15-344-18-39-53-68-85-68-46 0-221 39-365 81-261 76-276 95-261 334 4 61 11 185 17 276 18 305 55 333 316 245zm934-440c240-77 283-97 325-146 50-60 39-170-23-218l-30-23 41-37c69-62 85-130 49-209-24-51-85-94-143-100-53-5-494 104-565 141-85 43-123 98-123 178 0 55 25 103 67 129l35 22-31 24c-44 35-71 92-71 153 0 44 5 55 38 92 49 54 104 80 158 74 23-3 146-39 273-80z" />
    <path
      d="M3166 3646c-27-26-26-17-52-424-19-293-20-287 73-328 100-45 457-130 498-120 51 13 55 38 55 380 0 313 0 315-22 340-17 18-82 44-254 100-127 42-241 76-253 76s-33-11-45-24zm474-441c40-21 60-53 60-96 0-30-7-43-40-73-45-41-42-40-92-26-69 20-98 92-63 160 26 51 78 64 135 35z" />
    <path
      d="M3553 3164c-11-29 11-68 47-87 34-17 36-17 51 2 21 25 14 67-14 86-29 20-76 19-84-1zm-4-103c13-12 28-21 34-21 12 0 11 0-28 24l-30 17 24-20zm419 182c-57-37-76-138-38-201 24-39 44-48 135-61 39-6 149-35 245-64 236-73 234-73 269-48 54 39 75 115 46 171-23 45-70 67-302 142-240 77-312 89-355 61zm35-304c-39-11-79-57-95-110-10-35-9-45 6-74 36-66 62-81 226-129 203-59 352-96 385-96 77 0 134 68 135 158 0 60-36 93-138 126-158 51-454 136-470 135-9 0-31-5-49-10zm-1199 463c-19-13-174-253-174-270 0-9 29 27 65 80 36 54 77 105 92 115 35 22 43 33 43 61 0 23-7 27-26 14zm-104-248c-50-75-88-139-85-143 3-3 9-1 13 5 60 88 114 157 149 190 25 24 43 50 43 62 0 48-34 16-120-114zm35-51c-21-32-58-83-82-114-23-30-43-66-43-79 0-18 15-3 65 63 36 48 76 94 89 102 22 14 46 54 46 75 0 6-8 10-19 10s-33-22-56-57zm5-109c-55-59-160-207-160-225 0-20 21-6 71 49 72 77 152 195 147 217-2 14-16 4-58-41zm2020-158c0-17 4-36 8-42s47-24 96-38c176-54 244-101 311-214 27-47 33-52 67-52 20 0 39 3 41 8 8 12-29 80-75 140-64 83-144 137-247 167-47 14-112 34-143 44l-58 18v-31zm-1835-270c-34-16-155-150-155-172 0-24 48-62 98-78 26-9 85-21 132-26 47-6 115-20 153-31 99-29 158-34 193-16 16 8 72 55 123 103l94 89-41 17c-22 10-98 31-168 47-71 17-178 41-239 55-125 29-148 31-190 12zm2300-116c-45-17-50-35-36-123 6-45 32-261 56-481 24-219 46-400 48-402s26 0 53 5 70 7 95 4l46-5-14 78c-7 44-24 171-37 284-50 413-79 625-89 638-11 13-91 15-122 2zm-1640-107c-38-10-83-35-88-47-4-9 10-6 36 8 37 18 59 21 177 21s141-3 183-22c59-27 60-7 1 22-31 15-63 20-164 22-69 1-134-1-145-4zm-51-78c-38-17-56-38-48-58 11-29 32-27 43 5 6 18 19 40 28 50 19 21 18 21-23 3zm326 10c0-2 11-15 25-29s25-34 25-46c0-23 13-26 30-5 20 24 7 47-37 66-24 10-43 16-43 14zm-438-27c-18-18-15-28 8-28 13 0 20 7 20 20 0 23-10 26-28 8zm198 1c-19-6-38-14-42-17-4-4-8-38-9-77l-3-70 140-27c76-15 145-27 152-27 10-1 12 22 10 96-3 98-3 98-33 112-37 18-168 24-215 10zm-654-29c-41-37-127-202-129-250-2-29 2-36 21-38 14-2 24 3 28 15 23 73 61 155 90 196 30 41 38 46 50 36 67-55 70-249 8-485-38-146-107-264-155-264-28 0-43 64-41 183l1 107h-59v-113c0-189 37-265 124-254 97 13 184 162 232 397 44 214 27 416-42 484-27 27-88 20-128-14zm1702-41c-43-22-44-26-23-49 8-9 47-149 86-311 88-368 93-386 129-443 35-54 71-76 95-56 23 19 18 46-20 124-26 51-56 154-110 369-63 254-104 388-117 387-2-1-20-10-40-21zm226 7c-3-8 8-72 26-143 31-128 49-293 50-445 0-43 4-78 9-78 30 0 16 308-25 527-13 73-24 137-24 143 0 15-30 12-36-4zm82-78c33-134 54-309 54-463v-135l25-6c47-12 55-1 55 77 0 116-28 268-80 445-28 92-50 168-50 170s-6 4-14 4c-11 0-9-18 10-92z" />
    <path
      d="M3194 1962c-1-142-4-168-32-274-18-65-47-149-66-188-19-38-31-72-26-75s48-9 95-12c82-6 88-5 157 28 62 28 84 34 146 34 68 0 75-2 98-28 14-16 24-41 24-58s6-32 15-35c8-3 54 11 102 32 114 49 183 53 218 11 13-15 27-43 31-63 6-34 8-36 37-30 44 9 74 41 112 121 49 102 68 191 63 305-7 170-43 207-240 245-68 13-190 39-273 59-178 41-406 86-438 86-22 0-22-1-23-158zm-192 135c-18-22-72-141-72-159 0-12 8-18 23-18 12 0 34-6 48-14 26-13 27-13 33 16 12 60 2 188-14 188-4 0-12-6-18-13zm-796-114c-3-15-8-48-11-73l-7-45 391-65c298-49 394-61 403-52 6 6 13 36 16 65l4 54-63 16c-35 8-113 23-174 32-60 9-191 32-290 50-280 53-262 51-269 18zm-41-30c-4-21-9-47-11-58-4-16-3-17 4-5 11 18 26 100 18 100-3 0-8-17-11-37z" />
    <path
      d="M4175 1954c43-99 47-128 42-264-7-190-44-301-135-402-19-21-33-40-31-42s32-7 66-11l63-7 58 59c42 42 64 74 80 118 68 185 68 385-1 493-29 44-48 56-113 68-34 6-37 5-29-12z" />
    <path
      d="M4370 1883c0-3 10-37 21-75 26-85 23-183-11-328-17-71-32-106-66-155l-43-64 53-6c63-8 78-2 133 57 56 62 84 146 90 279 6 128-10 198-58 247-17 17-34 32-38 32-3 0-23 4-43 9-21 5-38 7-38 4zm-1483-179c-11-12-8-160 4-191l11-28 16 24c30 43 87 200 66 179-4-4-12-4-18 1-16 13-71 23-79 15zm1703-87c0-53-7-100-25-154-13-42-22-79-19-82s17 1 32 9c81 45 98 231 28 289-14 12-16 5-16-62zm383-167c21-24 27-42 27-79 0-82-60-120-114-73-18 16-19 16-12-18 10-51 38-77 73-64 47 16 73 67 73 143 0 77-16 115-49 119l-24 4 26-32zm77-6c19-49 12-137-15-188l-24-46 37 16c98 42 124 39 144-17 8-24 13-27 29-19 32 17 49 65 49 133 0 90-14 104-121 128-111 24-111 25-99-7zm-1679-22c-32-10-60-27-69-40l-16-24 50 8c61 10 93 10 167 0 52-8 57-7 57 11 0 58-87 79-189 45zm1983-39c13-55 12-58-15-55-22 3-27-2-33-29-10-49-9-50 41-47 41 3 50 7 70 37 15 22 23 49 23 77v44h-46c-45 0-46-1-40-27zm-1634-25c-24-13-45-27-47-33s29-10 79-10c46 0 103-4 127-8l43-8-6 28c-4 15-14 34-23 41-28 20-123 15-173-10zm-410-37c0-19 115-27 195-14 31 5 35 8 20 14-28 11-215 11-215 0zm395-50-40-6 55-8c74-9 152-9 168 2 30 19-89 27-183 12zm255-11c0-5 9-10 19-10 11 0 23 5 26 10 4 6-5 10-19 10s-26-4-26-10z" />
    <path d="M5065 1194c-47-24-51-32-30-53 34-34 70-36 99-7 15 14 26 37 26 51 0 22-4 25-32 25-18 0-46-7-63-16z" />
  </g>
</svg>