<svg xmlns="http://www.w3.org/2000/svg" id="root" viewBox="200 2027 20951 9678">
  <path
    d="M7818 11565c-172-169-299-257-538-374-239-118-269-124-575-124-221 0-451 7-1032 29l-162 6-88 70c-48 38-113 82-145 98-31 16-90 61-132 100s-100 81-129 94c-28 13-68 40-87 60-23 24-52 42-86 52-28 8-78 31-110 51-101 61-134 73-206 73h-68l31-50c40-64 86-102 245-198 71-43 210-138 309-213 99-74 226-168 282-207 105-75 192-143 328-258 44-37 118-92 165-122 206-132 212-139 171-176-32-29-108-46-296-66-672-73-1076-140-1435-239-197-54-455-76-540-46-76 27-232 107-266 137-25 22-49 32-96 38-102 15-218 63-237 99-7 12-27 21-56 25-32 5-50 14-61 31-9 14-29 26-51 30-21 4-87 31-148 60s-124 57-140 61c-34 8-55 21-141 84-33 25-75 53-92 62-43 23-55 73-42 169 6 40 21 96 34 124 13 27 26 70 29 95s17 70 31 101c25 54 66 263 54 275-4 3-47 2-96-1l-90-7-52-142c-96-259-172-392-238-419-56-23-165-35-402-47-514-25-814-57-1096-118-107-23-117-32-112-99 3-29 7-55 9-57s407-10 900-19l895-15 180-90c173-86 307-142 342-142 10 0 35-10 57-21 22-12 85-40 140-61 131-52 257-118 345-179 72-51 79-60 58-76-40-30-385-138-473-147-100-11-266-60-617-182-418-146-509-174-578-181-33-3-75-17-105-33-64-36-186-77-269-90-36-6-98-22-138-36-90-32-262-120-285-147-17-18-17-20 12-43 17-13 129-74 249-136 205-105 336-186 336-207 0-29-109-80-230-108-225-52-699-181-771-210-43-17-59-38-59-75 1-43 44-78 97-78 15 0 48-14 72-30 24-17 53-30 65-30 26 0 122-30 201-63 33-14 103-43 155-65s111-43 130-47 52-18 73-33c24-16 61-29 100-34 37-5 74-17 92-30s53-25 87-29c47-6 62-13 92-43 20-20 43-36 51-36 25 0 75-51 75-76 0-13-3-24-7-24-46-1-147-27-193-50-76-38-276-118-415-165-151-51-253-94-407-171l-132-66-151 11c-82 6-169 11-192 11h-43v-130h2128c2149 1 4668 16 4797 29l70 7-45 6c-104 16-357 19-1945 29-918 5-1715 14-1770 18-81 7-130 19-260 64-250 85-355 129-650 272-99 48-224 102-277 120-76 26-119 48-195 103-54 38-118 76-143 83s-61 23-81 36c-24 16-60 26-111 32s-85 15-104 30c-17 12-52 24-83 28-31 3-67 16-89 31-20 14-56 29-80 33-24 5-96 31-160 58s-135 53-157 57c-22 3-57 15-77 25-39 20-88 81-88 111 0 24 36 45 90 53 25 4 169 47 320 96 294 95 500 149 565 149 22 0 63 6 90 14 54 14 145 56 145 66 0 19-118 85-183 102-135 36-462 227-455 266 7 36 175 103 483 193 286 83 347 92 490 69 74-11 362-36 590-50 249-15 860-64 1430-115 275-25 667-58 870-75 576-46 717-63 780-92 30-14 42-46 24-63-12-10-349-199-699-390-431-236-657-359-795-431-177-93-187-99-204-131-18-34 2-61 64-89 86-40 185-54 446-64 135-6 268-15 295-20 153-33 605-50 1335-50h507l6 35c9 48 0 72-32 89-80 41-191 50-1002 76-778 25-1088 44-1113 69-13 13 17 63 53 89 17 13 94 55 170 93s165 88 199 110c34 23 87 48 117 56 64 16 203 75 394 165 74 35 178 84 230 109 332 154 530 262 550 299 23 42 12 60-52 90-108 50-231 76-618 130-579 82-632 87-1300 125-245 14-512 29-595 35-82 5-258 16-390 25-712 45-854 59-919 92-16 8-75 18-133 22-57 4-109 13-115 19-24 24 119 71 402 132 69 15 224 52 345 83 121 30 289 67 374 82 149 26 293 57 591 128 80 19 213 47 295 61 244 44 681 125 815 152 174 34 364 53 725 69l310 14 115-78c63-43 142-92 175-109 33-16 130-78 215-138l155-107 544 6c422 5 546 10 553 19 14 23 9 67-9 77-57 29-223 45-712 67l-373 16-97 76c-53 41-116 84-141 95s-70 43-102 72c-31 29-69 55-86 58s-59 33-98 69c-88 81-120 103-166 116-61 17-210 128-290 216-43 48-46 62-15 72 12 5 263 7 558 6l536-2 184 121c101 67 220 147 264 179s127 84 185 116c57 32 147 90 200 130 111 83 347 297 333 301-5 2-84 7-175 11l-166 7-144-140zM2209 7625c65-30 136-58 157-63 68-15 261-110 385-187l44-28-30-11c-37-12-1566-15-1639-3l-48 9 22 23c29 31 140 75 189 75 21 0 58 11 84 25 55 29 144 56 402 124 105 28 215 59 245 70s59 20 63 20c5 1 61-24 126-54zM14072 11645c40-38 69-56 95-61 52-10 112-36 180-80 119-77 153-93 301-143 83-28 191-69 238-91 48-22 110-46 138-54 78-20 193-71 394-173s315-171 331-201c13-25-2-39-94-85-121-60-321-127-560-187-126-32-333-92-458-134-381-127-664-189-862-190-107-1-125 2-161 22-33 18-68 25-165 33-93 7-134 15-164 31s-68 23-148 29c-79 5-119 13-150 29-23 11-80 27-126 35s-91 21-100 29c-10 9-42 20-71 26-96 18-153-8-142-66 7-40 62-91 112-103 139-36 243-67 308-93 44-17 106-32 155-37 48-5 99-17 122-28 52-27 110-38 346-68 212-26 261-35 348-65 31-10 113-28 181-40 69-11 157-29 195-39 91-25 254-57 380-76 179-26 314-55 396-85 44-17 205-55 357-85 269-54 327-69 337-86 8-12-75-57-193-104-348-137-612-262-678-319-77-68-30-87 346-145 261-40 345-51 690-91 96-11 249-32 340-46 522-78 774-109 1445-174 441-43 449-46 752-249 98-66 199-141 225-168 50-52 68-93 46-110-21-17-130-32-313-43-451-28-947-95-1075-146-31-13-40-22-40-40 0-31 46-64 215-156 141-77 220-130 235-157 16-32-30-101-149-223l-114-118h-1216c-1275-1-2412-14-2471-29-19-5-33-10-30-10 39-12 1079-21 2935-26 2650-6 3818-13 3930-25 44-4 100-13 125-20 25-6 115-12 200-13l155-2 3 63 3 62h-718c-797 1-1067 9-1105 34-14 9-63 20-110 25-58 5-98 15-120 29-18 11-61 25-95 31-34 5-75 19-91 31-21 16-51 23-115 29-57 5-100 16-129 31-34 18-68 24-163 30-123 8-148 13-176 37-9 7-54 18-100 23-123 15-179 34-261 89-79 54-198 165-198 187 0 7 17 18 38 23 33 9 417 61 782 107 306 39 386 63 417 129 16 34 16 37-2 71-29 54-164 177-277 251-56 38-104 74-106 80-8 28 42 35 174 24 380-31 823-73 924-86 174-24 206-37 236-100 13-28 68-100 168-219 21-25 44-63 51-83 28-87 125-102 643-103h332v180h-36c-35 0-506-42-659-59l-80-9-48 51c-71 75-135 169-153 221-11 32-34 62-79 104-75 71-156 112-240 122-34 4-75 14-91 23-39 20-203 44-394 57-616 42-1565 145-1654 179-24 10-27 15-21 38 18 72 204 292 480 568 231 232 417 394 495 433l55 27h250c138 0 381-7 540-15 160-8 426-14 592-15 263 0 304 2 318 16 25 25 43 108 70 330 14 112 33 248 42 303 16 94 18 99 48 112 56 23 242 53 404 66l161 12v179l-192-6c-163-5-208-9-287-31-107-28-206-74-249-114-42-40-52-83-62-281-11-202-21-261-63-353l-30-68h-341c-358 0-585 10-776 35-197 26-284 21-472-26l-163-40-270-268c-639-632-784-767-887-821-47-25-68-31-97-27-20 3-81 12-136 21-55 8-197 24-315 36-484 46-512 50-604 81-73 25-207 44-451 64-403 33-454 46-377 97 94 62 137 86 353 198 239 124 389 215 389 236 0 23-50 52-133 80-45 15-109 40-143 55-78 37-157 57-429 109-135 25-248 53-293 71-79 31-172 51-467 99-222 36-316 56-340 74-25 18-12 46 19 46 14 0 112 29 218 65s258 84 338 106c173 48 860 276 944 313 73 32 151 91 177 132 35 57 27 75-72 172l-91 89 138 71c77 38 166 77 199 87 33 9 150 56 260 105 110 48 247 106 306 129 58 22 125 54 150 69 59 38 185 86 279 106 106 24 123 29 127 43 9 25-78 35-271 31-187-3-192-4-226-29-41-30-68-41-265-112-151-55-345-136-681-285-236-105-253-109-309-82-24 12-70 24-102 27-38 4-88 20-148 48-49 23-124 57-165 75s-141 63-222 101c-80 38-170 74-200 79-62 12-202 77-269 125s-104 55-279 55l-155-1 57-54zm4049-4125c68-16 144-36 169-45 92-34 175-55 283-70 166-25 209-56 105-76-61-12-619-11-703 1-74 11-115 31-115 56 0 45 87 164 120 164 10 0 73-13 141-30zM10191 10279c1-151 4-395 8-544l6-270 250-16c138-9 345-21 460-28 116-6 228-14 251-17l41-5 7 86c10 116 30 178 72 220 47 48 93 49 127 3 33-44 79-138 107-218 13-36 29-72 36-80 24-25 39 4 37 68-3 99 6 140 39 177 27 31 36 35 79 35 39 0 55-5 82-30 43-38 83-125 97-215 6-38 18-78 27-87 24-27 79-33 120-14l34 16-21 35c-26 42-36 125-25 219l7 66h72c105 0 133-12 147-63 6-23 24-81 40-128 16-48 29-93 29-100 0-8 5-31 11-51 11-42 38-61 104-73 22-3 71-18 109-31 110-38 189-29 202 22 11 45-13 118-96 293-44 92-100 226-124 297-44 127-135 315-185 382s-206 118-404 132c-102 8-140 14-180 34-32 14-82 27-127 31-44 4-96 17-125 30-93 44-246 59-735 75-168 5-367 12-442 16l-138 6 1-273zm252 180c31-24 51-88 42-135-9-50-46-74-115-74-127 0-155 95-56 194 43 42 88 48 129 15zm47-374c15-14 36-41 45-60 18-32 18-33-4-61-79-103-178-111-217-18-25 59-18 102 21 141 33 33 39 35 81 30 31-3 54-13 74-32zm31-334c111-70 119-150 19-201-55-28-78-25-116 15-63 67-68 160-11 196 42 25 55 24 108-10zM9735 10513c-22-8-92-18-156-23-121-10-144-15-169-36s-122-42-327-69c-133-17-226-36-300-59-59-18-122-37-139-40-45-10-68-41-93-125-12-40-71-171-132-290-62-125-113-239-118-267-10-53-44-146-65-179-23-36-66-153-66-179 0-18 6-27 23-31 12-3 99 8 192 24 559 99 741 122 1120 146 132 8 254 15 271 15h30l11 133c7 81 19 154 32 188 16 43 22 93 27 215 7 167-9 492-27 557-9 33-13 37-42 36-18-1-50-8-72-16zm-28-146c55-59 59-102 12-141-25-22-41-26-90-26-80 0-96 10-105 65-8 59 2 111 28 137 17 17 29 19 66 15 39-4 53-13 89-50zm-35-328c19-10 20-17 14-92-8-97-24-127-67-127-100 0-203 154-143 214 19 19 163 23 196 5zm-14-350c77-76 36-198-72-216-32-5-40-1-101 57-36 35-65 66-65 70 0 11 97 104 117 111 44 18 89 10 121-22z"
  />
  <path
    d="M10386 9185c-67-19-250-33-576-46-151-5-275-11-276-12s-7-63-13-137-18-178-27-230c-29-181-29-192 0-227 33-40 65-50 194-63 77-7 125-19 195-46 50-20 152-56 226-80 246-81 329-139 403-280 94-180 141-391 173-776l7-76 136-6c75-4 163-9 194-12l56-5 121 135c67 74 178 209 247 300 219 289 423 473 639 576 232 111 351 129 995 150 184 6 372 13 417 16 96 7 93 1 93 147 0 151-26 191-133 206-29 4-70 17-90 30-25 15-62 25-124 31-62 7-95 15-115 30-19 14-53 24-102 29-48 6-88 17-117 34-24 13-68 27-97 30-29 4-68 15-85 25-41 24-99 36-337 67-107 14-233 35-280 46-47 12-103 25-125 30s-263 24-535 44c-503 36-773 59-890 75-83 12-114 11-174-5zm-5-235h39v-217l-66-6c-90-7-128 6-188 64l-51 48 46 46c50 51 109 78 153 70 16-3 46-5 67-5zm1057-67c18-10 45-38 62-62l29-45-21-29c-30-42-105-87-145-87-47 0-98 24-119 54-21 34-22 97 0 127 38 55 132 75 194 42zm956-94c124-46 143-157 38-217-77-43-158-24-178 43-24 77-18 103 30 151 24 24 46 44 49 44 4 0 31-9 61-21zm786-89c39-28 56-81 41-131-22-73-109-116-171-84-38 20-56 48-70 109-14 62 1 103 44 122 41 19 118 11 156-16zM8895 9071c-11-4-37-15-57-24-21-9-123-28-235-42-261-34-357-51-405-76-22-11-66-25-97-30s-84-20-117-33-143-47-245-75c-308-83-347-103-375-194-21-70-31-256-14-286 21-40 92-63 224-72 157-12 221-23 332-60 126-41 245-121 361-242l90-95 6-234c6-243 18-332 56-406 25-50 34-55 112-76 36-10 116-41 176-71l111-53 137 138 137 137-4 129c-3 99-8 137-21 162-29 53-40 379-34 978l5 522-45 6c-53 7-71 7-98-3zm-530-321c14-13 32-42 41-66 34-90-9-153-111-162-102-8-175 41-175 119 0 31 8 47 36 79 20 22 50 44 68 50 49 15 114 5 141-20zm-673-193c61-55 72-153 22-176-34-15-118-14-158 3-62 26-59 86 8 159 52 57 78 60 128 14z"
  />
  <path
    d="M9533 8275c-32-14-38-23-33-55 5-42 97-85 224-105 158-25 255-66 381-160 179-133 246-249 265-455 5-58 14-119 20-135 15-39 49-75 71-75 25 0 33 78 27 271-5 136-8 163-26 193-12 20-24 63-27 98-13 122-36 166-120 222-131 87-275 142-407 156-61 6-101 16-135 34-40 22-61 26-128 26-46-1-94-7-112-15zM12720 8159c-63-5-137-16-165-25-27-9-90-20-140-24-95-9-120-15-145-36-9-8-46-20-82-27-82-18-129-41-227-116-93-72-190-172-262-271-29-41-101-138-159-215s-114-159-125-183c-15-35-35-54-99-97-104-69-255-142-311-151-53-7-78-32-73-71 3-27 5-28 70-31 83-4 216 26 305 69 86 41 257 212 378 378 252 345 319 423 411 469 71 36 396 132 484 144 99 12 469 5 785-16 160-11 212-12 217-3 9 15 10 129 2 152-11 28-58 44-164 54-117 12-529 12-700 0zM7510 8045c-91-7-166-13-167-14-10-4 0-111 10-125 13-17 21-18 98-7 46 6 144 16 216 22l133 11 86-53c221-138 277-240 293-538 12-197 49-294 147-380 80-70 214-95 214-41 0 21-33 46-102 79-109 52-137 134-178 521-29 275-37 298-126 387-87 88-163 127-277 142-92 13-127 12-347-4z"
  />
  <path
    d="M9551 7971c-23-15-30-119-30-446l-1-300 53-26c65-32 123-114 161-228 32-97 33-139 5-194-47-92-170-226-261-283-48-31-156-57-238-58-80 0-141 30-238 118-36 32-80 65-99 73s-121 25-227 39c-202 25-291 48-360 91-22 15-92 76-153 136l-113 110v553l-27 26c-61 57-125 98-152 98-16 0-46 12-67 27-36 25-48 27-164 30-157 5-218-9-240-52-20-42-25-475-10-923 14-424 20-490 44-508 28-20 109-34 242-41l122-6 6-54c15-127-26-163-208-183-83-9-136-28-136-50 0-17 31-40 68-49 29-8 228-31 264-31 4 0 8-47 8-104v-104l-27-6c-16-3-92-10-170-17l-143-12v-145l123-4c122-4 147-10 201-52 24-19 32-101 14-136-26-49-70-68-179-76-136-9-148-19-162-134-6-54-7-185-2-361l7-277 46-6c86-12 248-7 293 9 24 9 96 43 161 76s151 68 192 79c40 10 90 28 111 39 52 28 106 37 340 61 178 18 797 70 1026 87l87 6 5 296c6 388 21 459 132 624 165 247 277 292 725 291 323-1 406-18 542-110 43-30 89-54 102-54 51 0 94 57 131 170 45 137 151 318 267 454 70 83 447 310 554 334 23 5 62 24 88 41 70 48 131 72 209 82 42 5 84 18 106 31 35 22 43 23 301 23 146 0 351-4 457-8 179-7 192-7 197 10 17 54 38 309 43 529l6 250-79 17c-133 28-209 36-476 49-424 20-565 2-794-102-127-57-256-166-269-227-16-70-20-75-249-358-136-168-148-178-396-303-149-75-173-84-249-93-103-12-143-31-255-120-109-85-164-114-236-124-30-4-74-16-96-27-36-17-47-19-76-9-59 19-180 110-297 223l-111 106v129l1 128 124 135 124 135v161l1 161-58 56c-88 83-189 144-390 235-175 79-220 92-251 73zm-255-2735c30-30 34-41 34-84 0-57-21-89-82-129l-40-25-40 39c-45 44-63 73-72 123-12 69 31 110 118 110 41 0 53-5 82-34zm-892-137c14-11 39-40 55-63l30-43-48-47c-83-82-152-79-229 9-39 44-39 55-5 96 59 69 143 90 197 48zm-613-174c40-21 69-71 69-120 0-54-20-80-74-95-59-16-110 0-137 44-31 51-21 143 18 174 23 17 88 15 124-3z"
  />
  <path
    d="M9219 7852c-16-54 4-178 33-209 26-27 41-29 63-6 14 13 16 32 13 93-2 63-8 84-31 118-36 55-62 56-78 4zM9245 7071c-75-19-121-59-154-131-50-109-1-229 119-290 14-8 50-13 81-13 75 0 141 33 183 93 29 41 31 51 31 127 0 75-2 84-31 125-51 69-152 109-229 89zM10370 7044c-116-50-162-192-98-305 41-74 145-120 224-100 100 25 161 92 171 186 10 91-35 173-118 216-46 23-129 25-179 3zM8641 6882c-40-12-36-30 11-43 49-13 144-7 178 11 22 12 22 13 4 23-23 13-159 19-193 9zM12680 6741c-152-33-370-97-388-116-2-2 4-17 13-34 14-27 21-31 59-31 24 0 97 17 162 38l119 37 280-1c154-1 342-6 417-13 149-13 178-10 178 19 0 30-36 47-145 69-245 50-546 63-695 32zM11974 6467c-152-58-259-177-389-438-51-100-71-198-45-214 17-11 50 29 50 61 0 50 347 430 451 492 41 25 62 59 57 93-4 33-46 35-124 6z"
  />
  <path
    d="M12835 6450c-229-26-565-145-743-264-112-74-237-216-337-382-49-82-47-117 15-261 28-63 53-135 57-159 16-120-119-319-267-394-160-81-330-57-507 70-105 76-121 104-133 227-6 60-14 92-31 115-48 70-87 82-169 53-24-8-80-19-126-25-100-11-128-24-186-89-69-77-93-151-92-286 0-117 14-168 68-253l24-39 314-7c1085-24 1826-81 1973-151 28-13 70-29 95-35 51-13 162-71 261-137l65-43 168 9c92 5 169 11 171 13 2 3 29 1697 30 1897v74l-65 18c-170 48-413 68-585 49zm-527-1291c31-15 48-32 58-55 13-32 13-37-10-71-13-21-40-53-59-72l-35-33-45 41c-72 67-99 151-60 193 23 25 95 24 151-3zm741-135c89-80 74-191-33-249l-36-19-50 49c-52 51-68 93-55 136 11 33 95 119 116 119 11 0 37-16 58-36z"
  />
  <path
    d="M10400 5799c-113-16-244-75-315-140-23-22-66-75-94-117l-51-78 10-325c5-178 10-334 10-346 0-22 4-23 69-23 39 0 73 4 76 10 3 5 10 107 15 227 12 264 18 302 66 423 45 111 91 167 167 201 49 23 63 24 247 23 143 0 219-5 283-17 49-10 97-15 108-12 32 10 24 53-19 95-31 31-50 40-112 54-140 30-348 42-460 25zM11243 5558l-83-42v-295l92-50 92-50 69 37c121 65 189 166 174 258-8 50-51 118-94 151-29 23-48 28-102 30-61 3-73-1-148-39zM9653 4489c-35-4-206-17-380-29-542-35-791-64-961-110-116-32-162-62-162-105 0-32 21-37 135-29 80 5 107 3 138-10 43-17 117-73 117-87 0-5-16-34-35-64-20-31-33-60-30-65 8-13 217-186 372-308 324-254 405-377 339-515-14-31-26-62-26-70 0-39 110-47 332-22 233 25 500 35 983 35 486 0 739-10 955-35 237-28 290-18 290 52 0 51-48 95-132 121-93 29-215 41-651 62l-381 18-83-74-83-74-70 46-70 47v141c1 158 11 220 43 254 69 74 154 68 202-14 30-51-13-45 495-74 410-24 585-42 667-71 75-25 97-24 170 10 81 39 162 94 260 178 43 38 108 85 144 106s92 62 124 91l59 52-18 108c-10 59-15 113-13 120 7 19 92 46 143 46 23 0 58-7 77-15 67-28 134-15 164 32 14 20 13 24-9 46-13 13-55 34-94 46-38 12-78 28-90 36-81 52-683 99-1634 125-404 12-1198 11-1287-1zm-685-143c49-53 64-100 50-155-23-91-97-118-163-60-89 78-85 152 13 224 26 19 50 35 53 35 4 0 25-20 47-44zm623 21c31-21 34-28 37-79s0-60-28-92c-60-68-143-59-224 23l-49 50 27 32c75 89 165 114 237 66zm658 12c40-14 51-35 51-96 0-54-23-84-89-118l-33-17-44 43c-51 50-66 83-62 135 2 29 9 42 28 51 31 16 107 17 149 2zm1294 0c31-16 107-91 107-106 0-21-57-79-103-103-58-31-86-23-155 44l-56 54 28 33c64 79 126 105 179 78zm-520-88c-3-93-17-127-59-137-32-8-62 5-113 51-52 47-69 96-46 131 23 36 49 43 140 41l80-2-2-84zm1085 65c42-22 75-74 80-126 3-38 0-51-21-75-14-17-41-38-60-49l-36-19-89 64c-69 49-88 67-81 79 5 8 35 43 67 78 64 67 88 75 140 48zM9325 2799c-167-8-231-16-259-31-10-6-53-15-95-20-41-5-91-18-111-29-19-11-80-37-134-57-90-34-130-61-114-77 3-3 34-11 69-16 70-12 517-4 604 11 28 4 79 13 115 19 71 11 333 26 637 37 165 6 193 9 197 23 2 9 7 46 11 84l7 67-389-2c-213 0-455-5-538-9zM10446 2767c-22-58-20-84 7-102 46-30 120-35 937-65 157-6 395-15 530-21 274-11 330-8 330 21 0 27-37 52-143 99-110 48-183 66-332 81-97 9-860 29-1191 30h-121l-17-43zM9990 2379c-19-5-64-15-100-23s-191-21-345-30c-543-32-792-57-842-84-16-9-11-13 32-32 105-45 169-61 282-69 93-7 121-13 144-30 69-51 267-70 774-73l360-3 3 122c4 162-6 186-80 207-66 18-182 26-228 15zM10521 2371c-65-17-75-38-79-161-3-61-1-127 3-147l7-36 376 6c515 9 610 18 956 82 360 68 489 105 461 133-4 4-57 10-118 14-62 3-132 13-156 22-58 21-291 43-596 56-137 6-322 15-410 20-279 16-409 19-444 11z"
  />
</svg>