<svg xmlns="http://www.w3.org/2000/svg" id="root" viewBox="0 0 99 71">
  <path
    d="M 60.285156 70.898438 L 59.3125 70.632812 L 59.488281 64.9375 C 59.578125 61.824219 59.8125 49.105469 60.046875 36.738281 C 60.285156 24.34375 60.546875 14.175781 60.605469 14.085938 C 60.695312 14.027344 61.226562 14.054688 61.8125 14.144531 C 62.726562 14.320312 62.84375 14.441406 62.84375 15.300781 C 62.84375 15.835938 62.578125 26.65625 62.253906 39.378906 C 61.933594 52.101562 61.667969 64.167969 61.636719 66.214844 C 61.550781 71.019531 61.492188 71.226562 60.285156 70.898438 Z M 62.695312 65.859375 C 62.785156 63.367188 63.136719 50.734375 63.433594 37.777344 C 63.757812 24.820312 64.050781 14.203125 64.082031 14.175781 C 64.167969 14.085938 73.144531 11.121094 74.441406 10.734375 L 75.292969 10.496094 L 75.089844 13.789062 C 74.972656 15.625 74.851562 17.140625 74.824219 17.199219 C 74.765625 17.226562 73.617188 17.140625 72.261719 17.019531 C 69.261719 16.695312 68.613281 16.960938 67.113281 19.007812 C 64.933594 22.0625 63.84375 26.835938 64.109375 32.558594 C 64.285156 36.292969 64.847656 38.578125 65.847656 39.703125 C 66.375 40.296875 68.320312 40.800781 72.5 41.453125 L 73.734375 41.660156 L 73.734375 47.621094 L 72.5 47.414062 C 68.703125 46.792969 68.820312 46.792969 67.847656 47.828125 C 65.730469 50.144531 65.464844 56.25 67.464844 56.84375 C 67.757812 56.933594 69.144531 57.199219 70.554688 57.496094 L 73.117188 58 L 72.941406 59.363281 C 72.851562 60.105469 72.703125 60.789062 72.644531 60.847656 C 72.585938 60.9375 71.175781 60.667969 69.527344 60.285156 C 64.699219 59.15625 64.785156 59.15625 63.992188 60.460938 C 63.226562 61.707031 63.050781 64.316406 63.699219 64.703125 C 63.902344 64.851562 64.785156 65.117188 65.667969 65.296875 C 66.554688 65.503906 67.257812 65.738281 67.257812 65.859375 C 67.257812 65.976562 66.199219 67.042969 64.90625 68.230469 L 62.550781 70.425781 Z M 46.214844 66.304688 C 40.238281 64.761719 35.265625 63.457031 35.207031 63.398438 C 35.117188 63.277344 34.648438 44.921875 34.117188 21.171875 L 33.910156 11.269531 L 35.648438 11.445312 C 36.589844 11.535156 42.210938 12.039062 48.128906 12.574219 C 54.042969 13.105469 58.960938 13.609375 59.078125 13.699219 C 59.195312 13.789062 59.105469 25.085938 58.871094 38.785156 C 58.636719 52.484375 58.429688 64.9375 58.429688 66.453125 C 58.429688 69.089844 58.398438 69.179688 57.78125 69.148438 C 57.398438 69.121094 52.21875 67.84375 46.214844 66.304688 Z M 51.246094 61.738281 C 54.574219 59.632812 55.632812 57.675781 55.425781 54.117188 C 55.28125 51.65625 54.601562 50.171875 52.777344 48.332031 C 49.453125 44.984375 45.417969 44.863281 41.945312 48.039062 C 38.445312 51.179688 38.796875 56.546875 42.710938 60.285156 C 44.683594 62.152344 45.742188 62.625 48.011719 62.65625 C 49.480469 62.65625 50.011719 62.507812 51.246094 61.738281 Z M 56.074219 36.738281 C 56.074219 35.019531 55.988281 33.566406 55.839844 33.476562 C 55.425781 33.210938 39.003906 30.898438 38.238281 30.988281 C 37.03125 31.136719 36.207031 32.46875 36.238281 34.21875 C 36.238281 35.078125 36.414062 35.878906 36.679688 36.117188 C 37.03125 36.472656 53.457031 39.703125 55.425781 39.792969 C 56.046875 39.824219 56.074219 39.765625 56.074219 36.738281 Z M 56.015625 29.265625 L 56.105469 26.273438 L 54.984375 26.09375 C 54.367188 26.003906 50.1875 25.414062 45.714844 24.820312 L 37.5625 23.691406 L 36.824219 24.375 C 35.414062 25.707031 35.117188 28.527344 36.265625 29.476562 C 36.765625 29.917969 53.101562 32.378906 54.898438 32.320312 L 55.925781 32.261719 Z M 56.222656 22.003906 C 56.339844 20.339844 56.308594 18.890625 56.164062 18.742188 C 56.046875 18.621094 51.777344 18.148438 46.714844 17.703125 C 36.765625 16.84375 36.472656 16.84375 35.796875 18.382812 C 35.292969 19.511719 35.382812 21.644531 36 22.269531 C 36.414062 22.683594 38.0625 23.011719 43.417969 23.75 C 47.214844 24.285156 50.660156 24.761719 51.070312 24.820312 C 51.484375 24.878906 52.75 24.9375 53.898438 24.96875 L 55.988281 24.996094 Z M 56.222656 22.003906 "
  />
  <path
    d="M 46.332031 61.351562 C 42.0625 60.195312 39.472656 54.5625 41.300781 50.46875 C 42.242188 48.363281 43.152344 47.679688 45.125 47.710938 C 49.070312 47.742188 52.511719 51.152344 53.042969 55.507812 C 53.515625 59.632812 50.304688 62.449219 46.332031 61.351562 Z M 46.332031 61.351562 "
  />
  <path
    d="M 54.074219 55.777344 C 53.957031 52.542969 51.746094 49.105469 48.863281 47.5625 C 47.363281 46.761719 48.128906 46.761719 49.777344 47.53125 C 52.601562 48.925781 54.457031 52.246094 54.21875 55.570312 L 54.132812 57.171875 Z M 45.683594 36.886719 C 39.210938 35.761719 37.707031 35.433594 37.472656 34.988281 C 37.148438 34.367188 37.382812 32.527344 37.824219 32.261719 C 38.003906 32.144531 41.828125 32.648438 46.363281 33.328125 L 54.601562 34.574219 L 54.601562 36.472656 C 54.601562 38.074219 54.515625 38.339844 54.101562 38.3125 C 53.808594 38.28125 50.011719 37.660156 45.683594 36.886719 Z M 45.566406 29.949219 L 37.238281 28.761719 L 37.238281 27.339844 C 37.238281 25.796875 37.765625 24.96875 38.621094 25.175781 C 38.914062 25.234375 42.386719 25.679688 46.363281 26.183594 C 50.335938 26.6875 53.835938 27.160156 54.160156 27.222656 C 54.691406 27.339844 54.75 27.546875 54.660156 29.296875 C 54.574219 30.542969 54.425781 31.222656 54.21875 31.195312 C 54.015625 31.164062 50.128906 30.601562 45.566406 29.949219 Z M 48.863281 23.21875 C 46.773438 22.921875 43.300781 22.445312 41.152344 22.152344 C 37.296875 21.644531 37.265625 21.644531 36.972656 20.785156 C 36.738281 20.132812 36.765625 19.660156 37.0625 18.949219 L 37.445312 18 L 45.949219 18.949219 C 50.628906 19.480469 54.484375 19.925781 54.542969 19.925781 C 54.574219 19.957031 54.601562 20.816406 54.601562 21.882812 L 54.601562 23.8125 L 53.660156 23.78125 C 53.132812 23.75 50.984375 23.484375 48.863281 23.21875 Z M 45.183594 67.546875 C 42.269531 66.957031 35.382812 65.148438 32.085938 64.140625 C 30.46875 63.632812 26.230469 62.476562 22.667969 61.589844 C 15.664062 59.78125 11.660156 58.683594 10.363281 58.179688 C 9.6875 57.882812 9.570312 57.675781 9.570312 56.726562 L 9.570312 55.628906 L 18.488281 57.910156 C 23.375 59.1875 28.847656 60.609375 30.613281 61.054688 L 33.851562 61.914062 L 34 63.101562 L 34.148438 64.285156 L 40.621094 65.949219 C 44.183594 66.867188 47.304688 67.667969 47.539062 67.785156 C 48.304688 68.082031 47.304688 67.992188 45.183594 67.546875 Z M 75.058594 66.183594 C 74.824219 65.53125 75.441406 63.25 75.855469 63.25 C 76.207031 63.25 75.972656 65.382812 75.5 66.183594 C 75.265625 66.628906 75.234375 66.628906 75.058594 66.183594 Z M 68.90625 65.085938 L 64.550781 64.019531 L 64.667969 62.597656 C 64.757812 61.796875 64.90625 61.085938 64.964844 60.996094 C 65.050781 60.90625 67.257812 61.292969 69.878906 61.824219 C 73.824219 62.625 74.589844 62.863281 74.441406 63.25 C 74.324219 63.484375 74.175781 64.257812 74.085938 64.96875 C 74.027344 65.652344 73.824219 66.214844 73.617188 66.183594 C 73.441406 66.183594 71.320312 65.679688 68.90625 65.085938 Z M 26.789062 58.859375 L 20.3125 57.199219 L 22.019531 56.992188 C 23.140625 56.875 24.199219 56.519531 25.109375 55.925781 C 26.316406 55.152344 26.496094 54.945312 26.40625 54.144531 L 26.316406 53.226562 L 29.9375 54.117188 C 31.910156 54.589844 33.558594 55.003906 33.585938 55.035156 C 33.617188 55.066406 33.707031 56.339844 33.765625 57.851562 C 33.882812 59.78125 33.824219 60.582031 33.585938 60.550781 C 33.410156 60.550781 30.351562 59.78125 26.789062 58.859375 Z M 75.207031 55.480469 C 75.234375 52.070312 77.207031 47.890625 77.503906 50.617188 C 77.648438 51.804688 77.058594 55.066406 76.472656 56.28125 C 75.675781 57.941406 75.207031 57.613281 75.207031 55.480469 Z M 70.820312 56.25 C 69.320312 55.867188 67.996094 55.480469 67.878906 55.390625 C 67.789062 55.273438 67.699219 54.234375 67.699219 53.078125 C 67.699219 51.386719 67.847656 50.675781 68.40625 49.699219 C 68.789062 49.015625 69.320312 48.363281 69.554688 48.273438 C 69.910156 48.15625 74.085938 48.777344 75.414062 49.164062 C 75.648438 49.253906 75.589844 49.636719 75.175781 50.46875 C 74.410156 52.101562 73.941406 54.5 74.117188 55.867188 C 74.292969 57.199219 74.5 57.199219 70.820312 56.25 Z M 70.820312 56.25 "
  />
  <path
    d="M 15.929688 55.09375 C 14.015625 54.53125 12.25 53.910156 12.042969 53.730469 C 11.601562 53.375 11.425781 49.90625 11.867188 49.90625 C 11.984375 49.90625 13.074219 50.171875 14.28125 50.527344 C 17.28125 51.328125 21.667969 51.566406 23.460938 51.003906 L 24.816406 50.585938 L 24.992188 51.476562 C 25.082031 51.953125 25.167969 52.8125 25.167969 53.34375 C 25.167969 54.292969 25.050781 54.414062 23.492188 55.125 C 20.992188 56.25 19.929688 56.25 15.929688 55.09375 Z M 10.1875 54.679688 C 9.21875 54.414062 9.097656 53.910156 9.921875 53.34375 C 10.570312 52.871094 10.601562 52.871094 10.804688 53.820312 C 10.894531 54.351562 10.984375 54.796875 10.953125 54.828125 C 10.925781 54.828125 10.570312 54.769531 10.1875 54.679688 Z M 18.105469 50.023438 C 12.394531 49.371094 9.539062 48.15625 10.011719 46.613281 C 10.128906 46.257812 10.304688 46.109375 10.421875 46.257812 C 11.160156 47.355469 18.664062 48.808594 21.667969 48.453125 C 23.757812 48.1875 25.257812 47.53125 25.730469 46.734375 C 26.140625 46.019531 26.613281 46.671875 26.40625 47.679688 C 26.140625 49.105469 24.582031 49.816406 21.253906 50.023438 C 20.078125 50.082031 18.664062 50.082031 18.105469 50.023438 Z M 18.105469 50.023438 "
  />
  <path
    d="M 16.339844 46.671875 C 11.1875 45.664062 11.511719 45.84375 11.308594 43.796875 C 11.21875 42.847656 11.160156 42.019531 11.1875 41.957031 C 11.21875 41.929688 12.425781 42.167969 13.839844 42.523438 C 15.957031 43.027344 17.074219 43.113281 19.84375 42.996094 C 21.726562 42.90625 23.609375 42.757812 24.082031 42.640625 L 24.875 42.433594 L 24.875 45.992188 L 23.640625 46.496094 C 21.8125 47.238281 19.519531 47.296875 16.339844 46.671875 Z M 82.800781 44.777344 C 80.210938 42.640625 79.796875 35.761719 81.742188 27.222656 C 82.535156 23.632812 84.507812 18.652344 85.566406 17.40625 C 87.066406 15.6875 88.449219 16.28125 89.039062 18.917969 L 89.273438 19.957031 L 85.507812 19.957031 L 84.507812 21.527344 C 82.445312 24.789062 81.269531 30.660156 81.445312 36.859375 C 81.5625 41.007812 81.652344 41.1875 84.566406 42.046875 C 85.566406 42.34375 86.390625 42.671875 86.390625 42.789062 C 86.390625 43.144531 84.273438 45.457031 83.949219 45.457031 C 83.742188 45.457031 83.242188 45.160156 82.800781 44.777344 Z M 82.800781 44.777344 "
  />
  <path
    d="M 78.648438 43.617188 C 77.796875 42.9375 77.503906 41.542969 77.355469 37.453125 C 77.058594 29.148438 79.0625 19.867188 81.742188 17.078125 C 82.476562 16.308594 82.917969 16.101562 83.800781 16.101562 L 84.917969 16.101562 L 84.035156 17.375 C 83.535156 18.058594 82.683594 19.898438 82.152344 21.46875 C 79.296875 29.476562 78.53125 39.140625 80.355469 43.472656 C 80.535156 43.855469 80.414062 43.976562 79.855469 43.976562 C 79.472656 43.976562 78.914062 43.796875 78.648438 43.617188 Z M 16.488281 42.019531 C 16.164062 41.957031 14.664062 41.601562 13.160156 41.277344 C 10.246094 40.625 9.570312 40.210938 9.570312 39.050781 C 9.570312 38.398438 9.660156 38.339844 10.246094 38.519531 C 17.015625 40.714844 21.3125 40.890625 24.699219 39.171875 C 25.609375 38.695312 25.875 38.667969 26.082031 38.992188 C 26.230469 39.199219 26.347656 39.496094 26.347656 39.617188 C 26.347656 40.121094 24.875 41.277344 23.816406 41.601562 C 22.609375 41.957031 17.488281 42.253906 16.488281 42.019531 Z M 86.390625 40.238281 C 85.890625 38.785156 86.15625 32.171875 86.832031 29 C 87.773438 24.464844 89.097656 21.4375 90.097656 21.4375 C 90.746094 21.4375 91.363281 23.246094 91.601562 25.769531 L 91.777344 28.023438 L 90.335938 27.84375 C 88.953125 27.636719 88.863281 27.664062 88.390625 28.496094 C 87.246094 30.421875 87.066406 33.953125 88.070312 34.960938 C 88.304688 35.199219 88.894531 35.375 89.394531 35.375 C 90.277344 35.375 90.304688 35.375 90.097656 36.652344 C 90.011719 37.332031 89.539062 38.636719 89.097656 39.527344 C 88.449219 40.800781 88.128906 41.1875 87.507812 41.246094 C 86.863281 41.335938 86.683594 41.1875 86.390625 40.238281 Z M 86.390625 40.238281 "
  />
  <path
    d="M 84.035156 40.625 C 82.683594 40.148438 82.476562 39.082031 82.683594 33.746094 C 82.886719 27.726562 84.035156 23.21875 85.773438 21.46875 C 86.421875 20.816406 88.449219 20.578125 88.449219 21.171875 C 88.449219 21.351562 88.070312 22.328125 87.597656 23.367188 C 86.273438 26.242188 85.890625 27.578125 85.390625 30.988281 C 84.859375 34.425781 84.800781 38.164062 85.183594 39.914062 C 85.476562 41.128906 85.476562 41.128906 84.035156 40.625 Z M 71.554688 39.554688 L 66.847656 38.785156 L 66.40625 37.746094 C 65.730469 36.148438 65.609375 29.03125 66.199219 25.886719 C 66.699219 23.097656 68.347656 19.421875 69.4375 18.5625 C 70.085938 18.027344 70.351562 18.027344 74.648438 18.414062 C 77.148438 18.652344 79.238281 18.890625 79.269531 18.917969 C 79.328125 18.976562 79.03125 19.984375 78.648438 21.203125 C 76.972656 26.09375 75.882812 33.832031 76.238281 38.132812 C 76.355469 39.378906 76.382812 40.386719 76.355469 40.386719 C 76.296875 40.355469 74.117188 40 71.554688 39.554688 Z M 14.898438 38.785156 C 13.839844 38.519531 12.511719 38.105469 11.953125 37.808594 C 10.953125 37.332031 10.894531 37.214844 10.804688 35.582031 C 10.71875 34.011719 10.777344 33.863281 11.246094 34.011719 C 14.25 34.929688 20.34375 35.347656 22.785156 34.753906 C 23.492188 34.605469 24.140625 34.546875 24.226562 34.605469 C 24.285156 34.695312 24.375 35.523438 24.40625 36.441406 L 24.433594 38.132812 L 23.257812 38.546875 C 21.550781 39.171875 17.164062 39.289062 14.898438 38.785156 Z M 95.515625 35.167969 C 90.804688 34.457031 89.15625 34.101562 88.980469 33.804688 C 88.628906 33.269531 88.714844 30.839844 89.070312 29.769531 C 89.363281 28.941406 89.511719 28.824219 90.1875 28.941406 C 90.601562 29.03125 92.511719 29.265625 94.425781 29.476562 C 97.25 29.769531 97.871094 29.917969 97.722656 30.273438 C 97.25 31.519531 96.929688 33.417969 97.046875 34.335938 C 97.164062 35.433594 97.164062 35.433594 95.515625 35.167969 Z M 98.515625 33.449219 C 98.515625 32.320312 98.605469 31.105469 98.753906 30.78125 C 99.078125 30.007812 99.078125 33.746094 98.753906 34.78125 C 98.578125 35.316406 98.515625 34.929688 98.515625 33.449219 Z M 15.015625 33.449219 C 10.484375 32.527344 9.335938 32.085938 9.1875 31.3125 C 9.070312 30.691406 9.128906 30.632812 9.835938 30.78125 C 10.246094 30.867188 12.574219 31.253906 14.984375 31.667969 C 19.8125 32.5 20.929688 32.441406 23.933594 31.253906 C 25.875 30.484375 25.816406 30.484375 25.699219 31.460938 C 25.640625 32.085938 25.316406 32.410156 24.140625 33.003906 C 22.933594 33.597656 22.167969 33.746094 19.871094 33.804688 C 18.3125 33.832031 16.164062 33.683594 15.015625 33.449219 Z M 31.496094 33.03125 C 30.671875 32.855469 30.585938 32.648438 29.230469 28.4375 C 27.820312 23.988281 27.789062 23.542969 28.90625 23.515625 C 29.085938 23.515625 29.789062 25.175781 30.46875 27.191406 C 31.558594 30.542969 31.761719 30.898438 32.558594 31.195312 C 33.234375 31.433594 33.410156 31.667969 33.410156 32.378906 C 33.410156 33.359375 33.234375 33.417969 31.496094 33.03125 Z M 31.496094 33.03125 "
  />
  <path
    d="M 14.425781 30.273438 C 12.335938 29.980469 10.484375 29.59375 10.335938 29.445312 C 10.128906 29.238281 10.011719 24.730469 10.21875 24.550781 C 10.277344 24.523438 11.511719 24.671875 12.953125 24.910156 C 15.105469 25.234375 16.371094 25.265625 19.664062 24.996094 C 21.933594 24.820312 23.84375 24.761719 23.933594 24.847656 C 24.050781 24.96875 24.140625 26.125 24.140625 27.429688 L 24.140625 29.832031 L 22.226562 30.363281 C 19.929688 31.046875 19.34375 31.015625 14.425781 30.273438 Z M 32.382812 29.683594 C 31.320312 26.835938 30.230469 23.039062 30.378906 22.890625 C 30.527344 22.773438 31.027344 22.59375 31.527344 22.507812 C 32.410156 22.296875 32.46875 22.359375 32.617188 23.277344 C 32.703125 23.8125 32.882812 25.203125 32.96875 26.332031 C 33.058594 27.488281 33.234375 28.761719 33.292969 29.238281 C 33.410156 29.832031 33.351562 30.039062 32.96875 30.039062 C 32.734375 30.039062 32.441406 29.859375 32.382812 29.683594 Z M 9.921875 23.308594 C 6.125 22.804688 3.007812 22.328125 2.949219 22.269531 C 2.800781 22.152344 2.300781 13.90625 2.417969 13.757812 C 2.507812 13.640625 12.160156 14.5 14.308594 14.828125 C 15.28125 14.972656 15.398438 15.09375 15.867188 16.574219 C 16.25 17.761719 16.515625 18.175781 16.929688 18.175781 C 17.546875 18.175781 29.878906 16.8125 31.734375 16.546875 L 32.824219 16.398438 L 32.824219 18.472656 C 32.824219 20.847656 33.058594 20.636719 29.144531 21.972656 C 26.023438 23.039062 21.402344 24.019531 18.695312 24.167969 C 17.574219 24.226562 13.898438 23.871094 9.921875 23.308594 Z M 9.921875 23.308594 "
  />
  <path
    d="M 17.105469 16.753906 C 17.015625 16.605469 16.8125 16.132812 16.664062 15.714844 C 16.371094 14.945312 16.398438 14.945312 17.3125 15.121094 C 17.839844 15.210938 18.460938 15.539062 18.695312 15.835938 C 18.929688 16.101562 19.460938 16.398438 19.871094 16.488281 C 20.429688 16.574219 20.371094 16.636719 19.578125 16.664062 C 19.019531 16.695312 18.253906 16.785156 17.929688 16.871094 C 17.574219 16.960938 17.222656 16.902344 17.105469 16.753906 Z M 23.992188 15.773438 C 23.109375 15.625 21.8125 15.449219 21.136719 15.359375 L 19.871094 15.183594 L 19.871094 13.492188 C 19.871094 11.832031 19.902344 11.742188 21.460938 10.199219 L 23.050781 8.597656 L 27.730469 8.957031 C 30.292969 9.132812 33.234375 9.371094 34.292969 9.488281 L 36.207031 9.695312 L 34.589844 10.023438 L 32.96875 10.320312 L 32.882812 12.722656 L 32.792969 15.09375 L 29.644531 15.480469 C 27.90625 15.6875 26.289062 15.894531 26.054688 15.921875 C 25.816406 15.984375 24.875 15.921875 23.992188 15.773438 Z M 17.605469 13.847656 C 16.929688 13.550781 18.046875 11.269531 19.371094 10.199219 L 20.609375 9.191406 L 19.519531 10.347656 C 18.578125 11.328125 18.398438 11.742188 18.398438 12.78125 C 18.398438 13.996094 18.3125 14.113281 17.605469 13.847656 Z M 17.605469 13.847656 "
  />
  <path
    d="M 12.71875 13.433594 C 11.601562 13.285156 10.660156 13.136719 10.601562 13.078125 C 10.570312 13.015625 10.421875 12.1875 10.304688 11.179688 L 10.101562 9.398438 L 12.542969 7.472656 C 13.867188 6.433594 15.574219 5.101562 16.339844 4.535156 L 17.695312 3.5 L 21.492188 3.734375 C 23.609375 3.855469 29.261719 4.210938 34.058594 4.476562 C 38.886719 4.773438 42.886719 5.070312 42.949219 5.160156 C 43.125 5.308594 42.269531 8.421875 41.976562 8.746094 C 41.859375 8.894531 37.621094 8.660156 32.558594 8.242188 C 20.488281 7.265625 21.34375 7.234375 19.253906 8.777344 C 17.78125 9.84375 17.429688 10.289062 16.839844 11.800781 C 16.074219 13.816406 16.074219 13.816406 12.71875 13.433594 Z M 0.535156 11.710938 C 0.152344 10.703125 0.00390625 9.519531 0.00390625 7.355469 C 0.00390625 4.746094 0.09375 4.179688 0.738281 2.90625 C 1.652344 1.125 2.800781 0.414062 5.007812 0.179688 L 6.625 0 L 6.625 1.039062 C 6.625 2.015625 6.597656 2.046875 5.597656 1.925781 C 2.125 1.511719 -0.4375 7.441406 1.535156 11.238281 C 2.152344 12.394531 2.152344 12.453125 1.625 12.78125 C 1.121094 13.078125 1.003906 12.957031 0.535156 11.710938 Z M 55.925781 12.363281 C 52.691406 12.007812 47.273438 11.476562 43.890625 11.179688 C 39.414062 10.792969 37.972656 10.585938 38.589844 10.40625 C 39.445312 10.140625 61.285156 11.800781 62.34375 12.1875 C 62.84375 12.394531 62.84375 12.394531 62.34375 12.691406 C 61.960938 12.929688 60.136719 12.839844 55.925781 12.363281 Z M 55.925781 12.363281 "
  />
  <path
    d="M 3.007812 11.566406 C 1.242188 8.867188 1.859375 4.417969 4.125 3.46875 C 5.890625 2.726562 6.097656 2.875 5.449219 4.328125 C 4.683594 5.988281 4.683594 8.71875 5.449219 10.378906 C 6.066406 11.773438 6.039062 11.800781 4.535156 12.070312 C 3.625 12.21875 3.390625 12.15625 3.007812 11.566406 Z M 8.15625 8.15625 C 7.953125 5.902344 7.804688 3.292969 7.804688 2.371094 C 7.804688 0.859375 7.863281 0.683594 8.480469 0.535156 C 8.863281 0.414062 16.722656 0.832031 25.964844 1.394531 C 35.207031 1.988281 42.976562 2.460938 43.242188 2.460938 C 43.507812 2.460938 43.710938 2.667969 43.710938 2.90625 C 43.710938 3.5 42.828125 3.46875 29.730469 2.757812 C 23.902344 2.429688 18.664062 2.164062 18.046875 2.164062 C 17.105469 2.164062 16.457031 2.578125 12.953125 5.484375 L 8.953125 8.808594 L 9.128906 10.527344 C 9.304688 11.921875 9.246094 12.246094 8.921875 12.246094 C 8.570312 12.246094 8.421875 11.355469 8.15625 8.15625 Z M 54.191406 10.496094 L 49.214844 10.023438 L 49.277344 6.613281 C 49.304688 4.746094 49.421875 3.113281 49.539062 2.996094 C 49.777344 2.789062 63.078125 3.5 63.316406 3.734375 C 63.402344 3.824219 63.050781 5.484375 62.519531 7.472656 L 61.578125 11.058594 L 60.371094 11.03125 C 59.695312 11 56.929688 10.765625 54.191406 10.496094 Z M 62.84375 10.734375 C 62.84375 10.347656 65.199219 1.777344 65.347656 1.632812 C 65.40625 1.570312 65.90625 1.632812 66.464844 1.71875 L 67.464844 1.925781 L 66.113281 6.40625 L 64.757812 10.914062 L 63.785156 11 C 63.199219 11.058594 62.84375 10.972656 62.84375 10.734375 Z M 67.289062 7.292969 C 68.878906 1.007812 68.554688 1.660156 70.144531 1.453125 C 70.910156 1.363281 71.675781 1.273438 71.820312 1.304688 C 71.996094 1.335938 72.410156 2.699219 72.761719 4.359375 C 73.144531 5.988281 73.5 7.648438 73.585938 8.007812 C 73.734375 8.597656 73.5 8.746094 70.878906 9.546875 C 69.289062 10.023438 67.640625 10.527344 67.199219 10.617188 L 66.433594 10.824219 Z M 43.328125 9.371094 C 43.242188 9.222656 43.710938 7.207031 44.359375 4.894531 L 45.566406 0.683594 L 46.566406 0.683594 C 47.097656 0.683594 47.539062 0.710938 47.539062 0.769531 C 47.539062 0.800781 46.980469 2.757812 46.273438 5.128906 C 45.097656 9.191406 44.976562 9.429688 44.242188 9.519531 C 43.832031 9.578125 43.417969 9.488281 43.328125 9.371094 Z M 43.328125 9.371094 "
  />
  <path
    d="M 47.332031 5.21875 C 47.949219 2.964844 48.628906 0.980469 48.835938 0.769531 C 49.011719 0.59375 49.980469 0.355469 50.953125 0.238281 C 52.511719 0.0585938 52.777344 0.117188 52.953125 0.5625 C 53.042969 0.832031 53.101562 1.097656 53.042969 1.15625 C 52.984375 1.214844 52.070312 1.394531 50.984375 1.542969 C 49.921875 1.691406 48.921875 1.898438 48.773438 1.988281 C 48.628906 2.074219 48.453125 3.617188 48.363281 5.425781 C 48.304688 7.207031 48.1875 8.746094 48.097656 8.808594 C 48.039062 8.867188 47.570312 9.015625 47.066406 9.101562 L 46.15625 9.3125 Z M 47.332031 5.21875 "
  />
</svg>
