<svg id="root" xmlns="http://www.w3.org/2000/svg" width="768" height="441" viewBox="0 0 7680 4410">
  <g>
    <path
      d="m4303 3568-33-9 6-192c3-105 11-534 19-951 8-418 17-761 19-764 3-2 21-1 41 2 31 6 35 10 35 39 0 18-9 383-20 812s-20 836-21 905c-3 162-5 169-46 158zm82-170c3-84 15-510 25-947 11-437 21-795 22-796 3-3 308-103 352-116l29-8-7 111c-4 62-8 113-9 115-2 1-41-2-87-6-102-11-124-2-175 67-74 103-111 264-102 457 6 126 25 203 59 241 18 20 84 37 226 59l42 7v201l-42-7c-129-21-125-21-158 14-72 78-81 284-13 304 10 3 57 12 105 22l87 17-6 46c-3 25-8 48-10 50-2 3-50-6-106-19-164-38-161-38-188 6-26 42-32 130-10 143 7 5 37 14 67 20 30 7 54 15 54 19s-36 40-80 80l-80 74 5-154zm-560 15c-203-52-372-96-374-98-3-4-19-623-37-1424l-7-334 59 6c32 3 223 20 424 38s368 35 372 38 1 384-7 846-15 882-15 933c0 89-1 92-22 91-13-1-189-44-393-96zm171-154c113-71 149-137 142-257-5-83-28-133-90-195-113-113-250-117-368-10-119 106-107 287 26 413 67 63 103 79 180 80 50 0 68-5 110-31zm164-843c0-58-3-107-8-110-14-9-572-87-598-84-41 5-69 50-68 109 0 29 6 56 15 64 12 12 570 121 637 124 21 1 22-1 22-103zm-2-252 3-101-38-6c-21-3-163-23-315-43l-277-38-25 23c-48 45-58 140-19 172 17 15 572 98 633 96l35-2 3-101zm7-245c4-56 3-105-2-110-4-4-149-20-321-35-338-29-348-29-371 23-17 38-14 110 7 131 14 14 70 25 252 50 129 18 246 34 260 36s57 4 96 5l71 1 8-101z" />
    <path d="M3829 3246c-145-39-233-229-171-367 32-71 63-94 130-93 134 1 251 116 269 263 16 139-93 234-228 197z" />
    <path
      d="M4092 3058c-4-109-79-225-177-277-51-27-25-27 31-1 96 47 159 159 151 271l-3 54-2-47zm-285-637c-220-38-271-49-279-64-11-21-3-83 12-92 6-4 136 13 290 36l280 42v64c0 54-3 63-17 62-10-1-139-22-286-48zm-4-234-283-40v-48c0-52 18-80 47-73 10 2 128 17 263 34s254 33 265 35c18 4 20 11 17 70-3 42-8 65-15 64s-139-20-294-42zm112-227c-71-10-189-26-262-36-131-17-132-17-142-46-8-22-7-38 3-62l13-32 289 32c159 18 290 33 292 33 1 1 2 30 2 66v65l-32-1c-18-1-91-10-163-19zm-125 1495c-99-20-333-81-445-115-55-17-199-56-320-86-238-61-374-98-418-115-23-10-27-17-27-49v-37l303 77c166 43 352 91 412 106l110 29 5 40 5 40 220 56c121 31 227 58 235 62 26 10-8 7-80-8zm1015-46c-8-22 13-99 27-99 12 0 4 72-12 99-8 15-9 15-15 0zm-209-37-148-36 4-48c3-27 8-51 10-54 3-3 78 10 167 28 134 27 160 35 155 48-4 8-9 34-12 58-2 23-9 42-16 41-6 0-78-17-160-37zm-1431-210-220-56 58-7c38-4 74-16 105-36 41-26 47-33 44-60l-3-31 123 30c67 16 123 30 124 31s4 44 6 95c4 65 2 92-6 91-6 0-110-26-231-57zm1645-114c1-115 68-256 78-164 5 40-15 150-35 191-27 56-43 45-43-27zm-149 26c-51-13-96-26-100-29-3-4-6-39-6-78 0-57 5-81 24-114 13-23 31-45 39-48 12-4 154 17 199 30 8 3 6 16-8 44-26 55-42 136-36 182 6 45 13 45-112 13z" />
    <path
      d="M2796 3035c-65-19-125-40-132-46-15-12-21-129-6-129 4 0 41 9 82 21 102 27 251 35 312 16l46-14 6 30c3 16 6 45 6 63 0 32-4 36-57 60-85 38-121 38-257-1zm-195-14c-33-9-37-26-9-45 22-16 23-16 30 16 3 18 6 33 5 34-1 0-13-2-26-5zm269-157c-194-22-291-63-275-115 4-12 10-17 14-12 25 37 280 86 382 74 71-9 122-31 138-58 14-24 30-2 23 32-9 48-62 72-175 79-40 2-88 2-107 0z" />
    <path
      d="M2810 2751c-175-34-164-28-171-97-3-32-5-60-4-62 1-1 42 7 90 19 72 17 110 20 204 16 64-3 128-8 144-12l27-7v120l-42 17c-62 25-140 27-248 6zm2258-64c-88-72-102-304-36-592 27-121 94-289 130-331 51-58 98-38 118 51l8 35h-128l-34 53c-70 110-110 308-104 517 4 140 7 146 106 175 34 10 62 21 62 25 0 12-72 90-83 90-7 0-24-10-39-23z" />
    <path
      d="M4927 2648c-29-23-39-70-44-208-10-280 58-593 149-687 25-26 40-33 70-33h38l-30 43c-17 23-46 85-64 138-97 270-123 596-61 742 6 13 2 17-17 17-13 0-32-6-41-12zm-2112-54c-11-2-62-14-113-25-99-22-122-36-122-75 0-22 3-24 23-18 230 74 376 80 491 22 31-16 40-17 47-6 5 7 9 17 9 21 0 17-50 56-86 67-41 12-215 22-249 14zm2375-60c-17-49-8-272 15-379 32-153 77-255 111-255 22 0 43 61 51 146l6 76-49-6c-47-7-50-6-66 22-39 65-45 184-11 218 8 8 28 14 45 14 30 0 31 0 24 43-3 23-19 67-34 97-22 43-33 56-54 58-22 3-28-2-38-34z" />
    <path
      d="M5110 2547c-46-16-53-52-46-232 7-203 46-355 105-414 22-22 91-30 91-10 0 6-13 39-29 74-45 97-58 142-75 257-18 116-20 242-7 301 10 41 10 41-39 24zm-424-36-160-26-15-35c-23-54-27-294-7-400 17-94 73-218 110-247 22-18 31-18 177-5 85 8 156 16 157 17 2 2-8 36-21 77-57 165-94 426-82 571 4 42 5 76 4 76-2-1-76-13-163-28zm-1925-26c-36-9-81-23-100-33-34-16-36-20-39-75-3-53-1-58 15-53 102 31 309 45 392 25 24-5 46-7 49-5 2 3 5 31 6 62l1 57-40 14c-58 21-207 25-284 8zm2739-122c-160-24-216-36-222-46-12-18-9-100 3-136 10-28 15-32 38-28 14 3 79 11 144 18 96 10 117 15 112 27-16 42-27 106-23 137 4 37 4 37-52 28zm102-58c0-38 3-79 8-90 11-26 11 100 0 135-6 18-8 5-8-45zm-2837 0c-154-31-193-46-198-72-4-21-2-23 22-18 14 3 93 16 175 30 164 28 202 26 304-14 66-26 64-26 60 7-2 21-13 32-53 52-41 20-67 25-145 27-53 1-126-4-165-12zm560-14c-28-6-31-13-77-155-48-150-49-165-11-166 6 0 30 56 53 124 37 113 44 125 71 135 23 8 29 16 29 40 0 33-6 35-65 22z" />
    <path
      d="M2745 2198c-71-10-134-23-139-28-7-7-11-159-4-165 2-1 44 4 93 12 73 11 116 12 228 3 77-6 142-8 145-5 4 4 7 43 7 87v81l-65 18c-78 23-98 22-265-3zm610-20c-36-96-73-224-68-229 5-4 22-10 39-13 30-7 32-5 37 26 3 18 9 65 12 103 3 39 9 82 11 98 4 20 2 27-11 27-8 0-18-6-20-12zm-763-215c-129-17-235-33-237-35-5-4-22-282-18-287 3-4 331 25 404 36 33 5 37 9 53 59 13 40 22 54 36 54 21 0 440-46 503-55l37-5v70c0 80 8 73-125 118-106 36-263 69-355 74-38 2-163-10-298-29z" />
    <path
      d="M2836 1742c-3-5-10-21-15-35-10-26-9-26 22-20 18 3 39 14 47 24 8 9 26 19 40 22 19 3 17 5-10 6-19 1-45 4-56 7-12 3-24 1-28-4zm234-33c-30-5-74-11-97-14l-43-6v-57c0-56 1-59 54-111l54-54 159 12c87 6 187 14 223 18l65 7-55 11-55 10-3 81-3 80-107 13c-59 7-114 14-122 15-8 2-40 0-70-5zm-217-65c-23-10 15-87 60-123l42-34-37 39c-32 33-38 47-38 82 0 41-3 45-27 36z" />
    <path
      d="M2687 1630c-38-5-70-10-72-12-1-2-6-30-10-64l-7-60 83-65c45-35 103-80 129-99l46-35 129 8c72 4 264 16 427 25 164 10 300 20 302 23 6 5-23 110-33 121-4 5-148-3-320-17-410-33-381-34-452 18-50 36-62 51-82 102-26 68-26 68-140 55zm-414-58c-13-34-18-74-18-147 0-88 3-107 25-150 31-60 70-84 145-92l55-6v35c0 33-1 34-35 30-118-14-205 186-138 314 21 39 21 41 3 52-17 10-21 6-37-36zm1882 22c-110-12-294-30-409-40-152-13-201-20-180-26 29-9 771 47 807 60 17 7 17 7 0 17-13 8-75 5-218-11z" />
    <path
      d="M2357 1567c-60-91-39-241 38-273 60-25 67-20 45 29-26 56-26 148 0 204 21 47 20 48-31 57-31 5-39 3-52-17zm175-115c-7-76-12-164-12-195 0-51 2-57 23-62 13-4 280 10 594 29 314 20 578 36 587 36s16 7 16 15c0 20-30 19-475-5-198-11-376-20-397-20-32 0-54 14-173 112l-136 112 6 58c6 47 4 58-7 58-12 0-17-30-26-138zm1564 79-169-16 2-115c1-63 5-118 9-122 8-7 460 17 468 25 3 3-9 59-27 126l-32 121-41-1c-23-1-117-9-210-18zm294 8c0-13 80-302 85-307 2-2 19 0 38 3l34 7-46 151-46 152-33 3c-20 2-32-1-32-9zm151-116c54-212 43-190 97-197 26-3 52-6 57-5 6 1 20 47 32 103 13 55 25 111 28 123 5 20-3 25-92 52-54 16-110 33-125 36l-26 7 29-119zm-814 70c-3-5 13-73 35-151l41-142h34c18 0 33 1 33 3 0 1-19 67-43 147-40 137-44 145-69 148-14 2-28-1-31-5z" />
    <path
      d="M3863 1353c21-76 44-143 51-150 6-6 39-14 72-18 53-6 62-4 68 11 3 9 5 18 3 20s-33 8-70 13c-36 5-70 12-75 15s-11 55-14 116c-2 60-6 112-9 114-2 2-18 7-35 10l-31 7 40-138z" />
  </g>
</svg>