<svg xmlns="http://www.w3.org/2000/svg" id="root" viewBox="359 38 1325 1872">
  <path
    d="M553 1858c-50-53-139-167-179-231-14-23-18-40-13-54 4-12 17-86 29-165 29-198 54-324 66-320 5 1 17 26 26 54 10 28 22 56 26 62 5 6 17 31 26 56l31 75c35 78 45 111 45 154v46l-100 1c-63 0-105 5-112 12-9 9-1 12 38 13 39 0 45 2 27 9-13 5-23 15-23 21 0 7 8 9 23 5 12-4 48-11 80-15 49-6 60-5 64 8 3 9 15 26 25 37 23 26 51 187 35 203-12 12 7 61 23 61 5 0 10 5 10 10 0 6-22 10-48 10-44 0-51-4-99-52zm177 41c0-7 83-8 283-3 155 3 284 8 286 10s-125 4-282 4c-198 0-287-3-287-11zm685-3c11-8 16-20 12-29-10-25 13-188 30-213 11-18 12-26 2-42-23-37-6-50 76-57 75-7 89-19 30-28-24-3-21-4 13-6 42-1 56-16 25-28-9-3-43-2-77 4s-62 9-63 8c-3-1 8-89 37-295 7-55 49-185 56-177 3 2 11 35 19 73 30 149 55 246 85 336 38 110 38 109-60 248l-77 110c-43 63-89 110-107 110-19 0-19 0-1-14zm-460-36-70-5 53-12c29-7 73-22 97-33s47-20 51-20c12 0 155-71 236-116 43-24 83-44 90-44 8 0 9 3 3 8-5 4-11 32-13 62-1 30-5 81-8 113l-6 58-182-3c-99-1-212-5-251-8zm-250-57c0-32-3-84-8-116l-7-59 319 3c246 3 315 6 302 15a2819 2819 0 0 1-336 154c-14 11-159 47-220 55l-50 7v-59zm233-200-257-3 1-28c1-32-53-183-115-322-88-198-108-251-114-301-5-42-3-49 10-44 8 4 28 0 44-8 15-8 45-17 67-20 21-3 59-17 85-30 48-25 150-62 155-56a3322 3322 0 0 0 156 319c44 79 100 199 126 265 25 66 57 136 69 155 20 30 43 85 33 78-2-2-119-4-260-5zm274-25a2762 2762 0 0 1-131-286c-16-40-61-130-100-200a3227 3227 0 0 1-136-274c-18-32-19-38-2-38 13 0 16 5 123 197 66 119 122 231 189 378l70 150c24 50 41 93 38 98-10 16-32 5-51-25zm93 11c-4-12-33-76-65-143-88-187-110-236-110-248 0-6 13-34 29-62s46-107 66-176 39-127 41-129c1-2 15 6 30 18 15 11 31 21 36 21s21 9 36 20c17 13 50 22 92 26 96 8 92 3 65 86-44 137-54 183-70 328-9 80-21 173-27 207-10 56-14 62-41 67-54 11-75 7-82-15zm-202-431c-9-18-6-32 13-68 13-25 39-85 58-135 40-104 61-147 68-139 3 3-3 33-14 67l-38 127c-10 36-32 89-48 118-27 50-29 51-39 30zm-41-89c-7-11-10-25-6-32s3-9-1-4c-5 4-29-30-55-75-70-125-89-157-106-183-8-12-17-34-19-47-5-24-3-25 53-21 212 13 222 14 222 31 0 9 11 25 25 37l25 20-56 140c-31 77-59 143-63 147-3 4-12-2-19-13zM680 793c0-16 50-169 66-203 34-71 74-113 74-76 0 7 7 19 15 26 14 12 13 16-8 39-31 33-53 76-61 123-4 24-18 47-42 67-36 32-44 36-44 24zm303-112c-39-3-74-8-77-11-10-11-16-129-6-135 6-3 10-2 10 3s20 31 44 58c25 26 43 51 41 54s4 7 13 8l80 8c34 4 65 10 68 15 6 10-56 9-173 0z" />
  <path
    d="M1040 619c-19-12-38-27-42-33s-8-7-8-2c0 19-46-51-61-94-9-26-25-50-38-56-32-16-52-61-49-108 5-62 22-52 42 24 28 111 47 109 57-7 6-78 15-93 57-93 24 0 46-38 36-64-10-25 15-54 62-75 42-19 48-19 75-6 16 9 39 13 53 9 21-5 28 0 44 33 11 21 22 51 23 66 3 23-2 30-31 45-50 24-64 60-51 123 13 59 11 65-29 74-17 4-30 13-30 22 0 11 6 14 23 9 12-3 35-6 51-6h29l-6-53c-4-29-9-67-13-83-4-22-1-36 11-47 28-29 44-21 38 17-3 19-1 36 6 40 20 13 11 79-25 183l-37 103h-76c-60 0-83-5-111-21zm197-388c10-30 10-44 0-65-12-26-37-36-37-14 0 6-7 19-15 28-14 15-14 18 0 30 8 7 15 20 15 30 0 17 8 30 19 30 3 0 12-17 18-39z" />
  <path
    d="M856 492c-9-10-25-45-37-78-41-118-5-288 75-349 30-23 40-24 178-26 107-2 151 1 162 11 9 7 13 16 10 21-7 13-52 11-60-2s-70-5-120 16c-36 15-64 62-64 109 0 19-6 25-34 30-36 7-45 20-47 64-1 25-2 24-16-10-13-31-21-38-43-38-66 0-66 142 0 209 17 16 30 34 30 40 0 19-17 20-34 3z" />
</svg>