<svg xmlns="http://www.w3.org/2000/svg" id="root" viewBox="0 0 100 141">
  <g>
    <path
      d="M 14.640625 137.082031 C 10.867188 133.089844 4.152344 124.503906 1.132812 119.683594 C 0.0742188 117.953125 -0.226562 116.671875 0.152344 115.617188 C 0.453125 114.714844 1.433594 109.140625 2.339844 103.1875 C 4.527344 88.277344 6.414062 78.785156 7.320312 79.085938 C 7.699219 79.160156 8.605469 81.042969 9.28125 83.152344 C 10.039062 85.261719 10.945312 87.371094 11.246094 87.824219 C 11.621094 88.277344 12.527344 90.160156 13.207031 92.042969 L 15.546875 97.691406 C 18.1875 103.566406 18.945312 106.050781 18.945312 109.289062 L 18.945312 112.753906 L 11.394531 112.832031 C 6.640625 112.832031 3.472656 113.207031 2.945312 113.734375 C 2.265625 114.410156 2.867188 114.636719 5.8125 114.714844 C 8.753906 114.714844 9.207031 114.863281 7.847656 115.390625 C 6.867188 115.769531 6.113281 116.519531 6.113281 116.972656 C 6.113281 117.5 6.71875 117.652344 7.847656 117.347656 C 8.753906 117.046875 11.472656 116.519531 13.886719 116.21875 C 17.585938 115.769531 18.414062 115.84375 18.71875 116.820312 C 18.945312 117.5 19.847656 118.78125 20.605469 119.609375 C 22.339844 121.566406 24.453125 133.695312 23.246094 134.898438 C 22.339844 135.804688 23.773438 139.492188 24.980469 139.492188 C 25.359375 139.492188 25.734375 139.871094 25.734375 140.246094 C 25.734375 140.699219 24.074219 141 22.113281 141 C 18.792969 141 18.265625 140.699219 14.640625 137.082031 Z M 28 140.171875 C 28 139.644531 34.265625 139.570312 49.359375 139.945312 C 61.054688 140.171875 70.792969 140.546875 70.945312 140.699219 C 71.09375 140.847656 61.507812 141 49.660156 141 C 34.71875 141 28 140.773438 28 140.171875 Z M 79.699219 139.945312 C 80.527344 139.34375 80.90625 138.4375 80.605469 137.761719 C 79.847656 135.878906 81.585938 123.601562 82.867188 121.71875 C 83.699219 120.363281 83.773438 119.757812 83.019531 118.554688 C 81.28125 115.769531 82.566406 114.789062 88.753906 114.261719 C 94.414062 113.734375 95.472656 112.832031 91.019531 112.152344 C 89.207031 111.925781 89.433594 111.851562 92 111.699219 C 95.167969 111.625 96.226562 110.496094 93.886719 109.589844 C 93.207031 109.367188 90.640625 109.441406 88.074219 109.894531 C 85.507812 110.34375 83.394531 110.570312 83.320312 110.496094 C 83.09375 110.417969 83.925781 103.792969 86.113281 88.277344 C 86.640625 84.132812 89.8125 74.339844 90.339844 74.945312 C 90.566406 75.09375 91.167969 77.582031 91.773438 80.441406 C 94.039062 91.664062 95.925781 98.972656 98.1875 105.75 C 101.054688 114.035156 101.054688 113.960938 93.660156 124.429688 L 87.847656 132.714844 C 84.605469 137.460938 81.132812 141 79.773438 141 C 78.339844 141 78.339844 141 79.699219 139.945312 Z M 44.980469 137.234375 L 39.699219 136.855469 L 43.699219 135.953125 C 45.886719 135.425781 49.207031 134.296875 51.019531 133.46875 C 52.832031 132.640625 54.566406 131.960938 54.867188 131.960938 C 55.773438 131.960938 66.566406 126.613281 72.679688 123.222656 C 75.925781 121.417969 78.945312 119.910156 79.472656 119.910156 C 80.074219 119.910156 80.152344 120.136719 79.699219 120.511719 C 79.320312 120.8125 78.867188 122.921875 78.71875 125.183594 C 78.640625 127.441406 78.339844 131.285156 78.113281 133.695312 L 77.660156 138.0625 L 63.925781 137.835938 C 56.453125 137.761719 47.925781 137.460938 44.980469 137.234375 Z M 26.113281 132.941406 C 26.113281 130.53125 25.886719 126.613281 25.507812 124.203125 L 24.980469 119.757812 L 49.054688 119.984375 C 67.621094 120.210938 72.832031 120.4375 71.847656 121.117188 C 63.660156 125.53125 55.1875 129.40625 46.492188 132.714844 C 45.433594 133.542969 34.492188 136.253906 29.886719 136.855469 L 26.113281 137.382812 Z M 43.699219 117.875 L 24.300781 117.652344 L 24.378906 115.542969 C 24.453125 113.132812 20.378906 101.757812 15.699219 91.289062 C 9.054688 76.375 7.546875 72.382812 7.09375 68.617188 C 6.71875 65.453125 6.867188 64.925781 7.847656 65.304688 C 8.453125 65.605469 9.960938 65.304688 11.167969 64.699219 C 12.300781 64.097656 14.566406 63.417969 16.226562 63.195312 C 17.8125 62.96875 20.679688 61.914062 22.640625 60.933594 C 26.265625 59.050781 33.960938 56.265625 34.339844 56.714844 C 37.832031 64.929688 41.761719 72.949219 46.113281 80.742188 C 49.433594 86.695312 53.660156 95.730469 55.621094 100.703125 C 57.507812 105.675781 59.925781 110.945312 60.832031 112.378906 C 62.339844 114.636719 64.074219 118.78125 63.320312 118.253906 C 63.167969 118.101562 54.339844 117.953125 43.699219 117.875 Z M 64.378906 115.992188 C 60.675781 109.007812 57.375 101.8125 54.492188 94.453125 C 53.28125 91.4375 49.886719 84.660156 46.945312 79.386719 C 43.195312 72.675781 39.773438 65.789062 36.679688 58.75 C 35.320312 56.339844 35.246094 55.886719 36.527344 55.886719 C 37.507812 55.886719 37.734375 56.265625 45.8125 70.726562 C 50.792969 79.6875 55.019531 88.125 60.074219 99.195312 L 65.359375 110.496094 C 67.167969 114.261719 68.453125 117.5 68.226562 117.875 C 67.472656 119.082031 65.8125 118.253906 64.378906 115.992188 Z M 71.394531 116.820312 C 71.09375 115.917969 68.90625 111.097656 66.492188 106.050781 C 59.847656 91.964844 58.1875 88.277344 58.1875 87.371094 C 58.1875 86.917969 59.167969 84.8125 60.378906 82.703125 C 61.585938 80.59375 63.847656 74.644531 65.359375 69.445312 C 66.867188 64.25 68.300781 59.878906 68.453125 59.730469 C 68.527344 59.578125 69.585938 60.179688 70.71875 61.085938 C 71.847656 61.914062 73.054688 62.667969 73.433594 62.667969 C 73.8125 62.667969 75.019531 63.34375 76.152344 64.171875 C 77.433594 65.152344 79.925781 65.832031 83.09375 66.132812 C 90.339844 66.734375 90.039062 66.355469 88 72.609375 C 84.679688 82.929688 83.925781 86.394531 82.71875 97.3125 C 82.039062 103.339844 81.132812 110.34375 80.679688 112.90625 C 79.925781 117.125 79.621094 117.574219 77.585938 117.953125 C 73.507812 118.78125 71.925781 118.480469 71.394531 116.820312 Z M 56.152344 84.359375 C 55.472656 83.003906 55.699219 81.949219 57.132812 79.238281 C 58.113281 77.355469 60.074219 72.835938 61.507812 69.070312 C 64.527344 61.234375 66.113281 57.996094 66.640625 58.597656 C 66.867188 58.824219 66.414062 61.085938 65.585938 63.644531 L 62.71875 73.210938 C 61.960938 75.921875 60.300781 79.914062 59.09375 82.097656 C 57.054688 85.867188 56.90625 85.941406 56.152344 84.359375 Z M 53.054688 77.65625 C 52.527344 76.828125 52.300781 75.773438 52.605469 75.246094 C 52.90625 74.71875 52.832031 74.566406 52.527344 74.945312 C 52.152344 75.246094 50.339844 72.683594 48.378906 69.292969 C 43.09375 59.878906 41.660156 57.46875 40.378906 55.511719 C 39.773438 54.605469 39.09375 52.949219 38.945312 51.972656 C 38.566406 50.164062 38.71875 50.089844 42.945312 50.390625 C 58.945312 51.367188 59.699219 51.445312 59.699219 52.722656 C 59.699219 53.402344 60.527344 54.605469 61.585938 55.511719 L 63.472656 57.019531 L 59.246094 67.5625 C 56.90625 73.363281 54.792969 78.332031 54.492188 78.632812 C 54.265625 78.9375 53.585938 78.484375 53.054688 77.65625 Z M 24.226562 56.867188 C 24.226562 55.660156 28 44.136719 29.207031 41.578125 C 31.773438 36.230469 34.792969 33.066406 34.792969 35.851562 C 34.792969 36.378906 35.320312 37.285156 35.925781 37.8125 C 36.980469 38.714844 36.90625 39.015625 35.320312 40.75 C 32.980469 43.234375 31.320312 46.472656 30.71875 50.011719 C 30.414062 51.820312 29.359375 53.554688 27.546875 55.058594 C 24.832031 57.46875 24.226562 57.769531 24.226562 56.867188 Z M 47.09375 48.429688 C 44.152344 48.207031 41.507812 47.828125 41.28125 47.601562 C 40.527344 46.773438 40.074219 37.886719 40.832031 37.433594 C 41.28125 37.207031 41.585938 37.285156 41.585938 37.660156 C 41.585938 38.035156 43.09375 39.996094 44.90625 42.027344 C 46.792969 43.988281 48.152344 45.871094 48 46.097656 C 47.847656 46.320312 48.300781 46.625 48.980469 46.699219 L 55.019531 47.300781 C 57.585938 47.601562 59.925781 48.054688 60.152344 48.429688 C 60.605469 49.183594 55.925781 49.109375 47.09375 48.429688 Z M 47.09375 48.429688 "
    />
    <path
      d="M 51.394531 43.761719 C 49.960938 42.855469 48.527344 41.726562 48.226562 41.277344 C 47.925781 40.824219 47.621094 40.75 47.621094 41.125 C 47.621094 42.554688 44.152344 37.285156 43.019531 34.042969 C 42.339844 32.085938 41.132812 30.277344 40.152344 29.828125 C 37.734375 28.621094 36.226562 25.230469 36.453125 21.691406 C 36.832031 17.023438 38.113281 17.777344 39.621094 23.5 C 41.734375 31.859375 43.167969 31.710938 43.925781 22.972656 C 44.378906 17.097656 45.054688 15.96875 48.226562 15.96875 C 50.039062 15.96875 51.699219 13.105469 50.945312 11.148438 C 50.1875 9.265625 52.074219 7.082031 55.621094 5.5 C 58.792969 4.066406 59.246094 4.066406 61.28125 5.046875 C 62.492188 5.722656 64.226562 6.027344 65.28125 5.722656 C 66.867188 5.347656 67.394531 5.722656 68.605469 8.210938 C 69.433594 9.792969 70.265625 12.050781 70.339844 13.179688 C 70.566406 14.914062 70.1875 15.441406 68 16.570312 C 64.226562 18.378906 63.167969 21.089844 64.152344 25.835938 C 65.132812 30.277344 64.980469 30.730469 61.960938 31.410156 C 60.679688 31.710938 59.699219 32.386719 59.699219 33.066406 C 59.699219 33.894531 60.152344 34.121094 61.433594 33.742188 C 62.339844 33.519531 64.074219 33.292969 65.28125 33.292969 L 67.472656 33.292969 L 67.019531 29.300781 C 66.71875 27.117188 66.339844 24.253906 66.039062 23.046875 C 65.734375 21.390625 65.960938 20.335938 66.867188 19.507812 C 68.980469 17.324219 70.1875 17.925781 69.734375 20.789062 C 69.507812 22.21875 69.660156 23.5 70.1875 23.800781 C 71.699219 24.78125 71.019531 29.75 68.300781 37.585938 L 65.507812 45.34375 L 59.773438 45.34375 C 55.246094 45.34375 53.507812 44.964844 51.394531 43.761719 Z M 66.265625 14.535156 C 67.019531 12.277344 67.019531 11.222656 66.265625 9.640625 C 65.359375 7.683594 63.472656 6.929688 63.472656 8.585938 C 63.472656 9.039062 62.945312 10.019531 62.339844 10.695312 C 61.28125 11.824219 61.28125 12.050781 62.339844 12.957031 C 62.945312 13.480469 63.472656 14.460938 63.472656 15.214844 C 63.472656 16.496094 64.074219 17.472656 64.90625 17.472656 C 65.132812 17.472656 65.8125 16.195312 66.265625 14.535156 Z M 66.265625 14.535156 "
    />
    <path
      d="M 37.507812 34.195312 C 36.832031 33.441406 35.621094 30.804688 34.71875 28.320312 C 31.621094 19.433594 34.339844 6.628906 40.378906 2.035156 C 42.640625 0.300781 43.394531 0.226562 53.8125 0.0742188 C 61.886719 -0.0742188 65.207031 0.152344 66.039062 0.902344 C 66.71875 1.429688 67.019531 2.109375 66.792969 2.484375 C 66.265625 3.464844 62.867188 3.3125 62.265625 2.335938 C 61.660156 1.355469 56.980469 1.957031 53.207031 3.539062 C 50.492188 4.667969 48.378906 8.210938 48.378906 11.75 C 48.378906 13.179688 47.925781 13.632812 45.8125 14.007812 C 43.09375 14.535156 42.414062 15.515625 42.265625 18.832031 C 42.1875 20.714844 42.113281 20.636719 41.054688 18.078125 C 40.074219 15.742188 39.472656 15.214844 37.8125 15.214844 C 32.832031 15.214844 32.832031 25.910156 37.8125 30.957031 C 39.09375 32.160156 40.074219 33.519531 40.074219 33.96875 C 40.074219 35.402344 38.792969 35.476562 37.507812 34.195312 Z M 37.507812 34.195312 "
    />
  </g>
</svg>
