<svg id="root" xmlns="http://www.w3.org/2000/svg" width="768" height="441" viewBox="0 0 7680 4410">
  <g>
    <path
      d="M3075 3820c-247-16-436-68-519-141-65-57-86-107-93-226-9-156 0-200 60-289 77-115 160-177 326-244 62-25 88-41 101-63 10-16 37-38 60-48 23-11 70-41 104-68 33-26 88-63 120-81 131-74 153-125 143-329-8-151-26-233-67-299-45-74-71-213-74-402-5-305 18-441 81-479 16-11 42-39 56-64 26-45 117-120 207-171 97-55 193-25 390 121 76 57 112 90 129 123 31 55 66 191 81 313 6 50 18 127 27 170 25 128 5 266-47 332-33 41-41 69-60 191-17 118 1 217 53 273 42 46 169 121 240 142 45 13 112 46 177 87 157 98 196 128 233 180 27 38 59 62 153 116 134 77 181 126 227 235 37 86 47 166 33 275l-11 90-140 28c-877 175-1581 256-1990 228zm710-2321c50-73 96-138 103-145 11-11-7-38-99-154-61-78-115-138-120-133-4 4-50 70-103 146l-95 138 65 82c36 45 83 103 105 129 21 26 39 52 39 57 0 26 21 3 105-120z" />
    <path
      d="M3700 1531c0-46 5-60 46-117 41-58 49-64 81-64h35l-16 25c-9 14-45 66-81 117l-65 92v-53zm-101-53c-40-51-76-99-82-105-7-10 0-13 29-13 36 1 43 6 87 62 40 51 47 68 47 104 0 24-2 44-4 44-3 0-37-42-77-92zm43-75c-24-29-42-57-40-61 9-20 74-112 79-112 4 0 26 25 49 56l42 56-37 54c-21 30-41 56-44 58s-25-21-49-51zm-132-69c0-3 11-20 24-37 13-18 49-70 80-116l56-84v54c0 48-6 62-45 122-42 61-48 67-80 67-19 0-35-3-35-6zm231-66c-45-56-50-68-51-112v-49l85 107c47 59 85 109 85 112 0 2-16 4-35 4-30 0-40-7-84-62z" />
  </g>
</svg>