<svg xmlns="http://www.w3.org/2000/svg" id="root" viewBox="0 0 100 106">
  <g>
    <path
      d="M 22.265625 105.804688 C 13.324219 105.226562 6.480469 103.347656 3.476562 100.710938 C 1.125 98.652344 0.363281 96.847656 0.109375 92.550781 C -0.214844 86.917969 0.109375 85.328125 2.28125 82.113281 C 5.070312 77.960938 8.074219 75.722656 14.085938 73.300781 C 16.328125 72.398438 17.269531 71.820312 17.742188 71.027344 C 18.101562 70.449219 19.082031 69.652344 19.914062 69.292969 C 20.746094 68.894531 22.449219 67.8125 23.679688 66.835938 C 24.875 65.898438 26.863281 64.5625 28.023438 63.910156 C 32.765625 61.238281 33.5625 59.398438 33.199219 52.03125 C 32.910156 46.578125 32.257812 43.617188 30.773438 41.230469 C 29.144531 38.558594 28.203125 33.539062 28.09375 26.714844 C 27.914062 15.699219 28.746094 10.789062 31.027344 9.414062 C 31.605469 9.019531 32.546875 8.007812 33.054688 7.105469 C 33.996094 5.480469 37.292969 2.769531 40.550781 0.929688 C 44.0625 -1.058594 47.535156 0.0273438 54.667969 5.296875 C 57.421875 7.355469 58.722656 8.550781 59.339844 9.742188 C 60.460938 11.726562 61.730469 16.636719 62.273438 21.042969 C 62.488281 22.851562 62.921875 25.628906 63.25 27.183594 C 64.152344 31.804688 63.429688 36.789062 61.546875 39.171875 C 60.351562 40.652344 60.0625 41.664062 59.375 46.070312 C 58.761719 50.332031 59.410156 53.90625 61.292969 55.929688 C 62.816406 57.589844 67.414062 60.300781 69.984375 61.058594 C 71.613281 61.527344 74.039062 62.71875 76.390625 64.199219 C 82.074219 67.738281 83.488281 68.824219 84.828125 70.699219 C 85.804688 72.074219 86.960938 72.941406 90.367188 74.890625 C 95.21875 77.671875 96.917969 79.441406 98.585938 83.378906 C 99.921875 86.484375 100.285156 89.371094 99.777344 93.308594 L 99.378906 96.558594 L 94.3125 97.570312 C 62.5625 103.890625 37.074219 106.816406 22.265625 105.804688 Z M 47.972656 21.984375 C 49.78125 19.347656 51.445312 17 51.699219 16.746094 C 52.097656 16.347656 51.445312 15.375 48.117188 11.183594 C 45.90625 8.367188 43.953125 6.203125 43.773438 6.382812 C 43.625 6.527344 41.960938 8.910156 40.042969 11.65625 L 36.601562 16.636719 L 38.957031 19.601562 C 40.257812 21.226562 41.960938 23.320312 42.757812 24.257812 C 43.519531 25.199219 44.167969 26.136719 44.167969 26.316406 C 44.167969 27.257812 44.929688 26.425781 47.972656 21.984375 Z M 47.972656 21.984375 "
    />
    <path
      d="M 44.894531 23.140625 C 44.894531 21.476562 45.074219 20.972656 46.558594 18.914062 C 48.042969 16.820312 48.332031 16.601562 49.492188 16.601562 L 50.757812 16.601562 L 50.179688 17.503906 C 49.855469 18.011719 48.550781 19.890625 47.246094 21.730469 L 44.894531 25.054688 Z M 41.238281 21.226562 C 39.789062 19.382812 38.484375 17.648438 38.269531 17.433594 C 38.015625 17.070312 38.269531 16.964844 39.320312 16.964844 C 40.621094 17 40.875 17.179688 42.46875 19.203125 C 43.917969 21.042969 44.167969 21.660156 44.167969 22.957031 C 44.167969 23.824219 44.097656 24.546875 44.023438 24.546875 C 43.917969 24.546875 42.683594 23.03125 41.238281 21.226562 Z M 42.792969 18.515625 C 41.925781 17.46875 41.273438 16.457031 41.347656 16.3125 C 41.671875 15.589844 44.023438 12.269531 44.207031 12.269531 C 44.351562 12.269531 45.148438 13.171875 45.980469 14.292969 L 47.5 16.3125 L 46.160156 18.261719 C 45.402344 19.347656 44.675781 20.285156 44.566406 20.359375 C 44.460938 20.429688 43.664062 19.601562 42.792969 18.515625 Z M 38.015625 16.023438 C 38.015625 15.917969 38.414062 15.300781 38.882812 14.6875 C 39.355469 14.039062 40.65625 12.160156 41.78125 10.5 L 43.808594 7.464844 L 43.808594 9.414062 C 43.808594 11.148438 43.589844 11.65625 42.179688 13.820312 C 40.65625 16.023438 40.441406 16.242188 39.28125 16.242188 C 38.59375 16.242188 38.015625 16.132812 38.015625 16.023438 Z M 46.378906 13.640625 C 44.75 11.617188 44.566406 11.183594 44.53125 9.597656 L 44.53125 7.828125 L 47.609375 11.691406 C 49.3125 13.820312 50.6875 15.628906 50.6875 15.734375 C 50.6875 15.808594 50.105469 15.878906 49.417969 15.878906 C 48.332031 15.878906 47.972656 15.628906 46.378906 13.640625 Z M 46.378906 13.640625 "
    />
  </g>
</svg>
