<svg xmlns="http://www.w3.org/2000/svg" id="root" viewBox="0 0 100 102">
  <g>
    <path
      d="M 49.050781 28.597656 C 49.320312 28.265625 49.050781 27.847656 47.605469 26.503906 C 46.582031 25.574219 44.984375 24.078125 44.019531 23.183594 C 42.152344 21.445312 41.640625 21.238281 41.339844 22.015625 C 41.128906 22.582031 47.425781 29.015625 48.207031 29.015625 C 48.480469 29.015625 48.871094 28.835938 49.050781 28.597656 Z M 55.410156 34.847656 C 55.710938 34.488281 55.378906 34.039062 53.449219 32.15625 C 51.21875 30 51.070312 29.910156 50.558594 30.390625 C 49.863281 30.988281 49.925781 31.109375 52.214844 33.410156 C 54.113281 35.296875 54.777344 35.59375 55.410156 34.847656 Z M 55.410156 34.847656 "
    />
    <path
      d="M 34.617188 51.359375 L 35.671875 50.519531 L 32.089844 47.171875 C 30.128906 45.316406 24.707031 40.082031 20.035156 35.503906 L 11.570312 27.191406 L 12.445312 26.441406 C 12.894531 26.023438 13.46875 25.722656 13.679688 25.785156 C 14.28125 25.933594 19.132812 30.449219 28.683594 39.8125 L 37.691406 48.636719 L 40.824219 45.554688 C 42.542969 43.851562 44.171875 42.476562 44.410156 42.476562 C 44.621094 42.476562 44.921875 42.324219 45.042969 42.144531 C 45.164062 41.964844 45.617188 41.875 46.128906 41.996094 C 47.394531 42.234375 48.871094 41.367188 51.28125 38.976562 L 53.300781 36.910156 L 39.289062 23.03125 C 31.574219 15.375 25.277344 9.003906 25.277344 8.824219 C 25.277344 8.644531 25.820312 7.988281 26.453125 7.359375 L 27.660156 6.191406 L 28.714844 6.699219 C 30.070312 7.328125 30.160156 8.078125 28.894531 8.078125 C 27.628906 8.078125 27.085938 9.214844 27.808594 10.320312 C 28.53125 11.425781 29.136719 11.546875 29.890625 10.769531 L 30.550781 10.109375 L 29.917969 10.289062 C 29.226562 10.5 28.140625 9.75 28.441406 9.242188 C 28.714844 8.855469 29.738281 8.914062 29.859375 9.332031 C 29.949219 9.542969 30.429688 9.660156 31.09375 9.632812 C 31.90625 9.570312 32.207031 9.660156 32.207031 9.992188 C 32.207031 10.230469 33.503906 11.515625 35.070312 12.832031 C 37.8125 15.164062 38.65625 16.453125 37.453125 16.453125 C 36.335938 16.453125 35.671875 18.277344 36.488281 19.082031 C 37.089844 19.683594 37.84375 19.503906 38.777344 18.546875 C 39.289062 18.035156 39.800781 17.648438 39.953125 17.648438 C 40.074219 17.648438 43.777344 21.207031 48.175781 25.574219 C 52.578125 29.941406 56.3125 33.5 56.523438 33.5 C 57.757812 33.5 56.554688 32.09375 48.238281 23.808594 C 39.621094 15.226562 37.933594 13.25 37.933594 11.753906 C 37.933594 11.546875 37.8125 11.367188 37.632812 11.367188 C 37.480469 11.367188 37.332031 11.15625 37.332031 10.917969 C 37.332031 10.679688 37.058594 10.019531 36.726562 9.421875 C 36.09375 8.316406 35.914062 6.28125 36.425781 6.28125 C 36.609375 6.28125 36.726562 6.011719 36.726562 5.683594 C 36.726562 5.355469 36.878906 5.085938 37.03125 5.085938 C 37.210938 5.085938 37.332031 4.726562 37.332031 4.277344 C 37.332031 3.441406 36.578125 2.394531 35.976562 2.394531 C 35.792969 2.394531 35.101562 1.855469 34.46875 1.195312 C 33.835938 0.539062 33.113281 0 32.902344 0 C 32.691406 0 32.269531 0.359375 31.996094 0.808594 C 30.851562 2.542969 28.804688 4.488281 28.082031 4.488281 C 27.628906 4.488281 26.695312 5.144531 25.371094 6.460938 C 23.589844 8.253906 23.410156 8.523438 23.742188 9.0625 C 24.433594 10.140625 23.621094 10.199219 22.566406 9.125 C 21.996094 8.554688 21.332031 8.078125 21.089844 8.078125 C 20.546875 8.078125 15.035156 13.429688 15.035156 13.910156 C 15.035156 14.089844 15.457031 14.628906 15.9375 15.105469 C 16.449219 15.585938 16.84375 16.183594 16.84375 16.421875 C 16.84375 16.691406 14.523438 19.203125 11.71875 21.984375 C 6.898438 26.769531 6.597656 27.160156 6.871094 27.878906 C 7.019531 28.296875 8.617188 29.941406 10.425781 31.585938 C 12.203125 33.203125 17.925781 38.734375 23.140625 43.851562 C 31.847656 52.4375 32.628906 53.125 33.082031 52.675781 C 33.355469 52.40625 34.046875 51.808594 34.617188 51.359375 Z M 34.617188 51.359375 "
    />
    <path
      d="M 0.664062 98.109375 C 0.964844 98.109375 5.542969 95.925781 6.898438 95.121094 C 7.140625 94.96875 7.804688 94.671875 8.347656 94.460938 C 8.859375 94.253906 9.308594 93.984375 9.308594 93.863281 C 9.308594 93.714844 9.492188 93.625 9.703125 93.625 C 10.183594 93.625 13.921875 91.800781 14.613281 91.203125 C 15.1875 90.753906 16.121094 90.183594 17.054688 89.765625 C 17.386719 89.617188 17.777344 89.347656 17.867188 89.167969 C 17.988281 88.988281 18.53125 88.628906 19.101562 88.359375 C 19.675781 88.089844 20.15625 87.761719 20.15625 87.613281 C 20.15625 87.460938 20.429688 87.34375 20.757812 87.34375 C 21.089844 87.34375 21.363281 87.222656 21.363281 87.074219 C 21.363281 86.925781 21.8125 86.59375 22.355469 86.355469 C 22.898438 86.085938 23.589844 85.609375 23.921875 85.25 C 24.222656 84.921875 24.617188 84.652344 24.828125 84.652344 C 25.007812 84.652344 25.550781 84.261719 26.03125 83.753906 C 26.515625 83.273438 27.054688 82.855469 27.238281 82.855469 C 27.417969 82.855469 28.109375 82.316406 28.742188 81.660156 C 29.375 81 30.070312 80.464844 30.25 80.464844 C 30.429688 80.464844 31.304688 79.714844 32.207031 78.816406 C 33.113281 77.921875 33.988281 77.171875 34.167969 77.171875 C 34.347656 77.171875 35.644531 76.007812 37.03125 74.601562 C 38.445312 73.195312 39.953125 71.789062 40.375 71.519531 C 40.824219 71.25 44.863281 67.421875 49.382812 63.023438 C 56.160156 56.382812 57.515625 54.917969 57.367188 54.410156 C 57.003906 53.273438 58.058594 51.925781 63.785156 46.273438 L 69.480469 40.621094 L 71.105469 41.277344 C 72.007812 41.636719 73.035156 42.054688 73.425781 42.207031 C 73.816406 42.355469 74.449219 42.476562 74.84375 42.476562 C 75.234375 42.476562 75.65625 42.625 75.746094 42.773438 C 75.988281 43.164062 81.320312 43.164062 81.320312 42.773438 C 81.320312 42.625 81.53125 42.476562 81.773438 42.476562 C 82.042969 42.476562 82.34375 42.234375 82.433594 41.964844 C 82.554688 41.667969 82.765625 41.339844 82.945312 41.21875 C 83.1875 41.070312 83.1875 40.828125 82.945312 40.472656 C 82.707031 40.082031 82.164062 39.902344 80.988281 39.84375 C 80.085938 39.78125 79.242188 39.632812 79.089844 39.453125 C 78.910156 39.304688 78.335938 39.183594 77.792969 39.183594 C 77.253906 39.183594 76.800781 39.066406 76.800781 38.886719 C 76.800781 38.734375 76.589844 38.585938 76.347656 38.585938 C 76.078125 38.585938 75.503906 38.226562 75.054688 37.777344 C 74.421875 37.152344 74.238281 36.703125 74.269531 35.714844 C 74.300781 34.667969 74.511719 34.277344 75.625 33.171875 C 76.347656 32.453125 77.3125 31.675781 77.765625 31.4375 C 78.214844 31.199219 78.96875 30.480469 79.390625 29.792969 C 79.84375 29.105469 80.566406 28.238281 80.988281 27.816406 C 81.410156 27.398438 82.164062 26.53125 82.675781 25.875 C 83.941406 24.167969 86.921875 21.296875 88.792969 19.953125 C 89.636719 19.324219 90.359375 18.664062 90.359375 18.515625 C 90.359375 18.367188 90.628906 18.246094 90.960938 18.246094 C 91.292969 18.246094 91.5625 18.125 91.5625 17.976562 C 91.5625 17.828125 92.015625 17.5 92.558594 17.257812 C 93.101562 16.988281 94.003906 16.480469 94.578125 16.09375 C 95.148438 15.703125 96.382812 15.015625 97.289062 14.566406 C 99.335938 13.492188 100 12.355469 100 9.839844 C 100 6.878906 98.644531 4.667969 96.082031 3.53125 C 94.546875 2.839844 92.40625 2.394531 91.863281 2.664062 C 91.625 2.8125 90.902344 2.992188 90.269531 3.109375 C 89.125 3.320312 88.519531 4.007812 87.34375 6.429688 C 87.105469 6.941406 86.714844 7.566406 86.472656 7.867188 C 86.230469 8.136719 85.898438 8.613281 85.71875 8.945312 C 84.605469 10.796875 83.367188 12.234375 79.902344 15.644531 C 77.765625 17.738281 75.625 19.710938 75.144531 20.011719 C 74.632812 20.308594 73.90625 20.910156 73.515625 21.355469 C 73.09375 21.777344 72.640625 22.136719 72.460938 22.136719 C 72.039062 22.136719 69.871094 24.257812 69.871094 24.675781 C 69.871094 25.425781 66.285156 27.847656 65.230469 27.816406 C 65.050781 27.789062 64.355469 27.21875 63.722656 26.503906 C 62.488281 25.15625 61.796875 23.09375 61.765625 20.578125 C 61.734375 19.621094 61.132812 18.546875 60.589844 18.546875 C 60.5 18.546875 59.957031 18.964844 59.414062 19.503906 C 58.753906 20.132812 58.421875 20.730469 58.421875 21.296875 C 58.421875 21.746094 58.269531 22.136719 58.089844 22.136719 C 57.878906 22.136719 57.820312 22.523438 57.9375 23.273438 C 58.058594 23.871094 58.210938 24.917969 58.300781 25.574219 C 58.421875 26.234375 58.601562 26.890625 58.753906 27.070312 C 58.902344 27.21875 59.023438 27.609375 59.023438 27.96875 C 59.023438 28.625 59.6875 30.691406 60.019531 30.988281 C 60.140625 31.109375 60.230469 31.558594 60.230469 31.976562 C 60.230469 32.574219 59.507812 33.472656 57.304688 35.65625 C 55.679688 37.210938 54.203125 38.554688 53.992188 38.617188 C 53.78125 38.675781 52.484375 39.84375 51.101562 41.21875 C 48.570312 43.671875 48.570312 43.671875 46.972656 43.671875 L 45.375 43.671875 L 42.390625 46.453125 C 37.058594 51.390625 19.554688 68.617188 19.554688 68.945312 C 19.554688 69.125 18.679688 70.144531 17.597656 71.191406 C 16.511719 72.238281 15.636719 73.253906 15.636719 73.433594 C 15.636719 73.613281 15.09375 74.300781 14.433594 74.929688 C 13.769531 75.558594 13.226562 76.214844 13.226562 76.367188 C 13.226562 76.515625 12.925781 77.023438 12.5625 77.472656 C 11.207031 79.175781 9.914062 80.972656 9.914062 81.179688 C 9.914062 81.300781 9.640625 81.660156 9.308594 82.019531 C 8.980469 82.378906 8.707031 82.855469 8.707031 83.066406 C 8.707031 83.273438 8.585938 83.453125 8.40625 83.453125 C 8.253906 83.453125 8.105469 83.605469 8.105469 83.753906 C 8.105469 83.933594 7.382812 85.160156 6.507812 86.535156 C 5.632812 87.882812 4.609375 89.617188 4.21875 90.425781 C 3.828125 91.203125 3.375 91.828125 3.222656 91.828125 C 3.105469 91.828125 2.984375 92.097656 2.984375 92.398438 C 2.984375 92.726562 2.894531 93.027344 2.742188 93.085938 C 2.472656 93.207031 -0.03125 98.199219 0 98.589844 C 0 98.738281 0.0898438 98.679688 0.179688 98.5 C 0.242188 98.289062 0.480469 98.109375 0.664062 98.109375 Z M 0.664062 98.109375 "
    />
    <path
      d="M 57.277344 100.355469 C 58.242188 99.457031 59.265625 98.710938 59.507812 98.710938 C 60.167969 98.710938 60.589844 98.171875 61.253906 96.617188 C 61.585938 95.867188 63.273438 92.308594 65.050781 88.6875 C 66.828125 85.070312 68.542969 81.601562 68.816406 80.972656 C 69.75 78.96875 72.613281 77.769531 74.328125 78.636719 C 74.601562 78.789062 75.65625 79.117188 76.648438 79.417969 C 77.644531 79.683594 78.699219 80.042969 78.96875 80.195312 C 79.269531 80.34375 79.753906 80.464844 80.054688 80.464844 C 80.355469 80.464844 80.746094 80.613281 80.957031 80.820312 C 81.230469 81.089844 81.441406 81.03125 81.921875 80.613281 C 82.40625 80.195312 82.523438 79.683594 82.523438 78.371094 C 82.523438 76.875 82.40625 76.574219 81.621094 75.828125 L 80.71875 74.960938 L 81.5625 74.0625 C 82.042969 73.554688 82.675781 72.65625 82.945312 72.089844 C 83.246094 71.519531 83.851562 70.382812 84.332031 69.546875 C 84.785156 68.738281 85.207031 67.75 85.207031 67.390625 C 85.238281 67.03125 85.386719 66.644531 85.539062 66.554688 C 85.71875 66.464844 85.839844 66.046875 85.839844 65.65625 C 85.839844 65.269531 85.988281 64.847656 86.140625 64.757812 C 86.320312 64.667969 86.441406 64.191406 86.441406 63.710938 C 86.441406 63.234375 86.59375 62.753906 86.742188 62.664062 C 86.921875 62.574219 87.042969 62.308594 87.042969 62.097656 C 87.042969 61.738281 75.054688 49.773438 71.679688 46.78125 C 70.773438 45.976562 69.71875 44.988281 69.386719 44.597656 L 68.726562 43.882812 L 66.496094 45.945312 C 65.289062 47.082031 63.84375 48.335938 63.332031 48.757812 C 62.789062 49.175781 62.339844 49.652344 62.339844 49.804688 C 62.339844 49.984375 61.613281 50.851562 60.710938 51.746094 C 59.023438 53.453125 58.902344 53.839844 60.046875 53.839844 C 61.855469 53.839844 62.308594 56.59375 60.558594 56.980469 C 60.078125 57.070312 59.386719 57.070312 58.992188 56.980469 C 58.390625 56.832031 57.9375 57.160156 56.3125 58.777344 C 54.867188 60.210938 54.355469 60.960938 54.355469 61.558594 C 54.355469 62.246094 54.203125 62.367188 53.417969 62.457031 C 52.726562 62.515625 51.914062 63.144531 50.046875 65 L 47.574219 67.453125 L 52.636719 72.476562 L 52.125 73.402344 C 51.851562 73.914062 51.429688 74.898438 51.191406 75.617188 C 50.980469 76.335938 50.679688 76.964844 50.558594 77.054688 C 50.4375 77.113281 49.984375 77.921875 49.5625 78.816406 C 49.140625 79.714844 48.417969 81.210938 47.996094 82.109375 C 47.574219 83.003906 47.121094 83.8125 46.972656 83.902344 C 46.820312 83.992188 45.828125 84.082031 44.742188 84.113281 C 42.8125 84.140625 42.785156 84.171875 41.339844 85.609375 L 39.890625 87.042969 L 47.425781 94.523438 C 51.550781 98.648438 55.078125 102 55.226562 102 C 55.347656 102 56.28125 101.253906 57.277344 100.355469 Z M 57.277344 100.355469 "
    />
  </g>
</svg>
