<svg xmlns="http://www.w3.org/2000/svg" id="root" viewBox="0 0 100 48">
  <path
    d="M 96.832031 46.65625 C 92.589844 44.636719 92.492188 44.597656 92.589844 44.480469 C 92.648438 44.417969 92.808594 44.480469 92.945312 44.578125 C 93.082031 44.675781 93.691406 44.972656 94.28125 45.230469 C 95.378906 45.683594 95.792969 45.863281 98.464844 47.089844 C 99.800781 47.703125 100.269531 48.019531 99.839844 48 C 99.742188 48 98.40625 47.386719 96.832031 46.65625 Z M 86.71875 41.988281 C 86.1875 41.730469 85.480469 41.414062 85.167969 41.296875 C 84.261719 40.917969 84.695312 40.859375 85.65625 41.214844 C 86.972656 41.75 88.328125 42.441406 87.996094 42.441406 C 87.839844 42.441406 87.269531 42.226562 86.71875 41.988281 Z M 82.003906 41.316406 C 81.886719 41.234375 80.925781 40.761719 79.84375 40.285156 C 77.390625 39.199219 76.996094 38.941406 76.996094 38.46875 C 76.996094 37.894531 77.761719 36.53125 78.078125 36.53125 C 78.449219 36.53125 81.789062 37.933594 82.910156 38.546875 C 83.929688 39.121094 84.027344 39.417969 83.535156 40.582031 C 83.242188 41.316406 83.085938 41.472656 82.691406 41.472656 C 82.398438 41.472656 82.101562 41.394531 82.003906 41.316406 Z M 82.003906 41.316406 "
  />
  <path
    d="M 73.65625 40.9375 C 73.382812 40.839844 72.890625 40.601562 70.023438 39.296875 C 69.492188 39.039062 67.6875 38.191406 66.019531 37.398438 C 64.367188 36.589844 62.933594 35.9375 62.855469 35.9375 C 62.777344 35.9375 62.421875 35.679688 62.089844 35.363281 C 61.578125 34.886719 61.480469 34.632812 61.480469 33.917969 C 61.480469 32.457031 62.640625 29.589844 63.738281 28.242188 C 64.601562 27.234375 65.566406 27.414062 70.21875 29.507812 C 70.554688 29.648438 71.65625 30.121094 72.675781 30.558594 C 73.695312 30.992188 75.40625 31.761719 76.464844 32.257812 L 78.371094 33.148438 L 78.371094 34.195312 C 78.371094 35.203125 78.332031 35.265625 77.644531 35.640625 C 76.464844 36.273438 75.289062 39.140625 76.015625 39.59375 C 76.308594 39.773438 76.25 39.988281 75.71875 40.5625 C 75.25 41.078125 74.421875 41.214844 73.65625 40.9375 Z M 58.160156 33.582031 C 57.652344 33.070312 57.613281 31.960938 58.042969 30.300781 C 58.398438 28.957031 59.359375 27.058594 59.988281 26.445312 C 60.578125 25.910156 61.65625 25.730469 62.148438 26.109375 C 62.480469 26.363281 62.480469 26.40625 61.792969 26.800781 C 60.441406 27.609375 58.90625 30.675781 58.828125 32.734375 C 58.808594 33.304688 58.75 33.820312 58.671875 33.878906 C 58.613281 33.9375 58.378906 33.800781 58.160156 33.582031 Z M 58.160156 33.582031 "
  />
  <path
    d="M 60.164062 32.121094 C 60.359375 30.160156 61.992188 27.414062 62.757812 27.710938 C 63.050781 27.808594 63.03125 27.886719 62.699219 28.363281 C 61.835938 29.589844 61.085938 31.050781 60.792969 32.078125 C 60.378906 33.503906 60.007812 33.523438 60.164062 32.121094 Z M 54.605469 31.785156 C 53.289062 30.457031 55.46875 25.039062 57.570312 24.367188 C 57.789062 24.289062 58.238281 24.347656 58.554688 24.484375 L 59.144531 24.722656 L 58.378906 25.179688 C 57.945312 25.433594 57.394531 25.929688 57.121094 26.285156 C 55.84375 27.988281 54.921875 30.875 55.371094 31.761719 C 55.570312 32.101562 55.550781 32.179688 55.292969 32.179688 C 55.136719 32.179688 54.824219 32 54.605469 31.785156 Z M 54.605469 31.785156 "
  />
  <path
    d="M 56.570312 30.855469 C 56.589844 29.488281 58.257812 26.148438 58.984375 26.066406 C 59.28125 26.027344 59.105469 26.425781 58.339844 27.589844 C 57.492188 28.835938 56.964844 30.140625 56.964844 30.914062 C 56.964844 31.171875 56.886719 31.386719 56.765625 31.386719 C 56.667969 31.386719 56.570312 31.152344 56.570312 30.855469 Z M 51.914062 30.695312 C 51.855469 30.519531 51.855469 30.339844 51.894531 30.28125 C 52.074219 30.101562 53.054688 30.597656 52.9375 30.792969 C 52.742188 31.109375 52.054688 31.03125 51.914062 30.695312 Z M 48.125 28.855469 C 46.671875 28.125 44.511719 27.097656 43.3125 26.5625 C 42.136719 26.027344 40.503906 25.296875 39.71875 24.941406 C 38.914062 24.566406 38.246094 24.269531 38.207031 24.269531 C 38.167969 24.269531 36.910156 23.675781 35.417969 22.964844 C 29.546875 20.136719 27.855469 19.324219 27.796875 19.324219 C 27.757812 19.324219 26.421875 18.691406 24.8125 17.921875 C 22.0625 16.597656 20.667969 15.941406 18.664062 15.015625 C 18.171875 14.796875 17.566406 14.382812 17.289062 14.085938 C 16.601562 13.351562 16.621094 11.929688 17.367188 10.328125 C 18.644531 7.5 19.785156 7.28125 23.632812 9.140625 C 24.617188 9.613281 26.1875 10.308594 27.109375 10.683594 C 29.171875 11.535156 35.691406 14.382812 37.65625 15.289062 C 38.460938 15.667969 39.148438 15.964844 39.1875 15.964844 C 39.226562 15.964844 39.816406 16.21875 40.503906 16.535156 C 41.191406 16.851562 44.136719 18.136719 47.042969 19.382812 C 49.972656 20.628906 52.859375 21.894531 53.488281 22.171875 L 54.644531 22.707031 L 53.722656 23.695312 C 52.621094 24.882812 51.582031 27.058594 51.246094 28.875 C 51.109375 29.609375 50.953125 30.203125 50.894531 30.179688 C 50.835938 30.179688 49.578125 29.589844 48.125 28.855469 Z M 52.976562 29.667969 C 52.683594 29.390625 52.859375 28.144531 53.328125 27.273438 C 53.605469 26.761719 53.820312 26.246094 53.820312 26.109375 C 53.820312 25.8125 55.078125 24.464844 55.371094 24.464844 C 55.726562 24.464844 55.628906 24.761719 54.84375 25.96875 C 53.976562 27.292969 53.429688 28.597656 53.429688 29.3125 C 53.429688 29.785156 53.230469 29.945312 52.976562 29.667969 Z M 55.253906 23.4375 C 55.292969 23.300781 55.449219 23.179688 55.589844 23.179688 C 55.726562 23.179688 55.882812 23.300781 55.941406 23.4375 C 55.980469 23.578125 55.84375 23.675781 55.589844 23.675781 C 55.332031 23.675781 55.195312 23.578125 55.253906 23.4375 Z M 14.835938 10.128906 C 14.304688 9.871094 12.714844 9.160156 11.300781 8.546875 C 6.996094 6.648438 3.933594 5.125 3.816406 4.789062 C 3.679688 4.433594 4.050781 3.898438 4.445312 3.898438 C 4.660156 3.898438 10.355469 6.351562 14.148438 8.09375 C 14.636719 8.328125 15.402344 8.664062 15.875 8.863281 C 16.757812 9.257812 16.796875 9.339844 16.503906 10.109375 C 16.269531 10.722656 16.089844 10.742188 14.835938 10.128906 Z M 14.835938 10.128906 "
  />
  <path
    d="M 2.148438 8.074219 C 0.632812 7.578125 0.0078125 6.570312 0.0078125 4.492188 C 0.0078125 2.890625 0.476562 1.824219 1.5 0.972656 C 3.621094 -0.808594 6.113281 -0.0546875 6.664062 2.496094 C 6.78125 3.089844 6.859375 3.601562 6.800781 3.644531 C 6.761719 3.683594 6.390625 3.582031 5.976562 3.40625 C 4.699219 2.871094 3.777344 2.929688 3.226562 3.5625 C 2.324219 4.632812 2.816406 5.71875 4.523438 6.449219 C 5.054688 6.6875 5.503906 6.90625 5.503906 6.964844 C 5.503906 7.003906 5.210938 7.261719 4.875 7.519531 C 4.148438 8.074219 2.933594 8.308594 2.148438 8.074219 Z M 2.148438 8.074219 "
  />
</svg>
