<svg id="root" xmlns="http://www.w3.org/2000/svg" width="768" height="441" viewBox="0 0 7680 4410">
  <g>
    <path
      d="M6260 3232c-216-102-221-104-216-110 3-3 11 0 18 5s38 20 68 33c56 23 77 32 213 94 68 31 92 47 70 46-5 0-73-31-153-68zm-515-236c-27-13-63-29-79-35-46-19-24-22 25-4 67 27 136 62 119 62-8 0-37-11-65-23zm-240-34c-6-4-55-28-110-52-125-55-145-68-145-92 0-29 39-98 55-98 19 0 189 71 246 102 52 29 57 44 32 103-15 37-23 45-43 45-15 0-30-4-35-8z" />
    <path
      d="M5080 2943c-14-5-39-17-185-83-27-13-119-56-204-96-84-41-157-74-161-74s-22-13-39-29c-26-24-31-37-31-73 0-74 59-219 115-287 44-51 93-42 330 64 17 7 73 31 125 53s139 61 193 86l97 45v53c0 51-2 54-37 73-60 32-120 177-83 200 15 9 12 20-15 49-24 26-66 33-105 19zm-789-372c-26-26-28-82-6-166 18-68 67-164 99-195 30-27 85-36 110-17 17 13 17 15-18 35-69 41-147 196-151 300-1 29-4 55-8 58-3 3-15-4-26-15z" />
    <path
      d="M4393 2497c10-99 93-238 132-223 15 5 14 9-3 33-44 62-82 136-97 188-21 72-40 73-32 2zm-283-17c-67-67 44-341 151-375 11-4 34-1 50 6l30 12-39 23c-22 13-50 38-64 56-65 86-112 232-89 277 10 17 9 21-4 21-8 0-24-9-35-20z" />
    <path
      d="M4210 2433c1-69 86-238 123-242 15-2 6 18-33 77-43 63-70 129-70 168 0 13-4 24-10 24-5 0-10-12-10-27zm-237-8c-3-9-3-18-1-21 9-9 59 16 53 26-10 16-45 12-52-5zm-193-93c-74-37-184-89-245-116-60-27-143-64-183-82-41-19-75-34-77-34s-66-30-142-66c-299-143-385-184-388-184-2 0-70-32-152-71-140-67-211-100-313-147-25-11-56-32-70-47-35-37-34-109 4-190 65-143 123-154 319-60 50 24 130 59 177 78 105 43 437 187 537 233 41 19 76 34 78 34s32 13 67 29 185 81 333 144c149 63 296 127 328 141l59 27-47 50c-56 60-109 170-126 262-7 37-15 67-18 66-3 0-67-30-141-67zm247 41c-15-14-6-77 18-121 14-26 25-52 25-59 0-15 64-83 79-83 18 0 13 15-27 76-44 67-72 133-72 169 0 24-10 32-23 18zm116-315c2-7 10-13 17-13s15 6 18 13c2 7-5 12-18 12s-20-5-17-12zm-2058-673c-27-13-108-49-180-80-219-96-375-173-381-190-7-18 12-45 32-45 11 0 301 124 494 212 25 12 64 29 88 39 45 20 47 24 32 63-12 31-21 32-85 1z" />
    <path
      d="M1439 1281c-77-25-109-76-109-181 0-81 24-135 76-178 108-90 235-52 263 77 6 30 10 56 7 58-2 2-21-3-42-12-65-27-112-24-140 8-46 54-21 109 66 146 27 12 50 23 50 26 0 2-15 15-32 28-37 28-99 40-139 28z" />
  </g>
</svg>