<svg xmlns="http://www.w3.org/2000/svg" id="root" viewBox="0 0 100 105">
  <path
    d="M 60.472656 102.621094 C 60.632812 100.53125 60.582031 100.160156 60.101562 99.3125 C 59.78125 98.8125 59.378906 98.386719 59.195312 98.386719 C 58.765625 98.386719 58.527344 97.199219 58.527344 95.1875 C 58.527344 93.839844 58.714844 93.308594 60.074219 90.664062 C 60.925781 89.023438 61.808594 87.386719 62.046875 87.015625 C 62.472656 86.378906 62.792969 85.214844 64.128906 79.34375 C 64.449219 77.96875 64.769531 75.667969 64.847656 74.265625 L 65.007812 71.703125 L 64.289062 71.410156 C 63.0625 70.960938 62.582031 71.09375 60.445312 72.441406 C 59.328125 73.15625 58.074219 73.898438 57.671875 74.082031 C 57.191406 74.292969 56.820312 74.742188 56.632812 75.351562 C 56.207031 76.671875 55.9375 76.910156 54.871094 77.125 C 54.367188 77.230469 53.671875 77.597656 53.324219 77.96875 C 52.765625 78.578125 52.605469 78.605469 51.992188 78.339844 C 50.898438 77.835938 50.175781 78.417969 49.832031 80.007812 C 49.429688 81.882812 48.578125 82.441406 46.921875 81.859375 C 45.214844 81.300781 45.109375 81.328125 42.976562 82.597656 C 41.910156 83.234375 38.46875 85.164062 35.320312 86.882812 C 32.171875 88.601562 28.707031 90.53125 27.613281 91.167969 C 26.542969 91.777344 25.53125 92.304688 25.371094 92.304688 C 25.210938 92.304688 23.878906 93.019531 22.410156 93.867188 C 20.917969 94.710938 18.890625 95.847656 17.847656 96.351562 C 15.929688 97.304688 12.0625 99.3125 9.445312 100.6875 C 4.433594 103.386719 5.019531 103.175781 2.40625 103.097656 L 0.00390625 103.015625 L 2.136719 101.933594 C 5.710938 100.132812 14.96875 95.1875 19.449219 92.703125 C 20.035156 92.382812 21.050781 91.828125 21.714844 91.457031 C 22.382812 91.113281 23.398438 90.53125 23.984375 90.1875 C 24.570312 89.84375 25.957031 89.105469 27.050781 88.523438 C 28.144531 87.941406 29.34375 87.28125 29.71875 87.015625 C 30.09375 86.777344 31.347656 86.0625 32.519531 85.429688 C 33.691406 84.792969 34.945312 84.078125 35.320312 83.839844 C 35.988281 83.390625 38.199219 82.203125 42.601562 79.925781 C 44.574219 78.867188 44.921875 78.605469 44.921875 78.023438 C 44.921875 76.78125 45.214844 76.117188 45.695312 76.304688 C 45.9375 76.410156 46.496094 76.542969 46.921875 76.621094 C 47.777344 76.753906 47.671875 76.9375 48.789062 73.101562 C 49.03125 72.257812 54.578125 66.015625 58.234375 62.417969 C 62.742188 58 64.394531 55.886719 64.394531 54.429688 C 64.394531 53.953125 64.742188 52.683594 65.195312 51.652344 C 65.621094 50.597656 66.046875 48.980469 66.15625 48.082031 C 66.261719 47.15625 66.503906 46.097656 66.6875 45.703125 C 66.902344 45.304688 67.0625 44.460938 67.0625 43.824219 C 67.0625 43.058594 67.222656 42.527344 67.488281 42.289062 C 67.941406 41.921875 69.730469 38.480469 69.730469 37.953125 C 69.730469 37.792969 70.554688 36.65625 71.597656 35.414062 C 73.25 33.429688 75.011719 31.183594 77.519531 27.824219 C 78.292969 26.765625 78.320312 26.605469 78 26.105469 C 77.785156 25.789062 77.226562 24.753906 76.746094 23.804688 C 75.757812 21.898438 75.039062 21.160156 74.15625 21.160156 C 73.863281 21.160156 73.035156 20.65625 72.371094 20.019531 C 71.222656 18.964844 71.144531 18.804688 70.796875 16.792969 C 70.609375 15.632812 70.421875 13.859375 70.394531 12.828125 C 70.371094 11.824219 70.183594 10.710938 69.996094 10.421875 C 69.703125 9.945312 69.757812 9.519531 70.371094 7.40625 C 70.742188 6.03125 71.25 4.734375 71.464844 4.496094 C 71.945312 3.96875 71.96875 3.386719 71.570312 2.988281 C 71.089844 2.511719 72.398438 1.429688 74.023438 0.925781 C 75.863281 0.398438 78.503906 0 80.453125 0 C 81.679688 0 82.292969 0.183594 83.785156 0.953125 C 86.1875 2.222656 86.453125 2.484375 87.46875 4.550781 C 88.535156 6.746094 88.800781 8.621094 88.402344 11.292969 C 88.082031 13.566406 86.960938 17.695312 86.402344 18.777344 C 85.894531 19.730469 86.214844 20.101562 87.628906 20.179688 C 88.695312 20.257812 88.828125 20.339844 89.121094 21.160156 C 89.308594 21.660156 89.441406 22.347656 89.441406 22.667969 C 89.46875 23.117188 89.976562 23.59375 91.414062 24.492188 C 94.429688 26.449219 97.46875 29.859375 97.46875 31.339844 C 97.46875 31.578125 97.84375 32.242188 98.269531 32.769531 C 98.722656 33.296875 99.203125 33.855469 99.335938 34.039062 C 99.496094 34.222656 99.605469 34.648438 99.605469 35.019531 C 99.605469 35.386719 99.738281 35.757812 99.871094 35.835938 C 100.058594 35.941406 100.03125 36.207031 99.816406 36.578125 C 99.550781 37.082031 99.335938 38.007812 98.695312 41.390625 C 98.644531 41.683594 98.324219 42.6875 98.003906 43.640625 C 97.550781 44.960938 97.390625 46.074219 97.363281 48.53125 C 97.308594 50.304688 97.148438 52.15625 96.964844 52.683594 C 96.777344 53.214844 96.617188 54.617188 96.589844 55.78125 C 96.511719 57.816406 96.484375 57.976562 95.601562 58.902344 C 95.097656 59.429688 94.054688 60.25 93.308594 60.726562 C 92.480469 61.253906 91.816406 61.914062 91.601562 62.417969 C 91.253906 63.210938 91.28125 63.289062 92.082031 64.03125 C 92.5625 64.480469 93.015625 65.140625 93.097656 65.539062 C 93.203125 65.9375 93.46875 66.464844 93.683594 66.730469 C 93.921875 66.992188 94.1875 68 94.296875 69.003906 C 94.402344 70.035156 94.75 71.277344 95.070312 71.832031 C 95.363281 72.414062 95.789062 73.15625 96.003906 73.527344 C 96.855469 75.058594 97.285156 78.101562 97.363281 83.046875 C 97.445312 88.441406 97.789062 92.144531 98.5625 96.140625 C 98.832031 97.59375 99.175781 99.738281 99.335938 100.902344 C 99.472656 102.0625 99.683594 103.464844 99.765625 104.019531 L 99.949219 105 L 60.3125 105 Z M 63.113281 67.917969 C 65.007812 66.703125 66.234375 65.484375 65.886719 65.140625 C 65.808594 65.035156 65.515625 65.167969 65.25 65.40625 C 64.980469 65.671875 64.527344 65.855469 64.261719 65.855469 C 62.714844 65.855469 57.726562 69.003906 57.726562 69.980469 C 57.726562 70.90625 59.40625 70.273438 63.113281 67.917969 Z M 63.113281 67.917969 "
  />
</svg>
