<svg id="root" xmlns="http://www.w3.org/2000/svg" width="768" height="441" viewBox="0 0 7680 4410">
  <path
    d="M3923 4320c6-79 4-93-14-125-12-19-27-35-34-35-16 0-25-45-25-121 0-51 7-71 58-171 32-62 65-124 74-138 16-24 28-68 78-290 12-52 24-139 27-192l6-97-27-11c-46-17-64-12-144 39-42 27-89 55-104 62-18 8-32 25-39 48-16 50-26 59-66 67-19 4-45 18-58 32-21 23-27 24-50 14-41-19-68 3-81 63-15 71-47 92-109 70-64-21-68-20-148 28-40 24-169 97-287 162s-248 138-289 162c-40 23-78 43-84 43s-56 27-111 59c-56 32-132 75-171 94-72 36-217 112-315 164-188 102-166 94-264 91l-90-3 80-41c134-68 481-255 649-349 22-12 60-33 85-47 25-13 63-35 85-48s74-41 115-63 86-47 100-57c14-9 61-36 105-60s91-51 105-60c25-17 108-62 273-148 74-40 87-50 87-72 0-47 11-72 29-65 9 4 30 9 46 12 32 5 28 12 70-133 9-32 217-268 354-404 169-167 231-247 231-302 0-18 13-66 30-105 16-40 32-101 36-135 4-35 13-75 20-90 8-15 14-47 14-71 0-29 6-49 16-58 17-14 84-144 84-164 0-6 31-49 70-96 62-75 128-160 222-287 29-40 30-46 18-65-8-12-29-51-47-87-37-72-64-100-97-100-11 0-42-19-67-43-43-40-46-46-59-122-7-44-14-111-15-150-1-38-8-80-15-91-11-18-9-34 14-114 14-52 33-101 41-110 18-20 19-42 4-57-18-18 31-59 92-78 69-20 168-35 241-35 46 0 69 7 125 36 90 48 100 58 138 136 40 83 50 154 35 255-12 86-54 242-75 283-19 36-7 50 46 53 40 3 45 6 56 37 7 19 12 45 12 57 1 17 20 35 74 69 113 74 227 203 227 259 0 9 14 34 30 54 17 20 35 41 40 48 6 7 10 23 10 37s5 28 10 31c7 4 6 14-2 28-10 19-18 54-42 182-2 11-14 49-26 85-17 50-23 92-24 185-2 67-8 137-15 157s-13 73-14 117c-3 77-4 83-37 118-19 20-58 51-86 69-31 20-56 45-64 64-13 30-12 33 18 61 18 17 35 42 38 57 4 15 14 35 22 45 9 10 19 48 23 86 4 39 17 86 29 107 11 22 27 50 35 64 32 58 48 173 51 360 3 204 16 344 45 495 10 55 23 136 29 180 5 44 13 97 16 118l7 37H3917l6-90zm99-1312c71-46 117-92 104-105-3-4-14 1-24 10-10 10-27 17-37 17-58 0-245 119-245 156 0 35 63 11 202-78z" />
</svg>