<svg xmlns="http://www.w3.org/2000/svg" id="root" viewBox="0 0 100 118">
  <path
    d="M 79.332031 117.433594 C 74.976562 116.617188 60.605469 112.996094 49.773438 109.890625 C 32.425781 104.933594 23.707031 102.992188 15.640625 102.132812 C 10.027344 101.570312 5.628906 102.046875 2.390625 103.640625 C 0.105469 104.761719 -0.0273438 104.589844 0.878906 101.699219 C 1.269531 100.277344 1.226562 99.804688 0.578125 98.554688 C -0.199219 97.132812 -0.199219 97.085938 0.707031 95.925781 C 1.226562 95.277344 1.65625 94.371094 1.65625 93.898438 C 1.65625 92.90625 3.125 89.976562 4.59375 88.035156 C 6.101562 86.050781 12.703125 81.3125 15.164062 80.492188 L 17.234375 79.800781 L 22.070312 84.671875 C 28.84375 91.441406 34.410156 94.71875 43.429688 97.042969 C 52.492188 99.414062 65.351562 97.992188 73.851562 93.726562 C 76.011719 92.648438 80.886719 89.5 82.914062 87.863281 C 84.125 86.871094 84.125 86.871094 85.503906 87.691406 C 86.28125 88.164062 87.359375 88.769531 87.964844 89.070312 C 89.734375 90.019531 94.222656 94.457031 96.078125 97.132812 C 97.242188 98.8125 98.019531 100.578125 98.539062 102.734375 C 98.925781 104.417969 99.488281 106.398438 99.703125 107.089844 C 100.132812 108.082031 100.089844 108.382812 99.488281 108.726562 C 98.96875 108.984375 98.753906 109.71875 98.753906 111.183594 C 98.753906 113.640625 97.542969 115.710938 95.300781 117.003906 C 94.007812 117.777344 92.96875 117.910156 88.394531 117.996094 C 85.03125 118.039062 81.621094 117.824219 79.332031 117.433594 Z M 79.332031 117.433594 "
  />
  <path
    d="M 48.261719 97 C 25.21875 94.285156 7.742188 72.214844 10.289062 49.109375 C 12.316406 30.789062 23.535156 17.167969 41.359375 11.433594 C 44.59375 10.355469 45.890625 10.226562 52.234375 10.054688 C 60.648438 9.796875 64.316406 10.355469 70.445312 12.8125 C 92.753906 21.691406 103.542969 47.039062 94.566406 69.585938 C 91.632812 76.957031 87.359375 82.90625 81.535156 87.605469 C 74.847656 92.992188 67.25 96.097656 58.578125 97 C 53.785156 97.476562 52.40625 97.476562 48.261719 97 Z M 62.117188 95.878906 C 77.996094 92.863281 90.121094 82.085938 95 66.609375 C 98.753906 54.671875 97.199219 41.351562 90.8125 30.402344 C 88.484375 26.390625 80.972656 18.933594 76.960938 16.5625 C 69.925781 12.46875 64.101562 10.789062 55.382812 10.484375 C 49.644531 10.269531 48.480469 10.355469 45.242188 11.175781 C 30.871094 14.839844 21.722656 21.953125 15.683594 33.980469 C 7.742188 49.84375 10.546875 69.84375 22.5 82.605469 C 24.398438 84.628906 27.074219 87.128906 28.457031 88.207031 C 32.988281 91.65625 40.539062 95.019531 46.320312 96.097656 C 49.859375 96.742188 58.1875 96.613281 62.117188 95.878906 Z M 62.117188 95.878906 "
  />
  <path
    d="M 46.882812 95.277344 C 41.53125 94.371094 35.574219 91.914062 30.613281 88.59375 C 27.722656 86.65625 23.019531 82.300781 21.464844 80.148438 L 20.644531 78.984375 L 22.585938 78.464844 C 23.621094 78.164062 25.003906 78.078125 25.609375 78.207031 C 26.210938 78.378906 27.507812 78.25 28.457031 77.992188 C 30.09375 77.472656 30.226562 77.515625 31.5625 78.765625 C 35.621094 82.648438 41.617188 85.621094 47.832031 86.914062 C 55.339844 88.421875 66.085938 86.527344 71.609375 82.691406 C 72.773438 81.914062 72.773438 81.914062 75.277344 83.421875 C 76.660156 84.242188 78.082031 84.84375 78.425781 84.757812 C 78.816406 84.628906 79.679688 84.800781 80.414062 85.105469 L 81.664062 85.621094 L 79.117188 87.648438 C 76.527344 89.671875 71.179688 92.519531 67.683594 93.726562 C 62.589844 95.492188 52.578125 96.226562 46.882812 95.277344 Z M 46.882812 95.277344 "
  />
  <path
    d="M 48.046875 86.050781 C 34.582031 83.421875 24.054688 72.558594 21.636719 58.851562 C 18.054688 38.332031 34.367188 19.710938 55.210938 20.484375 C 77.566406 21.304688 92.238281 42.816406 85.117188 64.238281 C 82.484375 72.042969 76.140625 79.414062 68.675781 83.164062 C 63.195312 85.964844 54.132812 87.214844 48.046875 86.050781 Z M 61.125 85.105469 C 70.316406 83.207031 78.296875 77.042969 82.570312 68.550781 C 85.289062 63.164062 86.023438 59.972656 86.023438 53.464844 C 86.023438 49.195312 85.808594 46.910156 85.246094 44.886719 C 82.226562 33.980469 74.371094 25.832031 63.582031 22.425781 C 58.878906 20.960938 51.285156 20.746094 46.539062 21.953125 C 34.109375 25.183594 25.867188 33.417969 22.757812 45.703125 C 21.464844 50.875 21.722656 58.636719 23.40625 63.550781 C 28.84375 79.542969 44.550781 88.507812 61.125 85.105469 Z M 61.125 85.105469 "
  />
  <path
    d="M 46.277344 84.113281 C 42.351562 83.035156 37.433594 80.578125 34.757812 78.335938 L 32.640625 76.613281 L 35.664062 75.234375 C 37.300781 74.457031 38.941406 73.378906 39.332031 72.820312 C 39.976562 71.914062 40.105469 71.871094 40.839844 72.558594 C 42.136719 73.722656 47.011719 75.75 49.902344 76.308594 C 54.261719 77.171875 60.390625 76.351562 64.144531 74.414062 C 65.914062 73.507812 65.871094 73.507812 66.214844 75.234375 C 66.429688 76.351562 67.078125 77.300781 68.589844 78.59375 L 70.660156 80.363281 L 69.019531 81.3125 C 68.15625 81.871094 65.871094 82.820312 63.972656 83.464844 C 59.265625 85.0625 50.851562 85.363281 46.277344 84.113281 Z M 46.277344 84.113281 "
  />
  <path
    d="M 49.601562 75.40625 C 41.875 73.894531 34.625 66.828125 32.511719 58.851562 C 30.65625 51.652344 32.945312 43.074219 38.078125 37.816406 C 42.351562 33.460938 49.558594 30.703125 55.210938 31.21875 C 67.683594 32.339844 76.097656 41.351562 76.054688 53.464844 C 76.011719 59.84375 73.898438 64.972656 69.410156 69.457031 C 64.488281 74.414062 56.59375 76.785156 49.601562 75.40625 Z M 59.957031 74.242188 C 68.632812 71.828125 74.847656 63.851562 75.363281 54.539062 C 75.664062 48.074219 73.851562 42.859375 69.710938 38.503906 C 61.296875 29.625 46.753906 29.667969 38.382812 38.632812 C 27.375 50.359375 32.382812 69.285156 47.789062 74.199219 C 51.023438 75.234375 56.332031 75.234375 59.957031 74.242188 Z M 59.957031 74.242188 "
  />
  <path
    d="M 49.039062 73.722656 C 47.3125 73.292969 43 71.179688 41.660156 70.101562 C 40.925781 69.542969 40.925781 69.242188 41.445312 65.792969 C 41.917969 62.257812 41.917969 62.042969 41.054688 61.136719 C 39.589844 59.542969 38.898438 57.773438 38.164062 53.765625 C 37.171875 48.460938 36.828125 47.730469 35.792969 48.289062 C 33.589844 49.453125 33.589844 48.203125 35.75 43.722656 C 37.128906 40.917969 40.539062 37.253906 43.34375 35.574219 C 47.660156 33.03125 54.519531 32.082031 59.265625 33.375 C 65.828125 35.144531 71.394531 40.1875 73.421875 46.222656 C 74.027344 47.859375 74.027344 48.160156 73.421875 48.851562 C 73.035156 49.238281 72.386719 49.582031 71.996094 49.582031 C 71.394531 49.582031 71.179688 50.144531 70.917969 52.429688 C 70.445312 57.042969 69.582031 59.195312 67.335938 61.695312 L 65.308594 63.9375 L 65.222656 67.429688 C 65.136719 71.394531 64.878906 71.742188 60.992188 73.078125 C 58.492188 73.980469 51.5 74.328125 49.039062 73.722656 Z M 57.714844 65.273438 C 60.519531 64.457031 63.753906 61.609375 65.136719 58.722656 C 66.472656 55.921875 66.515625 51.050781 65.265625 48.246094 C 62.589844 42.429688 55.773438 39.582031 49.816406 41.824219 C 42.179688 44.710938 39.289062 53.160156 43.558594 60.144531 C 46.492188 64.929688 52.0625 66.957031 57.714844 65.273438 Z M 57.714844 65.273438 "
  />
  <path
    d="M 50.765625 64.542969 C 46.0625 63.207031 42.652344 58.59375 42.652344 53.507812 C 42.652344 42.902344 55.210938 37.988281 62.332031 45.789062 C 64.488281 48.117188 65.265625 50.273438 65.265625 53.679688 C 65.222656 56.824219 64.402344 58.808594 62.203125 61.222656 C 59.398438 64.371094 54.867188 65.664062 50.765625 64.542969 Z M 57.886719 63.550781 C 60.347656 62.730469 63.410156 59.542969 64.144531 57 C 66.34375 49.625 61.425781 42.6875 54.046875 42.6875 C 48.21875 42.730469 43.820312 46.695312 43.214844 52.386719 C 42.394531 60.359375 50.074219 66.222656 57.886719 63.550781 Z M 57.886719 63.550781 "
  />
  <path
    d="M 49.816406 62.515625 C 47.355469 61.265625 46.148438 60.015625 44.984375 57.558594 C 43.257812 53.9375 43.773438 50.058594 46.40625 47.039062 C 52.40625 40.015625 63.796875 44.195312 63.796875 53.464844 C 63.796875 56.480469 62.71875 58.808594 60.433594 60.878906 C 57.585938 63.464844 53.097656 64.152344 49.816406 62.515625 Z M 55.339844 54.929688 C 55.730469 54.585938 56.03125 53.894531 56.03125 53.464844 C 56.03125 53.03125 55.730469 52.34375 55.339844 51.996094 C 54.089844 50.703125 51.714844 51.609375 51.714844 53.335938 C 51.714844 54.324219 52.96875 55.617188 53.917969 55.617188 C 54.347656 55.617188 54.996094 55.316406 55.339844 54.929688 Z M 55.339844 54.929688 "
  />
  <path
    d="M 53.011719 54.066406 C 52.535156 53.550781 52.578125 53.289062 53.140625 52.6875 C 53.832031 52.039062 53.917969 52.039062 54.605469 52.6875 C 55.167969 53.289062 55.210938 53.550781 54.734375 54.066406 C 54.433594 54.453125 54.046875 54.757812 53.875 54.757812 C 53.699219 54.757812 53.3125 54.453125 53.011719 54.066406 Z M 32.511719 41.179688 L 32.511719 37.730469 L 30.785156 37.859375 C 29.492188 37.945312 28.84375 37.773438 28.28125 37.167969 C 27.550781 36.394531 27.59375 36.21875 29.449219 33.71875 C 34.582031 26.78125 44.507812 21.996094 53.832031 21.996094 C 56.117188 21.996094 59.355469 22.296875 60.992188 22.640625 C 64.402344 23.375 70.359375 26.046875 73.035156 28.117188 C 75.882812 30.273438 78.515625 33.246094 78.082031 33.804688 C 77.261719 34.839844 75.019531 40.789062 75.019531 42.039062 C 75.019531 43.289062 74.976562 43.289062 73.765625 41.222656 C 71.222656 36.910156 66.386719 33.074219 61.296875 31.347656 C 50.980469 27.902344 38.683594 32.773438 33.675781 42.296875 L 32.46875 44.625 Z M 32.511719 41.179688 "
  />
  <path
    d="M 25.824219 32.039062 C 25.867188 31.132812 26.039062 29.539062 26.210938 28.546875 C 26.472656 27.167969 26.382812 26.089844 25.910156 24.539062 L 25.21875 22.382812 L 26.472656 21.261719 C 30.355469 17.898438 36.828125 14.539062 43 12.640625 C 47.617188 11.261719 55.597656 10.832031 60.691406 11.648438 C 67.640625 12.769531 74.199219 15.484375 79.550781 19.539062 L 82.570312 21.824219 L 82.484375 24.238281 C 82.441406 26.046875 82.09375 27.125 81.101562 28.761719 L 79.808594 30.875 L 76.875 28.160156 C 74.804688 26.21875 72.6875 24.796875 69.625 23.289062 C 63.539062 20.3125 60.90625 19.710938 53.875 19.667969 C 48.347656 19.625 47.832031 19.710938 43.949219 21.046875 C 36.957031 23.460938 31.261719 27.253906 27.980469 31.609375 C 27.160156 32.730469 26.339844 33.632812 26.167969 33.632812 C 25.953125 33.632812 25.824219 32.902344 25.824219 32.039062 Z M 25.824219 32.039062 "
  />
  <path
    d="M 78.902344 16.089844 C 72.300781 11.648438 64.445312 9.234375 55.253906 8.804688 C 50.03125 8.546875 48.867188 8.632812 45.242188 9.492188 C 38.984375 11.003906 32.945312 13.460938 28.972656 16.132812 C 26.859375 17.597656 26.6875 16.953125 28.371094 13.632812 C 29.835938 10.699219 32.125 8.199219 35.878906 5.355469 C 40.410156 1.949219 41.53125 1.605469 48.910156 1.433594 C 53.527344 1.304688 55.859375 1.042969 56.980469 0.570312 C 59.398438 -0.464844 64.445312 -0.03125 66.863281 1.390625 C 67.898438 1.992188 69.148438 2.941406 69.625 3.457031 C 70.097656 3.976562 71.609375 4.96875 72.945312 5.65625 C 74.714844 6.5625 75.796875 7.46875 76.613281 8.761719 C 77.996094 10.917969 81.621094 17.683594 81.40625 17.683594 C 81.320312 17.683594 80.195312 16.996094 78.902344 16.089844 Z M 78.902344 16.089844 "
  />
</svg>
