<svg id="root" xmlns="http://www.w3.org/2000/svg" width="768" height="441" viewBox="0 0 7680 4410">
  <g fill="#000002">
    <path
      d="M4440 3674c-101-19-434-103-685-175-402-115-604-160-791-180-130-13-232-2-307 35-53 26-56 22-35-45 9-33 8-44-7-73-18-33-18-34 3-61 12-15 22-36 22-47 0-23 34-91 68-136 35-46 188-156 245-175l48-16 112 113c157 157 286 233 495 287 210 55 508 22 705-77 50-25 163-98 210-136 28-23 28-23 60-4 18 11 43 25 57 32 41 22 145 125 188 187 27 39 45 80 57 130 9 39 22 85 27 101 10 23 9 30-5 38-12 6-17 23-17 57 0 57-28 105-80 135-30 18-54 21-160 23-78 1-157-4-210-13z" />
    <path
      d="M3720 3200c-534-63-939-575-880-1111 47-425 307-741 720-874 75-25 105-28 252-32 195-6 280 7 422 64 517 206 767 794 559 1317-68 171-167 309-302 418-155 125-331 197-532 218-111 11-143 11-239 0zm321-26c368-70 649-320 762-679 87-277 51-586-97-840-54-93-228-266-321-321-163-95-298-134-500-141-133-5-160-3-235 16-333 85-545 250-685 529-184 368-119 832 158 1128 44 47 106 105 138 130 105 80 280 158 414 183 82 15 275 12 366-5z" />
    <path
      d="M3688 3160c-124-21-262-78-377-155-67-45-176-146-212-196l-19-27 45-12c24-7 56-9 70-6 14 4 44 1 66-5 38-12 41-11 72 18 94 90 233 159 377 189 174 35 423-9 551-98 27-18 27-18 85 17 32 19 65 33 73 31 9-3 29 1 46 8l29 12-59 47c-60 47-184 113-265 141-118 41-350 58-482 36z" />
    <path
      d="M3715 2946c-312-61-556-313-612-631-83-476 295-908 778-890 518 19 858 518 693 1015-61 181-208 352-381 439-127 65-337 94-478 67zm303-22c213-44 398-187 497-384 63-125 80-199 80-350 0-99-5-152-18-199-70-253-252-442-502-521-109-34-285-39-395-11-288 75-479 266-551 551-30 120-24 300 15 414 126 371 490 579 874 500z" />
    <path
      d="M3674 2901c-91-25-205-82-267-134l-49-40 70-32c38-18 76-43 85-56 15-21 18-22 35-6 30 27 143 74 210 87 101 20 243 1 330-44 41-21 40-21 48 19 5 26 20 48 55 78l48 41-38 22c-20 13-73 35-117 50-109 37-304 44-410 15z" />
    <path
      d="M3751 2699c-179-35-347-199-396-384-43-167 10-366 129-488 99-101 266-165 397-153 289 26 484 235 483 516-1 148-50 267-154 371-114 115-297 170-459 138zm240-27c201-56 345-241 357-457 7-150-35-271-131-372-195-206-532-205-726 3-255 272-139 711 218 825 75 24 198 24 282 1z" />
    <path
      d="M3738 2660c-40-10-140-59-171-84-17-13-17-20-5-100 11-82 11-87-9-108-34-37-50-78-67-171-23-123-31-140-55-127-51 27-51-2-1-106 32-65 111-150 176-189 100-59 259-81 369-51 152 41 281 158 328 298 14 38 14 45 0 61-9 9-24 17-33 17-14 0-19 13-25 66-11 107-31 157-83 215l-47 52-2 81c-2 92-8 100-98 131-58 21-220 29-277 15zm201-196c65-19 140-85 172-152 31-65 32-178 3-243-62-135-220-201-358-149-177 67-244 263-145 425 68 111 197 158 328 119z" />
    <path
      d="M3778 2447c-109-31-188-138-188-256 0-246 291-360 456-179 50 54 68 104 68 183-1 73-20 119-71 175-65 73-170 103-265 77zm165-23c57-19 128-93 145-152 51-171-63-332-234-332-135 1-237 93-251 225-19 185 159 321 340 259z" />
    <path
      d="M3756 2400c-57-29-85-58-112-115-40-84-28-174 33-244 139-163 403-66 403 149 0 70-25 124-78 172-66 60-170 76-246 38zm128-176c9-8 16-24 16-34s-7-26-16-34c-29-30-84-9-84 31 0 23 29 53 51 53 10 0 25-7 33-16z" />
    <path
      d="M3830 2204c-11-12-10-18 3-32 16-15 18-15 34 0 13 14 14 20 3 32-7 9-16 16-20 16s-13-7-20-16zm-475-299v-80l-40 3c-30 2-45-2-58-16-17-18-16-22 27-80 119-161 349-272 565-272 53 0 128 7 166 15 79 17 217 79 279 127 66 50 127 119 117 132-19 24-71 162-71 191s-1 29-29-19c-59-100-171-189-289-229-239-80-524 33-640 254l-28 54 1-80z" />
    <path
      d="M3200 1693c1-21 5-58 9-81 6-32 4-57-7-93l-16-50 29-26c90-78 240-156 383-200 107-32 292-42 410-23 161 26 313 89 437 183l70 53-2 56c-1 42-9 67-32 105l-30 49-68-63c-48-45-97-78-168-113-141-69-202-83-365-84-128-1-140 1-230 32-162 56-294 144-370 245-19 26-38 47-42 47-5 0-8-17-8-37z" />
    <path
      d="M4430 1323c-153-103-335-159-548-169-121-6-148-4-232 16-145 35-285 92-377 154-49 34-53 19-14-58 34-68 87-126 174-192 105-79 131-87 302-91 107-3 161-9 187-20 56-24 173-14 229 19 24 14 53 36 64 48s46 35 77 51c41 21 66 42 85 72 32 50 116 207 111 207-2 0-28-16-58-37z" />
  </g>
</svg>