<svg id="root" id="outputsvg" xmlns="http://www.w3.org/2000/svg"
  style="transform: none; transform-origin: 50% 50%; cursor: move; max-height: none;" width="727" height="409"
  viewBox="0 0 7270 4090">
  <g id="l4tsbKRGOI1p13vVAPLifI4">
    <g>
      <path id="pqD3Bi7Ms"
        d="M1974 4009 c-54 -45 -121 -99 -149 -120 -27 -22 -81 -66 -120 -99 -38 -33 -128 -107 -200 -165 -71 -59 -166 -137 -210 -175 -44 -37 -93 -79 -110 -91 -48 -38 -290 -245 -347 -299 -23 -21 -89 -125 -169 -265 -170 -297 -191 -335 -181 -335 9 0 70 86 85 120 4 8 20 34 35 57 15 24 56 89 91 145 155 248 130 221 415 461 141 119 178 151 220 189 56 51 72 48 38 -6 -15 -25 -51 -84 -81 -133 -30 -48 -77 -124 -106 -168 -50 -78 -61 -107 -104 -280 -34 -135 -16 -107 56 85 34 90 76 163 258 445 39 61 82 128 95 150 13 22 30 46 37 53 7 7 13 17 13 21 0 4 44 43 97 87 53 43 115 95 138 114 41 34 87 71 134 107 13 10 40 32 60 49 20 16 59 47 87 67 28 20 57 44 64 52 11 13 8 15 -17 15 -22 0 -55 -20 -129 -81z">
      </path>
      <path id="p13eTsXHn3"
        d="M3140 4086 c0 -6 120 -284 159 -368 28 -62 34 -68 61 -68 37 0 85 20 124 52 l29 24 -38 85 c-46 102 -66 147 -99 222 l-25 57 -105 0 c-59 0 -106 -2 -106 -4z">
      </path>
      <path id="poP83CdTo"
        d="M4580 4067 c-25 -13 -161 -97 -303 -187 -141 -91 -275 -176 -296 -190 -22 -14 -76 -47 -120 -75 -44 -27 -81 -56 -81 -62 0 -28 15 -19 340 193 305 199 447 283 560 332 23 10 22 11 -15 11 -22 0 -60 -10 -85 -22z">
      </path>
      <path id="pTRZhxpPS"
        d="M5462 4030 c-131 -58 -178 -89 -328 -219 -183 -160 -267 -222 -384 -283 -69 -36 -147 -78 -175 -93 -178 -98 -245 -129 -322 -150 -92 -25 -109 -35 -100 -58 4 -12 14 -12 64 -1 83 17 132 37 241 96 198 105 283 148 297 148 8 0 15 4 15 8 0 5 22 21 49 35 l48 27 164 -10 c90 -5 268 -14 394 -20 127 -5 300 -14 385 -20 85 -5 207 -11 270 -14 99 -3 130 -9 225 -41 61 -20 124 -37 140 -37 34 -2 91 22 88 36 -2 10 -124 50 -258 87 -79 22 -193 30 -840 59 -253 12 -443 24 -449 30 -7 7 3 21 29 43 22 17 76 64 120 102 165 146 208 174 393 256 l177 79 -55 -1 c-45 0 -80 -11 -188 -59z">
      </path>
      <path id="p132d3nXZT"
        d="M3506 3639 c-35 -26 -95 -49 -168 -64 -36 -7 -36 -29 1 -125 29 -75 30 -75 69 -78 59 -5 193 50 231 94 42 47 47 77 26 138 -22 61 -28 66 -80 65 -28 0 -52 -9 -79 -30z">
      </path>
      <path id="pLsisFsUr"
        d="M6980 3503 c-8 -3 -71 -26 -140 -50 -143 -52 -287 -107 -345 -133 -22 -10 -75 -34 -119 -54 -43 -20 -84 -36 -92 -36 -20 0 -157 -46 -196 -66 -67 -34 -154 -89 -208 -132 -75 -59 -239 -221 -255 -252 -38 -74 -106 -323 -124 -455 -7 -44 -18 -120 -26 -170 -8 -49 -19 -153 -24 -230 -24 -332 -31 -444 -30 -506 3 -194 -60 -345 -208 -495 -56 -57 -147 -127 -178 -138 -11 -3 -31 -21 -44 -39 -66 -89 -263 -187 -377 -187 -36 0 -43 -3 -48 -24 -3 -14 -19 -29 -37 -37 -30 -12 -33 -11 -53 14 -15 19 -31 27 -52 27 -26 0 -49 19 -155 128 -235 241 -235 241 -242 298 -8 59 -40 94 -101 114 -65 21 -102 -12 -97 -87 1 -28 -13 -49 -107 -155 -99 -113 -111 -123 -144 -124 -47 -1 -58 -10 -58 -45 0 -48 24 -84 66 -97 45 -14 64 -5 78 38 7 19 58 78 126 146 145 143 146 143 232 37 35 -42 110 -133 166 -202 106 -129 116 -144 127 -196 4 -17 26 -49 51 -72 37 -36 51 -43 84 -43 32 0 43 5 62 30 37 50 53 40 89 -55 17 -47 36 -88 42 -92 5 -3 50 -7 100 -8 58 -1 93 -7 95 -14 2 -6 17 -18 33 -27 23 -12 38 -13 67 -4 20 5 48 10 62 10 18 0 42 17 78 53 43 44 53 60 53 88 1 28 10 42 57 86 57 51 57 52 57 109 l0 57 80 35 c112 48 227 127 315 216 101 102 106 119 21 69 -88 -51 -222 -144 -320 -223 -55 -44 -105 -80 -113 -80 -7 0 -24 21 -38 47 -18 34 -33 49 -54 55 -27 7 -36 1 -104 -64 -107 -101 -258 -168 -382 -168 -43 0 -54 10 -45 40 5 15 15 20 43 20 47 0 154 30 212 60 69 35 144 94 160 126 26 52 31 56 50 39 17 -15 22 -13 76 31 145 116 240 228 309 363 47 95 61 160 80 366 8 99 22 245 30 325 8 80 22 276 31 435 l16 290 66 100 c109 166 188 264 316 391 141 141 230 202 341 237 110 35 390 102 506 122 l96 17 22 53 c12 30 29 59 37 66 26 21 17 34 -16 22z">
      </path>
      <path id="p1GBM0pCLc"
        d="M3709 3446 c-12 -18 -36 -42 -53 -54 -49 -33 -176 -80 -237 -87 l-56 -7 -47 -142 c-25 -78 -46 -148 -46 -156 0 -9 75 -91 168 -183 l167 -167 53 0 c89 0 281 81 357 151 53 49 86 51 125 9 25 -26 35 -30 84 -30 55 0 55 0 73 39 11 24 39 56 73 81 322 244 316 240 353 240 52 0 77 28 77 84 0 46 -12 63 -45 66 -68 7 -97 -15 -105 -82 -5 -38 -9 -43 -65 -75 -33 -18 -67 -36 -75 -40 -8 -3 -53 -28 -100 -54 -78 -44 -91 -47 -155 -48 -68 0 -86 -8 -97 -43 -2 -6 -20 -7 -48 -1 l-45 9 3 182 3 182 -93 44 c-51 24 -128 60 -170 79 l-77 35 -22 -32z">
      </path>
      <path id="pyPIf1ANq" d="M4900 3314 c0 -9 5 -14 12 -12 18 6 21 28 4 28 -9 0 -16 -7 -16 -16z"></path>
      <path id="p19El9qFev"
        d="M6956 3286 c-46 -11 -76 -36 -43 -36 7 0 87 -22 176 -50 89 -27 167 -50 172 -50 6 0 9 16 7 36 -3 34 -5 36 -73 59 -63 21 -134 41 -175 49 -8 2 -37 -2 -64 -8z">
      </path>
      <path id="p1CwLO2GDt"
        d="M3160 3254 c-89 -26 -218 -76 -335 -129 -38 -17 -89 -39 -112 -49 -41 -18 -159 -138 -293 -296 -30 -36 -57 -67 -61 -70 -3 -3 -40 -48 -83 -100 -42 -52 -94 -115 -114 -139 -20 -24 -41 -51 -46 -60 -6 -9 -33 -43 -60 -77 -28 -33 -76 -94 -106 -134 -30 -40 -68 -89 -85 -110 -16 -21 -56 -74 -88 -118 l-58 -80 -132 -37 c-73 -21 -145 -41 -162 -45 -135 -35 -551 -171 -765 -250 -239 -88 -465 -196 -608 -289 -43 -29 -52 -39 -52 -64 l0 -29 32 21 c18 12 91 55 163 95 296 169 704 330 1202 476 115 33 237 69 273 80 60 18 69 24 112 82 26 35 69 92 95 126 52 70 298 385 325 417 10 11 32 38 50 61 70 88 205 245 316 366 126 140 116 134 347 230 152 63 261 100 282 96 11 -2 -11 -25 -67 -68 -98 -76 -127 -103 -236 -225 -129 -145 -324 -385 -324 -400 0 -3 -24 -37 -52 -75 -101 -134 -101 -134 -105 -245 -2 -55 -9 -111 -14 -125 -6 -14 -93 -90 -200 -175 -212 -167 -211 -166 -361 -262 -231 -147 -302 -189 -533 -315 -132 -72 -262 -143 -290 -158 -27 -15 -126 -69 -220 -120 -93 -51 -192 -105 -220 -120 -27 -15 -84 -46 -125 -69 -41 -22 -82 -45 -90 -51 -8 -5 -33 -18 -55 -28 -37 -17 -151 -104 -185 -141 -8 -9 -39 -34 -68 -56 -41 -31 -52 -45 -52 -67 0 -28 0 -28 68 28 115 96 201 164 206 164 4 0 6 -14 6 -30 0 -18 6 -33 15 -37 22 -8 24 -4 31 53 10 71 44 87 44 20 0 -18 3 -36 7 -39 14 -15 33 18 33 57 0 51 5 58 57 85 56 28 61 27 65 -11 2 -21 8 -33 18 -33 11 0 16 13 18 47 2 37 9 52 29 68 34 27 53 25 53 -4 0 -14 5 -28 10 -31 19 -12 40 16 40 51 0 19 5 34 11 34 6 0 9 -7 5 -15 -8 -23 4 -45 25 -45 14 0 19 7 20 28 1 45 9 76 22 84 20 13 26 9 33 -17 9 -37 34 -32 34 8 0 40 7 50 47 71 41 21 39 21 47 -15 8 -44 30 -31 36 22 3 30 10 45 22 47 11 2 18 -5 20 -20 5 -39 33 -28 36 15 5 58 72 92 72 36 0 -37 29 -20 37 23 7 33 16 46 41 61 33 20 33 20 39 -2 8 -33 31 -25 39 14 5 26 15 40 37 51 24 13 31 14 38 2 5 -7 9 -17 9 -21 0 -5 6 -7 13 -5 6 3 14 20 17 38 5 34 30 55 30 26 0 -9 7 -16 15 -16 8 0 15 8 15 18 0 26 11 34 26 21 18 -15 34 -3 34 26 0 28 -4 25 200 155 174 112 166 106 350 236 74 52 148 106 164 120 16 14 43 32 60 41 17 9 38 26 47 37 10 12 36 35 58 50 46 32 50 44 53 176 3 106 -8 83 158 320 36 50 77 110 92 132 49 73 193 216 224 223 47 10 197 53 227 64 31 12 37 41 8 41 -10 0 -37 -6 -59 -14 -55 -20 -132 -31 -132 -19 0 14 137 144 190 180 59 41 84 70 97 116 13 45 16 44 -97 11z">
      </path>
      <path id="p17bkvPCUU"
        d="M4015 2719 c-77 -49 -234 -116 -302 -130 -35 -7 -63 -16 -63 -20 0 -7 25 -64 84 -191 14 -32 34 -61 44 -66 47 -25 241 49 337 128 84 71 83 64 23 195 -29 63 -57 114 -63 114 -5 1 -32 -13 -60 -30z">
      </path>
      <path id="p8nuxi2eQ"
        d="M1413 2708 c-6 -7 -16 -31 -24 -53 -7 -22 -18 -47 -24 -55 -26 -34 -37 -81 -31 -128 5 -43 3 -54 -24 -94 -43 -65 -56 -74 -78 -56 -9 9 -28 19 -42 23 -14 3 -33 9 -42 11 -25 7 -24 -25 1 -34 25 -10 69 -64 82 -101 6 -17 15 -31 20 -31 4 0 17 -20 27 -44 11 -24 25 -46 30 -50 15 -9 51 14 58 36 3 11 15 18 30 18 39 0 94 41 94 70 1 17 13 34 38 53 69 52 163 140 156 146 -3 3 -20 7 -37 8 -62 4 -136 19 -151 32 -9 8 -16 28 -16 45 0 17 -5 38 -10 46 -9 13 -11 13 -20 0 -5 -8 -12 -19 -14 -25 -6 -14 -27 17 -21 33 2 7 10 42 16 78 12 67 3 99 -18 72z">
      </path>
      <path id="pdmV8F06X"
        d="M7020 2653 c-203 -33 -412 -88 -501 -133 -170 -84 -277 -226 -362 -475 -17 -50 -21 -99 -27 -296 -9 -279 -27 -391 -78 -494 -47 -94 -140 -215 -229 -298 -68 -62 -32 -70 82 -17 63 29 94 56 185 158 112 125 155 222 170 389 36 404 84 632 167 799 60 120 106 158 263 220 92 37 108 39 208 24 37 -5 125 -17 196 -25 71 -9 140 -18 153 -21 23 -6 23 -5 23 85 l0 91 -112 -1 c-62 -1 -124 -4 -138 -6z">
      </path>
      <path id="pdatufZn3"
        d="M4165 2399 c-22 -22 -80 -59 -130 -83 -81 -39 -117 -52 -207 -71 -33 -6 -35 -15 -9 -46 33 -41 151 -25 275 37 107 54 163 119 151 175 -9 39 -31 36 -80 -12z">
      </path>
      <path id="pY2fTfjIv"
        d="M4237 2255 c-77 -71 -250 -145 -339 -145 -15 0 -29 -3 -31 -7 -10 -16 81 -191 104 -204 34 -17 119 -89 119 -100 0 -5 -12 -9 -27 -9 -16 0 -34 -4 -42 -9 -11 -7 -10 -11 7 -20 46 -25 145 -8 248 40 75 36 124 75 155 125 26 42 18 56 -14 26 -23 -22 -47 -29 -47 -14 0 4 5 34 11 67 6 33 11 68 11 78 -1 24 -91 217 -102 217 -3 -1 -27 -21 -53 -45z m44 -107 c30 -23 58 -47 62 -53 12 -15 1 -126 -15 -141 -11 -12 -21 -10 -58 8 -72 34 -80 45 -80 102 0 73 11 126 25 126 7 0 37 -19 66 -42z m-205 -114 c57 -49 64 -71 48 -153 -9 -41 -30 -40 -82 5 l-42 36 0 79 c0 50 4 79 11 79 6 0 35 -21 65 -46z m201 -120 c35 -20 42 -28 33 -39 -17 -21 -111 -65 -137 -65 -23 0 -24 2 -17 63 4 34 9 66 12 71 7 13 61 -2 109 -30z">
      </path>
      <path id="p11QzD0GK1"
        d="M4440 1836 c-56 -59 -182 -122 -283 -141 -43 -8 -81 -14 -85 -14 -25 4 -20 -9 90 -243 47 -100 47 -100 153 -73 95 24 223 92 285 151 l55 53 55 -19 c70 -25 85 -25 110 0 14 14 20 33 20 65 0 53 -25 85 -68 85 -30 0 -72 -32 -72 -54 0 -16 -22 -26 -56 -26 -21 0 -32 16 -86 130 -33 72 -65 130 -69 130 -4 0 -27 -20 -49 -44z">
      </path>
      <path id="pLhkRRsKs"
        d="M4635 1457 c-78 -68 -183 -120 -305 -153 -104 -27 -116 -49 -25 -48 59 1 156 30 199 59 11 8 26 15 34 15 31 0 152 105 152 131 0 31 -16 30 -55 -4z">
      </path>
      <path id="p7zRb6cWC"
        d="M4691 1356 c-28 -29 -28 -29 49 -193 29 -62 58 -113 64 -113 6 0 21 15 34 34 l23 33 -62 132 c-34 72 -67 131 -74 131 -6 0 -22 -11 -34 -24z">
      </path>
      <path id="p1B9qG94FY"
        d="M4571 1271 c-24 -18 -24 -19 -7 -62 36 -92 109 -249 115 -249 15 0 71 41 71 52 0 7 -28 73 -62 146 -41 86 -68 132 -78 132 -8 0 -26 -9 -39 -19z">
      </path>
      <path id="pCuLhqEnj"
        d="M4432 1213 c-40 -14 -43 -18 -37 -41 8 -34 94 -233 107 -249 13 -16 59 -17 92 -1 31 14 29 26 -26 153 -77 176 -65 163 -136 138z">
      </path>
      <path id="pmjcLHXJd"
        d="M4290 1168 c0 -8 24 -68 54 -133 42 -92 59 -121 75 -123 12 -2 21 2 21 10 0 7 -25 67 -54 133 -42 94 -58 121 -75 123 -13 2 -21 -2 -21 -10z">
      </path>
      <path id="p16nNaUgC"
        d="M4849 997 c-97 -88 -221 -145 -339 -156 -50 -5 -65 -10 -63 -21 2 -24 75 -184 87 -192 18 -13 84 -9 149 8 126 33 240 109 278 188 l19 40 -37 80 c-20 45 -39 84 -42 88 -3 3 -27 -12 -52 -35z">
      </path>
    </g>
  </g>
</svg>