<svg id="root" xmlns="http://www.w3.org/2000/svg" width="768" height="441" viewBox="0 0 7680 4410">
  <g>
    <path
      d="M1725 3302c16-17 528-322 533-317 2 2 85-36 183-86 98-49 182-89 185-89s-16 26-43 58c-27 31-73 88-102 125s-65 74-80 82c-39 19-618 225-655 232-22 4-28 2-21-5z" />
    <path
      d="m2214 3194 228-77 104-125 103-125 90-37 89-38 6 32c19 109 27 198 20 205-9 7-792 227-844 236-14 3 78-29 204-71zm-514 43c0-36 61-124 241-347 90-111 193-239 227-284 35-44 69-82 75-84 7-1 88 15 181 36l169 38-180 158c-105 90-180 163-179 173s-83 67-259 174c-143 87-263 159-267 159-5 0-8-11-8-23zm571-314c8-9 93-83 190-164 97-82 186-165 198-184 23-40 41-45 41-12 1 38 37 104 86 157l46 50-28 11c-71 27-107 39-112 35-7-8 9-26 24-26 20 0 18-14-6-35-20-18-23-17-113 25-50 24-145 70-209 102-65 32-121 58-124 58-4 0 0-7 7-17z" />
    <path d="M2855 2750c-81-34-158-207-123-275 15-28 15-27 20 32 9 97 67 186 147 228l46 24h-35c-19 0-44-4-55-9z" />
    <path
      d="M2936 2699c-81-23-157-164-128-239 6-16 41-44 95-77 46-29 105-68 130-87 46-35 46-35 61-14l15 20 29-21c36-25 42-26 42-6 0 9 11 38 25 65l25 49-26 20c-15 12-29 21-33 21-3 0-7 16-9 36-2 28 5 44 29 72 23 26 28 37 18 40-8 3-50 26-94 53-107 64-143 78-179 68zm-336-142c0-9 82-68 87-63 10 10-49 66-69 66-10 0-18-1-18-3z" />
    <path
      d="M3227 2542c-15-17-12-20 58-55 42-20 236-135 433-255 196-120 389-236 427-257 145-80 234-152 267-219l15-28 22 30 22 31-20 38c-10 21-34 52-53 70-65 61-1099 663-1140 663-8 0-22-8-31-18z" />
    <path
      d="M3431 2536c-27-10-31-14-19-24 9-7 29-9 50-5 33 5 60-8 280-132 247-140 688-396 757-440 41-25 58-63 42-94-8-15-5-20 16-30s29-9 41 3c22 22 20 101-4 127-10 11-127 82-259 156-132 75-298 171-370 213-197 116-365 207-414 225-51 18-74 18-120 1zm-246-36c-3-6-3-20 0-31 6-18 12-20 41-14 34 6 139-54 1026-589 31-19 71-54 88-78 17-23 38-47 46-51 14-8 14-5 0 21-27 53-102 108-349 255-133 79-339 202-457 274-273 165-387 226-395 213z" />
    <path
      d="M3460 2486c0-4 131-83 320-191 74-43 223-130 330-193 239-141 385-222 399-222 6 0 11 4 11 9 0 13-554 339-916 540-95 52-144 72-144 57zm-179-112c-29-37-61-128-61-174 0-42 26-80 55-80 32 0 135 61 135 80 0 11-67 50-86 50-24 0-17 54 11 80 23 21 26 22 42 8 42-37 120-61 86-27-14 14-143 89-153 89-5 0-18-12-29-26z" />
    <path
      d="M3356 2294c-3-9-6-17-6-20 0-7 146-101 250-161 58-34 166-100 240-147s140-86 147-86c11 0 39 39 31 44-2 2-30 18-63 36-33 19-154 93-270 165-322 201-317 199-329 169zm-270-66c-24-34-20-74 12-107 15-16 142-103 282-192s301-193 356-230c133-89 297-190 362-223 59-30 118-34 168-10 46 22 51 34 23 55-20 15-26 16-39 5-42-37-61-30-250 84-101 61-291 179-424 264-132 84-270 170-306 191-87 53-140 102-140 131 0 12 5 26 11 30 8 4 7 9-2 15-22 14-37 10-53-13zm302-82c-10-7-18-16-18-19 0-10 78-61 345-228 238-150 250-156 253-132 2 13 1 30-1 37-4 10-548 357-558 356-2 0-12-7-21-14z" />
    <path
      d="M3151 2036c24-18 112-75 194-126 83-51 278-177 435-280 322-212 359-233 415-234 48-1 119 32 123 57 3 17 2 17-25 4-15-8-48-20-72-27-56-15-121 5-206 63-33 22-152 100-265 172s-300 193-417 268c-209 136-267 168-182 103zm269 21c0-11 659-431 740-472l35-18-20 23c-11 12-38 31-60 42-22 12-182 109-355 217-372 233-340 213-340 208zm612-167c-42-65-52-128-24-153 24-22 173-117 183-117 4 0 9 12 12 28 3 15 24 58 47 95 23 38 40 70 38 71-31 22-208 126-214 126-5 0-24-23-42-50zm452-83c3-14 8-31 11-39 3-7-12-30-34-52-43-42-59-42-104-1l-27 26-30-63c-17-35-30-70-30-79 0-8 20-30 45-48 35-25 45-38 45-61 0-26 18-40 243-183 225-144 503-317 709-444 87-53 118-64 118-42 0 28 75 163 135 245 35 48 62 91 57 95-4 4-61 38-127 74-66 37-144 80-173 96l-53 30 20-28c13-18 22-47 23-78 3-47 2-50-23-53-24-3-27 1-33 42-11 73-72 132-71 69 0-22-5-29-24-31-28-4-41 12-41 54 0 39 18 62 52 66 22 2-35 40-290 191-174 103-337 199-361 214l-44 26 7-26zm-230-102c-14-25-25-48-23-50s16 19 32 46c34 62 27 65-9 4z" />
    <path
      d="M5146 1358c-8-32-7-38 4-38 6 0 10 8 10 18s5 23 12 30c9 9 8 12-4 12-9 0-18-10-22-22zm72-1c24-11 62-74 62-102 0-9 4-14 9-11 5 4 5 22 0 43-8 39-51 83-79 82-9 0-6-5 8-12zm399-252c-64-78-150-238-172-320-8-32-14-59-12-60 1-1 16-11 33-23l32-22 13 33c8 17 13 35 11 39-3 12 6 10 38-7 28-14 30-14 41 6 9 17 8 24-2 30-51 29-51 29-6 113 48 90 67 107 97 88 28-17 38-15 51 10 10 18 8 24-10 38-19 13-20 20-12 43 6 14 19 32 31 39 27 17 25 25-10 43-50 26-66 19-123-50zm174 10c-13-14-22-27-20-29 35-26 70-46 81-46 15 0 65 47 57 53-17 13-78 47-85 47-5 0-20-12-33-25z" />
    <path
      d="M5775 1044c19-17 25-29 17-32-19-6-14-18 12-30 22-10 26-8 31 9 7 22-4 33-60 64l-30 17 30-28zm106-58c-11-13-11-20-3-28 15-15 24-5 20 23-3 21-4 21-17 5zm-261-92c-23-42-40-77-38-78s22-14 45-29c24-15 45-27 47-27 3 0 25 35 50 77l45 77-51 28c-28 15-52 28-54 28-1 0-21-34-44-76zm135 66c-3-5 6-17 20-26 20-13 29-14 37-6 9 9 7 16-8 27-22 17-40 19-49 5zm51-78c-7-15-11-33-8-41s0-11-6-7-18-6-27-23c-19-38-19-44 4-58 18-11 23-6 58 55 21 37 39 70 41 73 1 3-9 11-23 17-22 10-26 9-39-16zm-176-135c0-15 35-38 44-30 11 12 6 20-19 31-19 9-25 9-25-1zm-90-40c0-2 18-17 41-31 39-26 42-27 60-10 17 16 18 19 5 33-14 13-18 13-35-3-18-17-21-17-45-1-14 10-26 15-26 12zm150-21c-6-8-10-25-8-36l3-22 28 22c22 17 25 25 16 36-15 18-24 18-39 0zm-166-31c-7-29-5-32 48-64l36-22 7 21c8 24-8 46-54 73l-30 18-7-26z" />
  </g>
</svg>