<svg xmlns="http://www.w3.org/2000/svg" id="root" viewBox="0 0 100 97">
  <g>
    <path
      d="M 92.976562 82.714844 C 92.785156 82.640625 91.257812 82.082031 89.589844 81.5 C 86.125 80.234375 82.640625 78.894531 81.234375 78.261719 C 80.703125 78.019531 79.417969 77.433594 78.351562 76.949219 C 77.3125 76.460938 76.320312 76.070312 76.125 76.070312 C 75.640625 76.070312 72.324219 74.953125 71.378906 74.464844 C 69.757812 73.636719 67.652344 72.300781 66.34375 71.253906 C 64.527344 69.816406 60.558594 65.875 60.167969 65.121094 C 59.25 63.320312 57.601562 57.261719 57.167969 54.046875 C 56.996094 52.976562 56.730469 51.128906 56.539062 49.910156 C 56.34375 48.71875 56.078125 46.1875 55.957031 44.3125 C 55.375 36.234375 55.207031 33.507812 55.230469 32 C 55.300781 27.28125 53.777344 23.605469 50.195312 19.953125 C 48.835938 18.566406 46.632812 16.863281 45.882812 16.597656 C 45.617188 16.523438 45.132812 16.085938 44.820312 15.648438 C 43.21875 13.480469 38.449219 11.097656 35.691406 11.097656 C 34.820312 11.097656 34.648438 11.023438 34.527344 10.511719 C 34.457031 10.171875 34.066406 9.808594 33.632812 9.613281 C 32.90625 9.320312 32.832031 9.34375 32.347656 9.953125 C 31.984375 10.414062 31.597656 10.609375 31.089844 10.609375 C 30.460938 10.609375 29.902344 11.074219 27.335938 13.726562 C 21.648438 19.589844 21.648438 19.589844 21.476562 20.976562 C 21.285156 22.414062 20.507812 23.265625 19.03125 23.75 C 17.457031 24.261719 16.5625 23.460938 16.683594 21.632812 C 16.707031 20.953125 16.367188 20.441406 14.09375 17.863281 C 11.695312 15.113281 11.40625 14.867188 10.605469 14.84375 C 9.46875 14.820312 9.199219 14.601562 9.199219 13.75 C 9.199219 12.582031 9.78125 11.707031 10.800781 11.390625 C 11.886719 11.046875 12.347656 11.265625 12.6875 12.3125 C 12.855469 12.777344 14.09375 14.210938 15.738281 15.867188 C 19.25 19.347656 19.273438 19.347656 21.355469 16.765625 C 22.203125 15.746094 24.019531 13.53125 25.375 11.851562 C 27.941406 8.710938 28.183594 8.347656 28.449219 7.082031 C 28.546875 6.667969 29.078125 5.890625 29.683594 5.328125 C 30.582031 4.453125 30.921875 4.28125 31.71875 4.28125 C 32.492188 4.28125 32.761719 4.40625 33.21875 5.011719 C 34.117188 6.230469 34.503906 5.988281 35.375 3.675781 C 35.785156 2.53125 36.246094 1.53125 36.390625 1.4375 C 36.511719 1.363281 37.601562 1.265625 38.8125 1.242188 C 40.21875 1.214844 41.066406 1.070312 41.113281 0.898438 C 41.164062 0.753906 41.527344 0.460938 41.914062 0.242188 C 42.46875 -0.046875 42.832031 -0.0742188 43.535156 0.144531 C 44.019531 0.265625 44.699219 0.390625 45.035156 0.390625 C 45.472656 0.390625 46.054688 0.804688 46.925781 1.679688 C 47.964844 2.75 48.207031 3.140625 48.207031 3.820312 C 48.234375 4.5 48.449219 4.84375 49.589844 5.914062 C 50.96875 7.15625 50.96875 7.179688 50.96875 8.566406 L 50.96875 9.953125 L 52.90625 10.804688 C 55.617188 11.972656 58.402344 13.894531 60.53125 16.0625 C 62.976562 18.542969 63.097656 18.957031 61.042969 17.738281 C 58.910156 16.5 55.664062 14.234375 53.292969 12.3125 C 51.960938 11.242188 50.75 10.367188 50.558594 10.367188 C 50.386719 10.367188 49.976562 10.878906 49.636719 11.511719 C 49.199219 12.335938 48.835938 12.703125 48.328125 12.847656 C 47.675781 13.019531 47.457031 12.875 45.8125 11.292969 C 43.21875 8.832031 39.5625 7.203125 36.5625 7.203125 C 35.519531 7.203125 35.253906 7.445312 35.472656 8.175781 C 35.59375 8.542969 35.835938 8.664062 36.511719 8.664062 C 37.652344 8.664062 40.242188 9.394531 41.648438 10.125 C 43.316406 10.976562 45.132812 12.410156 45.519531 13.191406 C 46.148438 14.453125 46.269531 14.550781 46.730469 14.136719 C 47.144531 13.773438 47.265625 13.820312 48.570312 14.894531 C 52.082031 17.714844 54.382812 20.441406 56.054688 23.726562 C 57.191406 26.039062 57.53125 27.621094 57.992188 32.632812 C 58.183594 35.042969 58.523438 38.59375 58.714844 40.542969 C 58.910156 42.488281 59.25 47.257812 59.46875 51.128906 L 59.855469 58.183594 L 61.453125 60.617188 C 64.09375 64.660156 66.003906 67.042969 69.105469 70.132812 C 72.519531 73.566406 74.671875 75.050781 77.359375 75.902344 C 80.023438 76.753906 86.804688 78.382812 89.613281 78.871094 L 91.9375 79.285156 L 92.46875 80.574219 C 92.761719 81.304688 93.171875 82.007812 93.367188 82.179688 C 93.996094 82.691406 93.777344 83.007812 92.976562 82.714844 Z M 8.863281 86.023438 C 8.015625 85.390625 6.5625 84.832031 4.792969 84.46875 C 3.921875 84.296875 3.921875 83.761719 4.820312 81.425781 C 5.519531 79.601562 5.542969 79.601562 6.488281 79.527344 C 7.917969 79.40625 11.164062 80.742188 12.082031 81.816406 C 13.097656 82.957031 13.21875 83.6875 12.710938 85.171875 C 12.179688 86.65625 12.035156 86.777344 10.773438 86.753906 C 10.097656 86.753906 9.515625 86.535156 8.863281 86.023438 Z M 0 96.902344 C 0 96.757812 2.90625 89.992188 3.851562 87.945312 C 4.527344 86.4375 4.671875 86.292969 5.328125 86.292969 C 6.222656 86.292969 7.386719 86.777344 8.328125 87.558594 L 9.03125 88.140625 L 8.113281 90.210938 C 6.996094 92.691406 6.511719 93.789062 5.714844 95.613281 L 5.109375 97 L 2.566406 97 C 1.136719 97 0 96.953125 0 96.902344 Z M 42.613281 78.117188 C 42.613281 77.898438 42.734375 77.773438 42.90625 77.824219 C 43.339844 77.96875 43.414062 78.503906 43.003906 78.503906 C 42.785156 78.503906 42.613281 78.335938 42.613281 78.117188 Z M 13.777344 81.328125 C 13.488281 80.890625 12.90625 80.304688 12.492188 80.015625 C 11.308594 79.210938 8.234375 78.066406 6.753906 77.898438 L 5.398438 77.726562 L 4.261719 74.269531 C 3.65625 72.371094 3.148438 70.667969 3.148438 70.472656 C 3.148438 70.253906 4.964844 68.261719 7.214844 66.019531 L 11.257812 61.957031 L 12.542969 61.957031 C 14.699219 61.957031 19.347656 63.929688 21.1875 65.632812 C 22.46875 66.824219 23.269531 66.871094 24.214844 65.851562 C 24.820312 65.21875 25.058594 65.121094 26.246094 65.121094 C 27.578125 65.121094 27.578125 65.121094 28.015625 66.070312 C 28.28125 66.652344 28.957031 67.433594 29.78125 68.042969 C 37.578125 73.980469 37.433594 73.882812 38.328125 73.882812 C 39.589844 73.882812 40.195312 74.5625 40.195312 75.925781 C 40.195312 77.046875 39.902344 77.457031 39.105469 77.53125 C 37.457031 77.703125 36.753906 77.167969 36.5625 75.535156 C 36.441406 74.613281 36.34375 74.488281 34.988281 73.710938 C 34.1875 73.273438 33.367188 72.835938 33.171875 72.738281 C 32.976562 72.664062 31.886719 72.054688 30.75 71.421875 C 28.863281 70.351562 28.546875 70.28125 26.996094 70.253906 C 25.351562 70.253906 24.914062 70.0625 24.648438 69.210938 C 24.601562 69.0625 24.164062 69.039062 23.488281 69.183594 L 22.398438 69.402344 L 22.46875 73.832031 L 22.542969 78.261719 L 20.289062 79.332031 C 19.054688 79.917969 17.191406 80.792969 16.175781 81.253906 L 14.308594 82.105469 Z M 13.777344 81.328125 "
    />
    <path
      d="M 31.476562 42.148438 C 30.121094 40.710938 27.070312 39.179688 24.625 38.71875 C 23.582031 38.523438 22.664062 38.375 22.566406 38.375 C 21.960938 38.472656 22.082031 38.15625 24.746094 32.464844 C 25.882812 30.03125 25.882812 30.03125 28.449219 30.6875 C 30.75 31.269531 33.851562 32.925781 35.351562 34.359375 L 36.683594 35.652344 L 38.015625 35.1875 C 39.710938 34.582031 40.074219 34.582031 40.679688 35.1875 C 41.015625 35.527344 41.164062 35.992188 41.164062 36.769531 C 41.164062 38.058594 40.558594 38.839844 39.515625 38.839844 C 38.789062 38.839844 37.773438 38.058594 37.773438 37.523438 C 37.773438 37.136719 37.238281 36.890625 36.417969 36.890625 C 35.90625 36.890625 35.640625 37.28125 34.335938 40.054688 C 33.535156 41.808594 32.761719 43.21875 32.664062 43.21875 C 32.566406 43.21875 32.007812 42.734375 31.476562 42.148438 Z M 27.53125 44.046875 C 28.378906 43.558594 28.546875 43.363281 28.328125 43.097656 C 27.917969 42.585938 25.640625 41.515625 25.011719 41.515625 C 24.457031 41.515625 24.429688 41.5625 24.601562 43.046875 C 24.699219 43.875 24.820312 44.65625 24.890625 44.777344 C 25.058594 45.09375 26.367188 44.726562 27.53125 44.046875 Z M 22.664062 46.964844 C 24.042969 45.773438 24.214844 45.238281 23.824219 43.242188 C 23.609375 42.246094 23.097656 42.269531 21.839844 43.363281 L 20.824219 44.242188 L 20.824219 46.164062 C 20.824219 47.378906 20.921875 48.085938 21.089844 48.085938 C 21.234375 48.085938 21.9375 47.574219 22.664062 46.964844 Z M 27.628906 49.742188 C 28.351562 49.179688 29.03125 48.597656 29.128906 48.453125 C 29.417969 48.085938 29.152344 45.386719 28.765625 45.019531 C 28.5 44.726562 28.257812 44.777344 27.359375 45.214844 C 25.617188 46.042969 25.421875 46.308594 25.421875 47.695312 C 25.421875 49.472656 25.691406 50.761719 26.027344 50.761719 C 26.199219 50.761719 26.925781 50.300781 27.628906 49.742188 Z M 27.628906 49.742188 "
    />
    <path
      d="M 26.5625 52.34375 C 24.699219 50.617188 20.507812 48.816406 18.351562 48.816406 C 17.992188 48.816406 17.652344 48.742188 17.601562 48.644531 C 17.359375 48.257812 19.5625 43.996094 20.121094 43.679688 C 20.945312 43.269531 23.003906 41.515625 23.003906 41.246094 C 23.003906 41.125 22.710938 41.027344 22.347656 41.027344 C 21.960938 41.027344 21.527344 40.929688 21.332031 40.808594 C 21.066406 40.640625 21.089844 40.542969 21.5 40.324219 C 22.613281 39.714844 25.011719 40.128906 27.507812 41.296875 C 29.320312 42.171875 30.507812 43.121094 31.257812 44.339844 C 31.886719 45.359375 31.695312 45.703125 30.921875 44.972656 C 30.363281 44.4375 29.78125 44.265625 29.78125 44.628906 C 29.78125 44.726562 29.902344 45.457031 30.046875 46.261719 C 30.195312 47.0625 30.316406 47.914062 30.316406 48.160156 C 30.289062 48.742188 28.113281 53.441406 27.84375 53.441406 C 27.773438 53.414062 27.191406 52.929688 26.5625 52.34375 Z M 24.820312 55.847656 C 24.285156 55.3125 22.882812 54.414062 21.671875 53.828125 C 19.710938 52.878906 18.835938 52.5625 16.660156 52.101562 C 15.859375 51.957031 15.8125 51.738281 16.441406 50.980469 C 17.238281 49.984375 20.097656 50.375 23.097656 51.882812 C 25.691406 53.195312 27.046875 54.777344 26.753906 56.140625 C 26.539062 57.089844 26.003906 57.015625 24.820312 55.847656 Z M 93.945312 62.03125 C 89.03125 61.226562 83.972656 59.890625 81.816406 58.792969 C 77.699219 56.75 75.109375 53.292969 73.050781 47.234375 C 72.640625 46.019531 72.542969 44.824219 72.398438 40.03125 C 72.179688 33.242188 71.742188 30.515625 70.507812 28.007812 C 69.371094 25.722656 67.117188 22.777344 64.964844 20.757812 C 63.316406 19.25 64.1875 19.054688 66.949219 20.34375 C 68.472656 21.050781 69.226562 21.707031 71.429688 24.1875 C 74.140625 27.230469 75.179688 29.589844 75.542969 33.65625 C 76.417969 43.488281 77.578125 49.035156 79.589844 53.097656 C 81.042969 56.019531 82.15625 56.945312 85.957031 58.453125 C 88.183594 59.351562 88.570312 59.402344 90.992188 59.035156 C 91.886719 58.914062 94.019531 58.625 95.738281 58.429688 C 97.457031 58.210938 99.128906 57.992188 99.441406 57.917969 C 100 57.773438 100 57.796875 100 59.984375 L 100 62.199219 L 97.289062 62.175781 C 95.785156 62.152344 94.285156 62.078125 93.945312 62.03125 Z M 21.1875 63.636719 C 19.320312 62.445312 15.519531 60.8125 13.875 60.472656 C 13.027344 60.300781 12.347656 60.082031 12.347656 59.984375 C 12.347656 59.816406 12.953125 58.429688 14.382812 55.339844 C 14.722656 54.558594 15.207031 53.855469 15.449219 53.730469 C 16.585938 53.125 21.285156 54.925781 23.609375 56.847656 C 25.640625 58.574219 25.617188 58.402344 24.164062 61.59375 C 23.460938 63.125 22.785156 64.367188 22.640625 64.367188 C 22.519531 64.390625 21.863281 64.050781 21.1875 63.636719 Z M 36.199219 32.925781 C 34.308594 31.269531 31.765625 30.003906 28.8125 29.203125 C 26.296875 28.546875 26.003906 28.007812 28.207031 28.035156 C 29.636719 28.058594 31.984375 28.765625 33.027344 29.46875 C 33.292969 29.664062 33.65625 29.835938 33.851562 29.835938 C 34.601562 29.835938 37.53125 32.390625 37.53125 33.023438 C 37.53125 33.777344 37.144531 33.753906 36.199219 32.925781 Z M 37.554688 30.46875 C 36.875 29.761719 36.875 29.761719 38.742188 25.769531 C 39.441406 24.261719 40.144531 23.019531 40.289062 23.019531 C 40.4375 23.019531 40.800781 23.386719 41.113281 23.847656 L 41.671875 24.652344 L 40.167969 27.863281 C 39.347656 29.617188 38.546875 31.050781 38.378906 31.050781 C 38.234375 31.050781 37.84375 30.785156 37.554688 30.46875 Z M 34.648438 28.398438 C 34.066406 27.960938 34.066406 27.9375 34.480469 26.890625 C 35.351562 24.652344 37.117188 20.832031 37.265625 20.832031 C 37.628906 20.832031 38.984375 21.828125 38.984375 22.097656 C 38.984375 22.265625 38.304688 23.871094 37.480469 25.648438 C 36.488281 27.742188 35.835938 28.863281 35.59375 28.863281 C 35.398438 28.863281 34.964844 28.640625 34.648438 28.398438 Z M 31.285156 26.988281 C 30.316406 26.648438 30.242188 26.550781 30.386719 25.988281 C 30.582031 25.164062 32.664062 20.320312 32.976562 19.929688 C 33.292969 19.542969 34.40625 19.515625 35.207031 19.90625 C 35.957031 20.246094 35.90625 20.539062 34.578125 23.628906 C 32.710938 27.914062 33.003906 27.597656 31.285156 26.988281 Z M 27.84375 25.890625 C 27.84375 25.699219 28.425781 24.238281 29.152344 22.65625 C 30.167969 20.417969 30.582031 19.710938 30.96875 19.664062 C 31.257812 19.613281 31.476562 19.710938 31.476562 19.90625 C 31.476562 20.078125 30.871094 21.535156 30.167969 23.144531 C 29.152344 25.429688 28.765625 26.085938 28.351562 26.136719 C 28.039062 26.183594 27.84375 26.085938 27.84375 25.890625 Z M 41.378906 21.730469 C 39.03125 19.589844 36.027344 18.203125 33.171875 17.933594 C 31.960938 17.8125 31.597656 17.691406 31.648438 17.425781 C 31.695312 16.839844 33.460938 12.945312 33.753906 12.75 C 34.1875 12.433594 35.785156 12.53125 37.359375 12.945312 C 40.410156 13.75 43.171875 15.597656 44.09375 17.519531 L 44.550781 18.496094 L 43.65625 20.441406 C 43.171875 21.535156 42.710938 22.484375 42.640625 22.582031 C 42.566406 22.65625 41.984375 22.289062 41.378906 21.730469 Z M 41.378906 21.730469 "
    />
  </g>
</svg>
