<svg xmlns="http://www.w3.org/2000/svg" id="root" viewBox="0 0 99 65">
  <g>
    <path
      d="M 0.589844 64.832031 C 0.964844 64.429688 13.007812 57.195312 13.125 57.3125 C 13.171875 57.359375 15.121094 56.460938 17.425781 55.273438 C 19.730469 54.109375 21.707031 53.160156 21.777344 53.160156 C 21.847656 53.160156 21.402344 53.777344 20.765625 54.539062 C 20.132812 55.273438 19.050781 56.625 18.367188 57.503906 C 17.6875 58.378906 16.839844 59.257812 16.488281 59.449219 C 15.570312 59.898438 1.953125 64.785156 1.085938 64.953125 C 0.566406 65.046875 0.425781 65 0.589844 64.832031 Z M 0.589844 64.832031 "
    />
    <path
      d="M 12.089844 62.269531 L 17.449219 60.445312 L 19.894531 57.480469 L 22.316406 54.515625 L 24.433594 53.636719 L 26.527344 52.734375 L 26.667969 53.492188 C 27.117188 56.078125 27.304688 58.191406 27.140625 58.355469 C 26.925781 58.523438 8.515625 63.742188 7.292969 63.957031 C 6.960938 64.027344 9.125 63.265625 12.089844 62.269531 Z M 0.00390625 63.292969 C 0.00390625 62.4375 1.4375 60.347656 5.667969 55.058594 C 7.785156 52.425781 10.207031 49.390625 11.007812 48.324219 C 11.832031 47.277344 12.628906 46.378906 12.769531 46.328125 C 12.9375 46.304688 14.839844 46.683594 17.027344 47.183594 L 21 48.085938 L 16.769531 51.832031 C 14.300781 53.96875 12.535156 55.699219 12.558594 55.9375 C 12.582031 56.175781 10.609375 57.527344 6.46875 60.066406 C 3.105469 62.128906 0.285156 63.835938 0.191406 63.835938 C 0.0742188 63.835938 0.00390625 63.574219 0.00390625 63.292969 Z M 13.429688 55.84375 C 13.617188 55.628906 15.617188 53.875 17.898438 51.953125 C 20.179688 50.007812 22.269531 48.039062 22.554688 47.585938 C 23.09375 46.636719 23.515625 46.519531 23.515625 47.300781 C 23.539062 48.203125 24.386719 49.769531 25.539062 51.027344 L 26.621094 52.210938 L 25.964844 52.472656 C 24.292969 53.113281 23.445312 53.398438 23.328125 53.304688 C 23.164062 53.113281 23.539062 52.6875 23.894531 52.6875 C 24.363281 52.6875 24.316406 52.355469 23.753906 51.855469 C 23.28125 51.429688 23.210938 51.453125 21.09375 52.449219 C 19.917969 53.019531 17.6875 54.109375 16.179688 54.871094 C 14.652344 55.628906 13.335938 56.246094 13.265625 56.246094 C 13.171875 56.246094 13.265625 56.078125 13.429688 55.84375 Z M 13.429688 55.84375 "
    />
    <path
      d="M 27.164062 51.738281 C 25.257812 50.933594 23.445312 46.828125 24.269531 45.214844 C 24.621094 44.550781 24.621094 44.574219 24.742188 45.972656 C 24.953125 48.273438 26.316406 50.386719 28.195312 51.382812 L 29.277344 51.953125 L 28.457031 51.953125 C 28.007812 51.953125 27.421875 51.855469 27.164062 51.738281 Z M 27.164062 51.738281 "
    />
    <path
      d="M 29.066406 50.527344 C 27.164062 49.984375 25.375 46.636719 26.058594 44.859375 C 26.199219 44.480469 27.019531 43.816406 28.292969 43.03125 C 29.371094 42.34375 30.761719 41.417969 31.347656 40.96875 C 32.429688 40.136719 32.429688 40.136719 32.78125 40.636719 L 33.136719 41.109375 L 33.816406 40.613281 C 34.664062 40.019531 34.804688 39.996094 34.804688 40.46875 C 34.804688 40.683594 35.0625 41.371094 35.394531 42.011719 L 35.980469 43.175781 L 35.367188 43.648438 C 35.015625 43.933594 34.6875 44.148438 34.59375 44.148438 C 34.523438 44.148438 34.429688 44.527344 34.382812 45 C 34.335938 45.664062 34.5 46.046875 35.0625 46.710938 C 35.605469 47.324219 35.722656 47.585938 35.488281 47.65625 C 35.296875 47.730469 34.3125 48.273438 33.277344 48.914062 C 30.761719 50.433594 29.914062 50.765625 29.066406 50.527344 Z M 21.164062 47.160156 C 21.164062 46.945312 23.09375 45.546875 23.210938 45.664062 C 23.445312 45.902344 22.058594 47.230469 21.589844 47.230469 C 21.355469 47.230469 21.164062 47.207031 21.164062 47.160156 Z M 21.164062 47.160156 "
    />
    <path
      d="M 35.910156 46.804688 C 35.558594 46.402344 35.628906 46.328125 37.273438 45.5 C 38.261719 45.023438 42.824219 42.296875 47.457031 39.449219 C 52.066406 36.601562 56.601562 33.851562 57.496094 33.355469 C 60.90625 31.457031 63 29.746094 63.773438 28.160156 L 64.128906 27.492188 L 64.644531 28.207031 L 65.164062 28.941406 L 64.691406 29.84375 C 64.457031 30.339844 63.894531 31.078125 63.445312 31.503906 C 61.917969 32.949219 37.601562 47.230469 36.640625 47.230469 C 36.449219 47.230469 36.121094 47.042969 35.910156 46.804688 Z M 35.910156 46.804688 "
    />
    <path
      d="M 40.707031 46.660156 C 40.070312 46.425781 39.976562 46.328125 40.261719 46.09375 C 40.472656 45.925781 40.941406 45.878906 41.4375 45.972656 C 42.210938 46.09375 42.847656 45.785156 48.019531 42.84375 C 53.828125 39.519531 64.199219 33.449219 65.820312 32.40625 C 66.785156 31.8125 67.183594 30.910156 66.808594 30.175781 C 66.621094 29.820312 66.691406 29.699219 67.183594 29.464844 C 67.679688 29.226562 67.867188 29.25 68.148438 29.535156 C 68.667969 30.054688 68.621094 31.929688 68.054688 32.546875 C 67.820312 32.808594 65.070312 34.492188 61.964844 36.246094 C 58.859375 38.027344 54.957031 40.304688 53.265625 41.300781 C 48.632812 44.050781 44.679688 46.210938 43.527344 46.636719 C 42.328125 47.066406 41.789062 47.066406 40.707031 46.660156 Z M 34.921875 45.808594 C 34.851562 45.664062 34.851562 45.332031 34.921875 45.074219 C 35.0625 44.644531 35.203125 44.597656 35.886719 44.738281 C 36.6875 44.882812 39.15625 43.460938 60.011719 30.769531 C 60.742188 30.316406 61.683594 29.488281 62.082031 28.917969 C 62.480469 28.371094 62.976562 27.800781 63.164062 27.707031 C 63.492188 27.519531 63.492188 27.589844 63.164062 28.207031 C 62.527344 29.464844 60.765625 30.769531 54.957031 34.253906 C 51.828125 36.128906 46.984375 39.046875 44.210938 40.753906 C 37.792969 44.667969 35.109375 46.117188 34.921875 45.808594 Z M 34.921875 45.808594 "
    />
    <path
      d="M 41.390625 45.476562 C 41.390625 45.378906 44.46875 43.507812 48.914062 40.945312 C 50.652344 39.925781 54.15625 37.859375 56.671875 36.367188 C 62.292969 33.019531 65.726562 31.101562 66.054688 31.101562 C 66.199219 31.101562 66.316406 31.195312 66.316406 31.3125 C 66.316406 31.621094 53.289062 39.355469 44.773438 44.125 C 42.542969 45.355469 41.390625 45.832031 41.390625 45.476562 Z M 37.179688 42.820312 C 36.496094 41.941406 35.746094 39.78125 35.746094 38.691406 C 35.746094 37.695312 36.355469 36.792969 37.039062 36.792969 C 37.792969 36.792969 40.214844 38.242188 40.214844 38.691406 C 40.214844 38.953125 38.636719 39.878906 38.191406 39.878906 C 37.625 39.878906 37.792969 41.15625 38.449219 41.773438 C 38.992188 42.273438 39.0625 42.296875 39.4375 41.964844 C 40.425781 41.085938 42.257812 40.519531 41.460938 41.324219 C 41.128906 41.65625 38.097656 43.433594 37.863281 43.433594 C 37.742188 43.433594 37.4375 43.152344 37.179688 42.820312 Z M 37.179688 42.820312 "
    />
    <path
      d="M 38.945312 40.921875 C 38.871094 40.707031 38.800781 40.519531 38.800781 40.445312 C 38.800781 40.28125 42.234375 38.050781 44.679688 36.628906 C 46.046875 35.820312 48.585938 34.253906 50.324219 33.140625 C 52.066406 32.023438 53.617188 31.101562 53.78125 31.101562 C 54.039062 31.101562 54.699219 32.023438 54.511719 32.144531 C 54.464844 32.191406 53.804688 32.570312 53.027344 32.996094 C 52.253906 33.449219 49.40625 35.203125 46.679688 36.910156 C 39.109375 41.679688 39.226562 41.632812 38.945312 40.921875 Z M 32.59375 39.355469 C 32.03125 38.546875 32.125 37.601562 32.875 36.816406 C 33.230469 36.4375 36.214844 34.375 39.507812 32.261719 C 42.800781 30.152344 46.585938 27.683594 47.878906 26.804688 C 51.007812 24.695312 54.863281 22.300781 56.390625 21.515625 C 57.777344 20.804688 59.167969 20.710938 60.34375 21.277344 C 61.421875 21.800781 61.542969 22.085938 60.882812 22.582031 C 60.414062 22.9375 60.273438 22.964844 59.964844 22.703125 C 58.976562 21.824219 58.53125 21.992188 54.085938 24.695312 C 51.710938 26.140625 47.246094 28.941406 44.117188 30.957031 C 41.011719 32.949219 37.769531 34.992188 36.921875 35.488281 C 34.875 36.746094 33.628906 37.910156 33.628906 38.597656 C 33.628906 38.878906 33.746094 39.214844 33.886719 39.308594 C 34.074219 39.402344 34.050781 39.519531 33.839844 39.664062 C 33.324219 39.996094 32.96875 39.902344 32.59375 39.355469 Z M 39.695312 37.410156 C 39.460938 37.242188 39.273438 37.03125 39.273438 36.960938 C 39.273438 36.722656 41.105469 35.511719 47.386719 31.550781 C 52.980469 27.992188 53.265625 27.851562 53.335938 28.417969 C 53.382812 28.726562 53.359375 29.132812 53.3125 29.296875 C 53.21875 29.535156 40.425781 37.765625 40.191406 37.742188 C 40.144531 37.742188 39.90625 37.574219 39.695312 37.410156 Z M 39.695312 37.410156 "
    />
    <path
      d="M 34.121094 34.800781 C 34.6875 34.375 36.757812 33.019531 38.683594 31.8125 C 40.636719 30.601562 45.222656 27.613281 48.914062 25.167969 C 56.484375 20.140625 57.355469 19.640625 58.671875 19.617188 C 59.800781 19.59375 61.472656 20.378906 61.566406 20.96875 C 61.636719 21.375 61.613281 21.375 60.976562 21.066406 C 60.625 20.875 59.847656 20.589844 59.285156 20.425781 C 57.96875 20.070312 56.4375 20.542969 54.441406 21.917969 C 53.664062 22.441406 50.867188 24.292969 48.207031 26 C 45.550781 27.707031 41.152344 30.578125 38.402344 32.355469 C 33.488281 35.582031 32.125 36.34375 34.121094 34.800781 Z M 40.449219 35.296875 C 40.449219 35.039062 55.945312 25.074219 57.847656 24.101562 L 58.671875 23.675781 L 58.203125 24.21875 C 57.945312 24.503906 57.308594 24.957031 56.792969 25.214844 C 56.273438 25.5 52.511719 27.800781 48.445312 30.363281 C 39.695312 35.890625 40.449219 35.417969 40.449219 35.296875 Z M 54.839844 31.335938 C 53.851562 29.796875 53.617188 28.300781 54.273438 27.707031 C 54.839844 27.1875 58.34375 24.933594 58.578125 24.933594 C 58.671875 24.933594 58.789062 25.214844 58.859375 25.597656 C 58.929688 25.953125 59.425781 26.972656 59.964844 27.851562 C 60.507812 28.75 60.90625 29.511719 60.859375 29.535156 C 60.128906 30.054688 55.96875 32.523438 55.828125 32.523438 C 55.710938 32.523438 55.261719 31.976562 54.839844 31.335938 Z M 65.46875 29.367188 C 65.539062 29.035156 65.65625 28.632812 65.726562 28.441406 C 65.796875 28.277344 65.445312 27.730469 64.925781 27.210938 C 63.917969 26.214844 63.539062 26.214844 62.480469 27.1875 L 61.847656 27.800781 L 61.140625 26.308594 C 60.742188 25.476562 60.4375 24.648438 60.4375 24.433594 C 60.4375 24.246094 60.90625 23.722656 61.496094 23.296875 C 62.316406 22.703125 62.550781 22.394531 62.550781 21.847656 C 62.550781 21.230469 62.976562 20.898438 68.265625 17.507812 C 73.558594 14.089844 80.09375 9.988281 84.9375 6.972656 C 86.984375 5.71875 87.714844 5.457031 87.714844 5.976562 C 87.714844 6.640625 89.476562 9.84375 90.886719 11.789062 C 91.710938 12.929688 92.347656 13.949219 92.230469 14.042969 C 92.132812 14.136719 90.792969 14.945312 89.242188 15.800781 C 87.691406 16.675781 85.855469 17.695312 85.175781 18.078125 L 83.929688 18.789062 L 84.398438 18.125 C 84.703125 17.695312 84.914062 17.007812 84.9375 16.273438 C 85.007812 15.160156 84.984375 15.085938 84.398438 15.015625 C 83.832031 14.945312 83.761719 15.039062 83.621094 16.011719 C 83.363281 17.746094 81.929688 19.144531 81.953125 17.648438 C 81.953125 17.128906 81.835938 16.960938 81.386719 16.914062 C 80.730469 16.820312 80.425781 17.199219 80.425781 18.195312 C 80.425781 19.121094 80.847656 19.664062 81.648438 19.761719 C 82.164062 19.808594 80.824219 20.710938 74.828125 24.292969 C 70.734375 26.734375 66.902344 29.011719 66.339844 29.367188 L 65.304688 29.984375 Z M 60.058594 26.949219 C 59.730469 26.355469 59.472656 25.808594 59.519531 25.761719 C 59.566406 25.714844 59.894531 26.214844 60.273438 26.855469 C 61.070312 28.324219 60.90625 28.394531 60.058594 26.949219 Z M 60.058594 26.949219 "
    />
    <path
      d="M 81.035156 18.71875 C 80.847656 17.957031 80.871094 17.816406 81.128906 17.816406 C 81.269531 17.816406 81.363281 18.003906 81.363281 18.242188 C 81.363281 18.480469 81.480469 18.789062 81.648438 18.953125 C 81.859375 19.167969 81.835938 19.238281 81.550781 19.238281 C 81.339844 19.238281 81.128906 19 81.035156 18.71875 Z M 82.726562 18.691406 C 83.292969 18.433594 84.1875 16.9375 84.1875 16.273438 C 84.1875 16.058594 84.28125 15.941406 84.398438 16.011719 C 84.515625 16.109375 84.515625 16.535156 84.398438 17.03125 C 84.210938 17.957031 83.199219 19 82.539062 18.976562 C 82.328125 18.976562 82.398438 18.859375 82.726562 18.691406 Z M 92.109375 12.714844 C 90.605469 10.863281 88.582031 7.070312 88.066406 5.125 C 87.878906 4.363281 87.738281 3.722656 87.785156 3.699219 C 87.808594 3.675781 88.160156 3.441406 88.558594 3.15625 L 89.3125 2.632812 L 89.617188 3.414062 C 89.804688 3.820312 89.925781 4.246094 89.878906 4.339844 C 89.804688 4.625 90.019531 4.578125 90.769531 4.175781 C 91.429688 3.84375 91.476562 3.84375 91.734375 4.316406 C 91.945312 4.722656 91.921875 4.886719 91.6875 5.027344 C 90.488281 5.71875 90.488281 5.71875 91.546875 7.710938 C 92.675781 9.84375 93.121094 10.246094 93.828125 9.796875 C 94.484375 9.394531 94.722656 9.441406 95.027344 10.035156 C 95.261719 10.460938 95.214844 10.605469 94.792969 10.9375 C 94.34375 11.246094 94.320312 11.410156 94.507812 11.957031 C 94.652344 12.289062 94.957031 12.714844 95.238281 12.882812 C 95.875 13.285156 95.828125 13.472656 95.003906 13.902344 C 93.828125 14.519531 93.453125 14.351562 92.109375 12.714844 Z M 96.203125 12.953125 C 95.898438 12.621094 95.683594 12.3125 95.730469 12.265625 C 96.554688 11.648438 97.378906 11.171875 97.636719 11.171875 C 97.988281 11.171875 99.164062 12.289062 98.976562 12.429688 C 98.578125 12.738281 97.144531 13.546875 96.980469 13.546875 C 96.859375 13.546875 96.507812 13.261719 96.203125 12.953125 Z M 96.203125 12.953125 "
    />
    <path
      d="M 95.828125 11.269531 C 96.273438 10.863281 96.414062 10.582031 96.226562 10.507812 C 95.78125 10.367188 95.898438 10.082031 96.507812 9.796875 C 97.027344 9.558594 97.121094 9.609375 97.238281 10.011719 C 97.402344 10.53125 97.144531 10.792969 95.828125 11.527344 L 95.121094 11.933594 Z M 98.320312 9.890625 C 98.058594 9.582031 98.058594 9.417969 98.25 9.226562 C 98.601562 8.871094 98.8125 9.109375 98.71875 9.773438 C 98.648438 10.273438 98.625 10.273438 98.320312 9.890625 Z M 92.179688 7.710938 C 91.640625 6.714844 91.242188 5.882812 91.289062 5.859375 C 91.335938 5.835938 91.804688 5.527344 92.347656 5.171875 C 92.910156 4.816406 93.40625 4.53125 93.453125 4.53125 C 93.523438 4.53125 94.039062 5.359375 94.628906 6.359375 L 95.683594 8.183594 L 94.484375 8.847656 C 93.828125 9.203125 93.261719 9.511719 93.214844 9.511719 C 93.191406 9.511719 92.722656 8.707031 92.179688 7.710938 Z M 95.355469 9.277344 C 95.285156 9.15625 95.496094 8.871094 95.828125 8.660156 C 96.296875 8.351562 96.507812 8.328125 96.695312 8.515625 C 96.90625 8.730469 96.859375 8.894531 96.507812 9.15625 C 95.992188 9.558594 95.566406 9.609375 95.355469 9.277344 Z M 96.554688 7.425781 C 96.390625 7.070312 96.296875 6.640625 96.367188 6.453125 C 96.4375 6.261719 96.367188 6.191406 96.226562 6.285156 C 96.085938 6.382812 95.804688 6.144531 95.589844 5.742188 C 95.144531 4.839844 95.144531 4.695312 95.683594 4.363281 C 96.109375 4.105469 96.226562 4.222656 97.050781 5.667969 C 97.542969 6.546875 97.964844 7.332031 98.011719 7.402344 C 98.035156 7.472656 97.800781 7.664062 97.472656 7.804688 C 96.957031 8.042969 96.859375 8.019531 96.554688 7.425781 Z M 92.417969 4.222656 C 92.417969 3.867188 93.238281 3.320312 93.453125 3.511719 C 93.710938 3.796875 93.59375 3.984375 93.003906 4.246094 C 92.558594 4.460938 92.417969 4.460938 92.417969 4.222656 Z M 90.300781 3.273438 C 90.300781 3.226562 90.722656 2.871094 91.265625 2.539062 C 92.179688 1.921875 92.253906 1.898438 92.675781 2.300781 C 93.074219 2.679688 93.097656 2.75 92.792969 3.082031 C 92.464844 3.390625 92.371094 3.390625 91.96875 3.011719 C 91.546875 2.609375 91.476562 2.609375 90.910156 2.988281 C 90.582031 3.226562 90.300781 3.34375 90.300781 3.273438 Z M 93.828125 2.777344 C 93.6875 2.585938 93.59375 2.183594 93.640625 1.921875 L 93.710938 1.398438 L 94.367188 1.921875 C 94.886719 2.324219 94.957031 2.515625 94.746094 2.777344 C 94.390625 3.203125 94.179688 3.203125 93.828125 2.777344 Z M 89.925781 2.039062 C 89.757812 1.351562 89.804688 1.28125 91.054688 0.523438 L 91.898438 0 L 92.0625 0.5 C 92.253906 1.066406 91.875 1.589844 90.792969 2.230469 L 90.089844 2.65625 Z M 89.925781 2.039062 "
    />
  </g>
</svg>
