<svg xmlns="http://www.w3.org/2000/svg" id="root" viewBox="3140 104.01 4130 3985.99">
  <path
    d="M6980 3503c-8-3-71-26-140-50-143-52-287-107-345-133-22-10-75-34-119-54-43-20-84-36-92-36-20 0-157-46-196-66-67-34-154-89-208-132-75-59-239-221-255-252-38-74-106-323-124-455-7-44-18-120-26-170-8-49-19-153-24-230-24-332-31-444-30-506 3-194-60-345-208-495-56-57-147-127-178-138-11-3-31-21-44-39-66-89-263-187-377-187-36 0-43-3-48-24-3-14-19-29-37-37-30-12-33-11-53 14-15 19-31 27-52 27-26 0-49 19-155 128-235 241-235 241-242 298-8 59-40 94-101 114-65 21-102-12-97-87 1-28-13-49-107-155-99-113-111-123-144-124-47-1-58-10-58-45 0-48 24-84 66-97 45-14 64-5 78 38 7 19 58 78 126 146 145 143 146 143 232 37 35-42 110-133 166-202 106-129 116-144 127-196 4-17 26-49 51-72 37-36 51-43 84-43 32 0 43 5 62 30 37 50 53 40 89-55 17-47 36-88 42-92 5-3 50-7 100-8 58-1 93-7 95-14 2-6 17-18 33-27 23-12 38-13 67-4 20 5 48 10 62 10 18 0 42 17 78 53 43 44 53 60 53 88 1 28 10 42 57 86 57 51 57 52 57 109v57l80 35c112 48 227 127 315 216 101 102 106 119 21 69-88-51-222-144-320-223-55-44-105-80-113-80-7 0-24 21-38 47-18 34-33 49-54 55-27 7-36 1-104-64-107-101-258-168-382-168-43 0-54 10-45 40 5 15 15 20 43 20 47 0 154 30 212 60 69 35 144 94 160 126 26 52 31 56 50 39 17-15 22-13 76 31 145 116 240 228 309 363 47 95 61 160 80 366 8 99 22 245 30 325s22 276 31 435l16 290 66 100c109 166 188 264 316 391 141 141 230 202 341 237 110 35 390 102 506 122l96 17 22 53c12 30 29 59 37 66 26 21 17 34-16 22zm-3474 136c-35-26-95-49-168-64-36-7-36-29 1-125 29-75 30-75 69-78 59-5 193 50 231 94 42 47 47 77 26 138-22 61-28 66-80 65-28 0-52-9-79-30zm-366 447c0-6 120-284 159-368 28-62 34-68 61-68 37 0 85 20 124 52l29 24-38 85c-46 102-66 147-99 222l-25 57h-105c-59 0-106-2-106-4zm1760-772c0-9 5-14 12-12 18 6 21 28 4 28-9 0-16-7-16-16zm-1191 132c-12-18-36-42-53-54-49-33-176-80-237-87l-56-7-47-142c-25-78-46-148-46-156 0-9 75-91 168-183l167-167h53c89 0 281 81 357 151 53 49 86 51 125 9 25-26 35-30 84-30 55 0 55 0 73 39 11 24 39 56 73 81 322 244 316 240 353 240 52 0 77 28 77 84 0 46-12 63-45 66-68 7-97-15-105-82-5-38-9-43-65-75-33-18-67-36-75-40-8-3-53-28-100-54-78-44-91-47-155-48-68 0-86-8-97-43-2-6-20-7-48-1l-45 9 3 182 3 182-93 44c-51 24-128 60-170 79l-77 35z"
  />
  <path
    d="M4440 1836c-56-59-182-122-283-141-43-8-81-14-85-14-25 4-20-9 90-243 47-100 47-100 153-73 95 24 223 92 285 151l55 53 55-19c70-25 85-25 110 0 14 14 20 33 20 65 0 53-25 85-68 85-30 0-72-32-72-54 0-16-22-26-56-26-21 0-32 16-86 130-33 72-65 130-69 130s-27-20-49-44zm-163 78c35-20 42-28 33-39-17-21-111-65-137-65-23 0-24 2-17 63 4 34 9 66 12 71 7 13 61-2 109-30zm-201 120c57-49 64-71 48-153-9-41-30-40-82 5l-42 36v79c0 50 4 79 11 79 6 0 35-21 65-46zm205 114c30-23 58-47 62-53 12-15 1-126-15-141-11-12-21-10-58 8-72 34-80 45-80 102 0 73 11 126 25 126 7 0 37-19 66-42z"
  />
  <path
    d="M4237 2255c-77-71-250-145-339-145-15 0-29-3-31-7-10-16 81-191 104-204 34-17 119-89 119-100 0-5-12-9-27-9-16 0-34-4-42-9-11-7-10-11 7-20 46-25 145-8 248 40 75 36 124 75 155 125 26 42 18 56-14 26-23-22-47-29-47-14 0 4 5 34 11 67s11 68 11 78c-1 24-91 217-102 217-3-1-27-21-53-45zm-72 144c-22-22-80-59-130-83-81-39-117-52-207-71-33-6-35-15-9-46 33-41 151-25 275 37 107 54 163 119 151 175-9 39-31 36-80-12zm2855 254c-203-33-412-88-501-133-170-84-277-226-362-475-17-50-21-99-27-296-9-279-27-391-78-494-47-94-140-215-229-298-68-62-32-70 82-17 63 29 94 56 185 158 112 125 155 222 170 389 36 404 84 632 167 799 60 120 106 158 263 220 92 37 108 39 208 24 37-5 125-17 196-25 71-9 140-18 153-21 23-6 23-5 23 85v91l-112-1c-62-1-124-4-138-6zm-3005 66c-77-49-234-116-302-130-35-7-63-16-63-20 0-7 25-64 84-191 14-32 34-61 44-66 47-25 241 49 337 128 84 71 83 64 23 195-29 63-57 114-63 114-5 1-32-13-60-30zm620-1262c-78-68-183-120-305-153-104-27-116-49-25-48 59 1 156 30 199 59 11 8 26 15 34 15 31 0 152 105 152 131 0 31-16 30-55-4zm56-101c-28-29-28-29 49-193 29-62 58-113 64-113s21 15 34 34l23 33-62 132c-34 72-67 131-74 131-6 0-22-11-34-24zm-120-85c-24-18-24-19-7-62 36-92 109-249 115-249 15 0 71 41 71 52 0 7-28 73-62 146-41 86-68 132-78 132-8 0-26-9-39-19zm-139-58c-40-14-43-18-37-41 8-34 94-233 107-249s59-17 92-1c31 14 29 26-26 153-77 176-65 163-136 138zm-142-45c0-8 24-68 54-133 42-92 59-121 75-123 12-2 21 2 21 10 0 7-25 67-54 133-42 94-58 121-75 123-13 2-21-2-21-10zm559-171c-97-88-221-145-339-156-50-5-65-10-63-21 2-24 75-184 87-192 18-13 84-9 149 8 126 33 240 109 278 188l19 40-37 80c-20 45-39 84-42 88-3 3-27-12-52-35z"
  />
</svg>
