<svg xmlns="http://www.w3.org/2000/svg" id="root" viewBox="0 0 99 55">
  <g>
    <path
      style="stroke: none; fill-rule: nonzero; fill: rgb(76.470588%, 72.941176%, 56.078431%); fill-opacity: 1"
      d="M 0 34.902344 C 0 19.378906 0.0390625 14.816406 0.160156 14.816406 C 0.28125 14.816406 0.28125 14.773438 0.160156 14.65625 C 0.0390625 14.535156 0 13.332031 0 10.050781 C 0 5.753906 0.015625 5.605469 0.253906 5.605469 C 0.558594 5.605469 2.121094 6.808594 2.132812 7.046875 C 2.132812 7.128906 2.253906 7.207031 2.398438 7.207031 C 2.546875 7.207031 2.664062 7.261719 2.664062 7.3125 C 2.664062 7.515625 4.449219 8.863281 5.332031 9.316406 C 5.808594 9.570312 6.261719 9.824219 6.328125 9.875 C 6.410156 9.929688 6.796875 10.15625 7.195312 10.371094 C 7.59375 10.597656 8.410156 11.039062 8.996094 11.371094 C 9.582031 11.703125 10.78125 12.34375 11.660156 12.8125 C 12.539062 13.28125 13.40625 13.761719 13.589844 13.878906 C 13.777344 14 14.496094 14.402344 15.191406 14.773438 C 17.667969 16.09375 18.335938 16.457031 19.054688 16.882812 C 19.453125 17.125 20.265625 17.5625 20.851562 17.871094 C 22.917969 18.9375 27.0625 21.621094 28.980469 23.15625 C 29.648438 23.675781 30.367188 24.238281 30.578125 24.410156 C 30.804688 24.570312 31.246094 24.945312 31.578125 25.222656 C 31.914062 25.503906 32.367188 25.878906 32.578125 26.066406 C 32.964844 26.398438 32.976562 26.4375 33.058594 27.945312 C 33.136719 29.308594 33.179688 29.535156 33.472656 29.921875 C 33.65625 30.164062 33.832031 30.429688 33.859375 30.496094 C 33.910156 30.65625 34.671875 31.683594 36.414062 33.992188 C 37.574219 35.527344 38.402344 36.527344 39.308594 37.476562 C 39.558594 37.757812 39.90625 38.144531 40.082031 38.355469 L 40.375 38.746094 L 40.375 38.316406 C 40.375 37.796875 40.546875 37.785156 42.144531 38.195312 C 43.117188 38.449219 43.304688 38.542969 43.304688 38.769531 C 43.304688 38.917969 43.398438 39.332031 43.503906 39.691406 C 43.796875 40.640625 43.769531 41.105469 43.4375 41.105469 C 43.210938 41.105469 43.171875 41.199219 43.171875 41.625 C 43.171875 42.148438 43.183594 42.148438 43.824219 42.320312 C 44.53125 42.496094 44.636719 42.65625 44.636719 43.46875 C 44.636719 43.695312 44.449219 44.375 44.222656 44.988281 C 43.851562 45.949219 43.824219 46.136719 43.957031 46.511719 C 44.210938 47.21875 44.144531 47.5 43.199219 49.648438 C 42.691406 50.78125 42.050781 52.238281 41.773438 52.890625 C 41.492188 53.53125 41.210938 54.050781 41.144531 54.050781 C 41.09375 54.050781 40.933594 54.265625 40.8125 54.519531 L 40.601562 54.972656 L 35.617188 54.988281 C 31.234375 54.988281 30.605469 54.972656 30.3125 54.773438 C 30.007812 54.574219 29.980469 54.574219 29.980469 54.773438 C 29.980469 54.972656 28.703125 54.988281 14.992188 54.988281 L 0 54.988281 Z M 20.308594 46.058594 C 20.199219 45.84375 20.027344 45.605469 19.921875 45.511719 C 19.8125 45.417969 19.71875 45.285156 19.71875 45.21875 C 19.71875 45.148438 19.601562 44.9375 19.453125 44.75 C 19.199219 44.417969 19.1875 44.417969 19.1875 44.695312 C 19.1875 44.898438 19.109375 44.976562 18.90625 44.976562 C 18.679688 44.976562 18.667969 45.003906 18.816406 45.148438 C 19.042969 45.378906 20.398438 46.445312 20.453125 46.445312 C 20.480469 46.445312 20.414062 46.269531 20.308594 46.058594 Z M 19.828125 32.804688 C 20.148438 32.765625 20.199219 32.683594 20.308594 32.125 C 20.441406 31.378906 20.546875 31.308594 21.839844 31.136719 L 22.679688 31.03125 L 21.53125 30.042969 C 20.746094 29.375 20.386719 28.976562 20.386719 28.773438 C 20.386719 28.480469 19.453125 27.761719 19.082031 27.761719 C 18.972656 27.761719 18.816406 27.667969 18.722656 27.535156 C 18.496094 27.238281 18.148438 27.398438 18.042969 27.855469 C 18 28.054688 17.882812 28.292969 17.789062 28.359375 C 17.695312 28.441406 17.496094 28.746094 17.335938 29.066406 L 17.054688 29.628906 L 17.480469 29.628906 C 17.828125 29.628906 18 29.734375 18.320312 30.136719 C 18.667969 30.578125 18.734375 30.761719 18.800781 31.777344 C 18.855469 32.605469 18.960938 33.03125 19.132812 33.273438 L 19.386719 33.605469 L 19.425781 33.230469 C 19.46875 32.925781 19.546875 32.84375 19.828125 32.804688 Z M 45.96875 54.519531 C 45.96875 54.265625 46.035156 54.050781 46.101562 54.050781 C 46.183594 54.050781 46.234375 53.933594 46.234375 53.773438 C 46.234375 53.625 46.328125 53.410156 46.4375 53.304688 C 46.542969 53.183594 46.636719 52.957031 46.636719 52.785156 C 46.636719 52.609375 46.730469 52.371094 46.847656 52.265625 C 47.101562 52.011719 47.835938 50.410156 47.835938 50.113281 C 47.835938 49.996094 47.929688 49.808594 48.035156 49.703125 C 48.140625 49.582031 48.234375 49.355469 48.234375 49.167969 C 48.234375 48.886719 48.289062 48.847656 48.753906 48.847656 C 49.699219 48.847656 50.632812 47.660156 50.632812 46.457031 C 50.632812 45.949219 50.644531 45.9375 51.191406 45.84375 C 51.5 45.789062 51.832031 45.65625 51.9375 45.5625 C 52.03125 45.457031 52.230469 45.378906 52.378906 45.378906 C 52.644531 45.378906 53.976562 44.761719 54.097656 44.578125 C 54.136719 44.523438 54.417969 44.347656 54.738281 44.1875 C 55.667969 43.722656 55.828125 43.523438 55.828125 42.867188 L 55.828125 42.292969 L 56.667969 42.359375 C 58.054688 42.453125 58.878906 42.789062 62.492188 44.75 C 62.890625 44.964844 63.851562 45.484375 64.625 45.882812 C 65.394531 46.285156 66.261719 46.832031 66.554688 47.070312 L 67.089844 47.527344 L 67.128906 47.191406 C 67.15625 47.003906 67.273438 46.832031 67.394531 46.792969 C 67.515625 46.75 69.058594 46.660156 70.820312 46.578125 C 74.550781 46.417969 79 46.191406 81.546875 46.042969 C 82.824219 45.964844 83.675781 45.832031 84.476562 45.605469 C 85.101562 45.417969 86.023438 45.136719 86.542969 44.988281 C 87.046875 44.828125 87.6875 44.710938 87.96875 44.710938 C 88.234375 44.710938 89.566406 45.125 90.992188 45.644531 C 92.390625 46.164062 93.65625 46.578125 93.804688 46.578125 C 94.683594 46.578125 95.363281 45.484375 94.816406 44.9375 C 94.578125 44.695312 94.070312 43.761719 94.070312 43.5625 C 94.070312 43.46875 93.949219 43.375 93.804688 43.335938 C 93.605469 43.28125 93.535156 43.148438 93.535156 42.789062 C 93.535156 42.335938 93.5625 42.308594 93.988281 42.308594 C 94.242188 42.308594 94.484375 42.359375 94.535156 42.425781 C 94.578125 42.507812 94.777344 42.507812 95.042969 42.414062 C 95.269531 42.347656 95.933594 42.148438 96.523438 41.972656 C 97.09375 41.800781 97.628906 41.601562 97.707031 41.519531 C 97.789062 41.441406 98.105469 41.375 98.425781 41.375 L 99 41.375 L 99 54.988281 L 82.464844 54.988281 C 71.433594 54.988281 65.847656 54.933594 65.675781 54.851562 C 65.503906 54.757812 65.421875 54.757812 65.421875 54.851562 C 65.421875 54.945312 62.316406 54.988281 55.695312 54.988281 L 45.96875 54.988281 Z M 45.96875 54.519531 "
    />
    <path
      d="M 29.5 54.679688 C 29.367188 54.519531 28.859375 54.09375 28.382812 53.71875 C 27.542969 53.078125 25.316406 51.261719 25.183594 51.101562 C 25.144531 51.0625 24.785156 50.78125 24.382812 50.488281 C 23.984375 50.195312 23.4375 49.742188 23.183594 49.5 C 22.933594 49.246094 22.558594 48.941406 22.359375 48.808594 C 22.160156 48.6875 21.53125 48.167969 20.960938 47.671875 C 20.386719 47.179688 19.628906 46.539062 19.253906 46.246094 C 18.894531 45.949219 18.363281 45.511719 18.082031 45.242188 C 17.800781 44.988281 17.253906 44.535156 16.871094 44.242188 C 15.976562 43.5625 11.726562 39.890625 11.445312 39.558594 C 11.261719 39.316406 10.714844 38.398438 9.421875 36.101562 C 8.261719 34.058594 6.328125 30.65625 5.808594 29.761719 C 5.210938 28.707031 5.078125 28.253906 5.4375 28.480469 C 5.558594 28.5625 6.929688 30.523438 6.929688 30.628906 C 6.929688 30.667969 7.664062 31.789062 8.273438 32.699219 C 8.410156 32.898438 8.515625 33.085938 8.96875 33.898438 C 9.113281 34.140625 9.609375 34.941406 10.085938 35.6875 C 10.566406 36.421875 11.179688 37.382812 11.445312 37.824219 C 12.03125 38.785156 12.472656 39.265625 13.589844 40.183594 C 14.070312 40.574219 14.484375 40.933594 14.523438 40.972656 C 14.5625 41.011719 15.097656 41.492188 15.722656 42.027344 C 16.351562 42.5625 17.042969 43.160156 17.253906 43.363281 C 17.480469 43.5625 17.921875 43.921875 18.253906 44.175781 C 18.773438 44.578125 18.828125 44.601562 18.628906 44.308594 C 18.507812 44.121094 18.070312 43.402344 17.640625 42.707031 C 17.230469 42.015625 16.628906 41.054688 16.308594 40.574219 C 16.003906 40.09375 15.683594 39.464844 15.589844 39.171875 C 15.351562 38.332031 14.390625 34.539062 14.390625 34.40625 C 14.390625 34.140625 14.777344 34.339844 14.898438 34.671875 C 15.296875 35.753906 16.070312 37.808594 16.363281 38.570312 C 16.550781 39.050781 17.121094 40.105469 17.65625 40.90625 C 18.988281 42.960938 19.894531 44.390625 20.066406 44.710938 C 20.148438 44.855469 20.308594 45.082031 20.425781 45.21875 C 20.558594 45.351562 20.652344 45.511719 20.652344 45.550781 C 20.652344 45.699219 21.734375 47.246094 21.824219 47.246094 C 21.878906 47.246094 22.160156 47.460938 22.453125 47.726562 C 24.039062 49.140625 31.046875 54.652344 31.257812 54.652344 C 31.351562 54.652344 31.511719 54.734375 31.605469 54.828125 C 31.726562 54.945312 31.566406 54.988281 30.765625 54.988281 C 29.886719 54.988281 29.726562 54.945312 29.5 54.679688 Z M 41.574219 54.691406 C 41.574219 54.519531 41.839844 53.785156 42.160156 53.050781 C 42.480469 52.316406 43.183594 50.730469 43.703125 49.515625 C 44.238281 48.300781 44.730469 47.285156 44.796875 47.257812 C 44.863281 47.230469 44.796875 47.125 44.648438 47.019531 C 44.238281 46.738281 44.289062 46.058594 44.824219 44.644531 C 45.101562 43.910156 45.238281 43.375 45.171875 43.242188 C 45.117188 43.136719 44.996094 42.894531 44.929688 42.707031 L 44.785156 42.375 L 44.785156 42.746094 C 44.769531 42.949219 44.71875 43.109375 44.648438 43.109375 C 44.582031 43.109375 44.4375 43.148438 44.316406 43.1875 C 44.183594 43.242188 44.105469 43.203125 44.105469 43.09375 C 44.105469 42.976562 43.492188 42.722656 42.464844 42.386719 C 40.894531 41.894531 37.335938 40.425781 36.375 39.878906 C 36.121094 39.730469 35.761719 39.425781 35.578125 39.183594 C 35.390625 38.945312 34.695312 38.144531 34.019531 37.421875 C 32.898438 36.207031 32.566406 35.808594 31.394531 34.378906 C 31.167969 34.101562 30.753906 33.59375 30.460938 33.246094 C 29.59375 32.203125 29.527344 32.109375 29.035156 31.496094 C 28.78125 31.164062 28.207031 30.441406 27.78125 29.894531 C 26.847656 28.734375 27.035156 28.976562 25.769531 27.292969 C 25.222656 26.558594 24.703125 25.863281 24.609375 25.757812 C 24.515625 25.652344 24.25 25.277344 24.011719 24.945312 C 23.570312 24.34375 23.519531 24.316406 22.210938 23.957031 C 17.867188 22.796875 11.101562 20.578125 7.328125 19.085938 C 5.957031 18.539062 2.597656 16.828125 1.507812 16.121094 C 0.90625 15.734375 0.320312 15.363281 0.199219 15.28125 C 0.0390625 15.175781 -0.0117188 14.988281 0.0273438 14.507812 L 0.0664062 13.867188 L 0.601562 14.253906 C 1.960938 15.253906 5.238281 17.070312 7.394531 18.015625 C 7.769531 18.175781 8.261719 18.390625 8.5 18.496094 C 10.992188 19.632812 15.589844 21.246094 19.855469 22.488281 C 22.492188 23.25 23.8125 23.621094 23.917969 23.621094 C 23.984375 23.621094 25.410156 25.476562 26.34375 26.773438 C 26.570312 27.105469 27.183594 27.894531 27.675781 28.535156 C 28.179688 29.175781 28.914062 30.121094 29.3125 30.628906 C 29.714844 31.148438 30.113281 31.628906 30.207031 31.699219 C 30.300781 31.777344 30.59375 32.136719 30.875 32.523438 C 31.460938 33.3125 33.710938 35.980469 34.457031 36.769531 C 34.75 37.074219 35.335938 37.730469 35.777344 38.238281 C 36.484375 39.039062 36.734375 39.222656 37.910156 39.785156 C 39.546875 40.558594 42.480469 41.667969 42.679688 41.601562 C 42.773438 41.574219 42.480469 41.292969 42.039062 40.960938 C 41.210938 40.34375 40.320312 39.476562 38.972656 37.957031 C 38.535156 37.464844 37.949219 36.824219 37.683594 36.515625 C 37.402344 36.207031 37.203125 35.886719 37.242188 35.792969 C 37.28125 35.703125 37.253906 35.660156 37.1875 35.703125 C 37.070312 35.769531 36.082031 34.527344 34.175781 31.9375 C 33.816406 31.445312 33.484375 30.976562 33.457031 30.898438 C 33.429688 30.828125 33.269531 30.589844 33.113281 30.363281 C 32.75 29.882812 32.660156 29.402344 32.632812 27.960938 C 32.605469 27 32.578125 26.867188 32.257812 26.558594 C 31.847656 26.171875 30.753906 25.238281 30.179688 24.8125 C 29.96875 24.636719 29.246094 24.078125 28.582031 23.554688 C 26.664062 22.019531 22.519531 19.339844 20.453125 18.269531 C 19.867188 17.964844 19.054688 17.523438 18.65625 17.285156 C 17.933594 16.855469 17.269531 16.496094 14.789062 15.175781 C 14.097656 14.800781 13.378906 14.402344 13.191406 14.28125 C 13.003906 14.160156 12.140625 13.679688 11.261719 13.214844 C 10.378906 12.746094 9.179688 12.105469 8.59375 11.773438 C 8.007812 11.4375 7.195312 10.996094 6.796875 10.769531 C 6.394531 10.558594 5.996094 10.332031 5.929688 10.261719 C 5.851562 10.210938 5.421875 9.984375 4.996094 9.769531 C 4.089844 9.316406 2.332031 7.96875 2.332031 7.714844 C 2.320312 7.621094 2.253906 7.554688 2.160156 7.566406 C 2.066406 7.59375 2.011719 7.539062 2.039062 7.460938 C 2.054688 7.378906 1.972656 7.289062 1.851562 7.273438 C 1.734375 7.246094 1.28125 6.941406 0.828125 6.59375 C 0.0820312 5.992188 0 5.898438 0 5.417969 C 0 4.804688 -0.09375 4.75 1.8125 6.417969 C 3.199219 7.621094 4.222656 8.410156 4.425781 8.410156 C 4.476562 8.410156 4.53125 8.261719 4.53125 8.074219 C 4.53125 7.753906 4.851562 7.472656 5.011719 7.648438 C 5.050781 7.6875 5.117188 8.007812 5.171875 8.355469 C 5.238281 8.820312 5.332031 9.023438 5.503906 9.050781 C 5.675781 9.089844 5.730469 8.996094 5.730469 8.621094 C 5.730469 8.113281 5.957031 7.859375 6.144531 8.15625 C 6.210938 8.261719 6.261719 8.582031 6.261719 8.890625 C 6.261719 9.503906 6.464844 9.742188 7.222656 10.050781 C 7.769531 10.277344 7.863281 10.238281 7.863281 9.796875 C 7.863281 9.460938 8.089844 9.25 8.261719 9.421875 C 8.328125 9.488281 8.394531 9.796875 8.410156 10.117188 C 8.449219 10.703125 8.675781 11.023438 9.113281 11.105469 C 9.300781 11.132812 9.394531 11.050781 9.460938 10.8125 C 9.527344 10.503906 9.992188 10.238281 9.992188 10.503906 C 9.992188 10.558594 10.046875 10.691406 10.113281 10.796875 C 10.21875 10.957031 10.273438 10.957031 10.445312 10.824219 C 10.753906 10.570312 10.925781 10.757812 10.925781 11.332031 C 10.925781 11.636719 11.035156 11.972656 11.179688 12.160156 L 11.433594 12.480469 L 11.578125 12.117188 C 11.78125 11.585938 12.125 11.625 12.125 12.183594 C 12.125 12.71875 12.21875 12.851562 12.765625 13.132812 C 13.097656 13.304688 13.207031 13.320312 13.246094 13.1875 C 13.417969 12.625 13.472656 12.53125 13.632812 12.574219 C 13.710938 12.613281 13.804688 12.773438 13.832031 12.960938 C 13.910156 13.625 14.003906 13.878906 14.179688 13.878906 C 14.285156 13.878906 14.390625 13.746094 14.417969 13.574219 C 14.484375 13.066406 14.855469 13.214844 14.898438 13.785156 C 14.925781 14.148438 15.03125 14.347656 15.269531 14.507812 C 15.5625 14.695312 15.628906 14.695312 15.738281 14.535156 C 15.804688 14.425781 15.855469 14.265625 15.855469 14.1875 C 15.855469 14.09375 15.949219 14.015625 16.054688 14.015625 C 16.242188 14.015625 16.324219 14.199219 16.417969 14.882812 C 16.441406 15.015625 16.628906 15.226562 16.828125 15.347656 C 17.175781 15.535156 17.214844 15.535156 17.375 15.308594 C 17.640625 14.949219 17.828125 15.042969 17.933594 15.546875 C 17.988281 15.882812 18.136719 16.082031 18.402344 16.214844 C 18.882812 16.46875 18.882812 16.46875 18.960938 16.136719 C 19.054688 15.777344 19.375 15.882812 19.425781 16.296875 C 19.507812 16.964844 19.585938 17.042969 19.855469 16.683594 C 20.121094 16.324219 20.09375 16.308594 20.320312 17.03125 C 20.375 17.203125 20.425781 17.214844 20.585938 17.082031 C 20.839844 16.871094 21.054688 17.03125 21.054688 17.417969 C 21.054688 17.789062 20.988281 17.738281 23.71875 19.484375 C 26.503906 21.261719 27.996094 22.289062 29.992188 23.757812 C 30.433594 24.089844 30.953125 24.449219 31.125 24.570312 C 31.3125 24.691406 31.777344 25.050781 32.152344 25.371094 C 33.511719 26.53125 33.445312 26.425781 33.457031 27.652344 C 33.496094 29.75 33.390625 29.496094 35.441406 32.363281 C 35.816406 32.886719 36.363281 33.660156 36.667969 34.101562 C 36.976562 34.539062 37.683594 35.394531 38.226562 36.007812 C 39.132812 36.996094 39.320312 37.144531 39.972656 37.316406 C 40.375 37.421875 41.238281 37.664062 41.890625 37.863281 C 42.851562 38.144531 43.089844 38.171875 43.183594 38.023438 C 43.371094 37.703125 43.476562 38.011719 43.382812 38.636719 C 43.316406 39.023438 43.226562 39.238281 43.089844 39.238281 C 42.984375 39.238281 42.90625 39.15625 42.90625 39.066406 C 42.90625 38.972656 42.453125 38.785156 41.839844 38.625 C 41.253906 38.464844 40.773438 38.382812 40.773438 38.4375 C 40.773438 38.597656 42.039062 39.824219 42.703125 40.292969 C 43.066406 40.546875 43.304688 40.679688 43.25 40.597656 C 43.117188 40.386719 43.039062 39.90625 43.132812 39.90625 C 43.171875 39.90625 43.492188 40.226562 43.835938 40.597656 L 44.492188 41.304688 L 44.171875 40.371094 C 43.570312 38.625 43.519531 38.746094 46.074219 36.15625 C 47.570312 34.632812 48.421875 33.859375 48.675781 33.804688 C 48.992188 33.738281 49.035156 33.671875 49.035156 33.21875 C 49.035156 32.925781 49.246094 32.230469 49.554688 31.539062 C 50.367188 29.683594 50.527344 29.375 50.792969 29.28125 C 50.964844 29.226562 51.03125 29.082031 51.03125 28.761719 C 51.03125 28.175781 51.273438 27.667969 51.578125 27.585938 C 51.777344 27.535156 51.832031 27.398438 51.832031 26.984375 C 51.832031 26.386719 52.910156 23.890625 53.164062 23.890625 C 53.257812 23.890625 53.496094 23.757812 53.722656 23.609375 C 54.003906 23.410156 54.070312 23.277344 53.976562 23.183594 C 53.898438 23.101562 53.832031 22.808594 53.832031 22.542969 C 53.832031 22.15625 53.898438 22.019531 54.097656 21.953125 C 54.308594 21.886719 54.363281 21.753906 54.378906 21.3125 C 54.378906 20.5 56.203125 16.628906 56.601562 16.574219 C 56.855469 16.535156 56.894531 16.441406 56.894531 15.855469 C 56.894531 15.308594 56.933594 15.175781 57.160156 15.121094 C 57.363281 15.066406 57.429688 14.933594 57.429688 14.5625 C 57.429688 13.839844 58.773438 10.929688 59.226562 10.703125 C 59.507812 10.558594 59.558594 10.4375 59.558594 9.957031 C 59.558594 9.183594 60.625 6.847656 61 6.78125 C 61.210938 6.753906 61.238281 6.6875 61.144531 6.433594 L 61.027344 6.113281 L 60.679688 6.394531 C 60.480469 6.554688 60.160156 6.671875 59.960938 6.671875 C 59.679688 6.671875 59.171875 7.128906 57.347656 9.023438 C 56.109375 10.316406 55.054688 11.492188 55.003906 11.652344 C 54.949219 11.8125 54.871094 12.183594 54.832031 12.464844 C 54.722656 13.09375 54.164062 13.667969 53.550781 13.800781 C 52.070312 14.09375 51.300781 13.707031 51.300781 12.652344 C 51.300781 12.117188 51.191406 11.972656 49.953125 10.515625 C 48.675781 9.023438 48.582031 8.941406 48.101562 8.941406 C 47.421875 8.941406 47.167969 8.660156 47.167969 7.929688 C 47.167969 6.621094 47.78125 6.007812 49.085938 6.007812 C 49.753906 6.007812 50.101562 6.257812 50.101562 6.714844 C 50.101562 6.914062 50.59375 7.515625 51.605469 8.515625 C 52.433594 9.328125 53.136719 10.011719 53.179688 10.011719 C 53.257812 10.011719 55.65625 7.074219 57.070312 5.246094 C 57.480469 4.699219 57.828125 4.125 57.828125 3.964844 C 57.828125 3.589844 58.308594 2.910156 58.828125 2.5625 C 59.332031 2.203125 60.878906 2.136719 61.199219 2.46875 C 61.371094 2.628906 61.4375 2.535156 61.757812 1.667969 C 61.945312 1.132812 62.199219 0.652344 62.316406 0.613281 C 62.425781 0.574219 63.011719 0.535156 63.609375 0.535156 C 64.542969 0.535156 64.757812 0.492188 64.957031 0.265625 C 65.15625 0.0390625 65.371094 0 66.34375 0 C 66.96875 0 67.675781 0.0546875 67.914062 0.121094 C 68.699219 0.347656 69.6875 1.480469 69.6875 2.164062 C 69.6875 2.390625 69.925781 2.734375 70.417969 3.230469 C 71.113281 3.925781 71.152344 3.992188 71.152344 4.644531 L 71.152344 5.339844 L 72.40625 5.925781 C 73.097656 6.246094 74.070312 6.792969 74.578125 7.140625 C 75.777344 7.996094 77.546875 9.808594 77.546875 10.195312 C 77.546875 10.476562 77.628906 10.515625 78.320312 10.582031 C 78.761719 10.625 79.441406 10.8125 79.878906 11.011719 C 81.492188 11.785156 83.835938 14.761719 84.34375 16.65625 C 84.421875 16.976562 84.570312 18.203125 84.675781 19.390625 C 85.035156 23.636719 85.703125 26.757812 86.675781 28.761719 C 87.632812 30.75 88.128906 31.175781 90.390625 32.03125 L 91.523438 32.457031 L 94.695312 32.019531 C 96.441406 31.777344 98.121094 31.5625 98.441406 31.523438 L 99 31.46875 L 99 34.941406 L 97.667969 34.953125 C 95.015625 34.980469 91.84375 34.527344 89.207031 33.753906 C 85.957031 32.777344 84.144531 31.082031 82.851562 27.828125 C 82.183594 26.144531 82.105469 25.636719 82.023438 22.6875 C 81.917969 19.019531 81.625 17.203125 80.933594 15.882812 C 80.574219 15.203125 78.734375 12.839844 78.027344 12.144531 C 77.65625 11.785156 77.414062 11.4375 77.414062 11.25 C 77.414062 10.996094 77.347656 10.945312 76.988281 10.945312 C 76.308594 10.929688 73.855469 9.394531 71.710938 7.648438 C 71.152344 7.179688 70.660156 6.808594 70.621094 6.808594 C 70.578125 6.808594 70.445312 6.992188 70.3125 7.21875 C 70.191406 7.449219 69.964844 7.660156 69.820312 7.699219 C 69.605469 7.753906 69.804688 8.007812 70.964844 9.117188 C 72.457031 10.53125 73.164062 11.464844 73.882812 12.933594 C 74.535156 14.265625 74.722656 15.042969 74.949219 17.617188 C 75.070312 18.898438 75.269531 21.21875 75.417969 22.753906 C 75.5625 24.304688 75.75 26.972656 75.828125 28.695312 L 75.988281 31.816406 L 76.921875 33.230469 C 79.253906 36.78125 82.292969 39.945312 84.4375 41.078125 C 85.035156 41.398438 89.285156 42.546875 91.140625 42.894531 C 93.710938 43.375 93.671875 43.363281 93.855469 43.921875 C 93.949219 44.1875 94.148438 44.589844 94.308594 44.816406 C 94.484375 45.042969 94.601562 45.417969 94.601562 45.699219 C 94.601562 46.179688 94.601562 46.179688 94.042969 46.179688 C 93.378906 46.179688 89.714844 44.855469 86.394531 43.429688 C 85.128906 42.882812 84.035156 42.441406 83.957031 42.441406 C 83.71875 42.441406 82.210938 41.921875 81.679688 41.667969 C 79.425781 40.574219 76.042969 37.769531 75.363281 36.449219 C 74.855469 35.472656 73.992188 32.511719 73.765625 31.03125 C 73.722656 30.738281 73.5625 29.75 73.429688 28.828125 C 73.085938 26.625 72.777344 22.914062 72.632812 19.21875 C 72.523438 16.523438 72.484375 16.121094 72.179688 15.320312 C 71.523438 13.535156 70.21875 11.824219 68.5 10.515625 L 67.621094 9.851562 L 67.542969 10.503906 C 67.5 10.851562 67.234375 11.613281 66.96875 12.183594 C 66.570312 13 66.394531 13.214844 66.167969 13.214844 C 65.914062 13.214844 65.890625 13.28125 65.929688 13.734375 C 65.996094 14.46875 64.464844 17.75 64.039062 17.75 C 63.796875 17.75 63.757812 17.832031 63.757812 18.351562 L 63.757812 18.953125 L 64.515625 18.953125 C 65.53125 18.953125 65.6875 19.179688 65.6875 20.566406 C 65.6875 21.875 65.542969 22.019531 64.332031 22.019531 C 63.425781 22.019531 63.183594 21.886719 62.972656 21.289062 C 62.878906 21.035156 62.863281 21.035156 62.625 21.355469 C 62.476562 21.539062 62.359375 21.726562 62.359375 21.78125 C 62.359375 21.847656 62.078125 22.460938 61.746094 23.15625 C 61.199219 24.277344 61.09375 24.421875 60.773438 24.421875 C 60.441406 24.421875 60.425781 24.449219 60.464844 25.023438 C 60.519531 25.613281 60.507812 25.625 60.132812 25.625 L 59.761719 25.625 L 59.761719 26.53125 C 59.746094 27.332031 59.679688 27.574219 59.09375 28.789062 C 58.546875 29.921875 58.375 30.164062 58.132812 30.164062 C 57.867188 30.164062 57.828125 30.230469 57.828125 30.75 C 57.828125 31.5625 57.628906 32.03125 57.296875 32.03125 C 57.070312 32.03125 57.027344 32.125 57.027344 32.566406 C 57.027344 32.925781 56.828125 33.5 56.429688 34.328125 L 55.84375 35.566406 L 57.042969 35.609375 L 58.242188 35.648438 L 58.425781 36.074219 C 58.652344 36.621094 58.773438 36.730469 61.464844 38.757812 C 63.382812 40.199219 63.769531 40.4375 64.195312 40.4375 C 64.996094 40.4375 65.089844 40.558594 65.128906 41.8125 C 65.167969 42.707031 65.144531 42.960938 64.96875 43.09375 C 64.703125 43.308594 63.585938 43.441406 63.089844 43.320312 C 62.691406 43.214844 62.226562 42.519531 62.226562 42.027344 C 62.226562 41.601562 62.183594 41.558594 60.824219 40.839844 C 60.238281 40.53125 59.398438 40.078125 58.960938 39.839844 C 58.335938 39.503906 57.933594 39.398438 57.109375 39.316406 C 56.121094 39.238281 55.921875 39.15625 55.789062 38.785156 C 55.761719 38.71875 55.644531 38.691406 55.523438 38.746094 C 55.308594 38.824219 55.296875 39.039062 55.375 41.226562 L 55.46875 43.617188 L 55.148438 43.816406 C 54.976562 43.921875 53.992188 44.390625 52.976562 44.855469 C 51.9375 45.335938 51.234375 45.722656 51.378906 45.75 C 52.125 45.859375 52.246094 45.925781 52.179688 46.152344 C 52.113281 46.378906 52.257812 46.484375 54.832031 48.113281 C 55.203125 48.351562 56.203125 49.007812 57.070312 49.566406 C 57.933594 50.128906 58.667969 50.582031 58.707031 50.582031 C 58.746094 50.582031 58.949219 50.703125 59.132812 50.847656 C 60.304688 51.757812 61.957031 52.664062 64.023438 53.53125 C 64.757812 53.839844 65.621094 54.226562 65.957031 54.386719 C 66.289062 54.546875 66.6875 54.734375 66.847656 54.773438 C 67.101562 54.851562 67.140625 54.828125 67.0625 54.640625 C 67.007812 54.480469 67.023438 54.4375 67.128906 54.507812 C 67.222656 54.558594 67.289062 54.691406 67.289062 54.800781 C 67.289062 54.945312 67.0625 54.988281 66.25 54.988281 C 65.371094 54.988281 65.144531 54.933594 64.730469 54.652344 C 64.464844 54.464844 64.183594 54.320312 64.117188 54.320312 C 63.851562 54.320312 60.917969 52.929688 60.214844 52.476562 C 60.011719 52.355469 59.320312 51.929688 58.679688 51.53125 C 58.027344 51.128906 56.960938 50.449219 56.296875 50.007812 C 54.988281 49.140625 54.402344 48.765625 52.539062 47.566406 C 51.871094 47.125 51.257812 46.660156 51.179688 46.511719 C 51.058594 46.285156 51.046875 46.296875 51.097656 46.632812 C 51.125 46.84375 51.125 47.070312 51.074219 47.152344 C 50.9375 47.367188 50.765625 46.925781 50.765625 46.351562 C 50.765625 45.882812 50.726562 45.777344 50.511719 45.777344 C 50.3125 45.777344 50.261719 45.910156 50.207031 46.550781 C 50.167969 46.964844 50.046875 47.539062 49.925781 47.820312 L 49.714844 48.3125 L 47.96875 48.3125 L 47.96875 48.726562 C 47.96875 49.074219 47.128906 51.261719 46.753906 51.902344 C 46.6875 52.023438 46.371094 52.746094 46.050781 53.519531 L 45.464844 54.917969 L 43.519531 54.960938 C 41.574219 55 41.574219 54.988281 41.574219 54.691406 Z M 58.226562 26.066406 C 58.226562 25.558594 58.082031 25.519531 57.46875 25.890625 C 57.027344 26.160156 56.949219 26.425781 57.109375 27.054688 C 57.1875 27.347656 57.203125 27.347656 57.707031 26.933594 C 58.121094 26.597656 58.226562 26.425781 58.226562 26.066406 Z M 55.351562 24.757812 C 55.214844 24.355469 55.191406 24.355469 54.832031 24.691406 C 54.628906 24.878906 54.496094 25.15625 54.496094 25.382812 L 54.496094 25.773438 L 54.964844 25.398438 C 55.308594 25.117188 55.402344 24.957031 55.351562 24.757812 Z M 57.160156 24.15625 C 57.386719 24.023438 57.347656 23.957031 56.933594 23.835938 C 56.722656 23.769531 56.628906 23.796875 56.628906 23.929688 C 56.628906 24.277344 56.828125 24.371094 57.160156 24.15625 Z M 57.160156 24.15625 "
    />
    <path
      d="M 78.054688 54.851562 C 78.027344 54.773438 77.414062 54.453125 76.683594 54.132812 C 75.949219 53.8125 75.015625 53.410156 74.617188 53.226562 C 73.335938 52.625 71.925781 52.050781 71.75 52.050781 C 71.671875 52.050781 71.445312 51.917969 71.273438 51.769531 C 71.097656 51.609375 70.6875 51.261719 70.351562 51.007812 C 70.019531 50.742188 69.300781 50.128906 68.742188 49.648438 C 66.210938 47.484375 65.53125 46.980469 64.222656 46.285156 C 63.449219 45.882812 62.492188 45.363281 62.09375 45.148438 C 58.828125 43.375 57.988281 43 56.734375 42.773438 C 56.324219 42.695312 56.230469 42.722656 56.230469 42.894531 C 56.230469 43.015625 56.175781 43.109375 56.097656 43.109375 C 56.027344 43.109375 55.960938 42.867188 55.960938 42.574219 C 55.960938 42.015625 56.28125 41.800781 56.402344 42.28125 C 56.441406 42.441406 56.46875 42.425781 56.480469 42.199219 C 56.496094 41.90625 56.535156 41.894531 57.136719 41.988281 C 57.894531 42.09375 59.453125 42.773438 61.132812 43.75 C 62.53125 44.550781 63.71875 45.109375 63.996094 45.109375 C 64.105469 45.109375 64.277344 45.21875 64.398438 45.351562 C 64.515625 45.484375 64.875 45.722656 65.183594 45.871094 C 65.730469 46.136719 65.875 46.136719 67.953125 46.03125 C 69.167969 45.964844 71.417969 45.859375 72.949219 45.789062 C 74.496094 45.722656 76.109375 45.628906 76.546875 45.589844 C 76.988281 45.539062 78.71875 45.445312 80.386719 45.363281 C 82.066406 45.296875 83.558594 45.175781 83.71875 45.109375 C 84.398438 44.84375 85.902344 44.417969 86.207031 44.402344 L 86.542969 44.402344 L 86.167969 44.242188 C 85.796875 44.097656 85.808594 43.910156 86.195312 43.910156 C 86.316406 43.910156 86.847656 44.070312 87.382812 44.269531 C 88.140625 44.5625 88.339844 44.695312 88.339844 44.910156 C 88.339844 45.125 88.246094 45.175781 87.902344 45.191406 C 87.675781 45.191406 86.96875 45.351562 86.34375 45.550781 C 83.652344 46.363281 83.371094 46.417969 81.277344 46.5 C 80.144531 46.550781 78.945312 46.617188 78.613281 46.644531 C 78.28125 46.683594 76.402344 46.777344 74.417969 46.84375 C 69.566406 47.03125 67.875 47.125 67.675781 47.257812 C 67.542969 47.339844 67.609375 47.445312 67.886719 47.671875 C 68.113281 47.847656 68.765625 48.40625 69.367188 48.914062 C 70.417969 49.808594 70.777344 50.113281 71.84375 50.957031 C 72.125 51.167969 72.699219 51.488281 73.109375 51.648438 C 73.539062 51.824219 73.949219 52.035156 74.03125 52.128906 C 74.109375 52.238281 74.46875 52.4375 74.828125 52.597656 C 77.253906 53.652344 80.011719 54.878906 80.066406 54.933594 C 80.09375 54.960938 79.667969 54.988281 79.121094 54.988281 C 78.519531 54.988281 78.082031 54.933594 78.054688 54.851562 Z M 93.535156 43.175781 C 93.203125 42.988281 92.859375 42.839844 92.777344 42.839844 C 92.511719 42.839844 92.5625 42.308594 92.832031 42.308594 C 92.964844 42.308594 93.871094 42.039062 94.871094 41.707031 C 95.855469 41.386719 97.082031 41.027344 97.585938 40.90625 C 98.105469 40.785156 98.625 40.625 98.761719 40.558594 C 98.972656 40.4375 99 40.492188 99 41.105469 C 99 41.761719 98.988281 41.773438 98.613281 41.773438 C 98.386719 41.773438 98.175781 41.828125 98.132812 41.90625 C 98.09375 41.972656 97.707031 42.132812 97.292969 42.253906 C 95.960938 42.628906 94.804688 43.015625 94.628906 43.148438 C 94.484375 43.253906 94.484375 43.308594 94.628906 43.386719 C 95.054688 43.65625 94.082031 43.46875 93.535156 43.175781 Z M 19.496094 35.207031 C 19.425781 35.113281 19.253906 34.765625 19.132812 34.433594 C 19 34.101562 18.800781 33.726562 18.695312 33.605469 C 18.5625 33.445312 18.453125 32.964844 18.402344 32.179688 C 18.335938 31.164062 18.269531 30.921875 17.988281 30.601562 C 17.800781 30.402344 17.617188 30.175781 17.5625 30.109375 C 17.507812 30.042969 17.390625 30.054688 17.269531 30.148438 C 16.910156 30.441406 15.910156 30.695312 15.738281 30.523438 C 15.523438 30.308594 15.550781 29.761719 15.777344 29.761719 C 16.082031 29.761719 16.65625 29.226562 16.949219 28.65625 C 17.097656 28.347656 17.296875 28.039062 17.390625 27.960938 C 17.480469 27.894531 17.589844 27.679688 17.628906 27.492188 C 17.707031 27.160156 18.175781 26.558594 18.363281 26.558594 C 18.414062 26.558594 18.65625 26.746094 18.894531 26.960938 C 19.132812 27.1875 19.414062 27.359375 19.507812 27.359375 C 19.601562 27.359375 19.960938 27.546875 20.308594 27.773438 C 20.773438 28.082031 20.917969 28.265625 20.878906 28.441406 C 20.828125 28.613281 21.121094 28.949219 21.945312 29.65625 C 22.558594 30.1875 23.160156 30.683594 23.265625 30.738281 C 23.492188 30.871094 23.503906 31.308594 23.292969 31.457031 C 23.199219 31.511719 22.878906 31.578125 22.585938 31.589844 C 20.851562 31.699219 20.867188 31.683594 20.695312 32.566406 C 20.601562 33.070312 20.519531 33.164062 20.242188 33.207031 C 19.90625 33.246094 19.90625 33.246094 20.027344 34.085938 C 20.105469 34.554688 20.121094 35.035156 20.082031 35.152344 C 19.972656 35.40625 19.667969 35.433594 19.496094 35.207031 Z M 19.496094 35.207031 "
    />
    <path
      style="stroke: none; fill-rule: nonzero; fill: rgb(93.333333%, 93.333333%, 74.901961%); fill-opacity: 1"
      d="M 40.238281 54.691406 C 40.238281 54.359375 40.613281 53.652344 40.785156 53.652344 C 40.867188 53.652344 40.878906 53.597656 40.839844 53.519531 C 40.800781 53.453125 40.828125 53.386719 40.917969 53.386719 C 41.011719 53.386719 41.054688 53.34375 41 53.304688 C 40.960938 53.25 41.011719 53.132812 41.121094 53.023438 C 41.226562 52.90625 41.292969 52.730469 41.253906 52.636719 C 41.210938 52.53125 41.238281 52.449219 41.320312 52.449219 C 41.398438 52.449219 41.414062 52.398438 41.371094 52.316406 C 41.332031 52.25 41.347656 52.183594 41.414062 52.183594 C 41.574219 52.183594 41.867188 51.53125 41.773438 51.371094 C 41.71875 51.304688 41.757812 51.25 41.839844 51.25 C 41.933594 51.25 41.972656 51.15625 41.917969 51.050781 C 41.878906 50.941406 41.90625 50.847656 41.984375 50.847656 C 42.066406 50.847656 42.078125 50.796875 42.039062 50.714844 C 42 50.648438 42.027344 50.582031 42.105469 50.582031 C 42.183594 50.582031 42.210938 50.527344 42.171875 50.449219 C 42.132812 50.382812 42.144531 50.316406 42.210938 50.316406 C 42.371094 50.316406 42.664062 49.660156 42.570312 49.5 C 42.519531 49.433594 42.558594 49.382812 42.652344 49.382812 C 42.746094 49.382812 42.785156 49.339844 42.730469 49.300781 C 42.691406 49.246094 42.746094 49.128906 42.851562 49.019531 C 42.957031 48.902344 43.023438 48.726562 42.984375 48.632812 C 42.945312 48.527344 42.972656 48.445312 43.050781 48.445312 C 43.132812 48.445312 43.144531 48.394531 43.105469 48.3125 C 43.066406 48.246094 43.089844 48.179688 43.171875 48.179688 C 43.25 48.179688 43.277344 48.125 43.238281 48.046875 C 43.199219 47.980469 43.226562 47.914062 43.316406 47.914062 C 43.410156 47.914062 43.453125 47.871094 43.398438 47.832031 C 43.359375 47.78125 43.410156 47.660156 43.519531 47.550781 C 43.636719 47.433594 43.675781 47.257812 43.625 47.125 C 43.476562 46.777344 43.34375 45.378906 43.476562 45.378906 C 43.53125 45.378906 43.542969 45.324219 43.503906 45.242188 C 43.464844 45.175781 43.492188 45.109375 43.570312 45.109375 C 43.664062 45.109375 43.703125 45.015625 43.652344 44.910156 C 43.609375 44.804688 43.636719 44.710938 43.71875 44.710938 C 43.796875 44.710938 43.835938 44.617188 43.785156 44.507812 C 43.746094 44.402344 43.769531 44.308594 43.851562 44.308594 C 43.929688 44.308594 43.945312 44.257812 43.902344 44.175781 C 43.863281 44.109375 43.890625 44.042969 43.972656 44.042969 C 44.0625 44.042969 44.105469 43.960938 44.0625 43.855469 C 44.023438 43.75 44.050781 43.640625 44.128906 43.617188 C 44.238281 43.574219 44.238281 43.441406 44.128906 43.136719 C 44.011719 42.789062 44.023438 42.707031 44.183594 42.707031 C 44.277344 42.707031 44.371094 42.65625 44.371094 42.585938 C 44.371094 42.320312 43.972656 41.546875 43.703125 41.304688 C 43.398438 41.027344 43.199219 40.613281 43.089844 40.050781 C 43.050781 39.863281 42.984375 39.664062 42.945312 39.585938 C 42.785156 39.34375 42.917969 38.410156 43.144531 38.050781 C 43.277344 37.863281 44.425781 36.648438 45.703125 35.355469 C 47.367188 33.671875 48.089844 32.859375 48.222656 32.484375 C 48.40625 31.949219 49.726562 29.1875 49.953125 28.828125 C 50.019531 28.722656 50.113281 28.46875 50.152344 28.28125 C 50.191406 28.09375 50.378906 27.71875 50.566406 27.441406 C 50.753906 27.171875 50.898438 26.824219 50.898438 26.691406 C 50.898438 26.238281 52.179688 23.691406 52.539062 23.394531 C 52.816406 23.183594 52.898438 22.996094 52.898438 22.609375 C 52.898438 22.316406 53.019531 21.886719 53.164062 21.648438 C 53.3125 21.40625 53.429688 21.140625 53.429688 21.046875 C 53.429688 20.792969 55.535156 16.269531 55.761719 16.015625 C 55.871094 15.894531 55.960938 15.707031 55.960938 15.601562 C 55.960938 15.496094 56.070312 15.242188 56.203125 15.015625 C 56.335938 14.800781 56.480469 14.425781 56.535156 14.214844 C 56.601562 13.878906 58.082031 10.664062 58.46875 10.011719 C 58.535156 9.902344 58.695312 9.515625 58.8125 9.140625 L 59.027344 8.476562 L 57.441406 10.144531 C 56.109375 11.542969 55.84375 11.890625 55.761719 12.34375 C 55.550781 13.746094 54.429688 14.667969 52.832031 14.773438 C 52.179688 14.816406 51.9375 14.773438 51.5 14.519531 C 50.914062 14.1875 50.367188 13.28125 50.367188 12.664062 C 50.367188 12.210938 48.449219 9.875 48.089844 9.875 C 47.582031 9.875 46.753906 9.4375 46.570312 9.0625 C 46.25 8.449219 46.316406 7.179688 46.703125 6.40625 C 47.527344 4.765625 50.085938 4.632812 50.765625 6.179688 C 50.914062 6.488281 51.5 7.207031 52.070312 7.78125 L 53.125 8.820312 L 54.511719 7.113281 C 56.722656 4.390625 56.894531 4.164062 56.894531 3.898438 C 56.894531 3.605469 57.546875 2.574219 57.976562 2.1875 C 58.695312 1.535156 59.199219 1.335938 60.09375 1.335938 L 60.960938 1.335938 L 61.546875 0 L 65.449219 0.0117188 L 69.355469 0.0117188 L 69.847656 0.613281 C 70.125 0.949219 70.40625 1.453125 70.484375 1.75 C 70.578125 2.082031 70.820312 2.457031 71.113281 2.710938 C 71.632812 3.164062 72.070312 3.992188 72.085938 4.539062 C 72.097656 4.816406 72.257812 4.953125 73.152344 5.378906 C 74.910156 6.21875 76.1875 7.207031 77.601562 8.808594 C 78.160156 9.4375 78.375 9.582031 79.160156 9.824219 C 80.425781 10.222656 81.171875 10.691406 82.238281 11.796875 C 83.609375 13.214844 84.890625 15.269531 85.277344 16.667969 C 85.355469 16.976562 85.503906 18.203125 85.609375 19.390625 C 86.035156 24.492188 86.914062 28 88.195312 29.722656 C 88.621094 30.308594 89.261719 30.695312 90.699219 31.21875 L 91.523438 31.523438 L 94.761719 31.097656 C 96.546875 30.855469 98.132812 30.617188 98.308594 30.550781 C 98.933594 30.308594 99.011719 30.375 98.972656 31.125 C 98.933594 31.765625 98.90625 31.816406 98.535156 31.925781 C 97.921875 32.085938 92.230469 32.832031 91.589844 32.832031 C 90.992188 32.832031 89.246094 32.21875 88.261719 31.671875 C 86.222656 30.523438 84.835938 26.414062 84.277344 19.792969 C 84.171875 18.605469 84.023438 17.375 83.945312 17.054688 C 83.449219 15.1875 81.09375 12.171875 79.535156 11.4375 C 78.734375 11.0625 77.8125 10.851562 77.8125 11.039062 C 77.8125 11.105469 78.082031 11.425781 78.425781 11.746094 C 79.132812 12.4375 80.972656 14.800781 81.332031 15.480469 C 82.023438 16.804688 82.316406 18.617188 82.425781 22.289062 C 82.503906 25.238281 82.585938 25.746094 83.25 27.425781 C 84.542969 30.683594 86.355469 32.378906 89.605469 33.351562 C 92.230469 34.125 96.230469 34.699219 97.746094 34.5 C 98.839844 34.367188 99 34.460938 99 35.222656 L 99 35.847656 L 97.839844 35.875 C 94.257812 35.953125 89.472656 35.035156 86.941406 33.78125 C 84.875 32.75 83.476562 31.230469 82.34375 28.789062 C 81.304688 26.53125 81.253906 26.253906 81.132812 23.023438 C 81.027344 19.804688 80.734375 17.484375 80.332031 16.550781 C 79.691406 15.109375 77.015625 12.078125 75.828125 11.453125 C 75.417969 11.238281 74.457031 10.636719 73.683594 10.117188 C 72.417969 9.277344 72.339844 9.234375 72.75 9.691406 C 73.832031 10.878906 75.136719 13.265625 75.46875 14.707031 C 75.589844 15.160156 75.828125 17.257812 76.015625 19.351562 C 76.203125 21.449219 76.414062 23.703125 76.480469 24.355469 C 76.546875 25.023438 76.667969 26.945312 76.761719 28.628906 L 76.910156 31.699219 L 77.746094 32.964844 C 79.585938 35.742188 82.238281 38.652344 84.023438 39.839844 C 84.890625 40.425781 87.714844 41.28125 91.085938 41.988281 C 93.203125 42.425781 94.695312 42.976562 94.523438 43.253906 C 94.484375 43.320312 94.523438 43.375 94.601562 43.375 C 94.683594 43.375 94.734375 43.457031 94.722656 43.546875 C 94.683594 43.75 95.015625 44.441406 95.148438 44.441406 C 95.203125 44.441406 95.28125 44.550781 95.335938 44.683594 C 95.855469 45.976562 94.988281 47.230469 93.671875 47.070312 C 93.042969 46.992188 87.875 45.058594 85.835938 44.121094 C 84.929688 43.707031 84.117188 43.375 84.023438 43.375 C 83.691406 43.375 82 42.734375 81.039062 42.253906 C 79.558594 41.507812 78.667969 40.90625 77.269531 39.691406 C 75.75 38.382812 74.910156 37.4375 74.429688 36.460938 C 73.949219 35.515625 73.070312 32.40625 72.816406 30.761719 C 72.710938 30.027344 72.550781 29.136719 72.484375 28.773438 C 72.246094 27.625 71.832031 22.449219 71.738281 19.617188 C 71.699219 18.085938 71.578125 16.507812 71.472656 16.027344 C 71.191406 14.773438 70.550781 13.707031 69.355469 12.425781 L 68.273438 11.304688 L 67.769531 12.425781 C 67.488281 13.039062 67.183594 13.640625 67.101562 13.746094 C 67.007812 13.855469 66.796875 14.308594 66.621094 14.746094 C 66.449219 15.1875 66.050781 16.070312 65.730469 16.710938 C 65.421875 17.351562 65.15625 17.925781 65.15625 17.992188 C 65.15625 18.058594 65.371094 18.203125 65.621094 18.324219 C 66.277344 18.632812 66.621094 19.378906 66.621094 20.488281 C 66.621094 21.621094 66.289062 22.316406 65.554688 22.6875 C 64.941406 23.007812 63.851562 23.050781 63.304688 22.769531 L 62.945312 22.570312 L 62.316406 23.835938 C 61.972656 24.53125 61.640625 25.089844 61.570312 25.089844 C 61.503906 25.089844 61.425781 25.265625 61.386719 25.492188 C 61.332031 25.703125 61.171875 26.011719 61.027344 26.160156 C 60.878906 26.304688 60.757812 26.53125 60.757812 26.679688 C 60.757812 27.265625 59.265625 30.535156 58.949219 30.65625 C 58.839844 30.695312 58.761719 30.871094 58.761719 31.042969 C 58.761719 31.402344 58.441406 32.230469 58.199219 32.523438 C 58.121094 32.632812 57.855469 33.152344 57.628906 33.699219 L 57.1875 34.699219 L 57.65625 34.699219 C 58.308594 34.699219 58.855469 35.035156 59.148438 35.609375 C 59.558594 36.421875 63.609375 39.503906 64.25 39.503906 C 64.929688 39.503906 65.636719 39.972656 65.875 40.574219 C 66.183594 41.359375 66.15625 42.789062 65.824219 43.347656 C 65.261719 44.257812 63.730469 44.578125 62.625 44.015625 C 62.132812 43.761719 61.945312 43.5625 61.585938 42.839844 C 61.144531 41.960938 61.144531 41.960938 59.652344 41.144531 C 58.347656 40.4375 58.042969 40.320312 57.226562 40.253906 L 56.296875 40.171875 L 56.308594 41.933594 C 56.324219 43.46875 56.296875 43.707031 56.082031 43.921875 C 55.9375 44.070312 55.871094 44.175781 55.9375 44.175781 C 55.988281 44.175781 55.695312 44.335938 55.296875 44.523438 C 54.898438 44.710938 54.535156 44.910156 54.496094 44.964844 C 54.378906 45.148438 53.058594 45.777344 52.777344 45.777344 C 52.632812 45.777344 52.417969 45.882812 52.285156 46.019531 C 52.152344 46.152344 51.84375 46.246094 51.578125 46.246094 C 51.113281 46.246094 51.097656 46.257812 51.085938 46.777344 C 51.058594 47.460938 50.671875 48.421875 50.351562 48.59375 C 50.207031 48.660156 50.125 48.78125 50.152344 48.832031 C 50.261719 48.992188 49.605469 49.246094 49.085938 49.246094 C 48.835938 49.246094 48.648438 49.300781 48.699219 49.367188 C 48.792969 49.527344 48.5 50.183594 48.339844 50.183594 C 48.273438 50.183594 48.246094 50.234375 48.289062 50.300781 C 48.394531 50.460938 47.433594 52.585938 47.273438 52.585938 C 47.207031 52.585938 47.195312 52.652344 47.234375 52.71875 C 47.273438 52.796875 47.25 52.851562 47.167969 52.851562 C 47.089844 52.851562 47.046875 52.90625 47.101562 52.972656 C 47.183594 53.117188 46.902344 53.785156 46.753906 53.785156 C 46.6875 53.785156 46.675781 53.867188 46.714844 53.972656 C 46.753906 54.078125 46.703125 54.238281 46.597656 54.332031 C 46.488281 54.425781 46.4375 54.613281 46.476562 54.746094 C 46.527344 54.960938 46.4375 54.988281 45.78125 54.988281 C 45.195312 54.988281 45.035156 54.945312 45.035156 54.785156 C 45.035156 54.574219 46.195312 51.703125 46.371094 51.449219 C 46.421875 51.382812 46.730469 50.730469 47.035156 49.996094 L 47.582031 48.6875 L 47.289062 48.367188 C 46.941406 47.992188 45.636719 47.472656 45.316406 47.578125 C 45.195312 47.621094 44.96875 47.925781 44.808594 48.285156 C 44.664062 48.632812 44.050781 50.035156 43.464844 51.410156 C 42.863281 52.785156 42.253906 54.160156 42.105469 54.453125 L 41.824219 55 L 41.039062 54.972656 C 40.359375 54.945312 40.238281 54.90625 40.238281 54.691406 Z M 49.515625 47.417969 C 49.875 46.578125 49.886719 46.136719 49.582031 45.539062 C 49.339844 45.070312 49.140625 44.910156 48.289062 44.507812 C 47.316406 44.042969 46.289062 43.777344 45.835938 43.867188 C 45.714844 43.894531 45.449219 44.429688 45.183594 45.136719 L 44.742188 46.363281 L 45.035156 46.605469 C 45.195312 46.738281 45.503906 46.84375 45.703125 46.84375 C 46.222656 46.84375 46.890625 47.097656 47.5 47.527344 C 47.902344 47.804688 48.195312 47.898438 48.675781 47.914062 C 49.289062 47.914062 49.328125 47.886719 49.515625 47.417969 Z M 94.203125 45.699219 C 94.203125 45.65625 94.070312 45.429688 93.910156 45.21875 C 93.75 44.988281 93.550781 44.589844 93.457031 44.324219 C 93.269531 43.761719 93.308594 43.777344 90.738281 43.296875 C 88.886719 42.949219 84.636719 41.800781 84.035156 41.480469 C 81.890625 40.34375 78.855469 37.183594 76.523438 33.632812 L 75.589844 32.21875 L 75.429688 29.09375 C 75.347656 27.375 75.164062 24.703125 75.015625 23.15625 C 74.871094 21.621094 74.667969 19.296875 74.550781 18.015625 C 74.324219 15.441406 74.136719 14.667969 73.484375 13.332031 C 72.792969 11.933594 72.070312 10.972656 70.804688 9.730469 C 69.101562 8.089844 68.714844 7.820312 68.367188 8.035156 C 68.222656 8.128906 68.074219 8.167969 68.0625 8.140625 C 68.035156 8.101562 67.859375 7.835938 67.660156 7.539062 C 67.25 6.886719 65.730469 5.832031 64.664062 5.457031 C 64.238281 5.3125 63.515625 5.152344 63.050781 5.113281 C 62.238281 5.03125 62.210938 5.019531 62.25 4.683594 C 62.292969 4.351562 62.316406 4.335938 63.144531 4.363281 C 64.703125 4.40625 66.636719 5.324219 67.929688 6.632812 C 68.675781 7.394531 68.808594 7.488281 69.152344 7.40625 C 69.566406 7.3125 69.820312 7.074219 70.140625 6.445312 C 70.257812 6.207031 70.417969 6.007812 70.484375 6.007812 C 70.550781 6.007812 71.125 6.433594 71.765625 6.96875 C 73.085938 8.046875 74.535156 9.089844 75.84375 9.875 C 77.507812 10.878906 77.574219 10.730469 76.121094 9.234375 C 74.894531 7.980469 73.402344 6.925781 71.792969 6.21875 L 70.632812 5.699219 L 70.710938 5.058594 C 70.792969 4.40625 70.792969 4.40625 70.03125 3.644531 C 69.527344 3.136719 69.285156 2.789062 69.285156 2.5625 C 69.285156 1.75 68.246094 0.695312 67.167969 0.441406 C 66.128906 0.199219 65.902344 0.226562 65.449219 0.601562 C 65.089844 0.894531 64.929688 0.933594 63.945312 0.933594 C 63.332031 0.933594 62.757812 0.988281 62.664062 1.042969 C 62.570312 1.09375 62.316406 1.640625 62.09375 2.242188 C 61.851562 2.84375 61.613281 3.375 61.53125 3.417969 C 61.453125 3.46875 61.210938 3.324219 61 3.082031 C 60.519531 2.574219 59.851562 2.523438 59.226562 2.964844 C 58.707031 3.308594 58.226562 3.992188 58.226562 4.363281 C 58.226562 4.671875 57.613281 5.5 55.125 8.59375 C 53.789062 10.238281 53.496094 10.542969 53.191406 10.542969 C 52.699219 10.542969 49.753906 7.609375 49.648438 7.019531 C 49.539062 6.394531 49.207031 6.273438 48.421875 6.605469 C 47.980469 6.792969 47.570312 7.421875 47.570312 7.929688 C 47.570312 8.273438 47.96875 8.542969 48.5 8.542969 C 48.980469 8.542969 49.074219 8.609375 50.394531 10.15625 C 51.6875 11.691406 51.765625 11.8125 51.765625 12.371094 C 51.765625 13.171875 52.179688 13.546875 52.9375 13.425781 C 53.925781 13.265625 54.496094 12.585938 54.496094 11.597656 C 54.496094 11.265625 54.710938 10.972656 55.667969 9.96875 C 56.324219 9.289062 57.414062 8.15625 58.09375 7.433594 C 59.148438 6.328125 59.398438 6.125 59.679688 6.179688 C 59.90625 6.21875 60.105469 6.140625 60.332031 5.914062 C 60.757812 5.484375 61.292969 5.539062 61.53125 6.046875 C 61.664062 6.328125 61.796875 6.40625 62.117188 6.40625 C 62.757812 6.40625 64.0625 6.792969 65.128906 7.300781 C 65.824219 7.621094 66.382812 8.019531 66.96875 8.621094 C 67.449219 9.089844 67.875 9.476562 67.941406 9.476562 C 68.179688 9.476562 69.820312 10.824219 70.566406 11.652344 C 71.511719 12.691406 72.136719 13.707031 72.578125 14.921875 C 72.882812 15.722656 72.925781 16.121094 73.03125 18.816406 C 73.175781 22.515625 73.484375 26.226562 73.832031 28.425781 C 73.964844 29.347656 74.125 30.335938 74.164062 30.628906 C 74.390625 32.109375 75.257812 35.074219 75.761719 36.046875 C 76.441406 37.371094 79.828125 40.171875 82.078125 41.265625 C 82.597656 41.519531 84.117188 42.039062 84.355469 42.039062 C 84.4375 42.039062 85.355469 42.414062 86.394531 42.867188 C 88.515625 43.789062 93.617188 45.75 93.976562 45.765625 C 94.097656 45.777344 94.203125 45.738281 94.203125 45.699219 Z M 52.644531 44.429688 C 53.777344 43.910156 54.777344 43.414062 54.871094 43.335938 C 55.003906 43.226562 55.042969 42.65625 55.003906 40.785156 L 54.964844 38.382812 L 55.496094 38.289062 C 56.015625 38.195312 56.253906 38.316406 56.390625 38.730469 C 56.414062 38.8125 56.882812 38.878906 57.429688 38.890625 C 58.28125 38.929688 58.5625 38.996094 59.292969 39.398438 C 59.773438 39.664062 60.640625 40.132812 61.226562 40.4375 C 62.53125 41.132812 62.785156 41.347656 62.691406 41.652344 C 62.585938 41.960938 62.945312 42.65625 63.304688 42.855469 C 63.652344 43.027344 64.398438 42.90625 64.625 42.640625 C 64.835938 42.375 64.730469 41.121094 64.476562 40.960938 C 64.371094 40.894531 64.0625 40.839844 63.796875 40.839844 C 63.371094 40.839844 62.984375 40.597656 61.066406 39.15625 C 58.375 37.128906 58.253906 37.023438 58.027344 36.476562 C 57.839844 36.046875 57.828125 36.035156 56.988281 36.035156 C 56.214844 36.035156 56.121094 36.0625 55.988281 36.355469 C 55.910156 36.554688 55.683594 36.714844 55.429688 36.769531 C 55.082031 36.847656 54.9375 36.78125 54.46875 36.355469 C 53.5625 35.542969 50.992188 34.421875 49.59375 34.234375 L 48.875 34.140625 L 46.6875 36.316406 C 45.488281 37.515625 44.4375 38.609375 44.371094 38.730469 C 44.277344 38.890625 44.410156 39.464844 44.875 40.867188 C 45.222656 41.921875 45.554688 42.855469 45.609375 42.949219 C 45.675781 43.027344 45.957031 43.109375 46.25 43.109375 C 46.957031 43.109375 48.6875 43.707031 49.394531 44.203125 C 49.699219 44.402344 50.058594 44.761719 50.191406 44.976562 C 50.3125 45.203125 50.460938 45.378906 50.511719 45.378906 C 50.566406 45.378906 51.527344 44.949219 52.644531 44.429688 Z M 55.894531 34.234375 C 56.296875 33.378906 56.628906 32.632812 56.628906 32.550781 C 56.628906 32.484375 56.335938 32.125 55.976562 31.765625 C 54.9375 30.738281 51.980469 29.441406 51.191406 29.683594 C 50.871094 29.789062 49.289062 33.125 49.472656 33.3125 C 49.515625 33.351562 49.925781 33.460938 50.394531 33.566406 C 51.300781 33.753906 54.082031 35.007812 54.628906 35.472656 C 54.816406 35.632812 55.003906 35.753906 55.054688 35.769531 C 55.125 35.769531 55.496094 35.074219 55.894531 34.234375 Z M 57.308594 31.269531 C 57.613281 30.441406 56.949219 29.574219 55.363281 28.773438 C 53.496094 27.828125 51.898438 27.667969 51.578125 28.386719 C 51.378906 28.828125 51.460938 28.894531 52.433594 29.082031 C 53.496094 29.28125 55.484375 30.269531 56.296875 31.015625 C 56.667969 31.351562 57.003906 31.617188 57.070312 31.628906 C 57.121094 31.628906 57.226562 31.46875 57.308594 31.269531 Z M 58.199219 29.386719 C 58.292969 29.1875 58.613281 28.507812 58.894531 27.878906 L 59.425781 26.734375 L 59.242188 25.773438 C 59.039062 24.769531 59.132812 24.503906 59.519531 24.957031 C 59.734375 25.199219 60.09375 25.332031 60.09375 25.15625 C 60.09375 24.675781 58.988281 23.542969 58.066406 23.074219 C 56.722656 22.382812 54.921875 22.0625 54.378906 22.410156 C 54.109375 22.582031 54.324219 22.820312 54.761719 22.820312 C 54.976562 22.820312 55.175781 22.875 55.214844 22.941406 C 55.296875 23.074219 53.84375 24.289062 53.589844 24.289062 C 53.429688 24.289062 52.230469 26.664062 52.230469 26.972656 C 52.230469 27.039062 52.40625 27.09375 52.605469 27.09375 C 53.832031 27.09375 56.324219 28.1875 57.296875 29.160156 C 57.628906 29.480469 57.921875 29.75 57.960938 29.75 C 58 29.761719 58.109375 29.601562 58.199219 29.386719 Z M 61.226562 22.996094 C 61.503906 22.421875 61.878906 21.632812 62.066406 21.261719 C 62.292969 20.765625 62.476562 20.554688 62.652344 20.554688 C 62.996094 20.554688 63.425781 20.792969 63.425781 20.980469 C 63.425781 21.554688 64.558594 21.847656 65.050781 21.394531 C 65.355469 21.113281 65.382812 20.074219 65.078125 19.632812 C 64.835938 19.296875 64.558594 19.296875 63.425781 19.617188 L 62.8125 19.792969 L 62.105469 19.113281 C 61.304688 18.335938 59.695312 17.496094 58.292969 17.109375 C 56.855469 16.722656 56.867188 16.710938 55.75 19.085938 C 55.214844 20.21875 54.777344 21.21875 54.777344 21.300781 C 54.761719 21.394531 55.136719 21.472656 55.683594 21.527344 C 57.226562 21.660156 59.105469 22.554688 60.027344 23.582031 C 60.238281 23.824219 60.480469 24.023438 60.574219 24.023438 C 60.652344 24.023438 60.945312 23.554688 61.226562 22.996094 Z M 63.332031 18.566406 C 63.558594 17.683594 59.90625 15.628906 57.988281 15.574219 C 57.429688 15.546875 57.363281 15.589844 57.320312 15.855469 C 57.28125 16.082031 57.335938 16.148438 57.589844 16.148438 C 58.574219 16.148438 61.957031 17.75 62.691406 18.550781 C 62.996094 18.886719 63.238281 18.898438 63.332031 18.566406 Z M 64.742188 15.617188 L 65.570312 13.867188 L 65.328125 13.441406 C 64.875 12.664062 64.714844 12.800781 63.902344 14.496094 C 62.945312 16.496094 62.917969 16.617188 63.304688 17.03125 C 63.464844 17.203125 63.675781 17.351562 63.757812 17.351562 C 63.851562 17.351562 64.289062 16.5625 64.742188 15.617188 Z M 62.464844 16.121094 C 62.53125 16.027344 62.945312 15.175781 63.371094 14.226562 C 63.957031 12.917969 64.105469 12.464844 63.996094 12.292969 C 63.8125 12 63.15625 11.691406 63.011719 11.839844 C 62.839844 12.011719 61.425781 15.347656 61.425781 15.601562 C 61.425781 15.722656 61.585938 15.910156 61.796875 16.042969 C 62.25 16.308594 62.292969 16.324219 62.464844 16.121094 Z M 61.558594 13.601562 C 62.464844 11.476562 62.464844 11.359375 61.652344 11.089844 C 61.105469 10.917969 61 10.917969 60.839844 11.089844 C 60.507812 11.425781 59.171875 14.734375 59.308594 14.882812 C 59.546875 15.136719 60.558594 15.457031 60.71875 15.335938 C 60.800781 15.253906 61.171875 14.480469 61.558594 13.601562 Z M 59.359375 12.824219 C 59.773438 11.917969 60.054688 11.117188 60 11.0625 C 59.707031 10.769531 59.253906 11.34375 58.5625 12.878906 C 58.160156 13.746094 57.828125 14.507812 57.828125 14.5625 C 57.828125 14.734375 58.28125 14.773438 58.453125 14.628906 C 58.546875 14.546875 58.949219 13.734375 59.359375 12.824219 Z M 66.636719 11.597656 L 67.183594 10.4375 L 66.808594 9.730469 C 66.128906 8.5 64.011719 7.367188 62.132812 7.234375 L 61.171875 7.167969 L 60.558594 8.476562 C 60.226562 9.195312 59.960938 9.863281 59.960938 9.957031 C 59.960938 10.089844 60.132812 10.144531 60.507812 10.144531 C 61.90625 10.144531 64.011719 11.050781 65.210938 12.171875 C 65.582031 12.519531 65.929688 12.785156 65.984375 12.773438 C 66.035156 12.757812 66.328125 12.226562 66.636719 11.597656 Z M 66.636719 11.597656 "
    />
    <path
      style="stroke: none; fill-rule: nonzero; fill: rgb(93.333333%, 93.333333%, 74.901961%); fill-opacity: 1"
      d="M 56.695312 27.332031 C 56.523438 26 56.617188 25.730469 57.363281 25.332031 C 58.453125 24.730469 58.519531 24.785156 58.695312 26.105469 L 58.773438 26.785156 L 58 27.414062 C 56.976562 28.226562 56.800781 28.214844 56.695312 27.332031 Z M 54.097656 25.664062 C 54.097656 24.515625 54.152344 24.410156 55.082031 23.835938 C 55.5625 23.53125 55.683594 23.648438 55.777344 24.625 L 55.855469 25.425781 L 55.109375 26.023438 C 54.710938 26.359375 54.308594 26.640625 54.230469 26.664062 C 54.152344 26.691406 54.097656 26.332031 54.097656 25.664062 Z M 56.296875 24.53125 C 56.253906 24.289062 56.214844 23.875 56.1875 23.621094 C 56.164062 23.195312 56.1875 23.15625 56.523438 23.183594 C 57.015625 23.210938 58.148438 23.796875 58.199219 24.035156 C 58.242188 24.238281 56.949219 24.957031 56.5625 24.957031 C 56.457031 24.957031 56.347656 24.769531 56.296875 24.53125 Z M 56.296875 24.53125 "
    />
  </g>
</svg>
