<svg xmlns="http://www.w3.org/2000/svg" id="root" viewBox="0 0 100 228">
  <path
    d="M 31.761719 227.894531 C 30.585938 227.746094 26.613281 227.234375 22.9375 226.792969 C 14.703125 225.839844 9.628906 224.300781 8.230469 222.246094 C 7.347656 221 6.539062 213.667969 7.347656 213.667969 C 7.421875 213.667969 12.421875 214.328125 18.453125 215.136719 C 30.730469 216.75 37.496094 216.894531 52.351562 215.871094 C 66.765625 214.84375 78.601562 213.082031 85.074219 211.03125 C 88.089844 210.078125 91.03125 209.269531 91.546875 209.269531 C 92.941406 209.269531 92.648438 214.035156 91.03125 217.628906 C 89.707031 220.488281 86.25 223.128906 85.222656 222.101562 C 85 221.882812 85.148438 221.734375 85.515625 221.734375 C 85.957031 221.734375 86.914062 221.222656 87.722656 220.636719 C 88.457031 220.046875 87.207031 220.339844 84.707031 221.292969 C 75.660156 224.886719 61.761719 227.011719 42.054688 227.820312 C 37.644531 228.039062 33.011719 228.039062 31.761719 227.894531 Z M 31.761719 227.894531 "
  />
  <path
    d="M 26.613281 214.476562 C 12.203125 213.304688 3.378906 211.175781 1.980469 208.464844 C 1.539062 207.730469 1.246094 204.503906 1.246094 201.277344 C 1.246094 196.734375 1.464844 195.339844 2.273438 195.339844 C 2.789062 195.339844 7.273438 196.148438 12.273438 197.171875 C 17.277344 198.199219 22.054688 199.007812 23.011719 199.007812 C 24.480469 199.007812 24.777344 199.371094 24.777344 201.058594 C 24.777344 203.40625 26.761719 205.605469 28.746094 205.605469 C 30.4375 205.605469 33.601562 202.304688 33.601562 200.472656 C 33.601562 199.078125 34.042969 199.007812 43.820312 199.007812 C 49.410156 199.007812 56.101562 198.785156 58.675781 198.566406 C 61.25 198.273438 63.160156 198.347656 62.867188 198.640625 C 62.058594 199.519531 63.75 202.085938 64.851562 201.71875 C 65.515625 201.425781 65.660156 201.792969 65.441406 202.746094 C 65.144531 203.84375 65.734375 204.433594 68.457031 205.679688 C 70.585938 206.558594 72.5 206.996094 73.527344 206.632812 C 76.398438 205.824219 79.925781 201.792969 80.441406 198.859375 C 80.660156 197.320312 80.957031 196.074219 81.101562 196.074219 C 81.175781 196.074219 84.265625 195.265625 87.867188 194.3125 L 94.488281 192.554688 L 94.925781 194.679688 C 95.148438 195.925781 95.808594 196.808594 96.472656 196.808594 C 98.164062 196.808594 97.941406 203.039062 96.175781 204.796875 C 90.222656 210.738281 50.144531 216.308594 26.613281 214.476562 Z M 26.613281 214.476562 "
  />
  <path
    d="M 79.558594 192.996094 C 79.117188 192.042969 78.015625 190.941406 77.058594 190.429688 L 75.21875 189.546875 L 77.058594 189.183594 C 81.324219 188.15625 93.382812 185.808594 94.339844 185.808594 C 95.882812 185.808594 95.664062 189.988281 94.046875 190.867188 C 93.015625 191.453125 81.542969 194.605469 80.515625 194.605469 C 80.367188 194.605469 79.925781 193.875 79.558594 192.996094 Z M 96.617188 194.3125 C 95.882812 192.480469 97.058594 184.710938 98.164062 183.902344 C 99.707031 182.804688 98.972656 180.382812 96.988281 180.089844 C 95.367188 179.871094 95.367188 179.652344 95.367188 168.875 L 95.367188 157.949219 L 97.207031 157.070312 C 99.632812 155.96875 99.488281 153.328125 97.058594 152.964844 L 95.367188 152.742188 L 95.367188 110.804688 C 95.367188 63.808594 95.808594 47.902344 97.207031 48.414062 C 97.648438 48.632812 98.53125 48.265625 99.046875 47.605469 C 99.855469 46.652344 99.78125 46.289062 98.75 45.1875 C 97.941406 44.234375 97.574219 42.402344 97.574219 38.882812 C 97.574219 34.558594 97.722656 33.96875 98.898438 34.191406 C 100.074219 34.410156 100.148438 38.664062 99.855469 114.324219 C 99.632812 171.4375 99.339844 194.386719 98.75 194.753906 C 97.574219 195.558594 97.058594 195.488281 96.617188 194.3125 Z M 32.863281 194.679688 L 32.863281 191.820312 L 43.011719 191.382812 C 48.527344 191.160156 56.320312 190.722656 60.292969 190.5 L 67.574219 190.0625 L 66.027344 191.746094 C 65.21875 192.699219 64.042969 194.167969 63.453125 194.972656 C 62.277344 196.660156 55.808594 197.394531 41.542969 197.464844 L 32.863281 197.539062 Z M 13.011719 195.707031 C -0.226562 193.359375 -0.59375 193.214844 0.4375 192.1875 C 0.878906 191.746094 1.246094 190.5 1.246094 189.402344 L 1.246094 187.496094 L 6.980469 188.886719 C 10.070312 189.621094 15.363281 190.429688 18.746094 190.722656 L 24.777344 191.160156 L 24.777344 194.3125 C 24.777344 196.441406 24.480469 197.539062 23.894531 197.464844 C 23.378906 197.464844 18.453125 196.660156 13.011719 195.707031 Z M 26.394531 202.890625 C 25.660156 201.574219 26.171875 161.613281 27.71875 98.929688 C 28.085938 81.625 28.527344 58.3125 28.527344 47.242188 C 28.601562 36.167969 28.820312 26.125 29.113281 24.878906 C 29.777344 21.800781 32.570312 21.433594 33.671875 24.292969 C 34.703125 26.933594 33.894531 33.96875 32.421875 35.582031 C 31.394531 36.757812 31.394531 37.050781 32.71875 38.957031 C 34.1875 41.007812 34.1875 41.449219 33.230469 98.121094 C 32.203125 154.136719 32.203125 155.234375 30.660156 156.847656 L 29.1875 158.460938 L 30.660156 159.78125 C 31.980469 161.027344 32.128906 161.980469 32.128906 172.757812 C 32.128906 183.171875 31.980469 184.710938 30.585938 187.421875 C 29.1875 190.136719 29.1875 190.5 30.21875 191.089844 C 31.101562 191.601562 31.394531 192.996094 31.394531 197.171875 C 31.394531 201.792969 31.171875 202.746094 29.996094 203.40625 C 27.9375 204.433594 27.128906 204.359375 26.394531 202.890625 Z M 67.867188 203.257812 C 65.882812 200.398438 66.542969 194.828125 69.265625 192.1875 C 72.5 188.960938 79.191406 192.113281 79.191406 196.808594 C 79.191406 199.59375 77.425781 203.113281 75.589844 204.136719 C 73.015625 205.457031 69.117188 205.019531 67.867188 203.257812 Z M 14.113281 188.667969 C 7.421875 187.789062 1.6875 186.101562 0.507812 184.710938 C -0.300781 183.683594 -0.226562 183.242188 1.320312 181.777344 C 2.273438 180.898438 3.890625 179.871094 4.921875 179.578125 C 6.464844 179.210938 6.390625 179.359375 4.332031 180.605469 C 0.65625 182.949219 1.464844 184.488281 7.128906 185.882812 C 9.773438 186.542969 14.773438 187.347656 18.378906 187.640625 C 21.90625 187.933594 24.777344 188.449219 24.777344 188.816406 C 24.777344 189.621094 21.171875 189.546875 14.113281 188.667969 Z M 14.113281 188.667969 "
  />
  <path
    d="M 31.910156 189.769531 C 30.511719 188.375 33.304688 188.007812 44.851562 188.007812 C 59.410156 188.007812 81.984375 185.808594 90.222656 183.609375 C 96.398438 181.996094 97.867188 181.851562 97.28125 182.804688 C 95.957031 184.929688 72.792969 188.449219 56.027344 189.109375 C 50 189.328125 42.128906 189.695312 38.675781 189.839844 C 35.21875 190.0625 32.203125 189.988281 31.910156 189.769531 Z M 11.171875 178.183594 C 11.097656 177.746094 10.65625 176.203125 10.214844 174.8125 L 9.480469 172.246094 L 9.40625 175.398438 C 9.332031 178.40625 9.261719 178.476562 7.347656 178.039062 C 6.171875 177.746094 5.289062 177.523438 5.289062 177.453125 C 5.289062 177.378906 5.363281 173.34375 5.511719 168.359375 L 5.730469 159.34375 L 7.714844 159.5625 C 9.628906 159.78125 9.703125 159.929688 10.070312 166.015625 C 10.363281 171.074219 10.511719 171.734375 11.023438 169.753906 C 11.320312 168.433594 11.539062 165.5 11.539062 163.300781 C 11.539062 159.929688 11.761719 159.34375 12.714844 159.707031 C 13.378906 159.929688 16.539062 160.148438 19.777344 160.148438 L 25.730469 160.148438 L 25.363281 167.847656 C 25.144531 172.097656 24.703125 175.910156 24.335938 176.277344 C 23.15625 177.378906 11.464844 179.136719 11.171875 178.183594 Z M 11.171875 178.183594 "
  />
  <path
    d="M 78.824219 182.65625 C 72.867188 181.777344 45.878906 181.558594 38.601562 182.363281 L 33.601562 182.949219 L 33.601562 177.890625 L 39.703125 177.453125 C 58.675781 176.058594 64.851562 176.132812 78.089844 177.746094 C 85.367188 178.625 91.765625 179.722656 92.355469 180.164062 C 93.234375 180.898438 93.382812 180.824219 92.941406 179.722656 C 92.648438 178.917969 92.722656 178.550781 93.164062 178.84375 C 95.589844 180.3125 92.867188 181.777344 85.074219 183.171875 C 84.484375 183.316406 81.691406 183.023438 78.824219 182.65625 Z M 11.320312 185.078125 C 7.496094 184.34375 7.347656 183.902344 10.144531 182.21875 C 12.421875 180.824219 14.921875 180.089844 22.054688 178.84375 L 24.777344 178.332031 L 24.777344 181.191406 C 24.777344 184.050781 24.777344 184.125 21.027344 184.929688 C 16.980469 185.882812 15.511719 185.882812 11.320312 185.078125 Z M 32.863281 186.03125 C 32.863281 185.589844 33.601562 185.003906 34.554688 184.78125 C 37.277344 183.976562 67.644531 183.390625 71.542969 184.050781 L 75.148438 184.636719 L 68.894531 185.148438 C 55.292969 186.25 32.863281 186.761719 32.863281 186.03125 Z M 71.25 174.664062 C 69.484375 174.003906 74.851562 174.078125 79.925781 174.8125 C 83.898438 175.398438 83.824219 175.398438 78.234375 175.324219 C 75.148438 175.25 71.984375 174.957031 71.25 174.664062 Z M 43.527344 169.238281 C 43.160156 165.28125 43.234375 162.347656 43.675781 161.6875 C 44.261719 160.808594 45.953125 160.441406 50.808594 160.296875 C 57.71875 160.074219 57.941406 160.222656 56.320312 164.253906 C 55.292969 167.039062 56.027344 169.53125 58.234375 170.558594 C 59.261719 171 60.511719 172.097656 61.101562 172.980469 L 62.203125 174.664062 L 54.335938 174.738281 C 50.070312 174.738281 45.953125 174.957031 45.292969 175.179688 C 44.1875 175.546875 43.96875 174.738281 43.527344 169.238281 Z M 33.601562 167.847656 L 33.601562 160.148438 L 35.804688 160.148438 C 37.9375 160.148438 38.011719 160.222656 38.011719 163.742188 C 38.011719 165.71875 37.644531 168.285156 37.203125 169.460938 C 36.6875 170.558594 36.394531 172.390625 36.46875 173.566406 C 36.542969 175.105469 36.246094 175.546875 35.070312 175.546875 C 33.671875 175.546875 33.601562 175.105469 33.601562 167.847656 Z M 88.234375 175.765625 C 88.898438 175.617188 90.074219 175.617188 90.808594 175.765625 C 91.472656 175.984375 90.882812 176.132812 89.484375 176.132812 C 88.089844 176.132812 87.5 175.984375 88.234375 175.765625 Z M 38.011719 174.738281 C 37.351562 173.640625 37.421875 172.464844 38.304688 169.898438 C 38.96875 167.992188 39.484375 165.207031 39.484375 163.667969 C 39.484375 161.46875 39.777344 160.882812 40.804688 160.882812 C 41.984375 160.882812 42.128906 161.6875 42.128906 168.578125 C 42.203125 176.132812 42.128906 176.277344 40.511719 176.277344 C 39.554688 176.277344 38.453125 175.617188 38.011719 174.738281 Z M 67.867188 172.171875 C 67.644531 171.585938 67.425781 168.359375 67.425781 165.132812 C 67.425781 160 67.574219 159.34375 68.75 159.5625 C 69.777344 159.78125 70 160.734375 70.21875 165.71875 C 70.367188 170.121094 70.148438 171.878906 69.410156 172.539062 C 68.527344 173.199219 68.234375 173.125 67.867188 172.171875 Z M 67.867188 172.171875 "
  />
  <path
    d="M 60.953125 171.144531 C 58.824219 169.09375 57.203125 167.1875 57.425781 166.894531 C 57.570312 166.601562 58.085938 164.988281 58.527344 163.300781 C 59.191406 161.027344 59.777344 160.148438 60.734375 160.148438 C 61.910156 160.148438 62.058594 160.589844 61.761719 163.300781 C 61.394531 166.085938 61.691406 166.746094 64.042969 169.605469 C 66.765625 172.832031 67.425781 174.8125 65.808594 174.8125 C 65.292969 174.8125 63.085938 173.125 60.953125 171.144531 Z M 60.953125 171.144531 "
  />
  <path
    d="M 64.484375 168.214844 C 63.453125 166.234375 63.824219 160.734375 65.074219 160.296875 C 65.734375 160.074219 65.957031 161.320312 65.957031 164.839844 C 65.957031 167.480469 65.808594 169.679688 65.585938 169.679688 C 65.441406 169.679688 64.925781 169.019531 64.484375 168.214844 Z M 7.863281 157.949219 C 2.421875 157.289062 0.507812 156.554688 0.507812 155.382812 C 0.507812 154.796875 1.390625 154.136719 2.570312 153.84375 C 3.671875 153.625 5.140625 153.257812 5.878906 153.035156 C 6.539062 152.890625 7.128906 153.035156 7.128906 153.476562 C 7.128906 153.917969 5.878906 154.28125 4.40625 154.28125 C 2.640625 154.28125 1.90625 154.503906 2.421875 155.015625 C 2.789062 155.382812 8.15625 156.117188 14.335938 156.628906 C 20.511719 157.070312 25.511719 157.730469 25.511719 158.09375 C 25.511719 158.828125 13.597656 158.683594 7.863281 157.949219 Z M 32.71875 159.046875 C 31.394531 157.65625 33.527344 157.214844 41.175781 157.214844 C 45.734375 157.214844 55.21875 156.847656 62.277344 156.484375 C 69.335938 156.117188 79.925781 155.675781 85.808594 155.457031 C 95.957031 155.015625 96.324219 155.089844 92.867188 156.117188 C 90.808594 156.628906 84.414062 157.4375 78.53125 157.875 C 63.308594 158.902344 33.304688 159.707031 32.71875 159.046875 Z M 34.042969 123.34375 C 34.261719 105.453125 34.554688 90.203125 34.777344 89.398438 C 34.921875 88.589844 35.734375 87.125 36.613281 86.171875 C 38.378906 84.046875 38.675781 84.339844 40.878906 90.203125 L 42.351562 93.945312 L 40.070312 107.800781 C 38.234375 119.53125 37.9375 122.902344 38.304688 129.796875 C 38.675781 136.027344 38.453125 138.8125 37.570312 141.820312 C 36.761719 144.679688 36.542969 147.097656 36.910156 150.765625 C 37.421875 155.75 37.421875 155.75 35.585938 155.75 L 33.671875 155.75 Z M 34.042969 123.34375 "
  />
  <path
    d="M 14.554688 155.234375 L 11.320312 154.941406 L 11.832031 138.667969 C 12.054688 129.722656 12.496094 106.921875 12.714844 87.929688 C 13.011719 69.015625 13.304688 53.324219 13.453125 53.179688 C 13.746094 52.886719 19.335938 53.984375 24.410156 55.378906 L 27.203125 56.183594 L 26.761719 72.460938 C 26.46875 82.726562 25.953125 89.617188 25.363281 90.9375 C 24.921875 92.109375 24.261719 96.875 23.96875 101.496094 C 23.746094 106.113281 23.230469 111.097656 22.9375 112.566406 C 22.496094 114.765625 22.71875 115.570312 23.96875 116.816406 C 25.4375 118.285156 25.511719 119.019531 25.511719 137.054688 L 25.511719 155.75 L 21.6875 155.601562 C 19.554688 155.53125 16.320312 155.382812 14.554688 155.234375 Z M 38.378906 150.910156 C 38.011719 147.683594 38.160156 145.046875 38.746094 142.992188 C 39.335938 141.085938 39.777344 135.074219 39.851562 126.421875 C 39.925781 114.546875 40.21875 111.832031 41.910156 104.207031 C 43.675781 96.804688 43.820312 95.191406 43.085938 92.476562 C 42.203125 89.179688 38.96875 82.433594 38.304688 82.433594 C 38.085938 82.433594 37.277344 83.164062 36.46875 84.117188 C 35.144531 85.730469 35.144531 85.730469 35.070312 80.085938 C 35.070312 74.953125 35.21875 74.367188 36.910156 73.046875 C 37.863281 72.242188 39.996094 71.433594 41.617188 71.140625 C 46.46875 70.410156 51.542969 64.691406 49.777344 61.902344 C 49.1875 60.949219 49.777344 58.019531 51.175781 55.378906 C 51.835938 54.277344 52.71875 53.839844 54.558594 53.839844 C 59.410156 53.839844 60.882812 59.703125 57.5 66.230469 L 55.734375 69.75 L 57.351562 71.289062 C 58.234375 72.09375 60.074219 72.976562 61.394531 73.269531 C 62.71875 73.5625 64.117188 74.367188 64.484375 75.101562 C 66.101562 78.105469 72.425781 97.023438 73.234375 101.421875 C 73.75 103.988281 74.925781 107.945312 75.957031 110.144531 C 77.792969 114.253906 78.308594 117.332031 76.984375 116.523438 C 76.617188 116.304688 76.46875 115.644531 76.691406 115.058594 C 76.984375 114.472656 76.617188 113.8125 76.027344 113.519531 C 75.441406 113.300781 74.707031 112.050781 74.484375 110.734375 C 73.898438 107.507812 64.117188 85.878906 63.160156 85.511719 C 61.394531 84.925781 60.441406 88.738281 60.441406 96.730469 C 60.441406 103.402344 60.808594 105.894531 62.5 111.394531 C 63.601562 115.058594 64.851562 120.996094 65.292969 124.589844 C 65.734375 128.253906 66.394531 133.167969 66.835938 135.585938 C 67.792969 141.453125 67.71875 142.773438 65.660156 149.589844 C 64.117188 154.796875 63.75 155.382812 61.984375 155.601562 L 60.074219 155.824219 L 60.511719 151.570312 C 60.734375 149.222656 61.46875 145.777344 62.058594 143.945312 C 63.160156 140.71875 63.160156 140.5 61.324219 136.246094 C 60.292969 133.902344 58.085938 128.328125 56.394531 123.855469 C 53.453125 115.863281 50.953125 111.832031 50.21875 114.03125 C 50.070312 114.617188 48.894531 120.335938 47.644531 126.789062 C 46.394531 133.242188 45.070312 139.839844 44.628906 141.453125 C 44.261719 143.066406 43.675781 146.953125 43.453125 150.105469 C 43.011719 155.75 43.011719 155.75 40.953125 155.75 C 38.894531 155.75 38.820312 155.601562 38.378906 150.910156 Z M 90.957031 152.375 C 90.367188 152.304688 85.589844 151.9375 80.292969 151.644531 C 74.558594 151.351562 71.617188 150.910156 72.941406 150.617188 C 75.882812 150.03125 93.898438 151.351562 93.898438 152.15625 C 93.898438 152.816406 93.089844 152.890625 90.957031 152.375 Z M 90.957031 152.375 "
  />
  <path
    d="M 67.425781 153.625 C 67.425781 152.816406 67.941406 149.664062 68.527344 146.511719 C 69.265625 142.625 69.410156 139.988281 68.96875 138.226562 C 67.867188 133.828125 67.351562 120.484375 67.867188 109.851562 C 68.382812 100.542969 68.457031 99.957031 69.484375 101.863281 C 70.292969 103.546875 70.515625 108.019531 70.441406 126.203125 C 70.367188 141.527344 70 149.003906 69.484375 149.882812 C 68.824219 150.910156 68.824219 151.71875 69.484375 153.109375 C 70.21875 154.796875 70.148438 155.015625 68.894531 155.015625 C 67.941406 155.015625 67.425781 154.503906 67.425781 153.625 Z M 8.597656 153.550781 C 8.597656 152.523438 8.082031 152.082031 6.980469 152.082031 L 5.4375 152.082031 L 5.878906 132.507812 C 6.171875 121.65625 6.539062 102.007812 6.761719 88.664062 C 6.980469 75.394531 7.347656 61.832031 7.570312 58.605469 C 7.9375 53.179688 8.082031 52.667969 9.847656 51.859375 L 11.761719 50.90625 L 11.320312 75.320312 C 11.023438 88.664062 10.582031 112.125 10.289062 127.375 C 10.070312 142.550781 9.554688 155.015625 9.1875 155.015625 C 8.890625 155.015625 8.597656 154.355469 8.597656 153.550781 Z M 44.996094 149.738281 C 45.292969 146.363281 45.808594 142.480469 46.175781 141.085938 C 46.910156 137.933594 51.25 117.183594 51.25 116.378906 C 51.320312 115.058594 53.011719 118.871094 55.660156 126.277344 C 57.203125 130.601562 59.117188 135.585938 59.925781 137.347656 C 61.394531 140.5 61.394531 140.574219 60 144.605469 C 59.261719 146.804688 58.601562 150.25 58.601562 152.230469 L 58.601562 155.75 L 44.554688 155.75 Z M 63.75 109.191406 C 61.910156 101.496094 61.324219 90.425781 62.792969 88.957031 C 63.308594 88.445312 64.042969 89.324219 65.144531 91.890625 C 66.394531 94.824219 66.691406 96.875 66.617188 102.375 C 66.617188 106.113281 66.324219 110.878906 66.101562 112.859375 L 65.585938 116.523438 Z M 35.070312 64.691406 L 35.070312 57.433594 L 41.175781 57.945312 C 44.484375 58.164062 47.425781 58.53125 47.792969 58.75 C 48.453125 59.117188 48.453125 64.25 47.867188 65.9375 C 47.351562 67.257812 43.820312 69.234375 41.910156 69.234375 C 41.175781 69.234375 39.335938 69.894531 37.792969 70.628906 L 35.070312 72.023438 Z M 65.957031 74.367188 C 65.957031 73.632812 64.335938 72.828125 59.261719 70.847656 L 57.277344 70.042969 L 59.410156 65.863281 C 60.585938 63.589844 61.542969 61.097656 61.542969 60.363281 C 61.542969 59.265625 62.132812 58.972656 64.117188 58.972656 L 66.691406 58.972656 L 66.691406 67.035156 C 66.691406 71.507812 66.542969 75.101562 66.324219 75.101562 C 66.101562 75.101562 65.957031 74.734375 65.957031 74.367188 Z M 69.558594 84.632812 C 68.085938 80.234375 68.601562 56.773438 70.21875 59.484375 C 70.882812 60.730469 71.101562 64.691406 70.957031 74.515625 C 70.734375 87.710938 70.734375 87.859375 69.558594 84.632812 Z M 24.410156 114.472656 C 24.113281 113.738281 24.1875 111.320312 24.628906 109.121094 C 25.144531 106.921875 25.289062 103.695312 25.070312 102.007812 C 24.847656 100.320312 24.996094 97.609375 25.363281 95.996094 C 25.953125 93.648438 26.097656 94.824219 26.097656 102.226562 C 26.097656 112.125 25.4375 116.816406 24.410156 114.472656 Z M 21.835938 51.714844 C 14.773438 49.808594 11.464844 48.195312 11.023438 46.507812 C 10.804688 45.699219 10.144531 45.042969 9.628906 45.042969 C 8.378906 45.042969 8.304688 46.652344 9.480469 47.828125 C 10.070312 48.414062 10.144531 48.707031 9.554688 48.707031 C 9.113281 48.707031 8.011719 47.828125 7.128906 46.726562 L 5.511719 44.675781 L 7.640625 43.867188 C 8.890625 43.355469 9.847656 43.28125 10.144531 43.648438 C 10.363281 44.015625 11.097656 44.160156 11.6875 43.941406 C 12.347656 43.648438 16.023438 44.527344 19.921875 45.773438 L 26.980469 48.046875 L 26.980469 50.613281 C 26.980469 52.007812 26.910156 53.105469 26.835938 53.03125 C 26.6875 53.03125 24.480469 52.445312 21.835938 51.714844 Z M 41.175781 55.160156 L 35.070312 54.425781 L 35.070312 49.367188 L 40.070312 49.808594 C 55.660156 51.125 62.941406 51.417969 68.308594 50.832031 C 71.691406 50.539062 76.765625 50.101562 79.558594 49.878906 C 82.425781 49.660156 86.175781 49 87.941406 48.339844 C 90.148438 47.605469 91.472656 47.460938 91.984375 47.972656 C 93.089844 49.074219 94.117188 48.855469 93.605469 47.535156 C 93.382812 46.949219 93.457031 46.652344 93.898438 46.875 C 96.175781 48.265625 92.355469 51.933594 86.984375 53.472656 C 82.207031 54.867188 72.5 56.039062 65.660156 56.039062 C 61.175781 56.039062 60.511719 55.820312 59.191406 54.207031 C 58.085938 52.8125 57.058594 52.371094 54.925781 52.371094 C 52.277344 52.371094 49.777344 53.839844 49.777344 55.378906 C 49.777344 56.113281 49.628906 56.113281 41.175781 55.160156 Z M 41.175781 55.160156 "
  />
  <path
    d="M 48.308594 48.339844 C 43.675781 47.828125 38.746094 47.386719 37.421875 47.3125 L 34.996094 47.242188 L 35.21875 43.429688 L 35.4375 39.542969 L 45.367188 39.6875 C 58.675781 39.835938 71.46875 41.15625 79.707031 43.207031 C 89.265625 45.628906 89.855469 46.140625 84.632812 47.09375 C 79.339844 48.121094 64.632812 49.441406 60.074219 49.292969 C 58.234375 49.292969 52.941406 48.78125 48.308594 48.339844 Z M 4.628906 48.632812 C 1.6875 46.359375 2.199219 42.914062 5.65625 41.230469 C 11.320312 38.441406 26.980469 35.804688 26.980469 37.636719 C 26.980469 38.074219 26.097656 38.441406 24.996094 38.441406 C 20.953125 38.441406 10.511719 40.640625 7.421875 42.183594 C 3.523438 44.015625 3.082031 46.289062 6.246094 48.632812 C 7.347656 49.441406 7.863281 50.171875 7.421875 50.171875 C 6.980469 50.171875 5.730469 49.441406 4.628906 48.632812 Z M 4.628906 48.632812 "
  />
  <path
    d="M 19.628906 43.5 C 16.980469 42.769531 14.996094 42.183594 15.214844 42.109375 C 15.4375 42.035156 18.15625 41.59375 21.320312 41.082031 L 26.980469 40.203125 L 26.980469 42.621094 C 26.980469 45.40625 26.761719 45.480469 19.628906 43.5 Z M 91.691406 44.527344 C 82.132812 40.863281 59.484375 37.710938 41.984375 37.710938 C 37.71875 37.710938 34.1875 37.417969 33.96875 36.976562 C 32.9375 35.363281 55.882812 36.464844 73.675781 38.808594 C 81.472656 39.910156 96.105469 44.015625 97.796875 45.699219 C 99.117188 47.019531 96.988281 46.582031 91.691406 44.527344 Z M 4.1875 38.882812 C 4.1875 36.316406 6.320312 34.335938 10.4375 33.015625 C 14.847656 31.699219 21.980469 30.378906 24.921875 30.378906 C 26.910156 30.378906 27.054688 30.597656 26.835938 32.796875 L 26.613281 35.144531 L 19.261719 36.097656 C 14.921875 36.683594 10.363281 37.78125 8.082031 38.808594 L 4.1875 40.570312 Z M 4.1875 38.882812 "
  />
  <path
    d="M 94.339844 42.183594 C 92.574219 39.46875 60.074219 34.777344 42.351562 34.777344 L 35.953125 34.777344 L 35.585938 32.429688 C 35.4375 31.109375 35.363281 29.863281 35.511719 29.71875 C 35.660156 29.570312 42.644531 29.792969 51.027344 30.230469 C 68.894531 31.183594 80.808594 33.089844 89.707031 36.242188 C 95.738281 38.441406 96.105469 38.734375 96.105469 40.714844 C 96.105469 42.769531 95.148438 43.574219 94.339844 42.183594 Z M 94.339844 42.183594 "
  />
  <path
    d="M 90.222656 34.996094 C 81.03125 31.476562 58.894531 28.179688 44.117188 28.179688 L 35.804688 28.179688 L 35.804688 25.613281 C 35.804688 23.707031 35.363281 22.753906 33.96875 21.875 C 30.4375 19.601562 26.980469 22.09375 26.980469 26.933594 C 26.980469 28.472656 26.46875 28.691406 20.214844 29.5 C 16.539062 30.011719 11.539062 31.183594 9.1875 32.136719 L 4.921875 33.898438 L 4.921875 28.472656 C 4.921875 25.539062 5.289062 22.3125 5.804688 21.285156 C 6.832031 18.941406 11.246094 16.742188 17.863281 15.273438 C 25.730469 13.515625 49.335938 13.074219 61.542969 14.46875 C 75.808594 16.15625 92.5 21.140625 97.058594 25.097656 C 98.679688 26.566406 98.824219 32.578125 97.207031 32.578125 C 96.175781 32.578125 95.738281 33.824219 96.03125 36.097656 C 96.175781 37.269531 95.808594 37.195312 90.222656 34.996094 Z M 90.222656 34.996094 "
  />
  <path
    d="M 79.925781 16.8125 C 68.75 13.808594 60.144531 12.707031 46.101562 12.269531 C 36.394531 12.046875 30.4375 12.269531 25.144531 13 C 21.097656 13.589844 17.644531 13.953125 17.570312 13.808594 C 16.90625 13.296875 22.054688 11.390625 27.347656 10.140625 C 35.585938 8.308594 52.277344 8.457031 63.75 10.4375 C 73.824219 12.269531 83.53125 15.203125 85.957031 17.179688 C 88.015625 18.941406 87.722656 18.941406 79.925781 16.8125 Z M 79.925781 16.8125 "
  />
  <path
    d="M 68.160156 9.996094 C 61.691406 8.234375 60 8.089844 44.484375 8.089844 L 27.789062 8.015625 L 29.628906 6.109375 C 30.585938 5.082031 31.171875 3.984375 30.878906 3.691406 C 30.585938 3.398438 30.804688 3.398438 31.46875 3.617188 C 32.054688 3.835938 34.554688 3.105469 36.984375 2.003906 C 40.804688 0.246094 42.203125 0.0234375 49.410156 0.0234375 C 53.894531 -0.046875 58.824219 0.0976562 60.441406 0.246094 C 64.191406 0.539062 67.792969 1.859375 66.691406 2.515625 C 66.25 2.8125 67.574219 3.910156 69.777344 5.082031 C 71.910156 6.257812 74.265625 7.871094 74.925781 8.675781 C 75.660156 9.554688 76.175781 9.921875 76.25 9.554688 C 76.25 9.1875 76.765625 9.335938 77.351562 9.847656 C 78.675781 10.949219 78.160156 12.046875 76.398438 11.976562 C 75.734375 11.902344 71.984375 11.023438 68.160156 9.996094 Z M 68.160156 9.996094 "
  />
</svg>
