<svg id="root" xmlns="http://www.w3.org/2000/svg" width="768" height="441" viewBox="0 0 7680 4410">
  <g fill="#010101">
    <path
      d="M2465 3844c-16-2-70-9-120-15-112-13-181-34-200-62-12-17-23-117-12-117 1 0 69 9 151 20 167 22 259 24 461 10 196-14 357-38 445-66 41-13 81-24 88-24 19 0 15 65-7 114-18 39-65 75-79 61-3-3-1-5 4-5 6 0 19-7 30-15 10-8-7-4-41 9-123 49-312 78-580 89-60 3-123 3-140 1z" />
    <path
      d="M2395 3661c-196-16-316-45-335-82-6-10-10-54-10-98 0-62 3-81 14-81 7 0 68 11 136 25s133 25 146 25c20 0 24 5 24 28 0 32 27 62 54 62 23 0 66-45 66-70 0-19 6-20 139-20 76 0 167-3 202-6 35-4 61-3 57 1-11 12 12 47 27 42 9-4 11 1 8 14-4 15 4 23 41 40 29 12 55 18 69 13 39-11 87-66 94-106 3-21 7-38 9-38 1 0 43-11 92-24l90-24 6 29c3 17 12 29 21 29 23 0 20 85-4 109-81 81-626 157-946 132zm1580-112c-82-11-171-35-202-55-18-11-23-24-23-59 0-25 3-45 8-45 4 0 57 9 117 20 162 30 434 37 600 16 72-9 142-19 158-22 27-6 27-5 27 46 0 49-2 52-34 65-98 41-449 59-651 34z" />
    <path
      d="M2956 3508c-27-39-18-115 19-151 44-44 135-1 135 63 0 38-24 86-49 100-35 18-88 12-105-12zm-564-5c-10-18-3-563 18-1418 5-236 11-554 11-705 1-151 4-288 8-305 9-42 47-47 62-8 14 36 3 132-17 154-14 16-14 20 4 46 20 28 20 34 7 807-14 764-14 779-35 801l-20 22 20 18c18 17 20 30 20 177 0 142-2 163-21 200s-19 42-5 50c12 7 16 26 16 83 0 63-3 76-19 85-28 14-39 13-49-7zm-182-98c-180-32-185-34-171-48 6-6 11-23 11-38v-26l78 19c42 10 114 21 160 25l82 6v43c0 29-4 44-12 43-7 0-74-11-148-24zm270-14v-39l138-6c75-3 181-9 235-12l99-6-21 23c-11 13-27 33-35 44-16 23-104 33-298 34l-118 1v-39zm1650 22c-127-6-330-33-382-51-58-19-65-31-67-116l-1-48 33 6c79 18 207 36 287 42 86 7 87 7 96 38 15 53 84 45 84-10v-24h149c146 0 150 0 157 23 10 35 34 56 70 63 47 9 80-15 96-68 13-46 23-58 51-58 15 0 17 10 17 71 0 70 0 70-33 84-73 30-381 57-557 48zm-783-27c-10-25 6-131 21-142 21-15 11-48-16-52-22-3-22-6-22-153v-149l25-12c33-15 31-51-2-56l-23-3v-572c0-641 6-858 25-851 6 3 18-2 25-11 11-13 10-18-4-33-11-13-16-38-16-86 0-59 2-67 18-64s17 61 13 1093c-3 779-7 1092-15 1097-16 11-23 10-29-6zm-232-18c-6-13-21-28-34-35l-25-12 25-5c58-14 222-46 235-46 21 0 18 57-4 69-14 8-170 51-184 51-2 0-8-10-13-22zm2035 1c-107-9-190-23-267-45l-53-15v-86l61 13c149 31 492 46 662 29l77-7v41c0 51-9 55-143 70-107 12-196 12-337 0z" />
    <path
      d="M2467 3324c-19-19 19-24 176-24 198 0 505-30 617-60 84-22 104-24 96-11-18 29-333 77-561 86-82 3-189 8-236 10-47 3-88 2-92-1zm-242-15c-91-12-169-35-185-54-11-14-10-20 11-40 13-12 35-26 49-30 21-5 20-3-8 14-50 32-39 53 38 72 36 9 104 20 153 24 48 4 87 11 87 16 0 11-49 10-145-2zm2325-15c-30-35-1-124 40-124 33 0 53 29 47 72-3 21-11 45-17 53-16 20-54 19-70-1zm-432-6c-3-7-6-448-7-981-2-878-1-968 14-973 9-4 18-4 21-1s6 445 7 983c2 896 1 979-14 982-9 2-19-3-21-10z" />
    <path
      d="M2480 3273c0-6 10-14 23-17 37-11 450-19 503-10l49 8-85 7c-185 15-490 22-490 12zm2032-23c0-19 2-27 5-17 2 9 2 25 0 35-3 9-5 1-5-18zm-2325 10c-52-10-54-16-16-39 31-19 65-29 162-46l37-7v39c0 39 0 40-51 51-55 13-75 13-132 2zm2923-17c-72-5-252-32-292-44-38-10-38-10-38-64 0-66-24-63 249-32 178 21 195 24 202 44 4 11 12 24 18 28 19 11 51-5 57-31 6-24 8-24 120-24 95 0 114 3 114 15 0 50 95 75 125 33 16-23 16-22 13 17l-3 40-90 12c-83 10-368 14-475 6zm-2005-16c-81-12-448-15-547-4l-68 8v-69l83-6c258-19 342-18 522 4 99 12 186 27 194 33 12 10 14 9 8-6-4-11-3-16 3-12 33 20-4 40-110 59-8 2-46-2-85-7zm885-4c-72-5-248-33-281-45-23-8-29-16-29-38v-27l73 17c40 10 132 21 205 25l132 7v34c0 37 8 35-100 27zm190-23v-30h78c44 0 120-3 171-7l92-6-18 30c-15 28-23 31-82 37-37 3-105 6-153 6h-88v-30zm560-18c0-28 5-62 11-76 15-33 5-63-16-46-13 11-15-4-15-118 0-121 2-132 20-142 20-10 20-7 22 127 1 76 0 172-1 213-3 86-21 122-21 42zm-103-8c-11-14-17-27-15-29 1-2 24-6 51-10 46-7 47-7 47 19 0 19-7 29-26 36-34 13-36 13-57-16zm-2452-8c-1-6-7-27-13-46l-10-35-1 43c-1 41-2 42-28 36-16-4-28-7-28-8s1-56 3-124l3-123 27 3c26 3 27 5 32 88 4 69 6 78 13 51 4-18 7-58 7-88 0-46 3-54 16-49 9 3 52 6 96 6h81l-5 105c-3 58-9 110-14 115-16 15-175 39-179 26z" />
    <path
      d="M5607 3163c-13-12-7-79 8-99 15-19 15-19 36 5 14 18 18 32 14 50-11 43-39 64-58 44zm-351-15c-5-15-13-413-23-1135-6-455-5-493 10-493 14 0 17 10 17 48 0 26 5 272 10 547 16 893 16 1038 3 1042-7 3-15-1-17-9zm-1076-8c0-6 51-10 133-10 159-1 309-14 380-35 44-12 49-12 33 0-28 22-109 36-256 45-185 12-290 12-290 0zm1392-20c0-19 2-27 5-17 2 9 2 25 0 35-3 9-5 1-5-18zm-3022-1c-9-15-8-31 4-66 9-26 16-64 16-85 0-30 4-38 18-38 16 0 18 11 18 105 1 103 0 105-22 105-13 0-28-9-34-21zm683 14c9-2 25-2 35 0 9 3 1 5-18 5s-27-2-17-5zm667 0c-129-9-230-38-230-66 0-8 3-9 8-1 15 23 54 34 149 44 54 6 134 14 178 19l80 8h-70c-38 0-90-2-115-4zm-1410-108v-105h30c29 0 30 1 30 49 0 27-5 62-11 78-7 15-11 40-10 56 1 21-3 27-19 27-19 0-20-6-20-105zm135 19c-5-54-4-94 2-103 8-12 31-17 97-19 94-3 97-1 75 54-14 38-4 72 26 86 14 6 31 21 39 33l15 23-107 1c-58 0-114 3-123 6-15 5-18-6-24-81zm377 74c-24-9 49-8 118 2 54 8 53 8-23 7-42-1-85-5-95-9z" />
    <path
      d="M2862 3070c-29-28-51-54-48-58 2-4 9-26 15-49 9-31 17-43 30-43 16 0 18 6 14 43-5 38-1 47 31 86 37 44 46 71 24 71-7 0-37-23-66-50zm981 25c-45-6-85-13-88-17-12-12 63-29 166-38 171-15 169-16 169 24v35l-74-1c-41 0-78 2-83 4-4 3-45 0-90-7zm470 7-133-3v-72l139 7c144 6 286 26 317 44 15 8 10 11-26 16-71 9-155 11-297 8zm-1357-18c-3-8-6-52-6-96 0-70 2-79 18-76 14 3 17 16 20 84 2 60-1 84-11 93-12 9-16 8-21-5zm1995-5c-168-21-171-22-171-49 0-24 8-25 120-6 47 8 139 16 205 18l120 3 3 28 3 27-68-1c-37-1-133-9-212-20zm359-2v-26l125-3c125-3 136 0 115 32-7 11-36 16-125 18l-115 4v-25zm348-29c-17-17-17-18 7-18 15 0 25 6 25 14 0 23-13 25-32 4z" />
    <path
      d="M2910 3030c-14-27-9-102 8-108 9-3 12 14 12 62 0 36-2 66-5 66-2 0-9-9-15-20zm750-111c0-109 2-120 18-117 15 3 17 18 20 121 3 112 2 117-18 117-19 0-20-6-20-121zm60 6v-117l43 5c23 4 100 9 171 13l129 7-7 69c-4 40-2 77 4 88 9 17 4 19-63 24-39 3-99 8-132 10-33 3-79 8-102 12l-43 7v-118zm793 98c9-2 25-2 35 0 9 3 1 5-18 5s-27-2-17-5zm635 0c18-2 45-2 60 0s0 4-33 4-45-2-27-4zm220 0c34-2 90-2 125 0 34 2 6 3-63 3s-97-1-62-3zm-975-10c15-2 39-2 55 0 15 2 2 4-28 4s-43-2-27-4zm604 0c18-2 50-2 70 0 21 2 7 4-32 4-38 0-55-2-38-4zm616 0c9-2 25-2 35 0 9 3 1 5-18 5s-27-2-17-5zm-1433-93c0-81 2-90 19-90s19 9 19 90-2 90-19 90-19-9-19-90zm71 68c-1-16 4-28 9-28 12 0 12 8 0 35-8 18-9 17-9-7zm657 15c12-2 30-2 40 0 9 3-1 5-23 4-22 0-30-2-17-4zm120-12c-91-9-169-19-172-22-9-9 130-19 261-19h113v30c0 22-4 30-17 29-10-1-93-9-185-18zm282-12c0-21 2-22 95-15 227 16 252 36 45 36-137 0-140-1-140-21zm-1236-2c-3-8-1-42 4-78l10-64 1 78c1 73-3 93-15 64zm223-12c-15-14-35-25-43-25s-14-9-14-20c0-34 28-90 45-90 13 0 15 7 10 44-6 39-4 47 25 80 36 41 20 49-23 11zm1373-95c0-91 3-110 15-110 11 0 15 13 15 54 0 29 3 74 6 99 6 39 4 46-15 56-21 12-21 11-21-99zm-880-19v-103l63 6c34 3 106 8 160 12 53 3 97 10 97 15s-5 29-12 54c-11 41-10 46 10 68l23 24-133 6c-73 4-150 10-170 13l-38 7v-102z" />
    <path
      d="M5138 2901c-31-28-32-31-20-63 6-19 12-42 12-51s5-17 11-17c7 0 8 14 4 41-6 33-3 47 19 80 31 46 19 51-26 10zm-2660 4c-18-19 11-25 115-25 62 0 191-5 287-10s240-11 320-14c138-6 143-5 96 9-28 7-115 18-195 24-207 14-615 25-623 16zm-338-15c-74-9-100-19-100-35 0-8 12-17 28-21 15-3 35-8 45-11 9-2 17 0 17 6s-17 11-37 11c-24 0-34 3-27 10 5 5 78 15 162 22 84 6 152 15 152 20 0 10-162 8-240-2zm3040-7c-1-5-3-29-5-55s0-50 5-53c6-4 10 18 10 54 0 34-2 61-5 61s-5-3-5-7z" />
    <path
      d="m2231 2853-44-4 7-222c3-122 9-433 12-692 4-258 8-472 10-474 4-4 80 11 149 30l38 11-6 222c-4 140-11 234-19 252-6 16-15 81-19 144-3 63-10 131-14 151-6 30-3 41 14 58 20 20 21 30 21 276v255l-52-2c-29-1-73-3-97-5zm265-435c3-244 7-452 10-463 2-11 13-31 25-44 24-29 28-25 58 55l20 51-31 189c-25 160-29 206-24 300 5 85 2 123-10 164-11 39-14 72-9 122 7 68 7 68-18 68h-26l5-442z" />
    <path
      d="M2555 2794c-5-44-3-80 5-108 8-26 14-108 15-226 1-162 5-199 28-303 24-101 26-123 16-160-12-45-56-137-65-137-3 0-14 10-25 23-18 22-18 22-19-55 0-70 2-78 25-96 13-11 42-22 64-26 66-10 135-88 111-126-8-13 0-53 19-89 9-15 21-21 46-21 66 0 86 80 40 169l-24 48 22 21c12 11 37 23 55 27s37 15 42 25c22 41 108 299 119 359 7 35 23 89 37 119 25 56 32 98 14 87-5-3-7-12-4-20 4-8-1-17-9-21-8-3-18-20-21-38-8-44-141-339-154-344-24-8-37 44-37 153 0 91 5 125 28 200 15 50 32 131 38 180 6 50 15 117 21 150 13 80 12 98-16 191-21 71-26 79-50 82l-26 3 6-58c3-32 13-79 21-104 15-44 15-47-10-105-14-32-44-108-67-169-40-109-74-164-84-134-2 8-18 86-35 174s-35 178-41 200c-5 22-13 75-16 118-6 77-6 77-34 77s-29-2-35-66z" />
    <path
      d="M2645 2778c4-46 11-99 16-118 10-43 69-326 69-337 1-18 24 34 60 135 21 59 47 127 58 151 20 43 20 44 1 99-10 30-19 77-19 104v48h-191l6-82zm-495 52c0-14-7-20-22-20h-21l6-267c4-148 9-416 12-598 3-181 8-366 11-410 5-74 7-81 31-92l26-13-6 333c-4 182-10 502-14 710-3 207-10 377-15 377-4 0-8-9-8-20zm800 1c0-11 7-54 15-97 10-53 12-89 6-113-15-60-22-242-15-387 7-127 8-135 22-109 11 23 14 84 13 332-1 209-6 311-13 323-9 14-9 25 0 44 10 23 9 26-8 26-13 0-20-7-20-19zm320-17c-8-1-73-6-145-10-78-4-118-10-100-14 40-8 285 10 285 21 0 9-11 10-40 3zm515-15c-107-14-137-30-45-24 146 9 345 27 349 31 8 7-233 2-304-7zm610 1c121-4 247-11 280-14 48-4 55-3 35 6-15 6-130 12-280 13l-255 3 220-8zm-515-30c-63-4-125-8-137-9l-23-1V1638l23 7c55 17 160 35 245 41l92 7v63c0 63 0 64-34 78-25 10-37 24-46 53-7 21-31 74-52 117l-40 79 7 126c5 91 11 131 23 144 22 25 42 21 42-8 0-18 4-23 15-19 19 8 19-4-1-63-14-40-14-58-5-115 11-66 38-138 51-138 4 0 15 20 25 45 18 49 17 81-5 201-12 63-12 89 5 211 14 111 16 147 7 173-7 18-12 57-12 86v54l-32-2c-18-1-85-5-148-8zm203-50c0-36 2-50 4-32 2 17 2 47 0 65-2 17-4 3-4-33zm100-97c7-174 15-233 28-211 5 7 9 93 9 191 0 175 0 177-22 177-21 0-21-1-15-157zm68 30c0-72-4-140-7-150-5-17-5-17 7 1 17 27 22 129 11 211-9 68-10 66-11-62z" />
    <path
      d="M4280 2752c0-16 8-54 19-84 21-61 21-60-39-198-34-79-57-113-71-104-10 6-13-665-3-690 4-11 19-16 45-16 32 0 42 5 50 23 15 33-5 103-38 133-28 26-23 44 11 44 13 0 28 6 34 13 9 11 41 126 81 288 10 41 30 96 45 121 14 24 26 51 26 59 0 31-31-21-84-145-30-71-57-131-60-133-3-3-10-2-17 2-19 13-4 149 29 256 17 53 37 146 46 207 15 110 15 111-9 179-18 52-28 69-44 71-17 3-21-2-21-26zm360 8c-11-7-7-10 18-10 17 0 32 5 32 10 0 13-30 13-50 0zm70-388c0-213-3-476-7-584-5-174-4-198 9-198 9 0 20 6 26 13s13 223 17 582l7 570-25 3-26 2-1-388zm-1050-187c0-563 0-566 20-555s20 21 20 565c0 548 0 555-20 555s-20-7-20-565zm813 558c15-2 37-2 50 0 12 2 0 4-28 4-27 0-38-2-22-4zm595 0c23-2 59-2 80 0 20 2 1 4-43 4s-61-2-37-4zm360 0c46-2 118-2 160 0 42 1 5 3-83 3s-123-2-77-3zm-127-192c-1-98-3-187-7-197-5-17-4-17 5-2 6 9 20 69 31 135l20 118-21 63c-11 34-22 62-24 62s-4-81-4-179zm-474 162c-16-3-30-10-32-16-7-22-16-874-10-899 6-24 9-25 48-17 23 4 99 8 170 9h127v44c0 24 2 51 5 58 4 10-9 21-37 34-41 18-45 24-85 124-39 98-41 108-31 150 6 25 13 71 17 104 5 45 11 62 28 73 21 14 23 14 34-13 9-26 12-27 20-11 17 29 30 20 23-17-3-21 0-56 10-89 21-71 20-95-2-137-25-46-38-48-62-8-22 36-29 153-10 187 5 11 6 30 0 47-9 31-10 31-14-1-1-11-9-57-16-103l-14-83 40-97c34-84 44-99 73-114 50-25 64-42 82-101 15-51 16-45 22 253 5 297 5 309-21 468-23 142-29 162-45 162-20 0-20-1-1-128 7-46-23-212-38-212-12 0-10 22 9 116 14 68 15 89 5 117-7 18-12 50-12 70v37l-127-1c-71-1-141-4-156-6zm746 0c15-2 37-2 50 0 12 2 0 4-28 4-27 0-38-2-22-4zm-205-10c18-2 45-2 60 0s0 4-33 4-45-2-27-4zm298-55c-3-35-8-258-11-495-5-368-3-432 9-427 17 7 23 126 32 622 6 324 5 362-9 362-12 0-17-15-21-62zm-1583-348c0-47 2-66 4-42 2 23 2 61 0 85-2 23-4 4-4-43zm1249-19c-34-68-42-94-41-135l1-51 19 80c11 43 31 99 45 122 14 24 24 49 21 56-2 7-22-26-45-72zm-1384 54c-3-6-8-67-10-135l-3-125 48-94c26-51 47-100 47-108 0-7 10-17 23-22 22-8 22-7 27 88 3 53 4 98 3 100-2 2-8-10-14-28-8-22-16-30-26-27-8 3-16 6-19 6-8 0-38 67-50 115-16 58-18 133-4 155 5 8 5 19 0 25-4 5-10 21-12 35-1 14-6 20-10 15zm-1048-110c-25-105-33-256-13-276 7-7 17 5 32 40 17 40 21 68 20 143 0 51-4 116-7 143l-7 50-25-100z" />
    <path
      d="M5062 2288c-22-62-10-188 18-188 4 0 13 19 19 43 9 34 8 54-7 110l-17 69-13-34zm-2697 9c-4-10-3-43 3-73 7-30 9-74 6-97s-1-60 4-82c8-32 10-16 10 85 0 135-9 199-23 167zm614-407c-20-60-13-380 9-343 9 17 12 71 10 205-3 180-3 182-19 138zm2181-51c0-13 5-31 10-39 7-11 8-5 4 20-8 43-14 51-14 19zm-263-79c-58-7-88-23-73-37 10-11 369-4 380 7 5 5 6 16 3 24-5 13-26 16-129 15-68-1-149-5-181-9zm-1967-10c0-10-22-21-91-48l-27-11 29-57c16-31 29-65 29-75 0-15 8-19 35-19h35v110c0 61-2 110-5 110s-5-5-5-10zm2360-10c0-14 7-20 23-20 12 0 69-9 127-21 83-16 111-18 134-9 45 17 22 29-99 50-144 26-185 26-185 0zm-2780-122v-99l83 7c45 3 85 8 90 11 9 5 9 75 1 98-7 18-55 45-81 45-10 0-35 9-56 19l-37 19v-100zm3141 71c-13-10-19-19-14-19 13 0 49 27 43 33-3 3-16-3-29-14zm-626 1c90-12 185-11 185 0 0 6-47 9-122 9-106-2-114-3-63-9zm-255-14c0-27 177-69 349-82 86-7 91-6 91 13 0 18-11 21-140 32-77 7-171 21-210 32-83 23-90 23-90 5zm514 6c3-5 34-9 68-10 59 0 60 0 23 8-53 12-97 12-91 2zm-1279-29c-189-22-255-39-255-67 0-23 27-23 135-4 55 10 121 18 148 18 46 0 47 1 47 30 0 32-1 32-75 23zm265-8c-15-17-43-19-71-5-16 9-19 7-19-15 0-25 1-25 88-25 48-1 130-8 182-16 154-25 169-26 186-20 15 6 15 8-1 26-20 22-79 36-213 50-53 6-107 13-118 15-12 3-27-2-34-10zm868 8c12-2 32-2 45 0 12 2 2 4-23 4s-35-2-22-4zm392-14c-36-5-107-9-157-9-87-1-93-2-93-22 0-21 2-21 143-15 144 7 227 22 235 45 4 14-27 14-128 1z" />
    <path
      d="M4770 1576v-54l43-16c168-63 635-88 785-41l52 16v54c0 38-4 55-12 55-7 0-69-7-138-14-69-8-146-12-172-9-46 5-48 4-48-19 0-29-17-48-42-48-20 0-39 36-31 58 4 8-8 12-40 12-68 0-266 28-323 45-73 22-74 22-74-39zm-112 21c8-9 10-21 6-28s-2-10 6-7c23 7 22 26-2 39-21 11-22 11-10-4zm-988-2c1-47 146-91 324-100l91-4-85 9c-176 18-291 48-315 83-8 12-15 17-15 12z" />
    <path
      d="M3987 1568c-159-14-167-23-34-37 65-7 121-10 124-8 2 3 3 16 1 29-3 23-4 23-91 16zm193-25v-36l128 7c231 12 239 16 67 42-204 31-195 32-195-13zm513 11c-12-9-44-22-70-30-46-13-47-14-8-8 22 3 58 14 79 24 22 11 41 18 43 16s0-21-5-42c-4-22-5-50-2-64l7-25 7 26c4 14 6 45 4 70-3 49-19 58-55 33zm-1001-44c2-18 15-27 57-42 58-19 177-42 274-53 56-6 57-6 57 19 0 28 10 25-157 46-79 10-139 23-216 47-15 5-18 1-15-17z" />
    <path
      d="M4645 1504c-89-25-237-44-352-44h-113v-25c0-25 0-25 94-25 116 0 301 23 376 47 43 14 56 23 58 41 4 25 4 25-63 6z" />
    <path
      d="M4523 1503c9-2 25-2 35 0 9 3 1 5-18 5s-27-2-17-5zm-1930-15-83-10v-69l68 6c212 18 311 22 384 14 46-4 115-10 153-13 39-3 90-12 114-21 30-10 48-12 55-5 15 15 29 12 22-6-3-8-2-12 4-9 31 19-21 69-94 90-65 19-197 35-290 35-61 0-70-3-88-25-15-19-29-25-58-25-36 0-70 20-70 41 0 10-2 10-117-3zm1606 0c-32-8 149-7 236 2 56 6 41 7-71 6-78-1-152-4-165-8zm-507-89c3-58 8-75 25-89 26-21 188-56 327-71 185-21 497 4 606 47 48 20 60 38 60 96 0 63-9 72-52 53-62-25-198-44-341-46-134-2-137-3-137-24 0-25-29-55-53-55-19 0-47 37-47 62 0 13-8 18-27 18-61 0-225 31-293 54l-72 26 4-71zm-1362 42c-96-26-141-48-147-71-3-11-12-20-19-20-17 0-18 22-2 38 8 8 9 12 1 12-6 0-21-12-33-27l-22-28 29-11c17-7 30-8 34-3 3 5 13 7 21 4 9-4 59 8 112 25l96 31v35c0 19-1 34-2 33-2 0-32-8-68-18zm2552 4c14-8 68-22 120-32 116-21 476-25 522-5 16 7 27 14 25 15-2 2-80 1-174-2-128-5-202-2-300 11-71 9-150 19-175 22-44 6-44 6-18-9z" />
    <path
      d="M2096 1399c-40-31-33-78 14-101 77-38 290-74 290-49 0 6-12 11-27 11-55 0-197 30-239 51-53 25-59 56-16 88 15 11 22 21 16 21s-23-10-38-21zm594-4c-63-7-130-13-148-14l-33-1 3-52 3-53 135 2c181 2 355 20 467 48 130 33 138 40 67 53-72 14-272 32-334 30-25 0-97-7-160-13zm2261-7c123-105 150-118 253-118 86 0 161 24 214 68l33 27-173 2c-153 1-270 11-325 29-16 5-16 4-2-8z" />
    <path
      d="M3280 1343c-130-50-438-93-676-93-58 0-106-4-109-10-14-22 298-7 540 25 106 15 305 71 328 94 18 18-11 12-83-16zm-980-14c-36-10-63-18-60-19s40-7 83-14l77-12v33c0 38-3 39-100 12z" />
    <path
      d="M3316 1311c-24-37-466-101-707-101h-87l-5-32c-2-18-3-35-1-37s97 1 211 7c243 13 405 39 526 82 82 30 87 34 87 61 0 28-13 39-24 20zm-1226-45c0-35 29-62 85-80 60-18 157-36 197-36 27 0 29 3 26 33l-3 32-100 13c-59 8-121 23-152 37l-53 24v-23zm1720-16c0-13 79-41 157-56 146-28 275-29 449-4 116 17 161 27 161 37 0 9-9 12-31 8-206-35-534-31-683 9-29 8-53 11-53 6z" />
    <path
      d="M3260 1213c-125-48-426-93-627-93h-113v-35c0-26-6-39-25-51-48-31-95 3-95 69 0 21-7 24-92 35-50 7-118 23-150 36l-58 24v-74c0-40 5-84 12-98 14-32 74-62 164-82 107-24 428-30 594-11 194 23 421 91 483 145 22 20 24 102 2 102-14 0-20 17-16 48 2 16-3 15-79-15zm685-62c22-23 69-56 105-74 58-29 73-32 145-31 100 2 177 30 237 85l43 40-75-7c-147-13-227-13-348 1-68 8-129 18-135 21-7 4 6-12 28-35z" />
    <path
      d="M3120 965c-152-41-269-56-460-62-132-3-213 0-285 10-55 8-102 13-103 11-9-7 61-33 133-50 112-25 339-23 495 4 137 25 269 65 302 92 28 24 24 24-82-5z" />
    <path
      d="M2960 872c-88-24-111-26-322-26l-227-1 25-26c13-14 21-29 17-33s-1-4 8-1c8 3 42-7 75-22 52-24 71-27 169-27 61-1 128 1 150 3 51 4 100 22 85 31-6 4 12 19 42 35 29 16 61 38 70 49 10 12 17 17 18 12 0-5 7-3 15 4 18 15 11 30-13 29-9-1-60-13-112-27z" />
  </g>
</svg>