<svg xmlns="http://www.w3.org/2000/svg" id="root" viewBox="0 0 100 85">
  <g>
    <path
      d="M 11.75 84.957031 C 11.316406 84.902344 9.847656 84.710938 8.484375 84.546875 C 5.4375 84.191406 3.5625 83.617188 3.046875 82.855469 C 2.71875 82.390625 2.417969 79.65625 2.71875 79.65625 C 2.746094 79.65625 4.59375 79.902344 6.828125 80.203125 C 11.371094 80.804688 13.871094 80.859375 19.367188 80.476562 C 24.699219 80.09375 29.078125 79.4375 31.472656 78.671875 C 32.589844 78.316406 33.675781 78.015625 33.867188 78.015625 C 34.382812 78.015625 34.273438 79.792969 33.675781 81.132812 C 33.1875 82.199219 31.910156 83.179688 31.527344 82.800781 C 31.445312 82.71875 31.5 82.664062 31.636719 82.664062 C 31.800781 82.664062 32.152344 82.472656 32.453125 82.253906 C 32.722656 82.035156 32.261719 82.144531 31.335938 82.5 C 27.992188 83.835938 22.847656 84.628906 15.558594 84.929688 C 13.925781 85.011719 12.210938 85.011719 11.75 84.957031 Z M 11.75 84.957031 "
    />
    <path
      d="M 9.847656 79.957031 C 4.515625 79.519531 1.25 78.726562 0.734375 77.714844 C 0.570312 77.441406 0.460938 76.238281 0.460938 75.035156 C 0.460938 73.34375 0.542969 72.824219 0.839844 72.824219 C 1.03125 72.824219 2.691406 73.125 4.542969 73.507812 C 6.390625 73.890625 8.160156 74.1875 8.511719 74.1875 C 9.058594 74.1875 9.164062 74.324219 9.164062 74.953125 C 9.164062 75.828125 9.898438 76.648438 10.636719 76.648438 C 11.261719 76.648438 12.429688 75.417969 12.429688 74.734375 C 12.429688 74.214844 12.59375 74.1875 16.210938 74.1875 C 18.277344 74.1875 20.753906 74.105469 21.707031 74.027344 C 22.660156 73.917969 23.367188 73.945312 23.257812 74.050781 C 22.957031 74.378906 23.582031 75.335938 23.992188 75.199219 C 24.238281 75.089844 24.292969 75.226562 24.210938 75.582031 C 24.101562 75.992188 24.320312 76.210938 25.324219 76.675781 C 26.113281 77.003906 26.820312 77.167969 27.203125 77.03125 C 28.261719 76.730469 29.570312 75.226562 29.757812 74.132812 C 29.839844 73.5625 29.949219 73.097656 30.003906 73.097656 C 30.03125 73.097656 31.171875 72.796875 32.507812 72.441406 L 34.957031 71.785156 L 35.117188 72.578125 C 35.199219 73.042969 35.445312 73.371094 35.691406 73.371094 C 36.316406 73.371094 36.234375 75.691406 35.582031 76.347656 C 33.378906 78.5625 18.550781 80.640625 9.847656 79.957031 Z M 52.828125 76.894531 C 50.597656 76.59375 48.175781 75.9375 47.332031 75.390625 C 46.84375 75.089844 46.707031 74.734375 46.707031 73.78125 C 46.707031 73.097656 46.789062 72.550781 46.925781 72.550781 C 47.035156 72.550781 48.476562 72.796875 50.109375 73.097656 C 54.515625 73.917969 61.914062 74.105469 66.429688 73.535156 C 68.390625 73.289062 70.292969 73.015625 70.726562 72.933594 C 71.460938 72.769531 71.460938 72.796875 71.460938 74.1875 C 71.460938 75.527344 71.410156 75.609375 70.539062 75.964844 C 67.871094 77.085938 58.324219 77.578125 52.828125 76.894531 Z M 52.828125 76.894531 "
    />
    <path
      d="M 25.105469 75.773438 C 24.371094 74.707031 24.617188 72.632812 25.625 71.648438 C 26.820312 70.445312 29.296875 71.621094 29.296875 73.371094 C 29.296875 74.40625 28.644531 75.71875 27.964844 76.101562 C 27.011719 76.59375 25.570312 76.429688 25.105469 75.773438 Z M 9.765625 75.636719 C 9.492188 75.144531 9.683594 60.25 10.253906 36.882812 C 10.390625 30.429688 10.554688 21.738281 10.554688 17.613281 C 10.582031 13.484375 10.660156 9.742188 10.769531 9.277344 C 11.015625 8.128906 12.050781 7.992188 12.457031 9.058594 C 12.839844 10.042969 12.539062 12.664062 11.996094 13.265625 C 11.613281 13.703125 11.613281 13.8125 12.105469 14.523438 C 12.648438 15.289062 12.648438 15.453125 12.292969 36.582031 C 11.914062 57.460938 11.914062 57.871094 11.34375 58.472656 L 10.796875 59.074219 L 11.34375 59.566406 C 11.832031 60.03125 11.886719 60.386719 11.886719 64.40625 C 11.886719 68.285156 11.832031 68.859375 11.316406 69.871094 C 10.796875 70.882812 10.796875 71.019531 11.179688 71.238281 C 11.503906 71.429688 11.613281 71.949219 11.613281 73.507812 C 11.613281 75.226562 11.53125 75.582031 11.097656 75.828125 C 10.335938 76.210938 10.035156 76.183594 9.765625 75.636719 Z M 4.8125 72.960938 C -0.0820312 72.085938 -0.21875 72.03125 0.160156 71.648438 C 0.324219 71.484375 0.460938 71.019531 0.460938 70.609375 L 0.460938 69.898438 L 2.582031 70.417969 C 3.726562 70.691406 5.683594 70.992188 6.933594 71.101562 L 9.164062 71.265625 L 9.164062 72.441406 C 9.164062 73.234375 9.058594 73.644531 8.839844 73.617188 C 8.648438 73.617188 6.828125 73.316406 4.8125 72.960938 Z M 12.160156 72.578125 L 12.160156 71.511719 L 15.914062 71.347656 C 17.953125 71.265625 20.835938 71.101562 22.304688 71.019531 L 25 70.855469 L 24.425781 71.484375 C 24.128906 71.839844 23.691406 72.386719 23.476562 72.6875 C 23.039062 73.316406 20.644531 73.589844 15.367188 73.617188 L 12.160156 73.644531 Z M 57.042969 73.179688 C 53.589844 73.015625 48.066406 72.277344 46.652344 71.785156 C 45.074219 71.265625 44.882812 70.9375 44.832031 68.613281 L 44.804688 67.300781 L 45.699219 67.464844 C 47.851562 67.957031 51.332031 68.449219 53.507812 68.613281 C 55.847656 68.804688 55.875 68.804688 56.121094 69.652344 C 56.527344 71.101562 58.40625 70.882812 58.40625 69.378906 L 58.40625 68.722656 L 62.457031 68.722656 C 66.429688 68.722656 66.539062 68.722656 66.730469 69.351562 C 67 70.308594 67.652344 70.882812 68.632812 71.074219 C 69.914062 71.320312 70.808594 70.664062 71.246094 69.214844 C 71.597656 67.957031 71.871094 67.628906 72.632812 67.628906 C 73.039062 67.628906 73.09375 67.902344 73.09375 69.570312 C 73.09375 71.484375 73.09375 71.484375 72.199219 71.867188 C 70.210938 72.6875 61.832031 73.425781 57.042969 73.179688 Z M 35.742188 72.441406 C 35.472656 71.757812 35.90625 68.859375 36.316406 68.558594 C 36.886719 68.148438 36.613281 67.246094 35.878906 67.136719 C 35.28125 67.054688 35.28125 66.972656 35.28125 62.957031 L 35.28125 58.882812 L 35.960938 58.554688 C 36.859375 58.144531 36.804688 57.160156 35.90625 57.023438 L 35.28125 56.941406 L 35.28125 41.308594 C 35.28125 23.789062 35.445312 17.859375 35.960938 18.050781 C 36.125 18.132812 36.453125 17.996094 36.640625 17.75 C 36.941406 17.394531 36.914062 17.257812 36.53125 16.847656 C 36.234375 16.492188 36.097656 15.808594 36.097656 14.496094 C 36.097656 12.882812 36.152344 12.664062 36.585938 12.746094 C 37.023438 12.828125 37.050781 14.414062 36.941406 42.621094 C 36.859375 63.914062 36.75 72.46875 36.53125 72.605469 C 36.097656 72.90625 35.90625 72.878906 35.742188 72.441406 Z M 29.433594 71.949219 C 29.269531 71.59375 28.863281 71.183594 28.507812 70.992188 L 27.828125 70.664062 L 28.507812 70.527344 C 30.085938 70.144531 34.546875 69.269531 34.902344 69.269531 C 35.472656 69.269531 35.390625 70.828125 34.792969 71.15625 C 34.410156 71.375 30.167969 72.550781 29.785156 72.550781 C 29.730469 72.550781 29.570312 72.277344 29.433594 71.949219 Z M 84.792969 71.976562 C 81.882812 71.730469 79.625 71.347656 77.527344 70.746094 L 76.085938 70.335938 L 76.085938 67.984375 L 77.746094 68.339844 C 81.800781 69.1875 91.132812 69.597656 95.757812 69.132812 L 97.851562 68.941406 L 97.851562 70.0625 C 97.851562 71.457031 97.605469 71.566406 93.960938 71.976562 C 91.050781 72.304688 88.628906 72.304688 84.792969 71.976562 Z M 84.792969 71.976562 "
    />
    <path
      d="M 11.804688 70.746094 C 11.289062 70.226562 12.320312 70.089844 16.59375 70.089844 C 21.980469 70.089844 30.332031 69.269531 33.378906 68.449219 C 35.664062 67.847656 36.207031 67.792969 35.988281 68.148438 C 35.5 68.941406 26.929688 70.253906 20.726562 70.5 C 18.496094 70.582031 15.585938 70.71875 14.308594 70.773438 C 13.027344 70.855469 11.914062 70.828125 11.804688 70.746094 Z M 5.222656 70.335938 C 2.746094 70.007812 0.625 69.378906 0.1875 68.859375 C -0.109375 68.476562 -0.0820312 68.3125 0.488281 67.765625 C 0.839844 67.4375 1.441406 67.054688 1.820312 66.945312 C 2.390625 66.808594 2.363281 66.863281 1.601562 67.328125 C 0.242188 68.203125 0.542969 68.777344 2.636719 69.296875 C 3.617188 69.542969 5.464844 69.84375 6.800781 69.953125 C 8.105469 70.0625 9.164062 70.253906 9.164062 70.390625 C 9.164062 70.691406 7.832031 70.664062 5.222656 70.335938 Z M 68.46875 69.925781 C 67.652344 68.96875 68.441406 66.535156 69.558594 66.535156 C 70.457031 66.535156 71 67.328125 70.835938 68.503906 C 70.753906 69.078125 70.539062 69.734375 70.375 69.953125 C 69.9375 70.5 68.90625 70.472656 68.46875 69.925781 Z M 56.71875 69.761719 C 56.636719 69.570312 56.554688 57.515625 56.527344 42.949219 C 56.472656 18.953125 56.5 16.492188 56.910156 16.355469 C 57.152344 16.246094 57.398438 16.246094 57.480469 16.328125 C 57.5625 16.410156 57.644531 28.492188 57.671875 43.195312 C 57.726562 67.683594 57.699219 69.953125 57.289062 70.035156 C 57.042969 70.089844 56.773438 69.953125 56.71875 69.761719 Z M 56.71875 69.761719 "
    />
    <path
      d="M 12.160156 69.351562 C 12.160156 69.1875 12.429688 68.96875 12.785156 68.886719 C 13.789062 68.585938 25.027344 68.367188 26.46875 68.613281 L 27.800781 68.832031 L 25.488281 69.023438 C 20.457031 69.433594 12.160156 69.625 12.160156 69.351562 Z M 67.4375 68.722656 C 67.4375 68.203125 67.492188 67.984375 67.574219 68.257812 C 67.628906 68.503906 67.628906 68.941406 67.574219 69.214844 C 67.492188 69.460938 67.4375 69.242188 67.4375 68.722656 Z M 4.1875 68.996094 C 2.773438 68.722656 2.71875 68.558594 3.753906 67.929688 C 4.59375 67.410156 5.519531 67.136719 8.160156 66.671875 L 9.164062 66.480469 L 9.164062 67.546875 C 9.164062 68.613281 9.164062 68.640625 7.777344 68.941406 C 6.28125 69.296875 5.738281 69.296875 4.1875 68.996094 Z M 83.703125 68.53125 C 81.746094 68.394531 76.847656 67.65625 75.761719 67.328125 C 74.726562 67.054688 74.726562 67.054688 74.726562 65.578125 C 74.726562 63.777344 74.074219 63.859375 81.5 64.707031 C 86.34375 65.277344 86.804688 65.359375 86.996094 65.90625 C 87.105469 66.207031 87.324219 66.5625 87.484375 66.671875 C 88.003906 66.972656 88.875 66.535156 89.035156 65.824219 C 89.199219 65.171875 89.253906 65.171875 92.300781 65.171875 C 94.886719 65.171875 95.402344 65.25 95.402344 65.578125 C 95.402344 66.945312 97.988281 67.628906 98.804688 66.480469 C 99.238281 65.851562 99.238281 65.878906 99.15625 66.945312 L 99.074219 68.039062 L 96.625 68.367188 C 94.367188 68.640625 86.617188 68.75 83.703125 68.53125 Z M 29.160156 68.09375 C 26.957031 67.765625 16.972656 67.683594 14.28125 67.984375 L 12.429688 68.203125 L 12.429688 66.316406 L 14.6875 66.152344 C 21.707031 65.632812 23.992188 65.660156 28.886719 66.261719 C 31.582031 66.589844 33.949219 67 34.167969 67.164062 C 34.492188 67.4375 34.546875 67.410156 34.382812 67 C 34.273438 66.699219 34.300781 66.5625 34.464844 66.671875 C 35.363281 67.21875 34.355469 67.765625 31.472656 68.285156 C 31.253906 68.339844 30.222656 68.230469 29.160156 68.09375 Z M 53.234375 67.984375 C 51.277344 67.847656 46.488281 67.082031 45.59375 66.753906 C 44.964844 66.535156 44.804688 66.316406 44.804688 65.714844 L 44.804688 64.980469 L 46.789062 65.441406 C 47.878906 65.714844 50.378906 66.015625 52.367188 66.125 L 55.957031 66.316406 L 55.957031 67.246094 C 55.957031 68.257812 56.175781 68.203125 53.234375 67.984375 Z M 58.40625 67.355469 L 58.40625 66.535156 L 60.527344 66.535156 C 61.722656 66.535156 63.792969 66.453125 65.179688 66.34375 L 67.679688 66.179688 L 67.191406 67 C 66.785156 67.765625 66.566406 67.847656 64.960938 68.011719 C 63.953125 68.09375 62.105469 68.175781 60.800781 68.175781 L 58.40625 68.175781 Z M 73.640625 66.863281 C 73.640625 66.097656 73.773438 65.171875 73.9375 64.789062 C 74.347656 63.886719 74.074219 63.066406 73.503906 63.53125 C 73.148438 63.832031 73.09375 63.421875 73.09375 60.304688 C 73.09375 56.996094 73.148438 56.695312 73.640625 56.425781 C 74.183594 56.152344 74.183594 56.234375 74.238281 59.894531 C 74.265625 61.972656 74.238281 64.597656 74.210938 65.714844 C 74.128906 68.066406 73.640625 69.050781 73.640625 66.863281 Z M 70.835938 66.644531 C 70.539062 66.261719 70.375 65.90625 70.429688 65.851562 C 70.457031 65.796875 71.082031 65.6875 71.816406 65.578125 C 73.066406 65.386719 73.09375 65.386719 73.09375 66.097656 C 73.09375 66.617188 72.90625 66.890625 72.386719 67.082031 C 71.460938 67.4375 71.410156 67.4375 70.835938 66.644531 Z M 4.132812 66.425781 C 4.105469 66.261719 3.941406 65.6875 3.78125 65.171875 L 3.507812 64.214844 L 3.480469 65.386719 C 3.453125 66.507812 3.425781 66.535156 2.71875 66.371094 C 2.285156 66.261719 1.957031 66.179688 1.957031 66.152344 C 1.957031 66.125 1.984375 64.625 2.039062 62.765625 L 2.121094 59.402344 L 2.855469 59.484375 C 3.5625 59.566406 3.589844 59.621094 3.726562 61.890625 C 3.832031 63.777344 3.886719 64.023438 4.078125 63.285156 C 4.1875 62.792969 4.269531 61.699219 4.269531 60.878906 C 4.269531 59.621094 4.351562 59.402344 4.703125 59.539062 C 4.949219 59.621094 6.117188 59.703125 7.316406 59.703125 L 9.519531 59.703125 L 9.382812 62.574219 C 9.300781 64.160156 9.136719 65.578125 9.003906 65.714844 C 8.566406 66.125 4.242188 66.78125 4.132812 66.425781 Z M 4.132812 66.425781 "
    />
    <path
      d="M 97.226562 66.34375 C 96.871094 66.015625 97.035156 64.1875 97.441406 63.640625 C 97.851562 63.121094 97.851562 63.121094 98.421875 63.777344 C 98.804688 64.269531 98.910156 64.652344 98.804688 65.144531 C 98.503906 66.316406 97.742188 66.890625 97.226562 66.34375 Z M 87.675781 65.933594 C 87.539062 65.523438 87.324219 54.648438 87.050781 34.914062 C 86.886719 22.476562 86.914062 21.4375 87.324219 21.4375 C 87.703125 21.4375 87.785156 21.710938 87.785156 22.75 C 87.785156 23.460938 87.921875 30.183594 88.058594 37.703125 C 88.492188 62.109375 88.492188 66.070312 88.140625 66.179688 C 87.949219 66.261719 87.730469 66.152344 87.675781 65.933594 Z M 58.40625 65.714844 C 58.40625 65.550781 59.792969 65.441406 62.023438 65.441406 C 66.347656 65.414062 70.429688 65.0625 72.359375 64.488281 C 73.558594 64.160156 73.695312 64.160156 73.257812 64.488281 C 72.496094 65.089844 70.292969 65.46875 66.292969 65.714844 C 61.261719 66.042969 58.40625 66.042969 58.40625 65.714844 Z M 96.273438 65.171875 C 96.273438 64.652344 96.328125 64.433594 96.410156 64.707031 C 96.464844 64.953125 96.464844 65.386719 96.410156 65.660156 C 96.328125 65.90625 96.273438 65.6875 96.273438 65.171875 Z M 14.0625 65.144531 C 13.816406 64.734375 13.84375 64.296875 14.171875 63.339844 C 14.417969 62.628906 14.605469 61.589844 14.605469 61.015625 C 14.605469 60.195312 14.714844 59.976562 15.097656 59.976562 C 15.53125 59.976562 15.585938 60.277344 15.585938 62.847656 C 15.613281 65.660156 15.585938 65.714844 14.988281 65.714844 C 14.632812 65.714844 14.226562 65.46875 14.0625 65.144531 Z M 32.644531 65.523438 C 32.886719 65.46875 33.324219 65.46875 33.59375 65.523438 C 33.839844 65.605469 33.621094 65.660156 33.105469 65.660156 C 32.589844 65.660156 32.371094 65.605469 32.644531 65.523438 Z M 50.789062 65.523438 C 47.277344 65.277344 44.53125 64.488281 44.53125 63.722656 C 44.53125 63.503906 44.613281 63.476562 44.75 63.695312 C 45.15625 64.324219 46.21875 64.625 48.800781 64.898438 C 50.269531 65.0625 52.445312 65.277344 53.644531 65.414062 L 55.820312 65.632812 L 53.917969 65.632812 C 52.882812 65.632812 51.46875 65.578125 50.789062 65.523438 Z M 12.429688 62.574219 L 12.429688 59.703125 L 13.246094 59.703125 C 14.035156 59.703125 14.0625 59.730469 14.0625 61.042969 C 14.0625 61.78125 13.925781 62.738281 13.761719 63.175781 C 13.574219 63.585938 13.464844 64.269531 13.492188 64.707031 C 13.519531 65.277344 13.410156 65.441406 12.972656 65.441406 C 12.457031 65.441406 12.429688 65.277344 12.429688 62.574219 Z M 16.101562 63.09375 C 15.96875 61.617188 15.992188 60.523438 16.15625 60.277344 C 16.375 59.949219 17 59.8125 18.796875 59.757812 C 21.351562 59.675781 21.433594 59.730469 20.835938 61.234375 C 20.457031 62.273438 20.726562 63.203125 21.542969 63.585938 C 21.925781 63.75 22.386719 64.160156 22.605469 64.488281 L 23.011719 65.117188 L 20.101562 65.144531 C 18.523438 65.144531 17 65.226562 16.753906 65.304688 C 16.347656 65.441406 16.265625 65.144531 16.101562 63.09375 Z M 26.359375 65.117188 C 25.707031 64.871094 27.691406 64.898438 29.570312 65.171875 C 31.039062 65.386719 31.011719 65.386719 28.941406 65.359375 C 27.800781 65.332031 26.628906 65.226562 26.359375 65.117188 Z M 26.359375 65.117188 "
    />
    <path
      d="M 22.550781 63.804688 C 21.761719 63.039062 21.164062 62.328125 21.246094 62.21875 C 21.296875 62.109375 21.488281 61.507812 21.652344 60.878906 C 21.898438 60.03125 22.113281 59.703125 22.46875 59.703125 C 22.902344 59.703125 22.957031 59.867188 22.847656 60.878906 C 22.714844 61.917969 22.820312 62.164062 23.691406 63.230469 C 24.699219 64.433594 24.945312 65.171875 24.34375 65.171875 C 24.15625 65.171875 23.339844 64.542969 22.550781 63.804688 Z M 49.238281 64.488281 C 48.011719 64.324219 46.925781 64.132812 46.84375 64.023438 C 46.515625 63.695312 48.558594 63.230469 51.359375 62.984375 C 56.011719 62.574219 55.957031 62.546875 55.957031 63.640625 L 55.957031 64.597656 L 53.945312 64.570312 C 52.828125 64.570312 51.820312 64.625 51.6875 64.679688 C 51.578125 64.761719 50.460938 64.679688 49.238281 64.488281 Z M 62.023438 64.679688 L 58.40625 64.597656 L 58.40625 62.628906 L 62.1875 62.820312 C 66.105469 62.984375 69.964844 63.53125 70.808594 64.023438 C 71.21875 64.242188 71.082031 64.324219 70.101562 64.460938 C 68.171875 64.707031 65.886719 64.761719 62.023438 64.679688 Z M 25.105469 64.1875 C 25.027344 63.96875 24.945312 62.765625 24.945312 61.5625 C 24.945312 59.648438 25 59.402344 25.433594 59.484375 C 25.816406 59.566406 25.894531 59.921875 25.976562 61.78125 C 26.03125 63.421875 25.949219 64.078125 25.679688 64.324219 C 25.351562 64.570312 25.242188 64.542969 25.105469 64.1875 Z M 79.378906 64.050781 C 74.808594 63.476562 74.726562 63.449219 74.726562 62.710938 C 74.726562 62.054688 74.945312 62.027344 77.992188 62.546875 C 79.269531 62.765625 81.773438 62.984375 83.570312 63.039062 L 86.832031 63.121094 L 86.914062 63.886719 L 86.996094 64.625 L 85.144531 64.597656 C 84.140625 64.570312 81.527344 64.351562 79.378906 64.050781 Z M 89.144531 63.996094 L 89.144531 63.285156 L 92.546875 63.203125 C 95.945312 63.121094 96.246094 63.203125 95.675781 64.078125 C 95.484375 64.378906 94.695312 64.515625 92.273438 64.570312 L 89.144531 64.679688 Z M 98.613281 63.203125 C 98.148438 62.738281 98.148438 62.710938 98.804688 62.710938 C 99.210938 62.710938 99.484375 62.875 99.484375 63.09375 C 99.484375 63.722656 99.128906 63.777344 98.613281 63.203125 Z M 98.613281 63.203125 "
    />
    <path
      d="M 23.855469 62.710938 C 23.476562 61.972656 23.609375 59.921875 24.074219 59.757812 C 24.320312 59.675781 24.398438 60.140625 24.398438 61.453125 C 24.398438 62.4375 24.34375 63.257812 24.265625 63.257812 C 24.210938 63.257812 24.019531 63.011719 23.855469 62.710938 Z M 44.257812 59.675781 C 44.257812 56.695312 44.3125 56.398438 44.75 56.476562 C 45.15625 56.558594 45.210938 56.96875 45.292969 59.785156 C 45.375 62.847656 45.347656 62.984375 44.804688 62.984375 C 44.285156 62.984375 44.257812 62.820312 44.257812 59.675781 Z M 45.890625 59.839844 L 45.890625 56.640625 L 47.0625 56.777344 C 47.6875 56.886719 49.78125 57.023438 51.710938 57.132812 L 55.222656 57.324219 L 55.03125 59.210938 C 54.921875 60.304688 54.976562 61.316406 55.140625 61.617188 C 55.386719 62.082031 55.25 62.136719 53.425781 62.273438 C 52.367188 62.355469 50.734375 62.492188 49.835938 62.546875 C 48.9375 62.628906 47.6875 62.765625 47.0625 62.875 L 45.890625 63.066406 Z M 67.464844 62.519531 C 67.707031 62.464844 68.144531 62.464844 68.414062 62.519531 C 68.660156 62.601562 68.441406 62.65625 67.925781 62.65625 C 67.410156 62.65625 67.191406 62.601562 67.464844 62.519531 Z M 84.738281 62.519531 C 85.226562 62.464844 85.960938 62.464844 86.371094 62.519531 C 86.777344 62.574219 86.371094 62.628906 85.472656 62.628906 C 84.574219 62.628906 84.25 62.574219 84.738281 62.519531 Z M 90.722656 62.519531 C 91.648438 62.464844 93.171875 62.464844 94.125 62.519531 C 95.046875 62.574219 94.285156 62.601562 92.410156 62.601562 C 90.53125 62.601562 89.769531 62.574219 90.722656 62.519531 Z M 64.199219 62.246094 C 64.605469 62.191406 65.261719 62.191406 65.695312 62.246094 C 66.105469 62.300781 65.75 62.355469 64.933594 62.355469 C 64.117188 62.355469 63.765625 62.300781 64.199219 62.246094 Z M 80.628906 62.246094 C 81.121094 62.191406 81.992188 62.191406 82.535156 62.246094 C 83.105469 62.300781 82.726562 62.355469 81.664062 62.355469 C 80.628906 62.355469 80.167969 62.300781 80.628906 62.246094 Z M 97.386719 62.246094 C 97.632812 62.191406 98.066406 62.191406 98.339844 62.246094 C 98.585938 62.328125 98.367188 62.382812 97.851562 62.382812 C 97.332031 62.382812 97.117188 62.328125 97.386719 62.246094 Z M 58.40625 59.703125 C 58.40625 57.488281 58.460938 57.242188 58.921875 57.242188 C 59.382812 57.242188 59.4375 57.488281 59.4375 59.703125 C 59.4375 61.917969 59.382812 62.164062 58.921875 62.164062 C 58.460938 62.164062 58.40625 61.917969 58.40625 59.703125 Z M 60.335938 61.5625 C 60.308594 61.125 60.445312 60.796875 60.582031 60.796875 C 60.90625 60.796875 60.90625 61.015625 60.582031 61.753906 C 60.363281 62.246094 60.335938 62.21875 60.335938 61.5625 Z M 78.210938 61.972656 C 78.535156 61.917969 79.027344 61.917969 79.296875 61.972656 C 79.542969 62.054688 79.269531 62.109375 78.671875 62.082031 C 78.074219 62.082031 77.855469 62.027344 78.210938 61.972656 Z M 81.472656 61.644531 C 79 61.398438 76.875 61.125 76.792969 61.042969 C 76.550781 60.796875 80.332031 60.523438 83.894531 60.523438 L 86.96875 60.523438 L 86.96875 61.34375 C 86.96875 61.945312 86.859375 62.164062 86.507812 62.136719 C 86.234375 62.109375 83.976562 61.890625 81.472656 61.644531 Z M 89.144531 61.316406 C 89.144531 60.742188 89.199219 60.714844 91.730469 60.90625 C 97.90625 61.34375 98.585938 61.890625 92.953125 61.890625 C 89.226562 61.890625 89.144531 61.863281 89.144531 61.316406 Z M 55.519531 61.261719 C 55.441406 61.042969 55.492188 60.113281 55.628906 59.128906 L 55.902344 57.378906 L 55.929688 59.511719 C 55.957031 61.507812 55.847656 62.054688 55.519531 61.261719 Z M 61.585938 60.933594 C 61.179688 60.550781 60.636719 60.25 60.417969 60.25 C 60.199219 60.25 60.039062 60.003906 60.039062 59.703125 C 60.039062 58.773438 60.800781 57.242188 61.261719 57.242188 C 61.613281 57.242188 61.667969 57.433594 61.535156 58.445312 C 61.371094 59.511719 61.425781 59.730469 62.214844 60.632812 C 63.191406 61.753906 62.757812 61.972656 61.585938 60.933594 Z M 98.9375 58.335938 C 98.9375 55.851562 99.019531 55.332031 99.347656 55.332031 C 99.644531 55.332031 99.753906 55.6875 99.753906 56.804688 C 99.753906 57.597656 99.835938 58.828125 99.917969 59.511719 C 100.082031 60.578125 100.027344 60.769531 99.511719 61.042969 C 98.9375 61.371094 98.9375 61.34375 98.9375 58.335938 Z M 75 57.816406 L 75 55.003906 L 76.714844 55.167969 C 77.636719 55.25 79.597656 55.386719 81.066406 55.496094 C 82.507812 55.578125 83.703125 55.769531 83.703125 55.90625 C 83.703125 56.042969 83.570312 56.695312 83.378906 57.378906 C 83.078125 58.5 83.105469 58.636719 83.648438 59.238281 L 84.277344 59.894531 L 80.65625 60.058594 C 78.671875 60.167969 76.578125 60.332031 76.03125 60.414062 L 75 60.605469 Z M 75 57.816406 "
    />
    <path
      d="M 84.464844 59.183594 C 83.621094 58.417969 83.597656 58.335938 83.921875 57.460938 C 84.085938 56.941406 84.25 56.316406 84.25 56.070312 C 84.25 55.824219 84.382812 55.605469 84.546875 55.605469 C 84.738281 55.605469 84.765625 55.988281 84.65625 56.722656 C 84.492188 57.625 84.574219 58.007812 85.171875 58.910156 C 86.015625 60.167969 85.691406 60.304688 84.464844 59.183594 Z M 12.105469 59.292969 C 11.613281 58.773438 12.402344 58.609375 15.230469 58.609375 C 16.917969 58.609375 20.429688 58.472656 23.039062 58.335938 C 25.652344 58.199219 29.570312 58.035156 31.746094 57.953125 C 35.5 57.789062 35.636719 57.816406 34.355469 58.199219 C 33.59375 58.390625 31.226562 58.691406 29.050781 58.855469 C 23.421875 59.238281 12.320312 59.539062 12.105469 59.292969 Z M 2.910156 58.882812 C 0.894531 58.636719 0.1875 58.363281 0.1875 57.925781 C 0.1875 57.707031 0.515625 57.460938 0.949219 57.351562 C 1.359375 57.269531 1.902344 57.132812 2.175781 57.050781 C 2.417969 56.996094 2.636719 57.050781 2.636719 57.214844 C 2.636719 57.378906 2.175781 57.515625 1.628906 57.515625 C 0.976562 57.515625 0.707031 57.597656 0.894531 57.789062 C 1.03125 57.925781 3.019531 58.199219 5.304688 58.390625 C 7.589844 58.554688 9.4375 58.800781 9.4375 58.9375 C 9.4375 59.210938 5.03125 59.15625 2.910156 58.882812 Z M 85.609375 58.691406 C 85.582031 58.554688 85.527344 57.898438 85.472656 57.1875 C 85.417969 56.476562 85.472656 55.824219 85.609375 55.742188 C 85.773438 55.632812 85.882812 56.234375 85.882812 57.214844 C 85.882812 58.144531 85.828125 58.882812 85.746094 58.882812 C 85.664062 58.882812 85.609375 58.800781 85.609375 58.691406 Z M 85.609375 58.691406 "
    />
    <path
      d="M 5.382812 57.871094 L 4.1875 57.761719 L 4.378906 51.695312 C 4.460938 48.359375 4.621094 39.859375 4.703125 32.78125 C 4.8125 25.730469 4.921875 19.882812 4.976562 19.828125 C 5.085938 19.71875 7.152344 20.128906 9.03125 20.648438 L 10.0625 20.949219 L 9.898438 27.015625 C 9.792969 30.839844 9.601562 33.410156 9.382812 33.902344 C 9.21875 34.339844 8.976562 36.117188 8.867188 37.839844 C 8.785156 39.558594 8.59375 41.417969 8.484375 41.964844 C 8.324219 42.785156 8.402344 43.085938 8.867188 43.550781 C 9.410156 44.097656 9.4375 44.371094 9.4375 51.09375 L 9.4375 58.0625 L 8.023438 58.007812 C 7.234375 57.980469 6.039062 57.925781 5.382812 57.871094 Z M 12.59375 45.984375 C 12.675781 39.3125 12.785156 33.628906 12.867188 33.328125 C 12.921875 33.027344 13.21875 32.480469 13.546875 32.125 C 14.199219 31.332031 14.308594 31.441406 15.125 33.628906 L 15.667969 35.023438 L 14.824219 40.1875 C 14.144531 44.5625 14.035156 45.820312 14.171875 48.386719 C 14.308594 50.710938 14.226562 51.75 13.898438 52.871094 C 13.601562 53.9375 13.519531 54.839844 13.65625 56.207031 C 13.84375 58.0625 13.84375 58.0625 13.164062 58.0625 L 12.457031 58.0625 Z M 12.59375 45.984375 "
    />
    <path
      d="M 14.199219 56.261719 C 14.0625 55.058594 14.117188 54.074219 14.335938 53.308594 C 14.550781 52.597656 14.714844 50.355469 14.742188 47.132812 C 14.769531 42.703125 14.878906 41.691406 15.503906 38.847656 C 16.15625 36.089844 16.210938 35.488281 15.941406 34.476562 C 15.613281 33.246094 14.417969 30.730469 14.171875 30.730469 C 14.089844 30.730469 13.789062 31.003906 13.492188 31.359375 C 13 31.960938 13 31.960938 12.972656 29.859375 C 12.972656 27.945312 13.027344 27.726562 13.65625 27.234375 C 14.007812 26.933594 14.796875 26.632812 15.394531 26.523438 C 17.191406 26.25 19.066406 24.117188 18.414062 23.078125 C 18.199219 22.722656 18.414062 21.628906 18.933594 20.648438 C 19.175781 20.238281 19.503906 20.074219 20.183594 20.074219 C 21.980469 20.074219 22.523438 22.257812 21.273438 24.691406 L 20.617188 26.003906 L 21.21875 26.578125 C 21.542969 26.878906 22.222656 27.207031 22.714844 27.316406 C 23.203125 27.425781 23.71875 27.726562 23.855469 28 C 24.453125 29.121094 26.792969 36.171875 27.09375 37.8125 C 27.285156 38.769531 27.71875 40.242188 28.101562 41.0625 C 28.78125 42.59375 28.96875 43.742188 28.480469 43.441406 C 28.34375 43.359375 28.289062 43.113281 28.371094 42.894531 C 28.480469 42.675781 28.34375 42.429688 28.128906 42.320312 C 27.910156 42.238281 27.636719 41.773438 27.554688 41.28125 C 27.339844 40.078125 23.71875 32.015625 23.367188 31.878906 C 22.714844 31.660156 22.359375 33.082031 22.359375 36.0625 C 22.359375 38.550781 22.496094 39.476562 23.121094 41.527344 C 23.53125 42.894531 23.992188 45.109375 24.15625 46.449219 C 24.320312 47.8125 24.5625 49.644531 24.726562 50.546875 C 25.082031 52.734375 25.054688 53.226562 24.292969 55.769531 C 23.71875 57.707031 23.582031 57.925781 22.929688 58.007812 L 22.222656 58.089844 L 22.386719 56.503906 C 22.46875 55.632812 22.742188 54.347656 22.957031 53.664062 C 23.367188 52.460938 23.367188 52.378906 22.6875 50.792969 C 22.304688 49.917969 21.488281 47.839844 20.863281 46.175781 C 19.773438 43.195312 18.851562 41.691406 18.578125 42.511719 C 18.523438 42.730469 18.089844 44.863281 17.625 47.269531 C 17.164062 49.671875 16.675781 52.132812 16.511719 52.734375 C 16.375 53.335938 16.15625 54.785156 16.074219 55.960938 C 15.914062 58.0625 15.914062 58.0625 15.152344 58.0625 C 14.390625 58.0625 14.363281 58.007812 14.199219 56.261719 Z M 14.199219 56.261719 "
    />
    <path
      d="M 16.648438 55.824219 C 16.753906 54.566406 16.945312 53.117188 17.082031 52.597656 C 17.355469 51.421875 18.960938 43.6875 18.960938 43.386719 C 18.988281 42.894531 19.613281 44.316406 20.589844 47.078125 C 21.164062 48.6875 21.871094 50.546875 22.167969 51.203125 C 22.714844 52.378906 22.714844 52.40625 22.195312 53.910156 C 21.925781 54.730469 21.679688 56.015625 21.679688 56.75 L 21.679688 58.0625 L 16.484375 58.0625 Z M 3.179688 57.242188 C 3.179688 56.859375 2.992188 56.695312 2.582031 56.695312 L 2.011719 56.695312 L 2.175781 49.398438 C 2.285156 45.355469 2.417969 38.03125 2.5 33.054688 C 2.582031 28.109375 2.71875 23.050781 2.800781 21.847656 C 2.9375 19.828125 2.992188 19.636719 3.644531 19.335938 L 4.351562 18.980469 L 4.1875 28.082031 C 4.078125 33.054688 3.914062 41.800781 3.808594 47.488281 C 3.726562 53.144531 3.535156 57.789062 3.398438 57.789062 C 3.289062 57.789062 3.179688 57.542969 3.179688 57.242188 Z M 24.945312 57.269531 C 24.945312 56.96875 25.132812 55.796875 25.351562 54.621094 C 25.625 53.171875 25.679688 52.1875 25.515625 51.53125 C 25.105469 49.890625 24.917969 44.917969 25.105469 40.953125 C 25.296875 37.484375 25.324219 37.265625 25.707031 37.976562 C 26.003906 38.605469 26.085938 40.269531 26.058594 47.050781 C 26.03125 52.761719 25.894531 55.550781 25.707031 55.878906 C 25.460938 56.261719 25.460938 56.558594 25.707031 57.078125 C 25.976562 57.707031 25.949219 57.789062 25.488281 57.789062 C 25.132812 57.789062 24.945312 57.597656 24.945312 57.269531 Z M 33.648438 56.804688 C 33.433594 56.777344 31.664062 56.640625 29.703125 56.53125 C 27.582031 56.425781 26.496094 56.261719 26.984375 56.152344 C 28.074219 55.933594 34.738281 56.425781 34.738281 56.722656 C 34.738281 56.96875 34.4375 56.996094 33.648438 56.804688 Z M 47.660156 56.398438 C 44.75 56.015625 43.933594 55.578125 46.433594 55.742188 C 50.40625 55.988281 55.820312 56.476562 55.929688 56.585938 C 56.148438 56.777344 49.589844 56.640625 47.660156 56.398438 Z M 64.253906 56.425781 C 67.546875 56.316406 70.972656 56.125 71.871094 56.042969 C 73.175781 55.933594 73.367188 55.960938 72.824219 56.207031 C 72.414062 56.371094 69.285156 56.53125 65.207031 56.558594 L 58.269531 56.640625 Z M 50.242188 55.605469 C 48.53125 55.496094 46.84375 55.386719 46.515625 55.359375 L 45.890625 55.332031 L 45.890625 24.664062 L 46.515625 24.855469 C 48.011719 25.320312 50.871094 25.8125 53.183594 25.976562 L 55.683594 26.167969 L 55.683594 27.890625 C 55.683594 29.613281 55.683594 29.640625 54.757812 30.019531 C 54.078125 30.292969 53.753906 30.675781 53.507812 31.46875 C 53.316406 32.042969 52.664062 33.492188 52.09375 34.667969 L 51.003906 36.828125 L 51.195312 40.269531 C 51.332031 42.757812 51.496094 43.851562 51.820312 44.207031 C 52.421875 44.890625 52.964844 44.78125 52.964844 43.988281 C 52.964844 43.496094 53.074219 43.359375 53.371094 43.46875 C 53.890625 43.6875 53.890625 43.359375 53.34375 41.746094 C 52.964844 40.652344 52.964844 40.160156 53.207031 38.605469 C 53.507812 36.800781 54.242188 34.832031 54.597656 34.832031 C 54.707031 34.832031 55.003906 35.378906 55.277344 36.0625 C 55.765625 37.402344 55.738281 38.277344 55.140625 41.554688 C 54.8125 43.277344 54.8125 43.988281 55.277344 47.324219 C 55.65625 50.355469 55.710938 51.339844 55.46875 52.050781 C 55.277344 52.542969 55.140625 53.609375 55.140625 54.402344 L 55.140625 55.878906 L 54.269531 55.824219 C 53.78125 55.796875 51.957031 55.6875 50.242188 55.605469 Z M 55.765625 54.238281 C 55.765625 53.253906 55.820312 52.871094 55.875 53.363281 C 55.929688 53.828125 55.929688 54.648438 55.875 55.140625 C 55.820312 55.605469 55.765625 55.222656 55.765625 54.238281 Z M 58.488281 51.585938 C 58.675781 46.832031 58.894531 45.21875 59.25 45.820312 C 59.382812 46.011719 59.492188 48.359375 59.492188 51.039062 C 59.492188 55.824219 59.492188 55.878906 58.894531 55.878906 C 58.324219 55.878906 58.324219 55.851562 58.488281 51.585938 Z M 60.335938 52.40625 C 60.335938 50.4375 60.226562 48.578125 60.144531 48.304688 C 60.011719 47.839844 60.011719 47.839844 60.335938 48.332031 C 60.800781 49.070312 60.933594 51.859375 60.636719 54.101562 C 60.390625 55.960938 60.363281 55.90625 60.335938 52.40625 Z M 60.335938 52.40625 "
    />
    <path
      d="M 61.125 55.113281 C 61.125 54.675781 61.34375 53.636719 61.640625 52.816406 C 62.214844 51.148438 62.214844 51.175781 60.582031 47.40625 C 59.65625 45.246094 59.03125 44.316406 58.648438 44.5625 C 58.378906 44.726562 58.296875 26.386719 58.566406 25.703125 C 58.675781 25.402344 59.085938 25.265625 59.792969 25.265625 C 60.664062 25.265625 60.933594 25.402344 61.152344 25.894531 C 61.5625 26.796875 61.015625 28.710938 60.117188 29.53125 C 59.355469 30.238281 59.492188 30.730469 60.417969 30.730469 C 60.773438 30.730469 61.179688 30.894531 61.34375 31.085938 C 61.585938 31.386719 62.457031 34.53125 63.546875 38.957031 C 63.820312 40.078125 64.363281 41.582031 64.769531 42.265625 C 65.152344 42.921875 65.476562 43.660156 65.476562 43.878906 C 65.476562 44.726562 64.632812 43.304688 63.191406 39.914062 C 62.375 37.976562 61.640625 36.335938 61.5625 36.28125 C 61.480469 36.199219 61.289062 36.226562 61.097656 36.335938 C 60.582031 36.691406 60.988281 40.40625 61.886719 43.332031 C 62.347656 44.78125 62.894531 47.324219 63.136719 48.988281 C 63.546875 51.996094 63.546875 52.023438 62.894531 53.882812 C 62.402344 55.304688 62.132812 55.769531 61.695312 55.824219 C 61.234375 55.90625 61.125 55.769531 61.125 55.113281 Z M 70.917969 55.332031 C 70.621094 55.140625 70.726562 55.058594 71.410156 55.058594 C 71.871094 55.058594 72.277344 55.195312 72.277344 55.332031 C 72.277344 55.6875 71.460938 55.6875 70.917969 55.332031 Z M 72.824219 44.726562 C 72.824219 38.902344 72.742188 31.714844 72.632812 28.765625 C 72.496094 24.007812 72.523438 23.351562 72.878906 23.351562 C 73.121094 23.351562 73.421875 23.515625 73.585938 23.707031 C 73.746094 23.898438 73.9375 29.804688 74.046875 39.613281 L 74.238281 55.195312 L 73.558594 55.277344 L 72.851562 55.332031 Z M 44.257812 39.613281 C 44.257812 24.226562 44.257812 24.144531 44.804688 24.445312 C 45.347656 24.746094 45.347656 25.019531 45.347656 39.886719 C 45.347656 54.867188 45.347656 55.058594 44.804688 55.058594 C 44.257812 55.058594 44.257812 54.867188 44.257812 39.613281 Z M 66.375 54.867188 C 66.785156 54.8125 67.382812 54.8125 67.734375 54.867188 C 68.0625 54.921875 67.734375 54.976562 66.972656 54.976562 C 66.238281 54.976562 65.941406 54.921875 66.375 54.867188 Z M 82.5625 54.867188 C 83.1875 54.8125 84.167969 54.8125 84.738281 54.867188 C 85.28125 54.921875 84.765625 54.976562 83.570312 54.976562 C 82.371094 54.976562 81.910156 54.921875 82.5625 54.867188 Z M 92.355469 54.867188 C 93.605469 54.8125 95.566406 54.8125 96.707031 54.867188 C 97.851562 54.894531 96.84375 54.949219 94.449219 54.949219 C 92.054688 54.949219 91.105469 54.894531 92.355469 54.867188 Z M 88.902344 49.617188 C 88.875 46.941406 88.820312 44.507812 88.710938 44.234375 C 88.574219 43.769531 88.601562 43.769531 88.847656 44.179688 C 89.007812 44.425781 89.390625 46.066406 89.6875 47.867188 L 90.234375 51.09375 L 89.664062 52.816406 C 89.363281 53.746094 89.0625 54.511719 89.007812 54.511719 C 88.953125 54.511719 88.902344 52.296875 88.902344 49.617188 Z M 76.007812 54.046875 C 75.570312 53.964844 75.191406 53.773438 75.136719 53.609375 C 74.945312 53.007812 74.699219 29.722656 74.863281 29.039062 C 75.027344 28.382812 75.109375 28.355469 76.167969 28.574219 C 76.792969 28.683594 78.863281 28.792969 80.792969 28.820312 L 84.25 28.820312 L 84.25 30.019531 C 84.25 30.675781 84.304688 31.414062 84.382812 31.605469 C 84.492188 31.878906 84.140625 32.179688 83.378906 32.535156 C 82.261719 33.027344 82.152344 33.191406 81.066406 35.925781 C 80.003906 38.605469 79.949219 38.875 80.222656 40.023438 C 80.386719 40.707031 80.574219 41.964844 80.683594 42.867188 C 80.820312 44.097656 80.984375 44.5625 81.445312 44.863281 C 82.019531 45.246094 82.074219 45.246094 82.371094 44.507812 C 82.617188 43.796875 82.699219 43.769531 82.914062 44.207031 C 83.378906 45 83.730469 44.753906 83.542969 43.742188 C 83.460938 43.167969 83.542969 42.210938 83.8125 41.308594 C 84.382812 39.367188 84.359375 38.714844 83.757812 37.566406 C 83.078125 36.308594 82.726562 36.253906 82.074219 37.347656 C 81.472656 38.332031 81.285156 41.527344 81.800781 42.457031 C 81.9375 42.757812 81.964844 43.277344 81.800781 43.742188 C 81.554688 44.589844 81.527344 44.589844 81.417969 43.714844 C 81.390625 43.414062 81.175781 42.15625 80.984375 40.898438 L 80.601562 38.632812 L 81.691406 35.980469 C 82.617188 33.683594 82.886719 33.273438 83.675781 32.863281 C 85.039062 32.179688 85.417969 31.714844 85.90625 30.101562 C 86.316406 28.710938 86.34375 28.875 86.507812 37.019531 C 86.644531 45.136719 86.644531 45.464844 85.933594 49.808594 C 85.308594 53.691406 85.144531 54.238281 84.710938 54.238281 C 84.167969 54.238281 84.167969 54.210938 84.683594 50.738281 C 84.875 49.480469 84.058594 44.945312 83.648438 44.945312 C 83.324219 44.945312 83.378906 45.546875 83.894531 48.113281 C 84.277344 49.972656 84.304688 50.546875 84.03125 51.3125 C 83.839844 51.804688 83.703125 52.679688 83.703125 53.226562 L 83.703125 54.238281 L 80.25 54.210938 C 78.316406 54.183594 76.414062 54.101562 76.007812 54.046875 Z M 96.300781 54.046875 C 96.707031 53.992188 97.304688 53.992188 97.660156 54.046875 C 97.988281 54.101562 97.660156 54.15625 96.898438 54.15625 C 96.164062 54.15625 95.863281 54.101562 96.300781 54.046875 Z M 90.722656 53.773438 C 91.210938 53.71875 91.949219 53.71875 92.355469 53.773438 C 92.761719 53.828125 92.355469 53.882812 91.457031 53.882812 C 90.558594 53.882812 90.234375 53.828125 90.722656 53.773438 Z M 98.828125 52.269531 C 98.75 51.3125 98.613281 45.21875 98.53125 38.742188 C 98.394531 28.683594 98.449219 26.933594 98.777344 27.070312 C 99.238281 27.261719 99.402344 30.511719 99.644531 44.070312 C 99.808594 52.925781 99.78125 53.964844 99.402344 53.964844 C 99.074219 53.964844 98.9375 53.554688 98.828125 52.269531 Z M 55.765625 42.757812 C 55.765625 41.472656 55.820312 40.953125 55.875 41.609375 C 55.929688 42.238281 55.929688 43.277344 55.875 43.933594 C 55.820312 44.5625 55.765625 44.042969 55.765625 42.757812 Z M 89.742188 42.238281 C 88.820312 40.378906 88.601562 39.667969 88.628906 38.550781 L 88.65625 37.15625 L 89.171875 39.339844 C 89.472656 40.515625 90.015625 42.046875 90.398438 42.675781 C 90.777344 43.332031 91.050781 44.015625 90.96875 44.207031 C 90.914062 44.398438 90.371094 43.496094 89.742188 42.238281 Z M 52.09375 43.714844 C 52.011719 43.550781 51.875 41.882812 51.820312 40.023438 L 51.738281 36.609375 L 53.046875 34.039062 C 53.753906 32.644531 54.324219 31.304688 54.324219 31.085938 C 54.324219 30.894531 54.597656 30.621094 54.949219 30.484375 C 55.546875 30.265625 55.546875 30.292969 55.683594 32.890625 C 55.765625 34.339844 55.792969 35.570312 55.765625 35.625 C 55.710938 35.679688 55.546875 35.351562 55.386719 34.859375 C 55.167969 34.257812 54.949219 34.039062 54.679688 34.121094 C 54.460938 34.203125 54.242188 34.285156 54.160156 34.285156 C 53.945312 34.285156 53.128906 36.117188 52.800781 37.429688 C 52.367188 39.011719 52.3125 41.0625 52.691406 41.664062 C 52.828125 41.882812 52.828125 42.183594 52.691406 42.347656 C 52.582031 42.484375 52.421875 42.921875 52.367188 43.304688 C 52.339844 43.6875 52.203125 43.851562 52.09375 43.714844 Z M 23.582031 40.707031 C 22.902344 37.839844 22.6875 33.710938 23.230469 33.164062 C 23.421875 32.972656 23.691406 33.300781 24.101562 34.257812 C 24.5625 35.351562 24.671875 36.117188 24.644531 38.167969 C 24.644531 39.558594 24.535156 41.335938 24.453125 42.074219 L 24.265625 43.441406 Z M 23.582031 40.707031 "
    />
    <path
      d="M 82.398438 42.429688 C 81.800781 40.734375 82.125 37.292969 82.886719 37.292969 C 82.996094 37.292969 83.242188 37.8125 83.40625 38.46875 C 83.648438 39.394531 83.621094 39.941406 83.214844 41.472656 L 82.753906 43.359375 Z M 9.03125 42.675781 C 8.921875 42.402344 8.949219 41.5 9.113281 40.679688 C 9.300781 39.859375 9.355469 38.660156 9.273438 38.03125 C 9.191406 37.402344 9.246094 36.390625 9.382812 35.789062 C 9.601562 34.914062 9.65625 35.351562 9.65625 38.113281 C 9.65625 41.800781 9.410156 43.550781 9.03125 42.675781 Z M 25.734375 31.550781 C 25.1875 29.914062 25.378906 21.167969 25.976562 22.175781 C 26.222656 22.640625 26.304688 24.117188 26.25 27.78125 C 26.167969 32.699219 26.167969 32.753906 25.734375 31.550781 Z M 85.066406 30.15625 C 85.066406 29.804688 85.199219 29.3125 85.335938 29.09375 C 85.527344 28.792969 85.554688 28.957031 85.445312 29.640625 C 85.226562 30.8125 85.066406 31.03125 85.066406 30.15625 Z M 77.910156 28 C 76.332031 27.808594 75.515625 27.371094 75.925781 26.988281 C 76.195312 26.6875 85.960938 26.878906 86.261719 27.179688 C 86.398438 27.316406 86.425781 27.617188 86.34375 27.835938 C 86.207031 28.191406 85.636719 28.273438 82.835938 28.246094 C 80.984375 28.21875 78.78125 28.109375 77.910156 28 Z M 24.398438 27.726562 C 24.398438 27.453125 23.800781 27.152344 21.925781 26.414062 L 21.191406 26.113281 L 21.980469 24.554688 C 22.414062 23.707031 22.769531 22.777344 22.769531 22.503906 C 22.769531 22.09375 22.984375 21.984375 23.71875 21.984375 L 24.671875 21.984375 L 24.671875 24.992188 C 24.671875 26.660156 24.617188 28 24.535156 28 C 24.453125 28 24.398438 27.863281 24.398438 27.726562 Z M 88.601562 27.453125 C 88.601562 27.070312 88.792969 26.90625 89.226562 26.90625 C 89.554688 26.90625 91.105469 26.660156 92.683594 26.332031 C 94.941406 25.894531 95.703125 25.839844 96.328125 26.085938 C 97.550781 26.550781 96.925781 26.878906 93.632812 27.453125 C 89.714844 28.164062 88.601562 28.164062 88.601562 27.453125 Z M 12.972656 24.117188 L 12.972656 21.410156 L 15.230469 21.601562 C 16.457031 21.683594 17.542969 21.820312 17.679688 21.902344 C 17.925781 22.039062 17.925781 23.953125 17.707031 24.582031 C 17.515625 25.074219 16.210938 25.8125 15.503906 25.8125 C 15.230469 25.8125 14.550781 26.058594 13.980469 26.332031 L 12.972656 26.851562 Z M 98.421875 26.058594 C 98.066406 25.785156 97.90625 25.539062 98.042969 25.539062 C 98.394531 25.539062 99.375 26.277344 99.210938 26.441406 C 99.128906 26.523438 98.777344 26.359375 98.421875 26.058594 Z M 81.390625 26.085938 C 83.839844 25.757812 86.425781 25.785156 86.425781 26.085938 C 86.425781 26.25 85.144531 26.332031 83.105469 26.332031 C 80.222656 26.277344 80.003906 26.25 81.390625 26.085938 Z M 74.457031 25.703125 C 74.457031 24.964844 79.269531 23.816406 83.949219 23.460938 C 86.289062 23.269531 86.425781 23.296875 86.425781 23.816406 C 86.425781 24.308594 86.125 24.390625 82.617188 24.691406 C 80.523438 24.882812 77.964844 25.265625 76.902344 25.566406 C 74.644531 26.195312 74.457031 26.195312 74.457031 25.703125 Z M 88.4375 25.867188 C 88.519531 25.730469 89.363281 25.621094 90.289062 25.59375 C 91.894531 25.59375 91.921875 25.59375 90.914062 25.8125 C 89.472656 26.140625 88.273438 26.140625 88.4375 25.867188 Z M 53.644531 25.074219 C 48.503906 24.472656 46.707031 24.007812 46.707031 23.242188 C 46.707031 22.613281 47.441406 22.613281 50.378906 23.132812 C 51.875 23.40625 53.671875 23.625 54.40625 23.625 C 55.65625 23.625 55.683594 23.652344 55.683594 24.445312 C 55.683594 25.320312 55.65625 25.320312 53.644531 25.074219 Z M 60.851562 24.855469 C 60.445312 24.390625 59.683594 24.335938 58.921875 24.71875 C 58.488281 24.964844 58.40625 24.910156 58.40625 24.308594 C 58.40625 23.625 58.433594 23.625 60.800781 23.625 C 62.105469 23.597656 64.335938 23.40625 65.75 23.1875 C 69.9375 22.503906 70.347656 22.476562 70.808594 22.640625 C 71.21875 22.804688 71.21875 22.859375 70.78125 23.351562 C 70.238281 23.953125 68.632812 24.335938 64.988281 24.71875 C 63.546875 24.882812 62.078125 25.074219 61.777344 25.128906 C 61.453125 25.210938 61.042969 25.074219 60.851562 24.855469 Z M 84.464844 25.074219 C 84.792969 25.019531 85.335938 25.019531 85.691406 25.074219 C 86.015625 25.128906 85.746094 25.183594 85.066406 25.183594 C 84.382812 25.183594 84.113281 25.128906 84.464844 25.074219 Z M 95.128906 24.691406 C 94.152344 24.554688 92.21875 24.445312 90.859375 24.445312 C 88.492188 24.417969 88.328125 24.390625 88.328125 23.84375 C 88.328125 23.269531 88.382812 23.269531 92.21875 23.433594 C 96.136719 23.625 98.394531 24.035156 98.613281 24.664062 C 98.722656 25.046875 97.878906 25.046875 95.128906 24.691406 Z M 95.128906 24.691406 "
    />
    <path
      d="M 74.457031 22.96875 L 74.457031 21.492188 L 75.625 21.058594 C 80.195312 19.335938 92.898438 18.652344 96.980469 19.9375 L 98.394531 20.375 L 98.394531 21.847656 C 98.394531 22.886719 98.285156 23.351562 98.066406 23.351562 C 97.878906 23.351562 96.191406 23.160156 94.3125 22.96875 C 92.4375 22.75 90.34375 22.640625 89.636719 22.722656 C 88.382812 22.859375 88.328125 22.832031 88.328125 22.203125 C 88.328125 21.410156 87.867188 20.894531 87.1875 20.894531 C 86.644531 20.894531 86.125 21.875 86.34375 22.476562 C 86.453125 22.695312 86.125 22.804688 85.253906 22.804688 C 83.40625 22.804688 78.019531 23.570312 76.46875 24.035156 C 74.484375 24.636719 74.457031 24.636719 74.457031 22.96875 Z M 71.410156 23.542969 C 71.625 23.296875 71.679688 22.96875 71.570312 22.777344 C 71.460938 22.585938 71.515625 22.503906 71.734375 22.585938 C 72.359375 22.777344 72.332031 23.296875 71.679688 23.652344 C 71.109375 23.953125 71.082031 23.953125 71.410156 23.542969 Z M 44.53125 23.488281 C 44.558594 22.203125 48.503906 21.003906 53.34375 20.757812 L 55.820312 20.648438 L 53.507812 20.894531 C 48.71875 21.382812 45.59375 22.203125 44.9375 23.160156 C 44.722656 23.488281 44.53125 23.625 44.53125 23.488281 Z M 44.53125 23.488281 "
    />
    <path
      d="M 53.15625 22.75 C 48.828125 22.367188 48.613281 22.121094 52.230469 21.738281 C 53.996094 21.546875 55.519531 21.464844 55.601562 21.519531 C 55.65625 21.601562 55.683594 21.957031 55.628906 22.3125 C 55.546875 22.941406 55.519531 22.941406 53.15625 22.75 Z M 58.40625 22.066406 L 58.40625 21.085938 L 61.886719 21.273438 C 68.171875 21.601562 68.390625 21.710938 63.710938 22.421875 C 58.160156 23.269531 58.40625 23.296875 58.40625 22.066406 Z M 72.359375 22.367188 C 72.035156 22.121094 71.164062 21.765625 70.457031 21.546875 C 69.203125 21.191406 69.175781 21.167969 70.238281 21.328125 C 70.835938 21.410156 71.816406 21.710938 72.386719 21.984375 C 72.984375 22.285156 73.503906 22.476562 73.558594 22.421875 C 73.613281 22.367188 73.558594 21.847656 73.421875 21.273438 C 73.3125 20.675781 73.285156 19.910156 73.367188 19.527344 L 73.558594 18.84375 L 73.746094 19.554688 C 73.855469 19.9375 73.910156 20.785156 73.855469 21.464844 C 73.773438 22.804688 73.339844 23.050781 72.359375 22.367188 Z M 45.128906 21.167969 C 45.183594 20.675781 45.539062 20.429688 46.679688 20.019531 C 48.257812 19.5 51.496094 18.871094 54.132812 18.570312 C 55.65625 18.40625 55.683594 18.40625 55.683594 19.089844 C 55.683594 19.855469 55.957031 19.773438 51.414062 20.347656 C 49.265625 20.621094 47.632812 20.976562 45.539062 21.628906 C 45.128906 21.765625 45.046875 21.65625 45.128906 21.167969 Z M 45.128906 21.167969 "
    />
    <path
      d="M 71.054688 21.003906 C 68.632812 20.320312 64.605469 19.800781 61.480469 19.800781 L 58.40625 19.800781 L 58.40625 19.117188 C 58.40625 18.433594 58.40625 18.433594 60.960938 18.433594 C 64.117188 18.433594 69.152344 19.0625 71.191406 19.71875 C 72.359375 20.101562 72.714844 20.347656 72.769531 20.839844 C 72.878906 21.519531 72.878906 21.519531 71.054688 21.003906 Z M 71.054688 21.003906 "
    />
    <path
      d="M 67.734375 20.976562 C 67.980469 20.921875 68.414062 20.921875 68.6875 20.976562 C 68.933594 21.058594 68.714844 21.113281 68.199219 21.113281 C 67.679688 21.113281 67.464844 21.058594 67.734375 20.976562 Z M 15.230469 20.566406 L 12.972656 20.292969 L 12.972656 18.40625 L 14.824219 18.570312 C 20.589844 19.0625 23.285156 19.171875 25.269531 18.953125 C 26.523438 18.84375 28.398438 18.679688 29.433594 18.597656 C 30.492188 18.515625 31.882812 18.269531 32.535156 18.023438 C 33.351562 17.75 33.839844 17.695312 34.03125 17.886719 C 34.4375 18.296875 34.820312 18.214844 34.628906 17.722656 C 34.546875 17.503906 34.574219 17.394531 34.738281 17.476562 C 35.582031 17.996094 34.167969 19.363281 32.179688 19.9375 C 30.410156 20.457031 26.820312 20.894531 24.292969 20.894531 C 22.632812 20.894531 22.386719 20.8125 21.898438 20.210938 C 21.488281 19.691406 21.109375 19.527344 20.320312 19.527344 C 19.339844 19.527344 18.414062 20.074219 18.414062 20.648438 C 18.414062 20.921875 18.359375 20.921875 15.230469 20.566406 Z M 58.921875 20.566406 C 58.050781 20.347656 62.976562 20.375 65.34375 20.621094 C 66.867188 20.785156 66.457031 20.8125 63.410156 20.785156 C 61.289062 20.757812 59.277344 20.675781 58.921875 20.566406 Z M 45.128906 18.132812 C 45.210938 16.546875 45.347656 16.082031 45.808594 15.699219 C 46.515625 15.125 50.925781 14.167969 54.707031 13.757812 C 59.738281 13.183594 68.226562 13.867188 71.191406 15.042969 C 72.496094 15.589844 72.824219 16.082031 72.824219 17.667969 C 72.824219 19.390625 72.578125 19.636719 71.410156 19.117188 C 69.722656 18.433594 66.023438 17.914062 62.132812 17.859375 C 58.488281 17.804688 58.40625 17.777344 58.40625 17.203125 C 58.40625 16.519531 57.617188 15.699219 56.964844 15.699219 C 56.445312 15.699219 55.683594 16.710938 55.683594 17.394531 C 55.683594 17.75 55.46875 17.886719 54.949219 17.886719 C 53.289062 17.886719 48.828125 18.734375 46.980469 19.363281 L 45.019531 20.074219 Z M 8.078125 19.28125 C 5.464844 18.570312 4.242188 17.96875 4.078125 17.339844 C 3.996094 17.039062 3.753906 16.792969 3.5625 16.792969 C 3.097656 16.792969 3.070312 17.394531 3.507812 17.832031 C 3.726562 18.050781 3.753906 18.160156 3.535156 18.160156 C 3.371094 18.160156 2.964844 17.832031 2.636719 17.421875 L 2.039062 16.65625 L 2.828125 16.355469 C 3.289062 16.164062 3.644531 16.136719 3.753906 16.273438 C 3.832031 16.410156 4.105469 16.464844 4.324219 16.382812 C 4.566406 16.273438 5.929688 16.601562 7.371094 17.066406 L 9.980469 17.914062 L 9.980469 18.871094 C 9.980469 19.390625 9.953125 19.800781 9.925781 19.773438 C 9.875 19.773438 9.058594 19.554688 8.078125 19.28125 Z M 77.503906 19.390625 C 77.882812 19.171875 79.351562 18.789062 80.765625 18.515625 C 83.921875 17.941406 93.714844 17.832031 94.96875 18.378906 C 95.402344 18.570312 95.703125 18.761719 95.648438 18.789062 C 95.59375 18.84375 93.472656 18.816406 90.914062 18.734375 C 87.429688 18.597656 85.417969 18.679688 82.753906 19.035156 C 80.820312 19.28125 78.671875 19.554688 77.992188 19.636719 C 76.792969 19.800781 76.792969 19.800781 77.503906 19.390625 Z M 77.503906 19.390625 "
    />
    <path
      d="M 1.710938 18.132812 C 0.625 17.285156 0.8125 16 2.09375 15.371094 C 4.1875 14.332031 9.980469 13.347656 9.980469 14.03125 C 9.980469 14.195312 9.65625 14.332031 9.246094 14.332031 C 7.75 14.332031 3.886719 15.152344 2.746094 15.726562 C 1.304688 16.410156 1.140625 17.257812 2.308594 18.132812 C 2.71875 18.433594 2.910156 18.707031 2.746094 18.707031 C 2.582031 18.707031 2.121094 18.433594 1.710938 18.132812 Z M 17.871094 18.023438 C 16.15625 17.832031 14.335938 17.667969 13.84375 17.640625 L 12.945312 17.613281 L 13.027344 16.191406 L 13.109375 14.742188 L 16.78125 14.796875 C 21.707031 14.851562 26.441406 15.34375 29.488281 16.109375 C 33.023438 17.011719 33.242188 17.203125 31.308594 17.558594 C 29.351562 17.941406 23.910156 18.433594 22.222656 18.378906 C 21.542969 18.378906 19.585938 18.1875 17.871094 18.023438 Z M 79.378906 17.832031 C 82.726562 14.960938 83.460938 14.605469 86.261719 14.605469 C 88.601562 14.605469 90.640625 15.261719 92.082031 16.464844 L 92.980469 17.203125 L 88.273438 17.257812 C 84.113281 17.285156 80.929688 17.558594 79.433594 18.050781 C 79 18.1875 79 18.160156 79.378906 17.832031 Z M 79.378906 17.832031 "
    />
    <path
      d="M 33.921875 16.601562 C 30.386719 15.234375 22.007812 14.058594 15.53125 14.058594 C 13.953125 14.058594 12.648438 13.949219 12.566406 13.785156 C 12.183594 13.183594 20.671875 13.59375 27.257812 14.46875 C 30.140625 14.878906 35.554688 16.410156 36.179688 17.039062 C 36.667969 17.53125 35.878906 17.367188 33.921875 16.601562 Z M 7.261719 16.21875 C 6.28125 15.945312 5.546875 15.726562 5.628906 15.699219 C 5.710938 15.671875 6.71875 15.507812 7.886719 15.316406 L 9.980469 14.988281 L 9.980469 15.890625 C 9.980469 16.929688 9.898438 16.957031 7.261719 16.21875 Z M 7.261719 16.21875 "
    />
    <path
      d="M 34.902344 15.726562 C 34.246094 14.714844 22.222656 12.964844 15.667969 12.964844 L 13.300781 12.964844 L 13.164062 12.09375 C 13.109375 11.601562 13.082031 11.136719 13.136719 11.082031 C 13.191406 11.027344 15.777344 11.109375 18.878906 11.273438 C 25.488281 11.628906 29.894531 12.339844 33.1875 13.511719 C 35.417969 14.332031 35.554688 14.441406 35.554688 15.179688 C 35.554688 15.945312 35.199219 16.246094 34.902344 15.726562 Z M 1.546875 14.496094 C 1.546875 13.539062 2.335938 12.800781 3.859375 12.3125 C 5.492188 11.820312 8.132812 11.328125 9.21875 11.328125 C 9.953125 11.328125 10.007812 11.410156 9.925781 12.230469 L 9.847656 13.101562 L 7.125 13.457031 C 5.519531 13.675781 3.832031 14.085938 2.992188 14.46875 L 1.546875 15.125 Z M 48.339844 14.058594 C 48.339844 13.703125 50.488281 12.9375 52.609375 12.527344 C 56.582031 11.765625 60.089844 11.738281 64.824219 12.417969 C 67.980469 12.882812 69.203125 13.15625 69.203125 13.429688 C 69.203125 13.675781 68.960938 13.757812 68.363281 13.648438 C 62.757812 12.691406 53.835938 12.800781 49.78125 13.894531 C 48.992188 14.113281 48.339844 14.195312 48.339844 14.058594 Z M 48.339844 14.058594 "
    />
    <path
      d="M 33.378906 13.046875 C 29.976562 11.738281 21.789062 10.507812 16.320312 10.507812 L 13.246094 10.507812 L 13.246094 9.550781 C 13.246094 8.839844 13.082031 8.484375 12.566406 8.15625 C 11.261719 7.308594 9.980469 8.238281 9.980469 10.042969 C 9.980469 10.617188 9.792969 10.699219 7.480469 11 C 6.117188 11.191406 4.269531 11.628906 3.398438 11.984375 L 1.820312 12.636719 L 1.820312 10.617188 C 1.820312 9.523438 1.957031 8.320312 2.148438 7.9375 C 2.527344 7.0625 4.160156 6.242188 6.609375 5.695312 C 9.519531 5.039062 18.25 4.875 22.769531 5.394531 C 28.046875 6.023438 34.21875 7.882812 35.90625 9.359375 C 36.503906 9.90625 36.558594 12.148438 35.960938 12.148438 C 35.582031 12.148438 35.417969 12.609375 35.527344 13.457031 C 35.582031 13.894531 35.445312 13.867188 33.378906 13.046875 Z M 52.011719 11.355469 C 52.609375 10.726562 53.890625 9.824219 54.867188 9.332031 C 56.445312 8.539062 56.855469 8.457031 58.8125 8.484375 C 61.535156 8.539062 63.628906 9.304688 65.261719 10.808594 L 66.429688 11.902344 L 64.390625 11.710938 C 60.390625 11.355469 58.214844 11.355469 54.921875 11.738281 C 53.074219 11.957031 51.414062 12.230469 51.25 12.3125 C 51.058594 12.417969 51.414062 11.984375 52.011719 11.355469 Z M 52.011719 11.355469 "
    />
    <path
      d="M 29.570312 6.269531 C 25.433594 5.148438 22.25 4.738281 17.054688 4.574219 C 13.464844 4.492188 11.261719 4.574219 9.300781 4.847656 C 7.804688 5.066406 6.527344 5.203125 6.5 5.148438 C 6.253906 4.957031 8.160156 4.246094 10.117188 3.78125 C 13.164062 3.101562 19.339844 3.15625 23.582031 3.890625 C 27.3125 4.574219 30.902344 5.667969 31.800781 6.40625 C 32.5625 7.0625 32.453125 7.0625 29.570312 6.269531 Z M 29.570312 6.269531 "
    />
    <path
      d="M 25.214844 3.726562 C 22.820312 3.074219 22.195312 3.019531 16.457031 3.019531 L 10.28125 2.992188 L 10.960938 2.28125 C 11.316406 1.898438 11.53125 1.488281 11.421875 1.378906 C 11.316406 1.269531 11.398438 1.269531 11.640625 1.351562 C 11.859375 1.433594 12.785156 1.160156 13.683594 0.75 C 15.097656 0.09375 15.613281 0.0117188 18.277344 0.0117188 C 19.9375 -0.015625 21.761719 0.0390625 22.359375 0.09375 C 23.746094 0.203125 25.082031 0.695312 24.671875 0.941406 C 24.507812 1.050781 25 1.460938 25.816406 1.898438 C 26.605469 2.335938 27.472656 2.9375 27.71875 3.238281 C 27.992188 3.5625 28.179688 3.699219 28.207031 3.5625 C 28.207031 3.429688 28.398438 3.484375 28.617188 3.671875 C 29.105469 4.082031 28.914062 4.492188 28.261719 4.464844 C 28.019531 4.4375 26.628906 4.109375 25.214844 3.726562 Z M 25.214844 3.726562 "
    />
  </g>
</svg>
