<svg xmlns="http://www.w3.org/2000/svg" id="root" viewBox="1401 1326 10824 10614">
  <path
    d="M6188 3303c-76-13-148-41-211-85-85-44-123-134-169-211-29-84-86-153-88-246-11-85 21-202 126-203 132-24 172 118 160 221 18 92 60 143 109 218 57 71 130 149 231 115 86-37 120-143 128-230 9-146 6-298-53-435-13-87-38-171-69-253-38-196-42-398-23-596 13-88 68-171 141-221 78-53 174-66 262-34a487 487 0 0 1 241 222c49 60 46 151 88 218 27 69 64 217 160 179 26-97 118-199 222-121 96 64 63 184 20 269-86 149-305 200-444 94a619 619 0 0 1-195-247c-37-106-54-221-122-313-40-109-192-78-214 24-34 95-34 196-10 293 3 84 35 161 60 240 20 84 45 169 76 250 35 112 49 229 46 346-3 124 17 270-75 370a322 322 0 0 1-272 136c-42 3-84 3-125 0zm3212 656c-88-14-173-44-253-80-59-29-110-68-150-119-59-34-67-109-112-156-31-64-41-141-36-213-6-80 2-159 26-234 33-46 37-103 52-157 19-70 60-129 93-193 51-58 114-104 173-153 49-42 106-63 171-63 79-10 165-16 239 20 46 50 116 70 164 117 54 25 95 68 146 98 51 39 82 97 122 146 30 55 55 113 71 174 25 79 14 169 6 252-30 45-28 103-57 149-25 54-62 100-95 149-51 52-92 113-156 150-61 41-131 64-196 96-66 19-142 34-208 17Zm174-430c37-17 54-57 78-87 21-30 55-58 48-98 1-41 25-74 36-113 16-34-17-61-15-95-2-28 1-58-9-85-19-17-9-52-33-65-21-37-56-65-77-103-32-24-61-62-104-61-50-4-101-1-151 0-35 13-80 7-108 32-17 38-63 44-78 84-21 28-45 56-58 87-6 54-4 109 1 164 19 38 27 78 48 114 10 36 9 76 34 107 9 36 50 42 64 80 32 23 69 41 102 66 39 1 74 33 115 23 35-13 92-26 107-50zm-6314 821c-52-49-25-129-37-192-4-170-12-340 4-510 26-77 45-157 67-236-8-73 39-125 44-196 20-89 74-168 134-234 49-44 91-99 154-123 51-44 118-49 181-60 70 4 144-7 208 30 50 20 93 59 124 103 50 37 66 104 82 161 21 72 55 140 58 217 0 75 41 142 41 216-7 83 24 162 20 245-3 124 9 248-13 370-15 73-59 140-131 165-71 16-141-43-216-2-116 21-236 16-354 23-81 3-163 8-244 18-37 20-83 21-122 5zm265-140c166-24 336 6 501-28 74 7 170 1 159-100 10-217 13-435-9-651-13-64-24-128-52-186-17-64-56-120-95-174-46-43-106-81-173-72-62-7-120 22-163 65-42 51-74 111-109 167-35 68-72 136-90 212-31 61-34 126-51 192-21 170-9 344-32 515-56 82 70 82 114 60zm6858 1674c-21-97 146-53 200-106 71-45 148-72 212-126 100-65 206-120 293-202 30-63 170-22 166-82-94-48-137-154-231-203-55-62-126-39-131 44-44 72-74 194-168 202-69-47 46-133 46-201 21-28 84-132 5-97-43 78-147 88-185 171-75 64-158 116-233 180-110 98-249 152-376 224-92 33-186 66-282 79-116-43 39-106 92-128 65-64 156-92 232-145 82-52 180-86 241-166 153-125 309-248 459-378 69-64 179-86 258-25 92 59 149 157 235 222 36 99 161 44 210-13 92-26 134-114 215-152 139-40 250 78 363 137 61 73 197 106 220 198-68 71-161-15-225-51-86-44-150-124-243-152-105-44-194 32-274 91-62 32-148 92-44 140 93 51 198 72 292 119 89 44 197 56 274 122 67 124-155 79-212 39-113-42-234-61-351-84-135-11-280-1-394 80-130 84-263 166-414 203-82 21-162 77-250 60zm-7652 102c-48-38-180 14-178-60 65-37 145-37 217-50 86-7 167-33 246-56 28-45 12-159 66-213 38-24 53-128-11-83-41 56-77 116-120 169a417 417 0 0 1-240 114c-141 10-292 9-419-65-86-30-142-107-198-175-27-68-63-152-158-129-69 23-232-41-232 57 50 46 109 81 155 129 35 3 119 97 49 69-75-47-139-110-220-148-57-48-128-72-194-103-52-5-151-66-49-86 77-21 152-50 226-79 65-19 122-63 188-78 67-17 136-26 196-62 82-19 150-64 225-100 78-7 144-61 223-63 101-5 212-16 302 41 69 17 120 60 178 100 63 47 115 107 166 168 46 76 102 145 145 223 50 56 74 140 135 192 39 79-66 134-129 150-77 44-166 43-243 85-103 28-212 37-315 60-5-1-7-5-11-7zm485-260c53-41-51-106-46-29-37 43 19 51 46 29zm-416-267c19-38 118-58 41-105-52-86-176 3-101 75 16 22 29 64 60 30zm8063 3628c-74-31-141-77-191-141a544 544 0 0 1-160-253c-48-101-43-214-65-322-11-73-7-146-32-216 2-104-33-204-25-308-2-97-25-191-20-289-2-100-1-200 5-299 52-76 165-32 239-66 276-6 551-5 827 3 87 21 78 128 77 198-6 364 4 728-22 1091-29 99-35 205-79 299a541 541 0 0 1-181 228c-39 60-98 92-170 87-68 2-136-3-203-12zm267-177a371 371 0 0 0 185-277c30-141 51-285 47-430 2-250 23-501 7-751-29-114-166-107-259-101-162 3-323-1-484 2-114 6-67 135-75 208 1 128-15 261 26 385 12 80-9 164 20 243 17 124 14 255 70 371 25 76 60 150 118 208 78 103 214 182 345 142zm-8390 660c-105-14-215-28-300-98a558 558 0 0 1-203-212 764 764 0 0 1-112-324c-7-165-37-342 44-495 73-151 177-296 331-371 83-66-39-149-52-230a557 557 0 0 1 6-314 663 663 0 0 1 252-274c70-87 196-92 295-53a414 414 0 0 1 243 219c40 93 65 194 51 296 2 117-33 229-124 306-117 58 80 112 122 165 97 48 148 144 205 230 32 87 81 168 78 265-10 99 15 207-29 299-25 81-64 159-104 235a847 847 0 0 1-293 262c-77 51-165 82-260 84-50 0-100 26-150 10zm220-160c86-10 163-44 227-101 108-97 207-221 231-368 6-146 21-306-67-433a679 679 0 0 0-212-228c-81-58-186-71-280-91-83 39-176 11-257 57-98 48-150 150-220 229-49 83-103 162-113 262a605 605 0 0 0 10 347c59 142 162 275 315 321 119 22 246 20 366 5zm20-1400c96-25 163-107 196-196 7-93 33-197-10-284-51-89-107-194-218-215-144-35-269 79-346 187a384 384 0 0 0-40 351c36 78 103 175 204 145 72-9 143 41 214 12zm2190 3920c-169-45-321-121-320-325a425 425 0 0 1 50-465c90-145 179-292 251-450 79-113 168-237 223-374 107-79 114-522 115-603 6-424-5-853-33-1273 11-165-85-295-176-418-131-159-392-561-281-392-121-138-215-287-339-423-110-171-249-311-334-499-86-150-45-448-75-540 94-93 131-191 259-338 174-185 277-300 370-430 142-146 291-345 524-323 155-37 348-277 376-292 82-145 122-285 160-395 27-120 160-292 130-22-60 197 226 609 149 482-144 106-250 234-403 295-109 93-219 206-326 296-110 141-200 289-320 409-127 130-244 276-357 416-100 201 42 403 147 559 114 141 248 290 418 366 163 61 318-17 496-115 124-109 191-103 261-220 65-147 75-352 35-516-86-296-149-642-60-951 148-103 258-264 447-304 158-16 324 113 437 168 77 265 19 558 30 833-14 196-118 350-164 534-70 163-106 412 55 530 195 87 397-31 575-85 108-42 428-216 320-160 133-67 487-325 370-255a373 373 0 0 0 152-496c-51-162-129-328-242-459-134-136-230-289-240-485-79-171-410-278-313-486 33-137 131-379 143-419 52 189 105 368 170 545 140 267 154 302 284 365 187 62 319 264 402 379 108 154 410 513 279 356-84-88 241 265 304 370 145 186-95 359-209 480-153 142-324 258-470 409-238 146-400 272-400 271-141 102-409 541-330 395-93 142-145 314-255 454-71 187-67 367-78 568-66 244-36 525-67 783-91 346 298 247 430 429 108 121 542 242 400 201 173 63 352 125 536 170 168 68 349 118 534 167 117 38 267 143 280 303-45 178-265 399-346 416-251 57-607 53-794 64-229 7-492 38-733 51-232 26-448 115-677 159-195 30-369 133-571 164-239 101-519 119-788 116-155-11-257 40-411 10z"
  />
</svg>
