<svg xmlns="http://www.w3.org/2000/svg" id="root" viewBox="0 0 99 98">
  <g>
    <path
      d="M 43.785156 18.253906 C 43.089844 18.132812 42.429688 17.875 41.855469 17.46875 C 41.078125 17.0625 40.730469 16.230469 40.308594 15.519531 C 40.042969 14.746094 39.519531 14.109375 39.503906 13.25 C 39.402344 12.464844 39.695312 11.382812 40.65625 11.375 C 41.863281 11.152344 42.230469 12.464844 42.117188 13.414062 C 42.285156 14.265625 42.667969 14.734375 43.117188 15.429688 C 43.636719 16.085938 44.304688 16.804688 45.230469 16.492188 C 46.015625 16.148438 46.328125 15.171875 46.398438 14.367188 C 46.480469 13.019531 46.453125 11.613281 45.914062 10.351562 C 45.796875 9.546875 45.566406 8.769531 45.285156 8.015625 C 44.9375 6.203125 44.898438 4.339844 45.074219 2.511719 C 45.191406 1.699219 45.695312 0.933594 46.363281 0.472656 C 47.078125 -0.0195312 47.953125 -0.136719 48.757812 0.15625 C 49.707031 0.5625 50.484375 1.285156 50.964844 2.207031 C 51.410156 2.761719 51.382812 3.601562 51.769531 4.21875 C 52.015625 4.855469 52.355469 6.222656 53.230469 5.871094 C 53.46875 4.976562 54.3125 4.035156 55.261719 4.753906 C 56.140625 5.347656 55.839844 6.453125 55.445312 7.238281 C 54.660156 8.613281 52.65625 9.085938 51.382812 8.105469 C 50.605469 7.515625 49.992188 6.730469 49.601562 5.824219 C 49.261719 4.847656 49.105469 3.785156 48.484375 2.9375 C 48.117188 1.929688 46.730469 2.214844 46.527344 3.15625 C 46.214844 4.035156 46.214844 4.96875 46.4375 5.863281 C 46.464844 6.636719 46.757812 7.347656 46.984375 8.078125 C 47.167969 8.855469 47.394531 9.640625 47.679688 10.386719 C 48 11.421875 48.128906 12.5 48.101562 13.582031 C 48.074219 14.726562 48.257812 16.074219 47.414062 17 C 46.847656 17.808594 45.910156 18.28125 44.925781 18.253906 C 44.542969 18.28125 44.160156 18.28125 43.785156 18.253906 Z M 73.160156 24.3125 C 72.355469 24.179688 71.578125 23.90625 70.847656 23.570312 C 70.308594 23.304688 69.839844 22.945312 69.476562 22.472656 C 68.9375 22.160156 68.863281 21.46875 68.453125 21.03125 C 68.167969 20.441406 68.078125 19.730469 68.121094 19.066406 C 68.066406 18.328125 68.140625 17.597656 68.359375 16.90625 C 68.660156 16.480469 68.699219 15.953125 68.835938 15.457031 C 69.007812 14.808594 69.382812 14.265625 69.6875 13.675781 C 70.152344 13.140625 70.730469 12.714844 71.269531 12.261719 C 71.714844 11.875 72.238281 11.679688 72.832031 11.679688 C 73.554688 11.585938 74.339844 11.53125 75.019531 11.863281 C 75.4375 12.328125 76.078125 12.511719 76.519531 12.945312 C 77.011719 13.175781 77.386719 13.574219 77.855469 13.851562 C 78.320312 14.210938 78.605469 14.746094 78.96875 15.199219 C 79.242188 15.707031 79.472656 16.242188 79.617188 16.804688 C 79.847656 17.535156 79.746094 18.363281 79.671875 19.132812 C 79.398438 19.546875 79.417969 20.082031 79.152344 20.507812 C 78.921875 21.003906 78.585938 21.429688 78.285156 21.882812 C 77.816406 22.363281 77.441406 22.925781 76.855469 23.265625 C 76.296875 23.644531 75.660156 23.859375 75.0625 24.152344 C 74.460938 24.328125 73.765625 24.46875 73.160156 24.3125 Z M 74.753906 20.339844 C 75.089844 20.183594 75.246094 19.8125 75.464844 19.539062 C 75.660156 19.261719 75.96875 19 75.90625 18.632812 C 75.914062 18.253906 76.132812 17.949219 76.234375 17.589844 C 76.382812 17.273438 76.078125 17.027344 76.097656 16.710938 C 76.078125 16.453125 76.105469 16.175781 76.015625 15.925781 C 75.839844 15.769531 75.933594 15.445312 75.714844 15.328125 C 75.519531 14.984375 75.203125 14.726562 75.007812 14.375 C 74.714844 14.15625 74.453125 13.804688 74.058594 13.8125 C 73.601562 13.777344 73.132812 13.804688 72.675781 13.8125 C 72.355469 13.933594 71.945312 13.878906 71.6875 14.109375 C 71.535156 14.460938 71.113281 14.515625 70.976562 14.882812 C 70.785156 15.140625 70.5625 15.402344 70.445312 15.6875 C 70.390625 16.1875 70.410156 16.695312 70.453125 17.203125 C 70.628906 17.550781 70.703125 17.921875 70.894531 18.253906 C 70.984375 18.585938 70.976562 18.957031 71.203125 19.242188 C 71.285156 19.574219 71.660156 19.628906 71.789062 19.980469 C 72.082031 20.191406 72.421875 20.359375 72.722656 20.589844 C 73.078125 20.597656 73.398438 20.894531 73.773438 20.800781 C 74.09375 20.683594 74.617188 20.5625 74.753906 20.339844 Z M 17.003906 27.921875 C 16.527344 27.46875 16.773438 26.730469 16.664062 26.148438 C 16.628906 24.578125 16.554688 23.007812 16.703125 21.4375 C 16.9375 20.726562 17.113281 19.988281 17.3125 19.261719 C 17.242188 18.585938 17.671875 18.105469 17.714844 17.449219 C 17.898438 16.628906 18.394531 15.898438 18.941406 15.289062 C 19.390625 14.882812 19.773438 14.375 20.351562 14.15625 C 20.816406 13.75 21.429688 13.703125 22.007812 13.601562 C 22.644531 13.636719 23.324219 13.535156 23.910156 13.878906 C 24.367188 14.0625 24.757812 14.421875 25.042969 14.828125 C 25.5 15.171875 25.644531 15.789062 25.792969 16.316406 C 25.984375 16.980469 26.296875 17.609375 26.324219 18.320312 C 26.324219 19.011719 26.699219 19.628906 26.699219 20.3125 C 26.632812 21.078125 26.917969 21.808594 26.882812 22.574219 C 26.855469 23.71875 26.964844 24.863281 26.761719 25.992188 C 26.625 26.664062 26.222656 27.285156 25.5625 27.515625 C 24.914062 27.664062 24.273438 27.117188 23.589844 27.496094 C 22.527344 27.691406 21.429688 27.644531 20.351562 27.707031 C 19.609375 27.734375 18.859375 27.78125 18.117188 27.875 C 17.78125 28.058594 17.359375 28.070312 17.003906 27.921875 Z M 19.425781 26.628906 C 20.945312 26.40625 22.5 26.683594 24.007812 26.371094 C 24.6875 26.433594 25.5625 26.378906 25.464844 25.445312 C 25.554688 23.441406 25.582031 21.429688 25.382812 19.4375 C 25.261719 18.84375 25.160156 18.253906 24.90625 17.71875 C 24.75 17.128906 24.394531 16.609375 24.035156 16.113281 C 23.617188 15.714844 23.066406 15.363281 22.453125 15.445312 C 21.886719 15.382812 21.355469 15.648438 20.964844 16.046875 C 20.578125 16.519531 20.285156 17.070312 19.964844 17.589844 C 19.644531 18.21875 19.308594 18.84375 19.144531 19.546875 C 18.859375 20.109375 18.832031 20.710938 18.675781 21.320312 C 18.484375 22.890625 18.59375 24.496094 18.382812 26.074219 C 17.871094 26.832031 19.023438 26.832031 19.425781 26.628906 Z M 82.152344 42.085938 C 81.960938 41.1875 83.488281 41.59375 83.980469 41.105469 C 84.632812 40.691406 85.335938 40.441406 85.921875 39.941406 C 86.835938 39.34375 87.804688 38.835938 88.601562 38.078125 C 88.875 37.496094 90.15625 37.875 90.117188 37.320312 C 89.257812 36.878906 88.867188 35.898438 88.007812 35.445312 C 87.503906 34.875 86.855469 35.085938 86.808594 35.851562 C 86.40625 36.515625 86.132812 37.644531 85.269531 37.71875 C 84.640625 37.285156 85.691406 36.488281 85.691406 35.859375 C 85.882812 35.601562 86.460938 34.640625 85.738281 34.964844 C 85.34375 35.6875 84.394531 35.777344 84.046875 36.542969 C 83.359375 37.136719 82.601562 37.617188 81.914062 38.207031 C 80.910156 39.113281 79.636719 39.609375 78.476562 40.273438 C 77.632812 40.578125 76.773438 40.882812 75.894531 41.003906 C 74.835938 40.605469 76.253906 40.027344 76.738281 39.824219 C 77.332031 39.230469 78.164062 38.972656 78.859375 38.484375 C 79.609375 38.003906 80.507812 37.691406 81.0625 36.949219 C 82.464844 35.796875 83.890625 34.660156 85.261719 33.460938 C 85.894531 32.871094 86.898438 32.667969 87.621094 33.230469 C 88.464844 33.773438 88.984375 34.679688 89.769531 35.28125 C 90.101562 36.195312 91.242188 35.6875 91.691406 35.160156 C 92.535156 34.917969 92.917969 34.105469 93.660156 33.757812 C 94.929688 33.386719 95.945312 34.476562 96.980469 35.019531 C 97.535156 35.695312 98.78125 36 98.992188 36.847656 C 98.367188 37.503906 97.519531 36.710938 96.933594 36.378906 C 96.144531 35.972656 95.5625 35.234375 94.710938 34.976562 C 93.75 34.570312 92.9375 35.269531 92.203125 35.816406 C 91.636719 36.109375 90.851562 36.664062 91.800781 37.109375 C 92.652344 37.578125 93.613281 37.773438 94.472656 38.207031 C 95.285156 38.613281 96.273438 38.722656 96.980469 39.332031 C 97.589844 40.476562 95.5625 40.0625 95.039062 39.691406 C 94.007812 39.304688 92.898438 39.128906 91.828125 38.917969 C 90.59375 38.816406 89.269531 38.910156 88.226562 39.65625 C 87.035156 40.433594 85.820312 41.1875 84.4375 41.53125 C 83.6875 41.722656 82.957031 42.242188 82.152344 42.085938 Z M 12.164062 43.027344 C 11.726562 42.675781 10.519531 43.15625 10.535156 42.472656 C 11.132812 42.128906 11.863281 42.128906 12.519531 42.011719 C 13.308594 41.945312 14.046875 41.707031 14.769531 41.492188 C 15.027344 41.078125 14.882812 40.027344 15.375 39.527344 C 15.722656 39.304688 15.859375 38.34375 15.273438 38.761719 C 14.898438 39.277344 14.570312 39.832031 14.175781 40.320312 C 13.578125 40.902344 12.808594 41.273438 11.980469 41.375 C 10.691406 41.464844 9.3125 41.457031 8.148438 40.773438 C 7.363281 40.496094 6.851562 39.785156 6.339844 39.15625 C 6.089844 38.53125 5.761719 37.753906 4.894531 37.964844 C 4.261719 38.179688 2.769531 37.589844 2.769531 38.492188 C 3.230469 38.917969 3.769531 39.242188 4.1875 39.683594 C 4.507812 39.710938 5.277344 40.578125 4.636719 40.320312 C 3.953125 39.886719 3.367188 39.304688 2.625 38.953125 C 2.105469 38.511719 1.453125 38.289062 0.851562 38.003906 C 0.375 37.957031 -0.53125 37.394531 0.402344 37.210938 C 1.105469 37.015625 1.792969 36.746094 2.46875 36.480469 C 3.0625 36.304688 3.585938 35.898438 4.1875 35.757812 C 4.800781 35.601562 5.433594 35.519531 5.980469 35.1875 C 6.730469 35.011719 7.355469 34.597656 8.039062 34.265625 C 8.753906 34.199219 9.355469 33.699219 10.078125 33.683594 C 11.003906 33.636719 12.019531 33.535156 12.839844 34.0625 C 13.472656 34.21875 13.9375 34.613281 14.46875 34.984375 C 15.046875 35.417969 15.519531 35.972656 15.988281 36.535156 C 16.410156 37.238281 16.921875 37.875 17.3125 38.59375 C 17.769531 39.113281 17.992188 39.886719 18.546875 40.367188 C 18.90625 41.097656 17.945312 41.605469 17.367188 41.753906 C 16.664062 42.160156 15.851562 42.148438 15.144531 42.535156 C 14.203125 42.796875 13.207031 42.878906 12.265625 43.089844 C 12.21875 43.082031 12.203125 43.042969 12.164062 43.027344 Z M 16.601562 40.625 C 17.085938 40.246094 16.132812 39.648438 16.179688 40.359375 C 15.839844 40.753906 16.355469 40.828125 16.601562 40.625 Z M 12.796875 38.160156 C 12.96875 37.808594 13.875 37.625 13.171875 37.191406 C 12.695312 36.398438 11.5625 37.21875 12.246094 37.882812 C 12.394531 38.085938 12.511719 38.472656 12.796875 38.160156 Z M 86.542969 71.65625 C 85.867188 71.371094 85.253906 70.945312 84.796875 70.355469 C 84.101562 69.730469 83.59375 68.921875 83.332031 68.019531 C 82.894531 67.085938 82.9375 66.042969 82.738281 65.046875 C 82.636719 64.375 82.671875 63.699219 82.445312 63.054688 C 82.464844 62.09375 82.144531 61.167969 82.214844 60.207031 C 82.199219 59.3125 81.988281 58.445312 82.035156 57.539062 C 82.015625 56.617188 82.023438 55.695312 82.078125 54.78125 C 82.554688 54.078125 83.589844 54.484375 84.265625 54.171875 C 86.789062 54.113281 89.304688 54.125 91.828125 54.199219 C 92.625 54.390625 92.542969 55.378906 92.535156 56.027344 C 92.480469 59.386719 92.570312 62.75 92.332031 66.101562 C 92.066406 67.015625 92.011719 67.992188 91.609375 68.859375 C 91.257812 69.703125 90.6875 70.429688 89.953125 70.964844 C 89.597656 71.519531 89.058594 71.816406 88.398438 71.769531 C 87.777344 71.789062 87.15625 71.742188 86.542969 71.65625 Z M 88.984375 70.023438 C 89.917969 69.488281 90.546875 68.539062 90.675781 67.464844 C 90.953125 66.164062 91.144531 64.835938 91.105469 63.496094 C 91.125 61.1875 91.316406 58.871094 91.171875 56.5625 C 90.90625 55.507812 89.652344 55.574219 88.800781 55.628906 C 87.320312 55.65625 85.847656 55.621094 84.375 55.648438 C 83.332031 55.703125 83.761719 56.894531 83.6875 57.566406 C 83.699219 58.75 83.550781 59.976562 83.925781 61.121094 C 84.035156 61.863281 83.84375 62.636719 84.109375 63.367188 C 84.265625 64.511719 84.238281 65.722656 84.75 66.792969 C 84.980469 67.492188 85.296875 68.175781 85.828125 68.710938 C 86.542969 69.664062 87.785156 70.394531 88.984375 70.023438 Z M 12.246094 76.117188 C 11.285156 75.988281 10.28125 75.859375 9.503906 75.210938 C 8.722656 74.738281 8.082031 74.0625 7.644531 73.253906 C 7.085938 72.347656 6.734375 71.328125 6.621094 70.265625 C 6.558594 68.742188 6.285156 67.105469 7.023438 65.695312 C 7.691406 64.300781 8.644531 62.960938 10.050781 62.269531 C 10.8125 61.660156 9.695312 60.890625 9.578125 60.144531 C 9.320312 59.191406 9.335938 58.1875 9.632812 57.246094 C 10.144531 56.195312 10.945312 55.320312 11.9375 54.714844 C 12.578125 53.910156 13.730469 53.867188 14.632812 54.226562 C 15.617188 54.5625 16.421875 55.292969 16.855469 56.246094 C 17.222656 57.105469 17.453125 58.039062 17.324219 58.980469 C 17.339844 60.0625 17.019531 61.09375 16.1875 61.804688 C 15.117188 62.34375 16.921875 62.839844 17.304688 63.328125 C 18.191406 63.773438 18.660156 64.660156 19.179688 65.453125 C 19.472656 66.257812 19.921875 67.003906 19.894531 67.898438 C 19.800781 68.8125 20.03125 69.8125 19.628906 70.660156 C 19.398438 71.410156 19.042969 72.128906 18.675781 72.832031 C 17.984375 73.839844 17.066406 74.667969 15.996094 75.25 C 15.292969 75.71875 14.488281 76.007812 13.617188 76.023438 C 13.160156 76.023438 12.703125 76.265625 12.246094 76.117188 Z M 14.257812 74.640625 C 15.046875 74.546875 15.75 74.234375 16.335938 73.707031 C 17.324219 72.8125 18.230469 71.667969 18.449219 70.308594 C 18.503906 68.960938 18.640625 67.484375 17.835938 66.3125 C 17.359375 65.46875 16.695312 64.746094 15.894531 64.207031 C 15.15625 63.671875 14.195312 63.550781 13.335938 63.367188 C 12.578125 63.726562 11.726562 63.46875 10.984375 63.894531 C 10.089844 64.335938 9.613281 65.277344 8.972656 66.007812 C 8.523438 66.773438 8.03125 67.503906 7.9375 68.425781 C 7.660156 69.480469 7.691406 70.59375 8.03125 71.628906 C 8.570312 72.941406 9.511719 74.167969 10.910156 74.59375 C 12 74.796875 13.160156 74.777344 14.257812 74.640625 Z M 14.441406 61.714844 C 15.320312 61.484375 15.933594 60.726562 16.234375 59.902344 C 16.296875 59.046875 16.535156 58.085938 16.144531 57.28125 C 15.675781 56.460938 15.164062 55.492188 14.148438 55.296875 C 12.832031 54.972656 11.6875 56.027344 10.984375 57.023438 C 10.347656 57.980469 10.210938 59.1875 10.617188 60.265625 C 10.949219 60.984375 11.5625 61.878906 12.484375 61.601562 C 13.144531 61.519531 13.792969 61.980469 14.441406 61.714844 Z M 34.472656 97.90625 C 32.925781 97.492188 31.535156 96.789062 31.546875 94.90625 C 30.835938 93.511719 31.015625 91.824219 32.003906 90.613281 C 32.828125 89.273438 33.640625 87.917969 34.296875 86.457031 C 35.019531 85.414062 35.835938 84.269531 36.339844 83.003906 C 37.316406 82.277344 37.382812 78.1875 37.390625 77.4375 C 37.445312 73.523438 37.34375 69.5625 37.089844 65.683594 C 37.1875 64.160156 36.3125 62.960938 35.480469 61.824219 C 34.28125 60.355469 31.894531 56.644531 32.910156 58.207031 C 31.800781 56.929688 30.941406 55.554688 29.808594 54.300781 C 28.800781 52.722656 27.53125 51.429688 26.753906 49.691406 C 25.964844 48.308594 26.339844 45.554688 26.066406 44.707031 C 26.925781 43.847656 27.265625 42.941406 28.4375 41.585938 C 30.027344 39.878906 30.96875 38.816406 31.820312 37.617188 C 33.117188 36.265625 34.480469 34.429688 36.613281 34.632812 C 38.03125 34.292969 39.796875 32.074219 40.050781 31.9375 C 40.800781 30.597656 41.167969 29.304688 41.515625 28.289062 C 41.761719 27.183594 42.980469 25.59375 42.703125 28.085938 C 42.15625 29.90625 44.769531 33.710938 44.066406 32.539062 C 42.75 33.515625 41.78125 34.699219 40.382812 35.261719 C 39.382812 36.121094 38.378906 37.164062 37.398438 37.996094 C 36.394531 39.296875 35.570312 40.664062 34.472656 41.769531 C 33.3125 42.972656 32.242188 44.320312 31.207031 45.613281 C 30.292969 47.46875 31.589844 49.332031 32.550781 50.773438 C 33.59375 52.074219 34.820312 53.449219 36.375 54.152344 C 37.867188 54.714844 39.285156 53.996094 40.910156 53.089844 C 42.046875 52.082031 42.660156 52.140625 43.296875 51.058594 C 43.894531 49.703125 43.984375 47.808594 43.617188 46.292969 C 42.832031 43.5625 42.257812 40.367188 43.070312 37.515625 C 44.421875 36.5625 45.429688 35.078125 47.160156 34.707031 C 48.605469 34.558594 50.121094 35.75 51.15625 36.257812 C 51.859375 38.707031 51.328125 41.410156 51.429688 43.949219 C 51.300781 45.757812 50.351562 47.179688 49.929688 48.878906 C 49.289062 50.386719 48.960938 52.683594 50.433594 53.773438 C 52.214844 54.578125 54.0625 53.488281 55.691406 52.988281 C 56.679688 52.601562 59.605469 50.996094 58.617188 51.511719 C 59.835938 50.894531 63.074219 48.511719 62.003906 49.15625 C 63.613281 48.257812 64.230469 46.234375 63.394531 44.578125 C 62.925781 43.082031 62.214844 41.550781 61.179688 40.339844 C 59.953125 39.082031 59.078125 37.671875 58.984375 35.859375 C 58.261719 34.28125 55.234375 33.292969 56.121094 31.375 C 56.421875 30.109375 57.320312 27.875 57.429688 27.503906 C 57.90625 29.25 58.390625 30.902344 58.984375 32.539062 C 60.265625 35.003906 60.394531 35.324219 61.582031 35.90625 C 63.292969 36.480469 64.5 38.34375 65.257812 39.40625 C 66.246094 40.828125 69.007812 44.144531 67.8125 42.695312 C 67.042969 41.882812 70.015625 45.140625 70.589844 46.109375 C 71.917969 47.828125 69.722656 49.425781 68.679688 50.542969 C 67.28125 51.851562 65.714844 52.925781 64.382812 54.316406 C 62.203125 55.667969 60.722656 56.828125 60.722656 56.820312 C 59.433594 57.761719 56.980469 61.816406 57.703125 60.46875 C 56.855469 61.777344 56.378906 63.367188 55.371094 64.660156 C 54.722656 66.386719 54.757812 68.046875 54.660156 69.902344 C 54.054688 72.15625 54.328125 74.75 54.046875 77.132812 C 53.214844 80.328125 56.769531 79.414062 57.980469 81.09375 C 58.964844 82.210938 62.9375 83.328125 61.636719 82.949219 C 63.21875 83.53125 64.855469 84.105469 66.539062 84.519531 C 68.078125 85.148438 69.730469 85.609375 71.421875 86.0625 C 72.492188 86.414062 73.867188 87.382812 73.984375 88.859375 C 73.574219 90.503906 71.5625 92.542969 70.820312 92.699219 C 68.523438 93.226562 65.269531 93.191406 63.558594 93.292969 C 61.464844 93.355469 59.058594 93.640625 56.855469 93.761719 C 54.730469 94.003906 52.757812 94.824219 50.660156 95.230469 C 48.878906 95.507812 47.285156 96.457031 45.4375 96.746094 C 43.253906 97.675781 40.691406 97.84375 38.230469 97.816406 C 36.8125 97.714844 35.882812 98.183594 34.472656 97.90625 Z M 34.472656 97.90625 "
    />
  </g>
</svg>
