<svg id="root" xmlns="http://www.w3.org/2000/svg" width="768" height="441" viewBox="0 0 7680 4410">
  <g>
    <path
      d="M5909 2766c-2-3-99-12-214-21-227-18-317-36-340-69-26-36-19-46 23-34 46 13 151 5 180-13 79-49-1-139-157-179-48-12-67-21-69-35-3-13 0-16 12-12 45 17 136 29 178 23 53-8 98-38 98-66 0-46-103-118-192-135-43-8-62-20-55-33 4-6 36-2 84 9 154 37 253 15 253-57 0-35-74-90-154-115-42-13-76-26-76-30 0-11 78-32 102-26 88 21 275 84 338 112 41 19 104 45 140 58l65 24 6 69c4 55 2 73-11 89-36 46-68 147-79 252-8 73-31 151-54 181-9 11-68 17-78 8zm-1084-65c-54-9-77-23-109-66-54-71-70-135-71-290 0-156 13-236 57-365 35-98 82-181 130-226 60-57 86-63 176-43l50 12-58 56c-118 116-210 379-210 601 0 122 37 250 88 303 29 30 26 31-53 18z" />
    <path
      d="M4920 2677c-68-34-110-216-91-388 31-273 161-529 268-529 34 0 32 11-9 48-23 20-52 54-65 75-142 225-180 737-59 796 20 9 21 10 1 10-11 0-31-5-45-12z" />
    <path
      d="M4989 2656c-45-31-61-81-64-201-7-214 54-461 144-583 35-47 85-82 118-82 14 0 50 31 108 94 59 65 96 97 116 101l29 7-19 27c-33 46-71 141-97 245-20 78-26 129-27 224l-2 123-35-7c-77-15-133 0-179 50-30 32-47 33-92 2zm-459-12c-52-13-117-25-143-26-42-3-48-6-53-28-18-81-68-155-140-206-97-69-216-63-287 15-19 21-38 48-42 60-4 14-12 20-23 17-66-20-225-56-244-56-14 0-37-13-53-30-15-16-42-32-59-35-46-10-74-31-95-73-70-140-57-402 32-637 51-136 132-246 190-260 12-3 154 27 316 68l295 73 12 49c9 36 24 61 52 87 47 44 93 58 188 58 59 0 81-5 130-30 32-16 66-30 74-30 26 0 160 35 160 42 0 4-9 12-19 18-28 15-105 135-134 210-46 116-69 228-75 355-6 145 9 245 47 321 16 30 23 54 17 54s-20 2-31 5c-11 2-63-7-115-21zm-250-434c53-14 127-65 149-101 45-74 30-193-32-245-54-46-105-64-183-64-84 0-147 19-198 62-46 38-66 81-66 143 0 100 58 175 160 206 36 11 129 10 170-1z" />
    <path
      d="M4105 2189c-86-32-128-92-129-185-1-52 3-66 27-97 73-95 245-121 350-51 125 82 108 246-33 319-42 22-171 30-215 14zm100 431c-38-5-97-16-130-25s-78-21-100-26c-50-12-82-37-90-69-8-34 44-106 90-126 116-48 274 37 325 174 20 53 20 57 4 69-10 7-20 12-23 12-3-1-37-5-76-9zm1871-7c-19-49 50-283 84-283 14 0 12 97-4 155-16 59-55 145-66 145-4 0-11-8-14-17zm-691 0c-22-2-43-7-46-11-11-12-20-116-11-130 17-25 211 56 226 95s-56 59-169 46zm65-219c-14-2-44-7-67-10-40-5-43-7-43-37 0-40 18-107 29-107 12 0 122 39 159 56 18 8 40 26 49 40 14 22 14 27 2 39-15 15-89 26-129 19zm-2141-71c-97-50-139-153-139-342 0-220 77-463 183-578 60-65 94-78 172-62l62 12-61 61c-113 113-191 324-211 572-11 134 22 291 72 346 15 17 15 18-4 18-11 0-44-12-74-27z" />
    <path
      d="M3100 2241c-47-15-112-36-145-46-70-20-118-53-142-98-16-31-20-60-41-278-5-53-13-102-16-108-16-25-26 4-26 73v74l-202-115c-326-184-378-220-533-365-118-111-145-154-145-232 0-77 14-128 45-163l23-28 319 79c175 43 335 82 356 87 35 9 37 12 38 52 1 71 13 130 28 135 11 4 13-15 9-109-9-184-30-214-183-258-39-11-96-29-127-40-32-12-66-21-77-21-41 0-50-49-16-84 12-12 34-9 151 21 75 18 144 33 152 31 9-2 19-14 22-28 6-25 6-25 106-21 132 5 159 20 218 123 26 45 29 47 104 63 106 23 283 83 306 103 30 26 56 93 56 142 0 25 6 55 14 66 13 18 12 22-15 39-111 73-214 317-238 560-12 123-1 233 32 315 14 33 22 60 18 60-3-1-44-13-91-29zm2425-57c-11-2-44-9-72-15-29-6-55-14-58-19-6-10 39-105 54-115 13-8 126 31 177 60 76 45 65 83-27 90-30 2-63 2-74-1zm-1147-498c-76-28-112-64-124-123l-6-31 168 42c93 23 183 50 199 59l30 16-48 21c-61 27-169 35-219 16z" />
    <path
      d="M3422 1283c-5-10-12-44-15-75-6-62-35-123-70-149-25-18-176-75-225-85-17-4-32-9-32-13 0-3 22-14 48-23 41-15 60-16 145-6 105 12 111 17 75 63-30 38-15 56 58 71 59 12 174 58 174 69 0 24-121 165-142 165-4 0-11-8-16-17zm2040-233c-200-28-376-114-520-254-124-119-207-267-247-436-24-100-24-283-1-328l17-32h1748l8 48c4 26 7 94 6 152-5 319-192 609-491 761-145 73-364 111-520 89zM2965 940c-4-7 3-8 22-4 38 9 42 14 10 14-14 0-29-5-32-10z" />
  </g>
</svg>