<svg xmlns="http://www.w3.org/2000/svg" id="root" viewBox="0 0 99 82">
  <g>
    <path
      d="M 21.289062 81.894531 C 19.382812 81.671875 16.320312 80.988281 13.308594 80.113281 C 9.164062 78.902344 8.160156 78.363281 6.304688 76.433594 C 5.179688 75.246094 4.554688 74.335938 4.175781 73.292969 C 3.851562 72.410156 3.792969 69.941406 4.027344 66.351562 C 4.117188 64.828125 4.253906 62.585938 4.320312 61.386719 C 4.429688 59.300781 4.644531 56.351562 5.054688 51.292969 C 5.324219 48.066406 5.324219 44.476562 5.066406 43.175781 C 4.742188 41.5625 4.195312 40.226562 3.203125 38.554688 C 1.984375 36.539062 1.527344 35.527344 0.980469 33.691406 C -0.359375 29.183594 -0.324219 26.46875 1.082031 24.046875 C 2.042969 22.398438 2.855469 21.46875 4.585938 20.042969 C 6.730469 18.28125 7.390625 17.632812 7.746094 16.882812 C 8.015625 16.332031 8.058594 16.109375 8.125 14.46875 C 8.238281 11.9375 8.507812 11.285156 10.070312 9.738281 C 12.011719 7.832031 15.71875 5.746094 19.222656 4.613281 C 25.433594 2.605469 35.15625 0.710938 42.167969 0.152344 C 45.765625 -0.140625 51.378906 -0.00390625 57.746094 0.511719 C 59.742188 0.679688 62.234375 0.769531 66.507812 0.835938 C 72.71875 0.9375 73.597656 0.992188 75.417969 1.453125 C 76.726562 1.789062 79.257812 3.023438 80.410156 3.886719 C 81.414062 4.625 84.105469 7.351562 85.054688 8.574219 C 86.035156 9.839844 86.472656 10.566406 87.8125 13.226562 C 89.074219 15.714844 89.632812 16.523438 91.183594 18.148438 C 92.589844 19.617188 95.492188 22.308594 96.910156 23.453125 C 97.535156 23.957031 98.261719 24.605469 98.53125 24.898438 L 99 25.414062 L 99 39.992188 L 98.476562 40.675781 C 98.171875 41.054688 97.59375 41.75 97.167969 42.210938 C 96.746094 42.671875 96.117188 43.410156 95.773438 43.835938 C 95.4375 44.273438 94.542969 45.328125 93.808594 46.191406 C 91.472656 48.894531 91.082031 49.464844 89.734375 52.023438 C 86.09375 58.941406 84.382812 60.769531 77.953125 64.660156 C 75.015625 66.441406 73.800781 67.070312 67.792969 69.90625 C 64.914062 71.265625 60.992188 73.203125 59.085938 74.214844 C 52.207031 77.867188 52.285156 77.835938 48.253906 77.96875 C 45.796875 78.058594 45.597656 78.082031 43.621094 78.53125 C 34.296875 80.660156 30.570312 81.402344 27.152344 81.792969 C 25.175781 82.027344 22.796875 82.0625 21.289062 81.894531 Z M 25.992188 80.222656 C 29.363281 79.875 34.722656 78.855469 42.894531 76.972656 C 45.40625 76.390625 46.175781 76.289062 48.699219 76.199219 C 50.945312 76.121094 51.234375 76.085938 52.015625 75.816406 C 52.964844 75.492188 55.019531 74.460938 59.574219 72.050781 C 61.183594 71.199219 64.097656 69.75 66.050781 68.84375 C 71.757812 66.175781 74.347656 64.851562 76.78125 63.382812 C 80.554688 61.09375 81.648438 60.285156 83.445312 58.449219 C 85.15625 56.710938 85.914062 55.566406 88.136719 51.40625 C 89.566406 48.75 90.222656 47.773438 91.921875 45.800781 C 92.636719 44.96875 93.652344 43.757812 94.175781 43.109375 C 94.699219 42.457031 95.515625 41.515625 95.972656 41 C 97.882812 38.902344 98.242188 38.019531 98.441406 34.722656 C 98.621094 31.917969 98.328125 28.105469 97.847656 26.9375 C 97.625 26.414062 97.089844 25.816406 96.152344 25.066406 C 94.722656 23.921875 90.390625 19.875 89.375 18.730469 C 88.058594 17.230469 87.464844 16.320312 86.191406 13.785156 C 84.652344 10.703125 84.285156 10.164062 82.207031 7.898438 C 80.277344 5.804688 78.65625 4.558594 76.746094 3.726562 C 74.515625 2.753906 73.441406 2.628906 67.054688 2.585938 C 63.015625 2.550781 61.417969 2.484375 58.414062 2.257812 C 52.808594 1.8125 51.046875 1.730469 47.316406 1.730469 C 42.59375 1.730469 40.070312 1.933594 35.246094 2.695312 C 28.871094 3.707031 21.269531 5.535156 18.007812 6.855469 C 15.394531 7.898438 12.804688 9.480469 11.285156 10.960938 C 10.023438 12.171875 9.902344 12.464844 9.789062 14.785156 C 9.644531 17.8125 9.21875 18.507812 5.9375 21.132812 C 3.738281 22.878906 2.464844 24.574219 1.90625 26.457031 C 1.503906 27.824219 1.730469 30.113281 2.542969 32.960938 C 3.035156 34.675781 3.480469 35.6875 4.609375 37.570312 C 5.757812 39.507812 6.105469 40.316406 6.484375 41.832031 C 7.132812 44.464844 7.144531 46.316406 6.507812 54.601562 C 6.296875 57.4375 6.039062 61.152344 5.9375 62.84375 C 5.835938 64.535156 5.714844 66.609375 5.660156 67.441406 C 5.601562 68.269531 5.546875 69.582031 5.546875 70.355469 C 5.546875 72.757812 5.90625 73.597656 7.667969 75.402344 C 9.074219 76.835938 9.800781 77.253906 12.132812 77.980469 C 18.453125 79.945312 22.382812 80.582031 25.992188 80.222656 Z M 25.992188 80.222656 "
    />
    <path
      d="M 23.859375 73.203125 C 19.78125 72.945312 18.050781 72.699219 16.410156 72.160156 C 14.179688 71.433594 11.398438 69.863281 10.851562 69.035156 C 10.347656 68.257812 10.023438 65.960938 10.382812 65.667969 C 10.671875 65.421875 10.804688 65.726562 10.90625 66.789062 C 11.03125 68.058594 11.140625 68.382812 11.609375 68.875 C 12.636719 69.953125 15.820312 71.445312 18.109375 71.925781 C 20.53125 72.441406 22.226562 72.542969 28.546875 72.542969 C 34.664062 72.542969 36.453125 72.464844 40.660156 72.027344 C 49.636719 71.085938 56.738281 69.078125 68.609375 64.109375 C 72.558594 62.460938 73.542969 62.015625 77.148438 60.1875 C 79.964844 58.75 80.164062 58.671875 80.332031 58.851562 C 80.511719 59.03125 80.5 59.066406 80.253906 59.265625 C 79.894531 59.558594 74.917969 62.070312 72.863281 62.988281 C 66.261719 65.960938 57.933594 69.078125 53.089844 70.414062 C 48.296875 71.722656 42.390625 72.667969 36.585938 73.046875 C 34.800781 73.171875 25.097656 73.28125 23.859375 73.203125 Z M 23.859375 73.203125 "
    />
    <path
      d="M 33.292969 70.46875 C 27.8125 70.265625 22.304688 69.59375 20.027344 68.84375 C 19.558594 68.695312 18.824219 68.394531 18.410156 68.179688 C 16.980469 67.453125 14.433594 65.457031 14.5 65.097656 C 14.578125 64.726562 14.9375 64.875 15.886719 65.648438 C 18.675781 67.933594 20.152344 68.507812 24.863281 69.121094 C 29.628906 69.726562 35.066406 69.996094 38.796875 69.808594 C 43.285156 69.570312 46.65625 68.921875 50.988281 67.453125 C 56.738281 65.5 60.210938 64.019531 68.207031 60.074219 C 70.929688 58.726562 71.554688 58.460938 71.691406 58.570312 C 71.777344 58.648438 71.824219 58.785156 71.789062 58.875 C 71.65625 59.246094 61.25 64.234375 57.441406 65.769531 C 55.308594 66.632812 50.910156 68.203125 49.214844 68.71875 C 47.25 69.3125 44.277344 69.941406 42.234375 70.1875 C 40.941406 70.34375 36.6875 70.59375 35.859375 70.558594 C 35.683594 70.546875 34.519531 70.511719 33.292969 70.46875 Z M 33.292969 70.46875 "
    />
    <path
      d="M 32.511719 67.027344 C 30.804688 66.9375 26.683594 66.644531 26.515625 66.589844 C 26.269531 66.511719 26.179688 66.253906 26.371094 66.09375 C 26.480469 66.003906 26.90625 65.996094 28.011719 66.085938 C 34.128906 66.578125 37.992188 66.53125 43.285156 65.90625 C 44.179688 65.804688 45.207031 65.714844 45.574219 65.714844 C 46.167969 65.703125 46.246094 65.726562 46.246094 65.914062 C 46.246094 66.21875 46.042969 66.253906 42.949219 66.589844 C 38.527344 67.070312 35.726562 67.195312 32.511719 67.027344 Z M 29.585938 63.628906 C 28.726562 63.574219 27.183594 63.460938 26.179688 63.359375 C 25.1875 63.257812 23.613281 63.136719 22.6875 63.066406 C 17.671875 62.699219 15.605469 61.878906 13.855469 59.558594 C 12.449219 57.6875 11.734375 55.164062 11.609375 51.519531 C 11.554688 49.902344 11.578125 49.5 11.789062 48.378906 C 11.933594 47.671875 12.234375 46.484375 12.46875 45.742188 C 12.949219 44.242188 14.625 35.328125 14.757812 33.542969 C 14.859375 32.085938 15.003906 31.785156 15.617188 31.785156 C 16.152344 31.785156 16.300781 32.164062 16.152344 33.253906 C 15.941406 34.957031 16.042969 36.269531 16.457031 37.144531 C 17.203125 38.734375 21.769531 41.449219 26.101562 42.863281 C 31.671875 44.679688 38.027344 44.433594 49.59375 41.921875 C 55.042969 40.742188 60.445312 39.328125 64.21875 38.097656 C 67.269531 37.097656 72.28125 35.136719 77.183594 33.039062 C 81.773438 31.066406 81.414062 31.269531 81.4375 30.605469 C 81.480469 29.71875 81.695312 28.722656 81.882812 28.507812 C 82.117188 28.238281 82.621094 28.25 82.867188 28.53125 C 83.042969 28.734375 83.054688 28.835938 82.933594 29.53125 C 82.597656 31.582031 82.820312 32.0625 84.484375 32.90625 C 85.558594 33.441406 86.460938 33.746094 87.566406 33.925781 C 88.472656 34.070312 88.839844 34.296875 88.839844 34.699219 C 88.839844 34.980469 88.460938 35.371094 88.203125 35.371094 C 87.6875 35.371094 85.949219 34.992188 85.289062 34.742188 C 84.886719 34.597656 84.496094 34.484375 84.429688 34.519531 C 84.363281 34.542969 84.238281 34.855469 84.160156 35.214844 C 83.726562 37.199219 82.753906 39.261719 81.089844 41.820312 C 80.050781 43.410156 76.65625 48.121094 75.5625 49.5 C 74.503906 50.835938 72.515625 52.898438 71.421875 53.816406 C 68.429688 56.304688 63.652344 58.929688 58.636719 60.847656 C 52.785156 63.078125 48.65625 63.617188 37.089844 63.683594 C 33.839844 63.707031 30.457031 63.671875 29.585938 63.628906 Z M 49.480469 61.777344 C 51.378906 61.554688 52.429688 61.351562 54.183594 60.882812 C 56.015625 60.386719 58.59375 59.46875 58.660156 59.289062 C 58.695312 59.222656 58.234375 57.855469 57.65625 56.261719 C 57.074219 54.667969 56.5625 53.257812 56.527344 53.121094 C 56.484375 52.976562 56.40625 52.863281 56.335938 52.863281 C 56.28125 52.863281 55.421875 53.097656 54.429688 53.378906 C 52.496094 53.929688 48.21875 54.949219 47.371094 55.0625 C 47.09375 55.105469 46.824219 55.195312 46.769531 55.261719 C 46.722656 55.332031 46.800781 56.867188 46.957031 58.671875 L 47.238281 61.945312 L 47.640625 61.945312 C 47.851562 61.945312 48.6875 61.867188 49.480469 61.777344 Z M 44.738281 61.140625 C 44.738281 60.511719 44.324219 55.78125 44.269531 55.722656 C 44.246094 55.699219 43.195312 55.824219 41.945312 56.003906 C 40.683594 56.183594 39.085938 56.386719 38.40625 56.464844 L 37.144531 56.597656 L 37.144531 57.082031 C 37.144531 57.574219 37.324219 59.972656 37.433594 61.027344 L 37.492188 61.609375 L 44.738281 61.609375 Z M 34.644531 61.308594 C 34.578125 61.082031 33.996094 58.539062 33.785156 57.550781 L 33.648438 56.902344 L 31.484375 56.902344 C 29.832031 56.902344 29.328125 56.933594 29.339844 57.046875 C 29.339844 57.113281 29.675781 58.113281 30.089844 59.253906 L 30.835938 61.328125 L 31.730469 61.398438 C 32.222656 61.429688 33.089844 61.464844 33.660156 61.476562 C 34.609375 61.496094 34.699219 61.476562 34.644531 61.308594 Z M 27.386719 60.578125 C 27.351562 60.308594 27.261719 59.546875 27.195312 58.863281 C 27.019531 57.101562 26.929688 56.867188 26.371094 56.765625 C 25.542969 56.621094 23.03125 56.339844 22.988281 56.394531 C 22.929688 56.453125 24.605469 60.601562 24.738281 60.746094 C 24.828125 60.835938 26.179688 61.015625 26.972656 61.039062 L 27.453125 61.050781 Z M 22.296875 60.355469 C 22.296875 60.277344 21.980469 59.277344 21.601562 58.121094 L 20.910156 56.039062 L 19.480469 55.722656 C 18.6875 55.554688 18.019531 55.441406 17.972656 55.476562 C 17.886719 55.578125 18.832031 59.511719 18.988281 59.671875 C 19.058594 59.738281 19.59375 59.929688 20.171875 60.085938 C 21.769531 60.511719 22.296875 60.578125 22.296875 60.355469 Z M 16.007812 56.453125 L 15.753906 54.828125 L 14.667969 54.5 C 14.078125 54.320312 13.5625 54.199219 13.53125 54.230469 C 13.464844 54.300781 14.132812 56.09375 14.5 56.820312 C 14.613281 57.058594 15.046875 57.585938 15.460938 58 L 16.210938 58.75 L 16.230469 58.414062 C 16.253906 58.234375 16.152344 57.347656 16.007812 56.453125 Z M 63.917969 57 C 65.972656 55.925781 68.296875 54.511719 69.578125 53.535156 C 70.160156 53.097656 70.640625 52.707031 70.640625 52.671875 C 70.640625 52.640625 70.417969 51.796875 70.148438 50.800781 C 69.871094 49.804688 69.589844 48.769531 69.523438 48.503906 C 69.367188 47.90625 69.480469 47.886719 67.066406 48.917969 C 65.460938 49.601562 62.871094 50.597656 60.613281 51.40625 C 60.234375 51.550781 59.898438 51.699219 59.875 51.730469 C 59.84375 51.789062 60.503906 53.625 61.773438 57.046875 C 61.941406 57.496094 62.132812 57.796875 62.222656 57.796875 C 62.3125 57.796875 63.070312 57.4375 63.917969 57 Z M 74.515625 48.636719 C 75.574219 47.3125 78.265625 43.546875 78.1875 43.480469 C 78.164062 43.445312 77.371094 43.859375 76.421875 44.386719 C 75.484375 44.902344 74.269531 45.585938 73.710938 45.878906 C 73.164062 46.179688 72.707031 46.472656 72.707031 46.527344 C 72.707031 46.875 73.507812 49.613281 73.609375 49.613281 C 73.675781 49.613281 74.078125 49.175781 74.515625 48.636719 Z M 42.539062 46.933594 C 42.582031 45.742188 42.605469 44.746094 42.570312 44.710938 C 42.546875 44.691406 42 44.734375 41.363281 44.835938 C 40.738281 44.925781 39.234375 45.09375 38.027344 45.207031 L 35.839844 45.394531 L 35.703125 47.023438 C 35.636719 47.929688 35.582031 48.75 35.582031 48.851562 C 35.582031 49.085938 36.296875 49.117188 40.046875 49.117188 L 42.449219 49.109375 Z M 47.808594 48.9375 C 49.492188 48.792969 52.195312 48.34375 53.746094 47.953125 C 54.898438 47.660156 54.953125 47.640625 54.929688 47.371094 C 54.910156 47.210938 54.820312 46.035156 54.730469 44.734375 C 54.628906 43.445312 54.519531 42.347656 54.472656 42.300781 C 54.429688 42.269531 53.667969 42.402344 52.777344 42.617188 C 51.882812 42.828125 49.90625 43.253906 48.367188 43.558594 C 46.835938 43.871094 45.472656 44.175781 45.351562 44.21875 C 45.140625 44.308594 45.128906 44.433594 45.082031 46.6875 L 45.050781 49.050781 L 45.765625 49.050781 C 46.144531 49.050781 47.070312 48.996094 47.808594 48.9375 Z M 33.046875 48.414062 C 33.089844 48.109375 33.148438 47.335938 33.191406 46.675781 L 33.269531 45.484375 L 32.777344 45.417969 C 32.511719 45.386719 31.839844 45.328125 31.28125 45.296875 C 30.175781 45.214844 28.378906 44.914062 27.097656 44.578125 C 26.636719 44.464844 26.246094 44.375 26.234375 44.386719 C 26.179688 44.433594 25.855469 48.402344 25.902344 48.457031 C 25.992188 48.535156 30.421875 48.859375 32.300781 48.917969 L 32.980469 48.9375 Z M 22.585938 46.394531 C 22.628906 45.472656 22.675781 44.363281 22.675781 43.90625 L 22.6875 43.085938 L 21.289062 42.367188 C 20.519531 41.976562 19.859375 41.652344 19.816406 41.652344 C 19.714844 41.652344 19.726562 44.34375 19.828125 46.25 L 19.894531 47.527344 L 20.84375 47.773438 C 21.367188 47.90625 21.949219 48.03125 22.140625 48.03125 L 22.496094 48.042969 Z M 17.605469 43.46875 L 17.605469 40.238281 L 16.488281 39.410156 L 16.222656 39.933594 C 15.707031 40.957031 14.234375 44.800781 14.210938 45.148438 L 14.199219 45.507812 L 15.707031 46.101562 C 16.535156 46.425781 17.304688 46.695312 17.414062 46.695312 C 17.59375 46.695312 17.605469 46.472656 17.605469 43.46875 Z M 59.386719 46.203125 C 59.953125 45.992188 61.753906 45.296875 63.382812 44.65625 C 65.011719 44.003906 66.910156 43.265625 67.601562 42.996094 L 68.855469 42.515625 L 68.855469 40.214844 C 68.855469 38.085938 68.84375 37.929688 68.664062 37.984375 C 68.550781 38.019531 67.28125 38.457031 65.839844 38.960938 C 63.425781 39.800781 58.773438 41.203125 58.402344 41.203125 C 58.269531 41.203125 58.246094 41.664062 58.246094 43.894531 C 58.246094 45.375 58.269531 46.585938 58.300781 46.585938 C 58.324219 46.585938 58.816406 46.417969 59.386719 46.203125 Z M 75.453125 39.757812 C 79.058594 38.1875 82.074219 36.816406 82.21875 36.671875 C 82.363281 36.539062 82.84375 35 82.976562 34.214844 C 83.054688 33.8125 83.035156 33.769531 82.40625 33.164062 C 81.816406 32.601562 81.726562 32.546875 81.46875 32.65625 C 81.3125 32.714844 79.863281 33.351562 78.230469 34.046875 C 76.601562 34.753906 74.792969 35.527344 74.214844 35.773438 L 73.152344 36.222656 L 73.085938 37.109375 C 72.875 39.734375 72.863281 40.753906 73.019531 40.753906 C 73.097656 40.753906 74.203125 40.304688 75.453125 39.757812 Z M 75.453125 39.757812 "
    />
    <path
      d="M 90.222656 41.941406 C 90.125 41.671875 90.246094 41.5625 91.105469 41.125 C 93.539062 39.902344 94.554688 38.644531 95.382812 35.875 C 95.660156 34.96875 95.683594 34.6875 95.695312 33.128906 C 95.695312 31.546875 95.660156 31.300781 95.394531 30.394531 C 94.554688 27.691406 93.351562 25.996094 91.21875 24.574219 C 89.410156 23.363281 87.867188 22.925781 85.132812 22.847656 C 83.613281 22.800781 83.113281 22.746094 83.023438 22.621094 C 82.753906 22.308594 83.089844 22.230469 84.617188 22.242188 C 86.515625 22.253906 87.644531 22.410156 88.894531 22.824219 C 90.535156 23.375 91.832031 24.167969 93.183594 25.449219 C 94.042969 26.265625 94.644531 27.128906 95.214844 28.386719 C 96.746094 31.683594 96.675781 35.070312 95.023438 38.285156 C 94.308594 39.6875 93.417969 40.519531 91.519531 41.5625 C 90.570312 42.089844 90.3125 42.167969 90.222656 41.941406 Z M 35.925781 41.316406 C 35.125 41.023438 34.296875 40.519531 33.246094 39.675781 C 32.210938 38.835938 30.433594 36.996094 30.089844 36.378906 C 29.886719 36.03125 29.742188 35.921875 29.363281 35.832031 C 28.378906 35.574219 27.96875 35.695312 25.019531 37.066406 C 23.34375 37.839844 22.910156 37.9375 22.988281 37.535156 C 23.019531 37.34375 25.074219 36.359375 27.128906 35.527344 C 28.023438 35.167969 28.222656 35.125 28.847656 35.179688 L 29.550781 35.238281 L 29.550781 34.820312 C 29.5625 34.25 29.886719 33.589844 30.421875 33.105469 C 30.667969 32.882812 31.460938 32.390625 32.199219 32.019531 C 33.851562 31.15625 34.988281 30.324219 35.203125 29.820312 C 35.390625 29.363281 35.402344 28.65625 35.234375 27.007812 C 35.046875 25.023438 35.15625 25.179688 33.738281 24.808594 C 30.625 23.992188 30.199219 23.921875 24.472656 23.316406 C 22.394531 23.09375 22.058594 23.003906 21.558594 22.566406 C 20.832031 21.925781 20.632812 21.097656 21.054688 20.546875 C 21.324219 20.199219 22.328125 19.742188 23.488281 19.4375 C 25.554688 18.878906 29.316406 19.304688 31.875 20.390625 C 32.957031 20.851562 34.195312 21.546875 35.882812 22.65625 C 36.574219 23.117188 37.1875 23.484375 37.265625 23.484375 C 37.335938 23.484375 37.679688 23.304688 38.039062 23.09375 C 38.394531 22.878906 38.785156 22.699219 38.910156 22.699219 C 39.476562 22.699219 39.691406 23.484375 39.234375 23.910156 C 38.875 24.257812 37.34375 25.03125 36.855469 25.121094 L 36.441406 25.203125 L 36.519531 25.886719 C 36.699219 27.667969 36.730469 29.539062 36.585938 30.035156 C 36.308594 31.03125 35.058594 32.085938 32.710938 33.285156 C 31.316406 34.003906 30.835938 34.441406 30.949219 34.910156 C 31.09375 35.507812 31.628906 36.246094 32.667969 37.277344 C 33.90625 38.5 34.910156 39.296875 35.828125 39.757812 C 36.710938 40.203125 37.089844 40.183594 37.914062 39.621094 C 38.285156 39.375 38.617188 39.117188 38.652344 39.0625 C 38.761719 38.890625 39.34375 38.949219 39.535156 39.140625 C 39.632812 39.230469 39.710938 39.464844 39.710938 39.632812 C 39.710938 39.902344 39.589844 40.058594 39.132812 40.429688 C 37.859375 41.4375 36.945312 41.695312 35.925781 41.316406 Z M 30.324219 21.9375 L 30.523438 21.34375 L 30.253906 21.230469 C 29.308594 20.875 27.644531 20.636719 25.921875 20.636719 C 24.25 20.625 24.082031 20.648438 23.222656 20.941406 C 22.707031 21.121094 22.296875 21.300781 22.296875 21.355469 C 22.296875 21.679688 22.773438 21.769531 26.929688 22.207031 C 28.46875 22.363281 29.742188 22.519531 29.777344 22.542969 C 29.933594 22.699219 30.15625 22.453125 30.324219 21.9375 Z M 51.960938 39.320312 C 51.660156 38.992188 51.726562 38.714844 52.351562 37.769531 C 53.367188 36.210938 53.992188 34.472656 53.679688 34.09375 C 53.546875 33.925781 52.273438 33.554688 51.15625 33.363281 C 50.410156 33.230469 50.183594 33.050781 50.183594 32.636719 C 50.183594 31.972656 50.65625 31.863281 52.195312 32.1875 C 54.082031 32.578125 54.808594 33.003906 55.03125 33.867188 L 55.164062 34.339844 L 56.058594 34.40625 C 57.621094 34.542969 63.539062 35.160156 63.695312 35.203125 C 63.875 35.269531 63.863281 35.585938 63.671875 35.664062 C 63.582031 35.695312 62.042969 35.574219 60.234375 35.382812 C 58.4375 35.191406 56.539062 35.023438 56.023438 35.011719 L 55.085938 34.980469 L 54.839844 35.765625 C 54.539062 36.726562 54.082031 37.648438 53.367188 38.679688 C 52.921875 39.328125 52.777344 39.476562 52.484375 39.496094 C 52.261719 39.519531 52.082031 39.464844 51.960938 39.320312 Z M 8.507812 38.914062 C 7.199219 38.375 5.859375 37.660156 5.335938 37.210938 C 4.609375 36.582031 4.507812 36.300781 4.417969 34.585938 C 4.339844 33.140625 4.308594 32.984375 3.648438 30.941406 C 2.96875 28.824219 2.957031 28.8125 2.945312 27.386719 C 2.933594 26.378906 2.96875 25.917969 3.070312 25.828125 C 3.347656 25.539062 3.460938 25.917969 3.492188 27.320312 C 3.515625 28.410156 3.582031 28.890625 3.804688 29.597656 C 3.960938 30.089844 4.261719 31.066406 4.488281 31.773438 C 4.800781 32.769531 4.886719 33.296875 4.945312 34.238281 C 5.023438 35.875 5.066406 36.101562 5.402344 36.492188 C 5.78125 36.953125 7.097656 37.714844 8.527344 38.308594 C 9.488281 38.703125 9.679688 38.824219 9.65625 39.003906 C 9.632812 39.128906 9.578125 39.238281 9.511719 39.25 C 9.457031 39.273438 8.996094 39.117188 8.507812 38.914062 Z M 8.507812 38.914062 "
    />
    <path
      d="M 89.800781 38.78125 C 89.53125 38.523438 89.585938 38.207031 90 37.511719 C 91.25 35.460938 91.785156 33.644531 91.71875 31.726562 C 91.6875 30.785156 91.628906 30.492188 91.386719 29.957031 C 90.523438 28.128906 88.773438 26.691406 86.738281 26.164062 C 85.097656 25.75 81.078125 25.953125 78.878906 26.570312 C 78.34375 26.726562 77.238281 27.140625 76.421875 27.5 C 74.492188 28.363281 73.734375 28.609375 72.371094 28.8125 C 70.886719 29.035156 68.316406 29.035156 67.203125 28.800781 C 65.625 28.488281 64.308594 27.714844 62.613281 26.109375 C 61.664062 25.210938 61.53125 24.921875 61.910156 24.574219 C 62.019531 24.460938 62.199219 24.382812 62.289062 24.382812 C 62.390625 24.382812 62.914062 24.785156 63.460938 25.292969 C 65.671875 27.320312 66.964844 27.859375 69.636719 27.859375 C 70.75 27.859375 72.75 27.625 73.554688 27.410156 C 73.820312 27.332031 74.871094 26.90625 75.898438 26.457031 C 78.78125 25.179688 80.6875 24.785156 84.148438 24.785156 C 85.980469 24.773438 86.316406 24.808594 87.097656 25.03125 C 88.617188 25.46875 89.65625 26.097656 90.804688 27.242188 C 92.890625 29.339844 93.359375 31.234375 92.578125 34.441406 C 92.300781 35.617188 91.84375 36.695312 91.128906 37.894531 C 90.523438 38.914062 90.167969 39.152344 89.800781 38.78125 Z M 49.113281 38.074219 C 47.976562 37.378906 47.652344 37.324219 45.640625 37.503906 C 43.332031 37.714844 43.074219 37.703125 42.882812 37.445312 C 42.671875 37.164062 42.683594 36.90625 42.929688 36.605469 C 43.09375 36.402344 43.332031 36.347656 44.679688 36.203125 C 45.539062 36.101562 46.703125 36.042969 47.25 36.066406 C 48.097656 36.101562 48.375 36.167969 49.035156 36.46875 C 50.476562 37.15625 50.957031 37.691406 50.609375 38.230469 C 50.351562 38.625 49.949219 38.589844 49.113281 38.074219 Z M 8.4375 35.730469 C 7.078125 34.832031 6.40625 34.058594 6.273438 33.230469 C 6.226562 32.996094 6.261719 32.34375 6.328125 31.792969 C 6.453125 30.898438 6.453125 30.707031 6.226562 29.71875 C 5.828125 27.859375 5.949219 27.175781 6.820312 26.457031 C 7.34375 26.03125 8.730469 25.3125 9.21875 25.210938 C 9.511719 25.144531 9.566406 25.179688 9.566406 25.371094 C 9.566406 25.539062 9.308594 25.71875 8.429688 26.15625 C 6.519531 27.085938 6.328125 27.488281 6.765625 29.597656 C 6.976562 30.617188 6.988281 30.832031 6.863281 31.90625 C 6.742188 33.050781 6.742188 33.105469 6.988281 33.621094 C 7.234375 34.117188 7.558594 34.417969 8.941406 35.40625 C 9.074219 35.496094 9.132812 35.628906 9.085938 35.742188 C 8.996094 35.976562 8.820312 35.976562 8.4375 35.730469 Z M 8.4375 35.730469 "
    />
    <path
      d="M 18.632812 31.335938 C 18.253906 31.179688 18.128906 30.71875 18.34375 30.269531 C 18.441406 30.054688 18.589844 29.832031 18.675781 29.753906 C 18.957031 29.519531 18.84375 29.316406 18.332031 29.09375 C 17.179688 28.597656 16.5 28.488281 14.703125 28.496094 C 12.660156 28.507812 11.890625 28.675781 10.160156 29.484375 C 8.953125 30.046875 8.527344 30.089844 8.394531 29.652344 C 8.261719 29.238281 8.5625 28.96875 9.757812 28.398438 C 11.621094 27.511719 12.28125 27.375 14.703125 27.367188 C 16.367188 27.367188 16.914062 27.398438 17.492188 27.566406 C 18.488281 27.835938 19.558594 28.363281 19.828125 28.722656 C 20.074219 29.023438 20.164062 29.878906 19.949219 29.878906 C 19.894531 29.878906 19.839844 29.957031 19.839844 30.046875 C 19.839844 30.136719 19.871094 30.214844 19.90625 30.214844 C 20.152344 30.214844 22.453125 29.472656 23.421875 29.09375 C 24.359375 28.710938 24.617188 28.644531 24.828125 28.746094 C 25.140625 28.890625 25.175781 29.429688 24.894531 29.675781 C 24.574219 29.957031 21.992188 30.886719 20.730469 31.179688 C 19.480469 31.457031 19.046875 31.492188 18.632812 31.335938 Z M 5.101562 25.558594 C 4.921875 25.347656 5.257812 25.03125 6.585938 24.148438 C 9.1875 22.433594 13.015625 21.546875 15.863281 22.027344 C 17.539062 22.296875 17.726562 22.363281 17.695312 22.621094 C 17.648438 22.914062 17.617188 22.914062 16.054688 22.644531 C 14.414062 22.363281 12.613281 22.453125 10.960938 22.902344 C 8.683594 23.53125 7.878906 23.902344 6.25 25.066406 C 5.75 25.4375 5.324219 25.726562 5.289062 25.726562 C 5.269531 25.726562 5.179688 25.648438 5.101562 25.558594 Z M 50.140625 25.605469 C 49.695312 25.480469 49.160156 24.933594 48.835938 24.28125 C 48.644531 23.878906 48.589844 23.574219 48.589844 22.867188 C 48.589844 22.09375 48.644531 21.871094 48.945312 21.230469 C 49.714844 19.640625 51.347656 18.699219 54.839844 17.789062 C 57.410156 17.117188 58.828125 16.9375 61.539062 16.9375 C 63.761719 16.925781 64.085938 16.949219 64.914062 17.183594 C 66.363281 17.578125 67.359375 17.96875 68.664062 18.628906 C 70.203125 19.414062 71.042969 20.179688 71.589844 21.265625 C 72.113281 22.320312 72.089844 23.027344 71.542969 23.453125 C 71.277344 23.664062 70.25 23.621094 68.664062 23.363281 C 67.414062 23.148438 66.765625 23.117188 63.4375 23.105469 C 60.792969 23.09375 59.375 23.136719 58.75 23.238281 C 56.875 23.554688 54.28125 24.359375 51.859375 25.390625 C 51.046875 25.738281 50.734375 25.785156 50.140625 25.605469 Z M 51.894531 24.101562 C 53.34375 23.472656 56.304688 22.511719 57.410156 22.308594 C 57.96875 22.207031 58.480469 22.09375 58.546875 22.074219 C 58.648438 22.050781 58.59375 21.871094 58.359375 21.511719 C 57.832031 20.671875 57.644531 19.234375 57.96875 18.507812 C 58.046875 18.316406 58.011719 18.304688 57.566406 18.382812 C 55.621094 18.6875 52.238281 19.742188 51.257812 20.355469 C 50.453125 20.851562 49.648438 22.175781 49.648438 22.957031 C 49.648438 23.273438 50.007812 24.046875 50.253906 24.304688 C 50.53125 24.585938 50.855469 24.539062 51.894531 24.101562 Z M 70.75 22.273438 C 70.75 22.003906 70.195312 21.152344 69.734375 20.714844 C 69.402344 20.402344 68.105469 19.5625 67.960938 19.5625 C 67.925781 19.5625 67.90625 19.929688 67.894531 20.378906 C 67.894531 20.839844 67.816406 21.355469 67.714844 21.589844 L 67.535156 21.996094 L 68.898438 22.230469 C 70.664062 22.519531 70.75 22.519531 70.75 22.273438 Z M 76.222656 22.824219 C 76.222656 22.601562 76.34375 22.554688 77.371094 22.410156 C 77.664062 22.375 77.898438 22.296875 77.898438 22.242188 C 77.898438 22.164062 76.960938 21.847656 75.554688 21.457031 C 74.984375 21.300781 74.703125 21.097656 74.816406 20.917969 C 74.859375 20.851562 75.003906 20.792969 75.128906 20.792969 C 75.386719 20.792969 77.808594 21.5 78.476562 21.769531 C 78.957031 21.960938 79.125 22.308594 78.867188 22.566406 C 78.679688 22.757812 77.417969 23.027344 76.703125 23.039062 C 76.300781 23.039062 76.222656 23.003906 76.222656 22.824219 Z M 34.644531 19.425781 C 34.621094 19.347656 34.507812 18.496094 34.410156 17.542969 C 34.308594 16.589844 34.152344 15.648438 34.074219 15.457031 C 33.996094 15.277344 33.71875 14.941406 33.460938 14.71875 C 32.980469 14.324219 32.933594 14.066406 33.335938 14.066406 C 33.671875 14.066406 34.519531 14.90625 34.664062 15.378906 C 34.832031 15.960938 35.179688 19.15625 35.101562 19.382812 C 35.011719 19.59375 34.699219 19.617188 34.644531 19.425781 Z M 17.4375 15.859375 C 17.316406 15.660156 17.605469 15.300781 18.753906 14.28125 C 21.234375 12.070312 22.273438 11.609375 25.757812 11.207031 C 28.648438 10.859375 31.761719 11.003906 34.65625 11.609375 C 35.917969 11.878906 36.285156 12.058594 36.0625 12.285156 C 35.9375 12.40625 35.613281 12.375 34.386719 12.125 C 31.730469 11.609375 31.328125 11.566406 29.21875 11.578125 C 26.023438 11.589844 23.367188 11.980469 21.914062 12.644531 C 21.199219 12.980469 20.015625 13.875 18.734375 15.054688 C 17.738281 15.960938 17.570312 16.074219 17.4375 15.859375 Z M 47.941406 15.613281 C 47.863281 15.390625 48.0625 14.089844 48.308594 13.28125 C 48.632812 12.183594 49.292969 11.433594 50.675781 10.535156 C 50.976562 10.34375 51.324219 10.367188 51.324219 10.578125 C 51.324219 10.636719 50.898438 11.015625 50.398438 11.421875 C 49.125 12.429688 48.765625 13.148438 48.476562 15.222656 C 48.421875 15.625 48.367188 15.75 48.199219 15.75 C 48.085938 15.75 47.976562 15.679688 47.941406 15.613281 Z M 47.941406 15.613281 "
    />
    <path
      d="M 70.40625 14.46875 C 67.871094 12.058594 66.253906 11.09375 63.527344 10.410156 C 60.925781 9.75 58.871094 9.527344 55.566406 9.535156 C 53.746094 9.535156 52.003906 9.613281 50.742188 9.738281 C 49.648438 9.851562 48.710938 9.90625 48.644531 9.863281 C 48.445312 9.738281 48.523438 9.480469 48.789062 9.414062 C 49.359375 9.277344 52.753906 9.007812 54.675781 8.941406 C 58.59375 8.820312 63.070312 9.457031 65.839844 10.558594 C 67.4375 11.183594 69.421875 12.644531 71.253906 14.503906 C 71.96875 15.234375 72.011719 15.3125 71.847656 15.480469 C 71.679688 15.648438 71.566406 15.570312 70.40625 14.46875 Z M 70.40625 14.46875 "
    />
    <path
      d="M 73.765625 13.640625 C 67.179688 9.199219 63.695312 7.675781 58.804688 7.101562 C 57.332031 6.933594 51.925781 6.933594 50.65625 7.113281 C 50.128906 7.183594 48.757812 7.472656 47.585938 7.742188 C 44.558594 8.472656 43.410156 8.605469 41.109375 8.527344 C 39.085938 8.449219 34.878906 8.113281 29.050781 7.550781 C 22.585938 6.925781 21.546875 7.101562 19.066406 9.246094 C 18.253906 9.941406 17.941406 10.074219 17.941406 9.695312 C 17.941406 9.445312 19.203125 8.316406 20.195312 7.664062 C 21.9375 6.542969 23.535156 6.441406 29.777344 7.046875 C 36.988281 7.753906 39.421875 7.933594 41.890625 7.933594 C 44.414062 7.933594 44.492188 7.921875 48.53125 6.945312 C 49.179688 6.789062 50.128906 6.609375 50.65625 6.542969 C 51.949219 6.375 57.363281 6.375 58.804688 6.542969 C 63.828125 7.113281 67.144531 8.550781 73.832031 13.011719 C 75.074219 13.84375 76.144531 14.582031 76.222656 14.683594 C 76.355469 14.851562 76.3125 15.1875 76.144531 15.1875 C 76.101562 15.1875 75.027344 14.480469 73.765625 13.640625 Z M 73.765625 13.640625 "
    />
    <path
      d="M 77.171875 12.933594 C 74.234375 10.300781 72.101562 8.773438 69.3125 7.363281 C 66.175781 5.757812 63.046875 4.660156 59.140625 3.808594 C 55.601562 3.03125 52.25 2.753906 49.011719 2.953125 C 46.746094 3.089844 45.976562 3.234375 42.726562 4.085938 C 39.867188 4.839844 38.753906 5.039062 36.53125 5.207031 C 34.84375 5.332031 29.628906 5.34375 27.820312 5.21875 C 26.804688 5.164062 26.707031 5.128906 26.707031 4.929688 C 26.707031 4.714844 26.816406 4.714844 31.839844 4.703125 C 37.804688 4.691406 38.363281 4.636719 41.824219 3.726562 C 46.644531 2.472656 47.269531 2.382812 50.765625 2.371094 C 54.40625 2.359375 56.335938 2.585938 59.953125 3.414062 C 65.785156 4.769531 70.59375 6.925781 74.402344 9.882812 C 76.367188 11.421875 78.566406 13.394531 78.566406 13.628906 C 78.566406 14.03125 78.1875 13.84375 77.171875 12.933594 Z M 77.171875 12.933594 "
    />
  </g>
</svg>
