<svg xmlns="http://www.w3.org/2000/svg" id="root" viewBox="0 0 99 58">
  <g>
    <path
      d="M 40.535156 57.886719 C 39.972656 57.679688 37.714844 56.089844 37.433594 55.695312 C 37.300781 55.488281 37.171875 54.929688 37.171875 54.460938 C 37.171875 53.5625 37.65625 52.605469 38.945312 50.996094 C 39.261719 50.585938 39.65625 49.96875 39.785156 49.628906 C 39.917969 49.292969 40.253906 48.695312 40.535156 48.320312 C 40.90625 47.796875 41.113281 47.160156 41.375 45.546875 C 41.671875 43.714844 41.691406 43.191406 41.503906 41.09375 C 41.261719 38.472656 41.132812 38.117188 39.878906 36.65625 C 39.394531 36.09375 38.535156 34.839844 37.976562 33.867188 C 36.40625 31.1875 35.714844 30.160156 34.929688 29.296875 C 34.015625 28.304688 33.808594 27.257812 34.351562 26.378906 C 34.554688 26.039062 35.414062 25.125 36.273438 24.335938 C 37.132812 23.550781 38.460938 22.257812 39.207031 21.472656 C 40.273438 20.332031 40.703125 20.011719 41.242188 19.917969 C 41.878906 19.824219 42.046875 19.636719 42.925781 18.269531 C 43.464844 17.429688 44.027344 16.304688 44.195312 15.78125 C 44.4375 14.957031 44.53125 14.828125 44.847656 14.902344 C 45.054688 14.957031 45.277344 15.105469 45.316406 15.238281 C 45.410156 15.464844 45.167969 16.640625 44.921875 17.261719 C 44.847656 17.429688 44.867188 17.578125 44.980469 17.578125 C 45.089844 17.578125 45.316406 17.167969 45.484375 16.640625 C 45.652344 16.136719 45.875 15.707031 45.96875 15.707031 C 46.304688 15.707031 46.136719 16.792969 45.671875 17.671875 C 45.410156 18.160156 45.222656 18.589844 45.257812 18.628906 C 45.296875 18.664062 45.632812 18.476562 46.007812 18.195312 C 47.3125 17.261719 46.882812 17.914062 45.015625 19.695312 C 43.800781 20.835938 43.222656 21.527344 43.355469 21.621094 C 43.523438 21.714844 43.484375 21.828125 43.261719 21.996094 C 42.960938 22.222656 42.960938 22.242188 43.261719 22.410156 C 43.746094 22.671875 43.429688 23.269531 41.972656 24.824219 C 40.496094 26.378906 39.785156 27.40625 39.785156 27.988281 C 39.785156 28.511719 41.226562 29.992188 42.234375 30.496094 C 43.242188 31.019531 43.691406 30.964844 44.605469 30.160156 C 45.746094 29.167969 45.839844 28.34375 45.015625 26.527344 C 44.195312 24.730469 44.046875 23.046875 44.625 21.902344 C 44.960938 21.265625 45.242188 21.023438 46.0625 20.648438 C 47.726562 19.917969 49.292969 20.144531 50.453125 21.304688 C 51.367188 22.222656 51.535156 23.363281 51.011719 25.066406 C 50.789062 25.742188 50.621094 26.472656 50.621094 26.714844 C 50.621094 26.9375 50.414062 27.652344 50.152344 28.289062 C 49.554688 29.746094 49.574219 29.933594 50.210938 30.550781 L 50.734375 31.058594 L 54.039062 29.597656 C 55.851562 28.8125 57.34375 28.082031 57.34375 28.007812 C 57.34375 27.933594 56.691406 26.921875 55.886719 25.761719 C 54 23.0625 54.09375 23.25 54.449219 22.691406 C 54.898438 22.015625 54.597656 21.117188 53.515625 19.84375 C 52.601562 18.777344 52.507812 18.535156 52.992188 18.589844 C 53.253906 18.609375 53.347656 18.382812 53.460938 17.542969 C 53.609375 16.398438 53.871094 15.707031 54.167969 15.707031 C 54.28125 15.707031 54.355469 15.949219 54.355469 16.269531 C 54.355469 16.90625 55.066406 18.90625 55.703125 19.992188 C 56.039062 20.59375 56.261719 20.761719 56.785156 20.855469 C 57.328125 20.949219 57.53125 21.117188 57.886719 21.808594 C 58.148438 22.277344 59.027344 23.382812 59.867188 24.28125 C 60.707031 25.179688 61.660156 26.285156 61.996094 26.734375 C 62.519531 27.480469 62.574219 27.667969 62.464844 28.417969 C 62.296875 29.558594 61.285156 30.796875 60.054688 31.359375 C 59.550781 31.601562 58.429688 32.332031 57.570312 33.023438 C 56.074219 34.222656 56 34.296875 54.824219 36.675781 C 53.066406 40.175781 52.65625 41.5625 52.527344 44.144531 L 52.433594 46.277344 L 53.683594 46.148438 C 54.46875 46.054688 54.917969 46.074219 54.917969 46.183594 C 54.917969 46.296875 55.140625 46.632812 55.402344 46.953125 C 55.792969 47.421875 56.390625 47.683594 58.746094 48.46875 C 60.316406 48.976562 61.773438 49.40625 61.976562 49.40625 C 62.183594 49.40625 62.386719 49.480469 62.425781 49.574219 C 62.464844 49.667969 62.984375 49.984375 63.601562 50.285156 L 64.722656 50.808594 L 64.667969 51.839844 C 64.609375 52.757812 64.519531 52.980469 63.582031 54.125 C 63.023438 54.816406 62.5 55.394531 62.425781 55.394531 C 62.351562 55.394531 61.210938 55.527344 59.867188 55.675781 C 58.539062 55.84375 56.09375 56.050781 54.429688 56.144531 C 52.730469 56.238281 50.339844 56.519531 48.921875 56.78125 C 46.734375 57.195312 41.1875 58.035156 40.90625 58 C 40.851562 58 40.683594 57.941406 40.535156 57.886719 Z M 44.828125 16.082031 C 44.828125 15.835938 44.8125 15.835938 44.644531 16.082031 C 44.550781 16.230469 44.457031 16.492188 44.457031 16.640625 C 44.457031 16.886719 44.476562 16.886719 44.644531 16.640625 C 44.738281 16.492188 44.828125 16.230469 44.828125 16.082031 Z M 28.449219 53.394531 C 28.207031 53.355469 27.851562 53.074219 27.644531 52.773438 C 26.75 51.503906 27.570312 49.78125 29.101562 49.78125 C 30 49.78125 30.746094 50.324219 30.914062 51.070312 C 31.042969 51.671875 30.671875 52.71875 30.222656 53.09375 C 29.886719 53.375 29.027344 53.523438 28.449219 53.394531 Z M 69.671875 53.394531 C 68.628906 53.019531 68.121094 51.726562 68.628906 50.753906 C 68.980469 50.0625 69.449219 49.78125 70.234375 49.78125 C 70.550781 49.78125 70.980469 49.875 71.1875 49.96875 C 71.597656 50.210938 72.101562 51.109375 72.101562 51.652344 C 72.101562 52.851562 70.773438 53.804688 69.671875 53.394531 Z M 23.796875 47.269531 C 22.507812 46.710938 22.210938 45.285156 23.144531 44.332031 C 23.910156 43.5625 25.03125 43.5625 25.796875 44.332031 C 26.75 45.304688 26.414062 46.726562 25.105469 47.269531 C 24.375 47.570312 24.507812 47.570312 23.796875 47.269531 Z M 74.398438 47.402344 C 74.175781 47.363281 73.765625 47.066406 73.503906 46.765625 C 72.886719 46.015625 72.886719 45.117188 73.519531 44.371094 C 74.453125 43.265625 76.324219 43.75 76.695312 45.175781 C 76.996094 46.410156 75.726562 47.644531 74.398438 47.402344 Z M 4.707031 40.605469 C 2.933594 39.519531 2.933594 36.917969 4.707031 36 C 6.519531 35.066406 8.609375 36.242188 8.628906 38.210938 C 8.667969 40.324219 6.464844 41.671875 4.707031 40.605469 Z M 6.910156 39.109375 C 7.398438 38.621094 7.378906 38.152344 6.894531 37.535156 C 6.203125 36.65625 4.855469 37.105469 4.855469 38.210938 C 4.855469 39.371094 6.109375 39.914062 6.910156 39.109375 Z M 91.507812 40.550781 C 90.3125 39.746094 89.902344 38.285156 90.574219 37.050781 C 91.246094 35.757812 93.023438 35.289062 94.292969 36.039062 C 95.113281 36.507812 95.710938 37.796875 95.5625 38.695312 C 95.261719 40.585938 93.058594 41.597656 91.507812 40.550781 Z M 93.769531 39.109375 C 93.976562 38.902344 94.144531 38.546875 94.144531 38.320312 C 94.144531 37.777344 93.433594 37.050781 92.890625 37.050781 C 91.921875 37.050781 91.359375 38.398438 92.03125 39.144531 C 92.425781 39.59375 93.300781 39.578125 93.769531 39.109375 Z M 20.359375 39.914062 C 19.164062 38.847656 19.726562 36.992188 21.3125 36.75 C 22.621094 36.5625 23.742188 37.871094 23.3125 39.144531 C 23.070312 39.855469 22.546875 40.25 21.707031 40.363281 C 21.089844 40.4375 20.882812 40.382812 20.359375 39.914062 Z M 76.472656 39.78125 C 75.875 39.183594 75.800781 39.015625 75.894531 38.414062 C 76.0625 37.367188 76.769531 36.769531 77.816406 36.769531 C 78.527344 36.769531 78.75 36.863281 79.125 37.292969 C 80.113281 38.453125 79.480469 40.15625 77.949219 40.363281 C 77.21875 40.457031 77.089844 40.398438 76.472656 39.78125 Z M 76.472656 39.78125 "
    />
    <path
      d="M 88.222656 36.074219 C 86.839844 35.71875 86.410156 34.015625 87.398438 32.894531 L 87.941406 32.273438 L 97.917969 32.273438 L 98.457031 32.894531 C 100.15625 34.800781 97.488281 37.328125 95.601562 35.609375 C 95.28125 35.328125 95.28125 35.289062 95.675781 35.007812 C 95.917969 34.839844 96.402344 34.707031 96.757812 34.707031 C 97.335938 34.707031 97.410156 34.652344 97.410156 34.242188 L 97.410156 33.773438 L 93.039062 33.714844 C 88.425781 33.660156 87.980469 33.734375 88.371094 34.464844 C 88.519531 34.746094 88.6875 34.800781 89.082031 34.707031 C 89.453125 34.632812 89.734375 34.707031 90.050781 34.972656 C 90.464844 35.308594 90.480469 35.363281 90.21875 35.625 C 89.789062 36.058594 88.914062 36.261719 88.222656 36.074219 Z M 0.542969 35.570312 C 0.113281 35.121094 0 34.859375 0 34.203125 C 0 33.53125 0.113281 33.265625 0.578125 32.816406 L 1.140625 32.273438 L 5.789062 32.21875 C 11.058594 32.164062 11.375 32.21875 11.898438 33.453125 C 12.253906 34.296875 11.992188 35.363281 11.300781 35.8125 C 10.589844 36.28125 9.300781 36.207031 8.796875 35.664062 L 8.367188 35.214844 L 8.949219 34.894531 C 9.285156 34.726562 9.695312 34.632812 9.863281 34.691406 C 10.3125 34.839844 10.703125 34.539062 10.609375 34.128906 C 10.554688 33.792969 10.292969 33.773438 6.050781 33.714844 C 2 33.679688 1.53125 33.699219 1.417969 33.980469 C 1.25 34.410156 1.664062 34.839844 2.109375 34.726562 C 2.523438 34.632812 3.550781 35.082031 3.550781 35.363281 C 3.550781 35.71875 2.691406 36.113281 1.90625 36.113281 C 1.25 36.113281 0.988281 36 0.542969 35.570312 Z M 78.320312 32.78125 C 78.097656 32.742188 77.707031 32.519531 77.445312 32.273438 C 77.050781 31.917969 76.957031 31.636719 76.957031 30.984375 C 76.957031 30.289062 77.050781 30.085938 77.535156 29.671875 C 78.527344 28.847656 79.871094 29.109375 80.414062 30.253906 C 80.75 30.964844 80.675781 31.546875 80.191406 32.164062 C 79.816406 32.59375 78.957031 32.894531 78.320312 32.78125 Z M 19.222656 32.199219 C 18.605469 31.582031 18.53125 30.945312 18.960938 30.121094 C 19.539062 29.015625 20.957031 28.832031 21.875 29.730469 C 22.582031 30.460938 22.601562 31.359375 21.929688 32.164062 C 21.519531 32.648438 21.3125 32.742188 20.601562 32.742188 C 19.929688 32.742188 19.667969 32.628906 19.222656 32.199219 Z M 1.101562 31.394531 C 1.101562 31.359375 1.082031 31.019531 1.066406 30.628906 L 1.027344 29.933594 L 11.019531 29.933594 L 11.019531 31.433594 L 6.070312 31.433594 C 3.34375 31.433594 1.121094 31.414062 1.101562 31.394531 Z M 87.980469 30.683594 L 87.980469 29.933594 L 97.878906 29.933594 L 97.878906 31.433594 L 87.980469 31.433594 Z M 1.195312 29 C 0.542969 28.738281 0 27.894531 0 27.125 C 0 26.246094 0.542969 25.535156 1.402344 25.253906 C 1.960938 25.066406 2.167969 25.085938 2.746094 25.386719 C 3.121094 25.574219 3.472656 25.816406 3.511719 25.945312 C 3.605469 26.246094 2.578125 26.753906 2.109375 26.640625 C 1.605469 26.507812 1.175781 27.03125 1.496094 27.40625 C 1.699219 27.652344 2.390625 27.6875 6.144531 27.652344 C 10.292969 27.59375 10.554688 27.574219 10.609375 27.238281 C 10.703125 26.828125 10.3125 26.527344 9.863281 26.675781 C 9.414062 26.808594 8.386719 26.246094 8.519531 25.929688 C 8.628906 25.648438 9.695312 25.066406 10.085938 25.066406 C 10.664062 25.066406 11.582031 25.703125 11.859375 26.320312 C 12.308594 27.238281 11.992188 28.304688 11.152344 28.8125 C 10.609375 29.148438 10.199219 29.1875 6.070312 29.167969 C 3.605469 29.167969 1.402344 29.09375 1.195312 29 Z M 87.492188 28.550781 C 86.988281 28.042969 86.859375 27.761719 86.859375 27.164062 C 86.859375 25.742188 88.242188 24.785156 89.527344 25.3125 C 90.425781 25.683594 90.554688 25.984375 90.035156 26.414062 C 89.734375 26.660156 89.4375 26.734375 89.082031 26.660156 C 88.6875 26.566406 88.519531 26.621094 88.371094 26.902344 C 87.980469 27.632812 88.425781 27.707031 93.039062 27.652344 L 97.410156 27.59375 L 97.410156 27.125 C 97.410156 26.714844 97.335938 26.660156 96.757812 26.660156 C 96.402344 26.660156 95.917969 26.527344 95.691406 26.359375 L 95.261719 26.058594 L 95.691406 25.683594 C 97.132812 24.375 99.371094 25.722656 98.886719 27.632812 C 98.773438 28.101562 98.515625 28.472656 98.085938 28.753906 C 97.46875 29.167969 97.335938 29.1875 92.796875 29.1875 L 88.128906 29.1875 Z M 87.492188 28.550781 "
    />
    <path
      d="M 4.914062 25.441406 C 2.953125 24.5625 2.839844 21.902344 4.707031 20.761719 C 5.453125 20.3125 6.351562 20.273438 7.210938 20.6875 C 8.089844 21.117188 8.59375 21.996094 8.59375 23.15625 C 8.59375 23.960938 8.5 24.226562 8.011719 24.769531 C 7.527344 25.347656 6.539062 25.816406 5.882812 25.816406 C 5.789062 25.816406 5.34375 25.648438 4.914062 25.441406 Z M 6.816406 23.851562 C 7.378906 23.308594 7.414062 22.765625 6.910156 22.257812 C 6.125 21.472656 4.855469 21.996094 4.855469 23.121094 C 4.855469 24.242188 6.015625 24.675781 6.816406 23.851562 Z M 91.714844 25.402344 C 90.351562 24.691406 89.867188 23.25 90.554688 21.882812 C 91.433594 20.125 93.824219 19.882812 95.039062 21.417969 C 96.046875 22.691406 95.5625 24.710938 94.066406 25.421875 C 93.058594 25.929688 92.722656 25.910156 91.714844 25.402344 Z M 93.65625 23.925781 C 94.535156 23.234375 94.085938 21.882812 92.984375 21.882812 C 91.828125 21.882812 91.285156 23.140625 92.089844 23.945312 C 92.574219 24.429688 93.039062 24.410156 93.65625 23.925781 Z M 20.304688 24.785156 C 19.351562 23.832031 19.613281 22.277344 20.828125 21.773438 C 22.097656 21.246094 23.347656 22.070312 23.347656 23.476562 C 23.347656 24.148438 23.253906 24.375 22.769531 24.769531 C 22.003906 25.421875 20.957031 25.421875 20.304688 24.785156 Z M 76.492188 24.804688 C 75.519531 23.832031 75.800781 22.296875 77.050781 21.773438 C 78.917969 20.984375 80.46875 23.269531 79.03125 24.710938 C 78.304688 25.421875 77.164062 25.480469 76.492188 24.804688 Z M 23.796875 18.160156 C 23.238281 17.914062 22.601562 17.054688 22.601562 16.511719 C 22.601562 15.5 23.5 14.582031 24.46875 14.582031 C 25.460938 14.582031 26.335938 15.5 26.335938 16.53125 C 26.335938 17.578125 24.789062 18.570312 23.796875 18.160156 Z M 74.027344 18.066406 C 73.316406 17.746094 73.035156 17.261719 73.035156 16.363281 C 73.035156 14.453125 75.667969 13.910156 76.492188 15.648438 C 77.257812 17.242188 75.667969 18.796875 74.027344 18.066406 Z M 69.746094 12.1875 C 68.476562 11.980469 67.972656 9.921875 68.980469 9.042969 C 69.765625 8.367188 70.832031 8.421875 71.578125 9.152344 C 72.082031 9.660156 72.140625 9.828125 72.046875 10.5 C 71.988281 10.914062 71.785156 11.417969 71.597656 11.625 C 71.203125 12.019531 70.328125 12.28125 69.746094 12.1875 Z M 27.757812 11.570312 C 27.085938 10.765625 27.101562 9.867188 27.8125 9.136719 C 28.449219 8.515625 29.511719 8.386719 30.203125 8.871094 C 30.800781 9.304688 31.0625 10.371094 30.726562 11.136719 C 30.429688 11.886719 29.960938 12.148438 28.988281 12.148438 C 28.375 12.148438 28.148438 12.035156 27.757812 11.570312 Z M 34.554688 7.523438 C 33.585938 7.152344 33.007812 5.859375 33.4375 5.015625 C 33.941406 4.023438 35.152344 3.613281 36.070312 4.097656 C 36.519531 4.34375 36.984375 5.242188 36.984375 5.859375 C 36.984375 6.851562 35.472656 7.878906 34.554688 7.523438 Z M 63.339844 7.414062 C 61.753906 6.496094 62.332031 3.910156 64.125 3.910156 C 64.871094 3.910156 65.695312 4.492188 65.957031 5.183594 C 66.179688 5.746094 65.898438 6.71875 65.394531 7.167969 C 64.929688 7.601562 63.882812 7.710938 63.339844 7.414062 Z M 40.886719 4.117188 C 39.507812 2.730469 40.871094 0.503906 42.71875 1.121094 C 43.503906 1.382812 43.933594 2.003906 43.933594 2.917969 C 43.933594 3.460938 43.800781 3.722656 43.355469 4.136719 C 42.550781 4.867188 41.636719 4.847656 40.886719 4.117188 Z M 56.207031 4.378906 C 55.121094 3.800781 55.066406 2.171875 56.09375 1.421875 C 56.878906 0.824219 57.832031 0.898438 58.484375 1.628906 C 59.941406 3.257812 58.128906 5.429688 56.207031 4.378906 Z M 48.769531 3.460938 C 47.894531 2.976562 47.59375 1.890625 48.082031 0.933594 C 48.753906 -0.355469 50.640625 -0.300781 51.273438 1.046875 C 51.667969 1.871094 51.5 2.640625 50.769531 3.257812 C 50.171875 3.761719 49.460938 3.835938 48.769531 3.460938 Z M 48.769531 3.460938 "
    />
  </g>
</svg>
