<svg id="root" xmlns="http://www.w3.org/2000/svg" width="768" height="441" viewBox="0 0 7680 4410">
  <g>
    <path
      d="M3330 3643c-30-11-151-96-166-117-7-11-14-41-14-66 0-48 26-99 95-185 17-22 38-55 45-73s25-50 40-70c20-28 31-62 45-148 16-98 17-126 7-238-13-140-20-159-87-237-26-30-72-97-102-149-84-143-121-198-163-244-49-53-60-109-31-156 11-18 57-67 103-109s117-111 157-153c57-61 80-78 109-83 34-5 43-15 90-88 29-45 59-105 68-133 13-44 18-51 35-47 11 3 23 11 25 18 5 12-8 75-21 108-4 9-3 17 3 17s18-22 27-50c9-27 21-50 26-50 18 0 9 58-16 105-14 26-24 49-22 51s20-8 40-23c70-50 47-15-53 80-65 61-96 98-89 103 9 5 7 11-5 20-16 12-16 13 0 22 26 14 9 46-69 129-79 83-117 138-117 169 0 28 77 107 131 134 54 28 78 25 127-18 61-53 66-97 22-194-44-96-52-186-21-247 18-34 33-47 77-67 89-39 173-27 235 35 49 49 58 110 30 201-12 36-21 75-21 88 0 12-11 50-25 84-32 78-31 88 3 121l28 27 177-78c97-42 177-81 177-85s-35-58-78-120c-101-144-96-134-77-164 24-36 8-84-50-152-49-57-54-70-28-67 14 1 19-11 25-56 8-61 22-98 38-98 6 0 10 13 10 30 0 34 38 141 72 199 18 32 30 41 58 46 29 5 40 14 59 51 14 25 61 84 106 132s96 107 114 131c28 40 31 50 25 90-9 61-63 127-129 157-27 13-87 52-133 89-80 64-84 68-147 195-94 187-116 261-123 399l-5 114 67-7c42-5 66-4 66 2s12 24 26 41c21 25 53 39 179 81 84 27 162 50 173 50s22 4 24 9 30 22 63 38l60 28-3 55c-3 49-8 61-58 122-30 37-58 68-62 68s-65 7-137 15c-71 9-202 20-291 25-91 5-219 20-295 34-117 22-414 67-429 65-3 0-12-3-20-6zm230-2233c0-13-1-13-10 0-5 8-10 22-10 30 0 13 1 13 10 0 5-8 10-22 10-30zm-877 1993c-13-2-32-17-43-33-48-68-4-160 78-160 48 0 88 29 97 69 7 32-13 88-37 108-18 15-64 23-95 16zm2207 0c-56-20-83-89-56-141 19-37 44-52 86-52 17 0 40 5 51 10 22 13 49 61 49 90 0 64-71 115-130 93zm-2456-327c-69-30-85-106-35-157 41-41 101-41 142 0 51 52 33 128-37 157-39 16-32 16-70 0zm2709 7c-12-2-34-18-48-34-33-40-33-88 1-128 50-59 150-33 170 43 16 66-52 132-123 119zm-3731-363c-95-58-95-197 0-246 97-50 209 13 210 118 2 113-116 185-210 128zm118-80c26-26 25-51-1-84-37-47-109-23-109 36 0 62 67 91 110 48zm4529 77c-64-43-86-121-50-187 36-69 131-94 199-54 44 25 76 94 68 142-16 101-134 155-217 99zm121-77c11-11 20-30 20-42 0-29-38-68-67-68-52 0-82 72-46 112 21 24 68 23 93-2zm-3930 43c-64-57-34-156 51-169 70-10 130 60 107 128-13 38-41 59-86 65-33 4-44 1-72-24zm3004-7c-32-32-36-41-31-73 9-56 47-88 103-88 38 0 50 5 70 28 53 62 19 153-63 164-39 5-46 2-79-31z" />
    <path
      d="M5883 2478c-74-19-97-110-44-170l29-33h534l29 33c91 102-52 237-153 145-17-15-17-17 4-32 13-9 39-16 58-16 31 0 35-3 35-25v-25l-234-3c-247-3-271 1-250 40 8 15 17 18 38 13 20-4 35 0 52 14 22 18 23 21 9 35-23 23-70 34-107 24zm-4694-27c-23-24-29-38-29-73 0-36 6-50 31-74l30-29 249-3c282-3 299 0 327 66 19 45 5 102-32 126-38 25-107 21-134-8l-23-24 31-17c18-9 40-14 49-11 24 8 45-8 40-30-3-18-17-19-244-22-217-2-242-1-248 14-9 23 13 46 37 40 22-5 77 19 77 34 0 19-46 40-88 40-35 0-49-6-73-29zm4164-149c-12-2-33-14-47-27-21-19-26-34-26-69 0-37 5-48 31-70 53-44 125-30 154 31 18 38 14 69-12 102-20 23-66 39-100 33zm-3164-31c-33-33-37-67-14-111 31-59 107-69 156-21 38 39 39 87 3 130-22 26-33 31-71 31-36 0-50-6-74-29zm-970-43c0-2-1-20-2-41l-2-37h535v80h-265c-146 0-265-1-266-2zm4651-38v-40h530v80h-530v-40zm-4646-90c-35-14-64-59-64-100 0-47 29-85 75-100 30-10 41-9 72 7 20 10 39 23 41 30 5 16-50 43-75 37-27-7-50 21-33 41 11 13 48 15 249 13 222-3 236-4 239-22 5-22-16-38-40-30-24 7-79-23-72-40 6-15 63-46 84-46 31 0 80 34 95 67 24 49 7 106-38 133-29 18-51 20-272 19-132 0-250-4-261-9zm4620-24c-27-27-34-42-34-74 0-76 74-127 143-99 48 20 55 36 27 59-16 13-32 17-51 13-21-5-30-2-38 13-21 39 3 43 250 40l234-3v-25c0-22-4-25-35-25-19 0-45-7-57-16l-23-16 23-20c77-70 197 2 171 104-6 25-20 45-43 60-33 22-40 23-283 23h-250l-34-34z" />
    <path
      d="M1423 1910c-105-47-111-189-11-250 40-24 88-26 134-4 47 23 74 70 74 132 0 43-5 57-31 86-26 31-79 56-114 56-5 0-29-9-52-20zm102-85c30-29 32-58 5-85-42-42-110-14-110 46s62 83 105 39zm4545 83c-73-38-99-115-62-188 47-94 175-107 240-25 54 68 28 176-52 214-54 27-72 26-126-1zm104-79c47-37 23-109-36-109-62 0-91 67-48 110 26 26 51 25 84-1zm-3927 46c-51-51-37-134 28-161 68-28 135 16 135 91 0 36-5 48-31 69-41 35-97 35-132 1zm3008 1c-52-52-37-134 30-162 100-42 183 80 106 157-39 38-100 41-136 5zm-2821-355c-30-13-64-59-64-88 0-54 48-103 100-103 53 0 100 49 100 104 0 56-83 109-136 87zm2689-5c-38-17-53-43-53-91 0-102 141-131 185-38 41 85-44 168-132 129zm-229-314c-68-11-95-121-41-168 42-36 99-33 139 6 27 27 30 36 25 72-3 22-14 49-24 60-21 21-68 35-99 30zm-2248-33c-36-43-35-91 3-130 34-33 91-40 128-14 32 23 46 80 28 121-16 40-41 54-93 54-33 0-45-6-66-31zm364-216c-52-20-83-89-60-134 27-53 92-75 141-49 24 13 49 61 49 94 0 53-81 108-130 89zm1541-6c-85-49-54-187 42-187 40 0 84 31 98 68 12 30-3 82-30 106-25 23-81 29-110 13zM3349 771c-74-74-1-193 98-160 42 14 65 47 65 96 0 29-7 43-31 65-43 39-92 38-132-1zm820 14c-58-31-61-118-6-158 42-32 93-28 128 11 78 87-19 203-122 147zm-398-49c-47-26-63-84-37-135 36-69 137-66 171 6 21 44 12 85-27 118-32 27-70 31-107 11z" />
  </g>
</svg>