<svg id="root" id="outputsvg" xmlns="http://www.w3.org/2000/svg"
  style="transform: none; transform-origin: 50% 50%; cursor: move; max-height: none;" width="796" height="817"
  viewBox="0 0 7960 8170">
  <g id="l29VmNzxV4xBHUSA7luEDvH">
    <g>
      <path id="pKXBuZcty"
        d="M3276 4049 c-58 -56 -106 -108 -106 -116 0 -9 24 -43 53 -77 67 -77 105 -137 161 -256 58 -122 102 -257 110 -340 6 -58 5 -68 -13 -84 -18 -17 -34 -18 -183 -11 -137 6 -166 5 -176 -7 -12 -16 -21 -302 -9 -314 3 -4 84 -8 179 -10 236 -5 230 2 161 -224 -34 -112 -58 -167 -93 -220 -9 -14 -46 -70 -82 -125 -37 -55 -80 -113 -97 -129 -17 -17 -31 -40 -31 -52 0 -14 34 -56 102 -123 56 -56 107 -101 113 -101 18 0 127 120 185 206 49 71 90 136 117 184 62 112 134 316 148 420 11 87 24 129 45 140 11 6 97 10 203 10 232 0 227 3 246 -132 15 -103 66 -285 107 -375 61 -135 86 -184 126 -244 50 -75 174 -230 195 -242 10 -6 44 21 124 99 60 59 109 111 109 115 0 3 -30 42 -66 85 -36 43 -77 99 -91 124 -14 25 -33 56 -43 70 -37 54 -125 316 -136 405 -9 77 -4 79 200 85 l171 5 0 160 0 160 -166 5 c-195 6 -204 10 -194 78 14 93 91 299 148 394 53 89 163 238 186 253 28 17 16 32 -171 227 -14 15 -31 28 -36 28 -14 0 -100 -99 -175 -200 -125 -169 -233 -419 -283 -655 -26 -123 -14 -118 -246 -113 -137 3 -201 8 -211 17 -10 7 -18 38 -22 79 -3 37 -12 87 -19 112 -8 25 -22 79 -31 120 -21 88 -110 289 -183 410 -61 102 -189 260 -211 260 -5 0 -57 -45 -115 -101z">
      </path>
    </g>
  </g>
</svg>