<svg xmlns="http://www.w3.org/2000/svg" id="root" viewBox="0 0 100 120">
  <g>
    <path
      d="M 24.414062 118.484375 C 24.414062 117.179688 24.691406 117.042969 27.035156 117.523438 C 28.414062 117.796875 31.515625 118.28125 33.929688 118.554688 C 40.691406 119.449219 39.863281 119.929688 31.792969 119.929688 C 24.757812 119.929688 24.414062 119.863281 24.414062 118.484375 Z M 61.035156 119.65625 C 61.171875 119.519531 63.65625 119.035156 66.484375 118.625 C 69.308594 118.210938 72.691406 117.730469 73.929688 117.453125 C 75.863281 117.042969 76.136719 117.179688 76.136719 118.484375 C 76.136719 119.863281 75.863281 119.929688 68.414062 119.929688 C 64.207031 119.929688 60.898438 119.792969 61.035156 119.65625 Z M 61.035156 119.65625 "
    />
    <path
      d="M 78.277344 115.597656 C 76.828125 107.132812 77.585938 101.835938 80.757812 98.324219 C 83.242188 95.640625 83.929688 95.640625 89.792969 98.53125 C 93.035156 100.183594 94.964844 99.839844 92.898438 97.980469 C 92.207031 97.363281 90.414062 96.261719 88.898438 95.640625 L 86.136719 94.402344 L 89.585938 94.816406 C 91.515625 95.023438 94.070312 95.4375 95.308594 95.640625 C 96.550781 95.847656 97.515625 95.710938 97.515625 95.296875 C 97.515625 94.542969 90 92.820312 86.34375 92.753906 C 84 92.753906 83.585938 92.476562 82 89.449219 C 80.207031 86.214844 80.207031 86.214844 81.515625 84.289062 C 84.484375 79.953125 87.171875 74.585938 86.550781 74.175781 C 86.136719 73.96875 85.035156 75.34375 84.136719 77.203125 C 81.035156 83.257812 80.207031 82.363281 82 74.863281 C 82.550781 72.386719 82.691406 70.457031 82.34375 70.113281 C 81.929688 69.769531 81.515625 69.632812 81.308594 69.769531 C 81.171875 69.976562 80.414062 73.898438 79.65625 78.507812 C 78.898438 83.121094 77.929688 88.074219 77.585938 89.519531 C 77.171875 90.964844 76.550781 95.230469 76.136719 99.015625 C 75.722656 102.730469 75.242188 106.375 75.035156 106.996094 C 74.621094 108.304688 73.171875 108.648438 66 109.265625 C 61.792969 109.679688 60.964844 109.609375 60.964844 108.714844 C 60.964844 107.203125 59.035156 106.71875 54.964844 107.269531 L 51.308594 107.683594 L 51.378906 76.859375 C 51.378906 48.648438 51.515625 45.6875 52.621094 42.867188 C 53.65625 40.457031 54.34375 39.703125 55.929688 39.359375 C 57.035156 39.152344 58.34375 38.738281 58.691406 38.53125 C 59.65625 37.914062 60.277344 39.5625 60.277344 42.523438 C 60.277344 44.519531 60.621094 44.929688 62.964844 45.824219 C 64.414062 46.445312 67.242188 47.132812 69.101562 47.410156 L 72.550781 47.820312 L 73.035156 53.324219 C 73.585938 59.175781 74.757812 61.445312 76.550781 60 C 77.101562 59.585938 77.515625 58.554688 77.585938 57.730469 C 77.65625 56.421875 77.722656 56.492188 78.136719 58.003906 C 78.757812 60.207031 80.964844 60.273438 82.070312 58.140625 L 82.898438 56.558594 L 83.585938 58.691406 C 84.277344 60.480469 84.691406 60.824219 86.277344 60.6875 C 90.207031 60.414062 90.414062 60.550781 92 65.78125 C 92.898438 68.464844 94.136719 72.9375 94.828125 75.550781 C 95.449219 78.234375 96.828125 83.324219 97.863281 86.902344 C 100.898438 97.292969 100.964844 96.46875 96.277344 102.179688 C 94 104.929688 89.171875 110.089844 85.585938 113.601562 L 79.035156 120 Z M 66.484375 78.785156 C 66.484375 77.613281 67.101562 76.445312 68.207031 75.621094 C 71.308594 73.28125 70.484375 72.453125 64.828125 72.453125 C 59.449219 72.453125 57.863281 73.28125 60 74.863281 C 60.691406 75.34375 61.308594 76.652344 61.378906 77.683594 L 61.585938 80.503906 C 61.65625 80.917969 62.207031 81.398438 62.898438 81.605469 C 64.898438 82.019531 66.484375 80.78125 66.484375 78.785156 Z M 74.621094 68.257812 C 74.691406 67.707031 74.484375 66.332031 74.136719 65.367188 L 73.378906 63.507812 L 56.828125 63.507812 L 56.828125 66.191406 C 56.828125 67.707031 57.242188 69.082031 57.722656 69.289062 C 58.136719 69.425781 62.136719 69.5625 66.484375 69.496094 C 73.101562 69.359375 74.414062 69.152344 74.621094 68.257812 Z M 74.621094 68.257812 "
    />
    <path
      d="M 66.691406 66.46875 C 67.722656 66.332031 69.378906 66.332031 70.484375 66.46875 C 71.515625 66.605469 70.621094 66.742188 68.550781 66.742188 C 66.484375 66.742188 65.585938 66.605469 66.691406 66.46875 Z M 12.964844 111.535156 C 8.828125 107.269531 4.136719 102.246094 2.691406 100.390625 L 0 97.085938 L 1.585938 90.757812 L 4.484375 80.367188 L 7.792969 68.738281 C 8.898438 64.679688 10 61.101562 10.277344 60.894531 C 10.484375 60.6875 11.863281 60.480469 13.308594 60.550781 C 15.65625 60.6875 16.136719 60.414062 16.828125 58.625 L 17.722656 56.558594 L 18.484375 58.140625 C 18.898438 59.035156 20 59.792969 20.828125 59.929688 C 22 60.136719 22.34375 59.792969 22.414062 58.554688 C 22.414062 56.972656 22.414062 56.972656 23.035156 58.417969 C 24.828125 62.957031 26.898438 60.550781 27.515625 53.121094 L 28 47.683594 L 30.207031 47.613281 C 31.378906 47.613281 34.070312 47.0625 36.136719 46.445312 L 39.929688 45.207031 L 40.136719 41.902344 L 40.34375 38.601562 L 43.242188 39.082031 C 46.691406 39.632812 46.621094 39.632812 48.070312 43.417969 C 49.101562 45.964844 49.242188 50.160156 49.242188 76.925781 L 49.242188 107.613281 L 44.691406 107.132812 C 40.484375 106.652344 40.207031 106.71875 39.792969 108.164062 C 39.449219 109.609375 39.101562 109.679688 34.828125 109.265625 C 24.621094 108.371094 25.449219 109.195312 24.414062 98.945312 C 24 95.160156 23.449219 91.167969 23.035156 90 C 22.691406 88.898438 21.792969 83.945312 20.964844 79.058594 C 20.207031 74.105469 19.378906 69.976562 19.242188 69.769531 C 19.035156 69.632812 18.621094 69.769531 18.207031 70.113281 C 17.863281 70.457031 18 72.386719 18.550781 74.863281 C 20.34375 82.363281 19.515625 83.257812 16.484375 77.203125 C 15.515625 75.34375 14.414062 73.832031 14.070312 73.832031 C 12.898438 73.832031 13.308594 74.863281 16.828125 80.710938 L 20.277344 86.421875 L 18.34375 89.585938 C 16.621094 92.546875 16.277344 92.753906 13.515625 92.890625 C 9.035156 93.097656 3.035156 94.472656 3.035156 95.296875 C 3.035156 95.710938 3.929688 95.847656 5.308594 95.640625 L 10.964844 94.816406 L 14.414062 94.402344 L 11.65625 95.710938 C 10.136719 96.46875 8.277344 97.570312 7.515625 98.121094 C 5.308594 99.839844 7.863281 100.320312 10.691406 98.738281 C 12 98.050781 14 97.15625 15.171875 96.742188 C 17.242188 96.054688 17.515625 96.125 19.792969 98.464844 C 21.929688 100.664062 22.277344 101.558594 22.691406 105.621094 C 23.171875 110.089844 22.070312 119.242188 21.035156 119.242188 C 20.828125 119.242188 17.171875 115.734375 12.964844 111.535156 Z M 46.757812 96.8125 C 47.308594 95.367188 46.691406 94.472656 45.101562 94.472656 C 43.585938 94.472656 42.757812 95.503906 43.308594 96.878906 C 43.792969 98.257812 46.207031 98.1875 46.757812 96.8125 Z M 46.691406 82.15625 C 47.101562 80.574219 46.691406 80.023438 45.035156 80.023438 C 43.515625 80.023438 42.757812 81.125 43.308594 82.429688 C 43.863281 83.945312 46.277344 83.667969 46.691406 82.15625 Z M 46.414062 68.050781 C 47.449219 66.8125 46.621094 64.886719 45.035156 64.886719 C 43.515625 64.886719 42.691406 66.398438 43.308594 67.980469 C 43.792969 69.289062 45.378906 69.289062 46.414062 68.050781 Z M 46.828125 53.1875 C 46.828125 51.949219 46.414062 51.398438 45.242188 51.261719 C 44.34375 51.125 43.515625 51.46875 43.308594 52.085938 C 42.621094 53.875 43.585938 55.390625 45.242188 55.113281 C 46.414062 54.976562 46.828125 54.425781 46.828125 53.1875 Z M 46.828125 53.1875 "
    />
    <path
      d="M 35.101562 116.695312 C 33.585938 116.558594 30.691406 116.148438 28.757812 115.734375 C 25.171875 115.046875 25.101562 114.976562 25.101562 112.570312 C 25.101562 110.4375 25.242188 110.160156 26.691406 110.503906 C 27.515625 110.710938 30.621094 111.125 33.585938 111.398438 L 38.898438 111.878906 L 38.898438 114.496094 C 38.898438 116.007812 38.691406 117.109375 38.414062 117.042969 Z M 61.65625 114.359375 L 61.65625 111.878906 L 67.035156 111.398438 C 69.929688 111.125 73.035156 110.710938 73.929688 110.503906 C 75.308594 110.160156 75.449219 110.4375 75.449219 112.570312 C 75.449219 115.320312 74.828125 115.597656 66.691406 116.421875 L 61.65625 116.902344 Z M 13.929688 56.214844 C 13.65625 52.84375 12 52.636719 11.035156 55.804688 C 10.136719 58.898438 9.308594 58.554688 9.722656 55.253906 C 10.136719 52.226562 9.101562 51.535156 7.449219 53.738281 C 6.621094 54.769531 6.550781 54.703125 6.484375 52.707031 L 6.484375 50.4375 L 14 50.4375 C 18.136719 50.4375 22.34375 50.160156 23.308594 49.746094 C 25.101562 49.128906 25.101562 49.128906 25.035156 52.707031 C 24.964844 55.457031 24.828125 55.871094 24.484375 54.289062 C 24.277344 53.121094 23.863281 52.292969 23.585938 52.363281 L 22.414062 52.5 C 22.070312 52.5 21.65625 53.808594 21.378906 55.390625 C 20.898438 58.347656 19.863281 58.28125 19.449219 55.253906 C 19.171875 52.84375 17.378906 53.121094 16 55.804688 C 14.414062 59.105469 14.207031 59.105469 13.929688 56.214844 Z M 84.828125 56.148438 C 83.171875 52.292969 80.964844 52.019531 80.964844 55.597656 C 80.964844 56.902344 80.621094 58.003906 80.207031 58.003906 C 79.863281 58.003906 79.65625 57.730469 79.929688 57.386719 C 80.136719 57.042969 80 56.558594 79.585938 56.285156 C 79.242188 56.078125 78.898438 55.113281 78.898438 54.152344 C 78.898438 53.257812 78.621094 52.5 78.207031 52.5 L 77.035156 52.363281 C 76.691406 52.292969 76.277344 53.121094 76.070312 54.289062 C 75.722656 55.871094 75.585938 55.457031 75.515625 52.707031 C 75.449219 49.128906 75.449219 49.128906 77.242188 49.746094 C 78.207031 50.160156 82.414062 50.4375 86.550781 50.4375 L 94.070312 50.4375 L 94.070312 52.707031 C 94 54.703125 93.929688 54.769531 93.101562 53.738281 C 91.449219 51.535156 90.414062 52.226562 90.828125 55.253906 C 91.242188 58.554688 90.414062 58.898438 89.515625 55.804688 C 88.550781 52.570312 86.898438 52.914062 86.414062 56.285156 L 86.070312 59.035156 Z M 13.035156 47.683594 C 13.242188 47.339844 15.929688 46.996094 18.964844 46.996094 C 22.484375 46.996094 24.34375 47.269531 24.070312 47.683594 C 23.863281 48.097656 21.171875 48.371094 18.136719 48.371094 C 14.621094 48.371094 12.757812 48.097656 13.035156 47.683594 Z M 76.484375 47.683594 C 76.207031 47.269531 78.070312 46.996094 81.585938 46.996094 C 84.621094 46.996094 87.308594 47.339844 87.515625 47.683594 C 87.792969 48.097656 85.929688 48.371094 82.414062 48.371094 C 79.378906 48.371094 76.691406 48.097656 76.484375 47.683594 Z M 49.65625 41.148438 C 49.378906 39.976562 48.691406 38.601562 48.207031 38.050781 C 47.378906 37.085938 47.585938 37.019531 50.277344 37.019531 C 52.898438 37.019531 53.171875 37.15625 52.414062 38.050781 C 51.863281 38.601562 51.171875 39.976562 50.828125 41.148438 L 50.136719 43.210938 Z M 47.035156 34.609375 C 46 34.335938 43.722656 32.890625 42 31.515625 L 38.898438 28.96875 L 38.898438 23.667969 C 38.898438 18.648438 40.34375 11.835938 41.722656 10.046875 C 42.207031 9.5625 44.207031 9.425781 48 9.703125 C 52.757812 9.976562 53.722656 9.910156 54.484375 8.875 C 55.101562 8.050781 56.070312 7.773438 58 7.914062 C 60.550781 8.121094 60.621094 8.1875 61.101562 11.214844 C 61.308594 12.9375 61.585938 17.613281 61.585938 21.675781 L 61.65625 29.035156 L 58.621094 31.515625 C 54.414062 34.953125 51.101562 35.847656 47.035156 34.609375 Z M 55.101562 23.601562 C 55.101562 22.292969 54.828125 19.816406 54.550781 18.164062 L 54 15.207031 L 57.171875 15.480469 C 59.65625 15.621094 60.277344 15.480469 60.136719 14.65625 C 59.863281 13.347656 55.378906 12.867188 53.308594 13.96875 C 52.070312 14.65625 51.929688 15.136719 52.34375 17.957031 C 52.550781 19.746094 52.964844 21.878906 53.171875 22.773438 C 53.585938 24.632812 51.585938 24.910156 50.207031 23.121094 C 49.378906 21.949219 49.308594 21.949219 48.898438 23.121094 C 47.929688 25.457031 49.035156 26.421875 52.136719 26.214844 C 55.035156 26.007812 55.101562 25.941406 55.101562 23.601562 Z M 35.585938 20.160156 C 35.585938 18.851562 35.722656 18.304688 35.929688 18.992188 C 36.070312 19.609375 36.070312 20.710938 35.929688 21.398438 C 35.722656 22.019531 35.585938 21.46875 35.585938 20.160156 Z M 64.550781 20.160156 C 64.550781 18.851562 64.691406 18.304688 64.898438 18.992188 C 65.035156 19.609375 65.035156 20.710938 64.898438 21.398438 C 64.691406 22.019531 64.550781 21.46875 64.550781 20.160156 Z M 64.550781 20.160156 "
    />
    <path
      d="M 38 11.628906 C 37.722656 10.941406 37.515625 8.875 37.515625 7.019531 C 37.515625 3.648438 37.515625 3.648438 39.722656 3.648438 C 41.242188 3.648438 42.414062 3.097656 43.378906 1.996094 C 44.691406 0.34375 45.171875 0.273438 54.898438 0.0703125 C 64.414062 -0.136719 64.964844 -0.0703125 63.929688 1.03125 C 62.484375 2.683594 63.242188 4.195312 65.863281 4.816406 L 68.070312 5.4375 L 66.136719 6.675781 C 64.828125 7.570312 64.070312 7.707031 63.722656 7.15625 C 63.515625 6.675781 60.691406 6.054688 57.449219 5.78125 C 54.277344 5.4375 50.964844 4.953125 50.136719 4.679688 C 48.207031 4.058594 47.929688 5.917969 49.792969 7.085938 C 50.621094 7.570312 49.515625 7.636719 45.722656 7.363281 L 40.484375 6.878906 L 39.449219 9.910156 C 38.691406 12.179688 38.34375 12.589844 38 11.628906 Z M 38 11.628906 "
    />
  </g>
</svg>
