<svg xmlns="http://www.w3.org/2000/svg" id="root" viewBox="0 0 100 80">
  <g>
    <path
      d="M 45.535156 79.628906 C 45 79.433594 44.046875 79.261719 43.4375 79.261719 C 42.800781 79.261719 41.972656 79.1875 41.582031 79.113281 C 40.871094 78.964844 40.847656 78.917969 41.042969 78.082031 C 42.019531 73.636719 41.945312 72.777344 40.898438 76.4375 C 40.53125 77.640625 40.214844 78.671875 40.164062 78.71875 C 40.140625 78.769531 39.726562 78.648438 39.261719 78.449219 C 38.820312 78.253906 37.941406 78.03125 37.308594 77.933594 C 36.671875 77.835938 35.941406 77.566406 35.671875 77.34375 C 35.207031 76.925781 35.230469 76.878906 36.28125 74.472656 C 36.867188 73.121094 37.308594 71.917969 37.257812 71.769531 C 37.234375 71.644531 36.648438 72.628906 35.988281 73.957031 C 35.328125 75.304688 34.695312 76.386719 34.546875 76.386719 C 34.425781 76.386719 34.15625 76.09375 33.988281 75.722656 C 33.792969 75.355469 33.375 74.960938 33.058594 74.839844 C 32.742188 74.714844 32.472656 74.570312 32.472656 74.519531 C 32.472656 74.472656 32.960938 73.339844 33.597656 72.039062 C 34.964844 69.042969 34.890625 68.429688 33.472656 71.179688 C 32.203125 73.636719 31.984375 73.929688 31.984375 73.070312 C 31.984375 72.703125 31.863281 72.332031 31.714844 72.234375 C 31.277344 71.964844 31.617188 70.664062 32.644531 68.796875 C 33.179688 67.839844 33.914062 66.167969 34.304688 65.0625 C 34.671875 63.980469 35.0625 62.976562 35.132812 62.851562 C 35.230469 62.703125 35.988281 62.804688 37.113281 63.074219 C 38.652344 63.464844 40.1875 63.589844 46.511719 63.710938 C 53.347656 63.835938 54.496094 63.785156 58.355469 63.320312 C 60.699219 63.023438 62.921875 62.730469 63.3125 62.632812 C 63.800781 62.53125 63.96875 62.605469 63.96875 62.875 C 63.96875 63.910156 66.019531 68.402344 67.265625 70.148438 C 68 71.15625 68.609375 72.261719 68.609375 72.554688 C 68.609375 72.898438 68.097656 73.660156 67.316406 74.472656 L 66.019531 75.847656 L 65.070312 73.832031 C 63.898438 71.351562 63.652344 71.644531 64.703125 74.25 C 65.484375 76.214844 65.433594 76.535156 64.433594 76.558594 C 64.214844 76.558594 63.628906 76.902344 63.117188 77.296875 C 62.601562 77.714844 62.113281 78.03125 62.015625 78.03125 C 61.945312 78.03125 61.480469 76.925781 61.039062 75.578125 C 60.601562 74.226562 60.136719 73.121094 60.015625 73.121094 C 59.890625 73.121094 59.867188 73.367188 59.941406 73.636719 C 60.039062 73.929688 60.355469 75.085938 60.648438 76.214844 L 61.210938 78.253906 L 60.453125 78.402344 C 60.039062 78.5 59.527344 78.597656 59.304688 78.671875 C 58.988281 78.769531 58.816406 78.304688 58.378906 76.386719 C 57.816406 73.929688 57.425781 72.726562 57.253906 72.898438 C 57.207031 72.949219 57.28125 73.5625 57.402344 74.226562 C 57.523438 74.914062 57.671875 75.675781 57.71875 75.945312 C 57.769531 76.214844 57.9375 76.925781 58.109375 77.515625 C 58.257812 78.082031 58.355469 78.621094 58.304688 78.648438 C 58.257812 78.695312 57.574219 78.84375 56.765625 78.992188 C 55.960938 79.113281 55.132812 79.285156 54.910156 79.382812 C 54.570312 79.507812 54.449219 79.285156 54.253906 78.230469 C 53.8125 76.042969 53.347656 74.324219 53.203125 74.445312 C 53.128906 74.519531 53.25 75.648438 53.472656 76.976562 L 53.886719 79.382812 L 52.152344 79.605469 C 51.199219 79.726562 49.882812 79.851562 49.222656 79.851562 L 48.050781 79.875 L 48.074219 77.125 C 48.097656 75.578125 48.027344 74.347656 47.902344 74.347656 C 47.660156 74.347656 47.367188 76.265625 47.367188 77.910156 C 47.367188 79.1875 47.121094 79.996094 46.78125 79.996094 C 46.632812 79.972656 46.074219 79.824219 45.535156 79.628906 Z M 44.070312 62.164062 C 38.96875 61.894531 37.820312 61.769531 35.160156 61.109375 C 31.765625 60.25 27.90625 58.945312 27.347656 58.480469 C 27.152344 58.308594 26.664062 58.085938 26.246094 57.988281 C 25.003906 57.695312 23.269531 56.710938 20.679688 54.84375 C 19.3125 53.863281 17.578125 52.609375 16.824219 52.09375 C 15.234375 50.988281 11.230469 47.964844 11.304688 47.917969 C 11.328125 47.890625 12.890625 48.015625 14.773438 48.1875 C 17.945312 48.457031 18.3125 48.53125 20.019531 49.390625 C 21.023438 49.90625 23.171875 50.71875 24.78125 51.207031 L 27.710938 52.066406 L 33.570312 52.117188 C 39.066406 52.167969 39.578125 52.191406 41.628906 52.78125 C 42.851562 53.125 44.144531 53.542969 44.511719 53.6875 C 45.460938 54.058594 47.023438 54.035156 48.589844 53.589844 C 52.835938 52.410156 54.226562 52.238281 59.574219 52.238281 C 65.679688 52.214844 68.097656 51.871094 73.199219 50.324219 C 76.300781 49.367188 76.570312 49.316406 79.792969 49.316406 C 84.578125 49.316406 86.3125 48.703125 87.191406 46.714844 C 87.75 45.4375 87.972656 45.238281 89.363281 44.871094 C 89.972656 44.699219 90.875 44.355469 91.363281 44.109375 C 91.851562 43.863281 92.367188 43.640625 92.488281 43.640625 C 93.050781 43.640625 85.433594 50.742188 82.304688 53.125 C 80.378906 54.597656 78.570312 55.972656 78.277344 56.195312 C 76.226562 57.792969 65.386719 61.007812 60.183594 61.574219 C 58.71875 61.746094 56.449219 62.015625 55.179688 62.214844 C 52.542969 62.605469 52.078125 62.605469 44.070312 62.164062 Z M 44.070312 62.164062 "
    />
    <path
      d="M 43.460938 51.824219 C 40.019531 50.691406 38.359375 50.496094 33.695312 50.667969 C 29.859375 50.789062 29.203125 50.765625 27.222656 50.300781 C 24.148438 49.5625 22.925781 49.144531 20.339844 47.917969 C 18.140625 46.859375 17.996094 46.835938 14.480469 46.589844 C 8.519531 46.171875 8.351562 46.097656 8.277344 43.9375 C 8.226562 42.511719 8.058594 42.316406 6.886719 42.046875 C 5.445312 41.75 3.078125 40.671875 2.367188 40.007812 C 1.613281 39.292969 1.539062 38.605469 2.074219 37.328125 C 2.492188 36.347656 2.5625 35.046875 2.199219 35.046875 C 1.90625 35.046875 0 33.351562 0 33.078125 C 0 32.859375 0.78125 32.515625 3.101562 31.703125 C 5.296875 30.96875 6.105469 30.28125 6.8125 28.660156 C 7.472656 27.136719 7.714844 26.964844 10.082031 26.324219 C 11.183594 26.03125 13.257812 25.464844 14.699219 25.097656 C 17.214844 24.433594 17.335938 24.359375 17.578125 23.597656 C 17.75 23.105469 18.09375 22.714844 18.507812 22.566406 C 18.875 22.417969 20.925781 22.246094 23.074219 22.171875 C 25.882812 22.097656 28.128906 21.855469 31.128906 21.3125 C 33.425781 20.894531 36.039062 20.550781 36.964844 20.550781 C 38.457031 20.550781 38.601562 20.601562 38.457031 20.992188 C 38.039062 22.027344 37.84375 22.933594 37.699219 24.875 C 37.601562 26.003906 37.429688 26.9375 37.332031 26.9375 C 37.210938 26.9375 37.113281 26.765625 37.113281 26.546875 C 37.113281 26.324219 36.894531 25.414062 36.625 24.53125 C 36.378906 23.621094 36.039062 22.394531 35.890625 21.804688 C 35.71875 21.167969 35.523438 20.820312 35.378906 20.96875 C 35.257812 21.09375 35.355469 21.925781 35.621094 23.007812 C 35.890625 24.015625 36.332031 25.785156 36.625 26.9375 C 36.917969 28.09375 37.308594 30.058594 37.503906 31.3125 C 37.699219 32.710938 38.113281 34.210938 38.527344 35.117188 C 39.554688 37.304688 39.578125 37.453125 39.113281 37.601562 C 38.894531 37.648438 37.429688 37.945312 35.890625 38.238281 C 34.351562 38.507812 32.328125 38.976562 31.421875 39.269531 C 30.472656 39.566406 29.691406 39.6875 29.566406 39.566406 C 29.46875 39.441406 27.761719 36.59375 25.757812 33.203125 C 21.023438 25.171875 19.972656 23.5 19.703125 23.5 C 19.582031 23.5 19.703125 23.867188 19.972656 24.308594 C 20.242188 24.726562 20.898438 25.882812 21.4375 26.816406 C 22.363281 28.484375 25.710938 34.285156 27.808594 37.917969 C 28.394531 38.902344 28.785156 39.808594 28.714844 39.933594 C 28.617188 40.054688 28.152344 40.300781 27.640625 40.472656 C 26.539062 40.816406 24.441406 41.824219 22.925781 42.734375 L 21.828125 43.398438 L 21.070312 42.339844 C 20.65625 41.777344 19.117188 39.738281 17.675781 37.84375 C 16.210938 35.929688 14.210938 33.300781 13.234375 32.023438 C 10.863281 28.902344 9.621094 27.503906 9.375 27.75 C 9.277344 27.847656 9.472656 28.242188 9.816406 28.609375 C 10.15625 28.976562 11.183594 30.28125 12.085938 31.484375 C 13.015625 32.710938 14.285156 34.355469 14.894531 35.167969 C 21.386719 43.617188 21.558594 43.863281 21.121094 44.035156 C 20.632812 44.230469 19.53125 46.125 19.53125 46.785156 C 19.53125 47.621094 20.019531 47.425781 20.191406 46.542969 C 20.507812 44.871094 23.730469 42.5625 27.835938 40.988281 C 30.910156 39.835938 37.746094 38.238281 39.726562 38.238281 C 40.578125 38.238281 41.042969 38.410156 42.070312 39.171875 C 44.144531 40.71875 45.707031 41.1875 48.882812 41.1875 C 52.078125 41.1875 53.8125 40.671875 55.863281 39.148438 C 57.085938 38.214844 57.207031 38.1875 58.550781 38.3125 C 60.355469 38.484375 65.09375 39.34375 67.65625 39.984375 C 72.5625 41.1875 76.277344 43.152344 78.15625 45.507812 C 78.546875 46 78.863281 46.492188 78.886719 46.566406 C 79.058594 47.867188 79.109375 47.820312 77.570312 47.820312 C 76.738281 47.820312 75.421875 48.039062 74.617188 48.285156 C 67.828125 50.472656 66.070312 50.765625 59.453125 50.765625 C 54.203125 50.765625 52.957031 50.914062 48.980469 51.96875 C 46.5625 52.609375 45.753906 52.585938 43.460938 51.824219 Z M 43.460938 51.824219 "
    />
    <path
      d="M 79.839844 47.402344 C 79.839844 47.128906 79.523438 46.417969 79.109375 45.828125 L 78.375 44.746094 L 79.058594 44.160156 C 79.425781 43.839844 80.5 42.882812 81.425781 42.046875 C 82.378906 41.210938 84.894531 38.976562 87.042969 37.109375 C 91.878906 32.882812 93.929688 30.941406 93.734375 30.746094 C 93.585938 30.597656 93.171875 30.941406 90.09375 33.695312 C 89.339844 34.382812 87.191406 36.25 85.335938 37.871094 C 83.476562 39.492188 81.109375 41.554688 80.109375 42.488281 C 79.082031 43.398438 78.132812 44.132812 77.984375 44.132812 C 77.839844 44.132812 77.128906 43.691406 76.398438 43.125 C 75.664062 42.585938 74.617188 41.921875 74.054688 41.628906 L 73.054688 41.113281 L 74.25 39.492188 C 74.910156 38.605469 75.984375 37.15625 76.59375 36.273438 C 77.226562 35.390625 78.960938 33.03125 80.449219 30.992188 C 83.40625 26.964844 84.382812 25.464844 84.0625 25.464844 C 83.941406 25.464844 83.453125 25.980469 82.988281 26.644531 C 82.5 27.28125 80.183594 30.402344 77.8125 33.570312 C 75.445312 36.738281 73.25 39.664062 72.929688 40.082031 L 72.320312 40.792969 L 70.050781 40.03125 C 68.78125 39.613281 67.070312 39.121094 66.242188 38.949219 C 65.386719 38.777344 64.703125 38.507812 64.703125 38.359375 C 64.703125 38.214844 64.921875 37.207031 65.191406 36.125 C 65.460938 35.070312 65.898438 33.128906 66.191406 31.851562 C 66.460938 30.574219 66.925781 28.585938 67.191406 27.429688 C 67.460938 26.277344 67.851562 24.433594 68.070312 23.328125 C 68.511719 20.992188 68.363281 21.09375 71.050781 21.65625 C 73.101562 22.097656 75.054688 22.714844 76.910156 23.574219 C 78.007812 24.066406 78.816406 24.210938 81.183594 24.335938 C 86.140625 24.605469 86.066406 24.582031 86.871094 25.90625 C 87.554688 27.011719 87.679688 27.085938 90.316406 28.042969 C 93.878906 29.320312 94.976562 30.207031 95.148438 31.972656 C 95.222656 32.664062 95.394531 33.324219 95.515625 33.496094 C 95.660156 33.667969 96.371094 34.039062 97.128906 34.308594 C 99.300781 35.117188 100.128906 35.535156 99.984375 35.804688 C 99.886719 35.929688 99.691406 36.027344 99.519531 36.027344 C 99.375 36.027344 98.324219 36.46875 97.226562 37.011719 L 95.222656 37.96875 L 95.222656 39.050781 C 95.222656 39.957031 95.101562 40.226562 94.320312 40.988281 C 93.804688 41.457031 92.902344 42.019531 92.292969 42.242188 C 89.558594 43.175781 87.484375 43.988281 86.996094 44.304688 C 86.703125 44.503906 86.285156 45.140625 86.042969 45.730469 C 85.53125 47.105469 84.699219 47.523438 81.941406 47.71875 C 79.9375 47.890625 79.839844 47.867188 79.839844 47.402344 Z M 45.902344 39.515625 C 44.386719 39.097656 41.507812 37.207031 41.507812 36.640625 C 41.507812 36.46875 41.335938 36.273438 41.140625 36.175781 C 40.945312 36.101562 40.773438 35.878906 40.773438 35.683594 C 40.773438 35.460938 40.578125 35.191406 40.3125 35.070312 C 40.066406 34.921875 39.726562 34.285156 39.554688 33.644531 C 39.382812 33.007812 39.140625 32.34375 39.042969 32.195312 C 38.917969 32.046875 38.871094 31.703125 38.945312 31.410156 C 38.992188 31.113281 38.945312 30.820312 38.796875 30.746094 C 38.480469 30.523438 38.503906 27.675781 38.847656 27.675781 C 39.015625 27.675781 39.089844 27.234375 39.015625 26.449219 C 38.945312 25.785156 38.992188 25.21875 39.113281 25.21875 C 39.210938 25.21875 39.308594 24.851562 39.308594 24.410156 C 39.308594 23.351562 39.796875 20.75 40.066406 20.40625 C 40.1875 20.257812 40.433594 19.324219 40.652344 18.339844 C 40.871094 17.359375 41.117188 16.425781 41.214844 16.277344 C 41.335938 16.128906 41.582031 15.515625 41.75 14.902344 C 41.921875 14.289062 42.191406 13.648438 42.3125 13.5 C 42.433594 13.328125 42.460938 13.183594 42.363281 13.183594 C 42.265625 13.183594 42.289062 13.035156 42.410156 12.863281 C 42.558594 12.714844 42.800781 12.050781 42.972656 11.390625 C 43.144531 10.75 43.386719 10.234375 43.484375 10.234375 C 43.605469 10.234375 43.679688 10.160156 43.65625 10.0625 C 43.605469 9.84375 44.484375 7.976562 44.707031 7.777344 C 44.777344 7.703125 45 7.214844 45.167969 6.671875 C 45.316406 6.132812 45.730469 5.273438 46.046875 4.78125 C 46.367188 4.265625 46.632812 3.75 46.632812 3.601562 C 46.632812 3.480469 46.757812 3.355469 46.902344 3.355469 C 47.023438 3.355469 47.074219 3.257812 47 3.109375 C 46.925781 2.988281 46.953125 2.867188 47.074219 2.867188 C 47.195312 2.867188 47.441406 2.421875 47.609375 1.882812 C 47.804688 1.316406 48.074219 0.800781 48.246094 0.703125 C 48.390625 0.605469 48.5625 0.3125 48.613281 0.0390625 C 48.6875 -0.253906 49.492188 1.144531 50.859375 3.898438 C 52.03125 6.253906 52.984375 8.320312 52.984375 8.492188 C 52.984375 8.636719 53.082031 8.761719 53.226562 8.761719 C 53.347656 8.761719 53.640625 9.375 53.835938 10.113281 C 54.058594 10.847656 54.324219 11.464844 54.449219 11.464844 C 54.570312 11.464844 54.714844 11.832031 54.8125 12.25 C 54.910156 12.691406 55.179688 13.402344 55.425781 13.820312 C 55.644531 14.238281 55.984375 15 56.15625 15.539062 C 56.328125 16.058594 56.546875 16.621094 56.644531 16.746094 C 56.742188 16.890625 57.011719 17.777344 57.253906 18.710938 C 57.523438 19.667969 57.792969 20.476562 57.890625 20.550781 C 58.011719 20.625 58.207031 21.925781 58.378906 23.449219 C 58.550781 24.949219 58.746094 26.203125 58.816406 26.203125 C 59.011719 26.203125 59.011719 32.664062 58.84375 32.835938 C 58.746094 32.90625 58.550781 33.421875 58.378906 34.011719 C 58.0625 35.167969 55.839844 37.601562 54.472656 38.335938 C 54.058594 38.558594 53.347656 38.925781 52.933594 39.148438 C 52.324219 39.464844 51.445312 39.589844 49.320312 39.636719 C 47.78125 39.664062 46.242188 39.613281 45.902344 39.515625 Z M 96.734375 39.292969 C 96.808594 38.851562 99.03125 37.574219 99.277344 37.820312 C 99.421875 37.96875 97.199219 39.6875 96.859375 39.710938 C 96.734375 39.710938 96.6875 39.515625 96.734375 39.292969 Z M 96.734375 39.292969 "
    />
    <path
      d="M 61.285156 38.117188 C 60.550781 37.917969 59.476562 37.746094 58.914062 37.722656 C 58.328125 37.671875 57.867188 37.601562 57.867188 37.550781 C 57.867188 37.5 58.160156 37.109375 58.5 36.691406 C 58.84375 36.273438 59.402344 35.339844 59.722656 34.652344 C 60.257812 33.472656 60.308594 33.054688 60.308594 29.714844 C 60.28125 26.324219 59.890625 22.246094 59.453125 21.214844 C 59.28125 20.796875 59.402344 20.773438 61.308594 20.894531 C 62.433594 20.96875 64.433594 21.117188 65.753906 21.191406 C 67.851562 21.3125 68.144531 21.386719 67.972656 21.730469 C 67.804688 22.148438 67.242188 24.53125 66.535156 27.675781 C 66.144531 29.566406 66.117188 29.640625 65.289062 33.203125 C 64.945312 34.699219 64.554688 36.496094 64.410156 37.207031 C 64.164062 38.433594 64.140625 38.484375 63.410156 38.460938 C 62.96875 38.460938 62.015625 38.289062 61.285156 38.117188 Z M 61.285156 38.117188 "
    />
  </g>
</svg>
