<svg id="root" xmlns="http://www.w3.org/2000/svg" width="768" height="441" viewBox="0 0 7680 4410">
  <g>
    <path
      d="M3675 3725c-22-8-61-15-86-15-26 0-60-3-76-6-29-6-30-8-22-42 40-181 37-216-6-67-15 49-28 91-30 93-1 2-18-3-37-11-18-8-54-17-80-21s-56-15-67-24c-19-17-18-19 25-117 24-55 42-104 40-110-1-5-25 35-52 89-27 55-53 99-59 99-5 0-16-12-23-27-8-15-25-31-38-36s-24-11-24-13 20-48 46-101c56-122 53-147-5-35-52 100-61 112-61 77 0-15-5-30-11-34-18-11-4-64 38-140 22-39 52-107 68-152 15-44 31-85 34-90 4-6 35-2 81 9 63 16 126 21 385 26 280 5 327 3 485-16 96-12 187-24 203-28 20-4 27-1 27 10 0 42 84 225 135 296 30 41 55 86 55 98 0 14-21 45-53 78l-53 56-39-82c-48-101-58-89-15 17 32 80 30 93-11 94-9 0-33 14-54 30-21 17-41 30-45 30-3 0-22-45-40-100s-37-100-42-100-6 10-3 21c4 12 17 59 29 105l23 83-31 6c-17 4-38 8-47 11-13 4-20-15-38-93-23-100-39-149-46-142-2 2 1 27 6 54 5 28 11 59 13 70s9 40 16 64c6 23 10 45 8 46-2 2-30 8-63 14-33 5-67 12-76 16-14 5-19-4-27-47-18-89-37-159-43-154-3 3 2 49 11 103l17 98-71 9c-39 5-93 10-120 10l-48 1 1-112c1-63-2-113-7-113-10 0-22 78-22 145 0 52-10 85-24 85-6-1-29-7-51-15zm-60-711c-209-11-256-16-365-43-139-35-297-88-320-107-8-7-28-16-45-20-51-12-122-52-228-128-56-40-127-91-158-112-65-45-229-168-226-170 1-1 65 4 142 11 130 11 145 14 215 49 41 21 129 54 195 74l120 35 240 2c225 2 246 3 330 27 50 14 103 31 118 37 39 15 103 14 167-4 174-48 231-55 450-55 250-1 349-15 558-78 127-39 138-41 270-41 196 0 267-25 303-106 23-52 32-60 89-75 25-7 62-21 82-31s41-19 46-19c23 0-289 289-417 386-79 60-153 116-165 125-84 65-528 196-741 219-60 7-153 18-205 26-108 16-127 16-455-2z" />
    <path
      d="M3590 2593c-141-46-209-54-400-47-157 5-184 4-265-15-126-30-176-47-282-97-90-43-96-44-240-54-244-17-251-20-254-108-2-58-9-66-57-77-59-12-156-56-185-83-31-29-34-57-12-109 17-40 20-93 5-93-12 0-90-69-90-80 0-9 32-23 127-56 90-30 123-58 152-124 27-62 37-69 134-95 45-12 130-35 189-50 103-27 108-30 118-61 7-20 21-36 38-42 15-6 99-13 187-16 115-3 207-13 330-35 94-17 201-31 239-31 61 0 67 2 61 18-17 42-25 79-31 158-4 46-11 84-15 84-5 0-9-7-9-16s-9-46-20-82c-10-37-24-87-30-111-7-26-15-40-21-34-5 5-1 39 10 83 11 41 29 113 41 160s28 127 36 178c8 57 25 118 42 155 42 89 43 95 24 101-9 2-69 14-132 26-63 11-146 30-183 42-39 12-71 17-76 12-4-5-74-121-156-259-194-327-237-395-248-395-5 0 0 15 11 33 11 17 38 64 60 102 38 68 175 304 261 452 24 40 40 77 37 82-4 5-23 15-44 22-45 14-131 55-193 92l-45 27-31-43c-17-23-80-106-139-183-60-78-142-185-182-237-97-127-148-184-158-174-4 4 4 20 18 35s56 68 93 117c38 50 90 117 115 150 266 344 273 354 255 361-20 8-65 85-65 112 0 34 20 26 27-10 13-68 145-162 313-226 126-47 406-112 487-112 35 0 54 7 96 38 85 63 149 82 279 82 131 0 202-21 286-83 50-38 55-39 110-34 74 7 268 42 373 68 201 49 353 129 430 225 16 20 29 40 30 43 7 53 9 51-54 51-34 0-88 9-121 19-278 89-350 101-621 101-215 0-266 6-429 49-99 26-132 25-226-6z" />
    <path
      d="M5080 2413c0-11-13-40-30-64l-30-44 28-24c15-13 59-52 97-86 39-34 142-125 230-201 198-172 282-251 274-259-6-6-23 8-149 120-31 28-119 104-195 170s-173 150-214 188c-42 37-81 67-87 67s-35-18-65-41c-30-22-73-49-96-61l-41-21 49-66c27-36 71-95 96-131 26-36 97-132 158-215 121-164 161-225 148-225-5 0-25 21-44 48-20 26-115 153-212 282s-187 248-200 265l-25 29-93-31c-52-17-122-37-156-44-35-7-63-18-63-24s9-47 20-91c11-43 29-122 41-174 11-52 30-133 41-180s27-122 36-167c18-95 12-91 122-68 84 18 164 43 240 78 45 20 78 26 175 31 203 11 200 10 233 64 28 45 33 48 141 87 146 52 191 88 198 160 3 28 10 55 15 62 6 7 35 22 66 33 89 33 123 50 117 61-4 5-12 9-19 9-6 0-49 18-94 40l-82 39v44c0 37-5 48-37 79-21 19-58 42-83 51-112 38-197 71-217 84-12 8-29 34-39 58-21 56-55 73-168 81-82 7-86 6-86-13zm-1390-321c-62-17-180-94-180-117 0-7-7-15-15-19-8-3-15-12-15-20 0-9-8-20-19-25-10-6-24-32-31-58s-17-53-21-59c-5-6-7-20-4-32 2-12 0-24-6-27-13-9-12-125 2-125 7 0 10-18 7-50-3-27-1-50 4-50 4 0 8-15 8-33 0-43 20-149 31-163 5-6 15-44 24-84s19-78 23-84c5-6 15-31 22-56s18-51 23-57c5-7 6-13 2-13s-3-6 2-13c6-6 16-33 23-60 7-26 17-47 21-47 5 0 8-3 7-7-2-9 34-85 43-93 3-3 12-23 19-45 6-22 23-57 36-77 13-21 24-42 24-48 0-5 5-10 11-10 5 0 7-4 4-10-3-5-2-10 3-10s15-18 22-40c8-23 19-44 26-48 6-4 13-16 15-27 3-12 36 45 92 157 48 96 87 180 87 187 0 6 4 11 10 11 5 0 17 25 25 55 9 30 20 55 25 55s11 15 15 32c4 18 15 47 25 64 9 17 23 48 30 70 7 21 16 44 20 49 4 6 15 42 25 80 11 39 22 72 26 75 5 3 13 56 20 118 7 61 15 112 18 112 8 0 8 263 1 270-4 3-12 24-19 48-13 47-104 146-160 176-17 9-46 24-63 33-25 13-61 18-148 20-63 1-126-1-140-5zm2082-9c3-18 94-70 104-60 6 6-85 76-99 77-5 0-7-8-5-17z" />
    <path
      d="M4320 2035c-30-8-74-15-97-16-24-2-43-5-43-7s12-18 26-35 37-55 50-83c22-48 24-65 24-201-1-138-17-304-35-346-7-17-2-18 76-13 46 3 128 9 182 12 86 5 98 8 91 22-7 17-30 114-59 242-16 77-17 80-51 225-14 61-30 134-36 163-10 50-11 52-41 51-18 0-57-7-87-14z" />
  </g>
</svg>