<svg xmlns="http://www.w3.org/2000/svg" id="root" viewBox="612 244.75 6416.25 4338.93">
  <path
    d="M3184 4030c-58-24-70-91-24-139 37-38 74-40 113-6 69 61-4 181-89 145zm74-39c8-5 12-23 10-47-3-38-4-39-45-42-33-2-44 1-52 17-11 20-6 45 12 69 11 14 55 16 75 3zm327-10c-50-13-89-37-133-85-41-44-42-47-42-113 1-59 5-76 34-123 59-100 187-128 285-61 56 37 80 72 93 134 15 73-7 145-63 198-53 51-106 66-174 50zm150-61c50-47 80-150 57-198-5-9-15-30-23-47-26-56-158-103-207-75-9 5-29 14-45 20-15 5-30 18-34 27-4 10-11 21-16 25-13 8-21 107-13 153 5 23 23 52 51 81l44 46 80-3c68-4 83-8 106-29zm-584-189c-20-15-24-27-23-65 0-61 22-86 73-86 50 0 79 30 79 82 0 73-73 112-129 69zm87-27c46-32 16-98-42-92-29 3-31 6-34 46-3 36 0 44 20 51 31 13 31 13 56-5zm927 279c-31-8-65-39-87-80-17-31-22-61-26-159l-4-122 37-40c50-56 95-64 339-60l195 3 34 33c41 40 58 97 64 215 6 120-7 148-85 177-45 17-92 24-222 31-181 9-215 9-245 2zm392-42c56-7 77-14 100-35 27-26 28-28 27-134 0-92-3-113-24-150-13-26-34-47-49-53-14-5-36-14-48-21-13-6-44-8-80-4-32 4-122 10-200 14-139 8-144 9-173 37s-30 31-30 121c0 123 14 188 47 214 23 18 40 20 192 20 91-1 198-5 238-9zm440-27c-57-21-113-64-131-102-34-69-14-196 39-250 29-30 42-36 90-40 156-13 262 94 239 244-5 36-17 58-47 91-66 72-111 85-190 57zm142-46c45-26 61-62 61-135 0-89-36-145-114-177-50-21-60-20-117 5-38 18-50 30-68 68-26 58-27 96-2 153 21 50 42 71 91 92 50 22 105 20 149-6zm1165 22c-38-15-66-60-58-94 13-64 86-87 123-40 23 30 28 90 8 115-16 21-47 29-73 19zm64-63c4-37-24-69-57-65-21 2-27 9-29 36-4 44 13 64 52 60 26-2 32-8 34-31zm118 34c-9-10-19-34-23-54-4-29-1-40 20-61 34-34 62-33 98 3 33 33 38 74 13 109-20 29-83 31-108 3zm84-35c17-47-9-84-51-71-14 5-19 16-19 44 0 44 5 51 37 51 16 0 27-8 33-24zm-305-205c-60-25-73-97-24-134 37-27 84-16 110 26 25 41 24 49-7 86-26 32-43 36-79 22zm61-46c19-49-43-100-72-61-7 10-11 24-8 32 2 8 6 21 9 29 6 20 64 20 71 0zm124 18c-17-22-21-37-17-67 6-44 19-56 63-56 43 0 65 20 71 67 4 33 1 45-16 62-30 30-74 27-101-6zm85-23c16-17 17-23 5-45-7-13-19-26-27-29-25-10-53 13-53 42 0 51 42 69 75 32zm-2923-472c-16-16-15-65 1-71 9-3 11-33 9-119-2-85 0-117 10-125 7-6 65-19 128-28 63-10 124-24 135-31s36-15 55-16c31-3 34 0 41 29 3 18 14 44 23 57 18 28 22 101 6 111-5 3-10 41-10 84v78l-77 12c-43 7-92 16-109 21-44 14-197 13-212-2z"
  ></path>
  <path
    d="M4034 3023c-4-19-3-56 2-81 12-73 6-141-16-177-24-38-25-60-5-98 14-27 12-30-25-85-46-66-49-95-16-165 26-54 19-57 105 49 55 68 106 114 127 114 8 0 14 5 14 10 0 6 7 10 15 10 15 0 55 68 55 93 0 8 9 26 21 41 16 20 29 26 60 26h39v107l-62 41c-35 23-67 45-73 49-17 13-86 45-162 73l-73 28zm402-190c-12-12-6-71 9-83 8-7 15-18 15-25s7-18 15-25 15-25 15-40c0-20 10-36 35-57 139-112 189-185 199-288 3-33 19-98 36-144 25-67 31-99 30-155-1-39-1-79-1-89 0-9 10-31 21-48 19-26 26-29 54-23 46 9 46 10 45 72-1 94-39 279-78 377-30 79-91 196-128 246-18 26-33 49-33 52 0 9-40 55-120 140-77 81-103 101-114 90z"
  ></path>
  <path
    d="M3488 2731c-21-12-53-21-72-21s-41-3-50-6c-23-9-20-56 6-89 15-20 23-46 26-87 5-64 19-74 56-39 17 16 38 20 101 22 44 1 93-2 108-6 29-8 79 13 136 57 35 26 55 22 90-18 31-35 51-38 51-6 0 10 14 34 31 55 38 46 34 83-9 93-15 3-44 12-65 20-20 8-54 14-75 14s-43 5-50 12-56 13-129 16c-105 3-122 1-155-17zm865 9c-25-10-43-39-43-69 0-28-53-85-92-102-30-12-118-90-118-104 0-3-22-33-49-68-26-34-54-74-62-88-8-15-22-41-32-59-15-26-17-44-12-91l7-58 36 2c37 2 37 1 46-45 14-71 47-61 62 17 10 54 49 115 74 115 14 0 20-7 20-23 0-35 8-38 43-16 18 10 43 19 55 19 13 0 35 9 49 20s35 20 47 20c11 1 35 13 53 28l31 27-2 130c-2 124-1 131 22 154l23 23-25 39c-14 21-26 49-26 61-1 51-59 88-107 68z"
  ></path>
  <path
    d="M3207 2700c4-26 0-51-11-74-10-22-16-61-16-110 0-64 3-77 19-86 19-10 52-103 66-183 4-28 13-40 31-47 13-5 24-14 24-20 0-5 7-10 15-10 10 0 15 10 15 29 0 34 19 93 34 103 16 11 15 140-2 160-11 13-11 20 0 37 10 16 10 23 0 33-6 6-12 21-12 33s-7 30-15 41c-8 10-15 28-15 39 0 25-18 45-40 45-8 0-32 11-52 25s-39 25-42 25c-2 0-2-18 1-40zm-510-109c-20-26-37-52-37-56 0-5-6-16-14-24-19-21-103-189-111-221-5-23-2-26 42-39 26-8 53-17 58-21 6-4 38-16 73-25 34-10 65-22 68-26 10-16 66-9 91 11 14 11 35 20 47 20 11 0 35 9 51 20 17 11 38 20 47 20 21 0 36 66 19 83-6 6-11 25-11 42 0 19-8 39-19 49-19 17-20 17-35-6-8-12-22-50-30-82-19-71-22-75-70-86-57-13-117 9-141 53-18 32-18 40-6 89 11 42 25 65 69 110 31 32 54 59 51 61-2 1-25 19-51 40-25 20-48 37-50 37s-21-22-41-49z"
  ></path>
  <path
    d="M3114 2595c-15-10-23-29-27-65-3-28-15-66-27-84-24-39-26-88-5-106 19-16 19-44 0-74-22-34-11-66 41-117l44-43v-73c0-74 0-74 35-94 19-12 35-26 35-33 0-20 47-58 67-54 15 3 18 15 21 78 2 41-2 84-7 95-6 11-19 67-30 125-40 214-48 241-76 270-26 27-26 30-19 109 6 75 5 81-12 81-11 0-29-7-40-15zm661-73-50-37h-127c-126 0-127 0-157-29-32-30-42-78-20-92 6-3 20-25 31-48 31-65 62-122 74-137 6-8 26-41 44-74 48-89 55-94 80-62 18 22 29 27 68 27 33 0 52-6 68-21l22-21 36 64c20 34 41 70 46 78s27 49 50 90l42 75-16 48c-9 27-29 65-46 85-16 20-30 42-30 48 0 15-33 44-51 44-8 0-36-17-64-38zm739 20c-19-15-21-28-22-135-1-170 17-209 93-197 25 4 51 14 58 23 6 8 21 17 32 19 18 3 20 10 16 73-2 38-7 79-11 91-11 28-119 144-134 144-6 0-20-8-32-18zm-1708-50c-26-26-49-58-52-72s-9-33-15-42c-16-31-10-56 22-82 40-34 71-41 109-25 23 11 32 23 36 49 4 19 10 40 14 45 4 6 14 29 21 53 11 40 11 44-12 68-13 14-36 32-51 40-25 13-28 12-72-34zm582-220c-27-60-25-127 6-207 25-62 68-125 86-125 4 0 24 11 44 25s43 25 51 25c31 0 24 26-36 128-34 59-72 126-83 149-26 53-46 54-68 5z"
  ></path>
  <path
    d="M2513 2227c-18-40-45-189-36-198 5-5 57-2 120 6 78 10 120 12 138 5 39-15 221-28 291-21 62 7 94 22 94 46 0 17-51 95-62 95-5 0-14 14-20 31-9 27-14 30-42 26-41-7-99-29-121-47-26-21-102-17-157 8-26 12-52 22-58 22s-37 11-70 25-61 25-63 25-9-10-14-23zm1940-2c-13-15-32-25-48-25-14 0-42-12-60-26-19-14-39-23-45-19-15 9-90-43-91-64-4-57 18-153 49-213 18-35 21-197 7-325-4-40-3-63 3-63 18 0 90-76 105-111 8-19 29-47 46-63l31-30 23 22c13 12 35 22 50 22 14 0 29 4 32 10 6 10 118 7 206-5l47-7 12 39c7 21 16 43 20 48 5 6 11 26 14 45 6 31 2 40-29 73-19 21-35 41-35 45 0 3-14 20-30 37-17 18-31 43-32 56-4 66 3 86 43 127l41 41-21 27c-19 24-21 38-18 128 1 78-2 109-15 136-9 19-20 46-23 60-15 52-38 62-71 31-11-10-38-21-59-25-22-4-47-14-56-22-14-13-19-9-40 31-13 25-26 45-29 45s-15-12-27-25zm-1170-82c3-16 13-59 21-98 8-38 15-97 16-130 0-57 2-62 45-108 31-33 45-57 45-76 0-29 45-81 70-81 18 0 70 50 70 67 0 8-7 16-15 20-25 9-75 114-75 157 0 11-10 30-21 42-12 13-37 60-55 106-31 76-70 128-96 128-6 0-8-11-5-27zm611-8c-3-14-10-25-15-25s-9-6-9-13-11-29-25-49-25-44-25-53c0-26 29-29 54-6 23 22 51 27 60 12 20-32 104-6 87 27-5 9-12 25-15 35-4 14-14 17-43 15l-38-3-3 43c-3 47-18 56-28 17z"
  ></path>
  <path
    d="M4139 2133c-6-16-13-43-16-61-7-41-56-92-89-92s-40-22-19-62c10-19 19-68 22-116 5-75 4-86-16-113-13-17-21-32-19-33 1-1 21-13 43-27 65-40 84-49 103-49 10 0 28-13 40-30 28-37 42-38 42-4 0 14 10 46 21 72 18 38 21 59 17 119-3 40-9 78-15 85-5 7-16 36-23 63-7 28-19 61-27 73-8 13-17 49-19 80-11 126-23 152-45 95zm-485-119c-17-31-26-37-58-39-25-1-42-9-52-23-8-12-21-22-28-22-49 0-36-112 19-167 18-18 43-33 54-33 12 0 50-9 84-21 47-16 66-18 79-10 10 6 40 11 67 11 40 0 53 4 65 22 20 28 20 77 1 104-32 46-75 133-75 152 0 26-60 62-103 62-26 0-36-7-53-36zm-1129-1c-65-5-75-19-75-110v-73h373c204 0 378 4 385 8 13 9 6 42-9 42-5 0-9 7-9 16s-13 21-29 27c-30 11-41 31-41 76 0 18-4 22-17 15-44-19-182-22-293-6-72 11-179 12-285 5z"
  ></path>
  <path
    d="M3882 1967c-20-9-23-16-18-45 3-19 14-44 25-56 30-33 36-104 12-143-12-20-29-33-41-33-27 0-25-9 14-53 41-46 55-42 101 28 32 48 35 58 35 127 0 81-20 155-47 176-20 15-50 15-81-1zm948-147c0-13-7-20-18-20-32 0-72-62-72-109 0-21 11-40 35-64 19-19 35-38 35-44 0-5 13-22 29-37 24-23 29-25 35-11 3 9 6 27 6 39s5 27 10 32c6 6 13 61 17 122l6 112h-41c-35 0-42-3-42-20zm-1895-11c-33-4-156-7-274-8l-214-1 5-80c5-89 17-112 44-89 30 25 253 38 489 28 75-3 96-1 118 14 19 12 33 15 45 9 36-19 103-23 135-8 18 8 49 22 70 30 46 18 48 42 7 81l-29 28-168 1c-92 1-195-2-228-5zm584-165c-35-30-91-79-124-107-118-103-145-130-145-145 0-8-7-23-15-32s-17-47-21-88c-6-62-4-75 11-92 10-11 24-20 31-20s25-16 40-36c16-20 48-52 73-71 39-29 52-34 96-32 27 1 62-1 76-5 31-9 32-8 49 136 11 85 10 103-4 138-18 46-23 225-6 235 6 3 10 30 10 59 0 30 6 60 15 72 8 10 15 25 15 32 0 27-41 9-101-44zm248 49c-5-9-11-240-8-312 1-24-4-50-10-57-20-24 9-187 43-242 18-29 20-45 16-115-3-45-2-89 2-97 42-89 58-119 79-142 27-31 49-36 57-13 4 8 14 15 23 15 26 0 41 21 41 55 0 17 5 36 10 41 10 10-26 91-56 125-22 24-17 37 25 78 21 20 41 47 45 59 6 16 15 22 38 22 27 0 30 3 23 23-4 12-10 47-14 77-9 61-40 138-65 159-9 7-16 19-16 26s-9 24-20 38-20 34-20 44c0 11-12 30-26 44-24 21-69 82-114 155-14 23-44 32-53 17z"
  ></path>
  <path
    d="M3355 1682c-6-5-23-14-40-20-59-21-172-64-280-107-60-24-118-46-127-49-23-7-23-21 2-44 11-10 26-48 35-84 14-61 14-71-1-110-8-24-20-52-26-62-29-54-29-78 2-113 17-18 30-41 30-49 0-16 17-58 48-123 31-63 37-71 55-77 9-3 30-19 46-36 28-30 29-30 80-19 79 17 111 14 147-14 43-33 84-34 84-1 0 29-66 130-114 174-20 18-36 41-36 52 0 10-5 22-11 25-23 15-57 113-63 180-5 60-2 81 21 145 15 41 31 77 36 79 8 3 51 41 171 153l51 47-29 30c-29 30-62 39-81 23zm268-33c-18-33-20-44-11-59 10-15 7-27-12-64-21-41-22-53-16-128 4-50 13-93 23-108 12-18 16-43 15-85-2-46 0-57 9-48 8 8 28 10 56 6l44-6-3 79c-1 43 2 151 6 240l9 160-29 27c-41 38-65 35-91-14zm-938-9c-38-11-92-19-118-19-83-1-98-22-81-110 8-36 17-38 44-11 23 23 48 25 117 9 41-10 54-9 81 5 18 9 32 21 32 26 0 16 58 11 85-6 25-16 95-13 95 4 0 4 21 14 48 21 26 7 56 19 67 25 11 7 40 18 65 26s51 20 58 27c19 18-29 28-69 14-18-6-44-11-58-11-15 0-33-6-39-12-10-10-17-10-31-1-10 7-47 14-82 18-35 3-82 8-104 10s-71-5-110-15zm1266-35-33-33 20-30c12-16 28-35 37-42 8-7 15-21 15-31 0-28 42-87 66-93 11-3 42-18 68-33 82-48 110-62 129-63 29 0 95-60 117-106 12-23 28-48 37-55 19-16 119-17 134-2 16 16-40 112-78 135-49 31-94 78-105 111-14 41-27 57-55 68-13 5-23 15-23 23s-13 19-29 24c-16 6-47 26-68 45-21 20-52 39-68 43-17 4-51 22-76 40-26 19-48 34-50 34s-19-16-38-35z"
  ></path>
  <path
    d="M2732 1494c-33-26-33-26-82-10-61 20-84 20-100 1-7-8-21-15-31-15-12 0-19-7-19-20 0-11 4-20 9-20s12-17 16-37c8-48 104-243 119-243 6 0 24 12 39 26 33 28 32 68-1 76-11 3-22 18-25 34-5 24 0 35 33 66 32 31 44 37 68 32 18-4 41 0 60 10 17 9 42 16 56 16 34 0 40 14 16 35-11 10-20 26-20 36 0 44-88 52-138 13z"
  ></path>
  <path
    d="M2853 1381c-23-4-49-13-57-21-14-11-21-11-40 0-21 11-27 9-55-20-17-18-31-35-31-38 0-2 14-20 30-39 17-18 30-42 30-53 0-10 15-29 33-41 17-12 39-31 48-42 19-23 46-17 55 10 3 10 14 35 24 55 11 20 20 44 20 53s7 27 16 40c11 17 14 34 9 52-7 29-23 54-34 52-3-1-25-5-48-8zm1214-37c-3-3 1-17 9-32s14-34 14-44c0-16 53-68 70-68 4 0 10-9 13-21 3-11 15-23 26-26 12-3 21-14 21-24 0-20 75-69 106-69 11 0 29-7 40-15 52-39 71-2 29 56-14 19-31 48-39 64-15 31-76 85-96 85-6 0-42 17-78 39-94 54-109 61-115 55zm518-14c-3-5-23-10-45-10-56 0-70-48-25-90 13-12 30-39 36-59 11-34 74-111 91-111 13 0 73 92 125 190l23 44-22 10c-29 11-52 16-110 20-26 2-51 7-57 10-5 4-12 2-16-4zm-485-144c0-7 12-34 28-60 58-99 82-142 94-168 16-35 48-45 48-15 0 12-7 31-15 41-8 11-15 28-15 38 0 33-65 138-85 138-7 0-15 9-18 20-6 22-37 28-37 6z"
  ></path>
  <path
    d="M2690 1157c-34-17-36-39-5-75 14-16 25-35 25-40 0-13 173-189 215-220 55-40 130-88 146-94 9-4 20 2 28 14 12 19 7 27-53 84-36 34-66 70-66 78 0 9-4 16-8 16-5 0-14 24-21 53-6 28-24 69-38 90-24 34-30 38-58 33-27-5-39 0-77 34-51 44-53 45-88 27zm530-31c0-13 8-34 19-47 10-13 22-35 26-49s34-52 65-85c60-62 87-110 92-159 2-16 10-33 18-37 74-40 184-62 256-52 33 4 54 0 90-16 40-19 51-21 75-10 16 6 29 14 29 18s-14 23-30 43c-17 20-37 56-45 79-22 62-31 70-76 63-38-6-124 10-143 27-6 5-18 9-28 9-20 0-25 34-7 45 21 13-32 49-70 48-56-2-122 16-148 40-50 45-65 63-74 85-12 31-49 30-49-2z"
  ></path>
  <path
    d="M3623 1127c-14-16-26-46-32-88-17-101-15-119 12-119 12 0 39-9 59-20 51-27 99-18 122 24 19 35 16 74-9 146-21 58-31 66-85 74-39 5-48 3-67-17zm400-86-52-58 34-54c27-42 35-65 35-101v-48h45c39 0 52 6 90 41 58 53 58 78 4 172-75 129-82 131-156 48zm470 52c-42-4-43-5-43-41 1-38 5-43 72-86 26-17 26-17 67 25l41 43-32 33c-18 18-39 32-47 31-9-1-35-3-58-5zm-227-71c3-20 10-41 15-46 5-6 9-22 9-36 0-18 16-41 50-75 48-47 50-48 77-34 15 8 47 34 70 58l43 45-27 23c-16 12-33 22-39 23-6 0-17 7-24 15s-22 15-34 15c-11 0-34 8-51 18-16 10-45 22-63 25l-33 7z"
  ></path>
  <path
    d="M4240 880c0-31-58-98-91-105-16-4-31-11-34-16-4-5-24-9-46-9-27 0-45-6-56-20-10-11-22-20-27-20s-24-11-41-24c-18-14-45-28-61-32-45-11-55-22-41-45 27-43 158-12 353 82 93 46 174 95 174 106-1 19-77 90-102 97-24 5-28 3-28-14zM3158 764c-15-8-33-24-39-35-12-24-3-34 39-45 12-3 22-10 22-14s21-13 48-20c26-7 52-17 59-22 16-12 180-48 273-59 41-5 117-7 168-3 86 5 92 7 92 27 0 31-11 45-55 67-26 13-59 20-100 20-76 0-165 15-207 33-18 9-55 18-82 21-29 4-59 14-71 26-26 24-106 27-147 4z"
  ></path>
  <path
    d="M3850 4071c-62 1-579 25-800 38-80 5-179 9-220 10-32.5.5-51.75 1.75-64.63 5.25-6.43 1.75-11.28 4.06-15.39 7.13-4.1 3.06-7.48 6.87-10.98 11.62-5 7-8.75 15.5-10.75 24.88a76.16 76.16 0 0 0-.25 30.12c.63 4.88.42 9.1.54 12.75.12 3.64.57 6.68 2.5 9.17 1.91 2.5 5.31 4.44 11.34 5.87 6.03 1.44 14.68 2.37 27.12 2.83 24.87.94 64.88.04 129.22-2.35 64.34-2.4 153.03-6.27 275.28-11.27 102-4 203-9 283.5-13.63 80.5-4.62 140.5-8.87 160.5-11.37 20-3 49.25-5.75 80.13-7.75 30.87-2 63.37-3.25 89.87-3.25 53-1 128-4 167-8l69-6-59-47c-14-11-25-19.5-34.42-26.05-9.42-6.54-17.27-11.14-24.95-14.32-7.7-3.2-15.22-4.97-24.02-5.9-8.8-.92-18.86-.98-31.61-.73Z"
    paint-order="stroke fill markers"
  ></path>
  <path
    d="M3850 4071c12.75-.25 22.81-.19 31.6.73 8.8.93 16.34 2.7 24.02 5.9 7.7 3.18 15.54 7.78 24.96 14.32C3940 4098.5 3951 4107 3965 4118l59 47-69 6c-39 4-114 7-167 8-26.5 0-59 1.25-89.88 3.25-30.87 2-60.12 4.75-80.12 7.75-20 2.5-80 6.75-160.5 11.38C3377 4206 3276 4211 3174 4215c-122.25 5-210.94 8.88-275.28 11.27-64.34 2.39-104.34 3.3-129.22 2.35-12.44-.46-21.1-1.4-27.12-2.83-6.03-1.43-9.43-3.38-11.35-5.87s-2.37-5.53-2.49-9.17c-.12-3.64.09-7.87-.54-12.75-2-10.5-1.75-20.75.25-30.12 2-9.38 5.75-17.88 10.75-24.88 3.5-4.75 6.88-8.56 10.98-11.62 4.11-3.07 8.96-5.38 15.4-7.13 12.87-3.5 32.12-4.75 64.62-5.25 41-1 140-5 220-10 221-13 738-37 800-38zM6969 4047c-14.75-.25-34.5 1-59 4-41 5-267 17-502 27-234 9-428 19-431 22s-8 39-11 80l-7 75 108-7c59-4 290-16 513-28 223-11 411-22 418-25 2-.75 3.75-2.75 5.25-5.98 1.5-3.24 2.75-7.7 3.75-13.4 2-11.37 3-27.62 3-48.62 0-20-1.25-37-3.38-49.88-2.12-12.87-5.12-21.62-8.62-25.12-4.5-3-14.25-4.75-29-5z"
    paint-order="stroke fill markers"
  ></path>
  <path
    d="M6969 4047c14.75.25 24.5 2 29 5 3.5 3.5 6.5 12.25 8.63 25.13 2.12 12.87 3.37 29.87 3.37 49.87 0 21-1 37.25-3 48.63-1 5.68-2.25 10.15-3.75 13.39-1.5 3.23-3.25 5.23-5.25 5.98-7 3-195 14-418 25-223 12-454 24-513 28l-108 7 7-75c3-41 8-77 11-80s197-13 431-22c235-10 461-22 502-27 24.5-3 44.25-4.25 59-4zM5305 4005l-70 2c-168 5-990 42-1087 48-30 2-57 4.75-76.5 7.5s-31.5 5.5-31.5 7.5c0 4 15 19 34 34 19 14 40 32 48 39 7 8 20 16 28 19 5.5 1.75 23.13 2.56 47.36 2.63 24.23.06 55.08-.63 87.02-1.88 31.93-1.25 64.96-3.06 93.57-5.25s52.8-4.75 67.05-7.5c14-2.5 71.5-6.75 153-11.5s187-10 297-14.5c110-4 211-8.75 285-13s121-8 123-10c2.5-2.5 4.25-9.5 5.13-18.88.87-9.37.87-21.12-.13-33.12Z"
    paint-order="stroke fill markers"
  ></path>
  <path
    d="m5305 4005 3 44c1 12 1 23.75.13 33.13-.88 9.37-2.63 16.37-5.13 18.87-2 2-49 5.75-123 10s-175 9-285 13c-110 4.5-215.5 9.75-297 14.5s-139 9-153 11.5c-14.25 2.75-38.44 5.31-67.05 7.5-28.6 2.19-61.64 4-93.58 5.25-31.93 1.25-62.78 1.94-87.01 1.88-24.23-.07-41.86-.88-47.36-2.63-8-3-21-11-28-19-8-7-29-25-48-39-19-15-34-30-34-34 0-2 12-4.75 31.5-7.5s46.5-5.5 76.5-7.5c97-6 919-43 1087-48zM6578.98 3942.94c-51.14 1.06-115.04 3.06-180.6 5.56-131.13 5-268.88 12-324.38 17.5-14.25 1.5-25.19 2.81-33.9 4.5-8.73 1.69-15.23 3.75-20.6 6.75-5.38 3-9.63 6.94-13.84 12.38-4.22 5.43-8.41 12.37-13.66 21.37-6.5 11-11.5 22-14.38 31-2.87 9-3.62 16-1.62 19 2 3.5 10 5.5 23.25 6.25s31.75.25 54.75-1.25c39-3 244-14 456-23 110.5-5 206.5-10.5 274.75-15.38 68.25-4.87 108.75-9.12 108.25-11.62s-8-7-19.75-12.25-27.75-11.25-45.25-16.75c-17.5-5-34.5-10.75-48-16s-23.5-10-27-13c-3.5-2.5-13-5.5-25.63-8.25A384.48 384.48 0 0 0 6683 3943c-14.5-1.25-52.88-1.13-104.02-.06zM1886 3673c-2-2-10-1-19 3-2.75 1-5.25 3.13-7.53 6.47-2.28 3.34-4.35 7.9-6.22 13.78-3.75 11.75-6.75 28.75-9.25 51.75-2 20-6 41-11.25 60.13-5.25 19.12-11.75 36.37-18.75 48.87-6.25 11.5-10.75 22.06-13.44 32.03-2.68 9.97-3.56 19.34-2.56 28.47 1 9.13 3.88 18 8.69 26.97 4.81 8.97 11.56 18.03 20.31 27.53 6.5 7.25 11.69 12.25 15.9 14.64 4.2 2.4 7.41 2.17 9.97-1.01 2.57-3.2 4.47-9.35 6.05-18.83 1.58-9.49 2.83-22.3 4.08-38.8 3-35 10-105 16-157s9-96 7-98zM1400.78 3657.05c-39.15-.86-91.53-.05-161.78.95-70 1-124.94 2.19-168.64 4.25-43.7 2.06-76.17 5-101.23 9.5-12.54 2.25-23.22 4.9-32.52 8a125.9 125.9 0 0 0-24.28 10.88 106.73 106.73 0 0 0-18.91 14.24A167.7 167.7 0 0 0 877 3723c-7.5 9-13.19 16.13-17.56 23.52-4.38 7.39-7.44 15.04-9.69 25.1-2.25 10.07-3.69 22.54-4.81 39.55-1.13 17.02-1.94 38.58-2.94 66.83-1 35.5-1 64.13.66 87.66 1.65 23.53 4.97 41.97 10.59 57.09a99.78 99.78 0 0 0 10.25 20.43 94.74 94.74 0 0 0 14.22 16.79c10.9 10.28 24.78 19.03 42.28 28.03 12.5 6.25 24.38 10.94 40.08 14.1 15.7 3.18 35.23 4.84 63.04 5.02 27.82.2 63.91-1.09 112.74-3.8 48.83-2.7 110.39-6.82 189.14-12.32 41-3 72.94-5.63 98.36-8.88 25.42-3.24 44.33-7.12 59.27-12.62 7.46-2.75 13.94-5.9 19.74-9.6a87.3 87.3 0 0 0 15.7-12.78c9.56-9.74 17.68-22.12 26.93-38.12 6.5-11 11.31-25.94 14.47-42.6 3.15-16.68 4.65-35.09 4.53-53.03-.13-17.93-1.88-35.4-5.22-50.2a117.28 117.28 0 0 0-6.2-19.91c-2.47-5.8-5.33-10.64-8.58-14.26-5.5-6.5-10.25-17-14-30.5s-6.5-30-8-48.5c-.88-12.13-1.56-22.72-2.64-31.97-1.09-9.24-2.56-17.15-5.02-23.89-2.45-6.74-5.88-12.32-10.87-16.93-4.99-4.6-11.53-8.24-20.22-11.09-8.69-2.84-19.52-4.9-33.07-6.34-13.55-1.46-29.82-2.3-49.4-2.73z"
    paint-order="stroke fill markers"
  ></path>
  <path
    d="M1400.78 3657.05c19.58.43 35.85 1.27 49.4 2.73 13.55 1.45 24.38 3.5 33.07 6.34 8.69 2.85 15.23 6.48 20.22 11.09 5 4.6 8.42 10.19 10.87 16.93 2.46 6.74 3.93 14.65 5.02 23.9 1.08 9.24 1.77 19.84 2.64 31.96 1.5 18.5 4.25 35 8 48.5s8.5 24 14 30.5c3.25 3.63 6.1 8.47 8.57 14.26a117.28 117.28 0 0 1 6.21 19.91c3.35 14.8 5.1 32.27 5.22 50.2.13 17.94-1.38 36.35-4.53 53.02-3.16 16.67-7.97 31.61-14.47 42.61-9.25 16-17.38 28.38-26.92 38.13a87.3 87.3 0 0 1-15.7 12.78 102.41 102.41 0 0 1-19.76 9.59c-14.93 5.5-33.84 9.38-59.26 12.63-25.42 3.24-57.36 5.87-98.36 8.87-78.75 5.5-140.31 9.63-189.14 12.33-48.83 2.7-84.92 3.98-112.73 3.8-27.82-.2-47.35-1.85-63.05-5.02-15.7-3.17-27.58-7.86-40.08-14.11-17.5-9-31.38-17.75-42.28-28.03a94.74 94.74 0 0 1-14.22-16.8 99.78 99.78 0 0 1-10.25-20.42c-5.62-15.13-8.94-33.56-10.6-57.1-1.65-23.53-1.65-52.15-.65-87.65 1-28.25 1.81-49.81 2.94-66.83 1.12-17.01 2.56-29.48 4.81-39.55 2.25-10.06 5.31-17.71 9.69-25.1 4.37-7.4 10.06-14.52 17.56-23.52a167.7 167.7 0 0 1 16.42-18.13 106.73 106.73 0 0 1 18.9-14.24 125.9 125.9 0 0 1 24.29-10.87c9.3-3.12 19.98-5.76 32.51-8.01 25.07-4.5 57.54-7.44 101.24-9.5 43.7-2.06 98.64-3.25 168.64-4.25 70.25-1 122.63-1.81 161.78-.95zM2713.22 3620.75c-8.34 1.13-14.22 3.5-16.22 7.25-1.25 2.25.5 23.5 3.98 54.47 3.49 30.97 8.7 71.66 14.4 112.78a4946.77 4946.77 0 0 0 17.2 115.4c5.36 32.72 9.92 56.6 12.42 62.35 2.5 5.5 5.56 9.63 9.58 12.31 4.01 2.69 8.98 3.94 15.3 3.69 6.3-.25 13.96-2 23.35-5.31 9.4-3.32 20.52-8.19 33.77-14.69 12.5-6 22.81-11.69 31.6-17.9a106.17 106.17 0 0 0 22.53-21.1c6.43-8.13 12.03-17.63 17.45-29.34 5.42-11.72 10.67-25.66 16.42-42.66 7-22 10.5-34.75 10.38-47.88-.13-13.12-3.88-26.62-11.38-50.12-5.25-16.25-10.63-30.25-16.56-42.5-5.94-12.25-12.44-22.75-19.94-32-7.5-9.25-16-17.25-25.94-24.5-9.93-7.25-21.31-13.75-34.56-20-10.5-5.25-22.75-9.63-35.34-13a246.98 246.98 0 0 0-37.41-7c-11.88-1.25-22.69-1.38-31.03-.25z"
    paint-order="stroke fill markers"
  ></path>
  <path
    d="m1520 3578-297 7c-82 2-161 4.75-222.25 7.63C939.5 3595.5 896 3598.5 885 3601c-11 2.5-28.5 4.75-47.88 6.38A737 737 0 0 1 778 3610h-68v570l88-1c48 0 227-7 397-15 266-12 601-30 643-33 2-.25 3.75-1.5 5.25-3.73 1.5-2.24 2.75-5.46 3.75-9.65 2-8.37 3-20.62 3-36.62 0-10.75-.25-19.44-1.13-26.92-.87-7.49-2.37-13.77-4.87-19.7-2.5-5.94-6-11.54-10.88-17.65-4.87-6.1-11.12-12.73-19.12-20.73-19.5-19.5-30.5-30-36.63-33.38-3.06-1.68-4.9-1.59-5.98.05-1.08 1.64-1.39 4.83-1.39 9.33 0 3-2.5 8.5-6.5 14.88-4 6.37-9.5 13.62-15.5 20.12a69.14 69.14 0 0 1-23.95 16.84 72.17 72.17 0 0 1-28.92 5.41c-10.32-.13-21.22-2.19-32.49-6.22-11.27-4.03-22.89-10.03-34.64-18.03-22.5-15-34.5-22.75-40.88-23.25-3.18-.25-4.96 1.31-5.95 4.69-.98 3.37-1.17 8.56-1.17 15.56 0 6-4.75 15.75-12.63 27.13-7.87 11.37-18.87 24.37-31.37 36.87a264.29 264.29 0 0 1-20.71 18.33 138.13 138.13 0 0 1-21.79 14.1 146.08 146.08 0 0 1-26.48 10.4c-10 2.93-21.4 5.33-34.77 7.3-26.75 3.93-61.44 6.15-108.88 7.39-47.43 1.23-107.62 1.48-185.37 1.48H902l-27-25c-13.25-12.25-23.94-24.13-32.52-37.13-8.57-13-15.04-27.12-19.86-43.87-4.8-16.75-7.96-36.13-9.92-59.63-1.95-23.5-2.7-51.12-2.7-84.37 0-30 0-52.5.48-69.97.49-17.47 1.46-29.9 3.4-39.78 1.93-9.88 4.84-17.19 9.2-24.4 4.36-7.22 10.17-14.35 17.92-23.85 9-10.5 23.25-23.25 39.13-35.13C896 3670 913.5 3659 929 3652l56-27h535v-47zM1891 3565l-16 29c-9 17-13.75 29.25-14.13 36.63-.18 3.68.72 6.15 2.74 7.39 2.02 1.23 5.14 1.23 9.39-.02 3-1.5 6.25-6.5 9-13.5s5-16 6-25.5zM3836.75 3507.63c-10.5-.13-24.25.87-38.75 3.37-14.5 2-86.75 5.25-191.38 8.75A31896.8 31896.8 0 0 1 3221 3530c-289 6-528 13-533 16-2 1.5-4 5-5.5 9.5s-2.5 10-2.5 15.5c0 4.25.44 7.56 1.97 10.14 1.53 2.58 4.16 4.42 8.53 5.74 8.75 2.62 24.5 3.12 52.5 3.12 25.5.5 42.75 1.75 57.63 5.75 7.43 2 14.28 4.69 21.26 8.31 6.99 3.63 14.11 8.19 22.11 13.94a265.2 265.2 0 0 1 29.97 24.3 251.12 251.12 0 0 1 25.26 27.54 240.53 240.53 0 0 1 20.37 30.32 233.04 233.04 0 0 1 15.28 32.59 228.65 228.65 0 0 1 14.45 70.03c.55 12.05.16 24.23-1.22 36.46A239.03 239.03 0 0 1 2941 3876c-3.75 13.75-10.56 28.06-19.64 42.14-9.08 14.08-20.42 27.92-33.24 40.74a277.32 277.32 0 0 1-42.04 34.54c-14.95 9.95-30.58 18.08-46.08 23.58-15 5-26.5 10.5-34 15.75-3.75 2.63-6.5 5.19-8.19 7.6-1.68 2.4-2.31 4.65-1.81 6.65 2 7 6 19 8 26a7.39 7.39 0 0 0 3.22 4.26c1.85 1.2 4.68 2.2 9.08 2.99 8.8 1.56 23.89 2.25 50.07 2 52.38-.5 149.13-4.75 328.63-13.25 116-5 329-14 475-20s266-13 268-14c2-2-2-61-8-131-6-71-15-187-20-257s-11-131-14-136c-1.5-2-8.75-3.25-19.25-3.38zM6004 3502l-29 3 3 84a638.5 638.5 0 0 0 4.38 62.88C5984.5 3669 5987 3681 5989 3684c2.5 3 5.5 14.25 8.38 29.88 2.87 15.62 5.62 35.62 7.62 56.12 4 41 8 81 10 87 1.25 4 5.88 6.38 12.44 7.38s15.06.62 24.06-.88c9-1.5 18.5-4.13 27.06-7.63 8.56-3.5 16.19-7.87 21.44-12.87 2.25-2.13 4.23-6.05 5.95-11.45 1.71-5.4 3.16-12.28 4.33-20.33 2.35-16.1 3.6-36.84 3.72-59.72.13-22.88-.88-47.88-3.03-72.47-2.16-24.6-5.47-48.78-9.97-70.03-3.75-17.25-9-32.88-15.44-46.53-6.44-13.66-14.06-25.34-22.56-34.72-8.5-9.38-17.88-16.44-27.81-20.84A59.22 59.22 0 0 0 6004 3502ZM1520 3488l-387 7c-116.5 2.5-214.75 5.25-284.75 8.13-70 2.87-111.75 5.87-115.25 8.87-3.5 2.75-6.31 6.63-8.4 11.06a46.72 46.72 0 0 0-3.98 14.44c-.56 5-.34 10 .7 14.44 1.05 4.43 2.93 8.31 5.68 11.06 2.25 2.5 14.25 4.31 35.47 5.44 21.22 1.12 51.66 1.56 90.78 1.31 78.25-.5 191.25-3.75 334.75-9.75 81-3.25 142.25-5.75 188.56-8.19 46.32-2.43 77.69-4.81 98.94-7.81 10.63-1.5 18.72-3.16 24.88-5.05 6.17-1.9 10.4-4.04 13.3-6.51a16.05 16.05 0 0 0 5.34-8.48c.86-3.21.98-6.84.98-10.96v-25zM5211.88 3471.75C5144.5 3471 5018.5 3474 4778 3480c-277 7-573 16-658 19l-155 6-3 50c-1 14-.75 32.75.5 51.75s3.5 38.25 6.5 53.25 6.5 46.5 9.63 85.13A2871.9 2871.9 0 0 1 3986 3873l7 158 196-6c54-1.5 108-4 151.63-6.75 43.62-2.75 76.87-5.75 89.37-8.25s67.75-6 146.63-9.63C4655.5 3996.76 4758 3993 4865 3990c107.5-3.5 208.75-7.5 285.38-11.38C5227 3974.76 5279 3971 5288 3968l32-10v-146c0-94.5-2.25-170.5-6.63-225.63-2.18-27.56-4.9-49.9-8.14-66.73-3.23-16.83-6.98-28.14-11.23-33.64a18.77 18.77 0 0 0-5.89-5.92c-2.72-1.7-6.48-3.13-12.16-4.3-11.36-2.34-30.39-3.66-64.08-4.03zM1216.38 3455.13c-55.94.8-117.41 2.4-171.2 4.6-53.8 2.2-99.93 5.02-125.18 8.27l-75 10 85-5c47-2 155-4 240-3 42.5 0 87.5-1 125.63-2.63 38.12-1.62 69.37-3.87 84.37-6.37 4.75-.75 7.5-1.43 8.47-2.04.96-.61.14-1.16-2.27-1.64-4.82-.96-15.97-1.66-31.8-2.12-31.68-.92-82.09-.89-138.03-.07zM3743.75 3426.13c-65.5-.88-191.75 2.37-443.75 8.87-278 8-529 14-558 15-18.5 0-32 1-41.38 3.38-4.68 1.18-8.34 2.71-11.07 4.64a14.49 14.49 0 0 0-5.55 6.98c-3.5 9.25-5.19 16.5-4.08 22.1.56 2.81 1.81 5.2 3.89 7.24 2.07 2.03 4.97 3.7 8.81 5.03 7.7 2.7 19.16 4.1 35.4 4.58 16.23.49 37.23.05 63.98-.95 56-2 279-8 493-13 215-6 427-10 473-10 22.5 0 43-1 57.88-2.63 14.87-1.62 24.12-3.87 24.12-6.37 0-5-8-18-17-29-2.25-2.5-4.23-4.69-6.97-6.58-2.73-1.88-6.22-3.47-11.47-4.78-10.5-2.6-28.06-4.08-60.81-4.51z"
    paint-order="stroke fill markers"
  ></path>
  <path
    d="m6615 3425-160 3c-169 2.5-292.75 6-374.25 10.5-40.75 2.25-70.94 4.75-90.94 7.5-10 1.38-17.45 2.81-22.4 4.31-4.96 1.5-7.41 3.07-7.41 4.69 0 3.5 5 7.25 13.5 10.63 8.5 3.37 20.5 6.37 34.5 8.37a158.07 158.07 0 0 1 32.8 7.6 123.31 123.31 0 0 1 27.97 13.98 119.53 119.53 0 0 1 23.3 20.66 146 146 0 0 1 18.8 27.63 210.23 210.23 0 0 1 14.44 34.9 327.6 327.6 0 0 1 10.24 42.46 521.46 521.46 0 0 1 6.17 50.31A824.72 824.72 0 0 1 6144 3730c.5 51 .5 78.25-2.63 95.62-1.56 8.7-3.9 14.91-7.35 20.4-3.46 5.48-8.02 10.23-14.02 15.98-7 7-17.5 14-28.75 19.75S6068 3892 6058 3894c-21 4-38 9-38 11s-3 10-6 19c-1.25 3.25-1.06 5.75 2.1 7.6 3.18 1.87 9.34 3.09 20.02 3.77 21.38 1.38 60.88.63 130.88-1.37 43.5-1.5 87-3.75 122-6.25s61.5-5.25 71-7.75 34.25-5.25 66.5-7.63c32.25-2.37 72-4.37 111.5-5.37 78-2 144-6 146-8 1.5-1 1.5-7 .5-15.88-1-8.87-3-20.62-5.5-33.12-5-25-18-110-29-190s-23-165-27-190zM5027 3387c-111 2-260 5-332 8-71 2-273 8-448 11-87 2-167 4.5-225.5 7.13-58.5 2.62-95.5 5.37-96.5 7.87-1.5 2-1 6.25 1.13 11.5 2.12 5.25 5.87 11.5 10.87 17.5 5.25 6 10.88 10.56 20.81 13.8 9.94 3.23 24.19 5.14 46.69 5.82 22.5.7 53.25.16 96.19-1.48s98.06-4.39 169.31-8.14c107-6 372-14 588-19 108-2.5 207-5.25 279.38-7.88 72.37-2.62 118.12-5.12 119.62-7.12 2-2 1.75-5.5-.25-9.75S5251 3407 5246 3402c-3.75-3.75-8.06-6.69-15.23-8.95-7.18-2.27-17.2-3.86-32.4-4.93C5168 3386 5117 3386 5027 3387zM5268 3381l23 25c5.75 6.25 10.81 10.94 15.03 14.08 4.22 3.14 7.6 4.73 9.97 4.8 2.38.06 3.75-1.41 3.97-4.4.22-2.98-.72-7.48-2.97-13.48-1.5-4-5.25-8.25-10.13-11.88A49.12 49.12 0 0 0 5290 3387ZM6301 3348c-119 1-244 5-278 8-28 3-43.75 5.25-52.5 9.13-4.38 1.93-7 4.28-8.53 7.32-1.53 3.05-1.97 6.8-1.97 11.55 0 5.25.13 9.19 3.2 12.1 3.08 2.9 9.11 4.78 20.92 5.9 23.63 2.25 70.38 1.5 162.88 0 104-2 242-6 308-10l120-7-29-20c-6.5-4.5-12.56-7.94-21.13-10.53-8.56-2.6-19.62-4.34-36.12-5.47-33-2.25-87.75-2-187.75-1zM4910 3182.25c-140.75 1.25-423 7.75-989 20.75-309 7-480.25 11.25-576.13 15.63-47.93 2.18-77.03 4.4-95.07 7.01-9.03 1.3-15.29 2.7-19.76 4.25-4.48 1.55-7.16 3.24-9.04 5.11-2.25 2.38-4.77 4.45-6.11 6.22-1.35 1.78-1.53 3.24.9 4.39 4.83 2.3 20.08 3.33 57.21 3.01 74.25-.62 236-6.62 577-18.62 146-5 475-12 733-16 194.5-3 311.25-5.25 379.38-8.25 34.06-1.5 55.96-3.19 69.35-5.25 6.7-1.03 11.27-2.16 14.16-3.4 2.9-1.24 4.11-2.6 4.11-4.1 0-2 .05-3.75-2.08-5.23-2.13-1.48-6.44-2.7-15.14-3.61-17.4-1.85-52.4-2.53-122.78-1.91z"
    paint-order="stroke fill markers"
  ></path>
  <path
    d="M1073.47 245.22c-35.03-.72-68.85-.6-99.22.28-30.37.88-57.31 2.5-78.6 4.78-21.27 2.28-36.9 5.22-44.65 8.72-33.5 15.5-58.25 29-77.88 43.25a204.49 204.49 0 0 0-26.04 22.28A200.12 200.12 0 0 0 726 350l-31 42-3 541c-1 298 1 911 5 1362l8 820 25 45c9.25 16.75 17 30.13 24.36 41.22 7.36 11.1 14.33 19.9 22.01 27.53 7.7 7.63 16.1 14.06 26.33 20.4 10.24 6.35 22.3 12.6 37.3 19.85l55 26 320-3c176-1 326-5 333-7 5.5-2 9.22-3.81 10.94-5.45 1.72-1.64 1.45-3.11-1.03-4.43-4.97-2.62-18.79-4.62-43.16-6.12-48.75-3-139.75-4-286.75-4-92.75 0-162.94-.06-217-1.14-54.06-1.08-92-3.17-120.25-7.24-14.12-2.03-25.83-4.55-35.91-7.68a123.96 123.96 0 0 1-26.21-11.36 133.57 133.57 0 0 1-21.34-15.74c-6.84-6.06-13.67-12.97-21.29-20.84-7.5-7.75-13.69-14.75-18.9-21.63a126.87 126.87 0 0 1-12.98-20.87c-7.12-14.5-11.62-31-16.12-54.5-2.75-16.75-6-136.38-9.25-315.05-3.25-178.67-6.5-416.39-9.25-669.32-2.75-252.94-5-521.1-6.25-760.65C712 1119.44 711.75 908.5 713 770c1.5-171.5 2.5-260.5 5.75-311.38 1.63-25.43 3.81-41.34 6.9-53.26 3.1-11.92 7.1-19.86 12.35-29.36 7.25-13.12 13.98-24.7 20.8-34.9 6.83-10.2 13.75-19.01 21.36-26.62 7.6-7.6 15.91-13.98 25.52-19.32 9.6-5.34 20.5-9.63 33.32-13.04 12.81-3.4 27.53-5.92 44.76-7.73 17.23-1.8 36.97-2.9 59.83-3.44 45.72-1.07 103.91.05 179.41 2.05 173.5 5 340.5 11.75 469 18.5 64.25 3.38 118.88 6.75 159.88 9.9 41 3.16 68.37 6.1 78.12 8.6 19 4 161 13 315 20 154 6 309 15 345 20 18 2.5 85.5 6.75 179.75 11.38C2764 366 2885 371 3010 375c125 4.5 242.25 9.75 330.25 14.38C3428.25 394 3487 398 3495 400c8.5 2.5 47.5 6 103.63 9.63C3654.74 413.25 3728 417 3805 420c77 3 153.75 6.75 215.38 10.5C4082 434.25 4128.5 438 4145 441c33 5 229 18 435 29 299.5 16 519.75 28 672.5 36.88 152.75 8.87 238 14.62 267.5 18.12 30 3 172 9 315 13 61.5 2 114.44 4.31 159.25 7 44.81 2.69 81.5 5.75 110.5 9.25s50.31 7.44 64.38 11.88c7.03 2.21 12.24 4.56 15.7 7.03 3.47 2.48 5.17 5.09 5.17 7.84 0 2.5 1.75 4.75 4.5 6.38A21.06 21.06 0 0 0 6205 590c6.25 0 14.81 3.94 24.47 10.55 9.65 6.6 20.4 15.89 31.03 26.58a336.9 336.9 0 0 1 30.28 35.01c9.16 12.23 16.97 24.61 22.22 35.86a111.87 111.87 0 0 1 5.97 17.58c1.74 7.06 3.23 16 4.48 28.97 2.52 25.92 4.11 67.89 4.92 142.83 1.63 149.87.13 431.62-3.37 980.62l-8 1127-23 52c-4.75 11.25-9 20.38-13.42 28.08-4.42 7.7-9.02 13.98-14.46 19.55-5.43 5.56-11.71 10.4-19.51 15.23-7.8 4.83-17.11 9.64-28.61 15.14-19 9.5-38 16.5-59.63 21.63-21.62 5.12-45.87 8.37-75.37 10.37-23 1.5-43.75 4-58.75 6.88-15 2.87-24.25 6.12-24.25 9.12 0 1.5 2.78 2.64 7.72 3.46 4.95.82 12.05 1.31 20.7 1.52 17.3.43 40.77-.3 65.45-1.86 24.7-1.56 50.6-3.96 72.77-6.92 22.17-2.95 40.61-6.45 50.36-10.2 8.5-3 17.94-8.13 27.31-14.4a225.08 225.08 0 0 0 26.94-21.35c8.25-7.63 15.44-15.44 20.56-22.47 5.13-7.03 8.19-13.28 8.19-17.78 0-3.5 1-6.75 2.63-9.13 1.62-2.37 3.87-3.87 6.37-3.87 3.13 0 5.94-1.88 8.48-6.61 2.55-4.74 4.82-12.34 6.88-23.78 4.1-22.9 7.33-61.17 10.02-122.74 2.68-61.56 4.84-146.4 6.82-262.42 1.99-116.01 3.8-263.2 5.8-449.45 5.5-552 8-914.5 7.25-1145.88-.38-115.68-1.56-198.59-3.6-256.01-2.02-57.42-4.9-89.36-8.65-103.11a282.88 282.88 0 0 0-16.08-42.03 270.88 270.88 0 0 0-21.8-37.72 221.86 221.86 0 0 0-26.1-31.34C6268.75 579.75 6259 572 6249 566c-11-6.5-23.5-11.88-41.48-16.64-17.99-4.77-41.46-8.92-74.4-12.99-65.87-8.12-169.62-15.87-343.12-27.37-168-11-332-22-365-25-60-5-481-28-1155-63-195-10-382-22-415-26-28-3-79-6.5-252.5-15.5S3133 356 2615 331c-220-11-429-22-465-25s-236-15-445-26-445-25-525-30c-35.25-2.5-71.5-4.06-106.53-4.78z"
    paint-order="stroke fill markers"
  ></path>
  <path
    d="M7028.25 4407.5c-26.38-1-43.44-2.38-53.9-4.25-5.24-.94-8.83-2-11.1-3.2-2.28-1.2-3.25-2.55-3.25-4.05 0-7 11-48 25-91s24-79 23-80c-2-2-68 1-148 6s-313 18-519 28c-205 11-375 22-377 24s-7 31-10 65l-7 62h-89l5-57c8-111.5 15.75-194.25 23.63-253.88 3.93-29.8 7.9-53.84 11.95-72.8 4.05-18.95 8.17-32.82 12.42-42.32 5.75-12.5 10.13-26.75 13.13-42.9 3-16.16 4.62-34.22 4.87-54.35.25-20.13-.88-42.31-3.38-66.72-2.5-24.4-6.37-51.03-11.62-80.03-7-38.75-13.31-78.88-18.73-118.56a2729.8 2729.8 0 0 1-13.4-115.94c-3.43-37-5.78-71.75-6.82-102.44-1.05-30.68-.8-57.31.95-78.06 2-27 6.75-56.75 14.25-89.5S5908 3167 5921 3128c17-50.5 26.75-82.75 32.25-111.88a356.46 356.46 0 0 0 5.44-43.23c1-14.89 1.31-30.89 1.31-49.89 0-25-.44-44.69-2.34-61.28-1.91-16.6-5.28-30.1-11.16-42.72-5.88-12.63-14.25-24.38-26.16-37.47-11.9-13.1-27.34-27.53-47.34-45.53-9.75-8.75-17.31-15.81-23.17-22.16-5.86-6.34-10.02-11.97-12.96-17.84-2.93-5.88-4.65-12-5.64-19.34-.98-7.35-1.23-15.91-1.23-26.66 0-23-.75-45.13-2.1-65.38-1.34-20.24-3.27-38.62-5.65-54.12-2.38-15.5-5.19-28.13-8.28-36.88-3.1-8.74-6.47-13.62-9.97-13.62-2.5 0-4.63-.81-6.4-2.44-1.79-1.62-3.23-4.06-4.35-7.31-2.25-6.5-3.25-16.25-3.25-29.25 0-12.75-.88-24.5-2.69-35.42a147.33 147.33 0 0 0-8.31-30.45 128.85 128.85 0 0 0-14.31-26.52A151.68 151.68 0 0 0 5744 2325a98.7 98.7 0 0 0-20.92-14.87 129.2 129.2 0 0 0-25.14-10.13 163.3 163.3 0 0 0-28.05-5.45 189.72 189.72 0 0 0-29.64-.8c-10 .5-20.05 1.77-29.92 3.79a188.12 188.12 0 0 0-28.9 8.33 163.27 163.27 0 0 0-26.54 12.84A134.54 134.54 0 0 0 5532 2336c-6.25 5.5-11.06 10.13-14.78 15.31-3.72 5.19-6.35 10.94-8.22 18.69-3.75 15.5-4.5 39-5 82-.25 27.5.19 52.38 1.28 74.44 1.1 22.06 2.85 41.31 5.22 57.56 2.38 16.25 5.38 29.5 8.97 39.56 3.6 10.07 7.78 16.94 12.53 20.44 2.75 2 4.94 4.5 6.6 7.7 1.68 3.2 2.84 7.11 3.52 11.93 1.38 9.62.88 22.87-1.12 41.37-1.5 12-2.75 21.13-4.6 28.53-1.87 7.4-4.34 13.1-8.27 18.22-3.94 5.13-9.35 9.69-17.08 14.84-7.74 5.16-17.8 10.91-31.05 18.41-17.5 9.5-34.75 22-50.75 36.25A330.74 330.74 0 0 0 5386 2868c-13 17.5-24.5 30.5-34.63 39.13-5.06 4.3-9.78 7.53-14.17 9.67-4.39 2.14-8.45 3.2-12.2 3.2-6.25 0-13 2-19.53 5.31a75.44 75.44 0 0 0-18.22 13.19c-5.38 5.25-9.81 11.13-12.6 16.94-2.77 5.81-3.9 11.56-2.65 16.56.75 3.75-1.5 10.44-6.1 19.17-4.62 8.74-11.59 19.52-20.27 31.45C5228.24 3046.5 5204 3075 5178 3101c-13.25 13-23.19 25.13-29.78 36.53a79.02 79.02 0 0 0-7.38 16.6 51.64 51.64 0 0 0-2.34 15.62c.06 5.06.97 9.98 2.72 14.79a54.35 54.35 0 0 0 7.81 14.05c6.9 9.16 17.22 17.91 30.97 26.41 12.5 7.75 22.56 13.56 31.48 17.42 8.93 3.86 16.7 5.77 24.65 5.7 7.93-.06 16.03-2.09 25.57-6.1 9.55-4.02 20.55-10.02 34.3-18.02 13.25-7.75 24.19-13.13 33.3-15.84 9.1-2.72 16.39-2.78 22.33.09 5.93 2.88 10.53 8.69 14.26 17.72 3.73 9.03 6.61 21.28 9.11 37.03 2 11.5 5 23.5 8.25 33.5s6.75 18 9.75 21.5c2.13 2.75 3.88 18.78 5.27 45.04 1.4 26.25 2.45 62.73 3.17 106.37 1.44 87.28 1.56 203.22.56 323.34-1 120.12-3.13 244.44-6.19 348.47-3.06 104.03-7.06 187.78-11.81 226.78-1.25 10-2.31 17.63-3.72 23.44-1.4 5.81-3.15 9.81-5.78 12.56-2.63 2.75-6.13 4.25-11.03 5.06-4.9.81-11.22.94-19.47.94h-34v-134c0-37-.75-71-2-96s-3-41-5-42c-5-2-66-1-138 3-71 5-310 17-530 28s-415 23-432 27l-33 6v104c0 50.5-.25 76.5-3.13 89.88-1.43 6.68-3.53 10.21-6.57 12.07-3.05 1.86-7.05 2.05-12.3 2.05-5.75 0-10.06-.13-13.25-1.95-3.19-1.83-5.25-5.36-6.5-12.17-2.5-13.63-1.75-40.38-.25-92.88l3-108-84-72-84-72-6-98c-4-54-9-165-13-248-1.5-41-3.75-81.25-6.25-113s-5.25-55-7.75-62c-5-14-11-37-14-52-1.75-7.75-6.38-17.13-12.69-26.83a213.3 213.3 0 0 0-22.81-28.8c-8.5-9.06-17.5-17.15-25.81-22.98-8.32-5.83-15.94-9.39-21.69-9.39-2.5 0-3.88 1-4.13 3.02-.24 2.01.63 5.04 2.63 9.1 4 8.13 12.5 20.38 25.5 36.88l40 49 12 279 12 278 42 37c23 21 45 38 49 38s23 14 43 31l35 31v114c0 51-.5 79.5-2.88 95.25-1.18 7.88-2.84 12.56-5.14 15.28-2.3 2.72-5.23 3.47-8.98 3.47-4 0-7.13-.63-9.52-3.02-2.39-2.39-4.04-6.54-5.1-13.6-2.13-14.13-1.88-39.88-.38-86.38l3-103-93 4c-51 2-235 10-408 18s-426 20-563 26l-247 11 3 73 4 74h-44c-17 0-27.75-1-34.25-3.63-3.25-1.3-5.44-3.03-6.81-5.23-1.38-2.2-1.94-4.89-1.94-8.14-1.5-38-4.75-83-8.5-119.5s-8-64.5-11.5-68.5c-4.5-5.5-7.69-12.88-9.6-21.2a95.67 95.67 0 0 1-2.02-26.92c.56-9.32 2.34-18.66 5.3-27.11 2.94-8.46 7.07-16.02 12.32-21.77 5-5.25 8.81-9.69 11.58-14.47 2.76-4.78 4.48-9.9 5.3-16.53 1.62-13.25-.38-32.5-4.88-67-5-41-13-84-18-95-2.5-5.5-6.5-25.75-11-53.88a2842.8 2842.8 0 0 1-14-101.12c-4.5-37-9.75-73-14.5-101.13-4.75-28.12-9-48.37-11.5-53.87-3.5-7-5.25-16-5.25-26.88 0-10.87 1.75-23.62 5.25-38.12 3-12.5 5.75-34.25 7.75-59.25s3.25-53.25 3.25-78.75 1.25-56.75 3.38-86.5c2.12-29.75 5.12-58 8.62-77.5l11-70 41 6c11 2 22.25 4.5 31.5 7.13 9.25 2.62 16.5 5.37 19.5 7.87 5 4 49 20 97 35 31 10 56 16.75 77 20.5s38 4.5 53 2.5c21.5-2.5 63.5-13.5 101.38-25.38 18.93-5.93 36.84-12.09 50.64-17.51 13.8-5.42 23.48-10.11 25.98-13.11 5-6 43-27 101-58a209 209 0 0 0 28.8-18.1 231.15 231.15 0 0 0 25.32-21.77c7.44-7.44 13.66-14.85 18.02-21.58 4.36-6.74 6.86-12.8 6.86-17.55 0-4.5 4.5-12.5 11.63-21.75 7.12-9.25 16.87-19.75 27.37-29.25 9-7.5 17.94-17.31 26.08-28.02a242.54 242.54 0 0 0 21.3-33.36c5.8-11.06 10.09-21.59 12.1-30.17 1.01-4.29 1.45-8.09 1.24-11.22-.22-3.14-1.1-5.6-2.72-7.23-1.5-1.5-6.25-1.25-12.63.38C3388 2895 3380 2898 3372 2902c-12 6.5-20 9.75-26.88 10-6.87.25-12.62-2.5-20.12-8-8-6-13.25-8.75-18.63-8.25-5.37.5-10.87 4.25-19.37 11.25-5.5 5.5-13.25 9.5-22.13 12-8.87 2.5-18.87 3.5-28.87 3-7.5-.75-18.75.88-33.08 4.63-14.33 3.74-31.73 9.62-51.55 17.37a1100.35 1100.35 0 0 0-65.98 28.63A1707.54 1707.54 0 0 0 3009 3011c-12 6.25-22.31 10.88-31.69 13.84-9.37 2.97-17.81 4.28-26.06 3.91-8.25-.38-16.31-2.44-24.94-6.22-8.62-3.78-17.81-9.28-28.31-16.53-20-13-57-36-83-52-13.5-7.5-33-21-53.63-36.63A1038.78 1038.78 0 0 1 2701 2868c-21-18.5-41-34-59-45.75s-34-19.75-47-23.25c-18-4.5-41.75-11.75-61-18.38-19.25-6.62-34-12.62-34-14.62 0 0-7-39-15-86-6.5-37-11.25-59-17.75-74.63a79.48 79.48 0 0 0-11.5-19.73c-4.56-5.7-10-10.89-16.75-16.64-13.5-11-21-18-23.88-24.63a16.36 16.36 0 0 1-1.01-10.1c.7-3.58 2.39-7.52 4.89-12.27 4.25-8 7.25-22.31 9.06-39.81 1.82-17.5 2.44-38.19 1.94-58.94s-2.13-41.56-4.81-59.31c-2.69-17.75-6.44-32.44-11.19-40.94-7-12-14.31-22.06-22.5-30.5a107.78 107.78 0 0 0-27.75-20.75c-10.5-5.5-22.44-9.69-36.38-12.88-13.93-3.18-29.87-5.37-48.37-6.87-16.25-1-28.69-1.69-38.66-1.7-9.97-.02-17.47.64-23.84 2.32-6.38 1.7-11.63 4.41-17.1 8.52-5.46 4.11-11.15 9.61-18.4 16.86-7 7-12.44 12.81-16.66 18.48a60.55 60.55 0 0 0-9.34 17.64c-2.13 6.44-3.38 13.79-4.1 23.08-.71 9.3-.9 20.55-.9 34.8 0 17.5 1 36.75 2.63 53.75 1.62 17 3.87 31.75 6.37 40.25s4 17.5 4.38 25c.37 7.5-.38 13.5-2.38 16-1.5 3-10.75 6.5-24.25 9.75S2105.5 2523 2087 2525l-69 7 4 106c1.5 50 2 76.75-.25 91.5-1.13 7.38-2.94 11.75-5.66 14.53-2.71 2.78-6.34 3.97-11.09 4.97-5.5 1-13.75 4.5-22.88 9.38A254.62 254.62 0 0 0 1954 2776c-17 13-35 24-40 24-2.5 0-10 4.5-20 11.75a498 498 0 0 0-35 28.25c-9.75 8.25-17.63 15.31-24.05 21.86-6.42 6.55-11.39 12.58-15.33 18.76a83 83 0 0 0-9.14 19.7c-2.3 7.18-3.98 15.18-5.48 24.68-1.5 12.5-6.75 31-14 50.63-7.25 19.62-16.5 40.37-26 57.37-18 34-51 98-73 142-20.75 42-35.94 71.69-47.1 96.34-11.15 24.66-18.28 44.28-22.9 66.16-4.63 21.88-6.75 46-7.9 79.66-1.16 33.65-1.35 76.84-2.1 136.84-1 66.5-.75 123.5.5 165.38 1.25 41.87 3.5 68.62 6.5 74.62 5 12 12 32 15 46 8.5 42 14 65.75 20.13 79.38 3.06 6.8 6.28 11.09 10.1 13.85 3.83 2.77 8.27 4.02 13.77 4.77s10.13.38 13.69-.78c3.56-1.16 6.06-3.1 7.31-5.47 1.25-2.38 1.25-5.19-.19-8.1-1.43-2.9-4.31-5.9-8.81-8.65-3.5-2.25-6-9.06-7.55-18.2-1.54-9.14-2.14-20.61-1.83-32.18.32-11.56 1.54-23.21 3.61-32.73 2.08-9.51 5.02-16.89 8.77-19.89 3-2.5 8.75-5.5 15.5-8.13 6.75-2.62 14.5-4.87 21.5-5.87 5.75-.75 10.25-1.63 13.88-3.53 3.62-1.9 6.37-4.84 8.62-9.72 4.5-9.75 7-27.25 10.5-59.75 2-19 5-38.75 8.13-55.13 3.12-16.37 6.37-29.37 8.87-34.87 5-11 14-56 21-100 3-22 8.5-47.75 14.88-71.5 6.37-23.75 13.62-45.5 20.12-59.5 13-28 24-54 24-58s19-32 43-62l42-55 8 53c7 48.5 12.44 99.19 16.27 149.19 3.82 50 6.04 99.31 6.6 145.06.57 45.75-.53 87.94-3.32 123.69a630.08 630.08 0 0 1-5.48 48.43c-2.26 14.3-4.94 26.63-8.07 36.63-2.5 8.5-5.5 34-8.5 68.25s-6 77.25-8.5 120.75c-3 70.5-4.25 111-2.88 136.25.7 12.63 2.04 21.44 4.15 28.28A48.03 48.03 0 0 0 1952 4155a53.42 53.42 0 0 1 8.14 15.52c2.2 6.39 3.92 14.3 5.23 24.6 2.63 20.63 3.63 50.88 3.63 97.88v117h-94l3-108c1.5-44.5 1.5-72.25-.5-90.25-1-9-2.5-15.56-4.56-20.56-2.07-5-4.69-8.44-7.94-11.19-2-1.75-6.14-3.2-13.14-4.34-7-1.14-16.84-1.96-30.27-2.46-26.84-.98-67.97-.64-129.09 1.17C1570.25 4178 1368 4187.5 1040 4204c-157 8-297 15-311 15-10.5.5-17.5 2.5-22.63 7-5.12 4.5-8.37 11.5-11.37 22-1.5 7.5-6 17.25-11.88 26.88C677.25 4284.5 670 4294 663 4301c-6.5 7.5-14.25 18.5-21.25 30.25S628.5 4355.5 625 4366l-13 39c361.23 112.9 5929.18 336.93 6416.25 2.5z"
    paint-order="stroke fill markers"
  ></path>
</svg>
