<svg id="root" xmlns="http://www.w3.org/2000/svg" width="768" height="441" viewBox="0 0 7680 4410">
  <g>
    <path
      d="M590 4375c0-39 19-84 45-105 36-30 39-62 45-416 4-277 8-354 19-367 9-12 29-17 62-17 36 0 49-4 49-14 0-19 87-26 403-32 243-5 247-4 247 16 0 17 6 20 44 20h45l3 160c2 110 7 163 16 172 9 10 12-34 12-219 0-127 2-237 5-245 4-11-57-12-352-7l-358 6-55-24c-68-30-82-43-117-107l-28-51-7-820c-5-451-7-1077-6-1392l3-571 31-42c27-37 55-58 126-92 31-14 231-19 383-9 83 6 321 20 530 31s409 23 445 26 245 14 465 25c1036 50 1184 58 1240 64 33 4 220 16 415 26 674 35 1095 58 1155 63 33 3 197 14 365 25 347 23 415 31 459 57 40 24 76 76 93 134 15 55 16 449 5 1565-8 745-13 865-38 865-5 0-9 6-9 13 0 19-50 64-85 77-16 6-85 14-152 17l-123 6v-80l83-6c59-4 97-13 135-32 46-22 57-33 76-78l23-52 7-1097c7-1067 7-1098-12-1140-20-45-82-108-107-108-8 0-15-4-15-9 0-22-109-35-355-43-143-4-285-10-315-13-58-6-328-22-940-55-206-11-404-24-440-30-36-5-195-17-355-25-159-8-364-19-455-25-91-5-318-17-505-25-615-28-748-36-1105-64-58-5-254-15-436-22-415-16-425-14-486 97-21 37-22 52-25 364-5 516 14 2238 25 2304 9 47 18 66 48 97 61 63 71 64 442 63l332-1v62l17-35c29-65 94-195 128-257 19-34 37-83 40-108 6-38 15-52 54-85 25-22 50-40 55-40s24-11 42-25 40-25 48-25c14 0 16-17 16-109v-110l68-6 67-7-3-104-3-104 31-31 31-31 97 4c154 6 182 38 182 205 0 93 2 107 20 121 15 12 25 41 35 102 8 47 15 86 15 86 0 4 59 24 95 33 26 7 64 32 108 70 37 34 77 66 90 72 12 7 46 28 75 47l54 35 41-21c39-20 40-22 15-22-15 0-49-14-75-32-51-33-283-262-283-278 0-9-48-86-77-125-8-9-53-108-86-186-51-119-86-326-87-500 0-102 17-279 31-329 6-19 17-60 25-90 20-74 29-97 97-230 84-164 208-310 357-420 86-63 101-73 150-98 19-9 37-20 40-23s21-11 40-18 46-19 60-26 50-18 80-26c30-7 60-16 65-20 52-38 600-37 650 1 6 4 35 13 65 20 83 19 316 135 328 163 2 4 9 7 15 7 32 0 317 283 317 314 0 3 15 27 33 53 54 78 129 241 147 319 6 27 15 57 21 66 44 84 45 649 0 713-4 6-13 34-20 62-28 116-121 297-209 408-125 158-300 299-452 367-19 9-55 25-80 36s-74 26-110 33-67 16-70 20c-3 5-69 13-146 20-148 12-408-1-428-21-6-6-18-10-28-10-14 0-18-8-18-36 0-21-4-33-10-29-6 3-10 15-10 26 0 24-41 64-87 86-19 8-32 17-31 18 2 2 307-4 678-12 371-9 789-17 928-20l252-4v87l-657 13c-362 7-732 16-823 21s-222 9-292 9l-128 1v-35c0-32-13-48-22-27-7 18-136 55-207 59-60 4-88 0-160-23-47-15-90-31-95-36-37-31-54 47-57 252-2 135 25 395 42 415 13 13 11-11-11-169-12-77-20-175-18-216l3-75 48-3c33-2 47-7 47-18 0-10 14-14 55-14 43 0 55 3 55 16 0 10 6 14 18 10 9-2 179-7 377-10 440-8 535-14 535-32 0-17 81-19 97-3 11 11 330 7 1208-17 243-7 255-4 255 61 0 25-4 45-8 45s-4 35 0 78c5 42 6 256 2 475l-7 397H2720v-75c0-41-4-75-9-75s-11-12-13-27c-2-16-2 18 0 75l5 102h-760l-7-73c-3-40-4-86 0-103 4-21 1-34-10-43-14-12-16-2-16 103v116H590v-35zm2100-217c0-16-3-19-11-11-6 6-8 16-5 22 11 17 16 13 16-11zm-775-238c4-85 12-164 17-174 16-29 14-356-1-384-10-19-15-21-27-11-8 6-14 16-14 22 0 5-11 33-24 61-26 57-45 152-27 141 6-3 11-13 11-21 0-9 11-14 35-14h35l-1 93c0 50-5 128-10 172-23 197-31 315-24 332 12 28 22-40 30-217zm808 126c-3-22-10-48-15-56-6-10-7 2-4 34 3 27 6 58 6 70 0 16 2 18 9 7 5-7 6-32 4-55zm-1013-61c11-13 8-15-21-15-32 1-33 1-15 15 24 18 21 18 36 0zm41-55c5 0 9-15 9-34s5-38 10-41c18-11 10-25-14-25-34 0-53 26-38 51 7 10 13 33 13 51 1 18 3 25 6 16 2-10 9-18 14-18zm-131 3c0-10-5-25-10-33-7-11-10-7-10 18 0 17 5 32 10 32 6 0 10-8 10-17zm194-213c5-43 4-62-2-55-6 6-13 42-17 80-4 44-3 64 3 55 5-8 13-44 16-80zm1980-650c17-5 66-14 109-21l77-12v-76c0-46 5-82 12-89 9-9 7-21-10-51-12-21-22-48-22-60 0-24-8-26-35-7-11 7-72 21-135 31-63 9-121 22-128 28-10 8-12 33-7 106 4 59 3 106-3 122-6 15-8 30-5 33 10 9 113 7 147-4zm-233-54c2-24 2-83 0-130-3-82-4-86-26-86-12 0-42-7-65-15s-58-15-77-15c-18 0-44-7-56-15-21-13-26-12-72 20-26 19-59 53-71 75l-23 40h38c21 0 44-6 50-14 9-10 36-14 97-15h84v40c0 46-19 98-45 119-17 14-12 16 51 26 116 19 112 20 115-30zm603-48c39-18 76-36 81-41 6-4 38-26 73-49 47-31 62-46 62-64 0-21-5-24-39-24-31 0-44-6-60-26-12-15-21-33-21-41 0-25-40-93-55-93-8 0-15-4-15-10 0-5-6-10-14-10-20 0-70-44-126-110l-47-57-10 28c-9 24-6 34 28 83 41 59 49 100 27 136-10 16-9 25 6 51 21 35 27 156 12 222-11 48 2 48 98 5zm-1038-76c-32-3-36-6-36-32 0-29 18-80 32-90 11-9 28-59 28-86 0-18-5-24-20-24-29 0-76-26-84-45-3-9-6-30-6-46s-5-38-12-48c-16-26-30-18-133 72-44 39-81 71-83 72-5 4 101 103 167 155 65 50 71 58 71 92v37l56-27 55-27-35-3zm617-191c6-6 27-11 47-11 19 0 58-7 85-16 91-30 87-25 60-59-19-23-27-27-37-17-19 19-102 15-129-7-49-37-83-49-134-44-27 2-84 0-126-4l-77-9-5 43c-2 24-12 52-22 63-23 26-11 40 36 40 21 0 56 9 77 21 32 18 49 20 125 16 49-3 94-10 100-16zm671-16c9-13 16-35 16-48 0-12 5-28 11-34 9-9 9-19 1-40-6-15-11-83-11-150 0-122 0-123-28-148-15-13-38-25-49-25-12 0-32-8-45-19-31-23-89-33-89-14 0 9-15 13-50 13-47 0-51-2-75-40-14-22-25-50-26-62v-23l-9 23c-7 17-17 22-44 22-30 0-34 3-38 31-3 21 2 41 19 65 12 19 23 39 23 43 0 5 25 41 55 80s55 74 55 76c0 14 89 92 118 104 41 17 92 75 92 104 0 27 26 67 44 67 8 0 21-11 30-25zm202-78c34-42 39-67 7-34-15 15-45 41-65 58-27 22-38 39-38 58 0 26 1 25 38-15 20-23 47-53 58-67zm-1318 40c6-5 12-19 12-31 0-11 7-30 15-40 9-12 15-42 15-77 0-32 5-61 10-64 12-8 13-105 1-105-5 0-15-22-22-50-14-56-25-56-34-2-14 79-47 172-66 182-24 13-26 91-4 134 8 15 15 39 15 51 0 19 4 22 23 18 12-3 28-10 35-16zm-555-130c-61-64-83-180-47-249 9-16 12-28 7-26-20 10-61 27-90 38-18 7-33 15-33 19 0 11 81 165 96 182 8 8 14 19 14 24 0 4 11 23 26 42 22 28 28 32 46 22 20-11 19-12-19-52zm389-28c-3-66-2-73 23-99 28-29 36-58 76-270 11-58 24-113 29-122 6-10 10-36 10-59 0-36-2-40-15-29-8 7-15 18-15 25s-16 22-35 34c-35 20-35 21-35 93v72l-47 48c-37 37-44 51-35 60 18 18 15 113-3 128-13 11-13 16 5 44 10 18 22 52 25 76 14 94 21 93 17-1zm727-2c5-13 21-37 36-55 48-57 48-78-1-167-24-44-53-97-64-118-12-21-26-40-33-42s-49-5-95-7l-82-3-14 30c-8 17-26 47-40 68-15 21-33 53-42 70-8 18-28 57-44 87l-30 54 25 26c25 24 29 25 148 22l122-3 40 30c48 37 63 38 74 8zm736-29c54-60 65-84 65-139 0-31-4-39-18-39-10 0-26-9-35-21-24-27-49-21-68 19-13 26-16 54-13 130 2 53 4 98 4 100 0 13 26-7 65-50zm-1706 8c22-23 22-26 8-58-9-18-18-48-22-65-4-18-10-33-15-33s-15-2-22-5c-8-3-26 3-40 15-23 17-25 24-18 55s64 112 81 114c3 1 16-10 28-23zm1912-191c47-118 90-358 69-378-9-9-16-7-28 12-12 18-17 50-18 115-2 74-8 107-33 175-17 46-33 107-37 135l-6 51 17-30c9-16 26-52 36-80zm-1807 48c6-39 4-43-14-43-11 0-20 3-20 6 0 10 23 84 25 82 1-2 5-22 9-45zm494-195c38-64 56-104 49-107-7-2-20-11-30-19-16-14-19-14-36 4-41 42-86 195-64 217 13 14 21 5 81-95zm-868 46c25-8 61-22 80-31 48-24 180-25 206-2 11 9 28 19 39 21 11 3 28 9 37 13 13 5 20 0 28-19 5-14 14-26 19-26 6 0 18-14 27-31 13-26 14-33 2-40-20-13-187-11-249 3-64 14-139 16-232 5l-69-8 7 33c19 93 26 110 43 103 9-4 37-14 62-21zm2085-14c4-17 14-44 22-61 12-24 16-62 15-151 0-110-2-121-22-143-19-21-23-36-24-104-1-77 0-81 32-113 17-19 32-39 32-46s4-12 8-12c5 0 18-14 31-31 21-28 22-33 8-62-8-18-17-39-19-47-4-13-25-14-127-11-69 2-127-1-134-7-6-5-29-12-49-15-32-5-41-2-58 20-11 14-20 32-20 39 0 16-86 104-101 104-8 0-9 11-3 33 4 17 8 97 8 177 0 127-2 151-20 190-12 25-27 69-35 98l-13 53 29 24c17 13 41 24 54 25 13 0 38 11 55 23 17 13 47 26 67 30 31 5 38 2 49-19 15-28 70-34 90-9 6 7 32 17 56 21 24 3 44 10 44 15 0 22 19 6 25-21zm-961-161c22-13 36-29 36-41 0-19 37-94 74-151 15-22 15-26-1-45-23-27-110-31-202-9-71 18-105 44-121 93-12 36-7 54 16 54 7 0 19 9 26 20 9 14 24 20 50 20 33 0 40 5 60 40 13 22 24 40 25 40s18-9 37-21zm-364-55c0-6 11-21 25-34s25-33 25-44c0-25 19-78 44-124 9-19 15-36 12-40-12-11-46 32-46 59 0 19-14 43-45 76-44 47-45 49-44 113 1 63 1 64 14 35 8-16 14-35 15-41zm796-19c6-11 17-42 24-70 7-27 17-55 22-61 34-45 6-184-37-184-24 0-101 35-109 49-4 5-7 65-9 134-1 87-6 129-16 140-12 15-11 17 12 17 15 0 37 12 54 29l28 29 10-32c6-17 15-40 21-51zm-1325 43c20-7 71-9 134-5l103 6 6-32c5-24 14-36 36-44 75-28 31-33-310-33h-340v43c0 59 15 75 75 80 76 7 261-3 296-15zm1111-78c26-70 23-134-9-186-33-52-51-59-21-8 18 30 20 45 15 106-5 53-11 76-28 94-11 12-18 28-14 34 14 22 40 4 57-40zm914-160c-4-44-14-93-22-108-7-15-14-21-14-13s-16 29-35 48c-31 30-33 36-22 56 22 40 40 57 59 57 11 0 18 7 18 20 0 11 5 20 11 20 8 0 10-23 5-80zm-1551 30c17-19 17-20-11-30-16-6-39-15-51-21-12-7-36-9-55-5-85 18-106 18-132 1-20-13-43-17-89-15-102 6-306 3-401-5-98-8-106-5-106 52v33l223 3c650 8 602 9 622-13zm40-167c-22-20-63-57-92-83-28-26-56-49-60-51-5-2-22-39-37-82-26-73-28-83-21-178 7-97 35-185 65-204 5-3 10-14 10-23 0-10 22-41 49-70 52-54 91-111 57-83-12 10-38 13-106 9-80-5-92-3-103 13-7 9-24 23-38 29-25 11-30 18-61 81-31 65-48 107-48 122 0 9-11 29-25 45-21 25-22 32-11 48 6 10 21 45 31 76 17 53 18 64 6 130-22 118-27 107 79 151 52 21 118 47 145 57 28 10 79 30 115 43 83 31 101 20 45-30zm330 30c16-15 16-31 9-147-5-72-9-164-9-204 0-62-2-72-17-72-14 0-18 8-18 38 0 20-8 53-19 72-10 19-21 60-25 91-6 47-4 63 13 93 12 20 21 54 21 75 0 69 14 85 45 54zm-791-11c42-8 62-32 27-32-12 0-21-4-21-10 0-5-9-10-19-10-11 0-23 5-26 10-3 6-33 10-66 10-45 0-64-5-78-19-18-18-30-19-113-14-51 3-95 8-98 10-13 12 40 33 84 33 28 1 74 7 101 15 54 15 147 18 209 7zm647-55c-16-16-14-250 2-290 11-26 12-49 3-117l-11-85-50-6c-43-6-55-3-89 19-21 15-54 45-73 69-20 24-41 43-48 43-29 0-45 35-39 83 4 26 13 52 20 58 8 6 14 19 14 29 0 19 32 50 240 229l35 30 3-26c2-14-1-30-7-36zm292 11c19-29 46-64 61-77 14-14 26-33 26-44 0-10 9-30 20-44s20-31 20-38 7-19 16-26c25-21 64-118 64-160 0-32-4-39-19-39-11 0-23-9-27-22-4-12-24-39-45-59-33-32-39-44-39-79 0-29 8-51 26-76 33-42 44-114 21-133-30-24-59-9-90 49-27 49-31 68-36 165-4 78-11 117-23 135-9 14-19 43-23 65s-11 53-17 68c-8 20-8 31 1 40 7 7 11 51 11 117 0 98 9 210 16 210 2 0 19-24 37-52zm185-7c15-10 40-21 57-25 16-4 47-23 68-43 21-19 52-39 68-45 16-5 29-16 29-24s10-18 23-23c28-11 41-27 55-68 10-31 56-79 109-114 14-9 33-31 44-48l19-31h-30c-23 0-35 8-55 37-14 21-25 43-25 49 0 17-85 84-107 84-19 1-47 15-129 63-26 15-57 30-68 33-24 6-66 65-66 92 0 10-11 29-25 42-40 38-14 55 33 21zm-1207-81c10-6 19-16 19-23 0-17-57-37-103-37-29 0-46-8-78-37-40-36-41-39-36-88l4-50-32 70c-46 101-49 119-22 134 16 8 32 8 57 1 58-17 102-12 135 15 35 29 31 28 56 15zm76-146c3-8 1-20-6-27-6-6-11-19-11-28 0-10-11-38-24-63l-24-44-36 24c-20 14-36 33-36 42 0 10-7 28-16 40-20 29-10 42 34 42 20 0 46 7 56 15 26 19 55 19 63-1zm1830-57c4-5 1-18-7-30-7-12-18-31-24-42s-22-35-35-53l-23-33-23 21c-12 11-27 38-33 59-7 21-21 46-32 56s-20 22-20 28c0 11 185 5 197-6zm-449-87c29-24 78-100 64-100-19 0-92 54-92 68 0 10-10 22-22 27-13 6-24 18-26 27-4 23 34 12 76-22zm-1449-130c29 0 40-6 58-33 12-17 28-56 34-85 7-28 16-52 20-52 3 0 9-9 12-20 11-43-196 159-215 210-4 10-11 21-17 25-6 3-11 11-11 16 0 6 19-6 42-25 31-27 51-36 77-36zm894 28c30-49 41-105 27-137-14-35-25-37-66-16-16 8-39 15-52 15-18 0-21 4-18 23 3 12 8 40 11 62 12 69 69 100 98 53zm836-41c8-10 7-18-2-30-11-16-14-16-44 5-18 13-33 26-33 31 0 13 67 8 79-6zm-415-74 45-78-44-42c-59-58-75-56-75 5 0 34-7 58-24 82l-24 35 32 37c17 20 34 37 38 37 3 1 27-34 52-76zm251 0c10-4 36-19 63-36 9-6 4-16-19-38-17-16-34-29-37-29s-23 17-44 37c-26 25-38 46-38 64 0 26 1 27 33 17 17-6 37-13 42-15zm-929-3c45 0 54-10 54-61 0-21 5-29 18-29 10 0 22-4 27-8 18-16 92-32 144-32 51 0 52-1 67-37 8-21 21-50 29-65 14-27 9-37-11-19-5 5-61 11-124 14-109 4-129 9-200 46-8 4-16 21-18 37-5 44-31 95-69 136l-36 36 39-9c22-4 58-9 80-9zm834-175c-20-24-302-155-332-155-15 0 32 39 47 40 6 0 18 9 28 20 11 14 29 20 56 20 22 0 42 4 46 9 3 5 18 12 34 16 28 6 91 72 91 96 0 6 9 1 19-12 11-14 16-28 11-34zm-1025-65c12-12 42-22 71-26 27-3 64-12 82-21 42-18 131-33 206-33 41 0 74-7 105-22l46-23-58-7c-32-4-93-3-135 1-92 11-259 46-275 59-7 5-33 15-59 22-27 7-48 16-48 20s-10 11-22 14l-23 6 25 15c35 20 60 18 85-5z" />
    <path
      d="M5350 4398c0-7 5-71 10-143 13-174 14-893 2-908-5-7-13-31-17-54-7-47-11-49-39-28-32 24-110 19-156-10-40-25-40-26-40-86 0-58 2-64 38-98 53-53 92-107 92-129 0-24 30-52 57-52 13 0 34-19 59-52s59-64 94-83c61-34 69-51 43-91-15-24-18-50-18-181 0-152 0-153 26-177 31-29 87-46 149-46 114 0 170 50 170 151 0 26 4 39 14 39 14 0 26 78 26 170 0 43 4 51 43 86 84 75 87 83 87 218 0 113-3 128-35 221-50 141-57 204-40 355 7 69 21 166 30 215 10 54 15 127 13 183-3 79-1 90 10 75 16-21 11-236-6-256-11-13-32-230-32-327v-58l68-6c37-3 175-7 307-9 216-2 244 0 268 16 15 9 27 26 27 37 0 12 8 20 23 22 25 3 26 6 57 233 36 266 40 285 69 292 13 3 36 12 50 19s47 19 74 26c32 8 52 19 55 30 3 14 15 18 46 18 23 0 47 5 54 12 8 8 12 50 12 128-1 93-5 129-24 185l-23 70-538 3-538 2 6-82c17-231 20-301 10-295-6 4-13 48-17 99-3 51-12 135-18 186l-12 92h-268c-208 0-268-3-268-12z" />
  </g>
  <g fill="#FFF">
    <path
      d="M0 2205V0h7680v4410h-360c-298 0-360-2-360-14 0-7 11-48 25-91s24-79 23-80c-2-2-68 1-148 6s-313 18-519 28c-205 11-375 22-377 24s-7 31-10 65l-7 62h-89l5-57c16-223 31-331 48-369 23-50 24-128 3-244-28-155-45-332-38-415 4-54 19-119 45-197 34-101 39-129 39-205 0-100-7-115-87-187-39-35-43-43-43-86 0-92-12-170-26-170-10 0-14-13-14-39 0-51-14-86-46-116-49-46-157-41-212 11-25 22-27 30-28 116-1 110 9 178 28 192 11 8 13 24 9 61-6 48-8 50-61 80-35 19-69 50-94 83-26 35-46 52-61 52-25 0-58 32-53 52 3 15-42 77-94 129-53 52-53 90 2 124 50 31 61 31 116-1 53-31 69-24 79 39 4 23 12 48 18 55 17 22 10 894-9 1050-5 40-7 42-40 42h-34v-134c0-74-3-136-7-138-5-2-66-1-138 3-71 5-310 17-530 28s-415 23-432 27l-33 6v104c0 101-1 104-22 104-23 0-23-2-20-107l3-108-84-72-84-72-6-98c-4-54-9-165-13-248-3-82-9-161-14-175s-11-37-14-52c-7-31-60-88-83-88-10 0-2 16 24 49l40 49 12 279 12 278 42 37c23 21 45 38 49 38s23 14 43 31l35 31v114c0 102-2 114-17 114-16 0-18-10-15-103l3-103-93 4c-51 2-235 10-408 18s-426 20-563 26l-247 11 3 73 4 74h-44c-34 0-43-4-43-17-3-76-13-180-20-188-18-22-15-74 6-97 20-21 21-29 12-98-5-41-13-84-18-95s-16-81-25-155-21-144-26-155c-7-14-7-36 0-65 6-25 11-87 11-138s5-125 12-164l11-70 41 6c22 4 45 10 51 15 5 4 49 20 97 35 62 20 100 27 130 23 43-5 168-44 178-56 5-6 43-27 101-58 39-20 79-60 79-79 0-9 18-32 39-51 36-30 71-97 58-110-3-3-19 1-35 9-24 13-32 13-47 2-16-12-21-11-38 3-11 11-31 16-51 15-30-3-120 32-227 89-48 25-69 24-111-5-20-13-57-36-83-52-27-15-78-54-114-86-42-37-80-62-106-69-36-9-95-29-95-33 0 0-7-39-15-86-13-74-19-88-46-111-27-22-30-28-20-47 17-32 14-165-5-199-28-48-61-65-135-71-65-4-69-3-98 26-28 28-31 37-31 94 0 35 4 77 9 94s6 36 2 41c-3 6-37 14-74 18l-69 7 4 106c3 100 2 107-17 111-11 2-33 14-51 27-17 13-35 24-40 24s-30 18-55 40c-39 33-48 47-54 85-3 25-21 74-40 108-18 34-51 98-73 142-83 168-77 139-80 379-2 133 1 228 7 240 5 12 12 32 15 46 17 84 22 95 44 98s30-12 12-23c-14-9-12-91 3-103 6-5 23-12 37-14 23-3 26-8 33-73 4-38 12-79 17-90s14-56 21-100c6-44 22-103 35-131s24-54 24-58 19-32 43-62l42-55 8 53c28 194 31 423 6 503-5 17-12 102-17 189-6 141-5 162 10 181 13 17 17 44 17 138v117h-94l3-108c3-89 0-111-13-122-16-14-169-9-825 24-157 8-297 15-311 15-21 1-28 8-34 29-3 15-18 39-32 53-13 15-31 44-38 65l-13 39-306 3-306 2V2205zm6580 2015c223-11 411-22 418-25 8-3 12-26 12-68 0-40-5-68-12-75-9-6-39-7-88-1-41 5-267 17-502 27-234 9-428 19-431 22s-8 39-11 80l-7 75 108-7c59-4 290-16 513-28zm-3406-5c204-8 404-20 444-25 40-6 117-11 170-11 53-1 128-4 167-8l69-6-59-47c-56-44-64-48-115-47-62 1-579 25-800 38-80 5-179 9-220 10-65 1-77 5-91 24-10 14-15 34-11 55 5 39-43 37 446 17zm-1979-51c266-12 601-30 643-33 8-1 12-18 12-50 0-43-4-53-36-85-39-39-44-42-44-24 0 6-10 22-22 35-28 30-73 30-120-2-45-30-48-31-48-3 0 12-19 39-44 64-57 55-87 59-398 59H902l-27-25c-53-49-65-92-65-225 0-120 0-120 31-158 18-21 57-51 88-65l56-27h535v-47l-297 7c-164 4-316 11-338 16s-70 9-107 9h-68v570l88-1c48 0 227-7 397-15zm3250-14c28-5 230-17 450-26 220-8 404-19 408-23 5-5 7-28 5-52l-3-44-70 2c-168 5-990 42-1087 48-60 4-108 11-108 15s15 19 34 34c19 14 40 32 48 39 7 8 20 16 28 19 22 7 238-1 295-12zm-3120-59c164-12 183-18 220-82 26-44 25-151-1-180-11-13-19-42-22-79-7-97-2-96-283-92-280 4-319 11-362 65-30 36-31 42-35 155-4 142 8 174 78 210 50 25 90 25 405 3zm1830-22c116-5 329-14 475-20s266-13 268-14c2-2-2-61-8-131-6-71-15-187-20-257s-11-131-14-136c-3-4-29-5-58 0-29 4-289 13-577 19-289 6-528 13-533 16-4 3-8 14-8 25 0 17 7 19 63 19 51 1 69 5 101 28 86 60 124 160 97 258-15 55-79 119-141 141-30 10-46 22-44 30 2 7 6 19 8 26 4 13 32 13 391-4zm3355-26c221-10 384-22 383-27s-30-18-65-29c-35-10-68-23-75-29-7-5-38-12-70-15-58-5-498 12-609 23-57 6-61 9-82 45-13 22-20 44-16 50 4 7 32 8 78 5 39-3 244-14 456-23zm-2080-33c25-5 221-14 435-20 215-7 405-16 423-22l32-10v-146c0-189-9-304-26-326-12-18-35-18-516-6-277 7-573 16-658 19l-155 6-3 50c-2 28 1 75 7 105s14 126 17 213l7 158 196-6c108-3 216-10 241-15zm-2567-82c3-35 10-105 16-157s9-96 7-98-10-1-19 3c-11 4-18 26-23 72-4 40-16 84-30 109-25 46-22 77 13 115 26 29 31 22 36-44zm964 41c50-24 65-43 88-111 14-44 14-51-1-98-21-65-44-94-97-119-42-21-112-28-120-13-5 9 38 322 48 345 10 22 29 22 82-4zm3533-49c19-5 99-11 178-13 78-2 144-6 146-8 3-2 0-24-5-49s-18-110-29-190-23-165-27-190l-8-45-160 3c-338 5-495 14-495 27 0 7 20 15 48 19 94 12 135 89 136 256 1 102 0 109-24 132-14 14-42 28-62 32-21 4-38 9-38 11s-3 10-6 19c-5 13 13 14 153 10 87-3 174-9 193-14zm-260-77c18-17 19-149 1-234-15-69-54-112-97-107l-29 3 3 84c1 47 7 89 11 95 5 6 12 45 16 86s8 81 10 87c5 16 64 6 85-14zm-4212-244 3-34-16 29c-18 34-19 49-2 44 6-3 13-20 15-39zm-700-39c324-13 332-14 332-47v-25l-387 7c-233 5-393 11-400 17-14 11-17 40-6 51 9 10 174 9 461-3zm2097-70c215-6 427-10 473-10 45 0 82-4 82-9s-8-18-17-29c-18-20-19-20-523-7-278 8-529 14-558 15-37 0-54 4-58 15-14 37 1 42 108 38 56-2 279-8 493-13zm-2115-20c85 0 180-4 210-9 76-12-359-6-460 7l-75 10 85-5c47-2 155-4 240-3zm3100-10c107-6 372-14 588-19s396-11 399-15c4-4-1-14-11-24-15-15-39-17-219-15-111 2-260 5-332 8-71 2-273 8-448 11-174 4-320 10-322 15-3 4 2 17 12 29 21 24 48 25 333 10zm1047-53c-3-8-15-17-27-20l-22-6 23 25c23 25 35 25 26 1zm1138-15 120-7-29-20c-26-18-45-19-245-17-119 1-244 5-278 8-56 6-63 9-63 28 0 21 2 21 187 18 104-2 242-6 308-10zm-4907-107c44-16-26-20-320-20-371 0-381-1-442-64-30-31-39-50-48-97-11-67-30-1780-25-2334 3-343 4-356 25-394 58-105 83-111 385-103 347 10 668 27 707 37 19 4 161 13 315 20 154 6 309 15 345 20s270 17 520 25c250 9 469 21 485 25 17 5 156 14 310 20s307 15 340 21c33 5 229 18 435 29 599 32 881 48 940 55 30 3 172 9 315 13 246 8 355 21 355 43 0 5 7 9 15 9 25 0 87 63 108 108 18 43 19 72 12 1170l-8 1127-23 52c-19 45-30 56-76 78-38 19-76 28-135 32-46 3-83 10-83 16 0 12 178 1 217-14 34-12 83-58 83-76 0-7 4-13 9-13 25 0 30-120 38-865 11-1104 10-1450-5-1505-17-58-53-110-93-134-44-26-112-34-459-57-168-11-332-22-365-25-60-5-481-28-1155-63-195-10-382-22-415-26-56-6-204-14-1240-64-220-11-429-22-465-25s-236-15-445-26-445-25-525-30c-141-10-298-5-329 9-67 31-99 54-125 91l-31 42-3 541c-1 298 1 911 5 1362l8 820 25 45c37 67 50 80 110 109l55 26 320-3c176-1 326-5 333-7zm2302-55c146-5 475-12 733-16 389-6 467-9 467-21 0-16 3-16-1129 10-618 14-685 17-700 32-18 19-53 19 629-5zm-25-111c66-5 122-14 125-18s34-13 70-20 85-22 110-33 61-27 80-36c152-68 327-209 452-367 88-111 181-292 209-408 7-28 16-56 20-62 43-63 43-571 0-653-6-9-15-39-21-66-18-78-93-241-147-319-18-26-33-50-33-53 0-31-285-314-317-314-6 0-13-3-15-7-12-28-245-144-328-163-30-7-59-16-65-20-49-37-539-38-590-1-5 4-35 13-65 20-30 8-66 19-80 26s-41 19-60 26-37 15-40 18-21 14-40 23c-49 25-64 35-150 98-149 110-273 256-357 420-68 134-77 156-97 230-8 30-20 71-25 90-6 19-16 94-23 166-18 208 11 435 78 599 25 63 78 179 87 190 29 39 77 116 77 125 0 28 305 310 336 310 16 0-5-22-67-70-80-63-154-133-176-167-19-28-28-17 102-126 50-42 102-86 116-98s29-23 32-23c12-2 47 78 47 105 0 15 3 35 6 44 8 19 55 45 82 45 28 0 33 20 22 87-6 32-10 59-10 60s-6 8-13 15-18 26-25 41c-19 43 8 30 34-16 27-48 109-107 149-107 17 0 41 7 53 16 13 9 32 14 43 11s45 3 76 14c31 10 68 19 83 19h27l-5 68c-3 48 0 78 12 106 15 35 15 41 1 56-8 9-15 35-15 58s-3 42-7 42c-11 0-132-19-165-26-17-3-28-1-28 5s8 11 18 11 22 4 28 10c5 5 55 14 109 18 142 13 147 13 280 1z" />
    <path
      d="M3184 4030c-58-24-70-91-24-139 37-38 74-40 113-6 69 61-4 181-89 145zm74-39c8-5 12-23 10-47-3-38-4-39-45-42-33-2-44 1-52 17-11 20-6 45 12 69 11 14 55 16 75 3zm327-10c-50-13-89-37-133-85-41-44-42-47-42-113 1-59 5-76 34-123 59-100 187-128 285-61 56 37 80 72 93 134 15 73-7 145-63 198-53 51-106 66-174 50zm150-61c50-47 80-150 57-198-5-9-15-30-23-47-26-56-158-103-207-75-9 5-29 14-45 20-15 5-30 18-34 27-4 10-11 21-16 25-13 8-21 107-13 153 5 23 23 52 51 81l44 46 80-3c68-4 83-8 106-29zm-584-189c-20-15-24-27-23-65 0-61 22-86 73-86 50 0 79 30 79 82 0 73-73 112-129 69zm87-27c46-32 16-98-42-92-29 3-31 6-34 46-3 36 0 44 20 51 31 13 31 13 56-5zm927 279c-31-8-65-39-87-80-17-31-22-61-26-159l-4-122 37-40c50-56 95-64 339-60l195 3 34 33c41 40 58 97 64 215 6 120-7 148-85 177-45 17-92 24-222 31-181 9-215 9-245 2zm392-42c56-7 77-14 100-35 27-26 28-28 27-134 0-92-3-113-24-150-13-26-34-47-49-53-14-5-36-14-48-21-13-6-44-8-80-4-32 4-122 10-200 14-139 8-144 9-173 37s-30 31-30 121c0 123 14 188 47 214 23 18 40 20 192 20 91-1 198-5 238-9zm440-27c-57-21-113-64-131-102-34-69-14-196 39-250 29-30 42-36 90-40 156-13 262 94 239 244-5 36-17 58-47 91-66 72-111 85-190 57zm142-46c45-26 61-62 61-135 0-89-36-145-114-177-50-21-60-20-117 5-38 18-50 30-68 68-26 58-27 96-2 153 21 50 42 71 91 92 50 22 105 20 149-6zm1165 22c-38-15-66-60-58-94 13-64 86-87 123-40 23 30 28 90 8 115-16 21-47 29-73 19zm64-63c4-37-24-69-57-65-21 2-27 9-29 36-4 44 13 64 52 60 26-2 32-8 34-31zm118 34c-9-10-19-34-23-54-4-29-1-40 20-61 34-34 62-33 98 3 33 33 38 74 13 109-20 29-83 31-108 3zm84-35c17-47-9-84-51-71-14 5-19 16-19 44 0 44 5 51 37 51 16 0 27-8 33-24zm-305-205c-60-25-73-97-24-134 37-27 84-16 110 26 25 41 24 49-7 86-26 32-43 36-79 22zm61-46c19-49-43-100-72-61-7 10-11 24-8 32 2 8 6 21 9 29 6 20 64 20 71 0zm124 18c-17-22-21-37-17-67 6-44 19-56 63-56 43 0 65 20 71 67 4 33 1 45-16 62-30 30-74 27-101-6zm85-23c16-17 17-23 5-45-7-13-19-26-27-29-25-10-53 13-53 42 0 51 42 69 75 32zm-2923-472c-16-16-15-65 1-71 9-3 11-33 9-119-2-85 0-117 10-125 7-6 65-19 128-28 63-10 124-24 135-31s36-15 55-16c31-3 34 0 41 29 3 18 14 44 23 57 18 28 22 101 6 111-5 3-10 41-10 84v78l-77 12c-43 7-92 16-109 21-44 14-197 13-212-2z" />
    <path
      d="M4034 3023c-4-19-3-56 2-81 12-73 6-141-16-177-24-38-25-60-5-98 14-27 12-30-25-85-46-66-49-95-16-165 26-54 19-57 105 49 55 68 106 114 127 114 8 0 14 5 14 10 0 6 7 10 15 10 15 0 55 68 55 93 0 8 9 26 21 41 16 20 29 26 60 26h39v107l-62 41c-35 23-67 45-73 49-17 13-86 45-162 73l-73 28-6-35zm402-190c-12-12-6-71 9-83 8-7 15-18 15-25s7-18 15-25 15-25 15-40c0-20 10-36 35-57 139-112 189-185 199-288 3-33 19-98 36-144 25-67 31-99 30-155-1-39-1-79-1-89 0-9 10-31 21-48 19-26 26-29 54-23 46 9 46 10 45 72-1 94-39 279-78 377-30 79-91 196-128 246-18 26-33 49-33 52 0 9-40 55-120 140-77 81-103 101-114 90z" />
    <path
      d="M3488 2731c-21-12-53-21-72-21s-41-3-50-6c-23-9-20-56 6-89 15-20 23-46 26-87 5-64 19-74 56-39 17 16 38 20 101 22 44 1 93-2 108-6 29-8 79 13 136 57 35 26 55 22 90-18 31-35 51-38 51-6 0 10 14 34 31 55 38 46 34 83-9 93-15 3-44 12-65 20-20 8-54 14-75 14s-43 5-50 12-56 13-129 16c-105 3-122 1-155-17zm865 9c-25-10-43-39-43-69 0-28-53-85-92-102-30-12-118-90-118-104 0-3-22-33-49-68-26-34-54-74-62-88-8-15-22-41-32-59-15-26-17-44-12-91l7-58 36 2c37 2 37 1 46-45 14-71 47-61 62 17 10 54 49 115 74 115 14 0 20-7 20-23 0-35 8-38 43-16 18 10 43 19 55 19 13 0 35 9 49 20s35 20 47 20c11 1 35 13 53 28l31 27-2 130c-2 124-1 131 22 154l23 23-25 39c-14 21-26 49-26 61-1 51-59 88-107 68z" />
    <path
      d="M3207 2700c4-26 0-51-11-74-10-22-16-61-16-110 0-64 3-77 19-86 19-10 52-103 66-183 4-28 13-40 31-47 13-5 24-14 24-20 0-5 7-10 15-10 10 0 15 10 15 29 0 34 19 93 34 103 16 11 15 140-2 160-11 13-11 20 0 37 10 16 10 23 0 33-6 6-12 21-12 33s-7 30-15 41c-8 10-15 28-15 39 0 25-18 45-40 45-8 0-32 11-52 25s-39 25-42 25c-2 0-2-18 1-40zm-510-109c-20-26-37-52-37-56 0-5-6-16-14-24-19-21-103-189-111-221-5-23-2-26 42-39 26-8 53-17 58-21 6-4 38-16 73-25 34-10 65-22 68-26 10-16 66-9 91 11 14 11 35 20 47 20 11 0 35 9 51 20 17 11 38 20 47 20 21 0 36 66 19 83-6 6-11 25-11 42 0 19-8 39-19 49-19 17-20 17-35-6-8-12-22-50-30-82-19-71-22-75-70-86-57-13-117 9-141 53-18 32-18 40-6 89 11 42 25 65 69 110 31 32 54 59 51 61-2 1-25 19-51 40-25 20-48 37-50 37s-21-22-41-49z" />
    <path
      d="M3114 2595c-15-10-23-29-27-65-3-28-15-66-27-84-24-39-26-88-5-106 19-16 19-44 0-74-22-34-11-66 41-117l44-43v-73c0-74 0-74 35-94 19-12 35-26 35-33 0-20 47-58 67-54 15 3 18 15 21 78 2 41-2 84-7 95-6 11-19 67-30 125-40 214-48 241-76 270-26 27-26 30-19 109 6 75 5 81-12 81-11 0-29-7-40-15zm661-73-50-37h-127c-126 0-127 0-157-29-32-30-42-78-20-92 6-3 20-25 31-48 31-65 62-122 74-137 6-8 26-41 44-74 48-89 55-94 80-62 18 22 29 27 68 27 33 0 52-6 68-21l22-21 36 64c20 34 41 70 46 78s27 49 50 90l42 75-16 48c-9 27-29 65-46 85-16 20-30 42-30 48 0 15-33 44-51 44-8 0-36-17-64-38zm739 20c-19-15-21-28-22-135-1-170 17-209 93-197 25 4 51 14 58 23 6 8 21 17 32 19 18 3 20 10 16 73-2 38-7 79-11 91-11 28-119 144-134 144-6 0-20-8-32-18zm-1708-50c-26-26-49-58-52-72s-9-33-15-42c-16-31-10-56 22-82 40-34 71-41 109-25 23 11 32 23 36 49 4 19 10 40 14 45 4 6 14 29 21 53 11 40 11 44-12 68-13 14-36 32-51 40-25 13-28 12-72-34zm582-220c-27-60-25-127 6-207 25-62 68-125 86-125 4 0 24 11 44 25s43 25 51 25c31 0 24 26-36 128-34 59-72 126-83 149-26 53-46 54-68 5z" />
    <path
      d="M2513 2227c-18-40-45-189-36-198 5-5 57-2 120 6 78 10 120 12 138 5 39-15 221-28 291-21 62 7 94 22 94 46 0 17-51 95-62 95-5 0-14 14-20 31-9 27-14 30-42 26-41-7-99-29-121-47-26-21-102-17-157 8-26 12-52 22-58 22s-37 11-70 25-61 25-63 25-9-10-14-23zm1940-2c-13-15-32-25-48-25-14 0-42-12-60-26-19-14-39-23-45-19-15 9-90-43-91-64-4-57 18-153 49-213 18-35 21-197 7-325-4-40-3-63 3-63 18 0 90-76 105-111 8-19 29-47 46-63l31-30 23 22c13 12 35 22 50 22 14 0 29 4 32 10 6 10 118 7 206-5l47-7 12 39c7 21 16 43 20 48 5 6 11 26 14 45 6 31 2 40-29 73-19 21-35 41-35 45 0 3-14 20-30 37-17 18-31 43-32 56-4 66 3 86 43 127l41 41-21 27c-19 24-21 38-18 128 1 78-2 109-15 136-9 19-20 46-23 60-15 52-38 62-71 31-11-10-38-21-59-25-22-4-47-14-56-22-14-13-19-9-40 31-13 25-26 45-29 45s-15-12-27-25zm-1170-82c3-16 13-59 21-98 8-38 15-97 16-130 0-57 2-62 45-108 31-33 45-57 45-76 0-29 45-81 70-81 18 0 70 50 70 67 0 8-7 16-15 20-25 9-75 114-75 157 0 11-10 30-21 42-12 13-37 60-55 106-31 76-70 128-96 128-6 0-8-11-5-27zm611-8c-3-14-10-25-15-25s-9-6-9-13-11-29-25-49-25-44-25-53c0-26 29-29 54-6 23 22 51 27 60 12 20-32 104-6 87 27-5 9-12 25-15 35-4 14-14 17-43 15l-38-3-3 43c-3 47-18 56-28 17z" />
    <path
      d="M4139 2133c-6-16-13-43-16-61-7-41-56-92-89-92s-40-22-19-62c10-19 19-68 22-116 5-75 4-86-16-113-13-17-21-32-19-33 1-1 21-13 43-27 65-40 84-49 103-49 10 0 28-13 40-30 28-37 42-38 42-4 0 14 10 46 21 72 18 38 21 59 17 119-3 40-9 78-15 85-5 7-16 36-23 63-7 28-19 61-27 73-8 13-17 49-19 80-11 126-23 152-45 95zm-485-119c-17-31-26-37-58-39-25-1-42-9-52-23-8-12-21-22-28-22-49 0-36-112 19-167 18-18 43-33 54-33 12 0 50-9 84-21 47-16 66-18 79-10 10 6 40 11 67 11 40 0 53 4 65 22 20 28 20 77 1 104-32 46-75 133-75 152 0 26-60 62-103 62-26 0-36-7-53-36zm-1129-1c-65-5-75-19-75-110v-73h373c204 0 378 4 385 8 13 9 6 42-9 42-5 0-9 7-9 16s-13 21-29 27c-30 11-41 31-41 76 0 18-4 22-17 15-44-19-182-22-293-6-72 11-179 12-285 5z" />
    <path
      d="M3882 1967c-20-9-23-16-18-45 3-19 14-44 25-56 30-33 36-104 12-143-12-20-29-33-41-33-27 0-25-9 14-53 41-46 55-42 101 28 32 48 35 58 35 127 0 81-20 155-47 176-20 15-50 15-81-1zm948-147c0-13-7-20-18-20-32 0-72-62-72-109 0-21 11-40 35-64 19-19 35-38 35-44 0-5 13-22 29-37 24-23 29-25 35-11 3 9 6 27 6 39s5 27 10 32c6 6 13 61 17 122l6 112h-41c-35 0-42-3-42-20zm-1895-11c-33-4-156-7-274-8l-214-1 5-80c5-89 17-112 44-89 30 25 253 38 489 28 75-3 96-1 118 14 19 12 33 15 45 9 36-19 103-23 135-8 18 8 49 22 70 30 46 18 48 42 7 81l-29 28-168 1c-92 1-195-2-228-5zm584-165c-35-30-91-79-124-107-118-103-145-130-145-145 0-8-7-23-15-32s-17-47-21-88c-6-62-4-75 11-92 10-11 24-20 31-20s25-16 40-36c16-20 48-52 73-71 39-29 52-34 96-32 27 1 62-1 76-5 31-9 32-8 49 136 11 85 10 103-4 138-18 46-23 225-6 235 6 3 10 30 10 59 0 30 6 60 15 72 8 10 15 25 15 32 0 27-41 9-101-44zm248 49c-5-9-11-240-8-312 1-24-4-50-10-57-20-24 9-187 43-242 18-29 20-45 16-115-3-45-2-89 2-97 42-89 58-119 79-142 27-31 49-36 57-13 4 8 14 15 23 15 26 0 41 21 41 55 0 17 5 36 10 41 10 10-26 91-56 125-22 24-17 37 25 78 21 20 41 47 45 59 6 16 15 22 38 22 27 0 30 3 23 23-4 12-10 47-14 77-9 61-40 138-65 159-9 7-16 19-16 26s-9 24-20 38-20 34-20 44c0 11-12 30-26 44-24 21-69 82-114 155-14 23-44 32-53 17z" />
    <path
      d="M3355 1682c-6-5-23-14-40-20-59-21-172-64-280-107-60-24-118-46-127-49-23-7-23-21 2-44 11-10 26-48 35-84 14-61 14-71-1-110-8-24-20-52-26-62-29-54-29-78 2-113 17-18 30-41 30-49 0-16 17-58 48-123 31-63 37-71 55-77 9-3 30-19 46-36 28-30 29-30 80-19 79 17 111 14 147-14 43-33 84-34 84-1 0 29-66 130-114 174-20 18-36 41-36 52 0 10-5 22-11 25-23 15-57 113-63 180-5 60-2 81 21 145 15 41 31 77 36 79 8 3 51 41 171 153l51 47-29 30c-29 30-62 39-81 23zm268-33c-18-33-20-44-11-59 10-15 7-27-12-64-21-41-22-53-16-128 4-50 13-93 23-108 12-18 16-43 15-85-2-46 0-57 9-48 8 8 28 10 56 6l44-6-3 79c-1 43 2 151 6 240l9 160-29 27c-41 38-65 35-91-14zm-938-9c-38-11-92-19-118-19-83-1-98-22-81-110 8-36 17-38 44-11 23 23 48 25 117 9 41-10 54-9 81 5 18 9 32 21 32 26 0 16 58 11 85-6 25-16 95-13 95 4 0 4 21 14 48 21 26 7 56 19 67 25 11 7 40 18 65 26s51 20 58 27c19 18-29 28-69 14-18-6-44-11-58-11-15 0-33-6-39-12-10-10-17-10-31-1-10 7-47 14-82 18-35 3-82 8-104 10s-71-5-110-15zm1266-35-33-33 20-30c12-16 28-35 37-42 8-7 15-21 15-31 0-28 42-87 66-93 11-3 42-18 68-33 82-48 110-62 129-63 29 0 95-60 117-106 12-23 28-48 37-55 19-16 119-17 134-2 16 16-40 112-78 135-49 31-94 78-105 111-14 41-27 57-55 68-13 5-23 15-23 23s-13 19-29 24c-16 6-47 26-68 45-21 20-52 39-68 43-17 4-51 22-76 40-26 19-48 34-50 34s-19-16-38-35z" />
    <path
      d="M2732 1494c-33-26-33-26-82-10-61 20-84 20-100 1-7-8-21-15-31-15-12 0-19-7-19-20 0-11 4-20 9-20s12-17 16-37c8-48 104-243 119-243 6 0 24 12 39 26 33 28 32 68-1 76-11 3-22 18-25 34-5 24 0 35 33 66 32 31 44 37 68 32 18-4 41 0 60 10 17 9 42 16 56 16 34 0 40 14 16 35-11 10-20 26-20 36 0 44-88 52-138 13z" />
    <path
      d="M2853 1381c-23-4-49-13-57-21-14-11-21-11-40 0-21 11-27 9-55-20-17-18-31-35-31-38 0-2 14-20 30-39 17-18 30-42 30-53 0-10 15-29 33-41 17-12 39-31 48-42 19-23 46-17 55 10 3 10 14 35 24 55 11 20 20 44 20 53s7 27 16 40c11 17 14 34 9 52-7 29-23 54-34 52-3-1-25-5-48-8zm1214-37c-3-3 1-17 9-32s14-34 14-44c0-16 53-68 70-68 4 0 10-9 13-21 3-11 15-23 26-26 12-3 21-14 21-24 0-20 75-69 106-69 11 0 29-7 40-15 52-39 71-2 29 56-14 19-31 48-39 64-15 31-76 85-96 85-6 0-42 17-78 39-94 54-109 61-115 55zm518-14c-3-5-23-10-45-10-56 0-70-48-25-90 13-12 30-39 36-59 11-34 74-111 91-111 13 0 73 92 125 190l23 44-22 10c-29 11-52 16-110 20-26 2-51 7-57 10-5 4-12 2-16-4zm-485-144c0-7 12-34 28-60 58-99 82-142 94-168 16-35 48-45 48-15 0 12-7 31-15 41-8 11-15 28-15 38 0 33-65 138-85 138-7 0-15 9-18 20-6 22-37 28-37 6z" />
    <path
      d="M2690 1157c-34-17-36-39-5-75 14-16 25-35 25-40 0-13 173-189 215-220 55-40 130-88 146-94 9-4 20 2 28 14 12 19 7 27-53 84-36 34-66 70-66 78 0 9-4 16-8 16-5 0-14 24-21 53-6 28-24 69-38 90-24 34-30 38-58 33-27-5-39 0-77 34-51 44-53 45-88 27zm530-31c0-13 8-34 19-47 10-13 22-35 26-49s34-52 65-85c60-62 87-110 92-159 2-16 10-33 18-37 74-40 184-62 256-52 33 4 54 0 90-16 40-19 51-21 75-10 16 6 29 14 29 18s-14 23-30 43c-17 20-37 56-45 79-22 62-31 70-76 63-38-6-124 10-143 27-6 5-18 9-28 9-20 0-25 34-7 45 21 13-32 49-70 48-56-2-122 16-148 40-50 45-65 63-74 85-12 31-49 30-49-2z" />
    <path
      d="M3623 1127c-14-16-26-46-32-88-17-101-15-119 12-119 12 0 39-9 59-20 51-27 99-18 122 24 19 35 16 74-9 146-21 58-31 66-85 74-39 5-48 3-67-17zm400-86-52-58 34-54c27-42 35-65 35-101v-48h45c39 0 52 6 90 41 58 53 58 78 4 172-75 129-82 131-156 48zm470 52c-42-4-43-5-43-41 1-38 5-43 72-86 26-17 26-17 67 25l41 43-32 33c-18 18-39 32-47 31-9-1-35-3-58-5zm-227-71c3-20 10-41 15-46 5-6 9-22 9-36 0-18 16-41 50-75 48-47 50-48 77-34 15 8 47 34 70 58l43 45-27 23c-16 12-33 22-39 23-6 0-17 7-24 15s-22 15-34 15c-11 0-34 8-51 18-16 10-45 22-63 25l-33 7 7-38z" />
    <path
      d="M4240 880c0-31-58-98-91-105-16-4-31-11-34-16-4-5-24-9-46-9-27 0-45-6-56-20-10-11-22-20-27-20s-24-11-41-24c-18-14-45-28-61-32-45-11-55-22-41-45 27-43 158-12 353 82 93 46 174 95 174 106-1 19-77 90-102 97-24 5-28 3-28-14zM3158 764c-15-8-33-24-39-35-12-24-3-34 39-45 12-3 22-10 22-14s21-13 48-20c26-7 52-17 59-22 16-12 180-48 273-59 41-5 117-7 168-3 86 5 92 7 92 27 0 31-11 45-55 67-26 13-59 20-100 20-76 0-165 15-207 33-18 9-55 18-82 21-29 4-59 14-71 26-26 24-106 27-147 4z" />
  </g>
</svg>