<svg xmlns="http://www.w3.org/2000/svg" id="root" viewBox="460 990 25223 16370">
  <path
    d="M460 17351c0-6 19-11 41-13l41-3 39-108c47-132 79-190 170-304 69-87 100-142 134-236 22-61 54-78 159-84 763-40 2861-140 3441-164 352-15 910-16 950-3 42 14 72 64 81 132 8 63-2 768-11 783-8 12-5045 12-5045 0z"
  />
  <path
    d="M5877 16958c-3-228-10-431-17-467-6-38-28-97-53-144l-42-81 1-306c2-448 38-898 93-1160 31-148 41-312 41-652 0-336-9-527-40-843-19-190-66-545-75-573-3-8-60 58-133 155-173 227-182 241-237 373a2568 2568 0 0 0-206 700c-17 102-42 228-56 280-54 206-63 250-83 409-11 91-27 190-36 218-16 57-38 75-105 86-68 10-136 46-153 81-24 51-37 186-26 273 8 65 15 82 40 108 17 17 30 38 30 48 0 36-77 49-129 22-46-23-69-84-116-305-15-69-41-161-57-205-28-77-30-89-40-345-8-194-8-411 0-810 13-590 17-636 73-805 33-99 225-496 438-905 162-310 202-407 240-573 15-67 36-140 46-162 36-79 317-327 395-350 14-4 70-38 125-75a806 806 0 0 1 219-120c8 0 28-11 43-24l28-24v-209c0-114-3-296-8-404l-7-195 137-13c183-17 343-44 390-67 35-18 38-23 41-66 2-25-4-72-12-105-25-95-39-274-34-431 5-178 17-211 118-314 90-91 128-108 255-108 243 0 427 45 538 132 39 31 114 132 135 181 60 140 66 596 11 742-33 87-30 96 75 198 124 122 134 150 206 577 25 146 35 189 51 202 18 15 126 53 347 122 135 42 242 112 471 309 140 120 300 237 446 327l240 151c174 111 228 129 320 109 28-6 154-62 280-124 415-206 598-274 766-286 114-9 158-23 216-68 57-45 72-46 127-12 73 47 92 47 185 5 45-20 97-39 116-42 30-5 35-3 40 20 13 50-44 182-126 292-20 28-69 82-109 120-93 91-137 152-156 215-11 38-31 68-81 120-88 94-126 120-353 245-106 59-221 125-253 147-71 48-214 104-422 163-295 85-384 91-593 40-136-33-499-154-583-194-76-36-221-70-312-74l-62-2-32 205c-32 207-43 358-63 835-6 138-17 288-25 335l-25 154c-12 72-9 102 25 225 21 76 59 316 95 596 37 290 75 517 95 574 27 77 66 312 84 509 11 125 1 171-54 244-25 34-52 84-61 115-23 79-15 182 18 253 36 75 67 306 83 635 8 160 8 160 52 178 35 15-86 16-1378 16l-1416 1-6-402z"
  />
  <path
    d="M8977 17353c-8-13-31-563-24-570 4-3 244-17 534-30l1818-83c1769-82 2783-125 2789-119 3 3 1 142-5 310-11 322-7 440 17 477l14 22h-2569c-1413 0-2572-3-2574-7z"
  />
  <path
    d="M14187 17328c16-30 18-73 21-452l3-419-52-46a1644 1644 0 0 0-237-187c-48-22-91-56-237-183l-128-112c-5-3-30-499-56-1101l-47-1095-104-129c-159-198-189-254-136-254 31 0 129 73 189 141 77 87 113 154 141 266 14 56 30 113 36 127 23 62 41 296 70 921 11 237 29 588 41 780 19 306 24 352 40 370 10 11 158 139 328 285l311 265-7 398-6 398 22 29 22 30h-232l18-32zm305 15c8-10 19-27 23-38s11-189 14-395l6-374 65-12c146-28 752-66 2210-139 498-25 1058-54 1245-65s467-25 623-32c249-10 284-10 298 3 20 21 36 397 32 779l-3 285-2264 3c-2157 2-2263 1-2249-15zm5231 8c-248-4-455-9-459-13s-2-13 4-20c59-72 96-1147 96-2838 1-1245-3-1351-49-1453-14-31-37-109-51-174-32-152-53-200-97-218-43-18-84-9-173 39-187 99-216 111-279 111-71-1-155-39-263-120-83-62-115-115-114-190 1-88 34-140 214-333 111-119 242-288 277-357 12-24 26-67 30-94 4-28 18-66 31-84 34-49 106-95 169-107 71-13 122-53 214-167 39-48 112-129 161-178 87-86 134-120 326-238 94-58 123-93 140-170 14-65 25-236 16-270-3-14-22-44-41-67-40-48-59-105-82-245-22-134-25-741-4-823 26-105 161-215 326-268 106-35 278-44 378-20 239 56 395 264 397 531 1 101 14 156 42 177l35 28c38 31 70 257 82 566 9 268 9 268 155 404 279 261 324 330 347 526 16 131 6 473-16 584-21 111-32 149-122 430-145 457-184 667-184 992 1 368 43 776 141 1368 58 354 64 410 64 605 1 198-10 266-66 417-70 192-116 527-173 1248l-31 378-6 52-492-2c-270-1-694-4-943-7zm1791-38c3-21 13-103 21-183 21-192 35-271 49-276 26-9 996-68 1706-104 588-29 1275-67 1749-95 357-22 641-31 641-22 0 10-50 179-95 322-64 204-98 333-91 350 2 7 22 17 43 22 40 10-1823 23-3250 23h-779l6-37zm46-588c0-40 41-452 51-515 10-66 19-80 54-80l160-10c197-13 670-36 1370-65 1007-42 1777-82 2045-107 74-7 190-13 256-13 105 0 125 3 142 19 33 29 46 115 45 301 0 198-11 245-59 256-36 10-538 41-1174 74-1547 81-2543 136-2852 158-32 2-38 0-38-18z"
  />
  <path
    d="M8913 16630c-45-14-53-36-54-139-1-99 19-162 69-214 44-47 103-57 387-67 316-11 373-14 935-45 780-43 2096-107 2815-135 424-18 400-25 739 244 114 90 135 111 120 117-34 14-404 39-719 49-415 14-656 27-800 45-517 62-3375 181-3492 145zM930 15333v-1120l273-6c149-4 299-11 332-17 167-28 356-42 855-60 338-13 1430-40 1598-40h122v180H2013l-139 66c-226 107-377 219-469 349-75 105-80 137-79 520 1 357 10 475 50 612 35 121 75 185 193 306l106 108 965-4c995-5 1061-7 1225-47 123-31 194-70 294-166 118-112 180-202 190-277 4-31 11-60 14-64 10-9 54 13 160 80 151 96 257 123 358 93 30-8 71-28 91-43 52-41 117-132 124-175 4-21 10-38 15-38 14 0 140 116 196 181 93 106 98 122 98 289 0 194 0 195-127 204-232 16-1674 89-2473 126-793 36-1175 50-1527 57l-348 6v-1120zm13493 1030c-88-48-403-313-403-339 0-22 157-46 430-64 391-26 3521-164 4265-189 143-4 263-5 267-2 11 9 22 280 14 324-4 20-15 41-24 46-32 17-522 48-1202 76-1318 54-1909 88-2210 125-224 28-434 40-780 46l-305 6-52-29z"
  />
  <path
    d="M1955 16154a769 769 0 0 1-392-202c-41-45-81-143-98-236-29-167-16-748 20-885 17-68 71-148 151-229 137-137 299-171 904-192 416-14 1215-15 1310-1 107 16 166 40 205 82 38 43 50 87 65 255 14 150 41 251 84 322 49 79 64 129 75 241 16 175-12 362-70 471-119 222-230 271-709 310-475 39-906 62-1195 65-176 2-333 1-350-1zm7115-93c-25-4-50-10-56-13-20-13-46-125-35-147 10-18 57-44 224-120 147-68 285-180 385-316 104-141 137-250 136-455-1-173-19-255-89-397-108-219-329-419-510-462-28-7-132-15-232-20-156-6-185-10-203-26-24-21-26-62-6-109 13-32 19-35 68-40 104-12 849-33 2118-61 1050-23 1798-47 2070-66 300-21 335-22 347-8 18 22 31 150 83 824l70 894c11 139 20 273 20 297v43l-42 5c-75 10-591 35-1698 81l-1505 65c-850 39-1050 45-1145 31zm1827-201c65-29 139-104 175-179 29-58 32-76 32-151 0-104-25-160-103-233-145-135-306-128-442 21-78 86-104 148-104 252 0 70 4 93 23 130a333 333 0 0 0 419 160zm1655-181c81-16 225-91 306-159a845 845 0 0 0 312-736c-25-205-83-343-196-463a954 954 0 0 0-489-282c-86-17-242-12-330 11-221 56-385 188-514 415-83 144-106 263-99 500 5 174 20 211 136 340 184 206 370 325 577 370 75 17 227 19 297 4zm-1712-950c134-59 213-232 180-395-28-138-104-211-238-233-69-11-177 1-222 24-43 22-89 84-107 145-18 59-24 262-10 312 4 15 22 44 39 64a312 312 0 0 0 358 83z"
  />
  <path
    d="M10690 15723c-61-32-110-126-110-209 1-55 32-120 69-138 34-18 179-22 245-6 69 16 80 36 84 154 7 178-16 207-168 213-68 3-92 1-120-14zm1287-282c-229-238-277-336-277-571 0-191 27-359 65-412 13-18 35-53 49-78 13-25 37-57 53-73 28-25 198-108 308-148 182-67 576 63 727 240 37 44 132 228 154 301 60 196-70 579-252 739-88 77-185 97-519 108l-200 6-108-112zm-1310-832c-102-40-112-60-102-198 10-132 21-163 65-178 120-41 255 9 301 112 44 96 9 184-107 263-50 34-73 34-157 1zm10996 1394c-33-7-46-28-39-67 10-53 81-187 125-238 63-71 128-83 611-113 644-39 1532-69 1880-62 296 5 346 13 466 72 39 19 139 57 222 84 153 50 292 108 292 122 0 13-30 18-200 33-323 29-752 54-1465 86-566 25-1382 67-1570 80-139 10-280 11-322 3zm-7828-144c-2-3-13-212-25-465-24-534-41-762-76-1004-23-156-25-198-21-378 2-111 7-205 10-208 10-10 886-40 2262-79 1396-39 1821-48 2325-49 583-1 602 0 633 48 67 102 94 435 104 1292l6 561-69 21c-38 11-82 23-99 26-108 20-912 59-1810 86-772 24-1355 52-1535 75-156 19-336 32-640 46-389 17-1061 35-1065 28zm1175-169c946-38 1188-70 1426-185 121-59 184-125 216-228 21-66 23-91 23-297-1-237-13-381-46-544-44-217-88-304-229-449l-105-109-550-10c-930-17-1192 1-1376 92-50 25-92 60-191 162l-128 130v72c0 137 20 582 31 701 19 201 52 301 145 431a515 515 0 0 0 354 233c106 12 154 12 430 1zm3173-254c95-33 170-87 292-210 173-175 216-256 237-452 22-190-15-377-104-529-24-41-75-103-123-151-69-67-101-90-186-132a958 958 0 0 0-501-98c-187 12-260 40-356 134-148 145-229 356-239 628-10 257 32 382 176 525 155 154 357 261 571 303 47 9 185-2 233-18z"
  />
  <path
    d="M14630 15540c-148-9-192-19-257-63-81-54-134-164-168-352-24-129-41-548-28-700 12-156 24-184 116-273 116-110 138-115 797-152 195-11 434-28 530-37s225-16 285-16c108 0 112 0 210 43l141 60c80 34 162 130 225 264 53 114 61 185 63 551 1 398 1 402-88 491-137 136-275 162-991 184-353 11-644 11-835 0zm3270-245a681 681 0 0 1-448-287 847 847 0 0 1-128-450c10-145 95-346 181-433 81-80 315-185 415-185 95 0 325 103 426 192 73 64 117 121 154 201 50 108 63 169 67 342 7 250-26 366-134 473a606 606 0 0 1-533 147zm-12574 343c-34-37-72-89-89-126-26-56-29-71-25-140 3-68 10-90 55-188 61-130 96-256 118-426 19-148 38-223 63-258 18-24 79-52 95-43 14 9 6 146-27 464l-46 444c-24 269-38 335-72 335-7 0-39-28-72-62zm3629 38c-13-13-28-41-34-62-37-131-164-1017-178-1240l-6-101 38-13c92-31 318 14 469 93 191 99 289 235 366 511 36 128 29 197-35 378-71 197-142 284-301 366-181 92-274 112-319 68zm12850-193c-34-8-38-20-21-71l17-50 107-27c128-32 228-82 293-147 74-74 79-100 79-425 0-376-24-565-93-733a517 517 0 0 0-424-351c-120-24-163-37-185-57-23-19-15-29 30-41 164-44 789-68 2362-93l165-3 12 65c7 36 37 241 68 455 114 797 127 884 160 1082 19 111 35 216 35 232 0 28-1 29-62 35-105 9-239 16-543 26-345 12-506 24-675 50-140 21-322 35-640 50-217 10-648 12-685 3zm1313-182c105-54 149-173 123-327-31-181-130-284-273-284-74 0-168 47-214 107-47 62-77 147-72 208a398 398 0 0 0 247 312c46 17 139 9 189-16zm797-36c61-10 112-44 144-94 42-67 54-115 49-190-6-86-43-159-118-232-139-135-254-131-388 16-60 66-77 114-67 194 18 142 95 266 183 295 78 25 102 26 197 11zm-938-1011c51-30 169-173 182-221 12-42 1-86-40-163-110-206-322-262-471-122-63 59-89 110-96 188-8 110 42 210 138 276 108 74 209 88 287 42zm832-33c55-29 117-93 132-138 15-47 6-191-17-257-40-115-146-174-291-163-81 6-137 29-165 67-50 68-66 250-30 332 35 81 113 154 192 179 41 14 133 3 179-20z"
  />
  <path
    d="M22927 15176c-49-18-62-29-83-74-20-43-23-170-4-227 14-43 52-65 115-65 124 0 205 92 205 234 0 64-3 79-23 101-35 42-138 56-210 31zm807-38c-31-15-43-49-50-141-7-104 10-172 49-201 37-27 131-29 171-3 61 40 87 128 66 219-25 106-62 138-157 137-32 0-68-5-79-11zm-971-1024c-25-12-37-29-53-70-33-90-35-127-10-179 30-61 71-88 128-82 95 10 172 96 179 201 5 73-9 104-57 128-44 23-143 23-187 2zm862 6c-29-12-62-50-80-92-19-47-20-140-1-176 34-65 108-107 169-95 14 3 40 18 59 33 38 31 98 135 98 169 0 48-61 122-127 155-34 17-85 20-118 6zm-1839 1068c-9-15-22-99-36-228-25-245-45-376-71-450-10-30-23-88-29-128-13-93-33-572-25-581 4-3 47-8 96-10 81-3 95 0 144 23 196 96 296 404 297 916 1 210-13 330-43 379-33 54-154 101-261 101-49 0-60-3-72-22zm-16332-881c-3-8 3-36 12-63 18-53 94-198 100-191 10 10-17 181-35 222-16 37-25 45-46 45-14 0-28-6-31-13zm-4401-266c-23-4-48-13-57-20-36-30-29-131 12-180 14-17 35-22 127-30 232-21 973-44 1980-61 325-5 681-12 793-16l202-6v74c0 48-5 81-15 94-28 41-168 65-495 84-198 11-1026 45-1470 60-326 11-1011 11-1077 1zm7764-251c-132-10-169-48-133-134 11-26 26-41 53-53 42-17 20-17 1383-53l1335-36c745-21 1583-24 1642-6 27 8 52 25 71 50 40 51 65 103 55 113-17 17-204 28-598 34-420 6-615 10-1995 45-1008 25-1532 39-1640 43-47 2-125 1-173-3zm-7287-104c11-10 349-46 525-56 625-35 1636-39 1515-7-71 19-325 28-1010 37-415 5-780 11-810 14-102 10-224 17-220 12zm12222-36c-73-14-124-42-154-87-30-42-44-88-31-96 31-19 573-41 1508-62 374-8 910-22 1190-30 1906-56 2343-57 2450-5 43 21 85 72 85 103 0 21-34 25-315 36-416 17-545 21-1170 36-1226 30-1947 54-2555 86-452 23-933 32-1008 19zm5177-247c-44-42-79-80-79-84 0-14 123 30 148 53 28 26 56 84 47 98-14 22-41 6-116-67zm2704-12c-55-9-73-26-73-68 0-74 56-95 312-113 366-26 1643-40 1808-19 47 5 104 19 127 29 59 26 171 104 153 107l-280 18c-704 41-1912 68-2047 46zm-20158-505c-188-92-269-148-331-228-38-49-163-258-213-356-19-38-20-73-35-1553-30-2851-39-4745-33-6971l5-2208 68-92c148-204 225-271 434-378 138-70 193-84 389-99 169-14 685-14 891-1 413 26 1421 84 2095 120 862 46 1508 84 1810 105 367 25 1209 69 2880 150 2685 130 3564 176 3830 200 363 34 768 57 2530 150 2461 129 3255 173 3695 205l1100 75c1857 124 1991 142 2177 297 136 113 272 346 303 518 48 269 51 2297 10 6045-23 2106-43 2828-85 3077-18 105-28 129-64 149a72 72 0 0 0-34 49c-15 72-146 205-267 269-68 36-142 55-310 76-159 21-559 32-586 17-43-25 81-52 326-72 249-21 440-74 601-170 115-68 151-119 254-355l48-110 19-2450c10-1347 19-3303 21-4345 2-2002 1-2068-43-2195-36-104-161-271-278-369-68-57-108-80-168-95-28-8-44-19-52-35-21-47-105-73-317-100-247-31-562-49-1220-71-625-20-907-33-1120-50-428-35-1031-71-2870-170-1660-89-2221-125-2530-160-249-28-640-52-1325-80-612-25-1064-54-1190-75-143-25-1048-70-2310-115-757-27-1455-63-1655-85-196-21-641-47-1270-75-700-30-1198-63-1380-89-472-69-3213-174-3602-137-225 21-356 63-450 145-48 42-145 183-192 277-75 153-80 270-88 1969-10 2329 43 7553 87 8535 8 179 13 224 35 300 38 130 68 178 185 296 123 124 185 159 331 189 160 33 362 40 1334 45 921 6 1278 15 1332 36 25 9 25 11 10 27-14 13-48 18-180 24-185 8-1680 28-2132 28l-300-1-170-83z"
  />
  <path
    d="M10787 12783c-24-6-17-24 21-49 85-58 316-67 3247-134l2015-46c770-17 1838-24 1883-11 31 9 36 32 9 46-55 29-461 44-1792 66-1628 27-2304 43-3525 85l-1160 40c-303 10-665 12-698 3zm1703-470c-133-7-610-54-701-69-53-8-116-26-144-40-27-14-74-30-104-35-65-10-91-30-71-53 17-22 43-20 241 14 295 51 503 79 513 70 12-12 25-92 25-165 1-83 25-171 61-223 16-23 32-52 35-65 3-12-8-60-26-107a735 735 0 0 1-63-330c-1-74 3-194 8-266l8-131-98-6c-70-4-137-16-229-43-271-77-297-83-391-83-86-1-94-3-180-46-152-75-235-76-379-5-165 82-308 211-424 383-73 106-114 151-135 144-34-12 33-166 113-260l46-56 28-168c15-92 30-195 33-228 12-115-28-185-106-185-70 0-196-54-269-116-48-40-61-75-76-202a891 891 0 0 0-102-333c-37-72-67-109-86-109-16 0-79 51-523 425-441 371-494 421-494 463 0 89 320 410 756 758 170 136 254 215 254 239 0 87-475-303-988-809-256-253-318-325-359-416-35-76-135-242-238-390-98-142-199-349-362-740-317-762-429-1673-323-2625 34-300 57-417 141-720 101-364 145-476 336-855 158-315 284-531 425-727 323-450 657-784 1133-1133 219-160 333-234 501-323 78-41 154-84 170-95 16-12 87-44 157-72 71-28 150-61 176-74 69-36 236-92 404-137 82-21 179-52 216-68 167-73 509-104 1146-104 655 0 1021 33 1180 108 28 13 124 44 215 69s237 74 325 109c410 165 881 415 990 526 21 23 49 41 60 41 71 0 484 362 843 739 277 290 373 406 410 492 11 24 61 106 111 183 112 169 182 289 268 460 156 312 271 600 333 837 22 83 51 178 66 212 14 34 34 90 44 124 100 340 129 1453 55 2105-21 180-41 269-85 373-21 49-57 160-80 245-67 250-151 463-301 761a4626 4626 0 0 1-980 1344 4747 4747 0 0 1-1253 905c-355 171-514 233-736 285l-200 47c-47 11-110 31-140 43-70 29-197 49-475 74-405 38-522 43-705 34zm554-84c43-6 113-19 155-29 88-22 339-68 554-100l147-23v-226c1-240 10-356 34-399 34-63 39-82 39-172 0-117-18-190-77-307-25-49-55-125-67-168-29-107-43-132-78-140-62-13-224 21-313 66-58 29-255 74-548 124-290 50-415 77-459 100-53 27-55 45-56 475-1 217-5 411-9 430-5 19-21 50-37 67-33 38-44 85-36 159 8 78 33 115 87 131 103 30 469 37 664 12zm1234-288c467-179 526-208 880-443l312-208v-418l-132-4c-124-3-136-5-180-30a416 416 0 0 1-163-248c-13-82-95-239-163-313-15-15-43-32-63-37-28-8-40-18-47-40-9-24-18-31-52-36-103-17-289-189-550-509-171-209-233-275-260-275-29 0-62 49-112 166-116 270-106 350 72 625 51 78 102 164 114 191 23 55 24 50-40 198-46 106-41 162 30 307 31 65 64 143 72 173 24 85 30 369 11 500-29 194-31 250-12 379 10 67 20 121 22 121s119-44 261-99zm1387-802c130-82 762-754 817-869 12-25 75-124 139-220 235-353 439-765 559-1129 142-429 250-1018 250-1362 0-142-10-183-49-204-37-19-153-45-199-45-64 0-120 53-179 169l-38 74-6 326c-7 372-5 358-109 666-71 208-113 369-135 510-45 289-65 361-141 502-98 181-259 361-535 599-225 193-242 214-254 319-9 74-31 127-77 182-20 23-39 58-42 77-4 19-24 56-46 82-50 61-74 145-69 246 6 115 30 131 114 77zm-2975-329c165-15 228-28 283-56 33-17 78-28 135-35 222-25 264-33 387-74 71-24 162-53 202-64 121-36 164-91 143-186-14-62-30-91-102-188-70-95-118-189-118-233 0-42-29-67-65-58-16 4-77 54-141 115-170 163-192 164-398 24-152-103-262-160-352-181-60-14-78-14-144-2-106 18-582 18-668-1-62-14-107-39-190-106-67-54-114-45-142 29-6 16-17 88-26 160-22 193-37 244-105 352-55 87-79 153-79 219s15 102 51 121c15 7 83 19 151 24 137 12 229 36 328 85 80 40 128 56 200 66 69 10 497 2 650-11zm2800-29c57-29 116-85 141-134 11-21 27-73 35-115 18-94 47-158 130-288 35-56 64-105 64-109 0-5-29-39-65-76-106-110-100-69-100-640v-496l-68-59a747 747 0 0 0-227-144l-84-21c-27-7-83-35-125-62-81-53-162-87-209-87-42 0-128-32-227-84-48-25-93-46-99-46-26 0-43 36-49 105-5 55-11 74-28 88-100 81-280-154-349-457-34-151-78-226-130-226-49 0-79 54-111 203-24 109-41 145-76 153-14 4-74 4-134 1l-107-6-6 37c-34 232-39 402-13 469a3636 3636 0 0 0 453 720c68 88 133 181 145 205 48 95 299 315 466 408 177 99 344 285 358 399 16 132 69 221 157 266 47 24 62 26 133 22 57-2 93-10 125-26zm-4609-72c124-79 175-104 235-114 88-14 135-69 149-175 7-53 17-78 84-204 17-32 31-73 31-90 0-50 20-108 51-150 16-22 29-47 29-57 0-9-13-41-30-72-16-31-30-65-30-75 0-11 13-46 30-78 36-72 50-168 50-341 0-155-14-245-45-281a743 743 0 0 1-126-361c-14-131-16-140-42-152-32-15-64 1-85 41-12 24-35 43-84 68-45 22-75 46-88 67-11 19-34 95-50 170-78 365-164 590-255 673-62 56-69 97-62 368 5 234 13 285 66 424 39 101 45 159 31 289-6 61-9 115-5 121 10 15 20 10 146-71zm-1931-343c26-19 115-88 198-154l151-120-28-38c-15-22-77-91-136-154-239-256-283-330-330-565-20-99-14-144 31-233 88-177 311-280 524-242 190 33 233 67 280 220l65 215c43 140 93 250 129 284l26 25 43-30c61-42 94-115 106-232 8-73 16-103 38-140 23-40 28-58 28-117-1-80-25-162-58-192-12-12-38-24-57-28s-96-39-170-77c-99-51-152-72-199-79-67-10-112-30-195-85-65-42-153-67-237-68-56-1-72 3-105 26-51 35-109 57-310 118-91 28-205 68-252 89-48 22-145 57-217 80-71 22-140 48-152 56-52 37-21 137 153 490 123 251 214 415 259 471 19 23 45 67 59 98s51 94 83 139c66 93 212 277 220 277 3 0 27-15 53-34zm1630-101c13-16 13-28-6-455-8-168-5-177 79-270 105-116 146-253 267-885 75-388 118-584 144-650 35-91 47-339 26-543-11-104-28-147-63-156-79-20-249 108-272 206-8 33-63 84-153 142-37 24-75 52-84 62-30 34-38 104-38 345v236l-106 104c-196 191-266 296-267 399 0 45 7 69 41 135 68 133 68 203 2 280-22 25-44 62-50 83-25 92-3 213 61 329 53 98 94 226 113 354 19 135 37 180 93 229 70 61 183 91 213 55zm2733-216c61-40 98-86 119-147 10-27 54-98 98-158 101-138 157-245 213-410l45-131-177-319c-98-176-232-411-298-524l-162-282c-23-43-45-78-48-78s-34 26-68 59c-78 73-128 91-261 98-153 8-199-8-291-104-60-63-75-74-95-68-38 11-80 66-168 222-82 146-168 291-278 468-30 50-109 195-174 324-113 225-153 292-189 318-27 20-42 69-37 127 7 79 50 160 129 238 105 104 86 101 645 107l470 6 130 97c71 53 163 117 204 142 91 57 127 59 193 15zm2743 3c50-37 253-244 339-346 110-131 134-173 150-262 29-167 44-478 26-527-7-17-26-30-70-46-34-12-83-41-113-67-72-61-179-96-303-98-75-1-97 3-131 21-94 51-136 167-154 437-18 260-6 687 21 766 14 43 50 82 108 121 55 36 78 36 127 1zm-6617-96c87-45 198-137 252-210 22-30 29-50 29-86 0-63-42-204-91-308-21-46-50-133-65-192-31-128-56-165-142-207-50-24-69-28-147-28-85 0-94 2-160 37-39 21-100 65-136 97-112 101-134 192-76 308 14 26 36 85 50 130s42 107 62 138c45 68 183 224 251 284 78 69 100 73 173 37zm2203-901c18-20 68-102 112-183 43-81 155-281 248-445 228-400 279-512 250-555-5-7-38-20-74-31-44-12-109-44-194-98-71-44-139-83-152-87-44-14-96 33-194 179-186 277-285 633-249 889 20 139 98 326 150 356 33 19 69 11 103-25zm-3357-273c148-61 253-99 313-113 25-5 109-36 186-69 180-74 268-94 416-95 149 0 170 5 265 65 127 80 341 156 473 167 89 7 100 0 139-101 23-58 41-83 99-141 99-97 225-299 224-360-2-82-121-142-344-171-249-33-948 12-1146 74-80 25-276 20-540-13-123-15-275-27-355-28l-140-2 2 100c4 208 111 669 174 749l20 25 47-18 167-69zm7550-51c71-127 104-179 121-185 9-3 43 11 78 32s92 46 127 56c176 50 227 68 265 93l90 61c108 73 181 18 238-181 9-32 37-106 62-165 74-171 77-198 78-592 2-401 2-401 95-520l58-75-113-117c-188-196-214-249-214-446 0-116 1-121 35-188 19-39 67-106 110-154 42-47 89-107 105-135 15-27 72-99 125-160 54-60 104-124 111-142 31-73 5-233-58-353-19-36-52-120-73-188-34-104-42-122-60-122-11 0-83 9-160 19-210 29-376 41-584 41-182 0-189-1-236-25-27-15-76-29-115-34-91-12-143-37-225-110l-69-61-84 82a1086 1086 0 0 0-216 278c-26 47-66 110-89 140a1569 1569 0 0 1-334 319c-17 20-16 103 3 281 21 199 30 800 15 967a774 774 0 0 1-75 316c-94 220-152 458-163 664-6 122-6 123 22 163 33 47 147 137 225 175 37 19 70 28 100 27 53-1 113 24 180 73 69 51 170 95 238 105 83 11 128 38 217 126l78 78 22-28c13-16 44-68 70-115zm-4716-200c48-25 99-82 166-184 65-102 81-133 167-332 81-186 140-299 202-381 61-83 74-113 86-195 27-188 169-492 266-565 59-45 84-75 84-99 0-52-149-211-237-253-52-25-102-4-182 76a407 407 0 0 0-130 229c-16 102-46 150-200 323-133 150-141 169-152 359-16 277-33 401-105 734-41 196-53 285-37 300 11 12 32 8 72-12zm3385-33c20-33 42-143 60-303 37-326 53-407 95-481 28-47 76-180 105-286 14-53 40-129 57-170 53-124 59-148 74-252 22-161 28-323 16-410-7-50-29-122-61-201-57-141-90-260-90-321 0-47-21-77-48-67-24 8-77 59-120 116a286 286 0 0 1-183 116c-36 6-95 29-149 57-140 74-385 229-388 246-2 8 22 53 54 98 85 124 88 140 81 359-10 276-38 446-98 583-16 37-32 87-35 112-6 40-4 48 23 74 22 22 42 31 84 37 86 11 135 38 218 122 93 94 120 147 161 320 30 127 66 221 97 255 21 24 30 23 47-4zm-977-19c13-28 33-176 33-251v-48l124 7c170 8 171 8 224-118 23-55 42-104 42-110 0-31-34-70-82-93-109-52-195-47-263 15-32 30-50 39-76 39-43 0-111-31-156-70-101-89-202-92-219-5-7 41 37 143 106 245 49 72 90 157 90 187 0 13 12 28 34 41 29 17 38 32 55 86 27 87 39 108 59 104 9-2 22-15 29-29zm-717-414c85-22 190-79 241-130 38-37 50-57 63-110 30-120 127-321 255-525 71-114 91-172 91-265 0-114-55-230-125-264-18-9-96-20-198-27a880 880 0 0 1-244-39c-69-23-80-25-136-14-34 6-129 32-212 58-82 27-181 54-220 60-115 20-140 29-205 73a695 695 0 0 0-278 558c6 106 30 144 104 166 43 12 63 26 101 69 69 76 106 95 225 111 121 17 151 33 198 109 60 96 111 156 143 170 42 19 128 18 197 0zm-3666-144c266-36 408-44 703-38 281 6 351 13 479 54 44 14 57 14 63 4 5-7 11-53 14-102 4-64 13-104 30-143 26-57 52-79 138-120 69-32 96-61 106-111 7-31 15-43 40-54 37-16 53-47 53-101 0-67-4-68-356-80-170-5-835-10-1477-10H7768l4 258c6 294 14 339 73 391 76 67 220 81 775 76 309-3 401-7 524-24zm4558-157c76-53 147-225 177-430 18-123 24-352 12-454-14-113-41-177-136-319-108-163-168-221-228-221-38 0-106 52-184 142-123 141-130 172-41 184 136 18 243 222 223 424-10 95-44 184-108 277-64 94-97 187-97 272 1 66 10 80 70 111 77 40 121 50 198 46 61-3 80-8 114-32zm3741-511c2-5 0-73-4-153-25-478-52-710-89-774-15-24-25-65-32-124-11-107-24-156-43-172-12-10-22-8-56 15a722 722 0 0 0-179 203c-16 32-72 104-126 162-115 124-144 178-144 267 0 184 161 422 288 423 33 0 62 35 62 73 0 49 20 70 76 78 69 9 242 10 247 2zm-6117-196c102-103 140-166 129-217-11-52-72-90-282-179l-198-84-111-5c-126-5-230 12-333 53-76 31-98 28-196-25-113-62-146-65-635-50-560 17-1057 4-1402-35-189-22-275-42-346-81-41-23-69-33-82-29-51 16-80 145-99 445-6 91-11 184-11 206v41l738 6c665 6 898 13 1277 36 66 4 421 9 789 9l669 2 93-93zm1030-376c15-29 5-62-43-142-39-66-63-165-63-269-1-112-16-199-47-266l-28-59v-275c1-313 14-432 66-595 28-89 32-113 32-215-1-113-47-524-79-701-9-48-24-101-35-119-22-36-6-35-189-11-41 6-140 10-220 11-173 1-209 11-325 90-74 51-225 195-390 371-52 56-80 78-110 87-55 16-118 72-146 128-21 44-22 55-16 188 4 77 13 182 21 232 17 101 51 220 66 229 14 9 60 101 60 120 0 71 148 215 811 787 334 288 422 359 494 396 94 47 123 50 141 13zm711 4c54-27 53-26 178-220 106-165 232-331 321-427 92-99 122-144 134-208 11-58 35-108 93-193 43-63 60-99 71-150 4-15 32-55 64-90 96-107 189-321 232-541 30-151 71-376 77-418 6-43 4-43-106-52-71-5-107-25-131-72-44-85-79-133-169-227-188-197-195-219-106-336 88-116 151-232 196-360 23-66 24-97 3-147-9-21-20-80-25-131-14-147-55-204-158-219-46-7-74-29-114-88-24-35-61-34-118 3-93 60-165 164-297 430l-107 215v346c0 262-3 352-13 375a1991 1991 0 0 0-239 850c-6 138-5 141 23 205l28 65 7 535c5 294 12 605 18 690 9 140 12 157 32 173 28 23 46 22 106-8zm-1542-53c45-22 225-185 225-203 0-11-665-625-787-727l-102-85-46-105c-75-170-143-387-156-495-35-281 89-782 234-945 31-34 48-64 52-89 12-73 40-116 153-237 227-241 420-536 438-669 5-37 2-48-19-73-22-25-32-29-79-28-60 0-142 33-219 89-159 114-252 125-564 64-231-45-214-49-361 92-56 53-115 99-151 118-33 16-72 44-86 61-32 38-177 324-246 486-28 66-58 151-67 190-21 92-42 138-95 203-83 102-99 126-114 178-23 75-9 136 73 311 38 81 86 195 106 253 45 132 47 203 10 367-45 200-97 323-171 406-78 87-69 117 51 162l491 192c231 90 586 227 789 303s391 153 417 170c84 54 133 56 224 11zm1138-16c29-20 82-65 119-99l67-62-19-335c-30-536-43-983-36-1277l6-272-28 4c-195 32-303 34-351 4-18-11-36-17-40-14-3 4-9 100-12 213-6 214-11 244-57 322-41 71-74 239-93 485-17 226-5 295 84 472 54 105 61 147 35 203-29 66-26 108 15 195 45 94 91 159 131 186 47 31 113 21 179-25zm-2044-96c43-23 16-67-64-108-22-11-101-41-175-67s-178-67-230-92-160-67-240-93c-167-54-185-62-221-100-58-62-236-65-369-5a459 459 0 0 1-227 55c-79 0-103-6-103-25 0-22-80-86-148-118-94-44-141-45-322-7-168 35-282 42-343 21-21-7-66-37-99-67-71-64-102-75-128-48-29 29-51 127-57 254-5 103-3 120 15 155 43 86 85 102 317 120 200 16 281 29 465 74 69 16 181 38 249 47 123 18 124 18 405-9 310-30 439-53 515-92 62-31 72-31 109 0 41 35 75 45 177 56 50 5 140 23 200 39a459 459 0 0 0 274 10zm3335-142c131-93 286-178 381-210 64-22 149-77 245-159 97-82 172-132 264-174 69-31 116-72 116-100 0-25 41-63 97-89 77-37 134-93 168-169 74-165 98-208 152-272 59-70 181-177 309-270 81-59 155-148 221-265 87-153 105-235 60-264-40-27-202-40-326-28-173 18-195 32-288 192-97 167-143 228-242 323-110 104-176 144-268 163-84 18-154 51-375 177a2830 2830 0 0 1-382 197c-100 32-265 258-266 363 0 46-25 88-93 160-61 64-170 206-182 238-4 10 39 58 129 147 74 73 137 132 141 132s67-42 139-92zm-4651-404c61-21 104-64 112-112 11-63 27-93 82-155 32-36 53-69 53-83 0-30-35-54-80-54-63 0-167-28-252-67-82-37-84-38-213-38-106-1-136-4-164-19-48-26-226-201-245-241-24-49-21-133 7-186 18-35 36-51 86-78 49-26 66-41 78-69 23-55 4-127-50-188-53-61-153-134-181-134-16 0-35 20-75 80a4743 4743 0 0 0-381 810c-48 167-53 179-81 204-56 51-36 156 31 156 29 0 130 47 130 60 0 5 17 19 37 31 65 41 147 30 433-57 102-30 129-26 217 40 70 52 110 74 183 97 72 23 210 25 273 3zm295-530c63-76 97-222 72-300-7-21-25-59-40-84-29-47-38-72-65-178-8-35-42-119-74-187-33-68-68-147-78-176-26-75-70-119-119-119-45 0-66 14-149 94-33 32-95 85-138 118-83 63-137 127-137 162 0 41-52 131-129 225-125 154-120 136-58 212 30 35 82 90 116 122 73 67 102 72 181 32 59-30 99-32 131-6 63 48 133 73 294 101 150 27 159 26 193-16zm4645-170c39-20 170-92 290-161 205-117 268-148 377-187 110-39 279-202 361-350 28-50 79-134 114-186 110-168 136-242 100-296-15-23-22-26-61-21-28 3-66 19-107 46-68 44-125 66-198 76-131 17-377 184-394 267-9 42-39 74-90 97-52 24-79 55-102 116-16 44-25 53-70 75-115 55-236 189-253 280-5 29-28 95-50 146-22 52-40 103-40 114 0 31 40 25 123-16zm2042-24c23-5 113-16 201-25 183-18 243-28 334-57 59-19 140-54 140-61 0-8-163-310-227-420-143-248-302-477-340-491-22-9-63 18-124 81a1214 1214 0 0 0-253 371c-30 76-86 162-146 227-88 92-113 188-67 255 35 53 75 70 186 81 108 10 140 19 178 49 19 15 30 17 50 9 14-5 45-14 68-19zm-1929-533c14-13 36-43 48-67 16-34 33-51 70-71 56-29 113-95 187-216 73-120 126-239 139-313 12-65 21-88 79-192 41-74 51-144 24-177-45-55-119 5-199 162-31 62-118 218-192 347-207 358-239 417-252 466-11 39-11 47 5 64 24 26 58 25 91-3zm-5466-122c16-9 86-63 156-120 171-143 179-147 316-143l110 3 59-64c40-43 74-95 108-165 48-100 60-133 121-333 22-74 39-111 60-133 17-17 30-41 30-53 0-37 97-154 268-322 183-180 226-235 218-278-8-41-41-82-77-98-30-12-37-10-98 21-36 19-172 105-301 191-268 179-358 257-690 595-260 264-353 371-390 448-16 33-51 88-78 121-66 80-92 131-92 180 0 53 28 86 110 130 72 38 123 44 170 20zm2047-71c13-8 39-47 59-87 29-59 60-96 168-203 90-90 148-140 186-159 125-63 298-105 434-105 144 0 259-37 329-105 43-42 46-63 12-95-33-31-42-83-22-126 16-33 22-36 97-49 19-3 52-17 72-30 93-62 300-107 478-104l170 2c96 1 127-35 205-234 53-133 103-220 206-356 108-141 106-137 67-166-104-76-202-85-323-31-196 87-273 102-450 87-203-18-474 19-706 97-145 48-273 111-296 146-9 15-27 77-40 138-40 196-133 351-353 591-145 158-234 278-270 364-16 41-54 110-84 155-33 48-61 105-71 141-16 55-16 64-1 98 23 57 75 69 133 31zm1731-9c193-31 235-75 322-334 57-171 76-293 62-388-20-123-79-215-166-258-106-52-208-42-371 34-93 44-175 71-216 71-93 0-107 70-68 334 41 284 86 421 161 493 70 67 112 74 276 48zm1630-209c47-33 106-115 211-291 161-269 220-418 206-514-11-75-42-120-155-232a666 666 0 0 0-176-140c-67-33-72-34-215-38l-146-3-6 148c-9 213-26 262-184 511-46 74-83 138-81 143 6 16 290 330 338 373 91 82 140 92 208 43zm1808-5c33-22 97-78 144-125l84-86-44-47c-199-212-255-263-295-263-11 0-70 32-130 71-213 139-235 168-235 315 0 137 1 137 220 159 194 20 190 20 256-24zm-1131-131c91-18 139-36 272-102 86-42 144-63 195-72 84-15 121-32 163-75 16-17 46-36 66-41 41-11 162-89 228-147l43-39-143-145c-148-150-231-219-314-264-56-29-91-32-125-8-46 31-164 143-233 221-94 105-117 147-128 234-5 44-20 95-40 135-18 38-41 112-55 181-29 141-29 145-6 138l77-16zm-7-663c115-68 323-274 338-335 8-30-2-40-104-110a6321 6321 0 0 0-1326-631c-264-84-471-107-568-64-52 24-88 71-88 115 0 39 48 73 148 103 110 34 161 60 297 150 61 41 123 77 138 81 16 3 54 30 85 59 83 76 108 86 243 96 129 10 147 15 204 53 21 15 62 33 90 41 68 20 136 64 205 133 99 100 170 222 170 293 0 67 70 74 168 16zm-3948-443c30-9 80-34 111-56 67-47 166-82 275-98 112-16 237-48 323-82 175-70 431-114 750-128 280-13 360-30 500-106 117-64 170-133 171-222 0-84-19-94-205-112-326-31-676-22-985 26-371 58-860 171-914 212-19 15-117 51-225 82-115 34-166 58-197 92-12 13-59 35-109 52-96 31-135 60-135 102 0 92 144 213 290 243l75 15c40 10 221-4 275-20z"
  />
</svg>
