<svg xmlns="http://www.w3.org/2000/svg" id="root" viewBox="0 0 100 65">
  <g>
    <path
      d="M 0 64.964844 C 0 64.941406 0.0742188 64.921875 0.164062 64.914062 L 0.324219 64.902344 L 0.480469 64.472656 C 0.667969 63.949219 0.792969 63.71875 1.152344 63.265625 C 1.425781 62.917969 1.550781 62.699219 1.683594 62.328125 C 1.773438 62.085938 1.898438 62.019531 2.316406 61.996094 C 5.339844 61.835938 13.65625 61.4375 15.957031 61.34375 C 17.351562 61.285156 19.566406 61.28125 19.722656 61.332031 C 19.890625 61.386719 20.007812 61.585938 20.046875 61.855469 C 20.078125 62.105469 20.039062 64.90625 20 64.964844 C 19.96875 65.011719 0 65.011719 0 64.964844 Z M 0 64.964844 "
    />
    <path
      d="M 21.476562 63.402344 C 21.464844 62.5 21.4375 61.691406 21.410156 61.550781 C 21.386719 61.398438 21.296875 61.164062 21.199219 60.976562 L 21.03125 60.65625 L 21.035156 59.441406 C 21.042969 57.664062 21.1875 55.875 21.40625 54.835938 C 21.527344 54.246094 21.566406 53.597656 21.566406 52.246094 C 21.566406 50.910156 21.53125 50.152344 21.410156 48.898438 C 21.332031 48.144531 21.148438 46.734375 21.113281 46.625 C 21.101562 46.59375 20.875 46.855469 20.585938 47.238281 C 19.898438 48.140625 19.863281 48.195312 19.644531 48.71875 C 19.242188 49.601562 18.96875 50.539062 18.828125 51.5 C 18.761719 51.90625 18.660156 52.40625 18.605469 52.613281 C 18.390625 53.429688 18.355469 53.605469 18.277344 54.234375 C 18.234375 54.597656 18.171875 54.988281 18.132812 55.101562 C 18.070312 55.328125 17.984375 55.398438 17.71875 55.441406 C 17.449219 55.480469 17.179688 55.625 17.113281 55.765625 C 17.015625 55.964844 16.964844 56.503906 17.007812 56.847656 C 17.039062 57.105469 17.066406 57.171875 17.167969 57.277344 C 17.234375 57.34375 17.285156 57.429688 17.285156 57.46875 C 17.285156 57.609375 16.980469 57.664062 16.773438 57.554688 C 16.59375 57.464844 16.5 57.222656 16.316406 56.34375 C 16.253906 56.070312 16.152344 55.703125 16.089844 55.53125 C 15.976562 55.222656 15.96875 55.175781 15.929688 54.160156 C 15.898438 53.390625 15.898438 52.527344 15.929688 50.945312 C 15.980469 48.601562 15.996094 48.417969 16.21875 47.746094 C 16.351562 47.355469 17.113281 45.777344 17.957031 44.152344 C 18.597656 42.921875 18.757812 42.539062 18.90625 41.878906 C 18.96875 41.613281 19.050781 41.324219 19.089844 41.234375 C 19.234375 40.921875 20.347656 39.9375 20.65625 39.847656 C 20.710938 39.828125 20.933594 39.695312 21.152344 39.546875 C 21.414062 39.34375 21.707031 39.183594 22.019531 39.070312 C 22.050781 39.070312 22.128906 39.027344 22.191406 38.976562 L 22.300781 38.882812 L 22.300781 38.050781 C 22.300781 37.597656 22.289062 36.875 22.269531 36.445312 L 22.242188 35.671875 L 22.785156 35.621094 C 23.511719 35.554688 24.144531 35.445312 24.332031 35.355469 C 24.46875 35.285156 24.480469 35.261719 24.492188 35.09375 C 24.5 34.992188 24.476562 34.808594 24.445312 34.675781 C 24.347656 34.296875 24.292969 33.589844 24.3125 32.964844 C 24.332031 32.257812 24.378906 32.125 24.777344 31.71875 C 25.136719 31.355469 25.285156 31.289062 25.789062 31.289062 C 26.753906 31.289062 27.484375 31.46875 27.921875 31.8125 C 28.078125 31.9375 28.375 32.335938 28.457031 32.53125 C 28.695312 33.085938 28.71875 34.898438 28.5 35.476562 C 28.371094 35.824219 28.382812 35.859375 28.800781 36.265625 C 29.289062 36.75 29.332031 36.859375 29.617188 38.554688 C 29.714844 39.136719 29.753906 39.304688 29.816406 39.355469 C 29.890625 39.417969 30.316406 39.566406 31.195312 39.839844 C 31.730469 40.007812 32.152344 40.285156 33.0625 41.070312 C 33.617188 41.546875 34.25 42.011719 34.828125 42.367188 L 35.78125 42.964844 C 36.46875 43.40625 36.683594 43.480469 37.050781 43.398438 C 37.160156 43.375 37.660156 43.152344 38.160156 42.90625 C 39.804688 42.089844 40.53125 41.820312 41.195312 41.773438 C 41.648438 41.734375 41.824219 41.679688 42.054688 41.5 C 42.277344 41.324219 42.339844 41.320312 42.554688 41.453125 C 42.847656 41.640625 42.921875 41.640625 43.289062 41.472656 C 43.46875 41.394531 43.675781 41.320312 43.75 41.308594 C 43.867188 41.289062 43.886719 41.296875 43.910156 41.386719 C 43.960938 41.585938 43.734375 42.109375 43.410156 42.546875 C 43.328125 42.65625 43.136719 42.871094 42.976562 43.023438 C 42.609375 43.382812 42.433594 43.625 42.359375 43.875 C 42.316406 44.027344 42.234375 44.144531 42.035156 44.351562 C 41.6875 44.726562 41.539062 44.828125 40.636719 45.324219 C 40.21875 45.558594 39.761719 45.820312 39.632812 45.910156 C 39.351562 46.097656 38.785156 46.320312 37.960938 46.554688 C 36.792969 46.894531 36.4375 46.917969 35.609375 46.714844 C 35.070312 46.585938 33.632812 46.105469 33.300781 45.945312 C 32.996094 45.800781 32.421875 45.667969 32.0625 45.652344 L 31.816406 45.644531 L 31.6875 46.457031 C 31.5625 47.277344 31.519531 47.878906 31.441406 49.773438 C 31.414062 50.320312 31.371094 50.914062 31.339844 51.101562 L 31.242188 51.714844 C 31.195312 52 31.207031 52.117188 31.339844 52.609375 C 31.421875 52.910156 31.574219 53.863281 31.71875 54.972656 C 31.863281 56.125 32.015625 57.027344 32.09375 57.253906 C 32.199219 57.558594 32.355469 58.492188 32.425781 59.273438 C 32.46875 59.769531 32.429688 59.953125 32.210938 60.242188 C 32.113281 60.378906 32.007812 60.578125 31.972656 60.699219 C 31.878906 61.011719 31.910156 61.421875 32.042969 61.703125 C 32.183594 62.003906 32.308594 62.917969 32.371094 64.226562 C 32.402344 64.859375 32.402344 64.859375 32.578125 64.933594 C 32.714844 64.992188 32.238281 64.996094 27.113281 64.996094 L 21.5 65 Z M 21.476562 63.402344 "
    />
    <path
      d="M 33.765625 64.972656 C 33.734375 64.921875 33.644531 62.738281 33.671875 62.707031 C 33.6875 62.695312 34.640625 62.640625 35.789062 62.589844 L 42.996094 62.261719 C 50.011719 61.933594 54.03125 61.765625 54.054688 61.789062 C 54.066406 61.800781 54.058594 62.351562 54.035156 63.019531 C 53.992188 64.296875 54.007812 64.765625 54.101562 64.914062 L 54.15625 65 L 43.972656 65 C 38.371094 65 33.773438 64.988281 33.765625 64.972656 Z M 33.765625 64.972656 "
    />
    <path
      d="M 54.421875 64.871094 C 54.484375 64.753906 54.492188 64.582031 54.503906 63.078125 L 54.519531 61.414062 L 54.3125 61.230469 C 54.023438 60.957031 53.707031 60.707031 53.371094 60.488281 C 53.179688 60.402344 53.011719 60.265625 52.433594 59.761719 L 51.925781 59.316406 C 51.90625 59.304688 51.804688 57.335938 51.703125 54.945312 L 51.515625 50.597656 L 51.105469 50.085938 C 50.472656 49.300781 50.355469 49.078125 50.566406 49.078125 C 50.6875 49.078125 51.078125 49.367188 51.3125 49.636719 C 51.621094 49.984375 51.761719 50.25 51.875 50.695312 C 51.929688 50.914062 51.992188 51.140625 52.015625 51.199219 C 52.105469 51.445312 52.179688 52.375 52.292969 54.855469 C 52.335938 55.796875 52.410156 57.191406 52.457031 57.953125 C 52.53125 59.167969 52.550781 59.351562 52.613281 59.421875 C 52.65625 59.464844 53.242188 59.972656 53.914062 60.554688 L 55.148438 61.605469 L 55.121094 63.183594 L 55.097656 64.765625 L 55.269531 65 L 54.351562 65 Z M 55.632812 64.933594 C 55.664062 64.894531 55.707031 64.824219 55.722656 64.78125 C 55.738281 64.738281 55.765625 64.03125 55.777344 63.214844 L 55.800781 61.726562 L 56.058594 61.679688 C 56.640625 61.570312 59.042969 61.417969 64.820312 61.128906 C 66.796875 61.03125 69.015625 60.914062 69.757812 60.871094 C 70.5 60.828125 71.609375 60.769531 72.226562 60.742188 C 73.214844 60.703125 73.355469 60.703125 73.410156 60.753906 C 73.488281 60.839844 73.550781 62.332031 73.535156 63.847656 L 73.523438 64.980469 L 64.546875 64.992188 C 55.996094 65 55.578125 64.996094 55.632812 64.933594 Z M 76.371094 64.964844 C 75.386719 64.949219 74.566406 64.929688 74.550781 64.914062 C 74.535156 64.898438 74.542969 64.859375 74.566406 64.832031 C 74.800781 64.546875 74.949219 60.277344 74.949219 53.5625 C 74.953125 48.621094 74.9375 48.199219 74.753906 47.796875 C 74.699219 47.671875 74.605469 47.363281 74.550781 47.105469 C 74.425781 46.5 74.339844 46.308594 74.167969 46.238281 C 73.996094 46.167969 73.832031 46.203125 73.480469 46.394531 C 72.738281 46.785156 72.625 46.835938 72.375 46.835938 C 72.09375 46.832031 71.761719 46.679688 71.332031 46.359375 C 71.003906 46.113281 70.875 45.902344 70.878906 45.601562 C 70.882812 45.253906 71.015625 45.046875 71.726562 44.28125 C 72.167969 43.808594 72.6875 43.136719 72.828125 42.863281 C 72.875 42.769531 72.929688 42.597656 72.945312 42.488281 C 72.960938 42.378906 73.015625 42.226562 73.066406 42.15625 C 73.203125 41.960938 73.488281 41.78125 73.738281 41.730469 C 74.019531 41.679688 74.222656 41.519531 74.585938 41.070312 C 74.742188 40.878906 75.03125 40.554688 75.226562 40.363281 C 75.570312 40.019531 75.757812 39.886719 76.515625 39.417969 C 76.890625 39.1875 77.003906 39.046875 77.074219 38.742188 C 77.128906 38.484375 77.171875 37.804688 77.136719 37.667969 C 77.125 37.613281 77.046875 37.496094 76.972656 37.402344 C 76.816406 37.214844 76.738281 36.988281 76.648438 36.429688 C 76.5625 35.898438 76.550781 33.488281 76.632812 33.164062 C 76.734375 32.746094 77.269531 32.308594 77.925781 32.097656 C 78.34375 31.960938 79.027344 31.925781 79.421875 32.019531 C 80.371094 32.242188 80.988281 33.066406 80.996094 34.128906 C 81 34.527344 81.054688 34.746094 81.164062 34.832031 L 81.304688 34.941406 C 81.453125 35.066406 81.582031 35.960938 81.628906 37.1875 C 81.664062 38.253906 81.664062 38.253906 82.242188 38.792969 C 83.347656 39.828125 83.527344 40.105469 83.617188 40.882812 C 83.679688 41.402344 83.640625 42.761719 83.554688 43.199219 C 83.472656 43.640625 83.429688 43.792969 83.070312 44.910156 C 82.496094 46.722656 82.339844 47.558594 82.339844 48.847656 C 82.34375 50.308594 82.511719 51.929688 82.902344 54.277344 C 83.128906 55.683594 83.152344 55.90625 83.152344 56.679688 C 83.160156 57.46875 83.113281 57.738281 82.894531 58.335938 C 82.613281 59.097656 82.433594 60.429688 82.207031 63.292969 L 82.082031 64.792969 L 82.058594 65 L 80.109375 64.992188 C 79.039062 64.988281 77.359375 64.976562 76.371094 64.964844 Z M 83.472656 64.8125 C 83.484375 64.730469 83.523438 64.40625 83.554688 64.085938 C 83.636719 63.324219 83.695312 63.011719 83.75 62.992188 C 83.851562 62.957031 87.699219 62.722656 90.511719 62.578125 C 92.84375 62.460938 95.566406 62.3125 97.445312 62.199219 C 98.863281 62.113281 99.988281 62.078125 99.988281 62.113281 C 99.988281 62.152344 99.789062 62.824219 99.613281 63.390625 C 99.359375 64.203125 99.222656 64.714844 99.25 64.78125 C 99.257812 64.808594 99.339844 64.847656 99.421875 64.867188 C 99.578125 64.910156 92.195312 64.960938 86.535156 64.960938 L 83.449219 64.960938 Z M 83.652344 62.480469 C 83.652344 62.320312 83.816406 60.683594 83.855469 60.433594 C 83.894531 60.171875 83.929688 60.117188 84.070312 60.117188 L 84.703125 60.078125 C 85.484375 60.023438 87.359375 59.933594 90.136719 59.816406 C 94.128906 59.652344 97.179688 59.492188 98.242188 59.394531 C 98.535156 59.367188 98.996094 59.339844 99.257812 59.339844 C 99.675781 59.339844 99.753906 59.355469 99.820312 59.417969 C 99.953125 59.53125 100.003906 59.875 100 60.613281 C 100 61.398438 99.957031 61.585938 99.765625 61.628906 C 99.625 61.667969 97.632812 61.792969 95.113281 61.921875 C 88.976562 62.246094 85.03125 62.460938 83.804688 62.550781 C 83.675781 62.558594 83.652344 62.550781 83.652344 62.480469 Z M 83.652344 62.480469 "
    />
    <path
      d="M 33.511719 62.101562 C 33.335938 62.046875 33.304688 61.957031 33.300781 61.550781 C 33.296875 61.15625 33.375 60.90625 33.574219 60.699219 C 33.746094 60.511719 33.980469 60.472656 35.105469 60.433594 C 36.359375 60.390625 36.585938 60.378906 38.8125 60.253906 C 41.90625 60.085938 47.125 59.832031 49.972656 59.71875 C 51.65625 59.648438 51.558594 59.621094 52.902344 60.6875 C 53.355469 61.046875 53.4375 61.128906 53.378906 61.152344 C 53.246094 61.207031 51.777344 61.308594 50.527344 61.347656 C 48.882812 61.402344 47.929688 61.453125 47.359375 61.527344 C 45.308594 61.773438 33.976562 62.246094 33.511719 62.101562 Z M 1.863281 56.953125 L 1.863281 52.503906 L 2.945312 52.480469 C 3.535156 52.464844 4.132812 52.4375 4.261719 52.414062 C 4.925781 52.300781 5.671875 52.246094 7.652344 52.175781 C 8.992188 52.125 13.320312 52.015625 13.988281 52.015625 L 14.472656 52.015625 L 14.472656 52.730469 L 6.15625 52.730469 L 5.605469 52.992188 C 4.710938 53.417969 4.109375 53.863281 3.746094 54.378906 C 3.449219 54.796875 3.429688 54.921875 3.433594 56.441406 C 3.4375 57.859375 3.472656 58.328125 3.632812 58.875 C 3.769531 59.355469 3.929688 59.609375 4.398438 60.089844 L 4.816406 60.515625 L 8.644531 60.5 C 12.585938 60.480469 12.847656 60.472656 13.5 60.316406 C 13.988281 60.191406 14.269531 60.035156 14.664062 59.65625 C 15.132812 59.210938 15.378906 58.851562 15.417969 58.554688 C 15.433594 58.433594 15.460938 58.316406 15.472656 58.300781 C 15.511719 58.265625 15.6875 58.351562 16.109375 58.617188 C 16.707031 59 17.128906 59.109375 17.527344 58.988281 C 17.648438 58.957031 17.808594 58.878906 17.886719 58.816406 C 18.09375 58.65625 18.351562 58.292969 18.378906 58.121094 C 18.394531 58.039062 18.417969 57.972656 18.441406 57.972656 C 18.496094 57.972656 18.996094 58.433594 19.214844 58.691406 C 19.585938 59.113281 19.605469 59.175781 19.605469 59.839844 C 19.605469 60.609375 19.605469 60.613281 19.101562 60.648438 C 18.183594 60.710938 12.464844 61 9.296875 61.148438 C 6.152344 61.292969 4.636719 61.347656 3.242188 61.375 L 1.863281 61.398438 Z M 55.359375 61.042969 C 55.007812 60.851562 53.761719 59.796875 53.761719 59.695312 C 53.761719 59.609375 54.382812 59.511719 55.464844 59.441406 C 57.015625 59.335938 69.425781 58.789062 72.375 58.691406 C 72.941406 58.675781 73.417969 58.671875 73.433594 58.683594 C 73.476562 58.71875 73.519531 59.792969 73.488281 59.96875 C 73.472656 60.046875 73.429688 60.132812 73.394531 60.152344 C 73.265625 60.21875 71.324219 60.34375 68.628906 60.453125 C 63.402344 60.667969 61.058594 60.804688 59.867188 60.949219 C 58.976562 61.0625 58.144531 61.109375 56.773438 61.132812 L 55.5625 61.15625 Z M 55.359375 61.042969 "
    />
    <path
      d="M 5.925781 60.210938 C 5.34375 60.101562 4.800781 59.824219 4.371094 59.410156 C 4.210938 59.230469 4.050781 58.839844 3.984375 58.472656 C 3.871094 57.808594 3.921875 55.503906 4.0625 54.957031 C 4.132812 54.6875 4.34375 54.371094 4.664062 54.050781 C 5.207031 53.503906 5.847656 53.371094 8.246094 53.285156 C 9.894531 53.230469 13.0625 53.226562 13.441406 53.28125 C 13.863281 53.347656 14.097656 53.441406 14.253906 53.609375 C 14.402344 53.777344 14.449219 53.953125 14.511719 54.621094 C 14.566406 55.214844 14.671875 55.617188 14.84375 55.898438 C 15.039062 56.210938 15.097656 56.410156 15.140625 56.855469 C 15.203125 57.550781 15.09375 58.292969 14.863281 58.726562 C 14.390625 59.609375 13.953125 59.800781 12.050781 59.957031 C 10.167969 60.113281 8.460938 60.203125 7.316406 60.214844 C 6.617188 60.222656 5.996094 60.21875 5.925781 60.210938 Z M 34.136719 59.84375 C 34.035156 59.828125 33.9375 59.800781 33.914062 59.789062 C 33.835938 59.738281 33.730469 59.292969 33.773438 59.207031 C 33.8125 59.136719 34 59.03125 34.664062 58.730469 C 35.246094 58.460938 35.792969 58.015625 36.1875 57.476562 C 36.601562 56.914062 36.730469 56.484375 36.726562 55.667969 C 36.722656 54.980469 36.652344 54.65625 36.375 54.09375 C 35.949219 53.222656 35.070312 52.429688 34.355469 52.257812 C 34.242188 52.230469 33.832031 52.199219 33.433594 52.179688 C 32.816406 52.15625 32.699219 52.140625 32.628906 52.074219 C 32.535156 51.992188 32.527344 51.828125 32.605469 51.644531 C 32.65625 51.515625 32.679688 51.503906 32.875 51.484375 C 33.285156 51.4375 36.242188 51.351562 41.273438 51.242188 C 45.433594 51.148438 48.398438 51.054688 49.480469 50.980469 C 50.667969 50.894531 50.808594 50.890625 50.855469 50.949219 C 50.925781 51.035156 50.976562 51.542969 51.183594 54.21875 L 51.460938 57.769531 C 51.503906 58.320312 51.539062 58.851562 51.539062 58.949219 L 51.539062 59.121094 L 51.375 59.140625 C 51.078125 59.179688 49.03125 59.277344 44.640625 59.460938 L 38.675781 59.71875 C 35.304688 59.875 34.511719 59.898438 34.136719 59.84375 Z M 41.378906 59.042969 C 41.636719 58.929688 41.929688 58.632812 42.074219 58.332031 C 42.1875 58.101562 42.199219 58.03125 42.199219 57.734375 C 42.199219 57.320312 42.101562 57.097656 41.792969 56.808594 C 41.214844 56.273438 40.578125 56.300781 40.039062 56.890625 C 39.730469 57.234375 39.625 57.480469 39.625 57.890625 C 39.625 58.171875 39.640625 58.261719 39.71875 58.410156 C 40.023438 59.019531 40.746094 59.292969 41.378906 59.042969 Z M 47.941406 58.324219 C 48.261719 58.261719 48.832031 57.964844 49.152344 57.695312 C 50.027344 56.988281 50.492188 55.890625 50.390625 54.773438 C 50.292969 53.957031 50.0625 53.410156 49.613281 52.933594 C 49.09375 52.371094 48.417969 51.980469 47.675781 51.8125 C 47.332031 51.746094 46.714844 51.765625 46.367188 51.855469 C 45.488281 52.078125 44.839844 52.605469 44.328125 53.503906 C 44 54.078125 43.910156 54.550781 43.9375 55.488281 C 43.957031 56.179688 44.015625 56.328125 44.476562 56.839844 C 45.203125 57.660156 45.941406 58.128906 46.761719 58.308594 C 47.058594 58.375 47.664062 58.386719 47.941406 58.324219 Z M 41.152344 54.554688 C 41.683594 54.320312 41.996094 53.632812 41.867188 52.984375 C 41.753906 52.4375 41.453125 52.148438 40.921875 52.058594 C 40.648438 52.015625 40.222656 52.0625 40.042969 52.15625 C 39.871094 52.242188 39.691406 52.488281 39.617188 52.730469 C 39.546875 52.964844 39.523438 53.769531 39.578125 53.96875 C 39.59375 54.027344 39.667969 54.144531 39.734375 54.222656 C 40.085938 54.628906 40.660156 54.761719 41.152344 54.554688 Z M 41.152344 54.554688 "
    />
    <path
      d="M 40.558594 58.5 C 40.316406 58.371094 40.121094 58 40.121094 57.671875 C 40.125 57.453125 40.25 57.195312 40.394531 57.121094 C 40.53125 57.050781 41.105469 57.035156 41.367188 57.097656 C 41.640625 57.160156 41.683594 57.242188 41.699219 57.710938 C 41.726562 58.417969 41.636719 58.53125 41.035156 58.554688 C 40.765625 58.566406 40.667969 58.558594 40.558594 58.5 Z M 45.660156 57.378906 C 44.753906 56.433594 44.5625 56.046875 44.5625 55.113281 C 44.5625 54.355469 44.667969 53.6875 44.820312 53.476562 C 44.871094 53.40625 44.957031 53.265625 45.015625 53.167969 C 45.066406 53.066406 45.160156 52.941406 45.222656 52.878906 C 45.335938 52.777344 46.007812 52.449219 46.445312 52.289062 C 47.167969 52.023438 48.730469 52.539062 49.328125 53.242188 C 49.476562 53.417969 49.851562 54.148438 49.9375 54.4375 C 50.175781 55.214844 49.660156 56.738281 48.941406 57.371094 C 48.589844 57.679688 48.207031 57.757812 46.882812 57.800781 L 46.089844 57.824219 Z M 40.46875 54.078125 C 40.0625 53.917969 40.023438 53.839844 40.0625 53.289062 C 40.101562 52.765625 40.144531 52.644531 40.320312 52.582031 C 40.796875 52.421875 41.332031 52.621094 41.515625 53.027344 C 41.6875 53.410156 41.550781 53.757812 41.089844 54.074219 C 40.890625 54.207031 40.800781 54.207031 40.46875 54.078125 Z M 84.0625 59.613281 C 83.929688 59.585938 83.878906 59.5 83.90625 59.347656 C 83.945312 59.136719 84.230469 58.601562 84.402344 58.402344 C 84.652344 58.117188 84.910156 58.070312 86.824219 57.953125 C 89.378906 57.796875 92.898438 57.679688 94.277344 57.707031 C 95.453125 57.726562 95.652344 57.757812 96.125 57.992188 C 96.28125 58.066406 96.675781 58.21875 97.007812 58.324219 C 97.613281 58.523438 98.164062 58.753906 98.164062 58.808594 C 98.164062 58.863281 98.046875 58.882812 97.371094 58.941406 C 96.089844 59.054688 94.390625 59.15625 91.5625 59.28125 C 89.320312 59.382812 86.085938 59.546875 85.339844 59.601562 C 84.789062 59.640625 84.230469 59.644531 84.0625 59.613281 Z M 53.027344 59.039062 C 53.019531 59.027344 52.976562 58.199219 52.929688 57.195312 C 52.832031 55.074219 52.765625 54.167969 52.625 53.207031 C 52.535156 52.585938 52.527344 52.421875 52.542969 51.707031 C 52.550781 51.265625 52.570312 50.890625 52.582031 50.878906 C 52.621094 50.839844 56.09375 50.722656 61.550781 50.566406 C 67.085938 50.410156 68.769531 50.375 70.769531 50.371094 C 73.082031 50.367188 73.15625 50.371094 73.277344 50.5625 C 73.542969 50.96875 73.652344 52.289062 73.691406 55.691406 L 73.714844 57.921875 L 73.441406 58.003906 C 73.289062 58.046875 73.117188 58.09375 73.046875 58.105469 C 72.621094 58.1875 69.433594 58.339844 65.871094 58.449219 C 62.8125 58.542969 60.5 58.65625 59.785156 58.746094 C 59.167969 58.820312 58.453125 58.875 57.25 58.929688 C 55.707031 58.996094 53.042969 59.066406 53.027344 59.039062 Z M 57.683594 58.367188 C 61.4375 58.21875 62.394531 58.089844 63.339844 57.632812 C 63.820312 57.398438 64.070312 57.136719 64.195312 56.730469 C 64.277344 56.46875 64.285156 56.367188 64.285156 55.550781 C 64.28125 54.609375 64.234375 54.035156 64.105469 53.390625 C 63.929688 52.527344 63.753906 52.183594 63.195312 51.605469 L 62.78125 51.175781 L 60.597656 51.132812 C 56.914062 51.066406 55.875 51.136719 55.144531 51.5 C 54.945312 51.597656 54.78125 51.738281 54.386719 52.144531 L 53.878906 52.660156 L 53.878906 52.945312 C 53.878906 53.488281 53.957031 55.257812 54.003906 55.726562 C 54.078125 56.527344 54.207031 56.921875 54.578125 57.441406 C 54.890625 57.9375 55.402344 58.273438 55.980469 58.363281 C 56.402344 58.414062 56.589844 58.414062 57.683594 58.367188 Z M 70.265625 57.359375 C 70.640625 57.230469 70.9375 57.015625 71.421875 56.527344 C 72.109375 55.832031 72.277344 55.511719 72.363281 54.730469 C 72.449219 53.976562 72.304688 53.234375 71.949219 52.632812 C 71.855469 52.46875 71.652344 52.222656 71.460938 52.03125 C 71.1875 51.765625 71.0625 51.675781 70.726562 51.507812 C 70.109375 51.199219 69.425781 51.066406 68.738281 51.117188 C 67.996094 51.167969 67.707031 51.277344 67.328125 51.652344 C 66.742188 52.226562 66.417969 53.0625 66.378906 54.144531 C 66.339844 55.164062 66.507812 55.660156 67.078125 56.230469 C 67.691406 56.839844 68.492188 57.265625 69.339844 57.433594 C 69.527344 57.46875 70.074219 57.425781 70.265625 57.359375 Z M 70.265625 57.359375 "
    />
    <path
      d="M 56.179688 57.773438 C 55.59375 57.738281 55.417969 57.699219 55.160156 57.523438 C 54.839844 57.308594 54.628906 56.871094 54.492188 56.125 C 54.398438 55.613281 54.332031 53.949219 54.382812 53.347656 C 54.429688 52.726562 54.476562 52.617188 54.84375 52.261719 C 55.300781 51.824219 55.390625 51.804688 58.003906 51.660156 C 58.777344 51.613281 59.722656 51.546875 60.105469 51.511719 C 60.484375 51.476562 60.996094 51.449219 61.234375 51.449219 C 61.660156 51.449219 61.679688 51.449219 62.066406 51.617188 L 62.625 51.855469 C 62.941406 51.992188 63.269531 52.375 63.515625 52.90625 C 63.726562 53.359375 63.757812 53.640625 63.765625 55.09375 C 63.769531 56.671875 63.769531 56.6875 63.417969 57.042969 C 62.875 57.582031 62.328125 57.6875 59.488281 57.773438 C 58.089844 57.816406 56.9375 57.816406 56.179688 57.773438 Z M 69.144531 56.800781 C 68.421875 56.675781 67.78125 56.265625 67.367188 55.660156 C 67.035156 55.125 66.859375 54.503906 66.859375 53.875 C 66.898438 53.296875 67.234375 52.5 67.578125 52.15625 C 67.898438 51.835938 68.824219 51.421875 69.222656 51.421875 C 69.597656 51.421875 70.511719 51.828125 70.910156 52.183594 C 71.199219 52.4375 71.375 52.664062 71.523438 52.980469 C 71.71875 53.410156 71.773438 53.652344 71.789062 54.339844 C 71.816406 55.332031 71.683594 55.792969 71.257812 56.21875 C 70.6875 56.742188 69.898438 56.957031 69.144531 56.800781 Z M 19.292969 58.164062 C 19.15625 58.015625 19.007812 57.808594 18.9375 57.664062 C 18.835938 57.441406 18.824219 57.378906 18.839844 57.105469 C 18.851562 56.835938 18.878906 56.75 19.058594 56.359375 C 19.300781 55.84375 19.4375 55.34375 19.527344 54.667969 C 19.601562 54.082031 19.675781 53.78125 19.777344 53.644531 C 19.847656 53.546875 20.089844 53.4375 20.152344 53.472656 C 20.207031 53.507812 20.175781 54.054688 20.046875 55.316406 L 19.863281 57.078125 C 19.769531 58.148438 19.710938 58.410156 19.578125 58.410156 C 19.550781 58.410156 19.421875 58.296875 19.292969 58.164062 Z M 33.679688 58.3125 C 33.628906 58.261719 33.570312 58.152344 33.542969 58.066406 C 33.398438 57.546875 32.894531 54.027344 32.839844 53.144531 L 32.816406 52.742188 L 32.964844 52.691406 C 33.332031 52.566406 34.226562 52.746094 34.824219 53.058594 C 35.582031 53.453125 35.972656 53.992188 36.277344 55.089844 C 36.417969 55.597656 36.390625 55.871094 36.136719 56.589844 C 35.855469 57.371094 35.574219 57.71875 34.945312 58.042969 C 34.226562 58.410156 33.859375 58.488281 33.679688 58.3125 Z M 84.625 57.546875 C 84.492188 57.515625 84.472656 57.46875 84.542969 57.265625 L 84.609375 57.066406 L 85.035156 56.960938 C 85.539062 56.832031 85.9375 56.632812 86.195312 56.375 C 86.488281 56.082031 86.507812 55.980469 86.507812 54.6875 C 86.507812 53.195312 86.414062 52.445312 86.140625 51.777344 C 85.894531 51.027344 85.238281 50.484375 84.457031 50.382812 C 83.984375 50.289062 83.8125 50.238281 83.726562 50.15625 C 83.632812 50.082031 83.664062 50.042969 83.84375 49.996094 C 84.496094 49.820312 86.972656 49.726562 93.207031 49.625 L 93.863281 49.613281 L 93.910156 49.871094 C 93.9375 50.015625 94.058594 50.828125 94.179688 51.679688 C 94.632812 54.84375 94.683594 55.1875 94.8125 55.976562 C 94.890625 56.414062 94.953125 56.832031 94.953125 56.894531 C 94.953125 57.007812 94.949219 57.011719 94.707031 57.035156 C 94.289062 57.070312 93.757812 57.097656 92.554688 57.136719 C 91.1875 57.1875 90.546875 57.234375 89.878906 57.335938 C 89.324219 57.421875 88.601562 57.476562 87.339844 57.535156 C 86.480469 57.574219 84.773438 57.582031 84.625 57.546875 Z M 89.832031 56.824219 C 90.246094 56.609375 90.421875 56.136719 90.320312 55.527344 C 90.195312 54.808594 89.804688 54.398438 89.234375 54.398438 C 88.941406 54.398438 88.570312 54.585938 88.386719 54.824219 C 88.203125 55.070312 88.082031 55.40625 88.101562 55.648438 C 88.183594 56.207031 88.558594 56.679688 89.082031 56.886719 C 89.265625 56.957031 89.632812 56.921875 89.832031 56.824219 Z M 92.992188 56.679688 C 93.230469 56.640625 93.433594 56.507812 93.5625 56.308594 C 93.726562 56.042969 93.777344 55.851562 93.753906 55.554688 C 93.730469 55.210938 93.585938 54.921875 93.289062 54.632812 C 92.738281 54.097656 92.28125 54.113281 91.75 54.695312 C 91.511719 54.957031 91.445312 55.148438 91.484375 55.464844 C 91.554688 56.03125 91.859375 56.523438 92.210938 56.636719 C 92.519531 56.738281 92.613281 56.742188 92.992188 56.679688 Z M 89.273438 52.667969 C 89.472656 52.546875 89.941406 51.980469 89.992188 51.789062 C 90.039062 51.621094 89.996094 51.449219 89.835938 51.140625 C 89.398438 50.324219 88.558594 50.101562 87.96875 50.65625 C 87.71875 50.890625 87.613281 51.09375 87.585938 51.40625 C 87.554688 51.839844 87.753906 52.238281 88.132812 52.5 C 88.5625 52.792969 88.960938 52.851562 89.273438 52.667969 Z M 92.570312 52.535156 C 92.789062 52.421875 93.035156 52.167969 93.09375 51.988281 C 93.152344 51.800781 93.117188 51.230469 93.027344 50.96875 C 92.867188 50.511719 92.449219 50.277344 91.871094 50.320312 C 91.550781 50.34375 91.328125 50.4375 91.21875 50.585938 C 91.019531 50.855469 90.957031 51.578125 91.097656 51.90625 C 91.238281 52.226562 91.546875 52.515625 91.859375 52.617188 C 92.023438 52.671875 92.386719 52.628906 92.570312 52.535156 Z M 92.570312 52.535156 "
    />
    <path
      d="M 89.074219 56.328125 C 88.878906 56.257812 88.828125 56.210938 88.746094 56.035156 C 88.664062 55.863281 88.652344 55.359375 88.730469 55.132812 C 88.785156 54.960938 88.933594 54.875 89.183594 54.875 C 89.675781 54.875 89.996094 55.238281 89.996094 55.804688 C 89.996094 56.058594 89.984375 56.117188 89.90625 56.203125 C 89.765625 56.371094 89.359375 56.425781 89.074219 56.328125 Z M 92.273438 56.175781 C 92.148438 56.117188 92.101562 55.984375 92.074219 55.617188 C 92.046875 55.203125 92.113281 54.933594 92.269531 54.820312 C 92.414062 54.710938 92.789062 54.703125 92.945312 54.808594 C 93.1875 54.964844 93.292969 55.316406 93.207031 55.675781 C 93.109375 56.097656 92.960938 56.226562 92.585938 56.222656 C 92.460938 56.222656 92.316406 56.199219 92.273438 56.175781 Z M 88.421875 52.109375 C 88.324219 52.0625 88.277344 51.996094 88.214844 51.832031 C 88.082031 51.476562 88.074219 51.328125 88.171875 51.121094 C 88.292969 50.878906 88.453125 50.773438 88.679688 50.796875 C 89.058594 50.835938 89.363281 51.179688 89.390625 51.59375 C 89.410156 51.886719 89.355469 52.007812 89.164062 52.101562 C 88.988281 52.195312 88.597656 52.195312 88.421875 52.109375 Z M 91.839844 52.136719 C 91.726562 52.085938 91.59375 51.9375 91.523438 51.769531 C 91.449219 51.582031 91.445312 51.214844 91.519531 51.070312 C 91.65625 50.8125 91.949219 50.644531 92.191406 50.695312 C 92.246094 50.707031 92.347656 50.765625 92.421875 50.824219 C 92.574219 50.949219 92.8125 51.359375 92.8125 51.496094 C 92.8125 51.6875 92.570312 51.980469 92.308594 52.109375 C 92.171875 52.179688 91.972656 52.191406 91.839844 52.136719 Z M 84.550781 56.375 C 84.515625 56.316406 84.460938 55.984375 84.40625 55.46875 C 84.308594 54.496094 84.230469 53.976562 84.125 53.683594 C 84.085938 53.5625 84.035156 53.335938 84.011719 53.175781 C 83.960938 52.804688 83.878906 50.902344 83.910156 50.867188 C 83.925781 50.855469 84.097656 50.835938 84.292969 50.828125 C 84.613281 50.816406 84.667969 50.828125 84.863281 50.921875 C 85.640625 51.300781 86.035156 52.523438 86.039062 54.558594 C 86.042969 55.390625 85.988281 55.867188 85.871094 56.0625 C 85.738281 56.277344 85.257812 56.464844 84.835938 56.464844 C 84.640625 56.464844 84.597656 56.449219 84.550781 56.375 Z M 19.800781 52.878906 C 19.789062 52.847656 19.8125 52.734375 19.847656 52.628906 C 19.917969 52.417969 20.21875 51.839844 20.242188 51.867188 C 20.28125 51.910156 20.175781 52.585938 20.105469 52.75 C 20.042969 52.898438 20.003906 52.929688 19.921875 52.929688 C 19.867188 52.929688 19.8125 52.90625 19.800781 52.878906 Z M 2.351562 51.820312 C 2.261719 51.804688 2.160156 51.769531 2.125 51.742188 C 1.980469 51.621094 2.011719 51.222656 2.171875 51.027344 C 2.226562 50.960938 2.3125 50.941406 2.675781 50.90625 C 3.597656 50.824219 6.535156 50.734375 10.527344 50.664062 C 11.816406 50.644531 13.226562 50.617188 13.671875 50.601562 L 14.472656 50.578125 L 14.472656 50.871094 C 14.472656 51.0625 14.449219 51.195312 14.410156 51.246094 C 14.300781 51.410156 13.746094 51.503906 12.449219 51.578125 C 11.664062 51.621094 8.382812 51.757812 6.621094 51.816406 C 5.328125 51.859375 2.613281 51.859375 2.351562 51.820312 Z M 33.132812 50.824219 C 32.609375 50.785156 32.460938 50.632812 32.605469 50.292969 C 32.648438 50.1875 32.707031 50.128906 32.816406 50.082031 C 32.980469 50.015625 32.894531 50.015625 38.296875 49.871094 L 43.589844 49.730469 C 46.542969 49.644531 49.867188 49.632812 50.101562 49.703125 C 50.207031 49.738281 50.308594 49.804688 50.382812 49.902344 C 50.542969 50.105469 50.640625 50.3125 50.601562 50.351562 C 50.535156 50.417969 49.792969 50.464844 48.230469 50.488281 C 46.566406 50.511719 45.792969 50.527344 40.320312 50.664062 C 36.324219 50.765625 34.246094 50.820312 33.816406 50.835938 C 33.632812 50.84375 33.324219 50.839844 33.132812 50.824219 Z M 4.242188 50.410156 C 4.285156 50.371094 5.625 50.230469 6.324219 50.1875 C 8.800781 50.050781 12.808594 50.035156 12.328125 50.160156 C 12.046875 50.238281 11.042969 50.273438 8.324219 50.308594 C 6.679688 50.328125 5.234375 50.351562 5.113281 50.363281 C 4.710938 50.402344 4.226562 50.429688 4.242188 50.410156 Z M 52.699219 50.269531 C 52.410156 50.214844 52.207031 50.101562 52.085938 49.921875 C 51.96875 49.757812 51.914062 49.574219 51.964844 49.542969 C 52.085938 49.464844 54.234375 49.378906 57.941406 49.296875 C 59.425781 49.265625 61.550781 49.207031 62.660156 49.175781 C 70.21875 48.953125 71.949219 48.949219 72.375 49.15625 C 72.542969 49.242188 72.710938 49.441406 72.710938 49.566406 C 72.710938 49.648438 72.578125 49.664062 71.460938 49.707031 C 69.8125 49.777344 69.300781 49.792969 66.824219 49.851562 C 61.964844 49.972656 59.105469 50.066406 56.695312 50.191406 C 54.902344 50.285156 52.996094 50.320312 52.699219 50.269531 Z M 73.222656 49.289062 C 73.046875 49.121094 72.910156 48.96875 72.910156 48.953125 C 72.910156 48.898438 73.398438 49.074219 73.496094 49.164062 C 73.605469 49.269531 73.71875 49.5 73.683594 49.554688 C 73.628906 49.640625 73.519531 49.578125 73.222656 49.289062 Z M 83.941406 49.242188 C 83.726562 49.203125 83.652344 49.136719 83.652344 48.96875 C 83.652344 48.675781 83.875 48.59375 84.890625 48.523438 C 86.34375 48.417969 91.40625 48.363281 92.058594 48.445312 C 92.246094 48.464844 92.472656 48.523438 92.5625 48.5625 C 92.796875 48.664062 93.242188 48.972656 93.167969 48.984375 L 92.058594 49.058594 C 89.269531 49.21875 84.476562 49.328125 83.941406 49.242188 Z M 4.023438 47.234375 C 3.277344 46.871094 2.957031 46.648438 2.710938 46.328125 C 2.5625 46.136719 2.066406 45.304688 1.867188 44.917969 C 1.792969 44.765625 1.789062 44.625 1.730469 38.75 C 1.609375 27.429688 1.574219 19.910156 1.597656 11.070312 L 1.617188 2.304688 L 1.886719 1.9375 C 2.472656 1.128906 2.777344 0.863281 3.609375 0.4375 C 4.15625 0.160156 4.371094 0.101562 5.148438 0.0429688 C 5.820312 -0.0117188 7.867188 -0.0117188 8.683594 0.0390625 C 10.320312 0.144531 14.316406 0.375 16.988281 0.515625 C 20.40625 0.699219 22.96875 0.851562 24.164062 0.933594 C 25.621094 1.03125 28.957031 1.207031 35.582031 1.527344 C 46.226562 2.042969 49.710938 2.226562 50.765625 2.324219 C 52.207031 2.457031 53.8125 2.550781 60.796875 2.917969 C 70.554688 3.429688 73.703125 3.605469 75.445312 3.734375 L 79.808594 4.03125 C 87.171875 4.523438 87.703125 4.59375 88.4375 5.210938 C 88.976562 5.660156 89.515625 6.582031 89.640625 7.265625 C 89.832031 8.335938 89.84375 16.386719 89.679688 31.269531 C 89.589844 39.632812 89.507812 42.5 89.34375 43.488281 C 89.273438 43.902344 89.230469 44 89.089844 44.078125 C 89.019531 44.121094 88.96875 44.191406 88.953125 44.273438 C 88.894531 44.558594 88.375 45.085938 87.894531 45.339844 C 87.625 45.484375 87.332031 45.558594 86.667969 45.644531 C 86.035156 45.726562 84.449219 45.769531 84.34375 45.710938 C 84.171875 45.609375 84.664062 45.503906 85.636719 45.425781 C 86.625 45.339844 87.378906 45.128906 88.019531 44.75 C 88.476562 44.480469 88.617188 44.277344 89.027344 43.339844 L 89.214844 42.902344 L 89.292969 33.175781 C 89.332031 27.828125 89.367188 20.058594 89.375 15.921875 C 89.382812 7.972656 89.378906 7.710938 89.203125 7.207031 C 89.0625 6.792969 88.566406 6.128906 88.101562 5.742188 C 87.832031 5.515625 87.675781 5.425781 87.4375 5.363281 C 87.324219 5.332031 87.261719 5.289062 87.230469 5.226562 C 87.148438 5.039062 86.8125 4.9375 85.972656 4.828125 C 84.992188 4.707031 83.746094 4.632812 81.136719 4.546875 C 78.660156 4.46875 77.539062 4.414062 76.695312 4.347656 C 75 4.207031 72.609375 4.066406 65.316406 3.671875 C 58.734375 3.320312 56.511719 3.175781 55.285156 3.039062 C 54.300781 2.925781 52.75 2.832031 50.035156 2.71875 C 47.605469 2.621094 45.816406 2.503906 45.316406 2.421875 C 44.75 2.324219 41.160156 2.144531 36.15625 1.964844 C 33.15625 1.859375 30.390625 1.714844 29.597656 1.628906 C 28.820312 1.542969 27.054688 1.441406 24.5625 1.332031 C 21.785156 1.210938 19.8125 1.078125 19.089844 0.976562 C 17.21875 0.703125 6.351562 0.285156 4.808594 0.433594 C 3.917969 0.515625 3.398438 0.683594 3.023438 1.007812 C 2.835938 1.175781 2.449219 1.734375 2.265625 2.109375 C 1.964844 2.714844 1.945312 3.179688 1.914062 9.925781 C 1.875 19.175781 2.085938 39.917969 2.261719 43.816406 C 2.292969 44.527344 2.3125 44.707031 2.398438 45.007812 C 2.550781 45.523438 2.667969 45.714844 3.132812 46.183594 C 3.621094 46.675781 3.867188 46.8125 4.445312 46.933594 C 5.078125 47.0625 5.878906 47.09375 9.734375 47.113281 C 13.382812 47.136719 14.800781 47.171875 15.015625 47.253906 C 15.113281 47.289062 15.113281 47.296875 15.054688 47.363281 C 15 47.414062 14.863281 47.433594 14.339844 47.457031 C 13.605469 47.488281 7.679688 47.570312 5.886719 47.570312 L 4.699219 47.566406 Z M 4.023438 47.234375 "
    />
    <path
      d="M 40.941406 46.828125 C 40.847656 46.800781 40.875 46.730469 41.027344 46.632812 C 41.363281 46.402344 42.277344 46.367188 53.898438 46.097656 L 61.886719 45.917969 C 64.941406 45.847656 69.175781 45.820312 69.351562 45.875 C 69.476562 45.910156 69.496094 46 69.390625 46.054688 C 69.171875 46.171875 67.5625 46.230469 62.285156 46.316406 C 55.828125 46.425781 53.148438 46.488281 48.308594 46.65625 L 43.710938 46.8125 C 42.507812 46.855469 41.074219 46.863281 40.941406 46.828125 Z M 47.695312 44.960938 C 47.167969 44.933594 45.277344 44.746094 44.914062 44.6875 C 44.707031 44.652344 44.457031 44.582031 44.34375 44.527344 C 44.238281 44.472656 44.050781 44.40625 43.933594 44.386719 C 43.675781 44.347656 43.570312 44.269531 43.652344 44.179688 C 43.71875 44.089844 43.820312 44.097656 44.605469 44.234375 C 45.777344 44.4375 46.601562 44.546875 46.640625 44.511719 C 46.6875 44.464844 46.738281 44.144531 46.738281 43.855469 C 46.742188 43.527344 46.839844 43.175781 46.980469 42.96875 C 47.042969 42.878906 47.109375 42.765625 47.121094 42.710938 C 47.132812 42.664062 47.089844 42.472656 47.015625 42.289062 C 46.832031 41.875 46.746094 41.425781 46.765625 40.976562 C 46.761719 40.683594 46.777344 40.207031 46.796875 39.921875 L 46.832031 39.402344 L 46.441406 39.378906 C 46.164062 39.363281 45.898438 39.3125 45.535156 39.207031 C 44.460938 38.902344 44.355469 38.875 43.984375 38.875 C 43.644531 38.871094 43.609375 38.863281 43.269531 38.695312 C 42.667969 38.394531 42.339844 38.390625 41.765625 38.675781 C 41.113281 39 40.546875 39.511719 40.085938 40.195312 C 39.796875 40.617188 39.632812 40.792969 39.550781 40.765625 C 39.417969 40.71875 39.683594 40.109375 40 39.734375 L 40.179688 39.511719 L 40.292969 38.84375 C 40.351562 38.480469 40.410156 38.070312 40.421875 37.941406 C 40.472656 37.484375 40.3125 37.207031 40.003906 37.207031 C 39.726562 37.207031 39.226562 36.992188 38.9375 36.746094 C 38.746094 36.585938 38.695312 36.445312 38.636719 35.941406 C 38.589844 35.480469 38.453125 35.03125 38.230469 34.621094 C 38.085938 34.335938 37.964844 34.1875 37.890625 34.1875 C 37.828125 34.1875 37.578125 34.390625 35.816406 35.875 C 34.066406 37.347656 33.859375 37.546875 33.859375 37.714844 C 33.859375 38.066406 35.125 39.339844 36.855469 40.722656 C 37.527344 41.261719 37.863281 41.578125 37.863281 41.671875 C 37.863281 42.019531 35.980469 40.46875 33.945312 38.460938 C 32.929688 37.457031 32.683594 37.167969 32.523438 36.808594 C 32.382812 36.507812 31.988281 35.847656 31.578125 35.257812 C 31.191406 34.695312 30.789062 33.875 30.144531 32.320312 C 28.886719 29.296875 28.441406 25.679688 28.863281 21.898438 C 28.996094 20.707031 29.089844 20.242188 29.421875 19.039062 C 29.820312 17.59375 29.996094 17.148438 30.753906 15.644531 C 31.378906 14.394531 31.878906 13.535156 32.4375 12.757812 C 33.71875 10.972656 35.042969 9.644531 36.929688 8.257812 C 37.800781 7.625 38.25 7.328125 38.917969 6.976562 C 39.226562 6.8125 39.527344 6.644531 39.589844 6.597656 C 39.652344 6.550781 39.9375 6.425781 40.214844 6.3125 C 40.496094 6.203125 40.808594 6.070312 40.910156 6.019531 C 41.183594 5.875 41.847656 5.652344 42.511719 5.476562 C 42.835938 5.390625 43.222656 5.269531 43.371094 5.207031 C 44.03125 4.914062 45.386719 4.792969 47.914062 4.792969 C 50.507812 4.792969 51.960938 4.921875 52.589844 5.222656 C 52.703125 5.273438 53.082031 5.394531 53.441406 5.496094 C 53.804688 5.59375 54.382812 5.789062 54.730469 5.929688 C 56.355469 6.582031 58.226562 7.574219 58.65625 8.015625 C 58.738281 8.109375 58.851562 8.179688 58.894531 8.179688 C 59.175781 8.179688 60.8125 9.617188 62.238281 11.113281 C 63.335938 12.265625 63.714844 12.726562 63.863281 13.066406 C 63.90625 13.164062 64.105469 13.488281 64.300781 13.792969 C 64.746094 14.464844 65.023438 14.941406 65.363281 15.621094 C 65.984375 16.859375 66.4375 18.003906 66.683594 18.945312 C 66.773438 19.273438 66.886719 19.652344 66.945312 19.785156 C 67.003906 19.921875 67.082031 20.144531 67.121094 20.277344 C 67.519531 21.628906 67.632812 26.046875 67.339844 28.636719 C 67.257812 29.351562 67.175781 29.703125 67.003906 30.117188 C 66.917969 30.3125 66.777344 30.753906 66.683594 31.089844 C 66.417969 32.082031 66.085938 32.929688 65.492188 34.113281 C 64.527344 36.113281 63.214844 37.917969 61.605469 39.449219 C 60.15625 40.910156 58.480469 42.125 56.640625 43.042969 C 55.230469 43.722656 54.601562 43.96875 53.722656 44.171875 L 52.929688 44.359375 C 52.742188 44.402344 52.492188 44.484375 52.371094 44.53125 C 52.09375 44.644531 51.59375 44.726562 50.488281 44.824219 C 48.882812 44.976562 48.421875 44.996094 47.695312 44.960938 Z M 49.890625 44.625 C 50.0625 44.601562 50.339844 44.550781 50.503906 44.511719 C 50.855469 44.425781 51.847656 44.242188 52.703125 44.113281 L 53.285156 44.023438 L 53.285156 43.125 C 53.289062 42.171875 53.324219 41.710938 53.417969 41.542969 C 53.554688 41.292969 53.574219 41.214844 53.574219 40.859375 C 53.574219 40.394531 53.503906 40.105469 53.269531 39.640625 C 53.167969 39.445312 53.050781 39.144531 53.003906 38.972656 C 52.886719 38.546875 52.832031 38.449219 52.695312 38.417969 C 52.449219 38.363281 51.804688 38.5 51.453125 38.679688 C 51.222656 38.792969 50.441406 38.972656 49.28125 39.171875 C 48.128906 39.371094 47.636719 39.476562 47.460938 39.566406 C 47.25 39.675781 47.242188 39.746094 47.238281 41.453125 C 47.234375 42.316406 47.21875 43.085938 47.203125 43.160156 C 47.183594 43.238281 47.121094 43.359375 47.054688 43.425781 C 46.925781 43.578125 46.882812 43.765625 46.914062 44.058594 C 46.945312 44.367188 47.042969 44.515625 47.257812 44.578125 C 47.667969 44.699219 49.117188 44.726562 49.890625 44.625 Z M 54.785156 43.484375 C 56.636719 42.773438 56.867188 42.65625 58.273438 41.722656 L 59.507812 40.898438 L 59.507812 39.238281 L 58.984375 39.222656 C 58.496094 39.210938 58.445312 39.203125 58.273438 39.101562 C 57.941406 38.867188 57.714844 38.515625 57.625 38.117188 C 57.574219 37.792969 57.25 37.167969 56.980469 36.875 C 56.921875 36.816406 56.808594 36.75 56.730469 36.730469 C 56.617188 36.695312 56.570312 36.65625 56.542969 36.570312 C 56.507812 36.476562 56.472656 36.445312 56.335938 36.425781 C 55.929688 36.359375 55.191406 35.675781 54.15625 34.40625 C 53.480469 33.574219 53.234375 33.3125 53.125 33.3125 C 53.011719 33.3125 52.878906 33.507812 52.683594 33.972656 C 52.222656 35.046875 52.261719 35.363281 52.96875 36.453125 C 53.167969 36.765625 53.371094 37.105469 53.417969 37.214844 C 53.511719 37.429688 53.515625 37.410156 53.261719 38 C 53.078125 38.421875 53.097656 38.644531 53.378906 39.21875 C 53.503906 39.476562 53.632812 39.785156 53.664062 39.90625 C 53.761719 40.242188 53.785156 41.371094 53.707031 41.890625 C 53.59375 42.660156 53.585938 42.882812 53.660156 43.394531 C 53.699219 43.660156 53.742188 43.875 53.75 43.875 C 53.757812 43.875 54.21875 43.703125 54.785156 43.484375 Z M 60.28125 40.296875 C 60.796875 39.972656 63.304688 37.304688 63.519531 36.847656 C 63.570312 36.75 63.820312 36.355469 64.074219 35.972656 C 65.003906 34.574219 65.8125 32.9375 66.289062 31.492188 C 66.851562 29.789062 67.28125 27.449219 67.28125 26.082031 C 67.28125 25.519531 67.238281 25.355469 67.085938 25.273438 C 66.9375 25.199219 66.480469 25.09375 66.296875 25.09375 C 66.042969 25.09375 65.820312 25.304688 65.585938 25.765625 L 65.4375 26.058594 L 65.414062 27.355469 C 65.386719 28.832031 65.394531 28.777344 64.980469 30 C 64.699219 30.824219 64.53125 31.464844 64.445312 32.023438 C 64.265625 33.171875 64.1875 33.457031 63.886719 34.015625 C 63.496094 34.734375 62.859375 35.449219 61.765625 36.394531 C 60.871094 37.160156 60.804688 37.246094 60.757812 37.660156 C 60.722656 37.957031 60.636719 38.167969 60.453125 38.382812 C 60.375 38.476562 60.296875 38.613281 60.285156 38.691406 C 60.269531 38.765625 60.191406 38.914062 60.105469 39.015625 C 59.90625 39.257812 59.808594 39.589844 59.832031 39.992188 C 59.855469 40.449219 59.949219 40.511719 60.28125 40.296875 Z M 48.488281 38.992188 C 49.140625 38.933594 49.390625 38.882812 49.609375 38.769531 C 49.742188 38.703125 49.917969 38.660156 50.144531 38.628906 C 51.023438 38.53125 51.191406 38.5 51.679688 38.335938 C 51.960938 38.242188 52.320312 38.125 52.480469 38.082031 C 52.960938 37.941406 53.128906 37.722656 53.046875 37.34375 C 52.992188 37.097656 52.929688 36.984375 52.640625 36.597656 C 52.363281 36.21875 52.175781 35.847656 52.175781 35.671875 C 52.175781 35.503906 52.058594 35.40625 51.917969 35.441406 C 51.851562 35.457031 51.613281 35.65625 51.359375 35.898438 C 50.683594 36.546875 50.597656 36.550781 49.78125 35.996094 C 49.175781 35.585938 48.742188 35.359375 48.382812 35.277344 C 48.148438 35.21875 48.074219 35.21875 47.8125 35.265625 C 47.394531 35.339844 45.507812 35.339844 45.164062 35.261719 C 44.917969 35.207031 44.742188 35.109375 44.410156 34.84375 C 44.144531 34.628906 43.960938 34.664062 43.847656 34.957031 C 43.824219 35.019531 43.78125 35.308594 43.746094 35.59375 C 43.660156 36.359375 43.597656 36.5625 43.328125 36.992188 C 43.113281 37.335938 43.015625 37.597656 43.015625 37.859375 C 43.015625 38.121094 43.074219 38.265625 43.21875 38.339844 C 43.277344 38.367188 43.546875 38.417969 43.816406 38.4375 C 44.359375 38.484375 44.726562 38.578125 45.117188 38.773438 C 45.433594 38.933594 45.625 38.996094 45.910156 39.035156 C 46.183594 39.074219 47.882812 39.042969 48.488281 38.992188 Z M 59.589844 38.875 C 59.816406 38.761719 60.046875 38.539062 60.148438 38.34375 C 60.191406 38.261719 60.253906 38.054688 60.285156 37.886719 C 60.359375 37.515625 60.472656 37.261719 60.800781 36.746094 C 60.941406 36.523438 61.054688 36.328125 61.054688 36.3125 C 61.054688 36.292969 60.941406 36.15625 60.796875 36.011719 C 60.378906 35.574219 60.402344 35.734375 60.402344 33.46875 L 60.402344 31.5 L 60.132812 31.265625 C 59.867188 31.023438 59.5625 30.828125 59.230469 30.691406 L 58.898438 30.609375 C 58.792969 30.582031 58.570312 30.472656 58.402344 30.363281 C 58.082031 30.152344 57.761719 30.019531 57.574219 30.019531 C 57.40625 30.019531 57.066406 29.890625 56.675781 29.683594 C 56.484375 29.585938 56.304688 29.503906 56.28125 29.503906 C 56.179688 29.503906 56.113281 29.644531 56.085938 29.917969 C 56.066406 30.136719 56.042969 30.210938 55.976562 30.269531 C 55.582031 30.589844 54.867188 29.65625 54.59375 28.453125 C 54.457031 27.855469 54.285156 27.554688 54.078125 27.554688 C 53.882812 27.554688 53.765625 27.769531 53.636719 28.363281 C 53.542969 28.796875 53.476562 28.9375 53.335938 28.96875 C 53.28125 28.984375 53.042969 28.984375 52.804688 28.972656 L 52.378906 28.949219 L 52.355469 29.097656 C 52.222656 30.019531 52.203125 30.691406 52.304688 30.960938 C 52.789062 31.980469 53.394531 32.9375 54.101562 33.816406 C 54.371094 34.167969 54.628906 34.535156 54.675781 34.632812 C 54.867188 35.007812 55.863281 35.882812 56.523438 36.253906 C 57.226562 36.644531 57.886719 37.382812 57.941406 37.835938 C 58.007812 38.359375 58.214844 38.714844 58.566406 38.894531 C 58.75 38.988281 58.8125 38.996094 59.09375 38.980469 C 59.320312 38.972656 59.460938 38.941406 59.589844 38.875 Z M 41.316406 38.589844 C 41.808594 38.277344 42.007812 38.179688 42.246094 38.136719 C 42.597656 38.082031 42.78125 37.863281 42.835938 37.445312 C 42.867188 37.234375 42.90625 37.132812 43.171875 36.632812 C 43.238281 36.507812 43.292969 36.34375 43.292969 36.277344 C 43.292969 36.078125 43.375 35.847656 43.496094 35.679688 C 43.558594 35.59375 43.609375 35.492188 43.609375 35.453125 C 43.609375 35.417969 43.558594 35.292969 43.492188 35.167969 C 43.429688 35.046875 43.375 34.910156 43.375 34.871094 C 43.375 34.828125 43.425781 34.6875 43.492188 34.5625 C 43.636719 34.273438 43.691406 33.894531 43.691406 33.207031 C 43.691406 32.589844 43.636719 32.234375 43.511719 32.089844 C 43.222656 31.664062 43.050781 31.171875 43.011719 30.65625 C 42.957031 30.136719 42.949219 30.101562 42.847656 30.054688 C 42.71875 29.996094 42.59375 30.058594 42.507812 30.21875 C 42.460938 30.3125 42.371094 30.386719 42.175781 30.488281 C 41.996094 30.574219 41.878906 30.667969 41.828125 30.753906 C 41.785156 30.828125 41.691406 31.128906 41.628906 31.429688 C 41.320312 32.878906 40.976562 33.769531 40.617188 34.101562 C 40.371094 34.324219 40.34375 34.484375 40.371094 35.5625 C 40.390625 36.492188 40.421875 36.691406 40.632812 37.246094 C 40.789062 37.644531 40.8125 37.875 40.757812 38.390625 C 40.734375 38.632812 40.722656 38.847656 40.738281 38.871094 C 40.777344 38.933594 40.816406 38.914062 41.316406 38.589844 Z M 33.660156 37.230469 C 33.761719 37.152344 34.117188 36.878906 34.445312 36.617188 L 35.042969 36.140625 L 34.933594 35.988281 C 34.871094 35.902344 34.628906 35.628906 34.394531 35.378906 C 33.445312 34.363281 33.269531 34.070312 33.085938 33.136719 C 33.003906 32.742188 33.03125 32.5625 33.207031 32.210938 C 33.558594 31.507812 34.441406 31.097656 35.285156 31.25 C 36.039062 31.378906 36.210938 31.515625 36.394531 32.121094 L 36.652344 32.976562 C 36.824219 33.53125 37.023438 33.96875 37.164062 34.105469 L 37.265625 34.203125 L 37.4375 34.085938 C 37.679688 33.917969 37.8125 33.628906 37.859375 33.164062 C 37.890625 32.875 37.921875 32.753906 38.007812 32.605469 C 38.101562 32.449219 38.121094 32.375 38.121094 32.144531 C 38.117188 31.824219 38.019531 31.5 37.890625 31.378906 C 37.84375 31.332031 37.738281 31.285156 37.664062 31.269531 C 37.589844 31.253906 37.285156 31.113281 36.988281 30.964844 C 36.597656 30.761719 36.386719 30.675781 36.199219 30.648438 C 35.933594 30.609375 35.757812 30.53125 35.429688 30.3125 C 35.171875 30.144531 34.820312 30.046875 34.488281 30.042969 C 34.265625 30.039062 34.203125 30.054688 34.070312 30.144531 C 33.871094 30.285156 33.640625 30.371094 32.84375 30.613281 C 32.480469 30.726562 32.03125 30.882812 31.84375 30.96875 C 31.652344 31.054688 31.269531 31.195312 30.984375 31.285156 C 30.703125 31.371094 30.429688 31.476562 30.382812 31.507812 C 30.175781 31.652344 30.296875 32.050781 30.988281 33.453125 C 31.476562 34.449219 31.835938 35.101562 32.015625 35.324219 C 32.089844 35.414062 32.191406 35.589844 32.25 35.710938 C 32.304688 35.835938 32.449219 36.085938 32.578125 36.265625 C 32.839844 36.632812 33.417969 37.363281 33.449219 37.363281 C 33.460938 37.363281 33.558594 37.304688 33.660156 37.230469 Z M 40.121094 36.828125 C 40.171875 36.765625 40.171875 36.71875 40.097656 35.019531 C 40.066406 34.355469 40.078125 34.320312 40.410156 33.949219 C 40.828125 33.488281 40.992188 32.945312 41.46875 30.433594 C 41.765625 28.894531 41.9375 28.117188 42.039062 27.855469 C 42.179688 27.492188 42.226562 26.507812 42.144531 25.699219 C 42.101562 25.285156 42.03125 25.113281 41.894531 25.078125 C 41.582031 25 40.90625 25.507812 40.816406 25.898438 C 40.785156 26.027344 40.566406 26.230469 40.210938 26.460938 C 40.0625 26.554688 39.910156 26.667969 39.875 26.707031 C 39.757812 26.839844 39.726562 27.121094 39.726562 28.078125 L 39.726562 29.015625 L 39.304688 29.425781 C 38.527344 30.183594 38.25 30.601562 38.246094 31.011719 C 38.246094 31.191406 38.273438 31.285156 38.410156 31.546875 C 38.679688 32.074219 38.679688 32.351562 38.417969 32.660156 C 38.332031 32.757812 38.242188 32.90625 38.21875 32.988281 C 38.121094 33.355469 38.207031 33.835938 38.460938 34.292969 C 38.671875 34.683594 38.832031 35.191406 38.910156 35.699219 C 38.984375 36.238281 39.054688 36.414062 39.277344 36.609375 C 39.554688 36.851562 40.003906 36.972656 40.121094 36.828125 Z M 50.957031 35.96875 C 51.199219 35.8125 51.347656 35.628906 51.429688 35.386719 C 51.46875 35.28125 51.644531 34.996094 51.816406 34.757812 C 52.21875 34.210938 52.441406 33.785156 52.664062 33.132812 L 52.839844 32.609375 L 52.140625 31.34375 C 51.75 30.644531 51.21875 29.710938 50.957031 29.265625 L 50.316406 28.144531 C 50.222656 27.972656 50.136719 27.835938 50.125 27.835938 C 50.113281 27.835938 49.988281 27.9375 49.855469 28.070312 C 49.546875 28.359375 49.347656 28.429688 48.820312 28.457031 C 48.214844 28.488281 48.03125 28.425781 47.667969 28.042969 C 47.429688 27.792969 47.371094 27.75 47.289062 27.773438 C 47.140625 27.820312 46.972656 28.035156 46.625 28.65625 C 46.300781 29.234375 45.957031 29.8125 45.523438 30.515625 C 45.402344 30.714844 45.089844 31.289062 44.832031 31.800781 C 44.382812 32.695312 44.226562 32.960938 44.082031 33.0625 C 43.976562 33.144531 43.917969 33.335938 43.9375 33.566406 C 43.964844 33.882812 44.132812 34.203125 44.449219 34.511719 C 44.863281 34.925781 44.789062 34.914062 47.003906 34.9375 L 48.867188 34.960938 L 49.382812 35.347656 C 49.664062 35.558594 50.03125 35.8125 50.191406 35.910156 C 50.554688 36.136719 50.695312 36.144531 50.957031 35.96875 Z M 61.832031 35.980469 C 62.03125 35.835938 62.835938 35.011719 63.175781 34.609375 C 63.613281 34.089844 63.707031 33.921875 63.769531 33.566406 C 63.886719 32.90625 63.945312 31.671875 63.875 31.476562 C 63.847656 31.40625 63.769531 31.355469 63.597656 31.292969 C 63.460938 31.246094 63.269531 31.128906 63.148438 31.027344 C 62.863281 30.785156 62.4375 30.644531 61.949219 30.636719 C 61.648438 30.632812 61.5625 30.648438 61.429688 30.722656 C 61.054688 30.921875 60.890625 31.382812 60.816406 32.457031 C 60.746094 33.488281 60.792969 35.183594 60.902344 35.496094 C 60.957031 35.667969 61.097656 35.824219 61.328125 35.976562 C 61.546875 36.121094 61.636719 36.121094 61.832031 35.980469 Z M 35.597656 35.601562 C 35.945312 35.421875 36.382812 35.058594 36.597656 34.765625 C 36.683594 34.648438 36.710938 34.570312 36.710938 34.425781 C 36.710938 34.175781 36.546875 33.617188 36.351562 33.203125 C 36.269531 33.019531 36.152344 32.675781 36.09375 32.441406 C 35.972656 31.933594 35.871094 31.785156 35.53125 31.617188 C 35.332031 31.523438 35.257812 31.507812 34.949219 31.507812 C 34.609375 31.507812 34.574219 31.515625 34.3125 31.652344 C 34.160156 31.738281 33.917969 31.914062 33.773438 32.039062 C 33.332031 32.441406 33.242188 32.800781 33.472656 33.261719 C 33.527344 33.367188 33.617188 33.601562 33.671875 33.777344 C 33.726562 33.957031 33.839844 34.203125 33.917969 34.328125 C 34.097656 34.597656 34.644531 35.214844 34.914062 35.453125 C 35.222656 35.726562 35.308594 35.742188 35.597656 35.601562 Z M 44.332031 32.023438 C 44.402344 31.945312 44.601562 31.617188 44.777344 31.296875 C 44.945312 30.976562 45.390625 30.179688 45.761719 29.53125 C 46.664062 27.941406 46.867188 27.496094 46.75 27.328125 C 46.730469 27.296875 46.601562 27.246094 46.457031 27.203125 C 46.28125 27.15625 46.027344 27.027344 45.6875 26.8125 C 45.40625 26.640625 45.136719 26.484375 45.085938 26.46875 C 44.910156 26.414062 44.707031 26.597656 44.316406 27.179688 C 43.578125 28.277344 43.1875 29.691406 43.328125 30.710938 C 43.410156 31.261719 43.71875 32.003906 43.925781 32.121094 C 44.054688 32.199219 44.199219 32.167969 44.332031 32.023438 Z M 31.023438 30.941406 C 31.609375 30.699219 32.027344 30.546875 32.265625 30.492188 C 32.363281 30.472656 32.695312 30.347656 33 30.21875 C 33.714844 29.921875 34.0625 29.84375 34.652344 29.839844 C 35.242188 29.839844 35.324219 29.859375 35.703125 30.097656 C 36.203125 30.414062 37.054688 30.71875 37.578125 30.761719 C 37.929688 30.789062 37.972656 30.761719 38.128906 30.359375 C 38.21875 30.128906 38.289062 30.03125 38.519531 29.800781 C 38.914062 29.414062 39.414062 28.613281 39.410156 28.371094 C 39.402344 28.042969 38.929688 27.808594 38.042969 27.691406 C 37.058594 27.558594 34.285156 27.738281 33.5 27.984375 C 33.183594 28.085938 32.40625 28.066406 31.359375 27.933594 C 30.871094 27.875 30.269531 27.828125 29.953125 27.824219 L 29.398438 27.816406 L 29.40625 28.210938 C 29.421875 29.039062 29.847656 30.867188 30.09375 31.1875 L 30.175781 31.285156 L 30.359375 31.214844 Z M 60.957031 30.738281 C 61.238281 30.234375 61.367188 30.027344 61.4375 30.003906 C 61.472656 29.992188 61.605469 30.046875 61.746094 30.128906 C 61.882812 30.210938 62.109375 30.3125 62.25 30.351562 C 62.945312 30.550781 63.148438 30.621094 63.300781 30.722656 L 63.65625 30.964844 C 64.085938 31.253906 64.375 31.035156 64.601562 30.246094 C 64.636719 30.117188 64.746094 29.824219 64.84375 29.589844 C 65.140625 28.910156 65.152344 28.804688 65.15625 27.238281 C 65.164062 25.648438 65.164062 25.648438 65.53125 25.175781 L 65.761719 24.875 L 65.3125 24.410156 C 64.566406 23.632812 64.464844 23.421875 64.464844 22.640625 C 64.464844 22.179688 64.46875 22.160156 64.605469 21.894531 C 64.679688 21.738281 64.871094 21.472656 65.039062 21.28125 C 65.207031 21.097656 65.394531 20.859375 65.457031 20.746094 C 65.515625 20.640625 65.742188 20.355469 65.953125 20.113281 C 66.164062 19.875 66.363281 19.617188 66.390625 19.546875 C 66.515625 19.257812 66.410156 18.621094 66.160156 18.144531 C 66.085938 18.003906 65.957031 17.667969 65.871094 17.398438 C 65.738281 16.988281 65.707031 16.914062 65.632812 16.914062 C 65.589844 16.914062 65.304688 16.949219 65 16.992188 C 64.167969 17.105469 63.507812 17.152344 62.683594 17.152344 C 61.964844 17.152344 61.933594 17.148438 61.75 17.054688 C 61.640625 16.996094 61.449219 16.9375 61.292969 16.917969 C 60.933594 16.871094 60.726562 16.773438 60.402344 16.480469 L 60.128906 16.238281 L 59.792969 16.566406 C 59.449219 16.882812 59.160156 17.257812 58.9375 17.667969 C 58.835938 17.855469 58.675781 18.105469 58.585938 18.226562 C 58.207031 18.710938 57.761719 19.136719 57.261719 19.492188 C 57.195312 19.570312 57.199219 19.902344 57.273438 20.609375 C 57.355469 21.398438 57.390625 23.785156 57.332031 24.449219 C 57.324219 24.882812 57.222656 25.308594 57.035156 25.703125 C 56.664062 26.574219 56.433594 27.519531 56.390625 28.339844 C 56.363281 28.824219 56.363281 28.828125 56.476562 28.984375 C 56.605469 29.171875 57.058594 29.53125 57.367188 29.679688 C 57.515625 29.757812 57.644531 29.792969 57.765625 29.789062 C 57.976562 29.785156 58.210938 29.882812 58.476562 30.078125 C 58.75 30.28125 59.152344 30.457031 59.421875 30.496094 C 59.75 30.539062 59.929688 30.644531 60.28125 30.996094 L 60.589844 31.304688 L 60.679688 31.195312 C 60.730469 31.128906 60.851562 30.921875 60.957031 30.738281 Z M 42.257812 29.941406 C 42.449219 29.84375 42.652344 29.617188 42.917969 29.210938 C 43.175781 28.808594 43.238281 28.683594 43.578125 27.894531 C 43.902344 27.15625 44.132812 26.707031 44.378906 26.382812 C 44.621094 26.050781 44.671875 25.933594 44.722656 25.605469 C 44.828125 24.859375 45.390625 23.652344 45.777344 23.363281 C 46.007812 23.183594 46.109375 23.066406 46.109375 22.96875 C 46.109375 22.765625 45.519531 22.132812 45.167969 21.964844 C 44.964844 21.867188 44.765625 21.949219 44.449219 22.265625 C 44.179688 22.503906 44 22.824219 43.933594 23.175781 C 43.867188 23.582031 43.75 23.773438 43.140625 24.460938 C 42.613281 25.054688 42.582031 25.128906 42.535156 25.886719 C 42.472656 26.984375 42.40625 27.476562 42.121094 28.800781 C 41.957031 29.578125 41.910156 29.929688 41.972656 29.992188 C 42.015625 30.039062 42.101562 30.023438 42.257812 29.941406 Z M 55.679688 29.8125 C 55.757812 29.679688 55.847656 29.242188 55.917969 28.609375 C 56.0625 27.3125 56.128906 26.992188 56.292969 26.699219 C 56.40625 26.511719 56.59375 25.984375 56.710938 25.5625 C 56.765625 25.351562 56.867188 25.050781 56.9375 24.886719 C 57.144531 24.394531 57.171875 24.300781 57.230469 23.886719 C 57.316406 23.25 57.339844 22.605469 57.292969 22.257812 C 57.265625 22.0625 57.179688 21.773438 57.050781 21.460938 C 56.824219 20.902344 56.695312 20.429688 56.695312 20.1875 C 56.695312 20 56.609375 19.882812 56.503906 19.921875 C 56.410156 19.953125 56.199219 20.15625 56.027344 20.382812 C 55.855469 20.625 55.59375 20.789062 55.300781 20.84375 C 55.160156 20.867188 54.925781 20.957031 54.710938 21.070312 C 54.15625 21.363281 53.1875 21.976562 53.171875 22.046875 C 53.164062 22.078125 53.261719 22.253906 53.386719 22.433594 C 53.726562 22.925781 53.738281 22.988281 53.707031 23.859375 C 53.667969 24.957031 53.558594 25.628906 53.320312 26.175781 C 53.257812 26.320312 53.195312 26.519531 53.179688 26.621094 C 53.15625 26.777344 53.164062 26.808594 53.273438 26.914062 C 53.359375 27 53.4375 27.035156 53.605469 27.058594 C 53.945312 27.105469 54.140625 27.210938 54.46875 27.542969 C 54.839844 27.917969 54.945312 28.128906 55.109375 28.816406 C 55.226562 29.320312 55.371094 29.691406 55.492188 29.828125 C 55.578125 29.921875 55.613281 29.917969 55.679688 29.8125 Z M 51.804688 29.738281 C 51.859375 29.625 51.9375 29.039062 51.9375 28.738281 L 51.9375 28.550781 L 52.429688 28.578125 C 53.101562 28.609375 53.105469 28.609375 53.316406 28.109375 C 53.40625 27.890625 53.484375 27.695312 53.484375 27.671875 C 53.484375 27.546875 53.347656 27.394531 53.15625 27.300781 C 52.726562 27.097656 52.382812 27.117188 52.113281 27.363281 C 51.988281 27.480469 51.917969 27.515625 51.8125 27.515625 C 51.644531 27.515625 51.375 27.394531 51.195312 27.238281 C 50.792969 26.886719 50.394531 26.875 50.328125 27.21875 C 50.300781 27.382812 50.472656 27.785156 50.746094 28.191406 C 50.941406 28.476562 51.105469 28.816406 51.105469 28.933594 C 51.105469 28.984375 51.152344 29.046875 51.238281 29.097656 C 51.355469 29.164062 51.390625 29.222656 51.457031 29.4375 C 51.5625 29.785156 51.613281 29.867188 51.691406 29.851562 C 51.726562 29.84375 51.777344 29.792969 51.804688 29.738281 Z M 48.964844 28.09375 C 49.300781 28.003906 49.714844 27.777344 49.917969 27.578125 C 50.070312 27.429688 50.117188 27.351562 50.167969 27.140625 C 50.289062 26.664062 50.671875 25.863281 51.179688 25.054688 C 51.460938 24.601562 51.539062 24.371094 51.539062 24.003906 C 51.539062 23.550781 51.320312 23.089844 51.042969 22.953125 C 50.972656 22.917969 50.664062 22.875 50.257812 22.847656 C 49.929688 22.839844 49.605469 22.789062 49.292969 22.691406 C 49.019531 22.601562 48.976562 22.59375 48.753906 22.636719 C 48.617188 22.660156 48.242188 22.765625 47.914062 22.867188 C 47.585938 22.972656 47.195312 23.082031 47.039062 23.105469 C 46.585938 23.183594 46.484375 23.21875 46.226562 23.394531 C 45.53125 23.917969 45.121094 24.738281 45.125 25.609375 C 45.148438 26.03125 45.246094 26.183594 45.539062 26.269531 C 45.707031 26.316406 45.789062 26.375 45.9375 26.542969 C 46.210938 26.847656 46.359375 26.921875 46.832031 26.984375 C 47.308594 27.050781 47.429688 27.117188 47.617188 27.417969 C 47.851562 27.796875 48.054688 28.035156 48.183594 28.09375 C 48.347656 28.167969 48.691406 28.164062 48.964844 28.09375 Z M 34.429688 27.519531 C 35.484375 27.378906 36.046875 27.347656 37.214844 27.371094 C 38.332031 27.394531 38.609375 27.421875 39.113281 27.585938 C 39.289062 27.640625 39.339844 27.640625 39.363281 27.601562 C 39.382812 27.574219 39.410156 27.390625 39.421875 27.195312 C 39.4375 26.941406 39.472656 26.78125 39.539062 26.628906 C 39.640625 26.402344 39.746094 26.3125 40.085938 26.152344 C 40.359375 26.023438 40.46875 25.910156 40.507812 25.710938 C 40.535156 25.585938 40.566406 25.539062 40.664062 25.496094 C 40.8125 25.433594 40.875 25.308594 40.875 25.09375 C 40.875 24.828125 40.859375 24.824219 39.464844 24.777344 C 38.789062 24.757812 36.152344 24.738281 33.609375 24.738281 L 28.972656 24.738281 L 28.988281 25.761719 C 29.011719 26.929688 29.042969 27.109375 29.277344 27.3125 C 29.582031 27.582031 30.152344 27.636719 32.351562 27.617188 C 33.578125 27.605469 33.941406 27.589844 34.429688 27.519531 Z M 52.5 26.898438 C 52.800781 26.6875 53.082031 26.003906 53.203125 25.191406 C 53.273438 24.703125 53.296875 23.792969 53.25 23.386719 C 53.195312 22.9375 53.085938 22.683594 52.710938 22.121094 C 52.28125 21.472656 52.042969 21.242188 51.804688 21.242188 C 51.65625 21.242188 51.386719 21.449219 51.078125 21.808594 C 50.589844 22.367188 50.5625 22.488281 50.914062 22.539062 C 51.453125 22.609375 51.878906 23.417969 51.796875 24.222656 C 51.757812 24.597656 51.625 24.953125 51.371094 25.320312 C 51.117188 25.695312 50.984375 26.0625 50.984375 26.402344 C 50.988281 26.664062 51.023438 26.71875 51.261719 26.839844 C 51.566406 27 51.742188 27.039062 52.046875 27.023438 C 52.289062 27.011719 52.363281 26.992188 52.5 26.898438 Z M 67.332031 24.867188 C 67.339844 24.847656 67.332031 24.578125 67.316406 24.261719 C 67.214844 22.363281 67.109375 21.441406 66.960938 21.1875 C 66.902344 21.09375 66.863281 20.929688 66.835938 20.695312 C 66.792969 20.269531 66.742188 20.074219 66.664062 20.011719 C 66.617188 19.972656 66.578125 19.980469 66.441406 20.070312 C 66.15625 20.292969 65.917969 20.566406 65.734375 20.878906 C 65.671875 21.003906 65.449219 21.289062 65.234375 21.519531 C 64.777344 22.011719 64.664062 22.226562 64.664062 22.582031 C 64.664062 23.3125 65.300781 24.257812 65.804688 24.261719 C 65.9375 24.261719 66.050781 24.398438 66.050781 24.550781 C 66.050781 24.746094 66.128906 24.828125 66.351562 24.859375 C 66.625 24.894531 67.3125 24.898438 67.332031 24.867188 Z M 43.078125 24.089844 C 43.484375 23.679688 43.636719 23.429688 43.589844 23.226562 C 43.546875 23.023438 43.304688 22.871094 42.472656 22.519531 L 41.6875 22.183594 L 41.25 22.164062 C 40.75 22.144531 40.335938 22.210938 39.929688 22.375 C 39.625 22.496094 39.539062 22.484375 39.152344 22.277344 C 38.703125 22.03125 38.570312 22.015625 36.632812 22.078125 C 34.414062 22.144531 32.441406 22.09375 31.074219 21.9375 C 30.324219 21.851562 29.984375 21.769531 29.703125 21.617188 C 29.539062 21.523438 29.429688 21.484375 29.378906 21.5 C 29.175781 21.566406 29.0625 22.078125 28.984375 23.269531 C 28.960938 23.628906 28.941406 24 28.941406 24.085938 L 28.941406 24.25 L 31.867188 24.273438 C 34.503906 24.296875 35.429688 24.324219 36.929688 24.414062 C 37.191406 24.429688 38.601562 24.453125 40.058594 24.453125 L 42.710938 24.460938 Z M 47.164062 22.597656 C 47.222656 22.480469 47.183594 22.351562 46.992188 22.035156 C 46.839844 21.769531 46.742188 21.378906 46.742188 20.964844 C 46.738281 20.519531 46.679688 20.175781 46.558594 19.910156 L 46.445312 19.675781 L 46.445312 18.582031 C 46.449219 17.339844 46.5 16.867188 46.707031 16.21875 C 46.820312 15.867188 46.835938 15.773438 46.835938 15.367188 C 46.832031 14.917969 46.648438 13.285156 46.519531 12.582031 C 46.484375 12.390625 46.425781 12.183594 46.382812 12.109375 C 46.296875 11.96875 46.359375 11.972656 45.632812 12.066406 C 45.46875 12.089844 45.078125 12.105469 44.761719 12.109375 C 44.074219 12.113281 43.933594 12.152344 43.472656 12.46875 C 43.179688 12.671875 42.582031 13.242188 41.925781 13.941406 C 41.71875 14.164062 41.609375 14.25 41.488281 14.285156 C 41.273438 14.351562 41.023438 14.574219 40.910156 14.792969 C 40.828125 14.96875 40.824219 15.011719 40.847656 15.542969 C 40.863281 15.847656 40.898438 16.265625 40.929688 16.460938 C 41 16.863281 41.132812 17.335938 41.191406 17.371094 C 41.25 17.40625 41.429688 17.773438 41.429688 17.847656 C 41.429688 18.128906 42.015625 18.703125 44.644531 20.972656 C 45.96875 22.117188 46.320312 22.398438 46.605469 22.546875 C 46.976562 22.730469 47.09375 22.742188 47.164062 22.597656 Z M 49.980469 22.613281 C 50.195312 22.503906 50.191406 22.511719 50.6875 21.738281 C 51.109375 21.085938 51.609375 20.425781 51.960938 20.042969 C 52.324219 19.652344 52.445312 19.472656 52.492188 19.21875 C 52.535156 18.988281 52.628906 18.789062 52.859375 18.453125 C 53.03125 18.203125 53.097656 18.058594 53.140625 17.855469 C 53.15625 17.796875 53.269531 17.636719 53.394531 17.5 C 53.777344 17.074219 54.144531 16.222656 54.316406 15.351562 C 54.433594 14.75 54.597656 13.859375 54.621094 13.691406 C 54.644531 13.519531 54.636719 13.519531 54.199219 13.484375 C 53.917969 13.464844 53.777344 13.386719 53.679688 13.199219 C 53.507812 12.859375 53.367188 12.671875 53.011719 12.296875 C 52.265625 11.515625 52.238281 11.425781 52.589844 10.964844 C 52.941406 10.503906 53.191406 10.042969 53.367188 9.535156 C 53.460938 9.273438 53.464844 9.148438 53.378906 8.949219 C 53.34375 8.867188 53.300781 8.632812 53.28125 8.429688 C 53.226562 7.847656 53.0625 7.621094 52.65625 7.558594 C 52.472656 7.53125 52.359375 7.445312 52.203125 7.210938 C 52.105469 7.070312 51.960938 7.074219 51.734375 7.222656 C 51.367188 7.460938 51.082031 7.875 50.558594 8.929688 L 50.132812 9.785156 L 50.132812 11.15625 C 50.132812 12.199219 50.121094 12.554688 50.082031 12.648438 C 49.515625 13.6875 49.195312 14.839844 49.132812 16.023438 C 49.109375 16.570312 49.113281 16.582031 49.226562 16.835938 L 49.335938 17.09375 L 49.363281 19.21875 C 49.382812 20.386719 49.410156 21.621094 49.433594 21.957031 C 49.472656 22.515625 49.484375 22.582031 49.5625 22.644531 C 49.671875 22.734375 49.746094 22.730469 49.980469 22.613281 Z M 43.867188 22.402344 C 44.046875 22.316406 44.761719 21.667969 44.761719 21.597656 C 44.761719 21.554688 42.125 19.113281 41.640625 18.710938 L 41.234375 18.371094 L 41.054688 17.957031 C 40.757812 17.28125 40.488281 16.417969 40.433594 15.988281 C 40.296875 14.875 40.789062 12.886719 41.363281 12.238281 C 41.484375 12.101562 41.554688 11.984375 41.570312 11.882812 C 41.617188 11.59375 41.726562 11.421875 42.175781 10.941406 C 43.074219 9.984375 43.839844 8.816406 43.914062 8.285156 C 43.933594 8.140625 43.921875 8.097656 43.835938 7.996094 C 43.75 7.898438 43.710938 7.882812 43.523438 7.886719 C 43.285156 7.886719 42.960938 8.015625 42.65625 8.238281 C 42.023438 8.691406 41.65625 8.734375 40.417969 8.492188 C 39.503906 8.316406 39.570312 8.296875 38.988281 8.859375 C 38.765625 9.070312 38.53125 9.25 38.390625 9.328125 C 38.257812 9.390625 38.105469 9.5 38.046875 9.570312 C 37.921875 9.71875 37.347656 10.855469 37.074219 11.5 C 36.960938 11.761719 36.84375 12.097656 36.808594 12.253906 C 36.722656 12.617188 36.640625 12.800781 36.429688 13.058594 C 36.101562 13.464844 36.039062 13.558594 35.980469 13.765625 C 35.886719 14.0625 35.945312 14.304688 36.269531 15 C 36.417969 15.324219 36.609375 15.777344 36.6875 16.003906 C 36.867188 16.53125 36.875 16.8125 36.726562 17.464844 C 36.550781 18.257812 36.34375 18.746094 36.050781 19.074219 C 35.742188 19.421875 35.777344 19.539062 36.253906 19.71875 L 38.199219 20.480469 C 39.113281 20.839844 40.523438 21.382812 41.328125 21.683594 C 42.132812 21.984375 42.878906 22.292969 42.980469 22.359375 C 43.3125 22.574219 43.507812 22.582031 43.867188 22.402344 Z M 48.378906 22.339844 C 48.496094 22.257812 48.707031 22.082031 48.851562 21.945312 L 49.117188 21.699219 L 49.042969 20.371094 C 48.921875 18.242188 48.871094 16.464844 48.898438 15.300781 L 48.921875 14.21875 L 48.8125 14.234375 C 48.039062 14.363281 47.609375 14.371094 47.421875 14.25 C 47.351562 14.207031 47.277344 14.183594 47.261719 14.195312 C 47.25 14.210938 47.226562 14.59375 47.214844 15.039062 C 47.191406 15.890625 47.171875 16.011719 46.988281 16.320312 C 46.828125 16.601562 46.695312 17.269531 46.621094 18.246094 C 46.554688 19.144531 46.601562 19.417969 46.953125 20.121094 C 47.167969 20.535156 47.195312 20.703125 47.09375 20.925781 C 46.976562 21.1875 46.988281 21.355469 47.152344 21.699219 C 47.328125 22.074219 47.511719 22.332031 47.671875 22.4375 C 47.855469 22.5625 48.117188 22.523438 48.378906 22.339844 Z M 40.277344 21.957031 C 40.445312 21.867188 40.339844 21.691406 40.023438 21.527344 C 39.9375 21.484375 39.621094 21.367188 39.328125 21.261719 C 39.035156 21.160156 38.625 20.996094 38.417969 20.898438 C 38.210938 20.796875 37.78125 20.632812 37.464844 20.527344 C 36.804688 20.3125 36.730469 20.28125 36.589844 20.132812 C 36.359375 19.886719 35.652344 19.875 35.125 20.113281 C 34.851562 20.261719 34.539062 20.335938 34.226562 20.328125 C 33.914062 20.328125 33.816406 20.304688 33.816406 20.230469 C 33.816406 20.144531 33.5 19.890625 33.230469 19.761719 C 32.859375 19.585938 32.671875 19.582031 31.953125 19.734375 C 31.289062 19.875 30.835938 19.902344 30.59375 19.816406 C 30.511719 19.789062 30.332031 19.671875 30.203125 19.550781 C 29.921875 19.296875 29.796875 19.253906 29.695312 19.359375 C 29.582031 19.476562 29.492188 19.867188 29.46875 20.371094 C 29.449219 20.777344 29.457031 20.847656 29.527344 20.984375 C 29.699219 21.328125 29.867188 21.390625 30.785156 21.460938 C 31.578125 21.523438 31.898438 21.578125 32.628906 21.753906 C 32.902344 21.820312 33.347656 21.90625 33.617188 21.941406 C 34.105469 22.011719 34.109375 22.011719 35.222656 21.90625 C 36.449219 21.789062 36.960938 21.695312 37.261719 21.539062 C 37.507812 21.417969 37.550781 21.417969 37.695312 21.539062 C 37.859375 21.679688 37.992188 21.71875 38.398438 21.761719 C 38.597656 21.78125 38.953125 21.855469 39.191406 21.917969 C 39.539062 22.042969 39.917969 22.054688 40.277344 21.957031 Z M 53.5 21.394531 C 54.019531 21.023438 54.632812 20.6875 55.007812 20.558594 C 55.261719 20.472656 55.601562 20.253906 55.980469 19.929688 C 56.363281 19.601562 56.664062 19.40625 57.027344 19.238281 C 57.300781 19.113281 57.488281 18.953125 57.488281 18.839844 C 57.488281 18.742188 57.648438 18.589844 57.871094 18.488281 C 58.175781 18.339844 58.402344 18.117188 58.539062 17.816406 C 58.832031 17.160156 58.925781 16.992188 59.140625 16.738281 C 59.375 16.457031 59.859375 16.035156 60.367188 15.664062 C 60.6875 15.429688 60.980469 15.078125 61.242188 14.613281 C 61.585938 14.003906 61.65625 13.679688 61.480469 13.5625 C 61.320312 13.457031 60.679688 13.40625 60.1875 13.453125 C 59.5 13.523438 59.414062 13.578125 59.046875 14.214844 C 58.660156 14.878906 58.476562 15.121094 58.085938 15.496094 C 57.648438 15.910156 57.386719 16.070312 57.023438 16.144531 C 56.691406 16.214844 56.414062 16.347656 55.535156 16.847656 C 55.050781 17.144531 54.546875 17.40625 54.023438 17.628906 C 53.625 17.757812 52.972656 18.652344 52.96875 19.070312 C 52.96875 19.253906 52.867188 19.421875 52.597656 19.707031 C 52.355469 19.960938 51.925781 20.523438 51.878906 20.652344 C 51.863281 20.691406 52.03125 20.882812 52.390625 21.234375 C 52.683594 21.523438 52.933594 21.757812 52.949219 21.757812 C 52.964844 21.757812 53.214844 21.59375 53.5 21.394531 Z M 35.058594 19.789062 C 35.300781 19.707031 35.472656 19.535156 35.503906 19.34375 C 35.546875 19.09375 35.609375 18.976562 35.828125 18.730469 C 35.957031 18.585938 36.039062 18.457031 36.039062 18.398438 C 36.039062 18.28125 35.898438 18.1875 35.722656 18.1875 C 35.472656 18.1875 35.058594 18.074219 34.722656 17.917969 C 34.398438 17.773438 34.390625 17.769531 33.878906 17.769531 C 33.457031 17.765625 33.339844 17.753906 33.226562 17.691406 C 33.039062 17.589844 32.332031 16.894531 32.257812 16.738281 C 32.160156 16.542969 32.171875 16.207031 32.285156 15.996094 C 32.355469 15.859375 32.425781 15.796875 32.625 15.6875 C 32.820312 15.585938 32.886719 15.523438 32.933594 15.414062 C 33.027344 15.195312 32.949219 14.910156 32.734375 14.667969 C 32.527344 14.425781 32.128906 14.136719 32.019531 14.136719 C 31.953125 14.136719 31.878906 14.214844 31.722656 14.453125 C 31.117188 15.476562 30.613281 16.550781 30.210938 17.667969 C 30.019531 18.332031 30 18.378906 29.890625 18.480469 C 29.667969 18.683594 29.746094 19.097656 30.011719 19.097656 C 30.128906 19.097656 30.527344 19.285156 30.527344 19.335938 C 30.527344 19.355469 30.59375 19.414062 30.675781 19.460938 C 30.933594 19.625 31.257812 19.578125 32.390625 19.234375 C 32.796875 19.113281 32.902344 19.128906 33.25 19.394531 C 33.527344 19.597656 33.6875 19.6875 33.976562 19.777344 C 34.261719 19.871094 34.808594 19.878906 35.058594 19.789062 Z M 36.230469 17.683594 C 36.480469 17.382812 36.613281 16.804688 36.515625 16.496094 C 36.488281 16.410156 36.414062 16.261719 36.355469 16.160156 C 36.242188 15.972656 36.203125 15.875 36.097656 15.453125 C 36.066406 15.316406 35.929688 14.980469 35.804688 14.710938 C 35.671875 14.441406 35.535156 14.128906 35.496094 14.011719 C 35.390625 13.714844 35.21875 13.539062 35.023438 13.539062 C 34.84375 13.539062 34.761719 13.59375 34.433594 13.914062 C 34.300781 14.039062 34.054688 14.25 33.886719 14.382812 C 33.558594 14.632812 33.34375 14.886719 33.34375 15.023438 C 33.34375 15.1875 33.136719 15.546875 32.832031 15.917969 C 32.335938 16.53125 32.355469 16.457031 32.601562 16.761719 C 32.71875 16.898438 32.925781 17.117188 33.0625 17.246094 C 33.351562 17.511719 33.464844 17.53125 33.777344 17.371094 C 34.011719 17.253906 34.171875 17.246094 34.296875 17.347656 C 34.546875 17.539062 34.824219 17.636719 35.464844 17.75 C 36.058594 17.855469 36.09375 17.851562 36.230469 17.683594 Z M 54.644531 17.011719 C 54.800781 16.929688 55.320312 16.644531 55.792969 16.371094 C 56.605469 15.90625 56.855469 15.785156 57.289062 15.628906 C 57.726562 15.472656 58.394531 14.828125 58.71875 14.238281 C 58.832031 14.039062 59.035156 13.707031 59.171875 13.5 C 59.609375 12.832031 59.710938 12.539062 59.570312 12.324219 C 59.507812 12.234375 59.480469 12.222656 59.328125 12.242188 C 59.214844 12.253906 59.066406 12.316406 58.902344 12.425781 C 58.632812 12.597656 58.40625 12.6875 58.117188 12.726562 C 57.597656 12.792969 56.621094 13.457031 56.554688 13.785156 C 56.519531 13.953125 56.402344 14.078125 56.199219 14.171875 C 55.992188 14.265625 55.886719 14.390625 55.792969 14.632812 C 55.730469 14.808594 55.695312 14.84375 55.515625 14.929688 C 55.0625 15.148438 54.582031 15.679688 54.515625 16.042969 C 54.492188 16.15625 54.402344 16.417969 54.316406 16.621094 C 54.226562 16.828125 54.15625 17.03125 54.15625 17.074219 C 54.15625 17.195312 54.316406 17.171875 54.644531 17.011719 Z M 62.742188 16.914062 C 62.832031 16.894531 63.1875 16.851562 63.539062 16.816406 C 64.261719 16.746094 64.5 16.703125 64.863281 16.589844 C 65.09375 16.515625 65.417969 16.375 65.417969 16.347656 C 65.417969 16.316406 64.769531 15.117188 64.515625 14.679688 C 63.949219 13.695312 63.320312 12.785156 63.167969 12.730469 C 63.082031 12.695312 62.917969 12.800781 62.675781 13.050781 C 62.253906 13.476562 61.914062 13.976562 61.675781 14.523438 C 61.554688 14.828125 61.332031 15.167969 61.09375 15.425781 C 60.746094 15.792969 60.648438 16.171875 60.828125 16.4375 C 60.96875 16.648438 61.125 16.714844 61.566406 16.761719 C 61.996094 16.800781 62.121094 16.835938 62.273438 16.953125 C 62.347656 17.015625 62.390625 17.023438 62.472656 16.992188 C 62.527344 16.96875 62.648438 16.933594 62.742188 16.914062 Z M 55.09375 14.796875 C 55.148438 14.746094 55.234375 14.628906 55.28125 14.53125 C 55.347656 14.398438 55.414062 14.332031 55.558594 14.25 C 55.78125 14.136719 56.007812 13.875 56.300781 13.394531 C 56.589844 12.917969 56.800781 12.445312 56.851562 12.148438 C 56.902344 11.890625 56.9375 11.800781 57.167969 11.386719 C 57.328125 11.09375 57.367188 10.816406 57.261719 10.683594 C 57.082031 10.464844 56.789062 10.703125 56.472656 11.328125 C 56.347656 11.574219 56.003906 12.195312 55.710938 12.707031 C 54.890625 14.128906 54.761719 14.363281 54.710938 14.554688 C 54.667969 14.710938 54.667969 14.742188 54.730469 14.8125 C 54.828125 14.914062 54.960938 14.910156 55.09375 14.796875 Z M 33.421875 14.3125 C 33.484375 14.277344 33.761719 14.0625 34.039062 13.835938 C 34.71875 13.269531 34.75 13.253906 35.292969 13.269531 L 35.730469 13.28125 L 35.964844 13.027344 C 36.121094 12.855469 36.257812 12.652344 36.390625 12.371094 C 36.582031 11.976562 36.628906 11.84375 36.871094 11.050781 C 36.957031 10.757812 37.027344 10.609375 37.109375 10.523438 C 37.175781 10.453125 37.226562 10.359375 37.226562 10.3125 C 37.226562 10.164062 37.613281 9.699219 38.289062 9.035156 C 39.015625 8.320312 39.1875 8.101562 39.15625 7.929688 C 39.121094 7.765625 38.992188 7.605469 38.847656 7.539062 C 38.730469 7.492188 38.703125 7.5 38.460938 7.625 C 38.316406 7.699219 37.777344 8.039062 37.265625 8.382812 C 36.203125 9.09375 35.847656 9.402344 34.53125 10.746094 C 33.5 11.792969 33.132812 12.21875 32.984375 12.523438 C 32.921875 12.65625 32.785156 12.871094 32.675781 13.003906 C 32.414062 13.320312 32.3125 13.523438 32.3125 13.71875 C 32.3125 13.929688 32.421875 14.058594 32.746094 14.234375 C 33.035156 14.386719 33.234375 14.410156 33.421875 14.3125 Z M 41.539062 14.03125 C 41.589844 14 41.691406 13.847656 41.769531 13.6875 C 41.886719 13.453125 42.007812 13.304688 42.4375 12.882812 C 42.792969 12.523438 43.023438 12.324219 43.175781 12.25 C 43.671875 12 44.355469 11.832031 44.894531 11.832031 C 45.464844 11.832031 45.921875 11.6875 46.199219 11.414062 C 46.371094 11.25 46.382812 11.164062 46.246094 11.039062 C 46.117188 10.914062 46.082031 10.707031 46.160156 10.539062 C 46.222656 10.40625 46.246094 10.394531 46.542969 10.34375 C 46.621094 10.332031 46.75 10.277344 46.832031 10.222656 C 47.199219 9.976562 48.019531 9.800781 48.726562 9.8125 L 49.398438 9.820312 C 49.78125 9.824219 49.902344 9.679688 50.210938 8.890625 C 50.421875 8.363281 50.621094 8.015625 51.027344 7.476562 C 51.457031 6.917969 51.449219 6.933594 51.292969 6.816406 C 50.882812 6.515625 50.492188 6.480469 50.015625 6.695312 C 49.238281 7.039062 48.929688 7.097656 48.230469 7.039062 C 47.425781 6.96875 46.351562 7.117188 45.429688 7.425781 C 44.855469 7.617188 44.347656 7.867188 44.257812 8.003906 C 44.222656 8.0625 44.148438 8.3125 44.097656 8.554688 C 43.941406 9.332031 43.570312 9.945312 42.699219 10.898438 C 42.125 11.527344 41.769531 12.003906 41.628906 12.34375 C 41.566406 12.507812 41.414062 12.78125 41.296875 12.960938 C 41.164062 13.152344 41.054688 13.378906 41.015625 13.519531 C 40.949219 13.738281 40.949219 13.773438 41.011719 13.910156 C 41.101562 14.136719 41.308594 14.183594 41.539062 14.03125 Z M 48.398438 13.996094 C 49.164062 13.875 49.332031 13.699219 49.675781 12.671875 C 49.902344 11.992188 49.976562 11.507812 49.921875 11.128906 C 49.84375 10.640625 49.609375 10.277344 49.265625 10.105469 C 48.84375 9.898438 48.441406 9.9375 47.792969 10.242188 C 47.425781 10.414062 47.101562 10.523438 46.9375 10.523438 C 46.570312 10.523438 46.511719 10.800781 46.667969 11.847656 C 46.832031 12.976562 47.007812 13.519531 47.304688 13.804688 C 47.582031 14.070312 47.75 14.101562 48.398438 13.996094 Z M 54.863281 13.167969 C 55.050781 13.035156 55.28125 12.710938 55.699219 12.011719 C 56.335938 10.941406 56.570312 10.351562 56.515625 9.96875 C 56.472656 9.671875 56.347656 9.492188 55.902344 9.050781 C 55.703125 8.824219 55.464844 8.636719 55.203125 8.492188 C 54.9375 8.363281 54.917969 8.359375 54.351562 8.34375 L 53.773438 8.332031 L 53.75 8.917969 C 53.710938 9.765625 53.644531 9.957031 53.019531 10.945312 C 52.835938 11.242188 52.691406 11.496094 52.699219 11.515625 C 52.722656 11.578125 53.847656 12.824219 54.039062 12.996094 C 54.398438 13.320312 54.59375 13.363281 54.863281 13.167969 Z M 62.03125 13.148438 C 62.160156 13.058594 62.414062 12.835938 62.601562 12.652344 L 62.933594 12.308594 L 62.761719 12.121094 C 61.972656 11.28125 61.75 11.078125 61.589844 11.078125 C 61.546875 11.078125 61.3125 11.207031 61.074219 11.359375 C 60.230469 11.910156 60.144531 12.027344 60.144531 12.609375 C 60.144531 13.15625 60.148438 13.15625 61.015625 13.242188 C 61.785156 13.320312 61.769531 13.320312 62.03125 13.148438 Z M 57.546875 12.625 C 57.90625 12.554688 58.097656 12.484375 58.625 12.222656 C 58.964844 12.054688 59.195312 11.972656 59.398438 11.9375 C 59.730469 11.875 59.878906 11.808594 60.042969 11.636719 C 60.109375 11.570312 60.226562 11.496094 60.304688 11.476562 C 60.46875 11.429688 60.949219 11.121094 61.210938 10.890625 L 61.378906 10.738281 L 60.8125 10.160156 C 60.226562 9.566406 59.898438 9.292969 59.570312 9.113281 C 59.347656 8.996094 59.207031 8.984375 59.074219 9.082031 C 58.890625 9.203125 58.421875 9.648438 58.148438 9.957031 C 57.777344 10.375 57.683594 10.542969 57.640625 10.886719 C 57.621094 11.0625 57.5625 11.265625 57.484375 11.421875 C 57.410156 11.574219 57.320312 11.867188 57.265625 12.140625 C 57.148438 12.703125 57.148438 12.71875 57.242188 12.691406 Z M 57.519531 9.996094 C 57.976562 9.722656 58.800781 8.90625 58.859375 8.664062 C 58.890625 8.542969 58.851562 8.503906 58.445312 8.226562 C 56.796875 7.191406 55.03125 6.347656 53.191406 5.722656 C 52.144531 5.386719 51.320312 5.296875 50.9375 5.46875 C 50.730469 5.5625 50.589844 5.75 50.589844 5.925781 C 50.589844 6.078125 50.777344 6.214844 51.175781 6.332031 C 51.613281 6.46875 51.8125 6.570312 52.351562 6.929688 C 52.59375 7.089844 52.839844 7.234375 52.898438 7.25 C 52.964844 7.261719 53.113281 7.371094 53.238281 7.484375 C 53.566406 7.785156 53.664062 7.828125 54.199219 7.867188 C 54.710938 7.90625 54.785156 7.925781 55.007812 8.078125 C 55.09375 8.136719 55.253906 8.207031 55.367188 8.238281 C 55.636719 8.320312 55.90625 8.492188 56.179688 8.765625 C 56.570312 9.164062 56.851562 9.648438 56.851562 9.929688 C 56.851562 10.195312 57.128906 10.222656 57.519531 9.996094 Z M 41.867188 8.234375 C 41.984375 8.199219 42.183594 8.101562 42.304688 8.011719 C 42.570312 7.828125 42.964844 7.6875 43.398438 7.625 C 43.839844 7.558594 44.335938 7.433594 44.675781 7.296875 C 45.371094 7.019531 46.386719 6.84375 47.652344 6.789062 C 48.761719 6.738281 49.078125 6.671875 49.632812 6.367188 C 50.097656 6.113281 50.308594 5.839844 50.3125 5.488281 C 50.3125 5.152344 50.234375 5.113281 49.5 5.042969 C 48.207031 4.917969 46.820312 4.957031 45.59375 5.144531 C 44.121094 5.375 42.183594 5.824219 41.96875 5.988281 C 41.894531 6.046875 41.503906 6.191406 41.078125 6.3125 C 40.621094 6.449219 40.417969 6.542969 40.296875 6.679688 C 40.25 6.730469 40.0625 6.816406 39.863281 6.886719 C 39.484375 7.007812 39.328125 7.125 39.328125 7.289062 C 39.328125 7.65625 39.898438 8.136719 40.480469 8.253906 L 40.777344 8.316406 C 40.933594 8.355469 41.652344 8.296875 41.867188 8.234375 Z M 41.867188 8.234375 "
    />
  </g>
</svg>
