<svg xmlns="http://www.w3.org/2000/svg" id="root" viewBox="0 0 100 108">
  <path
    d="M 0.355469 107.945312 L 0 107.882812 L 0.253906 107.703125 C 0.394531 107.601562 0.699219 107.390625 0.941406 107.21875 C 1.519531 106.824219 1.855469 106.273438 2.433594 104.78125 C 2.898438 103.613281 4.703125 99.121094 6.246094 95.34375 C 7.15625 93.109375 8.160156 91.015625 8.566406 90.519531 C 8.730469 90.300781 9.195312 89.90625 9.589844 89.644531 C 10.300781 89.160156 10.332031 89.152344 11.042969 89.171875 C 13.199219 89.210938 16.128906 90.742188 17.914062 92.746094 C 19.210938 94.195312 19.3125 94.699219 18.625 96.089844 C 18.230469 96.875 16.808594 98.980469 15.359375 100.933594 C 14.976562 101.457031 14.152344 102.625 13.546875 103.523438 C 12.925781 104.429688 11.972656 105.796875 11.425781 106.574219 L 10.421875 107.984375 L 5.566406 107.992188 C 2.898438 108.003906 0.546875 107.984375 0.355469 107.945312 Z M 14.222656 100.742188 C 14.296875 100.371094 13.535156 99.070312 12.785156 98.296875 C 11.457031 96.90625 9.964844 96.128906 8.566406 96.109375 C 7.917969 96.101562 7.726562 96.140625 7.207031 96.402344 C 6.265625 96.875 6.328125 97.136719 7.492188 97.46875 C 10.097656 98.214844 11.089844 98.699219 12.773438 100.027344 C 13.445312 100.550781 14.03125 100.976562 14.09375 100.953125 C 14.144531 100.933594 14.214844 100.832031 14.222656 100.742188 Z M 79.335938 107.933594 C 77.136719 107.851562 76.921875 107.8125 76.851562 107.441406 C 76.609375 106.210938 76.414062 105.789062 74.328125 101.992188 C 72.523438 98.71875 70.890625 95.515625 70.636719 94.75 C 70.332031 93.863281 70.351562 93.601562 70.777344 92.515625 C 71.050781 91.820312 71.164062 91.367188 71.203125 90.8125 C 71.253906 89.898438 71.113281 89.445312 70.109375 87.238281 C 68.496094 83.703125 68.457031 83.574219 68.992188 83.5625 C 69.621094 83.5625 71.183594 81.597656 72.238281 79.484375 C 72.753906 78.445312 73.019531 77.761719 73.25 76.875 C 73.414062 76.210938 73.578125 75.648438 73.605469 75.628906 C 73.726562 75.507812 74.203125 75.859375 75.289062 76.84375 C 75.929688 77.429688 76.679688 78.144531 76.960938 78.4375 L 77.480469 78.980469 L 77.804688 80.589844 C 78.269531 82.886719 78.625 84.347656 78.839844 84.851562 C 78.949219 85.101562 79.40625 85.675781 79.882812 86.171875 C 80.519531 86.824219 80.753906 87.148438 80.796875 87.398438 C 80.824219 87.589844 80.945312 88.515625 81.058594 89.453125 C 81.261719 91.09375 81.707031 94.105469 81.828125 94.652344 C 81.871094 94.839844 81.820312 94.992188 81.617188 95.222656 C 81.332031 95.558594 80.21875 96.292969 79.4375 96.644531 C 78.636719 97.015625 75.230469 100.230469 75.230469 100.613281 C 75.230469 100.832031 75.757812 100.792969 76.40625 100.53125 C 77.671875 100.027344 79.152344 99 80.714844 97.550781 C 81.800781 96.542969 82.226562 96.25 82.367188 96.414062 C 82.46875 96.511719 83.308594 98.871094 84.578125 102.546875 C 85.582031 105.496094 86.085938 106.746094 86.359375 107.007812 C 86.484375 107.117188 86.785156 107.257812 87.03125 107.320312 C 87.273438 107.371094 87.515625 107.460938 87.578125 107.519531 C 87.984375 107.921875 84.273438 108.105469 79.335938 107.933594 Z M 73.050781 92.789062 C 74.40625 91.890625 78.453125 88.769531 79.367188 87.902344 C 79.933594 87.359375 79.972656 87.1875 79.496094 87.1875 C 78.535156 87.1875 76.851562 87.964844 75.625 88.960938 C 74.550781 89.847656 72.53125 91.832031 71.972656 92.554688 C 71.082031 93.734375 71.476562 93.816406 73.050781 92.789062 Z M 19.132812 92.363281 C 18.636719 91.519531 18.097656 90.914062 17.257812 90.25 C 15.9375 89.222656 14.074219 88.398438 13.027344 88.398438 C 12.085938 88.398438 12.035156 88.214844 12.613281 87.015625 C 12.894531 86.433594 14.621094 83.179688 14.792969 82.886719 C 14.800781 82.878906 15.511719 82.917969 16.375 82.96875 C 19.476562 83.140625 19.992188 83.332031 21.644531 84.921875 C 23.1875 86.390625 23.429688 86.332031 22.597656 84.671875 C 22.265625 84.015625 21.949219 83.550781 21.492188 83.097656 C 20.316406 81.910156 19.019531 81.539062 16.757812 81.738281 C 16.078125 81.800781 15.503906 81.832031 15.480469 81.800781 C 15.421875 81.75 17.40625 78.164062 18.21875 76.84375 C 18.605469 76.222656 19.34375 74.953125 19.863281 74.027344 L 20.804688 72.332031 L 21.464844 72.355469 C 22.75 72.394531 25.050781 73.050781 26.421875 73.753906 C 26.867188 73.996094 27.597656 74.570312 28.632812 75.507812 C 29.484375 76.28125 30.242188 76.914062 30.324219 76.914062 C 30.8125 76.914062 30.101562 75.203125 28.996094 73.742188 C 28.195312 72.6875 26.867188 71.355469 26.351562 71.09375 C 25.214844 70.519531 23.5 70.421875 22.558594 70.851562 C 21.738281 71.246094 21.574219 71.105469 21.949219 70.371094 C 22.222656 69.835938 22.214844 69.675781 21.789062 68.457031 L 21.414062 67.398438 L 22.964844 64.027344 C 25.722656 58.011719 25.84375 57.621094 25.832031 54.960938 C 25.824219 53.140625 25.742188 52.285156 25.132812 47.609375 C 24.738281 44.578125 24.75 44.417969 25.285156 44.144531 C 25.710938 43.925781 27.890625 43.722656 28.265625 43.863281 C 28.613281 44.003906 28.621094 44.214844 28.296875 45.144531 C 27.953125 46.109375 27.890625 46.863281 28.023438 48.585938 C 28.085938 49.414062 28.183594 50.964844 28.246094 52.042969 C 28.328125 53.570312 28.378906 54.035156 28.511719 54.175781 C 28.589844 54.265625 28.945312 54.4375 29.289062 54.550781 C 30.0625 54.800781 32.695312 55.363281 33.113281 55.363281 C 33.316406 55.363281 33.519531 55.464844 33.699219 55.648438 C 34.003906 55.949219 34.054688 56.140625 34.359375 58.375 C 34.523438 59.542969 34.625 59.726562 34.917969 59.453125 C 35.222656 59.179688 35.496094 58.4375 35.789062 57.078125 L 36.0625 55.816406 L 38.871094 55.816406 C 41.121094 55.816406 41.863281 55.777344 42.632812 55.636719 C 44.984375 55.203125 46.609375 54.5 48.058594 53.300781 C 48.5625 52.886719 49 52.546875 49.03125 52.546875 C 49.164062 52.546875 49.222656 53.019531 49.222656 54.054688 C 49.222656 54.640625 49.273438 55.292969 49.335938 55.515625 C 49.527344 56.222656 50.753906 57.308594 53.25 58.980469 C 54.628906 59.90625 55.207031 60.480469 55.207031 60.921875 C 55.207031 61.507812 55.753906 62.140625 57.191406 63.21875 C 58.136719 63.925781 59.339844 65.023438 59.414062 65.242188 C 59.492188 65.496094 59.300781 65.796875 58.042969 67.410156 C 56.726562 69.082031 55.214844 71.296875 54.304688 72.886719 C 53.613281 74.085938 53.167969 75.132812 53.308594 75.265625 C 53.601562 75.554688 57.730469 71.335938 60.570312 67.832031 C 61.664062 66.484375 61.398438 66.511719 62.910156 67.511719 C 63.882812 68.15625 65.363281 69.414062 69.09375 72.785156 C 70.21875 73.8125 71.234375 74.710938 71.335938 74.78125 C 71.730469 75.054688 71.46875 76.535156 70.65625 78.699219 C 70.25 79.777344 68.578125 83.078125 68.253906 83.441406 C 67.765625 83.964844 67.523438 83.886719 59.917969 80.511719 C 53.875 77.84375 52.101562 76.914062 48.738281 74.671875 C 45.835938 72.738281 45.421875 72.566406 44.5 72.949219 C 43.757812 73.261719 43.078125 73.109375 41.242188 72.253906 C 39.539062 71.457031 39.042969 71.277344 38.496094 71.277344 C 38.070312 71.277344 37.503906 71.570312 37.097656 72 C 36.710938 72.40625 34.898438 74.699219 33.691406 76.3125 C 32.472656 77.921875 31.722656 78.800781 29.714844 80.945312 C 24.972656 86.019531 23.949219 87.25 21.839844 90.441406 C 20.753906 92.09375 20.085938 92.828125 19.6875 92.828125 C 19.464844 92.828125 19.355469 92.738281 19.132812 92.363281 Z M 47.925781 71.226562 C 49.132812 70.734375 51.058594 68.738281 52.722656 66.3125 C 54.351562 63.894531 55.0625 62.050781 54.128906 62.667969 C 53.976562 62.765625 52.832031 63.863281 51.597656 65.101562 C 49.589844 67.128906 49.316406 67.359375 49.0625 67.328125 L 48.765625 67.296875 L 48.65625 66.140625 C 48.511719 64.761719 48.289062 63.84375 47.53125 61.546875 L 46.953125 59.816406 L 47.589844 59.132812 C 49.039062 57.570312 48.960938 57.148438 47.386719 58.09375 C 46.910156 58.386719 46.40625 58.617188 46.230469 58.628906 C 45.949219 58.636719 45.929688 58.617188 45.949219 58.285156 C 46.019531 56.804688 46 56.472656 45.835938 56.230469 C 45.675781 55.980469 45.625 55.96875 44.730469 55.96875 C 44.226562 55.96875 43.394531 56.039062 42.886719 56.121094 C 42.074219 56.242188 41.945312 56.300781 41.679688 56.582031 C 41.394531 56.894531 41.394531 56.925781 41.4375 57.820312 C 41.488281 58.769531 41.699219 59.542969 42.046875 60.027344 L 42.246094 60.300781 L 41.851562 60.46875 C 41.519531 60.621094 41.113281 60.640625 38.832031 60.640625 C 34.695312 60.621094 33.875 60.492188 30.070312 59.292969 C 28.683594 58.847656 27.515625 58.488281 27.476562 58.488281 C 27.445312 58.488281 27.445312 58.726562 27.476562 59.019531 C 27.566406 59.746094 27.363281 60.722656 26.605469 63.140625 C 26.269531 64.207031 25.925781 65.363281 25.832031 65.71875 C 25.652344 66.460938 25.488281 66.59375 24.707031 66.675781 C 23.867188 66.765625 22.660156 67.378906 22.660156 67.703125 C 22.660156 67.902344 22.933594 67.964844 24.300781 68.054688 C 26.472656 68.203125 27.527344 68.445312 31.785156 69.765625 C 35.839844 71.023438 37.160156 71.316406 37.160156 70.933594 C 37.160156 70.691406 35.769531 69.585938 35.324219 69.464844 C 35.089844 69.402344 34.015625 69.011719 32.921875 68.585938 C 30.691406 67.742188 29.636719 67.390625 27.921875 66.9375 C 27.28125 66.765625 26.695312 66.59375 26.613281 66.542969 C 26.511719 66.484375 26.632812 66.199219 27.109375 65.324219 C 27.457031 64.691406 28.011719 63.613281 28.347656 62.917969 C 28.683594 62.222656 29.039062 61.496094 29.128906 61.304688 C 29.269531 61.015625 29.363281 60.953125 29.675781 60.921875 C 29.878906 60.902344 30.417969 61.003906 30.863281 61.144531 C 31.308594 61.285156 32.585938 61.589844 33.699219 61.832031 L 35.738281 62.261719 L 35.6875 63.320312 C 35.648438 63.90625 35.554688 65.222656 35.476562 66.261719 C 35.324219 68.183594 35.375 68.71875 35.667969 68.597656 C 35.871094 68.527344 36.277344 67.730469 36.53125 66.945312 C 36.652344 66.582031 36.976562 65.375 37.269531 64.257812 L 37.796875 62.210938 L 39.144531 62.210938 C 40.910156 62.210938 42.339844 61.992188 44.144531 61.449219 C 44.945312 61.207031 45.625 61.023438 45.65625 61.042969 C 45.726562 61.125 47.105469 64.742188 47.660156 66.34375 C 48.046875 67.429688 48.210938 68.054688 48.210938 68.40625 C 48.210938 69 47.894531 69.726562 47.359375 70.351562 C 47.023438 70.761719 46.902344 71.144531 47.0625 71.308594 C 47.175781 71.417969 47.550781 71.386719 47.925781 71.226562 Z M 47.925781 71.226562 "
  />
  <path
    d="M 34.320312 54.386719 C 33.457031 54.328125 31.226562 54.046875 30.851562 53.945312 C 30.558594 53.875 30.457031 53.785156 30.375 53.523438 C 30 52.363281 29.1875 45.757812 29.269531 44.488281 L 29.300781 43.933594 L 29.757812 43.863281 C 30.011719 43.824219 31.347656 43.753906 32.726562 43.703125 C 34.339844 43.644531 35.28125 43.570312 35.355469 43.5 C 35.527344 43.332031 35.445312 43.289062 34.683594 43.1875 C 33.976562 43.089844 33.710938 42.957031 33.710938 42.707031 C 33.710938 42.132812 35.617188 39.574219 37.257812 37.941406 C 38.171875 37.035156 38.992188 36.542969 40.757812 35.816406 C 41.742188 35.414062 42.308594 34.890625 42.976562 33.753906 C 43.476562 32.917969 43.890625 31.769531 43.828125 31.375 C 43.777344 30.972656 43.414062 31.042969 42.097656 31.730469 C 39.246094 33.199219 37.664062 34.398438 35.535156 36.683594 L 34.167969 38.152344 L 32.746094 38.105469 C 30.710938 38.035156 28.234375 37.589844 28.234375 37.289062 C 28.234375 37.226562 28.660156 36.855469 29.179688 36.480469 C 30.539062 35.484375 31.976562 34.214844 32.992188 33.140625 L 33.863281 32.203125 L 34.308594 33.007812 C 34.550781 33.441406 34.796875 33.785156 34.855469 33.742188 C 35.039062 33.632812 34.855469 32 34.582031 31.214844 C 33.722656 28.757812 31.378906 25.503906 29.910156 24.738281 C 28.621094 24.054688 26.949219 24.125 26.015625 24.910156 C 25.429688 25.40625 25.652344 25.625 27.242188 26.148438 C 29.210938 26.804688 29.515625 27.007812 31.226562 28.71875 C 32.070312 29.554688 32.820312 30.371094 32.890625 30.519531 C 33.03125 30.792969 33.023438 30.8125 32.484375 31.355469 C 31.816406 32.042969 30.617188 33.007812 29.828125 33.523438 C 29.269531 33.882812 29.21875 33.894531 28.996094 33.753906 C 28.875 33.671875 28.550781 33.320312 28.277344 32.976562 C 26.777344 31.074219 25.660156 30.257812 23.824219 29.753906 C 23.339844 29.613281 22.902344 29.464844 22.84375 29.402344 C 22.699219 29.261719 23.136719 28.265625 24.230469 26.230469 C 25.8125 23.289062 25.78125 23.320312 28.589844 21.929688 C 31.289062 20.609375 34.359375 19.441406 38.800781 18.054688 L 40.585938 17.5 L 40.910156 16.714844 C 41.488281 15.3125 41.945312 14.386719 42.175781 14.175781 C 42.296875 14.066406 42.644531 13.894531 42.949219 13.792969 C 43.910156 13.492188 43.941406 13.078125 43.191406 10.84375 C 42.5625 9 42.390625 8.03125 42.460938 6.773438 C 42.550781 5.183594 43.128906 3.78125 44.304688 2.324219 C 45.664062 0.632812 47.417969 -0.113281 49.75 0.015625 C 52.214844 0.148438 55.84375 1.234375 56.664062 2.082031 L 56.949219 2.375 L 56.675781 3.207031 C 56.351562 4.175781 56.359375 4.597656 56.785156 6.421875 C 57.109375 7.820312 57.140625 8.707031 56.886719 9.390625 C 56.726562 9.835938 56.714844 10.105469 56.777344 11.667969 L 56.847656 13.441406 L 56.433594 13.773438 C 55.882812 14.195312 55.832031 14.296875 55.609375 15.503906 C 55.386719 16.625 54.929688 17.722656 54.605469 17.890625 C 54.464844 17.972656 53.988281 17.984375 53.125 17.941406 C 51.910156 17.871094 51.859375 17.882812 51.859375 18.074219 C 51.859375 18.183594 51.972656 18.375 52.101562 18.496094 C 52.40625 18.789062 52.671875 19.3125 52.671875 19.632812 C 52.671875 20.058594 53.175781 20.410156 54.535156 20.921875 C 56.332031 21.597656 56.898438 22.042969 56.683594 22.585938 C 56.59375 22.828125 56.308594 22.765625 55.234375 22.242188 C 54.6875 21.96875 53.9375 21.648438 53.574219 21.515625 C 52.761719 21.226562 52.195312 20.894531 52.113281 20.632812 C 51.929688 20.035156 51.34375 20.371094 49.414062 22.171875 C 48.554688 22.976562 47.804688 23.640625 47.742188 23.640625 C 47.582031 23.640625 47.488281 23.511719 46.941406 22.484375 C 46.183594 21.054688 45.796875 20.53125 44.863281 19.605469 C 44.195312 18.929688 43.808594 18.648438 43.148438 18.324219 C 41.539062 17.519531 41.367188 17.871094 42.734375 19.128906 L 43.648438 19.964844 L 43.28125 20.148438 C 42.359375 20.621094 36.964844 22.535156 36.550781 22.535156 C 36.457031 22.535156 36.132812 22.34375 35.808594 22.101562 C 34.835938 21.375 33 20.8125 32.71875 21.144531 C 32.574219 21.324219 32.828125 21.898438 33.355469 22.585938 C 35.171875 24.929688 35.960938 27.175781 36.550781 31.648438 C 36.78125 33.523438 36.855469 33.8125 37.078125 33.953125 C 37.207031 34.035156 37.300781 34.015625 37.453125 33.875 C 37.828125 33.542969 37.917969 32.804688 37.917969 30.289062 C 37.917969 27.839844 37.808594 26.695312 37.453125 25.453125 C 37.339844 25.09375 37.257812 24.648438 37.257812 24.46875 C 37.257812 24.15625 37.300781 24.117188 37.898438 23.855469 C 39.15625 23.289062 43.199219 22.089844 44.539062 21.890625 C 44.925781 21.828125 44.996094 21.859375 45.230469 22.101562 C 45.855469 22.765625 47.09375 25.867188 47.4375 27.621094 C 47.855469 29.734375 48.160156 34.820312 47.914062 35.695312 C 47.785156 36.179688 47.429688 36.433594 46.902344 36.433594 C 46.433594 36.433594 45.542969 36.804688 45.105469 37.175781 C 44.742188 37.488281 44.730469 37.519531 44.914062 37.621094 C 45.027344 37.671875 45.683594 37.769531 46.375 37.832031 C 47.0625 37.890625 47.683594 37.984375 47.734375 38.035156 C 47.792969 38.09375 47.734375 38.445312 47.550781 39.019531 C 47.195312 40.148438 46.972656 40.589844 46.617188 40.84375 C 46.457031 40.945312 45.238281 41.4375 43.902344 41.921875 C 42.5625 42.402344 40.492188 43.179688 39.296875 43.652344 C 37.695312 44.289062 37.066406 44.488281 36.863281 44.4375 C 36.722656 44.40625 36.5 44.359375 36.386719 44.328125 C 36.207031 44.277344 36.144531 44.335938 36.003906 44.761719 C 35.910156 45.023438 35.789062 45.566406 35.730469 45.949219 C 35.566406 47.046875 35.453125 51.246094 35.546875 52.746094 C 35.597656 53.742188 35.585938 54.136719 35.503906 54.214844 C 35.355469 54.359375 34.90625 54.429688 34.320312 54.386719 Z M 42.175781 38.40625 C 43.097656 37.960938 43.648438 37.488281 43.648438 37.167969 C 43.648438 36.90625 43.332031 36.632812 43.027344 36.632812 C 42.652344 36.632812 41.691406 37.21875 40.917969 37.902344 C 40.28125 38.476562 40.210938 38.617188 40.433594 38.839844 C 40.625 39.03125 41.132812 38.910156 42.175781 38.40625 Z M 48.816406 20.035156 C 48.816406 19.9375 48.59375 19.492188 48.320312 19.050781 C 47.234375 17.316406 47.074219 16.945312 46.921875 15.6875 C 46.707031 13.894531 46.304688 12.414062 45.96875 12.203125 C 45.777344 12.089844 45.359375 12.394531 45.15625 12.796875 C 45.046875 13.007812 44.925781 13.472656 44.875 13.824219 C 44.832031 14.1875 44.761719 14.507812 44.722656 14.546875 C 44.679688 14.597656 44.203125 14.660156 43.65625 14.691406 C 43.109375 14.71875 42.613281 14.78125 42.542969 14.832031 C 42.195312 15.03125 48.058594 20.21875 48.636719 20.21875 C 48.746094 20.21875 48.816406 20.136719 48.816406 20.035156 Z M 53.421875 16.53125 C 53.625 16.339844 53.625 16.179688 53.421875 15.484375 C 53.074219 14.277344 53.054688 14.074219 53.1875 13.589844 C 53.257812 13.328125 53.339844 12.554688 53.378906 11.859375 C 53.429688 10.660156 53.460938 10.558594 53.835938 9.746094 C 54.230469 8.917969 54.242188 8.859375 54.242188 7.832031 C 54.230469 6.210938 53.816406 5.113281 53.199219 5.113281 C 52.882812 5.113281 52.011719 5.957031 51.394531 6.875 C 50.246094 8.554688 49.425781 11.324219 49.425781 13.519531 C 49.425781 14.609375 49.566406 15.050781 50.054688 15.515625 C 50.988281 16.390625 52.964844 16.996094 53.421875 16.53125 Z M 46.953125 10.589844 C 47.105469 9.714844 47.277344 9.472656 47.792969 9.382812 C 48.726562 9.222656 48.859375 8.789062 48.160156 8.144531 C 47.914062 7.921875 47.671875 7.730469 47.621094 7.730469 C 47.359375 7.730469 46.808594 8.246094 46.585938 8.6875 C 46.253906 9.351562 46.222656 10.730469 46.527344 11.183594 C 46.628906 11.335938 46.738281 11.4375 46.769531 11.417969 C 46.800781 11.386719 46.882812 11.015625 46.953125 10.589844 Z M 46.953125 10.589844 "
  />
  <path
    d="M 36.875 54.359375 C 36.40625 54.167969 36.378906 53.804688 36.710938 51.871094 L 36.875 50.933594 L 38.464844 50.933594 C 39.339844 50.933594 40.769531 50.902344 41.648438 50.863281 L 43.242188 50.804688 L 43.242188 51.617188 C 43.242188 52.574219 43.375 53.027344 43.597656 52.847656 C 43.675781 52.785156 43.902344 52.304688 44.101562 51.789062 C 44.398438 51.054688 44.570312 50.753906 44.894531 50.460938 C 45.328125 50.066406 47.449219 48.917969 47.742188 48.917969 C 47.964844 48.917969 48.066406 49.230469 48.210938 50.230469 C 48.351562 51.277344 48.25 51.640625 47.671875 52.03125 C 47.105469 52.414062 46.261719 52.828125 45.582031 53.070312 C 45.003906 53.261719 41.882812 53.925781 39.945312 54.265625 C 38.78125 54.46875 37.269531 54.507812 36.875 54.359375 Z M 37.167969 48.796875 C 37.117188 48.667969 37.046875 47.730469 37.007812 46.734375 L 36.925781 44.921875 L 38.03125 44.859375 C 38.636719 44.820312 39.824219 44.660156 40.65625 44.488281 C 41.496094 44.328125 42.371094 44.1875 42.601562 44.1875 C 42.988281 44.1875 43.039062 44.214844 43.109375 44.46875 C 43.160156 44.621094 43.191406 45.546875 43.191406 46.523438 C 43.191406 48.175781 43.171875 48.324219 42.988281 48.507812 C 42.703125 48.789062 41.761719 48.917969 39.316406 48.988281 L 37.269531 49.050781 Z M 45.003906 47.238281 C 44.914062 46.492188 45.015625 44.117188 45.15625 43.753906 C 45.300781 43.390625 46.140625 43 47.601562 42.636719 C 48.574219 42.394531 50.035156 42.273438 50.035156 42.433594 C 50.035156 42.464844 49.890625 42.664062 49.730469 42.878906 C 49.171875 43.570312 48.847656 44.457031 48.511719 46.128906 C 48.402344 46.664062 48.363281 46.722656 47.988281 46.914062 C 47.511719 47.15625 45.511719 47.8125 45.257812 47.8125 C 45.117188 47.8125 45.066406 47.691406 45.003906 47.238281 Z M 76.324219 44.789062 C 75.632812 44.5 76.160156 42.011719 77.46875 39.421875 C 78.339844 37.691406 78.230469 37.792969 79.242188 37.933594 C 80.175781 38.0625 86.859375 39.382812 87.476562 39.554688 C 87.914062 39.683594 87.933594 39.785156 87.617188 40.257812 C 87.242188 40.8125 86.949219 41.699219 86.785156 42.808594 C 86.695312 43.359375 86.605469 43.84375 86.585938 43.875 C 86.554688 43.894531 85.609375 43.996094 84.484375 44.097656 C 83.351562 44.195312 81.332031 44.398438 79.996094 44.539062 C 76.710938 44.890625 76.578125 44.902344 76.324219 44.789062 Z M 71.253906 44.1875 C 70.667969 44.046875 70.585938 43.914062 70.644531 43.179688 C 70.757812 41.898438 72.308594 38.183594 72.886719 37.800781 C 73.039062 37.710938 73.128906 37.589844 73.101562 37.539062 C 72.9375 37.269531 71.4375 38.464844 70.777344 39.394531 C 70.210938 40.179688 69.835938 40.972656 69.59375 41.898438 C 69.367188 42.765625 69.238281 42.917969 68.691406 42.898438 C 67.910156 42.867188 64.855469 41.417969 64.695312 40.992188 C 64.625 40.8125 64.886719 40.652344 66.558594 39.90625 C 68.871094 38.867188 69.339844 38.496094 70.160156 37.035156 C 71.09375 35.382812 71.070312 35.394531 72.359375 36.070312 C 73.515625 36.664062 74.488281 37.007812 75.632812 37.1875 C 76.699219 37.359375 77.207031 37.558594 77.207031 37.800781 C 77.207031 37.890625 76.960938 38.246094 76.667969 38.578125 C 75.664062 39.726562 74.855469 41.085938 74.429688 42.332031 C 74.246094 42.855469 74.105469 43.058594 73.484375 43.621094 L 72.765625 44.289062 L 72.175781 44.277344 C 71.84375 44.265625 71.425781 44.226562 71.253906 44.1875 Z M 18.160156 43.785156 C 17.457031 43.570312 17.175781 42.90625 17.144531 41.367188 C 17.132812 40.429688 17.347656 40.015625 18.371094 39.039062 C 19.113281 38.335938 19.648438 37.984375 20.53125 37.640625 C 21.242188 37.359375 21.59375 37.367188 22.679688 37.679688 C 24.199219 38.113281 28.53125 38.890625 31.226562 39.203125 C 32.871094 39.394531 33.144531 39.492188 33.183594 39.886719 C 33.222656 40.25 32.636719 41.496094 32.191406 42 C 31.90625 42.332031 31.804688 42.375 31.390625 42.375 C 30.292969 42.375 26.148438 42.96875 25.347656 43.230469 C 24.597656 43.480469 23.9375 43.59375 22.355469 43.734375 C 20.613281 43.894531 18.613281 43.914062 18.160156 43.785156 Z M 18.160156 43.785156 "
  />
  <path
    d="M 15.816406 43.714844 C 14.570312 43.441406 13.597656 42.9375 12.925781 42.210938 C 12.347656 41.589844 12.269531 41.347656 12.511719 40.832031 C 12.957031 39.855469 16.089844 36.230469 18.960938 33.351562 C 20.742188 31.566406 21.667969 30.792969 22.019531 30.792969 C 22.488281 30.792969 24.363281 31.71875 25.832031 32.675781 C 26.683594 33.238281 27.6875 34.136719 27.890625 34.539062 C 28.035156 34.800781 28.035156 34.859375 27.890625 35.074219 C 27.6875 35.382812 27.242188 35.71875 26.207031 36.332031 C 25.226562 36.914062 24.820312 36.964844 23.5625 36.632812 C 21.59375 36.128906 20.378906 36.050781 19.6875 36.402344 C 19.539062 36.472656 19.121094 36.804688 18.757812 37.125 C 18.390625 37.460938 17.855469 37.851562 17.558594 38.023438 C 16.800781 38.445312 15.949219 39.523438 15.550781 40.5625 C 15.378906 41.023438 15.359375 41.15625 15.472656 41.660156 C 15.53125 41.972656 15.734375 42.535156 15.917969 42.917969 C 16.230469 43.5625 16.28125 43.804688 16.089844 43.773438 C 16.050781 43.761719 15.929688 43.742188 15.816406 43.714844 Z M 88.988281 43.371094 C 88.792969 43.300781 88.765625 43.21875 88.765625 42.6875 C 88.765625 41.992188 89.058594 41.003906 89.445312 40.359375 C 89.605469 40.109375 90.316406 39.132812 91.046875 38.195312 C 93.234375 35.34375 95.039062 33.722656 98.34375 31.609375 C 99.621094 30.800781 99.945312 30.703125 99.996094 31.113281 C 100.058594 31.597656 98.84375 33.875 98.121094 34.628906 C 97.949219 34.820312 97.878906 34.992188 97.910156 35.183594 L 97.941406 35.476562 L 98.882812 35.445312 C 99.703125 35.425781 99.816406 35.445312 99.816406 35.585938 C 99.816406 36.109375 98.78125 36.894531 96.785156 37.890625 C 95.414062 38.566406 94.785156 39.109375 93.652344 40.613281 C 92.464844 42.164062 91.875 42.707031 91.097656 42.957031 C 90.03125 43.308594 89.242188 43.460938 88.988281 43.371094 Z M 90.496094 42.0625 C 91.097656 41.628906 92.171875 40.621094 93.253906 39.453125 C 94.199219 38.445312 94.492188 38.011719 94.402344 37.78125 C 94.25 37.390625 93.4375 37.78125 91.722656 39.070312 C 90.355469 40.097656 90.113281 40.320312 89.871094 40.78125 C 89.566406 41.367188 89.636719 42.375 89.980469 42.375 C 90.019531 42.375 90.253906 42.234375 90.496094 42.0625 Z M 49.171875 40.601562 C 49.0625 40.570312 48.867188 40.53125 48.746094 40.5 C 48.554688 40.460938 48.511719 40.390625 48.511719 40.066406 C 48.511719 39.605469 48.847656 38.273438 49.070312 37.84375 C 49.285156 37.429688 49.515625 37.359375 50.976562 37.246094 C 52.144531 37.15625 52.507812 37.078125 53.574219 36.683594 C 53.816406 36.59375 54.039062 36.542969 54.058594 36.574219 C 54.203125 36.714844 52.375 39.714844 51.808594 40.257812 C 51.445312 40.601562 51.445312 40.613281 50.410156 40.632812 C 49.839844 40.640625 49.285156 40.632812 49.171875 40.601562 Z M 62.554688 40.027344 C 61.714844 39.574219 60.355469 38.71875 59.574219 38.164062 L 58.914062 37.699219 L 59.28125 37.390625 C 59.484375 37.21875 60.164062 36.785156 60.800781 36.433594 C 63 35.183594 65.414062 33.160156 65.902344 32.140625 C 66.042969 31.839844 66.226562 31.597656 66.296875 31.597656 C 66.683594 31.597656 68.140625 33.027344 68.933594 34.195312 C 69.265625 34.699219 69.316406 34.832031 69.277344 35.234375 C 69.175781 36.28125 67.351562 38.054688 64.785156 39.585938 C 64.179688 39.945312 63.558594 40.277344 63.417969 40.308594 C 63.246094 40.339844 62.972656 40.257812 62.554688 40.027344 Z M 57.273438 36.632812 C 56.371094 36.179688 55.507812 35.464844 55.507812 35.164062 C 55.507812 34.578125 56.460938 33.109375 57.679688 31.808594 C 59.148438 30.25 60.292969 28.304688 60.621094 26.84375 C 60.660156 26.683594 60.75 26.5625 60.832031 26.5625 C 61.21875 26.5625 64.613281 29.753906 64.785156 30.277344 C 64.886719 30.601562 64.300781 31.304688 62.199219 33.402344 C 60.183594 35.414062 58.417969 36.933594 58.09375 36.933594 C 57.972656 36.933594 57.609375 36.804688 57.273438 36.632812 Z M 49.171875 36.039062 C 49.082031 35.886719 48.9375 34.527344 48.765625 32.152344 C 48.675781 30.933594 48.535156 29.320312 48.441406 28.578125 C 48.199219 26.550781 48.21875 26.121094 48.585938 25.34375 C 48.96875 24.539062 49.628906 23.664062 50.441406 22.898438 C 51.046875 22.3125 51.070312 22.304688 51.535156 22.363281 C 51.796875 22.394531 53.054688 22.65625 54.332031 22.949219 L 56.65625 23.480469 L 56.59375 25.355469 C 56.554688 26.574219 56.453125 27.769531 56.28125 28.828125 C 55.90625 31.246094 55.226562 34.539062 55.082031 34.679688 C 54.828125 34.910156 52.699219 35.515625 50.683594 35.929688 C 49.597656 36.148438 49.265625 36.179688 49.171875 36.039062 Z M 57.984375 29.152344 C 57.953125 29.058594 57.984375 28.597656 58.042969 28.132812 C 58.265625 26.695312 58.105469 24.808594 57.628906 23.117188 C 57.558594 22.855469 57.527344 22.605469 57.566406 22.574219 C 57.78125 22.363281 59.191406 24.347656 59.320312 25.03125 C 59.441406 25.667969 58.632812 28.71875 58.238281 29.121094 C 58.0625 29.300781 58.042969 29.300781 57.984375 29.152344 Z M 57.984375 29.152344 "
  />
</svg>
