<svg xmlns="http://www.w3.org/2000/svg" id="root" viewBox="0 0 99 58">
  <g>
    <path
      style="stroke: none; fill-rule: nonzero; fill: rgb(96.470588%, 94.901961%, 83.529412%); fill-opacity: 1"
      d="M 0 57.953125 L 0 56.589844 L 0.542969 57.085938 C 0.847656 57.351562 1.273438 57.660156 1.511719 57.765625 C 1.910156 57.9375 1.894531 57.9375 0.96875 57.953125 Z M 40.695312 57.953125 C 40.070312 57.953125 33.050781 55.238281 29.195312 53.601562 C 25.761719 52.140625 25.617188 51.835938 22.59375 50.40625 C 25.550781 49.585938 25.949219 46.371094 25.949219 45.941406 C 29.0625 48.125 29.777344 48.871094 31.449219 49.894531 C 32.632812 50.617188 36.359375 52.925781 39.921875 54.488281 C 44.625 56.550781 47.144531 57.570312 49.121094 57.953125 C 47.960938 57.953125 41.214844 58.058594 40.695312 57.953125 Z M 78.242188 57.953125 C 81.183594 57.171875 83.828125 55.648438 86.449219 53.007812 C 88.160156 51.285156 91.019531 47.472656 91.019531 43.253906 C 91.019531 30.183594 83.804688 23.332031 73.792969 15.015625 C 64.953125 7.671875 52.203125 4.234375 46.1875 4.234375 C 43.945312 4.234375 40.132812 4.328125 36.3125 7.0625 C 35.574219 7.59375 31.886719 10.152344 31.886719 16.609375 C 34.089844 23.226562 27.65625 28.546875 25.378906 25.355469 C 23.25 22.382812 20.960938 20.167969 20.496094 11.222656 C 20.667969 2.65625 28.625 0.0078125 33.394531 0.0078125 C 35.890625 0.0078125 51.699219 0.0078125 56.074219 0.0078125 C 63.777344 0.0078125 77.519531 9.398438 84.667969 16.601562 C 94.234375 26.242188 99 35.921875 99 40.984375 L 99 57.953125 Z M 78.242188 57.953125 "
    />
    <path
      style="stroke: none; fill-rule: nonzero; fill: rgb(96.470588%, 94.901961%, 83.529412%); fill-opacity: 1"
      d="M 78.628906 44.773438 C 76.175781 50.886719 68.050781 52.339844 59.308594 50.195312 C 52.117188 48.429688 42.648438 39.90625 57.957031 45.839844 C 61.648438 47.273438 72.984375 50.492188 75.726562 41.941406 C 77.550781 36.253906 71.78125 27.84375 71.207031 26.757812 C 71.148438 26.648438 82.296875 35.644531 78.628906 44.773438 Z M 22.59375 50.40625 C 20.53125 49.089844 15.421875 46.128906 10.394531 41.570312 C 7.84375 39.257812 0 30.164062 0 29.605469 L 0 0 L 11.382812 0 C 11.210938 0 11.03125 0.238281 10.882812 0.625 C 9.496094 4.296875 7.644531 9.660156 7.644531 17.539062 C 7.644531 30.300781 19.234375 41.695312 25.949219 45.941406 C 26.574219 46.410156 30.871094 49.574219 30.980469 49.699219 C 31.265625 50.019531 22.710938 50.703125 22.59375 50.40625 Z M 52.152344 48.457031 C 51.082031 48.160156 49.3125 47.398438 45.757812 45.546875 C 42.777344 43.988281 41.429688 43.367188 40.34375 42.277344 C 40.140625 42.070312 40.515625 41.773438 40.941406 41.863281 C 41.417969 41.96875 42.015625 42.496094 42.988281 42.871094 C 46.664062 44.285156 52.6875 47.210938 52.152344 48.457031 Z M 31.488281 33.0625 C 30.730469 32.511719 25.082031 25.425781 25.378906 25.359375 C 25.53125 25.324219 31.023438 27.734375 31.171875 27.882812 C 31.238281 27.949219 40.425781 42.101562 40.347656 42.277344 C 40.132812 42.117188 32.132812 33.617188 31.488281 33.0625 Z M 31.488281 33.0625 "
    />
    <path
      d="M 20.011719 57.589844 C 20.011719 57.324219 20.117188 57.152344 20.398438 57.003906 C 20.636719 56.855469 20.847656 56.5625 20.980469 56.203125 C 21.097656 55.882812 21.773438 54.160156 22.503906 52.371094 C 23.695312 49.40625 23.855469 49.097656 24.332031 48.738281 C 24.609375 48.523438 25.007812 48.339844 25.222656 48.339844 C 25.460938 48.339844 25.578125 48.269531 25.578125 48.125 C 25.578125 47.84375 26.890625 45.398438 27.050781 45.398438 C 27.117188 45.398438 27.167969 45.292969 27.167969 45.171875 C 27.167969 45.039062 27.460938 44.425781 27.816406 43.796875 C 28.164062 43.171875 28.734375 42.167969 29.078125 41.566406 C 29.421875 40.953125 29.78125 40.460938 29.886719 40.460938 C 30.097656 40.460938 30.230469 39.550781 30.070312 39.230469 C 29.820312 38.738281 29.992188 38.109375 31.011719 35.839844 C 31.636719 34.476562 32.074219 33.316406 32.074219 33.074219 C 32.074219 32.835938 31.980469 31.898438 31.875 30.980469 C 31.753906 30.058594 31.636719 28.960938 31.582031 28.546875 L 31.503906 27.789062 L 29.566406 27.8125 C 27.355469 27.839844 26.53125 27.667969 26.027344 27.066406 C 25.460938 26.386719 25.578125 25.863281 26.625 24.488281 C 27.726562 23.0625 29.980469 20.832031 30.351562 20.832031 C 30.5625 20.832031 30.613281 20.738281 30.613281 20.429688 C 30.613281 20.015625 31.476562 18.160156 31.980469 17.480469 C 32.324219 17 34.867188 15.835938 37.1875 15.101562 L 38.910156 14.554688 L 39.253906 13.726562 C 39.535156 13.03125 39.652344 12.871094 39.945312 12.84375 C 40.128906 12.820312 40.289062 12.777344 40.289062 12.765625 C 40.289062 12.738281 40.171875 12.378906 40.023438 11.949219 C 39.652344 10.882812 39.652344 9.160156 40.023438 8.371094 C 40.421875 7.53125 41.058594 6.808594 41.667969 6.53125 C 42.753906 6.035156 45.074219 6.25 46.808594 6.996094 L 47.3125 7.210938 L 47.3125 8.453125 C 47.367188 13.460938 47.367188 13.445312 47.0625 13.605469 C 46.875 13.714844 46.769531 13.953125 46.71875 14.394531 C 46.585938 15.316406 46.347656 15.621094 45.777344 15.621094 C 45.101562 15.621094 45.378906 15.917969 46.320312 16.222656 C 46.730469 16.34375 47.113281 16.558594 47.195312 16.703125 C 47.261719 16.839844 47.433594 16.957031 47.578125 16.957031 C 47.898438 16.957031 48.507812 17.960938 48.507812 18.46875 C 48.507812 18.773438 48.558594 18.828125 48.878906 18.828125 C 49.128906 18.828125 49.488281 19.054688 50.136719 19.640625 C 50.851562 20.28125 51.023438 20.523438 51.023438 20.84375 C 51.023438 21.191406 51.0625 21.230469 51.476562 21.230469 C 51.859375 21.230469 52.019531 21.339844 52.535156 21.953125 C 52.867188 22.339844 53.144531 22.765625 53.144531 22.886719 C 53.144531 23.046875 53.265625 23.101562 53.609375 23.101562 C 53.875 23.101562 54.335938 23.234375 54.640625 23.394531 C 55.238281 23.714844 55.808594 23.863281 58.578125 24.371094 C 59.558594 24.542969 60.710938 24.78125 61.136719 24.890625 L 61.890625 25.0625 L 62.195312 24.648438 C 63.097656 23.355469 63.878906 22.578125 65.152344 21.683594 C 66.171875 20.976562 66.464844 20.832031 66.914062 20.832031 C 67.457031 20.832031 67.457031 20.832031 67.457031 21.339844 C 67.457031 21.605469 67.339844 22.085938 67.191406 22.40625 C 66.980469 22.859375 66.980469 22.96875 67.125 22.96875 C 67.367188 22.96875 67.40625 23.78125 67.191406 24.183594 C 67.113281 24.328125 66.609375 24.648438 66.09375 24.890625 C 65.246094 25.289062 65.046875 25.449219 64.410156 26.320312 C 63.746094 27.199219 63.613281 27.308594 63.019531 27.46875 C 62.660156 27.5625 62.128906 27.640625 61.867188 27.640625 C 61.386719 27.640625 61.363281 27.613281 61.347656 27.214844 C 61.320312 26.800781 61.320312 26.800781 61.242188 27.308594 L 61.164062 27.839844 L 59.375 28.015625 C 58.394531 28.121094 57.109375 28.214844 56.523438 28.214844 L 55.464844 28.242188 L 55.382812 27.839844 C 55.316406 27.535156 55.292969 27.507812 55.277344 27.746094 C 55.265625 28.027344 55.210938 28.042969 54.378906 28.042969 C 53.222656 28.042969 52.878906 27.949219 52.878906 27.628906 C 52.878906 27.414062 52.773438 27.375 52.308594 27.375 C 51.648438 27.375 50.097656 26.664062 50.097656 26.359375 C 50.097656 26.253906 49.964844 26.171875 49.753906 26.171875 C 49.316406 26.171875 47.550781 25.117188 47.472656 24.808594 C 47.445312 24.675781 47.285156 24.570312 47.128906 24.570312 C 46.980469 24.570312 46.703125 24.449219 46.519531 24.300781 C 46.082031 23.957031 46.042969 23.96875 45.949219 24.410156 C 45.910156 24.609375 45.644531 25.117188 45.378906 25.542969 C 44.96875 26.171875 44.808594 26.304688 44.503906 26.304688 C 44.171875 26.304688 44.132812 26.359375 44.132812 26.707031 C 44.132812 26.933594 44.011719 27.28125 43.867188 27.480469 C 43.722656 27.679688 43.550781 28.136719 43.484375 28.507812 C 43.417969 28.871094 43.3125 29.191406 43.246094 29.203125 C 43.058594 29.269531 43.363281 31.113281 43.5625 31.113281 C 43.683594 31.113281 43.734375 31.339844 43.734375 31.898438 C 43.734375 32.636719 43.761719 32.714844 44.238281 33.128906 C 44.503906 33.382812 45.125 33.851562 45.628906 34.171875 C 46.292969 34.609375 46.519531 34.851562 46.519531 35.066406 C 46.519531 35.414062 46.664062 35.574219 47.722656 36.386719 C 48.398438 36.921875 48.507812 37.066406 48.507812 37.441406 C 48.507812 37.855469 48.519531 37.871094 48.96875 37.816406 C 49.367188 37.761719 50.203125 38.109375 50.496094 38.457031 C 50.535156 38.496094 50.773438 38.695312 51.023438 38.910156 C 51.277344 39.125 52.042969 39.804688 52.734375 40.445312 C 53.410156 41.074219 54.019531 41.621094 54.085938 41.632812 C 54.152344 41.660156 54.203125 41.753906 54.203125 41.847656 C 54.203125 41.941406 54.378906 41.980469 54.707031 41.957031 C 55.160156 41.914062 55.277344 41.980469 56.046875 42.742188 L 56.882812 43.558594 L 57.1875 45.039062 C 57.464844 46.386719 57.53125 46.546875 57.96875 46.949219 C 58.234375 47.191406 58.445312 47.441406 58.445312 47.523438 C 58.445312 48.230469 58.988281 51.570312 59.136719 51.757812 C 59.1875 51.835938 59.625 53.039062 60.089844 54.425781 C 60.882812 56.777344 60.964844 56.949219 61.28125 56.992188 C 61.574219 57.03125 61.625 57.097656 61.625 57.5 L 61.625 57.953125 L 58.710938 57.953125 C 55.902344 57.953125 55.796875 57.9375 55.796875 57.683594 C 55.796875 57.539062 55.609375 57.070312 55.382812 56.65625 C 52.535156 51.367188 52.441406 51.117188 52.972656 50.007812 C 53.199219 49.539062 53.199219 49.539062 52.601562 48.175781 C 52.03125 46.867188 51.980469 46.800781 51.488281 46.65625 C 51.195312 46.574219 50.335938 46.214844 49.566406 45.882812 C 48.796875 45.535156 48.054688 45.199219 47.910156 45.132812 C 45.246094 43.957031 44.371094 43.492188 43.125 42.664062 C 41.707031 41.6875 41.640625 41.660156 40.871094 41.660156 C 40.25 41.660156 39.878906 41.566406 39.253906 41.261719 C 38.804688 41.046875 38.382812 40.859375 38.328125 40.875 C 38.234375 40.875 37.308594 42.035156 36.273438 43.449219 C 35.996094 43.824219 35.453125 44.464844 35.082031 44.867188 C 32.882812 47.214844 31.792969 48.511719 31.304688 49.324219 C 30.640625 50.433594 30.152344 51.007812 29.886719 51.007812 C 29.738281 51.007812 29.6875 51.167969 29.6875 51.648438 C 29.6875 52.210938 29.59375 52.4375 28.878906 53.480469 C 28.429688 54.148438 27.964844 54.800781 27.832031 54.949219 C 27.699219 55.09375 27.5 55.402344 27.382812 55.617188 C 27.261719 55.84375 26.984375 56.257812 26.757812 56.550781 C 26.53125 56.84375 26.242188 57.285156 26.082031 57.523438 L 25.816406 57.953125 L 20.011719 57.953125 Z M 32.207031 40.660156 C 32.019531 40.554688 31.753906 40.472656 31.609375 40.472656 C 31.4375 40.472656 31.515625 40.539062 31.808594 40.648438 C 32.429688 40.886719 32.617188 40.886719 32.207031 40.660156 Z M 41.523438 35.117188 C 41.722656 35.117188 41.878906 35.066406 41.878906 34.984375 C 41.878906 34.917969 41.761719 34.851562 41.613281 34.851562 C 41.390625 34.851562 41.351562 34.757812 41.351562 34.171875 L 41.351562 33.488281 L 40.859375 33.582031 C 40.582031 33.636719 40.316406 33.703125 40.261719 33.730469 C 40.078125 33.851562 40.15625 34.558594 40.355469 34.636719 C 40.460938 34.679688 40.554688 34.839844 40.554688 35 C 40.554688 35.226562 40.609375 35.265625 40.859375 35.199219 C 41.019531 35.160156 41.308594 35.117188 41.523438 35.117188 Z M 40.726562 30.21875 C 40.765625 30.152344 40.515625 30.125 40.183594 30.152344 C 39.214844 30.21875 39.097656 30.285156 39.917969 30.296875 C 40.328125 30.296875 40.699219 30.269531 40.726562 30.21875 Z M 39.667969 22.792969 C 39.800781 22.648438 39.867188 22.5 39.839844 22.472656 C 39.757812 22.394531 38.632812 23.0625 38.421875 23.3125 C 38.15625 23.632812 39.375 23.128906 39.667969 22.792969 Z M 37.1875 17.800781 C 37.042969 17.652344 36.964844 17.851562 37.070312 18.105469 C 37.160156 18.347656 37.175781 18.347656 37.214844 18.121094 C 37.242188 17.988281 37.226562 17.839844 37.1875 17.800781 Z M 41.878906 14.289062 C 41.878906 14.101562 41.785156 14.019531 41.589844 14.019531 C 41.324219 14.019531 41.308594 14.035156 41.546875 14.289062 C 41.679688 14.433594 41.8125 14.554688 41.839844 14.554688 C 41.851562 14.554688 41.878906 14.433594 41.878906 14.289062 Z M 44.769531 12.726562 C 44.796875 11.804688 44.875 11.308594 45.058594 10.960938 C 45.207031 10.667969 45.273438 10.320312 45.234375 10.109375 L 45.167969 9.746094 L 44.929688 10.054688 C 44.359375 10.789062 43.867188 12.136719 43.867188 12.980469 C 43.867188 13.351562 43.945312 13.527344 44.238281 13.738281 C 44.4375 13.886719 44.625 14.007812 44.664062 14.019531 C 44.703125 14.019531 44.742188 13.433594 44.769531 12.726562 Z M 44.769531 12.726562 "
    />
    <path
      style="stroke: none; fill-rule: nonzero; fill: rgb(93.333333%, 93.333333%, 74.901961%); fill-opacity: 1"
      d="M 19.480469 57.5 C 19.480469 57.152344 19.574219 56.949219 19.878906 56.695312 C 20.105469 56.511719 20.410156 56.070312 20.554688 55.722656 C 21.324219 53.945312 22.664062 50.449219 22.597656 50.355469 C 22.570312 50.289062 22.675781 49.941406 22.863281 49.578125 C 23.167969 48.914062 24.414062 47.671875 24.742188 47.671875 C 24.835938 47.671875 25.0625 47.363281 25.246094 47.003906 C 25.433594 46.628906 25.710938 46.203125 25.855469 46.054688 C 26.003906 45.90625 26.359375 45.332031 26.664062 44.757812 C 27.460938 43.265625 28.957031 40.714844 29.277344 40.300781 C 29.527344 39.992188 29.554688 39.832031 29.476562 39.03125 C 29.382812 38.109375 29.394531 38.097656 30.21875 36.308594 C 31.199219 34.183594 31.570312 33.195312 31.476562 32.957031 C 31.371094 32.675781 31.132812 31.003906 31.011719 29.65625 C 30.945312 28.960938 30.839844 28.347656 30.785156 28.296875 C 30.734375 28.242188 29.964844 28.242188 29.089844 28.296875 C 27.101562 28.414062 26.464844 28.242188 25.699219 27.414062 C 25.261719 26.933594 25.179688 26.757812 25.179688 26.265625 C 25.179688 25.316406 25.9375 24.089844 27.554688 22.40625 C 28.097656 21.832031 28.386719 21.632812 28.652344 21.632812 C 29.554688 21.632812 30.21875 20.832031 30.21875 19.761719 C 30.21875 19.160156 30.933594 17.597656 31.398438 17.171875 C 32.085938 16.542969 34.710938 15.300781 36.75 14.648438 L 38.472656 14.085938 L 38.738281 13.488281 C 38.882812 13.152344 39.109375 12.753906 39.253906 12.59375 C 39.519531 12.296875 39.519531 12.285156 39.296875 11.429688 C 39.003906 10.347656 39.097656 9.054688 39.507812 8.183594 C 39.945312 7.277344 40.980469 6.222656 41.773438 5.875 C 42.382812 5.609375 42.621094 5.582031 43.667969 5.648438 C 45.125 5.726562 47.007812 6.328125 47.605469 6.902344 C 47.976562 7.25 47.988281 7.332031 47.910156 7.945312 C 47.871094 8.320312 47.832031 8.707031 47.84375 8.8125 C 47.84375 8.917969 47.871094 10 47.910156 11.214844 C 47.964844 13.378906 47.964844 13.417969 47.65625 13.753906 C 47.472656 13.941406 47.300781 14.339844 47.246094 14.6875 C 47.195312 15.023438 47.0625 15.394531 46.957031 15.515625 C 46.785156 15.714844 46.796875 15.757812 47.15625 15.945312 C 47.65625 16.210938 48.878906 17.558594 48.984375 17.972656 C 49.023438 18.148438 49.140625 18.292969 49.234375 18.292969 C 49.339844 18.292969 50.363281 19.226562 51.527344 20.363281 C 52.695312 21.5 53.714844 22.433594 53.792969 22.433594 C 53.886719 22.433594 54.191406 22.554688 54.496094 22.714844 C 55.1875 23.074219 55.875 23.246094 58.578125 23.753906 C 59.785156 23.980469 60.976562 24.234375 61.230469 24.300781 C 61.652344 24.421875 61.71875 24.410156 61.996094 24.074219 C 63.285156 22.539062 63.773438 22.074219 65.019531 21.179688 C 66.609375 20.03125 67.152344 19.894531 67.695312 20.46875 C 68.027344 20.832031 68.09375 21.777344 67.828125 22.367188 C 67.710938 22.621094 67.710938 22.738281 67.828125 22.859375 C 67.921875 22.953125 67.988281 23.234375 67.988281 23.5 C 67.988281 24.195312 67.3125 24.945312 66.238281 25.425781 C 65.5625 25.730469 65.296875 25.945312 64.886719 26.519531 C 64.609375 26.90625 64.210938 27.386719 64.011719 27.574219 C 63.628906 27.933594 62.382812 28.347656 61.773438 28.296875 C 61.585938 28.28125 61.335938 28.308594 61.230469 28.347656 C 60.964844 28.457031 59.09375 28.667969 57.585938 28.789062 C 55.847656 28.910156 53.027344 28.628906 52.667969 28.296875 C 52.523438 28.160156 52.296875 28.042969 52.175781 28.042969 C 51.859375 28.042969 50.507812 27.414062 50.015625 27.039062 C 49.777344 26.851562 49.511719 26.707031 49.433594 26.707031 C 49.261719 26.707031 47.804688 25.851562 47.378906 25.503906 C 47.234375 25.382812 46.957031 25.183594 46.757812 25.0625 C 46.398438 24.835938 46.386719 24.835938 46.171875 25.265625 C 46.054688 25.492188 45.683594 26 45.339844 26.359375 C 44.449219 27.347656 44.265625 27.667969 44.011719 28.75 C 43.816406 29.617188 43.828125 30.296875 44.066406 30.765625 C 44.171875 30.964844 44.265625 31.3125 44.265625 31.511719 C 44.265625 32.449219 44.410156 32.714844 45.246094 33.289062 C 46.347656 34.035156 47.179688 34.839844 47.179688 35.132812 C 47.179688 35.265625 47.511719 35.625 47.964844 35.972656 C 48.398438 36.320312 48.863281 36.734375 49.011719 36.921875 C 49.15625 37.109375 49.367188 37.253906 49.5 37.253906 C 49.804688 37.253906 50.90625 38.136719 52.839844 39.914062 C 54.21875 41.179688 54.511719 41.394531 54.894531 41.394531 C 55.277344 41.394531 55.492188 41.554688 56.40625 42.503906 C 57.453125 43.558594 57.492188 43.625 57.703125 44.597656 C 57.824219 45.148438 57.941406 45.746094 57.941406 45.933594 C 57.957031 46.121094 58.167969 46.480469 58.40625 46.75 C 58.832031 47.203125 58.882812 47.335938 59.042969 48.632812 C 59.148438 49.394531 59.292969 50.179688 59.359375 50.394531 C 59.441406 50.59375 59.507812 50.902344 59.507812 51.089844 C 59.507812 51.277344 59.585938 51.554688 59.691406 51.714844 C 59.796875 51.875 60.207031 52.984375 60.621094 54.1875 C 61.214844 55.949219 61.429688 56.429688 61.757812 56.695312 C 62.0625 56.949219 62.15625 57.152344 62.15625 57.5 L 62.15625 57.953125 L 58.644531 57.953125 C 55.171875 57.953125 55.132812 57.953125 55.132812 57.671875 C 55.132812 57.40625 54.683594 56.441406 53.808594 54.8125 C 51.925781 51.316406 51.871094 51.140625 52.335938 50.046875 C 52.5625 49.484375 52.5625 49.460938 52.335938 48.914062 C 52.203125 48.589844 52.042969 48.339844 51.980469 48.339844 C 51.914062 48.339844 51.820312 48.175781 51.78125 47.976562 C 51.660156 47.375 51.433594 47.203125 49.832031 46.507812 C 45.390625 44.558594 44.476562 44.132812 43.839844 43.691406 C 43.457031 43.410156 42.753906 42.941406 42.277344 42.636719 C 41.457031 42.101562 41.390625 42.074219 40.859375 42.207031 C 40.355469 42.34375 40.222656 42.316406 39.375 41.929688 L 38.433594 41.488281 L 38.140625 41.875 C 37.96875 42.089844 37.613281 42.53125 37.335938 42.851562 C 37.042969 43.171875 36.683594 43.664062 36.511719 43.917969 C 36.351562 44.183594 36.046875 44.546875 35.851562 44.734375 C 35.121094 45.398438 32.363281 48.566406 32.007812 49.152344 C 31.808594 49.472656 31.316406 50.074219 30.933594 50.472656 C 30.496094 50.929688 30.21875 51.328125 30.21875 51.515625 C 30.21875 51.941406 29.925781 52.609375 29.515625 53.089844 C 29.316406 53.332031 29.15625 53.625 29.15625 53.746094 C 29.15625 53.878906 28.972656 54.226562 28.757812 54.535156 C 27.832031 55.800781 26.679688 57.5 26.597656 57.726562 C 26.519531 57.9375 26.226562 57.953125 22.996094 57.953125 L 19.480469 57.953125 Z M 25.605469 57.21875 C 26.480469 55.976562 26.71875 55.628906 26.96875 55.214844 C 27.128906 54.960938 27.339844 54.652344 27.460938 54.519531 C 27.578125 54.386719 28.03125 53.746094 28.480469 53.078125 C 29.515625 51.554688 29.527344 51.316406 28.601562 50.367188 C 27.820312 49.554688 27.023438 49.113281 25.988281 48.886719 C 25.3125 48.738281 25.273438 48.75 24.742188 49.140625 C 24.238281 49.511719 24.121094 49.738281 22.902344 52.769531 C 22.171875 54.558594 21.496094 56.28125 21.378906 56.601562 C 21.246094 56.964844 21.03125 57.257812 20.792969 57.40625 C 20.582031 57.523438 20.410156 57.644531 20.410156 57.683594 C 20.410156 57.726562 21.496094 57.75 22.820312 57.75 L 25.234375 57.75 Z M 60.511719 57.683594 C 61.242188 57.683594 61.519531 57.472656 60.882812 57.390625 C 60.566406 57.351562 60.488281 57.175781 59.703125 54.839844 C 59.242188 53.464844 58.816406 52.289062 58.777344 52.210938 C 58.738281 52.144531 58.328125 52.464844 57.875 52.917969 C 57.066406 53.746094 55.648438 54.519531 55.425781 54.28125 C 55.332031 54.1875 57.226562 52.34375 57.425781 52.34375 C 57.476562 52.34375 57.769531 52.183594 58.0625 51.996094 C 58.5 51.714844 58.589844 51.597656 58.527344 51.367188 C 58.445312 51.117188 58.046875 48.175781 58.046875 47.898438 C 58.046875 47.84375 57.835938 47.589844 57.570312 47.351562 C 57.132812 46.949219 57.066406 46.789062 56.789062 45.441406 L 56.484375 43.957031 L 55.648438 43.15625 C 55.199219 42.703125 54.773438 42.371094 54.734375 42.394531 C 54.683594 42.421875 54.574219 42.796875 54.484375 43.222656 C 54.246094 44.277344 53 46.203125 52.535156 46.203125 C 52.429688 46.203125 52.347656 46.226562 52.347656 46.253906 C 52.347656 46.28125 52.65625 46.988281 53.027344 47.816406 C 53.753906 49.445312 53.753906 49.5 53.277344 50.675781 C 53.066406 51.183594 53.15625 51.394531 55.703125 56.121094 C 55.96875 56.617188 56.191406 57.175781 56.191406 57.351562 C 56.191406 57.671875 56.191406 57.671875 57.824219 57.710938 C 58.710938 57.738281 59.519531 57.738281 59.613281 57.726562 C 59.71875 57.699219 60.117188 57.683594 60.511719 57.683594 Z M 30.019531 50.234375 C 30.203125 50.019531 30.601562 49.433594 30.90625 48.925781 C 31.398438 48.109375 32.484375 46.816406 34.683594 44.464844 C 35.054688 44.066406 35.597656 43.425781 35.875 43.050781 C 36.15625 42.664062 36.738281 41.902344 37.175781 41.339844 C 38.089844 40.152344 38.167969 40.140625 39.625 40.847656 C 40.527344 41.289062 40.820312 41.339844 41.230469 41.128906 C 41.546875 40.953125 41.878906 41.113281 43.589844 42.300781 C 44.636719 43.023438 45.933594 43.691406 48.308594 44.734375 C 48.453125 44.800781 49.234375 45.148438 50.03125 45.507812 C 52.070312 46.414062 52.097656 46.429688 52.402344 45.828125 C 52.535156 45.558594 52.8125 45 53.027344 44.597656 C 53.476562 43.71875 53.886719 42.195312 53.703125 42.074219 C 53.636719 42.035156 53.011719 41.472656 52.335938 40.847656 C 51.648438 40.207031 50.878906 39.523438 50.625 39.3125 C 50.375 39.097656 50.136719 38.898438 50.097656 38.855469 C 50.058594 38.816406 49.820312 38.644531 49.554688 38.484375 L 49.078125 38.191406 L 48.292969 39.152344 C 47.167969 40.554688 45.367188 42.410156 45.246094 42.289062 C 45.035156 42.089844 46.480469 39.683594 47.683594 38.242188 C 47.910156 37.960938 48.109375 37.65625 48.109375 37.5625 C 48.109375 37.480469 47.75 37.132812 47.328125 36.789062 C 46.265625 35.972656 46.121094 35.8125 46.121094 35.464844 C 46.121094 35.253906 45.894531 35.011719 45.234375 34.570312 C 44.730469 34.25 44.105469 33.78125 43.839844 33.53125 C 43.363281 33.117188 43.335938 33.035156 43.335938 32.300781 C 43.335938 31.859375 43.3125 31.511719 43.269531 31.511719 C 43.230469 31.511719 43.03125 31.660156 42.835938 31.847656 C 41.917969 32.714844 40.316406 33.167969 38.394531 33.089844 L 37.203125 33.046875 L 37.042969 33.824219 C 36.898438 34.558594 36.671875 34.984375 36.511719 34.824219 C 36.472656 34.785156 36.40625 34.371094 36.351562 33.902344 C 36.273438 33.023438 36.167969 32.863281 35.71875 32.847656 C 35.570312 32.847656 35.042969 32.726562 34.523438 32.609375 C 33.609375 32.367188 33.597656 32.355469 33.582031 31.898438 C 33.582031 31.648438 33.53125 30.777344 33.476562 29.964844 C 33.382812 28.761719 33.410156 28.402344 33.582031 28 C 33.820312 27.398438 33.730469 27.320312 32.828125 27.414062 C 31.964844 27.507812 31.898438 27.574219 31.992188 28.296875 C 32.683594 33.53125 32.695312 33.410156 31.421875 36.226562 L 30.363281 38.5625 L 30.574219 39.125 C 30.761719 39.578125 30.761719 39.726562 30.628906 39.953125 C 30.402344 40.3125 30.523438 40.378906 30.972656 40.152344 C 31.371094 39.9375 32.152344 40.003906 32.667969 40.285156 C 33.359375 40.671875 34.589844 42.316406 34.589844 42.851562 C 34.589844 43.171875 34.5625 43.15625 33.96875 42.582031 C 33.609375 42.261719 33.199219 41.875 33.054688 41.753906 C 32.683594 41.433594 31.503906 41.019531 30.734375 40.914062 L 30.109375 40.832031 L 29.609375 41.742188 C 29.34375 42.25 29.011719 42.808594 28.890625 42.996094 C 28.773438 43.183594 28.414062 43.785156 28.125 44.34375 L 27.566406 45.375 L 28.402344 45.308594 C 29.609375 45.199219 30.402344 45.640625 30.933594 46.695312 C 31.316406 47.46875 31.15625 47.535156 30.535156 46.867188 C 29.847656 46.121094 29.460938 45.960938 28.191406 45.90625 L 27.289062 45.867188 L 26.652344 47.070312 C 26.292969 47.722656 26.027344 48.3125 26.070312 48.363281 C 26.09375 48.429688 26.292969 48.472656 26.492188 48.472656 C 27.339844 48.472656 28.8125 49.417969 29.238281 50.222656 C 29.476562 50.703125 29.59375 50.703125 30.019531 50.234375 Z M 36.988281 32.113281 C 36.871094 31.527344 36.949219 28.601562 37.09375 28.066406 C 37.226562 27.601562 37.292969 27.519531 37.441406 27.640625 C 37.558594 27.746094 37.707031 27.746094 37.863281 27.667969 C 38.15625 27.507812 40.765625 26.503906 41.640625 26.210938 C 42.199219 26.023438 42.289062 25.945312 42.476562 25.398438 C 42.582031 25.0625 42.675781 24.742188 42.675781 24.675781 C 42.675781 24.621094 42.382812 24.570312 42.027344 24.570312 C 41.65625 24.570312 41.335938 24.515625 41.285156 24.4375 C 41.191406 24.289062 41.894531 23.902344 42.25 23.902344 C 42.769531 23.902344 42.847656 23.59375 42.753906 22.058594 C 42.703125 21.269531 42.59375 20.269531 42.527344 19.828125 C 42.34375 18.8125 41.640625 17.117188 41.363281 17.023438 C 41.097656 16.945312 38.289062 17.773438 37.785156 18.09375 C 37.71875 18.132812 37.757812 18.441406 37.863281 18.789062 C 38.140625 19.640625 38.183594 22.300781 37.917969 22.605469 C 37.640625 22.953125 37.546875 22.78125 37.441406 21.804688 C 37.242188 19.789062 36.832031 18.535156 35.996094 17.4375 C 35.71875 17.078125 35.542969 16.746094 35.609375 16.679688 C 35.769531 16.519531 36.722656 16.796875 37.054688 17.105469 C 37.203125 17.238281 37.375 17.359375 37.425781 17.359375 C 37.53125 17.359375 39.839844 16.53125 40.421875 16.277344 L 40.753906 16.128906 L 40.25 15.691406 C 39.652344 15.167969 39.800781 14.96875 40.515625 15.34375 C 41.191406 15.691406 41.785156 16.34375 42.210938 17.199219 C 42.398438 17.574219 42.582031 17.894531 42.621094 17.894531 C 42.660156 17.894531 43.058594 17.53125 43.496094 17.09375 C 44.332031 16.277344 44.582031 16.144531 44.703125 16.476562 C 44.742188 16.585938 45.007812 16.730469 45.285156 16.824219 C 45.5625 16.917969 45.988281 17.105469 46.226562 17.238281 C 46.730469 17.53125 46.980469 17.464844 46.785156 17.105469 C 46.71875 16.972656 46.347656 16.757812 45.960938 16.625 C 45.140625 16.355469 44.929688 16.210938 44.929688 15.890625 C 44.929688 15.757812 44.835938 15.582031 44.730469 15.488281 C 44.359375 15.183594 44.515625 15.0625 45.179688 15.15625 C 45.777344 15.234375 45.855469 15.210938 46.027344 14.929688 C 46.132812 14.753906 46.265625 14.339844 46.320312 13.992188 C 46.371094 13.539062 46.480469 13.3125 46.675781 13.207031 C 46.914062 13.074219 46.929688 12.980469 46.851562 12.230469 C 46.796875 11.683594 46.824219 11.269531 46.929688 11.042969 C 47.046875 10.761719 47.035156 10.507812 46.851562 9.679688 C 46.664062 8.878906 46.636719 8.597656 46.757812 8.332031 C 46.851562 8.144531 46.914062 7.917969 46.914062 7.8125 C 46.914062 7.410156 44.609375 6.675781 43.402344 6.675781 C 42.410156 6.675781 41.667969 7.011719 41.109375 7.691406 C 40.089844 8.945312 39.90625 10.109375 40.5 11.75 C 40.898438 12.871094 40.871094 13.125 40.367188 13.21875 C 40.050781 13.273438 39.945312 13.417969 39.652344 14.128906 L 39.308594 14.957031 L 37.585938 15.503906 C 35.265625 16.238281 32.722656 17.398438 32.378906 17.878906 C 32.058594 18.292969 31.011719 20.363281 31.011719 20.535156 C 31.011719 20.605469 31.238281 20.695312 31.515625 20.75 C 32.152344 20.84375 32.988281 21.445312 33.476562 22.152344 C 33.691406 22.445312 33.929688 22.699219 34.019531 22.699219 C 34.207031 22.699219 35.785156 21.390625 35.785156 21.230469 C 35.785156 21.03125 34.417969 19.617188 34.019531 19.414062 C 33.808594 19.296875 33.34375 19.121094 32.988281 19.015625 C 32.269531 18.800781 32.207031 18.667969 32.628906 18.375 C 33 18.105469 33.820312 18.09375 34.300781 18.347656 C 35.359375 18.90625 36.84375 21.445312 36.683594 22.460938 C 36.644531 22.753906 36.632812 22.753906 36.40625 22.339844 L 36.179688 21.914062 L 35.585938 22.554688 C 35.265625 22.902344 34.671875 23.421875 34.273438 23.714844 C 33.875 23.996094 33.542969 24.277344 33.53125 24.316406 C 33.53125 24.449219 34.855469 24.703125 35.597656 24.703125 L 36.3125 24.703125 L 37.253906 23.703125 C 37.945312 22.980469 38.539062 22.511719 39.375 22.03125 C 40.023438 21.660156 40.609375 21.363281 40.6875 21.363281 C 40.964844 21.363281 40.804688 22.046875 40.367188 22.738281 C 40.011719 23.300781 39.800781 23.488281 39.363281 23.636719 C 39.058594 23.742188 38.554688 23.980469 38.25 24.183594 C 37.613281 24.582031 35.996094 26.652344 36.101562 26.917969 C 36.140625 27.027344 36.351562 27.105469 36.578125 27.105469 C 36.804688 27.105469 36.964844 27.160156 36.910156 27.238281 C 36.871094 27.308594 36.234375 27.359375 35.492188 27.359375 C 34.75 27.359375 34.101562 27.414062 34.035156 27.480469 C 33.902344 27.613281 34.433594 31.925781 34.605469 32.113281 C 34.722656 32.234375 36.351562 32.433594 36.84375 32.394531 C 36.964844 32.382812 37.015625 32.273438 36.988281 32.113281 Z M 39.5625 32.234375 C 40.078125 32.128906 40.765625 31.980469 41.109375 31.914062 C 41.722656 31.808594 42.265625 31.554688 42.714844 31.207031 C 42.898438 31.046875 42.925781 30.898438 42.859375 30.390625 C 42.808594 30.058594 42.742188 29.777344 42.6875 29.789062 C 42.648438 29.789062 42.289062 29.949219 41.894531 30.152344 C 41.296875 30.445312 41.152344 30.605469 40.992188 31.046875 C 40.726562 31.832031 40.554688 31.925781 40.554688 31.273438 L 40.554688 30.710938 L 39.070312 30.753906 L 37.574219 30.777344 L 37.464844 31.40625 C 37.398438 31.765625 37.375 32.140625 37.425781 32.246094 C 37.519531 32.5 38.328125 32.5 39.5625 32.234375 Z M 40.328125 29.695312 C 40.515625 29.628906 40.554688 29.46875 40.554688 28.640625 C 40.554688 28.09375 40.5 27.628906 40.421875 27.574219 C 40.355469 27.535156 39.90625 27.585938 39.429688 27.707031 C 38.9375 27.8125 38.339844 27.90625 38.089844 27.90625 L 37.640625 27.90625 L 37.640625 28.816406 C 37.640625 29.324219 37.679688 29.777344 37.730469 29.832031 C 37.835938 29.925781 39.878906 29.816406 40.328125 29.695312 Z M 42.925781 28.777344 C 42.953125 28.75 43.019531 28.429688 43.085938 28.082031 C 43.152344 27.734375 43.324219 27.28125 43.46875 27.078125 L 43.75 26.707031 L 43.363281 26.707031 C 42.859375 26.707031 41.574219 27.09375 41.457031 27.292969 C 41.335938 27.46875 41.308594 29.164062 41.429688 29.28125 C 41.496094 29.351562 42.78125 28.910156 42.925781 28.777344 Z M 59.175781 27.585938 L 60.765625 27.441406 L 60.859375 26.800781 C 60.898438 26.4375 61.042969 26 61.164062 25.824219 C 61.28125 25.636719 61.363281 25.464844 61.335938 25.4375 C 61.28125 25.382812 58.246094 24.769531 57.4375 24.636719 L 56.894531 24.554688 L 56.472656 25.355469 C 56.019531 26.226562 55.714844 27.386719 55.847656 27.734375 C 55.914062 27.90625 56.0625 27.921875 56.761719 27.839844 C 57.214844 27.789062 58.300781 27.667969 59.175781 27.585938 Z M 54.988281 26.988281 C 55.160156 26.292969 55.703125 25.332031 56.207031 24.824219 C 56.550781 24.476562 56.417969 24.355469 55.492188 24.234375 C 55.132812 24.183594 54.601562 23.996094 54.296875 23.820312 C 53.992188 23.648438 53.675781 23.5 53.59375 23.5 C 53.503906 23.5 53.304688 23.78125 53.132812 24.128906 C 52.761719 24.863281 52.441406 25.117188 51.355469 25.570312 C 50.917969 25.746094 50.546875 25.945312 50.519531 26.011719 C 50.46875 26.183594 52.042969 26.972656 52.429688 26.972656 C 52.65625 26.972656 52.746094 26.878906 52.8125 26.546875 C 52.972656 25.8125 53.371094 25.15625 53.941406 24.703125 C 54.230469 24.476562 54.46875 24.34375 54.46875 24.421875 C 54.46875 24.503906 54.417969 24.570312 54.351562 24.570312 C 54.179688 24.570312 53.4375 26.304688 53.332031 26.933594 C 53.238281 27.546875 53.304688 27.601562 54.285156 27.628906 Z M 32.085938 27.160156 C 32.363281 27.027344 34.484375 26.707031 35.171875 26.707031 C 35.414062 26.707031 35.96875 25.691406 35.875 25.449219 C 35.835938 25.371094 35.609375 25.277344 35.371094 25.265625 C 34.378906 25.195312 31.4375 24.675781 30.917969 24.488281 C 30.402344 24.300781 30.324219 24.300781 29.792969 24.542969 C 29.476562 24.675781 29.023438 25.023438 28.773438 25.304688 C 28.375 25.769531 28.335938 25.878906 28.386719 26.453125 C 28.496094 27.453125 28.546875 27.480469 30.257812 27.398438 C 31.066406 27.375 31.886719 27.265625 32.085938 27.160156 Z M 27.964844 27.320312 C 27.964844 27.292969 27.871094 27.09375 27.765625 26.894531 C 27.660156 26.679688 27.566406 26.34375 27.566406 26.160156 C 27.566406 25.746094 28.242188 24.757812 28.601562 24.648438 C 28.734375 24.597656 29.011719 24.382812 29.210938 24.167969 C 29.621094 23.703125 30.042969 23.660156 31.265625 23.980469 C 32.058594 24.183594 32.074219 24.183594 32.65625 23.835938 C 33.625 23.261719 33.648438 23.167969 32.988281 22.554688 C 32.457031 22.058594 30.972656 21.230469 30.628906 21.230469 C 30.203125 21.230469 26.453125 25.332031 26.160156 26.105469 C 26.054688 26.359375 26.664062 26.988281 27.183594 27.171875 C 27.660156 27.347656 27.964844 27.414062 27.964844 27.320312 Z M 62.621094 27.066406 C 63.21875 26.90625 63.351562 26.800781 64.011719 25.917969 C 64.648438 25.050781 64.847656 24.890625 65.695312 24.488281 C 66.503906 24.117188 66.929688 23.753906 66.929688 23.449219 C 66.929688 23.421875 66.714844 23.421875 66.464844 23.460938 C 66.09375 23.515625 66 23.488281 66 23.328125 C 66 23.207031 66.054688 23.074219 66.132812 23.035156 C 66.304688 22.925781 66.875 21.925781 66.996094 21.539062 C 67.125 21.058594 66.875 21.164062 65.550781 22.085938 C 64.371094 22.914062 63.851562 23.40625 63.019531 24.488281 C 62.804688 24.78125 62.5 25.171875 62.355469 25.355469 C 61.972656 25.839844 61.757812 26.386719 61.757812 26.839844 C 61.757812 27.292969 61.734375 27.292969 62.621094 27.066406 Z M 44.886719 25.265625 C 45.300781 24.621094 45.589844 24.117188 45.589844 23.980469 C 45.589844 23.941406 45.378906 24.007812 45.125 24.117188 C 44.875 24.210938 44.410156 24.300781 44.105469 24.300781 C 43.789062 24.300781 43.46875 24.355469 43.378906 24.410156 C 43.207031 24.515625 42.914062 25.625 43.019531 25.796875 C 43.058594 25.851562 43.402344 25.90625 43.773438 25.90625 C 44.449219 25.90625 44.476562 25.890625 44.886719 25.265625 Z M 50.773438 25.289062 C 51.6875 24.742188 52.589844 23.847656 52.695312 23.40625 C 52.761719 23.167969 52.628906 22.925781 52.152344 22.367188 C 51.582031 21.683594 51.15625 21.429688 51.15625 21.777344 C 51.15625 22.113281 49.792969 23.339844 48.851562 23.835938 C 48.292969 24.128906 47.871094 24.421875 47.882812 24.503906 C 47.9375 24.636719 49.699219 25.757812 49.882812 25.769531 C 49.9375 25.769531 50.347656 25.558594 50.773438 25.289062 Z M 49.15625 22.714844 C 49.964844 21.914062 50.625 21.164062 50.625 21.058594 C 50.625 20.855469 48.945312 19.226562 48.746094 19.226562 C 48.679688 19.226562 48.640625 19.308594 48.640625 19.402344 C 48.640625 19.816406 47.832031 21.21875 47.351562 21.644531 C 46.875 22.046875 46.253906 23.019531 46.253906 23.339844 C 46.253906 23.515625 47.195312 24.15625 47.472656 24.15625 C 47.59375 24.167969 48.347656 23.515625 49.15625 22.714844 Z M 44.464844 23.566406 C 45.21875 23.40625 46.121094 23.128906 46.121094 23.046875 C 46.121094 23.046875 46.265625 22.285156 46.453125 21.363281 C 46.625 20.445312 46.785156 19.269531 46.785156 18.734375 L 46.785156 17.785156 L 45.605469 17.503906 C 44.953125 17.34375 44.359375 17.226562 44.277344 17.226562 C 44.066406 17.226562 43.378906 18 43.074219 18.574219 C 42.859375 18.988281 42.835938 19.1875 42.941406 19.84375 C 42.992188 20.28125 43.097656 21.296875 43.140625 22.097656 C 43.191406 22.914062 43.257812 23.609375 43.296875 23.675781 C 43.378906 23.796875 43.378906 23.796875 44.464844 23.566406 Z M 47.921875 19.375 C 48.121094 18.546875 48.121094 18.546875 47.777344 17.960938 C 47.460938 17.414062 47.0625 17.105469 47.222656 17.546875 C 47.460938 18.160156 47.59375 19.347656 47.472656 19.855469 C 47.339844 20.429688 47.417969 20.722656 47.605469 20.375 C 47.660156 20.269531 47.804688 19.816406 47.921875 19.375 Z M 47.921875 19.375 "
    />
    <path
      style="stroke: none; fill-rule: nonzero; fill: rgb(93.333333%, 93.333333%, 74.901961%); fill-opacity: 1"
      d="M 26.359375 53.972656 C 25.683594 53.386719 25.101562 53.089844 24.109375 52.824219 C 23.324219 52.636719 23.246094 52.503906 23.738281 52.25 C 24.199219 51.996094 24.636719 52.035156 25.40625 52.398438 C 26.070312 52.71875 26.785156 53.480469 26.984375 54.105469 C 27.117188 54.535156 26.96875 54.507812 26.359375 53.972656 Z M 53.792969 50.632812 C 54.058594 50.140625 55.742188 48.523438 56.257812 48.285156 C 56.976562 47.9375 57.675781 47.777344 57.609375 47.976562 C 57.570312 48.125 57.148438 48.472656 55.398438 49.847656 C 54.074219 50.875 53.515625 51.140625 53.792969 50.632812 Z M 42.277344 40.273438 C 42.277344 40.179688 42.355469 40.019531 42.464844 39.9375 C 42.570312 39.859375 42.714844 39.605469 42.808594 39.390625 C 42.953125 39.03125 42.914062 38.832031 42.34375 37.296875 C 41.984375 36.347656 41.695312 35.558594 41.667969 35.53125 C 41.65625 35.519531 41.257812 35.625 40.792969 35.785156 C 40.277344 35.972656 39.585938 36.078125 38.976562 36.09375 L 37.996094 36.121094 L 37.691406 37.335938 C 37.375 38.644531 37.175781 39.125 36.964844 39.125 C 36.871094 39.125 36.855469 38.871094 36.898438 38.429688 C 36.9375 38.042969 36.988281 37.363281 37.003906 36.921875 L 37.042969 36.121094 L 36.035156 35.90625 C 35.480469 35.785156 34.828125 35.625 34.589844 35.53125 C 34.085938 35.359375 34.046875 35.398438 33.796875 36.054688 C 33.6875 36.308594 33.410156 36.867188 33.160156 37.296875 C 32.90625 37.722656 32.734375 38.097656 32.761719 38.121094 C 32.773438 38.148438 33.1875 38.269531 33.664062 38.390625 C 34.125 38.511719 35.027344 38.816406 35.636719 39.070312 C 36.261719 39.324219 36.816406 39.523438 36.871094 39.523438 C 36.988281 39.523438 37.148438 39.644531 37.597656 40.058594 C 38.050781 40.460938 37.292969 40.351562 35.425781 39.738281 C 33.4375 39.070312 32.484375 38.855469 31.59375 38.855469 C 31.289062 38.855469 31 38.804688 30.945312 38.722656 C 30.851562 38.5625 31.570312 38.191406 31.992188 38.191406 C 32.257812 38.191406 32.351562 38.109375 32.417969 37.828125 C 32.457031 37.617188 32.667969 36.894531 32.894531 36.214844 C 33.132812 35.453125 33.253906 34.839844 33.210938 34.636719 C 33.160156 34.464844 33.144531 34.316406 33.1875 34.316406 C 33.210938 34.316406 33.875 34.53125 34.671875 34.796875 C 35.890625 35.210938 36.351562 35.292969 37.652344 35.34375 C 39.429688 35.425781 40.34375 35.320312 40.011719 35.078125 C 39.890625 34.984375 39.757812 34.609375 39.707031 34.238281 C 39.601562 33.371094 39.734375 33.234375 40.871094 33.15625 C 41.65625 33.089844 41.722656 33.101562 41.8125 33.371094 C 41.851562 33.53125 41.867188 33.835938 41.8125 34.050781 C 41.707031 34.542969 41.867188 34.558594 42.515625 34.117188 C 43.140625 33.691406 43.246094 33.929688 42.6875 34.503906 L 42.265625 34.945312 L 42.675781 36.148438 C 42.886719 36.8125 43.074219 37.574219 43.074219 37.828125 C 43.074219 38.855469 43.164062 38.832031 44.464844 37.441406 C 45.140625 36.707031 45.738281 36.160156 45.789062 36.214844 C 46.027344 36.441406 44.847656 38.429688 43.816406 39.5 C 43.046875 40.3125 42.277344 40.699219 42.277344 40.273438 Z M 39.164062 24.984375 C 39.097656 24.851562 39.691406 24.34375 40.238281 24.046875 C 40.460938 23.941406 40.566406 23.957031 40.671875 24.089844 C 40.871094 24.328125 40.59375 24.621094 39.929688 24.902344 C 39.386719 25.144531 39.269531 25.144531 39.164062 24.984375 Z M 41.613281 15.128906 C 40.847656 14.433594 40.210938 13.808594 40.183594 13.742188 C 40.15625 13.671875 40.394531 13.621094 40.726562 13.621094 C 41.285156 13.621094 41.308594 13.605469 41.308594 13.21875 C 41.308594 12.765625 41.667969 12.285156 41.867188 12.484375 C 42.027344 12.671875 42.277344 13.78125 42.277344 14.300781 C 42.277344 14.582031 42.449219 14.980469 42.769531 15.449219 C 43.589844 16.652344 43.140625 16.519531 41.613281 15.128906 Z M 44.664062 14.527344 C 44.398438 14.460938 44.011719 14.273438 43.800781 14.101562 C 43.46875 13.820312 43.429688 13.714844 43.429688 13.003906 C 43.429688 12.152344 43.683594 11.164062 44.105469 10.335938 C 44.398438 9.761719 44.980469 9.078125 45.167969 9.078125 C 45.417969 9.078125 45.605469 9.46875 45.683594 10.109375 C 45.738281 10.628906 45.695312 10.882812 45.472656 11.324219 C 45.285156 11.683594 45.21875 12.003906 45.273438 12.21875 C 45.3125 12.390625 45.285156 12.726562 45.21875 12.953125 C 45.113281 13.257812 45.113281 13.488281 45.257812 13.875 C 45.484375 14.527344 45.339844 14.703125 44.664062 14.527344 Z M 42.066406 11.949219 C 41.839844 11.550781 42 10.710938 42.316406 10.480469 C 42.554688 10.308594 42.621094 10.308594 42.835938 10.507812 C 43.179688 10.816406 43.125 11.054688 42.714844 11.109375 C 42.398438 11.148438 42.332031 11.214844 42.277344 11.683594 C 42.210938 12.164062 42.183594 12.191406 42.066406 11.949219 Z M 62.183594 26.277344 C 62.210938 25.917969 62.382812 25.71875 63.152344 25.144531 C 64.105469 24.421875 64.410156 24.300781 64.410156 24.621094 C 64.410156 24.875 62.59375 26.707031 62.34375 26.707031 C 62.195312 26.707031 62.15625 26.585938 62.183594 26.277344 Z M 62.183594 26.277344 "
    />
  </g>
</svg>
