<svg xmlns="http://www.w3.org/2000/svg" id="root" viewBox="4575 1752.55 9863.22 10723.85">
  <path
    d="m4610 12471-35-6 25-18c14-10 44-31 68-48 57-39 90-94 147-242 46-116 224-562 376-937 90-222 189-430 229-479 16-22 62-61 101-87 70-48 73-49 143-47 213 4 502 156 678 355 128 144 138 194 70 332-39 78-179 287-322 481-38 52-119 168-179 257-61 90-155 226-209 303l-99 140-479 1c-263 1-495-1-514-5zm1368-715c7-37-68-166-142-243-131-138-278-215-416-217-64-1-83 3-134 29-93 47-87 73 28 106 257 74 355 122 521 254 66 52 124 94 130 92 5-2 12-12 13-21zM12400 12470c-217-8-238-12-245-49-24-122-43-164-249-541-178-325-339-643-364-719-30-88-28-114 14-222 27-69 38-114 42-169 5-91-9-136-108-355-159-351-163-364-110-365 62 0 216-195 320-405 51-103 77-171 100-259 16-66 32-122 35-124 12-12 59 23 166 121 63 58 137 129 165 158l51 54 32 160c46 228 81 373 102 423 11 25 56 82 103 131 63 65 86 97 90 122 3 19 15 111 26 204 20 163 64 462 76 516 4 19-1 34-21 57-28 33-138 106-215 141-79 37-415 356-415 394 0 22 52 18 116-8 125-50 271-152 425-296 107-100 149-129 163-113 10 10 93 244 218 609 99 293 149 417 176 443 12 11 42 25 66 31 24 5 48 14 54 20 40 40-326 58-813 41zm-620-1504c134-89 533-399 623-485 56-54 60-71 13-71-95 0-261 77-382 176-106 88-305 285-360 357-88 117-49 125 106 23zM6462 10924c-49-84-102-144-185-210-130-102-314-184-417-184-93 0-98-18-41-137 28-58 198-381 215-410 1-1 71 3 156 8 306 17 357 36 520 194 152 146 176 140 94-25-33-65-64-111-109-156-116-118-244-155-467-135-67 6-124 9-126 6-6-5 190-361 270-492 38-62 111-188 162-280l93-168 65 2c127 4 354 69 489 139 44 24 116 81 218 174 84 77 159 140 167 140 48 0-22-170-131-315-79-105-210-237-261-263-112-57-281-67-374-24-81 39-97 25-60-48 27-53 26-69-16-190l-37-105 153-335c272-597 284-636 283-900-1-181-9-266-69-730-39-301-38-317 15-344 42-22 257-42 294-28 34 14 35 35 3 127-34 96-40 171-27 342 6 82 16 236 22 343 8 152 13 198 26 212 8 9 43 26 77 37 76 25 336 81 377 81 20 0 40 10 58 28 30 30 35 49 65 271 16 116 26 134 55 107 30-27 57-101 86-236l27-125h277c222 0 295-4 371-18 232-43 392-113 535-232 50-41 93-75 96-75 13 0 19 47 19 150 0 58 5 123 11 145 19 70 140 178 386 344 136 92 193 149 193 193 0 58 54 121 196 228 93 70 212 179 219 201 8 25-11 55-135 215-130 166-279 386-369 544-68 119-112 223-98 236 29 29 436-390 716-738 108-134 82-131 231-32 96 64 242 189 610 524 111 102 211 191 221 198 39 27 13 174-67 389-40 107-205 435-237 471-48 52-72 44-822-291-596-265-771-357-1103-580-286-192-327-209-418-171-73 31-140 16-321-69-168-79-217-97-271-97-42 0-98 29-138 72-38 40-217 268-336 428-120 160-194 247-392 460-468 504-569 626-777 943-107 164-173 237-212 237-22 0-33-9-55-46zm2840-2099c119-49 309-247 473-488 161-240 231-423 139-362-15 10-128 119-250 242-198 201-225 224-250 221l-29-3-11-115c-14-137-36-228-111-456l-57-172 63-68c143-155 135-197-20-103-47 29-97 52-114 53-28 1-30-1-28-34 7-147 5-180-11-204-16-25-21-26-109-26-50 0-132 7-182 15-80 12-93 18-119 46-28 31-28 34-24 123 5 94 26 171 60 219l20 27-39 17c-33 15-73 17-298 17-408-2-489-15-864-134-137-44-252-80-256-80-3 0-3 24 0 53 9 72-11 169-86 409-33 106-67 221-76 256-18 74-34 87-111 95-83 9-202 70-202 102 0 20 27 26 162 35 214 15 318 39 738 170 400 125 530 154 530 116 0-24-137-134-181-146-23-6-129-45-237-87-220-84-324-119-493-164-63-17-121-34-129-39-10-6 2-34 49-121 34-63 89-170 122-239s68-141 77-160c14-29 23-35 54-38 20-2 73 8 117 22s170 44 280 68l201 43-5 105c-4 58-13 189-21 292-15 191-10 244 19 232 20-7 60-86 85-164 12-36 44-156 73-267l52-203h133c174 0 315-22 493-76 79-24 146-42 149-40 7 8 143 367 198 526 38 108 54 170 54 205 0 59-31 131-84 193-33 41-45 79-29 95 11 11 48 8 85-8z"
  />
  <path
    d="M7960 7153c-85-6-305-34-342-44-29-7-39-16-47-42-37-115-117-771-109-897l3-55 45-7c25-4 157-11 293-16 159-6 252-13 259-20 17-17 9-21-66-31-70-10-96-23-96-48 0-57 188-311 350-473 90-90 171-139 345-211 97-40 153-92 219-205 49-83 90-197 84-236-5-40-41-33-171 35-281 146-437 265-647 492l-135 146-140-5c-201-7-445-51-445-81 0-6 42-43 93-80 134-99 276-225 376-332l86-93 44 80c24 43 48 77 54 73 18-11 0-173-27-251-85-244-316-567-461-643-127-68-292-61-384 17-58 49-36 71 121 123 194 65 224 85 393 255 83 83 157 164 164 179 14 27 13 29-40 83-66 68-184 164-262 215-55 36-60 37-82 23-12-8-44-43-71-77-148-189-258-270-439-320-48-14-91-29-97-35-14-14 29-113 137-315 156-292 153-289 430-427 266-131 569-247 1007-385l176-55 32-78c57-139 102-231 125-252 12-11 46-28 76-38 95-30 98-71 24-293-62-183-79-279-72-404 9-158 66-297 182-442 134-168 307-242 537-229 243 13 601 121 682 205l28 29-27 83c-32 96-31 138 11 319 32 139 35 227 10 295-16 44-17 71-11 226l7 176-41 33c-54 42-59 52-81 172-22 111-67 220-99 237-14 8-61 9-146 5-120-7-125-6-125 13 0 11 11 30 24 42 30 29 56 81 56 113 0 42 50 77 184 128 177 67 233 111 212 165-9 24-37 18-143-34-54-27-128-59-164-72-80-29-136-62-144-88-18-59-76-26-266 153-85 80-159 146-165 146-16 0-25-13-79-115-75-142-113-194-205-286-66-67-104-95-169-127-159-80-176-45-41 80l90 83-36 18c-91 47-623 237-664 237-9 0-41-19-73-43-96-72-277-128-305-95-14 18 11 75 63 143 179 233 257 456 315 900 23 186 30 215 52 229 13 8 22 6 37-8 37-33 46-106 46-356 0-243-11-357-46-480-11-36-19-80-19-98 0-31 4-35 63-61 124-56 523-175 655-195 38-6 45-3 68 21 62 66 184 374 218 548 41 210 71 715 47 802-13 48-48 73-100 73-46 0-134 37-177 74-36 31-37 34-19 44 11 5 76 15 144 21s129 15 134 20c6 6 0 41-18 98-35 112-57 156-92 181-16 10-136 59-268 107s-336 125-454 172c-158 63-220 83-240 78-14-3-36-8-47-11-18-5-24 1-38 43-9 26-21 80-27 118-16 109-27 526-18 675 5 99 4 138-4 146-15 14-59 21-117 17zm775-1587c91-44 145-91 145-123 0-26-31-53-61-53-37 0-132 58-208 126-63 57-70 71-48 93 19 19 69 7 172-43zm655-1824c0-10-22-54-49-98-107-172-123-209-138-334-21-178-61-325-94-346-19-11-60 19-80 59-11 21-23 67-28 102-4 36-11 68-15 72-4 5-51 11-105 14s-103 9-110 14c-34 20 544 535 601 535 11 0 18-8 18-18zm454-348c20-19 20-35 0-104-34-120-36-140-23-188 7-26 15-103 19-172 5-119 8-129 45-210 39-82 40-88 40-190-1-161-42-270-103-270-31 0-117 84-178 175-113 167-194 442-194 660 0 108 14 152 62 198 92 87 287 147 332 101zm-638-590c15-87 32-111 83-120 92-16 105-59 36-123-24-22-48-41-53-41-26 0-80 51-102 95-33 66-36 203-6 248 10 15 21 25 24 23 3-3 11-40 18-82z"
  />
  <path
    d="M8212 7150c-46-19-49-55-16-247l16-93h157c86 0 227-3 314-7l157-6v81c0 95 13 140 35 122 8-6 30-54 50-105 29-73 46-103 78-132 43-39 252-153 281-153 22 0 32 31 46 130 14 104 4 140-53 179-56 38-139 79-206 103-57 19-365 85-556 119-115 20-264 24-303 9zM8241 6598c-5-13-12-106-16-205l-8-180 109-6c60-4 177-20 259-37 83-16 169-30 192-30 38 0 43 3 50 28 5 15 8 107 8 204 0 164-2 179-20 197-28 28-121 41-362 48l-202 6-10-25zM9014 6443c-9-74 1-310 15-346s97-75 241-111c96-24 240-36 240-20 0 3-14 23-30 44-55 69-87 157-120 323-11 53-15 59-52 78-47 24-244 89-269 89-14 0-19-12-25-57zM12103 6200c-68-29-16-276 113-533 86-172 75-162 175-148 92 13 751 144 812 161 43 13 45 23 14 70-37 55-66 143-82 253-9 55-18 103-20 106-3 2-96 12-207 22-112 10-311 30-443 44-324 35-337 36-362 25zM11603 6140c-58-14-66-27-60-100 11-127 164-496 221-534 15-9 24-21 21-26-16-27-164 92-229 184-56 78-93 157-117 249-22 86-35 101-89 99-77-3-378-147-394-189-7-18 19-34 184-108 228-103 274-140 355-285 92-164 90-163 217-96 114 59 210 93 323 111 105 17 155 37 155 61 0 9-24 44-53 77-99 114-179 249-221 373-18 52-32 72-93 128l-71 66-58-1c-33-1-74-5-91-9zM6366 6100c-69-21-97-87-100-240-1-93 20-134 121-231 73-70 126-105 213-139 70-28 105-27 212 4 150 43 577 120 843 151 162 19 189 29 193 68 4 36-54 160-98 210-28 33-38 37-79 37-108 0-517 59-596 85-74 25-139 36-295 50-172 16-369 18-414 5z"
  />
  <path
    d="M6135 6093c-123-27-219-77-285-149-57-62-65-86-41-137 44-97 353-457 636-743 176-177 267-254 302-254 46 0 231 92 376 187 84 56 183 145 203 185 14 26 14 32 0 53-20 31-64 64-166 125-97 58-137 63-261 30-194-50-314-58-382-23-15 7-56 40-92 72-36 33-89 72-118 89-75 42-159 149-198 252-17 46-19 59-8 109 6 31 26 87 44 125 31 64 36 88 17 85-4-1-16-3-27-6zM13352 6059c-19-7-22-15-22-68 0-69 29-167 67-231 16-25 86-122 158-215 216-283 394-444 720-654 126-80 158-90 163-49 6 48-114 274-185 349-17 19-24 36-21 55l3 29 93-3c81-2 92 0 92 14 0 52-102 130-299 229-135 67-197 121-309 270-117 154-175 208-252 233-105 35-183 50-208 41zm149-130c59-43 165-143 272-259 93-100 122-143 113-166-15-39-95 0-264 128-135 102-159 124-183 170-30 58-23 158 11 158 4 0 27-14 51-31zM9425 5784c-11-3-30-7-42-10-19-4-23-11-23-43 0-46 33-178 55-221 21-41 44-48 188-59 115-9 151-17 256-56 24-9 46-14 48-11 14 14-166 312-222 366-36 34-36 35-138 37-56 1-111 0-122-3zM10745 5727c-83-45-217-130-294-185l-65-46 36-31c20-17 87-60 150-95 217-124 455-325 503-426 14-30 32-54 39-54 38 0 182 142 260 258 33 50 38 63 34 103-10 104-190 280-443 432-60 36-121 69-135 72-17 3-44-5-85-28zM10224 5390c-89-45-174-116-174-146 0-58 94-204 214-333 145-155 258-348 290-493 4-16 13-28 21-28 38 0 373 317 390 369 10 32-48 102-255 310-199 200-373 351-405 351-12 0-48-13-81-30zM9425 5331c-9-15-23-150-40-386-9-121-23-281-32-355-24-201-22-244 14-321 38-80 103-167 183-243 60-58 62-59 108-53 26 3 150 29 276 58l229 53-6 186c-4 121-14 240-31 345-37 240-104 567-118 581-25 23-235 83-434 124-107 22-140 25-149 11zM10294 4647c-3-9 0-55 6-101 22-143 6-330-41-498-7-26-10-51-6-54 21-21 160 176 173 244 12 63-68 366-107 406-17 18-19 18-25 3z"
  />
</svg>