<svg xmlns="http://www.w3.org/2000/svg" id="root" viewBox="1630 1620 8680 6661">
  <path
    d="M1630 8154c0-98 3-129 15-140 13-13 15-66 15-355 0-293-2-340-15-345-17-7-21-44-4-44 15 0 43-46 79-87 178-196 330-401 495-568 33-34 36-35 115-35 47 0 80 4 80 10s115 10 325 10h325v1649l-22 7c-88 25-103 7-178-5-6-1-10-130-10-365 0-233-4-367-10-371-6-3-10-31-10-61s-4-54-10-54c-5 0-10-5-10-11 0-16-26-39-44-39-9 0-16-4-16-10s-135-10-385-10h-386l-24 25c-18 18-25 35-25 65 0 22-4 40-10 40-7 0-10 143-10 410v410h-280z"
  />
  <path
    d="M2050 7955c0-210-4-325-10-325s-10-35-10-85v-85h232l-7 78c-3 42-8 227-11 410l-5 332h-189zm340-84v-411h290v394c0 348-2 395-16 400-8 3-13 9-10 14 2 4-56 9-130 11l-134 2zm913 390-33-15V7234c0-664-3-1015-10-1019-13-8-14-1185-1-1185 67 1 270-16 281 40v285c0 183-8 234-10 285-4 114-10 177-10 510s-7 452-10 510c-32 459 10 1043 10 1385v204l-32 9c-64-11-124 30-185 3zm5246-11 6-242c3-134 8-831 10-1550l5-1308h60c145-5 338 5 483 3 352-4 344-3 357 46 32 121 80 239 80 371-114 25-667-56-738 18-24 15-31 23-33 50-4 79 3 82 175 82 233 35 436 25 651 20 30 69 80 211 95 290 0 19-7 20-105 20-253 27-689-44-753 97-5 21-2 29-2 54 2 110 53 75 761 89 171-5 179 2 186 52 19 86 62 174 63 257l-257 5c-264-3-726-40-739 50-5 44-17 99 0 115 36 34 60 27 243 27 181 0 359 14 494 14 336 0 327 2 339 54 63 213 215 764 240 906 2 9 3 17 3 28 0 20 0 12-578 12-633-5-668-24-720 65-28 102-36 181 25 184 219 23 548 29 738 30l632 1c27 46 40 104 40 155v35h-387c-553-11-1373 31-1374-30zm-4516 2-303-2V6600h1090v614c0 399 4 617 10 621s10 85 10 211v204l-207 1-253 2c-25 1-181 1-347-1zm1300 0-243-2v-280c0-175 4-281 10-285 7-4 10-458 10-1331 0-1317 0-1324 20-1324 621 58 1305 92 1891 100 37 1 19 21 19 1386 0 986 3 1383 11 1379 11-8 7 248-6 318l-7 37h-82c-727 4-1431 4-1623 2zm1887 0c-7-3-10-976-10-2882 0-1909-3-2881-10-2885-6-4-10-155-10-421 0-269 3-414 10-414 6 0 10-7 10-15 0-13 68-15 555-15h555v6630l-545 2c-300 2-550 2-555 0zM4160 5212c-35-32-42-44-75-62-101-89-228-176-330-235-19-18-18-46-25-70-4-15-4-45-10-45 4-43-29-95-30-130 0-11 2-20 5-20 124 130 158 218 380 420 10 0 101 102 115 120 13 14 20 8 20 30 0 11-4 20-10 20l-40-28zm-1774-51c174-143 488-347 668-478 27-21 19 14 12 38-7 60 8 108-28 150a7097 7097 0 0 1-629 299c-8 1-18-2-23-9zm2724-321-2-1352c-9-525-17-1153-18-1633v-235h1969l1 729c0 482-3 732-10 736s-10 318-10 931v924h-467c-529 63-988-100-1463-100zm1056-204c16-17 20-106 4-106-5 0-10-7-10-15 0-13-36-15-260-15-142 7-217 13-269 19-42 5-55 90-19 115 32 23 532 24 554 2zm19-506c11-18 15-12 15-50 0-41-5-56-25-75-23-24-30-25-145-25-101 4-198 20-276 20-174 0-184 3-184 65 0 23 8 44 23 60l22 24h278c99 11 269-3 292-19zm1-496c25-33 32-47 34-94 0-19-9-40-25-55-23-24-29-25-155-25-96 1-190 20-265 20-83 0-135 4-135 10-35 15-48 21-50 47l2 40c-14 91 195 68 261 68 99 3 163 5 222 5 51 0 111-4 111-16zM3258 4836c-2-74 46-210 74-257 25-24 45-35 79-21 81 67 88 201 89 302-15 5-222-12-242-24zm32-531c4-382 90-773 99-1137 1-53 4-68 16-68 20 2 21 12 25 40 20 180 42 904 50 1220-11 0-20-4-20-10s-28-10-65-10-65 4-65 10-9 10-20 10c-18 0-20-7-20-55z"
  />
</svg>
