<svg id="root" xmlns="http://www.w3.org/2000/svg" width="768" height="441" viewBox="0 0 7680 4410">
  <g fill="#000001">
    <path
      d="M2235 3796c-17-7-35-19-42-28-7-8-30-161-52-349-46-380-51-445-35-442 15 3 279-25 309-33 14-3 25-4 25-2s22 178 50 391c27 212 47 393 44 402-21 53-223 94-299 61zm3638-817c-32-34-62-67-68-73-84-95-246-273-353-387l-63-66 28-18c15-10 48-37 73-61 25-23 66-59 92-80 26-22 50-47 53-56 4-10 10-18 14-18s88 87 187 193c98 105 212 227 253 270 42 43 84 91 94 107 18 28 18 30 0 67-23 50-108 135-160 162-66 33-84 29-150-40zm-3753-28c0-6 20-11 48-11 26 0 89-9 140-19 71-14 92-15 92-5 0 15-29 21-140 29-47 3-97 8-112 11-17 3-28 1-28-5z" />
    <path
      d="M2120 2920c0-5 20-10 44-10 205 0 722-172 1171-391l130-63-75-12c-131-20-202-42-306-94-344-172-531-555-459-937 61-320 291-550 617-617 145-30 432-16 583 28 28 8 92 17 144 21 304 22 542 174 667 425 52 106 74 189 81 312 11 194-40 358-162 517-55 72-94 108-177 164-167 113-360 174-610 193-49 4-85 11-81 15 26 25 255 132 350 163 147 47 269 66 430 66 403 0 692-118 1033-420 97-85 123-99 44-22-163 157-397 312-569 375-231 85-544 108-783 57-170-36-385-123-511-205-30-20-50-24-116-25-80-2-80-1-220 68-349 174-758 324-1025 375-113 22-200 30-200 17zm1473-495c-13-10-23-10-38-2-19 10-19 11 5 17 36 10 55 1 33-15zm322-1c133-20 300-78 404-139 98-58 229-183 280-270 106-176 135-412 75-616-26-88-104-226-167-295-128-140-351-243-527-244h-45l80 41c150 77 240 163 295 281 75 159 62 323-40 533-69 144-157 262-305 411-113 114-146 140-252 204-68 40-123 74-123 75 0 2 15 12 32 24 28 17 44 19 113 15 44-3 125-12 180-20zm-386-3 33-18-63-50c-82-65-226-214-268-276-65-95-136-271-170-417-100-435 85-719 514-791 61-10 139-22 175-27l65-8-90-17c-49-10-142-20-205-24-288-15-521 66-683 238-86 90-130 161-168 271-92 270-38 581 142 814 106 137 288 250 474 293 151 35 197 37 244 12zm110-62c123-70 231-152 322-245 188-193 303-373 355-554 23-81 26-105 22-196-4-94-8-110-41-176-20-40-50-90-67-110-46-55-139-123-233-171-77-39-88-42-177-45-113-4-264 17-375 52-378 119-491 461-311 934 44 115 79 184 126 247 63 84 286 294 314 295 5 0 34-14 65-31z" />
    <path
      d="M2110 2893c0-10 277-49 286-41 6 6-140 34-223 43-37 4-63 3-63-2zm-44-75c-9-76-66-700-66-719 0-14 10-16 70-11 77 5 173-10 235-37l41-18 38 381c21 210 40 388 42 396 3 13-23 19-154 34-86 9-167 20-179 23-19 4-22 0-27-49zm3334-405c0-14 208-189 215-181 2 2-37 39-87 83-105 92-128 109-128 98zm-97-46c-4-9-24-33-43-54s-91-103-159-183c-69-80-143-166-165-191-23-25-65-73-93-106l-53-61 46-22c58-28 169-139 185-185 7-19 16-35 19-35s42 42 86 92c43 51 102 118 129 148 28 31 79 89 115 130s98 110 137 154l73 80-38 31c-20 16-50 44-67 61-16 17-60 59-97 93-52 50-68 59-75 48zm156-96c57-55 108-98 113-95 12 8-37 60-122 128-105 85-102 74 9-33z" />
    <path
      d="M2011 2061c-21-14 1-38 42-47 18-3 49-15 71-25 21-10 43-16 48-12 6 3 44 8 84 12 41 3 75 11 76 16 1 6-21 21-48 35-41 21-66 25-154 28-58 1-111-1-119-7zm2778-343c11-18 33-54 48-80 16-26 35-48 43-48s42-18 74-40c33-22 61-38 64-36 33 34-165 236-231 236-18 0-18-1 2-32z" />
  </g>
</svg>