<svg xmlns="http://www.w3.org/2000/svg" id="root" viewBox="0 0 99 72">
  <g>
    <path
      d="M 5.546875 71.71875 C 5.144531 71.550781 4.71875 71.265625 4.554688 71.050781 C 4.390625 70.863281 3.847656 67.222656 3.328125 62.753906 C 2.242188 53.71875 2.125 52.171875 2.503906 52.242188 C 2.855469 52.3125 9.085938 51.648438 9.792969 51.457031 C 10.121094 51.386719 10.382812 51.363281 10.382812 51.410156 C 10.382812 51.457031 10.902344 55.644531 11.5625 60.707031 C 12.199219 65.75 12.671875 70.054688 12.597656 70.269531 C 12.105469 71.527344 7.339844 72.503906 5.546875 71.71875 Z M 91.367188 52.289062 C 90.609375 51.480469 89.902344 50.695312 89.761719 50.554688 C 87.78125 48.296875 83.957031 44.0625 81.433594 41.351562 L 79.949219 39.78125 L 80.609375 39.355469 C 80.964844 39.117188 81.742188 38.472656 82.332031 37.902344 C 82.921875 37.355469 83.886719 36.5 84.5 36 C 85.113281 35.476562 85.679688 34.882812 85.75 34.667969 C 85.847656 34.433594 85.988281 34.242188 86.082031 34.242188 C 86.175781 34.242188 88.15625 36.308594 90.492188 38.832031 C 92.804688 41.328125 95.496094 44.230469 96.460938 45.25 C 97.453125 46.273438 98.441406 47.414062 98.679688 47.796875 C 99.105469 48.460938 99.105469 48.507812 98.679688 49.390625 C 98.136719 50.578125 96.132812 52.597656 94.90625 53.242188 C 93.347656 54.027344 92.921875 53.929688 91.367188 52.289062 Z M 2.832031 51.625 C 2.832031 51.480469 3.304688 51.363281 3.964844 51.363281 C 4.578125 51.363281 6.066406 51.148438 7.269531 50.910156 C 8.941406 50.578125 9.4375 50.554688 9.4375 50.792969 C 9.4375 51.148438 8.753906 51.292969 6.136719 51.480469 C 5.027344 51.554688 3.847656 51.671875 3.492188 51.742188 C 3.09375 51.816406 2.832031 51.765625 2.832031 51.625 Z M 2.832031 51.625 "
    />
    <path
      d="M 2.832031 50.886719 C 2.832031 50.769531 3.304688 50.648438 3.871094 50.648438 C 8.707031 50.648438 20.902344 46.558594 31.496094 41.351562 L 34.5625 39.855469 L 32.792969 39.566406 C 29.703125 39.09375 28.027344 38.570312 25.574219 37.332031 C 17.460938 33.242188 13.046875 24.136719 14.746094 15.050781 C 16.183594 7.441406 21.609375 1.972656 29.300781 0.378906 C 32.722656 -0.335938 39.492188 0 43.054688 1.046875 C 43.714844 1.234375 45.222656 1.449219 46.449219 1.542969 C 53.621094 2.066406 59.238281 5.683594 62.183594 11.652344 C 63.414062 14.171875 63.929688 16.144531 64.097656 19.070312 C 64.355469 23.683594 63.152344 27.582031 60.273438 31.363281 C 58.976562 33.078125 58.058594 33.933594 56.097656 35.265625 C 52.160156 37.953125 47.605469 39.402344 41.710938 39.855469 C 40.554688 39.949219 39.703125 40.113281 39.796875 40.210938 C 40.410156 40.804688 45.8125 43.347656 48.054688 44.085938 C 51.523438 45.203125 54.402344 45.65625 58.199219 45.65625 C 67.707031 45.65625 74.523438 42.851562 82.566406 35.667969 C 84.855469 33.648438 85.46875 33.3125 83.605469 35.144531 C 79.761719 38.878906 74.238281 42.566406 70.183594 44.0625 C 64.734375 46.082031 57.347656 46.628906 51.710938 45.417969 C 47.703125 44.5625 42.628906 42.492188 39.65625 40.542969 C 38.949219 40.066406 38.476562 39.972656 36.921875 39.949219 C 35.035156 39.902344 35.035156 39.925781 31.730469 41.566406 C 23.496094 45.703125 13.851562 49.269531 7.550781 50.484375 C 4.886719 51.007812 2.832031 51.195312 2.832031 50.886719 Z M 37.582031 39.117188 C 37.273438 38.878906 37.039062 38.878906 36.683594 39.070312 C 36.238281 39.308594 36.238281 39.332031 36.800781 39.472656 C 37.652344 39.710938 38.101562 39.496094 37.582031 39.117188 Z M 45.175781 39.09375 C 48.316406 38.617188 52.253906 37.238281 54.707031 35.789062 C 57.019531 34.40625 60.109375 31.4375 61.3125 29.367188 C 63.8125 25.179688 64.496094 19.570312 63.082031 14.71875 C 62.46875 12.625 60.628906 9.34375 59.140625 7.703125 C 56.121094 4.375 50.863281 1.925781 46.710938 1.902344 L 45.648438 1.902344 L 47.535156 2.875 C 51.074219 4.707031 53.199219 6.753906 54.496094 9.558594 C 56.265625 13.339844 55.957031 17.238281 53.550781 22.234375 C 51.925781 25.65625 49.847656 28.464844 46.355469 32.007812 C 43.691406 34.71875 42.914062 35.335938 40.410156 36.855469 C 38.808594 37.808594 37.511719 38.617188 37.511719 38.640625 C 37.511719 38.6875 37.863281 38.925781 38.265625 39.210938 C 38.925781 39.617188 39.304688 39.664062 40.929688 39.566406 C 41.96875 39.496094 43.878906 39.28125 45.175781 39.09375 Z M 36.070312 39.019531 L 36.851562 38.59375 L 35.363281 37.40625 C 33.429688 35.859375 30.03125 32.316406 29.042969 30.839844 C 27.507812 28.582031 25.832031 24.398438 25.03125 20.925781 C 22.671875 10.582031 27.035156 3.828125 37.15625 2.113281 C 38.59375 1.878906 40.4375 1.59375 41.285156 1.472656 L 42.816406 1.28125 L 40.695312 0.878906 C 39.539062 0.640625 37.34375 0.402344 35.859375 0.308594 C 29.066406 -0.046875 23.570312 1.878906 19.746094 5.96875 C 17.71875 8.109375 16.679688 9.796875 15.785156 12.410156 C 13.613281 18.832031 14.886719 26.226562 19.132812 31.769531 C 21.632812 35.027344 25.929688 37.714844 30.316406 38.734375 C 33.878906 39.566406 34.960938 39.617188 36.070312 39.019531 Z M 38.667969 37.546875 C 41.566406 35.882812 44.117188 33.933594 46.261719 31.722656 C 50.695312 27.132812 53.410156 22.851562 54.636719 18.546875 C 55.179688 16.621094 55.25 16.050781 55.15625 13.886719 C 55.0625 11.652344 54.96875 11.269531 54.1875 9.699219 C 53.714844 8.75 53.007812 7.5625 52.609375 7.085938 C 51.523438 5.777344 49.328125 4.160156 47.113281 3.019531 C 45.296875 2.089844 45.035156 2.019531 42.9375 1.949219 C 40.269531 1.855469 36.707031 2.351562 34.089844 3.183594 C 25.171875 6.015625 22.507812 14.148438 26.753906 25.394531 C 27.792969 28.128906 28.617188 29.769531 29.726562 31.269531 C 31.210938 33.265625 36.472656 38.261719 37.132812 38.285156 C 37.25 38.285156 37.933594 37.953125 38.667969 37.546875 Z M 38.667969 37.546875 "
    />
    <path
      d="M 2.597656 50.246094 C 2.597656 50.007812 9.132812 49.082031 9.34375 49.269531 C 9.484375 49.414062 6.042969 50.078125 4.082031 50.292969 C 3.210938 50.386719 2.597656 50.363281 2.597656 50.246094 Z M 1.558594 48.460938 C 1.347656 46.65625 0.00390625 31.816406 0.00390625 31.363281 C 0.00390625 31.03125 0.238281 30.984375 1.652344 31.101562 C 3.46875 31.222656 5.734375 30.863281 7.199219 30.222656 L 8.164062 29.792969 L 9.0625 38.855469 C 9.554688 43.847656 10.003906 48.082031 10.050781 48.273438 C 10.121094 48.582031 9.507812 48.722656 6.417969 49.082031 C 4.390625 49.292969 2.480469 49.554688 2.195312 49.628906 C 1.75 49.722656 1.675781 49.628906 1.558594 48.460938 Z M 80.207031 38.832031 C 80.207031 38.5 85.113281 34.335938 85.28125 34.527344 C 85.328125 34.574219 84.40625 35.453125 83.226562 36.5 C 80.75 38.6875 80.207031 39.09375 80.207031 38.832031 Z M 77.921875 37.738281 C 77.824219 37.523438 77.355469 36.953125 76.90625 36.453125 C 76.457031 35.953125 74.757812 34.003906 73.15625 32.101562 C 71.527344 30.199219 69.78125 28.152344 69.261719 27.558594 C 68.71875 26.964844 67.730469 25.824219 67.070312 25.039062 L 65.816406 23.589844 L 66.902344 23.066406 C 68.273438 22.398438 70.890625 19.757812 71.269531 18.664062 C 71.433594 18.214844 71.644531 17.832031 71.714844 17.832031 C 71.785156 17.832031 72.707031 18.832031 73.746094 20.019531 C 74.757812 21.234375 76.152344 22.828125 76.789062 23.539062 C 77.449219 24.277344 78.652344 25.65625 79.5 26.632812 C 80.351562 27.605469 81.8125 29.246094 82.730469 30.292969 L 84.453125 32.195312 L 83.558594 32.933594 C 83.085938 33.3125 82.378906 33.980469 81.976562 34.382812 C 81.601562 34.789062 80.5625 35.789062 79.6875 36.597656 C 78.460938 37.785156 78.085938 38 77.921875 37.738281 Z M 81.601562 35.453125 C 82.945312 34.148438 84.148438 33.125 84.265625 33.195312 C 84.546875 33.386719 83.394531 34.621094 81.386719 36.238281 C 78.910156 38.261719 78.980469 38 81.601562 35.453125 Z M 81.601562 35.453125 "
    />
    <path
      d="M 0.261719 30.460938 C -0.234375 30.128906 0.285156 29.558594 1.253906 29.34375 C 1.675781 29.273438 2.410156 28.984375 2.925781 28.75 C 3.421875 28.511719 3.941406 28.367188 4.058594 28.464844 C 4.203125 28.535156 5.097656 28.652344 6.042969 28.75 C 7.007812 28.820312 7.8125 29.011719 7.835938 29.128906 C 7.859375 29.273438 7.339844 29.628906 6.703125 29.960938 C 5.734375 30.460938 5.144531 30.554688 3.070312 30.628906 C 1.699219 30.652344 0.449219 30.601562 0.261719 30.460938 Z M 65.792969 22.304688 C 66.054688 21.875 66.574219 21.019531 66.925781 20.402344 C 67.304688 19.785156 67.753906 19.261719 67.941406 19.261719 C 68.128906 19.261719 68.933594 18.832031 69.6875 18.308594 C 70.464844 17.785156 71.125 17.40625 71.195312 17.453125 C 71.976562 18.261719 67.304688 23.066406 65.746094 23.066406 C 65.324219 23.066406 65.324219 23.042969 65.792969 22.304688 Z M 65.792969 22.304688 "
    />
  </g>
</svg>
