<svg id="root" xmlns="http://www.w3.org/2000/svg" width="1200" height="1200" viewBox="200 200 1400 1400">
  <path
    d="M815 1364 l-79 -166 -11 -4 c-5 -2 -94 2 -196 9 l-186 12 108 -161 108 -161 -105 -158 c-58 -86 -104 -158 -102 -160 4 -4 228 10 325 20 l53 5 81 -170 c45 -93 85 -170 89 -170 4 0 44 77 89 170 l81 170 53 -5 c97 -10 321 -24 325 -20 2 2 -44 74 -102 160 l-105 158 108 161 108 161 -186 -12 c-102 -7 -191 -11 -196 -9 l-11 4 -79 166 c-44 91 -82 166 -85 166 -3 0 -41 -75 -85 -166z m173 -35 l69 -147 -67 -116 c-37 -64 -70 -120 -74 -123 l-6 -6 0 273 c0 150 2 271 4 269 2 -2 35 -70 74 -150z m-338 -148 l74 -6 73 -123 c40 -68 73 -125 73 -127 0 -5 -451 254 -465 266 l-9 9 89 -6 c50 -3 124 -9 165 -13z m670 -146 l-90 -135 -147 0 c-80 0 -144 2 -141 5 9 9 453 264 461 265 4 0 -33 -61 -83 -135z m-465 -154 c-15 -14 -460 -269 -463 -266 -2 2 38 64 89 139 l93 136 145 0 145 0 -9 -9z m313 -152 c125 -72 229 -133 232 -136 l5 -6 -100 7 c-55 3 -130 9 -166 12 l-66 6 -41 72 c-23 39 -55 95 -72 124 -17 28 -28 52 -25 52 3 0 108 -59 233 -131z m-279 -151 l-1 -273 -73 149 -74 148 30 52 c16 28 48 84 71 124 23 39 43 72 45 72 2 0 3 -123 2 -272z">
  </path>
</svg>