<svg id="root" xmlns="http://www.w3.org/2000/svg" width="180" height="180" viewBox="0 0 1800 1800">
  <path
    d="M835 1390 l-59 -180 -147 146 c-81 80 -152 143 -158 140 -6 -4 -8 -19 -5 -35 13 -62 -55 -131 -128 -131 -21 0 -38 -3 -38 -7 0 -4 66 -74 147 -155 110 -110 143 -149 131 -153 -9 -4 -96 -32 -194 -64 l-179 -58 180 -58 c99 -31 184 -60 189 -62 4 -3 -56 -70 -134 -148 -83 -83 -140 -147 -136 -154 4 -6 25 -11 47 -11 31 0 47 -7 76 -34 31 -28 37 -40 38 -77 1 -23 5 -44 11 -46 5 -2 72 60 149 137 77 77 142 140 145 140 3 0 33 -83 65 -185 33 -101 62 -184 65 -184 3 0 32 83 65 184 32 102 62 185 65 185 3 0 68 -63 145 -140 77 -77 144 -139 149 -137 6 2 10 22 11 45 2 64 58 116 122 114 18 -1 35 3 39 9 4 6 -56 74 -136 154 -78 78 -138 145 -134 148 5 2 90 31 189 62 l180 58 -179 58 c-98 32 -185 60 -194 64 -12 4 21 43 131 153 81 81 147 151 147 155 0 4 -17 7 -37 7 -74 0 -144 75 -129 136 13 52 -33 20 -169 -116 l-141 -140 -59 180 c-33 99 -62 180 -65 180 -3 0 -32 -81 -65 -180z">
  </path>
</svg>