<svg xmlns="http://www.w3.org/2000/svg" id="root" viewBox="0 0 19020 16280">

  <path
    d="M7041 16265c-66-19-118-57-127-91-11-43 4-124 35-190 86-184 271-374 536-551 153-102 911-532 1245-707 166-86 164-87-55-56-230 34-508 94-900 195-906 235-1422 340-2091 426-288 37-504 42-687 15-453-66-942-257-1435-559-98-60-128-83-115-88 28-10 198-19 517-29 438-14 828-64 2636-340 322-49 650-97 730-105 198-22 698-31 930-16 440 28 938 103 1172 177l78 25 78-25c235-74 742-150 1177-177 237-14 727-6 925 16 80 8 381 52 670 96 1856 283 2259 335 2700 349 318 10 485 19 513 29 13 5-18 28-115 88-328 201-626 341-954 446-403 130-703 157-1129 103-675-85-1259-203-2108-425-470-123-837-199-1047-216l-75-6 70 37c218 113 524 282 855 472 501 287 597 352 768 516 165 159 262 319 270 443 4 61 3 64-30 96-19 18-52 39-74 46-48 16-251 25-320 14l-51-8-211-247-211-247-253-202c-473-378-908-693-1113-805-120-65-252-107-335-107-71 1-198 37-285 80-211 107-640 414-1174 841l-243 195-193 226c-106 124-202 237-212 250-19 23-26 24-164 27-108 3-158 0-198-11zM4510 14223c-514-23-994-155-1350-373-317-194-601-419-865-684-268-269-414-480-415-599v-37l113 60c688 371 1060 505 1868 674 339 71 401 85 649 152 176 48 514 144 560 160 18 6 17 6-75-68-346-278-645-779-815-1366-95-329-146-635-185-1107l-7-79 176 171c96 94 242 229 323 300 396 345 468 410 525 476 110 128 200 281 483 822 187 358 277 515 344 604 84 111 255 304 425 477 96 98 174 179 173 180-1 2-128 27-282 58-763 150-1209 199-1645 179zM14055 14220c-291-18-672-75-1188-176l-288-57 153-156c305-310 464-503 570-689 31-54 129-238 218-408 249-475 344-643 432-762 60-82 177-195 383-372 256-220 359-313 538-489 108-107 157-149 157-135 0 10-7 98-15 194-83 947-374 1714-834 2193-52 54-124 121-160 149-90 70-89 69-50 57 444-132 822-230 1204-309 800-166 1181-305 1863-675l102-55v34c0 261-722 971-1346 1325-289 164-645 271-1051 315-176 20-507 27-688 16z"
  />
  <path
    d="M3890 12984c-451-164-819-284-1178-384-515-143-978-483-1330-976-315-443-730-1361-855-1892-4-15 113 95 306 290 517 521 605 598 1147 1002 623 464 865 657 1077 859 53 51 93 83 89 72-21-56-81-266-117-409-101-400-168-808-205-1248-28-330-21-856 14-1063l7-39 85 114c375 510 677 1031 794 1368 65 189 147 623 246 1311 41 287 140 1037 140 1064 0 11-2 10-220-69zM14910 13051c0-24 105-817 145-1091 95-656 175-1083 239-1275 89-264 277-612 560-1034 149-222 316-454 322-448 2 2 12 69 21 148 22 199 22 707-1 959-51 570-145 1069-295 1563l-29 98 81-78c211-201 432-378 1047-839 250-188 505-384 565-436 164-141 546-510 749-722 98-103 180-185 183-183 7 8-88 320-148 485-123 334-327 781-498 1087-251 449-543 778-906 1020-228 152-419 236-730 321-221 61-691 216-1058 348-131 47-241 86-243 86s-4-4-4-9zM9177 12820c-2035-116-3860-1150-4990-2827-595-884-944-1856-1063-2958-21-202-30-817-15-1041 100-1446 649-2759 1608-3844 199-225 530-540 773-736C6377 698 7460 227 8585 65c352-50 493-60 925-60s573 10 925 60c940 135 1846 484 2645 1018 539 361 1046 829 1456 1343 566 711 981 1555 1199 2439 146 591 205 1160 184 1777-63 1865-936 3604-2397 4776-998 800-2194 1278-3472 1387-223 19-670 27-873 15zm-257-3510V7070H4390v23c0 92 91 528 159 762 250 859 700 1609 1348 2246 402 395 836 703 1338 949 503 246 990 396 1560 480 66 10 121 18 123 19 1 1 2-1007 2-2239zm1340 2214c712-98 1465-384 2083-791 146-96 354-251 502-374 142-118 503-481 625-629 534-645 892-1362 1074-2150 37-162 86-435 86-482v-28h-4530v4477l23-3c12-2 74-11 137-20zM8920 3590V1279l-52 7c-152 18-426 70-603 114-1486 366-2733 1380-3406 2765-254 525-414 1078-485 1678l-6 57h4552V3590zm5730 2296c0-8-7-68-15-133-190-1482-1024-2819-2275-3648-495-328-1028-562-1602-705-179-44-449-95-605-114l-53-7v4621h2275c1980 0 2275-2 2275-14z"
  />
  <path
    d="M2288 10847c-484-364-1009-852-1338-1244-471-559-785-1329-840-2058-12-150-5-405 10-388 4 4 36 73 70 153 130 303 258 528 398 700 33 41 163 176 288 300 317 314 519 543 656 745 30 44 123 216 208 382s156 300 158 299c1-2-4-32-12-67-28-122-56-345-66-541-31-586 79-1247 292-1748 44-102 125-268 166-339 25-42 26-43 34-20 21 55 149 548 187 719 103 464 126 647 118 955-6 242-18 373-78 850-32 257-46 423-69 840-17 286-30 530-30 543 0 12-3 22-7 22-5 0-70-47-145-103zM16580 10926c0-39-49-926-55-1001-4-38-24-214-46-390-66-545-72-620-73-905-1-232 2-283 22-410 47-294 125-637 234-1034 46-169 53-186 66-170 33 45 195 390 237 509 140 390 210 749 235 1205 17 299-6 652-59 911-11 52-19 95-17 96 1 1 64-120 140-270 167-327 187-361 291-503 134-180 252-312 570-634 298-302 370-385 464-538 63-100 171-318 246-492 32-74 62-139 66-143 11-14 22 216 15 326-45 690-309 1409-718 1959-241 324-726 809-1182 1181-160 132-416 327-428 327-5 0-8-11-8-24z"
  />
  <path
    d="M1335 8598c-134-218-516-816-670-1049-101-151-204-318-230-369-174-346-334-944-402-1500-14-111-18-221-18-475 0-339 7-440 46-635 10-52 19-99 19-105 0-5 49 136 109 315 163 488 208 600 342 845 231 422 408 834 484 1122 14 54 41 200 60 324 36 239 73 420 108 529l22 65 6-205c12-395 95-736 263-1085 172-356 551-911 851-1245 37-41 71-76 76-78 24-9 4 481-32 758-50 398-106 589-381 1305-89 232-607 1536-613 1543-1 1-19-26-40-60zM17357 7937c-375-944-520-1325-591-1560-71-233-125-564-146-892-12-189-13-435-2-435s157 167 265 302c228 287 514 723 641 975 188 375 286 776 287 1179 1 85 3 154 5 154 8 0 56-175 79-286 13-66 36-200 50-299s35-218 45-265c70-298 232-687 467-1123 132-243 168-322 248-537 60-161 181-522 211-631 21-76 25-69 53 102 33 197 42 324 42 577 0 503-86 1026-251 1537-112 345-166 456-362 750-147 220-417 642-638 995-57 91-106 168-109 172s-135-318-294-715z"
  />
  <path
    d="M1106 6653c-15-78-198-809-271-1078-154-565-211-874-236-1279-19-310 11-612 87-876 86-294 244-651 434-975 72-123 252-397 257-391 3 2-2 98-11 213-64 854-56 1668 20 2158 16 100 53 287 59 293 2 2 153-147 337-331 341-342 492-484 1012-953 165-148 323-291 353-317 30-28 53-42 53-34 0 92-403 929-704 1465-183 326-272 450-518 724-280 314-341 384-427 499-48 63-108 152-134 197-55 99-164 351-242 562-31 85-58 156-60 158-1 2-6-14-9-35zM17880 6624c-34-104-185-476-232-571-84-173-211-341-488-648-380-420-469-546-750-1064-265-490-599-1204-588-1257 2-10 19 0 53 32 28 26 183 166 345 312 514 464 667 607 1014 954 186 187 340 338 342 336 13-14 63-299 83-483 51-461 49-1265-5-1979-8-109-13-200-11-203 7-6 163 233 256 392 286 489 466 961 510 1340 53 459-14 1038-195 1687-25 90-106 401-179 692l-133 528-22-68z"
  />
  <path
    d="M1565 4198c-66-221-82-747-40-1323 34-468 86-678 255-1020 87-177 213-373 346-540 175-219 507-529 747-699l68-48-71 133c-341 643-619 1360-696 1794-19 110-25 330-8 357 9 16 21 11 124-48 218-126 511-329 955-663 195-146 657-504 773-599l43-35-20 49c-149 374-357 746-563 1006-162 206-531 547-1208 1119-209 176-629 525-677 561-8 7-16-6-28-44zM17390 4213c-708-580-1370-1154-1640-1423-249-248-419-493-614-889-87-175-171-369-164-377 2-1 118 88 258 198 649 510 1202 909 1500 1082 103 59 115 64 125 48 16-27 10-255-9-362-79-436-372-1188-705-1808l-61-114 67 48c235 165 572 480 747 699 136 170 260 364 351 550 165 335 215 535 250 1005 43 573 22 1187-46 1347l-14 32-45-36z"
  />
  <path
    d="M2300 2615c0-102 83-465 144-630 262-705 856-1266 1656-1563 140-52 358-117 366-109 8 7-53 153-130 312-284 586-694 1058-1331 1533-167 125-651 453-688 468-12 4-17 1-17-11zM16520 2509c-927-606-1438-1117-1790-1793-76-145-185-394-177-403 19-18 427 124 625 218 333 157 596 341 837 583 293 295 489 622 609 1017 53 178 112 500 90 499-5-1-92-55-194-121z"
  />

</svg>