<svg xmlns="http://www.w3.org/2000/svg" viewBox="0 0 3690 4190">
  <g fill="#000000">
    <path
      d="M1683 4015c-57-88-174-272-262-410l-160-250 57-30c71-38 176-141 223-220 108-184 159-395 159-664 0-222-36-376-95-403-87-40-285 122-505 414-51 68-96 126-99 130-4 4-151-17-326-47-176-30-323-55-326-55-6 0-189-206-189-213 0-2 37 15 83 39 139 72 223 95 367 101 93 4 142 1 192-11 227-53 443-196 587-386 67-89 84-136 55-157-61-45-382 23-830 176l-172 59-153-181c-85-99-184-216-221-261l-68-81v-220l1-220 27 65c93 217 289 397 544 499 42 17 121 43 175 58 87 24 115 27 258 28 142 0 168-3 227-23 87-30 149-78 177-138 38-80 7-128-102-159-52-15-94-17-260-14l-198 4-165-315c-91-173-205-392-254-485l-88-170 81-85C685 116 803-3 797 10c-27 69-69 212-82 285-25 129-17 313 18 412 89 259 299 442 637 556 99 34 284 77 329 77 12 0 21 3 21 7s-21 50-46 102c-38 78-61 109-133 183l-88 88 52 39c67 51 130 125 199 234 95 152 87 40 84 1177l-3 1005-102-160zM1900 3160V2147l41-76c81-147 160-248 244-312l52-39-87-88c-73-73-95-102-134-182-25-53-46-99-46-103s9-7 21-7c40 0 218-40 310-70 349-114 572-307 655-565 20-61 27-108 31-200 6-141-10-244-62-399-19-56-32-102-31-104 2-1 25 21 51 50 43 47 202 214 351 368l53 55-253 485-254 485-199-3c-258-4-343 16-373 88-10 25-9 36 13 83 47 103 159 156 349 164 133 6 230-5 356-43 322-97 567-294 673-542l28-67 1 221v222l-221 260-220 260-177-59c-368-124-624-189-742-189-81 0-104 12-96 51 16 83 182 265 329 363 160 106 314 156 481 156 134 0 243-27 376-92 58-29 109-54 114-56 5-3-35 45-89 107-54 61-99 111-100 111s-148 25-326 55l-324 55-20-26c-181-243-320-399-420-469-144-102-198-85-242 75-15 53-18 105-18 280 1 198 3 224 27 328 29 120 74 236 130 330 45 76 150 180 220 217l56 30-255 400c-140 220-259 404-264 410-5 5-9-392-9-1005zM1835 1135c-37-154-92-288-156-384-27-41-49-78-49-82 0-12 213-490 216-486 2 2 52 113 112 247l109 244-34 45c-65 85-113 196-183 421l-8 25-7-30z"
    />
  </g>
</svg>
