<svg xmlns="http://www.w3.org/2000/svg" viewBox="0 0 810 450"><path d="M285 436c-17-7-45-30-63-50-29-34-32-42-32-104 1-37 5-87 10-112 10-54-5-85-47-93-57-11-123 40-123 96 0 31 18 47 55 47 17 0 40 6 51 14 18 14 18 16 2 32-15 15-22 16-57 5-105-31-106-154-2-215 44-25 135-25 188 0 51 25 66 59 53 116-25 112-1 168 72 168 63 0 71-18 63-132-6-89-5-101 15-132 24-40 91-76 141-76 49 0 129 40 167 84 50 57 34 99-31 82-12-3-34-26-49-51-34-56-65-73-107-56-16 7-34 25-41 41-10 24-7 39 21 108 37 95 35 119-19 173-61 60-193 87-267 55z"/></svg>