<svg xmlns="http://www.w3.org/2000/svg" viewBox="0 0 3510 3180">
  <g fill="#000000">
    <path
      d="M1925 3129c-16-30-44-77-62-106s-33-54-33-57c0-15-63-106-73-106-7 0-49 64-94 143-46 78-87 148-91 155-9 13-106 4-199-18-24-5-64-15-90-21-97-23-145-39-266-89-43-18-76-36-75-39 4-8 135-197 205-294 42-58 49-74 39-85-11-11-71-3-337 41l-324 55-63-62c-107-103-216-257-292-411-101-206-145-365-156-566l-7-116 142-176c77-96 141-179 141-183-1-5-45-42-100-83l-98-74 20-51c163-416 529-775 963-946 11-4-19 31-66 79-226 227-338 515-326 836 8 207 65 368 207 580 92 137 285 334 413 420l88 60 3 75c8 154 72 325 161 427 55 63 159 133 198 133 59 0 167-76 234-165 85-113 130-244 136-398l3-78 49-31c258-159 508-460 606-729 49-136 59-197 55-364-4-165-20-242-81-393-65-161-211-353-345-456-46-35 193 77 300 140 209 125 396 299 529 494 103 151 193 339 173 363-6 7-49 41-96 77s-86 71-86 79 63 92 140 188l140 174v57c0 171-57 406-141 581-84 177-166 296-303 438-61 64-83 82-100 78-11-2-37-7-56-10-84-14-343-56-430-70-52-8-107-17-122-21-23-4-28-2-28 13 0 10 55 97 121 192 67 96 117 176 113 181-15 14-173 76-264 104-103 31-263 66-307 66-17 0-33 5-35 11s-17-13-33-42z" />
    <path
      d="M1716 2366c-55-83-103-191-136-303-45-156-47-185-17-225 74-99 127-273 127-418 0-122-42-288-98-390-65-119-208-277-311-346-23-14-41-31-41-36s19-30 43-56 59-64 77-85c18-20 36-34 39-30 9 12 286 220 322 242 42 26 49 22 247-127l163-122 39 47c21 27 54 66 73 88l34 39-62 48c-175 132-305 316-357 504-28 105-31 317-5 414 20 75 66 178 104 233l26 38-25 102c-43 171-102 304-184 412l-20 27-38-56z" />
    <path
      d="M1654 467c-147-177-142-146-39-273 48-60 102-124 118-141l30-33 16 23c9 12 60 76 113 141l98 119-27 36c-41 56-192 239-201 245-4 2-53-50-108-117z" />
  </g>
</svg>