<svg id="root" xmlns="http://www.w3.org/2000/svg" width="180" height="180" viewBox="0 0 1800 1800">
  <path
    d="M886 1734 c-15 -50 -46 -170 -46 -176 0 -5 11 -6 25 -2 l25 6 0 -323 0 -324 -225 225 c-124 124 -225 230 -225 237 0 6 8 13 18 15 11 3 -8 21 -63 56 -44 29 -86 52 -93 52 -12 0 5 -35 66 -133 22 -36 24 -38 37 -20 13 17 32 0 247 -214 l233 -233 -194 -194 c-168 -168 -199 -195 -231 -200 -23 -3 -58 -22 -87 -45 -128 -102 -152 -133 -84 -110 58 20 73 -3 46 -73 -16 -40 17 -13 84 69 45 56 71 96 71 112 0 19 48 73 200 225 l200 201 0 -274 c0 -263 -1 -276 -20 -296 -25 -26 -42 -125 -38 -210 l3 -58 25 39 c14 21 29 39 35 39 5 0 21 -18 35 -39 l25 -39 3 38 c6 67 -16 198 -38 227 -19 26 -20 43 -20 300 l0 273 195 -195 c156 -156 195 -200 195 -222 0 -27 49 -98 118 -170 42 -44 55 -48 42 -12 -6 14 -10 37 -10 51 0 23 3 25 33 20 17 -3 41 -9 52 -13 14 -5 10 3 -15 30 -57 62 -148 127 -184 133 -27 4 -70 42 -227 199 l-194 194 232 232 c217 217 233 231 241 208 l9 -23 25 34 c30 40 92 149 85 149 -6 0 -112 -60 -150 -84 -25 -17 -26 -19 -10 -32 16 -12 -3 -34 -209 -241 l-228 -228 0 324 0 323 26 -6 c21 -6 25 -4 21 11 -3 10 -13 52 -22 93 -19 81 -30 102 -39 74z">
  </path>
</svg>