<svg id="root" xmlns="http://www.w3.org/2000/svg" width="180" height="180" viewBox="0 0 1800 1800">
  <path
    d="M763 1594 c-13 -10 -14 -14 -3 -12 13 3 15 -26 18 -197 l2 -200 -135 135 c-74 74 -135 143 -135 152 0 10 -4 18 -9 18 -15 0 -49 -49 -56 -80 -7 -33 -18 -43 -64 -59 -52 -17 -94 -61 -58 -61 7 0 73 -61 147 -135 l135 -135 -192 0 c-172 0 -193 2 -202 17 -8 16 -10 15 -16 -8 -4 -18 1 -44 16 -78 19 -45 20 -56 9 -79 -21 -45 -30 -86 -24 -104 5 -16 7 -16 20 -3 13 12 49 15 200 15 101 0 184 -3 184 -8 0 -4 -58 -65 -129 -136 -103 -103 -133 -128 -150 -123 -55 14 -3 -43 61 -67 40 -16 48 -24 68 -72 23 -57 60 -91 60 -57 0 10 61 79 135 153 l135 135 0 -193 c0 -162 -2 -194 -15 -198 -8 -4 -12 -10 -9 -15 9 -15 42 -10 93 11 l47 21 48 -21 c50 -21 91 -26 100 -11 3 5 -1 11 -9 15 -13 4 -15 36 -15 198 l0 193 135 -135 c74 -74 135 -140 135 -147 0 -6 -6 -14 -12 -17 -7 -3 -2 -4 12 -3 20 2 31 15 55 63 24 50 36 64 65 74 49 18 80 40 80 57 0 8 -5 11 -11 8 -10 -7 -279 251 -279 267 0 11 362 10 379 -1 8 -5 10 -14 6 -22 -4 -8 1 -6 11 4 18 17 18 19 -4 85 l-23 67 20 45 c25 54 26 73 6 90 -13 11 -14 10 -9 -4 6 -14 -12 -16 -192 -16 l-199 0 135 135 c94 95 140 134 153 131 9 -2 17 -1 17 3 0 14 -35 40 -82 61 -37 16 -49 28 -63 62 -19 48 -42 78 -61 78 -7 0 -10 -8 -8 -17 3 -13 -36 -59 -131 -153 l-135 -135 0 192 c0 155 3 194 15 206 33 34 -34 29 -104 -7 -25 -13 -36 -15 -46 -6 -8 7 -34 18 -59 25 -38 12 -47 11 -63 -1z">
  </path>
</svg>