<svg id="root" xmlns="http://www.w3.org/2000/svg" width="180" height="180" viewBox="100 100 1600 1600">
  <path
    d="M373 1420 c3 -39 13 -73 25 -89 10 -14 104 -105 208 -201 104 -96 190 -179 192 -185 6 -22 -160 -160 -182 -152 -8 3 -31 40 -52 83 -34 68 -39 86 -42 170 l-4 94 -37 -6 c-134 -23 -313 -173 -361 -302 -25 -66 -25 -67 3 -79 29 -14 172 -130 220 -180 33 -35 36 -41 22 -53 -24 -20 -18 -59 14 -91 31 -31 51 -35 82 -19 16 9 27 4 67 -38 77 -79 80 -79 205 47 61 62 107 117 107 128 0 10 -25 43 -55 73 l-55 54 24 26 c13 14 27 34 31 45 4 11 32 42 61 69 l55 50 45 -45 c25 -24 58 -62 73 -83 14 -21 31 -45 36 -53 8 -10 -3 -26 -42 -64 -31 -30 -53 -60 -53 -72 0 -13 39 -60 108 -129 86 -86 113 -107 128 -102 10 4 42 29 70 56 47 45 53 49 72 37 30 -19 72 -1 96 40 19 33 19 35 2 65 -18 31 -18 31 11 56 17 14 61 52 99 85 38 33 86 71 107 83 45 29 47 52 12 121 -55 109 -194 227 -307 263 -87 27 -87 27 -81 -35 3 -29 0 -77 -6 -106 -13 -61 -56 -153 -83 -177 -17 -16 -20 -16 -41 4 -13 12 -28 22 -34 22 -14 0 -113 101 -113 115 0 6 88 90 195 188 108 99 202 192 210 207 8 16 18 54 21 86 l7 57 -55 -6 c-31 -3 -69 -12 -85 -21 -17 -8 -110 -102 -208 -208 -99 -106 -181 -194 -185 -196 -3 -1 -86 86 -185 194 -99 108 -193 203 -209 211 -15 8 -53 17 -84 20 l-55 6 6 -63z">
  </path>
</svg>