<svg xmlns="http://www.w3.org/2000/svg" viewBox="0 0 4340 4320">
  <path
    d="M1905 4289c-829-104-1527-677-1785-1465-253-776-49-1619 532-2195C989 295 1422 85 1902 24c163-20 482-15 623 11 232 42 397 96 600 195 594 289 1018 833 1158 1485 31 144 42 255 42 440 0 301-44 531-152 800-293 730-961 1239-1753 1335-100 12-415 11-515-1zm430-209c760-70 1394-553 1659-1263 154-413 154-909 0-1324-171-460-508-837-947-1058-469-236-989-276-1481-114C767 583 230 1321 230 2157c0 726 406 1384 1060 1717 332 168 689 239 1045 206z"
  />
  <path
    d="M1484 3432c4-6 27-20 51-31 24-10 70-37 102-59 68-46 282-233 368-321 32-33 74-66 92-72l33-11V1374l-37-13c-20-7-55-31-79-53l-43-40-92 49c-66 34-119 73-186 135-52 49-113 99-137 113-65 38-185 65-288 65-81 0-89 2-84 18 3 9 118 292 255 627 193 472 253 609 265 607 22-4 21 50-3 119-73 215-205 342-396 384-110 25-335 31-419 11-211-50-377-237-403-454-4-34-2-56 5-61 5-3 147-287 315-631 276-566 302-625 283-628-34-5-115-33-121-42-2-4 15-5 39-3 53 6 184-19 257-49 134-55 206-112 358-287 75-85 141-131 251-176 70-28 84-38 112-81 24-36 48-56 91-77l57-28V710h110v175l44 18c24 10 52 27 62 38 11 12 31 19 53 19 20 1 86 14 146 31 206 55 286 69 437 76 182 7 239-5 368-83 49-30 92-54 95-54 9 0-56 92-81 115l-22 20 264 589c145 324 273 598 284 608 23 22 22 36-17 146-49 140-146 258-258 313-85 41-178 59-340 66-225 8-339-30-458-156-73-78-121-163-142-252-21-91-20-116 6-115 17 1 65-87 309-569 159-313 288-571 287-572-2-1-27 10-57 25l-55 27-250-3c-137-2-305 0-371 3l-121 7-12 40c-15 49-85 121-134 137l-37 13v789c0 701 2 789 15 789 9 0 66 51 128 113 118 117 268 238 387 311 62 39 68 44 48 50-42 13-1342 20-1334 8zM871 2345c110-297 207-557 214-577 22-59 1-44-28 20-14 31-139 288-276 571-138 282-251 517-251 522 0 6 31 9 71 7l71-3 199-540zm569 529c0-9-65-268-145-574-80-307-145-565-145-574s-4-16-8-16-103 258-219 573c-116 314-215 580-218 590-7 16 15 17 364 17 336 0 371-2 371-16zm211-6c-5-13-108-266-229-563s-223-550-227-562c-3-13-11-23-17-23s-7 8-3 18c3 9 72 269 152 577s147 563 150 568c2 4 44 7 93 7 89 0 89 0 81-22zm1266-643c60-168 308-915 303-913-8 4-480 937-480 950 0 5 37 8 82 6l81-3 14-40zm723 33c1-19-314-1128-320-1128s-380 1110-380 1128 700 18 700 0zm201-10c-5-13-100-225-210-471-111-247-208-465-216-484-41-98-13 16 115 463 77 269 142 495 145 502 3 8 31 12 89 12 85 0 85 0 77-22z"
  />
</svg>
