<svg xmlns="http://www.w3.org/2000/svg" id="root" viewBox="0 0 150 135">
  <path
    d="M 113.023438 133.90625 C 95.585938 133.90625 81.449219 119.773438 81.449219 102.335938 C 81.449219 84.886719 95.585938 70.746094 113.023438 70.746094 C 130.464844 70.746094 144.601562 84.886719 144.601562 102.335938 C 144.601562 119.773438 130.464844 133.90625 113.023438 133.90625 Z M 64.480469 106.667969 C 61.742188 123.878906 45.558594 135.617188 28.335938 132.867188 C 11.113281 130.121094 -0.621094 113.949219 2.117188 96.726562 C 4.863281 79.496094 21.046875 67.765625 38.269531 70.507812 C 55.488281 73.253906 67.226562 89.445312 64.480469 106.667969 Z M 51.128906 10.128906 C 62.992188 -2.65625 82.96875 -3.40625 95.753906 8.464844 C 108.535156 20.332031 109.28125 40.300781 97.417969 53.085938 C 85.558594 65.867188 65.578125 66.613281 52.796875 54.75 C 40.015625 42.886719 39.269531 22.910156 51.128906 10.128906 Z M 110.761719 57.015625 C 118.085938 41.707031 115.007812 22.785156 101.90625 10.625 C 85.777344 -4.324219 60.574219 -3.386719 45.613281 12.734375 C 34.210938 25.027344 32.054688 42.578125 38.800781 56.859375 C 19.976562 57.324219 3.570312 71.144531 0.5 90.398438 C -2.957031 112.128906 11.851562 132.539062 33.570312 136 C 49.738281 138.578125 65.171875 131.042969 73.445312 118.054688 C 80.515625 129.148438 92.910156 136.496094 107.03125 136.496094 C 129.039062 136.496094 146.867188 118.667969 146.867188 96.660156 C 146.867188 75.925781 131.011719 58.890625 110.761719 57.015625 "
  />
  <path
    d="M 91.300781 52.414062 L 96.699219 45.542969 C 87.652344 38.433594 76.902344 35.890625 65.617188 38.167969 C 57.230469 39.871094 51.472656 43.667969 51.234375 43.824219 L 56.089844 51.101562 C 56.273438 50.976562 74.398438 39.148438 91.300781 52.414062 "
  />
  <path
    d="M 42.464844 75.625 L 33.757812 74.828125 C 32.707031 86.28125 36.394531 96.691406 44.433594 104.929688 C 50.410156 111.054688 56.730469 113.828125 56.996094 113.9375 L 60.464844 105.914062 C 60.277344 105.832031 40.492188 97.027344 42.464844 75.625 "
  />
  <path
    d="M 104.742188 76.535156 C 104.753906 76.75 105.730469 98.367188 85.714844 106.1875 L 88.898438 114.335938 C 99.613281 110.152344 107.265625 102.183594 111.039062 91.308594 C 113.839844 83.230469 113.488281 76.328125 113.46875 76.035156 L 104.738281 76.535156 "
  />
</svg>
