<svg xmlns="http://www.w3.org/2000/svg" viewBox="0 0 860 1230">
  <g fill="#000000">
    <path
      d="M10 800V380l98 60c89 55 102 60 155 60 49 0 57 3 57 19 0 10 11 40 25 66l26 48-21 65c-11 36-20 68-20 72s23 17 50 30l50 23 50-23c28-13 50-25 50-28 0-2-9-34-21-71l-20-68 25-48c15-26 26-56 26-66 0-16 8-19 58-19 54 0 65-5 153-59l94-60 3 416c1 229 1 418-2 420-2 2-93-44-203-102s-206-105-213-105-103 47-212 105c-110 58-201 105-204 105-2 0-4-189-4-420zM275 340l-18-40H10V10h840v290H603l-18 40c-18 39-19 40-68 40s-50 0-32-20c10-11 28-20 39-20 16-1 13-5-16-20-20-11-40-24-43-30-3-5-17-10-30-10-27 0-49 28-60 73-6 23-12 27-45 27-34 0-39-4-55-40z"
    />
  </g>
</svg>
