<svg xmlns="http://www.w3.org/2000/svg" viewBox="0 0 1580 1520"><g fill="#000"><path d="M488 1485c-44-30-78-85-108-178-27-85-62-121-132-137-68-16-112-43-136-83-29-47-34-83-19-119 21-49 45-66 122-83 121-28 144-50 168-155 15-64 48-109 99-136 86-45 196 32 184 129-9 78-59 119-167 137s-149 66-149 172 59 162 198 193c156 35 209 151 112 247-33 34-43 38-87 38-35 0-58-7-85-25zM965 1500c-98-30-129-160-56-234 29-28 37-31 96-31s67 3 95 31c37 36 52 91 39 139-9 33-69 95-92 95-7 0-21 2-32 4-11 3-34 1-50-4zM1240 1236c-14-8-42-35-63-60-65-78-117-91-237-56-120 34-230-70-188-178 19-52 68-82 132-82 50 0 52 1 116 68 76 80 95 92 147 92 82-1 162-62 183-140 11-42 9-56-22-163-30-103-14-166 55-207 61-38 151-17 187 42 26 43 26 116 0 167-11 22-44 68-75 103-63 71-69 88-61 155 21 174 19 189-37 242-32 29-101 38-137 17zM95 766c-51-22-85-71-85-122 0-84 55-144 133-144 81 0 137 58 137 142 0 54-33 102-87 124-40 17-59 17-98 0zM883 674c-40-20-73-71-73-112 0-17 11-66 25-109 17-50 23-88 19-106-8-40-61-97-109-118-86-39-148-19-245 80-47 48-79 73-106 80-76 21-147-21-174-104-15-47 1-95 45-134 41-36 85-46 163-37 182 20 189 20 225-3 19-12 42-33 52-47 21-33 89-64 141-64 53 0 104 34 122 82 13 33 12 43-7 104-36 116-26 173 43 227 68 53 89 129 58 200-32 72-106 97-179 61zM1145 381c-89-45-106-152-36-222 36-36 43-39 94-39 49 0 61 4 92 31 49 44 63 95 41 154-31 81-115 114-191 76z"/></g></svg>