<svg id="root" xmlns="http://www.w3.org/2000/svg" width="180" height="180" viewBox="100 100 1600 1600">
  <path
    d="M293 1330 c-27 -11 -55 -63 -51 -94 2 -15 -9 -37 -30 -60 -36 -42 -41 -80 -13 -96 25 -13 82 -13 117 0 23 9 50 1 188 -54 88 -36 188 -77 220 -91 l60 -26 -45 -21 c-78 -35 -241 -100 -328 -129 -62 -21 -94 -27 -122 -23 -105 17 -149 -79 -62 -134 24 -15 28 -24 29 -66 1 -56 30 -91 68 -80 31 8 76 61 76 88 0 29 49 72 155 135 93 57 325 171 345 171 20 0 252 -114 345 -171 106 -63 155 -106 155 -135 0 -27 45 -80 76 -88 38 -11 67 24 68 80 1 42 5 51 29 66 87 55 43 151 -62 134 -28 -4 -60 2 -122 23 -87 29 -250 94 -328 129 l-45 21 60 26 c32 14 132 55 220 91 138 55 165 63 188 54 35 -13 92 -13 117 0 28 16 23 54 -13 96 -21 23 -32 45 -30 60 4 32 -25 83 -53 94 -35 13 -71 -3 -94 -42 -11 -18 -28 -41 -38 -52 -34 -35 -185 -129 -329 -203 l-144 -74 -144 74 c-124 64 -273 155 -327 199 -9 7 -23 27 -32 44 -26 50 -64 70 -104 54z">
  </path>
</svg>