<svg xmlns="http://www.w3.org/2000/svg" viewBox="0 0 2820 5970">
  <g fill="#000000">
    <path
      d="M1521 5959c-82-24-178-168-218-326-26-104-24-371 5-474 52-192 160-320 269-319 74 1 160 72 212 177 76 150 102 396 62 588-38 183-131 327-230 355-42 12-55 11-100-1zM2110 5826c0-2 16-46 35-97 47-126 90-300 117-472 19-121 22-184 22-432 1-297-5-371-45-562l-20-91 29-99c67-225 124-510 159-793 22-183 25-718 5-880-35-284-91-538-172-780-179-538-499-1061-881-1440l-76-76 47-54 48-55 54 50c79 74 267 278 350 380 594 727 951 1553 1019 2353 16 195 6 611-21 861-83 777-245 1402-490 1891-76 152-180 323-180 296z"
    />
    <path
      d="M2036 5635c-22-348-84-617-182-792-127-227-361-300-497-154-125 133-191 390-217 836-6 105-12 194-13 199-4 11-72-333-91-454-47-298-60-679-31-875 30-202 86-336 181-431 81-81 142-106 280-112 175-7 294 36 410 152 118 118 198 311 236 571 20 136 17 583-5 765-16 128-52 368-61 395-1 6-6-39-10-100zM814 5647C370 5180 104 4569 24 3837c-21-188-24-762-6-972 67-752 252-1391 529-1819l44-68 24 22c14 13 22 27 19 32-18 28-112 329-149 478-89 351-120 604-112 919 7 276 39 440 123 629 109 246 312 408 547 435 15 2 28 6 28 10s-16 27-35 50c-172 210-299 553-347 942-19 149-16 466 5 605 29 194 73 357 136 510 17 40 29 75 27 76-2 2-21-15-43-39zM2036 3709c-46-83-142-204-205-258l-58-51 23-97c30-125 69-380 85-551 18-208 7-713-20-867-82-472-327-970-688-1393-48-57-97-115-108-128l-19-24 46-47 47-46 38 28c70 52 208 199 289 308 373 497 686 1361 745 2056 23 270 2 606-52 841-22 96-77 268-88 274-4 3-19-18-35-45z"
    />
    <path
      d="M1370 3300c0-8 7-71 15-140 46-395 66-1075 37-1240-68-377-254-799-536-1210l-65-95 38-39 39-39 45 38c290 242 588 925 688 1575 27 173 37 572 20 757-10 104-56 392-64 399-1 1-50 4-110 6-90 2-107 1-107-12z"
    />
  </g>
</svg>
