<svg id="root" xmlns="http://www.w3.org/2000/svg" width="180" height="180" viewBox="150 150 1500 1500">
  <path
    d="M316 1464 c-9 -8 -16 -26 -16 -38 0 -30 36 -76 59 -76 23 0 41 19 34 36 -3 8 -1 14 4 14 15 0 31 -43 78 -206 65 -225 109 -313 175 -350 74 -41 79 -30 -80 -190 -80 -80 -168 -163 -196 -184 -59 -45 -82 -88 -66 -125 29 -63 151 -26 126 39 -3 9 -17 16 -32 16 -25 0 -26 1 -7 14 11 7 64 26 118 40 130 36 281 87 335 115 l43 22 82 -35 c75 -31 145 -54 354 -115 72 -21 103 -41 64 -41 -11 0 -25 -9 -31 -20 -9 -17 -6 -25 14 -45 44 -44 116 -22 116 36 0 25 -29 58 -200 225 -110 108 -200 201 -200 205 0 5 25 25 55 46 47 31 61 47 90 107 32 69 77 205 110 336 9 36 24 76 33 90 l16 25 6 -25 c8 -33 36 -37 66 -9 26 25 33 76 12 97 -7 7 -28 12 -47 12 -32 0 -54 -18 -283 -247 l-248 -248 -238 237 c-130 130 -247 241 -259 247 -31 16 -69 14 -87 -5z m376 -331 c93 -92 168 -173 168 -179 0 -5 -13 -23 -30 -39 -29 -28 -31 -28 -62 -13 -98 47 -164 126 -219 258 -27 66 -43 140 -31 140 4 0 82 -75 174 -167z m578 99 c-6 -26 -32 -86 -57 -134 -47 -91 -105 -154 -177 -192 l-37 -19 -34 33 -35 34 172 173 c95 95 175 168 177 162 1 -5 -2 -31 -9 -57z m-335 -342 l29 -30 -30 -32 c-16 -18 -30 -35 -32 -37 -1 -3 -18 11 -37 29 l-35 34 32 33 c18 18 35 33 38 33 3 0 19 -13 35 -30z m-122 -232 c-37 -41 -215 -127 -293 -142 -33 -6 -27 1 95 124 l130 131 43 -47 c41 -45 42 -47 25 -66z m364 -10 c68 -68 123 -126 123 -131 0 -32 -312 110 -327 149 -5 13 60 104 75 104 4 0 62 -55 129 -122z">
  </path>
</svg>