<svg xmlns="http://www.w3.org/2000/svg" id="root" viewBox="0 0 1610 1700">
  <path
    d="M685 1633c-60-36-144-85-185-110s-88-54-105-63c-154-88-381-225-387-234-4-6-8-183-8-393V450l58-35c75-47 722-397 743-402 15-4 757 393 791 424 17 15 18 42 18 404v388l-132 79c-195 116-566 335-619 366-25 14-50 26-55 25-5 0-58-30-119-66zm75-200v-148l-58-34c-31-18-107-62-168-98l-112-64-131 67c-72 36-131 69-131 73 0 5 50 36 340 205 47 27 121 71 165 98 43 26 83 48 87 48s8-66 8-147zm184 104c39-24 139-83 221-132 240-141 285-169 282-178-1-5-60-38-129-74l-127-65-165 93c-90 52-167 102-169 111-3 9-6 78-6 153-2 100 1 135 10 135 7 0 44-20 83-43zm-181-489c5-121 3-166-6-175-20-19-305-173-322-173-13 0-15 23-15 158v157l163 96c89 54 165 97 168 98s9-72 12-161zm270 59 157-89V859c0-90-4-159-9-159s-38 16-73 35c-35 20-97 53-138 74-120 63-110 44-111 216 0 184-1 177 9 173 4-1 78-43 165-91zm-803-15 125-67 3-179c2-120-1-183-9-192-10-12-251-144-263-144-4 0-6 146-6 325 0 254 3 325 13 324 6 0 68-31 137-67zm1300-252c0-176-2-320-5-320-14 0-264 131-267 139-1 6-1 92 2 191l5 181 120 64c66 35 126 64 133 65 9 0 12-70 12-320zM966 713c85-42 154-81 154-85s-36-26-81-48c-44-23-116-61-160-85l-79-44-67 39c-38 21-104 58-147 82-44 24-81 48-83 53-2 9 280 164 301 165 5 0 78-35 162-77zM592 498l168-93V267c0-76-4-137-8-135s-115 61-247 133c-132 71-261 141-287 155s-48 28-48 32c0 6 237 137 249 138 2 0 80-42 173-92zm725 29c67-34 123-66 125-72 1-5-40-33-92-61s-183-98-290-157c-107-58-198-103-202-101-14 9-9 262 5 275 12 11 318 178 327 178 3 0 60-28 127-62z"
  />
</svg>