<svg xmlns="http://www.w3.org/2000/svg" viewBox="0 0 3010 4390">
  <g fill="#000000">
    <path
      d="M1486 4233c-10-82-29-213-43-293-13-80-28-170-33-200-26-158-73-380-117-555-19-77-39-158-43-180-5-22-35-125-65-230-31-104-59-202-62-217-5-28 9-39 23-17 11 19 126 67 198 83 79 19 242 21 318 5 57-12 90-25 180-70l58-29-6 32c-3 18-10 42-15 53-15 34-133 459-149 540-5 22-16 72-25 110-52 225-117 558-134 690-5 33-19 142-32 243-13 100-26 182-29 182s-14-66-24-147zM455 3592c-88-50-325-260-325-287 0-4-11-20-24-35-34-41-83-165-95-242-13-79-1-192 28-266 22-56 69-135 82-140 5-2 9-8 9-14 0-13 30-51 93-117 42-44 109-98 222-179 21-14 71-42 133-74 34-18 62-36 62-40s-26-21-57-38c-88-46-134-74-214-131-75-53-222-195-248-239-8-14-29-51-47-82-126-222-76-493 129-701 65-65 156-147 164-147 3 0 20-11 37-23 17-13 42-30 56-37l25-13-20 23c-11 13-33 37-48 54-40 43-127 173-127 190 0 8-10 36-22 63-17 39-21 68-22 158-1 107 18 225 36 225 4 0 8 8 8 17 0 22 64 126 105 172 117 131 274 228 485 301 52 18 96 34 98 35 2 2-4 20-13 41-25 60-30 160-11 226 9 31 16 63 16 71 0 10-33 26-100 47-55 19-100 37-100 42 0 4-7 8-15 8-26 0-136 60-219 119-85 61-187 175-229 256-79 152-88 322-26 485 21 56 113 191 164 243 53 52 54 54 10 29zM2530 3607c0-2 26-32 59-67 150-162 216-361 179-538-13-66-69-206-87-222-3-3-22-25-43-50-65-80-92-106-173-162-114-79-188-115-333-164-83-28-84-28-78-58 30-168 30-162 13-233-21-85-21-103-1-103 58 0 280-101 397-180 80-54 191-165 217-216 8-16 22-40 31-54 67-100 85-327 36-450-46-117-83-176-160-257-23-24-38-45-35-48 10-10 123 72 208 151 107 99 161 171 208 276 34 77 37 91 40 198 3 109 2 119-28 197-17 45-50 110-72 145-44 68-181 208-204 208-8 0-14 6-14 13 0 14-178 132-262 173-32 15-58 31-58 34s36 23 80 44c44 22 80 44 80 48s5 8 11 8c25 0 158 100 240 179 101 100 166 196 204 302 24 70 26 87 23 190-3 102-7 122-36 190-53 125-149 239-290 347-69 53-152 107-152 99zM1355 2441c-77-28-127-56-162-93-38-40-73-112-73-153 0-59 47-131 124-193 9-7 49-25 89-38 65-23 83-25 192-21 168 6 210 22 297 108l68 68v73c-1 63-4 78-28 113-69 100-200 156-362 154-64 0-111-6-145-18zM1860 1846c-91-59-218-91-355-90-133 0-215 21-338 86-21 11-41 17-45 14-5-6 5-45 39-146 4-14 18-61 29-105 12-44 30-107 41-139 10-33 19-70 19-83s4-31 9-41c9-17 39-136 60-237 6-27 17-79 25-115 19-83 60-295 75-385 38-229 51-313 51-341 0-17 4-44 9-60s13-65 17-109c7-90 18-80 29 27 4 35 10 86 15 113 12 75 28 178 46 295 18 125 85 463 115 581 11 46 24 102 29 124 16 86 131 504 150 550 8 19 22 86 17 84-1 0-18-10-37-23z"
    />
  </g>
</svg>
