<svg xmlns="http://www.w3.org/2000/svg" viewBox="0 0 1420 1680"><path d="M502 1562c-31-81-40-123-52-241-5-57-10-107-10-112s12-9 26-9c34 0 26-22-10-26-16-2-29 3-33 11-7 19 15 243 32 323 18 87 3 67-35-46-24-73-32-118-38-212l-7-120h57c51 0 58-2 58-20 0-14-9-21-35-26-19-3-35-8-35-9 0-2 13-43 30-90 27-81 77-169 135-240 38-46 30-17-24 86-68 132-88 187-71 202 10 9 14 9 17 0s31-13 91-13h87l-2 167c-1 93-2 219-3 281 0 135-7 140-85 60-53-55-88-137-102-234-3-24-10-44-14-44-10 0-8 20 27 225 13 76 22 140 21 142-2 1-13-24-25-55zM890 1615c0-3 9-56 19-118 25-147 34-247 22-247-5 0-13 21-17 48-8 55-45 158-70 198-18 27-89 84-106 84-4 0-8-126-8-280v-280h78c47 0 83 5 90 12 9 9 15 9 24 0 14-14-7-73-73-201-54-103-62-132-24-86 73 88 136 210 159 307 6 24 3 27-35 33-30 5-39 11-37 23 3 13 17 18 66 20 71 3 66-12 53 149-6 71-19 130-41 197-18 53-35 95-37 93s4-37 13-78c8-41 18-129 21-197l6-122-24 4c-13 3-30 5-36 5-24 2-13 21 12 21 22 0 25 4 25 38-1 89-22 233-46 305-22 67-34 92-34 72zM300 1522l-23-19 38-99 39-99 8 40c7 39-15 169-32 188-4 4-17-1-30-11zM1071 1488c-17-62-26-188-14-188 4 0 25 44 45 97l37 97-21 23c-12 13-24 23-27 23-4 0-13-24-20-52zM208 1428l-34-42 69-93c63-84 72-93 85-79 14 14 11 28-32 133-27 65-49 119-51 121-1 1-18-16-37-40zM1126 1350c-39-92-45-114-35-131 6-12 14-17 18-13 35 40 131 173 131 180 0 6-15 25-33 42l-34 33-47-111zM124 1317l-21-32 78-84c43-47 80-83 82-80 3 2 10 14 16 27 11 21 6 31-59 112-40 50-72 90-73 90s-11-15-23-33zM1198 1258c-60-81-66-92-56-114 6-13 14-24 17-24 6 0 60 56 124 126 28 31 28 33 13 62-9 17-19 33-23 35-5 2-38-36-75-85zM70 1214c-6-16-13-35-15-43-7-19 14-41 32-34 10 4 14 2 10-4s25-31 63-57l70-46 6 26c6 23-3 36-74 107l-81 81-11-30zM1256 1161c-69-69-78-82-72-105l6-26 90 60 90 60-17 43c-9 23-17 43-18 44 0 1-36-33-79-76z"/><path d="M328 1168c-17-26-17-27 34-102 28-42 53-74 55-72 2 1-2 27-9 55-9 39-18 55-34 61-17 7-24 18-26 47l-3 37-17-26zM1066 1174c-3-9-6-27-6-40 0-14-6-24-14-24-16 0-50-79-44-106 2-12 13-2 39 37 74 112 70 101 49 126-15 19-19 20-24 7zM37 1093c-3-10-8-34-11-54l-6-36 91-27c50-15 92-26 94-24s5 12 7 22c3 19-58 69-144 120-25 15-27 15-31-1zM280 1084c-6-14-10-26-10-28 0-10 112-96 120-91 10 6-78 145-93 145-4 0-12-12-17-26zM1073 1046c-66-99-58-112 25-38 51 45 53 49 41 75-7 15-15 27-18 27s-25-29-48-64zM1293 1053c-66-44-83-60-83-79 0-13 3-24 7-24s44 11 90 25c90 28 92 31 74 106l-6 26-82-54zM253 1013c-3-10-8-21-10-25-6-11 106-80 117-73 18 11 11 22-45 70-48 41-56 44-62 28zM1100 980c-40-35-52-52-44-60s26-2 67 22c46 27 55 37 51 53-11 36-18 34-74-15zM530 972c0-12 53-83 79-106 11-11 21-30 21-42 0-14 10-30 25-40 30-20 44-11 27 16-17 28-16 30 28 30 38 0 40-1 30-21-6-11-10-25-7-32 5-16 57 37 57 59 0 9 13 32 30 50 16 19 37 48 45 64l16 30H705c-96 0-175-4-175-8zM964 924c-10-27-17-63-16-81 4-34-9-65-40-99-19-21-19-22 1-55 13-20 21-51 21-76 0-24 4-43 8-43 15 0 70 65 91 107 39 78 25 204-31 277-13 17-16 15-34-30zM17 923c-2-21-3-41-1-44 2-4 37-10 76-14 40-3 81-9 91-11 13-4 17 1 17 25 0 29-3 31-84 55-46 14-86 26-89 26s-7-17-10-37zM394 904c-50-103-29-229 54-307l29-28 7 50c4 27 15 60 25 72 18 22 18 24-10 62-21 29-29 52-29 81 0 40-28 126-42 126-3 0-19-25-34-56zM1360 950c-14-5-51-16-82-25-53-15-58-19-58-44 0-28 1-28 48-24 126 14 127 14 130 61 3 44 2 46-38 32zM230 922c0-24 6-30 48-45 56-20 72-21 72-4 0 11-98 77-114 77-3 0-6-13-6-28zM1135 923c-22-13-46-27-54-32s-11-16-8-24c5-14 13-13 61 6 54 21 66 37 48 63-5 7-20 2-47-13zM230 851c0-25 4-27 63-35 80-12 54 20-40 48-19 6-23 3-23-13zM1130 851c-60-25-65-43-8-35 62 8 68 11 68 34 0 24-2 24-60 1zM17 834c-2-2-1-21 1-42 3-35 8-41 34-46 17-3 58-6 93-6h62l-6 38-6 37-88 11c-48 5-89 9-90 8zM1305 823c-79-7-85-10-85-49v-35l88 3 87 3 3 43c3 47 10 44-93 35zM230 783c0-23 3-24 50-21 65 4 65 20 1 34-51 12-51 12-51-13zM1116 791c-54-11-43-31 18-31 49 0 56 2 56 20 0 21-17 24-74 11zM242 723c3-18 20-19 76-7 41 8 23 24-29 24-43 0-50-3-47-17zM1080 731c0-11 22-18 70-23 15-2 26 3 28 12 2 11-9 16-48 18-30 2-50-1-50-7zM25 669c4-24 9-45 10-47 2-2 43 7 92 20 62 17 89 29 91 41 3 14-5 17-51 17-30 0-76 3-102 7l-47 6 7-44zM1280 700c-56-4-76-9-78-20s20-21 84-38c48-12 89-20 92-18 2 2 6 22 9 45 5 35 3 40-13 38-11-1-53-4-94-7zM315 693c-11-2-30-6-42-9-24-5-32-24-10-24 26 0 87 21 87 30 0 10-2 10-35 3zM1073 686c4-12 85-31 95-22 9 10-3 16-52 25-33 6-46 5-43-3zM308 648c-40-11-43-14-29-37 8-13 15-12 50 4 23 10 41 24 41 32 0 15-10 15-62 1zM1050 647c0-8 18-22 41-32 35-16 42-17 50-4 14 22 11 27-23 34-18 4-41 9-50 11-11 3-18 0-18-9zM130 606c-47-12-84-25-83-29s4-20 8-35c3-15 12-35 20-45 12-17 18-15 87 34 92 65 90 63 82 82-8 21-8 21-114-7zM1176 614c-4-10-3-21 1-24 18-16 151-110 156-110 10 0 37 94 30 101-5 3-39 14-78 23-38 9-77 19-86 22-10 3-19-3-23-12zM338 599c-38-20-46-33-28-44 10-6 80 44 80 58 0 11-11 8-52-14zM1030 610c0-5 16-21 35-36 28-21 39-24 48-15 9 10 8 15-8 24-38 23-75 36-75 27zM367 559c-30-25-35-34-26-45 17-21 22-18 51 31 32 53 26 56-25 14zM1015 563c37-63 44-69 61-51 14 14 12 18-24 47-49 38-58 39-37 4zM411 536c-23-37-27-61-10-71 14-9 17-6 33 48 17 57 5 69-23 23zM977 563c-3-5 3-32 12-61 13-43 18-51 29-41 17 18 15 32-9 73-22 38-25 41-32 29zM182 503c-45-32-82-61-82-65s10-23 21-43c21-35 22-35 41-18 50 45 128 152 122 167-3 9-9 16-13 16s-44-26-89-57zM1136 544c-4-10-1-25 6-34 25-34 123-149 128-149 6-1 53 80 48 83-20 17-167 116-171 116-3 0-8-7-11-16zM448 491c-15-49-15-49 8-60 24-10 24-10 24 49 0 33-4 60-8 60-5 0-15-22-24-49zM939 536c-2-2-2-29-1-60 4-53 5-54 26-45 22 10 22 12 7 60-14 45-21 56-32 45zM254 428c-94-114-90-103-54-148 17-22 35-40 39-40s31 52 58 115c47 106 49 115 34 129-16 14-22 10-77-56zM1088 483c-14-16-11-28 35-131 49-111 50-112 69-95 11 10 29 30 39 44l18 26-70 84c-39 46-72 85-73 87-2 1-10-6-18-15zM322 323l-52-117 42-43c23-24 45-40 49-35 3 4 17 72 29 150 20 122 21 145 9 153-8 5-16 9-19 9s-29-53-58-117zM1020 425c-10-12-8-42 11-155 13-77 26-140 30-140 3 0 24 17 47 38l42 39-52 116c-29 64-55 117-59 117s-12-7-19-15zM421 259c-12-78-24-147-27-153-2-6 13-24 34-39l37-29 6 34c3 18 5 98 5 178-1 122-3 145-16 148-13 2-20-25-39-139zM947 394c-10-10-9-354 1-354 4 0 23 14 42 29l35 29-25 148c-23 135-34 166-53 148z"/></svg>