<svg xmlns="http://www.w3.org/2000/svg" id="root" width="1200" height="1200" viewBox="0 0 12000 12000">
  <path
    d="M3988 11812c-27-2-48-7-48-12 0-8 111-81 200-132 48-27 198-105 495-258 450-231 511-266 506-285-2-5-17-15-34-21-41-15-67-22-315-89l-133-35-57 43c-139 107-304 203-378 221-16 4-47 12-69 17-174 45-551 59-715 28-124-24-186-39-425-104-71-20-143-40-160-46-255-81-378-127-370-139 2-4 19-10 37-14 18-3 53-11 78-16 183-44 301-67 530-105 52-9 120-20 150-25 254-45 425-66 613-76 101-6 117-9 115-23-3-17-111-85-263-166-49-26-94-51-100-55-5-4-46-27-90-50-44-24-93-51-108-61-23-13-36-15-65-7-49 13-97 24-157 38-27 6-67 15-87 21-157 39-211 49-263 49-24 0-67-5-97-11-29-6-78-15-108-20-100-19-175-39-334-91-174-56-231-83-401-184-284-168-625-429-625-478 0-17 8-18 132-13 158 7 403 32 658 67 41 6 107 15 145 20 118 15 283 42 378 60 131 25 104-26-153-295-140-146-158-160-235-172-114-19-228-33-267-33-37 0-109-13-183-32-279-74-486-222-827-592-187-203-408-488-408-525 0-13 72-14 114-2 17 5 49 14 71 20 60 16 207 61 230 71 11 4 36 13 55 20s44 16 55 20c11 5 81 32 155 60 158 61 211 84 398 172 57 26 108 46 113 42 16-10-2-55-98-246-135-269-155-289-418-403-196-86-290-150-413-280-66-69-162-203-221-307-12-21-31-55-43-75-29-51-276-544-310-619-59-130-78-177-78-191 0-15 88 26 167 79 23 15 45 28 49 28 17 0 455 300 619 424 99 75 183 136 187 136 11 0 10-62-2-112-6-24-24-113-41-198s-35-174-40-198c-5-23-13-51-19-62s-70-60-143-109c-279-189-433-408-526-751-42-152-98-416-131-615-6-38-15-92-21-118-5-27-9-66-9-88v-39l34 14c62 26 181 113 257 188 109 108 274 320 349 448 78 133 114 190 121 190 15 0 23-25 32-90 4-36 12-96 17-135 6-38 13-116 16-171 9-148-16-210-142-346-114-125-198-250-219-328-15-57-34-446-34-724-1-286 13-572 29-589 4-5 27 16 52 45 78 92 132 175 260 393 40 67 158 312 158 326 0 8 4 19 9 25 6 5 11 29 13 54 2 37 7 46 24 48 33 5 55-33 124-213 11-28 27-90 40-157 18-90-11-205-85-338-47-85-55-105-85-205-13-47-8-338 8-425 30-154 53-250 133-540 6-19 14-48 18-65 5-16 15-50 23-75 9-25 32-100 53-167s42-120 46-118c11 7 146 433 181 570 37 147 45 190 58 290 29 231 33 252 56 237 24-16 175-264 222-364 22-49 29-106 14-124-15-16-50-117-63-179-17-81-17-355 0-425 50-212 150-395 396-725 134-179 164-215 179-215 21 0 36 81 47 258 13 199-1 509-27 602-9 30-20 69-24 85-5 17-12 40-15 53-19 60 52 7 236-180 140-141 146-155 158-355 6-89 17-182 26-213 40-130 134-285 249-408 94-100 387-327 519-401 20-11 53-30 73-41 45-26 55-19 42 28-35 136-43 162-125 409-40 122-73 233-73 247 0 29 17 43 33 27 6-6 17-11 24-11 25 0 187-105 238-155 32-31 64-76 85-120 83-176 215-303 375-364 33-13 69-27 80-31 37-16 378-126 470-151 22-6 51-15 65-19 66-21 80-21 80 0 0 104-370 542-567 670-61 40-168 88-298 132-16 5-41 15-55 20-14 6-34 14-45 19-122 48-281 135-323 176-8 7-29 25-48 39-18 15-31 30-28 35s82 9 176 9c159 0 206 4 343 31 144 28 329 91 460 156 61 30 113 58 118 62 10 10-157 41-328 62-189 22-322 30-690 38-460 11-556 17-610 42-22 11-76 55-120 99-94 95-93 107 11 90 254-41 395-51 554-40 74 5 158 9 186 10 55 0 88 17 79 41-12 32-200 135-495 272-100 46-269 113-375 149-59 19-189 54-240 63-101 18-196 34-261 44-59 8-83 22-137 76-101 101-187 222-187 263 0 21 3 23 30 17 28-6 165-58 238-91 62-27 97-42 132-54 19-7 44-16 55-21 79-35 375-99 453-99h37l-110 108c-87 86-257 230-415 355-210 166-487 359-630 439-25 14-63 35-85 48-74 41-135 92-163 134-55 81-142 289-142 338 0 35 38 18 159-72 122-91 395-280 404-280 2 0 47-24 98-53 52-29 117-63 144-76 28-13 58-27 67-32 23-12 48-12 48 0 0 33-223 386-317 501-7 8-42 53-78 100-175 227-322 398-496 575-304 309-349 400-349 708 0 118 7 138 33 95 205-337 354-512 630-739 74-61 114-86 123-76 8 8-29 158-75 302-10 33-29 94-41 135-31 102-111 343-155 465-76 212-156 351-379 660-98 136-110 165-111 275 0 85 10 165 35 285 33 157 33 156 53 153s24-10 58-128c13-47 59-170 86-230 25-56 152-312 171-345 141-246 232-365 268-351 15 6 16 17 10 89-11 133-25 329-36 527-19 336-51 602-89 755-43 172-79 256-169 394-77 116-79 144-26 277 71 177 194 427 209 425 6 0 13-57 17-133 6-125 11-170 38-328 14-81 47-243 60-292 28-106 33-125 40-148 4-14 13-45 20-70 32-115 87-250 100-250 4 0 13 19 20 43 7 23 16 53 20 67 18 54 51 203 85 375 60 308 72 371 80 425 3 19 10 64 15 100 53 328 51 451-10 805-5 28-11 75-15 105l-6 56 66 89c93 127 114 154 162 205 35 37 45 42 53 30 20-32 23-139 11-495-13-384-6-573 24-603 16-18 39 14 117 163 68 129 328 652 353 710 9 22 25 58 35 80 47 104 60 137 90 225 62 183 64 194 63 366l-2 161 31 37c32 39 276 226 321 247 14 6 33 9 41 6 14-6 14-13-5-64-11-32-27-72-35-89-29-65-96-285-135-444-4-19-13-53-18-75-6-22-15-62-21-90-7-27-16-68-22-90-5-22-12-64-15-94l-6-54 29 20c45 33 240 235 585 608 97 105 145 159 180 200 19 22 42 49 52 60 31 33 103 137 124 180 33 65 37 76 84 224 35 112 58 130 237 189 146 49 170 55 186 49 30-12 16-42-67-147-132-168-205-275-289-428-30-53-78-177-78-199 0-29 83-6 242 65 23 11 66 30 93 42 28 12 75 33 105 47s71 32 90 40c160 72 338 163 406 209 99 65 199 170 244 256 42 80 107 177 134 200 12 10 35 24 51 32 72 33 111 37 315 34l205-3 52-104c62-121 119-207 182-274 116-123 348-265 631-387 41-18 95-41 120-52s59-26 75-33c17-7 46-20 65-28 68-30 145-57 163-57 11 0 17 8 17 23 0 30-42 144-82 220-37 71-187 302-215 332-44 47-133 173-133 190 0 37 123 4 289-78 75-37 87-47 107-87 25-52 37-82 54-130 21-60 26-73 65-150 91-180 193-302 570-678 309-308 359-352 377-334 11 11-9 141-42 272-36 144-47 184-76 280-41 137-47 152-93 252-29 63-38 107-25 121 20 20 287-159 338-226 33-43 62-142 75-257 28-232 33-269 47-340 32-156 106-332 232-553 33-56 76-133 97-172 21-38 50-92 65-120 15-27 44-81 65-120 80-149 125-208 144-189 10 10 12 618 3 849-6 139-6 224 0 230 6 7 23-6 49-35 70-80 206-264 218-297 14-35 10-142-8-213-7-25-19-85-27-135-27-159-1-481 65-805 5-25 14-70 19-100 9-47 22-111 73-370 5-25 13-63 18-85s14-62 20-90c21-99 30-128 39-137 27-27 104 155 152 357 55 234 76 377 106 727 3 36 11 74 19 85 13 17 14 17 23-7 6-14 28-65 51-113 23-49 41-90 41-93 0-2 9-26 21-52 43-96 54-129 70-210 16-83 2-146-61-272-126-253-180-522-211-1040-6-102-15-241-20-310s-12-164-15-211c-6-81 3-129 24-129 28 1 128 131 203 265 19 33 42 74 51 90 25 44 162 321 191 385 20 44 54 143 83 238 6 20 32 14 46-10 26-47 37-137 37-310 1-212 2-209-132-405-105-153-119-176-187-313-65-128-80-163-140-320-85-222-88-230-126-350-20-63-48-149-61-190-50-147-74-261-61-277 17-21 88 37 264 211 216 215 303 313 377 424 81 120 93 119 90-8-4-144-30-285-64-347-29-52-58-82-294-309-74-71-215-236-307-358-151-200-516-761-504-774 11-10 273 120 431 215 155 94 197 124 333 242 51 45 97 81 102 81 31 0-6-109-107-318-43-87-109-151-209-202-253-127-821-566-1104-854l-85-86h55c91 0 374 70 485 120 53 24 272 90 290 88 11-2 21-11 23-21 4-21-131-193-180-230-44-33-132-62-253-82-55-9-125-24-155-32s-68-18-85-23c-88-24-240-81-360-135-33-15-73-33-90-40-16-8-74-34-129-59-54-25-100-46-103-46-2 0-49-22-104-50-105-52-159-86-159-99 0-11 43-27 110-41 61-13 664-9 713 5 48 13 32-19-49-94-116-108-177-130-320-112-114 14-413 14-574 1-408-35-719-81-754-112-35-30 247-141 554-218 199-50 275-59 324-40 61 23 76-27 24-77-54-49-115-87-258-155-148-72-227-108-235-108-21 0-204-100-240-132-85-75-385-449-450-560-22-40-24-49-12-54 44-16 407 80 577 153 134 58 266 136 331 195 71 66 179 233 179 278 0 33 105 146 202 218 64 47 167 102 192 102 31 0 12-80-52-220-91-200-198-568-173-593 19-19 139 53 301 181 142 112 394 370 466 477 116 173 139 254 129 451-6 114-5 136 11 170 19 42 281 309 326 333 33 17 63 8 53-17-23-52-44-347-52-719-3-188-2-293 4-293 10 0 104 93 145 145 190 236 386 546 413 655 3 14 12 48 19 75 25 91 38 218 38 360 1 209-30 325-85 325-51 0-60 40-24 110 63 121 313 520 327 520 9 0 30-174 30-252 0-138 36-426 72-578 44-185 112-327 146-306 13 8 75 163 117 295 53 160 52 159 80 271 14 58 30 121 35 140 49 199 63 454 32 590-6 25-14 59-18 75-11 49-88 208-135 276-43 63-44 66-43 141 1 42 6 90 11 105 6 15 16 48 23 73s33 105 57 179c59 182 97 231 122 160 6-18 11-46 11-64 0-82 138-410 283-670 36-65 153-245 185-284 31-39 48-22 56 56 30 279 21 945-15 1153-35 202-84 286-287 492l-145 148 11 97c13 112 19 174 32 323 17 199 34 213 104 85 21-38 55-92 76-120 20-27 55-75 77-105s49-65 59-77c11-12 28-32 38-45 166-204 439-468 483-468 17 0 15 45-7 160-27 148-98 456-131 570-6 19-13 46-15 60-3 14-9 34-14 45-4 11-13 38-19 60-120 436-186 535-497 751-67 46-138 100-157 119-40 40-71 114-87 207-57 331-58 348-27 348 23 0 128-66 205-129 135-109 394-281 634-419 97-56 179-102 182-102s6 23 6 50c0 28-4 50-8 50-5 0-71 123-147 273-76 149-163 317-193 372-56 101-183 302-218 344-87 106-139 161-200 211-102 85-158 113-374 192-188 68-215 90-303 240-93 157-207 402-207 444 0 26 43 9 128-48 107-72 291-164 488-242 93-38 178-72 189-77 11-4 58-20 105-34 47-15 96-30 110-35 14-4 43-12 65-18s59-15 81-21c50-13 134-14 134-2 0 15-125 185-206 281-12 14-63 75-114 135-156 184-382 403-500 484-120 83-294 172-395 202-22 6-48 15-57 20-10 5-25 9-35 9-9 0-30 4-47 9-43 14-149 28-290 41-148 13-178 28-302 148-95 92-354 365-367 387-14 26 10 23 125-16 107-36 136-44 258-70 89-18 253-47 345-60 248-35 403-47 612-48 105-1 164 3 168 10 15 23-124 138-365 301-282 192-484 300-680 364-111 36-130 41-190 54-30 6-73 16-95 22-54 14-380 14-425 0-19-6-55-16-80-23s-74-26-110-42c-79-35-148-34-225 5-67 33-203 106-240 128-30 17-81 46-185 103-30 17-72 41-92 54-21 13-42 23-48 23-14 0-13 27 2 36 6 4 117 11 247 15 222 8 274 13 461 38 74 10 106 15 285 45 304 50 563 115 549 138-11 18-219 94-374 138-25 7-56 16-70 21-51 16-362 89-460 108-30 5-81 15-112 21-76 15-404 15-470 0-216-49-300-85-522-227-71-46-137-83-146-83s-30 4-46 9-81 21-144 35c-63 15-131 31-150 35-19 5-53 14-75 20-22 5-61 15-87 22-77 19-69 28 72 84 122 49 233 101 490 229 272 137 308 156 617 333 24 14 45 29 48 33 13 21-83 32-220 26-274-12-497-35-725-76-130-23-309-71-380-102-14-6-34-14-45-18-107-40-269-135-355-209-243-209-392-252-580-168-48 22-171 108-243 171-167 146-322 218-602 281-66 14-136 30-155 35-49 12-133 27-215 40-38 6-95 15-126 20-30 6-74 10-97 10-22 0-63 4-89 9-51 10-326 19-405 13z" />
  <path
    d="M6055 9623c-3-21-10-67-15-103-35-231-43-284-57-360-8-47-19-114-25-150-12-78-22-143-37-230-7-36-16-90-21-120-6-30-14-82-19-115-6-33-17-103-26-155s-20-120-25-150-14-82-20-115c-11-60-21-117-40-230-6-33-14-82-19-110-12-66-24-132-60-350-17-99-35-204-41-232-11-56-25-135-41-220-23-133-60-330-75-400-5-27-31-42-92-53-26-4-74-13-107-20-60-11-176-32-290-51-33-6-82-15-110-20-27-5-77-13-110-19s-82-14-110-19c-60-11-160-28-235-41-30-5-82-14-115-20s-103-17-155-25c-93-14-165-26-285-46-33-5-89-15-125-20-36-6-87-14-115-19-27-5-79-13-115-19-36-5-92-15-125-20s-116-19-185-30c-252-41-334-55-408-71-23-6-53-10-67-10s-44-4-67-9c-24-6-65-14-93-20-27-5-79-15-115-22l-65-13 65-13c36-7 94-17 130-24 36-6 85-14 110-19 109-20 178-32 225-40 28-4 79-13 115-20 63-12 93-17 233-39 37-6 109-18 160-26 127-22 201-34 277-46 36-6 88-14 115-19 45-8 85-14 240-40 28-4 79-13 115-19 36-7 108-18 160-26s122-19 155-25 87-15 120-21c33-5 85-14 115-19 30-6 82-15 115-20 33-6 83-14 110-19 28-5 79-15 115-21s85-15 110-20 86-15 135-24c166-29 158-25 173-81 6-28 17-77 23-110s15-80 20-105c10-48 20-104 39-210 6-36 15-85 20-110 13-69 28-155 45-260 26-155 34-207 45-267 6-32 13-74 15-93 3-19 10-57 15-85 8-47 14-80 40-235 6-33 14-86 20-117 5-32 21-130 35-218s30-182 35-210c5-27 12-68 16-90 3-22 10-62 15-90 5-27 13-77 19-110 17-101 28-164 55-320 14-82 30-172 35-200 11-67 28-161 38-210 8-40 8-40 20 35 27 157 33 189 57 350 39 251 46 292 56 331 5 20 9 49 9 64s4 44 9 64 14 68 21 106c6 39 15 93 20 120 5 28 14 78 20 113 5 34 15 88 20 120 6 31 19 113 31 182 22 134 35 216 50 295 5 28 13 77 19 110s14 83 19 110c5 28 14 77 20 110 28 166 63 366 72 415 6 30 15 82 20 115 16 92 26 145 39 210 14 71 26 134 36 193 5 35 11 43 33 48 14 3 33 8 41 11s53 11 100 19 110 19 140 24c30 6 82 16 115 21 33 6 80 14 105 19 127 23 259 47 335 59 33 5 99 17 147 25 48 9 118 21 155 26 74 12 147 24 246 41 34 6 85 15 112 19 121 20 184 31 238 40 78 14 139 24 297 49 74 11 158 25 185 31 28 5 79 14 115 20 71 12 133 23 223 39 31 6 83 16 115 21 31 6 77 15 102 20s90 17 144 26c109 19 108 24-7 45-34 6-82 15-107 19-25 5-74 14-110 20s-85 15-110 20c-45 8-128 23-230 40-97 17-124 21-185 31-111 18-170 28-235 40-36 6-87 15-115 19-122 20-184 31-235 40-66 11-141 23-275 45-191 31-283 46-390 66-27 5-77 13-110 19s-82 14-110 19c-101 19-181 33-230 41-102 18-222 39-280 50-213 41-208 39-217 81-10 43-26 120-38 184-6 28-14 73-20 100-5 28-14 75-19 105-6 30-14 80-20 110-14 78-60 344-72 415-5 33-14 87-20 120s-15 83-19 110c-15 91-30 179-39 230-5 28-14 82-20 120-34 217-57 354-71 435-6 30-13 71-15 90-3 19-10 58-15 85-5 28-14 79-20 115s-15 88-20 115c-14 75-28 157-50 295-24 140-36 211-51 285-5 28-12 71-16 98-7 60-20 69-28 20z" />
</svg>