<svg xmlns="http://www.w3.org/2000/svg" id="root" viewBox="0 0 150 148">
  <path
    d="M 64.671875 147.46875 C 56.019531 146.097656 46.140625 142.890625 38.851562 139.070312 C 33.253906 136.144531 31.136719 134.683594 26.246094 130.578125 C 14.488281 120.625 6.445312 108.359375 2.355469 94.113281 C 0.191406 86.566406 0.00390625 85.101562 0.00390625 73.355469 L 0.00390625 62.035156 L 1.554688 56.703125 C 4.894531 44.910156 8.234375 37.457031 12.703125 31.605469 C 16.136719 27.125 22.53125 20.519531 26.8125 17.03125 C 35.890625 9.578125 47.269531 4.011719 57.617188 1.933594 C 60.34375 1.367188 63.589844 0.707031 64.8125 0.472656 C 66.082031 0.1875 70.785156 0 75.300781 0 C 82.308594 0 84.285156 0.1875 88.988281 1.179688 C 108.082031 5.332031 122.429688 13.820312 133.996094 27.832031 C 141.335938 36.703125 146.601562 47.691406 149.140625 59.441406 C 149.894531 62.742188 150.035156 65.429688 149.988281 74.769531 C 149.988281 85.667969 149.941406 86.28125 148.671875 90.8125 C 144.4375 106.1875 139.03125 115.578125 128.214844 126.472656 C 118.007812 136.757812 106.15625 142.984375 90.070312 146.476562 C 82.96875 148.03125 71.304688 148.457031 64.671875 147.46875 Z M 44.402344 105.859375 L 45.859375 105.574219 L 45.859375 90.054688 C 45.859375 75.242188 45.90625 74.535156 46.753906 74.0625 C 47.316406 73.78125 52.160156 73.59375 59.214844 73.59375 C 69.328125 73.59375 70.785156 73.6875 71.164062 74.347656 C 71.398438 74.769531 71.492188 81.5625 71.398438 89.820312 C 71.257812 98.878906 71.351562 104.726562 71.632812 105.152344 C 72.246094 106.046875 76.949219 106.425781 78.265625 105.671875 L 79.300781 105.152344 L 79.207031 89.914062 C 79.160156 81.5625 79.253906 74.441406 79.441406 74.15625 C 79.816406 73.542969 102.4375 73.308594 103.898438 73.875 C 104.554688 74.109375 104.648438 75.996094 104.648438 89.867188 C 104.648438 107.511719 104.320312 106.140625 108.367188 106.140625 C 112.175781 106.140625 112.082031 106.613281 112.175781 89.441406 C 112.175781 81.140625 112.316406 74.15625 112.457031 73.96875 C 112.597656 73.78125 120.078125 73.59375 129.105469 73.59375 C 138.136719 73.59375 145.613281 73.402344 145.757812 73.167969 C 146.273438 72.367188 145.097656 62.835938 143.921875 58.355469 C 140.488281 45.335938 134.234375 34.25 125.109375 25.238281 C 118.996094 19.152344 115.796875 16.886719 107 12.359375 C 88.046875 2.59375 65.894531 2.027344 46.09375 10.707031 C 23.238281 20.757812 6.964844 42.738281 4.519531 66.941406 C 4.234375 69.628906 4 72.222656 4 72.695312 C 4 73.542969 4.707031 73.59375 21.074219 73.6875 L 38.097656 73.828125 L 38.242188 89.394531 C 38.335938 103.359375 38.429688 105.011719 39.132812 105.574219 C 39.980469 106.1875 42.097656 106.332031 44.402344 105.859375 Z M 44.402344 105.859375 "
  />
</svg>
