<svg xmlns="http://www.w3.org/2000/svg" id="root" viewBox="0 0 150 150">
  <path
    d="M 117.519531 32.535156 L 32.441406 32.535156 L 32.441406 117.464844 L 32.515625 117.539062 L 117.519531 117.539062 Z M 117.519531 32.535156 "
  />
  <path
    d="M 129.6875 47.457031 L 144.910156 47.457031 C 147.480469 47.140625 149.414062 44.957031 149.414062 42.367188 C 149.414062 39.777344 147.480469 37.597656 144.910156 37.28125 L 129.6875 37.28125 C 126.875 37.28125 124.597656 39.558594 124.597656 42.367188 C 124.597656 45.179688 126.875 47.457031 129.6875 47.457031 "
  />
  <path
    d="M 144.949219 59.105469 L 129.722656 59.105469 C 127.15625 59.421875 125.222656 61.601562 125.222656 64.191406 C 125.222656 66.78125 127.15625 68.964844 129.722656 69.28125 L 144.949219 69.28125 C 147.78125 69.28125 150 66.984375 150 64.15625 C 150 61.324219 147.703125 59.105469 144.949219 59.105469 "
  />
  <path
    d="M 144.949219 80.796875 L 129.722656 80.796875 C 126.914062 80.796875 124.636719 83.074219 124.636719 85.882812 C 124.636719 88.695312 126.914062 90.972656 129.722656 90.972656 L 144.949219 90.972656 C 147.761719 90.972656 150.039062 88.695312 150.039062 85.882812 C 150.039062 83.074219 147.761719 80.796875 144.949219 80.796875 "
  />
  <path
    d="M 144.949219 102.542969 L 129.722656 102.542969 C 127.15625 102.859375 125.222656 105.042969 125.222656 107.632812 C 125.222656 110.222656 127.15625 112.402344 129.722656 112.71875 L 144.949219 112.71875 C 147.519531 112.402344 149.453125 110.222656 149.453125 107.632812 C 149.453125 105.042969 147.519531 102.859375 144.949219 102.542969 "
  />
  <path
    d="M 47.457031 20.3125 L 47.457031 5.089844 C 47.140625 2.519531 44.957031 0.585938 42.367188 0.585938 C 39.777344 0.585938 37.597656 2.519531 37.28125 5.089844 L 37.28125 20.3125 C 37.28125 23.125 39.558594 25.402344 42.367188 25.402344 C 45.179688 25.402344 47.457031 23.125 47.457031 20.3125 "
  />
  <path
    d="M 59.105469 5.105469 L 59.105469 20.332031 C 59.421875 22.902344 61.601562 24.832031 64.191406 24.832031 C 66.78125 24.832031 68.964844 22.902344 69.28125 20.332031 L 69.28125 5.105469 C 69.28125 2.296875 67.003906 0.0195312 64.191406 0.0195312 C 61.382812 0.0195312 59.105469 2.296875 59.105469 5.105469 "
  />
  <path
    d="M 80.796875 5.105469 L 80.796875 20.332031 C 81.113281 22.902344 83.292969 24.832031 85.882812 24.832031 C 88.472656 24.832031 90.65625 22.902344 90.972656 20.332031 L 90.972656 5.105469 C 91.214844 3.140625 90.300781 1.210938 88.625 0.152344 C 86.953125 -0.910156 84.816406 -0.910156 83.140625 0.152344 C 81.46875 1.210938 80.554688 3.140625 80.796875 5.105469 "
  />
  <path
    d="M 102.542969 5.105469 L 102.542969 20.332031 C 102.859375 22.902344 105.042969 24.832031 107.632812 24.832031 C 110.222656 24.832031 112.402344 22.902344 112.71875 20.332031 L 112.71875 5.105469 C 112.402344 2.535156 110.222656 0.605469 107.632812 0.605469 C 105.042969 0.605469 102.859375 2.535156 102.542969 5.105469 "
  />
  <path
    d="M 47.457031 144.949219 L 47.457031 129.722656 C 47.140625 127.15625 44.957031 125.222656 42.367188 125.222656 C 39.777344 125.222656 37.597656 127.15625 37.28125 129.722656 L 37.28125 144.949219 C 37.28125 147.761719 39.558594 150.039062 42.367188 150.039062 C 45.179688 150.039062 47.457031 147.761719 47.457031 144.949219 "
  />
  <path
    d="M 59.105469 129.6875 L 59.105469 144.910156 C 59.421875 147.480469 61.601562 149.414062 64.191406 149.414062 C 66.78125 149.414062 68.964844 147.480469 69.28125 144.910156 L 69.28125 129.6875 C 69.28125 126.875 67.003906 124.597656 64.191406 124.597656 C 61.382812 124.597656 59.105469 126.875 59.105469 129.6875 "
  />
  <path
    d="M 80.796875 129.6875 L 80.796875 144.910156 C 81.113281 147.480469 83.292969 149.414062 85.882812 149.414062 C 88.472656 149.414062 90.65625 147.480469 90.972656 144.910156 L 90.972656 129.6875 C 90.65625 127.117188 88.472656 125.183594 85.882812 125.183594 C 83.292969 125.183594 81.113281 127.117188 80.796875 129.6875 "
  />
  <path
    d="M 102.542969 129.6875 L 102.542969 144.910156 C 102.859375 147.480469 105.042969 149.414062 107.632812 149.414062 C 110.222656 149.414062 112.402344 147.480469 112.71875 144.910156 L 112.71875 129.6875 C 112.71875 126.855469 110.425781 124.636719 107.671875 124.636719 C 104.839844 124.636719 102.542969 126.933594 102.542969 129.6875 "
  />
  <path
    d="M 5.105469 47.457031 L 20.410156 47.457031 C 23.21875 47.433594 25.480469 45.140625 25.460938 42.328125 C 25.4375 39.519531 23.144531 37.257812 20.332031 37.28125 L 5.105469 37.28125 C 2.296875 37.28125 0.0195312 39.558594 0.0195312 42.367188 C 0.0195312 45.179688 2.296875 47.457031 5.105469 47.457031 "
  />
  <path
    d="M 20.3125 59.105469 L 5.089844 59.105469 C 2.277344 59.105469 0 61.382812 0 64.191406 C 0 67.003906 2.277344 69.28125 5.089844 69.28125 L 20.3125 69.28125 C 23.144531 69.28125 25.363281 66.984375 25.363281 64.15625 C 25.363281 61.324219 23.066406 59.105469 20.3125 59.105469 "
  />
  <path
    d="M 20.3125 80.796875 L 5.089844 80.796875 C 2.277344 80.796875 0 83.074219 0 85.882812 C 0 88.695312 2.277344 90.972656 5.089844 90.972656 L 20.3125 90.972656 C 23.125 90.972656 25.402344 88.695312 25.402344 85.882812 C 25.402344 83.074219 23.125 80.796875 20.3125 80.796875 "
  />
  <path
    d="M 20.3125 102.542969 L 5.089844 102.542969 C 2.519531 102.859375 0.585938 105.042969 0.585938 107.632812 C 0.585938 110.222656 2.519531 112.402344 5.089844 112.71875 L 20.3125 112.71875 C 22.882812 112.402344 24.816406 110.222656 24.816406 107.632812 C 24.816406 105.042969 22.882812 102.859375 20.3125 102.542969 "
  />
</svg>
