<svg id="root" xmlns="http://www.w3.org/2000/svg" width="180" height="180" viewBox="100 100 1600 1600">

  <path
    d="M370 1437 c0 -8 13 -40 30 -73 24 -49 65 -93 229 -248 l200 -189 -79 -86 c-126 -138 -177 -184 -194 -178 -21 8 -56 80 -56 117 0 37 19 77 52 107 31 29 106 62 143 63 29 1 29 1 10 16 -71 55 -174 81 -259 65 -80 -15 -142 -48 -213 -114 -106 -99 -149 -217 -124 -339 12 -57 68 -162 86 -160 6 1 13 17 17 37 19 89 92 175 150 175 33 0 118 -44 118 -61 0 -15 -47 -55 -80 -69 -20 -8 -30 -20 -30 -34 0 -11 -9 -39 -19 -62 l-18 -41 35 19 c20 10 48 18 62 18 21 0 29 7 39 35 7 19 28 47 47 61 34 26 35 26 49 8 22 -29 19 -73 -6 -83 -20 -7 -19 -9 15 -25 34 -16 39 -16 61 -2 13 8 26 29 30 45 5 22 13 31 32 33 14 2 35 15 45 29 19 25 19 28 2 60 -17 33 -17 33 -27 11 -12 -26 -36 -28 -78 -7 -38 20 -39 19 123 175 l128 122 57 -50 c32 -28 96 -89 143 -137 l85 -86 -24 -20 c-32 -26 -69 -25 -80 3 l-8 21 -16 -24 c-9 -13 -17 -31 -17 -41 0 -26 36 -58 65 -58 19 0 25 -5 25 -20 0 -32 46 -73 73 -64 41 12 49 24 26 43 -20 16 -20 19 -6 54 9 20 20 37 25 37 18 0 73 -58 83 -89 8 -23 17 -31 35 -31 14 0 43 -9 65 -20 l39 -21 -20 38 c-11 21 -20 49 -20 63 0 19 -10 29 -41 44 -49 22 -77 60 -60 80 19 22 76 46 112 46 61 0 149 -124 149 -210 l0 -25 21 25 c64 79 96 192 79 280 -15 82 -47 138 -116 207 -137 138 -313 168 -456 76 l-43 -27 44 -8 c101 -17 176 -90 176 -169 0 -51 -39 -121 -65 -117 -8 2 -71 61 -139 132 l-125 129 206 198 c198 191 230 230 253 307 9 30 -6 29 -80 -6 -51 -25 -88 -59 -244 -223 -101 -107 -189 -195 -195 -197 -7 -1 -94 85 -195 192 -179 190 -232 233 -303 250 -20 5 -28 3 -28 -7z">
  </path>
</svg>