<svg id="root" xmlns="http://www.w3.org/2000/svg" width="180" height="180" viewBox="0 0 1800 1800">
  <path
    d="M515 1596 c-52 -23 -77 -60 -82 -118 -8 -100 -6 -98 -71 -98 -77 0 -121 -23 -150 -80 -72 -140 78 -315 314 -365 42 -9 125 -15 213 -15 l143 0 -5 158 c-5 173 -19 240 -69 340 -41 82 -121 156 -190 177 -61 18 -65 18 -103 1z">
  </path>
  <path
    d="M1155 1576 c-94 -43 -172 -152 -211 -293 -10 -36 -18 -115 -21 -209 l-5 -151 98 -6 c281 -19 499 65 570 218 38 80 27 152 -30 204 -21 20 -41 26 -99 30 l-72 6 -7 67 c-3 37 -14 80 -23 96 -38 64 -114 79 -200 38z">
  </path>
  <path
    d="M555 865 c-127 -24 -195 -55 -268 -124 -87 -80 -118 -181 -77 -248 25 -42 68 -63 125 -63 75 0 85 -10 85 -85 0 -54 4 -68 27 -96 53 -63 127 -75 211 -33 92 46 159 143 198 284 13 46 18 110 20 221 l3 155 -127 2 c-70 0 -158 -5 -197 -13z">
  </path>
  <path
    d="M920 726 c0 -230 34 -347 129 -450 55 -59 109 -85 174 -86 95 0 147 53 147 150 0 31 5 61 12 68 7 7 34 12 60 12 137 0 195 96 134 225 -67 145 -244 224 -513 230 l-143 3 0 -152z">
  </path>
</svg>