<svg xmlns="http://www.w3.org/2000/svg" viewBox="0 0 2120 2120">
  <path
    d="M880 2100c-286-54-547-223-695-450-91-139-142-268-169-429-20-119-20-202 0-322 38-231 132-420 291-582 408-418 1084-424 1497-13 168 168 266 358 301 586 73 469-161 914-586 1118-165 79-225 93-424 97-93 2-190 0-215-5zm385-169c327-79 577-323 668-651 31-114 31-333-2-450-126-456-569-739-1026-655-105 19-160 37-244 79-172 86-310 223-399 397-171 330-113 747 142 1017 146 155 340 252 571 286 57 8 210-4 290-23z" />
  <path
    d="M950 1851c-450-66-753-481-679-930 40-242 207-469 423-576 243-120 501-121 731-2 156 80 277 202 354 356 64 127 75 182 76 356 0 139-3 169-22 228-92 278-286 467-562 548-74 21-240 32-321 20zm224-106c206-23 421-185 518-393 187-396-34-864-459-971-160-41-327-23-483 52-69 34-102 58-176 132-80 78-97 102-137 185-56 119-72 189-72 310 1 365 281 663 650 693 40 4 53 3 159-8z" />
  <path
    d="M892 1648c-18-18-14-57 9-108 31-66 31-205 0-280-62-152-193-243-365-254-72-5-86-14-86-53 0-50 63-64 180-39 102 22 177 62 251 136 101 100 149 213 149 353 0 84-28 188-61 231-22 27-57 34-77 14zM1152 1647c-23-27-50-107-61-175-40-256 133-503 388-557 133-28 191-14 191 46 0 33-31 52-69 42-40-10-167 26-228 66-65 43-88 66-128 131-57 91-71 222-34 326 31 89 32 99 14 117-20 20-58 22-73 4z" />
  <path
    d="M611 1366c-30-32-32-87-4-123 15-21 30-29 61-31 51-4 77 9 98 49 18 36 13 64-17 102-17 23-28 27-68 27-37 0-52-5-70-24zM1372 1367c-31-33-31-105 1-135 33-31 105-31 135 1 31 33 31 105-1 135-33 31-105 31-135-1zM995 959c-148-14-304-119-370-248-30-60-31-73-7-94 37-34 70-18 102 48 25 50 111 129 175 160 54 26 70 29 165 29 93 1 111-2 160-25 73-35 143-98 183-167 36-63 65-76 98-46 25 22 24 43-3 93-94 176-285 271-503 250z" />
  <path
    d="M997 715c-35-36-42-70-19-108 27-47 65-62 114-48 31 10 43 20 54 47 18 43 5 95-29 119s-90 19-120-10z" />
</svg>