<svg xmlns="http://www.w3.org/2000/svg" viewBox="0 0 1300 1550">

  <path
    d="M646 1540c-3-8-33-95-67-194l-61-178 31-127c59-241 59-350-3-564-15-48-26-93-26-99 0-15 120-361 129-370 4-4 37 78 73 182l67 190-20 58c-31 89-59 243-59 321 0 76 28 237 59 339l20 63-69 197c-37 108-71 190-74 182zM470 1245c-30-30-52-55-50-55 3 0 19-4 37-9l32-9 20 61c12 33 20 62 18 63-2 2-28-21-57-51zM792 1237c22-67 23-68 53-61 16 3 32 8 35 11 2 2-22 29-53 61l-57 56 22-67z" />
  <path
    d="M298 1153c151-161 215-324 182-464-21-91-86-203-167-289l-73-78 121 32c81 21 124 38 131 50 5 9 23 70 40 134 47 184 41 325-27 557l-14 50-113 29c-62 16-118 30-124 33-6 2 14-22 44-54zM936 1174c-65-18-121-36-124-39-3-2-18-55-34-117-51-198-49-330 8-534l26-92 102-27 121-33c13-4-2 19-43 63-234 255-233 489 1 741 38 41 67 74 65 73-1 0-57-16-122-35z" />
  <path
    d="m292 1067-24-25 42-7c23-4 44-5 46-2 3 3-5 17-18 32l-23 26-23-24zM962 1060l-23-30 28 1c15 0 36 4 46 8 17 6 16 8-6 29l-23 22-22-30zM250 975c92-57 115-78 147-133 60-101 0-201-179-303l-53-31 45 6c25 3 75 8 112 12l66 7 25 51c63 130 62 258-5 378-22 39-25 40-168 54l-65 6 75-47zM990 1006c-73-11-75-12-97-52-57-102-64-217-22-330 29-77 44-90 120-98 35-4 82-10 104-13 39-5 38-4-35 40-90 53-154 120-171 176-26 87 40 177 192 261l54 30-35-1c-19-1-69-7-110-13z" />
  <path
    d="M97 872 0 775l103-103c56-56 107-102 112-102 6 0 21 7 34 16l23 17-86 86-86 86 80 80 80 80-22 17c-13 10-28 18-33 18-6 0-54-44-108-98zM1066 954l-29-16 84-84 84-84-85-85c-89-89-88-87-39-115 12-7 38 14 119 95l104 104-24 27c-44 47-170 169-178 171-4 1-20-5-36-13zM940 500c0-4 10-16 23-28 23-22 24-22 40-4 24 26 22 29-23 34-22 2-40 1-40-2zM296 491c-3-4 3-16 13-25 17-16 19-15 35 9 16 25 16 25-13 25-16 0-32-4-35-9zM458 353c-26-7-23-14 27-63 25-24 45-42 45-40 0 15-39 105-46 106-5 1-17 0-26-3zM791 298l-21-63 55 55c47 46 53 56 38 62-42 16-51 9-72-54z" />

</svg>