<svg id="root" xmlns="http://www.w3.org/2000/svg" width="180" height="180" viewBox="100 100 1600 1600">
  <path
    d="M750 1652 c0 -4 29 -58 65 -120 36 -61 65 -117 65 -123 0 -12 -79 -159 -85 -159 -1 0 -42 70 -91 155 -48 85 -91 155 -96 155 -4 0 33 -70 82 -155 50 -85 90 -162 90 -170 0 -19 -70 -145 -80 -145 -5 0 -59 88 -121 195 -62 107 -114 193 -117 191 -2 -3 49 -96 113 -207 l117 -203 -33 -62 c-38 -71 -57 -100 -62 -93 -2 2 -48 81 -102 174 -170 295 -177 307 -181 302 -3 -2 59 -114 136 -248 130 -223 141 -245 130 -268 -6 -14 -70 -129 -142 -254 -72 -126 -128 -230 -125 -233 3 -3 20 21 38 53 95 169 243 429 246 432 5 7 24 -22 62 -92 l34 -63 -112 -196 c-61 -108 -111 -202 -111 -210 1 -7 8 1 17 17 31 59 196 350 206 363 8 10 21 -6 54 -63 l44 -76 -91 -161 c-50 -88 -89 -163 -86 -165 2 -2 34 49 71 114 38 65 79 135 92 157 l25 38 44 -77 c24 -42 44 -78 44 -80 0 -1 -29 -54 -65 -116 -35 -62 -62 -116 -58 -119 3 -3 7 0 9 5 11 30 112 199 120 202 6 2 40 -49 77 -114 37 -65 67 -111 67 -104 0 8 -30 66 -67 129 l-67 115 40 75 c22 40 45 74 50 74 5 1 47 -65 94 -145 47 -80 87 -144 89 -142 2 2 -36 72 -83 154 -47 83 -86 155 -86 160 0 13 69 139 80 146 4 2 58 -84 120 -193 127 -220 119 -207 124 -201 2 2 -49 97 -115 211 l-119 207 42 76 c23 41 46 74 50 73 4 -2 64 -100 132 -218 115 -199 178 -299 145 -230 -7 14 -70 126 -142 249 -126 218 -129 225 -114 250 134 232 267 473 267 483 0 7 -64 -101 -142 -239 -78 -138 -145 -250 -150 -247 -4 2 -25 38 -48 79 l-41 75 115 202 c63 111 113 204 111 207 -7 6 2 20 -120 -196 -59 -106 -111 -193 -114 -193 -7 0 -13 9 -59 91 l-31 55 94 164 c51 91 92 167 89 169 -6 6 -2 13 -98 -159 -49 -85 -89 -156 -91 -158 -1 -1 -23 32 -48 75 l-46 78 33 60 c18 33 48 86 65 118 18 31 29 57 24 57 -4 0 -34 -48 -67 -107 -68 -123 -54 -126 -143 30 -52 92 -63 107 -63 89z m189 -333 c23 -39 41 -76 41 -82 0 -12 -78 -157 -84 -157 -8 0 -86 140 -86 155 0 15 76 155 85 155 2 0 22 -32 44 -71z m123 -215 l21 -41 -43 -76 c-24 -42 -47 -74 -51 -71 -11 7 -79 131 -79 144 0 7 19 46 41 88 l42 75 23 -39 c13 -22 34 -57 46 -80z m-212 24 l37 -63 -41 -77 c-22 -43 -43 -78 -46 -78 -3 0 -25 35 -49 77 l-44 77 22 41 c66 124 62 124 121 23z m-100 -163 l41 -75 -41 -75 c-23 -41 -45 -75 -49 -75 -4 0 -26 34 -50 75 l-42 75 43 79 c23 43 46 77 50 75 4 -3 25 -38 48 -79z m393 -144 c-23 -42 -45 -76 -49 -78 -5 -1 -28 32 -52 73 l-43 75 37 67 c57 103 52 103 102 15 l45 -78 -40 -74z m-199 145 c20 -35 36 -69 36 -76 0 -16 -81 -152 -87 -146 -11 11 -83 139 -83 148 0 18 82 148 90 143 5 -3 24 -34 44 -69z m-96 -170 l42 -73 -43 -77 c-23 -42 -45 -76 -49 -76 -4 0 -25 33 -47 74 l-41 74 41 76 c22 42 44 76 48 76 4 0 26 -33 49 -74z m192 5 c22 -38 40 -75 40 -81 0 -14 -68 -138 -80 -145 -8 -5 -90 128 -90 147 0 16 73 148 82 148 4 0 25 -31 48 -69z m-92 -176 l42 -75 -42 -75 c-24 -41 -46 -75 -49 -75 -9 0 -89 135 -89 150 0 6 6 21 14 33 7 12 25 43 40 70 15 26 30 47 34 47 4 0 26 -34 50 -75z">
  </path>
</svg>