<svg xmlns="http://www.w3.org/2000/svg" viewBox="0 0 1250 1250">
  <g fill="#000000">
    <path
      d="M492 1225c-215-49-388-208-455-420-31-99-31-261 0-360C98 251 251 98 445 37c99-31 261-31 360 0 194 61 347 214 408 408 31 99 31 261 0 360-61 192-214 347-403 406-85 27-234 34-318 14zm309-25c187-58 339-211 402-403 27-87 27-257 0-344-63-193-213-343-406-406-87-27-257-27-344 0-193 63-343 213-406 406-27 87-27 257 0 344 72 222 261 388 483 423 73 12 200 2 271-20z"
    />
    <path
      d="M708 1063c-15-74-80-233-96-233-5 0-13 15-20 33-32 89-119 147-218 147-133-1-222-91-264-269-65-277 117-566 399-631 65-15 193-16 218-1 15 8 11 10-22 11-62 1-201 54-278 106-88 60-160 147-208 249-58 125-59 154-1 65 121-187 308-290 527-290 99 0 178 17 267 57 51 22 61 32 84 78 25 53 54 145 54 177 0 15-9 12-47-16-121-86-229-120-378-119-79 1-117 6-180 27-86 28-189 84-130 71 150-33 244-30 369 13 126 43 245 133 313 233 23 35 23 39 9 73-8 20-29 56-46 82l-32 46-33-49c-39-58-134-149-195-188-47-30-162-74-193-75-12 0 4 17 43 47 64 48 122 114 165 188 28 47 65 148 65 177 0 20-61 52-123 63l-34 7-15-79zm-239-92c161-83 159-313-4-390-89-42-188-20-257 57-41 46-53 87-46 168 9 108 96 184 210 184 38 0 72-7 97-19z"
    />
  </g>
</svg>
