<svg xmlns="http://www.w3.org/2000/svg" id="root" viewBox="0 0 4410 4420">
  <path
    d="M2005 4409c-428-44-817-197-1142-448-454-351-752-858-840-1431-24-159-24-482 0-640 74-476 285-898 617-1231 126-126 206-193 348-288 265-177 589-300 917-347 145-20 428-23 565-5 659 87 1222 438 1583 986 85 130 198 363 246 510 177 543 140 1138-104 1650-171 358-454 678-800 905-178 116-466 238-680 288s-513 72-710 51zm231-416c9-21 22-51 29-68 43-94 149-397 180-510 59-218 91-357 126-563 17-97 39-315 50-499 27-423-41-967-174-1403-38-124-71-215-107-300-17-41-37-91-45-110-23-63-85-180-94-180-5 0-16 17-24 38-9 20-32 75-52 122-102 237-207 592-250 840-8 47-19 105-24 130-46 221-60 802-28 1120 44 432 169 930 327 1300 11 25 26 62 34 83 8 20 20 37 26 37s18-17 26-37zm-642-141c3-5-8-44-25-88-85-223-130-394-132-494-2-127 55-199 234-296 49-27 89-54 89-60 0-5-9-58-20-116-46-256-47-872 0-1155 29-176 32-165-52-215-143-83-199-131-235-202-56-110-24-282 109-593 18-40 29-75 26-79-14-13-128 21-212 65-371 191-744 619-858 986-32 103-52 295-31 295 5 0 25-21 43-47 77-110 147-165 242-189 170-44 346 62 441 266 35 76 46 121 53 221 24 324-162 591-410 590-122 0-222-55-311-171-25-33-51-60-57-60-23 0 28 285 63 349 4 9 24 52 44 95 20 44 45 91 55 105 9 14 34 53 55 85 125 194 355 429 556 568 138 95 315 169 333 140zm1322-12c310-107 746-532 909-886 20-44 40-86 44-95 35-64 86-349 63-349-6 0-32 27-57 60-89 116-189 171-311 171-358 1-545-540-309-896 69-103 158-166 265-186 140-25 261 38 370 194 18 26 38 47 43 47 21 0 1-192-31-295-114-367-487-795-858-986-84-44-198-78-212-65-3 4 8 39 26 79 133 311 165 483 109 593-36 71-92 119-234 202-85 50-82 39-53 215 47 283 46 899 0 1155-11 58-20 111-20 116 0 6 40 33 89 60 180 98 235 166 234 291-1 104-45 271-132 499-40 106-37 111 65 76z"
  />
</svg>
