<svg id="root" xmlns="http://www.w3.org/2000/svg" width="180" height="180" viewBox="100 100 1600 1600">
  <path
    d="M460 1503 c0 -14 93 -128 226 -279 71 -81 129 -149 129 -154 0 -4 -79 -83 -175 -174 l-175 -167 -56 59 c-63 67 -85 124 -69 183 l9 34 -39 -45 c-57 -64 -67 -93 -47 -135 9 -18 43 -62 76 -97 l60 -64 -97 -97 c-54 -53 -103 -97 -111 -97 -23 0 -69 -33 -80 -57 -31 -69 17 -143 93 -143 32 0 83 43 91 78 3 17 43 66 103 125 l98 98 20 -22 c10 -12 45 -44 77 -70 77 -65 105 -65 181 -3 57 46 71 63 37 44 -54 -28 -141 2 -209 73 l-44 45 137 143 c76 79 152 159 170 177 l32 33 168 -176 168 -176 -44 -45 c-60 -61 -118 -88 -175 -81 -39 4 -43 3 -32 -11 30 -36 92 -72 124 -72 28 0 47 12 108 70 40 38 78 70 84 70 18 0 189 -194 205 -233 18 -43 71 -72 112 -61 37 9 75 59 75 98 0 41 -32 83 -69 93 -16 5 -75 52 -131 106 l-102 98 66 69 c36 37 70 80 76 95 13 33 -6 78 -53 123 l-32 32 3 -40 c2 -21 -1 -55 -8 -74 -12 -36 -94 -136 -112 -136 -6 0 -88 75 -184 166 l-173 166 92 102 c156 170 301 351 266 331 -46 -27 -243 -192 -362 -303 l-68 -63 -81 73 c-191 173 -358 309 -358 291z">
  </path>
</svg>