<svg xmlns="http://www.w3.org/2000/svg" viewBox="0 0 14400 10240">
  <path
    d="M6903 7465c-698-89-1313-467-1698-1045-245-369-376-767-400-1225-20-365 88-804 297-1215 75-148 210-356 282-435 45-50 45-50 258 169 117 121 218 227 225 236 10 15 5 26-33 75-146 189-283 497-346 780-19 86-22 130-22 310 0 238 14 326 84 536 178 536 633 968 1170 1111 47 12 87 26 88 30 2 5 8 6 13 2 5-3 33-1 62 5 28 6 108 15 177 21 742 56 1447-384 1724-1074 191-474 161-1018-79-1446-128-229-334-450-558-598-70-47-70-47-166 55-53 56-156 165-229 242-132 139-132 139-75 171 169 95 321 258 413 440 291 579-19 1285-645 1465-242 70-498 50-722-55-300-140-518-415-585-740-29-138-22-348 16-474 34-112 99-238 173-337 52-69 1691-1709 1707-1709 14 0 655 491 744 570 389 344 664 848 758 1390 25 145 30 512 10 670-69 528-292 992-655 1364-374 382-831 619-1356 702-141 22-489 27-632 9zm696.758-2391.326c0-243.806-197.644-441.45-441.45-441.45-243.806 0-441.45 197.644-441.45 441.45 0 243.806 197.644 441.45 441.45 441.45 243.806 0 441.45-197.644 441.45-441.45ZM7230 5509"
  />
</svg>
