<svg xmlns="http://www.w3.org/2000/svg" id="root" viewBox="0 0 5380 4170">
  <path
    d="M2170 4145c-356-72-715-225-1011-430-164-114-408-337-536-490-60-71-183-245-234-330-189-315-310-651-365-1020-26-169-26-602-1-760 60-372 174-700 346-993 64-109 73-113 32-12-68 169-129 379-155 535-55 330-44 681 30 995 25 105 84 299 109 355 7 17 26 59 41 95 70 159 209 388 333 545 30 39 116 131 190 205 364 363 814 598 1314 684l37 7v629l-32-1c-18 0-62-7-98-14zM3087 4154c-10-11-9-612 2-618 5-4 54-15 109-26 926-186 1692-935 1906-1865 52-227 60-305 61-565 0-367-38-576-171-934-40-107-20-95 42 24 22 41 41 77 44 80s22 41 42 85c120 263 187 484 234 780 28 171 26 604-4 782-21 130-59 295-87 383-66 202-116 325-188 460-52 97-129 224-139 228-4 2-8 9-8 15 0 7-20 39-45 72s-53 71-62 85c-10 13-25 31-33 40-8 8-30 36-49 60-19 25-91 101-160 170-180 179-398 343-596 450-44 23-91 49-105 56-35 20-177 79-296 124-94 36-296 91-389 106-22 3-54 8-70 11-17 2-33 1-38-3z"
  />
  <path
    d="M2550 3154c-14-2-58-9-99-15-106-16-107-16-74-51 78-82 140-97 418-104 252-6 293-12 383-57 132-65 242-209 273-354 27-132-8-300-84-405l-30-42 52-48 52-47 107 6c91 5 113 3 142-12 59-29 109-85 125-139 30-99 13-170-55-237-108-106-265-88-355 40-29 42-30 47-31 159 0 65-1 122-2 129s-20 31-43 53l-41 41-32-21c-48-32-152-79-199-90-63-14-172-12-239 6-199 51-350 223-380 431-11 76-10 92 15 216 42 208 35 258-46 339-83 83-175 117-263 98-97-22-305-143-419-243l-50-44 34-39c72-81 109-209 90-311-29-155-113-254-257-302-73-25-149-27-221-5-30 8-57 12-61 7-11-13-49-180-61-273-16-121-6-370 21-495 54-253 173-488 347-690 157-182 412-351 644-428 165-55 279-72 479-72 195 0 310 17 462 66 344 112 646 356 832 671 71 121 79 113-118 116l-170 2-31-30c-60-58-141-58-183 0l-23 30h-354l-29-36c-30-38-79-64-121-64-39 0-98 34-118 69l-19 32-105-3-106-3-16-50c-20-61-59-114-109-148-196-136-461-15-480 220-6 82 11 142 63 212 60 82 132 116 240 115 150-1 244-75 298-236 6-16 20-18 115-18h108l18 31c11 18 36 39 62 50 37 17 49 18 89 8 42-11 95-55 95-80 0-5 79-9 185-9h185l29 32c23 26 38 32 90 39 73 8 90 25 91 86 0 88 44 133 126 133s135-88 98-165c-20-44-55-63-129-71-58-7-82-27-54-45 8-5 96-9 195-9h181l21 57c72 200 101 489 72 698-58 404-263 755-587 1001-255 194-535 291-863 299-85 2-166 2-180-1z"
  />
</svg>