<svg xmlns="http://www.w3.org/2000/svg" viewBox="0 0 690 840"><path d="M122 716 8 602l41-4c39-3 44 0 108 64 37 38 72 68 78 68s23-13 38-28l28-29-58-56-58-57 58-57 58-56-28-29c-15-15-32-28-37-28-6 0-42 32-80 70-62 62-73 70-108 70-21 0-38-3-38-7 0-5 41-48 90-98l90-90-57-57-58-58 113-113L300-5v45c0 42-4 49-67 112l-68 68 91 91 90 90 87-86c48-48 87-90 87-95 0-4-28-37-61-73-50-52-62-72-64-101-1-20 2-35 6-34 5 2 56 50 113 107l105 104-54 53c-30 29-55 56-55 61 0 4 42 49 92 100l93 93h-45c-43 0-49-4-115-70-38-38-74-70-80-70-14 0-55 42-55 56 0 5 23 32 50 59 28 27 50 52 50 56s-22 28-50 55c-27 27-50 53-50 60 0 12 42 54 55 54 5 0 39-30 76-66 60-60 70-66 112-68 26-1 46-1 44 1-1 1-54 54-117 118L456 830l-51-50c-52-52-68-59-82-37-5 6-26 29-48 49l-40 37-113-113zm263-126 29-30-29-30c-16-16-32-30-36-30s-21 13-39 30l-32 30 29 29c35 38 43 38 78 1z"/></svg>