<svg xmlns="http://www.w3.org/2000/svg" id="root" viewBox="0 0 150 150">
  <path
    d="M 74.992188 47.757812 C 59.96875 47.757812 47.75 59.976562 47.75 75 C 47.75 90.023438 59.96875 102.242188 74.992188 102.242188 C 90.015625 102.242188 102.234375 90.023438 102.234375 75 C 102.234375 59.976562 90.015625 47.757812 74.992188 47.757812 Z M 74.992188 104.589844 C 91.308594 104.589844 104.582031 91.3125 104.582031 75 C 104.582031 58.691406 91.300781 45.410156 74.992188 45.410156 C 58.6875 45.410156 45.40625 58.691406 45.40625 75 C 45.40625 91.3125 58.679688 104.589844 74.992188 104.589844 Z M 74.992188 60.011719 C 66.726562 60.019531 60.027344 66.71875 60.015625 74.988281 C 60.015625 83.242188 66.742188 89.960938 74.992188 89.960938 C 83.242188 89.960938 89.96875 83.242188 89.96875 74.988281 C 89.96875 66.734375 83.25 60.011719 74.992188 60.011719 Z M 74.992188 92.320312 C 84.558594 92.3125 92.308594 84.5625 92.316406 74.996094 C 92.304688 65.433594 84.550781 57.6875 74.988281 57.679688 C 65.429688 57.691406 57.679688 65.4375 57.671875 75 C 57.679688 84.5625 65.429688 92.3125 74.992188 92.320312 Z M 77.273438 76.171875 C 77.921875 76.171875 78.445312 75.644531 78.445312 75 C 78.445312 74.351562 77.921875 73.824219 77.273438 73.824219 L 72.703125 73.824219 C 72.054688 73.824219 71.527344 74.351562 71.527344 75 C 71.527344 75.648438 72.054688 76.175781 72.703125 76.175781 Z M 103.515625 115.195312 L 46.46875 115.195312 C 40.027344 115.1875 34.808594 109.96875 34.800781 103.527344 L 34.800781 46.472656 C 34.800781 40.039062 40.039062 34.804688 46.46875 34.804688 L 103.503906 34.804688 C 109.9375 34.804688 115.171875 40.042969 115.171875 46.472656 L 115.171875 103.511719 C 115.179688 109.957031 109.964844 115.1875 103.519531 115.195312 "
  />
  <path
    d="M 47.789062 39.492188 C 46.496094 39.492188 45.441406 38.445312 45.441406 37.152344 L 45.441406 25.578125 L 41.242188 18.292969 C 41.035156 17.9375 40.925781 17.53125 40.925781 17.121094 L 40.925781 2.347656 C 40.972656 1.089844 42.007812 0.09375 43.269531 0.09375 C 44.53125 0.09375 45.566406 1.089844 45.613281 2.347656 L 45.613281 16.496094 L 49.8125 23.78125 C 50.019531 24.136719 50.128906 24.542969 50.128906 24.957031 L 50.128906 37.152344 C 50.128906 38.445312 49.082031 39.492188 47.785156 39.492188 M 102.210938 39.492188 C 100.917969 39.492188 99.867188 38.445312 99.867188 37.152344 L 99.867188 24.957031 C 99.867188 24.542969 99.976562 24.140625 100.1875 23.785156 L 104.382812 16.496094 L 104.382812 2.351562 C 104.433594 1.09375 105.46875 0.0976562 106.726562 0.0976562 C 107.988281 0.0976562 109.023438 1.09375 109.070312 2.351562 L 109.070312 17.128906 C 109.070312 17.539062 108.960938 17.945312 108.753906 18.300781 L 104.554688 25.585938 L 104.554688 37.15625 C 104.546875 38.445312 103.5 39.488281 102.210938 39.488281 M 58.664062 39.492188 C 57.367188 39.492188 56.316406 38.445312 56.316406 37.152344 L 56.316406 17.773438 C 56.363281 16.515625 57.398438 15.519531 58.660156 15.519531 C 59.921875 15.519531 60.957031 16.515625 61.003906 17.773438 L 61.003906 37.148438 C 61.003906 38.441406 59.957031 39.488281 58.664062 39.488281 M 69.550781 39.492188 C 68.257812 39.492188 67.207031 38.445312 67.207031 37.152344 L 67.207031 11.320312 C 67.253906 10.0625 68.289062 9.066406 69.550781 9.066406 C 70.808594 9.066406 71.84375 10.0625 71.890625 11.320312 L 71.890625 37.152344 C 71.890625 38.445312 70.84375 39.492188 69.550781 39.492188 M 80.4375 39.492188 C 79.140625 39.492188 78.09375 38.445312 78.09375 37.152344 L 78.09375 11.320312 C 78.140625 10.0625 79.175781 9.066406 80.4375 9.066406 C 81.699219 9.066406 82.734375 10.0625 82.78125 11.320312 L 82.78125 37.152344 C 82.78125 38.445312 81.730469 39.492188 80.4375 39.492188 M 91.324219 39.492188 C 90.03125 39.492188 88.980469 38.445312 88.980469 37.152344 L 88.980469 17.773438 C 89.03125 16.515625 90.066406 15.519531 91.324219 15.519531 C 92.585938 15.519531 93.621094 16.515625 93.667969 17.773438 L 93.667969 37.148438 C 93.667969 38.441406 92.617188 39.488281 91.324219 39.488281 M 125.039062 50.136719 L 112.84375 50.136719 C 111.582031 50.089844 110.585938 49.054688 110.585938 47.792969 C 110.585938 46.53125 111.582031 45.496094 112.84375 45.449219 L 124.414062 45.449219 L 131.699219 41.25 C 132.054688 41.039062 132.460938 40.929688 132.871094 40.933594 L 147.65625 40.933594 C 148.914062 40.980469 149.910156 42.015625 149.910156 43.277344 C 149.910156 44.535156 148.914062 45.570312 147.65625 45.621094 L 133.507812 45.621094 L 126.222656 49.820312 C 125.863281 50.027344 125.453125 50.136719 125.039062 50.136719 M 147.640625 109.078125 L 132.863281 109.078125 C 132.449219 109.078125 132.042969 108.96875 131.6875 108.761719 L 124.40625 104.5625 L 112.832031 104.5625 C 111.574219 104.511719 110.574219 103.476562 110.574219 102.21875 C 110.574219 100.957031 111.574219 99.921875 112.832031 99.875 L 125.023438 99.875 C 125.4375 99.875 125.84375 99.984375 126.199219 100.195312 L 133.480469 104.390625 L 147.632812 104.390625 C 148.890625 104.4375 149.890625 105.46875 149.890625 106.730469 C 149.894531 107.988281 148.902344 109.027344 147.640625 109.078125 M 132.214844 61.011719 L 112.84375 61.011719 C 111.582031 60.960938 110.585938 59.929688 110.585938 58.667969 C 110.585938 57.40625 111.582031 56.371094 112.84375 56.324219 L 132.214844 56.324219 C 133.476562 56.371094 134.472656 57.40625 134.472656 58.667969 C 134.472656 59.929688 133.476562 60.960938 132.214844 61.011719 M 138.671875 71.898438 L 112.84375 71.898438 C 111.582031 71.851562 110.585938 70.816406 110.585938 69.554688 C 110.585938 68.296875 111.582031 67.261719 112.84375 67.210938 L 138.671875 67.210938 C 139.933594 67.261719 140.929688 68.296875 140.929688 69.554688 C 140.929688 70.816406 139.933594 71.851562 138.671875 71.898438 M 138.671875 82.785156 L 112.84375 82.785156 C 111.597656 82.71875 110.625 81.6875 110.625 80.441406 C 110.625 79.195312 111.597656 78.167969 112.84375 78.101562 L 138.671875 78.101562 C 139.933594 78.148438 140.929688 79.183594 140.929688 80.445312 C 140.929688 81.703125 139.933594 82.738281 138.671875 82.789062 M 132.214844 93.675781 L 112.84375 93.675781 C 111.582031 93.628906 110.585938 92.59375 110.585938 91.332031 C 110.585938 90.070312 111.582031 89.039062 112.84375 88.988281 L 132.214844 88.988281 C 133.476562 89.039062 134.472656 90.070312 134.472656 91.332031 C 134.472656 92.59375 133.476562 93.628906 132.214844 93.675781 M 106.730469 149.992188 C 105.4375 149.992188 104.382812 148.945312 104.382812 147.648438 L 104.382812 133.503906 L 100.1875 126.21875 C 99.976562 125.863281 99.867188 125.457031 99.867188 125.042969 L 99.867188 112.847656 C 99.914062 111.589844 100.949219 110.59375 102.210938 110.59375 C 103.472656 110.59375 104.507812 111.589844 104.554688 112.847656 L 104.554688 124.421875 L 108.753906 131.707031 C 108.960938 132.0625 109.070312 132.46875 109.070312 132.878906 L 109.070312 147.660156 C 109.066406 148.949219 108.019531 149.992188 106.730469 149.992188 M 43.261719 149.992188 C 41.964844 149.992188 40.914062 148.945312 40.914062 147.648438 L 40.914062 132.871094 C 40.914062 132.453125 41.023438 132.050781 41.230469 131.695312 L 45.429688 124.410156 L 45.429688 112.839844 C 45.429688 111.542969 46.480469 110.492188 47.773438 110.492188 C 49.070312 110.492188 50.117188 111.542969 50.117188 112.839844 L 50.117188 125.03125 C 50.121094 125.445312 50.007812 125.847656 49.800781 126.203125 L 45.601562 133.488281 L 45.601562 147.636719 C 45.605469 148.261719 45.359375 148.859375 44.917969 149.300781 C 44.476562 149.742188 43.878906 149.992188 43.257812 149.992188 M 91.324219 134.5625 C 90.03125 134.5625 88.980469 133.515625 88.980469 132.222656 L 88.980469 112.847656 C 89.03125 111.589844 90.066406 110.59375 91.324219 110.59375 C 92.585938 110.59375 93.621094 111.589844 93.667969 112.847656 L 93.667969 132.222656 C 93.667969 133.515625 92.617188 134.5625 91.324219 134.5625 M 80.4375 141.019531 C 79.140625 141.019531 78.09375 139.972656 78.09375 138.679688 L 78.09375 112.847656 C 78.140625 111.589844 79.175781 110.59375 80.4375 110.59375 C 81.699219 110.59375 82.734375 111.589844 82.78125 112.847656 L 82.78125 138.679688 C 82.78125 139.972656 81.730469 141.019531 80.4375 141.019531 M 69.550781 141.019531 C 68.257812 141.019531 67.207031 139.972656 67.207031 138.679688 L 67.207031 112.847656 C 67.253906 111.589844 68.289062 110.59375 69.550781 110.59375 C 70.808594 110.59375 71.84375 111.589844 71.890625 112.847656 L 71.890625 138.679688 C 71.890625 139.972656 70.84375 141.019531 69.550781 141.019531 M 58.664062 134.5625 C 57.367188 134.5625 56.316406 133.515625 56.316406 132.222656 L 56.316406 112.847656 C 56.363281 111.589844 57.398438 110.59375 58.660156 110.59375 C 59.921875 110.59375 60.957031 111.589844 61.003906 112.847656 L 61.003906 132.222656 C 61.003906 133.515625 59.957031 134.5625 58.664062 134.5625 M 17.125 109.078125 L 2.347656 109.078125 C 1.089844 109.03125 0.09375 107.996094 0.09375 106.734375 C 0.09375 105.472656 1.089844 104.4375 2.347656 104.390625 L 16.496094 104.390625 L 23.777344 100.195312 C 24.132812 99.984375 24.539062 99.875 24.953125 99.875 L 37.148438 99.875 C 38.40625 99.921875 39.402344 100.957031 39.402344 102.21875 C 39.402344 103.476562 38.40625 104.511719 37.148438 104.5625 L 25.574219 104.5625 L 18.289062 108.761719 C 17.9375 108.96875 17.539062 109.078125 17.128906 109.078125 M 37.144531 50.136719 L 24.949219 50.136719 C 24.539062 50.136719 24.132812 50.027344 23.777344 49.820312 L 16.492188 45.617188 L 2.34375 45.617188 C 1.050781 45.605469 0.0078125 44.558594 0 43.265625 C 0 41.972656 1.050781 40.925781 2.34375 40.925781 L 17.121094 40.925781 C 17.535156 40.925781 17.9375 41.035156 18.292969 41.242188 L 25.578125 45.4375 L 37.152344 45.4375 C 38.449219 45.441406 39.5 46.496094 39.496094 47.792969 C 39.492188 49.09375 38.4375 50.140625 37.140625 50.140625 M 37.144531 93.675781 L 17.765625 93.675781 C 16.910156 93.707031 16.101562 93.269531 15.660156 92.53125 C 15.222656 91.792969 15.222656 90.871094 15.660156 90.132812 C 16.101562 89.394531 16.910156 88.957031 17.765625 88.988281 L 37.140625 88.988281 C 38.402344 89.039062 39.398438 90.070312 39.398438 91.332031 C 39.398438 92.59375 38.402344 93.628906 37.140625 93.675781 M 37.144531 82.785156 L 11.3125 82.785156 C 10.070312 82.71875 9.09375 81.6875 9.09375 80.441406 C 9.09375 79.195312 10.070312 78.167969 11.3125 78.101562 L 37.144531 78.101562 C 38.402344 78.148438 39.398438 79.183594 39.398438 80.445312 C 39.398438 81.703125 38.402344 82.738281 37.144531 82.789062 M 37.144531 71.898438 L 11.3125 71.898438 C 10.054688 71.851562 9.058594 70.816406 9.058594 69.554688 C 9.058594 68.296875 10.054688 67.261719 11.3125 67.210938 L 37.144531 67.210938 C 38.402344 67.261719 39.398438 68.296875 39.398438 69.554688 C 39.398438 70.816406 38.402344 71.851562 37.144531 71.898438 M 37.144531 61.011719 L 17.765625 61.011719 C 16.507812 60.960938 15.511719 59.929688 15.511719 58.667969 C 15.511719 57.40625 16.507812 56.371094 17.765625 56.324219 L 37.140625 56.324219 C 38.402344 56.371094 39.398438 57.40625 39.398438 58.667969 C 39.398438 59.929688 38.402344 60.960938 37.140625 61.011719 "
  />
</svg>
