<svg id="root" xmlns="http://www.w3.org/2000/svg" width="180" height="180" viewBox="100 0 1600 1600">
  <path
    d="M549 1094 c-195 -213 -355 -389 -356 -393 -2 -3 53 -91 121 -196 l124 -190 464 -3 464 -2 119 187 c65 103 118 193 119 199 1 11 -683 782 -695 783 -4 1 -166 -173 -360 -385z m510 -43 c78 -172 141 -317 141 -322 0 -5 -132 -9 -296 -9 -162 0 -293 3 -291 8 2 4 68 152 148 329 79 177 147 319 151 315 4 -4 70 -148 147 -321z m-377 -42 l-128 -284 -138 -3 -138 -3 43 50 c100 112 484 529 487 527 1 -2 -56 -131 -126 -287z m578 6 c123 -137 232 -260 243 -272 l20 -23 -129 0 -130 0 -124 278 c-68 152 -126 282 -128 287 -7 16 10 -3 248 -270z m-622 -493 c45 -81 82 -151 82 -155 0 -4 -56 -7 -125 -7 l-125 0 -93 143 c-51 78 -96 148 -101 155 -6 9 24 12 136 12 l143 0 83 -148z m526 81 c-20 -38 -59 -108 -86 -156 l-50 -88 -121 3 -122 3 -82 145 c-45 80 -82 148 -82 153 -1 4 130 7 290 7 l291 0 -38 -67z m354 45 c-8 -13 -52 -83 -98 -155 l-84 -133 -123 0 c-69 0 -122 3 -120 7 2 5 41 74 86 156 l83 147 135 0 135 0 -14 -22z">
  </path>
</svg>