<svg xmlns="http://www.w3.org/2000/svg" id="root" viewBox="0 0 150 273">
  <path
    d="M 122.027344 214.773438 L 114.03125 214.773438 L 113.03125 244.558594 L 111.90625 214.773438 L 103.910156 214.773438 L 103.910156 168.667969 L 122.027344 168.667969 Z M 48.050781 208.292969 L 40.054688 208.292969 L 39.054688 234.835938 L 37.804688 208.292969 L 29.933594 208.292969 L 29.933594 168.667969 L 48.050781 168.667969 Z M 86.789062 43.179688 C 86.789062 49.71875 81.472656 55.019531 74.917969 55.019531 C 68.363281 55.019531 63.046875 49.71875 63.046875 43.179688 C 63.046875 36.640625 68.363281 31.34375 74.917969 31.34375 C 81.472656 31.34375 86.789062 36.640625 86.789062 43.179688 M 134.148438 33.710938 L 134.148438 14.894531 C 134.148438 6.683594 127.511719 0.0078125 119.277344 -0.0625 L 29.933594 -0.0625 C 21.703125 0.0078125 15.0625 6.683594 15.0625 14.894531 L 15.0625 33.585938 L 0.0703125 33.585938 L 0.0703125 168.667969 L 21.8125 168.667969 L 21.8125 216.394531 L 30.058594 216.394531 L 31.933594 260.382812 L 46.054688 260.382812 L 47.925781 216.394531 L 56.175781 216.394531 L 56.175781 168.667969 L 95.785156 168.667969 L 95.785156 222.875 L 104.035156 222.875 L 105.90625 272.96875 L 120.027344 272.96875 L 121.902344 222.875 L 130.148438 222.875 L 130.148438 168.667969 L 149.890625 168.667969 L 149.890625 33.710938 Z M 134.148438 33.710938 "
  />
</svg>
