<svg xmlns="http://www.w3.org/2000/svg" viewBox="0 0 4830 4860">
  <path
    d="M1210 3645C547 2982 4 2437 2 2432c-1-4 542-551 1208-1217L2420 5l238 238 237 237h101c55 0 183 3 282 7l182 6 1 276v276l685 689c376 380 684 693 684 696 0 9-2400 2420-2409 2420-3 0-548-542-1211-1205zm1850-1295V650h-280v398c-1 1432-74 2192-244 2548-79 164-144 215-286 222-82 4-87 3-118-23-79-66-93-131-101-470l-6-280h-230l-3 503-2 502h1270V2350zm-1024 593c15-69 28-95 62-122 35-30 46-34 130-46l42-7v-197l-57-11c-32-6-71-16-86-22-45-17-77-69-90-142l-11-65-60-6c-34-4-88-5-121-3l-60 3-6 55c-7 66-28 109-69 143-27 23-51 30-140 39-25 3-25 3-25 108v105l60 5c33 3 70 11 81 17 43 24 82 81 89 128l7 45h248l6-27zm-566-272v-99l-197-4c-109-2-204-2-210 0-9 3-13 33-13 103v99h420v-99z"
    fill="#000000"
  />
</svg>
