<svg xmlns="http://www.w3.org/2000/svg" id="root" viewBox="0 0 1270 1140">
  <path
    d="M585 1105c61-358 139-710 184-827 10-27 12-28 90-28 143 0 240 31 317 102 62 56 84 106 84 189 0 115-54 194-170 248-46 21-69 25-140 25-82-1-170-17-170-32 0-4 12-27 27-52 14-25 39-67 54-95l29-50v60c0 74 18 105 61 105 93 0 197-135 187-242-6-56-31-89-92-120-50-26-140-35-162-18-35 30-106 200-225 540-44 124-77 212-74 195zM265 876c-79-20-120-41-171-88-62-57-84-105-84-191 0-114 53-192 165-243 67-30 141-38 223-24 104 17 103 15 41 120l-54 91-5-59c-6-69-21-92-62-92-40 0-79 22-118 66-73 84-92 187-44 244 36 43 97 71 164 77 52 5 58 3 77-21 30-38 109-230 190-461 99-283 94-270 87-210-16 142-122 629-162 745l-19 55-89 2c-49 1-111-4-139-11z"
  />
</svg>
