<svg xmlns="http://www.w3.org/2000/svg" id="root" viewBox="0 0 3290 3850">
  <path
    d="M1500 3840c-87-8-138-15-245-39-198-42-487-187-655-327-50-42-171-163-210-209-181-217-298-460-357-744-22-108-26-152-27-306 0-106 5-211 13-255 24-140 70-305 109-391 11-24 27-60 35-79 21-45 70-132 106-184 16-23 38-57 49-76s90-147 176-284c86-136 156-250 156-253 0-2 18-30 39-62 22-32 49-75 61-97 95-171 247-323 410-411C1315 40 1449 7 1635 6c185 0 295 25 460 105 197 96 307 212 502 529 22 36 62 101 90 145 27 44 103 166 168 270 65 105 130 208 145 230 100 146 179 324 228 515 40 154 47 212 46 410 0 209-15 316-68 480-45 141-77 214-160 362-68 121-251 330-381 435-213 172-498 298-775 342-93 15-279 20-390 11zm315-175c26-5 111-86 162-155 90-121 207-393 230-534l6-39-29 8c-48 13-158 24-359 36-181 10-292 7-642-18-43-3-63-1-63 7 0 28 95 288 132 362 102 204 219 319 343 338 39 6 180 3 220-5zm260-54c42-12 177-67 236-96 130-66 261-164 374-279 69-70 175-198 175-211 0-2 13-24 29-48 65-95 165-326 149-342-3-4-26 6-50 22-23 15-52 33-63 39s-41 23-66 37c-101 57-281 123-459 168-71 18-94 28-100 44-7 20-15 46-40 135-7 25-16 54-20 65s-13 36-20 55c-38 110-124 276-181 352-48 65-53 85-15 73 11-3 35-10 51-14zm-862-7c3-4-12-33-35-66-86-127-172-334-234-561-18-65-15-63-139-97-178-48-347-120-474-202-80-51-91-55-91-35 0 55 170 394 219 437 4 3 19 23 36 45 45 61 187 198 268 258 101 76 200 132 320 183 106 44 119 48 130 38zm642-794c185-13 380-41 396-57 30-30 63-495 48-672-11-133-43-334-67-423-20-72-14-69-192-95-145-20-618-24-760-5-173 23-158 16-175 75-28 98-59 279-76 444-12 125-4 309 23 528 18 151 22 162 66 169 256 41 495 53 737 36zm599-101c345-100 576-248 636-406 19-50 22-72 17-164-2-58-9-114-15-125-16-30-122-131-177-168-98-65-317-161-450-196-16-5-56-15-88-24s-62-14-67-11c-7 4-6 16 20 135 55 263 62 552 21 908-4 35-5 65-2 67 8 9 34 5 105-16zm-1569 0c4-5 2-47-4-92-37-271-29-602 22-859 13-65 21-120 19-123-8-8-43-6-76 5-175 56-236 79-326 122-129 62-209 118-282 197l-56 60-7 90c-8 102-1 158 27 218 67 143 292 283 603 377 62 18 72 19 80 5zm-580-910c127-93 331-179 590-251 55-16 61-22 75-76 25-94 101-332 120-377 4-11 13-36 20-55s16-44 20-55c5-11 29-74 55-140s53-133 60-150c8-16 43-95 78-175 36-80 84-185 107-233s40-90 37-93-34 4-69 14c-143 45-279 130-372 233-46 51-126 161-126 174 0 3-20 36-44 73-48 74-157 249-258 412-36 58-88 142-116 188-167 267-187 304-233 445-30 92-35 117-21 117 4 0 39-23 77-51zm2745-11c-33-116-93-252-142-325-15-23-28-45-28-49 0-3-20-35-45-70-25-34-48-71-52-81s-26-47-49-83-72-114-109-175c-37-60-89-144-115-185s-76-122-111-179c-147-239-300-368-509-430-138-41-145-38-107 42 114 235 204 441 286 652 24 61 47 119 51 130s13 36 20 55 16 44 20 55c12 28 65 196 100 315 18 60 26 68 69 76 20 3 50 10 66 15 17 5 64 18 105 30 174 49 381 145 486 224 80 60 87 59 64-17zm-1705-310c170-16 426-15 595 1 185 18 250 23 250 19 0-10-61-212-79-263-12-33-29-80-37-105s-19-54-24-65c-4-11-18-47-30-80s-28-73-35-90c-8-16-23-55-35-85s-32-78-46-108c-13-29-24-55-24-57 0-4-21-51-90-200-71-154-114-235-125-232-11 4-32 44-133 262-83 176-122 264-122 270 0 3-9 27-21 53-23 52-37 85-50 120-5 12-13 32-18 45-5 12-19 49-31 82s-26 69-31 80c-36 84-119 362-111 370 4 4 20 4 37 1 16-3 89-11 160-18z"
  />
</svg>
