<svg xmlns="http://www.w3.org/2000/svg" id="root" viewBox="0 0 5210 4900">
  <path
    d="M2980 4891c0-3-20-121-45-261-24-140-78-451-120-690-41-239-77-444-80-456-4-20-10-21-127-20l-123 1-22 125c-12 69-51 294-87 500-156 892-137 800-166 800-53 0-330-79-330-94 0-2 109-303 242-668 132-365 243-672 245-683 2-16-8-25-50-45l-54-25-83 145c-46 80-143 249-216 375-249 433-426 740-429 743-9 10-295-193-295-210 0-5 114-145 252-311 236-283 319-381 575-684l101-121-42-41c-23-22-45-41-50-41-7 0-81 61-478 397-87 73-231 195-320 270-90 75-196 166-237 201l-74 64-29-33c-43-51-178-252-178-265 0-11 69-53 635-379 160-92 315-182 345-199 30-18 101-59 158-91s105-62 107-66c3-4-6-31-20-62l-25-54-283 104c-436 161-1075 393-1081 393-14 0-107-343-95-353 2-2 281-52 619-112 338-59 620-112 625-117 6-6-298-9-810-7-538 1-829-2-845-9-33-13-56-39-75-85-30-73 16-165 95-188 23-7 846-9 2515-7l2480 3 35 22c19 12 43 35 53 51 35 62 13 155-48 192-32 20-48 20-861 20-459 0-824 4-819 9 6 4 287 57 625 116s618 110 622 114c11 10-68 329-88 350-1 2-160-54-351-124-616-225-917-336-967-354l-50-18-23 49c-29 62-29 72 1 86 12 5 153 85 312 177s390 226 514 298c217 125 391 227 399 233 6 6-101 171-156 240l-51 65-139-118c-77-65-204-172-284-239-79-67-218-184-309-260-91-77-214-181-275-232l-109-92-45 44-44 45 103 123c57 68 206 245 330 393 124 149 288 343 363 433s137 167 137 171c0 8-100 84-195 148-111 74-92 83-188-85-47-81-169-293-272-472s-228-396-277-482c-50-87-95-158-100-158s-31 11-58 25l-50 25 15 38c40 101 477 1309 478 1321 2 15-62 40-187 72-104 26-166 38-166 30zM950 2485c-69-13-198-36-287-51-112-19-163-32-163-40 0-39 71-304 89-333 7-11 45-1 203 57 106 39 324 119 483 177 160 59 355 130 435 160l145 54h-390c-368-1-397-2-515-24zM1990 2485c19-51 81-136 141-195 58-57 167-130 217-145 12-3 22-12 22-19s-65-192-145-412c-81-219-238-651-350-959s-206-567-210-576c-11-28 309-117 555-154 232-35 591-30 840 11 179 30 490 115 490 135 0 8-330 918-676 1866l-33 92 81 43c121 63 237 178 297 296l21 42H1980l10-25zm774-76c21-16 26-29 26-62 0-43-35-135-47-124-3 4-5 32-4 62 1 37-5 71-18 100-19 43-19 45-2 45 10 0 30-9 45-21zm-144-6c-1-44-49-56-64-17-9 23 2 34 35 34 21 0 29-5 29-17zm-36-174c38-18 74-119 42-119-40 0-126 95-110 122 7 11 39 10 68-3zm0-407c1-66-1-76-23-93-13-10-34-19-47-19-72 0-124-53-124-128 0-40 36-109 55-105 6 1 14 20 19 42 7 34 14 41 39 47 23 5 34 2 44-12 22-30 15-62-28-127-40-60-41-64-35-127 9-96 24-138 62-177 28-28 34-41 32-66l-3-32-72 3c-67 3-73 1-88-22-23-35-21-116 6-199 19-59 20-71 9-93-8-13-24-27-36-30-23-6-57-61-47-77 3-6 38-7 79-3 71 7 75 6 83-16 22-60 22-65-4-82-24-15-26-15-42 4-33 38-49 26-68-50-9-39-21-70-26-70-22 0-58 33-68 62-18 50-13 106 19 233 23 92 30 142 30 217 0 114 5 130 64 203 25 30 50 73 56 96 11 39 9 49-26 131-21 50-55 111-76 138-52 66-56 95-24 167 32 69 61 102 139 154l57 40 1 112v112l21-80c11-44 21-113 22-153zm158-10c0-202-7-219-39-101-23 82-25 272-4 309l14 25 15-34c10-25 14-81 14-199zm19-280c57-51 69-192 22-260l-18-27-5 85c-8 116-19 137-81 145-27 4-49 10-49 14 0 15 33 53 54 61 34 14 44 12 77-18zm72-386c10-49 16-90 14-92s-20 2-40 8c-28 8-43 8-62 0-14-7-37-12-50-12-22 0-25 5-25 35 0 26 9 45 34 72 18 21 39 48 45 61 9 17 19 22 39 20 25-3 28-8 45-92zm-243-281c0-9 11-26 23-38 20-18 25-36 30-99 8-96 1-98-77-27-50 45-56 55-56 90 0 29 7 47 25 64 27 28 55 33 55 10zm125-32c23-11 34-22 30-31-3-7-5-18-5-23 0-9-49-2-62 10-4 3-10 18-13 34-8 32 0 34 50 10zm85-195c0-13-39-58-51-58-10 0-19 39-12 56 6 17 63 19 63 2zm-256-250c-5-25-2-28 38-38 64-16 68-18 68-32 0-8-7-23-14-34-15-21-11-64 4-64 5 0 19 19 32 42 15 27 32 44 51 49 38 10 34-4-18-60-67-72-84-78-134-50-74 41-116 131-87 188 31 59 73 58 60-1zM3430 2484c123-48 1181-434 1189-434 14 0 110 346 99 355-2 1-50 10-108 20-58 9-190 32-295 51l-190 34-380-1h-380l65-25z"
  />
  <path
    d="M1640 2217c-146-85-403-233-572-331-170-98-308-183-308-189 0-19 192-297 205-297 2 0 68 55 148 123 79 67 283 239 452 382 356 300 409 345 413 356 3 8-60 109-68 109-3 0-124-69-270-153zM3268 2318c-20-28-35-56-32-60s233-200 511-434l505-427 24 29c35 41 184 263 184 273 0 5-42 32-92 62-51 29-307 176-568 327s-480 276-485 279c-6 2-27-20-47-49zM3073 2121c-29-20-52-39-53-44 0-4 61-114 136-245 75-130 189-327 252-437 294-512 271-476 295-464 69 37 277 189 277 204 0 3-80 101-177 217-160 190-577 686-649 772l-29 33-52-36zM1924 1958c-89-106-199-238-245-293-47-55-167-198-267-317l-183-218 106-77c58-43 127-90 153-105l48-27 90 157c50 86 200 348 334 581 134 234 239 426 232 429-6 2-29 16-51 33-23 16-44 29-48 29-5 0-81-87-169-192z"
  />
</svg>