<svg xmlns="http://www.w3.org/2000/svg" id="root" viewBox="0 0 150 140">
  <path
    d="M 18.722656 98.261719 C 15.945312 94.769531 11.257812 93.414062 7.042969 94.886719 C 2.828125 96.355469 0.00390625 100.332031 0.00390625 104.792969 C 0.00390625 109.253906 2.828125 113.230469 7.042969 114.699219 C 11.257812 116.171875 15.945312 114.816406 18.722656 111.324219 L 32.964844 111.324219 L 32.964844 98.261719 Z M 18.722656 98.261719 "
  />
  <path
    d="M 18.722656 63.476562 C 15.945312 59.984375 11.257812 58.632812 7.042969 60.101562 C 2.828125 61.574219 0.00390625 65.546875 0.00390625 70.007812 C 0.00390625 74.472656 2.828125 78.445312 7.042969 79.917969 C 11.257812 81.386719 15.945312 80.03125 18.722656 76.539062 L 32.964844 76.539062 L 32.964844 63.476562 Z M 18.722656 63.476562 "
  />
  <path
    d="M 18.722656 28.695312 C 15.945312 25.203125 11.257812 23.847656 7.042969 25.316406 C 2.828125 26.789062 0.00390625 30.761719 0.00390625 35.226562 C 0.00390625 39.6875 2.828125 43.664062 7.042969 45.132812 C 11.257812 46.605469 15.945312 45.25 18.722656 41.757812 L 32.964844 41.757812 L 32.964844 28.695312 Z M 18.722656 28.695312 "
  />
  <path
    d="M 131.277344 111.25 C 134.054688 114.742188 138.742188 116.097656 142.957031 114.625 C 147.171875 113.15625 149.996094 109.179688 149.996094 104.71875 C 149.996094 100.257812 147.171875 96.28125 142.957031 94.8125 C 138.742188 93.339844 134.054688 94.695312 131.277344 98.1875 L 117.035156 98.1875 L 117.035156 111.25 Z M 131.277344 111.25 "
  />
  <path
    d="M 131.277344 76.523438 C 134.054688 80.015625 138.742188 81.367188 142.957031 79.898438 C 147.171875 78.425781 149.996094 74.453125 149.996094 69.992188 C 149.996094 65.527344 147.171875 61.554688 142.957031 60.082031 C 138.742188 58.613281 134.054688 59.96875 131.277344 63.460938 L 117.035156 63.460938 L 117.035156 76.523438 Z M 131.277344 76.523438 "
  />
  <path
    d="M 131.277344 41.738281 C 134.054688 45.230469 138.742188 46.585938 142.957031 45.113281 C 147.171875 43.644531 149.996094 39.667969 149.996094 35.207031 C 149.996094 30.746094 147.171875 26.769531 142.957031 25.300781 C 138.742188 23.828125 134.054688 25.183594 131.277344 28.675781 L 117.035156 28.675781 L 117.035156 41.738281 Z M 131.277344 41.738281 "
  />
  <path
    d="M 98.019531 22.089844 C 95.261719 22.089844 93.023438 19.855469 93.023438 17.101562 C 93.023438 14.34375 95.261719 12.109375 98.019531 12.109375 C 100.773438 12.109375 103.011719 14.34375 103.011719 17.101562 C 103.011719 19.855469 100.773438 22.089844 98.019531 22.089844 M 109.25 0.0742188 L 40.675781 0.0742188 C 37.078125 0.0742188 34.214844 3.011719 34.214844 6.53125 L 34.214844 133.339844 C 34.214844 137.007812 37.152344 139.941406 40.675781 139.941406 L 109.25 139.941406 C 112.871094 139.902344 115.785156 136.957031 115.785156 133.339844 L 115.785156 6.53125 C 115.746094 2.914062 112.796875 0 109.175781 0 "
  />
</svg>
