<svg xmlns="http://www.w3.org/2000/svg" viewBox="0 0 1900 1160">
  <path
    d="M6 1151c5-4 89-70 187-145l177-137-35-43c-19-23-47-69-62-102-26-54-28-69-28-174 0-109 2-119 32-183C352 209 522 86 752 23c92-26 366-25 462 1 284 76 472 249 506 464 19 117-24 261-105 351-22 24-34 45-29 50 5 4 72 61 149 126 209 176 213 176-71 11l-152-87-53 34c-61 39-158 79-251 104-49 14-101 18-233 17-155 0-178-3-258-27-87-27-188-72-239-108-14-11-32-19-38-19-7 0-107 50-223 110C16 1155-16 1170 6 1151zm1114-141c120-19 324-101 303-121-22-22-344-201-378-210-21-6-57-8-79-5-38 7-435 204-436 217 0 12 116 68 187 89 131 40 273 50 403 30zm449-246c56-78 74-138 70-232-5-102-40-174-127-259-222-219-664-257-959-82-79 47-162 133-198 204-27 54-30 69-30 155 0 84 3 101 28 150 36 71 73 114 92 106 8-3 71-49 139-101 186-144 188-164 36-325-54-57-98-106-96-107 1-1 107 25 235 57 268 68 220 69 498-11 94-27 175-49 178-49 4 0-32 43-80 96-155 171-153 194 28 349 67 57 127 105 134 105s30-25 52-56z"
  />
</svg>