<svg xmlns="http://www.w3.org/2000/svg" viewBox="0 0 5010 3870">
  <g fill="#000000">
    <path
      d="M1913 3805c-37-30-73-55-80-55-13 0-53-39-53-52 0-4 73-8 163-9 89 0 171-4 182-9 18-7 17-9-15-23-58-25-145-37-335-47-99-5-214-14-255-20-76-12-181-55-188-77-2-7 20-19 52-29 63-20 66-27 41-107-12-42-12-77 2-77 2 0 23 11 46 24 75 44 169 74 397 131 257 63 357 100 441 161 54 40 59 47 59 82 0 28-7 45-24 61-31 29-256 101-318 101-42 0-54-6-115-55zM2874 3831c-92-24-200-76-220-107-15-22-15-26 0-48 25-39 75-72 187-125 137-64 172-74 380-115 193-38 263-61 333-107 26-17 49-29 53-26 3 4-2 35-12 71s-15 71-12 79c3 9 21 18 39 22 96 21 68 63-58 89-39 8-173 22-300 31-232 16-275 22-351 45-92 28-28 53 127 49 174-4 190-2 190 20 0 13-16 25-52 41-29 12-72 40-95 61-38 34-48 39-90 38-27 0-80-9-119-18z"
    />
    <path
      d="M1050 3485c-123-25-209-65-277-128-43-39-77-90-68-99 3-2 58 2 122 10 118 13 296 13 310-1 4-5 8-63 8-130 1-67 5-132 9-145l7-22 29 20c42 30 114 144 144 227 27 76 55 237 43 249-12 13-141 33-202 33-33-1-89-7-125-14zM3735 3475c-5-2-29-9-52-15-40-10-43-13-43-44 0-107 90-323 166-399 25-26 51-47 55-47 5 0 9 24 9 53 0 30 3 95 6 145l7 91 50 12c50 12 202 8 330-9 32-5 60-5 63 0 10 15-101 114-156 140-117 56-179 70-305 74-66 2-124 2-130-1zM2335 3340c-341-28-708-187-955-415-299-275-463-565-535-945-22-115-31-399-16-525C901 842 1345 303 1953 91c315-110 718-114 1055-10 417 128 761 429 972 849 162 324 211 643 154 1010-94 608-534 1134-1105 1320-208 67-476 99-694 80zm400-175c307-53 625-221 837-443 283-297 418-638 418-1060 0-403-148-759-434-1046-210-209-420-332-703-408-116-31-123-32-343-32-180-1-243 3-315 17-306 63-564 198-772 405-112 113-182 210-262 363-69 134-102 218-137 355-23 86-27 126-31 300-5 177-3 213 16 313 59 304 192 574 384 777 237 251 546 414 887 467 71 12 372 6 455-8z"
    />
    <path
      d="M2655 3066c-27-20-15-51 20-51 23 0 31 5 33 22 4 29-28 47-53 29zM1641 2826c-16-19 2-56 28-56 28 0 47 28 34 48-13 22-47 27-62 8zM1942 2738c-28-28-3-72 39-66 30 4 47 33 33 56-14 21-55 27-72 10zM2600 2731c-7-15-6-23 6-35 19-20 29-20 48 0 19 19 20 26 4 42-18 18-46 14-58-7zM2504 2686c-11-28 1-51 27-54 31-4 44 19 29 49-12 22-48 25-56 5zM2762 2678c-34-34 6-90 48-68 35 19 20 80-20 80-9 0-21-5-28-12zM1833 2664c-8-22 10-49 32-49 10 0 22 7 28 16 15 24 1 49-28 49-15 0-28-7-32-16zM1477 2637c-8-21 8-39 29-35 27 5 25 42-2 46-12 2-24-3-27-11zM1595 2599c-10-15 1-23 20-15 9 3 13 10 10 16-8 13-22 13-30-1zM1927 2584c-27-27 20-77 49-53 23 19 13 53-16 57-14 2-29 0-33-4zM3486 2544c-20-19-20-28-1-44 18-15 45-10 59 13 9 15 7 21-8 33-25 18-31 18-50-2zM2650 2505c-20-25-8-50 25-50 21 0 31 5 33 18 4 21-14 47-33 47-7 0-18-7-25-15zM2102 2488c-46-23-39-105 10-122 76-27 125 89 53 122-30 14-33 14-63 0zM2751 2456c-17-20-4-56 18-56 28 0 47 28 34 48-14 23-37 26-52 8zM1698 2418c-9-23 3-38 29-38 20 0 24 4 21 23-3 25-42 37-50 15zM2612 2418c-19-19-14-45 10-62 19-13 25-14 43-2 25 16 31 42 15 61-15 18-52 19-68 3zM1226 2404c-20-19-20-29 0-48 12-12 20-13 35-6 23 13 25 55 3 64-21 8-20 8-38-10zM1543 2388c-62-31-36-137 35-138 30 0 72 43 72 73 0 51-61 88-107 65zM1873 2373c-12-4-19-63-9-63 2 0 11-3 19-6 14-5 47 20 47 36 0 11-29 40-38 39-4 0-13-3-19-6zM1758 2339c-22-12-23-52-3-69 19-16 45-9 62 17 13 19 12 24-6 42-24 24-29 25-53 10zM2442 2324c-26-18-29-56-6-78 29-29 75-13 88 30 13 42-43 75-82 48zM2040 2309c-20-37 28-67 58-37 16 16 15 23-4 42-21 22-41 20-54-5zM2961 2202c-6-33-20-71-31-85-19-24-95-57-132-57-10 0-18-5-18-11s8-8 18-5c9 2 47 7 84 11s72 13 78 20c10 12 15 12 34 0 13-8 58-17 102-20l79-5-55 15c-84 24-102 41-126 125l-21 73-12-61zM2313 2183c-19-7-16-40 4-47 9-4 23 0 31 8 13 12 13 18 2 30-13 17-17 18-37 9zM3702 2168c-27-27-6-68 35-68 29 0 48 33 33 60-12 22-49 27-68 8zM1787 2153c-12-11-8-40 7-52 26-22 63 10 50 44-6 15-45 21-57 8zM1903 2149c-15-15-5-46 18-52 25-7 53 31 37 50-13 16-40 17-55 2zM2653 2153c-18-7-16-40 3-47 21-8 34 1 34 24 0 19-17 30-37 23zM1186 2097c-38-27 2-95 42-71 21 14 28 50 12 70-15 17-31 18-54 1zM2011 2015c-20-100-43-166-69-196-24-30-90-55-207-79-67-14-66-15 56-43 36-9 86-25 112-37 53-25 75-67 101-194 9-44 18-81 20-83 1-2 11 36 20 84 10 49 26 107 36 131 23 51 59 70 198 104l93 22-89 22c-141 35-179 55-203 108-11 25-28 85-38 133l-18 88-12-60zm166-280c140-9 157-12 78-14-99-2-185-17-207-37-17-17-21-16-58 5-30 17-65 24-152 30-108 8-109 8-38 10 106 3 167 15 198 38l27 20 27-22c23-19 44-24 125-30z"
    />
    <path
      d="M2081 2036c-13-16-4-46 14-46 7 0 18 7 25 15 10 12 10 18 0 30-15 19-24 19-39 1zM2854 2025c67-19 82-37 108-130 21-71 26-80 47-80 32 0 49 28 32 49-8 9-22 16-33 16-17 0-19 4-13 33 17 76 29 87 110 113l40 13h-60c-33 0-71-5-85-12-20-11-30-10-50 0-14 7-52 13-85 12l-60-1 49-13zM1600 2015c-20-25-8-50 25-50 36 0 47 31 19 52-23 17-29 16-44-2zM2324 1996c-10-26 1-51 22-54 30-4 48 21 34 47-12 24-48 28-56 7zM2455 2000c-4-6-3-16 3-22s12-6 17 2c4 6 3 16-3 22s-12 6-17-2zM2770 1965c-14-17-5-51 17-59 33-13 57 36 31 62-16 16-33 15-48-3zM3310 1965c-26-31 13-82 44-56 19 16 21 42 4 59-16 16-33 15-48-3zM2546 1954c-20-20-20-27 3-55 17-22 21-22 45-10 14 8 26 22 26 32 0 21-26 49-45 49-7 0-21-7-29-16zM1140 1921c-16-31 4-63 37-59 55 7 55 69 0 76-18 2-29-3-37-17zM2252 1878c-30-30 3-77 40-57 24 13 23 46-1 59s-24 13-39-2zM2465 1840c-8-27 12-52 39-48 16 2 21 10 21 33 0 25-4 31-27 33-19 2-28-2-33-18zM3639 1814c-16-20-1-48 29-52 27-4 49 33 31 54-15 19-43 18-60-2zM1730 1804c0-9 5-14 12-12 18 6 21 28 4 28-9 0-16-7-16-16zM3146 1754c-24-23-16-48 17-52 31-4 47 20 30 46-14 23-29 25-47 6zM2769 1731c-27-22-18-58 17-67 32-8 56 12 52 44-4 34-40 46-69 23zM2449 1721c-21-16-22-22-11-45 19-42 82-31 82 14 0 16-29 50-42 50-3 0-16-8-29-19zM1482 1711c-8-4-12-19-10-32 4-34 53-40 63-8 5 16 2 26-11 36-21 15-24 16-42 4zM2962 1667c-9-10-9-18 1-31 17-23 49-11 45 18-4 25-30 32-46 13zM3057 1633c-13-12-7-51 8-57 32-12 61 17 49 49-6 15-45 21-57 8zM2077 1553c-13-12-7-41 10-47 9-4 23-1 30 7 8 7 11 21 7 30-6 17-35 23-47 10zM1268 1543c-23-6-34-49-18-68 28-34 92 0 76 40-7 18-37 32-58 28zM2433 1514c-3-8 2-23 11-32 15-15 17-15 32 0 21 21 11 48-16 48-11 0-23-7-27-16zM3756 1514c-34-33-8-82 38-70 32 8 40 42 15 67-23 23-33 24-53 3zM3351 1506c-19-23-4-56 25-56 28 0 42 25 27 49-14 22-37 25-52 7zM3122 1483c-7-3-17-14-23-25-21-39 42-78 71-43 26 31-9 81-48 68zM3242 1481c-22-14-10-56 17-59 37-6 52 26 25 52-18 18-24 19-42 7zM3573 1423c-20-7-16-61 5-71 26-15 62 3 62 31 0 38-29 56-67 40zM2671 1347c-22-106-45-129-148-152-48-10-40-22 26-41 76-21 97-44 119-131l18-72 17 71c9 40 26 81 38 94 12 12 49 30 85 40 35 9 64 20 64 24s-17 11-37 15c-58 11-107 34-121 56-8 12-21 52-31 89l-17 69-13-62zm119-165 65-10-58-1c-32 0-71-8-88-16-27-14-32-14-51 0-13 9-46 15-78 16l-55 1 60 12c33 7 69 17 79 23 15 8 25 8 40-3 12-7 50-17 86-22zM2917 1384c-15-15-7-53 13-59 27-8 52 12 48 39-3 21-46 35-61 20zM3074 1356c-11-28 1-51 28-54 31-4 48 29 28 53-16 19-49 19-56 1zM2467 1354c-15-16-7-53 14-59 30-10 58 19 43 43-12 18-45 28-57 16zM1160 1315c-20-25-8-50 25-50 21 0 31 5 33 18 4 21-14 47-33 47-7 0-18-7-25-15zM3630 1295c-25-30 10-61 38-33 17 17 15 26-7 37-14 8-22 7-31-4zM3322 1291c-8-4-12-19-10-32 4-33 53-40 63-9 11 36-22 61-53 41zM3450 1225c-17-20-5-45 20-45 11 0 23 7 26 15 6 15-11 45-26 45-4 0-13-7-20-15zM3191 1192c-11-21 3-52 24-52 26 0 46 29 35 51-13 24-46 25-59 1zM3027 1188c-21-11-22-54-2-62 31-12 61 17 49 48-8 20-27 26-47 14zM3727 1162c-34-37 8-86 53-62 26 14 26 56 1 70-27 14-35 13-54-8zM3421 1116c-15-18-3-46 20-46 25 0 35 26 19 45-15 19-24 19-39 1zM3346 1014c-9-8-16-22-16-29 0-18 27-45 45-45s45 27 45 45-27 45-45 45c-7 0-21-7-29-16zM2146 935c-9-9-16-21-16-26 0-22 22-49 40-49 21 0 50 25 50 43-1 36-49 56-74 32zM1907 934c-27-27 20-77 49-53 23 19 13 53-16 57-14 2-29 0-33-4zM3490 915c0-20 5-25 25-25s25 5 25 25-5 25-25 25-25-5-25-25zM1662 908c-27-27-6-68 35-68 29 0 48 33 33 60-12 22-49 27-68 8zM2350 735c-18-22-1-50 31-50 20 0 24 5 24 30 0 23-5 31-21 33-11 2-27-4-34-13zM3345 664c-18-19-16-33 8-48 18-11 47 0 54 21 4 12-23 43-37 43-5 0-16-7-25-16zM2230 575c-19-23-8-50 22-53 19-2 28 2 33 18 12 39-29 66-55 35zM1926 434c-23-22-20-41 9-60 24-16 27-16 45 1 11 10 20 24 20 31 0 17-28 44-45 44-7 0-21-7-29-16zM2666 424c-19-19-20-26-4-42 30-30 78 0 58 37-13 25-33 27-54 5zM2936 374c-20-20-20-27 3-55 16-21 22-22 45-11 17 8 26 19 26 35 0 44-43 62-74 31zM815 3219c-70-13-151-40-213-72-67-35-156-121-177-169-19-47-22-47 140-12 154 34 290 38 310 10 18-24 39-90 60-188 13-63 20-78 35-78 24 0 64 82 86 175 16 70 23 319 9 333-10 11-194 12-250 1zM3953 3194c-10-28 5-267 22-329 18-68 65-168 81-172 6-2 24 54 44 132 18 74 39 143 46 152 20 28 188 22 337-12 65-15 121-24 124-21 10 10-39 76-90 121-61 54-166 107-258 129-91 22-297 22-306 0z"
    />
    <path
      d="M605 2904c-145-31-285-125-379-253-74-101-153-286-144-340 3-19 22-4 135 101 169 159 270 219 388 230 27 3 32-2 57-52 15-30 44-101 65-157 20-57 40-103 44-103 24 0 55 91 70 211 12 95 2 256-22 342l-10 37-67-1c-37 0-98-7-137-15zM4212 2893c-12-22-28-113-37-208-11-125 20-287 68-350 17-22 13-32 52 125 18 71 71 179 89 181 56 6 168-31 243-80 32-21 94-71 138-112 111-103 185-163 185-151 0 23-45 153-75 217-111 234-308 367-577 390-68 6-77 5-86-12z"
    />
    <path
      d="M459 2511c-205-74-329-216-403-462-29-99-49-220-44-269 6-67 29-49 129 102 105 160 239 305 325 350l51 27 26-27c14-15 44-66 67-114 40-85 64-117 77-104 4 4 7 59 7 124-1 123-21 226-67 345-21 55-23 57-57 56-19 0-69-12-111-28zM4386 2459c-63-176-92-357-66-419l13-31 24 23c14 13 47 67 75 121s57 101 65 104c23 9 81-28 163-104 81-76 149-162 263-332 37-55 72-101 77-101 24 0-7 252-45 366-67 203-202 343-392 409-37 13-87 27-109 31l-41 6-27-73z"
    />
    <path
      d="M426 2134c-154-78-269-216-315-379-38-133-57-404-29-421 14-9 7-18 105 161 89 165 155 263 217 324l45 44 27-17c14-10 40-34 58-54 49-57 78-81 109-92l29-10-7 48c-11 81-35 162-67 231-30 64-100 175-116 185-4 2-29-6-56-20zM4493 2078c-22-35-48-78-58-97-49-97-92-281-66-281 27 0 69 32 124 94 32 36 63 66 69 66 22 0 99-73 142-133 45-64 112-192 161-310 26-63 57-98 73-82 4 4 7 68 7 143 0 240-56 395-189 527-65 65-173 135-208 135-7 0-32-28-55-62z"
    />
    <path
      d="M390 1703c-60-68-118-170-154-271-29-82-31-95-31-232 1-127 3-152 23-202 13-31 29-61 37-68 15-12 18-3 80 220 28 102 70 200 102 239 25 31 43 26 153-38 47-27 89-45 93-41 13 12-10 109-43 178-44 92-178 262-207 262-6 0-30-21-53-47zM4522 1692c-51-53-159-221-185-290-22-54-22-92-2-92 19 0 76 29 142 70 26 17 55 30 65 30 40 0 100-127 149-317 16-62 35-127 42-145l13-33 27 55c39 80 50 149 44 264-6 122-25 195-78 302-37 76-138 204-160 204-6 0-31-22-57-48z"
    />
    <path
      d="M444 1319c-36-72-54-138-64-230-15-150 17-327 76-421 25-39 58-63 74-53 6 4 10 78 11 178 1 205 11 261 51 265 15 2 58-11 97-27 108-48 128-41 97 34-18 43-223 254-276 284l-39 22-27-52zM4505 1331c-46-28-253-243-264-275-6-15-11-34-11-42 0-23 48-17 117 16 34 17 71 30 81 30 36 0 45-46 52-265 4-116 8-212 9-214 3-11 54 47 76 87 48 86 67 167 72 312 4 105 2 149-11 200-20 78-63 170-79 170-7 0-25-9-42-19z"
    />
    <path
      d="M582 983c-4-10-7-74-7-143 0-142 21-228 80-335 37-67 126-165 149-165 27 0 25 53-5 149-18 61-28 156-16 167 6 7 52-7 127-36 88-35 100-36 100-9 0 38-34 85-138 189-97 97-174 156-245 185-35 14-38 14-45-2zM4365 955c-112-60-196-132-282-245-69-90-78-107-55-114 22-7 59 4 136 39 48 23 60 25 67 14 15-24 10-113-12-190-27-98-28-113-5-117 49-10 176 178 212 313 18 69 30 236 20 289-8 43-18 44-81 11z"
    />
    <path
      d="M839 558c-7-148 113-365 228-414 46-20 53-18 53 17 0 37 2 37 96-23 81-52 143-78 184-78 38 0 38 13 1 93-36 79-62 112-163 215-126 128-270 212-363 212-29 0-35-4-36-22zM4040 541c-64-25-117-61-200-134-85-76-184-194-225-271-35-67-27-80 43-72 51 7 86 24 166 82 33 24 64 44 68 44s8-11 8-25c0-54 58-37 134 40 73 72 134 198 151 313l7 42h-54c-29-1-73-9-98-19z"
    />
  </g>
</svg>
