<svg xmlns="http://www.w3.org/2000/svg" viewBox="0 0 3400 4980">
  <g fill="#000000">
    <path
      d="M1042 4871c-59-59-116-121-128-137-192-265-311-567-369-934-34-221-37-260-33-465 7-305 46-540 134-790 26-75 100-244 128-295 15-25 33-58 41-75 37-72 203-292 228-300 9-4 17-12 17-19 0-15 38-50 63-59 9-4 17-11 17-16 0-9 172-151 184-151 3 0 30-16 59-35 28-19 68-41 89-49l36-16 15 45c32 94 147 228 231 272 27 13 73 27 102 30 46 5 54 9 54 27 0 12 5 77 10 146s12 159 15 200 8 107 11 145l5 70-118-7c-65-3-144-7-176-7l-58-1 6-62c4-35 11-87 17-116 16-84 15-299-2-357-50-176-222-160-428 39-46 45-98 101-115 126-88 130-115 173-171 284-69 135-72 143-128 310-36 110-67 245-100 441-20 120-17 501 5 640 51 321 129 579 250 824 42 87 153 286 187 336 63 94 52 88-78-44z" />
    <path
      d="M143 4433c-18-2-33-7-33-11 0-9 54-86 63-90 4-2 7-8 7-14s15-34 34-62c45-69 110-199 131-265 19-59 19-73-10-371-44-461 5-943 137-1334 35-104 139-334 196-431 28-49 85-130 94-133 4-2 8-8 8-14 0-18 171-218 234-273 139-122 180-155 192-155 7 0 14-4 16-8 7-18 143-103 250-155 148-73 303-128 461-163 116-25 133-27 185-16 86 18 161 60 196 110 27 39 30 50 30 116-1 67-5 80-43 151-105 191-248 356-337 388-97 34-163 17-244-63-43-41-130-175-130-199 0-12 115-129 157-159l32-23 14 33c8 18 30 48 50 66 97 93 268 14 278-128 7-94-38-130-164-130-100 0-225 32-337 87-52 25-97 48-100 52-3 3-25 19-49 35-54 35-49 31-136 104-73 62-270 262-318 322-103 131-173 230-207 290-8 14-25 40-37 57-54 74-197 357-243 483-38 103-61 191-92 347-21 108-23 146-23 438 0 234 5 363 17 480 10 88 22 213 28 277s13 123 16 131c7 19-22 130-46 177-10 20-30 41-45 48-24 11-158 14-232 5zM1350 4087c-104-25-156-63-185-141-19-48-17-135 3-172 6-11 25-50 43-89 17-38 44-88 59-110s39-59 54-82c38-58 148-161 190-178 51-21 119-19 168 6 47 24 152 130 173 174 8 17 20 37 26 45 15 21-32 90-108 160-52 47-58 51-68 34-24-42-88-103-116-109-42-9-103 3-127 26-12 10-25 19-30 19s-21 25-37 55c-22 44-27 64-22 101 6 56 26 78 84 95 120 33 370-53 546-189 113-88 170-141 259-242 97-111 153-182 211-270 31-47 64-96 74-110 33-45 126-213 178-320 170-346 229-597 229-965 0-255-18-426-90-870-15-88-27-203-28-255-1-81 2-102 22-143 13-26 33-52 43-58 26-14 254-25 262-12 3 5-15 45-40 89-77 135-150 296-163 361-14 68-12 97 20 283 127 749 42 1436-240 1925-16 28-32 57-36 65-21 41-83 132-133 195-67 83-245 262-327 327-122 99-339 221-495 279-213 79-307 97-399 76z" />
    <path
      d="M1466 3815c-29-43-2-86 53-87 58-2 93 59 55 96-9 9-32 16-54 16-29 0-41-6-54-25zM770 3470c0-143 22-406 46-542 34-196 125-438 222-591 43-68 127-175 209-266 57-63 167-161 181-161 4 0 23 33 42 73 32 65 35 80 35 157 0 73-4 93-29 145-71 148-96 187-175 262-30 30-41 48-37 60 4 9 11 37 17 62 5 25 19 74 29 109l19 62-44 41c-24 22-79 69-122 104l-78 63-12-26c-7-15-12-65-12-112-1-86 8-120 75-293 19-48 19-49 0-63-11-8-26-14-33-14-13 0-44 60-63 125-53 182-53 180-54 426l-1 236-49 54c-27 30-56 65-64 79-14 22-70 96-94 125-4 5-8-47-8-115zM2580 3518c22-29 40-57 40-62 0-4 13-25 28-45s48-70 72-111 50-86 59-100 21-36 28-50c14-27 21-40 69-115 17-27 50-81 73-120 58-99 62-104 101-160 20-27 44-63 54-80 55-86 245-255 287-255 15 0 11 117-5 123-7 3-16 19-19 35-9 45-73 205-119 295-66 132-119 258-137 327-28 105-66 172-131 234-92 88-222 135-372 136h-68l40-52zM1936 3420c-84-161-213-265-343-277l-58-5-19-137c-10-75-27-194-37-266-29-198-49-175 156-175h176l-6 38c-3 21-6 122-7 223-3 211 9 269 64 333 75 87 205 50 353-99 218-220 397-640 454-1068 14-101 14-503 0-604-39-295-136-612-267-872-15-29-33-65-40-80-7-14-17-33-22-41s-30-51-56-95-65-103-86-132-38-55-38-60c0-4-12-19-27-35-36-37-24-45 24-15 40 26 204 192 238 242 11 16 29 40 41 54 36 45 95 143 139 231 64 128 71 146 114 265 173 487 197 1051 65 1544-69 261-197 519-339 685-27 33-59 70-70 83-65 77-204 196-300 258-33 21-65 42-71 47-8 6-21-8-38-42z" />
    <path
      d="M1983 3042c-39-60-73-153-73-197 0-48 53-205 95-282 39-70 38-70 91-131l37-42-14-48c-7-26-26-81-41-122l-28-75 115-113 115-114 18 39c13 28 17 63 16 138 0 86-5 113-32 190-38 106-39 119-10 139 35 25 43 12 78-120 42-154 47-330 19-567l-11-88 36-44c20-24 36-46 36-50 0-3 17-29 38-58s50-71 63-94c13-24 27-43 32-43 4 0 7 136 7 303 0 329-12 449-66 641-45 161-151 387-220 469-13 16-24 33-24 38 0 9-114 139-202 231l-45 47-30-47zM7 2483c-13-12-7-71 7-76 7-3 16-21 19-41 3-19 13-52 22-73 40-89 87-183 125-248 70-122 142-268 157-320 45-155 157-270 308-318 57-18 231-33 264-22 20 6 19 9-21 56-42 50-67 85-208 292-45 66-85 124-91 130-5 7-20 29-34 49-60 93-147 212-157 216-5 2-8 9-8 15 0 14-155 186-220 244-51 46-153 106-163 96zM1916 1279c-32-25-33-49-3-77s71-28 97 0c26 29 26 63-2 82-31 22-60 20-92-5z" />
  </g>
</svg>