<svg xmlns="http://www.w3.org/2000/svg" viewBox="0 0 2620 1490">
  <g fill="#000000">
    <path
      d="m1267 1308-47-188V700l45-22 44-22 51 24 50 23v206l-1 206-47 190-48 190-47-187zM1802 1100l3-112 190-99c105-54 195-99 200-99 6 0 54 24 107 53l97 53-291 154c-160 85-295 157-300 158l-9 4 3-112zM550 1064c-140-75-270-144-289-153l-34-18 102-52 102-52 13 3c7 2 94 46 194 98l182 95v215h-7c-5 0-123-61-263-136zM8 878 5 768l10-8c6-4 124-67 264-140l254-134 104 53 103 52v16l-142 74c-79 40-243 125-365 189L11 987 8 878zM850 878c-113-60-225-119-250-132l-44-24 110-55 110-55 142 75 142 75v114c0 63-1 113-2 113-2-1-95-51-208-111zM1560 878V764l148-76 147-77 107 56 107 57-87 46c-48 25-162 85-254 134l-168 87V878zM2316 831c-164-87-329-173-367-192-38-18-69-35-69-38 0-7 201-111 213-111 4 0 124 61 267 136l260 136v114c0 63-1 114-2 113-2 0-137-71-302-158zM1090 635V530h5c3 0 16 6 28 14 12 7 55 33 96 56l73 42-91 49c-50 27-96 49-101 49h-10V635zM1426 693l-89-46 18-13c10-7 53-32 96-54l79-41v201h-7c-5-1-48-22-97-47zM1210 574c-52-31-97-57-99-59s43-27 100-55l104-52 102 58 102 58-101 53c-56 29-104 53-107 53-3-1-49-26-101-56zM662 533c-57-30-101-57-99-59s102-55 221-118l217-113 142 74c78 41 143 76 145 77 1 2-45 28-104 59l-107 56-39-20-39-20-113 61c-63 33-115 60-117 59s-50-26-107-56zM1740 529l-115-60-42 22c-23 11-46 19-51 18-4-2-52-28-105-58l-97-54 147-78 147-77 126 66c69 36 169 89 222 117l97 51-107 56-107 57-115-60zM1263 359c-18-12-33-23-33-25 0-3 19-80 42-172l42-167 36 145c20 80 40 157 43 172l7 27-39 21c-50 25-58 25-98-1z" />
  </g>
</svg>