<svg xmlns="http://www.w3.org/2000/svg" viewBox="0 0 710 640">
  <path
    d="M334 629c-4-7-9-55-10-107-4-104-17-132-61-132-32 0-29-10 12-50 36-35 36-35 33-115-3-71-5-80-23-83-15-2-36 21-90 98-38 55-72 100-76 100-3 0-14-9-24-20-20-22-25-12 74-151 12-17 11-19-5-19-11 0-39 24-64 55-25 30-52 55-60 55-17 0-40-19-40-31C0 208 155 20 172 20c18 0 6 28-22 55-17 16-30 32-30 37 0 4 27 8 60 8h60V81c0-26 5-41 16-45 26-10 32-7 38 20 9 36 30 24 34-19 3-35 5-37 38-37s34 1 34 40c0 22 5 40 10 40 6 0 10-11 10-25 0-21 5-25 29-25 28 0 30 3 33 42l3 43 48 3c58 4 62-11 12-59-34-34-45-59-25-59 15 0 40 26 86 86 22 28 53 69 71 91 33 40 32 46-3 76-22 18-22 18-60-37-22-30-50-60-63-66-29-13-27-6 28 85 45 73 48 85 26 85-7 0-18 7-23 16-7 12-15 8-44-28-19-24-52-70-73-102-40-63-51-62-55 4-6 73-1 89 40 126 22 21 40 41 40 45s-19 9-42 11l-43 3-3 118c-2 92-6 117-16 117-8 0-21 3-29 6s-18 0-23-7z"
    fill="#000000" />
</svg>