<svg xmlns="http://www.w3.org/2000/svg" viewBox="1296.54 50 8206.47 10700">
  <path
    d="m5260 10098-135-653-35-3c-111-9-367-46-491-71-593-121-1154-373-1629-731-64-48-138-106-164-129-28-24-55-40-63-37s-326 225-706 492c-381 268-705 496-721 507-28 20-27 18 11-34 314-426 955-1295 981-1332l34-47-94-118c-420-522-708-1144-829-1792-79-420-90-912-29-1325 162-1101 760-2083 1657-2722 568-404 1227-655 1923-731l154-17 136-653c74-358 137-652 140-652s66 294 140 653l136 652 74 7c1050 105 1958 558 2654 1323 496 545 841 1240 977 1965 79 420 90 912 29 1325-110 746-421 1446-892 2009-32 39-58 72-58 75s214 296 476 651c642 871 582 787 548 763-16-11-340-239-721-507-380-267-698-488-705-491s-56 29-108 72c-374 304-829 552-1295 705-252 83-542 145-826 177l-154 17-135 652c-74 359-137 652-140 652s-66-294-140-652zm-234-1125c-2-10-170-818-372-1795l-368-1778 314-1512c172-832 339-1638 371-1792l57-279-71 7c-166 15-440 75-647 140-357 114-723 298-1030 520-295 213-598 518-807 811-343 481-565 1036-642 1610-27 196-32 270-32 510 0 446 76 856 240 1290 116 304 359 725 553 957l23 27 595-372c327-205 626-392 665-416 57-37 67-40 54-20-9 13-193 316-408 672l-393 648 28 22c165 132 380 270 599 383 385 198 766 314 1268 383 5 0 6-7 3-16zm1003-24c535-95 1061-319 1504-642 56-41 110-83 119-93 16-18-3-51-380-674-219-360-401-661-406-668-4-8 23 6 60 30 38 23 337 211 664 415l595 373 27-33c15-17 63-81 107-142 388-538 625-1184 676-1840 11-154 6-498-10-645-49-449-158-826-355-1225-428-871-1184-1527-2105-1828-150-49-269-81-400-107-102-21-348-60-352-56-1 1 165 808 370 1794l371 1792-314 1512c-172 832-339 1638-371 1792l-57 279 71-7c39-4 123-16 186-27z"
    fill="#000000"
  ></path>
</svg>
