<svg xmlns="http://www.w3.org/2000/svg" viewBox="0 0 1610 1470">
  <g fill="#000000">
    <path
      d="M685 1460c-175-23-354-125-466-264-41-50-109-163-109-180 0-3 103-6 228-6h228l57 30c30 17 74 34 97 38 22 4 41 10 40 15v192c0 102-3 184-7 184-5-1-35-5-68-9zM820 1274v-194h29c16 0 60-16 97-35l69-35h228c125 0 227 3 227 6 0 16-65 125-105 176-115 147-309 253-497 271l-48 5v-194zM670 1009c-58-26-115-81-148-144-22-42-27-63-27-130s5-88 27-131c34-64 105-128 165-148 93-32 86-56 82 279l-4 295-25-1c-14 0-45-9-70-20zM819 813c0-120-2-254-5-297l-6-79 42 7c121 19 226 137 237 267 11 121-63 246-175 296-98 43-92 55-93-194zM110 460c0-21 54-116 96-171 80-104 183-183 309-236C567 31 701 0 745 0h25l-2 191-3 192-60 17c-33 9-79 28-102 43l-43 27H335c-148 0-225-4-225-10zM978 444c-21-15-65-34-100-44l-63-17-2-187C811 42 814 8 825 4c25-10 157 17 233 47 129 51 243 137 322 244 39 52 90 146 90 165 0 6-78 10-228 10h-227l-37-26z"
    />
  </g>
</svg>
