<svg xmlns="http://www.w3.org/2000/svg" viewBox="0 0 1590 1600">
  <path
    d="M176 1584c-35-34-42-17 202-439 102-176 221-383 265-460s91-155 104-172c29-39 61-43 90-10 11 12 149 245 307 519 296 513 310 544 266 568-12 6-77 9-167 8l-147-3-117-358C859 870 841 830 795 830c-48 0-58 22-191 433l-109 337H343c-124 0-154-3-167-16z"
  />
  <path
    d="M640 1594c0-3 20-67 45-143 48-146 78-195 117-189 11 2 30 14 40 29 16 21 108 278 108 301 0 5-70 8-155 8s-155-3-155-6z"
  />
  <path
    d="M172 1272c-46-57-107-177-132-257C6 908 1 723 29 608 84 375 233 189 445 84 561 27 631 9 761 3c485-24 878 396 819 875-19 148-83 305-165 398l-30 35-92-161-91-160 19-50c58-153 19-337-99-462-182-194-509-182-673 25-105 131-133 298-75 443l17 41-91 159c-51 87-93 160-95 162-1 2-16-15-33-36z"
  />
</svg>
