<svg xmlns="http://www.w3.org/2000/svg" viewBox="0 0 2170 2550">

  <path
    d="M1520 2521c0-5-21-22-47-37-27-15-50-30-53-33s-45-33-93-65c-49-33-91-65-94-71-2-7 18-58 46-114l51-100-52-63c-124-149-321-368-336-372-23-8-316-36-370-36-37 0-52-7-105-52-34-28-62-56-62-62 0-7 34-13 82-17 89-7 137-28 92-40-13-4-58-8-99-8-99-2-140-12-184-47-61-49-51-53 104-47 140 6 173-2 108-24-18-6-64-14-103-17-38-4-106-11-150-18l-80-11-74-74c-83-83-94-111-85-213 8-93 31-227 50-291 70-236 273-479 489-587C696 52 781 26 921 11c106-12 312-1 377 20 34 11 358 141 529 212l72 30 13 56c12 52 18 59 78 103 179 132 167 119 175 194 11 103-2 128-112 213-51 39-95 71-98 71s-5-20-5-44-3-63-6-88l-6-45-92-11c-101-13-320-28-351-24-11 1-58 14-105 28s-105 32-130 39c-96 29-245 77-249 81-3 3 16 54 114 304 19 47 55 142 82 211 39 102 73 164 183 338 132 207 136 212 165 208 17-3 48-12 70-20 22-9 88-34 147-55l108-40 52 40c59 43 63 52 84 153 7 39 21 101 29 140 8 38 15 77 15 85-1 18-15 2-115-128-46-60-77-91-90-91-18 0-301 143-353 179-14 9-30 41-43 85-36 120-36 119 12 176 49 58 73 99 58 99-5 0-9-4-9-9zm340-2138c-1-27-49-54-128-73-28-6-55-16-58-21s-16-9-29-9-27-4-30-10c-7-12-65-14-65-2 0 4 20 15 44 25s52 24 62 32c19 13 18 14-1 29-20 14-20 14 5 20 24 5 77 10 163 14 20 1 37-1 37-5z" />
  <path
    d="M960 2012c-80-4-213-33-295-65-200-76-360-207-480-391-60-92-128-245-123-278 3-16 12-12 70 32 53 40 74 63 98 113 87 171 243 319 425 403 95 44 168 63 288 78l99 11 34 47 35 46-53 4c-29 1-73 2-98 0zM1567 1793l-27-37 88-82c167-155 254-320 293-552 11-68 15-75 56-108 28-23 48-33 54-27 13 13-6 176-32 278-45 175-126 315-266 460-40 42-118 105-129 105-5-1-21-17-37-37z" />

</svg>