<svg xmlns="http://www.w3.org/2000/svg" viewBox="0 0 1860 1800">
  <path
    d="M765 1785c-386-73-691-383-756-770-15-89-6-245 21-349 75-294 318-535 637-633C747 9 770 6 920 6c151 0 172 2 253 27 397 122 664 451 684 843 17 335-155 640-458 808-184 101-427 140-634 101zm420-116c347-105 575-408 575-764 0-219-80-407-239-565-161-159-363-240-601-240-55 0-135 7-176 15-74 16-171 51-162 60 2 2 202 106 444 231 241 124 442 229 446 233 4 3-78 44-182 91-105 46-190 87-190 90s65 40 145 83l144 78 50 96c28 53 51 99 51 102s-28 42-63 85l-62 79-80-2c-94-3-117-15-46-25 28-4 51-10 51-15 0-4-7-30-15-57l-14-49-192-53c-106-28-194-50-197-48-2 2 15 77 37 165 23 89 41 163 41 166s31 5 68 5c67 0 69 1 85 33 9 17 33 61 53 97 40 68 39 68-47-2-44-36-48-37-135-39l-89-2-5 74-5 74-27-86c-31-97-33-111-17-137 8-13 9-31 3-58-8-33-18-43-58-65-45-24-51-34-103-142l-56-116-238-171c-131-93-243-170-248-170-15 0-26 86-24 190 9 416 337 756 763 788 109 9 226-2 315-29zM550 529c-8-5-72-39-142-74l-127-64-30 46c-23 35-28 49-19 53 7 4 67 15 133 24 66 10 125 19 130 21 6 2 24 4 40 4 24 1 27-2 15-10zm270-84c0-3-86-48-190-100-162-81-194-94-211-84-11 6-18 14-14 17 3 4 90 43 193 88 170 75 222 93 222 79z"
    fill="#000000" />
</svg>