<svg xmlns="http://www.w3.org/2000/svg" id="root" viewBox="0 0 2420 2440">
  <path
    d="m1657 2389-38-50 38-16c21-8 48-19 61-24 22-8 20-12-51-98-41-50-83-102-93-116-18-24-26-26-131-32-61-3-116-9-122-12-5-4-33-78-61-166s-54-163-58-166c-6-6-425-300-518-364-27-19-175-58-411-110-61-14-77-22-104-53-17-20-57-64-88-97-94-100-99-95 62-68 78 13 293 47 477 77l335 54 17-21c10-12 18-27 18-33s-44-24-97-39c-302-84-447-126-451-130-3-2 3-25 12-50 10-24 18-48 19-52s-29-19-68-33l-70-25-76-140c-42-77-75-141-73-143 2-3 704 307 884 390 106 49 106 49 132 28 15-12 20-22 13-28-9-9-259-154-467-272-43-24-78-47-78-51s13-17 30-30c16-13 30-27 30-30 0-4-33-32-74-62l-73-55-62-178c-34-97-60-178-58-180 3-3 85 55 542 385 66 48 179 129 250 181 72 51 153 110 180 130 28 21 152 111 278 201 125 89 226 166 225 169-2 4-72 67-156 140-84 74-149 137-144 142s78 39 163 76c140 62 155 71 171 103 9 20 33 48 52 63 31 23 36 33 36 69 0 30-5 45-17 53-10 5-36 21-57 34l-39 24 7-30c4-16 8-33 9-38s-32-17-73-27l-75-18-137 45c-76 25-138 50-138 55 0 14 292 479 301 479 4 0 45-14 90-30 45-17 84-29 86-27s-16 49-39 103l-43 99-3-49-3-48-32 6c-18 3-70 18-117 34l-85 27 3 38c2 20 2 37 0 36-2 0-20-23-41-50z"
  />
  <path
    d="M1190 2261c-351-77-634-324-753-658-25-70-62-236-55-252 3-8 235 40 257 53 6 4 11 22 11 40 0 53 37 183 75 260 127 260 384 429 674 441l94 3 53 53c36 35 50 57 44 63s-79 11-163 13c-119 2-170-1-237-16zM1855 2100c-14-27-25-53-25-57s23-23 50-42c137-93 246-245 302-421 20-64 23-96 23-220 0-133-2-152-29-233-99-303-364-517-671-543-47-4-80-13-100-27-66-45-325-250-325-257 0-12 123-39 217-49 521-50 989 293 1098 804 21 96 24 303 6 390-58 281-202 501-435 664-33 22-65 41-72 41-8 0-25-22-39-50z"
  />
</svg>
