<svg id="root" xmlns="http://www.w3.org/2000/svg" width="180" height="180" viewBox="200 200 1400 1400">
  <path
    d="M822 1485 c3 -28 1 -35 -13 -35 -10 0 -24 -2 -31 -5 -10 -4 -17 5 -24 29 l-9 34 -75 -30 c-41 -16 -76 -31 -78 -33 -2 -2 4 -15 14 -30 17 -26 17 -27 -12 -50 l-29 -24 -22 27 -23 27 -57 -58 -58 -58 24 -20 c22 -18 23 -22 11 -44 -16 -29 -22 -30 -55 -9 -24 16 -24 16 -50 -42 -41 -93 -42 -101 -5 -109 26 -6 31 -11 26 -28 -3 -12 -6 -30 -6 -39 0 -14 -7 -16 -35 -11 l-35 6 0 -85 0 -84 35 4 c27 3 35 0 35 -11 0 -8 3 -22 6 -31 4 -11 -4 -17 -30 -22 -20 -3 -36 -7 -36 -9 0 -5 61 -149 64 -153 2 -2 16 4 31 14 27 17 28 17 46 -7 25 -32 24 -44 -7 -64 l-26 -17 58 -59 59 -60 23 26 c22 26 24 26 47 11 30 -19 30 -20 9 -52 -9 -13 -15 -26 -13 -27 12 -9 136 -57 147 -57 6 0 12 8 12 18 0 32 13 41 50 33 33 -6 35 -9 32 -44 l-4 -37 82 0 82 0 -4 37 c-3 35 -1 38 29 44 29 6 32 4 38 -27 3 -19 8 -34 10 -34 2 0 28 9 57 21 29 12 64 25 77 30 22 9 22 10 7 34 -22 33 -21 38 14 58 30 18 30 18 52 -8 l23 -26 59 60 58 59 -26 17 c-29 20 -32 32 -11 59 13 18 16 18 39 2 14 -9 28 -16 31 -16 11 0 66 133 61 147 -3 7 -14 13 -25 13 -26 0 -32 12 -24 50 6 30 8 32 39 27 l34 -6 0 86 0 86 -35 -6 c-29 -5 -35 -3 -35 13 0 10 -3 25 -6 34 -5 12 0 16 17 16 46 0 48 11 16 92 l-30 78 -31 -20 -32 -19 -18 34 c-19 34 -19 34 5 54 l24 20 -58 58 -57 58 -23 -27 -22 -27 -24 19 c-22 19 -23 21 -6 46 9 14 13 29 8 33 -10 10 -132 61 -142 61 -5 0 -11 -14 -15 -31 -5 -27 -9 -30 -28 -25 -13 3 -30 6 -38 6 -12 0 -15 8 -12 35 l4 35 -82 0 -82 0 4 -35z m217 -144 c271 -84 402 -392 276 -648 -56 -114 -136 -185 -260 -233 -81 -31 -224 -32 -306 -2 -120 43 -208 121 -264 235 -125 256 4 562 273 648 78 24 202 25 281 0z">
  </path>
</svg>