<svg id="root" xmlns="http://www.w3.org/2000/svg" width="180" height="180" viewBox="100 100 1600 1600">
  <path
    d="M884 1726 c-3 -13 -14 -32 -25 -42 -14 -13 -18 -26 -14 -53 5 -29 -1 -46 -25 -83 -17 -27 -38 -48 -48 -48 -31 -1 -102 -39 -102 -55 0 -8 16 -23 35 -32 27 -13 35 -23 35 -43 0 -22 -9 -29 -65 -54 -182 -79 -302 -285 -275 -473 22 -157 120 -288 267 -359 59 -29 73 -40 73 -58 0 -17 -9 -27 -29 -36 -62 -25 -47 -62 35 -86 46 -13 56 -21 79 -60 20 -34 25 -54 21 -77 -4 -25 1 -42 23 -74 l28 -42 26 39 c18 28 25 52 25 84 -1 28 5 50 15 60 9 9 19 25 22 36 4 12 21 24 48 31 90 23 111 58 52 86 -24 12 -35 23 -35 39 0 17 15 29 76 58 271 128 354 450 178 685 -46 62 -150 139 -216 162 -31 11 -38 18 -38 39 0 19 7 28 30 37 64 24 40 76 -41 89 -51 8 -92 68 -93 135 -1 30 -8 54 -19 66 -9 11 -17 25 -17 31 0 23 -20 22 -26 -2z m-264 -821 c0 -107 -14 -135 -70 -135 -41 0 -50 23 -50 134 l0 96 60 0 60 0 0 -95z m348 1 c-3 -106 -19 -136 -70 -136 -54 0 -68 28 -68 135 l0 95 71 0 71 0 -4 -94z m322 -9 c0 -111 -6 -127 -50 -127 -49 0 -65 31 -68 136 l-4 94 61 0 61 0 0 -103z">
  </path>
</svg>