<svg id="root" xmlns="http://www.w3.org/2000/svg" width="180" height="180" viewBox="0 0 1800 1800">
  <path
    d="M347 1582 c-45 -49 -9 -97 254 -344 118 -111 215 -204 217 -208 4 -11 -287 -282 -297 -276 -5 3 -14 45 -21 93 l-13 87 -38 -77 c-26 -51 -45 -77 -56 -77 -10 0 -44 26 -77 58 -32 31 -56 49 -53 39 4 -9 9 -45 13 -80 8 -82 -1 -90 -82 -77 -90 15 -92 14 -41 -38 42 -42 47 -52 41 -79 -5 -26 -17 -37 -59 -60 -30 -15 -52 -30 -49 -34 2 -4 28 -10 57 -13 48 -6 56 -11 69 -39 15 -30 14 -35 -14 -90 l-29 -58 58 29 c55 28 59 29 90 14 27 -13 33 -22 39 -61 13 -85 17 -87 48 -22 24 49 34 60 59 65 27 6 37 0 79 -41 54 -53 56 -50 38 47 -14 73 -3 84 69 76 30 -4 67 -9 81 -13 21 -5 16 4 -32 54 -32 32 -58 66 -58 76 0 11 26 30 76 55 l76 38 -86 13 c-47 7 -88 16 -90 20 -2 3 60 73 139 155 l142 150 141 -145 c78 -79 142 -149 142 -156 0 -7 -36 -16 -92 -24 l-91 -12 76 -39 c51 -25 77 -44 77 -55 0 -10 -26 -44 -57 -76 -49 -50 -54 -59 -33 -54 14 3 49 9 77 13 85 11 92 -4 67 -141 -6 -30 -6 -30 43 18 44 42 52 47 82 41 27 -6 37 -16 64 -68 l31 -61 9 65 c8 59 12 66 40 80 30 15 35 14 90 -12 31 -16 57 -25 57 -21 0 5 -12 28 -26 53 -23 41 -24 48 -13 82 11 34 15 37 63 43 80 11 83 18 17 49 -50 25 -60 33 -64 60 -4 26 2 38 41 79 50 51 48 53 -37 37 -38 -7 -57 -6 -72 3 -21 12 -21 20 -2 137 l5 35 -59 -57 c-32 -32 -65 -58 -74 -58 -9 0 -29 29 -49 70 -35 72 -50 87 -50 48 0 -47 -23 -148 -34 -148 -14 0 -286 265 -286 278 0 6 95 99 212 208 116 110 224 217 240 238 63 87 9 160 -78 107 -18 -11 -126 -119 -240 -240 -115 -122 -214 -220 -220 -219 -5 2 -97 94 -202 206 -106 112 -210 219 -233 238 -46 38 -87 44 -112 16z">
  </path>
</svg>