<svg xmlns="http://www.w3.org/2000/svg" id="root" viewBox="0 0 2150 2150">
  <path
    d="M706 2136c-49-18-103-70-127-121-24-52-24-138 0-190 18-41 75-98 117-117 21-10 24-18 24-73 0-60 0-61-34-73-39-15-92-70-112-118-8-19-14-58-14-89 0-95 53-176 137-212 42-17 134-17 176 0 111 47 169 171 131 282l-17 50 128 122 127 121 34-14c108-45 258 29 293 145 26 88 6 167-59 231-70 71-163 89-250 49-60-27-88-54-116-114-26-56-30-111-10-167l13-36-126-126c-105-105-130-125-148-120-21 6-23 12-23 68v61l47 25c200 106 133 409-94 426-36 3-73-1-97-10zm142-141c35-30 45-69 27-111-28-69-105-86-156-35-47 48-38 124 19 155 40 22 77 19 110-9zm551 11c67-35 65-143-4-174-44-20-75-14-111 22-46 46-46 86 0 132 37 37 70 43 115 20zm-544-576c8-7 19-26 25-44 32-98-87-170-161-97-71 71-3 187 94 160 16-5 35-13 42-19z"
  />
  <path
    d="M174 1581c-52-13-113-53-141-94-29-42-42-131-29-200 8-45 70-115 120-138 47-21 142-25 181-7 26 11 30 8 123-88 154-157 155-159 144-180-8-16-20-18-71-16-50 3-61 7-67 24-10 34-77 100-119 119-75 34-175 20-240-33-55-46-75-94-75-181 0-64 4-79 29-119 43-68 108-103 191-103 47 1 77 7 107 23 45 23 100 84 109 120 6 20 12 22 65 22 58 0 59-1 78-37 41-81 116-127 206-127 78-1 141 29 183 87 63 89 64 190 0 278-54 75-178 110-262 75l-33-14-123 123-124 124 12 39c18 61 14 122-12 178-28 59-75 100-142 120-51 15-63 16-110 5zm121-163c53-63 11-158-70-158-47 0-71 14-91 52-30 57-1 120 62 137 42 11 71 2 99-31zm-25-543c34-18 50-43 50-80 0-43-27-82-65-95-86-28-159 52-120 133 26 54 79 71 135 42zm578-10c38-32 46-65 28-110-42-99-186-72-186 35 0 87 93 130 158 75zM1297 1579c-48-11-101-47-133-90-84-114-40-279 91-340 49-23 145-25 184-4l28 14 119-126c71-75 118-132 116-142-26-126-6-208 64-270 93-81 215-78 304 7 96 93 101 219 13 313-58 62-113 84-190 75-32-4-67-8-78-9-15-1-56 34-139 120-94 98-116 126-111 143s15 20 70 20c57 0 63-2 69-23 8-33 65-93 111-116 27-14 59-21 98-21 110 0 192 62 223 167 55 189-149 352-327 262-43-21-96-80-105-114-6-23-10-25-69-25-54 0-65 3-70 19-31 98-161 166-268 140zm131-164c51-59 6-155-73-155-47 0-71 14-91 52-54 104 85 192 164 103zm557 8c58-63 15-163-70-163-86 0-129 103-69 164 38 37 103 37 139-1zm-3-562c27-24 33-36 33-71 0-34-6-47-28-66-15-13-39-27-54-30-59-15-132 56-118 115 20 79 106 106 167 52z"
  />
  <path
    d="M1275 1009c-109-32-180-178-141-289l16-45-83-80c-45-44-103-99-127-122l-45-42-45 15c-104 36-231-23-274-128-9-21-16-64-16-96C560 24 806-75 947 67c67 66 86 156 52 243-9 24-1 35 117 152 117 116 129 125 151 115 20-9 23-17 23-68v-57l-45-22c-108-52-153-185-101-295 42-89 112-135 206-135 171 0 278 171 206 327-24 51-91 113-123 113-9 0-13 17-13 65v65l39 19c78 40 129 140 117 228-20 148-157 235-301 192zm124-133c59-31 67-102 17-152-42-42-82-45-124-9-94 79-2 217 107 161zM831 314c36-18 59-67 52-107-8-39-57-77-100-77-49 0-93 45-93 95 0 48 15 74 53 90 41 18 52 18 88-1zm592-24c30-34 34-67 12-110-54-104-214-34-178 77 5 15 25 38 44 51 43 30 84 24 122-18z"
  />
</svg>
