<svg xmlns="http://www.w3.org/2000/svg" viewBox="0 0 1780 1190">
  <path
    d="M441 1170C236 1116 63 941 15 739c-19-83-19-215 1-293C69 239 249 63 456 14 556-9 692-1 790 35c94 34 109 34 195 0 93-36 239-45 335-21 260 65 442 280 457 541 13 218-80 410-259 532-44 29-107 61-145 73-92 29-219 36-308 17-74-16-165-52-165-66 0-5 18-21 41-36 145-101 241-287 242-470 1-107-14-176-58-270-37-77-123-179-191-226-45-30-45-30-73-12-82 53-173 159-214 250-81 181-70 383 30 551 35 59 126 156 183 194 30 21 23 27-60 59-117 44-238 50-359 19z"
    fill="#000000"
  />
</svg>
