<svg id="root" xmlns="http://www.w3.org/2000/svg" width="180" height="180" viewBox="0 0 1800 1800">
  <path
    d="M405 1548 c-49 -27 -59 -78 -25 -134 12 -18 113 -117 225 -219 l205 -187 -66 -73 c-36 -41 -76 -81 -90 -90 l-25 -16 -120 116 -120 116 -27 -20 c-45 -32 -272 -268 -272 -283 0 -8 21 -34 46 -58 25 -25 73 -75 106 -113 l61 -68 -24 -44 -24 -44 21 -28 c27 -36 46 -39 95 -14 l41 22 56 -50 c31 -27 75 -68 97 -90 21 -23 45 -41 53 -41 7 0 74 60 147 133 l134 132 135 -133 c74 -72 141 -132 148 -132 8 0 36 23 63 51 28 28 71 68 97 90 l46 40 41 -22 c49 -25 68 -22 95 14 l21 28 -24 44 -24 44 61 68 c33 38 81 88 106 113 25 24 46 50 46 58 0 15 -227 251 -272 283 l-27 20 -120 -116 -120 -116 -25 16 c-14 9 -54 49 -90 90 l-66 73 205 187 c112 102 213 201 225 219 35 58 24 114 -29 136 -50 20 -94 -15 -298 -237 -102 -112 -189 -203 -193 -203 -4 0 -91 91 -193 203 -163 177 -241 248 -273 247 -5 0 -18 -6 -29 -12z m589 -712 c48 -47 87 -89 85 -95 -2 -5 -43 -50 -91 -99 l-88 -89 -87 89 c-49 49 -90 94 -92 99 -3 10 166 179 179 179 3 0 45 -38 94 -84z">
  </path>

</svg>