<svg xmlns="http://www.w3.org/2000/svg" id="root" viewBox="0 0 1240 1730">
  <path
    d="M572 1622c-36-111-47-124-143-170-82-40-150-110-190-197-34-75-47-85-160-124l-84-29 189-1c184-1 189-1 172 18-60 66-2 185 119 242 87 42 178 41 263-2 65-32 99-66 135-133 18-33 22-58 22-131 0-80-3-95-27-137-51-85-161-158-239-158-18 0-19-14-18-402 1-222 4-392 6-378s22 164 44 335c30 228 45 316 58 334 9 13 46 42 81 63 81 48 127 98 167 180 17 35 39 71 48 79 10 8 65 30 124 50l106 36-100 32c-55 19-110 40-123 47-12 8-35 44-51 79-39 85-117 163-207 207l-69 34-40 112c-22 62-42 112-45 112s-20-44-38-98z"
  />
</svg>