<svg xmlns="http://www.w3.org/2000/svg" id="root" viewBox="0 0 150 142">
  <path
    d="M 25.253906 66.328125 C 25.253906 61.960938 25.828125 57.71875 26.902344 53.6875 L 10.933594 47.21875 C 9.097656 53.332031 8.148438 59.761719 8.148438 66.328125 C 8.148438 84.046875 15.058594 100.703125 27.589844 113.238281 C 36.324219 121.964844 47.0625 127.949219 58.753906 130.789062 L 61.371094 113.800781 C 40.566406 108.03125 25.253906 88.929688 25.253906 66.328125 "
  />
  <path
    d="M 74.535156 17.082031 C 87.9375 17.082031 100.09375 22.445312 108.988281 31.144531 L 122.152344 20.121094 C 121.925781 19.878906 121.707031 19.65625 121.480469 19.417969 C 108.9375 6.894531 92.269531 0 74.535156 0 C 56.800781 0 40.132812 6.894531 27.59375 19.417969 C 27.257812 19.765625 26.921875 20.121094 26.585938 20.460938 L 39.847656 31.371094 C 48.757812 22.546875 61.027344 17.082031 74.535156 17.082031 "
  />
  <path
    d="M 122.074219 53.292969 C 123.207031 57.453125 123.816406 61.820312 123.816406 66.328125 C 123.816406 88.996094 108.414062 108.128906 87.523438 113.839844 L 90.105469 130.839844 C 101.878906 128.027344 112.683594 122.011719 121.476562 113.238281 C 134.011719 100.703125 140.917969 84.046875 140.917969 66.328125 C 140.917969 59.570312 139.910156 52.964844 137.96875 46.683594 L 122.070312 53.292969 "
  />
  <path
    d="M 87.53125 106.324219 L 74.527344 84.964844 L 61.300781 106.324219 L 68.4375 106.324219 L 62.386719 145.589844 L 86.617188 145.589844 L 80.644531 106.324219 L 87.53125 106.324219 "
  />
  <path
    d="M 102.136719 35.070312 L 90.40625 57.136719 L 115.53125 57.597656 L 111.886719 51.46875 L 148.777344 36.605469 L 136.402344 15.800781 L 105.660156 40.984375 L 102.136719 35.070312 "
  />
  <path
    d="M 33.238281 57.628906 L 58.363281 57.167969 L 46.628906 35.085938 L 43.105469 41.011719 L 12.355469 15.828125 L 0 36.636719 L 36.878906 51.496094 L 33.238281 57.628906 "
  />
</svg>
