<svg xmlns="http://www.w3.org/2000/svg" viewBox="0 0 2120 2130">
  <g fill="#000000">
    <path
      d="M1412 2110c-11-11-24-20-28-20-7 0-226-130-234-139-12-13-73-41-91-41h-19v19l-22 7c-13 4-25 10-28 13-3 4-64 41-136 82l-132 76-13-19c-8-10-30-47-51-81l-36-62 11-7 11-7 8 5 8 5v-19l73-42c39-23 77-43 84-44s20-9 30-18c10-8 46-31 80-49l63-34v-90c0-49-3-180-7-291l-6-200-65-35c-36-19-70-38-77-44-6-5-50-30-98-55-48-24-87-48-87-52 0-5-3-7-7-6-5 2-48-19-97-46l-88-48-22 10c-11 6-93 53-181 105l-159 95-49-86-49-85 23-18c23-17 30-20 45-18 4 0 10-3 13-8s27-21 54-36l47-28v16l8-11c4-6 47-33 95-60l88-49 2-205 2-205 93-3 92-3v431l25 12 25 11v20l6-5 5-6 172 96c95 52 174 98 177 101 8 11 93 46 110 46h15l17-17 18-18h30v-21l10 6 10 6v-8c0-9 62-49 69-44 2 1 7-2 10-7s77-53 163-106l158-98 2-206 3-207 99-3 98-3-7 218-7 218 108 60c59 33 112 65 118 70 7 6 37 23 69 40 31 16 57 33 57 37 0 10-71 130-86 146l-13 12-133-77c-73-42-135-79-138-82s-24-16-48-29l-42-23-37 26c-21 14-41 25-46 25-4 0-13 5-20 11s-95 61-197 123l-185 113 3 299 3 299 19 17 18 17 6-6 6-6v23h12c16 0 287 153 292 165l4 10-43 73c-23 40-46 77-51 82l-10 10-22-20z"
    />
    <path
      d="M423 1828c-13-6-23-15-23-20v-8h-30v-21l-10 6-10 6v-17l-35-13-35-12v-20l-9 5-9 6-12-15c-7-8-19-15-26-15h-14v-10c0-5-3-9-7-8-12 3-56-23-70-41l-13-16 1-178 1-177 16-17c9-9 32-23 52-32 19-10 53-28 75-41 22-14 41-24 43-22 1 1 12-7 24-18s26-20 30-20c5 0 26-11 48-25l40-25v19l14-5 13-5 16 16c9 9 19 14 21 13 3-2 13 4 23 12 10 9 20 15 23 15s51 26 107 58l101 58 6 14c3 8 5 98 5 200v185l-24 6c-14 3-25 10-25 14s-8 10-17 14c-17 5-40 18-112 63l-35 22-8-5-8-5v18l-51 27c-28 14-52 26-52 25-1 0-12-5-24-11zM1660 1810c-19-10-43-22-52-26-10-3-18-10-18-15v-9h-30v-21l-9 6-9 5-15-15c-9-8-20-15-26-15h-11v-21l-9 5-9 6-4-7c-1-5-24-18-50-30l-48-23v-368l6-16 6-16h28v-23l6 6 6 6 21-19 20-19 9 5 8 5v-20l23-7c12-4 33-15 46-25l23-19 9 6 9 5v-19l55-31 55-31 25 16c14 9 25 20 25 23 0 4 6 8 13 8 6 0 47 19 89 43l77 43-5 9-6 9 13-3 14-3 43 25 42 24v371l-26 20c-15 11-29 18-32 17-3-2-8 1-12 8-4 6-14 12-23 14-9 1-24 9-34 18-21 18-192 118-201 118-4 0-23-9-42-20zM1047 747l-27-9v-18h-14c-8 0-21-6-28-12-7-7-30-21-50-30l-38-18-1-17-1-18-5 13-5 13-46-27c-26-14-53-34-59-42l-13-16v19l-10-15-10-15V178l15 6 15 5-3-12-2-12 13 3 12 2v-10c0-5 4-10 8-10s57-29 117-65 115-65 121-65c7 0 14-5 16-11l4-12 22 7c12 4 28 13 35 19 6 7 38 26 70 42 31 17 57 33 57 38 0 4 3 6 8 6 4-1 13-1 20 0l12 1v29l15-5 15-6v23l9-5 8-6 18 20 18 20 8-6 8-5 11 21 11 20-1 163-2 162-11 14-12 15 14-8 14-9-5 14-5 14-64 33c-35 18-73 39-84 47-10 8-25 15-31 15-7 0-14 4-16 9-1 5-30 25-63 43l-61 34-27-9z"
    />
  </g>
</svg>
