<svg xmlns="http://www.w3.org/2000/svg" viewBox="0 0 11870 9200">
  <g fill="#000000">
    <path
      d="M5903 9158c-23-24-97-109-165-189s-190-224-273-319c-82-96-197-229-255-296-138-161-334-389-515-599-134-156-315-368-457-533-31-37-55-68-54-69 2-2 302 96 667 217s671 220 680 220 19-6 22-14-3-104-13-213-23-256-29-328c-6-71-17-204-25-295s-24-277-36-415c-12-137-30-344-40-460-10-115-22-257-25-314l-7-103 49 6c118 13 766 18 918 7 86-7 159-11 161-9s-5 96-15 209c-11 112-29 317-41 454-11 138-30 349-40 470-11 121-22 256-25 300-4 44-15 170-25 280s-22 251-26 313c-6 105-5 112 13 112 10 0 317-99 683-219 365-121 666-219 667-217 3 3-191 231-652 766-159 184-359 417-485 564-58 68-213 248-344 402-132 153-247 287-256 297-15 16-18 15-57-25zM5480 5215c-107-7-244-20-305-28-60-9-132-19-160-22-172-20-482-82-740-146-531-134-1079-336-1565-579-96-48-210-108-253-134-102-60-126-62-88-8 17 26 422 679 464 751l20 33-34-17c-19-10-83-46-144-80-188-106-684-385-1025-575-184-103-335-187-670-375-96-54-257-145-358-202-100-56-184-103-186-103-3 0-69-37-148-83-79-45-173-98-210-117-38-19-66-39-65-45 9-28 798-531 1117-713 19-10 81-47 138-81 57-33 105-61 107-61s69-38 149-85 147-85 150-85c2 0 71-38 152-84 82-45 199-109 259-141 124-65 464-251 660-360 993-554 1552-769 2290-880 518-78 1272-80 1781-5 295 43 611 116 860 198 270 90 646 254 954 417 96 51 216 114 265 140 50 27 141 77 202 112 62 34 115 63 117 63 3 0 55 28 118 63 62 35 167 92 233 127 650 341 1503 841 2073 1216 127 84 232 155 232 157 0 5-144 87-555 317-110 62-274 154-365 205s-259 145-375 210c-443 248-555 311-705 395-85 48-249 140-365 205-115 64-259 145-320 179-123 70-150 82-139 63 4-6 59-95 122-197 373-601 362-583 362-598 0-18-5-16-78 27-131 76-530 270-720 350-726 304-1440 486-2202 562-263 26-772 33-1050 14zm985-510c149-8 338-23 420-34 83-11 175-23 205-26 240-27 691-124 975-210 623-190 1160-483 1529-835 90-86 196-212 196-233 0-26-264-332-455-526-753-765-1574-1183-2591-1317-153-20-169-17-160 29 13 62 26 273 27 444 2 415-112 1001-297 1518-47 134-119 318-149 383-14 29-25 55-25 59 0 3-44 95-97 205-88 182-98 198-111 181-20-25-187-371-229-473-79-191-116-292-179-485-102-314-168-590-219-924-32-210-45-588-25-756 5-44 12-106 16-137l7-58h-35c-48 0-295 35-425 60-229 45-455 108-648 181-705 265-1268 662-1846 1299-119 130-259 308-259 327 0 27 331 347 450 435 590 435 1383 723 2310 837 555 69 1059 86 1615 56zM5166 643c-14-97-51-632-43-639 3-3 31-1 64 5 32 6 159 23 283 37 206 24 250 25 530 21 295-4 390-11 670-52 52-8 97-12 99-9 5 4-31 476-46 622l-6 52h-41c-22 0-111-8-196-17-219-24-847-24-1078 0-234 25-229 25-236-20z" />
  </g>
</svg>