<svg xmlns="http://www.w3.org/2000/svg" id="root" viewBox="0 0 150 170">
  <path
    d="M 150.273438 80.875 L 153.523438 70.210938 L 128.988281 62.75 L 154.300781 48.585938 L 148.863281 38.863281 L 123.363281 53.136719 L 129.898438 28.023438 L 119.136719 25.226562 L 109.886719 60.6875 L 89.347656 72.1875 C 87.5 70.449219 85.285156 69.113281 82.824219 68.300781 L 82.824219 44.449219 L 109.035156 19.273438 L 101.324219 11.238281 L 82.824219 29 L 82.824219 0 L 71.699219 0 L 71.699219 29.210938 L 52.972656 11.238281 L 45.261719 19.273438 L 71.699219 44.648438 L 71.699219 68.210938 C 69.324219 68.976562 67.1875 70.210938 65.363281 71.8125 L 45.1875 59.6875 L 37.023438 23.960938 L 26.175781 26.449219 L 31.9375 51.75 L 6.898438 36.699219 L 1.160156 46.25 L 26.023438 61.175781 L 1.273438 67.886719 L 4.1875 78.636719 L 39.261719 69.125 L 59.660156 81.386719 C 59.378906 82.636719 59.222656 83.949219 59.222656 85.289062 C 59.222656 86.511719 59.363281 87.699219 59.578125 88.851562 L 38.976562 100.386719 L 3.914062 89.710938 L 0.675781 100.363281 L 25.5 107.925781 L 0 122.1875 L 5.4375 131.914062 L 30.75 117.75 L 24.289062 142.550781 L 35.0625 145.363281 L 44.226562 110.199219 L 65.085938 98.523438 C 66.976562 100.238281 69.210938 101.574219 71.699219 102.375 L 71.699219 125.9375 L 45.261719 151.3125 L 52.976562 159.351562 L 71.699219 141.375 L 71.699219 170.585938 L 82.824219 170.585938 L 82.824219 141.585938 L 101.324219 159.351562 L 109.039062 151.3125 L 82.824219 126.136719 L 82.824219 102.289062 C 85.050781 101.550781 87.074219 100.386719 88.8125 98.886719 L 109.300781 111.199219 L 117.386719 146.625 L 128.25 144.136719 L 122.539062 119.136719 L 147.402344 134.074219 L 153.136719 124.539062 L 128.089844 109.488281 L 153.136719 102.699219 L 150.226562 91.949219 L 114.851562 101.539062 L 94.601562 89.375 C 94.882812 88.0625 95.074219 86.699219 95.074219 85.289062 C 95.074219 84.136719 94.96875 83.011719 94.757812 81.925781 L 115.53125 70.289062 L 150.28125 80.875 "
  />
</svg>
