<svg xmlns="http://www.w3.org/2000/svg" viewBox="0 0 2020 940">
  <path
    d="M1270 915c-163-34-329-125-445-244-27-28-53-51-58-51s-32 20-59 45c-28 25-85 62-127 83-75 37-77 37-201 37-119 0-128-2-190-31-74-35-118-75-158-142C8 571 5 555 5 480c0-99 18-155 77-241C154 136 266 80 402 80c146 0 256 48 371 163 43 42 79 77 80 77s43-40 93-89c100-98 191-157 304-198 68-25 88-27 220-28 126 0 154 3 211 23 217 75 350 265 337 482-10 168-135 317-326 388-58 21-87 25-212 28-97 2-166-1-210-11zm302-194c66-26 148-95 173-147 26-55 22-129-11-199-34-73-121-162-187-194-44-21-59-23-146-19-83 4-109 10-165 36-74 35-151 103-233 205-36 44-52 73-49 85 7 22 78 96 136 143 138 112 330 147 482 90zM519 662c82-43 181-143 181-182 0-26-95-117-152-146-75-38-161-49-216-28-91 35-159 123-149 196 8 58 52 126 105 159 43 28 53 30 117 27 49-2 83-10 114-26z"
    fill="#000000" />
</svg>