<svg xmlns="http://www.w3.org/2000/svg" viewBox="0 0 2360 2360">
  <path
    d="M1005 2349c-357-52-693-288-864-609-377-709 44-1575 834-1716 103-18 300-18 406 1 478 83 852 448 949 927 26 128 28 324 5 447-108 563-600 966-1170 960-55-1-127-5-160-10zm444-159c87-24 238-93 307-141 210-144 363-360 430-606 24-86 27-116 28-253 0-110-5-176-17-227-80-348-328-632-659-757C1037 18 460 256 234 746c-64 137-86 234-91 395-6 161 3 233 43 356 90 277 286 502 549 628 206 99 493 125 714 65z"
  />
  <path
    d="M955 2100c-270-71-495-250-615-490-151-300-133-665 46-942 65-102 142-187 222-246 67-50 249-148 258-139 3 2-7 18-21 35-37 44-75 134-88 207-35 202 120 434 316 474l32 7 3 557 2 557-42-1c-24 0-74-8-113-19zM1250 1572c0-568 0-572 40-572 35 0 139-62 190-113 34-33 66-79 89-127 34-71 36-81 36-175 0-92-2-105-33-170-18-38-43-80-54-92-34-36-14-38 55-5 100 46 175 98 256 176 124 119 203 253 257 431 25 82 28 104 27 250 0 194-16 266-98 430-94 188-226 322-415 419-91 48-251 96-316 96h-34v-548z"
  />
  <path
    d="M1119 920c-103-18-207-100-251-198-31-68-31-208 0-275 78-170 281-248 449-172 73 32 143 102 176 173 31 67 31 207 0 274-64 140-222 224-374 198z"
  />
</svg>
