<svg xmlns="http://www.w3.org/2000/svg" id="root" viewBox="0 0 1610 2650">
  <path
    d="M638 2644c-21-6-23-26-7-57 30-54 39-134 49-402 5-154 13-298 16-321 7-46-9-69-53-81-24-5-41 9-168 138-94 95-147 158-156 182-7 20-18 37-24 37-13 0-171-158-164-164 2-3 28-17 57-33 28-15 119-89 202-163 157-141 170-159 137-204-13-18-24-18-205-7-105 7-217 19-247 27-31 8-61 12-66 8-5-3-9-59-9-126v-120l28 5c15 2 62 14 104 25 61 17 110 21 225 22 82 1 153 1 159 0 6 0 19-20 28-44 27-70 74-133 122-163 24-15 44-31 44-35 0-5-120-9-267-9-148-1-279-3-293-4s-33-3-42-4c-10 0-18-8-18-16s113-196 251-417C768 35 791-1 809 2c14 3 101 137 330 508 32 52 131 211 221 353 94 149 159 264 156 272-4 13-52 15-293 16-158 1-294 1-300 0-7-1-13 5-13 14 0 8 4 15 9 15s31 20 59 45c35 31 56 62 72 102 13 32 28 64 34 70 9 10 58 10 226 2 118-5 231-12 251-15 35-6 36-5 42 33 10 57 8 181-2 187-5 4-38-1-73-9s-145-18-251-21c-205-8-207-7-207 46 0 39 343 340 388 340 7 0 15 7 19 16 4 11-19 40-73 95-43 43-81 79-85 79s-19-26-35-57c-20-42-65-96-163-195-74-76-138-138-143-138-4 0-21 12-38 28l-30 27 10 285c11 289 27 437 56 492 12 23 13 33 4 42-11 11-307 20-342 10zm211-884c42-12 96-62 123-114 87-169-9-406-164-406-81 0-138 43-179 134-61 140-15 309 103 374 46 24 67 27 117 12zm368-778c12-7-36-88-309-517-52-82-99-148-104-146-15 7-422 655-417 664 6 10 814 9 830-1z"
  />
</svg>
