<svg id="root" xmlns="http://www.w3.org/2000/svg" width="180" height="180" viewBox="100 100 1600 1600">
  <path
    d="M364 1516 c-68 -30 -87 -117 -38 -175 l26 -31 -21 -25 c-44 -57 -30 -140 30 -170 61 -32 146 -3 165 57 5 18 23 4 140 -113 l134 -134 -250 -250 -250 -250 50 -50 50 -49 32 32 33 32 62 -62 63 -63 32 33 33 32 -63 63 c-56 57 -61 65 -47 77 14 11 23 7 66 -36 l49 -48 32 32 32 32 -49 50 c-47 47 -48 51 -32 67 16 16 20 14 77 -42 l60 -59 30 29 30 29 -55 56 c-30 30 -55 60 -55 66 0 5 38 47 85 94 l85 85 85 -85 c47 -47 85 -89 85 -94 0 -6 -25 -36 -55 -66 l-55 -56 30 -29 30 -29 60 59 c57 56 61 58 77 42 16 -16 15 -20 -32 -67 l-49 -50 29 -30 30 -30 53 46 c44 39 55 44 68 33 13 -11 7 -21 -48 -76 l-63 -63 33 -32 32 -33 63 63 62 62 33 -32 32 -32 50 49 50 50 -250 250 -250 250 134 134 c117 117 135 131 140 113 12 -35 64 -72 102 -72 102 0 155 105 93 185 l-21 25 26 31 c54 63 26 156 -54 180 -44 13 -85 2 -116 -32 -17 -19 -18 -19 -40 2 -13 12 -41 23 -67 26 -38 5 -48 1 -79 -26 -20 -17 -38 -44 -42 -62 -8 -42 16 -96 54 -117 16 -9 30 -19 30 -22 0 -3 -58 -64 -130 -135 l-130 -130 -130 130 c-72 71 -130 132 -130 135 0 3 14 13 30 22 38 21 62 75 54 117 -4 18 -22 45 -42 62 -31 27 -41 31 -79 26 -26 -3 -54 -14 -67 -26 -21 -20 -24 -20 -36 -6 -18 21 -64 45 -87 45 -10 -1 -32 -7 -49 -14z m94 -58 c17 -15 15 -68 -5 -90 -33 -37 -103 -10 -103 41 0 60 60 87 108 49z m980 -6 c20 -25 15 -69 -10 -86 -50 -35 -102 -5 -96 55 5 55 72 74 106 31z m-786 1 c27 -24 24 -79 -6 -98 -64 -42 -130 41 -76 95 24 24 57 26 82 3z m578 -3 c54 -54 -12 -137 -76 -95 -17 11 -24 25 -24 47 0 61 59 89 100 48z m-768 -197 c24 -21 23 -58 -2 -83 -24 -24 -57 -26 -82 -3 -20 18 -24 73 -6 91 17 17 68 15 90 -5z m966 5 c7 -7 12 -25 12 -42 0 -59 -59 -87 -100 -46 -24 24 -26 57 -3 82 18 20 73 24 91 6z">
  </path>
</svg>