<svg xmlns="http://www.w3.org/2000/svg" viewBox="0 0 4760 5540">
  <path
    d="M76 5532c-15-24-56-210-67-303-23-197 7-444 75-614 57-144 106-220 269-419 17-21 17-25-2-97-196-719 101-1477 744-1900 163-107 357-193 552-244 53-13 98-26 100-28s30-110 62-239c128-506 233-1099 273-1540 6-76 15-135 18-130 4 4 19 95 34 202 76 546 190 1143 304 1594l28 109 109 27c608 151 1096 591 1286 1162 58 171 79 288 86 473 7 202-14 388-63 546-3 12 14 24 68 49 193 86 462 156 696 181 67 7 112 17 112 23-1 31-43 97-92 143-137 128-349 233-588 290-83 19-141 26-280 30-96 2-206 1-245-4l-70-9-78 73c-235 219-515 371-820 448-187 47-310 59-533 52-208-6-350-30-526-88-217-72-477-221-648-373-47-42-88-76-91-76s-43 23-89 50c-226 136-401 303-558 533-33 48-63 84-66 79zm2204-352c199-21 374-69 548-151 107-50 269-152 336-211l39-34-194-47c-343-83-533-117-665-117-29 0-54-3-54-6 0-26 186-358 401-716 144-238 274-459 290-491l30-58 66 93c97 138 179 232 306 354 98 94 284 241 293 231 9-9 35-161 44-259 40-431-139-890-470-1202-148-139-337-259-530-334-89-34-168-57-176-49-13 13 184 567 269 758l25 56-60 114c-33 63-170 296-303 519s-266 449-295 503-56 95-60 90c-39-43-239-364-523-838l-215-361 69-184c66-176 219-629 219-649 0-17-169 46-295 109-445 223-754 635-837 1115-17 100-19 147-15 280 5 158 23 295 37 295 16 0 338-290 422-379 48-51 113-131 144-177 32-46 61-81 65-78 25 15 358 560 621 1014l124 215-169 17c-267 27-574 92-715 151l-34 14 54 45c318 271 782 412 1208 368z"
    fill="#000000" />
</svg>