<svg id="root" xmlns="http://www.w3.org/2000/svg" width="180" height="180" viewBox="0 0 1800 1800">
  <path
    d="M622 1598 c-7 -7 -12 -22 -12 -35 l0 -23 290 0 290 0 0 29 c0 17 -6 31 -16 35 -9 3 -134 6 -278 6 -190 0 -265 -3 -274 -12z">
  </path>
  <path
    d="M645 1514 c-141 -30 -245 -84 -286 -150 -10 -17 -19 -34 -19 -38 0 -3 47 -6 105 -6 l105 0 15 38 c29 67 100 128 174 148 l46 13 -60 -1 c-33 0 -69 -2 -80 -4z">
  </path>
  <path
    d="M1061 1506 c74 -20 150 -85 178 -154 l13 -32 110 0 c107 0 109 0 98 21 -21 38 -91 98 -147 124 -67 32 -169 55 -243 54 l-55 0 46 -13z">
  </path>
  <path
    d="M699 1462 c-37 -19 -64 -43 -86 -76 -18 -27 -33 -52 -33 -57 0 -5 70 -9 155 -9 l155 0 0 85 0 85 -69 0 c-56 0 -79 -5 -122 -28z">
  </path>
  <path d="M910 1405 l0 -85 155 0 c85 0 155 2 155 5 0 3 -9 23 -20 45 -38 75 -123 120 -225 120 l-65 0 0 -85z"></path>
  <path d="M322 1203 l3 -88 108 -3 107 -3 0 91 0 90 -110 0 -111 0 3 -87z"></path>
  <path d="M570 1200 l0 -91 158 3 157 3 3 88 3 87 -161 0 -160 0 0 -90z"></path>
  <path d="M912 1203 l3 -88 158 -3 157 -3 0 91 0 90 -160 0 -161 0 3 -87z"></path>
  <path d="M1260 1200 l0 -91 108 3 107 3 3 88 3 87 -111 0 -110 0 0 -90z"></path>
  <path d="M320 1000 l0 -90 110 0 110 0 0 90 0 90 -110 0 -110 0 0 -90z"></path>
  <path d="M570 1000 l0 -90 160 0 160 0 0 90 0 90 -160 0 -160 0 0 -90z"></path>
  <path d="M914 1077 c-3 -8 -4 -47 -2 -88 l3 -74 158 -3 157 -3 0 91 0 90 -155 0 c-121 0 -157 -3 -161 -13z"></path>
  <path d="M1260 1000 l0 -90 110 0 110 0 0 90 0 90 -110 0 -110 0 0 -90z"></path>
  <path d="M327 883 c-4 -3 -7 -44 -7 -90 l0 -83 110 0 110 0 0 90 0 90 -103 0 c-57 0 -107 -3 -110 -7z"></path>
  <path d="M570 800 l0 -90 160 0 161 0 -3 88 -3 87 -157 3 -158 3 0 -91z"></path>
  <path d="M917 883 c-4 -3 -7 -44 -7 -90 l0 -83 160 0 160 0 0 90 0 90 -153 0 c-85 0 -157 -3 -160 -7z"></path>
  <path d="M1260 800 l0 -90 110 0 111 0 -3 88 -3 87 -107 3 -108 3 0 -91z"></path>
  <path d="M322 593 l3 -88 108 -3 107 -3 0 91 0 90 -110 0 -111 0 3 -87z"></path>
  <path d="M570 590 l0 -91 158 3 157 3 3 88 3 87 -161 0 -160 0 0 -90z"></path>
  <path d="M912 593 l3 -88 158 -3 157 -3 0 91 0 90 -160 0 -161 0 3 -87z"></path>
  <path d="M1260 590 l0 -91 108 3 107 3 3 88 3 87 -111 0 -110 0 0 -90z"></path>
  <path d="M347 449 c55 -95 194 -159 373 -173 l75 -5 -46 14 c-78 25 -139 73 -173 137 l-31 58 -108 0 -108 0 18 -31z">
  </path>
  <path d="M586 458 c28 -92 156 -167 266 -156 l33 3 3 88 3 87 -156 0 -156 0 7 -22z"></path>
  <path d="M912 393 l3 -88 33 -3 c48 -5 136 16 173 41 38 25 99 102 99 123 0 11 -28 14 -155 14 l-156 0 3 -87z"></path>
  <path d="M1225 423 c-34 -65 -88 -109 -168 -135 l-52 -18 75 6 c179 14 328 84 376 175 l15 29 -108 0 -108 0 -30 -57z">
  </path>
  <path d="M612 228 l3 -33 285 0 285 0 3 33 3 32 -291 0 -291 0 3 -32z"></path>
</svg>