<svg xmlns="http://www.w3.org/2000/svg" id="root" viewBox="0 0 150 106">
  <path
    d="M 74.734375 54.246094 L 79.007812 54.246094 L 80.28125 54.238281 L 86.21875 54.238281 L 97.46875 54.230469 L 97.476562 54.230469 L 104.390625 54.222656 L 150.171875 54.183594 L 150.171875 50.046875 L 104.390625 50.085938 L 97.960938 50.09375 L 86.257812 50.101562 L 78.101562 50.101562 L 77.40625 50.109375 L 73.023438 50.109375 C 72.980469 49.71875 72.9375 49.328125 72.871094 48.945312 L 93.746094 43.390625 L 92.679688 39.398438 L 71.796875 44.941406 C 71.644531 44.558594 71.492188 44.175781 71.324219 43.804688 L 71.332031 43.804688 L 98.949219 27.902344 C 98.296875 26.679688 97.613281 25.480469 96.871094 24.316406 L 69.253906 40.226562 C 69.019531 39.90625 68.785156 39.59375 68.542969 39.296875 L 84.019531 23.914062 L 81.097656 20.980469 L 65.613281 36.367188 C 65.285156 36.09375 64.949219 35.835938 64.597656 35.585938 L 64.605469 35.585938 L 80.511719 8.011719 C 79.34375 7.28125 78.144531 6.585938 76.925781 5.945312 L 61.011719 33.523438 L 61.011719 33.53125 C 60.644531 33.359375 60.269531 33.203125 59.890625 33.0625 L 65.507812 12.066406 L 61.5 10.996094 L 55.882812 31.996094 C 55.496094 31.941406 55.101562 31.886719 54.703125 31.847656 L 54.703125 0.0390625 C 54.023438 0.0078125 53.335938 0 52.640625 0 C 51.945312 0 51.25 0.0078125 50.566406 0.0390625 L 50.566406 31.847656 C 50.160156 31.886719 49.761719 31.941406 49.351562 32.003906 L 43.757812 11.222656 L 39.757812 12.300781 L 45.351562 33.070312 C 44.96875 33.21875 44.597656 33.375 44.226562 33.539062 L 28.257812 6 C 27.03125 6.640625 25.835938 7.335938 24.671875 8.074219 L 40.640625 35.613281 L 40.640625 35.617188 C 40.316406 35.851562 39.988281 36.09375 39.675781 36.351562 L 24.332031 21.074219 L 21.402344 24.007812 L 36.753906 39.28125 C 36.496094 39.585938 36.261719 39.90625 36.027344 40.226562 L 8.414062 24.316406 C 7.664062 25.488281 6.976562 26.679688 6.335938 27.902344 L 33.953125 43.804688 C 33.800781 44.160156 33.648438 44.519531 33.507812 44.878906 L 12.453125 39.203125 L 11.375 43.203125 L 32.429688 48.867188 C 32.363281 49.296875 32.296875 49.71875 32.253906 50.148438 L 0.0664062 50.171875 C 0.0234375 50.832031 0 51.503906 0 52.179688 C 0 52.890625 0.0234375 53.601562 0.0664062 54.308594 L 32.261719 54.277344 C 32.304688 54.660156 32.351562 55.042969 32.417969 55.417969 L 11.542969 60.964844 L 12.605469 64.964844 L 33.488281 59.414062 C 33.640625 59.796875 33.792969 60.179688 33.964844 60.550781 L 33.957031 60.550781 L 6.339844 76.460938 C 6.980469 77.683594 7.675781 78.875 8.414062 80.039062 L 36.03125 64.136719 L 36.03125 64.128906 C 36.265625 64.449219 36.492188 64.761719 36.742188 65.066406 L 21.265625 80.441406 L 24.1875 83.375 L 39.671875 67.988281 C 40 68.261719 40.335938 68.519531 40.679688 68.765625 L 24.773438 96.34375 C 25.9375 97.074219 27.140625 97.769531 28.367188 98.410156 L 44.273438 70.832031 C 44.640625 70.996094 45.015625 71.152344 45.390625 71.292969 L 39.773438 92.296875 L 43.78125 93.359375 L 49.398438 72.359375 C 49.789062 72.421875 50.171875 72.476562 50.570312 72.507812 L 50.570312 104.316406 C 51.257812 104.355469 51.953125 104.363281 52.648438 104.363281 C 53.34375 104.363281 54.03125 104.355469 54.710938 104.316406 L 54.710938 72.507812 C 55.125 72.46875 55.523438 72.414062 55.929688 72.351562 L 61.515625 93.132812 L 65.523438 92.054688 L 59.929688 71.277344 C 60.3125 71.136719 60.6875 70.980469 61.054688 70.816406 L 77.023438 98.363281 C 78.25 97.714844 79.445312 97.019531 80.609375 96.28125 L 64.640625 68.742188 C 64.96875 68.503906 65.289062 68.261719 65.609375 68.003906 L 80.953125 83.28125 L 83.882812 80.347656 L 68.53125 65.082031 C 68.785156 64.769531 69.019531 64.449219 69.253906 64.128906 L 96.878906 80.039062 C 97.617188 78.867188 98.3125 77.683594 98.953125 76.453125 L 71.335938 60.550781 L 71.324219 60.550781 C 71.480469 60.195312 71.636719 59.84375 71.78125 59.476562 L 92.835938 65.152344 L 93.914062 61.152344 L 72.859375 55.476562 C 72.925781 55.074219 72.992188 54.667969 73.015625 54.246094 L 74.722656 54.246094 "
  />
</svg>
