<svg xmlns="http://www.w3.org/2000/svg" id="root" viewBox="0 0 150 155">
  <path
    d="M 37.40625 16.9375 C 33.308594 16.9375 29.953125 18.03125 27.433594 20.191406 C 21.515625 25.269531 20.84375 35.660156 25.550781 49.449219 C 30.238281 63.195312 39.703125 78.691406 52.203125 93.082031 C 72.082031 115.96875 95.777344 131.34375 111.167969 131.34375 C 115.269531 131.34375 118.625 130.25 121.140625 128.089844 C 127.0625 123.011719 127.730469 112.621094 123.027344 98.832031 C 118.335938 85.089844 108.871094 69.59375 96.371094 55.199219 C 76.496094 32.316406 52.800781 16.9375 37.40625 16.9375 Z M 119.183594 155.003906 C 98.542969 155.003906 66.714844 134.328125 39.992188 103.558594 C 5.300781 63.617188 -9.695312 19.78125 6.5625 5.835938 C 9.886719 2.984375 14.324219 1.539062 19.757812 1.539062 C 40.402344 1.539062 72.226562 22.214844 98.953125 52.984375 C 115.773438 72.351562 128.507812 93.195312 134.808594 111.675781 C 141.097656 130.109375 140.238281 143.96875 132.382812 150.707031 C 129.058594 153.558594 124.617188 155.003906 119.1875 155.003906 C 119.183594 155.003906 119.1875 155.003906 119.183594 155.003906 "
  />
  <path
    d="M 67.257812 11.679688 C 64.121094 11.679688 61.550781 12.519531 59.621094 14.171875 C 50.308594 22.160156 58.789062 47.144531 78.527344 69.871094 C 93.707031 87.351562 111.808594 99.09375 123.570312 99.09375 C 126.707031 99.09375 129.277344 98.253906 131.207031 96.601562 C 140.519531 88.613281 132.039062 63.628906 112.300781 40.902344 C 97.121094 23.421875 79.019531 11.679688 67.257812 11.679688 Z M 129.691406 117.082031 C 113.941406 117.082031 89.65625 101.304688 69.261719 77.820312 C 42.792969 47.34375 31.339844 13.902344 43.734375 3.269531 C 46.265625 1.101562 49.648438 0 53.785156 0 C 69.535156 0 93.820312 15.777344 114.214844 39.261719 C 127.050781 54.039062 136.769531 69.949219 141.582031 84.050781 C 146.378906 98.109375 145.722656 108.675781 139.738281 113.808594 C 137.210938 115.980469 133.828125 117.082031 129.691406 117.082031 "
  />
  <path
    d="M 90.183594 10.253906 C 87.902344 10.253906 86.03125 10.863281 84.625 12.070312 C 77.867188 17.867188 84.003906 35.980469 98.304688 52.445312 C 109.300781 65.105469 122.417969 73.613281 130.941406 73.613281 C 133.222656 73.613281 135.09375 73 136.5 71.796875 C 139.792969 68.96875 140.167969 63.203125 137.558594 55.550781 C 134.964844 47.949219 129.730469 39.382812 122.820312 31.421875 C 111.824219 18.761719 98.707031 10.253906 90.183594 10.253906 Z M 135.371094 86.542969 C 123.984375 86.542969 106.421875 75.128906 91.667969 58.140625 C 82.378906 47.449219 75.347656 35.9375 71.867188 25.734375 C 68.402344 15.578125 68.871094 7.949219 73.1875 4.246094 C 75.011719 2.683594 77.449219 1.886719 80.433594 1.886719 C 91.820312 1.886719 109.382812 13.304688 124.136719 30.289062 C 143.277344 52.332031 151.566406 76.507812 142.613281 84.1875 C 140.792969 85.75 138.355469 86.542969 135.371094 86.542969 "
  />
  <path
    d="M 144.019531 58.988281 C 136.695312 58.988281 124.699219 50.839844 114.160156 38.703125 C 100.980469 23.53125 94.714844 7.363281 100.191406 2.667969 C 101.183594 1.816406 102.523438 1.382812 104.167969 1.382812 C 111.488281 1.382812 123.488281 9.535156 134.023438 21.667969 C 147.203125 36.84375 153.472656 53.011719 147.996094 57.707031 C 147.003906 58.558594 145.664062 58.988281 144.019531 58.988281 "
  />
</svg>
