<svg xmlns="http://www.w3.org/2000/svg" id="root" viewBox="0 0 17280 15950">
  <path
    d="M3635 13554C1649 12259 22 11196 18 11192s438-158 982-344l990-336 202 206c112 114 297 304 413 422 115 118 291 298 391 400 99 102 364 374 589 605s490 503 590 605 365 374 590 605 493 506 595 610c102 105 280 287 395 405s291 298 391 400c99 102 369 379 599 615 231 237 422 432 425 435 27 27 83 90 80 89-3 0-1629-1060-3615-2355zM10130 15804c57-60 186-192 285-294 100-102 365-374 590-605s490-503 589-605c100-102 276-282 391-400s293-300 395-405c102-104 370-379 595-610s578-593 785-805 544-558 750-770c206-211 467-477 580-591l205-208 987 337c741 253 984 340 975 348-9 9-7085 4625-7202 4699-16 10 17-30 75-91zM5139 12332c-47-51-433-447-1039-1067-471-483-963-988-1043-1071l-68-70 102-175c132-226 414-734 567-1021 1285-2405 2134-4579 2381-6098 52-322 73-530 87-850l6-155 275-260c151-143 284-269 296-280 83-76 509-465 582-531 451-405 849-711 973-749l22-6v2718l-480 815-480 816v7027l-1026 490c-564 270-1043 498-1064 507l-38 17-53-57zM11023 11882l-1062-507-1-3515V4345l-480-815-480-815V-1l23 6c105 32 359 218 732 539 207 178 657 584 855 771 115 110 418 395 486 458l61 57 6 223c29 1098 497 2699 1340 4592 460 1034 1135 2355 1684 3298 60 103 101 183 96 190-4 7-104 111-223 232-180 183-1462 1497-1861 1907l-114 118-1062-508z"
  />
</svg>
