<svg xmlns="http://www.w3.org/2000/svg" id="root" viewBox="0 0 1000 1470">
  <path d="M473 1453c-27-18-29-40-7-71 18-26 56-29 78-6 25 25 20 58-13 77-34 20-30 20-58 0z" />
  <path
    d="M404 1388c2-27 1-48-3-48-17 1-55 30-67 51-11 20-13 21-14 6 0-21 50-72 101-102l34-20 3-124c3-119 2-126-27-187-30-64-63-100-228-251-72-65-154-176-140-189 3-3 12 7 20 23 8 15 27 39 42 53l28 25-6-61c-2-33-14-80-26-105l-22-44 26 30c30 36 55 112 55 170 0 38 4 45 40 69 22 14 42 26 45 26s5-19 6-42c0-24 4-52 8-63 6-16-1-30-34-66-45-51-65-102-71-188l-4-56 15 64c16 70 57 145 92 168 21 14 22 13 33-43 7-32 15-107 20-168l7-111 1 135c0 74-3 158-9 185-22 120-22 159-1 202 12 22 39 55 61 72 22 18 55 54 72 81 30 46 49 56 49 26 0-7 18-34 40-59s40-50 40-57c0-21-30-69-79-125-58-67-76-122-61-189 9-41 7-49-15-82-33-49-45-96-44-174 1-97 14-124 15-33 1 80 20 141 58 188 13 17 17 18 26 5 29-42 51-130 59-233l9-112-2 135c-2 130-3 138-35 210-61 134-52 187 48 284 28 27 53 57 56 67 10 30 22 22 40-24 16-41 15-49-4-151-15-76-21-142-20-229l2-122 8 95c13 146 29 230 44 230 32 0 88-92 106-174 8-37 8-36 5 20-4 69-40 150-82 183-25 20-26 23-16 64 6 23 9 53 5 65-7 29 1 28 48-5 30-22 39-35 39-58 1-51 20-118 46-163 28-48 44-51 20-4-20 39-38 121-31 140 5 12 9 12 27-4 11-11 29-32 39-49 12-19 19-24 19-14 0 37-83 139-196 240-163 145-169 158-169 353v149l52 31c58 35 83 61 82 91 0 19-1 18-9-2-5-12-23-29-39-38l-31-16-1 48-1 48-10-35c-11-40-22-53-62-74-27-13-33-13-67 4-27 15-41 31-53 62l-16 43 4-47z"
  />
  <path
    d="M221 1248c-100-98-151-165-187-242-37-81-32-173 16-269 18-37 36-69 39-72 4-2 21 14 38 35l32 37-20 54c-26 66-21 126 15 198 32 62 47 73 40 29-6-37 24-128 56-168l20-25 54 56c83 89 96 123 96 261v116l-31 13c-18 7-44 23-59 35l-27 23-82-81zM674 1302c-12-9-36-25-53-34l-31-17v-118c0-154 9-183 77-255 31-32 60-58 64-58 14 0 79 142 79 174 0 17-4 47-10 66l-9 35 24-29c13-16 36-54 51-85 36-72 37-136 5-214l-24-59 30-29 30-30 31 59c47 87 64 166 52 230-13 68-37 115-108 204-53 66-167 179-181 178-4-1-16-8-27-18zM427 780l-68-67 34-33c19-18 39-31 43-30 11 3 114 121 114 129-1 3-13 20-28 37l-27 32-68-68zM221 611c-1-27 2-32 11-23 8 8 8 17 0 34-10 22-11 21-11-11zM706 445c-11-30-6-40 11-22 12 12 14 20 6 28-7 7-12 6-17-6zM380 420c0-19 1-31 3-29 1 2 8 11 15 20 10 13 9 19-3 29-13 11-15 8-15-20zM578 403c-13-16-13-23 3-63l18-45v63c1 34-1 62-2 62-2 0-11-8-19-17zM460 291c-13-31-12-34 11-52s24-18 27 0c2 10-3 33-10 52l-14 33-14-33z"
  />
</svg>