<svg xmlns="http://www.w3.org/2000/svg" viewBox="0 0 1420 1440">

  <path
    d="M679 1406c-77-27-187-98-244-157l-40-40 50 21c28 12 87 30 132 41 46 11 113 35 150 54 104 52 202 68 283 45l35-10-24 19c-70 54-230 67-342 27zM544 1231c-72-33-150-150-161-241-7-62 13-121 69-200 112-159 130-207 108-289-6-23-27-60-47-82l-35-39 58-1c58-1 58-1 29-14-51-23-155-36-213-27l-54 9 47-48c55-55 97-69 207-69 60 0 84 5 126 26 63 31 81 54 157 208 55 111 64 123 109 151 64 39 150 42 209 7l38-22-7 22c-3 13-13 36-21 51-26 52-5 40 41-22 24-34 50-78 57-99l13-37 12 40c20 64 16 111-14 178-72 158-149 195-364 174-135-12-178-4-234 45-47 42-74 97-74 155l-1 48-45-50-45-50 17 45c22 55 40 87 73 123 23 25 23 27 5 27-10 0-37-9-60-19z" />
  <path
    d="M976 1211c-4-5-4-16 0-24 8-22-21-83-50-102-33-22-89-22-122 0-26 17-26 17-73-36-25-29-46-58-46-63 0-6 20-21 45-34 42-22 52-23 135-16 88 8 176 10 245 5 19-2 59 3 88 10 66 16 130 2 185-42l38-31-7 29c-8 38-59 148-85 184-11 16-37 38-56 48-35 18-36 17-59-6-13-12-35-23-49-23-33 0-75 41-75 73 0 14-7 28-16 31-24 9-92 7-98-3zM204 1162c-96-112-135-234-80-248 62-15 80-90 31-131-28-24-28-25-11-59 14-30 19-33 35-24 11 5 38 10 60 10 31 0 46-7 71-31 27-28 31-38 29-78l-3-46 94-22c107-25 114-22 105 41-7 48-27 86-81 157-47 61-94 144-94 165 0 7-20 36-44 63-57 64-81 126-73 191 3 28 3 50-1 49-4 0-21-17-38-37zM1346 695c-3-16-17-77-31-135s-25-130-25-160c0-98-30-185-97-279-17-24-17-24 6-11 82 43 158 156 182 268 14 67 6 223-14 297-14 48-15 49-21 20zM4 577c8-143 102-265 260-342 50-24 116-51 146-60l55-15-35 27c-19 14-70 62-114 105-43 43-96 88-118 99-80 41-148 121-185 217-14 36-14 36-9-31zM975 598c-46-25-70-59-120-163-28-61-65-126-82-145s-38-58-47-86c-23-72-75-129-138-152-60-22-53-27 68-43 99-13 152-7 205 23 33 19 36 23 28 45-20 54 42 114 96 93 33-13 40-8 65 40 27 52 25 64-9 77-81 30-84 163-5 193 18 7 24 15 20 28-2 9-10 36-17 60-13 44-27 51-64 30z" />
</svg>