<svg xmlns="http://www.w3.org/2000/svg" viewBox="0 0 1480 1370">
  <path
    d="M697 1354c-17-47-69-103-144-157-93-65-143-120-180-197-29-62-40-161-25-225l10-40 1 45c2 52 37 145 72 187 13 16 43 45 66 63 23 19 41 36 39 38s-20-4-40-12c-45-19-46-8-2 22 43 29 118 58 176 66l45 6-3 88c-1 48-4 98-5 112-2 24-3 24-10 4zM770 1278c0-53-3-103-6-111-4-12 5-17 43-23 70-10 143-39 183-74l35-30-37 15c-47 19-59 19-33-1 96-72 153-160 163-253 4-45 7-51 13-31 12 44 10 122-7 179-28 101-89 172-240 281-29 21-63 58-81 90l-33 54v-96z"
  />
  <path
    d="M257 1343c-45-6-119-23-164-38-80-25-83-27-83-56 0-110 96-340 180-432 48-52 116-104 125-95 2 2-1 33-7 70-11 64-3 130 27 224 5 17 0 22-32 32-53 16-149 81-203 138l-45 47 66-46c81-57 185-107 222-107 22 0 41 13 80 56 28 31 82 76 119 101s68 51 68 58c0 39-213 69-353 48zM933 1329c-37-12-63-25-63-33s31-34 68-59 92-71 120-102c48-53 56-57 86-52 49 8 136 52 206 103 33 24 60 41 60 38 0-25-172-153-237-176-28-10-33-16-28-33 30-92 38-159 27-223-6-37-9-68-7-70 9-9 77 42 122 92 83 91 163 274 179 410l6 54-63 21c-166 55-359 67-476 30zM693 1102c-53-28-102-80-114-123-24-79 21-192 116-290l49-52 49 53c26 29 61 79 78 111 70 139 42 236-88 303-39 20-50 20-90-2z"
  />
  <path
    d="M497 980c-65-71-80-113-75-205 5-93 38-175 112-279 49-69 189-206 210-206 23 0 169 152 223 232 64 96 93 180 93 270 0 83-15 122-71 183-48 52-59 53-30 4 11-19 25-62 32-97 11-54 11-74-3-140-8-42-23-93-31-112l-15-35 5 65 5 65-37-59c-44-71-117-158-151-181-20-13-28-14-43-3-34 24-130 142-161 197l-31 56 4-70c5-65 4-68-8-40-8 17-21 63-31 103-20 91-13 162 25 237 15 30 25 55 21 55s-24-18-43-40z"
  />
  <path
    d="M416 553c-20-145 89-351 263-502l62-54 57 50c178 155 298 387 265 513l-10 35-21-42c-32-61-135-186-208-250-61-53-64-59-65-102 0-25-4-68-8-96-9-61-17-39-26 75l-6 76-59 48c-68 57-150 153-202 237l-36 59-6-47z"
  />
</svg>
