<svg xmlns="http://www.w3.org/2000/svg" viewBox="0 0 1310 1010">
  <path
    d="M733 996c-130-32-253-129-309-245l-29-60-108-42c-59-23-106-43-104-45 3-4 1081 116 1085 121 10 9-55 104-103 150-111 109-282 157-432 121zM935 409C631 149 592 112 566 61L538 5l55 53 54 54 54-16c64-19 198-22 260-6 213 57 366 276 343 495-3 33-11 72-17 88l-12 27-340-291zM880 629c-91-16-230-40-310-54-205-36-200-35-200-53 0-12-50-40-170-96-93-44-169-81-167-82 2-2 1016 300 1042 310 25 11-43 2-195-25zM792 490c-195-87-356-161-359-164s2-17 12-32c16-25 16-28-2-53C362 129 328 78 341 86c22 13 770 530 794 548 11 8 18 15 15 15-3-1-164-72-358-159zM735 533l-270-86-102-74c-57-41-103-77-103-79 0-3 3-3 8 0 4 2 174 75 377 161 204 86 372 159 374 161 10 9-26-1-284-83z"
  />
</svg>
