<svg xmlns="http://www.w3.org/2000/svg" viewBox="0 0 1190 1370"><path d="M541 1068c-30-167-56-308-59-315-2-7-56-56-120-110-65-54-119-100-122-103s-56-47-118-99-111-95-109-97c1-2 133 44 292 102l290 104 289-105c160-57 291-103 293-101 2 1-103 92-232 201S710 744 709 744c0 1-26 142-57 314l-57 312-54-302zm73-376c4-7-49-102-57-102-1 0-65-23-141-50-76-28-140-49-143-46-2 2 50 49 117 105 117 98 123 101 170 101 27 0 51-4 54-8z"/><path d="M410 1177c-68-23-159-79-198-120-26-28-31-24 67-58l54-19 46 29c25 16 56 32 68 36 13 3 25 16 28 28 15 65 25 113 25 120 0 12-21 8-90-16zM696 1173c3-16 8-48 12-73 7-42 11-46 75-83l68-38 70 23c38 12 69 25 69 29 0 11-86 80-133 107-35 19-145 62-161 62-3 0-3-12 0-27zM175 882c99-83 182-152 185-152s20 12 37 28c24 20 33 38 38 75 4 31 3 47-5 47s-275 94-418 147c-9 4 64-62 163-145zM970 954c-113-42-209-79-213-83-16-15 11-94 40-117 15-13 30-23 33-23s85 67 183 149c98 83 175 150 170 149-4 0-100-34-213-75zM82 853c-33-61-40-264-13-336l11-28 55 46 55 47v77c0 42 3 85 6 97 4 16-7 31-50 68-49 42-56 45-64 29zM1035 816l-49-43 1-92 2-92 55-45 56-45 12 28c24 60 8 334-20 333-4 0-29-20-57-44zM544 465l-31-14 38-213c21-117 40-220 42-228 1-8 13 43 25 115 13 72 32 174 41 228l19 98-27 10c-45 18-75 19-107 4zM242 355c-35-13-65-25-68-27-2-3 21-28 51-57 58-55 175-117 240-128l38-6-7 49c-13 90-15 92-77 120-32 15-64 33-71 41-24 30-43 31-106 8zM831 350c-19-16-54-37-77-47-43-18-43-19-55-86-6-38-9-71-6-74 9-9 110 26 162 56 65 37 159 121 148 132-8 8-120 49-132 49-3-1-21-14-40-30z"/></svg>