<svg xmlns="http://www.w3.org/2000/svg" viewBox="0 0 1370 1370"><path d="M495 1180 305 990l63-62 62-63 127 128 128 127 130-130 130-130 63 63 62 62-193 193-192 192-190-190z"/><path d="M495 870 305 680l60-60 60-60 125 125c69 69 130 125 135 125s66-56 135-125l125-125 60 60 60 60-190 190-190 190-190-190z"/><path d="M137 822 0 685l138-138c138-138 138-138 157-117s18 21-95 135L85 680l118 118 118 118-24 22-23 22-137-138zM1077 942c-9-10-17-23-17-28s51-59 112-121l113-113-115-115c-115-115-115-115-95-135s20-20 158 118l137 137-138 138c-133 133-139 137-155 119zM495 570 305 380l193-192L690-5l62 63 63 62-130 130-130 130 65 65 65 65 130-130 130-130 63 63 62 62-193 193-192 192-190-190z"/></svg>