<svg xmlns="http://www.w3.org/2000/svg" id="root" viewBox="0 0 1450 1460">
  <path
    d="M355 1090-5 730l360-360C553 172 719 10 725 10s172 162 370 360l360 360-360 360c-198 198-364 360-370 360s-172-162-370-360zm725-15 345-345-350-350L725 30 375 380 25 730l345 345c190 190 349 345 355 345s165-155 355-345z"
  />
  <path
    d="M395 1060 65 730l330-330L725 70l330 330 330 330-330 330-330 330-330-330zm425 170c8-5 24-18 34-29l19-21h-45c-25 0-61-3-79-6-33-5-33-5-14 11 11 9 29 22 40 30 16 11 9 11-40-2-66-17-100-32-162-75-61-41-54-15 15 55l57 58 80-6c44-4 87-11 95-15zm-60-129c0-5-5-11-10-13-6-2 29-3 77-3 86 0 163-17 163-36 0-5-11-9-25-9s-25-4-25-10c0-5 8-10 18-10 29 0 116-56 156-100 52-58 93-151 101-230l6-65-77-75c-42-41-74-66-70-55 55 155 46 260-30 362-30 40-30 45 2 32 42-15 39-4-9 35-58 48-138 83-217 95-67 11-114 13-93 4 9-3-87-62-104-63-1 0-3 8-5 17-5 26-75-84-89-139-6-26-9-53-6-60s6-2 7 12c0 14 10 41 21 60s17 26 13 15c-15-47-21-85-17-112 5-27 5-27-11-8-15 19-16 19-6-8 5-15 17-41 25-57 10-20 12-30 4-30-21 0 10-27 54-48 48-22 127-37 127-23 0 9 33 23 59 25 15 1 51 63 50 86 0 10-3 9-9-5-5-11-9-15-10-10 0 6-7-1-15-15-7-14-19-25-27-25-7-1-23-6-34-13-31-17-77 0-126 46-39 38-42 44-42 96s3 57 50 106c64 66 148 88 221 59 24-10 25-12 10-18-15-5-11-9 17-19 39-14 92-70 111-116 16-40 13-183-5-216l-14-25-6 24c-5 21-8 18-30-29-30-65-95-123-167-150-52-19-85-20-54-1 7 5-18 6-56 4-102-8-246 38-155 49 24 3 20 7-35 32-120 55-205 179-217 316l-7 75 81 80c44 44 80 77 80 75 0-3-9-30-21-60s-23-90-26-132c-5-72-4-82 25-140 18-35 39-73 48-86 17-22 17-22-11-12-41 16-40 7 2-30 51-45 145-87 223-99 63-11 153-14 102-4-18 4-12 9 35 34 69 34 61 33 65 13 5-24 68 68 84 123 19 64 17 90-11 148-16 33-21 51-13 56 6 4-8 17-33 32-60 34-82 39-113 27-18-6-25-6-21 0 9 14-1 12-36-5-16-9-33-13-38-10-10 6-35-30-45-65-6-19-5-21 3-10 6 8 11 11 11 5 1-5 8 3 16 18 9 16 21 26 28 24 6-3 20 1 31 9 21 16 39 19 31 5-3-4 5-6 18-4 19 4 35-6 71-40l46-45-3-64c-2-44-7-62-15-60-7 1-13-4-13-11 0-15-55-69-87-86-28-14-113-14-150 0-25 10-26 12-8 18 17 7 17 8-8 15-36 9-94 61-117 105-22 44-22 190 0 231l14 25 6-25c6-24 7-23 20 15 19 56 103 137 170 163 63 24 70 25 70 13zm95-106c6-2-21-4-60-4-64 0-68 1-46 13s55 10 106-9zm70-35c4-6-6-7-27-3-44 8-48 13-10 13 17 0 34-4 37-10zm15-270c0-14-9-43-20-65s-17-31-13-20 9 47 11 79c3 40 7 54 13 45 5-8 9-25 9-39zm-62-407-66-66-97 11c-79 9-103 16-122 34l-25 23 89 6c48 3 89 5 91 3 2-1-16-14-40-28l-43-26 35 6c59 11 133 42 185 78 28 18 52 32 55 29 2-2-26-34-62-70z"
  />
</svg>
