<svg xmlns="http://www.w3.org/2000/svg" viewBox="0 0 1080 1320"><path d="M528 1290c-25-58-57-161-73-234-15-63-15-70 1-87 9-11 20-19 24-19 3 0 14 27 24 59 10 33 23 67 30 76 13 18 12 20 55-98 10-25 13-26 32-15 17 11 19 19 14 53-6 44-56 212-79 265l-14 34-14-34zM385 1093c-47-43-49-46-30-60 47-34 54-35 61-6 3 16 10 45 16 67 5 21 8 39 6 41s-25-17-53-42zM650 1110c0-16 22-100 26-100 2 0 17 8 33 18l30 18-44 38c-25 20-45 32-45 26z"/><path d="M220 1046c36-96 121-225 205-315 38-39 66-73 64-75-11-10-89-56-95-56-3 0 3 16 15 35 17 30 19 39 8 55-6 11-15 20-18 20-8 0-109-141-169-238-42-68-47-81-28-71 57 29 280 183 345 239l73 61 29-48c16-26 28-49 27-51-2-1-20 7-40 19-35 21-38 21-56 4-19-18-19-19 41-63 65-47 208-140 247-161 19-10 14 3-28 71-69 111-162 239-227 313l-52 60 36 37c37 38 170 115 180 104 10-10-29-87-75-149-26-35-40-63-35-68 16-16 134 158 178 264l15 37-72-36c-109-55-200-118-280-195-39-38-75-69-79-69-25 0-152 200-137 215 9 9 107-43 156-82 30-25 47-32 54-25 14 14-84 86-201 146-87 45-90 46-81 22zm348-269 31-44-29-21c-16-12-32-22-35-22s-19 10-35 22l-29 21 31 44c17 23 32 43 33 43s16-20 33-43z"/><path d="M197 884c-20-31-37-60-37-64 0-7 118 15 127 23 2 3-9 26-24 51l-29 46-37-56zM807 893c-16-25-27-47-25-48 4-3 106-25 119-25 11 0-9 42-43 87l-24 32-27-46zM135 777-4 746l44-13c25-7 99-25 165-39 113-23 120-24 132-8 15 20 3 33-32 34-11 1-33 7-50 14l-30 13 58 13c60 14 65 18 45 38-17 17-34 15-193-21zM741 796c-15-17-10-20 56-36 29-6 51-15 48-20-2-4-32-13-65-20-63-13-70-19-45-40 11-9 40-7 142 15 70 14 146 31 168 37l40 11-30 8c-51 15-264 59-284 59-10 0-24-6-30-14zM145 651c10-39 57-141 65-141 9 0 95 129 89 134-2 2-39 10-82 18l-79 15 7-26zM835 655c-33-6-59-16-58-23 2-6 21-39 43-73l40-62 29 64c16 35 32 74 36 87 7 26 3 26-90 7zM449 524c-10-12-10-30-1-90 15-93 81-405 90-418 9-16 67 228 96 410 12 79 12 85-5 94-19 11-22 7-34-60-20-108-48-211-55-203-9 8-60 229-60 256 0 23-16 29-31 11zM335 449c-33-22-59-43-57-47 3-10 115-149 156-195l34-37-18 87c-10 49-23 121-30 161-6 39-15 72-18 71-4 0-34-18-67-40zM649 338l-25-141 44 48c24 27 64 75 88 106l43 57-58 36c-33 20-61 36-63 36s-15-64-29-142z"/></svg>