<svg xmlns="http://www.w3.org/2000/svg" id="root" viewBox="0 0 2500 6400">
  <path
    d="M1169 6238c-68-49-226-188-310-275-139-142-213-249-261-379-20-54-22-78-22-259-1-185 2-209 28-320 56-237 177-568 296-805 81-163 141-267 501-871 296-498 426-727 484-855 67-146 192-468 218-564 47-168 76-400 77-615 1-121 11-190 24-160 97 236 146 529 146 880 0 320-22 505-96 800-66 264-207 690-344 1040-188 480-356 1007-424 1325-58 271-70 438-56 740 5 102 4 106-24 155-30 50-165 195-183 195-6 0-30-14-54-32z"
  />
  <path
    d="M1549 5858c-19-35-6-340 21-473 26-135 98-422 151-610 46-160 145-463 159-485 7-11 21 11 59 90 160 336 157 649-8 974-82 160-333 526-361 526-5 0-15-10-21-22zM342 5094c-169-384-213-672-157-1044 37-249 99-436 230-695 173-342 406-681 900-1307 253-320 418-612 520-923 46-137 115-439 115-499 0-19 4-37 9-40 12-8 84 153 110 244 32 110 48 348 32 472-13 103-80 365-129 508-153 438-232 596-782 1565-285 502-354 628-456 840-194 401-290 682-310 907-12 126-14 125-82-28zM2136 4578c-12-75-75-250-130-358l-52-105 38-110c21-60 55-157 75-215l37-105 23 54c87 198 128 553 83 725-24 90-49 156-60 156-4 0-10-19-14-42zM335 3172c-134-332-195-688-196-1137 0-255 10-364 47-504 25-96 100-285 133-335l18-28 7 109c34 552 109 824 330 1198 36 61 66 114 66 118s-37 61-83 125c-82 115-187 276-261 399-43 72-51 80-61 55z"
  />
  <path
    d="M752 2310c-110-225-193-490-242-766-26-150-38-468-21-602 29-231 168-518 341-702l61-65-5 35c-29 187-45 673-27 842 30 291 120 569 272 842 50 89 60 114 53 132-10 27-188 242-292 354l-70 75-70-145zM1694 985c1-285-3-329-55-644-16-101-27-186-24-189 3-4 39 28 79 70 124 130 179 264 179 433 0 156-43 318-132 500l-48 100 1-270z"
  />
</svg>
