<svg xmlns="http://www.w3.org/2000/svg" id="root" viewBox="0 0 150 147">
  <path
    d="M 87.886719 128.617188 C 85.257812 130.472656 83.675781 133.472656 83.640625 136.683594 C 83.640625 142.398438 88.675781 146.941406 94.886719 146.941406 C 101.101562 146.941406 106.132812 142.398438 106.132812 136.683594 C 106.132812 133.394531 104.480469 130.496094 101.886719 128.617188 L 101.886719 114.679688 L 87.886719 114.679688 Z M 87.886719 128.617188 "
  />
  <path
    d="M 50.609375 128.617188 C 47.980469 130.472656 46.398438 133.472656 46.363281 136.683594 C 46.363281 142.398438 51.394531 146.941406 57.609375 146.941406 C 63.824219 146.941406 68.855469 142.398438 68.855469 136.683594 C 68.855469 133.394531 67.203125 130.496094 64.609375 128.617188 L 64.609375 114.679688 L 50.609375 114.679688 Z M 50.609375 128.617188 "
  />
  <path
    d="M 13.332031 128.617188 C 10.699219 130.472656 9.121094 133.472656 9.085938 136.683594 C 9.085938 142.398438 14.117188 146.941406 20.332031 146.941406 C 26.542969 146.941406 31.578125 142.398438 31.578125 136.683594 C 31.578125 133.394531 29.925781 130.496094 27.332031 128.617188 L 27.332031 114.679688 L 13.332031 114.679688 Z M 13.332031 128.617188 "
  />
  <path
    d="M 122.6875 128.617188 C 120.058594 130.472656 118.476562 133.472656 118.441406 136.683594 C 118.441406 142.398438 123.476562 146.941406 129.6875 146.941406 C 135.902344 146.941406 140.933594 142.398438 140.933594 136.683594 C 140.933594 133.394531 139.28125 130.496094 136.6875 128.617188 L 136.6875 114.679688 L 122.6875 114.679688 Z M 122.6875 128.617188 "
  />
  <path
    d="M 101.867188 18.382812 C 104.460938 16.503906 106.113281 13.605469 106.113281 10.316406 C 106.113281 4.601562 101.082031 0.0585938 94.867188 0.0585938 C 88.65625 0.0585938 83.621094 4.601562 83.621094 10.316406 C 83.621094 13.605469 85.273438 16.503906 87.867188 18.382812 L 87.867188 32.320312 L 101.867188 32.320312 Z M 101.867188 18.382812 "
  />
  <path
    d="M 136.667969 18.382812 C 139.261719 16.503906 140.914062 13.605469 140.914062 10.316406 C 140.914062 4.601562 135.882812 0.0585938 129.667969 0.0585938 C 123.457031 0.0585938 118.421875 4.601562 118.421875 10.316406 C 118.421875 13.605469 120.074219 16.503906 122.667969 18.382812 L 122.667969 32.320312 L 136.667969 32.320312 Z M 136.667969 18.382812 "
  />
  <path
    d="M 64.589844 18.382812 C 67.183594 16.503906 68.835938 13.605469 68.835938 10.316406 C 68.835938 4.601562 63.804688 0.0585938 57.589844 0.0585938 C 51.375 0.0585938 46.34375 4.601562 46.34375 10.316406 C 46.34375 13.605469 47.996094 16.503906 50.589844 18.382812 L 50.589844 32.320312 L 64.589844 32.320312 Z M 64.589844 18.382812 "
  />
  <path
    d="M 27.3125 18.382812 C 29.90625 16.503906 31.558594 13.605469 31.558594 10.316406 C 31.558594 4.601562 26.523438 0.0585938 20.3125 0.0585938 C 14.097656 0.0585938 9.066406 4.601562 9.066406 10.316406 C 9.066406 13.605469 10.71875 16.503906 13.3125 18.382812 L 13.3125 32.320312 L 27.3125 32.320312 Z M 27.3125 18.382812 "
  />
  <path
    d="M 142.980469 29.953125 L 7.078125 29.953125 C 3.148438 29.953125 0.0820312 33.085938 0.0820312 36.921875 L 0.0820312 109.980469 C 0.0820312 113.894531 3.226562 117.027344 7.078125 117.027344 L 142.980469 117.027344 C 146.910156 117.027344 149.980469 113.894531 149.980469 109.980469 L 149.980469 37 C 149.980469 33.085938 146.832031 30.03125 142.980469 30.03125 "
  />
</svg>
