<svg xmlns="http://www.w3.org/2000/svg" viewBox="0 0 3680 4060"><path fill="#000" d="M1775 4040c-22-10-71-33-110-50-298-133-719-349-842-432-23-15-45-28-48-28-11 0-483-321-588-399-53-40-101-80-106-89-8-17-12-44-32-222-53-478-53-1110 0-1585 19-167 24-200 32-217 18-35 571-416 794-546 206-120 412-225 736-375 140-65 217-97 231-97 7 0 67 25 133 55 66 31 138 63 160 73 117 50 579 290 700 364 287 173 735 484 760 527 14 25 38 232 60 526 17 231 20 716 5 920-22 304-48 531-65 570-8 19-44 53-96 90-46 33-86 62-89 65-22 22-409 280-545 362-205 124-428 241-690 363-356 166-331 158-400 125zm13-992 2-818-40-25c-22-14-45-25-51-25-10 0-89 44-459 257-52 31-110 64-128 74-80 46-82 49-82 95 0 38-5 49-41 85l-42 42 7 96c37 551 45 611 79 611 22 0 67 54 78 92 9 35 17 40 232 146 358 176 391 191 417 189l25-2 3-817zm199 796c227-103 529-254 571-287 7-5 20-26 29-45s31-43 48-53c31-19 32-20 44-137 23-223 30-308 37-450l6-143-25-27c-29-30-47-72-47-107 0-15-9-30-22-38s-90-54-173-102c-82-48-199-116-258-151s-110-64-113-64-25-13-49-30c-24-16-49-30-55-30-5 0-28 11-50 25l-40 25v813c0 448 3 817 7 820 11 12 31 8 90-19zM907 3408c-8-32-36-367-45-532-7-137-7-139-35-160l-28-20-47 25c-187 103-472 274-472 284 0 7 42 44 93 82 98 74 392 273 402 273 3 0 29 16 58 35 61 41 82 45 74 13zm1915-3c20-14 39-25 42-25 6 0 190-119 271-175 135-93 241-170 247-178 11-18-1-31-65-68-34-20-129-75-212-124-215-126-214-125-233-125-47 0-53 17-62 185-9 145-19 281-36 468-4 38-3 67 2 67s26-11 46-25zM270 2870c14-11 28-20 32-20s31-14 60-31c77-46 99-59 253-147 190-108 192-97-40-251-99-66-210-142-246-168-152-109-161-115-170-106s11 422 31 617c13 127 28 147 80 106zm3204-22c26-181 52-683 37-693-6-3-66 35-135 83-69 49-199 138-290 197-133 86-166 112-166 130 0 29 1 29 150 115 69 40 140 81 158 91 17 11 47 27 65 38 17 10 55 32 82 49 72 44 91 42 99-10zm-2471-396c7-5 28-19 47-30 298-168 596-345 603-357 4-8 7-30 5-47-3-34 5-28-203-148-16-9-55-32-85-50s-68-41-85-50c-16-10-70-41-120-70-49-29-106-62-127-73l-36-20-27 22c-37 29-116 29-156 1-24-18-32-19-51-9-39 21-256 167-405 273-130 92-143 104-143 131s10 38 82 90c152 111 433 304 465 320 18 9 35 19 37 24 8 12 184 5 199-7zm1910-20c27-18 50-32 54-32 6 0 235-156 383-262 135-96 136-103 25-185-44-32-109-79-145-103s-67-46-70-50-34-26-69-51c-35-24-93-65-129-90l-66-46-31 18c-41 25-107 24-153-2l-37-21-55 32c-52 31-68 40-155 90-89 51-326 189-390 227-41 24-51 35-53 61-4 42 9 63 55 88 21 12 137 79 258 149s234 135 250 145c116 67 112 65 198 65 76-1 87-3 130-33zm602-675c-6-164-31-495-41-554-8-40-24-42-84-7-141 82-183 106-210 121-156 85-255 151-258 171-4 25 57 92 84 92 8 0 14 4 14 8 0 5 15 16 33 25 17 9 59 36 92 60 34 23 106 74 160 112 55 38 122 86 149 107 28 20 54 34 58 32 5-3 6-79 3-167zm-3255 91c70-50 221-152 463-313 25-17 37-32 37-48 0-22-24-39-155-113-20-11-66-37-127-73-18-10-81-47-141-81-106-61-136-68-138-33 0 10-4 56-9 103-15 138-41 601-34 611 9 15 15 12 104-53zm1528-779c1-437 0-803-2-814-3-11-18-28-34-37-28-17-29-17-176 52-136 64-241 116-402 200l-60 31v50c0 58-22 94-80 126-39 22-39 22-46 100-17 185-29 357-35 479l-6 131 31 21c16 12 37 39 45 61 10 23 28 45 44 53 15 8 45 24 66 36 20 12 52 30 70 41 17 10 131 76 252 146 298 173 264 158 300 137l30-18 3-795zm207 810c6-4 87-51 180-104 94-54 185-106 203-116 17-11 48-28 67-39 191-109 199-115 216-151 10-19 30-46 47-61l30-26-4-114c-5-144-22-367-36-484-11-89-12-91-46-110-51-28-76-66-78-122l-2-47-113-60c-238-125-503-244-520-234-52 27-49-22-49 848v807l33 16c31 15 50 14 72-3zM854 1328c3-29 8-109 11-178s13-203 21-299 13-180 10-187c-3-8-14-14-25-14-15 0-435 268-451 289-3 3-31 24-63 46-78 53-84 61-62 85 10 11 21 20 26 20 4 0 37 18 74 41 69 42 121 72 165 96 14 7 77 44 140 82s123 69 132 70c13 1 18-11 22-51zm2140-24c128-75 160-94 231-134 43-24 89-51 132-76 18-11 35-24 37-31 3-7-38-44-90-83-147-110-470-320-492-320-37 0-44 22-33 107 11 84 27 294 37 491 6 114 8 122 26 122 12 0 80-34 152-76z"/></svg>