<svg id="root" xmlns="http://www.w3.org/2000/svg" width="360" height="360" viewBox="300 300 3000 3000">
  <path
    d="M1611 3279 c-17 -10 -31 -24 -31 -30 0 -8 -6 -6 -17 4 -17 14 -42 21 -71 18 -7 0 -23 -12 -36 -26 -21 -22 -27 -24 -49 -14 -36 16 -74 4 -95 -30 -14 -23 -21 -27 -35 -19 -10 5 -32 8 -50 6 -25 -2 -35 -10 -47 -35 -14 -30 -18 -31 -56 -26 -34 4 -45 1 -63 -18 -11 -12 -21 -31 -21 -41 0 -16 -6 -18 -32 -14 -50 8 -88 -18 -88 -61 0 -20 -5 -23 -38 -23 -45 0 -72 -24 -75 -66 -2 -25 -7 -29 -34 -29 -43 -1 -73 -30 -73 -72 0 -30 -3 -33 -29 -33 -39 0 -71 -39 -64 -80 3 -25 1 -30 -15 -30 -11 0 -32 -10 -47 -21 -22 -18 -26 -28 -23 -60 3 -36 1 -40 -29 -50 -36 -12 -48 -38 -41 -89 4 -25 1 -31 -19 -36 -35 -9 -55 -54 -42 -94 6 -17 10 -32 8 -33 -2 -1 -13 -7 -24 -13 -34 -19 -46 -53 -30 -90 13 -31 12 -34 -11 -48 -32 -21 -40 -58 -21 -96 15 -29 15 -32 -9 -55 -28 -28 -30 -56 -7 -96 15 -25 15 -30 1 -46 -27 -32 -29 -54 -6 -94 20 -36 20 -40 5 -57 -24 -26 -21 -56 7 -89 22 -26 23 -31 10 -53 -20 -38 -17 -59 16 -91 28 -28 29 -32 16 -57 -12 -23 -12 -33 -1 -59 7 -17 23 -34 34 -38 18 -5 20 -12 14 -50 -6 -49 5 -71 44 -86 18 -7 21 -12 14 -36 -12 -40 3 -72 41 -87 28 -12 31 -18 32 -57 1 -42 3 -45 43 -64 38 -17 42 -23 41 -52 -2 -41 15 -61 58 -69 29 -5 34 -10 34 -33 0 -40 22 -63 65 -70 33 -5 38 -10 41 -36 4 -38 37 -65 80 -65 26 0 34 -4 34 -18 0 -38 29 -62 73 -62 38 0 44 -3 54 -30 13 -36 50 -52 91 -41 26 8 30 6 39 -20 14 -36 53 -52 90 -38 20 7 29 7 34 -3 23 -40 38 -51 67 -50 17 0 39 5 48 10 13 7 23 3 42 -19 27 -32 60 -37 96 -14 21 14 24 13 46 -10 27 -29 65 -32 98 -9 21 14 24 14 48 -5 33 -26 50 -26 92 -1 30 19 35 19 55 5 31 -22 64 -18 93 10 23 23 27 24 47 10 33 -23 66 -18 96 14 25 27 29 28 53 15 33 -17 70 -5 93 30 14 21 20 23 44 15 38 -13 78 3 93 38 7 16 13 29 14 31 1 1 13 -2 28 -7 36 -14 70 1 86 38 11 28 17 31 56 31 47 0 74 24 74 67 0 19 4 22 23 18 42 -11 75 10 87 55 9 35 14 40 40 40 38 0 70 32 70 69 0 25 5 30 34 35 43 8 56 24 59 72 2 33 6 39 34 46 40 10 57 39 48 84 -5 30 -3 34 15 34 11 0 30 10 41 21 17 17 20 30 16 60 -5 35 -2 40 30 59 34 20 35 23 30 67 -4 42 -2 48 24 70 31 26 37 59 18 95 -9 17 -7 24 14 42 34 28 40 55 22 90 -14 27 -14 31 6 53 27 28 29 75 5 102 -17 19 -17 20 3 40 27 27 28 82 2 105 -19 18 -19 18 -1 49 22 36 18 74 -12 97 -17 14 -18 19 -5 50 17 41 13 55 -21 93 -20 21 -23 30 -14 39 29 29 2 108 -37 108 -9 0 -10 12 -5 46 5 39 3 49 -17 70 -12 13 -28 24 -35 24 -8 0 -10 14 -7 43 5 39 2 46 -22 65 -15 12 -34 22 -41 22 -10 0 -12 9 -8 30 8 39 -16 76 -56 85 -27 6 -30 10 -30 44 0 44 -24 71 -63 71 -23 0 -27 4 -27 29 0 39 -29 73 -65 74 -34 2 -45 12 -45 43 0 31 -32 54 -73 54 -31 0 -37 4 -37 20 0 12 -11 32 -25 46 -21 21 -31 24 -60 18 -27 -5 -35 -3 -35 9 0 8 -10 27 -22 42 -19 24 -26 27 -65 21 -32 -4 -43 -2 -43 7 0 8 -11 24 -24 36 -21 20 -31 22 -69 17 -39 -6 -45 -4 -50 13 -8 33 -51 47 -93 32 -33 -12 -36 -11 -54 12 -26 32 -51 38 -89 19 -29 -14 -33 -13 -54 5 -34 30 -52 33 -90 14 -33 -17 -35 -17 -57 1 -30 24 -69 23 -97 -4 -21 -19 -24 -20 -40 -6 -29 25 -59 27 -92 7z m70 -104 c-9 -25 -18 -45 -21 -45 -3 0 -15 18 -28 40 -17 31 -20 45 -12 59 15 28 32 31 56 9 20 -18 21 -20 5 -63z m143 64 c13 -19 12 -25 -6 -60 -11 -22 -23 -39 -27 -39 -3 0 -14 19 -25 41 -17 38 -17 41 -1 60 23 25 40 24 59 -2z m144 -9 c10 -17 8 -26 -15 -62 l-26 -43 -18 40 c-23 52 -23 51 2 74 24 22 39 20 57 -9z m140 -21 c11 -17 10 -24 -7 -48 -39 -54 -46 -55 -60 -4 -11 44 -11 48 10 64 26 19 39 17 57 -12z m-568 6 c14 -12 15 -22 6 -60 -6 -25 -13 -45 -16 -44 -3 0 -18 16 -34 35 -25 30 -27 38 -18 59 13 28 38 32 62 10z m-137 -29 c15 -11 17 -22 11 -53 -10 -56 -13 -58 -49 -23 -33 32 -35 48 -12 78 12 15 27 15 50 -2z m841 -19 c8 -23 6 -31 -19 -57 -16 -16 -32 -30 -36 -30 -4 0 -10 21 -14 47 -6 39 -4 49 11 60 26 19 47 12 58 -20z m-490 -52 c17 -43 17 -48 0 -97 l-17 -53 -24 53 c-24 51 -24 53 -8 102 9 28 20 48 24 45 5 -2 16 -25 25 -50z m121 -97 l-24 -52 -11 30 c-22 57 -22 81 0 130 l22 49 19 -53 18 -52 -24 -52z m135 91 c12 -48 11 -55 -11 -100 -13 -27 -26 -49 -30 -49 -3 0 -10 23 -16 52 -9 47 -8 55 16 100 14 26 26 48 27 48 1 0 8 -23 14 -51z m-737 26 c11 -10 14 -27 10 -57 -3 -24 -6 -44 -7 -45 0 0 -18 13 -39 31 -35 29 -37 34 -28 59 12 30 41 36 64 12z m348 -26 c17 -33 19 -51 14 -88 -4 -25 -9 -50 -12 -54 -9 -15 -52 67 -53 100 0 32 15 83 25 83 2 0 14 -19 26 -41z m757 13 c9 -25 6 -31 -29 -60 -21 -18 -39 -32 -41 -32 -2 0 -3 23 -3 50 0 34 5 54 15 60 27 17 48 11 58 -18z m-887 -38 c29 -43 31 -48 23 -102 l-9 -57 -33 52 c-30 47 -32 56 -26 102 4 28 8 51 10 51 2 0 17 -21 35 -46z m652 -11 c4 -35 0 -50 -28 -93 l-32 -50 -7 31 c-11 58 -6 88 22 128 15 22 30 36 33 33 4 -4 9 -26 12 -49z m-1005 8 c13 -7 18 -24 20 -60 l2 -51 -44 31 c-41 30 -43 33 -34 60 10 30 27 36 56 20z m260 -121 c-2 -27 -6 -50 -10 -50 -3 0 -20 17 -37 37 -26 32 -31 46 -31 93 l1 55 40 -42 c37 -40 39 -47 37 -93z m867 77 c-1 -45 -6 -59 -35 -96 l-35 -43 -3 56 c-3 51 0 60 30 96 18 22 35 40 38 40 3 0 5 -24 5 -53z m233 41 c23 -23 12 -52 -28 -80 l-40 -28 0 50 c0 36 5 52 18 59 23 14 36 13 50 -1z m-1213 -173 l6 -60 -45 47 c-43 44 -46 50 -46 100 l0 53 39 -40 c34 -35 40 -48 46 -100z m1104 83 c-2 -46 -7 -56 -41 -90 -21 -21 -41 -38 -44 -38 -3 0 -3 23 0 51 4 43 11 58 42 90 21 22 39 39 41 39 2 0 3 -23 2 -52z m229 20 c25 -25 14 -57 -29 -78 -23 -12 -42 -20 -43 -18 -2 2 -1 22 2 46 3 33 10 46 26 52 29 12 30 12 44 -2z m-1582 -43 c3 -25 4 -48 2 -51 -10 -9 -88 41 -83 54 3 8 5 20 5 28 0 9 11 14 34 14 34 0 35 -2 42 -45z m783 -60 c0 -16 -6 -43 -13 -60 l-14 -30 -11 30 c-6 17 -14 36 -17 44 -2 8 3 37 12 65 l17 51 13 -35 c7 -19 13 -48 13 -65z m-110 -15 c-1 -19 -4 -46 -8 -60 -7 -24 -8 -23 -29 19 -19 38 -20 49 -10 94 l10 51 19 -35 c10 -19 18 -50 18 -69z m220 20 c0 -19 -8 -50 -18 -69 l-18 -34 -12 47 c-10 42 -9 52 10 94 21 45 22 46 29 22 5 -14 8 -41 9 -60z m-326 -55 c-9 -58 -13 -61 -33 -28 -19 32 -23 53 -21 118 l1 40 30 -50 c21 -36 27 -57 23 -80z m415 -23 l-23 -37 -8 45 c-7 40 -5 51 20 95 l28 50 3 -58 c2 -46 -2 -65 -20 -95z m-886 105 c29 -25 38 -42 43 -79 4 -27 3 -48 -1 -48 -5 0 -26 15 -46 33 -30 26 -38 41 -44 80 -3 26 -2 47 2 47 5 -1 26 -15 46 -33z m1378 21 c0 -41 -26 -96 -59 -125 -20 -18 -39 -32 -42 -33 -4 0 -2 24 3 53 7 42 16 58 46 84 40 35 52 40 52 21z m-1035 -59 c25 -38 34 -102 16 -113 -5 -3 -20 11 -35 32 -19 28 -26 51 -26 86 0 54 9 53 45 -5z m649 -90 c-15 -22 -28 -38 -30 -37 -1 2 -4 22 -5 45 -2 32 4 52 26 88 l30 47 3 -52 c3 -44 -1 -59 -24 -91z m-1198 71 c6 -25 10 -47 8 -48 -1 -2 -22 5 -47 16 -41 18 -44 22 -39 51 4 29 7 32 36 29 28 -3 32 -8 42 -48z m1813 28 c5 -13 7 -28 5 -33 -4 -9 -94 -56 -94 -49 0 2 5 26 11 54 10 46 13 50 40 50 22 0 32 -6 38 -22z m-1368 -50 c21 -30 29 -52 29 -82 l-1 -41 -34 37 c-26 28 -35 47 -35 72 0 19 -3 42 -7 52 -10 28 14 8 48 -38z m880 -35 c-6 -22 -22 -50 -36 -63 l-25 -23 0 45 c0 37 6 54 33 85 30 37 32 38 35 17 2 -12 -2 -40 -7 -61z m-1178 -31 c7 -26 13 -48 11 -50 -1 -2 -22 9 -47 24 -33 21 -48 37 -56 64 -20 69 -16 74 33 40 36 -24 48 -40 59 -78z m1534 48 c-10 -35 -22 -51 -56 -73 -23 -16 -44 -27 -46 -25 -2 2 3 26 11 54 12 41 22 54 57 75 23 14 43 23 45 20 1 -4 -4 -26 -11 -51z m-247 -36 c-10 -45 -51 -104 -72 -104 -5 0 -5 19 -2 43 5 29 17 53 42 79 20 21 37 36 39 34 2 -2 -1 -25 -7 -52z m-1056 -74 l7 -45 -40 40 c-29 30 -41 51 -46 85 l-7 45 40 -40 c30 -30 41 -51 46 -85z m-480 54 l15 -46 -24 6 c-63 16 -75 25 -75 55 0 25 4 30 28 33 37 5 38 4 56 -48z m2024 14 c3 -29 -9 -38 -75 -54 -23 -6 -25 -5 -18 17 21 67 24 70 57 67 28 -2 34 -8 36 -30z m-1084 -74 c-8 -43 -17 -43 -32 0 -12 31 -11 40 4 84 11 30 36 -44 28 -84z m88 -9 l-15 -30 -10 29 c-7 20 -6 41 3 70 l13 41 12 -40 c10 -33 10 -45 -3 -70z m-937 72 c38 -22 73 -73 75 -109 0 -14 -7 -13 -49 8 -27 14 -51 32 -54 42 -3 9 -10 32 -15 50 -12 38 -9 39 43 9z m757 -79 c-5 -35 -15 -36 -30 -3 -13 29 -15 65 -5 91 10 26 40 -50 35 -88z m275 -4 l-15 -29 -13 27 c-10 24 -9 34 7 70 l19 42 9 -40 c6 -31 4 -48 -7 -70z m764 59 c-14 -36 -28 -54 -57 -70 -58 -34 -65 -30 -44 24 14 37 26 51 61 70 24 12 47 23 51 23 4 0 -1 -21 -11 -47z m-1527 -24 c14 -17 26 -36 26 -42 0 -7 3 -23 7 -36 l6 -24 -37 28 c-37 28 -49 48 -62 102 -6 23 -5 24 14 14 11 -6 32 -24 46 -42z m380 19 c10 -19 16 -48 14 -68 l-3 -35 -23 35 c-21 34 -31 100 -14 100 5 0 17 -15 26 -32z m487 -8 c2 -21 -5 -47 -17 -65 l-19 -29 -6 29 c-3 19 1 44 14 68 21 45 25 44 28 -3z m407 -8 c-7 -30 -21 -51 -45 -69 -18 -14 -36 -23 -39 -20 -15 14 19 84 53 110 20 15 38 26 39 24 2 -1 -2 -22 -8 -45z m-312 -17 c-4 -65 -56 -114 -56 -54 0 16 47 98 57 99 1 0 1 -20 -1 -45z m-656 -55 l-1 -35 -24 28 c-17 19 -25 40 -25 65 l1 37 24 -30 c16 -19 25 -42 25 -65z m-758 14 l16 -45 -32 6 c-64 13 -66 15 -66 51 0 32 2 34 33 34 29 0 34 -4 49 -46z m2203 6 c0 -33 -2 -35 -44 -42 -25 -4 -46 -6 -48 -4 -2 1 5 22 15 45 15 37 20 41 47 39 27 -3 30 -6 30 -38z m-1865 4 c22 -14 43 -39 49 -56 19 -54 14 -60 -24 -36 -19 13 -37 28 -39 33 -30 69 -35 85 -31 85 3 0 23 -12 45 -26z m337 -60 l6 -39 -32 29 c-23 23 -31 38 -31 65 l0 36 25 -26 c15 -14 28 -42 32 -65z m827 49 c-3 -21 -17 -49 -30 -63 l-24 -25 0 34 c0 31 34 89 53 90 4 1 5 -16 1 -36z m312 -15 c-12 -31 -28 -49 -57 -66 l-41 -24 7 24 c18 56 26 68 61 92 21 14 40 24 42 21 2 -2 -3 -23 -12 -47z m-1720 26 c32 -12 45 -25 62 -60 12 -24 22 -47 22 -49 0 -3 -21 3 -47 13 -36 13 -53 27 -70 57 -35 62 -33 64 33 39z m1983 -11 c-15 -44 -40 -69 -86 -86 -24 -9 -43 -13 -42 -9 0 4 10 27 22 51 16 33 31 48 57 57 55 20 60 18 49 -13z m-1485 -86 c3 -16 4 -32 2 -34 -10 -10 -55 46 -61 76 l-7 33 30 -22 c17 -13 33 -35 36 -53z m484 21 c-5 -37 -28 -33 -28 5 0 18 3 37 7 41 10 10 25 -21 21 -46z m78 -14 c-3 -8 -10 -14 -16 -14 -14 0 -13 37 2 63 13 22 13 22 16 -6 2 -16 1 -35 -2 -43z m439 44 c-4 -13 -9 -30 -11 -40 -3 -9 -16 -23 -29 -32 -24 -16 -25 -16 -25 8 0 25 44 86 62 86 5 0 6 -10 3 -22z m-601 -13 c4 -14 2 -33 -3 -42 -8 -14 -10 -14 -19 4 -11 20 -6 63 8 63 4 0 11 -11 14 -25z m-85 -9 c9 -16 10 -29 3 -42 -9 -16 -10 -16 -20 3 -11 21 -12 63 -2 63 4 0 12 -11 19 -24z m327 -42 c-3 -8 -10 -14 -16 -14 -14 0 -13 37 2 63 13 22 13 22 16 -6 2 -16 1 -35 -2 -43z m-980 34 c27 -14 47 -34 57 -57 9 -19 15 -37 13 -39 -2 -2 -19 3 -38 11 -24 10 -43 30 -61 61 -14 25 -23 46 -19 46 4 0 26 -10 48 -22z m581 -46 c-3 -46 -37 -6 -37 44 l0 27 19 -25 c11 -14 19 -35 18 -46z m1064 19 c-15 -28 -34 -47 -63 -61 -23 -11 -43 -20 -45 -20 -1 0 7 20 19 45 16 33 33 50 62 64 23 10 42 18 44 16 2 -2 -6 -21 -17 -44z m-577 12 c-10 -46 -13 -53 -24 -53 -14 0 -13 36 2 60 18 29 29 25 22 -7z m-1409 -20 c11 -21 21 -42 23 -46 6 -13 -92 4 -100 17 -12 18 -9 54 5 59 34 14 54 6 72 -30z m595 -23 c6 -10 10 -26 10 -35 0 -14 -3 -14 -25 1 -21 14 -55 70 -55 91 0 10 61 -40 70 -57z m1779 46 c7 -8 9 -25 6 -39 -6 -21 -14 -25 -53 -30 -26 -3 -48 -4 -50 -2 -2 2 7 22 20 44 24 43 55 54 77 27z m-2267 -12 c19 -5 37 -22 58 -55 33 -54 33 -54 -30 -35 -33 9 -52 23 -72 52 -33 48 -35 58 -5 50 12 -4 34 -9 49 -12z m1652 -11 c-9 -39 -11 -41 -46 -59 -29 -15 -30 -15 -24 1 3 9 6 21 6 26 0 12 49 59 62 59 4 0 5 -12 2 -27z m492 0 c-28 -51 -51 -70 -96 -81 -24 -6 -46 -10 -47 -8 -2 1 10 23 26 48 22 35 38 48 67 56 63 16 66 16 50 -15z m-1406 -35 c0 -10 -4 -18 -10 -18 -12 0 -30 33 -30 56 0 16 1 16 20 -1 11 -10 20 -26 20 -37z m644 25 c-4 -16 -13 -34 -20 -42 -22 -24 -29 12 -9 43 23 34 37 33 29 -1z m-714 -65 c0 -40 -33 -13 -44 37 l-8 30 26 -24 c14 -14 26 -33 26 -43z m-245 -19 c20 -38 19 -40 -16 -25 -20 8 -39 28 -50 52 -11 20 -19 39 -19 40 0 14 74 -45 85 -67z m1034 42 c-12 -33 -39 -50 -39 -24 0 17 28 53 41 53 4 0 3 -13 -2 -29z m-1300 3 c26 -10 48 -29 61 -51 11 -20 19 -37 17 -39 -1 -2 -20 2 -40 8 -24 7 -45 24 -62 49 -36 56 -36 57 24 33z m861 -9 c0 -8 -4 -17 -10 -20 -6 -4 -10 5 -10 20 0 15 4 24 10 20 6 -3 10 -12 10 -20z m70 0 c0 -14 -4 -25 -10 -25 -5 0 -10 11 -10 25 0 14 5 25 10 25 6 0 10 -11 10 -25z m636 -14 c-16 -30 -53 -58 -63 -48 -11 12 11 50 40 67 39 24 43 20 23 -19z m254 34 c0 -3 -11 -23 -25 -44 -17 -25 -38 -42 -62 -49 -20 -6 -39 -10 -41 -8 -2 2 4 18 13 36 17 34 115 89 115 65z m-1034 -52 c-12 -12 -29 15 -21 34 7 17 8 16 18 -5 5 -12 7 -25 3 -29z m205 4 c-13 -13 -15 1 -4 30 7 17 8 17 11 -1 2 -10 -1 -23 -7 -29z m83 11 c-8 -28 -12 -33 -20 -25 -9 8 6 47 17 47 6 0 7 -10 3 -22z m-644 -21 c8 -14 11 -29 7 -33 -10 -10 -33 15 -42 45 -10 32 15 24 35 -12z m284 17 c4 -9 4 -19 2 -21 -8 -8 -26 8 -26 23 0 19 16 18 24 -2z m654 -20 c-16 -34 -38 -43 -38 -15 0 18 38 56 48 47 2 -3 -2 -17 -10 -32z m-718 -16 c0 -4 -7 -8 -15 -8 -10 0 -15 10 -15 28 1 26 1 26 15 8 8 -11 15 -23 15 -28z m-985 -8 c14 -22 25 -41 25 -43 0 -1 -24 0 -52 3 -50 5 -53 7 -56 34 -7 58 48 62 83 6z m109 25 c22 -4 94 -81 85 -90 -2 -2 -25 1 -51 5 -34 7 -56 19 -78 42 -37 41 -39 60 -5 53 14 -3 36 -7 49 -10z m1376 7 c0 -5 -7 -17 -15 -28 -14 -19 -14 -19 -15 2 0 11 3 24 7 27 9 10 23 9 23 -1z m920 1 c0 -3 -12 -21 -26 -40 -28 -36 -46 -46 -107 -57 l-39 -7 34 45 c25 34 43 47 73 54 51 13 65 14 65 5z m101 -3 c22 -12 25 -43 7 -58 -16 -12 -98 -20 -98 -9 0 13 51 77 62 77 5 0 18 -5 29 -10z m-2019 -24 c19 -8 40 -26 46 -41 16 -35 16 -34 -15 -26 -15 4 -37 23 -50 44 -13 20 -22 37 -19 37 2 0 19 -6 38 -14z m422 -2 c11 -27 7 -37 -9 -24 -16 14 -20 40 -6 40 5 0 12 -7 15 -16z m1064 -19 c-13 -19 -35 -39 -50 -44 -32 -11 -31 -11 -18 23 8 21 54 52 83 55 4 1 -3 -15 -15 -34z m-1267 -16 c12 -24 8 -32 -13 -24 -13 5 -38 45 -38 61 0 11 41 -18 51 -37z m849 32 c0 -13 -29 -35 -37 -28 -7 8 15 37 28 37 5 0 9 -4 9 -9z m223 -8 c-8 -23 -34 -53 -45 -53 -14 0 2 43 21 57 23 17 31 16 24 -4z m-1517 -8 c34 -10 56 -24 72 -47 12 -18 18 -34 13 -36 -26 -9 -77 18 -109 56 -19 23 -33 42 -30 42 2 0 27 -7 54 -15z m1940 -29 c-27 -32 -46 -45 -73 -49 -20 -4 -39 -5 -41 -2 -2 2 7 17 19 35 15 19 40 36 69 45 65 20 65 19 26 -29z m-1348 -12 c-10 -10 -28 6 -28 24 0 15 1 15 17 -1 9 -9 14 -19 11 -23z m753 3 c-16 -16 -26 0 -10 19 9 11 15 12 17 4 2 -6 -1 -17 -7 -23z m-968 -25 c20 -17 22 -32 5 -32 -17 0 -48 31 -48 47 0 15 13 11 43 -15z m1198 0 c-10 -19 -40 -37 -48 -29 -8 9 10 35 30 44 28 13 31 10 18 -15z m-1406 7 c17 -7 39 -25 48 -40 l16 -29 -27 6 c-30 7 -59 30 -73 56 -11 21 -6 22 36 7z m353 -1 c14 -14 16 -28 2 -28 -5 0 -14 9 -20 20 -12 22 -1 27 18 8z m883 -21 c-16 -16 -26 0 -10 19 9 11 15 12 17 4 2 -6 -1 -17 -7 -23z m363 -2 c-14 -19 -32 -35 -39 -35 -8 0 -21 -3 -30 -6 -31 -12 7 48 40 62 50 22 58 17 29 -21z m-1919 -37 l40 -40 -58 4 c-49 4 -63 10 -92 38 -19 19 -35 38 -35 43 0 5 23 6 53 2 43 -6 59 -14 92 -47z m2325 7 c-41 -41 -48 -45 -94 -45 l-50 0 38 39 c37 38 54 45 126 49 22 2 21 -1 -20 -43z m-2496 2 c15 -19 26 -36 26 -38 0 -2 -21 -4 -46 -4 -36 0 -50 5 -61 21 -12 19 -12 24 2 38 25 25 52 19 79 -17z m2636 23 c11 -7 12 -15 4 -37 -9 -26 -14 -28 -62 -28 -28 -1 -52 1 -52 4 0 3 14 20 32 38 33 34 52 40 78 23z m-2359 -15 c24 -5 44 -18 64 -42 l28 -36 -44 7 c-33 5 -54 17 -84 47 -29 29 -34 39 -20 36 11 -3 36 -9 56 -12z m2043 -26 c-31 -31 -51 -42 -84 -46 l-43 -6 27 36 c20 26 38 38 64 43 21 3 42 7 47 9 29 10 26 1 -11 -36z m-1676 8 c14 -11 16 -37 2 -37 -13 0 -50 37 -50 50 0 10 27 3 48 -13z m147 7 c9 -9 13 -19 10 -22 -3 -3 -15 4 -27 16 -13 12 -17 22 -11 22 6 0 19 -7 28 -16z m1005 7 c0 -13 -29 -35 -37 -28 -7 8 15 37 28 37 5 0 9 -4 9 -9z m170 1 c0 -14 -40 -52 -56 -52 -22 0 1 38 29 50 29 11 27 11 27 2z m-1501 -51 c34 -24 38 -41 9 -41 -14 0 -38 14 -59 36 l-34 35 30 -6 c17 -4 41 -15 54 -24z m1681 -6 c-23 -24 -43 -35 -62 -35 -29 0 -29 0 -11 24 15 21 59 41 97 45 6 1 -5 -15 -24 -34z m-1400 -11 c0 -12 -4 -12 -20 -4 -11 6 -18 15 -15 20 8 13 35 0 35 -16z m1090 1 c-7 -8 -17 -12 -23 -8 -6 4 -3 11 8 19 23 17 32 10 15 -11z m-1257 -5 c7 0 18 -9 25 -20 11 -18 10 -20 -10 -20 -13 0 -32 12 -42 27 -18 24 -18 26 -2 20 10 -4 23 -7 29 -7z m1422 -20 c-10 -11 -27 -20 -38 -20 -17 0 -18 2 -6 16 14 17 51 35 58 28 2 -2 -4 -13 -14 -24z m546 -39 c-39 -33 -46 -36 -98 -33 l-55 4 38 31 c28 24 51 33 88 37 28 3 55 3 60 1 5 -2 -10 -20 -33 -40z m-2423 9 c17 -16 32 -32 32 -35 0 -3 -24 -5 -53 -5 -47 0 -59 4 -93 35 l-39 34 60 0 c53 0 64 -3 93 -29z m166 -9 c16 -17 28 -32 25 -34 -2 -2 -22 -2 -44 0 -27 3 -53 16 -80 40 l-40 34 54 -5 c43 -4 61 -11 85 -35z m2096 18 c-14 -11 -34 -26 -45 -34 -22 -14 -105 -31 -105 -20 0 11 62 60 84 67 12 3 37 6 56 7 l35 1 -25 -21z m-2431 -23 l33 -34 -47 -6 c-50 -8 -75 3 -75 33 0 21 19 41 40 41 9 0 31 -15 49 -34z m742 18 c12 -14 11 -16 -5 -13 -11 2 -21 10 -24 17 -5 17 13 15 29 -4z m1199 6 c0 -5 -9 -14 -20 -20 -15 -8 -20 -8 -20 3 0 8 3 17 7 20 10 10 33 8 33 -3z m785 -4 c17 -12 18 -18 7 -40 -12 -27 -27 -31 -81 -20 l-32 7 32 33 c37 38 46 40 74 20z m-2245 -32 l25 -24 -30 0 c-19 0 -43 12 -65 31 l-35 30 40 -6 c22 -4 51 -17 65 -31z m1755 5 c-21 -21 -38 -29 -64 -29 l-34 0 22 24 c22 23 35 28 85 33 16 2 14 -3 -9 -28z m-1633 -16 c10 -9 18 -19 18 -23 0 -14 -49 2 -66 21 -16 18 -16 19 6 19 13 0 32 -7 42 -17z m1489 -3 c-13 -11 -32 -20 -44 -20 -19 0 -20 1 -2 20 10 11 30 20 44 20 l26 -1 -24 -19z m-1391 -10 c8 -5 11 -12 8 -16 -10 -9 -38 3 -38 16 0 12 10 13 30 0z m1280 0 c0 -5 -9 -14 -20 -20 -16 -8 -20 -8 -20 4 0 13 13 23 33 25 4 1 7 -3 7 -9z m-1858 -62 c47 -31 49 -33 27 -39 -50 -14 -90 -9 -129 17 -22 15 -38 29 -35 32 2 3 22 8 42 12 21 4 40 8 42 9 2 0 26 -14 53 -31z m177 3 l34 -28 -38 -6 c-39 -6 -67 4 -115 42 l-25 21 55 0 c46 -1 61 -5 89 -29z m152 -7 l22 -23 -39 6 c-22 3 -50 13 -63 22 l-24 15 24 6 c33 9 54 2 80 -26z m1849 27 c-1 -15 -55 -44 -87 -47 -41 -3 -40 14 3 36 30 15 84 23 84 11z m190 5 c0 -2 -22 -18 -48 -35 -42 -27 -53 -30 -92 -23 l-43 7 39 27 c30 20 52 27 92 27 28 1 52 -1 52 -3z m173 -15 c4 -4 -11 -20 -33 -35 -34 -22 -50 -26 -95 -24 -30 2 -55 6 -55 9 0 4 20 20 45 36 35 23 53 28 87 25 24 -2 47 -7 51 -11z m-2095 -13 c19 -16 14 -27 -10 -21 -27 7 -48 22 -48 35 0 10 38 1 58 -14z m1572 12 c0 -14 -48 -43 -60 -35 -14 8 -3 24 24 35 28 12 36 12 36 0z m-120 -10 c0 -15 -38 -32 -45 -20 -5 8 17 23 43 29 1 1 2 -3 2 -9z m-2059 -32 l40 -32 -43 -13 c-56 -17 -55 -17 -75 13 -16 25 -16 27 8 45 13 10 25 19 27 19 2 0 21 -14 43 -32z m714 23 c10 -17 -11 -21 -31 -6 -18 14 -18 14 3 15 12 0 24 -4 28 -9z m2089 -17 c16 -15 9 -45 -14 -59 -11 -7 -100 14 -100 24 1 10 64 49 82 50 9 1 24 -6 32 -15z m-2223 -54 l24 -19 -23 -1 c-13 0 -33 5 -44 11 -17 9 -18 13 -7 20 20 12 24 11 50 -11z m100 10 c5 0 9 -5 9 -11 0 -15 -43 -7 -48 10 -3 10 0 12 12 8 10 -4 22 -7 27 -7z m1399 0 c0 -13 -28 -25 -38 -16 -3 4 0 11 8 16 20 13 30 12 30 0z m119 -12 c-12 -10 -33 -18 -48 -18 l-26 1 22 18 c13 11 34 18 48 17 l26 -1 -22 -17z m-1738 -8 c13 -10 20 -20 14 -20 -5 -1 -20 -3 -32 -6 -19 -3 -93 30 -93 42 0 2 20 4 44 4 29 0 52 -7 67 -20z m1883 -5 c-32 -19 -50 -23 -74 -19 l-31 7 28 18 c17 11 46 19 73 19 l45 0 -41 -25z m-2028 -7 l38 -23 -44 -8 c-36 -7 -51 -5 -91 14 -27 12 -46 25 -44 29 2 3 26 7 53 9 36 1 60 -4 88 -21z m2228 13 c3 -5 -14 -19 -38 -31 -37 -20 -49 -22 -87 -14 l-44 9 35 22 c36 22 124 31 134 14z m-2397 -38 l46 -27 -57 -13 c-56 -13 -59 -12 -104 14 l-46 28 39 11 c59 18 72 17 122 -13z m1314 -4 c41 -20 95 -78 111 -118 6 -14 10 -52 9 -84 -3 -199 -230 -288 -372 -147 -176 175 31 461 252 349z m1232 20 c43 -12 41 -22 -14 -49 -36 -19 -43 -19 -91 -7 l-52 13 45 27 c50 30 59 31 112 16z m-2037 -34 c10 -8 14 -15 7 -15 -19 0 -43 11 -43 21 0 13 14 11 36 -6z m1454 6 c0 -12 -39 -25 -48 -16 -7 7 17 25 36 25 6 0 12 -4 12 -9z m-2097 -51 c4 -4 -13 -15 -39 -25 -47 -18 -47 -18 -66 5 -23 29 -23 36 4 54 20 14 25 14 57 -6 20 -12 40 -24 44 -28z m562 20 c8 -13 -27 -13 -62 1 l-28 12 25 7 c25 7 54 -2 65 -20z m2259 -6 c3 -7 -3 -23 -13 -35 -17 -22 -18 -22 -65 -4 -25 10 -44 20 -42 23 3 2 20 15 38 27 26 18 37 20 55 12 12 -5 24 -16 27 -23z m-608 11 c-32 -24 -84 -17 -59 8 3 4 22 7 42 7 34 -1 35 -2 17 -15z m-1783 -14 l29 -18 -36 -7 c-25 -5 -45 -2 -68 10 l-33 18 25 7 c40 11 53 10 83 -10z m1946 3 c2 -2 -12 -11 -33 -19 -26 -11 -46 -13 -69 -7 l-32 8 30 17 c26 14 88 15 104 1z m-2089 -30 c35 -18 30 -26 -25 -38 -22 -5 -46 0 -80 16 l-50 22 30 7 c52 12 91 9 125 -7z m2245 7 l40 -8 -27 -11 c-73 -31 -79 -32 -125 -20 l-46 11 34 17 c38 20 66 22 124 11z m-1890 -21 c-3 -5 -15 -10 -26 -10 -10 0 -19 5 -19 10 0 6 12 10 26 10 14 0 23 -4 19 -10z m1465 0 c0 -5 -11 -10 -25 -10 -14 0 -25 5 -25 10 0 6 11 10 25 10 14 0 25 -4 25 -10z m-1977 -31 c37 -15 34 -24 -12 -37 -53 -16 -66 -15 -114 10 l-42 21 50 17 c33 11 57 14 70 9 11 -5 32 -14 48 -20z m415 4 c5 -18 -40 -16 -64 2 -18 14 -17 15 20 13 22 -2 41 -9 44 -15z m1682 7 c0 -13 -46 -24 -67 -16 -15 6 -15 8 -3 16 20 13 70 13 70 0z m471 -2 c22 -6 39 -14 39 -18 0 -4 -21 -15 -46 -25 -46 -17 -74 -16 -129 5 l-30 12 45 18 c54 23 71 24 121 8z m-2274 -29 l28 -11 -25 -10 c-28 -10 -110 -2 -110 12 0 19 67 25 107 9z m1948 1 c19 -7 18 -9 -8 -19 -43 -17 -97 -11 -97 9 0 17 71 24 105 10z m-2376 -56 c2 -2 -18 -13 -44 -26 l-47 -23 -19 24 c-20 24 -20 24 2 47 l22 23 41 -21 c22 -11 43 -22 45 -24z m636 36 c4 -6 -5 -10 -19 -10 -14 0 -26 5 -26 10 0 6 9 10 19 10 11 0 23 -4 26 -10z m1480 0 c4 -6 -5 -10 -19 -10 -14 0 -26 5 -26 10 0 6 9 10 19 10 11 0 23 -4 26 -10z m701 -11 c13 -15 16 -24 8 -36 -21 -33 -38 -36 -77 -13 l-38 23 38 22 c48 29 46 29 69 4z m-2526 -13 l35 -13 -47 -17 c-40 -16 -52 -16 -85 -6 -58 19 -60 23 -22 36 43 16 75 16 119 0z m2250 -1 c23 -8 30 -15 20 -18 -52 -19 -89 -27 -101 -23 -8 3 -27 10 -44 17 l-30 11 30 13 c38 17 80 17 125 0z m-2006 -1 c9 -3 13 -10 10 -15 -6 -11 -45 -12 -70 -2 -16 6 -16 7 2 14 24 10 39 10 58 3z m1691 -4 c21 -8 21 -8 -27 -23 -9 -3 -21 0 -27 7 -20 24 12 34 54 16z m-2102 -49 l49 -17 -50 -22 c-45 -20 -55 -22 -96 -11 -26 6 -49 15 -52 20 -5 9 70 48 91 48 6 -1 32 -8 58 -18z m321 1 c16 -9 -56 -32 -83 -26 -43 11 -47 17 -16 31 27 11 76 9 99 -5z m190 9 c7 -11 -22 -23 -35 -15 -5 3 -9 9 -9 15 0 12 37 12 44 0z m1480 0 c7 -11 -14 -20 -31 -13 -7 2 -13 8 -13 13 0 12 37 12 44 0z m237 -3 c22 -6 39 -14 39 -18 0 -16 -81 -20 -108 -6 l-27 15 25 10 c32 13 27 13 71 -1z m349 -13 c30 -15 40 -25 30 -28 -87 -30 -91 -30 -142 -6 l-50 23 49 17 c62 22 60 22 113 -6z m-2162 -24 c21 -13 -11 -33 -42 -25 -25 6 -25 7 -9 20 21 16 33 17 51 5z m1681 -5 l24 -13 -27 -7 c-17 -4 -34 -1 -47 8 -20 13 -20 14 -2 19 10 3 20 5 23 5 3 1 16 -5 29 -12z m-1930 -12 c36 -8 33 -17 -14 -40 -30 -14 -42 -14 -87 -3 l-53 12 40 18 c44 19 67 22 114 13z m2235 -9 c46 -19 40 -30 -19 -38 -66 -10 -153 34 -92 46 46 9 76 7 111 -8z m-1884 -16 c0 -5 -9 -9 -20 -9 -22 0 -27 16 -7 23 15 5 27 -1 27 -14z m1460 11 c8 -5 12 -12 8 -15 -10 -10 -49 5 -43 16 8 11 16 11 35 -1z m716 -54 c-7 -12 -20 -22 -28 -24 -14 -3 -87 37 -88 48 0 3 19 13 43 21 40 15 43 14 65 -5 20 -17 21 -22 8 -40z m-2841 38 l38 -16 -42 -24 c-52 -29 -53 -29 -75 -5 -14 15 -15 24 -6 40 13 25 35 26 85 5z m2375 -44 c-36 -6 -107 18 -93 31 18 16 50 14 88 -5 l40 -20 -35 -6z m-1900 30 c0 -16 -37 -30 -79 -30 -45 0 -53 11 -18 28 28 13 97 15 97 2z m105 -37 c-9 -8 -28 -13 -47 -11 l-33 3 29 16 c16 9 37 14 47 12 16 -5 16 -7 4 -20z m1645 -11 c-17 -2 -38 2 -47 9 -25 22 16 30 50 10 l29 -16 -32 -3z m-2064 17 l45 -12 -48 -27 c-45 -26 -53 -27 -96 -17 -26 6 -47 14 -47 18 0 10 69 48 88 49 7 0 33 -5 58 -11z m2545 -11 c22 -12 39 -25 39 -29 0 -8 -78 -24 -100 -20 -8 2 -33 13 -54 26 l-39 24 34 9 c53 16 78 14 120 -10z m-595 -3 c18 -15 18 -15 -5 -13 -14 2 -26 9 -29 16 -5 17 10 15 34 -3z m-1431 -5 c-3 -5 -15 -10 -26 -10 -11 0 -17 5 -14 10 3 6 15 10 26 10 11 0 17 -4 14 -10z m-349 -10 c34 0 30 -15 -13 -40 -33 -19 -44 -21 -88 -13 l-50 9 50 26 c28 15 56 25 63 23 8 -3 25 -5 38 -5z m434 0 c0 -5 -7 -10 -15 -10 -8 0 -15 5 -15 10 0 6 7 10 15 10 8 0 15 -4 15 -10z m1770 -21 c23 -12 40 -23 38 -24 -2 -1 -25 -5 -53 -8 -41 -5 -57 -2 -88 17 -25 15 -34 26 -25 29 30 12 90 6 128 -14z m-2040 -7 c0 -13 -41 -32 -82 -37 -45 -5 -48 4 -10 27 28 18 92 24 92 10z m1861 -9 c39 -23 37 -31 -9 -28 -41 2 -82 20 -82 35 0 16 60 11 91 -7z m-1741 -3 c0 -13 -48 -32 -71 -28 l-24 3 28 16 c27 15 67 20 67 9z m1616 -21 c7 -13 -43 -11 -68 2 -15 8 -17 13 -8 19 14 9 66 -6 76 -21z m-1531 0 c-8 -12 -45 -12 -45 0 0 10 30 20 43 14 4 -3 5 -9 2 -14z m1379 15 c23 -9 20 -24 -4 -24 -11 0 -20 7 -20 15 0 17 2 18 24 9z m-2061 -15 l39 -10 -39 -29 c-45 -35 -54 -36 -77 -11 -15 16 -15 22 -4 40 15 24 27 25 81 10z m767 1 c0 -5 -7 -10 -15 -10 -8 0 -15 5 -15 10 0 6 7 10 15 10 8 0 15 -4 15 -10z m2035 -10 c17 -19 17 -21 0 -40 -24 -26 -41 -25 -76 5 -39 32 -40 39 -4 46 51 11 61 10 80 -11z m-2597 -25 c8 -7 -88 -65 -106 -65 -30 0 -82 12 -82 19 0 3 19 18 43 33 36 24 49 27 92 21 28 -3 51 -7 53 -8z m2467 -20 l38 -30 -29 -6 c-62 -14 -86 -9 -127 24 l-41 32 34 6 c60 9 85 4 125 -26z m-2305 5 c0 -3 -13 -14 -28 -25 -25 -18 -142 -39 -142 -25 0 3 19 17 43 32 32 21 52 27 84 25 24 -1 43 -4 43 -7z m2114 -17 l40 -28 -52 -3 c-41 -2 -58 2 -82 19 -16 13 -30 26 -30 29 0 4 19 7 42 8 31 2 52 -5 82 -25z m-1994 -8 c-18 -19 -33 -25 -64 -25 l-41 1 30 24 c19 16 43 25 64 25 l34 0 -23 -25z m130 15 c0 -13 -34 -30 -62 -30 l-23 0 25 20 c26 21 60 27 60 10z m100 1 c0 -9 -24 -21 -42 -21 -6 0 -6 6 2 15 14 16 40 20 40 6z m1330 -6 c8 -9 8 -15 2 -15 -18 0 -42 12 -42 21 0 14 26 10 40 -6z m113 1 c23 -18 21 -26 -6 -26 -13 0 -32 9 -42 20 -18 19 -17 20 6 20 13 0 32 -7 42 -14z m152 -11 l30 -24 -40 0 c-36 0 -85 25 -85 43 0 17 68 3 95 -19z m-1565 -45 c0 -15 -38 -32 -45 -20 -5 8 17 23 43 29 1 1 2 -3 2 -9z m1258 -2 c19 -19 14 -30 -8 -18 -11 6 -20 15 -20 20 0 14 14 12 28 -2z m-1950 -17 c8 -5 2 -17 -21 -39 -31 -30 -36 -32 -60 -21 -29 13 -33 29 -16 60 8 16 16 19 47 13 20 -4 43 -10 50 -13z m591 -2 c-8 -17 -57 -35 -67 -25 -8 9 38 42 58 42 14 0 16 -4 9 -17z m1478 -5 l28 -25 -30 6 c-32 7 -55 22 -55 36 0 17 29 9 57 -17z m642 -1 c11 -24 10 -29 -9 -45 -29 -24 -31 -23 -69 16 l-34 35 29 6 c16 4 34 8 39 10 24 8 32 3 44 -22z m-2229 7 c0 -18 -54 -50 -84 -50 l-31 1 30 27 c28 25 85 40 85 22z m1738 -23 c31 -29 28 -36 -12 -27 -34 7 -85 39 -86 52 0 14 76 -5 98 -25z m-2038 12 c0 -3 -18 -20 -39 -37 -34 -28 -48 -32 -97 -32 l-57 0 44 38 c39 35 48 39 96 38 29 0 53 -3 53 -7z m138 -24 c-28 -26 -47 -35 -72 -35 -19 0 -43 -3 -53 -6 -10 -3 1 12 25 33 35 32 50 39 90 40 l47 2 -37 -34z m2060 6 c52 -38 64 -56 31 -48 -13 4 -36 7 -52 7 -17 0 -41 13 -65 35 l-37 34 41 1 c30 0 52 -8 82 -29z m195 -13 l42 -37 -55 -1 c-47 0 -61 4 -93 31 -20 17 -37 34 -37 38 0 4 23 7 51 7 45 0 56 -4 92 -38z m-1843 2 c0 -13 -28 -25 -38 -16 -3 4 0 11 8 16 20 13 30 12 30 0z m1178 -2 c19 -19 14 -30 -8 -18 -11 6 -20 15 -20 20 0 14 14 12 28 -2z m-1276 -23 c1 -13 -49 -41 -58 -32 -10 10 27 48 43 45 8 -2 14 -7 15 -13z m1390 -7 c14 -14 18 -23 10 -26 -15 -5 -62 24 -62 38 0 18 29 11 52 -12z m-1513 -27 c-19 -26 -74 -49 -87 -36 -10 10 41 54 67 58 14 2 30 5 34 6 4 0 -2 -12 -14 -28z m1663 -13 l21 -30 -34 7 c-31 7 -79 40 -79 55 0 3 16 4 35 2 25 -3 41 -13 57 -34z m-1808 -19 c-27 -28 -77 -49 -119 -49 -36 0 47 72 92 80 53 9 59 2 27 -31z m406 32 c0 -5 -7 -14 -15 -21 -12 -10 -15 -10 -15 2 0 8 3 18 7 21 9 10 23 9 23 -2z m1100 -6 c10 -12 10 -15 -3 -15 -8 0 -20 7 -27 15 -10 12 -10 15 3 15 8 0 20 -7 27 -15z m465 -37 l40 -40 -45 6 c-31 5 -55 17 -77 38 -18 18 -33 35 -33 39 0 4 17 5 38 2 25 -4 49 -18 77 -45z m-2314 22 c36 0 36 -6 -1 -49 -27 -31 -32 -33 -55 -23 -39 18 -27 93 13 77 8 -3 27 -5 43 -5z m172 -35 c-15 -19 -37 -37 -48 -40 -60 -12 -95 -15 -95 -7 0 4 17 24 38 44 29 29 46 37 82 40 25 2 47 2 48 1 2 -1 -9 -18 -25 -38z m2332 -5 c21 -22 37 -41 35 -43 -3 -3 -29 -1 -58 2 -41 6 -60 15 -87 41 -19 19 -35 37 -35 40 0 4 24 5 53 3 45 -4 58 -10 92 -43z m145 -2 c0 -10 -12 -24 -26 -30 -24 -11 -28 -9 -59 28 l-33 39 46 5 c50 6 72 -7 72 -42z m-1990 32 c0 -12 -49 -45 -56 -37 -3 3 1 14 8 26 13 21 48 29 48 11z m1294 -12 c9 -12 14 -23 13 -25 -8 -7 -45 11 -55 28 -10 16 -9 19 7 19 11 0 27 -10 35 -22z m-1154 -7 c0 -5 -7 -14 -15 -21 -12 -10 -15 -10 -15 2 0 8 3 18 7 21 9 10 23 9 23 -2z m988 -3 c16 -16 15 -29 -2 -22 -16 6 -30 34 -18 34 5 0 13 -5 20 -12z m-1238 -7 c0 -18 -36 -49 -67 -59 -39 -13 -40 -9 -12 26 27 35 79 56 79 33z m1545 -28 c33 -38 31 -43 -11 -30 -19 6 -45 24 -56 40 l-22 30 32 -6 c18 -4 44 -19 57 -34z m-208 -5 c29 -27 29 -41 1 -32 -28 8 -24 4 -32 32 -9 28 1 28 31 0z m-1467 5 c0 -3 -11 -20 -24 -38 -17 -21 -40 -36 -71 -45 -25 -7 -47 -11 -49 -9 -10 10 67 79 96 88 42 12 48 12 48 4z m290 -13 c-9 -18 -40 -40 -55 -40 -3 0 1 14 10 30 9 18 23 30 36 30 17 0 18 -3 9 -20z m150 12 c0 -11 -22 -32 -32 -32 -5 0 -4 9 2 20 11 20 30 28 30 12z m868 -4 c14 -14 16 -28 2 -28 -5 0 -14 9 -20 20 -12 22 -1 27 18 8z m474 -4 c27 -6 94 -71 85 -81 -3 -2 -23 1 -45 7 -28 7 -51 23 -73 51 -26 33 -29 40 -13 36 10 -3 31 -9 46 -13z m-654 -22 c6 -18 -15 -14 -22 4 -4 10 -1 14 6 12 6 -2 14 -10 16 -16z m487 -53 c18 -33 15 -35 -25 -14 -28 15 -50 42 -50 64 0 19 60 -21 75 -50z m-1781 39 c-34 -58 -58 -77 -100 -84 -25 -3 -48 -4 -51 -1 -3 3 9 24 26 46 31 38 41 43 114 49 12 1 16 -2 11 -10z m341 -17 c-18 -35 -75 -69 -75 -44 0 20 54 73 74 73 15 0 15 -3 1 -29z m321 13 c-3 -9 -6 -18 -6 -20 0 -2 -7 -4 -15 -4 -13 0 -14 4 -5 20 13 24 35 27 26 4z m764 -21 c0 -13 -3 -13 -15 -3 -8 7 -15 19 -15 27 0 13 3 13 15 3 8 -7 15 -19 15 -27z m693 31 c28 -5 44 -16 67 -47 16 -22 28 -42 26 -45 -2 -2 -24 0 -49 3 -36 6 -51 15 -81 51 -40 48 -38 50 37 38z m-1600 -21 c-6 -24 -53 -59 -53 -41 0 20 29 58 45 58 8 0 11 -7 8 -17z m1062 -13 c18 -34 5 -40 -25 -10 -24 24 -26 40 -5 40 8 0 21 -13 30 -30z m-1745 11 c0 -3 -15 -23 -33 -43 -27 -31 -36 -35 -54 -28 -24 10 -29 30 -14 58 6 12 23 17 55 18 25 0 46 -2 46 -5z m2492 -13 c15 -24 4 -51 -24 -59 -23 -6 -30 -1 -57 36 l-31 43 52 -4 c28 -2 55 -9 60 -16z m-2118 -41 c-12 -26 -30 -41 -63 -56 -25 -11 -48 -18 -50 -16 -12 12 47 79 83 95 23 9 42 16 44 15 2 -1 -5 -19 -14 -38z m516 29 c0 -15 -18 -31 -26 -23 -7 7 7 37 17 37 5 0 9 -6 9 -14z m630 10 c0 -2 3 -11 6 -20 9 -23 -13 -20 -26 4 -9 16 -8 20 5 20 8 0 15 -2 15 -4z m590 -73 c29 -43 29 -44 8 -38 -60 19 -85 36 -105 73 l-23 41 45 -16 c34 -11 52 -26 75 -60z m-1537 25 c-10 -18 -34 -41 -52 -52 l-33 -19 20 40 c18 34 49 60 75 62 5 1 0 -13 -10 -31z m177 23 c0 -6 -12 -23 -26 -38 l-25 -28 6 30 c6 28 20 44 38 45 4 0 7 -4 7 -9z m210 -5 c0 -7 -7 -19 -15 -26 -16 -13 -20 -3 -9 24 8 20 24 21 24 2z m495 -26 c-9 -14 -25 5 -25 30 0 12 3 12 16 -2 9 -9 13 -21 9 -28z m223 6 c8 -15 12 -29 10 -32 -8 -7 -48 36 -48 52 0 23 23 11 38 -20z m156 23 c22 -10 64 -75 54 -84 -10 -10 -68 40 -77 65 -11 34 -11 34 23 19z m-808 -25 c-3 -9 -6 -20 -6 -25 0 -5 -4 -9 -10 -9 -11 0 -14 33 -3 43 12 13 25 7 19 -9z m358 -25 c-5 -8 -10 -6 -16 5 -5 9 -6 21 -2 27 5 8 10 6 16 -5 5 -9 6 -21 2 -27z m-578 -24 c-9 -14 -21 -25 -26 -25 -17 0 -11 26 12 56 19 24 23 25 26 11 2 -10 -4 -29 -12 -42z m807 -1 c5 -28 0 -30 -25 -7 -10 9 -18 27 -18 41 0 24 1 24 19 8 10 -9 21 -28 24 -42z m-1401 2 c-23 -37 -35 -46 -79 -59 -29 -8 -53 -12 -53 -9 0 3 12 24 27 48 20 31 37 46 63 53 69 18 72 16 42 -33z m888 30 c0 -16 -18 -31 -27 -22 -8 8 5 36 17 36 5 0 10 -6 10 -14z m62 -28 c-10 -22 -11 -21 -11 12 -1 26 2 31 11 22 8 -8 8 -17 0 -34z m149 29 c-1 -4 -1 -15 -1 -24 0 -15 -2 -16 -10 -3 -13 20 -13 43 1 38 6 -2 10 -7 10 -11z m931 -8 c18 -10 73 -88 66 -94 -2 -1 -27 5 -56 14 -45 14 -56 22 -77 60 l-25 43 37 -7 c21 -4 46 -11 55 -16z m-1002 -9 c0 -11 -4 -20 -10 -20 -5 0 -10 9 -10 20 0 11 5 20 10 20 6 0 10 -9 10 -20z m561 -48 c5 -14 8 -29 7 -34 -6 -16 -66 47 -72 75 l-7 29 31 -22 c17 -12 36 -34 41 -48z m-1358 13 c-12 -26 -32 -44 -65 -61 l-48 -24 23 46 c17 36 32 51 62 64 22 10 41 16 43 15 2 -1 -5 -19 -15 -40z m203 11 c-5 -22 -62 -74 -71 -65 -9 10 29 78 48 86 28 13 31 10 23 -21z m1376 -30 c41 -57 37 -70 -14 -43 -39 21 -78 68 -78 94 0 23 63 -12 92 -51z m-1151 -10 l-21 -20 0 23 c0 14 8 33 18 44 17 19 17 19 20 -3 2 -13 -5 -31 -17 -44z m662 6 c-8 -22 -9 -22 -26 8 -23 38 -13 60 15 33 14 -14 17 -25 11 -41z m-1484 8 c-19 -36 -25 -41 -53 -38 -24 2 -32 8 -34 26 -5 34 11 47 62 50 l46 3 -21 -41z m2374 7 c10 -31 4 -41 -30 -51 -18 -6 -27 0 -48 33 -14 22 -25 43 -25 46 0 3 21 5 47 3 41 -3 47 -6 56 -31z m-1453 -4 c0 -10 -9 -29 -20 -43 l-20 -25 0 31 c0 29 15 54 32 54 4 0 8 -8 8 -17z m481 -21 c4 -18 3 -32 0 -32 -15 0 -31 25 -31 48 0 34 23 22 31 -16z m-726 1 c-6 -27 -54 -87 -62 -79 -3 2 0 21 6 41 15 56 70 92 56 38z m976 -4 c9 -13 20 -37 24 -54 l6 -30 -35 34 c-22 21 -36 45 -36 59 0 29 17 25 41 -9z m-656 10 c4 -5 1 -24 -6 -41 -10 -25 -14 -27 -21 -13 -18 32 9 85 27 54z m323 -29 c3 -30 2 -32 -12 -21 -19 16 -22 65 -3 59 6 -3 13 -20 15 -38z m-1058 25 c0 -3 -9 -24 -21 -46 -15 -30 -32 -46 -65 -61 -25 -11 -48 -17 -51 -15 -2 3 5 25 16 50 17 37 28 48 63 60 49 17 58 19 58 12z m214 -37 c-10 -32 -26 -50 -56 -70 -24 -15 -44 -26 -45 -24 -11 10 42 97 70 115 45 29 48 27 31 -21z m600 26 c7 -18 -3 -64 -14 -64 -4 0 -11 11 -14 24 -6 26 1 56 14 56 4 0 11 -7 14 -16z m82 -40 c-4 -13 -11 -24 -16 -24 -11 0 -14 63 -3 74 12 11 25 -24 19 -50z m82 13 c2 -20 -1 -37 -6 -37 -13 0 -22 25 -22 57 0 39 25 22 28 -20z m610 20 c31 -21 81 -107 62 -107 -20 0 -82 44 -89 64 -28 74 -25 78 27 43z m233 8 c38 -13 49 -23 68 -62 12 -25 20 -47 18 -49 -2 -2 -24 3 -49 13 -37 13 -50 25 -67 60 -30 62 -32 59 30 38z m-1325 -37 c-3 -17 -18 -45 -34 -61 l-30 -29 8 41 c12 66 66 114 56 49z m807 6 c10 -13 21 -41 23 -62 l6 -37 -31 35 c-18 20 -31 46 -31 63 0 33 9 34 33 1z m-1483 -57 c-14 -32 -27 -47 -40 -47 -27 0 -48 25 -43 53 4 19 14 26 51 33 26 6 48 9 50 8 1 0 -7 -22 -18 -47z m740 -42 c-12 -19 -24 -35 -26 -35 -13 0 0 70 18 100 l23 35 3 -33 c2 -20 -5 -45 -18 -67z m656 62 c18 -28 32 -97 20 -97 -14 0 -56 78 -56 102 0 37 10 35 36 -5z m812 -22 c4 -29 -10 -45 -40 -45 -17 0 -38 31 -52 77 -7 21 -6 21 41 9 42 -11 48 -16 51 -41z m-1728 0 c-6 -27 -21 -49 -47 -71 -21 -18 -40 -30 -42 -28 -2 2 2 24 9 49 10 34 22 53 48 70 20 14 37 23 38 22 2 -1 -1 -20 -6 -42z m1245 -44 c22 -64 20 -66 -25 -31 -25 20 -43 44 -50 68 -14 53 -14 54 25 30 24 -16 39 -37 50 -67z m-1480 14 c-14 -38 -25 -50 -67 -71 l-50 -25 7 22 c21 64 35 84 76 105 24 12 46 20 48 18 2 -2 -4 -24 -14 -49z m605 20 c0 -35 -24 -85 -41 -85 -15 0 -10 61 8 91 23 39 33 37 33 -6z m472 -56 l-4 -42 -18 29 c-20 31 -23 45 -21 84 l2 25 22 -27 c17 -22 22 -37 19 -69z m592 69 c34 -16 49 -31 61 -60 26 -66 18 -73 -43 -34 -26 16 -42 37 -54 70 -9 25 -15 46 -13 46 3 0 25 -10 49 -22z m-972 -21 c5 -27 -15 -92 -28 -92 -14 0 -17 66 -3 92 16 29 25 29 31 0z m185 -17 c7 -18 7 -37 -2 -65 l-11 -40 -13 38 c-8 23 -10 53 -6 74 7 37 14 35 32 -7z m92 11 c8 -18 10 -43 5 -67 l-7 -39 -19 42 c-11 26 -16 52 -12 68 8 33 19 32 33 -4z m-646 -23 c-4 -31 -15 -53 -41 -80 -20 -21 -37 -36 -39 -34 -2 2 -1 23 3 47 5 32 17 53 43 77 19 17 36 32 37 32 1 0 0 -19 -3 -42z m461 14 c4 -15 0 -45 -7 -67 l-14 -40 -12 42 c-9 31 -8 48 0 67 16 33 26 33 33 -2z m595 -76 c6 -27 10 -50 8 -52 -2 -2 -19 13 -39 34 -25 26 -38 50 -43 82 l-7 44 35 -29 c26 -22 38 -43 46 -79z m-1519 61 c0 -2 -7 -25 -16 -51 -15 -44 -18 -47 -48 -44 -26 3 -31 7 -34 33 -3 27 1 32 40 46 46 18 58 21 58 16z m234 -49 c-16 -54 -27 -68 -76 -94 -32 -17 -34 -11 -16 49 9 30 23 46 57 68 25 16 47 29 48 29 1 0 -5 -24 -13 -52z m322 -32 c-4 -11 -20 -37 -36 -56 l-30 -34 0 45 c0 36 7 54 33 88 l32 42 3 -32 c2 -17 1 -41 -2 -53z m1213 -22 c7 -26 10 -49 7 -51 -2 -3 -25 9 -49 26 -34 23 -46 39 -51 66 -4 20 -10 43 -13 51 -4 10 13 4 44 -15 44 -27 52 -38 62 -77z m236 41 c0 -26 -4 -30 -33 -33 -33 -3 -41 6 -58 74 l-6 24 48 -18 c44 -16 49 -21 49 -47z m-587 -60 l2 -50 -35 40 c-29 33 -35 48 -35 85 l1 45 32 -35 c27 -29 33 -44 35 -85z m-758 42 c0 -42 -42 -127 -63 -127 -11 0 -6 80 6 105 9 19 47 65 54 65 2 0 3 -19 3 -43z m650 -76 c0 -58 -3 -58 -41 1 -19 28 -24 46 -21 78 l4 42 29 -34 c23 -27 28 -42 29 -87z m-126 55 c16 -27 20 -48 18 -86 -2 -27 -7 -50 -11 -50 -4 0 -17 20 -29 45 -17 35 -20 55 -15 90 6 50 7 50 37 1z m-849 -18 c-9 -42 -19 -58 -55 -87 l-43 -36 7 50 c6 42 14 56 49 87 23 21 45 38 48 38 3 0 1 -23 -6 -52z m428 16 c5 -27 0 -49 -19 -86 -14 -28 -27 -48 -29 -46 -2 2 -6 24 -8 48 -3 43 25 120 44 120 3 0 9 -16 12 -36z m843 9 c42 -31 49 -45 59 -102 l7 -44 -46 33 c-25 18 -46 38 -46 44 -1 6 -5 30 -9 54 -5 23 -6 42 -4 42 2 0 20 -12 39 -27z m-742 -96 c-24 -70 -29 -72 -42 -17 -11 46 -10 55 10 93 l21 42 12 -40 c9 -31 9 -48 -1 -78z m121 23 c-2 -3 -8 -24 -14 -47 -7 -24 -15 -43 -20 -43 -4 0 -13 22 -19 49 -9 41 -8 56 5 91 l17 42 17 -44 c9 -23 16 -45 14 -48z m104 -5 c1 -36 -9 -75 -18 -75 -3 0 -14 20 -24 44 -16 38 -17 50 -6 86 l13 42 17 -34 c10 -18 18 -46 18 -63z m-992 71 c-3 -8 -9 -30 -12 -49 -7 -36 -31 -52 -61 -40 -13 5 -15 10 -18 45 -1 7 17 23 39 35 48 26 59 28 52 9z m1803 -36 c19 -31 -11 -61 -51 -52 -14 2 -39 66 -39 96 0 9 82 -31 90 -44z m-1455 -38 c-5 -40 -14 -57 -46 -88 l-39 -38 0 49 c0 44 4 53 42 92 23 23 44 41 46 38 2 -2 1 -26 -3 -53z m1102 -71 c4 -49 3 -52 -14 -43 -45 24 -66 60 -70 119 l-4 58 41 -41 c36 -36 43 -49 47 -93z m-1344 47 c-12 -63 -21 -78 -48 -78 -18 0 -28 7 -36 26 -11 31 -11 30 39 60 50 30 52 29 45 -8z m354 -19 c2 -44 -2 -56 -29 -90 -17 -21 -35 -39 -40 -39 -4 0 -8 23 -8 51 0 44 5 57 33 89 17 21 34 39 37 39 3 1 6 -22 7 -50z m871 -77 c0 -29 -4 -52 -8 -52 -5 0 -22 17 -39 37 -26 32 -31 46 -31 93 l1 55 38 -41 c35 -36 39 -46 39 -92z m325 103 c33 -17 38 -23 35 -50 -2 -24 -8 -31 -28 -33 -14 -1 -30 1 -36 5 -12 9 -28 107 -16 101 4 -2 24 -12 45 -23z m-1074 -95 c1 -17 -49 -100 -60 -100 -3 0 -9 23 -12 50 -6 46 -3 55 26 96 l32 46 7 -39 c4 -21 7 -45 7 -53z m597 45 c21 -31 27 -51 26 -84 -1 -25 -6 -49 -10 -53 -14 -14 -62 68 -62 104 0 34 10 81 16 76 1 -2 15 -21 30 -43z m-480 -49 c6 -40 3 -52 -22 -88 l-28 -43 -11 50 c-11 46 -9 55 14 103 28 58 37 54 47 -22z m363 20 c18 -35 22 -53 17 -83 -12 -68 -22 -71 -49 -17 -23 45 -24 54 -14 97 6 26 13 47 16 47 3 0 17 -20 30 -44z m-841 -16 c-2 -44 -5 -51 -30 -59 -28 -10 -39 -3 -51 31 -4 12 6 26 31 47 20 17 40 30 45 31 4 0 6 -22 5 -50z m597 0 c16 -47 15 -51 -4 -95 -11 -25 -22 -45 -25 -45 -2 0 -12 22 -20 48 -16 46 -16 51 3 95 11 26 22 47 25 47 2 0 12 -22 21 -50z m123 0 c17 -41 18 -49 5 -93 -15 -53 -26 -53 -49 1 -16 38 -14 64 6 116 13 34 13 34 38 -24z m632 -19 c0 -10 -6 -25 -13 -35 -11 -15 -17 -16 -40 -5 -24 11 -27 18 -27 61 l0 48 40 -26 c22 -15 40 -34 40 -43z m-1231 -82 c-10 -20 -37 -32 -51 -23 -5 3 -13 16 -18 28 -6 17 -1 29 29 59 l36 38 6 -43 c4 -24 3 -50 -2 -59z m1074 60 c36 -29 36 -31 22 -59 -11 -21 -20 -27 -35 -23 -11 3 -24 10 -28 17 -9 13 -11 96 -3 96 4 0 23 -14 44 -31z m-940 -56 c4 -37 2 -51 -11 -60 -24 -19 -48 -16 -59 10 -9 18 -5 28 21 59 17 20 34 37 37 37 4 1 9 -20 12 -46z m807 15 c16 -18 30 -40 30 -49 0 -34 -47 -52 -69 -25 -10 12 -5 106 6 106 2 0 17 -15 33 -32z m-131 -38 c31 -39 32 -42 17 -65 -19 -29 -37 -32 -59 -7 -13 14 -14 25 -5 65 6 26 12 47 13 47 1 0 16 -18 34 -40z m-541 -12 c10 -39 9 -45 -9 -60 -28 -24 -35 -23 -55 7 -15 23 -14 26 11 60 15 19 30 35 34 35 4 0 12 -19 19 -42z m152 -65 c0 -2 -11 -10 -25 -19 -24 -16 -27 -16 -45 1 -26 23 -25 28 7 76 l26 40 19 -48 c10 -26 18 -49 18 -50z m127 -13 c-17 -29 -33 -31 -59 -11 l-23 19 24 47 23 47 24 -42 c19 -34 21 -44 11 -60z m131 59 c22 -39 23 -42 6 -60 -22 -24 -36 -24 -58 0 -16 17 -16 21 0 60 9 22 19 41 23 41 3 0 16 -18 29 -41z">
  </path>
</svg>