<svg id="root" xmlns="http://www.w3.org/2000/svg" width="180" height="180" viewBox="200 200 1400 1400">
  <path
    d="M770 1606 c0 -2 14 -46 31 -98 16 -51 45 -151 63 -221 l33 -129 32 127 c18 70 46 166 62 213 16 47 29 92 29 99 0 10 -28 13 -125 13 -69 0 -125 -2 -125 -4z">
  </path>
  <path
    d="M630 1554 c-58 -24 -109 -45 -115 -47 -5 -2 26 -46 70 -98 43 -52 105 -130 138 -174 32 -44 62 -83 66 -88 4 -4 2 25 -5 65 -7 40 -18 127 -24 193 -7 66 -15 136 -18 156 l-7 37 -105 -44z">
  </path>
  <path
    d="M1041 1463 c-7 -76 -19 -176 -26 -223 -8 -46 -13 -85 -12 -87 2 -1 39 46 84 105 45 59 108 138 141 176 l61 70 -117 48 c-64 26 -117 48 -117 48 -1 0 -7 -62 -14 -137z">
  </path>
  <path
    d="M1257 1380 c-32 -61 -82 -151 -112 -200 -30 -50 -53 -90 -51 -90 1 0 59 33 128 73 68 39 157 87 196 106 40 19 72 37 72 41 0 3 -40 45 -88 93 l-88 87 -57 -110z">
  </path>
  <path
    d="M389 1394 l-87 -87 112 -57 c62 -32 153 -83 203 -113 l91 -55 -62 102 c-33 56 -83 146 -111 199 -27 53 -52 97 -55 97 -3 0 -44 -39 -91 -86z">
  </path>
  <path d="M794 1385 c30 -258 38 -303 59 -343 l22 -43 5 43 c4 31 -7 87 -38 203 -47 178 -54 198 -48 140z"></path>
  <path d="M952 1248 c-42 -160 -50 -212 -34 -222 21 -13 44 62 63 205 11 83 19 157 17 165 -2 9 -22 -58 -46 -148z"></path>
  <path
    d="M1095 1218 c-90 -117 -133 -189 -135 -226 0 -2 16 9 35 24 23 17 64 77 121 178 48 83 88 154 91 159 16 27 -16 -11 -112 -135z">
  </path>
  <path d="M618 1298 c11 -18 49 -85 86 -148 57 -100 108 -161 122 -148 13 14 -26 81 -115 196 -101 131 -131 163 -93 100z">
  </path>
  <path
    d="M236 1169 c-26 -61 -45 -114 -42 -117 3 -3 54 -9 113 -14 60 -4 154 -15 211 -23 56 -8 108 -15 114 -15 6 0 -25 26 -69 59 -44 32 -123 95 -177 140 -53 44 -98 81 -100 81 -1 0 -24 -50 -50 -111z">
  </path>
  <path
    d="M1410 1199 c-52 -45 -130 -106 -172 -137 -43 -31 -76 -58 -74 -60 2 -2 50 4 107 12 57 8 138 18 179 21 41 3 94 8 117 11 l41 5 -44 107 c-25 59 -48 110 -52 114 -4 4 -50 -29 -102 -73z">
  </path>
  <path
    d="M1204 1117 c-100 -57 -170 -103 -182 -121 -12 -17 -20 -31 -19 -33 2 -1 21 2 43 8 33 10 106 62 314 226 31 25 2 10 -156 -80z">
  </path>
  <path
    d="M450 1188 c28 -28 245 -192 270 -204 14 -7 38 -16 55 -20 l30 -7 -29 34 c-25 30 -93 73 -286 181 -30 17 -48 24 -40 16z">
  </path>
  <path
    d="M180 891 l0 -130 88 30 c77 26 166 52 311 89 l45 12 -130 33 c-71 19 -169 48 -218 64 -50 17 -91 31 -93 31 -2 0 -3 -58 -3 -129z">
  </path>
  <path
    d="M1488 979 c-64 -20 -159 -47 -212 -60 -52 -12 -93 -25 -91 -27 2 -3 53 -17 112 -33 60 -15 152 -42 206 -59 55 -17 101 -30 103 -27 3 2 3 58 2 124 l-3 119 -117 -37z">
  </path>
  <path
    d="M366 994 c7 -3 81 -24 165 -48 108 -30 167 -41 197 -38 23 2 42 7 42 11 0 21 -81 43 -225 61 -157 20 -201 23 -179 14z">
  </path>
  <path
    d="M1233 979 c-105 -14 -152 -25 -180 -42 l-38 -22 45 -6 c35 -5 79 3 205 38 88 24 165 45 170 48 24 9 -70 1 -202 -16z">
  </path>
  <path
    d="M505 830 c-93 -27 -166 -49 -162 -49 4 -1 85 8 180 20 130 16 182 26 211 42 l39 22 -29 6 c-50 11 -65 9 -239 -41z">
  </path>
  <path d="M1045 871 l-30 -6 35 -21 c32 -19 105 -31 365 -60 22 -2 -36 18 -130 46 -173 50 -187 53 -240 41z"></path>
  <path
    d="M732 807 c-18 -7 -95 -61 -172 -121 -135 -106 -165 -132 -117 -103 12 8 80 47 152 87 131 74 169 101 186 133 12 20 -1 22 -49 4z">
  </path>
  <path d="M1022 788 c22 -28 79 -64 288 -180 70 -39 63 -33 -97 91 -115 88 -170 121 -207 121 -5 0 2 -14 16 -32z"></path>
  <path
    d="M590 780 c-50 -12 -297 -40 -352 -40 -27 0 -48 -4 -48 -9 0 -5 21 -59 46 -120 42 -100 49 -110 63 -98 89 77 219 182 274 221 84 60 85 62 17 46z">
  </path>
  <path
    d="M788 757 c-19 -18 -66 -86 -103 -152 -37 -66 -77 -136 -88 -155 -29 -51 -12 -31 105 120 90 116 140 201 126 215 -2 2 -20 -11 -40 -28z">
  </path>
  <path d="M972 753 c8 -30 173 -260 221 -308 13 -13 14 -16 -68 130 -85 149 -99 169 -135 195 l-28 20 10 -37z"></path>
  <path
    d="M1161 776 c2 -2 42 -32 89 -67 47 -34 124 -96 172 -136 85 -72 88 -74 97 -51 5 13 27 66 50 118 l40 95 -97 7 c-53 5 -146 15 -207 23 -110 15 -152 18 -144 11z">
  </path>
  <path
    d="M853 739 c-16 -28 -26 -78 -42 -201 -12 -91 -21 -169 -20 -174 0 -5 20 63 45 151 31 112 44 175 42 210 l-3 50 -22 -36z">
  </path>
  <path d="M916 755 c-3 -9 -6 -26 -6 -38 0 -30 83 -343 88 -329 8 25 -40 328 -57 355 -15 24 -19 26 -25 12z"></path>
  <path
    d="M620 648 c-47 -28 -138 -79 -202 -113 l-117 -61 89 -89 c49 -49 91 -87 94 -84 2 2 21 38 41 79 46 92 119 221 157 278 16 23 28 42 26 42 -2 0 -41 -23 -88 -52z">
  </path>
  <path
    d="M1100 684 c0 -3 21 -41 46 -83 26 -41 73 -126 106 -188 33 -62 61 -113 62 -113 1 0 41 40 89 88 l88 89 -112 57 c-61 32 -146 78 -188 103 -96 58 -91 55 -91 47z">
  </path>
  <path
    d="M1004 610 c14 -78 35 -251 42 -336 l6 -92 102 42 c55 24 109 45 119 49 15 6 8 18 -48 82 -36 41 -99 121 -141 178 -93 124 -88 120 -80 77z">
  </path>
  <path
    d="M727 551 c-32 -43 -94 -121 -137 -172 -44 -52 -80 -96 -80 -99 0 -8 220 -93 226 -87 3 3 10 52 15 109 5 56 16 152 25 212 8 59 14 110 12 112 -2 1 -30 -32 -61 -75z">
  </path>
  <path
    d="M871 527 c-19 -84 -76 -276 -98 -333 -4 -12 15 -14 121 -14 69 0 126 3 126 8 0 4 -16 55 -35 114 -18 59 -46 156 -61 215 -14 59 -27 109 -28 110 0 1 -12 -44 -25 -100z">
  </path>
</svg>