<svg id="root" xmlns="http://www.w3.org/2000/svg" width="360" height="360" viewBox="300 300 3000 3000">
  <path
    d="M1639 3241 c-150 -58 -219 -192 -219 -428 l0 -116 -55 61 c-63 69 -181 162 -207 162 -9 0 -19 4 -22 9 -3 4 -33 14 -67 21 -71 15 -130 5 -210 -37 -65 -34 -161 -136 -194 -208 -23 -52 -26 -70 -23 -136 4 -109 51 -197 164 -309 46 -46 84 -85 84 -86 0 -1 -34 0 -76 3 -176 14 -355 -50 -423 -151 -44 -66 -56 -119 -55 -241 1 -130 20 -182 92 -252 81 -79 227 -121 384 -110 44 3 78 4 76 2 -2 -2 -41 -44 -88 -92 -111 -116 -153 -196 -158 -303 -3 -65 0 -83 23 -135 32 -69 131 -177 189 -207 52 -26 124 -48 162 -48 95 0 233 78 342 194 l62 67 0 -115 c0 -234 71 -372 222 -427 63 -23 232 -26 288 -6 112 41 168 99 211 217 19 55 23 85 23 197 1 73 2 133 3 133 0 0 32 -32 70 -71 85 -89 161 -141 243 -168 94 -31 136 -27 240 22 60 29 170 140 200 202 20 41 24 66 24 135 0 120 -36 191 -159 316 l-91 92 78 -6 c141 -9 304 34 379 100 112 99 142 311 66 466 -25 53 -94 117 -152 143 -70 31 -200 52 -287 46 -43 -3 -78 -4 -78 -3 0 1 39 43 88 92 61 64 97 110 121 160 31 62 35 77 35 154 0 69 -4 94 -24 135 -30 62 -140 173 -200 202 -104 49 -146 53 -240 22 -82 -27 -158 -79 -243 -168 -38 -39 -70 -71 -70 -71 -1 0 -2 57 -2 128 0 109 -4 138 -25 201 -36 109 -104 179 -210 218 -53 19 -234 15 -291 -6z m497 -638 c-3 -10 -8 -31 -11 -48 -12 -59 -59 -228 -75 -270 -4 -11 -13 -36 -20 -55 -12 -33 -17 -47 -56 -137 -71 -166 -123 -243 -165 -243 -19 0 -7 73 31 188 48 146 112 292 177 402 14 25 34 59 44 77 50 88 89 133 75 86z m-635 -45 c51 -79 155 -280 191 -368 22 -53 57 -149 77 -211 12 -38 15 -139 4 -139 -19 0 -77 82 -122 174 -28 57 -51 106 -51 110 0 3 -9 25 -19 49 -20 43 -66 175 -83 237 -32 120 -47 200 -37 200 4 0 22 -23 40 -52z m-447 -429 c136 -35 158 -42 226 -63 79 -25 233 -89 310 -129 41 -22 87 -46 103 -54 40 -21 53 -51 30 -68 -17 -13 -17 -14 1 -28 17 -13 18 -15 2 -38 -24 -38 -287 -165 -441 -213 -62 -20 -133 -40 -231 -65 -86 -23 -97 -9 -26 31 26 15 70 41 97 57 149 90 436 211 525 223 14 2 25 10 25 18 0 8 -11 16 -25 18 -95 13 -428 156 -560 242 -30 19 -67 42 -82 49 -55 28 -28 40 46 20z m1546 4 c0 -26 -292 -184 -445 -243 -11 -4 -31 -12 -45 -18 -14 -6 -56 -21 -95 -33 -83 -25 -100 -33 -100 -45 0 -5 11 -10 25 -12 24 -3 123 -34 168 -53 12 -5 32 -13 45 -18 140 -56 278 -127 393 -201 71 -47 70 -59 -2 -41 -24 6 -65 16 -91 22 -77 19 -221 67 -308 104 -119 50 -150 65 -220 104 -46 26 -94 73 -80 78 22 7 39 25 30 29 -39 17 -39 23 -8 52 34 34 226 130 353 177 65 24 141 48 235 73 22 6 56 15 75 20 44 13 70 14 70 5z m-830 -508 c-11 -36 -40 -119 -60 -170 -42 -110 -145 -314 -210 -415 -35 -54 -35 -55 -38 -25 -2 16 1 46 7 67 6 21 16 57 22 81 21 75 70 221 90 264 10 24 19 46 19 49 0 24 110 224 139 253 l36 36 3 -50 c2 -28 -2 -68 -8 -90z m69 111 c48 -27 143 -223 223 -461 31 -91 38 -118 58 -210 6 -27 13 -58 16 -67 3 -10 2 -18 -3 -18 -8 0 -38 43 -72 103 -10 18 -31 55 -48 82 -62 106 -124 249 -173 397 -37 111 -50 188 -32 188 4 -1 18 -7 31 -14z">
  </path>
</svg>