<svg xmlns="http://www.w3.org/2000/svg" id="root" viewBox="0 0 150 141">
  <path
    d="M 58.953125 90.351562 L 31.710938 128.289062 C 77.769531 158.105469 117.742188 127.878906 117.742188 127.878906 L 91.589844 89.390625 C 73.722656 101.355469 58.953125 90.351562 58.953125 90.351562 "
  />
  <path
    d="M 105.894531 0 L 85.8125 41.957031 C 105.15625 51.332031 103.09375 69.628906 103.09375 69.628906 L 149.628906 74.003906 C 152.199219 19.246094 105.894531 0 105.894531 0 "
  />
  <path
    d="M 62.417969 42.992188 L 43.503906 0.296875 C -5.589844 24.816406 0.210938 74.542969 0.210938 74.542969 L 46.679688 71.558594 C 45.421875 50.121094 62.417969 42.992188 62.417969 42.992188 "
  />
  <path
    d="M 74.980469 85.292969 C 84.222656 85.226562 91.644531 77.703125 91.589844 68.484375 C 91.527344 59.253906 83.980469 51.839844 74.75 51.894531 C 65.515625 51.960938 58.074219 59.484375 58.136719 68.714844 C 58.203125 77.9375 65.75 85.359375 74.980469 85.292969 "
  />
</svg>
