<svg xmlns="http://www.w3.org/2000/svg" id="root" viewBox="0 0 2960 6640">
  <path
    d="M1275 6616c-102-33-182-77-271-147-72-58-175-159-236-234-31-37-158-221-158-228 0-9 132-89 222-134 151-76 396-143 520-143h38v910h-22c-13-1-54-11-93-24zm11-84c7-5 13-120 17-357 6-362 3-403-34-398-97 16-419 118-427 136-2 4-8 7-13 7-6 0-19 9-31 20s-28 20-35 20c-17 0-73 50-73 65 0 6 17 25 39 43 21 18 46 47 56 64 33 65 43 80 74 112 19 20 31 42 31 59 0 20 5 27 20 27 13 0 20 7 20 19 0 13 11 21 38 28 20 5 57 23 81 39s51 34 60 39c8 6 20 15 26 22 5 6 34 19 63 29 29 9 55 20 58 25 6 11 15 11 30 1zM1570 6186v-456h43c23 0 52 3 65 6 29 8 29 34-1 34-53 0-55 7-62 385l-7 350 22 28 22 27 28-20c15-11 57-33 93-49s69-35 74-43c4-7 18-18 30-23 35-16 262-243 282-284 11-21 27-43 35-50 48-40 66-111 29-111-21 0-123-59-123-71 0-5-9-9-20-9-24 0-90-31-90-42 0-4-13-8-30-8-16 0-30-4-30-10 0-5-20-10-44-10-25 0-48-4-51-10-3-5-24-14-45-20-29-8-40-16-40-30 0-25 8-25 100 1 163 44 322 115 442 197l58 38-78 115c-96 142-273 324-387 398-84 54-205 106-274 117l-41 7v-457zM553 5908c-42-54-181-373-247-567l-46-133 50-97c161-312 393-573 635-712 130-75 318-139 407-139h38v1369l-57 6c-254 27-516 118-706 246-68 45-62 43-74 27zm97-145c0-7 7-13 15-13s15-4 15-8c0-12 46-32 74-32 23 0 205-61 238-80 9-5 36-12 60-15 127-17 175-30 208-54 19-14 38-30 43-36 4-5 6-270 6-588l-2-577-23-27c-17-20-26-24-36-16-7 7-41 15-76 19-38 4-62 11-62 19 0 12-28 29-70 41-13 4-30 13-38 20-7 8-29 14-47 14-27 0-34 4-37 22-2 12-16 29-32 38-16 8-54 39-85 67-39 37-64 53-83 53-23 0-28 5-28 24 0 23-49 94-76 109-8 4-26 30-39 58-14 27-30 49-35 49-15 0-60 49-60 66 0 8-18 38-39 67-22 29-59 90-82 136l-43 85 27 80c15 45 36 111 47 148 12 37 34 86 50 110s30 49 30 57c0 21 79 173 102 198l20 22 29-21c16-12 29-28 29-35zM2323 5875c-219-136-438-211-695-240l-58-6V4253l59 8c60 9 192 42 211 54 5 3 10 11 10 17 0 13-144 2-172-13-16-9-20-7-25 10-3 12-9 21-14 21s-8 35-8 78c1 42-2 303-6 580l-7 503 21 20c11 11 21 26 21 33 0 14 68 26 147 26 26 0 76 14 125 34 46 19 110 43 144 54 69 22 210 88 236 109 23 20 75-7 84-45 4-15 12-34 20-42 15-18 67-130 85-185 7-22 19-47 26-56 24-30 75-202 70-239-14-102-31-170-43-170-7 0-32-32-55-71-44-76-50-84-118-163-24-27-49-57-55-64-6-8-29-33-51-56-22-24-56-60-76-82-36-40-54-55-151-126-47-34-58-47-58-70 0-15 2-28 5-28 13 0 125 77 191 131 73 60 214 204 242 248 9 14 20 28 24 31 18 14 139 208 188 302l55 106-29 89c-46 144-113 308-191 471-41 83-75 152-77 152s-36-20-75-45z"
  />
  <path
    d="M212 5039c-6-19-25-92-42-164l-32-129 27-101c117-440 320-844 563-1120 70-80 94-101 118-103 27-3 33 2 49 38 40 88 142 174 266 223 55 22 90 31 207 53 22 4 22 5 22 214v210h-27c-114 1-371 91-491 172-38 26-42 27-42 10 0-41 13-82 26-82 8 0 14-4 14-10 0-5 20-10 45-10 43 0 45-1 45-30 0-24 6-33 28-43 15-6 31-17 35-24 9-15 80-17 106-3 30 15 112-19 151-63l33-38-9-137-9-136-34-10c-26-7-36-7-39 2-4 14-72 16-72 2 0-5-9-10-20-10-34 0-75-26-101-64-13-20-30-36-36-36-7 0-13-4-13-10 0-5-6-10-14-10-26 0-108-73-123-109l-15-36-59 65c-32 36-59 68-59 72s-16 23-35 44c-19 20-35 43-35 50 0 8-15 31-33 51-42 48-97 149-97 179 0 13-8 28-18 33s-24 28-32 50c-7 23-17 41-21 41-7 0-59 102-59 116 0 3-12 31-26 62-15 31-32 73-39 92s-20 49-29 65c-9 17-16 40-16 53s-14 67-31 120c-61 190-58 171-35 234 12 32 27 58 33 58 15 0 38-34 48-70 4-14 29-47 56-73 27-27 49-51 49-54s14-21 30-40c17-18 30-38 30-43 0-6 6-10 14-10s18-9 21-20 11-20 16-20 9-6 9-14c0-20 67-76 90-76 11 0 20-6 20-14 0-24 23-34 90-41l65-6-60 52c-178 156-354 374-448 554-42 80-43 82-55 44zM2695 5003c-21-37-74-122-119-188-101-151-307-362-437-448-159-105-363-186-510-203l-59-7 2-211 3-211 40-6c22-3 57-9 78-14 33-6 37-5 37 13 0 16-9 22-39 27-52 9-62 35-64 172l-1 110 31 32c17 17 40 31 51 31 40 0 82 13 82 25 0 11 118 55 147 55 6 0 17 7 24 16 12 15 36 28 161 90 21 11 37 24 38 31 0 6 13 14 30 18 16 4 32 15 35 26 4 10 13 19 21 19s17 7 21 15c3 9 21 22 39 30 20 8 34 21 35 32 0 10 31 45 70 78 38 32 69 66 69 75 1 8 15 24 33 35 21 13 33 30 35 48 2 15 9 27 17 27 19 0 55 48 55 74 0 14 11 26 33 36 18 9 34 25 37 38 5 23 5 23 22 3 9-11 23-47 29-79 12-56 11-65-15-143-15-46-32-92-38-102-5-10-15-40-22-65-45-164-60-209-70-222-7-8-21-37-31-64-17-47-51-113-154-305-50-92-175-273-211-304-13-12-38-37-54-54-34-37-51-41-65-14-33 62-121 141-156 141-8 0-15 5-15 10 0 6-7 10-15 10s-15 4-15 8c0 11-61 32-93 32-40 0-33-23 13-43 22-9 42-17 45-17 2 0 28-15 57-34 66-42 131-112 160-171 13-27 29-45 39-45 9 0 59 44 110 98 209 217 397 561 528 962 55 171 80 266 75 287-16 75-75 307-78 310-2 2-21-27-41-64zM2811 4392c-46-133-130-339-166-407-87-162-115-211-168-290-63-96-107-154-169-222-21-24-38-47-38-53 0-7 115-10 340-10 301 0 341 2 347 16 11 30-25 616-40 630-2 3-17 2-32-2-27-7-27-7-21-73 4-36 9-138 11-226 3-88 6-185 7-215 3-97 23-90-262-90-137 0-250 2-250 3 0 2 34 38 75 80 45 45 75 84 75 96s15 38 34 58c18 21 37 54 41 73 9 39 57 131 92 173 13 16 23 36 23 44 0 9 10 31 22 51 12 19 29 62 39 96 30 103 57 172 62 156 3-8 8-43 11-78 9-101 14-112 47-112 17 0 29 5 29 13 0 23-58 408-61 412-2 2-24-54-48-123zM96 4499c-11-32-42-263-65-474-16-140-33-463-29-540l3-70 105-3c123-4 170 3 170 23 0 12-19 15-100 15-93 0-100 1-100 20 0 11-5 20-12 20-9 0-9 3 0 12 18 18 16 98-3 98-12 0-13 18-10 108 7 147 16 214 31 237 16 23 19 91 4 100s-11 63 9 124l18 55 30-65c17-35 33-77 37-93 4-17 15-41 25-55s24-42 31-61 23-48 34-65c19-27 74-128 130-242 12-23 37-56 56-75 51-48 100-113 100-132 0-13 12-16 65-16h66l-61 73c-188 221-366 552-485 902-42 122-43 124-49 104z"
  />
  <path
    d="M1867 4383c-4-3-7-17-7-30 0-21 3-23 23-17 38 11 77 34 77 44 0 11-83 14-93 3zM1390 3550c-75-8-205-47-236-72-129-102-142-183-42-273 123-111 396-148 590-80 91 32 140 64 178 117 122 168-153 341-490 308zm265-102c17-9 47-24 68-33 20-10 37-21 37-25 0-5 9-11 19-15 28-9 53-52 45-77-11-35-85-98-154-131-62-30-70-31-195-31-129-1-131 0-218 38-130 57-186 132-126 169 11 7 19 16 19 21 0 20 45 56 70 56 15 0 53 11 86 25 54 23 69 25 189 22 99-2 137-6 160-19zM2296 3230l-29-5 68-80c192-230 365-556 487-920 38-114 38-115 67 95 36 259 71 680 71 868v42h-90v-49c0-27 7-62 15-77 17-34 19-60 5-69-5-3-10-37-10-74 0-40-5-72-12-80-10-9-12-54-11-168 3-126 0-161-13-189-23-48-44-44-44 7 0 41-17 69-43 69-13 0-84 130-101 186-3 12-20 33-36 48-17 14-30 33-30 40 0 8-9 17-19 21-12 3-21 19-25 40-4 19-10 35-15 35-4 0-16 17-27 38-22 43-83 112-100 112-6 0-14 14-18 31-9 47-8 49 19 49 38 0 32 28-7 34-36 5-58 4-102-4z"
  />
  <path
    d="M2588 3233c-10-2-18-11-18-19 0-11 21-14 110-14 87 0 110 3 110 14 0 7-10 16-22 20-26 7-154 6-180-1zM4 3048c6-187 21-394 32-460 4-29 11-38 25-38 16 0 19 7 19 45 0 33 4 45 15 45s15 11 15 43c0 85-21 220-40 262-24 53-25 82-3 137 9 24 17 44 18 46 5 6 345 20 382 15 33-4 40-9 36-22-9-24-45-61-60-61-8 0-13-12-13-29s-11-42-25-59-25-35-25-41c0-5-20-31-45-57-25-25-45-52-45-59s-15-30-34-51c-25-28-35-50-39-85-3-26-10-56-16-66-30-55-54-118-58-153-6-43-23-65-23-31 0 12-9 30-20 41s-20 27-20 35-9 15-20 15-20-2-20-5c0-28 53-362 59-367 3-4 22 36 40 90 78 230 173 441 280 619 58 98 197 290 244 337 15 15 27 29 27 31 0 3-156 5-347 5H-3l7-182zM757 3150c-67-69-204-248-246-320-150-259-245-481-331-780l-41-141 17-77c21-100 54-223 64-241 6-11 12-6 25 20 184 363 518 687 826 803 75 28 200 61 272 71l47 6v419h-22c-47 0-186 41-256 76-90 44-181 127-213 194-33 70-50 67-142-30zm87-63c3-14 20-29 45-40 27-12 41-26 46-44 3-14 17-35 31-45 13-11 24-26 24-33 0-8 9-19 20-25 41-22 190-70 217-70 60 0 64-12 65-159 0-73-4-136-8-141-5-4-29-13-54-18-118-28-180-50-180-64 0-5-14-8-31-8-18 0-61-15-98-34-36-19-78-37-93-41-15-3-33-11-39-18-7-7-28-11-48-9-31 3-41-2-69-32-17-19-32-46-32-59 0-29-42-67-75-67-19 0-25-5-25-23 0-12-12-34-27-49-16-14-48-52-73-83s-61-76-81-100-53-71-74-104c-36-61-55-76-55-45 0 9-7 31-16 50-15 31-15 41 0 131 9 54 28 121 41 148 13 28 26 63 30 80 4 16 20 47 36 69s29 45 29 52c0 6 10 18 22 26 20 14 22 21 28 141 0 4 9 7 20 7 24 0 40 28 40 69 0 21 5 31 15 31 11 0 15 11 15 43 0 29 11 66 35 114 34 69 48 83 85 83 11 0 22 10 26 22 4 13 13 28 21 33 8 6 18 31 24 55 5 25 13 54 18 65s12 28 15 38c3 11 16 17 36 17 16 0 30 4 30 10 0 10 40 50 51 50 4 0 9-10 13-23zM2058 3183c-35-73-115-145-210-192-76-38-215-81-260-81-17 0-18-13-18-209v-208l108-21c144-27 262-72 385-146 260-156 452-365 642-700 26-46 29-48 36-28 18 48 69 275 69 305 0 45-61 252-121 415-120 320-259 566-441 779-130 152-153 162-190 86zm80-117c23-24 42-53 42-65s6-21 14-21 18-9 21-20 15-24 25-30c25-14 80-99 80-125 0-13 16-40 36-61 58-64 154-201 154-221 0-15 41-109 72-163 31-55 56-123 62-169 4-30 12-64 19-75 6-12 10-33 8-49-3-36 26-124 45-131s19-90-1-110c-8-8-15-19-15-25 0-25-31-9-37 19-3 17-18 41-33 53-15 13-40 45-56 73-15 27-33 51-38 53-14 6-64 55-121 121-27 30-57 58-67 62s-18 13-18 20-20 24-45 37-50 35-56 50c-12 26-49 46-111 58-15 3-30 13-33 22s-36 29-73 45-92 40-122 54c-30 13-93 32-140 41-78 15-85 18-89 41-1 14-7 27-11 30-5 3-12 55-16 116l-7 111 34 21c19 11 52 24 74 28 68 12 116 33 155 67 20 17 51 40 69 50 18 9 35 26 38 37s10 20 17 20c18 0 66 46 66 64 0 25 12 19 58-28z"
  />
  <path
    d="M1280 2380c-64-11-190-55-261-90-284-144-532-407-709-755l-51-100 40-115c85-247 240-590 266-590 7 0 23 8 36 18 99 77 365 196 497 223 47 10 62 17 62 30 0 12-11 19-39 24-42 7-111-2-111-15 0-4-12-12-27-18-16-5-64-24-108-41s-87-31-95-31-28-11-43-25-27-21-27-15c0 13-77 13-85 0-10-15-35-12-35 5 0 8-7 15-15 15s-15 9-15 20c0 39-22 70-51 70-22 0-30 8-48 45-11 24-26 66-31 92-6 26-22 68-35 93s-37 81-53 124c-28 76-29 81-13 102 9 13 27 24 41 26 24 3 25 6 25 70 0 72 16 97 61 98 18 0 22 8 28 48 4 34 15 59 36 82 16 18 32 41 35 51s15 21 26 24c12 4 22 19 26 36 3 16 10 29 16 29 5 0 26 12 45 27 19 14 51 32 71 39 34 11 36 15 39 58 3 38 7 46 23 46 10 0 19 5 19 10 0 6 22 10 49 10 43 0 52 4 80 35 17 20 31 40 31 45 0 6 11 10 24 10 14 0 28 5 31 10 3 6 15 10 26 10s37 9 57 19c20 11 51 25 67 32 17 7 42 21 57 31 26 18 27 18 38-2 11-21 12-95 7-945-1-137 2-260 7-272 8-21 5-23-30-24-63-2-89-12-92-38-3-22-1-23 29-17 18 3 58 9 88 12 31 3 66 7 79 10l22 4v1370l-32-1c-18-1-53-5-78-9zM1570 1706c0-377 3-686 8-686 4 0 52-7 106-15 235-35 408-96 591-206 64-38 120-67 124-64 39 24 291 631 291 701 0 21-98 207-153 289-107 160-242 313-356 405-174 140-382 237-549 256l-62 7v-687zm159 537c30-3 64-15 83-29 17-13 45-24 62-24 16 0 53-13 83-30 29-16 66-30 83-30 23 0 30-5 30-19 0-20 33-46 65-52 10-2 28-21 39-42 11-20 24-37 29-37 20 0 77-33 77-45 0-7 7-18 15-25s15-21 15-31 11-29 25-41c26-25 54-68 81-127 8-18 24-42 34-54 11-11 23-30 26-41 4-12 26-43 50-70 25-27 44-58 44-71 0-14 8-26 19-30 32-10 31-30-5-83-19-28-34-58-34-67 0-8-3-15-8-15-21 0-62-116-62-176 0-32-4-44-15-44-8 0-15-9-15-20s-4-20-10-20c-5 0-10-11-10-25s-4-25-10-25c-5 0-10-11-10-25 0-33-48-125-65-125-7 0-27 13-45 30-17 16-51 39-76 51-24 13-44 26-44 31 0 4-6 8-14 8-7 0-19 7-26 15-8 9-29 15-55 15-60 0-145 21-145 35 0 13-52 25-106 25-17 0-37 7-44 15-7 9-35 15-73 17l-62 3 3 48c2 26-1 53-6 60-13 16-23 467-11 467 9 0 8 73-7 318-5 90-4 105 11 116 14 10 16 27 13 103-2 68 0 89 8 82 7-5 35-12 63-16zM1251 904c-179-26-358-90-521-187-130-77-125-70-84-134 112-175 269-345 404-439 105-72 251-134 314-134h26v910l-22-1c-13-1-65-7-117-15zm27-96c11-14 8-599-4-656-6-30-9-32-46-32-48 0-98 32-98 63 0 12-4 27-8 33-8 12-54 30-99 39-40 8-50 21-55 65-2 30-8 36-35 45-20 5-33 16-33 26 0 11-11 19-34 23-39 7-51 20-61 59-4 15-11 27-16 27s-9 15-9 33c0 21-8 41-20 52-20 18-20 19 22 47 24 15 48 28 54 28 7 0 14 9 17 20 3 14 14 20 31 20 14 0 26 4 26 8 0 13 48 32 81 32 17 0 32 6 35 15 4 8 18 15 34 15s35 7 44 15c8 8 32 15 55 15 22 0 43 5 46 10 9 14 61 12 73-2zM1576 912c-3-3-6-207-6-454 0-503-7-459 75-437 227 59 449 242 644 530 28 42 51 81 51 87 0 26-271 169-400 211-113 37-349 78-364 63zm153-124c34-21 67-26 204-28 9 0 17-6 17-12 0-12 123-78 143-78 5 0 25-11 45-25s47-25 59-25 24-4 27-8c4-7-107-180-124-192-4-3-9-10-11-16-7-21-193-189-239-217-25-15-63-40-85-57-22-16-54-32-71-36l-31-6-7 89c-3 48-6 157-6 241 1 99-3 152-10 152-6 0-10 40-10 110 0 93 3 110 18 119 26 15 41 13 81-11z"
  />
  <path
    d="m1606 6569-28-33 5-379c6-435 2-417 91-417 28 0 69 5 91 12 22 6 44 11 48 10 5-2 20 6 35 16s45 19 67 21c22 1 42 6 43 11 2 6 17 10 33 10s29 4 29 8c0 11 66 42 90 42 11 0 20 4 20 9 0 11 102 71 120 71 19 0 39 31 40 60 0 14-17 46-40 75-22 28-48 67-59 87-23 41-250 268-284 283-12 5-26 16-30 23-5 8-38 27-74 43s-77 38-92 48c-50 36-75 36-105 0zM1226 6561c-3-5-29-16-58-25-29-10-58-23-63-29-6-7-18-16-26-22-9-5-36-23-60-39s-52-30-61-31c-23-2-98-75-98-96 0-8-14-28-31-45-17-16-35-38-40-49-23-50-55-94-100-138-27-26-49-56-49-67 0-17 80-95 98-95 4 0 27-13 52-27 67-40 222-97 323-119 49-11 98-24 109-30 34-18 91-7 105 20 17 36 9 781-9 793-17 11-85 10-92-1zM553 5854c4-4-2-17-12-28-23-24-101-177-101-197 0-8-14-34-30-58s-39-76-51-115-34-107-50-152c-16-44-29-88-29-98 0-27 86-194 131-253 21-29 39-58 39-65 1-16 46-68 59-68 6 0 20-19 32-42 35-69 216-254 298-306 14-9 38-26 52-37 14-12 50-33 80-47 30-15 83-40 118-57s76-31 91-31c14 0 30-4 36-9 14-14 84-25 84-14 0 6 9 20 19 32 19 22 20 44 20 629 1 334-2 612-7 617-18 24-88 69-104 67-11-2-18 3-18 12 0 19-5 20-30 6-15-8-21-6-29 7-7 12-10 13-11 4 0-10-12-12-52-7-28 4-56 10-62 15-6 4-54 22-106 40-52 19-101 40-107 49-10 12-18 13-36 5-25-12-55-1-70 24-5 7-12 11-18 8-5-4-9 0-9 8 0 21-61 61-100 65-19 2-32 0-27-4zM2288 5821c-34-26-173-90-242-113-34-11-99-35-145-54-84-35-111-37-111-9 0 11-5 10-22-7-20-20-23-21-26-6-3 16-5 16-25-2-26-25-67-27-68-2 0 9-7 0-15-22-7-21-21-44-29-50-14-10-15-70-15-470 0-252 2-462 5-467s6-74 6-154 4-145 8-145c5 0 12-11 15-25 8-29 33-32 78-9 17 9 41 13 53 10 13-3 27-2 30 4 3 5 17 10 29 10 13 0 40 11 60 25s44 25 52 25c21 0 75 29 100 54 12 12 51 44 88 71 37 28 86 70 109 94 102 107 125 132 172 186 28 31 57 68 65 81s20 24 26 24 11 6 11 13c0 21 73 137 86 137 19 0 39 37 24 43-7 3-3 6 8 6 16 1 17 3 6 10-12 8-12 20 3 83 16 68 16 79 2 134-21 81-55 176-70 194-6 8-18 33-25 55-18 55-70 167-85 185-8 8-16 27-20 42-11 48-99 79-138 49z"
  />
  <path
    d="M200 4933c0-10-14-56-30-102-21-59-27-89-20-101 7-14 22-60 54-175 2-5 6-18 9-27 16-42 19-55 24-88 3-19 16-58 29-86s24-54 24-57 14-35 30-70c17-36 30-68 30-71 0-14 52-116 59-116 4 0 14-18 21-41 8-22 22-45 32-50s18-20 18-33c0-30 55-131 97-179 18-20 33-43 33-51 0-7 16-30 35-50 19-21 35-41 35-44 0-13 142-162 154-162 6 0 5 4-3 9-11 7-9 10 8 16 12 3 28 21 35 39 14 34 98 106 122 106 8 0 14 5 14 10 0 6 6 10 13 10 6 0 23 16 36 36 30 44 70 66 94 53 9-6 17-6 17-2s22 9 49 9c27 1 64 7 83 13l33 11 3 168 3 167-25 24c-14 13-23 28-20 32 3 5 0 9-5 9-6 0-11 7-11 15 0 17-16 20-24 6-6-9-66 8-66 19 0 13-91 1-101-14-4-5-15-6-25-2-18 7-18 8-1 17 24 14 22 33-2 19-26-13-33-13-57 5-18 13-18 14 6 9l25-5-24 14c-17 10-20 16-10 19 30 11-10 32-56 30-25-1-45 3-45 8 0 6-7 10-16 10-10 0-13 6-10 18 5 13-13 30-75 72-51 34-90 54-103 52-25-3-51 21-41 38 11 18-5 31-25 20-15-8-26-4-55 21-19 17-35 35-35 41 0 5-7 17-16 26-11 10-13 17-5 20 22 7 11 19-14 14-14-2-25 0-25 6s-15 28-32 48c-22 24-29 39-20 42 19 6 14 21-6 16-23-6-95 69-111 116-18 53-48 85-65 71-12-10-15-8-18 10-4 27-28 38-28 12zM2672 4930c-6-11-12-27-12-35 0-9-16-25-35-36-22-13-35-29-35-41 0-11-16-35-35-54-19-18-35-39-35-48 0-8-16-27-35-42-19-14-35-32-35-38s-31-39-69-71c-39-33-70-68-70-77-1-18-34-42-44-32-3 3-13-6-22-20-10-14-21-23-26-20s-14-7-21-21c-7-15-17-24-25-21-7 3-13 1-13-5s-5-7-11-4c-6 4-13-3-16-15-3-13-11-19-19-16s-14 1-14-5-4-8-9-5-12-1-15-10c-3-8-10-13-15-10s-12-1-15-10c-4-9-13-14-21-10-8 3-15 1-15-5s-4-7-10-4c-5 3-10 1-10-5s-4-8-10-5c-5 3-10 1-10-6s-3-9-6-6c-4 3-15-5-26-18-11-14-25-25-32-25s-39-9-72-20-60-15-62-10c-8 21-24 8-20-15 6-30-7-33-24-6-11 18-13 18-26 3-10-13-15-14-18-4-6 13-33 17-35 5 0-5-2-19-3-32-2-13-14-32-27-41-23-18-23-22-24-169 0-83 3-151 6-151 4 0 10-8 13-17 4-13 33-25 93-42 138-37 243-95 297-161 68-85 84-99 108-93 13 3 45 28 71 54 27 27 55 49 63 49 9 0 13 4 10 9s13 34 37 64c53 71 130 193 185 297 79 147 96 182 116 235 15 38 32 65 47 72 13 7 18 13 12 13-20 0-15 20 5 20 13 0 14 2 3 9s-9 25 14 102c15 52 35 114 45 139 11 25 26 69 35 98 11 34 22 52 33 53 11 0 12 2 5 6-17 6-16 23 1 23 14 0 29 37 20 52-3 4-12 8-20 8s-14 7-14 15 5 15 10 15c6 0 10 5 10 10 0 6-7 10-15 10s-15 5-15 10c0 6 5 10 10 10 6 0 10 5 10 10 0 6-7 10-15 10s-15 5-15 10c0 6 5 10 10 10 6 0 10 5 10 10 0 6-8 10-17 10-10 0-26 14-35 30-20 35-38 38-56 10zM2822 4370c-7-14-16-32-21-40-11-20-38-99-60-176-10-34-27-77-39-96-12-20-22-42-22-51 0-8-10-28-23-44-35-42-83-134-92-173-4-19-23-52-41-73-20-21-34-48-34-63 0-14-4-23-10-19-5 3-10 1-10-5 0-16-112-130-122-124-4 3-8-1-8-9s-9-22-20-32c-49-44-39-45 282-43l302 3 8 35c4 19 8 52 9 73 2 22 10 42 18 47 14 9 14 9 1 10-41 0-50 167-11 190 15 9 15 9 0 10-9 0-20 8-23 17-9 21 4 103 15 103 5 0 9 7 9 15s-6 15-14 15c-7 0-16 14-20 31-9 45-8 49 9 49 11 0 15 12 15 50 0 41-3 50-17 51-11 0-13 3-5 6 17 7 15 23-3 23s-21 46-2 53c7 3 5 6-5 6-14 1-18 10-18 36 0 19 5 35 10 35 6 0 10 7 10 15s-6 15-13 15c-23 0-60 32-47 40 7 4 10 16 8 26-4 17-6 16-16-6zM75 4300c-3-5-3-21 1-35 6-26-10-98-29-122-11-15 1-112 15-130 7-9 5-21-6-39-19-27-28-89-30-199-1-38-5-79-9-90-9-29 7-121 21-117 16 3 15-10-3-44-19-37-19-64 1-64 11 0 13-6 9-19-6-19 1-20 122-23 70-2 194-2 274 0l147 3 5 27c5 28-32 82-103 150-19 19-44 52-56 75-56 114-111 215-130 242-11 17-27 46-34 65s-21 46-31 60c-9 14-21 41-27 60-16 59-75 179-90 185-10 4-13 0-9-15 3-11 1-20-4-20s-9 14-9 30c0 29-13 40-25 20zM1400 3500c-53-4-104-15-135-29-27-12-61-20-74-18-17 3-31-3-47-22-13-14-24-30-24-34 0-5-9-16-21-26-14-11-23-32-26-61-7-67 38-115 154-166l88-39h160c154 1 162 2 220 29 61 28 131 83 152 120 22 37 16 100-11 127-38 38-54 49-91 64-18 8-36 19-39 24-16 25-178 42-306 31zM2484 3232c-126-2-131-4-143-26-11-20-10-29 7-62 11-21 39-57 61-79 23-22 51-59 62-82 11-24 25-43 29-43 5 0 11-14 15-30 4-17 15-36 26-43 10-6 19-17 19-24s13-25 29-40 43-61 60-101c42-96 71-144 85-139 6 2 16-2 23-9 15-15 17-74 3-74-19 0-10-42 10-47 13-4 20-14 21-32 1-14 4-37 8-51 7-21 9-17 17 29 7 41 13 55 28 57 25 4 45 25 29 31s10 55 34 65c17 6 17 7 0 7-17 1-19 11-18 104 1 56 1 124 1 151s5 56 12 63c7 9 11 41 10 80-2 58-1 65 18 70 21 5 30 53 10 53-5 0-10 9-10 19 0 11-5 32-12 48-11 26-13 37-17 85-1 15-18 17-143 20-79 2-202 2-274 0zM56 3165c-9-14-14-25-11-25s1-10-6-22c-6-11-15-50-19-86-7-55-5-69 11-99 33-58 40-112 26-199-8-44-13-122-13-174 1-85 3-97 24-118 18-18 21-29 16-62-7-45 3-130 16-130 11 0 50 86 50 111 0 10 4 20 9 23 4 3 11 24 14 46 4 35 28 98 58 153 6 10 13 40 16 66 4 35 14 57 39 85 19 21 34 44 34 51s20 34 45 59c25 26 45 52 45 57 0 6 11 24 25 41s25 42 25 59 5 29 13 29c15 0 57 41 57 55 0 5 7 16 16 26 18 20 11 59-11 59-7 0-15 5-17 12-2 6-9 8-15 5-6-4-89-10-185-13-95-3-184-7-198-8-15 0-24 4-22 12 4 22-25 13-42-13zm21-482c-3-10-5-2-5 17s2 27 5 18c2-10 2-26 0-35zM2062 3148c-7-7-12-18-12-26 0-23-52-63-73-56-15 5-18 1-15-17 2-17-5-28-30-44-19-11-51-35-72-52-39-34-87-55-155-67-22-4-55-17-74-29l-34-20 6-141c5-95 11-142 19-148 11-6 10-10 0-16-23-15 19-39 93-51 39-7 102-26 140-42 144-62 190-84 201-98 10-13 65-37 109-48 12-2 26-17 33-33s32-38 57-51 45-30 45-37 8-16 18-20 40-32 67-62c57-66 107-115 121-121 5-2 23-26 38-53 16-28 41-60 56-73 15-12 30-36 33-52 4-18 14-30 27-34 16-4 20-11 16-25-10-29 20-36 39-9 8 12 15 30 15 40s7 25 15 33c9 10 15 36 16 72 2 76 0 85-17 98-21 17-42 85-34 114 5 16 1 35-11 55-10 17-21 55-25 85-6 47-31 114-62 170-31 54-72 148-72 163 0 20-96 157-154 221-20 21-36 48-36 61 0 26-55 111-80 125-10 6-22 19-25 30s-13 20-21 20-14 10-14 23c0 24-62 91-105 113-33 17-28 17-43 2zM773 3122c-13-14-23-29-23-34s-12-8-26-6c-17 2-29-3-34-12-4-8-12-25-18-36-6-12-14-39-18-60-9-50-21-74-36-71-7 1-13-8-14-21-2-28-13-40-22-25-13 21-58-30-98-110-21-43-42-81-46-83-13-9-9-24 7-24 8 0 15-7 15-15 0-9-8-14-22-12-16 1-28-8-45-38-12-22-21-45-19-51 3-6-5-26-16-45-25-41-49-119-37-119s-7-46-35-83c-14-18-27-45-31-62-4-16-17-52-30-80-27-57-58-198-58-265 1-25 8-58 17-75 9-16 16-39 16-50 0-17 6-21 36-21 34 0 39 4 82 71 24 38 59 86 76 107 17 20 51 61 76 92s60 72 77 91c22 22 31 40 26 51-5 13-2 15 14 10 27-8 83 39 83 71 0 13 14 39 31 58 28 31 33 33 44 19 10-14 15-15 35-3 13 8 30 20 38 26 7 7 25 15 40 19 15 3 57 21 93 40 37 19 76 34 87 34 12 0 37 9 57 20 31 18 58 26 140 45 76 18 80 21 88 61 4 21 8 48 8 59-1 11-1 58-2 105s1 95 5 107c6 18 1 25-23 37-17 9-42 16-56 16-26 0-176 49-215 70-11 6-20 17-20 25 0 7-11 22-24 33-27 21-46 72-27 72 6 0 11 5 11 10 0 7-6 8-16 2-24-14-82 17-93 50-8 23-15 27-43 26-21-1-41-10-55-26zm-343-570c0-5-6-17-14-27-13-18-14-18-9 8 5 24 23 39 23 19zm-72-171c-4-19-22-18-26 2-2 7 4 14 13 14s15-7 13-16z"
  />
  <path
    d="M2732 2515c6-14 13-23 16-21 7 7-9 46-18 46-5 0-4-11 2-25zM1244 2372c-7-4-14-16-16-27s-11-19-20-19c-10 1-16-2-15-6s-1-7-4-6c-4 0-15-7-26-16-12-11-27-15-42-11-14 4-22 2-18-3 3-6-3-15-14-22-10-7-19-8-19-3 0 15-50-1-60-19-6-12-17-16-29-13-13 3-23-2-31-19-31-60-106-108-93-59 3 10 0 22-6 25-7 5-11-3-11-18 0-21-5-26-25-26-14 0-25-5-25-11s-6-9-14-6c-17 7-31-9-40-45-4-16-2-28 6-30 17-6 0-28-21-28-11 0-41-15-67-33-27-19-53-35-59-35-5-1-14-15-18-32-7-27-11-31-33-30-3 1-16-19-28-42-13-24-28-42-34-41s-14-11-17-28c-7-32-12-39-70-103-19-22-35-47-35-58 0-20-45-113-68-140-8-10-14-28-14-40 0-27 54-174 87-238 13-25 27-60 30-78 15-87 80-198 106-181 10 6 11 9 1 9-7 0-10 5-6 11 9 15 37-37 30-54-2-7-5-4-5 6-1 9-5 17-11 17-13 0-13-7 5-68 16-54 30-65 43-34 8 19 71 29 81 13 3-5 13-10 21-12 20-3 104 21 96 28-5 6 22 30 34 31 3 0 30 10 60 22 93 37 180 68 180 64 0-2 11 1 24 6s49 11 80 14 62 9 69 13c17 11 35 15 90 20l48 5-6 42c-4 22-11 49-16 58-12 23-11 196 1 200 6 2 6 16-1 41-6 22-8 73-5 115 2 43 9 136 14 207 5 72 5 132 0 133-10 4-9 315 2 397 6 51 4 65-12 93-11 17-24 32-29 32s-9 9-9 20c0 20-16 26-36 12zM1650 2340c-8-5-11-10-5-10 5 0-1-7-14-16-19-14-22-22-16-48 12-60 11-161-2-158-18 3-22-98-11-213 14-139 17-220 7-225-5-4-10-31-10-61-1-111 12-445 18-459 8-19 5-39-10-69-10-19-9-25 8-37 16-12 81-20 121-15 6 1 17-6 24-14s27-15 44-15c55 0 105-12 100-24-3-7 22-18 63-28 38-9 79-19 93-22 21-5 22-5 5 3-18 9-18 10 6 10 15 1 32-6 39-14s19-15 26-15c8 0 14-4 14-9 0-4 23-19 50-32 28-13 50-27 50-31 0-10 83-66 104-70 12-2 25 11 43 42 13 25 31 55 40 68 8 13 12 30 9 39-3 8 1 21 9 29s12 21 9 29c-4 9 0 15 8 15 22 0 42 42 39 83-3 58 41 183 61 171 4-3 8 4 8 16s14 42 31 67c17 24 35 57 39 71 9 33-7 70-32 78-13 4-18 12-15 24s-12 37-43 72c-26 29-50 62-54 74-3 11-15 30-26 41-10 12-26 36-34 54-27 59-55 102-81 127-14 12-25 31-25 41s-7 24-15 31-15 18-15 25c0 12-57 45-77 45-5 0-16 12-23 28-20 39-41 62-51 56-13-8-54 24-54 42 0 9-15 22-32 29-18 8-33 10-33 5s-29 7-65 26c-38 21-74 34-85 31s-32 5-50 18c-17 13-52 25-81 28-54 7-79 20-79 43 0 8-5 14-11 14-5 0-7 5-4 10 8 12 4 12-15 0zM1235 858c-22-6-47-13-55-15-8-3-32-7-53-9s-45-11-53-19c-18-17-30-19-39-5-11 18-34 10-37-12-2-17-11-24-33-26-42-4-85-22-85-36 0-6-4-4-10 4-7 12-12 12-29-4-12-11-21-25-21-33 0-7-6-13-13-13-17 0-117-68-117-80 0-5 14-25 31-45 23-26 27-35 15-35-23 0-20-17 8-45 14-13 28-35 31-47 11-36 24-47 61-54 35-6 47-24 17-24-14 0-12-4 7-25 27-29 37-31 42-9 3 13 5 13 23 1 15-12 17-18 7-30-17-20 19-64 61-72 54-11 97-28 98-40 1-5 2-19 3-30 0-12 21-33 49-52 40-27 52-31 73-23 14 6 40 10 58 10 40 0 37-27 40 310 2 140 6 292 9 337 6 77 5 84-17 108-13 14-25 24-27 24-2-1-22-6-44-11zM1615 826c-17-12-19-26-17-147 2-76 7-135 12-137 6-2 10-49 10-108 0-68-4-103-10-99-5 3-10 1-10-4 0-6 6-11 13-11 9 0 9-2-1-8-10-7-10-21 2-73 15-67 15-91 1-123-6-13-5-21 3-24 7-2 12-10 12-18 0-44 108-17 199 49 35 26 67 47 72 47 12 0 213 188 218 203 2 7 7 14 11 17s39 52 78 109c62 91 69 107 59 125-6 12-10 24-9 28 3 12-40 21-47 9-5-7-19-2-43 14-21 14-41 25-46 25-11 0-149 69-138 70 5 0 3 6-4 14-6 8-19 12-27 9-12-5-15-2-10 9 4 11-1 18-16 22-32 9-37 7-37-8 0-34-78-30-136 5-37 22-112 25-139 5z"
  />
  <path d="M670 576c0-9 32-36 41-36 6 0 5 8-1 20-9 17-40 29-40 16z" />
</svg>
