<svg id="root" xmlns="http://www.w3.org/2000/svg" width="360" height="360" viewBox="300 300 3000 3000">
  <path
    d="M1690 3031 c-69 -35 -121 -101 -137 -173 -24 -102 29 -219 122 -270 42 -23 62 -28 125 -28 63 0 83 5 125 28 93 51 146 168 122 270 -26 113 -134 202 -247 202 -41 0 -69 -8 -110 -29z">
  </path>
  <path
    d="M985 2745 c-44 -19 -99 -76 -123 -129 -26 -55 -29 -146 -7 -199 66 -158 272 -207 400 -95 110 97 115 267 11 372 -20 20 -53 43 -73 51 -44 18 -166 19 -208 0z">
  </path>
  <path d="M1363 2732 c-38 -46 -22 -104 33 -122 54 -18 103 18 104 76 0 69 -93 101 -137 46z"></path>
  <path d="M2122 2740 c-15 -15 -22 -33 -22 -60 0 -32 5 -43 30 -60 49 -35 106 -10 116 50 12 74 -70 120 -124 70z"></path>
  <path
    d="M2403 2744 c-83 -36 -143 -135 -143 -235 0 -182 184 -300 352 -226 95 42 148 125 148 228 0 99 -64 199 -149 235 -43 18 -166 17 -208 -2z">
  </path>
  <path
    d="M1665 2496 c-5 -3 -37 -12 -70 -22 -33 -9 -64 -21 -69 -26 -6 -4 -16 -8 -24 -8 -21 0 -132 -78 -190 -134 -56 -53 -152 -185 -152 -209 0 -7 -4 -17 -8 -22 -5 -6 -17 -37 -28 -70 -27 -86 -27 -324 0 -410 11 -33 23 -64 28 -70 4 -5 8 -15 8 -22 0 -24 96 -156 152 -209 58 -56 169 -134 190 -134 8 0 18 -4 24 -8 5 -5 36 -17 69 -28 86 -27 324 -27 410 0 33 11 64 23 69 28 6 4 16 8 24 8 21 0 132 78 190 134 56 53 152 185 152 209 0 7 4 17 8 22 5 6 17 37 28 70 27 86 27 324 0 410 -11 33 -23 64 -28 70 -4 5 -8 15 -8 22 0 24 -96 156 -152 209 -55 53 -169 134 -188 134 -5 0 -18 4 -28 10 -58 32 -123 44 -257 47 -77 1 -144 1 -150 -1z">
  </path>
  <path
    d="M880 2243 c-30 -13 -45 -37 -45 -74 0 -51 24 -74 75 -74 24 0 46 7 57 18 22 22 23 91 3 112 -17 17 -68 27 -90 18z">
  </path>
  <path d="M2638 2226 c-10 -7 -22 -25 -28 -40 -21 -57 49 -123 101 -95 38 20 49 36 49 72 0 61 -74 100 -122 63z"></path>
  <path
    d="M730 2048 c-91 -29 -158 -101 -180 -194 -20 -83 8 -171 77 -235 52 -49 95 -64 178 -63 144 1 240 99 240 243 0 79 -16 123 -64 174 -65 69 -171 101 -251 75z">
  </path>
  <path
    d="M2750 2053 c-90 -33 -155 -88 -181 -153 -23 -57 -18 -158 10 -213 27 -53 50 -76 106 -108 48 -27 159 -32 215 -10 72 29 139 116 157 202 8 42 -14 127 -46 174 -54 81 -187 135 -261 108z">
  </path>
  <path
    d="M873 1501 c-35 -22 -48 -50 -38 -89 9 -35 33 -51 76 -52 39 0 67 22 70 56 5 47 -2 65 -33 84 -40 24 -36 24 -75 1z">
  </path>
  <path d="M2620 1470 c-53 -74 41 -157 113 -100 57 45 23 130 -53 130 -32 0 -43 -5 -60 -30z"></path>
  <path
    d="M1040 1340 c-58 -12 -86 -27 -122 -63 -100 -100 -104 -259 -9 -360 38 -41 122 -77 181 -77 96 0 198 68 235 157 17 40 20 168 5 178 -5 3 -10 13 -10 22 0 27 -67 100 -112 120 -52 24 -120 34 -168 23z">
  </path>
  <path
    d="M2460 1341 c-19 -4 -52 -16 -73 -26 -41 -19 -107 -92 -107 -118 0 -9 -4 -19 -10 -22 -15 -10 -12 -138 5 -178 23 -56 72 -105 132 -132 167 -77 353 43 353 227 0 161 -145 280 -300 249z">
  </path>
  <path
    d="M1740 1046 c-63 -18 -81 -29 -127 -79 -93 -101 -89 -244 11 -343 72 -73 153 -94 256 -65 61 18 143 100 161 161 29 103 8 184 -65 256 -68 69 -153 94 -236 70z">
  </path>
  <path
    d="M1388 987 c-48 -19 -61 -77 -27 -121 16 -20 29 -26 59 -26 62 0 96 55 69 114 -6 13 -19 26 -28 29 -9 3 -23 7 -31 10 -8 3 -27 0 -42 -6z">
  </path>
  <path d="M2137 984 c-73 -40 -49 -144 34 -144 29 0 42 6 58 26 35 45 24 92 -29 119 -34 18 -28 18 -63 -1z"></path>
</svg>