<svg xmlns="http://www.w3.org/2000/svg" id="root" viewBox="0 0 150 91">
  <path
    d="M 78.589844 80.175781 C 59.617188 80.175781 41.765625 76.796875 28.324219 70.65625 C 14.695312 64.425781 7.1875 56.074219 7.1875 47.132812 L 8.730469 47.132812 C 8.730469 51.289062 10.53125 55.339844 14.078125 59.171875 C 17.566406 62.9375 22.574219 66.332031 28.96875 69.253906 C 42.210938 75.300781 59.835938 78.636719 78.589844 78.636719 C 97.351562 78.636719 114.972656 75.300781 128.214844 69.253906 C 134.609375 66.332031 139.621094 62.9375 143.105469 59.171875 C 146.652344 55.339844 148.453125 51.289062 148.453125 47.132812 C 148.453125 37.929688 138.652344 31.433594 130.429688 27.601562 C 120.671875 23.058594 109.78125 20.730469 105.496094 20.589844 L 105.546875 19.046875 C 110.09375 19.199219 121.019531 21.519531 131.082031 26.203125 C 139.710938 30.222656 149.996094 37.117188 149.996094 47.132812 C 149.996094 56.074219 142.488281 64.425781 128.859375 70.65625 C 115.417969 76.796875 97.566406 80.175781 78.589844 80.175781 "
  />
  <path
    d="M 121.152344 19.96875 C 121.152344 30.996094 112.203125 39.933594 101.160156 39.933594 C 90.121094 39.933594 81.167969 30.996094 81.167969 19.96875 C 81.167969 8.941406 90.121094 0 101.160156 0 C 112.203125 0 121.152344 8.941406 121.152344 19.96875 "
  />
  <path
    d="M 96.800781 79.417969 C 96.800781 85.804688 91.621094 90.980469 85.226562 90.980469 C 78.835938 90.980469 73.652344 85.804688 73.652344 79.417969 C 73.652344 73.035156 78.835938 67.859375 85.226562 67.859375 C 91.621094 67.859375 96.800781 73.035156 96.800781 79.417969 "
  />
  <path
    d="M 16.234375 45.339844 C 16.234375 49.816406 12.601562 53.445312 8.117188 53.445312 C 3.632812 53.445312 0 49.816406 0 45.339844 C 0 40.863281 3.632812 37.234375 8.117188 37.234375 C 12.601562 37.234375 16.234375 40.863281 16.234375 45.339844 "
  />
</svg>
