<svg xmlns="http://www.w3.org/2000/svg" viewBox="0 0 1320 1450"><path d="m629 1385-34-70-3-424c-3-428-2-440 31-441 4 0 7 135 7 300 0 250 3 307 16 338l15 37 14-25c11-20 14-88 15-332 0-169 4-309 8-312 31-19 33 12 30 440l-3 429-31 65-32 65-33-70zM518 1215c-49-18-86-42-131-84l-38-36H217c-102 0-140-4-169-17-40-18-55-49-44-92 8-33 84-107 161-157 59-38 79-59 56-59-4 0-41-33-82-73C-43 518 14 425 277 471c53 9 63 14 58 28-3 11 6 27 23 44l28 27 51-39c29-21 73-46 98-54 43-15 45-15 45 3 0 13-13 25-37 36l-38 17 38 15c36 14 37 16 37 66 0 46-2 51-23 52-43 3-261 110-276 136-20 34-7 76 29 96 16 9 34 29 39 45 9 24 15 27 53 26 24-1 57-4 73-8l30-7-25-15c-14-9-38-23-53-33-15-9-25-21-22-27 4-5 17-2 33 10 45 31 106 58 125 53 14-3 17 4 17 46v50l-71 17-72 18 24 18c13 11 45 29 72 41 44 20 47 24 47 60 0 42-5 44-62 23zM266 948c-4-13-9-44-13-70-3-27-9-48-14-48-11 0-59 71-59 87 0 20 42 53 68 53 20 0 23-4 18-22zm12-266c13-31 25-63 29-69 8-19-57-17-85 3-12 8-22 24-22 35 0 18 40 89 50 89 3 0 15-26 28-58zm177-1c42-18 64-32 55-35-8-3-34-12-57-20l-43-15-24 32c-13 18-27 43-31 55-8 28-7 28 100-17zM750 1191c0-38 2-41 46-60 25-11 43-24 40-29s-23-14-45-22c-23-7-41-19-41-26 0-9 16-7 60 7 33 10 66 16 74 13 38-15 119-174 89-174-5 0-54 18-108 40s-102 40-107 40c-4 0-8-22-8-48v-49l61-26c33-14 58-31 55-36-4-5-31-24-61-41l-55-31V640l43 21c23 12 75 42 115 66 41 25 76 42 79 39 10-10-28-96-61-139-35-45-48-49-133-34-48 8-61-9-15-19 80-17 81-20 25-45-40-18-53-29-53-46 0-21 1-21 43-7 23 8 65 31 92 52l50 38 27-19c23-17 44-20 145-21 89 0 127 4 155 16 48 21 65 56 49 96-12 29-14 29-41 16-19-10-35-12-52-5-40 15-51 37-46 86l6 45-49 28c-27 15-49 29-48 32 0 3 24 24 54 47 96 76 161 174 147 225-12 47-136 62-272 33-64-13-66-13-98 11-31 24-93 55-139 69-21 6-23 3-23-34zm314-117c19-18 20-34 4-69-12-26-28-34-28-12 0 7-11 29-25 49s-25 39-25 42c0 13 60 5 74-10zm26-399c23-38 20-69-8-84-19-9-82-23-82-17 0 7 62 136 65 136 2 0 13-16 25-35z"/><path d="M657 1074c-4-4-7-148-7-321V440h-28c-48 0-121 27-179 65-55 36-56 37-75 18-19-20-19-20 16-47 118-90 270-119 405-77 68 21 137 59 165 90 19 20 19 22 1 41l-18 20-26-24c-37-35-117-73-178-84l-53-9-1 306c0 288-5 352-22 335zM318 886c-17-8-24-21-26-48-3-32 1-39 25-51 56-29 113 26 80 76-19 30-48 38-79 23zM1200 760c-25-25-26-62-2-83 39-35 102-9 102 41 0 28-34 62-60 62-11 0-29-9-40-20zM622 253c7-107 7-108-19-135l-27-28 44-45 44-45 43 42 43 42-27 28c-26 27-26 28-19 138l6 110h-95l7-107z"/></svg>