<svg xmlns="http://www.w3.org/2000/svg" viewBox="0 0 1730 3000">
  <g fill="#000000">
    <path
      d="M842 2944c-8-17-15-184-22-522-6-273-15-688-20-922s-10-532-10-662V600h-91c-83 0-90 1-85 18 4 12-1 25-13 36-36 33-83-18-49-52 8-8 50-12 123-12 103 0 111-1 124-22 10-16 10-23 2-26-15-5-14-39 2-45 9-4 8-8-3-16-12-8-13-14-3-29 7-12 8-24 2-33-13-20-11-29 6-29 18 0 20-21 3-38-8-8-8-15 1-25 6-8 9-21 5-30-3-8-1-18 5-22 6-3 8-17 5-31-4-14-2-24 5-24 6 0 8-7 4-16-3-9 0-19 6-24 9-5 4-17-18-42-40-46-40-79 0-112 17-14 35-26 41-26 18 0 68 58 68 80 0 21-34 62-61 73-12 5-12 8 2 19 9 7 17 30 18 51 4 74 7 92 19 114 9 17 9 22-1 26-9 3-9 10 2 28 10 16 10 24 2 27-16 5-14 22 6 44 14 15 15 21 4 27-10 7-11 13-1 31 9 17 9 24 1 30-7 3-9 14-5 23 5 14 26 17 126 19 101 3 123 6 132 20 8 13 6 22-8 37-11 12-23 21-27 21-17 0-40-34-36-51 5-17-2-19-84-19h-89v221c0 121-4 318-10 437-5 119-14 539-21 932-9 554-14 722-25 748-7 17-15 32-17 32s-9-12-15-26z"
    />
    <path
      d="M1187 2352c-14-21-48-66-76-100-51-61-53-62-91-56l-40 7v-281l28-7c51-12 111-55 143-102 27-39 33-58 37-119s1-80-18-118c-28-58-88-110-145-126l-45-13v-163c0-131 3-171 17-201 43-99 56-128 59-131 2-4 138 36 176 51 25 11 26 14 22 62-3 27-10 77-15 109-10 54-9 61 8 73 20 15 49 38 75 60 15 13 24 12 75-7 117-45 158-60 164-60 4 0 12 13 19 30 7 16 22 40 34 53 11 13 26 36 32 53 6 16 14 36 18 44 4 10-8 24-41 45-26 17-58 38-72 47-14 10-38 24-53 33-26 15-27 17-21 83 3 37 8 70 12 73 3 4 38 19 76 34 115 44 145 58 145 68 0 9-19 70-48 155-8 23-17 42-21 42-3 0-58-9-121-20l-115-19-42 47c-24 26-43 52-43 57 0 6 15 47 34 92 45 108 51 133 31 133-8 0-15 4-15 10 0 5-28 24-62 41-35 17-70 38-79 45-14 13-19 10-42-24zM428 2339c-43-21-78-44-78-49 0-6-7-10-15-10-20 0-14-25 31-133 19-45 34-86 34-92 0-5-19-31-43-57l-42-47-115 19c-63 11-118 20-121 20-4 0-13-19-21-42-29-85-48-146-48-155 0-10 30-24 145-68 39-15 73-30 76-34 4-3 9-36 12-73 6-66 5-68-21-83-15-9-39-23-53-33-14-9-46-30-70-46s-46-30-48-32 90-173 105-192c3-4 66 17 153 52 36 14 67 26 70 26s21-13 38-29c18-16 42-35 54-42 20-13 20-18 10-74-5-33-12-83-15-110-4-48-3-51 22-62 38-15 174-55 177-51 1 2 19 41 39 87l36 85v323l-45 13c-57 16-117 68-145 126-19 38-22 57-18 118s10 80 37 119c32 47 92 90 144 102l27 7v281l-40-7c-38-6-40-5-91 56-28 34-61 77-73 95-11 18-23 33-26 32-3 0-40-18-82-40z"
    />
  </g>
</svg>
