<svg xmlns="http://www.w3.org/2000/svg" id="root" width="1200" height="1200" viewBox="0 0 3280 3280">
  <path
    d="M1525 2966c-77-19-134-53-201-120-78-78-109-139-129-255-23-131-12-178 85-376 43-88 111-216 150-284s87-155 107-194c51-102 83-147 104-147 24 0 44 33 198 315 156 288 247 482 256 543 7 55-28 253-52 290-29 46-158 174-193 192-83 42-232 59-325 36z" />
  <path
    d="M1077 2683c-19-22-40-100-31-114 4-6 6-34 6-63-2-66-25-89-76-74-46 15-103 2-121-26-19-29-11-53 26-72 38-19 38-56 1-115-40-61-55-73-152-114-99-42-445-220-540-278-148-89-179-161-120-277 24-47 245-284 269-288 12-2 26 8 39 30 11 18 85 96 164 174 111 109 173 160 278 230 162 108 279 178 285 172 3-3-23-27-57-54-106-83-297-253-409-364-84-83-119-128-173-217-93-156-100-174-82-218 23-54 100-123 174-157 42-19 80-45 102-70 28-32 40-39 57-34 26 8 79 79 117 154 30 59 157 198 223 243l41 29-70-118c-82-134-178-331-204-414-24-78-13-100 68-138 35-17 69-30 77-30s29-5 46-11c18-7 48-9 67-5 35 6 36 7 78 129 39 110 129 308 150 331 5 5-2-31-15-80s-35-146-50-216c-34-157-31-166 71-198 101-31 97-34 114 78 12 75 29 136 37 128 3-2-1-54-7-115-21-188-5-211 149-219 102-6 185 11 206 41 19 28 20 142 0 222-17 71-18 88-6 80 5-3 22-57 36-120 15-64 32-115 38-115 24 0 166 52 176 63 7 9 0 58-25 162-59 253-64 278-61 281 7 7 73-135 125-270 51-134 61-152 91-170 29-17 39-18 76-8 77 20 156 54 182 76 26 23 26 23 13 85-14 65-118 290-168 363-16 24-39 63-52 88-12 25-38 62-58 83-55 57-22 44 63-25 90-71 144-136 238-282 46-71 74-106 86-106 10 0 35 20 55 45 28 34 49 48 88 60 93 27 188 129 188 202 0 68-198 366-282 424-18 12-58 48-89 79-55 56-292 260-339 292-14 9-20 17-15 17 19 1 182-97 305-183 136-96 392-332 421-389 12-23 27-37 38-37 20 0 229 215 265 272 42 66 39 167-6 215-56 60-397 250-608 340-130 54-190 104-211 171-14 49-8 69 26 82 40 15 43 39 7 71-30 27-36 28-92 22-51-5-64-3-81 13s-20 25-14 59c17 95 7 151-33 181-37 29-45 18-37-48 11-86 7-154-12-213-20-63-205-430-320-637-49-86-105-188-126-227-20-39-44-71-51-71-20 0-69 79-181 290-54 102-108 201-121 221-31 50-149 287-191 384-35 80-35 80-30 198 6 108 5 117-12 117-10 0-25-8-34-17z" />
</svg>