<svg xmlns="http://www.w3.org/2000/svg" id="root" viewBox="0 0 3130 4860">
  <path
    d="M1195 4854c-344-40-601-173-784-404-57-71-124-209-141-289-7-35-18-60-24-58s-20 21-31 43c-17 33-20 59-20 171v133l-39-38C51 4311 0 4186 0 4026c0-128 26-244 115-511 110-332 138-480 115-620-12-73-44-156-85-215-30-43-92-280-96-365-1-33-1-82 0-110l2-50 23 65c43 121 73 171 218 358 105 135 163 247 184 357 9 44 18 82 20 84 7 8 37-25 51-54 13-27 13-23 8 55-3 47-15 159-26 250s-24 217-28 280c-21 268 37 471 169 598 23 22 103 72 178 112 132 69 140 72 232 81 52 5 185 31 295 58 293 72 399 84 539 61 33-5 62-8 64-5 3 3-8 24-23 47-131 200-332 319-587 347-96 11-114 11-173 5z"
  />
  <path
    d="M1636 4399c-334-46-634-224-805-478-150-222-182-491-86-722 29-69 114-200 170-263l35-39 41 29c57 39 142 124 228 226l73 87-45 73c-78 126-100 223-73 329 26 100 89 180 197 249 51 34 181 90 205 90 23 0 16-20-11-30-21-8-25-16-25-52 0-132-44-344-100-484-95-239-248-422-625-748-343-296-487-456-586-651-68-132-85-181-69-200 7-8 17-15 22-15s47 36 93 80c79 76 105 93 105 70 0-6-7-54-16-108-21-129-14-299 16-397 58-185 118-266 419-565 268-267 333-345 396-483 44-97 65-172 79-292l13-100 17 55c21 68 46 210 46 260 0 74-30 196-68 275-46 95-107 177-252 340-190 214-268 337-307 485-24 89-24 291 0 378 58 212 197 382 577 701 380 320 559 526 682 788 75 159 132 372 156 580l8 72-45 20c-63 27-149 41-248 41-83 0-110 12-52 24 142 28 424-22 571-101 106-57 222-191 253-290 6-21 3-23-29-23-19 0-82 12-141 26-58 14-120 24-138 22-30-3-25-8 109-115 379-301 452-481 378-934-22-130-29-208-29-309 1-150 10-189 79-310l37-65-7 61c-7 72 9 234 37 352 10 45 52 185 93 311 117 357 119 367 113 561-4 138-9 180-31 258-27 98-90 257-150 382l-36 75 5-117c3-64 2-119-3-122-8-5-192 226-278 350-42 62-58 76-114 104-36 18-113 61-173 97-139 84-243 131-325 149-86 18-297 26-386 13z"
  />
  <path
    d="M2141 3480c-17-24-66-112-107-194-42-83-91-171-109-196l-34-46 31-49c77-123 155-333 178-477 7-45 11-128 8-205-4-105-9-142-32-208-15-44-34-91-42-103-15-22-17-23-34-7-11 10-27 38-37 63l-17 46-12-96c-20-155-57-231-226-460-54-73-114-164-134-202l-36-68 17-206c10-123 14-231 10-271-7-66-39-178-56-195-13-14-11-26 5-26 8 0 30 23 50 50 20 28 48 56 61 62 21 10 25 18 25 58 0 70 43 226 85 311 59 117 116 189 300 380 95 98 196 209 224 246 103 136 170 306 187 472 4 47 11 71 19 71 21 0 47-69 61-164 31-212 50-243 82-134 56 189 75 401 53 584-41 343-198 688-429 944l-59 64-32-44z"
  />
  <path
    d="M1725 2819c-27-17-108-91-180-163-71-73-144-143-162-157l-32-24 15-65c41-167-31-347-163-411-56-27-43-39 43-39 54 0 112 12 167 35 15 6 17 1 17-46-1-69-27-134-123-296-92-156-117-217-124-304-4-51-1-83 16-137 12-39 25-73 29-76 4-2 7 26 7 62 0 121 54 196 243 340 143 109 216 186 264 278 85 162 96 326 38 545-25 94-25 99 4 99 40 0 89-41 116-97 14-29 28-52 31-53 9 0 19 67 19 135 0 117-60 276-137 363l-38 42-50-31z"
  />
  <path
    d="M1155 1836c-92-29-174-93-260-201-62-78-65-93-40-208 23-109 67-178 196-312 64-66 133-145 153-175 49-73 43-49-50 200-40 107-80 233-90 279-38 191 13 324 156 405l45 26-35-1c-19 0-53-6-75-13z"
  />
  <path
    d="M1700 4400c0-5 9-10 20-10s20 5 20 10c0 6-9 10-20 10s-20-4-20-10zM1820 4400c0-5 14-10 30-10 17 0 30 5 30 10 0 6-13 10-30 10-16 0-30-4-30-10zM1930 3990c0-5 7-10 15-10s15 5 15 10c0 6-7 10-15 10s-15-4-15-10zM2340 3650c0-5 7-10 15-10s15 5 15 10c0 6-7 10-15 10s-15-4-15-10zM548 2960c2-16 6-30 8-30s4 14 4 30c0 17-4 30-8 30-5 0-7-13-4-30zM1216 920c10-16 20-27 23-25 2 3 0 10-6 16s-9 18-6 25c3 9-1 14-11 14-16 0-16-2 0-30z"
  />
</svg>