<svg id="root" xmlns="http://www.w3.org/2000/svg" width="180" height="180" viewBox="100 100 1600 1600">
  <path
    d="M845 1558 c-26 -29 -65 -79 -87 -111 l-39 -57 23 -9 c13 -5 55 -18 93 -31 l70 -22 87 30 88 29 -42 59 c-50 73 -128 164 -138 164 -5 0 -29 -24 -55 -52z">
  </path>
  <path
    d="M607 1518 c-9 -24 -19 -57 -23 -74 -6 -30 -5 -31 38 -37 24 -3 50 -8 58 -11 10 -4 26 12 48 45 18 28 32 52 30 54 -5 5 -127 65 -131 65 -3 0 -12 -19 -20 -42z">
  </path>
  <path
    d="M1098 1529 c-32 -16 -58 -32 -58 -36 0 -18 64 -103 75 -99 7 2 33 8 59 11 25 4 46 12 45 19 -1 21 -46 130 -55 132 -5 2 -35 -10 -66 -27z">
  </path>
  <path
    d="M390 1388 c0 -103 43 -327 79 -411 l17 -40 39 69 c51 87 172 209 253 254 105 59 104 53 14 83 -85 28 -208 51 -329 62 -71 6 -73 6 -73 -17z">
  </path>
  <path
    d="M1315 1403 c-83 -7 -233 -36 -305 -61 -41 -13 -76 -26 -78 -27 -2 -2 28 -20 65 -40 93 -52 218 -179 270 -273 23 -41 43 -70 46 -65 3 4 17 46 32 93 29 94 55 246 55 328 0 58 8 53 -85 45z">
  </path>
  <path
    d="M823 1261 c-129 -68 -238 -179 -301 -307 l-25 -51 39 -74 c52 -101 191 -240 289 -291 l70 -37 63 34 c87 46 161 104 215 167 52 61 117 169 117 193 0 9 -17 49 -37 89 -51 97 -182 228 -279 279 -40 20 -74 37 -75 37 -2 0 -37 -18 -76 -39z m180 -77 c63 -21 130 -83 164 -152 36 -74 39 -182 6 -253 -85 -187 -326 -236 -478 -98 -169 155 -113 428 102 505 52 18 150 17 206 -2z">
  </path>
  <path
    d="M301 1199 c-30 -10 -56 -21 -59 -23 -4 -5 38 -99 56 -124 7 -11 20 -7 59 22 l49 35 -10 56 c-12 63 -14 63 -95 34z">
  </path>
  <path
    d="M1401 1170 c-6 -28 -11 -54 -11 -59 0 -7 86 -71 95 -71 6 0 65 117 65 129 0 10 -58 35 -107 45 -31 7 -31 7 -42 -44z">
  </path>
  <path
    d="M323 1021 c-43 -32 -91 -73 -108 -91 l-30 -32 45 -40 c72 -64 171 -131 179 -122 4 5 20 44 35 88 l28 78 -29 89 c-15 49 -31 89 -35 89 -3 0 -42 -26 -85 -59z">
  </path>
  <path
    d="M1354 988 l-31 -91 29 -85 c16 -48 30 -88 32 -89 5 -5 130 89 181 136 l48 45 -39 34 c-43 38 -150 119 -174 132 -13 7 -21 -8 -46 -82z">
  </path>
  <path
    d="M462 817 c-27 -72 -58 -228 -67 -334 l-7 -83 60 0 c105 0 390 62 406 88 2 4 -21 21 -51 37 -78 40 -220 178 -263 254 -59 104 -55 102 -78 38z">
  </path>
  <path
    d="M1277 816 c-60 -115 -178 -233 -293 -293 -30 -15 -54 -31 -54 -34 0 -6 147 -52 220 -69 25 -5 92 -13 149 -16 l104 -7 -7 96 c-6 96 -52 302 -78 350 l-13 26 -28 -53z">
  </path>
  <path
    d="M270 700 c-16 -33 -30 -63 -30 -68 0 -11 133 -53 141 -44 4 4 10 32 14 62 l6 55 -44 28 c-24 15 -47 27 -50 27 -4 0 -20 -27 -37 -60z">
  </path>
  <path
    d="M1436 730 c-21 -16 -41 -31 -43 -34 -7 -6 17 -116 25 -116 4 0 35 10 70 22 41 14 62 27 62 37 -1 21 -52 114 -65 118 -5 1 -27 -11 -49 -27z">
  </path>
  <path
    d="M807 447 c-48 -16 -87 -33 -87 -37 0 -11 132 -180 158 -203 20 -18 21 -18 59 23 42 47 133 169 133 179 0 3 -39 20 -88 37 l-87 30 -88 -29z">
  </path>
  <path d="M618 398 l-46 -10 25 -73 24 -73 37 15 c20 8 51 24 69 35 l32 19 -32 49 c-34 52 -36 53 -109 38z"></path>
  <path
    d="M1063 360 l-32 -50 70 -35 c50 -26 71 -32 74 -23 9 25 45 131 45 133 0 1 -19 5 -42 9 -24 4 -52 9 -63 11 -15 3 -28 -8 -52 -45z">
  </path>
</svg>