<svg xmlns="http://www.w3.org/2000/svg" id="root" viewBox="0 0 150 157">
  <path
    d="M 150.714844 34.097656 L 130.925781 0 L 130.492188 0.0117188 L 113.648438 31.3125 C 109.226562 38.601562 101.222656 39.839844 101.222656 39.839844 L 10.058594 55.488281 C 5.234375 56.53125 5.195312 58.277344 5.195312 58.277344 C 4.375 61.101562 11.777344 64.566406 11.777344 64.566406 C 13.839844 65.578125 19.078125 64.046875 20.617188 63.554688 L 21.671875 63.339844 C 24.832031 63.0625 25.996094 64.683594 25.996094 64.683594 C 27.753906 66.457031 24.8125 68.609375 24.8125 68.609375 C 19.925781 71.984375 2.914062 81.117188 2.914062 81.117188 C -0.972656 83.199219 0.152344 84.730469 0.152344 84.730469 C 2.953125 90.15625 11.144531 87.703125 11.144531 87.703125 C 12.792969 87.851562 44.460938 65.132812 44.460938 65.132812 C 49.503906 62.679688 52.070312 65.378906 52.070312 65.378906 C 55.207031 68.039062 51.398438 70.738281 51.398438 70.738281 C 50.867188 71 35.984375 80.15625 32.617188 82.226562 L 31.394531 83.207031 C 11.292969 104.109375 11.242188 106.25 11.242188 106.25 C 10.050781 109.867188 12.140625 111.253906 12.140625 111.253906 C 15.132812 113.246094 19.128906 111.15625 19.128906 111.15625 C 24.210938 108.976562 31.691406 96.878906 31.691406 96.878906 C 35.480469 92.019531 41.074219 89.34375 41.074219 89.34375 L 66.308594 75.152344 C 69.804688 72.574219 76.078125 73.671875 76.078125 73.671875 C 82.464844 75.449219 105.605469 78 105.605469 78 C 113.234375 79.226562 108.703125 85.023438 108.703125 85.023438 C 101.984375 93.226562 99.554688 102.5 98.972656 105.121094 L 98.777344 106.425781 C 97.476562 123.65625 104.363281 121.332031 104.363281 121.332031 C 108.042969 121.066406 112.664062 109.054688 113.710938 106.171875 L 114.261719 104.925781 L 150.71875 34.785156 L 150.707031 34.097656 "
  />
  <path
    d="M 44.363281 128.425781 C 43.96875 131.792969 48.25 130.996094 48.25 130.996094 C 50.941406 131.105469 51.445312 128.21875 51.445312 128.21875 C 51.644531 123.753906 63.8125 98.761719 63.8125 98.761719 C 64.769531 96.082031 62.921875 95.042969 62.921875 95.042969 C 61.71875 94.199219 59.074219 95.191406 59.074219 95.191406 C 52.441406 98.910156 48.949219 104.867188 48.949219 104.867188 C 47.605469 108.183594 47.65625 111.753906 47.65625 111.753906 L 47.65625 111.851562 L 44.359375 128.425781 "
  />
  <path
    d="M 75.191406 121.773438 C 75.191406 121.773438 73.839844 123.558594 70.847656 124.824219 C 70.847656 124.824219 68.675781 125.863281 67.484375 129.359375 C 67.484375 129.359375 65.835938 131.820312 63.585938 130.183594 C 63.585938 130.183594 61.570312 128.769531 63.445312 126.011719 L 66.742188 122.144531 L 70.855469 117.828125 C 70.855469 117.828125 73.097656 115.453125 75.496094 117.230469 C 75.496094 117.230469 77.289062 118.347656 75.199219 121.773438 Z M 138.425781 133.234375 C 138.96875 132.761719 139.441406 131.96875 139.609375 130.625 C 139.609375 130.625 140.082031 128.503906 139.46875 126.808594 L 139.785156 124.902344 L 137.914062 124.902344 C 137.214844 124.441406 136.066406 123.960938 134.664062 124.453125 L 133.917969 124.902344 L 131.914062 124.902344 L 130.117188 139.542969 C 129.148438 139.414062 127.335938 138.757812 127.414062 135.65625 L 127.355469 115.667969 C 127.355469 115.667969 127.355469 112.324219 124.890625 112.273438 C 124.890625 112.273438 122.679688 112.050781 122.046875 114.933594 C 122.046875 114.933594 120.980469 120.664062 120.003906 122.402344 C 120.003906 122.402344 119.253906 124.453125 116.078125 124.902344 C 116.078125 124.902344 112.070312 125.648438 111.695312 129.847656 C 111.695312 129.847656 110.6875 134.902344 117.054688 137.433594 C 117.054688 137.433594 118.734375 137.992188 117.914062 138.914062 C 117.914062 138.914062 117.800781 139.59375 115.289062 139.699219 L 91.851562 139.828125 C 91.851562 139.828125 89.257812 140.28125 90.203125 137.101562 C 90.203125 137.101562 91.910156 130.585938 94.792969 124.679688 C 94.792969 124.679688 96.175781 121.8125 93.035156 120.507812 C 93.035156 120.507812 90.117188 119.320312 88.398438 121.144531 C 88.398438 121.144531 85.585938 124.15625 83.691406 129.625 C 83.691406 129.625 82.632812 133.410156 83.410156 136.953125 C 83.410156 136.953125 84.089844 138.574219 82.648438 139.582031 C 82.011719 139.800781 78.25 140.925781 77.875 138.472656 C 77.875 138.472656 77.460938 135.648438 80.378906 129.328125 C 80.378906 129.328125 89.046875 103.621094 89.242188 102.433594 C 89.242188 102.433594 90.445312 97.074219 85.148438 96.769531 C 85.148438 96.769531 80.566406 95.789062 79.167969 100.449219 C 79.167969 100.449219 78.171875 108.683594 77.875 110.066406 C 77.875 110.066406 77.46875 112.351562 75.476562 111.753906 C 75.476562 111.753906 73.984375 110.371094 74.972656 106.496094 C 74.972656 106.496094 75.476562 105.011719 72.585938 107.191406 C 72.585938 107.191406 65.902344 110.960938 58.71875 125.84375 C 58.71875 125.84375 56.027344 130.605469 53.921875 132.78125 C 53.921875 132.78125 52.433594 134.070312 54.226562 136.746094 C 54.226562 136.746094 56.417969 139.925781 52.136719 140.023438 L 25.195312 139.828125 C 25.195312 139.828125 20.703125 139.230469 23.804688 134.773438 C 23.804688 134.773438 24.296875 133.722656 26.5 133.527344 C 26.5 133.527344 28.933594 133.085938 30.535156 135.410156 C 30.535156 135.410156 32.6875 138.1875 35.125 138.285156 C 35.125 138.285156 39.417969 138.640625 42.210938 135.460938 C 42.210938 135.460938 44.101562 133.96875 40.265625 130.75 C 40.265625 130.75 37.914062 128.914062 41.867188 116.167969 C 41.867188 116.167969 41.921875 115.226562 39.367188 116.167969 C 39.367188 116.167969 36.871094 117.257812 35.023438 116.964844 C 35.023438 116.964844 31.234375 116.464844 27.089844 120.230469 C 27.089844 120.230469 19.066406 126.039062 17.113281 128.21875 C 17.113281 128.21875 14.628906 130.800781 12.535156 137.394531 C 12.535156 137.394531 11.429688 139.484375 9.988281 139.574219 L 3.800781 139.484375 L 4.105469 156.4375 L 141.019531 156.4375 L 141.160156 139.777344 L 137.34375 139.699219 L 138.40625 133.234375 "
  />
</svg>
