<svg xmlns="http://www.w3.org/2000/svg" viewBox="0 0 3010 2990">
  <g fill="#000000">
    <path
      d="M1353 2895c-6-33-32-198-59-367l-49-308h-52c-77 0-208-29-282-62-197-88-367-260-480-485-67-132-89-204-102-327-10-94-9-115 11-218 67-342 260-596 591-776 104-57 232-84 393-82 224 2 399 63 609 212 106 77 174 146 246 253 65 97 89 157 109 282l18 108 329 46c182 26 332 48 335 49s-199 37-449 80c-250 44-458 77-463 74-4-3-8-42-8-87 0-87-33-252-68-345-59-154-180-289-329-365-50-26-93-47-96-47s-29 41-58 90c-29 50-56 90-60 90s-10-45-14-100-11-103-16-106-56-2-114 2l-105 7v113c0 63-3 114-7 114-5 0-35-41-68-90-41-62-65-88-75-84-78 27-268 178-331 263-59 80-113 185-106 204 3 7 44 36 91 63s86 52 86 55c0 4-35 10-77 14-137 12-127 1-120 122 3 57 7 106 9 108s56 7 121 11 115 10 111 13c-3 3-47 25-97 48s-93 46-95 52c-5 15 53 145 90 199 57 85 189 186 313 240 85 37 179 52 319 52 95 0 106 2 106 18 0 26-90 905-94 917-1 6-7-17-13-50z" />
    <path
      d="M832 2370c-208-100-438-292-552-460-82-122-123-208-170-361l-42-134 6-125c14-267 43-388 138-570 84-159 183-270 391-439 216-175 569-265 887-227 166 20 337 74 452 144 129 78 300 251 412 416 48 71 84 132 79 136-4 4-34 24-66 44l-57 37-39-63c-22-35-54-87-73-117-51-82-152-179-268-257-164-110-226-140-351-170-107-25-122-26-284-21-132 4-187 11-245 28-141 41-322 155-513 323-121 107-200 258-262 498-19 75-25 122-25 208 0 155 15 234 66 356 57 138 114 232 192 324 120 139 206 199 377 265 55 21 101 39 103 40 5 4-61 165-68 165-3 0-43-18-88-40z" />
    <path
      d="M1285 1623c-21-71-39-130-41-132-1-2-60 27-129 64-146 77-140 84-64-86 26-60 45-110 41-113-4-2-59-18-122-36s-122-36-130-40c-9-5 37-24 135-56 83-26 151-48 153-50 2-1-30-60-72-130-41-71-74-130-72-131 2-2 65 29 140 68s138 70 140 68 16-66 31-141c16-76 31-138 35-138s19 62 35 138c15 75 29 139 31 141s65-29 140-68 138-70 140-68c2 1-31 60-72 131-42 70-74 129-72 130 2 2 70 24 153 50 98 32 144 51 135 56-8 4-67 22-130 40s-118 34-122 36c-4 3 15 53 41 113 76 170 82 163-64 86-69-37-128-66-129-64-2 2-20 61-41 132-21 70-41 127-45 127s-24-57-45-127z" />
  </g>
</svg>