<svg id="root" xmlns="http://www.w3.org/2000/svg" width="180" height="180" viewBox="100 100 1600 1600">
  <path
    d="M763 1594 c-13 -10 -14 -14 -3 -12 13 3 15 -35 18 -279 l2 -283 -279 0 c-255 0 -281 2 -290 17 -8 16 -10 15 -16 -8 -4 -18 1 -44 16 -78 19 -45 20 -56 9 -79 -21 -45 -30 -86 -24 -104 5 -16 7 -16 20 -3 13 13 59 15 290 15 l274 0 0 -280 c0 -240 -2 -281 -15 -286 -8 -4 -12 -10 -9 -15 9 -15 42 -10 93 11 l47 21 48 -21 c50 -21 91 -26 100 -11 3 5 -1 11 -9 15 -13 5 -15 46 -15 286 l0 280 273 0 c149 0 278 -4 286 -9 8 -5 10 -14 6 -22 -4 -8 1 -6 11 4 18 17 18 19 -4 85 l-23 67 20 45 c25 54 26 73 6 90 -13 11 -14 10 -9 -4 6 -15 -19 -16 -280 -16 l-286 0 0 274 c0 229 2 277 15 289 33 34 -34 29 -104 -7 -25 -13 -36 -15 -46 -6 -8 7 -34 18 -59 25 -38 12 -47 11 -63 -1z">
  </path>
</svg>