<svg xmlns="http://www.w3.org/2000/svg" id="root" viewBox="0 0 900 1580">
  <path
    d="M490 1537c-25-23-104-96-175-163-72-66-168-155-215-198s-88-83-91-89c-3-7 18-113 48-237 46-196 58-232 89-277 20-29 38-53 40-53s4 99 4 221v220l-29-20c-37-27-48-26-57 1-5 18 6 33 67 90 41 37 77 68 82 68 4 0 7-183 7-407l1-408 44-59 45-59v631l25 4c13 3 27 3 30 0s5-164 5-357V93l36-46c20-26 40-47 44-47 3 0 16 10 28 23 21 23 22 29 24 403l3 379h60l2-344c1-189 4-345 6-348 3-2 30 19 61 48l56 51v598h50V338l60 52 60 52v847l-145 125-145 126-1-127c-1-71-1-147 0-170 2-36-2-45-34-75l-37-33 118-5c125-5 121-3 115-50-1-6-60-10-155-10-124 0-156-3-166-15-13-15-71-21-84-8-4 4 34 46 84 93l91 85-3 177-3 177-45-42z"
  />
</svg>
