<svg xmlns="http://www.w3.org/2000/svg" id="root" viewBox="0 0 2230 2240">
  <path
    d="M900 2204c-36-7-72-17-80-20-8-4-19-6-24-5-4 1-14-3-20-9-7-5-16-7-19-3-4 3-7 0-7-7s-3-10-7-7c-3 4-12 2-20-4-7-6-13-8-13-3s-4 3-9-4c-4-7-18-14-29-15-12-1-22-5-22-10 0-4-4-5-10-2-5 3-10 1-10-5s-4-8-10-5c-5 3-10 1-10-6s-3-9-7-6c-3 4-11 0-17-8-6-7-17-15-25-17s-23-11-33-21-24-15-30-11-8 3-5-3c4-6 0-14-8-17s-18-7-22-8c-4-2-51-46-104-98-54-52-95-90-92-85 4 6 2 6-3 2-5-5-9-12-10-15-2-20-17-41-25-36-5 3-8 2-7-3 4-11-42-83-53-83-5 0-8-3-7-7 5-16-25-72-35-66-5 3-7 1-3-5 7-12-23-82-36-82-4 0-5-7-2-15 4-8 2-15-2-15-5 0-10-12-11-27 0-15-6-29-12-31-5-2-7-10-4-18s1-14-5-14-8-9-5-20 1-20-4-20c-6 0-8-11-5-25 2-14 0-25-5-25s-8-13-5-30c2-16 0-30-5-30-8 0-11-286-3-300 2-3 4-16 6-30 5-38 11-74 14-80 2-3 4-9 5-15 2-5 4-12 5-15s3-16 6-29c8-42 64-174 101-236 304-504 915-687 1436-429 227 112 396 281 507 507 63 129 97 250 112 396 25 251-49 523-202 740-158 223-409 384-680 435-103 20-340 20-430 0zm465-124c302-83 540-282 668-558 17-37 32-76 34-86 2-11 8-25 14-33 6-7 9-13 6-13s-1-15 4-32c6-18 12-44 15-58s7-38 10-55c12-60 15-238 5-248-5-5-7-23-4-38 3-19 1-29-6-29s-9-9-5-25c3-14 2-25-4-25s-8-9-5-20 0-20-6-20c-5 0-8-7-5-15 4-8 1-15-5-15s-8-7-5-15c4-8 2-15-4-15s-8-10-4-22c4-16 2-19-8-13-8 5-11 4-6-3 7-12-13-62-26-62-5 0-6-4-3-10 3-5 1-10-5-10s-9-4-6-9c8-13-60-122-97-155-17-16-25-25-17-20 25 13-59-77-123-133-33-29-63-50-67-48-5 3-11-2-14-11-3-8-10-13-15-10s-12-1-15-10c-3-8-10-12-16-9-5 3-10 1-10-6s-3-10-6-7c-3 4-14-2-25-13s-24-17-29-14c-6 4-10 2-10-3 0-12-56-33-64-25-3 4-6 1-6-6s-4-10-9-6c-5 3-12 1-16-5s-11-8-16-5c-5 4-9 1-9-5 0-7-6-10-12-7-7 2-24 0-38-5-68-26-215-41-329-35-136 8-252 37-367 91-123 58-204 115-295 205-128 129-221 288-267 460-22 82-25 117-26 246 0 126 3 164 23 235 49 185 124 320 248 451 135 141 290 235 459 278 118 30 117 30 284 26 122-2 172-7 235-25z"
  />
  <path
    d="M945 2009c-27-5-57-12-65-16-8-3-18-7-22-8-5-2-10-4-13-5s-8-3-12-4c-5-1-14-5-20-9-7-5-13-5-13 0 0 4-4 2-9-5-4-7-18-14-29-15-12-1-22-5-22-10 0-4-4-6-9-3s-12-1-15-10-13-14-20-11c-8 3-17-1-20-9-3-9-9-13-13-11-5 3-13-1-20-8-9-10-3-16 30-29 40-15 122-74 114-82-2-2-27 5-55 16-55 21-147 27-157 10-4-6-11-8-16-5-5 4-9 1-9-5s-5-8-10-5-10 1-10-5-5-8-12-4c-6 4-8 3-5-3 7-11-41-49-56-45-4 1-6-1-5-6 5-12-39-62-47-54-3 4-6 3-4-3 4-17-12-45-22-39-5 3-9 2-8-3 4-21-2-34-13-27-6 4-8 3-5-3 4-5-2-19-12-30-48-51-33-53 18-3 33 32 84 70 115 85 55 27 60 27 194 23 100-4 144-2 162 7 14 7 43 43 64 79s44 66 51 66c13 0 36-42 42-75 2-11 6-27 10-35 3-8 7-19 8-25 1-5 3-12 4-15 5-9 15-75 27-165 9-68 12-475 4-480-5-3-6-14-3-25s0-20-6-20c-5 0-8-7-5-15 4-8 1-15-5-15s-8-6-5-14-4-24-15-35c-12-12-18-21-13-21 4 0-2-7-12-15-11-8-16-15-11-15s-4-13-20-30c-16-16-36-30-45-30s-25-9-35-20c-14-15-15-23-6-34 6-8 11-18 10-22-1-5-1-11 1-14 1-3 3-15 6-28 2-12 15-43 27-69l24-46-5 55c-3 39 1 64 13 89 21 40 64 89 80 89 6 0 21 10 33 23l22 23v516c0 501 1 516 20 539l20 24 25-28 25-29-4-221c-5-216-5-219 8-126 23 165 74 299 118 307 12 2 26-15 48-58 52-102 50-101 195-94 114 6 129 5 187-16 74-27 123-56 180-108l41-37-23 45c-83 164-200 260-317 260-28 0-55-5-58-10-4-6-11-8-16-5-5 4-9 2-9-3s-6-9-12-9c-7 0-21-4-30-8-10-4-18-3-18 2 0 16 53 60 99 83l45 22-40 24c-58 36-179 80-266 98-84 17-261 20-343 5z"
  />
  <path
    d="M630 1621c-8-6-18-7-22-4-5 2-15-1-23-7-8-7-15-9-15-4s-4 3-9-4c-4-7-18-14-29-15-12-1-22-6-22-11s-3-7-6-3c-3 3-15-3-27-13-11-11-25-16-31-13s-8 3-4-2c8-8-29-40-47-40-5 0-10-5-10-10 0-17-42-65-50-57-3 4-6 3-5-3 5-21 0-36-10-30-6 4-10 3-9-2 4-22-3-41-19-59-10-11-16-26-14-33 3-8 0-11-7-7-7 5-9 1-5-8 3-9 1-16-5-16s-8-7-5-15c4-8 2-15-4-15s-8-9-5-20 0-20-6-20c-5 0-8-7-5-15s2-20-2-27c-5-7-7-26-5-41 1-15-3-35-9-43-10-11-10-24-1-57 6-23 11-53 10-67 0-25 7-75 11-75 2 0 4-10 5-22s6-30 10-40 10-26 12-37c11-61 19-35 16 50-6 123 13 222 62 319 76 154 190 241 366 279 15 3 40 20 57 37 30 31 66 114 57 129-14 22-167 38-195 21zM1465 1619c-47-11-73-42-54-65 6-8 9-14 5-14-12 0 24-59 50-83 14-13 49-29 78-36 147-33 270-133 344-279 22-44 38-83 35-86s-1-12 5-19c7-8 9-17 5-20-3-4-1-12 5-19 5-7 11-24 12-38 5-85 4-160-4-195-18-84 5-24 34 89 49 193 37 349-40 511-90 188-291 295-475 254z"
  />
  <path
    d="M748 1394c-4-3-21-8-40-11-18-2-35-9-36-14-2-5-8-7-13-3-5 3-9 0-9-6s-4-8-10-5c-5 3-10 1-10-5s-4-9-9-6-12-1-15-10c-4-9-9-14-12-11s-22-11-41-31c-20-21-28-26-17-12l19 25-22-19c-12-10-21-21-20-25 4-12-30-51-37-43-4 4-7 3-6-3 4-20 0-36-8-31-5 3-9 0-9-7-1-22-50-117-57-110-4 4-4 0 0-10 3-9 2-17-4-17-5 0-7-11-4-25 2-14 0-25-6-25s-8-9-5-20 1-26-5-33c-10-13-4-208 8-219 1-2 4-14 5-28 6-46 46-139 86-200 51-75 124-140 212-186 73-38 102-41 43-4-52 32-142 136-174 199-24 49-27 68-27 151 0 132 25 181 161 315l101 100 6 124c11 205 11 211-16 211-13 0-26-3-29-6zM1435 1252c-8-184-7-189 110-295 68-63 91-92 122-153 20-42 38-83 40-92 12-65 14-104 4-115-5-7-8-23-4-35 3-13 1-22-6-22-5 0-8-6-5-14 3-7-2-20-10-29-8-8-12-17-9-21 4-3 1-6-6-6s-10-4-7-8c7-12-29-63-39-55-4 5-5 3-2-3 7-12-38-57-101-99-23-15-40-30-38-33 10-9 153 94 211 153 109 110 165 257 167 436 1 176-49 308-159 418-70 70-128 100-219 115l-41 7-8-149zM1133 620c0-52 3-81 6-65 6 28 10 30 56 34l50 3-32 12c-39 13-43 28-11 38 20 5 19 6-8 7-34 1-49 14-56 46-3 11-5-23-5-75zM1086 665c-3-10-20-15-48-16l-43-1 33-10c17-6 32-14 32-18s-15-12-32-18l-33-10 42-1c29-1 45-7 52-18 8-14 10-3 11 45 0 63-3 74-14 47z"
  />
</svg>
