<svg xmlns="http://www.w3.org/2000/svg" id="root" viewBox="0 0 2320 3170">
  <path
    d="M40 3163c-14-3-28-8-33-12-4-4 11-55 33-114l40-107v-228c0-127 5-244 11-265 10-38 55-96 170-222 119-131 404-457 407-466 2-5-75-9-182-9H301l-116-75c-63-41-115-77-115-80s51-39 114-80l113-75h187c102 0 186-3 186-6 0-6-157-187-409-469-79-88-150-173-159-190-14-25-18-74-22-290l-6-260-38-98C14 64-1 18 1 16s20-6 40-8c35-3 38-1 134 122 148 187 146 183 156 366 9 161 17 191 61 230 19 18 264 193 632 453 93 66 138 81 177 61 13-7 185-128 382-268 318-226 361-260 377-296 13-30 21-82 27-192 11-177 5-164 153-353C2245-4 2245-4 2307 15c7 3-1 35-25 97l-36 93-6 260c-8 303-2 284-123 420-341 384-467 528-467 536 0 5 82 9 183 9h183l118 77c109 70 117 78 100 90-11 8-64 43-120 79l-101 64h-181c-100 0-182 4-182 8 0 7 193 229 477 550 113 127 108 108 111 397l2 250 35 94c19 52 35 100 35 106 0 7-16 15-35 17-35 4-37 2-136-124-147-189-140-172-154-367-10-127-17-174-30-195-10-14-86-75-169-134-352-252-563-400-585-412-45-23-85-5-258 117-92 66-247 175-343 243-194 137-225 162-246 202-9 17-17 85-23 182-7 112-14 163-27 187-19 37-222 303-232 305-4 1-18-1-32-3zm1220-1468 95-95 1-113c1-61 0-115-3-120-2-4-46 16-98 43l-94 51-100-51-101-50v243l96 94c53 51 99 93 103 93 3 0 49-43 101-95z"
  />
</svg>
