<svg xmlns="http://www.w3.org/2000/svg" viewBox="0 0 4670 4770">
  <g fill="#000000">
    <path
      d="M1048 4740c-33-36-36-74-8-110l19-25h1129c1075 0 1129 1 1147 18 27 28 25 89-5 121l-25 26H1075l-27-30zM1356 4501c5-5 38-23 74-41s73-36 82-41c10-5 25-9 33-9s23-4 33-9c22-11 78-28 122-36 58-11 184-58 200-75 3-3 20-16 37-28 32-22 39-23 259-21 224 1 227 1 250 25 29 28 118 69 194 89 3 1 19 5 35 9 17 4 41 11 55 16 14 4 45 13 70 20 73 20 135 47 195 84l40 25-844 1c-488 0-841-4-835-9zM1918 4118c-20-24-25-108-7-108 5 0 8-4 5-9-11-17 41-21 282-21h243l24 26c27 30 31 54 13 87-24 45-31 46-293 47-245 0-250-1-267-22zM1999 3853c49-94 48-335-2-400-7-10 31-13 187-13 189 0 196 1 196 20 0 11-4 20-9 20-10 0-19 47-28 144-5 66 8 160 28 198 24 47 21 48-186 48-183 0-195-1-186-17zM1912 3310c-18-30-15-94 6-113 16-15 50-17 272-17h253l23 28c29 33 30 55 3 93l-20 29h-262c-251 0-263-1-275-20zM1677 3052c-22-24-22-76-1-107l16-25h997l15 22c9 12 16 36 16 53s-7 41-16 53l-15 22h-498c-470 0-499-1-514-18zM2065 2823c-99-5-254-22-360-38-159-24-169-26-190-35-11-5-33-11-50-15-93-19-123-26-150-36-71-26-130-52-231-100-45-21-86-39-93-39-6 0-11-4-11-10 0-5-5-10-10-10-20 0-155-98-225-164l-70-65h1508c829 0 1507 3 1507 8 0 18-168 161-189 161-6 0-11 4-11 8 0 5-12 15-27 23-16 8-30 16-33 19-6 6-177 90-244 120-28 12-65 24-83 27s-36 10-39 14c-3 5-14 9-25 9-10 0-27 4-37 9-9 5-35 14-57 19-22 6-58 15-80 21-92 23-136 31-245 46-125 16-399 36-458 33-20-1-64-3-97-5zM405 2171c-10-2-25-10-33-18-21-20-19-89 3-113 18-20 37-20 1813-20h1795l18 22c25 28 25 89 0 112-17 15-144 17-1798 19-979 1-1788 0-1798-2zM30 1872c-17-14-23-29-23-61 0-63 18-75 121-83 106-8 327-10 334-3 3 3 937 5 2076 5h2072l30 29c38 36 38 66 0 102l-30 29H2331c-2189 0-2280-1-2301-18zM1303 1608c-16-27-13-57 9-77 22-21 27-21 873-21 649 0 854 3 863 12 7 7 12 8 12 4 0-5 7-3 15 4 18 15 19 49 1 73-12 16-67 17-889 17-690 0-877-3-884-12zM3920 1595c-10-19-11-30-2-50l12-25 282 2 282 3 6 25c4 14 3 36-1 48l-8 22h-558l-13-25zM1580 1404c-14-16-18-69-6-81 4-5 276-9 603-11 647-3 645-3 639 50-7 63 42 58-621 58-533 0-604-2-615-16zM3775 1407c-17-19-10-68 10-83 15-11 97-14 419-14 221 0 410 3 421 6s25 16 32 30c10 22 9 29-9 50l-22 24h-420c-317-1-424-4-431-13zM2100 1190v-40h-71c-84 0-109-11-109-48 0-58-2-57 265-57 235 0 247 1 261 20 13 18 12 60-3 75-2 3-41 7-86 10l-82 5-3 38-3 37h-169v-40zM4246 1177c-11-49 8-117 50-182 17-27 93-112 169-189 75-76 143-153 151-172 16-38 40-59 29-25-4 14-1 23 9 27 23 9 23 119 0 128-9 3-14 12-11 19s-4 24-14 38c-10 13-19 27-19 31 0 16-60 67-145 122-91 60-165 125-165 145 0 6-4 11-10 11-5 0-10 9-10 20s-4 20-9 20-11 10-13 23c-3 17-6 14-12-16zM4087 1091c-75-80-100-135-100-227 0-64 27-123 81-180 7-8 11-14 7-14-3 0 50-55 117-123 145-146 146-147 178-215l26-53 71 71c78 77 90 104 81 185-3 24-12 50-19 58-8 8-27 31-43 51-41 52-83 96-91 96-11 0-163 163-177 190-7 14-16 27-19 30-18 14-49 98-49 131 0 21-4 40-9 43-4 3-29-16-54-43zM2157 968c-67-12-111-44-141-103-51-98-26-207 63-268 38-26 53-30 111-31 60 0 72 3 106 29 53 40 57 45 78 89 45 95 0 220-94 262-59 27-77 30-123 22zM3960 648c0-12 61-150 70-158 10-9 58-114 81-180 19-52 24-85 24-167 0-68-4-106-13-115-24-24-11-29 19-6 87 66 160 165 159 215-1 10-14 41-30 68-17 28-33 58-36 68-4 9-9 17-13 17-8 0-190 180-233 231-16 17-28 29-28 27z" />
  </g>
</svg>