<svg xmlns="http://www.w3.org/2000/svg" viewBox="0 0 1490 1460">
  <path
    d="m650 1402-86-57 27-50c31-56 62-169 80-295 19-131 16-434-5-565-19-119-56-249-80-280-9-11-16-25-16-30 0-8 153-114 173-119 9-3 177 110 177 119-1 6-7 19-16 30-24 31-61 161-80 280-21 131-24 434-5 565 17 117 48 234 77 291 13 27 24 51 24 54 0 7-169 115-178 114-4 0-45-26-92-57z"
  />
  <path
    d="M440 1244c-36-25-69-49-74-54s7-25 28-47c62-64 134-180 156-249 27-89 27-228 0-315-24-78-75-165-142-242-28-32-49-59-47-61s37-26 78-54c86-60 79-63 132 53 66 146 74 196 74 460 0 204-3 250-19 305-21 74-101 250-113 250-4 0-37-21-73-46zM926 1199c-76-164-81-191-81-464 0-272 9-323 86-483 45-94 36-92 137-18l63 47-50 57c-66 76-118 163-141 241-27 87-27 226 0 315 22 71 97 191 154 245 20 19 36 38 36 42 0 8-125 98-147 106-9 4-28-27-57-88z"
  />
  <path
    d="M322 1044c-40-25-72-49-72-52 0-4 26-20 58-37 78-40 167-129 182-180 27-91-44-193-183-265l-65-34 76-53 77-52 33 37c19 20 50 71 70 112l37 75v135c0 131-1 137-32 203-32 68-91 157-103 157-4 0-39-21-78-46zM1050 1045c-17-25-46-76-63-113-31-65-32-71-32-202V595l37-75c20-41 51-92 70-112l33-37 77 52 76 53-64 33c-141 73-211 174-184 266 15 51 104 140 182 180 32 17 58 33 58 37 0 7-140 98-151 98-5 0-22-20-39-45z"
  />
  <path
    d="M141 826-2 732l68-44c250-161 230-151 263-133 17 8 31 17 31 19s-54 39-121 81l-120 78 108 69c59 39 113 74 118 80 12 11-20 38-44 38-9 0-81-42-160-94zM1152 904c-22-15-21-17 95-91 65-42 119-77 121-78s-51-37-118-80c-66-42-120-79-120-81s14-11 31-19l30-16 137 87c75 48 143 92 149 98 10 9-22 34-132 104-79 50-150 92-157 92-8 0-24-7-36-16z"
  />
</svg>
