<svg xmlns="http://www.w3.org/2000/svg" id="root" viewBox="0 0 150 81">
  <path
    d="M 113.832031 28.164062 C 113.320312 26.308594 112.640625 24.625 111.789062 22.9375 C 118.429688 21.082031 126.265625 19.394531 131.207031 18.550781 C 127.117188 21.25 119.964844 24.792969 113.832031 28.164062 Z M 36.167969 53.632812 C 36.851562 55.488281 37.53125 57.34375 38.554688 59.027344 C 31.398438 61.050781 25.269531 62.402344 20.160156 63.414062 C 24.246094 60.546875 29.695312 57.171875 36.167969 53.632812 Z M 149.769531 10.121094 C 148.917969 8.09375 144.832031 7.757812 139.71875 7.757812 C 132.054688 7.757812 120.132812 9.949219 105.828125 14.167969 C 98.335938 5.398438 87.265625 0 74.832031 0 C 52.179688 0 33.953125 18.046875 33.953125 40.476562 C 33.953125 41.488281 33.953125 42.332031 34.125 43.175781 C 11.8125 54.980469 -1.980469 66.113281 0.230469 71.507812 C 1.082031 73.53125 4.320312 74.542969 9.429688 74.542969 C 23.226562 74.542969 50.476562 67.292969 80.449219 55.148438 C 121.496094 38.453125 153.003906 17.878906 149.769531 10.121094 "
  />
  <path
    d="M 50.644531 73.027344 C 57.457031 77.917969 65.804688 80.953125 74.832031 80.953125 C 95.269531 80.953125 112.300781 66.113281 115.195312 46.546875 C 105.488281 51.609375 94.585938 56.667969 83.003906 61.390625 C 71.765625 65.941406 60.863281 69.992188 50.644531 73.027344 "
  />
</svg>
