<svg xmlns="http://www.w3.org/2000/svg" viewBox="0 0 4330 4350">
  <path
    d="M1997 4340c-522-50-980-260-1339-613-331-326-534-715-625-1197-26-139-26-563 0-705 91-492 302-889 651-1222 348-333 796-536 1283-584 125-12 348-8 500 10 181 21 481 114 663 206 416 210 751 543 965 960 34 66 66 134 72 150 94 256 131 411 153 624 62 626-160 1261-599 1714-231 238-533 434-826 537-279 97-637 145-898 120zm-831-629c44-20 89-70 98-111 4-14 8-136 9-272 2-136 6-251 10-254 6-7 92-26 222-49 44-8 163-31 265-50s191-35 198-35c9 0 12 60 12 265 0 303 3 318 76 374 97 74 234 39 285-74 16-35 19-69 19-302 0-204 3-263 13-263 6 0 59 9 117 20 58 12 139 27 180 35 256 47 357 66 373 71s17 26 17 257c0 228 2 256 20 292 10 22 28 50 39 63 22 25 89 52 132 52 61 0 134-47 160-104 17-37 19-71 19-398 0-197-4-368-9-381-5-14-23-41-40-60-36-40-67-50-316-96-88-17-243-46-345-65s-203-37-225-41c-123-20-135-25-154-63-75-146-277-147-344-1-19 40 11 32-372 104-104 20-246 46-315 60-69 13-156 29-195 36-38 7-84 18-101 25-38 16-91 74-101 112-5 15-8 187-8 382 0 312 2 359 17 385 50 91 153 127 244 86zm1113-1389c20-16 44-45 53-65 20-41-15-32 383-102 143-26 305-55 360-65s125-21 155-25c115-15 180-68 200-161 7-33 10-241 8-619-3-626 0-596-65-657-99-94-271-42-302 92-6 27-11 231-11 521v476l-127 22c-181 32-269 48-423 76-160 30-177 30-184 7-9-28-84-80-126-87-61-10-119 11-168 62l-44 45-91-16c-51-9-130-23-177-31-47-9-163-29-259-46-96-16-178-32-183-35-4-3-8-228-8-500 0-534 1-522-54-582-66-73-218-65-273 14-42 61-43 74-43 676 0 624 0 619 53 676 33 36 63 48 167 66 52 10 129 24 170 32 41 7 203 36 360 64s297 53 312 56c17 3 30 16 39 36 15 37 53 75 94 94 49 24 139 12 184-24zm26-667c88-23 144-54 200-110 72-71 90-113 90-205-1-110-38-172-150-249-118-81-325-100-467-44-234 92-314 314-170 475 58 63 108 96 197 124 85 28 212 31 300 9z"
    fill="#000000" />
</svg>