<svg xmlns="http://www.w3.org/2000/svg" viewBox="1880.69 1883.46 10359.31 11139.12">
  <g fill="#000000">
    <path
      d="M6990 13018c-113-12-199-34-406-103-210-69-475-177-494-200-9-10 35-36 196-115 224-109 287-147 378-225 51-43 116-122 116-139 0-19-92 21-176 76-132 86-300 154-487 197-100 23-244 9-392-39-151-49-217-71-255-85s-306-141-319-152c-13-10 27-14 225-23 280-12 357-23 529-70 137-38 327-123 435-194 99-66 185-171 204-248 8-36 1-35-54 7-139 107-281 189-375 217-59 17-291 75-345 86-30 6-79 15-108 21-70 14-422 14-497 0-81-15-108-30-196-113-42-39-106-98-143-130-67-59-146-154-146-177 0-12 90-8 205 10 227 37 288 41 592 41 265 0 321 3 375 17 46 13 94 17 176 16 63-1 112 2 112 7 0 16 43 50 64 50 93 0 163-61 195-170 21-70 51-126 92-175 17-20 59-100 76-144 8-22 13-14 40 65 47 140 64 206 103 419 28 148 43 185 87 215 60 41 194 181 211 221 30 70 56 62 137-45 59-79 110-129 174-171 21-15 44-38 50-53 11-27 34-126 51-217 37-212 104-465 121-465 4 0 11 14 14 32 8 35 46 108 79 150 12 15 31 40 43 56s35 69 52 118c34 99 64 136 128 153 61 17 83 13 114-20 28-30 29-30 106-24 56 5 98 2 148-9 155-36 192-38 364-27 164 12 320 6 506-19 322-43 345-45 345-31 0 23-80 120-151 182-40 35-104 94-143 130-92 85-108 94-187 108-81 14-429 15-501 1-165-32-355-78-458-112-117-38-175-71-358-205-77-58-87-56-57 12 38 88 102 157 210 231 49 33 231 119 305 143 36 12 72 26 80 30 21 11 182 48 265 61 39 5 173 15 300 21 126 6 231 12 233 14 4 3-4 8-98 58-60 32-332 143-376 152-16 4-38 10-49 14-110 43-242 71-337 71-173-1-266-35-670-248-49-25-91-42-95-38-13 12 30 77 82 123 80 73 186 137 403 245 193 96 202 101 187 118-16 18-177 87-320 137-38 13-79 28-90 33-44 18-227 72-340 99-139 34-195 39-285 29z"
    ></path>
    <path
      d="M7018 12027c-20-17-73-63-117-102-44-38-83-77-87-85-3-8-14-55-24-105-10-49-21-98-25-107-17-44 63-1 143 76 29 28 67 76 84 106s35 61 41 67c16 22 61-11 99-74 20-32 58-79 85-104 49-47 143-108 143-92 0 4-7 44-15 88-22 113-54 173-128 238-59 51-154 127-160 127-1 0-19-15-39-33z"
    ></path>
    <path
      d="M6935 11590c-55-38-117-81-137-95-63-42-81-85-106-250-21-131-23-185-9-185 7 0 49 24 92 53 71 47 124 102 155 162 55 104 115 175 149 175 6 0 19-19 30-42 11-24 31-60 45-81s26-41 26-44 24-33 54-67c53-61 152-137 196-151 22-7 22-6 16 56-16 153-49 305-73 331-10 11-34 31-53 45-19 13-53 37-75 54-102 76-159 109-189 109-11 0-66-32-121-70zM5900 11605c-130-36-241-125-292-235-50-107-59-179-34-280 26-104 37-112 80-55 31 41 98 82 141 87 29 3 30 2 26-32-1-19-16-64-32-99-19-42-29-80-29-112 0-42 5-53 36-84 20-20 41-34 47-32 7 2 9 25 7 63-10 139 0 234 25 234 45 0 99-62 129-148 27-77 68-150 91-162 13-7 34-10 48-6 32 8 77 44 77 62 0 22-44 78-135 172-111 115-127 149-81 170 43 19 124-11 251-93 63-41 123-75 134-75 4 0 18 33 29 74 40 137 24 257-50 367-48 72-81 101-158 141-107 56-211 70-310 43zM8020 11606c-126-35-222-105-274-199-46-81-66-147-66-216 0-64 37-211 54-211 6 0 49 23 96 51 178 107 295 152 315 119 13-20-29-89-99-160-97-101-148-167-144-187 4-23 65-63 94-63 31 0 65 47 133 187 38 78 62 115 79 122 54 25 77-43 66-192-4-57-3-98 2-95 45 20 61 33 72 55 20 43 14 107-15 170-14 32-29 75-33 96-7 36-7 37 24 37 38 0 77-23 134-79 23-22 46-41 51-41 12 0 27 42 41 117 16 78 1 170-42 260-35 75-66 113-121 151-122 81-254 109-367 78z"
    ></path>
    <path
      d="M5260 11270c-19-5-69-15-110-23-41-9-127-29-190-47-63-17-126-34-140-37-75-16-160-45-160-55 0-6 7-20 17-30 9-10 21-27 27-37 128-219 486-478 734-530 44-9 74-7 196 14 134 24 255 51 264 60 2 2-4 15-14 30-14 22-22 25-43 20-14-4-56-9-94-12-80-6-115 6-157 54-31 34-31 35-28 141 2 103 1 109-30 170-34 66-61 154-71 237l-6 50-80 2c-44 1-96-3-115-7zM8665 11268c-2-7-9-44-15-83-16-93-36-156-68-212-23-42-26-57-26-159-1-122-13-153-67-181-31-16-126-16-184-1-41 11-46 10-69-11-14-13-23-27-21-31s28-12 57-18 118-25 198-43c133-29 149-31 207-20 123 23 411 180 543 297 30 27 57 53 59 58s24 33 50 62c107 125 141 178 124 195-10 10-99 39-185 60-21 5-57 14-80 20-58 14-108 24-273 53-155 28-243 33-250 14zM6988 11073c-30-27-85-73-122-103s-94-79-126-107c-33-29-64-53-70-53-22 0-8-38 28-73 47-46 85-48 145-10 23 15 51 32 62 38 10 6 36 42 56 80 38 71 87 125 114 125 8 0 29-28 46-62 43-86 80-130 143-172 70-46 100-46 154 0 23 19 42 41 42 48s-37 43-82 82c-45 38-102 87-127 109-82 72-179 143-197 144-6 1-36-20-66-46zM4455 10945c-124-20-327-76-349-96-6-5-16-9-23-9-19 0-141-60-203-99-30-19-78-55-106-80-27-25-61-54-73-64-13-10-21-20-19-21 34-30 326-171 443-215 33-12 68-27 77-32 10-5 25-9 33-9s23-4 33-9c30-15 149-51 170-51 12 0 24-4 27-10 3-5 17-10 30-10s34-4 47-9c21-8 57-16 198-42 30-6 77-15 103-21 47-10 89-1 192 41 11 5 40 14 65 21s56 16 70 20c14 5 66 18 115 31 93 23 125 35 125 47 0 4-26 15-58 25-73 24-156 64-207 100-22 15-57 39-78 53-47 31-287 269-319 317-12 19-39 58-58 86l-35 51-60-1c-33-1-96-7-140-14zM9420 10893c-24-37-60-87-80-109-19-23-53-63-75-89s-78-80-125-119c-129-109-226-168-358-221-40-15-69-32-65-36s26-12 48-18c22-5 90-24 150-41 61-17 119-34 130-36 11-3 29-10 40-14 97-42 145-52 192-42 26 6 75 15 108 21 112 20 270 52 300 61 94 29 221 74 230 81 5 5 15 9 22 9 24 0 503 229 503 240 0 6-66 61-164 137-142 110-494 227-721 240l-90 5-45-69zM6524 10755c11-30-5-73-30-79-24-6-32-30-15-41 5-3 17-31 25-63 36-129 74-232 86-232 8 0 14 49 26 217 7 103-5 144-54 190-28 26-47 30-38 8zM7535 10719l-37-42 6-101c10-167 18-236 26-236 11 0 35 55 55 125 10 33 28 92 41 130l23 70-29 23c-19 15-30 33-30 48 0 34-12 30-55-17z"
    ></path>
    <path
      d="M7025 10690c-3-6-36-31-73-55-116-79-146-102-198-152-43-42-52-56-58-98-11-77-22-139-46-270-29-159-38-208-49-280-18-112-41-228-59-305-14-54-40-101-85-147l-41-43h49c78 0 204 28 270 59 84 41 162 120 208 213 20 42 37 81 37 87s4 19 9 29c5 9 15 37 22 62 18 66 50 121 69 118 10-2 17-20 22-58 18-149 66-258 158-353 90-95 166-131 313-147 60-7 111-9 114-6 4 4-9 23-29 44-42 43-68 91-80 147-23 103-42 199-58 300-11 66-26 156-40 230-11 60-14 75-45 260-9 55-21 108-26 117-5 10-38 40-72 68-34 27-76 61-94 75-112 90-201 133-218 105zM5705 10455c-79-15-185-51-185-64 0-3 28-17 63-29 34-13 71-27 82-32 11-4 47-18 80-30s68-26 77-31c10-5 27-9 37-9 11 0 23-4 26-10 3-5 17-10 30-10s26-4 29-9c3-4 27-14 53-21 27-6 57-15 68-20 55-22 165-47 242-55l61-7 8 59c4 32 8 89 8 128l1 70-40 13c-173 58-486 85-640 57zM8050 10463c-51-6-155-30-238-55-58-17-74-26-78-44-7-25 11-208 21-224 4-7 25-9 53-5 63 8 223 45 244 56 10 5 23 9 30 9 13 0 197 55 233 70 11 5 72 27 135 51 63 23 126 47 138 54 23 11 23 12-20 28-108 41-203 58-343 62-77 2-156 1-175-2zM3700 10411c-55-17-151-73-240-140-202-151-549-514-554-579-1-15 13-16 134-13 74 2 138 5 142 8 5 2 99 8 210 14 329 15 649 29 863 38 205 8 240 15 285 54 58 52 206 130 295 157 67 19 95 32 95 42 0 5-6 8-12 6-22-4-223 44-323 77-88 29-242 87-282 105-24 11-45 20-48 20s-44 18-91 40-88 40-90 40c-3 0-37 15-77 34-94 44-253 106-269 105-7 0-24-4-38-8zM10345 10411c-126-52-192-80-255-109-41-18-118-52-170-74s-119-51-148-64-55-24-58-24c-4 0-49-16-101-35-96-37-343-103-395-107-45-4-33-15 40-38 99-31 267-115 312-156 63-57 36-54 740-83 140-6 336-16 435-22 340-20 460-25 469-17 37 30-377 471-554 590-14 10-44 31-68 48-103 73-202 109-247 91z"
    ></path>
    <path
      d="M6497 10200c-3-14-20-92-37-175-93-444-113-512-173-573-58-59-95-75-178-75-59 0-76 4-116 29-84 52-153 177-168 300-10 93-16 96-71 35-208-232-337-484-406-796-18-81-18-551 0-655 13-79 16-90 57-263 33-142 106-359 128-382 10-11 10-11-16 115-28 132-37 228-37 389 0 238 41 457 117 631 84 192 259 290 618 345 61 9 169 25 240 36 278 42 350 71 563 225 36 27 66 19 133-33 35-27 80-57 99-66 19-10 42-22 50-27 79-49 226-86 465-115 316-40 460-84 620-190 122-81 209-282 245-565 13-102 12-378-1-481-11-90-35-216-45-243-3-9-2-16 2-16 5 0 16 22 25 48s35 99 58 162c41 115 79 256 102 385 18 99 19 619 1 700-60 269-155 478-318 692-64 83-128 153-135 146-4-5-14-45-22-89-24-125-90-241-168-290-54-34-154-38-214-10-54 25-114 83-135 131-20 47-76 282-122 518-18 92-37 167-42 167-11 0-2-232 12-305 6-27 15-81 22-120 17-99 38-205 48-240 19-65 64-136 101-163 39-28 75-77 66-92-12-19-264-32-360-19-142 20-260 83-411 222l-32 29-38-25c-22-14-59-46-84-72-56-59-104-90-189-122-57-21-87-26-221-30-164-5-271 4-277 24-2 6 23 38 57 70 33 33 69 75 79 94 30 57 56 156 81 314 6 39 15 93 20 120 18 103 30 270 21 300-8 30-8 30-14 5z"
    ></path>
    <path
      d="M5260 10160c-56-9-117-27-185-56-29-12-35-18-24-25 8-5 24-9 37-9s51-6 85-14 127-24 207-36c130-20 187-29 365-60 28-5 85-16 128-25 104-21 206-21 249 1 48 25 96 63 118 95l20 27-62 20c-35 11-90 25-123 32-33 6-71 14-85 17-152 31-615 52-730 33zM8450 10164c-185-12-419-50-528-85-62-21-62-21-45-43 27-34 84-81 120-100 41-20 131-21 243 0 47 8 108 19 135 24 28 5 77 13 110 19 33 5 83 15 110 21 62 13 142 26 269 45 162 24 226 37 226 44 0 9-81 38-157 57-57 13-370 26-483 18zM5175 9928c-81-15-228-49-260-60-110-38-341-172-352-203-2-6 52-9 154-7 156 4 386-7 655-30 101-8 144-8 162 0 21 9 83 87 121 151 6 9 24 32 42 51s29 37 25 41c-12 10-91 27-187 39-49 7-114 16-144 21-66 11-149 10-216-3zM8739 9935c-3-2-59-12-125-20-103-14-149-23-213-41-9-3-1-18 25-49 57-65 87-105 114-150 32-54 37-56 100-50 161 15 385 24 638 27 155 1 282 5 282 8 0 22-103 90-220 147-129 62-217 89-380 118-81 14-211 20-221 10zM6210 9832c-58-29-159-52-229-52-53 0-58-13-37-98 22-91 58-127 121-124 98 4 147 57 200 219 14 43 25 79 25 80 0 9-31-1-80-25zM7840 9844c0-25 20-94 42-144 43-98 94-138 178-142 68-2 111 54 125 166l7 56h-47c-77 0-176 22-235 52-63 33-70 34-70 12zM3013 9569c-16-3-64-30-107-60-42-30-87-61-100-69-12-8-53-40-92-71-70-56-95-83-169-178-22-29-52-66-66-84s-29-39-32-47c-4-8-17-31-29-50-95-156-209-410-184-410 2 0 53 21 112 46 60 25 174 70 254 100 80 31 154 59 165 64 31 13 177 64 315 110 69 23 134 45 145 50s135 46 275 91c568 181 626 200 660 217 19 9 71 51 116 92 44 41 119 102 167 134 48 33 87 64 87 69 0 9-1469 6-1517-4zM8965 9570c-44-5-122-9-173-10s-94-6-97-10c-10-16 60-238 78-250 11-6 65-15 120-20 56-5 143-14 192-20 50-5 135-15 190-20s138-14 185-19c299-33 411-43 416-38 9 9-43 66-127 139-196 171-288 216-496 243-121 16-160 16-288 5zM9590 9572c0-6 17-21 37-34 20-12 44-27 53-33 45-29 103-76 170-140 88-84 108-93 430-195 222-71 581-187 610-197 8-3 101-34 205-69 105-36 199-69 210-73 11-5 47-19 80-31 33-11 69-24 80-29 21-9 230-94 325-131 30-12 63-26 73-32 11-5 21-7 24-4 17 17-113 303-188 414-16 24-29 45-29 47 0 3-18 28-41 57-22 29-58 76-79 104-41 55-143 149-215 199-161 112-194 133-225 142-47 14-1520 19-1520 5zM4750 9547c-81-25-203-83-259-126-147-109-251-208-251-238 0-8 9-11 28-8 25 5 204 26 387 45 132 15 265 29 360 40 50 6 131 15 180 20 168 19 154 8 198 144 22 64 37 120 34 122-6 6-400 23-517 23-58 0-109-7-160-22zM6875 9170c-157-78-277-106-545-130-63-6-137-15-165-19-226-39-388-152-479-335-72-145-95-236-117-459-16-164 1-308 62-527 11-41 23-87 26-103 3-15 10-30 16-34s8 4 3 23c-37 159-30 482 15 654 53 205 106 307 218 424 47 48 104 100 125 115 108 72 212 127 275 143 232 61 341 46 442-59 57-58 79-100 79-148 0-29-9-45-45-84l-44-47 39-57c22-32 40-59 40-62 0-2 14-24 30-47 17-24 45-65 64-93 47-71 137-175 151-175 7 0 23 14 36 32 13 17 35 45 49 62 14 16 41 53 60 82 67 98 126 189 148 225l22 36-36 33c-70 69-67 140 8 228 51 58 67 70 131 93 56 21 169 25 221 10 17-5 51-15 76-22 48-13 208-88 251-116 14-10 43-30 65-45 73-49 190-180 232-258 48-89 105-257 120-355 28-173 32-206 32-273 0-90-33-306-56-366-3-9-2-16 2-16 9 0 42 99 74 220s60 328 60 444c0 77-4 109-31 256-29 158-120 342-219 441-90 90-333 178-495 179-193 1-445 64-626 155-27 14-53 23-58 21-4-3-11-58-15-123-3-65-11-174-16-243s-13-189-18-268-12-145-14-148c-7-7-25 151-38 331-6 83-15 204-21 270-5 66-11 133-12 149s-6 31-12 32c-5 2-55-19-110-46zM5148 9194c-3-3-187-19-403-35-158-12-182-21-289-113-105-89-346-329-394-391-71-91-122-170-122-190 0-14 56 3 165 51 17 7 107 42 200 79 94 36 179 70 190 75s74 27 140 50c163 56 177 61 200 71 11 4 92 31 180 60 88 28 169 55 180 60 11 4 29 9 40 11 18 3 21 14 27 113 3 61 9 123 13 138l8 28-67-2c-36-1-67-3-68-5zM8845 9178c4-13 10-75 14-138 6-113 6-115 31-118 14-2 29-8 35-13 5-5 19-9 31-9 13 0 26-4 29-10 3-5 17-10 30-10s27-4 30-10c3-5 17-10 30-10s26-4 29-9 18-11 33-14c75-13 788-277 972-359 66-29 75-21 40 37-17 28-44 68-60 90s-40 56-53 75c-31 47-254 269-340 339-150 122-171 130-411 150-71 7-177 16-235 21-58 6-129 10-159 10-51 0-53-1-46-22zM4220 9083c-92-15-302-57-390-79-176-42-227-56-585-165-38-12-135-43-215-69-122-40-279-89-416-131-41-13-182-161-298-312-119-156-288-579-342-857-8-41-19-90-23-107-5-18-7-33-4-33 8 0 87 64 148 119 28 25 95 80 149 121s112 87 129 101c64 52 306 209 322 209 3 0 33 17 67 38 35 20 77 44 93 52 17 8 49 27 72 42s43 28 46 28c5 0 255 146 270 158 7 5 48 29 92 52 44 24 87 48 95 54 8 7 29 18 45 26 17 8 48 26 70 40 22 13 49 30 61 36 11 6 53 31 93 55 39 24 80 49 89 54 93 56 124 85 207 194 69 90 194 244 263 323 23 27 42 51 42 53 0 6-42 4-80-2zM9820 9084c0-8 33-51 90-118 25-29 72-86 105-126 33-41 81-97 106-124 95-105 109-121 109-128 0-6 86-68 95-68 2 0 24-13 48-30 25-16 48-30 52-30 3 0 26-13 50-30 24-16 46-30 49-30s35-18 71-40 67-40 69-40c3 0 447-252 476-270 8-5 49-28 90-52s90-52 110-63c19-12 54-33 77-48 24-15 45-27 48-27 4 0 26-13 50-30 24-16 46-30 48-30 5 0 130-84 187-125 100-73 179-137 264-215 88-81 155-134 162-128 2 3 0 17-6 32-5 15-10 43-10 61 0 19-4 44-9 57s-15 50-22 83-16 64-21 70c-4 5-8 17-8 26 0 17-42 151-65 204-127 303-173 386-298 548-27 34-81 96-122 137-81 83-62 74-335 160-91 29-231 75-312 101-80 27-154 49-162 49-9 0-24 4-34 9-24 13-154 51-174 51-9 0-20 5-23 10-3 6-16 10-27 10-23 0-81 17-110 31-10 5-27 9-38 9s-53 9-93 20c-102 27-421 90-457 90-17 0-30-3-30-6zM4870 8708c-184-60-355-116-380-125-34-12-78-48-183-152-129-127-173-182-279-352-35-55-208-393-208-405 0-16 32 3 173 104 18 12 48 33 67 47s49 35 66 47c17 13 65 45 105 72 41 27 85 56 98 65s32 21 42 27 27 18 37 27c10 10 23 17 29 17 5 0 18 9 28 20s22 20 27 20 39 20 76 43c173 113 367 217 592 319 25 11 52 24 60 28 10 5 15 21 14 51-2 63-20 248-25 253-2 2-155-45-339-106zM8915 8793c-9-21-27-169-29-232-1-30 4-46 14-51 8-4 83-41 165-81 83-40 197-99 254-131s105-58 107-58c3 0 23-12 47-27 59-39 80-51 97-59 18-9 143-88 182-115 15-10 29-19 32-19 2 0 37-23 78-50 141-97 186-130 263-190 176-137 195-145 155-63-51 105-105 212-148 293-42 78-64 111-173 259-59 80-169 199-238 256-57 48-78 58-195 95-72 23-233 75-358 116s-231 74-237 74c-5 0-12-8-16-17z"
    ></path>
    <path
      d="M6670 8535c-15-18-10-39 37-165 92-251 138-368 195-497 10-23 18-47 18-53 0-15 99-208 111-215 5-4 9 43 9 116 0 118-1 121-18 106-27-24-38-21-53 16-11 29-29 70-94 212-12 28-50 107-84 178-98 204-128 287-103 287 4 0 12-10 18-23 58-122 221-425 240-448 8-8 14-19 14-23 0-11 62-86 72-86 4 0 8 23 8 52 0 55 0 54-175 308-110 159-130 187-156 217-23 27-29 30-39 18zM7430 8473c-7-26-38-101-67-168-30-66-64-142-76-170-26-59-116-247-140-292-19-36-34-42-43-18-16 40-24 5-24-100 0-113 5-134 25-96 6 10 25 47 44 82 54 104 201 471 277 693 36 106 38 116 26 116-4 0-14-21-22-47zM7319 8359c-30-39-67-87-82-107-16-20-39-48-53-63-13-14-24-30-24-36s-7-17-16-24c-38-31-64-88-64-139 0-27 4-50 8-50 23 0 132 171 231 364 34 65 60 121 58 122-2 2-28-28-58-67zM5069 8347c-152-78-236-124-271-149-14-10-29-18-32-18-7 0-154-89-189-114-69-51-110-93-177-181-39-52-75-97-81-101-6-3-14-16-20-27-5-12-25-42-44-67s-40-54-45-65c-6-11-19-33-30-50-111-169-260-552-260-667v-33l86 85c47 47 107 112 134 145s96 102 152 154c57 52 153 142 214 200 60 58 166 156 233 216 68 61 156 139 195 175 96 86 290 247 320 265 17 10 15 36-14 155-6 25-13 62-17 82-10 65-19 64-154-5zM8906 8398c-2-7-9-40-16-73-6-33-16-76-21-96-16-64-11-116 12-132 26-19 160-141 395-362 100-93 259-242 354-330 96-88 226-209 290-270 125-119 268-248 280-253 8-3 5 24-12 103-50 238-226 596-398 811-19 24-53 67-75 95-103 132-116 144-315 262-143 85-182 107-335 187-128 67-154 77-159 58zM4025 8392c-6-5-28-16-50-25-22-8-87-38-145-65-144-68-208-97-325-149-101-45-491-238-510-253-5-4-64-36-130-70s-127-68-135-74c-8-7-40-25-70-40-30-16-61-33-68-39-7-5-29-19-50-31-157-90-224-138-245-176-149-268-203-397-306-725-16-51-55-238-71-345-25-164-40-313-39-405 0-114-10-115 84 10 175 233 241 312 365 444 100 107 297 293 450 426 51 44 125 109 165 145 39 36 113 101 165 145 51 44 121 105 156 135 34 30 104 91 155 135 141 123 219 197 232 220 7 12 59 115 116 229 57 113 114 222 127 242 13 19 24 37 24 40s9 17 19 32c35 51 112 172 117 187 7 16-15 21-31 7zM10065 8389c-4-5 0-18 8-27 19-21 107-152 107-159 0-3 13-24 28-47 15-22 81-147 146-276 66-129 124-242 130-251 11-15 57-56 224-202 46-39 114-99 151-132 38-33 110-96 161-140s124-107 161-140 106-94 154-135c181-158 268-240 416-394 85-87 160-168 168-180s33-42 55-67c23-25 57-67 76-93 42-57 113-145 157-194l32-37 1 90c0 171-62 591-109 735-5 14-14 45-21 70s-16 54-20 65-14 40-21 65-16 50-19 55c-4 6-12 26-19 45-19 56-33 87-93 210-99 200-155 290-180 290-5 0-21 8-36 19-24 17-70 44-154 92-15 9-33 21-40 26-7 6-49 29-93 53-44 23-84 46-90 50-5 4-62 34-125 67s-160 85-215 114c-55 30-152 78-215 108s-175 83-247 118c-73 34-135 63-138 63-2 0-53 23-112 51-60 28-126 58-148 66-22 9-44 20-49 25-13 11-23 10-31-3zM5239 8012c-42-27-102-81-364-326-250-233-406-396-444-464-41-71-95-192-116-258-9-27-20-58-24-69-57-137-86-447-62-685l6-65 41 70c43 72 55 93 124 218 22 40 45 79 50 87 6 8 14 24 19 35s35 61 67 111c33 50 64 97 69 106 6 9 30 45 54 80 25 34 57 81 73 103 15 22 50 72 78 110 28 39 61 86 75 105s35 49 47 66c13 17 32 44 43 60 10 16 31 43 45 61 14 17 50 66 80 108 30 43 70 94 88 115 17 21 32 41 32 45s17 27 38 51c72 83 102 126 102 150 0 13-11 47-24 76s-31 70-39 91c-18 42-22 43-58 19zM8821 7987c-10-23-28-62-40-87-11-24-21-54-21-66 0-20 32-70 109-169 18-22 46-58 64-81s46-60 62-83c17-23 53-72 80-109 28-37 59-80 70-96s30-43 43-60c12-17 33-47 47-66s47-66 75-105c28-38 63-88 78-110 16-22 48-68 73-103 24-35 49-71 54-80 6-9 31-48 56-87 26-38 56-88 68-110s26-47 31-55 53-91 106-185c53-93 99-174 102-180 13-21 20 57 21 247 0 108-4 220-10 250-6 29-15 78-21 108-5 30-14 63-19 72-5 10-9 27-9 37 0 11-4 23-10 26-5 3-10 17-10 30s-4 27-10 30c-5 3-10 13-10 20 0 14-16 52-78 185-58 125-86 155-622 665-138 132-229 205-255 205-3 0-14-19-24-43zM4085 7731c-3-6-36-32-73-56-37-25-85-59-107-76-22-16-56-41-75-54-19-14-57-43-85-65-27-22-66-51-85-65-43-31-89-66-165-125-32-25-67-52-79-60-11-8-37-28-57-45-20-16-60-48-89-70s-75-58-101-80c-27-22-74-60-105-85s-77-63-102-85-53-46-61-53c-50-40-207-178-282-247-47-44-116-106-152-138-96-84-99-91-157-377-83-410-106-600-97-805 6-136 10-161 58-395 34-168 61-270 70-270 7 0 65 132 79 180 42 142 168 396 295 595 56 87 193 293 247 371 15 21 48 68 73 104 82 118 94 135 124 175 17 22 47 65 68 95 20 30 58 82 83 115s53 71 63 85c41 59 69 98 102 140 19 25 46 61 60 80s36 51 50 70 36 51 50 70 41 55 60 80c64 83 105 147 105 163 0 17 3 33 41 192s81 276 172 458c49 98 87 181 84 183-3 3-8 1-12-5zM5355 7664c-22-31-51-71-65-89-14-19-35-49-48-67-12-18-45-64-72-101-28-37-50-72-50-76 0-5-6-14-14-20-12-10-75-99-126-176-18-27-134-194-185-265-106-148-101-128-116-540-9-283-4-511 16-630 9-52 27-110 35-110 4 0 18 26 30 58 12 31 25 66 30 77 4 11 48 144 98 295 87 268 204 582 263 707 16 34 29 64 29 67 0 9 168 355 262 542l82 160-32 68c-33 71-83 155-92 156-3 0-23-25-45-56zM8698 7683c-52-78-91-157-90-182 0-15 45-117 100-227 100-198 202-411 202-419 0-2 15-37 34-77 45-98 59-130 95-219 52-133 162-431 192-524 16-49 34-98 39-107 6-10 10-26 10-36s4-22 8-28c4-5 14-27 21-49 11-35 25-74 63-177 14-38 23-35 36 10 29 96 32 133 31 472 0 397-14 617-42 648-9 10-17 22-17 26 0 3-22 35-48 69s-65 88-87 121c-22 32-59 86-83 120-23 33-63 92-90 130-26 38-56 81-67 96s-42 58-68 96c-96 138-176 248-207 287-4 4-18-9-32-30zM10030 7715c0-2 28-59 63-127 107-210 163-368 202-576 16-90 37-146 62-174 9-10 21-27 27-37 17-28 84-124 171-241 55-75 181-246 198-270 10-14 31-43 48-65 16-22 41-56 54-75 14-19 35-49 47-66 13-17 46-64 73-104 28-40 60-87 73-104 12-17 33-47 47-66 13-19 47-66 75-105 27-38 79-113 115-165s71-104 79-115c88-128 226-381 270-495 10-25 24-58 31-75 8-16 20-50 29-75 13-40 37-105 67-182 6-16 14-26 18-23 20 11 104 410 122 571 25 234-5 515-111 1018-31 149-43 177-92 216-23 19-104 94-178 165-139 133-311 284-470 410-28 22-72 58-99 80-26 22-72 58-101 80s-67 52-84 67c-32 27-114 88-174 130-18 13-51 37-72 53-56 43-89 68-115 85-47 32-234 170-334 248-28 21-41 27-41 17zM5543 7358c-10-18-36-71-57-118s-53-116-71-155c-18-38-51-115-75-170-23-55-57-132-75-171-41-87-79-206-95-296-16-89-17-659-1-798 25-225 54-366 98-480 24-64 71-146 78-138 2 2 16 116 30 253 38 379 42 416 70 620 35 266 49 348 86 505 6 25 14 63 19 85s18 81 30 130c12 50 26 110 31 135 10 44 20 83 39 158 5 20 15 62 21 92 7 30 20 88 31 127 26 105 24 126-16 159-66 56-115 94-119 94-3 0-13-15-24-32zM8471 7329l-73-61 5-57c3-31 10-74 16-96 11-45 47-182 62-232 24-86 32-114 49-188 95-389 109-485 216-1415 14-129 28-237 31-240 13-14 85 119 104 193 55 218 95 678 84 982-7 212-24 327-61 412-8 17-14 33-14 36s-16 40-35 81c-19 42-35 78-35 81 0 2-11 28-24 57s-54 123-92 208c-76 172-137 293-150 297-5 1-42-25-83-58z"
    ></path>
    <path
      d="M9960 6978c0-7 7-46 15-87 42-199 57-477 35-630-15-107-17-101 227-641 9-19 33-72 54-116 22-45 39-85 39-88s11-29 24-58c66-145 167-394 251-618 7-19 27-71 43-115 17-44 49-136 72-205 22-69 45-134 49-145 5-11 19-54 31-95s26-84 30-95 13-38 18-60c6-22 18-67 27-100 29-108 73-288 89-370 25-120 38-165 46-165 11 0 39 51 74 130 16 36 36 83 46 105 81 186 182 614 224 955 16 129 36 424 36 541 0 65 0 66-75 175-41 60-110 162-154 226-92 135-108 157-178 253-182 247-198 267-403 510-181 215-309 361-386 444-39 42-75 83-80 92-16 29-154 170-154 157zM4085 6904c-38-43-110-122-160-175-49-53-120-132-157-175-37-44-89-104-115-135-27-30-75-88-108-128s-78-94-100-121c-22-26-58-71-80-100-22-28-54-68-70-88-17-20-60-77-95-126-36-48-76-102-90-120-14-17-29-39-35-48-9-15-51-75-129-186-17-24-36-53-42-63-6-11-20-30-31-42s-27-33-36-47-29-43-44-65c-56-80-58-89-57-234 4-349 64-789 154-1116l20-80c7-27 16-54 20-60 4-5 13-31 20-58 7-26 17-50 21-53 5-3 9-12 9-20 0-31 118-276 136-281 7-3 21 50 38 139 47 246 57 291 77 368 12 41 24 89 29 105 11 41 80 255 90 280 5 11 24 65 43 120s47 132 62 170c14 39 41 111 60 160 47 128 232 590 261 653 13 29 24 55 24 58s23 53 50 111c28 58 50 107 50 109s16 38 35 80c19 41 35 77 35 79s30 65 68 142l67 138-3 265c-4 276 8 419 43 538 28 91 16 92-60 6zM4499 6384c-23-27-179-263-179-271 0-4-7-15-17-25-18-20-26-33-62-99-13-24-29-51-36-59-39-45-369-708-487-980-28-63-59-135-71-160-34-77-77-183-93-230-8-25-19-53-24-62-6-10-10-22-10-28s-9-29-19-53c-17-36-36-91-91-263-19-59-11-107 43-245 14-35 43-111 65-169 126-327 295-674 469-963 37-62 83-133 103-158 66-85 175-209 184-209 5 0 5 54 0 133-13 198-11 701 4 867 33 350 59 565 121 995 6 39 15 97 21 130s15 87 20 120c26 188 80 475 125 667 52 223 54 255 16 458-6 30-17 91-26 135-12 68-29 263-38 439-2 45-3 47-18 30zM9596 6242c-8-191-20-298-52-461-33-173-31-226 21-484 72-358 142-780 195-1167 6-41 15-106 20-145 17-119 39-318 62-565 15-162 17-654 4-880l-8-145 66 65c37 36 100 115 140 175 73 109 156 243 156 251 0 3 12 23 26 46 27 43 184 351 184 361 0 4 20 50 45 103s45 98 45 100 11 27 24 56 45 107 71 173 53 134 61 152c8 17 14 34 14 38s6 21 13 38c38 87 46 153 28 199-6 13-24 64-41 113-101 290-265 691-381 931-21 45-39 84-39 88 0 20-242 494-312 609-45 76-87 146-93 155-5 10-30 49-55 87-24 39-49 77-55 86-39 62-105 157-118 167-12 10-15-10-21-146z"
    ></path>
    <path
      d="M4861 5618c-99-303-124-384-151-478-7-25-16-56-21-70-9-26-35-122-75-280-22-86-50-207-89-390-14-65-58-332-70-425-4-27-11-81-16-120-13-102-29-229-39-315-14-116-20-160-32-231-12-77-22-58 147-289 33-45 69-95 80-110 11-16 31-41 43-57 13-15 43-53 65-84 116-156 316-364 485-504 40-33 99-82 131-110 115-99 165-140 195-160 16-11 41-28 55-37 59-40 102-58 158-67 33-5 62-5 67 0 10 9-10 85-26 104-4 5-8 15-8 22s-11 36-24 65c-14 29-28 66-31 81-4 15-11 30-16 33s-9 12-9 19c0 8-11 38-24 67s-35 89-50 133-31 89-36 100c-16 39-54 165-80 265-96 374-150 978-150 1668 0 263-4 390-11 405-6 12-38 61-70 109-93 137-155 282-199 462-25 104-66 342-76 439-4 37-10 67-14 67s-53-141-109-312zM9147 5920c-3-8-10-58-17-110-49-396-124-631-276-861l-68-104-2-425c-1-234-7-465-12-515-6-49-16-162-22-250-26-371-66-671-111-845-26-99-78-267-94-305-8-16-21-52-30-80-9-27-20-59-25-70-4-11-18-47-30-80s-28-73-35-90c-27-61-105-283-105-297 0-11 78-1 138 19 23 8 63 28 88 46 158 110 218 160 492 405 115 103 365 381 475 529 180 242 213 292 232 348 10 27 14 58 10 74-4 14-11 63-16 109-20 179-43 360-58 457-5 33-14 94-20 135-39 269-146 773-222 1038-5 17-13 48-19 67-5 19-14 50-18 68-12 44-82 267-92 292-5 11-14 38-20 60s-15 49-20 60c-7 16-60 167-113 325-4 13-5 13-10 0zM8101.444 4745.76c0 576.023-466.959 1042.982-1042.982 1042.982-576.023 0-1042.982-466.959-1042.982-1042.982 0-576.023 466.96-1042.982 1042.982-1042.982 576.023 0 1042.982 466.959 1042.982 1042.982ZM6840 5779"
    ></path>
  </g>
</svg>
