<svg xmlns="http://www.w3.org/2000/svg" viewBox="0 0 6360 9090">

  <path
    d="M3170 9079c0-6-29-61-64-122-60-107-113-218-226-482-64-147-115-308-141-439-11-54-22-102-25-107-2-4-32-117-65-250-94-381-145-511-253-645-31-38-56-76-56-84s27-42 60-75 81-87 107-120 72-87 102-120c31-33 65-79 75-103 18-40 18-45 2-154-30-197-41-218-122-218-73 0-94 48-83 192 4 54 10 111 14 128s2 30-3 30-59-26-119-58c-137-73-175-84-255-76-52 5-78 1-145-20-68-22-88-33-117-68-57-66-69-136-40-221 20-58 16-64-70-107-52-25-73-31-117-28-51 3-53 4-61 38-32 133-81 245-123 278-14 12-47 31-71 43-40 19-57 21-132 16-48-3-132-17-187-32-91-24-106-25-164-15-95 16-185 57-241 107l-50 45v-65c0-37 7-81 16-103 19-46 73-124 123-177 59-63 187-166 227-183 78-33 160-120 226-242 37-68 118-184 162-230 44-47 138-97 227-121 41-11 88-25 103-31 60-22 74-10 88 76 13 89 24 109 97 176 66 61 112 78 214 78 97 0 205-86 246-194 28-75 36-191 17-244-21-59-68-124-117-163-37-29-49-33-118-36-42-3-112 2-156 10s-88 11-97 8c-10-3-43-56-74-116-31-61-73-135-92-165s-44-71-55-90c-97-174-304-502-384-608-18-24-33-50-33-58 0-27 110-121 184-158 165-82 352-204 426-277 137-135 187-244 216-472 13-108 14-151 5-270-6-78-19-172-29-209l-19-66 37 29c66 53 170 209 210 315 25 67 75 310 91 442 20 165-14 317-120 537-39 80-71 149-71 154s-7 11-15 15c-31 12-19 33 133 239 36 48 66 87 68 87s18-9 36-20c71-43 171-19 241 59 45 50 51 84 43 219-6 94-11 113-37 155-46 76-41 90 41 121 38 14 75 23 82 21 37-15 73-105 48-120-6-4-22-30-37-58-23-45-28-67-31-158-4-100-2-111 23-168 34-75 134-174 195-192 47-14 51-35 19-89-47-80-92-88-164-33-40 30-57 37-95 37-58 0-105-28-147-86-48-67-56-106-51-237 4-110 7-124 57-261 29-80 66-175 82-212 17-38 52-152 79-255 27-104 56-207 64-230 8-24 25-96 36-160 25-136 80-384 110-492 26-95 55-280 80-500 11-97 22-187 25-201 5-25 31-250 65-555 10-93 21-217 25-275 10-171 34-450 45-520 5-36 10-72 10-80 1-8 6-4 11 9s16 123 24 245c26 395 35 509 50 636 8 69 24 204 35 300 48 416 102 811 120 885 11 44 27 105 35 135 22 78 82 355 90 415 4 28 25 111 45 185 21 74 54 197 74 272 19 75 47 163 62 195 14 32 48 120 76 197 95 265 85 451-32 549-38 32-94 51-127 42-15-3-50-22-78-41-55-36-74-40-106-23-22 12-79 95-79 116 0 7 25 24 55 38 69 30 148 108 180 177 22 46 25 67 25 166 0 102-3 118-26 165-15 29-33 59-40 68-12 13-12 22-4 45 19 48 49 75 79 67 49-11 131-52 131-64 0-7-15-40-34-73-29-53-34-73-39-151-9-163 8-210 97-272 59-41 129-45 190-12 35 18 40 19 48 5 5-8 24-36 43-61s64-86 100-135l65-89-30-45c-17-24-30-46-30-49s-27-63-61-132c-85-179-104-256-103-430 0-119 5-163 32-290 17-83 38-171 45-197 18-57 87-186 137-252 48-64 126-139 116-111-30 81-40 180-40 375 1 221 13 298 68 421 77 174 231 304 574 484 60 32 148 96 169 124 21 27 15 54-26 109-84 112-247 368-350 552-20 36-53 90-72 120s-63 107-97 171c-38 71-69 119-81 122-10 2-49-2-87-9-83-16-193-18-230-4-62 24-145 120-166 194-6 23-10 75-9 116 5 126 68 232 179 297 40 24 51 25 126 21 98-7 128-20 201-93 55-56 70-88 82-177 8-62 22-74 70-60 21 6 72 20 113 32 103 29 157 56 213 109 55 51 138 166 186 257 43 82 137 183 202 218 107 58 256 193 327 298 49 71 64 123 57 187l-7 53-41-40c-52-51-133-89-237-110-75-15-83-15-128 0-86 31-212 51-281 45-135-10-199-77-255-267l-31-105-48-3c-37-2-63 4-110 26-99 47-101 49-82 101 32 91 11 192-51 248-43 39-171 73-266 70l-83-2-134 67c-74 38-136 66-138 64-3-2 1-55 8-118 19-176 0-228-83-228-46 1-68 12-86 45-12 24-31 138-39 243-5 67-4 75 22 115 15 23 40 53 55 67 14 14 44 48 66 75 21 28 78 92 126 144 49 51 88 97 88 101s-26 39-58 78c-64 79-129 201-168 318-27 83-139 515-179 694-32 143-74 287-97 332-10 21-39 88-64 150-26 62-66 155-90 207-24 51-44 94-44 96 0 1-28 51-61 111-34 60-67 119-73 131-12 24-26 31-26 12zm53-1529c19-69 56-211 81-316l47-191-26-72c-15-39-43-104-65-144-21-40-48-100-61-135l-22-63-34 73c-19 40-56 134-82 208l-47 135 18 95c9 52 22 130 27 173 12 91 111 395 122 375 3-7 22-69 42-138z" />
  <path
    d="M1078 5037c-51-31-120-86-169-135-75-74-90-85-149-102-36-10-116-21-180-25-63-3-138-13-166-21-44-13-52-19-63-52-7-20-28-75-47-122-18-47-56-159-83-250s-66-212-86-270c-54-153-146-524-122-489 2 2 26 41 54 86 51 81 124 177 273 355 41 49 104 127 140 173s76 92 90 103c47 36 133 74 202 88 39 8 104 29 146 46 71 30 77 36 121 103 57 87 114 220 142 326 17 66 20 96 14 160-4 50-11 79-19 79-6 0-50-24-98-53zM5175 5038c-11-75-8-129 10-197 24-92 83-225 136-307 44-67 56-78 112-104 34-16 105-40 158-53 160-40 190-61 336-244 32-39 85-104 118-145 205-253 259-327 287-389 12-27 28-39 28-21 0 34-101 397-158 567-39 116-78 239-87 274s-34 109-56 165c-68 173-60 161-126 175-32 6-116 16-187 21-159 11-204 30-296 125-63 67-140 125-217 164-23 11-44 21-47 21-2 0-7-23-11-52z" />

</svg>