<svg xmlns="http://www.w3.org/2000/svg" viewBox="0 0 1120 1180">
  <path
    d="M390 1147c-41-13-98-36-127-51l-52-28 19-47c10-25 41-101 68-168 28-68 48-123 46-123s-32 11-66 25-66 25-72 25c-5 0 31-28 82-62 50-35 92-66 92-69s-84-26-187-51L5 552l183-1c173-1 183-2 178-19-4-11-19-79-35-153s-32-147-36-164c-8-34 4-12 89 152 27 51 51 93 55 93s31-103 61-230C529 103 557 0 560 0s31 104 60 230c30 127 57 230 61 230s28-42 55-92c85-165 97-187 89-153-4 17-20 90-36 164s-31 142-35 153c-5 17 5 18 178 19l183 1-187 46c-104 25-188 48-188 51s42 34 92 69c51 34 87 62 82 62-6 0-38-11-72-25s-64-25-66-25 18 55 46 123c27 67 58 143 69 169l19 48-59 30c-113 56-281 90-281 56 0-8 29-146 65-307 36-160 65-293 65-295s-63-4-140-4-140 2-140 4 29 135 65 295c36 161 65 299 65 307 0 21-71 17-160-9z"
    fill="#000000"
  />
</svg>
