<svg id="root" xmlns="http://www.w3.org/2000/svg" viewBox="0 45.66 200 108.69">
  <path
    d="M151.146 90.358c-5.563-2.362-12.334-.408-17.263 2.524-3.067 1.824-5.684 3.854-7.875 6.679-.271.35-4.637 6.263-4.31 4.137.811-5.256 6.638-10.039 10.572-12.988 10.82-8.116 24.049-9.679 36.791-5.604 6.096 1.948 11.431 5.486 14.666 11.089 1.612 2.792 1.586 5.347 5.224 5.653 1.491.125 7.282.692 6.88-1.962-1.934-12.739-14.605-23.487-26.766-25.903-14.018-2.785-29.032-.382-40.95 7.756-10.375 7.084-20.382 20.366-19.38 33.515-1.352 14.805 11.93 30.057 27.465 26.26 6.349-1.552 11.619-6.229 11.033-13.193-.525-6.272-7.101-12.631-12.924-7.08-2.181 2.078-2.418 4.57-1.332 7.277 1.477 3.681-5.431 1.159-6.481.295-4.781-3.933-4.724-12.254-2.819-17.582 2.262-6.33 7.926-10.526 14.608-10.873 4.44-.229 13.657 4.684 9.622 10.33-1.043 1.457-4.852 3.99-.004 4.221 2.295.107 4.758-1.772 6.015-3.547 1.474-2.082 2.052-5.592 1.698-8.088-.346-2.45-2.059-3.254-3.305-5.063-.783-1.133 3.86-.769 4.051-2.529.236-2.184-3.621-4.648-5.216-5.324zM68.834 79.385c-11.163-5.863-27.032-9.376-39.231-5.06-6.666 2.359-12.966 6.181-17.504 11.694-1.338 1.624-10.507 14.831-5.594 14.94 2.692.061 6.731 1.398 8.271-1.463 1.413-2.627 3.145-5.083 5.193-7.253 4.035-4.276 9.003-6.908 14.753-8.034 13.322-2.608 25.423-.617 35.996 8.355 2.818 2.393 5.385 5.017 7.29 8.206.505.846 1.726 2.394 1.662 3.449-.065 1.086-1.181.586-1.511.09-3.313-4.984-7.276-9.292-12.672-12.125-5.323-2.796-12.841-4.729-18.146-.848-1.379 1.009-4.503 4.174-1.64 5.326 3.942 1.586 1.265 1.892-.262 4.495-2.522 4.307.798 13.822 6.713 13.392 4.4-.319 1.97-2.478.485-3.978-1.822-1.846-.349-5.331 1.027-7.008 9.186-11.186 25.575 4.037 24.323 14.861-.224 3.674-.462 6.801-3.166 9.615-1.271 1.324-5.902 4.688-7.506 2.104-.656-1.057 1.166-3.406 1.129-4.668-.045-1.49-.799-2.806-1.719-3.928-1.841-2.242-4.423-2.963-7.243-2.525-6.803 1.053-8.472 11.545-4.622 16.276 4.263 5.24 10.445 7.211 17.047 6.062 14.522-2.528 20.524-15.313 20.2-28.728-.322-13.482-11.859-27.253-23.273-33.247z"
  ></path>
  <path
    d="M189.691 110.582c-5.85-.178-7.217 6.711-13.426 6.26-1.104-.08-5.613-1.76-4.226-3.585.679-.893 3.533.278 4.799-.472 4.487-2.659 2.293-10.196-1.778-12.059-4.068-1.86-9.354.039-11.795 3.563-6.402 9.238 1.644 24.341 13.311 23.222 6.249.165 11.9-3.208 15.523-8.214 1.271-1.755 3.467-4.854 3.209-7.164-.251-2.247-4.21-1.509-5.617-1.551zM26.838 99.852c-4.401 1.478-7.709 7.315-3.928 11.248.771.801 5.571 2.215 4.752 3.211-1.47 1.787-3.046 2.34-5.312 1.879-2.975-.605-4.684-2.168-6.523-4.447-1.362-1.688-4.327-1.204-6.419-1.102.224.006.25.018-.603.018 0-.1-4.044-.393-3.379 2.533a15.492 15.492 0 0 0 3.582 6.912c3.311 3.688 8.101 6.293 13.085 6.506 10.672.457 21.885-9.283 16.601-20.594-2.147-4.599-6.678-7.904-11.856-6.164z"
  ></path>
  <path
    d="M15.302 108.215a2.34 2.34 0 0 0 2.34-2.34v-.048a2.34 2.34 0 0 0-2.34-2.341H2.34A2.341 2.341 0 0 0 0 105.827v.048a2.34 2.34 0 0 0 2.34 2.34h12.962zM197.66 103.486H185.784a2.342 2.342 0 0 0-2.341 2.341v.048a2.34 2.34 0 0 0 2.341 2.34h11.877a2.34 2.34 0 0 0 2.339-2.34v-.048a2.34 2.34 0 0 0-2.34-2.341zM104.605 109.661c0-25.161 22.291-37.406 30.201-40.292-5.022-2.865-10.064-6.467-13.664-9.336-7.182 5.756-11.514 13.67-15.113 20.848h-.711v-5.023c0-6.488 2.867-15.824 7.179-21.581-2.867-2.153-9.334-5.751-12.201-8.62-2.889 2.869-9.357 6.467-12.244 8.62 4.313 6.472 7.199 15.093 7.199 21.581v5.023h-.732c-3.58-7.178-7.891-15.092-15.823-20.848-2.866 2.869-7.891 6.471-12.936 8.646 7.912 2.844 29.491 15.82 29.491 41.692v3.598c0 2.159-1.424 23.838-2.887 26.703 2.887 3.602 5.775 7.914 7.932 13.671 1.422-5.757 5.022-10.069 7.892-13.671-1.424-2.154-3.58-23.834-3.58-25.986v-5.024h-.003z"
  ></path>
</svg>
