<svg xmlns="http://www.w3.org/2000/svg" viewBox="0 0 2140 1710">
  <g fill="#000000">
    <path
      d="M475 1652c-31-98-44-174-45-257 0-86 22-196 46-232 8-13 12-23 8-23-11 0 49-94 94-148 26-31 51-51 59-48 7 3 13-1 13-8 0-12 39-42 99-75 40-22 100-40 165-51 68-11 73-8 126 79 14 22 27 40 30 41 3 0 24-30 48-66l43-65 47 6c118 17 224 64 310 140 48 43 121 135 107 135-4 0 1 7 9 16 9 8 14 20 11 25-4 5-2 9 4 9 19 0 53 115 60 205 10 125-16 295-51 330-7 7-8 2-3-13 4-13 7-87 8-165 1-134 0-145-25-199-15-32-39-74-54-94-32-42-110-84-155-84h-32l6 53c11 91-31 267-64 267-6 0-8 4-5 9 7 11-63 93-74 86-4-3-10 2-13 10-3 7-20 21-38 30-33 18-33 14 4-37 11-15 25-24 30-21 6 3 7 1 3-5-7-11 40-92 54-92 4 0 7-6 8-12 1-7 4-35 8-61 6-40 3-51-14-70-15-16-20-33-19-61 2-32-3-45-33-77-19-21-52-45-74-54l-39-16-34 33-35 33-27-32c-15-18-31-33-36-33-4 0-26 9-49 21-58 30-90 73-91 123 0 27-6 45-17 54-26 19-32 71-13 115 8 20 13 37 11 37-3 0 6 12 19 26s30 39 37 55 15 29 19 29c3 0 15 13 27 29 21 29 21 29 1 24-41-11-138-113-171-180-28-58-32-76-36-174l-5-109h-25c-41 0-109 38-148 83-41 48-85 140-85 177v125c0 55 5 124 11 154 5 30 9 56 7 57-2 2-12-22-22-54z"
    />
    <path
      d="M270 1598c-8-18-20-41-29-52-9-10-15-19-13-20 2 0-4-17-12-36-23-57-46-184-46-260 0-78 23-206 47-260 9-19 17-39 18-45 6-27 48-105 57-105 5 0 7-4 4-8-8-14 161-228 172-217 3 2 13-6 23-20 23-28 128-104 186-134 96-48 235-86 276-75 13 3 41 35 67 75 24 38 47 69 50 69s30-34 59-75c58-80 59-81 140-65 138 26 295 115 421 239 79 78 168 194 162 214-1 4 3 7 9 7 5 0 7 5 4 10-3 6-2 10 3 10 18 0 90 186 77 199-3 2 0 10 6 18 27 32 20 322-9 368-4 6-8 19-9 30-4 25-72 169-77 164-3-2 3-33 11-69 23-95 24-315 1-357-17-29-17-34-1-76 16-43 16-45-7-83-135-221-280-352-442-399-95-27-115-20-157 52-30 52-41 62-63 63-43 0-72 18-98 61-14 21-28 39-31 39-7 0-16-18-17-33-2-20-77-67-107-67-27 0-35-5-45-30-7-16-11-30-10-32 2-2-12-19-29-39-31-35-35-36-72-28-21 5-42 8-46 7-9-1-26 5-108 42-87 40-183 127-277 252-19 26-39 44-43 40-5-4-5-2-2 4 4 6-7 32-23 58-30 46-30 47-13 87 14 35 14 47 4 76-32 86-29 295 5 411 10 34-2 26-16-10zM27 1136c-5-15-6-31-3-34 8-8 18 25 14 45-3 13-6 10-11-11z"
    />
    <path
      d="M2106 1078c-3-13-6-34-6-47 0-73-58-228-102-275-15-16-18-29-14-59 7-40 1-53-62-137-36-49-182-202-182-191-1 3-10-5-20-18-11-13-20-21-20-17 0 3-21-7-47-22-77-44-172-83-218-88-16-2-39-6-50-8s-29 0-40 4c-11 5-16 9-12 9 5 1-1 16-12 35-12 18-21 41-21 50 0 13-13 16-72 17-40 1-77 1-81 0-5-1-6 3-2 9 3 5 1 10-5 10-5 0-20 20-32 45s-26 45-31 45c-4 0-5 6-2 13 7 14-6-5-50-72l-30-46-71-3-71-3-22-49c-31-68-38-72-102-59-70 14-130 34-179 59-22 11-40 17-40 13 0-5-4-3-8 2-4 6-38 34-77 63-81 62-172 147-187 176-6 12-29 44-50 72-35 47-38 56-32 93 5 34 3 45-13 59-43 38-103 213-103 303 0 28-13 39-24 20-3-5-6-58-7-118-1-95 8-161 28-213 3-8 7-25 9-37 8-60 158-335 190-347 8-3 13-10 10-14-3-5 5-20 17-35s38-47 57-72c27-35 36-41 43-30 11 20 24 19 48-4 49-46 300-168 320-156 4 3 9 1 11-4 1-5 40-17 86-26 126-26 437-18 549 14 46 13 80 27 77 32s2 6 10 3c18-7 186 73 186 88 0 6 3 8 6 5 4-4 29 10 56 29 42 31 51 34 65 23 13-12 20-9 45 21 50 60 141 192 141 206 0 7 4 11 8 9 4-3 34 50 67 118 85 171 114 319 96 475-7 55-18 67-28 30z"
    />
  </g>
</svg>
