<svg xmlns="http://www.w3.org/2000/svg" viewBox="0 0 2450 2360">
  <path
    d="M1147 2344c-55-17-67-36-42-64 17-19 17-21 1-39-18-20-61-32-83-24-17 7-17 50 0 56 9 3 8 8-3 20-13 15-22 15-82 2-104-21-124-37-92-69 21-21 14-48-16-63-31-15-52 0-44 32 23 93-213-52-364-224-93-106-152-190-206-298-42-85-59-153-38-153 14 0 39 32 47 60 4 14 40 58 79 98 285 295 742 411 1062 271 202-89 372-257 444-439 46-117 33-293-33-429-46-94-162-211-239-239-79-29-178-46-221-38-45 8-46 16-8 39 16 9 42 32 57 50l27 32-47 7c-81 11-201 90-341 222l-70 67-160-3c-147-3-164-5-210-28l-50-25 45-7c25-3 65-7 89-7l45-1-27-28c-15-15-27-30-27-33 0-2 26-5 58-6 81-4 115-12 104-26-5-7-13-27-17-46-6-30-5-33 10-27 37 14 106 28 111 23 3-3-6-26-21-51s-25-46-22-46c2 0 24 7 48 16 63 22 106 12 126-31 15-32 15-37-2-75-36-80-157-160-243-160-49 0-82 14-82 35 0 20 40 45 72 45 16 0 28 4 28 10 0 18-60 41-137 50-42 6-78 12-80 14-5 4 61 36 76 36 21 0-1 27-40 49-23 13-65 25-100 28-32 3-59 10-59 15s17 16 37 25c36 14 36 16 18 29-20 15-137 54-161 54-25 0-3 27 44 53l47 26-30 11c-17 7-109 16-205 21s-176 12-178 14c-11 11-42-18-42-40 0-37 28-150 56-223 95-252 328-562 482-641 20-10 69-40 107-66 88-58 249-137 340-165 89-28 295-38 416-21 161 23 329 75 329 101 0 7-11 25-25 42-48 57-17 128 56 128 63 0 91-42 57-85-38-49 0-72 65-39 52 27 201 131 227 160 24 25 25 26 6 40-11 8-31 14-46 14-34 0-70 26-70 51 0 38 29 77 65 89 62 21 89-3 83-74-8-87 89 8 163 159 28 58 49 112 45 120-4 11-18 14-53 12-42-2-49 1-60 25-10 20-11 33-2 55 26 69 78 85 107 33 9-17 24-29 32-27 39 7 84 216 66 311-8 42-21 45-48 11-22-29-49-32-72-9-19 19-22 104-4 122s56 15 67-5c14-26 31-5 37 48 5 38-16 211-32 262-7 23-31 22-44-2-12-24-43-35-71-26-23 8-49 60-49 100 0 36 39 53 72 31 30-20 38-13 38 33 0 42-40 116-99 183-64 72-100 74-101 6 0-56-54-57-118-3-45 38-38 81 14 89 10 2 22 10 27 18 28 44-45 131-156 184-102 49-132 44-120-18 7-35-22-51-67-38-64 18-80 57-34 86 56 37 3 85-134 119-74 19-92 11-92-40 0-42-19-57-67-53-31 2-39 7-41 27-2 13 1 28 7 34 19 19 12 47-15 57-37 14-141 11-197-6zM480 552c77-67 140-127 140-131 0-5-12-12-27-16-25-6-35 1-106 77-90 97-176 203-159 197 6-2 74-59 152-127z"
  />
</svg>
