<svg xmlns="http://www.w3.org/2000/svg" viewBox="0 0 11420 15220">
  <path
    d="M2397 15190c-54-21-99-53-153-108-46-46-104-132-104-152 0-8 223-498 496-1088 273-591 494-1076 491-1078-2-2-84-13-183-25-1177-134-2040-546-2465-1178-89-132-150-254-196-390-41-120-45-168-25-311 24-173 1-318-69-440-61-106-114-237-146-360-20-75-26-128-30-255-6-175 6-268 53-416 23-74 31-85 107-162 101-100 143-180 187-352 42-163 164-527 248-737 303-757 750-1534 1192-2068 164-198 239-316 319-498 80-181 230-421 408-650 231-297 511-562 821-779 59-41 109-76 110-78 2-2-131-271-297-598l-301-594-122-6c-68-3-145-12-173-20-59-16-126-49-144-70-12-15-544-2554-538-2571 2-5 64 59 139 142 480 534 915 1086 1271 1613l118 174v111c1 166-30 298-96 410l-24 40 290 559c159 308 293 563 297 567s65-17 135-48c319-136 668-232 931-255 67-5 148-17 181-25 76-19 206-82 267-128 54-42 96-46 144-17 44 27 62 84 68 216 3 61 12 132 20 159 42 137 146 126 180-19 4-16 11-86 15-155 9-139 23-180 71-205s86-19 138 21c61 46 191 109 267 128 33 8 112 19 176 25 203 17 457 77 719 170 63 22 115 39 116 38s120-258 264-571c260-564 262-570 246-595-76-116-126-291-126-446v-90l111-180c223-363 459-708 744-1090 253-339 585-751 585-726 0 18-410 2564-415 2582-9 26-78 69-147 90-35 11-116 25-180 31l-117 12-267 594c-206 456-265 595-254 602 7 4 64 38 126 76 398 238 775 581 1066 969 152 202 320 476 364 594 44 116 144 279 253 415 634 781 1109 1654 1419 2606 38 118 77 249 87 290 9 41 37 117 61 169 37 79 56 106 123 171 72 71 81 84 105 156 42 127 57 227 58 374 0 242-65 469-197 690-20 33-38 81-45 119-16 89-16 260 0 360 13 79 13 89-8 168-43 168-141 364-266 531-420 563-1186 937-2219 1086-92 13-170 25-172 28-2 2 232 459 521 1016l525 1013-32 52c-123 202-296 286-465 227-26-9-82-115-603-1143l-574-1132-167-27c-717-119-1444-425-1790-756-132-126-264-137-380-31-279 256-650 457-1126 613-162 52-407 117-539 142-49 9-95 22-102 28s-257 556-557 1221l-545 1210-43 17c-59 23-169 22-231-2zm3050-3765c41-30 43-35 155-347 62-174 116-314 119-310 4 4 53 147 109 317l103 311 51 37c27 20 51 35 53 33 2-1 50-152 107-335s106-334 107-336c2-2 89 143 193 322 103 178 192 321 196 316 5-4 65-138 134-297l126-290-602-1188c-331-653-605-1185-608-1181-4 5-257 565-563 1245l-557 1237 103 236c57 130 107 237 112 237s93-145 196-323c104-178 190-316 193-308s51 161 107 341c71 227 106 325 114 320 6-4 30-20 52-37zm-1797-445c105-135 195-246 198-248 4-1 25 66 46 148 21 83 40 149 41 148 1-2 330-712 730-1580l727-1576-738-1458-738-1458-16 38-16 39-93-222c-52-122-97-223-101-226-3-2-64 162-136 365-71 204-131 370-134 370s-70-59-148-131c-79-72-145-129-147-127-1 1-19 161-39 353-20 193-39 367-42 387l-6 37-153-94-153-94-5 27c-2 15-20 147-38 294l-33 266-47-34c-26-19-50-34-53-34-12 0-151 297-211 450-78 199-221 631-294 888-57 200-61 222-70 370-6 95-16 175-26 202-36 102-94 171-180 214-38 19-58 37-82 78-51 84-91 177-114 263-29 108-31 313-5 435 48 224 178 481 335 660 223 254 447 586 596 883 36 70 67 128 71 128 3 1 34-21 68-49l63-50 13 131c7 73 16 140 19 150 5 14 23 3 104-69 54-47 100-84 103-82 2 3 7 84 12 181l7 177 187-180 186-180 10 47c6 27 27 135 48 241 30 156 39 191 49 180 7-7 99-123 205-258zm4384 32c25-128 46-236 46-239 0-2 81 73 181 169 99 95 185 175 190 176 5 2 9-23 9-56 0-32 3-113 6-179l7-121 100 89c69 61 103 85 108 77 3-7 12-73 19-145 7-73 16-133 20-133 5 0 30 19 112 88 15 13 21 6 61-79 129-275 355-616 604-912 143-170 238-330 301-507 54-155 67-231 66-390-1-126-5-156-28-233-48-159-125-294-184-320-85-38-158-124-189-225-8-26-18-116-24-201-8-143-13-170-64-345-146-511-295-927-433-1216-28-58-57-114-65-124-14-19-16-19-55 12-22 18-44 32-49 32s-24-124-43-276c-19-151-38-280-41-286-6-10-155 73-285 158-26 18-19 60-70-421-19-187-37-341-38-343-2-1-68 56-146 127-79 72-146 129-150 126-3-2-64-169-135-370s-132-364-136-363c-4 2-75 80-159 173-84 94-158 176-165 183-10 12-17 1-38-60l-25-73-20 45c-11 25-318 707-682 1515-364 809-665 1476-667 1482-6 15 1547 3014 1557 3008 4-2 12-29 19-59 7-31 16-58 20-60 4-3 99 112 211 255 112 142 204 258 206 256 1-1 23-107 48-235zM6220 6080c299-646 548-1187 553-1201 9-24-6-56-149-312-87-158-161-286-164-286s-90 135-194 299c-104 165-192 302-196 305-4 2-85-133-180-300-95-168-176-305-179-305-4 0-85 137-181 305-95 167-176 303-179 301-4-3-92-140-196-305-105-166-192-301-195-300-5 0-462 703-468 719-5 13 1170 2272 1178 2263 4-4 252-537 550-1183z"
    fill="#000000" />
</svg>