<svg xmlns="http://www.w3.org/2000/svg" viewBox="0 0 880 1260">
  <g fill="#000000">
    <path
      d="m828 1191-38-46-1-160c0-88-2-207-3-265s-3-186-4-285c-2-138-5-175-14-160-19 34-59 73-90 86-25 10-31 9-43-7-13-16-13-14 0 18 21 53 19 71-22 194-33 99-36 118-34 209 1 91 0 98-14 81-8-11-15-31-16-45-1-28-27 45-75 205-15 52-30 94-34 94s-12-19-19-42c-7-24-26-87-43-141-29-95-31-98-49-81-19 17-20 16-18-62 1-67-5-98-40-204-45-139-47-155-26-208 13-32 13-34 0-18-13 17-18 17-45 6-17-7-49-33-70-58l-40-45v444l-1 444-39 45-40 45 3-520c2-474 4-523 20-555C99 27 300-48 342 44c27 61-62 107-98 51-9-14-13-32-10-41 11-29-17-9-36 26-47 89-1 200 84 200 21 0 21 0-3 27-19 21-16 20 15-6 22-18 52-38 68-43 15-5 28-13 28-17 0-3 19-6 43-5 39 1 39 1 5-3-32-4-38-8-38-28 0-13-7-31-16-39-14-15-11-16 32-16 29 0 54 6 65 16 10 9 35 22 56 30 33 11 34 13 12 14-14 0-34 8-43 19-16 18-16 19 12 29 16 5 46 25 68 43 31 26 34 27 15 6l-24-27h27c18 0 40-12 62-34 28-28 34-41 34-78 0-43-28-120-49-132-7-5-11 4-11 26 0 19-5 39-12 46-18 18-63 14-81-6-43-47-3-98 74-95 86 4 176 65 219 150l25 48 3 435c2 239 2 471 0 516l-3 81-37-46z"
    />
    <path
      d="M133 840c2-215 4-235 20-238s17 12 17 211-1 216-20 238l-20 24 3-235zM733 1049c-17-17-19-449-3-449 19 0 20 23 18 243-2 174-5 216-15 206zM230 768c0-163 2-198 14-198 23 0 26 24 26 188 0 140-3 160-20 182l-20 25V768zM637 942c-15-16-17-45-17-195 0-170 1-177 20-177s20 7 20 195c0 107-2 195-3 195-2 0-11-8-20-18z"
    />
  </g>
</svg>
