<svg xmlns="http://www.w3.org/2000/svg" viewBox="0 0 850 810">

  <path
    d="M184 779c-51-31-82-62-115-114-23-37-24-44-1-40 9 2 27 4 39 4 16 1 28 15 48 59 14 31 40 72 58 90 38 40 34 40-29 1zM445 785c-5-2-36-8-69-15-45-9-69-21-103-53-56-52-73-84-73-142 0-123 118-215 238-187 58 13 53 19 151-165 61-112 75-132 89-124 37 20 102 99 126 152 53 115 53 202 0 320-45 99-164 191-266 204-24 4-52 8-63 10-11 1-24 2-30 0zM43 553c-16-3-24-14-29-41-10-51-8-172 2-182 5-5 37 13 74 41 86 67 85 66 71 83-7 9-19 35-26 58-10 37-16 43-41 44-16 1-39 0-51-3zM155 347c-28-23-65-54-83-68l-34-26 23-44C90 151 200 42 210 61c23 42 91 264 82 267-6 2-27 17-48 33-20 16-37 29-38 28 0 0-24-19-51-42z" />
  <path
    d="m405 313-41-4-43-140c-24-76-42-142-39-144C297 9 416 0 473 10c64 11 147 38 147 47 0 3-33 63-72 134-46 81-79 128-88 127-8-1-33-3-55-5z" />
</svg>