<svg xmlns="http://www.w3.org/2000/svg" viewBox="0 0 1660 1650">
  <g fill="#000000">
    <path
      d="M823 1644c-24-6-26-12-23-84 2-59 15-110 52-191l29-66 87-6c68-4 89-2 95 9 23 40 110 139 160 180l57 48-51 29c-88 51-184 78-289 82-52 2-105 1-117-1z"
    />
    <path
      d="M624 1585c-81-39-181-137-226-221-86-160-72-377 35-527 52-73 127-134 212-174 55-26 70-28 180-28 111 0 125 2 182 29 114 52 185 153 187 266 1 82-26 136-101 197-63 50-116 68-162 52-27-9-31-16-31-46 0-46-13-68-50-83-43-18-83 1-105 50-15 34-16 43-4 72 7 17 26 47 42 65l29 33-30 69c-38 86-62 175-62 235 0 30-4 46-12 46-7 0-45-16-84-35zm20-392c-14-60-9-138 10-167 30-47 90-79 149-79 65-1 100 20 121 74 19 47 32 50 41 9 16-74-64-150-160-150-98 0-184 60-220 154-15 38-16 52-5 95 12 51 43 101 62 101 7 0 7-13 2-37zM1277 1431c-37-31-88-84-113-118l-46-63 60-55c44-40 67-73 88-120 28-65 29-65 69-65 42 0 270 27 292 35 9 3 7 18-7 60-44 129-139 271-231 346l-44 36-68-56zM165 1328c-40-53-120-198-112-203 1-1 42 0 90 3l88 5-7 126c-3 69-8 127-9 129s-24-25-50-60zM47 1043c-10-3-23-17-29-31C1 968-4 776 9 700l13-69 58 47c32 26 102 69 155 96 53 26 94 51 93 55-22 40-52 117-65 163l-16 58-91-1c-50-1-99-3-109-6zM1570 959c-30-5-104-13-165-17l-110-7-6-50c-6-50-33-114-71-168-18-25-18-30-6-45 8-9 54-64 103-121 48-58 112-127 142-155 65-59 59-62 125 68 60 119 78 203 78 368 0 156 9 143-90 127zM286 713c-98-49-182-108-214-148-23-29-21-37 19-117 45-89 196-268 226-268 4 0 15 31 25 69 21 89 71 189 144 287l57 78-24 15c-13 9-51 41-84 72l-60 57-89-45zM1125 623c-30-23-102-54-169-72l-61-16-7-45c-8-56-8-332 1-420l6-65 55 2c100 5 250 61 360 136 55 38 150 126 150 140 0 5-20 27-45 49s-91 95-146 161c-134 161-120 149-144 130zM588 546C473 400 400 246 400 144c0-29 5-33 78-67 99-45 172-66 267-74l76-6-8 84c-10 104-10 326-1 396l7 51-52 7c-29 4-75 15-103 25l-51 17-25-31z"
    />
  </g>
</svg>
