<svg xmlns="http://www.w3.org/2000/svg" viewBox="0 0 1440 710">
  <path
    d="M650 659c-47-35-104-109-84-109 4 0 38 23 76 50 38 28 71 50 74 50 4 0 38-23 76-51s71-50 73-47c2 2 2 14-2 27-6 22-126 121-147 121-6-1-36-19-66-41z"
  />
  <path
    d="m471 532-74-57 99-3c97-3 98-3 128 28l31 30-40-1c-80-3-87-1-75 22 23 42 3 36-69-19zM895 560l16-30H775l31-30 30-31 104 3 104 3-77 58c-42 31-79 57-82 57s1-13 10-30zM487 338C363 221 263 124 264 122c2-2 34 6 71 17 45 14 94 21 150 21h83l67-80C697 6 705 0 739 0c27 0 44 7 61 25 13 14 33 25 45 25s34 13 49 29l28 29h-43c-24 0-48 1-53 1-5 1 1 12 14 26 22 23 31 25 109 25 58 0 107-7 150-20 35-11 66-19 68-17 3 4-442 427-450 427-2 0-106-95-230-212zm237 22c6 0 29 14 50 30 22 17 41 29 42 27 2-2-4-27-13-55-16-51-16-53 3-66 10-8 30-23 44-35l25-20-57-1h-57l-16-55c-9-30-18-55-20-55s-12 25-21 55l-18 55H567l44 31c24 18 46 33 48 35s-4 24-13 50c-23 67-21 69 26 35 23-17 47-31 52-31zM310 410l-54-40h235l42 40 42 39-106 1H364l-54-40zM900 410l45-39 113-1c61 0 112 2 112 4s-22 20-49 40l-49 36H855l45-40zM108 252C50 204 3 164 4 162c2-1 47 7 101 18 53 11 121 20 151 20 53 0 55 1 127 69l72 69-120 1H215l-107-87zM1000 330c-6-4 18-32 59-68 67-60 71-62 124-62 30 0 99-9 152-20 54-11 99-19 101-17 2 1-46 42-107 89l-109 87-105-1c-57-1-109-4-115-8z"
  />
  <path
    d="M363 123c-7-2-13-20-13-39V50h142c140 0 141 0 123 20-16 18-31 20-122 20-96 0-103 1-103 20 0 20-5 23-27 13zM1040 111c0-19-6-21-53-21-41 0-58-5-72-20-18-20-17-20 74-20h92l-3 37c-2 27-8 39-20 41-13 2-18-3-18-17z"
  />
</svg>
