<svg xmlns="http://www.w3.org/2000/svg" viewBox="0 0 1280 640">
  <path
    d="M10 584c0-56 0-56 28-51 15 3 107 20 206 38 149 27 179 30 187 18 5-8 9-17 9-20s-86-37-191-75c-105-37-193-74-196-80-5-14 27-81 69-141l29-43 160 137c146 123 162 134 176 120s14-18-8-44c-13-16-72-85-131-155-60-69-108-130-108-136 0-11 58-50 127-86l52-26 19 53c11 28 44 118 72 200 29 81 56 147 59 147 28-1 27-24-10-220-20-113-36-207-34-209 6-5 214-5 219 0 4 4-53 330-69 395-3 16 1 23 15 27 15 4 22-3 31-32 20-61 120-334 128-348 5-11 23-6 77 22 38 19 80 43 93 53l23 19-88 104C753 486 765 469 783 487c14 15 29 4 178-122l162-139 23 30c27 33 84 137 84 152 0 9-61 33-305 121-63 22-81 33-83 50-2 13 2 21 10 21s100-16 204-35 195-35 202-35c8 0 12 18 12 55v55H10v-56z"
    fill="#000000" />
</svg>