<svg xmlns="http://www.w3.org/2000/svg" id="root" viewBox="0 0 2600 2170">

  <path
    d="M1227 2138c-4-18-42-172-87-343-44-170-101-391-126-490l-46-180 53-128c28-70 53-126 55-124 2 1 12 52 24 112 12 61 27 142 35 180 8 39 38 199 67 358l53 287h43c25 0 44-5 46-12s13-65 25-128c41-230 111-607 126-678 8-40 15-84 15-97 0-14 3-25 8-25 4 0 30 58 59 128l52 127-129 519c-72 285-130 520-130 522s-31 4-69 4h-68l-6-32zM278 2092c-153-1-278-4-278-7 0-2 9-29 21-59 20-55 22-57 227-203 330-236 299-217 325-196 139 110 536 457 531 464-3 6-114 8-277 7-150-2-397-4-549-6zM1490 2093c0-10 44-49 320-283 113-95 213-180 222-187 19-17-5-32 335 210 190 136 191 137 213 193 11 31 19 58 18 59-8 8-1108 15-1108 8zM1055 1968c-44-39-156-136-250-217-93-80-178-153-187-162-16-14-7-28 140-211 86-108 158-195 160-194 3 4 31 106 147 540 42 159 79 295 82 303 10 25-13 11-92-59zM1453 2027c3-8 40-144 82-303 116-434 144-536 147-540 2-1 74 86 161 194l157 196-24 21c-230 198-438 378-470 407-43 39-62 48-53 25z"
  />
  <path
    d="M1286 1742c-2-4-7-23-10-42s-24-134-46-255-56-308-76-415l-35-195 35-165c85-407 141-659 144-655 4 4 10 31 87 385 25 118 57 263 70 322s22 115 19 125c-2 10-22 122-45 248-22 127-50 277-60 335-11 58-24 130-29 160-26 148-37 179-54 152zm64-792 44-90-33-133c-18-72-39-157-48-187l-16-55-48 189-48 190 46 88c24 48 48 88 52 88s27-41 51-90z"
  />

</svg>