<svg xmlns="http://www.w3.org/2000/svg" viewBox="0 0 2000 1960">
  <path
    d="M980 1939c-15-27-51-221-89-484-36-239-53-289-112-318-21-10-133-32-270-52-297-44-453-74-475-89-20-15-12-34 21-46 30-12 268-53 485-85 189-27 245-43 278-78 32-34 39-61 72-284 43-293 79-476 96-493 36-37 59 50 124 487 35 236 42 261 77 295 38 35 71 44 273 73 218 32 450 72 490 86 34 12 39 33 12 48-26 14-203 46-469 86-268 39-304 52-333 118-10 23-30 121-45 217-72 488-98 589-135 519z"
  />
  <path
    d="M623 1670c-12-5-30-21-40-36-28-44-302-518-300-521 1-1 72 9 157 23 85 13 165 24 177 24 18 0 34 20 78 95 49 84 86 127 116 137 8 3 49 232 49 274 0 11-23 14-107 13-60 0-118-4-130-9zM1140 1671c0-4 9-66 20-137s20-132 20-136c0-5 10-8 23-8 38 0 63-26 123-130 32-55 62-100 67-100s83-11 174-25 168-23 170-21c9 8-288 511-318 539-29 26-32 27-154 27-69 0-125-4-125-9zM237 790c-24-83-88-148-169-174-63-19-63-21-15-78 42-51 185-47 310 9 49 22 60 24 68 12 5-8 43-68 84-135 41-66 85-126 97-132 13-6 74-13 136-14 94-3 112-1 112 12 0 20-39 273-43 274-40 13-68 43-113 121-29 50-54 93-56 97s-82 19-178 33-184 28-195 31c-17 4-23-4-38-56zM1710 844c-8-3-85-15-170-27l-155-23-46-79c-57-99-99-145-133-145-21 0-26-6-31-32-10-60-35-238-35-250 0-19 260-8 283 11 9 7 40 54 69 105 28 50 62 108 74 128l23 37 42-21c61-29 175-51 237-45 47 5 58 11 87 44 19 21 34 41 35 45 0 4-16 11-35 17-98 27-173 100-196 191-12 48-17 52-49 44z"
  />
</svg>
