<svg xmlns="http://www.w3.org/2000/svg" version="1.0" width="600" height="600">
   <path
      d="m0 0 93.366 159.034-78.835-15.426 93.537 121.917a196.338 196.338 0 0 0 0 68.907L14.531 456.349l78.835-15.426L0 600l159.034-93.367-15.426 78.836 121.918-93.537a196.252 196.252 0 0 0 68.948 0l121.918 93.537-15.426-78.836L600 600l-93.366-159.077 78.835 15.426-93.537-121.917a196.246 196.246 0 0 0 0-68.907l93.537-121.917-78.835 15.426L600 0 440.966 93.365l15.426-78.877-121.96 93.58A196.16 196.16 0 0 0 300 105c-11.528 0-23.05 1.041-34.432 3.068l-121.96-93.58 15.426 78.878L0 0zm300 133.636c42.591.003 85.181 16.233 117.656 48.708 64.95 64.95 64.941 170.37 0 235.312-64.941 64.941-170.363 64.907-235.312-.043-64.95-64.95-64.942-170.37 0-235.312 32.47-32.47 75.065-48.668 117.656-48.665zm0 49.091c-30.023-.002-60.037 11.415-82.926 34.304-45.778 45.778-45.784 120.11 0 165.895 45.784 45.784 120.074 45.778 165.852 0 45.778-45.778 45.784-120.11 0-165.895-22.892-22.892-52.903-34.302-82.926-34.304z"
      fill="#000000" />
</svg>