<svg id="root" xmlns="http://www.w3.org/2000/svg" width="180" height="180" viewBox="0 0 1800 1800">
  <path
    d="M390 1538 c0 -64 36 -108 235 -288 106 -96 194 -179 194 -184 1 -12 -118 -123 -152 -142 -15 -8 -36 -12 -47 -9 -20 6 -23 17 -40 130 -6 38 -12 70 -13 71 -1 2 -22 -35 -46 -82 -57 -109 -69 -110 -162 -18 l-67 66 14 -83 c7 -46 14 -87 14 -90 0 -3 -13 -15 -29 -27 -30 -22 -52 -22 -171 4 -21 4 -15 -4 33 -54 l58 -59 -12 -47 c-11 -44 -15 -49 -78 -80 l-65 -33 44 -7 c97 -15 98 -16 119 -60 12 -23 21 -47 21 -52 0 -6 -14 -36 -31 -68 l-31 -57 62 31 63 32 41 -18 c58 -25 59 -26 70 -105 l11 -71 34 70 c32 66 35 70 80 80 l46 11 58 -57 c31 -31 57 -54 57 -52 0 3 -6 41 -14 86 -12 79 -12 81 10 107 l22 26 86 -15 c75 -13 96 -13 173 0 l88 14 23 -26 c16 -20 21 -35 18 -57 -3 -16 -8 -52 -12 -80 l-6 -50 53 52 54 52 49 -12 c46 -12 50 -16 81 -77 35 -70 36 -69 50 31 6 43 10 48 54 69 l48 22 61 -31 c34 -17 62 -28 62 -24 0 3 -14 31 -30 60 l-31 54 23 49 23 49 74 12 75 12 -70 35 c-67 33 -71 36 -81 81 l-11 46 54 56 55 56 -83 -13 c-80 -13 -83 -13 -106 9 -25 23 -26 50 -6 158 l7 34 -65 -63 c-54 -53 -70 -63 -94 -60 -24 3 -34 14 -69 80 -22 43 -43 78 -46 78 -4 0 -12 -43 -19 -95 -18 -134 -39 -136 -173 -12 l-69 63 202 184 c111 101 208 197 216 212 8 15 14 45 14 68 0 37 -2 40 -29 40 -63 0 -89 -21 -262 -208 -95 -103 -180 -195 -189 -205 -16 -18 -25 -9 -200 180 -100 109 -197 206 -214 215 -17 9 -48 17 -68 18 -36 0 -38 -2 -38 -32z m533 -563 c15 -13 27 -28 27 -32 0 -4 26 -33 57 -65 74 -75 68 -87 -42 -105 -73 -11 -116 -8 -211 12 -45 10 -36 34 48 126 46 49 85 89 88 89 3 0 17 -12 33 -25z m32 -277 c58 -29 65 -35 65 -62 0 -24 -13 -44 -57 -88 -32 -32 -62 -58 -68 -58 -6 0 -39 29 -74 64 -80 81 -80 98 4 143 33 18 61 33 62 33 2 0 32 -14 68 -32z">
  </path>
</svg>