<svg xmlns="http://www.w3.org/2000/svg" id="root" viewBox="0 0 1820 2120">
  <path
    d="M845 2095c-151-34-257-79-380-160-76-50-228-201-280-280C-99 1232-49 674 304 318 499 122 767 1 1013 0c47 0 47 0 47 89 0 88 0 88-81 95-261 23-513 179-655 404-94 148-138 299-138 472 0 179 39 309 140 470 77 121 174 213 313 294 208 121 500 145 716 60 115-45 212-103 280-165 44-40 44-40 109 25s65 65 13 112c-241 217-600 311-912 239z"
  />
  <path
    d="M940 1804c-49-7-156-42-215-72-206-103-354-292-402-514-22-108-13-300 20-393 47-133 98-216 183-301 49-49 142-120 148-112 2 1 23 36 46 77 44 74 44 74 5 105-135 107-206 228-227 389-24 179 34 351 161 478 120 120 292 181 463 164 65-7 67-6 73 17 15 58 33 153 30 157-6 5-247 10-285 5zM1532 1518c-61-63-61-63-37-88 82-86 138-239 139-375 1-287-217-527-516-570-48-7-48-7-48-98 0-90 0-90 59-84 263 28 503 193 611 422 48 102 80 233 80 331 0 102-35 245-83 340-36 70-120 184-136 184-5 0-36-28-69-62z"
  />
  <path
    d="M945 1491c-33-9-70-23-83-30-22-12-22-14-8-36 15-23 41-68 64-112 12-22 12-22 69-1 40 14 70 18 98 14 59-10 139-52 175-93 32-35 32-35 78-9 26 15 62 34 80 43 17 9 32 21 32 26 0 19-136 142-180 164-108 53-220 65-325 34zM652 1248c-20-39-42-140-42-193 0-129 76-281 179-357 44-32 40-35 95 61 37 64 37 64-9 111-34 35-51 63-66 109-23 76-23 92-1 157 18 51 18 51-54 92-39 23-75 42-81 42-5 0-15-10-21-22zM1014 1231c-80-20-128-86-128-177 0-54 4-66 33-103 86-109 254-91 306 32 36 87 2 193-75 232-34 17-99 25-136 16zM1320 997c-20-98-112-185-212-202-38-6-38-6-38-97s0-91 61-84c194 22 377 220 379 409 0 27 0 27-89 27-90 0-90 0-101-53z"
  />
</svg>