<svg id="root" xmlns="http://www.w3.org/2000/svg" width="180" height="180" viewBox="0 0 1800 1800">
  <path
    d="M302 1564 c-12 -8 -22 -24 -22 -34 0 -12 108 -126 275 -291 l275 -272 -182 -179 c-172 -170 -228 -216 -247 -204 -10 7 -69 -56 -108 -114 -32 -48 -133 -233 -133 -243 0 -7 123 57 215 112 77 45 145 108 145 133 0 30 25 59 209 247 l172 174 54 -53 c30 -30 55 -60 55 -66 0 -7 51 -60 113 -119 119 -114 147 -148 147 -181 0 -39 91 -108 266 -200 l108 -58 -49 90 c-61 112 -139 236 -164 258 -10 9 -31 19 -47 22 -43 8 -53 16 -243 203 l-175 172 272 272 c182 182 272 279 272 293 0 23 -29 54 -50 54 -8 0 -138 -124 -290 -275 l-276 -275 -263 265 c-229 231 -287 285 -303 285 -2 0 -14 -7 -26 -16z">
  </path>
</svg>