<svg xmlns="http://www.w3.org/2000/svg" id="root" viewBox="0 0 2060 1690">
  <path
    d="M536 1678c-11-6-51-17-89-24-251-48-437-272-437-526 0-86 20-178 51-239 18-37 18-38-3-86-34-78-48-143-48-232C10 316 188 97 436 45c39-8 87-22 108-30 30-13 44-14 72-5 53 18 82 90 49 123-8 8-12 17-9 20s-9 13-27 22c-29 15-39 16-86 4-47-11-61-10-110 5-153 49-255 165-285 325-12 66 0 183 21 204 6 6 26-2 58-25 179-129 400-140 606-30l68 37 19-23c19-23 40-102 40-153 0-35 39-79 70-79 38 0 66 40 73 105 3 33 11 75 18 93 19 54 37 56 125 11 82-41 187-69 264-69 108 0 246 47 333 114l47 36 12-27c7-16 12-73 12-128 1-89-2-107-27-159-54-117-143-196-259-232-50-15-64-16-111-5-47 12-57 11-86-4-18-9-30-19-27-22s-1-12-9-20c-25-25-18-62 20-100 31-31 40-35 68-29 17 3 37 13 43 21s13 12 16 9c11-11 152 27 214 57 73 36 157 105 147 121-3 6-1 8 4 5 23-15 103 122 128 220 30 114 14 276-35 373-20 40-20 40-1 78 51 100 65 260 33 383-52 196-236 359-436 385-28 4-61 14-74 22-27 18-86 11-113-14-27-24-33-68-14-104 24-46 54-56 120-40 50 12 62 11 113-5 159-50 275-191 289-351 6-70-10-179-28-190-5-3-25 8-45 25-83 73-197 111-334 111-112 0-175-16-273-68-53-29-71-34-85-26-22 14-51 97-52 147 0 48-14 75-46 87-40 16-82-11-89-58-20-130-40-182-70-182-8 0-43 15-77 34-35 19-87 41-117 50-70 20-219 21-296 1-68-18-159-64-199-101-34-33-43-25-57 51-34 183 59 367 223 445 82 39 119 45 173 30 56-16 99-1 121 42 41 78-53 161-130 116zm115-713c105-37 158-99 126-149-23-35-110-83-174-96-97-21-238 21-318 94l-40 36 35 31c100 87 257 123 371 84zm1029-22c36-18 81-46 100-63l35-30-39-35c-119-106-292-129-420-56-104 58-111 109-22 166 72 46 107 55 201 52 67-3 92-9 145-34z"
  />
</svg>