<svg xmlns="http://www.w3.org/2000/svg" viewBox="0 0 1040 960">
  <g fill="#000000">
    <path
      d="M656 781c-53-99-96-182-96-184 0-3 11-8 25-11 63-16 134-114 135-184 0-68-58-156-122-183-16-6-27-15-26-18C583 175 685 2 688 4c1 2-9 52-23 111-14 60-24 110-22 111 2 2 43-26 91-62s90-64 93-61-25 44-62 91-62 86-55 86c6 0 63-14 126-31 64-17 118-29 120-27 2 3-48 33-111 68s-114 65-112 66c2 2 63 11 137 20s141 20 149 24c7 4-31 13-85 19-55 7-120 15-146 18-27 3-48 8-48 12 0 3 61 40 136 81s131 76 126 78c-6 2-74-17-151-41-78-25-141-43-141-41 0 3 52 68 115 145s115 142 115 145c0 4-38-27-222-181-38-31-68-53-68-48 0 8 39 139 94 318 8 27 14 51 12 52-2 2-47-77-100-176zM290 942c0-6 6-31 14-54 41-124 88-290 83-294-3-3-63 42-133 100S125 798 122 796c-2-3 43-61 100-131 56-69 104-130 106-134 2-5-57 10-131 34-201 64-204 62-47-25 80-45 149-85 153-89 4-5-59-16-140-25-81-10-150-19-152-21-6-7 39-14 168-30 68-8 126-17 128-19s-49-34-114-70-112-66-105-66 62 14 123 31c60 16 114 29 119 27s-22-43-60-93c-38-49-67-91-65-93s46 28 98 67c51 39 96 71 98 71 3 0-8-50-23-112S352 5 353 4c1-2 30 44 64 101 60 102 60 104 37 109-63 16-134 115-134 186 0 72 71 170 135 186 14 3 25 9 25 13 0 6-178 341-186 350-2 2-4-1-4-7z"
    />
    <path
      d="M410 512c-66-66-66-158 0-224s70-60 70 112-4 178-70 112zM560 400c0-132 2-150 16-150 28 0 92 73 99 113 12 60-3 107-45 149-66 66-70 60-70-112z"
    />
  </g>
</svg>
