<svg xmlns="http://www.w3.org/2000/svg" id="root" viewBox="0 0 5030 3490">

  <path
    d="M4574 3474c-99-36-167-128-167-226 0-77 34-127 115-169 54-28 61-24 38 20-45 89-35 148 34 209 43 37 82 47 135 32 92-24 150-113 158-240 5-70 3-79-29-140-40-78-99-122-186-141-149-32-591 1-862 65-58 13-199 43-315 66-115 23-235 48-265 56s-79 14-110 14h-55l45-29c70-44 186-167 251-265 32-49 59-95 59-102s-33-25-72-41c-98-38-180-93-255-169-62-63-79-92-46-80 9 4 75 19 147 33 127 26 140 26 446 24 344-3 442 5 720 59 227 44 375 110 484 217 61 60 104 136 148 260 29 80 31 98 30 198-1 106-3 113-39 185-41 80-105 140-173 161-62 18-191 20-236 3z"
  />
  <path
    d="M2645 3344c-71-10-184-38-230-56-65-26-155-80-155-94 0-6 22-38 49-71 148-185 239-401 272-650 15-110 6-357-16-473-40-212-139-452-270-660-14-22-25-42-25-44 0-13 173-122 225-141 90-34 309-92 400-107 53-8 221-12 495-13 445-2 530-9 625-55 83-40 169-152 190-247 12-56 25-36 25 38 0 124-48 263-115 338-54 59-161 128-245 157-121 42-213 55-470 64-313 11-470 38-648 112-97 40-192 104-192 129 0 24 93 97 182 145 93 48 164 71 264 85 46 7 84 16 84 22 0 19-255 250-413 374l-29 22 45 55c95 117 298 271 441 336l68 31-28 30c-82 86-203 131-354 132-88 1-113-2-152-20l-48-22v30c0 50 20 119 60 206 46 98 84 156 163 246 78 89 71 99-70 103-54 1-111 0-128-2z"
  />
  <path
    d="M2069 3114c-52-39-328-203-485-287-191-104-360-159-514-170-31-2-27-4 32-19 72-19 50-20 483 18 154 14 204 14 265 5 187-29 315-145 379-346 36-112 51-214 51-358v-112l20 25c27 35 104 214 121 280 17 68 17 272 0 360-40 207-180 498-289 603l-28 27-35-26zM136 3048c-46-79-86-178-108-266-18-71-22-115-22-242 1-235 40-383 150-566 85-141 127-195 254-327 154-160 391-337 577-431 218-109 562-229 933-326 575-150 980-297 1279-464 145-82 261-221 261-315 0-36-6-49-34-77l-34-34h32c83 0 146 68 146 160 0 196-142 348-510 547-47 26-119 67-160 91-136 82-398 188-685 277-145 45-152 47-211 36-164-29-458 2-651 70-394 139-799 468-965 784-76 146-86 250-32 328 40 56 143 141 247 203l86 51-72 6c-71 6-155 30-215 61-111 57-194 215-211 399-3 40-11 72-18 74-6 2-23-15-37-39z"
  />
  <path
    d="M1733 2508c3-7 17-44 32-81 27-67 27-69 9-86-13-12-51-21-124-30-77-9-147-26-265-66-292-98-368-110-445-70-37 19-90 109-90 153 0 23-5 32-16 32-15 0-16-11-12-83 6-95 28-154 78-211 56-63 80-71 215-71 104 0 137 5 246 33 193 50 350 59 418 23 149-80 198-176 188-366-3-55-9-108-13-119-5-14-3-17 7-14 21 7 106 183 125 258 22 87 15 249-15 342-34 106-156 253-276 332-57 39-70 43-62 24zM3186 2250c-44-5-104-14-133-20-65-14-66-10 57-157 97-117 160-226 160-279 0-31-3-34-29-34-79 0-241-84-371-191l-25-21 35 7c19 3 107 19 194 35s254 39 370 51c188 19 227 21 356 11 271-21 392-52 513-128 140-90 220-173 294-306l34-63-5 45c-6 46-61 201-98 274-48 96-174 269-242 333-171 162-246 221-344 268-161 78-313 141-383 159-80 20-276 28-383 16zM496 2024c30-102 78-220 102-252 26-37 66-41 85-10 18 28-51 151-132 237l-70 73 15-48z"
  />
  <path
    d="M1310 1905c-33-10-103-47-175-94-66-43-150-90-187-106l-68-28 22-36c79-131 265-329 348-371 48-24 153-57 227-71s262-7 311 11l32 12-31 35c-44 51-48 66-60 246-8 126-15 171-31 203-26 55-132 162-184 185-58 26-138 32-204 14zm9-201c63-37 97-141 71-218-7-21-27-53-46-72-65-64-158-42-252 61-29 31-52 62-52 69s45 49 101 94c107 86 129 95 178 66z"
  />

</svg>