<svg xmlns="http://www.w3.org/2000/svg" viewBox="0 0 1070 1360">
  <path
    d="M400 1233c-74-69-195-182-268-251L-1 857l32-33 33-34 55 52c31 29 124 116 206 193 83 78 165 155 183 170l33 28 42-39c23-22 80-75 127-119 47-43 123-115 170-160 137-129 123-122 159-83l31 33-53 50c-45 42-166 156-420 395-27 25-52 46-55 47-4 2-68-54-142-124z"
  />
  <path
    d="M485 1143c-27-26-117-111-200-189-82-78-181-170-218-205l-68-64 33-32 33-32 40 36c22 20 102 95 179 167 189 178 247 231 257 231 4 0 72-61 151-136 323-306 307-293 331-272 50 42 50 45-1 92s-281 264-400 377c-41 38-77 70-80 71-4 1-29-19-57-44z"
  />
  <path
    d="M268 767 1 515l31-33c18-17 34-32 37-32 7 0 54 42 222 201 199 188 243 229 249 228 3 0 37-30 76-67 276-260 348-328 367-344 21-18 21-18 56 17l36 35-26 23c-29 24-270 250-415 390-51 48-94 87-96 86-1 0-123-114-270-252z"
  />
  <path
    d="M460 767C326 639 76 404 37 370l-38-33 48-49 47-48 116-1h115l95-114 95-114 61-1c56 0 62 2 94 35 24 25 43 35 65 35 23 0 42 11 75 45l44 45H676l34 35 34 35h232l48 49 49 49-89 84C671 718 540 840 538 840s-37-33-78-73zm33-186 58-42 67 50c37 27 69 48 70 46 2-2-6-34-18-72-12-37-23-74-25-80-2-7 27-34 65-60l70-48-87-5-87-5-25-77c-14-43-28-78-31-78s-17 35-31 78l-25 77-89 3-88 3 64 46c35 25 67 49 72 52 4 4-4 40-18 81-28 84-30 97-12 83 6-6 38-29 70-52z"
  />
</svg>
