<svg xmlns="http://www.w3.org/2000/svg" viewBox="0 0 1450 1110">
  <path
    d="M635 803c-49-169-95-311-101-317s-124-83-262-171C134 228 22 154 24 153c3-3 575 113 609 123 15 5 47 51 47 69 0 3-28 5-62 6h-63l29 22c81 61 78 56 61 115-9 30-14 56-12 59 3 2 27-11 53-30l48-35 44 34c40 30 62 41 62 31 0-2-9-29-19-60l-20-56 52-38 52-38-62-3-63-3 20-39c11-22 23-40 26-40s139-27 301-60c163-33 298-59 300-57s-43 33-99 68c-57 36-173 109-259 164l-157 99-87 295c-48 163-91 304-94 313-3 10-44-114-96-289z" />
  <path
    d="M600 923c-19-15-55-42-79-61l-43-35 23-13c21-11 28-8 70 24 34 26 50 48 57 75 5 20 9 37 8 37 0 0-17-12-36-27zM824 913c6-26 60-83 96-103 9-5 25-3 37 4 21 11 19 14-52 69-41 31-77 57-81 57-3 0-3-12 0-27zM400 814c0-4 16-37 36-74 32-58 41-68 75-77l39-10 12 38c6 22 9 41 7 43-12 11-169 85-169 80zM962 773c-60-32-82-49-78-60 4-8 9-25 12-38 5-21 8-22 44-13 34 9 43 18 75 80 20 38 35 71 33 73s-41-17-86-42zM351 731l-24-19 31-7c41-9 55 0 39 25-14 24-16 24-46 1zM1056 734c-10-27-7-34 17-34 41 0 51 15 23 33-31 21-32 21-40 1zM331 589c56-60 105-111 108-114 4-2 21 5 39 17 22 13 35 32 42 60 6 21 13 45 16 52 3 8-5 16-23 19-15 4-86 22-156 41l-128 35 102-110zM1065 657l-151-42 16-53c11-38 23-58 45-72l30-20 98 98c81 79 130 136 115 131-2 0-71-20-153-42zM1192 608c-22-24-22-27-12-139 7-88 14-117 27-126 29-22 33-15 27 45-3 31-8 99-12 150l-7 94-23-24zM237 614c-2-5-8-63-11-129-4-66-10-128-12-137-6-21 5-23 31-5 14 11 20 36 27 127 9 106 8 114-10 132-11 11-22 16-25 12zM687 274c-12-24-27-34-61-43l-44-11 48-107L678 5l54-3c71-4 160 34 183 77 8 17 15 31 15 33s-22 3-49 3-52 3-56 7 7 27 24 52l32 46-47 11c-32 8-49 19-56 35-15 32-25 30-33-7-8-35-15-31-31 14l-11 32-16-31zM223 152c-17-2-23-10-23-27 0-13-3-30-6-39-5-14 16-16 201-16s206 2 201 16c-3 9-6 18-6 20s-76 4-169 4c-168 0-170 0-173 23-2 16-9 21-25 19zM1204 133c1-16-12-18-114-21-108-3-129-8-130-34 0-5 68-8 151-8h152l-7 31c-3 17-6 35-6 40s-11 9-24 9c-17 0-23-5-22-17z" />
</svg>