<svg xmlns="http://www.w3.org/2000/svg" id="root" viewBox="0 0 1080 1250">
  <path
    d="M397 1218c-56-138-160-388-167-403-5-11-39-92-75-180S73 438 54 393s-34-84-34-87 54-6 121-6c109 0 120-2 115-17-4-9-40-72-81-140S100 17 100 14c0-2 198-4 440-4s440 2 440 4c0 3-38 68-85 145l-84 141h124c69 0 125 3 125 6s-6 20-14 37c-8 18-26 61-41 97-14 36-30 74-35 85s-39 92-75 180-70 169-75 180-26 61-46 110c-20 50-49 123-66 163l-30 72H540c-101 0-139-3-143-12zm158-329c9-54 31-61 66-21 16 18 31 32 34 32 2 0 2-20-1-44-8-54 5-64 50-37 46 29 49 27 26-19-11-23-18-45-15-50 3-6 27-10 53-10l47-1-34-28c-41-34-37-56 13-65 20-4 36-11 36-16s-16-12-36-16c-50-9-54-31-13-65l34-28-47-1c-26 0-50-4-53-10-3-5 4-27 15-50 23-46 20-48-26-19-45 27-58 17-50-37 3-24 3-44 1-44-3 0-18 14-34 32-35 40-57 33-66-21-4-23-10-41-15-41s-11 18-15 41c-9 54-31 61-66 21-16-18-31-32-34-32-2 0-2 20 1 44 8 54-5 64-50 37-46-29-49-27-26 19 11 23 18 45 15 50-3 6-27 10-53 10l-47 1 34 28c41 34 37 56-13 65-20 4-36 11-36 16s16 12 36 16c50 9 54 31 13 65l-34 28 47 1c26 0 50 4 53 10 3 5-4 27-15 50-23 46-20 48 26 19 45-27 58-17 50 37-3 24-3 44-1 44 3 0 18-14 34-32 35-40 57-33 66 21 4 23 10 41 15 41s11-18 15-41z"
  />
</svg>