<svg id="root" xmlns="http://www.w3.org/2000/svg" width="180" height="180" viewBox="100 100 1600 1600">
  <path
    d="M472 1550 c3 -8 54 -127 113 -264 63 -147 103 -251 97 -255 -6 -3 -116 -69 -246 -146 -129 -77 -234 -141 -232 -142 1 -1 127 9 280 23 153 14 281 22 285 17 5 -4 34 -126 66 -271 32 -144 61 -262 65 -262 4 0 33 118 65 262 32 145 61 267 66 271 4 5 132 -3 285 -17 153 -14 279 -24 280 -23 2 1 -103 65 -232 142 -130 77 -240 143 -246 146 -6 4 35 110 101 265 61 142 109 259 108 261 -2 1 -99 -81 -215 -183 l-212 -186 -198 173 c-250 218 -237 208 -230 189z">
  </path>
</svg>