<svg xmlns="http://www.w3.org/2000/svg" id="root" viewBox="0 0 150 200">
  <path
    d="M 12.125 0 L 0 43.832031 L 20.78125 39.074219 L 14.175781 71.300781 L 39.292969 60.175781 L 26.519531 93.082031 L 56.9375 84.644531 L 36.582031 112.457031 L 62.886719 123.5 L 41.886719 133.457031 L 63.863281 155.324219 L 36.699219 150.34375 L 48.386719 165.488281 L 25.65625 165.488281 L 39.292969 200.355469 L 41.78125 176.542969 L 92.113281 195.042969 L 62.457031 165.394531 L 149.15625 192.875 L 74.574219 144.28125 L 99.042969 144.5 L 74.574219 131.511719 L 113.761719 114.082031 L 71.332031 111.8125 L 95.6875 90.375 L 65.59375 95.46875 L 89.519531 58.550781 L 47.949219 71.75 L 70.46875 24.125 L 33.449219 46.207031 L 43.832031 0 L 14.613281 25.425781 L 12.125 0 "
  />
</svg>
