<svg xmlns="http://www.w3.org/2000/svg" id="root" viewBox="0 0 1690 1630">
  <path
    d="M735 1624c-147-23-277-77-390-161-183-136-289-317-330-561-16-96-16-109-1-200C66 396 215 187 475 57c39-19 81-37 95-41s-6 9-45 28c-141 70-253 184-324 330-198 404 45 894 494 996 71 16 239 14 316-4 219-51 405-207 495-415 43-97 58-191 51-316-13-252-146-457-382-587-62-34-53-36 20-3 184 81 354 257 430 444 40 98 68 254 61 346-17 246-137 474-326 620-79 61-152 99-258 135-80 27-110 32-215 35-67 2-135 1-152-1zm262-50c107-22 242-83 327-148 76-58 117-104 179-200 40-61 43-90 5-40-171 221-384 326-668 327-168 0-288-32-427-114-56-33-202-170-255-239-46-60-31-16 22 62 103 155 220 247 396 314 145 55 281 67 421 38z"
  />
  <path
    d="M822 1112c-41-225-38-217-83-237l-39-18-70 47c-38 25-72 46-75 46s16-32 41-70l47-70-18-39c-10-24-26-41-39-44-11-3-87-18-168-33-82-15-148-31-148-34s66-18 148-34c81-15 155-30 165-33 10-2 27-24 38-49l21-44-45-67c-25-37-44-69-42-71s34 17 71 43l66 47 35-19c20-10 39-27 43-38 5-11 21-86 36-168 16-81 31-147 34-147s18 66 34 147c15 82 30 155 32 164 3 9 22 24 44 34l40 18 70-47c38-25 72-46 75-46s-16 33-43 73l-49 72 19 38c11 20 30 39 42 42 11 3 88 19 170 35s151 31 153 33c2 3-60 17-139 31-79 15-156 29-171 32-22 5-33 16-48 51l-19 44 38 57c57 84 56 83 30 69-13-7-44-27-70-45l-48-33-39 21c-46 23-42 12-77 200-14 80-29 148-33 152-4 5-17-45-29-110zm129-277c41-26 75-72 85-113 10-38-2-36-41 7-45 50-117 76-183 67-51-7-123-45-146-78-22-31-30-16-13 24 20 46 76 101 118 116 53 18 135 7 180-23z"
  />
</svg>
