<svg xmlns="http://www.w3.org/2000/svg" id="root" viewBox="0 0 4680 4670">

  <path
    d="M2165 4663c-842-71-1561-560-1926-1308C79 3027 7 2710 6 2340c0-252 27-448 90-660C370 758 1152 109 2109 9c162-17 462-7 621 21 663 116 1233 500 1595 1075 152 242 269 554 321 855 21 128 30 485 15 621-80 706-459 1324-1051 1711-412 270-964 412-1445 371zm555-138c69-14 135-33 147-41 31-20 59-77 74-153 28-142-6-599-67-901-61-304-206-792-262-880-86-136-200-162-328-75-52 36-221 217-340 365-229 283-403 631-449 896-35 203-5 437 78 599 46 92 80 112 281 165 187 50 275 59 521 56 192-4 236-7 345-31zm801-372c89-67 269-243 346-338 330-409 514-930 513-1458 0-148-3-167-24-220-46-110-135-216-261-310-89-67-249-147-340-171-191-51-430-19-640 87-177 88-296 189-356 299-31 58-34 70-34 153 0 88 2 95 89 335 225 625 355 1049 420 1382 30 149 42 181 87 232 63 73 112 75 200 9zM823 3706c101-30 238-161 492-471 240-293 595-815 713-1051 155-309 178-657 58-910-112-236-448-744-528-799-75-51-212-70-284-40-20 8-75 45-122 82-414 323-702 799-811 1338-35 171-45 283-45 485 1 338 52 595 181 915 75 185 222 437 265 455 31 12 29 12 81-4zm2025-2116c52-6 178-25 280-44 274-50 395-60 602-50 215 10 298 9 361-6 65-16 99-43 99-81 0-32-86-211-153-318-165-266-463-575-590-613-23-7-89-12-147-12-245 2-458 95-720 314-243 204-275 253-274 415 0 151 51 293 118 334 97 59 243 80 424 61zm-580-818c72-28 133-73 255-191 179-173 267-293 267-365 0-58-15-67-155-91-270-47-659-22-830 54-52 23-85 70-85 122 0 68 126 291 218 386 40 41 100 78 152 94 45 14 129 9 178-9z"
  />
  <path
    d="M2370 4432c46-92 70-194 70-297v-75l88-90c48-50 92-90 98-90 13 0 31 157 40 350 6 128 14 162 51 231 5 8-195 37-304 43l-81 5 38-77z"
  />
  <path
    d="M2059 4485c-101-16-183-36-294-72-96-31-113-43-59-43 52 0 155-23 229-51 69-25 104-58 190-179 80-112 248-278 379-377 106-79 322-210 332-201 2 3 7 27 10 54 6 49 6 49-32 68-139 65-345 242-446 382-71 100-139 234-175 346-15 48-32 87-38 87-5-1-49-7-96-14zM2406 3737c-3-12-15-69-27-127-47-232-167-527-289-712-58-87-59-77 16-161l41-46 50 67c112 148 212 330 287 522 46 115 109 341 99 351-5 4-45 35-90 68-78 57-83 59-87 38zM2325 2839c-22-35-25-44-13-55 14-14 260-144 272-144 9 0 36 64 36 84 0 8-8 17-18 20-10 4-70 35-132 71-63 36-115 65-116 65s-14-19-29-41zM3665 3919c9-60 25-301 25-362v-60l83 6c87 6 168 29 188 53 10 12 4 27-34 82-51 75-188 241-236 286l-30 29 4-34z"
  />
  <path
    d="M3190 3482c-13-54-14-54 90-76 181-40 268-48 539-53 264-5 274-5 267 13-10 27-76 144-81 144-2 0-19-9-37-20-59-34-163-53-264-46-116 7-270 30-401 59l-102 23-11-44zM3696 2998c-3-161-9-305-12-320-5-21-3-28 9-28 29 0 211 64 227 80 18 18 43 218 56 448l7 112h-280l-7-292z"
  />
  <path
    d="M4203 2823c-64-64-207-138-372-193-168-56-247-70-421-77-165-6-298 8-436 46l-65 19-8-22c-24-64-24-64 16-75 153-43 259-56 463-55 173 0 221 4 308 22 139 30 244 65 381 124 77 34 134 52 173 56 32 2 58 8 58 12 0 20-32 176-38 185-4 6-30-13-59-42zM3770 2450c-122-32-105-1-146-258-21-135-61-326-100-476l-7-29 87 5c49 3 92 10 97 15 13 13 104 355 143 537 46 214 50 236 40 235-5-1-56-14-114-29zM661 3498c-8-12-40-74-71-138-146-292-222-604-236-959l-5-146 81-55c100-68 265-236 345-353 282-410 590-824 801-1078l75-90 30 40c16 23 29 43 29 46s-42 58-93 123c-403 505-688 1007-828 1457-20 66-35 122-33 124 3 3 12-6 22-20 151-217 499-579 746-777 178-143 482-352 512-352 11 0 44 85 44 110-1 8-45 45-98 82-303 210-565 463-787 762-97 132-113 156-194 304-140 258-251 547-291 757-11 61-24 127-28 148-7 37-7 38-21 15z"
  />
  <path
    d="M1690 2453c-62-52-255-184-335-228l-36-21 38-43 39-44 92 47c90 47 270 162 325 208l27 23-37 57c-21 32-40 57-43 57s-34-25-70-56zM989 2057l-25-12 18-43c20-46 20-46 87-20l24 9-38 39c-22 22-39 40-40 39 0 0-12-6-26-12zM380 1971c0-31 34-181 41-181 6 0 27 9 49 20 21 11 74 27 117 37 43 9 82 20 87 24s-4 23-20 43c-27 33-32 35-94 35-36 1-91 7-122 15-32 7-58 11-58 7zM3435 1427c-38-108-76-205-122-310-30-70-54-130-52-131 12-11 155-44 161-38 18 18 195 469 186 476-1 2-40 6-86 9-61 5-84 3-87-6z"
  />
  <path
    d="M2367 1263c-4-3-7-32-7-64v-57l93-40c315-139 620-236 977-312 103-22 200-44 216-50 26-10 31-7 81 42l53 53-93 2c-231 4-825 192-1199 379-118 59-112 57-121 47zM3123 733c-18-32-46-81-63-110l-30-52 53-16c28-9 78-18 109-22 51-5 58-4 64 13 4 10 22 59 41 107 19 49 32 91 30 94-6 5-146 43-162 43-6 0-25-26-42-57zM1871 500c-27-49-34-36 104-180 55-58 107-115 115-128 14-21 24-23 125-28l110-6-64 38c-78 48-171 132-275 253-44 50-83 91-86 91-4 0-17-18-29-40z"
  />

</svg>