<svg xmlns="http://www.w3.org/2000/svg" id="root" viewBox="0 0 1510 1700">
  <path
    d="M741 1674c-48-40-57-91-31-176 30-99 13-154-57-183l-36-15-30 35c-34 42-85 70-147 80-69 11-108 31-128 64-23 37-32 31-32-22 0-59 32-101 106-143 92-51 112-91 84-165-13-37-14-37-80-41-57-3-77-10-141-48-58-34-84-44-121-44-27-1-48-3-48-6 1-11 36-48 57-59 31-16 103-14 153 4 84 30 140 9 171-64l19-43-31-35c-37-43-54-80-69-158-10-46-20-67-46-92-19-17-34-34-34-37s20-6 44-6c59 0 101 31 141 105 22 41 44 66 68 80 34 18 38 19 79 4l43-16 7-62c5-49 17-79 53-139 41-68 46-82 41-120s-4-42 12-33c57 30 77 112 48 197-9 26-16 59-16 73 0 41 33 85 74 99 36 13 39 13 64-11 37-34 81-55 144-68 66-14 101-32 126-64 11-14 23-25 26-25s6 20 6 44c0 60-32 103-109 146-66 38-90 67-91 112 0 49 20 78 54 78 51 0 103 19 171 62 56 34 71 40 110 36 25-2 45 0 45 4 0 3-13 20-30 36-41 42-85 47-176 22-63-18-81-20-104-10-36 15-57 38-65 71-5 22-1 30 25 49 36 26 75 98 84 159 8 55 30 97 61 117 36 24 31 34-19 34-60 0-103-32-146-109-53-93-112-121-174-83-26 16-29 23-31 79-2 54-9 72-49 140-42 70-47 83-43 126 2 26 3 47 1 47-1 0-16-12-33-26zm9-70c0-8 16-47 36-85 40-77 54-150 34-174-7-8-26-15-42-15h-30l7 48c5 37 1 63-14 107-21 59-27 116-14 128 11 12 23 8 23-9zm416-178c-9-19-16-42-16-53 0-31-46-116-79-147l-31-30-25 24c-27 25-33 50-12 50s74 62 92 108c16 40 71 99 83 88 2-3-3-21-12-40zm-818-11c15-8 54-22 86-31 74-21 147-83 130-110-23-39-40-39-72-3-17 19-56 48-87 63-51 26-95 66-95 87 0 12 8 11 38-6zm540-154c60-31 95-64 127-123 26-46 30-63 30-133 0-66-4-89-25-129-31-61-97-120-157-140-190-65-383 69-382 264 0 36 6 82 13 103 27 76 96 141 183 173 51 19 159 12 211-15zm-453-231v-35l-50 3c-32 2-72-4-109-17-70-25-99-26-116-6-10 12-10 15 1 15 8 0 50 18 94 40 67 34 88 40 130 38 50-3 50-3 50-38zm923 23c2-7-3-13-12-13-8 0-45-16-81-36-50-27-79-37-118-38l-52-1-3 37-3 38 43-6c30-4 60 1 98 15 59 22 121 24 128 4zM532 783c25-22 23-30-13-60-16-14-43-52-60-84-27-54-72-99-85-86-3 3 1 18 10 34 8 15 22 53 31 83 15 55 66 130 87 130 6 0 20-7 30-17zm608-81c51-26 101-75 88-88-4-3-17 1-30 9-12 9-43 21-68 27-121 32-182 96-128 134 20 14 23 13 52-20 17-20 56-48 86-62zm-347-84c2-35 12-84 22-110 17-46 15-98-4-98-5 0-12 12-15 26-4 14-17 42-30 62-29 48-46 97-46 137 0 39 6 45 41 45 26 0 27-2 32-62z"
  />
  <path
    d="M720 1221c-53-11-95-36-129-78-74-90-67-215 16-299 52-52 103-68 187-61 171 15 258 233 145 362-51 58-145 91-219 76zM1497 713c-10-50-65-167-108-229-138-201-379-324-634-324-339 0-637 214-740 531L1 735l5-70C29 366 246 107 545 24c34-9 114-18 185-21 105-4 139-2 209 16 218 55 403 202 496 396 42 86 77 229 73 293l-3 47-8-42z"
  />
</svg>
