<svg xmlns="http://www.w3.org/2000/svg" id="root" viewBox="0 0 14290 14280">
  <path
    d="M7002 14200c-185-122-351-307-456-510-117-224-168-444-168-725-1-185 9-284 48-475 23-113 25-140 21-285-10-292-82-525-229-743-100-148-149-287-147-417 1-70 21-161 35-158 5 1 79 15 164 31 655 128 1332 134 1828 16 57-13 106-24 108-24 19 0-14 218-61 395-105 402-289 801-599 1300-255 411-388 709-457 1025-30 139-37 397-15 510 10 46 22 92 27 102 16 29-2 22-99-42zM2280 12415c-52-137-74-297-67-489 8-225 47-374 154-586 112-223 316-462 539-630 302-228 504-542 559-870 43-261 78-360 164-468 39-49 121-117 140-117 5 0 42 45 83 101 143 191 283 350 502 569 322 322 598 535 904 698l83 44-63 59c-318 297-881 573-1598 784-700 206-1177 513-1360 876l-29 58-11-29zM11728 12339c-456-38-862-297-1185-757-121-173-165-225-256-302-208-179-417-283-659-329-187-35-312-96-410-198-49-52-95-120-86-127 2-2 50-35 108-73 550-367 1082-894 1335-1322 26-45 51-81 55-81 20 0 139 159 227 305 216 358 371 769 518 1370 35 143 78 305 95 360 167 522 432 916 722 1075l50 28-88 20c-139 32-285 43-426 31zM6900 10740c-745-54-1435-325-2027-796-126-101-436-411-537-537-657-826-923-1845-750-2875 164-979 738-1857 1574-2407 473-311 997-502 1570-572 201-24 630-24 825 0 832 105 1554 456 2135 1037s932 1303 1037 2135c24 196 24 624 0 825-186 1509-1252 2723-2713 3088-352 88-769 126-1114 102zM10964 8309l-40-9 22-123c61-328 89-689 81-1042-8-337-45-631-111-868l-25-89 72 7c265 24 608 118 941 258 173 72 513 247 706 362 307 183 579 308 825 378 295 85 579 99 776 38 32-11 59-16 59-12 0 3-18 36-39 73-133 228-359 431-606 543-303 138-701 178-1061 108-133-27-415-24-546 5-195 43-377 122-515 223-86 64-210 124-293 143-71 17-182 19-246 5zM3185 8303c-118-15-293-50-425-84-330-85-592-187-1040-404-566-275-841-359-1205-372-188-6-301 7-427 51-37 13-68 20-68 15 0-19 60-128 122-220 143-214 370-396 623-500 266-110 584-146 954-110 117 12 163 13 252 3 282-32 556-142 739-298 168-143 354-211 522-190l54 7-12 97c-34 273-45 725-24 1003 26 337 89 667 175 918 14 41 25 78 25 83 0 8-205 9-265 1zM3593 5217c-158-169-329-441-485-772-107-229-191-456-299-810-173-567-367-929-636-1186-81-77-212-170-270-191-18-7-33-15-33-19 0-10 134-47 235-65 133-24 351-22 488 5 398 80 745 318 1053 723 121 159 284 289 489 389 141 69 251 102 407 124 143 20 205 37 298 86 88 45 152 98 197 162l33 45-92 68c-521 387-1025 943-1263 1397-31 59-58 107-60 107-1 0-29-28-62-63zM10556 5218c-50-86-198-306-286-423-309-416-689-791-1025-1011-58-38-105-72-105-75 0-12 156-122 261-184 366-218 823-382 1390-500 460-96 752-194 1009-339 209-119 404-291 481-425 19-33 37-61 41-61 7 0 23 67 39 173 16 102 5 359-20 467-97 421-351 753-800 1048-152 100-246 181-334 290-161 198-249 383-302 634-23 108-90 240-161 318-56 60-135 120-159 120-6 0-19-15-29-32zM6075 3318c41-459 252-1021 615-1643 238-409 364-713 422-1023 40-212 27-496-27-625-21-51 207 103 329 221 368 359 507 876 400 1492-22 132-25 172-20 270 15 296 101 557 253 766 135 186 187 370 152 534-8 36-15 50-24 46-8-3-83-16-167-30-648-107-1294-95-1805 34-65 16-122 30-127 30-4 0-5-33-1-72z"
  />
</svg>
