<svg xmlns="http://www.w3.org/2000/svg" viewBox="0 0 200 200">
  <path
    fill="#000000"
    d="M190.809 96.842c-.25-7.174 9.322-15.762 7.488-22.535-1.866-6.889-14.544-9.652-17.886-15.896-3.356-6.273 1.493-18.115-3.191-23.504-4.664-5.361-17.294-2.473-23.108-6.723-5.724-4.182-6.56-16.933-13.246-19.81-6.472-2.789-16.553 5.207-23.785 3.847-7.232-1.363-13.6-12.458-20.663-12.217C89.126.251 83.563 11.795 76.677 13.6c-7 1.833-17.655-5.436-24.002-2.147-6.375 3.303-6.312 16.07-11.788 20.683-5.45 4.588-18.269 2.549-22.589 8.273-4.248 5.629 1.428 17.09-1.499 23.664C13.964 70.442 1.515 74.075.129 81.194c-1.384 7.113 8.82 15.016 9.063 21.963.253 7.174-9.32 15.762-7.486 22.539 1.866 6.887 14.542 9.65 17.884 15.895 3.358 6.273-1.493 18.115 3.192 23.504 4.663 5.359 17.293 2.477 23.109 6.721 5.724 4.182 6.56 16.934 13.242 19.814 6.476 2.783 16.557-5.213 23.789-3.85 7.234 1.363 13.598 12.457 20.661 12.217 7.291-.248 12.854-11.795 19.743-13.598 7-1.832 17.652 5.434 23.999 2.148 6.377-3.303 6.313-16.072 11.789-20.682 5.449-4.588 18.268-2.553 22.586-8.273 4.25-5.631-1.426-17.088 1.503-23.666 2.833-6.367 15.282-10.002 16.668-17.119s-8.82-15.018-9.062-21.965zm-39.327 56.096c-28.433 27.973-74.53 27.973-102.963 0a70.814 70.814 0 0 1 0-101.297c28.433-27.973 74.53-27.973 102.963 0a70.814 70.814 0 0 1 0 101.297z"
  />
</svg>
