<svg xmlns="http://www.w3.org/2000/svg" viewBox="0 0 850 850"><path d="M364 839C57 788-96 426 85 180 206 15 422-39 605 50c57 27 120 78 155 125 30 40 71 141 80 197 25 158-78 347-229 423-44 22-171 58-191 54-3-1-28-5-56-10zm74-128c70-36 122-113 122-181 0-41-25-99-58-133-77-82-183-84-268-5-50 46-58 34-25-39 32-69 144-133 232-133 56 0 142 41 191 91 44 45 56 70 73 152 3 15 10 27 16 27 8 0 10-27 7-84-4-72-8-90-36-132-39-62-75-96-132-126-38-19-60-23-140-23-108 0-133 10-208 78-65 60-92 124-92 217 0 131 64 230 184 286 62 29 86 30 134 5z"/></svg>