<svg xmlns="http://www.w3.org/2000/svg" viewBox="0 0 1490 1480">

  <path
    d="M671 1409c-62-55-81-77-82-97 0-20-15-39-57-74-31-26-122-103-202-172-79-69-150-126-156-126-7 0-43 16-81 35l-68 35 35-29c121-102 341-195 519-219l61-9v149c0 112-3 148-12 148-7-1-58-7-113-14s-102-12-104-10c-6 5 11 10 185 48l161 35 154-35c146-32 237-59 164-49-57 9-186 25-196 25-5 0-9-63-9-145V760h29c119 0 352 86 493 181 79 54 82 66 7 29-72-37-68-38-164 45-32 28-67 58-79 68-11 11-69 60-128 110-86 73-108 97-108 118 0 20-19 41-84 97l-84 71-81-70z" />
  <path
    d="m703 1063-43-4V844c0-118 3-214 7-214s24 12 45 26l38 27v193c0 107-1 193-2 192-2-1-22-3-45-5zM760 873V681l37-26c21-14 41-25 45-25 5 0 8 96 8 214v214l-45 4-45 3V873zM192 838c3-7 33-93 68-191 59-167 62-178 46-196-16-17-15-22 7-82l24-64 80-3c69-2 82 0 98 18 15 17 30 20 92 20h73v80h-79c-44 0-83-4-86-10s-26-10-51-10c-39 0-46 3-55 28-6 15-11 38-10 52 0 14-23 92-51 173l-51 148-48 25c-55 27-63 29-57 12zM1256 822l-49-27-49-140c-28-77-50-151-50-165 1-14-4-40-9-57-10-31-14-33-54-33-24 0-47 5-50 10-3 6-42 10-86 10h-79v-80h78c66 0 79-3 90-20 10-17 23-20 91-20h78l22 59c24 67 25 75 9 100-12 20-12 20 88 299 18 50 30 92 26 92s-29-13-56-28z" />
  <path
    d="M432 645c-15-32-8-45 22-45 16 0 26 7 29 21 5 19 12 21 56 18 62-5 67 6 9 15-24 4-57 9-74 12-25 5-32 1-42-21zM970 655c-71-14-70-18 3-15 41 1 49-1 54-19 5-21 19-26 47-15 14 5 14 9 0 35-16 32-13 32-104 14z" />
  <path
    d="M719 634c-32-25-38-26-125-20l-92 6-10-29c-11-30-10-30 36-38 26-4 128-8 227-8s201 4 227 8c47 8 47 8 36 38l-10 30-90-7c-79-6-92-5-116 13-46 33-48 33-83 7zM710 516c0-6 96-76 104-76 3 0 6 18 6 40v40h-55c-30 0-55-2-55-4zM690 483c0-42 15-64 66-103l54-41v39c0 34-5 42-47 73-70 51-73 52-73 32zM700 363c1-34 6-42 53-76l52-38 3 31c4 37-2 45-63 89l-45 32v-38zM700 270c0-23 10-36 47-65 25-19 47-34 49-33 1 2 4 15 5 30 3 22-5 33-43 62-26 20-49 36-52 36s-6-13-6-30zM710 191c0-11 4-21 9-21 18 0 21 18 6 30-13 10-15 9-15-9zM730 158c-14-11-34-26-44-34-18-12-18-16-4-66l15-53h116l17 52 17 53-36 27c-20 14-40 30-46 34-5 4-21-2-35-13z" />
</svg>