<svg xmlns="http://www.w3.org/2000/svg" id="root" viewBox="0 0 1700 1700">
  <path
    d="M685 1686c-119-24-191-55-310-132C0 1310-112 803 120 408c59-100 201-240 302-296 42-24 83-45 90-46s30-10 51-19c104-45 325-61 457-33 325 69 580 318 661 646 21 84 18 319-5 400-23 78-85 220-97 220-5 0-8 4-6 9 3 10-55 92-102 145-86 95-275 206-407 241-91 23-287 29-379 11zm199-111c18-13 48-31 67-39l35-15-22-110c-12-61-25-161-28-223-4-62-9-133-12-157l-6-43 69 4c101 5 136 38 208 198 66 145 110 188 184 175 63-11 68-18 39-62-14-21-47-93-73-161-59-154-95-208-165-244-47-25-63-28-151-28-92 0-99-1-99-20 0-18 7-20 88-20 107 0 152-12 198-52 55-49 87-104 133-229 23-64 53-132 67-152 13-20 24-38 24-41 0-12-75-27-105-22-48 9-85 57-148 188-37 78-65 123-91 146-34 30-42 32-106 32h-70l5-37c2-21 7-85 10-143 6-104 26-244 44-308 10-32 9-33-42-58-29-14-59-35-68-47l-17-21-35 31c-20 17-52 37-72 44-32 12-35 16-30 39 31 121 55 307 55 431v69h-63c-98 0-121-22-203-190-62-129-93-167-140-176-33-6-104 11-104 25 0 5 8 19 18 32 21 27 49 92 88 201 36 101 86 173 143 206 41 24 58 27 154 31 97 3 107 5 107 22s-9 19-97 20c-128 1-199 28-238 92-36 61-44 77-79 173-43 114-61 151-88 181-20 21-20 21 3 34 38 20 104 17 136-6 18-14 51-67 93-151 88-176 116-204 213-204h57v78c0 125-29 348-56 445-4 12 0 17 13 17 19 0 76 32 100 56 19 18 19 18 57-11z"
  />
</svg>