<svg xmlns="http://www.w3.org/2000/svg" viewBox="0 0 4580 4420">
  <g fill="#000000">
    <path
      d="M2155 4400c-59-14-72-21-84-44-7-16-26-36-42-45s-29-19-29-23-10-17-23-30l-23-23 71-1c69-1 109-13 219-64 43-21 48-21 79-7 100 47 126 57 167 66 25 6 62 11 83 11 20 0 37 5 37 10 0 6-22 31-50 57-27 25-52 54-55 63-3 10-20 20-38 24-17 3-51 10-75 15-37 7-44 6-53-10-13-25-72-25-96 0-17 17-21 17-88 1zM1910 4108c-48-25-114-110-125-163-3-16-10-39-15-50s-13-47-18-80c-6-48-5-68 9-102 24-56 33-181 20-278-13-102-29-185-41-210-20-47-43-116-38-120 4-4 198 191 224 226 32 43 48 82 37 86-7 3-13 11-13 20 0 8-6 29-14 46-58 132-92 292-77 370 11 59 32 80 81 80 76 0 149-86 136-161-5-36-59-102-82-102-30 0-28-13 22-125 10-22 19-42 19-45 1-3 7-23 13-45 73-242 69-454-11-542-44-48-70-50-131-8-28 19-59 35-68 35s-20 5-23 10c-3 6-42 10-85 10s-82-4-85-10c-3-5-23-10-45-10h-38l9 42c6 22 36 121 69 219 54 164 80 282 80 362 0 24-3 28-10 17-5-8-10-29-10-47 0-17-4-34-9-37-8-5-25-64-22-78 0-5-3-8-9-8-5 0-10-9-10-20s-4-20-9-20-12-13-16-30c-4-16-10-30-14-30s-17-19-29-42c-24-46-44-80-52-88-14-13-150-222-150-231 0-5-3-9-7-9-5 0-13-10-19-23-6-12-28-55-48-94-43-83-76-202-76-274 0-52 13-116 37-187 12-35 18-41 29-31 8 6 14 18 14 25 0 8 4 14 9 14s13 10 17 22c3 12 12 28 18 34 6 7 22 29 36 49 69 102 151 180 220 213 71 33 109 36 160 14 60-26 81-52 128-162 20-46 32-156 31-286 0-130-18-306-31-320-5-4-8-16-8-26 0-46-83-302-119-368-5-9-12-30-16-48-3-18-11-32-16-32s-9-9-9-20-4-20-9-20-12-11-15-25c-4-14-22-50-41-80s-35-58-35-62c0-5-20-40-45-77-25-38-45-73-45-77 0-5-4-9-10-9-5 0-10-7-10-15s-4-15-10-15c-5 0-10-5-10-11 0-12 26 5 74 49 19 17 36 29 38 27 5-6 278 269 278 279 0 5 20 29 45 55 24 25 44 50 44 54 0 5 8 16 18 25 22 21 103 119 103 125 0 3 18 32 41 66 45 67 52 115 25 166-9 17-16 37-16 46 0 8-5 20-11 26s-12 36-13 66c-1 68 21 97 89 115 55 15 141 16 150 2 3-5 14-10 23-10 28 0 72-51 72-84 0-40-16-99-41-153-10-24-19-56-19-73 0-39 63-150 118-208 6-7 12-16 12-20s16-24 35-44 35-40 35-45c1-28 429-453 457-453 7 0 13-5 13-12 0-6 3-9 6-6 5 6-42 88-56 98-4 3-22 31-39 63-17 31-41 74-53 95-38 62-138 274-138 292 0 4-7 21-15 36-8 16-15 36-15 45 0 8-4 19-9 25-25 27-85 309-100 469-16 160 14 369 61 438 11 15 16 27 12 27-21 0 67 68 104 79 68 23 158-11 238-87 12-12 25-18 29-14s5 2 3-4c-2-7 15-31 37-56 39-42 105-133 105-144 0-3 11-20 25-38s25-39 26-47c0-8 12 15 27 51 43 107 36 303-15 400-7 14-13 31-13 38 0 6-3 12-7 12-5 0-16 20-26 45-11 25-23 45-27 45s-11 11-14 25c-4 14-11 25-16 25-6 0-10 7-10 15s-4 15-10 15c-5 0-10 5-10 11s-13 28-30 49c-16 21-30 42-30 47 0 4-11 20-24 34s-27 35-30 47c-4 12-12 22-17 22s-9 6-9 14-3 16-7 18c-9 3-31 42-75 133-16 33-33 67-38 76-4 8-13 41-20 72-16 79-34 75-25-5 10-86 28-157 84-328 78-235 77-230 61-240-8-5-28-3-48 6-19 8-63 14-99 14-65 0-163-25-163-41 0-5-5-9-10-9-6 0-24-9-39-21-56-41-126 18-161 137-14 45-8 216 9 294 16 76 32 134 40 150 5 9 12 31 16 50 4 18 18 53 31 76 27 49 31 74 10 74-27 0-76 51-86 89-25 95 53 179 160 172 53-3 78-117 49-225-22-84-43-151-51-161-4-5-8-16-8-25 0-8-11-36-24-63-27-52-25-60 24-128 40-54 218-234 225-227 4 3 2 14-3 25-29 56-44 104-68 223-15 76-20 264-8 310 3 14 8 36 11 50s11 28 17 32c15 10-19 166-51 237-26 58-78 121-99 121-7 0-14 6-16 13-6 16-149 17-169 1-8-7-28-15-45-18-18-4-40-16-50-27-9-10-21-19-25-19-5 0-25-11-45-25s-40-25-44-25-30 15-56 33c-132 90-244 116-324 75z" />
    <path
      d="M64 2509c4-33 12-73 18-87 39-99 110-226 141-254 10-9 18-20 17-25-2-13 181-193 197-193 8 0 12-4 9-8-5-9 128-92 148-92 6 0 18-6 25-12 8-9 43-13 100-13 81 0 98 4 161 35 9 4 31 11 50 15s41 11 50 15c30 16 186 59 230 64 98 11 140-17 140-95 0-40-3-50-14-46-13 5-196-35-241-52-11-5-47-16-80-26s-64-22-70-26c-5-4-25-10-42-14-18-3-33-11-33-16s-7-9-16-9c-20 0-244-110-244-120 0-4-8-10-17-14-18-5-53-26-63-36-3-3-32-23-64-45-33-22-104-84-158-138-55-54-103-95-108-92-35 22 19 107 152 238 110 108 117 120 43 82-102-53-235-181-251-242-3-13-10-23-14-23s-14-15-21-32c-6-18-18-49-26-68-27-67-34-96-53-210-11-63-20-156-20-206 0-147 42-394 82-478 10-22 18-44 18-49 0-6 17-43 37-85 87-172 89-172 84-9-6 233 33 472 101 607 18 36 38 70 43 77 46 53 120 122 152 138 21 11 40 22 43 25 10 10 107 40 176 54 116 24 347 39 511 31l152-7 30 43c17 23 31 48 31 56 0 7 5 13 10 13 6 0 10 6 10 13 0 6 14 39 30 72s30 67 30 76 3 19 7 23c13 12 63 161 63 186 0 9-3 11-8 5-8-12-31-26-90-56-23-13-42-26-42-31 0-4-7-8-15-8s-39-12-69-26c-40-19-73-26-123-27l-68-2 3 60c4 71 35 170 90 285 45 95 67 41 37-89-9-35-14-65-12-67 7-7 115 31 150 53 40 25 177 159 177 172 0 4 11 21 24 36 33 38 101 177 122 250 26 85 26 265 1 320-35 76-42 90-54 103-20 21-23 14-23-46 0-66-19-172-30-172-4 0-10-8-14-17-15-46-70-103-126-130-161-80-346 10-375 180-7 43-9 43-51 14-89-63-179-121-204-133-8-4-17-10-20-13s-30-18-60-33c-67-33-156-58-204-58-36 0-156 29-166 40-7 7-41 28-60 37-33 15-260 241-260 258 0 7-83 115-88 115-2 0-1-27 2-61zM4510 2563c0-5-18-28-40-53s-40-49-40-54c0-16-243-255-265-260-11-3-29-13-40-23-24-22-130-53-180-53-45 0-153 29-185 50-14 8-47 27-73 40-27 14-57 29-68 35-10 5-19 13-19 17 0 5-6 8-13 8-8 0-24 11-37 25-12 13-26 22-31 20-4-3-9-2-11 2-5 12-75 63-86 63-5 0-14-23-20-51-16-66-71-141-125-169-88-46-227-24-303 49-18 16-35 27-38 24-3-4-6 0-6 7s-6 21-13 29c-27 32-51 118-57 206-5 80-7 87-18 65-7-14-20-38-30-55-57-95-61-260-11-420 23-71 69-165 81-165 4 0 8-6 8-13 0-8 9-25 21-38 11-13 30-37 42-52 32-42 87-101 87-93 0 4 10-3 23-14 57-53 84-69 141-84 33-8 62-14 63-12 2 2-4 22-12 46-20 57-25 155-7 155 34 0 116-210 128-328l7-67h-45c-60 0-188 42-252 83-11 6-43 26-72 44l-52 32 12-52c7-29 20-68 28-87 9-19 19-46 23-60s12-38 19-55c8-16 20-45 27-62 8-18 17-33 20-33 4 0 10-12 14-27 6-27 48-90 69-106 6-4 74-4 151-1 153 7 397-8 510-32 80-17 204-61 223-81 7-7 17-13 22-13 4 0 37-29 72-64 55-54 122-159 135-211 1-5 7-28 13-50 32-115 43-217 44-407 1-109 4-198 9-198 21 0 137 226 137 268 0 11 4 23 9 26 7 5 19 48 26 91 0 6 4 17 7 25 33 82 48 485 21 575-6 22-19 69-29 105-16 59-47 131-92 215-20 39-168 185-187 185-8 0-15 4-15 9s-10 13-22 17c-13 4-25 9-28 13-3 3-21 12-40 18l-35 13 40-33c124-100 245-248 245-300 0-41-17-30-107 65-7 7-18 19-25 25l-23 23c-24 25-94 81-100 80-4-1-15 8-24 19-10 12-21 21-23 21-3 0-35 20-73 44-89 59-327 176-357 176-8 0-18 4-23 9-11 10-139 51-235 76-36 9-81 20-101 26-21 5-44 6-53 3-13-5-16 1-16 32 0 89 26 110 127 107 56-3 198-39 244-63 9-5 33-12 53-15 20-4 39-11 42-16s15-9 28-9c12 0 28-6 34-12 16-16 169-17 203-2 13 6 43 20 66 30 24 11 43 22 43 27 0 4 6 7 13 7 36 1 297 263 297 299 0 6 4 11 8 11 5 0 14 10 20 23 6 12 24 45 40 72 16 28 36 75 46 105 19 58 33 160 22 160-3 0-6-3-6-7zM2283 1673c-4-10-9-20-13-23-3-3-22-27-41-55-34-48-47-66-89-115-12-14-31-38-43-53-41-52-58-72-143-158-46-47-81-89-77-92 3-4 0-7-8-7s-37-23-64-51c-28-27-66-60-85-71-19-12-44-29-55-39s-24-19-30-20c-5-1-21-6-35-11l-25-10 29-15c72-38 142-54 234-55 51 0 98 4 105 10 7 5 31 12 55 16 24 3 51 11 60 16s44 17 77 26c33 10 66 22 73 27 29 23 184 7 227-24 6-4 26-10 45-14s40-11 45-15c6-4 28-11 50-15 22-5 47-10 55-12 110-31 281-11 340 40 10 8 21 13 24 10 3-4 6-3 6 1 0 6-37 23-54 24-5 0-12 4-15 9s-28 25-56 44c-73 50-281 249-334 320-9 12-34 42-56 68s-51 62-65 80-34 45-46 59c-11 15-33 48-48 75-16 26-30 47-32 47-3 0-8-8-11-17z" />
  </g>
</svg>