<svg xmlns="http://www.w3.org/2000/svg" id="root" width="1200" height="1200" viewBox="0 0 3280 3280">
  <path
    d="m1220 3080-20-20v-399l-80-56-79-56-19-27c-11-15-65-106-122-202l-102-175-1-20c0-11 16-92 36-180s38-175 41-194c2-18 9-38 14-43l10-10 15 23c8 13 42 71 75 129s94 164 136 235c42 72 97 167 124 212l47 83 28 11 28 12 127-8c144-9 159-9 336-1l128 7 23-15 23-15 29-53c16-29 84-147 152-263 68-115 141-240 162-277l40-68h25l42 193c24 105 43 203 42 216v23l-116 199-116 199-36 28c-21 15-56 40-79 56-23 15-44 34-47 42-3 7-6 96-6 196l-2 182-10 21c-6 11-16 23-22 27l-11 8h-242l-20-22-21-23-5-206-4-207-7-10-6-11h-180l-5 10c-4 5-8 57-11 116-2 60-6 155-9 213l-5 105-21 18-21 17h-238l-20-20z" />
  <path
    d="m1428 2155-87-64-14-23c-8-13-121-203-252-423s-246-411-257-424l-18-24v-54l30-69c17-38 35-78 40-89s36-81 69-155l59-135 21-14 21-13 16 6 16 6-7 83c-6 84-19 177-34 257l-9 45 21 35c12 19 134 197 271 395s262 378 277 401l28 40-15 70c-8 38-20 94-25 124-6 30-15 63-20 72l-10 18h-34l-87-65zm287 33c-7-18-23-82-35-141l-22-109 96-141c104-153 343-498 424-612 28-38 56-82 63-97l12-28-17-101c-9-56-19-142-23-190l-6-87 22-7 22-7 19 17c11 10 22 27 26 39 9 28 113 272 153 359 17 37 31 75 31 85l-1 17-272 454-273 455-87 63-88 63h-30l-14-32z" />
  <path
    d="m1331 1257-152-202 6-95c3-52 8-144 11-205 3-60 7-128 9-150 3-22 7-98 10-170 3-71 8-152 11-180l5-50 10-11 10-12 134-1 134-1 26 10 26 10-5 568-4 569-25 50c-14 27-32 54-39 61l-14 11-153-202zm419 146-32-57-7-305c-3-168-6-427-6-574V199l15-9 15-10h305l4 23c5 20 8 67 21 317 3 47 7 112 10 145s8 96 10 140 7 118 10 165l5 85-27 36c-16 20-81 106-145 191s-123 160-131 167l-15 12-32-58z" />
</svg>