<svg xmlns="http://www.w3.org/2000/svg" id="root" viewBox="0 0 3100 7920">
  <path
    d="m1402 7749-113-171-46-789c-26-434-45-791-42-793 2-3 22-1 44 4s93 14 158 21l117 12v943c0 519-1 944-2 944-2 0-54-77-116-171zM1580 6979v-947l83-7c45-3 116-12 157-20 41-7 77-11 79-9 4 4-75 1410-85 1522-6 60-12 72-120 235l-114 172v-946zM1289 5910C729 5811 263 5411 85 4876c-153-460-88-948 181-1357 91-139 280-330 419-422 247-163 507-249 800-264 603-30 1186 318 1456 871 209 427 205 949-10 1372-227 448-636 750-1128 834-150 26-366 26-514 0zm212-226 84-49 155-1c109 0 176-5 225-17 94-22 99-22 141 15 28 25 44 32 68 29 82-8 292-159 430-308 51-55 65-94 58-155-4-37-5-38-47-38-49 0-59-12-40-50 7-14 18-44 24-67 9-33 33-64 106-138 52-52 102-95 110-95 13 0 14 4 5 21-12 22-7 49 9 49 6 0 17-13 26-30 8-16 26-32 39-36 18-4 26-16 34-47 5-23 18-76 29-117 25-103 25-391-1-535-20-111-65-254-104-330-26-52-42-48-23 7 25 71 3 118-56 118-18 0-33-2-33-5 0-2 11-15 25-29 23-23 24-31 24-126-1-90-4-104-23-127l-22-26-24 87c-19 70-21 91-11 112 16 35 14 84-3 84-19 0-33-19-43-60-5-20-16-35-24-35-24 0-22 68 5 147 30 87 32 115 9 148-22 33-29 37-74 44-46 7-49 21-19 91 11 26 20 67 20 91 0 38-3 44-21 44-11 0-29-4-39-10-24-13-129-162-142-203-25-74-45-50-63 75-15 107-21 125-44 138-29 15-40-3-61-101-31-146-55-190-112-204-25-6-27-4-33 32-14 80-27 103-91 161-35 31-64 62-64 69 0 16 33 25 66 17 26-7 27-6 20 32-4 21-30 85-58 141l-51 102-3 121c-3 110-5 124-27 149-15 19-29 57-40 107-8 44-27 105-41 137l-26 57h-60c-55 0-60-2-61-22-3-77-10-125-28-183-16-52-21-93-20-193 0-133-18-248-49-312-17-35-17-35-84-35-56 0-70-4-91-23-44-41-49-69-45-229l3-149 54-83c46-69 53-86 43-99-22-30-42-81-42-106 0-22 5-25 43-28l42-3 1-45c0-25 4-53 8-62 7-15 1-19-33-24-23-4-41-11-41-15 0-11 48-89 55-89 3 0 13 18 21 41 14 34 20 40 38 34 12-4 47-12 79-17 65-12 91-37 85-84-5-41-26-41-43 0-19 44-35 45-69 5l-26-31 45-58c79-102 146-126 201-70 29 30 58 37 83 21 11-7 11-18 2-61-13-60-12-63 29-80 40-16 47-8 31 36-11 30-11 38 0 45 22 13 71-1 142-43 67-39 68-40 53-63-9-14-16-27-16-31 0-17 87 8 133 39 71 47 118 70 125 62 24-24-222-155-383-204-148-45-261-62-422-62-160 0-291 18-415 57-101 31-268 103-268 115 0 13 75 30 96 22 11-4 36-19 57-34 46-33 102-44 142-28 62 24 95 27 172 13 91-16 189-18 198-5 3 6-14 32-39 59-24 28-58 71-75 95-17 25-40 48-51 52-11 3-40 31-66 61-31 35-54 54-69 54-19 0-23-7-29-52-3-29-6-79-6-110 0-46-5-62-26-87-30-36-65-40-94-11s-25 52 20 98c22 22 40 47 40 55s-27 32-59 53l-60 39 36 43c40 49 52 90 53 174v57l-42 11c-124 32-159 57-195 140-14 30-36 67-50 82-18 19-27 42-32 85-11 95-33 109-45 29-9-59-27-74-61-52-54 36-88 132-66 188l10 28 36-17c41-20 50-15 34 20-10 22-6 33 26 92 21 37 43 69 50 71 6 3 33 0 60-6 39-9 52-8 72 5 42 28 104 88 145 139 21 27 68 71 103 98 36 27 65 55 65 62 0 8-7 30-15 49-9 23-15 69-15 124v87l-44 41c-41 38-44 44-50 109-5 47-17 89-40 135-19 37-41 106-51 158-17 84-17 95-3 131 29 74-15 81-56 8-43-75-68-227-81-482-6-129-12-152-73-256-53-93-61-140-38-240 10-40 19-81 21-91 2-11-14-34-42-60-25-23-51-54-59-69s-46-53-85-84c-89-71-121-115-155-217-37-108-37-193 0-296 20-57 26-94 26-154 0-79 0-80-20-62-31 28-124 173-172 270-98 195-137 353-145 585-4 139-2 184 15 285 69 400 282 731 617 961 78 53 83 55 140 53 40-2 71 3 92 14 46 24 75 21 108-13 34-35 94-65 106-53 5 5 5 23-1 43-12 42 1 59 74 95 74 38 122 31 227-31zm279-1754c30-30 24-54-19-82-34-22-41-24-64-12-22 12-25 12-30-8-4-15-11-19-27-15s-23-2-35-28c-19-46-71-63-97-31-10 11-18 35-18 51 0 28 4 32 43 42 27 8 59 28 89 57 42 41 52 46 92 46 33 0 52-6 66-20zM1007 2728c-4-51-10-143-13-205l-7-112 31-30c28-28 37-31 94-31 122 0 168-28 168-103v-38l117 3 117 3 4 248c3 186 1 251-8 262-8 10-31 15-64 15-75 0-232 26-335 55-49 14-92 25-94 25s-7-42-10-92zM2000 2799c-105-31-208-49-315-57l-100-7 1-260 1-260 117-3 116-3v38c0 75 46 103 168 103 57 0 66 3 94 31l31 30-7 112c-15 256-19 297-30 296-6-1-40-10-76-20zM789 2044c-46-58-128-158-181-222-103-124-116-154-66-160 21-3 67 27 220 140l193 143h597l597-1 191-142c151-113 197-143 218-140 48 5 37 33-52 141-116 142-180 222-234 290l-45 57H874l-85-106z"
  />
  <path
    d="M1347 1809c-9-17-26-33-37-36-19-5-20-14-20-223 0-221-12-511-31-769-7-101-17-167-34-220-53-165-62-161 325-161s378-4 325 161c-17 53-27 119-34 220-19 258-31 548-31 769v217l-25 11c-14 7-30 23-37 37l-11 25h-372l-18-31zm232-73c21-33 21-43 21-630 0-393-4-604-10-617-14-26-66-26-80 0-6 13-10 224-10 617 0 587 0 597 21 630 11 19 24 34 29 34s18-15 29-34zM1385 326c-26-19-13-46 24-46 57 0 72-25 80-130 16-206 106-206 122 0 6 80 10 97 29 112 12 10 30 18 40 18 49 0 67 30 31 50-30 16-303 13-326-4z"
  />
</svg>
