<svg xmlns="http://www.w3.org/2000/svg" id="root" viewBox="0 0 4870 1960">

  <path
    d="M2290 1954c0-14 136-183 145-180 12 3 106 118 129 158l17 28h-145c-80 0-146-3-146-6zM2100 1943c-249-27-634-136-947-266-138-57-475-227-546-275-23-16-68-43-101-62-71-40-323-213-429-295l-78-60 68-64c67-62 125-107 318-242 417-293 947-523 1410-613 99-19 342-56 369-56 2 0 20 26 41 58 21 31 66 91 100 132l63 75-35 40c-169 194-256 367-283 563-28 211 57 457 245 707 41 54 75 100 75 103 0 2-31 43-68 90-38 48-81 106-97 130-29 43-29 43-105 35zM2596 1818c-64-86-95-136-90-144 5-6 36-47 69-90 184-243 252-429 243-663-8-192-72-344-221-526-40-48-78-96-85-105-12-16-6-27 48-92 34-40 79-97 99-126l36-53 65 7c112 11 339 62 510 115 146 46 468 169 495 189 6 4 46 23 90 43 184 80 593 312 775 438 36 25 102 71 148 103 45 32 82 61 82 65 0 11-120 115-120 104 0-4-4-3-8 3-15 25-266 201-418 295-149 92-435 239-564 291-41 16-93 38-115 48-63 29-371 127-465 149-126 29-346 69-415 76l-60 6-99-133z"
  />
  <path
    d="M2393 1559c-54-71-153-220-153-231 0-4 88-8 196-8 168 0 195 2 191 15-8 19-138 211-169 249l-24 28-41-53zM2179 1193c-9-23-39-162-39-179 0-2 133-4 295-4s295 4 295 8c0 25-24 131-37 164l-15 38h-488l-11-27zM2146 868c3-24 12-67 20-95l15-53h508l14 53c9 28 18 71 22 95l7 42h-592l6-42zM2244 592c17-33 105-150 155-207l34-39 35 39c41 47 148 190 163 216 9 18 1 19-196 19h-206l15-28zM2408 173c-14-15-52-59-82-98l-56-70 157-3c85-1 158 0 160 2 4 4-48 72-132 173l-20 24-27-28z"
  />

</svg>