<svg xmlns="http://www.w3.org/2000/svg" id="root" viewBox="0 0 150 123">
  <path
    d="M 77.4375 95.386719 C 39.789062 95.386719 9.269531 81.675781 9.269531 64.765625 C 9.269531 61.816406 10.199219 58.96875 11.929688 56.273438 C 4.40625 61.195312 0 67.15625 0 73.578125 C 0 90.492188 30.519531 104.199219 68.164062 104.199219 C 99.253906 104.199219 125.476562 94.851562 133.671875 82.070312 C 121.386719 90.109375 100.785156 95.386719 77.4375 95.386719 "
  />
  <path
    d="M 72.515625 114.144531 C 110.164062 114.144531 140.679688 100.433594 140.679688 83.523438 C 140.679688 80.574219 139.753906 77.726562 138.023438 75.03125 C 145.546875 79.953125 149.953125 85.914062 149.953125 92.335938 C 149.953125 109.246094 119.433594 122.957031 81.785156 122.957031 C 50.699219 122.957031 24.472656 113.609375 16.277344 100.828125 C 28.566406 108.867188 49.167969 114.144531 72.515625 114.144531 "
  />
  <path
    d="M 77.4375 57.871094 C 39.789062 57.871094 9.269531 44.164062 9.269531 27.25 C 9.269531 24.304688 10.199219 21.453125 11.929688 18.757812 C 4.40625 23.679688 0 29.640625 0 36.066406 C 0 52.976562 30.519531 66.6875 68.164062 66.6875 C 99.253906 66.6875 125.476562 57.339844 133.671875 44.558594 C 121.386719 52.597656 100.785156 57.871094 77.4375 57.871094 "
  />
  <path
    d="M 72.515625 76.628906 C 110.164062 76.628906 140.679688 62.921875 140.679688 46.007812 C 140.679688 43.0625 139.753906 40.210938 138.023438 37.515625 C 145.546875 42.4375 149.953125 48.398438 149.953125 54.820312 C 149.953125 71.734375 119.433594 85.441406 81.785156 85.441406 C 50.699219 85.441406 24.472656 76.09375 16.277344 63.316406 C 28.566406 71.355469 49.167969 76.628906 72.515625 76.628906 "
  />
  <path
    d="M 70.707031 39.117188 C 108.355469 39.117188 138.875 25.40625 138.875 8.492188 C 138.875 5.546875 137.941406 2.699219 136.214844 0 C 143.738281 4.925781 148.144531 10.882812 148.144531 17.308594 C 148.144531 34.21875 117.625 47.929688 79.976562 47.929688 C 48.890625 47.929688 22.667969 38.582031 14.472656 25.800781 C 26.753906 33.839844 47.359375 39.117188 70.707031 39.117188 "
  />
</svg>
