<svg xmlns="http://www.w3.org/2000/svg" id="root" viewBox="0 0 1240 1240">

  <path
    d="M550 1229c-158-25-257-74-361-178C-5 857-47 587 78 335c47-95 162-210 257-257 191-95 379-95 570 0 95 47 210 162 257 257 95 191 95 379 0 570-67 135-228 266-372 303-44 12-170 33-180 31-3-1-30-5-60-10zm0-159V970h140v200l28-6c216-48 383-205 437-410 88-340-180-684-535-684C317 70 70 317 70 620c0 200 115 392 289 484 56 29 149 62 184 65 4 1 7-44 7-99z"
  />
  <path
    d="M550 860v-50H293l-6-93c-3-50-13-112-22-136-18-51-14-59 19-42 33 18 64 79 74 142l7 54 91 3 91 3 6-243c5-248 17-330 53-368 12-13 16-13 28 0 36 38 48 120 53 368l6 243 91-3 91-3 7-54c10-63 41-124 74-142 33-17 37-9 19 42-9 24-19 86-22 136l-6 93H690v100H550v-50z"
  />

</svg>