<svg xmlns="http://www.w3.org/2000/svg" id="root" viewBox="0 0 150 133">
  <path
    d="M 141.398438 123.214844 C 140.101562 125.433594 137.695312 126.8125 135.121094 126.8125 L 13.765625 126.8125 C 11.1875 126.8125 8.78125 125.433594 7.488281 123.214844 C 6.195312 121 6.179688 118.234375 7.464844 116.011719 L 68.140625 10.125 C 69.429688 7.875 71.847656 6.476562 74.449219 6.476562 C 77.054688 6.476562 79.46875 7.875 80.757812 10.125 L 141.433594 116.011719 C 142.710938 118.234375 142.699219 121 141.410156 123.214844 Z M 147.082031 112.800781 L 86.410156 6.921875 C 83.96875 2.652344 79.382812 0 74.441406 0 C 69.507812 0 64.921875 2.652344 62.476562 6.917969 L 1.804688 112.800781 C -0.621094 117.023438 -0.601562 122.261719 1.859375 126.46875 C 4.316406 130.675781 8.878906 133.292969 13.769531 133.292969 L 135.121094 133.292969 C 140.011719 133.292969 144.578125 130.675781 147.03125 126.46875 C 149.488281 122.261719 149.507812 117.023438 147.089844 112.800781 "
  />
</svg>
