<svg xmlns="http://www.w3.org/2000/svg" viewBox=" 0 0 6000 6000">
  <g fill=" #000000">
    <path
      d=" M2698 5670c-642-80-1239-400-1656-888l-54-62h839l69 46c146 97 394 205 581 254 205 53 493 74 702 51 303-33 596-135 852-297l86-54h447c285 0 446 4 446 10 0 20-340 350-436 422-339 257-715 422-1134 499-95 17-163 21-395 24-154 2-310 0-347-5zM540 4587c0-2 115-204 256-448s350-606 464-804 239-415 278-483l71-123-154-271c-85-148-155-272-155-274s141-4 313-4h313l534-925c293-509 536-928 540-930 3-2 13 8 22 23 142 249 811 1410 961 1670l112 192h302c167 0 303 3 303 8 0 4-65 121-145 261-80 139-145 259-145 266s235 420 521 916c287 497 524 909 526 916 4 10-235 13-1201 13H3050v-526c0-289 4-524 9-522 4 2 124 132 266 291l258 287h569c312 0 568-2 568-4 0-10-271-454-282-463-7-6-333-171-725-368l-711-357-723 364-723 363-137 230-137 230 566 3 566 2 25-25c14-13 132-143 261-289 129-145 238-265 243-265 4-1 7 235 7 524v525H1745c-663 0-1205-2-1205-3zm2047-2162 416-215 196 102c108 55 241 124 296 153 128 68 260 134 309 157l38 18-14-22c-16-24-659-1101-762-1276-33-56-63-102-66-101-3 0-104 167-225 370-121 204-309 519-417 700s-195 329-192 329c2 0 192-97 421-215z"
    />
    <path
      d=" M598 4043c-126-343-169-576-169-933-1-178 4-255 20-365 58-389 183-722 396-1049 193-299 503-600 811-789 259-158 553-272 857-333 128-25 181-30 175-16-1 5-91 163-198 350l-195 341-88 37c-263 111-522 296-713 512-257 291-421 645-478 1033-19 125-21 395-5 519 6 47 12 94 12 105 2 20-371 685-383 685-3 0-22-44-42-97zM5147 3742l-217-379 9-126c29-427-86-863-323-1219-195-293-477-539-784-685-72-35-98-53-116-81-13-20-104-176-202-347-97-170-184-320-192-332-13-22-13-23 10-23 46 0 243 39 368 74 476 131 926 416 1250 794 328 382 529 820 607 1322 25 163 25 579-1 735-35 218-76 375-143 553-20 50-38 92-42 92-3 0-104-171-224-378z"
    />
  </g>
</svg>
