<svg xmlns="http://www.w3.org/2000/svg" viewBox="0 0 2910 2530"><g fill="#000"><path d="M31 2472c18-31 124-214 235-407l202-350 187-5 188-5 131-227c72-124 205-355 296-512s168-286 172-286c13 0 98 154 94 171-3 12-579 1011-594 1029-2 3-87 7-189 10l-185 5-129 225c-70 123-127 226-125 228s309 3 682 3l679-1 48 90 48 90H-1l32-58z"/><path d="m1875 2370-90-159-480-1c-264-1-536-1-603 0-68 0-122-3-119-7 2-4 26-46 52-92l49-84 389 6c215 4 486 7 603 7h212l89 155 88 154 269 1c227 0 267-2 263-14-5-13-476-830-622-1080l-53-90 31-50c17-28 41-66 54-84l22-33 37 63c20 35 171 297 336 583 301 521 362 626 457 786 28 48 51 90 51 93s-213 6-472 6l-473-1-90-159z"/><path d="M2137 2183c-22-39-281-490-295-515-11-18-83-144-161-279l-142-247 82-138c114-193 108-167 52-265-27-46-87-148-133-227-45-79-86-140-90-135-4 4-34 55-67 113s-120 209-193 335c-73 127-176 304-228 395s-117 203-145 249l-50 84-94-5c-51-3-96-7-98-10-3-3 32-70 78-149s209-360 362-624 314-542 358-618c43-76 83-135 87-130 7 7 72 119 378 646 51 87 92 161 92 164 0 7-107 193-153 267-23 37-28 52-20 65 5 9 21 36 35 61s67 117 118 205c76 131 337 582 411 713 11 18 19 37 19 42 0 12-197 14-203 3z"/></g></svg>