<svg id="root" xmlns="http://www.w3.org/2000/svg" width="180" height="180" viewBox="0 0 1800 1800">
  <path
    d="M886 1623 c-11 -82 -26 -341 -26 -450 0 -57 -3 -103 -6 -103 -3 0 -65 55 -138 123 -151 140 -244 221 -301 263 l-40 29 33 -44 c44 -61 140 -170 294 -333 71 -76 128 -142 126 -147 -1 -5 -77 -80 -167 -167 l-164 -159 -49 55 c-41 45 -51 53 -66 44 -32 -20 -25 -43 30 -93 l53 -49 -50 -51 c-27 -28 -54 -51 -61 -51 -22 0 -64 -42 -64 -64 0 -12 7 -32 16 -44 30 -44 114 -19 114 34 0 10 24 40 54 66 l54 48 46 -51 c34 -37 51 -50 68 -47 41 6 33 37 -21 86 l-51 47 140 145 139 145 1 -214 0 -214 -69 5 c-72 5 -91 -2 -91 -33 0 -27 17 -32 90 -30 l67 2 7 -71 c6 -58 4 -75 -8 -89 -35 -39 -3 -101 52 -101 42 0 66 31 57 72 -4 18 -9 68 -12 111 l-5 78 70 -2 c75 -2 92 3 92 30 0 31 -19 39 -84 34 l-63 -5 -6 122 c-4 68 -7 164 -7 214 l0 91 143 -143 142 -143 -53 -49 c-43 -38 -53 -53 -47 -69 11 -35 43 -24 93 30 l47 50 53 -46 c28 -26 52 -54 52 -64 0 -33 29 -61 64 -61 41 0 66 26 66 68 0 33 -29 62 -61 62 -10 0 -38 24 -64 53 l-46 52 50 47 c54 50 65 82 30 93 -16 6 -31 -4 -69 -47 l-49 -53 -165 165 -166 165 126 135 c154 166 285 315 310 355 18 29 17 29 -31 -9 -66 -53 -174 -148 -309 -274 l-111 -103 -7 48 c-3 26 -7 90 -7 142 -1 118 -20 368 -30 395 -6 15 -10 8 -15 -31z">
  </path>
</svg>