<svg id="root" xmlns="http://www.w3.org/2000/svg" width="180" height="180" viewBox="0 0 1800 1800">
  <path
    d="M866 1734 c-14 -13 -16 -58 -16 -337 l0 -321 -223 222 c-123 122 -226 222 -231 222 -22 0 -46 -23 -46 -45 0 -19 56 -80 242 -264 l243 -239 -169 -166 c-115 -115 -178 -169 -197 -173 -51 -10 -97 -69 -193 -246 l-48 -88 64 32 c157 78 268 157 268 191 0 30 27 62 162 199 l123 124 0 -186 c-1 -158 -4 -190 -18 -212 -9 -15 -17 -42 -17 -61 0 -35 46 -226 73 -301 l14 -40 31 100 c17 55 36 120 41 145 13 56 14 150 2 150 -5 0 -13 15 -17 33 -9 42 -11 377 -2 377 4 0 15 -12 25 -27 10 -16 69 -78 130 -139 82 -81 115 -120 119 -143 9 -45 78 -102 213 -177 63 -35 116 -62 118 -60 2 1 -22 49 -53 107 -57 107 -126 207 -147 214 -7 2 -23 6 -37 9 -16 3 -94 72 -192 169 l-167 163 245 245 c134 134 244 252 244 261 0 17 -35 48 -54 48 -6 0 -111 -100 -233 -222 l-224 -223 2 324 c1 303 0 325 -17 338 -23 17 -39 16 -58 -3z">
  </path>
</svg>