<svg id="root" xmlns="http://www.w3.org/2000/svg" width="180" height="180" viewBox="0 0 1800 1800">
  <path
    d="M857 1672 c-14 -15 -17 -40 -17 -125 0 -60 4 -109 10 -112 6 -4 10 -138 10 -370 l0 -364 -32 -3 c-21 -2 -33 -8 -33 -18 0 -10 12 -16 33 -18 23 -2 32 -8 32 -22 0 -16 -12 -18 -119 -21 -66 -2 -122 -7 -126 -11 -12 -12 -17 -251 -7 -298 7 -30 8 -47 1 -51 -6 -3 10 -35 37 -74 54 -77 58 -75 66 37 4 51 3 68 -7 68 -19 0 -25 34 -25 143 l0 97 90 0 90 0 0 -124 c0 -77 -4 -126 -10 -128 -11 -3 38 -158 50 -158 12 0 61 155 50 158 -6 2 -10 51 -10 128 l0 124 91 0 91 0 -4 -115 c-2 -85 -7 -118 -17 -124 -11 -7 -12 -27 -6 -95 l7 -87 49 69 c48 68 58 92 40 92 -5 0 -5 18 1 42 11 45 5 284 -7 296 -4 4 -60 9 -126 11 -107 3 -119 5 -119 21 0 14 9 20 33 22 20 2 32 8 32 18 0 10 -12 16 -32 18 l-33 3 0 364 c0 232 4 366 10 370 6 4 10 53 10 114 0 92 -3 110 -18 124 -24 22 -65 21 -85 -1z">
  </path>
</svg>