<svg xmlns="http://www.w3.org/2000/svg" viewBox="0 0 3590 3450">
  <g fill=" #000000">
    <path
      d="M1778 3419c-8-13-73-124-144-247l-128-222-176 2-175 3-3 73-3 72H617c-401-1-527-3-512-12 36-21 828-475 936-537l106-61h1296l106 61c108 62 900 516 936 537 15 9-111 11-512 12h-532l-3-72-3-73-175-3-176-2-129 225c-72 125-137 236-146 247l-16 22-15-25zM66 2828c140-239 175-301 319-549l147-256 56 34c31 18 61 32 67 30 10-4 175-283 175-297 0-4-63-117-140-250s-140-244-140-246 129-4 288-4h287l85-147c47-81 86-149 87-152 2-4-24-21-57-39s-60-36-60-41 70-129 156-277 201-348 257-444c55-96 103-178 106-182s4 273 1 615l-5 622-181 310c-99 171-241 414-315 542l-134 232-70 39c-38 22-169 97-290 167s-326 188-455 262c-129 75-238 137-242 140-4 2 22-47 58-109zM3355 2807c-126-73-338-196-470-272s-267-154-300-172l-60-34-134-232c-74-128-216-371-315-542l-181-310-5-622c-3-342-2-619 1-615s51 86 106 182c56 96 171 296 257 444s156 272 156 277-27 23-60 41-59 35-57 39c1 3 40 71 87 152l85 147h288c158 0 287 2 287 5 0 2-22 42-49 87-119 203-231 401-231 408 0 14 165 293 175 297 6 2 36-12 67-30l56-34 113 196c139 241 272 471 355 614 35 59 62 107 61 107-1-1-105-60-232-133zM1396 2242c-3-5 19-49 48-98s90-154 136-234c156-271 207-355 215-355s59 84 215 355c46 80 107 185 136 234s51 93 48 98c-7 11-791 11-798 0z"
    />
  </g>
</svg>
