<svg xmlns="http://www.w3.org/2000/svg"
  viewBox="0 0 4200 6840">
  <g fill="#000000">
    <path
      d="M1970 6833c-388-60-643-188-949-478-104-99-338-390-362-450-2-5-25-41-50-80-112-168-277-533-362-800-308-962-322-2083-39-3080 11-38 27-90 36-115s26-74 37-110c12-36 29-83 39-105s30-71 45-110c43-109 117-265 127-265 4 0 8-7 8-15 0-17 86-174 132-242 15-23 28-44 28-48 0-9 136-191 194-260 28-33 60-71 71-84 84-99 329-311 360-311 8 0 15-4 15-8 0-18 190-126 280-160 91-34 222-72 290-84 95-16 362-16 460 0 134 23 395 115 408 145 2 4 8 7 14 7 15 0 148 81 148 91 0 5 5 9 12 9 22 0 157 109 266 213 95 90 229 249 303 357 24 36 47 66 52 68 4 2 7 8 7 14 0 5 13 28 28 51 46 68 132 225 132 242 0 8 4 15 8 15 10 0 27 35 109 223 269 624 404 1408 372 2167-16 399-75 826-154 1105-7 28-26 95-41 150-22 85-60 197-130 388-24 65-116 268-152 337-70 133-106 196-131 234-14 21-31 46-36 55-130 206-317 425-476 557-237 197-484 317-753 363-108 19-272 26-346 14zm392-217c172-43 364-134 480-226 20-17 39-30 41-30 17 0 247-223 318-308 90-109 223-307 294-438 14-27 30-56 36-64 27-43 133-287 184-424 61-165 98-288 160-536 46-182 98-539 116-788 13-195 7-733-11-897-25-230-69-501-105-645-57-230-144-516-165-545-4-5-10-21-13-35-20-92-250-552-304-608-7-7-13-18-13-23 0-21-173-246-269-349-85-91-277-260-295-260-3 0-31-17-63-39-223-148-528-223-775-191-95 12-198 36-278 65-44 15-230 105-240 115-3 3-25 18-50 35-156 103-358 295-468 445-88 121-122 171-122 179 0 5-7 16-15 24-53 54-305 568-305 623 0 12-4 24-9 26-19 7-130 379-175 588-90 415-122 764-113 1235 8 425 38 668 137 1105 50 223 172 570 278 790 178 372 367 628 644 878 26 23 51 42 56 42s15 7 22 15 59 44 116 79c151 95 345 166 503 186 108 14 294 3 403-24z" />
    <path
      d="M1970 6356c0-2 30-21 67-42 36-22 101-73 143-114 75-72 140-150 126-150-4 0-28 12-53 26-66 36-178 79-275 106-72 19-108 22-268 22-167 0-195-2-290-26-58-15-132-36-165-49l-59-22 69-19c68-18 189-88 200-115 2-8-18-24-53-42-94-48-103-54-196-116-103-69-251-206-337-311-32-40-59-75-59-78s-15-27-34-53c-57-81-133-232-181-361-43-116-63-182-53-182 2 0 21 25 43 56 53 75 128 167 189 234 45 49 81 82 179 167 95 83 322 204 453 242 288 85 557 61 816-71 207-105 370-258 518-484 64-97 185-344 235-479 20-55 41-110 46-123 28-71 92-325 114-452 9-52 18-106 20-120 17-94 27-318 21-470-16-447-136-862-355-1225-20-33-38-62-41-65s-15-22-27-42c-64-109-300-371-438-484-33-27-62-52-65-55-3-4-50-37-105-74-136-92-132-88-104-96 13-4 77-7 141-8 398-3 698 143 986 479 143 167 299 469 411 794 50 146 121 392 136 471l7 40-70-72c-38-39-80-77-92-83-27-14-28-36 18 240 63 370 77 531 77 920 0 374-4 424-56 666-44 204-130 414-234 569-47 70-115 149-115 134 0-3 5-31 10-62 11-56 0-161-20-197-10-17-11-15-65 135-50 138-163 366-229 465-31 45-56 84-56 86 0 4-11 17-95 114-180 205-398 326-660 365-95 14-175 19-175 11z" />
    <path
      d="M1600 5274c-245-37-457-142-629-313-60-58-151-171-151-186 0-4-7-13-14-19-22-16-129-227-170-333-89-228-158-560-172-813-3-58-7-117-9-132-6-37 4-35 61 13 83 69 161 98 180 68 10-18 6-88-11-164-15-68-25-138-45-335-23-228-2-547 48-730 38-135 98-290 113-290 11 0 19 42 19 97 0 87 7 83 111-72 138-207 394-429 587-511l33-14-18 24c-10 13-42 51-71 85-214 252-352 586-419 1006-31 197-43 620-23 782 29 240 89 422 195 597 61 100 65 106 155 196 78 79 119 100 191 100 71-1 161-61 221-149 85-124 103-154 157-266 148-305 190-550 162-950-23-327-111-628-206-700-79-61-231 5-288 124-19 39-22 63-22 156 0 113 6 137 55 235 26 52 95 244 121 335 20 69 23 104 23 260 1 158-2 190-22 261-27 93-77 190-114 217-41 31-114 33-177 6-153-66-268-213-301-388-13-70-13-393 0-541 24-261 90-537 182-760 29-69 55-127 58-130s25-45 49-95c89-181 195-316 286-363 41-22 63-27 125-26 70 0 81 3 169 49 52 27 114 64 138 82s46 33 49 33c19 0 243 215 292 280 15 19 30 37 33 40 11 10 119 168 119 175 0 3 15 32 33 63 90 153 168 404 209 662 20 129 17 650-5 804-42 294-121 570-222 782-154 321-355 544-602 668-72 36-104 46-223 71-60 13-200 18-260 9z" />
  </g>
</svg>