<svg xmlns="http://www.w3.org/2000/svg" viewBox="0 0 2400 4730"><path fill="#000" d="M147 4688c-8-18-24-55-37-83-31-69-36-84-50-135-7-25-16-56-20-70-24-73-32-146-32-283 1-222 15-328 67-497 27-88 93-231 112-243 7-4 13-12 13-18 0-5 18-37 40-70s40-65 40-70 4-9 8-9 16-15 27-32c10-18 75-91 144-161 120-122 213-200 291-245 19-11 105-63 190-117s178-108 206-121c70-32 165-103 261-197 61-59 87-78 100-73 33 11-40-42-93-68-29-14-122-69-206-122s-169-105-188-116c-100-57-324-261-413-378-23-30-45-56-49-58-5-2-8-8-8-13 0-6-18-37-40-69s-40-63-40-69c0-5-6-14-13-18-13-8-47-79-48-98 0-5-6-17-13-25-18-22-33-59-47-115-6-27-15-54-19-60-23-31-49-268-50-440 0-141 3-171 26-255 14-52 28-108 31-123 3-16 20-59 38-95 18-37 38-85 45-106 21-65 29-22 22 114-10 171 3 477 22 543 8 28 24 88 36 132 11 44 24 89 29 100 44 100 79 168 110 213 20 30 43 64 51 76 114 174 191 266 285 344 44 37 96 81 115 98 49 45 236 179 337 241 47 29 112 72 146 96 92 64 124 83 110 65-11-12-4-27 41-86 110-145 154-246 206-477 41-179 37-523-9-744-6-30-9-56-7-59 3-2 14 18 26 45 12 26 28 61 36 77s14 33 14 38 9 28 20 50c11 23 20 50 20 59 0 10 5 21 10 24 6 3 10 17 10 30s4 34 9 47 14 50 21 83c6 33 18 90 26 126 19 91 17 223-7 354-11 61-22 125-26 143-3 18-9 35-14 38s-9 15-9 28c0 12-4 26-8 32-4 5-14 27-21 49-14 46-19 59-56 140-15 33-45 81-68 108l-40 49 69 66c71 68 172 181 188 210 5 10 30 44 55 77 50 65 62 88 102 193 5 12 13 32 19 45 67 155 104 348 98 522-4 110-33 295-56 355-5 14-15 43-21 65-17 55-49 142-71 190-10 22-24 55-32 73-7 17-16 32-20 32-7 0-2-49 9-80 12-37 26-211 30-380 4-184 2-200-37-400-33-169-83-272-222-459-109-146-313-361-292-308 5 14-57 76-183 182-67 56-304 225-317 225-19 0-296 197-370 262-33 31-84 74-112 96-59 47-130 125-182 202-20 30-52 73-69 96-18 23-33 45-33 50s-14 25-30 44c-49 57-117 210-160 359-49 171-61 296-56 584 1 114 1 207 0 207-2 0-10-15-17-32z"/></svg>