<svg xmlns="http://www.w3.org/2000/svg" id="root" viewBox=" 0 0 3850 4490">
  <path
    d=" M1785 4403c-71-41-152-87-180-102-27-16-68-38-90-51s-60-34-85-48-94-53-155-87c-60-34-186-105-280-158-234-131-241-134-280-157-19-11-52-29-72-41-216-121-332-186-468-263l-160-91-3-1127-2-1127 22-16c13-9 187-114 388-234C1598 199 1839 55 1875 32c22-14 47-25 56-25 9 1 147 79 305 175 159 95 298 178 309 184s169 100 350 209c182 108 346 206 365 217s46 28 60 38c14 9 30 19 35 21 6 2 120 69 253 149l242 145v2261l-52 28c-29 16-118 66-198 111-153 86-210 118-287 161-27 15-61 34-78 44-16 10-52 30-80 45-77 43-126 70-320 180-184 104-239 135-322 181-27 15-61 34-78 44-16 10-51 29-77 44-79 43-136 75-281 158-76 43-144 78-150 77-7 0-70-35-142-76zm105-317v-205l-28-20c-16-11-36-37-46-58-16-36-22-40-79-52-34-7-78-17-97-21-178-43-369-82-380-78-13 4 22 45 244 278 45 47 131 139 191 204 105 113 155 156 183 156 9 0 12-48 12-204zm220 107c165-166 509-538 500-541-8-3-78 9-160 28-19 4-82 18-140 30s-121 26-140 30-50 11-68 15c-26 6-37 17-53 49-10 23-33 50-49 59l-30 18v205c0 201 0 204 21 204 13 0 57-36 119-97zm-410-10c0-3-26-34-57-67-32-34-123-131-203-216s-170-181-200-213l-55-58-270-59c-148-32-295-64-325-71-30-6-68-15-84-20-37-11-76-12-76 0 0 5 8 11 17 14 10 4 38 18 63 33 25 14 119 68 210 119 207 117 235 132 290 163 25 14 74 42 110 62 61 35 93 53 215 121 28 15 118 66 200 113 148 84 165 92 165 79zm604-67c72-41 154-86 181-101 28-15 79-45 115-65s88-50 115-65c121-67 145-81 240-135 55-31 163-92 240-135 168-93 238-136 231-143-3-2-25 0-48 6-24 7-182 41-353 77-170 37-318 68-327 71-19 6-109 97-359 364-166 178-185 200-174 200 4 0 67-33 139-74zm-485-435c16-10 13-16-69-156-29-49-60-103-70-120-10-16-57-97-105-180-49-82-95-162-102-177-8-16-24-30-36-33s-186-4-387-3c-425 3-409-2-313 100 32 34 97 103 144 152 47 50 121 129 164 176 44 47 86 89 95 95 11 7 603 145 660 154 3 0 11-3 19-8zm531-56c407-89 366-74 439-152 35-38 105-111 155-163 191-200 247-264 244-279-3-14-47-16-389-19-358-2-387-1-401 15-8 10-50 79-93 153-99 172-102 178-165 285-29 50-61 106-72 125s-25 41-30 47c-16 20-1 43 29 43 15 0 143-25 283-55zm-388-12c9-10 40-61 70-113s79-135 108-185c53-91 75-129 109-187 10-18 27-48 39-67s19-38 16-43c-8-13-754-10-754 3 0 5 25 54 56 107s64 111 74 127c9 17 32 55 50 85s41 69 50 85c51 89 94 163 106 183 17 26 55 29 76 5zm-928-146c-26-29-107-115-179-192-73-77-145-155-161-173-26-30-36-34-91-37l-62-4-158 107c-184 125-212 145-213 153 0 5 41 16 145 39 22 5 61 13 88 19 26 6 66 15 90 20 54 12 119 27 180 40 26 6 67 16 92 21 25 6 64 14 88 20 23 5 67 14 97 21s69 15 85 19c49 12 49 1-1-53zm1886 34c30-7 75-17 100-22 25-6 63-14 85-19s60-13 85-18c25-6 70-15 100-22 63-13 114-24 185-40 28-6 70-16 95-21 84-19 120-30 120-37-1-4-31-28-68-54-316-223-280-202-350-203h-64l-46 50c-25 27-113 121-196 209-195 205-200 212-133 196 18-4 57-13 87-19zm784-238c-3-16-24-91-45-168-22-77-44-158-50-180s-15-51-19-65c-8-27-18-61-50-180-11-41-24-88-29-105-4-16-14-50-21-75-19-70-32-100-41-100-5 0-9 6-9 13 0 8-9 43-20 78s-25 82-31 104-15 51-19 65-13 43-19 65-20 69-31 104c-24 77-25 100-5 137 8 16 15 40 15 54 1 20 17 36 78 78 42 29 126 86 185 127 60 41 110 75 113 75 2 0 2-12-2-27zM355 3157c166-113 180-125 186-157 3-19 12-45 19-57 15-24 10-55-32-188-10-33-23-78-29-100s-15-51-19-65c-5-14-18-59-30-100s-25-81-29-89c-11-22-25-15-33 16-4 15-11 44-16 63-6 19-17 61-26 93-9 31-23 83-32 115-9 31-19 71-24 87-4 17-35 130-69 251-61 221-68 254-53 254 4-1 88-56 187-123zm1065-188c0-6-16-38-36-72s-45-75-54-92c-40-69-201-345-238-409-23-38-47-73-54-77-8-5-31 26-73 99-34 59-86 148-115 197-29 50-60 104-70 120-97 165-112 196-106 220l6 25h370c259 0 370-3 370-11zm931-17c22-38 228-390 249-427 10-16 41-70 70-120 29-49 61-104 70-121 10-17 24-40 31-51 11-18 4-34-51-129-70-122-77-135-147-254-28-47-81-138-118-202l-69-118h-903l-98 168c-54 92-106 181-115 197-38 65-95 163-135 230-23 39-44 77-47 86-6 16 9 45 132 254 29 50 60 104 70 120 31 53 91 157 162 278l69 117h814l16-28zm845 3c6-26 5-29-96-200-29-49-60-103-70-120-76-131-166-286-183-313l-20-34-55 94c-30 51-87 147-125 213s-77 134-87 150c-98 168-130 225-130 229s171 6 380 6h380l6-25zm513-722c0-406-4-727-9-713-9 29-148 499-161 548-5 17-14 49-20 70-18 60-22 111-11 140 5 15 15 45 21 67s28 103 50 180c21 77 58 209 81 293 23 83 44 152 46 152s4-332 3-737zM194 2840c14-52 46-167 70-255 74-264 96-352 96-377 0-14-38-154-85-311-46-158-89-305-95-327s-15-40-20-40c-11 0-14 1392-3 1403 9 10 8 12 37-93zm533-65c46-77 111-189 145-249 75-130 85-147 122-209 20-33 25-51 18-60-5-6-19-29-31-49-35-62-56-100-97-168-21-36-45-77-54-92-178-311-199-342-216-325-7 7-66 213-155 542-6 22-15 50-20 63-15 39-10 104 17 192 14 47 29 99 34 115 4 17 31 108 59 203s51 176 51 178c0 3 10 4 22 2 18-2 43-37 105-143zm2543 119c6-14 33-105 60-202 28-97 55-188 59-202 5-14 14-45 21-70s17-58 22-75c8-24 2-57-30-170-22-77-64-227-93-334-29-106-59-200-65-209-18-25-34-6-106 120-81 143-98 172-147 253-23 37-41 68-41 69 0 2-22 41-50 87-27 46-50 90-50 98 0 12 27 62 140 256 9 17 32 55 50 85s41 70 51 88c11 17 27 47 38 65 43 76 84 143 93 155 17 20 38 14 48-14zm-2085-904c107-183 127-218 164-284 11-18 37-63 60-100 27-45 36-68 28-72-7-2-169-3-362-2l-350 3-9 26c-7 21-2 37 29 90 21 35 46 78 55 94 10 17 41 71 70 120 29 50 60 104 70 120 83 145 123 206 130 199 4-5 56-92 115-194zm1670 98c52-91 158-273 242-414 49-83 52-94 42-118l-12-26h-347c-191 0-350 3-353 7-4 3-3 11 2 17s18 28 30 49c35 63 57 100 91 157 38 64 43 72 145 250 83 144 93 160 105 160 4 0 29-37 55-82zm-2462 30c3-13 10-39 16-58 5-19 19-71 31-115s25-93 30-110c18-63 29-102 46-168s17-67-4-90c-24-25-42-69-42-100 0-12-10-29-22-36-59-37-282-161-289-161-24 0-5 111 57 321 36 123 70 240 75 259 6 19 14 49 18 65 5 17 11 37 14 45s15 50 28 92c13 43 27 78 30 78 4 0 9-10 12-22zm3120-49c21-74 32-109 46-161 6-21 15-53 20-70 6-18 14-49 20-68 5-19 32-114 60-210 51-176 66-281 39-279-7 0-80 40-163 87-125 72-150 91-153 112-5 50-12 69-37 98l-24 29 20 69c10 38 23 83 28 99 4 17 14 50 21 75s16 56 20 70 18 63 30 110 24 91 26 98c8 28 28 3 47-59zm-1921-779c50-85 98-168 108-185 9-16 32-55 50-85 34-57 56-94 91-157 12-21 26-44 31-50 13-16-7-43-32-43-10 0-71 13-137 30-65 16-205 50-311 76l-192 47-133 136c-294 303-348 363-336 377 10 12 79 14 391 12l380-3 90-155zm738 147c0-7-4-17-9-22-5-6-19-27-30-47-36-64-56-99-123-213-36-60-94-159-129-220-61-105-66-110-100-113-42-4-41-4-110 113-49 86-124 214-238 408-28 49-51 93-51 98s161 9 395 9c317 0 395-3 395-13zm795-8c0-18-32-53-297-330-167-175-169-176-231-192-211-55-555-137-573-137-39 0-34 28 18 117 28 49 58 102 68 118 10 17 41 71 70 120 29 50 60 104 70 120 9 17 34 59 55 95s44 75 52 88l14 22 377-2c340-3 377-5 377-19zm-2578-60c7-7 39-11 71-11l59 1 125-132c229-243 237-252 223-255-10-2-354 78-505 118-19 5-75 19-125 30-121 29-190 58-190 81 0 15 283 178 311 179 11 0 25-5 31-11zm2870-21c153-84 238-137 238-148 0-7-17-22-37-32-44-23-752-200-782-196-17 2 15 41 163 195l184 193 52-1c29-1 61 3 71 9 30 18 49 14 111-20zM700 1019c427-103 386-88 459-166 121-129 245-258 364-381 65-68 117-126 114-128-6-6-22 3-302 171-126 76-246 147-265 158-19 10-46 27-60 37-14 9-30 19-35 21-40 15-573 344-569 351 3 5 13 7 22 4 10-3 132-33 272-67zm2754 62c4-5-9-18-26-29-18-11-269-160-558-332s-535-319-547-326c-58-36-93-53-93-44 0 14 530 569 549 574 13 4 575 142 646 159 11 3 21 5 22 6 1 0 4-3 7-8zM1355 860c54-15 108-29 300-76 177-43 193-48 228-82l37-36V429c0-131-4-240-9-243s-34 22-66 57c-31 34-141 150-244 257-398 416-372 385-314 375 21-4 52-11 68-15zm1248 6c-8-13-215-233-439-466-61-63-130-136-154-163-70-78-70-79-64 190l5 238 37 37c36 35 46 39 302 102 354 87 324 81 313 62z"
  />
</svg>