<svg xmlns="http://www.w3.org/2000/svg" viewBox="0 0 1680 1680"><path fill="#000" d="M715 1670c-353-56-624-314-696-664C-94 456 372-56 925 10c52 6 114 17 138 25l42 13-45 1c-76 2-234 29-301 52-159 54-263 126-351 242-165 217-191 419-81 647 43 89 159 213 238 253 182 91 382 97 537 15 89-47 187-146 229-233 32-66 34-75 34-180 0-101-2-115-28-168-31-63-92-118-181-165-46-24-62-27-151-27-95 0-103 2-163 34-103 56-170 149-179 251-5 54-3 63 21 95 33 43 74 65 120 65 28 0 45-9 81-43 55-53 61-97 20-146-25-29-25-31-10-60 27-53 110-81 183-62 60 17 138 96 147 151 16 93-24 210-95 279-23 22-72 56-108 73-63 31-73 33-178 33-110 0-111 0-197-43-127-63-193-149-218-286-16-84-3-159 43-252 56-114 182-232 301-283 60-26 177-51 237-51 80 0 197 28 272 66 37 19 68 30 68 26 0-10-76-66-104-76-10-3-17-9-14-11 6-7 103 27 158 55 64 32 180 157 217 232 95 194 89 456-16 673-109 228-305 387-554 449-81 21-241 28-322 16zm195-184c85-16 140-37 161-62 13-16 11-17-21-10-207 44-389 19-552-74-67-38-78-38-58 0 14 27 124 99 184 123 98 37 174 43 286 23zm81-415c44-20 119-90 119-111 0-16-6-13-62 30-54 41-136 77-195 87-18 3-33 10-33 16 0 16 120 1 171-22z"/></svg>