<svg xmlns="http://www.w3.org/2000/svg" id="root" viewBox="0 0 150 142">
  <path
    d="M 37.507812 95.925781 L 49.386719 98.527344 L 55.558594 109 C 48.589844 106.070312 42.417969 101.554688 37.507812 95.925781 Z M 32.410156 38.023438 L 33.578125 50.082031 L 25.488281 59.152344 C 26.140625 51.476562 28.574219 44.308594 32.410156 38.023438 Z M 86.1875 15.3125 L 74.964844 20.152344 L 63.789062 15.3125 C 67.390625 14.472656 71.128906 14.054688 74.964844 14.054688 C 78.847656 14.054688 82.585938 14.472656 86.1875 15.3125 Z M 124.488281 59.152344 L 116.398438 50.082031 L 117.566406 38.023438 C 121.355469 44.308594 123.832031 51.476562 124.488281 59.152344 Z M 94.417969 109 L 100.59375 98.527344 L 112.472656 95.925781 C 107.5625 101.554688 101.386719 106.070312 94.417969 109 Z M 74.964844 141.949219 L 86.65625 122.171875 C 104.195312 118.726562 118.972656 107.699219 127.4375 92.664062 L 149.976562 87.730469 L 134.636719 70.558594 C 134.917969 68.230469 135.058594 65.902344 135.058594 63.480469 C 135.058594 47.796875 128.980469 33.511719 119.066406 22.851562 L 121.308594 0 L 100.21875 9.214844 C 92.546875 5.679688 83.992188 3.679688 74.964844 3.679688 C 65.984375 3.679688 57.429688 5.679688 49.757812 9.214844 L 28.621094 0 L 30.914062 22.851562 C 20.949219 33.511719 14.917969 47.796875 14.917969 63.480469 C 14.917969 65.902344 15.058594 68.230469 15.339844 70.558594 L 0 87.730469 L 22.539062 92.664062 C 31.003906 107.699219 45.785156 118.726562 63.320312 122.171875 L 74.964844 141.949219 "
  />
</svg>
