<svg xmlns="http://www.w3.org/2000/svg" id="root" viewBox="0 0 4240 4690">
  <path
    id="psDpzHB4s"
    d="M2505 4670 c-26 -11 -687 -271 -1195 -470 -137 -53 -381 -149 -555 -218 -82 -32 -270 -106 -417 -163 -147 -57 -268 -106 -268 -109 0 -3 61 -59 136 -125 76 -66 241 -212 368 -325 128 -113 321 -284 431 -380 109 -96 262 -231 340 -300 78 -69 274 -242 436 -384 162 -143 296 -262 299 -265 39 -44 46 -45 119 -16 82 33 69 -11 106 355 14 135 52 511 85 835 33 325 80 790 105 1035 25 245 48 466 51 493 6 50 1 55 -41 37z"
  ></path>
  <path
    id="pOQwIezlS"
    d="M2615 4156 c-2 -17 -16 -141 -29 -276 -14 -135 -44 -427 -66 -648 -23 -222 -40 -405 -38 -406 2 -1 50 -14 108 -28 422 -102 751 -414 879 -832 127 -415 13 -880 -292 -1194 -464 -477 -1218 -492 -1700 -33 -430 409 -501 1064 -168 1559 l61 91 -85 75 c-133 119 -239 213 -380 336 -172 151 -281 247 -395 349 -52 46 -110 97 -127 113 l-33 28 -37 -57 c-135 -212 -250 -530 -288 -796 -63 -445 5 -869 205 -1267 318 -633 928 -1063 1635 -1151 143 -18 396 -15 540 5 466 67 865 263 1196 591 342 338 552 758 615 1230 19 146 19 430 0 568 -116 820 -681 1488 -1471 1740 -126 40 -124 40 -130 3z"
  ></path>
  <path
    id="p19q9Mgl6j"
    d="M2230 1834 c-103 -45 -157 -160 -125 -269 20 -69 56 -112 120 -141 89 -42 183 -25 252 46 73 75 84 202 25 284 -60 82 -183 119 -272 80z"
  ></path>
</svg>
