<svg xmlns="http://www.w3.org/2000/svg" viewBox="0 0 4100 4130"><path d="M1280 3803v-323l-307-2-308-3-5-315-5-315-323-3-322-2V1290h650V660h620V0h1550v660h610l2 313 3 312 328 3 327 2v1550h-318c-234 0-321 3-330 12s-12 94-12 320v308h-610l-2 320-3 320-773 3-772 2v-322zm941-538c151-23 213-43 356-110 417-196 693-633 693-1096 0-182-60-411-151-577-163-297-481-537-794-601-33-6-79-16-103-21-58-13-278-13-344 1-313 65-497 159-686 351-340 345-443 835-271 1289 31 81 40 99 90 184 120 206 361 416 566 495 32 12 65 25 73 29 8 5 47 16 85 26 174 45 331 55 486 30z"/><path d="M1949 2796c-3-3-32-11-64-17s-90-26-129-44c-267-125-425-373-426-669 0-92 4-118 33-221 11-39 75-175 87-185 3-3 17-21 30-40 29-42 80-93 136-137 47-36 174-103 196-103 8 0 18-3 22-7 30-30 278-44 373-22 133 32 275 112 364 206 48 50 115 146 138 198 7 17 17 37 21 45 44 90 57 329 25 455-31 120-99 238-190 330-44 44-94 87-110 95-17 8-32 17-35 21-14 15-142 69-190 79-61 13-272 25-281 16z"/></svg>