<svg xmlns="http://www.w3.org/2000/svg" id="root" viewBox="0 0 1700 1630">
  <path
    d="M455 1592c-58-32-53-28-130-89-64-51-101-87-143-143-15-19-30-37-33-40-8-6-49-87-80-155-27-62-39-105-45-170-3-27-9-61-13-75-10-33-2-166 14-251 13-68 80-227 118-285 40-58 147-171 190-201 23-15 48-34 55-41 45-42 246-116 347-127 33-4 70-8 81-10 19-3 118 6 211 20 173 25 404 182 512 347 22 35 44 68 48 73 19 25 35 66 82 216 25 79 12 371-20 444-5 11-18 46-29 78-12 31-26 57-31 57s-9 6-9 13c0 25-64 112-136 184-68 68-95 83-159 88-15 1-139-36-145-44-3-3-18-13-34-21-36-19-139-121-175-175-72-106-100-242-67-334 22-63 55-99 169-184 144-107 222-202 248-301 4-17 11-40 14-52 5-14-1-30-18-49-24-28-24-28-90-18-65 11-237 84-237 100 0 5 44-5 98-23 186-61 217-57 200 24-11 51-31 84-90 149-35 39-51 37-29-5 40-74 35-123-15-142-30-12-93 2-172 37-96 42-115 23-45-45 31-30 88-61 170-92 38-14 68-45 58-59-11-18-133-12-206 9-63 19-241 124-250 148-2 5-32 40-66 77-35 37-63 74-63 81 0 8-3 14-8 14-11 0-66 131-77 187-20 96-26 241-16 355 12 140 13 145 50 326 16 72 25 132 22 131-3 0-28-12-56-27z"
  />
</svg>