<svg xmlns="http://www.w3.org/2000/svg" id="root" viewBox="0 0 150 187">
  <path
    d="M 42.257812 98.5625 L 30.628906 108.566406 L 42.257812 108.566406 L 42.257812 111.433594 L 29.988281 111.433594 L 38.871094 123.042969 L 36.488281 124.773438 L 27.820312 113.878906 L 27.820312 117.542969 C 8.414062 113.878906 1.820312 95.863281 1.820312 95.863281 C -1.597656 87.589844 0.847656 78.210938 0.847656 78.210938 C 3.65625 67.863281 22.332031 49.972656 22.332031 49.972656 C 25.015625 46.980469 23.308594 43.269531 23.308594 43.269531 C 20.015625 36.210938 0.847656 23.433594 0.847656 23.433594 L 9.148438 9.082031 C 18.578125 16.964844 32.648438 28.484375 32.648438 28.484375 C 39.605469 34.605469 42.261719 42.085938 42.261719 42.085938 C 45.738281 51.125 36.949219 59.523438 36.949219 59.523438 L 21.125 76.230469 C 13.734375 84.722656 18 91.703125 18 91.703125 C 21.339844 97.609375 28.023438 102.082031 28.023438 102.082031 L 28.023438 105.917969 L 39.699219 95.679688 L 42.261719 98.5625 "
  />
  <path
    d="M 44.667969 119.488281 L 44.667969 134.589844 C 44.667969 134.589844 44.179688 155.050781 60.976562 167.890625 C 61.542969 168.3125 61.863281 168.980469 61.863281 169.683594 L 61.863281 192.527344 L 127.273438 192.527344 L 127.273438 171.429688 C 127.273438 170.417969 127.742188 169.464844 128.566406 168.84375 C 133.164062 165.320312 148.246094 151.683594 145.46875 125.816406 L 89.734375 142.132812 L 103.792969 121.921875 L 65.632812 131.410156 L 80.945312 109.5 L 44.667969 119.488281 "
  />
  <path
    d="M 101.035156 95.132812 L 87.285156 116.140625 L 124.007812 105.636719 L 110.628906 125.816406 L 145.808594 116.328125 L 145.808594 39.078125 C 145.808594 39.078125 145.542969 31.863281 137.847656 31.863281 C 137.847656 31.863281 129.472656 31.773438 129.472656 38.984375 L 129.472656 87.480469 C 129.472656 88.679688 128.484375 89.664062 127.273438 89.664062 L 126.667969 89.664062 C 125.453125 89.664062 124.46875 88.683594 124.46875 87.480469 L 124.46875 19.164062 C 124.46875 19.164062 124.203125 12.417969 117.128906 12.417969 C 117.128906 12.417969 108.65625 11.777344 108.65625 19.804688 L 108.65625 87.292969 C 108.65625 88.496094 107.679688 89.476562 106.464844 89.476562 L 106.421875 89.476562 C 105.21875 89.476562 104.238281 88.496094 104.238281 87.292969 L 104.238281 7.304688 C 104.238281 7.304688 104.324219 0.464844 96.460938 0.0117188 C 96.003906 -0.0195312 95.542969 0.0117188 95.085938 0.0742188 C 92.964844 0.339844 87.664062 1.601562 87.664062 7.304688 L 87.664062 87.480469 C 87.664062 88.679688 86.691406 89.664062 85.472656 89.664062 L 84.773438 89.664062 C 83.558594 89.664062 82.582031 88.679688 82.582031 87.480469 L 82.582031 16.703125 C 82.582031 16.703125 82.492188 10.125 75.050781 9.859375 C 75.050781 9.859375 66.488281 9.769531 66.488281 16.609375 L 66.488281 87.480469 C 66.488281 88.679688 65.5 89.664062 64.292969 89.664062 L 63.402344 89.664062 C 62.191406 89.664062 61.210938 88.679688 61.210938 87.480469 L 61.210938 63.09375 C 61.210938 62.984375 61.210938 62.875 61.210938 62.78125 C 61.234375 61.953125 61.121094 57.105469 56.359375 54.597656 C 54.484375 53.617188 52.269531 53.460938 50.21875 54.039062 C 47.980469 54.660156 45.292969 56.015625 45.292969 58.851562 L 45.203125 110.324219 L 101.042969 95.128906 "
  />
</svg>
